<?xml version="1.0" encoding="utf-8"?>
<!-- Generator: Adobe Illustrator 24.0.1, SVG Export Plug-In . SVG Version: 6.00 Build 0)  -->
<svg version="1.1" id="Layer_1" xmlns="http://www.w3.org/2000/svg" xmlns:xlink="http://www.w3.org/1999/xlink" x="0px" y="0px"
	 viewBox="0 0 141.7 141.7" style="enable-background:new 0 0 141.7 141.7;" xml:space="preserve">
<style type="text/css">
	.st0{fill:#75CEEB;}
	.st1{fill:#FFFFFF;}
	.st2{opacity:0.61;fill:#75CEEB;}
	.st3{fill:#C9B09D;}
	.st4{opacity:0.55;fill:#E2DEDE;}
	.st5{opacity:0.8;fill:#EDBC7A;}
	.st6{fill:#B77329;}
	.st7{opacity:0.61;fill:#BEE6F0;}
	.st8{fill:#EE6459;}
	.st9{fill:#EDBC7A;}
	.st10{opacity:0.45;fill:#E2DEDE;}
	.st11{opacity:0.2;fill:#FFFFFF;}
	.st12{opacity:0.35;fill:#FFFFFF;}
	.st13{fill:#070707;}
	.st14{fill:none;stroke:#070707;stroke-width:0.4547;stroke-miterlimit:10;}
	.st15{fill:#010101;}
	.st16{fill:none;stroke:#070707;stroke-width:0.3031;stroke-miterlimit:10;}
	.st17{fill:#231F20;}
	.st18{fill:none;stroke:#231F20;stroke-width:0.1516;stroke-miterlimit:10;}
	.st19{fill:none;stroke:#231F20;stroke-width:0.6062;stroke-miterlimit:10;}
	.st20{fill:none;stroke:#231F20;stroke-width:0.3031;stroke-miterlimit:10;}
</style>
<path class="st0" d="M58.9,86.7l-0.2-4.5l-0.6-7.1c0,0-0.3-11.9,1.4-16.5c0,0-8.3-1.4-4.7-8.9c0,0,4.8-5.9,10.4-1.8l0.6-0.2
	c0,0,4.4-5.5,16.2-5.7l10.5-0.8c0,0,8.3,0.9,13.6,5.2c0,0,7.1-3.6,10.3,1c0,0,3.9,7.2-3.5,9.7l-0.1,0.8l0.7,3.9l0.4,4.1l0.1,5.5
	l0,9.8l0.3,6.3l0.7,14.8v5.2l-0.4,4.2l-0.9,4.4l-1,2.9l-0.9,1.7l-1.9,3.3l-0.7,0.7c0,0-4.3-0.5-5.5,3l-2,1.1l-3.2,0.8l-4.8,0.8
	l-4.3,0.6l-3.8,0.5l-4.3,0l-3,0l-3.1-0.7l-2.7-0.7l-2-1.2v-0.4l-1.2-1.2l-1.1-1l-1-0.9l-1-0.2l-1.2,0.2l-1.2-1.4
	c0,0-5.5-5.7-5.5-15.9l0.5-8.7l0.3-5.3L58.9,86.7z"/>
<circle class="st1" cx="75.7" cy="56.2" r="8.5"/>
<circle class="st1" cx="96.4" cy="55.3" r="8.5"/>
<path class="st2" d="M69.5,61.5c0.3,0.2,0.6,0.4,1.1,0.6c0.7,0.3,1.4,0.5,2.4,0.7c1.3,0.2,3.2,0.5,5.6,0c0.8-0.2,2-0.4,3.3-1
	c-0.4,0.5-2.5,2.7-5.8,2.9c0,0-2.4,0.1-4.8-1.3c-0.3-0.2-0.8-0.5-1.3-1.1C69.7,62,69.6,61.7,69.5,61.5z"/>
<path class="st2" d="M90,60.7c0.5,0.2,1,0.5,1.7,0.7c0.2,0.1,1.1,0.3,2.2,0.5c2.9,0.5,5.3,0,5.7-0.1c0.9-0.2,2-0.5,3.4-1.1
	c-0.3,0.4-0.8,1-1.5,1.6c-1.9,1.5-3.9,1.6-4.6,1.7c-2.2,0.1-4.1-0.7-4.8-1.3c-0.6-0.5-1.3-1.1-1.3-1.1C90.4,61.2,90.2,60.9,90,60.7z
	"/>
<path class="st1" d="M83.2,69.7c-0.1,0.4-0.2,0.8-0.2,1.3c-0.1,0.7,0,1.3,0.1,1.8c0.2,0.5,0.5,1.1,0.7,1.6c0.1,0.1,0.4,0.4,0.8,0.6
	c0.4,0.2,0.8,0.2,1,0.2c0.2-0.1,0.5-0.2,0.7-0.5c0.2-0.2,0.3-0.4,0.4-0.5c0.4,0.3,0.8,0.5,1.2,0.8c0.3,0,0.7,0.1,1.2,0
	c0.4-0.1,0.8-0.2,1-0.4c0.1-0.2,0.4-0.5,0.6-1c0.1-0.4,0.1-0.7,0.1-0.9c0-0.6-0.1-1.2-0.1-1.8c-0.1-0.4-0.2-0.9-0.3-1.3
	c-0.5-0.2-1-0.3-1.6-0.5l-1.1-0.3l-0.9,0.1l-1,0.2l-1,0.3L83.2,69.7z"/>
<path class="st3" d="M83.2,63.9l-1.3,0.6l-1.1,0.9l-0.7,0.8l-0.5,0.5l-0.2,0.8v0.9l0.6,0.6l0.7,0.5l2.1,0.7l0.6-0.4l1.4-0.3l1.7-0.4
	l1.1-0.1l1.2,0.3l1.4,0.4l1.7,0.2L93,69l0.5-0.9l0-1l-0.2-0.7l-0.6-0.8L92,64.9l-0.7-0.4l-0.7-0.4L90,63.8c0,0-1-0.3-1-0.3
	C88.9,63.4,83.2,63.9,83.2,63.9z"/>
<polygon class="st3" points="58.7,86.6 57.7,86.6 56.6,86.8 55.6,87.2 54.5,87.8 53.7,88.5 52.9,89.4 52.7,89.9 52.7,90.6 
	53.1,91.1 53.6,91.4 53.8,91.9 54,92.2 54.6,92.5 55.5,92.6 56.5,92.3 57.1,91.8 58,91.1 58.7,90.5 59.1,89.9 58.9,87.8 "/>
<path class="st3" d="M114.2,89.3c0.1,0.1,0.9,0.9,0.9,0.9l1.3,1l1.3,0.7l1.2,0.1l0.8-0.3l0.6-0.6l0.2-0.8l-0.1-0.9l-0.6-1.4
	l-0.6-0.6l-0.9-0.6l-0.8-0.4l-1-0.3l-1.2-0.1l-1.3-0.2L114.2,89.3z"/>
<path class="st3" d="M65.9,125.5l-0.9,0.5l-1.1,0.6c0,0-0.7,0.5-0.8,0.6c-0.1,0.1-0.9,0.7-0.9,0.7s-0.5,0.5-0.6,0.7
	c-0.1,0.1-0.5,0.7-0.5,0.7s-1.1,1.2,0.8,2.8l0.9,0.5l1.2,0.1l0.9-0.3l0.8-0.4l1.1-0.8l1.5-1.1l0.9-0.6l1.1-0.5h0.5l-1.4-1.4l-0.8-1
	l-1.1-0.9l-0.7-0.2L65.9,125.5z"/>
<path class="st3" d="M103.8,127.7"/>
<path class="st3" d="M104,128.2l1,1.1l1.1,1.3l1.4,1.3l1.7,0.7h1.6l0.7-0.7l0.5-1V130l-0.4-1.5l-0.5-0.8l-0.6-1.1l-1-1l-0.9-0.4
	c0,0-1-0.2-1-0.2c0,0-2,0.5-2,0.5l-1,0.6l-0.8,0.9L104,128.2z"/>
<path class="st4" d="M57.8,130.4c0,0.1,0.6,1.3,0.6,1.3l1,1.2c0.8,0.6,2.4,1.8,4.7,2.2c1.9,0.3,3.4,0,4.1-0.1c1-0.2,2.4-0.5,3.8-1.7
	c1.1-0.9,1.7-1.9,2-2.5c-0.1,0.5-0.2,1-0.3,1.5c-0.1,0.4-0.4,0.9-0.7,1.4c-0.4,0.5-0.8,0.9-1.1,1.2c-0.5,0.4-1.4,1-2.5,1.5
	c-1.1,0.5-2.2,0.6-2.8,0.6c-0.7,0-1.7,0-2.8-0.2c-1.2-0.3-2.1-0.7-2.7-1.1c-0.7-0.4-1.5-1-2.3-2.1c-0.4-0.6-0.9-1.3-1-2.4
	C57.7,130.8,57.7,130.5,57.8,130.4z"/>
<path class="st4" d="M99.7,130.4c0,0.1,0.6,1.3,0.6,1.3l1,1.2c0.8,0.6,2.4,1.8,4.7,2.2c1.9,0.3,3.4,0,4.1-0.1c1-0.2,2.4-0.5,3.8-1.7
	c1.1-0.9,1.7-1.9,2-2.5c-0.1,0.5-0.2,1-0.3,1.5c-0.1,0.4-0.4,0.9-0.7,1.4c-0.4,0.5-0.8,0.9-1.1,1.2c-0.5,0.4-1.4,1-2.5,1.5
	c-1.1,0.5-2.2,0.6-2.8,0.6c-0.7,0-1.7,0-2.8-0.2c-1.2-0.3-2.1-0.7-2.7-1.1c-0.7-0.4-1.5-1-2.3-2.1c-0.4-0.6-0.9-1.3-1-2.4
	C99.7,130.8,99.7,130.5,99.7,130.4z"/>
<path class="st4" d="M48.1,65.1c-0.2,1.4-0.3,3-0.4,4.6c-0.1,1.7-0.1,3.2,0,4.7c0,1,0.1,2.4,0.3,4.1c0.2,1.8,0.3,4,0.8,6.7
	c0.3,1.8,0.8,4.2,1.6,7c0.3,1.3,0.8,2.8,1.4,4.4c0.9,2.5,1.8,4.3,2.2,5.2c0.9,1.8,2.1,4,3.6,6.4c1,1.5,2,2.8,2.9,3.8
	c1.5,1.8,2.8,3.2,3.4,3.9c1.2,1.2,2,1.9,2.3,2.2c0.7,0.6,1.3,1.1,1.8,1.4c1.5,1.1,3.4,2.4,5.8,3.4c4.6,2.1,8.7,2.6,11.6,2.7
	c1.6,0,3.7-0.1,6.1-0.5c0.8-0.2,3.9-0.8,7.6-2.6c2.9-1.4,5.1-3.1,6.9-4.5c1.1-1,2.2-2,3.3-3.2c5.3-5.6,8.4-11.7,10.2-16.6
	c-1.7,3.9-4.4,8.6-8.4,13.1c-1,1.2-2.1,2.2-3.1,3.2c-0.8,0.7-1.8,1.6-3.1,2.6c-2.6,1.9-4.8,3-5.8,3.5c-1.1,0.5-3,1.4-5.7,2.1
	c-1.7,0.4-4,0.9-6.9,0.9c-1.4,0-3.1-0.1-4.9-0.4c-1.9-0.3-3.5-0.8-4.9-1.2c-1.6-0.6-3-1.2-4-1.7c-2.2-1.1-3.8-2.3-4.8-3
	c-1-0.7-1.6-1.3-1.9-1.5c-0.8-0.7-1.5-1.4-2-1.9c-0.6-0.4-1.4-1.1-2.2-2.1c-0.3-0.4-0.5-0.6-0.7-0.8c-1.4-1.9-2-2.5-2.9-3.7
	c-1-1.4-1.6-2.5-2.5-4c-1.1-2-1.8-3.6-2.3-4.5c-0.9-2-1.5-3.5-1.7-4.1c-0.5-1.3-0.8-2.3-1.1-3.2c-0.7-2.3-1.1-4.3-1.5-6.2
	c-0.2-1-0.6-3.3-1-6.4c-0.1-1.2-0.2-2.2-0.3-3.7c-0.1-1.9,0-2.8,0-5.7C48.1,68.3,48.1,66.9,48.1,65.1z"/>
<path class="st5" d="M49.2,49.7l-0.7,0L47.6,50L47,50.8l-0.3,1.1c0,0-0.2,1.8-0.1,1.9c0.1,0.1,0.1,2,0.1,2s0.1,2.1,0,2.2
	c-0.1,0.2-0.1,1.6-0.1,1.6l0.2,1.3l0.7,0.6l0.6,0.2h0.4l0.5-2.1l0.5-1.8l0.2-1C49.6,56.7,49,54.2,49.2,49.7z"/>
<path class="st5" d="M39,56.6l-0.5-0.2l-0.6,0.1l-0.6,0.5l-0.2-0.5l0.1-0.9l0.2-0.9l0.6-1l0.7-0.7l0.9-0.5l1.4-0.3l1.3,0.2l1,0.4
	l0.8,0.7c0,0,0.7,0.9,0.7,1c0,0.1,0.2,0.7,0.3,0.8c0,0.1,0.1,0.9,0.1,0.9l-0.1,0.5l-0.4-0.5l-0.5-0.3c-0.1,0-0.3-0.1-0.5-0.1
	c-0.3,0-0.5,0.2-0.6,0.2c-0.1-0.2-0.2-0.5-0.3-0.7l-0.5-0.6l-0.5-0.3l-0.8-0.2h-0.5L40,54.5l-0.5,0.3l-0.2,0.5L39.1,56L39,56.6z"/>
<path class="st5" d="M37.3,57.5c0,0,0.5,0.9,0.5,0.9l0.6,0.7c0,0,2.7,2.3,5.3,0c0,0,1.2-1.1,1.3-2.5c0,0-0.7-1.4-1.9-0.6
	c0,0-0.2,1.6-1.2,1.9c0,0-1.7,0.6-2.3-0.4l-0.6-1l-0.9-0.2l-0.6,0.3l-0.2,0.3V57.5z"/>
<path class="st6" d="M45.7,58.2c0,0-1.2-2.6-0.2-4.8l1,0.1l0.1,1l0.1,2.3l-0.2,1.4H45.7z"/>
<path class="st7" d="M79.6,114.1c0.2,0.6,0.7,2,2,3.2c0.3,0.3,2.1,1.7,4.6,1.5c2.1-0.1,3.5-1.3,4-1.7c1.6-1.4,2.1-3,2.3-3.7
	c-0.1,0.5-0.3,1.3-0.6,2.1c-0.2,0.7-0.7,1.9-1.5,2.9c-0.4,0.5-2.3,2.8-5,2.7c-0.3,0-1.9-0.1-3.2-1.3c-0.6-0.5-0.9-1.2-1.3-1.9
	c-0.5-0.9-0.7-1.7-0.9-2.2C79.8,115.1,79.7,114.5,79.6,114.1z"/>
<polygon class="st8" points="81.8,112.6 82.1,113.9 82.9,115.2 83.9,115.9 85.2,116.3 86.8,116.1 88.1,115.5 89.3,114.5 90.2,113.4 
	90.8,112.4 91,111.2 89.3,109.3 87.3,109.4 84.7,109.7 82.1,110.5 "/>
<path class="st9" d="M120.2,43.2c0,0,1.6-1.1,2.5,0.4l1.1,5.1l0.5,2.5l-0.1,1.6l-0.7,0.8l-0.9,0.4l-0.4-1.4l-0.7-2l-0.1-1.3
	c0,0,0-1.3-0.1-1.5s-0.3-1.6-0.3-1.6l-0.6-1.3L120.2,43.2z"/>
<polygon class="st9" points="125,47 124.9,45.7 125.3,44.5 126,43.6 126.7,43.1 128.2,42.5 129.4,42.5 130.5,42.9 131.5,43.6 
	132.2,44.5 132.5,45 132.5,45.4 132,45.4 131.3,45.7 130.9,46 130.4,45.2 129.8,44.7 128.8,44.5 128.3,44.5 127.5,44.9 127.1,45.4 
	126.7,46.5 125.8,46.6 "/>
<path class="st9" d="M126.7,46.8c0.1,0.1,0.1,0.3,0.2,0.6c0.1,0.2,0.2,0.4,0.3,0.5c0.3,0.2,0.5,0.4,0.8,0.6l1.3,0.1l0.7-0.4l0.5-0.6
	l0.3-1l0.1-0.5l0.8-0.5l0.8-0.1l0.3,0.8c0,0.3-0.1,0.6-0.1,0.9c0,0.3-0.1,1-0.5,1.6c-0.5,0.7-1.1,1.1-1.4,1.2
	c-0.3,0.2-1,0.5-1.9,0.5c-0.7,0-1.3-0.2-1.7-0.3c-0.3-0.1-0.6-0.3-1-0.6c-0.5-0.4-0.7-0.8-0.9-1.1c-0.1-0.2-0.2-0.4-0.3-0.8
	c-0.1-0.4-0.1-0.6,0-0.7c0.1-0.3,0.5-0.3,0.8-0.4C126.1,46.6,126.5,46.6,126.7,46.8z"/>
<path class="st6" d="M123.3,45.3c0.1-0.3,0.4-0.3,0.4-0.4c0.1,0,0.3-0.1,0.5,0c0.1,0,0.2,0.1,0.3,0.5c0.1,0.2,0.1,0.4,0.2,0.7
	c0.1,0.3,0.1,0.5,0.2,0.9c0.1,0.8,0.1,0.7,0.2,0.9c0.1,0.4,0.1,0.5,0.2,0.8c0.1,0.4,0,0.6,0,0.6c0,0.1-0.1,0.4-0.4,0.5
	c0,0-0.3,0.1-0.5,0c-0.1-0.1-0.2-0.1-0.2-0.3c-0.2-0.4-0.2-0.7-0.2-0.8c0-0.3,0,0-0.2-1c-0.2-1.1-0.1-1-0.2-1.2
	c-0.1-0.2-0.1-0.4-0.2-0.8C123.2,45.6,123.2,45.4,123.3,45.3z"/>
<path class="st10" d="M58.1,75.1c-0.4-0.5-0.7-1-1.1-1.4c-0.5-0.6-1-1.3-1.6-1.9c-0.4-0.6-0.8-1.3-1.2-1.9c-0.4-0.5-0.7-1.1-1.1-1.6
	c-0.5-1-0.9-2-1.4-2.9c-0.6-1.3-1.1-2.8-1.6-4.7c-0.3-1.4-0.5-2.6-0.6-3.7c-0.3-1.5-0.4-3.3-0.4-5.3c0.1-4.8,1.4-8.6,2.6-11.1
	c1.2-2.8,3.8-7.7,9-12.2c5-4.4,10.2-6.4,13.1-7.2c3.3-1.1,9.9-2.7,18-1.3c7,1.2,12.1,4.1,14.9,5.9c2.1,1.6,4.9,3.8,7.5,7.1
	c2.3,2.9,3.9,5.7,4.9,7.9c0.6,1.7,1.3,3.8,1.7,6.1c0.7,3.6,0.7,6.7,0.6,9.2c-0.2,1.6-0.5,3.6-1.1,5.8c-0.7,2.3-1.5,4.2-2.3,5.7
	c-0.5,0.9-1.1,1.9-1.7,2.9c-0.8,1.2-1.6,2.4-2.3,3.4c-0.2-3.8-0.4-7.7-0.7-11.5l-0.6-4.7c0.5-0.1,1.8-0.3,2.9-1.4
	c1.4-1.3,1.6-2.8,1.6-3.3c0.1-0.5,0.3-1.6,0-2.9c-0.3-1.4-1-2.3-1.4-2.7c-0.3-0.4-1.1-1.2-2.3-1.6c-1.5-0.5-2.7-0.3-3.2-0.2
	c-0.7,0.1-1.5,0.2-2.3,0.5c-0.8,0.2-1.5,0.5-2,0.8c-1.1-0.9-2.6-1.9-4.4-2.8c-1.4-0.7-2.7-1.2-3.9-1.6c-1.7-0.4-3.9-0.8-6.4-0.9
	c-2.2-0.1-4.1,0.1-5.7,0.3c-2.1,0.1-4.3,0.3-6.8,0.6c-2,0.3-4,0.6-5.7,1c-1.1,0.4-2.4,0.9-3.9,1.7c-1.7,1-3,2-4,2.9
	c-0.4-0.4-1.3-1-2.7-1.3c-1.1-0.2-1.9-0.1-2.5,0c-0.5,0-1.3,0.1-2.1,0.4c-1.3,0.5-2.1,1.2-2.5,1.7c-0.4,0.4-0.9,1-1.3,1.9
	c-0.5,1.1-0.5,2.1-0.5,2.7c0.1,0.5,0.2,1.5,0.9,2.5c0.6,1,1.5,1.6,1.9,1.9c0.4,0.2,0.9,0.5,1.6,0.6c0.6,0.2,1.1,0.2,1.5,0.2
	c-0.5,2-0.9,4.3-1.1,6.8C57.9,68.9,57.9,72.2,58.1,75.1z"/>
<path class="st11" d="M50.4,89.7c-0.8-2.9-1.4-6.2-1.9-9.9c-0.6-4.8-0.6-9.2-0.4-12.8c0.1-2.6,0.5-5.5,1.1-8.7
	c0.8-4.2,2-7.9,3.2-10.9c0.9-2.6,2.4-6,4.7-9.7c1.2-1.9,3-4.8,6.2-8c2-1.9,4.9-4.5,9.1-6.8c1.6-0.7,3.2-1.3,4.8-2
	C80,20,84.4,19,89.6,19.6c10,1.1,16.4,7.4,19.3,10.2c2.3,2.3,5.5,5.9,8.1,11.2c0.8,1.6,1.5,3.2,2.3,4.8c1.9,4.1,2.6,7.4,3.1,9.7
	c1.4,5.9,1.8,10.6,1.9,11.9c0.5,6.3,0,11.2-0.3,13.7c-0.8,6.7-2.6,12.5-4.6,17.4c-1.3,3-3.4,6.9-6.7,10.9
	c-4.1,5.1-8.6,8.3-11.8,10.3c-2.1,1.2-5.1,2.7-9.1,3.5c-7.1,1.4-12.9-0.3-15.6-1.3c-2.2-0.9-4.8-2.1-7.4-3.9
	c-6.6-4.5-10.3-10.2-12.3-13.8c-1.1-1.9-2.3-4.2-3.4-6.7C52,94.8,51,92.1,50.4,89.7z"/>
<path class="st12" d="M57.8,130.4l-0.1-1.8l1.1-2.4l1.7-1.2l2.2-1.2l2-0.6l2.2,0l1.9,0.4l2.2,1l1.9,1.4l1,1.6l0.2,1.4l-0.1,1.5
	l-0.8,1.2l-1.1,1.2l-2.1,1.3l-1.9,0.6l-2.3,0.3l-2.4-0.3C63.5,134.9,59.1,134.3,57.8,130.4z"/>
<polygon class="st12" points="99.9,130.8 99.6,130.1 99.7,128.6 100.4,127.1 101.4,125.8 102.6,124.9 103.8,124.2 105.5,123.6 
	107.5,123.4 109.5,123.4 111.4,123.9 113.6,125.2 114.9,126.6 115.8,127.7 116,129.2 116,130.1 115.5,131.3 114.8,132.4 
	113.4,133.6 111.9,134.4 109.9,135 107.8,135.2 105.8,135 104.3,134.6 102.8,133.9 101.6,133.1 100.5,131.8 "/>
<path class="st9" d="M73.2,126.6l-0.5-1.7l-0.3-2.4c0,0-9.9-6-14.2-13.4l0.2,3l0.8,3.6l0.9,2.8l0.9,1.9l1.4,2.3l0.5,0.7l2,2.6
	l0.8-0.4l1.3,0.1l1,0.7l0.7,0.8l0.8,0.8l0.9,1l1,0.8l1.6,0.5l0.8,0.3l0.1-2L73.2,126.6z"/>
<polygon class="st9" points="102.2,121 102.1,122.5 101.8,124 101.3,125.5 100.5,126.9 99.7,128.3 99.7,129.6 102.2,129.1 
	103.8,128.1 103.9,126.9 105.1,125.8 106.4,125.1 108,124.9 109,125.1 110.9,122.3 112.4,119.3 113.4,116.5 114.4,113.4 
	114.5,110.8 114.7,108.4 113.2,110.2 111.1,112.8 109.7,114.4 107.8,116.4 106.1,118 103.9,119.7 "/>
<path class="st6" d="M73.1,126.1l-0.4-1.9l-0.2-1.9c0,0,6.4,3.4,12.6,3.4c0,0,6.1,0.4,12.4-2.4l4.7-2.4l-0.1,1.6l-0.4,1.7l-0.4,1.3
	l-1.2,1.5l-0.5,1.7l0.1,0.8l-11.1,1.8l-9,0.4l-2.5-0.3l-3.1-0.8l0.1-1.5l-0.5-1.9L73.1,126.1z"/>
<polygon class="st6" points="33.7,30.7 35.8,28.9 39.3,25.2 41.8,22.2 40.2,22.5 37.7,22.8 35.2,23.8 32.1,24.4 29.8,25.2 
	28.6,25.8 28.7,26.1 29.5,27 "/>
<polygon class="st6" points="41.1,38.1 50.2,29.5 46.9,41.7 46.1,43.6 45.8,43.5 "/>
<path class="st0" d="M33.7,30.7L48,15.4c0,0,6.9-7,15.7-9.2c0,0.2,0.2,0.8,0.7,1.2C64.8,7.9,65.4,8,65.6,8c-0.9,2.2-2.1,4.8-3.7,7.5
	c-2.5,4.1-5.2,7.2-7.6,9.4c-4.4,4.4-8.8,8.8-13.2,13.2L33.7,30.7z"/>
<polygon class="st9" points="31.9,28.9 38.3,22.9 34.1,24 30.3,27.4 "/>
<path class="st9" d="M42.7,39.8l6.3-5.8l-1.1,4.3c-0.7,0.6-1.2,1.1-1.6,1.5c-0.4,0.5-0.8,0.9-1.5,1.3c-0.3,0.2-0.5,0.3-0.7,0.3
	C43.6,40.9,43.1,40.4,42.7,39.8z"/>
<path class="st1" d="M61.9,7.8l-0.8,0.5c-0.2,0.3-0.5,0.6-0.7,0.9c0,0.2-0.1,0.5-0.1,0.7c0.2,0.1,0.3,0.3,0.5,0.4c0.3,0,0.6,0,0.9,0
	c0,0.2-0.1,0.4-0.1,0.7c0.1,0.2,0.1,0.3,0.2,0.5c0.1,0,0.5,0.3,0.9,0.1c0.5-0.2,0.7-0.6,0.7-0.6c0.2-0.3,0.5-0.6,0.7-0.9
	c-0.1-0.1-0.3-0.2-0.5-0.4c-0.2-0.3-0.1-0.5-0.3-0.7c-0.3-0.3-0.6-0.2-1-0.5C62.1,8.1,62,7.9,61.9,7.8z"/>
<path class="st1" d="M55.6,15.3l-0.4-1.6l1.2-1.2h1.4c0,0,1.3,1.1,1.1,1.2s0.1,1.3-0.1,1.3S57.6,16,57.4,16c-0.2,0-1.4-0.1-1.4-0.1
	L55.6,15.3z"/>
<path class="st1" d="M51,19.4v-1.2l1-0.7h1.3l0.6,0.9c0,0,0.1,1-0.1,1.1c-0.2,0.1-1.1,0.8-1.1,0.8L51.5,20L51,19.4z"/>
<polygon class="st1" points="48,23.4 48.5,22.8 49.4,23.1 49.2,24 48.5,24.4 47.8,24 "/>
<polygon class="st1" points="44.7,20.7 44.6,20.3 45.1,19.7 45.6,19.7 45.6,20.3 45,20.7 "/>
<polygon class="st1" points="48.8,16.5 48.9,16 49.5,15.6 50,15.4 50,15.8 49.7,16.3 49.1,16.7 "/>
<polygon class="st1" points="53,12.8 53.4,12.2 54.2,11.5 54.9,10.9 55.6,10.8 55.5,11.1 54.9,11.8 54.4,12.2 53.6,12.6 "/>
<path class="st6" d="M37,34c0.5-0.6,1.1-1.2,1.6-1.8l2.7-2.4l1.9-2.1l1.4-1.4c0.4-0.4,0.9-0.8,1.3-1.2c0.2,0,0.4,0,0.6,0
	c0,0,0.2,0.2,0.2,0.5c0,0.4-0.3,0.6-0.3,0.6c-0.3,0.3-0.5,0.6-0.8,0.8c-0.3,0.3-0.6,0.6-0.8,0.9c-0.4,0.4-0.8,0.7-1.2,1.1
	c-0.4,0.4-0.8,0.8-1.2,1.1c-0.4,0.4-0.8,0.7-1.3,1.1c-0.4,0.4-0.8,0.8-1.2,1.2c-0.4,0.3-0.8,0.6-1.2,1c-0.3,0.4-0.7,0.7-1,1.1
	C37.5,34.5,37.2,34.3,37,34z"/>
<polygon class="st3" points="44.7,18.9 44.1,18.8 43.4,18.8 42.8,18.4 42.4,18 42.5,17.6 42.7,17.5 42.5,17.3 42.7,16.8 43.3,16.7 
	44.3,16.6 45.1,16.9 45.7,17.6 45.7,17.8 45.2,18.3 "/>
<polygon class="st3" points="53,26.4 53.1,27.1 53.4,28 53.7,28.4 53.9,28.7 54.4,28.8 54.9,28.7 55.3,28.1 55.5,27.6 55.5,27 
	55.3,26.5 55,26.2 54.7,25.7 54.2,25.2 "/>
<polygon class="st3" points="62.3,6.6 61.9,7 61.8,7.4 61.8,7.8 62,8.1 62.4,8.3 63,8.5 63.4,8.8 63.6,9.2 63.8,9.7 64,9.9 
	64.4,9.9 64.9,9.7 65.2,9.4 65.7,8.1 65.6,7.6 64.3,6.7 63.6,6.2 "/>
<polygon class="st8" points="30,26.1 29.8,25.7 30.2,25.8 30.5,25.5 30.5,25.8 30.9,26.1 30.5,26.2 30.5,26.6 30.3,26.4 29.8,26.5 
	"/>
<polygon class="st8" points="45.5,41.6 45.4,41.3 45.7,41.4 46,41.1 46.1,41.5 46.4,41.6 46.1,41.8 46.1,42.2 45.8,41.9 45.4,42 "/>
<path class="st12" d="M33.7,30.7c0.1,0,1-0.8,1-0.8l3.2,3l-1,1L33.7,30.7z"/>
<path class="st12" d="M37.8,34.8l3.3,3.5l1.1-1c-1.2-1.2-2.3-2.3-3.5-3.5C38.4,34.2,38.1,34.5,37.8,34.8z"/>
<polygon class="st12" points="46.1,17.4 54.3,25 58.4,20.6 50.5,13 "/>
<polygon class="st12" points="56,9.1 62.3,14.9 63.6,12.8 64.9,9.7 64.4,9.9 64.2,9.9 63.5,10.8 62.8,11.5 62.3,11.4 61.8,11.4 
	61.6,10.9 61.7,10.2 61.1,10.3 60.5,10.1 60.3,9.7 60.7,8.7 61.4,8 61.8,7.8 61.8,7.4 62.3,6.6 60.5,7.2 58.5,8 "/>
<path class="st6" d="M44.6,42.3l-0.5,0.3l-0.6,0.6l-0.4,0.5l-0.5,0.4l-0.5,0.5l-0.5,0.3h-0.6l-0.6,0.3l0.7,0.2
	c0.4-0.1,0.8-0.1,1.3-0.2c0.2-0.1,0.5-0.3,0.7-0.4l0.9-1l0.5-0.7l0.5-0.4c0-0.1-0.1-0.2-0.1-0.3C44.9,42.4,44.7,42.4,44.6,42.3z"/>
<path class="st9" d="M18.5,79.7l-1-1.3l-0.5-1.3l-0.4-1.3l-0.2-1.2l-0.1-1.5l0.2-1.9l0.4-1.9l0.6-1.8l1-3l1.7-2.9l2.3-3.1l2.6-2.4
	l3.5-2.1l2-1.6l0.9-1.3l0.6-2.7l0.5-2.3l0.6-1.3l1.2-0.7l1.7-0.1l0.9,0.3l-1.4,0.1l-1.2,0.3l-0.7,0.7c0,0-0.4,0.7-0.4,0.8
	c0,0.1-0.1,1.1-0.1,1.1l-0.3,1.5c0,0-0.2,1.2-0.2,1.3c0,0.1-0.6,1.7-0.6,1.7l-1.1,1.3l-1.5,1.1l-2,1.2L26,56.4L24.2,58l-1.6,1.9
	l-1.4,2.4l-1.2,1.8l-2,4.7L17.2,72l-0.1,2.1l0.1,1.6l0.6,2.2l0.6,1.4l0.6,1.2L18.5,79.7z"/>
<polygon class="st6" points="21.7,81.2 23.1,80.8 23.8,80 24.4,78.9 24.2,78 23.8,77.2 23.4,76.6 24.4,77.1 24.9,77.8 25.2,78.7 
	25.1,79.7 24.6,80.5 24,81.1 23.2,81.4 22.3,81.5 "/>
<path class="st6" d="M21.1,76l-2.6,0.8l-1.4,0.8l-2.9,2.1l-2,2.2l-1,1.5l-0.7,1.5l-0.5,2c0,0-0.6,5.4,2.5,7.9h-0.5l-0.7-0.7
	l-1.1-1.3c0,0-2.3-3.6-0.3-8.9l1.8-2.6l2.1-2.2l2.7-1.9l2.2-1.1l1.9-0.4L21.1,76z"/>
<polygon class="st9" points="18,96.4 20.3,95.8 23.5,94.8 25.5,93.6 28.6,91.6 31.2,89.6 33.9,87 36.1,84.6 38.7,81.1 40.8,77.8 
	43,73.6 44.3,70.4 45.2,67.7 46.6,60.9 47.7,61.5 47.3,62.7 46.1,67.8 45.1,70.8 44.1,73.2 42,77.4 40.8,79.5 38.6,82.7 36.1,85.8 
	33.7,88.4 30.6,91 27.6,93.1 24.7,94.7 22.4,95.7 20.1,96.4 18.8,96.6 "/>
<g>
	<g>
		<path class="st13" d="M83,64.1c0.1,0,0.1,0,0.2,0c0-0.1,0-0.2,0-0.3c-0.2,0.1-0.5,0.1-0.8,0.2c-0.4,0.2-0.8,0.5-1.2,0.8
			c-0.7,0.6-1.4,1.3-1.8,2.1c-0.9,2.2,2,3.2,3.7,3c1.3-0.2,2.5-0.8,3.8-0.9c1.2-0.1,2.2,0.3,3.3,0.6c0.8,0.2,1.7,0.4,2.5-0.2
			c0.7-0.5,1.1-1.5,0.9-2.4c-0.3-2.1-2.9-3.2-4.7-3.8c-0.2-0.1-0.3,0.3-0.1,0.4c1.5,0.5,3.4,1.3,4.1,2.8c0.5,0.9,0.3,2-0.5,2.7
			c-0.7,0.6-1.8,0.3-2.6,0.1c-0.8-0.2-1.5-0.5-2.4-0.5c-1.1,0-2.1,0.3-3.1,0.6c-1.2,0.3-2.4,0.6-3.6,0.1c-0.9-0.4-1.6-1.1-1.3-2.1
			c0.3-0.9,1.2-1.7,1.9-2.3c0.3-0.2,0.6-0.5,0.9-0.6c0.2-0.1,0.5-0.1,0.7-0.2c0.1-0.1,0.1-0.3,0-0.3c-0.1,0-0.3,0-0.4,0
			C82.7,63.8,82.8,64.1,83,64.1L83,64.1z"/>
	</g>
</g>
<path class="st14" d="M84.2,56.2c0-4.7-3.8-8.5-8.5-8.5c-4.7,0-8.5,3.8-8.5,8.5c0,4.7,3.8,8.5,8.5,8.5
	C80.4,64.6,84.2,60.8,84.2,56.2z"/>
<path class="st13" d="M90.2,63.1c0-1.2-1.7-2.1-3.8-2.1c-2.1,0-3.8,0.9-3.8,2.1c0,1.2,1.7,2.1,3.8,2.1
	C88.5,65.2,90.2,64.2,90.2,63.1z"/>
<path class="st13" d="M72.9,55.5c0,1.5,1.2,2.8,2.8,2.8c1.5,0,2.8-1.2,2.8-2.8c0-1.5-1.2-2.8-2.8-2.8C74.1,52.8,72.9,54,72.9,55.5z
	 M77.4,54.4c0,0.4-0.4,0.8-0.8,0.8c-0.4,0-0.8-0.4-0.8-0.8c0-0.4,0.4-0.8,0.8-0.8C77,53.7,77.4,54,77.4,54.4z"/>
<g>
	<g>
		<path class="st13" d="M86.6,68.9c0.2,0.7,0.2,1.4,0.2,2c0,0.8-0.1,1.7-0.4,2.5c-0.2,0.6-0.6,1.3-1.3,1.3c-1,0.1-1.7-0.7-1.9-1.6
			c-0.3-1.1-0.1-2.3,0.2-3.4c0.1-0.2-0.3-0.3-0.4-0.1c-0.5,1.8-0.8,5,1.7,5.4c1.9,0.3,2.3-2.3,2.4-3.6c0.1-0.9,0-1.8-0.2-2.7
			C86.9,68.6,86.5,68.7,86.6,68.9L86.6,68.9z"/>
	</g>
</g>
<g>
	<g>
		<path class="st13" d="M81.1,106.6c0.1,2,0,4.1,0.4,6.1c0.3,1.4,1,2.8,2.4,3.4c3,1.3,6-1.1,7.2-3.8c0.9-2,1-4.3,1.2-6.5
			c0-0.2-0.4-0.2-0.4,0c-0.3,3.2-0.6,6.8-3.2,9.1c-1.2,1-2.7,1.5-4.2,1c-1.5-0.4-2.3-1.8-2.6-3.2c-0.4-2-0.3-4.1-0.4-6.1
			C81.4,106.3,81,106.3,81.1,106.6L81.1,106.6z"/>
	</g>
</g>
<g>
	<g>
		<path class="st13" d="M82.1,112.2c0.2-1.2,1.5-2.2,2.7-1.8c1.2,0.3,1.8,1.7,1.4,2.8c-0.1,0.2,0.3,0.3,0.4,0.1c0.4-1,0-2.2-0.9-2.9
			c-0.9-0.7-2.1-0.6-3,0.1c-0.5,0.4-0.9,1-0.9,1.6C81.7,112.4,82,112.5,82.1,112.2L82.1,112.2z"/>
	</g>
</g>
<g>
	<g>
		<path class="st13" d="M79.2,112.7c0.3,2.2,0.7,4.6,2.1,6.4c1.2,1.5,3,2.5,5,2.2c4.8-0.7,6.1-6,6.9-10c0-0.2-0.3-0.3-0.4-0.1
			c-0.7,3.7-1.8,8.6-6.1,9.7c-2,0.5-4-0.5-5.2-2.1c-1.3-1.7-1.7-4-2-6.1C79.5,112.4,79.1,112.4,79.2,112.7L79.2,112.7z"/>
	</g>
</g>
<g>
	<g>
		<path class="st13" d="M69.1,61.7c2,1.2,4.3,1.6,6.6,1.6c2.3,0,4.6-0.4,6.6-1.5c0.2-0.1,0-0.4-0.2-0.3c-1.9,1.1-4.2,1.5-6.4,1.4
			c-2.2,0-4.5-0.4-6.4-1.5C69.1,61.2,68.9,61.5,69.1,61.7L69.1,61.7z"/>
	</g>
</g>
<g>
	<g>
		<path class="st13" d="M81.8,111.9c0.1-1,0.3-2,0.3-3c-0.1,0-0.3,0-0.4,0c-0.1,0.8-0.1,1.6-0.2,2.5c0.1,0,0.3,0,0.4,0
			c0-0.6,0.1-1.2,0.2-1.7c-0.1,0-0.2,0-0.4-0.1c0,0.5-0.1,1-0.1,1.6c0,0.2,0.3,0.2,0.4,0.1c0.1-0.4,0.2-0.7,0.3-1.1
			c-0.1,0-0.2-0.1-0.4-0.1c-0.1,0.3-0.2,0.7-0.3,1c0.1,0,0.2,0.1,0.3,0.1c0.1-0.3,0.3-0.5,0.6-0.7c-0.1-0.1-0.2-0.1-0.3-0.2
			c-0.1,0.4-0.4,0.8-0.6,1.1c0.1,0.1,0.2,0.2,0.3,0.3c0.3-0.4,0.6-0.8,0.9-1.2c0.2-0.2-0.1-0.4-0.3-0.3c-0.2,0.1-0.3,0.3-0.4,0.5
			c-0.1,0.2,0.1,0.4,0.3,0.2c0.2-0.2,0.4-0.3,0.5-0.5c-0.1-0.1-0.2-0.2-0.3-0.3c-0.1,0.1-0.2,0.1-0.3,0.1c0,0.1,0.1,0.2,0.1,0.3
			c0.2-0.2,0.4-0.3,0.6-0.3c-0.1-0.1-0.2-0.2-0.2-0.2c0,0.1-0.1,0.1-0.1,0c-0.1-0.1,0.1-0.2,0.1-0.2c-0.1-0.1-0.1-0.2-0.2-0.2
			c0,0.1-0.1,0.2-0.2,0.2c0.1,0,0.2,0.1,0.3,0.1c-0.1-0.2-0.1-0.4,0-0.6c-0.1,0-0.2-0.1-0.4-0.1c0,0.2-0.1,0.4-0.2,0.5
			c0.1,0,0.2,0.1,0.4,0.1c0-0.4,0-0.7,0-1.1c-0.1,0-0.3,0-0.4,0c0,0.3,0,0.6,0,0.9c0.1,0,0.3,0,0.4,0c0-0.6-0.1-1.2-0.1-1.8
			c0-0.2-0.4-0.2-0.4,0c-0.1,0.5-0.1,1.1-0.2,1.6c0.1,0,0.3,0,0.4,0c0-0.7-0.1-1.4-0.1-2.1c0-0.2-0.4-0.2-0.4,0c0,0.7,0,1.4,0.1,2.1
			c0.1,0,0.3,0,0.4,0c-0.1-0.9-0.2-1.7-0.4-2.5c0-0.2-0.4-0.2-0.4,0.1c0,0.9,0.1,1.7,0.2,2.6c0,0.2,0.4,0.2,0.4-0.1
			c-0.1-0.8-0.2-1.6-0.3-2.4c0-0.2-0.4-0.2-0.4,0c0,0.9,0.1,1.8,0.3,2.7c0,0.2,0.4,0.2,0.4-0.1c0-0.8-0.1-1.6-0.2-2.4
			c0-0.2-0.4-0.2-0.4,0c0,0.5,0,1,0,1.4c0,0.2,0.4,0.2,0.4,0c0-0.5-0.1-1-0.1-1.5c0-0.2-0.4-0.2-0.4,0c0,0.4,0,0.8,0,1.2
			c0.1,0,0.2,0,0.4-0.1c-0.1-0.3-0.1-0.6-0.1-0.9c-0.1,0-0.3,0-0.4,0c0,0.4,0.1,0.9,0.2,1.3c0.1,0.2,0.4,0.1,0.4-0.1
			c-0.1-0.4-0.2-0.8-0.2-1.2c0-0.2-0.4-0.2-0.4,0c0,0.3,0,0.7,0.1,1c0.1,0.2,0.4,0.2,0.4-0.1c0-0.4,0-0.8,0-1.2c-0.1,0-0.3,0-0.4,0
			c0,0.5,0.1,1,0.1,1.5c0.1,0,0.3,0,0.4,0c0-0.5-0.1-1,0-1.4c-0.1,0-0.3,0-0.4,0c0.1,0.8,0.2,1.6,0.2,2.4c0.1,0,0.2,0,0.4-0.1
			c-0.1-0.8-0.2-1.7-0.2-2.6c-0.1,0-0.3,0-0.4,0c0.1,0.8,0.2,1.6,0.3,2.4c0.1,0,0.2,0,0.4-0.1c-0.1-0.8-0.2-1.6-0.2-2.5
			c-0.1,0-0.2,0-0.4,0.1c0.2,0.8,0.3,1.6,0.4,2.4c0,0.2,0.4,0.2,0.4,0c0-0.7,0-1.4-0.1-2.1c-0.1,0-0.3,0-0.4,0
			c0,0.7,0.1,1.4,0.1,2.1c0,0.2,0.4,0.2,0.4,0c0.1-0.5,0.1-1.1,0.2-1.6c-0.1,0-0.3,0-0.4,0c0,0.6,0.1,1.2,0.1,1.8
			c0,0.2,0.4,0.2,0.4,0c0-0.3,0-0.6,0-0.9c0-0.2-0.4-0.2-0.4,0c0,0.4,0,0.7,0,1.1c0,0.2,0.2,0.3,0.4,0.1c0.2-0.2,0.2-0.5,0.2-0.7
			c0-0.2-0.3-0.3-0.4-0.1c-0.1,0.3-0.2,0.6,0,0.9c0,0.1,0.2,0.2,0.3,0.1c0.2-0.1,0.3-0.3,0.4-0.5c0-0.1-0.1-0.3-0.2-0.2
			c-0.4,0-0.7,0.5-0.4,0.8c0.2,0.3,0.7,0.2,0.8-0.2c0-0.2-0.1-0.3-0.2-0.2c-0.3,0-0.6,0.2-0.8,0.4c-0.1,0.1,0,0.3,0.1,0.3
			c0.2,0,0.4-0.1,0.6-0.3c0.2-0.2-0.1-0.4-0.3-0.3c-0.2,0.2-0.4,0.3-0.5,0.5c0.1,0.1,0.2,0.2,0.3,0.2c0.1-0.2,0.2-0.3,0.3-0.4
			c-0.1-0.1-0.2-0.2-0.3-0.3c-0.3,0.4-0.6,0.8-0.9,1.2c-0.2,0.2,0.1,0.5,0.3,0.3c0.3-0.4,0.6-0.8,0.7-1.3c0.1-0.2-0.2-0.3-0.3-0.2
			c-0.3,0.2-0.5,0.5-0.6,0.9c-0.1,0.2,0.2,0.3,0.3,0.1c0.2-0.3,0.3-0.7,0.4-1.1c0-0.2-0.3-0.3-0.4-0.1c-0.1,0.4-0.2,0.7-0.3,1.1
			c0.1,0,0.2,0,0.4,0.1c0-0.5,0.1-1,0.1-1.6c0-0.2-0.3-0.2-0.4-0.1c-0.2,0.6-0.3,1.2-0.3,1.8c0,0.2,0.4,0.2,0.4,0
			c0.1-0.8,0.1-1.6,0.2-2.5c0-0.2-0.4-0.2-0.4,0c-0.1,1-0.2,1.9-0.3,2.9C81.4,112.1,81.7,112.2,81.8,111.9L81.8,111.9z"/>
	</g>
</g>
<g>
	<g>
		<path class="st13" d="M81.4,109.2c0,0.1,0.1,0.1,0.1,0.2c0,0,0.1,0.1,0.1,0.1c0,0,0.1,0,0.1,0c0.1,0,0.1-0.1,0.1-0.2
			c0-0.1-0.1-0.3-0.1-0.4c-0.1,0-0.2,0.1-0.4,0.1C81.5,109.1,81.5,109.1,81.4,109.2C81.5,109.2,81.5,109.3,81.4,109.2
			C81.5,109.3,81.5,109.3,81.4,109.2C81.5,109.3,81.5,109.3,81.4,109.2c0.1,0.1,0.1,0.1,0.1,0.1c0,0.1,0,0.3,0,0.4
			c0.1,0,0.3,0,0.4,0c0-0.3,0-0.5,0-0.8c0-0.1-0.1-0.2-0.2-0.2c-0.1,0-0.2,0-0.2,0.1C81.5,109,81.5,109.1,81.4,109.2
			c0.1,0.1,0.1,0.2,0.1,0.3c0,0,0.1,0.1,0.1,0.1c0,0,0.1,0,0.1,0c0,0,0.1-0.1,0.1-0.1c0-0.1,0-0.1,0-0.1c0,0,0,0,0,0c0,0,0,0,0-0.1
			c0,0,0,0,0-0.1c0,0,0,0,0,0c0,0,0,0,0,0c0,0,0-0.1,0-0.1c0,0,0,0,0-0.1c0,0,0,0,0,0c0,0,0,0,0,0c-0.1,0-0.2,0-0.4-0.1
			c0,0.3,0,0.5,0,0.8c0,0.1,0.1,0.2,0.2,0.2c0,0,0.1,0,0.1-0.1c0,0,0-0.1,0.1-0.1c0-0.3,0-0.6-0.1-0.8c0-0.1-0.1-0.2-0.2-0.1
			c-0.1,0-0.2,0.1-0.1,0.2c0,0.1,0.1,0.3,0.1,0.4c0.1,0,0.2-0.1,0.3-0.1c0-0.1-0.1-0.1-0.1-0.2c0,0-0.1-0.1-0.1-0.1c0,0-0.1,0-0.1,0
			c0,0-0.1,0.1-0.1,0.1C81.4,109.1,81.4,109.2,81.4,109.2L81.4,109.2z"/>
	</g>
</g>
<g>
	<g>
		<path class="st13" d="M86.1,110.3C86.1,110.3,86.1,110.3,86.1,110.3C86.1,110.3,86.2,110.4,86.1,110.3
			C86.2,110.4,86.2,110.4,86.1,110.3c0.1,0.1,0,0.2,0,0.2c-0.1-0.1-0.2-0.1-0.3,0c0.1,0,0.2,0,0.3,0c0,0,0-0.1,0-0.1
			c-0.1,0-0.2,0.1-0.3,0.1c0.1,0.1,0.1,0.2,0.1,0.3c0.1,0,0.2,0,0.4-0.1c0-0.1,0-0.3,0-0.4c-0.1,0-0.2,0-0.4-0.1c0,0.1,0,0.2,0,0.3
			c0,0.2,0.2,0.3,0.3,0.1c0.1-0.1,0.2-0.3,0.1-0.5c-0.1-0.1-0.4-0.1-0.4,0.1c-0.1,0.2,0.1,0.3,0.2,0.3c0.1,0,0.1-0.1,0.2-0.1
			c0.1-0.1,0.2-0.1,0.3-0.2c-0.1-0.1-0.1-0.2-0.2-0.3c0,0.1-0.1,0.1-0.2,0.2c0.1,0.1,0.2,0.1,0.3,0.2c0-0.1,0-0.2,0.1-0.2
			c0-0.1-0.1-0.2-0.2-0.2c-0.3,0-0.6,0-0.8-0.2c-0.2-0.1-0.4,0.1-0.2,0.3c0.1,0.1,0.2,0.2,0.3,0.3c0.1-0.1,0.2-0.2,0.2-0.3
			c-0.2-0.1-0.3-0.2-0.5-0.4c-0.1,0.1-0.1,0.2-0.2,0.3c0.1,0.1,0.3,0.2,0.4,0.3c0.1-0.1,0.1-0.2,0.2-0.3c-0.2-0.1-0.3-0.1-0.5-0.3
			c-0.1,0.1-0.2,0.2-0.2,0.3c0.2,0.1,0.3,0.2,0.5,0.3c0.1-0.1,0.1-0.2,0.2-0.3c-0.3-0.2-0.6-0.4-0.9-0.6c-0.1,0.1-0.1,0.2-0.2,0.3
			c0.2,0.1,0.4,0.2,0.6,0.3c0.1-0.1,0.1-0.2,0.2-0.3c-0.4-0.2-0.9-0.4-1.3-0.6c-0.2-0.1-0.4,0.1-0.2,0.3c0.3,0.3,0.7,0.5,1.1,0.4
			c0.2,0,0.2-0.4,0-0.4c-0.3,0-0.7-0.1-1-0.1c-0.2,0-0.3,0.3-0.1,0.4c0.3,0.1,0.7,0.1,1,0.2c0-0.1,0-0.2,0-0.4
			c-0.3,0.1-0.5,0-0.7-0.1c0,0.1-0.1,0.2-0.1,0.3c0.3,0.1,0.6,0.1,0.9,0.2c0-0.1,0.1-0.2,0.1-0.4c-0.3-0.1-0.7-0.1-1-0.2
			c-0.2,0-0.3,0.2-0.1,0.3c0.3,0.2,0.6,0.3,0.9,0.3c0-0.1,0-0.2,0.1-0.4c-0.2,0-0.5,0-0.7,0c0,0.1-0.1,0.2-0.1,0.4
			c0.3,0,0.7,0.1,1,0.1c0.2,0,0.3-0.2,0.1-0.3c-0.2-0.1-0.5-0.3-0.7-0.4c0,0.1,0,0.2-0.1,0.4c0.6-0.1,1.1-0.1,1.7-0.2
			c0-0.1-0.1-0.2-0.1-0.3c-0.2,0.2-0.4,0.3-0.6,0.5c-0.1,0.1,0,0.3,0.1,0.3c0.5,0,0.9-0.1,1.3-0.4c0.1-0.1,0-0.4-0.2-0.3
			c-0.3,0.1-0.5,0.2-0.8,0.3c-0.2,0.1-0.1,0.4,0.1,0.4c0.4-0.1,0.8-0.3,1.1-0.4c0-0.1-0.1-0.2-0.1-0.4c-0.3,0.1-0.5,0.2-0.8,0.3
			c-0.2,0.1-0.1,0.4,0.1,0.4c0.3,0,0.7-0.1,1-0.2c0-0.1-0.1-0.2-0.1-0.3c-0.3,0.1-0.5,0.2-0.8,0.3c-0.2,0.1-0.1,0.4,0.1,0.3
			c0.3-0.1,0.7-0.2,0.9-0.4c-0.1-0.1-0.2-0.2-0.2-0.3c-0.2,0.1-0.3,0.2-0.5,0.4c-0.2,0.1,0,0.4,0.2,0.3c0.2-0.1,0.4-0.2,0.7-0.3
			c0.2-0.1,0.2-0.4-0.1-0.4c-0.3,0-0.6,0.1-0.8,0.3c-0.2,0.1-0.1,0.4,0.1,0.3c0.4-0.1,0.8-0.2,1.2-0.4c0.2-0.1,0-0.4-0.1-0.3
			c-0.5,0.1-0.9,0.1-1.4,0.1c0,0.1,0,0.2,0.1,0.4c0.4-0.1,0.7-0.1,1.1-0.3c0.2-0.1,0.2-0.4-0.1-0.4c-0.6-0.1-1.2-0.1-1.8-0.2
			c-0.2,0-0.3,0.3-0.1,0.4c0.3,0.1,0.9,0.1,1.2-0.1c0.2-0.2,0.2-0.5-0.1-0.6c-0.2,0-0.2,0.4,0,0.4c0,0,0,0,0,0c0,0-0.1-0.1-0.1-0.1
			c0,0,0,0-0.1,0c-0.1,0-0.2,0-0.3,0c-0.2,0-0.3,0-0.5,0c0,0.1,0,0.2-0.1,0.4c0.6,0.1,1.2,0.1,1.8,0.2c0-0.1,0-0.2-0.1-0.4
			c-0.3,0.1-0.7,0.2-1.1,0.3c-0.2,0-0.2,0.4,0.1,0.4c0.5,0,1,0,1.5-0.1c0-0.1-0.1-0.2-0.1-0.3c-0.4,0.2-0.8,0.3-1.2,0.4
			c0,0.1,0.1,0.2,0.1,0.3c0.2-0.1,0.4-0.2,0.6-0.2c0-0.1,0-0.2-0.1-0.4c-0.3,0.1-0.5,0.2-0.8,0.3c0.1,0.1,0.2,0.2,0.2,0.3
			c0.2-0.1,0.3-0.2,0.5-0.4c0.2-0.1-0.1-0.4-0.2-0.3c-0.3,0.2-0.5,0.3-0.9,0.4c0,0.1,0.1,0.2,0.1,0.3c0.3-0.1,0.5-0.2,0.8-0.3
			c0.2-0.1,0.1-0.4-0.1-0.3c-0.3,0.1-0.7,0.2-1,0.2c0,0.1,0.1,0.2,0.1,0.4c0.3-0.1,0.5-0.2,0.8-0.3c0.2-0.1,0.1-0.4-0.1-0.4
			c-0.4,0.1-0.8,0.3-1.1,0.4c0,0.1,0.1,0.2,0.1,0.4c0.3-0.1,0.5-0.2,0.8-0.3c-0.1-0.1-0.1-0.2-0.2-0.3c-0.3,0.2-0.6,0.3-1,0.3
			c0,0.1,0.1,0.2,0.1,0.3c0.2-0.2,0.4-0.3,0.6-0.5c0.1-0.1,0-0.3-0.1-0.3c-0.6,0.1-1.1,0.1-1.7,0.2c-0.2,0-0.3,0.3-0.1,0.4
			c0.2,0.1,0.4,0.2,0.7,0.3c0-0.1,0.1-0.2,0.1-0.3c-0.3,0-0.7-0.1-1-0.1c-0.2,0-0.3,0.3-0.1,0.4c0.3,0.1,0.5,0.1,0.8,0.1
			c0.2,0,0.3-0.3,0.1-0.4c-0.3,0-0.6-0.1-0.8-0.3c0,0.1-0.1,0.2-0.1,0.3c0.3,0.1,0.7,0.1,1,0.2c0.2,0,0.3-0.3,0.1-0.4
			c-0.3-0.1-0.6-0.1-0.9-0.2c-0.2,0-0.3,0.2-0.1,0.3c0.3,0.2,0.7,0.2,1,0.1c0.2,0,0.2-0.3,0-0.4c-0.3-0.1-0.7-0.1-1-0.2
			c0,0.1,0,0.2-0.1,0.4c0.3,0,0.7,0.1,1,0.1c0-0.1,0-0.3,0-0.4c-0.3,0-0.6-0.1-0.9-0.3c-0.1,0.1-0.2,0.2-0.2,0.3
			c0.4,0.2,0.9,0.4,1.3,0.6c0.2,0.1,0.4-0.2,0.2-0.3c-0.2-0.1-0.5-0.2-0.7-0.3c-0.2-0.1-0.3,0.2-0.2,0.3c0.3,0.3,0.6,0.5,0.9,0.7
			c0.2,0.1,0.4-0.2,0.2-0.3c-0.2-0.1-0.3-0.2-0.5-0.3c-0.2-0.1-0.4,0.2-0.2,0.3c0.2,0.2,0.4,0.3,0.6,0.4c0.1,0,0.3-0.1,0.2-0.3
			c-0.1-0.2-0.3-0.3-0.5-0.5c-0.2-0.1-0.4,0.2-0.2,0.3c0.2,0.1,0.3,0.2,0.5,0.4c0.2,0.1,0.4-0.1,0.2-0.3c-0.1-0.1-0.2-0.2-0.3-0.3
			c-0.1,0.1-0.2,0.2-0.2,0.3c0.3,0.2,0.7,0.2,1,0.2c-0.1-0.1-0.1-0.2-0.2-0.2c0,0.1,0,0.2-0.1,0.2c0,0.1,0.1,0.3,0.3,0.2
			c0.1-0.1,0.2-0.2,0.3-0.3c0.1-0.1-0.1-0.3-0.2-0.3C86.4,110,86.2,110.1,86.1,110.3C86.1,110.3,86.2,110.3,86.1,110.3
			C86.2,110.2,86.2,110.2,86.1,110.3c0.1,0,0.1,0,0.2,0c0,0.1,0,0.1,0,0.2c0,0-0.1,0-0.1,0.1c0,0-0.1-0.1-0.1-0.1
			c0.1,0,0.2,0.1,0.3,0.1c0-0.1,0-0.2,0-0.3C86.4,110.1,86.1,110.1,86.1,110.3c-0.2,0.2-0.2,0.4-0.1,0.6c0.1,0.2,0.4,0.2,0.4-0.1
			C86.4,110.6,86.3,110.4,86.1,110.3c-0.1-0.2-0.2-0.1-0.3,0c0,0.1,0,0.3,0.1,0.4c0.1,0.1,0.2,0.1,0.3,0c0.1-0.2,0.1-0.6-0.2-0.5
			c-0.2,0-0.3,0.3-0.1,0.5C86.1,110.8,86.3,110.4,86.1,110.3L86.1,110.3z"/>
	</g>
</g>
<g>
	<g>
		<path class="st13" d="M82.9,110.2c0.5-0.2,1.1-0.3,1.6-0.5c0-0.1-0.1-0.2-0.1-0.3c-0.3,0.2-0.7,0.3-1.1,0.3c0,0.1,0,0.2,0.1,0.4
			c0.4-0.1,0.8-0.1,1.2-0.2c0.1,0,0.2-0.1,0.2-0.2c0-0.1-0.1-0.2-0.2-0.2c-0.3,0-0.6,0.1-0.9,0.2c-0.2,0.1-0.1,0.4,0.1,0.3
			c0.5-0.1,1-0.3,1.4-0.6c0.2-0.1,0-0.5-0.2-0.3c-0.4,0.3-0.8,0.4-1.3,0.5c0,0.1,0.1,0.2,0.1,0.3c0.2-0.1,0.4-0.2,0.7-0.2
			c0-0.1,0-0.3,0-0.4c-0.4,0.1-0.8,0.1-1.3,0.2c-0.1,0-0.1,0.1-0.1,0.2c0,0.1,0.1,0.2,0.2,0.2c0.4,0,0.9-0.1,1.3-0.3
			c0.1-0.1,0.1-0.1,0.1-0.2c0-0.1-0.1-0.1-0.2-0.1c-0.5,0.2-1.1,0.3-1.6,0.5C82.5,109.9,82.6,110.3,82.9,110.2L82.9,110.2z"/>
	</g>
</g>
<g>
	<g>
		<path class="st13" d="M86.3,110c-0.2,0-0.4,0-0.6,0c-0.2,0-0.2,0.2-0.1,0.3c0.1,0.1,0.2,0.2,0.2,0.3c0.1-0.1,0.2-0.2,0.3-0.3
			c-0.1-0.1-0.2-0.1-0.2-0.2c-0.1-0.1-0.2-0.1-0.3,0c-0.1,0.1-0.1,0.2,0,0.3c0.1,0.1,0.1,0.1,0.2,0.2c0,0,0-0.1,0-0.1c0,0,0,0,0,0
			c0,0,0-0.1,0-0.1c0,0,0,0,0,0c0,0,0,0,0.1-0.1c0.1,0,0.2,0,0.2,0c0,0,0,0.1,0,0.1c0,0.1,0,0.1-0.1,0.1c0,0,0,0,0,0c0,0,0,0,0,0
			c0,0,0,0,0,0c0,0,0.1,0,0.1,0c0.1,0,0.2-0.1,0.2-0.1c0.1-0.1,0.2-0.2,0.2-0.4c-0.1,0-0.2,0.1-0.3,0.1c0,0,0,0,0,0c0,0,0,0,0,0
			c0,0,0,0,0,0c0,0,0,0,0,0c0,0,0,0,0,0.1c0,0.1,0.1,0.2,0.1,0.2c0.1,0,0.2,0,0.2-0.1c0.1-0.1,0.2-0.2,0.2-0.3
			c-0.1,0-0.2-0.1-0.4-0.1c0,0,0,0,0,0c0,0,0,0,0,0c0,0,0,0,0,0.1c0,0,0,0,0,0c0,0,0,0,0,0c0.1,0,0.2,0.1,0.3,0.1c0,0,0,0,0,0
			c0,0,0,0,0,0c0,0,0,0,0,0c0,0,0,0,0,0c-0.1,0-0.2,0-0.3,0c0.1,0.3,0.6,0.2,0.6-0.1c0-0.1,0-0.2-0.1-0.2c-0.1,0-0.2,0-0.2,0.1
			c0,0,0,0,0,0c0,0,0,0,0,0c0,0,0,0,0,0c0,0,0,0,0,0c0,0,0,0,0,0c0,0,0,0,0,0c0,0,0,0,0,0c0,0,0,0,0,0c0,0,0,0,0,0c0,0,0,0,0,0
			c-0.1-0.1-0.2-0.1-0.3,0c-0.1,0.1-0.2,0.2-0.1,0.4c0,0.1,0,0.1,0.1,0.2c0.1,0,0.2,0,0.2,0c0.1-0.1,0.1-0.2,0.1-0.4
			c0-0.1-0.1-0.2-0.1-0.2c-0.1,0-0.2,0-0.2,0.1C86.6,109.9,86.5,110,86.3,110c0.2,0.1,0.3,0.1,0.4,0.2c0-0.2-0.1-0.3-0.2-0.4
			c-0.1-0.1-0.3,0-0.3,0.1C86.3,109.9,86.3,110,86.3,110C86.2,110,86.3,110,86.3,110C86.2,110,86.2,110,86.3,110
			c-0.1,0-0.1,0-0.1,0.1c0,0,0,0,0,0c0,0,0,0,0,0c0,0,0,0,0,0c0,0,0,0,0,0c0,0,0,0-0.1,0c0,0,0,0,0,0c0,0,0,0-0.1,0
			c-0.1,0-0.2,0.1-0.2,0.1c-0.1,0.2,0.1,0.4,0.3,0.3c0.1-0.1,0.1-0.2,0-0.3c-0.1-0.1-0.1-0.1-0.2-0.2c-0.1,0.1-0.2,0.2-0.3,0.3
			c0.1,0.1,0.2,0.1,0.2,0.2c0.1,0.1,0.2,0.1,0.3,0c0.1-0.1,0.1-0.2,0-0.3c-0.1-0.1-0.2-0.2-0.2-0.3c0,0.1-0.1,0.2-0.1,0.3
			c0.2,0,0.4,0,0.6,0c0.1,0,0.2-0.1,0.2-0.2C86.5,110.1,86.4,110,86.3,110L86.3,110z"/>
	</g>
</g>
<g>
	<g>
		<path class="st13" d="M82.9,106.2c0,0.5,0,1,0,1.4c0,0.2,0.1,0.3,0.3,0.4c0.2,0,0.4-0.1,0.4-0.3c0.1-0.5,0.2-1,0.2-1.4
			c0-0.1,0-0.2,0-0.3c0-0.1-0.1-0.2-0.2-0.2c-0.2,0-0.4,0.1-0.5,0.3c-0.1,0.5-0.2,1-0.2,1.4c0.2,0,0.5,0.1,0.7,0.1c0-0.5,0-1,0-1.4
			c0-0.2-0.2-0.4-0.4-0.4C83,105.9,82.9,106,82.9,106.2L82.9,106.2z"/>
	</g>
</g>
<g>
	<g>
		<path class="st13" d="M82.1,106.4c0,0.7,0,1.3,0,2c0,0.2,0.1,0.3,0.3,0.4c0.2,0,0.4-0.1,0.4-0.3c0.2-0.7,0.3-1.4,0.4-2.1
			c0-0.2-0.1-0.4-0.3-0.5c-0.2,0-0.4,0.1-0.5,0.3c-0.1,0.7-0.2,1.4-0.4,2.1c0.2,0,0.5,0.1,0.7,0.1c0-0.7,0-1.3,0-2
			c0-0.2-0.2-0.4-0.4-0.4C82.3,106.1,82.1,106.2,82.1,106.4L82.1,106.4z"/>
	</g>
</g>
<g>
	<g>
		<path class="st13" d="M81.7,106.5c0,0.2,0,0.5,0,0.7c0.2-0.1,0.5-0.1,0.7-0.2c0,0-0.1-0.1-0.1-0.1c0,0,0,0.1,0,0.1
			c0-0.1,0-0.1,0-0.2c0,0,0,0.1,0,0.1c0-0.1,0-0.1,0-0.2c0,0,0,0.1,0,0.1c0,0,0,0,0,0c0-0.1,0-0.1,0-0.2c0-0.1,0-0.1,0-0.1
			c0-0.1-0.1-0.1-0.2-0.2c-0.1,0-0.2,0-0.2,0C81.8,106.4,81.7,106.4,81.7,106.5c-0.1,0.2-0.2,0.4-0.2,0.5c0.2,0.1,0.5,0.1,0.7,0.2
			c0,0,0,0,0,0c0,0,0,0.1,0,0.1c0-0.2,0-0.3,0.1-0.5c0-0.1,0-0.1,0-0.2c0-0.1,0-0.1,0-0.1c0-0.1-0.1-0.2-0.2-0.2c-0.1,0-0.2,0-0.3,0
			c-0.1,0.1-0.2,0.1-0.2,0.2c0,0.2-0.1,0.4-0.1,0.6c0,0,0,0.1,0,0.1c0,0,0,0.1,0.1,0.1c0,0.1,0.1,0.1,0.2,0.1c0.1,0,0.1,0,0.2,0
			c0,0,0.1,0,0.1-0.1c0,0,0.1-0.1,0.1-0.1c0.1-0.2,0.1-0.3,0.2-0.5c-0.2-0.1-0.5-0.2-0.7-0.3c0,0.1,0,0.1,0,0.2c0,0.1,0,0.1,0,0.2
			c0,0.1,0.1,0.2,0.1,0.3c0,0.1,0.1,0.1,0.2,0.2c0.1,0,0.2,0,0.2,0c0.1,0,0.1-0.1,0.2-0.1c0.1-0.1,0.1-0.2,0.1-0.3
			c0-0.2,0-0.5,0-0.7c0-0.1,0-0.2-0.1-0.3c-0.1-0.1-0.2-0.1-0.3-0.1c-0.1,0-0.2,0-0.3,0.1C81.7,106.3,81.7,106.4,81.7,106.5
			L81.7,106.5z"/>
	</g>
</g>
<g>
	<g>
		<path class="st13" d="M81.6,106.6c0,0.3-0.1,0.7-0.1,1c0,0.2,0.2,0.3,0.3,0.4c0.2,0,0.4-0.1,0.4-0.3c0.1-0.4,0.1-0.8,0.2-1.1
			c0-0.1,0-0.2,0-0.3c0-0.1-0.1-0.2-0.2-0.2c-0.1,0-0.2,0-0.3,0c-0.1,0-0.2,0.1-0.2,0.2c-0.1,0.4-0.1,0.8-0.2,1.1
			c0.2,0,0.5,0.1,0.7,0.1c0-0.3,0-0.7,0.1-1c0-0.1,0-0.2-0.1-0.3c-0.1-0.1-0.2-0.1-0.3-0.1c-0.1,0-0.2,0-0.3,0.1
			C81.6,106.4,81.6,106.4,81.6,106.6L81.6,106.6z"/>
	</g>
</g>
<g>
	<g>
		<path class="st13" d="M81.6,106.5c0,0.4,0,0.8,0.1,1.2c0,0.2,0.2,0.4,0.4,0.4c0.2,0,0.4-0.2,0.4-0.4c0-0.4,0-0.9,0-1.3
			c0-0.2-0.2-0.4-0.4-0.4c-0.2,0-0.4,0.2-0.4,0.4c0,0.4,0,0.9,0,1.3c0.3,0,0.5,0,0.8,0c0-0.4,0-0.8-0.1-1.2c0-0.2-0.2-0.4-0.4-0.4
			C81.8,106.2,81.6,106.3,81.6,106.5L81.6,106.5z"/>
	</g>
</g>
<g>
	<g>
		<path class="st13" d="M83.3,106.2c-0.1,0.3-0.2,0.7-0.2,1.1c0.2,0,0.5,0.1,0.7,0.1c0-0.2,0-0.4,0-0.6c0-0.1,0-0.2,0-0.3
			c-0.1-0.2-0.2-0.3-0.3-0.3c-0.1,0-0.2,0-0.4,0c-0.2,0.1-0.4,0.2-0.5,0.4c-0.1,0.2,0,0.4,0.1,0.5c0.2,0.1,0.4,0,0.5-0.1
			c0,0,0,0,0,0c0,0,0,0.1-0.1,0.1c0,0,0.1-0.1,0.1-0.1c0,0-0.1,0-0.1,0.1c0,0,0.1-0.1,0.1-0.1c0,0-0.1,0-0.1,0c0,0,0.1,0,0.1,0
			c0,0-0.1,0-0.1,0c0,0,0,0,0.1,0c0,0-0.1,0-0.1,0c0,0,0,0,0,0c0,0-0.1,0-0.1,0c0,0,0,0,0,0c0,0-0.1,0-0.1-0.1c0,0,0,0,0,0
			c0,0,0-0.1-0.1-0.1c0,0,0,0,0,0c0,0,0-0.1,0-0.1c0,0,0,0,0,0.1c0,0,0-0.1,0-0.1c0,0.3,0,0.5,0,0.8c0,0.2,0.1,0.3,0.3,0.4
			c0.1,0,0.2,0,0.2,0c0.1,0,0.2-0.1,0.2-0.2c0.1-0.4,0.1-0.7,0.2-1.1c0.1-0.2-0.1-0.4-0.3-0.5C83.6,105.9,83.4,106,83.3,106.2
			L83.3,106.2z"/>
	</g>
</g>
<g>
	<g>
		<path class="st13" d="M83.9,106.2c-0.1,0.5-0.2,1-0.2,1.5c0,0.2,0.2,0.4,0.4,0.4c0.2,0,0.4-0.2,0.4-0.4c0-0.5,0.1-1,0-1.5
			c0-0.2-0.2-0.4-0.4-0.4c-0.2,0-0.4,0.2-0.4,0.4c0,0.5,0,1,0,1.5c0.3,0,0.5,0,0.8,0c0-0.1,0-0.2,0-0.4c0-0.1,0-0.1,0-0.2
			c0-0.1,0,0.1,0,0c0,0,0-0.1,0-0.1c0-0.2,0.1-0.5,0.2-0.7c0.1-0.2-0.1-0.4-0.3-0.5C84.2,105.9,84,106,83.9,106.2L83.9,106.2z"/>
	</g>
</g>
<g>
	<g>
		<path class="st13" d="M84.4,106c-0.1,0.4-0.1,0.7-0.1,1.1c0,0.1,0,0.2,0.1,0.3c0.1,0.1,0.2,0.1,0.3,0.1c0.1,0,0.2,0,0.3-0.1
			c0.1-0.1,0.1-0.2,0.1-0.3c0-0.4,0-0.8,0-1.1c0-0.1-0.1-0.2-0.2-0.2c-0.1,0-0.2-0.1-0.3,0c-0.1,0-0.2,0.1-0.2,0.2
			C84.3,105.9,84.3,105.9,84.4,106c-0.1,0-0.1,0.1-0.1,0.2c0,0,0,0.1,0,0.1c0,0,0-0.1,0-0.1c0,0.3,0,0.6,0,0.9c0.3,0,0.5,0,0.8,0
			c0-0.3,0-0.5,0-0.8c0,0,0,0.1,0,0.1c0-0.1,0-0.2,0-0.2c0-0.1,0-0.2,0-0.3c0-0.1-0.1-0.2-0.2-0.2C84.7,105.7,84.4,105.8,84.4,106
			L84.4,106z"/>
	</g>
</g>
<g>
	<g>
		<path class="st13" d="M85,105.9c-0.1,0.4-0.1,0.8-0.1,1.2c0.2,0,0.5-0.1,0.7-0.1c-0.1-0.3-0.1-0.6-0.2-0.9c0-0.2-0.3-0.3-0.5-0.3
			c-0.2,0.1-0.3,0.3-0.3,0.5c0.1,0.3,0.1,0.6,0.2,0.9c0,0.2,0.2,0.3,0.4,0.3c0.2,0,0.3-0.2,0.3-0.4c0-0.3,0-0.6,0-0.8
			c0,0,0,0.1,0,0.1c0-0.1,0-0.1,0-0.2c0-0.1,0-0.2,0-0.3c0-0.1-0.1-0.2-0.2-0.2c-0.1,0-0.2,0-0.3,0C85.1,105.8,85,105.8,85,105.9
			L85,105.9z"/>
	</g>
</g>
<g>
	<g>
		<path class="st13" d="M85.6,106.2c0,0.3-0.1,0.6-0.1,0.9c0.3,0,0.5,0,0.8,0c0-0.3,0-0.7-0.1-1c0-0.1-0.1-0.2-0.2-0.2
			c-0.1,0-0.2-0.1-0.3,0c-0.1,0-0.2,0.1-0.2,0.2c0,0.1-0.1,0.2,0,0.3c0,0.1,0,0.1,0,0.2c0,0,0-0.1,0-0.1c0,0.2,0,0.5,0,0.7
			c0,0.1,0,0.2,0.1,0.3c0.1,0.1,0.2,0.1,0.3,0.1c0.1,0,0.2,0,0.3-0.1c0,0,0-0.1,0.1-0.1c0-0.1,0.1-0.1,0.1-0.2
			c0-0.3,0.1-0.6,0.1-0.9c0-0.1,0-0.2-0.1-0.3c-0.1-0.1-0.2-0.1-0.3-0.1c-0.1,0-0.2,0-0.3,0.1c0,0,0,0.1-0.1,0.1
			C85.7,106,85.6,106.1,85.6,106.2L85.6,106.2z"/>
	</g>
</g>
<g>
	<g>
		<path class="st13" d="M86.1,106.1c0,0.3,0,0.6,0,0.9c0,0.1,0,0.2,0.1,0.3c0.1,0.1,0.2,0.1,0.3,0.1c0.2,0,0.4-0.2,0.4-0.4
			c0-0.3,0-0.7-0.1-1c0-0.2-0.3-0.3-0.5-0.3C86.1,105.7,86,105.9,86.1,106.1c0,0.2,0,0.3,0,0.4c0,0,0-0.1,0-0.1c0,0.2,0,0.4,0,0.5
			c0.3,0,0.5,0,0.8,0c0-0.3,0-0.6,0-0.9c0-0.2-0.2-0.4-0.4-0.4C86.2,105.7,86.1,105.9,86.1,106.1L86.1,106.1z"/>
	</g>
</g>
<g>
	<g>
		<path class="st13" d="M86.6,106c0,0.3,0,0.7,0,1c0,0.1,0,0.2,0.1,0.3c0.1,0.1,0.2,0.1,0.3,0.1c0.2,0,0.4-0.2,0.4-0.4
			c0-0.4-0.1-0.8-0.1-1.2c0-0.2-0.3-0.3-0.5-0.3C86.6,105.6,86.5,105.8,86.6,106c-0.1,0.2,0,0.4,0,0.5c0,0,0-0.1,0-0.1
			c0,0.2,0,0.4,0,0.6c0.3,0,0.5,0,0.8,0c0-0.3,0-0.7,0-1c0-0.2-0.2-0.4-0.4-0.4C86.8,105.6,86.6,105.8,86.6,106L86.6,106z"/>
	</g>
</g>
<g>
	<g>
		<path class="st13" d="M87,106c0,0.3,0,0.7,0,1c0,0.1,0,0.2,0.1,0.3c0.1,0.1,0.2,0.1,0.3,0.1c0.2,0,0.4-0.2,0.4-0.4
			c0-0.4,0-0.8-0.1-1.2c0-0.1-0.1-0.2-0.2-0.2c-0.1,0-0.2-0.1-0.3,0c-0.1,0-0.2,0.1-0.2,0.2C87,105.8,87,105.9,87,106
			c0,0.1,0,0.2,0,0.2c0,0,0-0.1,0-0.1c0,0.3,0.1,0.6,0,0.8c0.3,0,0.5,0,0.8,0c0-0.3,0-0.7,0-1c0-0.2-0.2-0.4-0.4-0.4
			C87.2,105.6,87,105.8,87,106L87,106z"/>
	</g>
</g>
<g>
	<g>
		<path class="st13" d="M87.9,105.9c0,0.3,0,0.6,0.1,0.9c0,0.1,0,0.2,0.1,0.3c0.1,0.1,0.2,0.1,0.3,0.1c0.1,0,0.2,0,0.3-0.1
			c0.1-0.1,0.1-0.2,0.1-0.3c0-0.3-0.1-0.6-0.1-0.9c0-0.1-0.1-0.2-0.2-0.2c-0.1,0-0.2-0.1-0.3,0c-0.1,0-0.2,0.1-0.2,0.2
			c0,0.1-0.1,0.2,0,0.3c0,0.1,0,0.2,0.1,0.3c0,0,0-0.1,0-0.1c0,0.2,0,0.3,0,0.5c0.3,0,0.5,0,0.8,0c0-0.3-0.1-0.6-0.1-0.9
			c0-0.1,0-0.2-0.1-0.3c-0.1-0.1-0.2-0.1-0.3-0.1c-0.1,0-0.2,0-0.3,0.1C87.9,105.7,87.9,105.8,87.9,105.9L87.9,105.9z"/>
	</g>
</g>
<g>
	<g>
		<path class="st13" d="M88,106c0,0.2,0,0.4,0.1,0.7c0,0,0,0.1,0.1,0.1c0,0,0.1,0.1,0.1,0.1c0,0,0.1,0,0.1,0c0.1,0,0.1,0,0.2,0
			c0,0,0.1,0,0.1,0c0,0,0.1,0,0.1-0.1c0.1-0.1,0.1-0.2,0.1-0.3c0-0.2,0-0.4-0.1-0.6c0-0.1,0-0.1,0-0.1c0,0,0-0.1-0.1-0.1
			c-0.1-0.1-0.2-0.1-0.3-0.1c-0.1,0-0.2,0-0.3,0.1c0,0,0,0.1-0.1,0.1C88.1,105.8,88,105.9,88,106c0,0.2,0.1,0.4,0.1,0.6
			c0.2,0,0.5-0.1,0.7-0.1c0-0.1,0-0.1,0-0.2c0,0,0,0.1,0,0.1c0-0.1,0-0.3,0-0.4c0-0.1,0-0.1,0-0.1c0,0,0-0.1-0.1-0.1
			c-0.1-0.1-0.2-0.1-0.3-0.1c-0.1,0-0.2,0-0.3,0.1C88.1,105.8,88,105.9,88,106L88,106z"/>
	</g>
</g>
<g>
	<g>
		<path class="st13" d="M88.7,105.9c0,0.1,0,0.3,0,0.4c0.3,0,0.5,0,0.8,0c0-0.1,0-0.3,0-0.4c0-0.1,0-0.1,0-0.1c0,0,0-0.1-0.1-0.1
			c0,0-0.1-0.1-0.1-0.1c0,0-0.1,0-0.1,0c0,0-0.1,0-0.1,0c-0.1,0-0.1,0.1-0.2,0.1C88.7,105.7,88.7,105.8,88.7,105.9
			c0,0.1,0,0.3,0,0.4c0,0.1,0,0.1,0,0.1c0,0,0,0.1,0.1,0.1c0,0,0.1,0.1,0.1,0.1c0,0,0.1,0,0.1,0c0,0,0.1,0,0.1,0
			c0.1,0,0.1-0.1,0.2-0.1c0.1-0.1,0.1-0.2,0.1-0.3c0-0.1,0-0.3,0-0.4c0-0.1,0-0.2-0.1-0.3c0,0-0.1-0.1-0.1-0.1c0,0-0.1,0-0.1,0
			c0,0-0.1,0-0.1,0c-0.1,0-0.1,0.1-0.2,0.1C88.7,105.7,88.7,105.8,88.7,105.9L88.7,105.9z"/>
	</g>
</g>
<g>
	<g>
		<path class="st13" d="M88.9,106c0,0.3,0,0.5,0.1,0.8c0,0.1,0.1,0.2,0.2,0.2c0.1,0,0.2,0.1,0.2,0c0.1,0,0.2,0,0.2-0.1
			c0.1-0.1,0.1-0.2,0.1-0.3c0-0.3,0-0.5,0-0.8c0-0.1,0-0.2-0.1-0.3c-0.1-0.1-0.2-0.1-0.3-0.1c-0.1,0-0.2,0-0.3,0.1
			c-0.1,0.1-0.1,0.2-0.1,0.3c0,0.3,0,0.5,0,0.8c0.2,0,0.5-0.1,0.7-0.1c0,0,0-0.1,0-0.1c0,0,0,0.1,0,0.1c0-0.2,0-0.4,0-0.6
			c0-0.1,0-0.2-0.1-0.3c-0.1-0.1-0.2-0.1-0.3-0.1c-0.1,0-0.2,0-0.3,0.1C88.9,105.8,88.9,105.9,88.9,106L88.9,106z"/>
	</g>
</g>
<g>
	<g>
		<path class="st13" d="M89.5,106c0,0.2,0,0.5-0.1,0.7c0.3,0,0.5,0,0.8,0c0-0.3,0-0.6,0-0.8c0-0.1,0-0.2-0.1-0.3
			c-0.1-0.1-0.2-0.1-0.3-0.1c-0.1,0-0.2,0-0.3,0.1c-0.1,0.1-0.1,0.2-0.1,0.3c0,0.3,0,0.6,0,0.8c0,0.1,0,0.2,0.1,0.3
			c0.1,0.1,0.2,0.1,0.3,0.1c0.1,0,0.2,0,0.3-0.1c0.1-0.1,0.1-0.2,0.1-0.3c0-0.2,0-0.5,0.1-0.7c0-0.1,0-0.2-0.1-0.3
			c-0.1-0.1-0.2-0.1-0.3-0.1c-0.1,0-0.2,0-0.3,0.1c0,0,0,0.1-0.1,0.1C89.5,105.9,89.5,105.9,89.5,106L89.5,106z"/>
	</g>
</g>
<g>
	<g>
		<path class="st13" d="M90.5,105.6c-0.2,0.7-0.3,1.4-0.3,2.2c0.3,0,0.5,0,0.8,0c0-0.7,0-1.4-0.1-2.1c0-0.2-0.2-0.4-0.4-0.4
			c-0.2,0-0.4,0.2-0.4,0.4c0,0.7,0.1,1.4,0.1,2.1c0,0.2,0.2,0.4,0.4,0.4c0.2,0,0.4-0.2,0.4-0.4c0-0.2,0-0.3,0-0.5c0-0.1,0-0.2,0-0.3
			c0,0,0-0.1,0-0.1c0,0.1,0,0,0-0.1c0.1-0.3,0.1-0.7,0.2-1c0-0.2-0.1-0.4-0.3-0.5C90.8,105.3,90.6,105.4,90.5,105.6L90.5,105.6z"/>
	</g>
</g>
<g>
	<g>
		<path class="st13" d="M90.9,105.6c0,0.2-0.1,0.5-0.1,0.7c0.2,0,0.5,0.1,0.7,0.1c0-0.2,0.1-0.5,0.1-0.7
			C91.4,105.7,91.2,105.7,90.9,105.6c0,0.6-0.1,1.1-0.1,1.6c0,0.2,0.1,0.3,0.3,0.4c0.2,0,0.4-0.1,0.4-0.3c0.1-0.3,0.1-0.6,0.2-0.9
			c-0.2,0-0.5-0.1-0.7-0.1c0,0.4-0.1,0.7-0.1,1.1c0,0.1,0,0.2,0.1,0.3c0.1,0.1,0.1,0.1,0.2,0.1c0.2,0,0.4-0.1,0.4-0.3
			c0.1-0.3,0.1-0.7,0.2-1c-0.2,0-0.5,0-0.7,0c0,0,0,0.1,0,0.1c0,0,0-0.1,0,0c0,0,0,0,0,0.1c0,0,0-0.1,0,0c0,0,0,0,0,0.1
			c0,0.1,0,0,0,0c0,0,0,0.1,0,0.1c0.2,0.1,0.5,0.1,0.7,0.2c0-0.4,0-0.8,0-1.2c0-0.2-0.2-0.4-0.4-0.4c-0.2,0-0.4,0.2-0.4,0.4
			c0,0.4,0,0.8,0,1.2c0,0.2,0.1,0.3,0.3,0.4c0.2,0,0.3,0,0.4-0.2c0.2-0.3,0.2-0.6,0.1-0.9c-0.1-0.2-0.2-0.3-0.4-0.3
			c-0.2,0-0.3,0.1-0.4,0.3c-0.1,0.3-0.1,0.7-0.2,1c0.2,0,0.5,0.1,0.7,0.1c0-0.4,0.1-0.7,0.1-1.1c0-0.1,0-0.2-0.1-0.3
			c-0.1-0.1-0.1-0.1-0.2-0.1c-0.2,0-0.4,0.1-0.4,0.3c-0.1,0.3-0.1,0.6-0.2,0.9c0.2,0,0.5,0.1,0.7,0.1c0-0.5,0-1,0-1.5
			c0-0.2-0.2-0.4-0.4-0.4c-0.1,0-0.2,0-0.3,0.1C90.9,105.5,90.9,105.6,90.9,105.6c-0.1,0.3-0.1,0.6-0.1,0.8c0,0.1,0,0.2,0.1,0.3
			c0.1,0.1,0.1,0.1,0.2,0.1c0.2,0,0.4-0.1,0.4-0.3c0-0.2,0.1-0.5,0.1-0.7c0-0.2-0.1-0.4-0.3-0.5C91.2,105.3,91,105.4,90.9,105.6
			L90.9,105.6z"/>
	</g>
</g>
<g>
	<g>
		<path class="st13" d="M91,105.7c0,0.4-0.1,0.8-0.1,1.2c0,0.2,0.2,0.4,0.4,0.4c0.1,0,0.2,0,0.3-0.1c0.1-0.1,0.1-0.2,0.1-0.3
			c0-0.4,0.1-0.8,0.1-1.2c0-0.1,0-0.2-0.1-0.3c-0.1-0.1-0.2-0.1-0.3-0.1c-0.1,0-0.2,0-0.3,0.1C91.1,105.6,91.1,105.7,91,105.7
			c0,0.4,0,0.8-0.1,1.2c0.3,0,0.5,0,0.8,0c0-0.4,0-0.8,0.1-1.2c0-0.1,0-0.2-0.1-0.3c-0.1-0.1-0.2-0.1-0.3-0.1c-0.1,0-0.2,0-0.3,0.1
			C91.1,105.6,91,105.6,91,105.7L91,105.7z"/>
	</g>
</g>
<g>
	<g>
		<path class="st13" d="M91,105.8c0,0.3-0.1,0.6-0.1,0.9c0,0.1,0,0.2,0.1,0.3c0.1,0.1,0.1,0.1,0.2,0.1c0.1,0,0.2,0,0.2,0
			c0.1-0.1,0.2-0.1,0.2-0.2c0.1-0.3,0.1-0.6,0.1-0.9c0-0.1,0-0.1,0-0.2c0-0.1,0-0.1,0-0.1c0-0.1-0.1-0.2-0.2-0.2c-0.1,0-0.2,0-0.3,0
			C91.2,105.5,91.1,105.6,91,105.8c0,0.2,0,0.5-0.1,0.8c0.2,0,0.5,0.1,0.7,0.1c0-0.3,0.1-0.6,0.1-0.9c0-0.1,0-0.2-0.1-0.3
			c-0.1-0.1-0.2-0.1-0.3-0.1c-0.1,0-0.2,0-0.3,0.1C91.1,105.6,91,105.7,91,105.8L91,105.8z"/>
	</g>
</g>
<g>
	<g>
		<path class="st13" d="M84,107c-0.7,0.7-1.3,1.6-1.8,2.5c-0.2,0.3,0.2,0.8,0.5,0.5c0.8-0.6,1.4-1.3,1.8-2.1
			c0.2-0.4-0.3-0.7-0.6-0.5c-0.5,0.5-1,1-1.4,1.6c-0.2,0.4,0.3,0.7,0.6,0.5c0.6-0.5,1.2-1,1.7-1.5c-0.2-0.2-0.4-0.4-0.5-0.5
			c-0.6,0.6-1.2,1.3-1.6,2.1c-0.2,0.3,0.2,0.7,0.5,0.5c1-0.7,1.8-1.4,2.5-2.4c0.2-0.3-0.2-0.7-0.5-0.5c-0.8,0.5-1.6,1-2.3,1.7
			c-0.3,0.2,0,0.6,0.3,0.6c0.6,0,1.1-0.1,1.6-0.3c0.5-0.2,1.1-0.4,1.7-0.3c0-0.2,0-0.5,0-0.7c-1,0.4-2,0.7-3.1,0.8
			c-0.4,0.1-0.3,0.7,0.1,0.7c1.1,0,2.1-0.1,3.2-0.3c-0.1-0.2-0.1-0.5-0.2-0.7c-0.4,0.1-0.7,0.1-1.1,0c-0.5-0.1-0.7,0.6-0.2,0.7
			c0.3,0.1,0.6,0.2,0.9,0.2c-0.1-0.2-0.2-0.4-0.2-0.6c0,0.1-0.1,0.1-0.2,0.1c0,0.2,0.1,0.5,0.1,0.7c1.3-0.2,2.3-1.5,3.7-1.4
			c0-0.2-0.1-0.5-0.1-0.7c-0.8,0.2-1.6,0.5-2.3,0.8c-0.3,0.2-0.2,0.7,0.2,0.7c0.6-0.1,1.3-0.1,1.9-0.2c-0.1-0.2-0.1-0.5-0.2-0.7
			c-0.3,0.1-0.6,0.2-0.9,0.3c-0.4,0.1-0.3,0.7,0.1,0.7c0.3,0,0.5,0,0.8,0c0-0.2-0.1-0.5-0.1-0.7c-0.2,0.1-0.4,0.2-0.5,0.2
			c0.1,0.2,0.2,0.5,0.3,0.7c0.4-0.2,0.8-0.3,1.2-0.3c0.3,0,0.6,0.1,0.9,0c0.5-0.3,0.5-1.4,0.4-1.9c0-0.4-0.6-0.5-0.7-0.1
			c-0.2,0.5-0.2,1.1-0.1,1.6c0.1,0.3,0.4,0.3,0.6,0.2c0.5-0.4,0.6-1.1,0.3-1.7c-0.1-0.2-0.4-0.2-0.6-0.1c-0.2,0.2-0.4,0.4-0.5,0.7
			c0.2,0.1,0.5,0.2,0.7,0.3c0.1-0.4,0.1-0.7,0.2-1.1c0.1-0.4-0.3-0.6-0.6-0.4c-0.4,0.4-0.8,0.8-1,1.3c-0.2,0.4,0.4,0.8,0.7,0.4
			c0.3-0.4,0.5-0.9,0.6-1.4c0.1-0.4-0.4-0.6-0.6-0.4c-0.5,0.4-0.9,0.9-1.2,1.4c-0.3,0.4,0.4,0.8,0.7,0.4c0.4-0.5,0.5-1,0.6-1.6
			c0-0.3-0.3-0.5-0.6-0.3c-0.7,0.4-1.3,0.9-1.8,1.5c0.2,0.2,0.4,0.4,0.5,0.5c0.4-0.5,0.7-1,1-1.6c0.1-0.3-0.3-0.6-0.6-0.4
			c-0.6,0.4-1.2,0.9-1.7,1.4c0.2,0.2,0.4,0.3,0.6,0.5c0.3-0.5,0.5-0.9,0.8-1.4c0.2-0.3-0.2-0.7-0.5-0.5c-0.6,0.4-1.2,0.8-1.8,1.3
			c0.2,0.2,0.4,0.3,0.6,0.5c0.4-0.5,0.8-1,1.3-1.5c0.3-0.3-0.1-0.8-0.5-0.6c-0.7,0.4-1.3,0.8-1.8,1.3c-0.4,0.3,0.2,0.8,0.5,0.5
			c0.5-0.4,0.9-0.9,1.3-1.4c0.2-0.3-0.1-0.7-0.4-0.6c-0.5,0.2-1,0.4-1.3,0.8c-0.3,0.3,0.1,0.8,0.5,0.6c0.6-0.2,0.9-0.7,1.1-1.3
			c0.1-0.5-0.6-0.7-0.7-0.2c-0.1,0.4-0.4,0.7-0.8,0.9c0.2,0.2,0.3,0.4,0.5,0.6c0.3-0.3,0.6-0.5,1-0.6c-0.1-0.2-0.3-0.4-0.4-0.6
			c-0.3,0.5-0.7,0.9-1.1,1.2c0.2,0.2,0.4,0.4,0.5,0.5c0.5-0.5,1.1-0.9,1.7-1.2c-0.2-0.2-0.3-0.4-0.5-0.6c-0.5,0.5-0.9,1.1-1.4,1.7
			c-0.3,0.4,0.3,0.7,0.6,0.5c0.5-0.5,1.1-0.9,1.7-1.2c-0.2-0.2-0.3-0.3-0.5-0.5c-0.3,0.5-0.5,0.9-0.8,1.4c-0.2,0.4,0.3,0.8,0.6,0.5
			c0.5-0.5,1-0.9,1.6-1.3c-0.2-0.1-0.4-0.3-0.6-0.4c-0.2,0.5-0.4,0.9-0.8,1.3c-0.3,0.4,0.2,0.9,0.5,0.5c0.5-0.6,1-1,1.7-1.4
			c-0.2-0.1-0.4-0.2-0.6-0.3c0,0.5-0.2,0.9-0.5,1.2c0.2,0.1,0.4,0.3,0.7,0.4c0.3-0.5,0.7-0.9,1.1-1.3c-0.2-0.1-0.4-0.2-0.6-0.4
			c-0.1,0.4-0.3,0.8-0.5,1.2c0.2,0.1,0.4,0.3,0.7,0.4c0.2-0.4,0.5-0.8,0.9-1.1c-0.2-0.1-0.4-0.2-0.6-0.4c-0.1,0.4-0.1,0.7-0.2,1.1
			c-0.1,0.4,0.5,0.7,0.7,0.3c0.1-0.2,0.3-0.4,0.4-0.5c-0.2,0-0.4-0.1-0.6-0.1c0.1,0.3,0,0.6-0.2,0.7c0.2,0.1,0.4,0.1,0.6,0.2
			c-0.1-0.4,0-0.8,0.1-1.2c-0.2,0-0.5-0.1-0.7-0.1c0,0.3,0,0.6-0.1,1c0,0-0.1,0.4,0,0.3c-0.1,0-0.4,0-0.5,0c-0.6,0-1.2,0.1-1.7,0.4
			c-0.4,0.2-0.1,0.9,0.3,0.7c0.2-0.1,0.4-0.2,0.5-0.2c0.4-0.2,0.4-0.7-0.1-0.7c-0.3,0-0.5,0-0.8,0c0,0.2,0.1,0.5,0.1,0.7
			c0.4-0.1,0.7-0.2,1.1-0.3c0.3-0.2,0.2-0.7-0.2-0.7c-0.6,0.1-1.3,0.1-1.9,0.2c0.1,0.2,0.1,0.5,0.2,0.7c0.7-0.3,1.4-0.6,2.1-0.7
			c0.4-0.1,0.3-0.7-0.1-0.7c-1.5-0.2-2.5,1.2-3.9,1.4c-0.4,0.1-0.3,0.7,0.1,0.7c0.4,0,0.7-0.2,0.8-0.5c0.1-0.2,0-0.5-0.2-0.6
			c-0.3-0.1-0.6-0.2-0.9-0.2c-0.1,0.2-0.1,0.5-0.2,0.7c0.5,0.1,1,0.1,1.5,0c0.5-0.1,0.3-0.8-0.2-0.7c-1,0.2-2,0.3-3,0.3
			c0,0.2,0.1,0.5,0.1,0.7c1.1-0.2,2.1-0.5,3.1-0.8c0.3-0.1,0.4-0.6,0-0.7c-1.2-0.3-2.3,0.6-3.5,0.6c0.1,0.2,0.2,0.4,0.3,0.6
			c0.7-0.6,1.4-1.1,2.2-1.5c-0.2-0.2-0.3-0.3-0.5-0.5c-0.6,0.8-1.4,1.5-2.3,2.1c0.2,0.2,0.3,0.3,0.5,0.5c0.4-0.7,0.9-1.3,1.5-1.9
			c0.3-0.4-0.2-0.9-0.5-0.5c-0.6,0.5-1.2,1-1.7,1.5c0.2,0.2,0.4,0.3,0.6,0.5c0.3-0.6,0.8-1,1.3-1.5c-0.2-0.2-0.4-0.3-0.6-0.5
			c-0.4,0.7-0.9,1.4-1.6,1.9c0.2,0.2,0.3,0.3,0.5,0.5c0.5-0.9,1-1.6,1.7-2.3C84.8,107.2,84.3,106.6,84,107L84,107z"/>
	</g>
</g>
<g>
	<g>
		<path class="st13" d="M83,110C83,110,83,110,83,110C83,109.9,83.1,109.9,83,110C83.1,109.9,83.1,109.9,83,110c0-0.1,0-0.1,0-0.1
			c0,0,0,0,0,0c0,0,0-0.1,0.1-0.1c0,0,0,0,0,0c0,0,0.1,0,0.1-0.1c0,0,0,0,0,0c0,0,0.1,0,0.1,0c0,0,0,0,0,0c0,0-0.1,0-0.1,0.1
			C83,109.8,83,109.9,83,110c-0.1,0-0.1,0-0.1,0.1c0,0.1,0,0.1,0,0.2c0,0,0,0.1,0,0.1c0,0.1,0.1,0.1,0.1,0.1c0,0,0.1,0,0.1,0
			c0.1,0,0.1,0,0.2,0c0,0,0,0,0,0c0,0,0.1,0,0.1,0c0,0,0,0,0,0c0,0,0.1,0,0.1-0.1c0,0,0,0,0,0c0,0,0,0,0,0c0,0,0-0.1,0.1-0.1
			c0,0,0,0,0,0c0,0,0,0,0,0c0,0,0-0.1,0-0.1c0,0,0,0,0,0c0,0,0,0,0,0c0,0,0-0.1,0-0.1c0,0,0,0,0,0c0-0.1,0-0.1,0-0.1
			c0,0,0-0.1-0.1-0.1c0,0-0.1-0.1-0.1-0.1c0,0-0.1,0-0.1,0c0,0-0.1,0-0.1,0c-0.1,0-0.1,0.1-0.2,0.1c0,0,0,0.1-0.1,0.1
			C83.1,109.8,83,109.9,83,110L83,110z"/>
	</g>
</g>
<g>
	<g>
		<path class="st15" d="M83.5,109.6c0.2-0.4,0.4-0.7,0.6-1.1c0,0.1-0.1,0.1-0.1,0.2c0.2-0.2,0.3-0.4,0.5-0.6
			c0.1-0.1,0.2-0.3,0.2-0.5c0-0.2-0.1-0.4-0.2-0.5c-0.3-0.3-0.8-0.3-1.1,0c-0.5,0.5-1,1.1-1.3,1.8c-0.1,0.1-0.1,0.2-0.1,0.3
			c0,0.1,0,0.2,0,0.3c0,0.2,0.2,0.4,0.3,0.5c0.2,0.1,0.4,0.1,0.6,0.1C83.2,109.9,83.4,109.8,83.5,109.6L83.5,109.6z"/>
	</g>
</g>
<path class="st15" d="M81.2,106.1l0.5,6.3l0.7-1.4l0.9-0.5l0.9-0.3l1,0.3l0.7,0.6l0.3,0.1l0.5-0.7l1-0.5l0.9-0.2l1.1,0.3l0.7,0.6
	l0.4,0.6l0.1,0.6l0.4-1.1l0.4-1.7l0.1-1.3l0.2-1.7l0.1-0.9C88.5,105.3,84.8,105.6,81.2,106.1z"/>
<g>
	<g>
		<path class="st13" d="M110,51.1c-3.8-6.9-12-10.3-19.6-10.2c-2.6,0-5.1,0.4-7.7,0.7c-2.5,0.3-5,0.4-7.4,0.8
			c-4.3,0.8-8.3,3.1-11.2,6.4c-5,5.6-6.3,13.4-6.4,20.7c-0.1,8.7,1.2,17.4,0.9,26.1c-0.2,5.8-1.3,11.7-0.4,17.5
			c0.8,4.9,3.1,9.3,6.5,13c0.3,0.4,0.9-0.2,0.5-0.5c-3-3.2-5.1-7-6.1-11.3c-1.1-4.9-0.4-10,0-15c0.3-5,0.4-9.9,0.1-14.9
			c-0.2-3.6-0.5-7.1-0.7-10.7c-0.3-7.1,0-14.7,3.7-21c2-3.4,4.9-6.3,8.5-8c2.4-1.1,4.9-1.6,7.5-1.9c2.5-0.2,5.1-0.5,7.6-0.8
			c4.6-0.5,9-0.4,13.4,1.2c4.2,1.6,8,4.3,10.1,8.3C109.6,51.9,110.3,51.5,110,51.1L110,51.1z"/>
	</g>
</g>
<g>
	<g>
		<path class="st13" d="M70.3,129.6c4.7,2.9,10.7,2.9,16.1,2.5c2.7-0.2,5.5-0.6,8.2-1.1c3-0.5,6.3-0.7,8.9-2.4
			c0.4-0.3,0-0.9-0.4-0.7c-2.5,1.6-5.7,1.8-8.5,2.3c-2.7,0.5-5.4,0.9-8.1,1.1c-5.2,0.4-11.1,0.5-15.7-2.4
			C70.3,128.6,69.9,129.3,70.3,129.6L70.3,129.6z"/>
	</g>
</g>
<g>
	<g>
		<path class="st13" d="M76.8,42.9c0.5,0,0.5-0.8,0-0.8C76.3,42.1,76.3,42.9,76.8,42.9L76.8,42.9z"/>
	</g>
</g>
<g>
	<g>
		<path class="st13" d="M59.2,58.2c-3.1-0.2-5.7-2.9-5.1-6.1c0.5-2.8,3.3-5,6.1-5.2c1.6-0.1,3.6-0.1,4.6,1.3
			c0.3,0.4,0.8-0.2,0.5-0.5c-1.1-1.4-2.9-1.5-4.5-1.5c-1.7,0-3.4,0.5-4.7,1.6c-2.7,2-3.9,5.8-1.8,8.7c1.2,1.6,3,2.4,4.9,2.6
			C59.7,59,59.7,58.2,59.2,58.2L59.2,58.2z"/>
	</g>
</g>
<g>
	<g>
		<path class="st13" d="M106.1,46.8c1.2-0.7,2.6-1.1,4-1.2c1.4-0.2,2.9-0.1,4.2,0.6c2.4,1.4,3.1,4.9,2.2,7.4c-0.6,1.7-2.2,3-4,3.3
			c-0.5,0.1-0.3,0.8,0.2,0.7c1.7-0.3,3.3-1.5,4.1-3c0.7-1.4,0.9-3,0.7-4.5c-0.2-1.5-0.9-3.1-2.1-4.1c-1.2-1-2.9-1.3-4.5-1.3
			c-1.8,0.1-3.7,0.6-5.3,1.4C105.3,46.4,105.7,47,106.1,46.8L106.1,46.8z"/>
	</g>
</g>
<g>
	<g>
		<path class="st13" d="M65.1,126.1c2.5-1.3,3.9,2,5.6,3.1c0-0.1,0.1-0.2,0.1-0.4c-2.6,0.3-4.1,3.1-6.6,3.7c-1.2,0.3-2.7-0.5-3-1.7
			c-0.3-1.2,0.7-2.2,1.5-2.9c1-0.9,2.2-1.6,3.4-2.2c0.2-0.1,0-0.4-0.2-0.3c-1.1,0.6-2.2,1.2-3.2,2.1c-0.9,0.7-1.9,1.8-1.8,3
			c0,1.2,1.2,2.4,2.4,2.6c1.3,0.2,2.5-0.6,3.5-1.3c1.3-0.9,2.6-2.3,4.3-2.5c0.2,0,0.3-0.2,0.1-0.4c-1.9-1.2-3.2-4.6-6-3.1
			C64.7,125.9,64.9,126.2,65.1,126.1L65.1,126.1z"/>
	</g>
</g>
<g>
	<g>
		<path class="st13" d="M62.2,132.1c-0.5-1.4,0.7-2.7,1.9-3.3c0.2-0.1,0-0.4-0.2-0.3c-1.3,0.7-2.6,2.1-2.1,3.7
			C61.9,132.5,62.3,132.4,62.2,132.1L62.2,132.1z"/>
	</g>
</g>
<g>
	<g>
		<path class="st13" d="M108.1,132c-1.4-0.8-2.3-2.2-3.4-3.3c-0.2-0.2-0.5-0.4-0.7-0.6c-0.4-0.3-0.4-0.6-0.1-1
			c0.4-0.7,1.3-1.2,1.9-1.6c0.8-0.4,1.7-0.6,2.6-0.4c0.8,0.2,1.5,0.7,2.1,1.4c0.9,1,1.7,2.6,1.5,4.1c-0.1,0.8-0.6,1.6-1.5,1.8
			C109.7,132.6,108.8,132.4,108.1,132c-0.2-0.1-0.4,0.2-0.2,0.3c1.3,0.7,3.3,0.8,4.1-0.7c0.8-1.5,0.1-3.5-0.8-4.7
			c-1-1.5-2.7-2.6-4.6-2.1c-0.9,0.2-1.7,0.8-2.5,1.5c-0.5,0.4-1.2,1.2-0.7,1.9c0.2,0.3,0.6,0.5,0.9,0.7c0.4,0.4,0.8,0.8,1.2,1.3
			c0.7,0.8,1.4,1.6,2.4,2.2C108.1,132.5,108.3,132.2,108.1,132z"/>
	</g>
</g>
<g>
	<g>
		<path class="st13" d="M108.9,128.7c0.9,1,1.8,2.3,1.8,3.7c0,0.2,0.4,0.2,0.4,0c0-1.5-0.9-2.9-1.9-3.9
			C109,128.3,108.7,128.5,108.9,128.7L108.9,128.7z"/>
	</g>
</g>
<g>
	<g>
		<path class="st13" d="M114.1,85.9c0.3,0.2,0.7,0.1,1,0.1c0.4,0,0.8,0,1.3,0.1c1.2,0.3,2.4,0.8,3.1,1.8c0.6,0.8,0.9,1.9,0.6,2.8
			c-0.4,1-1.5,1.1-2.4,0.8c-1.3-0.3-2.3-1.3-3.2-2.2c-0.2-0.2-0.4,0.1-0.3,0.3c0.9,0.9,1.8,1.8,3,2.2c0.9,0.3,2.2,0.5,2.9-0.4
			c0.6-0.8,0.5-2,0.2-2.8c-0.5-1.2-1.5-2-2.6-2.5c-0.6-0.3-1.3-0.5-2-0.5c-0.3,0-0.6,0-0.8,0c-0.2,0-0.5,0.1-0.6-0.1
			C114,85.4,113.9,85.7,114.1,85.9L114.1,85.9z"/>
	</g>
</g>
<g>
	<g>
		<path class="st13" d="M117.6,89.5c0.9,0.3,2.1,1.1,1.5,2.2c-0.1,0.2,0.2,0.4,0.3,0.2c0.2-0.3,0.2-0.6,0.2-0.9
			c0-0.3-0.2-0.6-0.4-0.8c-0.4-0.5-1-0.8-1.6-1C117.5,89.1,117.4,89.5,117.6,89.5L117.6,89.5z"/>
	</g>
</g>
<path class="st13" d="M113,50.8c0-1-0.8-1.8-1.8-1.8c-1,0-1.8,0.8-1.8,1.8c0,1,0.8,1.8,1.8,1.8C112.2,52.7,113,51.9,113,50.8z"/>
<path class="st13" d="M61.9,52.5c0-1-0.8-1.8-1.8-1.8c-1,0-1.8,0.8-1.8,1.8c0,1,0.8,1.8,1.8,1.8C61.1,54.3,61.9,53.5,61.9,52.5z"/>
<g>
	<g>
		<path class="st13" d="M59,86.5c-1.5-0.3-3.1,0.3-4.3,1c-0.9,0.6-2.1,1.5-2.2,2.6c-0.1,0.7,0.4,1.2,0.9,1.4
			c0.2,0.1,0.4-0.2,0.2-0.3c-0.3-0.2-0.6-0.4-0.7-0.7c-0.1-0.3,0-0.5,0.1-0.8c0.2-0.6,0.7-1,1.2-1.4c1.3-1,3.1-1.9,4.8-1.5
			C59.1,86.9,59.2,86.5,59,86.5L59,86.5z"/>
	</g>
</g>
<g>
	<g>
		<path class="st13" d="M54.9,90.1c-0.5,0.2-1.1,0.6-1.3,1.2c-0.2,0.6,0.1,1,0.6,1.3c1.3,0.6,2.6-0.3,3.6-1.1c0.5-0.4,1-0.9,1.4-1.5
			c0.1-0.2-0.2-0.4-0.3-0.2c-0.6,0.9-1.6,1.7-2.5,2.2c-0.4,0.2-1,0.5-1.5,0.4c-0.4-0.1-1-0.3-1-0.9c0.1-0.6,0.7-1,1.2-1.2
			C55.3,90.3,55.1,90,54.9,90.1L54.9,90.1z"/>
	</g>
</g>
<g>
	<g>
		<path class="st13" d="M108.9,50.5c5.2,7.6,4.5,17.3,4.5,26.1c-0.1,10.7,1.4,21.4,0.9,32.1c-0.1,3-0.6,6.1-1.6,9
			c-0.9,2.6-2.8,4.7-4,7.1c-0.2,0.4,0.4,0.8,0.7,0.4c1.1-2.1,2.6-3.9,3.6-6c1-2.2,1.5-4.8,1.8-7.2c0.7-5.7,0.4-11.5,0.1-17.2
			c-0.3-5.6-0.7-11.3-0.7-16.9c0-4.6,0.2-9.2-0.2-13.8c-0.4-4.9-1.5-9.8-4.4-14C109.3,49.7,108.6,50.1,108.9,50.5L108.9,50.5z"/>
	</g>
</g>
<g>
	<g>
		<path class="st13" d="M103.3,128.3c0,0,0.1,0,0.1,0c0,0,0.1,0,0.1,0c0,0,0,0,0.1,0c0,0,0,0,0-0.1c0,0,0,0,0-0.1c0,0,0,0,0-0.1
			c0,0,0-0.1,0-0.1c0,0-0.1-0.1-0.1-0.1c0,0,0,0,0,0c0,0-0.1,0-0.1,0c0,0-0.1,0-0.1,0.1c0,0,0,0,0,0.1c0,0,0,0,0,0c0,0,0,0,0,0
			c0,0,0,0,0,0c0,0,0,0,0,0c0,0,0,0,0,0c0,0,0,0,0,0c0,0,0,0,0.1,0c0,0,0,0,0,0c0.1,0.1,0.1,0.2,0.2,0.2c0-0.1,0-0.1,0.1-0.2
			c-0.1,0-0.2,0.1-0.3,0.1C103.3,128.2,103.3,128.3,103.3,128.3c0.1,0.1,0.1,0.1,0.1,0.1c0,0,0,0,0.1,0c0,0,0.1,0,0.1,0
			c0,0,0,0,0.1,0c0,0,0.1-0.1,0.1-0.1c0-0.1,0-0.1-0.1-0.1c-0.1-0.1-0.1-0.1-0.2-0.2c0,0-0.1-0.1-0.2,0c0,0-0.1,0-0.1,0
			c0,0,0,0.1,0,0.1c0,0.1,0,0.1-0.1,0.2c0,0,0,0.1,0,0.1c0,0,0,0,0,0.1C103.2,128.3,103.2,128.3,103.3,128.3c-0.1,0.1,0,0.1,0,0.1
			c0,0,0,0,0,0C103.3,128.4,103.4,128.4,103.3,128.3C103.4,128.4,103.4,128.4,103.3,128.3c0.1,0.1,0.1,0.1,0.1,0.1c0,0,0,0,0.1,0
			c0,0,0,0,0-0.1c0,0,0,0,0-0.1c-0.1,0-0.1,0.1-0.2,0.1c0,0,0,0,0,0c0,0,0.1,0,0.1,0c0,0,0,0,0.1,0c0,0,0,0,0-0.1c0,0,0,0,0-0.1
			c0,0,0,0,0-0.1c0,0,0-0.1,0-0.1c0,0-0.1-0.1-0.1-0.1c0,0-0.1,0-0.1,0c0,0-0.1,0-0.1,0c0,0,0,0-0.1,0c0,0,0,0,0,0.1c0,0,0,0,0,0.1
			c0,0,0,0,0,0.1c0,0,0,0.1,0,0.1C103.2,128.2,103.3,128.3,103.3,128.3L103.3,128.3z"/>
	</g>
</g>
<path class="st14" d="M104.9,55.3c0-4.7-3.8-8.5-8.5-8.5c-4.7,0-8.5,3.8-8.5,8.5c0,4.7,3.8,8.5,8.5,8.5
	C101.1,63.8,104.9,60,104.9,55.3z"/>
<path class="st13" d="M93.9,55.3c0,1.5,1.2,2.8,2.8,2.8c1.5,0,2.8-1.2,2.8-2.8c0-1.5-1.2-2.8-2.8-2.8C95.1,52.5,93.9,53.8,93.9,55.3
	z M98.4,54.2c0,0.4-0.4,0.8-0.8,0.8c-0.4,0-0.8-0.4-0.8-0.8c0-0.4,0.4-0.8,0.8-0.8C98.1,53.4,98.4,53.7,98.4,54.2z"/>
<g>
	<g>
		<path class="st13" d="M81.4,110.3c0,0.6,0.1,1.2,0.1,1.8c0,0.2,0.4,0.2,0.4,0c0-0.2,0-0.3,0-0.5c-0.1,0-0.3,0-0.4,0
			c0,0.4,0.1,0.8,0,1.2c0,0.2,0.3,0.3,0.4,0.1c0.2-0.9,0.4-2,1.3-2.5c0.2-0.1,0-0.5-0.2-0.3c-1,0.6-1.3,1.7-1.5,2.7
			c0.1,0,0.2,0,0.4,0.1c0-0.4,0-0.8,0-1.2c0-0.1-0.1-0.2-0.2-0.2c-0.1,0-0.2,0.1-0.2,0.2c0,0.2,0,0.3,0,0.5c0.1,0,0.3,0,0.4,0
			c-0.1-0.6-0.1-1.2-0.1-1.8C81.7,110,81.3,110,81.4,110.3L81.4,110.3z"/>
	</g>
</g>
<g>
	<g>
		<path class="st13" d="M86.3,111.3c0.1-0.4,0.7-0.7,1-0.9c0.5-0.2,1-0.4,1.5-0.4c1,0.1,1.8,0.9,1.9,1.9c0,0.2,0.4,0.1,0.4-0.1
			c-0.2-1.2-1.1-2-2.3-2.2c-0.6-0.1-1.2,0.2-1.8,0.4c-0.5,0.2-1,0.5-1.2,1.1C85.9,111.4,86.3,111.5,86.3,111.3L86.3,111.3z"/>
	</g>
</g>
<g>
	<g>
		<path class="st13" d="M89.7,60.7c2,1.2,4.5,1.5,6.7,1.5c2.2,0,4.7-0.3,6.7-1.5c0.2-0.1,0-0.5-0.2-0.3c-1.9,1.1-4.3,1.4-6.5,1.4
			c-2.2,0-4.6-0.3-6.5-1.4C89.7,60.2,89.5,60.6,89.7,60.7L89.7,60.7z"/>
	</g>
</g>
<path class="st13" d="M88.3,83.7c-1.7,0.1-3.5,0.1-5.2,0.3c-0.7,0.1-1.4,0.2-2.1,0.3l0.2,22.3l11.1-0.8l0.3-22.3
	C91.1,83.6,89.7,83.6,88.3,83.7z"/>
<g>
	<path class="st13" d="M91.8,69.5l-0.5,0.1l-1.5-0.3c0.4,0.7,0.4,1.5,0.5,2.3c0,0.4,0.1,0.9,0,1.3c-0.1,0.8-0.4,1.5-1,1.9
		c-0.6,0.4-1.5,0.4-2-0.2c-0.2-0.2-0.3-0.4-0.3-0.7c-0.1-0.2-0.1-0.5-0.1-0.7l-0.3,0.6l-0.3,0.6l-0.6,0.5l-0.8,0.1l-0.9-0.4
		l-0.6-0.9L83,72.2l0.3-2.4c-0.1,0-0.3,0-0.4,0c-0.6,0.1-1.3-0.2-1.7-0.3c0,0,0,0,0,0c-0.1,0-0.2,0-0.3-0.1c0,0,0,0,0,0c0,0,0,0,0,0
		l0.3,14.9l11.2-0.7V69.4C92.2,69.4,92,69.5,91.8,69.5z"/>
	<g>
		<path class="st13" d="M91.8,69.3c-0.6,0.1-1.2,0-1.9-0.2c-0.2,0-0.3,0.1-0.2,0.3c0.5,1.1,0.8,3.1,0.3,4.3
			c-0.3,0.7-0.9,1.3-1.8,1.2c-0.9-0.1-1.1-1-1.2-1.7c0-0.2-0.3-0.2-0.3,0c-0.2,0.3-0.3,0.7-0.5,1c-0.1,0.2-0.2,0.2-0.3,0.4
			c-0.1,0.1-0.5,0.4-0.3,0.3c-0.8,0.2-1.4-0.2-1.8-0.7c-0.8-1.2-0.4-2.8-0.2-4.2c0-0.1-0.1-0.2-0.2-0.2c-0.5-0.1-1.1,0-1.6-0.2
			c-0.3-0.1-0.5-0.2-0.8-0.2c-0.1,0-0.2,0-0.2,0.2c0.1,4.4,0.2,8.7,0.3,13.1c0,0.6,0,1.2,0,1.8c0,0.1,0.1,0.2,0.2,0.2
			c3.7-0.2,7.5-0.5,11.2-0.7c0.1,0,0.2-0.1,0.2-0.2c0-4.1,0-8.2,0-12.3c0-0.6,0-1.2,0-1.8c0-0.1-0.1-0.2-0.2-0.2
			C92.1,69.3,92,69.3,91.8,69.3c-0.2,0-0.2,0.4,0.1,0.4c0.2,0,0.3,0,0.5-0.1c-0.1-0.1-0.2-0.1-0.2-0.2c0,4.1,0,8.2,0,12.3
			c0,0.6,0,1.2,0,1.8c0.1-0.1,0.1-0.1,0.2-0.2c-3.7,0.2-7.5,0.5-11.2,0.7c0.1,0.1,0.1,0.1,0.2,0.2c-0.1-4.4-0.2-8.7-0.3-13.1
			c0-0.6,0-1.2,0-1.8c-0.1,0.1-0.2,0.1-0.2,0.2c0.4,0.1,0.7,0.2,1.1,0.3c0.5,0.1,1,0.1,1.5,0.2c-0.1-0.1-0.1-0.1-0.2-0.2
			c-0.2,1.5-0.7,3.5,0.5,4.8c0.4,0.4,1.3,0.8,2,0.5c0.7-0.3,1-1.2,1.4-1.8c-0.1,0-0.2,0-0.3,0c0.1,0.8,0.3,1.6,1.1,1.9
			c0.7,0.3,1.5,0.1,2-0.4c0.6-0.6,0.9-1.5,0.9-2.4c0-1.1-0.1-2.2-0.6-3.1c-0.1,0.1-0.1,0.2-0.2,0.3c0.8,0.2,1.4,0.4,2.1,0.2
			C92.1,69.6,92,69.2,91.8,69.3z"/>
	</g>
</g>
<g>
	<g>
		<path class="st13" d="M83.3,41.7c-0.9-2.1-1.8-4.2-2.6-6.3c-0.1-0.2-0.4-0.1-0.4,0.1c0.8,2.2,1.6,4.3,2.6,6.4
			C83.1,42.1,83.4,41.9,83.3,41.7L83.3,41.7z"/>
	</g>
</g>
<g>
	<g>
		<path class="st13" d="M84.2,41.7c-0.5-6-0.4-11.9,0.2-17.9c0-0.2-0.4-0.2-0.4,0c-0.6,5.9-0.7,11.9-0.2,17.9
			C83.8,41.9,84.2,41.9,84.2,41.7L84.2,41.7z"/>
	</g>
</g>
<g>
	<g>
		<path class="st13" d="M86.2,41c0.1-0.1,0.2,0,0.2,0c0,0,0,0,0,0c0,0,0-0.1,0-0.1c0-0.1,0-0.2,0-0.3c0-0.3,0-0.6,0-0.9
			c0-0.6,0.1-1.1,0.1-1.7c0-0.2-0.4-0.2-0.4,0c0,0.5-0.1,1-0.1,1.5c0,0.5-0.1,1,0,1.5c0,0.2,0.2,0.4,0.4,0.2
			C86.7,41.1,86.4,40.8,86.2,41L86.2,41z"/>
	</g>
</g>
<g>
	<g>
		<path class="st13" d="M71.9,46.8c1.5-1.6,4.1-1.8,5.9-0.5c0.2,0.1,0.4-0.2,0.2-0.3c-1.9-1.3-4.7-1.1-6.4,0.6
			C71.5,46.7,71.8,46.9,71.9,46.8L71.9,46.8z"/>
	</g>
</g>
<g>
	<g>
		<path class="st13" d="M92.6,46.1c1.5-1.6,4.1-1.8,5.9-0.5c0.2,0.1,0.4-0.2,0.2-0.3c-1.9-1.3-4.7-1.1-6.4,0.6
			C92.1,46,92.4,46.2,92.6,46.1L92.6,46.1z"/>
	</g>
</g>
<ellipse class="st16" cx="65.9" cy="129.2" rx="8.2" ry="6"/>
<path class="st13" d="M85.4,19c-20,0-36.3,15.1-36.3,33.8c0,8.5,3.4,16.3,9,22.3c-0.1-0.2-0.1-0.4-0.2-0.6
	c-5.3-5.8-8.6-13.4-8.6-21.6c0-18.5,16.2-33.5,36-33.5s36,15,36,33.5c0,7.7-2.8,14.9-7.6,20.6c0.1,0.1,0.1,0.2,0.1,0.3
	c4.9-5.8,7.8-13,7.8-20.9C121.7,34.2,105.4,19,85.4,19z"/>
<ellipse class="st16" cx="86.4" cy="71.6" rx="38.4" ry="52.1"/>
<circle class="st16" cx="128.8" cy="46.5" r="4"/>
<circle class="st16" cx="128.8" cy="46.5" r="2"/>
<ellipse class="st16" cx="107.8" cy="129.2" rx="8.2" ry="6"/>
<g>
	<g>
		<path class="st13" d="M49,49.5c-1-0.2-1.9,0.5-2.2,1.4c-0.5,1.3-0.3,2.9-0.3,4.2c0,1.6-0.1,3.2,0,4.8c0.1,1,0.6,2.1,1.7,2
			c0.2,0,0.2-0.4,0-0.4c-1.5,0.1-1.4-1.8-1.3-2.7c0-1.1,0-2.3,0-3.4c0-1,0-2.1,0.1-3.1c0.1-1.1,0.7-2.6,2-2.3
			C49.1,50,49.2,49.6,49,49.5L49,49.5z"/>
	</g>
</g>
<g>
	<g>
		<path class="st13" d="M46.2,53.4c-0.3-0.4-0.9-0.3-1.1,0c-0.2,0.3-0.2,0.6-0.2,0.9c0,0.4,0,0.8,0.1,1.1c0,0.8,0.1,1.6,0.2,2.3
			c0.1,0.4,0.5,1,0.9,0.6c0.2-0.2-0.1-0.4-0.3-0.3c-0.1,0.1-0.2-0.3-0.2-0.3c-0.1-0.2,0-0.5-0.1-0.7c0-0.5-0.1-1-0.1-1.5
			c0-0.5-0.1-0.9-0.1-1.4c0-0.2,0-0.4,0.2-0.5c0.1-0.1,0.3-0.1,0.4,0C46,53.8,46.4,53.6,46.2,53.4L46.2,53.4z"/>
	</g>
</g>
<g>
	<g>
		<path class="st13" d="M120.5,43.3c0.3-0.4,0.9-0.4,1.4-0.1c0.5,0.3,0.7,0.8,0.9,1.3c0.3,1.1,0.4,2.2,0.6,3.2
			c0.2,1.1,0.4,2.2,0.6,3.3c0.2,1,0.1,2.9-1.4,2.8c-0.2,0-0.2,0.4,0,0.4c1.2,0.1,1.8-1.1,1.9-2.2c0-0.7-0.2-1.4-0.3-2.1
			c-0.2-0.8-0.3-1.7-0.5-2.5c-0.1-0.8-0.3-1.6-0.4-2.4c-0.1-0.6-0.3-1.3-0.7-1.8c-0.6-0.7-1.7-1-2.3-0.2
			C120.1,43.2,120.4,43.5,120.5,43.3L120.5,43.3z"/>
	</g>
</g>
<g>
	<g>
		<path class="st13" d="M123.7,45.3c0.1-0.2,0.4-0.1,0.5,0c0.2,0.2,0.2,0.4,0.3,0.7c0.1,0.6,0.2,1.1,0.3,1.7
			c0.1,0.5,0.3,1.1,0.2,1.6c0,0.2-0.2,0.4-0.4,0.5c-0.2,0.1-0.4,0.1-0.5-0.1c-0.2-0.2-0.4,0.1-0.3,0.3c0.4,0.4,1,0.2,1.3-0.2
			c0.4-0.6,0.1-1.5,0-2.2c-0.1-0.4-0.2-0.8-0.3-1.2c-0.1-0.4-0.1-0.8-0.3-1.1c-0.3-0.5-1-0.7-1.3-0.2
			C123.2,45.3,123.5,45.5,123.7,45.3L123.7,45.3z"/>
	</g>
</g>
<circle class="st16" cx="41.1" cy="56.2" r="4"/>
<circle class="st16" cx="41.1" cy="56.2" r="2"/>
<ellipse class="st16" cx="107.8" cy="130.1" rx="8.2" ry="6.8"/>
<ellipse class="st16" cx="65.9" cy="130.1" rx="8.2" ry="6.8"/>
<ellipse class="st16" cx="86" cy="72.6" rx="38.4" ry="53.1"/>
<path class="st17" d="M33.9,30.7c7.7-7.1,13.4-16.4,22.7-21.6c2.1-1.2,4.4-2.1,6.8-2.7c0.5-0.1,1.3-0.4,1.8-0.3
	c1,0.2,0.5,1.5,0.3,2.1c-0.4,1.2-0.9,2.3-1.5,3.5c-2.4,4.7-5.8,8.8-9.3,12.7c-4.4,4.7-9,9.3-13.6,13.8c0.1,0.1,0.1,0.1,0.2,0.2
	c0.1-0.1,0.2-0.2,0.2-0.3c0.1-0.1-0.1-0.3-0.2-0.2c-0.1,0.1-0.2,0.2-0.2,0.3c-0.1,0.1,0.1,0.3,0.2,0.2c4.3-4.2,8.6-8.5,12.8-12.9
	c3.7-3.9,7.3-8.1,9.9-12.9c0.6-1.2,1.2-2.4,1.7-3.7c0.3-0.7,0.9-1.9,0.3-2.6c-0.2-0.3-0.6-0.4-1-0.4c-0.7,0-1.4,0.2-2,0.4
	c-1.1,0.3-2.3,0.6-3.3,1.1c-4.7,1.9-8.7,5.1-12.3,8.7c-4.7,4.7-8.7,10-13.6,14.5C33.6,30.6,33.8,30.8,33.9,30.7L33.9,30.7z"/>
<path class="st17" d="M28.6,26.3c3.1,2.6,5.9,5.5,8.8,8.4c2.8,2.9,5.6,5.9,8.4,8.9c0.1,0.1,0.4,0,0.2-0.2c-2.8-3.1-5.7-6.1-8.6-9.1
	c-2.8-2.9-5.6-5.7-8.7-8.3C28.7,25.9,28.5,26.2,28.6,26.3L28.6,26.3z"/>
<path class="st17" d="M28.8,26.2c0-0.6,1-0.8,1.5-0.9c0.5-0.2,1.1-0.4,1.7-0.5c1-0.3,2.1-0.6,3.1-0.9c2.2-0.6,4.5-1.1,6.7-1.6
	c0.2,0,0.2-0.3,0-0.3c-2.5,0.5-5,1.1-7.5,1.8c-1.2,0.3-2.4,0.7-3.7,1.1c-0.7,0.2-2.1,0.4-2.1,1.3C28.5,26.3,28.8,26.4,28.8,26.2
	L28.8,26.2z"/>
<path class="st17" d="M50,29.2c-0.6,2.4-1.2,4.8-1.9,7.2c-0.6,2.3-1.1,4.8-2.1,7c0.1,0,0.1-0.1,0.2-0.1c-0.1,0-0.2-0.1-0.4-0.1
	c-0.2-0.1-0.3,0.2-0.1,0.3c0.1,0,0.2,0.1,0.4,0.1c0.1,0,0.2,0,0.2-0.1c1-2.1,1.5-4.5,2.1-6.8c0.6-2.5,1.3-5,1.9-7.5
	C50.4,29.1,50.1,29,50,29.2L50,29.2z"/>
<path class="st17" d="M37,34.1c1.6-1.5,3.1-3.1,4.7-4.6c0.7-0.7,1.5-1.5,2.2-2.2c0.4-0.4,0.8-0.8,1.2-1.2c0.2-0.2,0.3-0.3,0.5-0.5
	c0.3-0.2,1-0.5,1,0.1c0,0.4-0.5,0.8-0.7,1.1c-0.4,0.4-0.8,0.8-1.2,1.2c-0.7,0.7-1.5,1.4-2.2,2.1c-1.6,1.5-3.1,2.9-4.7,4.4
	c-0.1,0.1,0,0.4,0.2,0.2c1.5-1.4,3-2.8,4.4-4.1c1.4-1.3,2.9-2.5,4.1-4c0.3-0.3,0.6-0.8,0.5-1.3c-0.1-0.4-0.6-0.5-0.9-0.4
	c-0.3,0.1-0.5,0.4-0.8,0.6c-0.4,0.4-0.7,0.7-1.1,1.1c-0.7,0.7-1.5,1.5-2.2,2.2c-1.7,1.6-3.3,3.3-5,4.9C36.7,34,36.9,34.2,37,34.1
	L37,34.1z"/>
<path class="st17" d="M46.4,25.2c-3,3.1-6,6.1-9.1,9.1c-0.1,0.1,0,0.2,0.1,0.1c3.1-3,6.1-6,9.1-9.1C46.6,25.2,46.5,25.1,46.4,25.2
	L46.4,25.2z"/>
<path class="st17" d="M56.1,9.3c2.1,1.9,4.1,3.8,6.2,5.8c0.1,0.1,0.2-0.1,0.1-0.1c-2-2-4.1-3.9-6.2-5.8C56.1,9.1,56,9.3,56.1,9.3
	L56.1,9.3z"/>
<path class="st17" d="M50.6,13.2c2.6,2.4,5.1,4.8,7.7,7.2c0.1,0.1,0.2-0.1,0.1-0.1c-2.6-2.4-5.1-4.8-7.7-7.2
	C50.6,13,50.5,13.1,50.6,13.2L50.6,13.2z"/>
<path class="st17" d="M46,17.5c2.6,2.6,5.4,5,8.2,7.4c0.1,0.1,0.2-0.1,0.1-0.1c-2.8-2.3-5.6-4.8-8.2-7.4C46,17.3,45.9,17.4,46,17.5
	L46,17.5z"/>
<path class="st17" d="M33.9,24.2c0.1,0,0.1-0.1,0.2-0.1c0,0,0-0.1-0.1-0.1c-0.3,0.2-3.9,3.3-3.7,3.4c0.1,0.1,0.2-0.1,0.1-0.1
	c0,0,0,0,0,0c0,0-0.1,0-0.1,0c0,0,0,0,0,0c0,0,0,0,0,0.1c0,0,0,0,0,0c0,0,0,0.1,0.1,0.1c0.2,0,0.4-0.3,0.5-0.4
	c0.4-0.4,0.7-0.8,1.1-1.1c0.7-0.7,1.4-1.3,2.2-1.9c0.1,0,0-0.1-0.1-0.1c-0.2,0-0.2,0-0.3,0.2C33.8,24.2,33.9,24.3,33.9,24.2
	L33.9,24.2z"/>
<path class="st17" d="M38.2,22.8c-2.1,2-4.2,3.9-6.3,5.9c-0.1,0.1,0,0.2,0.1,0.1c2.1-2,4.2-3.9,6.3-5.9
	C38.3,22.9,38.2,22.8,38.2,22.8L38.2,22.8z"/>
<path class="st17" d="M48.8,33.9c-2.1,1.9-4.2,3.9-6.3,5.9c0,0,0.1,0.1,0.1,0.1c0.1-0.1,0.2-0.2,0.3-0.3c0.1-0.1-0.1-0.2-0.1-0.1
	c-0.1,0.1-0.2,0.2-0.3,0.3c-0.1,0.1,0,0.2,0.1,0.1c2.1-2,4.2-4,6.3-5.9C49,34,48.9,33.9,48.8,33.9L48.8,33.9z"/>
<path class="st17" d="M47.7,38.3c-0.7,0.7-1.4,1.4-2.2,2.1c-0.3,0.3-0.7,0.6-1,0.9c-0.1,0.1-0.3,0.2-0.3,0.3c0,0,0,0.1,0.1,0.1
	c0,0,0,0,0,0c0.1,0,0.1-0.2,0-0.2c0.4,0,0.7-0.5,1-0.7c0.3-0.3,0.6-0.6,0.9-0.8c0.6-0.5,1.1-1.1,1.6-1.6
	C47.9,38.3,47.8,38.2,47.7,38.3L47.7,38.3z"/>
<path class="st17" d="M34.6,29.9c1,1.1,2.1,2.1,3.2,3.1c0.1,0.1,0.2-0.1,0.1-0.1c-1.1-0.9-2.2-1.9-3.2-3
	C34.7,29.7,34.6,29.8,34.6,29.9L34.6,29.9z"/>
<path class="st17" d="M38.8,34c1.1,1.1,2.2,2.2,3.3,3.3c0.1,0.1,0.2,0,0.1-0.1c-1.1-1.1-2.2-2.2-3.3-3.3
	C38.8,33.8,38.7,33.9,38.8,34L38.8,34z"/>
<polygon class="st18" points="30.9,26 30.5,26.2 30.5,26.6 30.2,26.3 29.8,26.4 30,26.1 29.8,25.8 30.2,25.8 30.4,25.5 30.5,25.9 
	"/>
<polygon class="st18" points="46.4,41.6 46.1,41.8 46.1,42.2 45.8,41.9 45.4,42 45.6,41.7 45.4,41.3 45.7,41.4 46,41.1 46.1,41.5 
	"/>
<circle class="st19" cx="57" cy="14.3" r="1.4"/>
<circle class="st19" cx="52.5" cy="18.9" r="0.9"/>
<circle class="st19" cx="48.5" cy="23.5" r="0.6"/>
<ellipse transform="matrix(0.7026 -0.7116 0.7116 0.7026 3.3001 39.9467)" class="st20" cx="49.4" cy="16" rx="0.9" ry="0.4"/>
<ellipse transform="matrix(0.7864 -0.6178 0.6178 0.7864 4.2606 36.0504)" class="st20" cx="54.3" cy="11.9" rx="1.7" ry="0.4"/>
<ellipse transform="matrix(0.7026 -0.7116 0.7116 0.7026 -1.0328 38.1532)" class="st20" cx="45.1" cy="20.3" rx="0.6" ry="0.4"/>
<circle class="st19" cx="57" cy="14.3" r="1.9"/>
<circle class="st19" cx="52.5" cy="18.8" r="1.5"/>
<circle class="st19" cx="48.5" cy="23.5" r="0.9"/>
<path class="st13" d="M55.9,14.2c0,0.6,0.5,1.1,1.1,1.1c0.6,0,1.1-0.5,1.1-1.1c0-0.6-0.5-1.1-1.1-1.1C56.4,13.1,55.9,13.6,55.9,14.2
	z M57.7,13.8c0,0.2-0.1,0.3-0.3,0.3c-0.2,0-0.3-0.1-0.3-0.3c0-0.2,0.1-0.3,0.3-0.3C57.6,13.5,57.7,13.6,57.7,13.8z"/>
<path class="st13" d="M51.9,18.9c0,0.3,0.3,0.6,0.6,0.6c0.3,0,0.6-0.3,0.6-0.6c0-0.3-0.3-0.6-0.6-0.6S51.9,18.6,51.9,18.9z
	 M52.9,18.6c0,0.1-0.1,0.2-0.2,0.2c-0.1,0-0.2-0.1-0.2-0.2c0-0.1,0.1-0.2,0.2-0.2C52.8,18.5,52.9,18.5,52.9,18.6z"/>
<path class="st13" d="M48.2,23.5c0,0.2,0.2,0.3,0.3,0.3c0.2,0,0.3-0.2,0.3-0.3c0-0.2-0.2-0.3-0.3-0.3C48.3,23.2,48.2,23.3,48.2,23.5
	z M48.7,23.4C48.7,23.4,48.7,23.5,48.7,23.4c-0.1,0.1-0.2,0.1-0.2,0C48.5,23.3,48.6,23.3,48.7,23.4C48.7,23.3,48.7,23.3,48.7,23.4z"
	/>
<path class="st13" d="M64,6.4C64,6.4,64,6.4,64,6.4c0.1,0,0.1-0.1,0.1-0.1c-0.1,0-0.3-0.1-0.4-0.1c-0.3,0-0.5,0.1-0.8,0.1
	c-0.4,0.1-0.8,0.3-1,0.6c-0.2,0.3-0.2,0.8,0,1.1c0.3,0.5,0.9,0.4,1.3,0.7c0.6,0.4,0.4,1.7,1.4,1.2c1-0.5,1.1-1.7,0.9-2.7
	c0-0.1-0.2-0.1-0.2,0c0.2,0.9,0.2,2.1-0.8,2.5c-0.8,0.4-0.8-0.8-1.2-1.2c-0.2-0.2-0.6-0.3-0.8-0.4c-0.6-0.3-0.8-1-0.3-1.5
	c0.3-0.3,0.8-0.4,1.2-0.5c0.3,0,0.5,0.1,0.7,0.1c0.1,0,0.1-0.1,0-0.1c0,0,0,0-0.1,0C63.9,6.2,63.9,6.3,64,6.4L64,6.4z"/>
<path class="st13" d="M64,10c-0.2,0.5-0.6,1-1,1.3c-0.4,0.2-0.8,0.3-1.1,0c-0.3-0.3-0.1-0.6,0-1c0-0.1-0.1-0.2-0.1-0.1
	c-0.1,0.3-0.3,0.6-0.1,0.9c0.1,0.3,0.5,0.5,0.8,0.5c0.8,0,1.5-0.9,1.8-1.6C64.2,9.9,64.1,9.9,64,10L64,10z"/>
<path class="st13" d="M66.3,7.9c0.5-0.5,0.4-1.5-0.3-2.2c-0.7-0.7-1.7-0.8-2.2-0.3c-0.5,0.5-0.4,1.5,0.3,2.2
	C64.8,8.3,65.8,8.4,66.3,7.9z"/>
<path class="st13" d="M63.2,8.7c-0.3,0.4-0.7,0.7-1,1.1c-0.2,0.2-0.4,0.3-0.6,0.4c-0.4,0.2-0.9,0.1-1.1-0.3
	c-0.3-0.8,0.8-1.6,1.4-1.9c0.1,0,0-0.2-0.1-0.1c-0.7,0.4-1.9,1.3-1.4,2.2c0.7,1.3,2.4-0.6,2.9-1.2C63.3,8.7,63.2,8.6,63.2,8.7
	L63.2,8.7z"/>
<path class="st13" d="M54.2,25.2c0.1,0.2,0.3,0.3,0.5,0.5c0.5,0.5,0.8,1.3,0.7,2c-0.1,0.4-0.3,0.9-0.7,1.1c-0.6,0.2-1-0.3-1.2-0.7
	c-0.2-0.5-0.2-1-0.2-1.6c0-0.1-0.2-0.1-0.2,0c0,0.8,0.1,1.7,0.7,2.2c0.4,0.3,0.8,0.3,1.2,0c0.5-0.4,0.7-1.1,0.5-1.8
	c-0.1-0.3-0.2-0.7-0.4-1c-0.2-0.3-0.6-0.5-0.7-0.8C54.3,25,54.2,25.1,54.2,25.2L54.2,25.2z"/>
<path class="st13" d="M54.2,27.5c0.2,0.4,0.3,1.1-0.2,1.2c-0.1,0,0,0.2,0.1,0.1c0.6-0.2,0.6-1,0.3-1.4
	C54.2,27.3,54.1,27.4,54.2,27.5L54.2,27.5z"/>
<path class="st13" d="M46,17.7c-0.5-0.7-1.5-1.1-2.4-1.1c-0.6,0-1.2,0.3-1,1c0,0.1,0.2,0,0.1-0.1c-0.1-0.3,0.1-0.6,0.4-0.7
	c0.1,0,0.2,0,0.3-0.1c0.3,0,0.5,0,0.8,0.1c0.7,0.1,1.3,0.4,1.7,1C45.9,17.8,46,17.8,46,17.7L46,17.7z"/>
<path class="st13" d="M43.5,17.5c-0.3-0.1-0.7-0.2-1,0.1c-0.2,0.2-0.1,0.6,0.1,0.8c0.5,0.6,1.6,0.6,2.3,0.5c0.1,0,0.1-0.2,0-0.2
	c-0.5,0.1-0.9,0.1-1.4,0c-0.2-0.1-0.5-0.1-0.7-0.3c-0.1-0.1-0.2-0.2-0.2-0.3c0-0.2,0.1-0.3,0.1-0.5c0.1-0.1,0.5,0,0.7,0
	C43.5,17.7,43.6,17.6,43.5,17.5L43.5,17.5z"/>
<path class="st13" d="M32.5,31.9c-4.7,4.5-9.3,9.2-13.6,14.1c-0.1,0.1,0.1,0.2,0.1,0.1c4.3-4.9,8.9-9.6,13.6-14.1
	C32.7,32,32.6,31.8,32.5,31.9L32.5,31.9z"/>
<path class="st13" d="M34.4,36.6c-1.3,1.4-2.6,2.7-4,4c-0.1,0.1,0,0.2,0.1,0.1c1.4-1.3,2.7-2.6,4-4C34.6,36.6,34.5,36.5,34.4,36.6
	L34.4,36.6z"/>
<path class="st13" d="M36,38.7c-0.6,0.6-1.1,1.2-1.7,1.8c-0.1,0.1,0.1,0.2,0.1,0.1c0.6-0.6,1.1-1.2,1.7-1.8
	C36.2,38.7,36,38.6,36,38.7L36,38.7z"/>
<path class="st13" d="M37.1,40.5c-0.2,0.3-0.5,0.6-0.7,0.8c-0.1,0.1,0.1,0.2,0.1,0.1c0.2-0.3,0.5-0.6,0.7-0.8
	C37.3,40.5,37.2,40.4,37.1,40.5L37.1,40.5z"/>
<path class="st13" d="M33.6,34c-2.2,2.2-4.5,4.4-6.7,6.7c-0.1,0.1,0,0.2,0.1,0.1c2.2-2.2,4.5-4.4,6.7-6.7
	C33.8,34.1,33.7,33.9,33.6,34L33.6,34z"/>
<g>
	<g>
		<path class="st13" d="M46.5,61.3c-1.6,9.8-6.2,19-13.2,26.1c-3.6,3.6-7.9,6.7-12.9,8.2c-2.8,0.8-6,1.1-8.4-0.9
			c-1.7-1.4-2.6-3.5-2.9-5.6c-0.5-4.8,2.9-9,6.7-11.4c2.2-1.4,5.9-3.2,7.8-0.4c1,1.5,0.2,3.2-1.4,3.6c-1.4,0.4-2.8-0.4-3.7-1.4
			c-3.6-4.1-1.8-10.5,0.3-14.9c1-2.2,2.3-4.3,3.9-6.1c1.6-1.8,3.5-2.9,5.5-4.1c1.7-1,3.3-2.3,3.7-4.3c0.5-2,0-5.3,2.7-5.8
			c1.8-0.4,3.5,0.8,5.3,1c0.7,0.1,1.4,0,2-0.3c0.9-0.5,1.6-2.1,2.5-2.3c0.2-0.1,0.1-0.4-0.1-0.4c-1.1,0.2-1.4,1.6-2.4,2.2
			c-1,0.7-2.2,0.5-3.3,0.1c-1.5-0.4-3.1-1.2-4.7-0.6c-2,0.8-2.1,3-2.3,4.8c-0.2,1.5-0.6,2.8-1.8,3.9c-1,0.9-2.3,1.6-3.5,2.3
			c-4.6,2.7-7.6,7.5-9.3,12.4c-0.9,2.4-1.4,5.1-1,7.7c0.3,2.3,1.4,4.8,3.6,5.9c1.5,0.7,3.7,0.4,4.5-1.3c0.8-1.6-0.5-3.4-2-4
			c-2.5-1-5.3,0.7-7.3,2c-2,1.4-3.7,3.1-4.9,5.2C8,86.7,8.2,92,11.8,95c4.3,3.5,10.8,0.7,14.9-1.8c11-6.7,18.1-19.3,20.1-31.7
			C46.9,61.1,46.5,61,46.5,61.3L46.5,61.3z"/>
	</g>
</g>
<g>
	<g>
		<path class="st13" d="M24.6,54.2c-3.4,2.4-6,5.8-7.4,9.7c-0.1,0.2,0.3,0.3,0.4,0.1c1.4-3.8,3.9-7.1,7.2-9.5
			C25,54.4,24.8,54,24.6,54.2L24.6,54.2z"/>
	</g>
</g>
<g>
	<g>
		<path class="st13" d="M17.5,99.9c5.1-0.8,9.8-3,13.8-6.3c3.9-3.3,7-7.3,10.1-11.4c0.1-0.2-0.2-0.4-0.3-0.2c-2.9,3.9-6,7.8-9.7,11
			c-4,3.4-8.8,5.6-14,6.5C17.1,99.6,17.2,99.9,17.5,99.9L17.5,99.9z"/>
	</g>
</g>
<g>
	<g>
		<path class="st13" d="M27.5,100.5c2.5-1.6,4.9-3.4,7-5.5c0.2-0.2-0.1-0.4-0.3-0.3c-2.1,2.1-4.4,3.9-6.9,5.4
			C27.1,100.3,27.3,100.6,27.5,100.5L27.5,100.5z"/>
	</g>
</g>
<g>
	<g>
		<path class="st13" d="M90.2,85.4c-0.1-2.9,0.1-5.8,0.5-8.7c0.3-2.3,0.6-5.2,2.4-6.9c0.4-0.3-0.2-0.9-0.5-0.5
			c-1.9,1.7-2.2,4.5-2.6,6.9c-0.4,3-0.6,6.1-0.5,9.2C89.5,85.8,90.2,85.8,90.2,85.4L90.2,85.4z"/>
	</g>
</g>
<g>
	<g>
		<path class="st13" d="M82.7,79.3c-0.3-0.2-0.3-0.8-0.3-1.1c0-0.4,0-0.9,0-1.3c0-0.9,0-1.9-0.1-2.8c-0.2-1.7-0.7-3.4-1.7-4.8
			c-0.3-0.4-0.9,0-0.7,0.4c1.2,1.6,1.6,3.5,1.7,5.4c0.1,1,0,1.9,0,2.9c0,0.7-0.1,1.6,0.6,2C82.7,80.2,83.1,79.6,82.7,79.3L82.7,79.3
			z"/>
	</g>
</g>
<g>
	<g>
		<path class="st13" d="M63.5,136.4c-0.4-0.4-0.7-1-0.8-1.7c0-0.1-0.1-0.2-0.2-0.2c-0.1,0-0.2,0.1-0.2,0.2c0.1,0.7,0.4,1.4,0.9,1.9
			C63.4,136.8,63.6,136.6,63.5,136.4L63.5,136.4z"/>
	</g>
</g>
<g>
	<g>
		<path class="st13" d="M68.9,136.5c0.4-0.5,0.5-1.1,0.3-1.7c-0.1-0.2-0.4-0.1-0.4,0.1c0.1,0.5,0,1-0.2,1.4c-0.1,0.1,0,0.2,0.1,0.3
			C68.7,136.6,68.8,136.6,68.9,136.5L68.9,136.5z"/>
	</g>
</g>
<g>
	<g>
		<path class="st13" d="M106.8,136.9c0.1-0.2,0.1-0.3,0-0.5c-0.1-0.1-0.2-0.2-0.3-0.4c-0.1-0.3-0.2-0.6-0.1-0.9
			c0.1-0.2-0.3-0.3-0.4-0.1c-0.1,0.3-0.1,0.6,0,0.9c0.1,0.2,0.1,0.3,0.2,0.4c0,0.1,0.1,0.1,0.1,0.2c0,0,0,0.1,0.1,0.1c0,0,0,0,0,0
			c0,0,0-0.1,0-0.1c-0.1,0.1-0.1,0.2,0,0.3C106.6,137,106.7,137,106.8,136.9L106.8,136.9z"/>
	</g>
</g>
<g>
	<g>
		<path class="st13" d="M112.6,135.8c0.3-0.5,0.5-1.1,0.5-1.7c0-0.2-0.4-0.2-0.4,0c0,0.5-0.1,1.1-0.4,1.5
			C112.2,135.8,112.5,136,112.6,135.8L112.6,135.8z"/>
	</g>
</g>
<g>
	<g>
		<path class="st13" d="M82.7,125.2c-0.5-0.5-0.8-1.2-0.7-1.9c0-0.1-0.1-0.2-0.2-0.2c-0.1,0-0.2,0.1-0.2,0.2
			c-0.1,0.8,0.2,1.6,0.8,2.1C82.6,125.7,82.9,125.4,82.7,125.2L82.7,125.2z"/>
	</g>
</g>
<g>
	<g>
		<path class="st13" d="M94.6,124.3c0.3-0.5,0.5-1.1,0.5-1.7c0-0.1-0.1-0.2-0.2-0.2c-0.1,0-0.2,0.1-0.2,0.2c0,0.5-0.1,1.1-0.4,1.5
			C94.1,124.3,94.5,124.5,94.6,124.3L94.6,124.3z"/>
	</g>
</g>
<g>
	<g>
		<path class="st13" d="M68.3,119.4c-0.3-0.1-0.3,0.5,0,0.5c0.2,0,0.2-0.2,0.2-0.3c0-0.1-0.1-0.3-0.2-0.4c-0.2-0.6-0.2-1.2,0-1.7
			c0.1-0.2-0.3-0.3-0.4-0.1c-0.1,0.4-0.2,0.8-0.1,1.2c0,0.2,0.1,0.4,0.1,0.6c0,0.1,0.1,0.2,0.1,0.3c0,0,0,0.1,0.1,0.1c0,0,0,0,0,0.1
			c0,0,0,0,0.1-0.1C68.3,119.5,68.3,119.5,68.3,119.4C68.3,119.5,68.3,119.5,68.3,119.4c0,0.1,0.1,0.1,0.1,0.1c0,0,0,0.1,0,0.1
			c0,0-0.1,0.1-0.1,0.1c0,0,0,0,0,0c0,0-0.1,0-0.1,0c0,0,0,0,0,0C68.5,119.8,68.6,119.5,68.3,119.4L68.3,119.4z"/>
	</g>
</g>
<g>
	<g>
		<path class="st13" d="M105.7,118.3c0.1-0.4,0.1-1,0-1.4c0-0.1-0.1-0.2-0.2-0.1c-0.1,0-0.2,0.1-0.1,0.2c0.2,0.4,0.2,0.8,0,1.2
			c0,0.1,0,0.2,0.1,0.2C105.6,118.5,105.6,118.4,105.7,118.3L105.7,118.3z"/>
	</g>
</g>
<g>
	<g>
		<path class="st13" d="M87.3,125.8c0.1,1.8,0.1,3.6,0.6,5.3c0.1,0.2,0.4,0.1,0.4-0.1c-0.5-1.7-0.5-3.5-0.6-5.2
			C87.7,125.6,87.3,125.6,87.3,125.8L87.3,125.8z"/>
	</g>
</g>
<g>
	<g>
		<path class="st13" d="M73.4,126.6c-0.5-1.3-0.7-2.7-0.8-4.1c0-0.2-0.4-0.2-0.4,0c0,1.4,0.3,2.8,0.8,4.2
			C73.1,126.9,73.5,126.8,73.4,126.6L73.4,126.6z"/>
	</g>
</g>
<g>
	<g>
		<path class="st13" d="M101.1,126.2c0.9-1.6,1.3-3.4,1.2-5.3c0-0.2-0.4-0.2-0.4,0c0.1,1.8-0.3,3.5-1.2,5.1
			C100.7,126.3,101,126.4,101.1,126.2L101.1,126.2z"/>
	</g>
</g>
<g>
	<g>
		<path class="st13" d="M47.3,61.6c-1.6,9.8-6.2,19-13.2,26.1c-3.6,3.6-7.9,6.7-12.9,8.2c-2.8,0.8-6,1.1-8.4-0.9
			c-1.7-1.4-2.6-3.5-2.9-5.6c-0.5-4.8,2.9-9,6.7-11.4c2.2-1.4,5.9-3.2,7.8-0.4c1,1.5,0.2,3.2-1.4,3.6c-1.4,0.4-2.8-0.4-3.7-1.4
			c-3.6-4.1-1.8-10.5,0.3-14.9c1-2.2,2.3-4.3,3.9-6.1c1.6-1.8,3.5-2.9,5.5-4.1c1.7-1,3.3-2.3,3.7-4.3c0.5-2,0-5.3,2.7-5.8
			c1.8-0.4,3.5,0.8,5.3,1c0.7,0.1,1.4,0,2-0.3c0.9-0.5,1.6-2.1,2.5-2.3c0.2-0.1,0.1-0.4-0.1-0.4c-1.1,0.2-1.4,1.6-2.4,2.2
			c-1,0.7-2.2,0.5-3.3,0.1c-1.5-0.4-3.1-1.2-4.7-0.6c-2,0.8-2.1,3-2.3,4.8c-0.2,1.5-0.6,2.8-1.8,3.9c-1,0.9-2.3,1.6-3.5,2.3
			c-4.6,2.7-7.6,7.5-9.3,12.4c-0.9,2.4-1.4,5.1-1,7.7c0.3,2.3,1.4,4.8,3.6,5.9c1.5,0.7,3.7,0.4,4.5-1.3c0.8-1.6-0.5-3.4-2-4
			c-2.5-1-5.3,0.7-7.3,2c-2,1.4-3.7,3.1-4.9,5.2c-2.1,3.8-1.9,9.1,1.6,12c4.3,3.5,10.8,0.7,14.9-1.8c11-6.7,18.1-19.3,20.1-31.7
			C47.7,61.5,47.3,61.4,47.3,61.6L47.3,61.6z"/>
	</g>
</g>
<g>
	<g>
		<path class="st13" d="M32.6,46.4C32.6,46.4,32.6,46.4,32.6,46.4C32.6,46.4,32.6,46.4,32.6,46.4c0,0,0.1,0,0.1,0
			C32.7,46.4,32.7,46.4,32.6,46.4c0.1,0,0.2,0,0.2,0c0,0,0,0,0,0c0,0,0,0,0,0c0,0,0,0,0.1,0c0,0,0,0,0,0c0,0,0,0,0,0c0,0,0,0,0,0.1
			c0,0,0,0,0,0c0,0,0,0,0,0c0,0,0,0,0,0c0,0,0,0.1,0,0c0,0,0,0.1,0.1,0.1c0,0,0.1,0,0.1,0c0,0,0.1,0,0.1-0.1c0,0,0-0.1,0-0.1
			c0-0.1-0.1-0.2-0.2-0.2c-0.1-0.1-0.1-0.1-0.2-0.1C32.9,46,32.7,46,32.5,46c-0.1,0-0.2,0.1-0.1,0.2C32.4,46.3,32.5,46.4,32.6,46.4
			L32.6,46.4z"/>
	</g>
</g>
<g>
	<g>
		<path class="st13" d="M44.6,42.5C44.6,42.5,44.6,42.5,44.6,42.5c0.1,0,0.1,0,0.1,0c0,0,0,0,0.1,0c0,0,0,0,0-0.1c0,0,0,0,0-0.1
			c0,0,0,0,0-0.1c0,0,0-0.1,0-0.1c0,0,0,0,0,0c0,0-0.1,0-0.1,0c0,0,0,0-0.1,0c0,0-0.1,0-0.1,0c0,0,0,0-0.1,0c0,0,0,0,0,0.1
			c0,0,0,0,0,0.1c0,0,0,0,0,0.1c0,0,0,0.1,0,0.1C44.4,42.5,44.4,42.5,44.6,42.5C44.5,42.5,44.5,42.5,44.6,42.5L44.6,42.5z"/>
	</g>
</g>
<g>
	<g>
		<path class="st13" d="M25.3,56.4C25.3,56.4,25.3,56.4,25.3,56.4C25.3,56.4,25.3,56.4,25.3,56.4c0,0,0.1,0,0.1,0
			C25.4,56.4,25.3,56.4,25.3,56.4c0.1,0,0.1,0,0.2,0c0,0,0,0,0,0c0,0,0.1,0,0.1,0.1c0,0,0,0,0,0c0,0,0.1,0.1,0.1,0.1c0,0,0,0,0,0
			c0,0,0,0.1,0.1,0.1c0,0,0,0,0,0c0,0,0,0,0,0c0,0,0,0.1,0.1,0.1c0,0,0.1,0,0.1,0c0,0,0.1,0,0.1-0.1c0,0,0-0.1,0-0.1
			c0-0.1-0.1-0.2-0.1-0.2c-0.1-0.1-0.1-0.1-0.2-0.1c-0.1,0-0.1-0.1-0.2-0.1c-0.1,0-0.2,0-0.3,0c0,0-0.1,0-0.1,0.1c0,0,0,0.1,0,0.1
			c0,0,0,0.1,0.1,0.1C25.2,56.4,25.2,56.4,25.3,56.4L25.3,56.4z"/>
	</g>
</g>
<g>
	<g>
		<path class="st13" d="M17.8,66.9C17.9,66.9,17.9,66.9,17.8,66.9C17.9,66.8,17.8,66.9,17.8,66.9C17.9,66.9,17.9,66.8,17.8,66.9
			C17.9,66.8,17.9,66.8,17.8,66.9c0.1,0,0.1,0,0.1,0c0,0,0,0,0,0c0,0,0.1,0,0.1,0c0,0,0,0,0,0c0,0,0,0,0,0c0,0,0,0,0.1,0
			c0,0,0,0,0,0c0,0,0,0,0,0c0,0,0,0,0,0c0,0,0.1,0,0.1,0c0,0,0,0,0,0c0,0,0,0,0,0c0,0,0,0,0,0c0,0,0,0,0,0c0,0,0,0,0,0c0,0,0,0,0,0
			c0,0.1,0.2,0.1,0.3,0.1c0.1-0.1,0.1-0.2,0.1-0.3c-0.2-0.3-0.7-0.5-1-0.3c-0.1,0.1-0.1,0.2-0.1,0.3C17.6,66.9,17.8,66.9,17.8,66.9
			L17.8,66.9z"/>
	</g>
</g>
<g>
	<g>
		<path class="st13" d="M9.9,84.6C9.9,84.6,9.9,84.6,9.9,84.6C9.9,84.6,9.9,84.6,9.9,84.6C9.9,84.6,9.9,84.6,9.9,84.6
			C9.9,84.6,9.9,84.6,9.9,84.6c0.1,0,0.1,0,0.1,0C10,84.5,10,84.5,9.9,84.6c0.1,0,0.1,0,0.2,0c0,0,0,0-0.1,0c0,0,0.1,0,0.1,0
			c0,0,0,0,0,0c0,0,0,0,0.1,0c0,0,0,0,0,0c0,0,0,0,0,0c0,0,0,0,0,0c0,0,0,0,0,0c0,0,0,0,0,0.1c0,0,0,0,0,0c0,0,0,0,0,0
			c0,0.1,0.1,0.2,0.2,0.1c0.1,0,0.2-0.1,0.1-0.2c-0.1-0.2-0.2-0.3-0.4-0.4c-0.2,0-0.4,0-0.5,0.1c-0.1,0.1-0.1,0.2,0,0.3
			C9.7,84.7,9.8,84.7,9.9,84.6L9.9,84.6z"/>
	</g>
</g>
<g>
	<g>
		<path class="st13" d="M29.4,91.3c0.1,0,0.1,0,0.1,0c0,0,0,0,0,0c0.1,0,0.1,0.1,0.2,0.1c0,0,0,0,0,0c0,0,0.1,0.1,0.1,0.1
			c0,0,0.1,0.1,0.1,0.1c0,0,0.1,0,0.1-0.1c0,0,0.1-0.1,0.1-0.1c0,0,0,0,0-0.1c0,0,0-0.1,0-0.1c-0.1-0.2-0.3-0.3-0.5-0.3
			c-0.1,0-0.1,0-0.1,0c0,0-0.1,0.1-0.1,0.1c0,0,0,0.1,0,0.1C29.3,91.3,29.4,91.3,29.4,91.3L29.4,91.3z"/>
	</g>
</g>
<g>
	<g>
		<path class="st13" d="M39.6,80.2C39.6,80.2,39.6,80.2,39.6,80.2C39.6,80.2,39.6,80.2,39.6,80.2C39.6,80.2,39.6,80.2,39.6,80.2
			C39.6,80.2,39.6,80.2,39.6,80.2c0,0,0.1,0,0.1,0C39.7,80.2,39.7,80.2,39.6,80.2c0.1,0,0.1,0,0.2,0c0,0,0,0,0,0c0,0,0.1,0,0.1,0.1
			c0,0,0,0,0,0c0,0,0.1,0,0.1,0.1c0,0,0,0,0,0c0,0,0,0.1,0,0.1c0,0,0,0,0,0c0,0,0,0,0,0.1c0,0.1,0.1,0.2,0.2,0.1
			c0.1,0,0.2-0.1,0.1-0.2c0-0.2-0.2-0.3-0.3-0.4c-0.1,0-0.2-0.1-0.3-0.1c-0.1,0-0.2,0-0.3,0.1c0,0-0.1,0.1-0.1,0.1c0,0,0,0.1,0,0.1
			c0,0,0.1,0.1,0.1,0.1C39.5,80.3,39.5,80.2,39.6,80.2L39.6,80.2z"/>
	</g>
</g>
<g>
	<g>
		<path class="st13" d="M45.2,68.4C45.3,68.4,45.3,68.4,45.2,68.4C45.3,68.4,45.3,68.4,45.2,68.4C45.3,68.4,45.3,68.4,45.2,68.4
			C45.3,68.4,45.3,68.4,45.2,68.4c0.1,0,0.1,0,0.1,0C45.4,68.4,45.3,68.4,45.2,68.4c0.1,0,0.2,0,0.2,0c0,0,0,0,0,0
			c0,0,0.1,0,0.1,0.1c0,0,0,0,0,0c0,0,0.1,0,0.1,0.1c0,0,0,0,0,0c0,0,0,0,0,0.1c0,0,0,0,0,0c0,0,0,0.1,0,0.1c0,0,0,0,0-0.1
			c0,0,0,0,0,0c0,0.1,0,0.1,0.1,0.1c0,0,0.1,0.1,0.1,0.1c0.1,0,0.2-0.1,0.2-0.2c0,0,0-0.1,0-0.1c0-0.1-0.1-0.1-0.1-0.2
			c-0.1-0.1-0.1-0.1-0.2-0.2c-0.1,0-0.2-0.1-0.3-0.1c-0.1,0-0.2,0-0.3,0.1c0,0-0.1,0.1-0.1,0.1c0,0,0,0.1,0,0.1
			C45,68.4,45.2,68.5,45.2,68.4L45.2,68.4z"/>
	</g>
</g>
<g>
	<g>
		<path class="st13" d="M37.3,57.1c0.4-0.4,1.1-0.6,1.6-0.3c0.1,0,0.2,0,0.3-0.1c0-0.1,0-0.2-0.1-0.3c-0.7-0.3-1.6-0.2-2.1,0.4
			c-0.1,0.1-0.1,0.2,0,0.3C37.1,57.1,37.3,57.1,37.3,57.1L37.3,57.1z"/>
	</g>
</g>
<g>
	<g>
		<path class="st13" d="M43.3,56.2c0.5-0.3,1.2-0.2,1.6,0.3c0.1,0.2,0.5,0,0.3-0.2c-0.4-0.7-1.4-0.9-2.1-0.4
			C43,56,42.9,56.1,43,56.2C43.1,56.3,43.2,56.3,43.3,56.2L43.3,56.2z"/>
	</g>
</g>
<g>
	<g>
		<path class="st13" d="M45.7,58.4c0.2,0,0.5,0,0.7,0c0.1,0,0.2-0.1,0.2-0.2c0-0.1-0.1-0.2-0.2-0.2c-0.2,0-0.5,0-0.7,0
			c-0.1,0-0.2,0.1-0.2,0.2C45.5,58.3,45.6,58.4,45.7,58.4L45.7,58.4z"/>
	</g>
</g>
<g>
	<g>
		<path class="st13" d="M45.9,53.5c0.2,0.2,0.4,0.2,0.6,0.2c0.1,0,0.2-0.1,0.2-0.2c0-0.1-0.1-0.2-0.2-0.2c0,0-0.1,0-0.1,0
			c0,0,0,0,0.1,0c-0.1,0-0.1,0-0.2,0c0,0,0,0,0,0c-0.1,0-0.1-0.1-0.2-0.1c0,0,0,0,0,0c0,0,0,0-0.1,0c0,0-0.1-0.1-0.1-0.1
			c0,0-0.1,0-0.1,0.1c0,0-0.1,0.1-0.1,0.1C45.8,53.4,45.8,53.4,45.9,53.5L45.9,53.5z"/>
	</g>
</g>
<g>
	<g>
		<path class="st13" d="M45.6,54.9C45.6,54.9,45.6,54.8,45.6,54.9C45.6,54.8,45.6,54.8,45.6,54.9C45.6,54.8,45.6,54.8,45.6,54.9
			c0.1-0.1,0.1-0.1,0.1-0.1c0,0,0,0,0,0c0,0,0,0,0.1,0c0,0,0,0,0.1,0c0,0,0,0,0,0c0,0,0,0,0,0c0,0,0,0,0.1,0c0,0,0,0,0,0
			c0,0,0,0,0,0c0,0,0,0,0,0c0,0,0.1,0,0.1,0c0,0,0,0,0.1,0c0,0,0,0,0,0c0,0,0,0,0,0c0,0,0,0,0,0c0,0,0,0,0.1,0c0,0,0,0,0.1,0
			c0,0,0,0,0,0c0,0,0,0,0,0c0,0,0,0,0.1,0c0,0,0,0,0,0c0,0,0,0,0,0c0.1,0.1,0.2,0.1,0.3,0c0.1-0.1,0.1-0.2,0-0.3
			c-0.4-0.4-1.1-0.3-1.4,0.2c-0.1,0.1,0,0.2,0.1,0.3C45.4,55,45.5,55,45.6,54.9L45.6,54.9z"/>
	</g>
</g>
<g>
	<g>
		<path class="st13" d="M45.3,57.2c0.3,0.4,1,0.3,1.2-0.1c0-0.1,0-0.2-0.1-0.3c-0.1,0-0.2,0-0.3,0.1c0,0,0,0,0,0.1c0,0,0,0,0,0
			c0,0,0,0,0,0c0,0,0,0,0,0c0,0,0,0,0,0c0,0,0,0,0,0c0,0,0,0,0,0c0,0,0,0-0.1,0c0,0,0,0,0,0c0,0,0,0,0,0c0,0,0,0-0.1,0c0,0,0,0,0,0
			c0,0,0.1,0,0,0c0,0-0.1,0-0.1,0c0,0,0,0,0,0c0,0,0,0,0,0c0,0,0,0-0.1,0c0,0,0,0,0,0c0.1,0,0,0,0,0c0,0,0,0-0.1,0c0,0,0,0,0,0
			c0,0,0,0,0,0c0,0,0,0,0,0c-0.1-0.1-0.2-0.1-0.3,0C45.3,57,45.3,57.1,45.3,57.2L45.3,57.2z"/>
	</g>
</g>
<g>
	<g>
		<path class="st13" d="M46.8,52.7c0.3-0.3,0.6-0.7,1-0.8c0.4-0.1,0.8-0.1,1.1,0.2c0.2,0.2,0.4-0.1,0.3-0.3
			c-0.4-0.4-0.9-0.4-1.4-0.3c-0.5,0.2-0.9,0.5-1.3,1C46.4,52.7,46.7,52.9,46.8,52.7L46.8,52.7z"/>
	</g>
</g>
<g>
	<g>
		<path class="st13" d="M46.5,59.2c0.6,0.6,1.6,0.8,2.3,0.3c0.2-0.1,0-0.5-0.2-0.3c-0.6,0.3-1.4,0.2-1.8-0.3
			C46.6,58.7,46.3,59,46.5,59.2L46.5,59.2z"/>
	</g>
</g>
<g>
	<g>
		<path class="st13" d="M46.8,56c0.6-0.5,1.5-0.6,2.3-0.3c0.1,0,0.2,0,0.3-0.1c0-0.1,0-0.2-0.1-0.3c-0.9-0.4-1.9-0.3-2.7,0.3
			c-0.1,0.1-0.1,0.2-0.1,0.3C46.6,56,46.7,56,46.8,56L46.8,56z"/>
	</g>
</g>
<g>
	<g>
		<path class="st13" d="M125.2,47.2c0.2-0.2,0.5-0.3,0.8-0.4c0.1,0,0.3,0,0.4,0c0,0,0.1,0,0.1,0c0,0,0.1,0,0.1,0.1
			c0.1,0.2,0.4,0,0.3-0.2c-0.2-0.3-0.6-0.3-1-0.3c-0.4,0.1-0.7,0.2-1,0.5c-0.1,0.1-0.1,0.2,0,0.3C125,47.2,125.1,47.2,125.2,47.2
			L125.2,47.2z"/>
	</g>
</g>
<g>
	<g>
		<path class="st13" d="M131,46.2c0.4-0.4,0.9-0.6,1.5-0.6c0.1,0,0.2-0.1,0.2-0.2c0-0.1-0.1-0.2-0.2-0.2c-0.6,0-1.3,0.2-1.7,0.7
			C130.6,46.1,130.9,46.3,131,46.2L131,46.2z"/>
	</g>
</g>
<g>
	<g>
		<path class="st13" d="M123.7,46.8C123.7,46.9,123.7,46.8,123.7,46.8C123.7,46.8,123.7,46.8,123.7,46.8c0-0.1,0-0.1,0.1-0.1
			c0,0,0,0,0,0c0,0,0,0,0,0c0,0,0,0,0.1-0.1c0,0,0,0,0.1-0.1c0,0,0,0,0,0c0,0,0,0,0,0c0,0,0.1-0.1,0.1-0.1c0,0,0,0,0,0c0,0,0,0,0,0
			c0,0,0,0,0.1,0c0,0,0.1,0,0.1,0c0,0,0,0,0,0c0,0,0,0,0,0c0.1,0,0.1,0,0.2,0c0,0,0,0,0,0c0,0,0,0,0,0c0,0,0.1,0,0.1,0
			c0.1,0,0.2,0,0.2-0.1c0-0.1,0-0.2-0.1-0.2c-0.3-0.1-0.6,0-0.8,0.1c-0.3,0.1-0.4,0.3-0.5,0.6c0,0.1,0,0.2,0.1,0.2
			C123.6,47,123.7,46.9,123.7,46.8L123.7,46.8z"/>
	</g>
</g>
<g>
	<g>
		<path class="st13" d="M123.7,48.7c0.4,0.2,0.9,0.2,1.3-0.1c0.1-0.1,0.1-0.2,0-0.3c-0.1-0.1-0.2-0.1-0.3,0c0,0,0,0,0,0c0,0,0,0,0,0
			c0,0,0,0-0.1,0c0,0,0,0-0.1,0c0,0-0.1,0,0,0c0,0-0.1,0-0.1,0c0,0,0,0-0.1,0c0,0,0,0,0,0c0,0,0,0,0,0c0,0-0.1,0-0.1,0
			c0,0,0,0-0.1,0c0,0,0,0,0,0c0,0-0.1,0-0.1,0c0,0,0,0,0,0c0,0,0,0,0,0c0,0,0,0-0.1,0c-0.1-0.1-0.2,0-0.3,0.1
			C123.6,48.6,123.6,48.7,123.7,48.7L123.7,48.7z"/>
	</g>
</g>
<g>
	<g>
		<path class="st13" d="M123.2,45.2c-0.7-0.6-1.9-0.6-2.6,0.1c-0.2,0.2,0.1,0.4,0.3,0.3c0.5-0.6,1.5-0.6,2-0.1
			C123.1,45.6,123.4,45.3,123.2,45.2L123.2,45.2z"/>
	</g>
</g>
<g>
	<g>
		<path class="st13" d="M123.9,49.9c-0.2,0.8-1.2,1.4-2.1,1.2c-0.2-0.1-0.3,0.3-0.1,0.4c1,0.3,2.2-0.4,2.5-1.4
			C124.4,49.8,124,49.7,123.9,49.9L123.9,49.9z"/>
	</g>
</g>
<g>
	<g>
		<path class="st13" d="M123.5,47.7c-0.8,0-1.5,0.2-2.1,0.6c-0.2,0.1,0,0.4,0.2,0.3c0.6-0.3,1.3-0.5,2-0.5
			C123.7,48,123.7,47.6,123.5,47.7L123.5,47.7z"/>
	</g>
</g>
<g>
	<g>
		<path class="st13" d="M75.9,129.9c7.4,0.5,14.8,0,22-1.2c0.2,0,0.1-0.4-0.1-0.4c-7.2,1.3-14.6,1.7-21.9,1.2
			C75.7,129.5,75.7,129.8,75.9,129.9L75.9,129.9z"/>
	</g>
</g>
</svg>
