<?xml version="1.0" encoding="utf-8"?>
<!-- Generator: Adobe Illustrator 24.0.1, SVG Export Plug-In . SVG Version: 6.00 Build 0)  -->
<svg version="1.1" id="Layer_1" xmlns="http://www.w3.org/2000/svg" xmlns:xlink="http://www.w3.org/1999/xlink" x="0px" y="0px"
	 viewBox="0 0 141.7 141.7" style="enable-background:new 0 0 141.7 141.7;" xml:space="preserve">
<style type="text/css">
	.st0{fill:#75CEEB;}
	.st1{fill:#806C5C;}
	.st2{fill:#090909;}
	.st3{fill:#FFFFFF;}
	.st4{fill:#C9B09D;}
	.st5{fill:#EE6459;}
	.st6{opacity:0.75;fill:url(#SVGID_1_);enable-background:new    ;}
	.st7{fill:#F3E9E0;}
	.st8{fill:#996536;}
	.st9{fill:#864D94;}
	.st10{opacity:0.4;fill:url(#SVGID_2_);enable-background:new    ;}
	.st11{fill:#010101;}
	.st12{opacity:0.6;fill:#F8F7F7;enable-background:new    ;}
	.st13{fill:#DB9A52;}
	.st14{fill:none;stroke:#090909;stroke-width:0.5478;stroke-miterlimit:10;}
</style>
<g id="Layer_7">
</g>
<g id="Layer_7_2_">
</g>
<g id="Layer_7_3_">
</g>
<g id="Layer_8">
</g>
<g id="Layer_7_1_">
</g>
<g id="Layer_10">
</g>
<path class="st0" d="M37.4,92.7c-0.7-0.8-1.6-1.9-2.3-3.4c-0.7-1.4-1-2.6-1.1-3.5l0.7-3.3l1.2-2.2l-0.2-1.1l-0.4-1.8L35.1,76l1.3-1
	l1-0.1l0.7,0.4l0.7,0.9l1.8-2.5l1.5-4.1l0.1-4.6l-1-4.9l-1-3.3l-1.6-5.3c0,0-1-2.4-0.8-2.6c0.2-0.3,0-3.3,0-3.3v-2.2l0.3-5l0.3-1.8
	h-1.3l-3.8-1.3c0,0-7.3-3.5-2-12.1c0,0,8.3-8.1,15.1-1.6l2.7-4.5c0,0,10.8-9.5,20.8-9.5s24.7-1.9,36.2,11l1-0.2l5.5-1.3
	c0,0,11.1-1.9,9.3,11.5l-1.6,3.3l-1.8,1.6l-1.6,1.2h-1.4l0.4,2.7l0.8,6.8L116,49l-1.1,4.6l-1.4,3.9l-1.8,4.7l-1.8,3.1l-3.1,7.4
	l-1.5,6.6l-0.4,6l-0.4,5.5c0,0-1,3.2-1,3.4c-0.1,0.1-1.4,3-1.5,3.2c-0.1,0.1-1.9,2.5-1.9,2.5l-1.6,1.8l-2.8,2.3l-2.5,1.4l-2.3,1
	l-2.1,1c-9.3-2.7-18.5-5.4-27.8-8.1C53,97.2,45.2,94.9,37.4,92.7z"/>
<ellipse class="st1" cx="66.1" cy="74.5" rx="1.2" ry="1"/>
<path class="st2" d="M66.5,47.4l-1,2.3c-0.6,0.9-1.2,1.8-1.8,2.6c-0.6,0.9-1.2,1.9-1.8,2.8c-0.5,0.9-0.9,1.8-1.4,2.6
	c-0.3,1-0.6,1.9-0.9,2.9c0,0.5,0,1-0.1,1.5c0.2,1.5,0.3,1.8,0.4,1.8c0.1,0,0-0.6,0.1-1.2c0.1-1,0.5-1.7,0.9-2.2
	c0.6-0.2,1.3-0.5,1.9-0.7l1.4,0.4l0.8,0.9l0.1,0.7l0.5-0.3l2.5,0.3l1.6,1l0.7,0.9l0.2,1.3c0,0.1,0,0.2-0.1,0.3
	c0.5-0.2,1.1-0.4,1.6-0.6c0.9-0.4,1.8-0.8,2.7-1.2l2.3-1.4l2.4-1.8l1.3-1.2l1.9-1.9l1.4-1.9l1.4-2.5l-0.8,0.4
	c-0.3,0.1-0.5,0.1-0.9,0.1c-0.3,0-0.5,0-0.9,0l-1.2-0.7l-1.2-0.2c0.1,1,0.1,1.8,0,2.3c0,0.2,0,0.2-0.8,2.5c-0.2,0.9-0.3,1.1-0.5,1.4
	c-0.4,0.7-1.1,0.9-1.5,1c-0.2,0.1-0.8,0.2-1.4,0.1c-0.5-0.1-0.9-0.3-1.1-0.5c-0.2-0.2-0.5-0.7-0.8-1.2c-0.2-0.7,0-1.1-0.2-1.2
	c-0.2-0.1-0.4,0.8-1.2,1.2c-0.8,0.4-2.1,0.2-2.9-0.6c-0.6-0.6-0.7-1.3-0.7-1.6c0-0.7,0.1-1.5,0.2-2.3c0.1-0.4,0.1-0.8,0.2-1.1
	c0.2-0.3,0.4-0.7,0.6-1.2c0.2-0.5,0.3-0.9,0.4-1.2c-0.5,0-1.6-0.1-2.8-1C67.1,48.5,66.7,47.7,66.5,47.4z"/>
<circle class="st3" cx="60.2" cy="31.9" r="12.4"/>
<circle class="st3" cx="91.9" cy="30.2" r="12.4"/>
<path class="st3" d="M71,50c-0.5,1.3-0.9,2.6-1.4,3.9c-0.1,0.8-0.1,1.6-0.2,2.4c0.2,0.5,0.4,1,0.7,1.4l1.4,0.8l1.3-0.2l1.7-1.5
	l0.3,1.6l0.5,0.8l1.4,0.6l1.9-0.4l1.1-1.5l0.9-3v-2.3l-1.9-1.3l-1.8-0.7l-1.2-0.3L74,50.4l-1.5-0.1L71,50z"/>
<path class="st4" d="M73,41.6l-2,0.8l-1.9,0.9l-1.9,1.1l-0.5,0.5l-0.5,1v1l0.5,1l1.3,1.3l1.9,1c0,0,1.4,0.1,1.6,0.1
	c0.1,0,2.8,0.1,2.8,0.1l2,0.1l1.9,0.4l1.5,1.1l2.1,1.1c0.5,0.1,1.1,0.3,1.6,0.5c0.2,0,0.7,0,1.2-0.2c0.3-0.2,0.5-0.4,0.7-0.5
	c0.2-0.3,0.5-0.8,0.8-1.1l0.3-1.3l-0.2-1.8l-1.1-1.6l-0.9-1.2l-2-1.5l-2.8,0.5l-3.7-1.1L73,41.6z"/>
<polygon class="st5" points="60,62.1 61.1,60.3 62.6,59.9 64.1,60.3 64.8,61.8 65.3,61.5 67,61.8 68.7,62.2 69.9,63.2 70.2,64.3 
	70.1,65.8 69.4,65.9 67,66.9 65.5,67.1 64.1,67.1 62.6,66.7 61.4,66.3 60.7,65.4 60,63.7 "/>
<path class="st4" d="M37.9,49.2l1.1,4.4v0.9l-0.9,0.3h-2l-1.8-0.3l-2-0.9l-1.5-1l-1.1-1.1L29,50.4v-1.1l0.3-0.5l1.1-1l0.2-0.9
	l0.8-0.8l0.9-0.2l1.4,0.2l1.5,0.8l1.3,0.9L37.9,49.2z"/>
<path class="st4" d="M45.6,94.6l1-1.2l1.6-0.8l1.4,0.1l1.3,0.7l0.7,1.2c0,0,0.8,1.3,0.8,1.4s0.3,1,0.3,1L51,96.7l-2.5-0.9l-2.2-0.7
	L45.6,94.6z"/>
<polygon class="st4" points="71,102.2 71,100.9 72.3,100.2 73.5,100 75.9,100.6 77.7,101.3 79.2,102.2 80,103.3 80,104.5 
	79.5,104.7 "/>
<path class="st4" d="M106.7,73.8c0.2-0.3,2.3-5.8,2.3-5.8l0.3,0.3l1.9,0.9l1.3,1l1.2,1.4l0.9,1.8c0,0,0.3,1.2,0.3,1.4
	s-0.1,1.4-0.1,1.4s-0.1,0.7-0.3,1c-0.1,0.3-0.5,1.1-0.8,1.2l-0.7,0.3c-0.1,0.1-0.2,0.2-0.5,0.3c-0.3,0.1-0.5,0-0.5,0
	c-0.1,0-0.2,0.1-0.4,0c-0.3,0-0.6-0.2-0.6-0.3c-0.3-0.2-0.6-0.4-0.9-0.6c-0.3-0.2-0.7-0.4-1-0.5c-0.1-0.2-0.3-0.5-0.6-0.8
	c-0.4-0.7-0.8-1.2-1.1-1.8c-0.1-0.3-0.3-0.7-0.4-1.3C107,73.7,106.8,73.7,106.7,73.8z"/>
<linearGradient id="SVGID_1_" gradientUnits="userSpaceOnUse" x1="11.1765" y1="35.496" x2="134.9744" y2="35.496" gradientTransform="matrix(1 0 0 -1 0 141.7323)">
	<stop  offset="0" style="stop-color:#EEF4D3"/>
	<stop  offset="0.2284" style="stop-color:#DCC5A3"/>
	<stop  offset="0.4118" style="stop-color:#CD9B80"/>
	<stop  offset="0.4692" style="stop-color:#AD7D6F"/>
	<stop  offset="0.5525" style="stop-color:#845859"/>
	<stop  offset="0.6376" style="stop-color:#623846"/>
	<stop  offset="0.7238" style="stop-color:#462039"/>
	<stop  offset="0.8114" style="stop-color:#31142E"/>
	<stop  offset="0.9013" style="stop-color:#281028"/>
	<stop  offset="0.997" style="stop-color:#240F26"/>
</linearGradient>
<path class="st6" d="M11.2,83.5L15,88l6.9,6.8l6.4,4.3l6.4,2.5l6.5,1.8l6.7,1.8l7,1.9l6.6,2c0,0,7.8,2.4,7.9,2.5
	c0.1,0,10.7,3.8,10.7,3.8l8.3,2.8l4.5,1.8l8.9,3.5l8,3.1l8.1,2.3c0,0,13,3.5,16.4-4.4l0.7-2.3c0-0.8-0.1-1.6-0.1-2.4
	c-0.3,0-0.7,0-1,0c-0.8-0.8-1.6-1.6-2.5-2.4c-1.1-0.3-2.1-0.6-3.2-0.9c-1,0-2,0-3,0c-1.6,0.2-3.2,0.3-4.7,0.5
	c-2.2,0.2-4.4,0.4-6.6,0.5l-9.6-1.8l-10.8-3.1l-10.2-3.2l-11.3-3.3l-12.4-3.9l-7.6-2.5l-18-6.6l-9.4-3.5L20,87.5l-6.7-3.4L11,82.8
	L11.2,83.5z"/>
<polygon class="st7" points="21.8,87.7 45.6,95.2 60.7,99.3 76.7,103.8 85.9,106.6 97.1,110.3 108.4,113.9 115,114.6 123.9,114.6 
	129.3,115.5 132.6,116.8 134.2,118.3 134.7,119.8 134.1,119.8 132.4,118.2 130.2,117 128,116.5 125,116.5 121.3,117.1 117.1,117.3 
	111.5,117.1 101.8,114.9 92.6,112.4 83.9,109.9 73.8,106.7 63.1,103.2 53.3,100 43,96.4 35.5,93.8 25.9,90 22.6,88.8 "/>
<path class="st8" d="M37.6,43.3l1.1,2.8l2,4.1l1.2,2.5l1.6,3c0,0,1.4,2.8,1.8,3.1c0.3,0.1,2.3,3.6,2.3,3.6l-1.4-3.6
	c0,0-6.1-14.9-6-17.6l-2-3.4l-0.5,1.9L37.6,43.3L37.6,43.3z"/>
<path class="st8" d="M112.3,39.8l-0.7,3l-1,3.7l-1.4,4.3l-1.3,2.8l-1.4,2.7l-2.1,3l2.4-2.2l2.6-2.8l1.9-2.3l2.3-3.2
	c0,0,1.8-2.6,1.9-2.7c0.1,0,1.3-2,1.3-2l-0.7-5.7l-0.3-2.1l-1.9,1.4L112.3,39.8z"/>
<polygon class="st9" points="38.1,37.3 40.7,41.6 46.2,45.9 51.6,47.2 48.2,45.3 46,42.7 44.8,39.9 44,36.5 43.9,33 44.2,29.8 
	45.5,27.3 47.2,24.1 49.6,21.5 52.8,19.4 49,20 46.6,21 44.2,23.4 41.4,27.7 39.7,31.3 "/>
<polygon class="st9" points="101.5,18.6 104,21.5 106.7,25.7 107.9,30.2 108.1,33.6 107.9,36.5 107.4,38.9 106.7,41.5 105.5,43.8 
	103.7,45.9 107.4,44.1 109.7,42.5 112.7,39.5 115.7,36.5 114.2,31.5 110.9,25.7 108.9,22.5 105.5,18.9 "/>
<linearGradient id="SVGID_2_" gradientUnits="userSpaceOnUse" x1="76.1342" y1="93.9981" x2="76.1342" y2="126.005" gradientTransform="matrix(1 0 0 -1 0 141.7323)">
	<stop  offset="0" style="stop-color:#EEF4D3"/>
	<stop  offset="0.2284" style="stop-color:#DCC5A3"/>
	<stop  offset="0.4118" style="stop-color:#CD9B80"/>
	<stop  offset="0.4692" style="stop-color:#AD7D6F"/>
	<stop  offset="0.5525" style="stop-color:#845859"/>
	<stop  offset="0.6376" style="stop-color:#623846"/>
	<stop  offset="0.7238" style="stop-color:#462039"/>
	<stop  offset="0.8114" style="stop-color:#31142E"/>
	<stop  offset="0.9013" style="stop-color:#281028"/>
	<stop  offset="0.997" style="stop-color:#240F26"/>
</linearGradient>
<path class="st10" d="M53.9,18.9c-1.4,0.5-3.9,1.8-6,4.2c-4.3,4.9-3.8,11-3.7,12.6c0.1,2.3,0.4,5.9,3.3,8.9c2.1,2.1,4.4,2.7,5.7,3.1
	c1.5,0.1,3.5,0.2,5.9-0.2c2-0.3,3.5-1,4.7-1.5c2.5-1.2,5-2.3,7.7-3.5l4.4-0.3l7.9,2.3L91,47l8.2,0.3c0.7-0.1,1.6-0.4,2.8-0.8
	s1.6-0.4,2.1-0.8c0.9-0.5,1.3-1.4,1.5-2.1c1.1-2.1,2.3-5.4,2.5-9.5c0.1-1.9,0.1-4.9-1.3-8.4c-1.6-3.8-4.2-6.1-5.5-7.2
	c-6.1-1.5-14.4-3-24.3-2.8C67.6,15.9,59.7,17.4,53.9,18.9z"/>
<path class="st11" d="M66.2,74.5c-2.8-0.2-5.7-0.3-8.5-0.4c-1.6,0-4.3-0.5-5.5,1c-0.1,0.1-0.1,0.2,0,0.3c1.2,1.5,3.3,1.6,5.1,1.4
	c2.6-0.3,5-1.2,7.2-2.5c0.2-0.1,0-0.4-0.2-0.3c-1.9,1.1-3.9,1.9-6,2.3c-1,0.1-1.9,0.3-2.8,0.2c-0.5,0-1.1-0.1-1.6-0.3
	c-0.2-0.1-0.4-0.2-0.7-0.3c-0.7-0.2-0.8-0.5-0.2-0.8c0.5-0.8,2.3-0.5,3.1-0.5c1.1,0,2.3,0,3.4,0c2.3,0.1,4.5,0.2,6.8,0.3
	C66.6,74.9,66.6,74.5,66.2,74.5L66.2,74.5z"/>
<path class="st11" d="M66.6,74.8L66.6,74.8c0.1,0.2,0.1,0.2,0.3,0.2H67c0.1,0,0.1-0.1,0.1-0.1v-0.1c0-0.1,0-0.2-0.1-0.2
	c-0.7-0.3-1.5,0.3-2.1,0.5c-1.1,0.4-2.1,1-3.1,1.5c-1.1,0.5-3.9,1.6-3.6,3.3c0,0.1,0.1,0.2,0.2,0.1c2.3-0.9,4.5-2,6.5-3.4
	c0.2-0.1,0-0.4-0.2-0.3c-1.1,0.8-2.2,1.4-3.3,2.1c-0.5,0.2-1,0.5-1.5,0.8c-2,0.9-0.8-0.3,0-0.8c0.7-0.4,7.1-3.7,7.1-3.5
	C66.9,74.5,66.5,74.6,66.6,74.8L66.6,74.8z"/>
<path class="st11" d="M65.9,74.7c0,1.6-1.5,2.7-2.7,3.7s-2.4,1.9-3.6,2.6c-2.3,1.5-4.7,2.7-7.3,3.8c-0.2,0.1-0.1,0.4,0.1,0.3
	c3.1-1.2,6-2.8,8.7-4.8c1.9-1.3,5.3-3.3,5.3-5.8C66.2,74.4,65.9,74.4,65.9,74.7L65.9,74.7z"/>
<path class="st11" d="M66,75.1c-1.5-0.3-2.8,0.1-4.2,0.8c-1.8,0.8-3.5,1.4-5.4,2.2c-3.6,1.5-7.3,3-11,4.5c-0.2,0.1-0.1,0.4,0.1,0.3
	c3.3-1.3,6.6-2.6,9.9-4.1c1.6-0.7,3.2-1.3,4.8-2c1.8-0.8,3.7-1.8,5.7-1.4C66.2,75.6,66.4,75.1,66,75.1L66,75.1z"/>
<path class="st11" d="M66.1,74.6c-0.2-0.3-0.5-0.5-0.8-0.8c0,0.1,0,0.2,0,0.3c0.3-0.3,1-0.7,1.4-0.3c0.3,0.2,0.3,0.7,0.2,1
	c-0.1,0.4-0.4,0.7-0.9,0.7c-0.7-0.1-1.1-0.7-1.2-1.2c0-0.2-0.4-0.2-0.3,0c0.1,0.8,0.5,1.4,1.4,1.6c0.7,0.1,1.2-0.2,1.4-0.8
	c0.2-0.4,0.1-1.1-0.2-1.4c-0.5-0.5-1.4-0.2-2,0.2c-0.1,0.1-0.1,0.2,0,0.3c0.2,0.3,0.5,0.5,0.8,0.8C66,75,66.2,74.7,66.1,74.6
	L66.1,74.6z"/>
<path class="st12" d="M63.5,19.4l14-0.5l11.2-0.8l3.6-0.2l4.4,0.8l4.8,3.6l2.4,4.4l0.3,3.6c0,0,0,8.2-6.8,11.2l-2.8,1l-3.3,0.3
	l-3-0.5l-3.1-1.4l-1.9-1.3l-1.2-0.7l-2-1L78,37.5l-2.4,0.1l-3.1,0.8l-2.2,0.5l-1.2,1.4l-3,2.4l-2.8,1l-3.2,0.5l-3.6-0.7L53.2,42
	l-2.6-2.2L49,37.2c0,0-4.8-9,3.7-15.9C52.9,21.5,58.5,17.5,63.5,19.4z"/>
<path class="st8" d="M47.2,21c0.1-0.3,15.9-3.8,15.9-3.8L77,15.8c0,0,12.8,0.7,13.1,0.8c0.3,0,11.5,2.2,11.5,2.2l3.9,0.3L99,14.9
	l-7.6-2.6L85,11.4l-8.5,0.4l-9.4,0.8l-7.4,1.1l-3.5,1.1l-3.5,1.5l-3.1,2L47.2,21z"/>
<path class="st9" d="M47.7,18.9c0,0,8.5-11.9,26.7-11.9c0,0,15.3-0.3,19.8,3l7.1,4.1l4.7,4.4l-0.5,0.7l-3.9-2.8l-5.9-2.7l-4.2-1.3
	l-5-0.8l-8.4,0.1L73.5,12l-6.2,0.5L63,13.1l-5.3,1.1l-4.6,2l-3.5,2.2L47.5,20L47.7,18.9z"/>
<path class="st13" d="M64.2,9.1c0,0,3.8,1.3,5.9,3.1l14.5-0.9c0,0,1.9-3.7,3.1-3.5l-9.4-0.9L71,7.2l-6,0.9l-2,0.7L64.2,9.1z"/>
<path class="st11" d="M64.9,73.9c-0.1,0.3-0.1,0.8,0.2,1.1c0.1,0.1,0.3,0,0.3-0.2s-0.1-0.3-0.1-0.5c-0.1,0-0.2,0-0.3,0.1
	c0.1,0.2,0.1,0.4,0.2,0.7c0.1,0.2,0.4,0.2,0.3-0.1c0-0.2,0-0.4-0.1-0.7c-0.1,0.1-0.2,0.1-0.3,0.1c0.1,0.1,0.1,0.3,0.2,0.5
	s0.4,0.1,0.3-0.1s-0.1-0.4-0.2-0.5c-0.1-0.2-0.4-0.1-0.3,0.1c0.1,0.1,0.1,0.3,0.1,0.5c0.1,0,0.2,0,0.3-0.1c-0.1-0.2-0.1-0.4-0.2-0.7
	c0-0.2-0.3-0.1-0.3,0.2c0,0.2,0,0.4,0.1,0.7c0.1-0.1,0.2-0.1,0.3-0.2c-0.1-0.1-0.2-0.3-0.1-0.5C65.4,73.9,65,73.7,64.9,73.9
	L64.9,73.9z"/>
<path class="st11" d="M65,74L65,74L65,74C65.1,74.1,65.1,74.1,65,74c0.1,0.1,0.1,0.1,0.1,0.2c0.1-0.1,0.5-0.2,0.8-0.3
	c0.3-0.1,0.5-0.1,0.9-0.1c0.2,0,0.2-0.3,0-0.3c-0.3,0-2.3,0.1-2,0.8c0,0.1,0.1,0.1,0.1,0.1l0,0C65.3,74.5,65.3,74,65,74L65,74z"/>
<path class="st11" d="M65.9,75.5c0.4-0.1,0.9-0.4,1.1-0.8c0.3-0.4,0.1-0.8-0.1-1.2c-0.1-0.2-0.4,0-0.3,0.2c0.1,0.3,0.2,0.7-0.1,1
	c-0.2,0.2-0.4,0.4-0.8,0.4C65.6,75.1,65.7,75.5,65.9,75.5L65.9,75.5z"/>
<path class="st11" d="M66.5,75.5c0.3-0.1,0.5-0.3,0.7-0.5c0.1-0.2-0.3-0.3-0.3-0.1c-0.1,0.2-0.2,0.3-0.4,0.3c-0.1,0-0.1,0.1-0.1,0.2
	C66.2,75.5,66.2,75.6,66.5,75.5L66.5,75.5z"/>
<path class="st11" d="M66,74.9c-0.2-0.3,0-0.8,0.4-0.7c0.1,0,0.2,0.2,0.1,0.3c-0.1,0.1-0.2,0.1-0.3,0.1c-0.2,0-0.2,0.3,0,0.3
	c0.3,0,0.7-0.1,0.8-0.4c0.1-0.3,0-0.7-0.3-0.8c-0.3-0.1-0.7,0-0.9,0.2c-0.2,0.3-0.2,0.7-0.1,1C65.9,75.2,66.2,75,66,74.9L66,74.9z"
	/>
<path class="st11" d="M64.2,74.5c-1.2-0.1-11.3-1-10.8,1.1c0.3,1.3,3.1,1.3,3.9,1.2c2.6-0.3,5.3-1.3,7.7-2.3
	c0.2-0.1,0.1-0.4-0.1-0.3c-1.5,0.7-3.2,1.2-4.8,1.6c-0.8,0.2-1.6,0.4-2.5,0.5c-0.8,0.1-2.8,0.3-3.3-0.4c0-0.3,0.1-0.7,0.1-1
	c0.3-0.1,0.8-0.1,1.1-0.1s0.8-0.1,1.2-0.1c0.8-0.1,1.5-0.1,2.3-0.1c1.8,0,3.5,0.1,5.1,0.2C64.4,74.8,64.4,74.5,64.2,74.5L64.2,74.5z
	"/>
<path class="st11" d="M54.7,74.4c-0.5,0.1-1,0.1-1.5,0.3c-0.3,0.1-0.7,0.1-0.8,0.4c-0.1,0.2,0,0.4,0.1,0.7c0.3,0.3,0.8,0.5,1.2,0.8
	c0.2,0.1,0.4-0.2,0.2-0.3c-0.2-0.1-0.4-0.2-0.8-0.4c0-0.2-0.1-0.2-0.2-0.3c-0.1,0-0.1-0.1-0.1-0.2s0.1-0.2,0.1-0.2
	c0.2-0.1,0.5-0.1,0.8-0.2s0.7-0.1,1-0.1C55.2,74.7,55.1,74.3,54.7,74.4L54.7,74.4z"/>
<path class="st11" d="M53.4,74.8c-0.3,0-0.4,0.2-0.5,0.5c0,0.1,0.1,0.2,0.2,0.2c0.2,0,0.4,0,0.5-0.2C53.6,75.1,53.6,74.9,53.4,74.8
	c-0.3-0.2-0.7,0.4-0.5,0.8c0.1,0.2,0.2,0.3,0.4,0.3s0.3-0.2,0.3-0.3c0-0.2,0-0.4-0.2-0.5s-0.3,0.1-0.3,0.3c0,0.2,0,0.4,0.2,0.5
	s0.4-0.2,0.3-0.4c-0.1-0.1-0.2-0.1-0.3,0c-0.2,0.2,0,0.7,0.3,0.7c0.2,0,0.2-0.4,0-0.3c-0.1,0,0,0,0,0c-0.1,0-0.2,0-0.3,0
	c0.1,0.1,0.2-0.2,0.1-0.2c0-0.1,0-0.1-0.2,0c0,0,0,0,0,0.1s0,0.1,0,0.1l0,0c0-0.1,0-0.1,0-0.1l0.1-0.1c-0.1-0.1-0.1-0.1-0.1,0l0,0
	c-0.1,0-0.1,0-0.1,0c0.1,0.1,0.1,0.1,0.2,0.2c0-0.1,0.1-0.2,0.3-0.2C53.8,75.1,53.6,74.7,53.4,74.8L53.4,74.8z"/>
<path class="st11" d="M65.4,75.2c-0.5,1.1-1.5,1.6-2.5,2.2c-0.4,0.2-0.9,0.4-1.3,0.7c-0.1,0.1-2.1,0.8-2.1,0.7
	c0.1-0.1-0.1-0.3-0.3-0.2c-0.4,0.3-1,1.2,0,1.1c0.1,0,0.1-0.1,0.1-0.1c0-0.1,0-0.5,0-0.5c0.1-0.2-0.1-0.4-0.3-0.3
	c-0.2,0.3-0.3,0.7,0.3,0.3C59.2,79,59.1,79,59,78.9c0,0.1-0.1,0.1-0.1,0.2s0,0.1,0.1,0.2c0.7,0.8,2.4-0.5,3.1-0.9
	c1.3-0.7,2.8-1.3,3.5-2.7C65.8,75.2,65.5,75,65.4,75.2L65.4,75.2z"/>
<circle class="st8" cx="66.1" cy="74.5" r="0.7"/>
<path class="st2" d="M111.4,25.7c-4.5-8.2-13.3-12.9-22.2-14.4c-5.9-1-11.7,0-17.5,0.4c-5.5,0.5-11.1,0.8-16.2,2.8
	c-8,3.3-14.2,10.2-16.7,18.5c-1.4,4.8-2,10.1-1.3,15.1c0.8,5.8,3.7,11.1,4.3,16.9c0.3,3.2-0.3,6.2-2.1,9c-1.3,2.1-3.1,3.9-4.4,6
	c-1.1,1.9-1.9,3.9-1.6,6.1c0.3,2.6,1.8,4.8,3.5,6.7c0.3,0.3,0.9-0.2,0.5-0.5c-1.9-2-3.4-4.4-3.3-7.1c0.1-2.2,1.2-4.2,2.4-5.9
	c2.4-3.4,5.1-6.4,5.7-10.6c0.5-5-1.4-9.8-2.8-14.5c-1.5-5-2.1-10.3-1.2-15.6c1.4-9.1,6.1-17.2,14.2-21.8c4.6-2.5,9.6-3.4,14.8-3.9
	c5.4-0.5,10.8-1.3,16.3-1.3c10.5,0.1,21.8,4.8,27,14.4C110.9,26.5,111.6,26.2,111.4,25.7L111.4,25.7z"/>
<path class="st2" d="M63.1,13.5c0.5,0,0.5-0.8,0-0.8C62.5,12.7,62.5,13.5,63.1,13.5L63.1,13.5z"/>
<path class="st2" d="M37.4,36c-2.8-0.2-5.7-1.6-7-4.4s-0.9-5.9,0.9-8.2c1.6-2.1,4.1-3.5,6.6-3.9s6-0.3,7.8,1.8
	c0.3,0.3,0.9-0.1,0.5-0.5c-1.9-2.3-5.4-2.4-8-2.1c-3.1,0.4-6.1,2.3-7.8,4.9c-1.6,2.5-2,5.8-0.5,8.7c1.4,2.8,4.5,4.5,7.7,4.7
	C38,36.9,38,36.1,37.4,36L37.4,36z"/>
<path class="st2" d="M105.7,19.3c4.4-2.3,11.4-3.4,14.6,1.4c3.1,4.8,1.3,12.5-4.9,13.6c-0.5,0.1-0.3,0.9,0.2,0.8
	c6.6-1.1,8.7-9.1,5.6-14.4c-3.2-5.6-10.8-4.6-15.8-2.1C104.9,18.8,105.2,19.5,105.7,19.3L105.7,19.3z"/>
<path class="st2" d="M72.8,42c0.1,0,0.2,0,0.3,0c0-0.1,0-0.2,0-0.3c-0.2,0.1-0.9-0.1-1.1,0c-0.7,0.1-1.4,0.4-2.1,0.7
	c-1.2,0.5-2.5,1.2-3.3,2.3c-1.8,2.2,0.5,4.6,2.7,5.4c1.8,0.5,3.6,0.3,5.4,0.4c2.3,0.1,3.9,1,5.8,2.1c1.1,0.7,2.3,1.4,3.6,1.1
	c1.2-0.3,2.2-1.5,2.5-2.7c0.7-3.2-2.8-5.9-5-7.6c-0.2-0.1-0.4,0.2-0.2,0.3c1.4,1,2.7,2.1,3.7,3.5c1.3,1.8,1.9,4.5-0.4,5.8
	c-1.9,1-3.7-0.7-5.1-1.5c-1.2-0.8-2.5-1.2-3.8-1.3c-1.9-0.1-3.7,0.1-5.6-0.3c-1.9-0.4-4.8-2.5-3.4-4.7c0.9-1.4,2.8-2.3,4.4-2.7
	c0.5-0.1,0.9-0.2,1.4-0.2c0.2,0,0.7,0.1,0.9-0.1c0.1-0.1,0.1-0.3,0-0.3s-0.3,0-0.4-0.1C72.6,41.6,72.6,42,72.8,42L72.8,42z"/>
<path class="st2" d="M80.4,52.6c0.2,2-0.1,4.3-1.3,5.9c-0.9,1.1-2.7,1.6-3.7,0.4c-0.5-0.5-0.5-1.5-0.8-2.3c-0.1-0.2-0.4-0.1-0.3,0.1
	c0.1,0.9,0.1,2,0.9,2.6c0.8,0.7,2.1,0.8,3,0.3c2.4-1,2.8-4.9,2.6-7.1C80.7,52.3,80.4,52.2,80.4,52.6L80.4,52.6z"/>
<path class="st2" d="M108.6,68.1c0.5,0.7,1.8,0.8,2.5,1.2c2,1.2,3.7,3.6,3.6,6c-0.1,1.7-0.9,3-2.1,3.4c-1,0.3-2-0.3-2.5-0.6
	c-2.6-1.6-3.3-5.3-3.3-5.3c0,0,0,0.1,0.2,0.4c0,0,0.8,3.8,3.2,5.3c0.3,0.2,1.5,0.9,2.7,0.5c0.6-0.2,1.1-0.6,1.5-1.3
	c1.2-2,0.9-4.4-0.3-6.2c-0.7-1-1.5-1.9-2.5-2.5c-0.8-0.5-2-0.7-2.6-1.3C108.9,67.8,108.7,68,108.6,68.1z"/>
<path class="st2" d="M111.1,74.6c1.1,1,2.2,2.8,0.7,4.1c-0.2,0.1,0.1,0.4,0.3,0.3c1.6-1.3,0.7-3.4-0.7-4.6
	C111.2,74.2,110.8,74.4,111.1,74.6L111.1,74.6z"/>
<circle class="st14" cx="91.9" cy="30.2" r="12.6"/>
<circle class="st14" cx="60.2" cy="31.5" r="12.6"/>
<circle class="st2" cx="113.2" cy="25.2" r="2.6"/>
<ellipse class="st2" cx="38.6" cy="27.6" rx="2.6" ry="2.6"/>
<path class="st2" d="M83.4,43.6c0.4-1.6-1.6-3.7-4.6-4.5c-3-0.9-5.8-0.2-6.2,1.4c-0.4,1.6,1.6,3.7,4.6,4.5
	C80.2,45.9,83,45.2,83.4,43.6z"/>
<path class="st2" d="M97.5,27.5c-2.3,0-4.1,1.9-4.1,4.1c0,2.3,1.9,4.1,4.1,4.1c2.3,0,4.1-1.9,4.1-4.1
	C101.5,29.2,99.7,27.5,97.5,27.5z M99.1,34.2c-0.7,0-1.2-0.5-1.2-1.2s0.5-1.2,1.2-1.2s1.2,0.5,1.2,1.2
	C100.2,33.6,99.8,34.2,99.1,34.2z"/>
<path class="st2" d="M66.2,27.3c-2.3,0-4.1,1.9-4.1,4.1c0,2.3,1.9,4.2,4.1,4.2c2.3,0,4.1-1.9,4.1-4.2C70.3,29,68.5,27.3,66.2,27.3z
	 M67.9,33.9c-0.7,0-1.2-0.5-1.2-1.2c0-0.7,0.5-1.2,1.2-1.2s1.2,0.5,1.2,1.2C69.1,33.4,68.5,33.9,67.9,33.9z"/>
<path class="st2" d="M76.1,50.4c-0.1,1.4-0.7,3.1-1.2,4.5c-0.7,1.9-2.6,4.8-4.7,2.6c-1.8-1.9-0.1-5.6,1-7.3c0.1-0.2-0.2-0.4-0.3-0.2
	c-1.3,2.1-3.3,7.1,0,8.4c1.4,0.5,2.7-0.2,3.5-1.4c0.7-1,1-2.3,1.3-3.4c0.3-1.1,0.7-2.1,0.8-3.2C76.4,50.2,76.1,50.2,76.1,50.4
	L76.1,50.4z"/>
<path class="st2" d="M38.6,54.4c-2.1,0.7-4.4,0-6.2-1c-1.6-0.9-4.8-3.3-2.3-5.3c0.2-0.1,0-0.5-0.2-0.3c-2,1.5-0.9,3.5,0.8,4.9
	c2.2,1.8,5.3,2.8,8,2.1C39,54.6,39,54.3,38.6,54.4L38.6,54.4z"/>
<path class="st2" d="M32.4,49.4c-1.2-0.4-2.8-2-1.2-3.1c1-0.7,2.1-0.2,3.1,0.2c1.4,0.7,2.8,1.8,3.8,3c0.1,0.2,0.4-0.1,0.3-0.3
	c-1.4-1.6-4.3-4.2-6.7-3.6c-0.9,0.2-1.9,1-1.6,1.9c0.1,1.1,1.3,1.9,2.2,2.2C32.6,49.8,32.7,49.5,32.4,49.4L32.4,49.4z"/>
<path class="st2" d="M110.1,24.6c3.5,5.1,5.7,11.1,6,17.3c0.3,6.4-1.4,12.2-3.9,17.9c-2.4,5.5-5.3,10.8-6.6,16.8
	c-1.3,6.1-0.2,12.7-2.8,18.5c-2.5,5.6-7.6,9.9-13.5,11.4c-0.5,0.1-0.3,0.9,0.2,0.8c5-1.3,9.4-4.5,12.3-8.8
	c3.5-5.3,3.5-11.3,3.9-17.4c0.5-7.1,3.7-13.5,6.6-19.8c2.5-5.7,4.5-11.5,4.5-17.7c0-6.9-2.3-13.5-6.1-19.2
	C110.4,23.9,109.7,24.2,110.1,24.6L110.1,24.6z"/>
<path class="st2" d="M10.7,83.6C16.2,90.1,22,96.8,30,100.3c4.3,1.9,8.8,2.8,13.3,3.9c4.8,1.2,9.6,2.5,14.4,3.9
	c9.5,2.7,19,5.9,28.3,9.3c4.6,1.8,9.3,3.5,13.8,5.4c4.4,1.8,8.8,3.6,13.3,4.9c6.1,1.9,17.3,4.2,21.3-2.8c1.4-2.5,1.4-5.9-0.8-7.9
	c-3-2.6-8.2-2.5-11.9-2.6c-5.1-0.1-10.2,0.1-15.2-1.3c-4.7-1.3-9.3-3.2-13.9-4.7c-9.4-3.1-19-5.8-28.5-8.4c-10.7-3-21.5-5.8-32-9.2
	c-5.3-1.6-10.7-3.3-15.8-5.6c-1.2-0.5-2.3-1.2-3.5-1.9c-0.5-0.3-1.3-1-2-0.5c-0.5,0.4-0.3,1.2,0.3,1.3c0.1,0,0.3,0,0.4-0.2
	c0-0.1,0.1-0.1,0.1-0.1c0.2-0.4-0.4-0.9-0.7-0.4c0-0.1,5.3,2.6,5.9,3c2,0.9,3.9,1.5,5.9,2.3c4.3,1.5,8.7,2.8,13,4.2
	c8.5,2.6,17.2,4.9,25.7,7.3c8.8,2.4,17.6,4.8,26.3,7.7c4.4,1.4,8.7,2.8,12.9,4.4c4.1,1.4,8,2.6,12.4,3c4.5,0.3,9-0.1,13.4,0.4
	c2.2,0.2,4.8,0.5,6.6,2.1c1.6,1.4,1.9,3.6,1.3,5.6c-2.6,8.9-16.1,5.5-22.2,3.5c-8.4-2.6-16.4-6.5-24.7-9.5c-8.4-3.2-17.1-6-25.6-8.7
	c-4.8-1.4-9.8-2.8-14.7-4.1c-4.7-1.2-9.6-2.2-14.2-3.8c-9.1-3.3-15.3-10.3-21.5-17.5C10.9,82.6,10.4,83.1,10.7,83.6L10.7,83.6z"/>
<path class="st2" d="M46,94.7c1-1.8,3.2-2.4,4.8-1.1c1.1,0.9,0.9,2.3,1.8,3.3c0.3,0.3,0.9-0.2,0.5-0.5c-0.7-0.8-0.5-1.9-1.2-2.7
	c-0.5-0.8-1.4-1.3-2.4-1.4c-1.8-0.3-3.3,0.7-4.2,2.1C45,94.9,45.8,95.2,46,94.7L46,94.7z"/>
<path class="st2" d="M71.4,102.3c-0.9-4.3,9.5-0.1,8,2.1c-0.3,0.4,0.3,0.8,0.7,0.4c1.8-2.4-3.1-4.1-4.6-4.6
	c-1.9-0.7-5.5-0.7-4.8,2.4C70.8,103,71.6,102.7,71.4,102.3L71.4,102.3z"/>
<path class="st2" d="M10.9,83c6.5,4.6,14.2,7.2,21.7,10c8.1,3.1,16.3,5.9,24.5,8.7s16.4,5.4,24.8,7.9c8.2,2.5,16.4,5,24.8,6.9
	c4.6,1,9.2,1.5,13.8,1c4.3-0.5,10.2-2,13,2.5c0.3,0.4,1,0,0.7-0.4c-1.6-2.5-4.6-3.5-7.6-3.6c-2.2,0-4.4,0.4-6.5,0.8
	c-2.2,0.2-4.4,0.3-6.6,0.1c-4.6-0.3-9.1-1.6-13.5-2.8c-4.2-1.2-8.3-2.3-12.5-3.5c-17-4.9-33.7-10.5-50.3-16.5
	c-8.8-3.2-18.3-6-26.1-11.5C10.9,82.1,10.5,82.8,10.9,83L10.9,83z"/>
<path class="st2" d="M14.5,80.9c4.8,1.5,9.5,3.1,14.4,4.4c0.2,0.1,0.3-0.3,0.1-0.3c-4.8-1.4-9.5-2.8-14.4-4.4
	C14.4,80.5,14.3,80.9,14.5,80.9L14.5,80.9z"/>
<path class="st2" d="M6.4,78.3c1.2,0.4,2.3,0.8,3.5,1.2c0.2,0.1,0.3-0.3,0.1-0.3c-1.2-0.3-2.3-0.8-3.5-1.2
	C6.3,77.8,6.2,78.2,6.4,78.3L6.4,78.3z"/>
<path class="st2" d="M74.8,119.6c14.7,5.1,29,11.1,43.7,16.4c0.2,0.1,0.3-0.3,0.1-0.3c-14.6-5.4-29-11.3-43.7-16.4
	C74.7,119.1,74.6,119.5,74.8,119.6L74.8,119.6z"/>
<path class="st2" d="M58.6,113.6c3.8,1.4,7.7,2.8,11.6,4.3c0.2,0.1,0.3-0.3,0.1-0.3c-3.8-1.4-7.7-2.8-11.6-4.3
	C58.5,113.2,58.4,113.5,58.6,113.6L58.6,113.6z"/>
<path class="st2" d="M51.5,111.2c0.8,0.3,1.6,0.5,2.4,0.9c0.2,0.1,0.3-0.3,0.1-0.3c-0.8-0.3-1.6-0.5-2.4-0.9
	C51.3,110.7,51.2,111.1,51.5,111.2L51.5,111.2z"/>
<path class="st2" d="M65.7,120.8c3.5,1.2,6.9,2.5,10.4,3.7c0.2,0.1,0.3-0.3,0.1-0.3c-3.5-1.2-6.9-2.5-10.4-3.7
	C65.6,120.4,65.5,120.7,65.7,120.8L65.7,120.8z"/>
<path class="st2" d="M35.3,80.6c0.5-0.7,0.4-1.3,0.3-2.1c-0.1-0.5-0.3-1.2-0.3-1.8c0.1-1.9,3-2.5,3.2-0.3c0,0.2,0.4,0.2,0.3,0
	C38.7,75,37,74.1,35.7,75c-0.5,0.3-0.9,1-0.9,1.6c-0.1,1.2,1,2.6,0.1,3.7C34.9,80.5,35.1,80.8,35.3,80.6L35.3,80.6z"/>
<path class="st2" d="M66.2,47.6c-1.6,4.6-5.7,8.2-6.6,13.1c-0.5,3.3,1.2,6.2,4.6,6.4c3.9,0.1,8.2-2.3,11.5-4.3
	c3.9-2.4,7.4-5.6,9.5-9.6c0.1-0.2-0.2-0.4-0.3-0.2c-2,3.7-5,6.7-8.5,9c-3.2,2.1-7.1,4.3-11,4.7c-1.9,0.2-3.8-0.1-4.9-1.9
	c-1.3-2.1-0.7-4.7,0.2-6.8c1.5-3.6,4.3-6.6,5.7-10.4C66.7,47.5,66.4,47.4,66.2,47.6L66.2,47.6z"/>
<path class="st2" d="M60.4,61.3c0.7-1.1,2.3-1.6,3.4-0.9c1.2,0.8,1.3,2.6,0.3,3.7c-0.2,0.2,0.1,0.4,0.3,0.3c1.1-1.1,1.1-3.2-0.2-4.2
	c-1.3-1-3.3-0.4-4.1,0.9C60,61.3,60.3,61.5,60.4,61.3L60.4,61.3z"/>
<path class="st2" d="M65,61.6c0,0,2.6-0.4,4.1,1.2c0.8,0.8,1,2,1,2.8c0.5-0.2,0.7-0.4,0.7-0.4c0,0-0.1,0-0.2,0c0-0.1,0-0.3,0-0.6
	c0,0-0.1-0.8-0.7-1.6C68.7,61.5,65,61.6,65,61.6z"/>
<path class="st2" d="M37.9,37.3c2,5.8,7.6,9.6,13.5,10.5c3.9,0.5,7.9-0.1,11.6-1.4c1.8-0.5,3.4-1.3,5-2.2c2.2-1.1,4.4-2.8,7-2.2
	c0.5,0.1,0.7-0.7,0.2-0.8c-3.2-0.8-6.1,1.6-8.9,2.8c-3.6,1.8-7.7,3-11.7,3c-6.7,0.1-13.8-3.4-16-10.1C38.5,36.7,37.8,36.9,37.9,37.3
	L37.9,37.3z"/>
<path class="st2" d="M80.4,42.9c5.3,3.7,12.1,5.4,18.4,4.5c3.2-0.4,6.4-1.4,9-3.1c3.1-2,4.9-5.1,7.7-7.6c0.3-0.3-0.2-0.9-0.5-0.5
	c-2.5,2.3-4.3,5.3-7.2,7.2c-2.6,1.8-5.7,2.8-8.8,3.3c-6.4,0.9-13-0.7-18.3-4.4C80.4,41.9,80,42.6,80.4,42.9L80.4,42.9z"/>
<path class="st2" d="M46.7,21.7c2-1.3,4.2-1.8,6.5-2.2c2.4-0.5,4.7-1,7.1-1.4c5-1,10.1-1.8,15.2-1.9c10-0.2,19.9,1.6,29.7,3
	c0.5,0.1,0.8-0.7,0.2-0.8c-10.1-1.4-20.4-3.3-30.6-3c-5,0.2-10.1,1-15.1,1.9c-2.6,0.5-5.1,1-7.7,1.6c-2.1,0.4-3.9,1-5.7,2.1
	C45.9,21.3,46.3,22,46.7,21.7L46.7,21.7z"/>
<path class="st2" d="M55.3,18.3c-6.6,1.3-11,7.1-11.6,13.6C43,38,45.2,46.4,52.2,47.7c0.5,0.1,0.7-0.7,0.2-0.8
	c-6.8-1.2-8.8-9.4-8-15.3c0.8-6,4.8-11.5,11.1-12.7C55.9,18.9,55.7,18.2,55.3,18.3L55.3,18.3z"/>
<path class="st2" d="M100.2,18.4c4.4,3.1,6.9,8,7.4,13.1c0.3,4.3-0.2,12.5-5.3,14c-0.4,0.1-0.3,0.9,0.2,0.8
	c5.3-1.6,6.1-9.6,5.9-14.2c-0.3-5.7-3.1-11.1-7.8-14.5C100.2,17.4,99.9,18.1,100.2,18.4L100.2,18.4z"/>
<path class="st2" d="M37.6,38.4c-1.1,3.7,0.8,7.2,2.3,10.5c1.9,3.8,3.9,7.6,6.2,11.2c2,3.1,4.1,6.4,6.8,8.9c2.6,2.5,5.9,4.1,9.5,4.7
	C76,76.2,90.1,71,100.6,62.9c6.2-4.8,11.6-10.8,15.6-17.7c0.1-0.2-0.2-0.4-0.3-0.2c-6.6,11.5-17.2,20.8-29.5,25.6
	c-6.1,2.4-12.7,3.6-19.3,3.3c-3.7-0.2-7.7-0.9-10.8-2.8c-3.1-2-5.5-4.8-7.4-7.8c-2.5-3.6-4.7-7.4-6.8-11.3s-5.1-8.8-3.8-13.4
	C38.1,38.3,37.6,38.2,37.6,38.4L37.6,38.4z"/>
<path class="st2" d="M46.7,21.2c5.9-10,17.6-13.6,28.6-13.8c11.2-0.3,23.1,2.3,30.5,11.3c0.3,0.3,0.9-0.1,0.5-0.5
	C100.6,11.3,92.1,8,83.3,7c-9.2-1-19.4-0.1-27.6,4.5c-3.9,2.3-7.3,5.5-9.8,9.4C45.8,21.2,46.4,21.7,46.7,21.2L46.7,21.2z"/>
<path class="st2" d="M63.5,19.5c8.2,0,16.5-0.4,24.8-1.4c0.2,0,0.2-0.4,0-0.3c-8.2,1-16.5,1.4-24.8,1.4C63.2,19,63.2,19.5,63.5,19.5
	L63.5,19.5z"/>
<path class="st2" d="M70.1,39.6c3.7-2.2,9-3.2,12.6-0.2c0.2,0.1,0.4-0.1,0.3-0.3c-3.7-3.1-9.1-2.1-13,0.2
	C69.6,39.4,69.9,39.7,70.1,39.6L70.1,39.6z"/>
<path class="st2" d="M63.1,9.3c2.8-0.2,4.8,1.3,6.9,3.1c0.2,0.1,0.4-0.1,0.3-0.3c-2.1-1.8-4.3-3.4-7.1-3.2C62.7,9,62.7,9.3,63.1,9.3
	L63.1,9.3z"/>
<path class="st2" d="M84.6,11.4c0.5-1.5,1.5-2.7,3-3.5c0.2-0.1,0-0.4-0.2-0.3c-1.4,0.9-2.5,2.2-3.1,3.7
	C84.2,11.6,84.6,11.6,84.6,11.4L84.6,11.4z"/>
<path class="st2" d="M39.8,40.8c2.1,7.9,4.9,15.4,8.5,22.7c0.1,0.2,0.4,0,0.3-0.2c-3.6-7.2-6.5-14.8-8.4-22.6
	C40.1,40.5,39.7,40.6,39.8,40.8L39.8,40.8z"/>
<path class="st2" d="M112.4,38.8c-1.9,7.7-3.8,15.7-9.2,21.6c-0.1,0.2,0.1,0.4,0.3,0.3c5.5-6,7.4-14,9.3-21.8
	C112.7,38.7,112.4,38.5,112.4,38.8L112.4,38.8z"/>
<g id="Layer_2_1_">
</g>
</svg>
