<?xml version="1.0" encoding="utf-8"?>
<!-- Generator: Adobe Illustrator 24.0.1, SVG Export Plug-In . SVG Version: 6.00 Build 0)  -->
<svg version="1.1" id="Layer_1" xmlns="http://www.w3.org/2000/svg" xmlns:xlink="http://www.w3.org/1999/xlink" x="0px" y="0px"
	 viewBox="0 0 141.7 141.7" style="enable-background:new 0 0 141.7 141.7;" xml:space="preserve">
<style type="text/css">
	.st0{fill:#75CEEB;}
	.st1{fill:#FFFFFF;}
	.st2{fill:#C9B09D;}
	.st3{fill:url(#SVGID_1_);}
	.st4{fill:#09213D;}
	.st5{fill:#110F0F;}
	.st6{fill:#1C3461;}
	.st7{fill:#D8E147;}
	.st8{fill:#A12F33;}
	.st9{fill:#D7D3C9;}
	.st10{fill:#52555A;}
	.st11{fill:#43454A;}
	.st12{fill:#242B38;}
	.st13{fill:#393B40;}
	.st14{fill:#9FA1A4;}
	.st15{fill:#EBE69D;}
	.st16{fill:#864D94;}
	.st17{fill:#BB3A4F;}
	.st18{fill:#CAD0E3;}
	.st19{fill:none;}
	.st20{fill:#090909;}
	.st21{fill:none;stroke:#090909;stroke-width:0.5465;stroke-miterlimit:10;}
	.st22{fill:#C4D92D;}
	.st23{fill:#B13549;}
	.st24{fill:#B5374B;}
	.st25{opacity:0.72;}
</style>
<g id="Layer_7">
</g>
<g id="Layer_7_2_">
</g>
<g id="Layer_7_3_">
</g>
<g id="Layer_8">
</g>
<g id="Layer_7_1_">
</g>
<g id="Layer_10">
</g>
<path class="st0" d="M42.1,44.2l-1.2-3.9c0,0-2.8-13,7.4-20.3l11.5-1.4l16.9-0.9l17.4,0.4l5.8,10.1c0,0,3.6,9.2,1.1,13.9l-4.3,3.7
	l-7.2,5.1l-0.2,0.9l6.4-2l7.4-3.5l6.2-4.9l0.3,4.2l-7.9,4.3L93,54l-8.9,3.5L72.3,61l-9.5,1.6l-1.6,0.1l-1.9-0.3l-3-1.6L46,53.5
	L38.7,48l-4-3l0.7-3.6l2.8,2.8l3.5,3.1l6,3.1l4.8,1.3l-2.4-1.4l-3.5-2.1L43.9,46L42.1,44.2z"/>
<circle class="st1" cx="57.3" cy="30.5" r="11.5"/>
<circle class="st1" cx="86.2" cy="29.3" r="11.5"/>
<path class="st1" d="M67.4,48.9L67,51.1v1.7l0.7,2c0,0,2.6,3.3,4.4-1.2c0,0,1.5,4.4,4.6,0.8l0.5-1.5v-2l-0.8-2.4l-1.9-0.8l-1.9-0.3
	L71,47.7l-2.4,0.9L67.4,48.9z"/>
<polygon class="st2" points="66.9,40.7 65.7,41.6 63.9,43.1 62.7,44.5 62.2,46.1 62.5,47.3 64.4,48.5 66.5,48.9 68.5,48.6 71,47.7 
	73.3,47.5 75.8,48 78.1,48.6 79.7,48.5 80.7,47.7 81.3,46.2 81.2,44.6 80,43.1 78.6,42 77,41.1 75.7,40.3 "/>
<linearGradient id="SVGID_1_" gradientUnits="userSpaceOnUse" x1="31.3" y1="73.8823" x2="109.7827" y2="73.8823" gradientTransform="matrix(1 0 0 -1 0 141.7323)">
	<stop  offset="0.3857" style="stop-color:#0970B8"/>
	<stop  offset="0.498" style="stop-color:#0A82C5"/>
	<stop  offset="0.6585" style="stop-color:#0794D3"/>
	<stop  offset="0.8239" style="stop-color:#109FDA"/>
	<stop  offset="1" style="stop-color:#0BA3DD"/>
</linearGradient>
<path class="st3" d="M34.6,45.7l-2,5.6l-1.1,4.5l-0.2,3.6l1.4,4l3.4,3.9l0.4,2.2l1.2,4.7l1,4.5l1.1,3.4l1.9,2.6c0,0,6.2,4.2,8.4,2.7
	l4.2,0.4L65.1,90l10.1,0.7l11-0.8l10.4-2.2l7.7-2.7l4.7-2.1l0.8-1.3l-0.1-3.6l-1.1-9.3l0.3-3.4l0.9-12.5l0.1-7.3l-4.9,2.6l-10.9,5.5
	l-10.8,4.5L73,60.9l-8.3,1.5L61,63c0,0-4.2-0.9-7.9-4.3l-12.9-9.3L36,45.8L34.5,45C34.6,45.1,34.6,45.7,34.6,45.7z"/>
<path class="st4" d="M32.1,52.5c8.7,3.2,17.5,6.2,26.2,9.4c-7.9-5.6-15.7-11.3-23.6-16.8C33.7,47.6,32.9,50,32.1,52.5z"/>
<path class="st2" d="M39.3,66.6c0,0,2.4,4.8,7.5,4.8l-0.2,1.4l1.2,2.1c0,0,3.1,2.2,5.4,1.3l1.7-0.5l1.6-1l1.3-0.1l0.3-2.2l-1-2.6
	l-1,0.3l-3-0.1l-1.7-0.3H50L48.8,70l-0.5,0.1L49,69l0.1-1.1l-0.4-1.3l-2-1.5L44.1,64l-1.3-0.9L41,62.8c0,0-0.8,0.9-1,1.4
	C39.9,64.7,39.3,66.6,39.3,66.6z"/>
<path class="st0" d="M36.3,35c0,0-10.5-1-6.3-11.4c0,0,6.1-8.4,14.1-2.8l-0.3,0.8C43.9,21.6,36.8,31.9,36.3,35z"/>
<path class="st0" d="M98.3,18.8l3.9,4.2l2.4,3.9c0,0,3.1,6.1,3,6.2s7.9-1.5,5.5-11.1c0,0-1.1-4.4-7-4.9
	C106.2,17.1,100.6,17,98.3,18.8z"/>
<polygon class="st5" points="88.9,51.2 96.8,45.7 101.8,41.3 104.2,38.6 107.4,33.8 107.9,34.4 109,38.5 109.4,41.5 105.6,44.7 
	101.5,47.3 97.5,49.3 93,50.8 89.2,51.7 "/>
<path class="st5" d="M36.9,33.9l1.7,5c0,0,2.5,4.2,3,4.7c0.4,0.5,3.8,3.7,3.8,3.7l4.6,3l2.3,1h-1.7l-2.4-0.4c0,0-12.8-6.4-12.9-9.5
	L36.9,33.9z"/>
<path class="st5" d="M44.1,20.8c0.1,0.7,14.3-2.1,14.3-2.1l19.7-1l12.4,0.4l7.9,0.8l3.5-1.1l-3-1.7l-4.7-1.6l-4.9-0.9h-5.4l-2.6-0.4
	L80,11.7l-1.2-2.5l-2-1.3L75,7.6l-6.3,0.2l-3.2,0.5l-1.9,0.9L62.5,11L61,12l-1.7,0.8l-6.9,0.7l-4.3,0.9l-3.6,1.3l-2.7,1.6l-1.6,1.4
	C40.1,18.6,43.9,19.8,44.1,20.8z"/>
<path class="st6" d="M40.1,18.3l4.5-2.6l4.2-1.6l7-1.1l4.1-0.3l1.8-0.7l0.8-0.9l1.3-1.7L65,8.7c1.5-0.2,3.1-0.4,4.6-0.6
	c1.7,0,3.4,0,5.1-0.1c0.8,0.2,1.6,0.3,2.4,0.5c0.3,0.4,0.6,0.8,1,1.3c0.4,0.6,0.8,1.1,1.2,1.7c0.4,0.5,0.8,1,1.1,1.6
	c0.7,0.1,1.5,0.2,2.2,0.3l3.6,0.3H90l4.1,0.8l3.5,1c0.9,0.5,1.8,1,2.7,1.4c-0.2-0.7-0.4-1.4-0.6-2l-2.1-2l-2.9-2.5l-3.2-3.1l-2.1-1
	l-2.3-0.5l-5.2-0.1h-5.1l-7.3,0.3L64,6.2l-6.7,0.4l-3.7,0.5l-4.1,1.8l-3,2.1l-3.1,2.6l-1.7,1.8l-1.3,1.7L40.1,18.3z"/>
<polygon class="st6" points="44.6,20.7 42.5,23 40.4,26.2 38.9,28.9 37.7,31.5 36.9,33.9 37.8,37 39.3,40.7 40.9,42.8 42.5,44.5 
	40.9,40.3 40.4,36 40.7,31.8 42.1,27.1 44.6,24 47.6,20.1 "/>
<path class="st6" d="M94.6,18.6l2.3,3.6l2.8,5.2l1.3,4.8c0,0,0.9,3.4,0.9,3.5s-0.2,4-0.2,4l-0.5,2.2l3.2-3.4l3.2-4.9l0.3-0.5
	l-1.6-4.7l-2.1-3.3l-2-2.2l-3.4-4L94.6,18.6z"/>
<polygon class="st1" points="64.6,10.2 65.3,11.7 77.2,11.3 75.2,9.4 72.8,8.9 69.1,9.3 "/>
<circle class="st1" cx="49" cy="16.9" r="1.2"/>
<circle class="st1" cx="70.5" cy="15.2" r="1.4"/>
<circle class="st7" cx="93" cy="16.3" r="1.4"/>
<polygon class="st8" points="40.4,53.4 42.8,60 46.4,60.6 46.8,60.6 45.5,56.5 44,54.4 42.1,53.5 "/>
<path class="st9" d="M48.4,79.6c0,0,6,26.1,5.5,37.8l1.6,0.8l1.3-0.1l-0.4-9.9l-0.4-6l-0.9-8.7l-1.3-6.4l-2-8.1l-1.6,0.3h-1.6
	L48.4,79.6z"/>
<path class="st9" d="M47.8,127.9c0,0,3,3.6,1.7,7.9l-2.5,0.8l-2.5,0.3c0,0-6.6,0.5-11-7.3c0,0-0.2-3.1,3.3-1.3l3.5,0.1l5.2-0.1
	L47.8,127.9z"/>
<path class="st10" d="M41.1,123.5c0,0-5.1-16.3,12.1-13.9l0.4,6.8l0.5,6.7L41.1,123.5z"/>
<path class="st10" d="M56.8,111l0.2,12.1l1.7-0.1l2,0.4h1.6l1.4-1.2l1.3-0.5h0.8l-1.4-3.5C64.5,118.1,62.4,113.7,56.8,111z"/>
<path class="st11" d="M82.1,109l3.3,4.3l5.9,4.8l2.2,0.9l1.5-0.4l1-1l0.5-2.2l1.3-2.2l1.2-1.4c1.5-0.7,2.9-1.3,4.4-2
	c1.1,0.5,2.2,1.1,3.3,1.6c0.8,0.9,1.5,1.9,2.3,2.8c0.2,1.1,0.4,2.2,0.5,3.3l-0.7,0.9l-1.6,1.7l-3.8,1.5c0,0-10.7,2.5-17.3-4.9
	c0,0-2.3-2.3-2.6-2.5c-0.3-0.2-1-0.8-1-0.8l-0.2-0.9l-0.8-1.7L82.1,109z"/>
<path class="st12" d="M60,109.3c0.4-0.3,1.9-2.2,1.9-2.2l1.3,0.4l2.5,0.4l1.1-0.4l-0.1,1.4l0.5,2l-2.3-0.7l-1.6,0.7l-0.9,1.7
	l-0.1,2.1l0.4,0.9c-0.7-0.7-1.4-1.3-2.1-2.1c-0.4-0.3-0.9-0.5-1.4-0.9l1.1-0.5l0.3-1.3C60.8,110.4,60.5,109.9,60,109.3z"/>
<polygon class="st12" points="85.9,110.5 87.9,113.3 90.3,115.7 92.7,116.3 93.5,115.7 94.2,114.4 95.6,112.5 93.5,112.3 
	90.7,112.3 88.6,111.4 "/>
<polygon class="st13" points="53.1,107.6 51,107.4 48.1,106 46.3,104.1 45.5,101.7 46.4,99.3 48.1,98.3 51.9,98 52.6,103.3 "/>
<polygon class="st13" points="55.6,98.3 56.3,108.1 60,109.3 62,107.2 62,103.9 60.6,100.6 58,98.7 "/>
<polyline class="st12" points="59.4,99.4 61.2,101.7 62,103.9 62,107.2 64,108 66.9,107.6 67.8,105.8 68.5,103.5 67.5,100.7 
	65.8,98.7 63.9,97.8 62,97.6 60.4,98.3 58.9,99.3 "/>
<polygon class="st14" points="57.4,131.4 71.7,130.2 69.7,125.7 65,125.5 65.8,127.2 65.5,128.5 64,129.3 61.8,129.5 57.4,129.3 "/>
<path class="st5" d="M42.2,126.1c3.2,0,5.1-0.1,6.3-0.1c1,0,1.9,0.1,2.8-0.1c0.5-0.1,1.3-0.3,2.2,0c0.2,0.1,0.3,0.2,0.4,0.2
	c0.1-1,0.1-2.1,0.2-3.1c-3.3,0-6.6-0.1-9.8-0.1l-3.3,0.5c-0.5,0.2-1,0.8-1.1,1.2C40,125.4,40.9,126.3,42.2,126.1z"/>
<path class="st5" d="M57,123.1l0.2,2.7l12.5-0.1c0.9-0.2,1.8-0.4,2.6-0.6c0.4-0.5,0.7-1,1.1-1.6c-0.2-0.6-0.4-1.1-0.6-1.7l-2.4-2
	l-0.2-3.3l-1.1-3.1l-1.6-2.5l-2.3-1l-1.7,1c-0.5,1.4-1,2.7-1.4,4.1c0.5,0.4,0.9,0.9,1.4,1.3c0.5,0.9,1,1.7,1.5,2.6l0.9,2.6l-1.5,0.3
	l-1.4,1l-1.2,0.5h-1l-2.7-0.4L57,123.1z"/>
<path class="st14" d="M81.6,116.8l3.3,2.7l5.5,3.2l3.3,1.7l3.9,1.2l5.1,1.6l2,0.5l1.2-0.4l-0.5-1.2l-0.9-0.9l-1.4-1.2l4-1l2.4,2.1
	l1.9,2.3v1.4c-0.1,0.3-0.3,0.8-0.8,1.2c-0.6,0.6-1.2,0.8-1.5,0.9c-1.5,0.1-3,0.2-4.4,0.4c-1.1-0.3-2.2-0.5-3.3-0.8
	c-1.7-0.6-3.4-1.2-5-1.8c-3.3-1.9-6.5-3.8-9.8-5.7c-1.2-0.9-2.5-1.8-3.7-2.8c-0.4-0.6-0.8-1.2-1.3-1.8V116.8z"/>
<polygon class="st5" points="80.7,113.1 80.7,114.3 82.3,116.8 84.7,119.6 88.9,121.9 93.3,123.5 97.7,124.2 103.1,124.4 107,123.4 
	108.3,122.1 109.4,119.9 109.3,117.9 107.3,119.9 104.9,121.1 99.9,121.9 95.6,121.6 91.5,120.7 87.7,118.1 85.3,115.7 82.6,113.2 
	81.6,112.7 "/>
<polygon class="st1" points="56.4,110.5 59.7,112.8 61.1,111.6 61.1,110 59.7,109.2 56.3,108.1 "/>
<polygon class="st1" points="53.1,109.6 53.1,107.6 50.5,107.2 49.2,107.6 48.3,109 48.4,109.6 "/>
<polygon class="st1" points="82.1,109 85,112.7 88.5,116.1 92,118.6 94.6,118.6 96.1,117.1 96.9,114.8 99.2,111.7 96.7,112.4 
	95.6,112.5 94.2,114.4 93.5,115.7 92,116.3 90.3,115.7 87.6,112.7 85.9,110.5 84.6,109.3 82.7,108.6 "/>
<polygon class="st4" points="41.7,84.9 42.8,91.5 44.6,97.6 45.9,99.9 48.1,98.3 51.9,98 50.1,87.5 46.8,87.1 "/>
<path class="st4" d="M54.2,88c0,0,18.8,5.2,35.2,1.4l9.2-2.3l8.7-3.2l0.3,3.7l0.4,6.9l-0.4,5.8l-1,3.7c-0.2,0.4-0.4,0.9-0.8,1.6
	c-0.6,1.1-0.6,1.1-0.9,1.7c-0.5,1-0.4,1.3-0.8,1.9c-0.4,0.5-0.9,0.9-1.2,1c-1.3,0.5-2.6,1-3.9,1.5l-3.6,0.9l-2.5-0.2l-2.7-0.3
	l-4.3-1.4l-2.3-1.7l-1.6,0.2l-1-1l-3.8-1.6l-4-1.5l-2.1-0.4l-1.7,0.2l-1,0.8l0.1-1.9l-1.1-3l-1.5-1.9l-2.7-1.1L61,98.1
	c-0.2,0.1-0.4,0.2-0.7,0.3c-0.7,0.4-0.7,0.9-1.1,1.1c-0.4,0.1-0.8-0.3-1.4-0.7c-0.5-0.2-1.2-0.5-2.3-0.4
	C55.1,94.9,54.7,91.4,54.2,88z"/>
<polygon class="st15" points="42.8,60 47.1,60.6 47.4,62 44.1,64 "/>
<polygon class="st16" points="48.2,70.1 48.4,69.3 48.9,69.3 49.1,70 "/>
<polygon class="st15" points="47.1,74.6 48,78.1 49.5,77.6 50.9,76.4 49.3,75.9 48.2,75.2 47.4,74.4 "/>
<polygon class="st17" points="47.8,127.4 49.1,129.8 50,132.7 50.1,135.5 52.8,134.4 51.9,132.1 50.3,128.5 49.2,127.1 "/>
<polygon class="st17" points="53.4,134.2 53.6,126 54,125.7 56.3,132.7 "/>
<polygon class="st17" points="54,124 57.2,128.2 57,123.1 54.1,123.1 "/>
<path class="st17" d="M54,121.8l2.8-2.5l-0.1-1.2c-0.3,0.1-0.9,0.1-1.5,0c-0.7-0.1-1.1-0.4-1.4-0.5C53.9,118.8,53.9,120.4,54,121.8z
	"/>
<polygon class="st15" points="49.2,127.6 53.1,134.4 53.8,126.2 52.8,126.5 "/>
<polygon class="st15" points="54,125.7 56.3,132.7 57.6,132.3 57.2,127.6 53.8,123.5 "/>
<polygon class="st15" points="54.1,123.1 54,121.8 56.9,119.3 57,123.1 "/>
<polygon class="st17" points="44.1,64 47.4,62 48,66.1 46.6,65.2 45.1,64.4 "/>
<polygon class="st17" points="48,78.1 49.9,77.5 51.2,76.3 51.7,78.8 49.9,79.4 48,79.4 "/>
<g id="Layer_5_1_">
	<path class="st4" d="M57.2,67.5l2.7-1.7c0,0,7.2-0.4,7.4,6.2l-1.4,1c-0.1-0.7-0.2-2.3-1.5-3.6c-1.2-1.3-2.8-1.6-3.7-1.9
		C59.2,67.1,58,67.4,57.2,67.5z"/>
	<path class="st4" d="M34.7,65.5c0,0,1.4-5.6,7.5-6v-1.2c0,0-7.5-1.2-9,5.8L34.7,65.5z"/>
	<path class="st4" d="M59.8,62.6c2.2,0,5.4-0.2,9-0.7c2.5-0.3,7.1-1.2,13.9-3.5c11.7-4,22.4-10.2,27.1-12.9
		c-0.1,4.3-0.1,8.4-0.2,12.7c-6.6,2.1-15.2,4.3-25.5,5C74.6,64.1,66.3,63.5,59.8,62.6z"/>
</g>
<g id="Layer_4">
	<path class="st18" d="M52.4,81.2c0,0,32.5,9.4,56.5-5.6l0.7,2.4c0,0-23.5,14.2-56.7,5L52.4,81.2z"/>
	<polygon class="st18" points="49.1,82.6 38.7,78.8 38.4,77.2 48.8,81 	"/>
	<path class="st18" d="M107.9,70.3c-21.5,13.3-49.7,7.3-55.5,5.9c-0.2,0.2-0.5,0.3-0.9,0.3l0,0l0.3,1.3c33.1,9.2,56.7-5,56.7-5
		L107.9,70.3z"/>
	<path class="st18" d="M47.2,74.8l-9.8-3.6c0.1,0.3,0.1,0.5,0.1,0.9c0.2,0.2,0.3,0.4,0.3,0.8l9.8,3.6L47.2,74.8z"/>
	<path class="st4" d="M51.8,77.7c0,0,27.2,9.5,56.7-5l0.3,2.8c0,0-20.7,14.4-55.6,5.9L51.8,77.7z"/>
	<polygon class="st4" points="48.8,81 47.6,76.3 37.7,72.7 38.4,77.2 	"/>
	<path class="st18" d="M33.1,64.1c0,0,0.7-6.7,9-5.8l-0.5-1.5c0,0-7.8-0.9-9.3,6L33.1,64.1z"/>
	<path class="st18" d="M57.2,67.5c0,0,9-1.4,8.7,5.5l-0.8,0.5C65.2,73.5,65.8,68.3,57.2,67.5z"/>
	<path class="st18" d="M59.4,65.8c0,0,9-1.4,8.7,5.5l-0.8,0.5C67.4,71.8,68,66.7,59.4,65.8z"/>
	<path class="st18" d="M42.1,59.5c-2.4,0.2-6.4,1.2-7.5,6l0.9,1.2c0,0,0.5-5.9,7.5-5.9c-0.1-0.1-0.2-0.3-0.3-0.5
		C42.4,60.3,42.2,59.8,42.1,59.5z"/>
	<line class="st19" x1="57.2" y1="67.5" x2="59.4" y2="65.8"/>
</g>
<path class="st20" d="M41.3,84.6c1.1,5.2,1.2,10.9,4.3,15.5c0.2,0.3,0.9,0,0.7-0.3c-3.1-4.6-3.2-10.2-4.3-15.3
	C41.9,84,41.2,84.2,41.3,84.6L41.3,84.6z"/>
<path class="st20" d="M44.5,20.4c-6.9,6.7-9.2,16.2-10.3,25.4c-0.1,0.4,0.7,0.4,0.8,0c1-9.1,3.3-18.4,10.1-24.8
	C45.4,20.6,44.8,20.1,44.5,20.4L44.5,20.4z"/>
<path class="st20" d="M103.9,25.1c-1.4-2.5-3.2-4.7-5.4-6.6c-0.3-0.3-0.9,0.2-0.5,0.5c2.1,1.9,3.9,3.9,5.2,6.3
	C103.5,25.9,104.1,25.5,103.9,25.1L103.9,25.1z"/>
<path class="st20" d="M36.3,34.6c-2.6-0.2-5.2-1.5-6.3-3.9c-1.2-2.5-0.8-5.4,0.9-7.5c1.4-1.9,3.7-3.3,6-3.6c2.3-0.4,5.5-0.3,7.1,1.6
	c0.3,0.3,0.8-0.1,0.5-0.5c-1.7-2.1-4.9-2.2-7.3-1.9c-2.8,0.4-5.6,2.1-7.2,4.5c-1.5,2.3-1.9,5.4-0.5,7.9c1.3,2.6,4.2,4,7,4.3
	C36.8,35.3,36.8,34.7,36.3,34.6L36.3,34.6z"/>
<path class="st20" d="M98.7,19.2c4-2.1,10.5-3.1,13.3,1.3s1.2,11.4-4.5,12.4c-0.4,0.1-0.2,0.8,0.2,0.7c6-1,7.9-8.3,5.1-13.1
	c-3-5.1-9.9-4.2-14.4-1.9C98,18.8,98.3,19.4,98.7,19.2L98.7,19.2z"/>
<path class="st20" d="M67,41.1c0.1,0,0.2,0,0.3-0.1c0-0.1-0.1-0.2-0.1-0.3c-0.2,0.2-0.8,0.1-1,0.2c-0.5,0.2-1.1,0.8-1.6,1.1
	c-1,0.8-2,1.7-2.4,2.8c-1.1,2.7,2.3,4.2,4.5,4c1.9-0.1,3.6-1,5.5-1.2s3.4,0.4,5,0.9c2.3,0.5,4.6-0.8,4.2-3.4
	c-0.3-2.8-3.9-4.4-6.2-5.2c-0.2-0.1-0.3,0.2-0.1,0.3c2.4,0.9,6.9,2.8,5.9,6.1c-0.7,2.4-3,2.1-4.8,1.5c-1.3-0.3-2.5-0.8-3.9-0.5
	c-1.6,0.2-3.2,0.9-4.8,1.1c-1.9,0.3-5.5-0.3-5.1-2.8c0.2-1.5,1.7-2.8,3-3.7c0.4-0.3,0.8-0.5,1.3-0.8c0.2-0.1,0.7-0.1,0.9-0.3
	c0.1-0.1,0-0.3-0.1-0.3s-0.2,0-0.4,0.1C66.7,40.8,66.8,41.1,67,41.1L67,41.1z"/>
<path class="st20" d="M76.3,48.6c0.7,1.6,1,3.8,0.3,5.5c-0.5,1.2-2.2,2.1-3.4,1.2c-0.5-0.4-0.8-1.1-1.1-1.6c-0.1-0.2-0.4,0-0.3,0.2
	c0.3,0.8,0.7,1.6,1.4,2.1c0.9,0.4,1.9,0.2,2.6-0.3c2.1-1.4,1.4-5,0.7-7C76.5,48.2,76.2,48.3,76.3,48.6L76.3,48.6z"/>
<path class="st20" d="M57.1,74.4c-0.8,0.1-1.4,0.8-2.1,1.1c-1.6,0.9-4,1-5.7,0.2c-1.7-0.9-3.7-3.5-1.4-5c2-1.2,4.4-0.7,6.4-0.2
	c0.2,0.1,0.3-0.3,0.1-0.3c-2.2-0.5-4.7-1-6.7,0.2c-1.3,0.8-1.5,2.2-0.9,3.5c0.9,1.6,2.7,2.5,4.6,2.6c1.2,0.1,2.4-0.2,3.5-0.7
	c0.7-0.3,1.4-1.1,2.1-1.2C57.3,74.7,57.3,74.4,57.1,74.4L57.1,74.4z"/>
<path class="st20" d="M50.5,72.5c-1.1,0.2-2.5,0.3-3.2-0.8c-0.1-0.2-0.4,0-0.3,0.2c0.8,1.2,2.3,1.2,3.6,0.9
	C50.9,72.8,50.9,72.5,50.5,72.5L50.5,72.5z"/>
<circle class="st21" cx="86" cy="29.2" r="11.5"/>
<circle class="st21" cx="57.1" cy="30.5" r="11.5"/>
<circle class="st20" cx="105.6" cy="24.7" r="2.4"/>
<ellipse class="st20" cx="37.4" cy="26.9" rx="2.4" ry="2.4"/>
<path class="st20" d="M76.8,39.8c0-1.5-2.3-2.8-5.1-2.8c-2.8,0-5.1,1.3-5.1,2.8s2.3,2.8,5.1,2.8C74.5,42.7,76.8,41.5,76.8,39.8z"/>
<path class="st20" d="M85.7,25.5c-2.1,0-3.7,1.6-3.7,3.7s1.6,3.7,3.7,3.7s3.7-1.6,3.7-3.7S87.8,25.5,85.7,25.5z M87.1,31.6
	c-0.5,0-1.1-0.4-1.1-1.1c0-0.5,0.4-1.1,1.1-1.1c0.5,0,1.1,0.4,1.1,1.1S87.8,31.6,87.1,31.6z"/>
<path class="st20" d="M57.3,26.5c-2.1,0-3.7,1.6-3.7,3.7c0,2.1,1.6,3.7,3.7,3.7c2.1,0,3.7-1.6,3.7-3.7C61,28.1,59.4,26.5,57.3,26.5z
	 M58.8,32.6c-0.5,0-1.1-0.4-1.1-1.1c0-0.5,0.4-1.1,1.1-1.1c0.5,0,1.1,0.4,1.1,1.1C59.9,32.1,59.4,32.6,58.8,32.6z"/>
<path class="st20" d="M71.9,47.8c0.3,1.5,0.2,3.4,0,4.8c-0.1,0.9-0.3,2-1,2.6c-0.8,0.8-2.1,0.7-2.8,0c-1.5-1.4-1.1-4.7-0.5-6.4
	c0.1-0.2-0.3-0.3-0.3-0.1c-0.7,2.1-1.1,6.6,1.6,7.3c1.4,0.4,2.5-0.3,3.1-1.6c0.4-1.1,0.4-2.3,0.4-3.5c0-1.1,0.1-2.2-0.1-3.3
	C72.3,47.5,71.9,47.5,71.9,47.8L71.9,47.8z"/>
<g>
	<path class="st20" d="M39,66.3c1,3.1,4.5,5.6,7.7,5.4c0.2,0,0.2-0.3,0-0.3c-3.1,0.2-6.3-2.2-7.3-5C39.4,65.9,39,66.1,39,66.3
		L39,66.3z"/>
</g>
<g>
	<path class="st20" d="M45.9,68.7c0.7,0.4,1.9,1.1,2.6,0.5c0.8-0.4,0.7-1.5,0.4-2.3c-0.9-2-4-3-5.9-3.2c-0.2,0-0.2,0.3,0,0.3
		c1.5,0.2,3.3,0.8,4.6,1.7c0.8,0.5,1.5,1.5,1.2,2.5c-0.4,1.2-2,0.4-2.6-0.1C45.9,68.2,45.7,68.6,45.9,68.7L45.9,68.7z"/>
</g>
<path class="st20" d="M107,84c0.8,8.7,2.7,19.7-4.9,26.1c-0.3,0.3,0.1,0.8,0.5,0.5c7.9-6.6,6-17.6,5.1-26.7
	C107.7,83.4,106.9,83.4,107,84L107,84z"/>
<path class="st20" d="M102.7,24.2c9.3,12.9,6.8,29.6,5.4,44.5c-0.1,0.4,0.7,0.4,0.8,0c1.4-15,3.9-31.8-5.5-44.8
	C103.1,23.4,102.4,23.8,102.7,24.2L102.7,24.2z"/>
<path class="st20" d="M68.7,105.7c1.6-1.9,4.7-0.3,6.6,0.3c2.5,0.9,4.9,2,7.3,3.1c0.4,0.2,0.8-0.4,0.3-0.7c-3-1.4-5.9-2.7-9-3.7
	c-1.9-0.7-4.3-1.3-5.7,0.4C67.9,105.5,68.3,106.1,68.7,105.7L68.7,105.7z"/>
<path class="st20" d="M40.4,18.9C44,15.3,49.1,14,54,13.5c1.9-0.2,3.8-0.2,5.7-0.5c1-0.1,1.9-0.4,2.6-1.2c0.4-0.4,0.8-1,1.1-1.4
	C63.9,9.7,64.3,9.3,65,9c0.8-0.2,1.5-0.3,2.2-0.5c2.7-0.5,6-0.9,8.7-0.2c1.4,0.3,2.4,1,3,2.2c0.3,0.8,0.5,1.6,1.2,2.3
	c1.2,1.2,3.4,1.1,4.9,1.2c5.6,0.1,11.7,0.7,16.3,4.3c0.3,0.3,0.9-0.2,0.5-0.5c-3.8-3-9-4.2-13.7-4.4c-2.2-0.1-5.5,0.5-7.3-0.9
	c-0.9-0.7-1.1-1.9-1.6-2.7c-0.4-0.8-1.1-1.3-1.9-1.6c-2.3-1-5.4-0.8-7.8-0.5C68.3,7.8,67,8,65.8,8.2c-1,0.2-2.1,0.4-2.7,1.2
	c-1,1.1-1.5,2.5-3,3c-1.9,0.5-4,0.3-5.9,0.5c-5.2,0.5-10.7,1.7-14.6,5.7C39.5,18.7,40,19.3,40.4,18.9L40.4,18.9z"/>
<path class="st20" d="M40.6,18.3c0.4-2.1,2.4-3.7,3.9-5.1c1.6-1.5,3.3-3,5.2-3.9c4-2.2,8.5-2.4,13-2.7c4.8-0.2,9.5-0.3,14.3-0.4
	c2.2-0.1,4.5-0.1,6.7-0.1s4.6,0,6.6,1c2.2,1.1,3.8,2.8,5.6,4.4c1.7,1.4,3.5,3,4,5.2c0.1,0.4,0.8,0.2,0.7-0.2c-0.4-1.9-1.5-3.3-3-4.5
	c-1.6-1.6-3.2-3-4.9-4.3C89,4.8,84.5,5.2,80,5.3c-5.4,0.1-10.8,0.3-16.2,0.5C59.3,6,54.5,6.3,50.2,8.2c-2.3,1.1-4.3,2.7-6.2,4.5
	c-1.6,1.5-3.6,3.2-4,5.5C39.7,18.5,40.4,18.7,40.6,18.3L40.6,18.3z"/>
<path class="st20" d="M52.9,7.7c0.3,1,0.4,2.1,0.2,3.2c-0.1,0.4,0.7,0.7,0.7,0.2c0.2-1.2,0.1-2.3-0.2-3.5C53.5,7,52.8,7.2,52.9,7.7
	L52.9,7.7z"/>
<path class="st20" d="M55.4,7C55,7.6,55,8.4,55.6,9c0.3,0.3,0.9-0.2,0.5-0.5c-0.2-0.2-0.3-0.7-0.1-0.9C56.2,7.1,55.8,6.7,55.4,7
	L55.4,7z"/>
<path class="st20" d="M85,6.3c0.3,1,0.4,2.1,0.3,3.1C85.2,9.8,86,10.1,86,9.6c0.2-1.3,0-2.4-0.4-3.6C85.5,5.6,84.8,5.8,85,6.3
	L85,6.3z"/>
<path class="st20" d="M87.9,6.2c-0.2,0.8,0,1.5,0.3,2.1c0.2,0.3,0.9,0,0.7-0.3c-0.3-0.4-0.4-1-0.3-1.5C88.7,5.8,87.9,5.6,87.9,6.2
	L87.9,6.2z"/>
<path class="st20" d="M64.8,12.1c4.2-0.2,8.2-0.3,12.4-0.5c0.2,0,0.4-0.3,0.3-0.5c-2.8-4.3-9.1-2-13.1-1.1c-0.2,0.1-0.3,0.3-0.2,0.5
	c0.2,0.4,0.4,1,0.7,1.4c0.2,0.4,0.9,0.1,0.7-0.3s-0.4-1-0.7-1.4c-0.1,0.2-0.1,0.3-0.2,0.5c3.6-0.8,9.7-3.2,12.2,0.8
	c0.1-0.2,0.2-0.3,0.3-0.5c-4.2,0.2-8.2,0.3-12.4,0.5C64.4,11.4,64.4,12.2,64.8,12.1L64.8,12.1z"/>
<path class="st22" d="M48,18c-0.8-0.7-0.4-2,0.3-2.4c0.9-0.4,2.1,0.3,2.1,1.2c0,1-1.1,1.7-2,1.4"/>
<path class="st20" d="M69.7,15.8c-0.3-0.4-0.2-1,0.1-1.3c0.2-0.3,0.9-0.5,1.2-0.3c0.4,0.2,0.4,1.2,0.2,1.5
	C70.9,16.2,70,16.3,69.7,15.8c-0.4-0.3-1.1,0.2-0.5,0.4c0.8,0.5,1.8,0.8,2.6,0s0.5-1.8,0-2.6c-1.4-1.4-3.7,1.1-2.6,2.6
	C69.3,16.6,69.9,16.3,69.7,15.8L69.7,15.8z"/>
<path class="st20" d="M48.1,19.6c-8,5.9-10.4,16.7-5.7,25.5c0.2,0.4,0.9,0.1,0.7-0.3c-4.5-8.4-2.2-18.8,5.5-24.5
	C48.9,20,48.6,19.4,48.1,19.6L48.1,19.6z"/>
<path class="st20" d="M93.9,18.3c4.6,6.9,9.6,15.1,6.8,23.6c-0.1,0.4,0.5,0.7,0.7,0.2c2.8-8.7-2.3-17.2-6.9-24.3
	C94.2,17.5,93.6,17.8,93.9,18.3L93.9,18.3z"/>
<path class="st20" d="M70.1,101.5c2.7-0.9,5.6-0.7,8.2,0.4c0.4,0.2,0.8-0.4,0.3-0.7c-2.7-1.2-5.8-1.5-8.7-0.5
	C69.4,100.9,69.7,101.7,70.1,101.5L70.1,101.5z"/>
<path class="st20" d="M35.1,45.8c4.8,3.5,9.6,7,14.4,10.6c2.3,1.6,4.6,3.5,6.9,5c2.1,1.4,4.2,1.9,6.7,1.6c10.3-1,20.5-4.5,30-8.6
	c5.6-2.4,10.9-5.2,16.2-8.4c0.4-0.2,0-0.9-0.3-0.7c-8.9,5.4-18.3,9.8-28.2,13c-4.9,1.5-9.8,2.8-14.9,3.6c-2.8,0.4-5.6,0.9-8.2-0.7
	c-2.3-1.3-4.5-3.2-6.7-4.7c-5.2-3.8-10.4-7.5-15.6-11.4C35.1,45,34.7,45.6,35.1,45.8L35.1,45.8z"/>
<path class="st20" d="M35.8,68.6c1.9,4.5,1.7,9.6,3.8,14c1.6,3.7,6.1,4.9,9.8,5.5c0.4,0.1,0.7-0.7,0.2-0.7c-2.1-0.3-4-0.8-5.9-1.6
	c-2.2-1.1-3.3-2.7-4-5c-1.3-4-1.5-8.5-3.3-12.5C36.2,67.8,35.7,68.1,35.8,68.6L35.8,68.6z"/>
<path class="st20" d="M54.1,88.4c9.3,2.6,19,3.4,28.6,2.4c4.7-0.4,9.3-1.3,13.8-2.6c2.4-0.7,4.7-1.5,7-2.4c1.7-0.8,4.2-1.4,5.7-2.6
	c1.6-1.4,0.5-4.3,0.3-6.1c-0.4-3.1-0.9-6.1-1.2-9.2c-0.1-0.4-0.8-0.4-0.8,0c0.3,2.4,0.7,4.9,1,7.3c0.1,1.2,0.3,2.3,0.4,3.5
	s0.7,2.6-0.2,3.6c-0.8,0.9-1.9,1.2-2.8,1.6c-1.2,0.5-2.4,1-3.6,1.4c-2.1,0.8-4.3,1.5-6.3,2.1c-8.5,2.4-17.6,3.4-26.5,2.7
	c-5.1-0.3-10.3-1.2-15.3-2.6C53.9,87.5,53.7,88.1,54.1,88.4L54.1,88.4z"/>
<path class="st20" d="M108.2,68.1c-0.5-1.6-1-3.3-1.1-5c0-0.4-0.8-0.4-0.8,0c0.1,1.7,0.5,3.5,1.1,5.2
	C107.7,68.8,108.5,68.6,108.2,68.1L108.2,68.1z"/>
<path class="st20" d="M103.9,63.9c-0.1,2.2,0.2,4.4,1.1,6.3c0.2,0.4,0.8,0.1,0.7-0.3c-0.9-1.9-1.2-3.9-1.1-6
	C104.6,63.4,104,63.4,103.9,63.9L103.9,63.9z"/>
<path class="st20" d="M89.2,118.6c-2.4-0.9-3.7-3.2-5.6-4.8c-0.8-0.7-2.8-2.4-3.6-0.7c-0.2,0.5,0.2,1.2,0.4,1.6
	c0.4,0.9,1,1.7,1.6,2.5c1.2,1.6,2.8,3,4.6,3.9c3.7,2.2,8.1,3.3,12.4,3.3c3.8,0.1,9.2,0.1,10.6-4.2s-1.7-9-5.8-10.5
	c-0.4-0.2-0.7,0.5-0.2,0.7c3.5,1.3,6.3,5.2,5.5,9.1c-0.5,2.4-2.3,3.5-4.7,3.8c-1.9,0.3-3.7,0.3-5.6,0.3c-6.9-0.2-14.3-3-17.6-9.3
	c-0.3-0.5-0.9-1.5,0.2-1.4c0.4,0.1,1,0.7,1.3,0.9c0.8,0.7,1.4,1.4,2.1,2.1c1.2,1.3,2.4,2.5,4.2,3.2
	C89.5,119.5,89.7,118.8,89.2,118.6L89.2,118.6z"/>
<path class="st20" d="M102.1,109.7c-4.5,3.2-10.2,3.1-15,0.8c-1.1-0.5-2.1-1.3-3.1-1.9c-0.5-0.3-1.2-0.5-1.9-0.2
	c-1.4,0.8-0.8,2.6-0.1,3.7c0.2,0.4,0.9,0,0.7-0.3c-0.3-0.5-1-1.7-0.5-2.4c0.8-0.9,1.9,0.2,2.5,0.5c0.8,0.5,1.6,1,2.5,1.4
	c1.6,0.8,3.3,1.2,5,1.5c3.6,0.4,7.3-0.3,10.3-2.4C102.9,110,102.6,109.4,102.1,109.7L102.1,109.7z"/>
<path class="st20" d="M81.8,109.2c2.3,3.8,5.8,7.3,9.7,9.4c1.5,0.9,3.2,0.9,4.4-0.5c1.4-1.6,1.3-4.2,3.1-5.6
	c0.3-0.3-0.1-0.8-0.5-0.5c-1.2,1-1.6,2.3-2.2,3.6c-0.3,0.9-0.9,2.1-1.7,2.5c-1.4,0.8-2.8-0.3-3.9-1.1c-3.3-2.3-6.1-4.9-8.2-8.4
	C82.1,108.5,81.5,108.8,81.8,109.2L81.8,109.2z"/>
<path class="st20" d="M87.7,113.5c1.1,1.1,3.6,3.7,5.4,3.2c1.6-0.5,1.4-3,3-3.6c0.4-0.2,0.1-0.8-0.3-0.7c-1.1,0.5-1.4,1.6-2,2.6
	c-0.7,1.2-1.6,1-2.7,0.3c-1-0.7-2-1.4-2.7-2.3C87.8,112.6,87.4,113.2,87.7,113.5L87.7,113.5z"/>
<path class="st20" d="M88.2,118.8c3.3,2.3,7.3,3.5,11.3,3.4c1.9-0.1,3.8-0.4,5.7-1.1c1.5-0.5,3.3-1.3,3.9-3c0.2-0.4-0.5-0.5-0.7-0.2
	c-0.8,1.7-3.4,2.5-5.1,3c-1.6,0.4-3.4,0.5-5.1,0.5c-3.5-0.1-6.8-1.3-9.6-3.3C88.2,118,87.9,118.6,88.2,118.8L88.2,118.8z"/>
<path class="st20" d="M106.8,123.7c0.9,0.9,1.9,1.7,2.7,2.6c0.4,0.4,1.2,1,1.5,1.6c0.7,1.4-0.7,2-1.5,2.3c-2.6,0.8-5.7,0.5-8.3-0.1
	c-0.4-0.1-0.7,0.5-0.2,0.7c2,0.4,3.9,0.7,5.9,0.4c1.4-0.1,3.2-0.2,4.3-1.2c0.9-0.8,1-1.7,0.3-2.7c-1.1-1.5-2.8-2.8-4.3-4.2
	C106.9,122.9,106.5,123.3,106.8,123.7L106.8,123.7z"/>
<path class="st20" d="M95.9,125.6c1.7,0.7,3.5,1.2,5.4,1.7c0.9,0.2,1.7,0.5,2.5,0.8c0.4,0.1,1.2,0.4,1.6,0.3
	c2.4-0.8-1.4-3.7-2.2-4.2c-0.4-0.2-0.8,0.4-0.3,0.7c0.5,0.3,2.4,1.3,2.4,2.2c-0.1,1.2-2.5,0-3.2-0.2c-2.1-0.7-4-1.3-6.1-2.1
	C95.7,124.8,95.4,125.5,95.9,125.6L95.9,125.6z"/>
<path class="st20" d="M53.4,122.6c-3.9-0.1-7.9,0-11.7,0.1c-0.4,0-0.4,0.8,0,0.8c3.9-0.1,7.8-0.2,11.7-0.1
	C53.8,123.3,53.8,122.6,53.4,122.6L53.4,122.6z"/>
<path class="st20" d="M56.5,111.3c4.4,2,7.7,5.7,9.1,10.4c0.1-0.1,0.2-0.3,0.3-0.4c-0.7-0.1-1.3,0.1-1.9,0.3c-0.8,0.4-1,1.3-1.9,1.5
	c-1.5,0.3-3.2-0.5-4.7-0.4c-0.4,0-0.4,0.8,0,0.8c1.5-0.1,3.1,0.5,4.6,0.4c0.4-0.1,1-0.2,1.3-0.5c0.9-0.8,1.2-1.5,2.5-1.4
	c0.2,0,0.4-0.2,0.3-0.4c-1.4-4.8-4.8-8.7-9.4-10.8C56.4,110.4,56.1,111.1,56.5,111.3L56.5,111.3z"/>
<path class="st20" d="M41.2,123c-0.9-3-1-6.3,0.5-9.1c2.1-3.7,6.7-4.3,10.6-3.8c0.4,0.1,0.7-0.7,0.2-0.7c-3.9-0.5-8.6,0-11,3.5
	c-2,3-2,6.9-1,10.2C40.7,123.5,41.5,123.4,41.2,123L41.2,123z"/>
<path class="st20" d="M57.2,126.2c2.6-0.1,5.2-0.1,7.9-0.1c2,0,4.3,0.2,6.2-0.4c1.1-0.4,2.1-1.3,2.2-2.5c0.1-1.4-1.2-2.4-2.3-3.1
	c-0.4-0.2-0.8,0.3-0.3,0.7c1.4,0.9,3,2.6,1,3.9c-1.2,0.8-2.8,0.7-4.2,0.8c-3.5,0.1-7,0.1-10.4,0.2C56.8,125.4,56.8,126.2,57.2,126.2
	L57.2,126.2z"/>
<path class="st20" d="M41.3,123.3c-0.9-0.1-1.4,0.3-1.4,1.2c-0.1,0.9,0.4,1.5,1.3,1.9c1.3,0.4,3.1,0.1,4.5,0.1
	c2.4-0.1,4.8-0.1,7.1-0.1c0.4,0,0.4-0.8,0-0.8c-2.4,0.1-4.8,0.1-7.1,0.1c-0.9,0-1.9,0.1-2.7,0.1c-0.3,0-0.7,0-1,0
	c-0.5,0-1-0.2-1.3-0.8c-0.1-0.5,0-0.9,0.5-1C41.6,124.1,41.8,123.3,41.3,123.3L41.3,123.3z"/>
<path class="st20" d="M64.1,116.9c-0.8-1.5-1.6-3.4-0.8-5c1.1-2.2,3.3-1.4,4.5,0.2c1.6,2.3,2.3,5.1,2.2,7.9c0,0.4,0.7,0.4,0.8,0
	c0.1-2.2-0.3-4.3-1.2-6.2c-0.7-1.5-1.9-3.7-3.7-4c-1.4-0.2-2.7,0.8-3.3,2.1c-0.8,1.9,0.1,3.8,0.9,5.5
	C63.6,117.6,64.3,117.3,64.1,116.9L64.1,116.9z"/>
<path class="st20" d="M48.7,109.2c-0.3-0.8,0.5-1.7,1.3-1.7c0.4,0,0.4-0.8,0-0.8c-1.2,0.1-2.5,1.4-2.1,2.6
	C48.2,109.9,48.9,109.7,48.7,109.2L48.7,109.2z"/>
<path class="st20" d="M55.4,98.4c2.2,0.3,4.4,1.3,5.5,3.4c1.2,2.2,0.9,5-0.7,7c-0.3,0.3,0.2,0.9,0.5,0.5c1.6-2.1,2.1-4.8,1-7.2
	c-1.1-2.5-3.6-3.8-6.2-4.3C55.1,97.6,55,98.4,55.4,98.4L55.4,98.4z"/>
<path class="st20" d="M53,107.3c-1-0.8-1.9-0.2-3-0.5c-1.6-0.5-3.5-2.2-3.9-3.9c-0.9-3.6,2.6-4.4,5.4-4.5c0.4,0,0.4-0.8,0-0.8
	c-2.6,0.1-6,0.8-6.1,3.9c-0.1,1.7,0.8,3.4,2.2,4.5c0.5,0.4,1.3,1,2.1,1.2c0.4,0.2,0.9,0.3,1.3,0.3c0.7,0,1.1-0.3,1.7,0.2
	C52.9,108,53.5,107.5,53,107.3L53,107.3z"/>
<path class="st20" d="M59.6,99.6c2.2-3.1,6.2-1,7.7,1.6c0.9,1.6,1.2,3.7,0,5.2c-1.3,1.6-3.5,1.6-5.1,0.4c-0.3-0.3-0.8,0.3-0.3,0.7
	c1.6,1.2,3.9,1.4,5.5,0c1.9-1.5,1.9-3.9,1-6c-1.5-3.5-6.4-6.1-9.2-2.3C58.7,99.6,59.4,99.9,59.6,99.6L59.6,99.6z"/>
<path class="st20" d="M66.6,107.5c-0.4,0.8-0.4,1.6,0.1,2.3c0.2,0.3,0.9,0,0.7-0.3c-0.3-0.4-0.3-1.1-0.1-1.6S66.8,107,66.6,107.5
	L66.6,107.5z"/>
<path class="st20" d="M46.7,74.5c4.6,16.8,7,34.3,6.9,51.7c0,0.4,0.8,0.4,0.8,0c0.1-17.5-2.4-35-6.9-51.9
	C47.4,73.8,46.6,74,46.7,74.5L46.7,74.5z"/>
<path class="st20" d="M40,53.6c1.2,3.4,2.4,6.7,3.5,10.1c0.1,0.4,0.9,0.2,0.7-0.2c-1.1-3.4-2.3-6.8-3.5-10.1
	C40.6,52.9,39.8,53.2,40,53.6L40,53.6z"/>
<path class="st20" d="M53.5,125.6c-4.7,1.7-9.8,2.5-14.9,2.3c-1.2-0.1-2.4-0.4-3.6-0.4c-0.5,0-1.1,0.1-1.4,0.5c-1,1.2,0.2,2.7,1,3.6
	c2.6,3.3,5.7,5.7,10.2,5.6c4.7-0.2,9-2.7,13.1-4.6c0.4-0.2,0.1-0.8-0.3-0.7c-3.7,1.7-7.7,3.9-11.8,4.4c-4.2,0.4-7.3-1.3-9.9-4.4
	c-0.4-0.5-2.1-2.2-1.9-2.8c0.3-0.3,0.8-0.7,1.1-1c0.3,0,0.7,0.1,1,0.1c0.3,0.1,0.8,0.1,1.1,0.1c1.9,0.2,3.8,0.2,5.8,0.1
	c3.7-0.2,7.3-1,10.8-2.3C54.1,126.2,53.9,125.4,53.5,125.6L53.5,125.6z"/>
<path class="st20" d="M48.6,65.3c-1-3.8-2-12.5-7.5-12c-0.4,0-0.4,0.8,0,0.8c5-0.4,6,8.1,6.9,11.5C48,65.8,48.7,65.7,48.6,65.3
	L48.6,65.3z"/>
<path class="st20" d="M57.7,131.9c-0.9-18.5-0.7-37.2-5.9-55.1c-0.1-0.4-0.9-0.2-0.7,0.2c5.2,17.8,5,36.5,5.9,54.9
	C57,132.4,57.7,132.4,57.7,131.9L57.7,131.9z"/>
<path class="st20" d="M69.2,126c0.7,1.5,1.3,3.1,2.2,4.6c0.1-0.2,0.2-0.3,0.3-0.5c-4.7,0.4-9.4,0.8-14,1.2c-0.4,0-0.4,0.8,0,0.8
	c4.7-0.4,9.4-0.8,14-1.2c0.3,0,0.4-0.3,0.3-0.5c-0.7-1.5-1.3-3.1-2.2-4.6C69.7,125.1,69,125.5,69.2,126L69.2,126z"/>
<path class="st20" d="M57.7,129.7c1.5,0.2,3.1,0.3,4.6,0.2c1.1-0.1,2.3-0.2,3.1-0.9c1-0.9,1-2.6-0.4-3.1c-0.4-0.1-0.7,0.5-0.2,0.7
	c0.8,0.8,0.8,1.4-0.1,2c-0.3,0.2-0.7,0.3-1,0.3c-0.5,0.1-1.1,0.2-1.7,0.2c-1.4,0.1-2.7,0-4.2-0.2C57.5,128.9,57.3,129.6,57.7,129.7
	L57.7,129.7z"/>
<path class="st20" d="M65.6,113.5c-0.2,1.9,0.3,3.5,1.6,4.8c0.2,0.2,0.5,0.1,0.5-0.2c0.7-1.7,0.3-3.6-0.9-5.1
	c-0.3-0.3-0.8,0.1-0.5,0.5c1,1.3,1.2,3,0.7,4.5c0.2-0.1,0.4-0.1,0.5-0.2c-1.1-1.1-1.6-2.5-1.4-4.2C66.4,113.3,65.7,113.1,65.6,113.5
	L65.6,113.5z"/>
<path class="st20" d="M56.8,108.8c1,0.2,2.1,0.3,3.1,0.8c0.4,0.2,0.9,0.5,1,1.1s0.1,1.1-0.4,1.2c-0.4,0.1-0.2,0.9,0.2,0.7
	c1.2-0.3,1.3-1.9,0.7-2.7c-0.9-1.3-2.8-1.4-4.3-1.7C56.4,108,56.2,108.7,56.8,108.8L56.8,108.8z"/>
<path class="st20" d="M36.4,33.7c1.7,8.1,7.8,14.9,15.5,17.8c0.4,0.2,0.7-0.5,0.2-0.7c-7.5-2.8-13.2-9.4-15-17.3
	C37.1,33,36.3,33.2,36.4,33.7L36.4,33.7z"/>
<path class="st20" d="M35.4,42.1c4.3,5.2,10.3,8.7,16.9,9.9c0.4,0.1,0.7-0.5,0.2-0.7C46,50.2,40.2,46.8,36,41.7
	C35.7,41.2,35.1,41.8,35.4,42.1L35.4,42.1z"/>
<path class="st20" d="M89.7,51.2c7.1-4.7,14.5-9.8,18.4-17.8c0.2-0.4-0.4-0.8-0.7-0.3c-3.7,7.8-11,12.9-18.1,17.5
	C88.9,50.9,89.2,51.4,89.7,51.2L89.7,51.2z"/>
<path class="st20" d="M89.3,52.1c7.3-1.9,14.6-4.7,20-10.5c0.3-0.3-0.2-0.9-0.5-0.5c-5.1,5.6-12.4,8.4-19.7,10.3
	C88.7,51.5,88.9,52.3,89.3,52.1L89.3,52.1z"/>
<path class="st20" d="M77.3,54.7c4-0.5,7.9-1.6,11.7-3.1c0.4-0.2,0.2-0.9-0.2-0.7c-3.7,1.4-7.7,2.5-11.7,3.1
	C76.6,54.1,76.9,54.8,77.3,54.7L77.3,54.7z"/>
<path class="st20" d="M51.5,51.3c4.2,3.4,10.2,3.6,15.3,3.8c0.4,0,0.4-0.7,0-0.8C61.9,54,56,54,52.1,50.8
	C51.6,50.5,51.2,51.1,51.5,51.3L51.5,51.3z"/>
<path class="st20" d="M44.5,21c17.9-3.3,36.3-3.9,54.3-1.9c0.4,0.1,0.4-0.7,0-0.8c-18.1-2.1-36.5-1.4-54.5,1.9
	C43.9,20.5,44.1,21.1,44.5,21L44.5,21z"/>
<path class="st20" d="M53.5,69.4c0.2-0.9,0.7-1.2,1.4-1.3c0.5,0.1,1,0.3,1.3,0.8c0.4,0.4,0.7,1.1,0.9,1.6c0.5,1.4,1.5,4.9-1.1,4.7
	c-0.4,0-0.4,0.7,0,0.8c4.2,0.3,2.2-6,0.5-7.7c-0.9-0.9-2.2-1.1-3.2-0.2c-0.7,0.5-1,1.9,0.1,2.2c0.1,0,0.2,0,0.3-0.1
	c0-0.1,0.1-0.1,0.1-0.1C54.2,69.6,53.8,69.1,53.5,69.4L53.5,69.4z"/>
<path class="st20" d="M43.3,63.5c0.1-1-0.8-1.6-1.6-1.4c-1.5,0.3-2.2,2.5-2.6,3.7c-0.4,1.2-1,3.3-0.1,4.5c0.7,0.9,1.9,1.1,2.6,0.3
	c0.3-0.3-0.1-0.8-0.5-0.5c-1.1,1-1.9-0.8-1.9-1.6c0-0.7,0.2-1.3,0.3-2c0.2-0.7,0.4-1.2,0.7-1.9c0.1-0.2,0.2-0.4,0.3-0.7
	c0.3-0.8,1-0.9,2-0.4C42.5,64,43.3,64,43.3,63.5L43.3,63.5z"/>
<path class="st20" d="M35,42.2c-0.9,3-1.7,5.9-2.7,8.7c-0.8,2.5-1.6,5.2-1.5,8c0.3,4.7,4.2,8,7.5,10.8c0.3,0.3,0.9-0.2,0.5-0.5
	c-3.6-2.8-7.5-6.2-7.4-11.3c0.1-2.5,1-5,1.7-7.5c0.8-2.6,1.6-5.4,2.4-8C35.9,42,35.1,41.8,35,42.2L35,42.2z"/>
<path class="st20" d="M56.5,76c3.1,1.5,7.1-1,9.6-2.7c0.3-0.2,0-0.9-0.3-0.7c-2.2,1.5-6.1,4-8.9,2.7C56.4,75.1,56.1,75.8,56.5,76
	L56.5,76z"/>
<path class="st20" d="M54.8,68.6c0.8-0.4,1.5-0.7,2.4-0.8c0.4,0,0.4-0.8,0-0.8c-1,0-1.9,0.3-2.7,0.9C54,68.1,54.5,68.8,54.8,68.6
	L54.8,68.6z"/>
<path class="st20" d="M83.1,112.7c-0.1-0.3-0.2-0.8-0.4-1.1c-0.1-0.4-0.9-0.2-0.7,0.2c0.1,0.3,0.2,0.8,0.4,1.1
	C82.6,113.3,83.2,113.2,83.1,112.7L83.1,112.7z"/>
<path class="st20" d="M96.7,125.2c-2.3-0.5-4.3-1.4-6.2-2.7c-0.3-0.2-0.8,0.3-0.3,0.7c2,1.3,4,2.3,6.3,2.8
	C97,126,97.2,125.3,96.7,125.2L96.7,125.2z"/>
<path class="st20" d="M101.7,130.3c-3.7-1.4-7.2-3.2-10.7-5.2c-1.6-1-3.2-2-4.7-3.1s-4.8-2.8-4.4-5c0.1-0.4-0.5-0.7-0.7-0.2
	c-0.3,1.6,0.8,2.8,2,3.8c1.7,1.4,3.7,2.7,5.7,4c3.9,2.5,8.2,4.7,12.6,6.3C101.9,131.1,102.1,130.4,101.7,130.3L101.7,130.3z"/>
<path class="st20" d="M88.1,112.8c-0.9-0.8-1.5-1.7-2-2.8c-0.2-0.4-0.9-0.2-0.7,0.2c0.4,1.2,1.2,2.3,2.1,3.2
	C87.9,113.6,88.5,113.2,88.1,112.8L88.1,112.8z"/>
<path class="st20" d="M103.4,109.8c-0.1,0-0.2,0-0.3,0c-0.4,0-0.4,0.8,0,0.8c0.1,0,0.2,0,0.3,0C103.9,110.4,103.9,109.8,103.4,109.8
	L103.4,109.8z"/>
<path class="st20" d="M109.4,118.2c0.1-0.2,0.2-0.4,0.3-0.8c0.1-0.2,0.1-0.4-0.1-0.4c-0.2-0.1-0.4-0.1-0.4,0.1
	c-0.1,0.2-0.2,0.4-0.3,0.8c-0.1,0.2-0.1,0.4,0.1,0.4C109.1,118.4,109.3,118.4,109.4,118.2L109.4,118.2z"/>
<path class="st20" d="M47.5,128.1c1.5,2.2,2.3,4.6,2.3,7.3c0,0.4,0.7,0.4,0.8,0c0.1-2.7-0.7-5.5-2.3-7.7
	C47.9,127.4,47.2,127.8,47.5,128.1L47.5,128.1z"/>
<path class="st20" d="M49.1,127.5c1.3,2.2,2.4,4.5,3.4,6.7c0.2,0.4,1,0.2,0.7-0.2c-1-2.4-2.1-4.8-3.5-6.9
	C49.5,126.7,48.8,127.1,49.1,127.5L49.1,127.5z"/>
<path class="st20" d="M53.5,126.2c-0.1,2.6-0.2,5.4-0.4,8c0,0.4,0.7,0.4,0.8,0c0.2-2.6,0.3-5.2,0.4-8
	C54.1,125.7,53.5,125.7,53.5,126.2L53.5,126.2z"/>
<path class="st20" d="M53.8,126.1c0.9,2.2,1.6,4.4,2.2,6.7c0.1,0.4,0.8,0.2,0.7-0.2c-0.5-2.3-1.3-4.5-2.2-6.7
	C54.4,125.5,53.7,125.7,53.8,126.1L53.8,126.1z"/>
<path class="st20" d="M53.8,124.2c0.9,1.2,1.7,2.4,2.7,3.6c0.2,0.3,0.9,0,0.7-0.3c-0.9-1.2-1.7-2.4-2.7-3.6
	C54.2,123.4,53.6,123.8,53.8,124.2L53.8,124.2z"/>
<path class="st20" d="M54.1,123.4c1,0.2,2,0.2,3,0c0.4-0.1,0.2-0.9-0.2-0.7c-0.9,0.2-1.7,0.2-2.6,0
	C53.8,122.7,53.7,123.3,54.1,123.4L54.1,123.4z"/>
<path class="st20" d="M54.1,122.1c1-0.5,1.9-1.4,2.4-2.4c0.2-0.4-0.4-0.8-0.7-0.3c-0.5,0.9-1.3,1.6-2.2,2.2
	C53.4,121.8,53.7,122.5,54.1,122.1L54.1,122.1z"/>
<path class="st20" d="M53.7,117.8c0.8,0.5,1.7,0.9,2.7,0.8c0.4,0,0.4-0.8,0-0.8c-0.9,0.1-1.6-0.2-2.4-0.7
	C53.7,116.9,53.3,117.5,53.7,117.8L53.7,117.8z"/>
<path class="st20" d="M53.7,70.3c1,0.2,1.9,0.2,2.8,0.1c0.4,0,0.4-0.8,0-0.8c-0.9,0.1-1.7,0.1-2.7-0.1
	C53.5,69.6,53.3,70.3,53.7,70.3L53.7,70.3z"/>
<path class="st20" d="M53,68.7c-0.1,0.4,0.2,0.8,0.7,0.8s0.7-0.5,0.8-1c0-0.3-0.3-0.4-0.5-0.3c-0.4,0.2-0.8,1.2,0,1.3
	c0.5,0.1,1-0.7,0.7-1.1c-0.1-0.2-0.4-0.2-0.5-0.1c-0.3,0.4-0.4,0.9-0.4,1.3c0.1,0.3,0.4,0.3,0.5,0.2c0.3-0.3,0.7-0.7,0.9-1
	s-0.2-0.7-0.5-0.4c-0.4,0.4-0.3,1,0.1,1.3c0.1,0.1,0.2,0.1,0.3,0c0.2-0.2,0.3-0.3,0.4-0.7c0.1-0.3-0.2-0.5-0.5-0.4
	c-0.3,0.2-0.5,0.5-0.4,0.9c0,0.1,0.2,0.2,0.3,0.2c0.7,0,1.4-0.4,1.1-1.2c-0.3-0.7-1.1-0.4-1.2,0.2s0.5,1.1,1.1,0.8
	c0.7-0.4,0.4-1.2-0.2-1.6c-0.2-0.1-0.4,0-0.5,0.2c-0.1,0.8,0.3,1.3,1.1,1.3c0.1,0,0.3-0.1,0.3-0.2c0.1-0.5-0.3-1-0.9-0.9
	c-0.2,0-0.2,0.2-0.2,0.3c-0.1,0.7,0.5,1.1,1.1,0.9c0.2-0.1,0.3-0.3,0.2-0.5s-0.2-0.3-0.4-0.4c-0.1-0.1-0.3-0.1-0.4,0.1
	c-0.4,0.3-0.4,1,0,1.3c0.1,0.1,0.3,0.1,0.5,0c0.3-0.2,0.5-0.7,0.2-1c-0.2-0.2-0.5-0.1-0.8,0.2c-0.1,0.1-0.1,0.2,0,0.3c0,0,0,0,0,0.1
	c0.2,0.3,0.9,0,0.7-0.3c0,0,0,0,0-0.1c0,0.1,0,0.2,0,0.3c-0.2,0-0.3,0-0.5-0.1c0.2,0,0.3,0,0.5,0c0-0.1,0-0.2,0-0.3
	c-0.1,0-0.3,0-0.4,0.1c0.1,0.1,0.1,0.1,0.2,0.2c0.1-0.2,0.1-0.3,0.2-0.5c-0.1-0.1-0.1-0.1-0.2-0.2c-0.1,0.1-0.2,0.2-0.2,0.3
	c0,0,0,0-0.1-0.1c0.1-0.1,0.2-0.2,0.3-0.2c-0.1-0.1-0.2-0.3-0.3-0.4c-0.2,0.1-0.3,0.1-0.5,0.2c0,0.4-0.1,0.7-0.4,0.5
	c0.1,0.1,0.2,0.2,0.3,0.2l0.1-0.1c-0.2-0.1-0.3-0.2-0.5-0.4c0,0.1-0.1,0.1-0.1,0.2c0.1,0,0.2,0,0.3,0c0-0.1,0-0.1,0-0.2
	c-0.2-0.1-0.3-0.3-0.5-0.4c-0.2,0.3-0.4,0.7-0.8,0.9c0.2,0.1,0.4,0.1,0.5,0.2c-0.1-0.2,0-0.4,0.2-0.7c-0.2,0-0.3-0.1-0.5-0.1
	c0,0,0,0-0.1,0c0.1,0.1,0.2,0.2,0.2,0.2c0-0.1,0.1-0.1,0.1-0.2c-0.2-0.1-0.3-0.2-0.5-0.3c-0.1,0.1-0.1,0.3,0,0.4
	C53.9,68.5,53.3,68.2,53,68.7L53,68.7z"/>
<path class="st20" d="M56.2,70.1c0.1,0,0.2,0,0.3,0c0.4,0,0.4-0.8,0-0.8c-0.1,0-0.2,0-0.3,0C55.8,69.4,55.8,70.1,56.2,70.1
	L56.2,70.1z"/>
<path class="st20" d="M54,70c0.9,0.1,1.7,0.2,2.6,0.3c0.4,0.1,0.4-0.7,0-0.8c-0.9-0.1-1.7-0.2-2.6-0.3C53.6,69.2,53.6,69.9,54,70
	L54,70z"/>
<path class="st20" d="M56.6,75.5c0.3-0.2,0.7-0.3,1-0.5c0.4-0.2,0-0.9-0.3-0.7c-0.3,0.2-0.7,0.3-1,0.5C55.9,75,56.2,75.7,56.6,75.5
	L56.6,75.5z"/>
<path class="st20" d="M38.6,68c0.1,0.8,0.4,1.3,0.9,1.9c0.2,0.3,0.7,0,0.5-0.3c-0.2-0.8-0.3-1.4-0.5-2.2c-0.1-0.4-0.8-0.2-0.7,0.2
	c0.1,0.9,0.4,1.7,0.8,2.5c0.1,0.3,0.7,0.1,0.7-0.2c0-1-0.2-1.9-0.7-2.6c-0.2-0.3-0.8-0.1-0.7,0.3c0.1,1,0.5,1.9,1.1,2.6
	c0.2,0.2,0.7,0.2,0.7-0.2c0-0.7-0.2-1.2-0.7-1.7c-0.2-0.3-0.9-0.1-0.7,0.3c0.3,0.7,0.7,1.3,1.2,1.9c0.2,0.2,0.8,0,0.5-0.3
	c-0.2-0.8-0.7-1.4-1.1-2.1c-0.2-0.3-0.8,0.1-0.5,0.4c0.3,0.5,0.8,1.1,1.2,1.6c0.3,0.2,0.8-0.1,0.5-0.4c-0.1-0.2-0.3-0.4-0.4-0.8
	c-0.2-0.4-0.9,0-0.7,0.3c0.3,0.4,0.7,0.9,1.2,1.1c0.4,0.2,0.8-0.3,0.3-0.7c-0.3-0.2-0.7-0.5-0.9-0.9c-0.2,0.1-0.4,0.2-0.7,0.3
	c0.1,0.2,0.3,0.4,0.4,0.8c0.2-0.1,0.3-0.3,0.5-0.4C40.7,69,40.2,68.6,40,68c-0.2,0.1-0.3,0.3-0.5,0.4c0.4,0.5,0.8,1.1,1,1.7
	c0.2-0.1,0.4-0.2,0.5-0.3c-0.4-0.4-0.8-1-1-1.5c-0.2,0.1-0.4,0.2-0.7,0.3c0.3,0.4,0.5,0.9,0.5,1.4c0.2-0.1,0.4-0.1,0.7-0.2
	c-0.5-0.8-0.9-1.5-1.1-2.4c-0.2,0.1-0.4,0.2-0.7,0.3c0.4,0.8,0.5,1.5,0.5,2.3c0.2-0.1,0.4-0.1,0.7-0.2c-0.3-0.8-0.5-1.5-0.8-2.4
	c-0.2,0.1-0.4,0.1-0.7,0.2c0.2,0.8,0.3,1.4,0.5,2.2c0.2-0.1,0.4-0.2,0.5-0.3c-0.3-0.4-0.5-1-0.7-1.5C39.3,67.4,38.5,67.5,38.6,68
	L38.6,68z"/>
<path class="st20" d="M43,63.6c0.1,0.1,0.1,0.2,0.2,0.3c0.1,0.2,0.3,0.2,0.4,0.1c0.2-0.1,0.2-0.3,0.1-0.4c-0.1-0.1-0.1-0.2-0.2-0.3
	c-0.1-0.2-0.3-0.2-0.4-0.1C42.9,63.3,42.9,63.4,43,63.6L43,63.6z"/>
<path class="st20" d="M47.7,65.4c0.1,0.2,0.1,0.4,0.2,0.8c0.1,0.4,0.8,0.2,0.7-0.2c-0.1-0.2-0.1-0.4-0.2-0.8
	C48.3,64.7,47.6,65,47.7,65.4L47.7,65.4z"/>
<path class="st20" d="M48.7,68.7c-0.2,0.2-0.3,0.4-0.3,0.7c0,0.2,0.1,0.4,0.3,0.5c0.1,0.1,0.4,0,0.4-0.1c0.1-0.2,0-0.3-0.1-0.4
	c0,0,0,0,0.1,0.1c0-0.1,0,0,0,0l0,0l0,0c0,0,0,0-0.1,0.1c0.1-0.1,0.2-0.3,0.1-0.4C49,68.7,48.8,68.6,48.7,68.7L48.7,68.7z"/>
<path class="st20" d="M44,64.1c1.1-0.5,2.2-1.2,3.4-1.9c0.4-0.2,0.1-0.9-0.3-0.7c-1.1,0.5-2.2,1.2-3.4,1.9
	C43.2,63.8,43.5,64.3,44,64.1L44,64.1z"/>
<path class="st20" d="M43.1,60.4c1.2,0.4,2.4,0.5,3.6,0.4c0.4,0,0.4-0.8,0-0.8c-1.2,0.1-2.3-0.1-3.5-0.4
	C42.9,59.6,42.7,60.3,43.1,60.4L43.1,60.4z"/>
<path class="st20" d="M48.1,78.4c1.3-0.1,2.4-0.8,3.1-1.9c0.2-0.4-0.3-0.8-0.7-0.3c-0.5,0.9-1.4,1.4-2.4,1.5
	C47.7,77.7,47.7,78.5,48.1,78.4L48.1,78.4z"/>
<path class="st20" d="M48.4,79.5c1.2,0.1,2.3,0,3.4-0.3c0.4-0.1,0.2-0.8-0.2-0.7c-1.1,0.3-2.2,0.4-3.3,0.3
	C48,78.7,48,79.5,48.4,79.5L48.4,79.5z"/>
<path class="st20" d="M79.7,48.9c1.6-0.2,3.3-0.5,4.8-1.2c0.8-0.3,1.4-0.8,2.1-1.2c1-0.8,1.9-1,3.2-1c2.2-0.1,3.9-1.7,3.3-4
	c-0.2,0.1-0.4,0.2-0.7,0.3c0.4,0.8,0.9,1.5,1.3,2.3c0.2,0.4,0.9,0,0.7-0.3c-0.4-0.8-0.9-1.5-1.3-2.3c-0.2-0.3-0.8-0.1-0.7,0.3
	c0.5,2.1-1,3.1-2.8,3.2c-1,0.1-1.7,0.1-2.7,0.7c-1.2,0.8-2.1,1.5-3.4,2c-1.2,0.4-2.5,0.7-3.8,0.9C79.1,48.3,79.3,49,79.7,48.9
	L79.7,48.9z"/>
<path class="st20" d="M66.9,49c-1.4-0.2-3-0.4-4.4-0.8c-1.5-0.4-2.7-1.2-4-2c-1-0.5-2-0.7-3.1-0.8c-1.7-0.1-4.2-0.9-3.4-3.2
	c0.1-0.4-0.4-0.5-0.7-0.3c-0.5,0.8-1,1.5-1.5,2.3c-0.2,0.3,0.3,0.8,0.7,0.3c0.5-0.8,1-1.5,1.5-2.3c-0.2-0.1-0.4-0.2-0.7-0.3
	c-0.3,1-0.1,2.1,0.5,2.8c1,1.1,2.3,1.2,3.7,1.2c2.2,0.1,3.5,1.4,5.4,2.2s3.7,1,5.7,1.2C67.1,49.8,67.4,49,66.9,49L66.9,49z"/>
<path class="st20" d="M92.2,17.2c-0.8-0.8,0.1-2.3,1.2-1.7c1.2,0.7,0.3,2.3-0.9,2c-0.4-0.1-0.7,0.5-0.2,0.7c0.9,0.3,1.9-0.2,2.3-1
	c0.3-0.9-0.1-1.7-0.9-2.2c-1.9-1-3.4,1.5-2.1,2.8C92.1,18,92.5,17.5,92.2,17.2L92.2,17.2z"/>
<ellipse class="st23" cx="81.2" cy="15.4" rx="1.3" ry="1.4"/>
<path class="st20" d="M80.5,16.3c-0.8-0.8,0-2.3,1.1-1.7c1.2,0.5,0.3,2.3-0.9,2c-0.4-0.1-0.7,0.5-0.2,0.7c0.9,0.3,1.9-0.2,2.2-1
	c0.3-0.9-0.1-1.7-0.9-2.2c-1.9-1-3.3,1.5-2,2.8C80.4,17.1,80.8,16.6,80.5,16.3L80.5,16.3z"/>
<circle class="st24" cx="61.2" cy="15.7" r="1.4"/>
<path class="st20" d="M60.5,16.5c-0.8-0.8,0.1-2.3,1.2-1.7c1.2,0.7,0.3,2.3-0.9,2c-0.4-0.1-0.7,0.5-0.2,0.7c0.9,0.3,1.9-0.2,2.3-1
	c0.3-0.9-0.1-1.7-0.9-2.2c-1.9-1-3.4,1.5-2.1,2.8C60.3,17.3,60.8,16.8,60.5,16.5L60.5,16.5z"/>
<g id="Layer_6">
	<g class="st25">
		<polygon class="st4" points="86.9,68.9 86.6,68.8 86,69 86.2,68.5 85.5,68.1 85.2,69.6 84.2,70 84.2,68.9 85.2,67.9 84.6,67.6 
			84.2,67.9 84.2,67.4 83.8,67.1 83.4,67.4 83.4,68 83,67.6 82.3,67.9 83.4,68.9 83.4,70 83.4,70 83.4,70.1 82.4,69.4 82.1,68.1 
			81.5,68.5 81.6,69 81,68.7 80.7,68.9 80.7,69.3 81.2,69.7 80.7,69.9 80.7,70.5 82.1,70.1 83.1,70.8 82.1,71.3 80.7,71 80.7,71.6 
			81.2,71.7 80.7,72.1 80.7,72.6 81,72.7 81.6,72.4 81.5,73 82.1,73.3 82.4,72 83.4,71.4 83.4,72.5 82.4,73.5 83,73.8 83.4,73.5 
			83.4,74 83.8,74.4 84.2,74 84.2,73.5 84.6,73.8 85.3,73.5 84.2,72.5 84.2,71.4 84.2,71.4 84.2,71.3 85.2,72 85.5,73.3 86.2,72.9 
			86,72.4 86.6,72.7 86.9,72.5 86.9,72.1 86.4,71.7 86.9,71.6 86.9,70.9 85.5,71.3 84.5,70.8 85.5,70.1 86.9,70.5 86.9,69.9 
			86.4,69.7 86.9,69.3 		"/>
		<path class="st4" d="M83.8,64.7c-3.3,0-6,2.7-6,6s2.7,6,6,6s6-2.7,6-6C89.8,67.4,87.1,64.7,83.8,64.7z M83.9,75.1
			c-2.4,0-4.4-2-4.4-4.4s2-4.4,4.4-4.4s4.4,2,4.4,4.4C88.1,73.2,86.3,75.1,83.9,75.1z"/>
	</g>
</g>
</svg>
