<?xml version="1.0" encoding="utf-8"?>
<!-- Generator: Adobe Illustrator 24.0.1, SVG Export Plug-In . SVG Version: 6.00 Build 0)  -->
<svg version="1.1" id="Layer_1" xmlns="http://www.w3.org/2000/svg" xmlns:xlink="http://www.w3.org/1999/xlink" x="0px" y="0px"
	 viewBox="0 0 141.7 141.7" style="enable-background:new 0 0 141.7 141.7;" xml:space="preserve">
<style type="text/css">
	.st0{fill:#75CEEB;}
	.st1{fill:#090909;}
	.st2{fill:#C9B09D;}
	.st3{opacity:0.5;fill:url(#SVGID_1_);enable-background:new    ;}
	.st4{fill:#4F2D56;}
	.st5{opacity:0.58;fill:#FAFDFD;enable-background:new    ;}
	.st6{fill:#0A383D;}
	.st7{fill:#864D94;}
	.st8{fill:#DB9A52;}
	.st9{fill:#996536;}
	.st10{opacity:0.61;fill:#CD8B5E;enable-background:new    ;}
	.st11{fill:#432812;}
	.st12{fill:#9A5223;}
	.st13{opacity:0.29;fill:url(#SVGID_2_);enable-background:new    ;}
	.st14{fill:#B77329;}
	.st15{opacity:0.44;fill:#F8F6F9;enable-background:new    ;}
	.st16{opacity:0.64;fill:#D88128;enable-background:new    ;}
	.st17{opacity:0.75;fill:url(#SVGID_3_);enable-background:new    ;}
	.st18{opacity:0.75;fill:url(#SVGID_4_);enable-background:new    ;}
	.st19{opacity:0.75;fill:url(#SVGID_5_);enable-background:new    ;}
	.st20{opacity:0.75;fill:url(#SVGID_6_);enable-background:new    ;}
	.st21{fill:#D88128;}
	.st22{opacity:0.41;fill:#FAFDFD;enable-background:new    ;}
	.st23{fill:none;stroke:#090909;stroke-width:0.5242;stroke-miterlimit:10.0003;}
	.st24{fill:#231F20;}
</style>
<g id="Layer_7">
</g>
<g id="Layer_7_2_">
</g>
<g id="Layer_7_3_">
</g>
<g id="Layer_8">
</g>
<g id="Layer_7_1_">
</g>
<g id="Layer_10">
</g>
<path class="st0" d="M49.5,54.7l-1,2.9l-1.4,4.3c0,0-1.9,6.4-1.3,12.5h-0.5L44.4,74l-0.9,0.3l-0.7,0.5l-0.4,0.3V76l0.5,0.4l1,0.8
	l1.9,0.3l0.9,0.8l2.4,2.4l4.2,3l2.7,1l7.9,3.4l8.5,1.6l2.6,0.8l2,0.4l0.5-0.7l1.3,0.1l0.5-0.6L78.8,89l1.8-0.7l2.4-1.6l1.8-1.7
	l1-1.8l0.6-2.5l0.9-3.5l0.9-2c0.3-0.5,0.7-1.1,1-1.6c-0.2-0.2-0.5-0.4-0.7-0.7c0-0.1,0-0.1,0-0.2c-0.3,0-0.7-0.1-1-0.1
	c-0.2-0.1-0.4-0.3-0.6-0.4c-0.1-0.1-0.2-0.3-0.3-0.4c-0.1-0.2-0.1-0.4-0.2-0.6c0-0.2,0-0.4,0.1-0.7c0.1-0.3,0.2-0.5,0.4-0.6
	c-2.1-0.7-4.3-1.5-6.4-2.2c-2.7-1.1-5.5-2.3-8.2-3.4l-8.7-3.8l-11-4.8l-2.9-1.3L49.5,54.7z"/>
<polygon class="st0" points="50.6,52.1 54.5,44.4 57.1,40.4 58.6,38.4 59.6,40.1 64.5,48.8 67.1,52.8 68.9,54.7 73.5,57.3 
	81.2,61.1 84.1,63.7 86.2,65.2 88.4,66.4 90.4,67.2 89,68.1 87.1,67 75.3,62.2 65,58 58.5,55.1 "/>
<path class="st0" d="M74.4,46.1l-0.1,2.7l0.7,2.8l1.3,2.6l2.4,3.1l2.9,3.2l1.9,1.8l2.1,1.5l3.3,1.9l4.3,1.7l1.1,0.3l1.3-1.9
	c0.2-0.1,0.5-0.3,0.7-0.4c0.3,0,0.5-0.1,0.8-0.1c0-0.1,0.1-0.1,0.1-0.2l-0.5-0.7l-2.1-1.1l-2.8-2L90.3,59l-0.4-1.9l0.5-2.2l0.9-1.7
	l0.9-0.9l-2.6,0.8l-1.7,0.5l-3.5,0.1l-3.2-1L78.1,51l-2.6-2.9l-0.8-1.6v1.7"/>
<polygon class="st0" points="75.7,42.7 77,40.8 79.4,39.1 81.4,38.4 84.1,38.3 87.4,39 88.9,39.1 92,39.7 96.5,41.1 99.2,41.8 
	103,42.7 104.1,43.1 105.9,44.8 106.8,46.4 105.3,45.3 104,44.8 102.7,44.5 101.2,44.5 100.2,44.8 100.3,49.6 100.1,50.4 94.8,50.8 
	93.5,51.3 91.7,52 90.4,52.6 91.4,51.2 92.2,48.8 91.8,47.2 90.7,45 88.9,43.3 86.1,41.8 83.6,41.2 80.8,41.4 78.5,41.6 77,42 "/>
<polygon class="st1" points="90.6,54.5 90.8,55.7 91.8,56.5 93.5,56.9 94,57 93.3,59 93.3,61 94.2,61.9 95.1,62.5 96.5,62.1 
	97.1,63 97.4,64.3 97.2,65.1 96.7,64.4 95.5,64 94.3,63.3 92.7,62.1 91.2,60.7 90.4,59.3 90,57.5 90,56.2 "/>
<path class="st0" d="M63.8,34c1-0.8,2.3-1.7,4-2.5c1.5-0.7,2.9-1.2,4-1.4c-0.1-0.5-0.2-0.9-0.3-1.4c-0.8-0.5-1.6-1.1-2.4-1.6
	c-0.7-0.3-1.5-0.6-2.2-0.8c-0.8,0-1.5,0-2.3,0c-0.6,0.3-1.3,0.5-1.9,0.8c-0.4,0.4-0.7,0.8-1.1,1.3c-0.1,0.6-0.3,1.2-0.4,1.7
	c0.2,0.6,0.4,1.1,0.6,1.7c0.2,0.3,0.4,0.8,0.8,1.2C63,33.5,63.5,33.8,63.8,34z"/>
<path class="st0" d="M76.7,27.6l0.8-1.8c0.5-0.3,0.9-0.7,1.4-1c0.6-0.2,1.2-0.3,1.7-0.5c0.5,0.2,0.9,0.3,1.4,0.5
	c0.4,0.3,0.7,0.6,1.1,0.9c0.1,0.3,0.2,0.7,0.3,1c0,0.2,0,0.5,0,0.7c-0.1,0.3-0.2,0.5-0.3,0.8c-0.1,0.3-0.2,0.6-0.3,0.9
	c-0.2-0.1-0.5-0.1-0.7-0.2c-0.4-0.1-0.8-0.2-1.1-0.3c-0.6-0.2-1.3-0.3-1.9-0.5C78.3,28,77.6,27.8,76.7,27.6z"/>
<polygon class="st0" points="99.1,57.1 98.9,59 100.3,58.8 102.3,58.1 104.6,56.8 103.4,57 101.9,56.8 101.2,56.5 100.3,57.1 "/>
<path class="st2" d="M94.8,51.6L93.5,52l-1.3,0.3c-0.3,0.3-0.6,0.6-0.9,1c-0.2,0.4-0.4,0.8-0.6,1.2l0.3,1.2l1,0.9l2.1,0.4H96
	l1.8,0.1l2-0.1c0.1,0,0.3,0,0.5,0c0.2-0.1,0.4-0.2,0.4-0.2c0.1-0.2,0.2-0.5,0.3-0.7c0-0.2,0.1-0.4,0-0.6c0-0.2-0.1-0.3-0.1-0.4
	c-0.1-0.3-0.3-0.8-0.7-1.3c-0.3-0.3-0.6-0.6-0.8-0.8C97.8,52.3,96.2,52,94.8,51.6z"/>
<path class="st2" d="M87.1,69.9c0.2-0.2,0.4-0.3,0.6-0.5c0.4-0.4,0.9-0.7,1.3-1c0.6-0.4,1.3-0.9,1.9-1.5l1.3,0.1l1,0.4
	c0.2,0.1,0.4,0.2,0.6,0.3c0.1,0.1,0.1,0.2,0.2,0.4c0.1,0.1,0.1,0.3,0.2,0.4c0.1,0,0.2,0.1,0.2,0.3c0.1,0.2,0,0.4,0,0.5
	c0.2,0,0.4-0.1,0.6-0.1c0.1,0,0.2-0.1,0.4-0.1l0.8,0.4c0.1,0.1,0.1,0.3,0.2,0.5c0,0.3,0,0.5-0.1,0.7c-0.2,0.3-0.4,0.6-0.6,0.9
	c-0.3,0.2-0.6,0.4-1,0.7c-0.3,0.2-0.6,0.3-0.9,0.4c-0.5,0.2-1,0.4-1.6,0.6c-0.4,0.2-0.9,0.4-1.3,0.6c-0.4,0-0.8,0-1.1,0.1
	c-0.2-0.1-0.4-0.2-0.6-0.3c-0.1-0.1-0.3-0.1-0.4-0.2c-0.1-0.1-0.2-0.3-0.3-0.4c0-0.1-0.1-0.1-0.1-0.1c-0.1,0-0.3-0.1-0.4-0.1
	c-0.1,0-0.2-0.1-0.4-0.1c-0.2-0.1-0.3-0.1-0.4-0.2c-0.1-0.1-0.2-0.1-0.4-0.3c-0.1-0.1-0.1-0.2-0.2-0.2c-0.1-0.1-0.2-0.2-0.2-0.4
	c0-0.2,0-0.4,0-0.5c0-0.1,0-0.3,0.2-0.6C86.8,70.1,87,70,87.1,69.9z"/>
<polygon class="st2" points="72.2,89.8 74.9,90.7 76.9,91 77.5,90.3 78.6,90.5 79.2,89.8 78.8,88.8 77,89.2 74.7,89.6 "/>
<linearGradient id="SVGID_1_" gradientUnits="userSpaceOnUse" x1="91.05" y1="82.7323" x2="91.05" y2="102.6854" gradientTransform="matrix(1 0 0 -1 0 141.7323)">
	<stop  offset="0" style="stop-color:#EEF4D3"/>
	<stop  offset="0.3129" style="stop-color:#DCC5A3"/>
	<stop  offset="0.5642" style="stop-color:#CD9B80"/>
	<stop  offset="0.6067" style="stop-color:#AD7D6F"/>
	<stop  offset="0.6682" style="stop-color:#845859"/>
	<stop  offset="0.7312" style="stop-color:#623846"/>
	<stop  offset="0.7949" style="stop-color:#462039"/>
	<stop  offset="0.8597" style="stop-color:#31142E"/>
	<stop  offset="0.9262" style="stop-color:#281028"/>
	<stop  offset="0.997" style="stop-color:#240F26"/>
</linearGradient>
<path class="st3" d="M75.9,47.6l-0.1-1.7l0.6-2.2l1.2-1.7l1.5-1.2l2-1l3.6-0.7h3.7l2.8,0.6c1.6,0.5,3.2,0.9,4.8,1.5
	c1,0.2,2.1,0.4,3.1,0.6l3.8,0.8L104,43c0.5,0.3,1.3,0.9,2,1.9c0.4,0.5,0.6,1,0.8,1.5c0.3,0.5,0.6,1.4,0.8,2.5
	c0.1,0.5,0.1,0.9,0.1,1.3c-0.1,0.9-0.2,1.9-0.3,2.9l-1,1.6l-1,1.8l-2.3,1.7l-2,0.6L99,59l0.2-1.9l1.2-0.3l0.9-0.3l-0.3-1.6l-0.5-0.9
	l-1-1.3l-3.6-1.4L93.5,52l-1.8,0.6l-2.1,0.5l-1.9,1.4l-2.7,1h-2.6l-2.3-0.6l-2.2-1.4L76.4,52l-1.2-1.4l-0.8-1.9l0.3-2.3L75.9,47.6z"
	/>
<path class="st4" d="M76.7,49.4l-0.8-1.8l-0.1-1.7l0.6-2.2l1.7-2.1c0.3-0.3,0.6-0.6,1.2-0.9c0.5-0.3,1-0.5,1.5-0.7
	c0.5-0.2,1-0.3,1.7-0.4s1.5-0.3,2.3-0.4c0.9-0.1,1.9-0.2,2.7-0.2c0.7,0,1.6,0.1,2.4,0.3c0.8,0.2,1.5,0.4,2,0.5
	c1.8,0.5,3.6,1,5.3,1.5l4,1l2.9,0.6l-1.8-0.9l-1.9-0.5l-0.6-0.1l-0.9-0.5l-3.8-1.7l-3.2-0.8L89.2,38H86l-2.8,0l-3.4,0.8
	c0,0-3.9,0.9-5.1,5.9l-0.2,3l1.4,3.8c1,0.9,1.9,1.9,2.9,2.8c0.5,0.3,1.1,0.5,1.8,0.8c0.7,0.2,1.4,0.3,1.9,0.4c0.9,0,1.7,0,2.6,0
	l2.7-1l1.6-0.9l1.8-0.8l4.6-1.4l-0.5-0.7L93.6,51L92,51.7l-1.5,0.6L89,53.1C88.9,53.4,81,55.2,76.7,49.4z"/>
<path class="st4" d="M101.1,56.4c0.3,0.1,0.6,0.2,0.9,0.3c0.5,0.1,0.9,0.2,1.3,0.2c0.4-0.1,0.8-0.1,1.3-0.2l-1.3,1l-1.6,0.7l-2,0.3
	L98.8,59l0.2-1.9c0.4-0.1,0.8-0.1,1.2-0.2C100.5,56.8,100.8,56.6,101.1,56.4z"/>
<ellipse class="st5" cx="90" cy="50.3" rx="0.8" ry="0.8"/>
<circle class="st5" cx="105.8" cy="52" r="0.8"/>
<path class="st6" d="M91.5,66.8l-3.8-1.7l-3-1.9c-0.6-0.5-1.4-1.2-2.1-1.8c-0.3,0-0.7,0-1,0l2,1.8l2.5,1.8l2.1,1.2l2,0.9L91.5,66.8z
	"/>
<path class="st7" d="M59.6,37.5l1.8,0.7l2.5,1.2l1.8,1.3l2.8,2l2.4,1.7l2.1,1.8l1.1,1l0.2,1.6l0.7,2.8l1.3,2.6l1.6,2.3l2.3,2.5
	l2.4,2.5l0.6,0.6l-1.6-0.6l-3-1.5c-1.1-0.5-2.3-1.1-3.4-1.6c-1-0.5-1.9-1-2.9-1.4c-0.5-0.3-1.1-0.5-1.6-0.8c-0.7-0.5-1.4-1-2.1-1.5
	c-0.5-0.6-0.9-1.2-1.4-1.7c-0.6-0.8-1.2-1.6-1.7-2.4c-1.1-2-2.3-4.1-3.4-6.1c-1.1-2-2.3-4.1-3.4-6.1L59.6,37.5z"/>
<polygon class="st4" points="61.7,35.3 65.2,36.4 69.5,37.9 72.1,39.1 75.3,40.6 76.5,41.1 79.4,39.1 82.3,38.4 86.6,37.9 
	90.6,38.2 89.1,36.7 86.7,35.6 85.1,34.9 82.6,34.6 80.9,34.1 79.2,33.3 77.5,32.3 75.3,31 73.2,30.3 71.8,30.1 69.8,30.6 
	66.7,32.1 64.5,33.3 "/>
<path class="st8" d="M72,29.7c0-0.1,0-0.4,0.1-0.6c0.1-0.2,0.3-0.4,0.4-0.5c0-0.4,0.2-0.5,0.3-0.5c0.1-0.1,0.2,0,0.4,0
	c0.2,0,0.3-0.2,0.4-0.4c0.2-0.1,0.4-0.2,0.8-0.2c0.4-0.1,0.8,0,1.1,0.1c0.9,0.1,1.7,0.2,2.6,0.2l4,1c1.2,0.3,2.4,0.5,3.6,0.8
	c1.3,0.3,2.6,0.7,3.9,1c0.9,0.4,1.8,0.7,2.7,1.1c1.2,0.7,2.4,1.4,3.7,2c0.5,0.3,1.2,0.7,1.8,1.5c0.4,0.4,0.7,0.8,1,1.3
	c0.2,0.2,0.4,0.5,0.6,0.9s0.3,0.8,0.4,1.2c0.1,0.1,0.4,0.5,0.3,1.1c0,0.6-0.4,0.9-0.4,1l-0.3,0.5c-0.4-0.3-0.9-0.7-1.3-1
	c-0.7-0.3-1.5-0.5-2.2-0.8c-0.7-0.2-1.5-0.5-2.2-0.7c-0.9-0.2-1.9-0.3-2.8-0.5c-0.6-0.5-1.3-1.1-1.9-1.6L86,35.2l-1.8-0.4L82,34.4
	l-2-0.6l-2.6-1.5L75.1,31l-2.3-0.8C72.5,30,72.3,29.9,72,29.7z"/>
<polygon class="st9" points="60.3,37 61.7,37.5 63.4,38.4 65.6,39.6 69.4,42 70.8,43.1 72.7,44.4 74.1,45.8 74.5,45.8 74.9,44.3 
	75.8,42.2 74.9,41.5 71.3,39.7 68.6,38.4 65.2,37 61.7,36.1 60.4,35.7 59.7,35.8 59.6,36.3 "/>
<polygon class="st10" points="74.7,56.3 74.3,55.8 74.5,55.2 75.1,55.1 75.7,55.4 76.1,55.9 76.1,56.4 75.7,56.6 75.3,56.8 
	74.9,56.6 "/>
<path class="st11" d="M74.5,56.5c0,0,0.6,0.8,1.8,0l-0.1,0.4l-0.4,0.4l-0.5,0.1l-0.4-0.3L74.5,56.5z"/>
<path class="st12" d="M73,54.2l-0.1-0.4l0.3-0.3h0.4l0.3,0.1c0,0,0,0.2,0,0.3s-0.2,0.4-0.2,0.4l-0.3,0.1L73,54.2z"/>
<path class="st12" d="M77.1,58.2v-0.4c0,0,0.1-0.3,0.2-0.3s0.3-0.1,0.3-0.1l0.4,0.2l0.2,0.3c0,0,0,0.2,0,0.3S78,58.5,78,58.5
	c-0.1,0-0.4,0.1-0.4,0.1h-0.3L77.1,58.2z"/>
<linearGradient id="SVGID_2_" gradientUnits="userSpaceOnUse" x1="5.2152" y1="47.701" x2="136.2061" y2="47.701" gradientTransform="matrix(1 0 0 -1 0 141.7323)">
	<stop  offset="0.334" style="stop-color:#D7EAD1"/>
	<stop  offset="0.4374" style="stop-color:#B9DEDC"/>
	<stop  offset="0.6158" style="stop-color:#8CC9EA"/>
	<stop  offset="0.7737" style="stop-color:#73B7E5"/>
	<stop  offset="0.9034" style="stop-color:#68ACDE"/>
	<stop  offset="0.9889" style="stop-color:#63A7DC"/>
</linearGradient>
<path class="st13" d="M15.1,70l31.5,11.3l17.2,6.8l4.6,1.6l23.5,9.6l13.4,5.7l11,3.4l13.8,5.1c5.1,1.7,6.2,2.6,6.1,3.2
	c-0.3,2.6-22.2,3.4-43.4-0.7c-16-3.1-33.8-9.5-33.2-12.1c0.1-0.6,1.5-0.9,2.7-1.2C40.6,95,30.1,89.6,30.7,87.1
	c0.2-0.8,1.8-1.5,4.8-1.6c-8.4-3.1-16.8-6.4-25.2-9.5c-0.5-0.1-2.5-0.3-3.9-2c-0.2-0.3-1.7-2-1-3.4c0.6-1.4,3.1-1.4,5-1.4
	C12.5,69.3,14.1,69.7,15.1,70z"/>
<polygon class="st12" points="59.7,37.3 60.3,37 64.3,38.8 68.2,41.2 71.3,43.4 73.3,45.1 74.4,46.1 74.5,47.4 72.1,45.5 67.1,41.7 
	63.1,39.1 60.7,37.9 "/>
<polygon class="st14" points="61.5,35.6 61.9,35.3 65.6,36.5 69.9,38.2 73.3,39.6 76.1,41.1 76.7,41.5 75.8,42.2 72.2,40.1 
	68.3,38.2 64.2,36.7 62,36.2 60.9,35.8 "/>
<path class="st15" d="M106.8,46.4l-0.9-0.8l-3-1.2l-2.6,0.2l0.1,2.5c0,0.1,0,0.1,0,0.2c0.2,1.9-0.1,3.8-0.2,5.7l0.2,0.1l0.7,2.4
	l0.2,0.7l2.1,0.5l1.3-0.2l1.7-2.1l1-1.6l0.3-2.9L106.8,46.4z"/>
<path class="st15" d="M90.8,52.1c0.7-1.2,1-2.5,1.4-3.8c-0.1,0-0.1,0-0.1,0c-2.6-9.6-14-6.6-14-6.6c-4.2,3.3-1.5,7.6-1.5,7.6
	c4.2,6.2,12.9,3.7,12.9,3.7L90.8,52.1z"/>
<path class="st16" d="M13.2,39.1l16.2,6.5l14.3,6.1l12.8,5.6l14,6.1l13,5.8c1.1,0.3,2.2,0.6,3.3,0.9c0.4-0.3,0.9-0.6,1.3-1
	c0.4-0.4,0.9-0.8,1.2-1.1c0,0.1-0.1,0.2-0.1,0.2c-0.1,0.1-0.3-0.1-0.4-0.1c-2-0.7-3.4-1.5-4.1-1.8c-1-0.5-2.5-1.2-4.5-1.7
	c-6.5-2.7-13-5.5-19.5-8.2l-18.2-7.3l-13.5-5l-9.1-3l-6.3-2L13.2,39.1z"/>
<linearGradient id="SVGID_3_" gradientUnits="userSpaceOnUse" x1="15.9" y1="68.2323" x2="42.8" y2="68.2323" gradientTransform="matrix(1 0 0 -1 0 141.7323)">
	<stop  offset="0" style="stop-color:#7A4E54"/>
	<stop  offset="0.4145" style="stop-color:#50283E"/>
	<stop  offset="0.7889" style="stop-color:#2E132B"/>
	<stop  offset="0.997" style="stop-color:#240F26"/>
</linearGradient>
<polygon class="st17" points="15.9,70.3 20.2,71.4 26.7,72.6 32.9,74 39.6,75.8 42.8,76.8 42.3,76 41.9,75.5 33.3,72.2 29.4,71.2 
	24.8,70.4 20.2,70.2 "/>
<linearGradient id="SVGID_4_" gradientUnits="userSpaceOnUse" x1="20.2" y1="63.8823" x2="54.4" y2="63.8823" gradientTransform="matrix(1 0 0 -1 0 141.7323)">
	<stop  offset="0.2111" style="stop-color:#CE8281"/>
	<stop  offset="0.3081" style="stop-color:#B77174"/>
	<stop  offset="0.532" style="stop-color:#894D5B"/>
	<stop  offset="0.7301" style="stop-color:#67334A"/>
	<stop  offset="0.8928" style="stop-color:#51233E"/>
	<stop  offset="1" style="stop-color:#491C3A"/>
</linearGradient>
<polygon class="st18" points="21.7,72.4 54.4,84.3 48.3,80.3 46.5,78.3 35.6,74.6 22.9,71.9 20.2,71.4 "/>
<linearGradient id="SVGID_5_" gradientUnits="userSpaceOnUse" x1="68.4" y1="42.5132" x2="132.0339" y2="42.5132" gradientTransform="matrix(1 0 0 -1 0 141.7323)">
	<stop  offset="0.2129" style="stop-color:#713B50"/>
	<stop  offset="0.2318" style="stop-color:#764152"/>
	<stop  offset="0.3993" style="stop-color:#9B6F66"/>
	<stop  offset="0.5475" style="stop-color:#B69174"/>
	<stop  offset="0.6692" style="stop-color:#C9A77E"/>
	<stop  offset="0.7494" style="stop-color:#CFAF80"/>
</linearGradient>
<path class="st19" d="M68.4,89.8l20.5,8.5l10.2,4c0,0,9.9,4.3,10,4.3s10.4,3.4,16.6,2l3.7-1l2.7-1.5l-0.9-0.4H129h-2.1l-1.9,0.8
	l-3.2,0.6l-2.6,0.2l-5.8-0.7l-5.2-1.8l-11.5-4.6l-6-3l-4.8-2.5L79.8,92l-4-1L71,89.5L68.4,89.8z"/>
<linearGradient id="SVGID_6_" gradientUnits="userSpaceOnUse" x1="76.9" y1="43.1823" x2="129.8" y2="43.1823" gradientTransform="matrix(1 0 0 -1 0 141.7323)">
	<stop  offset="0.2983" style="stop-color:#1C0E19"/>
	<stop  offset="0.4867" style="stop-color:#240F26"/>
	<stop  offset="1" style="stop-color:#7A4E54"/>
</linearGradient>
<polygon class="st20" points="79.2,89.8 78.3,90.4 77.5,90.3 76.9,91 83.1,93.5 90.4,97.2 99.1,101.4 109.2,105.1 115,106.9 
	121.2,107.3 125.7,106.2 128.9,105.8 129.8,105.5 128.4,104.6 126.1,104.4 122.5,105.3 117.7,105.6 111.7,104.8 107,103.6 
	101,100.9 92.8,97 82.6,91.4 "/>
<polygon class="st21" points="75.9,65.6 76.3,63.8 77,62.8 78,63.3 77.5,64.3 77,65.6 77.1,66.2 "/>
<polygon class="st6" points="78,66.6 78.2,65.5 79.4,64.1 80.1,64.4 79.9,65.7 79.6,67.3 "/>
<polygon class="st21" points="81.6,67.9 83.6,65.5 84.6,66 85.2,66.2 84.6,67 84.3,67.9 84.5,69.1 83.5,69 "/>
<path class="st6" d="M85.3,69.4l0.3-1c0-0.2,0.2-0.4,0.4-0.7c0.5-0.5,1.2-0.5,1.3-0.5c0.1,0.1,0.3,0.2,0.4,0.3l1.5,0.5l-0.8,0.6
	l-0.9,0.8l-0.8,0.5h-1.1L85.3,69.4z"/>
<polygon class="st12" points="77.1,66.2 77.2,65 78,63.3 79.1,63.7 79.4,64.1 78.5,64.8 78.2,65.5 78,66.6 "/>
<polygon class="st12" points="79.6,67.3 79.9,65.7 80.1,64.4 81.6,64.9 83.6,65.5 82.6,66.6 81.6,67.9 80.5,67.7 "/>
<path class="st12" d="M84.5,69.1l-0.2-1.2l0.4-1.3c0.2-0.1,0.3-0.3,0.4-0.4c0.3,0.1,0.6,0.2,0.9,0.3c0.4,0.2,0.8,0.4,1.1,0.6
	c-0.4,0.2-0.7,0.5-1.1,0.7c-0.1,0.1-0.2,0.3-0.2,0.4l-0.2,0.9H84.5z"/>
<polygon class="st22" points="32.2,46.1 76.3,63.8 77,62.8 48.2,51.2 32.2,45.1 "/>
<path class="st6" d="M31.9,46.7c0.1-0.6,0.2-1.2,0.3-1.8L27.7,43l-0.4,1.7C28.7,45.4,30.3,46.1,31.9,46.7z"/>
<polygon class="st6" points="25.2,43.7 25.6,42.8 24,42.2 24.1,43.3 "/>
<path class="st12" d="M25.2,43.7c0.2-0.3,0.3-0.6,0.5-1c0.6,0.2,1.3,0.5,1.9,0.7L27,44.5L25.2,43.7z"/>
<path class="st1" d="M89,68.1c-0.9,1-3.2,1.9-2.4,3.7c0.8,1.8,3.5,0.6,4.7,0.1c1.3-0.6,3.9-1.7,3-3.5c-0.7-1.8-3.6,0.7-4.3,1.3
	c-0.1,0.1,0,0.3,0.1,0.2c0.7-0.5,3.9-3.2,4.1-0.8c0.1,1.4-2.3,2.2-3.4,2.7c-1.3,0.6-3.7,1.5-4.4-0.4c-0.4-1.3,1.8-2.2,2.5-2.9
	C89.3,68.2,89.1,68,89,68.1L89,68.1z"/>
<path class="st1" d="M93.7,67.6c-1.5-1.8-3.4-0.7-4.7,0.5c-0.1,0.1,0.1,0.3,0.2,0.2c1.3-1.2,3-2.3,4.4-0.5
	C93.6,67.9,93.8,67.7,93.7,67.6L93.7,67.6z"/>
<path class="st1" d="M45.9,74.4c-1.2-0.6-3-0.8-3.7,0.7c-0.8,2.2,3.1,2.5,4.3,2.9c0.1,0.1,0.2-0.2,0.1-0.2c-1.3-0.5-2.6-0.4-3.8-1.4
	c-1.3-1,0.2-2.3,1.3-2.3C44.7,74.1,45.4,74.3,45.9,74.4C45.9,74.6,46,74.5,45.9,74.4L45.9,74.4z"/>
<path class="st1" d="M72.1,29.3c-0.4-0.6-1.7-2.4-4.1-3.1c-0.8-0.3-2.8-0.7-4.9,0.3c-1.3,0.6-2.1,1.9-2.2,3.4
	c-0.1,1.7,1.2,3.1,2.4,4.1c0.2,0.2,0.5-0.2,0.3-0.3c-1.2-0.9-2.2-2.1-2.2-3.6c-0.1-1.3,0.6-2.3,1.7-2.9c1.2-0.8,2.6-0.9,4-0.6
	c0.8,0.1,1.7,0.5,2.4,0.9c0.6,0.3,2.2,1.2,2,2.1c0,0.2,0.1,0.2,0.2,0.3c0,0,0.2,0,0.3-0.2C72.1,29.5,72.1,29.4,72.1,29.3z"/>
<path class="st1" d="M68,31.1c0.3-0.6,0-1.5-0.7-1.8c-0.7-0.4-1.7-0.1-2,0.5s0,1.5,0.7,1.8C66.8,32,67.7,31.8,68,31.1z"/>
<path class="st1" d="M80.6,24c-2.1-0.1-3.6,1.8-4.4,3.6c0.2,0,0.3,0,0.5,0.1c0.6-1.3,1.6-2.5,2.8-3c1-0.4,2.2-0.1,2.9,0.6
	c1,0.9,0.8,2.4,0.2,3.6C82.5,29,83,29.2,83.1,29C84.3,26.8,83.2,24,80.6,24z"/>
<ellipse transform="matrix(0.1726 -0.985 0.985 0.1726 22.8665 121.0258)" class="st23" cx="83.5" cy="46.9" rx="8.7" ry="8.9"/>
<path class="st1" d="M89.4,46.2c-1.6-0.3-3.1,0.7-3.4,2.3s0.8,3,2.4,3.2c1.6,0.3,3.1-0.7,3.4-2.3C92.2,48,91,46.5,89.4,46.2z
	 M89.9,51c-0.4-0.1-0.7-0.5-0.6-0.9s0.5-0.7,0.9-0.6c0.4,0.1,0.7,0.5,0.6,0.9C90.7,50.8,90.3,51.2,89.9,51z"/>
<path class="st1" d="M94.8,51.6c0.1,0,0.2,0,0.3,0c0-0.1,0-0.2,0-0.2c-1.7,0.2-4,1-4.4,2.9c-0.4,2,2.1,2.7,3.6,2.8
	c1,0.1,2.1-0.1,3.1-0.1c0.8-0.1,2,0.3,2.8,0c2.3-0.7,0.2-3.6-0.7-4.5c-0.1-0.1-0.2,0.1-0.2,0.2c0.6,0.6,1.2,1.4,1.5,2.2
	c0.3,0.6,0.2,1.6-0.5,1.9c-0.4,0.2-0.9,0.1-1.4,0.1c-1.4-0.1-2.7,0.1-4.1,0.1c-1.6,0-4.2-0.4-4-2.5c0.1-1.7,2.8-2.5,4.2-2.7
	c0.2,0,0.1-0.2,0-0.2S94.8,51.6,94.8,51.6C94.6,51.4,94.6,51.6,94.8,51.6L94.8,51.6z"/>
<ellipse transform="matrix(0.1726 -0.985 0.985 0.1726 30.707 138.9993)" class="st1" cx="98.1" cy="51.2" rx="2" ry="3.7"/>
<path class="st1" d="M97.5,57c-0.2,1.5-0.1,4.8-2,5.2c-1.5,0.3-2-1.4-1.9-2.4c0.1-0.9,0.3-1.9,0.7-2.7c0.1-0.1-0.1-0.2-0.2-0.1
	c-0.8,1.7-1.7,5.1,1,5.5c2.3,0.3,2.4-4.1,2.6-5.5C97.7,56.9,97.5,56.8,97.5,57L97.5,57z"/>
<path class="st1" d="M96.7,61.7c2.4,1,2.2-3.2,2.4-4.6c0-0.1-0.2-0.2-0.2,0c-0.2,1.2,0.1,5.2-2.1,4.4C96.7,61.4,96.6,61.6,96.7,61.7
	L96.7,61.7z"/>
<path class="st1" d="M105.3,48c-1.6-0.3-3.1,0.7-3.4,2.3c-0.2,1.6,0.8,3,2.4,3.2c1.6,0.3,3.1-0.7,3.4-2.3S106.8,48.2,105.3,48z
	 M105.6,52.7c-0.4-0.1-0.7-0.5-0.6-0.9s0.5-0.7,0.9-0.6c0.4,0.1,0.7,0.5,0.6,0.9C106.5,52.5,106.1,52.8,105.6,52.7z"/>
<path class="st1" d="M88.7,73.6c-2.4,3.6-1.7,8.4-4.6,11.6c-3,3.2-8.2,4.3-12.4,4.2c-5-0.2-9.7-1.9-14.3-4.1
	c-3.8-1.9-8-3.7-10.6-7.1c-0.2-0.3-0.8,0-0.6,0.3c2,2.7,5,4.5,8,6c3.6,1.8,7.1,3.5,10.9,4.5s7.7,1.5,11.4,0.6c3-0.6,6.4-1.9,8.4-4.4
	c2.6-3.2,2-7.9,4.4-11.3C89.5,73.6,88.9,73.2,88.7,73.6L88.7,73.6z"/>
<path class="st1" d="M95.2,65.9c-0.4,0.6-0.8,1.3-1.3,1.9c-0.3,0.3,0.3,0.6,0.6,0.3c0.4-0.6,0.8-1.2,1.3-1.9
	C96,65.9,95.4,65.5,95.2,65.9L95.2,65.9z"/>
<path class="st1" d="M100.5,50.4c0.4-2.9,0.1-5.9-1-8.7c-0.2-0.4-0.8-0.2-0.6,0.2c1,2.7,1.4,5.6,1,8.5
	C99.8,50.8,100.4,50.8,100.5,50.4L100.5,50.4z"/>
<path class="st1" d="M49.3,54.9c-3.2,7.4-5.1,15.8-2.7,23.8c0.1,0.4,0.8,0.2,0.6-0.2c-2.4-7.9-0.5-16,2.6-23.3
	C50,54.9,49.4,54.5,49.3,54.9L49.3,54.9z"/>
<path class="st1" d="M59.5,37.1c-4,4.1-6.5,9.2-8.7,14.5c-0.2,0.4,0.4,0.7,0.6,0.3c2.3-5.1,4.7-10.3,8.6-14.4
	C60.3,37.3,59.8,36.8,59.5,37.1L59.5,37.1z"/>
<path class="st1" d="M71.2,29.7c-3.7,1.3-6.9,3.1-9.9,5.7c-0.3,0.3,0.1,0.7,0.5,0.5c2.8-2.4,6.1-4.3,9.5-5.5
	C71.8,30.2,71.6,29.6,71.2,29.7L71.2,29.7z"/>
<path class="st1" d="M100.3,41.5c-0.5-0.1-0.9-0.1-1.5-0.1c-0.1,0-0.1,0-0.2,0c0.1,0.1,0.1,0.2,0.1,0.2c0.5,0,0.9,0.1,1.5,0.1
	c4.8,0.8,8.1,5.3,7.2,10c-0.7,4.1-4.4,7-8.6,7V59c4.4,0.1,8.2-2.9,8.9-7.2C108.6,47,105.3,42.3,100.3,41.5z"/>
<path class="st1" d="M46.7,77.9c-0.3-0.2-0.5-0.4-0.8-0.5c-0.1-0.1-0.4,0-0.4,0.1c-0.1,0.2,0,0.3,0.1,0.4c0.3,0.2,0.5,0.4,0.8,0.5
	c0.1,0.1,0.4,0,0.4-0.1C47,78.2,46.9,78,46.7,77.9L46.7,77.9z"/>
<path class="st1" d="M6.6,37.2c21.9,6,42.8,14.7,63.7,23.4c6.2,2.5,12.4,5.1,18.7,7.7c0.1-0.2,0.1-0.4,0.2-0.6
	c-0.7-0.2-1.5-0.4-2.2-0.6c-0.4-0.1-0.6,0.5-0.2,0.6c0.7,0.2,1.5,0.4,2.2,0.6c0.4,0.1,0.5-0.5,0.2-0.6C68,58.9,47,49.7,25.3,42.3
	c-6.1-2.1-12.3-4-18.5-5.8C6.4,36.4,6.2,37,6.6,37.2L6.6,37.2z"/>
<path class="st1" d="M5.7,37c5.2,1.9,10.6,3.6,15.7,5.6c5.6,2.2,11,4.5,16.5,6.8c10.7,4.6,21.3,9.3,32,13.8
	c5.6,2.4,10.8,5.2,16.6,6.9c0.4,0.1,0.6-0.5,0.2-0.6c-5.3-1.6-10.3-4.2-15.3-6.4c-5.3-2.3-10.7-4.6-15.9-6.9
	c-10.6-4.5-21-9.2-31.7-13.4c-6-2.4-12-4.3-17.9-6.5C5.5,36.3,5.3,36.9,5.7,37L5.7,37z"/>
<path class="st1" d="M12.3,41.7c12.4,4.5,24.7,8.9,37.2,13.4c0.4,0.1,0.6-0.5,0.2-0.6c-12.4-4.4-24.8-8.9-37.2-13.4
	C12,41,11.9,41.6,12.3,41.7L12.3,41.7z"/>
<path class="st1" d="M9.4,37.8c-0.6,1.5-0.7,3-0.1,4.5c0.1,0.2,0.2,0.3,0.4,0.2c1.5-0.5,2.1-1.8,2.6-3.1c0.4-1.2,0.8-2.3,1.3-3.5
	c0.2-0.6,0.5-1.5,0.4-2.2c-0.2-1.3-1.4-1.6-2.3-0.8c-1.5,0.9-2.2,2.9-2.5,4.5c-0.1,0.4,0.5,0.6,0.6,0.2c0.2-1,0.5-2.1,1.2-3
	c0.2-0.3,0.5-0.6,0.7-0.9c1.3-0.3,1.9,0,1.6,0.9c-0.1,0.4-0.3,0.9-0.4,1.3c-0.6,1.9-1.3,5-3.4,5.9C9.6,41.9,9.8,42,9.9,42
	c-0.5-1.4-0.5-2.6,0-4C10.2,37.8,9.7,37.4,9.4,37.8L9.4,37.8z"/>
<path class="st1" d="M15.5,43c-0.1,0.9-1.2,3.9,0.4,4.1c1.5,0.2,2.5-2.3,2.9-3.2s1.4-3.2,0.1-4.1c-1.5-0.9-2.4,0.9-2.7,2
	c-0.1,0.4,0.5,0.6,0.6,0.2c0.1-0.3,0.2-0.5,0.3-0.7c0.2-0.7,0.8-0.7,1.8,0c0.1,0.2-0.1,0.6-0.2,0.9c-0.2,0.8-0.5,1.7-0.8,2.4
	c-0.3,0.6-1,2-1.8,1.7c-0.6-0.3-0.2-0.8-0.2-1.5c0.1-0.5,0.1-1,0.2-1.5C16.3,42.8,15.6,42.6,15.5,43L15.5,43z"/>
<path class="st1" d="M46.9,78.2c-10-4.6-21-5.7-31.7-8.2c-0.4-0.1-0.6,0.5-0.2,0.6c10.6,2.4,21.5,3.6,31.5,8.1
	C46.9,78.9,47.2,78.3,46.9,78.2L46.9,78.2z"/>
<path class="st1" d="M68.3,90.1c4.7,1.7,9.3,3.7,13.8,5.7c4.3,1.9,8.7,3.5,13,5.3c7.7,3.2,15.4,7.3,23.8,8.2
	c4.7,0.4,9.2-0.4,13.4-2.6c0.2-0.1,0.2-0.4,0-0.6c-0.3-0.2-0.6-0.5-1-0.4c-0.2,0-0.2,0.2-0.2,0.3c-0.1,0.5,0.7,0.8,1.2,0.7
	c0.3-0.1,0.3-0.5,0.1-0.6c-3.1-1.9-6.4-0.2-9.6,0.6c-4.3,1.2-9.1-0.2-13.2-1.6c-4.3-1.5-8.7-3-12.8-5c-3.9-1.9-7.7-4-11.5-6
	c-2-1-4.1-2-6.3-2.7c-2.4-0.8-4.8-1.2-7.2-1.9c-0.4-0.1-0.6,0.5-0.2,0.6c2,0.5,4.1,0.9,6.1,1.5c2.2,0.6,4.4,1.6,6.4,2.6
	c3.9,1.8,7.5,4,11.3,5.9c3.9,1.9,7.9,3.4,12,4.8c4,1.5,8.2,2.7,12.5,2.8c4.1,0.1,8.4-3.5,12.4-1.2c0-0.2,0.1-0.4,0.1-0.6
	c-0.4,0.1-0.5,0.3-0.1,0.6c0-0.2,0-0.4,0-0.6c-8,4.3-16.8,2.6-24.8-0.4c-4-1.6-7.9-3.4-11.8-5.1c-4.2-1.8-8.4-3.4-12.6-5.1
	c-4.7-2-9.4-4.1-14.3-5.9C68,89.3,67.8,90,68.3,90.1L68.3,90.1z"/>
<path class="st1" d="M15,70.3c13.2,4.7,26.5,9.3,39.6,14.4c0.4,0.2,0.5-0.5,0.2-0.6C41.7,79,28.4,74.4,15.2,69.7
	C14.7,69.6,14.6,70.2,15,70.3L15,70.3z"/>
<path class="st1" d="M79.5,90.1c8.4,3.9,16,9.3,24.6,12.7c4.2,1.7,8.6,2.7,13,3c2.2,0.1,4.3,0,6.4-0.4c1.9-0.3,4.8-1.5,6.2,0.4
	c0.3,0.3,0.8,0,0.6-0.3c-0.9-1.2-2.3-1.5-3.7-1.4c-2,0.2-4,0.7-6.1,0.9c-4.9,0.3-9.7-0.6-14.4-2.3c-9.3-3.2-17.4-9-26.3-13.2
	C79.4,89.4,79.1,90,79.5,90.1L79.5,90.1z"/>
<path class="st1" d="M76.2,91.2c0.5,0.3,1.2,0.1,1.4-0.5s-0.1-1.3-0.7-1.6c-0.4-0.2-0.7,0.4-0.3,0.6c0.3,0.1,0.4,0.4,0.4,0.7
	c-0.1,0.3-0.2,0.3-0.4,0.2C76.2,90.4,75.8,90.9,76.2,91.2L76.2,91.2z"/>
<path class="st1" d="M77.4,90.7c0.6,0.2,1.6,0.2,2-0.4c0.3-0.5,0.2-1.4-0.3-1.6c-0.4-0.2-0.7,0.4-0.3,0.6c0.3,0.1,0.3,0.5,0.1,0.7
	c-0.3,0.3-0.8,0.2-1.2,0.1C77.2,89.8,77,90.5,77.4,90.7L77.4,90.7z"/>
<path class="st1" d="M16.5,42.7c0.1-0.1,0.1-0.1,0.2-0.2c0.3-0.3-0.2-0.8-0.5-0.5c-0.1,0.1-0.1,0.1-0.2,0.2
	C15.7,42.4,16.2,43,16.5,42.7L16.5,42.7z"/>
<path class="st1" d="M96.4,69.6c-0.3-0.6-0.8-0.7-1.5-0.5c0,0.1-0.1,0.1-0.1,0.1l-0.1,0.1c0,0.1,0,0.1,0,0.1
	c0.7-0.3,1.5-0.2,1.6,0.8c0.1,1.4-2.3,2.2-3.4,2.7c-1.3,0.6-3.7,1.5-4.4-0.4c-0.1,0-0.2,0-0.2,0c0,0.2,0.1,0.3,0.2,0.4
	c0.8,1.8,3.5,0.6,4.7,0.1C94.6,72.4,97.1,71.4,96.4,69.6z"/>
<path class="st1" d="M33.2,38.6c3.4,1.4,6.7,2.7,10.1,4c0.2,0.1,0.3-0.2,0.1-0.3c-3.4-1.3-6.7-2.6-10.1-4
	C33.1,38.2,33.1,38.5,33.2,38.6L33.2,38.6z"/>
<path class="st1" d="M23.2,34.4c2.3,0.9,4.6,2,6.9,2.9c0.2,0.1,0.3-0.2,0.1-0.3c-2.3-0.9-4.6-1.9-6.8-2.9
	C23.2,34,23.1,34.3,23.2,34.4L23.2,34.4z"/>
<path class="st1" d="M28.9,33.7c3.6,1.8,7.1,3.6,10.7,5c0.2,0.1,0.3-0.2,0.1-0.3c-3.7-1.6-7.1-3.1-10.7-5
	C28.8,33.3,28.7,33.6,28.9,33.7L28.9,33.7z"/>
<path class="st1" d="M35.6,34.8c0.6,0.3,1.3,0.6,1.9,0.9c0.2,0.1,0.4-0.2,0.2-0.3c-0.6-0.3-1.3-0.6-1.9-0.9
	C35.6,34.4,35.3,34.7,35.6,34.8L35.6,34.8z"/>
<path class="st1" d="M45.6,86.7c12.4,4.5,24.3,10.2,36.3,15.7c0.2,0.1,0.4-0.2,0.2-0.3c-12-5.6-23.9-11.3-36.3-15.7
	C45.5,86.4,45.4,86.7,45.6,86.7L45.6,86.7z"/>
<path class="st1" d="M19.7,77.5c7.5,2.2,14.8,5.2,22.1,7.9c0.2,0.1,0.3-0.2,0.1-0.3c-7.3-2.6-14.7-5.6-22.1-7.9
	C19.6,77,19.5,77.4,19.7,77.5L19.7,77.5z"/>
<path class="st1" d="M7.5,73.4c2.9,0.9,5.9,1.9,8.8,2.8c0.2,0.1,0.3-0.3,0.1-0.3c-2.9-0.9-5.9-1.9-8.8-2.8
	C7.3,73.1,7.2,73.4,7.5,73.4L7.5,73.4z"/>
<path class="st1" d="M50.6,93.7c9.7,3.9,19.3,8.5,29,12.5c0.2,0.1,0.3-0.2,0.1-0.3c-9.7-4.1-19.3-8.6-29-12.5
	C50.5,93.3,50.4,93.6,50.6,93.7L50.6,93.7z"/>
<path class="st1" d="M41.8,90.1c1.8,0.7,3.6,1.5,5.3,2.2c0.2,0.1,0.3-0.2,0.1-0.3c-1.8-0.7-3.6-1.5-5.3-2.2
	C41.7,89.7,41.6,90,41.8,90.1L41.8,90.1z"/>
<path class="st1" d="M36.3,87.8c0.7,0.3,1.4,0.5,2.1,0.8c0.2,0.1,0.3-0.2,0.1-0.3c-0.7-0.3-1.4-0.5-2.1-0.8
	C36.2,87.4,36.1,87.7,36.3,87.8L36.3,87.8z"/>
<path class="st1" d="M65.2,105.3c2.2,0.6,4.4,1.4,6.5,2.1c0.2,0.1,0.3-0.3,0.1-0.3c-2.2-0.6-4.4-1.4-6.5-2.1
	C65.1,104.9,65,105.2,65.2,105.3L65.2,105.3z"/>
<path class="st1" d="M90.6,54.2c-1.2,2.2-1,4.4,0.4,6.3c0.7,0.9,1.7,1.8,2.7,2.4c0.6,0.4,1.3,0.7,1.9,1c0.3,0.2,1,0.4,1.2,0.7
	c0.4,0.9-0.9,0.8-1.5,0.9c-0.2,0-0.2,0.3,0,0.3c0.6-0.1,1.3-0.2,1.9-0.3c0.1,0,0.1-0.1,0.1-0.2c0-0.8-0.6-1.3-1.4-1.6
	c-1-0.5-2.2-1.2-3.1-1.9C90.3,59.8,89.1,57.1,90.6,54.2C90.9,54.2,90.7,54,90.6,54.2L90.6,54.2z"/>
<path class="st1" d="M96,65.6c-0.9,0-1.7-0.3-2.4-0.9c-0.2-0.1-0.4,0.1-0.2,0.2c0.7,0.6,1.7,0.9,2.6,1C96.2,65.9,96.2,65.6,96,65.6
	L96,65.6z"/>
<path class="st1" d="M76.1,42.8c5.3-3.1,15.2-1.2,15.8,6.1c0,0.2,0.3,0.2,0.3,0c-0.6-7.4-10.8-9.6-16.4-6.4
	C75.8,42.6,76,42.9,76.1,42.8L76.1,42.8z"/>
<path class="st1" d="M100.2,45c2.3-0.6,4.7-0.1,6.5,1.7c0.2,0.2,0.4-0.1,0.2-0.2c-1.8-1.8-4.4-2.4-6.8-1.7
	C99.9,44.7,100,45,100.2,45L100.2,45z"/>
<path class="st1" d="M74.3,46.2c2.6,6,9.2,8.9,15.4,7c0.2-0.1,0.1-0.4-0.1-0.3c-6.1,1.9-12.5-1-15-6.9C74.5,45.9,74.2,46,74.3,46.2
	L74.3,46.2z"/>
<path class="st1" d="M101.1,56.6c1.2,0.5,2.3,0.6,3.6,0.3c0.2-0.1,0.1-0.4-0.1-0.3c-1.2,0.3-2.3,0.2-3.2-0.3
	C101.1,56.2,100.9,56.5,101.1,56.6L101.1,56.6z"/>
<path class="st1" d="M87.1,67.2c-1,0-1.8,0.9-1.8,1.9c0,0.2,0.3,0.2,0.3,0c-0.1-0.8,0.5-1.6,1.4-1.6C87.3,67.5,87.3,67.2,87.1,67.2
	L87.1,67.2z"/>
<path class="st1" d="M84.9,66.1c-0.6,0.7-0.8,1.7-0.6,2.6c0.1,0.2,0.4,0.1,0.3-0.1c-0.2-0.8-0.1-1.7,0.5-2.3
	C85.3,66.2,85.1,66,84.9,66.1L84.9,66.1z"/>
<path class="st1" d="M83.1,65.6c-0.5,0.8-1.2,1.6-1.7,2.4c-0.1,0.2,0.2,0.3,0.3,0.2c0.5-0.8,1.2-1.6,1.7-2.4
	C83.6,65.6,83.2,65.5,83.1,65.6L83.1,65.6z"/>
<path class="st1" d="M79.7,67.4c0.5-1,0.7-2.1,0.5-3.2c0-0.2-0.3-0.1-0.3,0.1c0.2,1,0,2.1-0.5,3C79.3,67.4,79.6,67.6,79.7,67.4
	L79.7,67.4z"/>
<path class="st1" d="M78.1,66.4c0.2-0.8,0.6-1.7,1.4-2.2c0.2-0.1,0-0.4-0.2-0.3c-0.8,0.5-1.3,1.5-1.5,2.4
	C77.8,66.5,78.1,66.6,78.1,66.4L78.1,66.4z"/>
<path class="st1" d="M77.1,66c0.2-0.9,0.5-1.8,1-2.6c0.1-0.2-0.2-0.3-0.3-0.2c-0.5,0.8-0.9,1.8-1.2,2.7C76.7,66.1,77.1,66.2,77.1,66
	L77.1,66z"/>
<path class="st1" d="M76,65.9c0.2-0.9,0.5-1.9,0.9-2.8c0.1-0.2-0.2-0.4-0.3-0.2c-0.4,0.9-0.7,1.9-0.9,2.9C75.6,66,75.9,66.1,76,65.9
	L76,65.9z"/>
<path class="st1" d="M23.9,42.1c0,0.3,0,0.7-0.1,1c0,0.2,0.3,0.2,0.3,0c0-0.3,0-0.7,0.1-1C24.2,41.9,23.9,41.9,23.9,42.1L23.9,42.1z
	"/>
<path class="st1" d="M25.5,43c-0.1,0.1-0.1,0.1-0.1,0.2c-0.1,0.2,0.1,0.4,0.2,0.2c0.1-0.1,0.1-0.1,0.1-0.2
	C25.9,43,25.6,42.8,25.5,43L25.5,43z"/>
<path class="st1" d="M27.5,43.4c-0.1,0.3-0.3,0.5-0.4,0.8c-0.1,0.2,0.2,0.3,0.3,0.2c0.1-0.1,0.2-0.2,0.2-0.3
	c0.1-0.2-0.2-0.3-0.3-0.2c-0.1,0.1-0.2,0.2-0.2,0.3c0.1,0.1,0.2,0.1,0.3,0.2c0.1-0.3,0.3-0.5,0.4-0.8C27.9,43.4,27.6,43.2,27.5,43.4
	L27.5,43.4z"/>
<path class="st1" d="M32,45.5c-0.1,0.3-0.2,0.7-0.3,1c-0.1,0.2,0.3,0.3,0.3,0.1c0.1-0.3,0.2-0.7,0.3-1C32.4,45.4,32.1,45.3,32,45.5
	L32,45.5z"/>
<path class="st1" d="M97.6,65.1c0.1-1.2-0.2-2.3-1-3.1c-0.1-0.2-0.4,0.1-0.2,0.2c0.7,0.8,1,1.8,0.9,2.9
	C97.2,65.3,97.5,65.3,97.6,65.1L97.6,65.1z"/>
<path class="st1" d="M88.4,54.4c2.3-1.6,4.8-2.5,7.7-2.6c0.2,0,0.2-0.3,0-0.3c-2.8,0.2-5.5,1-7.9,2.7C88.1,54.2,88.3,54.5,88.4,54.4
	L88.4,54.4z"/>
<path class="st1" d="M79.5,39.2c6.8-2.1,14.2-1.3,20.2,2.4c0.2,0.1,0.3-0.2,0.2-0.3c-6.2-3.7-13.7-4.5-20.5-2.4
	C79.2,39,79.3,39.3,79.5,39.2L79.5,39.2z"/>
<path class="st1" d="M87.4,38.8c-3.7,0-7.7,0.5-10.2,3.6c-2.1,2.5-2.2,6.2,0.4,8.4c0.2,0.1,0.4-0.1,0.2-0.2
	c-2.8-2.4-2.2-6.5,0.4-8.8c2.5-2.2,5.9-2.5,9.1-2.5C87.7,39.1,87.7,38.8,87.4,38.8L87.4,38.8z"/>
<path class="st1" d="M87.8,39.3c1.5-0.1,2.8,0.4,4.2,0.8c1.3,0.3,2.4,0.6,3.7,1c2.6,0.7,5.2,1.5,7.9,2.1c0.2,0.1,0.3-0.3,0.1-0.3
	c-2.7-0.7-5.6-1.6-8.4-2.3c-1.4-0.4-2.7-0.7-4.2-1.2c-1-0.3-2.1-0.6-3.2-0.5C87.5,38.9,87.5,39.3,87.8,39.3L87.8,39.3z"/>
<path class="st1" d="M74.8,46.4c-0.8-1.3-2-2.1-3.1-3c-1.6-1.2-3.2-2.4-5-3.5c-1.2-0.7-2.4-1.6-3.8-2.1c-0.5-0.2-1-0.4-1.6-0.6
	c-0.3-0.1-0.6-0.2-0.8-0.4c0,0-0.1,0-0.2-0.1c-0.5-0.3-0.3-0.5,0.6-0.6c0.2,0.2,0.4-0.1,0.2-0.2c-0.5-0.4-1.8-0.3-1.7,0.6
	c0.2,0.8,2.1,1.3,2.7,1.6c2.1,0.8,3.9,2,5.8,3.2c2.2,1.5,5.1,3,6.6,5.3C74.7,46.7,74.9,46.6,74.8,46.4L74.8,46.4z"/>
<path class="st1" d="M60.8,36.1c5.2,1.3,10.3,3.4,14.8,6.2c0.2,0.1,0.3-0.2,0.2-0.3c-4.6-2.8-9.6-4.9-14.9-6.2
	C60.7,35.6,60.6,35.9,60.8,36.1L60.8,36.1z"/>
<path class="st1" d="M72,30.2c0-2.8,3.2-2.9,5.2-2.4c1.5,0.3,2.9,0.8,4.3,1.3c3.1,0.8,6.4,0.8,9.3,2.2c3.5,1.6,10.8,5.3,8.3,10.2
	c-0.1,0.2,0.2,0.3,0.3,0.2c2.7-5.2-5.3-9.4-9-10.9c-1.7-0.6-3.4-1-5.1-1.4c-2.3-0.3-4.5-0.8-6.7-1.5c-2.3-0.6-6.8-1.3-6.8,2.4
	C71.6,30.4,72,30.4,72,30.2L72,30.2z"/>
<path class="st1" d="M58.7,39.1c0-0.2,0.1-0.4,0.1-0.6c-0.1,0-0.2,0-0.3,0c1.6,2.8,3.1,5.7,4.7,8.5c1.3,2.3,2.5,4.6,4.2,6.6
	c1.8,2,4.1,3.1,6.5,4.3c2.9,1.5,5.9,2.7,8.7,4.4c0.2,0.1,0.3-0.2,0.2-0.3c-2.6-1.5-5.3-2.7-8.1-4c-2.6-1.3-5.1-2.3-7.1-4.5
	c-1.8-2-2.9-4.4-4.3-6.7c-1.6-2.7-3-5.5-4.6-8.2c-0.1-0.1-0.3-0.1-0.3,0c0,0.2-0.1,0.4-0.1,0.6C58.3,39.2,58.6,39.3,58.7,39.1
	L58.7,39.1z"/>
<path class="st1" d="M74.2,46.5c-0.7,5.3,2.9,9.5,6.4,13.2c1.8,1.9,3.7,3.7,6,5c2.4,1.4,5,2.3,7.5,3.1c0.2,0.1,0.3-0.2,0.1-0.3
	c-2.3-0.8-4.7-1.7-6.9-2.8c-2.2-1.2-4.1-2.7-5.9-4.6c-3.6-3.7-7.8-8-6.9-13.5C74.7,46.4,74.2,46.3,74.2,46.5L74.2,46.5z"/>
<path class="st1" d="M81.3,61.4c2.6,2.6,5.7,4.6,9.1,6c0.2,0.1,0.3-0.2,0.1-0.3c-3.4-1.4-6.4-3.4-8.9-5.9C81.3,61,81,61.3,81.3,61.4
	L81.3,61.4z"/>
<path class="st1" d="M59.5,37.7c2.8,0.7,5,2.3,7.4,4c2.4,1.8,4.8,3.6,7.1,5.6c0.2,0.1,0.4-0.1,0.2-0.2c-2.3-2-4.7-3.9-7.2-5.6
	c-2.4-1.7-4.6-3.2-7.4-4.1C59.3,37.3,59.2,37.6,59.5,37.7L59.5,37.7z"/>
<path class="st1" d="M61.7,35.5c5.1,1.3,10.1,3.2,14.6,5.9c0.2,0.1,0.3-0.2,0.2-0.3c-4.6-2.6-9.5-4.6-14.7-5.9
	C61.5,35.1,61.4,35.4,61.7,35.5L61.7,35.5z"/>
<path class="st1" d="M71.5,30c1.9,0.4,3.7,1.2,5.3,2.1c1.4,0.8,2.6,1.9,4.1,2.3c1.7,0.5,3.4,0.4,4.9,0.9c1.8,0.5,3.5,1.6,4.8,2.9
	c0.2,0.1,0.4-0.1,0.2-0.2c-1.2-1-2.4-2-3.9-2.6c-1.7-0.6-3.4-0.8-5-1.2c-2-0.4-3.5-1.7-5.1-2.6c-1.7-0.9-3.4-1.6-5.1-2
	C71.4,29.6,71.3,29.9,71.5,30L71.5,30z"/>
<path class="st1" d="M74.8,56.6c-0.2-0.3-0.5-1-0.1-1.3s1,0.3,1.3,0.6c0.2,0.3,0.2,0.9-0.2,1.2C75.3,57.3,74.8,57.1,74.8,56.6
	c0-0.1-0.3-0.1-0.3,0.2c0.1,0.5,0.8,0.9,1.3,0.6c0.5-0.3,0.7-1,0.5-1.6c-0.2-0.5-1-1.2-1.7-0.9c-0.8,0.3-0.4,1.3-0.2,1.8
	C74.5,57,74.9,56.8,74.8,56.6L74.8,56.6z"/>
<path class="st1" d="M77.4,58.4c-0.3-0.2-0.2-0.9,0.2-0.8c0.2,0,0.4,0.2,0.4,0.4C78,58.3,77.7,58.4,77.4,58.4
	c-0.1-0.2-0.2,0.1-0.1,0.2c0.3,0.2,0.8,0.1,0.9-0.3c0.2-0.4-0.1-0.8-0.5-0.9c-0.4-0.1-0.8,0.1-0.9,0.4c-0.1,0.3,0,0.8,0.3,0.9
	C77.4,58.8,77.6,58.5,77.4,58.4L77.4,58.4z"/>
<path class="st1" d="M73,53.8c0.1-0.4,0.6-0.4,0.6,0.1C73.6,54.3,73.1,54.2,73,53.8c-0.1-0.1-0.4-0.1-0.3,0.2s0.4,0.5,0.7,0.5
	s0.6-0.3,0.6-0.6s-0.2-0.6-0.5-0.6s-0.6,0.2-0.7,0.5C72.7,53.9,73,54,73,53.8L73,53.8z"/>
<path class="st1" d="M89,53.5c1.3-0.6,2.6-1.3,4-1.8s2.9-1.3,4.4-0.9c0.2,0.1,0.3-0.3,0.1-0.3c-1.5-0.3-2.8,0.2-4.1,0.7
	c-1.6,0.5-3,1.3-4.5,2C88.7,53.2,88.8,53.6,89,53.5L89,53.5z"/>
<path class="st1" d="M74.3,55.4c0,0.5,0.1,1,0.5,1.5c0.4,0.3,0.9,0.1,1.3-0.3c0.1-0.2-0.1-0.4-0.2-0.2c-0.3,0.3-0.6,0.5-0.9,0.2
	c-0.2-0.3-0.3-0.6-0.3-1C74.8,55.2,74.3,55.2,74.3,55.4L74.3,55.4z"/>
<path class="st1" d="M15.7,70.2c4.6,0.1,9.2,0.1,13.7,1.2c4.3,0.9,8.4,2.6,12.4,4.3c0.2,0.1,0.3-0.2,0.1-0.3
	c-4.2-1.7-8.5-3.5-12.9-4.4s-8.8-0.9-13.3-1C15.5,69.9,15.5,70.2,15.7,70.2L15.7,70.2z"/>
<path class="st1" d="M71.4,30.3c0.1-0.1,0.3-0.1,0.4,0c0-0.1,0-0.2-0.1-0.3c-0.2,0.1-0.3,0.1-0.5,0.2s-0.1,0.4,0.1,0.3
	s0.3-0.1,0.5-0.2s0.1-0.3-0.1-0.3s-0.3,0-0.5,0.1C71.1,30,71.2,30.4,71.4,30.3L71.4,30.3z"/>
<path class="st1" d="M75.8,42.4C75.7,42.4,75.7,42.5,75.8,42.4c-0.3,0.2-0.1,0.5,0.1,0.4c0.1,0,0.1-0.1,0.1-0.1
	C76.1,42.7,76,42.3,75.8,42.4L75.8,42.4z"/>
<path class="st1" d="M99.1,41.4c-0.1,0-0.3,0-0.4,0c0,0.1,0,0.2,0.1,0.3c0.2-0.1,0.4-0.1,0.6-0.2c0.2-0.1,0.1-0.4-0.1-0.3
	c-0.2,0.1-0.4,0.1-0.6,0.2c-0.2,0.1-0.1,0.3,0.1,0.3c0.1,0,0.3,0,0.4,0S99.3,41.4,99.1,41.4L99.1,41.4z"/>
<path class="st24" d="M59.9,38.9c1.9,3.6,3.7,7.3,6,10.7c1.8,2.7,4.1,5.1,7.2,6.3c0.2,0.1,0.3-0.2,0.1-0.3c-3.6-1.4-6-4.3-7.9-7.3
	s-3.5-6.3-5.1-9.4C60.1,38.6,59.8,38.7,59.9,38.9L59.9,38.9z"/>
<path class="st24" d="M61.3,39.2c0.4,0.3,0.8,0.6,1.3,0.9c0.2,0.1,0.3-0.2,0.2-0.3c-0.4-0.3-0.8-0.6-1.3-0.9
	C61.3,38.8,61.1,39.1,61.3,39.2L61.3,39.2z"/>
<path class="st24" d="M64.2,40.9c0.5,0.3,1,0.6,1.5,1c0.2,0.1,0.4-0.1,0.2-0.2c-0.4-0.4-0.9-0.8-1.6-1.2
	C64.2,40.5,64,40.8,64.2,40.9L64.2,40.9z"/>
<path class="st24" d="M66.8,42.9c0.4,0.4,0.9,0.8,1.5,1.2c0.2,0.1,0.4-0.1,0.2-0.2c-0.5-0.5-1-0.9-1.5-1.2
	C66.9,42.4,66.6,42.8,66.8,42.9L66.8,42.9z"/>
<path class="st24" d="M69.4,44.9c0.4,0.4,0.9,0.8,1.5,1.2c0.2,0.1,0.3-0.2,0.2-0.3c-0.5-0.3-0.9-0.6-1.4-1
	C69.4,44.4,69.2,44.7,69.4,44.9L69.4,44.9z"/>
<path class="st24" d="M72.2,47.1c0.4,0.1,0.7,0.3,0.9,0.7c0.1,0.2,0.4,0,0.3-0.2c-0.2-0.4-0.6-0.7-1.2-0.9
	C72,46.7,72,47.1,72.2,47.1L72.2,47.1z"/>
<path class="st24" d="M63.8,35c0.4,0.1,0.8,0.2,1.3,0.2c0.2,0,0.3-0.3,0.1-0.3c-0.4-0.1-0.8-0.2-1.3-0.2C63.6,34.7,63.5,35,63.8,35
	L63.8,35z"/>
<path class="st24" d="M66.6,35.7c0.5,0.2,1,0.4,1.7,0.6c0.2,0.1,0.3-0.2,0.1-0.3c-0.5-0.2-1-0.4-1.7-0.6
	C66.5,35.3,66.4,35.6,66.6,35.7L66.6,35.7z"/>
<path class="st24" d="M69.6,37.2c0.3,0.2,0.7,0.3,1,0.5c0.2,0.1,0.4-0.2,0.2-0.3c-0.3-0.2-0.7-0.3-1-0.5
	C69.6,36.8,69.4,37.1,69.6,37.2L69.6,37.2z"/>
<path class="st24" d="M72.3,38.5c0.4,0,0.7,0.1,1.2,0.3c0.2,0.1,0.3-0.2,0.2-0.3c-0.4-0.3-0.8-0.4-1.3-0.4
	C72.1,38.2,72.1,38.6,72.3,38.5L72.3,38.5z"/>
<path class="st24" d="M74.5,39.4c0.3,0.1,0.6,0.2,0.8,0.4c0.2,0.1,0.4-0.1,0.2-0.2c-0.3-0.3-0.6-0.4-1-0.5
	C74.4,39.1,74.3,39.4,74.5,39.4L74.5,39.4z"/>
<path class="st24" d="M72.2,30.7c1.5,0.6,2.8,1.4,4.3,2.2c1.3,0.7,2.4,1.6,3.8,2.2c2.6,1.2,5.9,0.6,8.2,2.7c0.2,0.1,0.4-0.1,0.2-0.2
	c-2-1.8-4.7-1.7-7.1-2.4c-1.6-0.4-2.9-1.4-4.4-2.3c-1.5-0.9-3-1.7-4.6-2.4C72.2,30.3,72,30.6,72.2,30.7L72.2,30.7z"/>
<path class="st24" d="M72.7,29.4c0.4,0.2,0.8,0.3,1.3,0.5c0.2,0.1,0.3-0.2,0.1-0.3c-0.4-0.2-0.8-0.3-1.3-0.5
	C72.6,29,72.5,29.4,72.7,29.4L72.7,29.4z"/>
<path class="st24" d="M75.4,30.3c0.5,0.3,0.9,0.6,1.5,0.9c0.2,0.1,0.3-0.2,0.2-0.3c-0.5-0.3-0.9-0.6-1.5-0.9
	C75.4,29.9,75.2,30.2,75.4,30.3L75.4,30.3z"/>
<path class="st24" d="M78.4,31.9c0.4,0.3,0.8,0.5,1.3,0.6c0.2,0.1,0.3-0.3,0.1-0.3c-0.4-0.1-0.8-0.3-1.2-0.5
	C78.5,31.5,78.2,31.8,78.4,31.9L78.4,31.9z"/>
<path class="st24" d="M81.4,33.3c0.5,0.1,1.2,0.2,1.7,0.4c0.2,0.1,0.3-0.3,0.1-0.3c-0.5-0.1-1.2-0.2-1.7-0.4
	C81.3,33,81.2,33.3,81.4,33.3L81.4,33.3z"/>
<path class="st24" d="M84.9,34.1c0.4,0,0.9,0.2,1.4,0.3c0.2,0.1,0.4-0.2,0.2-0.3c-0.5-0.2-0.9-0.3-1.5-0.4
	C84.7,33.7,84.7,34.1,84.9,34.1L84.9,34.1z"/>
<path class="st24" d="M88.4,35c0.5,0.3,1,0.6,1.6,0.8c0.2,0.1,0.3-0.2,0.2-0.3c-0.5-0.3-1-0.6-1.6-0.8C88.3,34.6,88.2,34.9,88.4,35
	L88.4,35z"/>
<path class="st24" d="M91.1,36.9c0.2,0.2,0.4,0.4,0.6,0.6c0.2,0.2,0.4-0.1,0.2-0.2c-0.2-0.2-0.4-0.4-0.6-0.6
	C91.2,36.6,91,36.8,91.1,36.9L91.1,36.9z"/>
<path class="st24" d="M74.2,52.5c-0.5-1.2-0.8-2.4-0.9-3.7c0-0.2-0.3-0.2-0.3,0c0.1,1.3,0.4,2.5,0.9,3.8
	C73.9,52.8,74.3,52.7,74.2,52.5L74.2,52.5z"/>
<path class="st24" d="M77.2,39.3c2.7-1.5,5.8-2.1,8.9-1.7c0.2,0,0.2-0.3,0-0.3c-3.1-0.3-6.3,0.2-9,1.8C76.7,39.1,77,39.4,77.2,39.3
	L77.2,39.3z"/>
<path class="st24" d="M93.2,37.9c2.2-0.1,4.1,0.5,5.7,2.1c0.2,0.2,0.4-0.1,0.2-0.2c-1.6-1.6-3.7-2.3-6-2.2
	C93,37.6,93,37.9,93.2,37.9L93.2,37.9z"/>
<path class="st24" d="M80.6,64.8c0.1,0.9-0.1,1.9-0.5,2.8c-0.1,0.2,0.2,0.3,0.3,0.1c0.4-0.9,0.5-1.9,0.5-2.9
	C81,64.6,80.6,64.6,80.6,64.8L80.6,64.8z"/>
<path class="st24" d="M86.6,69.8c0-0.8,0.4-1.7,1.2-2.1c0.2-0.1,0-0.4-0.2-0.3c-0.8,0.5-1.4,1.5-1.4,2.4
	C86.3,70.1,86.6,70.1,86.6,69.8L86.6,69.8z"/>
<path class="st24" d="M74.1,44.4c0.1-0.7,0.4-1.4,0.8-2c0.1-0.2-0.2-0.3-0.3-0.2c-0.4,0.6-0.7,1.3-0.9,2.1
	C73.8,44.5,74.1,44.7,74.1,44.4L74.1,44.4z"/>
<path class="st24" d="M31.3,46.2c0.1-0.3,0.2-0.7,0.2-1c0.1-0.2-0.3-0.3-0.3-0.1c-0.1,0.3-0.2,0.7-0.2,1
	C30.9,46.3,31.3,46.4,31.3,46.2L31.3,46.2z"/>
<path class="st24" d="M28.5,44.9c0-0.4,0.2-0.7,0.5-0.9c0.2-0.1-0.1-0.4-0.2-0.2c-0.3,0.3-0.5,0.7-0.5,1.3
	C28.2,45.1,28.5,45.1,28.5,44.9L28.5,44.9z"/>
<path class="st24" d="M23,73c4.7,1.4,9.4,2.6,14.2,4c4.4,1.4,8.4,3.7,12.8,4.8c0.2,0.1,0.3-0.3,0.1-0.3c-4.4-1.2-8.5-3.5-12.8-4.8
	c-4.7-1.5-9.4-2.7-14.2-4C22.9,72.5,22.8,73,23,73L23,73z"/>
<path class="st24" d="M130,105.8c0.1,0.4,0.1,0.8-0.2,1.3c0.1,0.1,0.2,0.1,0.3,0.2c0.3-0.4,0.5-0.9,0.7-1.5c-0.1,0-0.2-0.1-0.3-0.1
	c-0.1,0.3-0.2,0.7-0.2,1c0,0.2,0.3,0.2,0.3,0.1c0-0.2,0.1-0.3,0.2-0.4c-0.1,0-0.2-0.1-0.3-0.1c0,0.2,0,0.3,0.1,0.5
	c0,0.1,0.1,0.2,0.2,0.1c0.2-0.1,0.3-0.2,0.4-0.4c0.1-0.2-0.2-0.3-0.3-0.2c-0.1,0.1-0.1,0.2-0.2,0.4c-0.1,0.2,0.1,0.2,0.2,0.2
	c0.2-0.1,0.5-0.2,0.7-0.3c0.2-0.1,0.1-0.3-0.1-0.3c-0.5-0.1-0.2,0.8,0.2,0.4c0.2-0.2-0.1-0.4-0.2-0.2c0,0.1,0.1,0.1,0.1,0.1
	c0-0.1-0.1-0.2-0.1-0.3c-0.2,0.1-0.5,0.2-0.7,0.3c0.1,0.1,0.2,0.1,0.2,0.2c0-0.1,0.1-0.2,0.1-0.3c-0.1-0.1-0.2-0.1-0.3-0.2
	c-0.1,0.1-0.1,0.2-0.3,0.3c0.1,0.1,0.2,0.1,0.2,0.1c0-0.2,0-0.3-0.1-0.5c0-0.1-0.2-0.2-0.3-0.1c-0.1,0.2-0.2,0.3-0.3,0.5
	c0.1,0,0.2,0,0.3,0.1c0-0.3,0.1-0.6,0.2-1c0.1-0.2-0.2-0.3-0.3-0.1c-0.2,0.4-0.4,0.9-0.6,1.4c-0.1,0.2,0.2,0.3,0.3,0.2
	c0.3-0.4,0.3-0.9,0.2-1.5C130.3,105.6,130,105.6,130,105.8L130,105.8z"/>
<path class="st24" d="M131.2,106.5c0.2-0.1,0.2-0.3,0-0.4s-0.4,0-0.4,0.2c0,0,0-0.1,0.1-0.1c-0.1,0.1-0.1,0.1-0.1,0.1
	c-0.2,0.2,0.1,0.4,0.2,0.2C131.1,106.5,131.1,106.5,131.2,106.5c0-0.1,0-0.1,0-0.2s0-0.1-0.2-0.1
	C130.8,106.3,130.9,106.6,131.2,106.5L131.2,106.5z"/>
<path class="st24" d="M52.8,83.8c0.9,0.4,1.9,0.9,2.8,1.4c0.1-0.1,0.1-0.2,0.1-0.3c-0.7-0.2-1.5-0.5-2.2-0.9
	c-0.1,0.1-0.1,0.2-0.2,0.3c5,2.3,10.3,4.4,15.5,6.4c0.2,0.1,0.3-0.2,0.1-0.3c-0.9-0.5-1.9-1-2.9-1.3c-0.2-0.1-0.3,0.2-0.1,0.3
	c0.9,0.3,1.8,0.6,2.6,0.9c0-0.1,0.1-0.2,0.1-0.3c-0.6-0.1-1.3-0.3-1.9-0.6c-0.1,0.1-0.1,0.2-0.1,0.3c0.6,0.2,1.4,0.4,2.1,0.6
	c0-0.1,0.1-0.2,0.1-0.3c-0.4-0.1-0.8-0.2-1.3-0.3c-0.2-0.1-0.3,0.2-0.1,0.3c0.6,0.4,1.4,0.6,2.1,0.8c0.2,0.1,0.3-0.2,0.1-0.3
	c-0.6-0.3-1.4-0.4-2.1-0.5c-0.2,0-0.2,0.2-0.1,0.3c0.8,0.4,1.7,0.7,2.6,0.9c0.2,0,0.3-0.3,0.1-0.3c-0.6-0.1-1.3-0.3-1.9-0.6
	c-0.1,0.1-0.1,0.2-0.1,0.3c1.2,0.3,2.4,0.6,3.6,0.9c0.2,0.1,0.3-0.3,0.1-0.3c-1.2-0.3-2.4-0.6-3.6-0.9c-0.2-0.1-0.3,0.2-0.1,0.3
	c0.6,0.3,1.3,0.5,2,0.6c0-0.1,0.1-0.2,0.1-0.3c-0.9-0.2-1.8-0.4-2.5-0.8c0,0.1-0.1,0.2-0.1,0.3c0.7,0.1,1.4,0.3,2,0.5
	c0-0.1,0.1-0.2,0.1-0.3c-0.7-0.2-1.4-0.4-2-0.8c-0.1,0.1-0.1,0.2-0.1,0.3c0.4,0.1,0.8,0.2,1.3,0.3c0.2,0.1,0.3-0.3,0.1-0.3
	c-0.6-0.2-1.4-0.4-2.1-0.6c-0.2-0.1-0.3,0.2-0.1,0.3c0.6,0.3,1.3,0.5,2,0.7c0.2,0,0.3-0.2,0.1-0.3c-0.9-0.3-1.8-0.6-2.6-0.9
	c0,0.1-0.1,0.2-0.1,0.3c1,0.3,1.9,0.7,2.8,1.3c0.1-0.1,0.1-0.2,0.1-0.3c-5.2-1.9-10.4-4-15.4-6.4c-0.2-0.1-0.3,0.2-0.2,0.3
	c0.7,0.4,1.5,0.7,2.3,0.9c0.2,0.1,0.3-0.2,0.1-0.3c-0.9-0.4-1.9-0.9-2.8-1.4C52.8,83.4,52.6,83.6,52.8,83.8L52.8,83.8z"/>
</svg>
