<?xml version="1.0" encoding="utf-8"?>
<!-- Generator: Adobe Illustrator 24.0.1, SVG Export Plug-In . SVG Version: 6.00 Build 0)  -->
<svg version="1.1" id="Layer_1" xmlns="http://www.w3.org/2000/svg" xmlns:xlink="http://www.w3.org/1999/xlink" x="0px" y="0px"
	 viewBox="0 0 141.7 141.7" style="enable-background:new 0 0 141.7 141.7;" xml:space="preserve">
<style type="text/css">
	.st0{fill:#609B44;}
	.st1{fill:#75CEEB;}
	.st2{fill:#FFFFFF;}
	.st3{fill:#886F68;}
	.st4{opacity:0.5;fill:url(#SVGID_1_);enable-background:new    ;}
	.st5{fill:#C9B09D;}
	.st6{fill:#FFE416;}
	.st7{fill:#79C14D;}
	.st8{fill:#EF3835;}
	.st9{fill:#F9E782;}
	.st10{fill:#F9EDBB;}
	.st11{opacity:0.6;fill:url(#SVGID_2_);enable-background:new    ;}
	.st12{opacity:0.4;fill:#FFFFFF;enable-background:new    ;}
	.st13{fill:#070707;}
	.st14{fill:none;stroke:#070707;stroke-width:0.4497;stroke-miterlimit:10;}
	.st15{fill:none;stroke:#070707;stroke-width:0.5996;stroke-miterlimit:10;}
	.st16{fill:none;stroke:#070707;stroke-width:0.2998;stroke-miterlimit:10;}
</style>
<path class="st0" d="M124.2,122.2c0-7.4-23.3-13.5-52.1-13.6S20,114.5,19.9,122c0,7.4,23.3,13.5,52.1,13.6
	C100.8,135.6,124.2,129.6,124.2,122.2z"/>
<path class="st1" d="M32.2,53.5l-0.1-4.1V46l0.2-5.2l0.3-3.5l0.5-3.3l1.1-3.5l-2-0.2l-2.7-1.2l-1.8-1.5L26.1,25l-0.4-2.5l0.4-2.4
	l1.2-2.2l1.9-2l2.3-1.4c0,0,4-2,8.2-0.4l2.2,1.8l2.9-2.6l4-2.5l4.8-1.9L58.1,8l5.6-0.6l5.8-0.7l5.1-0.5h5.1l4.5,0.6l5.5,1.5l4.6,2.1
	l3.2,2.1l1.5,1l2.8-1.1l2.3-0.5l2.9-0.2l2.7,0.4l2.2,1.1l1.7,1.9l0.9,2l0.4,1.8c0,0-0.1,1.8,0,1.9s-0.2,2-0.2,2l-0.5,1.4l-0.6,1.1
	l-0.7,0.9l-1,1l-1.3,0.9l-1.2,0.5l-1.3,0.2l0.6,2.7l0.7,4.7l0.2,2.5l0.3,6.7l0.1,4.4v3.7l-0.1,4.4l-0.1,3l0.2,2l-44.7-5.2L32.2,53.5
	z"/>
<path class="st1" d="M32.7,95.4l1.1,0.9l1.6,0.5l1.4-0.3l2,1l-1.4,1.1l-1.1,1l18.7,2l2.4-4.8l1-2.2l0.9-2.2l0.6-1.7l0.3-1.4l2.1-0.2
	l0.2,0.9l0.5,3.3l0.3,3l0.1,2.7v1.7l0.4,1.3l0.4,1.1l4.1,0.7l0.3,0.4l0.5,1l0.5,1.5l0.6,1.9l0.5,1.7l0.2,0.7l2.2,0.2l1.1-2.1
	l0.9-2.2l0.7-2.1l1-2.3l1.2-2.2l1.1-2l0.6-1.5l0.4-1.1l0.3,1.1l0.2,1.9v1.5l0.1,1.9l0.1,2.1l25.7,3.2l-0.8,1.3l-1.1,1.7l-0.9,1.6
	l-0.6,1.1l-0.9-0.3l-1.3-0.1l-1.1,0.2l-1.3,0.6l-1.4,1l-0.8,0.7l-0.5,0.7c0,0,0,0.8,0,1c-0.1,0.2-1.7,1.1-1.7,1.1l-3.3,1l-5,1
	l-6.2,1l-6.4,0.8l-7,0.4l-7.1-0.4l-3.6-0.7l-2.8-0.8l-2-1l-1.3-0.8l0.3-0.2l-0.6-0.6l-0.9-0.9l-1.2-1.3l-1.1-1.1l-1-0.7l-0.9-0.4
	l-0.9-0.1l-0.7,0.3h-0.7l-1.4-1.6l-2.3-3.5l-1.9-3.8l-1.9-5.2l-0.9-2.7L32.7,95.4z"/>
<path class="st2" d="M67.6,25.6c0-6.7-5.4-12.1-12.1-12.1s-12.1,5.4-12.1,12.1s5.4,12.1,12.1,12.1S67.6,32.3,67.6,25.6z"/>
<path class="st2" d="M98,24.3c0-6.7-5.4-12.1-12.1-12.1s-12.1,5.4-12.1,12.1s5.4,12.1,12.1,12.1S98,31,98,24.3z"/>
<polygon class="st2" points="66.3,44.9 65.9,46 65.8,47.6 65.8,49.2 66.3,50.8 66.9,51.7 67.9,52.2 68.7,52.3 69.5,52.2 70.3,51.6 
	70.7,50.9 71.2,49.9 71.5,50.7 72,51.6 72.9,52.1 73.8,52.2 75,51.9 75.8,51 76.3,50 76.5,49 76.4,47.7 76.3,46.4 76.1,45.5 
	75.8,44.3 74.6,43.9 73.2,43.6 72,43.6 70.7,43.7 69.4,44 68.2,44.3 67,44.6 "/>
<path class="st3" d="M23.5,52.5l-0.9,0.3l-0.9,0.5l-0.6,0.6c0,0-0.4,0.6-0.4,0.7c0,0.1-0.3,1-0.4,1.1c0,0.1-0.2,1.2-0.2,1.3
	s-0.2,1.5-0.2,1.5l-0.1,1.1L19.2,64l-0.7,6.5l-1.4,11.7l-0.7,6.4l1.9,0.3l3.7,0.4l4.7,0.6c0,0,2.9,0.3,3,0.4c0.1,0,2,0.2,2,0.2
	l0.5,0.3l1,0.2l0.7,0.6l2.2-1.3l2.5-1.9l1.1-0.8c0,0,1.5-0.5,1.6-0.5s1.2,0.1,1.2,0.1l0.9,0.6l0.5,0.6l0.2,0.9L44,90.6l-0.8,1
	L41.7,93l-1.3,1.2l-1.6,1.1l-1.3,1l-0.6,0.4l1.8,1l7.7,0.7L54,99l2.3-4.7l0.9-2.3l0.7-2l1,0.2h1v0.3l0.4-1.3L58,88.9l-1.6-0.4
	l-1-0.4L54,87.5l-1-0.6l-0.8-0.6l-0.7-0.5l-1.1,1l-1.5,0.9l-1.2,0.6h-1.3l-1.1-0.4l-0.6-1l-0.2-1.2l0.3-1.1l0.6-0.9l1-0.9l1-0.5
	l0.5-0.4l-0.5-1.5L46.9,79l-0.2-0.5l-0.4-1.8L46.1,75l0.1-2.1l0.4-2.1l0.5-1.5l1-2.3l1.1-1.5l1.6-1.8l1.8-1.5l1.5-0.8l1.7-0.8
	l1.6-0.5l1.8-0.3l2.5-0.1l1.5,0.2l1.6,0.4l1.4,0.5l1.8,0.8l1.8,1.3l1.7,1.5L73,66l1.1,2l0.9,2.1l0.6,2.7v1.7V76l-0.4,2.2l-0.9,2.4
	l-0.9,1.7l-1.7,2.3l-2.1,1.8l-1.4,1L66.8,88l-1.9,0.6L63.6,89l-1.3,0.1l0.1,1l0.7,0.2l0.8-0.1l0.8-0.2l0.3,0.9l0.3,1.7v1.2l0.1,1.8
	l0.2,2.3l0.1,1.4l0.2,1l0.2,0.7l0.1,0.3l1.3,0.2l1.4,0.2h1h0.3l0.4,0.8l0.3,1.3l0.5,1.9l0.2,0.9l0.4,1l0.3,0.4l1-1.9l0.8-1.7
	l1.2-2.9l1.2-3l0.9-2.2l1.1-2.6l0.7-1.7l0.6-1.3l0.5-1l0.5-1.2l0.6-1.2l0.2,0.4l0.2,1.3l0.1,1.7l0.2,1.5v1.3l0.2,2.9l0.2,2l0.1,1.5
	l0.1,1.2l0.2,0.8l0.2,0.3l1.4,0.2l7.4,0.9l5.5,0.5l4.4,0.4l8.4,0.8l0.7-0.8l1-0.6l1.5-0.1l1.2,0.2l1,0.7c0,0,0.7,1,0.8,1.1
	c0,0.1,0.3,0.6,0.3,0.6l1,0.3c0.1-0.1,1.4,0,1.4,0l2.3-18.1l2-16.9l0.5-4.1l-0.2-1.2l-0.5-1.1l-0.6-0.7l-1.4-0.6l-3.1-0.6L107.9,62
	l-20.1-2.3L74.6,58l-18.1-2.1L36.7,54l-3.2-0.4l-1.9-0.3l-0.9-0.1l-0.1,0.4v0.9l-0.2,0.9l-0.7,1.3L29,57.5l-1.1,0.7l-1,0.3h-1.2
	L24.6,58l-1-0.9L22.9,56l-0.2-1.4l0.2-0.9l0.4-0.8L23.5,52.5z"/>
<linearGradient id="SVGID_1_" gradientUnits="userSpaceOnUse" x1="16.6" y1="61.4823" x2="123.9536" y2="61.4823" gradientTransform="matrix(1 0 0 -1 0 141.7323)">
	<stop  offset="3.388100e-04" style="stop-color:#FBB780"/>
	<stop  offset="1" style="stop-color:#665522"/>
</linearGradient>
<path class="st4" d="M23.7,52.5l-0.9,0.3l-0.9,0.5l-0.6,0.6c0,0-0.4,0.6-0.4,0.7c0,0.1-0.3,1-0.4,1.1c0,0.1-0.2,1.2-0.2,1.3
	s-0.2,1.5-0.2,1.5L20,59.6L19.4,64l-0.7,6.5l-1.4,11.7l-0.7,6.4l1.9,0.3l3.7,0.4l4.7,0.6c0,0,2.9,0.3,3,0.4c0.1,0,2,0.2,2,0.2
	l0.5,0.3l1,0.2l0.7,0.6l2.2-1.3l2.5-1.9l1.1-0.8c0,0,1.5-0.5,1.6-0.5s1.2,0.1,1.2,0.1l0.9,0.6l0.5,0.6l0.2,0.9l-0.1,1.3l-0.8,1
	L41.9,93l-1.3,1.2l-1.6,1l-1.3,1l-0.6,0.4l1.8,1l7.7,0.7l7.6,0.8l2.3-4.7l0.9-2.3l0.7-2l1,0.2h1v0.3l0.4-1.3L58.2,89l-1.6-0.4
	l-1-0.4l-1.4-0.6l-1-0.6l-0.8-0.6l-0.7-0.5l-1.1,1l-1.5,0.9l-1.2,0.6h-1.3L45.5,88l-0.6-1l-0.2-1.2l0.3-1.1l0.6-0.9l1-0.9l1-0.5
	l0.5-0.4l-0.5-1.5L47.1,79l-0.2-0.5l-0.4-1.8L46.3,75l0.1-2.1l0.4-2.1l0.5-1.5l1-2.3l1.1-1.5l1.6-1.8l1.8-1.5l1.5-0.8l1.7-0.8
	l1.6-0.5l1.8-0.3l2.5-0.1l1.5,0.2l1.6,0.4l1.4,0.5l1.8,0.8l1.8,1.3l1.7,1.5l1.5,1.7l1.1,2l0.9,2.1l0.6,2.7v1.7v1.5l-0.4,2.2
	l-0.9,2.4l-0.9,1.7l-1.7,2.3l-2.1,1.8l-1.4,1L67,88l-1.9,0.6L63.8,89l-1.3,0.1l0.1,1l0.7,0.2l0.8-0.1l0.8-0.2l0.3,0.9l0.3,1.7v1.2
	l0.1,1.8l0.2,2.3l0.1,1.4l0.2,1l0.2,0.7l0.1,0.3l1.3,0.2l1.4,0.2h1h0.3l0.4,0.8l0.3,1.3l0.5,1.9l0.2,0.9l0.4,1l0.3,0.4l1-1.9
	l0.8-1.7l1.2-2.9l1.2-3l0.9-2.2l1.1-2.6l0.7-1.7l0.6-1.3l0.5-1l0.5-1.2l0.6-1.2l0.2,0.4L82,89l0.1,1.7l0.2,1.5v1.3l0.2,2.9l0.2,2
	l0.1,1.5l0.1,1.2l0.2,0.8c0,0.3,0,0.5,0,0.8c0.5,0,1.1,0.1,1.6,0.1c2.6,0.4,5.2,0.7,7.8,1.1c2,0.1,4,0.2,6,0.3
	c1.4,0.1,2.9,0.2,4.3,0.3c2.4,0.3,4.9,0.5,7.3,0.8c0.3-0.4,0.7-0.8,1-1.1l1-0.6l1.5-0.1l1.2,0.2l1,0.7c0,0,0.7,1,0.8,1.1
	c0.1,0.1,0.1,0.2,0.2,0.3c0.1,0.3,0.1,0.6,0.1,0.8c0.8-0.1,1.7-0.1,2.5-0.2l0,0l0,0l2.3-18.1l2-16.9l0.5-4.1l-0.2-1.2l-0.5-1.1
	l-0.6-0.7l-1.4-0.6l-3.1-0.6L108,62.4l-20.1-2.3l-13.2-1.7l-18.1-2.1L36.9,54l-3.2-0.4l-1.9-0.3l-0.9-0.1l-0.1,0.4v0.9l-0.2,0.9
	l-0.7,1.3l-0.7,0.8L28,58.2l-1,0.3h-1.2L24.7,58l-1-0.9L23.1,56l-0.2-1.4l0.2-0.9C23.3,53.3,23.5,52.9,23.7,52.5z"/>
<path class="st5" d="M61.1,40.7l0.4-0.8l1.4-1.5l1-0.8l0.9-0.6c0,0,1.1-0.4,1.1-0.3c0,0.1,0.8,0.1,0.8,0.1s1.8,0.8,1.8,0.9
	c0,0.1,3,0.3,3,0.3l2.2-0.6l1.2-0.7l0.5-0.3l0.8,0.3l1.7,0.9l1.2,1l0.9,0.9l0.5,0.8l0.3,1l0.1,0.6l-0.3,0.8l-0.3,0.7L80,44l-0.6,0.4
	l-0.8,0.2h-0.7l-1.2-0.2l-1.1-0.3l-1.5-0.4l-1.4-0.2h-1.1l-0.9,0.2L68.9,44L67,44.5l-1.4,0.3L64,44.7l-1-0.2l-0.9-0.4l-0.7-0.7
	L61,42.8l-0.2-0.7v-0.8L61.1,40.7z"/>
<path class="st5" d="M22.8,54.6l0.3-1.1l0.5-0.9l1-0.9l0.9-0.5l1-0.3h0.9l0.8,0.2c0,0,0.7,0.3,0.7,0.4c0,0,2.3,1.4,1.5,4.1
	c0,0-0.7,2.3-3.3,3.1c0,0-2.3,0.6-3.8-1.7C23.3,56.8,22.5,54.9,22.8,54.6z"/>
<path class="st5" d="M109.6,106.3l0.8-1.3l1.1-1l1.3-0.2h1.3l1,0.5l0.6,0.5l0.7,0.8l0.2,0.7l0.2,1l-0.3,1L116,109l-0.9,0.6l-1.4,0.5
	h-1.3l-1-0.2l-1.1-0.4l-0.7-0.7l-0.3-0.8v-1L109.6,106.3z"/>
<path class="st5" d="M95.6,117.1l0.1-0.8l0.5-0.6l0.7-0.7l1.3-0.9l1.7-0.8l1.1-0.2l1.2,0.1l0.8,0.2l0.8,0.5l1.6,1.3l1,1.2l0.6,1.1
	l0.6,1.8l0.2,1.2v0.9l-0.2,0.7L107,123l-0.5,0.5l-0.7,0.3l-1,0.2l-1.5-0.2l-1.7-0.7c0,0-1.1-0.9-1.1-0.8s-1.1-1.2-1.1-1.2l-1.2-1.4
	l-1.1-1.1l-0.9-0.7L95.6,117.1z"/>
<path class="st5" d="M39.8,115.8l-1.6,1.3l-1.1,1.1c0,0-0.6,0.9-0.7,1c-0.1,0.1-0.4,1.1-0.4,1.1v0.8l0.1,0.7l0.4,0.6
	c0,0,0.4,0.5,0.5,0.6s0.5,0.4,0.6,0.5s1.3,0.6,1.3,0.6c0.1,0,1.1,0.1,1.1,0.1l1.8-0.6l1.6-0.9l1-0.8l1.4-1.1l1.3-0.9l0.9-0.5
	c0,0,1-0.4,1-0.3c0.1,0,0.6-0.1,0.6-0.1l-0.1-0.3l-0.8-0.7l-0.9-1l-1-1.1l-1.1-1l-0.9-0.6l-0.8-0.2l-0.7-0.1l-0.6,0.1L39.8,115.8z"
	/>
<polygon class="st6" points="48.7,103.8 48.7,102.1 51.2,102.3 51.2,103.6 "/>
<path class="st6" d="M50.2,96C50.2,96,50.2,96.1,50.2,96c0,0.4-0.1,1.5-0.1,1.5h1.2l0.1-1.2l1.4-0.1v-1.3l-1.3-0.1l0.2-1.4l-1.2-0.1
	l-0.2,1.1H49L48.8,96H50.2z"/>
<path class="st7" d="M32.8,94.2l0.3-1.2l1-1.2l2.1-1.7l2.2-1.6l1.7-1.2l1.7-0.2c0,0,1,0.1,1.1,0.1c0.1,0.1,0.9,0.7,0.9,0.7l0.3,1
	c0,0-0.1,0.9,0,1s-0.2,0.9-0.3,1s-0.8,1-0.8,1s-1.3,1-1.4,1l-1.9,1.4l-1.4,1l-0.9,0.6l-1.2,0.6L35,96.8l-0.9-0.2l-1-1L32.8,94.2z"/>
<path class="st7" d="M47.8,81.5L47,82.3l-1,0.6L45,84c0,0-0.3,0.7-0.4,0.8c0,0.1-0.2,0.9-0.2,1s0.1,0.7,0.1,0.8
	c0,0.1,0.3,0.7,0.4,0.7c0.1,0,0.7,0.6,0.7,0.6l1.4,0.4l1.2-0.2c0,0,1.1-0.6,1.2-0.6s1.1-0.7,1.1-0.7l0.9-1l0.8,0.6l2.7,1.6l1.9,0.6
	l1.8,0.5l2,0.2l2.9-0.2l1.6-0.5l1.7-0.6l1.7-0.9L70,86l1.5-1.3L73,83l1-1.8l0.9-1.8l0.5-1.8l0.3-1.8v-1.9l-0.3-2.6L74.7,69l-1.2-2.3
	L73,66l-1.2-1.5l-2.7-2.3L67.2,61l-2.8-1c0,0-6.3-1.7-11.9,2.1l-2.4,2.1l-1.8,2.3c0,0-2.3,3.6-2.3,8c0,0,0.2,3.2,0.6,4l0.5,1.4
	l0.6,1.3L47.8,81.5L47.8,81.5z"/>
<path class="st1" d="M50.3,77.1L50,75.3v-1.6l0.2-1.7l0.4-1.3l0.9-2l0.9-1.5l1.4-1.5l2.2-1.5l1.6-0.7l1.8-0.4l2.2-0.1l2,0.2l1.8,0.5
	l1.5,0.8l1.5,1.1l1.4,1.4l1,1.5l0.9,2l0.5,2.3l0.1,2.3L72,77l-0.8,2.2l-1,1.6l-1.7,1.8l-2,1.4l-2.3,1L62,85.3c0,0-2.2-0.1-2.1,0
	c0.1,0-2.2-0.5-2.2-0.5l-2-0.9L54,82.7l-1.4-1.4l-1-1.5l-0.8-1.5L50.3,77.1z"/>
<polygon class="st8" points="59.2,84.2 63.2,75.4 63.7,76.6 64.1,78.9 64.2,81.5 64.5,83.8 62.6,84.4 62.4,83.7 62.3,82.6 
	62.3,81.8 61.8,82.3 61.3,83.5 60.9,84.5 "/>
<polygon class="st6" points="78.4,67.8 85.6,68.6 85.9,68.9 84.5,80.4 83.6,88.7 83.4,89.4 82.9,86.9 82.7,84.7 82.1,82.4 
	81.2,84.4 78.8,89.3 75.3,96.2 75.1,96.1 76.7,82.9 "/>
<path class="st9" d="M87.4,81.1c0.2,0,6.8,0.8,6.8,0.8l0.3,0.1l-1.2,10.3l-1,8.7l-0.2,0.2l-6.8-0.8V100L87.4,81.1z"/>
<polygon class="st10" points="94.7,101.2 96.2,88.7 96.5,88.5 103.1,89.3 103.2,89.5 101.8,102.1 "/>
<path class="st8" d="M62.6,90.5l0.6,3.3l0.3,3l0.1,2.6l0.2,1.5l0.2,1.3l0.6,1l3.9,0.6l0.6,0.6l0.4,1l0.4,1.7l0.3,1.5l0.6,1.9
	l0.2,0.7l2.1,0.2l0.6-0.9l1.5-3.5l0.7-1.6l0.8-2l0.9-1.7l1.1-2l0.6-1.2l0.6-1.4l0.3-1l0.3,1.1l0.2,1.4l0.1,1.3l0.1,1.5l0.1,1.5
	l0.1,1.7l8.7,1l12.9,1.5l6.6,0.8v-0.7l0.3-1.1l0.5-0.9l-9.4-0.9l-9.8-0.9c-2.2-0.1-4.3-0.3-6.5-0.4c-0.4-0.2-0.8-0.4-1.3-0.6
	c0-0.2-0.1-0.4-0.1-0.6l-0.7-9.7c-0.2-1.4-0.4-2.8-0.6-4.1c-1.5,3-2.9,6-4.4,9c-0.7,2.1-1.5,4.2-2.2,6.3l-1.1,2.6l-1.3,2.4
	c-0.2-0.2-0.4-0.3-0.6-0.5c-0.1-0.3-0.3-0.7-0.4-1c0-0.1-0.1-0.2-0.1-0.3c-0.2-0.6-0.3-1.2-0.5-1.8c-0.1-0.5-0.2-1-0.3-1.5
	c-0.1-0.3-0.2-0.6-0.3-0.8c-1.4-0.3-2.8-0.6-4.2-0.9c-0.1-0.8-0.3-1.5-0.4-2.3c-0.1-1.1-0.2-2.3-0.4-3.4c0-0.6-0.1-1.2-0.1-1.8
	c-0.1-0.5-0.2-1-0.3-1.5c-0.1-0.8-0.2-1.5-0.3-2.3l0,0c-0.2,0.1-0.5,0.1-0.7,0.2L62.6,90.5z"/>
<polygon class="st8" points="57.9,90 58.8,90.2 59.7,90.2 60,90.2 60,90.5 57.5,96.5 55,101.6 36.3,99.6 38.8,97.4 54,99 55.9,95 
	57.1,92.6 "/>
<polygon class="st8" points="16.1,90.9 21.1,91.6 24,92 27.3,92.3 29.4,92.6 29.9,92.7 32.2,90.6 30.2,90.3 21,89.2 16.4,88.5 "/>
<polygon class="st8" points="116.6,106.5 116.8,107.2 116.8,107.9 116.5,108.4 116.4,108.9 117.7,109 118.9,109 119.2,106.6 
	117.4,106.5 "/>
<radialGradient id="SVGID_2_" cx="60.9212" cy="67.2823" r="11.1559" gradientTransform="matrix(1 0 0 -1 0 141.7323)" gradientUnits="userSpaceOnUse">
	<stop  offset="0.5744" style="stop-color:#151011;stop-opacity:0"/>
	<stop  offset="0.7977" style="stop-color:#151011;stop-opacity:0.6512"/>
	<stop  offset="0.8094" style="stop-color:#191716;stop-opacity:0.6685"/>
	<stop  offset="0.8609" style="stop-color:#272C20;stop-opacity:0.7446"/>
	<stop  offset="0.9109" style="stop-color:#303A25;stop-opacity:0.8185"/>
	<stop  offset="0.9582" style="stop-color:#344227;stop-opacity:0.8883"/>
	<stop  offset="1" style="stop-color:#364528;stop-opacity:0.95"/>
</radialGradient>
<path class="st11" d="M50.1,77.4l-0.4-1.8V74l0.2-1.7l0.4-1.3l0.9-2l0.9-1.5l1.4-1.5l2.2-1.5l1.6-0.7l1.8-0.4l2.2-0.1l2,0.2l1.8,0.5
	l1.5,0.8l1.5,1.1l1.4,1.4l1,1.5l0.9,2l0.5,2.3l0.1,2.3l-0.3,1.9l-0.8,2.2l-1,1.6l-1.7,1.8l-2,1.4l-2.3,1l-2.2,0.3c0,0-2.2-0.1-2.1,0
	c0.1,0-2.2-0.5-2.2-0.5l-2-0.9L53.7,83l-1.4-1.4l-1-1.5l-0.8-1.5L50.1,77.4z"/>
<path class="st12" d="M54.2,76.3L53.8,76l-0.2-0.4l-0.2-0.4l-0.1-0.4v-0.6l0.1-0.5l0.3-0.7l0.6-0.8l0.5-0.5l0.6-0.5l0.7-0.5l0.7-0.4
	l0.7-0.3l0.7-0.2l0.7-0.1h0.7l0.6,0.1l0.6,0.2l0.5,0.4l0.4,0.5l0.1,0.5v0.7l-0.1,0.6l-0.3,0.8l-0.5,0.8L60.2,75l-0.7,0.6
	c0,0-0.8,0.5-0.7,0.5L58,76.5l-1,0.2l-0.8,0.1h-0.7L55,76.7l-0.5-0.2L54.2,76.3z"/>
<path class="st12" d="M62.9,70.1l-0.2-0.2l-0.1-0.2l-0.1-0.2l-0.1-0.2L62.3,69v-0.3v-0.3l0.1-0.3l0.1-0.2l0.1-0.2l0.2-0.1l0.2-0.1
	h0.2h0.2l0.2,0.1l0.2,0.1l0.2,0.1l0.3,0.2l0.2,0.3l0.2,0.3l0.1,0.3l0.1,0.4l0.1,0.3v0.3l-0.1,0.3l-0.1,0.3l-0.2,0.2l-0.2,0.1
	l-0.2,0.1h-0.3l-0.3-0.1l-0.2-0.1l-0.2-0.1L63,70.3L62.9,70.1z"/>
<g>
	<g>
		<path class="st13" d="M104.6,19.9c-3.1-5.7-8.4-9.7-14.4-12c-7.1-2.7-14.4-2.5-21.8-1.6C64.2,6.8,60,7,55.9,7.8
			C52.4,8.5,49,9.9,46,11.9c-5.8,3.9-9.7,9.9-11.8,16.5c-2.5,7.9-2.7,16.4-2.3,24.7c0,0.5,0.8,0.5,0.7,0
			C31.9,39.7,32.8,24,43.9,14.5c2.8-2.4,6-4.1,9.5-5.2c3.8-1.2,7.8-1.4,11.7-1.8c7.4-0.8,14.7-1.8,22.1,0.3
			c7,1.9,13.4,6.1,16.9,12.6C104.2,20.7,104.9,20.4,104.6,19.9L104.6,19.9z"/>
	</g>
</g>
<g>
	<g>
		<path class="st13" d="M33.6,29.9c-4.5-0.3-8.2-4.1-7.4-8.7c0.7-4.1,4.7-7.1,8.7-7.4c2.2-0.2,5.1-0.1,6.6,1.8
			c0.3,0.4,0.8-0.2,0.5-0.5c-1.5-1.9-4-2.1-6.2-2.1c-2.4,0-4.7,0.7-6.6,2.2c-3.7,2.7-5.4,8-2.5,11.9c1.6,2.1,4.1,3.3,6.7,3.5
			C34.1,30.7,34.1,30,33.6,29.9L33.6,29.9z"/>
	</g>
</g>
<g>
	<g>
		<path class="st13" d="M99.2,13.7c3.3-1.7,8.2-2.8,11.7-0.9c3.5,2,4.5,7,3.2,10.5c-0.9,2.4-3.1,4.4-5.6,4.7
			c-0.5,0.1-0.3,0.8,0.2,0.7c2.4-0.4,4.6-2.1,5.7-4.2c1-1.9,1.2-4.1,0.9-6.1c-0.3-2.1-1.3-4.2-2.9-5.6c-1.7-1.4-4-1.8-6.1-1.8
			c-2.5,0.1-5.1,0.8-7.3,1.9C98.4,13.3,98.8,14,99.2,13.7L99.2,13.7z"/>
	</g>
</g>
<g>
	<g>
		<path class="st13" d="M65.9,36.8c0.1,0,0.2,0,0.3-0.1c0-0.1,0-0.2,0-0.3c-0.3,0.2-0.8,0.2-1.1,0.3c-0.6,0.2-1.2,0.7-1.7,1.1
			c-1,0.8-2,1.8-2.5,3c-1.2,3.1,2.9,4.5,5.2,4.2c1.9-0.3,3.6-1.1,5.5-1.3c1.7-0.2,3.2,0.4,4.7,0.9c1.1,0.3,2.4,0.5,3.4-0.2
			s1.5-2.1,1.3-3.3c-0.5-2.9-4.2-4.5-6.6-5.3c-0.2-0.1-0.3,0.3-0.1,0.4c2.1,0.8,4.8,1.9,6,4c0.7,1.3,0.5,3-0.7,3.9
			c-1.1,0.9-2.6,0.5-3.7,0.1c-1.1-0.3-2.2-0.7-3.3-0.7c-1.5-0.1-3,0.4-4.4,0.8c-1.7,0.5-3.5,0.9-5.1,0.1c-1.3-0.6-2.4-1.6-1.9-3.1
			c0.4-1.4,1.7-2.5,2.8-3.3c0.4-0.3,0.9-0.7,1.4-0.9c0.3-0.1,0.7-0.1,1-0.3c0.1-0.1,0.1-0.3,0-0.3s-0.4,0-0.5,0.1
			C65.5,36.5,65.6,36.8,65.9,36.8L65.9,36.8z"/>
	</g>
</g>
<g>
	<g>
		<path class="st13" d="M75.6,44.5c0.4,1.1,0.7,2.2,0.7,3.4c0,1,0,2.4-0.8,3.2c-0.7,0.7-1.9,1.2-2.9,0.7c-0.8-0.3-1-1.3-1.3-2
			c-0.1-0.2-0.4,0-0.3,0.2c0.3,0.6,0.5,1.4,1.1,1.9s1.5,0.6,2.2,0.4c0.8-0.2,1.6-0.8,1.9-1.6c0.4-0.9,0.5-1.9,0.4-2.8
			c0-1.2-0.3-2.3-0.7-3.4C75.9,44.2,75.5,44.3,75.6,44.5L75.6,44.5z"/>
	</g>
</g>
<path class="st14" d="M97.9,24.3c0-6.7-5.4-12.1-12.1-12.1s-12.1,5.4-12.1,12.1s5.4,12.1,12.1,12.1C92.5,36.3,97.9,30.9,97.9,24.3z"
	/>
<path class="st14" d="M67.5,25.6c0-6.7-5.4-12.1-12.1-12.1s-12.1,5.4-12.1,12.1s5.4,12.1,12.1,12.1C62.1,37.6,67.5,32.2,67.5,25.6z"
	/>
<path class="st13" d="M108.9,19.5c0-1.4-1.1-2.5-2.6-2.5c-1.4,0-2.6,1.1-2.6,2.5s1.1,2.6,2.6,2.6S108.9,20.9,108.9,19.5z"/>
<path class="st13" d="M37.3,21.8c0-1.4-1.1-2.5-2.6-2.5c-1.4,0-2.6,1.1-2.6,2.5s1.1,2.6,2.6,2.6C36.2,24.3,37.3,23.2,37.3,21.8z"/>
<path class="st13" d="M76.1,35.4c0-1.7-2.4-3-5.4-3s-5.4,1.3-5.4,3c0,1.6,2.4,3,5.4,3S76.1,37.1,76.1,35.4z"/>
<path class="st13" d="M82.6,26.5c1.2,1.8,3.7,2.2,5.5,1s2.2-3.7,1-5.5s-3.7-2.2-5.5-1C81.8,22.3,81.4,24.8,82.6,26.5z M87,21.5
	c0.4,0.5,0.2,1.2-0.3,1.6s-1.2,0.2-1.6-0.3s-0.2-1.2,0.3-1.6C85.9,20.9,86.6,21,87,21.5z"/>
<path class="st13" d="M51.7,27.2c0.7,2.1,2.9,3.2,5,2.5s3.2-2.9,2.5-5s-2.9-3.2-5-2.5C52.2,22.9,51.1,25.1,51.7,27.2z M57.4,23.7
	c0.2,0.6-0.1,1.2-0.7,1.4c-0.6,0.2-1.2-0.1-1.4-0.7s0.1-1.2,0.7-1.4C56.6,22.8,57.2,23.1,57.4,23.7z"/>
<g>
	<g>
		<path class="st13" d="M71.1,43.7c0.2,0.7,0.1,1.5,0.1,2.3s0,1.7,0,2.5c-0.1,1.2-0.4,2.9-1.6,3.4c-1,0.5-2.3,0-2.9-1
			c-0.5-0.9-0.6-2-0.6-3c0-1.1,0.1-2.2,0.5-3.3c0.1-0.2-0.3-0.3-0.4-0.1c-0.3,1-0.5,2.2-0.5,3.3s0.1,2.4,0.7,3.4
			c0.6,0.9,1.8,1.4,2.9,1.2c1.3-0.3,1.9-1.6,2.1-2.8c0.2-1.1,0.2-2.2,0.2-3.3c0-0.9,0.1-1.9-0.1-2.8C71.4,43.4,71,43.5,71.1,43.7
			L71.1,43.7z"/>
	</g>
</g>
<g>
	<g>
		<path class="st13" d="M103.3,19c4.1,6.1,5.6,13.4,6,20.6c0.2,3.8,0.3,7.7,0.3,11.5c0,1.9-0.1,3.8-0.1,5.8c0,1-0.1,2-0.1,3
			c0,0.9,0.2,1.8,0.2,2.7c0,0.5,0.7,0.5,0.7,0c0-1-0.2-1.9-0.2-2.9c0-0.9,0.1-1.9,0.1-2.8c0.1-2,0.1-4,0.1-6c0-4.1-0.1-8.2-0.4-12.3
			c-0.5-7.1-2.1-14.1-6.1-20C103.7,18.2,103.1,18.6,103.3,19L103.3,19z"/>
	</g>
</g>
<g>
	<g>
		<g>
			<path class="st13" d="M32.3,95.5c2.1,6.7,4.1,13.8,9.1,19.1c0.3,0.4,0.9-0.2,0.5-0.5C37,108.9,35.1,102,33,95.3
				C32.9,94.8,32.2,95,32.3,95.5L32.3,95.5z"/>
		</g>
	</g>
	<g>
		<g>
			<path class="st13" d="M49.2,119.5c5,3.1,11.1,3.8,16.9,3.7c6.2-0.1,12.3-1,18.4-2.1c3.7-0.6,7.7-1,11-3.1c0.4-0.3,0-0.9-0.4-0.6
				c-3.5,2.2-8.2,2.5-12.2,3.2c-3.7,0.6-7.4,1.2-11.2,1.5c-7.3,0.6-15.7,0.7-22.2-3.3C49.1,118.6,48.7,119.2,49.2,119.5L49.2,119.5z
				"/>
		</g>
	</g>
	<g>
		<g>
			<path class="st13" d="M41.8,114.7c3.5-1.9,5.5,2.8,7.9,4.4c0-0.1,0.1-0.2,0.1-0.3c-3.7,0.5-5.8,4.3-9.3,5.2
				c-1.8,0.5-3.9-0.7-4.4-2.5c-0.4-1.6,0.9-3.2,2.1-4.2c1.4-1.3,3-2.2,4.7-3.1c0.2-0.1,0-0.4-0.2-0.3c-1.6,0.8-3.1,1.7-4.5,2.9
				c-1.2,1-2.6,2.4-2.6,4.1s1.7,3.3,3.3,3.6c1.8,0.3,3.4-0.8,4.8-1.8c1.8-1.3,3.7-3.2,6-3.5c0.2,0,0.3-0.2,0.1-0.3
				c-2.6-1.7-4.5-6.5-8.3-4.4C41.4,114.5,41.6,114.8,41.8,114.7L41.8,114.7z"/>
		</g>
	</g>
	<g>
		<g>
			<path class="st13" d="M37.7,123.2c-0.7-2.1,1-3.8,2.7-4.7c0.2-0.1,0-0.4-0.2-0.3c-1.9,0.9-3.6,2.9-2.9,5.1
				C37.4,123.6,37.8,123.5,37.7,123.2L37.7,123.2z"/>
		</g>
	</g>
	<g>
		<g>
			<path class="st13" d="M102,123.2c-2-1.1-3.2-3.1-4.8-4.7c-0.3-0.3-0.6-0.5-1-0.8c-0.6-0.4-0.6-0.9-0.2-1.5
				c0.6-0.9,1.8-1.7,2.7-2.2c1.1-0.6,2.4-0.9,3.7-0.5c1.1,0.3,2.1,1.1,2.9,1.9c1.3,1.5,2.4,3.7,2.1,5.8c-0.2,1.2-0.9,2.3-2.1,2.5
				C104.2,124,103,123.7,102,123.2c-0.2-0.1-0.4,0.2-0.2,0.3c1.8,1,4.5,1.2,5.6-0.9s0.1-4.8-1.1-6.6c-1.4-2-3.8-3.6-6.3-2.9
				c-1.3,0.3-2.4,1.2-3.4,2c-0.6,0.6-1.6,1.6-0.9,2.5c0.3,0.4,0.9,0.7,1.3,1.1c0.6,0.5,1.1,1.2,1.6,1.8c1,1.1,2,2.3,3.3,3
				C102,123.6,102.2,123.3,102,123.2z"/>
		</g>
	</g>
	<g>
		<g>
			<path class="st13" d="M103.2,118.4c1.3,1.4,2.5,3.2,2.5,5.2c0,0.2,0.4,0.2,0.4,0c0-2.1-1.2-4-2.6-5.5
				C103.3,117.9,103.1,118.2,103.2,118.4L103.2,118.4z"/>
		</g>
	</g>
	<g>
		<g>
			<path class="st13" d="M106.3,107.7c-1.1,1.7-2.3,3.4-3.3,5.3c-0.2,0.4,0.4,0.8,0.6,0.4c1-1.8,2.2-3.5,3.3-5.3
				C107.2,107.7,106.5,107.3,106.3,107.7L106.3,107.7z"/>
		</g>
	</g>
	<g>
		<g>
			<path class="st13" d="M95.4,117.7c0.1,0,0.1,0,0.2,0c0,0,0.1,0,0.1-0.1l0.1-0.1c0,0,0-0.1-0.1-0.1l-0.1-0.1l0,0
				c-0.1,0-0.1,0-0.2,0.1v0.1l0,0l0,0l0,0l0,0l0,0l0,0l0,0l0,0c0.1,0.1,0.1,0.2,0.2,0.2c0-0.1,0-0.1,0.1-0.2
				C95.6,117.5,95.5,117.6,95.4,117.7c0.1,0,0.1,0,0.2,0.1l0.1,0.1c0,0,0.1,0,0.1-0.1l0.1-0.1c0,0,0-0.1-0.1-0.1
				c-0.1-0.1-0.1-0.1-0.2-0.2c0,0-0.1-0.1-0.2,0c-0.1,0-0.1,0.1-0.1,0.1c0,0.1,0,0.1-0.1,0.2v0.1c0,0,0,0,0,0.1c0,0,0,0,0.1,0h0.1
				c0.1,0,0.1,0,0.1,0s0,0,0.1-0.1c0,0,0,0,0.1-0.1v-0.1C95.6,117.6,95.6,117.7,95.4,117.7L95.4,117.7c0.1,0,0.2,0,0.2-0.1l0.1-0.1
				c0,0,0-0.1-0.1-0.1l-0.1-0.1c-0.1,0-0.1,0-0.2,0c0,0-0.1,0-0.1,0.1l-0.1,0.1c0,0,0,0.1,0.1,0.1C95.3,117.7,95.3,117.7,95.4,117.7
				L95.4,117.7z"/>
		</g>
	</g>
</g>
<g>
	<g>
		<g>
			<path class="st13" d="M48.6,102.2c0,0.4-0.1,0.8-0.1,1.2c0,0.1,0.1,0.2,0.2,0.2c0.1,0,0.2-0.1,0.2-0.2c0-0.4,0-0.8,0.1-1.2
				c0-0.1-0.1-0.2-0.2-0.2C48.6,102,48.6,102.1,48.6,102.2L48.6,102.2z"/>
		</g>
	</g>
	<g>
		<g>
			<path class="st13" d="M51.1,102.5c0,0.2,0,0.4,0,0.7c0,0.1,0,0.2,0,0.3v0.1l0,0c0,0,0-0.1,0,0l0,0c0,0,0-0.1,0.1-0.1h0.1l0.1,0.1
				c0,0,0,0.1,0,0s-0.1-0.2-0.2-0.1c-0.1,0-0.2,0.1-0.1,0.2c0,0.1,0.1,0.1,0.1,0.1c0.1,0,0.2,0,0.3-0.1c0-0.1,0-0.1,0-0.2
				c0-0.2,0-0.4,0-0.6c0-0.1,0-0.2,0-0.3c0-0.1-0.1-0.2-0.2-0.2C51.2,102.3,51.1,102.4,51.1,102.5L51.1,102.5z"/>
		</g>
	</g>
	<g>
		<g>
			<path class="st13" d="M64.5,103.5c1.3,0.2,2.6,0.3,3.9,0.5c0.2,0,0.3-0.3,0.1-0.4c-1.3-0.3-2.7-0.4-4-0.6
				C64.2,103.1,64.2,103.5,64.5,103.5L64.5,103.5z"/>
		</g>
	</g>
	<g>
		<g>
			<path class="st13" d="M66.2,101.6c1.4-0.1,2.7,0.4,4,0.4c0.2,0,0.2-0.4,0-0.4c-1.3,0-2.7-0.5-4-0.4
				C65.9,101.2,65.9,101.6,66.2,101.6L66.2,101.6z"/>
		</g>
	</g>
	<g>
		<g>
			<path class="st13" d="M116.6,109c0.8,0.1,1.5,0.2,2.3,0.3c0.1,0,0.2-0.1,0.2-0.2s-0.1-0.2-0.2-0.2c-0.8-0.1-1.5-0.2-2.3-0.3
				c-0.1,0-0.2,0.1-0.2,0.2C116.4,109,116.5,109,116.6,109L116.6,109z"/>
		</g>
	</g>
	<g>
		<g>
			<path class="st13" d="M30.6,53.6l83.9,9.9c0-0.2,0-0.4,0-0.6L30.3,53C30.4,53.1,30.5,53.4,30.6,53.6z"/>
			<path class="st13" d="M121.7,63.9c0,0.2,0,0.4,0,0.6v0.1c1.2,0.6,2,1.9,1.8,3.3l-4.9,41.4c0.1,0,0.2,0,0.3,0l0,0c0,0,0,0,0.1,0
				h0.1l0.1-0.1l4.9-41.3C124.3,66.2,123.2,64.5,121.7,63.9z"/>
			<path class="st13" d="M19.9,55.7l-4.2,35.4c0,0,0,0,0.1,0.1H16l0,0c0.1,0,0.2,0.1,0.2,0.1s0,0,0.1,0l4.2-35.5
				c0.2-1.4,1.2-2.5,2.6-2.8c0.1-0.2,0.1-0.4,0.2-0.6C21.6,52.5,20.1,53.8,19.9,55.7z"/>
		</g>
		<g>
			<g>
				<path class="st13" d="M16.8,88.9c5.1,0.6,10.1,1.2,15.2,1.8c0.2,0,0.2-0.3,0-0.4c-5.1-0.6-10.1-1.2-15.2-1.8
					C16.6,88.5,16.6,88.9,16.8,88.9L16.8,88.9z"/>
			</g>
		</g>
		<g>
			<g>
				<path class="st13" d="M16.2,91.2c4.5,0.5,8.9,1.1,13.4,1.6c0.2,0,0.2-0.3,0-0.4c-4.5-0.5-8.9-1.1-13.4-1.6
					C16,90.8,16,91.2,16.2,91.2L16.2,91.2z"/>
			</g>
		</g>
		<g>
			<g>
				<path class="st13" d="M30,92.8c0.7-0.8,1.7-1.3,2.4-2.1c0.2-0.2-0.1-0.4-0.3-0.3c-0.7,0.8-1.7,1.3-2.4,2.1
					C29.6,92.7,29.9,93,30,92.8L30,92.8z"/>
			</g>
		</g>
		<path class="st15" d="M43.8,88.1c-0.9-1.2-2.8-1.4-4.2-0.3l-5.3,3.8c-1.4,1.1-1.9,2.9-1,4.1l0,0c0.9,1.2,2.8,1.4,4.2,0.3l5.3-3.8
			C44.2,91.2,44.7,89.3,43.8,88.1L43.8,88.1z"/>
		<g>
			<path class="st13" d="M51.8,85.7c-0.1,0-0.3-0.1-0.4-0.1L49,87.4c-0.7,0.5-1.5,0.7-2.2,0.6l0,0c-0.7-0.1-1.2-0.4-1.6-0.9
				c-0.4-0.5-0.5-1.2-0.3-1.9c0.2-0.7,0.6-1.4,1.3-1.8l2.2-1.6c-0.1-0.2-0.2-0.3-0.3-0.5L45.8,83c-0.8,0.6-1.3,1.3-1.5,2.2
				c-0.2,0.9-0.1,1.7,0.4,2.4c0.5,0.6,1.2,1,2,1.1l0,0c0.9,0.1,1.9-0.2,2.7-0.7l2.6-1.9C51.8,85.8,51.8,85.7,51.8,85.7z"/>
		</g>
		<g>
			<path class="st13" d="M62.7,59.6c-8.2-1-15.6,4.9-16.6,13.1c-0.4,3.3,0.3,6.4,1.8,9.1c0.1-0.1,0.1-0.2,0.2-0.2
				c-1.5-2.6-2.1-5.7-1.8-8.8c0.9-8,8.2-13.8,16.2-12.8c8,0.9,13.8,8.2,12.8,16.2c-0.9,8-8.2,13.8-16.2,12.8
				c-2.9-0.3-5.5-1.5-7.6-3.3c-0.1,0-0.2,0.1-0.3,0.1c2.2,1.9,4.9,3.1,7.9,3.5c8.2,1,15.6-4.9,16.6-13.1
				C76.7,68,70.8,60.6,62.7,59.6z"/>
		</g>
		<path class="st16" d="M72,75.7c0.7-6.1-3.7-11.7-9.8-12.4S50.5,67,49.8,73.1c-0.7,6.1,3.7,11.7,9.8,12.4
			C65.7,86.3,71.3,81.9,72,75.7z"/>
		<g>
			<g>
				<path class="st13" d="M59.4,84.3c0.8-1.6,1.4-3.2,2.1-4.8c0.6-1.5,1.5-2.8,1.9-4.4c0.1-0.2-0.3-0.3-0.4-0.1
					c-0.4,1.6-1.3,3-1.9,4.5c-0.7,1.6-1.3,3.1-2.1,4.7C58.9,84.4,59.3,84.6,59.4,84.3L59.4,84.3z"/>
			</g>
		</g>
		<g>
			<g>
				<path class="st13" d="M63.1,75.2c0.6,1.3,0.7,2.8,0.8,4.2c0.1,1.4,0.2,2.8,0.4,4.2c0,0.2,0.4,0.1,0.4-0.1
					c-0.5-2.8-0.1-5.9-1.3-8.6C63.3,74.8,63,75,63.1,75.2L63.1,75.2z"/>
			</g>
		</g>
		<g>
			<g>
				<path class="st13" d="M59.1,84.4c0.6,0.2,1.2,0.3,1.8,0.3c0.2,0,0.2-0.4,0-0.4c-0.6,0-1.2-0.1-1.7-0.3
					C58.9,84,58.9,84.3,59.1,84.4L59.1,84.4z"/>
			</g>
		</g>
		<g>
			<g>
				<path class="st13" d="M62.7,84.6c0.6-0.2,1.2-0.3,1.8-0.5c0.1,0,0.2-0.1,0.1-0.2c0-0.1-0.1-0.2-0.2-0.1
					c-0.6,0.2-1.2,0.3-1.8,0.5C62.4,84.3,62.5,84.6,62.7,84.6L62.7,84.6z"/>
			</g>
		</g>
		<g>
			<g>
				<path class="st13" d="M61.1,84.5c0.4-1,0.8-2,1.4-2.9c-0.1,0-0.2-0.1-0.3-0.1c0,0.5,0,1,0,1.5c0,0.4,0,1,0.3,1.4
					c0.1,0.2,0.5,0,0.3-0.2c-0.2-0.4-0.2-0.9-0.2-1.3c0-0.5,0-1,0-1.4c0-0.2-0.2-0.3-0.3-0.1c-0.6,0.9-1,2-1.4,3
					C60.6,84.6,61,84.7,61.1,84.5L61.1,84.5z"/>
			</g>
		</g>
		<g>
			<g>
				<path class="st13" d="M58,90.1c0.6,0.3,1.3,0.3,2,0.2c0.1,0,0.2-0.1,0.1-0.2c0-0.1-0.1-0.1-0.2-0.1c-0.6,0.1-1.2,0.1-1.7-0.2
					C58,89.7,57.8,90,58,90.1L58,90.1z"/>
			</g>
		</g>
		<g>
			<g>
				<path class="st13" d="M62.5,90.2c0.7,0.4,1.5,0.1,2.2-0.1c0.2-0.1,0.1-0.4-0.1-0.4c-0.6,0.2-1.3,0.4-1.9,0.1
					C62.5,89.8,62.3,90.1,62.5,90.2L62.5,90.2z"/>
			</g>
		</g>
		<g>
			<g>
				<path class="st13" d="M57.7,90c-0.8,3.3-2.9,6-3.9,9.1c-0.1,0.2,0.3,0.3,0.4,0.1c1.1-3.1,3.2-5.8,3.9-9.1
					C58.2,89.9,57.8,89.8,57.7,90L57.7,90z"/>
			</g>
		</g>
		<g>
			<g>
				<path class="st13" d="M59.9,90.4c-1.2,3.9-3.3,7.3-4.8,11.1c-0.1,0.2,0.3,0.3,0.4,0.1c1.5-3.7,3.7-7.2,4.8-11.1
					C60.3,90.3,59.9,90.2,59.9,90.4L59.9,90.4z"/>
			</g>
		</g>
		<g>
			<g>
				<path class="st13" d="M38.8,97.6c5,0.5,10,0.8,14.9,1.6c0.2,0,0.3-0.3,0.1-0.4c-5-0.8-10-1.1-15-1.6
					C38.5,97.2,38.5,97.6,38.8,97.6L38.8,97.6z"/>
			</g>
		</g>
		<g>
			<g>
				<path class="st13" d="M36.2,99.7c6.2,0.9,12.5,1.5,18.8,2c0.2,0,0.2-0.4,0-0.4c-6.2-0.6-12.5-1.1-18.7-2
					C36.1,99.4,36,99.7,36.2,99.7L36.2,99.7z"/>
			</g>
		</g>
		<g>
			<g>
				<path class="st13" d="M38.5,97.4c-0.7,0.8-1.8,1.3-2.4,2.2c-0.1,0.1,0,0.2,0.1,0.3c0.1,0.1,0.2,0,0.3-0.1
					c0.6-0.9,1.7-1.3,2.4-2.1C38.9,97.5,38.6,97.2,38.5,97.4L38.5,97.4z"/>
			</g>
		</g>
		<g>
			<g>
				<path class="st13" d="M50.6,94.5c0-0.2,0-0.4,0-0.6l0,0l0,0c0,0,0,0,0-0.1v-0.1c0-0.1,0.1-0.2,0.1-0.3c0-0.1,0-0.2-0.1-0.2
					s-0.2,0-0.2,0.1c-0.1,0.4-0.2,0.8-0.1,1.2c0,0.1,0.1,0.2,0.2,0.2C50.5,94.7,50.6,94.6,50.6,94.5L50.6,94.5z"/>
			</g>
		</g>
		<g>
			<g>
				<path class="st13" d="M51.7,94.6L51.7,94.6c0-0.2,0-0.2,0-0.3s0-0.2,0.1-0.3c0.1-0.2,0.1-0.5,0.1-0.7c0-0.1-0.1-0.2-0.2-0.2
					c-0.1,0-0.2,0.1-0.2,0.2c-0.1,0.5-0.2,0.9-0.2,1.4c0,0.1,0.1,0.2,0.2,0.2C51.6,94.8,51.7,94.7,51.7,94.6L51.7,94.6z"/>
			</g>
		</g>
		<g>
			<g>
				<path class="st13" d="M50.1,96c0,0.4-0.1,0.7-0.1,1.1c0,0.1,0.1,0.2,0.2,0.2c0.1,0,0.2-0.1,0.2-0.2c0-0.4,0.1-0.7,0.1-1.1
					c0-0.1-0.1-0.2-0.2-0.2C50.1,95.9,50.1,95.9,50.1,96L50.1,96z"/>
			</g>
		</g>
		<g>
			<g>
				<path class="st13" d="M51.2,96.2c0.1,0.4,0,0.9-0.1,1.3c0,0.1,0.1,0.2,0.2,0.2c0.1,0,0.2-0.1,0.2-0.2c0-0.4,0.1-0.9,0.1-1.3
					c0-0.1-0.1-0.2-0.2-0.2S51.2,96.1,51.2,96.2L51.2,96.2z"/>
			</g>
		</g>
		<g>
			<g>
				<path class="st13" d="M51.4,96.4c0.2,0.1,0.4,0.1,0.6,0.1c0.2,0,0.5,0,0.7-0.1c0.1,0,0.2-0.1,0.1-0.2c0-0.1-0.1-0.2-0.2-0.1
					c-0.1,0-0.2,0.1-0.3,0.1h-0.1l0,0l0,0c-0.1,0-0.1,0-0.2,0c-0.1,0-0.2,0-0.3,0l0,0l0,0c0,0,0,0-0.1,0h-0.1
					C51.4,96.2,51.3,96.2,51.4,96.4C51.2,96.2,51.3,96.3,51.4,96.4L51.4,96.4z"/>
			</g>
		</g>
		<g>
			<g>
				<path class="st13" d="M51.5,95c0.5,0.1,0.9,0.2,1.4,0.1c0.1,0,0.2-0.1,0.1-0.2c0-0.1-0.1-0.2-0.2-0.1c-0.4,0.1-0.8,0.1-1.2-0.1
					c-0.1,0-0.2,0-0.2,0.1C51.4,94.9,51.4,95,51.5,95L51.5,95z"/>
			</g>
		</g>
		<g>
			<g>
				<path class="st13" d="M49.1,94.6c0.4,0,0.7,0.1,1.1,0.1c0.1,0,0.2-0.1,0.2-0.2s-0.1-0.2-0.2-0.2c-0.4,0-0.7-0.1-1.1-0.1
					c-0.1,0-0.2,0.1-0.2,0.2C49,94.6,49,94.6,49.1,94.6L49.1,94.6z"/>
			</g>
		</g>
		<g>
			<g>
				<path class="st13" d="M48.9,96.2c0.4,0.1,0.8,0.1,1.2,0.1c0.1,0,0.2-0.1,0.2-0.2s-0.1-0.2-0.2-0.2c-0.2,0-0.4,0-0.6,0h-0.1h-0.1
					c0,0-0.1,0,0,0c-0.1,0-0.2,0-0.3-0.1c-0.1,0-0.2,0-0.2,0.1C48.7,96.1,48.8,96.2,48.9,96.2L48.9,96.2z"/>
			</g>
		</g>
		<g>
			<g>
				<path class="st13" d="M48.9,94.5c0.1,0.5,0,1,0,1.5c0,0.1,0.1,0.2,0.2,0.2c0.1,0,0.2-0.1,0.2-0.2c0.1-0.5,0.1-1.1,0-1.6
					c0-0.1-0.1-0.2-0.2-0.1C48.9,94.3,48.8,94.4,48.9,94.5L48.9,94.5z"/>
			</g>
		</g>
		<g>
			<g>
				<path class="st13" d="M50.5,93.4c0.3,0.1,0.7,0.2,1.1,0.1c0.1,0,0.2-0.1,0.2-0.2s-0.1-0.2-0.2-0.2c-0.2,0-0.3,0-0.5,0
					c-0.1,0,0,0,0,0s0,0-0.1,0h-0.1c-0.1,0-0.2,0-0.3-0.1c-0.1,0-0.2,0-0.2,0.1C50.4,93.3,50.4,93.4,50.5,93.4L50.5,93.4z"/>
			</g>
		</g>
		<g>
			<g>
				<path class="st13" d="M52.7,95.1C52.7,95.1,52.7,95.2,52.7,95.1C52.7,95.2,52.7,95.2,52.7,95.1L52.7,95.1L52.7,95.1
					c0,0.2,0,0.3,0,0.4c0,0.2,0,0.4,0,0.6c0,0.1,0.1,0.2,0.2,0.2c0.1,0,0.2-0.1,0.2-0.2c0-0.2,0-0.4,0-0.6c0-0.1,0-0.2,0-0.3
					c0-0.1,0-0.2,0-0.2c0-0.1-0.1-0.2-0.2-0.1C52.7,94.9,52.6,95,52.7,95.1L52.7,95.1z"/>
			</g>
		</g>
		<g>
			<g>
				<path class="st13" d="M50.2,97.7c0.3,0,0.7,0,1,0c0.1,0,0.2-0.1,0.2-0.2s-0.1-0.2-0.2-0.2c-0.3,0-0.7,0-1,0
					c-0.1,0-0.2,0.1-0.2,0.2S50,97.7,50.2,97.7L50.2,97.7z"/>
			</g>
		</g>
		<g>
			<g>
				<path class="st13" d="M48.6,102.2c0.8,0.2,1.7,0,2.6,0.2c0.2,0.1,0.3-0.3,0.1-0.4c-0.8-0.2-1.7,0-2.6-0.2
					C48.5,101.8,48.4,102.2,48.6,102.2L48.6,102.2z"/>
			</g>
		</g>
		<g>
			<g>
				<path class="st13" d="M48.8,104c0.8-0.2,1.6,0.1,2.4-0.1c0.2,0,0.1-0.4-0.1-0.4c-0.8,0.2-1.6-0.1-2.4,0.1
					C48.4,103.7,48.5,104,48.8,104L48.8,104z"/>
			</g>
		</g>
		<g>
			<g>
				<path class="st13" d="M62.4,90.3c0.6,2.6,0.8,5.3,0.9,8c0.1,1,0.1,2,0.3,3c0.1,0.6,0.2,1.5,0.6,2c0.2,0.2,0.4-0.1,0.3-0.3
					c-0.5-0.5-0.5-1.6-0.6-2.3c-0.1-1-0.2-2-0.2-3c-0.1-2.5-0.3-5.1-0.9-7.5C62.7,90,62.3,90.1,62.4,90.3L62.4,90.3z"/>
			</g>
		</g>
		<g>
			<g>
				<path class="st13" d="M64.4,90.1c0.8,1.7,0.6,3.7,0.7,5.5c0.2,1.9,0.3,3.9,0.9,5.8c0.1,0.2,0.4,0.1,0.4-0.1
					c-0.6-2-0.7-4.1-0.9-6.2c-0.2-1.7,0-3.6-0.7-5.2C64.6,89.7,64.3,89.8,64.4,90.1L64.4,90.1z"/>
			</g>
		</g>
		<g>
			<g>
				<path class="st13" d="M68.4,104.2c0.3,0.2,0.5,0.8,0.6,1.2c0.3,0.7,0.5,1.4,0.7,2.1s0.4,1.4,0.6,2.2c0.1,0.5,0.3,1,0.5,1.4
					c0.1,0.2,0.4,0,0.3-0.2c-0.2-0.5-0.3-1-0.5-1.5c-0.2-0.8-0.4-1.5-0.6-2.3c-0.2-0.7-0.4-1.4-0.7-2.1c-0.1-0.4-0.3-0.9-0.7-1.1
					C68.4,103.8,68.2,104.1,68.4,104.2L68.4,104.2z"/>
			</g>
		</g>
		<g>
			<g>
				<path class="st13" d="M70,101.9c1.1,2,1,4.4,2,6.4c0.1,0.2,0.4,0,0.3-0.2c-1-2-0.9-4.4-2-6.4C70.2,101.5,69.9,101.7,70,101.9
					L70,101.9z"/>
			</g>
		</g>
		<g>
			<g>
				<path class="st13" d="M72.4,108.4c1.8-3,3.1-6.3,4.3-9.6c1.5-3.7,3.1-7.5,4.9-11.1c0.1-0.2-0.2-0.4-0.3-0.2
					c-1.7,3.4-3.3,6.9-4.7,10.5c-1.4,3.4-2.6,7-4.6,10.1C72,108.4,72.3,108.6,72.4,108.4L72.4,108.4z"/>
			</g>
		</g>
		<g>
			<g>
				<path class="st13" d="M73.3,111.4c1.5-2.5,2.2-5.3,3.4-7.9c1.1-2.5,2.8-4.8,3.6-7.5c0.1-0.2-0.3-0.3-0.4-0.1
					c-0.8,2.8-2.6,5-3.7,7.7c-1.1,2.6-1.9,5.3-3.3,7.7C72.9,111.4,73.2,111.6,73.3,111.4L73.3,111.4z"/>
			</g>
		</g>
		<g>
			<g>
				<path class="st13" d="M80,96.1c0.7,2.7,0.4,5.5,0.7,8.2c0,0.2,0.4,0.2,0.4,0c-0.3-2.8,0-5.6-0.8-8.3
					C80.3,95.7,79.9,95.8,80,96.1L80,96.1z"/>
			</g>
		</g>
		<g>
			<g>
				<path class="st13" d="M81.4,87.7c0.3,1.7,0.4,3.4,0.4,5.1c0.1,1.7,0.2,3.3,0.4,5c0.1,1.2,0.2,2.4,0.4,3.6c0,0.3,0,1.4,0.5,1.3
					c0.2,0,0.1-0.4-0.1-0.4c0.2,0,0.1-0.1,0-0.3c0-0.2-0.1-0.5-0.1-0.7c0-0.4-0.1-0.7-0.1-1.1c-0.1-1.4-0.3-2.8-0.4-4.2
					c-0.1-1.4-0.2-2.9-0.3-4.3c-0.1-1.4-0.1-2.8-0.4-4.1C81.7,87.4,81.3,87.5,81.4,87.7L81.4,87.7z"/>
			</g>
		</g>
		<g>
			<g>
				<path class="st13" d="M116.8,106.6c0.8,0.1,1.6,0.2,2.3,0.2c0.1,0,0.2-0.1,0.2-0.2s-0.1-0.2-0.2-0.2c-0.8,0.1-1.5,0-2.2-0.1
					c-0.1,0-0.2,0-0.2,0.1C116.7,106.5,116.7,106.6,116.8,106.6L116.8,106.6z"/>
			</g>
		</g>
		<g>
			<g>
				<path class="st13" d="M83,102.7c8.9,1.5,17.9,1.8,26.8,2.8c0.2,0,0.2-0.3,0-0.4c-8.9-1-17.9-1.4-26.7-2.8
					C82.9,102.3,82.8,102.6,83,102.7L83,102.7z"/>
			</g>
		</g>
		<g>
			<g>
				<path class="st13" d="M80.9,104.8c9.4,1.1,18.8,2.2,28.2,3.3c0.2,0,0.2-0.3,0-0.4c-9.4-1.1-18.8-2.2-28.2-3.3
					C80.6,104.4,80.6,104.8,80.9,104.8L80.9,104.8z"/>
			</g>
		</g>
		<g>
			<g>
				<path class="st13" d="M78.2,67.8c-1.1,9.6-2.3,19.1-3.4,28.7c0.1,0,0.2,0,0.4,0c0-0.1,0-0.3,0.1-0.4c0-0.2-0.3-0.2-0.4,0
					c0,0.1,0,0.3-0.1,0.4c0,0.2,0.3,0.2,0.4,0c1.1-9.6,2.3-19.1,3.4-28.7C78.6,67.6,78.2,67.6,78.2,67.8L78.2,67.8z"/>
			</g>
		</g>
		<g>
			<g>
				<path class="st13" d="M85.7,68.8c-0.8,6.8-1.6,13.6-2.4,20.4c0,0.2,0.3,0.2,0.4,0c0.8-6.8,1.6-13.6,2.4-20.4
					C86.1,68.5,85.7,68.5,85.7,68.8L85.7,68.8z"/>
			</g>
		</g>
		<g>
			<g>
				<path class="st13" d="M87.3,81c-0.7,6.3-1.5,12.6-2.2,19c0,0.2,0.3,0.2,0.4,0c0.7-6.3,1.5-12.6,2.2-19
					C87.7,80.8,87.3,80.8,87.3,81L87.3,81z"/>
			</g>
		</g>
		<g>
			<g>
				<path class="st13" d="M94.3,81.9c-0.8,6.4-1.5,12.8-2.3,19.1c0,0.2,0.3,0.2,0.4,0c0.8-6.4,1.5-12.8,2.3-19.1
					C94.7,81.6,94.3,81.6,94.3,81.9L94.3,81.9z"/>
			</g>
		</g>
		<g>
			<g>
				<path class="st13" d="M96,88.7c-0.5,4.2-1,8.3-1.5,12.5c0,0.2,0.3,0.2,0.4,0c0.5-4.2,1-8.3,1.5-12.5C96.4,88.5,96,88.5,96,88.7
					L96,88.7z"/>
			</g>
		</g>
		<g>
			<g>
				<path class="st13" d="M103.1,89.5c-0.5,4.2-1,8.4-1.5,12.7c0,0.2,0.3,0.2,0.4,0c0.5-4.2,1-8.4,1.5-12.7
					C103.5,89.3,103.1,89.3,103.1,89.5L103.1,89.5z"/>
			</g>
		</g>
		<g>
			<g>
				<path class="st13" d="M78.4,67.9c2.4,0.3,4.8,0.6,7.2,0.9c0.2,0,0.2-0.3,0-0.4c-2.4-0.3-4.8-0.6-7.2-0.9
					C78.2,67.5,78.2,67.9,78.4,67.9L78.4,67.9z"/>
			</g>
		</g>
		<g>
			<g>
				<path class="st13" d="M87.6,81.2c2.2,0.3,4.5,0.5,6.7,0.8c0.2,0,0.2-0.3,0-0.4c-2.2-0.3-4.5-0.5-6.7-0.8
					C87.4,80.7,87.4,81.1,87.6,81.2L87.6,81.2z"/>
			</g>
		</g>
		<g>
			<g>
				<path class="st13" d="M96.3,88.7c2.3,0.3,4.5,0.5,6.8,0.8c0.2,0,0.2-0.3,0-0.4c-2.3-0.3-4.5-0.5-6.8-0.8
					C96.1,88.3,96.1,88.7,96.3,88.7L96.3,88.7z"/>
			</g>
		</g>
		<g>
			<g>
				<path class="st13" d="M94.9,101.6c2.3,0.3,4.5,0.5,6.8,0.8c0.2,0,0.2-0.3,0-0.4c-2.3-0.3-4.5-0.5-6.8-0.8
					C94.6,101.2,94.6,101.5,94.9,101.6L94.9,101.6z"/>
			</g>
		</g>
		<g>
			<g>
				<path class="st13" d="M85.2,100.5c2.3,0.3,4.5,0.5,6.8,0.8c0.2,0,0.2-0.3,0-0.4c-2.3-0.3-4.5-0.5-6.8-0.8
					C85,100.1,85,100.5,85.2,100.5L85.2,100.5z"/>
			</g>
		</g>
		<g>
			<g>
				<path class="st13" d="M75.2,96.6c2.1-4.9,5-9.5,7.1-14.4c0.1-0.2-0.2-0.4-0.3-0.2c-2.2,4.9-5,9.5-7.1,14.4
					C74.7,96.7,75.1,96.9,75.2,96.6L75.2,96.6z"/>
			</g>
		</g>
		<g>
			<g>
				<path class="st13" d="M81.9,82.1c1.1,2.3,0.5,4.9,1.3,7.3c0.1,0.2,0.4,0.1,0.4-0.1c-0.8-2.4-0.2-5.1-1.3-7.4
					C82.1,81.7,81.8,81.9,81.9,82.1L81.9,82.1z"/>
			</g>
		</g>
		<g>
			<g>
				<path class="st13" d="M30.8,53.7c-0.6-1.6-1.8-3-3.7-3c-1.5-0.1-2.9,0.7-3.8,1.8c-1,1.3-1.1,2.9-0.4,4.3
					c0.5,0.9,1.2,1.6,2.2,1.8c0.9,0.3,1.8,0.1,2.6-0.2c1.9-0.8,3.3-3,2.8-5.1c-0.1-0.2-0.4-0.1-0.4,0.1c0.5,1.7-0.6,3.4-2,4.3
					c-0.7,0.4-1.5,0.7-2.4,0.6c-0.9-0.1-1.7-0.7-2.3-1.4c-0.8-1.2-0.9-2.7-0.1-3.9c0.7-1.1,1.9-1.9,3.2-2c1.8-0.2,3.1,1.1,3.8,2.8
					C30.5,54,30.9,53.9,30.8,53.7L30.8,53.7z"/>
			</g>
		</g>
		<g>
			<g>
				<path class="st13" d="M26.8,58.5c-1.2-0.9-1.6-2.5-0.9-3.8c0.1-0.2-0.2-0.4-0.3-0.2c-0.8,1.5-0.3,3.3,1,4.3
					C26.7,58.9,27,58.6,26.8,58.5L26.8,58.5z"/>
			</g>
		</g>
		<g>
			<g>
				<path class="st13" d="M116.4,105.5c-1.2-2.2-4.5-2.8-6.2-0.7c-0.9,1.1-1.6,2.8-0.8,4c0.7,1,2,1.4,3.2,1.4s2.6-0.3,3.5-1.1
					c1-1,1-2.4,0.4-3.5c-0.1-0.2-0.2-0.4-0.3-0.6c-0.1-0.2-0.5,0-0.3,0.2c0.7,1,1.1,2.3,0.3,3.4c-0.7,0.9-1.9,1.2-2.9,1.3
					c-1.1,0.1-2.3-0.1-3.1-0.8c-0.9-0.9-0.7-2.1-0.2-3.1c0.6-1.1,1.5-2,2.9-2c1.3-0.1,2.6,0.7,3.3,1.8
					C116.2,105.9,116.5,105.7,116.4,105.5L116.4,105.5z"/>
			</g>
		</g>
		<g>
			<g>
				<path class="st13" d="M112,103.7c-0.6,0.7-0.8,1.7-0.6,2.6c0.2,1,0.9,1.8,1.7,2.4c0.2,0.1,0.4-0.2,0.2-0.3c-1.4-1-2.2-3-1-4.4
					C112.4,103.8,112.1,103.5,112,103.7L112,103.7z"/>
			</g>
		</g>
		<g>
			<g>
				<path class="st13" d="M114.2,63.4c0.5,0.1,1.1,0,1.7,0.1c0.8,0,1.6,0.1,2.3,0.3c1.3,0.2,2.7,0.3,3.9,0.9
					c0.3,0.2,0.6-0.3,0.3-0.5c-1.2-0.6-2.6-0.7-3.9-0.9c-0.7-0.1-1.4-0.2-2.2-0.3c-0.6-0.1-1.3,0-2-0.1
					C114,62.8,113.8,63.4,114.2,63.4L114.2,63.4z"/>
			</g>
		</g>
	</g>
</g>
<g>
	<g>
		<path class="st13" d="M70.9,111.4c0.8,0.1,1.5,0.4,2.3,0.2c0.2-0.1,0.1-0.4-0.1-0.4c-0.7,0.2-1.4-0.1-2.1-0.2
			c-0.1,0-0.2,0-0.2,0.1C70.7,111.3,70.8,111.4,70.9,111.4L70.9,111.4z"/>
	</g>
</g>
<g>
	<g>
		<path class="st13" d="M32.2,90.9c0.5,0,1.1,0.2,1.4,0.6c0.1,0.1,0.2,0.1,0.3,0s0.1-0.2,0-0.3c-0.4-0.5-1.1-0.7-1.7-0.7
			C32,90.6,32,90.9,32.2,90.9L32.2,90.9z"/>
	</g>
</g>
<g>
	<g>
		<path class="st13" d="M23.1,52.8c0.2,0,0.4-0.1,0.5-0.2c0.1-0.1,0.1-0.1,0-0.2c0-0.1-0.1-0.1-0.2-0.1s-0.1,0-0.2,0
			C23.2,52.4,23.2,52.5,23.1,52.8c0.2-0.1,0.3-0.1,0.3-0.1l0,0l0,0c0,0,0.1,0,0.1-0.1l0.1-0.1c0-0.1-0.1-0.2-0.2-0.2h-0.1
			c0.1,0.1,0.1,0.1,0.2,0.2l0,0l0,0l0,0l0,0l0,0l0,0l0,0v-0.1c0,0,0-0.1-0.1-0.1l-0.1-0.1c-0.1,0-0.1,0-0.2,0.1S23,52.4,23,52.5
			C23,52.6,23.1,52.6,23.1,52.8L23.1,52.8c0.1-0.1,0.2-0.1,0.2-0.2v-0.1l0,0c0,0,0-0.1-0.1-0.1l0,0l0,0l0,0l0,0l0,0l0,0l0,0l0,0l0,0
			l0,0l0,0l0,0l0,0l0,0l0,0l0,0l0,0l0,0l0,0l0,0l0,0c-0.1-0.1-0.1-0.1-0.2-0.2l0,0l0,0l0,0l0,0l0,0l0,0l0,0v0.1c0,0,0,0.1,0.1,0.1
			l0.1,0.1h0.1c0-0.1,0-0.2,0-0.4c-0.1,0-0.2,0-0.2,0l0,0l0,0c0,0-0.1,0-0.1,0.1l-0.1,0.1c0,0.1,0.1,0.2,0.2,0.2s0.1,0,0.2,0
			c0-0.1-0.1-0.2-0.1-0.3c0,0,0,0-0.1,0l0,0c0,0-0.1,0-0.1,0.1l0,0h-0.1l0,0c0,0,0,0-0.1,0c0,0-0.1,0-0.1,0.1l-0.1,0.1
			C22.9,52.8,23,52.8,23.1,52.8L23.1,52.8z"/>
	</g>
</g>
<g>
	<g>
		<path class="st13" d="M23.1,52.7L23.1,52.7C23.1,52.8,23.1,52.8,23.1,52.7c0,0.1,0,0.1,0,0.2c0,0,0,0,0.1,0c0,0,0,0,0.1,0l0,0h0.1
			l0.1-0.1l0,0c0,0,0,0,0-0.1c0,0,0,0,0-0.1c0,0,0,0-0.1,0c0,0,0,0-0.1,0l0,0h-0.1C23.1,52.6,23.1,52.6,23.1,52.7L23.1,52.7z"/>
	</g>
</g>
<g>
	<g>
		<path class="st13" d="M23.1,52.7C23.1,52.8,23.1,52.8,23.1,52.7C23.1,52.8,23.1,52.8,23.1,52.7c0,0.1,0,0.1,0,0.2c0,0,0,0,0.1,0
			c0,0,0,0,0.1,0l0,0h0.1l0.1-0.1c0,0,0,0,0-0.1c0,0,0,0,0-0.1c0,0,0,0,0-0.1c0,0,0,0-0.1,0c0,0,0,0-0.1,0l0,0h-0.1
			C23.1,52.6,23.1,52.7,23.1,52.7L23.1,52.7z"/>
	</g>
</g>
<g>
	<g>
		<path class="st13" d="M31.3,53.3c-0.4,0-0.8,0.1-0.9,0.5v0.1c0,0,0,0.1,0.1,0.1s0.2,0,0.3-0.1c0,0,0-0.1,0.1-0.1l0,0l0,0l0,0l0,0
			l0,0l0,0l0,0c0,0,0.1,0,0.1-0.1l0,0l0,0c0,0,0,0,0.1,0h0.1l0,0l0,0c0,0,0,0,0.1,0h0.1c0.1,0,0.2-0.1,0.2-0.2
			C31.5,53.4,31.4,53.3,31.3,53.3L31.3,53.3z"/>
	</g>
</g>
<g>
	<path class="st13" d="M16,90.9c0,0.1,0,0.2,0.1,0.2"/>
</g>
</svg>
