<?xml version="1.0" encoding="utf-8"?>
<!-- Generator: Adobe Illustrator 24.0.1, SVG Export Plug-In . SVG Version: 6.00 Build 0)  -->
<svg version="1.1" id="Layer_1" xmlns="http://www.w3.org/2000/svg" xmlns:xlink="http://www.w3.org/1999/xlink" x="0px" y="0px"
	 viewBox="0 0 141.7 141.7" style="enable-background:new 0 0 141.7 141.7;" xml:space="preserve">
<style type="text/css">
	.st0{fill:#609B44;}
	.st1{fill:#010101;}
	.st2{fill:#75CEEB;}
	.st3{fill:#C9B09D;}
	.st4{fill:#FFFFFF;}
	.st5{fill:#441616;}
	.st6{fill:#692222;}
	.st7{fill:#DD644B;}
	.st8{fill:#71503B;}
	.st9{fill:#CECBB6;}
	.st10{fill:#B64948;}
	.st11{fill:#AF8A71;}
	.st12{fill:#EEEED0;}
	.st13{fill:#4F1515;}
	.st14{fill:url(#SVGID_1_);}
	.st15{fill:#F7F8F6;}
	.st16{clip-path:url(#SVGID_3_);fill:#070707;}
	.st17{clip-path:url(#SVGID_5_);fill:#070707;}
	.st18{clip-path:url(#SVGID_7_);fill:#070707;}
	.st19{clip-path:url(#SVGID_9_);fill:#070707;}
	.st20{clip-path:url(#SVGID_11_);fill:#070707;}
	.st21{clip-path:url(#SVGID_13_);fill:none;stroke:#070707;stroke-width:0.4169;stroke-miterlimit:10;}
	.st22{clip-path:url(#SVGID_15_);fill:none;stroke:#070707;stroke-width:0.4169;stroke-miterlimit:10;}
	.st23{clip-path:url(#SVGID_17_);fill:#070707;}
	.st24{clip-path:url(#SVGID_19_);fill:#070707;}
	.st25{clip-path:url(#SVGID_21_);fill:#070707;}
	.st26{clip-path:url(#SVGID_23_);fill:#070707;}
	.st27{clip-path:url(#SVGID_25_);fill:#070707;}
	.st28{clip-path:url(#SVGID_27_);fill:#070707;}
	.st29{clip-path:url(#SVGID_29_);fill:#070707;}
	.st30{clip-path:url(#SVGID_31_);fill:#070707;}
	.st31{clip-path:url(#SVGID_33_);fill:#070707;}
	.st32{clip-path:url(#SVGID_35_);fill:#070707;}
	.st33{clip-path:url(#SVGID_37_);fill:#070707;}
	.st34{clip-path:url(#SVGID_39_);fill:#070707;}
	.st35{clip-path:url(#SVGID_41_);fill:#070707;}
	.st36{clip-path:url(#SVGID_43_);fill:#070707;}
	.st37{clip-path:url(#SVGID_45_);fill:#070707;}
	.st38{clip-path:url(#SVGID_47_);fill:#070707;}
	.st39{clip-path:url(#SVGID_49_);fill:#070707;}
	.st40{clip-path:url(#SVGID_51_);fill:#070707;}
	.st41{clip-path:url(#SVGID_53_);fill:#070707;}
	.st42{clip-path:url(#SVGID_55_);fill:#070707;}
	.st43{clip-path:url(#SVGID_57_);fill:#070707;}
	.st44{clip-path:url(#SVGID_59_);fill:#070707;}
	.st45{clip-path:url(#SVGID_61_);fill:#070707;}
	.st46{clip-path:url(#SVGID_63_);fill:#070707;}
	.st47{clip-path:url(#SVGID_65_);fill:#070707;}
	.st48{clip-path:url(#SVGID_67_);fill:#070707;}
	.st49{clip-path:url(#SVGID_69_);fill:#070707;}
	.st50{clip-path:url(#SVGID_71_);fill:#070707;}
	.st51{clip-path:url(#SVGID_73_);fill:#070707;}
	.st52{clip-path:url(#SVGID_75_);fill:#070707;}
	.st53{clip-path:url(#SVGID_77_);fill:#070707;}
	.st54{clip-path:url(#SVGID_79_);fill:#070707;}
	.st55{clip-path:url(#SVGID_81_);fill:#070707;}
	.st56{clip-path:url(#SVGID_83_);fill:#070707;}
	.st57{clip-path:url(#SVGID_85_);fill:#070707;}
	.st58{clip-path:url(#SVGID_87_);fill:#070707;}
	.st59{clip-path:url(#SVGID_89_);fill:#070707;}
	.st60{clip-path:url(#SVGID_91_);fill:#070707;}
	.st61{clip-path:url(#SVGID_93_);fill:#070707;}
	.st62{clip-path:url(#SVGID_95_);fill:#070707;}
	.st63{clip-path:url(#SVGID_97_);fill:#070707;}
	.st64{clip-path:url(#SVGID_99_);fill:#070707;}
	.st65{clip-path:url(#SVGID_101_);fill:#070707;}
	.st66{clip-path:url(#SVGID_103_);fill:#070707;}
	.st67{clip-path:url(#SVGID_105_);fill:#070707;}
	.st68{clip-path:url(#SVGID_107_);fill:#070707;}
	.st69{clip-path:url(#SVGID_109_);fill:#070707;}
	.st70{clip-path:url(#SVGID_111_);fill:#070707;}
	.st71{clip-path:url(#SVGID_113_);fill:#070707;}
	.st72{clip-path:url(#SVGID_115_);fill:#070707;}
	.st73{clip-path:url(#SVGID_117_);fill:#070707;}
	.st74{clip-path:url(#SVGID_119_);fill:#070707;}
	.st75{clip-path:url(#SVGID_121_);fill:#070707;}
	.st76{clip-path:url(#SVGID_123_);fill:#070707;}
	.st77{clip-path:url(#SVGID_125_);fill:#070707;}
	.st78{clip-path:url(#SVGID_127_);fill:#070707;}
	.st79{clip-path:url(#SVGID_129_);fill:#231F20;}
	.st80{clip-path:url(#SVGID_131_);fill:#231F20;}
	.st81{clip-path:url(#SVGID_133_);fill:#231F20;}
	.st82{fill:#070707;}
	.st83{fill:#886F68;}
	.st84{opacity:0.5;fill:url(#SVGID_134_);enable-background:new    ;}
	.st85{fill:#FFE416;}
	.st86{fill:#79C14D;}
	.st87{fill:#EF3835;}
	.st88{fill:#F9E782;}
	.st89{fill:#F9EDBB;}
	.st90{opacity:0.6;fill:url(#SVGID_135_);enable-background:new    ;}
	.st91{opacity:0.4;fill:#FFFFFF;enable-background:new    ;}
	.st92{fill:none;stroke:#070707;stroke-width:0.4169;stroke-miterlimit:10;}
	.st93{fill:none;stroke:#070707;stroke-width:0.5559;stroke-miterlimit:10;}
	.st94{fill:none;stroke:#070707;stroke-width:0.2779;stroke-miterlimit:10;}
</style>
<path class="st0" d="M97.2,115.3c0-6.4-20.3-11.6-45.3-11.6S6.7,109,6.7,115.3c0,6.4,20.3,11.6,45.3,11.6S97.2,121.7,97.2,115.3z"/>
<path class="st0" d="M133.7,99.9c0.1-5.2-20-10-45-10.6c-25-0.7-45.4,2.9-45.5,8.1s20,10,45,10.6
	C113.1,108.7,133.5,105.1,133.7,99.9z"/>
<g>
	<g>
		<path class="st1" d="M45.5,24.2c-0.9-1.3-1.3-3.3-0.5-4.8c0.3-0.6,0.8-0.9,1.4-0.7c0.4,0.1,0.7,0.4,1,0.7c0.1,0.1,0.2,0.2,0.3,0.3
			c0.1,0.1,0.2,0.1,0.1,0.3c0,0.1-0.3,0.3-0.4,0.4c-1.7,1.7-2.3-1.8-2-2.9c0.1-0.3,0.2-0.8,0.6-0.9c0.5-0.2,1,0.3,1.4,0.5
			c0.2,0.1,0.4-0.1,0.2-0.2c-1.1-1.3-0.5-3,1.2-3.4c0.2-0.1,0.1-0.4-0.1-0.3c-1.9,0.5-2.6,2.5-1.3,4c0.1-0.1,0.2-0.2,0.2-0.2
			c-0.5-0.4-1.2-0.9-1.8-0.6c-0.5,0.2-0.7,0.9-0.8,1.4c-0.1,1,0.1,3.1,1.3,3.5c0.8,0.2,1.5-0.6,1.9-1.2c0,0,0-0.1,0-0.2
			c-0.5-0.7-1.2-1.5-2.1-1.6c-0.6,0-1.1,0.4-1.4,0.9c-0.8,1.6-0.5,3.7,0.5,5.1C45.4,24.6,45.7,24.4,45.5,24.2L45.5,24.2z"/>
	</g>
</g>
<g>
	<g>
		<path class="st1" d="M46.8,24c-0.2-0.3-0.2-0.7-0.1-1.1c0.1-0.4,0.4-0.7,0.7-1c0.1-0.1,0.1-0.1,0.1-0.2s-0.2-0.1-0.2-0.1
			c-0.4,0.3-0.7,0.7-0.9,1.2c-0.1,0.5,0,0.9,0.2,1.3C46.6,24.4,46.9,24.2,46.8,24L46.8,24z"/>
	</g>
</g>
<g>
	<g>
		<path class="st1" d="M47.8,24.6c0.5-1.5,1.3-2.9,2.4-4.1c1.1-1.1,2.6-2,4.2-1.6c0.2,0.1,0.3-0.3,0.1-0.3c-1.7-0.4-3.2,0.4-4.4,1.6
			s-2.2,2.7-2.7,4.4C47.4,24.7,47.8,24.8,47.8,24.6L47.8,24.6z"/>
	</g>
</g>
<g>
	<g>
		<path class="st1" d="M127.9,63.4c0.6-0.1,1.2-0.3,1.6-0.7c0.3-0.3,0.6-0.7,0.7-1.1c0.2-0.6,0.1-1.6-0.7-1.7
			c-0.5,0-0.9,0.4-1.2,0.7c-0.1,0.1-0.1,0.2,0,0.3c0.2,0.2,0.5,0.2,0.8,0.1c0.1-0.1,0.2-0.1,0.3-0.2c0.1-0.1,0.3-0.1,0.5-0.1
			s0.2-0.4,0-0.3c-0.3,0-0.6,0.1-0.8,0.2c-0.2,0.1-0.3,0.1-0.5,0c0,0.1,0,0.2,0,0.3c0.1-0.2,0.3-0.3,0.5-0.5c0.1,0,0.2-0.1,0.2-0.1
			h0.1l0,0l0,0h0.1l0,0l0,0l0,0l0,0h0.1l0,0l0,0l0,0c0,0.1,0.1,0.1,0.1,0.2c0,0,0,0,0,0.1v0.1c0,0.1,0,0.1,0,0.2c0,0.2,0,0.3,0,0.5
			c-0.1,0.4-0.3,0.7-0.5,1c-0.4,0.4-0.9,0.6-1.5,0.7c-0.1,0-0.2,0.1-0.2,0.2C127.7,63.3,127.8,63.4,127.9,63.4L127.9,63.4z"/>
	</g>
</g>
<g>
	<g>
		<path class="st1" d="M129,64.2c0.4-0.2,0.8-0.4,1.2-0.6c0.1,0,0.1-0.2,0.1-0.2c0-0.1-0.2-0.1-0.2-0.1c-0.4,0.2-0.8,0.4-1.2,0.6
			c-0.1,0-0.1,0.2-0.1,0.2C128.8,64.2,129,64.2,129,64.2L129,64.2z"/>
	</g>
</g>
<path class="st2" d="M81.6,77.3c0.2-1.7,0.6-3.8,1.6-6c2.3-5.6,6.5-8.9,8.6-10.3c0.5,0.4,0.8,0.4,0.9,0.4c0.3-0.1,0.3-0.3,0.6-0.5
	c0.3-0.2,0.7-0.3,0.9-0.3c2.1-0.1,4.1-0.3,6.2-0.4l0.9,0.1l0.4,0.5c0.2,0.1,0.4,0.1,0.4,0.1c0.2-0.1,0.4-0.5,0.2-1.1
	c1.6-0.4,3.2-0.8,4.8-1.2c0.1,0,3.1-0.7,3.1-0.7l3.1-0.8c0,0,2.4-0.6,2.5-0.6s2.6-0.7,2.6-0.7l2.1-0.7c0.5,0,0.9,0,1.4,0
	c0.3,0.2,0.5,0.3,0.8,0.5c0.4,0.4,0.8,0.9,1.3,1.3c0.2,0.2,0.3,0.4,0.5,0.6c0.1,0.2,0.3,0.4,0.4,0.5c0.1,0.3,0.3,0.6,0.5,0.9
	c0.2,0.4,0.5,0.8,0.7,1.1c0.5,0.7,0.9,1.5,1.4,2.2c0.3,0.5,0.5,1.1,0.8,1.6c0.3,0.7,0.6,1.4,0.9,2.1c0.2,0.9,0.4,1.7,0.7,2.6
	c0.1,0.7,0.2,1.4,0.2,2.1c0,0.6,0,1.2-0.1,1.9c-0.1,0.5-0.1,1-0.2,1.5c0.3,0.2,0.6,0.4,0.8,0.6c0.3,0.3,0.7,0.7,1,1
	c0.2,0.3,0.4,0.6,0.5,0.8c0.1,0.2,0.2,0.5,0.3,0.7c0.1,0.3,0.2,0.6,0.3,0.9c0,0.4-0.1,0.7-0.1,1.1c-0.2,0.3-0.3,0.7-0.5,1
	c-0.3,0.3-0.5,0.7-0.8,1l-0.9,0.4l-1.3,0.3l-1.2-0.1l-0.7-0.4c-0.5-0.2-0.9-0.5-1.4-0.7c-0.1,0.1-0.3,0.2-0.4,0.3l-2.8,1.5l-3,0.9
	l-2.4,0.7l-1.9,0.7l-1.3,0.7l-1,0.8c-0.3,0.2-0.5,0.5-0.8,0.7c-0.3,0.3-0.5,0.6-0.8,0.9c-0.2,0.3-0.5,0.6-0.7,0.9
	c-0.1,0.3-0.2,0.7-0.2,1l0.1,0.2c0,0,1.3,0.6,0.7,2c0,0-1,1.4-2.4,0l-0.8,0.6l-0.8,0.7l-1.7,0.6l-1.8,0.6l-1.4,0.2
	c0.1,0-1.3,0.2-1.3,0.2l-0.3-0.6l-0.5-0.7l-0.5-0.4l-0.7-0.4l-0.4-0.1c-0.2-0.1-0.3-0.1-0.5-0.2c-0.2,0-0.4-0.1-0.6-0.1
	c-0.2,0.1-0.4,0.1-0.6,0.2c-0.2,0.1-0.6,0.3-1,0.7c-0.5,0.6-0.6,1.3-0.6,1.6H95l-1.3-0.5l-1.5-0.6l-1.5-0.9L89,91.6l-1.7-1.7
	L85.7,88l-1.3-1.7l-1.1-1.8L83,82.9l-0.5-1.2l-0.3-1h0.3l-0.1-0.5v-0.8l-0.1-0.6l-0.1-0.6L82,77.7L81.6,77.3z"/>
<path class="st3" d="M91.9,61l-0.4-0.4L91.1,60l-0.4-0.6l-0.2-0.7l-0.1-0.5v-0.5v-0.3l0.2-0.3l0.1-0.1l0.3-0.1l0.3,0.1h0.2l0.2-0.1
	L92,57l0.3,0.2l0.3,0.4l0.2,0.4l0.1,0.5c0,0.1,0.1,0.4,0.1,0.5v0.5V60l0.1,0.8V61C93.2,60.9,92.8,62,91.9,61z"/>
<path class="st3" d="M102.1,60.9c0.1-0.1,0.1-0.1,0.2-0.2c0,0,0.1-0.2,0.1-0.1c0.1-0.3,0.1-0.7,0.1-1l0,0l-0.1-0.7l-0.1-0.4
	l-0.3-0.6l-0.3-0.5l-0.4-0.4l-0.2-0.3l-0.4-0.3l-0.3-0.2h-0.7l-0.3,0.1l-0.3,0.2l-0.2,0.3l-0.2,0.4l-0.1,0.4l0.1,0.5l0.1,0.6
	l0.2,0.4l0.3,0.4l0.3,0.4l0.4,0.3l0.4,0.2l0.4,0.2l0.3,0.2l0.2,0.2C101.5,60.9,101.8,61,102.1,60.9z"/>
<path class="st3" d="M76.7,77.9l0.2-0.3l0.6-0.3l0.7-0.1H79c0,0,0.6,0,0.7,0l0.7,0.1l0.6,0.1l0.2,0.2l0.3,0.2l0.2,0.3l0.1,0.3
	l0.1,0.3c0,0,0.1,0.3,0.1,0.4c0,0,0.1,0.5,0.1,0.6v0.4v0.4l0.1,0.2L82,80.8l-0.3-0.1h-0.4h-0.4h-0.6h-0.5h-0.6h-0.5l-0.5-0.1
	l-0.5-0.2l-0.5-0.3l-0.3-0.3l-0.2-0.4L76.6,79v-0.4l0.1-0.4V77.9z"/>
<path class="st3" d="M95.4,94.7l0.1-0.6l0.3-0.5l0.4-0.4l0.3-0.3l0.5-0.3l0.6-0.2l0.6,0.1l0.6,0.1l0.6,0.3l0.5,0.5l0.4,0.4l0.3,0.4
	l0.2,0.4c0,0,0.2,0.4,0.2,0.5l0.1,0.5l-0.3,0.5l-0.4,0.4l-0.3,0.2l-0.4,0.1h-0.4h-0.5l-0.4-0.2l-0.7-0.3L97,95.8l-0.5-0.3l-0.6-0.2
	L95.5,95L95.4,94.7z"/>
<path class="st4" d="M113.1,61.4l0.2-0.8l0.2-0.6l0.4-0.6l0.4-0.5l0.5-0.5l0.9-0.6l0.6-0.3l1-0.2h0.9l1,0.2l0.8,0.3l1,0.7l0.5,0.6
	l0.6,0.8l0.3,0.7l0.2,0.7V62l-0.1,0.8l-0.3,1l-0.3,0.7l-0.4,0.5l-0.5,0.5l-0.6,0.4l-0.7,0.4l-0.8,0.2l-0.8,0.1H117l-0.5-0.2
	l-0.6-0.2l-0.7-0.4l-0.7-0.5l-0.6-0.7l-0.4-0.6l-0.3-0.6l-0.2-0.6V62L113.1,61.4L113.1,61.4z"/>
<path class="st4" d="M116.8,73.3l0.1-0.9l0.2-0.8l0.4-0.9l0.8-0.9l0.6-0.5l1.1-0.5l0.9-0.2h1l1.1,0.2l0.7,0.3l0.8,0.5l0.7,0.7
	l0.5,0.8l0.4,0.8l0.1,1.2c0,0-0.1,1-0.1,1.1l-0.2,0.7l-0.8,1.5l-0.8,0.7l-0.9,0.5l-1,0.3l-1,0.1l-1-0.2l-1-0.4l-0.8-0.6l-0.8-0.8
	l-0.5-0.8l-0.4-1.1L116.8,73.3z"/>
<path class="st4" d="M111.7,68.1h-0.5l-0.5,0.1l-0.6,0.2l-0.5,0.3l-0.3,0.2l-0.1,0.2c0,0.1,0,0.1,0,0.2c0,0.1,0,0.2-0.1,0.3
	c0,0.1,0.1,0.1,0.2,0.2c0,0.1,0.1,0.1,0.1,0.2c0.1,0.1,0.2,0.1,0.2,0.2c0.1,0.1,0.2,0.1,0.3,0.2c0.1,0.1,0.2,0.1,0.3,0.2h0.3
	l-0.3,0.2l-0.3,0.3l-0.1,0.3v0.3l0.1,0.3l0.1,0.2l0.2,0.2l0.3,0.1h0.5h0.4l0.4-0.1l0.5-0.2l0.4-0.2l0.3-0.2l0.1-0.1V71v-0.6
	l-0.2-0.4l-0.2-0.5l-0.3-0.5l-0.3-0.5L111.7,68.1z"/>
<path class="st3" d="M111.6,67.9l-0.1-0.5v-0.5v-0.4l0.2-0.4l0.2-0.2l0.4-0.2h0.4l0.4,0.1l0.4,0.2l0.4,0.3l0.3,0.3l0.4,0.4l0.2,0.3
	c0,0-0.1,0.4-0.1,0.5s0,0.5,0,0.6s0.1,0.5,0.1,0.6s0.2,0.4,0.2,0.5s0.2,0.4,0.3,0.5c0.1,0.1,0.3,0.3,0.3,0.3l0.2,0.2l-0.1,0.5
	l-0.1,0.6l-0.1,0.5l-0.2,0.4l-0.2,0.3l-0.1,0.2l-0.3,0.2l-0.5,0.1h-0.4l-0.3-0.2l-0.3-0.2l-0.2-0.4L113,72v-0.4v-0.5v-0.4v-0.4
	l-0.1-0.3l-0.2-0.5l-0.4-0.7l-0.3-0.6L111.6,67.9z"/>
<polyline class="st2" points="102.3,59.8 102.9,59.7 102.9,60.5 102.6,61.1 102.1,60.8 102.4,60.5 102.4,60.1 102.3,59.8 "/>
<path class="st5" d="M121.4,54.9c0.1,0,0.8-0.4,0.8-0.4l0.6-0.5l0.4-0.4l0.4-0.5l0.7-0.3l1.3-0.6l1.1-0.4l1.2-0.6l1-0.5l1.1-0.5
	l0.6-0.2l0.4,0.5c0,0,0.4,0.8,0.4,0.9c0,0.1,0.1,0.8,0.1,0.8v0.9l0.1,0.9l-0.2,0.7l-0.3,0.7l-0.2,0.5c0,0-0.5,0.2-0.5,0.3
	c-0.1,0.1-1.3,0-1.3,0h-1.5l-1.3-0.1h-1.1h-0.9h-0.6l-0.5-0.3l-0.8-0.5l-0.5-0.2L121.4,54.9z"/>
<path class="st6" d="M124,52.7l0.7-0.8l1.2-1.4l1.1-1.3l5.5-6.2l0.9,0.5l0.7,0.9l0.5,0.9c0.1,0,0.3,0.8,0.3,0.9
	c0,0.1,0.1,0.7,0.1,0.8s0,0.7,0,0.7l-0.2,0.3l-0.7,0.4c0,0-0.7,0.2-0.7,0.3s-1,0.5-1,0.5l-1.5,0.6l-1.1,0.6l-0.9,0.5l-1.4,0.6
	l-2,0.9L124,52.7z"/>
<path class="st7" d="M120.5,48.9l0.4,0.9l0.6,1.3l0.5,1.1c0,0,0.3,0.8,0.4,0.9c0.1,0.1,0.3,0.7,0.3,0.7l0.1,0.2l1.3-1.4l8.3-9.6
	l4.3-5.1l-0.2-0.5l-0.6-1l-0.6-1l-0.6-0.9l-0.7-1.1l-0.4,0.3l-8.3,9.7L120.5,48.9z"/>
<path class="st8" d="M117,43.4l15.7-12.9l-0.3-1.5l-0.5-1l-0.4-0.4l-0.5-0.2l-0.4,0.2l-0.5,0.3l-15.5,11c0,0,0.9,1.3,1,1.4
	c0,0.1,0.5,1,0.5,1l0.5,1.1L117,43.4z"/>
<polygon class="st9" points="108.8,37.8 111.6,36.1 115.3,33.6 127.8,25.9 131.8,23.9 131.7,22.3 131.4,20.9 131.1,19.9 130.5,19 
	127.6,20.6 113.5,29.5 107.4,33.4 107.5,34.3 107.9,35.6 108.1,36.5 108.4,37.3 "/>
<polygon class="st10" points="84.9,35.4 89.9,31.9 98.2,26.7 109,20.5 112.1,18.8 116.1,18.6 124.6,18.2 128.7,18 130.4,18.2 
	130.8,18.5 130.6,18.7 116,27.9 107.7,33.1 107.3,33.4 101.8,33.2 96.8,33.5 92,34.1 "/>
<path class="st4" d="M84.8,35.7l-0.3,0.6c0,0,0.2,0.6,0.1,0.6c0,0.1,0.3,0.8,0.3,0.8l0.5,0.3l1.1-0.2l10.2-0.6h11.7l-1.1-3.9
	l-8.2-0.2L92.4,34c0,0-4.1,0.5-4,0.6c0,0.1-2.5,0.6-2.5,0.6L84.8,35.7z"/>
<polygon class="st11" points="94.5,37.8 89.7,41.3 89.5,41.7 92.3,41.7 105.1,40.3 109.3,39.7 114.5,39 122.6,33.5 129.1,28.7 
	130.1,27.9 128.8,27.9 125.7,28.3 123,28.9 115.7,33.4 108.9,37.8 108.6,37.6 108.4,37.4 98.8,37.3 94.8,37.4 "/>
<polygon class="st12" points="89.5,42.1 90.2,45.8 98,45.1 109.5,43.7 114.1,43.3 116.7,43.3 116,41.4 114.6,39.1 112.5,39.2 
	100.9,40.8 92.7,41.7 89.4,41.7 "/>
<path class="st13" d="M87.5,48.7l-0.2,1.1c0,0,0.1,1.3,0.1,1.4c0,0.1,0.4,1,0.4,1l0.2,0.3l4.5-4.8L92,47.5L87.5,48.7z"/>
<linearGradient id="SVGID_1_" gradientUnits="userSpaceOnUse" x1="87.6" y1="98.5323" x2="133.8" y2="98.5323" gradientTransform="matrix(1 0 0 -1 0 141.7323)">
	<stop  offset="0" style="stop-color:#FEE994"/>
	<stop  offset="0" style="stop-color:#E27C63"/>
	<stop  offset="0.4624" style="stop-color:#F9DD8C"/>
	<stop  offset="0.9843" style="stop-color:#F26D60"/>
</linearGradient>
<polygon class="st14" points="94.5,45.5 87.6,53.3 89.4,52.9 93.7,52.5 100.3,51.7 106.9,50.8 111.9,50.3 120,49.3 128.9,39.2 
	133.8,33.5 133.4,33.1 132.1,33.3 129,33.9 117,43.4 116.4,43.3 112.3,43.4 104.9,44.2 "/>
<path class="st15" d="M87.3,53.5l-0.5,0.7L86.5,55v1l0.4,1.5l0.2,0.4L87,58.7l0.3,1.2l0.6,1.5l2-0.2l0.9-0.1l0.4,0.2l0.5-0.4
	l-0.6-0.6l-0.4-0.8l-0.3-0.8L90.3,58v-0.6l0.3-0.4l0.3-0.1l0.4,0.1h0.2l0.4-0.1l0.3,0.2l0.5,0.5l0.4,0.7l0.1,0.8V60v0.6l0.1,0.3
	l3.5-0.5l3.3-0.3l-0.6-0.7L99,58.6L98.6,58l0.1-0.9l0.3-0.5l0.4-0.3l0.6-0.1l0.6,0.2l0.6,0.5l0.4,0.6l0.5,0.8l0.2,0.6l0.1,0.7
	l0.9-0.1l2.5-0.7l2.4-0.4l2.3-0.5l7.8-2l3.2-1.1l1-0.6l0.1-0.7l-1.1-2.6l-0.9-1.9l-0.4,0.2l-18.8,2.3l-10.6,1.2L89.2,53l-1.3,0.3
	L87.3,53.5z"/>
<g>
	<defs>
		<rect id="SVGID_2_" x="61" y="4.3" width="99" height="108.9"/>
	</defs>
	<clipPath id="SVGID_3_">
		<use xlink:href="#SVGID_2_"  style="overflow:visible;"/>
	</clipPath>
	<path class="st16" d="M101.4,94.9c2-0.3,4.1-0.6,5.9-1.6c1.6-0.9,2.6-2.5,3.5-4c1.1-1.9,2.3-3.4,4.3-4.3c2.1-1,4.5-1.3,6.7-2
		c3.2-1.2,6-3.2,7.4-6.4c1.7-3.9,1.3-8.4-0.3-12.2c-1-2.2-2.3-4.3-3.7-6.3c-0.9-1.3-2.5-3.5-4.4-3c-0.3,0.1-0.2,0.5,0.1,0.5
		c2-0.5,3.7,2.6,4.6,4c1.2,1.8,2.3,3.6,3.1,5.6c1.5,3.8,1.7,8.3-0.1,12c-1.6,3.2-4.6,4.9-7.9,5.9s-6.8,1.4-9,4.4
		c-1.2,1.6-1.9,3.5-3.3,4.9C106.5,94.1,103.8,94.5,101.4,94.9C101.1,94.5,101.1,95,101.4,94.9"/>
</g>
<g>
	<defs>
		<rect id="SVGID_4_" x="61" y="4.3" width="99" height="108.9"/>
	</defs>
	<clipPath id="SVGID_5_">
		<use xlink:href="#SVGID_4_"  style="overflow:visible;"/>
	</clipPath>
	<path class="st17" d="M81.5,80.7c0.8,3.4,2.9,6.3,5.2,8.9c2.4,2.6,5.2,4.7,8.7,5.4c0.3,0.1,0.4-0.4,0.1-0.5
		c-3.5-0.6-6.2-2.7-8.5-5.3c-2.3-2.5-4.3-5.3-5.1-8.7C82,80.3,81.5,80.4,81.5,80.7"/>
</g>
<g>
	<defs>
		<rect id="SVGID_6_" x="61" y="4.3" width="99" height="108.9"/>
	</defs>
	<clipPath id="SVGID_7_">
		<use xlink:href="#SVGID_6_"  style="overflow:visible;"/>
	</clipPath>
	<path class="st18" d="M91.5,60.8c-5.7,3.7-9.9,9.7-10.3,16.6c0,0.3,0.5,0.3,0.5,0c0.4-6.7,4.5-12.6,10-16.2
		C92,61.1,91.8,60.6,91.5,60.8"/>
</g>
<g>
	<defs>
		<rect id="SVGID_8_" x="61" y="4.3" width="99" height="108.9"/>
	</defs>
	<clipPath id="SVGID_9_">
		<use xlink:href="#SVGID_8_"  style="overflow:visible;"/>
	</clipPath>
	<path class="st19" d="M114.6,67.1C114.6,67.1,114.6,67.2,114.6,67.1c0.2,0.1,0.2,0,0.3,0c-0.2-0.2-0.3-0.5-0.6-0.7
		c-0.3-0.2-0.6-0.4-0.9-0.6c-0.4-0.2-1-0.4-1.4-0.1c-0.5,0.3-0.7,1.1-0.6,1.7c0.2,1.1,1.1,1.9,1.4,2.9c0.3,1.1-0.3,3.2,1.5,3.1
		c1.5-0.1,1.7-2.1,1.8-3.2c0-0.2-0.2-0.2-0.2,0c-0.1,1-0.4,3.4-2,2.9c-1.2-0.4-0.6-2.2-0.9-3.1c-0.2-0.5-0.5-1-0.8-1.5
		c-0.4-0.7-1-2.1,0-2.6c0.5-0.3,1.3,0.1,1.7,0.4c0.4,0.3,0.6,0.6,0.9,0.9c0.1,0.1,0.3,0,0.2-0.1c0,0,0-0.1-0.1-0.1
		C114.7,66.8,114.5,67,114.6,67.1"/>
</g>
<g>
	<defs>
		<rect id="SVGID_10_" x="61" y="4.3" width="99" height="108.9"/>
	</defs>
	<clipPath id="SVGID_11_">
		<use xlink:href="#SVGID_10_"  style="overflow:visible;"/>
	</clipPath>
	<path class="st20" d="M112.8,71.5c-0.5,0.4-1.2,0.8-1.9,0.8c-0.4,0-0.9-0.2-1-0.7s0.2-0.7,0.6-1c0.1-0.1-0.1-0.3-0.2-0.2
		c-0.3,0.2-0.6,0.5-0.7,0.9c0,0.4,0.2,0.8,0.5,1c0.8,0.7,2.2,0,2.9-0.5C113,71.6,112.9,71.4,112.8,71.5"/>
</g>
<g>
	<defs>
		<rect id="SVGID_12_" x="61" y="4.3" width="99" height="108.9"/>
	</defs>
	<clipPath id="SVGID_13_">
		<use xlink:href="#SVGID_12_"  style="overflow:visible;"/>
	</clipPath>
	<path class="st21" d="M122.8,77.7c2.5-0.7,3.9-3.3,3.2-5.8c-0.7-2.5-3.3-3.9-5.8-3.2c-2.5,0.7-3.9,3.3-3.2,5.8
		C117.7,77,120.3,78.4,122.8,77.7z"/>
</g>
<g>
	<defs>
		<rect id="SVGID_14_" x="61" y="4.3" width="99" height="108.9"/>
	</defs>
	<clipPath id="SVGID_15_">
		<use xlink:href="#SVGID_14_"  style="overflow:visible;"/>
	</clipPath>
	<path class="st22" d="M119,66.5c2.5-0.7,3.9-3.3,3.2-5.8c-0.7-2.5-3.3-3.9-5.8-3.2s-3.9,3.3-3.2,5.8
		C113.9,65.8,116.5,67.2,119,66.5z"/>
</g>
<g>
	<defs>
		<rect id="SVGID_16_" x="61" y="4.3" width="99" height="108.9"/>
	</defs>
	<clipPath id="SVGID_17_">
		<use xlink:href="#SVGID_16_"  style="overflow:visible;"/>
	</clipPath>
	<path class="st23" d="M116.3,70.8c0.6-0.2,0.9-1.2,0.5-2.3c-0.3-1.1-1.1-1.9-1.7-1.7c-0.6,0.2-0.9,1.2-0.5,2.3
		C114.9,70.2,115.6,70.9,116.3,70.8"/>
</g>
<g>
	<defs>
		<rect id="SVGID_18_" x="61" y="4.3" width="99" height="108.9"/>
	</defs>
	<clipPath id="SVGID_19_">
		<use xlink:href="#SVGID_18_"  style="overflow:visible;"/>
	</clipPath>
	<path class="st24" d="M122,70.5c-0.2-0.8-1.1-1.3-1.9-1.1c-0.8,0.2-1.3,1.1-1.1,1.9c0.2,0.8,1.1,1.3,1.9,1.1
		C121.8,72.2,122.2,71.3,122,70.5 M119.8,71.8c-0.1-0.2,0.1-0.5,0.3-0.5c0.2-0.1,0.5,0.1,0.5,0.3c0.1,0.2-0.1,0.5-0.3,0.5
		S119.8,72,119.8,71.8"/>
</g>
<g>
	<defs>
		<rect id="SVGID_20_" x="61" y="4.3" width="99" height="108.9"/>
	</defs>
	<clipPath id="SVGID_21_">
		<use xlink:href="#SVGID_20_"  style="overflow:visible;"/>
	</clipPath>
	<path class="st25" d="M118.3,59.1c-0.2-0.8-1.1-1.3-1.9-1.1s-1.3,1.1-1.1,1.9c0.2,0.8,1.1,1.3,1.9,1.1
		C118.1,60.8,118.6,60,118.3,59.1 M116.1,60.4c-0.1-0.2,0.1-0.5,0.3-0.5c0.2-0.1,0.5,0.1,0.5,0.3c0.1,0.2-0.1,0.5-0.3,0.5
		C116.4,60.8,116.2,60.7,116.1,60.4"/>
</g>
<g>
	<defs>
		<rect id="SVGID_22_" x="61" y="4.3" width="99" height="108.9"/>
	</defs>
	<clipPath id="SVGID_23_">
		<use xlink:href="#SVGID_22_"  style="overflow:visible;"/>
	</clipPath>
	<path class="st26" d="M112.6,69.7c-0.7,0.3-3.9,1.3-3.3-0.5c0.3-0.9,1.7-1.1,2.5-1.1c0.2,0,0.2-0.2,0-0.2c-1,0-3,0.4-2.7,1.7
		c0.3,1.6,2.9,0.7,3.7,0.2C112.8,69.9,112.7,69.6,112.6,69.7"/>
</g>
<g>
	<defs>
		<rect id="SVGID_24_" x="61" y="4.3" width="99" height="108.9"/>
	</defs>
	<clipPath id="SVGID_25_">
		<use xlink:href="#SVGID_24_"  style="overflow:visible;"/>
	</clipPath>
	<path class="st27" d="M129.9,74.3c1.7,1.2,3.4,3.2,2.2,5.4c-1.1,1.9-3.9,2.8-5.6,1.1c-0.2-0.2-0.6,0.1-0.4,0.3
		c1.9,1.8,4.8,1.1,6.2-0.9c1.6-2.4-0.1-4.9-2.2-6.3C129.9,73.7,129.7,74.2,129.9,74.3"/>
</g>
<g>
	<defs>
		<rect id="SVGID_26_" x="61" y="4.3" width="99" height="108.9"/>
	</defs>
	<clipPath id="SVGID_27_">
		<use xlink:href="#SVGID_26_"  style="overflow:visible;"/>
	</clipPath>
	<path class="st28" d="M80.6,77.3c1.7,0.4,1.1,2.4,1.5,3.7c0.1,0,0.1-0.1,0.2-0.1c-1.5-0.8-4.7,0.3-5.4-1.5c-1-2.5,2.9-2.1,4.2-1.9
		c0.2,0,0.2-0.2,0.1-0.2c-1.3-0.3-4.5-0.8-4.7,1.3c-0.2,3,4.1,1.7,5.7,2.6c0.1,0.1,0.2,0,0.2-0.1C82,79.7,82.6,77.7,80.6,77.3
		C80.5,77,80.4,77.3,80.6,77.3"/>
</g>
<g>
	<defs>
		<rect id="SVGID_28_" x="61" y="4.3" width="99" height="108.9"/>
	</defs>
	<clipPath id="SVGID_29_">
		<use xlink:href="#SVGID_28_"  style="overflow:visible;"/>
	</clipPath>
	<path class="st29" d="M76.8,79.1c0.4-0.9,1.3-1,2.1-0.8c0.2,0,0.2-0.2,0.1-0.2c-1-0.2-2,0-2.5,1C76.5,79.2,76.8,79.3,76.8,79.1"/>
</g>
<g>
	<defs>
		<rect id="SVGID_30_" x="61" y="4.3" width="99" height="108.9"/>
	</defs>
	<clipPath id="SVGID_31_">
		<use xlink:href="#SVGID_30_"  style="overflow:visible;"/>
	</clipPath>
	<path class="st30" d="M99,96.6c-1-0.2-1.8-0.9-2.8-1.3c-0.5-0.2-0.8-0.4-0.5-1.2c0.2-0.5,0.7-1.1,1.2-1.3c1.3-0.6,2.7,0.2,3.4,1.2
		c0.5,0.6,0.8,1.5,0.2,2.2C100.4,96.6,99.5,96.6,99,96.6c-0.2,0-0.2,0.2,0,0.2c1.2,0.1,2.4-0.4,2.2-1.8c-0.2-1.4-1.7-2.6-3.1-2.7
		c-0.8-0.1-1.4,0.2-2,0.8c-0.4,0.4-1,1.1-0.9,1.7c0.1,0.5,0.5,0.5,0.9,0.7c1,0.4,1.7,1.1,2.8,1.3C99.1,96.9,99.2,96.6,99,96.6"/>
</g>
<g>
	<defs>
		<rect id="SVGID_32_" x="61" y="4.3" width="99" height="108.9"/>
	</defs>
	<clipPath id="SVGID_33_">
		<use xlink:href="#SVGID_32_"  style="overflow:visible;"/>
	</clipPath>
	<path class="st31" d="M98.8,94.5c0.8,0.4,1.5,1,1.8,1.8c0.1,0.1,0.3,0.1,0.2-0.1c-0.3-0.9-1.1-1.5-1.9-1.9
		C98.8,94.2,98.7,94.4,98.8,94.5"/>
</g>
<g>
	<defs>
		<rect id="SVGID_34_" x="61" y="4.3" width="99" height="108.9"/>
	</defs>
	<clipPath id="SVGID_35_">
		<use xlink:href="#SVGID_34_"  style="overflow:visible;"/>
	</clipPath>
	<path class="st32" d="M101.5,60.7c-0.3-0.3-0.7-0.3-1.1-0.5c-0.7-0.4-1.4-1.2-1.6-2c-0.2-1.2,0.6-2.4,1.8-1.6
		c0.7,0.5,1.1,1.3,1.4,2.1c0.1,0.1,0.3,0,0.2-0.1c-0.4-1-0.9-2.1-2-2.5c-0.6-0.2-1.2,0-1.5,0.6c-0.4,0.8-0.3,1.8,0.2,2.5
		c0.3,0.4,0.6,0.8,1,1c0.4,0.3,0.9,0.3,1.3,0.6C101.4,61,101.6,60.8,101.5,60.7"/>
</g>
<g>
	<defs>
		<rect id="SVGID_36_" x="61" y="4.3" width="99" height="108.9"/>
	</defs>
	<clipPath id="SVGID_37_">
		<use xlink:href="#SVGID_36_"  style="overflow:visible;"/>
	</clipPath>
	<path class="st33" d="M100.2,57.9c-0.5-0.4-0.9-1.1-0.3-1.6c0.1-0.1-0.1-0.3-0.2-0.2c-0.7,0.6-0.2,1.5,0.3,2
		C100.2,58.2,100.3,58,100.2,57.9"/>
</g>
<g>
	<defs>
		<rect id="SVGID_38_" x="61" y="4.3" width="99" height="108.9"/>
	</defs>
	<clipPath id="SVGID_39_">
		<use xlink:href="#SVGID_38_"  style="overflow:visible;"/>
	</clipPath>
	<path class="st34" d="M130.3,78.9c0.5-0.4,0.6-1.1,0.3-1.6c-0.4-0.5-1.1-0.6-1.6-0.3c-0.5,0.4-0.6,1.1-0.3,1.6
		C129.1,79.1,129.8,79.3,130.3,78.9"/>
</g>
<g>
	<defs>
		<rect id="SVGID_40_" x="61" y="4.3" width="99" height="108.9"/>
	</defs>
	<clipPath id="SVGID_41_">
		<use xlink:href="#SVGID_40_"  style="overflow:visible;"/>
	</clipPath>
	<path class="st35" d="M92,61c-0.7-0.5-1.1-1.3-1.4-2.1c-0.1-0.3-0.2-0.6-0.2-0.9c0-0.5,0.2-1.1,0.8-0.9c0.1,0.1,0.2-0.2,0.1-0.2
		c-0.9-0.3-1.2,0.3-1.1,1.1c0.1,1.2,0.7,2.4,1.7,3.2C91.9,61.3,92.1,61.1,92,61"/>
</g>
<g>
	<defs>
		<rect id="SVGID_42_" x="61" y="4.3" width="99" height="108.9"/>
	</defs>
	<clipPath id="SVGID_43_">
		<use xlink:href="#SVGID_42_"  style="overflow:visible;"/>
	</clipPath>
	<path class="st36" d="M91.6,58c-0.1-0.2-0.2-0.4-0.2-0.6c0.1-0.3,0.4-0.4,0.7-0.2c0.3,0.2,0.5,0.6,0.6,0.9c0.2,0.6,0.3,1.2,0.3,1.8
		c0,0.2,0.2,0.2,0.2,0c0.1-0.9-0.1-2.3-0.9-2.9c-0.2-0.2-0.7-0.4-1-0.2c-0.3,0.3-0.2,0.9,0,1.2C91.4,58.2,91.7,58.2,91.6,58"/>
</g>
<g>
	<defs>
		<rect id="SVGID_44_" x="61" y="4.3" width="99" height="108.9"/>
	</defs>
	<clipPath id="SVGID_45_">
		<use xlink:href="#SVGID_44_"  style="overflow:visible;"/>
	</clipPath>
	<path class="st37" d="M88.3,61.7c0.9-0.2,1.8-0.3,2.7-0.5c0.3-0.1,0.2-0.5-0.1-0.5c-0.9,0.2-1.8,0.3-2.7,0.5
		C87.8,61.3,87.9,61.8,88.3,61.7"/>
</g>
<g>
	<defs>
		<rect id="SVGID_46_" x="61" y="4.3" width="99" height="108.9"/>
	</defs>
	<clipPath id="SVGID_47_">
		<use xlink:href="#SVGID_46_"  style="overflow:visible;"/>
	</clipPath>
	<path class="st38" d="M93.7,61.2c1.8-0.3,3.6-0.6,5.4-0.7c0.3,0,0.3-0.5,0-0.5c-1.8,0.1-3.7,0.4-5.5,0.7
		C93.2,60.8,93.4,61.3,93.7,61.2"/>
</g>
<g>
	<defs>
		<rect id="SVGID_48_" x="61" y="4.3" width="99" height="108.9"/>
	</defs>
	<clipPath id="SVGID_49_">
		<use xlink:href="#SVGID_48_"  style="overflow:visible;"/>
	</clipPath>
	<path class="st39" d="M110.7,57.7c-2.7,0.5-5.4,1.1-8.1,1.8l0,0c-0.1,0-0.2,0.1-0.2,0.1c0,0.2,0,0.4,0,0.5h0.1
		c2.8-0.7,5.6-1.3,8.4-1.9C111.2,58.1,111,57.6,110.7,57.7z"/>
</g>
<g>
	<defs>
		<rect id="SVGID_50_" x="61" y="4.3" width="99" height="108.9"/>
	</defs>
	<clipPath id="SVGID_51_">
		<use xlink:href="#SVGID_50_"  style="overflow:visible;"/>
	</clipPath>
	<path class="st40" d="M110.2,58.2c3.5-1,7.2-1.6,10.6-2.9c0.8-0.3,2.3-0.5,2.1-1.6c-0.2-0.8-0.6-1.6-0.9-2.4
		c-0.4-0.9-0.8-1.7-1.3-2.6c-0.1-0.3-0.6,0-0.4,0.2c0.8,1.4,1.4,2.9,2,4.4c0.2,0.6,0.2,0.7-0.3,1c-0.3,0.2-0.8,0.4-1.2,0.5
		c-0.7,0.3-1.3,0.5-2,0.7c-2.8,0.9-5.8,1.4-8.6,2.2C109.7,57.8,109.9,58.3,110.2,58.2"/>
</g>
<g>
	<defs>
		<rect id="SVGID_52_" x="61" y="4.3" width="99" height="108.9"/>
	</defs>
	<clipPath id="SVGID_53_">
		<use xlink:href="#SVGID_52_"  style="overflow:visible;"/>
	</clipPath>
	<path class="st41" d="M88.3,61.4c-0.4-0.8-0.9-1.9-0.9-2.8c0-0.7,0.5-0.9,1.1-1.1c0.5-0.2,0.9-0.3,1.4-0.3c0.3-0.1,0.2-0.5-0.1-0.5
		c-0.8,0.1-2.7,0.4-2.9,1.4c-0.1,0.5,0.2,1.1,0.3,1.6c0.2,0.7,0.5,1.3,0.8,2C88,62,88.4,61.7,88.3,61.4"/>
</g>
<g>
	<defs>
		<rect id="SVGID_54_" x="61" y="4.3" width="99" height="108.9"/>
	</defs>
	<clipPath id="SVGID_55_">
		<use xlink:href="#SVGID_54_"  style="overflow:visible;"/>
	</clipPath>
	<path class="st42" d="M87.5,58.1C87,57,86.3,55.4,87,54.3c0.8-1.3,3.3-1.1,4.7-1.3c3.1-0.4,6.3-0.8,9.4-1.1
		c6.3-0.8,12.6-1.5,18.9-2.3c0.3,0,0.3-0.5,0-0.5c-7.3,0.9-14.7,1.8-22,2.6c-1.8,0.2-3.7,0.4-5.5,0.7c-1.5,0.2-3.3,0.1-4.7,0.7
		c-2.3,0.9-1.6,3.6-0.8,5.3C87.2,58.7,87.6,58.4,87.5,58.1"/>
</g>
<g>
	<defs>
		<rect id="SVGID_56_" x="61" y="4.3" width="99" height="108.9"/>
	</defs>
	<clipPath id="SVGID_57_">
		<use xlink:href="#SVGID_56_"  style="overflow:visible;"/>
	</clipPath>
	<path class="st43" d="M120.3,49.5c4.6-5.3,9.2-10.6,13.9-16c-0.1,0-0.3,0-0.4,0c0.6,0.9,1.1,1.8,1.7,2.7c0.3,0.4,0.6,0.8,0.8,1.3
		c0.2,0.6-0.3,0.9-0.7,1.4c-1.4,1.7-2.9,3.4-4.3,5.1c-2.9,3.4-5.8,6.7-8.7,10.1c-0.2,0.2,0.1,0.6,0.3,0.3c4.7-5.5,9.3-10.9,14-16.4
		c0.1-0.1,0.1-0.2,0-0.3c-0.9-1.5-1.9-3-2.8-4.5c-0.1-0.1-0.3-0.2-0.4-0.1c-4.6,5.3-9.2,10.6-13.9,16
		C119.7,49.4,120,49.7,120.3,49.5"/>
</g>
<g>
	<defs>
		<rect id="SVGID_58_" x="61" y="4.3" width="99" height="108.9"/>
	</defs>
	<clipPath id="SVGID_59_">
		<use xlink:href="#SVGID_58_"  style="overflow:visible;"/>
	</clipPath>
	<path class="st44" d="M86.6,54.4c2.9-2.7,5.6-5.7,8-8.8c0.2-0.2-0.2-0.6-0.4-0.4c-2.5,3.1-5.1,6.1-8,8.8
		C86,54.3,86.4,54.6,86.6,54.4"/>
</g>
<g>
	<defs>
		<rect id="SVGID_60_" x="61" y="4.3" width="99" height="108.9"/>
	</defs>
	<clipPath id="SVGID_61_">
		<use xlink:href="#SVGID_60_"  style="overflow:visible;"/>
	</clipPath>
	<path class="st45" d="M133.8,33.7c0.5-0.1,0.3-0.7-0.1-0.8c-0.5-0.1-1.5,0.2-2,0.2c-0.9,0.2-1.9,0.4-2.8,0.6
		c-0.3,0.1-0.2,0.6,0.1,0.5c0.7-0.2,1.5-0.4,2.2-0.5c0.4-0.1,0.8-0.1,1.2-0.2c0.2,0,0.4-0.1,0.7-0.1c0.2,0.1,0.4,0,0.5-0.2
		C133.3,33.3,133.5,33.8,133.8,33.7"/>
</g>
<g>
	<defs>
		<rect id="SVGID_62_" x="61" y="4.3" width="99" height="108.9"/>
	</defs>
	<clipPath id="SVGID_63_">
		<use xlink:href="#SVGID_62_"  style="overflow:visible;"/>
	</clipPath>
	<path class="st46" d="M89.2,41.6c0.2,1.5,0.4,2.9,0.6,4.4c0,0.1,0.1,0.2,0.2,0.2c4.4-0.5,8.9-1,13.3-1.5s8.9-1.3,13.3-1.1
		c0.2,0,0.3-0.2,0.2-0.3c-0.4-1.6-1.2-3.1-2.3-4.4c-0.2-0.2-0.6,0.1-0.3,0.3c1,1.3,1.7,2.7,2.2,4.2c0.1-0.1,0.2-0.2,0.2-0.3
		c-2.6-0.2-5.2,0.1-7.8,0.4c-2.5,0.3-5.1,0.6-7.6,0.9c-2.5,0.3-5.1,0.6-7.6,0.9c-0.7,0.1-1.3,0.1-2,0.2c-0.3,0-0.5,0.1-0.8,0.1
		c-0.6,0-0.5,0.1-0.7-0.5c-0.3-1.2-0.4-2.4-0.5-3.6C89.7,41.2,89.2,41.3,89.2,41.6"/>
</g>
<g>
	<defs>
		<rect id="SVGID_64_" x="61" y="4.3" width="99" height="108.9"/>
	</defs>
	<clipPath id="SVGID_65_">
		<use xlink:href="#SVGID_64_"  style="overflow:visible;"/>
	</clipPath>
	<path class="st47" d="M114.4,39.3c3.1-2,6.2-4.1,9.2-6.3c1.5-1.1,3-2.2,4.5-3.3c0.6-0.5,1.2-0.9,1.8-1.4c0.8-0.6,1.4-0.6,1.9,0.3
		c0.3,0.5,0.5,1.1,0.5,1.8c0,0.3,0.5,0.3,0.5,0c-0.1-1-0.7-3.2-2-3.1c-0.8,0.1-1.7,1.1-2.4,1.6c-0.9,0.7-1.9,1.4-2.8,2.1
		c-3.7,2.8-7.6,5.4-11.5,7.9C113.9,39.1,114.1,39.5,114.4,39.3"/>
</g>
<g>
	<defs>
		<rect id="SVGID_66_" x="61" y="4.3" width="99" height="108.9"/>
	</defs>
	<clipPath id="SVGID_67_">
		<use xlink:href="#SVGID_66_"  style="overflow:visible;"/>
	</clipPath>
	<path class="st48" d="M116.9,43.7c5.4-4.2,10.8-8.5,16-12.9c0.2-0.2-0.1-0.6-0.4-0.3c-5.2,4.4-10.5,8.7-15.9,12.9
		C116.5,43.5,116.7,43.9,116.9,43.7"/>
</g>
<g>
	<defs>
		<rect id="SVGID_68_" x="61" y="4.3" width="99" height="108.9"/>
	</defs>
	<clipPath id="SVGID_69_">
		<use xlink:href="#SVGID_68_"  style="overflow:visible;"/>
	</clipPath>
	<path class="st49" d="M89.4,42.1c8.4-0.5,16.8-1.5,25.1-2.9c0.3-0.1,0.2-0.5-0.1-0.5c-8.3,1.4-16.6,2.4-24.9,2.9
		C89.1,41.6,89.1,42.1,89.4,42.1"/>
</g>
<g>
	<defs>
		<rect id="SVGID_70_" x="61" y="4.3" width="99" height="108.9"/>
	</defs>
	<clipPath id="SVGID_71_">
		<use xlink:href="#SVGID_70_"  style="overflow:visible;"/>
	</clipPath>
	<path class="st50" d="M89.7,41.5c1.7-1.1,3.3-2.3,4.9-3.5c0.3-0.2,0-0.6-0.2-0.4c-1.6,1.2-3.2,2.4-4.9,3.5
		C89.2,41.2,89.4,41.7,89.7,41.5"/>
</g>
<g>
	<defs>
		<rect id="SVGID_72_" x="61" y="4.3" width="99" height="108.9"/>
	</defs>
	<clipPath id="SVGID_73_">
		<use xlink:href="#SVGID_72_"  style="overflow:visible;"/>
	</clipPath>
	<path class="st51" d="M85.6,38.2c7.6-0.6,15.3-0.8,22.9-0.6c0.3,0,0.3-0.5,0-0.5c-7.6-0.3-15.3-0.1-22.9,0.6
		C85.3,37.7,85.3,38.2,85.6,38.2"/>
</g>
<g>
	<defs>
		<rect id="SVGID_74_" x="61" y="4.3" width="99" height="108.9"/>
	</defs>
	<clipPath id="SVGID_75_">
		<use xlink:href="#SVGID_74_"  style="overflow:visible;"/>
	</clipPath>
	<path class="st52" d="M108.8,37.7c-0.4-1.1-0.8-2.2-1.1-3.4c-0.1-0.4-0.2-0.6,0-1c0.1-0.2,0.6-0.4,0.8-0.5c0.6-0.3,1.1-0.7,1.7-1
		c2.3-1.4,4.5-2.8,6.8-4.3c4.5-2.8,9.1-5.7,13.6-8.5c0.3-0.2,0-0.6-0.2-0.4c-7.7,4.8-15.5,9.7-23.2,14.5c-0.1,0.1-0.1,0.2-0.1,0.3
		c0.3,1.5,0.7,3,1.3,4.4C108.5,38.1,108.9,38,108.8,37.7"/>
</g>
<g>
	<defs>
		<rect id="SVGID_76_" x="61" y="4.3" width="99" height="108.9"/>
	</defs>
	<clipPath id="SVGID_77_">
		<use xlink:href="#SVGID_76_"  style="overflow:visible;"/>
	</clipPath>
	<path class="st53" d="M109,38.1c7.2-5,14.7-9.6,22.4-13.8c0.3-0.2,0-0.6-0.2-0.4c-7.7,4.2-15.2,8.8-22.4,13.8
		C108.5,37.8,108.7,38.3,109,38.1"/>
</g>
<g>
	<defs>
		<rect id="SVGID_78_" x="61" y="4.3" width="99" height="108.9"/>
	</defs>
	<clipPath id="SVGID_79_">
		<use xlink:href="#SVGID_78_"  style="overflow:visible;"/>
	</clipPath>
	<path class="st54" d="M131,27.5c-2.9,0.2-5.9,0.6-8.7,1.2c-0.3,0.1-0.2,0.5,0.1,0.5c2.8-0.7,5.7-1.1,8.6-1.2
		C131.3,28,131.3,27.5,131,27.5"/>
</g>
<g>
	<defs>
		<rect id="SVGID_80_" x="61" y="4.3" width="99" height="108.9"/>
	</defs>
	<clipPath id="SVGID_81_">
		<use xlink:href="#SVGID_80_"  style="overflow:visible;"/>
	</clipPath>
	<path class="st55" d="M85.6,38c-0.5-0.5-1.5-1.5-0.3-2.2c0.4-0.3,1-0.3,1.5-0.4c1-0.2,2-0.4,2.9-0.6c2-0.4,4-0.7,6.1-0.9
		c3.9-0.4,7.9-0.4,11.8-0.1c0.3,0,0.3-0.5,0-0.5c-5-0.4-10-0.2-14.9,0.5c-2.4,0.3-4.9,0.7-7.2,1.5c-1.8,0.6-1.3,2.1-0.2,3.2
		C85.4,38.6,85.8,38.2,85.6,38"/>
</g>
<g>
	<defs>
		<rect id="SVGID_82_" x="61" y="4.3" width="99" height="108.9"/>
	</defs>
	<clipPath id="SVGID_83_">
		<use xlink:href="#SVGID_82_"  style="overflow:visible;"/>
	</clipPath>
	<path class="st56" d="M93.9,57.3c1.3-0.2,2.6-0.3,3.9-0.4c0.3,0,0.3-0.5,0-0.5c-1.3,0.1-2.7,0.2-4,0.4
		C93.4,56.9,93.5,57.4,93.9,57.3"/>
</g>
<g>
	<defs>
		<rect id="SVGID_84_" x="61" y="4.3" width="99" height="108.9"/>
	</defs>
	<clipPath id="SVGID_85_">
		<use xlink:href="#SVGID_84_"  style="overflow:visible;"/>
	</clipPath>
	<path class="st57" d="M102.6,56.6c4.6-1.2,9.2-2.6,13.9-3.5c0.3-0.1,0.2-0.5-0.1-0.5c-4.7,0.9-9.3,2.3-13.9,3.5
		C102.2,56.2,102.3,56.7,102.6,56.6"/>
</g>
<g>
	<defs>
		<rect id="SVGID_86_" x="61" y="4.3" width="99" height="108.9"/>
	</defs>
	<clipPath id="SVGID_87_">
		<use xlink:href="#SVGID_86_"  style="overflow:visible;"/>
	</clipPath>
	<path class="st58" d="M87.6,56.5c5.3-1,10.7-1.9,16.1-2.5c0.3,0,0.3-0.5,0-0.5C98.3,54.2,92.9,55,87.5,56
		C87.1,56.1,87.3,56.6,87.6,56.5"/>
</g>
<g>
	<defs>
		<rect id="SVGID_88_" x="61" y="4.3" width="99" height="108.9"/>
	</defs>
	<clipPath id="SVGID_89_">
		<use xlink:href="#SVGID_88_"  style="overflow:visible;"/>
	</clipPath>
	<path class="st59" d="M90.4,45c7-0.6,14-1.5,21-2.7c0.3-0.1,0.2-0.5-0.1-0.5c-6.9,1.2-13.9,2.1-20.8,2.7C90.1,44.5,90.1,45,90.4,45
		"/>
</g>
<g>
	<defs>
		<rect id="SVGID_90_" x="61" y="4.3" width="99" height="108.9"/>
	</defs>
	<clipPath id="SVGID_91_">
		<use xlink:href="#SVGID_90_"  style="overflow:visible;"/>
	</clipPath>
	<path class="st60" d="M93.7,43.5c4.3-0.6,8.5-1.1,12.8-1.4c0.3,0,0.3-0.5,0-0.5c-4.3,0.3-8.7,0.8-13,1.4
		C93.3,43.1,93.4,43.6,93.7,43.5"/>
</g>
<g>
	<defs>
		<rect id="SVGID_92_" x="61" y="4.3" width="99" height="108.9"/>
	</defs>
	<clipPath id="SVGID_93_">
		<use xlink:href="#SVGID_92_"  style="overflow:visible;"/>
	</clipPath>
	<path class="st61" d="M90.4,36.8c4.1-0.2,8.3-0.3,12.4-0.3c0.3,0,0.3-0.5,0-0.5c-4.1-0.1-8.3,0-12.4,0.3
		C90.1,36.3,90.1,36.8,90.4,36.8"/>
</g>
<g>
	<defs>
		<rect id="SVGID_94_" x="61" y="4.3" width="99" height="108.9"/>
	</defs>
	<clipPath id="SVGID_95_">
		<use xlink:href="#SVGID_94_"  style="overflow:visible;"/>
	</clipPath>
	<path class="st62" d="M130.4,19.3c0.9,1.5,1.2,3.1,1,4.8c0,0.3,0.4,0.3,0.5,0.1c0.1-0.1,0.1-0.3,0.2-0.4c0.1-0.3-0.4-0.4-0.5-0.1
		c-0.1,0.1-0.1,0.3-0.2,0.4c0.2,0,0.3,0,0.5,0.1c0.2-1.8-0.2-3.5-1.1-5.1C130.7,18.8,130.3,19,130.4,19.3"/>
</g>
<g>
	<defs>
		<rect id="SVGID_96_" x="61" y="4.3" width="99" height="108.9"/>
	</defs>
	<clipPath id="SVGID_97_">
		<use xlink:href="#SVGID_96_"  style="overflow:visible;"/>
	</clipPath>
	<path class="st63" d="M135,45.9c-0.3-1.3-1.1-2.3-2.2-3.1c-0.3-0.2-0.5,0.3-0.2,0.4c1.2,0.8,2,2,2.1,3.5c0.1,1.1-0.7,1.3-1.5,1.7
		c-0.7,0.3-1.4,0.7-2.1,1c-2.5,1.1-4.9,2.3-7.4,3.4c0,0.2,0,0.4-0.2,0.6l10.4-4.9c0.5-0.2,1-0.4,1.2-0.9
		C135.3,47.2,135.1,46.4,135,45.9z"/>
</g>
<g>
	<defs>
		<rect id="SVGID_98_" x="61" y="4.3" width="99" height="108.9"/>
	</defs>
	<clipPath id="SVGID_99_">
		<use xlink:href="#SVGID_98_"  style="overflow:visible;"/>
	</clipPath>
	<path class="st64" d="M123.3,56.1c1.6,0.1,3.1,0.2,4.7,0.2c0.9,0,2.3,0.4,3-0.3c0.6-0.7,0.8-2,0.8-2.9c0-1.1-0.4-2.2-0.9-3.1
		c-0.2-0.3-0.6,0-0.4,0.2c0.5,0.9,0.8,1.9,0.9,2.9c0,1.1-0.2,2.7-1.5,2.7c-2.2,0-4.3-0.1-6.5-0.3C123,55.6,123,56.1,123.3,56.1"/>
</g>
<g>
	<defs>
		<rect id="SVGID_100_" x="61" y="4.3" width="99" height="108.9"/>
	</defs>
	<clipPath id="SVGID_101_">
		<use xlink:href="#SVGID_100_"  style="overflow:visible;"/>
	</clipPath>
	<path class="st65" d="M87.1,49c-0.3,1.2-0.1,2.4,0.6,3.4c0.2,0.3,0.6,0,0.4-0.2c-0.6-0.9-0.8-2-0.5-3C87.7,48.8,87.2,48.7,87.1,49"
		/>
</g>
<g>
	<defs>
		<rect id="SVGID_102_" x="61" y="4.3" width="99" height="108.9"/>
	</defs>
	<clipPath id="SVGID_103_">
		<use xlink:href="#SVGID_102_"  style="overflow:visible;"/>
	</clipPath>
	<path class="st66" d="M87.4,49c1.6-0.4,3.2-0.8,4.8-1.2c0.3-0.1,0.2-0.6-0.1-0.5c-1.6,0.4-3.2,0.8-4.8,1.2
		C86.9,48.6,87.1,49.1,87.4,49"/>
</g>
<g>
	<defs>
		<rect id="SVGID_104_" x="61" y="4.3" width="99" height="108.9"/>
	</defs>
	<clipPath id="SVGID_105_">
		<use xlink:href="#SVGID_104_"  style="overflow:visible;"/>
	</clipPath>
	<path class="st67" d="M92.3,47.9h0.2c0.3,0,0.3-0.5,0-0.5h-0.2C92,47.4,92,47.9,92.3,47.9"/>
</g>
<g>
	<defs>
		<rect id="SVGID_106_" x="61" y="4.3" width="99" height="108.9"/>
	</defs>
	<clipPath id="SVGID_107_">
		<use xlink:href="#SVGID_106_"  style="overflow:visible;"/>
	</clipPath>
	<path class="st68" d="M84.5,35.9c8.9-6.2,18.1-11.9,27.7-16.9c0.3-0.1,0-0.6-0.2-0.4c-9.6,5-18.9,10.7-27.7,16.9
		C84,35.7,84.3,36.1,84.5,35.9"/>
</g>
<g>
	<defs>
		<rect id="SVGID_108_" x="61" y="4.3" width="99" height="108.9"/>
	</defs>
	<clipPath id="SVGID_109_">
		<use xlink:href="#SVGID_108_"  style="overflow:visible;"/>
	</clipPath>
	<path class="st69" d="M112.1,19.1c3.1-0.2,6.1-0.4,9.2-0.5c1.5-0.1,3-0.1,4.5-0.2c0.6,0,4.7-0.4,4.7,0.3c0,0.3,0.5,0.3,0.5,0
		c0-1.1-1.4-0.9-2.1-0.9c-1.8,0-3.7,0.1-5.5,0.2c-3.8,0.2-7.6,0.4-11.3,0.6C111.8,18.7,111.8,19.2,112.1,19.1"/>
</g>
<g>
	<defs>
		<rect id="SVGID_110_" x="61" y="4.3" width="99" height="108.9"/>
	</defs>
	<clipPath id="SVGID_111_">
		<use xlink:href="#SVGID_110_"  style="overflow:visible;"/>
	</clipPath>
	<path class="st70" d="M108,34.7c2.5-2,5.1-3.8,7.8-5.3c0.3-0.2,0-0.6-0.2-0.4c-2.8,1.6-5.5,3.3-7.9,5.4
		C107.4,34.5,107.8,34.9,108,34.7"/>
</g>
<g>
	<defs>
		<rect id="SVGID_112_" x="61" y="4.3" width="99" height="108.9"/>
	</defs>
	<clipPath id="SVGID_113_">
		<use xlink:href="#SVGID_112_"  style="overflow:visible;"/>
	</clipPath>
	<path class="st71" d="M108.2,36.1c0.5-0.3,1-0.7,1.5-1c0.3-0.2,0-0.6-0.3-0.4l-1.5,1C107.7,35.9,107.9,36.3,108.2,36.1"/>
</g>
<g>
	<defs>
		<rect id="SVGID_114_" x="61" y="4.3" width="99" height="108.9"/>
	</defs>
	<clipPath id="SVGID_115_">
		<use xlink:href="#SVGID_114_"  style="overflow:visible;"/>
	</clipPath>
	<path class="st72" d="M130.9,20.3c-2,1.2-4,2.4-6,3.5c-0.3,0.2,0,0.6,0.3,0.4l6-3.5C131.4,20.6,131.2,20.1,130.9,20.3"/>
</g>
<g>
	<defs>
		<rect id="SVGID_116_" x="61" y="4.3" width="99" height="108.9"/>
	</defs>
	<clipPath id="SVGID_117_">
		<use xlink:href="#SVGID_116_"  style="overflow:visible;"/>
	</clipPath>
	<path class="st73" d="M131,22.1c-0.5,0.3-0.9,0.6-1.4,0.8c-0.3,0.2,0,0.6,0.2,0.4c0.5-0.3,0.9-0.6,1.4-0.8
		C131.6,22.4,131.3,22,131,22.1"/>
</g>
<g>
	<defs>
		<rect id="SVGID_118_" x="61" y="4.3" width="99" height="108.9"/>
	</defs>
	<clipPath id="SVGID_119_">
		<use xlink:href="#SVGID_118_"  style="overflow:visible;"/>
	</clipPath>
	<path class="st74" d="M118.2,30l3.9-2.4c0.3-0.2,0-0.6-0.2-0.4c-1.3,0.8-2.6,1.6-3.9,2.4C117.7,29.7,117.9,30.2,118.2,30"/>
</g>
<g>
	<defs>
		<rect id="SVGID_120_" x="61" y="4.3" width="99" height="108.9"/>
	</defs>
	<clipPath id="SVGID_121_">
		<use xlink:href="#SVGID_120_"  style="overflow:visible;"/>
	</clipPath>
	<path class="st75" d="M117.2,39.5c4.4-2.8,8.8-5.7,13.1-8.7c0.3-0.2,0-0.6-0.3-0.4c-4.3,3-8.7,5.9-13.1,8.7
		C116.6,39.2,116.9,39.7,117.2,39.5"/>
</g>
<g>
	<defs>
		<rect id="SVGID_122_" x="61" y="4.3" width="99" height="108.9"/>
	</defs>
	<clipPath id="SVGID_123_">
		<use xlink:href="#SVGID_122_"  style="overflow:visible;"/>
	</clipPath>
	<path class="st76" d="M121.1,38.5c1.1-0.7,2.1-1.5,3.1-2.3c0.2-0.2-0.1-0.6-0.4-0.3c-0.9,0.8-1.9,1.5-3,2.2
		C120.6,38.3,120.8,38.7,121.1,38.5"/>
</g>
<g>
	<defs>
		<rect id="SVGID_124_" x="61" y="4.3" width="99" height="108.9"/>
	</defs>
	<clipPath id="SVGID_125_">
		<use xlink:href="#SVGID_124_"  style="overflow:visible;"/>
	</clipPath>
	<path class="st77" d="M105.4,53.8c1.3-0.4,2.6-0.7,3.9-0.8c0.3,0,0.2-0.5-0.1-0.5c-1.3,0.2-2.6,0.5-3.9,0.8
		C105,53.4,105.1,53.9,105.4,53.8"/>
</g>
<g>
	<defs>
		<rect id="SVGID_126_" x="61" y="4.3" width="99" height="108.9"/>
	</defs>
	<clipPath id="SVGID_127_">
		<use xlink:href="#SVGID_126_"  style="overflow:visible;"/>
	</clipPath>
	<path class="st78" d="M108.9,92.3c0.7,0.6,1.9,0.5,2.4-0.3s0-2-0.9-2.3c-0.2,0-0.2,0.2-0.1,0.2c0.8,0.2,1.2,1.2,0.8,1.9
		c-0.4,0.7-1.4,0.8-2,0.2C109,92,108.8,92.2,108.9,92.3"/>
</g>
<g>
	<defs>
		<rect id="SVGID_128_" x="61" y="4.3" width="99" height="108.9"/>
	</defs>
	<clipPath id="SVGID_129_">
		<use xlink:href="#SVGID_128_"  style="overflow:visible;"/>
	</clipPath>
	<path class="st79" d="M108.9,22.4c0.5-0.3,1.1-0.6,1.6-0.8c0.1,0,0.6-0.3,0.7-0.2l-0.3,1c0,0.1,0.1,0.2,0.2,0.2
		c0.5-0.1,1.1-0.2,1.6-0.4c0.4-0.1,1-0.6,1,0.1c0,0.1,0.1,0.1,0.2,0.1c0.5-0.1,0.9-0.2,1.4-0.3c0.5-0.1,0.8-0.4,0.7,0.2
		c0,0.3-0.2,0.5,0,0.8c0.3,0.3,0.7,0.1,1.1,0c0.9-0.3,1.8-0.6,2.7-0.9c0.2-0.1,0.1-0.3-0.1-0.2c-0.9,0.3-1.7,0.6-2.6,0.9
		c-0.5,0.2-1,0.3-1-0.4c0-0.2,0.1-0.5,0.1-0.7c0-0.1-0.1-0.1-0.2-0.1c-0.5,0.2-2.3,1.1-2.2,0.1c0-0.1-0.1-0.1-0.2-0.1
		c-0.6,0.2-1.2,0.5-1.9,0.6c-0.2,0.1-0.5,0.2-0.6,0c-0.1-0.1,0.3-0.9,0.3-1s-0.1-0.2-0.2-0.2c-0.9,0.4-1.8,0.8-2.7,1.2
		C108.7,22.3,108.8,22.5,108.9,22.4"/>
</g>
<g>
	<defs>
		<rect id="SVGID_130_" x="61" y="4.3" width="99" height="108.9"/>
	</defs>
	<clipPath id="SVGID_131_">
		<use xlink:href="#SVGID_130_"  style="overflow:visible;"/>
	</clipPath>
	<path class="st80" d="M105.7,25.6c0.3-0.2,0.7-0.4,1-0.5c0.4-0.1,0.5-0.3,0.4,0.2c0,0.1,0.1,0.1,0.2,0.1c0.7-0.4,1.5-0.5,2.3-0.3
		c0.3,0.1,0.5,0.3,0.8,0.3c0.1,0,0.7,0,0.7,0H111l0,0c-0.1,0.1,0,0.3,0.1,0.2c-0.1,0,0.3,0.1,0.2,0.1c0.1,0,0.1,0,0.1-0.1
		c0,0,0,0,0-0.1v-0.1c-0.1-0.2-0.2-0.1-0.4-0.2c-0.4-0.2-1.1-0.4-1.6-0.5c-0.3,0-0.7-0.1-1,0c-0.5,0.1-1,0.6-1-0.2
		c0-0.1-0.1-0.1-0.2-0.1c-0.5,0.3-1.1,0.5-1.6,0.8C105.4,25.5,105.5,25.7,105.7,25.6"/>
</g>
<g>
	<defs>
		<rect id="SVGID_132_" x="61" y="4.3" width="99" height="108.9"/>
	</defs>
	<clipPath id="SVGID_133_">
		<use xlink:href="#SVGID_132_"  style="overflow:visible;"/>
	</clipPath>
	<path class="st81" d="M101.4,28.7c0.2-0.1,0.4-0.3,0.6-0.3s0.3,0.3,0.6,0.2c0.5,0,1-0.2,1.5-0.3c0.9-0.1,1.7,0.1,2.4,0.4
		c0.1,0.1,0.3-0.2,0.1-0.2c-0.6-0.2-1.2-0.4-1.8-0.5c-0.4,0-2.6,0.4-2.7,0c0-0.1-0.1-0.1-0.2-0.1c-0.2,0.2-0.4,0.3-0.7,0.5
		C101.2,28.5,101.3,28.8,101.4,28.7"/>
</g>
<polygon class="st82" points="102.3,58.6 102.5,59.5 102.4,59.6 102.1,58.4 "/>
<polygon class="st82" points="99.2,60.1 99.8,59.9 100.4,60.4 99.1,60.5 "/>
<polyline class="st82" points="93.2,60.2 93.2,61 93,61.1 93.1,60.4 93.2,60.2 "/>
<path class="st82" d="M93,60v0.9c0,0-0.2,0.8-1,0.1l-0.2,0.2c0,0,0.9,0.6,1.1,0.1c0,0,0.3-0.2,0.3-1.3"/>
<polygon class="st82" points="93.1,60.9 93.7,60.7 93.7,61.2 92.8,61.4 "/>
<path class="st82" d="M102.1,58.7c0,0,0.3,1,0.2,1.3c0,0,0.1,1.1-0.8,0.8c0,0-0.2,0.1-0.2,0.2c0.1,0,1.3,0.6,1.2-0.9l-0.2-1.3
	L102.1,58.7L102.1,58.7z"/>
<path class="st2" d="M17.5,60.8l-0.1-3.2V55l0.1-4l0.3-2.7l0.4-2.5l0.8-2.7l-1.5-0.2l-2-1L14,40.8l-1.2-2.1l-0.3-2l0.3-1.8l0.9-1.7
	l1.5-1.6l1.8-1.1c0,0,3.1-1.5,6.3-0.3l1.7,1.4l2.3-2l3.1-1.9l3.7-1.4l3.4-0.7l4.3-0.5l4.5-0.5l3.9-0.3h4l3.5,0.4l4.2,1.2l3.5,1.6
	l2.4,1.6l1.1,0.8L71,29l1.8-0.4l2.2-0.2l2.1,0.3l1.7,0.9l1.3,1.5l0.7,1.5l0.3,1.4c0,0-0.1,1.4,0,1.5S81,37,81,37l-0.4,1l-0.5,0.8
	l-0.5,0.7l-0.8,0.7l-1,0.7l-1,0.4l-1,0.1l0.5,2.1l0.6,3.6l0.2,1.9l0.3,5.2v3.4v2.8l0.1,3.6v2.3l0.1,1.5l-34.5-4L17.5,60.8z"/>
<path class="st2" d="M17.9,93.2l0.8,0.7l1.2,0.4c0.4-0.1,0.8-0.2,1.2-0.3c0.5,0.2,0.9,0.5,1.4,0.7c-0.4,0.3-0.7,0.7-1.1,1l-0.9,0.8
	L35.1,98l1.8-3.7l0.8-1.7l0.7-1.7l0.5-1.3c0.1-0.4,0.1-0.9,0.2-1.3c0.6,0,1.2,0.1,1.7,0.1l0.2,0.7l0.4,2.5l0.2,2.3l0.1,2.1v1.3
	l0.3,1l0.3,0.8l3.2,0.6l0.2,0.3l0.4,0.8l0.4,1.2l0.4,1.5l0.4,1.3l0.1,0.5l1.7,0.2l0.8-1.6l0.7-1.7l0.6-1.6l0.8-1.7l0.9-1.7l0.8-1.5
	l0.5-1.1l0.3-0.9l0.2,0.9l0.2,1.5v1.2l0.1,1.5l0.1,1.7l19.8,2.5l-0.6,1l-0.9,1.3l-0.7,1.2l-0.5,0.9l-0.7-0.2l-1-0.1l-0.9,0.2l-1,0.5
	l-1.1,0.8l-0.6,0.6l-0.4,0.5c0,0,0,0.6,0,0.8c-0.1,0.2-1.3,0.8-1.3,0.8l-2.5,0.8l-3.9,0.7l-4.8,0.8l-4.9,0.6l-5.4,0.3l-5.5-0.3
	l-2.8-0.5l-2.2-0.6l-1.5-0.8l-1-0.6l0.3-0.2l-0.5-0.4l-0.7-0.7l-0.9-1l-0.8-0.8l-0.7-0.5l-0.7-0.3l-0.7-0.1l-0.6,0.2h-0.5l-1.1-1.2
	L22,104l-1.4-3l-1.5-4l-0.7-2.1L17.9,93.2z"/>
<path class="st4" d="M44.8,39.3c0-5.2-4.2-9.3-9.3-9.3c-5.2,0-9.3,4.2-9.3,9.3c0,5.2,4.2,9.3,9.3,9.3C40.7,48.6,44.8,44.4,44.8,39.3
	z"/>
<path class="st4" d="M68.3,38.3c0-5.2-4.2-9.3-9.3-9.3c-5.2,0-9.3,4.2-9.3,9.3c0,5.2,4.2,9.3,9.3,9.3S68.3,43.4,68.3,38.3z"/>
<polygon class="st4" points="43.8,54.2 43.5,55.1 43.4,56.3 43.4,57.5 43.8,58.7 44.3,59.4 45,59.8 45.7,59.9 46.3,59.8 46.9,59.4 
	47.3,58.8 47.6,58.1 47.9,58.7 48.2,59.3 48.9,59.8 49.6,59.8 50.5,59.6 51.2,58.9 51.5,58.1 51.7,57.4 51.7,56.4 51.5,55.3 
	51.4,54.7 51.2,53.7 50.2,53.4 49.2,53.2 48.2,53.2 47.3,53.2 46.2,53.5 45.3,53.8 44.4,54 "/>
<path class="st83" d="M10.8,60.1L10,60.3l-0.7,0.3l-0.4,0.5c0,0-0.3,0.5-0.3,0.6l-0.3,0.8c0,0.1-0.1,0.9-0.1,1s-0.1,1.2-0.1,1.2
	L8,65.6L7.5,69L7,74l-1.1,9l-0.5,4.9l1.5,0.3l2.8,0.3l3.7,0.4c0,0,2.2,0.3,2.3,0.3s1.5,0.2,1.5,0.2l0.4,0.2l0.8,0.2l0.6,0.5l1.7-1
	l1.9-1.5l0.9-0.6l1.2-0.4c0.1,0,0.9,0.1,0.9,0.1l0.7,0.5l0.4,0.5l0.2,0.7l-0.1,1l-0.6,0.8l-1.3,1.1l-1,0.9L22.6,93l-1,0.7L21.1,94
	l1.4,0.7l5.9,0.6l5.9,0.6l1.8-3.6l0.7-1.8l0.5-1.5c0.3,0.1,0.6,0.2,1,0.3c0.2-0.1,0.4-0.1,0.6-0.2v0.2l0.3-1l-1.8-0.2l-1.3-0.3
	l-0.8-0.3L34.2,87l-0.8-0.5L33,86.2l-0.5-0.4l-0.9,0.7l-1.1,0.7l-0.9,0.4h-1l-0.9-0.3l-0.5-0.8l-0.2-1l0.2-0.9l0.5-0.7l0.8-0.7
	l0.8-0.4l0.4-0.3l-0.4-1.2l-0.4-1l-0.1-0.4l-0.3-1.4l-0.1-1.3v-1.7l0.3-1.6l0.4-1.1l0.8-1.8l0.8-1.1l1.3-1.4l1.4-1.2l1.2-0.6
	l1.3-0.6l1.2-0.4l1.4-0.2c0.6,0,1.3,0,1.9,0.1c0.4,0,0.8,0,1.2,0c0.4,0.1,0.8,0.2,1.2,0.4c0.4,0.1,0.7,0.3,1.1,0.4
	c0.5,0.2,1,0.4,1.4,0.6c0.4,0.3,0.9,0.6,1.3,0.9c0.5,0.3,0.9,0.7,1.4,1c0.3,0.5,0.7,0.9,1,1.4c0.3,0.5,0.6,1,0.9,1.5
	c0.2,0.5,0.4,1.1,0.6,1.6c0.1,0.7,0.3,1.4,0.4,2.1c0.1,0.4,0.1,0.9,0.2,1.3c0,0.4-0.1,0.8-0.1,1.3c-0.1,0.6-0.2,1.1-0.3,1.7
	c-0.2,0.7-0.4,1.3-0.6,2l-0.7,1.3L48,84.8l-1.6,1.4l-1.1,0.7l-1.1,0.6L42.7,88l-1,0.3l-1,0.1l0.1,0.8l0.5,0.1l0.6-0.1l0.6-0.1
	l0.2,0.7l0.2,1.3V92l0.1,1.4l0.2,1.8l0.1,1l0.2,0.8l0.2,0.6v0.2l1,0.1l1.1,0.2h0.8h0.3l0.3,0.6l0.3,1l0.4,1.5L48,102l0.3,0.7
	l0.2,0.3l0.8-1.5l0.6-1.3l0.9-2.2l0.9-2.3l0.7-1.7l0.9-2l0.6-1.3l0.4-1l0.4-0.8l0.4-0.9l0.5-0.9l0.1,0.3l0.1,1l0.1,1.3l0.1,1.1v1
	l0.2,2.2l0.2,1.5l0.1,1.2l0.1,0.9l0.1,0.6l0.1,0.3l1.1,0.2l5.7,0.7l4.3,0.4l3.4,0.3l6.5,0.6l0.6-0.6l0.8-0.4l1.1-0.1l0.9,0.1
	l0.8,0.5c0,0,0.5,0.8,0.6,0.8c0,0.1,0.3,0.5,0.3,0.5s0.7,0.3,0.8,0.2c0.1,0,1.1,0,1.1,0l1.8-13.9l1.5-13l0.4-3.1L88,70.8L87.6,70
	l-0.5-0.5l-1-0.5l-2.4-0.4l-7.9-0.9l-15.5-1.8l-10.2-1.3L36.2,63L21,61.2l-2.5-0.3L17,60.7l-0.7-0.1L16.2,61v0.7L16,62.3l-0.5,1
	L15,63.9l-0.9,0.5l-0.8,0.3h-0.9l-0.9-0.4l-0.7-0.7l-0.5-0.9l-0.1-1.1l0.2-0.7C10.5,60.6,10.7,60.4,10.8,60.1z"/>
<linearGradient id="SVGID_134_" gradientUnits="userSpaceOnUse" x1="5.5" y1="60.2323" x2="88.3744" y2="60.2323" gradientTransform="matrix(1 0 0 -1 0 141.7323)">
	<stop  offset="3.388100e-04" style="stop-color:#FBB780"/>
	<stop  offset="1" style="stop-color:#665522"/>
</linearGradient>
<path class="st84" d="M10.9,60.1l-0.7,0.2l-0.7,0.3l-0.4,0.5c0,0-0.3,0.5-0.3,0.6l-0.3,0.8c0,0.1-0.1,0.9-0.1,1s-0.1,1.2-0.1,1.2
	l-0.1,0.9L7.7,69l-0.5,5L6,83l-0.5,4.9L7,88.1l2.8,0.3l3.7,0.4c0,0,2.2,0.3,2.3,0.3s1.5,0.2,1.5,0.2l0.4,0.2l0.8,0.2l0.6,0.5l1.7-1
	l1.9-1.5l0.9-0.6l1.2-0.4c0.1,0,0.9,0.1,0.9,0.1l0.7,0.5l0.4,0.5l0.2,0.7l-0.1,1l-0.6,0.8l-1.3,1l-1,0.9L22.7,93l-1,0.7L21.2,94
	l1.4,0.7l5.9,0.6l5.9,0.6l1.8-3.6l0.7-1.8l0.5-1.5c0.3,0.1,0.6,0.2,0.9,0.3c0.2,0,0.4,0,0.6,0l0,0c0.1-0.3,0.2-0.7,0.3-1
	c-0.6-0.1-1.1-0.1-1.7-0.2l-1.3-0.3l-0.8-0.3L34.3,87l-0.8-0.5L32.9,86l-0.5-0.4l-0.9,0.7L30.4,87c-0.3,0.2-0.6,0.4-0.9,0.7
	c-0.4,0-0.7,0-1.1,0c-0.3-0.2-0.5-0.4-0.8-0.6l-0.5-0.8l-0.2-1l0.2-0.9l0.5-0.7l0.8-0.7l0.8-0.4l0.4-0.3l-0.4-1.2l-0.4-1l-0.1-0.4
	l-0.3-1.4L28.3,77v-1.7l0.3-1.6l0.4-1.1c0.3-0.6,0.7-1.2,1-1.7c0.2-0.3,0.5-0.7,0.7-1c0.4-0.4,0.8-0.9,1.3-1.3
	c0.5-0.4,0.9-0.7,1.4-1.1c0.4-0.2,0.8-0.5,1.2-0.7c0.4-0.2,0.9-0.4,1.3-0.5c0.4-0.1,0.9-0.2,1.3-0.4c0.4-0.1,0.9-0.1,1.3-0.2
	c0.6,0,1.2-0.1,1.8-0.1c0.4,0.1,0.9,0.2,1.3,0.2c0.4,0.1,0.8,0.2,1.2,0.3c0.4,0.1,0.8,0.3,1.2,0.4c0.4,0.2,0.9,0.4,1.3,0.6
	c0.4,0.3,0.9,0.6,1.3,0.9c0.4,0.4,0.8,0.8,1.2,1.1c0.4,0.4,0.7,0.9,1.1,1.3c0.3,0.5,0.7,1.1,1,1.6c0.2,0.5,0.4,1.1,0.6,1.6
	c0.1,0.6,0.2,1.2,0.3,1.8c0,0.5,0,1,0,1.5c0,0.4,0,0.8,0,1.2c-0.1,0.5-0.2,1.1-0.3,1.7c-0.2,0.7-0.5,1.4-0.7,1.9
	c-0.2,0.4-0.4,0.8-0.6,1.2c-0.4,0.5-0.8,1-1.2,1.6c-0.5,0.5-1.1,1-1.6,1.5c-0.4,0.3-0.7,0.5-1.1,0.8c-0.4,0.2-0.7,0.3-1.1,0.5
	c-0.5,0.2-1,0.4-1.5,0.6c-0.3,0.1-0.7,0.1-1,0.2c-0.3,0.1-0.6,0.2-0.9,0.3l0.1,0.8l0.5,0.1l0.6-0.1l0.6-0.1l0.2,0.7l0.2,1.3V92
	l0.1,1.4l0.2,1.8l0.1,1l0.2,0.8l0.2,0.6v0.2l1,0.1l1.1,0.2h0.8h0.3l0.3,0.6l0.3,1l0.4,1.5l0.2,0.7l0.3,0.7l0.2,0.3l0.8-1.5l0.6-1.3
	l0.9-2.2l0.9-2.3l0.7-1.7l0.9-2l0.6-1.3l0.4-1l0.4-0.8l0.4-0.9l0.5-0.9l0.1,0.3l0.1,1l0.1,1.3l0.1,1.1v1l0.2,2.2l0.2,1.5l0.1,1.2
	l0.1,0.9l0.1,0.6l0.1,0.3l1.1,0.2l5.7,0.7L68,100l3.4,0.3l6.5,0.6l0.6-0.6l0.8-0.4l1.1-0.1l0.9,0.1l0.8,0.5c0,0,0.5,0.8,0.6,0.8
	c0,0.1,0.3,0.5,0.3,0.5s0.7,0.3,0.8,0.2c0.1,0,1.1,0,1.1,0L86.7,88l1.5-13l0.4-3.1L88.4,71l-0.6-1l-0.5-0.5l-1-0.5l-2.4-0.4L76,67.7
	l-15.5-1.8l-10.2-1.3L36.4,63l-15.2-1.8l-2.5-0.3l-1.5-0.2l-0.7-0.1L16.3,61v0.7l-0.2,0.7l-0.5,1L15,64l-0.9,0.5l-0.8,0.3h-0.9
	l-0.9-0.4l-0.7-0.7l-0.5-0.9l-0.1-1.1l0.2-0.7l0.3-0.6L10.9,60.1z"/>
<path class="st3" d="M39.8,50.9l0.3-0.6l1.1-1.2l0.7-0.6l0.7-0.5l0.9-0.3c0,0.1,0.6,0.1,0.6,0.1s1.4,0.6,1.4,0.7
	c0,0.1,2.3,0.2,2.3,0.2l1.7-0.5l0.9-0.6l0.4-0.3l0.6,0.2l1.3,0.7l1,0.8l0.7,0.7l0.4,0.6l0.2,0.8l0.1,0.5L55,52.4L54.7,53l-0.3,0.5
	l-0.5,0.3L53.3,54h-0.6l-0.9-0.1L51,53.7l-1.1-0.3l-1-0.2H48l-0.7,0.2l-1.4,0.2L44.5,54l-1.1,0.2l-1.2-0.1l-0.9-0.2l-0.7-0.3
	L40,53.1l-0.3-0.4l-0.1-0.5v-0.6L39.8,50.9z"/>
<path class="st3" d="M10.3,61.6l0.2-0.8l0.4-0.7l0.8-0.7l0.7-0.4l0.8-0.2h0.7l0.6,0.1c0,0,0.5,0.3,0.6,0.3c0,0,1.8,1.1,1.1,3.2
	c0,0-0.6,1.8-2.5,2.4c0,0-1.8,0.5-2.9-1.3C10.6,63.4,10,61.9,10.3,61.6z"/>
<path class="st3" d="M77.2,101.6l0.6-1l0.9-0.7l1-0.1h1l0.8,0.4c0,0,0.4,0.4,0.5,0.4l0.5,0.6l0.2,0.5l0.2,0.8l-0.2,0.8l-0.4,0.5
	l-0.7,0.5l-1.1,0.4h-1l-0.7-0.1l-0.8-0.3l-0.6-0.5l-0.3-0.6v-0.8L77.2,101.6z"/>
<path class="st3" d="M66.5,109.9l0.1-0.6l0.4-0.5l0.5-0.5l1-0.7l1.3-0.6l0.9-0.2l0.9,0.1l0.6,0.1l0.6,0.4l1.2,1l0.7,1l0.5,0.8
	l0.5,1.4l0.1,0.9v0.7l-0.2,0.5l-0.4,0.7l-0.4,0.4l-0.5,0.3l-0.8,0.2l-1.2-0.1l-1.3-0.6c0,0-0.9-0.7-0.8-0.6l-0.9-0.9l-0.9-1.1
	l-0.8-0.8l-0.7-0.5L66.5,109.9z"/>
<path class="st3" d="M23.4,108.9l-1.3,1l-0.8,0.8c0,0-0.5,0.7-0.6,0.8c-0.1,0.1-0.3,0.9-0.3,0.9v0.6l0.1,0.6l0.3,0.5
	c0,0,0.3,0.4,0.4,0.4c0,0,0.4,0.3,0.4,0.4c0.1,0.1,1,0.5,1,0.5l0.8,0.1l1.4-0.4l1.2-0.7l0.8-0.7l1.1-0.8l1-0.7l0.7-0.4
	c0,0,0.7-0.3,0.8-0.3c0.1,0,0.4-0.1,0.4-0.1l-0.1-0.3l-0.7-0.6l-0.7-0.8l-0.8-0.8l-0.8-0.8l-0.7-0.5l-0.6-0.2h-0.5l-0.4,0.1
	L23.4,108.9z"/>
<polygon class="st85" points="30.2,99.7 30.3,98.3 32.2,98.5 32.2,99.5 "/>
<path class="st85" d="M31.4,93.7L31.4,93.7c0,0.3-0.1,1.1-0.1,1.1h0.9l0.1-0.9l1.1-0.1v-1h-1l0.1-1.1h-0.9l-0.1,0.9h-1l-0.1,1.2
	L31.4,93.7z"/>
<path class="st86" d="M17.9,92.2l0.2-0.9l0.8-0.9l1.6-1.3l1.7-1.2l1.3-0.9l1.3-0.1c0,0,0.7,0.1,0.8,0.1c0.1,0,0.7,0.6,0.7,0.6
	l0.2,0.8c0,0-0.1,0.7,0,0.7c0.1,0-0.2,0.7-0.2,0.8c0,0.1-0.6,0.7-0.6,0.7s-1,0.8-1.1,0.8l-1.5,1.1L22,93.4l-0.7,0.5l-0.9,0.5
	l-0.9,0.1L19,94.1l-0.7-0.7L17.9,92.2z"/>
<path class="st86" d="M29.5,82.5l-0.6,0.6l-0.7,0.5l-0.8,0.8c0,0-0.3,0.5-0.3,0.6c0,0.1-0.2,0.7-0.2,0.8c0,0.1,0.1,0.6,0.1,0.6
	c0,0.1,0.2,0.5,0.3,0.5c0.1,0,0.5,0.5,0.5,0.5l1.1,0.3l0.9-0.2l0.9-0.5c0.1,0,0.8-0.5,0.8-0.5l0.7-0.8l0.6,0.5l2.1,1.2l1.4,0.5
	l1.4,0.4l1.5,0.1l2.3-0.1l1.3-0.4l1.3-0.4l1.3-0.7l1.2-0.8l1.2-1l1.1-1.3l0.8-1.4l0.7-1.4l0.4-1.4L51,78v-1.5l-0.2-2l-0.5-1.8
	l-0.9-1.8L49,70.4l-1-1.1l-2-1.8l-1.4-0.8l-2.2-0.7c-0.8-0.2-1.8-0.4-2.9-0.4c-3,0-5.2,1.3-6.3,2l-1.9,1.6L30,70.9
	c0,0-1.8,2.8-1.8,6.2c0,0,0.1,2.5,0.5,3.1l0.4,1.1l0.4,1l0.2,0.2L29.5,82.5z"/>
<path class="st2" d="M31.5,79.1l-0.3-1.4v-1.2l0.1-1.3l0.3-1l0.7-1.5l0.7-1.1l1.1-1.2l1.7-1.1l1.3-0.6l1.4-0.3l1.7-0.1l1.5,0.2
	l1.4,0.4c0.4,0.3,0.8,0.5,1.2,0.8c0.4,0.2,0.8,0.5,1.2,0.7c0.3,0.4,0.6,0.8,0.9,1.2c0.3,0.4,0.6,0.8,0.9,1.1c0.2,0.5,0.4,1,0.6,1.5
	c0.2,0.6,0.3,1.2,0.5,1.7c0,0.5,0.1,1,0.1,1.6c-0.1,0.5-0.2,0.9-0.3,1.4c-0.2,0.6-0.3,1.2-0.5,1.8L46.8,82l-1.3,1.4l-1.5,1l-1.8,0.8
	l-1.7,0.3c0,0-1.7,0-1.6,0c0.1,0-1.7-0.4-1.7-0.4l-1.6-0.7l-1.3-0.9l-1.1-1l-0.8-1.1l-0.6-1.2L31.5,79.1z"/>
<polygon class="st87" points="38.4,84.6 41.4,77.8 41.8,78.7 42.1,80.4 42.2,82.5 42.4,84.2 41,84.7 40.8,84.1 40.7,83.3 40.7,82.7 
	40.4,83.1 40,84 39.7,84.8 "/>
<polygon class="st85" points="53.2,72.2 58.7,72.8 58.9,73 57.9,81.7 57.1,88.1 57,88.6 56.6,86.7 56.5,85 56.1,83.3 55.3,84.8 
	53.5,88.5 50.8,93.8 50.6,93.7 51.9,83.7 "/>
<path class="st88" d="M60.1,82.1c0.1,0,5.2,0.6,5.2,0.6l0.2,0.1l-0.9,7.9l-0.8,6.8l-0.2,0.2l-5.3-0.6v-0.3L60.1,82.1z"/>
<polygon class="st89" points="65.8,97.7 66.9,88 67.1,87.9 72.2,88.5 72.3,88.7 71.2,98.3 "/>
<path class="st87" d="M41,89.2l0.4,2.6l0.2,2.4l0.1,2l0.1,1.2l0.1,1l0.4,0.8l3,0.4l0.5,0.4l0.3,0.8l0.3,1.3l0.3,1.2l0.5,1.5
	c0.1,0.3,0.2,0.6,0.4,0.8c0.5,0,1.1,0,1.6,0c0.3-0.7,0.6-1.4,0.9-2.1c0.3-0.5,0.6-1.1,0.9-1.6c0.2-0.5,0.3-0.9,0.5-1.4
	c0.2-0.6,0.4-1.1,0.6-1.7c0.2-0.3,0.4-0.7,0.6-1c0.3-0.5,0.5-1.1,0.8-1.6c0.2-0.3,0.3-0.6,0.5-0.9c0.2-0.4,0.3-0.7,0.5-1.1
	c0.1-0.2,0.1-0.4,0.2-0.6c0,0.2,0.1,0.5,0.1,0.7c0.1,0.4,0.2,0.7,0.3,1.1c0,0.3,0.1,0.7,0.1,1c0,0.4,0,0.8,0.1,1.2
	c0,0.5,0,0.9,0,1.4l0.1,1.3l6.8,0.8l10,1.2l5.2,0.6v-0.5l0.2-0.8l0.4-0.7l-7.4-0.7l-7.6-0.7l-5.3-0.7l-0.6-0.1l-0.2-0.5
	c-0.2-1-0.3-2-0.5-3.2C56,93.4,56,91.9,56,90.5c-0.1-1.1-0.3-2.2-0.4-3.3l-3.3,7.4l-1.8,4.6l-0.9,2l-1,1.8l-0.4-0.7l-0.2-0.9
	l-0.4-1.7l-0.3-1L47,98c-1.1-0.1-2.2-0.1-3.3-0.2c-0.2-0.7-0.3-1.4-0.5-2c-0.1-0.8-0.1-1.6-0.2-2.4c0-0.5,0-0.9,0-1.4l-0.1-1.2
	l-0.2-1L42.5,89l-0.7,0.2H41z"/>
<path class="st87" d="M37.4,89l0.6,0.2h0.7h0.2l0.1,0.2l-2,4.7l-1.9,3.8c-1.9-0.1-3.8-0.2-5.9-0.4c-3-0.3-5.8-0.7-8.5-1.1
	c0.6-0.5,1.3-1.1,1.9-1.6L34.3,96l1.5-3.2l0.9-1.8L37.4,89z"/>
<polygon class="st87" points="5,89.7 8.9,90.2 11.1,90.5 13.7,90.8 15.3,91 15.7,91.1 17.5,89.4 15.9,89.2 8.9,88.4 5.3,87.9 "/>
<polygon class="st87" points="82.7,101.8 82.8,102.3 82.8,102.8 82.6,103.2 82.5,103.6 83.5,103.7 84.4,103.7 84.6,101.8 
	83.3,101.8 "/>
<radialGradient id="SVGID_135_" cx="39.673" cy="64.7058" r="8.6273" gradientTransform="matrix(1 0 0 -1 0 141.7323)" gradientUnits="userSpaceOnUse">
	<stop  offset="0.5744" style="stop-color:#151011;stop-opacity:0"/>
	<stop  offset="0.7977" style="stop-color:#151011;stop-opacity:0.6512"/>
	<stop  offset="0.8094" style="stop-color:#191716;stop-opacity:0.6685"/>
	<stop  offset="0.8609" style="stop-color:#272C20;stop-opacity:0.7446"/>
	<stop  offset="0.9109" style="stop-color:#303A25;stop-opacity:0.8185"/>
	<stop  offset="0.9582" style="stop-color:#344227;stop-opacity:0.8883"/>
	<stop  offset="1" style="stop-color:#364528;stop-opacity:0.95"/>
</radialGradient>
<path class="st90" d="M31.3,79.3L31,77.9v-1.2l0.1-1.3l0.3-1l0.7-1.5l0.7-1.1l1.1-1.2l1.7-1.1l1.3-0.6l1.4-0.3l1.7-0.1l1.5,0.2
	l1.4,0.4l1.2,0.6l1.2,0.9l1.1,1.1l0.8,1.2l0.7,1.6l0.4,1.8l0.1,1.7L48,79.2l-0.6,1.7l-0.8,1.3l-1.3,1.4l-1.6,1.1L42,85.4l-1.7,0.3
	c0,0-1.7,0-1.6,0c0.1,0-1.7-0.4-1.7-0.4l-1.6-0.7l-1.3-0.9l-1.1-1l-0.8-1.1l-0.6-1.2L31.3,79.3z"/>
<path class="st91" d="M34.5,78.5l-0.3-0.2L34,77.9l-0.1-0.3v-0.3v-0.5l0.1-0.4l0.2-0.5l0.4-0.6l0.4-0.4l0.4-0.4l0.6-0.4l0.6-0.3
	l0.6-0.2l0.5-0.1l0.5-0.1h0.5l0.5,0.1l0.5,0.2l0.4,0.3l0.3,0.4l0.1,0.4v0.5l-0.1,0.5L40,76.2l-0.4,0.6l-0.5,0.6l-0.6,0.4l-0.6,0.4
	l-0.7,0.3l-0.7,0.2l-0.6,0.1h-0.5L35,78.7L34.5,78.5L34.5,78.5z"/>
<path class="st91" d="M41.2,73.7L41,73.5l-0.1-0.2l-0.1-0.2l0-0.1l-0.1-0.2v-0.2v-0.2l0.1-0.2l0.1-0.1L41,72l0.1-0.1l0.2-0.1h0.2
	h0.2h0.2l0.2,0.1l0.2,0.1l0.2,0.2l0.2,0.2l0.2,0.2l0.1,0.2l0.1,0.3v0.2v0.3v0.2L43,74h-0.5c0,0-0.2,0.1-0.1,0.1h-0.2H42h-0.2
	L41.6,74l-0.2-0.1l-0.2-0.1L41.2,73.7z"/>
<path class="st82" d="M73.5,34.9c-2.4-4.4-6.6-7.5-11.2-9.3c-5.5-2.1-11.2-1.9-17-1.2c-6,0.7-12,0.9-17.2,4.3
	c-4.5,3-7.5,7.6-9.1,12.6c-2,6.2-2.1,12.8-1.8,19.2c0,0.4,0.7,0.4,0.7,0c-0.5-10.3,0.2-22.4,8.6-29.7c2.1-1.8,4.6-3.2,7.3-4
	c2.9-0.9,6-1.1,9.1-1.4c5.7-0.6,11.2-1.4,16.8,0.1c5.5,1.5,10.5,4.7,13.2,9.7C73.1,35.6,73.7,35.3,73.5,34.9L73.5,34.9z"/>
<path class="st82" d="M18.6,42.6c-3.4-0.2-6.3-3.1-5.6-6.7c0.6-3.1,3.6-5.4,6.7-5.6c1.7-0.1,3.9-0.1,5,1.4c0.3,0.4,0.8-0.1,0.5-0.5
	c-1.2-1.5-3.1-1.6-4.8-1.6c-1.8,0-3.6,0.6-5.1,1.7c-2.9,2.1-4.2,6.2-1.9,9.3c1.2,1.7,3.2,2.6,5.2,2.7C19,43.3,19,42.6,18.6,42.6
	L18.6,42.6z"/>
<path class="st82" d="M69.2,30.2c1.4-0.7,2.9-1.2,4.4-1.3c1.5-0.2,3.2-0.1,4.5,0.7c2.6,1.5,3.4,5.4,2.4,8.1
	c-0.7,1.8-2.4,3.3-4.3,3.6c-0.4,0.1-0.3,0.7,0.2,0.7c1.8-0.3,3.5-1.6,4.4-3.2c0.8-1.4,1-3.2,0.7-4.8s-1-3.3-2.3-4.4
	s-3.1-1.4-4.8-1.4c-2,0.1-3.9,0.6-5.7,1.5C68.5,29.8,68.8,30.4,69.2,30.2L69.2,30.2z"/>
<path class="st82" d="M43.5,48c0.1,0,0.2,0,0.2,0c0-0.1,0-0.2,0-0.3c-0.3,0.2-0.6,0.1-0.9,0.2c-0.5,0.2-0.9,0.6-1.3,0.9
	c-0.8,0.6-1.6,1.4-2,2.3c-1,2.4,2.2,3.5,4.1,3.3c1.4-0.2,2.8-0.8,4.2-1c1.3-0.1,2.4,0.3,3.6,0.7c0.9,0.2,1.9,0.4,2.7-0.2
	c0.8-0.6,1.2-1.7,1-2.6c-0.4-2.3-3.2-3.5-5.1-4.1c-0.2-0.1-0.3,0.3-0.1,0.3c1.6,0.6,3.7,1.5,4.6,3.1c0.5,1,0.4,2.3-0.5,3
	c-0.8,0.7-2,0.3-2.9,0.1s-1.7-0.5-2.6-0.6c-1.2,0-2.3,0.3-3.4,0.6c-1.3,0.4-2.6,0.7-3.9,0.1c-1-0.4-1.8-1.2-1.4-2.3
	c0.3-1.1,1.3-1.9,2.2-2.5c0.3-0.2,0.7-0.5,1-0.7c0.3-0.1,0.6-0.1,0.8-0.2c0.1-0.1,0.1-0.3,0-0.3s-0.3,0-0.4,0
	C43.2,47.7,43.3,48,43.5,48L43.5,48z"/>
<path class="st82" d="M51,53.9c0.3,0.8,0.5,1.7,0.5,2.6c0,0.8,0,1.8-0.6,2.4c-0.5,0.6-1.5,0.9-2.2,0.6c-0.6-0.3-0.8-1-1-1.5
	c-0.1-0.2-0.4,0-0.3,0.2c0.3,0.5,0.4,1.1,0.8,1.4c0.5,0.4,1.2,0.5,1.7,0.3c0.6-0.2,1.2-0.6,1.5-1.2c0.3-0.7,0.4-1.5,0.3-2.2
	c0-0.9-0.2-1.8-0.5-2.6C51.2,53.6,50.9,53.7,51,53.9L51,53.9z"/>
<path class="st92" d="M68.2,38.3c0-5.1-4.2-9.3-9.3-9.3s-9.3,4.2-9.3,9.3s4.2,9.3,9.3,9.3C64.1,47.6,68.2,43.4,68.2,38.3z"/>
<path class="st92" d="M44.8,39.3c0-5.1-4.2-9.3-9.3-9.3s-9.3,4.2-9.3,9.3s4.2,9.3,9.3,9.3S44.8,44.4,44.8,39.3z"/>
<path class="st82" d="M76.7,34.6c0-1.1-0.9-2-2-2s-2,0.9-2,2s0.9,2,2,2C75.9,36.6,76.7,35.7,76.7,34.6z"/>
<path class="st82" d="M21.4,36.4c0-1.1-0.9-2-2-2s-2,0.9-2,2s0.9,2,2,2C20.6,38.3,21.4,37.4,21.4,36.4z"/>
<path class="st82" d="M51.4,46.9c0-1.3-1.9-2.3-4.2-2.3s-4.2,1-4.2,2.3s1.9,2.3,4.2,2.3C49.6,49.2,51.4,48.1,51.4,46.9z"/>
<path class="st82" d="M56.4,40c1,1.4,2.9,1.7,4.2,0.7c1.4-1,1.7-2.9,0.7-4.2c-1-1.4-2.9-1.7-4.2-0.7C55.8,36.8,55.5,38.7,56.4,40z
	 M59.8,36.2c0.3,0.4,0.2,0.9-0.2,1.2s-0.9,0.2-1.2-0.2s-0.2-0.9,0.2-1.2S59.5,35.8,59.8,36.2z"/>
<path class="st82" d="M32.6,40.5c0.5,1.6,2.2,2.5,3.8,2s2.5-2.2,2-3.8s-2.2-2.5-3.8-2C32.9,37.2,32.1,38.9,32.6,40.5z M36.9,37.8
	c0.1,0.5-0.1,0.9-0.6,1.1c-0.5,0.1-0.9-0.1-1.1-0.6c-0.1-0.5,0.1-0.9,0.6-1.1C36.3,37.1,36.8,37.4,36.9,37.8z"/>
<path class="st82" d="M47.5,53.3c0.1,0.6,0.1,1.2,0.1,1.8s0,1.3,0,1.9c-0.1,0.9-0.3,2.2-1.2,2.6c-0.8,0.4-1.7,0-2.2-0.7
	c-0.4-0.7-0.5-1.5-0.5-2.3s0.1-1.7,0.4-2.5c0.1-0.2-0.3-0.3-0.3-0.1c-0.3,0.8-0.4,1.7-0.4,2.5c0,0.9,0.1,1.8,0.6,2.6
	c0.5,0.7,1.4,1.1,2.3,0.9c1-0.2,1.5-1.3,1.6-2.2c0.2-0.8,0.1-1.7,0.1-2.6c0-0.7,0.1-1.4-0.1-2.1C47.7,53,47.4,53.1,47.5,53.3
	L47.5,53.3z"/>
<path class="st82" d="M72.4,34.2c3.2,4.8,4.3,10.4,4.7,16c0.2,3,0.2,6,0.2,9c0,1.5,0,2.9-0.1,4.4c0,1.4,0.1,2.8,0.1,4.2
	c0,0.4,0.7,0.4,0.7,0c0-1.4-0.1-2.8-0.1-4.2C78,62,78,60.4,78,58.7c0-3.2-0.1-6.3-0.3-9.5C77.3,43.8,76,38.4,73,33.8
	C72.7,33.5,72.1,33.8,72.4,34.2L72.4,34.2z"/>
<path class="st82" d="M17.6,93.2c1.6,5.2,3.2,10.7,7,14.8c0.3,0.3,0.8-0.2,0.5-0.5c-3.7-4-5.3-9.4-6.9-14.5
	C18.1,92.6,17.4,92.8,17.6,93.2L17.6,93.2z"/>
<path class="st82" d="M30.6,111.8c5.1,3.2,11.7,3.2,17.5,2.7c3-0.3,5.9-0.7,8.9-1.2c3.1-0.5,6.7-0.8,9.4-2.5c0.4-0.2,0-0.8-0.4-0.6
	c-2.6,1.7-6.1,1.9-9.1,2.4c-2.9,0.5-5.9,1-8.8,1.2c-5.7,0.5-12.1,0.5-17.2-2.6C30.5,111,30.2,111.6,30.6,111.8L30.6,111.8z"/>
<path class="st82" d="M24.9,108.1c2.7-1.5,4.2,2.2,6.1,3.4c0-0.1,0.1-0.2,0.1-0.3c-2.8,0.4-4.5,3.3-7.2,4c-1.4,0.4-3-0.5-3.3-1.9
	c-0.3-1.3,0.7-2.4,1.6-3.2c1.1-1,2.3-1.7,3.6-2.4c0.2-0.1,0-0.4-0.2-0.3c-1.2,0.6-2.4,1.3-3.5,2.2c-0.9,0.8-2,1.9-2,3.2
	c0,1.3,1.3,2.6,2.5,2.8c1.4,0.2,2.7-0.6,3.7-1.4c1.4-1,2.9-2.5,4.6-2.7c0.2,0,0.2-0.2,0.1-0.3c-2-1.3-3.5-5-6.4-3.4
	C24.5,107.9,24.7,108.2,24.9,108.1L24.9,108.1z"/>
<path class="st82" d="M21.8,114.7c-0.5-1.6,0.8-2.9,2.1-3.6c0.2-0.1,0-0.4-0.2-0.3c-1.4,0.7-2.8,2.2-2.2,4
	C21.5,115,21.8,114.9,21.8,114.7L21.8,114.7z"/>
<path class="st82" d="M71.4,114.6c-1.5-0.9-2.5-2.4-3.7-3.6c-0.2-0.2-0.5-0.4-0.8-0.6c-0.4-0.3-0.4-0.7-0.1-1.1
	c0.4-0.7,1.4-1.3,2.1-1.7c0.9-0.5,1.9-0.7,2.8-0.4c0.9,0.3,1.6,0.8,2.2,1.5c1,1.1,1.8,2.9,1.6,4.4c-0.1,0.9-0.7,1.7-1.6,1.9
	C73.1,115.2,72.2,115,71.4,114.6c-0.2-0.1-0.4,0.2-0.2,0.3c1.4,0.7,3.5,0.9,4.4-0.7s0.1-3.7-0.9-5.1c-1.1-1.6-3-2.8-4.9-2.2
	c-1,0.3-1.9,0.9-2.7,1.6c-0.5,0.4-1.2,1.3-0.7,2c0.3,0.3,0.7,0.5,1,0.8c0.5,0.4,0.9,0.9,1.3,1.4c0.8,0.9,1.5,1.8,2.6,2.3
	C71.4,115,71.6,114.7,71.4,114.6z"/>
<path class="st82" d="M72.3,110.9c1,1,1.9,2.5,1.9,4c0,0.2,0.3,0.2,0.3,0c0-1.6-0.9-3.1-2-4.2C72.4,110.5,72.2,110.8,72.3,110.9
	L72.3,110.9z"/>
<path class="st82" d="M74.6,102.6c-0.9,1.3-1.8,2.7-2.5,4.1c-0.2,0.4,0.4,0.7,0.6,0.4c0.7-1.4,1.7-2.7,2.5-4.1
	C75.5,102.6,74.9,102.3,74.6,102.6L74.6,102.6z"/>
<path class="st82" d="M66.3,110.4L66.3,110.4c0.1,0,0.2,0,0.2-0.1c0,0,0,0,0-0.1c0,0,0,0,0-0.1c0,0,0-0.1-0.1-0.1l-0.1-0.1l0,0
	c-0.1,0-0.1,0-0.1,0.1c0,0,0,0,0,0.1l0,0l0,0l0,0l0,0l0,0l0,0l0,0l0,0C66.3,110.2,66.3,110.2,66.3,110.4c0.1-0.2,0.1-0.2,0.2-0.3
	c-0.1,0-0.2,0.1-0.3,0.1C66.3,110.3,66.3,110.3,66.3,110.4l0.2,0.1c0,0,0,0,0.1,0c0,0,0,0,0.1,0l0.1-0.1c0,0,0-0.1-0.1-0.1
	c-0.1-0.1-0.1-0.1-0.2-0.2c0,0-0.1-0.1-0.2,0h-0.1c0,0,0,0,0,0.1s0,0.1-0.1,0.2v0.1c0,0,0,0,0,0.1C66.1,110.5,66.1,110.5,66.3,110.4
	C66.2,110.5,66.3,110.5,66.3,110.4L66.3,110.4L66.3,110.4L66.3,110.4C66.3,110.5,66.3,110.5,66.3,110.4c0.1,0.1,0.1,0.1,0.2,0.1
	c0,0,0,0,0-0.1c0,0,0,0,0-0.1L66.3,110.4L66.3,110.4c0.1,0,0.2,0,0.2-0.1c0,0,0,0,0-0.1c0,0,0,0,0-0.1c0,0,0-0.1-0.1-0.1l-0.1-0.1
	h-0.1c0,0-0.1,0-0.1,0.1c0,0,0,0,0,0.1c0,0,0,0,0,0.1C66.1,110.2,66.1,110.3,66.3,110.4C66.2,110.4,66.2,110.4,66.3,110.4
	L66.3,110.4z"/>
<path class="st82" d="M30.1,98.4c0,0.3-0.1,0.6,0,0.9c0,0.1,0.1,0.2,0.2,0.2s0.2-0.1,0.2-0.2c0-0.3,0-0.6,0-0.9
	c0-0.1-0.1-0.2-0.2-0.2C30.2,98.2,30.1,98.3,30.1,98.4L30.1,98.4z"/>
<path class="st82" d="M32.1,98.6c0,0.2,0,0.3,0,0.5c0,0.1,0,0.2,0,0.2v0.1l0,0c0,0,0-0.1,0,0l0,0c0,0,0-0.1,0.1-0.1h0.1l0.1,0.1
	c0,0,0,0.1,0,0s-0.1-0.2-0.2-0.1c-0.1,0-0.2,0.1-0.1,0.2c0,0.1,0.1,0.1,0.1,0.1c0.1,0,0.2,0,0.2-0.1s0-0.1,0-0.2c0-0.2,0-0.3,0-0.5
	c0-0.1,0-0.2,0-0.3c0-0.1-0.1-0.2-0.2-0.2C32.1,98.5,32.1,98.5,32.1,98.6L32.1,98.6z"/>
<path class="st82" d="M42.4,99.5c1,0.1,2,0.2,3,0.4c0.2,0,0.3-0.3,0.1-0.3c-1-0.2-2.1-0.3-3.1-0.4C42.2,99.1,42.2,99.4,42.4,99.5
	L42.4,99.5z"/>
<path class="st82" d="M43.7,98c1-0.1,2.1,0.3,3.1,0.3c0.2,0,0.2-0.3,0-0.3c-1,0-2-0.4-3.1-0.3C43.5,97.6,43.5,98,43.7,98L43.7,98z"
	/>
<path class="st82" d="M82.6,103.7c0.6,0.1,1.2,0.1,1.8,0.2c0.1,0,0.2-0.1,0.2-0.2s-0.1-0.2-0.2-0.2c-0.6-0.1-1.2-0.1-1.8-0.2
	c-0.1,0-0.2,0.1-0.2,0.2C82.5,103.7,82.5,103.7,82.6,103.7L82.6,103.7z"/>
<path class="st82" d="M16.2,60.9L81,68.5c0-0.2,0-0.3,0-0.5l-65-7.7C16.1,60.6,16.2,60.7,16.2,60.9z"/>
<path class="st82" d="M86.6,68.9c0,0.1,0,0.3,0,0.4c0,0,0,0,0,0.1c0.9,0.5,1.5,1.5,1.4,2.6l-3.8,32c0.1,0,0.2,0,0.3,0l0,0
	c0,0,0,0,0.1,0c0,0,0,0,0.1,0c0,0,0-0.1,0.1-0.1L88.4,72C88.6,70.6,87.8,69.4,86.6,68.9z"/>
<path class="st82" d="M8,62.5L4.8,89.8l0,0H5l0,0c0.1,0,0.1,0,0.2,0.1l0,0l3.2-27.4c0.1-1.1,1-2,2-2.2c0-0.2,0.1-0.3,0.2-0.5
	C9.3,60,8.2,61.1,8,62.5z"/>
<path class="st82" d="M5.6,88.2c3.9,0.5,7.8,0.9,11.7,1.4c0.2,0,0.2-0.3,0-0.3c-3.9-0.5-7.8-0.9-11.7-1.4
	C5.4,87.8,5.4,88.2,5.6,88.2L5.6,88.2z"/>
<path class="st82" d="M5.2,90c3.4,0.4,6.9,0.8,10.3,1.2c0.2,0,0.2-0.3,0-0.3c-3.4-0.4-6.9-0.8-10.3-1.2C4.9,89.6,4.9,90,5.2,90
	L5.2,90z"/>
<path class="st82" d="M15.9,91.2c0.5-0.6,1.3-1,1.8-1.6c0.1-0.1,0.1-0.2,0-0.2c-0.1-0.1-0.2-0.1-0.2,0c-0.5,0.6-1.3,1-1.8,1.6
	c-0.1,0.1-0.1,0.2,0,0.2C15.7,91.3,15.8,91.3,15.9,91.2L15.9,91.2z"/>
<path class="st93" d="M26.4,87.5c-0.7-1-2.2-1.1-3.3-0.3l-4.1,3c-1.1,0.8-1.5,2.2-0.8,3.2l0,0c0.7,1,2.2,1.1,3.3,0.3l4.1-3
	C26.8,89.9,27.1,88.5,26.4,87.5L26.4,87.5z"/>
<path class="st82" d="M32.6,85.7c-0.1,0-0.2-0.1-0.3-0.1L30.4,87c-0.5,0.4-1.1,0.6-1.7,0.5l0,0c-0.5-0.1-0.9-0.3-1.2-0.7
	c-0.3-0.4-0.4-0.9-0.3-1.5c0.1-0.5,0.5-1.1,1-1.4l1.7-1.3c-0.1-0.1-0.2-0.3-0.2-0.4l-1.8,1.3c-0.6,0.4-1,1-1.2,1.7s0,1.3,0.3,1.8
	c0.4,0.5,0.9,0.8,1.5,0.9l0,0c0.7,0.1,1.4-0.1,2.1-0.6l2-1.4C32.6,85.8,32.6,85.7,32.6,85.7z"/>
<path class="st82" d="M41,65.5c-6.3-0.7-12.1,3.8-12.8,10.1c-0.3,2.5,0.3,5,1.4,7c0-0.1,0.1-0.1,0.2-0.2c-1.1-2-1.6-4.4-1.4-6.8
	c0.7-6.2,6.4-10.6,12.5-9.9c6.2,0.7,10.6,6.4,9.9,12.5c-0.7,6.2-6.4,10.6-12.5,9.9c-2.3-0.3-4.3-1.2-5.9-2.5c-0.1,0-0.2,0.1-0.3,0.1
	c1.7,1.4,3.8,2.4,6.1,2.7c6.3,0.7,12.1-3.8,12.8-10.1C51.9,72,47.3,66.3,41,65.5z"/>
<path class="st94" d="M48.2,78c0.6-4.7-2.8-9-7.6-9.6c-4.7-0.6-9,2.8-9.6,7.6c-0.6,4.7,2.8,9,7.6,9.6C43.4,86.1,47.7,82.7,48.2,78z"
	/>
<path class="st82" d="M38.5,84.7c0.6-1.2,1.1-2.5,1.7-3.7c0.5-1.1,1.2-2.2,1.5-3.4c0.1-0.2-0.3-0.3-0.3-0.1c-0.3,1.2-1,2.3-1.5,3.4
	c-0.5,1.2-1,2.4-1.6,3.6C38.1,84.7,38.4,84.9,38.5,84.7L38.5,84.7z"/>
<path class="st82" d="M41.3,77.6c0.4,1,0.5,2.2,0.6,3.3c0.1,1.1,0.1,2.2,0.3,3.3c0,0.2,0.4,0.1,0.3-0.1c-0.4-2.2-0.1-4.5-1-6.6
	C41.5,77.3,41.2,77.4,41.3,77.6L41.3,77.6z"/>
<path class="st82" d="M38.2,84.7c0.5,0.1,0.9,0.2,1.4,0.2c0.2,0,0.2-0.4,0-0.3c-0.4,0-0.9-0.1-1.3-0.2c-0.1,0-0.2,0-0.2,0.1
	C38.1,84.6,38.2,84.7,38.2,84.7L38.2,84.7z"/>
<path class="st82" d="M41.1,84.9c0.5-0.1,0.9-0.2,1.4-0.4c0.1,0,0.1-0.1,0.1-0.2s-0.1-0.2-0.2-0.1c-0.4,0.2-0.9,0.2-1.4,0.4
	C40.7,84.6,40.8,84.9,41.1,84.9L41.1,84.9z"/>
<path class="st82" d="M39.8,84.8c0.3-0.8,0.6-1.5,1-2.2c-0.1,0-0.2-0.1-0.3-0.1c0,0.4,0,0.8,0,1.2c0,0.4,0,0.8,0.2,1.1
	c0.1,0.2,0.4,0,0.3-0.2c-0.2-0.3-0.2-0.7-0.2-1c0-0.4,0-0.7,0-1.1c0-0.2-0.2-0.2-0.3-0.1c-0.5,0.7-0.8,1.5-1.1,2.3
	C39.4,84.9,39.8,85,39.8,84.8L39.8,84.8z"/>
<path class="st82" d="M37.4,89.2c0.5,0.3,1,0.3,1.6,0.2c0.1,0,0.1-0.1,0.1-0.2s-0.1-0.1-0.2-0.1c-0.4,0.1-0.9,0.1-1.3-0.2
	C37.4,88.7,37.2,89,37.4,89.2L37.4,89.2z"/>
<path class="st82" d="M40.9,89.2c0.6,0.3,1.2,0.1,1.7-0.1c0.2-0.1,0.1-0.4-0.1-0.3c-0.5,0.1-1,0.3-1.5,0.1c-0.1,0-0.2,0-0.2,0.1
	C40.8,89.1,40.8,89.2,40.9,89.2L40.9,89.2z"/>
<path class="st82" d="M37.2,89c-0.6,2.5-2.2,4.6-3,7c-0.1,0.2,0.3,0.3,0.3,0.1c0.8-2.4,2.4-4.5,3-7C37.6,88.9,37.2,88.8,37.2,89
	L37.2,89z"/>
<path class="st82" d="M38.8,89.3c-0.9,3-2.6,5.7-3.7,8.5c-0.1,0.2,0.3,0.3,0.3,0.1c1.2-2.9,2.8-5.6,3.7-8.5
	C39.2,89.2,38.9,89.1,38.8,89.3L38.8,89.3z"/>
<path class="st82" d="M22.6,94.9c3.8,0.4,7.7,0.6,11.5,1.2c0.2,0,0.3-0.3,0.1-0.3c-3.9-0.6-7.7-0.9-11.6-1.2
	C22.4,94.6,22.4,94.9,22.6,94.9L22.6,94.9z"/>
<path class="st82" d="M20.6,96.6c4.8,0.7,9.7,1.1,14.5,1.6c0.2,0,0.2-0.3,0-0.3c-4.8-0.4-9.6-0.9-14.4-1.6
	C20.5,96.2,20.4,96.5,20.6,96.6L20.6,96.6z"/>
<path class="st82" d="M22.3,94.7c-0.6,0.6-1.4,1-1.9,1.7c-0.1,0.1,0,0.2,0.1,0.2c0.1,0.1,0.2,0,0.2-0.1c0.5-0.7,1.3-1,1.8-1.6
	C22.7,94.8,22.5,94.5,22.3,94.7L22.3,94.7z"/>
<path class="st82" d="M31.7,92.5c0-0.2,0-0.3,0-0.5l0,0l0,0c0,0,0,0,0-0.1v-0.1c0-0.1,0-0.2,0.1-0.2c0-0.1,0-0.2-0.1-0.2
	s-0.2,0-0.2,0.1c-0.1,0.3-0.1,0.6-0.1,1c0,0.1,0.1,0.2,0.2,0.2C31.7,92.7,31.7,92.6,31.7,92.5L31.7,92.5z"/>
<path class="st82" d="M32.6,92.6L32.6,92.6L32.6,92.6C32.6,92.5,32.6,92.5,32.6,92.6v-0.2c0-0.1,0-0.2,0.1-0.2
	c0-0.2,0.1-0.4,0.1-0.6c0-0.1-0.1-0.2-0.2-0.2c-0.1,0-0.2,0.1-0.2,0.2v0.1v0.1c0,0.1,0,0.2-0.1,0.3c0,0.2-0.1,0.3-0.1,0.5
	c0,0.1,0.1,0.2,0.2,0.2S32.6,92.7,32.6,92.6L32.6,92.6z"/>
<path class="st82" d="M31.3,93.7c0,0.3-0.1,0.6-0.1,0.9c0,0.1,0.1,0.2,0.2,0.2s0.2-0.1,0.2-0.2c0-0.3,0.1-0.6,0.1-0.9
	c0-0.1-0.1-0.2-0.2-0.2C31.3,93.5,31.3,93.6,31.3,93.7L31.3,93.7z"/>
<path class="st82" d="M32.2,93.8c0,0.3,0,0.7-0.1,1c0,0.1,0.1,0.2,0.2,0.2c0.1,0,0.2-0.1,0.2-0.2c0-0.3,0.1-0.7,0.1-1
	c0-0.1-0.1-0.2-0.2-0.2C32.3,93.6,32.2,93.7,32.2,93.8L32.2,93.8z"/>
<path class="st82" d="M32.3,94c0.2,0.1,0.3,0.1,0.5,0.1s0.4,0,0.5-0.1c0.1,0,0.2-0.1,0.1-0.2c0-0.1-0.1-0.2-0.2-0.1
	c-0.1,0-0.1,0-0.2,0.1c0,0,0,0-0.1,0l0,0l0,0h-0.1h-0.1c0,0,0,0-0.1,0l0,0l0,0l0,0l0,0c0,0,0,0-0.1,0h-0.1
	C32.3,93.8,32.2,93.8,32.3,94C32.2,93.8,32.2,93.9,32.3,94L32.3,94z"/>
<path class="st82" d="M32.4,92.9c0.4,0.1,0.7,0.1,1.1,0c0.1,0,0.1-0.1,0.1-0.2s-0.1-0.1-0.2-0.1h-0.1c0,0-0.1,0,0,0c0,0,0,0-0.1,0
	s-0.2,0-0.2,0s0,0-0.1,0c0,0-0.1,0,0,0h-0.1c-0.1,0-0.2,0-0.2-0.1c-0.1,0-0.2,0-0.2,0.1C32.3,92.8,32.3,92.9,32.4,92.9L32.4,92.9z"
	/>
<path class="st82" d="M30.6,92.6c0.3,0,0.6,0.1,0.9,0.1c0.1,0,0.2-0.1,0.2-0.2s-0.1-0.2-0.2-0.2c-0.3,0-0.6-0.1-0.9-0.1
	c-0.1,0-0.2,0.1-0.2,0.2S30.5,92.6,30.6,92.6L30.6,92.6z"/>
<path class="st82" d="M30.4,93.9c0.3,0.1,0.6,0.1,0.9,0c0.1,0,0.2-0.1,0.2-0.2s-0.1-0.2-0.2-0.2s-0.3,0-0.4,0h-0.1c0,0,0,0-0.1,0
	c0,0-0.1,0,0,0c-0.1,0-0.1,0-0.2-0.1c-0.1,0-0.2,0-0.2,0.1C30.2,93.7,30.3,93.8,30.4,93.9L30.4,93.9z"/>
<path class="st82" d="M30.3,92.5c0.1,0.4,0,0.8,0,1.2c0,0.1,0.1,0.2,0.2,0.2s0.2-0.1,0.2-0.2c0-0.4,0.1-0.8,0-1.2
	c0-0.1-0.1-0.1-0.2-0.1C30.4,92.3,30.3,92.4,30.3,92.5L30.3,92.5z"/>
<path class="st82" d="M31.6,91.7c0.3,0.1,0.6,0.1,0.8,0.1c0,0,0.1,0,0.1-0.1l0.1-0.1c0-0.1-0.1-0.2-0.2-0.2c-0.1,0-0.3,0-0.4,0l0,0
	l0,0h-0.1c-0.1,0-0.1,0-0.2-0.1c-0.1,0-0.2,0-0.2,0.1C31.5,91.6,31.5,91.6,31.6,91.7L31.6,91.7z"/>
<path class="st82" d="M33.3,93L33.3,93C33.3,93.1,33.3,93.1,33.3,93L33.3,93C33.3,93.1,33.3,93.1,33.3,93c0,0.2,0,0.3,0,0.3
	c0,0.2,0,0.3,0,0.5c0,0.1,0.1,0.2,0.2,0.2c0.1,0,0.2-0.1,0.2-0.2c0-0.2,0-0.3,0-0.5c0-0.1,0-0.2,0-0.2c0-0.1,0-0.1,0-0.2
	s-0.1-0.2-0.2-0.1C33.3,92.8,33.2,92.9,33.3,93L33.3,93z"/>
<path class="st82" d="M31.4,95c0.3,0,0.5,0,0.8,0c0.1,0,0.2-0.1,0.2-0.2s-0.1-0.2-0.2-0.2c-0.3,0-0.5,0-0.8,0
	c-0.1,0-0.2,0.1-0.2,0.2S31.3,95,31.4,95L31.4,95z"/>
<path class="st82" d="M30.2,98.5c0.7,0.1,1.3,0,2,0.2c0.2,0,0.3-0.3,0.1-0.3c-0.3-0.1-0.7-0.1-1-0.1s-0.6,0-1-0.1
	C30,98.1,29.9,98.4,30.2,98.5L30.2,98.5z"/>
<path class="st82" d="M30.3,99.8c0.3-0.1,0.6,0,0.9,0s0.6,0,0.9,0c0.1,0,0.1-0.1,0.1-0.2s-0.1-0.1-0.2-0.1c-0.3,0.1-0.6,0-0.9,0
	s-0.6,0-0.9,0c-0.1,0-0.1,0.1-0.1,0.2C30.1,99.8,30.2,99.8,30.3,99.8L30.3,99.8z"/>
<path class="st82" d="M40.8,89.3c0.5,2,0.6,4.1,0.7,6.2c0,0.8,0.1,1.5,0.2,2.3c0.1,0.5,0.1,1.2,0.5,1.6c0.1,0.2,0.4-0.1,0.2-0.2
	C42,98.8,42,98,42,97.5c-0.1-0.8-0.1-1.5-0.2-2.3c-0.1-1.9-0.3-3.9-0.7-5.8C41.1,88.9,40.7,89,40.8,89.3L40.8,89.3z"/>
<path class="st82" d="M42.3,89.1c0.6,1.3,0.4,2.9,0.5,4.2c0.1,1.5,0.2,3,0.7,4.4c0.1,0.2,0.4,0.1,0.3-0.1c-0.5-1.5-0.6-3.2-0.7-4.7
	c-0.1-1.3,0-2.8-0.6-4C42.5,88.7,42.2,88.9,42.3,89.1L42.3,89.1z"/>
<path class="st82" d="M45.4,100c0.2,0.1,0.4,0.6,0.5,0.9c0.2,0.5,0.4,1.1,0.5,1.6c0.2,0.6,0.3,1.1,0.5,1.7c0.1,0.4,0.2,0.8,0.4,1.1
	c0.1,0.2,0.4,0,0.3-0.2c-0.2-0.4-0.3-0.8-0.4-1.2c-0.2-0.6-0.3-1.2-0.5-1.8c-0.2-0.5-0.3-1.1-0.5-1.6c-0.1-0.3-0.3-0.7-0.6-0.9
	C45.4,99.6,45.2,99.9,45.4,100L45.4,100z"/>
<path class="st82" d="M46.7,98.2c0.9,1.5,0.8,3.4,1.6,4.9c0.1,0.2,0.4,0,0.3-0.2c-0.8-1.5-0.7-3.4-1.6-4.9
	C46.8,97.9,46.5,98,46.7,98.2L46.7,98.2z"/>
<path class="st82" d="M48.6,103.2c1.4-2.3,2.4-4.9,3.4-7.4c1.1-2.9,2.4-5.7,3.8-8.5c0.1-0.2-0.2-0.4-0.3-0.2
	c-1.3,2.6-2.5,5.4-3.6,8.1s-2,5.4-3.5,7.8C48.1,103.2,48.4,103.4,48.6,103.2L48.6,103.2z"/>
<path class="st82" d="M49.3,105.6c1.1-1.9,1.7-4.1,2.6-6.1c0.9-2,2.2-3.7,2.8-5.8c0.1-0.2-0.3-0.3-0.3-0.1c-0.6,2.1-2,3.9-2.8,5.9
	c-0.9,2-1.4,4.1-2.5,5.9C48.9,105.6,49.2,105.8,49.3,105.6L49.3,105.6z"/>
<path class="st82" d="M54.4,93.7c0.6,2.1,0.3,4.2,0.6,6.3c0,0.2,0.4,0.2,0.3,0c-0.2-2.1,0-4.3-0.6-6.4
	C54.6,93.4,54.3,93.5,54.4,93.7L54.4,93.7z"/>
<path class="st82" d="M55.4,87.3c0.3,1.3,0.3,2.6,0.3,3.9c0.1,1.3,0.2,2.6,0.3,3.9c0.1,0.9,0.2,1.9,0.3,2.8c0,0.3,0,1.1,0.4,1
	c0.2,0,0.1-0.4-0.1-0.3c0.1,0.1,0.1,0.1,0.1,0s0-0.1,0-0.2c0-0.2,0-0.3-0.1-0.5c0-0.3,0-0.6-0.1-0.8c-0.1-1.1-0.3-2.2-0.3-3.3
	c-0.1-1.1-0.2-2.2-0.2-3.3c0-1.1-0.1-2.1-0.3-3.2C55.7,86.9,55.4,87,55.4,87.3L55.4,87.3z"/>
<path class="st82" d="M82.8,101.9c0.6,0.1,1.2,0.2,1.8,0.1c0.1,0,0.2-0.1,0.2-0.2s-0.1-0.2-0.2-0.2c-0.6,0.1-1.2,0-1.7-0.1
	c-0.1,0-0.2,0-0.2,0.1C82.7,101.7,82.7,101.9,82.8,101.9L82.8,101.9z"/>
<path class="st82" d="M56.7,98.8c6.9,1.1,13.8,1.4,20.7,2.2c0.2,0,0.2-0.3,0-0.3c-6.9-0.8-13.8-1.1-20.6-2.2
	C56.6,98.5,56.5,98.8,56.7,98.8L56.7,98.8z"/>
<path class="st82" d="M55.1,100.5c7.3,0.9,14.5,1.7,21.8,2.6c0.2,0,0.2-0.3,0-0.3c-7.3-0.9-14.5-1.7-21.8-2.6
	C54.8,100.1,54.8,100.5,55.1,100.5L55.1,100.5z"/>
<path class="st82" d="M53,71.9c-0.9,7.4-1.7,14.7-2.6,22.1c0,0.2,0.3,0.2,0.3,0c0-0.1,0-0.2,0-0.3c0-0.2-0.3-0.2-0.3,0
	c0,0.1,0,0.2,0,0.3c0.1,0,0.2,0,0.3,0c0.9-7.4,1.7-14.7,2.6-22.1C53.4,71.7,53,71.7,53,71.9L53,71.9z"/>
<path class="st82" d="M58.8,72.6c-0.6,5.3-1.2,10.5-1.9,15.8c0,0.2,0.3,0.2,0.3,0c0.6-5.3,1.2-10.5,1.9-15.8
	C59.1,72.4,58.8,72.4,58.8,72.6L58.8,72.6z"/>
<path class="st82" d="M60,82.1c-0.6,4.9-1.2,9.8-1.7,14.6c0,0.2,0.3,0.2,0.3,0c0.6-4.9,1.2-9.8,1.7-14.6C60.3,81.9,60,81.9,60,82.1
	L60,82.1z"/>
<path class="st82" d="M65.4,82.7c-0.6,4.9-1.2,9.8-1.7,14.8c0,0.2,0.3,0.2,0.3,0c0.6-4.9,1.2-9.8,1.7-14.8
	C65.8,82.5,65.4,82.5,65.4,82.7L65.4,82.7z"/>
<path class="st82" d="M66.7,88c-0.4,3.2-0.8,6.4-1.1,9.6c0,0.2,0.3,0.2,0.3,0c0.4-3.2,0.8-6.4,1.1-9.6C67.1,87.8,66.8,87.8,66.7,88
	L66.7,88z"/>
<path class="st82" d="M72.2,88.7c-0.4,3.3-0.8,6.5-1.2,9.8c0,0.2,0.3,0.2,0.3,0c0.4-3.3,0.8-6.5,1.2-9.8
	C72.5,88.4,72.2,88.4,72.2,88.7L72.2,88.7z"/>
<path class="st82" d="M53.2,72c1.9,0.2,3.7,0.4,5.6,0.7c0.2,0,0.2-0.3,0-0.3c-1.9-0.2-3.7-0.4-5.6-0.7C52.9,71.6,53,72,53.2,72
	L53.2,72z"/>
<path class="st82" d="M60.3,82.2c1.7,0.2,3.5,0.4,5.2,0.6c0.2,0,0.2-0.3,0-0.3c-1.7-0.2-3.5-0.4-5.2-0.6
	C60.1,81.8,60.1,82.2,60.3,82.2L60.3,82.2z"/>
<path class="st82" d="M67,88.1c1.8,0.2,3.5,0.4,5.3,0.6c0.2,0,0.2-0.3,0-0.3c-1.8-0.2-3.5-0.4-5.3-0.6C66.8,87.7,66.8,88,67,88.1
	L67,88.1z"/>
<path class="st82" d="M65.9,98c1.8,0.2,3.5,0.4,5.3,0.6c0.2,0,0.2-0.3,0-0.3c-1.8-0.2-3.5-0.4-5.3-0.6C65.7,97.6,65.7,98,65.9,98
	L65.9,98z"/>
<path class="st82" d="M58.5,97.2c1.8,0.2,3.5,0.4,5.3,0.6c0.2,0,0.2-0.3,0-0.3c-1.8-0.2-3.5-0.4-5.3-0.6
	C58.2,96.8,58.2,97.1,58.5,97.2L58.5,97.2z"/>
<path class="st82" d="M50.7,94.2c1.7-3.8,3.8-7.3,5.5-11.1c0.1-0.2-0.2-0.4-0.3-0.2c-1.7,3.8-3.8,7.3-5.5,11.1
	C50.3,94.2,50.6,94.4,50.7,94.2L50.7,94.2z"/>
<path class="st82" d="M55.8,83c0.8,1.7,0.4,3.8,1,5.6c0.1,0.2,0.4,0.1,0.3-0.1c-0.6-1.8-0.2-3.9-1-5.7C56,82.6,55.7,82.8,55.8,83
	L55.8,83z"/>
<path class="st82" d="M16.5,61c-0.5-1.2-1.4-2.3-2.9-2.4c-1.1-0.1-2.3,0.6-2.9,1.4c-0.8,1-0.9,2.3-0.3,3.4c0.4,0.7,1,1.2,1.7,1.4
	c0.7,0.2,1.4,0.1,2-0.2c1.5-0.6,2.6-2.3,2.1-4c-0.1-0.2-0.4-0.1-0.3,0.1c0.4,1.3-0.4,2.6-1.5,3.3c-0.5,0.3-1.2,0.5-1.8,0.5
	c-0.7-0.1-1.3-0.5-1.7-1.1c-0.6-0.9-0.7-2.1-0.1-3c0.5-0.8,1.5-1.5,2.5-1.6c1.4-0.1,2.4,0.9,2.9,2.1C16.2,61.3,16.5,61.2,16.5,61
	L16.5,61z"/>
<path class="st82" d="M13.3,64.7c-0.9-0.7-1.2-1.9-0.7-2.9c0.1-0.2-0.2-0.4-0.3-0.2C11.7,62.7,12,64.2,13,65
	C13.3,65.1,13.5,64.8,13.3,64.7L13.3,64.7z"/>
<path class="st82" d="M82.5,101c-1-1.7-3.5-2.2-4.8-0.6c-0.7,0.8-1.2,2.2-0.6,3.2c0.5,0.8,1.6,1.1,2.5,1.1c1,0,2-0.2,2.7-0.9
	C83.1,103.1,83.1,102,82.5,101c0-0.2-0.1-0.3-0.2-0.5c-0.1-0.2-0.4,0-0.3,0.2c0.5,0.8,0.9,1.8,0.2,2.6c-0.5,0.7-1.4,0.9-2.2,1
	c-0.8,0.1-1.8-0.1-2.4-0.6c-0.7-0.6-0.5-1.6-0.1-2.4c0.5-0.9,1.2-1.5,2.2-1.6c1,0,2,0.5,2.5,1.4C82.4,101.3,82.7,101.2,82.5,101
	L82.5,101z"/>
<path class="st82" d="M79.1,99.6c-0.5,0.6-0.7,1.3-0.5,2.1c0.2,0.8,0.7,1.4,1.3,1.9c0.2,0.1,0.4-0.2,0.2-0.3
	c-1.1-0.7-1.7-2.3-0.8-3.4C79.5,99.6,79.2,99.4,79.1,99.6L79.1,99.6z"/>
<path class="st82" d="M80.8,68.6c0.4,0.1,0.9,0,1.3,0.1c0.6,0,1.2,0.1,1.8,0.2c1,0.2,2.1,0.2,3,0.7c0.3,0.2,0.6-0.3,0.3-0.5
	c-0.9-0.5-2-0.6-3-0.7c-0.6-0.1-1.1-0.2-1.7-0.2c-0.5,0-1,0-1.5-0.1C80.6,68,80.4,68.5,80.8,68.6L80.8,68.6z"/>
<path class="st82" d="M47.4,105.6c0.6,0.1,1.2,0.3,1.8,0.2c0.2-0.1,0.1-0.4-0.1-0.3c-0.5,0.1-1.1-0.1-1.6-0.2c-0.1,0-0.2,0-0.2,0.1
	C47.2,105.4,47.3,105.6,47.4,105.6L47.4,105.6z"/>
<path class="st82" d="M17.5,89.8c0.4,0,0.8,0.2,1.1,0.5c0.1,0.1,0.2,0.1,0.2,0c0.1-0.1,0.1-0.2,0-0.2c-0.3-0.4-0.8-0.6-1.3-0.6
	c-0.1,0-0.2,0.1-0.2,0.2C17.4,89.7,17.4,89.8,17.5,89.8L17.5,89.8z"/>
<path class="st82" d="M10.5,60.4c0.2,0,0.3-0.1,0.4-0.2c0,0,0,0,0-0.1V60c0,0,0-0.1-0.1-0.1h-0.1h-0.1c0,0.1,0,0.2,0,0.3
	c0.1,0,0.1,0,0.2,0l0,0l0,0c0,0,0.1,0,0.1-0.1L11,60c0,0,0-0.1-0.1-0.1l-0.1-0.1c0,0,0,0-0.1,0c0.1,0.1,0.1,0.1,0.2,0.2l0,0l0,0l0,0
	l0,0l0,0l0,0l0,0v-0.1c0,0,0-0.1-0.1-0.1l-0.1-0.1c-0.1,0-0.1,0-0.2,0.1c0,0.1-0.1,0.1,0,0.2c0,0.1,0.1,0.1,0.1,0.1s0,0,0.1,0
	c0,0,0,0,0.1,0c0,0,0.1,0,0.1-0.1v-0.1l0,0c0,0,0,0-0.1-0.1l0,0l0,0l0,0l0,0l0,0l0,0l0,0l0,0l0,0l0,0l0,0l0,0l0,0l0,0l0,0l0,0l0,0
	l0,0l0,0l0,0l0,0c-0.1-0.1-0.1-0.1-0.2-0.2l0,0l0,0l0,0l0,0l0,0l0,0l0,0v0.1c0,0,0,0.1,0.1,0.1l0.1,0.1c0,0,0,0,0.1,0
	c0-0.1,0-0.2,0-0.3c-0.1,0-0.1,0-0.2,0l0,0l0,0c0,0-0.1,0-0.1,0.1l-0.1,0.1c0,0,0,0.1,0.1,0.1l0.1,0.1h0.1c0-0.1-0.1-0.2-0.1-0.3
	l0,0l0,0c0,0-0.1,0-0.1,0.1l0,0h-0.1l0,0c0,0,0,0-0.1,0c0,0-0.1,0-0.1,0.1L10.2,60c0,0,0,0.1,0.1,0.1C10.4,60.3,10.4,60.4,10.5,60.4
	L10.5,60.4z"/>
<path class="st82" d="M10.4,60.2L10.4,60.2C10.4,60.3,10.4,60.3,10.4,60.2c0,0.1,0,0.1,0.1,0.1c0,0,0,0,0.1,0c0,0,0,0,0.1,0
	c0,0,0.1,0,0.1-0.1l0.1-0.1l0,0c0,0,0,0,0-0.1c0,0,0,0,0-0.1c0,0,0,0-0.1,0c0,0,0,0-0.1,0c0,0-0.1,0-0.1,0.1
	C10.4,60.1,10.4,60.2,10.4,60.2L10.4,60.2z"/>
<path class="st82" d="M10.4,60.3L10.4,60.3C10.4,60.4,10.4,60.4,10.4,60.3c0,0.1,0,0.1,0,0.2c0,0,0,0,0.1,0c0,0,0,0,0.1,0
	c0,0,0.1,0,0.1-0.1l0.1-0.1l0,0c0,0,0,0,0-0.1c0,0,0,0,0-0.1c0,0,0,0-0.1,0c0,0,0,0-0.1,0c0,0-0.1,0-0.1,0.1
	C10.4,60.2,10.4,60.2,10.4,60.3L10.4,60.3z"/>
<path class="st82" d="M16.8,60.6c-0.3,0-0.6,0.1-0.7,0.4v0.1c0,0,0,0.1,0.1,0.1s0.2,0,0.2-0.1c0,0,0,0,0-0.1l0,0l0,0l0,0l0,0l0,0
	l0,0h0.1l0,0c0.1,0,0.1,0,0.2,0l0,0c0.1,0,0.1,0,0.2,0c0,0,0.1,0,0.1-0.1l0.1-0.1c0,0,0-0.1-0.1-0.1C16.9,60.7,16.8,60.6,16.8,60.6
	L16.8,60.6z"/>
<path class="st82" d="M5,89.7c0,0.1,0,0.2,0.1,0.2"/>
</svg>
