<?xml version="1.0" encoding="utf-8"?>
<!-- Generator: Adobe Illustrator 24.0.1, SVG Export Plug-In . SVG Version: 6.00 Build 0)  -->
<svg version="1.1" id="Layer_1" xmlns="http://www.w3.org/2000/svg" xmlns:xlink="http://www.w3.org/1999/xlink" x="0px" y="0px"
	 viewBox="0 0 141.7 141.7" style="enable-background:new 0 0 141.7 141.7;" xml:space="preserve">
<style type="text/css">
	.st0{fill:#609B44;}
	.st1{fill:#75CEEB;}
	.st2{fill:#C9B09D;}
	.st3{fill:#FFFFFF;}
	.st4{fill:#441616;}
	.st5{fill:#692222;}
	.st6{fill:#DD644B;}
	.st7{fill:#71503B;}
	.st8{fill:#CECBB6;}
	.st9{fill:#B64948;}
	.st10{fill:#AF8A71;}
	.st11{fill:#EEEED0;}
	.st12{fill:#4F1515;}
	.st13{fill:url(#SVGID_1_);}
	.st14{fill:#F7F8F6;}
	.st15{clip-path:url(#SVGID_3_);fill:#070707;}
	.st16{clip-path:url(#SVGID_3_);fill:none;stroke:#070707;stroke-width:0.4452;stroke-miterlimit:10;}
	.st17{clip-path:url(#SVGID_3_);fill:#231F20;}
	.st18{fill:#070707;}
</style>
<path class="st0" d="M113.6,123.7c0-6.4-21.6-11.5-48.3-11.6c-26.7-0.1-48.3,5.1-48.3,11.4c0,6.4,21.6,11.5,48.3,11.6
	C92,135.2,113.6,130.1,113.6,123.7z"/>
<path class="st1" d="M30.4,94.7c0,0,0.8-15.9,15.9-24.4l3-0.7l9.3-0.6l1.3,0.2l0.6,0.7c0,0,2.5,0,2-1.8c0,0,6.1-1.5,6.2-1.4
	c0.1,0.1,4.7-1,4.7-1l4.7-1.2c0,0,3.7-0.9,3.8-0.9s3.8-1,3.8-1l3.1-1l2.1-0.3l1.6,0.5l2.4,2.2c0,0,1.2,1.7,1.3,1.8
	c0.1,0.1,1.8,2.5,1.8,2.5l2.1,3.6l1.3,2.4l1.4,3.5l0.8,3.8l0.3,3.5l-0.1,2.5l-0.4,1.9l1.1,0.7l1.6,1.7l1,1.3c0,0,0.5,1.2,0.5,1.3
	c0.1,0.1,0.3,1.3,0.3,1.3l-0.4,1.9l-0.7,1.5l-1.7,1.5l-1.3,0.6l-1.9,0.4l-1.8-0.2l-1.1-0.6l-1.6-1.4l-1,0.8l-4.2,2.2l-4.4,1.3
	l-3.6,1l-2.8,1l-2,1.1l-1.5,1.1l-1.1,1.3l-1,1.4l-0.8,1.3l-0.7,1.3l0.1,0.3c0,0,1.9,0.9,1,3c0,0-1.5,2.1-3.5,0l-1.1,0.9l-1.1,1
	l-2.5,0.9l-2.7,0.8c0,0-2.1,0.3-2,0.4c0.1,0-2,0.3-2,0.3l-0.4-0.9l-0.8-1l-0.8-0.6l-1-0.7l-0.5-0.2l-1.3-0.2l-0.8,0.1l-0.7,0.3
	c0,0-2.2,1.6-2.2,3l-0.7,0l-2-0.7l-2.3-1l-2.3-1.4l-2.6-1.9l-2.5-2.5l-2.5-2.8l-2-2.6l-1.6-2.7l-0.9-2l-0.7-1.8l-0.4-1.5l0.5-0.1
	l-0.1-0.7l-0.1-1L31.5,97L31.3,96l-0.4-0.7L30.4,94.7z"/>
<path class="st2" d="M46.3,70.1l-0.5-0.5l-0.7-0.9l-0.6-1l-0.3-1.1L44,66v-0.8v-0.5l0.2-0.4l0.2-0.2l0.4-0.1l0.5,0.1l0.3,0l0.4-0.1
	l0.5,0.2l0.5,0.3l0.5,0.6l0.3,0.6c0,0,0.2,0.7,0.2,0.8c0,0.1,0.1,0.7,0.1,0.7c0,0,0,0.7,0,0.7l0,0.7l0.1,1.2v0.2
	C48.3,69.9,47.8,71.5,46.3,70.1z"/>
<path class="st2" d="M61.7,70c0.1-0.1,0.2-0.2,0.3-0.3c-0.1,0.1,0.1-0.3,0.1-0.2c0.1-0.5,0.2-1,0.1-1.5c0,0,0,0,0,0l-0.2-1l-0.2-0.6
	l-0.4-0.9l-0.4-0.8L60.3,64L60,63.6l-0.7-0.4l-0.4-0.3h-1l-0.4,0.1l-0.4,0.4l-0.3,0.4c0,0-0.2,0.5-0.2,0.6c0,0.1-0.1,0.6-0.1,0.6
	l0.1,0.8l0.2,0.9l0.3,0.6l0.5,0.6l0.5,0.5l0.6,0.4l0.7,0.2l0.6,0.2l0.4,0.3l0.3,0.3C60.7,69.9,61.2,70,61.7,70z"/>
<path class="st2" d="M23.7,95.4l0.3-0.5l1-0.4l1-0.2c0,0,1.2,0,1.2,0c0.1,0,0.9,0,1,0c0.1,0,1,0.1,1,0.1l0.8,0.2l0.3,0.3l0.4,0.3
	l0.3,0.4l0.2,0.5l0.1,0.5c0,0,0.1,0.5,0.1,0.6c0,0.1,0.1,0.8,0.1,0.9c0,0.1,0,0.6,0,0.6v0.6l0.1,0.3l-0.3,0.1L31,99.6l-0.6,0l-0.6,0
	l-0.9-0.1L28,99.4l-0.9,0l-0.7-0.1l-0.7-0.1l-0.8-0.2l-0.7-0.4L23.8,98l-0.2-0.6l-0.1-0.6v-0.6l0.1-0.6L23.7,95.4z"/>
<path class="st2" d="M51.7,120.6l0.2-0.9l0.5-0.7l0.5-0.6l0.5-0.5l0.8-0.5l1-0.3l0.9,0.2l0.9,0.2l1,0.4l0.7,0.7l0.5,0.5l0.4,0.5
	l0.3,0.6c0,0,0.2,0.7,0.3,0.7c0,0.1,0.1,0.8,0.1,0.8s-0.4,0.7-0.4,0.8c0,0.1-0.5,0.6-0.5,0.6l-0.5,0.3l-0.7,0.1h-0.7h-0.8l-0.6-0.3
	l-1.1-0.5l-1-0.6l-0.8-0.5l-0.9-0.3l-0.5-0.5L51.7,120.6z"/>
<path class="st3" d="M78.1,70.7l0.2-1.1l0.4-0.9l0.5-0.9l0.5-0.8l0.8-0.8l1.4-0.9l0.9-0.4l1.5-0.3l1.3,0l1.5,0.3l1.1,0.4l1.5,1
	l0.8,0.9l0.9,1.2l0.5,1.1l0.3,1.1c0,0-0.1,1,0,1.1c0,0.1-0.1,1.2-0.1,1.2l-0.4,1.4l-0.5,1l-0.5,0.8l-0.8,0.8l-0.9,0.7l-1.1,0.6
	l-1.1,0.3l-1.3,0.1h-1.6L83,78.3L82.2,78l-1-0.6l-1-0.8l-0.8-1l-0.5-1l-0.4-0.9l-0.2-0.9l-0.1-1.2V70.7z"/>
<path class="st3" d="M83.7,88.5l0.1-1.3l0.4-1.2l0.7-1.4l1.1-1.3l0.9-0.8l1.6-0.8l1.4-0.3l1.4,0.1l1.6,0.3l1.1,0.5l1.2,0.8l1,1.1
	l0.8,1.2l0.6,1.3l0.1,1.7c0,0-0.2,1.6-0.1,1.6c0,0.1-0.3,1-0.3,1L96.1,93l-1.3,1.1l-1.4,0.8L92,95.3l-1.6,0.1l-1.5-0.3l-1.5-0.5
	l-1.2-0.9l-1.2-1.2l-0.7-1.2l-0.6-1.6L83.7,88.5z"/>
<path class="st3" d="M76,80.7h-0.7l-0.8,0.2l-0.9,0.3l-0.8,0.4l-0.4,0.4c0,0-0.2,0.3-0.2,0.3c0,0.1-0.1,0.5-0.1,0.5v0.4
	c0,0,0.2,0.3,0.2,0.4c0,0.1,0.3,0.4,0.3,0.4l0.5,0.2l0.6,0.1h0.4l-0.5,0.3l-0.4,0.4l-0.1,0.4l0,0.4l0.2,0.4l0.2,0.3l0.3,0.3l0.4,0.2
	h0.7h0.6l0.6-0.1l0.7-0.3l0.6-0.3l0.4-0.3l0.2-0.1V85v-0.9l-0.3-0.7l-0.3-0.8l-0.5-0.7l-0.4-0.7L76,80.7z"/>
<path class="st2" d="M75.9,80.4l-0.2-0.7v-0.8v-0.7l0.3-0.6l0.3-0.3l0.6-0.3h0.6l0.6,0.2l0.6,0.3l0.6,0.4l0.5,0.5l0.6,0.6l0.3,0.4
	c0,0-0.2,0.7-0.2,0.8c0,0.1,0,0.8,0,0.9c0,0.1,0.1,0.8,0.2,0.9c0.1,0.1,0.3,0.7,0.3,0.8c0.1,0.1,0.3,0.6,0.4,0.7
	c0.1,0.1,0.4,0.4,0.5,0.4c0.1,0.1,0.4,0.3,0.4,0.3l-0.1,0.7l-0.2,0.9l-0.2,0.7l-0.2,0.6l-0.3,0.5L81,88l-0.5,0.4l-0.7,0.2h-0.6
	l-0.5-0.3L78.3,88L78,87.4l-0.1-0.7v-0.5l0-0.8l0-0.6l-0.1-0.5l-0.1-0.5l-0.3-0.8l-0.7-1L76.3,81L75.9,80.4z"/>
<polyline class="st1" points="62,68.3 62.9,68.1 62.9,69.3 62.4,70.2 61.7,69.8 62.2,69.4 62.1,68.7 62,68.3 "/>
<path class="st4" d="M90.7,61c0.1,0,1.3-0.7,1.3-0.7l0.9-0.7l0.7-0.6l0.5-0.7l1-0.4l1.9-1l1.6-0.6l1.8-0.9l1.4-0.7l1.6-0.8l0.9-0.3
	l0.5,0.8c0,0,0.6,1.2,0.6,1.3c0,0.1,0.2,1.2,0.2,1.2v1.4l0.2,1.4l-0.2,1.1l-0.4,1l-0.3,0.7c0,0-0.7,0.3-0.8,0.4c-0.1,0.1-2,0-2,0
	l-2.3,0l-2-0.2l-1.7,0.1l-1.3,0l-0.9,0l-0.8-0.5l-1.2-0.7l-0.8-0.3L90.7,61z"/>
<path class="st5" d="M94.5,57.7l1-1.3l1.8-2.1l1.6-2l8.2-9.3l1.3,0.8l1,1.3c0,0,0.7,1.3,0.8,1.4c0.1,0.1,0.5,1.3,0.5,1.3
	c0,0.1,0.1,1,0.1,1.1c0,0.1,0,1,0,1l-0.3,0.5l-1.1,0.7c0,0-1,0.3-1.1,0.4c0,0.1-1.4,0.8-1.4,0.8l-2.3,0.9l-1.7,0.9l-1.4,0.7
	l-2.1,0.9l-3.1,1.4L94.5,57.7z"/>
<path class="st6" d="M89.3,51.9l0.6,1.4l0.9,2l0.7,1.7c0,0,0.5,1.2,0.6,1.3c0.1,0.1,0.4,1.1,0.4,1.1l0.1,0.3l1.9-2.2l12.5-14.5
	l6.4-7.7l-0.3-0.8l-0.9-1.5l-0.9-1.5l-1-1.4l-1-1.6l-0.6,0.5L96.4,43.7L89.3,51.9z"/>
<path class="st7" d="M84,43.7l23.6-19.3l-0.5-2.2l-0.8-1.5l-0.5-0.6l-0.8-0.3l-0.7,0.2l-0.8,0.4L80.3,37c0,0,1.4,2,1.4,2.1
	c0,0.1,0.8,1.5,0.8,1.5l0.7,1.6L84,43.7z"/>
<polygon class="st8" points="71.8,35.4 75.9,32.7 81.4,29 100.3,17.5 106.2,14.4 106,12.1 105.6,9.9 105.2,8.5 104.3,7.1 100,9.5 
	78.8,22.8 69.7,28.6 69.8,30 70.4,32 70.7,33.3 71.1,34.6 "/>
<polygon class="st9" points="35.9,31.7 43.4,26.5 55.8,18.7 72,9.4 76.7,6.8 82.6,6.5 95.5,5.9 101.6,5.6 104.1,5.9 104.7,6.4 
	104.3,6.7 82.5,20.5 70.1,28.2 69.5,28.6 61.3,28.4 53.8,28.8 46.5,29.7 "/>
<path class="st3" d="M35.7,32.2L35.3,33c0,0,0.3,0.9,0.2,1c-0.1,0.1,0.4,1.2,0.4,1.2l0.8,0.5l1.6-0.3l15.2-0.8l17.6,0.1l-1.6-5.8
	l-12.3-0.3l-10.1,1.2c0,0-6.1,0.8-6.1,0.9c0.1,0.1-3.7,0.8-3.7,0.8L35.7,32.2z"/>
<polygon class="st10" points="50.3,35.2 43,40.6 42.8,41.1 47,41.1 66.2,39.1 72.4,38.2 80.3,37.1 92.4,28.8 102.1,21.7 103.7,20.4 
	101.7,20.4 97.1,21 93,21.9 82,28.6 71.9,35.4 71.4,35 71.1,34.7 56.8,34.5 50.7,34.7 "/>
<polygon class="st11" points="42.8,41.7 43.8,47.2 55.5,46.2 72.7,44.1 79.7,43.5 83.6,43.5 82.6,40.7 80.4,37.2 77.3,37.4 
	59.9,39.8 47.6,41.1 42.7,41.1 "/>
<path class="st12" d="M39.8,51.6l-0.3,1.7c0,0,0.2,2,0.2,2.1c0,0.1,0.7,1.5,0.7,1.5l0.4,0.4l6.7-7.2l-0.7-0.2L39.8,51.6z"/>
<linearGradient id="SVGID_1_" gradientUnits="userSpaceOnUse" x1="39.9419" y1="43.3896" x2="109.269" y2="43.3896">
	<stop  offset="0" style="stop-color:#FEE994"/>
	<stop  offset="0" style="stop-color:#E27C63"/>
	<stop  offset="0.4624" style="stop-color:#F9DD8C"/>
	<stop  offset="0.9843" style="stop-color:#F26D60"/>
</linearGradient>
<polygon class="st13" points="50.2,46.9 39.9,58.5 42.7,57.9 49,57.4 59,56.1 68.8,54.8 76.3,54 88.6,52.5 101.8,37.3 109.3,28.8 
	108.6,28.3 106.6,28.5 101.9,29.5 84,43.6 83.1,43.5 77,43.7 65.9,44.9 "/>
<path class="st14" d="M39.4,58.8l-0.7,1.1L38.3,61v1.6l0.6,2.3l0.3,0.6l-0.1,1.2l0.5,1.8l0.9,2.2l2.9-0.3l1.4-0.2l0.6,0.4l0.8-0.6
	l-0.9-0.9l-0.6-1.2l-0.4-1.2L44,65.6v-0.9l0.4-0.6l0.4-0.1l0.6,0.1l0.3,0l0.6-0.1l0.5,0.3l0.8,0.7l0.5,1.1l0.2,1.3l0,1.4v1l0.1,0.4
	l5.3-0.7l4.9-0.5l-0.9-1l-0.7-1.2l-0.3-1.2l0.1-1.3l0.5-0.8l0.6-0.4l0.8-0.1l0.8,0.3l1,0.8l0.6,0.9l0.7,1.2l0.3,0.9l0.2,1.1
	c0,0,1.4-0.1,1.4-0.1c0,0,3.7-1,3.7-1l3.6-0.7l3.5-0.8l11.7-2.9l4.7-1.7l1.5-1l0.2-1c0,0-1.7-3.9-1.7-3.9c0,0-1.4-2.9-1.4-2.9
	l-0.6,0.3l-28.2,3.5l-15.8,1.9L42.3,58l-2,0.4L39.4,58.8z"/>
<g>
	<defs>
		<rect id="SVGID_2_" x="0" y="-14.9" width="148.4" height="163.2"/>
	</defs>
	<clipPath id="SVGID_3_">
		<use xlink:href="#SVGID_2_"  style="overflow:visible;"/>
	</clipPath>
	<path class="st15" d="M60.7,121c3-0.4,6.2-0.8,8.9-2.4c2.4-1.4,3.9-3.7,5.2-6.1c1.6-2.8,3.5-5.1,6.5-6.5c3.2-1.5,6.8-1.9,10.1-3.1
		c4.8-1.7,9-4.8,11.1-9.6c2.5-5.8,1.9-12.6-0.5-18.4c-1.4-3.4-3.5-6.5-5.6-9.5c-1.4-2-3.8-5.2-6.6-4.6c-0.5,0.1-0.3,0.8,0.2,0.7
		c3-0.7,5.6,3.9,6.9,5.9c1.8,2.7,3.5,5.4,4.7,8.4c2.2,5.7,2.6,12.4-0.2,18c-2.4,4.7-7,7.4-11.9,8.9c-5,1.5-10.2,2.2-13.6,6.5
		c-1.8,2.3-2.8,5.3-5,7.3c-2.7,2.6-6.8,3.1-10.3,3.6C60.2,120.3,60.2,121,60.7,121"/>
	<path class="st15" d="M30.9,99.7c1.2,5.1,4.4,9.5,7.8,13.3c3.5,3.9,7.7,7.1,13,8.1c0.5,0.1,0.7-0.6,0.2-0.7
		c-5.2-0.9-9.2-4-12.7-7.9c-3.4-3.8-6.5-8-7.6-13C31.5,99,30.7,99.2,30.9,99.7"/>
	<path class="st15" d="M45.8,69.8c-8.5,5.5-14.8,14.6-15.4,24.9c0,0.5,0.7,0.5,0.7,0c0.6-10,6.7-18.9,15-24.2
		C46.5,70.2,46.2,69.5,45.8,69.8"/>
	<path class="st15" d="M80.4,79.2c0,0.1,0.1,0.1,0.1,0.2c0.1-0.1,0.2-0.1,0.3-0.2c-0.3-0.3-0.5-0.7-0.9-1c-0.4-0.4-0.9-0.7-1.4-0.9
		c-0.6-0.3-1.5-0.5-2.1-0.2c-0.8,0.5-1,1.7-0.9,2.5c0.2,1.7,1.7,2.8,2.1,4.4c0.4,1.6-0.5,4.8,2.2,4.6c2.2-0.2,2.6-3.1,2.7-4.8
		c0-0.2-0.4-0.2-0.4,0c-0.1,1.5-0.6,5.2-3,4.4c-1.7-0.6-0.9-3.2-1.3-4.6c-0.3-0.8-0.8-1.5-1.2-2.2c-0.6-1-1.4-3.1-0.1-4
		c0.8-0.5,1.9,0.2,2.5,0.6c0.6,0.4,0.9,1,1.4,1.4c0.2,0.1,0.4,0,0.3-0.2c0-0.1-0.1-0.1-0.1-0.2C80.6,78.8,80.3,79,80.4,79.2"/>
	<path class="st15" d="M77.7,85.8c-0.8,0.6-1.9,1.1-2.9,1.1c-0.6,0-1.4-0.3-1.5-1c-0.1-0.8,0.4-1.1,0.8-1.5c0.2-0.2-0.1-0.4-0.3-0.3
		c-0.4,0.4-0.9,0.7-1,1.3c-0.1,0.6,0.3,1.1,0.7,1.5c1.2,1,3.3,0,4.3-0.8C78,86,77.9,85.7,77.7,85.8"/>
	<path class="st16" d="M92.7,95.2c3.7-1.1,5.9-5,4.8-8.7c-1.1-3.7-5-5.9-8.7-4.8c-3.7,1.1-5.9,5-4.8,8.7
		C85,94.1,88.9,96.2,92.7,95.2z"/>
	<path class="st16" d="M87,78.3c3.7-1.1,5.9-5,4.8-8.7c-1.1-3.7-5-5.9-8.7-4.8c-3.7,1.1-5.9,5-4.8,8.7C79.4,77.2,83.3,79.4,87,78.3z
		"/>
	<path class="st15" d="M82.9,84.7c0.9-0.3,1.3-1.8,0.8-3.5c-0.5-1.7-1.6-2.8-2.6-2.5c-0.9,0.3-1.3,1.8-0.8,3.5
		C80.8,83.9,82,85,82.9,84.7"/>
	<path class="st15" d="M91.5,84.3c-0.4-1.2-1.6-1.9-2.9-1.6c-1.2,0.4-1.9,1.6-1.6,2.9c0.4,1.2,1.6,1.9,2.9,1.6
		C91.2,86.8,91.9,85.5,91.5,84.3 M88.1,86.2c-0.1-0.3,0.1-0.7,0.4-0.8c0.3-0.1,0.7,0.1,0.8,0.4c0.1,0.3-0.1,0.7-0.4,0.8
		C88.6,86.8,88.2,86.6,88.1,86.2"/>
	<path class="st15" d="M86,67.3c-0.4-1.2-1.6-1.9-2.9-1.6c-1.2,0.4-1.9,1.6-1.6,2.9c0.4,1.2,1.6,1.9,2.9,1.6
		C85.7,69.8,86.4,68.5,86,67.3 M82.7,69.2c-0.1-0.3,0.1-0.7,0.4-0.8c0.3-0.1,0.7,0.1,0.8,0.4c0.1,0.3-0.1,0.7-0.4,0.8
		C83.1,69.8,82.8,69.6,82.7,69.2"/>
	<path class="st15" d="M77.4,83.2c-1,0.5-5.8,1.9-5-0.7c0.4-1.3,2.6-1.6,3.7-1.6c0.2,0,0.2-0.4,0-0.4c-1.5,0-4.4,0.6-4.1,2.6
		c0.4,2.4,4.3,1,5.6,0.4C77.8,83.4,77.6,83,77.4,83.2"/>
	<path class="st15" d="M103.4,90.1c2.6,1.8,5.1,4.9,3.2,8.1c-1.7,2.9-5.8,4.2-8.4,1.6c-0.3-0.3-0.9,0.2-0.5,0.5
		c2.8,2.8,7.3,1.7,9.3-1.4c2.4-3.7-0.2-7.3-3.3-9.5C103.4,89.2,103,89.8,103.4,90.1"/>
	<path class="st15" d="M29.4,94.5c2.6,0.6,1.7,3.6,2.3,5.5c0.1-0.1,0.2-0.1,0.3-0.2c-2.2-1.2-7,0.5-8.1-2.3
		c-1.5-3.8,4.4-3.2,6.4-2.8c0.2,0,0.3-0.3,0.1-0.4c-2-0.4-6.8-1.2-7,1.9c-0.4,4.5,6.2,2.5,8.5,3.8c0.1,0.1,0.3-0.1,0.3-0.2
		c-0.6-2.1,0.3-5.2-2.5-5.8C29.2,94.1,29.1,94.5,29.4,94.5"/>
	<path class="st15" d="M23.8,97.2c0.5-1.3,2-1.5,3.2-1.3c0.2,0,0.3-0.3,0.1-0.4c-1.5-0.3-3.1,0-3.7,1.5
		C23.4,97.4,23.7,97.5,23.8,97.2"/>
	<path class="st15" d="M57.1,123.4c-1.6-0.3-2.7-1.4-4.2-2c-0.8-0.3-1.2-0.6-0.7-1.8c0.3-0.7,1.1-1.7,1.8-2c1.9-0.9,4,0.3,5.2,1.8
		c0.7,0.9,1.2,2.2,0.4,3.3C59.1,123.5,57.8,123.5,57.1,123.4c-0.3,0-0.3,0.3,0,0.4c1.7,0.2,3.7-0.6,3.4-2.7
		c-0.3-2.1-2.6-3.9-4.6-4.1c-1.2-0.1-2.2,0.4-3,1.2c-0.6,0.6-1.4,1.7-1.3,2.6c0.1,0.8,0.7,0.8,1.3,1c1.4,0.6,2.6,1.6,4.2,1.9
		C57.2,123.9,57.3,123.5,57.1,123.4"/>
	<path class="st15" d="M56.7,120.3c1.1,0.6,2.2,1.5,2.7,2.7c0.1,0.2,0.4,0.1,0.4-0.1c-0.5-1.3-1.6-2.3-2.8-2.9
		C56.7,119.8,56.5,120.2,56.7,120.3"/>
	<path class="st15" d="M60.7,69.7c-0.4-0.4-1.1-0.5-1.6-0.7c-1.1-0.6-2.1-1.8-2.4-3c-0.4-1.8,0.9-3.7,2.8-2.4c1.1,0.7,1.6,2,2.1,3.2
		c0.1,0.2,0.4,0,0.3-0.2c-0.6-1.4-1.4-3.1-3-3.7c-1-0.3-1.8,0-2.3,0.9c-0.7,1.2-0.4,2.7,0.3,3.8c0.4,0.6,0.9,1.1,1.5,1.5
		c0.6,0.4,1.4,0.5,1.9,0.9C60.6,70.1,60.9,69.8,60.7,69.7"/>
	<path class="st15" d="M58.9,65.5c-0.7-0.6-1.4-1.7-0.5-2.5c0.2-0.2-0.1-0.4-0.3-0.3c-1.1,0.9-0.4,2.2,0.5,3
		C58.8,65.9,59,65.6,58.9,65.5"/>
	<path class="st15" d="M104,96.9c0.8-0.5,1-1.6,0.4-2.4c-0.5-0.8-1.6-1-2.4-0.4c-0.8,0.5-1,1.6-0.4,2.4
		C102.2,97.3,103.2,97.5,104,96.9"/>
	<path class="st15" d="M46.5,70.1c-1-0.8-1.7-1.9-2.1-3.1c-0.1-0.4-0.3-0.9-0.3-1.4c-0.1-0.7,0.3-1.7,1.2-1.4
		c0.2,0.1,0.3-0.3,0.1-0.4c-1.3-0.5-1.8,0.5-1.7,1.7c0.1,1.8,1.1,3.6,2.5,4.7C46.4,70.5,46.7,70.2,46.5,70.1"/>
	<path class="st15" d="M45.9,65.6c-0.1-0.2-0.3-0.6-0.2-0.9c0.1-0.5,0.6-0.6,1-0.3c0.5,0.3,0.7,0.9,0.9,1.4c0.3,0.9,0.5,1.8,0.4,2.7
		c0,0.2,0.4,0.2,0.4,0c0.1-1.4-0.2-3.4-1.3-4.4c-0.4-0.3-1-0.6-1.4-0.3c-0.5,0.4-0.2,1.3,0,1.8C45.6,65.9,46,65.8,45.9,65.6"/>
	<path class="st15" d="M40.9,71.2c1.4-0.2,2.7-0.5,4.1-0.7c0.5-0.1,0.3-0.8-0.2-0.7c-1.4,0.2-2.7,0.5-4.1,0.7
		C40.2,70.5,40.4,71.3,40.9,71.2"/>
	<path class="st15" d="M49,70.4c2.7-0.5,5.4-0.8,8.1-1c0.5,0,0.5-0.8,0-0.7c-2.8,0.2-5.5,0.6-8.3,1.1C48.4,69.8,48.6,70.5,49,70.4"
		/>
	<path class="st15" d="M74.6,65.1c-4.1,0.8-8.2,1.7-12.2,2.7l0,0c-0.1,0.1-0.2,0.1-0.4,0.1c0.1,0.3,0.1,0.5,0,0.8c0,0,0.1,0,0.1,0
		c4.2-1.1,8.4-2,12.6-2.8C75.3,65.7,75.1,65,74.6,65.1z"/>
	<path class="st15" d="M73.8,65.9c5.3-1.5,10.8-2.4,15.9-4.3c1.2-0.5,3.4-0.8,3.1-2.4c-0.2-1.2-0.9-2.5-1.4-3.6
		c-0.6-1.3-1.2-2.6-1.9-3.9c-0.2-0.4-0.9,0-0.6,0.4c1.1,2.1,2.1,4.3,2.9,6.6c0.3,0.9,0.3,1-0.4,1.5c-0.5,0.4-1.3,0.5-1.9,0.8
		c-1,0.4-2,0.7-3,1c-4.2,1.3-8.6,2.1-12.9,3.3C73.1,65.3,73.3,66,73.8,65.9"/>
	<path class="st15" d="M40.9,70.7c-0.5-1.2-1.4-2.8-1.4-4.1c0-1.1,0.7-1.3,1.6-1.6c0.7-0.2,1.4-0.4,2.1-0.5c0.5-0.1,0.3-0.8-0.2-0.7
		c-1.2,0.2-4,0.6-4.3,2c-0.2,0.8,0.2,1.7,0.4,2.4c0.3,1,0.7,2,1.1,3C40.5,71.5,41.1,71.2,40.9,70.7"/>
	<path class="st15" d="M39.7,65.8C39,64.1,37.9,61.7,39,60c1.3-2,5-1.7,7-2c4.7-0.6,9.4-1.1,14.1-1.7c9.4-1.1,18.8-2.3,28.3-3.4
		c0.5-0.1,0.5-0.8,0-0.7c-11,1.3-22,2.6-33,4c-2.7,0.3-5.5,0.7-8.2,1c-2.2,0.3-4.9,0.2-7,1c-3.5,1.4-2.4,5.4-1.2,8
		C39.3,66.6,39.9,66.2,39.7,65.8"/>
	<path class="st15" d="M88.9,52.8c6.9-8,13.9-16,20.8-23.9c-0.2,0-0.4,0-0.6-0.1c0.9,1.4,1.7,2.7,2.6,4.1c0.4,0.6,1,1.3,1.2,1.9
		c0.3,0.9-0.5,1.4-1,2.1c-2.2,2.5-4.3,5.1-6.5,7.6c-4.3,5.1-8.7,10.1-13,15.2c-0.3,0.4,0.2,0.9,0.5,0.5c7-8.2,14-16.4,21-24.6
		c0.1-0.1,0.2-0.3,0.1-0.4c-1.4-2.2-2.8-4.5-4.3-6.7c-0.1-0.2-0.4-0.3-0.6-0.1c-6.9,8-13.9,16-20.8,23.9
		C88.1,52.6,88.6,53.1,88.9,52.8"/>
	<path class="st15" d="M38.5,60.2c4.3-4.1,8.3-8.5,12-13.2c0.3-0.4-0.2-0.9-0.5-0.5c-3.7,4.7-7.7,9.1-12,13.2
		C37.6,60,38.1,60.5,38.5,60.2"/>
	<path class="st15" d="M109.2,29.2c0.8-0.2,0.5-1-0.2-1.2c-0.8-0.2-2.2,0.2-3,0.4c-1.4,0.2-2.8,0.5-4.1,0.9
		c-0.5,0.1-0.3,0.8,0.2,0.7c1.1-0.3,2.2-0.6,3.4-0.8c0.6-0.1,1.2-0.2,1.8-0.3c0.3,0,0.7-0.1,1-0.1c0.4,0.1,0.6,0,0.8-0.3
		C108.5,28.6,108.7,29.3,109.2,29.2"/>
	<path class="st15" d="M42.4,41c0.3,2.2,0.6,4.4,1,6.5c0,0.1,0.2,0.3,0.4,0.3c6.7-0.8,13.3-1.5,20-2.3c6.6-0.8,13.3-2,19.9-1.6
		c0.2,0,0.4-0.2,0.4-0.5c-0.7-2.5-1.8-4.7-3.4-6.6c-0.3-0.4-0.8,0.2-0.5,0.5c1.5,1.9,2.6,4,3.2,6.3c0.1-0.2,0.2-0.3,0.4-0.5
		c-3.9-0.2-7.8,0.2-11.7,0.7c-3.8,0.4-7.6,0.9-11.5,1.3c-3.8,0.4-7.6,0.9-11.5,1.3c-1,0.1-2,0.2-2.9,0.3c-0.4,0-0.8,0.1-1.2,0.1
		c-0.9,0-0.8,0.1-1-0.7c-0.4-1.7-0.5-3.7-0.8-5.5C43,40.3,42.3,40.5,42.4,41"/>
	<path class="st15" d="M80.1,37.6c4.7-3,9.3-6.1,13.8-9.4c2.3-1.6,4.5-3.3,6.7-5c0.9-0.7,1.8-1.4,2.7-2.1c1.2-0.9,2.1-0.9,2.9,0.4
		c0.5,0.8,0.7,1.7,0.8,2.6c0,0.5,0.8,0.5,0.7,0c-0.1-1.5-1-4.8-3.1-4.6c-1.2,0.1-2.6,1.7-3.5,2.4c-1.4,1.1-2.8,2.1-4.2,3.2
		c-5.6,4.2-11.3,8.1-17.2,11.9C79.3,37.2,79.7,37.8,80.1,37.6"/>
	<path class="st15" d="M83.9,44.1c8.2-6.3,16.1-12.7,24-19.4c0.4-0.3-0.2-0.8-0.5-0.5c-7.8,6.6-15.7,13.1-23.8,19.3
		C83.2,43.8,83.6,44.4,83.9,44.1"/>
	<path class="st15" d="M42.6,41.7c12.6-0.8,25.1-2.3,37.6-4.4c0.5-0.1,0.3-0.8-0.2-0.7c-12.4,2.1-24.9,3.5-37.4,4.3
		C42.1,41,42.1,41.7,42.6,41.7"/>
	<path class="st15" d="M43.1,40.8c2.5-1.7,4.9-3.5,7.3-5.3c0.4-0.3,0-0.9-0.4-0.6c-2.4,1.8-4.9,3.6-7.3,5.3
		C42.3,40.4,42.7,41.1,43.1,40.8"/>
	<path class="st15" d="M37,35.9c11.4-1,22.9-1.2,34.4-0.8c0.5,0,0.5-0.7,0-0.7c-11.5-0.4-22.9-0.1-34.4,0.8
		C36.5,35.2,36.5,35.9,37,35.9"/>
	<path class="st15" d="M71.8,35.2c-0.7-1.6-1.2-3.3-1.6-5.1c-0.1-0.6-0.3-0.9,0-1.5c0.2-0.3,0.9-0.6,1.2-0.8c0.8-0.5,1.7-1,2.5-1.6
		c3.4-2.1,6.8-4.3,10.2-6.4c6.8-4.3,13.6-8.5,20.4-12.8c0.4-0.3,0-0.9-0.4-0.6C92.5,13.8,80.9,21,69.3,28.3
		c-0.2,0.1-0.2,0.3-0.2,0.4c0.4,2.3,1,4.5,1.9,6.6C71.2,35.8,71.9,35.6,71.8,35.2"/>
	<path class="st15" d="M72,35.7C82.8,28.2,94,21.3,105.6,15c0.4-0.2,0-0.9-0.4-0.6c-11.5,6.3-22.8,13.3-33.6,20.7
		C71.2,35.4,71.6,36,72,35.7"/>
	<path class="st15" d="M105,19.8c-4.4,0.2-8.8,0.8-13.1,1.8c-0.5,0.1-0.3,0.8,0.2,0.7c4.2-1,8.5-1.6,12.9-1.8
		C105.5,20.5,105.5,19.8,105,19.8"/>
	<path class="st15" d="M36.9,35.6c-0.8-0.8-2.2-2.2-0.5-3.4c0.6-0.4,1.5-0.5,2.2-0.6c1.5-0.4,2.9-0.7,4.4-1c3-0.6,6.1-1,9.1-1.3
		c5.9-0.6,11.8-0.6,17.7-0.2c0.5,0,0.5-0.7,0-0.7c-7.4-0.6-14.9-0.3-22.3,0.8c-3.6,0.5-7.4,1-10.8,2.2c-2.7,0.9-1.9,3.2-0.3,4.8
		C36.7,36.4,37.2,35.9,36.9,35.6"/>
	<path class="st15" d="M49.3,64.6c1.9-0.3,3.8-0.5,5.8-0.6c0.5,0,0.5-0.8,0-0.7c-2,0.1-4,0.4-6,0.7C48.6,63.9,48.8,64.6,49.3,64.6"
		/>
	<path class="st15" d="M62.4,63.5c6.9-1.8,13.8-3.9,20.8-5.2c0.5-0.1,0.3-0.8-0.2-0.7c-7,1.3-13.9,3.4-20.8,5.2
		C61.8,62.9,61.9,63.6,62.4,63.5"/>
	<path class="st15" d="M39.9,63.4c8-1.5,16-2.8,24.1-3.8c0.5-0.1,0.5-0.8,0-0.7c-8.1,1-16.2,2.3-24.3,3.8
		C39.2,62.8,39.4,63.5,39.9,63.4"/>
	<path class="st15" d="M44.1,46.1c10.5-0.9,21-2.3,31.5-4.1c0.5-0.1,0.3-0.8-0.2-0.7C65,43,54.6,44.4,44.1,45.3
		C43.7,45.4,43.7,46.1,44.1,46.1"/>
	<path class="st15" d="M49.1,43.9c6.4-0.9,12.8-1.6,19.2-2.1c0.5,0,0.5-0.8,0-0.7c-6.5,0.5-13,1.2-19.4,2.2
		C48.4,43.2,48.6,43.9,49.1,43.9"/>
	<path class="st15" d="M44.1,33.8c6.2-0.3,12.4-0.5,18.6-0.4c0.5,0,0.5-0.7,0-0.7c-6.2-0.1-12.4,0.1-18.6,0.4
		C43.7,33,43.6,33.8,44.1,33.8"/>
	<path class="st15" d="M104.2,7.5c1.3,2.2,1.8,4.7,1.5,7.2c-0.1,0.4,0.6,0.5,0.7,0.1c0.1-0.2,0.2-0.4,0.2-0.6
		c0.2-0.4-0.5-0.6-0.7-0.2c-0.1,0.2-0.2,0.4-0.2,0.6c0.2,0,0.5,0.1,0.7,0.1c0.3-2.7-0.2-5.3-1.6-7.6C104.6,6.7,103.9,7.1,104.2,7.5"
		/>
	<path class="st15" d="M111,47.5c-0.5-1.9-1.7-3.5-3.4-4.6c-0.4-0.3-0.8,0.4-0.4,0.6c1.8,1.2,3,3,3.2,5.2c0.2,1.6-1,2-2.2,2.5
		c-1.1,0.5-2.1,1-3.2,1.5c-3.7,1.7-7.4,3.4-11,5.2c0,0.3-0.1,0.7-0.2,0.9l15.6-7.3c0.7-0.3,1.5-0.6,1.8-1.4
		C111.4,49.3,111.2,48.2,111,47.5z"/>
	<path class="st15" d="M93.5,62.8c2.3,0.2,4.7,0.3,7,0.3c1.3,0,3.5,0.6,4.5-0.5c1-1,1.2-3,1.1-4.3c0-1.7-0.5-3.3-1.4-4.7
		c-0.2-0.4-0.9,0-0.6,0.4c0.8,1.3,1.3,2.8,1.3,4.3c0,1.6-0.3,4.1-2.3,4.1c-3.2,0-6.5-0.2-9.7-0.4C93,62,93.1,62.8,93.5,62.8"/>
	<path class="st15" d="M39.2,52c-0.5,1.8-0.2,3.6,0.8,5.1c0.3,0.4,0.9,0,0.6-0.4c-1-1.4-1.2-3-0.8-4.6C40,51.8,39.3,51.6,39.2,52"/>
	<path class="st15" d="M39.6,52c2.4-0.6,4.8-1.2,7.2-1.8c0.5-0.1,0.3-0.8-0.2-0.7c-2.4,0.6-4.8,1.2-7.2,1.8
		C39,51.4,39.1,52.2,39.6,52"/>
	<path class="st15" d="M46.9,50.4h0.3c0.5,0,0.5-0.7,0-0.7h-0.3C46.5,49.7,46.5,50.4,46.9,50.4"/>
	<path class="st15" d="M35.3,32.4c13.3-9.3,27.2-17.8,41.6-25.3c0.4-0.2,0-0.9-0.4-0.6C62.2,14,48.3,22.5,35,31.8
		C34.6,32.1,34.9,32.7,35.3,32.4"/>
	<path class="st15" d="M76.7,7.3c4.6-0.3,9.2-0.6,13.8-0.8c2.3-0.1,4.5-0.2,6.8-0.3c0.8,0,7.1-0.6,7.1,0.5c0,0.5,0.7,0.5,0.7,0
		c0.1-1.6-2.1-1.4-3.1-1.4c-2.7,0.1-5.5,0.2-8.2,0.3c-5.7,0.2-11.4,0.6-17,1C76.2,6.6,76.2,7.3,76.7,7.3"/>
	<path class="st15" d="M70.5,30.6c3.7-3,7.6-5.6,11.8-7.9c0.4-0.2,0-0.9-0.4-0.6c-4.2,2.3-8.2,5-11.9,8.1
		C69.6,30.3,70.2,30.9,70.5,30.6"/>
	<path class="st15" d="M70.8,32.8c0.8-0.5,1.5-1,2.3-1.5c0.4-0.3,0-0.9-0.4-0.6l-2.3,1.5C70,32.4,70.4,33.1,70.8,32.8"/>
	<path class="st15" d="M104.8,9c-3,1.8-6,3.5-8.9,5.3c-0.4,0.2,0,0.9,0.4,0.6l8.9-5.3C105.6,9.4,105.3,8.8,104.8,9"/>
	<path class="st15" d="M105.1,11.8c-0.7,0.4-1.4,0.8-2,1.3c-0.4,0.3,0,0.9,0.4,0.6c0.7-0.4,1.4-0.8,2-1.3
		C105.8,12.2,105.5,11.5,105.1,11.8"/>
	<path class="st15" d="M85.8,23.6l5.9-3.6c0.4-0.2,0-0.9-0.4-0.6c-2,1.2-3.9,2.4-5.9,3.6C85,23.2,85.4,23.8,85.8,23.6"/>
	<path class="st15" d="M84.3,37.8c6.7-4.2,13.2-8.6,19.7-13.1c0.4-0.3,0-0.9-0.4-0.6c-6.5,4.5-13,8.9-19.7,13.1
		C83.5,37.4,83.9,38.1,84.3,37.8"/>
	<path class="st15" d="M90.2,36.4c1.6-1,3.2-2.2,4.6-3.4c0.4-0.3-0.2-0.8-0.5-0.5c-1.4,1.2-2.9,2.3-4.5,3.3
		C89.4,36,89.8,36.7,90.2,36.4"/>
	<path class="st15" d="M66.6,59.3c1.9-0.6,3.9-1,5.9-1.3c0.5-0.1,0.3-0.8-0.2-0.7c-2,0.3-3.9,0.7-5.9,1.3
		C66,58.7,66.2,59.4,66.6,59.3"/>
	<path class="st15" d="M71.9,117c1,0.9,2.8,0.8,3.5-0.4c0.8-1.3,0-3-1.4-3.4c-0.2-0.1-0.3,0.3-0.1,0.4c1.1,0.3,1.8,1.8,1.2,2.8
		c-0.6,1-2.1,1.1-3,0.4C72,116.6,71.7,116.9,71.9,117"/>
	<path class="st17" d="M71.9,12.2c0.8-0.4,1.6-0.8,2.5-1.2c0.2-0.1,0.9-0.5,1.1-0.3c0,0-0.4,1.5-0.4,1.6c0,0.1,0.1,0.3,0.2,0.2
		c0.8-0.2,1.6-0.4,2.4-0.6c0.7-0.2,1.6-0.9,1.5,0.2c0,0.1,0.1,0.2,0.2,0.2c0.7-0.1,1.4-0.2,2.1-0.5c0.7-0.2,1.2-0.7,1.1,0.2
		c0,0.4-0.3,0.8,0.1,1.2c0.5,0.4,1.1,0.1,1.6-0.1c1.4-0.4,2.7-0.9,4.1-1.4c0.2-0.1,0.1-0.4-0.1-0.4c-1.3,0.4-2.6,0.9-3.9,1.3
		c-0.7,0.2-1.5,0.4-1.4-0.5c0-0.3,0.2-0.7,0.2-1.1c0-0.1-0.1-0.2-0.2-0.2c-0.8,0.3-3.4,1.6-3.3,0.2c0-0.1-0.1-0.2-0.2-0.2
		c-0.9,0.4-1.9,0.7-2.8,1c-0.3,0.1-0.7,0.3-1,0c-0.1-0.1,0.4-1.4,0.4-1.6c0-0.1-0.1-0.3-0.2-0.2c-1.4,0.6-2.7,1.2-4,1.9
		C71.5,12,71.7,12.3,71.9,12.2"/>
	<path class="st17" d="M67,17c0.5-0.2,1-0.6,1.5-0.7c0.5-0.2,0.7-0.5,0.7,0.3c0,0.1,0.2,0.2,0.3,0.2c1.1-0.5,2.3-0.7,3.4-0.4
		c0.4,0.1,0.8,0.4,1.2,0.5c0.1,0,1,0,1,0c-0.1,0-0.1,0-0.2,0c0,0,0,0-0.1,0c-0.2,0.1,0,0.4,0.2,0.3c-0.1,0.1,0.4,0.2,0.3,0.1
		c0.1,0,0.2,0,0.2-0.1c0,0,0-0.1,0.1-0.1c0-0.1,0-0.1,0-0.2c-0.2-0.3-0.3-0.2-0.6-0.4c-0.6-0.3-1.7-0.6-2.4-0.7
		c-0.5-0.1-1-0.1-1.5,0c-0.8,0.1-1.5,0.9-1.5-0.2c0-0.1-0.2-0.2-0.3-0.2c-0.8,0.4-1.6,0.8-2.5,1.2C66.6,16.8,66.8,17.1,67,17"/>
	<path class="st17" d="M60.7,21.6c0.3-0.2,0.6-0.5,0.9-0.4c0.3,0,0.5,0.4,0.9,0.4c0.7,0,1.4-0.4,2.2-0.4c1.3-0.1,2.5,0.1,3.7,0.6
		c0.2,0.1,0.4-0.2,0.2-0.3c-0.9-0.4-1.7-0.6-2.7-0.7c-0.6,0-3.9,0.6-4.1,0c0-0.1-0.2-0.2-0.3-0.1c-0.3,0.2-0.7,0.5-1,0.7
		C60.3,21.4,60.5,21.7,60.7,21.6"/>
</g>
<polygon class="st18" points="62,66.4 62.2,67.8 62.1,68 61.7,66.2 "/>
<polygon class="st18" points="57.3,68.7 58.2,68.5 59.1,69.1 57.1,69.4 "/>
<polyline class="st18" points="48.4,68.9 48.3,70.1 48,70.2 48.2,69.1 48.4,68.9 "/>
<path class="st18" d="M48,68.5v1.4c0,0-0.3,1.2-1.5,0.1l-0.3,0.3c0,0,1.3,1,1.7,0.2c0,0,0.4-0.2,0.4-1.9"/>
<polygon class="st18" points="48.2,69.9 49,69.7 49,70.4 47.8,70.7 "/>
<path class="st18" d="M61.6,66.6c0,0,0.5,1.5,0.3,1.9c0,0,0.2,1.7-1.3,1.1c0,0-0.4,0.2-0.3,0.3c0.1,0.1,2,0.9,1.8-1.3l-0.3-2H61.6z"
	/>
</svg>
