<?xml version="1.0" encoding="utf-8"?>
<!-- Generator: Adobe Illustrator 24.0.1, SVG Export Plug-In . SVG Version: 6.00 Build 0)  -->
<svg version="1.1" id="Layer_1" xmlns="http://www.w3.org/2000/svg" xmlns:xlink="http://www.w3.org/1999/xlink" x="0px" y="0px"
	 viewBox="0 0 141.7 141.7" style="enable-background:new 0 0 141.7 141.7;" xml:space="preserve">
<style type="text/css">
	.st0{fill:#75CEEB;}
	.st1{fill:#C9B09D;}
	.st2{fill:#FFFFFF;}
	.st3{fill:#AEBA63;}
	.st4{fill:#683A15;}
	.st5{fill:#D85B27;}
	.st6{fill:#FBBB51;}
	.st7{fill:#FDEB07;}
	.st8{fill:#85934C;}
	.st9{fill:#888F4C;}
	.st10{fill:#231F20;}
	.st11{fill:#070707;}
	.st12{fill:none;stroke:#070707;stroke-width:0.4543;stroke-miterlimit:10;}
	.st13{fill:none;stroke:#070707;stroke-width:0.3029;stroke-miterlimit:10;}
</style>
<path class="st0" d="M28.3,100l-1.2-6.1c0,0-1.5-9.3,2-16.4c0,0-5.4-1.7-1.7-5.3c0,0,3-3,4.9-0.4l4-2.7c0,0,4.7-2.8,9.5-3h0.3
	c0,0,2.1-6.1,5.9-3.3c0,0,1.9,2.6,0.8,4.5c0,0,6.4,3.3,6.1,8.9c-0.3,5.6,0.7,7.9,0.8,8.2c0.1,0.3,0.9,7.7,0.9,7.7v5.1l0.2,7.6
	l-0.6,1.2l-1.6,0.3l-5.5,0.4l-2.5,0.6c0,0-2.7-0.4-3.3-1.7l-1.5-1.9l0.5,3.3c0,0-0.8-1.3-1.4-1.4c-0.6-0.1-0.2,0.2-0.2,0.2l0.2,0.8
	c0,0-0.5,2-7,0.9l-8.7-0.4l-0.7,0.1L28.3,100z"/>
<path class="st1" d="M52.5,105.6c0,0,0-3.1,3.7-2c0,0,3.5,2.1,2,4.2c0,0-0.9,2-3.8-0.3L52.5,105.6z"/>
<path class="st1" d="M66.3,102.4c0-0.5-0.3-1.3-2.1-2.3l-1.6-0.5L61,100v2.9c0,0,3.1,1.7,4.9,0.2C66,102.9,66.1,102.6,66.3,102.4z"
	/>
<path class="st2" d="M41.2,78c0,0,0.5-7.3,7.6-6.6c0,0,7.4,1.9,5.2,8.6c0,0-1.4,5.1-7.4,4.3C46.6,84.3,41.8,83.5,41.2,78z"/>
<path class="st2" d="M56.8,70.5c0,0,4.9-2.8,6.5,0.3c0,0,2.6,3.1-1.6,6.6l-1.1-0.6L59,76.3l-0.3-2.9L56.8,70.5z"/>
<path class="st1" d="M55.8,79.5c0,0,1-2,1.9-1.9l3.3-0.8c0,0,1.8,1.6,0.3,2.8l-1,0.6l-2.4,0.1l-1.3,0.1L55.8,79.5z"/>
<path class="st2" d="M59.7,82.1c0,0-1,1.1-1.8-0.4v-1.3l1.3-0.2l1-0.2v-0.1l0.4,0.1l-0.2,1.7v0.6C60.5,82.3,59.8,83,59.7,82.1z"/>
<path class="st3" d="M5.7,103.7c0.4,0.1,14.9-1.6,15.2-1.5c0.4,0.2,8.2,1.2,8.2,1.2l0.1,3.9l12.7,0.5l2.4-0.5c0,0,0.7-0.5,0.7-1.7
	c0,0,1.6,1.3,1.6,1.8L46,104c0,0,2.5,4.7,7.2,2.6c0,0,3.4,3,4.5,1.1c0,0,1,0.3,0.8-1.5l2.4-0.7l2.1-0.9l1.1-0.8c0,0,2.5-0.8,1.5-2.4
	l-1.8-1.4l-1.6-0.5H62l-1,0.4l-0.1-9.4l-0.9-5c0,0,12.1-0.3,17.9-0.3c0,0,22.7,1.4,23.7,1.9c0,0,1.7,0.2,2.1,0.3
	c0.4,0.1,2.2-0.7,2.2-0.7s0.4-0.9,0.4-0.5s0,1.3,0,1.3v2.4l27.2,22.2l-2.3-0.4c0,0-1.1,0.5-1.1,0.8s-19.7,8.3-41.3,8.4
	c0,0-30.1,1.2-32,0s-15.5-0.3-27.9-4.2c0,0-9.1-1.7-14.3-4.5c0,0-8-4.1-8.5-8L5.7,103.7z"/>
<path class="st4" d="M65.8,110.4c-0.2,0.2-2.3-1.5,29-0.4c0,0,2.2,1.1,8.3-1.8c0,0,4.8-3,7.4-2.1c0,0-3.9,5.8,2.4,5.3h10.5
	c0,0,5.9-0.1,10,1c0,0-2.9-1.5-2.7-11.1l0.8-9.4l0.6-7.7l0.2-11l0.1-21.6c0,0-1.1,1.2-3.5,1.1c0,0,1,2.9-1,3c0,0-1.5,1.4-3.3-0.4
	l-1.5-1l-1.5,1.2c0,0-1.8,1.9-3.2,0c0,0-1.6,4.7-0.8,12.5l0.4,4.6c0,0-0.5,4-1.4,5.2c0,0,4.1,1.6,0.8,5.1c0,0-4.7,1.3-5.2-0.8
	l-0.6-0.1l-5.2,1.8c0,0,0.6,2-0.6,3.4c0,0,2.5,6-3.6,12.6l-2.8,2.3l-3.2,1.4l-3.6,1.9l-3.1,1.9c0,0-5.5,2.2-11.5,1.3
	C78.3,108.3,68.9,107.4,65.8,110.4z"/>
<path class="st0" d="M92.2,57.7l0.4,10.7l0.7,6.5c0,0-0.3,5.2,6.9,7.7c0,0-1.1,3.7,3.4,5c0,0,4,0,3-4.4l5.2-1.3c0,0,3,2.4,5.3,0.8
	c0,0,3.9-2.5-0.3-5.2l1.2-3.9l-0.2-5l-0.3-6l0.6-7c0,0-3.8,3.2-5.6-0.3l-1,1.8l-1.4,1.8c0,0-6.4,2.6-7.8-2.1L98.4,58l-0.7,3.6
	L97,60.1l-1.9-1.3L94.5,58l-1.3-0.1L92.2,57.7z"/>
<path class="st2" d="M98.4,72.4c0,0,0.9-8.1,9.6-5.4c0,0,6.7,4.3,1.5,10.5c0,0-3.9,4.4-9,0.3C100.6,77.8,98.3,76,98.4,72.4z"/>
<path class="st2" d="M91.1,73.7c0,0-4.1,2.5-1.5,6.6c0,0,1.6,2.6,5.1,0.5l1.2-0.5l-2.2-2.6l-0.4-3.2h-0.7l-0.9-0.3L91.1,73.7z"/>
<path class="st1" d="M95.4,73.3L95.4,73.3c0.5-0.4,2.5-2,0.7-2.8l-2.7,0.4c0,0-2.6-0.2-2.6,1.7c0,0-0.1,1.1,1.4,1.5L95.4,73.3z"/>
<path class="st2" d="M92.9,68.6c0,0-1.5,0.5-1,2.3l1.6-0.2h1.6l-0.6-1.6C94.5,69.1,94.4,67.1,92.9,68.6z"/>
<path class="st1" d="M108.8,62.9c0,0-0.8-2.8,1.7-2.8c0.3,0,1,0.4,1,0.4l0.2,1.5l-0.5,1.4c0,0-1.5,0.8-1.6-0.3L108.8,62.9z"/>
<path class="st5" d="M79.8,69.2l0.5-0.1c0,0,1.9,4.1,0,7.7l-1.7,2l-4.2,1.9l0.7-2.4l0.2-2.9c0,0-0.1-2.6,1.9-4.8l1.8-1L79.8,69.2z"
	/>
<path class="st1" d="M92.1,58.9c0,0-3.8,2-2.4,3.4c0,0,1.2,1.6,2.4,0V58.9z"/>
<path class="st6" d="M94.5,58.1L93.2,58l-1.8-0.6l-1,1c0,0-0.7,1.2-3.6,1.6c0,0-2.6-1.1-2.6-3.1c0,0,0.9,3.2-3,4.8
	c0,0-5.5,0.9-5.3-5.2c0,0-0.1-2.3,1.2-3.5c0,0-3.4-0.4-2.4-3c0,0-2.7,1.5-5,0.8c0,0-3.8-0.4-4-4.9c0,0-0.1-3,0.5-3.5
	c0,0-3.2-1.2-2.7-4.2c0,0-0.3-1.7,1.2-5.7c0.1-0.3,1.1-3.9,1.1-3.9l0.3-1.1c0,0,2.2-6.6,5.4-7.4c0,0,4.7-1.8,10-1.5l7.2-0.7l6.8-1
	l7.1-0.8c0,0,6.2,0,6.4,2.1c0,0,0.7,1.8-1.7,4.1l5.1-2c0,0,5.8-1.6,7.4,0.9c0,0,2.7,4.3,5,5.4c0,0,4.2,3.4,4.3,3.5
	c0.2,0.1,3.3,2.1,3.7,2.4c0.3,0.2,3.5,2.5,3.6,5.7c0,0,0.9,5.4-1.2,9.4c-2.1,3.9-0.1,0.1-0.1,0.1s0.1,3-3.2,4.2l-3.4,0.9
	c0,0,1.7,1.7-0.7,3.2c0,0-2.9,0.4-3.4-0.9l-1.3-1l-1.7,1.7c0,0-2.3,1.5-3.2-0.9c0,0-3.2,4.2-5.8,0.4c0-0.1-0.1-0.1-0.1-0.2
	c-2.6-4.1,0,0.1,0,0.1s-0.9,3.3-3.3,4.4c0,0-6.2,1-7-2.7C102.1,56.8,95.9,59.3,94.5,58.1z"/>
<path class="st7" d="M82.1,42.3c0,0-4.8,4-2.6,9.4C79.4,51.7,85.3,47.3,82.1,42.3z"/>
<path class="st5" d="M72.7,48.2c0,0,2.9-5.2,6.4-3.7C79.2,44.6,78.1,49,72.7,48.2z"/>
<path class="st7" d="M79.8,36.3c0,0-4.5-3.6,0.5-9.7c0,0,2.1,0.4,2.4,5.6c0,0,0.2,2.7-2.4,5.2L79.8,36.3z"/>
<path class="st8" d="M108.8,40.7c0,0-3.7-5.1,2.8-10.8c0,0,1.8,2.6,0.7,6l-3.3,4L108.8,40.7z"/>
<path class="st5" d="M119.5,38.6c0,0-5.6,6.6,1.4,9.5c0,0,1.2-4.5,0.6-6.8l-1.8-2.4L119.5,38.6z"/>
<path class="st7" d="M100.5,45.8c0,0-1.7,2.2-1,4.3l1,4.3c0,0,1.7,0.1,1.4-4.3l-0.9-3.4L100.5,45.8z"/>
<path class="st8" d="M94.3,54.1c0,0-0.2,4.2,1.3,4.9c0,0,1.3,1.3,1.7,2.4l1-3.6c0,0-0.4-1.6-1.5-2.9L95,54.5L94.3,54.1z"/>
<path class="st8" d="M126.2,43.4c0,0-2,1.1-1.8,4.4c0,0-0.3,3.2,2.1,4c0,0,2.7-1,2-4.4c0,0,0.8-1.1-2-3.4L126.2,43.4z"/>
<path class="st8" d="M63.8,29.8c0,0-5.8,0.7-7.1,3.4c0,0-0.9,2.9-0.5,4.1L56,37.6l2.7-1.3l2.3-0.8c0,0,1.9-2,1.9-2.5L63.8,29.8z"/>
<path class="st9" d="M61,99.6L60.1,86L60,85.6l20.3-0.2l19.4,1.5l4,0.6c0,0,2.3,0.2,2.5-0.9s0.4,2.3,0.4,2.3s0,6.5-2.8,8.9h-1.6
	l-1,0.2h-1.1l-0.7,0.5c0,0,0-6.3-0.4-6.9l-1,2.2c0,0,0.8,5.1-2.3,6.1l-0.6-0.6l-0.3,0.9l-0.4-2l-1.1,2.9l-6.3,1l-11.5,2.4
	c0,0-8.4,0.7-10.6-1c0,0,2.3-0.8,0.5-2.6C65.4,100.9,63.5,99.4,61,99.6z"/>
<g>
	<path class="st10" d="M131.1,112l-0.1-0.1c-3,1.5-6.8,2.9-11.4,4.2c-12.6,3.4-29.2,5.3-47,5.3s-34.5-1.9-47-5.3
		c-12.3-3.3-19.3-7.9-19.3-12.5c0-0.1,0-0.3,0-0.4c-0.2-0.1-0.4-0.1-0.6-0.2c0,0.2,0,0.4,0,0.6c0,5,7,9.6,19.7,13.1
		c12.6,3.4,29.4,5.3,47.2,5.3s34.6-1.9,47.2-5.3c4.7-1.3,8.7-2.7,11.7-4.3C131.4,112.2,131.2,112.1,131.1,112z"/>
	<path class="st10" d="M102.9,87.1c-9.3-1.3-19.6-2-30.3-2c-4.3,0-8.5,0.1-12.7,0.3c0.1,0.2,0.2,0.4,0.2,0.6
		c4.1-0.2,8.3-0.3,12.5-0.3c10.8,0,21.2,0.7,30.5,2C103.1,87.5,103,87.3,102.9,87.1z"/>
</g>
<g>
	<path class="st11" d="M50.3,74.5c-0.8,0.8-0.9,2.1-0.1,2.9c0.8,0.8,2.1,0.9,2.9,0.1c0.8-0.8,0.9-2.1,0.1-2.9
		C52.4,73.8,51.1,73.7,50.3,74.5z M53.1,76.4c-0.2,0.2-0.6,0.2-0.8,0s-0.2-0.6,0-0.8c0.2-0.2,0.6-0.2,0.8,0
		C53.4,75.8,53.4,76.2,53.1,76.4z"/>
	<path class="st12" d="M54.3,77.9c0-3.6-2.9-6.6-6.6-6.6c-3.6,0-6.6,2.9-6.6,6.6c0,3.6,2.9,6.6,6.6,6.6
		C51.4,84.4,54.3,81.5,54.3,77.9z"/>
	<g>
		<path class="st11" d="M59.1,82.7c1,4,1.3,8.1,1.4,12.2c0.1,2,0.1,3.9,0.1,5.9c0,1.4,0.1,2.8-0.2,4.2c-0.1,0.5,0.6,0.7,0.7,0.2
			c0.3-1.3,0.2-2.7,0.2-4c0-2.1,0-4.2-0.1-6.2c-0.1-4.2-0.5-8.4-1.4-12.4C59.7,82,59,82.2,59.1,82.7L59.1,82.7z"/>
	</g>
	<path class="st11" d="M60.5,70.6c-0.8,0.8-0.9,2.1-0.1,2.9c0.8,0.8,2.1,0.9,2.9,0.1s0.9-2.1,0.1-2.9C62.6,70,61.3,69.9,60.5,70.6z
		 M63.4,72.6c-0.2,0.2-0.6,0.2-0.8,0s-0.2-0.6,0-0.8c0.2-0.2,0.6-0.2,0.8,0C63.6,72,63.6,72.4,63.4,72.6z"/>
	<g>
		<path class="st11" d="M59.6,76c-1.8-12.4-17.9-12.1-25.8-5.7c-4.5,3.6-6.6,9.5-7.2,15.1c-0.4,3.4-0.2,6.8,0.5,10.2
			c0.8,3.9,1.6,7.6,1.5,11.6c0,0.5,0.7,0.5,0.8,0c0.1-6.3-2.2-12.2-2.2-18.4c0-5.7,1.7-12.1,5.6-16.4c6.9-7.6,24.4-8.7,26.2,3.9
			C58.9,76.7,59.7,76.5,59.6,76L59.6,76z"/>
	</g>
	<g>
		<path class="st11" d="M91.8,57.9c0.1,2.3,0.2,4.7,0.3,7c0,1.1-0.2,3,0.6,3.9c0.3,0.4,0.8-0.2,0.5-0.5c-0.7-0.8-0.4-3-0.4-4
			c-0.1-2.1-0.1-4.3-0.3-6.4C92.5,57.4,91.8,57.4,91.8,57.9L91.8,57.9z"/>
	</g>
	<g>
		<path class="st11" d="M93,75.1c0.3,7.2,9.9,9.5,15.7,8.2c4.4-1,8.3-4.1,9.5-8.6c0.7-2.8,0.1-5.8-0.3-8.6c-0.4-3.5,0-7,0.5-10.5
			c0.1-0.5-0.7-0.7-0.7-0.2c-0.4,2.6-0.7,5.2-0.7,7.9c0,2.6,0.5,5.1,0.7,7.6c0.4,5.5-2.9,9.4-7.9,11.2c-5.4,2-15.8,0.1-16.1-7
			C93.7,74.6,92.9,74.6,93,75.1L93,75.1z"/>
	</g>
	<g>
		<path class="st11" d="M57.2,77.4c-0.6,0.4-1.2,1-1.4,1.7c-0.1,0.5,0.2,1.1,0.7,1.2c0.7,0.1,1.4,0,2.1,0c0.7-0.1,1.4-0.1,2.1-0.3
			c1.1-0.3,1.7-1.5,1.3-2.6c-0.6-1.3-2-1.3-3-0.7c-0.2,0.1,0,0.4,0.2,0.3c0.9-0.5,2.1-0.6,2.5,0.6c0.4,1-0.5,1.8-1.4,2
			s-1.8,0.2-2.7,0.2c-0.3,0-0.8,0.1-1.1-0.1c-1-0.5,0.6-1.9,1-2.2C57.6,77.6,57.4,77.3,57.2,77.4L57.2,77.4z"/>
	</g>
	<g>
		<path class="st11" d="M57.7,80.3c0.3,0.6,0.1,1.3,0.4,1.8c0.2,0.4,0.7,0.7,1.2,0.5c0.9-0.4,0.6-1.9,0.4-2.6
			c-0.1-0.2-0.4-0.1-0.4,0.1c0.1,0.5,0.4,1.7-0.2,2.1c-0.2,0.1-0.5,0-0.7-0.1c-0.2-0.2-0.2-0.5-0.2-0.8c-0.1-0.4-0.1-0.9-0.3-1.2
			C57.9,79.9,57.6,80.1,57.7,80.3L57.7,80.3z"/>
	</g>
	<g>
		<path class="st11" d="M57.3,70.4c1.9-1.1,4.7-1.6,6.1,0.6c1.2,1.9,0.2,5.2-1.8,6.1c-0.2,0.1,0,0.4,0.2,0.3c2.1-1,3.1-4.3,2.1-6.3
			c-1.3-2.7-4.5-2.4-6.8-1C56.9,70.2,57.1,70.5,57.3,70.4L57.3,70.4z"/>
	</g>
	<g>
		<path class="st11" d="M54.9,103.2c-1.3-0.1-2.4,0.4-2.4,1.8c0,1.5,1.5,2.5,2.6,3.1c0.9,0.5,2.8,1,3.1-0.4c0.2-1.2-1.9-2.1-2.7-2.2
			c-0.2,0-0.3,0.3-0.1,0.4c0.9,0.1,1.9,0.6,2.4,1.4c0.7,1.1-1.2,1-1.6,0.9c-0.5-0.1-1-0.4-1.5-0.7c-0.8-0.5-1.5-1.2-1.8-2.2
			c-0.3-1.3,0.9-1.9,2-1.8C55.1,103.6,55.1,103.2,54.9,103.2L54.9,103.2z"/>
	</g>
	<g>
		<path class="st11" d="M58.3,107.9c1.5-2.1-1.4-4.4-3.3-4.9c-0.2-0.1-0.3,0.3-0.1,0.4c1.6,0.4,4.4,2.4,3.1,4.3
			C57.9,108,58.2,108.1,58.3,107.9L58.3,107.9z"/>
	</g>
	<g>
		<path class="st11" d="M61.3,103.2c1.2,0.4,3.7,1.3,4.7-0.1c1-1.3-1.8-1.7-2.5-1.6c-0.2,0.1-0.1,0.4,0.1,0.4
			c0.5-0.1,1.1-0.1,1.6,0.1c0.2,0.1,0.5,0.2,0.6,0.5c0.3,0.4-0.7,0.8-0.9,0.9c-1,0.3-2.4-0.2-3.4-0.6
			C61.1,102.8,61,103.1,61.3,103.2L61.3,103.2z"/>
	</g>
	<g>
		<path class="st11" d="M66.2,102.9c0.8-1.2-1.1-2.4-2-2.8c-0.7-0.3-2.8-1.3-3.2-0.1c-0.1,0.2,0.3,0.3,0.4,0.1c0.3-1,5.5,1,4.5,2.6
			C65.7,102.9,66,103.1,66.2,102.9L66.2,102.9z"/>
	</g>
	<g>
		<path class="st11" d="M28.9,77c-1.7-0.4-2.8-1.8-2.2-3.6c0.6-1.8,3.6-2.9,5.1-1.6c0.4,0.3,0.9-0.2,0.5-0.5
			c-1.9-1.7-5.2-0.5-6.2,1.6c-1.1,2.2,0.5,4.3,2.6,4.8C29.2,77.8,29.4,77.1,28.9,77L28.9,77z"/>
	</g>
	<g>
		<path class="st11" d="M46.6,66.3c0.3-1.5,1.1-3.1,2.7-3.5c2.2-0.6,4.3,2.1,3.3,4c-0.2,0.4,0.4,0.8,0.7,0.4
			c1.1-2.2-0.4-4.4-2.6-5.1c-2.6-0.8-4.3,1.9-4.8,4C45.8,66.6,46.5,66.8,46.6,66.3L46.6,66.3z"/>
	</g>
	<path class="st11" d="M50.4,64.8c-0.4-0.3-1-0.3-1.4,0.2c-0.3,0.4-0.3,1,0.2,1.4c0.4,0.3,1,0.3,1.4-0.2
		C50.9,65.7,50.8,65.1,50.4,64.8z"/>
	<path class="st11" d="M30.7,74.2c0-0.5-0.4-1-1-1c-0.5,0-1,0.4-1,1c0,0.5,0.4,1,1,1C30.3,75.1,30.7,74.7,30.7,74.2z"/>
	<path class="st11" d="M61,76.6c-0.1-0.6-1.1-0.9-2.2-0.7c-1.1,0.2-1.9,0.9-1.8,1.5c0.1,0.6,1.1,0.9,2.2,0.7
		C60.4,77.9,61.2,77.2,61,76.6z"/>
	<g>
		<path class="st11" d="M64.1,103.7c-1.2,2.2-3.3,1.6-5.3,2.4c-0.2,0.1-0.1,0.5,0.1,0.4c1-0.4,2.1-0.4,3.2-0.6
			c1.1-0.3,1.9-1,2.4-1.9C64.5,103.7,64.2,103.5,64.1,103.7L64.1,103.7z"/>
	</g>
	<g>
		<path class="st11" d="M27.4,97.5c-0.7-0.1-1.9-0.7-2.6-0.3c-0.4,0.2-0.4,0.7-0.8,0c-0.5-0.7-0.6-1.6-1.1-2.4
			c-0.1-0.2-0.4-0.1-0.3,0.1c0.2,1,0.4,1.9-0.1,2.8c0,0.1-1.6,0-1.6,0c-1.9,0.1-3.9,0.4-5.7,1c-0.9,0.3-1.8,0.7-2.7,1
			c-0.6,0.2-1.3,0.3-1.8,0.5c-1.1,0.6-1,1.8-1.3,2.9c0,0.1,0.1,0.2,0.2,0.2c1.8,0.1,2.5,0.8,3.6,2.3c0.1,0.1,0.1,0.1,0.2,0.1
			c0.7-0.1,1.4-0.2,2.2-0.1c0.1,0,0.2-0.1,0.2-0.2c-0.1-0.5,0.2-2.1,0.1-0.8c0,0.3-0.1,0.7,0,0.9c0.2,0.5,0.4,0.6,0.9,0.7
			c0.1,0,0.2-0.1,0.2-0.1c0.3-0.8,0.6-1.6,1.1-2.3c0,0,1-1.5,0.7-0.5c-0.1,0.4-0.3,0.8-0.4,1.3c-0.2,0.6-0.3,1.6,0.4,2.1
			c1.4,0.9,3.7,0.5,5.2,0.5c2.7,0.1,5.4,0.3,8.1,0.4c3.2,0.1,6.5,0.4,9.7,0.3c1.5,0,3.9-0.3,3.5-2.3c-0.1,0.1-0.2,0.1-0.3,0.2
			c0.7,0.3,1.1,1,1.4,1.7c0,0.1,0.1,0.1,0.2,0.1h0.1c0.1,0,0.2-0.1,0.2-0.2c-0.1-1.3-0.5-2.5-0.6-3.8c-0.1,0.1-0.2,0.1-0.3,0.2
			c0.8,1,1.7,2.9,3.1,3.4c1.4,0.4,3.1,0.2,4.4-0.1c0.2-0.1,0.1-0.4-0.1-0.4c-1.3,0.3-3.3,0.5-4.5,0s-1.9-2.1-2.6-3.1
			c-0.1-0.2-0.3,0-0.3,0.2c0.1,0.5,0.2,1,0.3,1.6c0.1,0.4,0.2,0.7,0.2,1.1c0.2,0.9,0.3,1.1,0.2,0.6c-0.3-0.7-0.8-1.2-1.4-1.5
			c-0.2-0.1-0.3,0-0.3,0.2c0.5,2.1-3,1.9-4.3,1.8c-2.1-0.1-4.2-0.2-6.2-0.2c-3.5-0.1-7-0.3-10.4-0.5c-1.2,0-4.8,0.4-5.3-0.9
			c-0.3-0.9,0.4-2.3,0.6-3.1c0-0.1-0.1-0.3-0.2-0.2c-0.9,0.3-1.3,1-1.8,1.8c-0.2,0.5-0.4,1-0.6,1.5c-0.2,0.6-0.5-1.1-0.5-1
			c0-0.3,0.1-0.6,0.1-0.8c0-0.1-0.1-0.2-0.2-0.2c-0.7,0.3-0.8,0.8-0.8,1.5c0,0.2-1.3,0.2-1.6,0.2c-0.5,0.1-0.7-0.5-1-0.8
			c-0.5-0.7-1.1-1.1-1.9-1.3c-0.5-0.1-1,0.1-0.9-0.6c0.2-1.1,0.6-1.9,1.9-2.2c1.5-0.3,3-1.3,4.6-1.6c1.8-0.4,3.7-0.7,5.5-0.7
			c0.5,0,0.8,0.3,1.1-0.2c0.7-0.9,0.3-2.2,0.1-3.1c-0.1,0-0.2,0.1-0.3,0.1c0.6,1,0.8,2.2,1.6,3.1c0.1,0.1,0.2,0.1,0.3,0
			c0.5-1.1,2-0.4,2.8-0.2C27.5,97.9,27.6,97.6,27.4,97.5L27.4,97.5z"/>
	</g>
	<g>
		<path class="st11" d="M9.5,103.2c-1.4,0-2.8,0.2-4.2,0.3c-0.2,0-0.2,0.4,0,0.4c1.4-0.1,2.8-0.3,4.2-0.3
			C9.8,103.6,9.8,103.2,9.5,103.2L9.5,103.2z"/>
	</g>
	<g>
		<path class="st11" d="M64.8,103.9c3.4,1.7,7.4,0.9,11.1,0.7c0.2,0,0.2-0.4,0-0.4c-3.6,0.3-7.5,1.1-10.9-0.6
			C64.8,103.4,64.6,103.7,64.8,103.9L64.8,103.9z"/>
	</g>
	<path class="st11" d="M105.8,75.6c0.8-0.8,0.9-2.1,0.1-2.9s-2.1-0.9-2.9-0.1s-0.9,2.1-0.1,2.9C103.7,76.3,105,76.4,105.8,75.6z
		 M103,73.7c0.2-0.2,0.6-0.2,0.8,0c0.2,0.2,0.2,0.6,0,0.8c-0.2,0.2-0.6,0.2-0.8,0C102.7,74.3,102.7,73.9,103,73.7z"/>
	<path class="st12" d="M98.4,72.9c0,3.6,2.9,6.6,6.6,6.6c3.6,0,6.6-2.9,6.6-6.6c0-3.6-2.9-6.6-6.6-6.6S98.4,69.3,98.4,72.9z"/>
	<path class="st11" d="M92.2,80.1c0.8-0.8,0.9-2.1,0.1-2.9s-2.1-0.9-2.9-0.1s-0.9,2.1-0.1,2.9S91.4,80.9,92.2,80.1z M89.4,78.2
		c0.2-0.2,0.6-0.2,0.8,0c0.2,0.2,0.2,0.6,0,0.8c-0.2,0.2-0.6,0.2-0.8,0C89.1,78.8,89.1,78.4,89.4,78.2z"/>
	<g>
		<path class="st11" d="M95.5,73.3c0.6-0.4,1.2-1,1.4-1.7c0.1-0.5-0.2-1.1-0.7-1.2c-0.7-0.1-1.4,0-2.1,0c-0.7,0.1-1.4,0.1-2.1,0.3
			c-1.1,0.3-1.7,1.5-1.3,2.6c0.6,1.3,2,1.3,3,0.7c0.2-0.1,0-0.4-0.2-0.3c-0.9,0.5-2.1,0.6-2.5-0.6c-0.4-1,0.5-1.8,1.4-2
			s1.8-0.2,2.7-0.2c0.3,0,0.8-0.1,1.1,0.1c1,0.5-0.6,1.9-1,2.2C95.1,73.1,95.3,73.5,95.5,73.3L95.5,73.3z"/>
	</g>
	<g>
		<path class="st11" d="M95,70.3c-0.3-0.6-0.1-1.3-0.4-1.9c-0.2-0.4-0.8-0.6-1.2-0.4c-0.8,0.4-0.5,2-0.4,2.7
			c0.1,0.2,0.4,0.1,0.4-0.1c-0.1-0.6-0.4-1.7,0.1-2.2c0.2-0.2,0.4-0.1,0.6,0s0.3,0.6,0.3,0.8c0.1,0.4,0,0.9,0.3,1.3
			C94.8,70.7,95.2,70.5,95,70.3L95,70.3z"/>
	</g>
	<g>
		<path class="st11" d="M93.1,68.9c-0.1-0.2-0.3-0.4-0.5-0.5c-0.1,0-0.1,0-0.2,0c-0.8,0.5-0.9,1.6-0.6,2.5c0.1,0.2,0.4,0.1,0.4-0.1
			c-0.2-0.7-0.2-1.6,0.4-2c-0.1,0-0.1,0-0.2,0c0.2,0.1,0.3,0.2,0.4,0.4C92.9,69.3,93.2,69.1,93.1,68.9L93.1,68.9z"/>
	</g>
	<g>
		<path class="st11" d="M95.4,80.4c-1.9,1.1-4.7,1.6-6.1-0.6c-1.2-1.9-0.2-5.2,1.8-6.1c0.2-0.1,0-0.4-0.2-0.3
			c-2.1,1-3.1,4.3-2.1,6.3c1.3,2.7,4.5,2.4,6.8,1C95.8,80.6,95.6,80.2,95.4,80.4L95.4,80.4z"/>
	</g>
	<path class="st11" d="M91.7,74.2c0.1,0.6,1.1,0.9,2.2,0.7c1.1-0.2,1.9-0.9,1.8-1.5s-1.1-0.9-2.2-0.7C92.3,72.9,91.5,73.6,91.7,74.2
		z"/>
	<g>
		<path class="st11" d="M111.2,60.3c-0.9-1.7-3.6,1.3-2.7,2.7c0.3,0.5,0.9,0.6,1.4,0.3c0.7-0.3,0.6-1.2,0.4-1.8
			c-0.1-0.2-0.5-0.1-0.4,0.1c0.2,0.4,0.3,1-0.1,1.3c-0.3,0.2-0.7,0.2-0.9-0.1c-0.4-0.4-0.2-1.1,0-1.5c0.3-0.5,1.4-1.9,1.9-0.9
			C111,60.7,111.3,60.5,111.2,60.3L111.2,60.3z"/>
	</g>
	<g>
		<path class="st11" d="M109.3,63.5c2,2.2,3.7-2.5,1.8-3.3c-0.2-0.1-0.4,0.2-0.2,0.3c1.4,0.6,0.3,4.4-1.3,2.7
			C109.4,63,109.1,63.3,109.3,63.5L109.3,63.5z"/>
	</g>
	<g>
		<path class="st11" d="M92.3,59c-0.4-0.4-1.2,0.2-1.5,0.4c-0.6,0.4-1.3,0.9-1.6,1.6c-0.2,0.4-0.2,1,0.3,1.3
			c0.6,0.3,1.2-0.3,1.6-0.7c0.2-0.2-0.1-0.5-0.3-0.3c-0.2,0.3-0.7,0.9-1.2,0.6c-0.4-0.2-0.1-0.9,0.1-1.1c0.3-0.5,0.7-0.8,1.2-1.1
			c0.2-0.1,1-0.7,1.2-0.5C92.2,59.4,92.5,59.2,92.3,59L92.3,59z"/>
	</g>
	<g>
		<path class="st11" d="M89.6,62.3c0.4,1.4,2.3,1,2.7-0.2c0.1-0.2-0.3-0.3-0.4-0.1c-0.3,0.8-1.7,1.2-2,0.2
			C89.9,61.9,89.6,62,89.6,62.3L89.6,62.3z"/>
	</g>
	<g>
		<path class="st11" d="M117,77.6c1.5,1,2,2.8,0.7,4.2c-1.2,1.3-4.3,1.3-5.2-0.4c-0.2-0.4-0.9-0.1-0.7,0.4c1.1,2.2,4.6,2.1,6.3,0.7
			c2-1.7,1.2-4.3-0.7-5.6C116.9,76.7,116.6,77.3,117,77.6L117,77.6z"/>
	</g>
	<path class="st11" d="M114.4,79.7c-0.2,0.5,0.1,1.1,0.6,1.2c0.5,0.2,1.1-0.1,1.2-0.6c0.2-0.5-0.1-1.1-0.6-1.2
		C115.1,78.9,114.6,79.2,114.4,79.7z"/>
	<g>
		<path class="st11" d="M106.4,83.5c0.4,2.1-1,4.2-3.3,3.7c-1.6-0.4-3.2-2.5-2.6-4.1c0.2-0.5-0.6-0.7-0.7-0.2
			c-0.8,2.2,1.3,4.9,3.5,5.1c2.7,0.4,4.3-2.2,3.8-4.7C107.1,82.8,106.3,83,106.4,83.5L106.4,83.5z"/>
	</g>
	<path class="st11" d="M103.1,83.3c-0.5,0.2-0.7,0.8-0.5,1.2c0.2,0.5,0.8,0.7,1.2,0.5c0.5-0.2,0.7-0.8,0.5-1.2
		C104.2,83.3,103.6,83.1,103.1,83.3z"/>
	<g>
		<path class="st11" d="M79.1,69.3c-1.4,3.3-0.5,7.5-3.5,10.1c-0.2,0.2,0.1,0.4,0.3,0.3c3-2.6,2.1-6.8,3.5-10.1
			C79.5,69.3,79.2,69.1,79.1,69.3L79.1,69.3z"/>
	</g>
	<g>
		<path class="st11" d="M79.6,68.9c-1.4,1-3.5,2.1-4.1,3.8c-0.9,2.5-0.2,5.3-1.4,7.8c-0.1,0.2,0,0.3,0.2,0.3
			c2.7-0.5,5.3-2.1,6.4-4.7c1-2.4,1-5.3-0.7-7.3c-0.2-0.2-0.4,0.1-0.3,0.3c1.7,2.1,1.5,5,0.4,7.3s-3.5,3.6-5.9,4.1
			c0.1,0.1,0.1,0.2,0.2,0.3c0.8-1.6,0.9-3.2,0.9-5c0.1-1.4,0.3-2.8,1.2-4c0.8-1,2.2-1.8,3.2-2.5C80,69.1,79.8,68.7,79.6,68.9
			L79.6,68.9z"/>
	</g>
	<g>
		<path class="st11" d="M79.9,66.3c0.5,0.9,0.4,1.9-0.4,2.6c-0.2,0.2,0.1,0.4,0.3,0.3c0.9-0.9,1-2,0.4-3.1
			C80.1,65.9,79.7,66,79.9,66.3L79.9,66.3z"/>
	</g>
	<g>
		<path class="st11" d="M76.4,74.4c0.5-0.5,1.1-1,1.7-1.2c0.2-0.1,0.1-0.4-0.1-0.4c-0.7,0.3-1.3,0.8-1.9,1.3
			C76,74.3,76.2,74.6,76.4,74.4L76.4,74.4z"/>
	</g>
	<g>
		<path class="st11" d="M76.7,76.3c0.4,0,0.6-0.2,0.9-0.5c0.2-0.2-0.1-0.4-0.3-0.3c-0.2,0.2-0.4,0.4-0.6,0.4S76.5,76.3,76.7,76.3
			L76.7,76.3z"/>
	</g>
	<g>
		<path class="st11" d="M78.3,74.5c0.1,0.2,0.2,0.5,0.3,0.7c0.1,0.2,0.4,0,0.3-0.2s-0.2-0.5-0.3-0.7C78.5,74.1,78.2,74.3,78.3,74.5
			L78.3,74.5z"/>
	</g>
	<g>
		<path class="st11" d="M79.3,66.6c0.1-0.1,0.3-0.1,0.4-0.2s0.2-0.1,0.4-0.1c0-0.1,0-0.3,0-0.4c-0.2,0-0.4,0.1-0.6,0.3
			c-0.2,0.2,0.1,0.4,0.3,0.3c0.1,0,0.1-0.1,0.2-0.1s0.2-0.1,0.2-0.1c0.2-0.2-0.1-0.4-0.3-0.3c-0.1,0-0.1,0.1-0.2,0.1
			s-0.2,0.1-0.2,0.1c0.1,0.1,0.2,0.2,0.3,0.3c0.1-0.1,0.2-0.1,0.3-0.2c0.2,0,0.2-0.4,0-0.4c-0.3,0-0.6,0.2-0.9,0.3
			C79,66.3,79.1,66.6,79.3,66.6L79.3,66.6z"/>
	</g>
	<g>
		<path class="st11" d="M105.8,86.9c1.3,3.9-0.4,8.5-2.7,11.7c-1.4,2.1-3.4,2.9-5.7,3.7c-1.9,0.7-3.3,2-5,3.1
			c-4.2,2.7-9,3.1-13.9,2.8c-4.5-0.3-9-0.5-13,1.8c-0.1,0.1-0.1,0.2,0,0.3c0.2,0.2,0.2,0.2,0.4,0.3c0.2,0.1,0.3-0.3,0.1-0.4
			c0.1,0,1-0.6,1.2-0.6c0.8-0.4,1.6-0.6,2.4-0.8c1.4-0.4,2.9-0.4,4.4-0.4c2.6,0,5.1,0.3,7.7,0.3c4.6,0,8.9-1.4,12.6-4
			c1.8-1.3,3.7-2,5.8-2.9c1.7-0.8,2.9-2.1,3.9-3.6c2.1-3.2,3.4-7.6,2.2-11.3C106.1,86.6,105.8,86.7,105.8,86.9L105.8,86.9z"/>
	</g>
	<g>
		<path class="st11" d="M119.8,60.8c0,2.2-0.1,4.5,0.2,6.7c0,0.2,0.4,0.2,0.4,0c-0.3-2.2-0.2-4.5-0.2-6.7
			C120.2,60.6,119.8,60.6,119.8,60.8L119.8,60.8z"/>
	</g>
	<g>
		<path class="st11" d="M121.7,57c-0.1,1.3-0.2,2.6-0.2,3.8c0,0.2,0.4,0.2,0.4,0c0-1.3,0.1-2.6,0.2-3.8
			C122.1,56.8,121.7,56.8,121.7,57L121.7,57z"/>
	</g>
	<g>
		<path class="st11" d="M121.7,64.6c-0.2,1.8-0.1,3.7-0.3,5.5c0,0.2,0.4,0.2,0.4,0c0.2-1.8,0.1-3.7,0.3-5.5
			C122.1,64.3,121.7,64.3,121.7,64.6L121.7,64.6z"/>
	</g>
	<g>
		<path class="st11" d="M108.4,85.5c-0.3,2,0.2,4,0,6c0,0.2,0.4,0.2,0.4,0c0.2-2-0.3-3.9,0-5.9C108.8,85.4,108.4,85.3,108.4,85.5
			L108.4,85.5z"/>
	</g>
	<g>
		<path class="st11" d="M114.9,84.6c0,0.5-0.2,1-0.3,1.4c-0.1,0.2,0.3,0.3,0.4,0.1c0.1-0.5,0.3-1,0.3-1.5
			C115.3,84.4,114.9,84.4,114.9,84.6L114.9,84.6z"/>
	</g>
	<g>
		<path class="st11" d="M119.9,74.1c0,0.3,0,0.6-0.2,0.9c-0.1,0.2,0.2,0.4,0.3,0.2c0.2-0.3,0.2-0.7,0.2-1.1
			C120.3,73.8,119.9,73.8,119.9,74.1L119.9,74.1z"/>
	</g>
	<g>
		<path class="st11" d="M122,76.2c0,0.1,0,0.1,0,0.2l0.1,0.1c0,0.1,0.1,0.2,0.2,0.2s0.2-0.1,0.2-0.2s0-0.1,0-0.2l-0.1-0.1
			c0-0.1-0.1-0.2-0.2-0.2S122,76.1,122,76.2L122,76.2z"/>
	</g>
	<g>
		<path class="st11" d="M123.2,62.2c0.1,0.3,0.2,0.6,0.2,0.9c0,0.2,0.4,0.2,0.4,0c0-0.4-0.1-0.7-0.2-1
			C123.5,61.8,123.1,61.9,123.2,62.2L123.2,62.2z"/>
	</g>
	<g>
		<path class="st11" d="M119.2,58.4L119.2,58.4c0.3,0,0.3-0.4,0.1-0.4h-0.1C119,58,119,58.4,119.2,58.4L119.2,58.4z"/>
	</g>
	<g>
		<path class="st11" d="M122.8,71.9c-0.1,0.4-0.1,0.8,0.3,1.1c0.2,0.1,0.4-0.2,0.2-0.3c-0.2-0.2-0.2-0.4-0.1-0.6
			C123.2,71.7,122.9,71.6,122.8,71.9L122.8,71.9z"/>
	</g>
	<g>
		<path class="st11" d="M119.7,70.1c0,0.2,0,0.5,0,0.7s0.4,0.2,0.4,0s0-0.5,0-0.7S119.7,69.9,119.7,70.1L119.7,70.1z"/>
	</g>
	<g>
		<path class="st11" d="M121.4,79.5c0,0.3,0,0.6,0,0.9c0,0.2,0.4,0.2,0.4,0c0-0.3,0-0.6,0-0.9C121.8,79.3,121.4,79.3,121.4,79.5
			L121.4,79.5z"/>
	</g>
	<g>
		<path class="st11" d="M120,84.2c0,0.3,0.1,0.5,0.3,0.8c0.2,0.2,0.4-0.1,0.3-0.3c-0.1-0.1-0.2-0.3-0.2-0.5
			C120.4,83.9,120,83.9,120,84.2L120,84.2z"/>
	</g>
	<g>
		<path class="st11" d="M93.3,101.2c0.5-1,0.9-2,1.2-3c-0.1,0-0.2,0-0.4,0c0.1,0.8,0,1.5,0.1,2.3c0,0.2,0.3,0.3,0.4,0.1
			c0.2-0.4,0.4-0.9,0.7-1.2c-0.1,0-0.2-0.1-0.3-0.1c0,0.5,0.1,0.7,0.3,1.2c0.1,0.1,0.2,0.1,0.3,0.1c3.4-1.8,2.3-5.7,3.2-8.9
			c-0.1,0-0.2,0-0.4,0c0.8,2.4,0.1,4.8,0.4,7.2c0,0.2,0.3,0.2,0.3,0c0.2-0.3,0.4-0.9,0.7-0.7c0.1,0.1,0.2,0,0.2,0
			c0.3,0.1,0.7,0.1,1,0.2c0,0.1,0.2,0.1,0.2,0c0.7-0.5,1.4-0.3,2.1-0.3c0.2,0,0.2-0.4,0-0.4c-0.5,0-2,0.3-2.4,0
			c-0.5-0.2-1.1,0.1-1.3-0.1c-0.1-0.1-0.2,0-0.3,0.1c-0.2,0.3-0.4,0.6-0.6,1c0.1,0,0.2,0,0.3,0c-0.3-2.4,0.3-4.9-0.4-7.2
			c-0.1-0.2-0.3-0.2-0.4,0c-0.4,1.4-0.5,2.9-0.6,4.3c-0.1,0.9-0.2,1.8-0.6,2.6c-0.3,0.5-1.9,2.5-1.9,0.8c0-0.2-0.2-0.3-0.3-0.1
			c-0.3,0.4-0.5,0.8-0.8,1.3c0.1,0,0.2,0.1,0.4,0.1c-0.1-0.8,0-1.6-0.1-2.4c0-0.2-0.3-0.2-0.4,0c-0.3,1-0.7,2-1.2,2.9
			C92.9,101.3,93.2,101.5,93.3,101.2L93.3,101.2z"/>
	</g>
	<g>
		<path class="st11" d="M93.1,101.2c-2,0.5-4.1,0.4-6.1,0.7c-0.2,0-0.1,0.4,0.1,0.4c2-0.3,4.1-0.2,6.1-0.7
			C93.4,101.5,93.3,101.1,93.1,101.2L93.1,101.2z"/>
	</g>
	<g>
		<path class="st11" d="M94,53.5c0.6,1.5-0.3,3.1,0.5,4.5s2.5,2,2.9,3.6c0.1,0.2,0.4,0.2,0.4-0.1c0.1-1.9,1.2-3.8,0.2-5.7
			c-0.8-1.6-3-1.3-3.9-2.7c-0.1,0.1-0.2,0.1-0.3,0.2c1.2,2,3,3.7,3,6.2c0,0.2,0.4,0.2,0.4,0c0.1-2.6-1.8-4.3-3-6.4
			c-0.1-0.2-0.4,0-0.3,0.2c0.6,1,1.6,1.3,2.7,1.7c2.7,1.2,1,4.4,0.9,6.5c0.1,0,0.2,0,0.4-0.1c-0.3-1.2-1.3-1.8-2.2-2.6
			c-1.8-1.6-0.5-3.6-1.2-5.5C94.3,53.2,93.9,53.3,94,53.5L94,53.5z"/>
	</g>
	<g>
		<path class="st11" d="M95.8,57.5c0-0.3,0.1-0.6,0.3-0.9c0.1-0.2-0.2-0.4-0.3-0.2c-0.2,0.3-0.3,0.7-0.3,1.1
			C95.4,57.8,95.8,57.8,95.8,57.5L95.8,57.5z"/>
	</g>
	<g>
		<path class="st11" d="M97,57.6c0.1,0.1,0.2,0.2,0.3,0.3c0.2,0.2,0.4-0.1,0.3-0.3c-0.1-0.1-0.2-0.2-0.3-0.3
			C97.1,57.1,96.9,57.4,97,57.6L97,57.6z"/>
	</g>
	<g>
		<path class="st11" d="M100.1,45.7c-2,3.1-0.6,5.8,0.3,9c0,0.1,0.2,0.2,0.3,0.1c2.4-2.8,1.3-6.3-0.1-9.3c-0.1-0.2-0.3-0.1-0.3,0
			c-0.6,1.6,0,3.3,0.2,5c0,0.2,0.4,0.2,0.4,0c-0.2-1.6-0.8-3.3-0.2-4.9c-0.1,0-0.2,0-0.3,0c1.2,2.6,2.2,5.5,0.7,8.1
			c-0.5,0.9-0.7-0.7-0.8-1c-0.2-0.6-0.4-1.1-0.5-1.7c-0.5-1.9-0.2-3.5,0.8-5.2C100.6,45.7,100.2,45.5,100.1,45.7L100.1,45.7z"/>
	</g>
	<g>
		<path class="st11" d="M65.4,28.5c-0.3,2.4-1.7,4.5-2.2,6.9c-0.3,1.5-0.2,3.1,0.3,4.5c1,2.8,4,3.4,6.7,3.3c0.2,0,0.2-0.4,0-0.4
			c-3,0.2-5.8-0.7-6.6-3.9c-0.9-3.8,1.7-6.8,2.2-10.4C65.8,28.3,65.5,28.3,65.4,28.5L65.4,28.5z"/>
	</g>
	<g>
		<path class="st11" d="M65.9,42c-0.7,2.9-0.9,6.1,1.8,8.1c2.2,1.7,4.8,0.8,7-0.2c0.2-0.1,0-0.4-0.2-0.3c-1.9,0.9-4.1,1.7-6.1,0.6
			c-1.2-0.7-1.9-2.1-2.4-3.3c-0.6-1.5,0-3.2,0.3-4.7C66.3,41.9,65.9,41.8,65.9,42L65.9,42z"/>
	</g>
	<g>
		<path class="st11" d="M76.8,52.6c-1.9,2.4-1.9,6.8,0.9,8.7c3,2,7.4-1,6.5-4.4c-0.1,0-0.2,0.1-0.3,0.1c0.6,1.3,1.4,2.8,2.9,3
			c2.3,0.2,3.1-1.3,4.6-2.6c0.2-0.2-0.1-0.4-0.3-0.3c-1.2,1-1.9,2.4-3.6,2.5c-1.8,0.2-2.7-1.4-3.4-2.8c-0.1-0.2-0.4-0.1-0.3,0.1
			c0.9,3.7-4.1,5.9-6.6,3.4c-1.9-1.8-1.7-5.6-0.1-7.5C77.2,52.7,76.9,52.4,76.8,52.6L76.8,52.6z"/>
	</g>
	<g>
		<path class="st11" d="M91,56.7c-0.2,1,1.5,1.1,2.1,1.4c0.2,0.1,0.4-0.2,0.2-0.3c-0.3-0.2-0.7-0.2-1.1-0.4
			c-0.3-0.1-0.9-0.2-0.9-0.6C91.4,56.6,91.1,56.5,91,56.7L91,56.7z"/>
	</g>
	<g>
		<path class="st11" d="M101.9,56.8c0.3,2.3,3.1,3,5.1,3.1c2.9,0.1,5.2-2.2,5.6-4.9c-0.1,0-0.2,0-0.4,0c0.5,3.1,4.3,2.4,5.9,0.6
			c0.3-0.3,0.1-0.3,0.3,0.2c0.1,0.2,0.3,0.4,0.5,0.5c0.5,0.2,0.9,0.2,1.4,0.1c1.2-0.3,2.3-1.4,3-2.3c0.1-0.2-0.2-0.4-0.3-0.2
			c-1,1.3-3.5,3.4-4.5,1.1c-0.1-0.1-0.3-0.1-0.3,0c-1.2,1.9-5,2.9-5.5-0.1c0-0.2-0.3-0.2-0.4,0c-0.4,2.4-2.2,4.4-4.7,4.6
			c-1.8,0.2-5.1-0.5-5.3-2.7C102.2,56.6,101.9,56.5,101.9,56.8L101.9,56.8z"/>
	</g>
	<g>
		<path class="st11" d="M124.4,55.3c1.5,1.5,5.6,0.9,5-1.8c0-0.1-0.3-0.7-0.1-0.7c0.5-0.1,1-0.2,1.4-0.3c0.8-0.2,1.6-0.5,2.4-0.9
			c1.5-0.8,2.2-2.4,2.3-4.1c0-0.2-0.4-0.2-0.4,0c-0.1,3.5-3.2,4.5-6.2,4.9c-0.1,0-0.2,0.2-0.1,0.3c1.4,2.6-2.2,4.1-4,2.3
			C124.5,54.9,124.3,55.2,124.4,55.3L124.4,55.3z"/>
	</g>
	<g>
		<path class="st11" d="M126.2,43.1c-2.7,1.3-2.8,7-0.4,8.6c1.3,0.8,2.5-1.1,2.8-2.1c0.9-2.4-0.2-4.4-2-6c-0.1-0.1-0.3-0.1-0.3,0.1
			c-0.3,1.8-0.5,4.1,0.6,5.7c0.1,0.2,0.5,0,0.3-0.2c-0.5-0.8-0.7-1.6-0.7-2.6c0-0.4,0-0.8,0-1.2c0-0.2,0-1.5,0.2-1.3
			c2,1.7,2.4,4,1.2,6.2c-0.8,1.4-2,1.2-2.8-0.1c-0.4-0.7-0.5-1.6-0.5-2.3c-0.1-1.6,0.3-3.7,1.8-4.5C126.6,43.3,126.4,43,126.2,43.1
			L126.2,43.1z"/>
	</g>
	<g>
		<path class="st11" d="M119.3,38.2c-3,2.8-3.1,8.6,1.4,10c0.1,0,0.2,0,0.2-0.1c0.9-3,1.9-7.2-1.3-9.3c-0.1-0.1-0.2,0-0.3,0.1
			c-1.1,2.4,0,5.2,0.9,7.5c0.1,0.2,0.5,0.1,0.4-0.1c-0.4-1-0.7-1.9-1-3c-0.2-0.7-0.3-1.4-0.3-2.1c0-0.3,0-2.3,0.7-1.7
			c2,1.6,1.4,4.8,0.9,6.9c-0.1,0.4-0.2,0.8-0.3,1.3c-0.1,0.3-1.4-0.6-1.5-0.7c-0.8-0.6-1.2-1.6-1.5-2.5c-0.5-2.1,0.4-4.5,2-6
			C119.8,38.3,119.5,38,119.3,38.2L119.3,38.2z"/>
	</g>
	<g>
		<path class="st11" d="M109.3,39.7c1.3-1.7,3.3-3.3,3.5-5.6c0.1-1.3,0-3.6-1.1-4.5c-0.1-0.1-0.2-0.1-0.3,0c-3.1,3-5.5,7.2-2.7,11.2
			c0.1,0.1,0.4,0.1,0.4-0.1c-0.1-2.3,0.8-4.4,1.5-6.6c0.1-0.2-0.3-0.3-0.4-0.1c-0.7,2.2-1.6,4.3-1.5,6.7c0.1,0,0.2-0.1,0.4-0.1
			c-1.5-2.1-1.6-4.3-0.5-6.6c0.4-0.9,1-1.7,1.5-2.4c0.3-0.4,0.6-0.7,1-1.1s0.5-0.7,0.8-0.1c0.7,1.3,0.8,3.2,0.4,4.6
			c-0.5,1.8-2.1,3.1-3.2,4.4C108.8,39.6,109.1,39.8,109.3,39.7L109.3,39.7z"/>
	</g>
	<g>
		<path class="st11" d="M79.8,36.3c-1.9-1.2-1.8-4.7-1.2-6.6c0.2-0.6,1.5-3.5,2.2-2.8c0.8,0.9,1.3,2,1.5,3.1
			c0.5,2.1-0.1,4.4-1.4,6.1c-0.2,0.3-0.5,0.5-0.8,0.8c0,0-0.4-2.2-0.4-2.5c-0.1-1.7,0.4-3.4,0.8-5.1c0.1-0.2-0.3-0.3-0.4-0.1
			c-0.6,2.7-1.1,5.4-0.3,8.1c0,0.1,0.2,0.2,0.3,0.1c3.5-2.7,3.7-8.4,0.4-11.4c-0.1-0.1-0.2-0.1-0.3,0c-1.5,1.8-2.6,3.9-2.5,6.3
			c0.1,1.4,0.6,3.3,1.8,4.1C79.8,36.7,80,36.4,79.8,36.3L79.8,36.3z"/>
	</g>
	<g>
		<path class="st11" d="M64,29.3c-2.1,1.2-4.7,0.8-6.5,2.6c-1.5,1.5-1.7,3.9-1.8,5.8c0,0.1,0.2,0.2,0.3,0.2c1.7-1.1,3.7-1.4,5.2-2.7
			c1.6-1.3,2-3.5,2.8-5.3c0.1-0.1,0-0.3-0.2-0.3c-2.8,1-4.6,3.4-6.7,5.4c-0.2,0.2,0.1,0.4,0.3,0.3c2-1.9,3.8-4.3,6.5-5.3
			c-0.1-0.1-0.1-0.2-0.2-0.3c-0.8,1.8-1.3,3.8-2.8,5.2c-0.8,0.8-2,1.2-3.1,1.6c-0.3,0.1-1.8,0.6-1.8,0.8c0-2.2,0.7-4.7,2.6-6
			c1.6-1.1,3.8-0.8,5.5-1.8C64.4,29.5,64.3,29.2,64,29.3L64,29.3z"/>
	</g>
	<g>
		<path class="st11" d="M81.8,42.1c-2.8,2.8-3.8,6.2-2.5,10c0,0.1,0.2,0.2,0.3,0.1c2.4-2.5,5.1-6.6,2.6-9.9c-0.1-0.1-0.2-0.1-0.3,0
			c-1.3,1.7-1.2,4-1.5,6c0,0.2,0.3,0.3,0.4,0.1c0.3-1.8,0.3-3.7,1.1-5.3c0.5-1.1,1,1.9,1,2.3c0,1.2-0.6,2.4-1.1,3.4
			c-0.5,0.9-1.2,1.8-1.9,2.6c-0.4,0.4-0.3,0.2-0.5-0.3c-0.2-0.7-0.3-1.4-0.3-2.2c-0.1-2.6,1.3-4.8,3-6.5
			C82.2,42.1,82,41.9,81.8,42.1L81.8,42.1z"/>
	</g>
	<g>
		<path class="st11" d="M79.1,44.2c-2.7-0.8-5.3,1.5-6.5,3.7c-0.1,0.1,0,0.2,0.1,0.3c2.8,1,5.9-1.3,6.8-3.9c0-0.1-0.1-0.2-0.2-0.2
			c-1.6,0.1-2.8,1-4,1.8c-0.2,0.1,0,0.5,0.2,0.3c0.6-0.4,1.1-0.7,1.7-1.1c0.3-0.2,2.1-1.1,1.6-0.1c-0.8,1.4-2.3,2.5-3.8,2.9
			c-0.1,0-2.1,0.2-1.9-0.1c0.3-0.6,0.8-1.1,1.3-1.6c1.2-1.2,2.9-2.2,4.7-1.7C79.2,44.7,79.3,44.3,79.1,44.2L79.1,44.2z"/>
	</g>
	<g>
		<path class="st11" d="M79.8,32.9c0.7-0.6,1.2-1.5,2-2c0.2-0.1,0-0.5-0.2-0.3c-0.8,0.6-1.3,1.5-2.1,2.1
			C79.4,32.8,79.6,33.1,79.8,32.9L79.8,32.9z"/>
	</g>
	<g>
		<path class="st11" d="M79.9,34.4c0.4-0.2,0.7-0.5,1-0.8c0.2-0.2-0.1-0.4-0.3-0.3c-0.3,0.3-0.6,0.5-0.9,0.7
			C79.5,34.2,79.7,34.5,79.9,34.4L79.9,34.4z"/>
	</g>
	<g>
		<path class="st11" d="M60.3,32.2c-0.4,0.8-0.7,1.7-0.8,2.5c0,0.2,0.3,0.2,0.4,0c0.1-0.8,0.3-1.6,0.7-2.4
			C60.8,32.2,60.5,32,60.3,32.2L60.3,32.2z"/>
	</g>
	<g>
		<path class="st11" d="M61.6,31.2c-0.1,0.4-0.2,0.8-0.3,1.2c-0.1,0.2,0.3,0.3,0.4,0.1c0.1-0.4,0.2-0.8,0.3-1.2
			C62,31,61.7,30.9,61.6,31.2L61.6,31.2z"/>
	</g>
	<g>
		<path class="st11" d="M81.1,45.3c0.2,0.2,0.4,0.5,0.5,0.8c0.1,0.2,0.4,0.1,0.4-0.1c-0.1-0.4-0.3-0.7-0.6-0.9
			C81.2,44.9,80.9,45.1,81.1,45.3L81.1,45.3z"/>
	</g>
	<g>
		<path class="st11" d="M81.6,44.2c0.1,0.1,0.2,0.3,0.2,0.4c0,0.2,0.4,0.2,0.4,0s-0.1-0.5-0.3-0.7C81.7,43.8,81.4,44.1,81.6,44.2
			L81.6,44.2z"/>
	</g>
	<g>
		<path class="st11" d="M76.8,45.4c-0.1,0.2-0.3,0.4-0.4,0.6c-0.1,0.2,0.2,0.4,0.3,0.2c0.1-0.2,0.3-0.4,0.4-0.6
			C77.2,45.4,76.9,45.2,76.8,45.4L76.8,45.4z"/>
	</g>
	<g>
		<path class="st11" d="M108.3,34.7c0.1,0.7,0.1,1.4,0.6,2c0.1,0.2,0.5,0,0.3-0.2c-0.4-0.5-0.4-1.2-0.5-1.9
			C108.6,34.3,108.3,34.4,108.3,34.7L108.3,34.7z"/>
	</g>
	<g>
		<path class="st11" d="M109.2,34.1c-0.1,0.4-0.1,0.9,0.3,1.3c0.2,0.2,0.4-0.1,0.3-0.3c-0.2-0.3-0.3-0.6-0.2-0.9
			C109.6,34,109.2,33.9,109.2,34.1L109.2,34.1z"/>
	</g>
	<g>
		<path class="st11" d="M110.3,36.3c0.3-0.1,0.6-0.2,0.8-0.5c0.2-0.2-0.1-0.4-0.3-0.3c-0.2,0.2-0.4,0.3-0.7,0.4
			C110,36,110.1,36.4,110.3,36.3L110.3,36.3z"/>
	</g>
	<g>
		<path class="st11" d="M118.9,42.4c-0.5,0.5-0.9,1.1-1,1.8c0,0.2,0.3,0.3,0.4,0.1c0.1-0.6,0.5-1.2,0.9-1.6
			C119.3,42.5,119.1,42.2,118.9,42.4L118.9,42.4z"/>
	</g>
	<g>
		<path class="st11" d="M119.5,44.6c-0.3,0.4-0.5,0.8-0.7,1.3c-0.1,0.2,0.2,0.4,0.3,0.2c0.2-0.4,0.5-0.9,0.7-1.3
			C120,44.6,119.7,44.5,119.5,44.6L119.5,44.6z"/>
	</g>
	<g>
		<path class="st11" d="M119.9,43.3c0.1,0.1,0.3,0.3,0.5,0.3c0.2,0.1,0.4-0.2,0.2-0.3c-0.1-0.1-0.3-0.2-0.4-0.3
			C120,42.8,119.7,43.1,119.9,43.3L119.9,43.3z"/>
	</g>
	<g>
		<path class="st11" d="M125.6,46.8c-0.2,0.3-0.4,0.7-0.6,1.1c-0.1,0.2,0.2,0.4,0.3,0.2c0.2-0.3,0.4-0.7,0.6-1.1
			C126,46.8,125.7,46.6,125.6,46.8L125.6,46.8z"/>
	</g>
	<g>
		<path class="st11" d="M126.6,45.6c0.5,0.5,0.9,1,1,1.7c0,0.2,0.4,0.1,0.4-0.1c-0.1-0.8-0.5-1.4-1.1-1.9
			C126.7,45.2,126.4,45.5,126.6,45.6L126.6,45.6z"/>
	</g>
	<g>
		<path class="st11" d="M94.9,110.2c3.9,0.7,7.4-1.8,10.8-3.3c1-0.5,2.1-0.8,3.2-1c0.5-0.1,1,0,1.5,0.1c0,0-0.7,1.2-0.8,1.3
			c-0.5,0.9-0.9,2-0.3,2.9c1.2,1.9,5.4,1.2,7.2,1.1c5.6-0.1,11.4-0.4,16.8,1.2c0.2,0.1,0.3-0.3,0.1-0.4c-5.6-1.6-11.5-1.3-17.2-1.2
			c-1.7,0-3.4,0.1-5.1-0.2c-2.9-0.6-1.4-3.2-0.3-4.8c0.1-0.1,0-0.2-0.1-0.3c-2.2-0.7-4.4,0.3-6.3,1.3c-2.9,1.4-6,3.4-9.5,2.8
			C94.8,109.8,94.7,110.2,94.9,110.2L94.9,110.2z"/>
	</g>
	<g>
		<path class="st11" d="M126.6,106.6c-0.8-0.1-1.4-0.3-2.1-0.6c-0.8-0.4-1-0.6-0.9-1.5c0.1-1.4,0.3-2.8,0.6-4.2
			c0.4-2.4,0.7-4.8,0.6-7.2c0-5.4-1.5-10.6,0.3-15.8c0.1-0.2-0.3-0.3-0.4-0.1c-1.5,4.4-0.9,9.2-0.5,13.7c0.5,4.9-0.8,9.8-1.2,14.7
			c0,0.1,0,0.1,0.1,0.2c1.1,0.6,2.1,1.1,3.3,1.2C126.8,107,126.8,106.6,126.6,106.6L126.6,106.6z"/>
	</g>
	<g>
		<path class="st11" d="M127.6,85c0.7,4.3,0,8.6,0.4,12.9c0,0.2,0.4,0.2,0.4,0c-0.4-4.3,0.3-8.7-0.4-13
			C127.9,84.6,127.6,84.8,127.6,85L127.6,85z"/>
	</g>
	<g>
		<path class="st11" d="M130.4,87.9c0.3,0.7,0.4,1.5,0.4,2.3c0,0.2,0.4,0.2,0.4,0c0-0.9-0.1-1.7-0.4-2.5
			C130.7,87.5,130.3,87.7,130.4,87.9L130.4,87.9z"/>
	</g>
	<g>
		<path class="st11" d="M130,61.4c0-0.2,0-0.5,0-0.7s-0.4-0.2-0.4,0c0,6.2-1.3,12.5-0.4,18.6c0,0.2,0.4,0.1,0.4-0.1
			c-0.9-6.1,0.4-12.4,0.4-18.5c0-0.2-0.4-0.2-0.4,0s0,0.5,0,0.7C129.6,61.7,130,61.7,130,61.4L130,61.4z"/>
	</g>
	<g>
		<path class="st11" d="M11,101.1c-0.2,0.5-0.3,1-0.3,1.5c0,0.2,0.3,0.3,0.4,0.1c0.1-0.5,0.2-1,0.1-1.6c0-0.2-0.3-0.3-0.4-0.1
			c-0.2,0.5-0.4,0.9-0.5,1.4c-0.1,0.2,0.3,0.3,0.4,0.1c0.1-0.4,0.2-0.8,0.2-1.2c0-0.2-0.2-0.2-0.4-0.1c-0.4,0.5-0.5,0.9-0.6,1.5
			c0,0.2,0.3,0.3,0.4,0.1c0.2-0.6,0.3-1,0.4-1.6c0-0.2-0.3-0.2-0.4-0.1c-0.3,0.6-0.5,1.1-0.5,1.7c0,0.2,0.3,0.2,0.4,0.1
			c0.2-0.5,0.3-0.9,0.3-1.4c0-0.2-0.2-0.3-0.3-0.1c-0.4,0.4-0.5,0.9-0.5,1.4c0,0.2,0.3,0.2,0.4,0.1c0.4-0.6,0.6-1.2,0.8-1.8
			c-0.1,0-0.2-0.1-0.3-0.1c-0.1,0.3-0.2,0.6-0.3,0.8c-0.1,0.2,0.2,0.3,0.3,0.1c0.3-0.5,0.7-1,1.2-1.3c-0.1-0.1-0.2-0.2-0.3-0.3
			c-0.3,0.2-0.6,0.4-0.9,0.5c0,0.1,0.1,0.2,0.1,0.4c0.8-0.4,1.6-0.5,2.3-1c0.2-0.1,0.1-0.4-0.1-0.3c-1.1,0.3-1.9,1.1-2.6,1.9
			c-0.2,0.2,0,0.4,0.2,0.3c1.3-0.6,2.4-1.6,3.8-2.2c0-0.1-0.1-0.2-0.1-0.3c-1.1,0.7-2.1,1.4-3.2,2.1c0.1,0.1,0.2,0.2,0.2,0.3
			c1.3-1,2.5-2,4.1-2.6c-0.1-0.1-0.1-0.2-0.2-0.3c-1.3,1.1-2.8,1.9-4.1,3c-0.2,0.1,0,0.4,0.2,0.3c1.9-1.1,3.7-2.3,5.5-3.5
			c0.2-0.1,0-0.5-0.2-0.3c-1.8,1.1-3.6,2.2-5.1,3.7c-0.2,0.1,0,0.4,0.2,0.3c2-1.2,3.9-2.5,5.8-3.8c0.2-0.1,0-0.4-0.2-0.3
			c-1.9,0.8-3.6,2.1-5.1,3.6c-0.1,0.1,0,0.4,0.2,0.3c2.2-0.5,3.9-2.2,5.8-3.5c0.2-0.1,0-0.4-0.2-0.3c-1.8,0.9-3.7,2.1-4.9,3.8
			c-0.1,0.1,0.1,0.3,0.2,0.3c2.2-0.7,4.1-2.2,5.9-3.6c0.2-0.1-0.1-0.4-0.2-0.3c-2,0.9-3.7,2.2-5.3,3.6c-0.1,0.1,0,0.4,0.2,0.3
			c2.4-0.9,4.3-2.7,6.6-3.9c-0.1-0.1-0.1-0.2-0.2-0.3c-1.8,1.3-3.7,2.4-5.3,3.9c-0.2,0.1,0,0.4,0.2,0.3c2.1-1.3,3.9-2.8,6-4.1
			c-0.1-0.1-0.1-0.2-0.2-0.3c-1.7,1.1-3.4,2.2-4.9,3.5c-0.2,0.1,0,0.4,0.2,0.3c1.8-1.2,3.6-2.5,5.5-3.5c-0.1-0.1-0.1-0.2-0.2-0.3
			c-1.7,1.1-3.4,2.1-4.9,3.5c-0.2,0.1,0,0.4,0.2,0.3c2.2-1.3,4.1-3.2,6.6-4c-0.1-0.1-0.1-0.2-0.2-0.3c-1.5,1.4-3.5,2.3-5,3.9
			c-0.1,0.2,0,0.4,0.2,0.3c2-1,3.7-2.4,5.6-3.6c-0.1-0.1-0.1-0.2-0.2-0.3c-1.6,1.1-3.3,2-4.7,3.3c-0.2,0.2,0,0.4,0.2,0.3
			c1.7-0.8,3.2-2,4.9-2.8c-0.1-0.1-0.1-0.2-0.2-0.3c-1.6,1-3.2,2-4.5,3.3c-0.2,0.2,0,0.4,0.2,0.3c2.1-1,3.9-2.3,5.7-3.7
			c0.2-0.1,0-0.4-0.2-0.3c-2,1.1-4.3,2.2-5.7,4.2c-0.1,0.1,0.1,0.3,0.2,0.3c1.1-0.4,2-1.1,3-1.8c1.2-0.9,2.4-1.6,3.7-2.4
			c0.2-0.1,0-0.4-0.2-0.3c-1.9,1-3.7,2.3-5.2,3.8c-0.1,0.1,0,0.4,0.2,0.3c2.2-0.7,3.9-2.3,5.8-3.5c0.2-0.1,0-0.4-0.2-0.3
			c-2.4,1.3-4.5,3-6.6,4.7c-0.2,0.1,0,0.4,0.2,0.3c2.3-1.3,4.5-2.9,6.8-4.3c0.2-0.1,0-0.4-0.2-0.3c-2.4,1.1-4.7,2.8-6.5,4.8
			c-0.2,0.2,0,0.4,0.2,0.3c2.3-1,4.1-2.7,6.1-4c0.2-0.1,0-0.4-0.2-0.3c-2.2,1.1-4.2,2.5-6,4.2c-0.2,0.2,0,0.4,0.2,0.3
			c2.3-1,4.2-2.7,6.4-4c0.2-0.1,0-0.4-0.2-0.3c-2.3,1.3-4.8,2.6-6.5,4.7c-0.1,0.1,0.1,0.3,0.2,0.3c1-0.3,1.9-0.9,2.7-1.5
			c1.2-0.9,2.6-1.6,3.8-2.5c0.2-0.1,0.1-0.4-0.1-0.3c-2.3,1-4.6,2.5-6.2,4.4c-0.1,0.2,0,0.4,0.2,0.3c1.1-0.5,2.1-1.3,3.2-2
			c1-0.6,2.1-1.1,3-2c0.1-0.1,0-0.4-0.2-0.3c-1.9,0.6-3.9,1.9-5.1,3.5c-0.1,0.1,0.1,0.3,0.2,0.3c1.9-0.6,3.5-1.9,5.1-3.1
			c0.2-0.1,0.1-0.4-0.1-0.3c-1.9,0.6-4.3,2.1-5.3,3.9c-0.1,0.1,0.1,0.3,0.2,0.3c2-0.6,3.6-1.9,5.3-3.1c0.2-0.1,0.1-0.4-0.1-0.3
			c-1.7,0.5-3.7,1.7-4.7,3.2c-0.1,0.1,0.1,0.3,0.2,0.3c1.7-0.4,3.2-1.6,4.5-2.7c0.2-0.1,0-0.4-0.2-0.3c-1.4,0.3-3.2,1.4-3.7,2.8
			c-0.1,0.1,0.1,0.3,0.2,0.2c1.6-0.3,3.2-1.3,4.2-2.5c0.1-0.1,0-0.4-0.2-0.3c-1.5,0.3-3.1,1.4-4,2.7c-0.1,0.1,0,0.3,0.2,0.3
			c1.4,0.1,3.3-1.2,4.2-2.3c0.1-0.1,0-0.4-0.2-0.3c-1.5,0.3-2.8,1.3-3.7,2.5c-0.1,0.2,0,0.3,0.2,0.3c1.4-0.2,2.5-1.2,3.6-2
			c0.2-0.1,0.1-0.4-0.1-0.3c-1.2,0.4-2.3,1.2-3.1,2.2c-0.1,0.1,0.1,0.3,0.2,0.3c1.2-0.3,2.2-1,3.1-1.8c0.1-0.1,0-0.4-0.2-0.3
			c-1.1,0.4-2.1,1.1-2.8,2c-0.1,0.1,0,0.3,0.1,0.3c1.1,0,2.3-0.8,3-1.6c0.1-0.1,0-0.4-0.2-0.3c-1.1,0.2-2.2,1-2.6,2.1
			c0,0.1,0.1,0.2,0.2,0.2c1.1-0.1,2.1-0.8,2.8-1.7c0.1-0.1,0-0.3-0.1-0.3c-1,0-2.2,1-2.5,1.9c0,0.1,0.1,0.2,0.2,0.2
			c1,0,1.9-0.7,2.5-1.4c0.1-0.1,0-0.4-0.2-0.3c-0.8,0.3-1.3,0.7-1.8,1.4c-0.1,0.1,0,0.3,0.1,0.3c0.8,0.1,1.3-0.2,1.8-0.8
			c0.1-0.2,0-0.4-0.2-0.3c-0.5,0.3-0.8,0.5-1,1c-0.1,0.1,0,0.3,0.2,0.3c0.5-0.1,0.8-0.2,1.2-0.6c0.1-0.2,0-0.4-0.2-0.3
			c-0.4,0.3-0.5,0.5-0.7,0.9c0,0.1,0.1,0.2,0.2,0.2c0.3,0,0.3,0,0.6-0.2c-0.1-0.1-0.2-0.1-0.3-0.2c0,0.1,0,0.1-0.1,0.2
			s0.1,0.4,0.3,0.3c0.6-0.5,0.3-1.8,0.1-2.4c-0.2-1.5-0.6-2.9-1-4.3c0-0.2-0.4-0.2-0.4,0.1c0,1.3,0.6,2.5,0.8,3.8
			c0,0.2,0.4,0.2,0.4-0.1c0-1.8-0.3-3.5-0.7-5.3c0-0.2-0.3-0.2-0.4,0c-0.3,1.6,0,3.2,0.6,4.7c0.1,0.1,0.3,0.1,0.3,0
			c0.2-1.3,0.2-3.2-0.7-4.2c-0.1-0.1-0.2-0.1-0.3,0c-0.6,1.1-0.1,2.4,0,3.6c0,0.2,0.4,0.2,0.4,0c0-1.1,0-2.2-0.2-3.3
			c0-0.2-0.3-0.2-0.3,0c-0.7,1.2-0.9,2.8-0.8,4.1c0,0.2,0.3,0.3,0.4,0.1c0.4-0.8,0.6-1.7,0.6-2.6c0-0.1-0.2-0.2-0.3-0.2
			c-1.2,0.9-2.1,2.2-2.9,3.4c-0.1,0.2,0.1,0.4,0.3,0.3c0.9-0.7,1.9-1.4,2.7-2.2c0.2-0.2,0-0.4-0.2-0.3c-1.3,0.6-2.4,1.5-3.5,2.5
			c-0.2,0.2,0.1,0.4,0.3,0.3c1-0.9,2-1.8,3-2.8c0.1-0.1,0-0.4-0.2-0.3c-1.4,0.4-2.4,1.6-3.3,2.6c-0.1,0.2,0,0.4,0.2,0.3
			c1.2-0.8,2.4-1.7,3.3-2.8c0.1-0.1,0-0.4-0.2-0.3c-1.6,0.5-3,1.5-4.1,2.8c-0.1,0.2,0,0.4,0.2,0.3c1.6-0.7,2.9-1.8,4.2-3
			c0.1-0.1,0-0.4-0.2-0.3c-1.6,0.4-2.8,1.6-4.3,2.4c0.1,0.1,0.2,0.2,0.2,0.3c1.3-1.5,3.3-2.2,4.5-3.8c0.1-0.1,0-0.4-0.2-0.3
			c-1.8,0.6-3.3,1.9-4.9,3c-0.2,0.1,0,0.5,0.2,0.3c1.7-1.2,3.5-2.2,5.2-3.4c0.2-0.1,0.1-0.4-0.1-0.3c-1.9,0.6-3.5,1.9-5,3.2
			c-0.2,0.1,0,0.4,0.2,0.3c1.6-0.8,3-2,4.5-2.8c-0.1-0.1-0.1-0.2-0.2-0.3c-1.3,0.9-2.8,1.7-3.9,2.9c-0.1,0.2,0,0.4,0.2,0.3
			c1.4-0.8,2.7-1.7,3.8-2.8c0.1-0.1,0-0.4-0.2-0.3c-1.3,0.5-2.5,1.4-3.5,2.5c-0.1,0.2,0,0.4,0.2,0.3c1-0.5,1.8-1.1,2.6-1.8
			c0.2-0.2,0-0.4-0.2-0.3c-1.1,0.5-2.2,1.1-2.9,2.1c-0.1,0.1,0,0.2,0.1,0.3c0.2,0.1-0.9,0.5-1.1,0.6c0.1,0.1,0.1,0.2,0.2,0.3
			c1-0.7,2-1.5,2.7-2.6c0.1-0.2-0.1-0.3-0.3-0.3c-0.7,0.3-1.3,0.8-1.9,1.3c-0.2,0.2,0.1,0.4,0.3,0.3c1.1-0.8,2-1.8,3.1-2.6
			c0.5-0.4,1-0.7,1.2-1.4c0.1-0.2-0.1-0.3-0.3-0.2c-0.7,0.3-1.2,0.7-1.8,1.1c-0.2,0.1,0.1,0.4,0.2,0.3c0.5-0.3,0.9-0.6,1.3-1
			c0.1-0.1,0-0.4-0.2-0.3c-1,0.2-1.7,0.7-2.6,1.2c0.1,0.1,0.2,0.2,0.2,0.3c0.6-0.5,1.2-1,1.8-1.5c0.1-0.1,0.1-0.3-0.1-0.3
			c-1.8-0.4-3.7,1.7-5,2.6c0.1,0.1,0.2,0.2,0.2,0.3c0.6-0.7,1.5-1.2,2-2c0.1-0.1-0.1-0.3-0.2-0.3c-1.4,0.3-2.5,1.1-3.7,1.9
			c0.1,0.1,0.2,0.2,0.2,0.3c0.6-0.6,1.2-1.1,1.7-1.8c0.1-0.1-0.1-0.3-0.2-0.3c-1,0.4-1.7,1-2.5,1.7c-0.2,0.2,0.1,0.4,0.3,0.3
			c0.6-0.6,1.2-1.1,1.8-1.6c0.1-0.1,0-0.4-0.2-0.3c-1.3,0.5-2.5,1.5-3.5,2.5c-0.2,0.2,0,0.4,0.2,0.3c1.4-0.6,2.6-1.5,3.8-2.4
			c0.2-0.1,0-0.4-0.2-0.3c-1.2,0.6-2.4,1.3-3.3,2.4c-0.1,0.1,0,0.4,0.2,0.3c1-0.3,1.8-1,2.7-1.7c0.2-0.1,0-0.4-0.2-0.3
			c-1,0.5-2.1,1-2.9,1.9c-0.2,0.2,0,0.4,0.2,0.3c1.1-0.5,2.1-1.2,3-1.9c0.2-0.1,0-0.4-0.2-0.3c-1.1,0.5-2.1,1.3-3.2,1.9
			c0.1,0.1,0.2,0.1,0.3,0.2c0.2-1.1,1.5-1.7,2.1-2.6c0.1-0.1-0.1-0.3-0.2-0.3c-1.3,0.5-2.4,1.4-3.6,2.1c0.1,0.1,0.2,0.2,0.3,0.3
			c0.6-1.1,1.7-1.7,2.7-2.4c0.1-0.1,0-0.4-0.2-0.3c-1.4,0.6-2.5,1.5-3.6,2.5c-0.2,0.1,0,0.4,0.2,0.3c1.2-0.8,2.3-1.6,3.4-2.5
			c0.2-0.1,0.1-0.4-0.1-0.3c-1.4,0.4-2.6,1.3-3.8,2.1c-0.2,0.1,0,0.5,0.2,0.3c1-0.6,1.9-1.2,2.8-1.9c0.2-0.1,0-0.4-0.2-0.3
			c-0.9,0.4-1.7,0.9-2.5,1.4c0.1,0.1,0.2,0.2,0.2,0.3c0.3-0.3,0.7-0.5,1.1-0.8c0.2-0.1,0-0.5-0.2-0.3c-0.4,0.3-0.8,0.6-1.1,0.9
			c-0.2,0.1,0,0.4,0.2,0.3c0.8-0.5,1.7-1,2.5-1.4c-0.1-0.1-0.1-0.2-0.2-0.3c-0.9,0.7-1.8,1.3-2.8,1.9c0.1,0.1,0.1,0.2,0.2,0.3
			c1.2-0.8,2.3-1.7,3.7-2c0-0.1-0.1-0.2-0.1-0.3c-1.1,0.8-2.3,1.7-3.4,2.5c0.1,0.1,0.2,0.2,0.2,0.3c1-1,2.1-1.9,3.4-2.4
			c-0.1-0.1-0.1-0.2-0.2-0.3c-1,0.8-2.1,1.4-2.7,2.5c-0.1,0.2,0.1,0.4,0.3,0.3c1.2-0.7,2.2-1.6,3.5-2c-0.1-0.1-0.1-0.2-0.2-0.3
			c-0.6,1-1.9,1.5-2.2,2.7c0,0.2,0.1,0.3,0.3,0.2c1.1-0.5,2.1-1.3,3.2-1.9c-0.1-0.1-0.1-0.2-0.2-0.3c-1,0.7-1.9,1.4-3,1.9
			c0.1,0.1,0.2,0.2,0.2,0.3c0.8-0.8,1.8-1.3,2.8-1.8c-0.1-0.1-0.1-0.2-0.2-0.3c-0.8,0.6-1.6,1.3-2.6,1.6c0.1,0.1,0.1,0.2,0.2,0.3
			c0.9-1,2.1-1.7,3.3-2.3c-0.1-0.1-0.2-0.2-0.2-0.3c-1.2,0.9-2.3,1.7-3.7,2.4c0.1,0.1,0.2,0.2,0.2,0.3c1-1,2.1-1.8,3.4-2.4
			c-0.1-0.1-0.1-0.2-0.2-0.3c-0.6,0.6-1.2,1.1-1.8,1.6c0.1,0.1,0.2,0.2,0.3,0.3c0.7-0.7,1.4-1.2,2.3-1.6c-0.1-0.1-0.1-0.2-0.2-0.3
			c-0.5,0.6-1.1,1.1-1.6,1.7c-0.2,0.1,0,0.4,0.2,0.3c1.2-0.7,2.2-1.5,3.6-1.8c-0.1-0.1-0.1-0.2-0.2-0.3c-0.5,0.8-1.3,1.3-1.9,2
			c-0.1,0.2,0,0.4,0.2,0.3c0.8-0.6,1.5-1.2,2.3-1.7c0.5-0.4,1.1-0.7,1.7-0.9c0.3,0,0.3,0.1-0.2,0.3c-0.4,0.3-0.7,0.6-1.1,0.9
			c-0.2,0.1,0,0.4,0.2,0.3c0.8-0.5,1.6-0.9,2.5-1.2c-0.1-0.1-0.1-0.2-0.2-0.3c-0.4,0.4-0.8,0.7-1.2,0.9c0.1,0.1,0.2,0.2,0.2,0.3
			c0.6-0.5,1-0.8,1.7-1.1c-0.1-0.1-0.2-0.1-0.3-0.2c-0.3,0.8-1.3,1.2-1.9,1.8c-0.8,0.6-1.5,1.4-2.3,2c0.1,0.1,0.2,0.2,0.3,0.3
			c0.6-0.5,1.1-1,1.8-1.3c-0.1-0.1-0.2-0.2-0.3-0.3c-0.7,1-1.6,1.8-2.6,2.5c-0.2,0.1,0,0.5,0.2,0.3c0.4-0.3,0.9-0.6,1.3-0.9
			c0.1-0.1,0-0.3-0.1-0.3s2.1-1.6,2.7-1.8c-0.1-0.1-0.2-0.2-0.2-0.3c-0.8,0.7-1.6,1.3-2.5,1.8c0.1,0.1,0.2,0.2,0.2,0.3
			c0.9-1,2-1.8,3.3-2.4c-0.1-0.1-0.1-0.2-0.2-0.3c-1.1,1.1-2.4,2-3.7,2.8c0.1,0.1,0.2,0.2,0.2,0.3c1.1-1.2,2.5-1.9,3.8-2.9
			c0.2-0.1,0-0.4-0.2-0.3c-1.6,0.9-2.9,2-4.5,2.8c0.1,0.1,0.2,0.2,0.2,0.3c1.4-1.3,3-2.5,4.8-3.1c0-0.1-0.1-0.2-0.1-0.3
			c-1.7,1.2-3.5,2.3-5.2,3.4c0.1,0.1,0.1,0.2,0.2,0.3c1.6-1.1,3-2.3,4.8-2.9c-0.1-0.1-0.1-0.2-0.2-0.3c-1.3,1.6-3.2,2.3-4.5,3.8
			c-0.1,0.2,0,0.4,0.2,0.3c1.4-0.7,2.6-1.9,4.2-2.3c-0.1-0.1-0.1-0.2-0.2-0.3c-1.3,1.1-2.6,2.3-4.2,2.9c0.1,0.1,0.2,0.2,0.2,0.3
			c1-1.2,2.4-2.2,3.9-2.7c-0.1-0.1-0.1-0.2-0.2-0.3c-0.9,1.1-2.1,1.9-3.3,2.7c0.1,0.1,0.2,0.2,0.2,0.3c0.9-1,1.8-2.1,3.1-2.5
			c-0.1-0.1-0.1-0.2-0.2-0.3c-0.9,1-1.9,1.9-3,2.8c0.1,0.1,0.2,0.2,0.3,0.3c1-1,2.1-1.9,3.4-2.4c-0.1-0.1-0.2-0.2-0.2-0.3
			c-0.8,0.8-1.7,1.5-2.6,2.1c0.1,0.1,0.2,0.2,0.3,0.3c0.5-0.8,1.1-1.6,1.7-2.3c0.1-0.1,0.8-0.7,0.8-0.7c0,0.7-0.2,1.3-0.5,2
			c0.1,0,0.2,0.1,0.4,0.1c-0.1-1.3,0.1-2.8,0.7-3.9c-0.1,0-0.2,0-0.3,0c0.2,1.1,0.2,2.1,0.2,3.2c0.1,0,0.3,0,0.4,0
			c0-0.4-0.1-0.7-0.2-1.1s-0.1-0.7-0.2-1.1c-0.1-0.3,0-0.6,0.2-0.8c0.6,0.9,0.6,2.5,0.4,3.5c0.1,0,0.2,0,0.3,0
			c-0.6-1.4-0.9-2.9-0.6-4.4c-0.1,0-0.2,0-0.4,0c0.4,1.7,0.7,3.4,0.7,5.2c0.1,0,0.2,0,0.4-0.1c-0.3-1.2-0.8-2.4-0.8-3.7
			c-0.1,0-0.2,0-0.4,0.1c0.2,0.9,0.4,1.8,0.6,2.7c0.1,0.6,1,3.2,0.3,3.6c0.1,0.1,0.2,0.2,0.3,0.3c0-0.1,0.1-0.2,0.1-0.3
			c0-0.2-0.1-0.3-0.3-0.2c0.1-0.1,0.2-0.2,0.3-0.3c-0.1-0.1-0.2-0.2-0.2-0.3c0.1,0,0.1,0,0.2,0c-0.1-0.1-0.2-0.2-0.2-0.3
			c-0.5,0.5-1.8,0.5,0.3-0.2c-0.1-0.1-0.1-0.2-0.2-0.3c-0.4,0.6-1,1-1.6,1.3c-0.1-0.2,0-0.4,0.2-0.5c0.4-0.4,1-0.8,1.5-0.8
			c0-0.1-0.1-0.2-0.1-0.3c-0.5,0.7-1.2,1.2-2,1.5c0-0.1,0-0.2,0-0.3c0.2-0.3,0.5-0.5,0.8-0.7s0.7-0.4,1.1-0.5
			c-0.1-0.1-0.1-0.2-0.2-0.3c-0.6,0.8-1.7,1.6-2.7,1.5c0,0.1,0.1,0.2,0.1,0.3c0.7-0.9,1.6-1.5,2.7-1.9c-0.1-0.1-0.1-0.2-0.2-0.3
			c-0.9,0.8-1.8,1.4-2.9,1.7c0.1,0.1,0.1,0.2,0.2,0.3c0.7-1,1.7-1.7,2.8-2c0-0.1-0.1-0.2-0.1-0.3c-1.1,0.8-2.2,1.8-3.5,2
			c0.1,0.1,0.1,0.2,0.2,0.3c0.9-1.1,2.1-2.1,3.6-2.4c-0.1-0.1-0.1-0.2-0.2-0.3c-0.8,0.9-2.1,1.7-3.3,2.1c-1,0.3,0.8-1,1-1.1
			c0.7-0.5,1.4-0.9,2.3-1.1c-0.1-0.1-0.1-0.2-0.2-0.3c-1,1.1-2.3,2-3.7,2.4c0.4-0.1,1.2-1.2,1.6-1.5c0.5-0.4,1.1-0.6,1.7-0.8
			c-0.1-0.1-0.1-0.2-0.2-0.3c-1.2,1.1-2.7,2.3-4.3,2.6c0.1,0.1,0.1,0.2,0.2,0.3c0.9-1.5,2.8-2.6,4.4-3.1c0-0.1-0.1-0.2-0.1-0.3
			c-1.7,1.2-3.3,2.5-5.2,3.1c0.1,0.1,0.1,0.2,0.2,0.3c0.9-1.7,3.3-3.1,5-3.7c0-0.1-0.1-0.2-0.1-0.3c-1.6,1.2-3.2,2.4-5,3.1
			c0.1,0.1,0.1,0.2,0.2,0.3c1.2-1.5,3.1-2.8,4.9-3.4c-0.1-0.1-0.1-0.2-0.2-0.3c-0.9,0.8-1.9,1.3-2.9,1.9c-1.1,0.7-2,1.4-3.2,2
			c0.1,0.1,0.2,0.2,0.2,0.3c1.6-1.9,3.8-3.4,6-4.4c0-0.1-0.1-0.2-0.1-0.3c-1,0.7-2,1.4-3.1,2c-1.1,0.7-2,1.6-3.3,1.9
			c0.1,0.1,0.1,0.2,0.2,0.3c1.6-2.1,4.1-3.4,6.3-4.6c-0.1-0.1-0.1-0.2-0.2-0.3c-2.2,1.3-4.1,3-6.4,4c0.1,0.1,0.2,0.2,0.2,0.3
			c1.7-1.7,3.7-3.1,5.9-4.2c-0.1-0.1-0.1-0.2-0.2-0.3c-2.1,1.3-3.9,3-6.1,4c0.1,0.1,0.2,0.2,0.2,0.3c1.8-2,4-3.6,6.4-4.7
			c-0.1-0.1-0.1-0.2-0.2-0.3c-2.3,1.4-4.5,3-6.8,4.3c0.1,0.1,0.2,0.2,0.2,0.3c2.1-1.7,4.2-3.4,6.6-4.6c-0.1-0.1-0.1-0.2-0.2-0.3
			c-1.9,1.2-3.5,2.8-5.7,3.5c0.1,0.1,0.1,0.2,0.2,0.3c1.5-1.5,3.2-2.8,5.1-3.8c-0.1-0.1-0.1-0.2-0.2-0.3c-1,0.6-2,1.2-3,1.9
			c-1.2,0.8-2.2,1.8-3.6,2.3c0.1,0.1,0.1,0.2,0.2,0.3c1.3-1.9,3.6-3,5.6-4.1c-0.1-0.1-0.1-0.2-0.2-0.3c-1.8,1.4-3.7,2.7-5.7,3.7
			c0.1,0.1,0.2,0.2,0.2,0.3c1.3-1.3,2.9-2.3,4.4-3.3c0.2-0.1,0-0.4-0.2-0.3c-1.7,0.8-3.2,2-4.9,2.7c0.1,0.1,0.2,0.2,0.2,0.3
			c1.4-1.3,3.1-2.2,4.6-3.3c0.2-0.1,0-0.5-0.2-0.3c-1.9,1.2-3.6,2.5-5.6,3.6c0.1,0.1,0.2,0.2,0.2,0.3c1.4-1.5,3.4-2.4,5-3.9
			c0.1-0.1,0-0.4-0.2-0.3c-2.6,0.8-4.5,2.7-6.7,4c0.1,0.1,0.2,0.2,0.2,0.3c1.5-1.3,3.2-2.4,4.8-3.4c0.2-0.1,0-0.4-0.2-0.3
			c-1.9,1.1-3.7,2.3-5.5,3.5c0.1,0.1,0.2,0.2,0.2,0.3c1.5-1.4,3.2-2.4,4.8-3.5c0.2-0.1,0-0.5-0.2-0.3c-2.1,1.3-3.9,2.9-6,4.1
			c0.1,0.1,0.2,0.2,0.2,0.3c1.6-1.5,3.5-2.6,5.3-3.9c0.2-0.1,0-0.4-0.2-0.3c-2.2,1.2-4.1,2.9-6.5,3.8c0.1,0.1,0.1,0.2,0.2,0.3
			c1.6-1.4,3.3-2.7,5.3-3.5c-0.1-0.1-0.2-0.2-0.2-0.3c-1.7,1.4-3.5,2.9-5.7,3.5c0.1,0.1,0.1,0.2,0.2,0.3c1.2-1.6,3-2.7,4.7-3.6
			c-0.1-0.1-0.1-0.2-0.2-0.3c-1.8,1.2-3.5,2.9-5.7,3.4c0.1,0.1,0.1,0.2,0.2,0.3c1.4-1.5,3.1-2.7,5-3.5c-0.1-0.1-0.1-0.2-0.2-0.3
			c-1.9,1.3-3.8,2.6-5.8,3.8c0.1,0.1,0.2,0.2,0.2,0.3c1.5-1.5,3.2-2.6,5-3.6c-0.1-0.1-0.1-0.2-0.2-0.3c-1.8,1.2-3.6,2.4-5.5,3.5
			c0.1,0.1,0.2,0.2,0.2,0.3c1.3-1.1,2.7-2,4.1-3c0.1-0.1,0-0.4-0.2-0.3c-1.6,0.5-2.9,1.6-4.3,2.7c-0.2,0.1,0.1,0.4,0.2,0.3
			c1-0.7,2.1-1.4,3.2-2.1c0.2-0.1,0.1-0.4-0.1-0.3c-1.4,0.6-2.5,1.6-3.9,2.2c0.1,0.1,0.2,0.2,0.2,0.3c0.7-0.8,1.5-1.5,2.5-1.8
			c0-0.1-0.1-0.2-0.1-0.3c-0.7,0.4-1.6,0.6-2.3,1C9,103.7,9.1,104,9.3,104c0.6,0,1-0.2,1.2-0.7c0.1-0.2-0.1-0.4-0.3-0.3
			c-0.6,0.4-1,0.9-1.4,1.4c0.1,0,0.2,0.1,0.3,0.1c0.1-0.3,0.2-0.5,0.3-0.8c0.1-0.2-0.3-0.3-0.3-0.1c-0.3,0.6-0.4,1.2-0.8,1.8
			c0.1,0,0.2,0.1,0.4,0.1c0.1-0.4,0.3-0.8,0.4-1.2c-0.1,0-0.2-0.1-0.3-0.1c0,0.4-0.1,0.9-0.3,1.3c0.1,0,0.2,0,0.4,0.1
			c0-0.6,0.1-1.1,0.5-1.6c-0.1,0-0.2-0.1-0.4-0.1c0,0.5-0.1,1-0.3,1.5c0.1,0,0.2,0.1,0.4,0.1c0.1-0.5,0.2-1,0.5-1.4
			c-0.1,0-0.2-0.1-0.4-0.1c0,0.4,0,0.8-0.2,1.1c0.1,0,0.2,0.1,0.4,0.1c0.1-0.5,0.2-0.9,0.5-1.3c-0.1,0-0.2-0.1-0.4-0.1
			c0.1,0.5,0,1-0.1,1.5c0.1,0,0.2,0,0.4,0.1c0-0.5,0.1-0.9,0.2-1.3C11.4,101,11.1,100.8,11,101.1L11,101.1z"/>
	</g>
	<g>
		<path class="st11" d="M9.9,102.7c0,0,0,0.1-0.1,0.1c0,0.1,0,0.2,0.1,0.2c0.3,0.1,0.2,0.1,0.6,0.1c0-0.1,0-0.2,0.1-0.4
			c-0.2,0-0.4,0-0.6,0c-0.2,0-0.3,0.3-0.1,0.4c0.4,0.2,0.4,0.2,0.8,0.3c0.2,0.1,0.3-0.3,0.1-0.4C10.5,102.8,10.2,102.7,9.9,102.7
			c-0.3,0-0.4,0.3-0.2,0.4c0.6,0.2,1.2,0.3,1.6,0.7c0.1-0.1,0.2-0.2,0.3-0.3c-0.4-0.4-0.9-0.8-1.3-1.1c-0.2-0.1-0.4,0.2-0.2,0.3
			c0.7,0.6,1.3,1.2,2.1,1.6c0.2,0.1,0.4-0.1,0.2-0.3c-0.6-0.7-1.2-1.1-2-1.6c-0.2-0.1-0.4,0.2-0.2,0.3c0.8,0.7,1.6,1.4,2.5,2
			c0.2,0.1,0.4-0.1,0.2-0.3c-0.7-0.8-1.6-1.5-2.3-2.3c-0.1,0.1-0.2,0.2-0.3,0.3c0.8,0.8,1.6,1.7,2.5,2.4c0.2,0.1,0.3-0.1,0.3-0.3
			c-0.5-1-1.4-1.7-2.3-2.4c-0.2-0.1-0.4,0-0.3,0.2c0.7,1,1.6,2.2,2.8,2.6c0.2,0,0.3-0.1,0.2-0.3c-0.5-1.1-1.5-1.9-2.5-2.6
			c-0.2-0.1-0.4,0.1-0.3,0.3c0.6,0.9,1.4,1.9,2.5,2.3c0.1,0,0.3-0.1,0.2-0.2c-0.4-1-1.3-1.7-2.2-2.2c-0.2-0.1-0.4,0.1-0.3,0.3
			c0.6,1,1.5,2,2.6,2.5c0.1,0.1,0.3-0.1,0.2-0.2c-0.4-1.2-1.4-2-2.4-2.7c-0.2-0.1-0.4,0.1-0.2,0.3c0.8,0.8,1.4,1.7,2.4,2.3
			c0.1,0.1,0.3-0.1,0.3-0.2c-0.4-1.2-1.3-2-2.2-2.9c-0.2-0.2-0.4,0-0.3,0.2c0.5,1.1,1.3,2.2,2.4,2.7c0.1,0.1,0.3,0,0.3-0.2
			c-0.3-1.1-1-1.9-1.9-2.6c-0.2-0.1-0.4,0-0.3,0.2c0.4,1,1.1,1.9,2,2.5c0.2,0.1,0.3-0.1,0.3-0.2c-0.1-1-0.7-1.7-1.4-2.4
			c-0.1-0.1-0.4,0-0.3,0.2c0.3,0.9,0.8,1.5,1.5,2.1c0.1,0.1,0.3,0,0.3-0.1c-0.1-1-0.5-1.8-1.2-2.5c-0.1-0.1-0.3,0-0.3,0.2
			c0.2,1,0.6,1.8,1.3,2.5c0.1,0.1,0.3,0,0.3-0.1c0-1.2-0.5-2.3-1-3.3c-0.1-0.2-0.4-0.1-0.3,0.1c0.2,1.1,0.6,2.3,1.4,3.1
			c0.1,0.1,0.3,0,0.3-0.1c0-1.2-0.3-2.4-0.9-3.5c-0.1-0.2-0.4-0.1-0.4,0.1c0,1.2,0.4,2.3,1,3.3c0.1,0.2,0.3,0.1,0.4-0.1
			c0.1-1-0.2-2-0.6-2.9c-0.1-0.2-0.4-0.2-0.4,0.1c0,1,0.2,1.9,0.6,2.8c0.1,0.2,0.4,0.1,0.4-0.1c-0.1-1-0.3-2-0.6-2.9
			c-0.1-0.2-0.4-0.2-0.4,0.1c0,1.2,0.1,2.3,0.6,3.4c0.1,0.2,0.3,0.1,0.4-0.1c0.1-0.9,0-1.8,0-2.7c0-0.2-0.4-0.2-0.4,0
			c0,0.8,0,1.5,0.5,2.1c0.1,0.1,0.3,0,0.3-0.1c0.1-0.8,0-1.6-0.1-2.4c0-0.2-0.4-0.2-0.4,0.1c-0.1,0.9,0,1.8,0.6,2.5
			c0.1,0.1,0.3,0,0.3-0.1c0-0.6-0.1-1.2-0.2-1.8c0-0.2-0.4-0.2-0.4,0.1c0.1,0.7,0.2,1.4,0.6,2c0.1,0.1,0.3,0.1,0.4-0.1
			c0-0.5-0.1-1-0.2-1.5c-0.1-0.2-0.4-0.2-0.4,0.1c0,0.8,0.2,1.6,0.6,2.4c0.1,0.2,0.3,0.1,0.4-0.1c0-0.6,0-1.2-0.2-1.8
			c-0.1-0.2-0.4-0.2-0.4,0.1c0,0.9,0.1,1.8,0.3,2.7c0,0.2,0.4,0.2,0.4-0.1c-0.1-0.6-0.1-1.2-0.2-1.9c0-0.2-0.4-0.2-0.4,0
			c0,0.7,0,1.4,0.1,2c0,0.2,0.4,0.1,0.4-0.1c0-0.5,0-0.8-0.1-1.2c-0.1-0.2-0.4-0.2-0.4,0.1c-0.1,0.6,0,1.2,0.1,1.8
			c0.1,0.2,0.4,0.2,0.4-0.1c0-0.4,0-0.4-0.1-0.8c-0.1-0.2-0.4-0.1-0.4,0.1c0,0.3,0.1,0.5,0.1,0.8c0.1,0,0.2-0.1,0.4-0.1
			c-0.1-0.4-0.1-0.8-0.2-1.2c0-0.2-0.4-0.2-0.4,0.1c0,0.3,0,0.6,0,0.9c0.1,0,0.2,0,0.4-0.1c-0.1-0.4-0.1-0.8-0.1-1.2
			c0-0.2-0.4-0.2-0.4,0c0,0.4,0,0.8,0,1.2c0,0.2,0.4,0.2,0.4,0c0.1-1.1,0.4-2.3-0.3-3.3c-0.1-0.1-0.3,0-0.3,0.1
			c-0.2,0.7-0.2,1.3-0.1,2c0,0.2,0.4,0.2,0.4-0.1c0-0.3,0-0.6,0.1-0.8c-0.1,0-0.2,0-0.3,0c0.1,0.1,0.1,0.3,0.2,0.4
			c0.1-0.1,0.2-0.2,0.3-0.3c-0.2-0.2-0.3-0.3-0.5-0.5c-0.1-0.2-0.4,0-0.3,0.2c0.1,0.5,0.3,0.9,0.5,1.4c0.1,0.2,0.4,0.1,0.3-0.1
			c-0.2-0.6-0.5-1.1-0.8-1.6c-0.1-0.2-0.4-0.1-0.3,0.1c0.2,0.9,0.5,1.7,0.8,2.5c0.1,0.2,0.4,0.1,0.4-0.1c-0.3-1-0.6-1.9-1.3-2.8
			c-0.1-0.2-0.3,0-0.3,0.2c0.2,1,0.7,1.9,1.1,2.8c0.1,0.2,0.4,0,0.3-0.2c-0.4-0.8-0.8-1.5-1.2-2.3c-0.1-0.2-0.4-0.1-0.3,0.1
			c0.3,0.8,0.7,1.5,1.1,2.3c0.1-0.1,0.2-0.1,0.3-0.2c-0.3-0.7-0.7-1.2-1.3-1.8c-0.2-0.2-0.4,0-0.3,0.2c0.4,0.7,0.8,1.2,1.3,1.8
			c0.2,0.2,0.4-0.1,0.3-0.3c-0.7-0.7-1.4-1.4-2.4-1.5c-0.1,0-0.2,0.2-0.2,0.3c0.6,0.8,1.3,1.2,2.2,1.6c0.2,0.1,0.3-0.2,0.1-0.3
			c-0.8-0.5-1.6-0.8-2.5-1.1c-0.1,0-0.3,0.1-0.2,0.3c0.4,0.6,1,0.8,1.7,1c0.2,0,0.3-0.2,0.2-0.3c-0.5-0.5-1-0.7-1.7-0.7
			c-0.2,0-0.2,0.2-0.2,0.3c0.3,0.7,1,0.9,1.7,0.9c0.2,0,0.2-0.2,0.1-0.3c-0.5-0.5-1.1-0.7-1.8-0.7c-0.1,0-0.2,0.2-0.2,0.3
			c0.3,0.4,0.5,0.5,1.1,0.6c0.1,0,0.3-0.1,0.2-0.3c-0.2-0.3-0.2-0.2-0.4-0.5c-0.1,0.1-0.2,0.2-0.2,0.3c0.4,0.2,1.6,0.8,2,0.2
			c0.4-0.6-0.8-1.2-1.2-1.4c-0.2-0.1-0.4,0.2-0.2,0.3c2.4,1.9,1.3-1,0.8-2.3c-0.1,0.1-0.2,0.1-0.3,0.2c0.1,0.1,0.1,0.1,0.2,0.2
			c0.1,0.1,0.3,0.1,0.3-0.1c0.2-0.7,0.6-1.2,1.1-1.8c0.3-0.4,0.7-0.6,1-0.9c1.8-1.3,0.9,0.9,0.2,0.7c-0.1,0-0.2,0-0.2,0.1
			c-0.1,0.2-0.2,0.4-0.3,0.6c0.1,0,0.2,0.1,0.3,0.1c0.4-1.2-1.1-1.6-2-1.7c0,0.1,0.1,0.2,0.1,0.4c0.4-0.4,0.9-0.6,1.6-0.5
			c0-0.1-0.1-0.2-0.1-0.3c-0.5,0.4-1.1,0.4-1.7,0.4c0,0.1,0.1,0.2,0.1,0.4c0.9-0.6,2-0.5,3-0.6c0-0.1-0.1-0.2-0.1-0.4
			c-0.3,0.1-0.6,0.1-0.9,0.1c0,0.1,0.1,0.2,0.1,0.4c1.5-0.3,2.9-0.9,4.4-0.5c0-0.1,0-0.2,0-0.4c-1.3,0.3-2.7,0.2-4,0.3
			c-0.2,0-0.2,0.4,0,0.4c1.5-0.1,3-0.3,4.5-0.5c0-0.1-0.1-0.2-0.1-0.4c-1.4,0.3-2.9,0.5-4.2,1.1c-0.2,0.1-0.1,0.4,0.1,0.4
			c1.8-0.1,3.5-0.9,5.3-1.2c0-0.1-0.1-0.2-0.1-0.4c-1,0.4-2.1,0.6-3.1,1.1c-0.2,0.1-0.1,0.4,0.1,0.3c1-0.3,2.1-0.6,3.2-0.8
			c0-0.1-0.1-0.2-0.1-0.4c-1.3,0.4-2.6,0.8-3.8,1.5c-0.2,0.1-0.1,0.4,0.1,0.3c1.1-0.2,2.1-0.6,3.1-0.8c0-0.1-0.1-0.2-0.1-0.4
			c-1.6,0.6-3.2,1.2-4.7,1.9c0,0.1,0.1,0.2,0.1,0.3c0.5-0.3,1.1-0.6,1.7-0.8c0.2-0.1,0-0.4-0.2-0.3c-1.6,0.7-3.2,1.4-4.4,2.6
			c-0.1,0.1,0,0.3,0.2,0.3c1.9-0.3,3.5-1.5,5.2-2.4c0.2-0.1,0-0.4-0.2-0.3c-1.8,0.9-3.7,1.6-5.1,3.1c-0.1,0.1,0,0.4,0.2,0.3
			c1.9-0.3,3.5-1.5,5-2.6c0.2-0.1,0.1-0.4-0.1-0.3c-1.8,0.7-3.5,1.6-4.8,2.9c-0.1,0.1,0,0.4,0.2,0.3c1.8-0.6,3.4-1.8,5-2.9
			c0.2-0.1,0.1-0.4-0.1-0.3c-1.7,0.6-3.2,1.6-4.4,2.9c-0.1,0.1,0,0.4,0.2,0.3c1.4-0.5,2.5-1.3,3.6-2.2c0.2-0.1,0-0.4-0.2-0.3
			c-1.4,0.6-2.7,1.4-3.6,2.7c-0.1,0.1,0.1,0.3,0.2,0.3c1.3-0.4,2.3-1.4,3.2-2.3c0.1-0.1,0-0.4-0.2-0.3c-1.2,0.4-2,1.3-2.7,2.3
			c-0.1,0.2,0.2,0.4,0.3,0.2c0.6-0.7,1.3-1.3,1.9-2c0.2-0.2,0-0.4-0.2-0.3c-1.1,0.6-1.9,1.7-2.4,2.8c-0.1,0.2,0.2,0.4,0.3,0.2
			c0.5-0.7,1-1.4,1.5-2.1c0.1-0.2-0.2-0.4-0.3-0.2c-0.7,0.8-1.2,1.5-1.4,2.6c0,0.2,0.2,0.3,0.3,0.1c0.5-0.8,0.9-1.7,1.3-2.5
			c0.1-0.2-0.1-0.4-0.3-0.2c-0.7,0.8-1.1,1.7-1.3,2.7c0,0.2,0.2,0.4,0.3,0.1c0.4-0.7,0.7-1.4,1-2.2c0.1-0.2-0.2-0.3-0.3-0.2
			c-0.5,0.4-0.8,0.9-1.1,1.4c0.1,0.1,0.2,0.1,0.3,0.2c0.5-1,1.2-1.7,2-2.4c0.5-0.4,1-0.8,1.5-1.2c0.8-0.6,0.4,0.6-0.1,0.1
			c-0.1-0.1-0.3-0.1-0.3,0c-0.2,0.8-0.2,1.5-0.2,2.3c0.1,0,0.3,0,0.4,0c-0.1-0.6-0.1-1.2-0.1-1.8c0-0.2-0.3-0.3-0.4-0.1
			c-0.2,0.8-0.2,1.5-0.2,2.3c0.1,0,0.2,0,0.4-0.1c-0.1-0.6-0.3-1.2-0.4-1.8c-0.1-0.2-0.4-0.2-0.4,0.1c0,0.5,0.1,0.9,0.4,1.4
			c0.1,0.2,0.4,0.2,0.4-0.1c0-0.4-0.1-0.7-0.4-1.1c-0.1-0.2-0.4,0-0.3,0.2c0.3,0.5,0.2,0.4,0.6,0.9c0.1,0.1,0.3,0,0.3-0.1
			c0,0.1,0,0.2,0,0.2c-0.1,0.2,0.2,0.4,0.3,0.2c0.2-0.5,0.4-0.9,0.4-1.5c0-0.1-0.1-0.2-0.2-0.2c-0.7,0.2-0.8,0.5-0.8,1.2
			c0.1,0,0.2-0.1,0.3-0.1c-0.2-0.3-0.3-0.5-0.5-0.8c-0.1,0.1-0.2,0.1-0.3,0.2c0.1,0.3,0.2,0.6,0.3,0.9c0.1,0,0.2,0,0.4-0.1
			c-0.2-0.4-0.3-0.9-0.3-1.3c-0.1,0-0.2,0-0.4,0.1c0.2,0.6,0.3,1.2,0.4,1.8c0,0.2,0.4,0.2,0.4-0.1c0-0.8,0-1.5,0.2-2.2
			c-0.1,0-0.2,0-0.4-0.1c0,0.6,0.1,1.2,0.1,1.8c0,0.2,0.4,0.2,0.4,0c0-0.7,0-1.4,0.2-2.2c-0.1,0-0.2,0-0.3,0c0.3,0.4,0.5,0.6,1,0.6
			c0.1,0,0.2-0.1,0.2-0.2c-0.1-0.5,0-0.9,0-1.4c0-0.1-0.2-0.2-0.3-0.2c-1.6,1.2-3.3,2.4-4.3,4.3c-0.1,0.2,0.2,0.4,0.3,0.2
			c0.3-0.5,0.6-0.9,1.1-1.3c-0.1-0.1-0.2-0.1-0.3-0.2c-0.3,0.7-0.6,1.4-0.9,2.1c0.1,0,0.2,0.1,0.3,0.1c0.1-1,0.5-1.8,1.2-2.5
			c-0.1-0.1-0.2-0.2-0.3-0.2c-0.4,0.8-0.8,1.7-1.3,2.5c0.1,0,0.2,0.1,0.3,0.1c0.2-1,0.6-1.7,1.3-2.4c-0.1-0.1-0.2-0.2-0.3-0.2
			c-0.5,0.7-1,1.4-1.5,2.1c0.1,0.1,0.2,0.1,0.3,0.2c0.5-1.1,1.2-2.1,2.3-2.7c-0.1-0.1-0.2-0.2-0.2-0.3c-0.6,0.7-1.3,1.3-1.9,2
			c0.1,0.1,0.2,0.2,0.3,0.2c0.7-0.9,1.4-1.8,2.5-2.1c-0.1-0.1-0.1-0.2-0.2-0.3c-0.9,0.9-1.8,1.8-3,2.2c0.1,0.1,0.1,0.2,0.2,0.3
			c0.8-1.2,2.1-2,3.4-2.5c-0.1-0.1-0.1-0.2-0.2-0.3c-1.1,0.8-2.2,1.7-3.5,2.1c0.1,0.1,0.1,0.2,0.2,0.3c1.2-1.2,2.7-2.2,4.2-2.8
			c0-0.1-0.1-0.2-0.1-0.3c-1.6,1.1-3.1,2.2-4.9,2.9c0.1,0.1,0.1,0.2,0.2,0.3c1.3-1.3,3-2.2,4.7-2.8c0-0.1-0.1-0.2-0.1-0.3
			c-1.4,1.1-3.1,2.3-4.9,2.6c0.1,0.1,0.1,0.2,0.2,0.3c1.4-1.4,3.3-2.1,5.1-3c-0.1-0.1-0.1-0.2-0.2-0.3c-1.6,0.9-3.2,2.1-5.1,2.4
			c0.1,0.1,0.1,0.2,0.2,0.3c1.2-1.2,2.8-1.9,4.4-2.6c-0.1-0.1-0.1-0.2-0.2-0.3c-0.6,0.3-1.1,0.5-1.7,0.8c-0.2,0.1-0.1,0.4,0.1,0.3
			c1.6-0.6,3.2-1.2,4.7-1.9c0.2-0.1,0.1-0.4-0.1-0.4c-1,0.2-2,0.6-3.1,0.8c0,0.1,0.1,0.2,0.1,0.3c1.2-0.7,2.4-1.1,3.7-1.4
			c0.2-0.1,0.1-0.4-0.1-0.4c-1.1,0.2-2.1,0.5-3.2,0.8c0,0.1,0.1,0.2,0.1,0.3c1-0.4,2-0.6,3-1c0.2-0.1,0.1-0.4-0.1-0.4
			c-1.8,0.3-3.4,1.1-5.2,1.2c0,0.1,0.1,0.2,0.1,0.4c1.3-0.6,2.8-0.8,4.1-1.1c0.2-0.1,0.1-0.4-0.1-0.4c-1.4,0.2-2.9,0.4-4.4,0.5
			c0,0.1,0,0.3,0,0.4c1.4-0.1,2.8-0.1,4.1-0.4c0.2,0,0.2-0.3,0-0.4c-1.6-0.5-3.1,0.2-4.6,0.5c-0.2,0-0.1,0.4,0.1,0.4
			c0.3,0,0.6-0.1,0.9-0.1c0.2,0,0.1-0.4-0.1-0.4c-1.1,0.2-2.1,0-3.1,0.6c-0.2,0.1-0.1,0.4,0.1,0.4c0.7,0,1.3-0.1,1.9-0.5
			c0.1-0.1,0-0.3-0.1-0.3c-0.7,0-1.2,0.1-1.7,0.6c-0.1,0.1-0.1,0.3,0.1,0.4c0.5,0,2,0.3,1.6,1.2c-0.1,0.2,0.2,0.3,0.3,0.1
			c0.4-0.6,0.5-0.1,1-0.2c0.5-0.2,0.7-0.3,0.9-0.8c0.3-0.6-0.2-1-0.6-1.2c-1.2-0.5-4,2.6-3.6,3c-0.1-0.1-0.4,0-0.3,0.2
			c0.2,0.5,0.4,0.9,0.5,1.4c0.3,0.9,0.4,1.4-0.7,0.6c-0.1,0.1-0.2,0.2-0.2,0.3c0.2,0.1,0.4,0.2,0.6,0.4c0.1,0.5-0.1,0.6-0.4,0.4
			c-0.2-0.1-0.4-0.2-0.7-0.3c-0.2-0.1-0.4,0.2-0.2,0.3c0.1,0.1,0.3,0.2,0.4,0.4c0.1-0.1,0.1-0.2,0.2-0.3c-0.7-0.2-0.5,0,0.5,0.5
			c0-0.1,0.1-0.2,0.1-0.3c-0.9-0.1-1.3-0.9-0.1,0.2c0.1-0.1,0.1-0.2,0.2-0.3c-0.6-0.1-1.1-0.4-1.5-0.8c-0.1,0.1-0.1,0.2-0.2,0.3
			c0.8,0.2,1.6,0.5,2.4,1c0-0.1,0.1-0.2,0.1-0.3c-0.3-0.1-0.5-0.2-0.8-0.3c-0.3,0-0.4-0.2-0.5-0.5c0.4,0.2,0.8,0.7,1.2,1
			c0.1-0.1,0.2-0.2,0.3-0.3c-0.5-0.5-0.9-1.1-1.2-1.7c-0.1,0.1-0.2,0.2-0.3,0.2c0.5,0.5,0.9,1,1.2,1.7c0.1,0.2,0.4,0,0.3-0.2
			c-0.4-0.7-0.7-1.5-1-2.2c-0.1,0-0.2,0.1-0.3,0.1c0.5,0.7,0.9,1.5,1.2,2.3c0.1-0.1,0.2-0.1,0.3-0.2c-0.5-0.9-0.9-1.7-1.1-2.7
			c-0.1,0.1-0.2,0.1-0.3,0.2c0.6,0.8,0.9,1.7,1.2,2.6c0.1,0,0.2-0.1,0.4-0.1c-0.3-0.8-0.6-1.7-0.8-2.5c-0.1,0-0.2,0.1-0.3,0.1
			c0.3,0.5,0.6,1,0.8,1.5c0.1,0,0.2-0.1,0.3-0.1c-0.2-0.4-0.4-0.8-0.5-1.3c-0.1,0.1-0.2,0.1-0.3,0.2c0.3,0.4,0.2,0.3,0.6,0.6
			c0.2,0.1,0.3-0.1,0.3-0.3c-0.1-0.1-0.1-0.3-0.2-0.4s-0.3-0.1-0.3,0c-0.1,0.5-0.1,0.4-0.1,0.9c0.1,0,0.2,0,0.4-0.1
			c-0.1-0.7,0-2.3,0.1-0.5c0,0.6-0.1,1.2-0.2,1.8c0.1,0,0.3,0,0.4,0c0-0.4,0-0.8,0-1.2c-0.1,0-0.3,0-0.4,0c0,0.5,0,0.8,0.1,1.3
			c0,0.2,0.4,0.2,0.4-0.1c0-0.3,0-0.6,0-0.9c-0.1,0-0.2,0-0.4,0.1c0.1,0.4,0.1,0.8,0.2,1.2c0,0.2,0.4,0.1,0.4-0.1
			c0-0.3-0.1-0.5-0.1-0.8c-0.1,0-0.2,0.1-0.4,0.1c0,0.2,0.1,0.5,0.1,0.7c0.1,0,0.2,0,0.4-0.1c-0.2-0.6-0.2-1.1-0.1-1.7
			c-0.1,0-0.2,0-0.4,0.1c0.1,0.4,0.1,0.7,0.1,1.1c0.1,0,0.2,0,0.4-0.1c-0.1-0.7-0.1-1.3-0.1-1.9c-0.1,0-0.3,0-0.4,0
			c0.1,0.6,0.1,1.2,0.2,1.9c0.1,0,0.2,0,0.4-0.1c-0.2-0.9-0.3-1.7-0.3-2.6c-0.1,0-0.2,0-0.4,0.1c0.2,0.6,0.2,1.1,0.2,1.7
			c0.1,0,0.2-0.1,0.4-0.1c-0.3-0.8-0.5-1.4-0.5-2.2c-0.1,0-0.2,0-0.4,0.1c0.2,0.4,0.2,0.9,0.2,1.4c0.1,0,0.2-0.1,0.4-0.1
			c-0.4-0.6-0.5-1.2-0.6-1.8c-0.1,0-0.2,0-0.4,0.1c0.1,0.6,0.2,1.1,0.2,1.7c0.1,0,0.2-0.1,0.3-0.1c-0.6-0.6-0.5-1.5-0.5-2.2
			c-0.1,0-0.2,0-0.4,0.1c0.1,0.8,0.2,1.5,0.1,2.3c0.1,0,0.2-0.1,0.3-0.1c-0.5-0.5-0.5-1.2-0.4-1.9c-0.1,0-0.3,0-0.4,0
			c0,0.9,0.1,1.8,0,2.7c0.1,0,0.2-0.1,0.4-0.1c-0.5-1-0.6-2.1-0.5-3.2c-0.1,0-0.2,0-0.4,0.1c0.3,0.9,0.4,1.9,0.5,2.8
			c0.1,0,0.2-0.1,0.4-0.1c-0.4-0.8-0.6-1.7-0.6-2.6c-0.1,0-0.2,0-0.4,0.1c0.4,0.9,0.6,1.8,0.5,2.8c0.1,0,0.2-0.1,0.4-0.1
			c-0.6-0.9-0.9-1.9-0.9-3.1c-0.1,0-0.2,0.1-0.4,0.1c0.5,1,0.9,2.2,0.9,3.3c0.1,0,0.2-0.1,0.3-0.1c-0.8-0.8-1.1-1.9-1.3-2.9
			c-0.1,0-0.2,0.1-0.3,0.1c0.5,1,0.9,2,0.9,3.1c0.1,0,0.2-0.1,0.3-0.1c-0.6-0.7-1-1.4-1.2-2.3c-0.1,0.1-0.2,0.1-0.3,0.2
			c0.6,0.6,1,1.3,1.1,2.2c0.1,0,0.2-0.1,0.3-0.1c-0.6-0.6-1.2-1.1-1.4-2c-0.1,0.1-0.2,0.1-0.3,0.2c0.6,0.7,1.1,1.3,1.3,2.3
			c0.1-0.1,0.2-0.1,0.3-0.2c-0.9-0.5-1.5-1.4-1.9-2.3c-0.1,0.1-0.2,0.2-0.3,0.2c0.8,0.6,1.5,1.4,1.8,2.4c0.1-0.1,0.2-0.1,0.3-0.2
			c-1-0.5-1.8-1.5-2.3-2.5c-0.1,0.1-0.2,0.2-0.3,0.2c0.8,0.8,1.7,1.6,2.1,2.7c0.1-0.1,0.2-0.1,0.3-0.2c-0.9-0.6-1.6-1.5-2.3-2.2
			c-0.1,0.1-0.2,0.2-0.2,0.3c0.7,0.6,1.4,1.1,2,1.9c-0.1-0.2-0.8-0.5-1-0.7c-0.4-0.4-0.6-0.8-0.9-1.2c-0.1,0.1-0.2,0.2-0.3,0.3
			c0.2,0.1,0.4,0.3,0.6,0.4c0.2,0.2,0.4,0.3,0.6,0.5c0.2,0.2,0.4,0.4,0.5,0.7c-0.7-0.4-1.3-1.2-1.7-1.9c-0.1,0.1-0.2,0.2-0.3,0.3
			c0.9,0.7,1.9,1.4,2.3,2.5c0.1-0.1,0.1-0.2,0.2-0.3c-1.1-0.3-1.9-1.5-2.6-2.4c-0.1,0.1-0.2,0.2-0.3,0.2c0.8,0.7,1.7,1.3,2.2,2.3
			c0.1-0.1,0.2-0.2,0.3-0.3c-0.9-0.6-1.6-1.5-2.4-2.3c-0.2-0.2-0.4,0.1-0.3,0.3c0.8,0.8,1.6,1.5,2.3,2.3c0.1-0.1,0.2-0.2,0.2-0.3
			c-0.9-0.6-1.6-1.3-2.4-2c-0.1,0.1-0.2,0.2-0.2,0.3c0.7,0.4,1.3,0.9,1.9,1.6c0.1-0.1,0.2-0.2,0.2-0.3c-0.8-0.4-1.4-1-2-1.6
			c-0.1,0.1-0.2,0.2-0.2,0.3c0.4,0.3,0.8,0.7,1.3,1.1c0.2,0.2,0.4-0.1,0.3-0.3c-0.5-0.5-1.1-0.6-1.8-0.8c0,0.1-0.1,0.2-0.1,0.4
			c0.3,0,0.7,0.1,1,0.3c0-0.1,0.1-0.2,0.1-0.4c-0.2-0.1-0.5-0.2-0.7-0.3c0,0.1-0.1,0.2-0.1,0.4c0.2,0,0.4,0,0.6,0
			c0.2,0,0.3-0.3,0.1-0.4c-0.1,0-0.2,0-0.3,0C10.4,102.6,10,102.5,9.9,102.7L9.9,102.7z"/>
	</g>
	<g>
		<path class="st11" d="M16.7,102.1l0.1-0.1c-0.1-0.1-0.1-0.2-0.2-0.3c-0.1,0.2-0.2,0.4-0.4,0.5c0.1,0.1,0.2,0.2,0.3,0.2
			c0.1-0.2,0.3-0.4,0.4-0.6c-0.1-0.1-0.2-0.1-0.3-0.2c-0.1,0.2-0.2,0.4-0.3,0.6c-0.1,0.2,0.2,0.4,0.3,0.2c0.1-0.2,0.2-0.4,0.3-0.6
			c0.1-0.2-0.2-0.4-0.3-0.2c-0.1,0.2-0.3,0.4-0.4,0.6s0.2,0.4,0.3,0.2c0.2-0.2,0.3-0.4,0.4-0.6s-0.1-0.3-0.2-0.3s-0.2,0.1-0.3,0.2
			C16.2,102,16.5,102.3,16.7,102.1L16.7,102.1z"/>
	</g>
	<g>
		<path class="st11" d="M23.3,98.2c-0.1-0.7,0.1-1.3,0-2c0-0.2-0.3-0.3-0.4-0.1c-0.2,0.8-0.1,1.6,0.1,2.4c0.1,0.2,0.4,0.2,0.4-0.1
			c-0.1-0.6-0.2-1.2-0.2-1.9c-0.1,0-0.2,0-0.4,0.1c0.3,0.7,0.5,1.5,0.8,2.3c0.1,0.2,0.4,0.1,0.4-0.1c-0.2-0.8-0.4-1.5-0.5-2.3
			c-0.1,0-0.2,0.1-0.4,0.1c0.2,0.9,0.5,1.6,0.9,2.4c0.1,0.2,0.4,0,0.3-0.2c-0.3-0.8-0.7-1.5-0.9-2.3c-0.1,0-0.2,0.1-0.3,0.1
			c0.3,0.7,0.8,1.4,1.2,2c0.1-0.1,0.2-0.2,0.3-0.2c-0.4-0.4-0.8-0.9-1-1.4c-0.1,0.1-0.2,0.2-0.3,0.2c0.4,0.5,0.8,0.9,1.1,1.5
			c0.1-0.1,0.2-0.2,0.3-0.2c-0.1-0.1-0.2-0.2-0.4-0.3c0.1,0.1,0.2,0.1,0.3,0.2c0.1-0.2,0-0.2-0.1,0.1c0.1,0,0.2,0.1,0.3,0.1
			c0.2-0.3,0.3-0.6,0.5-0.9c-0.1,0-0.2-0.1-0.3-0.1c0,0.3-0.1,0.6-0.1,0.9c0,0.2,0.2,0.3,0.3,0.1c0.2-0.4,0.4-0.7,0.5-1.1
			c-0.1,0-0.2,0-0.4-0.1c0,0.3,0,0.6,0.1,1c0.1,0,0.2,0,0.4-0.1c0-0.3-0.1-0.6-0.1-0.8c-0.1,0-0.2,0.1-0.3,0.1
			c0.1,0.2,0.3,0.5,0.4,0.7s0.4,0.1,0.3-0.1c-0.1-0.4-0.1-0.4-0.3-0.7c-0.1,0.1-0.2,0.1-0.3,0.2c0.2,0.4,0.2,0.4,0.5,0.7
			c0.1,0.1,0.3,0,0.3-0.1c0-0.5,0-0.4-0.1-0.9c-0.1-0.2-0.4-0.1-0.4,0.1c0.1,0.6,0,0.4,0.4,0.9c0.1,0.1,0.4,0.1,0.4-0.1
			c0-0.4,0-0.3-0.1-0.7c-0.1,0-0.2,0.1-0.4,0.1c0.2,0.5,0.1,0.4,0.4,0.9c0.1,0.1,0.4,0.1,0.4-0.1c0-0.4,0-0.4-0.1-0.9
			c0-0.2-0.4-0.2-0.4,0.1c0,0.5,0,0.7,0.3,1c0.1,0.1,0.3,0,0.3-0.1c0-0.3,0-0.3-0.1-0.6c0-0.2-0.3-0.2-0.4,0
			c-0.1,0.7-0.1,0.4-0.1,1.1c0,0.2,0.4,0.2,0.4,0c0-0.5,0-0.6-0.1-1.1c0-0.2-0.3-0.2-0.4,0c-0.1,0.4-0.2,0.7-0.1,1.2
			c0,0.2,0.3,0.2,0.3,0c0.2-0.4,0.3-0.7,0.4-1.1c0.1-0.2-0.3-0.3-0.4-0.1c-0.1,0.4-0.1,0.7-0.1,1.2c0,0.2,0.2,0.3,0.4,0.1
			c0.3-0.5,0.2-0.3,0.4-0.9c-0.1,0-0.2-0.1-0.4-0.1c-0.1,0.4-0.1,0.6,0.1,1c0,0.1,0.3,0.2,0.3,0c0.2-0.5,0.2-0.7,0-1.2
			c-0.1-0.2-0.4-0.2-0.4,0.1c0,0.6,0,0.4,0.1,0.9c0,0.1,0.3,0.2,0.3,0c0.3-0.6,0.2-0.4,0.2-1.1c0-0.2-0.3-0.3-0.4-0.1
			c-0.1,0.6-0.1,0.5,0.1,1.1c0.1,0.2,0.3,0.2,0.4,0c0.1-0.6,0.1-0.4,0.1-0.9c0-0.2-0.3-0.3-0.4-0.1c-0.9,2-0.9,4.4-0.9,6.6
			c0,0.2,0.3,0.3,0.4,0.1c0.3-0.6,0.5-1.1,0.8-1.6c-0.1,0-0.2-0.1-0.3-0.1c-0.1,0.4-0.2,0.8-0.3,1.2c0.1,0,0.2,0,0.4,0.1
			c0-0.4,0.1-0.9,0.1-1.3c0-0.2-0.3-0.3-0.4-0.1c-0.2,0.5-0.5,0.9-0.7,1.4c0.1,0,0.2,0,0.3,0c-0.3-1.2-0.6-3.5-2-3.8
			c-1.2-0.3-1.7,2-1.9,2.7c-0.1,0.2,0.3,0.3,0.4,0.1c0.4-1.1,0.9-2.1,1-3.2c0-0.1-0.2-0.2-0.3-0.2c-1,0.7-1.3,1.9-1.8,3
			c0.1,0,0.2,0.1,0.3,0.1c0.3-1,0.8-2,1.1-3c0.1-0.2-0.2-0.3-0.3-0.1c-0.8,1.2-1.3,2.6-1.9,3.9c-0.1,0.2,0.3,0.3,0.3,0.1
			c0.5-1,1.5-2.6,1.1-3.7c-0.1-0.1-0.2-0.2-0.3-0.1c-1.2,1.1-1.8,2.8-1.9,4.3c0,0.2,0.3,0.2,0.4,0.1c0.7-1,1-2.4,1-3.7
			c0-0.1-0.2-0.2-0.3-0.2c-1.1,0.7-1.2,2.4-1.3,3.6c0,0.2,0.3,0.3,0.4,0.1c0.3-1.1,0.5-2.1,0.6-3.2c0-0.2-0.3-0.3-0.4-0.1
			c-0.6,1.2-0.9,2.4-1.1,3.7c0.1,0,0.2,0,0.4,0.1c0.1-1,0.3-2,0.5-3c0-0.2-0.3-0.3-0.4-0.1c-0.4,1.1-0.8,2.2-0.7,3.4
			c0,0.2,0.3,0.3,0.4,0.1c0.4-1.2,0.7-2.5,0.6-3.8c0-0.2-0.2-0.3-0.4-0.1c-0.8,1.1-1,2.5-0.9,3.8c0,0.2,0.3,0.3,0.4,0.1
			c0.5-1,0.6-2.2,0.9-3.3c-0.1,0-0.2,0-0.4-0.1c0,1.2-0.6,3,0.3,4c0.1,0.1,0.2,0.1,0.3,0c0.7-0.9,0.9-1.9,1.2-3
			c0.1-0.2-0.3-0.3-0.3-0.1c-0.5,1.1-0.9,2.3-0.8,3.4c0,0.1,0.2,0.2,0.3,0.1c0.7-0.8,1-1.8,1.1-2.8c0-0.2-0.3-0.4-0.3-0.1
			c-0.3,0.8-0.5,1.5-0.6,2.4c0,0.2,0.3,0.2,0.4,0.1c0.3-0.8,0.6-1.6,0.8-2.4c0.1-0.2-0.3-0.3-0.4-0.1c-0.3,0.9-0.6,1.7-0.6,2.6
			c0,0.2,0.2,0.3,0.3,0.1c0.5-0.6,0.7-1.2,0.9-1.9c0.1-0.2-0.3-0.3-0.4-0.1c-0.2,0.8-0.5,1.4-0.2,2.2c0,0.1,0.2,0.2,0.3,0.1
			c0.5-0.5,0.6-1.1,0.9-1.7c-0.1,0-0.2-0.1-0.4-0.1c-0.1,0.5-0.2,0.8-0.1,1.4c0,0.2,0.3,0.3,0.4,0.1c0.2-0.6,0.2-0.4,0.1-1
			c0-0.1-0.2-0.2-0.3-0.2c-0.9,0.6-1.6,1.7-2.1,0c-0.1-0.2-0.3-0.2-0.4,0c-0.1,0.4-0.2,0.7-0.3,1.1c0.1,0,0.2,0,0.4,0.1
			c0-0.6,0-1-0.2-1.6c-0.1-0.2-0.3-0.2-0.4,0c-0.1,0.5-0.2,1-0.1,1.6c0.1,0,0.3,0,0.4,0c0-0.8-0.1-1.5-0.6-2.2
			c-0.1-0.1-0.2-0.1-0.3,0c-0.3,0.5-0.5,1-0.5,1.7c0.1,0,0.2,0,0.4-0.1c-0.2-0.7,0-1.2-0.3-1.9c-0.1-0.1-0.3-0.2-0.3,0
			c-0.4,0.8-0.4,1.6-0.2,2.4c0,0.2,0.4,0.2,0.4-0.1c0.1-0.7,0-1.4-0.1-2c0-0.2-0.3-0.2-0.4,0c-0.2,0.9-0.2,1.6-0.1,2.5
			c0,0.2,0.4,0.2,0.4-0.1c0-0.6,0-1.1,0-1.7c0-0.2-0.3-0.3-0.4-0.1c-0.2,0.7-0.2,1.3-0.1,2c0,0.2,0.4,0.2,0.4-0.1
			c0-0.4,0-0.8-0.1-1.2c-0.1-0.2-0.4-0.2-0.4,0.1c-0.1,0.6,0,1,0.2,1.6c0.1,0.2,0.3,0.2,0.4,0c0.1-0.5,0.1-0.9,0-1.4
			c0-0.2-0.3-0.1-0.4,0.1c-0.1,0.7,0,1.3,0.4,1.8c0.1,0.1,0.3,0.1,0.3,0c0.1-0.6,0.1-1.2-0.1-1.8c0-0.2-0.3-0.2-0.4,0
			c-0.1,0.7-0.1,1.1,0.2,1.7c0.1,0.1,0.3,0.1,0.3,0c0.1-0.6,0.1-1.1,0-1.8c0-0.2-0.3-0.2-0.4,0c-0.2,0.7-0.2,1.4,0.3,1.9
			c0.1,0.1,0.3,0,0.3-0.1c0.1-0.6,0.1-1.1,0.1-1.7c0-0.2-0.3-0.3-0.4-0.1c-0.1,0.7-0.1,1.3,0.2,2c0.1,0.2,0.3,0.1,0.3,0
			c0.2-0.7,0.2-1.3,0.1-2c0-0.2-0.3-0.2-0.4,0c-0.2,0.7-0.3,1.4,0.2,2c0.1,0.1,0.3,0.1,0.3-0.1c0.1-0.6,0.2-1.2,0.1-1.8
			c0-0.2-0.3-0.3-0.4-0.1c-0.1,0.7-0.1,1.2,0.1,1.9c0.1,0.2,0.3,0.2,0.4,0c0.2-0.5,0.2-0.9,0.2-1.5c0-0.2-0.3-0.3-0.4-0.1
			c-0.1,0.6-0.1,1.1,0.2,1.7c0.1,0.1,0.3,0.1,0.3,0c0.2-0.5,0.2-0.9,0.2-1.5c0-0.2-0.4-0.2-0.4,0c-0.1,0.6-0.1,1,0.1,1.6
			c0,0.2,0.3,0.2,0.4,0c0.2-0.5,0.3-1,0.2-1.6c0-0.2-0.3-0.3-0.4-0.1c-0.1,0.6-0.1,1,0.1,1.5c0,0.2,0.3,0.2,0.3,0
			c0.3-0.5,0.3-0.9,0.4-1.4c0-0.2-0.3-0.2-0.4,0c-0.1,0.5-0.1,1,0,1.5c0,0.2,0.3,0.2,0.3,0c0.3-0.5,0.4-1,0.4-1.5
			c0-0.2-0.3-0.3-0.4-0.1c-0.1,0.5-0.2,0.9,0,1.4c0,0.1,0.3,0.2,0.3,0c0.2-0.4,0.3-0.7,0.4-1.1c-0.1,0-0.2-0.1-0.4-0.1
			c-0.1,0.4-0.1,0.8-0.1,1.1c0,0.2,0.3,0.3,0.4,0.1c0.3-0.4,0.3-0.8,0.4-1.3c-0.1,0-0.2-0.1-0.4-0.1c-0.1,0.6-0.1,0.4-0.1,1.1
			c0,0.2,0.2,0.2,0.4,0.1c0.2-0.4,0.4-0.7,0.5-1.1c-0.1,0-0.2-0.1-0.4-0.1c-0.1,0.4-0.1,0.8-0.1,1.2c0,0.2,0.3,0.3,0.4,0.1
			c0.3-0.4,0.4-0.9,0.6-1.4c-0.1,0-0.2,0-0.4-0.1c0,0.3-0.1,0.7-0.1,1c0,0.2,0.2,0.3,0.3,0.1c0.2-0.4,0.3-0.8,0.4-1.2
			c-0.1,0-0.2-0.1-0.4-0.1c-0.1,0.5-0.2,1.1-0.2,1.6c0,0.2,0.3,0.3,0.4,0.1c0.3-0.5,0.4-1,0.4-1.6c0-0.2-0.3-0.3-0.4-0.1
			c-0.1,0.5-0.1,0.9-0.1,1.4c0,0.2,0.3,0.2,0.4,0.1c0.1-0.3,0.2-0.6,0.3-0.9c-0.1,0-0.2,0-0.4,0c0.1,0.7,0.4,1.1,1.1,0.7
			c0.2-0.1,0.1-0.3,0-0.3c-0.4-0.1-0.9-0.3-1.3-0.4c-0.2-0.1-0.3,0.2-0.2,0.3c0.6,0.5,1.2,0.5,1.9,0.5c0.2,0,0.3-0.3,0.1-0.4
			c-0.8-0.4-2.1-0.7-2.8,0c-0.1,0.1-0.1,0.2,0,0.3c0.7,0.5,1.4,0.4,2.2,0.3c0.2,0,0.2-0.3,0-0.4c-0.7-0.3-1.3-0.4-2-0.3
			c-0.1,0-0.2,0.1-0.2,0.3c0.6,0.9,1.6,0.6,2.5,0.4c0.2,0,0.2-0.3,0-0.3c-0.4-0.2-0.8-0.4-1.1-0.7c-0.1,0.1-0.1,0.2-0.2,0.3
			c0.8,0.1,1.4,0.5,2.2,0.6c0.1,0,0.2-0.2,0.2-0.3c-0.4-0.7-1.2-1.3-2.1-1.2c-0.1,0-0.3,0.2-0.2,0.3c0.5,0.8,1.5,1.1,2.4,1
			c0.1,0,0.2-0.2,0.2-0.3c-0.4-0.8-1.4-1-2.2-0.8c-0.2,0-0.2,0.3,0,0.3c0.8,0.5,1.7,0.8,2.7,0.9c0.2,0,0.3-0.2,0.1-0.3
			c-0.8-0.6-1.6-0.8-2.5-0.6c-0.1,0-0.2,0.2-0.1,0.3c0.8,0.6,1.8,0.7,2.8,0.7c0.2,0,0.3-0.2,0.1-0.3c-0.7-0.7-1.8-0.7-2.6-0.2
			c-0.1,0.1-0.1,0.2,0,0.3c0.7,0.6,1.6,0.5,2.5,0.3c0.2-0.1,0.2-0.3-0.1-0.4c-0.4,0-0.8-0.1-1.2-0.2c-0.2-0.1-0.3,0.3-0.1,0.4
			c0.4,0.1,0.8,0.2,1.3,0.2c0-0.1,0-0.2-0.1-0.4c-0.3,0.1-0.6,0.2-1,0.2c-0.2-0.1-0.4-0.2-0.6-0.3c0.6-0.2,1.2,0,1.7,0.4
			c0-0.1,0.1-0.2,0.1-0.3c-0.3,0-0.5,0-0.8,0c-1.3-0.1-0.8-0.7,0.3,0.2c0-0.1,0.1-0.2,0.1-0.3c-0.9-0.1-1.8-0.4-2.5-0.9
			c0,0.1,0,0.2,0,0.3c0.6-0.1,1.2,0,1.7,0.4c-0.6,0.1-1-0.4-1.5-0.5c1,0.4,1.2,0.6,0.6,0.5c-0.4-0.1-0.8-0.3-1.3-0.4
			c-0.2,0-0.3,0.2-0.2,0.3c0.4,0.3,0.7,0.5,1.2,0.7c0-0.1,0-0.2,0-0.3c-0.4,0.1-0.8,0.2-1.2,0.2c-0.9-0.3-0.8-0.3,0.2-0.2
			c0.3,0.1,0.5,0.1,0.8,0.3c0-0.1,0-0.2,0-0.4c-0.2,0-0.5,0.1-0.7,0.1c-0.8,0.1-0.9,0-0.3-0.4c0.5,0,1,0.2,1.4,0.4
			c0-0.1,0.1-0.2,0.1-0.4c-0.6,0-1.1,0-1.7-0.4c-0.1,0.1-0.1,0.2-0.2,0.3c0.4,0.1,0.9,0.3,1.3,0.4c0-0.1,0-0.2,0-0.3
			c-0.2-0.2-0.4-0.3-0.5-0.5c0-0.2-0.3-0.2-0.4,0c-0.1,0.3-0.2,0.6-0.3,0.9c0.1,0,0.2,0,0.4,0.1c0-0.4,0-0.8,0.1-1.3
			c-0.1,0-0.2-0.1-0.4-0.1c-0.1,0.5-0.1,1-0.4,1.5c0.1,0,0.2,0.1,0.4,0.1c0-0.5,0.1-1,0.2-1.5c0-0.2-0.3-0.3-0.4-0.1
			c-0.1,0.4-0.2,0.8-0.4,1.1c0.1,0,0.2,0.1,0.3,0.1c0.1-0.5,0.1-0.5,0.1-1.1c0-0.2-0.3-0.2-0.4-0.1c-0.2,0.4-0.3,0.9-0.5,1.3
			c0.1,0,0.2,0.1,0.4,0.1c0-0.4,0-0.8,0.1-1.1c0.1-0.2-0.3-0.3-0.4-0.1c-0.1,0.4-0.3,0.7-0.5,1c0.1,0,0.2,0.1,0.4,0.1
			c0-0.3,0-0.7,0.1-1c0-0.2-0.3-0.3-0.4-0.1c0,0.4-0.2,0.8-0.4,1.2c0.1,0,0.2,0.1,0.4,0.1c0-0.4,0.1-0.7,0.1-1
			c0-0.2-0.3-0.3-0.4-0.1c-0.1,0.4-0.2,0.7-0.3,1.1c0.1,0,0.2,0,0.3,0c0-0.4,0-0.8,0-1.2c-0.1,0-0.2,0-0.4-0.1
			c0,0.5-0.1,0.9-0.4,1.3c0.1,0,0.2,0,0.3,0c-0.1-0.5-0.1-0.9,0-1.4c-0.1,0-0.3,0-0.4,0c-0.1,0.4-0.2,0.8-0.3,1.2c0.1,0,0.2,0,0.3,0
			c0-0.4,0-0.9-0.1-1.3c-0.1,0-0.2,0-0.4-0.1c0,0.5,0,1-0.2,1.5c0.1,0,0.2,0,0.4,0c-0.1-0.5-0.2-1-0.1-1.5c-0.1,0-0.3,0-0.4,0
			c0,0.5,0,0.9-0.2,1.4c0.1,0,0.2,0,0.3,0c-0.1-0.5-0.1-0.9-0.2-1.4c-0.1,0-0.2,0-0.4-0.1c0,0.5,0,0.9-0.2,1.4c0.1,0,0.2,0,0.4,0
			c-0.3-0.5-0.3-1.1-0.1-1.7c-0.1,0-0.2,0-0.4-0.1c0.1,1.2-0.2,1,0.1,0c-0.1,0-0.2,0-0.4,0c0.1,0.6,0.1,1.2-0.1,1.8
			c0.1,0,0.2,0,0.3,0c-0.3-0.6-0.3-1.1-0.2-1.7c-0.1,0-0.2,0-0.4-0.1c0,0.6-0.1,1.1-0.1,1.7c0.1,0,0.2-0.1,0.3-0.1
			c-0.3-0.5-0.4-1-0.2-1.5c-0.1,0-0.2,0-0.4,0c0.1,0.5,0.1,1,0,1.6c0.1,0,0.2,0,0.3,0c-0.1-0.5-0.1-1-0.2-1.4c-0.1,0-0.2,0-0.4,0
			c0.2,0.5,0.2,1.1,0.1,1.6c0.1,0,0.2,0,0.3,0c-0.4-0.5-0.5-1-0.4-1.6c-0.1,0-0.2,0-0.4,0.1c0,0.4,0,0.8,0,1.2c0.1,0,0.2,0,0.4,0
			c-0.2-0.5-0.3-0.9-0.2-1.5c-0.1,0-0.2,0-0.4,0.1c0.1,0.4,0.1,0.7,0.1,1.1c0.1,0,0.2,0,0.4-0.1c-0.2-0.6-0.2-1.2,0.1-1.8
			c-0.1,0-0.2,0-0.4-0.1c0,0.6,0,1.1,0,1.7c0.1,0,0.2,0,0.4-0.1c-0.2-0.8-0.1-1.5,0.1-2.3c-0.1,0-0.2,0-0.4,0
			c0.1,0.7,0.1,1.3,0.1,1.9c0.1,0,0.2,0,0.4-0.1c-0.2-0.7-0.1-1.4,0.2-2.1c-0.1,0-0.2,0-0.3,0c0.2,0.6,0.1,1.2,0.3,1.9
			c0,0.2,0.4,0.2,0.4-0.1c0-0.4,0.1-0.8,0.3-1.2c0.3,0.5,0.3,1.2,0.3,1.7c0,0.2,0.4,0.2,0.4,0c0-0.5,0-1,0.1-1.5c-0.1,0-0.2,0-0.4,0
			c0.2,0.5,0.2,1,0.2,1.5c0,0.2,0.3,0.3,0.4,0.1c0.1-0.4,0.2-0.7,0.3-1.1c-0.1,0-0.2,0-0.4,0c0.1,0.4,0.3,1.4,0.9,1.4
			c0.3,0,0.4-0.1,0.6-0.3c0.2-0.1,1-1,0.7-0.2c0.1,0,0.2,0,0.4,0.1c-0.1-0.4,0-0.9,0.1-1.3c0.1-0.2-0.3-0.3-0.4-0.1
			c-0.1,0.2-0.2,0.5-0.2,0.7c-0.1-0.1-0.2-0.1-0.3-0.2c0.1-0.3,0.2-0.6,0.3-0.9c-0.1,0-0.2-0.1-0.4-0.1c-0.2,0.6-0.3,1.2-0.8,1.8
			c0.1,0,0.2,0.1,0.3,0.1c0-0.9,0.2-1.7,0.5-2.5c-0.1,0-0.2-0.1-0.4-0.1c-0.3,0.8-0.5,1.6-0.8,2.4c0.1,0,0.2,0,0.4,0.1
			c0-0.8,0.2-1.4,0.5-2.2c-0.1,0-0.2-0.1-0.3-0.1c-0.1,0.7-0.3,1.4-0.7,2.1c-0.2,0.4,0.1-1,0.1-1.1c0.1-0.5,0.3-1,0.5-1.4
			c-0.1,0-0.2-0.1-0.3-0.1c-0.1,0.4-0.2,0.8-0.3,1.1c-0.1,0.4-0.7,2.4-0.9,0.8c-0.1-0.9,0.2-1.9,0.1-2.8c0-0.2-0.3-0.3-0.4-0.1
			c-0.3,1.1-0.4,2.2-0.9,3.2c0.1,0,0.2,0.1,0.4,0.1c-0.1-1.2,0.1-2.6,0.9-3.6c-0.1,0-0.2-0.1-0.4-0.1c0.1,1.3-0.2,2.5-0.5,3.7
			c0.1,0,0.2,0,0.4,0.1c-0.1-1.2,0.2-2.3,0.7-3.3c-0.1,0-0.2-0.1-0.4-0.1c-0.2,1-0.4,2-0.5,3.1c0,0.2,0.3,0.3,0.4,0.1
			c0.2-1.2,0.5-2.5,1.1-3.6c-0.1,0-0.2-0.1-0.4-0.1c-0.1,1.1-0.3,2.1-0.6,3.1c0.1,0,0.2,0,0.4,0.1c0.1-0.9,0.2-1.9,0.6-2.8
			s0,0.8,0,1.1c-0.1,0.6-0.4,1.2-0.7,1.7c0.1,0,0.2,0.1,0.4,0.1c0.1-0.6,0.2-1.2,0.4-1.8c0.1-0.2,1.2-1.9,1.2-2
			c0.1,1-0.7,2.2-1.1,3.1c0.1,0,0.2,0.1,0.3,0.1c0.5-1.3,1.1-2.6,1.8-3.8c-0.1,0-0.2-0.1-0.3-0.1c-0.3,1-0.8,2-1.1,3
			c-0.1,0.2,0.3,0.3,0.3,0.1c0.4-0.8,0.6-1.5,1.1-2.2c0.3-0.5-0.1,0.8,0,0.8c-0.2,0.5-0.4,1-0.6,1.6c0.1,0,0.2,0.1,0.4,0.1
			c0.2-0.6,1-3.6,2.1-2c0.6,0.8,0.8,2.1,1,3.1c0,0.2,0.3,0.2,0.3,0c0.2-0.5,0.4-0.9,0.7-1.4c-0.1,0-0.2-0.1-0.4-0.1
			c0,0.4,0,0.9-0.1,1.3c0,0.2,0.3,0.3,0.4,0.1c0.1-0.4,0.2-0.8,0.3-1.2c0.1-0.2-0.2-0.3-0.3-0.1c-0.3,0.5-0.6,1.1-0.8,1.6
			c0.1,0,0.2,0.1,0.4,0.1c0.1-2.1,0-4.4,0.9-6.4c-0.1,0-0.2-0.1-0.4-0.1c0,0.3,0,0.6-0.1,0.8c0.1,0,0.2,0,0.4,0c0-0.3,0-0.6-0.1-0.9
			c-0.1,0-0.2,0-0.4-0.1c0,0.3-0.1,0.6-0.1,0.9c0.1,0,0.2,0,0.3,0c0-0.3-0.1-0.6-0.1-0.8c-0.1,0-0.2,0-0.4,0.1c0,0.3,0,0.6,0,0.9
			c0.1,0,0.2,0,0.3,0c0-0.3,0-0.5-0.1-0.8c0-0.2-0.3-0.3-0.4-0.1c-0.1,0.3-0.3,0.6-0.4,0.8c0.1,0,0.2,0.1,0.4,0.1
			c-0.1-0.4-0.1-0.7,0.1-1c-0.1,0-0.2-0.1-0.4-0.1c-0.1,0.4-0.2,0.7-0.4,1.1c0.1,0,0.2,0,0.3,0c0-0.3,0-0.7,0.1-1
			c-0.1,0-0.2,0-0.4,0c0,0.3,0.1,0.7,0.1,1c0.1,0,0.3,0,0.4,0c0-0.3,0-0.7,0.1-1c-0.1,0-0.2,0-0.4,0c0,0.2,0,0.3,0.1,0.5
			c0.1,0,0.2-0.1,0.3-0.1c-0.1-0.3-0.1-0.5-0.2-0.8c-0.1,0-0.2,0-0.4,0.1c0,0.3,0,0.5,0.1,0.8c0.1,0,0.2-0.1,0.4-0.1
			c-0.1-0.3-0.3-0.5-0.4-0.8c-0.1-0.2-0.4-0.1-0.4,0.1s0.1,0.4,0.1,0.6c0.1,0,0.2-0.1,0.4-0.1c-0.1-0.3-0.2-0.5-0.3-0.8
			c-0.1,0-0.2,0.1-0.4,0.1c0,0.3,0.1,0.5,0.1,0.8c0.1,0,0.2-0.1,0.3-0.1c-0.2-0.2-0.3-0.4-0.5-0.6c-0.1-0.2-0.4,0-0.3,0.2
			s0.2,0.4,0.3,0.6c0.1,0,0.2-0.1,0.3-0.1c-0.2-0.2-0.3-0.4-0.4-0.7c-0.1-0.2-0.4-0.1-0.3,0.1c0,0.3,0.1,0.6,0.1,0.8
			c0,0.2,0.4,0.2,0.4-0.1c-0.1-0.3-0.1-0.6-0.1-1c0-0.2-0.3-0.2-0.4-0.1c-0.1,0.4-0.3,0.7-0.5,1.1c0.1,0,0.2,0.1,0.3,0.1
			c0-0.3,0.1-0.6,0.1-0.9c0-0.2-0.2-0.3-0.3-0.1c-0.4,0.6-0.3,0.4-0.5,1c-0.1,0.2,0.2,0.3,0.3,0.1c0.3-0.4,0.4-0.6,0.2-1.1
			c0-0.1-0.2-0.2-0.3-0.1c-0.3,0.3-0.4,0.6-0.5,1c0,0.1,0.1,0.2,0.2,0.2c0.4-0.1,1.4-0.8,0.8-1.3c-0.5-0.5-1.1,0.6-1.1,1
			c0,0.2,0.1,0.3,0.3,0.2c0.5-0.3,0.3-0.2,0.7-0.6c0.1-0.1,0.1-0.3-0.1-0.3c-0.9-0.3-1.4,0.5-0.7,1.1c0.2,0.1,0.4,0,0.3-0.2
			c1.9-0.4,1.5-0.9,1.1-1.4c-0.2-0.2-0.4,0-0.3,0.2c0.3,0.6,0.6,1,1.1,1.5c0.1,0.1,0.4-0.1,0.3-0.2c-0.5-0.6-0.9-1.3-1.2-2
			c-0.1-0.2-0.4-0.1-0.3,0.1c0.3,0.8,0.6,1.6,1,2.4c0.1-0.1,0.2-0.1,0.3-0.2c-0.4-0.7-0.7-1.5-0.9-2.3c-0.1-0.2-0.4-0.1-0.4,0.1
			c0.2,0.8,0.4,1.5,0.5,2.3c0.1,0,0.2-0.1,0.4-0.1c-0.3-0.8-0.5-1.5-0.8-2.3c-0.1-0.2-0.4-0.2-0.4,0.1c0,0.6,0.1,1.2,0.2,1.9
			c0.1,0,0.2,0,0.4-0.1c-0.2-0.7-0.3-1.4-0.1-2.2c-0.1,0-0.2,0-0.4-0.1c0.1,0.7-0.1,1.3,0,2C23,98.4,23.4,98.4,23.3,98.2L23.3,98.2z
			"/>
	</g>
	<g>
		<path class="st11" d="M27.3,107c0.3,0,0.5,0.1,0.8,0.1c0-0.1,0-0.2-0.1-0.4c-0.2,0-0.4,0.1-0.7,0.1c0,0.1,0,0.2,0,0.4
			c0.1,0,0.1,0,0.2,0l0,0c0-0.1,0.1-0.2,0.1-0.2l0,0C27.6,106.8,27.5,106.9,27.3,107c0.1,0.1,0.1,0.2,0.2,0.2
			c0.2,0.1,0.4-0.1,0.3-0.3c-0.1-0.2-0.4-0.2-0.6-0.2c-0.2,0.1-0.2,0.3,0,0.4c0.1,0,0.3,0,0.4,0s0.3-0.1,0.4-0.1
			c0.2,0,0.2-0.4-0.1-0.4c-0.3,0-0.5-0.1-0.8-0.1C27.1,106.6,27.1,107,27.3,107L27.3,107z"/>
	</g>
	<path class="st13" d="M61.5,111.3"/>
	<g>
		<path class="st11" d="M11.9,100.6c0,0.2-0.7,0.4-0.9,0.5s-0.1,0.4,0.1,0.3c0.6-0.2,1.1-0.5,1.8-0.7c-0.1-0.1-0.1-0.2-0.2-0.3
			c-0.7,0.6-1.5,0.8-2.1,1.4c-0.1,0.1,0,0.3,0.2,0.3c1.1-0.2,2.2-1.1,3.3-1.4c0-0.1-0.1-0.2-0.1-0.3c-0.9,0.4-2.1,0.8-2.9,1.5
			c-0.1,0.1,0,0.4,0.2,0.3c1.5-0.6,2.9-1.7,4.4-2c-0.1-0.1-0.1-0.2-0.2-0.3c-0.7,0.8-2,1.1-2.8,1.9c-0.1,0.1,0,0.4,0.2,0.3
			c0.9-0.4,2-0.9,2.8-1.6c0.2-0.1,0-0.3-0.2-0.3c-0.8,0.2-1.5,0.6-2.2,1.1c-0.2,0.1,0,0.4,0.2,0.3c0.7-0.4,1.3-0.7,2-0.9
			c0-0.1-0.1-0.2-0.1-0.3c-0.5,0.3-1.6,0.7-1.8,1.3c-0.1,0.3-0.1,0.3,0.1,0.6c0.3,0.7,0.5,0.8,0.5,1.5c0,1.3-1,0.2-1.1,0.1
			s-0.3-0.1-0.3,0.1c-0.1,0.5,0.1,0.8,0.4,1.3c0.1-0.1,0.2-0.2,0.3-0.2c-0.2-0.2-0.4-0.4-0.6-0.6c-0.1-0.1-0.3,0-0.3,0.1
			c0,0.4,0.1,0.6,0.5,0.9c0.2,0.2,0.4-0.1,0.3-0.3c-0.2-0.3-0.2-0.2-0.5-0.4c-0.1-0.1-0.4,0.1-0.3,0.3c0.2,0.3,0.5,0.6,0.9,0.6
			c0.1,0,0.2-0.1,0.2-0.1c0-0.1,0-0.1,0.1-0.2c-0.1,0-0.2,0-0.4-0.1v0.1c0,0.1,0.2,0.2,0.3,0.2c0.4-0.3,0.8-0.5,1-0.9
			c0.1-0.1-0.1-0.3-0.2-0.3c-0.4,0.1-0.7,0.3-1,0.6c-0.2,0.2,0,0.4,0.2,0.3c0.7-0.3,1.5-0.7,1.8-1.4c0.1-0.1-0.1-0.3-0.2-0.2
			c-0.6,0.1-1.1,0.6-1.3,1.1c0,0.1,0.1,0.2,0.2,0.2c0.7,0,1.3-0.5,1.7-1c0.1-0.1,0-0.3-0.1-0.3c-0.6,0-1,0.4-1.4,0.9
			c-0.1,0.1,0.1,0.3,0.2,0.3c0.4-0.1,0.7-0.3,1-0.6c-0.1-0.1-0.2-0.2-0.2-0.3c-0.2,0.2-0.4,0.4-0.6,0.6c-0.1,0.2,0,0.4,0.2,0.3
			c0.4-0.2,0.7-0.5,1.1-0.9c0.6-0.7,0.4,0.5,0.3,1c0,0.2,0.3,0.3,0.4,0.1c0-0.1,0-0.3,0.1-0.4c0-0.2-0.3-0.3-0.4-0.1
			c-0.1,0.3-0.2,0.5-0.2,0.8c0,0.2,0.1,0.3,0.3,0.2c0.1,0,0.1-0.1,0.2-0.1s0.1-0.1,0.1-0.2s0-0.1,0-0.2c0-0.2-0.3-0.3-0.4-0.1
			c-0.2,0.3-0.2,0.5,0,0.8c0.1,0.1,0.2,0.1,0.3,0c0.2-0.2,0.2-0.4,0.3-0.7c0-0.2-0.2-0.3-0.3-0.1c-0.3,0.3-0.4,0.5-0.3,0.9
			c0,0.2,0.3,0.2,0.3,0c0.2-0.3,0.2-0.2,0.2-0.5c0-0.2-0.2-0.3-0.3-0.2c-0.3,0.3-0.3,0.3-0.3,0.7c0,0.1,0.2,0.3,0.3,0.1
			c0.2-0.3,0.2-0.2,0.2-0.6c0-0.2-0.3-0.3-0.4-0.1c0,0.1-0.1,0.2-0.1,0.4c-0.1,0.2,0.2,0.3,0.3,0.1c0.6-1,0.8-2,1.6-2.9
			c-0.1-0.1-0.2-0.2-0.3-0.3c-0.4,0.5-0.8,1-1.2,1.6c-0.1,0.2,0.1,0.4,0.3,0.2c0.5-0.5,1-1,1.2-1.7c0-0.2-0.1-0.3-0.3-0.2
			c-0.5,0.2-0.8,0.5-1.2,0.8c0.1,0.1,0.2,0.2,0.3,0.3c0.5-0.9,1.3-1.4,2-2c0.3-0.3,1-0.5,1.2-0.8c-0.3,0.3-0.9,0.5-1.2,0.7
			c-0.2,0.1-0.1,0.4,0.1,0.3c0.5-0.1,0.9-0.3,1.3-0.6c0.2-0.1,0.1-0.4-0.1-0.3c-0.4,0.2-0.8,0.4-1.2,0.6c-0.2,0.1-0.1,0.4,0.1,0.3
			c0.5-0.1,0.9-0.3,1.3-0.5c0.2-0.1,0-0.4-0.2-0.3c-0.3,0.1-0.6,0.2-0.8,0.4c-0.2,0.1-0.1,0.4,0.1,0.3c0.5-0.1,0.4-0.1,0.9-0.3
			c-0.1-0.1-0.1-0.2-0.2-0.3c-0.4,0.3-1,0.6-0.9,1.1c0,0.1,0.1,0.2,0.1,0.2c0.4,0.1,0.7-0.2,1-0.4c-0.1-0.1-0.2-0.2-0.3-0.2
			c-0.5,1-0.7,2-1.1,3c0.1,0,0.2,0.1,0.4,0.1c0.2-0.6,0.3-1.3,0.4-1.9c0-0.2-0.3-0.3-0.4-0.1c-0.4,0.7-0.9,1.6-0.6,2.4
			c0,0.2,0.3,0.2,0.3,0c0.5-0.8,0.4-1.8,0.6-2.7c0-0.2-0.3-0.3-0.4-0.1c-0.3,0.8-0.8,1.8-0.6,2.7c0,0.2,0.3,0.2,0.4,0
			c0.2-0.7,0.2-1.3,0.3-2c0-0.2-0.3-0.3-0.4-0.1c-0.3,0.7-0.5,1.4-0.6,2.2c0,0.2,0.3,0.3,0.4,0.1c0.2-0.6,0.2-1.2,0-1.7
			c-0.1-0.2-0.3-0.2-0.4,0c-0.2,0.6-0.2,1.1-0.3,1.7c0,0.2,0.3,0.3,0.4,0.1c0.1-0.4,0.1-0.8,0.1-1.2c0-0.2-0.3-0.3-0.4-0.1
			c-0.2,0.6-0.3,1-0.1,1.6c0.1,0.2,0.2,0.2,0.3,0c0.3-0.4,0.2-0.7,0.1-1.1c0-0.1-0.3-0.2-0.3,0c-0.2,0.5-0.3,0.9,0,1.4
			c0.1,0.1,0.3,0.1,0.3,0c0.1-0.4,0.1-0.3,0-0.7c-0.1-0.2-0.3-0.2-0.4,0c-0.1,0.4-0.1,0.6,0.1,0.9c0.1,0.2,0.3,0.1,0.3,0
			c0.1-0.4,0.1-0.3,0-0.7c-0.1-0.2-0.3-0.1-0.3,0c-0.1,0.4-0.2,0.4,0.1,0.7c0.1,0.1,0.3,0.1,0.3,0c0.1-0.3,0.1-0.3,0-0.5
			s-0.3-0.2-0.4,0c-0.1,0.3-0.1,0.3,0.1,0.6c0.1,0.1,0.2,0.1,0.3,0l0.1-0.1c-0.1,0-0.2-0.1-0.3-0.1c0,0.1,0,0.1,0,0.2
			c0,0.2,0.3,0.3,0.4,0.1c0-0.1,0-0.1,0-0.2c0-0.2-0.2-0.3-0.3-0.1c0.1-0.1,0.1-0.1,0.2-0.2c-0.1,0-0.2,0-0.4,0
			c0.1-0.1,0.2-0.1,0.3-0.2c-0.1,0-0.2,0-0.3,0c0,0.1,0,0.3,0,0.4c0.1,0,0.2,0,0.3,0c0-0.2,0-0.4,0-0.6c-0.1,0-0.2,0-0.4,0
			c0,0.2,0,0.4,0,0.5c0.1,0,0.2,0,0.3,0c0-0.3,0-0.7,0-1c-0.1,0-0.2,0-0.3,0c0,0.3,0,0.6-0.1,0.8c0.1,0,0.2,0,0.3,0
			c-0.1-0.5-0.1-1,0.1-1.4c-0.1,0-0.2,0-0.4-0.1c0,0.4,0,0.7-0.1,1.1c0.1,0,0.2,0,0.4,0.1c0.1-0.5,0.1-1.1,0.3-1.6
			c-0.1,0-0.2,0-0.4,0c0.2,0.5,0.1,1,0,1.5c0.1,0,0.2,0,0.4,0.1c0-0.8,0.2-1.3,0.5-2c-0.1,0-0.2-0.1-0.4-0.1c-0.1,0.6,0,1.3-0.2,1.9
			c0.1,0,0.2,0,0.4,0c-0.2-0.8,0.3-1.8,0.6-2.5c-0.1,0-0.2-0.1-0.4-0.1c-0.2,0.9-0.1,1.8-0.5,2.6c0.1,0,0.2,0,0.3,0
			c-0.2-0.6,0.3-1.6,0.6-2.1c-0.1,0-0.2-0.1-0.4-0.1c-0.1,0.7-0.2,1.2-0.4,1.8c-0.1,0.2,0.3,0.3,0.4,0.1c0.4-1,0.6-1.9,1.1-2.9
			c0.1-0.2-0.1-0.4-0.3-0.2c-0.8,0.7,0-0.1,0.3-0.3c0.2-0.1,0-0.4-0.2-0.3c-0.3,0.1-0.5,0.2-0.8,0.3c0,0.1,0.1,0.2,0.1,0.3
			c0.2-0.2,0.5-0.4,0.8-0.4c-0.1-0.1-0.1-0.2-0.2-0.3c-0.4,0.2-0.8,0.3-1.2,0.4c0,0.1,0.1,0.2,0.1,0.3c0.4-0.2,0.7-0.4,1.1-0.6
			c0-0.1-0.1-0.2-0.1-0.3c-0.4,0.3-0.7,0.5-1.2,0.6c0,0.1,0.1,0.2,0.1,0.3c0.6-0.3,1.4-0.5,1.6-1.3c0-0.1-0.1-0.2-0.2-0.2
			c-0.7,0-1.3,0.6-1.8,1c-0.7,0.7-1.6,1.2-2.1,2.1c-0.1,0.2,0.1,0.4,0.3,0.3c0.4-0.3,0.8-0.6,1.2-0.8c-0.1-0.1-0.2-0.1-0.3-0.2
			c-0.2,0.6-0.6,1.1-1.1,1.5c0.1,0.1,0.2,0.2,0.3,0.2c0.3-0.6,0.7-1,1.1-1.5c0.2-0.2-0.1-0.5-0.3-0.3c-0.8,1-1,2-1.6,3
			c0.1,0,0.2,0.1,0.3,0.1c0-0.1,0.1-0.2,0.1-0.4c-0.1,0-0.2,0-0.4-0.1c0,0.1,0,0.2-0.1,0.3c0.1,0,0.2,0.1,0.3,0.1
			c0-0.2,0.1-0.3,0.1-0.5c-0.1-0.1-0.2-0.1-0.3-0.2c-0.1,0.2-0.1,0.3-0.2,0.5c0.1,0,0.2,0,0.3,0c0.1-0.2,0.1-0.4,0.2-0.5
			c-0.1,0-0.2-0.1-0.3-0.1c0.1,0.1,0.1,0.1,0.2,0.2c-0.1,0-0.2-0.1-0.4-0.1c0,0,0,0.1-0.1,0.1c0.1,0.1,0.2,0.1,0.3,0.2
			c0-0.3,0.1-0.6,0.2-0.8c-0.1,0-0.2-0.1-0.4-0.1c0,0.1,0,0.3-0.1,0.4c0.1,0,0.2,0,0.4,0.1c0.1-0.5,0.1-1,0.2-1.5
			c0-0.1-0.1-0.3-0.2-0.2c-0.8,0.2-1.1,1-1.9,1.4c0.1,0.1,0.2,0.2,0.2,0.3c0.2-0.2,0.4-0.4,0.6-0.6c0.2-0.1-0.1-0.4-0.2-0.3
			c-0.3,0.2-0.6,0.4-0.9,0.5c0.1,0.1,0.1,0.2,0.2,0.3c0.3-0.4,0.6-0.6,1.1-0.7c0-0.1-0.1-0.2-0.1-0.3c-0.2,0.2-1.2,0.9-0.8,0.4
			c-0.3,0.4-0.9,0.6-1.4,0.8c0.1,0.1,0.2,0.2,0.2,0.3c0.3-0.2,0.5-0.3,0.8-0.5c-0.1-0.1-0.1-0.2-0.2-0.3c-0.5,0.2-0.7,0.4-0.6,0.8
			c0-0.2-0.3-0.3-0.4-0.1c-0.1-0.1-0.3-0.2-0.4-0.4c-0.1,0.1-0.2,0.2-0.3,0.3c0.1,0.1,0.3,0.3,0.4,0.4c0.1-0.1,0.2-0.2,0.3-0.3
			c-0.1-0.2-0.2-0.4-0.4-0.6c-0.1,0-0.2,0.1-0.3,0.1c0.2,0.2,0.4,0.4,0.6,0.6c0.1,0.2,0.4,0,0.3-0.2c-0.1-0.2-0.8-1.1-0.2-0.5
			c0.2,0.2,0.3,0.2,0.6,0.3c0.2,0.1,0.6-0.2,0.6-0.5c0.2-0.6,0.2-1.2-0.1-1.7c-0.3-0.6-0.5-0.9,0.2-1.4c0.3-0.2,0.7-0.4,1-0.6
			c0.2-0.1,0.1-0.4-0.1-0.3c-0.8,0.2-1.4,0.6-2.1,1c0.1,0.1,0.1,0.2,0.2,0.3c0.7-0.4,1.3-0.9,2.1-1c-0.1-0.1-0.1-0.2-0.2-0.3
			c-0.7,0.6-1.8,1.1-2.6,1.5c0.1,0.1,0.1,0.2,0.2,0.3c0.8-0.8,2.1-1,2.8-1.9c0.1-0.1,0-0.4-0.2-0.3c-1.6,0.3-3,1.3-4.4,2
			c0.1,0.1,0.1,0.2,0.2,0.3c0.7-0.7,1.9-1.1,2.8-1.4c0.2-0.1,0.1-0.4-0.1-0.3c-1.1,0.4-2.2,1.3-3.3,1.4c0.1,0.1,0.1,0.2,0.2,0.3
			c0.6-0.6,1.4-0.9,2.1-1.4c0.2-0.1,0-0.4-0.2-0.3c-0.6,0.1-1.1,0.4-1.8,0.7c0,0.1,0.1,0.2,0.1,0.3c0.3-0.1,1-0.3,1-0.7
			C12.3,100.5,12,100.4,11.9,100.6L11.9,100.6z"/>
	</g>
	<g>
		<path class="st11" d="M22.9,97.6c-0.4,0.4-0.5,1.3-0.5,1.8c0,0.2,0.3,0.3,0.4,0.1c0.1-0.5,0.2-0.9,0.5-1.3c-0.1,0-0.2-0.1-0.3-0.1
			c-0.2,0.4-0.4,0.8-0.5,1.3c0,0.2,0.1,0.3,0.3,0.2c0.5-0.3,1-0.3,1.6-0.4c0-0.1-0.1-0.2-0.1-0.4c-0.3,0.1-0.6,0.1-0.9,0.2
			c0,0.1,0.1,0.2,0.1,0.4c0.6-0.3,1.2-0.3,1.9-0.2c0.5,0,1-0.1,1.5,0c0-0.1,0-0.3,0-0.4c-0.5,0-0.9,0.1-1.4,0.2
			c-0.2,0-0.2,0.3,0,0.4c0.6,0.2,2.4-0.5,1.9-1.4c0,0.1,0,0.2-0.1,0.3l0,0c0.2,0.1,0.5-0.1,0.3-0.3l-0.1-0.1c-0.1-0.1-0.1-0.1-0.2,0
			c0,0-0.1,0-0.1,0.1c-0.1,0-0.1,0.2-0.1,0.3c0.3,0.4-1.2,0.9-1.5,0.8c0,0.1,0,0.2,0,0.4c0.4-0.1,0.8-0.1,1.3-0.2
			c0.2,0,0.2-0.4,0-0.4c-0.7-0.1-1.4,0-2.1,0c-0.5,0-1,0.1-1.5,0.3c-0.2,0.1-0.1,0.4,0.1,0.4c0.4,0,0.7-0.1,1-0.2
			c0.2-0.1,0.1-0.4-0.1-0.4c-0.6,0.1-1.1,0.1-1.7,0.5c0.1,0.1,0.2,0.1,0.3,0.2c0.1-0.5,0.3-0.9,0.5-1.3c0.1-0.2-0.2-0.3-0.3-0.1
			c-0.2,0.5-0.4,0.9-0.5,1.4c0.1,0,0.2,0,0.4,0.1c0-0.4,0.1-1.3,0.4-1.6C23.4,97.7,23.1,97.4,22.9,97.6L22.9,97.6z"/>
	</g>
	<g>
		<path class="st11" d="M27.5,99.7c0,0.7,0.1,1.3,0.2,2c0.1,0,0.2,0,0.4-0.1c-0.1-0.7-0.1-1.4-0.2-2.1
			C27.9,99.3,27.5,99.4,27.5,99.7c0,0.7,0.3,1.5,0.4,2.3c0,0.2,0.4,0.2,0.4,0c-0.1-0.8-0.4-1.6-0.4-2.4
			C27.8,99.6,27.6,99.6,27.5,99.7c0.1,0.7,0.1,1.4,0.2,2.1c0,0.2,0.4,0.2,0.4-0.1c-0.1-0.7-0.2-1.3-0.2-2
			C27.9,99.4,27.5,99.4,27.5,99.7L27.5,99.7z"/>
	</g>
	<g>
		<path class="st11" d="M28.6,106.8c0-0.1,0-0.1,0-0.2c-0.1,0-0.2,0.1-0.4,0.1c0,0,0,0,0,0.1s0,0,0,0h0.1l0,0v-0.1l0,0
			c0,0,0,0,0,0.1c0,0,0,0.1-0.1,0.1c0.1,0,0.1,0.1,0.1,0v-0.1c0.1-0.1,0.2-0.3,0.3-0.3c-0.1,0-0.2,0-0.3-0.1c0.1,0.1,0,0.3-0.1,0.4
			C28.5,106.9,28.6,106.9,28.6,106.8c-0.1-0.1,0-0.3,0.1-0.5c-0.1,0-0.2,0-0.3,0c0,0.1,0,0.2-0.1,0.3
			C28.2,106.8,28.5,107,28.6,106.8s0.2-0.4,0.1-0.6c0-0.2-0.3-0.2-0.3,0c-0.2,0.3-0.3,0.7,0,1c0.1,0.1,0.2,0.1,0.3,0
			c0.2-0.2,0.3-0.6,0.1-0.9c0-0.1-0.2-0.1-0.3-0.1c-0.2,0.2-0.7,0.7-0.4,1c0.4,0.4,0.9-0.3,0.6-0.7c-0.1-0.2-0.4-0.2-0.6-0.1
			c-0.1,0.1-0.2,0.3-0.1,0.5s0.3,0.3,0.4,0.2c0.2-0.1,0.2-0.4,0.1-0.6s-0.3-0.1-0.4,0.1v0.1C28.2,107,28.5,107.1,28.6,106.8
			L28.6,106.8z"/>
	</g>
	<g>
		<path class="st11" d="M22.6,106.9c0.1,0.1,0.2,0.1,0.4,0.1c0.2,0,0.2-0.4,0-0.4c-0.1,0-0.1,0-0.2,0
			C22.5,106.6,22.4,106.9,22.6,106.9c0.2,0.2,0.4,0.2,0.5,0.2s0.2-0.2,0.2-0.3c-0.1-0.1-0.1-0.1-0.2-0.2c0,0.1-0.1,0.2-0.1,0.4
			c0.1,0,0,0,0-0.1s0-0.1,0-0.2l0,0l0.1-0.1h0.1c-0.2-0.1-0.4,0.2-0.2,0.3c0.1,0.1,0.3,0,0.3-0.2s-0.2-0.2-0.3-0.2
			c-0.2,0-0.3,0.3-0.1,0.4c0,0,0,0,0.1,0c0.1-0.1,0.1-0.2,0.2-0.3c-0.1,0-0.2,0-0.3-0.1c0,0.1-0.1,0.2-0.1,0.4c0.1,0,0.1,0,0.2,0
			c0-0.1,0-0.3,0-0.4h-0.1c0,0,0.1,0,0.1,0.1C22.8,106.5,22.4,106.7,22.6,106.9L22.6,106.9z"/>
	</g>
	<g>
		<path class="st11" d="M20.7,107.1c0.1,0,0.1,0,0.2,0s0.1-0.1,0.2-0.2c0-0.1-0.1-0.2-0.2-0.2h-0.1C20.5,106.6,20.4,107,20.7,107.1
			C20.7,107,20.7,107.1,20.7,107.1c0.3,0,0.4-0.3,0.2-0.4h-0.1C20.7,106.8,20.7,106.9,20.7,107.1h0.1c-0.1-0.1-0.1-0.2-0.2-0.2l0,0
			l0.1-0.1l0,0h0.1c-0.1,0-0.1,0-0.2,0C20.4,106.7,20.4,107,20.7,107.1L20.7,107.1z"/>
	</g>
	<g>
		<path class="st11" d="M23.3,105.7C23.3,105.6,23.3,105.6,23.3,105.7C23.3,105.5,23.2,105.7,23.3,105.7c0.2-0.2,0-0.5-0.2-0.4
			c-0.1,0.1-0.2,0.2-0.3,0.3c0,0.1,0,0.2,0.1,0.2H23l-0.1-0.1l0,0C23,106,23.3,105.9,23.3,105.7c-0.1-0.1-0.1-0.1-0.2-0.2
			c0,0-0.2-0.1-0.1,0c0,0.1,0.1,0.1,0.1,0.2C23.2,105.7,23.2,105.6,23.3,105.7c-0.1-0.1-0.2-0.2-0.3-0.3c-0.1,0.1-0.1,0.2-0.1,0.3
			C22.9,105.9,23.3,105.9,23.3,105.7L23.3,105.7z"/>
	</g>
	<g>
		<path class="st11" d="M23.9,105.2c0.2,0,0.3-0.1,0.4-0.3c0.1-0.2-0.1-0.4-0.3-0.3c-0.1,0.1-0.2,0.1-0.3,0.2
			C23.8,104.9,23.9,105,23.9,105.2c0.1-0.1,0.2-0.1,0.2-0.2c-0.1-0.1-0.2-0.2-0.3-0.2l-0.1,0.1C23.5,105,23.8,105.3,23.9,105.2
			c0.1-0.1,0.2-0.1,0.2-0.2c0.1-0.2-0.1-0.4-0.3-0.2l-0.1,0.1C23.6,105,23.8,105.3,23.9,105.2c0.1-0.1,0.2-0.1,0.3-0.2
			c-0.1-0.1-0.2-0.2-0.3-0.3c0,0.1-0.1,0.1-0.1,0.1C23.6,104.9,23.7,105.2,23.9,105.2L23.9,105.2z"/>
	</g>
	<g>
		<path class="st11" d="M24.9,105.1c0.8-0.4,1.3-1.1,2.1-1.5c0.2-0.1,0-0.5-0.2-0.3c-0.7,0.4-1.3,1.1-2.1,1.5
			C24.5,104.9,24.7,105.2,24.9,105.1L24.9,105.1z"/>
	</g>
	<g>
		<path class="st11" d="M22.8,104.2L22.8,104.2c0.2-0.2,0-0.4-0.2-0.3c-0.1,0.1-0.2,0.1-0.3,0.2c-0.1,0.2,0.1,0.3,0.3,0.3h0.1
			c0.1,0,0.1,0,0,0c-0.1-0.1-0.1-0.2-0.2-0.3c0.1-0.1,0.1-0.1,0-0.1h-0.1c-0.1,0.1-0.1,0.1-0.1,0.2
			C22.4,104.5,22.8,104.4,22.8,104.2C22.7,104.2,22.7,104.2,22.8,104.2l-0.1,0.1c0,0-0.1,0,0,0C22.7,104.3,22.8,104.3,22.8,104.2
			c0.1-0.1,0-0.2-0.1-0.2s-0.2,0.1-0.3,0.1c0.1,0.1,0.2,0.2,0.3,0.3C22.6,104.3,22.7,104.3,22.8,104.2c-0.1-0.1-0.2-0.2-0.3-0.3
			c0,0.1-0.1,0.1-0.1,0.2s0,0.2,0.1,0.2C22.6,104.4,22.7,104.3,22.8,104.2L22.8,104.2z"/>
	</g>
	<g>
		<path class="st11" d="M21.9,104.2c0-0.1,0.1-0.1,0.1-0.2c-0.1,0-0.2-0.1-0.3-0.1c0,0.1-0.1,0.2-0.1,0.3
			C21.5,104.4,21.9,104.5,21.9,104.2L21.9,104.2C22,104.1,21.9,104.1,21.9,104.2c0.2-0.2-0.2-0.4-0.3-0.2c0,0.1,0,0.1,0,0.2
			C21.7,104.2,21.8,104.2,21.9,104.2s0.1-0.1,0.1-0.3c0.1-0.2-0.2-0.3-0.3-0.1c-0.1,0.1-0.1,0.2-0.1,0.3
			C21.5,104.3,21.8,104.4,21.9,104.2L21.9,104.2z"/>
	</g>
	<g>
		<path class="st11" d="M22.7,103.6c0.2-0.1,0.3-0.2,0.5-0.4c0.2-0.1,0-0.4-0.2-0.3c-0.1,0.1-0.3,0.1-0.4,0.3
			c-0.1,0.2,0.2,0.4,0.3,0.2c0-0.1,0.2-0.1,0.2-0.2c-0.1-0.1-0.1-0.2-0.2-0.3c-0.2,0.1-0.4,0.3-0.6,0.4
			C22.3,103.5,22.5,103.7,22.7,103.6L22.7,103.6z"/>
	</g>
	<g>
		<path class="st11" d="M22.4,101.2c-0.1,0-0.1,0-0.1,0.1c-0.1,0.1,0,0.2,0.1,0.3c0.1,0,0.1,0,0.2,0
			C22.4,101.5,22.4,101.4,22.4,101.2c-0.1,0.2-0.2,0.3-0.3,0.4c0.1,0.1,0.2,0.2,0.2,0.3c0.1-0.1,0.3-0.2,0.4-0.4
			C22.8,101.3,22.7,101.1,22.4,101.2c0,0-0.1,0.1-0.2,0.2c-0.2,0.1,0,0.5,0.2,0.3c0.1-0.1,0.2-0.1,0.3-0.2
			C22.6,101.4,22.5,101.3,22.4,101.2c-0.1,0.2-0.2,0.3-0.4,0.4c-0.2,0.1,0.1,0.4,0.2,0.3c0.2-0.1,0.3-0.2,0.4-0.4
			C22.7,101.3,22.6,101.1,22.4,101.2c0.1,0,0.1,0,0.1,0c0,0.1,0,0.2,0.1,0.3l0,0l-0.1,0.1l0,0C22.7,101.5,22.6,101.1,22.4,101.2
			L22.4,101.2z"/>
	</g>
	<g>
		<path class="st11" d="M21.3,101.5L21.3,101.5c0-0.1,0-0.1,0-0.2C21.3,101.3,21.3,101.3,21.3,101.5c0,0,0,0.1,0.1,0.1l0,0
			c0.1,0,0.1,0,0.2,0l0.1-0.1c-0.1-0.1-0.2-0.2-0.3-0.3C21.4,101.3,21.3,101.4,21.3,101.5c-0.2,0.2,0.1,0.4,0.2,0.2
			c0-0.1,0.1-0.2,0.1-0.2c0.2-0.2-0.1-0.4-0.3-0.3l-0.1,0.1c0.1,0,0.1,0,0.2,0l0,0c0,0.1,0.1,0.2,0.1,0.2s0,0,0-0.1s0-0.1-0.1-0.2
			C21.4,101.1,21.2,101.4,21.3,101.5L21.3,101.5z"/>
	</g>
	<g>
		<path class="st11" d="M15.9,101.4C15.9,101.3,15.9,101.3,15.9,101.4c0.2-0.3-0.2-0.4-0.3-0.2c0,0,0,0.1-0.1,0.1c0,0,0,0.1-0.1,0.1
			l0,0l0,0c-0.1,0.1,0,0.4,0.2,0.3c0.1,0,0.2-0.1,0.3-0.1c0.2,0.1,0.4-0.2,0.2-0.3c-0.2-0.1-0.4,0-0.6,0c0.1,0.1,0.1,0.2,0.2,0.3
			C15.8,101.5,15.9,101.4,15.9,101.4c-0.1-0.1-0.2-0.2-0.3-0.2l0,0C15.4,101.4,15.8,101.6,15.9,101.4L15.9,101.4z"/>
	</g>
	<g>
		<path class="st11" d="M60.9,105.3c0-0.1,0.1-0.1,0.1-0.2c0.1-0.2-0.2-0.4-0.3-0.2c-0.1,0.2-0.2,0.3-0.3,0.5c0.1,0,0.2,0.1,0.3,0.1
			c0-0.2,0.1-0.3,0.1-0.4c0.1-0.2-0.3-0.3-0.3-0.1c-0.1,0.2-0.2,0.3-0.3,0.5c0.1,0.1,0.2,0.1,0.3,0.2c0.1-0.2,0.2-0.3,0.2-0.5
			c0.1-0.2-0.2-0.3-0.3-0.1c-0.1,0.2-0.3,0.5-0.4,0.7c-0.1,0.2,0.3,0.3,0.4,0.1c0.1-0.3,0.2-0.6,0.4-0.8c-0.1,0-0.2-0.1-0.4-0.1
			c-0.1,0.2-0.2,0.5-0.3,0.7c0.1,0,0.2,0.1,0.3,0.1c0.1-0.3,0.2-0.5,0.3-0.8c0.1-0.2-0.2-0.4-0.3-0.2c-0.2,0.3-0.3,0.6-0.3,0.9
			c0,0.2,0.2,0.4,0.3,0.1c0.1-0.2,0.2-0.5,0.3-0.7s-0.2-0.4-0.3-0.2c-0.1,0.2-0.2,0.4-0.3,0.6c0.1,0,0.2,0.1,0.3,0.1
			c0.1-0.3,0.2-0.5,0.3-0.7c0-0.2-0.3-0.3-0.4-0.1c-0.1,0.2-0.2,0.5-0.2,0.7c0.1,0,0.2,0.1,0.4,0.1c0.1-0.3,0.2-0.5,0.3-0.8
			c0.1-0.2-0.2-0.3-0.3-0.1c-0.2,0.4-0.4,0.7-0.5,1.1c0,0.2,0.2,0.3,0.3,0.2c0.3-0.3,0.6-0.6,0.8-0.9c-0.1-0.1-0.2-0.2-0.3-0.2
			c-0.1,0.2-0.3,0.4-0.4,0.7c-0.1,0.2,0.1,0.4,0.3,0.3c0.3-0.2,0.5-0.5,0.8-0.8c0.1-0.2-0.2-0.4-0.3-0.2c-0.2,0.2-0.3,0.4-0.4,0.6
			c0,0.2,0.1,0.3,0.3,0.2c0.4-0.3,0.8-0.6,1-1.1c0-0.2-0.1-0.3-0.3-0.2C61.4,104.6,61.2,104.9,60.9,105.3c0,0.1,0.1,0.3,0.3,0.3
			c0.6,0,1.3-0.6,1.5-1.1c0.1-0.1-0.1-0.3-0.2-0.2c-0.5,0.2-1,0.6-1.3,1.1c-0.1,0.1,0,0.3,0.2,0.3c0.6,0,1.5-0.5,1.8-1
			c0.1-0.2,0-0.3-0.2-0.3c-0.6,0.1-1.2,0.6-1.6,1.1c-0.1,0.1,0,0.3,0.1,0.3c0.7-0.1,1.5-0.5,2-1c0.1-0.1,0-0.3-0.1-0.3
			c-0.6,0-1.3,0.4-1.7,0.9c-0.1,0.1,0.1,0.3,0.2,0.3c0.6-0.1,1.8-0.6,1.8-1.3c0-0.2-0.2-0.2-0.3-0.2c-0.3,0.2-0.6,0.4-0.8,0.6
			c-0.2,0.1,0,0.4,0.2,0.3c0.5-0.2,0.9-0.5,1.3-0.9c0.1-0.1,0-0.3-0.1-0.3c-0.4,0-0.7-0.1-1.1-0.2c-0.4-0.1-0.9-0.1-1.3-0.3
			c-0.2-0.1-0.4,0.1-0.2,0.3c0.2,0.2,0.4,0.4,0.5,0.6s0.4,0.1,0.3-0.1c-0.1-0.3-0.2-0.6-0.3-0.9c-0.1-0.1-0.3-0.1-0.3,0
			c-0.1,0.4,0.1,0.5,0.1,0.8c0.1-0.1,0.2-0.1,0.3-0.2c-0.2-0.2-0.3-0.4-0.3-0.6c-0.1,0-0.2,0-0.4,0.1c0.1,0.5,0,1.1-0.1,1.6
			c0.1,0,0.2,0,0.4,0.1c0-0.5,0-1,0.1-1.5c-0.1,0-0.2,0-0.4-0.1c-0.1,0.5-0.1,0.9,0.1,1.3c0,0.1,0.2,0.2,0.3,0.1
			c0.4-0.4,0.3-1.1,0.2-1.7c0-0.2-0.4-0.1-0.4,0.1c0,0.4,0.1,0.8,0.3,1.2c0.1,0.2,0.4,0.2,0.4-0.1c0-0.4,0-0.7-0.1-1
			c0-0.2-0.4-0.2-0.4,0c0,0.4,0.1,0.8,0.2,1.2c0.1,0.2,0.3,0.1,0.3,0c0.1-0.4,0-0.7-0.1-1.1c0-0.2-0.4-0.2-0.4,0.1
			c0,0.4,0.1,0.8,0.3,1.1c0.1,0.1,0.3,0.1,0.3,0c0.1-0.4,0-0.8-0.2-1.1c-0.1-0.2-0.3-0.1-0.4,0.1c0,0.4,0,1.1,0.4,1.3
			c0.5,0.2,0.4-0.8,0.3-1c0-0.2-0.3-0.2-0.4,0c-0.1,0.3-0.2,0.8,0.1,1c0.4,0.2,0.6-0.4,0.7-0.7c0.1-0.2-0.1-0.4-0.3-0.2
			c-0.2,0.2-0.4,0.4-0.5,0.6c0,0.1,0.1,0.3,0.2,0.2c0.4-0.1,0.6-0.3,0.9-0.6c0.1-0.2,0-0.4-0.2-0.3c-0.3,0.1-0.5,0.3-0.6,0.6
			c-0.1,0.2,0.1,0.3,0.3,0.2c0.3-0.1,0.6-0.3,0.8-0.6c0.1-0.2-0.1-0.3-0.2-0.3c-0.4,0.1-0.6,0.3-0.8,0.6c-0.1,0.1,0.1,0.3,0.2,0.3
			c0.2-0.1,0.4-0.2,0.6-0.4c0.2-0.2-0.1-0.4-0.3-0.3c-0.1,0.1-0.3,0.2-0.4,0.4c-0.2,0.2,0.1,0.5,0.3,0.3c0.1-0.1,0.2-0.3,0.4-0.4
			c-0.1-0.1-0.2-0.2-0.3-0.3c-0.1,0.1-0.3,0.2-0.4,0.3c0.1,0.1,0.1,0.2,0.2,0.3c0.1-0.2,0.3-0.3,0.6-0.4c-0.1-0.1-0.1-0.2-0.2-0.3
			c-0.2,0.3-0.4,0.4-0.6,0.5c0.1,0.1,0.2,0.1,0.3,0.2c0.1-0.2,0.2-0.3,0.4-0.4c-0.1-0.1-0.2-0.2-0.2-0.3c-0.2,0.2-0.4,0.4-0.7,0.5
			c0.1,0.1,0.2,0.2,0.2,0.2c0.1-0.2,0.2-0.4,0.4-0.5c-0.1-0.1-0.2-0.2-0.3-0.2c-0.1,0.1-0.1,0.3-0.2,0.4c0-0.1,0-0.3,0.1-0.4
			c-0.1,0-0.2,0-0.4,0c0,0.1,0,0.3,0,0.4c-0.1-0.2-0.1-0.5-0.1-0.7c-0.1,0-0.2,0.1-0.4,0.1c0.2,0.3,0.3,0.5,0.2,0.9
			c0.1,0,0.2,0,0.3,0c-0.2-0.3-0.3-0.6-0.3-0.9c-0.1,0-0.2,0-0.4,0.1c0,0.3,0.1,0.6,0.1,0.9c0.1,0,0.2,0,0.3,0
			c-0.1-0.3-0.2-0.6-0.2-1c-0.1,0-0.3,0-0.4,0c0,0.3,0.1,0.7,0.1,1c0.1,0,0.2,0,0.4-0.1c-0.2-0.4-0.3-0.7-0.3-1.1
			c-0.1,0-0.2,0-0.4,0.1c0.1,0.4,0.1,1-0.1,1.3c0.1,0,0.2,0.1,0.3,0.1c-0.1-0.4-0.1-0.8,0-1.2c0-0.2-0.3-0.3-0.4-0.1
			c-0.1,0.5-0.1,1.1-0.1,1.6c0,0.2,0.3,0.3,0.4,0.1c0.1-0.6,0.2-1.2,0.1-1.8c0-0.2-0.4-0.2-0.4,0.1c0,0.4,0.1,0.7,0.5,0.9
			c0.1,0.1,0.3,0,0.3-0.2s-0.2-0.5-0.1-0.7c-0.1,0-0.2,0-0.3,0c0.1,0.3,0.2,0.6,0.3,0.8c0.1,0,0.2-0.1,0.3-0.1
			c-0.1-0.3-0.3-0.5-0.5-0.7c-0.1,0.1-0.2,0.2-0.2,0.3c0.4,0.2,0.9,0.3,1.4,0.4c0.4,0.1,0.8,0.2,1.2,0.2c0-0.1-0.1-0.2-0.1-0.3
			c-0.4,0.4-0.8,0.6-1.2,0.8c0.1,0.1,0.2,0.2,0.2,0.3c0.2-0.2,0.5-0.4,0.8-0.5c-0.1-0.1-0.2-0.1-0.3-0.2c0,0.4-1.2,0.8-1.5,0.9
			c0.1,0.1,0.1,0.2,0.2,0.3c0.3-0.4,0.9-0.7,1.3-0.7c0-0.1-0.1-0.2-0.1-0.3c-0.5,0.4-1.1,0.8-1.8,0.9c0,0.1,0.1,0.2,0.1,0.3
			c0.4-0.4,0.9-0.8,1.5-1c-0.1-0.1-0.1-0.2-0.2-0.3c-0.2,0.4-1,0.8-1.5,0.9c0.1,0.1,0.1,0.2,0.2,0.3c0.2-0.4,0.6-0.8,1.1-0.9
			c-0.1-0.1-0.2-0.2-0.2-0.2c-0.1,0.4-0.8,0.8-1.2,0.8c0.1,0.1,0.1,0.2,0.2,0.3c0.1-0.3,0.3-0.6,0.7-0.8c-0.1-0.1-0.2-0.1-0.3-0.2
			C61.6,104.8,61.2,105.1,60.9,105.3c0.1,0.1,0.2,0.2,0.3,0.2c0.1-0.1,0.2-0.3,0.3-0.4c-0.1-0.1-0.2-0.2-0.3-0.2
			c-0.2,0.3-0.4,0.5-0.6,0.7c0.1,0.1,0.2,0.2,0.3,0.3c0.1-0.2,0.2-0.5,0.4-0.7c0.1-0.2-0.2-0.4-0.3-0.2c-0.3,0.3-0.6,0.6-0.8,0.9
			c0.1,0.1,0.2,0.1,0.3,0.2c0.1-0.4,0.3-0.7,0.5-1c-0.1,0-0.2-0.1-0.3-0.1c-0.1,0.3-0.2,0.5-0.3,0.8c-0.1,0.2,0.3,0.3,0.4,0.1
			c0.1-0.2,0.1-0.5,0.2-0.7c-0.1,0-0.2-0.1-0.4-0.1c0,0.3-0.2,0.5-0.3,0.7s0.3,0.3,0.3,0.1C60.7,105.7,60.8,105.5,60.9,105.3
			c-0.1-0.1-0.2-0.1-0.3-0.2c-0.1,0.2-0.2,0.5-0.3,0.7c0.1,0,0.2,0.1,0.3,0.1c0-0.3,0.1-0.6,0.3-0.8c-0.1-0.1-0.2-0.1-0.3-0.2
			c-0.1,0.3-0.3,0.6-0.4,0.9c0,0.2,0.3,0.3,0.3,0.1c0.1-0.3,0.2-0.5,0.4-0.8c0.1-0.2-0.3-0.3-0.4-0.1c-0.1,0.3-0.2,0.6-0.4,0.8
			c0.1,0,0.2,0.1,0.4,0.1C60.6,105.7,60.7,105.4,60.9,105.3c-0.2-0.1-0.3-0.2-0.4-0.2c-0.1,0.2-0.1,0.3-0.2,0.5
			c-0.1,0.2,0.2,0.4,0.3,0.2C60.7,105.6,60.8,105.5,60.9,105.3c-0.1,0-0.2-0.1-0.3-0.1c-0.1,0.1-0.1,0.3-0.1,0.4
			c0,0.2,0.2,0.3,0.3,0.1c0.1-0.2,0.2-0.3,0.3-0.5c-0.1-0.1-0.2-0.1-0.3-0.2c0,0.1-0.1,0.1-0.1,0.2
			C60.5,105.3,60.8,105.5,60.9,105.3L60.9,105.3z"/>
	</g>
	<g>
		<path class="st11" d="M60.8,103.6c0,0.3-0.1,0.6-0.2,0.8c-0.1,0.3-0.3,0.7-0.5,0.9c0.1,0.1,0.2,0.1,0.3,0.2c0.2-0.5,0.4-1,0.5-1.5
			c0-0.2-0.3-0.3-0.4-0.1c-0.1,0.6-0.4,1.2-0.8,1.8c-0.1,0.2,0.1,0.3,0.3,0.3c0,0,0,0,0.1,0c-0.1-0.1-0.2-0.2-0.2-0.3
			c-0.1,0.1-0.1,0.1-0.2,0.2c0.1,0.1,0.2,0.2,0.3,0.2l0.1-0.1c0.2-0.2-0.1-0.4-0.3-0.3l-0.1,0.1c-0.2,0.1,0,0.5,0.2,0.3
			c0.1,0,0.1-0.1,0.2-0.1c-0.1-0.1-0.2-0.2-0.3-0.3c-0.1,0.1-0.1,0.1-0.1,0.2c-0.1,0.2,0.1,0.4,0.3,0.2c0.1-0.1,0.1-0.1,0.2-0.2
			c0.2-0.2,0-0.4-0.2-0.3c0,0,0,0-0.1,0c0.1,0.1,0.2,0.2,0.3,0.3c0.4-0.6,0.6-1.2,0.8-1.9c-0.1,0-0.2-0.1-0.4-0.1
			c-0.1,0.5-0.2,1-0.5,1.5c-0.1,0.2,0.2,0.4,0.3,0.2c0.4-0.5,0.8-1.4,0.7-2C61.2,103.3,60.8,103.4,60.8,103.6L60.8,103.6z"/>
	</g>
	<g>
		<path class="st11" d="M59.5,82.4c1.4,1,1.2-1.7,1.1-2.4c0-0.2-0.4-0.2-0.4,0c0,0.4,0.1,0.9,0.1,1.3c0,0.2,0,0.5-0.1,0.7
			c-0.1,0.3-0.3,0.1-0.5,0C59.5,82,59.3,82.3,59.5,82.4L59.5,82.4z"/>
	</g>
</g>
<g>
	<g>
		<path class="st10" d="M65.4,29c0.8-0.9,1.2-2,1.6-3c0.7-1.6,1.4-3.1,2.7-4.3c2.7-2.4,6.3-2.8,9.8-2.9c8-0.1,15.8-2.1,23.8-2.4
			c1.6-0.1,3.7,0,5,1.2c1.8,1.6-0.2,3.7-1.4,4.9c-0.2,0.2,0,0.4,0.2,0.3c3.2-1.4,8-3.9,11.6-2.2c0.9,0.4,1.2,1.3,1.7,2.1
			c0.7,1.1,1.7,2.1,2.7,3c1.4,1.1,2.9,2,4.2,3.2c1.1,1,2.3,2.1,3.6,2.9c1.5,0.9,3,1.7,4,3.3c0.8,1.2,1.3,2.7,1.4,4.2
			c0.3,3.3-0.6,6.7-1.7,9.8c-0.1,0.2,0.3,0.3,0.4,0.1c1.9-5.2,3.5-12.6-1.8-16.4c-1.6-1.2-3.4-2-4.9-3.4c-0.7-0.6-1.3-1.3-2-1.8
			c-0.7-0.6-1.6-1-2.4-1.6c-1.3-1-2.7-2.3-3.5-3.8c-0.4-0.7-0.7-1.4-1.5-1.8c-3.7-1.9-8.7,0.7-12.1,2.2c0.1,0.1,0.2,0.2,0.2,0.3
			c1.7-1.5,3.5-4.2,0.9-5.8c-1.2-0.7-2.7-0.9-4-0.9c-2.4,0-4.8,0.3-7.2,0.6c-4.8,0.6-9.5,1.5-14.3,1.8c-3.6,0.2-7.3-0.2-10.7,1.4
			c-1.7,0.8-3.2,2-4.1,3.6c-1,1.7-1.3,3.9-2.6,5.4C64.9,28.9,65.2,29.2,65.4,29L65.4,29z"/>
	</g>
</g>
<g>
	<g>
		<path class="st10" d="M132.3,52.5c0,10,0,19.9-0.2,29.9c-0.2,7.1-1.7,14.1-1.5,21.2c0.1,3.1,0.6,6.4,2.6,8.8
			c0.2,0.2,0.4-0.1,0.3-0.3c-2-2.4-2.4-5.7-2.5-8.7c-0.1-3.4,0.3-6.8,0.6-10.2c0.4-3.4,0.7-6.7,0.8-10.1c0.1-4.8,0.2-9.6,0.2-14.3
			c0-5.4,0-10.8,0-16.3C132.7,52.2,132.3,52.2,132.3,52.5L132.3,52.5z"/>
	</g>
</g>
<path d="M28,97.5l1,4.9l0.2,3.9l-0.7,0.9l-1.9,0.1l-2-0.5l-4.4-0.2l-1.2-0.6c0,0-0.2-1.2-0.2-1.5s-0.6-0.7-0.6-0.7l-2.3,1.6
	l-1.4-0.1l-2.2-1l-1.1-0.2l-0.9,0.6l-0.6-0.6l0.4-1.7l0.6-1.4l1.6-0.8l7.2-2l4-0.6l2.9-0.2L28,97.5z"/>
</svg>
