<?xml version="1.0" encoding="utf-8"?>
<!-- Generator: Adobe Illustrator 24.0.1, SVG Export Plug-In . SVG Version: 6.00 Build 0)  -->
<svg version="1.1" id="Layer_1" xmlns="http://www.w3.org/2000/svg" xmlns:xlink="http://www.w3.org/1999/xlink" x="0px" y="0px"
	 viewBox="0 0 141.7 141.7" style="enable-background:new 0 0 141.7 141.7;" xml:space="preserve">
<style type="text/css">
	.st0{fill:#FFFFFF;}
	.st1{opacity:0.8;fill:#609B44;}
	.st2{opacity:0.21;fill:#7DCFD8;}
	.st3{opacity:0.22;fill:#B44E9D;}
	.st4{opacity:0.2;fill:#39499E;}
	.st5{opacity:0.7;fill:url(#SVGID_1_);}
	.st6{opacity:0.3;fill:#39499E;}
	.st7{fill:#F1DF57;}
	.st8{fill:#7DCFD8;}
	.st9{opacity:0.67;fill:#B44E9D;}
	.st10{opacity:0.75;fill:#39499E;}
	.st11{opacity:0.44;fill:#39499E;}
	.st12{opacity:0.8;fill:#B77329;}
	.st13{opacity:0.8;fill:#EDBC7A;}
	.st14{opacity:0.47;fill:#7DCFD8;}
	.st15{opacity:0.51;fill:#F1DF57;}
	.st16{opacity:0.32;fill:#F3D420;}
	.st17{fill:#75CEEB;}
	.st18{fill:#E2DEDE;}
	.st19{fill:#C9B09D;}
	.st20{opacity:0.59;fill:#B862A7;}
	.st21{opacity:0.7;fill:#F1DF57;}
	.st22{fill:#B862A7;}
	.st23{fill:#231F20;}
	.st24{fill:#070707;}
	.st25{fill:#070707;stroke:#070707;stroke-width:6.817044e-02;stroke-miterlimit:10;}
	.st26{fill:none;stroke:#070707;stroke-width:0.409;stroke-miterlimit:10;}
</style>
<g>
	<path class="st0" d="M45.2,107.8l-1.9,0.8l-4.1,1.2l-5.5,0.9l-5.7,0.2l-4.8-0.8c0,0-14.7-3.1-16-16.6c0,0-1.5-6.8,5.9-17.6l4.6-7
		l2.3-3.7c0,0,2.9-6.1,2.6-6.5c0,0-2.8-0.7-2-3.4l1.1-3.3c0,0,0.2-1.2,1.4-1.8c1.2-0.6,0-0.3,0-0.3l-2.1-1.2L20,47.6l-0.2-1.3l0.2-1
		L19.6,45l-0.8-1v-0.9c0,0,0-1.8,2-3.2c0,0-8.3-4.9-3.1-8.8c0,0-4.3-2.7-1.3-6.3c0,0,2.3-1.8,3.8-1.1c0,0-2.2-4.5,0.8-6.7
		c0,0,1.4-1.6,4.2-0.4c0,0-0.5-3.6,2.9-4.9c0,0,2.4-1.5,5.1,1.7c0,0,0.9-3.1,2.3-4.1c0,0,6.7-5,12.4-4.1c0,0,2.7,0,6.1,5.4
		c0,0,2.2,4.2,2.6,6.1c0,0,1.1,4.5-0.1,7.5l-0.9,2.3l-1.2,1.3l-1.4,1.1l1.8,0l1.7,0.7l1,0.8l1.1,2.1l0.5,2.6l0.2,2.6l-0.3,2.5
		l-0.8,2l-1.3,2l-1.5,1.4L53.5,46l-1.7,0.1l1.7,1l1.3,1.4l0.6,0.9c0,0,6.7-8,13.6-9.9c0,0,1.6-2.5,3.1-2.8c0,0-2.2-5.5,3.1-7.4
		c0,0,6.6-1.8,8.7,5.8c0,0,1.1-1.3,2.7,0l1.8,1.2c0,0,11.8,4.1,13.7,6.3c0,0,6.5,3.9,8.5,8.5c0,0,4.5-2.6,7,0.9c0,0,1.5,1.3,0,4.9
		c0,0-0.6,1.6-3.7,1.6l0.8,4.2v3.3c0,0,1.4,6.2-8.4,16.9l-3.6,3.2c0.4,0.1,0.7,0.3,0.8,0.4c0.5,0.5,0.6,1.2,1.1,1.2c0,0,0,0,0.1,0
		c0.2,0.4,0.4,0.8,0.6,1.2c0.1,0.4,0.2,0.8,0.3,1.2c-0.1,0.4-0.2,0.9-0.3,1.3c-0.2,0.1-0.5,0.2-0.7,0.2l-1.2-0.4
		c-0.4-0.4-0.7-0.9-1.1-1.3c-0.1-0.3-0.2-0.7-0.3-1c-0.3-0.5-0.5-1-0.8-1.6l-0.3,0.3c0.1,0.5,0.1,0.9,0.2,1.4
		c-0.1,0.5-0.1,0.9-0.2,1.4l-0.7,1l-1,0.3L98,91.8l-1-0.1l-0.4-0.3l0.5,2.1l0.1,2.1c0,0.3-0.1,0.7-0.1,1c-0.1,0-0.3,0.1-0.4,0.1
		c-0.3-0.2-0.6-0.4-0.9-0.6l-0.8-1c0,0-1.5,3.3,0.7,11c0,0,0.7,3.5,0.3,4.7c1.7,0.1,3,0.2,4,0.2c1.1,0,2.8,0.1,4.3,0.1
		c0.8,0,1.5,0,2.4,0.1c1,0,1.1,0.1,1.6,0.1c0.5,0,0.8,0,1.3,0c0.4,0,0.5,0.1,0.9,0.1c0.6,0.1,0.9,0.1,1.3,0.1c0.5,0,1.1,0.1,2,0.2
		c0.8,0.1,1.9,0.2,3.2,0.4c2.7,0.3,3.5,0.5,3.9,0.5c1.6,0.3,2.8,0.6,3.2,0.7c1.7,0.4,3.6,0.9,5.7,2c0.4,0.2,0.8,0.4,1,0.5
		c0.5,0.3,1.6,0.9,2.5,1.6c0.3,0.2,0.6,0.4,0.6,0.5c0.4,0.3,0.7,0.6,1.1,1c0.3,0.3,0.5,0.6,0.8,1c0.2,0.3,0.3,0.6,0.4,0.8
		c0.1,0.3,0.1,0.5,0.1,0.7c0,0.3,0,0.5,0,0.5c0,0.1-0.1,0.2-0.1,0.2c0,0.1-0.1,0.2-0.2,0.4c-0.2,0.3-0.6,0.7-0.7,0.8
		c-0.6,0.4-1.2,0.7-1.8,1.1l-2.1,0.9c0,0-3.8,1.6-4.8,2.9c-0.2,0.2-0.4,0.5-0.7,0.8c-0.5,0.6-0.7,1.2-0.9,1.7l-0.7,0.8l-0.8,0.4
		l-1.3,0.1L121,132c-0.2,0-0.3,0-0.5,0c-0.3,0-0.5,0-0.7,0.1c-0.2,0-0.3,0-0.5,0.1c-0.3,0-0.5,0.1-0.7,0.2c-0.3,0.1-0.6,0.1-0.9,0.3
		c-0.2,0.1-0.4,0.2-0.6,0.3c-0.3,0.2-0.6,0.4-0.9,0.6l-2,0l-12.2,0.2c0,0-3.9-0.3-4.6-0.9l-1.4,1.4c0,0-4.6,2.8-8.1-2.4l-0.8,0.4
		l-0.8,1l-0.8,1.2l-1.2,0.3l-7.3,0.3c-0.1,0.1-0.3,0.1-0.5,0.2c-0.2,0.1-0.3,0.2-0.4,0.3c-0.2,0.3-0.5,0.5-0.7,0.8
		c0,0-0.1,0.1-0.2,0.2c-0.1,0.1-0.2,0.1-0.2,0.1c0,0-0.1,0-0.3,0.1c-0.1,0-0.2,0.1-0.3,0.1c-0.2,0-0.4,0.1-0.6,0.1
		c-0.3,0-0.5,0-0.7-0.1c-0.2-0.1-0.5-0.1-0.8-0.2c-0.3-0.1-0.6-0.2-0.9-0.4c-0.4-0.2-0.8-0.4-1.2-0.6c-0.2-0.1-0.5-0.3-0.8-0.4
		c-0.3-0.1-0.7-0.3-0.9-0.3c-0.2-0.1-0.5-0.2-0.7-0.2c-0.3-0.1-0.6-0.1-0.8-0.1c-0.4,0-0.8-0.1-1.2-0.1c-1.3-0.1-2.3-0.1-3,0
		c-0.7,0.1-1.4,0.1-2.2,0.3c-0.4,0.1-1.1,0.1-1.9,0.3c-1,0.2-1.6,0.3-2.5,0.5c-0.8,0.2-2,0.5-3.4,0.8c-0.1,0-0.3,0.1-0.5,0.1
		c-0.2,0-0.4,0-0.5,0c-0.1,0-0.2-0.1-0.2-0.1c0-0.1,0-0.1,0-0.1c0.1-0.1,0.1-0.1,0.3-0.2c0.2-0.2,0.4-0.3,0.6-0.4
		c0.1-0.1,0.2-0.1,0.4-0.2c0.2-0.1,0.4-0.2,0.6-0.3c0.2-0.1,0.4-0.2,0.5-0.4c0.1-0.1,0.2-0.2,0.3-0.3c0.1-0.1,0.1-0.2,0.2-0.2
		c0,0,0.1-0.1,0-0.1c0,0,0-0.1,0-0.1c0-0.1-0.1-0.1-0.1-0.1c0,0-0.1-0.1-0.2-0.2c-0.2-0.2-0.5-0.2-0.5-0.2c-0.7-0.2-0.9-0.3-0.9-0.3
		c-0.4-0.1-0.9-0.1-1.6-0.2c-0.5,0-1.1-0.1-2-0.1c-0.5,0-0.8,0-1.1,0c-2.3,0-3.5,0-3.7,0c-1,0-1.9,0.1-3,0.1c-0.1,0-0.3,0-0.5,0
		c-0.7,0-1,0-1.7,0.1c-0.5,0-0.4,0-1.2,0c-0.7,0-0.9,0-1.5,0.1c-0.8,0-1.4,0-1.7,0c-0.9,0-3.3,0.1-9.6,0.4c-0.6,0-1.1,0-1.7,0
		c-0.5-0.1-0.9-0.1-1.4-0.2c-0.1,0-0.2-0.1-0.4-0.2c-0.1-0.1-0.2-0.2-0.3-0.3c0-0.1,0-0.1,0-0.3c0-0.1,0-0.2,0.1-0.2
		c0.1-0.1,0.2-0.3,0.3-0.4c0.1-0.2,0.3-0.3,0.4-0.4c0.7-0.6,1.4-1,1.9-1.4c0,0,0.8-0.5,1.6-1c0.2-0.1,0.4-0.2,0.4-0.2
		c0.1-0.1,0.2-0.1,0.4-0.2c0.2-0.1,0.3-0.2,0.4-0.2c0.2-0.1,0.4-0.2,0.7-0.4c-0.2,0-0.8,0.1-1.3-0.2c-0.7-0.3-1.1-0.9-1.2-1.1
		L12.1,127l-2-0.3c0,0-0.1,0-0.1,0c-0.3,0-0.4,0-0.7,0c-0.4-0.1-0.7-0.1-0.7-0.1c-0.4-0.1-0.6-0.1-0.8-0.2c-0.2-0.1-0.6-0.2-0.9-0.5
		c-0.2-0.2-0.4-0.4-0.5-0.6c-0.1-0.2-0.3-0.6-0.3-1c-0.1-0.8,0.1-1.4,0.2-1.7c0.2-0.6,0.4-1,0.7-1.3c0.3-0.3,0.6-0.6,0.8-0.8
		c0.3-0.3,0.6-0.5,0.9-0.7c0.2-0.1,0.5-0.3,0.8-0.6c0.2-0.1,1-0.6,2.4-1.3c1-0.5,1.7-0.8,2.2-1c0.9-0.4,1.6-0.6,2.2-0.8
		c0.6-0.2,1.4-0.5,2.4-0.8c0.4-0.1,1.4-0.4,2.9-0.7c1.6-0.4,2.8-0.6,3.3-0.6c0.9-0.1,1.5-0.2,1.9-0.2c0.5,0,0.8-0.1,1.1-0.1
		c2.3-0.4,4.7-0.7,7.2-0.9c4.6-0.4,8.9-0.6,12.8-0.5L45.2,107.8z"/>
	<path class="st0" d="M15.3,62.8c-0.4,0.1-1.5,0.4-2.7,0.1c-0.4-0.1-1.4-0.4-2.3-1.4c-1.1-1.3-1.1-3-0.8-4c0.2-0.8,0.6-1.3,0.8-1.6
		c0.3-0.4,0.6-0.8,1.1-1.2c0.6-0.5,1.3-0.6,1.5-0.7c0.3-0.1,1.3-0.2,2.3,0.2c0.5,0.2,0.8,0.5,1.2,0.8c0.4,0.3,0.8,0.6,1.1,1.2
		c0.4,0.6,0.5,1.1,0.6,1.5c0.2,0.7,0.1,1.2,0.1,1.4c0,0.4-0.1,0.8-0.3,1.3c-0.2,0.4-0.4,0.7-0.8,1.1c-0.3,0.3-0.5,0.6-0.9,0.9
		C16.1,62.4,15.8,62.6,15.3,62.8z"/>
	<path class="st0" d="M10.2,65.2c0.1-0.3,0.3-0.7,0.8-1c0.1,0,0.5-0.2,0.9-0.1c0.5,0.2,0.7,0.7,1,1.3c0.2,0.5,0.4,0.9,0.3,1.4
		c0,0.2-0.1,0.7-0.6,1c-0.1,0.1-0.5,0.3-0.9,0.3c-0.2,0-0.3-0.1-0.6-0.4c-0.3-0.2-0.5-0.3-0.6-0.5c-0.4-0.4-0.4-0.9-0.4-1.1
		C10,66.1,10,65.7,10.2,65.2z"/>
	<path class="st0" d="M110.2,108.4l0.2-1.3c0,0,0.5-0.8,0.5-0.9s0.7-0.7,0.7-0.7l1.1-0.4l1.3,0.2l1,0.6l0.4,0.8c0,0,0.4,0.7,0.3,0.8
		c0,0.1,0,1,0,1l-0.2,0.8c0,0-0.3,0.6-0.4,0.6s-0.4,0.4-0.5,0.4c-0.1,0.1-0.5,0.4-0.6,0.4c-0.1,0-0.9,0.1-0.9,0.1l-0.7-0.1
		C112.7,110.7,110.9,110.3,110.2,108.4z"/>
	<path class="st1" d="M128.8,114.7c-1.5-0.7-2.7-1-5-1.5c-2.8-0.7-5.2-1-9.9-1.5c-2.2-0.3-3.4-0.4-4.9-0.5c-2-0.1-2.1,0-5.7-0.2
		c-1.6-0.1-2.4-0.1-4-0.1c-1.3,0-2.4,0-3.1,0c0,0.2-0.1,0.4-0.1,0.6c0,0-0.1,0.5-0.3,1c-0.2,0.6-1.3,2.5-2.2,3.4
		c-2.3,2.5-8.5,3.8-9.4,4c-1.3,0.3-5.6,1.2-11.5,1.1c-3.2,0-5.6-0.3-8.1-0.6c-3.3-0.4-6.1-0.9-8.2-1.3c-0.7-0.3-1.4-0.6-2.2-0.9
		c-1.1-0.5-2.1-1-3-1.5c-1.1-1.4-2.2-2.9-3.3-4.3c-0.9,0-2.2,0-3.8,0c-0.4,0-3.7,0-6,0.2c-2.2,0.1-5.7,0.4-10.3,1.2l0,0
		c-1.4,0.1-6.3,0.4-13.7,3.3c0,0-4.5,1.7-6.8,3.9c0,0-0.1,0.1-0.1,0.1c0,0,0,0,0,0c0,0,0,0,0,0c-0.3,0.3-1,1.1-1.1,2.3
		c0,0.3-0.2,1.3,0.3,2.1c0.7,1.1,2.2,1.3,3.8,1.4c7.8,0.6,15.3-0.2,15.3-0.2l3.8,0.6c-6.6,3.4-7.8,4.8-7.6,5.5
		c0.5,1.5,8.7,0.1,25.2,0c1.9,0,7.5,0,7.7,1.2c0.2,0.9-3,1.9-2.9,2.5c0.3,1.1,12.3-4.1,18.7-0.5c0.7,0.4,3.1,1.9,4.7,1
		c0.9-0.5,0.9-1.3,2.1-1.7c0.4-0.1,1.2-0.1,2.7-0.2c0.4,0,0.8,0,1.2,0c1,0,1.7,0.1,2.7-0.1c0.6-0.1,1.8-0.4,1.8-0.4l1.1-1.5l1.2-1.3
		c2.9,0.1,6.1,0.5,9.6,1.2c1.1,0.2,2.2,0.5,3.2,0.8c1.2,0,2.3,0.1,3.5,0.1l11.2-0.3l1.9-0.6c0.5-0.3,1.5-0.6,2.7-0.8
		c2.1-0.3,3.3,0.4,4.5-0.3c0.9-0.5,1.2-1.4,1.4-1.9c2-4.5,10.3-4.9,10.8-8.1C136.9,118.9,131,115.7,128.8,114.7z"/>
	<path class="st2" d="M88.2,128.8c0,0,1.4-2.3,2-2.4c0,0-0.1-2.1,1.4-3.2l1.1-0.3l1.4,0.1l1.4,0.7l0.7,1.2l-0.5,1.4l-0.1,0.2
		l0.8,0.5l0.9,0.9l0.4,0.8l0.2,0.8L88.2,128.8z"/>
	<polygon class="st3" points="102.7,121.4 102.9,116.3 103.1,116.5 103.3,116.1 104.7,115.8 106.3,115.8 106.6,115.9 106.7,116.3 
		106.4,116.8 106.3,117.9 105.5,121.4 	"/>
	<polygon class="st4" points="107,125.2 107.2,122.3 107.8,121.9 110.1,121.6 111.4,121.7 111.9,122 111.8,122.6 111.6,123 
		111.2,125.2 111,126.3 110,126.2 108.8,126.2 107.9,125.8 	"/>
	<linearGradient id="SVGID_1_" gradientUnits="userSpaceOnUse" x1="15.2141" y1="51.4595" x2="59.9088" y2="51.4595">
		<stop  offset="0" style="stop-color:#BF479A"/>
		<stop  offset="1" style="stop-color:#BE202E"/>
	</linearGradient>
	<path class="st5" d="M23.6,50.2l-2-0.8l-1-0.9l-0.6-1.4l0.1-1.4l0.1-0.5l-0.9-0.6L18.7,44v-0.9l0.2-0.9l1-1.3l0.9-1.1l-2-1.4
		l-1.8-1.8c0,0-2.6-3.7,0.7-5.6c0,0-4.7-2.6-0.9-6.7c0,0,1.9-1.1,3.4-0.7l-0.8-2.5l0.2-2.2l1-1.6c0,0,1.7-2.1,4.6-0.8
		c0,0-0.5-3.4,2.9-4.9c0,0,2.9-1.3,5.3,2c0,0,0.1-2.8,2-4.2c0,0,3.5-3,5.1-3L44.5,5h2.9l2.2,0.8l2.2,1.8c0,0,5,6.2,5.1,12.6
		l-0.4,3.5l-1,2.3l-1.2,1.7L53,28.7l-0.9,0.6l1.9-0.3l1.8,0.3l1.1,0.8l1.2,1.9l0.6,2.3l0.3,2.4l-0.3,3.9c0,0-0.8,1.7-0.8,1.9
		c0,0.2-1,1.7-1,1.7s-0.7,1.2-1,1.1c-0.2-0.1-1.5,0.8-1.5,0.8h-2.4l1.4,1l1.3,1.4l0.6,1.5l0.1,1.7L55,53l-1,1.3l-1.2,1
		c0,0-0.8,0.4-1.1,0.5c-0.2,0.1-1.5,0.2-1.5,0.2l0.5,0.7l0.2,1l-0.5,1.2l-0.8,0.3h-1.4l-1.4-0.1l-0.9,0.2l-0.8,0.5l1.1,0.1l0.8,0.7
		l0.4,0.9L48,63c0,0,0.1,1.1,0,1.2s-0.2,1.4-0.2,1.4l-0.4,1.2l1.2-1.4l1.3-0.5l2,0.2c0,0,2-0.1,4,4.1c0,0,0.4,2.3,0.4,2.5
		c0,0.2,0,2.3,0,2.3l-0.9,2.1c0,0-0.3,0.9-0.6,1.1c-0.2,0.2-0.4,0.7-0.4,1c0,0.3,0.7,1.1,0.7,1.1s1,1.4,1,1.6c0.1,0.1,0.4,2,0.4,2
		s0.1,1.5,0.1,1.9c0,0.4,0.1,2.1,0.1,2.1s0.2,1.8,0.3,1.8s1.5,2.2,1.5,2.2l0.9,1.9l0.2,1.5l-0.1,1.2l-0.6,1.2l-0.9,0.6l-0.9,0.6
		h-1.1l-0.9-0.3L54.7,97c0,0,1.7-5.8-3.8-15.2l-8.5-12c0,0-4.7-8-5.3-12.8l0.6-1l0.3-1.4l-0.2-0.9L37.1,53l-0.7,0
		c0,0,0.5-16.6,0.7-17.7c0-0.2,4.5-0.8,4.2-5.2c0,0-0.1-3.7-4.4-3.8c0,0-4,2.1-6.3-1.6c0,0-3.2,3.5-4.8-0.1c0,0-2.4-0.3-5,2.7
		l-1.2,1.8l0,1.6l1,1.6c0,0,1.4,1.2,3.3,1.6l0.3,0.1c0,0,0.8,14.4-0.1,16L23.6,50.2z"/>
	<path class="st6" d="M32.8,125.3c0,0-0.1-1.7,3.2-1c0,0,0.8,0.4,2.7-2.8c0,0,1.2-2.4,3.4-1.9c0,0,0.7-0.5,1.6,3
		c0,0,2.1-3.4,3.6-2.3c0,0,2.7,0.5,1.6,3.5c0,0,2.5,0.8,2.8,2c0,0-2.5,2.4-10.1,0.4l-5.4,0.3l-2.3,0.1L32.8,125.3z"/>
	<polygon class="st7" points="25.4,126.6 26.2,125.8 27.9,126.2 28,125.7 29.1,126 29.1,127.2 28.1,127.7 26.4,127.6 	"/>
	<path class="st7" d="M56,129.8c0,0,1.9-2.4,4.8-1.6c0,0,1.7,0.2,1.7,2l-2,1.2h-2.1l-1.5-0.4L56,129.8z"/>
	<path class="st8" d="M89,128.2l1.7,0.6h2.8h2.7h0.5h1.1v1.9l-0.6,2.1l-1.3,1.4c0,0-2.7,2.6-7.3-1.4C88.7,132.8,86.7,129.5,89,128.2
		z"/>
	<g>
		<path class="st8" d="M88.9,131.2c0.2,0.4,0.4,0.9,0.6,1.3c0.1,0.2,0.2,0.4,0.4,0.6c0.1,0.1,0.3,0.3,0.4,0.4
			c0.8,0.5,1.8,0.8,2.8,0.8"/>
	</g>
	<path class="st9" d="M102.7,121.4h2.9c0,0-0.6,1.4-0.6,1.6c0.1,0.2-0.5,1.6-0.5,1.6l-0.6,0.6l-0.8-0.3l-0.4-0.6
		C102.7,124.4,102.3,121.4,102.7,121.4z"/>
	<path class="st10" d="M107.2,125.3c0,0,0.9,1.1,3.8,1l-1,4.1l-0.6,1.6l-0.4,0.8l-1,0.4l-0.6-0.4l-0.4-0.5l-0.3-2.1l0.1-1.7l0.1-1.6
		l0.1-1.7L107.2,125.3z"/>
	<path class="st11" d="M110.2,108.5c0,0-0.2-2.8,2.2-3.3c0,0,2.8-0.7,3.5,2.5c0,0,0.3,2.1-2,3.1
		C113.8,110.8,111.3,111.1,110.2,108.5z"/>
	<path class="st11" d="M108.3,114.8c0,0,0-1.3,1.4-1c0,0,1.3,0.6,0.5,1.8C110.2,115.6,108.9,117,108.3,114.8z"/>
	<polygon class="st11" points="111.9,114.4 112.5,116 112.9,116.3 113.5,116.3 114,115.8 114.1,114.8 113.9,113.9 113.3,113.3 
		112.6,113.3 112.1,113.6 	"/>
	<polygon class="st11" points="108.9,120.4 109.4,119.4 109.7,118.8 110.4,118.8 110.9,119.3 111,119.8 110.9,120.2 110.4,120.8 
		110,121 109.4,121 109,120.7 	"/>
	<polygon class="st12" points="68,48.2 67.7,46.9 67.6,44.6 68,42.6 68.4,41 69,39.5 69.8,38.1 70.9,37.1 72.1,36.7 72.1,37.1 
		71.5,37.9 70.9,39.3 70.6,40.9 70.6,42.8 71.2,44.6 72,46.5 	"/>
	<polygon class="st12" points="82.8,38.4 83.8,39.8 85.5,40.5 86.5,40.2 87.3,39.3 87.6,37.8 87.5,36.6 87,35.5 86.6,35 88.2,36.3 
		89.1,37.7 88.9,39.6 87.9,40.7 86.6,41.4 85,41.3 83.8,40.6 83,39.6 	"/>
	<polygon class="st12" points="88.6,49.7 90.7,52.2 92.2,54.9 93.5,58.4 93.6,61.4 93.3,64.8 92.4,67.8 91,70.3 88.6,73.4 84.3,76 
		85.9,75.7 88.6,74.6 91.3,72.6 93.5,70.2 95.2,67 96.1,62 95.6,58.5 94.4,55.6 93.2,53.3 91.3,51.5 89.6,49.8 	"/>
	<path class="st12" d="M79.9,47.5l-2.8-0.4c0,0-8.8,0.5-12.5,8.9c0,0-3.7,7,1.6,14.5c0,0,4.4,6.2,12,5.7"/>
	<path class="st13" d="M83,36.3l1.1-1.5l1.2-0.5l1.3,0.6l0.9,1.6c0.1,0.3,0.2,0.7,0.2,1.2c0,0.6-0.1,1-0.2,1.3
		c-0.2,0.3-0.4,0.5-0.6,0.8c-0.3,0.2-0.7,0.4-1,0.6c-0.3,0-0.6-0.1-1-0.1c-0.3-0.2-0.7-0.3-1-0.5l-1-1.4L83,36.3z"/>
	<path class="st13" d="M62.3,56.7l1.2-3l2-2.8l2.3-2.3l1.9,1L67.1,52l-1.8,2.4l-1.4,3.2l-0.5,2.6v3.3l0.8,3.5l1.5,2.8l2.8,3.1
		l2.4,1.7l2.2,1l4.3,0.9c0,0,10.9,0.6,14.4-10.8c0,0,2.7-9.3-5.7-15.6c0,0-5.4-4.8-13-1.9L72,46.5l2.7-0.5c0,0,12.6-3.1,18,10.1
		c0,0,3.3,7.7-2.5,15.2c0,0-9.8,13.2-24.1,1.5C66.1,72.6,59.5,66.3,62.3,56.7z"/>
	<polygon class="st13" points="67.8,48.7 72,46.5 73.1,48.1 69.8,49.8 	"/>
	<polyline class="st14" points="90.8,124.8 91.9,123.2 93.5,123 95,123.3 95.9,124.3 96,125.6 95.6,126.5 94.1,127.5 93,127.6 
		91.9,127.5 90.9,127.1 90.4,126.6 90.2,125.6 90.7,124.5 	"/>
	<polygon class="st7" points="103.3,116.1 104.3,117 105.6,116.9 106.3,116.1 106.3,115.8 105.2,115.8 103.9,115.9 	"/>
	<polygon class="st7" points="107.2,122.3 108.3,121.9 109.4,121.7 110.4,121.6 111.4,121.7 111.9,122 111.8,122.6 110.8,123.3 
		110,123.5 109.1,123.5 108.5,123.3 107.8,122.9 	"/>
	<path class="st15" d="M91.9,133.8c0,0-2.4-1.8,0.6-6.3l1.7-0.1l1.5,2.7c0,0,0.6,1.4,0.2,2.6l-0.7,1.2l-0.8,0.5l-1,0.1L91.9,133.8z"
		/>
	<polygon class="st15" points="104.9,117.3 104.5,120.6 104.1,123 104.4,124.3 105.1,123.3 105.6,121.1 106,119.1 106.4,116.8 	"/>
	<polygon class="st16" points="109.7,123.7 108.8,130.3 108.9,131.9 109.2,132.2 110.2,129.6 111.5,122.9 	"/>
	<path class="st17" d="M116.1,50.6c-0.6-0.3-1.1-0.4-1.6-0.4l-3.1,0.3L111,51l-0.3-0.6c-1.1-1.6-2.7-3.6-5-5.6
		c-2.8-2.5-5.5-3.8-5.8-3.9c0,0-0.3-0.1-0.6-0.3c-0.1-0.1-0.2-0.2-0.3-0.2c-0.9-0.7-3-1.4-3-1.4c-2.1-0.7-1.8-0.9-4.8-2
		c-0.8-0.3-1.9-0.7-3.3-1.1l1,1.6l0.1,1.2l-0.6,1.3l-1.4,1.1l-1.3,0.2L84.3,41L83,39.6l-0.3-2l0.5-2l0.6-0.9c0,0,0.1,0.2,0.1,0.3
		C84,35,84,35,84.1,34.9c0,0,0,0,0,0c-0.1-1.1-0.6-2.4-2.2-3.8c-1.5-1.5-2.7-1.9-3.7-2c-1.7-0.2-4.1,0.5-4.1,0.5
		c-4.1,2.8-2.1,7.1-2.1,7.1l-0.5,1C69,42.8,72,46.5,72,46.5c6.7-3.3,13.9,1.4,13.9,1.4l2.1,1.5c1.8,0.3,6,5.2,6,5.2
		c2.5,5.8,1.6,10.8,1.6,10.8c-2.6,8-8.8,10.2-8.8,10.2L84,76.2c-6.5,2.6-11.4,0.7-11.4,0.7l-2.8-1.3l-5.2-4.4l-1.6-2.9l-1.3-4.1
		l-0.2-3.6l0.5-3.2l1.3-3.4l1.2-2l1.8-2.1c0.5-0.5,1.1-1,1.6-1.5c-0.1-0.2-0.2-0.5-0.3-0.7l-0.2-1.7v-1.9l0.5-2.2
		c0.3-0.9,0.6-1.8,1-2.7c-0.2,0.1-0.4,0.2-0.7,0.3c-0.9,0.4-1.8,0.9-2.6,1.3c-1,0.5-2,1.1-3,1.6l-2.1,1.9l-2.3,1.8l-3,3.1l0.1,1.5
		l-0.2,1.4l-0.7,1.5l-1.7,1.5l-2.4,1.1l0.5,1l-0.4,1L49.6,59l-1.3,0.1l-0.5,0.7c0,0,0,0,0,0c-0.1,0.2-0.1,0.3-0.1,0.5
		c-0.1,0.3-0.2,0.5-0.4,0.7c0,0,0,0,0,0c1.2,4.3,0.5,5.1,0.5,5.1c0.5-0.4,1.1-0.7,1.6-1.1c0.6-0.1,1.1-0.1,1.7-0.2l1.9,0.5
		c0.8,0.7,1.6,1.4,2.4,2c0.4,1.2,0.8,2.3,1.2,3.5c0.1,1.1,0.1,2.1,0.2,3.2c0.1,0.7,0.4,1.8,1.1,2.9c0.4,0.7,0.9,1.2,1.6,2
		c0.5,0.6,1.3,1.4,2.5,2.4c0.9,0.7,2.1,1.6,3.6,2.4c0.3,0.2,0.8,0.4,1.3,0.6c0.3,0.1,1.3,0.5,2.7,0.9c0.9,0.2,2,0.5,3.4,0.6
		c1,0.1,1.9,0.2,2.9,0.3c0.2,0,0.5,0,0.8-0.1c0.2-0.1,0.3-0.1,0.4-0.2c-0.1,0.5-0.1,1-0.2,1.5L76,89.8l-1.3,2.7l-1.7,3
		c-0.5,1.2-1.1,2.3-1.6,3.5c-0.4,1.2-0.9,2.4-1.3,3.7l-0.6,3.5l-0.3,3.9l0.2,3.9l1,5l0.5,2c7.5,0.4,16.3-2,16.3-2l1.7-2.4l1-2.2
		L91,110l0.8-5.5l1.1-4.9l1.1-3.4l0.9-1.4l1.4-3.9l4.3-3.3l5.9-5.2c1-1.2,1.9-2.3,2.9-3.5c0.9-1.5,1.9-2.9,2.8-4.4
		c0.5-1.1,1-2.3,1.5-3.4c0.3-1.3,0.6-2.6,0.8-3.9v-5.6l-0.6-3l2.1-0.5c0.6-0.7,1.2-1.3,1.8-2c0.1-0.7,0.3-1.3,0.4-2
		C118.3,53.8,118,51.5,116.1,50.6z"/>
	<g>
		<g>
			<path class="st17" d="M73.5,85.9c0.6,0.3,1.3,0.3,2,0.3c0.7,0,1.4,0,2-0.3c0.3-0.2,0.4-0.6,0.2-0.9c-0.2-0.3-0.6-0.4-0.9-0.2
				c-0.1,0-0.1,0,0,0c0,0-0.1,0-0.1,0c-0.1,0-0.1,0-0.2,0c0,0-0.2,0,0,0c-0.1,0-0.1,0-0.2,0c-0.3,0-0.6,0.1-0.9,0.1
				c-0.3,0-0.5,0-0.8,0c0,0-0.2,0-0.1,0c-0.1,0-0.1,0-0.2,0c-0.1,0-0.1,0-0.2,0c0,0-0.1,0-0.1,0c0.1,0,0.1,0,0,0
				c-0.3-0.2-0.8-0.1-0.9,0.2C73.1,85.2,73.2,85.7,73.5,85.9L73.5,85.9z"/>
		</g>
	</g>
	<polygon class="st0" points="50.2,104.6 50.7,106.4 52.3,108.9 54.5,111.6 56.9,114 61.1,117 63.5,118.3 68,120 70.6,120.7 
		70.6,121 57.2,119.2 52.4,117.2 49.8,114.7 47.9,112 45.4,107.6 47.5,106.5 	"/>
	<path class="st0" d="M69,69.8l-1.7-3.8L66.8,62l0.9-4.6l1.2-2.9l2-2.1l2.6-2.6l2.8-1.4l3.7-1l3.1,0.7l3.8,2.3l3,3.4l1.4,2.8
		c0,0,4.7,10.9-6.6,17.9c0,0-3.3,1-5.8,1.9C78.9,76.4,72.4,74.6,69,69.8z"/>
	<path class="st18" d="M56.9,83.8c-0.1,0.3,11.5,9.5,11.5,9.5l0.6,0.4l1.2-1.3l1.1-1.8l0.9-1.3l1.2-1.4l1.3-1.1l2.4-1.1
		c-0.2,0.2-0.4,0.4-0.5,0.8c-0.2,0.3-0.2,0.6-0.3,0.8c-0.6,1.1-1.1,2.2-1.7,3.3l-1.9,3.1l-2.1,4.7l-1.4,3.6l-1,3.5l-0.5,4.4l0.2,4.8
		l0.7,2.8l0.1,0.9l-1.5-0.2c-0.5-0.2-1.2-0.5-2.1-0.9c-0.3-0.1-1.7-0.8-2.7-1.3c-1.1-0.6-2.6-1.5-4.4-3c-1.2-1.1-2.3-2.2-3.5-3.4
		l-2.5-3.1l-1.2-2.5l2.2-3l1.4-3l0.1-1.3l1.4,0.9l2-0.3l1.5-1.4l0.4-1.5l-0.1-2.2l-0.9-1.4l-1.3-1.9l-0.7-2.3L56.9,83.8z"/>
	<polygon class="st18" points="87.6,119 89.5,116.5 90.7,114.3 91.4,112.3 92,110 92.5,107.6 93.1,104.2 93.4,101.5 94,98.3 
		94.4,101.2 95.2,105.1 95.9,108.4 96.2,111.5 95.2,114.1 93.3,116.4 91.3,117.6 	"/>
	<polygon class="st17" points="50.2,104.6 50.7,106.4 53,109.9 56.1,113.3 59,115.5 61.1,117 64.9,119 69.8,120.4 69.8,121 63,120 
		56.4,119.1 53.5,118.2 51.1,115.9 48.8,113.3 45.4,107.6 	"/>
	<polygon class="st19" points="94.4,79.7 92.4,79.2 90.2,79.2 89.6,79.2 88.6,79.7 88.2,80.2 87.9,81 88.1,82.1 88.6,83 89.2,83.8 
		89.9,84.6 90.9,85.2 91.9,85.8 92.8,86.3 93.6,86.9 94.3,87.5 95,88.6 95.6,89.8 96.4,90.9 96.9,91.5 97.8,91.7 98.3,91.7 
		99.2,91.5 100,91.2 100.6,90.5 100.7,89.6 100.7,88.5 100.6,87.2 100.4,85.8 99.9,84.8 	"/>
	<path class="st19" d="M104.8,87.7l-0.8-1.1l-0.8-0.4l-0.7-0.2l-1.4,1.1c0.1,0.1,0.7,1.2,0.7,1.2l0.5,1.3l0.7,1l1,0.6l0.5,0.1
		l0.6-0.3c0,0,0.6-0.6,0.3-2C105.2,88.6,104.9,88.2,104.8,87.7z"/>
	<path class="st19" d="M95.5,112.9c0,0,0.5,1.3,0.5,1.4c0,0.1,0.6,1.1,0.6,1.1l0.4,1.2l0.2,1.1c0,0-0.1,0.9,0,0.9
		c0.1,0-0.2,0.8-0.2,0.8l-0.5,0.4l-0.5-0.2l-0.5-0.2l-0.6-0.5l-0.6-0.6l-0.4-0.9l-0.5-0.6l-0.3-0.4l1.3-1.4l0.7-1L95.5,112.9z"/>
	<polygon class="st19" points="56.4,118.9 57.2,119.8 58,121 59,122.1 60.8,123.5 62.4,124.1 63.4,124.2 64.1,123.9 64.5,123.4 
		64.3,122.6 64.1,121.8 63.6,121.1 63,120.4 62.8,120 	"/>
	<polygon class="st19" points="20.7,57.4 20.5,56 21,54.2 21.6,52.5 22.2,51 23.1,50.3 25.1,50.2 26.7,50.7 27.5,51.5 27.7,52.6 
		27.6,53.8 27.4,55.1 26.8,56.2 26.2,57.2 25.4,58 23.7,58.9 22.4,58.8 21.6,58.5 20.8,57.6 	"/>
	<polygon class="st19" points="34.8,55.9 35,54.8 35.7,53.6 36.4,53 37.6,53.2 38.1,54.2 37.9,55.5 37.5,56.4 36.7,57.2 36,57.3 
		35.3,56.9 34.8,56.1 	"/>
	<path class="st0" d="M89.9,84.6l-1,0.8l-0.5,0.4l-0.7,0.7l-0.8,1l-0.2,1.2v1l0.7,0.9l0.9,0.4l0.9-0.2l0.8-0.5l-0.6,0.9
		c0,0-0.6,2.4,2.5,2.5l1.4-0.7c0,0,1.2-1.2,2.4-3l-1.2-2.1l-1.1-1.1l-1.1-0.8L89.9,84.6z"/>
	<path class="st20" d="M27.6,35.1l-0.5,3.8l0,6.5v4.8l0.3,1.3l0.2,2.3l-0.8,2.4l0.1,1.9l-0.3,1.6l1.2,1l0.4,1.6l-0.4,1l-1.2,0.7
		l-1,0.1l-1,3.8l-2.2,3.3l-1.9,3.4l-2.3,2.7l-2.8,3.9l-1.7,3.7l-0.9,2.9l-0.3,4.7l1.2,4.1c0,0,2.3,9,19.4,9c0,0,9.4-0.5,13.2-4.4
		c0,0,5.9-3.4,4.6-10.7l-1.6-2.8l-1.6-1.1l0.2-1.3l-0.7-2.6l-1.8-1l-2.2,0.1l1.6-2.3l-1.6-1L39,76.2c0,0,2.4-3.7-1.6-5.3l-1.2-1.2
		l0.2-1.2l0.2-1.4L36,65.8l-1.2-1l-0.7-1.3l0-2.4l0.3-3.5L34,54.5l-0.7-3.4l-0.6-3.6l0.4-3.1l0.8-2.9l0.6-3.1L34.3,36L27.6,35.1z"/>
	<path class="st21" d="M53.5,87.4l-2.6-5.7l-3.1-4.4l-3.1-4.1l-2.4-3.4l-2-3.5c-0.5-1-0.9-2-1.4-3c-0.6-2.1-1.3-4.2-1.9-6.2
		c-0.2,0-0.3,0-0.5,0c-0.1,0-0.2,0-0.3,0c-0.6,0-1-0.4-1.2-0.9l-0.3-0.1l0.1-1.3l0.7-1.2l0.8-0.6l-0.1-4.8l0.8-12.9l2.2-1l1.7-2.1
		c0.1-0.8,0.2-1.7,0.3-2.5c-0.4-0.7-0.8-1.4-1.2-2.1l-1.4-0.9c0,0-2.1-0.1-2.3-0.1c-0.2,0.1-2.5,0.5-2.5,0.5
		c-0.6-0.3-1.3-0.6-1.9-0.9c-0.5-0.5-0.9-1-1.4-1.5c0,0-2,3.7-5.2,0l-2.3,0.7L22,26.3c-0.6,0.5-1.1,1.1-1.7,1.6
		c-0.3,0.7-0.6,1.5-0.9,2.2c0.2,0.6,0.4,1.1,0.6,1.7c0.5,0.5,0.9,0.9,1.4,1.4c0.9,0.4,1.8,0.9,2.7,1.3c0.1,0.7,0.2,1.7,0.2,2.8
		c0.1,1.7,0.2,3.6,0.2,5.8c-0.1,2.2-0.3,3.7-0.2,5.4c0,0.1,0.2,1.7,0.2,1.7l0,0l2.6,0.6l0-9.4l0.4-5v-1.4c1,0.2,2,0.4,3.1,0.5
		c1,0.1,2,0.2,3,0.3c0.2,0,0.5,0.1,0.7,0.1c0,0.8,0.1,1.6,0.1,2.5l-0.8,3.8c0,0-0.5,2.7-0.7,3c-0.2,0.3-0.1,3.2-0.1,3.2l0.7,3.9
		l0.8,4.7l-0.2,4l0,2.4l1.9,2.3l0.5,1.4l-0.2,1.4l0.1,1.8l1.8,1.1l1.2,1.4l0.2,1.9L39,76.2l3,1.8l2.9,1.3l-1.6,2.3l2.2-0.1l1.8,1
		l0.7,2.6l-0.2,1.3l2.3,1.9l0.9,2l0.3,2.6l-0.5,3.3l-2.1,2.8l-3.1,2.8c0,0-18.9,10.7-30.7-3.1c-0.7-1-1.5-2.5-2-4.3
		c0,0-0.7-2.5-0.5-5.8c0-0.4,0.1-0.7,0.1-0.7c0-0.1,0-0.1,0.1-0.4c0.1-0.2,0.1-0.4,0.1-0.5c0.3-0.6,0.5-1.2,0.8-1.8
		c0.6-1.4,1.3-2.8,1.9-4l4-5.5c1-1.4,2.1-2.9,3.1-4.3c0.5-0.9,1.1-1.8,1.6-2.7l1.4-4.6l-1.2-0.8l-0.8-1.8l0.6-1.1l1.6-0.9l0.9,0.1
		l0.3-3.4L25.4,58l-1.8,0.9l-1.3-0.1l-0.7,2.9l-0.7,1c0,0.2,0,0.4-0.2,0.7c-0.5,0.9-0.9,1.9-1.5,2.8c-0.2,0.5-0.5,1-0.9,1.4L17.7,69
		l-3,4.4l-4.6,7.9l-1.9,4.6l-1,5.1c0,0.9,0,2,0.2,3.2c0.1,1,0.3,1.9,0.5,2.7c0.3,1,0.8,2.3,1.6,3.6c0.6,1.1,1.3,1.9,1.8,2.6
		c1.1,1.3,2.5,2.7,4.4,3.9c3,1.9,7.7,3.9,14.5,3.8c0,0,5.3,0.6,12.6-2.2l6.3-3.1l3.1-3C52,102.6,57,97.4,53.5,87.4z"/>
	<path class="st22" d="M13.1,86.2c0.1-0.2,1.9-1.3,2.1-1.3c0.1,0,6.7-1,6.9-1c0.1,0.1,8.1,0.1,8.1,0.1l7.1,0.5
		c0,0,10.1-0.3,12.5,3.7c0,0,2.7,2.6,0.6,8.4l-2.5,3.3c0,0-11.9,10-27.5,3.4l-2.6-1.5C17.8,101.8,9.6,95,13.1,86.2z"/>
	<path class="st6" d="M21.5,80.2c0,0-3.1-3.3-0.1-6.2c0,0,4.1-2.7,6.9-0.3l1,1.1l0.8-1.6l1.6-0.6l1.4,0.8l0.5,1.6l-0.5,1.3
		c0,0-1.1,0.6-1.1,0.6c0,0-1.1,0-1.1,0l-1.3-0.6l-0.2,1.3l-1.1,1.8C28.3,79.3,25,82.8,21.5,80.2z"/>
	<path class="st6" d="M30.5,81.2l-0.4-1.4l0.2-1l1.2-0.4l1.3,0.3l1,1.1l0.1,1.4c0,0-0.7,0.7-0.8,0.8c-0.1,0.1-0.8,0.4-0.9,0.4
		s-1.1-0.3-1.1-0.3L30.5,81.2z"/>
	<path class="st6" d="M25.1,63.8l-1-0.8l-0.5-1.4l0.4-1.2l1.3-0.7c0,0,2.3-0.8,2.9,2.3C28.2,61.9,27.4,64.9,25.1,63.8z"/>
	<path class="st6" d="M10.9,67.5l-0.8-1.1l0.3-1.5l0.8-0.8l1.2,0.4c0,0,0.9,1.1,0.9,1.3c0,0.3,0,1.2,0,1.2s-0.7,0.8-0.7,0.8
		c-0.1,0-0.8,0.2-0.8,0.2L10.9,67.5z"/>
	<path class="st6" d="M17.3,61c0,0.1-0.2,0.4-0.4,0.7c0.2-0.3,0.5-0.6,0.7-0.8c2.1-4.1-1.3-6.2-1.3-6.2C11.5,52.2,9.5,57,9.5,57
		l-0.1,2.6l1.1,2C15.1,64.9,17.2,61.3,17.3,61z"/>
	<circle class="st6" cx="46.7" cy="51" r="4.3"/>
	<circle class="st6" cx="39.8" cy="19.9" r="1.8"/>
	<circle class="st7" cx="41.8" cy="96.9" r="1.4"/>
	<path class="st6" d="M33.5,98.9c0.3-0.1,0.7-0.6,0.7-0.6h1.2l1.5,0.3l0.5,0.8v1l-0.6,0.9l-0.5,0.5h-0.9l-0.9-0.2l-0.7-0.5l-0.5-0.7
		l-0.1-0.8L33.5,98.9z"/>
	<polygon class="st7" points="28.8,96.9 28.8,95.9 29.4,95.2 30.5,95.2 31,95.7 31.2,96.6 30.7,97.3 30,97.6 29.4,97.3 	"/>
	<polygon class="st7" points="23.5,78 23.2,77 23.5,76 24.4,75.3 25.3,75.2 26.2,75.6 26.7,76.6 26.5,77.6 26,78.4 25,78.7 
		24.1,78.6 	"/>
	<path class="st7" d="M12.1,59.2v-1.1l1-0.8l0.9,0.2l0.7,1.1c0,0-0.2,0.6-0.3,0.8c-0.1,0.2-0.6,0.6-0.6,0.6h-0.7l-0.5-0.3L12.1,59.2
		z"/>
	<polygon class="st7" points="44.8,51.1 45,50.2 45.6,49.7 46.8,49.8 47.8,50.4 47.8,51.5 47.3,52.5 46.3,52.7 45.3,52.5 44.9,51.8 
			"/>
	<path class="st23" d="M71.5,44.7c-0.4,0,8.3-2.7,10.1-2.1c0,0,2.9-0.1,4.7,0.5l3.3,1.1l2.3,0.3l1.4,0.2l0.8,0.7l0.9,1.7l1,1.4
		l1.9,0.4l0.9,0.5v1.2L98.5,52l0.2,1.2l1,0.5l1.9-0.5l1.6-0.2l0.5,1.3l-0.6,1.6l-1.6,1.1l-1.8,0.4l-1.7-0.3L96.9,56l-1.1-2.8
		C95.8,53.3,91.9,43.5,71.5,44.7z"/>
	<path class="st12" d="M65.4,100.9l-0.8-0.9l-0.1-1.7l0.5-1.1l0.9-0.9l1.2-0.2l0.8,0.4c0,0,0.7,0.6,0.5,1.3
		c-0.2,0.7-0.2,0.7-0.2,0.7l-0.8,1.7l-0.8,0.8l-0.3,0.2L65.4,100.9z"/>
	<polygon class="st12" points="61.2,109.8 61.7,108.6 63,107.9 64.3,108.1 65.1,108.8 65.4,110 65.2,110.9 64.7,111.6 63.7,111.6 
		62.8,111.7 62.1,111.4 61.5,110.7 	"/>
	<polygon class="st13" points="63,111.3 62.8,109.8 63,108.8 63.9,108.4 64.5,108.7 64.7,109.8 64.5,110.8 64.1,111.4 63.7,111.6 	
		"/>
	<polyline class="st13" points="65.7,100.4 65.9,98.9 66.4,97.6 67.1,96.7 67.8,96.6 68.4,97.3 68.1,98.6 67.7,99.7 67.1,100.6 
		66.5,101.2 65.8,101 	"/>
	<polygon class="st7" points="25.9,30.1 27.7,28.7 30.5,28.1 33.7,28.7 35.7,29.9 36.8,31 37.1,31.7 35.3,32.2 33.7,32.4 32.2,32.7 
		28.5,32.2 27.1,31.6 25.7,30.3 	"/>
	<g>
		<g>
			<path class="st24" d="M26,25.7c-1.3,0.8-1.6,2.5-1.1,3.9c0.6,1.7,2.3,2.6,4,3c2.2,0.4,4.5,0.3,6.7-0.1c1.8-0.3,3.8-1.4,4.1-3.4
				c0.2-1.8-1.6-3.5-3.3-2.5c-0.4,0.2,0,0.8,0.3,0.6c0.8-0.5,1.9,0,2.2,0.9c0.4,0.9-0.2,2-0.9,2.6c-0.8,0.7-2,1-3.1,1.2
				c-1.1,0.2-2.3,0.2-3.4,0.2c-1.8,0-4-0.2-5.3-1.6c-1.1-1.1-1.3-3.3,0.2-4.2C26.8,26.1,26.4,25.5,26,25.7L26,25.7z"/>
		</g>
	</g>
	<g>
		<g>
			<path class="st24" d="M25.9,30.6c3-3,8-2.7,10.6,0.7c0.3,0.3,0.9,0,0.6-0.3c-1.3-1.7-3.3-2.9-5.5-3.1c-2.3-0.2-4.5,0.7-6.1,2.3
				C25.1,30.4,25.6,30.9,25.9,30.6L25.9,30.6z"/>
		</g>
	</g>
	<g>
		<g>
			<path class="st24" d="M26.5,22.3c-0.5,0.5-1.1,1.2-1,2c0,0.7,0.4,1.3,0.9,1.7c0.5,0.4,1.2,0.7,1.9,0.7c0.7-0.1,1.4-0.4,1.9-0.9
				c0.6-0.5,1.1-1.3,1.4-2c0.2-0.4-0.5-0.6-0.7-0.2c-0.5,1.2-1.7,2.7-3.2,2.4c-0.6-0.1-1.2-0.6-1.5-1.2c-0.3-0.8,0.2-1.4,0.7-2
				C27.3,22.5,26.8,22,26.5,22.3L26.5,22.3z"/>
		</g>
	</g>
	<g>
		<g>
			<path class="st24" d="M30.4,24.9c0.7,1.5,2.2,2.4,3.8,2.6c1.6,0.1,3.2-0.7,4-2.1c0.4-0.7,0.6-1.5,0.7-2.3c0-0.9-0.4-1.6-0.7-2.5
				c-0.3-0.9,0-1.7,0.8-2.2c0.8-0.4,1.7-0.3,2.1,0.5c0.4,0.8,0.3,1.9-0.6,2.3c-0.8,0.3-1.8-0.2-2-1c-0.1-0.4-0.8-0.2-0.7,0.2
				c0.4,1.5,2.5,2.1,3.6,1c1.1-1.2,0.5-3.5-1.1-3.8c-1.7-0.3-3.3,1.3-2.9,3c0.2,0.5,0.4,1,0.6,1.5c0.1,0.5,0.2,1,0.1,1.5
				c-0.1,1-0.7,1.9-1.5,2.6c-1.9,1.5-4.7,0.5-5.6-1.5C30.8,24.1,30.2,24.5,30.4,24.9L30.4,24.9z"/>
		</g>
	</g>
	<g>
		<g>
			<path class="st24" d="M25.5,24.4c-1.4-0.1-2.6,0.8-3.7,1.6c-1,0.8-2,1.7-2.5,2.9c-1,2.6,1.4,4.7,3.6,5.3c1.7,0.5,3.5,0.6,5.2,1.2
				c0.4,0.2,0.6-0.5,0.2-0.7c-2.7-1-6.9-0.5-8.3-3.6c-0.7-1.5,0.3-2.9,1.3-3.9c1.1-1,2.5-2.3,4.1-2.2C25.9,25.1,25.9,24.4,25.5,24.4
				L25.5,24.4z"/>
		</g>
	</g>
	<g>
		<g>
			<path class="st24" d="M32.5,36.2c3.1-0.1,7.2-0.3,8.8-3.6c0.7-1.4,0.6-3.2-0.3-4.5c-0.4-0.6-1-1.2-1.6-1.5
				c-0.3-0.2-0.7-0.3-1-0.4c-0.2-0.1-0.4-0.1-0.6-0.1c-0.1,0-0.2,0-0.2,0c-0.1-0.1-0.2,0-0.1,0c0,0.1-0.1,0.2-0.1,0.2
				c-0.1,0-0.2,0-0.2,0c0-0.1-0.1-0.2-0.1-0.3c0,0,0,0,0,0.1c-0.1,0.4,0.5,0.6,0.7,0.2c0.1-0.4-0.3-0.6-0.6-0.5
				c-0.4,0.2-0.4,0.6,0,0.9c0.2,0.1,0.5,0.1,0.7,0.2c0.3,0.1,0.6,0.1,1,0.3c0.6,0.3,1.2,0.7,1.6,1.2c0.9,1.2,1,2.8,0.4,4.1
				c-0.6,1.2-1.7,2-2.9,2.5c-1.7,0.7-3.5,0.7-5.3,0.7C32,35.5,32,36.2,32.5,36.2L32.5,36.2z"/>
		</g>
	</g>
	<g>
		<g>
			<path class="st24" d="M36.9,53c-0.5-5.9,0-11.8,0.6-17.7c0-0.4-0.6-0.4-0.7,0c-0.6,5.9-1.1,11.8-0.6,17.7
				C36.3,53.4,37,53.4,36.9,53L36.9,53z"/>
		</g>
	</g>
	<g>
		<g>
			<path class="st24" d="M22.3,58.7c-2.8,9.3-10.1,16.1-13.7,25C6.7,88.4,6.1,93.7,8,98.4c1.6,4,4.7,7.2,8.4,9.4
				c8.1,4.8,18.6,4.1,27.2,0.9c3.8-1.4,7.6-3.6,9.8-7.2c2.5-4.1,2.2-9.3,0.7-13.7c-1.8-5.5-5.4-10-8.8-14.6
				c-3.6-4.9-6.5-10.1-7.7-16.1c-0.1-0.4-0.7-0.2-0.7,0.2c0.9,4.6,2.9,8.9,5.4,12.8c2.6,4,5.8,7.6,8.3,11.8
				c2.5,4.2,4.4,9.2,3.8,14.2c-0.6,4.8-3.8,8.4-8,10.5c-8,4.1-18.5,5.4-26.9,1.9c-4.2-1.7-7.9-4.7-10.1-8.7
				c-2.6-4.7-2.4-10.1-0.6-15.1c3.4-9.3,11.2-16.4,14.1-25.9C23.1,58.5,22.4,58.3,22.3,58.7L22.3,58.7z"/>
		</g>
	</g>
	<g>
		<g>
			<path class="st24" d="M23.8,34.5c0.4,5.1,0.6,10.3,0.1,15.4c0,0.4,0.6,0.4,0.7,0c0.4-5.1,0.2-10.3-0.1-15.4
				C24.5,34.1,23.8,34,23.8,34.5L23.8,34.5z"/>
		</g>
	</g>
	<g>
		<g>
			<path class="st24" d="M26.8,55.6c-0.1,1.3-0.3,2.6-0.6,3.9c-0.1,0.4,0.6,0.6,0.7,0.2c0.3-1.4,0.5-2.7,0.6-4.1
				C27.5,55.2,26.8,55.2,26.8,55.6L26.8,55.6z"/>
		</g>
	</g>
	<g>
		<g>
			<path class="st24" d="M27.3,37c-0.8,4.6-0.4,9.2-0.3,13.9c0,0.4,0.7,0.4,0.7,0c-0.1-4.6-0.4-9.2,0.3-13.7
				C28,36.7,27.3,36.6,27.3,37L27.3,37z"/>
		</g>
	</g>
	<g>
		<g>
			<path class="st24" d="M28.5,62.3c0.2-1.2-0.5-2.4-1.6-2.9c-0.6-0.3-1.2-0.2-1.8,0c-0.5,0.2-1.1,0.5-1.4,1
				c-0.5,0.8-0.4,1.8,0.1,2.6c0.5,0.8,1.3,1.5,2.2,1.4C27.2,64.4,28.3,63.5,28.5,62.3c0-0.2,0-0.4-0.2-0.4c-0.2,0-0.4,0.1-0.4,0.2
				c-0.1,0.8-0.8,1.5-1.6,1.6c-0.7,0.1-1.3-0.2-1.7-0.8c-0.4-0.5-0.7-1.3-0.5-1.9c0.1-0.4,0.4-0.6,0.7-0.8c0.4-0.2,0.9-0.5,1.4-0.4
				c1,0.1,1.8,1.3,1.7,2.3c0,0.2,0,0.4,0.2,0.4C28.3,62.6,28.5,62.5,28.5,62.3z"/>
		</g>
	</g>
	<g>
		<g>
			<path class="st24" d="M29.6,74.6c-2-3.3-8.2-2.8-9.6,0.8c-0.7,1.7-0.2,3.8,1.2,5c1.7,1.4,4.2,1.4,6,0.3
				C29.1,79.5,30.8,76.8,29.6,74.6c-0.2-0.4-0.8,0-0.6,0.3c0.9,1.7-0.4,3.9-1.8,4.9c-1.5,1.1-3.6,1.3-5.2,0.3
				c-1.3-0.9-1.9-2.6-1.5-4.1c0.4-1.7,2.2-2.7,3.9-2.9c1.7-0.2,3.7,0.3,4.6,1.8C29.2,75.3,29.8,75,29.6,74.6z"/>
		</g>
	</g>
	<g>
		<g>
			<path class="st24" d="M29.8,75.4c-0.3-0.7,0.1-1.6,0.6-2.1c0.6-0.5,1.4-0.6,2.1-0.1c0.6,0.4,0.9,1.2,0.8,1.9
				c-0.1,0.8-0.7,1.3-1.4,1.4c-0.8,0.1-1.7-0.2-2-0.9c-0.2-0.4-0.8,0-0.6,0.3c0.9,1.8,4.1,1.7,4.7-0.4c0.3-0.9-0.1-2-0.8-2.7
				c-0.8-0.7-2-0.8-2.9-0.2c-1,0.7-1.5,2-1.1,3.2c0.1,0.2,0.3,0.2,0.5,0.1C29.9,75.8,29.9,75.6,29.8,75.4L29.8,75.4z"/>
		</g>
	</g>
	<g>
		<g>
			<path class="st24" d="M34.2,80.3c-0.1-1-0.8-1.8-1.7-2.1c-0.4-0.2-0.9-0.2-1.4-0.2c-0.5,0-1,0.2-1.2,0.7c-0.2,0.5-0.2,1-0.1,1.5
				c0.1,0.4,0.2,0.9,0.4,1.3c0.4,0.9,1.3,1.4,2.3,1.1C33.5,82.4,34.3,81.3,34.2,80.3c0-0.4-0.7-0.4-0.7,0c0.1,0.7-0.4,1.3-1,1.6
				C32,82.2,31.4,82,31,81.4c-0.2-0.3-0.3-0.6-0.4-1c-0.1-0.4-0.2-0.7-0.2-1.1c0-0.8,1-0.7,1.6-0.6c0.7,0.2,1.4,0.8,1.5,1.6
				c0,0.2,0.1,0.3,0.3,0.3C34.1,80.6,34.3,80.5,34.2,80.3z"/>
		</g>
	</g>
	<g>
		<g>
			<path class="st24" d="M29.9,95.4C29.9,95.4,29.9,95.4,29.9,95.4c0.1,0,0.2,0,0.1,0c0,0,0,0,0.1,0c0,0,0.1,0,0.1,0c0,0,0.1,0,0,0
				c0,0,0,0,0.1,0c0.1,0,0.1,0.1,0.2,0.1c-0.1,0,0,0,0,0c0,0,0,0,0.1,0.1c0,0,0,0,0.1,0.1c0,0,0,0,0,0c0,0,0,0,0,0
				c0,0,0.1,0.1,0.1,0.1c0,0,0,0.1,0,0.1c0,0,0,0.1,0,0c0,0.1,0,0.1,0.1,0.2c0,0,0,0.1,0,0.1c0,0,0,0.1,0,0c0-0.1,0,0,0,0
				c0,0.1,0,0.1,0,0.2c0,0,0,0,0,0c0,0,0-0.1,0,0c0,0,0,0.1,0,0.1c0,0,0,0.1,0,0.1c0,0,0,0,0,0c0-0.1,0,0,0,0c0,0.1-0.1,0.1-0.1,0.2
				c0,0,0,0,0,0c0,0,0,0-0.1,0.1c0,0,0,0-0.1,0c0,0,0,0,0,0c0.1-0.1,0,0,0,0c0,0-0.1,0.1-0.1,0.1c0,0,0,0-0.1,0c0.1,0,0,0,0,0
				c-0.1,0-0.1,0-0.2,0c0,0,0,0-0.1,0c0,0,0.1,0,0,0c0,0,0,0-0.1,0c-0.1,0-0.1,0-0.2,0c0,0-0.1,0-0.1,0c-0.1,0,0,0,0,0
				c-0.1,0-0.1,0-0.2,0c0,0-0.1,0-0.1,0c0,0,0,0,0,0c0,0,0,0,0,0c0,0-0.1,0-0.1-0.1c0,0-0.1-0.1,0,0c0,0,0,0,0,0c0,0,0,0-0.1-0.1
				c0,0-0.1-0.1,0,0c0,0,0,0,0,0c0,0,0-0.1,0-0.1c0,0,0-0.1,0,0c0,0,0,0,0-0.1c0,0,0-0.1,0-0.1c0,0,0-0.1,0,0c0-0.1,0-0.1,0-0.2
				c0,0,0-0.1,0-0.1c0,0,0-0.1,0,0c0,0.1,0,0,0,0c0-0.1,0-0.1,0.1-0.2c0,0,0-0.1,0,0c0,0,0-0.1,0-0.1c0-0.1,0.1-0.1,0.1-0.2
				c0,0,0,0,0,0c0,0.1,0,0,0,0c0,0,0,0,0.1-0.1c0,0,0,0,0.1-0.1c0,0,0,0,0,0c0,0-0.1,0,0,0c0.1,0,0.1-0.1,0.2-0.1c0,0,0,0,0,0
				c0,0,0,0,0,0c0,0,0.1,0,0.1,0C29.8,95.4,29.8,95.4,29.9,95.4C29.9,95.4,29.8,95.4,29.9,95.4C29.8,95.4,29.8,95.4,29.9,95.4
				c0.2,0,0.3-0.1,0.3-0.3c0-0.2-0.2-0.4-0.3-0.3c-0.7,0-1.2,0.5-1.4,1.2c-0.2,0.6,0,1.3,0.5,1.7c0.5,0.4,1.2,0.4,1.8,0.1
				c0.6-0.3,0.9-1,0.7-1.6c-0.2-0.7-0.8-1.3-1.6-1.3c-0.2,0-0.3,0.2-0.3,0.3C29.5,95.3,29.7,95.4,29.9,95.4L29.9,95.4z"/>
		</g>
	</g>
	<g>
		<g>
			<path class="st24" d="M35.5,98c-0.9-0.4-2,0.1-2.4,1c-0.5,0.9-0.1,2,0.7,2.6c0.8,0.6,1.9,0.7,2.8,0.3c0.9-0.4,1.6-1.4,1.4-2.4
				c-0.3-1.1-1.5-1.8-2.5-1.5c-0.4,0.1-0.2,0.8,0.2,0.7c0.7-0.2,1.4,0.2,1.6,0.8c0.3,0.7-0.1,1.4-0.7,1.7c-0.6,0.4-1.4,0.4-2,0
				c-0.6-0.3-1.1-0.9-0.9-1.6c0.2-0.6,0.9-1.3,1.6-1c0.2,0.1,0.4,0,0.5-0.1C35.7,98.3,35.6,98.1,35.5,98L35.5,98z"/>
		</g>
	</g>
	<g>
		<g>
			<path class="st24" d="M42.3,92.9c-1.7-0.3-3.3,0.6-4.1,2c-0.8,1.5-0.6,3.2,0.5,4.4c1.1,1.2,2.9,1.8,4.4,1.1
				c1.5-0.6,2.6-2.2,2.6-3.8c0-1.9-1.5-3.6-3.3-4c-0.4-0.1-0.6,0.6-0.2,0.7c1.4,0.3,2.5,1.4,2.8,2.7c0.3,1.4-0.4,2.8-1.6,3.5
				c-1.2,0.8-2.7,0.6-3.8-0.3c-1.1-0.9-1.6-2.3-1.1-3.6c0.5-1.4,2.1-2.4,3.6-2.2C42.6,93.6,42.8,92.9,42.3,92.9L42.3,92.9z"/>
		</g>
	</g>
	<g>
		<g>
			<path class="st24" d="M17.9,102.3c6,4,13.9,4.5,20.7,2.7c5.4-1.4,11.8-4.6,12.9-10.7c0.6-3.1-0.5-6.4-3.3-8.1
				c-3.2-1.9-7.3-1.8-10.9-2.1c-4.7-0.4-9.5-0.8-14.2-0.6c-2.1,0.1-4.3,0.2-6.4,0.6c-1.1,0.2-2.2,0.5-3.1,1.2
				c-2,1.6-1.6,5.1-1.3,7.4C12.7,96.6,14.7,100,17.9,102.3c0.4,0.3,0.7-0.3,0.3-0.6c-2.8-2-4.6-5.1-5.2-8.4
				c-0.4-1.9-0.8-5.5,0.6-7.1c0.7-0.8,1.8-1.1,2.8-1.3c1.9-0.4,3.9-0.5,5.8-0.6c4.1-0.2,8.2,0,12.3,0.3c3.5,0.3,7.2,0.3,10.6,1.2
				c3.6,0.9,6,3.6,5.8,7.4c-0.3,6-6.5,9.4-11.6,10.9c-6.9,2-15,1.7-21.1-2.4C17.9,101.5,17.5,102,17.9,102.3z"/>
		</g>
	</g>
	<g>
		<g>
			<path class="st24" d="M25.3,64c-0.8,4.6-3.7,8.3-6.4,11.8c-2.6,3.4-5.2,6.8-6.4,11c-0.1,0.4,0.5,0.6,0.7,0.2
				c2.5-8.6,11.3-13.9,12.8-22.8C26,63.8,25.4,63.6,25.3,64L25.3,64z"/>
		</g>
	</g>
	<g>
		<g>
			<path class="st24" d="M12.8,86.2c-0.1,2.6,2,4.1,4.2,4.9c1.6,0.5,3.4,0.7,5.1,1c2.1,0.3,4.3,0.5,6.5,0.7
				c4.2,0.3,8.4,0.1,12.5-0.9c2.7-0.7,5.7-2,6.8-4.8c0.6-1.5,0.5-3.2-0.5-4.5c-1-1.2-2.6-1.7-4-1.2c0.1,0.2,0.3,0.3,0.4,0.5
				c0.5-0.8,1-1.5,1.4-2.3c0.1-0.2,0-0.4-0.2-0.5c-2.1-0.8-4-1.9-5.9-3.1c0,0.2,0,0.4,0.1,0.5c0.9-1,1.2-2.4,0.6-3.7
				c-0.2-0.6-0.6-1-1.1-1.4c-0.8-0.6-2.2-0.7-2.1-2c0-1.4,0.7-2.4-0.2-3.7c-0.5-0.7-1.4-1.2-1.8-2c-0.5-1-0.2-2-0.1-3
				c0.7-4.4-1.1-8.4-1.4-12.8c-0.2-4.1,2.5-7.9,1.5-12c-0.1-0.4-0.8-0.2-0.7,0.2c1,4-1.7,7.8-1.5,11.8c0.3,4.3,2.1,8.3,1.4,12.6
				c-0.2,1.3-0.5,2.5,0.2,3.7c0.3,0.6,0.9,1,1.3,1.5c0.8,0.9,0.8,1.7,0.6,2.8c-0.2,0.9-0.3,1.9,0.5,2.6c0.7,0.5,1.6,0.6,2.2,1.3
				c0.9,1,0.8,2.7-0.1,3.7c-0.2,0.2-0.1,0.4,0.1,0.5c1.9,1.3,3.9,2.3,6.1,3.2c-0.1-0.2-0.1-0.3-0.2-0.5c-0.5,0.8-1,1.5-1.4,2.3
				c-0.1,0.2,0.1,0.6,0.4,0.5c2.6-0.9,4.5,1.8,3.9,4.1c-0.4,1.7-1.8,3-3.3,3.8c-3.4,1.8-7.6,2.1-11.4,2.2c-4.3,0.1-8.7-0.4-13-1.1
				c-2.7-0.4-6.5-1.5-6.4-4.8C13.5,85.7,12.8,85.7,12.8,86.2L12.8,86.2z"/>
		</g>
	</g>
	<g>
		<g>
			<path class="st24" d="M23.6,49.9c-1.2-0.4-2.5-0.9-3.1-2.1c-0.5-0.9-0.4-2.5,0.7-2.9c0.4-0.2,0.2-0.8-0.2-0.7
				c-1.4,0.6-1.8,2.3-1.2,3.6c0.6,1.5,2.2,2.2,3.7,2.7C23.9,50.7,24,50,23.6,49.9L23.6,49.9z"/>
		</g>
	</g>
	<g>
		<g>
			<path class="st24" d="M20.3,44.9c-0.7-0.3-1.1-0.7-1.2-1.4c-0.1-0.6,0.1-1.3,0.4-1.8c0.4-0.7,1-1.2,1.5-1.7
				c0.6-0.5,1.2-1.1,1.6-1.7c0.3-0.4-0.3-0.7-0.6-0.3c-1,1.4-2.7,2.2-3.4,3.9c-0.3,0.7-0.4,1.4-0.2,2.1c0.2,0.8,0.7,1.3,1.5,1.6
				C20.3,45.7,20.7,45.1,20.3,44.9L20.3,44.9z"/>
		</g>
	</g>
	<g>
		<g>
			<path class="st24" d="M21.1,39.5c-1.6-0.9-3.4-1.9-4.3-3.6c-0.8-1.5-0.7-3.7,0.9-4.6c0.2-0.1,0.2-0.5,0-0.6
				c-1.6-0.7-2.6-2.6-2.1-4.3c0.5-1.8,2.5-2.9,4.3-2.5c0.3,0.1,0.5-0.2,0.4-0.5c-0.9-1.8-1.3-4.2,0.1-5.8c1.1-1.2,3-1.6,4.3-0.7
				c0.3,0.2,0.5-0.1,0.5-0.4c-0.4-2,0.8-4.1,2.8-4.7c1.9-0.6,3.9,0.5,4.8,2.2c0.1,0.3,0.7,0.2,0.6-0.2c-0.5-3.9,4.1-6.1,7.1-7.3
				c4-1.6,8.2-1.9,11.1,1.6c4.5,5.3,7.9,16.8,0.1,20.8c-0.4,0.2,0,0.8,0.3,0.6c2.7-1.4,4.4-4.2,4.8-7.2c0.5-3.6-0.7-7.2-2.2-10.4
				C53.6,9,51.7,6.1,48.7,5c-3.4-1.2-7.1,0.2-10.1,1.7c-2.8,1.3-6.1,3.7-5.6,7.1c0.2-0.1,0.4-0.1,0.6-0.2c-1.1-2.1-3.6-3.2-5.9-2.4
				c-2.2,0.8-3.3,3.2-2.9,5.4c0.2-0.1,0.3-0.3,0.5-0.4c-1.6-1.1-3.9-0.6-5.2,0.8c-1.6,1.8-1.3,4.6-0.3,6.6c0.1-0.2,0.3-0.3,0.4-0.5
				c-2.1-0.4-4.3,0.6-5.1,2.7c-0.8,2.1,0.4,4.5,2.4,5.4c0-0.2,0-0.4,0-0.6c-1.6,0.9-2.1,2.9-1.6,4.6c0.7,2.3,3,3.6,4.9,4.8
				C21.1,40.3,21.5,39.8,21.1,39.5L21.1,39.5z"/>
		</g>
	</g>
	<g>
		<g>
			<path class="st24" d="M51.9,29.6c1.1-0.1,2.1-0.6,3.3-0.3c1.1,0.4,1.9,1.2,2.4,2.2c0.9,1.7,1,3.8,1.1,5.7c0,1.8-0.2,3.8-1.1,5.4
				c-1.1,2-3.3,3.4-5.6,3.1c-0.4-0.1-0.6,0.6-0.2,0.7c2.3,0.4,4.5-0.7,5.8-2.5c1.4-1.8,1.8-4.1,1.7-6.3c0-2.2-0.2-4.7-1.4-6.6
				c-0.5-0.9-1.3-1.7-2.3-2.1c-1.3-0.5-2.4,0.1-3.7,0.1C51.5,29,51.5,29.7,51.9,29.6L51.9,29.6z"/>
		</g>
	</g>
	<g>
		<g>
			<path class="st24" d="M51.5,46.2c2.3,0.6,4,3,3.6,5.3c-0.4,2.4-2.7,4.2-5.1,4.1c-0.4,0-0.4,0.7,0,0.7c2.7,0.2,5.4-2,5.8-4.7
				c0.4-2.7-1.5-5.4-4.1-6C51.2,45.5,51,46.1,51.5,46.2L51.5,46.2z"/>
		</g>
	</g>
	<g>
		<g>
			<path class="st24" d="M50.2,56.7c0.5,0.3,0.4,1,0.1,1.4c-0.4,0.6-1.3,0.7-2,0.7c-0.8,0-1.7-0.1-2.5,0.2c-0.7,0.3-1.3,0.8-1.6,1.5
				c-0.2,0.4,0.4,0.7,0.6,0.3c0.4-0.9,1.2-1.3,2.1-1.3c0.9-0.1,1.8,0.1,2.7-0.1c0.7-0.2,1.4-0.7,1.6-1.4c0.2-0.7,0-1.4-0.6-1.7
				C50.2,55.9,49.9,56.5,50.2,56.7L50.2,56.7z"/>
		</g>
	</g>
	<g>
		<g>
			<path class="st24" d="M45.7,60.2c0.6-0.2,0.9,0.4,1.2,0.9c0.3,0.6,0.5,1.4,0.6,2.1c0.3,1.3,0.2,2.9-0.9,3.8
				c-0.3,0.2,0.1,0.8,0.4,0.5c0.2-0.1,0.4-0.3,0.6-0.4c0.4-0.2,0-0.8-0.3-0.6c-0.2,0.1-0.4,0.3-0.6,0.4c0.1,0.2,0.3,0.4,0.4,0.5
				c1.4-1.1,1.4-3.1,1.1-4.7c-0.3-1.1-0.9-3.7-2.6-3.2C45.1,59.7,45.3,60.3,45.7,60.2L45.7,60.2z"/>
		</g>
	</g>
	<g>
		<g>
			<path class="st24" d="M47.9,66.8c0.6-1.2,1.8-1.7,3-1.6c1.3,0.1,2.4,0.7,3.3,1.6c2.2,2.5,2.4,6.3,1,9.2c-0.2,0.4,0.4,0.7,0.6,0.3
				c1.3-2.6,1.4-5.8,0-8.4c-1.1-2.1-3.2-3.7-5.7-3.4c-1.2,0.2-2.3,0.8-2.8,1.9C47.1,66.9,47.7,67.2,47.9,66.8L47.9,66.8z"/>
		</g>
	</g>
	<g>
		<g>
			<path class="st24" d="M12.1,62.3c-1.8-0.7-2.8-2.6-2.5-4.4c0.3-1.7,1.5-3.2,3.3-3.5c1.7-0.3,3.6,0.4,4.5,1.9
				c0.9,1.5,0.8,3.5-0.3,4.8c-1.2,1.5-3.6,2-5.3,1.1c-0.4-0.2-0.7,0.4-0.3,0.6c1.8,0.9,4.1,0.6,5.6-0.7c1.6-1.4,2-3.7,1.2-5.6
				c-0.8-1.9-2.8-3-4.9-2.9c-2.1,0.2-3.8,1.6-4.3,3.6c-0.6,2.4,0.6,4.9,2.9,5.8C12.3,63.1,12.5,62.5,12.1,62.3L12.1,62.3z"/>
		</g>
	</g>
	<g>
		<g>
			<path class="st24" d="M10.8,67.2c-0.4-0.5-0.5-1.1-0.3-1.7c0.1-0.3,0.2-0.6,0.4-0.8c0.2-0.2,0.5-0.5,0.8-0.4
				c0.3,0.1,0.5,0.5,0.7,0.7c0.2,0.3,0.4,0.6,0.4,1c0.1,0.5,0,1.2-0.5,1.5c-0.3,0.2-0.5,0.2-0.8,0c-0.2-0.1-0.4-0.4-0.4-0.6
				c0.1-0.4-0.6-0.6-0.7-0.2c-0.2,0.9,0.6,1.7,1.5,1.6c0.9-0.1,1.5-0.9,1.6-1.8c0-0.5-0.1-1-0.3-1.4c-0.2-0.4-0.5-0.9-0.9-1.2
				c-0.4-0.4-0.9-0.4-1.4-0.2c-0.4,0.2-0.7,0.6-0.9,1c-0.4,0.9-0.4,2,0.2,2.8c0.1,0.1,0.3,0.2,0.5,0.1
				C10.8,67.5,10.9,67.3,10.8,67.2L10.8,67.2z"/>
		</g>
	</g>
	<g>
		<g>
			<path class="st24" d="M12.9,59.6c-0.1,0-0.1-0.1-0.2-0.1c-0.1,0,0,0,0,0c0,0-0.1,0-0.1-0.1c0,0,0,0-0.1-0.1c0,0,0,0,0,0
				c0,0,0,0,0,0c0-0.1-0.1-0.1-0.1-0.2c0,0,0,0,0,0c0,0,0,0.1,0,0c0,0,0-0.1,0-0.1c0-0.1,0-0.1,0-0.2c0,0,0,0,0,0c0,0,0,0.1,0,0
				c0,0,0-0.1,0-0.1c0-0.1,0-0.1,0-0.2c0,0,0-0.1,0,0c0,0,0-0.1,0-0.1c0-0.1,0-0.1,0.1-0.2c0,0,0-0.1,0,0c0,0,0,0,0-0.1
				c0-0.1,0.1-0.1,0.1-0.2c0,0,0,0,0,0c0,0,0,0,0,0c0,0,0,0,0.1-0.1c0,0,0,0,0.1-0.1c0,0,0,0,0,0c0,0,0,0,0,0c0,0,0.1,0,0.1,0
				c0,0,0,0,0.1,0c0,0,0,0,0,0c0,0,0.1,0,0.1,0c0,0,0.1,0,0.1,0c0.1,0,0,0,0,0c0,0,0.1,0,0.1,0c0,0,0.1,0,0.1,0c0,0,0,0,0,0
				c0.1,0-0.1,0,0,0c0.1,0,0.1,0,0.2,0c0,0,0.1,0,0.1,0c0,0,0,0,0,0c0,0,0,0,0,0c0.1,0,0.1,0.1,0.2,0.1c0,0,0.1,0,0.1,0.1
				c-0.1,0,0,0,0,0c0.1,0,0.1,0.1,0.1,0.1c0,0,0.1,0.1,0,0c0,0,0,0.1,0.1,0.1c0,0,0,0.1,0,0.1c0,0,0,0.1,0,0c0,0.1,0,0.1,0.1,0.2
				c0,0,0,0,0,0.1c0,0,0-0.1,0,0c0,0,0,0.1,0,0.1c0,0,0,0.1,0,0.1c0,0,0,0,0,0c0,0,0,0,0,0.1c0,0.1,0,0.1-0.1,0.2c0,0.1,0,0,0,0
				c0,0,0,0.1-0.1,0.1c0,0,0,0,0,0.1c0,0.1,0,0,0,0c0,0.1-0.1,0.1-0.1,0.1c0,0,0,0,0,0c0,0,0,0,0,0c0,0-0.1,0-0.1,0.1
				c-0.1,0-0.1,0.1-0.2,0.1c0,0,0,0-0.1,0c0,0,0,0,0,0c0,0-0.1,0-0.1,0c-0.1,0-0.1,0-0.2,0c0.1,0,0,0,0,0c0,0-0.1,0-0.1,0
				c0,0-0.1,0-0.1,0c0,0-0.1,0,0,0c0.1,0,0,0,0,0C12.9,59.7,12.9,59.7,12.9,59.6C12.7,59.7,12.8,59.7,12.9,59.6
				c-0.1,0.1-0.1,0.1-0.1,0c0,0-0.1,0-0.1-0.1c-0.2-0.1-0.4,0-0.5,0.1c-0.1,0.2,0,0.4,0.1,0.5c1.2,0.8,3.2-0.5,2.6-2
				c-0.3-0.7-1-1.2-1.7-1.2c-0.7,0-1.3,0.5-1.5,1.2c-0.2,0.7,0.1,1.6,0.8,1.9c0.2,0.1,0.4,0,0.5-0.1C13.1,59.9,13,59.7,12.9,59.6
				L12.9,59.6z"/>
		</g>
	</g>
	<g>
		<g>
			<path class="st24" d="M42.8,50.3c0.5-2.4,3.3-3.8,5.6-2.8c2.2,1,2.9,4.2,1.3,6.1c-1.1,1.3-3.1,1.8-4.6,1.1
				c-0.4-0.2-0.7,0.4-0.3,0.6c1.6,0.7,3.6,0.4,5-0.7c1.1-0.9,1.6-2.4,1.5-3.8c-0.1-1.4-0.8-2.8-2-3.5c-1.2-0.8-2.7-1-4.1-0.5
				c-1.5,0.5-2.7,1.8-3.1,3.4C42,50.5,42.7,50.7,42.8,50.3L42.8,50.3z"/>
		</g>
	</g>
	<g>
		<g>
			<path class="st24" d="M45.7,52.2C45.7,52.2,45.6,52.2,45.7,52.2c-0.1-0.1-0.2-0.1-0.1-0.1c0,0,0,0,0,0c0,0,0,0,0,0
				c0,0-0.1,0-0.1-0.1c0,0-0.1-0.1,0,0c0,0,0,0-0.1-0.1c0-0.1-0.1-0.1-0.1-0.2c0-0.1,0,0,0,0c0,0,0,0,0,0c0,0,0-0.1,0-0.1
				c0-0.1,0-0.1,0-0.2c0-0.1,0,0,0,0c0,0,0-0.1,0-0.1c0-0.1,0-0.1,0-0.2c0,0,0-0.1,0-0.1c0,0,0-0.1,0-0.1c0-0.1,0-0.1,0.1-0.2
				c0,0,0-0.1,0-0.1c0,0,0,0,0-0.1c0-0.1,0.1-0.1,0.1-0.2c0,0,0,0,0,0c0,0,0,0,0,0c0,0,0,0,0.1-0.1c0,0,0.1,0,0.1-0.1c0,0,0,0,0,0
				c0,0,0,0,0,0c0.1,0,0.1-0.1,0.2-0.1c0,0,0,0,0,0c0,0,0.1,0,0.1,0c0,0,0.1,0,0.1,0c-0.1,0,0,0,0.1,0c0.1,0,0.1,0,0.2,0
				c0,0,0,0,0,0c0,0-0.1,0,0,0c0,0,0.1,0,0.1,0c0.1,0,0.1,0,0.2,0.1c0,0,0,0,0,0c0.1,0,0,0,0,0c0,0,0.1,0,0.1,0
				c0.1,0,0.1,0.1,0.2,0.1c0,0,0,0,0,0c0,0,0,0,0,0c0,0,0,0,0.1,0.1c0.1,0.1,0.1,0.1,0.2,0.2c0,0,0,0,0,0c0,0,0,0,0,0
				c0,0,0,0.1,0.1,0.1c0,0,0,0.1,0,0.1c0,0,0,0,0,0c0,0.1,0-0.1,0,0c0,0.1,0,0.1,0.1,0.2c0,0,0,0,0,0c0,0,0-0.1,0,0c0,0,0,0.1,0,0.1
				c0,0,0,0.1,0,0.1c0,0.1,0,0,0,0c0,0,0,0,0,0c0,0.1,0,0.1-0.1,0.2c0-0.1,0,0,0,0c0,0,0,0.1-0.1,0.1c0,0,0,0.1-0.1,0.1c0,0,0,0,0,0
				c0,0,0,0,0,0c-0.1,0.1-0.1,0.1-0.2,0.2c0,0-0.1,0.1-0.1,0.1c0,0-0.1,0.1-0.1,0.1c-0.1,0-0.1,0.1-0.2,0.1c0,0,0,0,0,0c0,0,0,0,0,0
				c0,0-0.1,0-0.1,0c0,0-0.1,0-0.1,0c0,0-0.1,0-0.1,0c0,0,0,0,0,0c0,0,0,0-0.1,0c0,0-0.1,0-0.1,0c0,0-0.1,0-0.1,0c0,0-0.1,0-0.1,0
				C45.9,52.3,45.8,52.3,45.7,52.2C45.7,52.2,45.8,52.3,45.7,52.2C45.7,52.2,45.7,52.2,45.7,52.2c-0.2-0.1-0.4,0-0.5,0.1
				c-0.1,0.2,0,0.4,0.1,0.5c0.7,0.4,1.6,0.2,2.2-0.4c0.6-0.5,0.8-1.4,0.4-2.1c-0.4-0.7-1.2-1.1-1.9-1c-0.8,0.1-1.4,0.6-1.6,1.4
				c-0.2,0.8,0.1,1.7,0.9,2.2C45.7,53,46.1,52.4,45.7,52.2L45.7,52.2z"/>
		</g>
	</g>
	<g>
		<g>
			<path class="st24" d="M54.3,77.9c-0.4,0.6,0,1.1,0.4,1.5c0.8,0.8,1.3,1.6,1.5,2.7c0.5,2.2-0.1,4.5,0.7,6.6c0.4,1,1.1,1.8,1.7,2.7
				c0.6,1,1,2.2,0.9,3.4c-0.1,1.2-0.8,2.3-2,2.7c-1,0.3-2,0.1-2.6-0.7c-0.3-0.3-0.8,0.1-0.5,0.5c1.1,1.3,3.1,1.2,4.4,0.3
				c1.7-1.3,1.7-3.7,0.9-5.5c-0.5-1.3-1.6-2.2-2.1-3.5c-0.5-1.3-0.5-2.8-0.5-4.3c0-1.1-0.1-2.2-0.5-3.3c-0.2-0.4-0.4-0.9-0.7-1.3
				c-0.2-0.3-1.3-1.1-1.1-1.5C55.1,77.8,54.5,77.5,54.3,77.9L54.3,77.9z"/>
		</g>
	</g>
	<g>
		<g>
			<path class="st24" d="M54.9,78.3C54.9,78.3,54.9,78.2,54.9,78.3C54.9,78.3,54.9,78.3,54.9,78.3c0-0.1,0-0.2,0-0.2
				c0-0.1,0-0.2,0.1-0.3c0-0.2,0.1-0.3,0.2-0.5c0,0,0,0,0,0c0,0,0,0,0-0.1c0,0,0-0.1,0.1-0.1c0-0.1,0.1-0.1,0.1-0.2
				c0-0.1,0.1-0.2,0.1-0.2c0,0,0.1-0.1,0.1-0.1c0,0,0.1-0.1,0.1-0.1c0.1-0.1,0.1-0.3,0-0.5c-0.1-0.1-0.4-0.2-0.5,0
				c-0.5,0.7-0.8,1.5-0.9,2.3c0,0.2,0.2,0.3,0.3,0.3C54.7,78.6,54.8,78.5,54.9,78.3L54.9,78.3z"/>
		</g>
	</g>
	<g>
		<g>
			<path class="st24" d="M23.7,54c0.1-0.1,0.3-0.2,0.4-0.2c0.1,0,0.2,0,0.2-0.1c0,0,0,0,0,0c0,0,0,0,0.1,0c0,0,0.1,0,0.1,0
				c0.3,0,0.6,0.1,0.9,0.2c0.1,0.1,0.3,0.2,0.4,0.2c0.1,0.1,0.2,0.2,0.3,0.3c0.2,0.3,0.3,0.5,0.3,0.8c0,0.4,0.7,0.4,0.7,0
				c0-1.7-2.3-3-3.7-1.9c-0.1,0.1-0.2,0.3-0.1,0.5C23.3,54,23.5,54.1,23.7,54L23.7,54z"/>
		</g>
	</g>
	<g>
		<g>
			<path class="st24" d="M48.1,123.6c-2.5-0.3-5,0.5-6.9,2.2c-0.2,0.1-0.1,0.4,0.1,0.5c3.4,1.5,7.3,1.4,10.7-0.1
				c0.2-0.1,0.2-0.3,0.1-0.5c-0.9-1.5-2.6-2.3-4.3-2c-0.4,0.1-0.2,0.7,0.2,0.7c1.4-0.2,2.8,0.5,3.6,1.7c0-0.2,0.1-0.3,0.1-0.5
				c-3.1,1.5-6.8,1.5-10,0.1c0,0.2,0,0.4,0.1,0.5c1.7-1.5,4.1-2.3,6.4-2C48.5,124.3,48.5,123.6,48.1,123.6L48.1,123.6z"/>
		</g>
	</g>
	<g>
		<g>
			<path class="st24" d="M41.7,125.9c-2.2,0.1-4.5,0.4-6.7,0.4c-0.5,0-1.2,0-1.6-0.5c-0.2-0.2-0.4-0.7-0.2-1
				c0.2-0.2,0.6-0.3,0.9-0.3c0.8,0.1,1.6,0.3,2.4,0c1.7-0.7,2.2-2.5,3.3-3.8c0.7-0.7,2.1-1.3,2.8-0.3c0.5,0.7,0.4,1.6,0.9,2.4
				c0.2,0.3,0.5,0.2,0.6-0.1c0.5-1.3,2-2.5,3.5-2c1.1,0.4,1.8,1.9,1.1,2.9c-0.2,0.4,0.4,0.7,0.6,0.3c0.9-1.4,0.1-3.3-1.4-3.9
				c-1.9-0.7-3.8,0.7-4.4,2.4c0.2,0,0.4-0.1,0.6-0.1c-0.6-0.9-0.4-2.1-1.3-2.8c-0.7-0.6-1.7-0.5-2.5-0.1c-1.1,0.5-1.6,1.6-2.2,2.5
				c-0.4,0.6-0.8,1.2-1.3,1.6c-0.7,0.5-1.3,0.4-2.1,0.3c-0.8-0.1-1.7-0.1-2.1,0.7c-0.3,0.7,0.1,1.6,0.8,2c1.1,0.7,2.6,0.3,3.8,0.2
				c1.5-0.1,3.1-0.2,4.6-0.3C42.1,126.5,42.1,125.8,41.7,125.9L41.7,125.9z"/>
		</g>
	</g>
	<g>
		<g>
			<path class="st24" d="M28,125.9c-0.8-0.3-1.7-0.7-2.5-0.1c-0.6,0.4-0.8,1.3-0.1,1.8c0.3,0.2,0.7,0.3,1.1,0.4
				c0.5,0.1,0.9,0.1,1.4,0.1c0.8-0.1,1.5-0.6,1.6-1.4c0.1-0.9-0.8-1.6-1.6-1.3c-0.2,0.1-0.2,0.3-0.1,0.5c0.1,0.2,0.3,0.2,0.5,0.1
				c0.3-0.1,0.6,0.3,0.6,0.6c-0.1,0.5-0.6,0.8-1,0.8c-0.3,0-0.6,0-0.9,0c-0.3,0-0.6-0.1-0.8-0.2c-0.4-0.2-0.4-0.5-0.1-0.8
				c0.5-0.5,1.3-0.1,1.8,0.1c0.2,0.1,0.4,0.1,0.5-0.1C28.2,126.2,28.2,125.9,28,125.9L28,125.9z"/>
		</g>
	</g>
	<g>
		<g>
			<path class="st24" d="M56.4,129.9c-0.2-0.2,0.6-0.6,0.7-0.7c0.5-0.2,0.9-0.5,1.4-0.6c0.9-0.3,1.8-0.3,2.7,0.1
				c0.4,0.2,0.7,0.5,0.9,0.8c0.1,0.2,0.2,0.5,0.1,0.7c-0.1,0.2-0.4,0.3-0.6,0.4c-0.8,0.4-1.7,0.6-2.6,0.6c-0.5,0-1-0.1-1.5-0.3
				c-0.2-0.1-0.5-0.2-0.6-0.3c-0.1-0.1-0.4-0.3-0.3-0.5c0.3-0.3-0.2-0.8-0.5-0.5c-0.4,0.5-0.2,1.1,0.3,1.4c0.4,0.4,1.1,0.6,1.7,0.7
				c1.3,0.3,2.6,0.1,3.7-0.5c0.5-0.3,1.1-0.6,1.2-1.3c0-0.6-0.5-1.2-0.9-1.5c-1-0.8-2.4-0.9-3.6-0.5c-0.7,0.2-1.6,0.5-2.2,1
				c-0.4,0.3-0.9,1-0.4,1.5C56.2,130.7,56.7,130.2,56.4,129.9L56.4,129.9z"/>
		</g>
	</g>
	<g>
		<g>
			<path class="st24" d="M24.9,126.3c-2.5,0.1-4.9,0.2-7.4,0.2c-1.2,0-2.4,0.1-3.6,0.1c-1.1,0-2.6,0.3-3.6-0.3
				c-0.4-0.2-0.7,0.4-0.3,0.6c1,0.5,2,0.4,3.1,0.4c1.3,0,2.6,0,3.9-0.1c2.7-0.1,5.3-0.1,8-0.2C25.3,127,25.3,126.3,24.9,126.3
				L24.9,126.3z"/>
		</g>
	</g>
	<g>
		<g>
			<path class="st24" d="M47.6,61.1c0.3-0.6,0.6-1.2,0.9-1.7c0.1-0.2,0-0.4-0.1-0.5c-0.2-0.1-0.4,0-0.5,0.1
				c-0.3,0.6-0.6,1.2-0.9,1.7c-0.1,0.2,0,0.4,0.1,0.5C47.2,61.3,47.5,61.3,47.6,61.1L47.6,61.1z"/>
		</g>
	</g>
	<g>
		<g>
			<path class="st24" d="M71.3,100c6-1.5,12.4,0,17.1,4.1c0.3,0.3,0.8-0.2,0.5-0.5c-4.8-4.3-11.5-5.9-17.7-4.3
				C70.7,99.5,70.9,100.1,71.3,100L71.3,100z"/>
		</g>
	</g>
	<g>
		<g>
			<path class="st24" d="M102.8,116.3c-0.1,1.5-0.2,2.9-0.3,4.4c-0.1,1.3-0.2,2.7,0.2,3.9c0.1,0.4,0.3,0.8,0.7,0.8
				c0.5,0,0.9-0.4,1.1-0.7c0.7-0.9,1-2.2,1.3-3.4c0.4-1.5,0.7-3.1,0.9-4.6c0-0.2-0.3-0.2-0.3,0c-0.2,1.5-0.5,3-0.8,4.5
				c-0.2,0.7-0.4,1.4-0.6,2c-0.2,0.6-0.5,1.4-1.1,1.8c-0.9,0.6-1-1.4-1-1.9c0-0.7,0-1.4,0.1-2.1c0.1-1.5,0.2-3.1,0.3-4.6
				C103.1,116.1,102.8,116.1,102.8,116.3L102.8,116.3z"/>
		</g>
	</g>
	<g>
		<g>
			<path class="st24" d="M103,116.6c0.8,0.9,2.2,1.1,3.2,0.5c0.2-0.1,0.5-0.3,0.6-0.6c0.1-0.2,0.2-0.5-0.1-0.7
				c-0.2-0.2-0.7-0.2-1-0.2c-0.4,0-0.8,0-1.3,0c-0.2,0-0.4,0.1-0.6,0.1c-0.2,0-0.4,0.1-0.6,0.2c-0.3,0.2-0.2,0.6,0.1,0.6
				c0.2,0,0.2-0.3,0-0.3c0,0,0,0,0,0c0,0,0,0,0,0c0.1,0,0.1,0,0.2-0.1c0.2,0,0.3-0.1,0.5-0.1c0.3-0.1,0.6-0.1,0.9-0.1
				c0.3,0,0.6,0,0.9,0c0.2,0,0.6,0,0.6,0.2c0,0.4-0.5,0.7-0.8,0.8c-0.4,0.1-0.8,0.2-1.2,0.1c-0.5-0.1-0.9-0.3-1.2-0.7
				C103.1,116.2,102.8,116.5,103,116.6L103,116.6z"/>
		</g>
	</g>
	<g>
		<g>
			<path class="st24" d="M103.4,116.5c0.4,0.5,1.1,0.8,1.7,0.6c0.6-0.1,1.1-0.6,1.3-1.2c0.1-0.2-0.3-0.3-0.3-0.1
				c-0.2,0.5-0.6,0.9-1.1,1c-0.5,0.1-1.1-0.1-1.4-0.5C103.5,116.1,103.3,116.4,103.4,116.5L103.4,116.5z"/>
		</g>
	</g>
	<g>
		<g>
			<path class="st24" d="M104.7,117.4c-0.2,1.3-0.4,2.6-0.6,3.9c-0.1,1-0.4,2.1,0.1,3.1c0.1,0.1,0.3,0.1,0.3,0
				c0.9-2.4,1.4-4.9,1.7-7.5c0-0.2-0.3-0.2-0.3,0c-0.3,2.5-0.9,5-1.7,7.4c0.1,0,0.2,0,0.3,0c-0.5-1-0.2-2.2,0-3.3
				c0.2-1.2,0.3-2.3,0.5-3.5C105.1,117.3,104.8,117.2,104.7,117.4L104.7,117.4z"/>
		</g>
	</g>
	<g>
		<g>
			<path class="st24" d="M92.7,122.8c-1.3-0.2-2,1.1-2.4,2.2c-0.2,0.6-0.3,1.2,0,1.8c0.3,0.4,0.7,0.7,1.1,0.8
				c0.5,0.2,1.1,0.2,1.6,0.2c0.6,0,1.2-0.1,1.7-0.3c0.5-0.3,0.9-0.8,1.2-1.3c0.3-0.5,0.6-1.1,0.3-1.7c-0.3-0.6-0.9-1-1.5-1.3
				C94.1,122.8,93.4,122.7,92.7,122.8c-0.2,0-0.3,0.4,0,0.4c1-0.1,2.1,0.2,2.9,0.9c0.2,0.2,0.4,0.4,0.4,0.6c0.1,0.3-0.1,0.6-0.2,0.9
				c-0.2,0.5-0.4,1-0.8,1.3c-0.7,0.6-1.9,0.6-2.8,0.5c-0.9-0.1-1.9-0.6-1.7-1.7c0.1-0.6,0.3-1.2,0.7-1.7c0.3-0.5,0.9-1,1.5-0.9
				C92.8,123.1,92.9,122.8,92.7,122.8L92.7,122.8z"/>
		</g>
	</g>
	<g>
		<g>
			<path class="st24" d="M90,126.2c-1.3,1.1-2.7,2.7-2.4,4.6c0.2,1.8,1.7,3.3,3.3,3.9c1.6,0.7,3.3,0.6,4.8-0.2
				c1.4-0.8,2.3-2.2,2.4-3.8c0.1-1.8-0.9-3.6-2.5-4.3c-0.2-0.1-0.4,0.2-0.2,0.3c1.3,0.6,2.2,2,2.3,3.5c0.1,1.5-0.6,2.9-1.8,3.8
				c-2.7,2-6.8,0.6-7.9-2.5c-0.7-2,0.7-3.8,2.2-5C90.4,126.3,90.2,126.1,90,126.2L90,126.2z"/>
		</g>
	</g>
	<g>
		<g>
			<path class="st24" d="M92.4,127.4c-1.7,1.6-2.4,4.8-0.5,6.6c0.8,0.8,2.1,1.1,3.1,0.4c1-0.7,1.3-2,1.1-3.2
				c-0.1-0.8-0.4-1.5-0.7-2.2c-0.3-0.7-0.7-1.3-1.3-1.8c-0.2-0.1-0.4,0.1-0.2,0.2c0.9,0.7,1.3,1.9,1.7,2.9c0.3,1.1,0.4,2.4-0.4,3.3
				c-0.8,0.9-2,0.9-2.9,0.2c-0.8-0.7-1.1-2-1.1-3c0.1-1.2,0.6-2.4,1.5-3.2C92.8,127.5,92.6,127.3,92.4,127.4L92.4,127.4z"/>
		</g>
	</g>
	<g>
		<g>
			<path class="st24" d="M91.1,126.5c0.9-1,2.6-1.2,3.7-0.3c0.2,0.1,0.4-0.1,0.2-0.2c-1.2-1-3.1-0.8-4.2,0.3
				C90.7,126.5,91,126.7,91.1,126.5L91.1,126.5z"/>
		</g>
	</g>
	<g>
		<g>
			<path class="st24" d="M90.8,124.1c-0.3,0.7-0.5,1.5-0.2,2.3c0.3,0.7,0.9,1,1.6,1c1.3,0,3.1-0.2,3.7-1.6c0.3-0.6,0.2-1.3-0.2-1.8
				c-0.1-0.2-0.4,0.1-0.2,0.2c0.5,0.5,0.3,1.3,0,1.8c-0.4,0.6-1.3,0.9-2,1c-0.7,0.1-1.7,0.2-2.2-0.4c-0.6-0.7-0.2-1.7,0-2.5
				C91.2,124,90.9,123.9,90.8,124.1L90.8,124.1z"/>
		</g>
	</g>
	<g>
		<g>
			<path class="st24" d="M107,122.3c-0.1,1.8-0.3,3.6-0.4,5.5c-0.1,1.6-0.3,3.3,0.2,4.9c0.1,0.4,0.3,0.9,0.9,1
				c0.6,0,1.1-0.5,1.4-0.9c0.9-1.2,1.2-2.8,1.6-4.2c0.5-1.9,0.8-3.8,1.1-5.8c0-0.2-0.3-0.2-0.3,0c-0.2,1.9-0.6,3.8-1,5.6
				c-0.2,0.8-0.4,1.7-0.7,2.5c-0.3,0.8-0.7,1.7-1.4,2.2c-1.1,0.8-1.3-1.7-1.4-2.3c0-0.9,0-1.8,0.1-2.6c0.1-1.9,0.3-3.9,0.4-5.8
				C107.4,122.1,107,122.1,107,122.3L107,122.3z"/>
		</g>
	</g>
	<g>
		<g>
			<path class="st24" d="M107.3,122.7c1,1.1,2.7,1.3,3.9,0.6c0.5-0.3,1.2-1,0.7-1.6c-0.3-0.3-0.8-0.2-1.2-0.3c-0.5,0-1,0-1.6,0.1
				c-0.3,0-0.5,0.1-0.8,0.1c-0.2,0-0.5,0.1-0.7,0.2c-0.3,0.2-0.2,0.7,0.1,0.7c0.2,0,0.2-0.3,0-0.3c0,0,0.1-0.1,0.1-0.1
				c0.1,0,0.2-0.1,0.2-0.1c0.2,0,0.4-0.1,0.6-0.1c0.4-0.1,0.8-0.1,1.1-0.1c0.4,0,0.7,0,1.1,0c0.2,0,0.8,0,0.8,0.3
				c0,0.5-0.7,0.9-1.1,1c-0.5,0.2-1.1,0.2-1.6,0.1c-0.6-0.1-1.1-0.4-1.6-0.9C107.4,122.3,107.1,122.5,107.3,122.7L107.3,122.7z"/>
		</g>
	</g>
	<g>
		<g>
			<path class="st24" d="M107.9,122.5c0.5,0.6,1.3,0.9,2.1,0.8c0.8-0.1,1.4-0.7,1.6-1.5c0.1-0.2-0.3-0.3-0.3-0.1
				c-0.2,0.6-0.8,1.1-1.4,1.2c-0.7,0.1-1.4-0.2-1.8-0.7C108,122.1,107.7,122.4,107.9,122.5L107.9,122.5z"/>
		</g>
	</g>
	<g>
		<g>
			<path class="st24" d="M109.5,123.7c-0.2,1.6-0.5,3.3-0.7,4.9c-0.2,1.3-0.5,2.7,0.1,3.8c0.1,0.1,0.3,0.1,0.3,0
				c1.1-3,1.8-6.2,2.2-9.3c0-0.2-0.3-0.2-0.3,0c-0.4,3.2-1.1,6.3-2.1,9.2c0.1,0,0.2,0,0.3,0c-0.7-1.2-0.2-2.8,0-4.1
				c0.2-1.5,0.4-2.9,0.6-4.4C109.9,123.6,109.5,123.5,109.5,123.7L109.5,123.7z"/>
		</g>
	</g>
	<g>
		<g>
			<path class="st24" d="M77,135.3c1.3-0.1,2.6-0.1,3.9-0.2c1.2-0.1,2.5,0,3.8-0.2c0.8-0.1,1.3-0.6,1.7-1.2c0.4-0.6,0.7-1.6,1.5-1.7
				c0.2,0,0.1-0.4-0.1-0.3c-0.6,0.1-1,0.6-1.3,1.1c-0.5,0.8-0.8,1.7-1.9,1.8c-1.2,0.2-2.5,0.1-3.7,0.2c-1.3,0.1-2.6,0.1-3.9,0.2
				C76.8,135,76.8,135.3,77,135.3L77,135.3z"/>
		</g>
	</g>
	<g>
		<g>
			<path class="st24" d="M97.6,133.2c3.3,1.1,6.9,0.7,10.4,0.6c1.9,0,3.8-0.1,5.7-0.1c1.1,0,2.6,0.2,3.5-0.7
				c0.2-0.2-0.1-0.4-0.2-0.2c-0.7,0.6-1.7,0.5-2.5,0.6c-0.8,0-1.5,0-2.3,0.1c-1.7,0-3.3,0.1-5,0.1c-3.2,0.1-6.5,0.4-9.5-0.6
				C97.5,132.8,97.4,133.1,97.6,133.2L97.6,133.2z"/>
		</g>
	</g>
	<g>
		<g>
			<path class="st24" d="M100,125.1c1.7-0.1,3.5-0.2,5.2-0.3c0.2,0,0.2-0.4,0-0.3c-1.7,0.1-3.5,0.2-5.2,0.3
				C99.8,124.8,99.8,125.1,100,125.1L100,125.1z"/>
		</g>
	</g>
	<g>
		<g>
			<path class="st24" d="M56.4,74c0.2,2.3,2.1,4.3,3.6,5.9c2.2,2.3,4.9,4,7.8,5.1c1.9,0.7,3.8,0.9,5.8,1.1c0.6,0,3.2,0.5,3.5-0.3
				c-0.1,0-0.2,0-0.3,0c-0.3,3.4-2,6.3-3.6,9.2c-1.4,2.6-2.6,5.3-3.3,8.2c-1.4,5.8-1,11.9,1,17.5c0.1,0.2,0.4,0.1,0.3-0.1
				c-2.1-5.9-2.4-12.5-0.6-18.5c0.8-3,2.3-5.7,3.8-8.4c1.4-2.5,2.6-5,2.9-7.9c0-0.2-0.3-0.2-0.3,0c-0.2,0.5-3.6,0-4,0
				c-1.7-0.2-3.4-0.5-5-1.1c-2.6-1-5-2.5-7-4.5c-1.6-1.6-3.7-3.8-3.9-6.1C56.8,73.8,56.4,73.8,56.4,74L56.4,74z"/>
		</g>
	</g>
	<g>
		<g>
			<path class="st24" d="M95.1,93.2c-1.9,4.1-3.1,8.4-3.7,12.8c-0.6,4.5-1.2,9.2-4.4,12.7c-0.1,0.2,0.1,0.4,0.2,0.2
				c2.9-3.2,3.7-7.4,4.2-11.5c0.7-4.9,1.8-9.6,3.9-14.1C95.5,93.2,95.2,93,95.1,93.2L95.1,93.2z"/>
		</g>
	</g>
	<g>
		<g>
			<path class="st24" d="M76.2,86.1c-1.6,0.4-2.8,1.4-3.8,2.7c-0.5,0.7-1,1.4-1.4,2.2c-0.5,0.8-1,1.7-1.7,2.3
				c-0.2,0.2-0.2,0.2-0.5,0.2c-0.2-0.1-0.7-0.5-0.9-0.6c-0.6-0.4-1.2-0.9-1.8-1.4c-1.1-0.8-2.1-1.7-3.1-2.6c-2-1.7-4-3.4-6-5.1
				c-0.2-0.1-0.4,0.1-0.2,0.2c4,3.4,7.8,6.9,12.1,10c0.1,0,0.2,0,0.2,0c2.5-2.4,3.4-6.6,7.1-7.5C76.5,86.3,76.4,86,76.2,86.1
				L76.2,86.1z"/>
		</g>
	</g>
	<g>
		<g>
			<path class="st24" d="M96.7,91.8c0.2,1.2,0.3,2.5,0.3,3.7c0,0.3,0,0.6,0,0.9c0,0.1,0,0.3-0.2,0.3c-0.2,0-0.3-0.1-0.3-0.2
				C96,96,95.6,95.5,95.1,95c-0.1-0.2-0.4,0.1-0.2,0.2c0.3,0.3,0.6,0.6,0.8,0.9c0.2,0.3,0.5,0.6,0.7,0.8c0.2,0.1,0.4,0.2,0.6,0
				c0.2-0.2,0.2-0.5,0.2-0.7c0.1-1.5,0-3.1-0.3-4.6C96.9,91.5,96.6,91.6,96.7,91.8L96.7,91.8z"/>
		</g>
	</g>
	<g>
		<g>
			<path class="st24" d="M70.7,120.5c-4.3-0.8-8.5-2.6-12-5.3c-1.8-1.3-3.4-2.8-4.8-4.5c-0.8-0.9-1.5-1.9-2.1-2.9
				c-0.6-1-2-2.7-1-3.8c0.1-0.2-0.1-0.4-0.2-0.2c-1.4,1.6,0.8,4.1,1.7,5.4c1.4,2,3.1,3.8,5.1,5.4c3.8,3.2,8.4,5.4,13.3,6.3
				C70.8,120.9,70.9,120.5,70.7,120.5L70.7,120.5z"/>
		</g>
	</g>
	<g>
		<g>
			<path class="st24" d="M102.7,56.7c0.8-0.7,1.5-1.9,1.1-2.9c-0.3-0.8-1.1-1-1.8-0.8c-0.6,0.1-1.1,0.4-1.6,0.5
				c-1.7,0.4-1.7-1.2-1.4-2.3c0.2-0.7,0.4-1.7-0.2-2.2c-0.3-0.2-0.6-0.3-1-0.3c-1.1-0.1-1.8-0.3-2.3-1.2c-0.6-1-0.8-2.3-2-2.9
				c-1.1-0.5-2.5-0.2-3.7-0.5c-1.8-0.4-3.4-1.3-5.2-1.5c-4.4-0.6-8.8,0.8-13,2c-0.2,0.1-0.2,0.4,0,0.3c3.7-0.4,7.4-0.2,11.1,0.6
				c3.2,0.7,6.5,1.8,9.3,3.6c1.5,1,2.9,2.2,3.7,3.9c0.5,1.1,0.7,2.5,1.5,3.5C98.3,58.3,101.1,57.8,102.7,56.7c0.1-0.1,0-0.4-0.2-0.3
				c-1.2,0.9-3.3,1.4-4.6,0.5c-1.1-0.8-1.4-2.5-1.9-3.7c-1.2-2.6-3.5-4.3-6-5.6c-5.6-2.7-12.2-3.8-18.4-3.1c0,0.1,0,0.2,0,0.3
				C76,43.6,80.7,42,85.4,43c1.9,0.4,3.7,1.4,5.6,1.6c0.8,0.1,1.6-0.1,2.3,0.3c0.8,0.4,1.1,1.4,1.5,2.2c0.4,0.9,1,1.7,2.1,1.9
				c0.7,0.1,1.5-0.2,1.8,0.7c0.1,0.3,0,0.9-0.1,1.2c-0.1,0.6-0.4,1.2-0.3,1.8c0.1,0.9,0.8,1.3,1.6,1.2c0.6-0.1,1.1-0.4,1.6-0.5
				c0.9-0.3,1.9-0.4,1.9,1.1c0,0.8-0.6,1.5-1.1,2C102.3,56.6,102.5,56.8,102.7,56.7z"/>
		</g>
	</g>
	<g>
		<g>
			<path class="st24" d="M99.2,40.2c0.1-3,2.1-5.8,4.9-6.8c1.6-0.6,3.5-0.6,4.9,0.3c1.4,0.8,2.3,2.4,2.2,4c0,0.2,0.3,0.2,0.3,0
				c0.1-1.6-0.7-3.2-2-4.1c-1.5-1-3.4-1.2-5.1-0.7c-3.2,0.9-5.4,4-5.6,7.2C98.9,40.4,99.2,40.4,99.2,40.2L99.2,40.2z"/>
		</g>
	</g>
	<g>
		<g>
			<path class="st24" d="M101.4,41.4c-1-0.9-0.8-2.8,0.5-3.3c1.3-0.4,3,0.7,2.6,2.1c-0.1,0.4-0.4,0.7-0.8,0.7
				c-0.3,0-0.7-0.3-0.7-0.7c0-0.2-0.3-0.3-0.3-0.1c-0.1,0.4,0.2,0.8,0.5,1c0.4,0.2,0.8,0.2,1.2-0.1c0.7-0.6,0.6-1.7,0.1-2.4
				c-0.5-0.7-1.3-1-2.2-1c-0.8,0.1-1.5,0.6-1.8,1.4c-0.3,0.9-0.1,1.9,0.6,2.5C101.3,41.7,101.5,41.5,101.4,41.4L101.4,41.4z"/>
		</g>
	</g>
	<g>
		<g>
			<path class="st24" d="M66.8,70.7c0.7-0.5,1.4-0.7,2.2-0.8c0.2,0,0.2-0.4,0-0.3c-0.9,0-1.7,0.3-2.4,0.8
				C66.4,70.5,66.6,70.8,66.8,70.7L66.8,70.7z"/>
		</g>
	</g>
	<g>
		<g>
			<path class="st24" d="M64.6,56.2c1,0.5,2,1,3,1.4c0.2,0.1,0.4-0.2,0.2-0.3c-1-0.5-2-1-3-1.4C64.6,55.8,64.4,56.1,64.6,56.2
				L64.6,56.2z"/>
		</g>
	</g>
	<g>
		<g>
			<path class="st24" d="M69.7,50.2c0.5,0.3,1,0.6,1.5,0.9c0.2,0.1,0.4-0.2,0.2-0.3c-0.5-0.3-1-0.6-1.5-0.9
				C69.7,49.8,69.6,50.1,69.7,50.2L69.7,50.2z"/>
		</g>
	</g>
	<g>
		<g>
			<path class="st24" d="M74.5,48.1c0,0.2,0,0.4,0.1,0.6c0.1,0.2,0.3,0.3,0.5,0.4c0.1,0,0.2,0,0.2-0.1c0-0.1,0-0.2-0.1-0.2
				c0,0,0,0-0.1,0c0,0,0,0,0,0c0,0,0,0,0,0c0,0,0,0,0,0c0,0,0,0-0.1,0c0,0,0,0,0,0c0,0,0,0,0,0c0,0,0,0,0,0c0,0,0,0,0,0c0,0,0,0,0,0
				c0,0,0,0,0,0c0,0,0,0,0,0c0,0,0,0,0,0c0,0,0-0.1-0.1-0.1c0,0,0,0,0,0c0,0,0,0,0,0c0,0,0,0,0,0c0,0,0,0,0-0.1c0,0,0,0,0,0
				c0,0,0,0,0,0c0,0,0,0,0,0c0,0,0,0,0-0.1c0,0,0,0,0-0.1c0,0,0,0,0,0c0,0,0,0,0,0c0-0.1,0-0.2-0.1-0.2C74.6,47.9,74.5,48,74.5,48.1
				L74.5,48.1z"/>
		</g>
	</g>
	<g>
		<g>
			<path class="st24" d="M71.4,74.8c0.4-0.4,0.9-0.9,1.3-1.3c0.2-0.2-0.1-0.4-0.2-0.2c-0.4,0.4-0.9,0.9-1.3,1.3
				C71,74.7,71.3,74.9,71.4,74.8L71.4,74.8z"/>
		</g>
	</g>
	<g>
		<g>
			<path class="st24" d="M68.2,48.1c-0.4-0.8-0.4-1.8-0.4-2.7c0-1,0.2-2.1,0.4-3.1c0.5-2.1,1.6-4.8,3.9-5.5c0.2-0.1,0.1-0.4-0.1-0.3
				c-2.3,0.7-3.5,3.3-4.1,5.5c-0.3,1.1-0.4,2.3-0.5,3.4c0,1,0,2,0.4,2.9C68,48.5,68.3,48.3,68.2,48.1L68.2,48.1z"/>
		</g>
	</g>
	<g>
		<g>
			<path class="st24" d="M72.1,46.4c-1.8-2.7-1.8-6.4-0.1-9.2c0.1-0.2-0.2-0.4-0.3-0.2c-1.8,2.9-1.8,6.7,0.1,9.5
				C72,46.7,72.3,46.5,72.1,46.4L72.1,46.4z"/>
		</g>
	</g>
	<g>
		<g>
			<path class="st24" d="M83.3,35.6c-1.2,1.7-1,4.4,0.8,5.5c1.6,1.1,4.2,0.5,5-1.4c0.4-1.1,0.2-2.7-0.7-3.5
				c-0.2-0.1-0.4,0.1-0.2,0.2c0.8,0.7,1,1.9,0.7,2.9c-0.2,0.9-0.9,1.5-1.8,1.8c-0.8,0.3-1.8,0.2-2.5-0.2c-0.8-0.4-1.4-1.3-1.6-2.2
				c-0.2-1,0-2.2,0.6-3C83.7,35.6,83.4,35.4,83.3,35.6L83.3,35.6z"/>
		</g>
	</g>
	<g>
		<g>
			<path class="st24" d="M83,35.7c-0.4,1.3-0.5,2.8,0.3,3.9c0.7,0.9,1.9,1.4,3,0.9c2-0.9,1.8-3.7,0.7-5.3c-0.3-0.4-0.6-0.7-1.1-0.9
				c-0.6-0.2-1.4-0.1-1.9,0.3c-0.2,0.1,0,0.4,0.2,0.3c0.8-0.6,1.9-0.5,2.5,0.3c0.5,0.6,0.8,1.5,0.8,2.3c0.1,0.9-0.2,1.8-0.9,2.3
				c-0.9,0.7-2,0.4-2.8-0.4c-0.9-1.1-0.8-2.6-0.4-3.8C83.4,35.5,83.1,35.4,83,35.7L83,35.7z"/>
		</g>
	</g>
	<g>
		<g>
			<path class="st24" d="M70.7,47c-1.8-3.2-1.4-7.4,1.1-10c0.2-0.2-0.1-0.4-0.2-0.2c-2.6,2.8-3.1,7.2-1.2,10.5
				C70.5,47.4,70.8,47.2,70.7,47L70.7,47z"/>
		</g>
	</g>
	<g>
		<g>
			<path class="st24" d="M83.9,35.3c0.5-0.7,1.4-0.8,2.2-0.6c0.9,0.3,1.6,1.1,2.2,1.8c0.1,0.2,0.4-0.1,0.2-0.2
				c-0.7-0.8-1.4-1.7-2.5-2c-0.9-0.2-1.9,0-2.4,0.8C83.5,35.4,83.8,35.5,83.9,35.3L83.9,35.3z"/>
		</g>
	</g>
	<g>
		<g>
			<path class="st24" d="M104,114.1c0-0.5,0.2-0.8,0.5-1.1c0.2-0.2,0.5-0.4,0.6-0.7c0.2-0.7-0.3-1.3-0.8-1.7c-0.6-0.5-1.1-1-1-1.8
				c0.1-0.6,0.6-1.2,1.3-1.3c0.2,0,0.2-0.4,0-0.3c-1.3,0.1-2.1,1.7-1.4,2.8c0.4,0.7,1.6,1.1,1.6,2.1c0,0.5-0.6,0.7-0.8,1
				c-0.2,0.3-0.3,0.7-0.3,1.1C103.6,114.4,104,114.4,104,114.1L104,114.1z"/>
		</g>
	</g>
	<g>
		<g>
			<path class="st24" d="M105.3,115c0-0.7,0.3-1.4,0.8-1.9c0.2-0.2-0.1-0.4-0.2-0.2c-0.6,0.6-0.9,1.4-0.9,2.2
				C105,115.2,105.3,115.2,105.3,115L105.3,115z"/>
		</g>
	</g>
	<g>
		<g>
			<path class="st24" d="M109.7,120.1c-0.3-0.2-0.3-0.5-0.1-0.8c0.2-0.3,0.5-0.5,0.8-0.3c0.3,0.2,0.5,0.6,0.5,0.9
				c-0.1,0.4-0.5,0.7-0.8,0.8c-0.2,0-0.5,0-0.7-0.1c-0.1,0-0.1-0.1-0.2-0.2c0,0,0,0,0-0.1c0,0,0,0,0,0c0,0,0,0,0,0c0,0,0,0,0,0
				c0,0-0.1,0,0,0c0.2,0,0.2-0.3,0-0.3c-0.1,0-0.3,0.1-0.3,0.2c0,0.1,0,0.3,0.1,0.4c0.1,0.3,0.4,0.3,0.7,0.4
				c0.6,0.1,1.2-0.2,1.5-0.7c0.3-0.5,0.1-1.1-0.3-1.5c-0.4-0.4-1-0.4-1.4,0.1c-0.3,0.4-0.4,1.1,0.1,1.4
				C109.7,120.5,109.9,120.2,109.7,120.1L109.7,120.1z"/>
		</g>
	</g>
	<g>
		<g>
			<path class="st24" d="M108.7,115.5c-0.3-0.3-0.4-0.8-0.2-1.2c0.2-0.4,0.7-0.5,1.1-0.3c0.4,0.2,0.6,0.6,0.5,1.1
				c-0.1,0.4-0.5,0.8-1,0.7C109,115.8,108.7,115.7,108.7,115.5c0-0.3,0.1-0.5,0.3-0.5c0.2,0,0.2-0.4,0-0.3c-0.3,0-0.5,0.2-0.6,0.5
				c-0.1,0.3,0,0.6,0.3,0.8c0.3,0.2,0.6,0.2,0.9,0.1c0.3-0.1,0.6-0.3,0.7-0.6c0.3-0.5,0.3-1.3-0.2-1.7c-0.5-0.4-1.2-0.4-1.7,0
				c-0.5,0.5-0.5,1.4,0,1.8C108.7,115.9,108.9,115.6,108.7,115.5L108.7,115.5z"/>
		</g>
	</g>
	<g>
		<g>
			<path class="st24" d="M110.4,108.4c-0.2-1.1,0.4-2.3,1.3-2.8c1-0.6,2.3-0.4,3.1,0.3c0.9,0.7,1.1,1.9,0.7,3
				c-0.4,1.1-1.8,2.1-3,1.5c-0.6-0.3-1-0.9-1-1.5c0-0.7,0.4-1.3,0.9-1.6c0.2-0.1,0-0.4-0.2-0.3c-1.2,0.7-1.5,2.3-0.5,3.3
				c1,1.1,2.7,0.7,3.6-0.4c0.8-1,0.9-2.6,0.1-3.7c-0.8-1-2.2-1.5-3.4-1.1c-1.4,0.5-2.3,2-2,3.5C110.1,108.7,110.4,108.6,110.4,108.4
				L110.4,108.4z"/>
		</g>
	</g>
	<g>
		<g>
			<path class="st24" d="M112.1,114.3c-0.2-0.5,0.4-0.9,0.8-0.9c0.5,0,0.9,0.6,1,1c0.1,0.5,0.1,1.1-0.2,1.5c-0.3,0.3-0.9,0.3-1-0.1
				c-0.1-0.3,0.5-0.6,0.6-0.3c0.1,0.2,0.4,0.1,0.3-0.1c-0.2-0.6-1-0.4-1.2,0c-0.1,0.3,0,0.6,0.2,0.8c0.2,0.2,0.6,0.3,0.9,0.2
				c0.8-0.1,1-1.1,0.9-1.7c-0.1-0.7-0.5-1.5-1.2-1.6c-0.7-0.2-1.6,0.6-1.3,1.4C111.9,114.7,112.2,114.5,112.1,114.3L112.1,114.3z"/>
		</g>
	</g>
	<g>
		<g>
			<path class="st24" d="M88.5,128.7c-0.2,0.6,0.2,1.2,0.7,1.4c0.3,0.1,0.6,0.1,0.8,0c0.3-0.2,0.4-0.4,0.8-0.4
				c0.3,0,0.6,0.1,0.9,0.2c1.8,0.6,3.8,0.3,5.5-0.7c0.1-0.1,0.1-0.2,0-0.3c-1.3-0.6-2.6-0.4-4-0.3c-1.4,0.1-2.9,0.3-4.2-0.5
				c-0.2-0.1-0.4,0.2-0.2,0.3c2.5,1.6,5.6-0.4,8.2,0.7c0-0.1,0-0.2,0-0.3c-1.4,0.9-3.2,1.2-4.8,0.8c-0.7-0.2-1.4-0.5-2-0.1
				c-0.4,0.2-0.6,0.4-1,0.2c-0.3-0.2-0.5-0.6-0.3-0.9C89,128.5,88.6,128.5,88.5,128.7L88.5,128.7z"/>
		</g>
	</g>
	<g>
		<g>
			<path class="st24" d="M110.5,126.5c-1,0.6-2.3,0.8-3.4,0.3c-0.2-0.1-0.4,0.2-0.2,0.3c1.2,0.5,2.7,0.4,3.8-0.3
				C110.9,126.7,110.7,126.4,110.5,126.5L110.5,126.5z"/>
		</g>
	</g>
	<g>
		<g>
			<path class="st24" d="M107,125.5c1,0.8,2.3,1.2,3.6,1c0.2,0,0.1-0.4-0.1-0.3c-1.2,0.2-2.4-0.2-3.3-0.9
				C107.1,125.1,106.9,125.3,107,125.5L107,125.5z"/>
		</g>
	</g>
	<g>
		<g>
			<path class="st24" d="M102.6,122.1c0.8,0.7,2.3,0.4,2.7-0.7c0-0.1-0.1-0.2-0.2-0.2c-0.8,0-1.6,0-2.5,0c-0.2,0-0.2,0.3,0,0.3
				c0.8,0,1.6,0,2.5,0c-0.1-0.1-0.1-0.1-0.2-0.2c-0.3,0.8-1.5,1.1-2.1,0.5C102.7,121.7,102.5,122,102.6,122.1L102.6,122.1z"/>
		</g>
	</g>
	<g>
		<g>
			<path class="st24" d="M47.1,112.5c0.2,0,0.2-0.3,0-0.3C46.8,112.2,46.8,112.5,47.1,112.5L47.1,112.5z"/>
		</g>
	</g>
	<g>
		<g>
			<path class="st24" d="M47.3,112.2c-6.5-0.2-13,0.2-19.4,1.4c-0.2,0-0.1,0.4,0.1,0.3c6.4-1.1,12.8-1.6,19.3-1.3
				C47.5,112.5,47.5,112.2,47.3,112.2L47.3,112.2z"/>
		</g>
	</g>
	<g>
		<g>
			<path class="st24" d="M96.4,111c0.8,0,1.5,0,2.3-0.1c0.2,0,0.2-0.3,0-0.3c-0.8,0-1.5,0-2.3,0.1C96.2,110.7,96.2,111.1,96.4,111
				L96.4,111z"/>
		</g>
	</g>
	<g>
		<g>
			<path class="st24" d="M23.5,78.4c1.1,1.1,3.3,0.4,3.4-1.2c0-0.8-0.5-1.6-1.2-2c-0.7-0.4-1.6-0.2-2.1,0.4
				c-0.6,0.7-0.8,1.7-0.3,2.4c0.1,0.2,0.4,0,0.3-0.2c-0.7-1.1,0.4-2.9,1.8-2.5c0.7,0.2,1.2,0.9,1.2,1.5c0.1,0.7-0.3,1.2-0.9,1.5
				c-0.6,0.3-1.4,0.2-1.9-0.3C23.6,78,23.4,78.2,23.5,78.4L23.5,78.4z"/>
		</g>
	</g>
	<g>
		<g>
			<path class="st24" d="M38.9,12.3c2.1-3.2,6.5-5,9.8-2.6c3,2.2,2.9,6.4,2.7,9.7c0,0.2,0.3,0.2,0.3,0c0.2-3.5,0.2-8.1-3.2-10.2
				c-3.5-2.2-7.8-0.3-10,2.9C38.5,12.3,38.8,12.5,38.9,12.3L38.9,12.3z"/>
		</g>
	</g>
	<g>
		<g>
			<path class="st24" d="M42.9,12.9c0.6-1,1.8-1.1,2.8-0.7c1.3,0.5,1.8,1.8,1.9,3c0.1,0.8-0.1,1.6-0.2,2.4c-0.1,0.2,0.3,0.3,0.3,0.1
				c0.4-1.5,0.5-3.2-0.4-4.6c-0.6-1.1-1.9-1.6-3.1-1.4c-0.6,0.1-1.2,0.5-1.6,1C42.5,12.9,42.8,13.1,42.9,12.9L42.9,12.9z"/>
		</g>
	</g>
	<g>
		<g>
			<path class="st24" d="M50.8,34.1c0.7-0.9,2-1.1,3.1-0.8c1.3,0.4,2,1.6,2.2,2.9c0.3,2.9-1.9,5.2-3.9,6.9c-0.2,0.1,0.1,0.4,0.2,0.2
				c1.8-1.6,3.7-3.4,4-6c0.2-2.1-0.8-4.2-3-4.6c-1-0.2-2.1,0.2-2.8,1C50.5,34,50.7,34.2,50.8,34.1L50.8,34.1z"/>
		</g>
	</g>
	<g>
		<g>
			<path class="st24" d="M48.2,71.1c0-0.9,0.6-1.6,1.5-1.9c0.9-0.3,1.8,0.1,2.3,0.8c1.3,1.6,0.3,3.7-1.5,4.4
				c-0.2,0.1-0.1,0.4,0.1,0.3c1.5-0.6,2.7-2.2,2.2-3.9c-0.4-1.6-2.1-2.6-3.6-1.8c-0.8,0.4-1.3,1.2-1.3,2.1
				C47.9,71.3,48.2,71.3,48.2,71.1L48.2,71.1z"/>
		</g>
	</g>
	<g>
		<g>
			<path class="st24" d="M49.3,71.9c0-0.1,0.1-0.2,0.1-0.3c0,0,0.1-0.1,0.1-0.1c0,0,0,0,0.1-0.1c0,0,0,0,0,0c0,0,0.1-0.1,0.1-0.1
				c0,0,0,0,0.1,0c0,0,0,0,0,0c0,0,0,0,0,0c0.1,0,0.1,0,0.2-0.1c0,0,0,0,0.1,0c0,0,0,0,0,0c0,0,0,0,0,0c0,0-0.1,0-0.1,0
				c0,0,0,0,0.1,0.1c0,0,0,0,0,0c0,0,0,0,0,0c0,0,0,0,0,0.1c0,0,0,0,0,0c0,0,0,0,0,0c0,0.1,0,0.1,0,0.2c0,0,0,0,0,0c0,0,0,0,0,0
				c0,0,0,0.1,0,0.1c0,0,0,0,0,0c0,0,0,0,0,0c0,0,0,0,0,0c0,0,0,0,0,0c0,0,0,0.1,0,0.1c0,0,0,0,0,0c0,0,0,0,0,0c0,0,0,0.1-0.1,0.1
				c0,0,0,0,0,0c0,0,0,0,0,0c0,0,0,0-0.1,0.1c-0.1,0.1-0.1,0.2,0,0.2c0.1,0.1,0.2,0.1,0.2,0c0.3-0.3,0.4-0.7,0.3-1.1
				c0-0.1-0.1-0.2-0.1-0.3c0,0-0.1-0.1-0.1-0.1c-0.1-0.1-0.2,0-0.3,0c-0.2,0-0.4,0.1-0.6,0.3c-0.2,0.2-0.4,0.3-0.5,0.6
				c0,0.1,0,0.2,0.1,0.2C49.1,72,49.3,72,49.3,71.9L49.3,71.9z"/>
		</g>
	</g>
	<g>
		<g>
			<path class="st24" d="M41.2,98c-0.9-0.5-0.8-2.1,0.2-2.4c0.5-0.1,1.1,0.1,1.4,0.5c0.4,0.4,0.4,1,0,1.4
				C42.5,98.1,41.8,98.3,41.2,98c-0.2-0.1-0.4,0.2-0.2,0.3c1.3,0.6,3-0.8,2.2-2.1c-0.3-0.6-1-0.9-1.7-0.9c-0.7,0.1-1.2,0.6-1.3,1.2
				c-0.1,0.7,0.1,1.5,0.8,1.8C41.2,98.4,41.4,98.1,41.2,98L41.2,98z"/>
		</g>
	</g>
	<g>
		<g>
			<path class="st24" d="M68.6,93.5c1.3-1.1,1.6-2.8,2.4-4.2c0.9-1.5,2.4-2.4,4-3c0.2-0.1,0.1-0.4-0.1-0.3c-1.5,0.6-3.1,1.4-4,2.8
				c-1,1.4-1.2,3.3-2.6,4.5C68.2,93.4,68.4,93.6,68.6,93.5L68.6,93.5z"/>
		</g>
	</g>
	<g>
		<g>
			<path class="st24" d="M76.6,85.7c-0.3,0.5-0.4,1-0.6,1.6c-0.3,0.8-0.8,1.5-1.2,2.3c-0.6,1.1-1.3,2.2-1.8,3.3c-1.3,3-3,5.9-4.1,9
				c-2,6-1.9,12.5,0.4,18.4c0.1,0.2,0.4,0.1,0.3-0.1c-2.3-6-2.4-12.6-0.2-18.6c1-2.9,2.6-5.6,3.9-8.4c0.5-1.2,1.2-2.3,1.8-3.5
				c0.3-0.6,0.7-1.3,1-2c0.3-0.7,0.3-1.4,0.7-2C77,85.7,76.7,85.6,76.6,85.7L76.6,85.7z"/>
		</g>
	</g>
	<g>
		<g>
			<path class="st24" d="M87.8,119.1c6.1-6.4,4.4-16,7.4-23.7c0.1-0.2-0.3-0.3-0.3-0.1c-2.9,7.6-1.2,17.3-7.3,23.5
				C87.4,119,87.6,119.2,87.8,119.1L87.8,119.1z"/>
		</g>
	</g>
	<g>
		<g>
			<path class="st24" d="M64.5,108.4c0.8,0.6,1,1.9,0.4,2.7c-0.3,0.4-0.8,0.6-1.3,0.5c-0.2,0-0.4-0.1-0.5-0.3
				c-0.1-0.2-0.1-0.5-0.2-0.7c0-0.5,0-1,0.1-1.5c0.1-0.4,0.1-0.8,0.5-1C63.9,108.1,64.3,108.2,64.5,108.4c0.2,0.2,0.4-0.1,0.2-0.3
				c-0.6-0.4-1.5-0.5-1.8,0.3c-0.1,0.3-0.1,0.5-0.2,0.8c0,0.3-0.1,0.6-0.1,0.9c0,0.3,0,0.6,0.1,0.8c0,0.2,0.1,0.5,0.3,0.7
				c0.5,0.5,1.5,0.4,2,0c0.5-0.4,0.6-1,0.6-1.6c0-0.7-0.3-1.4-0.8-1.8C64.6,108,64.3,108.2,64.5,108.4z"/>
		</g>
	</g>
	<g>
		<g>
			<path class="st24" d="M67.8,96.7c0.5,0.1,0.4,0.8,0.3,1.2c-0.1,0.4-0.2,0.9-0.4,1.3c-0.2,0.5-0.4,1.1-0.8,1.5
				c-0.2,0.2-0.5,0.4-0.7,0.4c-0.1,0-0.2-0.2-0.3-0.4c-0.1-0.3-0.1-0.6,0-0.8c0.1-0.7,0.3-1.4,0.6-2.1
				C66.7,97.3,67.1,96.6,67.8,96.7c0.2,0.1,0.3-0.3,0.1-0.3c-0.7-0.2-1.2,0.4-1.6,1c-0.4,0.7-0.7,1.6-0.7,2.4c0,0.5-0.1,1.4,0.5,1.6
				c0.3,0.1,0.6-0.1,0.9-0.2c0.5-0.4,0.7-1,1-1.5c0.2-0.6,0.5-1.2,0.6-1.8c0.1-0.6,0.1-1.3-0.6-1.5C67.6,96.4,67.5,96.7,67.8,96.7z"
				/>
		</g>
	</g>
	<g>
		<g>
			<path class="st24" d="M67.4,96.4c-1.9-1.6-3.8,1.9-3.1,3.5c0.3,0.8,1,1.3,1.8,1.6c0.2,0.1,0.3-0.3,0.1-0.3
				c-1.1-0.3-1.9-1.3-1.7-2.5c0.1-0.8,0.6-1.8,1.3-2.2c0.5-0.2,0.9-0.1,1.3,0.2C67.4,96.8,67.6,96.6,67.4,96.4L67.4,96.4z"/>
		</g>
	</g>
	<g>
		<g>
			<path class="st24" d="M63.7,107.7c-1-0.2-2.1,0.5-2.5,1.4c-0.4,1,0.2,2,1.1,2.5c0.5,0.3,1.1,0.3,1.6,0.1c0.2-0.1,0.1-0.4-0.1-0.3
				c-0.8,0.3-1.7-0.1-2.1-0.8c-0.5-0.8-0.2-1.7,0.5-2.2c0.4-0.3,0.9-0.5,1.4-0.4C63.8,108.1,63.9,107.8,63.7,107.7L63.7,107.7z"/>
		</g>
	</g>
	<g>
		<g>
			<path class="st24" d="M63.1,108.9c0.2-0.6,1.1-0.3,1.3,0.1c0.1,0.2,0.2,0.6,0.1,0.8c0,0.3-0.1,0.7-0.2,1
				c-0.1,0.3-0.3,0.6-0.7,0.7c-0.2,0.1-0.1,0.4,0.1,0.3c0.8-0.3,1.1-1.3,1.1-2c0-0.4,0-0.8-0.2-1.1c-0.2-0.3-0.6-0.5-1-0.6
				c-0.4,0-0.8,0.2-0.9,0.6C62.7,109,63.1,109.1,63.1,108.9L63.1,108.9z"/>
		</g>
	</g>
	<g>
		<g>
			<path class="st24" d="M50.7,104.2c0.6,1.9,1.9,3.5,3.1,5c1.4,1.6,2.9,3.2,4.6,4.5c1.7,1.3,3.5,2.3,5.4,3.3
				c1.5,0.7,3.1,1.7,4.8,1.6c0.2,0,0.2-0.4,0-0.3c-1.7,0.1-3.3-0.9-4.8-1.7c-1.8-0.9-3.5-1.9-5.2-3.2c-1.6-1.2-3-2.6-4.3-4.1
				c-1.3-1.6-2.7-3.2-3.3-5.2C51,103.9,50.7,104,50.7,104.2L50.7,104.2z"/>
		</g>
	</g>
	<g>
		<g>
			<path class="st24" d="M72.1,37.2c-0.1,0.1-0.1,0.1-0.2,0.2c0,0.1-0.1,0.1-0.1,0.2c0.1,0,0.2,0.1,0.3,0.1c0-0.1,0-0.2,0.1-0.3
				c0,0,0-0.1,0-0.1C72.2,37.2,72.1,37.2,72.1,37.2C72.1,37.1,72,37.1,72.1,37.2c-0.1,0-0.2,0-0.2,0c0,0.1-0.1,0.1-0.1,0.2
				c0,0.1,0,0.2,0,0.2c0,0,0,0.1,0.1,0.1c0,0,0.1,0,0.1,0c0,0,0.1,0,0.1-0.1c0,0,0-0.1,0-0.1c0,0,0,0,0,0c0,0,0,0,0,0
				c0,0,0-0.1,0-0.1c0,0,0,0,0,0c0,0,0-0.1,0-0.1c0,0,0,0,0,0c0,0,0,0,0-0.1c-0.1,0-0.2-0.1-0.3-0.1c0,0.1,0,0.2-0.1,0.3
				c0,0,0,0.1,0,0.1c0,0,0.1,0.1,0.1,0.1c0,0,0.1,0,0.1,0c0,0,0,0,0,0c0,0,0,0,0-0.1c0,0,0,0,0,0c0,0,0,0,0,0c0-0.1,0.1-0.2,0.1-0.3
				c0,0,0,0,0,0c0,0,0.1-0.1,0.1-0.1c0,0,0-0.1,0-0.1c0,0,0-0.1,0-0.1c0,0-0.1-0.1-0.1,0C72.2,37.1,72.1,37.1,72.1,37.2L72.1,37.2z"
				/>
		</g>
	</g>
	<g>
		<g>
			<path class="st24" d="M74.8,48.2c0-0.2,0.1-0.3,0.1-0.5c0,0,0-0.1,0-0.1c0,0-0.1-0.1-0.1-0.1c0,0-0.1,0-0.1,0
				c0,0-0.1,0.1-0.1,0.1c0,0.2-0.1,0.3-0.1,0.5c0,0,0,0.1,0,0.1c0,0,0.1,0.1,0.1,0.1c0,0,0.1,0,0.1,0C74.8,48.2,74.8,48.2,74.8,48.2
				L74.8,48.2z"/>
		</g>
	</g>
	<g>
		<g>
			<path class="st24" d="M71.1,51.1c0.1,0.2,0.4,0.2,0.6,0.2c0.1,0,0.1-0.1,0.1-0.2c0-0.1-0.1-0.1-0.2-0.1c0,0,0,0,0,0c0,0,0,0,0,0
				c0,0-0.1,0-0.1,0c0,0,0,0,0,0c0,0-0.1,0-0.1,0c0,0,0,0,0,0c0,0-0.1,0-0.1-0.1c0,0,0,0,0,0c0,0,0,0-0.1-0.1c0,0-0.1,0-0.1,0
				c0,0-0.1,0-0.1,0c0,0-0.1,0.1,0,0.1C71.1,51,71.1,51.1,71.1,51.1L71.1,51.1z"/>
		</g>
	</g>
	<g>
		<path class="st25" d="M112,52.7c-3-6-7.9-10.1-13.9-13c-3.3-1.6-6.7-3-10.2-3.8C88,35.9,88,36,88.1,36c0.1,0.2,0.2,0.3,0.3,0.5
			c3.6,0.9,7.2,2.5,10.5,4.2c3,1.5,5.8,3.4,8.2,5.9c2.5,2.6,4.4,6,5.7,9.4c1.3,3.4,1.9,7.1,1.7,10.8c-0.3,3.8-1.9,7.2-4,10.3
			c-2.7,3.8-6.3,6.6-9.5,9.9c-0.3,0.3,0.2,0.8,0.5,0.5c2.4-2.4,5-4.5,7.3-7c2.2-2.4,4-5.1,5.2-8.1C116.4,65.9,115,58.6,112,52.7z"/>
		<path class="st25" d="M69,38.9c-0.5,0.3-1.1,0.5-1.6,0.8c-3.4,1.7-6.8,3.7-9.4,6.5c-0.3,0.3,0.2,0.8,0.5,0.5
			c2.4-2.6,5.4-4.4,8.5-6c0.7-0.3,1.3-0.7,2-1v-0.1c0-0.2,0-0.3,0.1-0.5C69.1,39,69,38.9,69,38.9z"/>
		<path class="st25" d="M83.4,35.8c0.1-0.1,0.1-0.1,0.2-0.2c0,0,0.1-0.1,0.1-0.1c0-0.1,0-0.2,0.1-0.3c-1.8-0.1-3.5,0-5.3,0.3
			c-2.4,0.4-4.6,1.3-6.8,2.2c0,0.2-0.1,0.4-0.2,0.5c0,0,0,0,0,0c0,0,0,0,0,0.1c0.1,0,0.1,0.1,0.1,0.1c0,0,0,0,0,0
			c1.9-0.8,3.8-1.6,5.8-2.1C79.3,35.8,81.4,35.7,83.4,35.8C83.4,35.8,83.4,35.8,83.4,35.8z"/>
	</g>
	<g>
		<path class="st24" d="M96.5,91.3c0.2-0.4-0.5-0.6-0.6-0.2c-1.4,3.4-2.1,6.6-1.5,10.3c0.5,3.5,1.9,7,1.1,10.5
			c-1.1,5-6.7,6.7-11.1,7.5c-6.4,1.2-13.2,1.6-19.6,0.7c-1.9-0.3-3.8-0.7-5.8-1c-1.9-0.3-3.9-0.7-5.6-1.7c-2.9-1.6-5-4.7-6.6-7.5
			c-0.4-0.8-0.8-1.6-1.2-2.5c0,0,0,0-0.1,0c0,0,0,0,0,0c-0.1,0.1-0.2,0.2-0.4,0.4c1.3,3.3,3.2,6.4,6,8.8c2.6,2.3,5.8,2.8,9.1,3.4
			c3.9,0.6,7.6,1.3,11.5,1.3c5.3,0,11-0.5,16.1-2c3.9-1.2,7.5-3.5,8.3-7.8c0.6-3-0.4-6.1-1-9c-0.4-1.9-0.6-3.7-0.4-5.6
			C95.1,94.9,95.7,93.1,96.5,91.3z"/>
	</g>
	<g>
		<path class="st24" d="M100.8,76.6c-0.2,5,6,7.7,10.2,7.9c0-0.2,0-0.4,0-0.6c-2.2-0.1-4.3-1.4-6.1-2.6c-2.1-1.4-2.5-3.3-3.3-5.5
			c-0.1-0.3-0.5-0.3-0.6,0c-1.6,6.2,5.3,7.5,9.6,9.1c0.4,0.1,0.6-0.5,0.2-0.6c-4-1.5-10.7-2.5-9.2-8.3c-0.2,0-0.4,0-0.6,0
			c0.9,2.3,1.3,4.3,3.4,5.7c1.9,1.4,4.2,2.8,6.6,2.9c0.4,0,0.4-0.6,0-0.6c-3.9-0.2-9.7-2.7-9.5-7.3
			C101.4,76.2,100.8,76.2,100.8,76.6L100.8,76.6z"/>
	</g>
	<g>
		<path class="st24" d="M78.9,76.4c0.3-0.2,0.7-0.2,1-0.2c0,0,0,0,0,0c-7.2-0.8-12.8-6.8-12.8-14.2c0-7.9,6.4-14.3,14.3-14.3
			c0.1,0,0.1,0,0.2,0c-0.1-0.1-0.2-0.1-0.3-0.2c-0.1,0-0.1,0-0.2,0c-0.3,0-0.5-0.1-0.6-0.2c-7.7,0.5-13.7,6.9-13.7,14.6
			C66.8,69.2,72,75.2,78.9,76.4C78.9,76.5,78.9,76.4,78.9,76.4z"/>
		<path class="st24" d="M87,48.5c0.1,0.1,0.2,0.1,0.3,0.2c0.3,0.2,0.5,0.4,0.7,0.7c4.6,2.4,7.7,7.2,7.7,12.7
			c0,7.2-5.4,13.2-12.4,14.2c0,0,0,0,0,0c-0.1,0.1-0.2,0.3-0.3,0.4c7.3-0.8,13.1-7,13.1-14.6C96.1,55.9,92.4,50.7,87,48.5z"/>
	</g>
	<path class="st24" d="M73.8,65.3c1.9,0,3.5-1.6,3.5-3.5c0-1.9-1.6-3.5-3.5-3.5c-1.9,0-3.5,1.6-3.5,3.5
		C70.4,63.8,71.9,65.3,73.8,65.3z M72.4,59.6c0.5,0,1,0.4,1,1c0,0.5-0.4,1-1,1c-0.5,0-1-0.4-1-1C71.5,60.1,71.9,59.6,72.4,59.6z"/>
	<g>
		<path class="st24" d="M94.2,79.8c0.1,0.1,0.2,0.1,0.2,0.2c0.1-0.1,0.1-0.2,0.2-0.3c-0.5-0.2-0.9-0.5-1.5-0.6
			c-0.7-0.1-1.3-0.2-2-0.2c-1,0-2.3,0.1-3,1c-0.8,1.1-0.3,2.5,0.4,3.6c1,1.5,3,2.2,4.4,3.1c1.6,1,2.1,2.7,3.1,4.1
			c0.8,1.1,1.9,1.5,3.1,1c3.1-1.1,1.4-5.7,0.5-7.7c-0.1-0.2-0.4,0-0.3,0.2c1,2.2,2.7,7.3-1.4,7.5c-1.4,0-2.1-1.7-2.6-2.7
			c-0.5-0.9-1-1.7-1.8-2.3c-1.1-0.8-2.4-1.4-3.5-2.2c-1.2-0.8-2.6-2.7-1.8-4.3c0.6-1.1,2.3-1,3.3-1c0.6,0,1.3,0.1,1.9,0.3
			c0.4,0.1,0.6,0.4,1,0.5c0.2,0,0.3-0.2,0.2-0.3c-0.1-0.1-0.2-0.1-0.3-0.2C94.2,79.4,94.1,79.7,94.2,79.8L94.2,79.8z"/>
	</g>
	<g>
		<path class="st24" d="M95.4,89.7c-0.6,1.3-1.6,2.6-2.8,3.4c-0.8,0.5-1.8,0.5-2.5-0.2c-0.6-0.6-0.8-1.8,0-2.4
			c0.2-0.1,0-0.4-0.2-0.3c-1.6,1.1-0.3,3.3,1.2,3.6c1.9,0.4,3.9-2.4,4.5-3.9C95.7,89.7,95.4,89.5,95.4,89.7L95.4,89.7z"/>
	</g>
	<path class="st24" d="M100.8,84.9c0.9-0.9,0.3-3.1-1.4-4.7c-1.7-1.7-3.8-2.3-4.7-1.4c-0.9,0.9-0.3,3.1,1.4,4.7
		C97.8,85.2,99.9,85.8,100.8,84.9z"/>
	<g>
		<path class="st24" d="M93.2,86.7c-1.5,1.3-2.6,3.3-4.6,3.9c-0.7,0.2-1.3-0.2-1.7-0.7c-0.6-0.8-0.4-1.7,0.1-2.5
			c0.7-1.2,1.9-2.1,3-2.7c0.2-0.1,0-0.4-0.2-0.3c-2,1.1-5.5,4.4-2.5,6.4c2.1,1.3,4.7-2.8,6-3.9C93.6,86.8,93.4,86.6,93.2,86.7
			L93.2,86.7z"/>
	</g>
	<g>
		<path class="st24" d="M83.6,35.2c0,0.1,0,0.2,0.1,0.2c0.1-0.2,0.2-0.3,0.3-0.4c0.1-0.1,0.2-0.2,0.3-0.2c-0.1-2-1.9-3.9-3.5-5
			c-1.6-1.1-3.6-1.3-5.4-0.9c-4.1,1-5.1,5.2-3.4,8.7c0.2,0.4,0.7,0,0.6-0.3c-1.5-3.1-0.7-6.5,2.8-7.7c1.5-0.5,3.2-0.2,4.6,0.5
			C81.7,31,83.8,33.2,83.6,35.2z"/>
	</g>
	<path class="st24" d="M78.9,35.8c0.7-0.6,0.8-1.7,0.2-2.4c-0.6-0.7-1.7-0.8-2.4-0.2c-0.7,0.6-0.8,1.7-0.2,2.4
		C77,36.3,78.1,36.4,78.9,35.8z"/>
	<g>
		<path class="st24" d="M111,51c2.1-0.9,5.1-1.2,6.4,0.9c1.5,2.3,0,6.6-3.2,6c-0.4-0.1-0.6,0.5-0.2,0.6c3.5,0.7,5.2-3.4,4.2-6.2
			c-1.1-3.2-5.1-2.9-7.6-1.9C110.3,50.6,110.6,51.2,111,51L111,51z"/>
	</g>
	<path class="st24" d="M114.7,54.4c0-0.7-0.5-1.2-1.2-1.2c-0.7,0-1.2,0.5-1.2,1.2c0,0.7,0.5,1.2,1.2,1.2
		C114.1,55.6,114.7,55.1,114.7,54.4z"/>
	<g>
		<path class="st24" d="M56.5,119.3c1.2,1.3,2.3,2.8,3.8,3.8c1,0.7,2.5,1.6,3.8,1.1c1.8-0.7-0.5-3.7-1.2-4.4
			c-0.2-0.1-0.4,0.1-0.2,0.2c1,0.9,3.1,4.4,0.2,3.9c-2.6-0.4-4.4-3.1-6.1-4.9C56.5,119,56.3,119.2,56.5,119.3L56.5,119.3z"/>
	</g>
	<g>
		<path class="st24" d="M93.1,116.6c1,1.3,1.6,2.8,3.4,3.2c0.1,0,0.1,0,0.2-0.1c0.8-1,0.7-2.2,0.4-3.3c-0.3-1.3-1.4-2.8-1.2-4.2
			c0-0.2-0.3-0.2-0.3,0c-0.2,1.5,1,3.2,1.3,4.6c0.2,0.6,0.2,1.3,0.1,1.9c-0.2,1.1-1,0.8-1.6,0.2c-0.8-0.6-1.2-1.7-1.9-2.5
			C93.2,116.3,93,116.5,93.1,116.6L93.1,116.6z"/>
	</g>
	<g>
		<path class="st24" d="M103,86.3c0.8,0.1,1.3,1.2,1.6,1.8c0.5,0.8,0.8,1.8,0.4,2.8c-0.5,1-1.8,0.1-2.3-0.4c-0.8-0.8-0.9-2-1.4-3
			c-0.1-0.2-0.4,0-0.3,0.2c0.7,1.2,0.8,2.7,2,3.5c0.6,0.4,1.6,0.8,2.1,0c0.6-1,0.3-2.1-0.2-3c-0.4-0.8-1.1-2-2-2.1
			C102.8,86,102.8,86.3,103,86.3L103,86.3z"/>
	</g>
	<g>
		<path class="st24" d="M103.2,88.2c0.7,0.8,1.1,1.8,1.1,2.9c0,0.2,0.3,0.2,0.3,0c0-1.2-0.4-2.3-1.2-3.1
			C103.3,87.8,103.1,88,103.2,88.2L103.2,88.2z"/>
	</g>
	<g>
		<path class="st24" d="M95.5,117.2c0.4,0.5,0.8,1.6,0.4,2.2c-0.1,0.2,0.2,0.3,0.3,0.2c0.4-0.8,0-1.9-0.4-2.6
			C95.6,116.9,95.3,117,95.5,117.2L95.5,117.2z"/>
	</g>
	<g>
		<path class="st24" d="M62,122c0.7,0.6,1.3,1.3,1.5,2.2c0,0.2,0.4,0.1,0.3-0.1c-0.2-1-0.8-1.7-1.5-2.3
			C62.1,121.7,61.8,121.9,62,122L62,122z"/>
	</g>
	<g>
		<path class="st24" d="M101.7,77.2C101.7,77.2,101.6,77.2,101.7,77.2c-0.1-0.1-0.2-0.1-0.3,0c-0.2,0.3,0,0.9,0.1,1.1
			c0.3,1.1,1,1.9,1.7,2.8c0.1-0.1,0.2-0.1,0.3-0.2c-0.7-0.9-1.1-1.9-1.5-3c-0.1,0-0.2,0.1-0.3,0.1c0.5,1.2,0.9,3,2.3,3.5
			c0.1,0,0.2-0.1,0.2-0.2c-0.2-0.6-0.5-1-0.9-1.4c-0.6-0.7-1-1.4-1.6-2.1c-0.1-0.1-0.3,0-0.3,0.2c0.5,1.4,1.5,2.7,2.7,3.6
			c0.2,0.1,0.4-0.1,0.2-0.2c-1.1-0.9-2.1-2.1-2.6-3.5c-0.1,0.1-0.2,0.1-0.3,0.2c0.4,0.5,0.7,1.1,1.1,1.6c0.5,0.6,1.1,1.1,1.2,1.8
			c0.1-0.1,0.1-0.1,0.2-0.2c-1.2-0.4-1.6-2.3-2.1-3.3c-0.1-0.2-0.4,0-0.3,0.1c0.4,1.1,0.8,2.2,1.6,3.1c0.1,0.1,0.4,0,0.3-0.2
			c-0.4-0.6-0.9-1.1-1.2-1.8c-0.2-0.4-0.4-0.8-0.5-1.2c0-0.1,0-0.1,0-0.2c0,0,0-0.1,0-0.1c0.1-0.2,0-0.3-0.2-0.2
			C101.7,77.7,101.8,77.4,101.7,77.2L101.7,77.2z"/>
	</g>
	<g>
		<path class="st24" d="M103.1,85.9c-0.1,0-0.3-0.1-0.5-0.1c-0.2,0-0.2,0.3,0,0.3c0.1,0,0.3,0,0.4,0.1
			C103.2,86.3,103.3,86,103.1,85.9L103.1,85.9z"/>
	</g>
	<g>
		<path class="st24" d="M104.4,91.4C104.4,91.4,104.4,91.4,104.4,91.4c0.2,0.2,0.4,0,0.3-0.2c0,0,0,0,0,0
			C104.5,91,104.2,91.2,104.4,91.4L104.4,91.4z"/>
	</g>
	<g>
		<path class="st24" d="M96.2,91.3c0-0.1,0.1-0.2,0.2-0.3c-0.1-0.1-0.2-0.1-0.3-0.2C96,91,96,91.1,95.9,91.2
			C95.9,91.4,96.1,91.5,96.2,91.3c0.1-0.1,0.2-0.3,0.2-0.4c0.1-0.2-0.2-0.3-0.3-0.1c-0.1,0.2-0.2,0.3-0.3,0.5
			C95.9,91.3,96.1,91.3,96.2,91.3c0-0.1,0.1-0.2,0.1-0.3c0.1-0.2-0.2-0.3-0.3-0.2c-0.1,0.1-0.1,0.3-0.2,0.4
			C95.8,91.5,96.1,91.5,96.2,91.3c0-0.1,0.1-0.2,0.1-0.3c-0.1-0.1-0.2-0.1-0.3-0.2c-0.1,0.1-0.1,0.3-0.2,0.5
			C95.8,91.5,96.1,91.6,96.2,91.3c0,0,0.1-0.2,0.1-0.3c0.1-0.2-0.2-0.3-0.3-0.2c-0.1,0.1-0.1,0.3-0.2,0.4
			C95.8,91.5,96.1,91.5,96.2,91.3c0-0.1,0.1-0.2,0.1-0.3c0.1-0.2-0.2-0.3-0.3-0.2c-0.1,0.1-0.1,0.3-0.2,0.4
			C95.8,91.5,96.1,91.5,96.2,91.3c0-0.1,0.1-0.2,0.2-0.4c-0.1,0-0.2-0.1-0.3-0.1c0,0.1-0.1,0.3-0.1,0.4C96,91.2,96.1,91.3,96.2,91.3
			c0.1-0.1,0.1-0.2,0.2-0.3c0.1-0.2-0.1-0.3-0.3-0.2C96,90.9,96,91,95.9,91.1C95.8,91.3,96.1,91.5,96.2,91.3L96.2,91.3z"/>
	</g>
	<g>
		<path class="st24" d="M101.2,87.3C101.2,87.2,101.2,87.3,101.2,87.3c-0.1-0.1-0.2-0.2-0.2-0.2c0,0,0,0,0,0c0,0,0,0,0,0
			c0,0-0.1,0.1-0.1,0.1c0,0.1-0.1,0.1-0.2,0.2c-0.1,0.1,0,0.3,0.2,0.3c0.2-0.1,0.3-0.2,0.5-0.4c-0.1-0.1-0.1-0.2-0.2-0.3
			c-0.2,0.2-0.3,0.4-0.5,0.5c-0.1,0.1,0.1,0.4,0.2,0.2c0.1-0.1,0.3-0.2,0.4-0.4c0.1-0.2-0.1-0.3-0.3-0.2c-0.1,0.1-0.2,0.3-0.4,0.4
			c-0.1,0.1,0.1,0.4,0.2,0.2c0.1-0.1,0.2-0.2,0.2-0.4c-0.1,0-0.2-0.1-0.3-0.1c0,0.1,0,0,0,0c-0.2,0.1-0.1,0.4,0.1,0.3
			c0.1,0,0.2-0.1,0.2-0.2c0-0.2-0.2-0.3-0.3-0.1c0,0.1-0.1,0.2-0.2,0.2c0.1,0.1,0.2,0.2,0.2,0.2c0.1-0.1,0.2-0.3,0.4-0.4
			c-0.1-0.1-0.2-0.1-0.3-0.2c-0.1,0.1-0.2,0.2-0.3,0.3c0.1,0.1,0.2,0.2,0.2,0.2c0.2-0.2,0.3-0.4,0.5-0.5c0.1-0.1,0-0.4-0.2-0.3
			c-0.2,0.1-0.3,0.3-0.5,0.4c0.1,0.1,0.1,0.2,0.2,0.3c0.1-0.1,0.1-0.1,0.2-0.2C101.1,87.3,101.2,87.3,101.2,87.3
			c0.1-0.2,0.1-0.3-0.1-0.3c-0.1,0-0.1,0-0.2,0.1C100.8,87.2,101,87.4,101.2,87.3L101.2,87.3z"/>
	</g>
	<g>
		<g>
			<path class="st24" d="M58.2,46c-1.2,0.9-2.3,2-3.2,3.2c-0.1,0.1,0,0.4,0.1,0.5c0.2,0.1,0.4,0,0.5-0.1c0.8-1.1,1.8-2.1,2.9-3
				c0.1-0.1,0.2-0.3,0.1-0.5C58.6,46,58.4,45.9,58.2,46L58.2,46z"/>
		</g>
	</g>
	<g>
		<g>
			<path class="st24" d="M24.2,49.8c-2.4-0.5-3,2.7-3.5,4.3c-0.3,1-0.8,2.1-0.4,3.2c0.2,0.7,0.8,1.3,1.5,1.6
				c1.6,0.7,3.3,0.2,4.4-1.1c0.6-0.7,1-1.5,1.4-2.3c0.4-0.9,0.7-1.9,0.6-2.9c-0.1-1-0.6-1.9-1.5-2.4c-0.9-0.4-2-0.4-3-0.4
				c-0.4,0-0.4,0.7,0,0.7c1.3-0.1,3.3-0.1,3.7,1.5c0.2,0.8,0,1.6-0.2,2.4c-0.2,0.7-0.5,1.5-0.9,2.1c-0.7,1.2-2,2.2-3.5,1.9
				c-0.6-0.1-1.2-0.4-1.5-0.8c-0.5-0.7-0.4-1.5-0.2-2.3c0.3-1,0.6-2,1-3c0.3-0.9,0.9-2.1,2-1.8C24.4,50.6,24.6,49.9,24.2,49.8
				L24.2,49.8z"/>
		</g>
	</g>
	<g>
		<g>
			<path class="st24" d="M36.2,57.5c1-0.1,1.6-0.8,1.9-1.7c0.3-0.7,0.4-1.8-0.1-2.4c-0.5-0.8-1.7-0.8-2.4-0.3
				c-0.7,0.6-1.1,1.5-1.2,2.4c0,0.5,0.1,1,0.4,1.4C35.2,57.3,35.7,57.5,36.2,57.5c0.4,0,0.4-0.7,0-0.7c-0.2,0-0.3,0-0.5-0.1
				c-0.1,0,0,0,0,0c0,0,0,0-0.1,0c0,0-0.1,0-0.1-0.1c0,0-0.1,0,0,0c0,0,0,0,0,0c0,0-0.1-0.1-0.1-0.1c0,0,0,0,0,0c0,0,0,0,0,0
				c0,0,0-0.1-0.1-0.1c0,0,0-0.1-0.1-0.1c0,0.1,0,0,0-0.1c-0.1-0.2-0.1-0.3-0.1-0.5c0-0.4,0-0.7,0.2-1.1c0.1-0.3,0.3-0.6,0.5-0.9
				c0.1-0.1,0.2-0.2,0.4-0.3c0.1,0,0.3-0.1,0.4-0.1c0.1,0,0.2,0,0.3,0c0.1,0,0,0,0,0c0,0,0,0,0.1,0c0,0,0.1,0,0.1,0
				c0.1,0,0.2,0.1,0.3,0.2c0,0,0.1,0.1,0.1,0.1c0,0,0,0,0,0c0,0,0,0,0,0c0,0,0,0.1,0.1,0.1c0,0,0.1,0.1,0,0.1c0,0,0,0.1,0,0.1
				c0,0,0,0.1,0,0.1c0,0,0,0.1,0,0.1c0,0,0,0,0,0.1c0,0.1,0,0,0,0c0,0.2,0,0.4,0,0.5c0,0.1,0,0.3-0.1,0.5c-0.1,0.4-0.3,0.7-0.5,1
				c-0.2,0.2-0.2,0.2-0.4,0.3c0,0-0.1,0-0.1,0.1c0.1,0-0.1,0-0.1,0c0,0-0.1,0-0.1,0c0,0,0,0-0.1,0c0.1,0,0,0,0,0
				C35.8,56.8,35.8,57.5,36.2,57.5z"/>
		</g>
	</g>
	<path class="st26" d="M92.2,61.8c0-8-6.5-14.5-14.5-14.5c-8,0-14.5,6.5-14.5,14.5c0,8,6.5,14.5,14.5,14.5
		C85.8,76.3,92.2,69.8,92.2,61.8z"/>
	<path class="st26" d="M93.6,61.4c0-8.9-7.2-16-16-16c-8.9,0-16,7.2-16,16c0,8.9,7.2,16,16,16C86.5,77.5,93.6,70.3,93.6,61.4z"/>
</g>
</svg>
