<?xml version="1.0" encoding="utf-8"?>
<!-- Generator: Adobe Illustrator 24.0.1, SVG Export Plug-In . SVG Version: 6.00 Build 0)  -->
<svg version="1.1" id="Layer_1" xmlns="http://www.w3.org/2000/svg" xmlns:xlink="http://www.w3.org/1999/xlink" x="0px" y="0px"
	 viewBox="0 0 141.7 141.7" style="enable-background:new 0 0 141.7 141.7;" xml:space="preserve">
<style type="text/css">
	.st0{fill:#DBB075;}
	.st1{fill:#A6835A;}
	.st2{fill:#71583F;}
	.st3{fill:#735A41;}
	.st4{fill:url(#SVGID_1_);}
	.st5{fill:url(#SVGID_2_);}
	.st6{fill:url(#SVGID_3_);}
	.st7{fill:#75CEEB;}
	.st8{fill:#FFFFFF;}
	.st9{fill:#C9B09D;}
	.st10{fill:#475588;}
	.st11{fill:#F6E37D;}
	.st12{fill:#070707;}
	.st13{fill:none;stroke:#070707;stroke-width:0.4102;stroke-miterlimit:10;}
	.st14{fill:#010101;}
	.st15{font-family:'MyriadPro-Regular';}
	.st16{font-size:13.4271px;}
	.st17{font-size:13.427px;}
	.st18{font-size:5.4482px;}
	.st19{font-size:7.551px;}
</style>
<path class="st0" d="M31.3,26.4c-1.9-1.7-3.3-3.3-4.3-4.5c-0.5-0.7-4.1-5-3.2-6.2c0.1-0.1,0.4-0.4,0.8-0.7c0.4-0.3,0.8-0.5,1.1-0.6
	c1.3-0.8,3.3-2,5.8-3.2c4.9-2.3,9.1-3.2,12.9-4c1.7-0.4,4.2-0.9,8.6-1.5C58.2,5,64,4.1,71.1,4.2c5,0,10.2,0.7,21.3,2.3
	c0,0,24,5.6,26.3,9.8c0,0,0.8,2.2-1.8,5l-5.1,5.4c0,0-13.1-8-35.5-7.7l-16.6,0.1l-3.1,0.3L54.2,20l-3.6,0.4l-6.2,1l-6.7,2L31.3,26.4
	z"/>
<path class="st1" d="M16.3,31.7c0,0,4.1-7,9.4-11.7l3.7,4.5l1.9,1.8l1,0.7l2.2,0.1l1.7-0.1l1,0.2l0.3,0.8l-0.8,0.2H34l-2.7,0.5
	l-2.5,0.7l-3.6,1.6L21,33.9l-5.1,4.2l1.4-2.3l2.2-3l1.2-2.4l0.2-1.3h-1L16.3,31.7z"/>
<path class="st1" d="M105.8,27.9l3.2,0l2.4-1l1.8-1.5l1.8-2l2.7-2.5l1.8,2.5l3,4.5c0.4,0.6,0.7,1.2,1.1,1.9c-0.5-0.2-1-0.4-1.6-0.7
	c-0.1,0.1-0.2,0.3-0.2,0.4c0.1,0.4,0.3,0.9,0.4,1.3c1,2,2,4,3,6v1.1l-3.2-3.1c-1.4-0.9-2.8-1.8-4.2-2.7c-1.2-0.5-2.4-1-3.5-1.5
	l-3.8-1.2l-3.3-0.8L105.8,27.9z"/>
<polygon class="st2" points="105.8,27.9 105.5,26.7 107.1,24.6 109,25.2 111.8,26.7 110.6,27.2 109,27.9 "/>
<polygon class="st3" points="31.3,26.4 34.6,24.7 35.9,24.1 37.4,25.9 37.3,27.3 35.4,27 33.2,27.3 "/>
<path class="st0" d="M11.4,81c0,0,1.1,8.8,3.8,13.2l4.6,7l5.5,5.7l6.2,4.8l5,4l1.8,1.9l0.4,1.5l5.2-2.7l3.2-1.9L36,107.3l-5.4-4.9
	l-3.8-4.5l-2.6-3.7l-2.2-3.6l-1.8-3.7l-1.2-4.4L19,79.2c0,0-4.4,5.9-3.9,6.9L11.4,81z"/>
<polygon class="st0" points="123.3,78.6 122.6,82.5 121.6,86.6 118.4,93.6 114.5,99.2 110.4,103.4 105.3,107.7 102.1,110 
	98.3,112.4 96.5,113.5 95.9,114.5 96.5,115.6 102.1,118.6 102.6,118.8 103.1,117.6 104.9,116 108.1,113.5 112.3,110.6 115.8,107.9 
	119.5,104.4 123.3,100.1 126.3,95 129,89.9 130.5,85.1 131,80 129.3,83.4 126.9,86.3 124.9,81.1 "/>
<polygon class="st2" points="105.7,115.3 103.9,116.7 102.7,118.2 102.5,119.3 103.9,119.9 106,119.5 108.1,118.6 109.5,118.3 
	109,117.4 107.7,116.1 "/>
<polygon class="st2" points="32.2,118.4 33.6,117.4 35.6,115.4 36.8,116.1 38.5,118.4 38.7,119.1 37.7,119.8 36.7,119.9 34.6,119.2 
	"/>
<path class="st1" d="M42.2,117.6l5,3.6l8.3,3.8l4.4,1.3l6,1c0,0,12.5,1.8,22.5-2.9l8.5-4.5l3.4-2.3l1.9,1l0.4,0.7l0.7,0.6l1.3,0.1
	l2.2-0.8l1.5-0.7l1.3-0.3l0.5,1l-0.5,0.7l-1.3,1.8c0,0-6,9.1-19.6,12.9c0,0-11.3,2.7-14.9,2.1c0,0-15.3,0.1-25.6-5l-8.5-4.9l-5-4
	l-1.8-2.4l-1.3-1.7l1.2-0.5l3,1.2l2.1,0.3L42.2,117.6z"/>
<linearGradient id="SVGID_1_" gradientUnits="userSpaceOnUse" x1="72.1525" y1="70.6245" x2="72.1525" y2="34.2126">
	<stop  offset="0" style="stop-color:#D99528"/>
	<stop  offset="1" style="stop-color:#FFD190"/>
</linearGradient>
<path class="st4" d="M46.4,70.6l2.6-1l0.6-2.1l1.9-5l0.8-5.1l-0.4-6.1l-1.7-6.1l-2.5-3.8l-2.6-1.9l1.8-2.7l1.8-2.1l1.4-0.4l2.6,2
	l5.4,4.9l4.3,2l5,1.2l1.7,0.9l1.9,1.5l0.9-0.8l1.8-1.5l2.2-1.1l2.3-0.7l2.8-0.7l2.4-0.7l2.3-1.2l2.3-1.9l1.7-2.3l1.5-0.7l1.9,0.5
	l1.6,1.6l1.7,1.8l1.7,0.8l0.9,0.6l0.1,0.6l-1.3,1.4l-1.9,1.7L94,46.2l-1.2,3.1l-0.9,5.3l-0.3,5.5l0.9,5.2l1.7,4.8l-5.1-1.1l-3.9-1.8
	c0,0-8.2-8.3-9-12.1l-2-3.8l-1.5-2.7l-0.6,0.8l-0.9,1.3l-0.9,1.5l-1.7,0.6l-4.2,0.8l-2,0.7l-1,0.9l-0.5,1l0.2,1.3L58.4,58l-1.8,1.2
	l-1.5,1.5L54,62.8l-0.6,1.7l-1.6,2.8l-1.7,1.7L46.4,70.6z"/>
<linearGradient id="SVGID_2_" gradientUnits="userSpaceOnUse" x1="41.7924" y1="96.3203" x2="41.7924" y2="82.5476">
	<stop  offset="0" style="stop-color:#FFD190"/>
	<stop  offset="9.363312e-02" style="stop-color:#F7C882"/>
	<stop  offset="0.3903" style="stop-color:#E9B15B"/>
	<stop  offset="0.651" style="stop-color:#E0A13C"/>
	<stop  offset="0.8631" style="stop-color:#DB982C"/>
	<stop  offset="1" style="stop-color:#D99528"/>
</linearGradient>
<polygon class="st5" points="39.2,82.5 36.7,84.8 34.6,86.1 36.7,88.8 40.7,94 43.1,96.3 44.4,95.7 43.5,94.6 43.3,93.6 44,93 
	44.4,92.3 45.2,91.9 46.8,92.6 48.2,93.9 48.5,94.2 49,84.2 "/>
<linearGradient id="SVGID_3_" gradientUnits="userSpaceOnUse" x1="101.0288" y1="96.981" x2="101.0288" y2="81.4999">
	<stop  offset="0" style="stop-color:#FFD190"/>
	<stop  offset="9.363312e-02" style="stop-color:#F7C882"/>
	<stop  offset="0.3903" style="stop-color:#E9B15B"/>
	<stop  offset="0.651" style="stop-color:#E0A13C"/>
	<stop  offset="0.8631" style="stop-color:#DB982C"/>
	<stop  offset="1" style="stop-color:#D99528"/>
</linearGradient>
<polygon class="st6" points="93.4,84.4 94,92.2 95.9,92.3 97.7,93.1 98.7,94.2 98.9,95.8 98.7,96.6 99.1,97 101.3,94.4 104,91.2 
	107.2,88 108.6,86.4 107.4,85.7 105.3,84.3 104,82.8 103.1,81.5 93.7,84.4 "/>
<polygon class="st1" points="48.8,97.9 48.7,97 47.6,97.1 45.8,96.8 44.6,95.9 44.2,95.5 43.1,96.3 39.9,93.1 37.1,89.2 34.6,86.1 
	37.5,84.3 39.6,82 37.3,81.5 35.7,82.8 33,84.7 30.6,86.2 35.2,91.2 38.9,95.4 42.3,99.4 43.4,98.2 45.1,97.4 47.4,97.5 "/>
<polygon class="st1" points="93.8,95.2 93.7,98.9 95.4,96.6 "/>
<polygon class="st1" points="95.9,97 99.6,100.1 103.1,96.2 106.1,92.6 109.3,89.2 112.3,86 104.3,80.5 103.1,81.5 104.5,83.4 
	106.3,85.1 108.3,86.2 108.4,86.9 106.6,88.7 103.9,91.6 100.7,95.5 99.4,97.2 98.7,96.6 98.2,97.2 97.1,97.2 "/>
<path class="st1" d="M94.2,70l-1.1-2.6l-0.9-3.6l-0.5-5.3l0.4-5.3l0.9-4.4l0.8-2.9l2.2-2l2.3-2.1l0.9-1.1l-0.5-0.9L96.8,39l-2.1-1.9
	l-1.3-1.5L92,35h-1l-1.2,1.1l-1.3,1.5l-2.2,2l-1.9,1.2l-2.1,0.9l-3.5,0.9l-2.8,0.9l-2.6,1.3L71,46.7l-1.9-1.5l-3.6-1.5l-4-0.9
	l-3.4-1.7l-3-2.7L52,35.5l-1.4-1.1H49l-1.8,2.1l-1.5,2.2l-0.5,0.8l2.6,2.3l2.8,4.6l1.4,4.6l0.4,3.8L52.2,58L51.5,63l-2.4,5.4l-0.5,1
	l-2.2,1.3l1.1-3l1.1-3.6l0.8-5.3l0-3.6l-0.9-5.5l-2.8-5.5l-3-2.7l-2.6-0.7h-1.1l2.6-1.7l1.9-2l1.4-2.1l1.4-2l1.3-1.6l1.3-0.9h1.8
	l1.8,1.5l2.8,2.7l4.2,2.9l3.6,2l3.1,1.1l2.7,1l1.6,1.3l0.7,0.6l1.2-0.3l1.2-1.4l1.3-1.1l3.5-0.9l3-1.2l2.9-1.7l2.6-2l1.8-1.5
	l1.4-1.4l1.3-1l1-0.2l1.4,0.7l1.8,2l2.3,2.7l3.7,3.6l2.8,2c0,0-1.5,0-1.7,0.1c-0.1,0.1-2.3,1-2.3,1l-2.1,1.8l-1.8,2.8l-1.2,3.1
	l-1.1,6c0,0,0.4,5.9,0.4,6.1c0,0.1,2.1,6.9,2.1,6.9l0.6,1.2l-2.1-0.6L94.2,70z"/>
<path class="st7" d="M48.8,97.9l-0.1-4.9l0.1-4.4l0.2-4.5L47.2,82L44,79.7c0,0,0.2-2.6,0.2-3c-0.1-0.5,1.7-3.6,1.7-3.6l3.4-1l5,0.3
	c0,0,3.2-1,3.2-1s7,1,7,1l9.8,0.8h7.7l7.5-0.8l6-0.6l2.8,5l-1.5,3.5l-3.4,2.4l-0.3,0.8l0.5,3.5l0.2,4.4l-0.1,8.1l-2.4,2.2l-3.5,2
	l-5.2,2l-3.8,1.4l-3.6,1.8l-1.5,1.1l-1.7,2.1l-0.9,2.3c0,0-0.6-5.5-5.2-7.1l-2.8-0.6l-3.2-0.4l-2.4-0.9l-2.4-1.7l-2.3-2.4l-2.2-2.2
	L48.8,97.9z"/>
<circle class="st8" cx="62.2" cy="79.3" r="6.9"/>
<circle class="st8" cx="80.6" cy="80.1" r="6.9"/>
<polygon class="st8" points="68.3,90.6 68,92.4 68.3,93.9 69.1,94.8 70.2,94.8 71.2,93.7 71.8,94.6 72.7,94.8 73.7,94.4 74,93.7 
	74.2,92.4 74,91.1 73.7,90.2 72.5,89.9 71.2,89.9 70.3,89.9 68.9,90.4 "/>
<polygon class="st9" points="68.6,85.7 67.1,86.3 65.8,87.7 65.2,88.6 65.3,89.5 66.4,90.3 67.5,90.6 68.9,90.4 70.3,89.9 
	71.5,89.8 72.9,90 74.5,90.4 75.8,90.4 76.7,89.9 76.7,88.4 76,87.1 74.9,86.3 73.7,85.7 72,86.3 70.3,86.3 "/>
<polygon class="st9" points="48.5,94.2 47.1,92.9 46.2,92.2 45.2,91.9 44.4,92.3 44.2,92.6 44,93 43.5,93.1 43.4,93.9 43.7,94.9 
	45.1,96.1 46.8,97 48.2,97 48.7,97 "/>
<polygon class="st9" points="94,92.2 94,95 95.4,96.6 97.1,97.2 98.2,97.2 98.7,96.6 99,95.5 98.7,94.2 97.9,93.4 96.7,92.6 
	95.4,92.2 "/>
<polygon class="st10" points="46.4,70.6 49.5,69.2 51.6,67.9 52.5,66.4 53.8,63.4 55.1,60.7 56.2,59.6 58.1,58.2 59.9,57.8 61,57.5 
	61,55.9 62.2,54.6 63.1,54 65.1,53.5 67.2,52.9 68.6,52.8 70.3,51.7 71.2,50.1 72.5,48.9 73.7,49.6 74.7,52.2 77.5,57.9 81,62.5 
	84.5,66.1 88.5,68.6 91.6,69.7 97.3,70.4 97.9,72 94.9,72 92.6,72 89.4,72.3 78.7,73 71,73 61.9,71.9 57,71.4 52.7,71.4 45.7,71.5 
	"/>
<path class="st11" d="M71.1,64.1c0.1-0.3,0.5-2.4,0.5-2.4l1.4,1.5l3-1.3l-1.3,2.8c0.7,0.6,1.3,1.2,2,1.7c-0.5-0.1-1.2-0.3-2.1-0.2
	c-0.6,0.1-1,0.2-1.4,0.4c-0.3,0.6-0.5,1.2-0.8,1.8c-0.1,0.1-0.2,0.1-0.3,0.2c-0.2-0.4-0.5-0.9-0.7-1.3c-0.1-0.3-0.3-0.8-0.7-1.1
	c-0.8-0.7-2.1-0.7-2.1-0.6c0,0,0.1,0.1,0.3,0.1c0.4,0,0.5-0.7,1-1.1C70.1,64.3,70.5,64.1,71.1,64.1z"/>
<path class="st11" d="M71.3,54.4c0.4-0.9,0.6-1.4,0.6-1.4s0.2,0.4,0.5,1.2c0.4,0.1,0.9,0.2,1.3,0.4c-0.3,0.3-0.5,0.7-0.8,1
	c0.1,0.5,0.2,0.9,0.2,1.4c-0.4-0.1-0.8-0.2-1.2-0.3c-0.4,0.1-0.9,0.3-1.3,0.4c0.1-0.5,0.2-1,0.4-1.4c-0.2-0.3-0.4-0.6-0.6-0.9
	C70.6,54.6,71,54.5,71.3,54.4z"/>
<path class="st11" d="M58.5,62.3l0.1-1.7l1.3,1.4l2-0.9l-0.7,2c0.4,0.5,0.8,0.9,1.2,1.4c-0.7,0-1.4-0.1-2.1-0.1l-1,1.9
	c-0.3-0.7-0.7-1.3-1-2c-0.4-0.2-0.9-0.5-1.3-0.7C57.5,63.2,58,62.8,58.5,62.3z"/>
<g>
	<g>
		<path class="st12" d="M56.7,71.3c-8.8,5.8-8.8,17.3-8.2,26.6c0,0.4,0.7,0.4,0.7,0c-0.5-9-0.6-20.4,7.9-26
			C57.4,71.6,57.1,71.1,56.7,71.3L56.7,71.3z"/>
	</g>
</g>
<g>
	<g>
		<path class="st12" d="M90.7,76c-0.8-1.4-1.8-2.7-3-3.7c-0.3-0.3-0.8,0.2-0.5,0.5c1.1,1,2.1,2.2,2.9,3.6
			C90.3,76.7,90.9,76.4,90.7,76L90.7,76z"/>
	</g>
</g>
<g>
	<g>
		<path class="st12" d="M49.5,81.7c-2.5-0.2-4.6-2.3-4.1-4.9c0.4-2.3,2.7-4,4.9-4.2c1.3-0.1,2.9-0.1,3.7,1c0.3,0.3,0.8-0.1,0.5-0.5
			c-0.9-1.1-2.3-1.2-3.7-1.2c-1.4,0-2.7,0.4-3.9,1.3c-2.2,1.6-3.2,4.7-1.5,7.1c0.9,1.3,2.4,2,4,2.1C49.9,82.4,49.9,81.7,49.5,81.7
			L49.5,81.7z"/>
	</g>
</g>
<g>
	<g>
		<path class="st12" d="M94.8,72.5c2.4,2.4,1.7,7.6-2,8.1c-0.4,0.1-0.2,0.7,0.2,0.7c3.3-0.5,4.6-4.2,3.6-7.1
			c-0.3-0.8-0.7-1.6-1.3-2.2C95,71.7,94.5,72.2,94.8,72.5L94.8,72.5z"/>
	</g>
</g>
<g>
	<g>
		<path class="st12" d="M68.1,86c0.1,0,0.1,0,0.1,0c0-0.1,0-0.2,0-0.3c-0.2,0.1-0.4,0.1-0.6,0.2c-0.3,0.1-0.7,0.4-1,0.7
			c-0.6,0.5-1.2,1.1-1.5,1.8c-0.7,1.8,1.7,2.7,3.1,2.5c1.1-0.1,2.1-0.6,3.2-0.7c1-0.1,1.8,0.3,2.7,0.5c0.7,0.2,1.4,0.3,2-0.1
			c0.6-0.4,0.9-1.3,0.8-2c-0.3-1.7-2.4-2.6-3.9-3.1c-0.2-0.1-0.3,0.3-0.1,0.3c1.2,0.4,2.8,1.1,3.4,2.3c0.4,0.7,0.3,1.7-0.4,2.2
			c-0.6,0.5-1.4,0.2-2.1,0c-0.6-0.2-1.3-0.4-1.9-0.4c-0.9,0-1.7,0.2-2.6,0.5c-1,0.3-2,0.5-2.9,0.1c-0.7-0.3-1.3-0.9-1.1-1.7
			c0.2-0.8,1-1.4,1.6-1.9c0.2-0.2,0.5-0.4,0.8-0.5c0.2-0.1,0.4-0.1,0.6-0.2c0.1-0.1,0.1-0.3,0-0.3c-0.1,0-0.2,0-0.3,0
			C67.8,85.7,67.9,86,68.1,86L68.1,86z"/>
	</g>
</g>
<g>
	<g>
		<path class="st12" d="M73.6,90.4c0.3,0.6,0.4,1.3,0.4,1.9c0,0.6,0,1.3-0.4,1.8c-0.4,0.4-1.1,0.7-1.6,0.4c-0.4-0.2-0.6-0.8-0.8-1.1
			c-0.1-0.2-0.4,0-0.3,0.2c0.2,0.4,0.3,0.8,0.6,1.1C72,95,72.5,95,73,94.9c0.5-0.1,0.9-0.5,1.2-0.9c0.2-0.5,0.3-1.1,0.3-1.7
			c0-0.7-0.1-1.4-0.4-2C73.9,90.1,73.6,90.2,73.6,90.4L73.6,90.4z"/>
	</g>
</g>
<g>
	<g>
		<g>
			<path class="st12" d="M93.9,92.4c0.2,0.2,0.6,0.1,0.9,0.1c0.4,0,0.7,0,1,0c1,0.2,1.9,0.7,2.5,1.5c0.5,0.6,0.7,1.5,0.5,2.3
				c-0.3,0.8-1.2,0.8-1.9,0.7c-1.1-0.3-1.8-1-2.6-1.8c-0.2-0.2-0.4,0.1-0.2,0.2c0.7,0.7,1.5,1.4,2.5,1.8c0.8,0.3,1.8,0.4,2.4-0.3
				c0.5-0.6,0.4-1.6,0.2-2.3c-0.4-0.9-1.2-1.6-2.1-2c-0.5-0.2-1.1-0.4-1.6-0.4c-0.2,0-0.5,0-0.7,0c-0.1,0-0.4,0-0.5,0
				C93.9,91.9,93.7,92.2,93.9,92.4L93.9,92.4z"/>
		</g>
	</g>
	<g>
		<g>
			<path class="st12" d="M96.8,95.3c0.7,0.2,1.7,0.9,1.2,1.8c-0.1,0.2,0.2,0.4,0.3,0.2c0.1-0.2,0.2-0.5,0.2-0.8
				c0-0.2-0.1-0.5-0.3-0.7c-0.3-0.4-0.8-0.7-1.3-0.8C96.7,94.9,96.6,95.3,96.8,95.3L96.8,95.3z"/>
		</g>
	</g>
</g>
<path class="st13" d="M87.6,80c0-3.9-3.1-7-7-7c-3.9,0-7,3.1-7,7c0,3.9,3.1,7,7,7C84.5,86.9,87.6,83.8,87.6,80z"/>
<path class="st13" d="M69.1,79.3c0-3.9-3.1-7-7-7c-3.9,0-7,3.1-7,7c0,3.9,3.1,7,7,7C66,86.3,69.1,83.2,69.1,79.3z"/>
<path class="st12" d="M93.1,75.8c0-0.8-0.7-1.5-1.5-1.5c-0.8,0-1.5,0.7-1.5,1.5c0,0.8,0.7,1.5,1.5,1.5
	C92.4,77.3,93.1,76.6,93.1,75.8z"/>
<path class="st12" d="M51.6,77.1c0-0.8-0.7-1.5-1.5-1.5c-0.8,0-1.5,0.7-1.5,1.5c0,0.8,0.7,1.5,1.5,1.5C51,78.6,51.6,77.9,51.6,77.1z
	"/>
<path class="st12" d="M74,85.1c0-1-1.4-1.7-3.1-1.7c-1.7,0-3.1,0.8-3.1,1.7c0,1,1.4,1.7,3.1,1.7C72.6,86.8,74,86.1,74,85.1z"/>
<path class="st12" d="M81,77.4c-1.3,0-2.3,1-2.3,2.3c0,1.3,1,2.3,2.3,2.3c1.3,0,2.3-1,2.3-2.3C83.3,78.4,82.2,77.4,81,77.4z
	 M81.9,81.1c-0.4,0-0.6-0.3-0.6-0.6c0-0.4,0.3-0.6,0.6-0.6c0.4,0,0.6,0.3,0.6,0.6C82.5,80.8,82.3,81.1,81.9,81.1z"/>
<path class="st12" d="M62.2,77c-1.3,0-2.3,1-2.3,2.3c0,1.3,1,2.3,2.3,2.3c1.3,0,2.3-1,2.3-2.3C64.4,78,63.4,77,62.2,77z M63.1,80.7
	c-0.4,0-0.6-0.3-0.6-0.6c0-0.4,0.3-0.6,0.6-0.6c0.4,0,0.6,0.3,0.6,0.6C63.7,80.5,63.4,80.7,63.1,80.7z"/>
<g>
	<g>
		<path class="st12" d="M71,89.9c0.1,0.4,0.1,0.9,0,1.3c0,0.5,0,1,0,1.5c-0.1,0.7-0.2,1.6-0.9,1.9c-0.6,0.3-1.3,0-1.6-0.5
			c-0.3-0.5-0.4-1.1-0.4-1.7c0-0.6,0.1-1.3,0.3-1.9c0.1-0.2-0.3-0.3-0.3-0.1c-0.2,0.6-0.3,1.3-0.3,1.9c0,0.7,0.1,1.4,0.4,2
			c0.4,0.6,1.1,0.9,1.7,0.7c0.8-0.2,1.1-1,1.3-1.6c0.1-0.6,0.1-1.3,0.1-1.9c0-0.5,0.1-1.1-0.1-1.6C71.3,89.6,71,89.7,71,89.9
			L71,89.9z"/>
	</g>
</g>
<g>
	<g>
		<g>
			<path class="st12" d="M48.3,96.8c-1.4,0.3-2.8-0.4-3.9-1.3c-0.4-0.3-0.8-0.7-0.9-1.2c-0.2-0.5,0-1,0.5-1.2c0.2-0.1,0-0.4-0.2-0.3
				c-0.4,0.2-0.7,0.6-0.8,1.1c0,0.4,0.2,0.9,0.5,1.2c0.7,0.9,1.7,1.6,2.8,1.9c0.7,0.2,1.4,0.3,2.1,0.2
				C48.7,97.1,48.6,96.8,48.3,96.8L48.3,96.8z"/>
		</g>
	</g>
	<g>
		<g>
			<path class="st12" d="M45.3,93.8c-0.4-0.2-0.8-0.5-0.9-0.9c-0.2-0.4,0.2-0.7,0.6-0.8c0.4-0.1,0.8,0,1.2,0.2
				c0.4,0.2,0.8,0.5,1.2,0.9c0.4,0.3,0.7,0.7,1,1.1c0.1,0.2,0.4,0,0.3-0.2c-0.3-0.4-0.6-0.8-1-1.1c-0.4-0.4-0.9-0.8-1.4-1
				c-0.4-0.2-0.9-0.3-1.4-0.2c-0.5,0.2-0.9,0.5-0.8,1.1c0.1,0.5,0.6,1,1.1,1.2C45.3,94.2,45.5,93.9,45.3,93.8L45.3,93.8z"/>
		</g>
	</g>
</g>
<g>
	<g>
		<path class="st12" d="M89.7,75.5c4.4,7,3.6,15.5,3.7,23.4c0,0.4,0.7,0.4,0.7,0c0-8,0.7-16.6-3.7-23.7
			C90.1,74.8,89.5,75.2,89.7,75.5L89.7,75.5z"/>
	</g>
</g>
<g>
	<g>
		<path class="st12" d="M104.2,80.4c-3,2.6-7,3.5-10.8,3.7c-0.4,0-0.4,0.7,0,0.7c4.1-0.2,8.2-1.2,11.3-3.9
			C105,80.6,104.6,80.1,104.2,80.4L104.2,80.4z"/>
	</g>
</g>
<g>
	<g>
		<path class="st12" d="M45.8,71.8c8.7-1.5,17.2,1,25.9,1.5c8.5,0.5,17.1-0.5,25.6-1.5c0.4-0.1,0.4-0.7,0-0.7
			c-8.6,1-17.4,2-26.1,1.5c-8.6-0.5-17-2.9-25.6-1.4C45.2,71.3,45.4,71.9,45.8,71.8L45.8,71.8z"/>
	</g>
</g>
<g>
	<g>
		<path class="st12" d="M49,83.8c-3.9,0.1-7.7-0.8-11.2-2.6c-0.4-0.2-0.7,0.4-0.3,0.6C41,83.6,45,84.6,49,84.5
			C49.4,84.5,49.4,83.8,49,83.8L49,83.8z"/>
	</g>
</g>
<g>
	<g>
		<path class="st12" d="M46.5,70.9c1.9-0.8,3.8-1.7,5.3-3.1c1.6-1.6,1.9-3.8,2.9-5.7c2.5-5.2,9.1-4.5,13.8-3.7
			c0.4,0.1,0.6-0.6,0.2-0.7c-4.5-0.7-10-1.4-13.4,2.3c-1.6,1.7-1.8,4.2-3,6.1c-1.4,2.2-3.8,3.3-6.1,4.2
			C45.8,70.5,46.1,71.1,46.5,70.9L46.5,70.9z"/>
	</g>
</g>
<g>
	<g>
		<path class="st12" d="M71.6,49.2c-0.5,1.2-1.3,2.2-2.4,2.9c-1.2,0.7-2.6,0.9-4,1.1c-1.2,0.2-2.5,0.4-3.5,1.2
			c-0.9,0.7-1.4,1.8-1.2,3c0.1,0.4,0.7,0.2,0.7-0.2c-0.2-1.5,1-2.5,2.3-3c1.3-0.4,2.6-0.4,3.9-0.7c2.2-0.5,4-2,4.9-4.1
			C72.5,48.9,71.8,48.8,71.6,49.2L71.6,49.2z"/>
	</g>
</g>
<g>
	<g>
		<path class="st12" d="M72.5,49.4c0-0.3,0.8,0.8,0.9,0.9c0.2,0.3,0.3,0.7,0.5,1c0.3,0.6,0.6,1.2,0.9,1.8c0.7,1.3,1.3,2.5,2,3.7
			c1.4,2.4,2.8,4.7,4.6,6.8c1.7,2,3.7,3.8,6.1,5c2.9,1.5,6.1,1.8,9.3,2.2c0.4,0.1,0.4-0.6,0-0.7c-3.8-0.5-7.5-0.9-10.7-3.1
			c-2.6-1.8-4.7-4.2-6.5-6.8c-1.7-2.5-3.1-5.2-4.5-7.9c-0.3-0.7-0.7-1.3-1-2c-0.2-0.5-0.5-1.1-0.9-1.4c-0.6-0.5-1.5-0.2-1.4,0.6
			C71.8,49.8,72.5,49.8,72.5,49.4L72.5,49.4z"/>
	</g>
</g>
<text transform="matrix(0.8755 -0.4833 0.4833 0.8755 31.5186 24.5783)" class="st14 st15 st16">G</text>
<text transform="matrix(0.9731 -0.2305 0.2305 0.9731 38.7922 19.9769)" class="st14 st15 st17">O</text>
<text transform="matrix(0.9916 -0.1293 0.1293 0.9916 48.22 17.9537)" class="st14 st15 st17">L</text>
<text transform="matrix(0.9982 -5.936977e-02 5.936977e-02 0.9982 55.4284 16.6271)" class="st14 st15 st16">A</text>
<text transform="matrix(1 0 0 1 64.4375 16.2437)" class="st14 st15 st17">N</text>
<text transform="matrix(0.9986 5.294985e-02 -5.294985e-02 0.9986 74.0099 16.0208)" class="st14 st15 st17">G</text>
<text transform="matrix(0.9219 0.3874 -0.3874 0.9219 103.3814 20.6198)" class="st14 st15 st17">K</text>
<text transform="matrix(0.9787 0.2052 -0.2052 0.9787 87.4869 16.9985)" class="st14 st15 st17">N</text>
<text transform="matrix(0.9639 0.2663 -0.2663 0.9639 96.3947 18.9475)" class="st14 st15 st17">S</text>
<g>
	<g>
		<path class="st12" d="M103.1,82.1c0.8,1.3,1.8,2.4,3,3.3c0.3,0.2,0.6,0.4,1,0.6c0.2,0.1,0.8,0.2,0.9,0.4c0.3,0.3-0.5,0.8-0.7,1
			c-0.4,0.3-0.7,0.7-1.1,1c-1.3,1.3-2.6,2.6-3.8,4c-0.5,0.6-1.1,1.3-1.6,1.9c-0.3,0.4-0.6,0.8-0.9,1.2c-0.3,0.4-0.6,1.1-1.1,1.2
			c-0.4,0.1-0.2,0.7,0.2,0.7c0.8-0.1,1.2-1,1.6-1.6c0.7-0.9,1.4-1.8,2.1-2.7c1.3-1.6,2.8-3.1,4.3-4.5c0.4-0.3,0.7-0.7,1.1-1
			c0.3-0.2,0.6-0.5,0.7-0.8c0.3-0.7-0.5-0.9-1-1.1c-1.8-0.8-3.2-2.2-4.2-3.9C103.5,81.4,102.9,81.8,103.1,82.1L103.1,82.1z"/>
	</g>
</g>
<g>
	<g>
		<path class="st12" d="M58.8,62.8c0.1-0.7,0.2-1.4,0.1-2.2c-0.2,0.1-0.4,0.2-0.6,0.2c0.4,0.5,0.8,0.9,1.3,1.4
			c0.1,0.1,0.3,0.1,0.4,0.1c0.6-0.5,1.3-0.8,2.1-0.9c-0.1-0.2-0.2-0.3-0.3-0.5c-0.4,0.7-0.7,1.4-0.9,2.1c0,0.1,0,0.3,0.1,0.3
			c0.5,0.4,1,0.9,1.6,1.3c0-0.2,0-0.4,0.1-0.5c-0.4,0.2-0.9-0.1-1.3-0.2c-0.4-0.1-0.8,0-1.2,0.2c-0.7,0.4-0.9,1.3-1.1,2.1
			c0.1-0.1,0.3-0.2,0.4-0.2c-0.2,0-0.2-0.6-0.3-0.8c-0.1-0.4-0.3-0.7-0.6-0.9c-0.5-0.5-1.2-0.9-2-0.8c0.1,0.2,0.1,0.4,0.2,0.6
			c0.5-0.4,1-0.7,1.5-1.1c0.4-0.3,0-0.8-0.3-0.6c-0.5,0.4-1,0.7-1.5,1.1c-0.3,0.2-0.2,0.7,0.2,0.6c0.7,0,1.4,0.4,1.7,1
			c0.3,0.5,0.2,1.5,0.9,1.6c0.2,0,0.4,0,0.4-0.2c0.1-0.6,0.3-1.5,0.9-1.8c0.4-0.1,0.8,0,1.1,0.1c0.4,0.1,0.8,0.1,1.2-0.1
			c0.2-0.1,0.2-0.4,0.1-0.5c-0.5-0.4-1-0.9-1.6-1.3c0,0.1,0.1,0.2,0.1,0.3c0.2-0.7,0.5-1.3,0.9-2c0.1-0.2,0-0.6-0.3-0.5
			c-0.9,0.1-1.7,0.4-2.4,1c0.1,0,0.3,0,0.4,0.1c-0.4-0.5-0.8-0.9-1.3-1.4c-0.2-0.2-0.6-0.1-0.6,0.2c0,0.7,0,1.3-0.1,2
			C58.1,63.1,58.7,63.2,58.8,62.8L58.8,62.8z"/>
	</g>
</g>
<g>
	<g>
		<path class="st12" d="M71.2,55.5c-0.3-0.4-0.7-0.8-1.1-1.1c-0.1,0.2-0.2,0.4-0.2,0.6c0.5,0,0.9,0,1.4,0c0.2,0,0.3-0.2,0.3-0.3
			c0.1-0.5,0.3-1.1,0.6-1.5c-0.2,0-0.4-0.1-0.6-0.1c0.2,0.6,0.4,1.1,0.7,1.6c0.1,0.1,0.2,0.2,0.3,0.2c0.5-0.1,1-0.1,1.5-0.2
			c-0.1-0.1-0.2-0.3-0.3-0.4c-0.1,0.2-0.3,0.3-0.5,0.5c-0.3,0.2-0.5,0.4-0.6,0.6c-0.3,0.7,0.1,1.4,0.5,2c0-0.1,0-0.3,0.1-0.4
			c0.1,0,0.1,0,0-0.1c0,0-0.1,0-0.1,0c-0.1,0-0.1-0.1-0.2-0.1c-0.1-0.1-0.2-0.1-0.3-0.2c-0.2-0.1-0.5-0.1-0.8-0.1
			c-0.5,0-1.1,0.3-1.4,0.7c0.2,0.1,0.4,0.2,0.6,0.2c0.1-0.4,0.1-0.9,0.2-1.3c0-0.2-0.2-0.3-0.3-0.3c-0.2,0-0.3,0.2-0.3,0.3
			c-0.1,0.4-0.1,0.9-0.2,1.3c0,0.3,0.4,0.5,0.6,0.2c0.3-0.4,0.8-0.5,1.2-0.5c0.6,0.1,1,0.7,1.5,0.3c0.1-0.1,0.1-0.3,0.1-0.4
			c-0.3-0.4-0.8-1.1-0.4-1.5c0.2-0.2,0.4-0.3,0.6-0.4c0.2-0.2,0.4-0.4,0.5-0.6c0.1-0.2-0.1-0.5-0.3-0.4c-0.5,0.1-1,0.1-1.5,0.2
			c0.1,0.1,0.2,0.1,0.3,0.2c-0.3-0.5-0.5-0.9-0.6-1.4c-0.1-0.3-0.5-0.3-0.6-0.1c-0.4,0.5-0.6,1.2-0.7,1.8c0.1-0.1,0.2-0.2,0.3-0.3
			c-0.5,0-0.9,0-1.4,0c-0.3,0-0.5,0.4-0.2,0.6c0.4,0.3,0.7,0.7,1.1,1.1c0.1,0.1,0.4,0.1,0.5,0C71.3,55.8,71.3,55.6,71.2,55.5
			L71.2,55.5z"/>
	</g>
</g>
<g>
	<g>
		<path class="st12" d="M71.4,64.2c0.1-0.9,0.2-1.9,0.2-2.8c-0.2,0.1-0.4,0.2-0.6,0.2c0.6,0.6,1.1,1.2,1.7,1.8
			c0.1,0.1,0.3,0.1,0.4,0.1c0.8-0.6,1.8-1,2.8-1.2c-0.1-0.2-0.2-0.3-0.3-0.5c-0.5,0.9-0.9,1.8-1.2,2.8c0,0.1,0,0.3,0.1,0.3
			c0.7,0.6,1.4,1.1,2.1,1.7c0-0.2,0-0.4,0.1-0.5c-0.6,0.3-1.2-0.1-1.8-0.2c-0.5-0.1-1.1-0.1-1.5,0.3c-0.9,0.6-1.2,1.7-1.4,2.7
			c0.1-0.1,0.3-0.2,0.4-0.2c-0.4-0.1-0.3-0.9-0.4-1.2c-0.1-0.4-0.4-0.9-0.7-1.2c-0.7-0.7-1.6-1.1-2.5-1.1c0.1,0.2,0.1,0.4,0.2,0.6
			c0.7-0.5,1.3-0.9,2-1.4c0.4-0.3,0-0.8-0.3-0.6c-0.7,0.5-1.3,0.9-2,1.4c-0.3,0.2-0.2,0.7,0.2,0.6c1,0,1.9,0.5,2.4,1.3
			c0.2,0.4,0.3,0.8,0.4,1.3c0.1,0.4,0.3,0.8,0.7,0.8c0.2,0,0.4,0,0.4-0.2c0.2-0.8,0.4-2.1,1.3-2.4c0.5-0.2,1.1,0,1.6,0.2
			c0.5,0.1,1,0.2,1.5-0.1c0.2-0.1,0.2-0.4,0.1-0.5c-0.7-0.6-1.4-1.1-2.1-1.7c0,0.1,0.1,0.2,0.1,0.3c0.3-0.9,0.7-1.8,1.1-2.7
			c0.1-0.2,0-0.6-0.3-0.5c-1.1,0.2-2.2,0.6-3.1,1.3c0.1,0,0.3,0,0.4,0.1c-0.6-0.6-1.1-1.2-1.7-1.8c-0.2-0.2-0.6-0.1-0.6,0.2
			c0,0.9,0,1.8-0.2,2.7C70.7,64.4,71.3,64.6,71.4,64.2L71.4,64.2z"/>
	</g>
</g>
<text transform="matrix(0.7086 0.6771 -0.6909 0.723 28.7971 107.6041)" class="st14 st15 st18">W</text>
<text transform="matrix(0.7838 0.5884 -0.6003 0.7997 33.1972 111.185)" class="st14 st15 st18">I</text>
<text transform="matrix(0.7294 0.6546 -0.6679 0.7443 34.5505 112.0937)" class="st14 st15 st18">T</text>
<text transform="matrix(0.7498 0.6312 -0.644 0.765 37.2792 114.4786)" class="st14 st15 st18">H</text>
<text transform="matrix(0.7639 -0.614 0.6265 0.7795 102.1049 116.132)" class="st14 st15 st18">G</text>
<text transform="matrix(0.7741 -0.6011 0.6133 0.7898 105.2909 113.8857)" class="st14 st15 st18">O</text>
<text transform="matrix(0.7429 -0.6392 0.6522 0.758 108.9666 111.5914)" class="st14 st15 st18">PH</text>
<text transform="matrix(0.764 -0.6139 0.6264 0.7795 114.2546 107.3349)" class="st14 st15 st18">E</text>
<text transform="matrix(0.7003 -0.6856 0.6996 0.7146 116.5826 105.1364)" class="st14 st15 st18">R </text>
<text transform="matrix(0.6122 -0.7653 0.7809 0.6246 119.0812 102.4529)" class="st14 st15 st18">S</text>
<text transform="matrix(0.8061 0.5575 -0.5688 0.8225 37.4872 123.3174)" class="st14 st15 st19">L</text>
<text transform="matrix(0.8662 0.4585 -0.4678 0.8838 40.4687 125.668)" class="st14 st15 st19">O</text>
<text transform="matrix(0.8636 0.4633 -0.4727 0.8812 44.8895 128.139)" class="st14 st15 st19">V</text>
<text transform="matrix(0.896 0.3971 -0.4052 0.9142 49.226 130.5128)" class="st14 st15 st19">E</text>
<text transform="matrix(0.9571 0.2111 -0.2154 0.9765 55.0732 132.7248)" class="st14 st15 st19">F</text>
<text transform="matrix(0.9686 0.1495 -0.1526 0.9883 59.1693 133.6959)" class="st14 st15 st19">R</text>
<text transform="matrix(0.9767 8.092315e-02 -8.256959e-02 0.9966 63.783 134.331)" class="st14 st15 st19">O</text>
<text transform="matrix(0.9801 0 0 1 69.0986 134.8105)" class="st14 st15 st19">M</text>
<text transform="matrix(0.9599 -0.1976 0.2017 0.9795 77.5261 135.1292)" class="st14 st15 st19">S</text>
<text transform="matrix(0.9552 -0.2195 0.224 0.9746 81.3555 134.6833)" class="st14 st15 st19">I</text>
<text transform="matrix(0.9507 -0.2382 0.243 0.97 83.3358 134.3238)" class="st14 st15 st19">B</text>
<text transform="matrix(0.9472 -0.2517 0.2569 0.9665 87.2412 133.202)" class="st14 st15 st19">E</text>
<text transform="matrix(0.9248 -0.3244 0.331 0.9436 90.9299 131.8213)" class="st14 st15 st19">R</text>
<text transform="matrix(0.9167 -0.3466 0.3537 0.9354 94.7821 130.2797)" class="st14 st15 st19">I</text>
<text transform="matrix(0.8002 -0.5659 0.5774 0.8165 96.8199 129.4318)" class="st14 st15 st19">AN</text>
<g>
	<g>
		<path class="st12" d="M23.7,15.1c-0.5,0.3-0.5,0.9-0.3,1.4c0.3,0.9,0.7,1.7,1.2,2.5c1,1.7,2.2,3.2,3.4,4.6c0.6,0.7,1.3,1.5,2,2.2
			c0.6,0.7,1.2,1.2,2.1,1.5c0.8,0.2,1.7,0.2,2.5,0.1c0.5,0,0.9-0.1,1.4,0c0.3,0,0.6,0,0.9,0.1c0.1,0,0.7,0.6,0.4,0.7
			c-0.5,0.1-0.4,0.5,0.1,0.3c0.4-0.1,0.9-0.5,0.6-1c-0.4-0.6-1.5-0.5-2.1-0.5c-1,0-2.2,0.3-3.2,0c-1-0.3-1.6-1.1-2.3-1.8
			c-1.3-1.5-2.7-2.9-3.8-4.6c-0.6-0.9-1.2-1.8-1.7-2.7c-0.2-0.4-1.2-2.1-0.6-2.5C24.6,15,23.9,14.9,23.7,15.1L23.7,15.1z"/>
	</g>
</g>
<g>
	<g>
		<path class="st12" d="M31.6,26.5c5-2.9,10.7-4.4,16.3-5.3c2.5-0.4,5.1-0.6,7.6-1.3c2.7-0.8,5.4-0.6,8.1-0.6
			c10.3-0.1,20.8-0.4,31,1.6c5.9,1.1,11.6,3.1,16.9,6c0-0.1,0-0.2,0.1-0.3c-1.6,1.2-3.6,1.2-5.6,1.1c-0.3,0-0.8,0.5-0.3,0.5
			c2.2,0.1,4.5,0,6.4-1.3c0.1-0.1,0.2-0.2,0.1-0.3c-9.5-5.4-20.3-7.1-31.1-7.6c-5.5-0.2-11-0.1-16.5-0.1c-2.4,0-5-0.3-7.4,0.2
			c-1.4,0.3-2.7,0.8-4.1,1c-1.5,0.2-3.1,0.4-4.6,0.7c-6,1-12,2.6-17.4,5.6C30.6,26.5,31.3,26.7,31.6,26.5L31.6,26.5z"/>
	</g>
</g>
<g>
	<g>
		<path class="st12" d="M24.1,15.9c5.3-4.2,11.7-6.5,18.2-8c6.8-1.6,13.8-2.7,20.8-3.1c4-0.2,8-0.5,12.1-0.3
			c3.7,0.2,7.4,0.7,11.1,1.1c3.8,0.4,7.7,1.4,11.4,2.3c1.8,0.5,3.6,0.9,5.4,1.5c1.9,0.5,3.7,1.4,5.5,2.1c2,0.7,4,1.5,5.9,2.3
			c1.1,0.5,2.3,0.9,3.2,1.8c0.9,0.9,1.1,1.7,0.5,2.9c-1.5,3.2-4.4,5.4-6.6,8.1c-0.3,0.4,0.4,0.5,0.7,0.2c2-2.4,4.6-4.4,6.2-7.2
			c0.7-1.2,1.4-2.4,0.5-3.7c-0.9-1.4-2.5-2-4-2.6c-2-0.8-4-1.5-5.9-2.3c-2-0.7-3.9-1.6-5.9-2.2c-3.7-1.1-7.4-2-11.1-2.8
			c-4.1-0.8-8.2-1.3-12.4-1.7C75.5,4,71.5,3.8,67.4,4.1c-4.1,0.3-8.2,0.3-12.3,1c-3.4,0.6-6.9,1.1-10.3,1.8
			c-7.6,1.5-15,3.9-21.2,8.7C23.2,15.8,23.8,16.1,24.1,15.9L24.1,15.9z"/>
	</g>
</g>
<g>
	<g>
		<path class="st12" d="M25.4,19.9c-4.8,5-9.7,10.2-11.7,16.9c-0.1,0.3,0.7,0.2,0.8-0.1c2-6.6,6.8-11.8,11.5-16.7
			C26.4,19.7,25.6,19.6,25.4,19.9L25.4,19.9z"/>
	</g>
</g>
<g>
	<g>
		<path class="st12" d="M16.6,32.5c1.1-1.6,2.6-2.9,4.4-3.8c-0.2,0-0.4,0-0.6,0.1c0.6,0.9-0.1,1.9-0.6,2.6c-0.6,1-1.2,1.9-1.8,2.8
			c-1.3,1.9-2.6,3.7-4,5.4c-0.2,0.2,0.6,0.1,0.7-0.1c1.5-1.8,2.8-3.6,4.1-5.5c0.6-1,1.3-1.9,1.9-2.9c0.4-0.7,1.1-1.8,0.5-2.6
			c-0.1-0.2-0.5,0-0.6,0.1c-1.9,0.9-3.5,2.3-4.7,4.1c-0.1,0.1,0.3,0.1,0.3,0.1C16.3,32.7,16.5,32.6,16.6,32.5L16.6,32.5z"/>
	</g>
</g>
<g>
	<g>
		<path class="st12" d="M15.9,38.3c3.2-2.7,6.4-5.5,10.1-7.4c2-1,4.1-1.7,6.3-2c1.7-0.2,3.5,0.2,5.1-0.6c0.5-0.2,0-0.4-0.3-0.3
			c-1.1,0.5-2.5,0.3-3.7,0.4c-0.8,0.1-1.6,0.2-2.4,0.4c-1.9,0.4-3.8,1.1-5.5,2c-3.8,1.9-7.1,4.7-10.3,7.5
			C15,38.5,15.7,38.4,15.9,38.3L15.9,38.3z"/>
	</g>
</g>
<g>
	<g>
		<path class="st12" d="M38,28.1c0.7-1.6-0.7-3.1-1.7-4.2c-0.2-0.2-0.9,0.1-0.7,0.3c1,1,2.3,2.4,1.7,4c-0.1,0.2,0.3,0.1,0.3,0.1
			C37.7,28.3,37.9,28.3,38,28.1L38,28.1z"/>
	</g>
</g>
<g>
	<g>
		<path class="st12" d="M117.3,21.1c3.6,4.8,6.7,10,9.7,15.2c0.1,0.2,0.9,0,0.8-0.2c-3-5.2-6-10.4-9.7-15.2
			C117.9,20.6,117.2,20.8,117.3,21.1L117.3,21.1z"/>
	</g>
</g>
<g>
	<g>
		<path class="st12" d="M106.7,24.6c-0.4,0.3-0.6,0.7-0.9,1.1c-0.3,0.4-0.8,0.9-0.9,1.5c-0.1,0.7,0.5,1.2,1.2,1.4
			c1,0.4,2.2,0.5,3.2,0.7c1.3,0.3,2.6,0.7,3.8,1.2c4.9,1.7,9.3,4.3,12.4,8.5c0.1,0.2,0.9-0.1,0.7-0.3c-2.8-3.8-6.7-6.3-11-8
			c-2.2-0.9-4.5-1.5-6.9-2.1c-0.8-0.2-2.1-0.2-2.6-1c-0.4-0.8,1-2.5,1.6-3C107.6,24.4,106.9,24.5,106.7,24.6L106.7,24.6z"/>
	</g>
</g>
<g>
	<g>
		<path class="st12" d="M124,29.6c-0.6-0.4-2.1-1.3-2.7-0.4c-0.2,0.4,0,0.8,0.2,1.1c0.4,0.7,0.8,1.4,1.1,2.1
			c1.4,2.7,2.6,5.4,3.8,8.1c0.1,0.3,0.9,0.1,0.8-0.2c-0.9-2.2-1.9-4.4-2.9-6.5c-0.5-1-1-2-1.5-2.9c-0.1-0.2-0.8-1.3-0.7-1.5
			c0.2-0.2,1.2,0.5,1.4,0.6C123.7,30.2,124.4,29.8,124,29.6L124,29.6z"/>
	</g>
</g>
<g>
	<g>
		<path class="st12" d="M40.6,56.8c0.3,1.3,2.2,1.4,2.9,0.4c1.7-2-1.3-3.8-2.7-4.5c-2.3-1.2-4.7-2.9-5.4-5.5
			c-0.9-3.3,1.9-6.7,5.4-6.2c3.1,0.5,5.1,4,6.3,6.6c1.2,2.7,1.8,5.7,1.9,8.7c0.2,5.8-1.5,11.6-4.5,16.5c-3.4,5.4-8.3,9.8-13.8,12.9
			c-0.5,0.3,0,0.7,0.3,0.5c9.7-5.5,17.5-14.7,18.7-26.1c0.6-5.7-0.5-11.9-4-16.5c-1.5-1.9-3.5-3.4-6-3.2c-2.2,0.2-4.1,1.6-4.9,3.7
			c-0.9,2.5,0.2,4.9,2,6.6c1.1,1,2.4,1.8,3.7,2.5c0.8,0.4,1.7,0.8,2.2,1.6c0.2,0.3,0.4,0.8,0.4,1.2c0,1-1.5,1.6-1.7,0.4
			C41.3,56.2,40.5,56.4,40.6,56.8L40.6,56.8z"/>
	</g>
</g>
<g>
	<g>
		<path class="st12" d="M100.3,56.6c-2-1.3,1.8-2.7,2.7-3.1c1.1-0.5,2.1-1.2,3-2c1.7-1.6,2.8-4,2.3-6.3c-0.5-2-2.3-3.7-4.4-3.7
			c-2.2,0-4.2,1.4-5.6,2.9c-3.4,3.8-4.5,9.7-4.3,14.6c0.2,5.3,1.9,10.5,4.9,15c3.3,5,7.9,9,13,11.8c0.3,0.2,1-0.2,0.6-0.4
			c-8.6-4.8-15.5-12.7-17.3-22.5c-0.9-5-0.5-10.5,1.7-15.2c1.1-2.4,3-4.8,5.6-5.5c3.2-0.9,5.5,2.1,5.1,5.1c-0.5,3.3-3.3,5.2-6.1,6.3
			c-0.8,0.3-1.8,0.7-2.1,1.6c-0.3,0.7-0.1,1.4,0.5,1.8C99.9,57.3,100.6,56.9,100.3,56.6L100.3,56.6z"/>
	</g>
</g>
<g>
	<g>
		<path class="st12" d="M38.3,41.3c3.6-1.2,6-4.3,8-7.4c0.6-0.9,1.1-1.9,2-2.6c1.4-1.2,2.7-0.5,3.8,0.7c1.4,1.6,2.9,3,4.9,4.1
			c0.3,0.1,1-0.2,0.6-0.4c-1.2-0.6-2.3-1.4-3.2-2.3c-0.8-0.8-1.4-1.7-2.3-2.5c-1.4-1.2-3.2-0.9-4.5,0.3c-0.8,0.7-1.3,1.6-1.8,2.5
			c-0.6,1-1.3,2-2,2.9c-1.5,1.9-3.2,3.5-5.5,4.3C37.7,41,37.8,41.5,38.3,41.3L38.3,41.3z"/>
	</g>
</g>
<g>
	<g>
		<path class="st12" d="M52.7,32.5c3.4,3,7,6,11.3,7.7c1.9,0.8,4.4,1,6,2.4c0.6,0.5,1,1.2,1.8,1.2c0.5,0,1-0.2,1.3-0.7
			c0.1-0.1-0.7-0.1-0.8,0.1c-0.3,0.5-2-1.3-2.3-1.5c-0.6-0.4-1.4-0.7-2.1-0.9c-1.8-0.6-3.6-1.1-5.3-2c-3.4-1.8-6.3-4.3-9.1-6.7
			C53.2,32.1,52.5,32.4,52.7,32.5L52.7,32.5z"/>
	</g>
</g>
<g>
	<g>
		<path class="st12" d="M105.9,42c-3.7-1.7-6.6-4.6-9.1-7.8c-1.7-2.1-3.8-5.3-6.5-2.7c-2.9,2.8-5.8,5.5-9.6,7.2
			c-1,0.4-1.9,0.8-2.9,1.1c-0.8,0.2-1.6,0.3-2.4,0.6c-1.4,0.6-2,2.4-3.5,2.8c-0.5,0.1-0.3,0.7,0.2,0.6c1.3-0.3,1.8-1.4,2.8-2.2
			c0.8-0.7,1.8-0.8,2.8-1c0.8-0.2,1.6-0.5,2.4-0.8c3.2-1.2,6.1-3.3,8.6-5.6c0.6-0.5,1.2-1.1,1.7-1.6c0.4-0.4,0.8-0.9,1.3-1.2
			c0.9-0.4,1.6,0.1,2.2,0.6c1.4,1.2,2.4,2.9,3.6,4.3c2.3,2.6,4.9,5,8.1,6.4C105.8,42.7,106.4,42.2,105.9,42L105.9,42z"/>
	</g>
</g>
<g>
	<g>
		<path class="st12" d="M30.2,86.4c4,4.3,7.9,8.7,11.7,13.2c0.2,0.2,1-0.1,0.7-0.3C38.9,94.7,35,90.3,31,86
			C30.8,85.8,30,86.1,30.2,86.4L30.2,86.4z"/>
	</g>
</g>
<g>
	<g>
		<path class="st12" d="M112,86c-4.2,4.5-8.4,9.1-12.4,13.8c-0.2,0.2,0.6,0.1,0.7,0c4-4.7,8.2-9.3,12.4-13.8
			C112.9,85.8,112.1,85.9,112,86L112,86z"/>
	</g>
</g>
<g>
	<g>
		<path class="st12" d="M42.8,99.5c2-3.7,6.5-1.2,8.6,0.9c2.1,2.1,3.8,4.3,6.5,5.6c2.8,1.3,6.2,0.6,8.9,2.2c2.4,1.5,4,4.3,3.9,7.1
			c0,0.4,0.8,0.3,0.8-0.1c0.1-3-1.5-5.9-4.1-7.5c-1.3-0.8-2.6-1.1-4.1-1.2c-2.3-0.2-4.4-0.5-6.3-1.8c-3.1-1.9-4.8-5.5-8.1-7.1
			c-2.4-1.1-5.5-0.7-6.8,1.8C41.8,99.8,42.6,99.8,42.8,99.5L42.8,99.5z"/>
	</g>
</g>
<g>
	<g>
		<path class="st12" d="M71.5,115.9c-0.6-6.8,8.1-8.9,12.9-10.7c4.5-1.6,9.3-4,11.4-8.6c0.2-0.4-0.6-0.4-0.8-0.1
			c-2.6,5.7-8.9,7.5-14.3,9.4c-4.5,1.6-10.5,4.4-10,10.1C70.8,116.4,71.6,116.2,71.5,115.9L71.5,115.9z"/>
	</g>
</g>
<g>
	<g>
		<path class="st12" d="M95.1,96.7c1.2,1.4,2.6,2.7,4.1,3.6c0.1,0.1,0.4,0,0.5,0c0,0,0.4-0.2,0.2-0.3c-1.6-1-3-2.2-4.1-3.6
			C95.7,96.2,95,96.5,95.1,96.7L95.1,96.7z"/>
	</g>
</g>
<g>
	<g>
		<path class="st12" d="M10.9,80c0.4,8.2,3.8,15.8,9,22c2.5,3,5.5,5.7,8.6,8c1.7,1.3,3.5,2.5,5.1,3.8c0.9,0.7,1.7,1.4,2.5,2.2
			c0.4,0.4,0.8,0.8,1.2,1.2c0.1,0.2,0.3,0.3,0.4,0.5c0.2,0.2,0.4,0.5,0.5,0.8c-0.2,0.3-0.4,0.7-0.6,1c-0.8,0.4-2.9-0.7-3.6-1
			c-0.7-0.2-1.5-0.6-2.2-0.4c-1.9,0.5,0.4,2.4,1,3c0.2,0.2,1-0.1,0.7-0.3c-0.3-0.4-0.7-0.7-1-1.1c-0.3-0.3-0.6-0.3-0.2-0.7
			c0.3-0.4,0.2-0.2,0.6-0.1c1.1,0.1,2.2,0.8,3.2,1.1c0.8,0.2,2.1,0.3,2.7-0.5c1-1.4-1.3-3.1-2.1-3.9c-1.4-1.3-2.9-2.5-4.5-3.7
			c-3.4-2.5-6.8-5-9.7-8.1c-2.7-2.8-5.1-6-6.9-9.5c-2.3-4.4-3.7-9.3-3.9-14.3C11.7,79.5,10.9,79.7,10.9,80L10.9,80z"/>
	</g>
</g>
<g>
	<g>
		<path class="st12" d="M130.6,80.1c0.1,4.6-1.4,9-3.6,13.1c-2.1,3.9-4.7,7.7-7.6,11c-3.1,3.4-6.8,6-10.5,8.6
			c-1.8,1.2-3.5,2.4-5.1,3.9c-0.7,0.6-2.1,1.8-1.6,2.9c0.6,1.4,2.8,0.6,3.7,0.3c0.7-0.3,1.4-0.7,2.2-1c0.4-0.2,1.2-0.6,1.5,0
			c0.2,0.5-0.4,1.3-0.7,1.6c-0.3,0.3,0.4,0.3,0.6,0.1c0.6-0.6,1.5-2.1,0.2-2.5c-1-0.3-2.3,0.5-3.1,0.9c-0.8,0.4-1.8,1-2.7,0.9
			c-2-0.2-0.6-2.1,0.2-2.8c1.7-1.7,3.7-3,5.6-4.3c3.7-2.5,7.3-5.2,10.3-8.5c2.9-3.2,5.4-7,7.5-10.7c2.4-4.2,4-8.8,3.8-13.7
			C131.4,79.6,130.6,79.8,130.6,80.1L130.6,80.1z"/>
	</g>
</g>
<g>
	<g>
		<path class="st12" d="M103,118.7c-1.7-0.7-3.4-1.5-5-2.5c-0.7-0.4-1.7-1.1-1.6-2c0.2-1,1.7-1.5,2.5-2c3.2-1.9,6.2-4,9.1-6.3
			c5.6-4.6,10.5-10.4,13.2-17.2c0.8-1.8,1.4-3.8,1.8-5.7c0.4-1.8,0.8-3.9-0.1-5.6c-0.1-0.2-0.8,0.1-0.8,0.2c0.9,1.7,0.5,3.7,0.2,5.5
			c-0.4,1.8-0.9,3.6-1.6,5.3c-1.4,3.5-3.3,6.7-5.6,9.6c-4.9,6.3-11.4,11-18.2,15c-1.3,0.8-1.6,1.7-0.3,2.8c1.6,1.4,3.8,2.3,5.8,3
			C102.4,119,103,118.7,103,118.7L103,118.7z"/>
	</g>
</g>
<g>
	<g>
		<path class="st12" d="M122.2,77.8c2.1,2.5,3.6,5.6,4.3,8.8c0,0.2,0.7,0,0.8-0.1c2-2.1,3.5-4.5,4.4-7.2c0.1-0.2-0.7-0.1-0.8,0.1
			c-0.9,2.7-2.4,5.1-4.3,7.1c0.3,0,0.5-0.1,0.8-0.1c-0.7-3.3-2.2-6.3-4.3-8.9C122.8,77.4,122.1,77.7,122.2,77.8L122.2,77.8z"/>
	</g>
</g>
<g>
	<g>
		<path class="st12" d="M106,115.5c1.6,0.6,2.7,2,3.7,3.4c0.2,0.2,0.9,0,0.7-0.3c-1-1.4-2.1-2.8-3.8-3.4c-0.2-0.1-0.4,0-0.6,0.1
			C105.9,115.3,105.8,115.4,106,115.5L106,115.5z"/>
	</g>
</g>
<g>
	<g>
		<path class="st12" d="M10.7,80c1.2,2.4,2.6,4.5,4.4,6.5c0.1,0.1,0.9-0.1,0.7-0.3c-1.7-2-3.2-4.1-4.3-6.5
			C11.4,79.6,10.7,79.9,10.7,80L10.7,80z"/>
	</g>
</g>
<g>
	<g>
		<path class="st12" d="M15.4,86.4c0.3-2.6,2-4.7,3.7-6.6c0.1-0.1,0.1-0.3-0.1-0.4c-0.2-0.1-0.4,0-0.6,0.2c-1.8,2-3.6,4.2-3.9,6.9
			C14.6,86.9,15.4,86.8,15.4,86.4L15.4,86.4z"/>
	</g>
</g>
<g>
	<g>
		<path class="st12" d="M18.6,79.2c-0.3,3.8,0.9,7.4,2.7,10.7c1.9,3.6,4.2,6.9,6.7,10c5.2,6.3,11.9,10.6,18.9,14.8
			c0-0.1,0-0.3,0-0.4c-2.7,1.6-5.4,3.2-8.1,4.6c-0.5,0.3,0,0.7,0.4,0.5c2.8-1.5,5.6-3.1,8.3-4.8c0.1-0.1,0.2-0.3,0-0.4
			c-6.8-4-13.4-8.2-18.5-14.3c-2.4-2.9-4.5-6-6.3-9.2c-2-3.6-3.6-7.5-3.3-11.6C19.4,78.7,18.6,78.8,18.6,79.2L18.6,79.2z"/>
	</g>
</g>
<g>
	<g>
		<path class="st12" d="M31.7,118.8c1.6-0.9,3-2,4.2-3.4c0.1-0.1-0.1-0.1-0.2-0.1c-0.2,0-0.4,0.1-0.5,0.2c-1.1,1.3-2.5,2.4-4,3.3
			c-0.1,0-0.3,0.1-0.1,0.2C31.3,119,31.6,118.9,31.7,118.8L31.7,118.8z"/>
	</g>
</g>
<g>
	<g>
		<path class="st12" d="M41.8,117.8c3.2,2.5,6.6,4.7,10.4,6.3c3.7,1.6,7.6,2.6,11.6,3.2c8,1.2,16.3,0.8,23.8-2.4
			c4.4-1.9,8.5-4.3,12.6-6.8c0.5-0.3-0.3-0.3-0.5-0.2c-7.1,4.3-14.4,8.7-22.9,9.4c-7.7,0.6-15.7-0.3-22.9-3.1
			c-4.2-1.6-7.9-4-11.4-6.7C42.4,117.3,41.7,117.6,41.8,117.8L41.8,117.8z"/>
	</g>
</g>
<g>
	<g>
		<path class="st12" d="M32.8,121.2c1.4,2.5,3.6,4.1,5.9,5.7c2.4,1.6,5,3.2,7.6,4.5c5.3,2.7,11,4.2,17,5c11.5,1.6,23.7,0.6,34-5.1
			c5-2.8,9.3-6.6,12.5-11.3c0.2-0.3-0.6-0.3-0.8-0.1c-6,8.7-15.7,13.9-25.9,15.8c-6,1.1-12.1,1.1-18.2,0.3c-5.8-0.7-11.5-2-16.8-4.5
			c-2.8-1.3-5.5-2.9-8-4.6c-2.5-1.7-5.1-3.4-6.5-6.1C33.4,120.5,32.6,120.8,32.8,121.2L32.8,121.2z"/>
	</g>
</g>
<g>
	<g>
		<path class="st12" d="M34,86.3c1.6,1.5,2.9,3.4,4.2,5.2c1.3,1.9,2.9,3.5,4.6,5.1c0.2,0.2,1-0.1,0.6-0.4c-1.7-1.5-3.2-3.2-4.6-5.1
			c-1.3-1.8-2.5-3.6-4.1-5.1C34.5,85.7,33.7,86,34,86.3L34,86.3z"/>
	</g>
</g>
<g>
	<g>
		<path class="st12" d="M43.4,96.4c0-0.1,0.1-0.2,0.1-0.2c0,0,0,0,0,0.1c0-0.1,0.1-0.1,0.1-0.2c0,0,0,0-0.1,0.1c0,0,0,0,0.1-0.1
			c0,0,0.1-0.1,0,0c0,0,0,0,0.1,0c0,0,0,0,0.1,0c0.1,0-0.1,0-0.1,0c0,0,0.1,0,0.1,0c0,0,0,0,0,0c0,0,0,0-0.1,0c0,0,0,0,0,0
			c0,0,0.1,0,0.1,0c-0.2,0,0,0,0,0c0.1,0,0.2,0,0.3-0.1c0.1,0,0.2-0.1,0.2-0.2c0-0.1,0-0.2,0-0.2c-0.1-0.1-0.1-0.1-0.2-0.1
			c-0.4,0-0.7,0.1-1,0.2c-0.2,0.1-0.4,0.4-0.5,0.6c0,0.1,0,0.1,0,0.2c0,0.1,0.1,0.1,0.2,0.1c0.1,0,0.2,0,0.3-0.1
			C43.2,96.6,43.3,96.5,43.4,96.4L43.4,96.4z"/>
	</g>
</g>
<g>
	<g>
		<path class="st12" d="M34.7,86.2c1.8-0.8,3.3-1.9,4.5-3.5c0.1-0.2-0.1-0.3-0.2-0.3c-0.2,0-0.4,0.1-0.5,0.2
			c-1.1,1.4-2.5,2.4-4.1,3.1c-0.1,0.1-0.3,0.2-0.2,0.3C34.3,86.4,34.6,86.3,34.7,86.2L34.7,86.2z"/>
	</g>
</g>
<g>
	<g>
		<path class="st12" d="M49.2,68.9c2.8-4.7,4-10.3,3.4-15.8c-0.6-5-2.6-11-7.2-13.8c-0.2-0.2-1,0.2-0.6,0.4c4.4,2.7,6.4,8.7,7,13.6
			c0.6,5.4-0.6,10.9-3.3,15.5C48.3,69.2,49.1,69.1,49.2,68.9L49.2,68.9z"/>
	</g>
</g>
<g>
	<g>
		<path class="st12" d="M45.6,39.6c0.7-1.3,1.5-2.5,2.4-3.7c0.2-0.3,0.4-0.6,0.7-0.8c0.4-0.3,1.1-0.6,1.7-0.5c0.4,0.1,1,0.8,1.4,1.1
			c1.8,1.6,3.5,3.3,5.4,4.8c1.7,1.3,3.6,2.4,5.7,2.9c1.4,0.3,2.8,0.4,4.1,0.9c1.4,0.5,2.7,1.4,3.8,2.4c0.3,0.3,1-0.1,0.7-0.4
			c-2.1-2.1-4.6-2.9-7.5-3.4c-3.2-0.6-5.6-2.2-8-4.4c-1-0.9-2-1.9-3.1-2.9c-0.8-0.7-1.8-1.9-3-2c-1.1-0.1-1.9,1-2.5,1.7
			c-1,1.2-1.9,2.5-2.6,4C44.6,39.9,45.4,40,45.6,39.6L45.6,39.6z"/>
	</g>
</g>
<g>
	<g>
		<path class="st12" d="M71.6,46.7c2.7-4,8-3.9,12.1-5.6c1.7-0.7,3.2-1.7,4.5-3c0.5-0.5,1-1.1,1.5-1.7c0.3-0.4,0.6-0.9,1-1.1
			c0.8-0.5,1.6-0.1,2.3,0.4c1.7,1.3,2.4,3.1,4.4,3.8c1.1,0.4,1.9,0.9,0.8,2c-0.7,0.7-1.6,1.4-2.3,2.1c-1.4,1.3-2.5,2.8-3.1,4.7
			c-0.6,1.9-0.9,4-1.2,6c-0.6,5.1-0.2,10.3,1.9,15.1c0.1,0.2,0.8-0.1,0.8-0.2c-2-4.7-2.5-9.8-1.9-14.8c0.3-2.5,0.6-5.2,1.7-7.5
			c1.1-2.3,3.1-3.6,4.9-5.3c1.7-1.7-0.6-1.9-1.9-2.7c-1.8-1.1-2.6-3.6-4.7-4c-1.1-0.2-2.1,0.3-2.8,1.1c-1.7,1.9-3.1,3.7-5.5,4.8
			c-4.4,2.1-10.2,1.7-13.2,6.1C70.8,46.9,71.5,46.9,71.6,46.7L71.6,46.7z"/>
	</g>
</g>
<g>
	<g>
		<path class="st12" d="M56.7,69c4.7-1.1,9.3,0.8,13.9,1.5c4.5,0.7,9,0.6,13.4-0.2c0.5-0.1,0.4-0.6-0.1-0.5
			c-5,0.9-10.2,0.8-15.2-0.2c-4-0.9-8-2-12.1-1.1C56.1,68.6,56.2,69.1,56.7,69L56.7,69z"/>
	</g>
</g>
<path class="st12" d="M54.2,73.4l2.6-1.8l-1.7-0.5L50.5,71l-3,0.2l-1.8,0.3l-1.5,2.8L41.9,77l-2.3,2.4l-2.2,1.7l1.2,0.9l3.7,1.3
	l4.5,0.8l2.1,0l0.8-2.2l-1.4-0.1c0,0-6.2-2.5-2-7.7C46.4,74.2,50.3,70.1,54.2,73.4z"/>
<path class="st12" d="M94.8,71.7L94.8,71.7c0,0,1-0.1,2.8-0.3c0,0,4.3,6.7,6.9,9.2l-2.4,1.5c0,0-4.4,2.2-8.7,2.3L92.8,81l1.9-0.5
	c1.7-2.2,1.9-3.7,1.7-4.8C96.5,75.7,96.4,75,94.8,71.7z"/>
</svg>
