<?xml version="1.0" encoding="utf-8"?>
<!-- Generator: Adobe Illustrator 24.0.1, SVG Export Plug-In . SVG Version: 6.00 Build 0)  -->
<svg version="1.1" id="Layer_1" xmlns="http://www.w3.org/2000/svg" xmlns:xlink="http://www.w3.org/1999/xlink" x="0px" y="0px"
	 viewBox="0 0 141.7 141.7" style="enable-background:new 0 0 141.7 141.7;" xml:space="preserve">
<style type="text/css">
	.st0{fill:#79CAE6;}
	.st1{fill:#FFFFFF;}
	.st2{fill:#C7AF9D;}
	.st3{fill:#351947;}
	.st4{fill:#C288BB;}
	.st5{fill:#D2A4CC;}
	.st6{fill:#FFE62D;}
	.st7{fill:#070707;}
	.st8{fill:none;stroke:#070707;stroke-width:0.3904;stroke-miterlimit:10;}
</style>
<path class="st0" d="M34.3,136v-4.3v-5.3v-5.8l-0.8-7.6l5.4,3.6l6.2,2.3l3.4,0.5l-2.6-3.1l-2-4.5l-0.8-4.3l-0.1-5.2l0.3-5.7l0.4-5.2
	L44,90l2.1-5.5l2.6-3.4l4-2.8l5.8-2l6-2.1l4.2-2.5l2.2,0.7l2.8-0.4l3.5-0.6c0,0,8.1-1.6,14.5,3.7c0,0,7.5-3.6,10.8-0.5
	c0,0,4.9,3.9,2.3,10l-2.5,2.8l-2,0.9h-1c0,0,4.3,25.5-3.5,29.7l3.5-2.7l1.9-1.6l0.1,7.1l0.4,6.1l0.5,6.7l0,0.7L34.3,136z"/>
<circle class="st1" cx="54.1" cy="85.8" r="10.3"/>
<circle class="st1" cx="80.4" cy="84.5" r="10.3"/>
<path class="st1" d="M63.2,102.3c0,0-1.3,5.4,1.3,6.4c0,0,2.2,0.6,3-1.5c0,0,2,2.4,2.7,1.4c0,0,2.3-0.5,1.9-3.5l-0.6-3l-2.6-0.7
	h-1.4l-2.2,0.6L63.2,102.3z"/>
<path class="st2" d="M56.3,129.5c0,0,0.7,3.4,4.9,5.7l1.8,0.2l0.8-1.4v-0.7l0.7-0.4l0.2-1.1l-0.7-1.4l-1.7-1.4l-2.4-1.1
	C60,127.9,56.2,126.6,56.3,129.5z"/>
<path class="st2" d="M76.7,127.5l-2,1.6l-1.4,1.9l-0.3,1.3l0.2,1l1.6,1.2l1.8,0.4l2.5-1.1l1.8-1.8l0.9-1.7v-1.7l0.4-0.8
	C82.1,127.7,84,123.8,76.7,127.5z"/>
<path class="st2" d="M63.2,94.9c0,0-5,2-4.8,5.3c0,0,0.1,2.1,4.7,2.1l4.3-1h1.4c1.2,0.3,2.4,0.6,3.6,0.8c0.3,0,0.6,0,1,0
	c0.5,0,0.9-0.1,1.2-0.2c0.2-0.1,0.6-0.4,0.9-1c0.2-0.4,0.3-0.8,0.3-1c0-0.2,0.1-0.5,0-1c-0.1-0.3-0.2-0.6-0.3-0.7
	c-0.2-0.3-0.4-0.7-0.8-1.1c-0.4-0.4-0.8-0.7-1.1-0.8c-0.5-0.3-1-0.6-1.6-0.9c-0.3-0.2-0.6-0.3-0.9-0.5c-0.5,0.4-1.8,1.3-3.7,1.4
	C65.2,96.3,63.7,95.3,63.2,94.9z"/>
<path class="st0" d="M34.8,89.7l-2.2-0.4c0,0-7.6-2.5-3.6-10c0,0,5.7-7.6,12.9-2.5l-1.4,1.9l-2.8,4.1L35.8,87L34.8,89.7z"/>
<path class="st3" d="M68.6,71.6l-3.7,2l-4.5,1.4l-2,1.1l-3-1.1h-2.7L49.6,76l-3.2,2.1c0,0-5.3,4.9-2.1,11l-1.1,6.6l-0.1,13.2
	c0,0,0.9,7.1,4.9,10.1l-1.2,0.3c0,0-9.6-1-15.7-9.4c0,0-3.2-4.4-2.8-10l1.3-12.6l2.2,1.6l3,0.8l2-5.2l2.7-4.5l2.4-3.2l-2.3-1.2
	L37,74.8h-1.2L40,70c0,0,11.2-12.8,24.3-2.8l3.8-3.2c0,0,10.2-7.3,26.3,9.6L91.6,75l-3.9-2.4c0,0-3.8-2.6-13.3-0.8L72,72.2L70,72
	L68.6,71.6z"/>
<polygon class="st4" points="99.2,88.1 100.1,99.9 100,107.9 98.5,113.9 97,116.8 100.7,113.9 103.7,109.9 104.6,106.3 104.8,101.3 
	104.1,95.3 103,90.8 102.2,87.2 "/>
<path class="st5" d="M44.1,89.3c0.4-1.6,1.1-3.6,2.5-5.7c3.9-5.6,10-7.1,11.8-7.4c0,0-6.1-3-11.5,1.5c-0.7,0.6-2.9,2.7-3.5,6.3
	C43.2,86.5,43.8,88.4,44.1,89.3z"/>
<path class="st6" d="M63,35.4c1.1,0.2,0.1-2.2,0.2-3.2c-0.6-0.1-3.9-0.6-6-3.6c-2.5-3.4-1.4-7.3-1.3-7.7c0.2-0.8,0.9-2.9,3-4.5
	c1.6-1.3,3.2-1.7,4-1.8c0,0,8.1-1.1,10.3,6.6c0,0,0.6,4.3-0.8,6.7l-1.9,2.1l-2.2,1.5l-2.1,0.8h-0.7l0.1,3.2c0,0,3.8-0.7,5.8-2.2
	c0,0,6.2-3.6,4.8-13c0,0-1.7-5.6-7.4-8c0,0-8.5-3.5-14.4,4.6c0,0-4,4.6-0.7,12.5C53.7,29.2,56.8,34.3,63,35.4z"/>
<path class="st6" d="M63,47.8c-0.2-0.8-0.2-1.5-0.1-1.9c0-0.5,0.1-0.7,0.1-1.2c0-0.7-0.2-0.8-0.1-1.2c0.1-0.3,0.2-0.6,0.1-0.7
	c0,0,0,0-0.1,0c-0.1,0-0.3,0-0.8,0c-1.2,0-1.1-0.1-1.8,0c-0.7,0.1-0.8,0.1-1,0c-0.2-0.2-0.1-0.5-0.1-1.5c0-0.8-0.1-1.1,0.1-1.2
	c0.2-0.1,0.3-0.1,1,0c0.3,0,0.6,0,1.1-0.1c0.9-0.1,1.3-0.1,1.5-0.3c0.2-0.2,0.3-0.6,0.3-1.2c0-0.6-0.1-0.9-0.2-1.5
	c-0.1-0.7,0-1.1,0-1.7c0-0.7,0-1.9-0.2-3.4c0,0,0.1,0.1,0.2,0.1c0.1,0,0.1,0.1,0.2,0.1c0.4,0.1,1.3,0.2,3,0.1l-0.6,3.2l-0.2,4.5
	L69,40l-0.2,2.5c-1.1,0-2.2,0-3.4,0c0,0.7,0.1,1.4,0.1,2.1l0.1,2.7l-0.1,0.5c-0.3,0.1-0.8,0.2-1.3,0.2C63.7,47.9,63.3,47.9,63,47.8z
	"/>
<path class="st4" d="M48.1,118.9c0,0-8.3-5.9-4.1-28.9c0,0-2.8-7.2,3.2-12.9c0,0,5.5-4,11.2-0.9c0,0,9.3-3.5,9.9-4.4
	c-2.1-0.9-8.5-3.3-16.1-1c-6,1.8-9.5,5.5-10.9,7c-4.7,5-6,10.5-6.7,13.4c-0.5,2.1-4.3,19.4,5,25.6C42.5,118.7,45.7,119,48.1,118.9z"
	/>
<g>
	<g>
		<path class="st7" d="M33.2,113c0.6,7.4,0.9,14.8,0.8,22.2c0,0.4,0.6,0.4,0.7,0c0.1-7.4-0.2-14.8-0.8-22.2
			C33.8,112.6,33.2,112.6,33.2,113L33.2,113z"/>
	</g>
</g>
<g>
	<g>
		<path class="st7" d="M43,75.7c-4.5,4-7.6,9.5-8.6,15.4c-0.1,0.4,0.6,0.6,0.6,0.2c1-5.8,4-11.2,8.5-15.1
			C43.8,75.9,43.3,75.4,43,75.7L43,75.7z"/>
	</g>
</g>
<g>
	<g>
		<path class="st7" d="M96.5,80.7c-2.3-4.4-6.1-7.8-10.9-9.2c-2.3-0.7-4.8-0.9-7.3-0.7c-3.1,0.3-6.6,1.9-9.6,0.5
			c-0.4-0.2-0.7,0.4-0.3,0.6c2.5,1.2,5.1,0.4,7.6,0c2.7-0.5,5.4-0.6,8.1,0c5.2,1.1,9.4,4.5,11.8,9.2C96.1,81.4,96.7,81.1,96.5,80.7
			L96.5,80.7z"/>
	</g>
</g>
<g>
	<g>
		<path class="st7" d="M34.8,89.4c-3.9-0.3-7.1-3.6-6.4-7.6c0.6-3.5,4.1-6.1,7.6-6.4c1.9-0.1,4.4-0.1,5.7,1.6
			c0.3,0.3,0.7-0.1,0.5-0.5c-1.3-1.6-3.4-1.8-5.4-1.8c-2.1,0-4,0.6-5.7,1.9C27.9,79,26.5,83.5,29,87c1.4,1.9,3.6,2.9,5.8,3.1
			C35.2,90,35.2,89.4,34.8,89.4L34.8,89.4z"/>
	</g>
</g>
<g>
	<g>
		<path class="st7" d="M91.8,75.3c2.9-1.5,7.2-2.5,10.1-0.8c3,1.7,3.9,6.1,2.8,9.1c-0.8,2.1-2.7,3.8-4.9,4.1
			c-0.4,0.1-0.2,0.7,0.2,0.6c2.1-0.3,4-1.8,4.9-3.6c0.9-1.6,1.1-3.5,0.8-5.3c-0.3-1.8-1.1-3.7-2.6-4.9c-1.5-1.2-3.5-1.6-5.3-1.5
			c-2.2,0.1-4.4,0.7-6.3,1.7C91.1,74.9,91.4,75.5,91.8,75.3L91.8,75.3z"/>
	</g>
</g>
<g>
	<g>
		<path class="st7" d="M62.8,95.3c0.1,0,0.2,0,0.3-0.1c0-0.1,0-0.2,0-0.3c-0.3,0.2-0.7,0.1-1,0.3c-0.5,0.2-1,0.6-1.4,1
			c-0.9,0.7-1.8,1.6-2.2,2.6c-1.1,2.7,2.5,3.9,4.6,3.6c1.6-0.2,3.1-0.9,4.7-1.1c1.5-0.1,2.7,0.4,4.1,0.7c1,0.3,2.1,0.4,3-0.2
			c0.9-0.6,1.3-1.8,1.1-2.9c-0.4-2.5-3.6-3.9-5.7-4.6c-0.2-0.1-0.3,0.2-0.1,0.3c1.8,0.7,4.2,1.7,5.2,3.5c0.6,1.1,0.4,2.6-0.6,3.4
			c-0.9,0.8-2.2,0.4-3.3,0.1c-1-0.3-1.9-0.6-2.9-0.6c-1.3-0.1-2.6,0.3-3.8,0.7c-1.5,0.4-3,0.7-4.5,0.1c-1.1-0.5-2.1-1.4-1.6-2.7
			c0.4-1.2,1.5-2.2,2.4-2.9c0.4-0.3,0.8-0.6,1.2-0.7c0.3-0.1,0.6-0.1,0.9-0.3c0.1-0.1,0.1-0.3,0-0.3c-0.1,0-0.3,0-0.4,0.1
			C62.5,95,62.6,95.4,62.8,95.3L62.8,95.3z"/>
	</g>
</g>
<g>
	<g>
		<path class="st7" d="M71.3,102c0.4,0.9,0.6,1.9,0.6,2.9c0,0.9,0,2.1-0.7,2.8c-0.6,0.6-1.7,1-2.5,0.6c-0.7-0.3-0.9-1.2-1.2-1.7
			c-0.1-0.2-0.4,0-0.3,0.2c0.3,0.5,0.5,1.2,0.9,1.6c0.5,0.5,1.3,0.5,1.9,0.3c0.7-0.2,1.4-0.7,1.7-1.4c0.3-0.7,0.4-1.7,0.4-2.5
			c0-1-0.2-2-0.6-3C71.5,101.8,71.2,101.8,71.3,102L71.3,102z"/>
	</g>
</g>
<g>
	<g>
		<path class="st7" d="M81.8,127.8c-0.3,0.3-0.3,0.8-0.3,1.1c-0.1,0.6-0.1,1.1-0.3,1.6c-0.5,1.5-1.6,2.8-3,3.5
			c-1.2,0.6-2.8,0.8-4.1,0.2c-1.4-0.6-1.3-2-0.7-3.2c0.7-1.5,2.1-2.5,3.5-3.4c0.2-0.1,0-0.4-0.2-0.3c-1.3,0.9-2.6,1.8-3.4,3.2
			c-0.6,1-1,2.5-0.1,3.5c0.9,0.9,2.4,1,3.6,0.8c1.5-0.3,2.9-1.2,3.8-2.4c0.5-0.7,1-1.6,1.1-2.5c0-0.3,0.1-0.6,0.1-0.9
			c0-0.3,0-0.8,0.2-1C82.2,127.9,82,127.6,81.8,127.8L81.8,127.8z"/>
	</g>
</g>
<g>
	<g>
		<path class="st7" d="M76.3,131.3c-0.3,0.6-0.8,1.2-1.4,1.6c-0.7,0.4-1.4,0.3-2-0.1c-0.2-0.1-0.3,0.2-0.2,0.3
			c0.7,0.5,1.5,0.5,2.2,0.1c0.7-0.4,1.3-1,1.6-1.7C76.7,131.3,76.4,131.2,76.3,131.3L76.3,131.3z"/>
	</g>
</g>
<path class="st8" d="M90.6,84.5C90.6,78.7,86,74,80.2,74c-5.8,0-10.5,4.7-10.5,10.5c0,5.8,4.7,10.5,10.5,10.5
	C86,94.9,90.6,90.2,90.6,84.5z"/>
<path class="st8" d="M64.3,85.6c0-5.8-4.7-10.5-10.5-10.5c-5.8,0-10.5,4.7-10.5,10.5C43.3,91.4,48,96,53.8,96
	C59.6,96,64.3,91.4,64.3,85.6z"/>
<path class="st7" d="M100.2,80.3c0-1.2-1-2.2-2.2-2.2c-1.2,0-2.2,1-2.2,2.2c0,1.2,1,2.2,2.2,2.2C99.2,82.5,100.2,81.5,100.2,80.3z"
	/>
<path class="st7" d="M38,82.3c0-1.2-1-2.2-2.2-2.2c-1.2,0-2.2,1-2.2,2.2c0,1.2,1,2.2,2.2,2.2C37,84.5,38,83.5,38,82.3z"/>
<path class="st7" d="M71.7,94.1c0-1.4-2.1-2.6-4.7-2.6c-2.6,0-4.7,1.2-4.7,2.6c0,1.4,2.1,2.6,4.7,2.6C69.6,96.7,71.7,95.6,71.7,94.1
	z"/>
<path class="st7" d="M77.6,83.5c1.3,1.3,3.5,1.3,4.8,0c1.3-1.3,1.3-3.5,0-4.8c-1.3-1.3-3.5-1.3-4.8,0C76.3,80,76.3,82.2,77.6,83.5z
	 M80.6,78.6c0.4,0.4,0.4,1,0,1.4c-0.4,0.4-1,0.4-1.4,0c-0.4-0.4-0.4-1,0-1.4C79.6,78.2,80.2,78.2,80.6,78.6z"/>
<path class="st7" d="M52.8,81.6c-0.2,1.9,1.2,3.5,3.1,3.7c1.9,0.2,3.6-1.2,3.7-3.1c0.2-1.9-1.2-3.6-3.1-3.7
	C54.6,78.3,52.9,79.7,52.8,81.6z M58.5,80.7c0,0.5-0.5,0.9-1.1,0.9c-0.5-0.1-0.9-0.5-0.9-1.1c0.1-0.5,0.5-0.9,1.1-0.9
	C58.1,79.7,58.5,80.2,58.5,80.7z"/>
<g>
	<g>
		<path class="st7" d="M67.3,101.3c0.2,0.6,0.1,1.3,0.1,2c0,0.7,0,1.5,0,2.2c-0.1,1-0.3,2.5-1.4,3c-0.9,0.4-2,0-2.5-0.8
			c-0.5-0.8-0.6-1.7-0.6-2.6c0-0.9,0.1-1.9,0.4-2.8c0.1-0.2-0.3-0.3-0.3-0.1c-0.3,0.9-0.4,1.9-0.4,2.8c0,1,0.1,2.1,0.6,2.9
			c0.5,0.8,1.5,1.2,2.5,1c1.1-0.3,1.6-1.4,1.8-2.4c0.2-0.9,0.2-1.9,0.1-2.9c0-0.8,0.1-1.6-0.1-2.4C67.6,101,67.3,101.1,67.3,101.3
			L67.3,101.3z"/>
	</g>
</g>
<g>
	<g>
		<path class="st7" d="M56.1,129.3c0.3,1.9,1.6,3.5,3.1,4.7c1,0.7,2.5,1.7,3.8,1.3c0.7-0.2,1-0.9,1.1-1.6c0-0.2-0.3-0.2-0.3,0
			c-0.1,0.8-0.6,1.4-1.4,1.3c-0.7,0-1.4-0.3-2-0.7c-1.8-1-3.6-2.9-3.9-5C56.4,129.1,56.1,129.1,56.1,129.3L56.1,129.3z"/>
	</g>
</g>
<g>
	<g>
		<path class="st7" d="M61.9,132.5c0.5,0.5,1.1,0.9,1.8,1c0.6,0.1,1.1-0.4,1.2-1c0.3-1.7-1.2-2.9-2.5-3.7c-0.7-0.4-1.5-0.9-2.4-1.1
			c-0.2-0.1-0.3,0.3-0.1,0.3c0.6,0.2,1.2,0.5,1.8,0.8c0.7,0.4,1.4,0.8,1.9,1.4c0.5,0.4,0.9,1,1,1.6c0,0.6-0.1,1.3-0.8,1.4
			c-0.7,0.1-1.3-0.4-1.7-0.9C62,132.1,61.7,132.4,61.9,132.5L61.9,132.5z"/>
	</g>
</g>
<g>
	<g>
		<path class="st7" d="M100.8,114.3c0,6.6,0.6,13.2,1,19.8c0,0.4,0.7,0.4,0.7,0c-0.4-6.6-1.1-13.2-1-19.8
			C101.5,113.8,100.8,113.8,100.8,114.3L100.8,114.3z"/>
	</g>
</g>
<g>
	<g>
		<path class="st7" d="M95.4,79.8c4,5.9,4.4,12.9,4.4,19.8c0,6.2,0.7,13.4-4.3,17.9c-0.3,0.3,0.1,0.7,0.5,0.5c2-1.8,4.5-3.1,6.3-5.1
			c1.7-1.9,2.4-4.3,2.7-6.8c0.7-6.1-0.4-12.5-2.6-18.2c-0.1-0.4-0.8-0.2-0.6,0.2c2,5.4,3.1,11.4,2.6,17.2c-0.2,2.8-1,5.6-3,7.6
			c-1.8,1.8-4,3-5.9,4.7c0.2,0.2,0.3,0.3,0.5,0.5c5.1-4.6,4.5-11.7,4.5-18c0-7.1-0.3-14.4-4.5-20.5C95.7,79.2,95.1,79.5,95.4,79.8
			L95.4,79.8z"/>
	</g>
</g>
<g>
	<g>
		<path class="st7" d="M47.5,76.9c-0.3-0.3-0.5-0.7-0.8-1c-0.1-0.1-0.1-0.1-0.2-0.1c-0.1,0-0.2,0-0.3,0c-0.1,0-0.1,0.1-0.1,0.2
			c0,0.1,0,0.2,0,0.3c0.3,0.3,0.5,0.7,0.8,1c0.1,0.1,0.1,0.1,0.2,0.1c0.1,0,0.2,0,0.3,0c0.1,0,0.1-0.1,0.1-0.2
			C47.6,77.1,47.6,77,47.5,76.9L47.5,76.9z"/>
	</g>
</g>
<g>
	<g>
		<path class="st7" d="M50.4,75.5c0-0.3,0-0.7,0-1c0-0.2-0.1-0.3-0.3-0.3c-0.2,0-0.3,0.1-0.3,0.3c0,0.3,0,0.7,0,1
			c0,0.2,0.1,0.3,0.3,0.3C50.2,75.8,50.4,75.7,50.4,75.5L50.4,75.5z"/>
	</g>
</g>
<g>
	<g>
		<path class="st7" d="M56.4,75.4c0.2-0.5,0.3-1,0.5-1.6c0.1-0.2-0.1-0.4-0.2-0.4c-0.2,0-0.3,0.1-0.4,0.2c-0.2,0.5-0.3,1-0.5,1.6
			c-0.1,0.2,0.1,0.4,0.2,0.4C56.2,75.6,56.3,75.5,56.4,75.4L56.4,75.4z"/>
	</g>
</g>
<g>
	<g>
		<path class="st7" d="M77.9,74.2c-0.2-0.4-0.3-0.9-0.5-1.3c0-0.1-0.1-0.1-0.1-0.2c-0.1,0-0.2-0.1-0.3,0c-0.2,0-0.3,0.2-0.2,0.4
			c0.2,0.4,0.3,0.9,0.5,1.3c0,0.1,0.1,0.1,0.1,0.2c0.1,0,0.2,0.1,0.3,0C77.8,74.5,78,74.3,77.9,74.2L77.9,74.2z"/>
	</g>
</g>
<g>
	<g>
		<path class="st7" d="M82.1,74c0.1-0.4,0.2-0.9,0.3-1.3c0-0.2,0-0.4-0.2-0.4c-0.2,0-0.4,0-0.4,0.2c-0.1,0.4-0.2,0.9-0.3,1.3
			c0,0.2,0,0.4,0.2,0.4C81.9,74.3,82.1,74.2,82.1,74L82.1,74z"/>
	</g>
</g>
<g>
	<g>
		<path class="st7" d="M86.2,75.8c0.4,0,0.4-0.7,0-0.7C85.8,75.2,85.8,75.8,86.2,75.8L86.2,75.8z"/>
	</g>
</g>
<g>
	<g>
		<path class="st7" d="M86.5,76c0.3-0.4,0.5-0.9,0.8-1.3c0.1-0.1,0-0.4-0.1-0.4c-0.2-0.1-0.4,0-0.4,0.1c-0.3,0.4-0.5,0.9-0.8,1.3
			c-0.1,0.1,0,0.4,0.1,0.4C86.2,76.2,86.4,76.1,86.5,76L86.5,76z"/>
	</g>
</g>
<g>
	<g>
		<path class="st7" d="M68.2,71.5c-6.5,4.4-15.5,4.1-20.7,10.5c-2.4,3-3.8,6.8-4.3,10.6c-0.6,4.9-1,10.1-0.5,15
			c0.4,4.5,2.1,9,5.6,12.1c0.1-0.2,0.2-0.4,0.2-0.6c-7-0.6-14.5-4.6-18.1-10.9c-3.4-6.1-1.1-13.7-0.9-20.2c0-0.4-0.6-0.4-0.7,0
			c-0.2,6.9-2.7,15,1.4,21.2c4,6.1,11.1,10,18.3,10.6c0.3,0,0.4-0.4,0.2-0.6c-7.1-6.3-5.5-16.7-5-25.1c0.3-4.2,1.5-8.4,4.2-11.7
			c2.4-3,6-4.5,9.5-5.7c3.8-1.3,7.7-2.3,11.1-4.6C68.9,71.8,68.5,71.2,68.2,71.5L68.2,71.5z"/>
	</g>
</g>
<g>
	<g>
		<path class="st7" d="M36,75c3.3-4.3,7.3-8.5,12.5-10.4c2.6-1,5.5-1.4,8.3-0.8c2.7,0.6,5.1,2.1,7.4,3.7c0.3,0.2,0.7-0.3,0.3-0.6
			c-2.3-1.6-4.8-3.2-7.6-3.7c-2.7-0.6-5.6-0.3-8.2,0.6c-5.5,1.9-9.7,6.2-13.2,10.7C35.3,74.9,35.8,75.3,36,75L36,75z"/>
	</g>
</g>
<g>
	<g>
		<path class="st7" d="M64.7,67.2c8.3-9.8,23.2-1.3,29.5,6.6c0.3,0.3,0.7-0.1,0.5-0.5c-6.6-8.1-21.9-16.7-30.5-6.6
			C63.9,67.1,64.4,67.6,64.7,67.2L64.7,67.2z"/>
	</g>
</g>
<g>
	<g>
		<path class="st7" d="M63.9,66.9c0.7-0.9,0-1.8-0.5-2.7c-0.3-0.6-0.7-1.3-1-1.9c-0.5-0.8-1.8-3.1-3-2.2c-0.7,0.6-0.7,1.7,0,2.3
			c1.1,0.9,2.5,0.1,3.3-0.9c0.4-0.5,0.8-1.2,0.8-1.8c0-0.7-0.4-1.2-0.9-1.7c-1.2-1-2.7-1.7-4.2-2c-0.8-0.2-1.6-0.3-2.3,0.1
			c-0.6,0.3-1,0.9-0.9,1.6c0.1,0.6,0.7,1,1.3,1.1c0.8,0.1,1.5-0.3,2.1-0.8c0.3-0.2,0-0.8-0.3-0.6c-0.4,0.3-0.9,0.7-1.5,0.7
			c-0.6,0-1.2-0.4-0.9-1c0.6-1,2.3-0.5,3.2-0.2c1.1,0.3,2.1,0.9,3,1.5c0.5,0.4,0.9,0.8,0.8,1.5c-0.1,0.6-0.5,1.1-0.9,1.5
			c-0.4,0.4-0.9,0.8-1.4,0.8c-0.6,0-1.1-0.5-0.9-1.1c0.1-0.3,0.3-0.6,0.6-0.5c0.4,0.1,0.7,0.6,1,1c0.4,0.5,0.7,1,1,1.5
			c0.3,0.5,0.5,0.9,0.8,1.4c0.3,0.6,1,1.4,0.5,2.1C63.1,66.9,63.7,67.2,63.9,66.9L63.9,66.9z"/>
	</g>
</g>
<g>
	<g>
		<path class="st7" d="M64.6,67.2c0-2.1,0.7-4.1,1.9-5.8c0.2-0.3-0.3-0.7-0.6-0.3c-1.3,1.8-2,3.9-2,6.1C64,67.6,64.6,67.6,64.6,67.2
			L64.6,67.2z"/>
	</g>
</g>
<g>
	<g>
		<path class="st7" d="M71.5,102.3c2,1,4.3,1,6.3,0c2-0.9,3.9-3.1,3.5-5.4c-0.1-0.4-0.7-0.2-0.6,0.2c0.4,2.1-1.6,4-3.3,4.7
			c-1.7,0.8-3.8,0.8-5.5-0.1C71.5,101.6,71.1,102.1,71.5,102.3L71.5,102.3z"/>
	</g>
</g>
<g>
	<g>
		<path class="st7" d="M79.4,97.6c1.5-0.7,3.6,0.3,4,1.9c0.1,0.4,0.7,0.2,0.6-0.2c-0.5-2.1-3.1-3.2-5-2.3
			C78.7,97.2,79,97.8,79.4,97.6L79.4,97.6z"/>
	</g>
</g>
<g>
	<g>
		<path class="st7" d="M95,37.6c-0.8,1.8-3.5,0.4-4.8-0.1c-0.6-0.2-1.3-0.5-1.8-0.9c-0.3-0.2-0.7-0.4-0.8-0.7
			c-0.2-0.4,0.4-0.5,0.7-0.6c0.2-0.1,0.1-0.4-0.1-0.3c-1.3,0.3-2.9-0.7-2.9-2.1c-0.1-1.4,1.3-2.6,2.7-2.5c0.1,0,0.2-0.1,0.2-0.2
			c0-1.3,0.5-2.8,1.8-3.2c1.2-0.4,2.8,0.5,2.7,1.8c0,0.2,0.3,0.2,0.3,0c0.1-0.9,0.9-1.6,1.8-1.8c0.9-0.2,1.9,0.4,2.5,1.1
			c1.3,1.5,1.1,4.5-1.2,4.8c-0.1,0-0.2,0.2-0.1,0.3c0.8,0.4,1.2,1.5,0.6,2.3c-0.6,0.7-1.8,0.6-2.4-0.1c-0.1,0.1-0.1,0.2-0.2,0.3
			C94.8,35.9,95.3,36.8,95,37.6c-0.1,0.2,0.2,0.3,0.3,0.1c0.3-1-0.3-2.1-1.3-2.3c-0.2,0-0.3,0.1-0.2,0.3c0.7,0.8,2.1,0.9,2.9,0
			c0.7-0.9,0.3-2.3-0.7-2.8c0,0.1-0.1,0.2-0.1,0.3c2.6-0.3,2.9-3.6,1.5-5.3c-0.7-0.8-1.8-1.4-2.9-1.1c-1,0.2-1.8,1-1.9,2.1
			c0.1,0,0.2,0,0.3,0c0-1.4-1.5-2.5-2.8-2.2c-1.6,0.3-2.5,2.1-2.4,3.6c0.1-0.1,0.1-0.1,0.2-0.2c-1.6-0.1-3.2,1.3-3,3
			c0.2,1.6,1.8,2.6,3.3,2.3c0-0.1-0.1-0.2-0.1-0.3c-0.7,0.2-1.3,0.6-0.7,1.3c0.6,0.7,1.6,1,2.3,1.3c1.5,0.6,4.6,2.3,5.5,0.1
			C95.4,37.6,95.1,37.5,95,37.6z"/>
	</g>
</g>
<g>
	<g>
		<path class="st7" d="M94.8,43c0.2,0.5,0,1.1,0.4,1.5c0.1,0.1,0.2,0,0.3-0.1c0.4-1.1,1.6-3.1,3-2c1.2,1,0.7,3-0.4,3.8
			c0.1,0.1,0.2,0.1,0.3,0.2c0.6-1.2,2.3-0.5,2.2,0.7c-0.1,1.3-1.8,1.5-2.6,0.8c-0.1-0.1-0.3,0-0.3,0.1c0.1,1.4-0.8,2.9-2.3,3
			c-1.5,0.2-2.9-1.6-2.2-3c0.1-0.2-0.1-0.3-0.2-0.2c-1,0.4-2.3-0.3-2.3-1.5c0-1.1,1.3-1.8,2.3-1.4c0.2,0.1,0.3-0.2,0.1-0.3
			c-1.2-0.5-2.7,0.5-2.7,1.8c0.1,1.3,1.6,2.1,2.8,1.6c-0.1-0.1-0.1-0.1-0.2-0.2c-0.8,1.5,0.5,3.4,2.1,3.5c1.8,0.1,3-1.8,2.9-3.4
			c-0.1,0-0.2,0.1-0.3,0.1c1.1,1,3.1,0.5,3.2-1.1c0-1.5-2.1-2.2-2.8-0.8c-0.1,0.2,0.1,0.3,0.3,0.2c1.2-1,1.7-3.3,0.3-4.4
			c-1.5-1.1-3,1-3.4,2.3c0.1,0,0.2,0,0.3-0.1c-0.3-0.3-0.2-0.9-0.4-1.4C95,42.7,94.7,42.8,94.8,43L94.8,43z"/>
	</g>
</g>
<g>
	<g>
		<path class="st7" d="M92.8,45c-0.1-0.6,0-1.3,0.4-1.9c0.1-0.1,0-0.2-0.1-0.2c-0.1,0-0.2,0-0.2,0.1c-0.4,0.6-0.5,1.4-0.4,2.1
			C92.5,45.2,92.9,45.2,92.8,45L92.8,45z"/>
	</g>
</g>
<g>
	<g>
		<path class="st7" d="M96.5,57.7c-0.9,0.8-2.1,0.5-3.1-0.1c-0.2-0.1-0.3,0.1-0.2,0.3c0.6,0.7-0.1,1.7-0.8,2c-0.3,0.1-0.8,0-1.1-0.2
			c-0.3-0.1-0.6-0.3-0.8-0.6c-0.5-0.5-0.8-1.2-0.8-1.9c0-0.3,0-0.7,0.2-1c0.1-0.2,0.2-0.4,0.3-0.5c0.2-0.1,0.4,0,0.5,0.2
			c0.1,0.2,0.4-0.1,0.2-0.2c-0.2-0.2-0.5-0.4-0.8-0.3c-0.3,0.1-0.5,0.4-0.6,0.7c-0.3,0.7-0.2,1.5,0,2.2c0.3,0.7,0.8,1.3,1.4,1.6
			c0.3,0.2,0.6,0.3,1,0.3c0.4,0,0.7-0.2,1.1-0.4c0.7-0.5,0.9-1.5,0.4-2.2c-0.1,0.1-0.1,0.2-0.2,0.3c1.1,0.6,2.4,0.9,3.5,0
			C96.9,57.8,96.7,57.5,96.5,57.7L96.5,57.7z"/>
	</g>
</g>
<g>
	<g>
		<path class="st7" d="M90.7,55.5c-0.4-0.3-0.6-0.9-0.3-1.4c0.3-0.4,0.8-0.7,1.3-0.6c0.3,0.1,0.6,0.2,0.8,0.5
			c0.2,0.2,0.3,0.3,0.6,0.3c0.6,0,1.1-0.7,1.7-0.5c0.7,0.2,1.1,1.1,0.5,1.6c-0.1,0.1,0,0.4,0.2,0.3c0.1,0,0.1-0.1,0.2-0.1
			c0.2-0.1,0.1-0.4-0.1-0.3c-0.1,0-0.2,0.1-0.3,0.1c0.1,0.1,0.1,0.2,0.2,0.3c0.5-0.5,0.4-1.3-0.1-1.8c-0.3-0.2-0.6-0.4-0.9-0.4
			c-0.4,0-0.7,0.2-1,0.4C93.4,54,93.2,54.1,93,54c-0.2,0-0.3-0.2-0.4-0.4c-0.3-0.2-0.6-0.4-0.9-0.4c-0.6-0.1-1.2,0.3-1.5,0.8
			c-0.4,0.7-0.1,1.4,0.4,1.8C90.7,55.9,90.9,55.7,90.7,55.5L90.7,55.5z"/>
	</g>
</g>
<g>
	<g>
		<path class="st7" d="M87,60.2c0,0.1,0.1,0.3,0,0.4c0,0.1,0.1,0.3,0.2,0.2c0.6-0.4,1.4,0.4,1.1,1.1c-0.3,0.6-1.2,0.7-1.7,0.4
			c-0.1-0.1-0.3,0.1-0.2,0.2c0.4,0.6-0.6,1.2-1.1,0.8c-0.5-0.3-0.4-1.2-0.1-1.6c0.1-0.2-0.1-0.4-0.2-0.2c-0.4,0.5-0.5,1.3-0.2,1.8
			c0.4,0.6,1.2,0.6,1.7,0.1c0.3-0.3,0.3-0.7,0.1-1c-0.1,0.1-0.1,0.1-0.2,0.2c0.6,0.4,1.4,0.3,1.9-0.2c0.6-0.5,0.4-1.4-0.2-1.8
			c-0.3-0.2-0.8-0.3-1.1,0c0.1,0.1,0.2,0.1,0.2,0.2c0-0.2,0-0.4,0-0.6C87.3,59.9,87,60,87,60.2L87,60.2z"/>
	</g>
</g>
<g>
	<g>
		<path class="st7" d="M85.2,61.2c0,0-0.1,0-0.1,0c0,0,0,0-0.1,0c0,0,0,0,0,0c0,0,0,0,0,0c0,0,0,0,0,0c-0.1,0-0.3,0-0.4,0
			c-0.1,0-0.1,0-0.2,0c0,0-0.1,0,0,0c0,0,0,0,0,0c0,0-0.1,0-0.1,0c0,0,0,0,0,0c0,0,0,0,0,0c0,0,0,0,0,0c0,0,0,0,0,0c0,0,0,0,0,0
			c0,0,0,0,0,0c0,0,0,0,0,0c0,0,0,0,0,0c0,0,0,0,0,0c0,0,0,0,0,0c0,0,0,0,0,0c0,0,0,0,0,0c0,0,0,0,0-0.1c0,0,0,0,0,0c0,0,0-0.1,0,0
			c0,0,0,0,0,0c0,0,0,0,0,0c0,0,0,0,0,0c0,0,0,0,0,0c0,0,0,0,0,0c0.2-0.1,0.4-0.2,0.6-0.3c0.2-0.1,0.4-0.1,0.5-0.2
			c0.1,0,0.1-0.1,0.1-0.2c0-0.1-0.1-0.1-0.2-0.1c-0.2,0.1-0.3,0.2-0.5,0.2c-0.2,0.1-0.4,0.2-0.6,0.3c-0.2,0.1-0.4,0.3-0.3,0.6
			c0.1,0.3,0.3,0.4,0.6,0.4c0.3,0,0.6,0,0.9-0.1c0.1,0,0.1-0.1,0.1-0.2C85.4,61.2,85.3,61.2,85.2,61.2L85.2,61.2z"/>
	</g>
</g>
<g>
	<g>
		<path class="st7" d="M64.4,11.1c-6.7,0-12.2,5.5-12.2,12.2c0,6.3,4.8,11.5,11,12.2c0-0.2,0-0.3,0-0.5c-5.9-0.6-10.5-5.6-10.5-11.7
			c0-6.5,5.3-11.8,11.8-11.8c6.5,0,11.8,5.3,11.8,11.8c0,6.1-4.7,11.2-10.7,11.7c0,0.2,0,0.3,0,0.5c6.3-0.5,11.2-5.8,11.2-12.2
			C76.7,16.5,71.2,11.1,64.4,11.1z"/>
	</g>
	<g>
		<path class="st7" d="M64.4,14.1c-5.1,0-9.2,4.1-9.2,9.2c0,4.6,3.5,8.5,7.9,9.1c0-0.2,0-0.3,0-0.5c-4.2-0.6-7.5-4.3-7.5-8.6
			c0-4.8,3.9-8.7,8.7-8.7c4.8,0,8.7,3.9,8.7,8.7c0,4.5-3.4,8.2-7.7,8.7c0,0.2,0,0.3,0,0.5c4.6-0.5,8.2-4.4,8.2-9.1
			C73.6,18.2,69.5,14.1,64.4,14.1z"/>
	</g>
	<g>
		<g>
			<path class="st7" d="M62.8,35.3c0,0.8,0,1.5,0.1,2.3c0,0.3,0.1,0.7,0.1,1c0,0.3,0.1,0.8,0,1c-0.1,0.2-0.2,0.1-0.4,0.1
				c-0.4,0-0.7,0-1.1,0c-0.4,0-0.9,0.2-1.3,0.2c-0.4,0-0.9-0.2-1.1,0.2C59,40.2,59,40.4,59,40.5c0,0.4,0,0.8,0,1.2
				c0,0.3,0,0.6,0.1,0.8c0,0.1,0.1,0.1,0,0c0,0.1,0,0.2,0.2,0.3c0.2,0.1,0.7,0,1,0c0.9,0,1.7-0.1,2.6-0.1c0.2,0,0.2-0.3,0-0.3
				c-1.1,0.1-2.2,0.1-3.4,0.2c-0.1,0,0,0.1,0-0.1c0-0.1-0.1-0.1-0.1-0.1c0,0,0-0.1,0-0.1c0-0.2,0-0.4,0-0.6c0-0.3,0-0.7,0-1
				c0-0.2,0-0.4,0.2-0.5c0.2,0,0.5,0.1,0.7,0.1c0.2,0,0.3,0,0.5-0.1c0.6-0.1,1.2-0.1,1.8-0.1c0.3,0,0.6,0,0.7-0.3
				c0.3-0.6,0-1.3-0.1-1.9c-0.1-0.8-0.1-1.7-0.1-2.5C63.1,35.1,62.8,35.1,62.8,35.3L62.8,35.3z"/>
		</g>
	</g>
	<g>
		<g>
			<path class="st7" d="M65.5,35.1c-0.1,1.6-0.1,3.1-0.1,4.7c0,0.1,0.1,0.2,0.2,0.2c1.2,0,2.3,0.1,3.5,0.2c0.2,0,0.2-0.3,0-0.3
				c-1.2-0.1-2.3-0.2-3.5-0.2c0.1,0.1,0.1,0.1,0.2,0.2c0-1.6,0-3.1,0.1-4.7C65.8,34.9,65.5,34.9,65.5,35.1L65.5,35.1z"/>
		</g>
	</g>
	<g>
		<g>
			<path class="st7" d="M68.7,40.1c-0.1,0.8-0.2,1.6-0.1,2.3c0.1-0.1,0.1-0.1,0.2-0.2c-1.1,0-2.2,0-3.4,0c-0.2,0-0.2,0.3,0,0.3
				c1.1,0,2.2,0,3.4,0c0.1,0,0.2-0.1,0.2-0.2c0-0.8,0-1.5,0.1-2.3C69,40,68.7,39.9,68.7,40.1L68.7,40.1z"/>
		</g>
	</g>
	<g>
		<g>
			<path class="st7" d="M63.2,32.3c0.8,0,1.5,0,2.3,0c0.2,0,0.2-0.3,0-0.3c-0.8,0-1.5,0-2.3,0C63,32,63,32.3,63.2,32.3L63.2,32.3z"
				/>
		</g>
	</g>
</g>
<g>
	<g>
		<path class="st7" d="M52.5,8.1c1.2,1.1,2.5,2.1,3.9,3c0.2,0.1,0.3-0.2,0.2-0.3c-1.3-0.9-2.6-1.9-3.8-2.9C52.5,7.8,52.3,8,52.5,8.1
			L52.5,8.1z"/>
	</g>
</g>
<g>
	<g>
		<path class="st7" d="M62.7,5.4c0.2,1.2,0.5,2.3,0.7,3.5c0,0.2,0.4,0.1,0.3-0.1c-0.2-1.2-0.5-2.3-0.7-3.5C63,5.1,62.7,5.2,62.7,5.4
			L62.7,5.4z"/>
	</g>
</g>
<g>
	<g>
		<path class="st7" d="M70.6,10.7c0.4-1.5,1-3,1.8-4.4c0.1-0.2-0.2-0.3-0.3-0.2c-0.9,1.4-1.5,2.9-1.9,4.5
			C70.3,10.8,70.6,10.9,70.6,10.7L70.6,10.7z"/>
	</g>
</g>
<g>
	<g>
		<path class="st7" d="M76.7,14.7c1.6-1.4,3.2-2.7,4.8-4.1c0.2-0.1-0.1-0.4-0.2-0.2c-1.6,1.4-3.2,2.7-4.8,4.1
			C76.3,14.6,76.5,14.8,76.7,14.7L76.7,14.7z"/>
	</g>
</g>
<g>
	<g>
		<path class="st7" d="M79.1,19.6c1.8-0.4,3.6-0.6,5.4-0.6c0.2,0,0.2-0.3,0-0.3c-1.9,0-3.7,0.2-5.5,0.6
			C78.9,19.3,78.9,19.7,79.1,19.6L79.1,19.6z"/>
	</g>
</g>
<g>
	<g>
		<path class="st7" d="M79.1,25.3c1.3-0.3,2.6-0.3,3.8,0.1c0.2,0.1,0.3-0.2,0.1-0.3c-1.3-0.4-2.7-0.5-4-0.1
			C78.9,25.1,78.9,25.4,79.1,25.3L79.1,25.3z"/>
	</g>
</g>
<g>
	<g>
		<path class="st7" d="M75.6,30.5c1.4,1.1,3,1.9,4.7,2.4c0.2,0.1,0.3-0.3,0.1-0.3c-1.7-0.5-3.3-1.3-4.6-2.3
			C75.6,30.1,75.5,30.4,75.6,30.5L75.6,30.5z"/>
	</g>
</g>
<g>
	<g>
		<path class="st7" d="M72.3,35.2c0.3,1.7,1,3.3,2,4.7c0.1,0.2,0.4,0,0.3-0.2c-1-1.4-1.7-2.9-2-4.6C72.6,34.9,72.3,35,72.3,35.2
			L72.3,35.2z"/>
	</g>
</g>
<g>
	<g>
		<path class="st7" d="M56.6,40.8c0-1.7,0.7-3.4,1.8-4.6c0.1-0.2-0.1-0.4-0.2-0.2c-1.2,1.3-1.9,3-1.9,4.8C56.2,41,56.6,41,56.6,40.8
			L56.6,40.8z"/>
	</g>
</g>
<g>
	<g>
		<path class="st7" d="M49,35.5c1.3-1.2,2.8-2.3,4.4-3.1c0.2-0.1,0-0.4-0.2-0.3c-1.6,0.9-3.1,1.9-4.4,3.2
			C48.6,35.4,48.9,35.6,49,35.5L49,35.5z"/>
	</g>
</g>
<g>
	<g>
		<path class="st7" d="M44,27.5c2.2-0.3,4.3-0.8,6.3-1.5c0.2-0.1,0.1-0.4-0.1-0.3c-2,0.7-4.1,1.2-6.2,1.5
			C43.8,27.2,43.8,27.5,44,27.5L44,27.5z"/>
	</g>
</g>
<g>
	<g>
		<path class="st7" d="M45.2,16c2,0.7,4.1,1.1,6.3,1.3c0.2,0,0.2-0.3,0-0.3c-2.1-0.2-4.2-0.6-6.2-1.3C45.1,15.6,45,15.9,45.2,16
			L45.2,16z"/>
	</g>
</g>
<g>
	<g>
		<path class="st7" d="M21.6,136.6c25.6-0.7,51.1-1.3,76.7-2c7.2-0.2,14.5-0.4,21.7-0.6c0.4,0,0.4-0.7,0-0.7
			c-25.6,0.7-51.1,1.3-76.7,2c-7.2,0.2-14.5,0.4-21.7,0.6C21.2,136,21.2,136.6,21.6,136.6L21.6,136.6z"/>
	</g>
</g>
<g>
	<g>
		<path class="st7" d="M62.8,42.5c-0.1,1.6-0.1,3.3,0.1,4.9c0,0.2,0.3,0.2,0.3,0c-0.2-1.6-0.2-3.3-0.1-4.9
			C63.1,42.3,62.8,42.3,62.8,42.5L62.8,42.5z"/>
	</g>
</g>
<g>
	<g>
		<path class="st7" d="M65.2,42.6c0.2,1.7,0.2,3.3,0.2,5c0,0.2,0.3,0.2,0.3,0c0-1.7-0.1-3.3-0.2-5C65.5,42.4,65.2,42.4,65.2,42.6
			L65.2,42.6z"/>
	</g>
</g>
<g>
	<g>
		<path class="st7" d="M63,47.9c0.8,0.2,1.7,0.2,2.5,0c0.2-0.1,0.1-0.4-0.1-0.3c-0.8,0.2-1.6,0.2-2.3,0C62.9,47.6,62.8,47.9,63,47.9
			L63,47.9z"/>
	</g>
</g>
<g>
	<g>
		<path class="st7" d="M63.2,32.4c0.8,0.1,1.7,0.1,2.5,0c0.2,0,0.2-0.3,0-0.3c-0.8,0.1-1.7,0.1-2.5,0C63,32,63,32.4,63.2,32.4
			L63.2,32.4z"/>
	</g>
</g>
<g>
	<g>
		<path class="st7" d="M63.1,32.2c1,0.2,1.9,0.2,2.9,0c0.2,0,0.1-0.4-0.1-0.3c-0.9,0.2-1.8,0.2-2.7,0C63,31.9,62.9,32.2,63.1,32.2
			L63.1,32.2z"/>
	</g>
</g>
<g>
	<g>
		<path class="st7" d="M85.6,60c0-0.3,0.4-0.6,0.7-0.6c0.4,0,0.6,0.4,0.7,0.7c0,0.1,0.1,0.1,0.2,0.1c0.1,0,0.1-0.1,0.1-0.2
			c-0.1-0.5-0.5-0.9-1-1c-0.5,0-1,0.4-1,0.9C85.2,60.2,85.6,60.2,85.6,60L85.6,60z"/>
	</g>
</g>
<g>
	<g>
		<path class="st7" d="M96.8,57.8c0.3-0.5,0.3-1.2,0.1-1.7c-0.1-0.3-0.2-0.6-0.5-0.7c-0.2-0.2-0.6-0.2-0.8,0c-0.1,0.1-0.1,0.2,0,0.2
			c0.1,0.1,0.2,0.1,0.2,0c0.2-0.1,0.4,0,0.5,0.2c0.1,0.2,0.2,0.4,0.3,0.6c0.1,0.4,0.1,0.9-0.1,1.3C96.4,57.8,96.7,57.9,96.8,57.8
			L96.8,57.8z"/>
	</g>
</g>
<g>
	<g>
		<path class="st7" d="M93.2,43c0.1-0.3,0.5-0.4,0.8-0.4c0.2,0,0.4,0,0.5,0c0.1,0,0.2,0.1,0.2,0.2c0,0.2,0.3,0.3,0.3,0.1
			c0-0.2-0.1-0.4-0.3-0.6c-0.2-0.1-0.5-0.1-0.7-0.1c-0.4,0-1,0.1-1.2,0.5C92.8,43.1,93.1,43.2,93.2,43L93.2,43z"/>
	</g>
</g>
</svg>
