<?xml version="1.0" encoding="utf-8"?>
<!-- Generator: Adobe Illustrator 24.0.1, SVG Export Plug-In . SVG Version: 6.00 Build 0)  -->
<svg version="1.1" id="Layer_1" xmlns="http://www.w3.org/2000/svg" xmlns:xlink="http://www.w3.org/1999/xlink" x="0px" y="0px"
	 viewBox="0 0 141.7 141.7" style="enable-background:new 0 0 141.7 141.7;" xml:space="preserve">
<style type="text/css">
	.st0{fill:#784725;}
	.st1{fill:#E9612A;}
	.st2{fill:#F89C5F;}
	.st3{fill:#E44525;}
	.st4{fill:#FEDC04;}
	.st5{fill:#F57E20;}
	.st6{fill:#2CB3C1;}
	.st7{fill:#FFFFFF;}
	.st8{fill:#BC812B;}
	.st9{fill:#7A2416;}
	.st10{fill:#A32F22;}
	.st11{fill:#497136;}
	.st12{fill:#B1BC6D;}
	.st13{fill:#5C9145;}
	.st14{fill:#A0A537;}
	.st15{fill:#6FA543;}
	.st16{fill:#6C6F2E;}
	.st17{fill:#B95D27;}
	.st18{fill:#9E4C23;}
	.st19{fill:#F8E68F;}
	.st20{fill:#63855A;}
	.st21{fill:#417C3B;}
	.st22{fill:#FECF0C;}
	.st23{fill:#CF9B2A;}
	.st24{fill:#A89C34;}
	.st25{fill:#F2E4A0;}
	.st26{fill:#6B1F10;}
	.st27{fill:#8A3A31;}
	.st28{fill:#BB4927;}
	.st29{fill:#8C271C;}
	.st30{fill:#EFA328;}
	.st31{fill:#BCA095;}
	.st32{fill:#C9B09D;}
	.st33{fill:#8C7358;}
	.st34{fill:#835F46;}
	.st35{fill:#5B3F2C;}
	.st36{fill:#F79022;}
	.st37{fill:#945A32;}
	.st38{fill:#442916;}
	.st39{fill:#5E371C;}
	.st40{fill:#070707;}
	.st41{fill:none;stroke:#070707;stroke-width:0.42;stroke-miterlimit:10;}
</style>
<path class="st0" d="M19.4,22.6c0,0,4,4.6,4.6,2.1l4,1.7l3,0.6l3.2,0.4c0,0,2,0,2.8,1.4l0.5,1.5l0.6,3.2l0.8,1.3l1.3,0.5
	c0,0-0.1,0.3,0,0.4c0.1,0.1,1,1,1,1l1.2,0.8l-0.9,0.1l-0.8-0.4l-2-0.6l-1.2-0.9l-0.6-1.5l-0.4-1.9l-0.6-1.7l-1.4-1.3l-1.5-0.7
	L30.7,28l-2.6-0.5L25.3,27l-2.5-0.7L21,25l-1.1-1.2L19.4,22.6z"/>
<polygon class="st1" points="42.2,17.9 40.1,17.6 40.1,17.9 41.1,18.6 40.5,19.2 39.7,21.3 41,20.4 41.4,19.8 41.3,21.5 41.7,22.6 
	42,22.9 42,21.1 42.3,20 42.3,18.8 "/>
<polygon class="st2" points="44,16 43.7,17.2 43.5,18.1 43.1,18.6 42.5,18.8 42.3,17.9 42.9,16.9 "/>
<path class="st3" d="M42.2,22.8l0.5-0.9c0,0,0.5-1.2,0.5-1.1c-0.1,0.1-0.1-0.8-0.1-0.8l0.5,1.1l0.8,0.6l0.8,0.5l0.9,0.3L46,21.3
	l-0.2-0.6l-0.6-0.8l-0.7-0.5l1.2-0.2l0.8-0.3l0.6-0.6l-1.1,0h-1.2L44,18.4c0,0,0.5-0.8,0.5-1c0-0.1,0.1-1,0.1-1L44.3,16l-0.3,0.6
	l-0.3,1l-0.3,0.7l-0.3,0.3l-0.6,0.3L42.3,20L42,21.4l0,1.5L42.2,22.8z"/>
<path class="st4" d="M57.8,18.8c0,0-3.5,3-1.4,7.2l1.3,1.5c0,0,3.3,2.5,5.4,0.1c0.1-0.1,2.3-2.1,0.8-6.4l-0.9-2.1l-1.5-2l-0.9-0.6
	l-1-0.2l-0.8,0.7L57.8,18.8z"/>
<path class="st5" d="M59.8,20.1c0,0-2.5,1.9-0.4,2c0,0,2.1-0.2,2.1-1.2l-0.7-0.7L59.8,20.1z"/>
<polygon class="st6" points="57.8,18.5 58.8,17.1 59.4,16.7 58.8,16.6 58.2,16.8 57.8,17.2 57.6,17.8 "/>
<path class="st7" d="M60,17.5l-0.6-0.8l-0.9,0.8l-0.6,1C57.8,18.5,59.9,20.1,60,17.5z"/>
<path class="st6" d="M61.7,17c0.1,0,1.6-0.3,1.6,1.2l-0.1,0.6l-0.2,0.2l-0.9-1.4L61.7,17z"/>
<path class="st7" d="M61.2,17.2c0,0-1.1,1.7,0.9,1.9l0.9-0.3l-0.7-1.1L61.7,17L61.2,17.2z"/>
<path class="st8" d="M57.8,29.6c0,0-1.5,2.5-0.5,4c0,0,2,1.6,4.2,0.9c0,0,2.3-0.7,1.1-2.3l-0.7-0.7l-0.3-0.5l-2.3-0.8L57.8,29.6z"/>
<path class="st0" d="M69.2,20.1l0.5,1.9l1.7,3.7l1.7,2.7l2.3,2.4l1.9,2.2c0,0,0.2,0.2,0.3,0.3c0.2,0.1,1.9,1,2,1.1
	c0.1,0,2.8,1.4,2.8,1.4l2.7,1.3l2.7,1.1l1.4,1.1v-0.4c0,0,1,0.4,1.1,0.4c0.2,0,5.2,1.4,5.3-5.1l-0.1-2.8c0,0-0.6-2.1-0.6-2.1
	c0,0-1.1-2.6-1.1-2.6L93.7,26l-0.2-1.6l0.5-1.8l1.1-2.2l0.6-1.5l0.3,0.2l0.8-1.6l0.8-1.4l-1,3.7c0,0-0.7,2.7-0.7,2.7
	c0,0-0.2,2.3-0.2,2.3l0.2,2.7c0,0,0.8,3.2,3.7,0.9l0.7-1.9l-0.1-1.9l-0.7-2.9l-0.4-1.8L99,19l0.1-1.5l0.3-0.5l0.6-1.3l0.4,0.3
	c0,0-1.2,1.4-0.7,2.7l1,2.4l0.7,3.2l0.2,3.5l-0.3,2.8l-0.4,2.6c0,0-0.5,2.8-0.6,2.9s-0.5,1.9-0.5,1.9s-0.5,3.1,2.7,1.4l2-1.9
	c0,0,1.9-2.1,2-2.2c0-0.1,1.9-2.4,1.9-2.4l1.4-1.8l1.5-1.9l2.1-2.1L115,26l2.3-0.9l2-0.3h1.5l-0.7,1l-2.6,0.4l-3,1.8l-2.5,1.8
	l-1.9,1.9l-1.9,2.4l-1.3,2.3l-2.2,4.4l-2.1,4.2l-0.8,2c0,0-0.2,2.4-0.2,2.5c0,0.1,0.1,2.6,0.1,2.8c0,0.1-0.2,2.6-0.2,2.6
	s0,2.8,0,2.9c0,0.1,0.5,2.6,0.5,2.6l0.3,1.7l-0.1,2l0.7,9.9l0.5,2.5c0,0,0.5,3.7,0.5,3.7c0,0.1,0.5,8.8,0.5,8.8l0,6.2l-0.1,5.4
	l-0.1,5.1l0.2,4.8c0,0-0.1,3.6,1.7,4.3c0,0,2.4,1.8,2.5,1.6c0.1-0.1,3.4,1.1,4,3.2l-5.7,8.4c0,0-5.9,0.7-4,4l-0.8-0.2
	c0,0-2.4-1.6-7.2,0.2l-4.1,1.9c0,0-3.5,1.9-5.9,0c0,0-2.2-2.5-2.7-5.2c0,0-5.8,1.9-7.2-1c0,0-1.8-0.5,6.4-4.7l4-3l3.5-3.7l2.7-3.9
	c0,0,3.1-5.5,3-10.5l-0.3-6.6l0.2-3.4l0.9-3.4c0,0,2.1-4.9-1.4-10.3L92,74.5l-0.9-4c0,0-0.9-8.7-3.8-12.3l-2.3-3L80.1,51l-3.8-2.4
	l1.2-0.2l-0.9-2l0.1-1.3h2.2l1.6-0.5l0.7-0.4c0,0,4.8,6.8,6.8,5c0,0,3.3-0.7,2-5l-1.7-2.1l-3.2-2.8l-2.9-2L80.9,37l-0.5-0.3
	l-2.9-0.5l-4.8-1.8l-4.2-2l-3.8-0.7l-3.2-0.7l-4.2-1.7l-4.8-4l3.3,1.6l2.3,0.9c0,0,2,1.2,3.3,0.9l4.5,1.3l5.2,1.2l1.6,0.4l-0.2-1.6
	l-1.1-2.8C71.2,27.3,67.9,23.8,69.2,20.1z"/>
<path class="st9" d="M44.5,37l0.6-0.7l0.9-1.2l0.2-0.9c0,0,0.4,0.7,0.4,0.9c0,0.1,0.3,1.4,0.3,1.4l-0.5,1.1l-0.3,0.6l2.8,1.4
	l-1.3,0.5l-1.6-0.1c0,0,0.5,1.8,0.5,1.8c0,0-0.2,1.4-0.2,1.4l-0.2,0.6l-1.6-1.9l-0.7-1c0,0-0.5-2.3,0.6-2.9L44.5,37z"/>
<path class="st10" d="M43.7,38.9c0.5-0.7,0.8-1.9,0.8-1.9c-1.4-3.1-4.3-1.6-4.3-1.6c-0.5,0.6,2.5,2.3,2.5,2.3
	c-3.7-0.3-4.4,1.4-4.4,1.4c-0.4,0.4,3.9,0.7,3.9,0.7c-0.9,0.1-2.7,4.1-2.9,4.5c0.1,0,0.1,0,0.2,0c2.3-0.5,4.4-3.3,4.4-3.3
	C43.4,40.3,43.7,38.9,43.7,38.9z"/>
<path class="st0" d="M16.3,36.3l-0.5-0.6c0,0,2.5,0.7,2.7,0.8c0.2,0,6.4,1.7,6.4,1.7l4.4,1.7c0,0,3.9,1.4,6.6,0.2l2.7-0.9
	c0,0,2.6,0.7,3.5,0.6c0,0-1.3,1.2-1.3,1.3c0,0.1-1.2,0-1.2,0l-3.9,0.4L32.6,42c0,0-4,0.6-3.6,0.5c0.3-0.1,2-0.8-4.3-3.5
	c-0.1,0-0.1-0.1-0.2-0.1C18,36.3,20,37.4,20,37.4l-3.2-0.7L16.3,36.3z"/>
<path class="st11" d="M10.5,50.9c0,0,3.7-2.4,4.5-6.1c0,0-0.8,0.8-2.2,0.9l-2.2,0.4H8.9c0,0,3.2,1.7,3.6,1.5L10.5,50.9z"/>
<path class="st12" d="M12.4,44.6c0,0-2.4-1.4-1.9-2.5c0,0,4.5-0.2,4.7,1.8c0,0,0.3,1.9-3.1,1.9l-2.2,0.3L8.8,46c0,0-0.3-0.2-0.2-0.1
	C8.8,46,11.3,44.6,12.4,44.6z"/>
<path class="st13" d="M17.2,41.9c0,0,0.3,2-0.4,3.3c0,0-0.1,0.1-0.1,0.1c-0.9,1.3,0,0,0,0l1.5,0.8l1.5,0.7l-0.5,0.5L18,47.6
	l-1.8-0.5c0,0,0.5,0.6,0.5,0.8c0,0.1,0.3,1.7,0.3,1.7l0.2,1.4c0,0-2.1-1.8-2.2-2.8L15,47.8c0,0-1.6,2.9-3.7,2.9l2.4-2.8l1-1.7
	l0.5-1.6l0.7-1.4L17,42"/>
<path class="st0" d="M46.4,42.6c-0.1,0.4,11.2,2.9,11.2,2.9l5.3,1.5c0,0,3.1,0.6,3.3,0.6s2.7,0.3,2.7,0.3l3.5,0l5,0.7
	c0,0-1.6-3.2-0.7-3.5l-4-0.2L70,44.9l-3.2-0.1c0,0-3.4,0-5.8-2.9c0,0-10.4-0.3-12.7-2l-2.3,0.1C46.1,40.1,46.6,41.9,46.4,42.6z"/>
<path class="st5" d="M77.7,27.3c0,0,2.8-3.3,3.4-3.1l0.6,0c0,0-1.4,1.8-2.1,3.4L78,27.5L77.7,27.3z"/>
<path class="st4" d="M79.4,29.2c0,0,1.1-6.4,3.2-6.4c0,0,3.5,0.3,5,2.9c0,0,3.6,4.1,1.7,7.7c0,0-0.7,3.1-6,2.7
	C83.3,36.2,79.3,34.4,79.4,29.2z"/>
<path class="st8" d="M93.8,35.3c0,0-0.2,2.7-2.6,1.9l1.1,0.6L91.2,38l-0.8,0.2l-1.2-0.4l0.3,1.6c0,0-2-0.9-2.5-3.4
	c0,0,1.7-1.3,2.5-2.2C89.5,33.8,91.3,36,93.8,35.3z"/>
<path class="st7" d="M82.2,28c0,0-1.8-2,0.7-3.3c0,0,2.9,0.2,2.1,2.6C85,27.3,84.6,28.9,82.2,28z"/>
<path class="st14" d="M96.8,9.4c0,0-0.2-1.3,1.6-2.6l1.2-1l0.6-0.7c0,0,0.6,2.8-1.4,4.5C98.9,9.6,97.5,10.6,96.8,9.4z"/>
<path class="st15" d="M97.5,10.6c-0.1,0.4-0.1,2.3-0.1,2.3s-0.5,1.2-0.6,1.5c-0.1,0.3-0.7,2.1-0.7,2.1l-0.4,2.4l1.6-2.3l0.7-1.5
	l0.2-1.8c0,0,3,4.5,5.2,3.9l-1.4-1.2l-1.2-1.4l-1.1-1.7l-1.5-1.5L98,11.3L97.5,10.6z"/>
<path class="st13" d="M92,8.6c0.1-0.3,4.8,0.9,4.8,0.9l0.7,1.4v1.7l-0.7,1.9l-0.5,1.4L96,17.5l0,1.2l0,0.4c0,0-1.2-1.2-1.2-3.6
	l0.3-3.3l-0.5,1.2c0,0-1,1.1-1.1,1.2c-0.1,0.1-1.6,1.6-1.6,1.6s0-4.3,2.8-5.4C94.7,10.6,91.7,9.5,92,8.6z"/>
<path class="st16" d="M100.4,5.4c0.3,0.1,1.9,2.3-0.5,4.7l2.3-0.4l2.7,0.1l0.6,0l-1.3,1.3l-1.5,0.7l-2.3,0c0,0,3.9,1.5,3.4,5.8
	l-1.4-1.2l-1.6-1.7l-1.1-1.7l-1.2-1.2l-1-1.1l-0.3-0.9c0,0,1.8,1,2.8-2.3l0.3-1.5L100.4,5.4z"/>
<path class="st5" d="M122.4,23.8c0,0-3.2,1.7-3.5,6.3l2.2-1.8l1.5-2v1.6l-0.2,2.6l0.2,1.6l0.9,1.7l0.3-1.4l0.6-1.4l0.4-2.2l0-1.5
	l-0.6-1.2c0,0-0.1-2,0.6-2.8l0-1l-1.5-0.5l-2.1-0.4c0,0-2.4-0.5-2.2-0.2c0.2,0.3,1.7,2.3,3.2,2.4"/>
<path class="st17" d="M129,17.1l-0.3,2.1l-0.9,1.9l-1.1,1.2l-0.9,0.8l-0.5,0.8l-0.5,2.7l0,0.6c0,0-1.6-2,0-4c0,0-0.2-1.3,0.2-2.1
	l1.2-1.6l1.8-1.5L129,17.1z"/>
<path class="st2" d="M123.9,34.1L125,32l1.2-2.3l0.4-2.1v-0.9c0,0,0.8,3.9,6.5,5.4c0,0-0.3-3.2-3.8-5c0,0-3.3-1.7-2.7-4.5
	c0.5-2.7-0.1-0.2-0.1-0.2s-1-0.3-1.6,4.8l-0.3,2.5l-0.5,2l-0.5,1.4l-0.2,0.7L123.9,34.1z"/>
<path class="st18" d="M133.1,32c0,0,0-0.1,0-0.1c0.7-4.2-3.5-6.5-3.5-6.5h0.9l1.6-0.2l2-1l1.5-1.4l-1.9-0.1l-3,0l-2,0.5
	c2.9-3.7,0.4-6,0.4-6l-0.1,0.4l-0.2,1.9l-0.8,1.6l-1.3,1.6l0.1,1.5l0.8,1.5l1.1,0.9l1.3,0.9l1.5,1.2l1.2,1.5L133.1,32z"/>
<path class="st4" d="M99,64c0-0.3,3.7,0,4.5,0.8l0.4,1.7l-0.4,2.8l-0.8,2.1l-0.2,1.3l0.2,1.6c0,0-1.2-0.5-1.1-3.2l0.2-2.5l0-1
	l-0.8,1.6l-1.4,1.4c0,0-1.1,0.7-1,0.7c0.1,0-0.1-3.2,2.8-5.4C101.5,65.8,99.2,65.4,99,64z"/>
<path class="st9" d="M107.1,60.4c0,0,0,2.8-1.4,3.9c0,0-0.8,1.2-1.9,0.4c0,0-0.2-1.9,1-2.2l1.3-0.9L107.1,60.4z"/>
<path class="st10" d="M106.7,65.4c0,0,2.4-0.5,3.9-0.4l1.8,0.1l-0.7,0.7l-2,0.3l-1.9,0.3h-1.3l-1.2-0.3l-1.1-0.9l-0.4-0.3
	c0,0,1.1,0.4,2.3-1.1l0.7-1.1l0.3-1.2l0.2-1l0.6,0.9l0.3,1.4l-0.4,1.1L106.7,65.4z"/>
<polygon class="st19" points="102.7,74.1 102.5,72.6 103,70.7 103.6,69 103.9,67.5 103.9,65.8 103.5,64.7 107.4,68.7 110.2,71.8 
	110.7,72.9 109.5,72.5 107.3,71.3 106,69.9 105.1,68.3 105.1,69.5 104.6,71 103.9,72.3 103,74.5 "/>
<polygon class="st5" points="111.3,65.8 108.8,66.2 106.6,66.4 105.2,66.1 106.4,67.6 108.3,69.8 110.2,71.8 110.7,72.9 110.4,70.5 
	109.5,68.8 108.3,67.7 107.3,67.1 109.2,67.2 110.6,66.6 "/>
<path class="st20" d="M109.2,123.1L109.2,123.1c0,0,0.4-2.2,2.3-2.5l1.1-0.8l0.8-0.4l-0.1,1c0,0-0.1,0.6-0.3,0.9
	c-0.1,0.3-0.2,1.3-0.5,1.3c-0.3,0-1.3,1.2-1.3,1.2l-0.9,0.3L109.2,123.1z"/>
<polygon class="st21" points="103.8,122.4 106.9,122.7 109.1,123.2 109.6,124 108.9,124 107.4,123.7 106,123.4 104.4,123.4 "/>
<polyline class="st22" points="107.1,125.8 106.4,126.9 105,128.1 103.2,129.4 103.5,127.6 104.6,125.7 106.7,124.4 104.4,123.4 
	106,123.4 108.1,123.8 109.4,124.1 109.8,124.7 109.5,127.2 108.7,129.3 108.1,131.8 106.9,130.5 106.9,127.8 107.1,125.7 "/>
<path class="st23" d="M113,123.7l2.5-0.4l2.6,0.1l1.8,0c0,0-3,2.4-5.8,1.9c0,0,2.4,1.4,2.4,1.5c0,0.1,1,1.6,1,1.6l0.3,2.1l-2.3-1.8
	l-1.3-1l-1.4-1.7l-1.2-1.4l-1.1-0.7c0,0,3-1.3,3-4.7C113.5,119.3,115.9,120.6,113,123.7z"/>
<path class="st24" d="M108.3,131.8l0.9-1.2l0.9-1.2l0.5-0.8l0.3-0.8l0.1-1.2c0,0,2.2,2.9,3.1,2.8l2.6,0.9l0.9,0.3l-2.4-1.9l-1.6-1.4
	l-1.3-1.9l-1.1-1l-1.5-0.9l0.2,2.2l-0.5,2l-0.6,1.8L108.3,131.8z"/>
<path class="st25" d="M85.5,120.2c0,0-23.5-1.6-43.7,1.3c0,0-17.9,2.5-19.6,7.1c0,0-0.9,5.4,24.6,7.8c0,0,16.7,1.8,23.1,1.2
	c0,0,15,0.1,21.1-0.4c0.3,0,12.2-1.6,12.2-1.6s12.6-1.7,13.8-3c0,0,5-1.7,4.8-4.3l-0.8-1.2l-1.6-0.9l-2.1-1l-1.4,0.2l-2.1,0
	c0,0,4.9,2.9,3.6,5.2l-2.3-0.7l-2.3-1.1l-1.4-1.3l-0.6-0.9l-0.2,1.4l-1.1,2.1l-1,1.3l-0.3,0.5c0,0-1.7-0.6-1.5-3.3
	c0,0-5.6,0.4-3.9,3.7c0,0-4.2-2.4-9.4,0.6c0,0-5.8,3.2-7.5,2c0,0-2.2-0.5-3.7-5.7l-0.6-0.1c0,0-5.7,1.4-6.7-1.1c0,0-0.6-1,4.1-3.5
	l3.7-2.3L85.5,120.2z"/>
<path class="st26" d="M61.3,123.6c0,0,1-2.1,2.1-2.3l1.1-0.6l1-0.8v1.4c0,0-0.6,2.7-3,3.2L61.3,123.6z"/>
<path class="st27" d="M55.5,129.6l2-2.6l1.7-1.6l2.3-0.4l0.9-0.3l0.2-0.2l-1.2-0.9l-2.5-0.3c0,0-3.4-0.4-3-0.4c0.3,0.1-0.1,1,3,2
	C58.8,124.8,55.6,126.2,55.5,129.6z"/>
<path class="st1" d="M60.2,132.3c0,0,0.4,0.4,0.9-4.5l0.5-1.9l0.9-1.4l-2.1,0.6l-1.3,0.4l-1.5,1.4l-2,2.5l1.9-1.1l0.8-0.7l0.7-0.9
	v1.5v2.2l0.5,1.2L60.2,132.3z"/>
<polygon class="st28" points="63.1,126.9 63.1,128.2 62.5,129.6 61.2,131.4 60.3,132.3 61,129.3 61.3,126.8 62.5,124.5 64.4,126.2 
	66.4,128.4 68.8,130.2 69.9,131.1 67.7,130.5 65.1,129.3 "/>
<path class="st29" d="M65.9,120.1c0,0,2.1,1.2-0.5,4.1l2.6-0.2l2.9,0.1l1,0.1l-1.2,0.9l-1.9,0.8l-2.5,0.1c0,0,4.2,1.9,3.7,5.2
	l-1.8-1.4l-1.9-1.6l-1.8-2l-1.6-1.8C62.8,124.4,65.9,123.3,65.9,120.1z"/>
<path class="st2" d="M52.5,127.5c0.2-0.1,0.1-1.6,4.6-2.1l0,0.7c0,0-1.4,0.9-1.6,3.4l-2-1.1l-1-0.8"/>
<path class="st4" d="M51,133.5c0,0,2.2-2.6,1.1-5.7l-1.9-0.2c0,0-3.5-0.5-3.4-0.3c0.1,0.2,2.1,1.3,2.8,1.2c0,0-2.8,1-3.2,3.1
	l0.4,0.2l2-0.9l1.3-1L50,132l0.5,1.5H51z"/>
<path class="st30" d="M59.9,132.5l-2.9-0.3c0,0-1.7-0.8-1.9-0.9c-0.2-0.1-1.2-0.9-1.2-0.9c-0.6,3.2-3,3.4-3,3.4l1.1-2.1l0.4-1.2
	l0-1.5l-0.4-1.2l0.4-0.2c0,0,2.2,2.1,3,2.2C55.5,129.6,59.7,132.7,59.9,132.5z"/>
<polygon class="st31" points="55.5,129.6 60.2,132.6 59.5,131.6 59.1,129.9 59.1,126.7 57.5,128.3 "/>
<path class="st6" d="M44.9,94.3l-0.2-4.2l0.5-2.7h-0.8c0,0-5.1-2.4-0.5-4.8c0.3-0.1,3-1.1,3.9,0.4c0,0,6.6-1.6,6.7-1.7
	c0.2,0,3.8,0,3.8,0l2.1,1.1c0,0,4.3-2.3,4.8,0.7c0,0,0.6,2.7-1.7,3.3l-0.4,0.4l0.6,4.2l0.1,5.9l0.1,4.6c0,0-0.7,12.1-9.8,14.8
	l-4.2,0.2l-5.4-1.2l-4.8-2.3l-2.2-2.2c0,0-3.1-3.4,0.9-8.4l3-2.6l2.4-2.3l0.8-1.8L44.9,94.3z"/>
<path class="st32" d="M39.7,117c0,0-0.1-1,1.7-2l0.7-0.6l1.7,0.8c0,0-2.1,1.6-2.7,1.7H39.7z"/>
<path class="st32" d="M46.3,115.9c0,0-2.7,2.6-1.2,3.1c0,0,4.1-1.2,4.9-2.5L46.3,115.9z"/>
<path class="st32" d="M44.6,95l-0.4-0.3h-0.6c0,0-0.1-0.2-0.3,0.3c-0.2,0.5-0.8,0.9-0.8,0.9l-0.2,0.1l-1-0.4c0,0-1.9-2.6,1-3.9
	c0,0,2.2,0.4,2.5,0.9L44.8,95H44.6z"/>
<path class="st32" d="M63.6,94.3c0.2,0.3,2.3-0.2,2.3-0.2h1.8c0,0,2.9,1.2,0.6,3.4c0,0-1.7,0.9-2.4-1.3l-2-0.7
	C64,95.7,63.4,94,63.6,94.3z"/>
<path class="st7" d="M46.5,89c0,0-0.8-4.3,3.5-4.1c0,0,4.2,1,1.6,5.1c0,0-1.2,1.8-3.6,0.6C48,90.7,46.6,89.7,46.5,89z"/>
<path class="st7" d="M54.2,88c0,0-0.1-3.5,3.4-3.5c0,0,3.2,0.6,2.9,3.5c0,0-0.4,2.4-2.9,2.6C57.6,90.7,54.4,90.8,54.2,88z"/>
<path class="st32" d="M51.2,92.7c0,0-1.4-1.2,1.6-2.1c0,0,1.7,0.1,2,0.2c0.2,0.1,2,1,0.9,2l-1.5-0.2l-1.4,0L52,92.9L51.2,92.7z"/>
<path class="st7" d="M53.4,94.3c0,0-0.7,1.1-1.3-0.2v-1.3l1.3-0.3l1.3,0.1l0.1,0.7l0,1l-0.6,0.4l-0.5-0.1L53.4,94.3z"/>
<polygon class="st33" points="61.7,110.1 65.5,111 68.3,110.9 67.8,112.1 66,113.6 63.6,114.9 61.7,114.7 59.9,114.1 58.9,113.6 "/>
<path class="st34" d="M58.1,114.3c0.2,0.1,3.2,1.3,3.2,1.3l1.7,0.5l1.1,0.8l-0.1-1.3l0.1-0.8l0-0.3l-1.4,0.3l-1.5-0.3l-1.4-0.6
	l-1-0.6L58.1,114.3z"/>
<polygon class="st35" points="68.3,111.3 68.3,113 65.7,115.3 64.2,117 64.2,114.8 66.4,113.3 "/>
<path class="st36" d="M9.1,93.7c0.1,0.1,1.3,0.7,1.3,0.7l1.6,0.4l-1.7,0.6c0,0-1,0.9-1.1,1c-0.1,0.1-0.6,1.7-0.6,1.7l1.4-1.3
	l1.5-1.2l1.7-0.9c0,0,2.2-0.5,2.3-0.2c0,0-1-0.7-0.9-0.6c0,0.1-4.3-0.5-4.3-0.5L9.1,93.7z"/>
<path class="st30" d="M18.9,91.5c0,0,1.2,1.8-2.6,3.4L14.6,94c0,0,0.4-1.4,2.2-1.7l1.2-0.5L18.9,91.5z"/>
<path class="st4" d="M13.7,99.9c0-0.2,0.4-1.4,0.4-1.4l0.2-1.4l0.4-1.4l0.9-1L15,94.6l-1.2,0.1l-1.5,0.6l-1.5,0.9l-0.8,0.6l-1.2,1.2
	l1.5-0.7l1.3-0.5l0.7-0.8l0.1,0.4l-0.2,1.4l0.2,1l0.6,0.8l0.6,0.4"/>
<polygon class="st19" points="16.5,96.5 16.4,97.2 15.8,98.1 15.3,98.5 14,99.7 13.8,100 14,98.7 14.2,97.2 14.6,95.8 15.5,94.6 
	18.8,96.5 21.9,98.1 23.1,99 21.3,99 19.5,98.5 17.7,97.5 16.8,96.8 16.6,96.5 "/>
<path class="st8" d="M18.5,94.4l3.4-0.3l3.4,0.1l-1.8,0.9l-1.9,0.4l-2,0.1l2.3,1l1,1l0.3,0.9l0,0.4l-1.7-1l-1.6-0.8l-2.1-1.2
	L16.3,95l1.4-1l1-0.9l0.4-0.9v-1c0,0,2.4,1.1-0.6,3.2"/>
<path class="st37" d="M82.4,129.1c0,0.1,5.5-1.9,8.9-9.2l1.2-3.3l0.7-2.7l1.5-3.8l0.9-2.3c0,0,1.4-3.2,1-6.4L96.3,97l0-5.2l0.4-4.8
	l0.4-4.1l-0.1-2.1c0,0-0.8-2.5-2.2-5.5c0,0-1-3-1.2-6l-0.2-2.8l-0.5-2.8L92.2,62l1.1,1.7l0.1,1.1l0.8,2.9l1.6,3.8l2.1,4.8
	c0,0,3,4.9,2.6,15.5l-0.8,8.6l-0.7,6.1c0,0-0.7,2.7,1.6,7l0.6,2.2l0.3,2.2l0.3,1.7l0.6,0.9l1.3,0.5l1.7,1.3l-1.9,0.2
	c0,0,1.7,1.5,3,1.5c1.3,0,0.2,0.2,0.2,0.2l-0.5,0.2c0,0-2.7,1.5-2.9,4.2l-0.1,0.5c0,0,3.6-2.2,3.9-3.6l-0.2,2.6c0,0-6,0.7-4,4
	c0,0-4.3-2.1-9,0.4l-4,1.8c0,0-3.9,1.5-5.7-1c0,0-0.8-1.4-1-1.7C83.2,131.4,82.4,129.1,82.4,129.1z"/>
<path class="st38" d="M75.1,127.9c0,0-0.7-1,3.5-3l3.3-1.9l4.3-3.4l3.2-3.6c0,0,3.4-3.2,5.1-11.6l0.2-4.3l-0.4-4
	c0,0-0.5-3.4,1.4-8.7l0.3-2.5c0,0,0-3.7-3.4-9.1c0,0-1.5-3.1-1.8-7.9c0,0-1.1-6-2.2-7.4c0,0-3.3-7.7-12.4-11.7c0,0,3.6-0.2,5,1.4
	l4.4,4l4.4,4.4c0,0,2,2.6,2.2,3.4c0,0,1,1.6,1.6,10.2c0,0,0.4,2.4,3,8.1l0.2,2.6l-0.5,5.4c0,0-0.3,6.9-0.3,7c0,0,0.5,6.6,0.5,6.6
	s0.6,3.5-1.9,8.2l-1.5,3.8c0,0-0.8,2.9-0.9,3.1c-0.1,0.2-1.7,4.2-1.8,4.4c-0.1,0.2-2.7,4-2.7,4.1c0,0.1-2.7,2.3-2.7,2.3l-2.1,1.2
	l-1.4,0.3C81.6,129.3,76,130.6,75.1,127.9z"/>
<path class="st39" d="M93.3,59.1c0,0-4.2-3.6-3-6.7c0,0,2-9.5,5.6-10.8c0,0,5-2.2,4.2,7.9l-0.6,4.2c0,0-1.3,5.3-1.4,5.5
	c-0.1,0.2-1.4,4.5-1.4,4.5s-1.7-1.3-2.8-3.6l-0.3-0.9L93.3,59.1z"/>
<g>
	<g>
		<path class="st40" d="M44.9,87.2c-1.3-0.1-2.4-1.2-2.1-2.5c0.2-1.2,1.4-2.1,2.6-2.2c0.7,0,1.5,0,1.9,0.5c0.3,0.4,0.8-0.1,0.5-0.5
			c-0.5-0.6-1.4-0.7-2.1-0.7c-0.8,0-1.6,0.2-2.2,0.7c-1.3,0.9-1.9,2.8-0.9,4.1c0.6,0.8,1.4,1.2,2.4,1.2C45.3,88,45.3,87.3,44.9,87.2
			L44.9,87.2z"/>
	</g>
</g>
<g>
	<g>
		<path class="st40" d="M61,82.4c0.5-0.2,1-0.4,1.5-0.5c0.5-0.1,1.1-0.1,1.6,0.2c0.9,0.5,1.1,1.8,0.8,2.8c-0.2,0.6-0.8,1.1-1.5,1.2
			c-0.2,0-0.3,0.3-0.2,0.4c0.1,0.2,0.2,0.3,0.4,0.2c0.7-0.1,1.4-0.7,1.8-1.3c0.3-0.6,0.4-1.3,0.3-1.9c-0.1-0.6-0.4-1.3-0.9-1.7
			c-0.5-0.5-1.3-0.6-1.9-0.6c-0.8,0-1.5,0.2-2.2,0.6C60.3,82,60.6,82.6,61,82.4L61,82.4z"/>
	</g>
</g>
<g>
	<g>
		<path class="st40" d="M52.2,90.9C52.2,90.9,52.2,90.9,52.2,90.9c0-0.1,0-0.2,0-0.3c0,0-0.1,0-0.1,0c-0.1,0-0.1,0-0.2,0
			c-0.2,0.1-0.3,0.2-0.5,0.3c-0.3,0.2-0.6,0.5-0.7,0.8c-0.3,0.9,0.8,1.3,1.5,1.2c0.5-0.1,1-0.3,1.5-0.3c0.4,0,0.8,0.1,1.1,0.2
			c0.3,0.1,0.7,0.1,1-0.1c0.3-0.2,0.4-0.6,0.4-1c-0.1-0.8-1.1-1.2-1.8-1.5c-0.2-0.1-0.3,0.3-0.1,0.3c0.5,0.2,1.2,0.4,1.5,0.9
			c0.2,0.3,0.1,0.7-0.1,0.9c-0.2,0.2-0.6,0.1-0.8,0c-0.3-0.1-0.6-0.2-0.9-0.2c-0.4,0-0.7,0.1-1.1,0.2c-0.4,0.1-0.8,0.2-1.2,0.1
			c-0.3-0.1-0.6-0.3-0.5-0.6c0.1-0.3,0.4-0.6,0.7-0.8c0.1-0.1,0.1-0.1,0.2-0.1c0,0,0.1,0,0.1-0.1c0,0,0,0,0,0c0.1,0,0.2,0,0.3-0.1
			c0.1-0.1,0.1-0.3,0-0.3c-0.1,0-0.1,0-0.2,0C51.9,90.6,51.9,91,52.2,90.9L52.2,90.9z"/>
	</g>
</g>
<g>
	<g>
		<path class="st40" d="M54.5,92.8c0.1,0.3,0.2,0.5,0.2,0.8c0,0.2,0,0.5-0.2,0.7c-0.1,0.2-0.4,0.2-0.6,0.2c-0.2-0.1-0.2-0.3-0.3-0.5
			c-0.1-0.2-0.4,0-0.3,0.2c0.1,0.2,0.2,0.4,0.3,0.5c0.2,0.2,0.5,0.2,0.7,0.1c0.2-0.1,0.5-0.2,0.6-0.5c0.1-0.2,0.1-0.5,0.1-0.8
			c0-0.3-0.1-0.6-0.2-0.9c0-0.1-0.1-0.1-0.2-0.1C54.6,92.6,54.5,92.7,54.5,92.8L54.5,92.8z"/>
	</g>
</g>
<path class="st41" d="M60.4,87.6c0-1.7-1.4-3.1-3.1-3.1c-1.7,0-3.1,1.4-3.1,3.1c0,1.7,1.4,3.1,3.1,3.1C59,90.7,60.4,89.3,60.4,87.6z
	"/>
<path class="st41" d="M52.6,87.9c0-1.7-1.4-3.1-3.1-3.1c-1.7,0-3.1,1.4-3.1,3.1c0,1.7,1.4,3.1,3.1,3.1C51.2,91,52.6,89.6,52.6,87.9z
	"/>
<path class="st40" d="M63.7,83.8c0-0.4-0.3-0.7-0.7-0.7c-0.4,0-0.7,0.3-0.7,0.7c0,0.4,0.3,0.7,0.7,0.7
	C63.4,84.6,63.7,84.3,63.7,83.8z"/>
<path class="st40" d="M46,84.8c0-0.5-0.4-0.8-0.8-0.8c-0.5,0-0.8,0.4-0.8,0.8c0,0.5,0.4,0.8,0.8,0.8C45.7,85.7,46,85.3,46,84.8z"/>
<path class="st40" d="M54.8,90.5c0-0.4-0.6-0.8-1.4-0.8c-0.8,0-1.4,0.3-1.4,0.8c0,0.4,0.6,0.8,1.4,0.8
	C54.2,91.2,54.8,90.9,54.8,90.5z"/>
<path class="st40" d="M55.7,86.8c-0.6,0-1,0.4-1,1c0,0.6,0.5,1,1,1c0.6,0,1-0.5,1-1C56.7,87.2,56.2,86.8,55.7,86.8z M56.1,88.4
	c-0.2,0-0.3-0.1-0.3-0.3c0-0.2,0.1-0.3,0.3-0.3c0.2,0,0.3,0.1,0.3,0.3C56.4,88.3,56.3,88.4,56.1,88.4z"/>
<path class="st40" d="M47.7,87c-0.6,0-1,0.4-1,1c0,0.6,0.5,1,1,1c0.6,0,1-0.5,1-1C48.8,87.5,48.3,87,47.7,87z M48.2,88.7
	c-0.2,0-0.3-0.1-0.3-0.3c0-0.2,0.1-0.3,0.3-0.3c0.2,0,0.3,0.1,0.3,0.3C48.4,88.6,48.3,88.7,48.2,88.7z"/>
<g>
	<g>
		<path class="st40" d="M53.4,92.6c0,0.2,0,0.4,0,0.5c0,0.2,0,0.4,0,0.7c0,0.3-0.1,0.6-0.3,0.7c-0.1,0.1-0.3,0-0.4,0
			c-0.1,0-0.2-0.1-0.2-0.2c-0.1-0.2-0.2-0.5-0.2-0.7c0-0.3,0-0.5,0.1-0.8c0.1-0.2-0.3-0.3-0.3-0.1c-0.1,0.3-0.1,0.6-0.1,0.9
			c0,0.3,0,0.7,0.2,0.9c0.2,0.3,0.5,0.4,0.9,0.4c0.4-0.1,0.6-0.5,0.6-0.8c0.1-0.3,0.1-0.6,0-0.9c0-0.3,0-0.5,0-0.8
			C53.6,92.3,53.3,92.4,53.4,92.6L53.4,92.6z"/>
	</g>
</g>
<g>
	<g>
		<path class="st40" d="M83,128.6c-2.2,0.4-5.2,1.6-7.2,0c-1.9-1.5,1.9-3.1,3-3.6c3.6-1.7,6.9-4.5,9.5-7.5c2.6-2.9,4.5-6.4,5.6-10.2
			c0.6-2.2,0.9-4.4,0.9-6.6c0-2.4-0.4-4.8-0.3-7.2c0.1-2.4,1-4.6,1.4-6.9c0.3-2.1,0-4-0.7-6c-0.8-1.9-1.9-3.6-2.8-5.5
			c-1.1-2.4-1.2-5-1.5-7.6c-1.1-8-6.3-14.7-13.4-18.3c-4.2-2.2-8.9-1.1-13.4-2.1c-5.8-1.2-11.4-3.5-17.3-4.7c-0.2,0-0.3,0.3-0.1,0.3
			c2.7,0.6,5.3,1.5,7.9,2.1c2.6,0.6,5.1,1.5,7.6,2.2c2.3,0.6,4.6,0.9,7,0.9c1.9,0,3.9,0.1,5.8,0.6c2.2,0.7,4.1,2,5.9,3.3
			c1.7,1.2,3.2,2.6,4.6,4.2c2.9,3.5,4.5,7.9,5.1,12.3c0.3,2.3,0.4,4.5,1.4,6.6c1,2.2,2.3,4.1,3.1,6.4c0.8,2.5,0.6,4.8-0.1,7.3
			c-0.6,2.1-1,4.1-0.9,6.3c0.1,2.4,0.4,4.9,0.2,7.3c-0.1,2.5-0.7,4.9-1.6,7.2c-1.6,4-4.2,7.6-7.5,10.5c-1.9,1.7-3.9,3.2-6.1,4.4
			c-1.3,0.7-3.2,1.3-4.1,2.6c-0.8,1.2,0.4,2,1.4,2.5c2.1,0.8,4.4-0.1,6.5-0.5C83.4,128.9,83.3,128.5,83,128.6L83,128.6z"/>
	</g>
</g>
<g>
	<g>
		<path class="st40" d="M38.4,39.2c-1.9,0.4-3.6,1.3-5.6,1.2c-1.9-0.1-3.8-0.8-5.5-1.5c-1.6-0.7-3.3-1.4-5-1.8
			c-1.6-0.4-3.2-0.7-4.8-1.1c-1.8-0.5-3.4-1.3-4.7-2.7c-0.9-0.9-1.6-2.1-2.5-3c-1.7-1.7-3.1-0.6-4.2,1.2C6,31.8,6.3,32,6.4,31.8
			c0.4-0.7,1-1.8,1.9-1.9c0.8-0.2,1.4,0.4,1.9,0.9c0.8,0.9,1.5,1.9,2.3,2.8c2,2.2,4.7,2.8,7.5,3.4c3.2,0.7,6.1,2.1,9.2,3.1
			c1.4,0.5,3,0.9,4.5,0.7c1.7-0.1,3.2-0.9,4.8-1.2C38.7,39.5,38.6,39.2,38.4,39.2L38.4,39.2z"/>
	</g>
</g>
<g>
	<g>
		<path class="st40" d="M16.3,36.5c2.1,0.6,4.1,1.2,6.1,1.9c1.8,0.7,3.5,1.5,5.2,2.3c0.4,0.2,1.7,0.7,1.5,1.3
			c-0.1,0.5-1.1,0.6-1.4,0.7c-1,0.3-2.4,0.5-3,1.5c-0.1,0.2,0.2,0.4,0.3,0.2c0.7-1.2,2.7-1.2,3.8-1.7c1.2-0.5,0.5-1.5-0.3-2
			c-0.7-0.4-1.4-0.6-2.1-0.9c-1-0.5-2-1-3.1-1.4c-2.3-0.9-4.6-1.6-7-2.2C16.2,36.1,16.1,36.4,16.3,36.5L16.3,36.5z"/>
	</g>
</g>
<g>
	<g>
		<path class="st40" d="M28.9,42.8c1.8-0.6,3.8-0.6,5.7-0.9c1.8-0.3,3.8-0.9,5.7-0.6c0.2,0,0.3-0.3,0.1-0.3
			c-1.8-0.3-3.7,0.2-5.5,0.6c-2,0.4-4.1,0.3-6,1C28.6,42.5,28.7,42.9,28.9,42.8L28.9,42.8z"/>
	</g>
</g>
<g>
	<g>
		<path class="st40" d="M42.6,39.6c-2.1,0.7-2.6,2.9-3.5,4.7c-0.1,0.1,0,0.3,0.2,0.3c1.8-0.7,3.5-1.6,4.6-3.3
			c0.1-0.2-0.2-0.4-0.3-0.2c-1,1.6-2.6,2.5-4.3,3.2c0.1,0.1,0.1,0.2,0.2,0.3c0.8-1.7,1.4-3.9,3.3-4.5C42.9,39.8,42.9,39.5,42.6,39.6
			L42.6,39.6z"/>
	</g>
</g>
<g>
	<g>
		<path class="st40" d="M43.5,40.8c0.5,1.3,1.6,2.1,2.4,3.2c0.1,0.1,0.3,0,0.3-0.1c0.4-1.3,0.6-2.7-0.2-3.9
			c-0.1,0.1-0.1,0.2-0.2,0.3c1.1,0.3,2.1,0.2,3-0.4c0.1-0.1,0.1-0.2,0-0.3C48,39,47,38.7,46,38.4c0,0.1,0.1,0.2,0.1,0.3
			c0.7-1.4,1-3,0.2-4.5c-0.1-0.1-0.3-0.1-0.3,0c-0.3,1-0.8,2-1.7,2.7c0.1,0,0.2,0.1,0.3,0.1c-0.4-1.9-3.3-2.8-4.7-1.4
			c-0.1,0.1-0.1,0.2,0,0.2c0.9,0.8,1.6,1.7,2.8,2.1c0-0.1,0-0.2,0-0.3c-1.7,0.2-3.4,0-4.6,1.4c-0.1,0.1-0.1,0.2,0.1,0.3
			c1.4,0.5,2.8,0.8,4.3,0.7c0.2,0,0.2-0.4,0-0.4c-1.5,0.1-2.9-0.2-4.2-0.7c0,0.1,0.1,0.2,0.1,0.3c1.1-1.4,2.7-1.2,4.3-1.3
			c0.2,0,0.2-0.3,0-0.3c-1.1-0.4-1.8-1.3-2.7-2c0,0.1,0,0.2,0,0.2c1.3-1.2,3.8-0.4,4.2,1.3c0,0.1,0.2,0.2,0.3,0.1
			c0.9-0.7,1.4-1.7,1.8-2.8c-0.1,0-0.2,0-0.3,0c0.8,1.3,0.5,2.8-0.2,4.1c-0.1,0.1,0,0.2,0.1,0.3c1,0.3,2,0.7,2.9,1.2
			c0-0.1,0-0.2,0-0.3c-0.9,0.5-1.8,0.6-2.8,0.3c-0.1,0-0.3,0.1-0.2,0.3c0.8,1.1,0.5,2.4,0.2,3.6c0.1,0,0.2-0.1,0.3-0.1
			c-0.8-1-1.9-1.8-2.4-3C43.8,40.5,43.5,40.6,43.5,40.8L43.5,40.8z"/>
	</g>
</g>
<g>
	<g>
		<path class="st40" d="M41.6,37.5c-1.2-1-3.2-0.8-4.1-2.1c-0.7-1.1-0.7-2.6-1.1-3.8c-0.9-2.7-3.7-3.4-6.2-3.9
			c-3-0.6-6.9-0.6-9.3-2.9c-0.9-0.9-1.5-2-2.2-3c-0.9-1.1-1.9-2-3.1-2.8c-0.2-0.1-0.4,0.2-0.2,0.3c1.5,0.9,2.6,2,3.6,3.4
			c0.6,0.9,1.3,1.9,2.1,2.6c2.2,1.8,5.3,2,7.9,2.4c1.6,0.3,3.3,0.6,4.7,1.3c1.6,0.8,2.2,2,2.6,3.7c0.2,1,0.4,2.2,1.1,3
			c1,1.2,2.8,0.9,3.9,1.9C41.5,37.9,41.8,37.7,41.6,37.5L41.6,37.5z"/>
	</g>
</g>
<g>
	<g>
		<path class="st40" d="M16.9,20c0.7,0.8,1.3,1.6,2,2.4c0.9,1,1.9,2.1,3.1,2.9c0.5,0.4,1.8,1,2.2,0.1c0.2-0.4,0.1-1,0.1-1.4
			c-0.1-0.7-0.2-1.4-0.4-2.1c-0.2-0.8-0.4-1.7-0.5-2.5c-0.1-0.6-0.3-1.3-0.2-1.9c0-0.2-0.3-0.2-0.4,0c0,0.5,0,0.9,0.1,1.4
			c0.1,0.7,0.3,1.3,0.4,2c0.3,1.2,0.7,2.6,0.6,3.9c0,0.3-0.1,0.7-0.5,0.7c-0.4,0-0.9-0.2-1.2-0.5c-1.1-0.7-2.1-1.7-2.9-2.7
			c-0.8-0.8-1.5-1.7-2.2-2.6C17,19.6,16.7,19.8,16.9,20L16.9,20z"/>
	</g>
</g>
<g>
	<g>
		<path class="st40" d="M23.8,24.8c2.4,1.4,4.9,2,7.6,2.4c1,0.2,2,0.2,2.9,0.4c0.9,0.2,2.1,0.3,2.6,1.2c0.1,0.2,0.4,0,0.3-0.2
			c-0.4-0.7-1.2-1-2-1.2c-1-0.3-2.1-0.3-3.1-0.5c-2.9-0.4-5.6-1.1-8.1-2.5C23.7,24.4,23.6,24.7,23.8,24.8L23.8,24.8z"/>
	</g>
</g>
<g>
	<g>
		<path class="st40" d="M36.7,28.7c0.7,0.9,0.7,2.2,0.9,3.3c0.2,1,0.4,2.3,1.2,3c0.5,0.4,1.1,0.6,1.7,0.6c0.2,0,0.2-0.3,0-0.4
			c-2.6,0-2.4-3.4-2.8-5.2c-0.1-0.5-0.3-1.1-0.6-1.5C36.9,28.3,36.6,28.5,36.7,28.7L36.7,28.7z"/>
	</g>
</g>
<g>
	<g>
		<path class="st40" d="M44.6,42.6c-0.3,1.6-1.9,2.9-2.9,4c-0.5,0.6-1,1.2-1.5,1.9c-0.5,0.7-0.7,1.5-1.1,2.3c-0.8,1.4-2,2.6-2.9,4
			c-1,1.4-1.6,3-1.6,4.8c0,0.2,0.3,0.2,0.4,0c0.1-1.9,0.8-3.6,2-5.1c1-1.3,2.1-2.6,2.9-4.1c0.3-0.7,0.6-1.4,1.1-2
			c0.6-0.8,1.2-1.5,1.9-2.3c0.9-1,2-2.1,2.3-3.4C45,42.5,44.6,42.4,44.6,42.6L44.6,42.6z"/>
	</g>
</g>
<g>
	<g>
		<path class="st40" d="M40.9,46.8c-2.3,1.4-5.2,1.2-7.8,1.6c-2.7,0.4-5.3,1.3-7.8,2.4c-2.4,1.1-4.8,2.6-6.8,4.3c-1.1,1-2,2-3.5,2.5
			c-1.1,0.4-2.2,0.7-3.3,1.1c-0.2,0.1,0,0.4,0.2,0.3c1.1-0.5,2.4-0.8,3.5-1.2c1.1-0.5,1.9-1.2,2.7-2c2.1-1.9,4.7-3.5,7.3-4.7
			c2.9-1.3,5.8-2.2,8.9-2.6c2.3-0.2,4.7-0.2,6.7-1.5C41.3,46.9,41.1,46.6,40.9,46.8L40.9,46.8z"/>
	</g>
</g>
<g>
	<g>
		<path class="st40" d="M33.6,48.3c-3.6,0-7-1.2-10.6-1c-0.2,0-0.2,0.4,0,0.4c3.6-0.1,7,1,10.6,1C33.8,48.6,33.8,48.3,33.6,48.3
			L33.6,48.3z"/>
	</g>
</g>
<g>
	<g>
		<path class="st40" d="M23.1,47.3c-0.9,0.6-2,0.9-3,1.1c-1,0.2-2.1,0.3-3.2,0.1c-0.2,0-0.3,0.3-0.1,0.3c1.1,0.2,2.2,0.1,3.3-0.1
			c1.1-0.2,2.2-0.5,3.2-1.1C23.4,47.5,23.3,47.2,23.1,47.3L23.1,47.3z"/>
	</g>
</g>
<g>
	<g>
		<path class="st40" d="M48.3,40.2c4.2,1.4,8.5,1.9,12.9,2.1c0.2,0,0.2-0.3,0-0.4c-4.4-0.2-8.6-0.6-12.8-2
			C48.2,39.8,48.1,40.2,48.3,40.2L48.3,40.2z"/>
	</g>
</g>
<g>
	<g>
		<path class="st40" d="M60.9,42c1.1,1.7,2.7,2.6,4.7,2.9c1.9,0.3,3.8,0,5.7,0.1c1.9,0.1,3.8,0.4,5.7,0.4c1.4,0,3.1,0,4.2-1
			c0.2-0.2-0.1-0.4-0.2-0.2c-1.1,1-3,0.9-4.5,0.9c-1.7-0.1-3.3-0.3-5-0.4c-3.7-0.2-7.8,0.8-10.3-2.8C61,41.7,60.7,41.8,60.9,42
			L60.9,42z"/>
	</g>
</g>
<g>
	<g>
		<path class="st40" d="M80.9,44.3c1.1,1.4,2.1,2.9,3.4,4.1c1.1,1,2.5,1.8,4,1.1c1.8-0.9,2.8-3.1,2-4.9c-0.8-1.9-2.5-3.2-4-4.4
			c-0.9-0.7-1.8-1.5-2.8-2.1c-0.8-0.5-1.6-1-2.6-1.1c-0.2,0-0.2,0.3,0,0.4c0.8,0.1,1.5,0.5,2.1,0.9c0.8,0.5,1.6,1.1,2.3,1.7
			c1.4,1.1,2.8,2.2,3.9,3.6c0.6,0.8,1,1.7,1,2.7c0,1.1-0.8,2.1-1.7,2.8c-1.4,1-2.9,0.2-4-0.8c-1.3-1.2-2.3-2.6-3.3-4
			C81.1,43.9,80.8,44.1,80.9,44.3L80.9,44.3z"/>
	</g>
</g>
<g>
	<g>
		<path class="st40" d="M80.4,36.5c-3.4-0.1-6.5-1.8-9.5-3.1c-1.4-0.6-2.8-1.2-4.3-1.5c-1.8-0.4-3.6-0.7-5.3-1.1
			c-3.5-0.9-6-2.9-8.5-5.4c-2-1.9-4-3.9-6.7-4.8c-0.2-0.1-0.3,0.3-0.1,0.3c3.1,1,5.4,3.6,7.7,5.8c2.3,2.2,4.8,3.7,7.9,4.5
			c1.8,0.4,3.6,0.7,5.3,1.1c1.7,0.4,3.3,1.2,4.9,1.9c2.7,1.2,5.6,2.6,8.6,2.7C80.6,36.8,80.6,36.5,80.4,36.5L80.4,36.5z"/>
	</g>
</g>
<g>
	<g>
		<path class="st40" d="M52.3,24.9c2.1,2.4,5.7,3,8.6,3.9c1.7,0.5,3.4,1.2,5.2,1.6c2.1,0.6,4.3,1,6.5,1.4c0.1,0,0.2,0,0.2-0.2
			c-0.2-2.3-1.5-4.2-2.6-6.2c-0.6-1-1.1-2.1-1.2-3.3c-0.1-1.6,0.7-3.1,1.7-4.3c0.1-0.2-0.1-0.4-0.2-0.2c-1.6,2-2.3,4.2-1.2,6.7
			c1.1,2.5,3,4.5,3.2,7.3c0.1-0.1,0.1-0.1,0.2-0.2c-3.8-0.6-7.5-1.7-11.2-2.9c-3-0.9-6.7-1.5-9-3.9C52.4,24.5,52.2,24.8,52.3,24.9
			L52.3,24.9z"/>
	</g>
</g>
<g>
	<g>
		<path class="st40" d="M69.4,21.6c0.9,2.3,1.9,4.5,3.3,6.5c1.2,1.9,3.2,3.1,4.4,5c0.1,0.2,0.4,0,0.3-0.2c-1.2-1.8-3.1-3-4.3-4.8
			c-1.4-2-2.5-4.3-3.4-6.6C69.7,21.3,69.3,21.4,69.4,21.6L69.4,21.6z"/>
	</g>
</g>
<g>
	<g>
		<path class="st40" d="M77.5,33.5c2.9,1.5,5.8,3.1,8.8,4.3c1.4,0.6,2.9,1.1,4.3,1.5c0.9,0.2,1.9,0.4,2.7,0c1.6-0.7,2-2.8,2.2-4.3
			c0.3-2.4,0.1-4.6-0.8-6.8c-0.7-1.6-1.5-3-0.9-4.7c0.5-1.5,1.4-2.9,1.9-4.3c0.1-0.2-0.3-0.3-0.3-0.1c-0.7,2-2.4,4-2.1,6.2
			c0.2,1.2,0.8,2.3,1.3,3.4c0.4,1.1,0.7,2.1,0.8,3.3c0.1,1.9,0.1,4.5-1.1,6.2c-1.6,2.2-5.1,0.4-7-0.4c-3.3-1.3-6.5-3-9.6-4.6
			C77.5,33.1,77.3,33.4,77.5,33.5L77.5,33.5z"/>
	</g>
</g>
<g>
	<g>
		<path class="st40" d="M96.5,19.8c-0.6,1.3-0.8,3-0.9,4.4c-0.1,1.5-0.2,3.5,0.8,4.7c0.9,1.1,2.7,0.7,3.5-0.4c1-1.4,0.5-3.6,0.2-5.1
			c-0.2-1.2-0.6-2.3-0.8-3.5c-0.2-0.8-0.4-1.9,0-2.7c0.1-0.2-0.2-0.4-0.3-0.2c-0.7,1.2-0.1,3,0.2,4.3c0.4,1.8,1,3.7,0.9,5.6
			c-0.1,0.8-0.4,1.5-1,2c-0.6,0.4-1.5,0.6-2.1,0.2c-1.2-0.8-1.1-2.9-1.1-4.2c0.1-1.6,0.2-3.4,0.9-4.8C96.9,19.7,96.6,19.6,96.5,19.8
			L96.5,19.8z"/>
	</g>
</g>
<g>
	<g>
		<path class="st40" d="M99.6,18.8c2.1,4.4,2,9.1,1.2,13.8c-0.3,1.6-0.7,3.1-1.1,4.6c-0.2,0.9-0.5,2.2,0.4,2.8
			c1.9,1.4,4.6-2.3,5.6-3.5c2-2.2,3.6-4.8,5.5-7.1c2.5-2.9,5.5-4.5,9.4-4.4c0.2,0,0.2-0.3,0-0.4c-2.8,0-5.4,0.7-7.6,2.5
			c-2.1,1.7-3.6,4-5.1,6.1c-0.9,1.2-1.9,2.4-2.9,3.5c-0.9,1-1.8,2.2-3.1,2.8c-0.9,0.4-1.9,0.2-1.9-1c0-0.8,0.2-1.6,0.5-2.4
			c0.5-1.6,0.8-3.2,1-4.9c0.6-4.4,0.5-8.8-1.4-12.8C99.8,18.4,99.5,18.5,99.6,18.8L99.6,18.8z"/>
	</g>
</g>
<g>
	<g>
		<path class="st40" d="M117.4,26c-3.1,1.8-6.5,3.6-8.6,6.7c-2.2,3.3-3.7,7-5.4,10.5c-0.7,1.5-1.5,2.8-1.7,4.4c-0.2,1.8,0,3.5,0,5.3
			c-0.1,1.8-0.4,3.5-0.1,5.3c0.3,1.9,1,3.8,0.6,5.8c0,0.2,0.3,0.3,0.3,0.1c0.3-1.5,0.1-2.9-0.2-4.3c-0.4-2-0.5-3.7-0.3-5.7
			c0.2-1.7,0-3.4,0-5.1c0-2,0.7-3.6,1.6-5.3c1.7-3.3,3-6.7,5-9.8c2.2-3.6,5.6-5.6,9.1-7.7C117.8,26.2,117.6,25.9,117.4,26L117.4,26z
			"/>
	</g>
</g>
<g>
	<g>
		<path class="st40" d="M117.5,125.6c0.8,0.4,1.6,0.6,2.5,0.8c0.1,0,0.2,0,0.2-0.1c0-0.1,0-0.2-0.1-0.2c-0.8-0.1-1.7-0.4-2.4-0.7
			C117.5,125.2,117.3,125.5,117.5,125.6L117.5,125.6z"/>
	</g>
</g>
<g>
	<g>
		<path class="st40" d="M102.8,74.2c1.1,4.5,1.2,9.3,1.5,14c0.3,4.5,0,9-0.1,13.5c-0.1,2.2-0.1,4.4,0,6.6c0,1.1,0.1,2.3,0.2,3.4
			c0.1,0.8,0,1.5,0.5,2.2c2,2.9,6.1,2.7,7.6,6c0.1,0.2,0.4,0,0.3-0.2c-1.5-3.2-5.3-3.2-7.4-5.8c-0.8-0.9-0.7-2.4-0.7-3.5
			c-0.1-1.1-0.1-2.1-0.1-3.2c0-2.3,0-4.6,0.1-6.9c0.1-4.4,0.3-8.9,0-13.3c-0.3-4.4-0.4-8.8-1.4-13.1C103.1,73.9,102.7,74,102.8,74.2
			L102.8,74.2z"/>
	</g>
</g>
<g>
	<g>
		<path class="st40" d="M82.1,128.8c0.9,2.7,2,6.6,5.6,6.4c2.3-0.1,4.4-1.4,6.4-2.3c3-1.4,6-1.8,9-0.1c0.1,0.1,0.3-0.1,0.2-0.2
			c-1.9-2.8,1.6-3.6,3.7-4c0.2,0,0.1-0.4-0.1-0.3c-2.4,0.4-6,1.5-3.9,4.5c0.1-0.1,0.2-0.2,0.2-0.2c-1.8-1-3.7-1.5-5.7-1.1
			c-2.3,0.4-4.3,1.7-6.4,2.6c-2.1,0.9-4.6,1.7-6.4-0.1c-1.3-1.3-1.8-3.3-2.3-5C82.3,128.5,82,128.6,82.1,128.8L82.1,128.8z"/>
	</g>
</g>
<g>
	<g>
		<path class="st40" d="M82.3,129.4c4.8-1.7,8.7-7,10.1-11.7c0.4-1.4,0.7-2.8,1.2-4.2c0.5-1.4,1.2-2.8,1.7-4.2
			c1.2-2.8,1.9-5.7,1.5-8.8c-0.5-4-0.4-7.9-0.1-11.9c0.3-3.2,1.1-6.6-0.2-9.7c-0.6-1.4-1.3-2.7-1.9-4.2c-0.7-1.8-0.9-3.6-1-5.5
			c-0.2-3.3-0.4-6.6-2.4-9.4c-2.2-3.1-5.1-5.4-7.8-8c-1.2-1.1-2.3-2.2-3.8-2.9c-1.4-0.6-2.9-0.6-4.4-0.6c-0.2,0-0.2,0.4,0,0.4
			c1.6,0,3.1,0,4.6,0.7c1.4,0.7,2.5,1.8,3.7,2.9c2.3,2.1,4.7,4.1,6.7,6.6c2.4,2.9,2.8,6.2,3.1,9.8c0.2,3,0.8,5.6,2.1,8.3
			c0.6,1.2,1.2,2.4,1.4,3.7c0.3,1.8,0,3.6-0.2,5.3c-0.3,3.6-0.7,7.3-0.5,10.9c0.1,1.7,0.4,3.4,0.5,5c0,1.6-0.2,3.1-0.7,4.6
			c-0.8,2.6-2.1,4.9-2.9,7.5c-0.4,1.4-0.6,2.8-1.1,4.2c-0.5,1.4-1.3,2.8-2.1,4.1c-1.8,2.7-4.3,5.5-7.4,6.5
			C82,129.2,82.1,129.5,82.3,129.4L82.3,129.4z"/>
	</g>
</g>
<g>
	<g>
		<path class="st40" d="M105.8,122.5c-0.6-0.5-1.1-1.1-1.8-1.4c-0.2-0.1-0.5-0.2-0.7-0.3c-0.8-0.4-1.2-1-1.4-1.9
			c-0.3-1.8-0.4-3.7-1.1-5.4c-0.4-1.1-1-2-1.3-3.1c-0.3-1.2-0.4-2.3-0.2-3.5c0.2-2,0.4-4,0.7-6c1-8.1,2-16.7-1.6-24.3
			c-1-2.1-2.1-4.2-3-6.4c-0.4-1.1-0.8-2.2-1.2-3.3c-0.3-1-0.3-2.2-0.6-3.1c-0.1-0.2-0.4-0.1-0.3,0.1c0.3,0.7,0.3,1.7,0.5,2.5
			c0.3,1.1,0.6,2.1,1,3.2c0.7,1.8,1.5,3.6,2.4,5.4c2.1,4.2,3.2,8.4,3.4,13c0.2,4.4-0.4,8.7-0.9,13c-0.4,3.7-1.5,7.7,0.1,11.2
			c0.6,1.3,1.2,2.4,1.4,3.9c0.2,1.1,0.3,2.2,0.5,3.3c0.1,0.7,0.3,1.3,0.9,1.7c0.4,0.3,1,0.3,1.5,0.6c0.6,0.3,1.1,0.8,1.6,1.3
			C105.7,122.9,105.9,122.6,105.8,122.5L105.8,122.5z"/>
	</g>
</g>
<g>
	<g>
		<path class="st40" d="M101.6,68c0.2,2.3-0.7,4.7,1.1,6.6c0.1,0.1,0.2,0.1,0.3,0c0.9-2.1,2.7-4,2.2-6.5c-0.1,0-0.2,0.1-0.3,0.1
			c0.7,2.8,3.2,4.1,5.8,4.9c0.1,0,0.2-0.1,0.2-0.2c0.1-2.6-1.1-4.9-3.5-6c0,0.1-0.1,0.2-0.1,0.3c2.1,0.5,4-0.5,5.3-2.1
			c0.1-0.1,0-0.3-0.1-0.3c-1.9,0.1-3.8-0.4-5.7,0.3c0.1,0.1,0.1,0.2,0.2,0.3c1-1.6,2-3.7,0.3-5.2c-0.1-0.1-0.2-0.1-0.3,0
			c-0.6,0.9-1.5,1.4-2.3,2c-0.7,0.6-1.1,1.4-1.1,2.3c0.1-0.1,0.1-0.1,0.2-0.2c-1.5-0.6-3.2-0.8-4.8-0.9c-0.1,0-0.2,0.1-0.2,0.3
			c0.6,1.1,1.6,1.9,2.8,2.1c0-0.1,0-0.2,0-0.3c-2.1,1-3,3.4-3,5.6c0,0.1,0.2,0.2,0.3,0.1c1.2-1.3,2.9-2.3,3.3-4.2
			c0-0.2-0.3-0.3-0.3-0.1c-0.4,1.8-2,2.7-3.2,4c0.1,0,0.2,0.1,0.3,0.1c0-2.1,0.8-4.4,2.8-5.3c0.1-0.1,0.1-0.3,0-0.3
			c-1.2-0.2-2.1-0.9-2.6-2c-0.1,0.1-0.1,0.2-0.2,0.3c1.6,0,3.2,0.3,4.7,0.8c0.1,0,0.2-0.1,0.2-0.2c0.1-2.2,2.4-2.6,3.4-4.2
			c-0.1,0-0.2,0-0.3,0c1.6,1.4,0.6,3.3-0.4,4.8c-0.1,0.1,0.1,0.3,0.2,0.3c1.8-0.8,3.7-0.2,5.6-0.3c0-0.1-0.1-0.2-0.1-0.3
			c-1.2,1.5-3,2.5-5,2c-0.2,0-0.3,0.2-0.1,0.3c2.3,1,3.5,3.2,3.3,5.7c0.1-0.1,0.1-0.1,0.2-0.2c-2.4-0.8-4.8-2-5.5-4.7
			c-0.1-0.2-0.4-0.1-0.3,0.1c0.4,2.3-1.3,4.2-2.2,6.2c0.1,0,0.2,0,0.3,0c-1.7-1.8-0.8-4.2-1-6.4C101.9,67.7,101.6,67.7,101.6,68
			L101.6,68z"/>
	</g>
</g>
<g>
	<g>
		<path class="st40" d="M16,47.2c1.1,1,0.7,2.9,1.2,4.2c0.1-0.1,0.2-0.1,0.3-0.2c-1-1-1.8-2.2-2.4-3.5c0-0.1-0.3-0.2-0.3,0
			c-0.4,0.9-0.9,1.6-1.7,2.2c-0.8,0.5-1.7,0.8-2.6,1c0.1,0.1,0.1,0.2,0.2,0.3c0.7-1.2,1-2.7,2.2-3.5c0.1-0.1,0.1-0.3-0.1-0.3
			c-1.5-0.2-2.8-0.7-4-1.5c0,0.1,0,0.2,0,0.3c1.3-0.6,2.5-1.3,4-1.2c0.2,0,0.2-0.3,0-0.3c-1.1-0.4-1.9-1.3-2.1-2.4
			c-0.1,0.1-0.1,0.1-0.2,0.2c1.7-0.2,3.9,0,4.6,1.9c0.1,0.2,0.3,0.2,0.3,0c0.4-0.9,0.9-1.6,1.8-2.1c-0.1,0-0.2-0.1-0.3-0.1
			c0.2,1.1,0.1,2.3-0.5,3.3c0,0.1,0,0.2,0.1,0.2c1.1,0.5,2.1,1.2,3.3,1.6c0-0.1,0-0.2,0-0.3c-1.1,0.7-2.4,0.8-3.6,0.2
			C16,46.8,15.9,47.1,16,47.2c1.3,0.7,2.8,0.6,4-0.1c0.1-0.1,0.1-0.3,0-0.3c-1.1-0.4-2.1-1-3.2-1.5c0,0.1,0,0.2,0.1,0.2
			c0.7-1.1,0.7-2.3,0.5-3.6c0-0.1-0.2-0.2-0.3-0.1c-1,0.5-1.6,1.3-2,2.3c0.1,0,0.2,0,0.3,0c-0.7-2.1-3-2.4-5-2.2
			c-0.1,0-0.2,0.1-0.2,0.2c0.2,1.3,1.1,2.3,2.3,2.7c0-0.1,0-0.2,0-0.3c-1.5-0.1-2.9,0.6-4.2,1.2c-0.1,0.1-0.1,0.2,0,0.3
			c1.3,0.9,2.7,1.4,4.2,1.6c0-0.1-0.1-0.2-0.1-0.3c-1.2,0.9-1.6,2.4-2.3,3.7c-0.1,0.1,0,0.3,0.2,0.3c1-0.2,2-0.5,2.8-1.1
			c0.8-0.6,1.3-1.3,1.7-2.2c-0.1,0-0.2,0-0.3,0c0.5,1.4,1.4,2.6,2.4,3.7c0.1,0.1,0.4,0,0.3-0.2C17,50,17.4,48,16.3,47
			C16.1,46.8,15.9,47.1,16,47.2L16,47.2z"/>
	</g>
</g>
<g>
	<g>
		<path class="st40" d="M58.4,45.4C58.4,45.3,58.3,45.2,58.4,45.4c-0.1-0.1-0.1-0.2-0.1-0.3c0-0.1-0.1-0.3-0.1-0.4
			c-0.1-0.3-0.1-0.6-0.2-0.9c0-0.1,0-0.4,0-0.5c0-0.1,0.1-0.4,0.1-0.4c0.1-0.1,0.1-0.3,0.2-0.3c0.1-0.1,0.2-0.2,0.4-0.2
			c-0.1-0.1-0.3-0.2-0.4-0.3c0,0.7-0.1,1.3-0.2,1.9c0,0.7,0.1,1.4,0.5,2c0.1,0.1,0.3,0.2,0.5,0.1c1.4-1,1.2-2.8,0.6-4.2
			c-0.1-0.2-0.3-0.2-0.5-0.1c-0.2,0.1-0.2,0.3-0.1,0.5c0.4,1,0.6,2.5-0.4,3.3c0.2,0,0.3,0.1,0.5,0.1c-0.8-1.1-0.3-2.4-0.3-3.6
			c0-0.2-0.2-0.4-0.4-0.3c-1.7,0.6-1.3,2.8-0.7,4.1C58,46.1,58.6,45.8,58.4,45.4L58.4,45.4z"/>
	</g>
</g>
<g>
	<g>
		<path class="st40" d="M75.7,48C75.7,48,75.7,47.9,75.7,48c-0.1-0.1,0,0-0.1-0.1c0,0,0,0,0,0c0,0,0,0-0.1-0.1c0,0-0.1-0.1,0,0
			c0,0,0,0,0,0c0-0.1-0.1-0.1-0.1-0.2c0-0.1,0,0,0,0c0,0,0,0,0-0.1c0,0,0-0.1,0-0.1c0-0.1,0-0.2-0.1-0.2c0,0,0,0,0-0.1
			c0,0.1,0,0,0,0c0-0.1,0-0.1,0-0.2c0-0.2,0-0.4,0-0.6c0,0,0-0.1,0,0c0,0,0,0,0-0.1c0,0,0-0.1,0-0.1c0-0.1,0-0.2,0.1-0.3
			c0-0.1,0-0.2,0.1-0.2c0,0,0-0.1,0-0.1c0,0,0-0.1,0,0c0,0,0-0.1,0-0.1c0-0.1,0.1-0.1,0.1-0.2c0,0,0-0.1,0.1-0.1c0,0,0.1-0.1,0,0
			c0,0,0.1-0.1,0.1-0.1c0,0,0,0,0,0c0,0-0.1,0,0,0c0,0,0.1,0,0.1-0.1c0.1,0-0.1,0,0,0c0,0,0,0,0,0c0.1,0,0,0,0,0c0,0,0.1,0,0.1,0
			c-0.1,0,0,0,0,0c0.1,0-0.1,0,0,0c0,0,0,0,0,0c0,0,0,0,0,0c0,0-0.1-0.1,0,0c0,0,0.1,0.1,0.1,0.1c0,0,0,0,0,0c0,0,0,0,0,0
			c0,0,0,0,0,0c0.1,0.2,0.3,0.2,0.5,0.1c0.2-0.1,0.2-0.3,0.1-0.5c-0.2-0.3-0.6-0.6-1.1-0.6c-0.4,0.1-0.6,0.4-0.8,0.7
			c-0.4,0.7-0.6,1.8-0.4,2.6c0.1,0.5,0.4,0.9,0.8,1.2C75.8,48.8,76.1,48.2,75.7,48L75.7,48z"/>
	</g>
</g>
<g>
	<g>
		<path class="st40" d="M77.4,48.3c-0.3-0.6-0.5-1.3-0.6-2c0-0.6,0.1-1.2,0.7-1.4c0.2-0.1,0.3-0.2,0.2-0.4c0-0.2-0.3-0.3-0.4-0.2
			c-1.8,0.7-1.2,3.1-0.6,4.5C77,49,77.6,48.7,77.4,48.3L77.4,48.3z"/>
	</g>
</g>
<g>
	<g>
		<path class="st40" d="M74.6,47.6c0,0-0.1,0-0.1,0c-0.1,0,0.1,0,0,0c0,0-0.1,0-0.1-0.1c0,0,0,0,0,0c-0.1,0,0,0,0,0
			c-0.1,0-0.1-0.1-0.1-0.1c-0.1-0.1,0,0,0,0c0,0,0-0.1-0.1-0.1c0,0,0-0.1-0.1-0.1c0,0,0,0,0,0c0,0,0,0.1,0,0c0-0.1-0.1-0.2-0.1-0.2
			c0-0.1,0-0.2,0-0.2c0-0.1,0,0.1,0,0c0,0,0,0,0-0.1c0-0.1,0-0.1,0-0.2c0-0.1,0-0.2,0-0.2c0,0,0-0.1,0-0.1c0-0.1,0,0,0,0
			c0,0,0-0.1,0-0.1c0-0.1,0-0.2,0.1-0.3c0,0,0-0.1,0-0.1c0,0,0,0,0-0.1c0,0,0-0.1,0-0.1c0,0,0-0.1,0-0.1c0,0,0-0.1,0.1-0.1
			c0,0,0-0.1,0.1-0.1c0,0,0,0,0,0c0.1-0.1,0,0.1,0,0c0.1-0.1,0.1-0.1,0.2-0.2c0,0,0.1-0.1,0,0c0,0,0.1-0.1,0.1-0.1
			c0,0,0.1-0.1,0.1-0.1c0.1,0-0.1,0,0,0c0,0,0,0,0.1,0c0.1,0,0.1,0,0.2,0c0,0,0,0,0.1,0c0.1,0-0.1,0,0,0c0.3,0,0.5,0,0.7,0.1
			c0.4,0.1,0.6-0.6,0.2-0.7c-0.5-0.1-1.1-0.1-1.6,0.1c-0.4,0.2-0.7,0.5-0.9,0.9c-0.4,0.8-0.4,1.7,0,2.5c0.2,0.4,0.5,0.7,1,0.8
			C74.9,48.4,75.1,47.7,74.6,47.6L74.6,47.6z"/>
	</g>
</g>
<g>
	<g>
		<path class="st40" d="M48.5,116.6c2.9,0.5,5.9,0.5,8.5-1.1c2.6-1.7,4.8-4.7,6.1-7.5c1.7-3.7,1.4-7.8,1.1-11.7
			c-0.3-3.4,0.3-7-0.7-10.3c-0.9-3-3.9-5.4-7.1-5.3c-1.6,0.1-3.3,0.4-4.9,0.7c-1.6,0.3-3.2,0.7-4.5,1.6c-2.8,2.1-2.7,6.2-2.5,9.3
			c0.1,1.9,0,3.7-1.3,5.2c-1.1,1.3-2.7,2.2-3.9,3.5c-2.7,2.7-4.4,6.9-1.7,10.2C40.1,114.5,44.6,115.8,48.5,116.6
			c0.4,0.1,0.6-0.6,0.2-0.7c-3.3-0.7-6.9-1.7-9.5-4c-1.4-1.3-2.5-2.9-2.3-4.9c0.1-1.9,1.2-3.7,2.5-5.1c1.8-2,4.5-3.2,5.5-5.9
			c0.5-1.4,0.4-2.8,0.3-4.2c-0.1-1.7-0.2-3.5,0.3-5.1c1-3.7,4.4-4.4,7.7-4.9c1.6-0.2,3.3-0.7,4.9-0.3c1.7,0.4,3.3,1.8,4.2,3.3
			c1.5,2.6,1.1,6.3,1.1,9.2c0,3.4,0.6,6.8,0,10.3c-0.6,3.6-2.9,7.1-5.6,9.5c-2.6,2.3-5.8,2.6-9.2,2C48.2,115.8,48,116.5,48.5,116.6z
			"/>
	</g>
</g>
<g>
	<g>
		<path class="st40" d="M61.7,110.3c1.4,0.1,2.7,0.5,4.1,0.7c0.9,0.1,1.9,0.4,2.8,0c-0.1-0.1-0.2-0.2-0.2-0.2
			c-0.8,1.5-2.2,2.9-3.7,3.7c-1.9,1-3.9,0-5.6-0.9c-0.2-0.1-0.4,0.2-0.2,0.3c1.8,0.9,3.8,1.9,5.8,1c1.7-0.8,3.2-2.3,4-3.9
			c0.1-0.2-0.1-0.3-0.2-0.2c-0.5,0.2-1,0.2-1.5,0.1c-0.5-0.1-1-0.1-1.5-0.2c-1.2-0.2-2.4-0.5-3.6-0.6
			C61.4,109.9,61.4,110.2,61.7,110.3L61.7,110.3z"/>
	</g>
</g>
<g>
	<g>
		<path class="st40" d="M64,114.9c-0.2,0.7,0,1.4,0,2.1c0,0.1,0.2,0.2,0.3,0.2c1.1-0.8,2-1.9,2.9-2.9c0.2-0.2,0.5-0.5,0.8-0.7
			c0.1-0.1,0.3-0.2,0.4-0.4c0.1-0.1,0.1-0.2,0.1-0.3c0-0.7,0.2-1.4,0-2.1c0-0.2-0.4-0.1-0.3,0.1c0.1,0.3,0.1,0.7,0.1,1
			c0,0.3,0,0.7-0.1,1c0,0.2-0.1,0.2-0.2,0.3c-0.1,0.1-0.3,0.2-0.4,0.3c-0.2,0.2-0.5,0.5-0.7,0.7c-0.9,0.9-1.7,1.9-2.7,2.7
			c0.1,0.1,0.2,0.1,0.3,0.2c0-0.7-0.2-1.3,0-2C64.4,114.7,64,114.6,64,114.9L64,114.9z"/>
	</g>
</g>
<g>
	<g>
		<path class="st40" d="M64.3,116.9c-0.5-0.9-1.6-1.1-2.5-1.3c-0.6-0.1-1.1-0.3-1.6-0.5c-0.4-0.1-0.7-0.3-1.1-0.5
			c-0.2-0.1-0.3-0.2-0.5-0.2c-0.1,0-0.5-0.2-0.5-0.2c0,0.1-0.1,0.1-0.1,0.2c-0.1,0,0,0,0.1,0c0.1,0,0.1,0,0.1,0
			c0.2-0.1,0-0.4-0.2-0.3c0,0-0.1,0-0.1,0c-0.1,0-0.2,0.1-0.1,0.2c0.1,0.2,0.4,0.3,0.6,0.4c0.3,0.2,0.7,0.3,1,0.5
			c0.6,0.3,1.2,0.5,1.8,0.7c0.5,0.1,1,0.2,1.5,0.4c0.5,0.2,1,0.4,1.3,0.9C64.1,117.2,64.4,117.1,64.3,116.9L64.3,116.9z"/>
	</g>
</g>
<g>
	<g>
		<path class="st40" d="M67,97.4c-0.5,2.9-0.8,5.9-1.2,8.8c-0.3,2.9-0.8,5.8-1.9,8.5c-0.1,0.2,0.3,0.3,0.3,0.1
			c1-2.5,1.5-5.2,1.8-7.9c0.4-3.1,0.8-6.2,1.2-9.3C67.4,97.3,67.1,97.2,67,97.4L67,97.4z"/>
	</g>
</g>
<g>
	<g>
		<path class="st40" d="M75.9,49.5c0.2,1.1-0.1,2-0.3,3c-0.2,0.9-0.4,1.9-0.5,2.8c-0.3,1.8-0.7,3.7-1.1,5.5
			c-0.7,3.7-1.5,7.4-2.2,11.1c-1.5,7.4-3,14.8-4.2,22.2c0,0.2,0.3,0.3,0.3,0.1c1.3-7.7,2.8-15.4,4.4-23.1c0.8-3.8,1.5-7.6,2.3-11.3
			c0.4-1.9,0.7-3.8,1.1-5.8c0.3-1.5,0.9-3,0.6-4.6C76.2,49.2,75.9,49.3,75.9,49.5L75.9,49.5z"/>
	</g>
</g>
<g>
	<g>
		<path class="st40" d="M43.8,92.9c2.2-8,4.9-15.8,7.6-23.6c2.7-7.9,5.2-15.9,7.6-24c0.1-0.2-0.3-0.3-0.3-0.1
			c-2.3,8.1-4.9,16.1-7.6,24c-2.7,7.8-5.4,15.6-7.6,23.6C43.4,93,43.8,93.1,43.8,92.9L43.8,92.9z"/>
	</g>
</g>
<g>
	<g>
		<path class="st40" d="M41.1,99.7c0.7-1.1,1.2-2.2,1.6-3.4c0.1-0.2-0.3-0.3-0.3-0.1c-0.4,1.1-0.9,2.3-1.6,3.3
			C40.7,99.7,41,99.9,41.1,99.7L41.1,99.7z"/>
	</g>
</g>
<g>
	<g>
		<path class="st40" d="M45.1,92.9c-0.4-0.6-0.9-1-1.6-1.2c-0.6-0.1-1.2,0-1.7,0.2c-1,0.5-1.7,1.8-1.2,2.9c0.3,0.8,1.2,1.7,2.2,1.3
			c0.7-0.4,1.1-1.3,1.2-2c0-0.4,0-0.8-0.2-1.1c-0.3-0.4-0.7-0.4-1.2-0.4c-0.2,0-0.1,0.4,0.1,0.3c0.3-0.1,0.6,0,0.8,0.2
			c0.2,0.2,0.2,0.5,0.2,0.8c0,0.6-0.3,1.4-0.8,1.8c-0.2,0.2-0.5,0.3-0.7,0.2c-0.4-0.1-0.7-0.4-0.9-0.8c-0.6-0.9-0.3-2,0.6-2.7
			c0.4-0.3,1-0.5,1.6-0.4c0.7,0.1,1.2,0.5,1.6,1C44.9,93.2,45.2,93.1,45.1,92.9L45.1,92.9z"/>
	</g>
</g>
<g>
	<g>
		<path class="st40" d="M43.6,94c-0.1,0.1-0.3,0.2-0.5,0.3c-0.2,0.1-0.3,0.1-0.4,0c-0.1,0-0.3-0.1-0.4-0.2c-0.1-0.2-0.2-0.3-0.3-0.5
			c-0.1-0.2-0.4-0.1-0.3,0.1c0.2,0.4,0.4,0.9,0.9,1c0.5,0.1,0.9-0.1,1.2-0.4C44,94.1,43.8,93.9,43.6,94L43.6,94z"/>
	</g>
</g>
<g>
	<g>
		<path class="st40" d="M43.5,95.1C43.5,95.1,43.5,95.1,43.5,95.1C43.6,95.1,43.6,95.1,43.5,95.1c0.1-0.1,0.1-0.1,0.1-0.1
			c0,0,0,0,0,0c0,0,0,0,0,0c0,0,0,0,0.1,0c0,0,0,0,0.1,0c0,0,0.1,0,0,0c0,0,0,0,0,0c0,0,0,0,0.1,0c0,0,0,0,0,0c0,0,0.1,0,0,0
			c0,0,0,0,0.1,0c0,0,0,0,0,0c0,0,0,0,0,0c0,0,0.1,0,0.1,0c0,0,0,0,0,0c0,0,0,0,0,0c0,0,0,0,0.1,0c0,0,0,0,0,0c0,0,0,0,0,0
			c0.1,0,0.1,0.1,0.1,0.1c0.1,0.1,0.2,0.1,0.2,0.1c0.1,0,0.1-0.2,0.1-0.2c-0.2-0.2-0.4-0.4-0.7-0.4c-0.3,0-0.5,0.2-0.7,0.4
			C43.1,95.1,43.3,95.3,43.5,95.1L43.5,95.1z"/>
	</g>
</g>
<g>
	<g>
		<path class="st40" d="M64,94.4c1.5,0.2,3.8-0.8,4.8,0.7c0.5,0.7,0.2,1.7-0.4,2.3c-0.8,0.7-1.8,0.2-2.1-0.7c-0.4-1,0.4-2.1,1.4-2.1
			c0.2,0,0.2-0.4,0-0.4c-1,0-1.9,0.9-1.9,1.9c0,1,1,2.1,2.1,1.8c0.9-0.2,1.5-1.2,1.5-2.1c-0.1-1.1-0.9-1.8-1.9-1.9
			c-1.2-0.2-2.3,0.2-3.5,0.1C63.8,94,63.8,94.3,64,94.4L64,94.4z"/>
	</g>
</g>
<g>
	<g>
		<path class="st40" d="M64.3,95.9c0.5,0.2,1,0.4,1.5,0.7c0.1,0,0.2,0,0.2-0.1c0-0.1,0-0.2-0.1-0.2c-0.5-0.2-1-0.4-1.5-0.7
			c-0.1,0-0.2,0-0.2,0.1C64.2,95.7,64.3,95.8,64.3,95.9L64.3,95.9z"/>
	</g>
</g>
<g>
	<g>
		<path class="st40" d="M66.2,95.4c0.3,0.4,0.6,0.8,1.1,0.9c0.4,0.1,0.8-0.1,1.1-0.4c0.2-0.2-0.1-0.4-0.2-0.2
			c-0.2,0.2-0.5,0.4-0.8,0.3c-0.4-0.1-0.6-0.4-0.9-0.7c-0.1-0.1-0.2-0.1-0.2-0.1C66.2,95.2,66.2,95.3,66.2,95.4L66.2,95.4z"/>
	</g>
</g>
<g>
	<g>
		<path class="st40" d="M52.3,81.3c0-0.8,0.2-1.6,0.8-2.3c0.5-0.6,1.1-1,1.7-1.5c1.4-1,2.5-2.1,3-3.9c0.1-0.2-0.3-0.3-0.3-0.1
			c-0.2,0.9-0.7,1.8-1.4,2.5c-0.6,0.6-1.2,1-1.9,1.5C53.6,78,53,78.4,52.6,79c-0.5,0.7-0.7,1.5-0.7,2.3
			C51.9,81.6,52.3,81.6,52.3,81.3L52.3,81.3z"/>
	</g>
</g>
<g>
	<g>
		<path class="st40" d="M53.6,81.6c0.3-0.7,0.7-1.4,1.3-1.8c0.1-0.1,0.1-0.2,0.1-0.2c0-0.1-0.2-0.1-0.2-0.1
			c-0.3,0.3-0.6,0.6-0.9,0.9c-0.2,0.3-0.4,0.7-0.6,1C53.2,81.6,53.5,81.8,53.6,81.6L53.6,81.6z"/>
	</g>
</g>
<g>
	<g>
		<path class="st40" d="M42.1,114.2c-0.6,0.4-1.3,0.9-1.9,1.4c-0.4,0.3-1,0.7-0.6,1.3c0.3,0.4,0.8,0.3,1.2,0.3
			c0.4-0.1,0.8-0.2,1.2-0.4c0.8-0.4,1.4-0.9,2.1-1.5c0.2-0.1-0.1-0.4-0.2-0.2c-0.9,0.8-2.1,1.7-3.3,1.8c-0.2,0-0.4,0-0.6-0.1
			c-0.2-0.2,0.2-0.5,0.3-0.7c0.7-0.6,1.3-1.1,2.1-1.6C42.4,114.4,42.2,114.1,42.1,114.2L42.1,114.2z"/>
	</g>
</g>
<g>
	<g>
		<path class="st40" d="M46.1,115.8c-0.1,0.2-0.3,0.4-0.5,0.6c-0.3,0.3-0.5,0.6-0.7,0.9c-0.3,0.5-0.7,1.3-0.1,1.7
			c0.5,0.3,1.1,0,1.6-0.1c0.8-0.3,1.5-0.7,2.3-1.2c0.6-0.4,1.2-0.8,1.9-1.1c0.2-0.1,0.1-0.4-0.1-0.3c-0.5,0.2-1,0.5-1.4,0.8
			c-0.7,0.4-1.4,0.8-2.1,1.2c-0.5,0.2-1.2,0.6-1.8,0.6c-0.7-0.1-0.3-0.9-0.1-1.2c0.2-0.3,0.5-0.6,0.8-0.9c0.2-0.2,0.4-0.4,0.5-0.6
			C46.5,115.8,46.2,115.6,46.1,115.8L46.1,115.8z"/>
	</g>
</g>
<g>
	<g>
		<path class="st40" d="M40.6,116.9c0.3-0.4,0.8-0.8,1.3-0.9c0.1,0,0.1-0.1,0.1-0.2c0-0.1-0.1-0.2-0.2-0.1c-0.6,0.2-1.1,0.6-1.5,1.1
			c-0.1,0.1,0,0.2,0.1,0.2C40.5,117,40.6,116.9,40.6,116.9L40.6,116.9z"/>
	</g>
</g>
<g>
	<g>
		<path class="st40" d="M45.3,118.9c0,0,0-0.1,0-0.1c0,0,0,0,0,0c0,0,0,0,0-0.1c0,0,0-0.1,0-0.1c0,0,0,0,0-0.1c0,0,0,0,0,0
			c0,0,0,0,0,0c0-0.1,0-0.1,0-0.2c0,0,0,0,0,0c0,0,0,0,0,0c0,0,0-0.1,0.1-0.1c0,0,0,0,0,0c0,0,0,0,0,0c0,0,0,0,0.1-0.1
			c0,0,0.1,0,0.1-0.1c0,0,0,0,0,0c0,0,0,0,0,0c0.1-0.1,0.3-0.2,0.4-0.3c0.1,0,0.1-0.2,0.1-0.2c-0.1-0.1-0.2-0.1-0.2-0.1
			c-0.3,0.2-0.6,0.3-0.8,0.6c-0.2,0.3-0.2,0.6-0.1,0.9C45,119.3,45.3,119.2,45.3,118.9L45.3,118.9z"/>
	</g>
</g>
<g>
	<g>
		<path class="st40" d="M68.1,111.3c-0.2-4.6,0-9.2,0-13.9c0-0.2-0.3-0.2-0.4,0c0,4.6-0.2,9.2,0,13.9
			C67.8,111.5,68.1,111.5,68.1,111.3L68.1,111.3z"/>
	</g>
</g>
<g>
	<g>
		<path class="st40" d="M67.9,94.4c2.1-7.5,2.6-15.3,3.7-22.9c0.4-2.9,1-5.8,1.7-8.6c0.8-2.8,1.6-5.6,2.1-8.5c0.4-2.1,1-4.8,0.2-6.8
			c-0.1-0.2-0.4,0-0.3,0.2c0.9,2,0.1,4.8-0.3,6.9c-0.6,2.8-1.3,5.5-2.1,8.2c-1.7,6.2-2.2,12.6-3,18.9c-0.6,4.2-1.2,8.5-2.4,12.6
			C67.5,94.5,67.8,94.6,67.9,94.4L67.9,94.4z"/>
	</g>
</g>
<g>
	<g>
		<path class="st40" d="M43.2,91.8c3.3-8,5.4-16.4,8.1-24.7c1.3-3.9,2.7-7.7,4.2-11.6c1.4-3.7,2.6-7.4,2.9-11.3c0-0.2-0.3-0.2-0.4,0
			c-0.2,4.1-1.6,8-3.1,11.8c-1.4,3.8-2.8,7.6-4.1,11.4c-2.6,8.1-4.8,16.3-8,24.2C42.8,91.9,43.1,92,43.2,91.8L43.2,91.8z"/>
	</g>
</g>
<g>
	<g>
		<path class="st40" d="M117.6,125c-0.1,0.1-0.1,0.1-0.2,0.2c2.8,1.1,4.2,2.3,4.2,3.5c0,2.3-5.3,4.5-14.5,6.2
			c-9.4,1.7-21.9,2.6-35.2,2.6c-13.3,0-25.8-0.9-35.2-2.6c-9.2-1.7-14.5-3.9-14.5-6.2c0-2.3,5.3-4.5,14.5-6.2
			c9.4-1.7,21.9-2.6,35.2-2.6c4.7,0,9.4,0.1,13.8,0.3c0-0.1,0.1-0.2,0.2-0.2c-4.5-0.2-9.1-0.4-13.9-0.4c-13.3,0-25.8,0.9-35.2,2.6
			c-9.5,1.7-14.7,4-14.7,6.5c0,2.5,5.2,4.8,14.7,6.5c9.4,1.7,21.9,2.6,35.2,2.6c13.3,0,25.8-0.9,35.2-2.6c9.5-1.7,14.7-4,14.7-6.5
			C121.9,127.4,120.5,126.1,117.6,125z"/>
	</g>
</g>
<g>
	<g>
		<path class="st40" d="M94.7,12.7c0.2,2.3-0.7,4.7,1.1,6.6c0.1,0.1,0.2,0.1,0.3,0c0.9-2.1,2.7-4,2.2-6.5c-0.1,0-0.2,0.1-0.3,0.1
			c0.7,2.8,3.2,4.1,5.8,4.9c0.1,0,0.2-0.1,0.2-0.2c0.1-2.6-1.1-4.9-3.5-6c0,0.1-0.1,0.2-0.1,0.3c2.1,0.5,4-0.5,5.3-2.1
			c0.1-0.1,0-0.3-0.1-0.3c-1.9,0.1-3.8-0.4-5.7,0.3c0.1,0.1,0.1,0.2,0.2,0.3c1-1.6,2-3.7,0.3-5.2c-0.1-0.1-0.2-0.1-0.3,0
			c-0.6,0.9-1.5,1.4-2.3,2c-0.7,0.6-1.1,1.4-1.1,2.3c0.1-0.1,0.1-0.1,0.2-0.2c-1.5-0.6-3.2-0.8-4.8-0.9c-0.1,0-0.2,0.1-0.2,0.3
			c0.6,1.1,1.6,1.9,2.8,2.1c0-0.1,0-0.2,0-0.3c-2.1,1-3,3.4-3,5.6c0,0.1,0.2,0.2,0.3,0.1c1.2-1.3,2.9-2.3,3.3-4.2
			c0-0.2-0.3-0.3-0.3-0.1c-0.4,1.8-2,2.7-3.2,4c0.1,0,0.2,0.1,0.3,0.1c0-2.1,0.8-4.4,2.8-5.3c0.1-0.1,0.1-0.3,0-0.3
			c-1.2-0.2-2.1-0.9-2.6-2C92.1,8.6,92,8.6,92,8.7c1.6,0,3.2,0.3,4.7,0.9c0.1,0,0.2-0.1,0.2-0.2c0.1-2.2,2.4-2.6,3.4-4.2
			c-0.1,0-0.2,0-0.3,0c1.6,1.4,0.6,3.3-0.4,4.8c-0.1,0.1,0.1,0.3,0.2,0.3c1.8-0.8,3.7-0.2,5.6-0.3c0-0.1-0.1-0.2-0.1-0.3
			c-1.2,1.5-3,2.5-5,2c-0.2,0-0.3,0.2-0.1,0.3c2.3,1,3.5,3.2,3.3,5.7c0.1-0.1,0.1-0.1,0.2-0.2c-2.4-0.8-4.8-2-5.5-4.7
			c-0.1-0.2-0.4-0.1-0.3,0.1c0.4,2.3-1.3,4.2-2.2,6.2c0.1,0,0.2,0,0.3,0c-1.7-1.8-0.8-4.2-1-6.4C95.1,12.4,94.7,12.4,94.7,12.7
			L94.7,12.7z"/>
	</g>
</g>
<g>
	<g>
		<path class="st40" d="M122.4,26.3c0.2,2.8-0.9,5.7,1.3,8c0.1,0.1,0.2,0.1,0.3,0c1.1-2.6,3.3-4.8,2.7-7.8c-0.1,0-0.2,0.1-0.3,0.1
			c0.9,3.3,3.9,4.9,7,5.9c0.1,0,0.2-0.1,0.2-0.2c0.2-3.1-1.3-5.9-4.2-7.2c0,0.1-0.1,0.2-0.1,0.3c2.5,0.6,4.8-0.6,6.4-2.5
			c0.1-0.1,0-0.3-0.1-0.3c-2.3,0.2-4.7-0.5-6.9,0.4c0.1,0.1,0.1,0.2,0.2,0.3c1.2-1.9,2.5-4.4,0.4-6.2c-0.1-0.1-0.2-0.1-0.3,0
			c-0.7,1.1-1.8,1.7-2.8,2.5c-0.9,0.7-1.3,1.6-1.4,2.8c0.1-0.1,0.1-0.1,0.2-0.2c-1.9-0.7-3.9-1-5.9-1c-0.1,0-0.2,0.1-0.2,0.3
			c0.7,1.3,1.9,2.3,3.4,2.6c0-0.1,0-0.2,0-0.3c-2.6,1.2-3.6,4.2-3.6,6.8c0,0.1,0.2,0.2,0.3,0.1c1.5-1.6,3.5-2.8,4-5.1
			c0-0.2-0.3-0.3-0.3-0.1c-0.5,2.2-2.5,3.3-3.9,4.9c0.1,0,0.2,0.1,0.3,0.1c0-2.5,1-5.4,3.4-6.5c0.1-0.1,0.1-0.3,0-0.3
			c-1.4-0.3-2.5-1.1-3.2-2.4c-0.1,0.1-0.1,0.2-0.2,0.3c2,0,3.9,0.4,5.8,1c0.1,0,0.2-0.1,0.2-0.2c0.1-2.6,2.9-3.2,4.1-5.1
			c-0.1,0-0.2,0-0.3,0c1.9,1.7,0.7,4.1-0.4,5.8c-0.1,0.1,0.1,0.3,0.2,0.3c2.2-0.9,4.5-0.2,6.8-0.4c0-0.1-0.1-0.2-0.1-0.3
			c-1.5,1.9-3.7,3-6.1,2.4c-0.2,0-0.3,0.2-0.1,0.3c2.8,1.3,4.2,3.9,4.1,6.9c0.1-0.1,0.1-0.1,0.2-0.2c-2.9-1-5.9-2.5-6.7-5.7
			c-0.1-0.2-0.4-0.1-0.3,0.1c0.5,2.9-1.6,5.1-2.7,7.5c0.1,0,0.2,0,0.3,0c-2.1-2.2-1-5.1-1.2-7.8C122.8,26,122.4,26,122.4,26.3
			L122.4,26.3z"/>
	</g>
</g>
<g>
	<g>
		<path class="st40" d="M41.2,19.8c0.1,1.3-0.4,2.5,0.6,3.6c0.1,0.1,0.2,0.1,0.3,0c0.5-1.2,1.5-2.2,1.2-3.5c-0.1,0-0.2,0.1-0.3,0.1
			c0.4,1.5,1.8,2.2,3.1,2.7c0.1,0,0.2-0.1,0.2-0.2c0.1-1.4-0.6-2.7-1.9-3.3c0,0.1-0.1,0.2-0.1,0.3c1.1,0.3,2.2-0.3,2.9-1.1
			c0.1-0.1,0-0.3-0.1-0.3c-1,0.1-2.1-0.2-3.1,0.2c0.1,0.1,0.1,0.2,0.2,0.3c0.6-0.9,1.1-2,0.2-2.9c-0.1-0.1-0.2-0.1-0.3,0
			c-0.3,0.5-0.8,0.7-1.2,1.1c-0.4,0.3-0.6,0.8-0.6,1.3c0.1-0.1,0.1-0.1,0.2-0.2c-0.8-0.3-1.7-0.5-2.6-0.5c-0.1,0-0.2,0.1-0.2,0.3
			c0.3,0.6,0.9,1.1,1.6,1.2c0-0.1,0-0.2,0-0.3c-1.2,0.5-1.6,1.9-1.6,3.1c0,0.1,0.2,0.2,0.3,0.1c0.7-0.7,1.6-1.2,1.8-2.3
			c0-0.2-0.3-0.3-0.3-0.1c-0.2,0.9-1.1,1.4-1.7,2.1c0.1,0,0.2,0.1,0.3,0.1c0-1.1,0.4-2.3,1.5-2.8c0.1-0.1,0.1-0.3,0-0.3
			c-0.6-0.1-1.1-0.5-1.4-1c-0.1,0.1-0.1,0.2-0.2,0.3c0.9,0,1.7,0.2,2.5,0.4c0.1,0,0.2-0.1,0.2-0.2c0-1.1,1.3-1.4,1.8-2.2
			c-0.1,0-0.2,0-0.3,0c0.8,0.7,0.3,1.7-0.2,2.4c-0.1,0.1,0.1,0.3,0.2,0.3c1-0.4,2-0.1,3-0.2c0-0.1-0.1-0.2-0.1-0.3
			c-0.6,0.8-1.5,1.3-2.6,1c-0.2,0-0.3,0.2-0.1,0.3c1.2,0.5,1.8,1.7,1.7,2.9c0.1-0.1,0.1-0.1,0.2-0.2c-1.3-0.4-2.5-1-2.9-2.4
			c-0.1-0.2-0.4-0.1-0.3,0.1c0.2,1.2-0.7,2.2-1.2,3.2c0.1,0,0.2,0,0.3,0c-0.9-0.9-0.4-2.2-0.5-3.3C41.5,19.6,41.2,19.6,41.2,19.8
			L41.2,19.8z"/>
	</g>
</g>
<g>
	<g>
		<path class="st40" d="M66.2,116.8c11.5-6,17.5-19.2,22.7-30.4c0.1-0.2-0.2-0.4-0.3-0.2c-5.2,11.2-11.1,24.3-22.5,30.2
			C65.9,116.6,66,116.9,66.2,116.8L66.2,116.8z"/>
	</g>
</g>
<g>
	<g>
		<path class="st40" d="M70.3,110.4c2.5-0.5,4.2-3.2,5.5-5.2c1.4-2.3,2.5-4.9,3.9-7.2c0.1-0.2-0.2-0.4-0.3-0.2
			c-1.3,2.2-2.3,4.6-3.6,6.8c-1.2,2.1-2.9,4.9-5.5,5.4C70,110.1,70.1,110.5,70.3,110.4L70.3,110.4z"/>
	</g>
</g>
<g>
	<g>
		<path class="st40" d="M41.5,127.1c5.1-1.3,9.9-3.5,14.7-5.7c0.2-0.1,0-0.4-0.2-0.3c-4.8,2.1-9.5,4.3-14.6,5.6
			C41.2,126.8,41.3,127.2,41.5,127.1L41.5,127.1z"/>
	</g>
</g>
<g>
	<g>
		<path class="st40" d="M39.5,125.8c1.6-0.3,3.1-1,4.6-1.5c0.2-0.1,0.1-0.4-0.1-0.3c-1.5,0.5-3,1.3-4.6,1.5
			C39.2,125.5,39.3,125.9,39.5,125.8L39.5,125.8z"/>
	</g>
</g>
<g>
	<g>
		<path class="st40" d="M59,126.6c0.1,1.1-0.2,2.2-0.1,3.3c0.1,1.1,0.6,2.1,1.4,2.8c0.1,0.1,0.2,0.1,0.3,0c1.1-1.8,3.3-3.5,2.7-5.9
			c-0.1,0-0.2,0.1-0.3,0.1c1,2.8,4.3,3.8,6.9,4.5c0.1,0,0.2-0.1,0.2-0.2c0.2-2.8-1.8-4.6-4.3-5.4c0,0.1-0.1,0.2-0.1,0.3
			c2.3,0.4,4.6-0.3,6.4-1.9c0.1-0.1,0-0.3-0.1-0.3c-2.3,0.1-4.6-0.4-6.9,0.3c0.1,0.1,0.1,0.2,0.2,0.3c1.3-1.5,2.4-3.4,0.4-4.8
			c-0.1,0-0.2,0-0.2,0c-1.3,1.5-4.1,1.7-4.2,4c0.1-0.1,0.1-0.1,0.2-0.2c-1.9-0.5-3.9-0.8-5.8-0.8c-0.1,0-0.2,0.2-0.2,0.3
			c0.8,1.1,2.1,1.8,3.4,1.9c0-0.1,0-0.2,0-0.3c-2.2,0.8-3.6,2.8-3.6,5.1c0,0.2,0.2,0.2,0.3,0.1c1.4-1.1,3.4-1.9,4-3.8
			c0.1-0.2-0.3-0.3-0.3-0.1c-0.5,1.8-2.6,2.6-3.9,3.6c0.1,0,0.2,0.1,0.3,0.1c0-2.2,1.3-4.1,3.4-4.8c0.1,0,0.2-0.3,0-0.3
			c-1.3-0.2-2.4-0.7-3.2-1.8c-0.1,0.1-0.1,0.2-0.2,0.3c1.9,0,3.9,0.3,5.7,0.8c0.1,0,0.2-0.1,0.2-0.2c0.1-1.8,2.2-2.2,3.4-3.1
			c0.2-0.2,0.5-0.5,0.7-0.5c0.6,0.1,0.8,1.1,0.8,1.5c-0.1,1-0.9,1.9-1.5,2.5c-0.1,0.1,0,0.3,0.2,0.3c2.2-0.7,4.5-0.2,6.8-0.3
			c0-0.1-0.1-0.2-0.1-0.3c-1.6,1.5-3.8,2.2-6,1.8c-0.2,0-0.3,0.3-0.1,0.3c2.3,0.8,4.2,2.5,4,5.1c0.1-0.1,0.1-0.1,0.2-0.2
			c-2.5-0.6-5.7-1.5-6.7-4.2c-0.1-0.2-0.4-0.1-0.3,0.1c0.5,2.2-1.7,3.9-2.7,5.6c0.1,0,0.2,0,0.3,0c-2-1.6-1-3.6-1.2-5.8
			C59.3,126.4,59,126.4,59,126.6L59,126.6z"/>
	</g>
</g>
<g>
	<g>
		<path class="st40" d="M57,125.2c-1.5,0.2-3.3,0.4-4.4,1.7c-0.3,0.3-0.4,0.7-0.8,0.7c-0.6,0-1.3-0.1-1.9-0.2
			c-1.1-0.2-2.2-0.3-3.4-0.3c-0.1,0-0.2,0.2-0.1,0.3c0.9,0.9,2.2,1.2,3.4,1.3c0-0.1,0-0.2,0-0.3c-1.8,0.4-3.6,1.6-3.6,3.6
			c0,0.1,0.2,0.2,0.3,0.2c1.4-0.8,3.3-1,4-2.6c0.1-0.2-0.2-0.4-0.3-0.2c-0.6,1.5-2.6,1.8-3.9,2.5c0.1,0.1,0.2,0.1,0.3,0.2
			c0.1-1.8,1.8-2.9,3.4-3.2c0.2,0,0.1-0.3,0-0.3c-1.2-0.1-2.3-0.4-3.2-1.2c0,0.1-0.1,0.2-0.1,0.3c1.9-0.1,3.8,0.5,5.7,0.5
			c0.1,0,0.1,0,0.2-0.1c0.9-1.8,2.8-2.1,4.6-2.3C57.2,125.5,57.2,125.2,57,125.2L57,125.2z"/>
	</g>
</g>
<g>
	<g>
		<path class="st40" d="M49.9,129.9c0,0.7-0.1,1.5-0.1,2.2c0,0.6,0.2,1.4,0.8,1.7c0.8,0.4,1.7-0.3,2.2-0.8c0.8-0.8,1.5-1.9,1.4-3.1
			c-0.1,0-0.2,0.1-0.3,0.1c1.3,2.5,4.5,2.7,6.9,3.1c0.1,0,0.2,0,0.2-0.2c0-0.1,0-0.2,0-0.3c0-0.2-0.3-0.2-0.4,0c0,0.1,0,0.2,0,0.3
			c0.1-0.1,0.1-0.1,0.2-0.2c-2.3-0.4-5.5-0.5-6.7-2.9c-0.1-0.1-0.3-0.1-0.3,0.1c0.1,1-0.5,2.1-1.2,2.8c-0.4,0.4-1.5,1.3-2.1,0.5
			c-0.4-0.5-0.4-1.2-0.4-1.8c0-0.6,0.1-1.1,0.1-1.7C50.3,129.6,49.9,129.6,49.9,129.9L49.9,129.9z"/>
	</g>
</g>
<g>
	<g>
		<path class="st40" d="M106.8,126.1c0.1,1.1-0.2,2.2-0.1,3.3c0.1,1.1,0.6,2.1,1.4,2.8c0.1,0.1,0.2,0.1,0.3,0
			c1.1-1.8,3.3-3.5,2.7-5.9c-0.1,0-0.2,0.1-0.3,0.1c1,2.8,4.3,3.8,6.9,4.5c0.1,0,0.2-0.1,0.2-0.2c0.2-2.8-1.8-4.6-4.3-5.4
			c0,0.1-0.1,0.2-0.1,0.3c2.3,0.4,4.6-0.3,6.4-1.9c0.1-0.1,0-0.3-0.1-0.3c-2.3,0.1-4.6-0.4-6.9,0.3c0.1,0.1,0.1,0.2,0.2,0.3
			c1.3-1.5,2.4-3.4,0.4-4.8c-0.1,0-0.2,0-0.2,0c-1.3,1.5-4.1,1.7-4.2,4c0.1-0.1,0.1-0.1,0.2-0.2c-1.9-0.5-3.9-0.8-5.8-0.8
			c-0.1,0-0.2,0.2-0.2,0.3c0.8,1.1,2.1,1.8,3.4,1.9c0-0.1,0-0.2,0-0.3c-2.2,0.8-3.6,2.8-3.6,5.1c0,0.2,0.2,0.2,0.3,0.1
			c1.4-1.1,3.4-1.9,4-3.8c0.1-0.2-0.3-0.3-0.3-0.1c-0.5,1.8-2.6,2.6-3.9,3.6c0.1,0,0.2,0.1,0.3,0.1c0-2.2,1.3-4.1,3.4-4.8
			c0.1,0,0.2-0.3,0-0.3c-1.3-0.2-2.4-0.7-3.2-1.8c-0.1,0.1-0.1,0.2-0.2,0.3c1.9,0,3.9,0.3,5.7,0.8c0.1,0,0.2-0.1,0.2-0.2
			c0.1-1.8,2.2-2.2,3.4-3.1c0.2-0.2,0.5-0.5,0.7-0.5c0.6,0.1,0.8,1.1,0.8,1.5c-0.1,1-0.9,1.9-1.5,2.5c-0.1,0.1,0,0.3,0.2,0.3
			c2.2-0.7,4.5-0.2,6.8-0.3c0-0.1-0.1-0.2-0.1-0.3c-1.6,1.5-3.8,2.2-6,1.8c-0.2,0-0.3,0.3-0.1,0.3c2.3,0.8,4.2,2.5,4,5.1
			c0.1-0.1,0.1-0.1,0.2-0.2c-2.5-0.6-5.7-1.5-6.7-4.2c-0.1-0.2-0.4-0.1-0.3,0.1c0.5,2.2-1.7,3.9-2.7,5.6c0.1,0,0.2,0,0.3,0
			c-2-1.6-1-3.6-1.2-5.8C107.1,125.9,106.8,125.9,106.8,126.1L106.8,126.1z"/>
	</g>
</g>
<g>
	<g>
		<path class="st40" d="M12.3,96c0.1,0.8-0.2,1.6-0.1,2.4c0.1,0.9,0.7,1.4,1.5,1.8c0.1,0,0.2,0,0.2,0c0.9-1.1,3.3-2.4,2.7-4.1
			c-0.1,0-0.2,0.1-0.3,0.1c1.2,2.3,4.7,2.7,6.9,3.1c0.1,0,0.2,0,0.2-0.2c0.2-2.3-2.4-3.4-4.3-3.8c0,0.1,0,0.2,0,0.3
			c2.2,0.2,4.4-0.1,6.3-1.3c0.1-0.1,0.1-0.3-0.1-0.3c-2.3,0.1-4.6-0.3-6.9,0.2c0.1,0.1,0.1,0.2,0.2,0.3c0.6-0.5,1.4-1.1,1.6-1.9
			c0.1-0.8-0.6-1.2-1.2-1.5c-0.1,0-0.1,0-0.2,0c-1.1,0.9-4.1,1-4.2,2.8c0.1-0.1,0.1-0.1,0.2-0.2c-1.9-0.4-3.9-0.5-5.8-0.5
			c-0.1,0-0.2,0.2-0.1,0.3c0.9,0.9,2.2,1.2,3.4,1.3c0-0.1,0-0.2,0-0.3c-1.8,0.4-3.6,1.6-3.6,3.6c0,0.1,0.2,0.2,0.3,0.2
			c1.3-0.7,3.4-1.2,4-2.6c0.1-0.2-0.2-0.4-0.3-0.2c-0.6,1.4-2.7,1.8-3.9,2.5c0.1,0.1,0.2,0.1,0.3,0.2c0.1-1.8,1.8-2.9,3.4-3.2
			c0.2,0,0.1-0.3,0-0.3c-1.1-0.1-2.3-0.4-3.2-1.2c0,0.1-0.1,0.2-0.1,0.3c1.9,0,3.9,0.2,5.7,0.5c0.1,0,0.2,0,0.2-0.2
			c0.1-1.3,2.4-1.6,3.3-2c0.2-0.1,0.5-0.4,0.6-0.4c0.4,0,0.9,0.6,0.9,0.9c0,0.7-1,1.4-1.5,1.8c-0.1,0.1,0,0.3,0.2,0.3
			c2.2-0.5,4.5-0.1,6.8-0.2c0-0.1-0.1-0.2-0.1-0.3c-1.8,1.2-4,1.5-6.1,1.3c-0.2,0-0.2,0.3,0,0.3c1.7,0.4,4.2,1.3,4,3.5
			c0.1-0.1,0.1-0.1,0.2-0.2c-2.1-0.4-5.6-0.7-6.7-2.9c-0.1-0.2-0.4-0.1-0.3,0.1c0.3,0.9-0.4,1.6-1,2.2c-0.3,0.3-0.6,0.5-0.8,0.8
			c-0.2,0.2-0.5,0.7-0.9,0.7c-0.4,0-0.9-0.8-1-1.1c-0.1-0.3-0.1-0.6-0.1-0.9c0-0.6,0.2-1.1,0.1-1.7C12.6,95.8,12.3,95.8,12.3,96
			L12.3,96z"/>
	</g>
</g>
<g>
	<g>
		<path class="st40" d="M81.6,23.7c-2.2,2.1-2.8,5.4-2,8.3c0.7,2.3,2.6,4.8,5.3,4.7c2.8-0.1,5-2.6,5-5.3c0-2.6-1.5-5.2-3.3-7
			c-1.6-1.5-4.3-2.8-5.7-0.4c-0.1,0.2,0.2,0.4,0.3,0.2c1.1-2,3.3-1.1,4.7,0.1c1.8,1.5,3.2,3.8,3.6,6.1c0.4,2.7-1.2,5.2-3.9,5.8
			c-2.5,0.6-4.5-1.4-5.4-3.6c-1.2-2.9-0.7-6.4,1.6-8.6C82,23.8,81.8,23.6,81.6,23.7L81.6,23.7z"/>
	</g>
</g>
<g>
	<g>
		<path class="st40" d="M80.4,24.3c-0.8,0.6-1.6,1.2-2.2,2c-0.2,0.3-0.5,0.6-0.6,0.9c0,0.1,0,0.2,0,0.2c0.3,0.3,0.6,0.4,0.9,0.3
			c0.3,0,0.6-0.1,1,0c0.2,0.1,0.4-0.2,0.2-0.3c-0.3-0.1-0.6-0.1-0.9-0.1c-0.3,0-0.6,0.1-0.9-0.2c0,0.1,0,0.1,0,0.2
			c0.4-0.7,1-1.3,1.6-1.8c0.4-0.3,0.7-0.6,1.1-0.9C80.7,24.5,80.6,24.2,80.4,24.3L80.4,24.3z"/>
	</g>
</g>
<g>
	<g>
		<path class="st40" d="M89.4,33.9c0.6,0.6,1.2,1.1,2,1.4c0.8,0.3,1.7,0.3,2.5,0.2c-0.1-0.1-0.1-0.1-0.2-0.2c-0.1,0.7-0.3,1.5-1,1.8
			c-0.7,0.3-1.5-0.1-2.1-0.4c-0.2-0.1-0.4,0.2-0.2,0.3c0.6,0.3,1.2,0.6,1.9,0.9c0-0.1,0.1-0.2,0.1-0.3c-0.5,0-1,0.1-1.4,0.3
			c-0.5,0.2-1.1-0.1-1.6-0.3c-0.1,0-0.3,0-0.3,0.2c0,0.5,0,1.2,0.4,1.7c0.1-0.1,0.1-0.2,0.2-0.3c-1.5-0.3-2.1-1.9-2.4-3.3
			c0-0.2-0.4-0.1-0.3,0.1c0.3,1.5,0.9,3.2,2.6,3.5c0.2,0,0.3-0.2,0.2-0.3c-0.3-0.3-0.3-1-0.3-1.4c-0.1,0.1-0.2,0.1-0.3,0.2
			c0.5,0.2,1.2,0.6,1.7,0.4c0.2-0.1,0.3-0.1,0.4-0.2c0.3-0.1,0.7-0.2,1-0.2c0.2,0,0.2-0.2,0.1-0.3c-0.6-0.3-1.2-0.6-1.9-0.9
			c-0.1,0.1-0.1,0.2-0.2,0.3c0.7,0.4,1.6,0.7,2.5,0.4c0.8-0.3,1.1-1.3,1.2-2.1c0-0.1-0.1-0.2-0.2-0.2c-0.8,0.1-1.6,0.1-2.3-0.2
			c-0.7-0.3-1.3-0.8-1.9-1.3C89.4,33.5,89.2,33.8,89.4,33.9L89.4,33.9z"/>
	</g>
</g>
<g>
	<g>
		<path class="st40" d="M58.4,18.1c-1.2,0.9-2.2,2.1-2.7,3.5c-0.4,1.1-0.3,2.3,0.1,3.4c0.7,2,2.5,3.7,4.6,3.9
			c2.2,0.2,3.9-1.8,4.2-3.9c0.2-1.2,0-2.5-0.4-3.6c-0.3-1.2-0.8-2.4-1.5-3.4c-0.6-0.8-1.4-1.7-2.4-1.7c-1.3-0.1-2.1,1.2-2.5,2.2
			c-0.1,0.2,0.2,0.4,0.3,0.2c0.4-0.8,1-1.9,2.1-2c0.8,0,1.5,0.6,2,1.2c1.4,1.7,2.2,4.2,2.2,6.3c0,1.9-1.2,4.2-3.3,4.4
			c-1.9,0.2-3.7-1.3-4.6-2.9c-0.6-1.1-0.8-2.3-0.5-3.5c0.4-1.5,1.4-2.8,2.6-3.7C58.7,18.3,58.5,18,58.4,18.1L58.4,18.1z"/>
	</g>
</g>
<g>
	<g>
		<path class="st40" d="M59.9,19.7c-0.1,0.1-0.2,0.2-0.3,0.3c-0.1,0.1-0.2,0.2-0.3,0.3c-0.1,0.1-0.2,0.2-0.2,0.2
			c-0.1,0.1-0.1,0.1-0.2,0.2c-0.1,0.1-0.1,0.2-0.2,0.2c0,0.1-0.1,0.1-0.1,0.2c0,0.1-0.1,0.1-0.1,0.2c0,0,0,0.1,0,0.1
			c0,0.1,0,0.1,0,0.2c0,0.1,0,0.1,0,0.2c0,0,0,0.1,0.1,0.1c0,0,0.1,0.1,0.1,0.1c0,0,0.1,0.1,0.1,0.1c0,0,0.1,0,0.2,0.1
			c0,0,0.1,0,0.1,0c0.1,0,0.1,0,0.2,0c0.1,0,0.1,0,0.2,0c0.1,0,0.1,0,0.2,0c0.1,0,0.1,0,0.2,0c0.1,0,0.2,0,0.2,0c0.1,0,0.1,0,0.2,0
			c0.1,0,0.1,0,0.2,0c0.1,0,0.1,0,0.2-0.1c0.1,0,0.1,0,0.2-0.1c0.1,0,0.1-0.1,0.2-0.1c0.1,0,0.1,0,0.2-0.1c0,0,0.1-0.1,0.1-0.1
			c0.1,0,0.1-0.1,0.2-0.1c0,0,0.1-0.1,0.1-0.1c0,0,0.1-0.1,0.1-0.1c0,0,0.1-0.1,0.1-0.1c0,0,0-0.1,0.1-0.1c0-0.1,0-0.1,0-0.2
			c0-0.1,0-0.1,0-0.2c0-0.1,0-0.1-0.1-0.2c0-0.1-0.1-0.1-0.1-0.2c0,0-0.1-0.1-0.1-0.1c-0.1-0.1-0.1-0.1-0.2-0.1
			c-0.1,0-0.1-0.1-0.2-0.1c-0.1,0-0.2-0.1-0.2-0.1c-0.1,0-0.2-0.1-0.3-0.1c0,0-0.1,0-0.1,0c0,0-0.1,0.1-0.1,0.1c0,0,0,0.1,0,0.1
			c0,0,0,0,0,0c0,0,0,0,0.1,0c0.1,0,0.2,0.1,0.3,0.1c0,0,0,0,0,0c0.1,0,0.2,0.1,0.3,0.1c0.1,0,0.1,0.1,0.2,0.1c0,0,0.1,0,0.1,0.1
			c0,0,0,0,0,0c0.1,0,0.1,0.1,0.2,0.1c0,0,0,0,0,0c0,0,0,0,0,0c0,0,0,0.1,0.1,0.1c0,0,0,0,0,0c0,0,0,0,0,0c0,0,0,0.1,0,0.1
			c0,0,0,0,0,0c0,0,0,0.1,0,0.1c0,0,0,0,0,0c0,0,0,0.1,0,0.1c0,0,0,0,0,0c0,0,0,0,0,0c0,0,0,0.1-0.1,0.1c0,0,0,0,0,0c0,0,0,0,0,0
			c0,0.1-0.1,0.1-0.2,0.2c0,0,0,0-0.1,0c0,0,0,0,0,0c-0.1,0-0.1,0.1-0.2,0.1c-0.1,0-0.1,0.1-0.2,0.1c0,0-0.1,0-0.1,0.1c0,0,0,0,0,0
			c-0.1,0-0.1,0-0.2,0.1c-0.1,0-0.1,0-0.2,0.1c-0.1,0-0.1,0-0.2,0c-0.1,0-0.1,0-0.2,0c-0.1,0-0.1,0-0.2,0c0,0,0,0,0,0c0,0,0,0,0,0
			c-0.1,0-0.2,0-0.3,0c-0.1,0-0.2,0-0.2,0c0,0-0.1,0-0.1,0c0,0,0,0,0,0c0,0-0.1,0-0.1,0c0,0-0.1,0-0.1,0c0,0,0,0-0.1,0c0,0,0,0,0,0
			c0,0-0.1,0-0.1-0.1c0,0,0,0,0,0c0,0,0,0,0,0c0,0-0.1,0-0.1-0.1c0,0,0,0,0,0c0,0,0-0.1,0-0.1c0,0,0,0,0,0c0,0,0-0.1,0-0.1
			c0,0,0,0,0,0c0,0,0-0.1,0-0.1c0,0,0,0,0,0c0,0,0,0,0,0c0-0.1,0-0.1,0-0.2c0,0,0,0,0-0.1c0,0,0,0,0,0c0-0.1,0-0.1,0.1-0.2
			c0-0.1,0.1-0.1,0.1-0.2c0,0,0-0.1,0.1-0.1c0,0,0,0,0,0c0-0.1,0.1-0.1,0.2-0.2c0.1-0.1,0.1-0.1,0.2-0.2c0.1-0.1,0.1-0.1,0.2-0.2
			c0.1-0.1,0.2-0.2,0.3-0.2c0.1-0.1,0.2-0.2,0.3-0.2c0,0,0,0,0,0c0,0,0.1-0.1,0.1-0.1c0,0,0-0.1-0.1-0.1c0,0-0.1-0.1-0.1-0.1
			C60,19.6,60,19.7,59.9,19.7C59.9,19.7,59.9,19.7,59.9,19.7L59.9,19.7z"/>
	</g>
</g>
<g>
	<g>
		<path class="st40" d="M57.4,30c-0.5,0.9-1,2.2-0.5,3.2c0.3,0.8,1.1,1.3,1.9,1.5c0.8,0.2,1.8,0.2,2.6,0c0.7-0.2,1.4-0.5,1.7-1.2
			c0.3-0.8-0.4-1.6-1-2c-0.1-0.1-0.3-0.2-0.4-0.3c-0.2-0.1-0.4,0.2-0.2,0.3c0.4,0.3,0.8,0.6,1.1,1c0.1,0.1,0.2,0.3,0.2,0.4
			c0,0.1,0,0.1,0,0.2c0,0.1,0,0.1,0,0.2c-0.1,0.3-0.2,0.4-0.4,0.6c-0.2,0.2-0.6,0.3-0.9,0.4c-0.7,0.2-1.6,0.3-2.3,0.1
			c-0.7-0.1-1.5-0.5-1.9-1.1c-0.5-0.8-0.2-1.9,0.1-2.7c0.1-0.2,0.2-0.3,0.2-0.5C57.8,30,57.5,29.8,57.4,30L57.4,30z"/>
	</g>
</g>
<g>
	<g>
		<path class="st40" d="M60.2,16.4c0-0.6-0.2-1.1-0.4-1.6c-0.2-0.6-0.5-1.1-0.9-1.6c-0.1-0.2-0.4,0-0.3,0.2c0.3,0.5,0.6,1,0.8,1.5
			c0.2,0.5,0.4,1,0.4,1.5C59.8,16.6,60.2,16.6,60.2,16.4L60.2,16.4z"/>
	</g>
</g>
<g>
	<g>
		<path class="st40" d="M60.8,16.7c0,0.1,0,0.1,0.1,0.2c0.1,0.1,0.2,0.1,0.3,0c0.1-0.1,0.1-0.2,0.1-0.3c0.1-0.3,0.1-0.5,0.2-0.8
			c0-0.1,0-0.3,0-0.4c0-0.1-0.1-0.2-0.2-0.2c-0.1,0-0.2,0.1-0.2,0.2c0,0,0,0.1,0,0.1c0,0,0,0.1,0,0c0,0,0,0,0,0.1
			c0,0.1,0,0.2-0.1,0.3c0,0.2-0.1,0.4-0.1,0.6C60.8,16.6,60.8,16.6,60.8,16.7C60.8,16.7,60.8,16.6,60.8,16.7
			C60.8,16.7,60.8,16.7,60.8,16.7C60.8,16.7,60.8,16.6,60.8,16.7c0.1-0.1,0.1-0.1,0.1-0.1c0,0,0.1,0,0.1,0c0.1,0,0.1,0.1,0.1,0.1
			c0,0,0,0,0,0c0,0,0,0.1,0,0c0,0,0,0,0,0c0-0.1-0.1-0.2-0.2-0.2C60.8,16.5,60.8,16.6,60.8,16.7L60.8,16.7z"/>
	</g>
</g>
<g>
	<g>
		<path class="st40" d="M82.8,22.8c-0.5-0.8-0.6-1.7-0.2-2.6c0.4-0.9,1.2-1.6,2-2.1c0.2-0.1,0-0.4-0.2-0.3c-0.9,0.6-1.7,1.4-2.2,2.4
			c-0.4,1-0.3,2,0.3,2.8C82.6,23.2,82.9,23,82.8,22.8L82.8,22.8z"/>
	</g>
</g>
<g>
	<g>
		<path class="st40" d="M84.4,22.5c-0.1-0.3,0-0.5,0.1-0.7c0.2-0.3,0.5-0.4,0.7-0.6c0.1,0,0.1-0.2,0.1-0.2c-0.1-0.1-0.2-0.1-0.2-0.1
			c-0.6,0.3-1.4,1-1,1.8c0,0.1,0.2,0.1,0.2,0.1C84.4,22.7,84.4,22.6,84.4,22.5L84.4,22.5z"/>
	</g>
</g>
<path class="st41" d="M85.2,26.5c0-1-0.8-1.9-1.9-1.9c-1,0-1.9,0.8-1.9,1.9c0,1,0.8,1.9,1.9,1.9C84.3,28.4,85.2,27.6,85.2,26.5z"/>
<path class="st40" d="M82.3,26c-0.3,0-0.6,0.3-0.6,0.6c0,0.3,0.3,0.6,0.6,0.6c0.3,0,0.6-0.3,0.6-0.6C82.9,26.3,82.6,26,82.3,26z
	 M82.5,27c-0.1,0-0.2-0.1-0.2-0.2c0-0.1,0.1-0.2,0.2-0.2c0.1,0,0.2,0.1,0.2,0.2C82.7,27,82.6,27,82.5,27z"/>
<path class="st41" d="M60.1,17.8c0-0.7-0.6-1.2-1.2-1.2c-0.7,0-1.2,0.5-1.2,1.2c0,0.7,0.6,1.2,1.2,1.2C59.5,19,60.1,18.5,60.1,17.8z
	"/>
<path class="st40" d="M58.2,17.5c-0.2,0-0.4,0.2-0.4,0.4c0,0.2,0.2,0.4,0.4,0.4c0.2,0,0.4-0.2,0.4-0.4
	C58.6,17.7,58.4,17.5,58.2,17.5z M58.4,18.1c-0.1,0-0.1-0.1-0.1-0.1c0-0.1,0.1-0.1,0.1-0.1c0.1,0,0.1,0.1,0.1,0.1
	C58.5,18.1,58.4,18.1,58.4,18.1z"/>
<path class="st41" d="M63.3,18.1c0-0.7-0.6-1.2-1.2-1.2c-0.7,0-1.2,0.5-1.2,1.2c0,0.7,0.6,1.2,1.2,1.2
	C62.7,19.3,63.3,18.8,63.3,18.1z"/>
<path class="st40" d="M61.4,17.8c-0.2,0-0.4,0.2-0.4,0.4c0,0.2,0.2,0.4,0.4,0.4c0.2,0,0.4-0.2,0.4-0.4C61.8,18,61.6,17.8,61.4,17.8z
	 M61.6,18.4c-0.1,0-0.1-0.1-0.1-0.1c0-0.1,0.1-0.1,0.1-0.1c0.1,0,0.1,0.1,0.1,0.1C61.7,18.4,61.6,18.4,61.6,18.4z"/>
<g>
	<g>
		<path class="st40" d="M14.5,94.2c0.7,0.5,1.4,0.7,2.1,1.1c0.7,0.4,1.4,0.9,2.1,1.4c0.8,0.4,1.6,0.8,2.4,1.2c0.3,0.2,0.6,0.4,1,0.5
			c0.3,0.2,0.7,0.3,0.9,0.7c0.1,0.2,0.4,0,0.3-0.2c-0.3-0.6-1-0.8-1.5-1.1c-0.8-0.5-1.7-0.8-2.5-1.3c-0.8-0.4-1.4-0.9-2.2-1.4
			c-0.7-0.5-1.6-0.7-2.3-1.2C14.5,93.8,14.4,94.1,14.5,94.2L14.5,94.2z"/>
	</g>
</g>
<g>
	<g>
		<path class="st40" d="M15.4,94.5c-0.6,0.7-1.1,1.4-1.3,2.3c-0.2,0.9-0.1,2-0.6,2.8c-0.1,0.2,0.2,0.4,0.3,0.2
			c0.4-0.8,0.4-1.8,0.6-2.7c0.1-1,0.6-1.7,1.3-2.4C15.8,94.6,15.6,94.3,15.4,94.5L15.4,94.5z"/>
	</g>
</g>
<g>
	<g>
		<path class="st40" d="M16.3,95c0.6-0.1,1.2-0.5,1.6-0.9c0.5-0.4,1.1-1,1.3-1.7c0.1-0.3,0-0.7-0.2-1c-0.1-0.2-0.4,0-0.3,0.2
			c0.4,0.5,0.1,1-0.2,1.5c-0.4,0.5-1,1-1.6,1.3c-0.2,0.1-0.5,0.3-0.7,0.3C16,94.7,16.1,95,16.3,95L16.3,95z"/>
	</g>
</g>
<g>
	<g>
		<path class="st40" d="M9,98c1.8-1.5,3.7-3.6,6.3-3.2c0.2,0,0.3-0.3,0.1-0.3c-2.7-0.5-4.7,1.7-6.6,3.3C8.6,97.9,8.9,98.2,9,98L9,98
			z"/>
	</g>
</g>
<g>
	<g>
		<path class="st40" d="M61.4,123.9c0.8,0.5,1.6,0.9,2.2,1.6c0.7,0.7,1.2,1.5,1.9,2.2c0.7,0.7,1.4,1.3,2.1,1.9
			c0.7,0.5,1.5,0.9,2.2,1.5c0.2,0.1,0.4-0.1,0.2-0.2c-0.7-0.6-1.5-0.9-2.2-1.5c-0.8-0.6-1.5-1.3-2.2-2c-0.6-0.7-1.2-1.5-1.9-2.1
			c-0.6-0.6-1.4-1-2.2-1.5C61.4,123.5,61.2,123.8,61.4,123.9L61.4,123.9z"/>
	</g>
</g>
<g>
	<g>
		<path class="st40" d="M62.4,124.3c-1,1-1.3,2.3-1.5,3.7c-0.2,1.5,0,3.1-0.9,4.4c-0.1,0.2,0.2,0.4,0.3,0.2c0.8-1.2,0.8-2.7,0.9-4
			c0.1-1.5,0.5-2.9,1.5-4C62.8,124.4,62.6,124.2,62.4,124.3L62.4,124.3z"/>
	</g>
</g>
<g>
	<g>
		<path class="st40" d="M62.5,124.5c0.4,0.2,0.8,0,1.1-0.2c0.4-0.3,0.9-0.6,1.2-1c0.9-0.9,1.3-2.3,1-3.5c-0.1-0.2-0.4-0.1-0.3,0.1
			c0.3,1.1-0.1,2.3-0.8,3.1c-0.3,0.3-0.6,0.6-1,0.9c-0.2,0.1-0.7,0.5-0.9,0.3C62.5,124.1,62.3,124.4,62.5,124.5L62.5,124.5z"/>
	</g>
</g>
<g>
	<g>
		<path class="st40" d="M55.6,129.5c1-1,1.7-2.3,2.8-3.3c0.6-0.5,1.2-0.9,2-1c0.6-0.1,1.3,0,1.9-0.4c0.2-0.1,0-0.4-0.2-0.3
			c-0.6,0.4-1.4,0.3-2,0.4c-0.7,0.1-1.3,0.6-1.8,1c-1.1,1-1.8,2.3-2.9,3.4C55.2,129.4,55.4,129.7,55.6,129.5L55.6,129.5z"/>
	</g>
</g>
<g>
	<g>
		<path class="st40" d="M52,127.9c0.3,0.3,0.3,0.8,0.3,1.2c0,0.6-0.1,1.1-0.2,1.7c-0.1,0.5-0.3,1.1-0.5,1.6
			c-0.2,0.4-0.4,0.8-0.6,1.1c-0.2,0.2,0.1,0.4,0.2,0.2c0.3-0.3,0.5-0.8,0.7-1.2c0.2-0.6,0.4-1.2,0.6-1.8c0.2-0.9,0.5-2.2-0.2-3
			C52.1,127.5,51.9,127.8,52,127.9L52,127.9z"/>
	</g>
</g>
<g>
	<g>
		<path class="st40" d="M56.9,125.5c0,0.1,0,0.1,0,0.2c0,0,0,0,0,0c0,0.1,0,0.2,0,0.3c0,0.1,0.1,0.2,0.2,0.2c0.1,0,0.2-0.1,0.2-0.2
			c0-0.1,0-0.1,0-0.2c0,0,0,0,0,0c0-0.1,0-0.2,0-0.3c0-0.1-0.1-0.2-0.2-0.2C57,125.3,56.9,125.4,56.9,125.5L56.9,125.5z"/>
	</g>
</g>
<g>
	<g>
		<path class="st40" d="M52.4,127.7c0.7,1,1.8,1.5,2.8,2.1c0.2,0.1,0.4-0.2,0.2-0.3c-0.9-0.6-2-1.1-2.6-2
			C52.5,127.3,52.2,127.5,52.4,127.7L52.4,127.7z"/>
	</g>
</g>
<g>
	<g>
		<path class="st40" d="M55.5,130c0.8,0.6,1.7,1.1,2.6,1.6c0.8,0.5,1.6,1.1,2.6,1.4c0.2,0.1,0.3-0.3,0.1-0.3c-1-0.3-1.7-0.9-2.6-1.4
			c-0.9-0.5-1.7-0.9-2.5-1.5C55.5,129.6,55.3,129.9,55.5,130L55.5,130z"/>
	</g>
</g>
<g>
	<g>
		<path class="st40" d="M108.2,131.9c0.2-1.7,1-3.2,1.5-4.8c0.2-0.7,0.3-1.4,0.3-2.1c-0.1-0.7-0.3-1.3-0.6-1.9
			c-0.1-0.2-0.4,0-0.3,0.2c0.3,0.6,0.5,1.3,0.6,2c0,0.8-0.2,1.5-0.4,2.2c-0.5,1.4-1.1,2.8-1.3,4.3
			C107.9,132,108.2,132.1,108.2,131.9L108.2,131.9z"/>
	</g>
</g>
<g>
	<g>
		<path class="st40" d="M109,123.4c0.9,0.6,1.8,0.9,2.6,1.6c0.7,0.7,1.2,1.6,1.9,2.4c0.7,0.8,1.6,1.4,2.5,2c0.5,0.4,0.9,0.8,1.3,1.1
			c0.2,0.1,0.4,0.1,0.5-0.2c0-0.2-0.3-0.3-0.3-0.1c0,0,0,0,0,0c0.1,0,0.1,0,0.2,0c-1.4-1.4-3.3-2.3-4.5-4c-0.5-0.7-0.9-1.4-1.6-1.9
			c-0.7-0.6-1.6-0.9-2.3-1.4C109,123,108.8,123.3,109,123.4L109,123.4z"/>
	</g>
</g>
<g>
	<g>
		<path class="st40" d="M110.5,124.3c1-0.3,1.7-1.1,2.3-2c0.6-0.8,1-1.9,0.9-2.9c0-0.2-0.4-0.2-0.4,0c0.1,0.9-0.3,1.9-0.8,2.7
			c-0.5,0.8-1.2,1.5-2.1,1.9C110.2,124,110.3,124.4,110.5,124.3L110.5,124.3z"/>
	</g>
</g>
<g>
	<g>
		<path class="st40" d="M103.7,122.9c0.7,0.6,1.8,0.6,2.7,0.8c0.5,0.1,0.9,0.2,1.4,0.3c0.5,0.2,1.1,0.4,1.6,0.2
			c0.2-0.1,0.1-0.4-0.1-0.3c-0.5,0.1-1.1-0.1-1.6-0.3c-0.4-0.1-0.8-0.2-1.3-0.3c-0.5-0.1-0.9-0.1-1.4-0.2c-0.4-0.1-0.9-0.2-1.2-0.5
			C103.8,122.5,103.5,122.7,103.7,122.9L103.7,122.9z"/>
	</g>
</g>
<g>
	<g>
		<path class="st40" d="M103.4,64.8c0.8,1.6,0.3,3.7-0.3,5.3c-0.4,1.3-1.2,2.9-0.5,4.2c0.1,0.2,0.4,0,0.3-0.2
			c-0.4-0.7-0.2-1.7,0-2.5c0.2-0.7,0.5-1.5,0.7-2.2c0.4-1.5,0.8-3.3,0-4.8C103.6,64.4,103.2,64.6,103.4,64.8L103.4,64.8z"/>
	</g>
</g>
<g>
	<g>
		<path class="st40" d="M103.8,65c0.5,0.7,1.1,1.3,1.8,1.9c0.7,0.7,1.3,1.4,1.9,2.2c0.6,0.7,1.2,1.4,1.9,2.1c0.3,0.3,0.7,0.6,0.8,1
			c0.1,0.2,0.1,0.4,0.3,0.6c0.1,0,0.2,0,0.2,0c0-0.1,0.1-0.1,0.1-0.2c0-0.2-0.3-0.2-0.4,0c0,0,0-0.1,0-0.1c0.1,0,0.1,0,0.2,0
			c0.1,0-0.1-0.2-0.1-0.2c-0.1-0.1-0.1-0.3-0.2-0.4c-0.2-0.3-0.5-0.6-0.8-0.9c-0.7-0.6-1.3-1.3-1.9-2c-0.6-0.7-1.1-1.5-1.8-2.1
			c-0.6-0.6-1.3-1.2-1.8-1.9C104,64.7,103.7,64.8,103.8,65L103.8,65z"/>
	</g>
</g>
<g>
	<g>
		<path class="st40" d="M103.6,64.8c0.6,0.7,1.5,0.2,2-0.3c0.3-0.2,0.6-0.5,0.8-0.8c0.3-0.4,0.5-0.8,0.6-1.3
			c0.2-0.6,0.3-1.2,0.4-1.9c0-0.2-0.3-0.3-0.3-0.1c-0.2,1.1-0.3,2.4-1.1,3.2c-0.4,0.5-1.5,1.6-2.1,0.9
			C103.7,64.4,103.5,64.7,103.6,64.8L103.6,64.8z"/>
	</g>
</g>
<g>
	<g>
		<path class="st40" d="M105.2,66.3c1.4,0.6,2.9,0.2,4.3,0c1-0.2,2.3-0.1,3-1c0.1-0.2-0.2-0.4-0.3-0.2c-0.3,0.4-0.9,0.5-1.4,0.6
			c-0.5,0.1-1,0.1-1.5,0.2c-1.3,0.2-2.8,0.5-4,0C105.1,65.8,105,66.2,105.2,66.3L105.2,66.3z"/>
	</g>
</g>
<g>
	<g>
		<path class="st40" d="M96.6,9.5c0.4,0.7,0.8,1.5,0.8,2.4c0,0.8-0.4,1.6-0.7,2.3c-0.7,1.5-0.9,3.2-0.9,4.9c0,0.2,0.4,0.2,0.4,0
			c0-1,0-1.9,0.2-2.9c0.2-0.9,0.6-1.8,1-2.7c0.3-0.7,0.4-1.3,0.4-2.1c-0.1-0.8-0.4-1.5-0.8-2.2C96.8,9.1,96.5,9.3,96.6,9.5L96.6,9.5
			z"/>
	</g>
</g>
<g>
	<g>
		<path class="st40" d="M100.1,5.5c0.1,0.4,0.1,0.8,0,1.2c-0.1,0.5-0.3,1-0.5,1.5c-0.3,0.7-0.7,1.5-1.5,1.8c-0.4,0.1-0.8,0-0.8-0.4
			c0-0.2-0.4-0.2-0.4,0c0,0.5,0.3,0.8,0.8,0.9c0.4,0,0.8-0.2,1.1-0.4c0.4-0.3,0.6-0.7,0.8-1.1c0.3-0.5,0.5-1.1,0.7-1.7
			c0.1-0.5,0.3-1.1,0.1-1.7C100.4,5.2,100.1,5.3,100.1,5.5L100.1,5.5z"/>
	</g>
</g>
<g>
	<g>
		<path class="st40" d="M96.7,8.9c-0.2,1.8,1.7,2.8,2.7,4c0.7,0.8,1.2,1.9,1.9,2.8c0.7,0.8,1.8,1.3,2.4,2.2c0.1,0.2,0.4,0,0.3-0.2
			c-0.5-0.8-1.4-1.3-2.1-1.9c-0.8-0.8-1.3-1.9-2-2.8c-0.9-1.2-3-2.2-2.8-4C97.1,8.7,96.7,8.7,96.7,8.9L96.7,8.9z"/>
	</g>
</g>
<g>
	<g>
		<path class="st40" d="M128.8,17.3c0.3,1.8-0.8,3.6-2.1,4.8c-1.2,1-1.6,2.1-1.8,3.6c-0.2,1.8,0,3.7-0.6,5.4
			c-0.4,1.1-1.2,2.2-0.6,3.4c0.1,0.2,0.4,0,0.3-0.2c-0.4-0.9,0.1-1.8,0.4-2.5c0.3-0.6,0.5-1.3,0.6-1.9c0.3-1.7,0.1-3.4,0.4-5.1
			c0.4-1.7,1.9-2.4,2.8-3.8c0.7-1.1,1.2-2.4,0.9-3.7C129.1,17,128.7,17.1,128.8,17.3L128.8,17.3z"/>
	</g>
</g>
<g>
	<g>
		<path class="st40" d="M124.8,22.5c0.1,0.4-0.1,0.8-0.3,1.2c-0.2,0.4-0.4,0.7-0.5,1.1c-0.1,0.9,0.3,1.8,0.7,2.5
			c0.1,0.2,0.4,0,0.3-0.2c-0.5-0.8-0.9-1.7-0.6-2.7c0.3-0.7,0.9-1.3,0.7-2.1C125.1,22.2,124.7,22.3,124.8,22.5L124.8,22.5z"/>
	</g>
</g>
<g>
	<g>
		<path class="st40" d="M126.4,22.6c0,1,0.1,2.1,0.8,2.9c0.6,0.8,1.5,1.3,2.3,1.9c0.8,0.6,1.6,1.2,2.3,1.9c0.8,0.8,1.3,1.7,1.3,2.8
			c0,0.2,0.3,0.2,0.4,0c0.1-2-1.5-3.3-2.9-4.4c-0.8-0.6-1.7-1.1-2.4-1.8c-0.4-0.4-0.8-0.8-1-1.3c-0.2-0.6-0.3-1.3-0.3-1.9
			C126.7,22.4,126.4,22.4,126.4,22.6L126.4,22.6z"/>
	</g>
</g>
<g>
	<g>
		<path class="st40" d="M42,18c0.4,0.8,0.1,1.7,0,2.5c-0.2,0.8-0.4,1.6-0.2,2.5c0.1,0.2,0.4,0.1,0.3-0.1c-0.4-1.7,1-3.4,0.2-5
			C42.2,17.6,41.9,17.8,42,18L42,18z"/>
	</g>
</g>
<g>
	<g>
		<path class="st40" d="M42.6,19c0.3-0.1,0.6-0.2,0.8-0.5c0.2-0.2,0.3-0.5,0.4-0.8c0.2-0.5,0.2-1.2,0.6-1.6c0.2-0.2-0.1-0.4-0.2-0.2
			c-0.4,0.4-0.5,1-0.6,1.6c-0.1,0.3-0.2,0.5-0.3,0.8c-0.2,0.2-0.4,0.4-0.7,0.4C42.3,18.7,42.4,19.1,42.6,19L42.6,19z"/>
	</g>
</g>
<g>
	<g>
		<path class="st40" d="M44,40.9c-0.4-0.8-0.2-1.7,0.2-2.5c0.3-0.5,0.6-1.2,0.3-1.8c-0.1-0.2-0.4,0-0.3,0.2c0.2,0.3,0.1,0.6,0,0.9
			c-0.1,0.3-0.3,0.6-0.4,0.9c-0.3,0.8-0.4,1.6,0,2.3C43.8,41.3,44.1,41.1,44,40.9L44,40.9z"/>
	</g>
</g>
<g>
	<g>
		<path class="st40" d="M8.7,46.2c0.6,0.2,1.3,0,1.9-0.1c0.8-0.1,1.6,0,2.3-0.2c1-0.1,2.5-0.7,2.5-1.9c0-0.2-0.4-0.2-0.4,0
			c0,1.2-1.7,1.6-2.6,1.6c-0.6,0-1.2,0-1.8,0.1c-0.6,0.1-1.3,0.3-1.9,0.1C8.6,45.8,8.5,46.1,8.7,46.2L8.7,46.2z"/>
	</g>
</g>
<g>
	<g>
		<path class="st40" d="M15,43.9c0.1,1.7-1,2.9-1.9,4.2c-0.4,0.5-0.7,1-1.2,1.5c-0.4,0.4-0.9,1-1.5,1.1c-0.2,0.1-0.1,0.4,0.1,0.3
			c0.6-0.1,1.1-0.6,1.5-1.1c0.5-0.5,0.9-1.1,1.3-1.7c1-1.4,2-2.7,2-4.4C15.4,43.7,15,43.7,15,43.9L15,43.9z"/>
	</g>
</g>
<g>
	<g>
		<path class="st40" d="M93.5,59c-1.5-1.4-3-3-3-5.2c0-1.5,0.4-3.1,0.9-4.6c0.5-1.5,1-2.9,1.8-4.3c0.7-1.3,1.8-2.9,3.3-3.3
			c2.9-0.8,3.6,3.1,3.6,5.1c0.1,3.1-0.5,6.2-1.2,9.1c-0.6,2.6-1.4,5.3-2.2,7.8c0.1,0,0.2-0.1,0.3-0.1c-3.2-2.5-4.3-7.2-3.9-11
			c0.2-2.1,0.9-4,2.1-5.7c0.3-0.5,1.5-2.3,2.2-1.6c0.6,0.5,0.4,2.1,0.4,2.7c-0.1,1.4-0.3,2.8-0.6,4.1c-0.3,1.4-0.7,2.7-1.3,4
			c-0.1,0.3-0.3,0.5-0.4,0.8c-0.1,0.2-0.3,0.4-0.3,0.4c-0.3,0-0.7-1.1-0.8-1.3c-0.2-0.5-0.3-1-0.3-1.4c-0.2-2.2,0.5-4.7,2-6.3
			c0.5-0.6,0.6,0.1,0.8,0.7c0.2,0.7,0.1,1.4-0.1,2.1c-0.1,0.4-1,2.2-1.4,1.4c-0.3-0.6,0.2-1.9,0.4-2.5c0.1-0.2-0.3-0.3-0.3-0.1
			C95,51,94.8,52.1,95,53.3c0,0.1,0.2,0.2,0.3,0.1c1.9-1.4,2.5-3.8,1.3-5.8c-0.1-0.1-0.2-0.1-0.3,0c-2.6,2.1-3.9,7.7-1.2,10.2
			c0.1,0.1,0.2,0.1,0.3,0c1.3-1.8,1.9-4.1,2.4-6.3c0.4-1.7,0.9-4.1,0.2-5.8c-0.5-1.4-1.7-0.6-2.4,0.2c-2,2.4-3,5.3-2.9,8.4
			c0,3.5,1.2,7.4,4,9.7c0.1,0.1,0.2,0.1,0.3-0.1c0.9-2.7,1.7-5.3,2.3-8.1c0.7-3.3,1.5-6.8,1.1-10.1c-0.2-2-1.1-4.7-3.6-4.4
			c-3,0.4-4.6,4.7-5.4,7.1c-0.6,1.7-1.2,3.7-1.1,5.5c0.1,2.3,1.6,4,3.1,5.4C93.4,59.4,93.6,59.2,93.5,59L93.5,59z"/>
	</g>
</g>
</svg>
