<?xml version="1.0" encoding="utf-8"?>
<!-- Generator: Adobe Illustrator 24.0.1, SVG Export Plug-In . SVG Version: 6.00 Build 0)  -->
<svg version="1.1" id="Layer_1" xmlns="http://www.w3.org/2000/svg" xmlns:xlink="http://www.w3.org/1999/xlink" x="0px" y="0px"
	 viewBox="0 0 141.7 141.7" style="enable-background:new 0 0 141.7 141.7;" xml:space="preserve">
<style type="text/css">
	.st0{opacity:0.8;fill:#609B44;enable-background:new    ;}
	.st1{opacity:0.6;fill:#F3EB30;enable-background:new    ;}
	.st2{fill:#75CEEB;}
	.st3{fill:#C9B09D;}
	.st4{fill:#FFFFFF;}
	.st5{opacity:0.8;fill:#B77329;enable-background:new    ;}
	.st6{opacity:0.8;fill:#B55427;enable-background:new    ;}
	.st7{opacity:0.8;fill:#6B451B;enable-background:new    ;}
	.st8{opacity:0.96;fill:#593914;enable-background:new    ;}
	.st9{opacity:0.8;fill:#EDBC7A;enable-background:new    ;}
	.st10{fill:#5E5E5E;}
	.st11{fill:#838180;}
	.st12{fill:#F37157;}
	.st13{fill:#98CA4E;}
	.st14{fill:#B268AA;}
	.st15{opacity:0.5;fill:#41489E;enable-background:new    ;}
	.st16{opacity:0.69;fill:#B6539F;enable-background:new    ;}
	.st17{fill:#F3EB30;}
	.st18{fill:url(#SVGID_1_);}
	.st19{opacity:0.61;fill:#EF4645;enable-background:new    ;}
	.st20{opacity:0.73;fill:#F37A7C;enable-background:new    ;}
	.st21{opacity:0.6;fill:#F8BD38;enable-background:new    ;}
	.st22{opacity:0.4;fill:#FFFFFF;enable-background:new    ;}
	.st23{fill:#F18467;}
	.st24{fill:#ECA595;}
	.st25{fill:#090909;}
	.st26{fill:#231F20;}
	.st27{opacity:0.6;fill:#F37157;enable-background:new    ;}
	.st28{opacity:0.61;fill:#F15958;enable-background:new    ;}
	.st29{opacity:0.57;fill:#B268AA;enable-background:new    ;}
	.st30{opacity:0.5;fill:#70489D;enable-background:new    ;}
	.st31{opacity:0.5;fill:#F3EB30;enable-background:new    ;}
	.st32{opacity:0.41;fill:#B55427;enable-background:new    ;}
	.st33{opacity:0.45;fill:#6B451B;enable-background:new    ;}
	.st34{opacity:0.36;fill:#B77329;enable-background:new    ;}
	.st35{fill:none;stroke:#090909;stroke-width:0.4152;stroke-miterlimit:10;}
	.st36{fill:none;stroke:#010101;stroke-width:0.5537;stroke-miterlimit:10;}
	.st37{fill:none;stroke:#010101;stroke-width:0.2768;stroke-miterlimit:10;}
	.st38{fill:#010101;}
	.st39{fill:none;stroke:#090909;stroke-width:6.920653e-02;stroke-miterlimit:10;}
</style>
<path class="st0" d="M65.2,117.7l5.1,0.4c1.3-0.1,2.6-0.2,3.8-0.3c2.4-0.1,4.8-0.1,7.3-0.2l5.1,0.6l4.3,0.1l10.8-0.6l8.1-0.3h7.2
	l9.3,0.2c0,0,34.4,0.9-19.2,5.6c0,0-23.7,0.8-23.9,1.2c-0.2,0.3-4.7,0.8-0.3,3.3c0,0,12.3,3.3-7,3.7c-18-0.2-36.1-0.6-54.2-0.8
	c-3.6-0.2-6.5-0.7-8.7-1.1c-4.3-0.8-6.5-1.6-7.6-3.2c-0.2-0.3-0.7-1-0.8-2.1c-0.2-1.7,0.8-3,1.1-3.4c0.7-0.5,1.7-1.2,3.2-1.8
	c1.3-0.6,2.3-0.8,4.4-1.2c2-0.4,3.5-0.6,3.8-0.7c1.5-0.2,2.5-0.2,3.7-0.3c2.6-0.1,3.1,0.1,3.4,0.4c0.4,0.4,0.3,0.7,1.1,1.9
	c0.1,0.2,0.5,0.7,1,1.2c0.9,1,2,1.4,3,1.8c0.7,0.3,2.3,0.9,4.4,0.8c1.5,0,2.6-0.4,2.7,0c0.1,0.2-0.2,0.6-0.4,0.9
	c-0.3,0.1-0.6,0.2-1.1,0.3c-0.4,0.1-0.7,0.1-1.1,0.1c-0.8,0-0.8,0-1.6,0c-0.4,0-0.7,0.1-1,0.1c-0.5,0-0.6,0-1.1,0
	c-0.6,0-0.6,0-1.4,0.1c-0.7,0-0.7,0-1.3,0c-0.6,0-0.9,0-1.3,0.1c-0.1,0-1.4,0.3-1.4,0.5s0.8,0.5,4.1,0.8c1.8,0.1,3.2,0,4.2-0.2
	c0.8-0.1,2.4-0.4,3.8-0.9c0.6-0.2,1.3-0.3,1.9-0.5c0.2-0.1,0.6-0.2,1.1-0.2c0.1,0,0.2,0,0.3,0c0.3,0,0.7,0,1.2,0.2
	c1.2,0.4,1.7,1,2.7,1.7c0.5,0.3,1.3,0.7,2.5,0.9c1.9,0.5,4-0.1,4.8-0.6c0.4-0.2,0.8-0.4,1.2-0.6s0.7-0.4,0.8-0.3s0,0.1,0,0.2
	c0,0,0,0,0,0.1s0.1,0.5,0.5,0.8c0.1,0.1,0.2,0.1,0.3,0.2c0,0.1,0.1,0.1,0.2,0.2c0,0,0.1,0,0.1,0.1c0.5,0.2,0.9,0.2,1.2,0.2
	c0.4,0,0.6-0.1,1.5-0.3c0.4-0.1,0.6-0.1,0.7-0.1c0.1,0,0.2,0,0.4,0s0.4,0,0.4,0c0.2,0,1-0.1,1.6-0.7l0.1-0.1
	c0.2-0.2,0.4-0.7,0.4-1.1c0-0.3-0.1-0.6-0.1-0.6c0.1,0,0.2,0.5,0.5,0.8c0.2,0.2,0.6,0.5,1.7,0.6c0.2,0,0.3,0,0.5,0
	c1,0.1,1.9-0.1,2.2-0.1c0.6-0.1,1-0.2,1.8-0.4c0.6-0.2,1.1-0.4,1.4-0.5c0.2,0,0.3,0,0.5-0.1c0.2,0,0.3-0.1,0.4-0.1
	c0-0.1-0.1-0.3-0.2-0.5c-0.1-0.3-0.2-0.5-0.3-0.6c-0.1-0.1-0.2-0.3-0.4-0.5c-0.1-0.1-0.2-0.1-0.3-0.2c-0.4-0.2-1,0-1,0
	c-0.1,0.1-0.2,0.3-0.4,0.4c-0.1,0.1-0.2,0.2-0.3,0.4c-0.3-0.6-0.8-1.4-1.5-2.1c-0.3-0.3-0.6-0.5-0.8-0.6c-0.4-0.3-0.9-0.4-1.2-0.4
	c-1.4-0.2-2.5-0.3-3.1-0.3c-0.4,0-0.7,0.1-0.7,0.1c-0.3,0.1-0.5,0.2-0.8,0.3c-0.3,0.1-0.5,0.1-0.7,0.1c0.1-0.7,0.2-1.2,0.3-1.6
	c0.2-0.7,0.3-0.8,0.2-1c0-0.3-0.1-0.6,0.1-0.9l0.1-0.1c0.6-0.4,1.5,0.5,3.2,0.8C63.3,118.1,64.4,117.9,65.2,117.7z"/>
<path class="st1" d="M31.6,85.4l-1.5,0.7c0,0-3,1.9,0.9,3.3l0.2,4.6L31,97.7l-0.7,2.7l-1.5,3.3l-1.9,2.5l-1.8,3.3l-1.2,2.9l-0.3,2.2
	l0.2,1.9l1.1,2.3l1.7,1.8l1.8,1.1c1,0.4,2,0.8,3,1.1c1,0,1.9,0,2.9,0l3.5-0.5c0.6-0.1,1.3-0.3,2.2-0.6c0.7-0.3,1.3-0.7,1.7-1.1
	c0.6-0.6,1.3-1.3,1.9-1.9c0,0,2.8-4.7-2.7-11.3c0,0-3.8-5-4.2-7.9c-0.3,0-0.5,0-0.8-0.1c0-0.1-0.2-0.2-0.2-0.5
	c0-0.3,0.1-0.5,0.1-0.5c0.2-0.2,0.3-0.4,0.5-0.6l0.2-4.5v-3.2l1.1-0.7l0.7-0.9v-1.3l-0.6-0.8L36.6,86l-0.8,0.4h-1L34.2,86l-0.4-0.5
	L33,86.2L32.3,86L31.6,85.4z"/>
<path class="st2" d="M55.9,95c0,0,0.1-12.4,13-20.9l10.4-1.2l2.1,0.9l1.5-1.3c0,0,22.7-5.4,23.6-6h1.5l1.2,0.6l2.2,2.7
	c0,0,8.8,11.3,6.6,20.4l0.1,0.5l1.9,1.6l1.3,2l0.2,2l-0.5,1.4l-0.7,1.1l-0.6,1l-1.4,0.6c0,0-0.6,0.1-1,0.2s-1.9,0-1.9,0l-1.2-0.2
	l-1-0.6l-1.1-0.8l-1.4,1.2l-1.8,0.9l-1.8,0.7l-1.9,0.6l-2.3,0.6l-2.5,0.7l-1.5,0.6l-1.7,1l-1.1,0.8l-1,1.1l-1,1.4l-0.8,1.5l-0.4,0.7
	l0.7,0.4l0.5,0.9v1.1l-0.5,0.6l-1,0.3h-1.1l-0.6-0.6c-0.6,0.5-1.2,1-2,1.4c-3,1.8-6,2.3-7.9,2.4c-0.2-0.5-0.4-0.9-0.6-1.4l-1.2-1.1
	l-1.4-0.6h-1.2l-1.3,0.4l-0.7,1.1l-0.7,1v0.4c0,0-10.9-1.4-17.4-18c0.1-0.1,0.1-0.1,0.2-0.2c0-0.4-0.1-0.7-0.1-1.1
	c0-0.3,0-0.7-0.1-1c-0.1-0.3-0.1-0.6-0.2-0.9C56.2,95.6,56,95.3,55.9,95z"/>
<path class="st3" d="M71.1,74.8L69.2,74L68,72.8c0,0-1.3-2.7-0.5-3.9h1l0.8-0.1l0.7,0.5l0.6,0.9l0.1,1.3l-0.2,1.3L70.3,74v0.4"/>
<path class="st3" d="M81.3,73.7l-1.1-0.6l-1-0.3c0,0-2.4-2.8-0.7-4.8l0.9-0.4l0.7,0.3c0,0,1.7,0.7,2.7,4.4
	C82.9,72.4,83,73.2,81.3,73.7z"/>
<path class="st3" d="M56.8,99.2l-0.2-1.8l-0.3-1.5L55.9,95c0,0-2.6-1.1-5.3-0.3c0,0-1.6,0.9-0.8,2.3c0,0,0,1.7,2.6,1.6
	C52.5,98.6,56.5,98.8,56.8,99.2z"/>
<path class="st3" d="M51.8,98.2c0.2,0,0.3,0.1,0.4,0.2c0.1-0.4,0.1-0.8,0.2-1.3c-0.1,0-0.2,0.1-0.2,0.1c-0.7,0.2-0.6,1.1,0,1.3
	c1.1,0.4,2.3,0.4,3.5,0.2c0.7-0.2,0.6-1.1,0-1.3c-0.4-0.2-0.9-0.2-1.4-0.1c-0.5,0-1-0.1-1.4-0.1c-0.2,0-0.4,0.1-0.5,0.2
	s-0.1,0.1-0.2,0.1c0.3,0,0.4-0.1,0.2-0.1c-0.1-0.2-0.8-0.2-1-0.1c-0.4,0.1-0.7,0.8-0.3,1.2l0,0c0.3,0.2,0.7,0.3,1,0l0.1-0.1
	c0.6-0.6-0.3-1.6-1-1l-0.1,0.1c0.3,0,0.7,0,1,0l0,0c-0.1,0.4-0.2,0.8-0.3,1.2c-0.1,0-0.2,0-0.1,0c0.1,0,0.1,0.1,0.2,0.1
	c0.1,0.1,0.2,0.1,0.4,0.1c0.4,0,0.5-0.2,0.8-0.3c-0.5,0.1,0.5,0.2,0.6,0.2c0.5,0,1-0.1,1.5,0.1c0-0.4,0-0.9,0-1.3
	c-0.9,0.2-1.9,0.1-2.8-0.2c0,0.4,0,0.9,0,1.3c0.1,0,0.2-0.1,0.2-0.1c0.6-0.2,0.7-1,0.2-1.3c-0.4-0.2-0.7-0.3-1.1-0.3
	C50.9,96.7,50.9,98.1,51.8,98.2L51.8,98.2z"/>
<path class="st3" d="M74,117.5c0-0.2-0.1-1.2,0.5-2.1c0-0.1,0.8-1.1,2.1-1.2c0.2,0,0.5,0,1.1,0.1c0.6,0.1,0.9,0.1,1.2,0.3
	c0.5,0.3,0.7,0.6,0.9,0.8c0.5,0.6,0.9,1.1,1.4,1.7c-0.1,0.5-0.1,0.9-0.2,1.4c-0.1,0.2-0.4,0.6-0.8,0.8c-0.9,0.6-2,0.3-2.1,0.3
	L74,117.5z"/>
<path class="st3" d="M98.6,82.3L97.8,81c-0.4-0.3-0.8-0.5-1.1-0.8c-0.3-0.1-0.6-0.1-0.9-0.2L95,80.1c-0.2,0.2-0.5,0.5-0.7,0.7
	c0,0.3-0.1,0.6-0.1,0.9l0.6,1.9l0.6,1l0.6,1.1v1.2l0.2,1.7l0.8,1c0.3,0,0.7,0.1,1,0.1c0.3-0.1,0.6-0.3,0.9-0.4
	c0.2-0.4,0.4-0.8,0.6-1.2l0.6-2.2L98.6,82.3z"/>
<polygon class="st4" points="94.5,83 93.5,83.1 92.5,83.4 91.7,83.9 91.2,84.4 91.2,85 91.7,85.8 92.5,86.1 92.9,86.1 92.2,86.6 
	91.9,87.3 92.3,88.1 93.4,88.6 94.5,88.3 95.5,87.9 96.1,87.4 96.1,86.1 95.8,85.2 95.4,84.6 94.8,83.6 "/>
<circle class="st4" cx="107.1" cy="89.6" r="5.9"/>
<circle class="st4" cx="102.2" cy="75.2" r="5.9"/>
<path class="st5" d="M89,38.7l3.7-2.2L119,20l-0.4-0.6l-1.9-0.5l-2.6,0.2l-5.2,0.4l-0.5,2l0.2,0.8l-0.2,0.5l-1.2-0.4v0.9l0.4,1.2
	l-0.2,0.7l-1.3,0.6l-0.4-0.4l-0.6-0.7l-1-0.3l-0.8-0.9l-0.4-1.3l-1.2-1.4l-0.8-0.9l-1.1-0.2L99,19.6l0.6,0.8L99.3,21L98,20.8
	l-0.2-0.5l0.2-0.4L95.2,20c0,0-25.4,13.8-34.6,21.1C60.5,41.1,74.4,37.4,89,38.7z"/>
<path class="st6" d="M72.5,44.3l-6.3,4.5L66,49.4c5-0.4,10-0.9,15.2-1.4c5.8-0.6,11.5-1.4,17-2.2c3.2-2.2,6.5-4.5,9.8-6.9
	c3.6-2.5,7-5.1,10.4-7.6l-9.8,1.4L91,44.3l-0.4-0.5C90.6,43.8,72.9,43.4,72.5,44.3z"/>
<path class="st7" d="M72.5,54.1l24.1-2.8l4.3,0.1l15.6-11.8l5.8-1.1l0.6,0.2l3.6,5.7l-5.6,6.5l1.6,1.4l1.3,2.2l0.3,2l-0.2,0.7
	l-15.5,7.6l-1.3-3.7l-1.5-2.2c0,0-41.7,5.1-41,5c0.7-0.1-0.7,0.1-0.7,0.1l-0.8,0.3C63.2,64.4,72.3,54.9,72.5,54.1z"/>
<path class="st8" d="M63.9,63c0,0-1.7-4.1-0.5-4.5l6.9-1.7l-5.9,6.6"/>
<path class="st8" d="M107.3,66.5l2.8-2.5l8.7-3.8l0.9,2l0.1,2.7c0,0-0.1,2.7-1.5,3.2l-9-0.4C109.3,67.5,108.3,66.5,107.3,66.5z"/>
<path class="st9" d="M94.5,42.1c2.3-1.5,3.3-2.4,6-3.9c2.2-1.2,4.2-2.6,6.2-4c2.2-1.5,4.4-2.7,6.7-4c1.3-0.7,2.7-1.6,4.1-2.2
	l2.8-1.7l-0.4-2.2l-0.7-1.9l-0.7-1.9L89,38.7c0,0-16.1-1.1-28.9,2.7c0,0-1.1,1.6,0.9,3.5c3.8-0.3,7.1-0.5,9.6-0.7
	c6.5-0.3,11.6-0.3,15-0.2c1.9,0,3.4,0,4.6,0.1c0.3,0.1,0.6,0.2,0.9,0.4C91.8,43.8,93,43,94.5,42.1z"/>
<path class="st9" d="M100.6,50.2c-0.2-0.6-0.5-1.2-0.8-1.8c-0.4-0.8-0.8-1.5-1.2-2L98,45.7l0,0c-6.9,1.6-32,3.8-32,3.8l1,5.2
	c29.4-3.8,34-3.3,34-3.3c0-0.1-0.1-0.3-0.1-0.4C100.8,50.7,100.7,50.4,100.6,50.2z"/>
<polygon class="st9" points="62.3,65.3 64.7,63.9 105.7,59 106.5,60 108,63.2 108.4,65.3 106.4,66.5 84.7,72.1 82.9,72.4 82,70.3 
	81.1,68.7 80.2,68 78.6,68.1 77.9,68.9 77.9,70.7 78.9,72.1 79.2,72.8 70.3,73.9 70.6,72.1 70.7,70.5 70,69.2 69.2,68.7 68.4,68.8 
	67.4,68.8 67.1,69.8 67.6,71.8 68.9,74 64.3,74.7 63.2,71.9 63.1,70.1 62.6,68.8 62.4,66.2 "/>
<path class="st6" d="M100.8,50.7c0.1,0.3,0.2,0.5,0.3,0.7l20.5-16.3c0,0,0-2.1-1.6-3.5h-0.1c-0.3,0-0.5-0.1-0.7-0.2l0,0
	c-0.1,0.1-0.2,0.1-0.4,0.2l0,0c0,0,0,0-0.1,0c-0.2,0.1-0.4,0.1-0.6,0c-1.6,1.6-6.2,5.6-19.9,14.2l-0.1,0.1
	C99.6,47,100.3,48.8,100.8,50.7z"/>
<path class="st10" d="M114.5,75c0,0,3.3,4.1,3.5,9v0.5l4.9-1.8l3.5,5.2l0.7-0.4l0.6-10.4l-8.2-10.2l-0.7,0.7l-0.6,0.4l1.1,5.8
	L114.5,75z"/>
<path class="st11" d="M119.5,73.7l-1.1-5.8l1.1-0.4l7.3,10l-0.4,9.8l-3.4-4.7C122.9,82.7,124.9,77.7,119.5,73.7z"/>
<polygon class="st3" points="109.8,67.5 117.7,67.8 116.8,69.3 117.5,70.5 117.4,71.8 117,72.9 115.9,73.5 115.1,73.7 114.2,73.7 
	"/>
<path class="st3" d="M118.3,85.4c0,0,1.7-1.1,3.6,0c0,0,2,1.4,0.8,4.1c0,0,2.9,1.3,3.7,6.3c0,0,0.2,5.7-5.2,5.9
	c0,0,1.9,7.3-5.6,10.2c0,0-9,1.9-8.9-5.7c0,0-2.4,1.6-4,0.1c0,0-1.4-1.9-0.2-2.9l5.4-1.7l4.8-2.3l2,1.2l2.6,0.2c0,0,3.5-0.8,4.2-4.3
	l-0.1-1.6c0,0-0.7-2.3-3.3-4.1L118.3,85.4z"/>
<path class="st12" d="M25.9,112.5c0,0,0.9-1.6,4.3-1.3l6.1,0.2l2.6,0.2l1.7,0.4c0.4,0.3,0.8,0.5,1.3,0.8c0.2,0.2,0.4,0.4,0.6,0.6
	c0.1,0.2,0.2,0.5,0.3,0.7c0,0.4,0.1,0.8,0.1,1.2c-0.1,0.4-0.2,0.8-0.2,1.2c-0.3,0.4-0.5,0.8-0.8,1.3l-1.1,0.9l-1.3,0.8l-2.1,0.8
	l-1.8,0.5h-2.7l-2.3-0.5l-2.2-1.1l-1.2-1l-0.8-1.5l-0.4-1.2l-0.2-1.4L25.9,112.5z"/>
<path class="st13" d="M39,96.5l0.8-1.2l0.8-0.5l1.2,0.5l0.6,0.7l0.2,0.9l-0.4,0.9L42,98.4l-0.9,0.3h-0.7l-0.3-0.2
	C40.1,98.6,38.6,97.8,39,96.5z"/>
<path class="st13" d="M41.5,105.6l0.5-0.8l0.4-0.1c0,0,1-0.1,1.2,1.2c0,0,0.4,0.2-0.9,1.2C42.6,107.1,41,106.9,41.5,105.6z"/>
<polygon class="st13" points="44.7,122.8 45.1,122.1 46.1,121.8 47,122.3 47.3,122.9 47.1,123.5 46.7,123.7 45.6,123.7 45.1,123.6 
	"/>
<polygon class="st14" points="50.1,114.2 51.6,114.2 52.6,114.2 53,114.2 52.6,115.8 52,117.1 51.5,117.7 50.7,117.7 50.3,117.1 "/>
<path class="st15" d="M55.2,112c0,0-0.7-0.9,0.9-1.5l0.6,0.2l0.2,0.5v0.7l-0.5,0.5l-0.5,0.2l-0.7-0.1V112z"/>
<path class="st13" d="M62.7,124.3c0,0,0-3,2.4-1.8c0,0,0.8,0.8,0.6,1.2c0,0-1.1,1.6-2.7,0.5"/>
<path class="st16" d="M35.9,99.4c-0.1-0.2-0.1-0.4-0.2-0.7c0.2-0.2,0.3-0.5,0.5-0.7c0.2,0,0.4,0.1,0.7,0.1l0.1,0.8
	c-0.1,0.2-0.2,0.4-0.2,0.5c-0.1,0-0.3,0.2-0.6,0.1C36,99.5,35.9,99.5,35.9,99.4z"/>
<polygon class="st13" points="76.9,124.3 77.5,123.7 78.2,124 78.2,124.2 77.4,124.7 "/>
<polygon class="st13" points="99.5,121.4 99.8,120.9 100.3,120.7 100.9,121.1 101,121.4 100.3,121.8 99.9,121.7 "/>
<path class="st17" d="M31.9,87.6l1.1-0.8h1.7l1.2,0.6l0.6,0.6l0.1,0.3l-1,0.2C35.6,88.7,32,89.2,31.9,87.6z"/>
<linearGradient id="SVGID_1_" gradientUnits="userSpaceOnUse" x1="24.0302" y1="102.1291" x2="68.9701" y2="102.1291" gradientTransform="matrix(1 0 0 1 0 1.525879e-05)">
	<stop  offset="0" style="stop-color:#FED524"/>
	<stop  offset="0.4927" style="stop-color:#E8646A"/>
	<stop  offset="0.7532" style="stop-color:#F37157"/>
	<stop  offset="1" style="stop-color:#9E479B"/>
</linearGradient>
<path class="st18" d="M30.8,96.4c-0.1,0-0.3-0.1-0.4-0.1c-0.2-0.1-0.4-0.2-0.5-0.3c-0.2-0.2-0.3-0.3-0.5-0.5
	c-0.1-0.1-0.2-0.3-0.3-0.6c0-0.3,0.1-0.5,0.2-0.6c-0.1,0-0.3-0.1-0.5-0.4c-0.2-0.3-0.1-0.6-0.1-0.7c0,0,0-0.1,0-0.2
	c0-0.1,0.1-0.2,0.1-0.2c0.3-0.3,0.6-0.6,0.8-0.9c-0.7-0.4-1.2-0.9-1.5-1.2c-0.6-0.6-0.6-0.9-0.7-1c-0.1-0.7,0.4-1.2,0.5-1.4
	c-0.1-0.2-0.3-0.5-0.5-0.9c-0.3-0.6-0.4-0.9-0.4-1.2c0.1-0.5,0.5-1,1-1.2c0.4-0.1,0.8-0.1,0.9,0c0-0.5,0-0.9-0.1-1.2
	c0-0.5-0.1-0.7,0-1c0-0.1,0.1-0.3,0.3-0.5c0.1-0.1,0.5-0.5,1.2-0.5c0.3,0,0.6,0.1,0.7,0.2c0-0.2,0.1-0.5,0.3-0.9
	c0.2-0.4,0.5-1.1,1-1.3c0.6-0.3,1.6,0.1,2.3,0.9c0.1-0.4,0.3-0.8,0.4-1.2c0.6-0.5,1.1-1,1.7-1.4c0.5-0.2,1-0.5,1.7-0.7
	c1.2-0.3,2.2-0.3,3-0.2c0.5,0.2,1.1,0.7,1.8,1.4c0.9,1,1.3,2,1.6,2.8c0.3,1,0.7,2.2,0.3,3.4c0,0.1-0.1,0.2-0.1,0.2
	c0,0.3-0.2,1-0.8,1.7c-0.4,0.5-0.9,0.7-1.1,0.8c0.4-0.1,0.9-0.1,1.5,0c0.4,0.1,1.4,0.3,2.3,1.2c0.2,0.2,1,1.1,1,2.3
	c0,0.8-0.3,1.3-0.4,1.6c-0.3,0.6-0.7,0.9-1,1.1c-0.4,0.3-1,0.7-1.8,0.9c-1,0.2-1.8,0.1-1.8,0.2c0,0.1,0.5,0.1,1,0.6
	c0.5,0.4,0.6,0.9,0.6,1.1c0.1,0.2,0.1,0.7-0.1,1.2c-0.4,0.9-1.3,1.2-1.5,1.2c-0.1,0-0.7,0-0.8,0.2c0,0,0,0.1,0,0.1
	c0,0,0,0.1,0.1,0.1c0.1,0.1,0.2,0.2,0.3,0.4c0,0.1-0.1,0.2-0.1,0.2c-0.1,0.2-0.2,0.4-0.3,0.5c-0.3,0-0.5,0-0.8,0.1
	c-0.2,0-0.5,0-0.7,0l-0.2,0.2c0.1,0.1,0.1,0.2,0.2,0.2c0.1,0.1,0.3,0.3,0.4,0.6c0.1,0.3,0.1,0.5,0.1,0.7c0,0.4,0,0.7,0,1.1L41,104
	l1.3-1c0.1-0.1,0.4-0.1,0.7-0.1c0.1,0,0.5,0,0.8,0.2c0.7,0.3,0.9,1.1,1,1.2c0.1,0.5,0.3,0.9,0.4,1.4c0,0.4-0.1,0.8-0.1,1.2
	c-0.1,0.3-0.2,0.5-0.3,0.8c0,0.1,0,0.2,0,0.4l1.4,0.3c0.4,0.4,0.9,0.8,1.3,1.2c0.3,0.5,0.6,1,0.8,1.5s0.4,1,0.7,1.5
	c0.1,0.2,0.2,0.6,0.4,0.9c0.1,0.1,0.2,0.2,0.4,0.4C49.9,114,50,114,50,114c0.1,0.1,0.1,0.2,0.1,0.4c0,0.4,0,0.9,0,1c0,0.2,0,0.6,0,1
	c0.1,0.5,0.3,0.9,0.4,1.2c0,0.2,0.1,0.3,0.3,0.4s0.4,0,0.4,0c0,0.1,0,0.1,0.1,0.1c0.1-0.1,0.2-0.2,0.4-0.3c0.5-0.5,0.7-1.1,0.8-1.4
	c0.2-0.1,0.7-0.2,1.2-0.1c0.4,0.1,0.7,0.3,0.8,0.4c-0.1,1.1-0.2,2.3-0.3,3.4c-0.1,1.2-0.1,2.4-0.1,3.6c0.1,0.6,0.3,1.2,0.4,1.8
	c0.5,0.1,1,0.2,1.5,0.3c0.3-0.4,0.6-0.7,0.9-1.1c0.2-0.7,0.4-1.4,0.6-2.1c0.2-0.6,0.4-1.3,0.5-1.9c0.7-0.3,2.1-1,3.9-0.8
	c0.6,0,1.8,0.2,2.9,1c1.2,0.8,1.8,1.9,2,2.4c0.1-0.1,0.3-0.4,0.7-0.5c0.2-0.1,0.5-0.2,0.6-0.2c0.1,0.1,0.3,0.1,0.4,0.2
	c0.3,0.3,0.6,0.6,0.9,1c0,0.2,0.1,0.4,0.1,0.6c-1.2,0.4-2.4,0.7-3.6,1.1l-3,0.2c-0.2,0-0.5,0-0.9-0.1c-0.2-0.1-0.5-0.2-0.8-0.5
	s-0.3-0.6-0.4-0.6c0,0-0.1,0.1-0.1,0.5c-0.1,0.2-0.1,0.4-0.2,0.7c-0.1,0.2-0.3,0.5-0.4,0.7l-1,0.2c-0.5,0.1-1,0.1-1.4,0.2
	c-0.7,0.1-1.3,0.2-2,0.3h-1.4c-0.1,0-0.5-0.1-0.8-0.5c-0.4-0.5-0.4-1.1-0.4-1.2c-0.9,0.4-1.7,0.9-2.6,1.3c-0.8,0.2-1.6,0.4-2.5,0.5
	c-0.7-0.1-1.4-0.1-2.1-0.2c-0.8-0.4-1.5-0.7-2.3-1.1c-0.6-0.4-1.1-0.7-1.7-1.1c-0.5-0.2-1.1-0.5-1.6-0.7c-0.7,0.1-1.3,0.1-2,0.2
	c-0.6,0.2-1.1,0.4-1.7,0.6c-1.1,0.3-2.2,0.6-3.3,0.8c-1.2,0.1-2.2,0.1-3,0.1c-1.1,0-2.1,0-3.4-0.2c-1.1-0.1-2-0.3-2.6-0.4
	c0.1-0.1,0.2-0.3,0.5-0.4c0.4-0.2,0.7-0.2,0.9-0.2l3.7-0.1c1.2-0.1,2.3-0.2,3.5-0.2c1-0.1,2-0.3,2.9-0.4l0.3-0.4V123l4.2-1.3
	l2.2-1.4l1.2-1.7l0.7-2.2l-0.3-2.7l-1.3-2.7l-1.3-2l-2.5-3.5l-1.2-2.5l-1.1-2.2c-0.1-0.4-0.1-0.8-0.2-1.1c0.1-0.1,0.2-0.2,0.3-0.4
	c0.2-0.3,0.2-0.5,0.2-0.7c-0.1-0.2-0.3-0.4-0.4-0.6c-0.1-0.1-0.2-0.3-0.3-0.4c0-2.4,0-4.9,0-7.3c0.5-0.2,1-0.4,1.4-0.7
	c0.2-0.4,0.4-0.8,0.7-1.2c-0.1-0.5-0.1-1-0.2-1.5c-0.3-0.2-0.6-0.4-0.9-0.6L36.3,86l-1.1,0.2c-0.3-0.1-0.5-0.1-0.8-0.2
	c-0.2-0.2-0.4-0.4-0.6-0.6c-0.1,0.1-0.3,0.3-0.5,0.4C33.1,86,32.9,86,32.7,86c-0.3,0-0.5-0.1-0.8-0.1c-0.1-0.2-0.2-0.4-0.3-0.6
	c-0.6,0.2-1.3,0.5-1.9,0.7l-1,1.4c0.1,0.3,0.2,0.7,0.3,1c0.4,0.3,0.7,0.7,1.1,1c0.3,0.1,0.6,0.1,0.9,0.2c0,0.9,0,1.8,0,2.7
	c0,0.9,0,1.9,0,2.8c0,0.2,0.1,0.6-0.1,1C30.9,96.2,30.8,96.3,30.8,96.4z"/>
<path class="st19" d="M29.3,71.6l0.5-1.3l1.1-0.8c0,0,2.2-0.9,3.5,0.9l0.4,1.3c-0.1,0.4-0.1,0.9-0.1,1.4c-0.2,0.3-0.5,0.6-0.7,0.9
	l-1.2,0.8l-1.1,0.1C31.7,74.9,29.1,73.7,29.3,71.6z"/>
<circle class="st20" cx="49.8" cy="73.2" r="0.6"/>
<path class="st20" d="M29.3,67.9l0.7-0.3l0.8,0.6l-0.2,0.4c0,0-0.2,0.2-0.5,0.2c-0.4,0-0.6-0.2-0.6-0.3c0,0-0.2-0.1-0.2-0.2
	C29.2,68.2,29.3,68,29.3,67.9z"/>
<path class="st19" d="M36.3,60.6c0.1-0.4,0.3-0.9,0.6-1.4c0.2-0.4,0.5-0.7,0.7-0.9c0.5-0.4,1.1-0.7,1.6-1.1c0.3-0.1,0.7-0.2,1.2-0.2
	c0.4,0,0.8,0,1,0.1c0.5-0.1,1.2-0.1,2,0.1c1.1,0.2,2.4,0.7,3.4,1.9c0.3,0.5,0.7,1.3,0.9,2.4c0.1,0.5,0.3,2.1-0.7,3.8
	c-0.6,1.1-1.4,1.7-1.9,2c-1,0.7-2,0.8-2.5,0.9s-1.6,0.1-2.7-0.4c-0.2-0.1-1.5-0.6-2.5-1.9C35.7,63.6,36.2,61,36.3,60.6z"/>
<path class="st20" d="M27.5,54.7c0,0-1.3-0.7-0.7-1l1.1-0.2l0.3,0.6C28.2,54,28.2,54.2,27.5,54.7z"/>
<path class="st20" d="M48.9,50.7c0,0,2.1-2.7,3.7,0.4c0.1,0.2,0.2,0.6,0.1,1c-0.2,0.7-0.9,1.3-1.9,1.4c-0.2,0-0.6,0-1-0.2
	c-0.5-0.3-0.7-0.7-0.8-0.9C48.7,51.7,48.8,50.9,48.9,50.7z"/>
<path class="st21" d="M42.9,43.4c0,0,2.4-1.2,3.6,1.3c0,0,0.9,3.4-3,3.7c0,0-2.3-0.5-2.2-2.7c0-2.3,0-0.4,0-0.4S42,43.5,42.9,43.4z"
	/>
<path class="st21" d="M48.4,32.6c0,0,1.1-0.9,1.9,0.5c0.1,0.2,0.3,0.6,0.2,1.2c0,0.2-0.1,0.5-0.3,0.8c-0.3,0.4-0.7,0.4-0.9,0.5
	c-0.1,0-0.6,0.1-1.1-0.2c-0.4-0.3-0.6-0.7-0.6-0.9c-0.1-0.1-0.2-0.8,0.1-1.3C48,32.8,48.3,32.6,48.4,32.6z"/>
<path class="st21" d="M52.6,27.7c0-0.1,0-0.3,0.2-0.5s0.4-0.2,0.4-0.2c0.1,0.2,0.3,0.3,0.4,0.5c0,0.2,0,0.4,0,0.6l-0.3,0.4
	c-0.1,0-0.3-0.1-0.4-0.2C52.8,28,52.7,27.8,52.6,27.7z"/>
<path class="st19" d="M57.6,27.2c0,0,2.6-4.1,5.8-0.9c0,0,2.3,2.6-0.5,5.2c0,0-2.8,1.7-4.8-0.5C58.1,31,56.9,28.7,57.6,27.2z"/>
<path class="st21" d="M69.8,21.3c0,0-0.8-2.7,2.2-2.9c0,0,2.1,1.5,1.4,2.9C73.5,21.3,71.5,23.9,69.8,21.3z"/>
<polygon class="st17" points="78.9,16.6 79,15.9 79.6,16.2 79.5,17.1 79.1,17.1 "/>
<polygon class="st17" points="49.9,51.4 50.5,51.1 51.1,51.4 51,52 50.4,52.3 49.8,51.9 "/>
<polygon class="st17" points="39,62.1 39.9,61.9 40.2,62.3 40.2,63 39.6,63.3 39,62.8 "/>
<path class="st17" d="M59.5,28.4c0.1-0.1,0.2-0.3,0.5-0.5c0.2-0.1,0.5-0.1,0.6-0.1s0.4,0,0.6,0.2c0.1,0.1,0.2,0.3,0.2,0.4
	c0.1,0.2,0.1,0.4,0.1,0.7c0,0.1-0.1,0.2-0.2,0.4c-0.2,0.2-0.4,0.3-0.5,0.3s-0.3,0.2-0.6,0.1c-0.4-0.1-0.6-0.4-0.6-0.4
	c-0.1-0.1-0.1-0.2-0.2-0.4C59.4,28.8,59.4,28.5,59.5,28.4z"/>
<polygon class="st17" points="71.1,20.4 71.4,20 72,20.4 72,21.2 71.1,21.2 "/>
<ellipse transform="matrix(0.9528 -0.3036 0.3036 0.9528 -18.3018 33.4738)" class="st22" cx="98.5" cy="75.6" rx="3.1" ry="5.4"/>
<ellipse transform="matrix(0.9528 -0.3036 0.3036 0.9528 -22.9262 35.7457)" class="st22" cx="103.5" cy="91.6" rx="3.1" ry="5.4"/>
<path class="st23" d="M99.9,19.1l-0.8-0.3l-0.4,0.6L98,19.1l-0.7-0.7c0,0-0.1-0.9,0.6-1.1l1-0.5l-1-0.6l-0.6-0.8l0.1-1l0.4-0.6
	l0.8-0.4H99l0.6-1h0.6l-0.2-1l1,0.6l-0.2-0.9c0,0,0.6,1.1,1,0.6l1.5-0.3c0,0,1.1,0.1,2.1,1.1l0.1-0.6v-0.8c0,0,0.1-0.9,1.2-0.3
	l1,0.9l0.3,0.8l-0.2,1l-0.8,1.3c0,0,1,1.7,0.8,2.8l0.7,0.7l0.4,1.4l-0.2,1.4l-0.5,1.1c0,0-1-0.2-1.1,0s-0.1,0.2-0.1,0.2l0.4,0.9
	l-0.4,0.6l-1.1-0.6l-0.7,0.3l0.1,1.4l-0.6,0.1l-0.9-0.5l-0.8-1.7l-0.6-0.9l-1.5-1.4L99.9,19.1z"/>
<path class="st24" d="M98.8,19.5l-0.2,0.2L98,19.9v0.4c0,0-0.5,0.4-0.2,0.6l0.8,0.2L99,21v0.3l0.5-0.1l0.3-0.5l-0.2-0.4L99.2,20
	L98.8,19.5z"/>
<polygon class="st24" points="106.9,14.6 107.3,15 108.1,15.1 109.2,15.8 110.3,16.8 111.3,17.7 112.5,18.4 113.8,18.2 114.9,17.5 
	115.3,16.7 115.3,16.1 114.9,17.1 114.1,17.6 113.2,17.7 112.5,17.5 111.6,16.8 110.9,16.1 110.2,15.1 109.4,14.6 108.6,14.1 
	107.6,13.9 "/>
<polygon class="st24" points="105.2,23.2 105.3,24.6 105.6,25.3 106.3,25.9 107.1,25.6 107.6,25.1 107.5,24.4 107.1,23.8 
	106.6,23.3 105.9,22.9 "/>
<polygon class="st4" points="106.1,25 105.8,24.6 105.8,24 106.2,23.8 106.6,24.2 106.6,24.8 106.4,25.1 "/>
<polygon class="st24" points="100,16.9 99.2,16.9 98.4,16.5 97.6,16.1 97.4,15.5 97.8,14.8 98.2,14.5 99,14.8 99.9,15.4 100.4,16 
	"/>
<polygon class="st24" points="106.1,14.3 106.2,13.5 106.1,12.8 105.9,12.2 105.5,11.6 105.4,10.9 105.5,10.5 106.1,10.3 
	106.8,10.6 107.3,11.1 107.8,11.7 107.9,12.3 107.9,13 107.6,13.6 107.3,14.1 106.9,14.6 "/>
<path class="st25" d="M108.2,21.4l-0.1,0.2l-0.2-0.1c-0.3,0-0.5,0.1-0.8,0.1c-0.2,0.1-0.1,0.4,0.1,0.3c0.4-0.1,0.8-0.2,1.2-0.3
	C108.6,21.6,108.5,21.3,108.2,21.4s-0.7,0.2-1.2,0.3c0,0.1,0.1,0.2,0.1,0.3c0.2-0.1,0.3-0.1,0.5-0.1s0.3,0.1,0.4,0.1s0.2,0,0.2-0.1
	c0.1-0.1,0.1-0.2,0.2-0.2C108.6,21.5,108.4,21.2,108.2,21.4z"/>
<polygon class="st24" points="108.6,22.2 108.4,22.7 107.6,22.4 107,22 108,21.7 108.7,21.8 "/>
<path class="st4" d="M101.5,17.2l0.4-0.9l0.8-0.4l0.8,0.5l0.7,1.1l-0.2,1.3l-0.8,0.4h-0.9C102.4,19.2,100.6,17.7,101.5,17.2z"/>
<polygon class="st4" points="104,15.6 104.8,14.8 105.8,15 106.7,16.1 106.6,17 106.4,17.8 105.6,18.2 104.8,17.9 "/>
<path class="st26" d="M101.4,17.3L101.4,17.3c0.1-0.1,0.1-0.3,0.2-0.5l0,0c0.1-0.1,0.2-0.1,0.3-0.2c0.1,0,0.2,0,0.3,0
	c0.1,0.1,0.2,0.1,0.3,0.2l0,0c0.1,0.1,0.1,0.2,0.2,0.3c0,0.1,0,0.2-0.1,0.4c-0.4,0.1-0.7,0.1-1.1,0.1c0.1,0.1-0.1-0.1,0-0.1
	C101.5,17.5,101.5,17.4,101.4,17.3C101.4,17.4,101.4,17.4,101.4,17.3C101.4,17.5,101.5,17.2,101.4,17.3v-0.1
	c0.1-0.1,0.1-0.1,0.1-0.1c0.2-0.1,0.4-0.1,0.7-0.2c0.1,0,0.2,0.1,0.2,0.1c0.1,0.1,0.1,0.1,0.1,0.1s0,0.1,0.1,0.1c0-0.1,0,0,0,0.1
	c0-0.1,0,0.2,0,0.1c0,0.1-0.1,0.2-0.1,0.2c-0.1,0.1-0.1,0.1-0.1,0.1c-0.3,0-0.6-0.1-0.8-0.1c0.1,0.1,0,0,0-0.1c0,0,0,0.1,0.1,0.1
	c-0.1-0.1-0.1-0.3,0-0.5c0.1-0.1,0.2-0.2,0.3-0.2c0.1,0,0.2,0,0.4,0l0,0c0.1,0.1,0.3,0.2,0.4,0.3c0.1,0.2,0.1,0.3,0,0.5
	c-0.1,0.1-0.2,0.2-0.2,0.2c-0.2,0-0.5-0.1-0.7-0.1c-0.1-0.1-0.1-0.2-0.2-0.3l0,0C101.4,17.6,101.4,17.4,101.4,17.3L101.4,17.3
	c0.1-0.1,0.3-0.3,0.5-0.5c0.2,0.1,0.5,0.2,0.7,0.4c-0.1,0.2-0.2,0.5-0.4,0.7c-0.1,0-0.2,0-0.3,0c-0.1,0-0.1-0.1-0.2-0.1
	c-0.1-0.1-0.1-0.1-0.1-0.2v-0.1c0-0.1,0-0.1,0,0c0.4-0.1,0.8-0.2,1.2-0.3c0.1,0.1,0.1,0.1,0.1,0.1c0-0.1,0,0,0,0.1
	c0-0.1,0,0.1,0,0.1c0-0.1,0-0.1,0,0.1c0-0.1-0.1,0.1,0,0c-0.4,0-0.8,0-1.2,0l0.1,0.1v-0.1c0-0.7,0.4-0.8,0.9-0.5
	c-0.1,0.4-0.1,0.7-0.1,1.1c-0.2,0.1-0.5,0.1-0.7-0.1c-0.1-0.1-0.2-0.3-0.1-0.5c0.4,0.1,0.9,0.2,1.3,0.4c0-0.1,0-0.1,0-0.2
	c0.1-0.4-0.1-0.8-0.5-0.9c-0.3-0.1-0.8,0.1-0.9,0.5c0,0.1,0,0.1,0,0.2c-0.1,0.4,0.1,0.8,0.5,0.9c0.2,0,0.4,0,0.5-0.1
	c0.2-0.1,0.2-0.2,0.3-0.4c0.1-0.3,0-0.7-0.2-0.8c-0.3-0.2-0.7-0.3-1-0.1c-0.4,0.3-0.4,0.7-0.1,1.1s0.9,0.3,1.2,0
	c0.3-0.3,0.3-0.8,0-1.2c-0.1-0.2-0.3-0.3-0.6-0.3c-0.2,0-0.5,0.1-0.6,0.3C101.5,16.9,101.4,17.1,101.4,17.3c0,0.3,0.1,0.6,0.3,0.8
	c0.3,0.4,1.1,0.2,1.2-0.3c0.1-0.4,0-0.9-0.4-1.1c-0.3-0.2-0.8-0.2-1.1,0.1c-0.4,0.4-0.2,1,0.2,1.3c0.2,0.1,0.4,0.1,0.6,0.1
	c0.4-0.1,0.6-0.5,0.5-0.9c-0.1-0.5-0.7-0.7-1.2-0.5c-0.5,0.3-0.5,1.1,0,1.4s1.1-0.1,1.2-0.6c0.1-0.4-0.1-0.7-0.3-1
	c-0.2-0.2-0.6-0.2-0.8-0.1c-0.6,0.4-0.6,1.3,0,1.7c0.3,0.2,0.7,0.1,0.9-0.1c0.1-0.1,0.2-0.3,0.2-0.4c0.1-0.3,0-0.8-0.3-1
	c-0.2-0.1-0.4-0.2-0.6-0.2s-0.4,0.1-0.5,0.3c-0.1,0.2-0.2,0.4-0.1,0.6s0.2,0.5,0.5,0.5c0.2,0.1,0.4,0,0.6-0.1s0.3-0.4,0.4-0.6
	c0-0.4-0.3-0.7-0.7-0.7C101.7,16.6,101.5,16.9,101.4,17.3L101.4,17.3z"/>
<path class="st26" d="M104.2,16.4c0,0.1,0,0.2,0,0.2c0.3-0.2,0.6-0.4,0.9-0.7c0.4,0.1,0.5,0.5,0.3,0.8c-0.6,0.4-0.9,0.3-1.1-0.1
	c-0.1-0.2,0-0.4,0.3-0.6c0.1,0,0.2-0.1,0.4-0.1c0.1,0,0.3,0.1,0.4,0.2c-0.2-0.2-0.5-0.4-0.8-0.3c-0.3,0.1-0.5,0.4-0.5,0.7
	s0.1,0.7,0.4,0.9c0.2,0.2,0.5,0.2,0.7,0.1s0.4-0.4,0.4-0.6c0-0.3-0.1-0.6-0.2-0.9c-0.2-0.3-0.5-0.4-0.9-0.3
	c-0.3,0.1-0.5,0.5-0.4,0.8c0,0.1,0.1,0.2,0.1,0.3c0.1,0.4,0.5,0.6,0.9,0.5s0.6-0.5,0.5-0.9c0-0.1-0.1-0.2-0.1-0.3
	c-0.4,0.2-0.8,0.4-1.3,0.5l0.1,0.1c0.1,0.1,0-0.1,0,0c0,0,0,0,0,0.1s0,0,0-0.1v0.1c0.4-0.2,0.8-0.3,1.2-0.5c0,0-0.1,0-0.1-0.1
	c0.1,0.1,0.1,0.1,0.1,0.2c0-0.1,0-0.1,0,0.1v-0.1c-0.4,0.1-0.9,0.2-1.3,0.4c0.3,0.4,0.9,0.7,1.4,0.3c0.3-0.3,0.3-0.9,0-1.2
	C105.2,15.5,104.5,15.7,104.2,16.4c0,0.3,0.2,0.8,0.7,1c0.5,0.1,0.9-0.2,0.9-0.7c0-0.1,0-0.2,0-0.2c0-0.4-0.3-0.7-0.7-0.7
	C104.5,15.7,104.2,16,104.2,16.4L104.2,16.4z"/>
<path class="st26" d="M102,16.8c-0.4-0.1-0.8,0.3-0.9,0.7c-0.1,0.3,0.1,0.7,0.4,0.8c0.3,0.1,0.7,0,0.9-0.3c0.1-0.1,0.1-0.3,0.2-0.4
	c0.2-0.3,0.1-0.8-0.2-0.9c-0.3-0.2-0.7-0.1-0.9,0.2c-0.1,0.1-0.1,0.3-0.2,0.4c0.4,0.2,0.8,0.4,1.3,0.5c0,0.1-0.1,0.2-0.2,0.3
	c-0.3,0-0.3,0.1-0.2,0.1c0.2,0,0.4-0.1,0.5-0.2s0.2-0.3,0.2-0.5s-0.1-0.4-0.2-0.5S102.2,16.8,102,16.8L102,16.8z"/>
<path class="st26" d="M108.6,15.1c-0.1-0.2,0.1-0.4,0.3-0.4c0.1,0,0.1-0.1,0.1-0.2c0-0.1-0.1-0.1-0.2-0.1c-0.4,0.1-0.6,0.5-0.5,0.8
	C108.3,15.4,108.6,15.3,108.6,15.1L108.6,15.1z"/>
<path class="st26" d="M109.9,16.3c0.1-0.3,0.2-0.5,0.5-0.6c0.2-0.1,0.1-0.4-0.1-0.3c-0.4,0.1-0.7,0.4-0.8,0.8
	C109.6,16.4,109.9,16.5,109.9,16.3L109.9,16.3z"/>
<path class="st26" d="M111.5,17.6c-0.1-0.2,0-0.4,0.1-0.4c0.2-0.1,0-0.4-0.2-0.3c-0.3,0.2-0.4,0.6-0.2,0.9
	C111.3,17.9,111.6,17.8,111.5,17.6L111.5,17.6z"/>
<path class="st26" d="M113.6,18.1c-0.1-0.1-0.1-0.2,0-0.2c0.1-0.2-0.2-0.4-0.3-0.2c-0.1,0.2-0.1,0.5,0.1,0.7
	C113.5,18.5,113.7,18.2,113.6,18.1L113.6,18.1z"/>
<path class="st27" d="M32.5,89.9c0.9,0.1,1.9,0.2,2.8,0.4c0,0.4,0,0.7,0,1.1c-0.1,0.5-0.2,1-0.3,1.6c-0.1,0.5-0.2,1-0.4,1.5
	c0,0.5,0,1,0,1.5c0.1,0.7,0.3,1.3,0.3,1.8c0.1,0.3,0.1,0.8,0.2,1.3c0.1,0.6,0.1,0.9,0.1,1.1c0,0.4,0,0.4,0,0.9
	c0,0.4,0.1,0.9,0.1,1.3c0.2,0.3,0.3,0.5,0.5,0.8l0.5,0.8c0,0,0,0.5-0.1,0.7c-0.1,0.1,0,0.4,0.2,0.6c0.1,0.1,0.2,0.2,0.4,0.4
	c0.2,0.1,0.3,0.3,0.4,0.4c0.1,0.2,0.3,0.5,0.4,0.7c0,0.2-0.1,0.3-0.1,0.4c-0.1,0.2-0.1,0.3-0.1,0.4c0,0.1,0.1,0.2,0.1,0.3
	c0.2,0.2,0.4,0.3,0.6,0.5c0.2,0.2,0.5,0.3,0.6,0.4c0.2,0.1,1,0.5,1.1,0.6c-0.1,0.2-0.2,0.3-0.3,0.5c-0.1,0.1-0.1,0.2-0.2,0.2
	c0.1,0,0.1,0.1,0.2,0.1c0.2,0.1,0.4,0.1,0.6,0.1c0.1,0,0.4,0.1,0.6,0.2c0.2,0.1,0.3,0.2,0.3,0.3c0.1,0.1,0.2,0.3,0.3,0.6
	c0,0.2,0,0.3,0,0.4c-0.1,0.1-0.1,0.1-0.2,0.3c-0.1,0.1-0.1,0.3-0.1,0.4c0-0.1-0.1-0.2-0.2-0.3c-0.2-0.2-0.4-0.1-0.4-0.1
	c-0.2-0.1-0.5-0.1-0.7-0.2c-0.3-0.1-0.6-0.1-0.9-0.2c-0.3,0-0.5-0.1-0.8-0.1c-0.3,0-0.6,0-0.9-0.1c-0.4,0-0.7-0.1-1.1-0.1
	c-0.6,0-1.1-0.1-1.6-0.1c-0.7,0-1.3-0.1-1.9-0.1c-0.8,0-1.2,0-1.8,0c-0.8,0-1.3,0.1-1.8,0.1c-0.3,0-0.5,0-0.8,0.1
	c-0.3,0.1-0.6,0.1-0.8,0.2c-0.2,0.1-0.4,0.3-0.6,0.4c-0.2,0.1-0.4,0.2-0.6,0.3c-0.1,0.1-0.2,0.1-0.2,0.1c0,0,0-0.1,0.2-0.2
	c0-0.1,0.1-0.3,0.2-0.4c0.1-0.2,0.1-0.3,0.2-0.4c0.1-0.2,0.2-0.4,0.3-0.7c0.1-0.2,0.1-0.3,0.2-0.5c0.3-0.4,0.5-0.8,0.8-1.2
	c0.1-0.2,0.3-0.3,0.4-0.5c0.2-0.3,0.5-0.6,0.7-0.8c0.3-0.4,0.5-0.8,0.8-1.2c0.5-0.7,1-1.4,1.4-2.1c0.1-0.3,0.1-0.6,0.2-0.9
	c0.1-0.2,0.1-0.4,0.2-0.7c0,0-0.1-0.1,0-0.2c0-0.1,0.1-0.1,0.2-0.1c0.4-0.1,0.5-0.1,0.5-0.1c0.2,0,0.2,0,0.2-0.1
	c0.1-0.1,0.1-0.1,0.2-0.3c0-0.1,0.1-0.2,0.2-0.4c0-0.1,0-0.2,0-0.4c0-0.2-0.1-0.3-0.2-0.4c-0.1-0.1-0.2-0.2-0.4-0.2
	c0.1-0.7,0.2-1.5,0.3-2.2c0-0.9,0-1.7,0-2.6c0-0.6,0-1.1,0-1.7c0-0.2,0-0.5,0-0.8c0-0.2,0-0.4,0-0.6c0-0.3,0.1-0.7,0.1-1
	c0-0.2,0-0.4,0-0.9C32.5,90.5,32.5,90.2,32.5,89.9z"/>
<path class="st28" d="M29.5,107.4c0.4-0.4,0.8-0.7,1.2-1.1c0.3,0,0.8-0.1,1.5,0.2c0.6,0.2,1,0.6,1.1,0.7c0-0.6,0.4-1,0.9-1
	c0.3,0,0.6,0.2,0.7,0.5c0,0,0.9,0.7-0.4,1.5l-1-0.2c0,0.2-0.4,1.3-1.5,1.7c-0.6,0.3-1.2,0.2-1.4,0.2c-0.6-0.2-1.1-0.6-1.3-1.2
	C29.1,108,29.4,107.5,29.5,107.4z"/>
<path class="st16" d="M31.1,102.1c0,0-1.1-1.2,1.2-1.5l0.6,0.7l-0.1,0.7l-0.6,0.4C32.2,102.5,31.3,102.8,31.1,102.1z"/>
<path class="st28" d="M34,110v-0.8c0.1-0.2,0.2-0.3,0.2-0.5c0.3,0.1,0.6,0.2,0.9,0.3c0.1,0.1,0.2,0.3,0.3,0.4c0,0.3-0.1,0.5-0.1,0.8
	c-0.2,0.1-0.4,0.1-0.6,0.2c-0.2,0-0.3-0.1-0.5-0.1L34,110z"/>
<path class="st16" d="M25.1,103.8c0,0-0.8-0.8,0.4-1.2c0,0,0.8,0.6,0.5,1.4C26.1,104,25.4,104.7,25.1,103.8z"/>
<path class="st28" d="M24.9,101.3c0,0-1.1-1.6,0.2-2.6c0.3-0.3,1.4-0.9,2.4-0.3c0,0,1.3,0.6,0.8,2.4c0,0-0.1,0.7-1.4,1.2
	C26.9,102,25.3,102.6,24.9,101.3z"/>
<polyline class="st29" points="50.2,113.9 50.6,109.4 51.1,108.9 52.6,108.7 53.7,108.7 53.9,109.7 53,114.2 50.1,114.2 "/>
<path class="st30" d="M55.2,126l-0.6-0.6l-0.4-1.8l0.5-8.5c0.1,0.2,0.3,0.2,0.4,0.1c0.1-0.1,0.1-0.2,0-0.3c0.4-0.2,1.7-0.4,1.7-0.4
	l1.5-0.1l0.9,0.2l-0.4,3l-1.3,4.6l-0.9,2.7l-0.8,0.9L55.2,126z"/>
<path class="st17" d="M25.8,100.3c0.1-0.2,0.2-0.4,0.3-0.6c0.2,0.1,0.4,0.2,0.6,0.2l0.2,0.4l-0.2,0.5l-0.6-0.1L25.8,100.3z"/>
<polygon class="st17" points="30.6,108.7 30.9,107.6 31.7,107.4 32.3,107.9 32.1,108.8 31.3,109.1 "/>
<polygon class="st17" points="38.2,117.1 38.2,116.5 38.9,116.2 39.4,116.5 39.4,117 39,117.5 "/>
<path class="st5" d="M41.9,105.9c0,0-0.1,0.2-0.1,0.3c0,0.1,0.2,0.2,0.3,0.3c0.1-0.1,0.2-0.3,0.3-0.4v-0.4L41.9,105.9z"/>
<path class="st17" d="M40.4,96.3c0.2-0.1,0.4-0.1,0.6,0.1c0.1,0.2,0.2,0.4,0.4,0.6c-0.2,0.2-0.3,0.4-0.5,0.5c-0.2,0-0.4,0-0.6,0
	c-0.1-0.1-0.3-0.4-0.2-0.7C40.2,96.7,40.2,96.4,40.4,96.3z"/>
<ellipse class="st17" cx="46.1" cy="122.9" rx="0.5" ry="0.3"/>
<ellipse class="st17" cx="64.4" cy="123.6" rx="0.4" ry="0.3"/>
<path class="st1" d="M52.4,110.3l-0.7,5.5l0.3,1.3l0.8-1.7l1.1-5.7C53.9,109.7,52.6,110.6,52.4,110.3z"/>
<path class="st31" d="M57.1,116.3c0,0-0.7,4.8-0.7,4.9c0.1,0.1-0.2,2-0.2,2l0.2,1.4h0.4l1.1-3.4l1-5.3L57.1,116.3z"/>
<polygon class="st17" points="50.6,109.4 51.9,110 53.4,109.7 54,108.8 53,108.7 51.6,108.8 "/>
<path class="st17" d="M54.7,115.1c0.4,0.3,0.5,0.3,0.6,0.2c0.1-0.1,0-0.3,0.1-0.5c0.1-0.1,0.3-0.2,0.4-0.2c0.5-0.1,1.1-0.1,1.6-0.2
	l1.4,0.2c0.2,0.2,0.4,0.4,0.5,0.7c-0.3,0.2-0.6,0.4-0.8,0.6l-1,0.3l-1.2-0.1l-0.9-0.3L54.7,115.1z"/>
<path class="st32" d="M66.3,49.5c5.2-0.4,10.4-1,15.9-1.6c5.4-0.6,10.6-1.3,15.7-2.1l1,1.2l-2.5-0.3c-1,0.1-2,0.1-3,0.2
	c-8.9,1.2-17.8,2.4-26.7,3.5L66.3,49.5z"/>
<path class="st32" d="M97.6,51.3c0,0,2-0.6,2.5-1.3s0.6,0.1,0.6,0.1l0.4,1.2H97.6z"/>
<path class="st33" d="M62.3,65.3l4.3-0.5l4.8-0.3l5.3-0.4l5.9-0.8c1.8-0.4,3.6-0.7,5.4-1.1c1.5-0.3,3.1-0.6,4.6-0.9
	c1.7-0.2,3.4-0.4,5.1-0.6c1.4-0.1,2.8-0.2,4.1-0.3c0.8,0.1,1.5,0.2,2.3,0.3l1.6,0.7c0.4,0.5,0.7,1,1.1,1.4c0,0.4,0,0.7,0,1.1
	c-0.2,0.3-0.4,0.6-0.6,0.9c-0.4,0.3-0.8,0.5-1.2,0.8c-1.3,0.4-2.5,0.8-3.8,1.2c-1.2,0.3-2.3,0.5-3.5,0.8c-2.7,0.7-5.6,1.4-8.6,2.1
	c-2.3,0.5-4.5,0.9-6.7,1.2c0.2,0.4,0.4,0.9,0.6,1.3c1.3-0.3,2.6-0.6,3.9-0.9l10.5-2.7l4.1-0.9l4.1-1.2l2.3-1l0.4-0.8l-2.7-6.1
	l-0.7,0.3l-39.9,4.8l-1.6,0.3L62.3,65.3z"/>
<polyline class="st34" points="64,73.8 67.8,73.1 68,72.8 69.2,74.1 68,74.2 66.3,74.3 64.3,74.7 63.7,73.7 "/>
<path class="st33" d="M78.3,71.4c0,0-6.3,1.6-7.9,1.6l0.1,1.1l2.3-0.4l3.1-0.4l2.5-0.2l0.9-0.2L78.3,71.4z"/>
<path class="st25" d="M81.3,117.6c1.2-0.6,2.6-0.5,3.9-0.8s2.6-0.7,3.7-1.4c2.2-1.2,3.5-3.4,4.7-5.5c1.4-2.4,3.2-4.3,5.8-5.4
	c2.7-1.1,5.7-1.5,8.5-2.5c4.2-1.6,7.7-4.3,9.4-8.6c1.9-4.9,1.4-10.5-0.7-15.3c-1.2-2.8-2.9-5.4-4.7-7.9c-1.2-1.8-3.2-4.5-5.7-4
	c-0.4,0.1-0.2,0.7,0.2,0.7c2.7-0.5,4.9,3.6,6,5.4c1.5,2.2,2.9,4.5,3.8,7c1.9,4.9,2.1,10.7-0.4,15.5c-2.2,4.2-6.5,6.3-10.9,7.4
	c-2.4,0.7-4.9,1.1-7.1,2.3c-1.7,0.9-3,2.3-4.1,3.8c-1.5,2.3-2.5,4.9-5,6.4c-1.4,0.8-3,1.3-4.5,1.6c-1.2,0.2-2.3,0.2-3.3,0.7
	C80.6,117.2,80.9,117.8,81.3,117.6L81.3,117.6z"/>
<path class="st25" d="M56,99.2c2.6,8.3,8.9,15.9,17.5,18.2c0.4,0.1,0.6-0.6,0.2-0.7c-8.4-2.3-14.5-9.6-17-17.7
	C56.5,98.6,55.8,98.8,56,99.2L56,99.2z"/>
<path class="st25" d="M68.7,73.7C61.4,78.4,56.1,86.2,55.6,95c0,0.4,0.7,0.4,0.7,0c0.5-8.5,5.7-16.1,12.8-20.7
	C69.4,74.1,69.1,73.5,68.7,73.7L68.7,73.7z"/>
<path class="st25" d="M98.3,81.8c0,0.1,0.1,0.1,0.1,0.2c0.1-0.1,0.2-0.1,0.3-0.2c-0.3-0.2-0.4-0.6-0.7-0.8c-0.4-0.3-0.8-0.6-1.2-0.8
	c-0.6-0.3-1.3-0.5-1.9-0.2c-2.3,1.3,0.6,4.5,1,6c0.3,1.4-0.4,4.1,1.9,3.9c1.9-0.1,2.2-2.7,2.4-4.1c0-0.2-0.3-0.2-0.3,0
	c-0.1,1.3-0.6,4.4-2.6,3.7c-1.4-0.5-0.7-2.8-1.1-3.9c-0.2-0.6-0.6-1.1-0.9-1.7c-0.5-0.9-1.6-3.4,0.3-3.7c1.3-0.2,2.1,1.2,2.9,1.9
	c0.1,0.1,0.4,0,0.3-0.2c0-0.1-0.1-0.1-0.1-0.2C98.5,81.4,98.1,81.6,98.3,81.8L98.3,81.8z"/>
<path class="st25" d="M95.9,87.4c-0.7,0.5-1.6,1-2.5,1c-0.5,0-1.2-0.3-1.3-0.9c-0.1-0.6,0.3-0.9,0.7-1.3c0.2-0.1-0.1-0.4-0.2-0.2
	c-0.4,0.3-0.8,0.6-0.9,1.1s0.2,1,0.6,1.3c1.1,0.9,2.8,0,3.7-0.7C96.3,87.6,96.1,87.3,95.9,87.4L95.9,87.4z"/>
<circle class="st35" cx="107.1" cy="89.6" r="6"/>
<path class="st35" d="M103.9,81c3.2-0.9,5-4.2,4.1-7.4c-0.9-3.2-4.2-5-7.4-4.1c-3.2,0.9-5,4.2-4.1,7.4
	C97.4,80.1,100.7,81.9,103.9,81z"/>
<path class="st25" d="M100.4,86.5c0.8-0.2,1.1-1.6,0.7-3s-1.4-2.4-2.2-2.2c-0.8,0.2-1.1,1.6-0.7,3S99.6,86.7,100.4,86.5z"/>
<path class="st25" d="M109.7,85.7c-0.3-1.1-1.4-1.6-2.4-1.3c-1.1,0.3-1.6,1.4-1.4,2.4c0.3,1.1,1.4,1.6,2.4,1.4
	C109.4,87.8,110,86.7,109.7,85.7z M106.8,87.3c-0.1-0.3,0.1-0.6,0.4-0.7s0.6,0.1,0.7,0.4s-0.1,0.6-0.4,0.7S106.9,87.6,106.8,87.3z"
	/>
<path class="st25" d="M105.5,78.2c-0.2-0.7-0.9-1.1-1.6-0.9s-1.1,0.9-0.9,1.6s0.9,1.1,1.6,0.9C105.3,79.6,105.7,78.9,105.5,78.2z
	 M103.6,79.3c-0.1-0.2,0.1-0.4,0.2-0.5c0.2-0.1,0.4,0.1,0.5,0.2s-0.1,0.4-0.2,0.5C103.9,79.6,103.7,79.5,103.6,79.3z"/>
<path class="st25" d="M95.7,85.1c-0.9,0.4-4.9,1.7-4.3-0.6c0.3-1.1,2.2-1.4,3.2-1.4c0.2,0,0.2-0.3,0-0.3c-1.2,0-3.8,0.5-3.5,2.2
	c0.3,2,3.7,0.9,4.8,0.3C96,85.3,95.9,85,95.7,85.1L95.7,85.1z"/>
<path class="st25" d="M117.9,91.1c2.4,1.7,4.5,4.5,2.4,7.3c-1.7,2.3-5.3,3-7.2,0.5c-0.3-0.4-0.7,0.1-0.5,0.5c2.2,2.8,6.3,2,8.3-0.6
	c2.4-3.2,0.1-6.5-2.6-8.4C117.8,90.2,117.5,90.8,117.9,91.1L117.9,91.1z"/>
<path class="st25" d="M54.7,94.6c2.2,0.5,1.5,3,1.9,4.7c0.1-0.1,0.2-0.1,0.2-0.2c-1.9-1-6,0.4-6.9-1.9c-1.4-3.2,3.7-2.7,5.4-2.4
	c0.2,0.1,0.3-0.3,0.1-0.3c-1.7-0.3-5.7-1-6,1.6c-0.5,3.9,5.3,2.3,7.3,3.3c0.1,0.1,0.3-0.1,0.2-0.2c-0.5-1.8,0.2-4.4-2.2-4.9
	C54.6,94.3,54.5,94.6,54.7,94.6L54.7,94.6z"/>
<path class="st25" d="M50,96.9c0.4-1.1,1.7-1.3,2.7-1.1c0.2,0,0.3-0.3,0.1-0.3c-1.2-0.2-2.6,0-3.2,1.3C49.6,97.1,49.9,97.2,50,96.9
	L50,96.9z"/>
<path class="st25" d="M78.4,119.5c-1.1-0.3-2.6-1-3.5-1.7c-0.1-0.1-0.3-0.1-0.4-0.1c-0.4-0.4-0.3-1.1-0.1-1.6c0.3-0.8,1.2-1.4,2-1.7
	c1.6-0.4,3.1,0.6,4,1.8c0.6,0.9,0.9,2.1-0.1,2.8C79.6,119.5,78.9,119.5,78.4,119.5c-0.3-0.1-0.3,0.3-0.1,0.3
	c1.5,0.2,3.2-0.6,2.9-2.3s-2.2-3.3-3.9-3.5c-1.6-0.1-3.7,1.4-3.7,3c0,0.6,0.3,0.7,0.8,0.9c1.3,0.6,2.5,1.5,3.9,1.8
	C78.5,119.9,78.6,119.5,78.4,119.5z"/>
<path class="st25" d="M78.1,116.8c1,0.5,1.9,1.2,2.3,2.3c0.1,0.2,0.4,0.1,0.3-0.1c-0.4-1.1-1.4-2-2.4-2.5
	C78.1,116.4,77.9,116.7,78.1,116.8L78.1,116.8z"/>
<path class="st25" d="M81.5,73.6c-0.4-0.4-1.1-0.5-1.5-0.7c-1.3-0.8-2.4-2.5-1.7-4c0.8-1.9,2.6-0.4,3.4,0.7c0.6,0.9,0.9,1.9,1.1,2.9
	c0,0.1,0.1,0.1,0.2,0.1c0.5,0,0.4,0,0.8-0.2c0.2-0.1,0-0.4-0.2-0.3c-0.7,0.3-0.9-1.4-1.2-1.9c-0.3-0.7-0.7-1.3-1.3-1.8
	c-0.7-0.7-1.8-1.2-2.6-0.5c-0.9,0.8-0.9,2.2-0.5,3.2c0.3,0.7,0.8,1.2,1.3,1.7s1.4,0.6,1.9,1C81.4,74,81.6,73.8,81.5,73.6L81.5,73.6z
	"/>
<path class="st25" d="M79.8,70c-0.6-0.5-1.2-1.4-0.4-2.1c0.2-0.1-0.1-0.4-0.2-0.2c-0.9,0.8-0.3,1.9,0.4,2.6
	C79.7,70.4,80,70.2,79.8,70L79.8,70z"/>
<circle class="st25" cx="117.5" cy="95.7" r="1.4"/>
<path class="st25" d="M69.4,74c-0.9-0.7-1.4-1.6-1.7-2.6c-0.1-0.4-0.2-0.8-0.3-1.2c-0.1-0.6,0.2-1.4,1-1.1c0.2,0.1,0.3-0.2,0.1-0.3
	c-1.1-0.4-1.6,0.4-1.5,1.5c0.1,1.5,0.9,3.1,2.1,4C69.3,74.3,69.5,74.1,69.4,74L69.4,74z"/>
<path class="st25" d="M68.9,70.2c-0.1-0.2-0.3-0.6-0.2-0.8c0.4-0.8,1.3,0.1,1.5,0.4c0.3,0.5,0.3,1.1,0.3,1.7
	c-0.1,0.9-0.3,1.7-0.1,2.6c0,0.1,0.1,0.1,0.2,0.1c0.4,0,0.7-0.1,1.1-0.2c0.2-0.1,0-0.4-0.2-0.3c-1.1,0.6-0.7-0.9-0.7-1.4
	c0.1-0.4,0.1-0.8,0.1-1.3c0-0.7-0.2-1.4-0.8-1.9c-1.2-1.1-2.1-0.2-1.5,1.1C68.6,70.5,68.9,70.4,68.9,70.2L68.9,70.2z"/>
<path class="st25" d="M64.6,75c1.2-0.2,2.3-0.4,3.5-0.6c0.4-0.1,0.2-0.7-0.2-0.7c-1.2,0.2-2.3,0.4-3.5,0.6C64,74.4,64.2,75,64.6,75
	L64.6,75z"/>
<path class="st25" d="M71.5,74.3c2.3-0.4,4.6-0.7,6.9-0.9c0.4,0,0.4-0.7,0-0.7c-2.4,0.2-4.7,0.5-7.1,0.9
	C70.9,73.7,71.1,74.4,71.5,74.3L71.5,74.3z"/>
<path class="st25" d="M83.6,72.6c3.3-0.8,6.6-1.6,9.9-2.2c0.4-0.1,0.2-0.7-0.2-0.7c-3.3,0.6-6.6,1.4-9.9,2.2
	C83,72,83.1,72.7,83.6,72.6L83.6,72.6z"/>
<path class="st25" d="M92.6,70.5c4.6-1.3,9.4-2,13.8-3.8c1-0.4,2.7-0.7,2.4-2c-0.4-2.2-1.8-4.5-2.8-6.4c-0.2-0.4-0.8-0.1-0.6,0.4
	c0.9,1.8,1.8,3.6,2.5,5.5c0.5,1.3-0.6,1.4-1.7,1.9c-0.9,0.4-1.9,0.7-2.8,1c-3.6,1.1-7.4,1.8-11,2.8C92,69.9,92.2,70.6,92.6,70.5
	L92.6,70.5z"/>
<path class="st25" d="M64.6,74.5c-0.5-1-1.1-2.4-1.2-3.5c0-0.9,0.6-1.1,1.4-1.3c0.6-0.2,1.2-0.3,1.8-0.4c0.4-0.1,0.2-0.7-0.2-0.7
	c-1,0.2-3.4,0.5-3.7,1.7c-0.1,0.6,0.2,1.4,0.4,2c0.2,0.9,0.6,1.7,1,2.5C64.2,75.3,64.8,74.9,64.6,74.5L64.6,74.5z"/>
<path class="st25" d="M63.3,69.7c-0.5-1.2-0.9-2.7-0.4-3.9c0.8-1.9,3.6-1.8,5.3-2c4-0.4,8-0.9,12.1-1.4c8.3-1,16.6-2,24.9-3
	c0.4-0.1,0.4-0.7,0-0.7C95.6,59.8,86,61,76.5,62.1c-2.2,0.3-4.5,0.6-6.7,0.8c-1.9,0.2-4.1,0.1-5.8,0.9c-2.4,1.1-2,4-1.2,6
	C62.8,70.3,63.5,70.1,63.3,69.7L63.3,69.7z"/>
<path class="st25" d="M105.5,59.3c5.9-6.8,11.8-13.6,17.7-20.4c-0.2,0-0.4-0.1-0.6-0.1c0.7,1.2,1.5,2.4,2.2,3.5
	c0.2,0.4,1.1,1.3,1.1,1.7c0.1,0.7-0.7,1.2-1.1,1.7c-1.8,2.1-3.6,4.2-5.4,6.3c-3.7,4.3-7.4,8.7-11.1,13c-0.3,0.3,0.2,0.8,0.5,0.5
	c6-7,12-14,17.9-20.9c0.1-0.1,0.1-0.3,0.1-0.4c-1.2-1.9-2.4-3.8-3.6-5.7c-0.1-0.2-0.4-0.2-0.6-0.1c-5.9,6.8-11.8,13.6-17.7,20.4
	C104.7,59.1,105.2,59.6,105.5,59.3L105.5,59.3z"/>
<path class="st25" d="M62.5,65.6c3.7-3.5,7.1-7.3,10.2-11.2c0.3-0.4-0.2-0.8-0.5-0.5c-3.2,4-6.6,7.8-10.2,11.2
	C61.7,65.4,62.2,65.9,62.5,65.6L62.5,65.6z"/>
<path class="st25" d="M122.8,39.2c0.7-0.2,0.4-0.9-0.2-1.1c-0.7-0.2-1.9,0.2-2.6,0.3c-1.2,0.2-2.4,0.5-3.5,0.8
	c-0.4,0.1-0.2,0.8,0.2,0.7c0.9-0.2,1.9-0.5,2.9-0.7c0.5-0.1,1-0.2,1.5-0.2c0.3-0.1,0.6-0.1,0.9-0.1c0.3,0.1,0.6,0,0.7-0.3
	C122.1,38.6,122.3,39.3,122.8,39.2L122.8,39.2z"/>
<path class="st25" d="M65.8,49.2c0.3,1.9,0.6,3.7,0.8,5.6c0,0.1,0.2,0.3,0.3,0.2c5.7-0.7,11.5-1.3,17.2-2c5.6-0.6,11.2-1.7,16.8-1.4
	c0.2,0,0.4-0.2,0.3-0.4c-0.6-2.1-1.6-4-2.9-5.7c-0.3-0.3-0.8,0.1-0.5,0.5c1.3,1.6,2.2,3.4,2.8,5.4c0.1-0.1,0.2-0.3,0.3-0.4
	c-6.5-0.4-13.1,0.9-19.6,1.7c-3.3,0.4-6.6,0.7-9.8,1.1c-0.8,0.1-1.6,0.2-2.5,0.3c-0.7,0.1-1.6,0.5-2-0.2c-0.3-0.6-0.2-1.6-0.3-2.3
	c-0.1-0.9-0.2-1.7-0.4-2.5C66.4,48.6,65.8,48.8,65.8,49.2L65.8,49.2z"/>
<path class="st25" d="M98.7,45.9c4.2-2.7,8.4-5.6,12.5-8.6c1.9-1.5,3.8-3,5.8-4.4c0.9-0.6,2-1.8,3-0.7c0.6,0.7,0.9,1.8,0.9,2.7
	c0,0.4,0.7,0.4,0.7,0c-0.1-1.3-0.6-3.1-1.8-3.7c-0.6-0.3-1.2-0.1-1.7,0.2c-1.4,0.8-2.7,1.9-3.9,2.9c-5.1,3.9-10.4,7.6-15.8,11.2
	C98,45.5,98.3,46.1,98.7,45.9L98.7,45.9z"/>
<path class="st25" d="M101.3,51.9c6.9-5.3,13.8-10.9,20.4-16.6c0.3-0.3-0.2-0.8-0.5-0.5c-6.6,5.6-13.4,11.2-20.3,16.4
	C100.6,51.5,100.9,52.2,101.3,51.9L101.3,51.9z"/>
<path class="st25" d="M66.5,49.1c2.1-1.5,4.2-3,6.3-4.5c0.4-0.2,0-0.9-0.4-0.6c-2.1,1.5-4.2,3-6.3,4.5
	C65.8,48.7,66.1,49.3,66.5,49.1L66.5,49.1z"/>
<path class="st25" d="M61.2,45.1c9.7-0.8,19.5-1.1,29.3-0.7c0.4,0,0.4-0.7,0-0.7c-9.8-0.3-19.6-0.1-29.3,0.7
	C60.8,44.5,60.8,45.2,61.2,45.1L61.2,45.1z"/>
<path class="st25" d="M90.9,44.2c-0.6-1.4-1.1-2.9-1.4-4.4c-0.2-1,0.2-1.2,1-1.7c0.7-0.4,1.4-0.9,2.1-1.3c2.9-1.8,5.9-3.7,8.8-5.5
	c5.8-3.6,11.6-7.3,17.4-10.9c0.4-0.2,0-0.8-0.4-0.6c-9.9,6.2-19.8,12.4-29.6,18.6c-0.1,0.1-0.2,0.2-0.2,0.4c0.3,1.9,0.9,3.8,1.6,5.6
	C90.4,44.8,91.1,44.6,90.9,44.2L90.9,44.2z"/>
<path class="st25" d="M91.1,44.7c9.2-6.4,18.8-12.3,28.7-17.7c0.4-0.2,0.1-0.8-0.4-0.6c-9.8,5.4-19.4,11.3-28.7,17.7
	C90.4,44.4,90.7,45,91.1,44.7L91.1,44.7z"/>
<path class="st25" d="M119.2,31.1c-3.5,0.2-6.9,0.6-10.3,1.4c-0.4,0.1-0.2,0.7,0.2,0.7c3.3-0.7,6.7-1.2,10.1-1.4
	C119.7,31.8,119.7,31.1,119.2,31.1L119.2,31.1z"/>
<path class="st25" d="M61.2,44.5c-0.7-0.7-1.9-1.9-0.4-2.8c0.4-0.2,0.9-0.3,1.4-0.4c1.2-0.3,2.4-0.6,3.5-0.8c2.7-0.5,5.3-0.9,8-1.2
	c5.1-0.5,10.1-0.6,15.2-0.2c0.4,0,0.4-0.7,0-0.7c-6.5-0.4-13.1-0.2-19.5,0.8c-2.8,0.4-6,0.7-8.6,1.8c-2.1,0.9-1.4,2.8-0.1,4
	C61,45.4,61.5,44.9,61.2,44.5L61.2,44.5z"/>
<path class="st25" d="M71.7,69.3c1.6-0.2,3.3-0.4,4.9-0.6c0.4,0,0.4-0.7,0-0.7c-1.7,0.1-3.4,0.3-5.1,0.6
	C71.1,68.7,71.3,69.4,71.7,69.3L71.7,69.3z"/>
<path class="st25" d="M82.9,68.4c5.9-1.6,11.7-3.3,17.7-4.5c0.4-0.1,0.2-0.7-0.2-0.7c-6,1.1-11.8,2.9-17.7,4.5
	C82.3,67.9,82.5,68.5,82.9,68.4L82.9,68.4z"/>
<path class="st25" d="M63.7,68.3c6.8-1.3,13.6-2.4,20.5-3.2c0.4-0.1,0.4-0.7,0-0.7c-6.9,0.8-13.8,1.9-20.7,3.2
	C63.1,67.7,63.3,68.4,63.7,68.3L63.7,68.3z"/>
<path class="st25" d="M67.3,53.5c9-0.8,17.9-2,26.8-3.5c0.4-0.1,0.2-0.7-0.2-0.7c-8.8,1.5-17.7,2.7-26.7,3.5
	C66.9,52.9,66.9,53.6,67.3,53.5L67.3,53.5z"/>
<path class="st25" d="M71.6,51.7c5.5-0.8,10.9-1.4,16.4-1.8c0.4,0,0.4-0.7,0-0.7c-5.5,0.4-11.1,1.1-16.6,1.9
	C70.9,51.1,71.1,51.7,71.6,51.7L71.6,51.7z"/>
<path class="st25" d="M67.3,43c5.3-0.3,10.6-0.4,15.9-0.3c0.4,0,0.4-0.7,0-0.7c-5.3-0.1-10.6,0.1-15.9,0.3
	C66.9,42.4,66.9,43.1,67.3,43L67.3,43z"/>
<path class="st25" d="M118.5,20.7c0.5,0.9,2.6,5.4,0.9,5.8c-0.4,0.1-0.2,0.7,0.2,0.7c2.6-0.6,0.3-5.5-0.4-6.8
	C118.9,19.9,118.3,20.3,118.5,20.7L118.5,20.7z"/>
<path class="st25" d="M110.1,64.2c4.2-2.1,8.7-3.6,12.7-6c0.7-0.4,1.3-0.6,1.5-1.3s0.2-1.4,0-2.1c-0.3-1.7-1.5-3.1-2.9-4
	c-0.4-0.2-0.7,0.4-0.4,0.6c1.6,1.1,2.7,2.7,2.6,4.7c-0.1,1.6-3,2.5-4.3,3.2c-3.2,1.5-6.6,2.8-9.7,4.4
	C109.4,63.8,109.7,64.4,110.1,64.2L110.1,64.2z"/>
<path class="st25" d="M109.4,67.8c1.9,0.1,3.9,0.2,5.8,0.3c1.1,0,3.2,0.5,4.1-0.4c0.8-0.9,0.9-2.5,0.9-3.6c0-1.5-0.4-2.8-1.2-4.1
	c-0.2-0.4-0.8,0-0.6,0.4c0.7,1.2,1.1,2.5,1.1,3.9c0,0.6-0.1,1.1-0.2,1.6c-0.3,1.2-0.8,1.4-2,1.6c-2.6,0.2-5.4-0.2-8-0.3
	C109,67.1,109,67.8,109.4,67.8L109.4,67.8z"/>
<path class="st25" d="M63.1,58.3c-0.4,1.5-0.2,3.1,0.7,4.4c0.2,0.4,0.9,0,0.6-0.4c-0.8-1.2-1.1-2.5-0.6-3.8
	C63.9,58.1,63.2,57.9,63.1,58.3L63.1,58.3z"/>
<path class="st25" d="M63.5,58.6c2-0.5,4.1-1.1,6.1-1.6c0.4-0.1,0.2-0.8-0.2-0.7c-2,0.5-4.1,1.1-6.1,1.6
	C62.9,58.1,63,58.7,63.5,58.6L63.5,58.6z"/>
<path class="st25" d="M63.7,63.3c0.1,0.1,0.3,0.1,0.4,0s0.2-0.2,0.2-0.4c0-0.3-0.3-0.5-0.6-0.4c-0.2,0.1-0.2,0.3-0.1,0.5
	c0.1,0.2,0.3,0.2,0.5,0.1c0,0,0,0-0.1,0s-0.1,0-0.2,0c-0.3-0.1-0.3-0.6,0.1-0.5c0.1,0,0.1,0,0.2,0.1l0,0c-0.2-0.1-0.4-0.1-0.5,0.1
	C63.5,62.9,63.5,63.2,63.7,63.3L63.7,63.3z"/>
<path class="st25" d="M69.7,57.2c0.1,0,0.1,0,0.2,0c0.4,0,0.4-0.7,0-0.7c-0.1,0-0.1,0-0.2,0C69.3,56.6,69.3,57.2,69.7,57.2
	L69.7,57.2z"/>
<path class="st25" d="M59.8,41.9C71.2,34,83,26.8,95.3,20.3c0.4-0.2,0.1-0.8-0.4-0.6c-12.3,6.4-24.1,13.6-35.5,21.6
	C59.1,41.6,59.5,42.2,59.8,41.9L59.8,41.9z"/>
<path class="st25" d="M109.2,19.7c0.6,0,9.6-0.8,9.5,0.2c-0.1,0.4,0.6,0.4,0.7,0c0.1-1.2-1.6-1.3-2.4-1.3c-2.6,0-5.2,0.2-7.7,0.3
	C108.7,19,108.7,19.7,109.2,19.7L109.2,19.7z"/>
<path class="st25" d="M95.1,20.5c0.8-0.1,1.6-0.1,2.5-0.2c0.4,0,0.4-0.7,0-0.7c-0.8,0.1-1.6,0.1-2.5,0.2
	C94.7,19.9,94.7,20.5,95.1,20.5L95.1,20.5z"/>
<path class="st25" d="M89.8,40.3c3.1-2.5,6.5-4.8,10-6.8c0.4-0.2,0-0.8-0.4-0.6c-3.6,2-7,4.3-10.2,6.9C89,40.1,89.5,40.6,89.8,40.3
	L89.8,40.3z"/>
<path class="st25" d="M90.1,42.2c0.7-0.4,1.3-0.9,2-1.3c0.4-0.2,0-0.9-0.4-0.6c-0.7,0.4-1.3,0.9-2,1.3
	C89.4,41.9,89.7,42.5,90.1,42.2L90.1,42.2z"/>
<path class="st25" d="M119.1,21.9c-2.5,1.5-5.1,3-7.6,4.5c-0.4,0.2,0,0.8,0.4,0.6c2.5-1.5,5.1-3,7.6-4.5
	C119.8,22.3,119.5,21.7,119.1,21.9L119.1,21.9z"/>
<path class="st25" d="M119.3,24.3c-0.6,0.4-1.2,0.7-1.7,1.1c-0.4,0.2,0,0.8,0.4,0.6c0.6-0.4,1.2-0.7,1.7-1.1
	C120,24.6,119.6,24,119.3,24.3L119.3,24.3z"/>
<path class="st25" d="M102.9,34.4c1.7-1,3.3-2,5-3c0.4-0.2,0-0.8-0.4-0.6c-1.7,1-3.3,2-5,3C102.1,34,102.5,34.6,102.9,34.4
	L102.9,34.4z"/>
<path class="st25" d="M86.5,64.8c1.6-0.5,3.3-0.8,5-1.1c0.4-0.1,0.2-0.7-0.2-0.7c-1.7,0.2-3.3,0.6-5,1.1
	C85.9,64.3,86.1,65,86.5,64.8L86.5,64.8z"/>
<path class="st25" d="M91,114c0.9,0.8,2.4,0.7,3-0.4c0.7-1.1-0.1-2.6-1.2-2.9c-0.2-0.1-0.3,0.3-0.1,0.3c1,0.3,1.6,1.5,1,2.4
	c-0.5,0.8-1.8,0.9-2.5,0.3C91.1,113.6,90.8,113.9,91,114L91,114z"/>
<ellipse transform="matrix(0.9528 -0.3036 0.3036 0.9528 -18.276 33.4387)" class="st36" cx="98.4" cy="75.5" rx="3.1" ry="5.4"/>
<ellipse transform="matrix(0.9528 -0.3036 0.3036 0.9528 -22.8998 35.7101)" class="st36" cx="103.4" cy="91.5" rx="3.1" ry="5.4"/>
<ellipse transform="matrix(0.9528 -0.3036 0.3036 0.9528 -18.3627 33.2956)" class="st37" cx="97.9" cy="75.7" rx="3.5" ry="5.4"/>
<ellipse transform="matrix(0.9528 -0.3036 0.3036 0.9528 -22.9475 35.5939)" class="st37" cx="103" cy="91.6" rx="3.5" ry="5.4"/>
<path class="st36" d="M105.7,96.1c2.5-0.4,4.8-1.6,7.1-2.7c1.7-0.9,3.5-1.8,5.2-2.7"/>
<path class="st36" d="M97,70.3c0.9-0.6,1.8-1.2,2.8-1.6"/>
<path class="st38" d="M118.7,85.4c2.6-1.3,5.2,1.4,3.8,4c-0.1,0.1,0,0.2,0.1,0.2c2.3,1.2,3.5,3.9,3.6,6.5c0.1,2.8-1.7,5.8-4.9,5.4
	c-0.1,0-0.2,0.1-0.2,0.2c1,4.2-1.2,8.6-5.3,9.9c-3.7,1.2-9.5-0.7-8.8-5.5c0-0.1-0.1-0.3-0.2-0.2c-1.2,0.6-2.8,1-3.8,0
	c-0.9-0.8-0.9-2.6,0.5-2.9c0.2-0.1,0.1-0.4-0.1-0.3c-1.3,0.3-1.7,1.9-1.1,3c0.9,1.7,3.3,1.2,4.7,0.5c-0.1-0.1-0.2-0.1-0.2-0.2
	c-0.5,3.3,2.5,5.9,5.5,6.3c3.7,0.5,7.3-1.6,8.8-4.9c0.4-0.8,0.6-1.7,0.7-2.7c0.1-0.5,0.1-1,0-1.5c0-0.3-0.2-1.2-0.1-1.4
	s0.7-0.1,0.9-0.1c0.4-0.1,0.8-0.2,1.2-0.4c0.7-0.4,1.4-0.9,1.9-1.6c2-2.9,1-7.7-1.7-9.9c-0.3-0.2-0.8-0.4-0.8-0.8
	c0-0.2,0.2-0.8,0.3-1.1c0.1-0.7-0.2-1.6-0.6-2.2c-1-1.3-2.8-1.5-4.2-0.8C118.4,85.2,118.6,85.5,118.7,85.4L118.7,85.4z"/>
<path class="st38" d="M113.7,74c1.3,0,2.8-0.1,3.6-1.2c0.8-1.1,0.6-2.6-0.4-3.6c0,0.1-0.1,0.2-0.1,0.3c0.8-0.2,1.2-0.9,0.9-1.6
	c-0.1-0.2-0.4-0.1-0.3,0.1c-0.2,0.4-0.5,0.8-0.7,1.2c-0.1,0-0.2,0.2-0.1,0.3c1,1,1,2.8-0.2,3.7c-0.8,0.5-1.8,0.5-2.7,0.5
	C113.5,73.6,113.5,74,113.7,74L113.7,74z"/>
<path class="st38" d="M119.6,73.4c-0.8,0.3-1.7,0.6-2.5,0.8c-0.5,0.1-1,0.2-1.6,0.2c-0.2,0-0.4,0-0.6,0.1c-0.1,0.1-0.2,0.2-0.2,0.4
	c0,0,0,0,0,0.1c0.1,0.2,0.2,0.3,0.4,0.2c0,0,0,0,0.1,0s0.2-0.1,0.2-0.2c0,0,0,0,0-0.1c0.1-0.4-0.6-0.6-0.7-0.2
	c0.1-0.1,0.1-0.1,0.2-0.2c0.1,0.1,0.3,0.2,0.4,0.2c0,0,0,0,0-0.1c-0.1,0.1-0.1,0.2-0.2,0.4c0.2-0.1,0.7-0.1,0.9-0.1
	c0.4-0.1,0.8-0.1,1.1-0.2c0.8-0.2,1.6-0.4,2.4-0.7C120.2,74,120,73.3,119.6,73.4L119.6,73.4z"/>
<path class="st38" d="M122.9,82.3c-1.6,0.5-3.1,1-4.7,1.5c-0.4,0.1-0.2,0.8,0.2,0.7c1.6-0.5,3.1-1,4.7-1.5
	C123.5,82.8,123.3,82.2,122.9,82.3L122.9,82.3z"/>
<path class="st38" d="M119.4,74.2c1.4,0.8,2.4,2,2.9,3.4c0.2,0.7,0.4,1.4,0.5,2.2c0.1,0.6,0.3,2.2-0.1,2.7c-0.3,0.3,0.2,0.8,0.5,0.5
	c0.6-0.6,0.4-1.4,0.4-2.2c0-1.1-0.2-2.1-0.5-3.1c-0.6-1.7-1.7-3.2-3.3-4.1C119.3,73.3,119,73.9,119.4,74.2L119.4,74.2z"/>
<path class="st38" d="M118.9,67.9c2.4,3.2,4.9,6.3,7.3,9.4c0.3,0.4,0.8-0.1,0.5-0.5c-2.4-3.1-4.8-6.2-7.3-9.3
	C119.2,67.2,118.6,67.6,118.9,67.9L118.9,67.9z"/>
<path class="st38" d="M119.8,74c-0.3-2-0.7-4.1-1.1-6.1c-0.1-0.4-0.7-0.2-0.7,0.2c0.4,2,0.8,4.1,1.1,6.1
	C119.2,74.6,119.9,74.4,119.8,74L119.8,74z"/>
<path class="st38" d="M126.4,77.4c-0.3,3.4-0.4,6.9-0.4,10.3c0,0.4,0.7,0.4,0.7,0c0-3.4,0.1-6.9,0.4-10.3
	C127.1,76.9,126.4,76.9,126.4,77.4L126.4,77.4z"/>
<path class="st38" d="M122.3,82.9c1.3,1.7,2.5,3.5,3.8,5.2c0.2,0.4,0.9,0,0.6-0.4c-1.3-1.7-2.5-3.5-3.8-5.2
	C122.6,82.2,122.1,82.6,122.3,82.9L122.3,82.9z"/>
<path class="st38" d="M119.4,67.3c1.2,1.7,2.6,3.3,4,4.8c0.7,0.8,1.4,1.6,2,2.4c0.4,0.6,0.9,1.1,1.2,1.7c0.2,0.3,0.8,0.9,0.3,0.9
	c-0.4,0-0.4,0.7,0,0.7c2.2-0.1-0.4-2.9-0.9-3.6c-1.9-2.5-4.3-4.7-6.1-7.3C119.7,66.6,119.1,66.9,119.4,67.3L119.4,67.3z"/>
<path class="st38" d="M127.4,77c-0.2,1.9-0.4,3.8-0.5,5.6c0,1,0,1.9,0,2.9c0,0.9,0.1,1.7-0.6,2.4c-0.2,0.2-0.1,0.5,0.2,0.6
	c0,0,0,0,0.1,0c0.1,0.1,0.3,0,0.4-0.2l0,0c0.2-0.4-0.4-0.7-0.6-0.4c0.1-0.1,0.2-0.1,0.3-0.1c0.1,0.2,0.1,0.4,0.2,0.6
	c1.2-1,0.9-2.2,0.8-3.7c0-2.5,0.2-5.1,0.5-7.6C128.2,76.7,127.5,76.5,127.4,77L127.4,77z"/>
<path class="st26" d="M109.5,106c-0.2,1.5-0.1,3.2,1.6,3.7c1.9,0.6,4.2-0.5,5.8-1.3c0.2-0.1,0-0.4-0.2-0.3c-1.2,0.7-2.7,1.2-4.1,1.4
	c-2.2,0.2-3.1-1.3-2.8-3.3C109.9,105.9,109.6,105.8,109.5,106L109.5,106z"/>
<path class="st26" d="M112,106c-0.3,0.9,0.7,1.7,1.6,1.2c0.2-0.1,0-0.4-0.2-0.3c-0.6,0.4-1.3-0.2-1.1-0.8
	C112.4,105.9,112.1,105.8,112,106L112,106z"/>
<path class="st26" d="M103.8,104.4c0.3,0.4,0.8,0.5,1.2,0.3c0.2-0.1,0-0.4-0.2-0.3c-0.2,0.2-0.6,0.1-0.7-0.1
	C104,104.1,103.7,104.2,103.8,104.4L103.8,104.4z"/>
<path class="st26" d="M122.8,92.1c1.7,1.3,2.2,3.8,1,5.6c-0.1,0.2,0.2,0.4,0.3,0.2c1.3-2,0.8-4.7-1.1-6.1
	C122.7,91.7,122.6,92,122.8,92.1L122.8,92.1z"/>
<path class="st26" d="M120.4,87.1c0.2-0.1,0.4-0.1,0.5,0.1c0.2,0.2,0.2,0.4,0.2,0.7c-0.1,0.4-0.3,0.7-0.4,1
	c-0.1,0.2,0.2,0.3,0.3,0.1c0.2-0.6,0.7-1.2,0.3-1.8c-0.2-0.4-0.7-0.6-1.1-0.4C120,87,120.2,87.3,120.4,87.1L120.4,87.1z"/>
<path class="st26" d="M114.2,71.9c0.7,0.5,1.7,0,1.9-0.9c0-0.2-0.3-0.2-0.3,0c-0.1,0.6-0.9,0.9-1.3,0.6
	C114.2,71.5,114,71.8,114.2,71.9L114.2,71.9z"/>
<path class="st26" d="M114.1,70.8c0.5,0.1,1-0.2,1.3-0.6c0.1-0.2-0.2-0.4-0.3-0.2c-0.2,0.3-0.5,0.5-0.9,0.5
	C114,70.5,113.9,70.8,114.1,70.8L114.1,70.8z"/>
<path class="st25" d="M78.2,73.2c0.3-0.2,0.7-0.3,1-0.2c0.2,0.1,0.3-0.3,0.1-0.3c-0.5-0.1-1,0-1.4,0.3C77.8,73.1,78,73.4,78.2,73.2
	L78.2,73.2z"/>
<path class="st25" d="M81.2,73.6c-0.3,0.1-0.6,0.2-0.9,0.3c-0.2,0.1-0.1,0.4,0.1,0.3c0.3-0.1,0.6-0.2,0.9-0.3
	C81.5,73.9,81.3,73.6,81.2,73.6L81.2,73.6z"/>
<path class="st25" d="M70.1,73.9c-0.1,0.6,0.4,1.1,1,1.1c0.2,0,0.2-0.3,0-0.3c-0.4,0-0.6-0.4-0.6-0.7C70.5,73.7,70.1,73.7,70.1,73.9
	L70.1,73.9z"/>
<path class="st25" d="M101.3,17.2c-0.2,0.6,0.2,1.1,0.7,1.2s1.1-0.2,1.2-0.7c0.2-0.5-0.1-1.1-0.6-1.3c-0.5-0.2-1.3,0.1-1.4,0.6
	c0,0.2,0.3,0.3,0.3,0.1c0.1-0.4,0.7-0.5,1-0.4s0.4,0.5,0.3,0.9c-0.2,0.8-1.6,0.6-1.3-0.3C101.7,17.1,101.4,17,101.3,17.2L101.3,17.2
	z"/>
<path class="st25" d="M103.9,16.3c0.1,0.5,0.2,1.4,0.8,1.6c0.5,0.1,1-0.5,1.1-0.9c0.2-1.1-1.1-1.9-1.8-0.9c-0.1,0.2,0.2,0.4,0.3,0.2
	c0.4-0.7,1.3,0,1.2,0.6c-0.1,0.3-0.5,0.9-0.9,0.6c-0.2-0.2-0.3-0.7-0.3-1C104.2,16,103.8,16,103.9,16.3L103.9,16.3z"/>
<path class="st25" d="M101.2,18c0.2,0.7,0.9,1.3,1.6,1.4s1.3-0.2,1.5-0.9c0.2-0.8-0.3-1.8-0.9-2.4c-0.6-0.6-1.4-0.2-1.9,0.3
	c-0.1,0.2,0.1,0.4,0.2,0.2c0.2-0.2,0.4-0.4,0.6-0.5c0.7-0.2,0.9,0.2,1.2,0.6c0.3,0.4,0.5,0.9,0.5,1.5c-0.1,0.8-0.8,1-1.4,0.7
	c-0.5-0.2-0.9-0.6-1.1-1.1C101.5,17.7,101.2,17.7,101.2,18L101.2,18z"/>
<path class="st25" d="M104.5,17.9c0.6,0.5,1.4,0.7,2,0c0.5-0.6,0.4-1.6,0.1-2.2c-0.3-0.6-0.9-1.1-1.6-1.1c-0.8,0.1-1.3,0.7-1.3,1.5
	c0,0.2,0.3,0.2,0.3,0c0-0.7,0.6-1.3,1.3-1.1c0.5,0.1,0.8,0.6,1,1.1c0.1,0.4,0.2,1-0.1,1.4c-0.4,0.7-1.1,0.4-1.6,0
	C104.5,17.5,104.3,17.8,104.5,17.9L104.5,17.9z"/>
<path class="st25" d="M105.1,23.3c-0.1,0.8,0,2,0.6,2.6c0.5,0.5,1.6,0,1.9-0.5c0.5-0.6,0-1.3-0.5-1.8c-0.4-0.4-1.3-1.1-1.8-0.5
	c-0.1,0.2,0.1,0.4,0.2,0.2c0.4-0.5,1.2,0.3,1.5,0.6c0.1,0.1,0.3,0.4,0.4,0.6c0.2,0.6-0.2,0.9-0.6,1.1c-1.4,0.7-1.5-1.5-1.4-2.3
	C105.5,23,105.1,23,105.1,23.3L105.1,23.3z"/>
<path class="st25" d="M107.3,23.7c0.2-0.4,0.3-0.6,0.2-1.1c-0.1-0.2-0.2-0.5-0.4-0.7c-0.4-0.8-0.3-1.5,0.1-2.1
	c0.1-0.3,0.4-0.6,0.5-0.9c0.6-1.5,0.3-3.1-0.6-4.4c-0.1-0.2-0.4,0-0.3,0.2c1.3,1.9,0.8,3.5-0.1,5.3c-0.2,0.4-0.4,0.7-0.3,1.2
	c0.1,0.8,1.2,1.5,0.6,2.3C106.9,23.7,107.2,23.8,107.3,23.7L107.3,23.7z"/>
<path class="st25" d="M107.1,14.7c0.6-0.6,1.2-1.7,1.1-2.5s-1-1.6-1.7-1.9c-0.6-0.2-1.3,0-1.3,0.7c0,0.4,0.4,0.7,0.6,1.1
	c0.4,0.7,0.5,1.5,0.2,2.3c-0.1,0.2,0.3,0.3,0.3,0.1c0.3-1,0.1-2-0.5-2.9c-0.1-0.1-0.1-0.2-0.2-0.3c0.4-0.7,0.9-0.8,1.3-0.3
	c0.3,0.2,0.5,0.4,0.7,0.7c0.5,0.9-0.1,2.1-0.7,2.7C106.7,14.6,107,14.9,107.1,14.7L107.1,14.7z"/>
<path class="st25" d="M105.1,13.8c0.6-0.8,0.7-1.9,0.4-2.8c-0.1-0.2-0.4-0.1-0.3,0.1c0.3,0.9,0.2,1.8-0.3,2.5
	C104.7,13.8,105,14,105.1,13.8L105.1,13.8z"/>
<path class="st25" d="M105.4,14.1C105.4,14,105.4,14,105.4,14.1c0.1-0.1,0.1-0.1,0-0.1V14.1c0.1,0.1,0.1,0.2,0.2,0.3
	c0.2,0.1,0.4,0.1,0.5-0.1c0.1-0.2-0.2-0.3-0.3-0.1c0,0,0-0.1,0.1-0.1l0,0c0-0.1-0.1-0.1-0.1-0.2c0-0.1-0.1-0.2-0.2-0.2
	c-0.1-0.1-0.2-0.1-0.3,0c-0.1,0.1-0.1,0.1-0.2,0.2C105,14.1,105.3,14.3,105.4,14.1L105.4,14.1z"/>
<path class="st25" d="M100.1,16.8c-1.4,0.1-3.5-1.2-2.2-2.8c1.3-1.5,2.6,0.7,3.1,1.7c0.1,0.2,0.4,0,0.3-0.2
	c-0.7-1.3-2.4-3.6-3.8-1.7c-1.3,1.8,0.9,3.3,2.6,3.2C100.3,17.1,100.3,16.8,100.1,16.8L100.1,16.8z"/>
<path class="st25" d="M100.6,15.9c-0.5-0.6-1.2-1.4-2-1.5c-0.7-0.1-1.2,0.5-1.1,1.2c0,0.2,0.4,0.2,0.3,0c0-0.5,0.4-0.9,0.9-0.8
	c0.2,0.1,0.5,0.2,0.7,0.4c0.4,0.3,0.7,0.6,1,1C100.5,16.4,100.8,16.1,100.6,15.9L100.6,15.9z"/>
<path class="st25" d="M101.4,15.3c0-0.3-0.1-0.6-0.1-1c-0.1,0.1-0.1,0.1-0.2,0.2c0.2,0,0.4,0.3,0.7,0.3c0.2,0,0.4-0.3,0.4-0.5
	c-0.1,0-0.2,0.1-0.2,0.1c0.3,0.2,0.7,0.1,0.9-0.2c0.1-0.2-0.1-0.4-0.2-0.2c-0.1,0.1-0.3,0.2-0.4,0.1c-0.1-0.1-0.2,0-0.2,0.1
	s-0.1,0.2-0.2,0.2s-0.1-0.1-0.2-0.1c-0.1-0.1-0.2-0.1-0.4-0.1c-0.1,0-0.2,0.1-0.2,0.2c0,0.3,0.1,0.6,0.1,1
	C101.1,15.5,101.5,15.5,101.4,15.3L101.4,15.3z"/>
<path class="st25" d="M103.2,14C103.1,14,103.1,14,103.2,14c0,0.1,0,0.1,0.1,0.2c0-0.4,0.1-0.7,0.2-1c0.1-0.2-0.2-0.4-0.3-0.2
	c-0.2,0.4-0.3,0.7-0.2,1.2c0,0.1,0.1,0.2,0.2,0.2s0.1,0,0.1,0C103.4,14.3,103.4,14,103.2,14L103.2,14z"/>
<path class="st25" d="M104.1,14.1c0-0.2,0-0.4,0.1-0.5c0.1-0.2-0.1-0.4-0.2-0.2c-0.2,0.2-0.3,0.5-0.2,0.8
	C103.8,14.3,104.1,14.3,104.1,14.1L104.1,14.1z"/>
<path class="st25" d="M104.8,14C104.8,14,104.9,13.9,104.8,14c0.2-0.2,0-0.4-0.2-0.3l-0.1,0.1C104.4,13.9,104.7,14.1,104.8,14
	L104.8,14z"/>
<path class="st25" d="M99.8,17c-0.8,1.7,0.5,2.9,1.7,4c0.7,0.6,1.2,1.2,1.5,2c0.2,0.4,0.2,0.9,0.5,1.2c0.4,0.5,0.9,0.7,1.6,0.7
	c0.2,0,0.2-0.4,0-0.3c-1.4,0-1.9-2.3-2.7-3.2c-1.1-1.1-3.2-2.2-2.3-4.2C100.2,17,99.9,16.8,99.8,17L99.8,17z"/>
<path class="st25" d="M102.5,26.9c0.1-1.4,0.8-2.6,1.9-3.4c0.2-0.1,0-0.4-0.2-0.3c-1.2,0.9-1.9,2.2-2.1,3.7
	C102.1,27.2,102.5,27.2,102.5,26.9L102.5,26.9z"/>
<path class="st25" d="M102.5,24.2c0.2-0.2,0.6-0.4,0.9-0.6c0.2-0.1,0-0.4-0.2-0.3c-0.4,0.1-0.7,0.4-0.9,0.6
	C102.1,24.1,102.3,24.4,102.5,24.2L102.5,24.2z"/>
<path class="st25" d="M106,22.2c1.3,0.2,2.5,0.6,3.7,1.3c0.2,0.1,0.4-0.2,0.2-0.3c-1.2-0.7-2.4-1.1-3.7-1.3
	C105.9,21.9,105.8,22.2,106,22.2L106,22.2z"/>
<path class="st25" d="M106.2,21.6c0.5,0.1,1.1,0.1,1.6,0c0.2-0.1,0.1-0.4-0.1-0.3c-0.5,0.1-0.9,0.1-1.4,0
	C106.1,21.2,106,21.5,106.2,21.6L106.2,21.6z"/>
<path class="st25" d="M108,23.1c0.5,0,0.9-0.4,0.9-0.9c0-0.2-0.1-0.4-0.3-0.6c-0.1-0.1-0.2-0.1-0.3-0.2c-0.1-0.1-0.5,0-0.5-0.2
	c-0.1-0.2-0.4-0.1-0.3,0.1c0.1,0.4,0.5,0.3,0.8,0.4c0.5,0.2,0.2,0.9-0.2,0.9C107.8,22.7,107.8,23.1,108,23.1L108,23.1z"/>
<path class="st25" d="M108.5,21.6c0.6-1.4,1-3.2-0.4-4.3c-0.2-0.1-0.4,0.2-0.2,0.3c1.3,0.9,0.9,2.6,0.3,3.8
	C108.1,21.7,108.4,21.8,108.5,21.6L108.5,21.6z"/>
<path class="st25" d="M99.5,18.7c-0.4-0.2-0.9,0.2-0.8,0.6c0.1,0.3,0.2,0.5,0.4,0.7c0.1,0.1,0.3,0.1,0.3,0.2
	c0.1,0.2,0.1,0.4-0.1,0.6C99.2,20.9,99.1,21,99,21c0.1-0.1,0-0.4-0.2-0.3s-0.4,0.1-0.6,0.1c-0.1,0-0.4-0.2-0.3-0.3
	c0-0.1,0.2-0.1,0.2-0.2s0-0.1,0-0.1c0-0.1-0.1,0,0-0.1s0.3,0,0.5-0.1s0-0.4-0.2-0.3c-0.2,0.2-0.6,0-0.7,0.3c0,0.1,0.1,0.3,0.1,0.3
	c-0.1,0.1-0.2,0.1-0.3,0.2c-0.3,0.8,1.1,0.8,1.5,0.7c-0.1-0.1-0.1-0.2-0.2-0.3c-0.2,0.1-0.2,0.4,0,0.6s0.5,0,0.7-0.2
	s0.4-0.5,0.4-0.8c0-0.1-0.1-0.2-0.2-0.3c-0.1-0.1-0.2-0.1-0.2-0.1c-0.1,0-0.1-0.1-0.2-0.1c-0.2-0.2-0.2-0.4,0-0.7
	C99.5,19.1,99.7,18.8,99.5,18.7L99.5,18.7z"/>
<path class="st25" d="M98.5,19.2c-0.5-0.2-1.2-0.7-0.9-1.4c0.2-0.5,0.9-0.7,1.4-0.9c0.2-0.1,0.1-0.4-0.1-0.3
	c-0.7,0.2-1.6,0.6-1.7,1.4c-0.1,0.7,0.6,1.2,1.1,1.5C98.6,19.6,98.7,19.3,98.5,19.2L98.5,19.2z"/>
<path class="st25" d="M99.1,13.3c0.2-0.1,0.3-0.3,0.4-0.5c0-0.1,0.1-0.1,0.1-0.2c0.1-0.1,0.2-0.2,0.4-0.1c0.1,0,0.1,0.1,0.2,0
	c0.5-0.1,0.1-1,0-1.3c-0.1-0.2-0.4-0.1-0.3,0.1c0.1,0.2,0.2,0.6,0.2,0.8c0,0.1,0,0-0.1,0s-0.1,0-0.2,0c-0.5,0.1-0.4,0.6-0.8,0.9
	C98.8,13.2,98.9,13.5,99.1,13.3L99.1,13.3z"/>
<path class="st25" d="M100.9,11.9L100.9,11.9C100.9,11.9,100.9,11.8,100.9,11.9c0.1,0,0.2-0.1,0.1-0.1v-0.1c0-0.1,0-0.1,0-0.2
	c0-0.1,0-0.3,0-0.4c-0.1,0.1-0.2,0.1-0.2,0.1s0,0,0.1,0.1c0.1,0.2,0.4,0.1,0.3-0.1c-0.1-0.1-0.1-0.2-0.2-0.2c-0.1-0.1-0.2,0-0.2,0.1
	c0,0.3,0,0.7,0.1,0.9s0.3,0.3,0.5,0.1C101.3,11.9,101,11.7,100.9,11.9L100.9,11.9z"/>
<path class="st25" d="M101.9,11.5L101.9,11.5c0.2-0.1,0.1-0.5-0.1-0.4s-0.3,0.3-0.2,0.5C101.7,11.9,102,11.8,101.9,11.5L101.9,11.5z
	"/>
<path class="st25" d="M102.3,11.6c0.1-0.1,0.1-0.1,0.1-0.1c0.2-0.2-0.1-0.4-0.2-0.2c-0.1,0.1-0.1,0.1-0.1,0.1
	C101.9,11.5,102.2,11.8,102.3,11.6L102.3,11.6z"/>
<path class="st25" d="M103.3,11.4c0.7,0.1,1.2,0.3,1.7,0.7c0.2,0.2,0.4-0.1,0.2-0.2c-0.6-0.5-1.2-0.8-2-0.9
	C103.1,11.1,103.1,11.4,103.3,11.4L103.3,11.4z"/>
<path class="st25" d="M107.8,14.2c2.3,0.1,2.9,2.6,4.7,3.4c1,0.5,2.2,0.3,2.8-0.7c1.1-1.9-1.4-4.3-2.9-2.4c-0.1,0.2,0.2,0.4,0.3,0.2
	c1.5-0.6,2.3-0.3,2.4,0.7c0.2,0.4,0.2,0.7-0.1,1.1c-0.5,1.1-1.7,1.2-2.7,0.6c-0.7-0.5-1.2-1.2-1.8-1.8c-0.7-0.8-1.6-1.4-2.7-1.4
	C107.6,13.9,107.6,14.2,107.8,14.2L107.8,14.2z"/>
<path class="st25" d="M107.7,15.3c2,0.4,2.8,2.6,4.7,3.2c1.3,0.4,2.5-0.2,3.1-1.4c0.1-0.2-0.2-0.4-0.3-0.2c-1.2,2.5-3.5,1-4.8-0.4
	c-0.7-0.7-1.5-1.4-2.5-1.6C107.6,14.9,107.4,15.2,107.7,15.3L107.7,15.3z"/>
<path class="st25" d="M101.7,17.1c0,0.1,0,0.1,0,0.2c0.2-0.1,0.4-0.1,0.6-0.2c0.1,0.1,0.1,0.2,0,0.2s-0.1,0-0.1,0
	c-0.1,0-0.1-0.1-0.2-0.1c0.1,0.1,0,0,0-0.1l0,0c0.1,0.1,0.2,0.1,0.4,0.2c0-0.1,0-0.1,0,0c0,0,0,0,0-0.1c0,0,0.1,0,0,0
	c-0.1-0.1-0.2-0.1-0.3-0.2c0.1,0.1-0.1,0.3-0.2,0.3c0.1,0.1,0.2,0.3,0.2,0.4c0.1-0.2,0.2-0.4,0.4-0.5c-0.2-0.1-0.3-0.1-0.5-0.2
	c0,0.1,0,0.2-0.1,0.3c-0.1,0.2-0.1,0.5,0.2,0.6c0.4,0.1,0.7-0.1,0.8-0.5c0.1-0.3,0-0.7-0.3-0.9c-0.8-0.4-1.4,0.9-0.7,1.3
	c0.2,0.1,0.6-0.1,0.5-0.4v-0.1c-0.1,0-0.2-0.1-0.3-0.1c0.1,0.1,0-0.1,0-0.1c0.1,0,0.2-0.1,0.3-0.1h-0.1c-0.1,0.1-0.2,0.2-0.2,0.2
	c-0.1,0-0.1,0-0.1,0c0.2,0,0.4,0,0.6,0v0.1c-0.1-0.1-0.2-0.1-0.4-0.2c0,0.1,0,0.1-0.1,0.2c0.2,0.1,0.3,0.2,0.5,0.4l0,0
	c0.4,0.2,0.7-0.4,0.4-0.6c-0.4-0.2-0.9,0-1,0.4c-0.1,0.3,0.2,0.6,0.5,0.4c0.4-0.2,0.5-0.7,0.3-1.1c-0.1-0.1-0.2-0.2-0.4-0.2
	c-0.4,0.1-0.6,0.6-0.4,0.9c0.1,0.2,0.5,0.2,0.6,0c0.3-0.5-0.2-1.1-0.7-1C101.9,16.8,101.8,16.9,101.7,17.1c0,0.4,0.1,0.7,0.5,0.8
	c0.4,0.1,0.7-0.2,0.6-0.6c0-0.4-0.4-0.7-0.7-0.4c-0.3,0.2-0.4,0.6-0.3,0.9c0.2-0.1,0.3-0.2,0.5-0.4c0,0,0,0,0-0.1s0.1-0.1,0-0.1
	s0.1-0.1,0,0c0,0,0,0,0,0.1s-0.1,0,0,0.1c0.1,0.2,0.1,0.4,0.2,0.6c0.2-0.3,0.3-0.6,0.2-0.9c-0.1-0.2-0.3-0.3-0.5-0.2
	c-0.4,0.2-0.7,0.5-0.7,0.9c-0.1,0.2,0.1,0.4,0.2,0.4c0.7,0.2,1.4-0.7,1-1.3c-0.1-0.1-0.2-0.2-0.3-0.2c-0.5,0.1-0.9,0.6-0.6,1.1
	c0.1,0.1,0.2,0.2,0.4,0.2c0.2-0.1,0.4-0.3,0.5-0.5c0.1-0.3-0.1-0.6-0.3-0.7c-0.5-0.2-1,0.5-0.6,0.9c0.2,0.2,0.6,0.1,0.6-0.2
	c0-0.3,0-0.5-0.1-0.7s-0.3-0.2-0.5-0.1C101.6,16.7,101.6,16.9,101.7,17.1L101.7,17.1z"/>
<path class="st25" d="M104.7,16.6c0,0-0.2-0.2-0.1-0.2c0.1,0.1,0.2,0.2,0.3,0.2c0-0.1,0-0.1,0-0.2c-0.1,0-0.2,0-0.4,0
	C104.7,16.5,104.7,16.5,104.7,16.6c0.1,0,0.1,0.1,0.1,0.1h0.1l0,0v0.1c-0.2,0-0.4-0.1-0.6-0.1c0,0.1,0,0.1,0,0.1
	c0.2,0,0.3-0.1,0.5-0.1C104.7,16.7,104.7,16.6,104.7,16.6c-0.1,0-0.2,0-0.3,0.1l-0.1-0.1C104.5,16.6,104.6,16.6,104.7,16.6
	c0-0.1,0.1,0.1,0.1-0.1l0.1-0.1c-0.1,0-0.2,0-0.4,0v-0.1c0.2,0,0.3-0.1,0.5-0.1v-0.1c-0.2,0-0.3-0.1-0.5-0.1c0.1,0.2,0,0.4-0.1,0.5
	s-0.1,0.4,0,0.5s0.3,0.1,0.5,0c0.4-0.3,0.5-0.9,0.2-1.3c-0.1-0.2-0.3-0.2-0.5-0.1c-0.5,0.3-0.5,1,0,1.3c0.2,0.1,0.4,0,0.5-0.1
	c0.2-0.4-0.1-1.2-0.7-0.8c-0.4,0.2-0.4,0.9-0.1,1.2c0.1,0.1,0.4,0.1,0.5,0c0.3-0.3,0.2-0.9-0.2-1c-0.1,0-0.2,0-0.3,0.1
	c-0.4,0.4-0.3,0.9,0.1,1.2c0.2,0.1,0.4,0,0.5-0.1c0.2-0.2,0.2-0.6,0-0.9c-0.1-0.2-0.4-0.2-0.6-0.1c-0.5,0.4,0.1,1.2,0.7,1.1
	c0.7-0.2,0.5-1.2,0-1.5c-0.1-0.1-0.2-0.1-0.4,0c-0.3,0.2-0.5,0.6-0.3,0.9c0.1,0.1,0.2,0.2,0.3,0.2c0.4,0,0.7-0.4,0.6-0.8
	c-0.1-0.4-0.6-0.5-0.9-0.3C104,16.2,104.3,16.8,104.7,16.6L104.7,16.6z"/>
<path class="st25" d="M104.3,16.6c0,0.2,0,0.4,0,0.6s0.1,0.3,0.3,0.3c0.2,0,0.3-0.1,0.4-0.2s0.1-0.2,0.1-0.4c-0.2,0-0.4,0.1-0.6,0.1
	c0.1,0.1,0.2,0.2,0.2,0.4c0.1,0.2,0.3,0.2,0.5,0.1s0.2-0.3,0.1-0.5c-0.1-0.1-0.2-0.2-0.2-0.4c-0.2-0.3-0.5-0.2-0.6,0.1
	c-0.1,0.1-0.1,0.2-0.1,0.4c0.2,0,0.4,0.1,0.7,0.1c0-0.2,0-0.4,0-0.6C105,16.1,104.3,16.1,104.3,16.6L104.3,16.6z"/>
<path class="st25" d="M105,16.5c0,0.1,0,0.1,0,0.2c-0.1,0.2-0.3,0.1-0.4-0.4c0.1-0.1,0.2-0.1,0.3,0C105,16.4,105,16.4,105,16.5
	C105,16.5,105.1,16.5,105,16.5c0.1-0.2-0.1-0.3-0.3-0.3c-0.2,0-0.3,0.2-0.3,0.3c0,0.6,1.1,0.4,0.9-0.1c-0.1-0.3-0.4-0.4-0.7-0.2
	c-0.2,0.1-0.3,0.4-0.2,0.7c0.1,0.2,0.3,0.2,0.5,0.1S105.1,16.7,105,16.5L105,16.5z"/>
<path class="st25" d="M31.8,85.7c-0.7,0.6-0.9,1.5-0.4,2.3c0.6,0.9,1.7,1.1,2.7,1.2c1.1,0.1,2.5,0.1,3.4-0.8c0.6-0.7,0.8-1.6,0-2.2
	c-0.3-0.3-0.8,0.2-0.5,0.5s0.2,0.9,0,1.2c-0.2,0.3-0.7,0.4-1,0.5c-0.6,0.1-1.2,0.1-1.7,0.1c-0.4,0-0.9-0.1-1.3-0.2
	c-0.7-0.2-1.6-1.3-0.8-2C32.5,86,32.1,85.4,31.8,85.7L31.8,85.7z"/>
<path class="st25" d="M31.9,88.1c1.3-1.2,3.2-1.1,4.3,0.3c0.3,0.3,0.8-0.1,0.5-0.5c-1.4-1.7-3.7-1.8-5.3-0.3
	C31.1,87.9,31.6,88.4,31.9,88.1L31.9,88.1z"/>
<path class="st25" d="M32,84.4c-0.3,0.3-0.6,0.7-0.4,1.1c0.1,0.3,0.4,0.6,0.7,0.7c0.9,0.3,1.6-0.5,1.9-1.2c0.1-0.2-0.2-0.3-0.3-0.1
	c-0.2,0.5-0.6,1-1.2,1c-0.3,0-0.6-0.1-0.8-0.4c-0.2-0.4,0-0.7,0.2-1C32.4,84.4,32.2,84.2,32,84.4L32,84.4z"/>
<path class="st25" d="M37.4,82.7c0.5-0.3,1.2,0,1.1,0.6c-0.1,0.6-0.8,0.7-1.1,0.3c-0.2-0.2-0.4,0.1-0.2,0.2c0.6,0.6,1.6,0.4,1.7-0.4
	c0.1-0.9-0.9-1.5-1.6-1C37.1,82.6,37.2,82.9,37.4,82.7L37.4,82.7z"/>
<path class="st25" d="M33.7,85.5c1.1,2.2,4.5,0.7,3.5-1.6c-0.1-0.2-0.4-0.1-0.3,0.1c0.8,1.9-2,3.2-2.9,1.3
	C33.9,85.1,33.6,85.3,33.7,85.5L33.7,85.5z"/>
<path class="st25" d="M31.6,85c-1.3,0-3.2,1.5-3,2.9c0.3,1.9,2.7,1.8,4.1,2.3c0.4,0.1,0.6-0.5,0.2-0.7c-1-0.4-2.3-0.2-3.1-1
	c-0.7-0.6-0.5-1.3,0-1.9c0.4-0.5,1.1-1,1.7-1C32.1,85.7,32.1,85,31.6,85L31.6,85z"/>
<path class="st25" d="M34.7,90.6c1.5,0,3.4-0.2,4.1-1.8c0.2-0.6,0.2-1.4-0.2-1.9c-0.2-0.3-0.4-0.6-0.7-0.7c-0.2-0.1-0.8-0.2-0.9-0.3
	c0,0.2,0,0.3,0,0.5c0,0,0.1,0,0.1-0.1c-0.2,0-0.3,0-0.5,0c0,0,0,0,0.1,0.1c0.3,0.3,0.8-0.2,0.5-0.5c0,0,0,0-0.1-0.1s-0.4-0.1-0.5,0
	c0,0-0.1,0-0.1,0.1c-0.1,0.1-0.1,0.4,0,0.5c0.2,0.3,0.6,0.2,1,0.4c0.7,0.4,1,1.2,0.7,1.9c-0.5,1.3-2.2,1.4-3.4,1.4
	C34.2,89.9,34.2,90.6,34.7,90.6L34.7,90.6z"/>
<path class="st25" d="M36.8,97.7c-0.2-2.6,0-5.1,0.2-7.7c0.1-0.4-0.6-0.4-0.7,0c-0.2,2.6-0.5,5.1-0.2,7.7
	C36.1,98.2,36.8,98.2,36.8,97.7L36.8,97.7z"/>
<path class="st25" d="M30.8,96.4c-0.3,2.6-1.1,5.1-2.4,7.4c-1.2,2.1-2.8,4-3.8,6.2c-1.9,3.9-1.6,8.4,2.1,11.2
	c5.5,4.2,19.4,2.4,18-6.7c-0.4-2.6-1.9-4.9-3.5-6.9c-1.9-2.5-3.5-5-4.2-8c-0.1-0.4-0.8-0.2-0.7,0.2c0.9,4.2,3.7,7,5.9,10.6
	c1.2,2,2.2,4.6,1.6,7c-0.6,2.2-2.5,3.5-4.5,4.2c-3.7,1.4-8.4,1.7-11.9-0.6c-2.1-1.4-3.5-3.7-3.5-6.2c0-2.4,1.2-4.6,2.5-6.6
	c1.2-1.9,2.6-3.7,3.5-5.8c0.8-1.9,1.3-3.8,1.6-5.9C31.5,95.9,30.9,95.9,30.8,96.4L30.8,96.4z"/>
<path class="st25" d="M30.7,89.9c0.1,2.2,0.2,4.3,0,6.4c0,0.4,0.7,0.4,0.7,0c0.2-2.2,0.1-4.3,0-6.4C31.4,89.5,30.7,89.5,30.7,89.9
	L30.7,89.9z"/>
<path class="st25" d="M32.4,90.7c-0.5,3.3,0.2,6.6-0.5,9.8c-0.1,0.2,0.3,0.3,0.3,0.1c0.7-3.2,0-6.6,0.5-9.8
	C32.7,90.6,32.4,90.5,32.4,90.7L32.4,90.7z"/>
<path class="st25" d="M31.4,102.7c1.3,0.5,2.1-1.6,0.9-2.2C31,99.9,30.1,102.1,31.4,102.7c0.2,0.1,0.4-0.2,0.1-0.3
	c-0.9-0.4-0.3-2,0.6-1.5c0.8,0.4,0.2,1.9-0.7,1.5C31.3,102.3,31.2,102.6,31.4,102.7z"/>
<path class="st25" d="M30.7,106.3c-0.9,0.6-2,1.5-1.5,2.7c0.4,1.1,1.7,1.4,2.7,1c0.9-0.4,1.8-1.4,1.6-2.5c-0.2-1.3-2-1.5-3-1.3
	c-0.2,0.1-0.1,0.4,0.1,0.3c1.1-0.2,2.9,0.1,2.5,1.6c-0.2,0.7-0.8,1.3-1.5,1.5c-0.9,0.2-1.9-0.1-2.2-1.1
	C29.1,107.5,30.1,106.8,30.7,106.3C31.1,106.4,30.9,106.2,30.7,106.3L30.7,106.3z"/>
<path class="st25" d="M33.5,107.5c-0.1-0.4,0-0.9,0.4-1.1s0.9,0.1,1,0.5C35.3,107.9,34,108.3,33.5,107.5c-0.1-0.2-0.4,0-0.3,0.2
	c0.3,0.5,0.9,0.7,1.5,0.5s0.8-0.9,0.6-1.4s-0.8-0.9-1.4-0.7c-0.6,0.2-0.9,0.9-0.7,1.5C33.3,107.8,33.6,107.7,33.5,107.5L33.5,107.5z
	"/>
<path class="st25" d="M33.7,108.8c-0.2,0.5-0.2,1.2,0.1,1.6c0.4,0.5,1,0.4,1.4,0s0.3-1.1-0.1-1.5c-0.3-0.2-1.2-0.6-1.3,0
	c0,0.1,0,0.1,0.1,0.1c0,0,0,0,0.1,0c0.2,0.1,0.4-0.2,0.2-0.3c0,0,0,0-0.1,0c0,0.1,0.1,0.1,0.1,0.1c0-0.1,0.5,0.1,0.6,0.1
	c0.2,0.1,0.3,0.2,0.4,0.4c0.2,0.4-0.1,0.9-0.5,0.9c-0.8,0.1-0.7-1.1-0.5-1.5C34.1,108.6,33.8,108.5,33.7,108.8L33.7,108.8z"/>
<path class="st25" d="M33.5,116.2c0.4,0,0.6,0.7,0.1,0.7c-0.2,0-0.4-0.1-0.4-0.3C33.2,116.5,33.3,116.3,33.5,116.2
	c0.2,0,0.2-0.4,0-0.3c-0.4,0-0.7,0.4-0.7,0.8s0.4,0.7,0.7,0.7c0.4,0,0.7-0.3,0.7-0.7c0-0.4-0.3-0.7-0.7-0.7
	C33.3,115.9,33.3,116.2,33.5,116.2L33.5,116.2z"/>
<path class="st25" d="M35.9,117.3c-0.5-0.2-1.1,0.2-1.2,0.8c0,0.6,0.5,1.1,1.1,1.1s1.2-0.4,1.2-1C37,117.6,36.4,117.2,35.9,117.3
	c-0.3,0.1-0.2,0.4,0,0.3c0.4-0.1,0.8,0.2,0.7,0.7c-0.1,0.3-0.5,0.6-0.8,0.5c-0.3,0-0.6-0.2-0.7-0.5c-0.1-0.4,0.3-0.8,0.7-0.7
	C36.1,117.7,36.1,117.4,35.9,117.3L35.9,117.3z"/>
<path class="st25" d="M38.9,115.1c-0.9-0.1-1.9,0.6-2,1.5s0.6,1.8,1.5,1.9c0.9,0.2,1.9-0.6,2-1.5c0.2-1-0.5-1.9-1.4-2.1
	c-0.2-0.1-0.3,0.3-0.1,0.3c0.7,0.2,1.3,0.8,1.2,1.6c-0.1,0.8-0.9,1.4-1.6,1.3c-0.7-0.1-1.4-0.9-1.2-1.7c0.2-0.7,0.9-1.2,1.6-1.1
	C39.2,115.4,39.2,115.1,38.9,115.1L38.9,115.1z"/>
<path class="st25" d="M28.3,119.2c2.8,1.8,6.4,2,9.5,1.1c2.3-0.7,5-2.3,5.2-5c0.2-3.7-3.7-3.8-6.4-4c-2.4-0.2-4.8-0.4-7.2-0.2
	c-1,0.1-2.5,0.1-3.2,0.9c-0.6,0.8-0.5,2.2-0.3,3.2C26.1,116.8,26.9,118.2,28.3,119.2c0.2,0.1,0.4-0.2,0.2-0.3c-1.6-1.2-2.4-3-2.4-5
	c0-0.6,0-1.3,0.4-1.8c0.6-0.6,1.7-0.6,2.4-0.7c1.9-0.2,3.7-0.1,5.6,0c1.8,0.1,3.8,0.1,5.6,0.6c2.4,0.6,3.3,3,2,5
	c-0.8,1.3-2.3,2.1-3.7,2.7c-3.2,1.2-7,1.1-9.9-0.8C28.3,118.8,28.1,119.1,28.3,119.2z"/>
<path class="st25" d="M31.3,102.5c-0.7,3.9-4.4,6.2-5.6,9.9c-0.1,0.2,0.3,0.3,0.3,0.1c1.1-3.7,4.8-6.1,5.6-9.9
	C31.7,102.4,31.4,102.3,31.3,102.5L31.3,102.5z"/>
<path class="st25" d="M26.1,112.2c0.1,1.9,1.9,2.3,3.4,2.5c2.5,0.4,5.1,0.6,7.7,0.2c1.6-0.2,4-0.8,4.3-2.8c0.2-1.3-0.9-2.4-2.2-2
	c0.1,0.1,0.1,0.2,0.2,0.2c0.2-0.3,0.4-0.7,0.6-1c0.1-0.1,0-0.2-0.1-0.2c-0.4-0.2-1.9-0.7-2.2-1.1c-0.4-0.7-0.1,0-0.1-0.5
	c0-0.6,0.2-1-0.2-1.5c-0.1-0.1-0.2-0.2-0.3-0.3c-0.1-0.1-0.2-0.1-0.3-0.2c-0.5-0.4-0.7-0.9-0.5-1.4c-0.1-0.5-0.1-0.6-0.4-1.1
	c-0.9-1.4-0.5-2-0.6-3.5c-0.1-1-0.3-1.9-0.5-2.8c-0.2-1.4-0.1-2.6,0.3-4c0.2-0.9,0.4-1.7,0.1-2.7c-0.1-0.2-0.4-0.1-0.3,0.1
	c0.5,1.8-0.7,3.6-0.6,5.4c0.1,2,0.8,3.7,0.6,5.7c-0.1,0.4-0.1,0.8,0.1,1.2c0.1,0.1,0.1,0.2,0.2,0.3c0.4,0.5,0.7,0.8,0.7,1.5
	c0,0.5-0.1,0.6,0.1,1.1c0.1,0.1,0.4,0.3,0.4,0.2c0.7,1,1.4,1.2,0.7,2c-0.1,0.1-0.1,0.2,0,0.3c0.6,0.4,1.4,0.7,1.9,1.1s0.4,0.5,0,1.1
	c-0.1,0.1,0.1,0.3,0.2,0.2c1.6,0.1,2.1,0.8,1.5,2.3c-0.3,0.4-0.6,0.8-1.1,1.1c-0.5,0.3-1,0.4-1.5,0.6c-1.4,0.4-2.8,0.5-4.2,0.4
	c-1.3,0-2.5-0.1-3.8-0.3c-1.4-0.2-3.8-0.3-3.9-2.2C26.4,112,26.1,112,26.1,112.2L26.1,112.2z"/>
<path class="st25" d="M25.9,112.3c0,0.2-0.1,0.5-0.1,0.8c0,0.2,0.3,0.3,0.3,0.1c0-0.2,0.1-0.5,0.1-0.8C26.3,112.1,26,112,25.9,112.3
	L25.9,112.3z"/>
<path class="st25" d="M31.1,96.4c-0.5-0.2-1.1-0.3-1.5-0.8c-0.4-0.4-0.4-1.2,0.2-1.5c0.2-0.1,0-0.4-0.2-0.3
	c-0.6,0.3-0.7,1.1-0.5,1.6c0.3,0.7,1.2,1.1,1.9,1.2C31.2,96.8,31.3,96.5,31.1,96.4L31.1,96.4z"/>
<path class="st25" d="M29.4,94.2c-1.6-0.7,0.6-2.2,1.1-2.9c0.1-0.2-0.2-0.4-0.3-0.2c-0.5,0.7-1.4,1.1-1.6,1.9
	c-0.1,0.6,0.1,1.1,0.6,1.4C29.4,94.6,29.6,94.3,29.4,94.2L29.4,94.2z"/>
<path class="st25" d="M29.7,91.8c-1-0.6-3.3-2.3-1.4-3.5c0.1-0.1,0.1-0.2,0-0.3c-1.6-0.9-0.9-3.2,1-2.9c0.1,0,0.2-0.2,0.1-0.2
	c-0.6-1.3,0-3.9,1.9-2.8c0.1,0.1,0.3,0,0.2-0.1c-0.2-1.9,2.2-2.9,3.2-1.1C34.8,81,35,81,35,80.8c-0.1-1.8,2-2.8,3.5-3.3
	c1.9-0.7,3.7-0.4,4.9,1.4c1.6,2.4,2.8,6.7-0.3,8.5c-0.2,0.1,0,0.4,0.2,0.3c3.6-2,2.2-7.6-0.3-10c-1.5-1.4-3.4-1-5.1-0.3
	c-1.4,0.6-3.2,1.6-3.1,3.4c0.1,0,0.2-0.1,0.3-0.1c-0.5-0.8-1.3-1.3-2.2-1.2c-1,0.1-1.4,0.9-1.7,1.7c-0.3,0.8,0.2,0.2-0.4,0.3
	c-0.5,0.1-0.9,0-1.3,0.3c-0.3,0.2-0.6,0.6-0.7,0.9c-0.2,0.6,0.1,1,0,1.6c0,0.1,0.1,0.2,0.1,0.3l-0.7,0.1c-0.4,0.2-0.7,0.4-0.9,0.8
	c-0.6,1,0,1.6,0.4,2.4c0.2,0.5,0.2-0.2,0,0.5c-0.1,0.5-0.3,0.7-0.2,1.3c0.2,1.2,1.3,1.8,2.2,2.4C29.7,92.2,29.9,91.9,29.7,91.8
	L29.7,91.8z"/>
<path class="st25" d="M42.9,94.8c1,0.3,1.7,1.2,1.6,2.3c-0.2,1.1-1.1,1.7-2.2,1.7c-0.2,0-0.2,0.3,0,0.3c1.2,0,2.3-0.8,2.5-2
	s-0.7-2.4-1.8-2.7C42.8,94.4,42.7,94.7,42.9,94.8L42.9,94.8z"/>
<path class="st25" d="M42.4,99.4c0.4,0.3-0.1,0.7-0.3,0.8c-0.1,0.1-0.3,0.1-0.5,0.1c-0.3,0-0.6,0-0.8,0c-0.5,0.1-0.8,0.3-1,0.7
	c-0.1,0.2,0.2,0.4,0.3,0.2c0.5-1,1.7-0.2,2.5-0.8c0.4-0.3,0.5-0.9,0-1.2C42.4,98.9,42.2,99.2,42.4,99.4L42.4,99.4z"/>
<path class="st25" d="M40.5,100.9c0.5-0.1,0.7,0.9,0.7,1.2c0.1,0.6,0.1,1.2-0.4,1.7c-0.1,0.1,0.1,0.4,0.2,0.3
	c0.1-0.1,0.2-0.1,0.2-0.2c0.2-0.1,0-0.4-0.2-0.3c-0.1,0.1-0.2,0.1-0.2,0.2c0.1,0.1,0.1,0.2,0.2,0.3c0.7-0.6,0.6-1.5,0.4-2.3
	c-0.1-0.6-0.4-1.3-1.1-1.2C40.1,100.6,40.2,100.9,40.5,100.9L40.5,100.9z"/>
<path class="st25" d="M41.5,103.8c0.7-1.2,2.2-0.7,2.9,0.2c0.8,1.1,0.8,2.5,0.2,3.7c-0.1,0.2,0.2,0.4,0.3,0.2
	c0.7-1.5,0.6-3.5-0.7-4.6c-0.9-0.8-2.4-0.8-3,0.3C41.1,103.8,41.4,104,41.5,103.8L41.5,103.8z"/>
<path class="st25" d="M25.8,101.8c-2.1-0.9-0.9-4.1,1.3-3.3c1,0.4,1.4,1.6,1,2.5s-1.6,1.2-2.5,0.8c-0.2-0.1-0.4,0.2-0.2,0.3
	c1.1,0.5,2.4,0.2,2.9-0.9s0.1-2.4-1-2.9s-2.4-0.1-2.9,1s0,2.4,1.1,2.9C25.9,102.2,26,101.9,25.8,101.8L25.8,101.8z"/>
<path class="st25" d="M25.3,103.9C25.2,103.9,25.2,103.8,25.3,103.9c-0.1-0.1-0.2-0.4-0.2-0.7c0.1-0.2,0.2-0.5,0.4-0.5
	c0.1,0,0.2,0.1,0.3,0.2c0.2,0.2,0.3,0.5,0.2,0.8c0,0.1-0.1,0.2-0.2,0.3c-0.1,0.1-0.1,0-0.4,0c-0.1,0-0.1,0-0.1,0
	c-0.3,0-0.4-0.2-0.4-0.1c0,0,0,0.1,0.1,0.2c0.3,0.3,0.7,0.4,1,0.3c0.5-0.2,0.5-0.9,0.3-1.4c-0.2-0.3-0.5-0.7-0.8-0.7
	c-0.2,0-0.3,0.1-0.4,0.2c-0.4,0.4-0.5,1.2-0.1,1.5c0.3,0.2,0.7,0.2,0.7,0.1C25.7,104.1,25.5,104,25.3,103.9z"/>
<path class="st25" d="M26.1,100.6c-0.4-0.2-0.1-1,0.4-0.7c0.2,0.1,0.3,0.4,0.2,0.6C26.6,100.7,26.3,100.7,26.1,100.6
	s-0.4,0.2-0.2,0.3c0.4,0.2,0.9,0.1,1.1-0.2c0.2-0.4,0.1-0.9-0.3-1.1s-0.9-0.1-1,0.3c-0.2,0.4-0.1,0.8,0.3,1
	C26.2,101,26.3,100.7,26.1,100.6L26.1,100.6z"/>
<path class="st25" d="M39.2,96.5c0.3-1.4,2.3-1.9,3.1-0.6c0.9,1.5-0.6,3-2.2,2.4c-0.2-0.1-0.3,0.2-0.1,0.3c1.8,0.7,3.6-1.2,2.5-3
	c-0.9-1.6-3.3-1-3.7,0.7C38.8,96.7,39.1,96.8,39.2,96.5L39.2,96.5z"/>
<path class="st25" d="M40.4,97.4c-0.5-0.3-0.2-1.1,0.4-0.9c0.2,0.1,0.4,0.4,0.3,0.6C41,97.3,40.7,97.5,40.4,97.4
	c-0.2-0.1-0.4,0.2-0.2,0.3c0.4,0.2,0.9,0,1.2-0.4c0.2-0.4,0-0.9-0.4-1.1s-0.9-0.1-1.1,0.4c-0.2,0.4-0.1,0.9,0.3,1.1
	C40.5,97.8,40.6,97.5,40.4,97.4L40.4,97.4z"/>
<path class="st25" d="M30.7,108.9c0.4,0.3,0.9,0.4,1.3,0.1c0.4-0.3,0.5-0.9,0.2-1.3s-0.9-0.6-1.3-0.2
	C30.5,107.8,30.3,108.4,30.7,108.9c0,0.1,0.3-0.1,0.2-0.3c-0.1-0.3-0.1-0.6,0.2-0.8c0.3-0.2,0.7-0.1,0.9,0.2c0.4,0.6-0.5,1.2-1,0.7
	C30.8,108.4,30.5,108.7,30.7,108.9L30.7,108.9z"/>
<path class="st25" d="M37.6,80c1-1.4,3.2-2.2,4.5-0.7c0.9,1,0.8,2.5,0.7,3.8c0,0.2,0.3,0.2,0.3,0c0.1-1.7,0.1-3.8-1.6-4.7
	c-1.6-0.8-3.3,0.1-4.3,1.4C37.1,80,37.4,80.2,37.6,80L37.6,80z"/>
<path class="st25" d="M39.3,80.3c0.3-0.5,1.1-0.4,1.5,0c0.5,0.5,0.4,1.4,0.2,2c-0.1,0.2,0.3,0.3,0.3,0.1c0.2-0.8,0.2-1.9-0.5-2.5
	c-0.6-0.4-1.4-0.4-1.9,0.2C38.9,80.3,39.2,80.5,39.3,80.3L39.3,80.3z"/>
<path class="st25" d="M42.8,89.6c0.4-0.4,0.9-0.5,1.4-0.2c0.6,0.3,0.8,1.1,0.7,1.7c-0.2,1-0.9,1.7-1.7,2.4c-0.2,0.1,0.1,0.4,0.2,0.2
	c1.1-0.9,2.3-2.3,1.6-3.8c-0.4-1-1.8-1.4-2.5-0.5C42.3,89.5,42.6,89.7,42.8,89.6L42.8,89.6z"/>
<path class="st25" d="M41.6,105.6c0.1-0.9,1.2-1,1.6-0.2c0.3,0.7-0.2,1.3-0.7,1.6c-0.2,0.1,0,0.4,0.2,0.3c0.9-0.4,1.4-1.7,0.6-2.5
	c-0.7-0.7-1.9-0.2-2,0.8C41.3,105.8,41.6,105.8,41.6,105.6L41.6,105.6z"/>
<path class="st25" d="M42.1,106c0.1-0.1,0.2-0.2,0.3-0.2c0,0-0.1,0-0.1-0.1c0.1,0.1,0.1,0.2,0,0.3c-0.2,0.2,0.1,0.4,0.2,0.2
	c0.2-0.2,0.2-0.6,0.1-0.8c-0.1-0.1-0.3-0.1-0.4,0c-0.1,0.1-0.2,0.2-0.3,0.3C41.7,106.1,42,106.2,42.1,106L42.1,106z"/>
<path class="st25" d="M38.5,117.3c-0.4-0.2-0.2-1,0.4-0.8c0.2,0.1,0.4,0.3,0.3,0.6C39,117.2,38.7,117.4,38.5,117.3s-0.4,0.2-0.2,0.3
	c0.4,0.2,0.9,0,1.1-0.4c0.2-0.4,0-0.9-0.4-1.1s-0.9-0.1-1,0.4c-0.2,0.4,0,0.9,0.3,1.1C38.5,117.7,38.7,117.4,38.5,117.3L38.5,117.3z
	"/>
<path class="st25" d="M36.4,99.7c1-0.2,1.3-2,0.1-1.9C35.4,97.8,35.1,99.8,36.4,99.7c0.2,0,0.2-0.4-0.1-0.3
	c-0.8,0.1-0.5-1.2,0.2-1.2s0.3,1.2-0.2,1.3C36.1,99.4,36.2,99.7,36.4,99.7z"/>
<path class="st25" d="M43.5,87.6c2.5-0.5,4.8,1.6,4.2,4.2c-0.5,2-2.7,2.9-4.7,2.8c-0.2,0-0.2,0.3,0,0.3c2.4,0.1,5-1.3,5.1-3.9
	s-2.3-4.3-4.7-3.8C43.2,87.3,43.3,87.6,43.5,87.6L43.5,87.6z"/>
<path class="st25" d="M58,121c1.3-1.2,3.5-1.2,5.1-0.8c1.8,0.4,2.9,1.7,3.6,3.3c0.1,0.2,0.3,0.1,0.3,0c0.6-1.6,2.3-0.2,2.5,0.9
	c0.1,0.2,0.4,0.1,0.3-0.1c-0.2-0.8-0.5-1.8-1.4-2c-0.8-0.2-1.5,0.4-1.8,1.1c0.1,0,0.2,0,0.3,0c-0.8-1.9-2.1-3.2-4.2-3.5
	c-1.7-0.2-3.8-0.2-5.1,1C57.6,120.9,57.8,121.2,58,121L58,121z"/>
<path class="st25" d="M69.6,124.2c-1.4,0.5-9.8,2.9-8.5-0.9c0.1-0.2-0.2-0.3-0.3-0.1c-0.4,1.3,0.5,2.3,1.7,2.5
	c2.2,0.4,5.1-0.5,7.2-1.2C69.9,124.5,69.8,124.1,69.6,124.2L69.6,124.2z"/>
<path class="st25" d="M53.2,125.2c-2.6,1.5-5.6,2.5-8.4,0.9c-1.6-0.8-3-2.2-4.8-2.3c-1,0-1.9,0.4-2.9,0.7c-1.4,0.4-2.9,0.7-4.3,0.9
	c-2.8,0.3-5.6,0.1-8.4-0.5c0,0.1,0,0.2,0,0.3c1.4-0.8,3-0.7,4.5-0.7s3-0.1,4.4-0.2c0.6-0.1,3.9,0,3-1.4c-0.1-0.2-0.4,0-0.3,0.2
	c0.4,0.7-3.5,1-3.7,1c-1.1,0.1-2.3,0.1-3.4,0.2c-1.6,0-3.2-0.1-4.7,0.7c-0.1,0.1-0.1,0.3,0,0.3c2.6,0.6,5.3,0.9,7.9,0.6
	c1.2-0.1,2.5-0.3,3.7-0.6c1.4-0.4,3-1.3,4.5-1c2.4,0.4,4,2.6,6.4,2.9c2.3,0.4,4.6-0.6,6.5-1.7C53.6,125.3,53.4,125,53.2,125.2
	L53.2,125.2z"/>
<path class="st25" d="M44.8,122.9c0.2-1.1,1.5-1.1,2.1-0.4c0.5,0.6-0.2,1.1-0.8,1.1C45.8,123.6,44.7,123.5,44.8,122.9
	c0.1-0.2-0.2-0.3-0.3-0.1c-0.2,0.8,0.7,1.1,1.3,1.1c0.6,0.1,1.6-0.1,1.7-0.9c0.1-0.7-0.7-1.2-1.4-1.4c-0.8-0.1-1.5,0.3-1.6,1.1
	C44.5,123,44.8,123.1,44.8,122.9L44.8,122.9z"/>
<path class="st25" d="M45.7,123.1c0.1-0.1,0.2-0.2,0.3-0.2s0.3-0.1,0.3,0.1c0.1,0.2-0.4,0-0.5-0.1C45.7,122.7,45.5,123.1,45.7,123.1
	c0.2,0.2,0.4,0.3,0.6,0.2c0.2-0.1,0.4-0.2,0.3-0.5c-0.1-0.2-0.3-0.4-0.5-0.4c-0.3,0-0.5,0.2-0.7,0.4C45.4,123,45.6,123.2,45.7,123.1
	L45.7,123.1z"/>
<path class="st25" d="M63,124.3c-0.6-1.3,1-2.5,2.1-1.5c0.3,0.3,0.5,0.7,0.3,1.2c-0.1,0.2-0.5,0.4-0.7,0.4
	C64.1,124.5,63.3,124.6,63,124.3c-0.3-0.2-0.5,0-0.3,0.1c0.6,0.6,1.7,0.5,2.5,0.2c0.8-0.4,1-1.3,0.4-2
	C64.3,121.1,62.1,122.7,63,124.3C62.8,124.7,63.1,124.5,63,124.3L63,124.3z"/>
<path class="st25" d="M64.1,123.7c-0.1-0.1,0.1-0.3,0.1-0.3c0.1-0.1,0.3-0.1,0.4,0.1c0.1,0.1,0.1,0.3-0.1,0.3
	C64.4,123.9,64.3,123.8,64.1,123.7c0-0.2-0.3,0-0.2,0.2c0.1,0.3,0.5,0.4,0.8,0.2c0.3-0.2,0.3-0.6,0.1-0.9c-0.2-0.3-0.6-0.3-0.9-0.1
	c-0.3,0.2-0.4,0.6-0.1,0.9C64.1,124.2,64.3,123.9,64.1,123.7L64.1,123.7z"/>
<path class="st25" d="M50.3,109.2c-0.1,2.1-0.5,4.3-0.4,6.5c0,0.7,0,2.3,1,2.4c1.1,0.1,1.7-1.8,2-2.6c0.6-1.9,1-3.9,1.2-5.9
	c0-0.2-0.3-0.2-0.3,0c-0.2,1.5-0.4,2.9-0.8,4.4c-0.2,0.7-1.2,4.8-2.5,3c-0.5-0.7-0.1-2.8-0.1-3.7c0.1-1.4,0.2-2.7,0.3-4.1
	C50.7,109,50.3,109,50.3,109.2L50.3,109.2z"/>
<path class="st25" d="M51,109.1c0.1,0.1,3.3-1,2.5,0.6c-0.4,0.9-2.3-0.1-2.7-0.4c-0.1-0.1-0.3,0-0.3,0.1c-0.1,0.7-0.2,1.4-0.2,2.1
	c0,0.2-0.1,2.5-0.3,2.6c-0.3,0.1-1.8-3.9-2.2-4.5c-0.8-1.1-1.9-1.7-3.2-1.7c-0.2,0-0.2,0.3,0,0.3c2.3,0.1,3.3,2,4,4
	c0.3,0.9,0.6,1.7,1.5,2.1c0.1,0.1,0.2,0,0.2-0.1c0.2-1.6,0.4-3.2,0.5-4.8c-0.1,0-0.2,0.1-0.3,0.1c0.7,0.7,1.8,1,2.8,0.7
	c0.5-0.2,1.3-0.7,1-1.3c-0.4-0.7-2.6-0.4-3.2-0.1c-0.4,0.2-0.6,0.4-0.2,0.7C51,109.6,51.2,109.3,51,109.1L51,109.1z"/>
<path class="st25" d="M51,109.4c0.9,1.1,2.5,0.7,3-0.6c0.1-0.2-0.2-0.3-0.3-0.1c-0.4,1.1-1.7,1.3-2.4,0.4
	C51.1,109,50.8,109.3,51,109.4L51,109.4z"/>
<path class="st25" d="M54.5,115.1c-0.2,2.6-0.6,5.2-0.5,7.8c0,0.9,0,3.3,1.3,3.3c1.5-0.1,2.1-2.7,2.4-3.7c0.7-2.3,1.1-4.6,1.4-6.9
	c0-0.2-0.3-0.2-0.3,0c-0.2,1.7-0.5,3.4-0.9,5.1c-0.2,0.7-0.4,1.5-0.6,2.2c-0.2,0.5-0.6,2.2-1.2,2.5c-0.5-0.1-1-0.3-1.5-0.4
	c0-0.2-0.1-0.3-0.1-0.5c-0.2-0.4-0.1-1.2-0.1-1.7c0-0.8,0.1-1.5,0.1-2.3c0.1-1.7,0.2-3.5,0.4-5.3C54.9,114.9,54.5,114.9,54.5,115.1
	L54.5,115.1z"/>
<path class="st25" d="M54.8,115.5c0.7,0.8,1.8,1.1,2.9,0.9c0.7-0.1,2.2-0.8,1.8-1.7c-0.1-0.3-0.5-0.4-0.8-0.4
	c-0.8-0.1-1.6-0.1-2.3,0.1c-0.3,0.1-1.2,0.1-1.4,0.5c-0.1,0.2,0,0.4,0.2,0.5s0.3-0.2,0.1-0.3c0.1-0.1,0.3-0.2,0.5-0.2
	s0.4-0.1,0.6-0.1c0.3-0.1,0.7-0.1,1-0.1s0.8-0.1,1.1,0c0.2,0.2,0.4,0.4,0.6,0.6c-0.2,0.2-0.4,0.4-0.6,0.5c-1.1,0.6-2.6,0.3-3.4-0.6
	C54.9,115.1,54.6,115.3,54.8,115.5L54.8,115.5z"/>
<path class="st25" d="M55.3,115.3c1.1,1.3,3.1,0.9,3.7-0.7c0.1-0.2-0.2-0.3-0.3-0.1c-0.5,1.4-2.2,1.6-3.1,0.5
	C55.4,114.9,55.2,115.2,55.3,115.3L55.3,115.3z"/>
<path class="st25" d="M56.9,116.5c-0.2,1.8-0.5,3.6-0.8,5.4c-0.1,1.1-0.3,2.1,0.2,3.1c0.1,0.1,0.3,0.1,0.3,0c1-3,1.7-6,2.1-9.2
	c0-0.2-0.3-0.2-0.3,0c-0.4,3.1-1.1,6.1-2.1,9.1c0.1,0,0.2,0,0.3,0c-0.6-1.4-0.2-3,0-4.4c0.2-1.3,0.4-2.6,0.6-3.9
	C57.3,116.4,57,116.2,56.9,116.5L56.9,116.5z"/>
<path class="st25" d="M51.5,107.1c0.1-1.2,1.4-1.3,1.1-2.5c-0.1-0.5-0.5-0.8-0.9-1.1c-1-0.9-1.1-2.6,0.5-2.9c0.2,0,0.1-0.4-0.1-0.3
	c-1.1,0.2-1.9,1.3-1.5,2.4c0.3,0.9,2.2,1.6,1.5,2.9c-0.4,0.6-0.8,0.7-0.9,1.6C51.1,107.3,51.5,107.3,51.5,107.1L51.5,107.1z"/>
<path class="st25" d="M52.8,107.9c0-0.7,0.2-1.4,0.7-1.9c0.1-0.2-0.1-0.4-0.2-0.2c-0.6,0.6-0.8,1.3-0.8,2.1
	C52.5,108.1,52.8,108.1,52.8,107.9L52.8,107.9z"/>
<path class="st25" d="M55.7,111.9c-0.3-0.2-0.2-0.7,0.1-1c0.4-0.3,0.9,0,1,0.4c0.2,0.4-0.1,0.9-0.5,1.1c-0.2,0.1-0.4,0.1-0.6,0.1
	c-0.1,0-0.2,0-0.3-0.1s-0.2-0.2-0.2-0.2c0.2,0,0.2-0.4,0-0.3c-0.3,0-0.4,0.3-0.2,0.5c0.1,0.3,0.5,0.4,0.8,0.4c0.8,0,1.6-0.6,1.5-1.4
	c-0.1-0.7-0.9-1.3-1.5-0.9s-0.7,1.2-0.1,1.6C55.7,112.3,55.8,112,55.7,111.9L55.7,111.9z"/>
<path class="st25" d="M34.3,70.5c0.7,1.1,0.5,2.7-0.6,3.5s-2.7,0.7-3.6-0.2c-0.9-1-1-2.6,0-3.6c1.6-1.6,3.9,0.4,2.7,2.2
	c-0.1,0.2,0.2,0.4,0.3,0.2c1-1.4,0.1-3.4-1.8-3.3c-1.9,0.1-2.6,2.3-2,3.8c0.6,1.6,2.4,2.3,3.9,1.6c1.7-0.7,2.2-2.9,1.3-4.4
	C34.5,70.2,34.2,70.3,34.3,70.5L34.3,70.5z"/>
<path class="st25" d="M50.2,114.9c0.9,0.7,2.2,0.4,2.6-0.6c0.1-0.1-0.1-0.2-0.2-0.2c-0.9,0-1.9,0-2.8,0c-0.2,0-0.2,0.3,0,0.3
	c0.9,0,1.9,0,2.8,0c-0.1-0.1-0.1-0.1-0.2-0.2c-0.3,0.8-1.4,1-2,0.5C50.3,114.5,50,114.8,50.2,114.9L50.2,114.9z"/>
<path class="st25" d="M46.7,59.1c1.6,2.6,1,6.3-1.7,7.9c-2.6,1.6-6.2,0.9-7.8-1.7c-1.5-2.5-1.1-6.1,1.6-7.6c1.6-0.9,3.7-0.5,4.8,0.9
	c1.2,1.4,1,3.3,0,4.8c-0.1,0.2,0.2,0.4,0.3,0.2c2-2.8,0.1-6.9-3.5-6.7s-5.1,4.6-4,7.6c1.2,3.2,5,4.7,8.1,3.3
	c3.3-1.5,4.3-5.7,2.5-8.7C46.9,58.7,46.5,58.9,46.7,59.1L46.7,59.1z"/>
<path class="st25" d="M46.1,44.3c0.7,1.1,0.5,2.6-0.5,3.4c-1,0.8-2.5,0.7-3.4-0.2s-0.9-2.5,0-3.5c1.5-1.5,3.7,0.4,2.5,2.2
	c-0.1,0.2,0.2,0.4,0.3,0.2c0.9-1.4,0.1-3.3-1.7-3.2s-2.5,2.2-1.9,3.7s2.3,2.2,3.8,1.6c1.7-0.7,2.2-2.7,1.3-4.2
	C46.3,44,46,44.1,46.1,44.3L46.1,44.3z"/>
<path class="st25" d="M50.2,33.2c0.4,0.6,0.3,1.4-0.3,1.9c-0.6,0.4-1.4,0.4-1.9-0.1s-0.5-1.4,0-1.9c0.8-0.8,2,0.2,1.4,1.2
	c-0.1,0.2,0.2,0.4,0.3,0.2c0.6-0.8,0-2-1.1-2c-1.1,0.1-1.5,1.3-1.2,2.2c0.4,0.9,1.4,1.3,2.3,0.9c1-0.4,1.3-1.6,0.8-2.5
	C50.4,32.8,50.1,33,50.2,33.2L50.2,33.2z"/>
<path class="st25" d="M59.6,31.8C55.7,30,58,24.1,62,25.6c1.9,0.7,2.7,2.9,1.8,4.7c-0.8,1.7-3,2.2-4.6,1.5C59,31.7,58.8,32,59,32.1
	c1.8,0.8,4.1,0.3,5-1.6c0.9-1.8,0.2-4.2-1.7-5c-4.4-2.1-7.6,4.7-3.1,6.7C59.6,32.1,59.8,31.8,59.6,31.8L59.6,31.8z"/>
<path class="st25" d="M60.1,29.7c-0.9-0.5-0.3-2.1,0.8-1.5c0.5,0.2,0.7,0.8,0.3,1.3c-0.3,0.4-0.9,0.5-1.3,0.2
	c-0.2-0.1-0.4,0.2-0.2,0.3c0.6,0.4,1.4,0.2,1.8-0.4c0.4-0.6,0.1-1.4-0.5-1.7c-0.6-0.3-1.4-0.2-1.6,0.5c-0.2,0.6-0.1,1.3,0.5,1.6
	C60.1,30,60.3,29.7,60.1,29.7L60.1,29.7z"/>
<path class="st25" d="M50,53.2c-2.1-0.9-0.9-4.1,1.3-3.3c1,0.4,1.4,1.6,1,2.5s-1.6,1.2-2.5,0.8c-0.2-0.1-0.4,0.2-0.2,0.3
	c1.1,0.5,2.4,0.2,2.9-0.9c0.5-1.1,0.1-2.4-1-2.9s-2.4-0.1-2.9,1s0,2.4,1.1,2.9C50,53.7,50.2,53.3,50,53.2L50,53.2z"/>
<path class="st25" d="M50.3,52.1c-0.4-0.2-0.1-1,0.4-0.7c0.2,0.1,0.3,0.4,0.2,0.6C50.8,52.2,50.5,52.2,50.3,52.1
	C50,52,49.8,52.3,50,52.4c0.4,0.2,0.9,0.1,1.1-0.2c0.2-0.4,0.1-0.9-0.3-1.1c-0.4-0.2-0.9-0.1-1,0.3c-0.2,0.4-0.1,0.8,0.3,1
	C50.3,52.5,50.5,52.2,50.3,52.1L50.3,52.1z"/>
<path class="st25" d="M71,22.2c-2.1-0.9-0.9-4.1,1.3-3.3c1,0.4,1.4,1.6,1,2.5s-1.6,1.2-2.5,0.8c-0.2-0.1-0.4,0.2-0.2,0.3
	c1.1,0.5,2.4,0.2,2.9-0.9s0.1-2.4-1-2.9s-2.4-0.1-2.9,1s0,2.4,1.1,2.9C71,22.6,71.2,22.3,71,22.2L71,22.2z"/>
<path class="st25" d="M71.3,21c-0.4-0.2-0.1-1,0.4-0.7c0.2,0.1,0.3,0.4,0.2,0.6C71.8,21.1,71.5,21.1,71.3,21s-0.4,0.2-0.2,0.3
	c0.4,0.2,0.9,0.1,1.1-0.2c0.2-0.4,0.1-0.9-0.3-1.1s-0.9-0.1-1,0.3c-0.2,0.4-0.1,0.8,0.3,1C71.3,21.4,71.5,21.1,71.3,21L71.3,21z"/>
<path class="st25" d="M65.2,117.9c2.9,0.3,5.7,0.4,8.6,0.1c0.2,0,0.2-0.4,0-0.3c-2.9,0.2-5.7,0.2-8.6-0.1
	C64.9,117.5,64.9,117.8,65.2,117.9L65.2,117.9z"/>
<path class="st25" d="M81.3,117.7c6.1,1.1,12.3,0.7,18.5,0.4c6.4-0.4,12.7-0.5,19.1-0.2c0.2,0,0.2-0.3,0-0.3
	c-6.2-0.2-12.4-0.1-18.6,0.2c-6.3,0.4-12.7,0.9-18.9-0.3C81.2,117.4,81.1,117.7,81.3,117.7L81.3,117.7z"/>
<path class="st25" d="M53.1,125.5c0.2,0.6,0.4,1.3,1,1.7c0.9,0.5,2.1-0.2,2.9-0.3c1.4-0.2,4.2,0.1,3.8-2.1c0-0.2-0.4-0.1-0.3,0.1
	c0.3,1.8-2.6,1.5-3.5,1.7c-0.5,0.1-1,0.4-1.5,0.3c-0.6-0.2-1.1-0.3-1.7-0.5c-0.2-0.3-0.3-0.6-0.4-0.9
	C53.3,125.2,53,125.3,53.1,125.5L53.1,125.5z"/>
<path class="st25" d="M52.5,116.5c0.6-0.2,1.2-0.2,1.7,0.2c0.2,0.1,0.4-0.2,0.2-0.3c-0.6-0.4-1.3-0.4-2-0.2
	C52.2,116.2,52.3,116.5,52.5,116.5L52.5,116.5z"/>
<path class="st25" d="M47.7,117c-0.3,0.1-0.5,0.3-0.7,0.6c-0.1,0.1-0.1,0.2,0.1,0.3c1.9,0.5,3.9,0.5,5.8,0c0.2-0.1,0.1-0.4-0.1-0.3
	c-1.9,0.5-3.7,0.5-5.6,0c0,0.1,0.1,0.2,0.1,0.3c0.2-0.2,0.4-0.3,0.6-0.5C48,117.3,47.9,117,47.7,117L47.7,117z"/>
<path class="st25" d="M54.7,126c1,0,2-0.1,3.1-0.1c0.5,0,1.2,0.1,1.6-0.4c0.4-0.4,0-1.2-0.6-0.9c-0.2,0.1,0,0.4,0.2,0.3
	c0.1,0.4-0.1,0.6-0.4,0.6c-0.2,0-0.4,0-0.6,0c-0.4,0-0.7,0-1.1,0.1c-0.7,0-1.4,0.1-2.2,0.1C54.5,125.7,54.5,126,54.7,126L54.7,126z"
	/>
<path class="st25" d="M39.3,62.9c-0.3-0.5,0.2-1.1,0.7-0.7c0.2,0.2,0.2,0.5,0,0.7C39.8,63.1,39.5,63.1,39.3,62.9
	c-0.1-0.1-0.4,0.2-0.2,0.3c0.3,0.3,0.8,0.2,1.1,0c0.4-0.3,0.3-0.8,0.1-1.1c-0.3-0.3-0.8-0.4-1.2-0.1c-0.3,0.3-0.4,0.8-0.1,1.1
	C39.1,63.3,39.4,63.1,39.3,62.9L39.3,62.9z"/>
<path class="st25" d="M29.6,68.5c-0.4-0.1-0.1-0.6,0.1-0.6c0.3-0.1,0.6,0.1,0.7,0.3c0.3,0.6-0.6,0.7-0.6,0.3
	C29.9,68.3,29.5,68.3,29.6,68.5c-0.1,0.5,0.4,0.7,0.8,0.6c0.5-0.1,0.6-0.7,0.3-1.1c-0.3-0.4-0.9-0.6-1.4-0.3c-0.4,0.3-0.3,1,0.2,1.1
	C29.7,68.8,29.8,68.5,29.6,68.5L29.6,68.5z"/>
<path class="st25" d="M52.8,27.7c0-0.3,0.2-0.6,0.6-0.6c-0.1,0-0.1,0-0.2-0.1c0.2,0.2,0.4,0.5,0.4,0.8c0,0.1-0.1,0.3-0.2,0.3
	c-0.2,0.1-0.4,0-0.3-0.2C53.2,27.7,52.9,27.6,52.8,27.7c-0.1,0.5,0.2,0.8,0.6,0.8c0.4,0,0.6-0.5,0.6-0.9c0-0.2-0.1-0.5-0.3-0.6
	c-0.1-0.2-0.2-0.4-0.5-0.3c-0.4,0.1-0.8,0.5-0.8,0.9C52.5,27.9,52.8,27.9,52.8,27.7L52.8,27.7z"/>
<path class="st25" d="M79,16.3c-0.1-0.1,0-0.2,0.1-0.2s0.2,0.1,0.3,0.1c0.1,0.1,0.2,0.3,0.1,0.5c0,0.1-0.1,0.3-0.3,0.3
	c-0.1,0-0.3-0.2-0.3-0.3c0.1-0.2-0.2-0.4-0.3-0.2c-0.2,0.4,0.1,0.7,0.5,0.8c0.4,0.1,0.7-0.3,0.7-0.7c0-0.4-0.2-0.9-0.7-0.9
	c-0.4-0.1-0.8,0.4-0.6,0.7C78.8,16.7,79.1,16.5,79,16.3L79,16.3z"/>
<path class="st25" d="M49.3,73.5c-0.1-0.2,0.1-0.5,0.3-0.6s0.4,0.1,0.5,0.3c0.2,0.5-0.5,0.7-0.8,0.4c-0.1-0.2-0.4,0.1-0.2,0.2
	c0.2,0.3,0.7,0.4,1,0.2c0.4-0.2,0.5-0.6,0.3-1s-0.6-0.6-0.9-0.4c-0.4,0.1-0.6,0.6-0.6,1C49.1,73.8,49.4,73.7,49.3,73.5L49.3,73.5z"
	/>
<path class="st25" d="M27,54c0-0.3,0.3-0.5,0.5-0.5c0.3,0,0.5,0.2,0.5,0.5c0,0.7-0.9,0.7-1.1,0.1c-0.1-0.2-0.4-0.1-0.3,0.1
	c0.1,0.4,0.6,0.7,1,0.7c0.4-0.1,0.7-0.5,0.7-0.9s-0.4-0.8-0.8-0.8s-0.9,0.4-0.9,0.8C26.6,54.2,27,54.2,27,54L27,54z"/>
<path class="st25" d="M76.6,124.4c0.2,0.3,0.5,0.5,0.9,0.5c0.3,0,0.7-0.2,0.9-0.5c0.1-0.4-0.4-0.8-0.7-0.8c-0.5,0-0.8,0.4-0.9,0.8
	c0,0.2,0.3,0.2,0.3,0c0-0.3,0.4-0.6,0.6-0.4c0.2,0.1,0.3,0.3,0.1,0.5c-0.3,0.2-0.7,0.1-0.9-0.2C76.8,124,76.5,124.2,76.6,124.4
	L76.6,124.4z"/>
<path class="st25" d="M99.7,121.4c0.1-0.5,0.7-0.7,1.1-0.2c0.1,0.1,0.1,0.1,0,0.2s-0.2,0.1-0.2,0.1c-0.2,0.1-0.4,0-0.6-0.1
	s-0.4,0.2-0.2,0.3c0.3,0.2,0.7,0.2,1,0.1c0.1-0.1,0.3-0.2,0.4-0.3c0.1-0.2-0.1-0.4-0.2-0.5c-0.5-0.7-1.6-0.3-1.6,0.5
	C99.3,121.6,99.6,121.6,99.7,121.4L99.7,121.4z"/>
<path class="st25" d="M90,33c0.5-0.4,0.9-0.6,1.6-0.6c-0.1-0.1-0.1-0.2-0.1-0.2c-0.5,0.7-1.1,1.2-2,1.4c0.1,0.1,0.1,0.2,0.1,0.3
	c1.7-1.3,3.6-2.5,5.6-3.4c-0.1-0.1-0.1-0.2-0.2-0.3c-1.4,1.5-3,2.7-4.9,3.5c0.1,0.1,0.1,0.2,0.1,0.3c0.4-0.2,0.7-0.4,1.2-0.4
	c0.1,0,1.3-0.1,0.3,0.2c0,0.1,0.1,0.2,0.1,0.3c0.9-0.3,1.8-0.7,2.7-1c0.2-0.1,0.1-0.4-0.1-0.3c-0.9,0.3-1.8,0.7-2.7,1
	c-0.2,0.1-0.1,0.4,0.1,0.3c0.4-0.1,0.6-0.3,0.8-0.7c0.1-0.1-0.1-0.2-0.2-0.2c-0.9-0.1-1.6,0.1-2.4,0.5c-0.2,0.1-0.1,0.4,0.1,0.3
	c1.9-0.8,3.6-2,5-3.6c0.1-0.1,0-0.4-0.2-0.3c-2,0.9-3.8,2.1-5.6,3.4c-0.1,0.1-0.1,0.4,0.1,0.3c0.9-0.2,1.7-0.7,2.2-1.6
	c0.1-0.1,0-0.2-0.1-0.2c-0.7,0-1.3,0.2-1.8,0.7C89.6,32.9,89.9,33.2,90,33L90,33z"/>
<path class="st26" d="M78.9,32.9c2.3-1.3,4.6-2.7,6.9-4c-0.1-0.1-0.1-0.2-0.2-0.3c-1.6,1-3.1,2.2-4.4,3.5c-0.1,0.1,0,0.4,0.2,0.3
	c1.6-0.6,3.1-1.2,4.5-2.1c-0.1-0.1-0.2-0.1-0.2-0.2c-0.1,0.2-0.1,0.5-0.2,0.7c0,0.1,0.1,0.2,0.2,0.2c0.5-0.2,1-0.4,1.5-0.6
	c-0.1-0.1-0.1-0.2-0.2-0.3c-0.3,0.3-0.6,0.6-0.7,1c-0.1,0.1,0.1,0.3,0.2,0.2c0.7-0.2,1.4-0.4,2-0.7c0.2-0.1,0.1-0.4-0.1-0.3
	c-0.7,0.2-1.4,0.4-2,0.7c0.1,0.1,0.1,0.2,0.2,0.2c0.2-0.4,0.4-0.7,0.7-0.9c0.2-0.1,0-0.4-0.2-0.3c-0.4,0.2-1.2,0.9-1.1,0.1
	c0-0.1-0.1-0.3-0.2-0.2c-1.4,0.9-2.9,1.5-4.5,2.1c0.1,0.1,0.1,0.2,0.2,0.3c1.4-1.3,2.8-2.5,4.4-3.5c0.2-0.1,0-0.4-0.2-0.3
	c-2.3,1.3-4.6,2.7-6.9,4C78.5,32.7,78.7,33,78.9,32.9L78.9,32.9z"/>
<path class="st26" d="M91.1,31.2c2-0.1,3.9,0,5.8,0.4c0.2,0,0.3-0.3,0.1-0.3c-2-0.4-3.9-0.5-5.9-0.4C90.9,30.8,90.9,31.2,91.1,31.2
	L91.1,31.2z"/>
<path class="st26" d="M86.3,27.3c0.6-0.2,2.6-1,2.8-0.3c0,0.1,0.1,0.1,0.2,0.1c0.8-0.2,1.6-0.4,2.4-0.6c-0.1-0.1-0.1-0.2-0.2-0.2
	c-0.2,0.4-0.3,0.7-0.3,1.2c0,0.1,0.1,0.2,0.2,0.2c0.9-0.2,1.9-0.5,2.8-0.9c-0.1-0.1-0.2-0.1-0.2-0.2c-0.1,0.2-0.2,0.4-0.2,0.6
	c0,0.1,0,0.2,0.1,0.2c0.5,0.4,0.9,0.1,1.4,0c1.2-0.2,2.7,0.4,3.8,0.8c0.2,0.1,0.3-0.3,0.1-0.3c-1-0.3-2-0.7-3-0.9
	c-0.6-0.1-0.5,0-1,0c-0.4,0-1.1,0.4-0.8-0.3c0.1-0.2-0.1-0.2-0.2-0.2c-0.5,0.2-1,0.4-1.5,0.6c-0.4,0.1-1.1,0.6-0.7-0.5
	c0.1-0.1,0-0.3-0.2-0.2c-0.6,0.1-2.1,0.9-2.3,0.1c0-0.1-0.1-0.1-0.2-0.1c-0.9,0.2-1.9,0.5-2.8,0.8C86,27,86.1,27.4,86.3,27.3
	L86.3,27.3z"/>
<path class="st26" d="M95.8,24.8c1.9,0.1,3.7,0.3,5.4,0.8c0.2,0.1,0.3-0.2,0.1-0.3c-0.1-0.1-0.3-0.1-0.4-0.1
	c-0.2-0.1-0.3,0.2-0.1,0.3c0.1,0.1,0.3,0.1,0.4,0.1c0-0.1,0.1-0.2,0.1-0.3c-1.8-0.5-3.7-0.8-5.5-0.8C95.6,24.5,95.6,24.8,95.8,24.8
	L95.8,24.8z"/>
<path class="st26" d="M62.3,65.4c4.7-0.7,9.4-0.6,14.1-1.1c4.4-0.4,8.8-1.3,13.1-2.1c4.4-0.8,9.2-1.7,13.6-1.4
	c1.3,0.1,2.7,0.5,3.4,1.7c1.1,2.1-0.9,3-2.5,3.5c-2.1,0.7-4.2,1.3-6.4,1.8c-5,1.3-10.2,2.4-15.3,3.1c-0.2,0-0.1,0.4,0.1,0.3
	c5.3-0.8,10.6-1.9,15.8-3.3c2.4-0.6,4.9-1.2,7.2-2.1c1.3-0.6,2.1-1.7,1.6-3.2c-0.6-1.4-2-2-3.4-2.2c-2.5-0.3-5.1,0.1-7.6,0.3
	c-5.2,0.6-10.3,1.7-15.5,2.5c-6.1,0.9-12.3,0.8-18.4,1.6C62,65.1,62.1,65.5,62.3,65.4L62.3,65.4z"/>
<path class="st26" d="M70.4,73.2c2.6-0.3,5.1-0.7,7.6-1.4c0.2-0.1,0.1-0.4-0.1-0.3c-2.5,0.6-5,1.1-7.5,1.4
	C70.1,72.9,70.1,73.2,70.4,73.2L70.4,73.2z"/>
<path class="st25" d="M99.1,46.8c-2.4-0.7-5.1-0.2-7.6,0.1c-2.8,0.3-5.5,0.7-8.3,1c-2.8,0.4-5.5,0.7-8.3,1.1
	c-1.3,0.2-2.5,0.3-3.8,0.5c-0.8,0.1-4.5,1.1-4.8-0.1c-0.1,0.1-0.2,0.3-0.3,0.4c1.2-0.1,2.5-0.2,3.7-0.2c0-0.2-0.1-0.4-0.1-0.7
	c-1.2,0.2-2.4,0.4-3.5,0.2c0,0.2-0.1,0.4-0.1,0.7c10.7-0.6,21.5-1.9,32.1-3.7c0.4-0.1,0.2-0.7-0.2-0.7c-10.5,1.8-21.2,3.1-31.9,3.7
	c-0.4,0-0.5,0.6-0.1,0.7c1.3,0.2,2.6,0,3.9-0.2c0.4-0.1,0.3-0.7-0.1-0.7c-1.2,0-2.5,0.1-3.7,0.2c-0.2,0-0.4,0.2-0.3,0.4
	c0.5,2,2.8,1,4.3,0.7c3.3-0.4,6.7-0.9,10.1-1.4c3.1-0.4,6.2-0.8,9.3-1.2c3-0.4,6.6-1.2,9.6-0.3C99.4,47.6,99.6,46.9,99.1,46.8
	L99.1,46.8z"/>
<path class="st25" d="M66.8,54.8c6.6-0.7,13.1-1.4,19.7-2.1c3.2-0.3,6.4-0.6,9.6-0.9c1.7-0.2,3.7-0.3,4.4-2.1
	c0.2-0.4-0.4-0.7-0.6-0.4c-0.9,2.2-4.9,1.8-6.9,2c-2.9,0.3-5.8,0.6-8.7,0.9c-5.8,0.6-11.7,1.2-17.5,1.9
	C66.4,54.1,66.4,54.8,66.8,54.8L66.8,54.8z"/>
<path class="st26" d="M123.3,39.5c-0.8,0.3-1.1,0.7-1.7,1.4c-0.9,1-1.8,2.1-2.7,3.1c-1.6,2-3.3,3.9-5,5.9c-0.8,0.9-2,1.9-2.7,2.9
	c-0.5,0.8-1,1.4-1.7,2.1c-1.2,1.2-2.3,2.7-2.6,4.3c-0.2,1.4,0.3,3.2,1.5,4c1.1,0.7,2.2-0.1,2.9-0.9c3.2-4.1,6.4-8.3,9.6-12.4
	c0.9-1.1,1.7-2.2,2.6-3.3c0.7-0.9,1.5-1.8,1.7-2.9c0.3-1.7-0.6-3.2-2.1-3.9c-0.2-0.1-0.4,0.2-0.2,0.3c1.2,0.6,2,1.6,1.9,3
	s-1.2,2.7-2,3.7c-1.6,2-3.1,4.1-4.7,6.1c-1.4,1.7-2.8,3.5-4.1,5.3c-0.7,1-1.5,2-2.2,3c-0.4,0.6-0.9,1.4-1.5,1.8
	c-1.1,0.7-1.9-0.1-2.5-1c-1.3-2.3,0.2-4.7,1.7-6.4c0.5-0.6,1.2-1,1.6-1.6c0.7-0.9,1.3-1.8,2.1-2.7c1.6-1.8,3.2-3.6,4.7-5.5
	c0.8-0.9,1.5-1.8,2.3-2.7c0.8-1,1.8-2.6,3.1-3.1C123.6,39.7,123.6,39.4,123.3,39.5L123.3,39.5z"/>
<path class="st25" d="M100.9,46.1c0.2,0.7,0.5,1.5,0.9,2.1c0.2,0.4,0.8,0,0.6-0.4c-0.4-0.6-0.6-1.2-0.8-1.9
	C101.5,45.5,100.8,45.7,100.9,46.1L100.9,46.1z"/>
<path class="st25" d="M101.8,45.7c0.3,0.6,0.6,1.2,0.8,1.9c0.2,0.4,0.8,0.1,0.6-0.4c-0.3-0.6-0.6-1.2-0.8-1.9
	C102.2,45,101.6,45.3,101.8,45.7L101.8,45.7z"/>
<path class="st25" d="M103,44.9c0.3,0.6,0.6,1.2,0.9,1.7c0.2,0.4,0.8,0,0.6-0.4c-0.3-0.6-0.6-1.1-0.9-1.7
	C103.4,44.1,102.8,44.5,103,44.9L103,44.9z"/>
<path class="st25" d="M99.8,46.5c1.1-0.8,2.2-1.5,3.5-1.9c0.4-0.1,0.2-0.8-0.2-0.7c-1.3,0.5-2.5,1.1-3.7,2
	C99.1,46.1,99.5,46.8,99.8,46.5L99.8,46.5z"/>
<path class="st25" d="M101.8,49c0.8-0.7,1.7-1.4,2.7-1.9c0.4-0.2,0-0.8-0.4-0.6c-1,0.6-1.9,1.2-2.8,2
	C100.9,48.8,101.4,49.3,101.8,49L101.8,49z"/>
<path class="st25" d="M105.5,42.5c-0.1,0.8,0.3,1.6,1,2c0.2,0.1,0.5,0,0.5-0.2c0.1-0.6,0.2-1.2,0.4-1.8c-0.2,0.1-0.4,0.1-0.6,0.2
	c0.2,0.2,0.4,0.5,0.6,0.7s0.4,0.1,0.6-0.1c0.1-0.2,0.2-0.4,0.2-0.7c-0.1-0.4-0.7-0.4-0.7,0c0,0.1,0,0.2-0.1,0.3
	c0.2,0,0.4-0.1,0.6-0.1c-0.2-0.2-0.4-0.5-0.6-0.7s-0.5-0.1-0.6,0.2c-0.1,0.6-0.2,1.2-0.4,1.8c0.2-0.1,0.3-0.1,0.5-0.2
	c-0.5-0.3-0.7-0.9-0.7-1.4C106.2,42.1,105.5,42.1,105.5,42.5L105.5,42.5z"/>
<path class="st25" d="M108.1,41.7c0,0.6,0.6,0.9,1.1,0.7c0.7-0.3,0.6-1.1,0.3-1.6c-0.2,0.2-0.3,0.3-0.5,0.5c0.1,0.1,0.3,0.2,0.4,0.3
	c0.2,0.1,0.5,0,0.5-0.2c0.1-0.4,0.3-0.7,0.7-0.8c0.4-0.1,0.2-0.8-0.2-0.7c-0.6,0.2-1.1,0.7-1.2,1.3c0.2-0.1,0.3-0.1,0.5-0.2
	c-0.1-0.1-0.3-0.2-0.4-0.3c-0.3-0.2-0.6,0.2-0.5,0.5c0.1,0.2,0.2,0.4,0.1,0.5c0,0.1-0.1,0.1-0.1,0.1c-0.1,0-0.1,0-0.1-0.1
	C108.8,41.2,108.1,41.2,108.1,41.7L108.1,41.7z"/>
<path class="st25" d="M112.1,39.1c0.2-0.2,0.4-0.4,0.7-0.5c0.1-0.1,0.1-0.4,0-0.5s-0.3-0.1-0.5,0c-0.2,0.2-0.4,0.4-0.7,0.5
	c-0.1,0.1-0.1,0.4,0,0.5C111.8,39.3,112,39.2,112.1,39.1L112.1,39.1z"/>
<path class="st25" d="M114.4,37.3c0.2-0.1,0.3-0.2,0.5-0.3s0.2-0.3,0.1-0.5s-0.3-0.2-0.5-0.1c-0.2,0.1-0.3,0.2-0.5,0.3
	s-0.2,0.3-0.1,0.5C114,37.3,114.2,37.4,114.4,37.3L114.4,37.3z"/>
<path class="st25" d="M116.3,36.1c0.1,0,0.1,0,0.2,0c0.2,0,0.3-0.2,0.2-0.4c-0.1-0.2-0.2-0.3-0.4-0.2c-0.1,0-0.1,0-0.2,0
	c-0.2,0-0.3,0.2-0.2,0.4C115.9,36.1,116.1,36.1,116.3,36.1L116.3,36.1z"/>
<path class="st25" d="M117.7,34.7c0.1,0.1,0.1,0.1,0.2,0.2c0.3,0.3,0.8-0.2,0.5-0.5c-0.1-0.1-0.1-0.1-0.2-0.2
	C117.8,33.9,117.4,34.4,117.7,34.7L117.7,34.7z"/>
<path class="st25" d="M108.8,58.9c0.3,0.6,0.7,1.2,1,1.9c0.2,0.4,0.8,0.1,0.6-0.4c-0.3-0.6-0.7-1.2-1-1.9
	C109.2,58.1,108.6,58.5,108.8,58.9L108.8,58.9z"/>
<path class="st25" d="M108.8,59.3c0.2-0.4,0.5-0.8,0.9-1.1c0.4-0.2,0-0.9-0.4-0.6c-0.6,0.4-0.9,0.9-1.2,1.5
	C107.9,59.5,108.6,59.7,108.8,59.3L108.8,59.3z"/>
<path class="st25" d="M110.1,62.2c0.3-0.6,0.6-1.1,0.9-1.7c0.2-0.4-0.4-0.7-0.6-0.4c-0.3,0.6-0.6,1.1-0.9,1.7
	C109.3,62.3,109.9,62.6,110.1,62.2L110.1,62.2z"/>
<path class="st25" d="M112.1,57.3c0.1-0.1,0.1-0.1,0.2-0.2c0.3-0.3-0.2-0.8-0.5-0.5c-0.1,0.1-0.1,0.1-0.2,0.2
	C111.3,57.1,111.8,57.6,112.1,57.3L112.1,57.3z"/>
<path class="st25" d="M113.3,54.8c-0.2-0.3-0.2-0.7,0-1c-0.2,0-0.4,0.1-0.6,0.1c0.3,0.2,0.6,0.5,0.9,0.8c0.1,0.1,0.3,0.1,0.4,0.1
	c0.4-0.3,0.6-0.7,0.5-1.2c-0.1-0.4-0.8-0.2-0.7,0.2c0.1,0.2,0,0.3-0.1,0.4c0.1,0,0.3,0,0.4,0.1c-0.3-0.2-0.6-0.5-0.9-0.8
	c-0.2-0.1-0.4-0.1-0.6,0.1c-0.3,0.5-0.3,1.2,0,1.7C112.9,55.6,113.5,55.2,113.3,54.8L113.3,54.8z"/>
<path class="st25" d="M115.9,52.2c0.1-0.1,0.1-0.1,0.2-0.2c0.3-0.3-0.2-0.8-0.5-0.5c-0.1,0.1-0.1,0.1-0.2,0.2
	C115.1,52,115.6,52.5,115.9,52.2L115.9,52.2z"/>
<path class="st25" d="M118.2,49.9c0.2-0.7,0.3-1.5,0.2-2.2c-0.2,0.1-0.4,0.1-0.6,0.2c0.2,0.4,0.5,0.6,0.8,0.9c0.2,0.1,0.4,0,0.5-0.2
	s0.2-0.5,0.2-0.7c-0.2,0.1-0.4,0.1-0.6,0.2c0.5,0.6,1.5,0.2,1.5-0.6c0-0.4-0.7-0.4-0.7,0c0,0.2-0.2,0.2-0.3,0.1
	c-0.2-0.2-0.5-0.1-0.6,0.2c-0.1,0.2-0.2,0.5-0.2,0.7c0.2-0.1,0.3-0.1,0.5-0.2c-0.2-0.2-0.4-0.4-0.6-0.6c-0.2-0.3-0.7-0.2-0.6,0.2
	c0.1,0.7,0,1.4-0.2,2C117.4,50.1,118.1,50.3,118.2,49.9L118.2,49.9z"/>
<path class="st25" d="M119.8,47.1c0.1,0,0.1,0,0.2,0c0.4,0,0.4-0.7,0-0.7c-0.1,0-0.1,0-0.2,0C119.3,46.4,119.3,47.1,119.8,47.1
	L119.8,47.1z"/>
<path class="st25" d="M121.2,46c0.1-0.1,0.1-0.1,0.2-0.2c0.3-0.3-0.2-0.8-0.5-0.5c-0.1,0.1-0.1,0.1-0.2,0.2
	C120.4,45.8,120.9,46.3,121.2,46L121.2,46z"/>
<path class="st25" d="M122.6,44.5c0.1-0.1,0.1-0.1,0.2-0.2c0.1-0.1,0.1-0.4,0-0.5s-0.4-0.1-0.5,0s-0.1,0.1-0.2,0.2
	c-0.1,0.1-0.1,0.4,0,0.5S122.4,44.6,122.6,44.5L122.6,44.5z"/>
<path class="st25" d="M92.6,24.2c0,0.1,0,0.1,0,0.1C92.6,24.3,92.6,24.3,92.6,24.2C92.6,24.3,92.6,24.3,92.6,24.2
	C92.6,24.3,92.6,24.3,92.6,24.2C92.6,24.3,92.6,24.3,92.6,24.2C92.6,24.3,92.6,24.3,92.6,24.2c0.1,0.2,0.4,0.1,0.4,0
	c0.1-0.2,0-0.4-0.1-0.5c-0.2-0.1-0.5-0.1-0.7,0c-0.2,0.2-0.3,0.4-0.3,0.7c0,0.2,0.2,0.3,0.4,0.2C92.6,24.6,92.6,24.4,92.6,24.2
	L92.6,24.2z"/>
<path class="st25" d="M94.8,24.5c0.4,0,0.4-0.7,0-0.7S94.4,24.5,94.8,24.5L94.8,24.5z"/>
<path class="st25" d="M75.1,58.2c0.4,0,0.4-0.7,0-0.7C74.6,57.5,74.6,58.2,75.1,58.2L75.1,58.2z"/>
<path class="st25" d="M80.4,57.6c0.1,0.1,0.1,0.1,0.2,0.2c0.3,0.3,0.8-0.2,0.5-0.5c-0.1-0.1-0.1-0.1-0.2-0.2
	C80.6,56.8,80.1,57.3,80.4,57.6L80.4,57.6z"/>
<path class="st25" d="M90.9,57c0.1,0,0.1,0,0.2,0c0.4,0,0.4-0.7,0-0.7c-0.1,0-0.1,0-0.2,0C90.5,56.3,90.5,57,90.9,57L90.9,57z"/>
<path class="st25" d="M101.4,54.8c-0.1,0.2-0.1,0.3,0.1,0.5c0.1,0.1,0.2,0.1,0.3,0.1c0.3,0,0.5-0.3,0.4-0.6
	c-0.1-0.2-0.3-0.2-0.5-0.1c-0.2,0.1-0.2,0.3-0.1,0.5l0,0c0-0.1,0-0.1-0.1-0.2l0,0c0-0.1,0-0.1,0.1-0.2c0.2-0.2,0.3-0.2,0.5,0
	c0,0.1,0,0.1,0.1,0.2l0,0c0,0.1,0,0.1-0.1,0.2l0,0c0.1-0.2,0.1-0.4-0.1-0.5C101.8,54.6,101.5,54.7,101.4,54.8L101.4,54.8z"/>
<path class="st25" d="M86.1,57.3c0.1-0.1,0.2-0.1,0.3-0.2c0.2-0.1,0.2-0.3,0.1-0.5s-0.3-0.2-0.5-0.1c-0.1,0.1-0.2,0.1-0.3,0.2
	c-0.2,0.1-0.2,0.3-0.1,0.5S85.9,57.4,86.1,57.3L86.1,57.3z"/>
<path class="st25" d="M88.4,84.5c-0.7,0.6-1.7,1.7-1.1,2.7c0.7,1.1,2.6,1.4,3.7,1.7c0.2,0,0.3-0.3,0.1-0.3c-0.9-0.2-1.9-0.5-2.8-0.9
	c-1.5-0.8-0.6-2.1,0.3-2.9C88.8,84.6,88.5,84.3,88.4,84.5L88.4,84.5z"/>
<path class="st25" d="M106.3,24.9c-0.1-0.2-0.2-0.4-0.2-0.6c0-0.1-0.1-0.2,0-0.2s0.2,0.1,0.2,0.2c0.1,0.1,0.2,0.3,0.3,0.4
	C106.6,24.9,106.5,25.1,106.3,24.9c-0.2,0.1-0.2,0.4,0,0.4c0.3,0,0.6-0.2,0.6-0.5c0.1-0.3-0.1-0.6-0.4-0.9c-0.2-0.2-0.5-0.4-0.8-0.1
	c-0.1,0.1-0.1,0.3-0.1,0.4c0.1,0.2,0.2,0.5,0.3,0.7C106,25.2,106.4,25.1,106.3,24.9L106.3,24.9z"/>
<path class="st26" d="M100.1,81.1c1.5,0.8,2.2,3.3,1.6,4.8c-0.1,0.4,0.5,0.6,0.7,0.2c0.6-1.8-0.2-4.6-1.9-5.6
	C100.1,80.3,99.7,80.9,100.1,81.1L100.1,81.1z"/>
<path class="st25" d="M51.8,114.2c0.3-1.3,0.6-2.5,0.8-3.8c-0.1,0-0.2-0.1-0.3-0.1c-0.2,1.4-0.4,2.9-0.6,4.3
	c-0.1,0.9-0.2,1.7,0.2,2.6c0.1,0.1,0.3,0.1,0.3,0c0.8-2.4,1.4-4.8,1.7-7.4c0-0.2-0.3-0.2-0.3,0c-0.3,2.5-0.9,4.9-1.7,7.3
	c0.1,0,0.2,0,0.3,0c-0.5-1.2-0.1-2.6,0.1-3.8c0.1-0.9,0.2-1.9,0.4-2.8c0-0.2-0.3-0.3-0.3-0.1c-0.3,1.3-0.6,2.5-0.8,3.8
	C51.4,114.4,51.7,114.4,51.8,114.2L51.8,114.2z"/>
<polyline class="st39" points="50.6,109.4 51.6,108.8 53.2,108.8 "/>
<path class="st25" d="M70.5,74.5c0.7-0.1,1.4-0.2,2-0.4c0.4-0.1,0.2-0.8-0.2-0.7c-0.6,0.2-1.2,0.3-1.9,0.4
	C70.1,73.9,70.1,74.6,70.5,74.5L70.5,74.5z"/>
<path class="st25" d="M78.4,73.5c0.5-0.1,0.9-0.1,1.4-0.1c0.4-0.1,0.4-0.7,0-0.7c-0.5,0.1-0.9,0.1-1.4,0.1
	C77.9,72.9,77.9,73.6,78.4,73.5L78.4,73.5z"/>
</svg>
