<?xml version="1.0" encoding="utf-8"?>
<!-- Generator: Adobe Illustrator 24.0.1, SVG Export Plug-In . SVG Version: 6.00 Build 0)  -->
<svg version="1.1" id="Layer_1" xmlns="http://www.w3.org/2000/svg" xmlns:xlink="http://www.w3.org/1999/xlink" x="0px" y="0px"
	 viewBox="0 0 141.7 141.7" style="enable-background:new 0 0 141.7 141.7;" xml:space="preserve">
<style type="text/css">
	.st0{fill:#C8892B;}
	.st1{fill:#D46728;}
	.st2{fill:#CD2027;}
	.st3{fill:#3C833E;}
	.st4{fill:#815622;}
	.st5{fill:#BB6228;}
	.st6{fill:#75CEEB;}
	.st7{fill:#C9B09D;}
	.st8{fill:#FFFFFF;}
	.st9{fill:#4FB848;}
	.st10{fill:#D18D29;}
	.st11{fill:#1B803F;}
	.st12{fill:#EAE958;}
	.st13{fill:#EDE80C;}
	.st14{fill:#994621;}
	.st15{fill:#A2B439;}
	.st16{fill:#070707;}
	.st17{fill:#231F20;}
</style>
<path class="st0" d="M43.1,30l1.3-1.5l2.3-1.8l2.5-1.3l2-0.7c0,0,3.8-0.8,4.1-0.8c0.3,0,3.5-0.6,3.5-0.6l3.3-0.9l2.3-1.1l1-1.2
	l0.8-1.3L65.7,21l-1,2.4l-1.2,1L60.9,26l-3.2,0.8l-2.9,0.5l-3.3,0.5l-4,0.9l-2.2,0.8l-1.9,1.4L43.1,30z"/>
<path class="st1" d="M40.9,33.9l1.6-3.2l0.9-0.3l1.9-1.1l6.8-1.9l6.2-0.8l5.3-2.2l-0.2,1.6l1,1.4l1.4,1.5l0.3,1.9l-0.4,3.2l-0.4,2.4
	c0,0-1.1-8.1-11.4-6.4l-2.4,0.7L48.8,32C48.8,32,45.9,29.1,40.9,33.9z"/>
<path class="st2" d="M70.6,35.8l1.6-3.1l2.2-1.9l2.1-1.1c0,0,2.6-1.3-2.6-4.1l-3.9-1.9l-2-1.3l-1.1-2l-0.8-1.6l-0.4,1.6v1.3
	l-0.9,1.2l-1.4,1.6l-0.2,1.6l0.8,1.1l1.2,1l0.5,1.1l0.3,1l1.5,0.7l1.5,1.1l0.8,1.2L70.6,35.8z"/>
<path class="st3" d="M58,19.3c0.3,0.3,3.5,2.6,3.5,2.6l1.2,0.3l-2.2,0.6L58.6,21L58,19.3z"/>
<polygon class="st4" points="57.2,18.5 57.2,17.1 58.3,17.1 58.6,17.8 57.9,18.5 "/>
<polyline class="st4" points="65.7,15.7 65.8,15.6 66.7,14.7 67.6,14 68.3,13.8 67.9,14.8 67,15.8 65.7,16.3 "/>
<path class="st5" d="M66.5,41.8l0.5-2.1l0.6-2.4l0.6-1.2l1.1-1.3l1-0.4L70,33.4l-0.8-1.2c0,0-0.6-0.5-0.8-0.6
	c-0.2-0.1-1.1-0.7-1.1-0.7l-0.8-0.2l-0.3-0.3v2.2l-0.7,1.8l-0.2,1.4v1.3L66.5,41.8z"/>
<path class="st6" d="M30.8,50.6c0,0-5.3-0.1-7.4-5.3c0,0-1.9-6.5,5.1-10.4c0,0,7.2-2.9,10.8,1.2l2.7-2.4l2.4-1.7l1.9-0.9l2.2,0.6
	l0.2,0.4l2.8-1.3l1.7-0.5l2.8-0.4c0,0,2.5,0,2.5,0.1c0,0.1,2.6,0.9,2.6,0.9l2.1,1.4l1.2,2l0.7,2.3l1.5,5.9l0.5-3l0.6-2.3l0.9-1.4
	l1.4-0.9l0.6,0.8l0.8-1.5l1-1.7l1.6-1.2l1.6-0.9l1.1-0.7l0.3-0.8l-0.5-0.9l-0.6-0.7h2l2.8,0.5l1.3,0.2l1.7,1.7l1.3,2.2l1.6-2.1
	l0.7-0.4l1.9,0.7l6.1,4.1l1.8-0.8l1.9-0.6c0,0,4.7-1.2,6.8-0.2l3,1.8l1.1,1.5l1.1,3.1v3.1l-0.4,2l-0.8,1.6l-1.1,1.6l-2.2,1.5
	l-2.1,0.6l0.7,2.8l0.7,3.9l0.6,3.8l0,0.8h-2.8l-4.5,0.9c0,0-5.3,1.4-5.3,1.5c0,0.1-4.9,1.1-5,1.1c-0.1,0-2.6,0.5-2.6,0.5l2,1.1
	l1.1,1.3l0.5,0.7l-0.6,0.1l1.6,1.4l2.1,0.9l1.9,0.6l-0.6,0.7l-2.7,1l-2.3,0.4L87.2,73l-2.8,0.4l-2.5,0.8l-1.4,0.9l-1.3,1.4l-1.6-2.2
	l-1.7-3.5l-0.4-0.9l-1.9-0.1l-10.9-3.2l-3.4-2l-2.3-2.5c0,0-1.8-1.6-1.9-1.6c0,0.1-1.6-1.3-1.6-1.3l-2-0.4L50.3,59l0.5,1.3l-1.2-0.1
	l-2.2-0.5L44.8,58l-0.5-0.2l0.1,2L43.1,60c0,0-1.6,0.8-1.6,0.8c0,0-2.6,2.4-2.6,2.4l-2.5,1.6l-3.1,0.1L29,64.6l0.7-7.9l1-5
	L30.8,50.6z"/>
<polygon class="st7" points="63,56.8 62.2,57 61.2,57.4 60,58.3 58.9,59.5 58.1,60.6 57.8,61.4 57.8,62.7 58.6,63.8 59.3,64.6 
	60.4,64.8 62.7,65 64.7,64.6 67.1,63.9 69,63.7 70.6,63.8 72.3,64.3 74.1,64.7 75.7,64.7 76.8,64 77.4,63.1 77.5,62 77.4,60.7 
	77,59.6 75.7,58.5 74.5,57.5 73.2,57 72.3,56.5 "/>
<path class="st8" d="M63,65.4l-0.2,1.5c0,0-0.5,3.1,0.7,4.5c0,0,2.1,2.2,3.7,0.2L68,70c0,0,0.7,2.5,2.4,2.2c0,0,2.8-0.1,2.9-2.8
	c0,0-0.1-2.4-0.1-2.5c0-0.1-0.6-2.5-0.6-2.5s-3.4-1.1-4.5-0.6c0,0-3.8,0.9-4.4,1l-0.5,0.2L63,65.4z"/>
<path class="st8" d="M40.5,45.5l0.3-2.2c0,0,1.5-6.9,8.4-8.9c0,0,9.3-2.8,14,6.3c0,0,3.9,7.2-2.5,13.9c0,0-6.6,6.6-15.3,1
	C45.4,55.5,40,51.4,40.5,45.5z"/>
<path class="st8" d="M70.6,45.9c0,0-1.2-8.3,7.8-12.2c0,0,11.2-4.1,15.6,7.8c0,0,2.4,8.1-4.4,13.1c0,0-6.3,5.3-14.7-0.5
	C74.9,54.1,70.7,50.6,70.6,45.9z"/>
<path class="st9" d="M116.2,29.4v0.8l-0.6,1.2l-0.7,0.8l-0.2,0.9l0.3,0.7c0,0,0.4,0.4,0.6,0.4c0.2,0,0.9-0.3,0.9-0.3l1-0.7l0.8-0.7
	l0.5-0.5l0.3-0.5l-1.3-1.3l-1.2-1L116.2,29.4z"/>
<polygon class="st10" points="119.9,29.7 119.9,30.7 119.5,31.5 119,32 116.4,28.9 117.9,28.9 119.4,29.4 "/>
<path class="st11" d="M114.5,32.4c-0.1,0.1-2.7,2.3-2.7,2.3l-2.3,1.3l-3.5,1.6c0,0-3.6,1.5-3.5,1.6c0,0.1-3,1.4-3,1.4l-3.3,1.6
	l-2.8,2.2l-2.1,1.8l-2.5,3c0,0-2.3,3-2.3,3.1s-2.2,3.9-2.2,3.9l-1.2,2.5l-1,2.1l-1.3,1.8l-2.7,2.1l-2.1,1.9l-2,2.5L71.9,73l-1.5,3.8
	l-1.1,3.7l2.2-4.3l2.8-4.9l3.2-3.6l3.5-3.4l2.9-3.9l2.4-4.3l1.6-3.6l3.5-4.6l3.5-3.1l3.8-2.5c0,0,3.5-1.8,3.6-1.7
	c0.1,0.1,6.1-2.5,6.1-2.5l5-2.2l2.3-1.9l-0.8-0.7L114.5,32.4z"/>
<path class="st5" d="M72.5,24.8l3.1,1.9c0,0,2.1,0.3,2.2,0.4c0.1,0.1,3.7,0.5,3.7,0.5l-1.9-1.7l-4.2-1.3L72.5,24.8z"/>
<path class="st12" d="M68.7,22.4c0-0.2,0.5-0.6,0.5-0.6l7.4-2.5l4.5-0.4l5.6,0.7c0,0,12,2.9,11,13.3L96.9,33l0.1-1
	c0,0-3.9-7.3-9.7-3l-2.2,2.4l-4.6-5l-3.1-1.3l-2.7-0.6l-2.2,0.3l-2.9-1.4L68.7,22.4z"/>
<polygon class="st5" points="95.2,33.8 89.9,30.4 87.3,29.2 89.4,28 92.5,27.9 94.4,28.9 96,30.4 96.9,31.4 96.9,33.2 "/>
<path class="st6" d="M30.5,96.5c0.1-0.1-0.1-5.5-0.1-5.5L29,67.2c0,0,2.8,3,2.9,3.2c0.1,0.1,2.5,2.9,2.5,2.9l2.1,1.1l2.5,0.2
	c0,0,2.3-0.2,2.4-0.2c0.1,0,0.7-0.2,0.7-0.2l-0.2,1.1L41,76.4l-2,0.8l-2.7,0.8h-1.9l-1.7,0.5l0.5,0.9l0.1,0.9l-0.4,0.7l-0.6,0.6
	l-0.6,0.4c0,0,1.8,0.7,1.8,0.8c0.1,0,2.6,2.4,2.6,2.4l1.4,2.2l0.8,1.9l0.6,1.5c0,0,0,0.9,0,1.2c-0.1,0.3-0.4,1.2-0.5,1.3
	c-0.1,0.1-1.6,1.9-1.6,1.9l-2.4,1.6l-0.7-0.4l-1.7,0L30.5,96.5z"/>
<path class="st13" d="M62.7,66.6c0,0-2-0.9-2-0.9c0,0-1.8-1.5-1.8-1.5l-2.5-2.5L54,59.8L52.7,59l-2.2,0.2l0.4,1.1l-1.4-0.2l-2.6-0.8
	l-2.5-1.5l0.1,2L43,60.1l-2.8,2l-2,1.8l-2.2,1l-4.6-0.4h-2.1l-2.4-0.8l1,1.5l2.1,2.9l1.9,2l2,2.7l1.8,1.3l2.8,0.5l3-0.3l0.7-0.2
	l-0.2,1.1l-1.4,1.3l-1.1,0.5l-1.6,0.5l-1.9,0.2L34,78.2l-1.7,0.6l0.8,0.7v1.1l-0.5,0.7L31.5,82l2,1.2c0,0,2.2,2,2.3,2.1
	c0,0.1,1.4,2.1,1.4,2.1s1.2,1.5,1.1,1.8c-0.1,0.2,0.5,2.1,0.5,2.3c0,0.1-0.3,1.4-0.3,1.4l-0.7,1L36.4,95l-1.3,1.5l-1.5,0.8l-1.2,0.5
	l-3.4,1l-1.9,0.5l-2.7,0.5l-2.7,0.7l-2.4,1l-1.4,1.3l5.5-1.7l4.2-0.4l2.5,0.5l1.5,0.3l0.3,0.8l-0.2,0.6l1.3,0l2.6,0.5l2.5,1.6
	l2.9,1.5l2.7,0.3l9.1-1.5l5.4-0.5l6.9-0.2l2,0.2l1.3,1.3l1.1-1.3l1.2-1.7l1.1-0.8l1,0.3l1,0.6l0.4,0.6l0.3-2L74,98.3l-0.3-1.5
	l0.2-1.5l0.4-1.3l0.9-1.1l0.9-1.3l1.5,3.1l2,2.8l2.8,3.3l3,3.1l2.4,2.6l1.1,1.8l-0.3-3.1l0.1-2.3l0.4-2c0,0,0.7-1.4,0.7-1.5
	c0-0.1,0.5-1,0.5-1l0.3-0.4l-4.9-2.4l-0.9-0.3l0.5-0.6L86,94l1-0.1l0,0.5v0.4l1.8,1l1.5,0.3l1,0.4l0.7-2.4l-0.4-2.6
	c0,0-0.7-1.8-0.7-1.9s-0.5-1-0.5-1l-0.5-1.3l0-1.6l0.8-0.9l0.2-0.3l-3.8-1.3l-4.8-3.1l-2.6-2.7l-2.1-2.7l-1.4-3l-1.1-2.1l-1.5,2.4
	c0,0-1.9,3.3-2,3.5c0,0.1-0.7,1.6-0.7,1.6s-1.6,3.2-1.7,3.3c-0.1,0.1,0.8-4.3,0.8-4.3l0.8-2.2l0.9-1.7l0.4-0.9l-0.6,0.2l-0.5,0.4
	c0,0-2,0.7-2.7-0.7L68,70l-0.5,1.2c0,0-1.2,2-3.1,0.9c0,0-1.4-0.3-1.7-3.2V66.6z"/>
<path class="st6" d="M91,89l1.1-2.3l0.8-1.7l0-1.6v-0.9l-0.5-0.7c0,0-0.3,0-0.5,0s-1,0.3-1,0.3s0.7-0.8,0.8-0.8c0-0.1,0.7-1,0.7-1
	s-0.3-1-0.3-1c-0.1-0.1-0.3-0.7-0.3-0.7l-3-0.5h-8.5l3.7,3.3l4,2.7l2.5,0.7l0.5,0.1l-0.9,1.1l-0.1,1.2l0.8,1.8L91,89z"/>
<path class="st4" d="M115.3,66l0.8-2.1l1.1-1.5l2.4-2.2l1.8-0.9l1.5-0.3l0.9,0.1l-0.1,0.8l0.1,0.7l-0.6,0.4c0,0-1.9,0.5-2,0.5
	c-0.1,0-1.7,0.9-1.7,0.9l-1.8,1.2l-1.3,1.5L115.3,66z"/>
<path class="st10" d="M95,70.3l-1.9-0.3l-2.1-0.9l-1.6-1.4l0.9-0.1l-0.9-1L87.3,65l-1.2-0.4l4.1-1c0,0,4.6-1.1,4.6-1.2
	c0-0.1,3.9-1.1,3.9-1.1l4.3-1l3.4-0.2l2.3,0.9c0,0,2.8,1.6,2.8,1.7c0,0.1,2.2,1.7,2.1,2c-0.1,0.3,1.4,1.9,1.4,1.9l1.3,2l1.1,1.8
	l0.8,2.7l0.1,3l-0.2,2.7l-1.4,2.7l-1.1-0.5l-1-0.3l-1.2,0l-1.2,0.3l-1.4,0.6l-0.7,0.5c0,0-0.6,0.2-0.8,0.3c-0.2,0.1-1.3,0.6-1.3,0.6
	l-1.3,0.4l-1.2,0.1l0.9,1l0.1,0.1H104l-1.2,0.4l-0.1,0.3l-0.3,0.4l-3.5,1.3c0,0-7.2,1.5-7.2,1.5c0.1,0,0.9-2.4,0.9-2.4l0.6-2.3
	l0-1.5L92.6,82L92,81.8L91.1,82l1.1-1.3l0.3-0.9c0,0-0.1-0.5-0.3-0.6c-0.2-0.1-0.5-0.4-0.5-0.4l-4.4-1l-4.5,0L80.4,78l-1.2-1.5
	l1.6-1.7l2.1-1l2.3-0.5l4.5-0.6L93,72l1.6-1.1L95,70.3z"/>
<path class="st6" d="M91.3,96.8l0.8,0.4l1.1,0.9l0.9,1.2l0.6,0.8l0.9-1l2.7-1.8l2.4-1.4l2.4-0.9l2.2-0.6l1.4,0l0.2,0l-0.5-6.3
	l0.6,0.2l0.7-0.7l0-0.5l-1,0.2l-1.1-0.4l-1.4-0.7l-1.4-0.7l-1.5,0.8l-4.3,1.2l-3.4,0.6L90.7,89l0.7,1.9c0,0,0.4,1.8,0.4,2
	c0,0.2,0,2,0,2.1c0,0-0.5,1.4-0.5,1.4L91.3,96.8z"/>
<path class="st6" d="M90.4,97.9c0,0-1,2.1-1,2.2s-0.5,1.9-0.5,1.9l-0.2,3.1l0.4,2.8l2-0.8l2.2-2.1l0.9-1.3l0.5-1.1l0-1.5l-0.2-0.9
	L93,99L90.4,97.9z"/>
<path class="st4" d="M85.7,95.4l1-0.5l0.3-0.7L86.3,94c0,0-0.7-0.2-0.7,0c0,0.2-0.8,1.3-0.8,1.3L85.7,95.4z"/>
<polygon class="st4" points="94.4,100.1 94.4,99.7 93.5,98.4 92.1,97.2 90.9,96.6 89.6,96.2 88.6,95.8 87.5,95.3 86.9,94.7 
	85.6,95.5 88.2,96.8 90.7,98 92.5,98.7 93.7,99.5 "/>
<path class="st7" d="M106.5,88.2l0.4,5l1.3,1.2l2.1,1.5c0,0,3,1.7,4.7,0c0,0,1.5-2.7-0.5-4.9c0,0-0.7-2-5.9-2.7L106.5,88.2z"/>
<polygon class="st14" points="107,94.4 106.9,93.3 108.1,94.1 108.1,94.4 "/>
<polygon class="st14" points="114.8,91.6 115.4,92.5 115.6,93.9 115.6,95.2 118.5,93.3 120,92.3 118.7,92.3 116.4,92 "/>
<path class="st15" d="M95,100.1l1.9,2.1l2.2-0.9l3.2-0.5l3.6,0.1l4.8,0.2l2.2-0.2h0.6l1.2-1.3l0.5-0.9l0.4-1l-0.1-0.5l-0.7,0.1v-0.8
	L115,96l-0.9,0.7c0,0-2.8,0.6-5.8-2.3h-1.7l-1.9,0.2l-2.3,0.6l-2,0.8l-2,1.3l-2.7,1.8L95,100.1z"/>
<path class="st15" d="M110.5,103.7l2.6-2.4l0.5-0.4l-0.8,0.2l-2.6,0.1L107,101l-2.5-0.1l-2.2,0l-1.4,0.2l-1.6,0.2l-1.6,0.6l-0.8,0.3
	l1.8,1l2.7,0.9c0,0,4.3,1.5,4.4,1.5c0.1,0,2.8,1.3,2.8,1.3l4.8,2l1.2,0.3l5.1-5l2.7-4l0.2-0.2l-1.3,0.2c0,0-1.4,0.4-1.5,0.4
	c-0.1,0-1.6,0.7-1.6,0.7l-1.2,0.4l-1.7,0.4l-1.4,0.1l-1.5,0.6l-1,0.5L110.5,103.7z"/>
<path class="st2" d="M133.9,73.7c0,0-0.6,3.4-0.6,3.4s-0.7,2.4-0.7,2.5s-0.8,2.7-0.8,2.7l-0.7,2.1l-1.9,4.6l-2.1,4.2l-4.4,6.8
	l-1.6,0.2L119,101l-1.3,0.6l-1.2,0.3l-1.5,0.4l-1.8,0.4l-2.3,1.1l0.4-0.7l1-1l1.4-1.2l0.9-1l0.6-0.7l0.4-0.8l-0.1-0.7l-0.6-0.1
	l-0.2,0.1l0.3-1.2l0.5-0.8l1.7-1.4l1.6-0.9l1.3-0.9l-0.8,0l-2.4-0.2l-1.4-0.5l-0.8-0.5l-1.3-1.3l-1.9-1l-1.8-0.4l-2.4,0l0.7-0.5
	l0.1-0.7l-0.8,0.2l-1.1-0.2l-2-1.2l-1.2-0.5l0.2-0.5c0,0,1-0.4,1-0.3c0.1,0.1,1.6,0,1.6,0l1,0.1l-1.2-1.2l1.4-0.1l0.9-0.2l1.5-0.6
	l1.1-0.5l1.6-1l1.5-0.3l1.5,0l1.2,0.2l0.8,0.4l2,0.7l0.4,0l-0.2-0.8c0,0,0.5-0.5,0.5-0.7c0-0.1,0.9-0.7,0.9-0.7l1.2-0.8l0.7-0.6
	l0.7-0.9l0.7-2l0.3-1.6l0-1.5L124,72l1.4,0.4l2.1,0.9l2.8,0.4l2.6-0.1L133.9,73.7z"/>
<path class="st15" d="M94.6,99.9l0.1,1.1v1.3l-0.4,1.1l-0.9,1.3l-0.9,1.1l-0.9,0.7l-1,0.7l-1.6,0.6l-0.7,0.4l0.8,0.8l0.4,0.9l0,1.6
	l-0.3,1.8l0,1.7l0.5-0.6c0,0,2.2-0.2,6,2.8l2.2,1.9l1.6,1.9l1.5,1.9c0,0,3.5-6.1,9-5.5l-0.3-1.2l-0.2-1.6l0.8-1.9l1.5-1.3l2.5-2.1
	l-4.3-1.7l-2.8-1.4l-3-1.2l-3.6-1.1l-2.5-0.9l-1.4-0.8l-1.3-1.2L94.6,99.9z"/>
<polygon class="st2" points="29.8,84.9 28.7,85 26.2,84.9 23.5,84.1 21.1,83.1 18.8,82.6 16.3,82.6 14.9,82.8 12.8,83.5 10.9,84.4 
	8,86.2 9.4,89.6 11.3,89.1 14.5,88.9 18,89.2 20.7,89.3 23.8,89.1 26.4,88.5 29,87.6 30.2,87.2 "/>
<polygon class="st7" points="30.2,89.6 29,89.6 27.4,89.7 25.1,90.7 23.5,91.7 22.4,92.8 21.9,93.6 21.7,94.8 22.2,95.7 23,96.1 
	23.1,96.1 23.2,96.9 23.8,97.4 25,97.8 27,97.4 28.8,95.9 30.4,94.2 "/>
<polygon class="st14" points="30.6,96.5 30.4,94.2 28.1,96.9 "/>
<path class="st14" d="M9.6,89.6l1.6-0.5l4.5-0.1l4.1,0.3l3.5-0.1l2.7-0.6l1.8-0.5l2.1-1.1v2.6l-1.1-0.2l-2,0.4l-1.8,0.8l-1.7,1.1
	L22.3,93l-0.4,0.8l0,1.1l0.6,0.8c0,0,0.9,0.5,0.8,0.6c-0.1,0.2-1.8-0.7-1.8-0.7l-4.7-2.3l-3.4-1.4L11,91.4l-0.8-0.1L9.6,89.6z"/>
<path class="st10" d="M18,102.9l1.1-1.2l2.3-1.1c0,0,2.5-0.7,2.5-0.7c0,0,2.9-0.6,2.9-0.6l2.7-0.5l2.5-1l2.2-1.1l0.6-0.2l-2.5-0.2
	l-2.3,0.2l-2.3,0.2l-1,0.5l-1.3,0.4c0,0-1.7,0.2-2.2-1.2l-1.6-0.6c0,0-4.4-2.2-4.4-2.2c0,0-3.9-1.6-3.9-1.6l-2.9-0.8l2.5,4.3
	l2.8,4.3L18,102.9z"/>
<polygon class="st15" points="26.5,111.7 26.8,109.3 27.6,107.4 29.2,105.8 30.8,104.9 31.5,104.3 31.7,103.7 31.4,102.9 32,102.4 
	31.5,101.6 30.6,101.4 27.8,100.7 24.8,100.8 21.7,101.7 18.8,102.8 18,103.2 21.8,107.4 "/>
<path class="st2" d="M27,112.3l-0.6-0.6l0.3-1.8l0.7-2.3l0.8-1.1l0.9-0.7l1.6-0.9l0.7-0.6l0.3-0.6l-0.2-0.5l0.2-0.6l1.4,0.3l2.5,0.3
	l2.1,1.3l2.2,1.3c0,0,2.4,0.7,2.6,0.8c0.1,0.1,4,0.2,4,0.2l3.7-0.9l7.4-1l5.4-0.6c0,0,2.7-0.2,2.8,0c0,0.3,2,0.8,2,0.8l0.8,0.8
	l1.4-1.6l1.2-1.5l0.8-0.5l1.6,0.2l0.7,0.9l0.3,0c0,0-0.1-2,0.1-2.1c0.1-0.1-0.2-1.5-0.2-1.5l-0.6-2.4l-0.1-1.6l0.5-1.4l1.1-1.6
	l0.9-1l0.3-0.9l0.6,2.4c0,0,1.1,2.3,1.2,2.4c0.1,0.2,3.2,3.9,3.2,3.9s2.9,3,3.1,3.2c0.2,0.2,3.3,3.3,3.3,3.3l1,1.9l-0.5,0.3l0.9,1
	l0.3,0.6l0.1,1.5l-0.2,1.1l-0.1,1.6l0,1.3l0.3-0.8l0.9-0.3l1.2,0.4l2.3,1.2c0,0,2,1.2,2,1.3c0,0.1,1.9,1.6,1.9,1.6l1.1,1.3l-5.7,2.7
	l-6.6,2.1l-2.5,0.7l-4.6,0.8l1-0.7c0,0,1.5-0.7,2.7-0.5l-1.1-1.2c0,0,3.6,0.3,3.8-0.6l-1.1-0.5l-1.3-0.8l-1.2-0.5l-0.9-0.1l-0.7,0.2
	l0.2-0.8l0.6-0.6l-1,0.1l-1.1,0.1l-1.1-0.1l-1.8-1.2l-2.4-1.7l-2-0.8l-1.6-0.3l-1.8,0.1l0.7-0.7l2.3-1.2l1.3-1l0.7-1.1l0.2-1.3
	l-0.7,0.2l-0.2-0.7l0.5-1.2l1.2-1.2l1.8-1.5l1.1-1l0.5-0.8c0,0-1.6,0.7-1.7,0.8c0,0.1-1.8,0.7-1.8,0.7l-1.6,0.3l-1.7,0.5l-2.3,0.8
	l-1.8,0.6l-3.1-0.1l-2.6-0.8l-3.1-1.2l-2.4-0.6c0,0-2.5-0.5-7.7,2.4l-2.8,1.6l-1.5,1.1l-0.6,0.7l-0.2,0.5l0.1,1.4l-0.5,1.5l-0.9,1.3
	l-2.7,2.3l-1.2,0.6C38,119.5,27.9,113.4,27,112.3z"/>
<path class="st4" d="M33.4,106.9l0.5-0.7c0,0,0.8-0.3,0.8-0.3c0-0.1,0.6,0,0.6,0l0.2,0.3l-0.3,0.5l-0.6,0.4l-0.4,0.3L33.4,106.9z"/>
<polygon class="st11" points="43.2,111.9 42.3,111.3 39.9,110.2 37.1,108.8 34.3,107.4 34.9,106.9 35.5,106.5 35.9,106.9 
	37.5,107.7 38.8,108.1 40.5,108.8 41.5,109.5 42.7,110.9 "/>
<path class="st15" d="M38,119.5c0,0,4.8-2.4,5.2-5.1c0,0,0.2-1.2,0.2-1.2c0,0-0.1-1.2-0.1-1.2l0.7-1c0,0,9.6-6.8,13.9-4.6l2.8,1
	l3.4,1.1c0,0,4,0.5,5.6-0.9l3.5-0.9l2.4-0.7l2.3-1c0,0-1,1.2-1.1,1.3c-0.1,0.1-1.6,1.3-1.6,1.3s-4.3,4-1.4,3.6l0,0.5l-0.6,1.4
	c0,0-0.9,1.3-4.6,3.1v0.3l2.3,0l2.6,0.8c0,0,2.2,1.4,2.5,1.6c0.3,0.2,3,2.3,5.4,1.3l-0.3,0.3l-0.4,0.6l0,0.4l0.6-0.1l0.9,0.1L83,122
	l1,0.6l1,0.5l0.9,0.4l-0.3,0.4l-0.9,0.2l-1,0.1l-1-0.1l-0.7,0l1.1,1.2h-1.4l-0.7,0.1l-0.9,0.5l-0.5,0.4c0,0-0.4,0.7-0.5,0.8
	c0,0.1-0.4,2.2,2.1,3.2l2.2,0.8l1.3,0.9l0.3,0.3l-4.5-0.6l-3.9-0.4l-3.1-0.5l-2.5-0.7l-1.7-0.4l-1.1,0c0,0-1.5,0.6-0.7,2.5l0.9,1.5
	l0.2,0.8l-0.2,0.7l-0.6,0.7l-0.7-0.9l-0.7-0.8l-1.3-0.7c0,0-1-0.2-1.1-0.2c0,0-1.2,0.1-1.2,0.1l-0.7,0l-0.5-0.3l-3-6.7l-3.1-0.7
	l-5.7-1.4l-7.3-2.8L38,119.5z"/>
<g>
	<path class="st16" d="M28.7,66.8c0.1,9.7,1.3,19.3,1.5,29c0,0.5,0.7,0.5,0.7,0c-0.2-9.7-1.4-19.3-1.5-29
		C29.4,66.4,28.7,66.4,28.7,66.8L28.7,66.8z"/>
</g>
<g>
	<path class="st16" d="M45.8,30.8C34,37.5,28.8,51.2,28.7,64.3c0,0.5,0.7,0.5,0.7,0c0.1-12.8,5.2-26.4,16.8-32.9
		C46.6,31.2,46.2,30.5,45.8,30.8L45.8,30.8z"/>
</g>
<g>
	<path class="st16" d="M82,27.3c-2.1-0.4-4.1-0.7-6.2-0.9c-0.5,0-0.5,0.7,0,0.7c2,0.2,4,0.5,6,0.9C82.3,28.1,82.5,27.4,82,27.3
		L82,27.3z"/>
</g>
<g>
	<path class="st16" d="M100.6,39.5C97.7,34.6,93,31.1,87.7,29c-0.4-0.2-0.6,0.5-0.2,0.7c5.4,2.1,10,5.7,12.8,10.8
		C100.3,40.1,100.4,39.8,100.6,39.5z"/>
</g>
<g>
	<path class="st16" d="M30.8,50.2c-2.7-0.2-5.2-1.6-6.6-4c-1.4-2.5-0.9-5.5,0.6-7.8c1.4-2.1,3.7-3.4,6.2-4c2.4-0.6,6-0.4,7.7,1.6
		c0.3,0.4,0.8-0.2,0.5-0.5c-1.9-2.2-5.3-2.3-8-1.9c-2.9,0.4-5.6,2.3-7.2,4.7c-1.6,2.5-1.7,5.6-0.4,8.2c1.3,2.7,4.3,4.1,7.2,4.3
		C31.2,51,31.2,50.2,30.8,50.2L30.8,50.2z"/>
</g>
<g>
	<path class="st16" d="M111.2,37.6c-0.2,0-0.3-0.1-0.4-0.1c0,0.1-0.1,0.3-0.2,0.4c1.2,4.4-0.9,9.7-5.8,10.5
		c-0.5,0.1-0.3,0.8,0.2,0.7C110.5,48.2,112.5,42.4,111.2,37.6z"/>
	<path class="st16" d="M109.5,35.4c0.1,0.1,0.1,0.2,0.2,0.3c0.1,0,0.2,0.1,0.3,0.1c0.1-0.2,0.1-0.4,0.3-0.6
		c-3-5.1-10.3-4.1-14.9-1.8c-0.4,0.2,0,0.8,0.4,0.6C99.9,32,106.4,31,109.5,35.4z"/>
</g>
<g>
	<path class="st16" d="M62.7,57c0.1,0,0.2,0,0.4-0.1c0-0.1-0.1-0.2-0.1-0.3c-0.2,0.3-1.2,0.4-1.6,0.6c-0.8,0.5-1.5,1.1-2.1,1.7
		c-1,1-1.9,2.3-1.7,3.8c0.3,1.6,2.5,2.4,3.9,2.5c2.5,0.3,4.9-1.2,7.4-1.3c3-0.1,7.7,3.2,8.8-1.5c0.8-3.5-4-5.5-6.5-6.5
		c-0.2-0.1-0.3,0.3-0.1,0.3c2.6,1,7,2.9,6.2,6.3c-0.6,2.4-2.9,2.1-4.8,1.6c-1.3-0.4-2.6-0.8-4-0.7c-1.7,0.1-3.4,0.8-5,1.1
		c-1.9,0.4-5.5,0-5.6-2.6c-0.1-1.6,1.7-3.1,2.9-4c0.5-0.4,1-0.8,1.6-0.9c0.2-0.1,0.7-0.1,0.9-0.3c0.1-0.1,0-0.3-0.1-0.3
		c-0.2,0-0.3,0-0.4,0.1C62.4,56.7,62.5,57,62.7,57L62.7,57z"/>
</g>
<g>
	<path class="st16" d="M72.4,64.6c0.7,1.7,0.9,3.6,0.5,5.4c-0.3,1.5-1.8,2.2-3.2,1.9c-0.8-0.2-1.2-1.4-1.5-2.1
		c-0.1-0.2-0.4,0-0.3,0.2c0.3,0.7,0.6,1.8,1.4,2.1c1,0.4,2,0.2,2.9-0.4c2.1-1.4,1.3-5.3,0.6-7.2C72.6,64.3,72.3,64.4,72.4,64.6
		L72.4,64.6z"/>
</g>
<g>
	<path class="st16" d="M106.8,88.4c0.9,0.4,2.1,0,3.1,0.2c2.2,0.4,4.3,1.7,5.2,3.9c0.3,0.8,0.3,1.8,0.1,2.6c-0.4,1.4-1.8,1.5-3,1.4
		c-2-0.3-3.6-1.8-5-3.2c-0.2-0.2-0.4,0.1-0.3,0.3c1.6,1.5,3.4,3.2,5.7,3.3c1.6,0.1,2.9-0.6,3.1-2.3c0.2-1.9-0.7-3.7-2.3-4.8
		c-1-0.7-2.2-1.2-3.4-1.5c-0.9-0.2-2.2,0.2-3-0.2C106.8,88,106.6,88.3,106.8,88.4L106.8,88.4z"/>
</g>
<g>
	<path class="st16" d="M111.7,93.2c1.4,0.4,3,1.6,2.2,3.2c-0.1,0.2,0.2,0.4,0.3,0.2c0.9-1.8-0.8-3.2-2.4-3.7
		C111.6,92.8,111.5,93.2,111.7,93.2L111.7,93.2z"/>
</g>
<g>
	<path class="st16" d="M94.2,45.5c-0.2,4.8-3.4,8.9-7.7,10.4c0,0.1,0,0.2,0,0.2v0.1c0,0,0,0.1,0,0.1c4.5-1.6,7.7-5.7,8.1-10.6
		C94.4,45.7,94.3,45.6,94.2,45.5z"/>
	<path class="st16" d="M82.5,56.6c-6.5,0-11.7-5.3-11.7-11.7c0-6.5,5.3-11.7,11.7-11.7c6,0,10.9,4.5,11.6,10.3
		c0.1-0.1,0.2-0.2,0.4-0.3c-0.8-5.9-5.9-10.4-12-10.4c-6.7,0-12.1,5.4-12.1,12.1c0,6.7,5.4,12.1,12.1,12.1c0.4,0,0.8,0,1.1-0.1
		c0-0.1,0.1-0.1,0.2-0.2c0-0.1-0.1-0.2-0.1-0.2C83.3,56.6,82.9,56.6,82.5,56.6z"/>
</g>
<g>
	<path class="st16" d="M52.4,58c-6.7,0-12.1-5.4-12.1-12.1c0-6.7,5.4-12.1,12.1-12.1c6.7,0,12.1,5.4,12.1,12.1
		C64.6,52.6,59.1,58,52.4,58z M52.4,34.2c-6.5,0-11.7,5.3-11.7,11.7c0,6.5,5.3,11.7,11.7,11.7c6.5,0,11.7-5.3,11.7-11.7
		C64.2,39.4,58.9,34.2,52.4,34.2z"/>
</g>
<g>
	<path class="st16" d="M101.4,38.9c0.2-0.1,0.3-0.1,0.5-0.2c0.1,0,0.2-0.1,0.2-0.1c0,0,0,0,0,0c0.2-0.1,0.3-0.2,0.5-0.2c0,0,0,0,0,0
		c0.1-0.1,0.1-0.1,0.2-0.2c0.1-0.1,0.3-0.2,0.4-0.3c0.3-0.2,0.7-0.3,1.1-0.1c-0.4-0.3-0.9-0.5-1.5-0.5c-1.4,0-2.5,1.1-2.5,2.5
		c0,0.1,0,0.2,0,0.4C100.4,39.7,100.8,39.1,101.4,38.9z"/>
	<path class="st16" d="M105.3,39.6c-0.1,0.4-0.3,0.6-0.7,0.9c-0.1,0.1-0.2,0.2-0.4,0.2c-0.7,0.5-1.4,0.7-2.1,1c-0.5,0.2-1,0-1.4-0.4
		c0.5,0.6,1.2,1.1,2.1,1.1c1.4,0,2.5-1.1,2.5-2.5C105.3,39.8,105.3,39.7,105.3,39.6C105.3,39.6,105.3,39.6,105.3,39.6z"/>
</g>
<g>
	<path class="st16" d="M34.4,42.1c0-1.4-1.1-2.5-2.5-2.5c-1.4,0-2.5,1.1-2.5,2.5c0,1.4,1.1,2.5,2.5,2.5
		C33.3,44.7,34.4,43.5,34.4,42.1z"/>
</g>
<g>
	<path class="st16" d="M72.9,55.6c0-1.6-2.4-3-5.3-3c-3,0-5.3,1.3-5.3,3c0,1.6,2.4,3,5.3,3C70.5,58.6,72.9,57.3,72.9,55.6z"/>
</g>
<g>
	<path class="st16" d="M82.5,41.3c-2.2,0-3.9,1.7-3.9,3.9c0,2.2,1.7,3.9,3.9,3.9c2.2,0,3.9-1.7,3.9-3.9
		C86.4,43.1,84.6,41.3,82.5,41.3z M84.1,47.7c-0.6,0-1.1-0.5-1.1-1.1c0-0.6,0.5-1.1,1.1-1.1c0.6,0,1.1,0.5,1.1,1.1
		C85.2,47.2,84.7,47.7,84.1,47.7z"/>
</g>
<g>
	<path class="st16" d="M52.4,41.4c-2.2,0-3.9,1.7-3.9,3.9c0,2.2,1.7,3.9,3.9,3.9c2.2,0,3.9-1.7,3.9-3.9
		C56.3,43.2,54.6,41.4,52.4,41.4z M54,47.8c-0.6,0-1.1-0.5-1.1-1.1c0-0.6,0.5-1.1,1.1-1.1c0.6,0,1.1,0.5,1.1,1.1
		C55.1,47.3,54.6,47.8,54,47.8z"/>
</g>
<g>
	<path class="st16" d="M68.2,63.7c0-0.2-0.4-0.1-0.3,0.1c0.4,2.2,0.6,10-3.5,8.1c-2.2-1-1.6-5.2-1-7c0,0,0,0,0,0c0,0-0.1,0-0.1,0h0
		c-0.1,0-0.1,0-0.2,0c-0.7,2.3-1.1,6.6,1.8,7.6C68.9,73.8,68.6,65.9,68.2,63.7z"/>
</g>
<g>
	<path class="st16" d="M30.4,89.4c-2.6-0.5-5.3,0.7-7.3,2.4c-1.5,1.2-2.5,3.4-0.4,4.5c0.2,0.1,0.4-0.2,0.2-0.3
		c-2.4-1.4,0-3.6,1.4-4.6c1.7-1.2,3.9-2,6-1.6C30.5,89.8,30.6,89.4,30.4,89.4L30.4,89.4z"/>
</g>
<g>
	<path class="st16" d="M24.8,94.3c-0.7,0.3-1.9,1.1-1.8,2.1c0,0.9,0.9,1.4,1.7,1.5c2.3,0.3,4.8-2.1,6-3.8c0.1-0.2-0.2-0.4-0.3-0.2
		c-1,1.3-2.3,2.5-3.8,3.2c-1,0.5-2.4,0.7-3.1-0.3c-0.7-0.9,0.9-1.9,1.5-2.2C25.2,94.6,25,94.2,24.8,94.3L24.8,94.3z"/>
</g>
<g>
	<path class="st16" d="M106.2,88.1c0.1,2.1,0.2,4.2,0.5,6.3c0.1,0.5,0.8,0.5,0.7,0c-0.2-2.1-0.4-4.2-0.5-6.3
		C106.9,87.6,106.2,87.6,106.2,88.1L106.2,88.1z"/>
</g>
<g>
	<path class="st16" d="M100.7,39.4c-0.1-0.1-0.2-0.3-0.2-0.4c-0.2-0.4-0.9,0-0.6,0.4c0.2,0.3,0.3,0.6,0.5,0.8
		C100.4,39.9,100.5,39.6,100.7,39.4z"/>
	<path class="st16" d="M102,41.7c-0.3,0.1-0.6,0-0.9-0.1c3,5.8,4.5,12.2,5,18.8c0,0.5,0.8,0.5,0.7,0C106.3,53.9,104.9,47.5,102,41.7
		z"/>
</g>
<g>
	<g>
		<path class="st16" d="M101,39.7c0.1,0,0.2,0,0.3,0c0.1,0,0.2,0,0.2,0c0,0,0,0,0,0c0.1,0,0.2-0.1,0.3-0.1c0,0,0.1,0,0.1-0.1
			c0.1-0.1,0.3-0.2,0.4-0.2c-0.3-0.4-0.6-0.8-0.9-1.1c-0.1,0.1-0.1,0.1-0.2,0.2c0,0,0.1-0.1,0.1-0.1c-0.1,0.1-0.3,0.2-0.4,0.2
			c0.1,0,0.1,0,0.2-0.1c-0.1,0-0.1,0-0.2,0.1c-0.1,0-0.2,0.1-0.2,0.1c-0.1,0.1-0.1,0.1-0.2,0.2c-0.1,0.1-0.1,0.2-0.1,0.3
			c0,0.1,0,0.2,0,0.3c0.1,0.2,0.2,0.3,0.3,0.4c0.2,0.1,0.4,0.1,0.6,0.1c0.1,0,0.3-0.1,0.4-0.2c0.1,0,0.1-0.1,0.2-0.1
			c0.2-0.1,0.4-0.2,0.5-0.4c0.1-0.1,0.1-0.1,0.1-0.2c0-0.1,0.1-0.2,0.1-0.3c0-0.1,0-0.1,0-0.2c0-0.1-0.1-0.2-0.1-0.2
			c0-0.1-0.1-0.1-0.1-0.1c-0.1-0.1-0.2-0.1-0.2-0.1c-0.1,0-0.1,0-0.2,0c-0.1,0-0.3,0-0.4,0.1c-0.2,0.1-0.3,0.2-0.5,0.3
			c0.1,0,0.1,0,0.2-0.1c0,0-0.1,0-0.1,0c0.1,0,0.1,0,0.2,0c0,0-0.1,0-0.1,0c0.1,0,0.1,0,0.2,0c0,0,0,0,0,0c-0.1,0-0.2,0-0.3,0
			c-0.1,0-0.2,0-0.3,0.1c-0.1,0-0.2,0.1-0.2,0.2c-0.1,0.1-0.1,0.2-0.1,0.2c0,0.1,0,0.1,0,0.2c0,0.1,0,0.3,0.1,0.4
			c0,0,0.1,0.1,0.1,0.1C100.8,39.6,100.9,39.7,101,39.7L101,39.7z"/>
	</g>
</g>
<g>
	<g>
		<path class="st16" d="M102.1,41.7c0.3-0.1,0.5-0.2,0.8-0.3c0-0.1-0.1-0.2-0.1-0.3c-0.5,0.2-1,0.2-1.6,0.3c-0.1,0-0.2,0.2-0.1,0.3
			c0,0,0,0,0,0c0.1-0.1,0.2-0.1,0.3-0.2c0,0-0.1-0.1-0.1-0.1c-0.1,0.1-0.1,0.2-0.2,0.3c0.1,0,0.2,0.1,0.3,0.1
			c0.1-0.1,0.1-0.2,0.2-0.3c-0.1,0-0.1-0.1-0.2-0.1c-0.2-0.1-0.4,0.2-0.2,0.3c0.2,0.1,0.3,0.1,0.5,0.2c0.2,0.1,0.3-0.3,0.1-0.3
			c0.1,0,0,0,0,0c0,0,0-0.1-0.1-0.1c-0.1,0.1-0.2,0.2-0.3,0.3c0.1,0.1,0.3,0.2,0.5,0.2C102,41.9,102.1,41.8,102.1,41.7
			c0-0.2-0.1-0.3-0.2-0.4c-0.1-0.2-0.4,0-0.3,0.2c0,0.1,0.1,0.1,0.1,0.2c0.1,0,0.2-0.1,0.3-0.1c-0.1-0.2-0.1-0.3-0.2-0.4
			c-0.1-0.1-0.3-0.1-0.3,0.1c0,0.3,0.1,0.5,0.3,0.7c0.1,0.1,0.3,0,0.3-0.1c0.1-0.3,0.1-0.5,0-0.7c-0.1-0.2-0.4,0-0.3,0.1
			c0,0.2,0.1,0.4,0.3,0.6c0.1,0.1,0.3,0.1,0.3-0.1c0-0.2,0-0.4,0-0.6c-0.1-0.2-0.4-0.2-0.4,0c0,0.2,0.1,0.4,0.2,0.6
			c0.1,0.1,0.3,0.1,0.3,0c0.1-0.3,0.1-0.5,0-0.8c-0.1-0.2-0.3-0.1-0.3,0.1c0,0.3,0.1,0.6,0.4,0.7c0.1,0.1,0.2,0.1,0.3,0
			c0.1-0.3,0.1-0.6,0-1c-0.1-0.2-0.3-0.1-0.4,0c0,0.3,0,0.6,0.2,0.9c0.1,0.1,0.2,0.1,0.3,0c0.2-0.3,0.3-0.6,0.3-1
			c0-0.2-0.3-0.3-0.4,0c-0.1,0.3,0,0.6,0.2,0.9c0.1,0.1,0.2,0.1,0.3,0c0.1-0.3,0.2-0.6,0.1-1c-0.1-0.2-0.3-0.2-0.3,0
			c-0.1,0.3-0.1,0.6,0.1,0.9c0.1,0.1,0.2,0.1,0.3,0c0.2-0.3,0.2-0.6,0.3-0.9c0-0.2-0.3-0.3-0.3-0.1c0,0.3-0.1,0.6,0,0.8
			c0,0.2,0.2,0.2,0.3,0c0.2-0.3,0.2-0.6,0.2-0.9c0-0.2-0.3-0.2-0.4,0c-0.1,0.3-0.1,0.7,0.1,0.9c0.1,0.1,0.2,0.1,0.3,0
			c0.2-0.3,0.3-0.8,0.3-1.2c0-0.2-0.3-0.2-0.4,0c-0.1,0.3-0.2,0.7,0,1c0.1,0.1,0.2,0.2,0.3,0c0.2-0.3,0.2-0.7,0.3-1.1
			c0-0.2-0.3-0.2-0.4,0c-0.1,0.3-0.1,0.5,0,0.8c0,0.2,0.3,0.2,0.3,0c0.1-0.3,0.2-0.5,0.3-0.8c-0.1,0-0.2-0.1-0.3-0.1
			c0,0.2,0,0.4-0.1,0.6c0,0.2,0.2,0.3,0.3,0.1c0.1-0.3,0.2-0.5,0.3-0.8c0-0.2-0.3-0.3-0.3-0.1c-0.1,0.3-0.1,0.5,0,0.8
			c0,0.1,0.3,0.2,0.3,0c0.1-0.3,0.2-0.6,0.3-0.9c0-0.2-0.3-0.3-0.3-0.1c0,0.2,0,0.4-0.1,0.6c0,0.2,0.2,0.3,0.3,0.1
			c0.1-0.2,0.1-0.4,0.2-0.6c-0.1,0-0.2,0-0.4,0c0,0.1,0,0.2,0,0.3c0,0.2,0.3,0.2,0.4,0c0.1-0.1,0.1-0.3,0-0.4c0-0.2-0.4-0.2-0.4,0
			c0,0.1,0,0.2,0,0.3c0.1,0,0.2,0,0.4,0c0-0.1,0-0.2,0-0.3c0-0.2-0.3-0.2-0.4,0c0,0.2-0.1,0.4-0.2,0.5c0.1,0,0.2,0.1,0.3,0.1
			c0-0.2,0-0.4,0.1-0.6c-0.1,0-0.2-0.1-0.3-0.1c0,0.3-0.1,0.5-0.2,0.8c0.1,0,0.2,0,0.3,0c0-0.2,0-0.4,0-0.6c-0.1,0-0.2-0.1-0.3-0.1
			c0,0.3-0.1,0.5-0.2,0.7c0.1,0,0.2,0.1,0.3,0.1c0-0.2,0.1-0.4,0.1-0.6c0-0.2-0.3-0.3-0.3-0.1c-0.1,0.3-0.2,0.5-0.3,0.7
			c0.1,0,0.2,0,0.3,0c0-0.2,0-0.4,0-0.6c-0.1,0-0.2,0-0.4,0c0,0.3-0.1,0.6-0.2,0.9c0.1,0,0.2,0,0.3,0c-0.1-0.3-0.1-0.6,0-0.9
			c-0.1,0-0.2,0-0.4,0c0,0.4-0.1,0.7-0.3,1c0.1,0,0.2,0,0.3,0c-0.1-0.2-0.1-0.4,0-0.6c-0.1,0-0.2,0-0.4,0c0,0.3,0,0.5-0.2,0.7
			c0.1,0,0.2,0,0.3,0c0-0.2,0-0.4,0-0.6c-0.1,0-0.2-0.1-0.3-0.1c0,0.3-0.1,0.6-0.2,0.8c0.1,0,0.2,0,0.3,0c-0.1-0.2-0.1-0.4,0-0.6
			c-0.1,0-0.2,0-0.3,0c0.1,0.2,0,0.5-0.1,0.7c0.1,0,0.2,0,0.3,0c-0.1-0.1-0.1-0.3-0.1-0.5c-0.1,0-0.2,0-0.4,0c0,0.3,0,0.5-0.2,0.7
			c0.1,0,0.2,0,0.3,0c-0.1-0.2-0.1-0.4-0.1-0.7c-0.1,0-0.2,0-0.4,0c0.1,0.2,0.1,0.5,0,0.7c0.1,0,0.2,0,0.3,0
			c-0.2-0.1-0.2-0.3-0.3-0.5c-0.1,0-0.2,0.1-0.3,0.1c0.1,0.2,0,0.3,0,0.5c0.1,0,0.2,0,0.3,0c-0.1-0.1-0.1-0.2-0.1-0.4
			c-0.1,0-0.2,0-0.4,0C102.1,41.4,102.1,41.5,102.1,41.7c0.1,0,0.2,0,0.3,0c-0.1-0.2-0.2-0.3-0.2-0.5c-0.1,0-0.2,0.1-0.3,0.1
			c0.1,0.2,0,0.3,0,0.5C101.9,41.7,102,41.6,102.1,41.7c-0.1-0.2-0.2-0.3-0.2-0.5c-0.1,0-0.2,0.1-0.3,0.1c0.1,0.1,0.1,0.2,0.2,0.3
			c0.1,0.2,0.4,0.1,0.3-0.1c0-0.1-0.1-0.2-0.1-0.3c-0.1,0.1-0.2,0.1-0.3,0.2c0.1,0.1,0.1,0.2,0.1,0.3c0.1-0.1,0.1-0.1,0.2-0.2
			c-0.1,0-0.2,0-0.3-0.1c-0.2-0.2-0.4,0.1-0.3,0.3c0.1,0.1,0.1,0.2,0.3,0.2c0-0.1,0.1-0.2,0.1-0.3c-0.2,0-0.3-0.1-0.4-0.2
			c-0.1,0.1-0.1,0.2-0.2,0.3c0.1,0,0.1,0.1,0.2,0.1c0.2,0.1,0.4-0.2,0.2-0.3c-0.1,0-0.2-0.1-0.3-0.1c-0.2-0.1-0.4,0.2-0.2,0.3
			c0,0,0.1,0.1,0.1,0.1c0.1,0.1,0.3-0.1,0.3-0.2c0-0.1,0-0.1-0.1-0.2c0,0.1-0.1,0.2-0.1,0.3c0.6-0.1,1.1-0.1,1.6-0.3
			c0.2-0.1,0.1-0.4-0.1-0.3c-0.3,0.1-0.5,0.2-0.8,0.3C101.8,41.4,101.9,41.7,102.1,41.7L102.1,41.7z"/>
	</g>
</g>
<g>
	<g>
		<path class="st16" d="M102.4,38.2c0.1,0.2,0.1,0.3,0.2,0.4c0.1,0.2,0.4,0.1,0.3-0.1c0-0.1,0-0.3-0.1-0.4c-0.1,0-0.2,0.1-0.3,0.1
			c0,0.1,0.1,0.2,0.1,0.2c0,0,0.1,0.1,0.1,0.1c0.1,0.2,0.3,0.1,0.3-0.1c0-0.1,0-0.3,0-0.4c-0.1,0-0.2,0-0.4,0c0,0.1,0.1,0.2,0.2,0.2
			c0,0,0.1,0,0.1,0.1c0,0,0,0,0,0c0,0,0,0,0,0c0.1,0.1,0.3,0.1,0.3-0.1c0-0.1,0-0.2,0-0.3c-0.1,0-0.2,0.1-0.3,0.1
			c0.1,0.1,0.1,0.2,0.3,0.2c0.1,0,0.1,0,0.2,0c0.2,0.1,0.4-0.1,0.2-0.3c0,0-0.1-0.1-0.1-0.2c-0.1-0.1-0.1-0.1-0.2-0.2
			c-0.2-0.1-0.4,0.2-0.2,0.3c0.2,0.1,0.4,0.2,0.6,0.3c0.2,0,0.3-0.2,0.1-0.3c-0.1,0-0.2-0.1-0.2-0.2c-0.1,0.1-0.1,0.2-0.2,0.3
			c0.1,0.1,0.3,0.1,0.5,0.2c0.2,0,0.3-0.2,0.1-0.3c-0.1,0-0.2-0.1-0.2-0.1c-0.1,0.1-0.1,0.2-0.2,0.3c0.1,0.1,0.2,0.1,0.3,0.1
			c0-0.1,0.1-0.2,0.1-0.3c-0.1,0-0.3-0.1-0.4-0.2c0,0.1,0,0.2,0,0.4c0.1,0,0.1,0,0.2,0c0.1,0,0.1,0,0.2,0.1c0.1,0,0.1,0.1,0.2,0.1
			c0.1,0,0.2,0,0.2-0.1c0-0.1,0-0.2-0.1-0.2c-0.2-0.1-0.5-0.2-0.7-0.2c-0.2,0-0.2,0.3,0,0.4c0.1,0,0.3,0.1,0.4,0.2
			c0.2,0.1,0.3-0.2,0.1-0.3c-0.1-0.1-0.2-0.1-0.3-0.1c-0.1,0-0.2,0-0.2,0c-0.1,0.1-0.1,0.2,0,0.2c0.1,0.1,0.2,0.1,0.3,0.2
			c0-0.1,0.1-0.2,0.1-0.3c-0.1,0-0.3-0.1-0.4-0.2c-0.2-0.1-0.4,0.1-0.2,0.3c0.1,0.1,0.2,0.2,0.3,0.2c0-0.1,0.1-0.2,0.1-0.3
			c-0.2,0-0.3-0.1-0.5-0.2c-0.1,0.1-0.1,0.2-0.2,0.3c0,0,0.1,0,0.1,0c0,0,0,0,0,0c0,0,0,0,0,0c0,0.1,0.1,0.1,0.1,0.2
			c0.1-0.1,0.1-0.2,0.2-0.3c-0.1,0-0.1-0.1-0.2-0.1c0,0,0,0,0,0c0,0,0,0,0,0c0,0,0,0,0,0c0,0,0,0-0.1-0.1c-0.1-0.1-0.3,0-0.3,0.1
			c0,0.1,0,0.2,0,0.2c0,0,0,0.1,0,0.1c0,0,0,0,0,0c0,0,0,0,0,0c0.1,0,0.2-0.1,0.3-0.1c0-0.1-0.1-0.1-0.1-0.1c0,0-0.1-0.1-0.1-0.1
			c0-0.1-0.1-0.1-0.2-0.1c-0.1,0-0.2,0.1-0.2,0.2c0,0.1,0,0.3,0,0.4c0.1,0,0.2-0.1,0.3-0.1c-0.1-0.1-0.2-0.2-0.2-0.3
			c0-0.1-0.1-0.2-0.2-0.1c-0.1,0-0.2,0.1-0.1,0.2c0,0.1,0,0.3,0.1,0.4c0.1,0,0.2-0.1,0.3-0.1c-0.1-0.1-0.2-0.2-0.2-0.3
			c0-0.1-0.1-0.2-0.2-0.1C102.4,38,102.4,38.1,102.4,38.2L102.4,38.2z"/>
	</g>
</g>
<g>
	<g>
		<path class="st16" d="M110.8,37.5C110.8,37.4,110.8,37.4,110.8,37.5c-0.1-0.1-0.2-0.1-0.2-0.1c0,0-0.1,0-0.1,0.1c0,0,0,0.1,0,0.1
			c0,0,0,0,0,0.1c0,0,0,0.1,0,0.1c0,0.1,0.1,0.1,0.1,0.2c0.1-0.1,0.2-0.2,0.3-0.3c0,0-0.1-0.1-0.1-0.1c0,0,0,0,0,0
			C110.8,37.5,110.8,37.5,110.8,37.5c-0.1-0.1-0.3-0.2-0.3-0.1c-0.1,0.1-0.1,0.2-0.1,0.2c0.1,0.1,0.1,0.2,0.2,0.3
			c0.1,0.1,0.2,0.1,0.2,0c0.1-0.1,0.1-0.2,0-0.2c0,0,0-0.1,0-0.1c0,0,0,0,0,0c0,0,0,0,0-0.1c0,0,0,0,0,0c0,0,0,0,0-0.1c0,0,0,0,0,0
			C110.9,37.6,110.9,37.6,110.8,37.5c0,0.1-0.2,0.1-0.3,0.1c0.1,0.1,0.1,0.2,0.2,0.3c0,0,0.1,0.1,0.1,0.1c0,0,0.1,0,0.1,0
			c0.1,0,0.1-0.1,0.1-0.2c0-0.1,0-0.1,0-0.2c0,0,0-0.1,0-0.1c0-0.1,0-0.1,0-0.2C111,37.4,110.8,37.5,110.8,37.5
			c-0.1,0.2,0,0.2,0,0.3c0,0,0,0,0,0c0,0,0,0.1,0.1,0.1c0,0,0,0.1,0.1,0.1c0,0,0.1,0,0.1,0c0.1,0,0.2-0.1,0.1-0.2
			c0-0.1,0-0.3-0.1-0.4C111,37.4,110.9,37.4,110.8,37.5C110.8,37.5,110.8,37.5,110.8,37.5C110.8,37.5,110.8,37.5,110.8,37.5
			c0,0.1,0,0.1,0,0.2c0,0,0,0,0,0c0,0,0,0,0,0c0,0.1,0.1,0.2,0.2,0.2c0.1,0,0.2-0.1,0.2-0.2c0-0.1,0-0.2,0-0.3
			c0-0.1-0.1-0.2-0.2-0.2c-0.1,0-0.2,0.1-0.2,0.2C110.9,37.4,110.8,37.5,110.8,37.5c0,0.1,0,0.2,0,0.2c0,0.1,0.1,0.1,0.2,0.1
			c0.1,0,0.1,0,0.1-0.1c0.1-0.1,0.1-0.2,0-0.3C111.1,37.4,111,37.4,110.8,37.5C110.9,37.5,110.9,37.5,110.8,37.5
			C110.9,37.5,110.9,37.4,110.8,37.5C110.9,37.4,110.9,37.4,110.8,37.5c0.1,0,0.1,0,0.1,0c0,0,0,0,0,0c0,0,0,0,0,0c0,0,0,0,0,0
			c0,0,0,0,0,0c0,0,0,0,0,0c0,0,0,0,0,0c0,0,0,0,0,0c0,0,0,0,0,0c0,0,0,0,0,0c0,0,0,0,0,0c0,0,0,0,0,0c0,0,0,0,0,0c0,0,0,0,0,0
			c0,0,0,0,0,0c0,0,0-0.1,0-0.1c0,0,0-0.1,0-0.1c-0.1,0-0.2,0-0.4,0c0,0.1,0,0.2,0,0.3c0.1,0,0.2,0,0.4,0c0-0.1,0-0.1,0-0.2
			c0-0.1,0-0.1-0.1-0.2c0,0-0.1-0.1-0.1-0.1c0,0-0.1,0-0.1,0C110.8,37.2,110.7,37.3,110.8,37.5c0,0.1,0,0.2,0,0.4
			c0.1,0,0.2-0.1,0.3-0.1c0-0.1-0.1-0.2-0.1-0.3c0,0-0.1-0.1-0.1-0.1c0,0-0.1,0-0.1,0c0,0-0.1,0.1-0.1,0.1
			C110.7,37.5,110.7,37.5,110.8,37.5c-0.1,0.1-0.1,0.1-0.1,0.1c0,0,0,0,0,0c0,0,0,0,0,0c0,0,0,0,0,0c0,0.1,0,0.2,0,0.3
			c0.1,0,0.2-0.1,0.3-0.1C111,37.6,110.9,37.5,110.8,37.5c0-0.1,0-0.1,0-0.1c0,0-0.1,0-0.1,0c-0.1,0-0.1,0.1-0.1,0.1
			c0,0.1,0,0.2,0,0.2c0,0.1,0,0.1,0.1,0.2c0.1-0.1,0.2-0.1,0.3-0.2c0,0,0,0-0.1-0.1c0,0,0,0,0,0C110.8,37.5,110.8,37.5,110.8,37.5
			c-0.2,0-0.3,0.1-0.4,0.1c0.1,0.1,0.1,0.2,0.2,0.3c0.1,0.1,0.2,0.1,0.3,0c0.1-0.1,0.1-0.2,0-0.3c0,0,0,0,0,0c0,0,0,0,0,0
			c0,0,0-0.1-0.1-0.1C110.9,37.5,110.9,37.5,110.8,37.5C110.8,37.5,110.9,37.5,110.8,37.5C110.9,37.5,110.9,37.5,110.8,37.5
			C110.9,37.5,110.9,37.5,110.8,37.5C110.9,37.5,110.9,37.5,110.8,37.5c0,0.1,0,0.1,0,0.2c0,0,0,0,0,0c-0.1,0-0.2,0-0.2,0.1
			c0,0,0,0,0,0c0,0,0,0,0,0c0,0,0,0,0,0c0,0,0,0,0,0c0,0,0,0,0,0c0,0,0.1,0.1,0.1,0.1c0,0,0.1,0,0.1,0
			C110.9,37.6,110.9,37.5,110.8,37.5L110.8,37.5z"/>
	</g>
</g>
<g>
	<g>
		<path class="st16" d="M99.2,38.3c0.2,0.2,0.4,0.4,0.5,0.6c0.2,0.2,0.3,0.5,0.6,0.7c0.1,0.1,0.2,0.1,0.3,0c0.1-0.1,0.1-0.2,0-0.3
			c-0.3-0.4-0.6-0.8-0.8-1.2c-0.1,0.1-0.2,0.1-0.3,0.2c0.1,0.1,0.2,0.2,0.3,0.3c0.1,0.1,0.2,0.2,0.3,0.3c0.1,0.1,0.2,0.2,0.2,0.4
			c0,0,0.1,0.1,0.1,0.1c0,0,0,0,0,0c0,0,0,0,0,0c0,0,0,0,0,0.1c0.1,0.2,0.4,0.1,0.3-0.1c-0.1-0.3-0.2-0.5-0.4-0.7
			c-0.2-0.2-0.4-0.5-0.6-0.7c-0.1-0.1-0.2-0.1-0.2,0c-0.1,0.1-0.1,0.2,0,0.2c0.3,0.4,0.6,0.8,0.9,1.3c0.1-0.1,0.2-0.2,0.3-0.3
			c-0.2-0.2-0.4-0.4-0.5-0.7c-0.2-0.3-0.4-0.5-0.6-0.7c-0.1-0.1-0.2,0-0.2,0.1C99.1,38.1,99.1,38.2,99.2,38.3L99.2,38.3z"/>
	</g>
</g>
<g>
	<g>
		<path class="st16" d="M94.5,45.6C94.5,45.6,94.5,45.6,94.5,45.6C94.5,45.7,94.5,45.7,94.5,45.6C94.5,45.7,94.5,45.7,94.5,45.6
			C94.5,45.7,94.5,45.7,94.5,45.6C94.5,45.7,94.5,45.7,94.5,45.6C94.5,45.7,94.5,45.7,94.5,45.6C94.5,45.7,94.5,45.7,94.5,45.6
			C94.5,45.7,94.5,45.7,94.5,45.6C94.5,45.7,94.5,45.7,94.5,45.6C94.5,45.7,94.4,45.7,94.5,45.6C94.4,45.7,94.4,45.7,94.5,45.6
			c-0.1,0.1-0.1,0.1-0.1,0.1c0,0,0,0,0,0c0,0,0,0,0,0c0,0,0,0,0,0c0,0,0,0,0,0c0,0,0,0,0,0c0,0,0,0,0,0c0,0,0,0,0,0c0,0,0,0,0,0
			c0,0,0,0,0,0c0,0,0,0,0,0c0,0,0,0,0,0c0,0,0,0,0,0c0,0,0,0.1,0,0.1c0,0,0,0,0,0c0,0,0,0.1,0,0.1c0.1,0,0.2,0,0.4,0
			c0-0.1,0-0.2,0-0.3c0-0.1,0-0.2,0-0.2c0-0.1-0.1-0.2-0.2-0.2c-0.1,0-0.2,0.1-0.2,0.2c0,0.1,0,0.2,0,0.2c0,0.1,0,0.2,0,0.3
			c0,0.1,0.1,0.2,0.2,0.2c0.1,0,0.2,0,0.2-0.1C94.6,45.8,94.6,45.7,94.5,45.6c0.1-0.1,0.1-0.1,0-0.2c0-0.1-0.1-0.1-0.2-0.1
			c-0.1,0-0.2,0.1-0.2,0.3c0,0.1,0.1,0.2,0.2,0.2C94.4,45.8,94.5,45.7,94.5,45.6L94.5,45.6z"/>
	</g>
</g>
<g>
	<g>
		<path class="st16" d="M94.5,45.7c0-0.2,0.1-0.3,0.1-0.5c0-0.1-0.1-0.2-0.2-0.2c-0.1,0-0.2,0.1-0.2,0.2c0,0,0,0.1,0,0.1
			c0,0,0,0,0,0c0,0.1,0,0.2-0.1,0.4c0,0,0,0.1,0,0.1c0,0,0.1,0.1,0.1,0.1C94.4,45.9,94.5,45.8,94.5,45.7L94.5,45.7z"/>
	</g>
</g>
<g>
	<g>
		<path class="st16" d="M106.1,87.3c0,0.3,0.1,0.6,0.1,0.9c0,0.1,0.1,0.2,0.2,0.2c0.1,0,0.2-0.1,0.2-0.2c0-0.3-0.1-0.6-0.1-0.9
			c0-0.1-0.1-0.2-0.2-0.2C106.2,87.1,106.1,87.2,106.1,87.3L106.1,87.3z"/>
	</g>
</g>
<g>
	<g>
		<path class="st16" d="M106.5,87.4C106.5,87.4,106.5,87.4,106.5,87.4C106.5,87.5,106.5,87.4,106.5,87.4c0,0.1,0,0.1,0,0.1
			c0,0.1,0,0.1,0,0.2c0,0.1,0,0.2,0,0.3c0.1,0,0.2,0,0.4,0c0-0.1,0-0.2,0-0.3c0-0.1,0-0.2,0-0.4c0-0.1-0.1-0.1-0.2-0.1
			C106.5,87.2,106.4,87.3,106.5,87.4c0,0.2,0,0.5,0,0.7c0,0.2,0.3,0.2,0.3,0c0.1-0.2,0.1-0.5,0-0.8
			C106.8,87.2,106.5,87.2,106.5,87.4c0.1,0.4,0.1,0.7,0.1,1.1c0,0.1,0.1,0.2,0.2,0.2c0.1,0,0.2-0.1,0.2-0.2c0-0.4,0-0.7,0-1.1
			C106.8,87.4,106.7,87.5,106.5,87.4c0.1,0.1,0.1,0.1,0.1,0.1c0,0,0,0,0,0c0,0,0,0,0,0c0,0.1,0,0.1,0,0.2c0,0,0,0,0,0c0,0,0,0,0,0
			c0,0,0,0.1,0,0.1c0,0.1,0,0.1,0,0.2c0.1,0,0.2,0,0.3,0c0-0.1,0-0.1,0-0.2c0,0,0-0.1,0-0.1c0,0,0,0,0,0c0,0,0,0,0-0.1
			c0-0.1,0-0.2,0-0.3C106.6,87.4,106.5,87.4,106.5,87.4c-0.1,0.1-0.1,0.1-0.1,0.2c0,0.1,0,0.1,0,0.2c0,0.1,0,0.2,0.1,0.4
			c0,0.1,0.1,0.1,0.2,0.1c0.1,0,0.2-0.1,0.2-0.2c0-0.2,0-0.5,0-0.7c0-0.1-0.1-0.2-0.2-0.1C106.5,87.2,106.4,87.3,106.5,87.4
			L106.5,87.4z"/>
	</g>
</g>
<path class="st10" d="M106.8,88.3l0-0.9l0.6-0.2h0.4c0,0-0.1,0.4-0.1,0.4c0,0-0.5,0.6-0.5,0.6L106.8,88.3"/>
<g>
	<g>
		<path class="st17" d="M117.4,29.3c0.7-0.1,1.5,0.1,2,0.7c0,0,0,0.1,0,0.1c0,0,0,0.1,0.1,0.1c0,0,0.1,0.1,0,0.1c0,0,0,0.1,0,0.1
			c0,0,0,0.1,0,0.1c0,0,0,0,0,0c0,0,0,0,0,0.1c0,0,0,0.1,0,0.1c0,0.1,0,0,0,0c-0.1,0.4-0.4,0.7-0.7,1c0.2,0,0.3,0.1,0.5,0.1
			c-0.4-0.6-0.8-1.2-1.3-1.8c-0.5-0.5-1-0.9-1.6-1.3c0,0.2,0,0.4,0.1,0.6c0.1-0.1,0,0,0,0c0,0,0.1,0,0,0c0,0,0,0,0.1,0
			c0.1,0-0.1,0,0,0c0.2,0,0.3,0,0.5-0.1c0.4-0.1,0.3-0.8-0.2-0.7c0,0-0.1,0-0.1,0c0,0-0.1,0-0.1,0c-0.1,0-0.2,0-0.3,0
			c-0.2,0-0.3,0.1-0.5,0.3c-0.2,0.2-0.1,0.4,0.1,0.6c0.5,0.4,1,0.7,1.5,1.2c0.5,0.5,0.8,1,1.2,1.6c0.1,0.1,0.3,0.3,0.5,0.1
			c0.7-0.5,1.2-1.3,1-2.1c-0.2-0.7-0.9-1.2-1.5-1.4c-0.4-0.1-0.9-0.2-1.3-0.1c-0.2,0-0.4,0.1-0.4,0.4
			C117,29.1,117.2,29.3,117.4,29.3L117.4,29.3z"/>
	</g>
</g>
<g>
	<g>
		<path class="st17" d="M115.6,29.1c0.1,0.2,0.2,0.5,0.2,0.7c0,0.1,0,0.1,0,0.2c0,0,0,0.1,0,0.1c0,0.1,0,0.2-0.1,0.2
			c-0.1,0.3-0.4,0.5-0.7,0.8c-0.3,0.3-0.5,0.6-0.6,1c-0.1,0.5-0.1,1,0.1,1.5c0.1,0.3,0.3,0.6,0.6,0.8c0.3,0.1,0.6,0.1,0.9,0
			c0.7-0.2,1.3-0.8,1.9-1.3c0.3-0.3,0.6-0.6,1-0.9c0.1-0.1,0.3-0.2,0.4-0.3c0,0,0.1,0,0.1-0.1c0.1-0.1,0,0,0,0c0,0,0.1-0.1,0.1-0.1
			c0.4-0.2,0-0.9-0.4-0.6c-0.5,0.3-0.9,0.8-1.3,1.1c-0.5,0.5-1.1,1-1.7,1.3c0,0-0.1,0-0.1,0.1c0,0,0,0,0,0c0,0,0,0-0.1,0
			c-0.1,0-0.1,0-0.2,0.1c0,0-0.1,0-0.1,0c0.1,0,0,0-0.1,0c0,0-0.1,0-0.1,0c-0.1,0,0,0,0,0c0,0-0.1,0-0.1,0c0,0,0.1,0,0,0
			c0,0-0.1,0,0,0c0,0,0,0-0.1-0.1c0,0,0,0,0,0c0,0,0-0.1-0.1-0.1c0-0.1,0-0.1-0.1-0.2c-0.1-0.4-0.1-0.9,0-1.2c0-0.1,0.1-0.3,0.2-0.4
			c0.1-0.1,0.2-0.3,0.4-0.4c0.3-0.3,0.6-0.6,0.7-1c0.2-0.6,0-1.1-0.3-1.6C116.1,28.3,115.4,28.7,115.6,29.1L115.6,29.1z"/>
	</g>
</g>
<g>
	<g>
		<path class="st17" d="M114.4,31.9c-1.4,2.3-4.6,3.4-6.9,4.5c-2.7,1.2-5.4,2.5-8.1,3.7c-3.1,1.4-5.8,3.2-8.2,5.7
			c-2.4,2.6-4.6,5.4-6.3,8.5c-1.7,3-2.6,6.7-5.4,8.9c-2.7,2.1-4.9,4.1-6.6,7c-3.3,5.8-4.4,12.5-7.3,18.5c-1.5,3.2-3.4,6.5-6.1,8.9
			c-1.5,1.4-3.1,1.7-5.1,1.8c-1.5,0.1-3,0.2-4.2,1.1c-0.4,0.3,0,0.9,0.4,0.6c2.4-1.8,5.9-0.4,8.4-2.2c2.4-1.7,4.1-4.3,5.6-6.8
			c3.3-5.7,4.7-12.1,7.2-18.2c1.4-3.4,3.3-6.4,6.2-8.8c1.3-1.1,2.9-2,3.9-3.3c0.9-1.2,1.4-2.7,2-4c3.1-6.7,7.9-13.2,14.7-16.5
			c3.1-1.5,6.2-2.9,9.3-4.3c2.4-1.1,5.7-2.3,7.1-4.7C115.2,31.9,114.6,31.5,114.4,31.9L114.4,31.9z"/>
	</g>
</g>
<g>
	<g>
		<path class="st17" d="M115.3,34.1c-3,3-7.9,3.7-11.7,5.4c-4.7,2-9.6,4.8-13,8.8c-3.2,3.8-4.9,8.6-7.5,12.8c-1.5,2.4-3.3,4-5.4,5.8
			c-1.9,1.6-3.2,3.5-4.5,5.6c-1.5,2.5-2.7,5-3.7,7.7c-0.6,1.5-1.2,3-1.9,4.4c-0.6,1.2-1.3,2.4-1.7,3.7c-0.1,0.4,0.6,0.6,0.7,0.2
			c0.7-2.4,2.2-4.5,3.2-6.8c1-2.6,2-5.3,3.4-7.7c1.3-2.1,2.6-4.3,4.5-6c1.8-1.6,3.8-2.9,5.1-4.9c2.9-4.1,4.5-8.9,7.4-13
			c3.2-4.4,8.2-7.3,13-9.5c4.1-1.8,9.4-2.6,12.6-5.9C116.2,34.3,115.6,33.8,115.3,34.1L115.3,34.1z"/>
	</g>
</g>
<g>
	<g>
		<path class="st17" d="M62.5,66.2c-2.7-0.8-4.5-3.4-6.4-5.2c-1.6-1.5-3.5-2.9-5.8-2.3C50,58.7,49.9,59,50,59.2
			c0.3,0.4,0.3,0.8,0.5,1.3c0.1-0.2,0.2-0.4,0.3-0.5c-2.5,0.3-4.3-1.2-6.3-2.5c-0.2-0.1-0.5,0-0.5,0.3c0,0.7,0,1.4,0.1,2.1
			c0.1-0.2,0.2-0.3,0.3-0.5c-2.9,0.1-4.3,2.4-6.4,4.1c-1.9,1.5-3.7,1.1-5.9,0.7c-1.9-0.3-4.1,0.5-5.4-1.3c-0.3-0.4-0.9,0-0.6,0.4
			c2,3.5,4.8,6.7,7.4,9.7c2.2,2.5,5.4,2,8.4,1.7c0.5-0.1,0.5-0.8,0-0.7c-1.4,0.2-2.8,0.4-4.2,0.3c-1.8-0.1-3.1-1-4.2-2.4
			c-2.3-2.9-4.9-5.7-6.8-8.9c-0.2,0.1-0.4,0.2-0.6,0.4c1,1.4,2.2,1.6,3.8,1.6c2.1,0,4.5,1,6.6,0.3c3.1-1,4.5-4.9,8-5
			c0.3,0,0.4-0.2,0.3-0.5c-0.1-0.6-0.1-1.3-0.1-1.9c-0.2,0.1-0.4,0.2-0.5,0.3c2.1,1.4,4,2.9,6.7,2.6c0.3,0,0.4-0.3,0.3-0.5
			c-0.2-0.5-0.2-0.8-0.5-1.3c-0.1,0.2-0.1,0.4-0.2,0.5c2.6-0.7,4.8,1.7,6.4,3.3c1.6,1.6,3.2,3.5,5.5,4.1
			C62.7,67,62.9,66.3,62.5,66.2L62.5,66.2z"/>
	</g>
</g>
<g>
	<g>
		<path class="st17" d="M41.7,74.1c0.1,2.1-2.5,2.6-4.1,2.9c-1.1,0.2-2.2,0.4-3.2,0.6c-0.8,0.2-1.7,0.4-2.4,0.8
			c-0.3,0.2-0.2,0.6,0.1,0.7c0.6,0.2,1.1,0.5,0.8,1.2c-0.2,0.6-0.8,1-1.3,1.3c-0.4,0.3,0,0.9,0.4,0.6c0.7-0.5,1.5-1.2,1.7-2
			c0.2-1-0.6-1.5-1.4-1.8c0,0.2,0.1,0.4,0.1,0.7c0.6-0.4,1.3-0.5,1.9-0.7c0.9-0.2,1.8-0.3,2.7-0.5c1.6-0.3,3.4-0.6,4.6-1.7
			c0.6-0.5,0.9-1.3,0.9-2.1C42.4,73.7,41.7,73.7,41.7,74.1L41.7,74.1z"/>
	</g>
</g>
<g>
	<g>
		<path class="st17" d="M75.4,70.6c1.4,3.4,3.1,6.6,5.9,9.1c1.4,1.3,3,2.5,4.7,3.4c1.5,0.9,3.3,1.8,5.1,2c0.5,0,0.5-0.7,0-0.7
			c-1.8-0.1-3.5-1.1-5-2c-1.6-0.9-3.1-2-4.4-3.3c-2.6-2.4-4.2-5.4-5.6-8.6C75.9,69.9,75.2,70.1,75.4,70.6L75.4,70.6z"/>
	</g>
</g>
<g>
	<g>
		<path class="st17" d="M31,82.5c2.4,0.4,4.5,2.9,5.8,4.9c0.7,1,1.3,2.2,1.5,3.5c0.2,1.3-0.4,2.5-1.3,3.5c-3.5,3.8-8.8,4.3-13.6,5.4
			c-2.1,0.5-5,1.2-6,3.3c-0.2,0.4,0.4,0.8,0.6,0.4c1-2.3,4.5-2.8,6.7-3.2c2.4-0.5,4.7-0.8,7-1.7c2.4-1,5.1-2.4,6.6-4.7
			c1.4-2.2,0.6-4.5-0.7-6.5c-1.4-2.2-3.7-5.1-6.4-5.5C30.8,81.7,30.6,82.4,31,82.5L31,82.5z"/>
	</g>
</g>
<g>
	<g>
		<path class="st17" d="M89.7,98.8c-1.7,3-1.6,6.5-1,9.8c0.2-0.1,0.4-0.2,0.7-0.3c-0.8-1.8-2.3-3.1-3.6-4.5
			c-1.2-1.3-2.4-2.5-3.7-3.8c-2.5-2.6-5-5.3-5.6-9c-0.1-0.5-0.8-0.3-0.7,0.2c0.6,3.5,2.9,6.3,5.3,8.8c1.3,1.3,2.6,2.6,3.8,3.9
			c1.4,1.5,3,2.9,3.9,4.8c0.2,0.4,0.7,0.1,0.7-0.3c-0.6-3.1-0.7-6.4,0.9-9.2C90.5,98.7,89.9,98.4,89.7,98.8L89.7,98.8z"/>
	</g>
</g>
<g>
	<g>
		<path class="st17" d="M90.8,84.6c-0.7,0.4-1.2,1.1-1.3,1.9c0,0.4,0.2,0.9,0.4,1.3c0.2,0.5,0.5,1.1,0.7,1.6c1,2.4,1.8,4.8,0.5,7.2
			c-0.2,0.4,0.4,0.8,0.6,0.4c1.1-2,1-4.1,0.2-6.2c-0.4-1-0.9-2-1.3-3.1c-0.2-0.4-0.5-0.9-0.3-1.3c0.1-0.5,0.5-0.9,0.9-1.1
			C91.5,85,91.2,84.4,90.8,84.6L90.8,84.6z"/>
	</g>
</g>
<g>
	<g>
		<path class="st17" d="M75.7,91c-0.1,1.1-1.1,1.8-1.7,2.6c-0.7,0.9-0.8,1.9-0.7,3c0.2,2.4,1.4,4.5,0.6,6.9c0.2,0,0.4-0.1,0.7-0.1
			c-0.7-1.1-1.8-2.1-3.2-1.4c-1.2,0.6-1.9,2.1-2.6,3.2c-0.2,0.4,0.4,0.8,0.6,0.4c0.5-0.9,1-1.8,1.8-2.5c0.3-0.3,0.7-0.6,1.2-0.6
			c0.7,0,1.3,0.8,1.6,1.3c0.2,0.3,0.6,0.2,0.7-0.1c0.8-2.4-0.3-4.5-0.6-6.9C74,96.3,74,95.7,74.1,95c0.2-0.6,0.6-1.1,1-1.6
			c0.6-0.7,1.3-1.5,1.3-2.5C76.5,90.6,75.7,90.6,75.7,91L75.7,91z"/>
	</g>
</g>
<g>
	<g>
		<path class="st17" d="M68.8,105.8c-0.8-1.3-2.6-1.6-4-1.7c-2.4-0.2-4.8-0.1-7.1,0.2c-2.1,0.2-4.3,0.5-6.4,0.9
			c-3.6,0.7-7.8,2.1-11.3,0.4c-1.2-0.6-2.3-1.5-3.5-2.2c-1.3-0.7-2.6-1-4.1-0.9c-0.5,0-0.5,0.8,0,0.7c3.6-0.3,5.6,2.8,8.8,3.6
			c4.1,1,8.3-0.7,12.3-1.3c2.5-0.4,5-0.6,7.5-0.7c1.4-0.1,2.9-0.1,4.3,0.1c1,0.1,2.3,0.4,2.9,1.3C68.4,106.6,69,106.2,68.8,105.8
			L68.8,105.8z"/>
	</g>
</g>
<g>
	<g>
		<path class="st17" d="M32,103c1.7-2.1-3.1-2.5-4.2-2.6c-3.7-0.3-7.2,1.2-10.5,2.6c-0.4,0.2-0.1,0.8,0.4,0.6c1.8-0.8,3.6-1.5,5.4-2
			c1.3-0.4,2.6-0.6,3.9-0.6c1,0.1,2,0.1,3,0.3c0.4,0.1,2,0.4,1.5,1C31.2,102.8,31.7,103.3,32,103L32,103z"/>
	</g>
</g>
<g>
	<g>
		<path class="st17" d="M69,106.1c0,0,0.1-0.1,0.1-0.1c0,0,0,0,0,0c0,0,0.1-0.1,0.1-0.1c0,0,0-0.1,0-0.1c0,0,0-0.1,0-0.1
			c0,0,0-0.1-0.1-0.1c0,0,0,0-0.1-0.1c-0.1,0-0.1,0-0.2,0c0,0-0.1,0-0.1,0c-0.1,0-0.1,0-0.2,0.1c0,0-0.1,0.1-0.1,0.1c0,0,0,0,0,0
			c0,0-0.1,0.1-0.1,0.1c0,0,0,0.1,0,0.1c0,0,0,0.1,0,0.1c0,0,0,0.1,0.1,0.1c0,0,0,0,0.1,0.1c0.1,0,0.1,0,0.2,0c0,0,0.1,0,0.1,0
			C68.9,106.2,68.9,106.2,69,106.1L69,106.1z"/>
	</g>
</g>
<g>
	<g>
		<path class="st17" d="M69.8,76.1c-1,0.6-2.4,0.6-3.5,0.7c-1.2,0.2-2.4,0.6-3.6,1.1c-1.2,0.5-2.4,1.1-3.6,1.6
			c-1.5,0.7-3,1.1-4.6,1.3c-1.3,0.1-2.4,0.4-3.6,0.9c-1.3,0.5-2.6,0.7-4,0.6c-2.6-0.1-4.9-0.5-7.3,0.7c-0.4,0.2-0.1,0.8,0.4,0.6
			c2.8-1.3,5.5-0.4,8.4-0.6c1.2-0.1,2.3-0.5,3.5-0.9c1.3-0.5,2.7-0.5,4-0.7c2.7-0.4,5.2-2,7.7-3c1.3-0.5,2.6-0.8,4-0.9
			c0.9-0.1,1.9-0.2,2.7-0.7C70.6,76.5,70.2,75.9,69.8,76.1L69.8,76.1z"/>
	</g>
</g>
<g>
	<g>
		<path class="st17" d="M54.8,80.9c-0.2-0.4-0.7-0.1-1,0c-0.5,0.2-0.9,0.5-1.4,0.8c-1.2,0.8-2.3,1.6-3.4,2.4
			c-0.4,0.3-0.8,0.6-1.1,0.9c-0.3,0.3,0.2,0.8,0.5,0.5c0.7-0.6,1.5-1.1,2.2-1.7c1-0.7,2-1.4,3.1-2.1c0.2-0.1,0.4-0.2,0.6-0.3
			c0,0,0.1-0.1,0.1,0c0,0,0.1,0,0.1,0c0,0,0.1,0,0.1,0c-0.1,0.1-0.3-0.2-0.3-0.1C54.4,81.7,55,81.4,54.8,80.9L54.8,80.9z"/>
	</g>
</g>
<g>
	<g>
		<path class="st17" d="M62.4,69.7c-1.4,0.2-2.6-0.4-3.9-0.8c-1.2-0.3-2.5-0.4-3.7-0.6c-3-0.3-6-0.4-9-0.3
			c-4.5,0.1-9.8,1.9-13.6-1.4c-0.3-0.3-0.9,0.2-0.5,0.5c3.7,3.3,8.6,1.9,13.1,1.7c3-0.2,6.1-0.1,9.1,0.2c1.6,0.2,3.3,0.3,4.9,0.7
			c1.2,0.4,2.4,0.8,3.7,0.7C62.8,70.4,62.8,69.7,62.4,69.7L62.4,69.7z"/>
	</g>
</g>
<g>
	<g>
		<path class="st17" d="M70.9,76.3c0,1.4-0.2,2.8-0.1,4.1c0,1.4,0.4,2.6,0.8,3.9c0.4,1.1,0.9,2.2,1.1,3.4c0.3,1.5-0.1,2.9-1.1,4.1
			c-0.3,0.4,0.2,0.9,0.5,0.5c0.8-1,1.4-2.1,1.4-3.4c0.1-1.3-0.4-2.5-0.8-3.6c-0.5-1.4-1.1-2.8-1.2-4.3c-0.1-1.6,0.1-3.1,0.1-4.7
			C71.6,75.8,70.9,75.8,70.9,76.3L70.9,76.3z"/>
	</g>
</g>
<g>
	<g>
		<path class="st17" d="M63.9,90.9c-2.1,0.4-4.3,0.9-6.4,1.4c-2.2,0.5-4-0.4-6.1-0.7c-1.8-0.3-3.5,0-5.3,0.3
			c-0.5,0.1-0.3,0.8,0.2,0.7c2-0.4,4-0.5,6,0c1.8,0.5,3.5,0.9,5.4,0.5c2.1-0.5,4.2-0.9,6.4-1.4C64.6,91.5,64.4,90.8,63.9,90.9
			L63.9,90.9z"/>
	</g>
</g>
<g>
	<g>
		<path class="st17" d="M133.6,73.5c-3.1,0.1-6.3,0.1-9.1-1.6c-0.2-0.1-0.4,0.2-0.2,0.3c2.8,1.7,6.1,1.7,9.3,1.6
			C133.8,73.9,133.8,73.5,133.6,73.5L133.6,73.5z"/>
	</g>
</g>
<g>
	<g>
		<path class="st17" d="M123.9,72.1c0.6,1.1,0.1,2.7-0.2,3.9c-0.3,1-0.7,2.4-1.6,3c-1.1,0.8-4,1.6-2.8,3.4c0.1-0.1,0.1-0.2,0.2-0.3
			c-1.4-0.2-2.8-0.8-4.1-1.4c-0.2-0.1-0.4,0.2-0.2,0.3c1.3,0.6,2.7,1.2,4.2,1.4c0.1,0,0.3-0.1,0.2-0.3c-0.7-1,0.3-1.6,1.1-2.1
			c0.8-0.4,1.7-0.8,2.2-1.6c0.6-1,1-2.2,1.3-3.4c0.2-1,0.5-2.3-0.1-3.3C124.1,71.7,123.8,71.9,123.9,72.1L123.9,72.1z"/>
	</g>
</g>
<g>
	<g>
		<path class="st17" d="M114.7,91.5c1.6,0.9,3.4,1,5.2,0.9c0.2,0,0.2-0.4,0-0.4c-1.7,0.1-3.5,0-5-0.8
			C114.7,91.1,114.5,91.4,114.7,91.5L114.7,91.5z"/>
	</g>
</g>
<g>
	<g>
		<path class="st17" d="M115.2,80.7c-3.7-1.2-6.3,3.1-10,2.7c-0.2,0-0.2,0.2-0.1,0.3c0.5,0.4,0.9,0.8,1.3,1.2c0-0.1,0.1-0.2,0.1-0.3
			c-1.4,0.1-3.1-0.5-4.2,0.7c-0.1,0.1-0.1,0.3,0.1,0.3c2,0.3,3.4,2.5,5.5,1.7c-0.1,0-0.1-0.1-0.2-0.1c0.1,0.6-0.3,0.9-0.8,1.1
			c-0.2,0.1-0.1,0.4,0.1,0.3c0.8-0.1,1.5-0.1,2.3-0.1c0.2,0,0.2-0.3,0-0.4c-0.8-0.1-1.6,0-2.4,0.1c0,0.1,0.1,0.2,0.1,0.3
			c0.7-0.2,1.2-0.8,1-1.5c0-0.1-0.1-0.2-0.2-0.1c-2,0.7-3.4-1.4-5.3-1.7c0,0.1,0.1,0.2,0.1,0.3c1.1-1.1,2.7-0.4,4-0.5
			c0.1,0,0.2-0.2,0.1-0.3c-0.4-0.4-0.8-0.8-1.3-1.2c0,0.1-0.1,0.2-0.1,0.3c3.6,0.4,6.2-3.8,9.9-2.7
			C115.3,81.2,115.4,80.8,115.2,80.7L115.2,80.7z"/>
	</g>
</g>
<g>
	<g>
		<path class="st17" d="M119.9,92.2c-2.2,1.5-5.4,2.3-5.6,5.5c0,0.2,0.2,0.2,0.3,0.1c0.1-0.1,0.3-0.3,0.4-0.4
			c0.5-0.1,0.3,0.3,0.3,0.5c-0.1,0.4-0.3,0.8-0.5,1.1c-0.4,0.6-0.9,1.2-1.4,1.7c-1.1,1-2.3,1.9-3.2,3c-0.1,0.2,0,0.4,0.2,0.3
			c0.2-0.1,1.6-0.8,1.1-1.2c-0.4-0.4-1.2,0.8-1.4,1c-0.1,0.2,0.1,0.3,0.2,0.2c1-0.5,2-1,3-1.4c1-0.3,2-0.4,3-0.6
			c0.9-0.1,1.6-0.6,2.4-0.9c1-0.4,2.1-0.7,3.2-0.8c0.2,0,0.2-0.4,0-0.4c-1.1,0.1-2.1,0.4-3.1,0.7c-1,0.4-1.8,0.9-2.9,1
			c-2.1,0.2-4,1-5.9,1.9c0.1,0.1,0.2,0.2,0.2,0.2c0.2-0.2,0.3-0.4,0.5-0.6c0.1-0.1,0.4-0.3,0.3-0.3c-0.1-0.1-0.2,0.1-0.3,0.2
			c-0.2,0.2-0.5,0.3-0.8,0.5c0.1,0.1,0.1,0.2,0.2,0.3c1.3-1.6,3.1-2.6,4.4-4.2c0.4-0.5,1.2-1.7,0.9-2.4c-0.3-0.7-1-0.2-1.3,0.2
			c0.1,0,0.2,0.1,0.3,0.1c0.2-2.9,3.4-3.7,5.4-5.2C120.3,92.4,120.1,92,119.9,92.2L119.9,92.2z"/>
	</g>
</g>
<g>
	<g>
		<path class="st17" d="M128.8,88.4c-3.1-1.3-6.2,0.1-9.4,0.3c-1.7,0.1-3.1-0.3-4.3-1.5c-0.9-1-1.6-2.1-3-2.3
			c-0.2,0-0.3,0.3-0.1,0.3c1.6,0.3,2.3,1.9,3.4,2.8c1,0.8,2.1,1.1,3.4,1.1c3.3,0,6.6-1.6,9.8-0.3C128.9,88.8,129,88.5,128.8,88.4
			L128.8,88.4z"/>
	</g>
</g>
<g>
	<g>
		<path class="st17" d="M26.8,110.9c0.2-2.1,0.9-4.2,2.9-5.2c1.1-0.6,3-1.5,1.9-3c0,0.1-0.1,0.2-0.1,0.3c0.2,0,0.3,0,0.5,0.1
			c0.2,0.1,0.3-0.3,0.1-0.3c-0.2-0.1-0.4-0.1-0.6-0.1c-0.2,0-0.2,0.2-0.1,0.3c1.1,1.4-1.8,2.3-2.6,2.9c-1.5,1.2-2.1,3.2-2.3,5
			C26.4,111.2,26.8,111.2,26.8,110.9L26.8,110.9z"/>
	</g>
</g>
<g>
	<g>
		<path class="st17" d="M29.9,84.7c-2.4,0.5-4.6-0.1-6.8-1c-1.7-0.7-3.4-1.3-5.3-1.4c-3.6-0.1-7,1.6-9.9,3.7c-0.2,0.1,0,0.4,0.2,0.3
			c3.2-2.3,7.2-4.2,11.2-3.5c2,0.3,3.7,1.3,5.6,1.9c1.7,0.5,3.4,0.6,5.1,0.3C30.2,85,30.1,84.6,29.9,84.7L29.9,84.7z"/>
	</g>
</g>
<g>
	<g>
		<path class="st17" d="M27.9,97.1c2-0.3,4.1-0.6,6.1-0.2c0.2,0,0.3-0.3,0.1-0.3c-2.1-0.4-4.2-0.1-6.3,0.2
			C27.5,96.8,27.6,97.1,27.9,97.1L27.9,97.1z"/>
	</g>
</g>
<g>
	<g>
		<path class="st17" d="M10.5,91.5c3.9,0.8,7.5,2.8,11,4.6c0.2,0.1,0.4-0.2,0.2-0.3c-3.6-1.8-7.1-3.8-11.1-4.6
			C10.4,91.1,10.3,91.4,10.5,91.5L10.5,91.5z"/>
	</g>
</g>
<g>
	<g>
		<path class="st17" d="M9.9,89.6c3.6-1,7.3-0.1,11-0.1c3.1,0,6.3-0.6,9-2.1c0.2-0.1,0-0.4-0.2-0.3c-3,1.6-6.5,2.2-9.9,2.1
			c-3.4-0.1-6.7-0.8-10.1,0.2C9.5,89.3,9.6,89.6,9.9,89.6L9.9,89.6z"/>
	</g>
</g>
<g>
	<g>
		<path class="st17" d="M84.9,95.4c1.8,0.8,3.6,1.8,5.5,2.7c1.5,0.7,3.8,1.1,4.1,3c0.5,3.4-3.8,6.2-6.6,7.1c-0.2,0.1-0.2,0.3,0,0.3
			c2.9,1,0.5,5,1.2,7.2c0.1,0.2,0.4,0.1,0.3-0.1c-0.3-2.2,2.6-0.6,3.4-0.1c1,0.6,1.9,1.2,2.9,1.9c0.6,0.5,1.2,0.9,1.8,1.5
			c0.4,0.4,1.1,0.9,1.3,1.4c0.1,0.2,0.4,0.1,0.3-0.1c-0.2-0.5-0.7-0.9-1.1-1.2c-0.7-0.7-1.4-1.3-2.2-1.8c-1.2-0.9-2.5-1.8-3.9-2.4
			c-1.3-0.6-3.2-1-2.9,1c0.1,0,0.2-0.1,0.3-0.1c-0.8-2.4,1.9-6.3-1.4-7.4c0,0.1,0,0.2,0,0.3c2.9-1,6.8-3.6,6.9-7
			c0-1.6-1.1-2.4-2.5-3c-2.5-1.1-4.9-2.3-7.4-3.4C84.9,95,84.7,95.3,84.9,95.4L84.9,95.4z"/>
	</g>
</g>
<g>
	<g>
		<path class="st17" d="M108.1,94.3c-2.8-0.1-5.6,0.6-8.2,1.8c-1.3,0.7-2.5,1.5-3.7,2.3c-0.9,0.7-2,1.3-1.8,2.6
			c0,0.2,0.4,0.1,0.3-0.1c-0.1-0.9,0.6-1.3,1.2-1.8c0.5-0.4,1-0.8,1.6-1.2c1-0.7,2.1-1.3,3.2-1.8c2.3-1.1,4.8-1.6,7.4-1.5
			C108.3,94.6,108.3,94.3,108.1,94.3L108.1,94.3z"/>
	</g>
</g>
<g>
	<g>
		<path class="st17" d="M85,95.4C85,95.4,85,95.4,85,95.4c0-0.1,0-0.1,0-0.1c0,0,0,0,0,0c0,0,0,0,0,0c0-0.1,0-0.1,0.1-0.2
			c0-0.1,0.1-0.2,0.2-0.3c0,0,0,0,0-0.1c0,0,0,0,0,0c0,0,0,0,0,0c0,0,0,0,0,0c0,0,0.1-0.1,0.1-0.1c0.1-0.1,0.1-0.1,0.2-0.2
			c0,0,0,0,0,0c0,0,0,0,0,0c0,0,0,0,0,0c0,0,0.1,0,0.1-0.1c0.1,0,0.1-0.1,0.2-0.1c0,0,0,0,0,0c0,0,0,0,0,0c0,0,0,0,0.1,0
			c0,0,0.1,0,0.1,0c0,0,0.1,0,0.1,0c0,0,0,0,0,0c0,0,0,0,0,0c0,0,0,0,0,0c0.1,0,0.1,0,0.2,0c0,0,0,0,0,0c0,0,0,0,0,0c0,0-0.1,0,0,0
			c0,0,0.1,0,0.1,0c0,0,0,0,0.1,0c0,0,0,0,0,0c0,0,0,0,0,0c0,0,0,0,0.1,0c0,0,0,0,0,0c0,0,0,0,0,0c0,0,0,0,0,0c0,0,0,0,0,0
			c0,0,0,0,0,0c0,0,0,0,0,0.1c0,0,0-0.1,0,0c0,0,0,0,0,0c0,0,0,0,0,0c0,0,0,0,0,0c0,0,0,0,0,0c0,0,0,0,0,0c0,0,0,0,0,0
			c0,0,0,0,0,0.1c0,0,0,0,0,0c0,0,0,0,0,0c0,0,0,0,0,0c0,0,0,0,0,0.1c0,0,0,0,0,0c0,0,0,0,0,0c0,0,0,0,0,0c0,0,0,0,0,0
			c0,0,0,0.1-0.1,0.1c0,0-0.1,0.1-0.1,0.1c0,0,0,0,0,0c0,0,0,0,0,0c0,0,0,0,0,0c0,0,0,0,0,0c-0.2,0.1-0.4,0.2-0.6,0.3
			c-0.1,0-0.1,0.1-0.2,0.1c-0.1,0-0.1,0.2-0.1,0.2c0.1,0.1,0.2,0.1,0.2,0.1c0.2-0.1,0.5-0.2,0.7-0.4c0.2-0.1,0.3-0.2,0.4-0.4
			c0.2-0.2,0.3-0.5,0.1-0.7c-0.2-0.2-0.4-0.3-0.7-0.3c-0.3,0-0.6,0.1-0.9,0.3c-0.4,0.3-0.6,0.6-0.8,1c0,0.1-0.1,0.1-0.1,0.2
			c0,0.1,0,0.2,0.1,0.2C84.9,95.6,84.9,95.5,85,95.4L85,95.4z"/>
	</g>
</g>
<g>
	<g>
		<path class="st17" d="M86.9,95c1.8,1.4,4.3,1.4,6,3c0.9,0.9,1.5,2,2.3,2.9c0.8,0.8,1.6,1.6,2.7,2.1c2.5,1.3,5.4,1.8,8,2.8
			c2.7,1.1,5.1,2.8,8,3.4c0.2,0,0.3-0.3,0.1-0.3c-2.7-0.5-4.9-2.1-7.3-3.1c-2.8-1.2-5.9-1.7-8.5-3.1c-1.1-0.6-2-1.4-2.8-2.4
			c-0.8-0.9-1.4-2-2.2-2.7c-1.7-1.5-4.1-1.5-5.8-2.9C87,94.6,86.7,94.9,86.9,95L86.9,95z"/>
	</g>
</g>
<g>
	<g>
		<path class="st17" d="M96.7,102.4c4.9-2.8,10.7-0.6,16-1.2c0.2,0,0.2-0.4,0-0.4c-5.4,0.6-11.2-1.5-16.2,1.3
			C96.3,102.2,96.5,102.6,96.7,102.4L96.7,102.4z"/>
	</g>
</g>
<g>
	<g>
		<path class="st17" d="M98.9,104.1c4.1,2.9,4.4,8.9,4.3,13.4c0,0.2,0.4,0.2,0.4,0c0.1-4.7-0.3-10.7-4.5-13.7
			C98.9,103.7,98.8,104,98.9,104.1L98.9,104.1z"/>
	</g>
</g>
<g>
	<g>
		<path class="st17" d="M102.9,111c1.9,0.6,3.3,2.1,4.4,3.8c0.1,0.2,0.4,0,0.3-0.2c-1.1-1.7-2.6-3.3-4.6-3.9
			C102.8,110.6,102.7,110.9,102.9,111L102.9,111z"/>
	</g>
</g>
<g>
	<g>
		<path class="st17" d="M33.5,107.3c1.9,0.9,3.8,1.9,5.7,2.7c1.2,0.6,3.1,0.9,3.7,2.2c0.7,1.5-0.3,3.2-1.3,4.4c-1,1.1-2.3,2-3.6,2.8
			c-0.2,0.1,0,0.4,0.2,0.3c2.4-1.3,6-4,5.2-7.2c-0.4-1.5-1.9-1.9-3.2-2.5c-2.2-0.9-4.3-2.1-6.5-3.1
			C33.5,106.9,33.3,107.2,33.5,107.3L33.5,107.3z"/>
	</g>
</g>
<g>
	<g>
		<path class="st17" d="M58.2,126.5c0.2,0.1,0.3,0.7,0.4,0.9c0.3,0.7,0.6,1.3,0.9,2c0.5,1.2,1,2.5,1.8,3.6c0.4,0.6,0.6,0.8,1.3,0.7
			c2-0.3,4,0.5,4.9,2.5c0.1,0.1,0.2,0.1,0.3,0c1.1-0.9,1.2-1.8,0.5-3c-0.4-0.7-1.2-1.6-0.8-2.5c0.5-1.2,2.1-0.8,3.1-0.5
			c1.9,0.6,3.7,1.1,5.6,1.3c2.9,0.4,5.9,0.5,8.8,1c0.2,0,0.3-0.2,0.2-0.3c-1.1-1.4-3-1.5-4.5-2.4c-1.2-0.7-1.8-2.4-0.7-3.4
			c0.9-0.8,2.2-0.9,3.3-0.8c0.2,0,0.2-0.2,0.1-0.3c-0.5-0.4-0.9-0.8-1.3-1.2c0,0.1-0.1,0.2-0.1,0.3c1.5-0.1,3,0.5,4.2-0.7
			c0.1-0.1,0.1-0.3-0.1-0.3c-1.2-0.2-2-1-3.1-1.5c-0.3-0.2-0.7-0.3-1.1-0.4c-0.2,0-0.4,0-0.6,0c0,0,0,0,0,0
			c-0.6,0.2-0.5-0.1,0.4-0.8c0.2-0.1,0.2-0.4,0-0.4c-1.6,0.1-2.8,0.5-4.2-0.4c-1-0.7-1.9-1.4-2.9-2.1c-1.9-1.2-3.8-1.7-5.9-1.3
			c-0.2,0-0.1,0.4,0.1,0.3c2.8-0.5,5,0.7,7.2,2.3c0.8,0.6,1.6,1.4,2.6,1.6c1,0.3,2.2-0.1,3.2-0.1c0-0.1,0-0.2,0-0.4
			c-0.7,0.3-1.2,0.7-1,1.5c0,0.1,0.1,0.2,0.2,0.1c2.1-0.7,3.4,1.4,5.3,1.7c0-0.1-0.1-0.2-0.1-0.3c-1.1,1-2.6,0.4-4,0.5
			c-0.1,0-0.2,0.2-0.1,0.3c0.4,0.4,0.8,0.8,1.3,1.2c0-0.1,0.1-0.2,0.1-0.3c-1.8-0.2-4.7,0.5-4.3,2.9c0.6,2.9,4.3,2.4,5.9,4.4
			c0.1-0.1,0.1-0.2,0.2-0.3c-4.1-0.7-8.5-0.5-12.6-1.6c-1.4-0.4-4.6-2.1-5.4,0.1c-0.4,1,0.2,1.8,0.7,2.6c0.4,0.7,0.8,1.3,0.4,2
			c-0.5,1-0.8-0.2-1.3-0.7c-0.9-0.9-2.2-1.4-3.4-1.4c-0.3,0-0.7,0.2-1,0.2c-0.6,0-0.9-0.5-1.2-1.1c-0.6-1.1-1.1-2.3-1.6-3.5
			c-0.3-0.6-0.5-1.3-0.8-1.9c-0.1-0.2-0.2-0.6-0.3-0.7C58.3,126.1,58,126.3,58.2,126.5L58.2,126.5z"/>
	</g>
</g>
<g>
	<g>
		<path class="st17" d="M68.5,116.8c2.2-1.6,5.3-2.3,5.6-5.5c0-0.2-0.2-0.2-0.3-0.1c-0.8,0.7-0.9-0.1-0.5-0.9
			c0.2-0.3,0.4-0.6,0.6-0.9c0.5-0.6,1-1.1,1.6-1.6c1-0.8,2-1.6,2.8-2.7c0.1-0.2-0.1-0.3-0.2-0.2c-1.7,0.9-3.4,1.4-5.2,1.9
			c-1.7,0.4-3.3,1-5,1.5c-1.9,0.5-3.7,0.4-5.5-0.2c-1.6-0.6-3.1-1.2-4.7-1.6c-2.9-0.7-5.4-0.3-8,1.1c-2.3,1.2-5.1,2.4-6.6,4.6
			c-0.1,0.2,0.2,0.4,0.3,0.2c1.6-2.5,5-3.8,7.5-4.9c1.6-0.7,3.1-1.1,4.9-0.9c1.7,0.2,3.3,0.8,4.9,1.4c1.3,0.5,2.6,1.2,4,1.2
			c0.6,0,1.3,0.1,2,0c0.8-0.1,1.7-0.5,2.5-0.7c3.1-1,6.2-1.5,9-3c-0.1-0.1-0.2-0.2-0.2-0.2c-1.5,2-4.3,3.1-5.2,5.5
			c-0.5,1.3,0.2,1.9,1.2,0.9c-0.1,0-0.2-0.1-0.3-0.1c-0.3,3-3.3,3.7-5.4,5.2C68.2,116.6,68.4,116.9,68.5,116.8L68.5,116.8z"/>
	</g>
</g>
<g>
	<g>
		<path class="st17" d="M33.6,107.3C33.6,107.2,33.6,107.2,33.6,107.3c0-0.1,0-0.1,0-0.1c0,0,0,0,0,0c0,0,0,0,0,0
			c0-0.1,0-0.1,0.1-0.2c0-0.1,0.1-0.2,0.2-0.3c0,0,0,0,0-0.1c0,0,0,0,0,0c0,0,0,0,0,0c0,0,0,0,0,0c0,0,0.1-0.1,0.1-0.1
			c0.1-0.1,0.1-0.1,0.2-0.2c0,0,0,0,0,0c0,0,0,0,0,0c0,0,0,0,0,0c0,0,0.1,0,0.1-0.1c0.1,0,0.1-0.1,0.2-0.1c0,0,0,0,0,0c0,0,0,0,0,0
			c0,0,0,0,0.1,0c0,0,0.1,0,0.1,0c0,0,0.1,0,0.1,0c0,0,0,0,0,0c0,0,0,0,0,0c0,0,0,0,0,0c0.1,0,0.1,0,0.2,0c0,0,0,0,0,0c0,0,0,0,0,0
			c0,0-0.1,0,0,0c0,0,0.1,0,0.1,0c0,0,0,0,0.1,0c0,0,0,0,0,0c0,0,0,0,0,0c0,0,0,0,0.1,0c0,0,0,0,0,0c0,0,0,0,0,0c0,0,0,0,0,0
			c0,0,0,0,0,0c0,0,0,0,0,0c0,0,0,0,0,0.1c0,0,0-0.1,0,0c0,0,0,0,0,0c0,0,0,0,0,0c0,0,0,0,0,0c0,0,0,0,0,0c0,0,0,0,0,0c0,0,0,0,0,0
			c0,0,0,0,0,0.1c0,0,0,0,0,0c0,0,0,0,0,0c0,0,0,0,0,0c0,0,0,0,0,0.1c0,0,0,0,0,0c0,0,0,0,0,0c0,0,0,0,0,0c0,0,0,0,0,0
			c0,0,0,0.1-0.1,0.1c0,0-0.1,0.1-0.1,0.1c0,0,0,0,0,0c0,0,0,0,0,0c0,0,0,0,0,0c0,0,0,0,0,0c-0.2,0.1-0.4,0.2-0.6,0.3
			c-0.1,0-0.1,0.1-0.2,0.1c-0.1,0-0.1,0.2-0.1,0.2c0.1,0.1,0.2,0.1,0.2,0.1c0.2-0.1,0.5-0.2,0.7-0.4c0.2-0.1,0.3-0.2,0.4-0.4
			c0.2-0.2,0.3-0.5,0.1-0.7c-0.2-0.2-0.4-0.3-0.7-0.3c-0.3,0-0.6,0.1-0.9,0.3c-0.4,0.3-0.6,0.6-0.8,1c0,0.1-0.1,0.1-0.1,0.2
			c0,0.1,0,0.2,0.1,0.2C33.4,107.4,33.5,107.4,33.6,107.3L33.6,107.3z"/>
	</g>
</g>
<g>
	<g>
		<path class="st17" d="M35.5,106.8c1,0.8,2.2,1.1,3.3,1.5c2,0.6,3,1.7,4.2,3.3c1.7,2.5,4.2,3.4,7,4.2c1.6,0.5,3.3,0.9,4.9,1.6
			c0.8,0.3,1.5,0.7,2.2,1.2c0.7,0.5,1.3,1.1,2.1,1.5c2.7,1.5,5.8,0.5,8.6,0.2c2-0.2,4.2-0.4,5.8,1.2c0.9,1,1.5,2.1,2.9,2.4
			c0.2,0.1,0.3-0.3,0.1-0.3c-1.8-0.4-2.3-2.4-3.9-3.3c-1.6-0.9-3.5-0.6-5.2-0.4c-1.9,0.2-3.8,0.7-5.7,0.5c-2.4-0.2-3.9-2.1-5.9-3.1
			c-1.7-0.9-3.6-1.4-5.5-1.9c-2-0.6-4.3-1.2-5.8-2.7c-1.3-1.2-1.9-3-3.4-4.1c-1.6-1.1-3.8-1-5.3-2.3
			C35.5,106.4,35.3,106.7,35.5,106.8L35.5,106.8z"/>
	</g>
</g>
<g>
	<g>
		<path class="st17" d="M45.7,114c3.7-1.8,7.7-0.9,11.6-0.8c3.5,0.1,7-0.4,10.2-2.1c0.2-0.1,0-0.4-0.2-0.3c-3.6,1.9-7.6,2.3-11.5,2
			c-3.5-0.2-7-0.6-10.3,1C45.4,113.8,45.5,114.1,45.7,114L45.7,114z"/>
	</g>
</g>
<g>
	<g>
		<path class="st17" d="M47.5,116c2.9,2,3.8,5.7,4.1,9c0,0.2,0.4,0.2,0.4,0c-0.4-3.4-1.3-7.2-4.3-9.3
			C47.5,115.5,47.3,115.9,47.5,116L47.5,116z"/>
	</g>
</g>
<g>
	<g>
		<path class="st17" d="M51.5,122.8c1.6,0.5,2.9,1.8,3.9,3.1c0.1,0.2,0.4,0,0.3-0.2c-1-1.4-2.4-2.7-4.1-3.3
			C51.3,122.4,51.3,122.7,51.5,122.8L51.5,122.8z"/>
	</g>
</g>
<g>
	<g>
		<path class="st17" d="M98.9,120.4c0.6,0.9,1.4,1.7,2,2.6c0.1,0.1,0.2,0.1,0.3,0c2-3.1,5.1-5.9,9-5.4c0.1,0,0.2-0.2,0.2-0.3
			c-0.8-1.7-1-3.6,0.5-4.9c0.2-0.2-0.1-0.4-0.3-0.3c-1.7,1.5-1.5,3.5-0.6,5.4c0.1-0.1,0.1-0.2,0.2-0.3c-4.1-0.5-7.3,2.3-9.3,5.5
			c0.1,0,0.2,0,0.3,0c-0.6-0.9-1.4-1.7-2-2.6C99.1,120,98.8,120.2,98.9,120.4L98.9,120.4z"/>
	</g>
</g>
<g>
	<g>
		<path class="st17" d="M68.6,22.4c0.3-2.2,0.8-4.5,2-6.4c0.7-1.1,1.9-2.1,3.1-2.8c0.4-0.2,1.1-0.7,1.6-0.4c0.3,0.1,0.4,0.5,0.4,0.7
			c0,0.2,0.1,0.8-0.3,0.7c-0.1,0-0.2-0.5-0.2-0.6c-0.5-2.2,1.9-4,3.7-4.7c0.2-0.1,0.1-0.4-0.1-0.3c-2.2,0.9-5.1,3.4-3.6,6
			c0,0.1,0.1,0.1,0.2,0.1c0.7,0,0.8-0.5,0.8-1.1c0-0.4-0.2-0.9-0.6-1.1c-0.9-0.5-2.1,0.5-2.8,1c-1.1,0.8-2.1,1.8-2.7,3
			c-1,1.9-1.5,4-1.7,6C68.2,22.6,68.5,22.6,68.6,22.4L68.6,22.4z"/>
	</g>
</g>
<g>
	<g>
		<path class="st17" d="M65.1,20.3c-1.9-2.3-2.5-5.1-1.6-8c0.9-2.8,2.8-5.1,5.1-7c0.2-0.1-0.1-0.4-0.3-0.3c-2.4,2-4.5,4.5-5.3,7.6
			c-0.8,2.9-0.1,5.7,1.8,7.9C65,20.7,65.2,20.5,65.1,20.3L65.1,20.3z"/>
	</g>
</g>
<g>
	<g>
		<path class="st17" d="M79.5,76.7c3.7-5.4,11.7-1.7,16.1-6.2c0.2-0.2,0.1-0.6-0.3-0.6c-2.4,0.1-4.3-1-6-2.6
			c-0.1,0.2-0.2,0.4-0.3,0.6c0.4,0,0.8,0,1.2,0c0.3,0,0.4-0.3,0.3-0.5c-1.1-1.9-2.6-2.7-4.7-3.3c0,0.2,0,0.5,0,0.7
			c4.1-0.7,8.1-1.9,12.1-3c3.9-1,7.8-2.2,11.5,0c1.5,0.9,2.7,2.1,3.8,3.4c0.6,0.7,1.1,1.5,1.6,2.3c0.5,0.7,1.2,1.3,1.6,2
			c1,1.7,1.4,3.6,1.4,5.6c0,1.7-0.2,4.3-1.4,5.6c-0.3,0.3,0.2,0.9,0.5,0.5c0.9-1,1.1-2.2,1.3-3.5c0.3-1.5,0.4-3,0.2-4.5
			c-0.4-3.2-2.4-5.4-4.2-7.8c-1.6-2.2-3.7-4.2-6.4-5.1c-3.1-1.1-6.3-0.1-9.4,0.7c-4.3,1.1-8.5,2.4-12.8,3.1c-0.4,0.1-0.3,0.6,0,0.7
			c1.9,0.6,3.2,1.2,4.2,3c0.1-0.2,0.2-0.4,0.3-0.5c-0.4,0-0.8,0-1.2,0c-0.3,0-0.5,0.4-0.3,0.6c1.8,1.6,4,2.8,6.5,2.8
			c-0.1-0.2-0.2-0.4-0.3-0.6c-4.4,4.5-12.3,0.7-16.2,6.3C78.6,76.7,79.2,77.1,79.5,76.7L79.5,76.7z"/>
	</g>
</g>
<g>
	<g>
		<path class="st17" d="M79.9,78.4c2-0.3,4.1-0.3,6.2-0.2c1.2,0,2.5,0.1,3.7,0.4c0.7,0.1,1.8,0.4,2.2,1c0.5,0.8-0.9,1.9-1.4,2.4
			c-0.3,0.3,0.1,0.7,0.4,0.6c0.4-0.2,1.4-0.7,1.8-0.1c0.3,0.6,0.1,1.4,0,2c-0.2,0.9-0.5,1.8-0.9,2.6c-0.3,0.6-0.6,1.3-1,1.7
			c-0.3,0.3,0.2,0.8,0.5,0.5c1-1,1.5-2.6,1.9-3.9c0.3-1,0.9-3.1-0.3-3.8c-0.7-0.4-1.7,0-2.3,0.3c0.1,0.2,0.3,0.4,0.4,0.6
			c0.8-0.6,1.8-1.6,1.7-2.7c-0.1-0.9-1-1.4-1.7-1.6c-1.2-0.4-2.4-0.5-3.7-0.6c-1.4-0.1-2.8-0.1-4.2,0c-1.1,0-2.1,0.1-3.2,0.2
			C79.5,77.7,79.5,78.4,79.9,78.4L79.9,78.4z"/>
	</g>
</g>
<g>
	<g>
		<path class="st17" d="M91.1,89.3c4-1.6,8.6-1.1,12.2-3.6c0.4-0.3,0-0.9-0.4-0.6c-3.6,2.5-8.2,2-12.1,3.6
			C90.5,88.8,90.6,89.5,91.1,89.3L91.1,89.3z"/>
	</g>
</g>
<g>
	<g>
		<path class="st17" d="M114.1,67.7c-0.6,1.6-2.8,2.5-4.2,3.2c-1.5,0.8-3.1,1.4-4.8,1.9c-5.6,1.6-11.4,0.7-17.1,1.8
			c-0.5,0.1-0.3,0.8,0.2,0.7c5.9-1.2,12-0.1,17.8-2c1.8-0.6,3.5-1.3,5.2-2.2c1.3-0.7,2.9-1.7,3.5-3.1
			C115,67.5,114.3,67.3,114.1,67.7L114.1,67.7z"/>
	</g>
</g>
<g>
	<g>
		<path class="st17" d="M115.1,66.7c1.3-3.9,5.2-8.3,9.8-7.3c0.5,0.1,0.6-0.5,0.2-0.7c-0.7-0.3-1.6-0.2-1.9,0.6
			c-0.3,0.7,0.1,1.4,0.8,1.7c0.2,0.1,0.4,0,0.5-0.2c0.3-0.8,0.2-1.4-0.4-2c-0.3-0.3-0.8,0.2-0.5,0.5c0.4,0.4,0.4,0.8,0.2,1.3
			c0.2-0.1,0.4-0.1,0.5-0.2c-0.3-0.1-0.7-0.4-0.5-0.8c0.2-0.4,0.7-0.3,1.1-0.2c0.1-0.2,0.1-0.5,0.2-0.7c-5-1-9.2,3.5-10.7,7.8
			C114.3,67,115,67.1,115.1,66.7L115.1,66.7z"/>
	</g>
</g>
<g>
	<g>
		<path class="st17" d="M123.7,60.3c-2.1,0.3-4.1,1-5.8,2.4c-1.7,1.4-2.9,3.2-4,5c-0.2,0.4,0.4,0.8,0.6,0.4c1-1.7,2.2-3.4,3.7-4.7
			c1.5-1.3,3.4-2.1,5.5-2.4C124.1,61,124.1,60.3,123.7,60.3L123.7,60.3z"/>
	</g>
</g>
<g>
	<g>
		<path class="st17" d="M109,70.8c-2-2.1-4.4-3.6-7.3-4.4c-2.8-0.8-5.8-0.8-8.7-0.7c-0.5,0-0.5,0.7,0,0.7c2.8-0.1,5.6-0.1,8.3,0.6
			c2.8,0.7,5.1,2.3,7.1,4.3C108.8,71.6,109.3,71.1,109,70.8L109,70.8z"/>
	</g>
</g>
<g>
	<g>
		<path class="st17" d="M110.7,71.6c1.6,1.3,1.4,3.6,1,5.4c-0.4,1.8-1.1,3.6-1.9,5.3c-0.2,0.4,0.4,0.8,0.6,0.4
			c0.9-1.9,1.7-3.9,2.1-5.9c0.4-1.9,0.4-4.3-1.2-5.6C110.8,70.8,110.3,71.3,110.7,71.6L110.7,71.6z"/>
	</g>
</g>
<g>
	<g>
		<path class="st17" d="M101.2,74.6c0.4,2-0.7,4.1-1.9,5.7c-0.3,0.4,0.4,0.7,0.6,0.4c1.3-1.8,2.4-4,2-6.2
			C101.8,73.9,101.1,74.1,101.2,74.6L101.2,74.6z"/>
	</g>
</g>
<g>
	<g>
		<path class="st17" d="M66.1,17.4c0.4,2.8-2.3,4.2-4.7,4.9c-2.4,0.8-5,1.1-7.5,1.5c-2.9,0.4-5.8,1.4-8.1,3.1
			c-2.7,1.9-4.4,4.7-5.5,7.7c-0.1,0.4,0.5,0.7,0.7,0.3c1-2.3,5.5-4.8,7.6-2.6c0.1,0.1,0.3,0.1,0.4,0.1c3.5-2.2,9.2-3.4,12.8-0.8
			c3.8,2.8,3.4,8.7,5.2,12.7c0.2,0.4,0.8,0.1,0.7-0.3c-0.8-3-0.5-7.3,2.4-9.1c0.4-0.2,0-0.9-0.4-0.6c-3.2,2-3.6,6.6-2.7,9.9
			c0.2-0.1,0.4-0.2,0.7-0.3c-2-4.3-1.5-10.7-6.1-13.3c-3.9-2.2-9.3-1.1-12.9,1.2c0.1,0,0.3,0,0.4,0.1c-2.4-2.5-7.5,0-8.7,2.7
			c0.2,0.1,0.4,0.2,0.7,0.3c1-2.8,2.6-5.3,4.9-7.1c2.1-1.6,4.7-2.6,7.3-3.1c3.7-0.7,7.9-0.8,11.2-2.8c1.6-1,2.6-2.5,2.4-4.4
			C66.7,16.9,66,16.9,66.1,17.4L66.1,17.4z"/>
	</g>
</g>
<g>
	<g>
		<path class="st17" d="M69.8,34.6c0.2,0.4,0.4,0.7,0.4,1.2c0,0.4,0.5,0.5,0.7,0.2c0.7-1.4,1.3-3.1,2.5-4.2c0.8-0.7,1.8-1,2.7-1.5
			c0.6-0.3,1.3-0.7,1.4-1.4c0.1-0.8-0.6-1.5-1.1-2c-2-1.9-4.8-2.5-7-4c-1.2-0.8-1.8-1.7-2.2-3.1c-0.3-1.2-0.5-2.4-0.4-3.6
			c0-0.5-0.7-0.5-0.7,0c-0.1,1.9,0.3,4.4,1.4,6c1.5,2,4.3,2.6,6.4,3.8c0.6,0.4,1.2,0.8,1.8,1.3c0.4,0.3,1.1,0.9,1.2,1.4
			c0.1,0.8-1.4,1.2-1.9,1.5c-1,0.5-1.9,0.9-2.6,1.8c-0.9,1.1-1.3,2.4-2,3.6c0.2,0.1,0.4,0.1,0.7,0.2c0.1-0.7-0.2-1-0.5-1.5
			C70.2,33.8,69.6,34.2,69.8,34.6L69.8,34.6z"/>
	</g>
</g>
<g>
	<g>
		<path class="st17" d="M72.4,25c5.5-0.8,9.6,2.3,12.4,6.8c0.1,0.2,0.5,0.2,0.6,0c1.2-2.3,3.8-4.1,6.5-3.7c1.7,0.3,5,2.4,4.6,4.4
			c-0.1,0.5,0.6,0.6,0.7,0.2c0.4-2.3-2.7-4.7-4.6-5.2c-3.1-0.8-6.3,1.2-7.7,3.9c0.2,0,0.4,0,0.6,0c-1.4-2.3-3.1-4.4-5.5-5.8
			c-2.4-1.4-5-1.7-7.7-1.3C71.8,24.3,72,25,72.4,25L72.4,25z"/>
	</g>
</g>
<g>
	<g>
		<path class="st17" d="M68.6,22.7c0.2,0,0.4-0.1,0.5-0.3c0.1-0.2,0-0.5-0.2-0.5c-0.2,0-0.3,0-0.5-0.1c0.1,0.2,0.1,0.4,0.2,0.7
			c5.2-3.1,11.7-4.2,17.6-2.7c5.9,1.4,12.6,6.6,11.1,13.5c-0.1,0.4,0.6,0.6,0.7,0.2c1.5-6.8-4.7-12.3-10.6-14.1
			c-6.3-1.9-13.6-0.8-19.2,2.5c-0.3,0.2-0.2,0.7,0.2,0.7c0.1,0,0.2,0,0.3,0c-0.1-0.2-0.1-0.4-0.2-0.5c0.1-0.2,0.1-0.1-0.1-0.1
			C67.9,22.2,68.1,22.8,68.6,22.7L68.6,22.7z"/>
	</g>
</g>
<g>
	<g>
		<path class="st17" d="M65.9,16c0.4-0.4,0.8-0.8,1.2-1.2c0.4-0.3,0.8-0.6,1.3-0.7c-0.1-0.1-0.3-0.3-0.4-0.4c0,0.1,0,0.1-0.1,0.2
			c0,0,0,0.1,0,0c0,0,0,0.1,0,0.1c-0.1,0.1-0.1,0.3-0.2,0.4c-0.2,0.3-0.3,0.5-0.6,0.8c-0.2,0.3-0.4,0.4-0.7,0.6c0,0-0.1,0-0.1,0.1
			c0,0-0.1,0,0,0C66.1,15.9,66.1,15.9,65.9,16C66,15.9,65.9,16,65.9,16C65.8,16,66,16,65.9,16c-0.1,0-0.2,0-0.3,0
			c-0.2,0-0.4,0.2-0.4,0.4c0,0.2,0.2,0.3,0.4,0.4c0.7,0.1,1.4-0.4,1.9-0.9c0.5-0.5,1-1.2,1.2-1.9c0.1-0.3-0.2-0.5-0.4-0.4
			c-0.6,0.1-1.1,0.4-1.6,0.8c-0.5,0.4-0.8,0.8-1.3,1.2C65.1,15.8,65.6,16.3,65.9,16L65.9,16z"/>
	</g>
</g>
<g>
	<g>
		<path class="st17" d="M61,22.5c-1.9-1.2-3.5-3.1-3.4-5.5c-0.1,0.1-0.2,0.2-0.3,0.3c0.2-0.1,0.6-0.2,0.8-0.1c0.1,0,0.1,0.1,0.1,0.2
			c0,0.4-0.5,0.7-0.8,0.8c-0.2,0.1-0.4,0.3-0.2,0.5c1.2,1.7,3,3.1,5,3.7c0.4,0.1,0.6-0.5,0.2-0.7c-1.8-0.6-3.5-1.9-4.5-3.4
			c-0.1,0.2-0.1,0.4-0.2,0.5c0.7-0.2,1.4-0.8,1.3-1.6c-0.1-0.9-1.1-1-1.8-0.7c-0.2,0.1-0.3,0.2-0.3,0.3c-0.1,2.6,1.6,4.8,3.7,6.1
			C61,23.4,61.4,22.8,61,22.5L61,22.5z"/>
	</g>
</g>
<g>
	<g>
		<path class="st17" d="M65.2,17.1c0.6,1.9,0.9,4-0.3,5.7c-1,1.5-2.8,2.2-4.5,2.8c-4.1,1.3-8.4,1.5-12.5,2.5
			c-1.7,0.4-3.6,1.1-4.7,2.4c-0.3,0.3,0.2,0.9,0.5,0.5c1.2-1.3,3-1.9,4.7-2.3c2.2-0.5,4.4-0.9,6.6-1.2c3.5-0.6,8.3-1.2,10.5-4.4
			c1.3-1.9,1-4.2,0.4-6.2C65.7,16.4,65,16.6,65.2,17.1L65.2,17.1z"/>
	</g>
</g>
<g>
	<g>
		<path class="st17" d="M63.2,24.9c-0.2,0.8-0.3,1.7,0.3,2.3c0.5,0.5,1.2,0.7,1.6,1.2c0.9,0.9,0.7,2.6,0.5,3.8
			c-0.3,1.4-0.7,2.8-0.7,4.3c0,0.5,0.7,0.5,0.7,0c0-2.6,1.7-5.5,0.4-8c-0.3-0.6-0.9-1-1.5-1.3c-0.8-0.5-0.8-1.1-0.6-2
			C64,24.7,63.3,24.5,63.2,24.9L63.2,24.9z"/>
	</g>
</g>
<g>
	<g>
		<path class="st17" d="M66.2,30.8c1.4,0.7,3.3,1.5,3.6,3.2c0,0.2,0.3,0.3,0.4,0.3c0.2-0.1,0.3-0.2,0.3-0.4
			c-0.3-1.9-2.3-2.9-3.9-3.7C66.1,29.9,65.8,30.6,66.2,30.8L66.2,30.8z"/>
	</g>
</g>
<g>
	<g>
		<path class="st17" d="M87.2,19.8c-1.5,0.3-2.5,1.3-2.9,2.7c-0.4,1.4-0.2,2.9,0.1,4.3c0.1,0.5,0.8,0.3,0.7-0.2
			c-0.3-1.2-0.4-2.6-0.1-3.8c0.1-0.6,0.4-1.1,0.8-1.5c0.5-0.5,1.1-0.7,1.7-0.9C87.9,20.4,87.7,19.7,87.2,19.8L87.2,19.8z"/>
	</g>
</g>
<g>
	<g>
		<path class="st17" d="M86.2,18.9c-2.5,0-4.9,0.7-7.1,1.8c-0.4,0.2-0.1,0.8,0.4,0.6c2.1-1,4.4-1.7,6.7-1.7
			C86.6,19.6,86.6,18.9,86.2,18.9L86.2,18.9z"/>
	</g>
</g>
<g>
	<g>
		<path class="st17" d="M103.2,66.2c-0.3-1-0.8-2-1.6-2.7c-0.3-0.3-0.6-0.5-1-0.7c-0.2-0.1-0.4,0.1-0.4,0.3
			c-0.1,0.2,0.1,0.4,0.3,0.4c-0.1,0,0,0,0,0c0,0,0.1,0,0.1,0.1c0.1,0,0.1,0.1,0.2,0.1c0,0,0,0,0,0c0,0,0,0,0,0c0,0,0.1,0.1,0.1,0.1
			c0.1,0.1,0.1,0.1,0.2,0.2c0.1,0.1,0.2,0.2,0.3,0.4c0,0,0,0,0,0c0,0,0.1,0.1,0.1,0.1c0,0.1,0.1,0.1,0.1,0.2
			c0.2,0.3,0.3,0.5,0.4,0.8c0.1,0.1,0.1,0.2,0.2,0.4c0,0,0,0,0,0.1c0,0.1,0,0,0,0c0,0,0,0.1,0.1,0.1c0,0.1,0.1,0.2,0.1,0.3
			c0.1,0.2,0.2,0.3,0.4,0.3C103.1,66.6,103.2,66.4,103.2,66.2L103.2,66.2z"/>
	</g>
</g>
<g>
	<g>
		<path class="st17" d="M105.6,67.9c0,0.1,0.1,0.2,0.1,0.3c0,0.1,0,0.1,0.1,0.2c0,0,0.1,0.1,0.1,0.1c0.1,0.1,0.1,0.1,0.2,0.1
			c0,0,0.1,0,0.1,0c0,0,0.1,0,0.1,0c0,0,0.1,0,0.1,0c0,0,0,0,0,0c0.1-0.1,0.1-0.1,0.2-0.2c0-0.1,0.1-0.1,0.1-0.2
			c0-0.1,0.1-0.3,0.1-0.4c0-0.2,0.1-0.4,0.1-0.5c0-0.1,0-0.2-0.1-0.3c-0.1-0.1-0.2-0.1-0.3-0.1c-0.1,0-0.2,0-0.3,0.1
			c-0.1,0.1-0.1,0.2-0.1,0.3c0,0.1,0,0.2,0,0.3c0,0,0-0.1,0-0.1c0,0.2-0.1,0.4-0.1,0.5c0,0,0-0.1,0-0.1c0,0,0,0.1-0.1,0.1
			c0,0,0,0,0.1-0.1c0,0,0,0,0,0c0,0,0,0,0.1-0.1c0,0,0,0,0,0c0,0,0.1,0,0.1,0c0,0,0,0,0,0c0,0,0.1,0,0.1,0c0,0,0,0,0,0
			c0,0,0.1,0,0.1,0c0,0,0,0,0,0c0,0,0.1,0,0.1,0c0,0,0,0,0,0c0,0,0,0,0.1,0.1c0,0,0,0,0,0c0,0,0,0,0.1,0.1c0,0-0.1-0.1-0.1-0.1
			c0,0,0,0.1,0,0.1c0-0.1-0.1-0.2-0.1-0.3c0-0.1-0.1-0.2-0.2-0.2c-0.1,0-0.2-0.1-0.3,0c-0.1,0-0.2,0.1-0.2,0.2
			C105.6,67.7,105.6,67.8,105.6,67.9L105.6,67.9z"/>
	</g>
</g>
<g>
	<g>
		<path class="st17" d="M112.5,75.9C112.5,75.9,112.6,75.9,112.5,75.9C112.6,75.9,112.6,75.9,112.5,75.9c0.1,0.1,0.2,0.1,0.2,0.1
			c0,0,0.1,0,0.1,0.1c0,0,0,0,0.1,0c0,0,0.1,0.1,0,0c0,0,0,0,0,0c0,0,0,0,0.1,0.1c0,0,0.1,0.1,0.1,0.1c0,0,0.1,0.1,0.1,0.1
			c0,0,0,0,0,0c0,0,0,0,0.1,0.1c0.1,0.1,0.1,0.2,0.2,0.3c0,0,0,0,0,0.1c0,0,0,0.1,0,0c0,0,0,0.1,0,0.1c0,0.1,0.1,0.2,0.1,0.3
			c0,0,0,0.1,0,0c0-0.1,0,0,0,0c0,0.1,0,0.1,0,0.2c0,0.2,0.2,0.4,0.4,0.4c0.2,0,0.4-0.2,0.4-0.4c0-1.1-0.7-2-1.7-2.4
			c-0.2-0.1-0.4,0.1-0.4,0.3C112.2,75.6,112.3,75.8,112.5,75.9L112.5,75.9z"/>
	</g>
</g>
<g>
	<g>
		<path class="st17" d="M101.4,78.1c0,0,0.1,0.1,0.1,0.1c0,0,0,0.1,0,0c0,0,0,0,0,0c0,0.1,0.1,0.1,0.1,0.2c0,0.1,0,0,0,0
			c0,0,0,0,0,0.1c0,0,0,0.1,0,0.1c0,0,0,0.1,0,0.1c0,0,0,0,0,0.1c0,0,0-0.1,0,0c0,0.1,0,0.2,0,0.2c0,0,0,0.1,0,0.1c0,0,0,0,0,0
			c0,0,0,0,0,0.1c0,0.1,0,0.2-0.1,0.2c0,0,0,0.1,0,0.1c0,0,0,0,0,0c0,0,0,0.1,0,0.1c-0.1,0.2-0.1,0.4,0.1,0.5
			c0.2,0.1,0.4,0.1,0.5-0.1c0.4-0.8,0.3-1.8-0.3-2.4c-0.1-0.1-0.4-0.1-0.5,0C101.3,77.7,101.3,77.9,101.4,78.1L101.4,78.1z"/>
	</g>
</g>
<g>
	<g>
		<path class="st17" d="M50.6,84C50.6,84,50.6,84.1,50.6,84C50.6,84.1,50.6,84,50.6,84c0,0.1,0,0.1,0.1,0.1c0,0.1,0,0.2,0.1,0.2
			c0,0,0,0,0,0.1c0,0,0-0.1,0,0c0,0,0,0.1,0,0.1c0,0.1,0,0.2,0,0.3c0,0,0,0.1,0,0c0-0.1,0,0,0,0c0,0,0,0.1,0,0.1c0,0,0,0.1,0,0.1
			c0,0,0,0,0,0.1c0,0.1,0,0,0,0c0,0.1-0.1,0.2-0.1,0.2c0,0,0,0,0,0c0,0,0,0,0,0c0,0-0.1,0.1-0.1,0.1c-0.1,0.1-0.1,0.4,0,0.5
			c0.1,0.1,0.4,0.1,0.5,0c0.6-0.6,0.7-1.6,0.3-2.4c-0.1-0.2-0.3-0.2-0.5-0.1C50.5,83.6,50.5,83.8,50.6,84L50.6,84z"/>
	</g>
</g>
<g>
	<g>
		<path class="st17" d="M47.1,92.8c0.1,0.2,0.1,0.3,0.1,0.5c0-0.1,0,0.1,0,0.1c0,0,0,0.1,0,0.1c0,0,0,0.1,0,0.1c0,0,0,0,0,0
			c0,0,0,0,0,0.1c-0.2,0.4-0.4,0.6-0.7,0.9c-0.1,0.1-0.1,0.4,0,0.5c0.1,0.1,0.4,0.1,0.5,0c0.7-0.7,1.3-1.7,1-2.6
			c-0.1-0.2-0.3-0.3-0.4-0.3C47.2,92.5,47,92.6,47.1,92.8L47.1,92.8z"/>
	</g>
</g>
<g>
	<g>
		<path class="st17" d="M52.5,100.2c0,0.2,0,0.4,0,0.6c0,0,0-0.1,0-0.1c0,0.1,0,0.2-0.1,0.3c0,0,0-0.1,0-0.1c0,0.1-0.1,0.1-0.1,0.2
			c0,0,0,0,0.1-0.1c0,0-0.1,0.1-0.1,0.1c-0.1,0.1-0.1,0.4,0,0.5c0.1,0.1,0.4,0.1,0.5,0c0.2-0.2,0.3-0.4,0.3-0.6
			c0.1-0.3,0.1-0.5,0.1-0.8c0-0.2-0.2-0.4-0.4-0.4C52.7,99.9,52.5,100,52.5,100.2L52.5,100.2z"/>
	</g>
</g>
<g>
	<g>
		<path class="st17" d="M46.9,67.6c-0.6-0.9-0.9-1.8-1.1-2.8c-0.1-0.4-0.8-0.3-0.7,0.2c0.3,1,0.6,2.1,1.2,3c0.1,0.2,0.3,0.2,0.5,0.1
			C46.9,68,47,67.8,46.9,67.6L46.9,67.6z"/>
	</g>
</g>
<g>
	<g>
		<path class="st17" d="M53.7,68.3c0.1-0.1,0.2-0.2,0.3-0.3c0,0,0,0,0,0c0,0,0.1-0.1,0.1-0.1c0,0,0-0.1,0-0.1c0,0,0-0.1,0-0.1
			c0,0,0-0.1-0.1-0.1c0,0,0,0-0.1-0.1c-0.1,0-0.1,0-0.2,0c0,0-0.1,0-0.1,0c-0.1,0-0.1,0-0.2,0.1c-0.1,0.1-0.2,0.2-0.3,0.3
			c0,0,0,0,0,0c0,0-0.1,0.1-0.1,0.1c0,0,0,0.1,0,0.1c0,0,0,0.1,0,0.1c0,0,0,0.1,0.1,0.1c0,0,0,0,0.1,0.1c0.1,0,0.1,0,0.2,0
			c0,0,0.1,0,0.1,0C53.6,68.4,53.7,68.4,53.7,68.3L53.7,68.3z"/>
	</g>
</g>
<g>
	<g>
		<path class="st17" d="M72.3,83.9c2.7,0.5,5.5,1.8,6.7,4.4c0.2,0.4,0.8,0.1,0.6-0.4c-1.3-2.8-4.3-4.2-7.1-4.8
			C72.1,83.1,71.9,83.8,72.3,83.9L72.3,83.9z"/>
	</g>
</g>
<g>
	<g>
		<path class="st17" d="M61.5,95.8c0.7,1.3,1.4,2.6,2.3,3.7c0.1,0.2,0.3,0.2,0.5,0.1c0.2-0.1,0.2-0.3,0.1-0.5
			c-0.9-1.2-1.6-2.4-2.3-3.7C61.9,95,61.3,95.4,61.5,95.8L61.5,95.8z"/>
	</g>
</g>
<g>
	<g>
		<path class="st17" d="M63.3,97.6c1,0.6,1.9,1.3,2.9,2c0.2,0.1,0.4,0,0.5-0.1c0.1-0.2,0-0.4-0.1-0.5c-0.9-0.7-1.9-1.4-2.9-2
			c-0.2-0.1-0.4,0-0.5,0.1C63.1,97.3,63.2,97.5,63.3,97.6L63.3,97.6z"/>
	</g>
</g>
<g>
	<g>
		<path class="st17" d="M78.5,87.1c0.1,0,0.2-0.1,0.3-0.1c0,0,0.1,0,0,0c0,0,0,0,0.1,0c0,0,0.1,0,0.1,0c0.1,0,0.1,0,0.2,0
			c0,0,0,0,0.1,0c0,0-0.1,0,0,0c0.1,0,0.2,0,0.3,0.1c0,0,0,0,0.1,0c0,0,0,0,0,0c0,0,0.1,0,0.1,0.1c0,0,0.1,0,0.1,0.1c0,0,0,0,0.1,0
			c0,0,0,0,0,0c0.2,0.2,0.3,0.3,0.4,0.5c0.1,0.2,0.3,0.2,0.5,0.1c0.2-0.1,0.2-0.3,0.1-0.5c-0.3-0.5-0.7-0.8-1.2-1
			c-0.5-0.2-1-0.2-1.5,0c-0.2,0.1-0.3,0.3-0.3,0.4C78.1,87,78.3,87.1,78.5,87.1L78.5,87.1z"/>
	</g>
</g>
<g>
	<path class="st17" d="M58.6,126.2c-13.5-2.2-26-8.5-35.9-18.4c-6.4-6.4-11.3-13.9-14.6-22.1c-0.1,0.1-0.3,0.3-0.5,0.3
		c3.3,8.2,8.2,15.7,14.7,22.2c10,10,22.6,16.4,36.2,18.6c0-0.1,0.1-0.2,0.2-0.4C58.6,126.4,58.6,126.3,58.6,126.2z"/>
	<path class="st17" d="M79.4,126.8c6.9-1.1,13.6-3.2,19.7-6.4c-0.2-0.1-0.3-0.3-0.4-0.4c-6,3-12.4,5.1-19.1,6.2
		C79.7,126.4,79.6,126.6,79.4,126.8z"/>
	<path class="st17" d="M134.2,73.5L134.2,73.5c-0.2,0-0.4,0-0.5,0c-2.4,12.9-8.6,24.8-18.1,34.3c-1.6,1.6-3.3,3.2-5.1,4.6
		c0,0-0.1,0.1-0.1,0.1c0,0-0.1,0.1-0.1,0.1c0.1,0,0.2,0.1,0.3,0.2c0.1-0.2,0.3-0.3,0.4-0.4c0,0,0.1,0,0.1-0.1c0,0,0,0,0,0
		c0.1-0.1,0.3-0.2,0.4-0.3c0,0,0,0,0,0c0,0,0,0,0.1,0c0.3-0.2,0.6-0.4,0.9-0.6c1.2-1,2.3-2.1,3.4-3.2
		C125.5,98.6,131.8,86.6,134.2,73.5C134.2,73.5,134.2,73.5,134.2,73.5C134.2,73.5,134.2,73.5,134.2,73.5z"/>
</g>
</svg>
