<?xml version="1.0" encoding="utf-8"?>
<!-- Generator: Adobe Illustrator 24.0.1, SVG Export Plug-In . SVG Version: 6.00 Build 0)  -->
<svg version="1.1" id="Layer_1" xmlns="http://www.w3.org/2000/svg" xmlns:xlink="http://www.w3.org/1999/xlink" x="0px" y="0px"
	 viewBox="0 0 141.7 141.7" style="enable-background:new 0 0 141.7 141.7;" xml:space="preserve">
<style type="text/css">
	.st0{fill:#B11F24;}
	.st1{fill:#9FA137;}
	.st2{fill:#F6C693;}
	.st3{fill:#F6DBC1;}
	.st4{fill:#BC9068;}
	.st5{fill:#856343;}
	.st6{fill:#A25825;}
	.st7{fill:#555122;}
	.st8{fill:#878032;}
	.st9{fill:#3F3917;}
	.st10{fill:#F8D509;}
	.st11{fill:#FFFFFF;}
	.st12{fill:#75CEEB;}
	.st13{fill:#C9B09D;}
	.st14{fill:#F2654A;}
	.st15{fill:#C1AD48;}
	.st16{fill:#070707;}
	.st17{fill:none;stroke:#070707;stroke-width:0.42;stroke-miterlimit:10;}
</style>
<path class="st0" d="M51.1,76.6c0,0-7.6,5.3-7.3,10.6c0,0,0,3.2,2.5,5c0,0-2.9-4.6,2.4-6.7c0,0,5.5-1.9,10-0.8l0.7-0.3l14.9,1.1
	c0,0,15.2,2.4,19.5,5h1.8c0,0,0-1.4,0.3-1.3c0.3,0.1,2.3,0.5,2.9-0.1c0.6-0.6,0.1,0.1,0.1,0.1s2,1.9,2.1,2c0.2,0.2,2.1-0.2,2.1-0.2
	l2.3,0.2c0,0-1.3-10.3-12.6-15.9l-2.1,1.4c0,0-5.6,2.8-15.6,1.2l-5.1-1l-3.5-1.2L66.1,77l-0.6-0.4l-2.2,0.7l-2.1,0.9l-0.7,0.4
	l-1.5-1.3l0.5-0.5v-0.8l-1.4-0.2l-2.5,0.4l-0.6,0.2l-1.2-0.4L51.1,76.6z"/>
<path class="st1" d="M110.3,97.2c-2.7-1.7,0.3-3.2,0.3-3.2s-0.1,0-0.1-0.1c-3.4-1.9-2-2.2-2-2.2l-3.8-0.8c-2.4-0.3-3.6,0.2-3.6,0.2
	s-2.1-2-2.4-2c-0.9,0-2.7,0.1-2.7,0.1l-0.6,3.9c-1.7,1.7-2.9-0.1-3.1,1c0,0.1,0,0.1,0,0.2c-0.3,1-1.2,1.5-1.2,1.5
	c0.5,1.3-1.7,2.8-1.7,2.8c3.3-0.8,4.6,2.3,4.6,2.3l1.9-2.4c1.9-2.4,2.1,0.3,2.1,0.3l-1.6,2.2c1.6,0.9-0.7,3-0.7,3
	c2.1-0.3,2,2,1.8,2.8c0,0,0.1,0,0.1,0.1c2,1.2,1.4,2.2,1.4,2.2c1.2-2.2,2.6-1.4,2.6-1.4c0.1-2.6,2.4-1.6,2.4-1.6
	c-0.6-4.5,0.4-4,0.6-3.8c0,0,0-0.1,0-0.1c-0.2-0.6,0.3-1.7,0.3-1.7c1.1-0.6,1.1,1.9,1.2,2.3c0.2-0.2,0.5-0.3,0.8-0.3
	c0.8,0,1.2,0.5,1.3,1.1c0.7-0.8,0.8,1.1,0.8,1.1s0.2-0.9,0.2-1.3c0-2.8,1-1.5,1-1.5c-0.8-3.6,0.9-3.1,0.9-3.1
	C109,97.4,110.3,97.2,110.3,97.2z"/>
<path class="st2" d="M69.1,85.1c0.1,0.1-1,6,3.1,8.2c0,0,1.4-0.4,1.7-7.8L69.1,85.1z"/>
<path class="st2" d="M77.7,93.3c0,0,1.3,4.1,13.4-4l-7.5-1.9c0,0,0.1,1.6-1.9,3.3l-2.3,1.8L77.7,93.3z"/>
<path class="st3" d="M77,92.2c0,0,3.9-5.2,3.9-5.2v-0.3l2.4,0.5l0,1.2l-0.9,1.5l-1.7,1.6l-1.3,1L78.3,93l-0.6,0.3L77,92.2z"/>
<path class="st2" d="M75.3,91.7l1-1.8c0,0,1.3-3.7,1.4-3.6c0.1,0.1,3.7,0.4,3.7,0.4l-2.6,3.8L77,92.2l-1,0.6l-0.5-0.4l-0.2-0.5"/>
<path class="st3" d="M73.9,85.4L73.2,92c0,0,1.4,1.2,2.5-1l1.1-2.1l0.9-2.7L73.9,85.4z"/>
<path class="st3" d="M64.2,84.5c0.2,0.2,5,0.6,5,0.6v3.7l1.5,3.5l-0.5,0.5l-1.5-0.4L66.4,90l-1.5-2.8L64.2,84.5z"/>
<polygon class="st3" points="58.6,84.5 62.7,89.5 66.2,92.4 67.7,93.2 69.4,93.2 67.9,91.8 65.6,88.6 64.4,86.2 64.4,84.7 "/>
<path class="st3" d="M80.4,94.5c0.3,0.1,8.4-3.3,8.4-3.3l2.2-1.9l3.4,1l1.2,0.2l-0.3,2.4l0,0.4L93.8,94l-1.7,0.4l-5.8,0.7h-3.5
	L80.4,94.5z"/>
<path class="st4" d="M96.5,97.7l-1.4,0.6c0,0,0,0,0,0c0,0.3-0.1,0.5-0.3,0.8c-0.3,0.7-1.3,0.9-1.9,0.5c-0.1-0.1-0.2-0.2-0.3-0.3
	l-0.3,0.1l-2.2-0.6l0.7-1.4v-1.6l1.2-1.5l0.9-0.4l-7.8,1.1l-3.6-0.2l-1.2-0.4l-2.6,0c0.3,0.2,5.9,3.5,8.3,4.4
	c0.3,0.1,5.6,1.7,5.6,1.7l2,0.4l1.1,0.2l1.5-0.8l0.3-0.8v-0.4L96.5,97.7z"/>
<path class="st3" d="M50.5,84.8c0.1,0,5.5-0.5,5.5-0.5l2.6,0.2l5.2,6.2l3,2.1l1,0.2L67,93.7l-2.1-0.2l-6.2-2.2l-4.5-2.4l-2.8-2.2
	l-0.9-1.1V84.8z"/>
<path class="st4" d="M48.1,93.6c0,0-5.2-4.1-0.7-7.3l2.6-1.2l0.5-0.3c0,0-0.6,2,8,6.5l5.5,2.4l3.7-0.3l0.2,1l-3.5,0.6l-4.1-0.1
	l-5.3,0l-3.4-0.2l-2.1-0.4L48.1,93.6z"/>
<path class="st5" d="M68.1,95.2l-0.8,1l-2.7,1.1l-4,0.9l-2.7,0.4l-2.6-0.4c0,0-1.7-0.8-1.3-1.5l-1.8,0c0,0-2.5-1.2-2.4-1.7l0.6-0.5
	l11.4,0.4l4.8-0.2l1.3-0.3L68.1,95.2z"/>
<path class="st4" d="M68.7,96.9l-2.1,1.9l-2.2,0.7l-2.6,0l-2.4-0.9l6.7-2c0,0,2.2-1.3,2.1-1.2C68,95.5,68.7,96.9,68.7,96.9z"/>
<path class="st5" d="M68.8,97.5c0,0.1,0.7,3.9,0.7,3.9s-3.4,0.1-4.7-1.6l0-0.5l3-1.5l0.9-0.7L68.8,97.5z"/>
<path class="st5" d="M77.8,94.5c0,0,3.7,3.1,4,3c0.3-0.2,6.4,2.2,6.4,2.2l3.6,1.3c0,0,0.5,3.4-6.3,1.2l-4.8-2.7l-2.9-2.7l-0.3,0
	l-0.3-2.3L77.8,94.5z"/>
<polygon class="st5" points="77.8,102.6 77.7,99.5 80.7,102.1 80.4,103.1 79.4,103.1 "/>
<polygon class="st4" points="77.7,96.9 82.4,100.6 85.4,102.1 84.3,102.8 82.3,102.7 79.9,101.4 77.7,99.5 "/>
<path class="st2" d="M68.1,93.3l2-0.5l0.5-0.5c0,0,1.7,1.4,2.5,0.1c0,0,1.3,0.1,1.7-0.3c0,0,0.9,0.9,1.8,0.3l0.3,0.5l1.2,12.1
	l1.3,12.1v0.7c0,0-3.1,2.5-3.6,6.6c0,0-2.5-7.3-4.8-8c0,0,3.4,7.1,1.7,9.6l-1.3-0.1c0,0-1.9-3.1-1.7-3.2s-0.5-4.2-0.5-4.2l0-1.7
	l0.5-5.2l0.2-6l-0.6-4.8L68.1,93.3z"/>
<path class="st6" d="M57,128.6l-3.1,1.2l0.4,0.8l-0.4,1.1l0.9,0.8c0,0,2.1-1.4,1.9,1.3c0,0,1.3-0.4,0.6,1.4c0,0,3.1-1.4,2.5,1
	c-0.6,2.4,0,0.3,0,0.3s3.3-3.4,5.5-2l-1.3-1.1c0,0-1.3-1.9-1.3-1.7s1.6-2.1,3.7-0.4c0,0,1.6,1.2,1.7,1.3c0.1,0.1,1.2,1.7,1.2,1.7
	s2.3-3.3,4.3-0.8c0,0,1.5-1.2,2.8,0.1c0,0-1.2-2.2-0.5-2.2l-0.8-1.1l-1.8-0.3l-1.7-0.2l-2.1-1.4c0,0,1.9-0.8,2.1-0.6
	c0.2,0.2,1.3,0.5,1.3,0.5s0.5-0.4,0.7-0.5c0.1-0.1,1.5,0.2,1.7,0c0.2-0.1,1.8,0,1.8,0l-3.1-1.1l-1.4-0.6c0,0-0.9,0.1-0.9-0.1
	s-1.1-0.5-1.1-0.5l0.1-0.3c0,0-2.4,0.4-2.4,0.3s-1.3,0.4-1.5,0.1c-0.1-0.3-1.2-0.7-1.2-0.7l-0.7-0.7l-2.2,0.8l-1,0.5l-1.9,0.6
	l-2.2,1.1l-0.8,0.4L57,128.6z"/>
<path class="st7" d="M76.7,128.7c0,0-0.6,0.6-1.1,1c-0.4,0.5-1.3-0.5-1.3-0.5l-0.5-0.9c0,0-0.8-0.5-0.5-0.6c0.3,0,1.5-0.2,1.5-0.2
	l1.7,0.2H77L76.7,128.7z"/>
<polyline class="st7" points="69.5,128.4 71.8,127.9 72.8,128.3 73.3,129.3 73.1,130.3 70.5,129.1 69.4,128.6 "/>
<polygon class="st7" points="59.8,126.1 57.4,124.2 61.2,125.3 59.8,126.3 "/>
<polygon class="st7" points="59.8,122.7 62.7,124.8 64.2,124.6 63.3,123.4 "/>
<path class="st7" d="M59.4,118.3l3.5,2.2c0,0,2.4,3,2.7,3.3c0.2,0.3,0.9,1.1,0.9,1.1l-1.3-0.4l-1.1,0.1l-2.5-3.4L59.4,118.3z"/>
<path class="st7" d="M62.3,117.3c0.2,0.1,2.6,2.5,2.6,2.5l2.1,2.7l0.6,2.1l0.2,1l0.8-0.3l-0.6-4.2l-1.8-1.8l-2.6-1.6L62.3,117.3z"/>
<path class="st8" d="M69.4,117.2c0,0,0.1,2.8,0.2,3c0.1,0.2,1,3.4,1,3.7c0,0.3,0.8,1.7,0.8,1.7h-2.6l-0.7-4.4l0.3-2.4L69.4,117.2z"
	/>
<polygon class="st7" points="64,112.5 66.7,116.3 68.2,118.7 69.4,116.6 69.4,115.8 67.8,114.9 64.9,113 "/>
<polygon class="st8" points="71.6,117 72.8,120.5 73.3,123.7 72.8,125.8 73.9,126.7 75.6,127 75.9,124.2 74.5,120.7 73.1,118.1 "/>
<path class="st8" d="M75.9,127.4l0.1-3.7l1.4-3.6l1.8-2.5l1.7-1.4l1.7-1.5l1.9-2.3l-0.2,1.6l-0.9,1.3l-1.8,2.2c0,0-3.3,2.3-3,6.1
	c0,0-1.7-0.2-1.6-0.2s1.2,1.2,1.4,1.3c0.1,0.1,0.6,1.2,0.6,1.2l0.1,1l-0.1,0.5c0,0-0.5,0.8-0.6,1s-0.5,1-0.7,1.2
	c-0.2,0.2-0.6,0.7-0.6,0.7l0.1-2.5L75.9,127.4z"/>
<polygon class="st7" points="80.1,111.8 79.6,117.3 81.4,115.8 "/>
<polyline class="st9" points="80.2,119.3 80.6,122 82.2,120.6 82.2,117.3 81.8,117 80.1,119.5 "/>
<polygon class="st7" points="79.7,124 81.6,121.3 84.5,118.5 86.9,116.6 87.8,115.9 84.8,120.1 82.8,124.2 82,123.5 81.3,124 "/>
<polygon class="st7" points="91.9,112.1 90.1,115.6 88.2,118 86.9,118.7 86,118.6 87.1,117 89.1,114.4 "/>
<path class="st10" d="M77.7,123.8c0,0,4.1,1.2,4.3-0.3l1.8,2c0,0,1.8,0.7,1.4-1.8l-0.4-2.5l1-0.2l0.3-1.5v-0.9c0,0,1.4,0.5,1.7-1.3
	c0,0,0.7,1.5,1.8,1c0,0,0.6,2.2,2.3,1.2c0,0-0.4,1.2,1,0.8c1.4-0.4,0.1,0.3,0.1,0.3l-1.1,1.5l0.6,1.7c0,0,0.4,0.9,1.6-1.1
	c0,0,1.4,1,3.1-1.6l0.2,1l-0.1,2.2l0.5,0.9c0,0-1.1,0.5-0.8,1.7c0,0-2,1.6,0,2.7c2,1.1-0.1,0.2-0.1,0.2l-2.2,1l-1.7,0.6l-1.7,0.1
	l-1.6-0.5l-1.5,0.5c0,0-3.3,0.3-3.5,0.3c-0.1-0.1-2.3-0.4-2.3-0.4l-2.1-0.9l1.4-0.9c0,0,0.9-1.2-1.4-1.9l-1.6,0.1l0.7-1.2l-0.8-1.7
	L77.7,123.8z"/>
<path class="st11" d="M49,78.3c0,0,2.1,0.7,0.4,2l-1.9,0.6h-1.2L49,78.3z"/>
<path class="st11" d="M59.2,76.1c0,0-3.4,0.3-3.1,1.9c0.3,1.6,0,0.1,0,0.1s-0.2,2.3,3,2.5c0,0,2.6-0.2,2.7-2.3v-0.3
	c0,0-1,0.3-1.2,0.4s-1.9-0.8-1.9-0.8l0.6-0.7V76.1z"/>
<path class="st11" d="M78.5,82.1c0,0-2.6,0.2-0.6,1.6c0,0,2.3,1.1,2.5-0.7l-0.5-0.7l-0.6-0.1L78.5,82.1z"/>
<path class="st11" d="M89.1,77.6c0.1,0.2,0.6,1.5,2.8,0.4c0,0,1-0.5,0.3-1.9L89.1,77.6z"/>
<path class="st11" d="M91.2,83.7l2.5-1.1c0,0,2.4,0.2,2.5,0.2c0.1,0,2.9,1.6,0.8,3l-1.8,0.4l-2.2-0.3l-1.8-0.8
	C91.3,85.1,90.5,83.9,91.2,83.7z"/>
<path class="st11" d="M97.3,78.5c0,0-0.5,2.1,1.2,3.1c0,0,1.6,1.2,2.8,0.7c1.2-0.6,0.1,0,0.1,0L97.3,78.5z"/>
<path class="st11" d="M104.3,87.1c0,0-2.3-0.4-1.6,1c0.6,1.4,0,0.2,0,0.2s1.9,1.2,2.7,1.3l-1-2.2L104.3,87.1z"/>
<g>
	<g>
		<path class="st4" d="M97.3,98.8c0-0.1,0-0.1,0-0.2c0,0,0,0,0,0c0-0.1,0-0.2-0.1-0.3c0-0.1-0.1-0.2-0.1-0.2
			C97,98.1,96.9,98,96.9,98c-0.1,0-0.2-0.1-0.3-0.1c-0.1,0-0.1,0-0.2,0c-0.1,0-0.2,0.1-0.3,0.2c0,0-0.1,0.1-0.1,0.1
			c-0.1,0.1-0.1,0.2-0.1,0.4c0,0.1,0,0.1,0,0.2c0,0,0,0,0,0c0,0.1,0,0.2,0.1,0.3c0,0.1,0.1,0.2,0.1,0.2c0.1,0.1,0.1,0.1,0.2,0.1
			c0.1,0,0.2,0.1,0.3,0.1c0.1,0,0.1,0,0.2,0c0.1,0,0.2-0.1,0.3-0.2c0,0,0.1-0.1,0.1-0.1C97.3,99.1,97.3,99,97.3,98.8L97.3,98.8z"/>
	</g>
</g>
<path class="st12" d="M49.3,26.9c0,0-7.3-1.3-4.7-8c0,0,2.3-4.8,8.3-3.8c0,0,3.6,0.9,3.9,2.4c0,0,4.8-3.1,9-3.6
	c0.3,0,10.2-0.1,10.2-0.1l4.8,0.3c0,0,11,0.5,17.3,7.8c0,0,6.1-2.2,9.4,1.6c0,0,2.9,4.2-0.6,8.6c0,0-2.9,2.3-4.2,1.7l0.3,7.9
	c0,0-1.3,12.1-2.2,14.3l-2,7.7c0,0-2.7,7.9-4.9,9.1c0,0-1,4.1-8.1,5.2c0,0-7.1,0-7,0c0.1,0-6.8-0.7-6.8-0.7s-12.9-2.7-15.3-9
	c0,0-1.3,0.3-1.7-9.1c0,0-0.3-4.4-0.3-4.3c0,0.1,0.6-0.5,0.6-0.5H56c0,0-0.2-1-0.4-1c-0.1-0.1,0.1-0.6,0.1-0.6l2.8-1.4
	c0,0,1.1,0,1.3,0.3l0.1-1.2L60,49l1.4-1.2c0,0-1.5-0.4,0.3-2.8l-2.6-0.1c0,0-1.7-0.9-1.3-1.5c0.4-0.6,0.1-0.2,0.1-0.2s-2.7,4-3,1.6
	c0-0.2-1.5-0.8,1.7-6.8c0,0-3.9,1.6-2.8-1.5c0,0-1.5-0.3-1.2-2.1c0-0.1,0-0.2,0.1-0.2c0,0-1.2,1.7-2.4,0.7c0,0,0,2.6-2.4,2l0.2-0.5
	c0,0-0.7-3.2,0.8-7.9L49.3,26.9z"/>
<path class="st11" d="M58,30.8c0,0-4.7-6.4,2.1-12c0,0,7.2-5,12.3,2.1c0,0,3.1,3.4,0.4,9.4c0,0-2.2,5.2-9.4,4.2
	C63.4,34.5,59.5,33.4,58,30.8z"/>
<path class="st11" d="M78.6,30.1c0,0-1.8-5.5,4-9.4c0,0,6.1-3,10.8,1.3c0,0,5.1,6,0.6,11.8c0,0-4.2,5.2-10.8,2.3
	C83.2,36.1,79.2,33.8,78.6,30.1z"/>
<path class="st13" d="M71.6,35c0,0-0.3-0.5-3,1.3c0,0-2.5,1.9-0.6,3.6c0,0,0.8,1.4,4.3,0.8c0,0,4-0.7,5.4,0.9c0,0,3.9,1.4,3.9-1.7
	c0,0,1.1-1-3.3-4.2L71.6,35z"/>
<path class="st11" d="M70.6,41.5c0,0-1.4,4.2,0.7,4.9c0,0,1.5,0.7,2.4-1.2h0.2c0,0,0.2,2.1,2,1.8c0,0,2.2-0.2,2-3.4l-0.2-1.9
	l-1.9-0.9c0,0-1.8-0.4-3-0.1l-2,0.2L70.6,41.5z"/>
<path class="st14" d="M61.1,46l0.5-1.2c-2.1,1-3.8-1.1-3.8-1.1c-1.3,2.1-2.2,1.7-2.2,1.7c-1.9-1.1-0.6-4.1-0.6-4.1l1.6-3.3
	c-4.2,1.1-2.8-1.5-2.8-1.5c-1.5-0.5-1.1-2.1-1.1-2.1c-1.6,1.4-2.3,0.6-2.4,0.4c0,0,0,0,0,0c0,0,0,0,0,0c0.1,2.4-2.2,2.2-2.2,2.2
	c1.3,3-1.6,3.6-1.6,3.6l0.3,0.9c0.7,2.7-0.9,1.8-0.9,1.8l-0.6-1.2L45,40.6c-0.3,0.3-1.2-0.6-1.2-0.6l-0.9-1.5l-0.6-0.4c0,0,0,0,0,0
	h-0.1c0,0,0,0-0.1,0c-0.3,2-2.9-0.2-2.9-0.2c-0.9,0.9-2.5-0.5-2.7-0.4c0,0,0,0,0,0c0,0.1,0,0.1,0,0.2c0.7,2.5-0.3,3.5-0.3,3.5
	c3.4,3.9,0.8,4,0.8,4l-0.1,0c-0.1,0,2.7,1.9,2.7,1.9l1.7,2.2c0.7,2-1.3,0.4-1.3,0.4l-1.2-1.5l-1-0.9c0.1,1.1-2.7-0.1-2.7-0.1
	l-1.4-0.5c0,0.1,0,0.1,0,0.2c-0.2,1.7-2.3,1.4-2.3,1.4l-0.8,1v1.4l2.6,1.5c1.3,0.8,0.2,2,0.2,2c3,0.8,3.9,2.5,3.9,2.5
	c0.3,1.2-3.1,1.6-3.1,1.6c0.9,0.7-0.7,2.6-0.7,2.6h1l1.6,0.8l1.4,0l2,0c1.3,0.1,1,1.1,1,1.1l2.2-0.9l0.7-0.9c0.3-2.9,2-1.2,2-1.2
	l1.1,2.3c1.8-4.7,3.2-2.9,3.2-2.9c-1.1-3.7,1.4-2.9,1.4-2.9l0.9,0.3l0.2-0.4l0.9-0.3l0.9-0.4c0,0,0.6-0.3,0.7-0.5
	c0.1-0.2,0.6-0.5,0.6-0.5l0.8-0.1c-1-1.4-0.3-1.5-0.3-1.5l2.2-1.1c1.2-1.1,1.9,0,1.9,0h0.4c0-0.1,0-0.2-0.1-0.3
	c-0.4-1.8,0.2-2.8,0.2-2.8l1.1-0.8L60.7,47L61.1,46z"/>
<path class="st13" d="M51.6,60.1c0,0,1.8-0.1,3.3-1.8l-0.4-3.1l-1.1,0.6L52.6,56l-0.5,0.7l-0.5,0.1l-0.8,0.8c0,0-0.7,0.8-0.7,0.9
	c0,0.1-0.2,0.5-0.2,0.6c0.1,0.1,0.5,0.8,0.5,0.8L51.6,60.1z"/>
<polygon class="st15" points="50,56.6 51.3,58.7 52.1,59.3 52.6,58.8 "/>
<path class="st10" d="M55.3,64.8l-1.6-0.7c0,0-0.7-0.1-0.9-0.1c-0.2,0-1.2,0-1.2,0l-0.6-0.3c0,0-0.2,0.7-0.9,1.1
	c0,0,1.1,0.5,0.2,1.2c0,0,2.9,0.8,2,1.6L52,67.8c0,0,2.6,0.4,2.2,0.7l-0.3,0.3L52.7,69l-1.5-0.7l-0.3,0.2l-3-0.1v0.3L47.8,69
	l-2.4,0.5v0.4l-1,0.4l1.6,0.8l0.5,0.5l2.7,0c0,0,1,0.3,0.7,0.9c-0.3,0.6,0.1,0,0.1,0l4.8-0.5c0,0,2.3,0.5,1.9,0.7l-1.7,0.3h-2.8
	l-0.5,0.4c0,0-2.4,0.8-2.8,0.9c0.3,0,1,0.5,0,1.4l0.2,0.5l1.3,0.5c0,0,3.3-1.2,4.2,0c0,0,0,0,0,0c0.1,0,0.1,0,0.2,0
	c0.5-0.3,2.1-1.2,4.3-0.6v0.8c0,0-0.9,0.4-0.7,0.6c0.2,0.2,1.2,0.9,1.2,0.9l0.3,0.5l2.9-4.1C62.8,74.6,56.3,72.2,55.3,64.8z"/>
<path class="st10" d="M66.6,75.7l-0.6,1l-0.8-0.4l-0.8,0.2L63,77.3c0,0-0.9,0.3-1,0.3c-0.1,0-1.5,0.2-1.4,0.3c0,0.1,2.5-3.7,2.5-3.7
	L66.6,75.7z"/>
<path class="st13" d="M67.8,64.5c0,0-1,0.9-0.2,4.1c0,0,0.3,1.9,1.8,1.6c0,0,1.3-1.4,0.4-4.2C69.8,66.1,68.9,64.4,67.8,64.5z"/>
<path class="st13" d="M81.1,70.5c0.1-0.1,2.4-4.5,4.6-4.6c0,0,1.4,1.9-1.3,4.1c0,0-1.2,1.2-2.9,1.5C81.6,71.5,80.4,71.2,81.1,70.5z"
	/>
<path class="st13" d="M100.3,58.4c0.3,0,3,5,5,3.5c0,0,0.5-0.3-0.8-1.7l-3.5-4.1L100.3,58.4z"/>
<g>
	<g>
		<path class="st16" d="M54.3,55.5c0.7,3.8,0.2,7.7,1.4,11.4c1,3.4,3.6,5.9,6.6,7.6c3.4,1.8,7.2,2.8,10.9,3.5
			c3.9,0.7,8.1,1.1,12.1,0.8c3.8-0.4,7.4-1.8,9-5.5c0.2-0.4-0.4-0.8-0.6-0.4c-1.6,3.5-5,4.8-8.6,5.1c-3.7,0.3-7.6,0-11.2-0.7
			c-6.6-1.1-15.3-3.4-17.5-10.6c-1.1-3.7-0.7-7.7-1.4-11.4C54.8,54.9,54.2,55.1,54.3,55.5L54.3,55.5z"/>
	</g>
</g>
<g>
	<g>
		<path class="st16" d="M101.7,27.4c-1.6-4.2-4.7-7.6-8.5-9.9c-4.5-2.7-9.6-3.6-14.8-3.9c-5.1-0.3-10.6-0.8-15.5,0.6
			c-4.7,1.3-8.7,4.6-11.5,8.5c-1.6,2.2-2.9,4.7-3.6,7.3c-0.7,2.9-0.5,5.9,0.2,8.8c0.1,0.4,0.8,0.3,0.7-0.2c-0.7-2.6-0.9-5.3-0.3-8
			c0.5-2.3,1.7-4.5,3-6.5c2.5-3.9,6.2-7.4,10.7-8.9c4.5-1.5,9.5-1.1,14.2-0.9c5,0.2,10.1,0.6,14.7,2.8c4.5,2.2,8.4,5.8,10.1,10.6
			C101.2,28,101.9,27.8,101.7,27.4L101.7,27.4z"/>
	</g>
</g>
<g>
	<g>
		<path class="st16" d="M49,26.7c-3.2-0.7-5.5-3.9-4.3-7.1c1-2.7,4.1-4.4,6.9-4.2c1.6,0.1,3.7,0.5,4.5,2c0.2,0.4,0.8,0,0.6-0.4
			c-0.9-1.6-2.7-2-4.3-2.2c-1.7-0.2-3.3,0-4.8,0.8c-3,1.5-4.9,5-3.4,8.2c0.8,1.9,2.6,3.1,4.6,3.6C49.3,27.5,49.5,26.8,49,26.7
			L49,26.7z"/>
	</g>
</g>
<g>
	<g>
		<path class="st16" d="M98,22.4c2.5-0.9,5.8-1.1,8.1,0.4c2.5,1.6,2.8,5.4,1.5,7.9c-0.9,1.7-2.7,2.9-4.6,2.9c-0.5,0-0.5,0.7,0,0.7
			c3.7,0,6.1-3.6,6-7c-0.1-1.6-0.6-3.2-1.7-4.4c-1.1-1.1-2.6-1.6-4.1-1.8c-1.8-0.2-3.7,0-5.4,0.6C97.4,21.8,97.6,22.5,98,22.4
			L98,22.4z"/>
	</g>
</g>
<g>
	<g>
		<path class="st16" d="M71.5,35.3c0,0,0.3,0,0.2,0c0-0.1,0-0.2,0-0.3c-0.2,0.1-0.5,0-0.8,0.1c-0.5,0.1-1,0.4-1.4,0.6
			c-0.8,0.5-1.7,1.1-2.2,1.9c-1.2,2,1.5,3.5,3.2,3.6c1.3,0.1,2.6-0.3,3.9-0.3c1.3,0,2.3,0.5,3.4,1c0.8,0.4,1.8,0.8,2.7,0.4
			c0.9-0.4,1.4-1.4,1.4-2.3c0-2.2-2.5-3.7-4.2-4.7c-0.2-0.1-0.4,0.2-0.2,0.3c1.4,0.8,3.2,1.9,3.8,3.5c0.4,1,0.1,2.3-0.9,2.8
			c-0.9,0.5-1.9-0.1-2.8-0.4c-0.8-0.4-1.6-0.7-2.4-0.9c-1-0.2-1.9,0-2.9,0.1c-1.1,0.1-2.4,0.3-3.4-0.2c-0.9-0.4-1.9-1.3-1.5-2.4
			c0.4-1,1.4-1.7,2.2-2.1c0.4-0.2,0.9-0.5,1.4-0.6c0.2,0,0.5,0,0.7-0.1c0.1-0.1,0.2-0.2,0-0.3c-0.1-0.1-0.3,0-0.4,0
			C71.2,34.9,71.2,35.3,71.5,35.3L71.5,35.3z"/>
	</g>
</g>
<g>
	<g>
		<path class="st16" d="M77.6,41.9c0.2,0.8,0.2,1.7,0.1,2.5c-0.1,0.7-0.3,1.6-0.9,2.1c-0.5,0.5-1.5,0.6-2.1,0.2
			c-0.5-0.3-0.6-1.1-0.7-1.6c-0.1-0.2-0.4-0.1-0.3,0.1c0.2,0.5,0.2,1.1,0.6,1.5c0.4,0.5,1,0.6,1.6,0.5c0.6-0.1,1.2-0.4,1.6-1
			c0.4-0.6,0.5-1.3,0.6-2c0.1-0.8,0.1-1.7-0.1-2.5C77.9,41.6,77.5,41.7,77.6,41.9L77.6,41.9z"/>
	</g>
</g>
<path class="st17" d="M95.9,29.7c0.7-4.8-2.6-9.3-7.4-10c-4.8-0.7-9.3,2.6-10,7.4c-0.7,4.8,2.6,9.3,7.4,10
	C90.7,37.8,95.2,34.5,95.9,29.7z"/>
<path class="st17" d="M73.9,27.3c0.7-4.8-2.6-9.3-7.4-10c-4.8-0.7-9.3,2.6-10,7.4c-0.7,4.8,2.6,9.3,7.4,10
	C68.7,35.4,73.2,32.1,73.9,27.3z"/>
<path class="st16" d="M104.4,27.5c0.2-1-0.5-2-1.6-2.1c-1-0.2-2,0.5-2.1,1.6c-0.2,1,0.5,2,1.6,2.1C103.3,29.2,104.3,28.5,104.4,27.5
	z"/>
<path class="st16" d="M52.5,21.3c0.2-1-0.5-2-1.6-2.1c-1-0.2-2,0.5-2.1,1.6c-0.2,1,0.5,2,1.6,2.1C51.4,23,52.4,22.3,52.5,21.3z"/>
<path class="st16" d="M79,35.4c0.2-1.2-1.4-2.4-3.6-2.7c-2.1-0.3-4,0.4-4.2,1.6c-0.2,1.2,1.4,2.4,3.6,2.7C77,37.3,78.8,36.6,79,35.4
	z"/>
<path class="st16" d="M87.6,26.1c-1.6-0.2-3,0.8-3.3,2.4c-0.2,1.6,0.8,3,2.4,3.3c1.6,0.2,3-0.8,3.3-2.4
	C90.2,27.8,89.2,26.3,87.6,26.1z M88,30.9c-0.4-0.1-0.7-0.5-0.7-0.9c0.1-0.4,0.5-0.7,0.9-0.7c0.4,0.1,0.7,0.5,0.7,0.9
	C88.9,30.7,88.5,31,88,30.9z"/>
<path class="st16" d="M65.6,23.4c-1.6-0.2-3,0.8-3.3,2.4c-0.2,1.6,0.8,3,2.4,3.3c1.6,0.2,3-0.8,3.3-2.4
	C68.3,25.1,67.2,23.7,65.6,23.4z M66,28.3c-0.4-0.1-0.7-0.5-0.7-0.9c0.1-0.4,0.5-0.7,0.9-0.7c0.4,0.1,0.7,0.5,0.7,0.9
	C66.9,28,66.5,28.3,66,28.3z"/>
<g>
	<g>
		<path class="st16" d="M74.4,40.8c0,0.5-0.1,1.1-0.2,1.6c-0.1,0.6-0.1,1.1-0.3,1.7c-0.2,0.9-0.5,2-1.4,2.4c-0.8,0.3-1.7-0.1-2-0.9
			c-0.3-0.7-0.3-1.5-0.2-2.2c0.1-0.8,0.3-1.6,0.7-2.3c0.1-0.2-0.2-0.4-0.3-0.2c-0.4,0.7-0.6,1.5-0.7,2.3c-0.1,0.8-0.2,1.7,0.2,2.5
			c0.3,0.8,1.2,1.3,2,1.2c1-0.1,1.6-1,1.8-1.9c0.3-0.8,0.3-1.5,0.5-2.3c0.1-0.6,0.3-1.3,0.2-1.9C74.7,40.6,74.4,40.6,74.4,40.8
			L74.4,40.8z"/>
	</g>
</g>
<g>
	<g>
		<path class="st16" d="M100.4,26.6c3.9,8.7,2.4,18.6,0.5,27.7c-0.7,3.2-1.3,6.4-2.3,9.5c-1,3.3-2.4,6.8-5.1,9
			c-0.3,0.3,0.1,0.8,0.5,0.5c4.2-3.5,5.6-9.8,6.7-14.9c1.5-6.6,2.9-13.4,2.8-20.2c-0.1-4.1-0.9-8.2-2.5-12
			C100.8,25.8,100.2,26.2,100.4,26.6L100.4,26.6z"/>
	</g>
</g>
<g>
	<g>
		<path class="st16" d="M66.8,58.2c6.8-1.4,16.4-3.1,20.9,3.7c0.2,0.4,0.8,0,0.6-0.4c-4.7-7.2-14.6-5.6-21.7-4.1
			C66.2,57.6,66.3,58.3,66.8,58.2L66.8,58.2z"/>
	</g>
</g>
<g>
	<g>
		<path class="st16" d="M52,56.2c-0.5,0.4-0.9,0.8-1.4,1.2c-0.4,0.5-0.9,1.1-0.9,1.8c0,0.7,0.6,1.3,1.2,1.4c0.8,0.2,1.6-0.1,2.3-0.4
			c0.7-0.3,1.5-0.8,2-1.5c0.1-0.1,0.1-0.4,0-0.5c-0.1-0.1-0.4-0.1-0.5,0c-0.4,0.5-0.9,0.9-1.4,1.1C52.7,59.7,52,60,51.4,60
			c-0.3,0-0.5-0.1-0.7-0.2c-0.2-0.1-0.3-0.3-0.3-0.5c0-0.5,0.4-1,0.7-1.3c0.4-0.5,0.9-0.8,1.4-1.2C52.8,56.4,52.3,55.9,52,56.2
			L52,56.2z"/>
	</g>
</g>
<g>
	<g>
		<path class="st16" d="M100.5,59c0.3,0.9,1,1.7,1.6,2.4c0.7,0.7,1.6,1.4,2.6,1.4c0.6-0.1,1-0.4,1.3-0.9c0.1-0.1,0-0.3-0.1-0.4
			c-1.5-1.8-3.3-3.4-4.6-5.3c-0.2-0.4-0.9,0-0.6,0.4c1.3,2,3.2,3.6,4.7,5.5c0-0.1,0-0.3-0.1-0.4c-0.2,0.4-0.5,0.6-0.9,0.5
			c-0.5-0.1-1-0.4-1.4-0.7c-0.8-0.6-1.6-1.6-1.9-2.5C101,58.4,100.3,58.5,100.5,59L100.5,59z"/>
	</g>
</g>
<g>
	<g>
		<path class="st16" d="M68.6,70.1c-0.6-0.8-0.8-1.8-0.9-2.8c-0.1-0.4-0.1-1,0-1.4c0-0.1,0.1-0.3,0.1-0.5c0-0.1,0,0,0-0.1
			c0,0,0-0.1,0-0.1c0,0,0,0,0-0.1c0,0-0.1,0.1,0,0c0,0,0.1-0.1,0.1-0.1c-0.1,0.1,0,0,0,0c0,0-0.1,0,0,0c0,0,0,0,0.1,0c0,0-0.1,0,0,0
			c0,0,0.1,0,0.1,0c-0.1,0,0,0,0.1,0c0,0,0.1,0,0.1,0c-0.1,0,0.1,0,0.1,0c0.1,0,0.1,0.1,0.2,0.1c0.2,0.2,0.5,0.4,0.7,0.6
			c0,0,0,0,0.1,0.1c0.1,0.1,0,0,0,0c0,0,0,0,0,0.1c0.1,0.1,0.1,0.2,0.1,0.3c0,0.1,0,0,0,0.1c0,0.1,0,0.1,0.1,0.2
			c0,0.1,0.1,0.2,0.1,0.3c0.1,0.2,0.1,0.5,0.1,0.7c0,0.5,0,1.1,0,1.5c0,0.1-0.1,0.3-0.1,0.4c0,0.1,0,0.1-0.1,0.2c0,0,0,0,0,0.1
			c0,0.1,0,0,0,0c0,0.1-0.1,0.2-0.2,0.3c0-0.1,0,0-0.1,0.1c0,0-0.1,0.1,0,0c0,0-0.1,0-0.1,0.1c0,0,0.1,0,0,0c0,0,0,0-0.1,0
			c0,0-0.1,0,0,0c0,0-0.1,0-0.1,0c0,0,0,0-0.1,0c0.1,0,0,0,0,0c-0.2-0.1-0.4-0.2-0.6-0.4c-0.3-0.3-0.8,0.2-0.5,0.5
			c0.4,0.4,0.9,0.7,1.5,0.5c0.5-0.1,0.8-0.6,0.9-1c0.4-1,0.3-2.4,0-3.4c-0.2-0.5-0.4-0.9-0.9-1.3c-0.4-0.3-0.9-0.7-1.4-0.7
			c-1.1,0.1-1.1,1.6-1.1,2.4c0,0.7,0.2,1.4,0.4,2c0.2,0.6,0.4,1.2,0.7,1.7c0.1,0.2,0.3,0.2,0.5,0.1C68.7,70.5,68.7,70.3,68.6,70.1
			L68.6,70.1z"/>
	</g>
</g>
<g>
	<g>
		<path class="st16" d="M81.4,71c0.1-0.4,0.4-0.9,0.7-1.3c0.4-0.6,0.8-1.1,1.2-1.6c0.4-0.5,0.9-0.9,1.3-1.3c0.2-0.1,0.4-0.3,0.6-0.4
			c0.1,0,0.1-0.1,0.2-0.1c0,0,0.1,0,0.1,0c0,0,0.1,0,0.1,0c0.1,0,0,0,0,0c0,0,0,0,0.1,0c0,0-0.1,0,0,0c0.1,0,0,0,0,0
			c0.1,0.1,0,0,0.1,0.1c0,0,0,0,0,0c0,0.1,0,0,0,0c0,0,0,0.1,0,0.1c0,0.1,0,0.2,0,0.4c0,0.6,0,1-0.3,1.5c-0.6,1-1.7,1.9-2.8,2.5
			c-0.3,0.1-0.5,0.2-0.8,0.3c-0.1,0-0.1,0-0.2,0c-0.1,0,0.1,0,0,0c0,0-0.1,0-0.1,0c-0.1,0-0.1,0-0.2,0c-0.1,0,0.1,0,0,0
			c0,0-0.1,0-0.1,0c0,0,0,0-0.1,0c0,0,0.1,0,0,0c-0.1,0,0,0,0,0c0,0,0-0.1-0.1-0.1c-0.1-0.2,0-0.5,0.1-0.8c0.1-0.4-0.6-0.6-0.7-0.2
			c-0.1,0.5-0.2,1.3,0.2,1.7c0.4,0.4,1,0.3,1.5,0.1c0.6-0.2,1.3-0.6,1.8-1c0.6-0.4,1.2-1,1.6-1.5c0.4-0.5,0.7-1,0.8-1.7
			c0.1-0.6,0.1-1.4-0.4-1.8c-0.9-0.8-2.3,0.6-2.9,1.2c-0.6,0.6-1.2,1.3-1.6,2c-0.4,0.5-0.8,1.1-0.9,1.8C80.6,71.2,81.3,71.4,81.4,71
			L81.4,71z"/>
	</g>
</g>
<g>
	<g>
		<g>
			<path class="st16" d="M36.9,45.7c1,0.4,1.5,1.3,2.3,2c0.6,0.5,1.6,1.2,1.9,2c0.1,0.1,0.1,0.3,0.2,0.4c-0.4,0-0.7-0.1-1-0.4
				c-0.4-0.3-0.6-0.8-0.9-1.2C39,47.9,38.6,47.4,38,47c-0.2-0.1-0.6,0-0.5,0.3c0.1,0.7-1.5,0-1.8-0.2c-0.6-0.3-1.3-0.6-1.9-0.7
				c-0.2,0-0.5,0.1-0.4,0.3c0.1,1.2-0.7,1.6-1.8,1.4c-0.2,0-0.4,0-0.4,0.2c-0.2,0.2-0.5,0.4-0.7,0.7c-0.3,0-0.4,0.3-0.3,0.5
				c0.3,0.4,0.4,0.8,0.2,1.2c-0.1,0.2,0,0.4,0.2,0.5c1,0.4,3.9,1.4,2.7,2.8c-0.2,0.2-0.1,0.5,0.2,0.6c1,0.3,2.5,0.6,3.2,1.4
				c1.4,1.5-1.7,1.7-2.6,2c-0.2,0.1-0.4,0.4-0.2,0.6c0.6,0.5-0.6,1.9-0.8,2.3c-0.2,0.3,0.1,0.6,0.4,0.5c1.2-0.3,2,0.6,3,0.7
				c0.3,0,0.6,0,1,0c0.5,0,1,0,1.6,0c0.6,0,1.5,0.1,0.8,0.8c-0.3,0.3,0.1,0.8,0.4,0.5c0.8-0.6,1.8-0.5,2.5-1.1c0.6-0.5,0.9-1,1-1.8
				c0.2-1.3,1.1-0.5,1.5,0.3c0.3,0.6,0.5,1.3,0.7,2c0.1,0.4,0.7,0.3,0.7-0.1c0-0.9,1.7-4.2,2.7-3.1c0.3,0.3,0.6,0,0.6-0.3
				c-0.1-0.5-0.4-1.2-0.2-1.7c0.3-1.2,1.4-0.8,2.3-0.6c0.1,0,0.3,0,0.4-0.2c0.5-0.8,1-0.6,1.8-1c0.6-0.3,0.9-1.2,1.7-1.1
				c0.3,0,0.6-0.2,0.4-0.5c-0.2-0.3-0.6-0.8-0.4-1.1c0.1-0.2,0.8-0.4,1-0.5c0.6-0.3,2.1-1.5,2.7-0.7c0.3,0.4,0.9,0,0.6-0.4
				c-1-1.3-2.6-0.1-3.6,0.5c-0.4,0.2-1.2,0.4-1.4,0.9c-0.2,0.6,0.3,1.2,0.6,1.7c0.1-0.2,0.3-0.3,0.4-0.5c-1.1-0.2-1.2,0.3-2,0.9
				c-0.9,0.6-1.7,0.3-2.3,1.4c0.1-0.1,0.3-0.1,0.4-0.2c-0.8-0.3-2.3-0.8-2.9,0.1c-0.6,0.8-0.2,2.1,0,2.9c0.2-0.1,0.4-0.2,0.6-0.3
				c-1.7-1.9-3.9,2.2-3.9,3.6c0.2,0,0.5-0.1,0.7-0.1c-0.3-1.1-0.9-3.5-2.4-3.5c-0.7,0-1.1,0.5-1.2,1.1c-0.1,0.8-0.3,1.3-1.1,1.8
				c-0.7,0.4-1.5,0.4-2.1,0.9c0.1,0.2,0.3,0.4,0.4,0.5c1.2-1.3,0-1.9-1.3-2c-0.8-0.1-1.5,0.1-2.3,0.1c-1.3-0.1-2.1-1.1-3.5-0.7
				c0.1,0.2,0.3,0.3,0.4,0.5c0.5-0.9,1.8-2.3,0.7-3.2c-0.1,0.2-0.1,0.4-0.2,0.6c1.1-0.4,3.9-0.4,3.4-2.3c-0.4-1.5-2.8-2.1-4.1-2.5
				c0.1,0.2,0.1,0.4,0.2,0.6c1.8-2-1.5-3.4-3-3.9c0.1,0.2,0.1,0.3,0.2,0.5c0.3-0.7,0.2-1.3-0.2-2c-0.1,0.2-0.2,0.4-0.3,0.5
				c0.8,0,1.3-0.4,1.4-1.2c-0.1,0.1-0.3,0.2-0.4,0.2c1.5,0.3,2.7-0.4,2.6-2c-0.1,0.1-0.3,0.2-0.4,0.3c0.9,0.1,4.9,2.5,4.6,0.2
				c-0.2,0.1-0.4,0.2-0.5,0.3c1.2,0.9,1.5,2.7,3,3.2c0.6,0.2,1.2,0.2,1.3-0.5c0.1-1-1.1-2-1.7-2.6c-1-0.9-1.9-2.2-3.2-2.7
				C36.7,44.8,36.5,45.5,36.9,45.7L36.9,45.7z"/>
		</g>
	</g>
	<g>
		<g>
			<path class="st16" d="M60.3,52.1c0.2-0.5,0.1-1,0-1.5c-0.1-1.1,0.4-1.9,1.4-2.3c0.3-0.1,0.2-0.7-0.2-0.7
				c-0.7,0.1-0.3-0.9-0.1-1.3c0.2-0.4,0.4-0.8,0.6-1.2c0.2-0.3-0.1-0.6-0.4-0.5c-0.9,0.3-3.3,0.2-3.5-1c0-0.3-0.4-0.5-0.6-0.2
				c-0.4,0.5-0.8,1.5-1.5,1.8c-1.2,0.5-1.3-1.5-1.2-2.2c0.2-1.7,1.1-3.5,2.2-4.8c0.3-0.4-0.1-0.8-0.5-0.5c-1,0.8-3.6,1-2.5-0.9
				c0.1-0.2,0-0.4-0.2-0.5c-1-0.3-1.1-1.4-0.9-2.2c0.1-0.4-0.5-0.6-0.7-0.2c-0.3,0.9-1.1,1.4-1.9,0.8c-0.2-0.2-0.5,0.1-0.5,0.3
				c0,0.5-0.1,1.1-0.4,1.5c-0.4,0.4-1,0.3-1.5,0.1c-0.4-0.1-0.6,0.6-0.2,0.7c0.7,0.2,1.5,0.3,2.1-0.2c0.6-0.5,0.7-1.4,0.7-2.1
				c-0.2,0.1-0.4,0.2-0.5,0.3c1.2,0.9,2.5,0.1,3-1.2c-0.2-0.1-0.4-0.1-0.7-0.2c-0.4,1.2,0,2.7,1.4,3.1c-0.1-0.2-0.1-0.3-0.2-0.5
				c-0.5,0.9-0.6,2,0.5,2.5c1,0.4,2.3,0,3.1-0.7c-0.2-0.2-0.3-0.3-0.5-0.5c-1.3,1.6-2.7,4.3-2.4,6.4c0.1,0.8,0.8,1.9,1.7,1.8
				c1-0.1,1.6-1.4,2.2-2.1c-0.2-0.1-0.4-0.2-0.6-0.2c0.2,1.8,3,2.1,4.3,1.7c-0.1-0.2-0.3-0.3-0.4-0.5c-0.5,0.8-2,3.8,0.1,3.6
				c-0.1-0.2-0.1-0.4-0.2-0.7c-0.7,0.3-1.4,1-1.7,1.7c-0.1,0.3-0.1,0.7-0.1,1.1c0,0.4,0.3,1,0.1,1.4C59.5,52.1,60.1,52.5,60.3,52.1
				L60.3,52.1z"/>
		</g>
	</g>
	<g>
		<g>
			<path class="st16" d="M47.5,37.4c1.2,0.7,0.2,3-1.1,3c-0.3,0-0.4,0.3-0.3,0.5c0.2,0.4,0.3,0.8,0.3,1.2c0,0.2,0.1,1-0.2,1.1
				c-0.4,0.1-0.7-0.7-0.7-1c-0.1-0.4-0.3-1-0.2-1.4c0.1-0.3-0.2-0.5-0.5-0.4c-0.6,0.3-1-0.8-1.2-1.1c-0.3-0.6-0.7-1.3-1.4-1.4
				c-0.2,0-0.5,0.1-0.4,0.3c0,0.6-0.4,0.7-0.9,0.5c-0.5-0.1-1.1-0.5-1.3-1c-0.2-0.4-0.8-0.2-0.7,0.2c0.3,0.8,1.2,1.3,2,1.5
				c0.9,0.2,1.7-0.3,1.6-1.3c-0.1,0.1-0.3,0.2-0.4,0.3c0.7,0.1,1.1,1.2,1.4,1.7c0.4,0.6,1,1.1,1.8,0.8c-0.2-0.1-0.3-0.3-0.5-0.4
				c-0.1,0.7,0,1.4,0.3,2.1c0.2,0.6,0.7,1.4,1.4,1.2c1.3-0.3,0.8-2.6,0.3-3.4c-0.1,0.2-0.2,0.4-0.3,0.5c2,0.1,3.2-3.2,1.4-4.3
				C47.4,36.5,47.1,37.1,47.5,37.4L47.5,37.4z"/>
		</g>
	</g>
	<g>
		<g>
			<path class="st16" d="M38.7,38.1c0-0.1-0.4,0-0.5,0c-0.2,0-0.4-0.1-0.6-0.2c-0.3-0.2-0.6-0.5-0.9-0.8c-0.2-0.2-0.6-0.1-0.6,0.2
				c0.2,1.3,0.8,2.7-0.3,3.8c-0.2,0.2-0.1,0.4,0.1,0.5c0.6,0.5,1.2,1,1.6,1.7c0.1,0.2,0.3,0.6,0.2,0.9c-0.1,0.4-0.6,0.5-0.9,0.6
				c-0.4,0.1-0.3,0.8,0.2,0.7c0.5-0.1,1.1-0.4,1.3-0.8c0.2-0.4,0.2-0.9,0-1.3c-0.4-1-1.2-1.7-2-2.3c0,0.2,0,0.4,0.1,0.5
				c0.5-0.6,0.9-1.3,0.8-2.1c0-0.8-0.3-1.5-0.4-2.3c-0.2,0.1-0.4,0.2-0.6,0.2c0.6,0.5,1.1,1.1,1.9,1.1c0.6,0,1.7-0.3,1.2-1.1
				C39.1,37.4,38.5,37.7,38.7,38.1L38.7,38.1z"/>
		</g>
	</g>
	<g>
		<g>
			<path class="st16" d="M36.6,38.3c2.8,3.5,5.2,7.2,7.8,10.9c0.9,1.3,1.8,2.5,2.9,3.7c0.9,1.1,2.2,2.4,2.4,3.9
				c0.1,0.4,0.7,0.3,0.7-0.2c-0.2-1.4-1.2-2.6-2.1-3.6c-1.1-1.4-2.2-2.7-3.2-4.2c-2.6-3.7-5.1-7.5-7.9-11
				C36.9,37.5,36.4,38,36.6,38.3L36.6,38.3z"/>
		</g>
	</g>
	<g>
		<g>
			<path class="st16" d="M49.7,56.8c0.3,0.6,0.6,1.1,1,1.7c0.2,0.3,0.4,0.6,0.7,0.9c0.2,0.2,0.5,0.5,0.8,0.4c0.4,0,0.7-0.4,0.8-0.8
				c0-0.2,0-0.3-0.2-0.4c-1-0.6-1.8-1.2-2.5-2.2c-0.1-0.2-0.3-0.2-0.5-0.1C49.6,56.4,49.6,56.6,49.7,56.8c0.4,0.5,0.8,1,1.3,1.4
				c0.5,0.4,1,0.7,1.5,1.1c-0.1-0.1-0.1-0.3-0.2-0.4c0,0.1,0,0.2-0.1,0.2c0,0,0-0.1,0,0c0,0,0,0,0,0c0,0,0,0,0,0c0,0.1,0,0,0,0
				c0,0,0,0,0,0c0,0,0.1-0.1,0,0c0,0,0,0,0,0c0,0,0.1,0,0,0c-0.1,0,0.1,0,0,0c-0.1,0,0.1,0,0,0c0,0,0,0-0.1,0c0,0,0.1,0,0,0
				c0,0,0,0,0,0c0,0-0.1,0-0.1,0c0,0,0,0,0,0c-0.1,0,0,0,0,0c0,0-0.1-0.1-0.1-0.1c-0.1,0-0.1-0.1-0.2-0.2c-0.1-0.1-0.1-0.1-0.1-0.2
				c0,0,0-0.1-0.1-0.1c0,0,0,0,0-0.1c0-0.1,0,0.1,0,0c-0.1-0.1-0.2-0.3-0.3-0.5c-0.2-0.3-0.4-0.6-0.5-0.9c-0.1-0.2-0.3-0.5-0.4-0.7
				c-0.1-0.2-0.3-0.2-0.5-0.1C49.6,56.4,49.6,56.6,49.7,56.8L49.7,56.8z"/>
		</g>
	</g>
	<g>
		<g>
			<path class="st16" d="M30.6,49.8c3.6,0.7,6.6,2.7,10,4c1.6,0.6,3.2,0.9,4.8,1.1c0.9,0.1,1.9,0.3,2.7,0.8c0.6,0.4,1.1,0.9,1.8,1.2
				c0.4,0.2,0.6-0.5,0.2-0.7c-0.7-0.3-1.3-1-1.9-1.4c-0.6-0.3-1.3-0.5-2-0.6c-1.9-0.3-3.6-0.5-5.3-1.2c-3.4-1.3-6.4-3.3-10-4
				C30.3,49,30.1,49.7,30.6,49.8L30.6,49.8z"/>
		</g>
	</g>
	<g>
		<g>
			<path class="st16" d="M33.9,61.3c2.5-1,5-2,7.5-3c2.4-1,5.3-2.4,8-1.6c0.4,0.1,0.6-0.6,0.2-0.7c-2.6-0.7-5.3,0.5-7.8,1.4
				c-2.7,1-5.4,2.2-8.1,3.2C33.3,60.8,33.4,61.5,33.9,61.3L33.9,61.3z"/>
		</g>
	</g>
	<g>
		<g>
			<path class="st16" d="M52.3,34.4c-1.4,4.4-1.7,9-2,13.6c-0.1,1.7-0.6,3.3-0.9,4.9c-0.2,1.2-0.4,2.7,0.4,3.8
				c0.3,0.4,0.9,0,0.6-0.4c-0.9-1.2-0.4-3.1-0.1-4.4c0.3-1.5,0.6-2.9,0.7-4.4c0.3-4.4,0.6-8.8,2-13.1C53.1,34.1,52.4,33.9,52.3,34.4
				L52.3,34.4z"/>
		</g>
	</g>
	<g>
		<g>
			<path class="st16" d="M61.1,44.9c-0.9,1.3-2.3,2.2-3.6,3c-1.2,0.8-2.4,1.6-3.5,2.5c-1,0.9-2.1,1.7-3,2.7c-0.8,0.9-1.6,2-1.5,3.3
				c0,0.4,0.7,0.4,0.7,0c-0.1-1.3,0.9-2.5,1.8-3.4c0.9-0.9,1.9-1.6,2.8-2.4c2.2-1.8,5.2-2.9,6.9-5.3C62,44.9,61.4,44.6,61.1,44.9
				L61.1,44.9z"/>
		</g>
	</g>
</g>
<g>
	<g>
		<path class="st16" d="M75.7,13.8c1.1-3.9-4.8-5.6-7.5-4.4c-1.7,0.7-2.9,2.5-2.8,4.3c0.1,1.7,1.1,3.3,2.5,4.2
			c1.6,1,3.6,0.9,4.9-0.6c0.1-0.2,0.1-0.4-0.1-0.5c-0.6-0.4-1.3-0.6-2-0.9c-0.2-0.1-0.4,0.1-0.4,0.2c-0.3,1.3,0,2.6,0.3,3.8
			c0.1,0.4,0.8,0.3,0.7-0.2c-0.3-1.1-0.5-2.3-0.3-3.5c-0.1,0.1-0.3,0.2-0.4,0.2c0.7,0.2,1.3,0.4,1.9,0.8c0-0.2,0-0.4-0.1-0.5
			c-2.1,2.6-5.6,0.1-6.2-2.5c-0.3-1.7,0.6-3.1,1.9-4c1.2-0.8,3-0.7,4.3-0.2c1.5,0.5,3.2,1.7,2.6,3.5C74.8,14.1,75.5,14.2,75.7,13.8
			L75.7,13.8z"/>
	</g>
</g>
<g>
	<g>
		<path class="st16" d="M79,13.3c-1.1-2.8,0-5.9,1.9-8.1c0.3-0.3-0.2-0.8-0.5-0.5c-2,2.3-3.2,5.7-2,8.7C78.5,13.9,79.2,13.8,79,13.3
			L79,13.3z"/>
	</g>
</g>
<g>
	<g>
		<path class="st16" d="M77.3,13.4c0-2.3-0.9-4.4-2-6.3c-0.2-0.4-0.8,0-0.6,0.4c1.1,1.8,1.9,3.8,1.9,6
			C76.6,13.9,77.3,13.9,77.3,13.4L77.3,13.4z"/>
	</g>
</g>
<g>
	<g>
		<g>
			<path class="st16" d="M50.1,72.7c2.2-0.2,4.6-0.7,6.7,0.1c0-0.2,0-0.4,0-0.7c-1.5,0.5-3.1,0-4.6,0.2c-0.4,0-0.5,0.7,0,0.7
				c0.3,0,0.7,0.1,1-0.1c0.3-0.1,0.2-0.5,0-0.6c-0.3-0.2-0.7-0.1-1,0c-0.4,0-0.5,0.6-0.1,0.7c0.3,0.1,0.3,0,0.2-0.3
				c-0.1,0.1-0.2,0.1-0.3,0.2c-0.2,0-0.3,0.1-0.5,0.2c-0.8,0.2-1.6,0.3-2.4,0.6c-0.3,0.1-0.3,0.6,0,0.7c0.5,0.3,0.5,0.6-0.1,0.6
				c-0.3,0.1-0.4,0.5-0.1,0.6c0,0,0,0,0.1,0c-0.3,0.2-0.2,0.7,0.2,0.7c0.5,0,0.8,0.3,1.3,0.4c0.4,0.1,0.7-0.1,1.1-0.2
				c1-0.3,2.2-0.7,3.1,0.1c0.1,0.1,0.3,0.1,0.4,0.1c1.3-0.8,2.7-0.8,4.2-0.5c-0.1-0.1-0.2-0.2-0.3-0.3c0,0.3,0.1,0.6-0.2,0.8
				c-0.2,0.2-0.4,0.4-0.6,0.7c-0.1,0.2,0,0.5,0.3,0.5c0.7,0,1,0.5,1.4,1c0.1,0.2,0.4,0.3,0.5,0.1c0.7-0.8,2-0.7,2.9-1.1
				c0.3-0.2,2.1-1.4,2.3-0.7c0.1,0.3,0.6,0.3,0.7,0c0.1-0.2,0.2-0.3,0.3-0.5c0.3-0.3-0.2-0.8-0.5-0.5c-0.3,0.2-0.4,0.4-0.5,0.8
				c0.2,0,0.4,0,0.7,0c-0.4-1.2-1.8-0.5-2.6-0.1c-0.6,0.3-1.2,0.6-1.9,0.8c-0.7,0.2-1.4,0.3-1.9,0.9c0.2,0,0.4,0,0.5,0.1
				c-0.5-0.7-1-1.4-2-1.3c0.1,0.2,0.2,0.4,0.3,0.5c0.2-0.3,0.7-0.5,0.8-0.9c0.1-0.2,0-0.7,0-1c0-0.1-0.1-0.3-0.3-0.3
				c-1.7-0.3-3.2-0.3-4.7,0.6c0.1,0,0.3,0,0.4,0.1c-0.8-0.7-1.6-0.8-2.6-0.6C52,75.7,51.4,76,50.8,76c-0.6,0-1.1-0.4-1.7-0.4
				c0.1,0.2,0.1,0.4,0.2,0.7c0.6-0.3,0.6-1-0.1-1.3c0,0.2-0.1,0.4-0.1,0.6c1.3-0.5,1.3-1.5,0.1-2c0,0.2,0,0.4,0,0.7
				c1-0.4,2.3-0.4,3.2-1c0.6-0.4,0.4-0.9-0.2-1c0,0.2-0.1,0.5-0.1,0.7c0.2,0,0.3,0,0.5,0c0.2,0,0.2,0,0.1,0c0-0.2,0-0.4,0-0.6
				c-0.1,0.1-0.5,0-0.6,0c0,0.2,0,0.5,0,0.7c1.6-0.2,3.2,0.3,4.8-0.2c0.4-0.1,0.3-0.6,0-0.7c-2.2-0.9-4.6-0.3-6.9-0.1
				C49.6,72.1,49.6,72.8,50.1,72.7L50.1,72.7z"/>
		</g>
	</g>
	<g>
		<g>
			<path class="st16" d="M54.9,64.1c-0.3-0.2-0.6-0.4-0.9-0.5c-0.3-0.1-0.6-0.1-0.9-0.1c-0.7,0-1.3,0.1-1.9-0.4
				c-0.1,0.2-0.3,0.4-0.4,0.5c0.1,0.1,0.2,0.1,0.2,0.2c0-0.1,0,0,0,0c0,0-0.1,0.1-0.1,0.1c-0.2,0.1-0.5,0.2-0.7,0.2
				c-0.3,0-0.5,0.5-0.2,0.7c0.2,0.1,0.4,0.2,0.5,0.3c0,0,0.1,0.1,0.1,0.1c0,0,0,0,0,0c0,0,0,0,0,0c0,0,0,0,0,0c0,0,0,0,0,0
				c0,0,0,0-0.1,0.1c-0.2,0.1-0.4,0.2-0.6,0.2c-0.4,0.1-0.2,0.8,0.2,0.7c0.5-0.1,1.2-0.4,1.1-1c0-0.6-0.7-0.9-1.1-1.1
				c-0.1,0.2-0.1,0.4-0.2,0.7c0.4,0,1-0.2,1.3-0.5c0.4-0.5,0.1-1-0.3-1.3c-0.3-0.2-0.7,0.3-0.4,0.5c0.6,0.5,1.3,0.7,2.1,0.6
				c0.3,0,0.6-0.1,0.9,0c0.3,0.1,0.6,0.3,0.9,0.5C54.9,64.9,55.2,64.3,54.9,64.1L54.9,64.1z"/>
		</g>
	</g>
	<g>
		<g>
			<path class="st16" d="M50.3,66.4c0.5-0.1,1.1,0,1.5,0.3c0.3,0.2,0.7,0.4,0.2,0.6C51.8,67.5,52,68,52.3,68c0.4,0,0.8,0.2,1.2,0.3
				c0.2,0.1,0.4,0.1,0.5,0.2c0,0,0.1,0.1,0.1,0.1c0.1,0.1,0.1,0,0.1-0.2c0,0,0,0-0.1,0c-0.1,0-0.4,0-0.6,0c-0.3,0-0.5-0.1-0.7-0.1
				c-0.4-0.1-0.8-0.2-1.2-0.4c-0.2-0.1-0.4,0-0.5,0.1c-0.1,0.3-1.3,0-1.6,0c-0.6-0.1-1.4-0.2-2,0c-0.3,0.1-0.3,0.6,0,0.7
				c0,0,0.2,0.1,0.3,0.1c0,0,0-0.2,0-0.2c0,0,0,0-0.1,0c-0.2,0-0.4,0.2-0.6,0.2c-0.5,0.1-1,0.2-1.5,0.1c-0.4-0.1-0.6,0.6-0.2,0.7
				c0.8,0.1,1.8,0,2.5-0.3c0.3-0.1,0.5-0.3,0.5-0.6c0-0.4-0.4-0.6-0.7-0.7c0,0.2,0,0.4,0,0.7c0.7-0.3,1.6,0,2.3,0
				c0.5,0,1.4,0.2,1.7-0.4c-0.2,0-0.3,0.1-0.5,0.1c0.5,0.3,1.2,0.5,1.8,0.6c0.5,0.1,1.4,0.2,1.7-0.3c0.6-0.9-2-1.4-2.5-1.4
				c0.1,0.2,0.1,0.4,0.2,0.7c0.7-0.4,0.7-1.1,0.1-1.6c-0.7-0.6-1.6-0.8-2.5-0.7C49.7,65.8,49.9,66.5,50.3,66.4L50.3,66.4z"/>
		</g>
	</g>
	<g>
		<g>
			<path class="st16" d="M45.5,69.7c0-0.3,0-0.4-0.1-0.3c0,0-0.1,0-0.1,0c-0.1,0-0.1,0.1-0.2,0.1c-0.2,0.1-0.3,0.1-0.5,0.1
				c-0.4,0-0.7,0-1.1,0.1c-0.4,0-0.5,0.6-0.1,0.7c0.6,0.2,1.1,0.3,1.7,0.5c0.4,0.1,0.9,0.3,1,0.7c0,0.1,0.2,0.3,0.3,0.3
				c0.8-0.1,1.6-0.1,2.4,0c0.3,0,0.6,0.1,0.9,0.2c0.1,0,0.1,0,0.1,0.1c0.1,0-0.1,0,0,0c0,0,0-0.1,0,0c0,0-0.1,0.1-0.1,0.1
				c-0.3,0.3,0.2,0.8,0.5,0.5c0.3-0.3,0.5-0.6,0.2-1c-0.2-0.3-0.6-0.4-1-0.5c-1-0.2-2-0.1-3-0.1c0.1,0.1,0.2,0.2,0.3,0.3
				c-0.2-0.6-0.7-0.9-1.2-1.1c-0.7-0.3-1.3-0.4-2-0.6c0,0.2-0.1,0.5-0.1,0.7c0.7,0,1.4,0,2-0.3c0.3-0.1,0.6-0.3,0.6-0.6
				c0-0.4-0.3-0.5-0.6-0.5C45.1,68.9,45.1,69.6,45.5,69.7L45.5,69.7z"/>
		</g>
	</g>
	<g>
		<g>
			<path class="st16" d="M44.3,70.5c4.5,0.1,9.1,0.5,13.6,0.8c0.4,0,0.4-0.7,0-0.7c-4.5-0.3-9.1-0.6-13.6-0.8
				C43.9,69.8,43.9,70.5,44.3,70.5L44.3,70.5z"/>
		</g>
	</g>
	<g>
		<g>
			<path class="st16" d="M49.4,76.2c3.6-1.4,7.6-1.6,11.3-2.8c0.4-0.1,0.2-0.8-0.2-0.7c-3.7,1.2-7.6,1.4-11.3,2.8
				C48.8,75.7,49,76.4,49.4,76.2L49.4,76.2z"/>
		</g>
	</g>
	<g>
		<g>
			<path class="st16" d="M60.6,78.6c0.8-1.3,1.6-2.6,2.5-3.8c0.1-0.2,0-0.4-0.1-0.5c-0.2-0.1-0.4,0-0.5,0.1
				c-0.9,1.3-1.7,2.5-2.5,3.8C59.7,78.7,60.3,79,60.6,78.6L60.6,78.6z"/>
		</g>
	</g>
	<g>
		<g>
			<path class="st16" d="M51.1,63.8c1.1,0.8,2.3,1.6,3.6,2.2c0.4,0.2,0.8-0.4,0.4-0.6c-1.2-0.7-2.4-1.4-3.6-2.2
				c-0.2-0.1-0.4,0-0.5,0.1C50.9,63.5,51,63.7,51.1,63.8L51.1,63.8z"/>
		</g>
	</g>
</g>
<g>
	<g>
		<path class="st16" d="M67.5,93.8c2.1,7.5,3.2,15.6,1.4,23.3c-0.1,0.4,0.6,0.6,0.7,0.2c1.8-7.8,0.7-16.1-1.4-23.7
			C68.1,93.1,67.4,93.3,67.5,93.8L67.5,93.8z"/>
	</g>
</g>
<g>
	<g>
		<path class="st16" d="M76.6,92.9c1.2,8,0.9,16.1,2.4,24.1c0.1,0.4,0.8,0.3,0.7-0.2c-1.5-8-1.2-16.1-2.4-24.1
			C77.3,92.3,76.6,92.5,76.6,92.9L76.6,92.9z"/>
	</g>
</g>
<g>
	<g>
		<path class="st16" d="M80.5,119.1c-0.1-0.2-0.4-0.3-0.5-0.1c-0.1,0.1-0.2,0.2-0.1,0.4c0,0.2,0.1,0.5,0.1,0.7c0,0.3,0.1,0.7,0.1,1
			c0,0,0,0.1,0,0.1c0,0,0,0.2,0,0.1c0,0.1,0,0.2,0,0.2c0,0.2,0,0.3,0,0.5c0,0.1,0,0.2,0,0.4c0,0,0,0.1,0,0.1c0,0,0-0.1,0,0
			c0,0,0,0,0,0c0,0,0-0.1,0.1-0.1c0.1-0.1,0.3-0.1,0.3,0c-0.4-0.2-0.7,0.4-0.4,0.6c0.2,0.1,0.4,0.1,0.5-0.1c0.1-0.1,0.1-0.2,0.1-0.3
			c0-0.2,0-0.5,0-0.7c-0.1-0.7-0.2-1.3-0.3-2c0-0.1,0,0,0,0c0,0,0-0.1,0-0.1c0-0.1,0-0.1,0-0.2c0,0,0-0.1,0-0.1c0,0,0,0,0,0
			c0,0.1-0.1,0.2-0.2,0.3c-0.1,0-0.1,0-0.2,0c-0.3,0-0.2-0.1-0.3-0.2c0,0,0,0,0,0c0.1,0.2,0.3,0.2,0.5,0.1
			C80.6,119.5,80.6,119.3,80.5,119.1L80.5,119.1z"/>
	</g>
</g>
<g>
	<g>
		<path class="st16" d="M69.1,101c-1.5,0-3-0.4-4-1.5c-0.3-0.3-0.8,0.2-0.5,0.5c1.1,1.3,2.9,1.7,4.5,1.7
			C69.6,101.7,69.6,101,69.1,101L69.1,101z"/>
	</g>
</g>
<g>
	<g>
		<path class="st16" d="M68.4,96.7c-1.9,2.5-6.2,3.3-8.9,1.6c-0.4-0.2-0.7,0.4-0.4,0.6c3,1.9,7.7,0.9,9.8-1.9
			C69.3,96.7,68.6,96.4,68.4,96.7L68.4,96.7z"/>
	</g>
</g>
<g>
	<g>
		<path class="st16" d="M67.8,95.1c-0.1,0.6-0.7,0.8-1.2,1c-0.6,0.3-1.3,0.6-2,0.8c-1.2,0.4-2.5,0.7-3.7,0.9
			c-1.1,0.2-2.3,0.4-3.4,0.4c-1.1,0-2.8-0.3-3.3-1.5c-0.2-0.4-0.8-0.2-0.7,0.2c1.1,2.6,5.1,2,7.2,1.6c1.6-0.3,3.2-0.7,4.7-1.2
			c1-0.4,2.8-0.9,3-2.1C68.5,94.8,67.8,94.6,67.8,95.1L67.8,95.1z"/>
	</g>
</g>
<g>
	<g>
		<path class="st16" d="M48.2,92.9c-2-1.2-3.1-3.7-1.5-5.7c0.8-1,2.1-1.6,3.4-1.9c2.8-0.8,5.9-0.7,8.8-0.6c3.7,0.1,7.5,0.1,11.2,0.5
			c4.6,0.5,9.2,1.3,13.8,2.4c2.4,0.6,4.8,1.3,7.2,2c1.1,0.3,2.8,1.3,3.9,0.9c0.4-0.2,0.2-0.8-0.2-0.7c-0.6,0.2-1.6-0.2-2.2-0.4
			c-1-0.3-1.9-0.6-2.9-0.9c-2.4-0.7-4.7-1.3-7.1-1.9c-4.8-1.1-9.8-1.9-14.7-2.3C64.1,84,60.3,84,56.5,84c-2.9,0-6.3,0.1-8.9,1.6
			c-3.3,1.9-3,6.1,0.2,7.9C48.2,93.7,48.6,93.1,48.2,92.9L48.2,92.9z"/>
	</g>
</g>
<g>
	<g>
		<path class="st16" d="M73.5,85.5c0.1,1-0.1,2-0.2,3c-0.2,1.2-0.3,2.5-0.7,3.7c-0.1,0.1-0.1,0.3-0.2,0.4c0,0.1-0.1,0.1,0,0
			c0,0,0.1,0,0,0c-0.1,0-0.1,0-0.2,0c-0.4,0-0.8-0.3-1.1-0.6c-0.8-0.9-1.1-2.2-1.4-3.4c-0.1-0.7-0.2-1.3-0.3-2c0-0.5,0-1,0.1-1.4
			c0.2-0.4-0.5-0.6-0.7-0.2c-0.2,0.4-0.2,0.9-0.2,1.4c0,0.7,0.1,1.3,0.2,2c0.2,1.3,0.6,2.8,1.5,3.9c0.3,0.4,0.8,0.8,1.3,1
			c0.4,0.1,1,0.1,1.2-0.3c0.3-0.4,0.4-0.9,0.5-1.4c0.2-0.7,0.3-1.4,0.4-2.2c0.1-0.8,0.2-1.6,0.3-2.4c0-0.5,0.1-1,0.1-1.5
			C74.2,85,73.5,85,73.5,85.5L73.5,85.5z"/>
	</g>
</g>
<g>
	<g>
		<path class="st16" d="M72.8,92.2c0.4,0.4,0.9,0.7,1.5,0.6c0.5-0.1,1-0.6,1.3-1c0.9-1.1,1.4-2.5,1.9-3.9c0.2-0.5,0.4-1.1,0.6-1.6
			c0.1-0.4-0.5-0.6-0.7-0.2c-0.3,1-0.7,2-1.1,3c-0.3,0.6-0.6,1.2-0.9,1.8c-0.3,0.4-0.6,0.9-1,1.1c-0.1,0.1-0.1,0.1-0.3,0.1
			c0,0-0.2,0-0.2,0c-0.2,0-0.4-0.2-0.6-0.4C73,91.3,72.5,91.8,72.8,92.2L72.8,92.2z"/>
	</g>
</g>
<g>
	<g>
		<path class="st16" d="M74.9,91.6c-0.1,0.5-0.2,1.1,0.4,1.4c0.4,0.2,1,0,1.4-0.2c1.3-0.7,2.1-1.9,2.9-3c0.6-0.9,1.1-1.8,1.7-2.6
			c0.3-0.4-0.4-0.7-0.6-0.4c-0.6,0.8-1.1,1.7-1.6,2.5c-0.5,0.8-1,1.6-1.7,2.2c-0.4,0.3-0.8,0.6-1.3,0.8c-0.1,0-0.2,0.1-0.3,0.1
			c-0.1,0,0,0-0.1,0c0,0,0,0,0,0c0,0,0,0,0,0c0,0,0-0.1,0-0.1c0-0.2,0-0.3,0.1-0.5C75.7,91.4,75,91.2,74.9,91.6L74.9,91.6z"/>
	</g>
</g>
<g>
	<g>
		<path class="st16" d="M76.9,93c0.7,1,2.3,0,3-0.5c1.3-0.9,2.5-1.9,3.4-3.2c0.3-0.4,0.7-1,0.6-1.6c-0.1-0.4-0.8-0.4-0.7,0
			c0,0.2,0,0.2-0.1,0.4c-0.1,0.2-0.2,0.4-0.3,0.6c-0.4,0.5-0.8,1-1.2,1.4c-0.9,0.9-2,1.8-3.1,2.3c-0.1,0.1-0.2,0.1-0.4,0.1
			c-0.1,0-0.2,0-0.3,0c-0.1,0-0.1,0-0.2,0c0.1,0,0,0-0.1,0c0,0,0,0,0,0c0.1,0.1-0.1-0.1,0,0C77.3,92.3,76.7,92.7,76.9,93L76.9,93z"
			/>
	</g>
</g>
<g>
	<g>
		<path class="st16" d="M77.3,93.4c0.3,1.8,3.2,1.2,4.3,0.9c2.5-0.5,5-1.5,7.2-2.7c0.8-0.5,1.8-1,2.3-1.8c0.2-0.4-0.4-0.7-0.6-0.4
			c-0.4,0.6-1.1,1-1.7,1.3c-0.9,0.6-2,1-3,1.5c-1.9,0.8-4.1,1.6-6.3,1.7c-0.6,0-1.5,0-1.6-0.7C77.9,92.8,77.3,93,77.3,93.4
			L77.3,93.4z"/>
	</g>
</g>
<g>
	<g>
		<path class="st16" d="M80.3,94.8c1.9,1,4.4,0.9,6.4,0.7c2.2-0.2,4.5-0.6,6.6-1.5c0.4-0.2,0.1-0.8-0.4-0.6
			c-1.9,0.8-4.2,1.2-6.3,1.4c-1.9,0.2-4.3,0.4-6.1-0.6C80.2,93.9,79.9,94.6,80.3,94.8L80.3,94.8z"/>
	</g>
</g>
<g>
	<g>
		<path class="st16" d="M76.9,94c3.2,3.5,8.4,5,12.8,6.5c2.1,0.7,7.3,2.3,7.4-1.4c0-0.5-0.7-0.5-0.7,0c-0.1,3.2-5.5,1.1-7.2,0.5
			c-4.1-1.4-8.8-2.8-11.8-6.1C77,93.2,76.5,93.7,76.9,94L76.9,94z"/>
	</g>
</g>
<g>
	<g>
		<path class="st16" d="M77.5,96.9c2.5,2.6,5.5,5.1,9.2,5.9c1.7,0.4,5.5,0.9,5.4-1.9c0-0.4-0.7-0.5-0.7,0c0.1,2.3-3.8,1.4-5.1,1.1
			c-3.3-0.9-6-3.2-8.3-5.6C77.7,96.1,77.2,96.6,77.5,96.9L77.5,96.9z"/>
	</g>
</g>
<g>
	<g>
		<path class="st16" d="M77.6,99.4c1.2,1,2.1,2.3,3.5,3.1c0.6,0.4,1.3,0.6,2,0.7c0.8,0.1,1.6-0.2,2.4-0.6c0.4-0.2,0-0.8-0.4-0.6
			c-0.7,0.3-1.4,0.6-2.2,0.5c-0.6-0.1-1.2-0.4-1.7-0.7c-1.1-0.8-2-1.9-3.1-2.8C77.7,98.6,77.2,99.1,77.6,99.4L77.6,99.4z"/>
	</g>
</g>
<g>
	<g>
		<path class="st16" d="M77.8,102.6c0.5,1,1.9,1.1,2.7,0.4c0.2-0.2,0.4-0.5,0.4-0.8c0-0.2-0.1-0.4-0.2-0.4c-0.2,0-0.4,0.1-0.4,0.2
			c0,0.1,0,0.1-0.1,0.2c0,0,0,0,0,0c0,0,0,0,0,0c0,0,0,0.1,0,0.1c0,0,0,0.1-0.1,0.1c0.1-0.1,0,0,0,0c0,0-0.1,0.1-0.1,0.1
			c0,0,0,0,0,0c0,0-0.1,0-0.1,0.1c0,0,0,0-0.1,0c0,0-0.1,0.1,0,0c-0.1,0-0.2,0.1-0.4,0.1c0.1,0,0,0,0,0c0,0-0.1,0-0.1,0
			c-0.1,0-0.1,0-0.2,0c0.1,0,0,0,0,0c0,0-0.1,0-0.1,0c-0.1,0-0.1,0-0.2-0.1c0.1,0,0,0,0,0c0,0,0,0-0.1,0c0,0-0.1,0-0.1-0.1
			c-0.1,0,0,0,0,0c0,0-0.1-0.1-0.1-0.1c0,0,0,0,0,0c0,0,0,0,0,0c0,0,0-0.1-0.1-0.1c-0.1-0.2-0.3-0.2-0.5-0.1
			C77.8,102.2,77.7,102.4,77.8,102.6L77.8,102.6z"/>
	</g>
</g>
<g>
	<g>
		<path class="st16" d="M67.8,94c-2.1,0.7-4.3,0.6-6.5,0.5c-1.7-0.1-3.5-0.1-5.2-0.1c-1.5,0-2.9,0-4.4-0.1c-1.3-0.2-3.2-0.4-4-1.7
			c-0.2-0.4-0.8,0-0.6,0.4c1.5,2.5,5.8,2.2,8.3,2.2c1.8,0,3.6,0,5.5,0c2.3,0.1,4.7,0.2,7-0.5C68.4,94.6,68.2,93.9,67.8,94L67.8,94z"
			/>
	</g>
</g>
<g>
	<g>
		<path class="st16" d="M49.1,94.4c1.1,2.3,3.6,2.7,5.9,2.6c2.4-0.1,4.9-0.9,7.4-0.7c0.4,0,0.4-0.7,0-0.7c-2.2-0.2-4.5,0.5-6.8,0.6
			c-2.2,0.2-4.8,0.1-5.9-2.2C49.5,93.7,48.9,94,49.1,94.4L49.1,94.4z"/>
	</g>
</g>
<g>
	<g>
		<path class="st16" d="M70.3,92.1c-0.8,1-2.1-0.4-2.7-1c-1.1-1.3-2-2.8-2.6-4.4c-0.2-0.6-0.5-1.3-0.3-1.9c0.1-0.4-0.6-0.6-0.7-0.2
			c-0.2,0.6,0,1.4,0.2,2c0.3,0.9,0.7,1.8,1.2,2.6c0.5,0.9,1,1.7,1.7,2.4c0.5,0.6,1.1,1.2,1.9,1.4c0.7,0.3,1.4,0.1,1.9-0.6
			C71.2,92.1,70.6,91.7,70.3,92.1L70.3,92.1z"/>
	</g>
</g>
<g>
	<g>
		<path class="st16" d="M69.6,92.6c-2.3,0.9-4.6-1.3-6.1-2.8c-1.7-1.7-3.1-3.6-4.6-5.4c-0.3-0.3-0.8,0.2-0.5,0.5
			c1.2,1.4,2.3,3,3.6,4.4c1.4,1.5,3,3.2,5,3.9c0.9,0.3,1.9,0.4,2.8,0.1C70.2,93.1,70,92.5,69.6,92.6L69.6,92.6z"/>
	</g>
</g>
<g>
	<g>
		<path class="st16" d="M67.7,92.7c-0.3,0.7-1.5,0.6-2.2,0.5c-1.4-0.2-2.7-0.6-4-1.1c-3.1-1.1-6.1-2.7-8.7-4.7
			c-0.9-0.7-2-1.6-2.2-2.7c-0.1-0.4-0.8-0.3-0.7,0.2c0.2,1.1,1.2,2,1.9,2.7c1.3,1.1,2.7,2,4.2,2.8c2.9,1.6,6.2,3.2,9.6,3.5
			c0.9,0.1,2.3,0.1,2.7-0.9C68.5,92.6,67.9,92.3,67.7,92.7L67.7,92.7z"/>
	</g>
</g>
<g>
	<g>
		<path class="st16" d="M45.8,87.9c2.2,2.7,6.1,2.9,9,4.4c0.4,0.2,0.8-0.4,0.4-0.6c-1.5-0.8-3.1-1.2-4.6-1.8
			c-1.5-0.6-3.1-1.2-4.2-2.5C46,87.1,45.5,87.6,45.8,87.9L45.8,87.9z"/>
	</g>
</g>
<g>
	<g>
		<path class="st16" d="M54.2,84.9c0.4,1.4,1.7,2.4,2.8,3.2c1.2,0.9,2.6,1.5,3.9,2.2c0.4,0.2,0.8-0.4,0.4-0.6
			c-1.3-0.6-2.5-1.3-3.7-2c-1.1-0.7-2.3-1.6-2.7-2.9C54.7,84.3,54,84.4,54.2,84.9L54.2,84.9z"/>
	</g>
</g>
<g>
	<g>
		<path class="st16" d="M94.6,91.4c0,0,0.1,0,0.1,0c0,0,0.1,0,0.1,0c0,0,0.1,0,0.1-0.1c0,0,0.1-0.1,0.1-0.1c0,0,0-0.1,0-0.1
			c0,0,0-0.1,0-0.1c0-0.1,0-0.1-0.1-0.2c0,0,0,0-0.1-0.1c-0.1,0-0.1,0-0.2,0c0,0-0.1,0-0.1,0c0,0-0.1,0-0.1,0c0,0-0.1,0-0.1,0.1
			c0,0-0.1,0.1-0.1,0.1c0,0,0,0.1,0,0.1c0,0,0,0.1,0,0.1c0,0.1,0,0.1,0.1,0.2c0,0,0,0,0.1,0.1C94.5,91.3,94.6,91.4,94.6,91.4
			L94.6,91.4z"/>
	</g>
</g>
<g>
	<g>
		<path class="st16" d="M94.5,90.8c-0.8,0.9-2,1.3-3.1,1.6c-1.2,0.3-2.5,0.5-3.7,0.5c-0.5,0-0.4,0.7,0,0.7c1.3,0.1,2.7-0.1,4-0.5
			c1.2-0.3,2.5-0.8,3.3-1.8C95.3,90.9,94.8,90.4,94.5,90.8L94.5,90.8z"/>
	</g>
</g>
<g>
	<g>
		<path class="st16" d="M92.7,75.6c6.1,3.3,11.3,8.8,12.6,15.8c0.1,0.4,0.8,0.3,0.7-0.2c-1.4-7.2-6.7-12.9-12.9-16.2
			C92.7,74.8,92.4,75.4,92.7,75.6L92.7,75.6z"/>
	</g>
</g>
<g>
	<g>
		<path class="st16" d="M47.3,92.4c-1.4-0.9-2.6-2.1-3-3.8c-0.4-1.8,0.2-3.8,1-5.4c1.4-2.9,3.9-5.1,6.5-6.9c0.4-0.3,0-0.9-0.4-0.6
			c-2.9,2.1-5.7,4.5-7.1,7.9c-0.7,1.7-1.2,3.7-0.6,5.5c0.5,1.7,1.8,2.9,3.2,3.8C47.3,93.3,47.7,92.7,47.3,92.4L47.3,92.4z"/>
	</g>
</g>
<g>
	<g>
		<path class="st16" d="M57.4,76.3c-0.8,0.2-1.5,0.9-1.7,1.7c-0.1,0.8,0.2,1.7,0.9,2.2c1.2,0.9,3,0.9,4.3,0.1
			c0.7-0.5,1.2-1.2,1.3-2.1c0-0.5-0.7-0.4-0.7,0c-0.1,1.2-1.3,1.9-2.4,2c-1.1,0.1-2.6-0.4-2.7-1.7c0-0.8,0.5-1.3,1.2-1.5
			C58,76.9,57.8,76.2,57.4,76.3L57.4,76.3z"/>
	</g>
</g>
<g>
	<g>
		<path class="st16" d="M48.7,78.7c0.2,0,0.3,0,0.5,0.1c0,0,0,0,0.1,0c0,0,0.1,0,0.1,0.1c0.1,0,0.1,0,0.1,0.1c0,0,0.1,0.1,0.1,0.1
			c0,0,0,0,0,0c0,0,0,0.1,0.1,0.1c0,0,0,0,0,0c0,0,0,0,0,0c0,0,0,0.1,0,0.1c0,0,0,0,0,0c0,0,0,0,0,0.1c0,0,0,0.1,0,0.1
			c0-0.1,0,0,0,0.1c0,0,0,0.1,0,0c0,0,0,0.1-0.1,0.1c0,0.1-0.1,0.1-0.2,0.2c-0.1,0.1-0.3,0.2-0.4,0.3c-0.3,0.2-0.7,0.2-1.1,0.3
			c-0.4,0.1-0.8,0.1-1.3,0.1c-0.2,0-0.3,0.1-0.3,0.3c0,0.2,0.2,0.4,0.3,0.3c0.9-0.1,1.9-0.1,2.8-0.6c0.4-0.2,0.8-0.5,0.9-1
			c0.1-0.4,0-0.8-0.3-1.2c-0.3-0.4-0.9-0.6-1.3-0.6C48.3,78,48.3,78.7,48.7,78.7L48.7,78.7z"/>
	</g>
</g>
<g>
	<g>
		<path class="st16" d="M94.8,82.1c0,0-0.1,0-0.1,0c-0.1,0-0.1,0-0.2,0c-0.1,0-0.3,0.1-0.4,0.1c-0.3,0.1-0.6,0.1-0.9,0.2
			c-0.6,0.1-1.2,0.3-1.8,0.6c-0.5,0.3-0.8,0.8-0.8,1.4c0,0.6,0.5,1,1,1.3c0.6,0.3,1.3,0.5,1.9,0.6c0.7,0.1,1.4,0.2,2,0.2
			c1.2,0,2.6-0.6,2.5-2c0-0.7-0.4-1.3-0.9-1.8c-0.6-0.5-1.4-0.7-2.2-0.6c-0.2,0-0.3,0.3-0.2,0.4c0.1,0.2,0.2,0.3,0.4,0.2
			c1-0.1,2,0.6,2.2,1.6c0.2,1-0.9,1.4-1.7,1.4c-1.1,0-2.4-0.1-3.4-0.6c-0.3-0.2-0.8-0.4-0.9-0.7c-0.1-0.4,0.1-0.7,0.5-1
			c1-0.6,2.2-0.5,3.3-1C95.6,82.5,95.2,81.9,94.8,82.1L94.8,82.1z"/>
	</g>
</g>
<g>
	<g>
		<path class="st16" d="M78.5,81.8c-0.4,0-0.8,0-1.1,0.2c-0.3,0.2-0.5,0.5-0.5,0.8c0,0.3,0.2,0.7,0.4,0.9c0.3,0.3,0.6,0.5,1,0.6
			c0.6,0.2,1.3,0.2,1.8-0.2c0.4-0.3,0.7-0.8,0.6-1.3c-0.2-0.6-1-0.8-1.6-0.8c-0.1,0-0.2,0-0.3,0c-0.2,0-0.4,0.1-0.3,0.3
			c0,0.2,0.2,0.4,0.3,0.3c0.2,0,0.4,0,0.5,0c0.1,0,0.1,0,0.2,0c-0.1,0,0,0,0,0c0,0,0.1,0,0.1,0c0.1,0,0.1,0,0.2,0.1c-0.1,0,0,0,0,0
			c0,0,0.1,0,0.1,0c0,0,0.1,0.1,0,0c0,0,0,0,0.1,0c0,0,0,0,0,0c0,0,0,0.1,0,0c0,0,0,0,0,0c0,0,0,0,0,0c0,0.1,0-0.1,0,0
			c0,0,0,0.1,0,0.1c0-0.1,0-0.1,0,0c0,0,0,0,0,0.1c0,0,0,0,0,0c0,0.1,0-0.1,0-0.1c0,0,0,0,0,0.1c0,0,0,0,0,0.1c0,0,0,0.1,0,0
			c0,0,0,0.1-0.1,0.1c0,0,0,0,0,0.1c0,0.1,0.1-0.1,0,0c0,0-0.1,0.1-0.1,0.1c0,0,0,0,0,0c-0.1,0.1,0.1,0,0,0c0,0-0.1,0.1-0.1,0.1
			c0,0,0,0-0.1,0c0,0-0.1,0,0,0c-0.1,0-0.1,0-0.2,0.1c-0.1,0-0.1,0-0.2,0c0,0,0,0,0,0c0.1,0,0.1,0,0,0c0,0-0.1,0-0.1,0
			c-0.1,0-0.1,0-0.2,0c0,0-0.1,0-0.1,0c-0.1,0,0,0,0,0c0,0-0.1,0-0.1,0c-0.1,0-0.1,0-0.2,0c0,0-0.1,0-0.1,0c0,0,0,0-0.1,0
			c0,0,0,0,0,0c0,0,0.1,0,0,0c-0.1,0-0.1-0.1-0.2-0.1c0,0-0.1,0-0.1-0.1c0,0,0,0,0,0c-0.1-0.1,0,0,0,0c-0.1,0-0.1-0.1-0.2-0.1
			c0,0,0,0-0.1-0.1c0,0,0,0,0,0c0,0,0,0,0,0c0,0-0.1-0.1-0.1-0.2c0,0,0-0.1,0,0c0,0,0,0,0,0c0,0,0-0.1,0-0.1c0,0,0,0,0,0
			c0-0.1,0,0.1,0,0c0,0,0-0.1,0-0.1c0,0,0,0,0,0c0-0.1,0,0.1,0,0c0,0,0-0.1,0-0.1c0,0,0,0,0,0c0-0.1,0,0.1,0,0c0,0,0-0.1,0-0.1
			c0,0,0,0,0,0c0,0,0,0,0,0c0,0,0,0,0.1-0.1c-0.1,0.1-0.1,0,0,0c0,0,0,0,0.1,0c0,0,0,0,0,0c0,0,0.1,0,0,0c0,0,0.1,0,0.1,0
			c0,0,0.1,0,0.1,0c0,0,0,0,0.1,0c-0.1,0,0,0,0,0c0.1,0,0.1,0,0.2,0c0.1,0,0.2,0,0.3,0c0.2,0,0.4-0.2,0.3-0.3
			C78.8,81.9,78.7,81.8,78.5,81.8L78.5,81.8z"/>
	</g>
</g>
<g>
	<g>
		<path class="st16" d="M88.5,77.5c0.3,1,1.3,1.3,2.2,1.2c0.8-0.1,1.8-0.5,2.1-1.4c0.2-0.6-0.1-1.1-0.4-1.5c-0.1-0.1-0.4-0.1-0.5,0
			c-0.1,0.1-0.1,0.4,0,0.5c0.1,0.1,0.1,0.1,0.2,0.2c0,0,0,0.1,0.1,0.1c0,0.1,0,0,0,0c0,0,0,0.1,0,0.1c0,0,0,0.1,0,0.1
			c0,0.1,0,0,0,0.1c0,0,0,0.1,0,0.1c0,0,0,0,0,0c0-0.1,0,0,0,0c0,0,0,0.1,0,0.1c0,0,0,0,0,0.1c0-0.1,0,0,0,0c0,0.1-0.1,0.1-0.1,0.2
			c0-0.1,0,0,0,0c0,0-0.1,0.1-0.1,0.1c0,0-0.1,0.1-0.1,0.1c0,0-0.1,0.1,0,0c0,0,0,0-0.1,0c-0.1,0-0.1,0.1-0.2,0.1c0,0-0.1,0-0.1,0.1
			c0,0,0,0-0.1,0c0.1,0,0,0,0,0c-0.2,0.1-0.4,0.1-0.5,0.1c0,0,0,0-0.1,0c-0.1,0,0.1,0,0,0c0,0-0.1,0-0.1,0c-0.1,0-0.2,0-0.3,0
			c0,0-0.1,0-0.1,0c-0.1,0,0.1,0,0,0c0,0,0,0-0.1,0c-0.1,0-0.2,0-0.3-0.1c0,0,0,0-0.1,0c-0.1,0,0.1,0,0,0c0,0-0.1,0-0.1-0.1
			c0,0-0.1,0-0.1-0.1c-0.1,0,0.1,0,0,0c0,0,0,0-0.1-0.1c0,0-0.1-0.1-0.1-0.1c0,0,0,0.1,0,0c0,0,0,0,0-0.1c0,0-0.1-0.1-0.1-0.1
			c0-0.1,0,0,0,0c0,0,0-0.1,0-0.1C89,76.9,88.3,77.1,88.5,77.5L88.5,77.5z"/>
	</g>
</g>
<g>
	<g>
		<path class="st16" d="M103.8,86.9c-0.5-0.1-1-0.1-1.4,0.3c-0.3,0.4-0.4,1-0.1,1.4c0.2,0.3,0.5,0.4,0.8,0.6
			c0.4,0.2,0.8,0.3,1.2,0.5c0.3,0.1,0.7,0.2,1,0.3c0.4,0.1,0.6-0.6,0.2-0.7c-0.2-0.1-0.5-0.1-0.7-0.2c-0.2-0.1-0.3-0.1-0.5-0.2
			c-0.1,0-0.2-0.1-0.2-0.1c0,0-0.1,0-0.1,0c0,0,0,0-0.1,0c0,0-0.1,0,0,0c-0.2-0.1-0.3-0.1-0.5-0.2c-0.1,0-0.1-0.1-0.2-0.1
			c0,0-0.1,0-0.1-0.1c0,0-0.1-0.1,0,0c0,0-0.1-0.1-0.1-0.1c0,0,0,0.1,0,0c0,0.1,0,0,0,0c0-0.1,0-0.2,0-0.2c0,0,0,0,0-0.1
			c0,0,0-0.1,0,0c0,0,0,0,0,0c0,0,0,0,0-0.1c0-0.1,0,0,0,0c0,0,0,0,0-0.1c0-0.1,0,0,0,0c0,0,0,0,0.1-0.1c0,0,0,0,0,0c0,0,0,0,0.1,0
			c0,0,0,0,0.1,0c-0.1,0,0,0,0,0c0,0,0.1,0,0.1,0c0,0-0.1,0,0,0c0,0,0.1,0,0.1,0c0,0,0,0,0.1,0c0,0,0.1,0,0.1,0c0,0,0.1,0,0.1,0
			c0,0,0.1,0,0.1,0C104.1,87.7,104.3,87,103.8,86.9L103.8,86.9z"/>
	</g>
</g>
<g>
	<g>
		<path class="st16" d="M97.1,78.1c-1.2,1.9,0.9,3.9,2.6,4.5c0.5,0.2,1,0.2,1.6,0.1c0.4-0.1,0.3-0.8-0.2-0.7c-0.1,0-0.1,0-0.2,0
			c-0.1,0-0.2,0-0.3,0c-0.2,0-0.3,0-0.5-0.1c-0.4-0.1-0.8-0.3-1.1-0.5c-0.7-0.4-1.3-1-1.5-1.8c-0.1-0.4,0-0.8,0.2-1.2
			C97.9,78.1,97.3,77.8,97.1,78.1L97.1,78.1z"/>
	</g>
</g>
<g>
	<g>
		<path class="st16" d="M101.3,82.6c0.5,0,0.5-0.7,0-0.7C100.9,81.9,100.9,82.6,101.3,82.6L101.3,82.6z"/>
	</g>
</g>
<g>
	<g>
		<path class="st16" d="M97,82c1,1.4,1.9,2.8,2.8,4.2c0.5,0.8,0.9,1.6,1.3,2.5c0.2,0.6,0.5,1.3,0.4,1.9c-0.1,0.4,0.6,0.6,0.7,0.2
			c0.1-0.7,0-1.4-0.3-2c-0.3-0.9-0.8-1.8-1.3-2.6c-0.9-1.6-2-3.1-3-4.5C97.3,81.2,96.7,81.6,97,82L97,82z"/>
	</g>
</g>
<g>
	<g>
		<path class="st16" d="M101.4,91.2c0,4.3-0.2,8.7-1.5,12.8c-0.1,0.4,0.5,0.6,0.7,0.2c1.3-4.2,1.5-8.6,1.5-13
			C102.1,90.8,101.4,90.8,101.4,91.2L101.4,91.2z"/>
	</g>
</g>
<g>
	<g>
		<path class="st16" d="M101.2,90.9c0-0.1,0.1,0.1,0-0.1c-0.1-0.1-0.3-0.2-0.4-0.3c-0.3-0.2-0.5-0.4-0.7-0.7c-0.4-0.3-0.7-0.7-1-1
			c-0.1-0.1-0.4-0.1-0.5,0c-0.8,0.6-1.7,0.3-2.5,0c-0.2-0.1-0.4,0.1-0.4,0.2c-0.1,0.5-1.4,4-0.3,4.4c-0.1-0.2-0.1-0.4-0.2-0.6
			c-0.7,0.9-1.9,1-3,1.1c-0.1,0-0.3,0.1-0.3,0.3c-0.1,0.7-0.5,1-1.1,1.1c-0.2,0.1-0.3,0.3-0.2,0.5c0.7,1.6-1.1,2.4-2.3,2.7
			c0.1,0.2,0.1,0.4,0.2,0.7c1.9-0.6,4.3-0.1,5.1,1.9c0.1,0.2,0.4,0.2,0.5,0.1c0.8-0.8,1.4-1.9,2.2-2.7c0.2-0.2,0.5-0.5,0.8-0.5
			c0.7-0.1,0.5,0.9,0.3,1.2c-0.4,0.6-0.9,1.2-1.5,1.6c-0.4,0.2,0,0.8,0.4,0.6c0.2-0.1,0.3-0.2,0.5-0.2c-0.2-0.1-0.3-0.1-0.5-0.2
			c0.5,1.3,0.3,2.4-1,3.1c-0.3,0.2-0.2,0.7,0.2,0.7c1.6-0.2,2.2,0.9,1.7,2.3c-0.1,0.2,0.1,0.4,0.3,0.4c1.2,0.1,1.3,1.6,0.9,2.4
			c0.2,0.1,0.4,0.1,0.7,0.2c0.3-0.9,1.6-2.7,2.5-1.6c0.2,0.3,0.6,0,0.6-0.3c-0.1-0.4-0.2-1.1,0.1-1.5c0.4-0.5,1.1-0.2,1.6,0
			c0.3,0.1,0.6-0.1,0.5-0.4c-0.2-1.3-0.8-2.8,0-4c-0.2,0-0.3,0.1-0.5,0.1c0.2,0.1,0.4,0.2,0.6,0.3c0.2,0.1,0.6,0,0.5-0.3
			c0-0.4-0.3-1.6,0.3-1.1c0.4,0.4,0.5,1.2,0.5,1.7c0,0.3,0.4,0.5,0.6,0.2c0.3-0.4,0.5-0.7,1-0.5c0.6,0.2,0.4,0.6,0.3,1.2
			c-0.1,0.3,0.2,0.6,0.5,0.4c0.2-0.2,0.4-0.3,0.6-0.5c-0.2,0-0.3,0-0.5,0c0.5,0.5,0.5,1.1,0.4,1.7c-0.1,0.4,0.5,0.6,0.6,0.3
			c0.3-0.7,0.5-1.4,0.6-2.2c0-0.4,0.1-0.9,0-1.3c-0.1-0.6-0.2-0.4,0.3-0.1c0.2,0.2,0.5-0.1,0.5-0.3c0-1-1-2.7,0.6-2.8
			c0.3,0,0.5-0.5,0.2-0.7c-0.5-0.3-0.9-0.6-1.1-1.3c-0.1,0.1-0.2,0.3-0.2,0.4c0.3-0.1,0.4-0.1,0.7-0.3c0.3-0.1,0.2-0.6-0.1-0.6
			c-1.7-0.5-1-2,0.3-2.4c0.2-0.1,0.4-0.4,0.2-0.6c-0.4-0.3-2.7-1.3-2.2-1.8c0.2-0.2,0-0.6-0.2-0.6c-1.6-0.2-3-0.7-4.5-1
			c-1-0.2-1.8,0-2.4,0.8c-0.3,0.4,0.3,0.7,0.6,0.4c0.7-1,2.1-0.4,3.1-0.1c1.1,0.3,2.1,0.5,3.2,0.6c-0.1-0.2-0.2-0.4-0.2-0.6
			c-1.4,1.5,1.4,2.1,2.2,2.8c0.1-0.2,0.1-0.4,0.2-0.6c-2.1,0.7-2.7,3-0.3,3.8c0-0.2-0.1-0.4-0.1-0.6c-0.2,0.1-0.3,0.1-0.5,0.2
			c-0.2,0.1-0.3,0.2-0.2,0.4c0.2,0.8,0.7,1.3,1.4,1.7c0.1-0.2,0.1-0.4,0.2-0.7c-2.3,0.1-1.3,1.9-1.3,3.5c0.2-0.1,0.4-0.2,0.5-0.3
			c-0.3-0.2-0.6-0.5-1.1-0.5c-0.1,0-0.2,0.1-0.2,0.2c-0.2,1.4,0.1,2.7-0.6,4.1c0.2,0.1,0.4,0.2,0.6,0.3c0.2-0.9,0.1-1.8-0.6-2.4
			c-0.1-0.1-0.4-0.1-0.5,0c-0.1,0.2-0.3,0.3-0.5,0.4c0.2,0.1,0.3,0.3,0.5,0.4c0.2-0.7,0.3-1.8-0.4-2.2c-0.8-0.5-1.5,0.3-2,0.8
			c0.2,0.1,0.4,0.2,0.6,0.2c0-0.8-0.2-2.4-1.2-2.7c-1.1-0.3-1,1.4-1,2c0.2-0.1,0.4-0.2,0.5-0.3c-0.2-0.1-0.4-0.3-0.6-0.3
			c-0.2-0.1-0.4,0-0.5,0.1c-0.8,1.4-0.3,3,0,4.5c0.2-0.1,0.3-0.3,0.5-0.4c-0.7-0.3-1.7-0.7-2.3-0.1c-0.7,0.6-0.5,1.6-0.4,2.4
			c0.2-0.1,0.4-0.2,0.6-0.3c-1.4-1.7-3.2,0.5-3.7,1.9c-0.2,0.4,0.5,0.6,0.7,0.2c0.5-1.4,0-3.2-1.6-3.3c0.1,0.1,0.2,0.3,0.3,0.4
			c0.6-1.8-0.4-3.5-2.4-3.2c0.1,0.2,0.1,0.4,0.2,0.7c1.6-0.8,2-2.2,1.3-3.9c-0.1-0.2-0.3-0.3-0.5-0.2c-0.2,0.1-0.3,0.2-0.5,0.2
			c0.1,0.2,0.2,0.4,0.4,0.6c0.9-0.6,3.5-3.4,1.3-4.1c-1.6-0.5-2.9,2.6-3.8,3.4c0.2,0,0.4,0,0.5,0.1c-1-2.3-3.7-2.9-5.9-2.2
			c-0.4,0.1-0.3,0.8,0.2,0.7c1.8-0.5,3.7-1.7,2.7-3.7c-0.1,0.2-0.1,0.3-0.2,0.5c0.9-0.2,1.4-0.7,1.6-1.6c-0.1,0.1-0.2,0.2-0.3,0.3
			c1.3-0.1,2.6-0.2,3.5-1.3c0.2-0.2,0.1-0.5-0.2-0.6c0.4,0.1,0.2-0.1,0.2-0.5c0-0.2,0-0.4,0-0.6c0.1-0.8,0.4-1.6,0.6-2.4
			c-0.1,0.1-0.3,0.2-0.4,0.2c1.1,0.4,2.2,0.6,3.2-0.2c-0.2,0-0.3,0-0.5,0c0.4,0.4,3.4,3.6,3.4,1.6C101.9,90.4,101.2,90.4,101.2,90.9
			L101.2,90.9z"/>
	</g>
</g>
<g>
	<g>
		<path class="st16" d="M102,91.3c-0.7-0.4-1.6-0.1-2.3,0.2c-1,0.5-1.8,1.2-2.6,1.9c-1,0.9-2,1.7-3.1,2.5c-1.3,0.8-2.6,1.5-3.9,2.2
			c-0.4,0.2-0.1,0.8,0.4,0.6c2.3-1.1,4.7-2.4,6.6-4.2c0.7-0.7,1.4-1.3,2.3-1.9c0.6-0.4,1.6-1.1,2.4-0.7
			C102,92.1,102.4,91.5,102,91.3L102,91.3z"/>
	</g>
</g>
<g>
	<g>
		<path class="st16" d="M101.7,92.4c3.4,3,5.6,7.5,7.1,11.7c0.1,0.4,0.8,0.2,0.7-0.2c-1.5-4.4-3.7-9-7.2-12
			C101.8,91.6,101.3,92.1,101.7,92.4L101.7,92.4z"/>
	</g>
</g>
<g>
	<g>
		<path class="st16" d="M102.5,91.8c1.2,0.1,2.1,1.1,3.1,1.6c1.2,0.7,2.6,0.9,4,0.9c0.5,0,0.5-0.7,0-0.7c-0.8,0-1.5,0-2.3-0.2
			c-0.6-0.2-1.2-0.4-1.8-0.8c-1-0.6-1.9-1.4-3.1-1.5C102,91.1,102,91.8,102.5,91.8L102.5,91.8z"/>
	</g>
</g>
<g>
	<g>
		<path class="st16" d="M45.7,129.1c1.8,0.3,3.6,0,5.4-0.2c2.1-0.3,4.1-0.2,6.2-0.2c0.5,0,0.5-0.7,0-0.7c-2,0-4-0.1-6,0.2
			c-1.8,0.2-3.7,0.6-5.5,0.3C45.5,128.3,45.3,129,45.7,129.1L45.7,129.1z"/>
	</g>
</g>
<g>
	<g>
		<path class="st16" d="M57.6,128.2c-1.3,0.4-2.6,0.7-3.9,1.2c-0.2,0.1-0.4,0.4-0.2,0.6c0.8,0.6,0.3,1.3-0.1,1.8
			c-0.2,0.2,0,0.7,0.3,0.6c0.4-0.2,0.6,0,0.7,0.5c-0.1,0.4,0.5,0.7,0.6,0.3c0.6-1.4,1.8-0.4,1.2,0.8c-0.2,0.3,0.3,0.7,0.5,0.4
			c0.6-0.6,0.2,0.7,0.1,0.7c-0.2,0.3,0.3,0.7,0.5,0.4c1-1,2-0.4,1.8,0.9c0,0.3,0.3,0.6,0.6,0.3c1.4-1.5,3.6-2.9,5.6-1.7
			c0.4,0.2,0.7-0.3,0.4-0.5c-0.5-0.5-1.1-0.9-1.7-1.3c-0.8-0.5-2.1-1.6-0.4-2.1c1.8-0.5,4.5,1.6,5.1,3.3c0.1,0.2,0.4,0.4,0.6,0.2
			c0.4-0.5,0.9-1,1.4-1.4c0.9-0.5,1.7-0.2,2.3,0.6c0.1,0.1,0.3,0.1,0.4,0.1c0.9-0.7,1.8-0.5,2.6,0.3c0.3,0.3,0.8-0.2,0.5-0.5
			c-0.3-0.4-0.6-0.7-0.8-1.1c-0.4-0.7-0.4-1,0.6-0.8c0-0.2,0.1-0.5,0.1-0.7c-0.6,0-1.1-0.4-1.3-0.9c-0.1,0.2-0.1,0.3-0.2,0.5
			c0.4-0.1,0.7-0.3,1.2-0.2c0-0.2,0-0.5,0-0.7c-2.2,0.2-5,0.1-6.7-1.5c0,0.2,0,0.4-0.1,0.5c1.3-0.5,2.7-0.4,4,0
			c0.4,0.1,0.6-0.4,0.3-0.6c-0.2-0.1-0.4-0.2-0.6-0.3c0,0.2,0,0.4,0.1,0.5c1-1,2.6,0.3,3.7-0.4c0.2-0.1,0.2-0.5,0-0.6
			c-1.4-0.8-3.1-0.7-4.5-1.5c0,0.2,0,0.4,0,0.6c0.3-0.2,0.6-0.3,1-0.3c0-0.2-0.1-0.5-0.1-0.7c-1.1,0.3-2.3,0.2-3.3-0.4
			c0,0.2-0.1,0.4-0.1,0.6c0.2,0,0.3-0.1,0.5-0.1c0.4-0.1,0.3-0.7-0.2-0.7c-1.5,0.2-3.6,0.7-4.9-0.4c0,0.2,0,0.3,0,0.5
			c0.1-0.1,0.2-0.3,0.4-0.4c0.3-0.2,0.1-0.7-0.3-0.6c-1.9,0.4-3.7,0.9-5.5,1.5c0.1,0.2,0.1,0.4,0.2,0.7c0.1,0,0.2-0.1,0.3-0.1
			c-0.1-0.2-0.3-0.3-0.4-0.5c-0.3,0.3-1.1,0.6-1.5,0.7c-0.6,0.3-1.3,0.5-1.8,0.9c-0.8,0.6-0.4,1.2,0.4,1.3c0.4,0.1,0.4-0.6,0-0.7
			c-0.3,0-0.3,0.1,0-0.1c0.1-0.1,0.3-0.2,0.4-0.2c0.4-0.2,0.9-0.4,1.3-0.6c0.5-0.2,1.3-0.5,1.6-0.9c0.2-0.2-0.1-0.6-0.4-0.5
			c-0.1,0-0.2,0.1-0.3,0.1c-0.4,0.1-0.2,0.8,0.2,0.7c1.8-0.6,3.7-1.1,5.5-1.5c-0.1-0.2-0.2-0.4-0.3-0.6c-0.2,0.2-0.4,0.3-0.5,0.5
			c-0.1,0.1-0.2,0.4,0,0.5c1.5,1.3,3.8,0.8,5.5,0.6c-0.1-0.2-0.1-0.4-0.2-0.7c-0.2,0-0.3,0.1-0.5,0.1c-0.3,0.1-0.3,0.5-0.1,0.6
			c1.1,0.7,2.6,0.9,3.8,0.5c0.4-0.1,0.3-0.7-0.1-0.7c-0.5,0-0.9,0.2-1.3,0.4c-0.2,0.1-0.2,0.5,0,0.6c1.4,0.8,3.1,0.7,4.5,1.5
			c0-0.2,0-0.4,0-0.6c-0.7,0.4-1.6-0.1-2.4-0.1c-0.6,0-1.1,0.2-1.5,0.6c-0.2,0.2-0.1,0.4,0.1,0.5c0.2,0.1,0.4,0.2,0.6,0.3
			c0.1-0.2,0.2-0.4,0.3-0.6c-1.5-0.5-3.1-0.6-4.5,0c-0.2,0.1-0.2,0.4-0.1,0.5c1.8,1.8,4.8,2,7.2,1.7c0.4,0,0.5-0.7,0-0.7
			c-0.5,0-0.9,0.1-1.4,0.2c-0.2,0.1-0.3,0.3-0.2,0.5c0.4,0.8,1,1.1,1.9,1.2c0.4,0,0.5-0.6,0.1-0.7c-0.7-0.1-1.8-0.2-1.8,0.8
			c0,0.9,0.8,1.7,1.3,2.3c0.2-0.2,0.3-0.3,0.5-0.5c-1-1-2.2-1.3-3.4-0.4c0.1,0,0.3,0,0.4,0.1c-1.6-1.9-3.4-0.8-4.8,0.8
			c0.2,0.1,0.4,0.1,0.6,0.2c-0.8-2-4-4.6-6.2-3.6c-3.2,1.3,1.2,3.5,2.1,4.4c0.1-0.2,0.3-0.4,0.4-0.5c-2.2-1.4-4.8,0-6.4,1.8
			c0.2,0.1,0.4,0.2,0.6,0.3c0.3-2.1-1.4-3.2-3-1.6c0.2,0.1,0.4,0.3,0.5,0.4c0.5-1,0-2.9-1.2-1.6c0.2,0.1,0.4,0.3,0.5,0.4
			c0.4-0.8,0.4-1.9-0.4-2.4c-0.9-0.5-1.7,0.1-2,0.9c0.2,0.1,0.4,0.2,0.6,0.3c0.2-1.2-0.5-1.7-1.6-1.4c0.1,0.2,0.2,0.4,0.3,0.6
			c0.8-0.9,1.1-2,0.1-2.8c-0.1,0.2-0.1,0.4-0.2,0.6c1.3-0.4,2.6-0.7,3.9-1.2C58.2,128.7,58.1,128,57.6,128.2L57.6,128.2z"/>
	</g>
</g>
<g>
	<g>
		<path class="st16" d="M57.7,128.6c5.1-0.9,10.9-0.2,15.4,2.3c0.4,0.2,0.7-0.4,0.4-0.6c-4.7-2.6-10.7-3.2-16-2.3
			C57.1,128,57.3,128.7,57.7,128.6L57.7,128.6z"/>
	</g>
</g>
<g>
	<g>
		<path class="st16" d="M58.9,128.2c1.4-0.1,2.8-0.6,4.1-1.2c1.2-0.6,2.6-1.4,3.1-2.8c0.2-0.4-0.5-0.6-0.7-0.2
			c-0.5,1.2-1.8,1.9-2.9,2.4c-1.1,0.5-2.4,1-3.7,1C58.4,127.5,58.4,128.2,58.9,128.2L58.9,128.2z"/>
	</g>
</g>
<g>
	<g>
		<path class="st16" d="M57.8,128.6c-0.3,1.3,0.7,2.6,1.3,3.6c0.4,0.6,0.7,1.1,1,1.8c0.2,0.5,0.2,0.9-0.2,1.2
			c-0.3,0.3,0.2,0.8,0.5,0.5c1.1-0.9,0.2-2.4-0.4-3.4c-0.4-0.6-0.8-1.3-1.2-1.9c-0.3-0.5-0.6-1.1-0.4-1.7
			C58.6,128.4,58,128.2,57.8,128.6L57.8,128.6z"/>
	</g>
</g>
<g>
	<g>
		<path class="st16" d="M79.9,130.6c1.4,0.9,3.1,1.3,4.7,1.4c0.9,0.1,1.9,0,2.8-0.1c0.8-0.1,1.7-0.5,2.5-0.5c0.5,0,1.1,0.2,1.6,0.2
			c0.7,0,1.4-0.1,2-0.3c1.2-0.3,2.5-0.7,3.5-1.6c0.2-0.2,0.1-0.5-0.2-0.6c-1.3-0.4-1-1.5,0.1-2c0.2-0.1,0.2-0.3,0.1-0.5
			c-0.6-0.9,0.6-1.1,1-1.1c0.5,0,0.4-0.6,0-0.7c-1.1-0.1-0.5-1.9-0.4-2.6c0.1-0.6,0.2-1.3-0.2-1.9c-0.1-0.2-0.5-0.2-0.6,0
			c-0.4,0.6-2,2.9-2.8,1.9c-0.2-0.2-0.5-0.1-0.6,0.2c-0.1,0.2-0.2,0.5-0.3,0.7c-0.2,0.5-0.7,0.4-1.3-0.1c-0.3-0.5-0.1-1,0.2-1.3
			c0.3-0.5,0.8-0.9,1.2-1.3c0.2-0.3,0-0.7-0.3-0.6c-0.2,0.1-1,0.3-1-0.3c0.1-0.3-0.2-0.5-0.5-0.4c-0.7,0.3-1.9,0.3-1.4-0.9
			c0.1-0.3-0.2-0.6-0.5-0.5c-0.9,0.5-1.7-0.1-1.4-1.1c-0.2,0-0.5-0.1-0.7-0.1c-0.1,0.8-0.3,1.8-1.4,1.6c-0.3,0-0.6,0.2-0.4,0.5
			c0.5,0.7,0.2,2.6-0.8,1.7c-0.3-0.2-0.7,0-0.6,0.3c0.3,1.1,0.5,2.4,0.4,3.6c0,0.2,0,0.7-0.2,0.9c-0.4,0.3-0.8-0.2-1-0.4
			c-0.5-0.6-0.8-1.2-1.2-1.8c-0.2-0.2-0.6-0.2-0.6,0.1c-0.3,1.4-3.7,0.2-4.7,0.2c-0.2,0-0.5,0.3-0.3,0.5c0.6,0.9,3.1,2.6,1.5,3.6
			c-0.4,0.2,0,0.8,0.4,0.6c0.6-0.3,1.3-0.3,1.9-0.1c0.4,0.2,0.7,0.4,0.8,0.8c0.1,0.4,0,0.7-0.3,0.9c-0.1,0.1-0.2,0.1-0.3,0.1
			c-0.2-0.4-0.8-0.2-0.7,0.2c0.6,1.3,2.2-0.1,2-1.2c-0.3-1.6-2.5-1.9-3.7-1.2c0.1,0.2,0.2,0.4,0.4,0.6c2.3-1.4-0.3-3.2-1.3-4.5
			c-0.1,0.2-0.2,0.4-0.3,0.5c1.4-0.1,5,1.5,5.4-0.7c-0.2,0-0.4,0.1-0.6,0.1c0.5,0.8,2.1,3.8,3.4,2.3c1-1.2,0.3-3.8-0.1-5.1
			c-0.2,0.1-0.4,0.2-0.6,0.3c1.6,1.6,3-1.1,1.9-2.5c-0.1,0.2-0.3,0.3-0.4,0.5c1.6,0.3,2.1-0.9,2.3-2.3c0-0.4-0.6-0.5-0.7-0.1
			c-0.4,1.7,1,2.6,2.5,1.9c-0.2-0.2-0.3-0.3-0.5-0.5c-0.8,1.8,0.8,2.5,2.3,1.9c-0.2-0.1-0.3-0.3-0.5-0.4c-0.2,1.2,0.9,1.3,1.8,1.1
			c-0.1-0.2-0.2-0.4-0.3-0.6c-1,1.1-2.4,2.3-1.3,3.8c1,1.5,2.3,0.2,2.7-1c-0.2,0.1-0.4,0.1-0.6,0.2c1.2,1.6,3.3-1.1,3.9-2
			c-0.2,0-0.4,0-0.6,0c0.8,1.4-1.5,4.5,1.1,4.8c0-0.2,0-0.5,0-0.7c-1.2,0.1-2.4,0.9-1.6,2.1c0-0.2,0.1-0.3,0.1-0.5
			c-1.7,0.8-1.7,2.7,0.1,3.3c-0.1-0.2-0.1-0.4-0.2-0.6c-0.9,0.9-2.3,1.3-3.6,1.5c-0.6,0.1-1.3,0.2-1.9,0.2c-0.4,0-0.8-0.2-1.2-0.2
			c-0.6,0-1.5,0.4-2.1,0.5c-0.8,0.1-1.7,0.2-2.5,0.2c-1.8,0-3.5-0.4-5-1.3C79.9,129.8,79.5,130.4,79.9,130.6L79.9,130.6z"/>
	</g>
</g>
<g>
	<g>
		<path class="st16" d="M87.7,118.4c0.9,2.1,1.4,4.4,1.4,6.7c0,1.2-0.2,2.4-0.6,3.5c-0.2,0.5-0.4,1.1-0.6,1.6
			c-0.1,0.2-0.2,0.4-0.3,0.6c0,0.1-0.3,0.4-0.1,0.3c0.2,0,0.3,0.1,0.5,0.1c0,0.1,0.1,0.1,0.1-0.1c0.1-0.4-0.6-0.4-0.7,0
			c0,0.2,0,0.3,0,0.4c0.1,0.2,0.3,0.2,0.5,0.1c0.3-0.2,0.4-0.5,0.5-0.8c0.2-0.5,0.5-1,0.6-1.5c0.4-1.2,0.7-2.5,0.8-3.8
			c0.1-2.5-0.4-5.1-1.4-7.4C88.2,117.8,87.5,118,87.7,118.4L87.7,118.4z"/>
	</g>
</g>
<g>
	<g>
		<path class="st16" d="M96.9,121.7c-0.2,2.5-2.1,4.5-4,6c-0.8,0.6-1.6,1.3-2.5,1.9c-0.4,0.3-0.8,0.6-1.3,0.8
			c-0.3,0.1-0.7,0.4-1,0.3c-0.4-0.2-0.6,0.5-0.2,0.7c0.8,0.3,2-0.6,2.6-1c0.9-0.6,1.8-1.3,2.7-2c2.1-1.7,4-3.8,4.3-6.6
			C97.7,121.2,97,121.2,96.9,121.7L96.9,121.7z"/>
	</g>
</g>
<g>
	<g>
		<path class="st16" d="M77.7,124.9c1,0.7,2,1.1,3.1,1.7c1.1,0.6,1.9,1.4,2.8,2.3c0.8,0.8,1.6,1.5,2.5,2.2c0.8,0.6,1.7,0.8,2.6,0.3
			c0.4-0.2,0-0.8-0.4-0.6c-1.1,0.6-1.9-0.3-2.7-1c-0.8-0.7-1.5-1.4-2.3-2.1c-0.7-0.7-1.5-1.3-2.4-1.8c-1-0.5-1.9-1-2.8-1.6
			C77.7,124,77.4,124.6,77.7,124.9L77.7,124.9z"/>
	</g>
</g>
<g>
	<g>
		<path class="st16" d="M69.1,125.6c-0.2-1.5-0.6-2.9-0.6-4.4c-0.1-1.6,0.3-3,1.1-4.3c-0.2-0.1-0.4-0.1-0.7-0.2
			c0,1.6,0.2,3.2,0.5,4.8c0.3,1.5,0.8,3.1,1.7,4.4c0.3,0.4,0.9,0,0.6-0.4c-0.9-1.3-1.3-2.8-1.7-4.2c-0.3-1.5-0.5-3-0.5-4.6
			c0-0.4-0.5-0.5-0.7-0.2c-0.9,1.4-1.3,2.9-1.2,4.5c0,1.6,0.4,3.2,0.6,4.8C68.5,126.3,69.2,126.1,69.1,125.6L69.1,125.6z"/>
	</g>
</g>
<g>
	<g>
		<path class="st16" d="M72.6,128.5c0,0,0.1,0.1,0.1,0.1c0,0,0,0,0,0c0,0,0,0,0,0c0,0,0-0.1,0,0c0,0.1,0.1,0.1,0.1,0.2
			c0,0.1,0-0.1,0,0c0,0,0,0,0,0.1c0,0,0,0.1,0,0.1c0,0.1,0,0.1,0,0.2c0-0.1,0,0,0,0c0,0,0,0.1,0,0.1c0,0.1,0,0.1,0,0.2
			c0,0.1,0,0.1,0,0.2c0,0.2,0.2,0.4,0.3,0.3c0.2,0,0.3-0.2,0.3-0.3c0-0.1,0-0.2,0-0.2c0-0.2,0-0.3,0-0.5c-0.1-0.4-0.2-0.8-0.5-1
			c-0.1-0.1-0.1-0.1-0.2-0.1c-0.1,0-0.2,0-0.2,0.1C72.5,128.1,72.4,128.4,72.6,128.5L72.6,128.5z"/>
	</g>
</g>
<g>
	<g>
		<path class="st16" d="M73.5,128.5c0.3,0.9,0.9,1.8,2,1.5c0.9-0.2,1.6-1.2,2-2c-0.2-0.1-0.4-0.1-0.7-0.2c0,0.9-0.2,1.8-0.1,2.7
			c0,0.3,0.4,0.5,0.6,0.2c0.8-0.8,1.3-2,1.9-3c0.2-0.4-0.4-0.7-0.6-0.4c-0.6,0.9-1,2-1.8,2.8c0.2,0.1,0.4,0.2,0.6,0.2
			c-0.1-0.9,0.1-1.8,0.1-2.7c0-0.3-0.5-0.5-0.7-0.2c-0.3,0.6-0.7,1.4-1.4,1.7c-0.7,0.3-1.1-0.4-1.3-1
			C74.1,127.9,73.4,128,73.5,128.5L73.5,128.5z"/>
	</g>
</g>
<g>
	<g>
		<path class="st16" d="M84.9,111.7c-1.6,2.8-4.8,4.3-6.7,6.8c-1,1.3-1.9,3-2.2,4.6c-0.1,0.6-0.1,1.2-0.2,1.8c0,0.5,0,1.1-0.2,1.6
			c-0.2,0.4,0.5,0.6,0.7,0.2c0.1-0.4,0.1-0.8,0.2-1.2c0.1-0.6,0.1-1.3,0.2-1.9c0.2-1.7,1.3-3.6,2.4-5c2-2.4,5-3.9,6.5-6.6
			C85.7,111.7,85.1,111.3,84.9,111.7L84.9,111.7z"/>
	</g>
</g>
<g>
	<g>
		<path class="st16" d="M84.7,111.9c-0.8,4.6-6.9,6.5-6.5,11.5c0,0.4,0.7,0.4,0.7,0c-0.2-2.4,1.4-4.2,2.9-5.8
			c1.5-1.6,3.1-3.3,3.5-5.5C85.5,111.7,84.8,111.5,84.7,111.9L84.7,111.9z"/>
	</g>
</g>
<g>
	<g>
		<path class="st16" d="M80.3,123.6c0.2,0.1,0,0.3,0.1,0c0.1-0.1,0.1-0.3,0.2-0.4c0.2-0.3,0.4-0.7,0.6-1c0.4-0.7,0.9-1.3,1.5-1.8
			c1.7-1.7,3.8-3,5.4-4.7c-0.2-0.2-0.3-0.3-0.5-0.5c-2.3,2.6-3.7,5.7-5.2,8.8c-0.2,0.4,0.4,0.8,0.6,0.4c1.5-3.1,2.9-6.1,5.1-8.7
			c0.3-0.3-0.2-0.8-0.5-0.5c-1.9,2-4.2,3.4-6.1,5.4c-0.5,0.6-1,1.2-1.3,1.9c-0.2,0.3-0.9,1.3-0.4,1.6
			C80.2,124.4,80.7,123.9,80.3,123.6L80.3,123.6z"/>
	</g>
</g>
<g>
	<g>
		<path class="st16" d="M88.1,116.2c1.3-1.4,2.6-3.1,4.4-4c-0.2-0.2-0.3-0.3-0.5-0.5c-0.6,1-1.2,2-1.8,3c-0.6,0.9-1.3,1.9-2.1,2.7
			c-0.3,0.3,0.2,0.8,0.5,0.5c0.8-0.8,1.5-1.8,2.1-2.7c0.7-1,1.3-2,1.9-3.1c0.2-0.3-0.2-0.6-0.5-0.5c-1.9,0.9-3.2,2.6-4.6,4.1
			C87.3,116,87.8,116.5,88.1,116.2L88.1,116.2z"/>
	</g>
</g>
<g>
	<path class="st9" d="M79.5,117c0.6-0.1,0.2-4.2,0.6-5.2c0.7,1.2,1,2.4,1.3,3.8"/>
	<g>
		<path class="st16" d="M79.6,117.3c0.4-0.1,0.5-0.5,0.5-0.9c0.1-0.5,0.1-1,0.1-1.6c0-0.6,0-1.2,0-1.7c0-0.4,0-0.9,0.1-1.3
			c-0.2,0-0.4,0.1-0.6,0.1c0.7,1.1,1,2.4,1.2,3.7c0.1,0.4,0.7,0.3,0.7-0.2c-0.2-1.4-0.6-2.7-1.3-3.9c-0.2-0.3-0.5-0.2-0.6,0.1
			c-0.1,0.4-0.1,0.8-0.2,1.2c0,0.5,0,1.1,0,1.6c0,0.5,0,1-0.1,1.5c0,0.2,0,0.3-0.1,0.5c0,0,0,0.1,0,0.1c0,0.1,0-0.1,0,0
			c0,0.1,0,0,0,0c-0.1,0,0.1-0.1,0.1,0C79,116.7,79.2,117.4,79.6,117.3L79.6,117.3z"/>
	</g>
</g>
<g>
	<g>
		<path class="st16" d="M81.6,117.5c0.2,0.5,0.2,1.1,0.2,1.7c0,0.6-0.2,1.2-0.4,1.8c-0.1,0.2-0.1,0.4,0.1,0.5c0.1,0.1,0.4,0,0.5-0.1
			c0.3-0.7,0.4-1.4,0.5-2.1c0.1-0.7,0-1.4-0.3-2c-0.1-0.2-0.3-0.2-0.5-0.1C81.6,117.1,81.6,117.3,81.6,117.5L81.6,117.5z"/>
	</g>
</g>
<g>
	<path class="st9" d="M69.4,115.8c-0.3,0.2-4.6-3.2-6.2-3.7c2.2,1.8,3.8,4.2,5.3,6.6"/>
	<g>
		<path class="st16" d="M69.2,115.5C69.3,115.4,69.4,115.5,69.2,115.5C69.2,115.4,69.3,115.5,69.2,115.5c0-0.1,0-0.1-0.1-0.1
			c-0.2-0.1-0.4-0.2-0.6-0.4c-0.6-0.4-1.2-0.8-1.7-1.2c-0.6-0.4-1.3-0.9-1.9-1.2c-0.5-0.3-1-0.6-1.6-0.8c-0.3-0.1-0.6,0.4-0.3,0.6
			c2.2,1.8,3.8,4.1,5.3,6.5c0.2,0.4,0.8,0,0.6-0.4c-1.5-2.4-3.2-4.8-5.4-6.6c-0.1,0.2-0.2,0.4-0.3,0.6c1,0.3,1.9,1,2.7,1.6
			c0.9,0.6,1.8,1.3,2.8,1.9c0.3,0.2,0.6,0.4,1,0.2C69.9,115.9,69.6,115.3,69.2,115.5L69.2,115.5z"/>
	</g>
</g>
<g>
	<g>
		<path class="st16" d="M61.3,117.1c1.2,0.2,2.4,0.9,3.3,1.7c1,0.7,2,1.6,2.8,2.5c0.3,0.3,0.8-0.2,0.5-0.5c-0.9-1-1.9-1.8-3-2.6
			c-1-0.8-2.2-1.5-3.5-1.7C61.1,116.3,60.9,117,61.3,117.1L61.3,117.1z"/>
	</g>
</g>
<g>
	<g>
		<path class="st16" d="M61.3,117c1.5,1,2.8,2.3,3.9,3.8c1,1.4,2,3,2.3,4.8c0.1,0.4,0.8,0.3,0.7-0.2c-0.4-1.8-1.4-3.6-2.5-5
			c-1.1-1.5-2.5-2.9-4-3.9C61.3,116.2,61,116.8,61.3,117L61.3,117z"/>
	</g>
</g>
<g>
	<g>
		<path class="st16" d="M56.8,116.5c1.4,1.6,3.4,2.5,5.1,3.7c0.9,0.7,1.7,1.5,2.4,2.4c0.7,1,1.3,2,2.2,2.8c0.3,0.3,0.8-0.2,0.5-0.5
			c-0.9-0.8-1.5-1.9-2.2-2.9c-0.6-0.9-1.4-1.6-2.2-2.2c-1.7-1.3-3.8-2.1-5.2-3.8C57,115.7,56.5,116.2,56.8,116.5L56.8,116.5z"/>
	</g>
</g>
<g>
	<g>
		<path class="st16" d="M56.8,116.9c2.7,2.2,5.2,4.7,7,7.8c0.2,0.4,0.8,0,0.6-0.4c-1.8-3.1-4.4-5.7-7.1-7.9
			C56.9,116.1,56.4,116.6,56.8,116.9L56.8,116.9z"/>
	</g>
</g>
<g>
	<g>
		<path class="st16" d="M59.6,123.2c1.1,0.3,2,1.1,2.8,1.9c0.1,0.1,0.4,0.1,0.5,0c0.1-0.1,0.1-0.4,0-0.5c-0.9-0.8-1.9-1.7-3.2-2.1
			C59.3,122.4,59.2,123.1,59.6,123.2L59.6,123.2z"/>
	</g>
</g>
<g>
	<g>
		<path class="st16" d="M59.5,123c1.2,0.4,2.5,0.5,3.7,0.8c0.4,0.1,0.6-0.6,0.2-0.7c-1.2-0.3-2.5-0.4-3.7-0.8
			C59.2,122.1,59,122.8,59.5,123L59.5,123z"/>
	</g>
</g>
<g>
	<g>
		<path class="st16" d="M56.4,124.3c0.3,0.1,0.6,0.3,0.9,0.5c0.3,0.2,0.6,0.4,1,0.6c0.5,0.3,1,0.7,1.5,1c0.2,0.1,0.4-0.1,0.4-0.2
			c0.1-0.2-0.1-0.4-0.2-0.4c0.1,0,0,0-0.1,0c0,0-0.1-0.1-0.1-0.1c-0.1-0.1-0.2-0.1-0.3-0.2c-0.3-0.2-0.6-0.4-0.9-0.6
			c-0.6-0.4-1.2-0.9-1.9-1.1c-0.2-0.1-0.4,0.1-0.4,0.2C56.1,124.1,56.2,124.3,56.4,124.3L56.4,124.3z"/>
	</g>
</g>
<g>
	<g>
		<path class="st16" d="M56.7,124.5c1.8,0.4,3.5,0.8,5.2,1.5c0.4,0.2,0.6-0.5,0.2-0.7c-1.7-0.7-3.4-1.1-5.2-1.5
			C56.4,123.7,56.3,124.4,56.7,124.5L56.7,124.5z"/>
	</g>
</g>
<g>
	<g>
		<path class="st16" d="M70.5,115.6c0.8,1.6,1.4,3.2,1.9,4.9c0.4,1.6,0.9,3.5,0.2,5.1c-0.2,0.4,0.4,0.8,0.6,0.4
			c0.8-1.7,0.4-3.7,0-5.4c-0.5-1.9-1.2-3.7-2.1-5.4C70.9,114.9,70.3,115.2,70.5,115.6L70.5,115.6z"/>
	</g>
</g>
<g>
	<g>
		<path class="st16" d="M70.5,115.8c1.6,1.3,2.8,3.1,3.6,4.9c0.8,1.7,1.5,3.8,0.9,5.7c-0.1,0.4,0.5,0.6,0.7,0.2c0.6-2-0.1-4.2-0.9-6
			c-0.9-2-2.1-4-3.9-5.3C70.7,115,70.2,115.5,70.5,115.8L70.5,115.8z"/>
	</g>
</g>
</svg>
