<?xml version="1.0" encoding="utf-8"?>
<!-- Generator: Adobe Illustrator 24.0.1, SVG Export Plug-In . SVG Version: 6.00 Build 0)  -->
<svg version="1.1" id="Layer_1" xmlns="http://www.w3.org/2000/svg" xmlns:xlink="http://www.w3.org/1999/xlink" x="0px" y="0px"
	 viewBox="0 0 141.7 141.7" style="enable-background:new 0 0 141.7 141.7;" xml:space="preserve">
<style type="text/css">
	.st0{fill:#FEE342;}
	.st1{fill:#FFFFFF;stroke:#231F20;stroke-width:0.2632;stroke-miterlimit:10;}
	.st2{fill:#77764B;}
	.st3{fill:#47883F;}
	.st4{fill:#D6E374;}
	.st5{fill:#75CEEB;}
	.st6{fill:#5A200E;}
	.st7{fill:#FFFFFF;}
	.st8{fill:#C9B09D;}
	.st9{fill:#F89C48;}
	.st10{fill:#AC9231;}
	.st11{fill:#F15B48;}
	.st12{fill:#786A6A;}
	.st13{fill:#948748;}
	.st14{fill:#94652C;}
	.st15{fill:#070707;}
	.st16{fill:none;stroke:#070707;stroke-width:0.3948;stroke-miterlimit:10;}
	.st17{fill:#603D26;}
	.st18{fill:#4D3232;}
</style>
<path class="st0" d="M90.5,29c-4.1-1.8-3.5-3.4-3.5-3.4c-3.9,1.4-4.5,0-4.5,0c-0.1-3.7,4.6-5.3,4.6-5.3l3.3-1.4l-2.2-0.3l-1.6-1
	c-0.8-1.1,1.3-2,1.3-2c-1.6-1,0.4-3.2,0.4-3.2c-2.3,1.1-3.4-0.8-3.4-0.8c-1.6,2.4-5,0.6-5,0.6c0.3,4.1-4.5,3-4.5,3
	c-1.4,4.1-3,2.5-3,2.5c-0.5-1.2,1.2-3.3,1.2-3.3c-0.8,0.1-1-1.4-1-1.4s0-2.1,0-2.2c0-0.2-0.5-0.8-0.5-0.8c-2.4,1.9-3.6-2.3-3.6-2.3
	c-1,1.1-2.8-1.8-2.8-1.8c-1.3,3-3.7,3.4-3.7,3.4c2.3,5.7-2.1,4.5-2.1,4.5l0.6,0.8l0.7,2.9l0.7,3.4c-1.6,3-2-1.5-2.1-1.7s0-2.2,0-2.2
	l-0.4-0.7c-0.4,2.2-4.8-3.2-4.8-3.2c-1.5,2.5-4.1,0.3-4.1,0.3c-0.7,1.2-2.1,0.3-2.1,0.3c0.4,0.8-0.9,1.9-0.9,1.9
	c4.4,4.5,0.7,5.1,0.7,5.1l2.4,2.6c2.1,3.2-1.5,2.9-1.8,2.8c-0.4-0.1-3.1-0.8-3.1-0.8c0.9,1.3-3,2.4-3,2.4l1.8,1.2l1.4,1.5l2.1,1
	c4.4,2,1.5,2.6,1.5,2.6l2.7,0.6l1.8-0.2l1.8-1.2c3.5-1.6,1.7,3.7,1.4,4.4c0.1-0.1,0.1-0.1,0.2-0.2c4.6-3.7,6.8-1.5,6.8-1.5
	c0.6-2.3,2.6-2.4,2.6-2.4l0.6,0.1l1.9,1.5L70,35l0.6-0.1l1.5,0.4l0.8-0.1l1.1-0.1l1-0.1l1,0.4c-0.1-1.1,0.5-1.8,0.5-1.8h0.8l3.1,0.2
	l1.9,0.4l1.1,0.7c1.7-3.4,4.9-2.9,4.9-2.9l-0.5-0.3C86.6,31.3,90.5,29,90.5,29z"/>
<polygon class="st1" points="66.8,37.8 66.5,35.9 66.5,35 67.6,37 68,37.8 67.2,38.1 "/>
<path class="st2" d="M50.6,37.6c0,0-3.7,0.5-6-0.6l-2.4-1L40,34.3l-0.4-0.5c0,0,1.5-1.7,4-1.8l2.7-0.5l0.9-0.3l2.5,1.3l0.6,0.7
	l-0.2,0.6c0,0-1.3,0.5-1,0.4s3,0.4,3,0.4l2.1-0.4l1.9-1.2c0.1,0,1.4-0.9,1.8,1.4v0.5c0,0-4,0.9-4,1C53.9,36.2,50.6,37.6,50.6,37.6z"
	/>
<path class="st3" d="M40.9,17.3c0,0,1.1,6.1,4.5,8.5l0.4-0.2c0,0,4.2,1.6,5.1,0.4c1-1.3,0-0.1,0-0.1s1.3-1.1-2.8-4.9
	c0,0,1.6-0.5,1.4-1C49.6,19.9,49.2,15.8,40.9,17.3z"/>
<path class="st4" d="M54.4,13.2c0,0-1.3-3.6,0.6-6.6c0,0,4.3,0.7,7.4,4.1c0,0,1.3,3.7-2.5,3.1c0,0,0.7,1.1,0.7,1.2
	c0,0.1,1,3.3,1,3.3s0.8,3.4-0.3,3.5c0,0-1.7,0.9-1.6-4l-0.3-1.4c0,0-0.7,1.5-3.2-1.5L54.4,13.2z"/>
<path class="st4" d="M73.4,14.2c0,0-0.9-0.1-0.5-1.8c0,0-0.1-3.5,5.4-6c0,0,3.5,3.3,2.7,6.1l-0.8-0.3c0,0,1.1,3.2-4.5,3
	c0,0-1.1,3.2-2.8,2.6C72.8,17.8,71.5,17.3,73.4,14.2z"/>
<path class="st3" d="M93.7,21.6L93.7,21.6c-3.7-1.4-6.6-1.3-6.6-1.3c-4.8,2-4.6,4.8-4.6,4.8c-0.1,2.2,3.1,0.7,3.1,0.7l1.6-0.5
	c-0.5,1.3,0.7,1.9,0.7,1.9c4.1,0.2,5.8-5.4,5.8-5.4l0,0C93.7,21.7,93.7,21.6,93.7,21.6z"/>
<path class="st2" d="M88,32.1c0,0-1.8-1,2.3-2.5l5.8,0.4H97c0,0-0.8,4.4-5.9,6.3c0,0-1.7,1.5-5.9,0.2l-2.4-1.1c0,0-3.7-1.8-3.7-1.5
	c0,0.4,3,0.4,3,0.4l1.1,0.7C83.3,35,84.3,31.8,88,32.1z"/>
<path class="st5" d="M57.7,35.1c0,0-7.7,1.6-11.3,5.6c0,0-3.9-4.1-9.8,0c0,0-4.8,4.6-0.5,9.2c0,0,1.2,1.3,4,1.7s0.1,0,0.1,0
	s-3,5.6-1,16.3L43,78.2l3.3,6.9l0.4-0.8c0,0,1.8,0.3,1.8-1.4l2.3,0.8l1-0.1l2.2,2.1c0,0,1.8,0.7,0.4-1.5l-3-2.4c0,0,2.1-1.1-0.8-3.1
	c0,0,1-1.1,0.3-2.8c0,0,2.1,0.9,2.1,0c0,0,0-0.1,0-0.2c-0.2-1.1,1.4,2.8,2.3,0.3c0,0,1.8,2.7,2.3,2c0,0,1.4,5.5,1.2,0.2
	c0,0,2.3-1,1-3.3c0,0,1.8,0.3,1.9-1.2c0,0,1.4,0,1.9-0.5c0.1-0.1,0.1-0.1,0.1-0.2c0.2-0.7-0.4,1.7,0.9,1.7c0,0-1,2.4,2,1.4
	c0,0-2.7,4.5-0.9,5.5c0,0,0.7,1.1,2.2-1.3c0,0-0.1,1.4,2.9,1.3c0,0-1.2,2,0.1,2.2c0,0-1.6,0.9-1.3,3.2c0,0-0.8-0.7-2.2,0.3
	c-0.6-0.4-1.3-0.3-1.5-0.1c-0.3,0.3-0.2,1.3,0.6,1.9l-2.1,0.6l-1.1,1.1l-1.2-0.1l-0.9,0.4L61,91.8l0.3,1.1c0,0-0.9-1.4-2.6,2.6
	c0,0-0.6-3.4-2.1-2.4L56,94.7l-1.9,1L53.6,95l-3.5-0.4l0.6,5l0.2,5.9c0,0,0.5,5.7,3.2,8.4c0,0,2.6-1.2,3.5,0.6l1-0.7l0.3-0.7
	c0,0,4.2,2.2,2.7-1.1c0,0-1.2-1.8-1-1.8s1.7-0.9-0.1-3.2l0.6-1.2l1-0.3c0,0,1.3,1.4,2.2,0c0,0,1.7,3.1,2.4,2.3l0.1,1.8
	c0.3,1.4,0.5,2.1,0.6,2.1c0.1,0,0.2-0.4,0.2-1.1c-0.1-1.5-0.3-2.9-0.4-4.4c0,0,2,0.6,1.3-2.7c0,0,2.1-1.7,2.3-2.5c0,0,0.3,2,1.2,1.3
	c0,0,0.4,3.2,1.8,1.7c0,0,0.1,2.6,0.5,3c0,0,0,0,0.1,0c0,0,0,0,0.1,0c0.2,0.2-1.1,1.2-0.9,2.1c0,0.3,0.2,0.5,0.4,0.6
	c0.2-0.1,0.5-0.2,0.7-0.5c0.4-0.4,0.5-0.9,0.5-1.1c0.3,0,0.9,0,1.5-0.3c1.1-0.5,1.5-1.6,1.6-1.8c0,0,1.4,1,2.3-0.3
	c0,0,0.5,1.2,1.4,0.9c0,0-0.7,1.6,0,1.9c0,0-2,1.4,0.8,2.3c0,0-4.8,2-4.1,4c0,0,0.1,1,2.4,0.4c0,0.2-0.1,0.8,0.3,1.4
	c0.6,0.9,1.6,1,1.7,1c0,0-2.5,1-1.8,1.7c0,0-1.2-0.2-2.7,1.9c0,0-3.1-2.6-3.8-0.4l-1.4-0.1l-0.9-0.1l-0.9-0.2l-1.6-1l0.1,1.6
	c1.2,0.1,2.6,0.4,4.2,1c2.1,0.8,3.8,1.8,5,2.6c0.1,0.1,0.3,0.1,0.4,0.2c0,0,0.5-3.2,5.1-3.1l1.3-3.9l1.6-4l2.3-4.3l2-5.8l1.6-5.7
	l0.6-2.4l-1.5-0.6L91.7,95l-1.8,0.9c0,0-1.2-3.3-3.3-2l-0.9-0.3L84.3,93L83,92.5l-0.5-1.6h-1l-1.2,0.8l-0.4-0.9l-1.3-0.4l-1.7,0.1
	L78,89l0.1-1.1l-0.4-0.3l-1.4,0.3L74,86.7c0,0,1.5-0.2,0.3-2l-0.8-1.4l-0.4-2.1c0,0,1.9-0.1,2-0.8c0,0,1.8,2.5,2.4,1.6
	c0,0,1.2-0.5,0.3-3.7c0,0,1.8,1.4,1.6-3.3l0.7-0.7l1.8,0.8l1.1,0.6l0.6,2.5l0.6,0.7c0,0-0.5,1.6-0.6,1.7s-1.1,2.8,0.5,1.6l1.3-4.8
	c0,0,1.9,1.4,2.3-2c0,0,1.2-0.1,1.4-0.2c0.2-0.1,1.6-0.9,1.6-0.9v1.3l0.8,0.5c0,0-1.2,2.7,0.9,2.2l-0.5,1.5l-0.5,1l0.3,0.5l-1.2,0.9
	L90,83.3c0.3,0,1.4,0.5,2.3-1v-0.1c0.8-1.6,0,0,0,0s1,1,1.8,0.7c0,0,0.8-0.2,1.2-1.1v-0.1c0.3-1,0.8,1,0.9,1.1s1.1-8.5,1.1-8.5
	l0.4-9.3l-0.9-9.6L96,50.2c0,0,6.4-1.2,4.3-9c0,0-0.9-4.6-7.1-3.4L89,39l-2.5-1.7l-3.7-1.8l-4.2-1.3l-2.3-0.4c0,0-0.3,0.4-0.4,0.5
	c0,0.1-0.2,1.2-0.2,1.2l-1.1-0.3l-1.3,0.3l-1.8-0.1l-1-0.2l-1.1,0.2H69l-1.2-1L67,33.7h-0.9l-1,0.8l-0.6,0.8L63.9,36l-0.8-0.5
	l-1.3-0.1l-1.7,0.8c0,0-1.1,0-1.3,0.3c-0.2,0.3-1.4,1-1.4,1h-0.1L57.7,35.1z"/>
<polygon class="st6" points="66.5,34.5 66.5,37 67,38.1 68,38.1 "/>
<path class="st7" d="M47.6,47.1c0,0,0.7-8,9.5-8c0,0,8.5,0.1,8.4,9.9c0,0-0.6,7.1-8.4,8C57.1,57,47.6,57.5,47.6,47.1z"/>
<path class="st7" d="M70.2,46.8c0,0,0.6-9.8,11-8.4c0,0,10.3,3,5.7,13.1c0,0-2.4,5.2-9.4,4.4C77.5,55.9,70.7,55,70.2,46.8z"/>
<path class="st8" d="M64.7,56.2c0,0-7,3.1-2.7,5.8c0,0,2.2,1.1,5-0.3c0,0,1.9-0.8,4.5,0.3c0,0,4.8,1.2,4-2.7L74.7,58l-1.8-1.3
	L71.3,56c0,0-3,2.5-6.4,0.1"/>
<path class="st7" d="M68.1,66.4c0,0-0.7,3.2-3.4,0.7c0,0-1.2-1.7,0-4.7l2.6-0.7l1.7-0.2l2.7,0.6c0,0,0.5,1.4,0.5,1.6
	c0.1,0.2,0,2.3,0,2.3s-0.4,1.9-2,1.9C70.2,67.9,69.2,68.7,68.1,66.4z"/>
<path class="st9" d="M61.5,90.7c0.1,0.3,1.6,0.2,1.6,0.2l1-0.7l1.8-0.7l0.1-0.3l-0.1-0.8c0,0,1.1-2.2,3.3-1.5l0.1-1.5l0.6-1l0.7-0.6
	c0,0-1.3-0.3-0.1-1.9L70,81.5c0,0-2.1-0.2-2.4-1c0,0-1.7,2.6-2.3,0.7c0,0-1.2-1.3,1.4-5.1l-1.5,0.3c0,0-1.4-0.3-0.9-1.3l0.1-0.4
	c0,0-1.2-0.4-0.9-1.6V73c0.4-1.3-1.3,1.5-1.8,0.4c0,0-0.2,2.1-2.1,1.5c0,0,1.6,2.5-0.9,3.1c0,0,0.6,2.4-0.4,2.2c0,0-0.4,0.5-1.3-2.1
	c0,0-1.7-1.8-1.5-1.8c0.2,0.1-0.4-0.3-0.4-0.3s-0.1,1.9-2.3-0.1l-0.6,0.4L51,75.7v1.6l-0.6,1.4c0,0,3,2.1,0.6,3l2.9,2.3
	c0,0,1.9,1.8,0,2.1l-1.1-1.4l-1.1-1.3l-0.4,0.4l-3-0.9l-0.2,0.9l-1.4,0.5h-0.1L46,85v1l1.6,0.9l0.7,0.6l-0.1,1.4
	c0,0,3.7-0.9,4.8,0.4c0,0,1.6,1,0.9,2.6c0,0,0,0.1-0.1,0.1c-0.8,1.6-3.3,1.9-3.8,2s-0.8-0.1-0.5,0.1s0,0.6,0.4,0.6s2.5,0.3,2.5,0.3
	l1.1,0.1l0.5,0.7l1.6-0.7c0,0,0.9-3.5,2.3-1.6l0.9,1.6c0,0,0.8-3,2.2-2.4l0-1.7l0.3-0.2"/>
<path class="st8" d="M45.6,86.2c0,0-3.6,4,0.4,6.6c0,0,3,2.6,6.9,0.2c0,0,3.7-2.5-1.4-4.4c0,0-2-0.3-3,0.2l0.1-0.9l-1.2-1L45.6,86.2
	z"/>
<path class="st10" d="M73.1,81.1c0,0,2.2,0.1,2-0.7c0,0,1.8,2.5,2.4,1.6c0,0,1.2-0.4,0.4-3.2l-0.1-0.5c0.3,0,0.7,0,0.9-0.2
	c0.2-0.2,0.1-0.5,0-1.1c0-0.4-0.1-0.9,0-1.5c1.2-0.6,1.5-0.9,1.5-1c0,0,0,0,0,0c0,0,0.3,0.5,0.5,1.1c0.6,0.2,1.2,0.4,1.8,0.7
	c0.2-0.2,0.5-0.5,0.7-0.7l0.3,2.3l0.7,1l-0.3,0.9c0,0-1.5,3-0.3,2.6c0,0,0.7,1,1.9-4.9c0,0,1.6,1.5,2.2-2.1c0,0,1.8,0.3,2.7-1.1
	c0,0-0.1,2,0.9,2c0,0-1,2.8,1,2l-0.4,1.1l-0.6,1.3l0.2,0.4c0,0-3,2.5-0.6,2.2l1.2-1c0,0,1.8,1.7,3-0.2c0,0,0.2-0.6,0.3-0.4
	c0.1,0.3,0.8,1.3,0.8,1.3l1.5-0.3c0,0,0.1,1.5,1.2,1.6c0,0-1.6,0.3-1.1,1.6c0,0-2.7,0.6,0.2,2.7c0,0-6.3-0.6-5.7,2.2
	c0,0-2-0.3-2.4,1.7c0,0-0.5,0.8,2,2.6l-2.1,0.8h-0.4L89,94.9l-1.9-1.4l-0.5,0.2l-0.4,0.6l-0.9-0.6l-1-0.7l-0.6-0.6H83
	c0,0-0.2-1.8-0.4-1.7c-0.1,0.1-1.1,0.1-1.1,0.1l-1,0.7l-0.4-1l-3.2-0.2c0,0,2.5-1.7,0.9-2.9l-1.1,0.3c-0.5,0.1-0.9,0.2-1.4,0.3
	c-0.6-1-0.8-1.5-0.8-1.5c0,0,0,0,0,0c0,0,0,0,0,0c-0.2-0.2-0.4-0.4-0.5-0.4c0,0,0,0.2,0.5,1c0-0.8-0.1-1.6-0.1-2.4
	c-0.3-0.5-0.6-1-0.9-1.5L73.1,81.1z"/>
<path class="st5" d="M94.9,90.8l0.3-2.3c0,0-2.6,0-2.8,1.9C92.4,90.5,94.3,90.7,94.9,90.8z"/>
<path class="st8" d="M96.6,88.7c0.1,0.1,3.8,2.5,1.1,6.1c0,0-2.3,2.5-5.2,0.3c0,0-3.2-1.6-2.3-3.5c0,0,1-1.3,2.2-0.9h0.1
	c1.3,0.5,0,0,0,0s0.3-0.8,2.7,0.2l0.2-2.3L96.6,88.7z"/>
<path class="st8" d="M53.9,114.4c0,0-6.1,3.6-2.6,6.1c0,0,1.1,2.4,5.2-0.9c0.3-0.4,0.8-0.9,1.5-1.4c0.6-0.4,1.1-0.6,1.6-0.7
	c-0.3-0.3-0.7-0.5-1-0.8l-0.6-1l-0.8-1l-0.1-0.3C57.1,114.4,56.4,112.8,53.9,114.4z"/>
<path class="st11" d="M69.9,119.8l1.4,1l1.2,0.3h1.2l0.8,0.1c0,0-0.3-0.5,0.4-0.6c0.7-0.1,1.6,0,1.6,0s1-0.1,1,0.2
	c0,0.3,1,0.6,1,0.6l0.8-0.9l0.9-0.6h1l-0.2-0.5c0,0,0.3-0.5,0.5-0.5c0.1-0.1,0.8-0.4,0.8-0.4l0.7-0.3l-1-0.6l-0.6-0.6
	c0,0-0.3-0.3-0.3-0.6c-0.1-0.2,0-0.6,0-0.6v-0.4c0,0-1,0.5-1,0.4s-0.6,0-0.6,0l-0.6-0.2l-0.2-0.5l0.2-0.8l0.5-0.8l1.1-0.9l1.9-1
	l1-0.3l-1.6-0.5l-0.4-0.8l0.1-0.7L82,109c0-0.1-0.1-0.3-0.1-0.4c0,0-0.3-0.2-0.3-0.6c0-0.3,0.3-0.6,0.6-0.7l0.3-0.4h-0.8
	c0,0-0.4-0.1-0.6-0.2s-0.4-0.6-0.4-0.6l-0.8,0.6l-0.8,0.2l-0.6-0.4l-0.4-0.4l-0.1,0.8l-1,1.1l-0.5,0.3l-0.9-0.1h-0.5
	c0,0-0.1,0.4-0.2,0.6s-0.4,1-0.4,1s-0.3,0.1-0.6,0c-0.2-0.1-0.5-0.4-0.5-0.4l-0.3-0.6l0.5-0.5l0.5-0.6l0.2-0.4l-0.4-0.6l0.1-0.8
	c0,0-0.1-0.5-0.1-0.6c0-0.2,0-0.5,0-0.5l-0.2-0.2l-0.4,0.2c0,0-0.4,0-0.5-0.2s-0.4-0.5-0.4-0.5l-0.2-0.6v-0.6h-0.8l-0.3-0.5
	l-0.5-0.5c-0.2,0.3-0.5,0.5-0.7,0.8c-0.1,0.2-0.3,0.3-0.4,0.5c0,0-0.4,0.1-0.7,0.5c-0.3,0.3-0.1,1.3-0.1,1.3l-0.2,0.9l-0.7,0.8h-0.6
	c0.1,0.8,0.3,1.7,0.3,2.6c0,0.6,0.1,1.3,0.1,1.8c-0.1,0.2-0.1,0.3-0.2,0.5c-0.2,0-0.4,0-0.6-0.1l-0.2-1.2l0.2-0.9v-0.8v-0.5
	l-0.8,0.1l-0.6-0.9l-0.5-0.7l-0.4-0.6l-0.9,0.5l-0.9-0.1l-0.9-0.4l-0.5,0.2l-0.4,0.4l-0.4,0.8l0.6,1l0.2,1.3
	c-0.2,0.1-0.5,0.3-0.7,0.4c0,0.3,0.1,0.5,0.1,0.8l0.8,1.3c0.1,0.3,0.2,0.5,0.3,0.8c-0.1,0.2-0.1,0.5-0.2,0.7c-0.1,0-0.2,0.1-0.3,0.1
	c-0.2,0.1-0.5,0.2-0.7,0.3l-0.8-0.2l-0.7-0.2c-0.2,0-0.3,0-0.5,0c-0.4,0.4-0.7,0.8-1.1,1.2l0.8,1l1.1,1.4l1.3,1l0.2,1l-0.3,0.3
	L62,120h1.5l0.6-0.8h0.7l0.3,0.8v0.9l-0.6,1.1l1.4-0.5l0.7-0.3c0,0,1-0.2,1.2-0.1s0.5,0.4,0.5,0.4l1.2-1.2L69.9,119.8z"/>
<path class="st12" d="M51.2,116.1c0,0-18.9,4.9-10.4,12.3l6.3,2.8l13.3,2.9l9.4,0.4h6.3l12.1-1.4l5.7-1l7-2.4c0,0,5.6-3.1,3.9-6.7
	c0,0-1.5-3.5-9.5-5.9l-8.4-1.5l-2.5,6.2l-0.1,0.2c2.6,0.9,4.2,3,4.2,5.1c0,1-0.5,1.8-0.9,2.4c-0.5,0.2-0.9,0.4-1.4,0.5
	c-0.5-0.2-1-0.3-1.5-0.5c-0.2-0.1-0.4-0.1-0.6-0.2c-0.1-0.1-0.1-0.1-0.2-0.2c0.1-0.2,0.3-0.4,0.4-0.6l-0.6-0.2l-0.8-0.2h-0.5
	l-1.4-1.6l-1.6-1.5l-1.1-0.7l-2.1-1.1l-3.2-1.1l-3.2-0.8l-0.1-1.4l-1.5,1.4l-0.8-0.4h-1c0,0-1.3,0.4-1.4,0.6s-0.8,0.6-0.8,0.6l0.7-2
	l-0.3-1.2h-0.7l-0.7,0.6c0,0-0.9,0.1-1,0.2c0,0.1-0.7,0-0.7,0l-1.1-0.2l0.5-0.5l-0.4-0.8l-1-0.6c-0.4,0.1-0.9,0.3-1.5,0.6
	c-1.1,0.6-1.8,1.4-2.2,2c-0.6,0.4-1.3,0.7-1.9,1.1c0,0-3,0.3-3.5-1.5C50.4,119.8,49.2,119.1,51.2,116.1z"/>
<path class="st13" d="M87.2,119.8v-0.9l1.2,0.1l0.2-0.1l-0.3-0.3l0.4-0.4c0,0,2,0,2.1,0s0.5-0.3,0.5-0.3l0.7,0.5
	c0,0-1.2,0.6,0.3,0.8l1.1-0.2c0,0,0.7,0.6,2.4,0.5l0.5,0.2L96,120v0.5l-0.8-0.2l-0.6,0.3l-0.8-0.1c0,0-1-0.2-0.7,0
	c0.2,0.2,1,0.3,1,0.3h1.1l0.4,0.3l1.6,0.5l0.6,0.4c0,0-1,0-0.8,0.2s0.2,0.2,0.2,0.2h-0.9v0.2c0,0-1.3-0.7-1.3-0.6
	c0,0.2-0.7,0.1-0.7,0.1h-0.5l0.7,0.6l0.4,0.4l-0.2,0.6c-0.1,0.3-1-0.2-1-0.2h-1.2l-0.4,0.3l-1.3-1.1l-0.8-0.3l-0.3,0.4h-1.4
	l-0.8-0.3l-0.9-0.8l0.6-0.5l-0.4-0.4L87.2,119.8z"/>
<path class="st8" d="M79.4,125.2c0,0-0.1-2.5,4.9-3.3c0,0,4.7,1.8,3.9,6.8c-0.1,0.2-0.4,0.7-1,1c-0.8,0.4-1.5,0.2-1.7,0.2
	c-0.2-0.1-0.4-0.1-0.7-0.2c-0.4-0.1-0.7-0.3-1-0.4c0.1-0.3,0.3-0.5,0.4-0.8l-0.6-0.2l-1.2-0.3c-0.4-0.5-0.8-0.9-1-1.1
	c-0.5-0.7-0.7-1.1-1.2-1.4C79.9,125.3,79.6,125.2,79.4,125.2z"/>
<path class="st14" d="M69.7,129.1l-0.6-0.6c0,0-0.7-0.2-0.5-0.2s0.7-0.2,0.7-0.2l-0.9-1.3c0,0,2.4,0.9,2.9,0.4l-0.7-0.5v-0.3
	l0.6-0.7l0.7,0.3c0.7-0.2,1.4-0.4,2-0.6c0.6-0.1,1.2-0.1,1.8-0.2c0.1,0,0.1,0,0.2,0.1c0,0.1,0.1,0.4,0.4,0.6
	c0.2,0.1,0.4,0.2,0.5,0.2c-0.2,0.2-0.4,0.4-0.6,0.6c0,0-0.7,0.5,2,0.9l1.8-0.2l0.5,0.4l2,0.2h0.8l1,0.4l-0.4,0.6l-0.1,0.3l0.2,0.3
	l-1.6,0.2h-0.9l-0.1,0.4l-1.6-0.4c0,0-1.2-0.1-1.2-0.2c0-0.1-0.7,0-0.7,0c0,0.1,0.2,0.2,0.4,0.3c0.2,0.1,0.4,0,0.5,0
	c0.5,0.1,1.1,0.2,1.6,0.3c0.9,0.1,1.8,0.2,2.7,0.4c0,0-0.8,0.7,2.6,1.1l0.7,0.7c0.7,0.3,1.3,0.6,2,0.9c-0.2,0.1-0.6,0.2-1.1,0.2
	c-0.5,0-1-0.1-1.2-0.2c-0.2,0-0.5-0.1-0.7-0.1c-0.3,0.1-0.5,0.2-0.8,0.3c0,0.1-0.1,0.1-0.1,0.2c-0.9-0.1-1.8-0.2-2.7-0.3
	c-0.2,0-0.4-0.1-0.5-0.1c-0.2-0.2-0.9-0.6-1.7-0.5c-0.1,0-0.2,0.1-0.3,0.1l1.3,0.8c0,0-0.4,0.5,1.4,1.3c-0.2,0.1-0.3,0.2-0.3,0.4
	c0,0.2,0.2,0.4,0.5,0.4c-0.3-0.1-0.6,0-0.7,0.2c-0.2,0.2-0.1,0.5-0.1,0.5c0-0.1,0-0.1,0-0.1s0,0.1,0,0.1c-0.1-0.1-0.4-0.5-0.9-0.6
	c-0.5-0.1-1,0-1.1,0.1c-0.2-0.1-0.9-0.7-1.7-0.5c-0.2,0-0.3,0.1-0.5,0.2c-1.2-1.2-3.1-2.9-3.9-2.4c-0.2,0.1-0.4,0.5-0.4,1.2
	c0,0-2.1-0.4-2.4,0s0,0.1,0,0.1l-0.6-0.7l-0.6-0.3c-0.2-0.1-0.3-0.1-0.5-0.2c0-0.2-0.1-0.3-0.1-0.5c0,0-1.6-1-1.4-0.9
	s1.4-0.9,1.4-0.9c0-0.4,0-0.5-0.1-0.5c-0.1,0-0.2,0.1-0.3,0c-0.1,0-0.2-0.1-0.3-0.2c0.2-0.3,0.4-0.7,0.6-1
	C69,129.3,69.3,129.2,69.7,129.1z"/>
<g>
	<g>
		<path class="st15" d="M49.5,94.3c0.8,3.5,0.8,7.1,0.9,10.7c0.1,1.6,0.2,3,0.7,4.5s1.3,2.9,2.2,4.3c0.2,0.4,0.8,0,0.6-0.3
			c-0.9-1.5-1.8-3-2.3-4.6s-0.5-3.3-0.6-5c-0.1-3.3-0.1-6.6-0.9-9.8C50,93.7,49.4,93.9,49.5,94.3L49.5,94.3z"/>
	</g>
</g>
<g>
	<g>
		<path class="st15" d="M57.7,34.7c-3.6,0.7-7,2-9.8,4.3c-3,2.4-5.3,5.7-6.8,9.2c-3.4,7.7-3.5,16.3-0.8,24.3c1.6,4.7,3.9,9,5.9,13.5
			c0.2,0.4,0.7,0,0.6-0.3c-3.5-7.4-7.6-14.9-7.8-23.3c-0.2-7.7,2.2-16,7.8-21.5c3-3,6.9-4.7,11.1-5.5C58.3,35.3,58.1,34.6,57.7,34.7
			L57.7,34.7z"/>
	</g>
</g>
<g>
	<g>
		<path class="st15" d="M93.2,43.8c-3.3-6.2-10-9.4-16.7-10.3c-0.4-0.1-0.6,0.6-0.2,0.6c6.6,0.9,13,4,16.3,10
			C92.8,44.5,93.4,44.2,93.2,43.8L93.2,43.8z"/>
	</g>
</g>
<g>
	<g>
		<path class="st15" d="M40.2,51.2c-3.3-0.2-6.1-3-5.4-6.4c0.6-3,3.5-5.2,6.5-5.5c1.7-0.1,3.7-0.1,4.9,1.3c0.3,0.3,0.7-0.1,0.5-0.5
			c-1.1-1.4-3-1.6-4.6-1.6c-1.8,0-3.5,0.6-4.9,1.6c-2.8,2.1-4,6-1.8,9c1.2,1.6,3.1,2.5,5.1,2.6C40.6,51.9,40.6,51.3,40.2,51.2
			L40.2,51.2z"/>
	</g>
</g>
<g>
	<g>
		<path class="st15" d="M89.1,39.2c2.4-1.3,6.1-2.1,8.7-0.7c2.6,1.4,3.3,5.2,2.4,7.8c-0.6,1.8-2.3,3.2-4.2,3.5
			c-0.4,0.1-0.2,0.7,0.2,0.6c1.8-0.3,3.4-1.5,4.3-3.1c0.7-1.4,0.9-3.1,0.7-4.6c-0.2-1.6-1-3.2-2.2-4.2c-1.3-1.1-3-1.4-4.6-1.3
			c-1.9,0.1-3.8,0.6-5.5,1.4C88.4,38.9,88.8,39.4,89.1,39.2L89.1,39.2z"/>
	</g>
</g>
<g>
	<g>
		<path class="st15" d="M64.3,56.4c0.1,0,0.1,0,0.2,0c0-0.1,0-0.2,0-0.3c-0.2,0.1-0.6,0.1-0.8,0.2c-0.4,0.2-0.9,0.6-1.2,0.9
			c-0.8,0.6-1.5,1.3-1.9,2.3c-0.9,2.3,2.1,3.4,3.9,3.1c1.4-0.2,2.7-0.8,4.1-0.9c1.2-0.1,2.3,0.3,3.5,0.6c0.8,0.2,1.8,0.4,2.6-0.2
			c0.8-0.5,1.1-1.6,1-2.5c-0.4-2.2-3.1-3.3-4.9-4c-0.2-0.1-0.3,0.2-0.1,0.3c1.6,0.6,3.6,1.4,4.4,3c0.5,0.9,0.3,2.2-0.5,2.9
			c-0.8,0.6-1.9,0.3-2.8,0.1c-0.8-0.2-1.6-0.5-2.5-0.6c-1.1,0-2.2,0.3-3.3,0.6c-1.3,0.4-2.6,0.6-3.8,0.1c-0.9-0.4-1.7-1.2-1.4-2.3
			c0.3-1,1.3-1.8,2.1-2.5c0.3-0.2,0.6-0.5,1-0.6c0.3-0.1,0.6-0.1,0.8-0.2c0.1-0.1,0.1-0.3,0-0.3s-0.3,0-0.4,0
			C64,56.1,64,56.4,64.3,56.4L64.3,56.4z"/>
	</g>
</g>
<g>
	<g>
		<path class="st15" d="M71.5,62.2c0.3,0.8,0.5,1.7,0.5,2.5c0,0.8,0,1.8-0.6,2.4c-0.5,0.5-1.4,0.9-2.1,0.5c-0.6-0.3-0.7-1-1-1.5
			c-0.1-0.2-0.4,0-0.3,0.2c0.2,0.5,0.4,1,0.8,1.4s1.1,0.4,1.7,0.3c0.6-0.2,1.2-0.6,1.5-1.2s0.3-1.4,0.3-2.1c0-0.9-0.2-1.7-0.5-2.6
			C71.7,61.9,71.4,62,71.5,62.2L71.5,62.2z"/>
	</g>
</g>
<g>
	<g>
		<path class="st15" d="M59.1,117.6c-1,0.5-1.8,1.2-2.7,1.9c-0.9,0.7-1.9,1.4-3,1.6c-1.2,0.2-2.6-0.5-3-1.7c-0.4-1.1,0.5-2.2,1.2-3
			c1.1-1.1,2.4-1.9,3.7-2.6c0.2-0.1,0-0.4-0.2-0.3c-1.3,0.7-2.6,1.5-3.7,2.5c-0.8,0.8-1.7,1.9-1.5,3.1c0.1,1.2,1.3,2.2,2.5,2.3
			c1.2,0.2,2.4-0.4,3.3-1.1c1.2-0.8,2.2-1.8,3.4-2.5C59.4,117.8,59.2,117.5,59.1,117.6L59.1,117.6z"/>
	</g>
</g>
<g>
	<g>
		<path class="st15" d="M54.5,114.2c0.4-0.2,0.8-0.4,1.3-0.3c0.5,0,0.9,0.2,1.3,0.4c0.2,0.1,0.3-0.2,0.2-0.3
			c-0.4-0.3-0.9-0.5-1.4-0.5s-1,0.1-1.4,0.4C54.1,114,54.3,114.3,54.5,114.2L54.5,114.2z"/>
	</g>
</g>
<g>
	<g>
		<path class="st15" d="M51.5,120.5c-0.5-1.5,0.7-2.8,2-3.4c0.2-0.1,0-0.4-0.2-0.3c-1.4,0.7-2.7,2.2-2.1,3.8
			C51.2,120.8,51.5,120.7,51.5,120.5L51.5,120.5z"/>
	</g>
</g>
<g>
	<g>
		<path class="st15" d="M87,123.5c-0.6-0.7-1.5-1.4-2.4-1.6c-1-0.3-2-0.1-2.9,0.3c-0.4,0.2-0.8,0.5-1.2,0.8c-0.4,0.3-0.8,0.6-1,1
			c-0.2,0.3-0.3,0.7-0.2,1c0.1,0.3,0.4,0.5,0.6,0.6c0.5,0.3,0.8,0.7,1.2,1.1c0.2,0.2,0.3,0.4,0.5,0.6c0.1,0.1,0.2,0.2,0.3,0.3
			c0.1,0.1,0.3,0.4,0.4,0.4c0.2,0.1,0.3,0,0.5,0.1c0.3,0.1,0.5,0.3,0.7,0.5c0.1,0.2,0.1,0.4,0.2,0.6c0.1,0.2,0.3,0.2,0.5,0.3
			c1.4,0.7,3.4,0.8,4.2-0.8C89.1,127.1,88.1,124.9,87,123.5c-0.1-0.2-0.4,0.1-0.2,0.2c1,1.2,1.8,2.9,1.4,4.5
			c-0.4,1.8-2.4,1.9-3.8,1.2c-0.1-0.1-0.3-0.1-0.4-0.2c-0.1-0.1-0.1-0.3-0.1-0.4c-0.1-0.3-0.4-0.5-0.6-0.7c-0.3-0.2-0.7-0.1-0.9-0.3
			c-0.4-0.3-0.7-0.8-1-1.2c-0.3-0.3-0.6-0.6-0.9-0.9c-0.2-0.2-0.6-0.4-0.8-0.6c-0.5-0.7,1-1.7,1.4-2c0.9-0.6,1.9-1.1,3.1-0.9
			c1.1,0.2,1.9,0.8,2.6,1.6C86.9,123.9,87.1,123.7,87,123.5z"/>
	</g>
</g>
<g>
	<g>
		<path class="st15" d="M85,125.8c1,1,1.8,2.4,1.9,3.9c0,0.2,0.3,0.2,0.3,0c0-1.5-0.9-3-2-4.1C85.1,125.4,84.9,125.7,85,125.8
			L85,125.8z"/>
	</g>
</g>
<path class="st16" d="M88.1,47.1c0-5-4-9-9-9s-9,4-9,9s4,9,9,9S88.1,52,88.1,47.1z"/>
<path class="st16" d="M65.5,48c0-5-4-9-9-9s-9,4-9,9s4,9,9,9S65.5,53,65.5,48z"/>
<path class="st15" d="M96.4,43.5c0-1-0.9-1.9-1.9-1.9c-1.1,0-1.9,0.9-1.9,1.9c0,1.1,0.9,1.9,1.9,1.9S96.4,44.6,96.4,43.5z"/>
<path class="st15" d="M43,45.2c0-1.1-0.9-1.9-1.9-1.9c-1.1,0-1.9,0.9-1.9,1.9c0,1.1,0.9,1.9,1.9,1.9C42.1,47.1,43,46.3,43,45.2z"/>
<path class="st15" d="M71.9,55.4c0-1.2-1.8-2.2-4-2.2s-4,1-4,2.2s1.8,2.2,4,2.2C70.1,57.6,71.9,56.6,71.9,55.4z"/>
<path class="st15" d="M79.2,44.7c-1.6,0-2.9,1.3-2.9,2.9c0,1.6,1.3,2.9,2.9,2.9s2.9-1.3,2.9-2.9S80.8,44.7,79.2,44.7z M80.3,49.5
	c-0.5,0-0.8-0.4-0.8-0.8c0-0.5,0.4-0.8,0.8-0.8c0.5,0,0.8,0.4,0.8,0.8C81.2,49.1,80.8,49.5,80.3,49.5z"/>
<path class="st15" d="M56.5,45.4c-1.6,0-2.9,1.3-2.9,2.9c0,1.6,1.3,2.9,2.9,2.9c1.6,0,2.9-1.3,2.9-2.9S58.1,45.4,56.5,45.4z
	 M57.7,50.2c-0.5,0-0.8-0.4-0.8-0.8s0.4-0.8,0.8-0.8c0.5,0,0.8,0.4,0.8,0.8S58.2,50.2,57.7,50.2z"/>
<g>
	<g>
		<path class="st15" d="M68.1,61.6c0.1,0.6,0.1,1.1,0.1,1.7c0,0.6,0,1.2,0,1.9c-0.1,0.9-0.3,2.1-1.2,2.5c-0.8,0.4-1.7,0-2.1-0.7
			s-0.5-1.5-0.5-2.2c0-0.8,0.1-1.6,0.3-2.4c0.1-0.2-0.3-0.3-0.3-0.1c-0.2,0.8-0.3,1.6-0.4,2.4c0,0.8,0.1,1.8,0.6,2.5
			s1.3,1.1,2.2,0.9c1-0.2,1.4-1.2,1.6-2.1c0.2-0.8,0.1-1.6,0.1-2.5c0-0.7,0.1-1.4-0.1-2.1C68.4,61.3,68,61.4,68.1,61.6L68.1,61.6z"
			/>
	</g>
</g>
<g>
	<g>
		<path class="st15" d="M93.4,96.1c-1.1,4.7-2.3,9.4-4.4,13.9c-1.8,3.9-4,7.5-5,11.7c-0.1,0.4,0.5,0.6,0.6,0.2
			c1.1-4.4,3.5-8.2,5.3-12.3c1.9-4.2,3-8.7,4.1-13.2C94.1,95.9,93.5,95.7,93.4,96.1L93.4,96.1z"/>
	</g>
</g>
<g>
	<g>
		<path class="st15" d="M94.9,88.7c-0.1,0.6-0.2,1.1-0.3,1.7c0,0.2,0,0.4,0.2,0.4s0.4,0,0.4-0.2c0.1-0.6,0.2-1.1,0.3-1.7
			c0-0.2,0-0.4-0.2-0.4C95.2,88.4,95,88.5,94.9,88.7L94.9,88.7z"/>
	</g>
</g>
<g>
	<g>
		<path class="st15" d="M92.2,43.1c3.4,5.8,4.6,12.4,4.9,19.1c0.1,3.2,0,6.4-0.1,9.6c-0.1,3.7-0.3,7.3-1,10.9
			c-0.1,0.4,0.5,0.6,0.6,0.2c0.8-3.5,0.9-7,1-10.6c0.1-3.5,0.3-7,0.1-10.4c-0.3-6.6-1.7-13.2-5-19C92.5,42.4,91.9,42.8,92.2,43.1
			L92.2,43.1z"/>
	</g>
</g>
<g>
	<g>
		<g>
			<path class="st15" d="M59.7,14.1c0.8,0.8,0.7,1.8,1,2.8c0.3,1.2,1,2.4,0.9,3.7c0,0.2,0,0.6-0.1,0.8c-0.4,0.4-0.8,0-1-0.4
				c-0.4-0.6-0.4-1.4-0.4-2.1c0-0.9,0-1.8-0.4-2.6c-0.1-0.2-0.4-0.2-0.6,0c-0.6,1.1-2.1-0.9-2.5-1.4c-0.6-0.7-1.1-1.4-1.8-1.9
				c-0.2-0.1-0.4,0-0.5,0.1c-0.9,1.3-2.4,1.2-3.6,0.3c-0.1-0.1-0.3-0.1-0.5,0c-0.5,0.5-1.1,0.6-1.7,0.2c-0.2-0.1-0.5,0-0.5,0.3
				c0,0.7-0.2,1.2-0.9,1.5c-0.2,0.1-0.2,0.4-0.1,0.5c1.1,1.2,3.8,4.1,0.9,4.7c-0.2,0.1-0.3,0.4-0.1,0.5c1.1,0.9,2.4,2.2,2.8,3.6
				c0.8,2.6-4,0.7-5.1,0.6c-0.3,0-0.5,0.2-0.4,0.5c0.4,0.9-2.5,1.6-3.1,1.9c-0.3,0.1-0.2,0.6,0.1,0.6c1.5,0.3,1.9,1.6,3,2.5
				c0.4,0.4,1,0.5,1.5,0.8c0.7,0.3,1.5,0.7,2.2,1.1c0.2,0.2,0.8,0.4,0.9,0.7c0.2,0.5-0.4,0.6-0.9,0.7c-0.4,0.1-0.3,0.7,0.1,0.6
				c1.4-0.1,2.7,0.7,4.1,0.4c1.2-0.2,1.8-0.6,2.7-1.3c1.4-1.1,1.9,0.3,1.8,1.5c-0.1,0.8-0.4,1.6-0.7,2.4c-0.1,0.3,0.3,0.7,0.5,0.4
				c0.8-0.9,6-3.6,6.3-1.5c0,0.3,0.5,0.3,0.6,0.1c0.4-0.8,0.8-1.6,1.4-2.2c1.2-1.2,2.6,0.3,3.4,1.1c0.1,0.1,0.3,0.1,0.4,0.1
				c1.2-0.6,2.1,0.1,3.3,0.2c1.1,0,2-0.7,3,0.1c0.2,0.2,0.5-0.1,0.5-0.3c0-0.7-0.1-1.4,0.6-1.5c0.5-0.1,1.2,0.1,1.7,0.1
				c0.9,0,3.9-0.2,3.9,1.1c0,0.4,0.7,0.4,0.7,0c0-1.9-3.3-1.6-4.6-1.7c-0.7,0-1.8-0.4-2.4,0s-0.5,1.4-0.6,2c0.2-0.1,0.3-0.2,0.5-0.3
				c-1.4-1-2.4,0.1-3.9-0.3c-0.6-0.1-1.1-0.4-1.8-0.4c-0.8,0-0.8,0.4-1.4-0.2c-0.8-0.7-1.9-1.5-3-1.1c-1.1,0.5-1.7,1.9-2.2,2.9
				c0.2,0,0.4,0.1,0.6,0.1c-0.4-3-6.4,0-7.4,1.2c0.2,0.1,0.3,0.3,0.5,0.4c0.6-1.3,1.7-4.3,0-5.2c-1.1-0.6-1.7,0.2-2.5,0.8
				c-0.9,0.7-2.2,1-3.3,0.7C50.8,34.2,50,33.9,49,34c0,0.2,0.1,0.4,0.1,0.6c0.6-0.1,1.7-0.4,1.5-1.3c-0.2-0.8-1.4-1.4-2-1.7
				c-0.8-0.4-1.7-0.7-2.5-1.2c-1.4-0.8-1.7-2.5-3.5-2.9c0,0.2,0.1,0.4,0.1,0.6c1.1-0.5,4.1-1,3.3-2.8c-0.1,0.2-0.2,0.3-0.4,0.5
				c1.4,0.2,5.4,2.1,5.9-0.4c0.4-1.8-1.9-3.8-3.1-4.8c0,0.2-0.1,0.4-0.1,0.5c3.5-0.8,0.8-4.3-0.7-5.8c0,0.2,0,0.3-0.1,0.5
				c0.9-0.4,1.3-1.1,1.2-2.1c-0.2,0.1-0.3,0.2-0.5,0.3c0.9,0.5,1.7,0.4,2.5-0.3c-0.2,0-0.3,0-0.5,0c1.5,1.3,3.4,1.3,4.6-0.4
				c-0.2,0-0.3,0.1-0.5,0.1c1.1,0.7,3.8,5.5,5.2,3.1c-0.2,0-0.4,0-0.6,0c0.8,1.6-0.2,3.5,0.8,5c0.5,0.7,1.4,1.4,2,0.4
				c0.7-1.2,0.1-3-0.3-4.2c-0.5-1.4-0.4-3-1.5-4.1C59.9,13.3,59.4,13.8,59.7,14.1L59.7,14.1z"/>
		</g>
	</g>
	<g>
		<g>
			<path class="st15" d="M83.1,35.5c0.8-0.4,1-1.3,1.5-1.9c0.8-1,2.3-1.3,3.6-1.1c0.4,0,0.4-0.5,0.1-0.6c-1-0.4,0.6-1.3,1.1-1.5
				c0.6-0.3,1.1-0.6,1.7-0.8c0.3-0.1,0.3-0.6,0-0.6c-1.1-0.2-4.5-1.9-3.5-3.4c0.2-0.2-0.1-0.6-0.4-0.5c-1.1,0.3-2.3,1.1-3.4,1
				c-1.9-0.2-0.6-2.4,0.1-3.1c1.8-1.8,4.4-3,6.8-3.7c0.3-0.1,0.3-0.7-0.1-0.6c-1,0.1-2,0-2.9-0.5c-0.4-0.2-0.8-0.4-0.9-0.9
				c-0.2-0.7,0.8-1.1,1.3-1.4c0.2-0.1,0.2-0.4,0.1-0.5c-1-1-0.2-2.3,0.7-2.9c0.3-0.2,0-0.8-0.3-0.6c-1.1,0.6-2.8,1-3.4-0.5
				c-0.1-0.2-0.4-0.2-0.5-0.1c-1.4,1.4-2.5,1.8-4.1,0.5c-0.3-0.3-0.8,0.2-0.5,0.5c0.7,0.6,1.6,1.2,2.6,1.1c1-0.1,1.8-0.9,2.4-1.6
				c-0.2,0-0.3,0-0.5-0.1c0.7,1.8,2.9,1.5,4.3,0.7c-0.1-0.2-0.2-0.4-0.3-0.6c-1.3,0.9-2.2,2.6-0.9,4c0-0.2,0-0.3,0.1-0.5
				c-1,0.5-2.3,1.5-1.3,2.6c0.9,1.2,2.8,1.4,4.2,1.3c0-0.2-0.1-0.4-0.1-0.6c-1.6,0.5-3.2,1.2-4.7,2.1c-1.3,0.8-2.8,1.7-3.5,3.1
				c-0.4,0.9-0.3,2.3,0.7,2.7c1.3,0.5,3-0.5,4.2-0.9c-0.1-0.2-0.2-0.3-0.4-0.5c-1.3,2.1,2.4,4,3.9,4.3c0-0.2,0-0.4,0-0.6
				c-1,0.4-5.6,2.5-2.8,3.6c0-0.2,0.1-0.4,0.1-0.6c-1.1-0.1-2.3,0.1-3.3,0.6c-1,0.6-1.2,2-2.1,2.5C82.4,35.2,82.7,35.7,83.1,35.5
				L83.1,35.5z"/>
		</g>
	</g>
	<g>
		<g>
			<path class="st15" d="M79.6,12.2c0.5,0.9-0.4,1.8-1.1,2.2c-0.9,0.6-2.1,0.8-3,0.3c-0.2-0.1-0.5,0-0.5,0.3
				c-0.1,0.5-0.4,1.1-0.7,1.5c-0.3,0.4-0.8,1.2-1.4,1c-1.2-0.3,0.4-2.8,0.8-3.2c0.2-0.2,0-0.5-0.2-0.6c-1-0.1-0.7-1.4-0.6-2.1
				c0.1-0.8,0.1-1.7-0.7-2.3c-0.2-0.1-0.4,0-0.5,0.1c-1,1.4-3.1-0.7-2.8-2C69,7,68.4,6.8,68.3,7.2c-0.2,1,0.5,2.2,1.3,2.8
				c0.9,0.7,2,0.7,2.7-0.3c-0.2,0-0.3,0.1-0.5,0.1c0.7,0.5,0.3,2,0.2,2.8c0,1,0.4,1.6,1.4,1.7c-0.1-0.2-0.2-0.4-0.2-0.6
				c-0.8,0.7-2.4,3.7-0.6,4.3c1.5,0.5,2.8-2,3-3.2c-0.2,0.1-0.3,0.2-0.5,0.3c1.2,0.7,2.8,0.3,3.9-0.5c0.9-0.7,1.8-1.8,1.1-3
				C80,11.6,79.4,11.9,79.6,12.2L79.6,12.2z"/>
		</g>
	</g>
	<g>
		<g>
			<path class="st15" d="M68.2,7.5c0,0.2-0.8-0.2-0.9-0.2C67,7.2,66.8,7,66.6,6.7c-0.3-0.4-0.4-1-0.6-1.5c-0.1-0.3-0.5-0.3-0.6-0.1
				c-0.4,0.7-0.7,1.5-1.2,2.3c-0.6,0.9-1.4,1.4-2.4,1.6c-0.2,0-0.3,0.3-0.2,0.5c0.4,0.9,0.7,1.9,0.6,2.9c0,0.4-0.2,0.8-0.5,1
				c-0.5,0.3-1.3,0.2-1.8,0c-0.4-0.1-0.6,0.5-0.2,0.6c1.3,0.3,2.8,0.2,3.2-1.3c0.3-1.2-0.1-2.5-0.6-3.6c-0.1,0.2-0.1,0.3-0.2,0.5
				c1.1-0.2,2-0.7,2.7-1.6c0.6-0.8,0.9-1.7,1.4-2.5c-0.2,0-0.4-0.1-0.6-0.1c0.2,0.9,0.5,1.8,1.3,2.3c0.5,0.3,2,0.9,2.1-0.2
				C68.9,7,68.2,7,68.2,7.5L68.2,7.5z"/>
		</g>
	</g>
	<g>
		<g>
			<path class="st15" d="M65.4,6.3c0.5,5.4,0.5,10.8,0.6,16.1c0,1.9,0.1,3.6,0.4,5.5c0.3,1.8,0.8,4.2-0.2,5.9
				c-0.2,0.4,0.4,0.7,0.6,0.3c0.8-1.4,0.6-3.2,0.5-4.7c-0.2-2-0.6-3.9-0.6-5.9c-0.1-5.7-0.1-11.4-0.7-17.1
				C66.1,5.9,65.4,5.9,65.4,6.3L65.4,6.3z"/>
		</g>
	</g>
	<g>
		<g>
			<path class="st15" d="M66.4,33.6c-0.1,0.8-0.2,1.6-0.2,2.4c0,0.5,0,0.9,0.1,1.4c0.1,0.4,0.2,0.7,0.6,0.9c0.5,0.3,1,0,1.4-0.3
				c0.1-0.1,0.1-0.3,0.1-0.4c-0.7-1.2-1.3-2.5-1.3-3.9C67,33.3,66.4,33.3,66.4,33.6c0,0.8,0.1,1.6,0.4,2.3s0.6,1.4,1,2
				c0-0.1,0-0.3,0.1-0.4c-0.1,0-0.1,0.1-0.2,0.2c0,0-0.1,0-0.1,0.1c0.1,0,0,0-0.1,0s-0.1,0,0,0h-0.1c-0.1,0,0.1,0,0,0l0,0
				c0.1,0.1,0,0,0,0s-0.1-0.1,0,0c0,0,0,0-0.1-0.1l0,0c0,0,0-0.1-0.1-0.1c0,0,0-0.1,0,0v-0.1c0-0.1-0.1-0.2-0.1-0.3
				C67,36.9,67,36.5,67,36c0-0.4,0-0.9,0.1-1.3c0-0.1,0-0.2,0-0.3v-0.1c0,0,0,0,0-0.1s0,0,0,0c0-0.1,0-0.3,0.1-0.4
				C67.1,33.4,66.5,33.2,66.4,33.6L66.4,33.6z"/>
		</g>
	</g>
	<g>
		<g>
			<path class="st15" d="M48.5,14.3c3.7,2.9,6,7,9,10.4c1.4,1.6,3,2.9,4.8,4.1c1,0.6,1.9,1.3,2.6,2.2c0.6,0.9,0.8,2.1,1.5,2.9
				c0.3,0.3,0.7-0.1,0.5-0.5c-0.8-0.9-0.9-2.1-1.6-3c-0.6-0.7-1.3-1.3-2.1-1.8c-2-1.3-3.7-2.6-5.3-4.4c-3.1-3.5-5.3-7.6-9-10.4
				C48.6,13.6,48.1,14,48.5,14.3L48.5,14.3z"/>
		</g>
	</g>
	<g>
		<g>
			<path class="st15" d="M42.9,28.3c4.2,0.6,8.3,1.1,12.5,1.8c3.5,0.5,7.9,0.8,10.6,3.4c0.3,0.3,0.8-0.2,0.5-0.5
				c-2.6-2.5-6.6-2.8-10-3.4c-4.4-0.7-8.9-1.3-13.4-1.9C42.7,27.6,42.5,28.2,42.9,28.3L42.9,28.3z"/>
		</g>
	</g>
	<g>
		<g>
			<path class="st15" d="M88.1,12.3c-5.2,3.5-9.4,8.1-13.7,12.7c-1.6,1.7-3.4,3-5.1,4.4c-1.2,1-3,2.5-2.9,4.3c0,0.4,0.7,0.4,0.7,0
				c-0.1-1.9,2.2-3.5,3.5-4.5c1.7-1.4,3.3-2.7,4.7-4.3c4-4.4,8.1-8.7,13-12C88.8,12.6,88.4,12.1,88.1,12.3L88.1,12.3z"/>
		</g>
	</g>
	<g>
		<g>
			<path class="st15" d="M90.3,28.9c-2.5,0.8-5.2,0.8-7.8,0.8c-2.2,0-4.4,0.2-6.6,0.4c-1.9,0.2-3.8,0.4-5.6,0.9
				c-1.5,0.4-3.1,1-3.9,2.3c-0.2,0.4,0.3,0.7,0.6,0.3c1-1.5,3.1-1.9,4.7-2.3c1.8-0.4,3.6-0.5,5.5-0.7c4.4-0.5,9.1,0.3,13.4-1.1
				C90.8,29.4,90.7,28.7,90.3,28.9L90.3,28.9z"/>
		</g>
	</g>
</g>
<g>
	<g>
		<g>
			<path class="st15" d="M66.6,106.5c0.4,0.6,0.3,1.2,0.4,1.8c0.1,0.8,0.4,1.6,0.3,2.5c-0.1,0.7-0.3,0.2-0.4-0.2c-0.1-0.3,0-0.7,0-1
				c0.1-0.6,0.1-1.1-0.1-1.7c-0.1-0.3-0.5-0.3-0.6-0.1c-0.2,0.4-1-1-1.1-1.2c-0.2-0.4-0.5-0.8-0.8-1.2c-0.2-0.2-0.4-0.1-0.5,0.1
				c-0.6,0.9-1.2,0.5-1.7-0.1c-0.1-0.1-0.3-0.1-0.5,0c-0.2,0-0.5,0-0.7,0c-0.2-0.2-0.5,0.1-0.5,0.3c-0.2,0.3-0.3,0.6-0.5,0.8
				c-0.2,0.1-0.2,0.3-0.1,0.5c0.4,0.7,1.8,2.7,0.4,3c-0.2,0-0.3,0.3-0.2,0.5c0.5,0.7,1.1,1.4,1.3,2.2c0.5,1.8-1.8,0.4-2.5,0.2
				c-0.2-0.1-0.5,0.2-0.4,0.4c0.1,0.6-1.2,0.8-1.6,1c-0.3,0.1-0.3,0.5,0,0.6c0.9,0.3,1.2,1.7,2,2.2c0.4,0.3,0.8,0.6,1.2,0.9
				s0.8,0.7,0.1,0.8c-0.4,0.1-0.3,0.6,0.1,0.6c0.8,0,1.4,0.6,2.3,0.5c0.6-0.1,1-0.3,1.4-0.6c0.7-0.6,0.9,0.2,0.7,0.8
				c-0.1,0.5-0.3,1.1-0.5,1.6c-0.1,0.3,0.3,0.7,0.5,0.4c0.4-0.5,3.1-1.9,3.2-0.8c0,0.3,0.5,0.5,0.6,0.2c0.2-0.4,0.3-0.7,0.6-1
				c0.6-0.9,1.3,0,1.7,0.6c0.1,0.2,0.3,0.2,0.5,0.1c0.7-0.3,1,0.2,1.6,0.3c0.5,0.1,1-0.3,1.5,0.2c0.2,0.2,0.5,0,0.6-0.2
				c0-0.4,0-0.7,0.3-0.8c0.2,0,0.6,0.1,0.8,0.2c0.5,0.1,1.9,0.1,1.9,0.8c0,0.4,0.7,0.4,0.7,0c0-1.3-1.7-1.3-2.6-1.5
				c-0.4-0.1-1-0.3-1.4-0.1c-0.4,0.3-0.4,1-0.4,1.4c0.2-0.1,0.4-0.2,0.6-0.2c-0.6-0.6-1.1-0.3-1.9-0.4s-1.2-0.5-2-0.1
				c0.2,0,0.3,0.1,0.5,0.1c-0.4-0.6-1.1-1.6-2-1.4c-0.8,0.2-1.2,1.2-1.5,1.9c0.2,0.1,0.4,0.1,0.6,0.2c-0.2-2.1-3.5-0.6-4.3,0.3
				c0.2,0.1,0.3,0.3,0.5,0.4c0.4-0.9,1.2-2.7,0.2-3.5c-0.4-0.3-0.9-0.2-1.3,0.1c-0.5,0.5-0.9,0.8-1.7,0.6c-0.6-0.1-1.1-0.5-1.7-0.5
				c0,0.2,0.1,0.4,0.1,0.6c1.6-0.3,0.7-1.6-0.2-2.2c-0.5-0.4-1.1-0.7-1.5-1.1c-0.6-0.7-0.7-1.5-1.6-1.9c0,0.2,0,0.4,0,0.6
				c0.8-0.3,2.3-0.6,2.1-1.8c-0.1,0.1-0.3,0.3-0.4,0.4c0.9,0.3,2.8,1.6,3.3,0.1c0.4-1.1-0.8-2.7-1.4-3.5c-0.1,0.2-0.1,0.3-0.2,0.5
				c2.1-0.4,0.7-2.9,0-4c0,0.2-0.1,0.3-0.1,0.5c0.6-0.3,0.8-0.8,0.8-1.4c-0.2,0.1-0.3,0.2-0.5,0.3c0.5,0.4,1,0.3,1.5-0.1
				c-0.2,0-0.3,0-0.5,0c0.9,1,2,1,2.7-0.1c-0.2,0-0.3,0-0.5,0.1c0.5,0.5,1.9,4,2.9,2.3c-0.2,0-0.4-0.1-0.6-0.1
				c0.3,1.1-0.3,2.3,0.2,3.3c0.2,0.5,0.7,1,1.2,0.6c0.6-0.5,0.4-1.7,0.3-2.4c-0.1-0.7-0.3-1.4-0.3-2.1c0-0.5-0.1-0.9-0.4-1.3
				C67,105.9,66.4,106.2,66.6,106.5L66.6,106.5z"/>
		</g>
	</g>
	<g>
		<g>
			<path class="st15" d="M78.4,122c0.4-0.2,0.5-0.6,0.7-1c0.4-0.7,1.1-1,1.9-0.8c0.4,0.1,0.6-0.4,0.3-0.6c-0.5-0.3,1.3-1.1,1.6-1.2
				c0.3-0.1,0.3-0.5,0-0.6c-0.7-0.3-2.1-1.4-1.6-2.3c0.1-0.3-0.1-0.5-0.4-0.5c-0.5,0.1-1.2,0.5-1.7,0.4c-0.9-0.2-0.1-1.5,0.2-1.8
				c1-1,2.4-1.7,3.8-2.1c0.4-0.1,0.3-0.6-0.1-0.6c-1,0-2.7-1-1.1-1.7c0.2-0.1,0.2-0.3,0.1-0.5c-0.4-0.6-0.1-1.4,0.5-1.8
				c0.3-0.2,0-0.8-0.3-0.6c-0.6,0.4-1.3,0.4-1.5-0.4c-0.1-0.2-0.4-0.3-0.5-0.1c-0.3,0.3-0.6,0.6-0.9,0.7c-0.5,0.1-0.8-0.3-1.1-0.6
				c-0.3-0.3-0.7,0.1-0.5,0.5c1,1.2,1.9,1,2.9-0.1c-0.2,0-0.4-0.1-0.5-0.1c0.3,1.2,1.5,1.4,2.5,0.8c-0.1-0.2-0.2-0.4-0.3-0.6
				c-0.9,0.6-1.4,1.7-0.7,2.7c0-0.2,0.1-0.3,0.1-0.5c-0.7,0.4-1.4,1-0.8,1.8c0.5,0.8,1.5,1.1,2.3,1.1c0-0.2-0.1-0.4-0.1-0.6
				c-1.6,0.4-4,1.5-4.7,3.2c-0.3,0.6-0.2,1.6,0.5,1.9s1.6-0.2,2.3-0.4c-0.1-0.2-0.2-0.3-0.4-0.5c-0.8,1.3,0.9,2.8,2,3.2
				c0-0.2,0-0.4,0-0.6c-0.8,0.3-3.2,1.4-1.7,2.4c0.1-0.2,0.2-0.4,0.3-0.6c-0.7-0.1-1.4-0.1-2,0.3c-0.5,0.4-0.7,1.2-1.2,1.5
				C77.7,121.6,78,122.2,78.4,122L78.4,122z"/>
		</g>
	</g>
	<g>
		<g>
			<path class="st15" d="M77.3,106.4c0.4,1-1.2,2-2,1.4c-0.2-0.1-0.5-0.1-0.5,0.1c-0.1,0.3-0.2,0.7-0.4,0.9
				c-0.1,0.1-0.4,0.7-0.6,0.6s0-0.8,0.1-1c0.1-0.3,0.3-0.7,0.6-0.9c0.2-0.2,0.1-0.5-0.1-0.5c-0.5-0.1-0.2-0.9-0.2-1.3
				c0.1-0.6,0.2-1.2-0.3-1.7c-0.2-0.2-0.4-0.1-0.5,0.1c-0.5,0.8-1.2-0.9-1.1-1.4c0.1-0.4-0.5-0.6-0.6-0.2c-0.3,1.2,1.2,3.5,2.3,1.9
				c-0.2,0-0.3,0-0.5,0.1c0.2,0.2,0.1,0.5,0.1,0.8s-0.1,0.6-0.1,1c-0.1,0.6,0.1,1.2,0.7,1.3c0-0.2-0.1-0.4-0.1-0.5
				c-0.6,0.5-1.5,2.4-0.5,2.9s1.8-1.2,2-2c-0.2,0-0.4,0.1-0.5,0.1c0.7,0.5,1.6,0.5,2.3,0c0.6-0.4,1.2-1.2,0.8-2
				C77.8,105.8,77.2,106,77.3,106.4L77.3,106.4z"/>
		</g>
	</g>
	<g>
		<g>
			<path class="st15" d="M71.5,102.7C71.5,102.4,71.7,102.7,71.5,102.7c-0.1-0.2-0.2-0.2-0.2-0.3c-0.1-0.1-0.2-0.2-0.3-0.4
				c-0.1-0.3-0.2-0.7-0.2-1s-0.5-0.3-0.6-0.1c-0.3,0.5-0.5,1-0.7,1.4c-0.3,0.5-0.7,0.8-1.3,0.8c-0.2,0-0.3,0.2-0.2,0.4
				c0.2,0.6,0.3,1.3,0.2,1.9c0,0.2-0.1,0.5-0.3,0.6c-0.2,0.2-0.6,0-0.9-0.1c-0.2-0.1-0.4,0.1-0.4,0.2c-0.1,0.2,0.1,0.3,0.2,0.4
				c0.4,0.2,0.9,0.3,1.3,0.1c0.3-0.2,0.5-0.5,0.6-0.9c0.2-0.8,0.1-1.7-0.2-2.4c-0.1,0.1-0.2,0.3-0.2,0.4c0.7-0.1,1.2-0.4,1.6-1
				c0.3-0.5,0.5-1.1,0.8-1.6c-0.2,0-0.4-0.1-0.6-0.1c0.1,0.6,0.2,1.2,0.6,1.6c0.2,0.2,0.5,0.4,0.8,0.4s0.5-0.2,0.5-0.5
				C72.2,102.2,71.5,102.2,71.5,102.7L71.5,102.7z"/>
		</g>
	</g>
	<g>
		<g>
			<path class="st15" d="M70,101.7c0,3.6-0.2,7.2-0.4,10.8c-0.1,1.3-0.1,2.5,0,3.8c0,1.1,0.2,2.4-0.4,3.4c-0.2,0.4,0.4,0.7,0.6,0.3
				c0.5-0.9,0.5-2,0.5-3c0-1.3-0.1-2.5-0.1-3.8c0.2-3.8,0.5-7.7,0.4-11.5C70.7,101.3,70,101.3,70,101.7L70,101.7z"/>
		</g>
	</g>
	<g>
		<g>
			<path class="st15" d="M69.3,119.7c-0.1,0.5-0.2,1.1-0.2,1.6c0,0.3,0,0.6,0,0.9s0.1,0.6,0.4,0.7c0.3,0.2,0.7,0,0.9-0.2
				c0.1-0.1,0.1-0.2,0.1-0.3c-0.2-0.4-0.3-0.9-0.4-1.3s-0.1-0.9-0.1-1.4c0-0.2-0.2-0.3-0.3-0.3C69.5,119.5,69.3,119.6,69.3,119.7
				c-0.1,1.1,0.2,2,0.5,2.9c0-0.1,0.1-0.2,0.1-0.3l0,0c0,0,0,0-0.1,0c0,0-0.1,0,0,0s0,0,0,0c-0.1,0,0.1,0,0,0s0.1,0,0,0s0,0,0,0
				c-0.1,0,0,0,0,0c-0.1,0,0,0,0,0l0,0c0,0,0,0,0-0.1c0,0,0,0.1,0,0l0,0v-0.1V122c0,0.1,0,0,0,0c0-0.3,0-0.5,0-0.8
				c0-0.1,0-0.3,0-0.4s0-0.1,0-0.2c0,0.1,0,0,0,0v-0.1c0-0.2,0.1-0.4,0.1-0.6s-0.1-0.4-0.2-0.4C69.6,119.5,69.4,119.6,69.3,119.7
				L69.3,119.7z"/>
		</g>
	</g>
	<g>
		<g>
			<path class="st15" d="M60.7,106.2c1.9,2.2,2.9,4.9,4.3,7.3c0.7,1.1,1.5,2.1,2.4,3c0.5,0.5,1,1,1.3,1.6s0.3,1.3,0.7,2
				c0.2,0.4,0.8,0,0.6-0.3c-0.3-0.6-0.3-1.3-0.7-2c-0.3-0.6-0.7-1-1.1-1.4c-1-1-2-2-2.7-3.3c-1.4-2.4-2.4-5.1-4.3-7.3
				C60.8,105.4,60.4,105.8,60.7,106.2L60.7,106.2z"/>
		</g>
	</g>
	<g>
		<g>
			<path class="st15" d="M57.2,115.1c2.2,0.6,4.5,1.2,6.7,1.9c1.8,0.5,4.1,1,5.3,2.7c0.2,0.3,0.8,0,0.6-0.3c-1.2-1.6-3.2-2.2-5-2.8
				c-2.4-0.7-4.9-1.4-7.4-2.1C56.9,114.3,56.7,114.9,57.2,115.1L57.2,115.1z"/>
		</g>
	</g>
	<g>
		<g>
			<path class="st15" d="M81.9,106.8c-3,2.1-5.4,4.8-7.8,7.5c-0.9,1-1.9,1.8-2.9,2.7c-0.8,0.7-1.8,1.6-1.8,2.8c0,0.4,0.7,0.4,0.7,0
				c0-1.1,1.3-2.1,2.1-2.7c1-0.8,1.9-1.6,2.8-2.6c2.3-2.6,4.6-5.1,7.4-7.1C82.6,107.1,82.3,106.6,81.9,106.8L81.9,106.8z"/>
		</g>
	</g>
	<g>
		<g>
			<path class="st15" d="M82.4,117.8c-1.4,0.4-2.9,0.2-4.3,0.1c-1.2-0.1-2.3-0.1-3.5-0.1c-1.7,0-4.2,0-5.3,1.6
				c-0.2,0.4,0.3,0.7,0.6,0.3c0.5-0.8,1.6-1,2.4-1.2c1-0.1,1.9-0.1,2.9-0.2c2.4-0.1,5,0.7,7.3,0C83,118.3,82.8,117.7,82.4,117.8
				L82.4,117.8z"/>
		</g>
	</g>
</g>
<g>
	<g>
		<g>
			<path class="st15" d="M49.5,94.9c0.7,0.3,1.3,0.3,2,0.3c0.3,0,2.4,0.1,1.8,0.6c-0.3,0.2,0.1,0.7,0.4,0.5c1-0.7,2.3-0.6,2.6-2
				c0.1-0.3,0.2-1,0.6-1c0.3,0,0.6,0.5,0.7,0.7c0.3,0.5,0.4,1.1,0.5,1.7c0.1,0.3,0.6,0.3,0.6,0c0.1-0.5,1.4-3.5,2-2.6
				c0.2,0.3,0.7,0.1,0.6-0.3c-0.1-0.3-0.4-1-0.3-1.4c0.1-0.6,0.6-0.4,1-0.4c0.3,0,0.7,0.2,1,0c0.1-0.1,0.1-0.2,0.2-0.2
				c0.1-0.1,0.1-0.2,0.2-0.3c0.2-0.1,0.4-0.1,0.7-0.2c0.7-0.3,1.3-0.8,2.1-1.1c0.3-0.1,0.3-0.4,0.1-0.6c-0.2-0.2-0.3-0.2-0.6-0.2
				c-0.3,0-0.4,0.5-0.2,0.6c0.2,0.1,0.3,0.1,0.5,0.2c0.3,0.1,0.5-0.2,0.4-0.5c-0.2-0.2-0.3-0.4-0.2-0.6c-0.1-0.4,0-0.5,0.4-0.5
				c0.2-0.1,0.4-0.1,0.6-0.2c0.4-0.2,1.3-0.9,1.7-0.4c0.2,0.3,0.8,0,0.6-0.3c-0.7-1-1.7-0.3-2.5,0.1c-0.5,0.2-1.2,0.3-1.5,0.8
				s0,1,0.3,1.5c0.1-0.2,0.2-0.3,0.4-0.5c-0.1,0-0.2-0.1-0.3-0.1c-0.1,0.2-0.1,0.4-0.2,0.6c0.1,0,0.2,0.1,0.2,0.1
				c0-0.2,0.1-0.4,0.1-0.6c-0.5,0.1-0.9,0.4-1.3,0.6c-0.5,0.3-0.9,0.3-1.4,0.5c-0.2,0.1-0.3,0.3-0.5,0.5c-0.3,0.2-0.5,0.1-0.9,0
				c-0.5-0.1-1-0.1-1.4,0.3c-0.5,0.6,0,1.6,0.1,2.2c0.2-0.1,0.4-0.2,0.6-0.3c-1.3-1.8-3,1.7-3.2,2.8c0.2,0,0.4,0,0.6,0
				c-0.2-1-0.6-3.1-2-2.9c-0.7,0.1-0.9,0.7-1,1.3c-0.3,1.3-1.5,1.1-2.4,1.8c0.1,0.2,0.3,0.3,0.4,0.5c0.6-0.5,0.5-1.1-0.3-1.5
				c-1.2-0.5-2.6-0.1-3.8-0.6C49.3,94.1,49.1,94.7,49.5,94.9L49.5,94.9z"/>
		</g>
	</g>
	<g>
		<g>
			<path class="st15" d="M50.8,82c0.7,0.6,1.5,1.1,2.2,1.7c0.4,0.3,0.7,0.6,1,1c0.2,0.3,0.6,0.8,0.4,1.1c0.1,0,0.2-0.1,0.2-0.1
				c-0.7,0-1.1-0.7-1.4-1.2c-0.4-0.5-0.7-1.1-1.3-1.4c-0.2-0.2-0.5,0.1-0.5,0.4c0,0.1,0,0.1,0,0.1c0,0.1-0.2,0-0.3,0
				c-0.3,0-0.7-0.2-1-0.3c-0.5-0.2-1.1-0.5-1.6-0.6c-0.2,0-0.4,0.1-0.4,0.3c0.1,0.8-0.6,1.2-1.3,1c-0.2-0.1-0.4,0.1-0.4,0.3
				c0,0.3-0.2,0.4-0.5,0.4c-0.2,0-0.4,0.3-0.3,0.5c0.2,0.3,0.4,0.6,0.2,0.9c-0.1,0.2,0,0.4,0.2,0.5c0.7,0.2,3.1,1.1,2.2,2.1
				c-0.2,0.2-0.1,0.5,0.1,0.5c0.1,0,0.2,0.1,0.4,0.1c0.4,0.1,0.6-0.5,0.2-0.6c-0.1,0-0.2-0.1-0.4-0.1c0,0.2,0.1,0.4,0.1,0.5
				c1.6-1.6-1.3-2.8-2.4-3.2c0.1,0.2,0.1,0.3,0.2,0.5c0.3-0.5,0.2-1.1-0.2-1.6c-0.1,0.2-0.2,0.3-0.3,0.5c0.7,0,1.1-0.4,1.2-1.1
				c-0.1,0.1-0.3,0.2-0.4,0.3c1.2,0.3,2.3-0.4,2.2-1.7c-0.1,0.1-0.3,0.2-0.4,0.3c0.6,0.1,4.2,1.9,3.8,0c-0.2,0.1-0.3,0.2-0.5,0.4
				c0.7,0.5,1,1.4,1.6,2c0.4,0.5,1.4,1.2,1.8,0.4c0.3-0.5,0-0.9-0.3-1.3s-0.6-0.8-1-1.2c-0.8-0.7-1.7-1.3-2.5-2
				C51,81.2,50.5,81.7,50.8,82L50.8,82z"/>
		</g>
	</g>
	<g>
		<g>
			<path class="st15" d="M69.7,87.1c0.2-0.4,0.1-0.8,0-1.3c-0.1-0.8,0.4-1.5,1.1-1.8c0.3-0.1,0.2-0.6-0.2-0.6c-0.5,0-0.2-0.7,0-1
				c0.1-0.3,0.3-0.7,0.5-1c0.1-0.2-0.1-0.6-0.4-0.5c-0.6,0.2-2.6,0.2-2.7-0.7c0-0.2-0.4-0.5-0.6-0.2c-0.3,0.4-0.7,1.2-1.2,1.5
				c-0.9,0.4-1-1.2-0.9-1.7c0.2-1.3,0.9-2.7,1.7-3.8c0.3-0.3-0.1-0.7-0.5-0.5c-0.8,0.6-2.7,0.8-1.9-0.7c0.1-0.2,0-0.4-0.2-0.5
				c-0.7-0.2-0.9-1.1-0.7-1.7c0.1-0.4-0.5-0.6-0.6-0.2c-0.3,0.7-0.8,1-1.5,0.6c-0.2-0.2-0.5,0.1-0.5,0.3c0,0.3-0.1,0.9-0.3,1.1
				c-0.3,0.3-0.8,0.2-1.2,0.1S59,75,59.4,75.1c0.6,0.1,1.2,0.2,1.7-0.2c0.5-0.4,0.5-1.1,0.6-1.7c-0.2,0.1-0.3,0.2-0.5,0.3
				c1,0.8,2,0.1,2.4-1c-0.2-0.1-0.4-0.1-0.6-0.2c-0.3,1,0,2.2,1.1,2.5c-0.1-0.2-0.1-0.3-0.2-0.5c-0.4,0.7-0.5,1.7,0.4,2
				c0.8,0.3,1.9,0,2.5-0.6c-0.2-0.2-0.3-0.3-0.5-0.5c-1,1.3-2.2,3.4-1.9,5.2c0.1,0.7,0.6,1.5,1.4,1.5c0.9-0.1,1.3-1.1,1.8-1.7
				C67.4,80.1,67.2,80,67,80c0.2,1.5,2.4,1.7,3.5,1.4c-0.1-0.2-0.2-0.3-0.4-0.5c-0.4,0.7-1.6,3.1,0.1,2.9c-0.1-0.2-0.1-0.4-0.2-0.6
				c-0.6,0.3-1.1,0.8-1.4,1.4c0.4,0.6,0.4,0.9,0.4,1.1c0,0.3,0.2,0.8,0.1,1.1C68.9,87.2,69.5,87.5,69.7,87.1L69.7,87.1z"/>
		</g>
	</g>
	<g>
		<g>
			<path class="st15" d="M59.4,75.4c0.9,0.5,0.2,2.3-0.8,2.3c-0.3,0-0.4,0.3-0.3,0.5c0.2,0.3,0.2,0.6,0.2,1c0,0.2,0.1,0.7-0.1,0.8
				c-0.2,0.1-0.5-0.6-0.5-0.7c-0.1-0.3-0.2-0.8-0.1-1.1c0.1-0.3-0.2-0.5-0.5-0.4c-0.4,0.2-0.7-0.6-0.9-0.9c-0.3-0.5-0.6-1.1-1.2-1.2
				c-0.2,0-0.4,0.1-0.4,0.3c0,0.1,0,0.3-0.1,0.4c-0.2,0.1-0.4,0-0.6,0c-0.4-0.1-0.9-0.4-1-0.7c-0.2-0.4-0.8-0.2-0.6,0.2
				c0.3,0.6,1,1.1,1.7,1.2c0.8,0.2,1.4-0.2,1.3-1.1c-0.1,0.1-0.3,0.2-0.4,0.3c0.6,0.1,0.8,0.9,1.1,1.4s0.8,0.9,1.5,0.6
				c-0.2-0.1-0.3-0.2-0.5-0.4c-0.1,0.5,0,1.2,0.2,1.7s0.6,1.1,1.2,1c1.1-0.2,0.7-2.1,0.3-2.8c-0.1,0.2-0.2,0.3-0.3,0.5
				c1.6,0.1,2.6-2.6,1.2-3.5C59.3,74.6,59,75.2,59.4,75.4L59.4,75.4z"/>
		</g>
	</g>
	<g>
		<g>
			<path class="st15" d="M52.4,76C52.4,75.9,52.4,75.8,52.4,76c-0.1-0.1-0.1-0.1-0.2-0.1c-0.1,0-0.1,0-0.2,0c-0.2,0-0.3-0.1-0.5-0.1
				c-0.3-0.2-0.5-0.4-0.7-0.6s-0.6-0.1-0.6,0.2c0.1,1,0.6,2.2-0.2,3c-0.2,0.2-0.1,0.4,0.1,0.5c0.5,0.4,1,0.8,1.3,1.4
				c0.1,0.2,0.2,0.4,0.2,0.6c-0.1,0.3-0.5,0.4-0.7,0.5c-0.4,0.1-0.2,0.7,0.2,0.6s0.9-0.3,1.1-0.7c0.2-0.3,0.1-0.7,0-1.1
				c-0.3-0.8-1-1.4-1.6-1.9c0,0.2,0,0.3,0.1,0.5c0.4-0.5,0.7-1,0.7-1.7c0-0.6-0.2-1.2-0.3-1.8c-0.2,0.1-0.4,0.2-0.6,0.2
				c0.5,0.4,0.9,0.9,1.6,0.9c0.5,0,1.4-0.2,1-0.9C52.7,75.3,52.2,75.6,52.4,76L52.4,76z"/>
		</g>
	</g>
	<g>
		<g>
			<path class="st15" d="M50.7,76.2c2.2,2.8,4.2,5.7,6.2,8.7c0.7,1,1.5,2,2.3,3c0.7,0.9,1.8,1.9,1.9,3.1c0.1,0.4,0.7,0.2,0.6-0.2
				c-0.2-1.1-1-2.1-1.7-2.9c-0.9-1.1-1.8-2.2-2.6-3.3c-2-3-4-6-6.3-8.8C50.9,75.4,50.5,75.9,50.7,76.2L50.7,76.2z"/>
		</g>
	</g>
	<g>
		<g>
			<path class="st15" d="M61.1,90.9c0.2,0.5,0.5,0.9,0.8,1.3c0.2,0.3,0.4,0.5,0.6,0.7c0.2,0.2,0.4,0.4,0.7,0.4
				c0.4,0,0.6-0.3,0.6-0.7c0-0.1,0-0.3-0.2-0.4S63.2,92,63,91.8c-0.1-0.1-0.2-0.1-0.3-0.2c0,0,0,0-0.1,0l0,0l-0.1-0.1
				c-0.2-0.1-0.3-0.3-0.5-0.4c0-0.1,0-0.2-0.1-0.3c0,0-0.1-0.1,0,0c0,0,0,0,0-0.1s-0.1-0.1-0.1-0.2c-0.1-0.1-0.3-0.2-0.5-0.1
				C61.1,90.5,61,90.7,61.1,90.9c0.3,0.4,0.6,0.8,1,1.1c0.4,0.3,0.8,0.6,1.2,0.9c-0.1-0.1-0.1-0.2-0.2-0.4v0.1v0.1c0,0,0-0.1,0,0
				l0,0l0,0c0,0.1,0,0,0,0l0,0c0-0.1,0.1,0,0,0c0,0,0.1,0,0,0s0.1,0,0,0s0.1,0,0,0c0,0,0,0-0.1,0c0,0,0.1,0,0,0c0,0,0,0-0.1,0
				c0,0-0.1-0.1,0,0c0,0,0,0-0.1,0l-0.1-0.1l-0.1-0.1c0,0,0,0-0.1-0.1l0,0c0-0.1,0,0.1,0,0c-0.1-0.1-0.2-0.2-0.3-0.4
				c-0.2-0.2-0.3-0.5-0.4-0.7c-0.1-0.2-0.2-0.4-0.3-0.6s-0.3-0.2-0.5-0.1C61.1,90.5,61,90.7,61.1,90.9L61.1,90.9z"/>
		</g>
	</g>
	<g>
		<g>
			<path class="st15" d="M45.9,85.3c2.8,0.6,5.3,2.1,8,3.2c1.3,0.5,2.5,0.7,3.9,0.9c0.7,0.1,1.5,0.2,2.1,0.6c0.5,0.3,0.9,0.8,1.4,1
				c0.4,0.2,0.6-0.5,0.2-0.6c-0.6-0.2-1-0.8-1.5-1.1c-0.5-0.3-1.1-0.4-1.6-0.5c-1.5-0.2-2.8-0.4-4.3-0.9c-2.7-1-5.1-2.6-8-3.2
				C45.7,84.6,45.5,85.3,45.9,85.3L45.9,85.3z"/>
		</g>
	</g>
	<g>
		<g>
			<path class="st15" d="M54.5,92.1c2-0.9,4.2-2,6.4-1.3c0.4,0.1,0.6-0.5,0.2-0.6c-2.4-0.7-4.8,0.4-7,1.4
				C53.8,91.7,54.1,92.3,54.5,92.1L54.5,92.1z"/>
		</g>
	</g>
	<g>
		<g>
			<path class="st15" d="M63.2,73c-1.1,3.5-1.4,7.2-1.6,10.9c-0.1,1.3-0.5,2.6-0.7,3.9c-0.2,1-0.3,2.2,0.3,3.1
				c0.2,0.3,0.8,0,0.6-0.3c-0.7-0.9-0.3-2.4,0-3.5c0.3-1.2,0.5-2.3,0.6-3.5c0.2-3.5,0.5-7,1.6-10.4C64,72.7,63.4,72.5,63.2,73
				L63.2,73z"/>
		</g>
	</g>
	<g>
		<g>
			<path class="st15" d="M70.3,81.4c-0.7,1-1.8,1.7-2.9,2.4c-1,0.6-1.9,1.3-2.8,2c-0.8,0.7-1.7,1.3-2.4,2.2
				c-0.6,0.7-1.3,1.6-1.2,2.7c0,0.4,0.7,0.4,0.7,0c-0.1-1,0.7-2,1.4-2.6c0.7-0.7,1.5-1.3,2.3-1.9c1.8-1.5,4.2-2.3,5.5-4.3
				C71.1,81.4,70.5,81,70.3,81.4L70.3,81.4z"/>
		</g>
	</g>
</g>
<g>
	<g>
		<g>
			<path class="st15" d="M85,77.4c0.1,0.8-0.3,1.4-0.5,2.2c-0.2,0.7-0.2,1.6-0.7,2.1c-0.1,0.1-0.2,0.2-0.2,0.4
				c-0.2-0.2-0.2-0.5-0.1-0.8c0.1-0.4,0.3-0.7,0.5-1c0.3-0.5,0.5-1,0.6-1.6c0-0.2-0.3-0.4-0.5-0.3c-0.4,0.3-0.5-1.2-0.5-1.5
				c-0.1-0.5-0.1-1-0.2-1.5c-0.1-0.2-0.3-0.3-0.5-0.2c-0.7,0.4-1.3,0-1.5-0.7c-0.1-0.2-0.2-0.3-0.4-0.2c-0.2-0.1-0.4-0.2-0.7-0.2
				c-0.1-0.2-0.4-0.2-0.6,0c-0.1,0.4-0.4,0.6-0.8,0.6c-0.2,0-0.3,0.2-0.3,0.4c0.1,0.8,0.5,3.2-0.9,2.9c-0.2-0.1-0.5,0.2-0.4,0.4
				c0.2,0.8,0.4,1.6,0.3,2.5s-0.8,0.9-1.4,0.3c-0.3-0.3-0.6-0.7-1-1.1c-0.2-0.2-0.5-0.1-0.5,0.1c-0.1,0.6-1.5,0.3-1.9,0.3
				c-0.3,0-0.4,0.4-0.2,0.6c0.7,0.7,0.4,2,0.9,2.9c0.2,0.4,0.4,0.7,0.6,1.1c0.2,0.3,0.6,1.2-0.1,1c-0.3-0.1-0.6,0.4-0.3,0.6
				c0.6,0.3,0.9,1,1.6,1.3c0.5,0.2,1.1,0.3,1.5,0.2c0.2,0,0.5-0.3,0.7-0.3c0.5,0.1,0.2,0.8,0,1.1c-0.3,0.5-0.8,1-1.2,1.4
				c-0.3,0.3,0.1,0.7,0.4,0.5c0.6-0.3,3.5-0.4,3.1,0.7c-0.1,0.3,0.3,0.5,0.5,0.3s0.8-0.8,1.1-0.8c0.4,0,0.8,0.4,1,0.7
				c0.1,0.2,0.1,0.5,0.2,0.8c0,0.1,0.2,0.2,0.3,0.2c0.8,0,0.8,0.6,1.4,0.9c0.5,0.3,1.1,0.1,1.3,0.7c0.1,0.3,0.5,0.3,0.6,0.1
				c0.2-0.4,0.3-0.7,0.7-0.6c0.2,0.1,0.5,0.3,0.6,0.5c0.4,0.3,1.7,0.8,1.4,1.5c-0.2,0.4,0.4,0.7,0.6,0.3c0.5-1.2-0.8-1.8-1.6-2.4
				c-0.4-0.2-0.8-0.8-1.3-0.7c-0.5,0-0.8,0.7-1,1.1c0.2,0,0.4,0.1,0.6,0.1c-0.3-0.8-0.7-0.7-1.5-1.1s-0.9-1-1.9-1
				c0.1,0.1,0.2,0.2,0.3,0.2c-0.1-0.7-0.3-1.9-1.2-2c-0.8-0.1-1.6,0.7-2.1,1.1c0.2,0.1,0.4,0.2,0.5,0.3c0.7-2-3.1-1.9-4.1-1.4
				c0.1,0.2,0.3,0.3,0.4,0.5c0.7-0.6,2.3-2.2,1.5-3.2c-0.4-0.6-0.8-0.4-1.4-0.2c-1.4,0.4-1.8-0.8-2.9-1.3c-0.1,0.2-0.2,0.4-0.3,0.6
				c1.4,0.4,1.4-0.8,0.9-1.8c-0.3-0.6-0.7-1.1-0.9-1.6c-0.4-0.9,0-1.8-0.8-2.6c-0.1,0.2-0.2,0.4-0.2,0.6c0.8,0,2.3,0.4,2.5-0.7
				c-0.2,0-0.4,0.1-0.5,0.1c0.7,0.6,1.9,2.7,3.1,1.4c0.8-0.9,0.4-2.7,0.1-3.8c-0.1,0.1-0.3,0.3-0.4,0.4c2.2,0.5,1.9-2.4,1.7-3.7
				c-0.1,0.1-0.2,0.3-0.3,0.4c0.6,0,1-0.4,1.3-0.9c-0.2,0-0.4,0-0.6,0c0.3,0.6,0.8,0.7,1.4,0.5c-0.1-0.1-0.3-0.2-0.4-0.2
				c0.4,1.2,1.4,1.8,2.5,1.1c-0.2-0.1-0.3-0.1-0.5-0.2c0.2,0.6,0.1,4.5,1.7,3.3c-0.2-0.1-0.3-0.2-0.5-0.3c-0.2,1.2-1.3,2.1-1.1,3.4
				c0.1,0.5,0.3,0.9,0.9,0.7c0.6-0.2,1-1.3,1.2-1.8c0.2-0.7,0.3-1.4,0.5-2.1c0.2-0.6,0.3-0.9,0.2-1.5C85.6,77,85,77,85,77.4L85,77.4
				z"/>
		</g>
	</g>
	<g>
		<g>
			<path class="st15" d="M92.6,90.3c0.1-1.1,1.5-1.3,2.4-1.5c1-0.1,2-0.1,3,0c0.3,0.1,0.6-0.4,0.3-0.6c-0.5-0.2-0.9-0.7-1.1-1.2
				c-0.1-0.2-0.1-0.4,0-0.6s0.5-0.2,0.7-0.2s0.4-0.2,0.3-0.4c-0.2-0.7,0.6-1.3,1.2-1.4c0.4-0.1,0.3-0.7-0.1-0.6
				c-0.6,0.1-1.5-0.2-1.3-0.9c0-0.2-0.2-0.5-0.4-0.4c-0.8,0.3-1.7,0.2-1.9-0.7c-0.1-0.4-0.7-0.2-0.6,0.2c0.3,1.3,1.6,1.7,2.7,1.2
				c-0.1-0.1-0.3-0.3-0.4-0.4c-0.2,1.1,0.9,1.9,1.9,1.8c0-0.2-0.1-0.4-0.1-0.6c-1,0.2-1.9,1.1-1.7,2.2c0.1-0.1,0.2-0.3,0.3-0.4
				c-0.9,0-1.6,0.5-1.4,1.4c0.1,0.8,0.7,1.6,1.5,1.9c0.1-0.2,0.2-0.4,0.3-0.6c-1.2-0.2-2.5-0.2-3.6,0c-1.2,0.2-2.5,0.7-2.6,2
				C91.9,90.7,92.6,90.7,92.6,90.3L92.6,90.3z"/>
		</g>
	</g>
	<g>
		<g>
			<path class="st15" d="M89.6,96.4c0.4-0.1,0.8-0.4,1.2-0.6c0.1-0.1,0.2-0.1,0.3-0.1c0.1,0-0.1,0,0,0h0.1h0.1c0.1,0,0.1,0,0.2,0
				l0,0h0.1c0.1,0,0.2,0,0.3,0c0.4,0.1,0.6-0.5,0.2-0.6c-0.5-0.1-1,0-1.5,0.2c-0.2,0.1-0.4,0.2-0.6,0.3c-0.1,0.1-0.2,0.1-0.3,0.2
				l-0.1,0.1c0,0-0.1,0-0.2,0.1c-0.2,0.1-0.3,0.2-0.2,0.4C89.2,96.3,89.4,96.4,89.6,96.4L89.6,96.4z"/>
		</g>
	</g>
	<g>
		<g>
			<path class="st15" d="M94.9,81.7c0,0.5-0.6,0.8-1,0.9c-0.5,0.1-1.1,0-1.4-0.5c-0.1-0.2-0.4-0.2-0.6,0c-0.2,0.3-0.5,0.5-0.7,0.7
				c-0.1,0.1-0.6,0.4-0.8,0.3c-0.2-0.2,0.3-0.7,0.4-0.8c0.2-0.2,0.6-0.5,0.9-0.6s0.3-0.4,0.1-0.6c-0.4-0.3,0.3-1,0.4-1.2
				c0.3-0.5,0.6-1,0.4-1.6c-0.1-0.2-0.3-0.3-0.5-0.2c-0.4,0.3-0.6,0-0.7-0.4s-0.1-0.9,0.2-1.2c0.3-0.3-0.2-0.8-0.5-0.5
				c-0.4,0.5-0.5,1.4-0.3,2.1s0.9,1.1,1.6,0.6c-0.2-0.1-0.3-0.1-0.5-0.2c0.2,0.5-0.5,1.2-0.7,1.6c-0.3,0.6-0.4,1.1,0.2,1.6
				c0-0.2,0.1-0.4,0.1-0.6c-0.8,0.2-2.4,1.6-1.7,2.5c0.7,0.8,2.2-0.4,2.6-1c-0.2,0-0.4,0-0.6,0c0.7,1.5,3.6,1,3.6-0.7
				C95.6,81.3,94.9,81.3,94.9,81.7L94.9,81.7z"/>
		</g>
	</g>
	<g>
		<g>
			<path class="st15" d="M91.1,75.8C91.2,75.8,91.3,75.8,91.1,75.8C91.1,75.8,91.1,75.8,91.1,75.8c0-0.2-0.1-0.2-0.1-0.3
				c-0.1-0.2-0.1-0.3-0.1-0.5c0-0.3,0.1-0.7,0.2-1s-0.2-0.5-0.5-0.4c-0.9,0.6-1.6,1.6-2.8,1.3c-0.2,0-0.4,0.1-0.4,0.2
				c-0.1,0.6-0.3,1.3-0.6,1.8c-0.1,0.2-0.3,0.4-0.5,0.5c-0.3,0.1-0.6-0.2-0.8-0.4c-0.3-0.3-0.8,0.2-0.5,0.5s0.7,0.6,1.1,0.6
				s0.7-0.2,0.9-0.5c0.5-0.6,0.8-1.5,0.9-2.3c-0.1,0.1-0.3,0.2-0.4,0.2c0.6,0.2,1.3,0.1,1.8-0.2c0.5-0.3,0.9-0.8,1.4-1.1
				c-0.2-0.1-0.3-0.2-0.5-0.4c-0.2,0.7-0.3,1.3,0,1.9c0.2,0.4,0.9,1,1.2,0.3C91.8,75.8,91.3,75.5,91.1,75.8L91.1,75.8z"/>
		</g>
	</g>
	<g>
		<g>
			<path class="st15" d="M90.1,74.4c-1.4,3.3-3.1,6.4-4.7,9.6c-0.6,1.1-1.1,2.2-1.5,3.3c-0.4,1.1-0.9,2.6-1.8,3.3
				c-0.3,0.2,0,0.8,0.3,0.6c0.8-0.6,1.3-1.6,1.7-2.5c0.5-1.2,1-2.5,1.6-3.7c1.7-3.4,3.5-6.7,5-10.2C90.9,74.4,90.3,74,90.1,74.4
				L90.1,74.4z"/>
		</g>
	</g>
	<g>
		<g>
			<path class="st15" d="M82.1,90.6c-0.3,0.4-0.6,0.9-0.8,1.3c-0.1,0.3-0.3,0.6-0.4,0.9c-0.1,0.2-0.1,0.5,0,0.8
				c0.2,0.3,0.6,0.3,0.9,0.2c0.1,0,0.2-0.2,0.2-0.3c0.1-0.9,0.2-1.7,0.6-2.5c0.1-0.2,0-0.4-0.1-0.5C82.4,90.4,82.2,90.5,82.1,90.6
				c-0.2,0.4-0.4,0.9-0.5,1.4s-0.1,1-0.2,1.5c0.1-0.1,0.2-0.2,0.2-0.3h-0.1c0,0-0.1,0,0,0h-0.1c-0.1,0,0,0,0,0l0,0c0,0,0.1,0,0,0
				c0.1,0.1,0,0,0,0c0.1,0.1,0,0.1,0,0l0,0c0,0.1,0,0,0,0l0,0c0,0,0,0.1,0,0v-0.1c0,0.1,0,0,0,0V93c0-0.1,0-0.1,0-0.2s0-0.1,0.1-0.2
				l0,0c0,0,0,0.1,0,0v-0.1c0.1-0.1,0.1-0.3,0.2-0.4c0.1-0.2,0.3-0.5,0.4-0.7s0.2-0.4,0.4-0.5c0.1-0.1,0-0.4-0.1-0.5
				C82.4,90.4,82.2,90.5,82.1,90.6L82.1,90.6z"/>
		</g>
	</g>
	<g>
		<g>
			<path class="st15" d="M79.7,74.6c0.9,2.8,0.6,5.7,1,8.6c0.2,1.2,0.5,2.4,1,3.6c0.3,0.6,0.5,1.3,0.5,2s-0.3,1.4-0.2,2.1
				c0,0.4,0.7,0.4,0.7,0c-0.1-0.7,0.2-1.4,0.2-2.1c0-0.6-0.2-1.1-0.4-1.6c-0.5-1.4-1-2.7-1.2-4.2c-0.3-2.8-0.1-5.7-1-8.4
				C80.3,74.1,79.6,74.2,79.7,74.6L79.7,74.6z"/>
		</g>
	</g>
	<g>
		<g>
			<path class="st15" d="M72.9,81.3c1.8,1.5,3.6,3,5.4,4.5c1.5,1.3,3.3,2.6,3.7,4.6c0.1,0.4,0.7,0.2,0.6-0.2c-0.4-2-2.1-3.4-3.6-4.7
				c-1.9-1.6-3.8-3.2-5.7-4.7C73,80.6,72.6,81.1,72.9,81.3L72.9,81.3z"/>
		</g>
	</g>
	<g>
		<g>
			<path class="st15" d="M98.9,83.9c-3.8,0.7-7.2,2.4-10.7,3.9c-1.1,0.5-2.4,0.7-3.5,1.1c-0.9,0.3-2,0.7-2.5,1.7
				C82,91,82.6,91.4,82.7,91c0.5-1,1.9-1.3,2.8-1.6c1.1-0.3,2.2-0.6,3.2-1.1c3.3-1.5,6.6-3,10.3-3.7C99.5,84.5,99.3,83.9,98.9,83.9
				L98.9,83.9z"/>
		</g>
	</g>
	<g>
		<g>
			<path class="st15" d="M89.9,92c-1.2-0.6-2.4-1.3-3.7-1.8c-1.2-0.4-2.7-0.7-3.8,0.1c-0.3,0.2,0,0.8,0.3,0.6c1.1-0.7,2.4-0.4,3.5,0
				c1.2,0.4,2.3,1.1,3.4,1.6C89.9,92.8,90.2,92.2,89.9,92L89.9,92z"/>
		</g>
	</g>
</g>
<g>
	<g>
		<path class="st15" d="M45.5,86.1c-1.4,1.3-2,3.1-1.2,4.9c0.7,1.6,2.4,2.9,4.1,3.2c1.8,0.3,4.1-0.2,5.3-1.6
			c0.5-0.6,0.8-1.3,0.5-2.1c-0.3-0.8-1.2-1.5-2-1.8c-1-0.4-2.2-0.2-3.2,0s-2,0.5-2.9,1c-0.2,0.1,0,0.4,0.2,0.3
			c1.4-0.7,3.2-1.2,4.8-1.1c0.9,0,1.7,0.4,2.4,1.1c0.6,0.6,0.7,1.4,0.2,2.1c-1,1.4-3.1,2-4.7,1.9c-1.7-0.1-3.2-1.1-4.1-2.5
			c-0.5-0.7-0.7-1.6-0.6-2.5c0.1-1,0.7-1.9,1.5-2.6C45.9,86.1,45.7,85.9,45.5,86.1L45.5,86.1z"/>
	</g>
</g>
<g>
	<g>
		<path class="st15" d="M49.1,90.8c1.4,0.9,3.2,0.9,4.4-0.2c0.2-0.1-0.1-0.4-0.2-0.2c-1.1,1.1-2.8,1-4,0.2
			C49.1,90.4,49,90.7,49.1,90.8L49.1,90.8z"/>
	</g>
</g>
<g>
	<g>
		<path class="st15" d="M95.9,88.6c1.6,0.5,2.7,1.8,2.7,3.5c0,1.4-0.8,2.9-2.1,3.5c-1.8,0.9-3.9-0.1-5.3-1.3c-0.6-0.5-1.3-1.2-1.2-2
			c0.1-0.6,0.7-1.1,1.2-1.3c1.8-0.7,4.1-0.2,5.5,1.2c0.1,0.2,0.4-0.1,0.2-0.2c-1.3-1.4-3.5-1.9-5.4-1.4c-0.7,0.2-1.4,0.6-1.7,1.2
			c-0.3,0.7-0.1,1.5,0.4,2c0.7,0.9,1.9,1.7,3,2.1c0.9,0.3,1.8,0.5,2.7,0.2c1.6-0.4,2.7-1.9,2.9-3.5c0.1-0.9,0-1.8-0.5-2.6
			c-0.5-0.9-1.4-1.5-2.4-1.8C95.8,88.2,95.7,88.5,95.9,88.6L95.9,88.6z"/>
	</g>
</g>
<g>
	<g>
		<path class="st15" d="M90,91.9c1.6,1.6,4.1,2.8,6.2,1.6c0.2-0.1,0-0.4-0.2-0.3c-2,1.1-4.4-0.1-5.8-1.5
			C90.1,91.5,89.9,91.7,90,91.9L90,91.9z"/>
	</g>
</g>
<g>
	<g>
		<path class="st15" d="M73.8,62.4c1.1-0.2,2.2-0.9,2.8-1.8c0.3-0.4,0.5-0.9,0.5-1.4c0-0.6-0.3-1.1-0.7-1.5
			c-0.1,0.1-0.1,0.2-0.2,0.3c1.4,0.6,2.6,2.2,2.2,3.8c-0.1,0.2,0.3,0.3,0.3,0.1c0.5-1.7-0.7-3.5-2.3-4.2c-0.2-0.1-0.3,0.1-0.2,0.3
			c1.7,1.8-0.6,3.9-2.4,4.2C73.5,62.1,73.6,62.5,73.8,62.4L73.8,62.4z"/>
	</g>
</g>
<g>
	<g>
		<path class="st15" d="M46.8,31.4c0-0.1-0.2,0-0.3,0c-0.3,0.1-0.5,0.1-0.8,0.1c-0.8,0.1-1.5,0.3-2.3,0.4c-0.8,0.2-1.5,0.4-2.3,0.7
			c-0.3,0.1-0.6,0.3-0.9,0.4c-0.4,0.3-0.5,0.6-0.8,0.9c-0.1,0.1-0.1,0.2,0,0.3c1.9,1.2,3.9,2.6,6.1,3.3c2.2,0.7,4.4,0.3,6.6-0.6
			c0.2-0.1,0-0.4-0.2-0.3c-2.1,0.9-4.4,1.2-6.6,0.4c-2.1-0.7-3.9-2-5.7-3.1c0,0.1,0,0.2,0,0.3c0.3-0.3,0.5-0.7,0.8-0.9
			c0.4-0.2,0.7-0.4,1.1-0.5c0.8-0.3,1.7-0.5,2.5-0.6c0.7-0.1,1.4-0.3,2.1-0.4c0.2,0,0.7-0.1,0.8-0.3C47.2,31.2,46.9,31.2,46.8,31.4
			L46.8,31.4z"/>
	</g>
</g>
<g>
	<g>
		<path class="st15" d="M89.3,30c2.6-0.7,5.2,0.4,7.8,0.2C97,30.1,97,30.1,96.9,30c-0.5,2.5-2.6,4.5-4.7,5.6
			c-2.1,1.2-4.8,1.8-6.9,0.3c-0.2-0.1-0.3,0.2-0.2,0.3c2.1,1.6,5,1,7.1-0.2c2.3-1.2,4.4-3.3,5-5.9c0-0.1,0-0.2-0.2-0.2
			c-2.6,0.2-5.3-0.9-7.9-0.2C89,29.7,89.1,30,89.3,30L89.3,30z"/>
	</g>
</g>
<g>
	<g>
		<path class="st15" d="M83.6,35c2.2,0.8,4.6,0.2,6.8-0.7c2.2-0.9,4.3-2.1,6.1-3.7c0.2-0.1-0.1-0.4-0.2-0.2c-1.7,1.6-3.8,2.7-6,3.6
			c-2.1,0.8-4.4,1.5-6.6,0.7C83.5,34.6,83.4,34.9,83.6,35L83.6,35z"/>
	</g>
</g>
<g>
	<g>
		<path class="st15" d="M39.6,34c3.8-0.6,7.4,1.7,11.2,0.9c0.2,0,0.1-0.4-0.1-0.3c-3.8,0.8-7.4-1.5-11.2-0.9
			C39.3,33.7,39.4,34.1,39.6,34L39.6,34z"/>
	</g>
</g>
<g>
	<g>
		<path class="st15" d="M45.5,25.7c-1.2-1.1-2.3-2.3-3-3.8s-1.1-3.1-1.5-4.6c-0.1,0.1-0.1,0.1-0.2,0.2c1.6-0.1,3.3-0.4,5-0.3
			c0.8,0.1,1.6,0.3,2.3,0.8s1.1,1.4,1.3,2.3c0,0.2,0.4,0.1,0.3-0.1c-0.2-0.9-0.6-1.7-1.3-2.3c-0.6-0.5-1.4-0.8-2.2-0.9
			c-1.8-0.3-3.6,0.1-5.4,0.2c-0.1,0-0.2,0.1-0.2,0.2c0.4,1.6,0.8,3.2,1.5,4.7c0.7,1.5,1.8,2.8,3,3.9C45.5,26.1,45.7,25.8,45.5,25.7
			L45.5,25.7z"/>
	</g>
</g>
<g>
	<g>
		<path class="st15" d="M40.5,17.7c2.3,0.4,3.8,2,5.3,3.6c1.3,1.4,2.8,2.9,4.8,3.1c0.2,0,0.2-0.3,0-0.3c-2.1-0.3-3.6-2-5-3.4
			c-1.4-1.5-3-2.9-5.1-3.3C40.3,17.3,40.2,17.7,40.5,17.7L40.5,17.7z"/>
	</g>
</g>
<g>
	<g>
		<path class="st15" d="M73.1,12.4c0.1-1.4,1-2.7,2-3.7s2.2-1.8,3.5-2.2c-0.1,0-0.1-0.1-0.2-0.1c0.7,0.9,1.4,1.8,1.9,2.9
			c0.5,1,0.9,2.1,0.5,3.3c-0.1,0.2,0.3,0.3,0.3,0.1c0.7-2.3-1.2-4.7-2.5-6.4c0-0.1-0.1-0.1-0.2-0.1c-1.4,0.4-2.7,1.3-3.7,2.4
			s-1.8,2.4-2,3.8C72.7,12.6,73.1,12.6,73.1,12.4L73.1,12.4z"/>
	</g>
</g>
<g>
	<g>
		<path class="st15" d="M78.1,6.4c1.5,3.1-2,5.9-2.7,8.8c0,0.2,0.3,0.3,0.3,0.1c0.7-3,4.3-5.8,2.7-9.1C78.3,6.1,78,6.3,78.1,6.4
			L78.1,6.4z"/>
	</g>
</g>
<g>
	<g>
		<path class="st15" d="M54.7,13.4c-1.1-2.1-0.7-5,0.4-7c-0.1,0-0.1,0.1-0.2,0.1c1.2,0.4,2.4,0.9,3.5,1.5c1.2,0.6,2.5,1.3,3.4,2.4
			c0.3,0.4,0.6,0.9,0.4,1.4c-0.1,0.2,0.2,0.4,0.3,0.2c0.6-1-0.5-2-1.3-2.6C60,8.4,58.5,7.6,57,7c-0.6-0.3-1.3-0.6-2-0.8
			c-0.1,0-0.2,0-0.2,0.1c-1.2,2.1-1.6,5.1-0.4,7.3C54.5,13.8,54.8,13.6,54.7,13.4L54.7,13.4z"/>
	</g>
</g>
<g>
	<g>
		<path class="st15" d="M54.9,6.7c1.1,1.4,2.2,3,2.9,4.7s0.9,3.5,0.9,5.3c0,0.2,0.3,0.2,0.3,0c0.1-1.9-0.2-3.7-0.9-5.5
			c-0.7-1.7-1.8-3.2-2.9-4.7C55,6.3,54.8,6.5,54.9,6.7L54.9,6.7z"/>
	</g>
</g>
<g>
	<g>
		<path class="st15" d="M86.4,20.6c2.5-0.4,5,0.3,7.3,1.1c0-0.1-0.1-0.1-0.1-0.2c-0.7,2.5-2.7,5.7-5.7,5.5c-0.2,0-0.2,0.3,0,0.3
			c3.1,0.2,5.3-3,6-5.7c0-0.1,0-0.2-0.1-0.2c-2.4-0.9-4.9-1.6-7.5-1.1C86.1,20.3,86.2,20.6,86.4,20.6L86.4,20.6z"/>
	</g>
</g>
<g>
	<g>
		<path class="st15" d="M92.7,21.7c-1,1.7-3.5,1.6-5.2,1.8c-1.9,0.1-3.8,0.4-5,2c-0.1,0.2,0.2,0.3,0.3,0.2c1.3-1.8,3.7-1.8,5.7-1.9
			c1.7-0.1,3.6-0.3,4.5-1.9C93.1,21.7,92.8,21.5,92.7,21.7L92.7,21.7z"/>
	</g>
</g>
<g>
	<g>
		<path class="st15" d="M79.4,124.7c-1.1-1.2-2.8-1.8-4.3-2.3c-1.8-0.6-3.6-1-5.4-1.5c-0.4-0.1-0.6,0.5-0.2,0.6
			c1.7,0.5,3.4,0.9,5.1,1.4c1.5,0.5,3.2,1,4.2,2.2C79.2,125.5,79.7,125,79.4,124.7L79.4,124.7z"/>
	</g>
</g>
<g id="Layer_2">
	<path class="st17" d="M39.7,129.5l1.1-0.6l0.3-0.3l1.2-0.4l0.5-0.4l-0.3-0.4l1-0.1h2.1l0.7-0.2l2.1,0.2l0.8-0.2
		c0,0-0.4-0.7-2.2-0.5l0.2-0.5l-0.1-0.3l-0.8-0.4l-1.1-0.2l-0.3,0.1l0.6-0.5l-0.1-0.6l-0.7-0.4l0.8-0.2l0.3-0.6l1.7,0.1l0.7-0.1
		l1.2,0.5l1-0.3l0.6-0.6l0.2-0.4l1,1.2l2.8,0.9l1.4-0.2l0.4-0.4l0-0.3l-0.6-0.5l1.6,0l1.4-0.7l0.5-0.2l1.4,0.8l0.9-0.2v0.6l0.9,0.4
		l1,0.2l-0.3,0.2l-0.5,0.2l-0.6,0.4l-0.1,0.8l0.3,0.4l1,0l-0.3,0.8l-0.3,0.7l-0.4,0.3l-0.8,0.5l-0.1,0.2l0.9,0.5l0.7,0.1l-0.3,0.4
		l0.7,0.9l0.3,0.4l-1.6-0.1l-1.4,0.1l-0.3,0.3l0.4,0.3l0.6,0.6l-0.3,0.7l-0.1,0.4l-0.5-0.3l-0.8,0.1l-1.1,0.9l-1.4,0.7l-1,0.2
		l-0.5,0.4l-0.8-0.7l-1.2-0.2l0.8-0.7l0.2-0.5l-0.5-0.3l-1.3,0l-1.3,0.6l-1.5,0.5l-1-0.6l-1.2,0.2l-1.4,0.4l-1,0.1l-1-0.3l-0.2-0.4
		l0.3-0.4v-0.4l-0.4-0.5l1.6-0.4l1.2-0.3l0.4-0.6l1.1-0.1l2.1,0l0.9-0.3l0.3-0.3l-1-0.1l-3.9,0.4l-2,0.3l-1.5-0.3l-1.8,0.2l-1.1-0.6
		L39.7,129.5z"/>
</g>
<g>
	<path class="st15" d="M48.4,117.4c0.9-0.3,1.9-0.5,2.9-0.8c0.2-0.2,0.4-0.5,0.6-0.7c-1.3,0.3-2.5,0.6-3.6,1c-6.4,2-9.9,4.6-9.9,7.5
		c0,1.4,0.9,2.8,2.5,4c0.1-0.1,0.3-0.3,0.5-0.3c-1.6-1.2-2.5-2.4-2.5-3.7C38.8,121.8,42.3,119.3,48.4,117.4z"/>
	<path class="st15" d="M45.5,130.4L45.5,130.4c-0.1,0-0.2,0-0.3,0.1c0,0.1,0.1,0.3,0.1,0.4c0.5,0.2,1.1,0.4,1.7,0.6
		c0.1-0.1,0.3-0.2,0.5-0.2c0-0.1,0.1-0.1,0.1-0.2C46.9,130.9,46.2,130.6,45.5,130.4z"/>
	<path class="st15" d="M76.7,134.7c-0.1-0.2-0.2-0.3-0.3-0.5c-1.3,0.1-2.5,0.1-3.8,0.1c-0.5,0.6-1.6,0.6-2.1,0
		c-3.9,0-7.6-0.3-11.1-0.7c0,0-0.1,0-0.1,0.1c-0.1,0.2-0.3,0.3-0.5,0.4c4.1,0.5,8.5,0.8,13,0.8C73.5,134.8,75.1,134.8,76.7,134.7
		L76.7,134.7z"/>
	<path class="st15" d="M83.1,134c0-0.1,0-0.2,0-0.2v-0.1c-0.6,0.1-1.3,0.1-1.9,0.2c0,0,0,0,0,0.1c0.1,0.2,0.1,0.3,0.1,0.5
		c0.6-0.1,1.2-0.1,1.8-0.2C83.1,134.2,83.1,134.1,83.1,134z"/>
	<path class="st15" d="M95.4,116.9c-2.6-0.8-5.5-1.4-8.6-1.9c0,0.2,0,0.4-0.1,0.5c3.1,0.5,6,1.1,8.6,1.9c6.1,1.9,9.6,4.4,9.6,7
		s-3.5,5.1-9.6,7c-2.4,0.7-5,1.3-7.9,1.8c0.1,0.2,0.2,0.3,0.3,0.5c2.8-0.5,5.5-1.1,7.8-1.8c6.4-2,9.9-4.6,9.9-7.5
		C105.3,121.5,101.8,118.9,95.4,116.9z"/>
</g>
<g>
	<g>
		<g>
			<path class="st15" d="M45.3,130.9c0.9-0.3,1.8-0.3,2.7-0.4c1.1-0.1,2.2-0.3,3.2-0.3c0.2,0,0.4,0,0.5,0c0.4,0.1-0.2,0-0.3,0.1
				c-0.6,0.1-1.1,0.2-1.7,0.2c-0.9,0-1.7,0-2.6,0.2c-0.2,0-0.2,0.3,0,0.3c0.5,0.1,0,0.1-0.3,0.2c-0.3,0.1-0.7,0.2-1,0.3
				c-0.5,0.2-1.1,0.3-1.6,0.5c-0.1,0.1-0.1,0.3,0,0.3c0.3,0,0.4,0.1,0.4,0.3c0.2,0.3,0.1,0.5-0.4,0.5c-0.2,0.1-0.2,0.3,0,0.3
				c0,0.1,0,0.2,0.1,0.3c-0.1,0.1-0.1,0.3,0.1,0.3c0.2,0,0.4,0,0.6,0c0.3,0,0.5,0.1,0.7,0.2c0,0,0.1,0.1,0.1,0c0.3,0,0.7-0.2,1-0.3
				c0.7-0.2,2.8-0.9,3.3-0.1c0,0.1,0.1,0.1,0.2,0.1c0.9-0.3,1.8-0.6,2.7-0.8c0.3-0.1,0.6-0.1,0.9-0.1c0.2,0,0.8,0.1,0.8,0.5
				c0,0.2-0.6,0.6-0.8,0.8c-0.1,0.1,0,0.3,0.1,0.2c0.8-0.1,1.1,0.3,1.6,0.8c0.1,0.1,0.2,0.1,0.2,0c0.6-0.7,1.9-0.6,2.7-1.1
				c0.5-0.3,2.3-1.7,2.7-0.9c0.1,0.2,0.3,0.1,0.3-0.1c0-0.6,0.8-0.6,0.5-1.3c-0.1-0.3-1.1-0.6-1.1-0.7c-0.1-0.5,3.4-0.2,3.8-0.1
				c0.2,0,0.2-0.3,0-0.3c-0.6-0.2-2.2-1.4-0.8-1.5c0.2,0,0.2-0.3,0-0.3c-0.5-0.1-1-0.1-1.5-0.3c-0.3-0.1-0.6-0.1-0.3-0.4
				c0.2-0.2,0.9-0.4,1.2-0.5c0.1,0,0.2-0.2,0.1-0.3c-0.3-0.3,0.3-0.5,0.3-0.8c0.1-0.4-0.4-0.5,0.2-0.7c0.2-0.1,0.1-0.3-0.1-0.3
				c-0.3,0-0.8,0.1-1.1,0c-0.4-0.1-0.1,0-0.1-0.4c0.1-0.7,0.5-1.2,1.3-1.2c0.2,0,0.2-0.3,0-0.3c-1,0.1-1.5,0.8-1.7,1.7
				c-0.2,0.8,1,0.5,1.6,0.5c0-0.1-0.1-0.2-0.1-0.3c-0.7,0.3-0.4,0.4-0.5,1c-0.1,0.5-0.7,0.6-0.1,1.1c0-0.1,0-0.2,0.1-0.3
				c-0.3,0.1-1.9,0.5-1.6,1.1c0.3,0.6,1.8,0.6,2.3,0.6c0-0.1,0-0.2,0-0.3c-2.1,0.2-0.4,1.9,0.7,2.2c0-0.1,0-0.2,0-0.3
				c-0.7-0.1-1.5-0.2-2.2-0.2c-0.5,0-1.4-0.1-1.8,0.3c-0.2,0.2-0.2,0.4-0.1,0.6c0.4,0.4,0.6-0.1,0.8,0.7c0.1,0.6-0.2,0.6-0.2,1.1
				c0.1,0,0.2-0.1,0.3-0.1c-0.6-1.2-2.6,0.4-3.2,0.8c-0.4,0.2-0.8,0.3-1.2,0.4c-0.3,0.1-0.6,0.2-0.9,0.3c-0.1,0-0.3,0.2-0.4,0.2
				c-0.1,0-0.4-0.4-0.5-0.5c-0.4-0.3-0.8-0.3-1.2-0.3c0,0.1,0.1,0.2,0.1,0.2c0.4-0.5,1.7-1.4,0.3-1.7s-2.6,0.6-3.9,0.8
				c-0.3,0-0.1,0-0.3,0s-0.3-0.2-0.4-0.2c-0.5-0.1-1.2,0-1.7,0.1c-0.6,0.1-1.4,0.5-2,0.5c-0.5,0-1.1-0.2-1.6-0.2
				c0,0.1,0.1,0.2,0.1,0.3c0.5-0.3,0.4-0.7-0.1-0.9c0,0.1,0,0.2,0,0.3c1.1-0.5,1.2-1.1-0.1-1.5c0,0.1,0,0.2,0,0.3
				c0.9-0.4,2.1-0.5,3-1c0.5-0.3,0.4-0.6-0.1-0.7c0,0.1,0,0.2,0,0.3c1.1-0.2,2.3-0.1,3.5-0.2c0.4,0,1.2-0.1,1.5-0.5c0,0,0-0.1,0-0.2
				c-0.4-0.6-2-0.2-2.5-0.2c-1.5,0.1-3.1,0.2-4.5,0.6C45,130.7,45.1,131,45.3,130.9L45.3,130.9z"/>
		</g>
	</g>
	<g>
		<g>
			<path class="st15" d="M64.3,123.8c-0.4-0.3-2.6-0.2-2.2-1.2c0-0.1-0.1-0.3-0.2-0.2c-0.7,0.5-1.6-0.2-2.1-0.7
				c-0.1-0.1-0.2-0.1-0.2,0c-0.7,0.8-2.2,1.2-3.2,1.1c-0.1,0-0.3,0.1-0.2,0.2c0.1,0.2,0.5,0.4,0.5,0.6c0.1,0.7-1.6,0.5-2,0.4
				c-1.2-0.2-2.6-1-3.4-2c-0.1-0.1-0.3-0.1-0.3,0.1c0,0.6-0.8,0.9-1.2,1s-0.7,0.1-1.1-0.1c-0.1,0-0.3-0.2-0.4-0.3
				c-0.3-0.1-0.7,0.2-1,0.2c-0.6,0-1.2-0.1-1.8-0.3c-0.2-0.1-0.3,0.2-0.2,0.3c0.9,0.5-0.6,0.8-0.6,0.8c-0.2,0-0.1,0.3,0,0.3
				c0.2,0.1,0.5,0.2,0.7,0.3c0.1,0.4-0.1,0.7-0.6,0.7c-0.2,0.1-0.1,0.4,0.1,0.3c0.3-0.1,1.1-0.3,1.1-0.8c-0.1-0.4-0.9-0.6-1.2-0.7
				c0,0.1,0,0.2,0,0.3c0.8-0.1,1.8-0.7,0.7-1.4c-0.1,0.1-0.1,0.2-0.2,0.3c0.6,0.3,1.3,0.4,1.9,0.4c0.4,0,0.7-0.1,1.1-0.1
				c0.3,0.1,0.5,0.2,0.8,0.3c0.8,0.1,2.2-0.4,2.2-1.4c-0.1,0-0.2,0.1-0.3,0.1c1.1,1.5,3.2,2.4,5,2.2c0.3,0,1-0.1,1-0.5
				c0.1-0.4-0.4-0.8-0.6-1c-0.1,0.1-0.1,0.2-0.2,0.2c0.7,0.1,1.3,0,2-0.2c0.3-0.1,0.5-0.2,0.8-0.4c0.2-0.1,0.5-0.4,0.6-0.4
				c0.2-0.1-0.3-0.1,0.1,0c0.1,0,0.1,0.1,0.2,0.1c0.2,0.2,0.6,0.4,0.9,0.5c0.5,0.2,0.9,0.2,1.3-0.1c-0.1-0.1-0.2-0.1-0.2-0.2
				c-0.5,1.4,1.7,1.2,2.4,1.6C64.3,124.3,64.5,124,64.3,123.8L64.3,123.8z"/>
		</g>
	</g>
	<g>
		<g>
			<path class="st15" d="M45,125.4c0.5-0.1,1.1-0.1,1.6,0.1c0.4,0.1,1,0.5,0.4,0.8c-0.1,0.1-0.1,0.3,0.1,0.3c0.4,0,0.8,0.1,1.3,0.1
				c0.2,0,0.4,0.1,0.6,0.2c0.1,0,0.1,0.1,0.2,0.1c0,0,0.1,0,0,0l-0.1,0.1c-0.9,0.1-1.9,0.1-2.7-0.2c-0.1,0-0.2,0-0.2,0.1
				c-0.1,0.2-0.5,0.2-0.7,0.2c-0.4,0-0.7,0-1.1,0c-0.6,0-1.3-0.1-1.9,0.2c-0.1,0.1-0.1,0.3,0,0.3s0.3,0,0.3,0.1c0,0,0,0-0.1,0.1
				c-0.2,0.1-0.4,0.2-0.7,0.3c-0.5,0.1-1,0.2-1.6,0.2c-0.2,0-0.2,0.3,0,0.3c0.7,0,1.6-0.1,2.3-0.5c0.2-0.1,0.4-0.2,0.4-0.5
				s-0.4-0.3-0.6-0.4c0,0.1,0,0.2,0,0.3c0.7-0.3,1.6-0.1,2.3-0.1c0.4,0,1.3,0.1,1.5-0.4c-0.1,0-0.1,0.1-0.2,0.1
				c0.5,0.2,1.2,0.3,1.8,0.3c0.4,0,1.3,0.1,1.5-0.3c0.3-0.7-2.1-0.8-2.4-0.8c0,0.1,0.1,0.2,0.1,0.3c0.5-0.3,0.5-0.8,0.1-1.1
				c-0.7-0.5-1.6-0.5-2.4-0.4C44.7,125.1,44.7,125.5,45,125.4L45,125.4z"/>
		</g>
	</g>
	<g>
		<g>
			<path class="st15" d="M40.5,128.7C40.6,128.7,40.7,128.7,40.5,128.7L40.5,128.7c-0.1,0.1-0.2,0.1-0.3,0.2
				c-0.2,0.1-0.3,0.1-0.5,0.2c-0.4,0.1-0.8,0.1-1.1,0.2c-0.2,0-0.2,0.3,0,0.3c0.6,0.1,1.2,0.2,1.8,0.3c0.4,0.1,1,0.2,1.2,0.6
				c0,0.1,0.1,0.1,0.2,0.1c0.8-0.1,1.6-0.2,2.4-0.2c0.3,0,0.7,0,1,0.1s0.2,0.2,0.1,0.4c-0.1,0.2,0.1,0.4,0.2,0.2
				c0.2-0.2,0.4-0.5,0.2-0.7s-0.6-0.3-0.9-0.3c-1-0.1-2,0.1-3,0.2c0.1,0,0.1,0.1,0.2,0.1c-0.2-0.4-0.7-0.6-1.1-0.7
				c-0.7-0.2-1.4-0.2-2-0.3c0,0.1,0,0.2,0,0.3c0.6-0.1,1.3-0.1,1.9-0.4c0.2-0.1,0.5-0.2,0.5-0.5c0-0.2-0.2-0.3-0.4-0.3
				C40.3,128.3,40.3,128.7,40.5,128.7L40.5,128.7z"/>
		</g>
	</g>
	<g>
		<g>
			<path class="st15" d="M39.4,129.5c4.5-0.3,9-0.4,13.6-0.5c1.6,0,3.2-0.1,4.9-0.2c1.4-0.1,2.9-0.3,4.4,0c0.2,0,0.3-0.3,0.1-0.3
				c-2.8-0.5-6,0.2-8.9,0.2c-4.7,0.1-9.3,0.2-14,0.5C39.2,129.1,39.2,129.5,39.4,129.5L39.4,129.5z"/>
		</g>
	</g>
	<g>
		<g>
			<path class="st15" d="M62,128.7c0.9,0,1.8,0,2.7,0c0.2,0,0.4,0,0.6-0.1c0.1,0,0.3-0.1,0.4-0.1c0.1-0.1,0.1-0.2,0-0.3l-0.1-0.1
				c0,0-0.1,0-0.1-0.1c-0.1,0-0.2,0-0.4,0c-1,0.2-2.1,0.4-3.1,0.4C61.8,128.4,61.8,128.7,62,128.7c1.2,0,2.3-0.2,3.5-0.4h-0.1
				c0,0,0.1,0,0.1,0.1c0,0,0.1,0,0,0l0,0l0,0v-0.1l0,0c-0.2,0.1-0.4,0.1-0.7,0.1c-0.7,0.1-1.4,0.1-2,0c-0.3,0-0.5,0-0.8,0
				C61.8,128.3,61.8,128.7,62,128.7L62,128.7z"/>
		</g>
	</g>
	<g>
		<g>
			<path class="st15" d="M44.9,134c2.8-1.2,5.9-1.7,8.8-2.6c1.3-0.4,2.5-0.8,3.7-1.4c0.8-0.4,1.5-0.7,2.4-0.9
				c0.8-0.2,1.6-0.2,2.3-0.4c0.2-0.1,0.1-0.4-0.1-0.3c-1.4,0.4-2.8,0.5-4.2,1.1c-1.4,0.7-2.8,1.2-4.2,1.6c-2.9,0.9-6,1.4-8.8,2.6
				C44.6,133.8,44.7,134.1,44.9,134L44.9,134z"/>
		</g>
	</g>
	<g>
		<g>
			<path class="st15" d="M56.1,135.3c0.9-1.4,1.7-2.9,2.7-4.3c0.3-0.4,0.6-0.8,1-1.2c0.5-0.5,1.2-0.8,1.8-1c0.2-0.1,0.1-0.4-0.1-0.3
				c-0.6,0.2-1.2,0.5-1.8,0.9c-0.4,0.3-0.8,0.8-1.1,1.2c-1,1.4-1.9,3-2.8,4.5C55.7,135.3,56,135.4,56.1,135.3L56.1,135.3z"/>
		</g>
	</g>
	<g>
		<g>
			<path class="st15" d="M45.7,123.1c2.7,1.4,5.7,2.3,8.6,3.2c1.4,0.4,2.7,0.9,4,1.5c1.2,0.5,2.4,0.9,3.7,0.9c0.2,0,0.2-0.3,0-0.3
				c-1.5,0.1-2.9-0.5-4.2-1.1c-1.1-0.5-2.3-0.9-3.5-1.2c-2.9-0.9-5.8-1.8-8.6-3.2C45.7,122.7,45.5,123,45.7,123.1L45.7,123.1z"/>
		</g>
	</g>
	<g>
		<g>
			<path class="st15" d="M59.5,122.2c0.6,0.7,0.3,1.7,0.1,2.5c-0.1,0.6,0,1.1,0.1,1.7c0.1,0.5,0.2,1,0.5,1.4c0.4,0.5,1,0.8,1.6,1
				c0.2,0,0.3-0.3,0.1-0.3c-0.7-0.1-1.2-0.5-1.5-1.1c-0.2-0.4-0.3-0.9-0.3-1.4c0-0.3-0.1-0.5-0.1-0.8c0-0.4,0.1-0.8,0.2-1.2
				c0.1-0.7,0.1-1.4-0.4-2C59.6,121.8,59.3,122,59.5,122.2L59.5,122.2z"/>
		</g>
	</g>
</g>
<g>
	<g>
		<g>
			<path class="st15" d="M83.2,130.5c-0.7,0-1.4-0.1-2-0.2c-0.9-0.1-1.7-0.2-2.6-0.4c-0.1,0-0.3-0.1-0.4-0.1c-0.2-0.1-0.3,0-0.1,0
				c0.4,0.1,0.9,0,1.3,0.1c0.7,0.2,1.5,0.4,2.2,0.4c0.2,0,0.2-0.2,0.1-0.3c-0.3-0.1-0.1,0-0.2,0c0.1-0.1,0.3,0,0.4-0.1
				c0.3,0,0.6,0,0.8,0c0.5,0,1,0,1.4-0.1c0.1,0,0.2-0.2,0-0.3c-0.4-0.2-0.3-0.5,0.1-0.5c0.2,0,0.1-0.2,0-0.3v-0.1
				c0.1,0,0.2-0.3,0-0.3c-0.4-0.1-0.7-0.4-1.1-0.5c-0.3,0-0.6,0-0.9,0c-0.5,0-2.2,0.1-2.3-0.5c0-0.1-0.1-0.1-0.2-0.1
				c-0.8,0.1-1.6,0.1-2.3,0.1c-0.2,0-1.3-0.1-1.1-0.5c0.1-0.2,0.6-0.3,0.8-0.4c0.1-0.1,0-0.3-0.1-0.3c-0.6-0.1-0.8-0.4-1.1-0.9
				c0-0.1-0.1-0.1-0.2-0.1c-0.6,0.4-1.5,0.1-2.2,0.3c-0.4,0.1-2.1,0.8-2.3,0.2c0-0.2-0.3-0.1-0.3,0c-0.1,0.3-0.6,0.3-0.7,0.7
				c0,0.2,0.1,0.4,0.3,0.6c0.1,0.1,0.4,0.2,0.4,0.3c0,0.2-1.2-0.1-1.5-0.2c-0.5-0.1-0.9-0.3-1.4-0.5c-0.2-0.1-0.3,0.2-0.1,0.3
				c0.4,0.2,1.5,1.4,0.4,1.2c-0.2,0-0.3,0.2-0.1,0.3c0.3,0.1,0.9,0.3,1.2,0.5c0.2,0.2,0.2,0.1-0.1,0.3c-0.2,0.1-0.6,0.1-0.8,0.1
				c-0.1,0-0.2,0.1-0.1,0.2c0.2,0.2-0.3,0.3-0.4,0.5s0.1,0.4-0.3,0.5c-0.2,0-0.2,0.3,0,0.3c0.1,0,0.8,0.1,0.9,0.2
				c0.1,0.1,0,0-0.1,0.2c-0.2,0.5-0.7,0.7-1.2,0.6c-0.2,0-0.3,0.3-0.1,0.3c0.8,0.1,1.4-0.2,1.7-0.9c0.3-0.6-0.7-0.6-1.1-0.7
				c0,0.1,0,0.2,0,0.3c0.7-0.1,0.4-0.3,0.6-0.7s0.7-0.3,0.3-0.8c0,0.1-0.1,0.2-0.1,0.2c0.3,0,1.6,0.1,1.5-0.5
				c-0.1-0.5-1.3-0.8-1.7-1c0,0.1-0.1,0.2-0.1,0.3c1.7,0.3,0.7-1.3-0.1-1.8c0,0.1-0.1,0.2-0.1,0.3c0.6,0.2,1.2,0.4,1.9,0.6
				c0.3,0.1,1,0.3,1.3,0.1c0.2-0.1,0.3-0.3,0.1-0.5c-0.2-0.4-1-0.2-0.5-0.9c0.1-0.2,0.3-0.2,0.4-0.4c-0.1,0-0.2,0-0.3,0
				c0.3,1.1,2.2,0.2,2.8,0c0.4-0.1,0.8,0,1.2-0.1c0.2,0,0.7-0.2,0.9-0.2c-0.1,0,0,0.2,0.1,0.3c0.1,0.1,0.2,0.2,0.3,0.3
				c0.2,0.2,0.5,0.3,0.8,0.3c0-0.1-0.1-0.2-0.1-0.3c-0.4,0.3-1.5,0.7-0.7,1.2s2.3,0.4,3.2,0.3c0.4,0,0.2,0,0.5,0.3
				c0.3,0.2,0.8,0.3,1.2,0.3c0.6,0.1,1.1,0.1,1.7,0c0.5,0,0.9,0.3,1.5,0.4c0-0.1,0-0.2,0-0.3c-0.2,0.1-0.3,0.1-0.4,0.2
				c0,0,0,0.1,0,0.2c0.1,0.2,0.1,0.2,0.3,0.3c0-0.1,0-0.2,0-0.3c-1,0.1-1.1,0.7-0.2,1.1c0-0.1,0-0.2,0-0.3c-0.8,0.1-1.7-0.1-2.5,0.1
				c-0.5,0.1-0.5,0.4,0,0.6c0-0.1,0.1-0.2,0.1-0.3c-0.9-0.1-1.8-0.4-2.7-0.5c-0.4,0-1-0.2-1.3,0.1c0,0-0.1,0.1,0,0.2
				c0.2,0.5,1.5,0.6,2,0.6c1.2,0.2,2.4,0.5,3.6,0.4C83.4,130.9,83.4,130.5,83.2,130.5z"/>
		</g>
	</g>
	<g>
		<g>
			<path class="st15" d="M67.2,132.2c0.3,0.3,1.9,0.7,1.5,1.3c-0.1,0.1,0.1,0.3,0.2,0.2c0.6-0.2,1.2,0.4,1.5,0.9
				c0,0.1,0.1,0.1,0.2,0.1c0.7-0.4,1.9-0.5,2.7-0.2c0.1,0,0.3,0,0.2-0.2c-0.1-0.1-0.3-0.5-0.3-0.6c0.1-0.4,1.4,0.1,1.6,0.2
				c0.9,0.4,1.8,1.2,2.2,2.1c0.1,0.1,0.3,0.2,0.3,0c0.1-0.4,0.7-0.5,1-0.5c0.2,0,0.4,0,0.5,0.1c0.3,0.1,0.4,0.3,0.6,0.4
				c0.2,0.1,0.4,0,0.5,0c0.6,0,1.2,0.3,1.6,0.6c0.2,0.1,0.4-0.1,0.2-0.2c-0.5-0.5,0.6-0.4,0.6-0.4c0.2,0,0.2-0.2,0.1-0.3
				c-0.5-0.3-0.8-0.6,0-0.7c0.2,0,0.2-0.4,0-0.3c-0.3,0-1,0-1,0.4c-0.1,0.4,0.6,0.7,0.8,0.8c0-0.1,0.1-0.2,0.1-0.3
				c-0.7-0.1-1.6,0.2-0.8,0.9c0.1-0.1,0.2-0.2,0.2-0.2c-0.4-0.4-1-0.6-1.6-0.7c-0.4-0.1-0.5-0.1-0.8-0.2c-0.2-0.1-0.3-0.2-0.5-0.3
				c-0.6-0.2-1.7-0.1-1.9,0.6c0.1,0,0.2,0,0.3,0c-0.5-1.3-2-2.3-3.3-2.6c-0.3-0.1-0.9-0.2-1.1,0.2c-0.1,0.3,0.2,0.6,0.3,0.9
				c0.1-0.1,0.2-0.1,0.2-0.2c-0.8-0.4-2.2-0.3-3,0.2c0.1,0,0.2,0,0.2,0.1c-0.4-0.6-1.1-1.3-1.9-1.1c0.1,0.1,0.1,0.2,0.2,0.2
				c0.7-1-1.1-1.2-1.5-1.7C67.3,131.8,67,132,67.2,132.2L67.2,132.2z"/>
		</g>
	</g>
	<g>
		<g>
			<path class="st15" d="M82.5,134.6c-0.4,0-0.9-0.2-1.2-0.4c-0.2-0.1-0.7-0.5-0.2-0.6c0.2,0,0.2-0.3,0-0.3
				c-0.3-0.1-0.6-0.2-0.9-0.3c-0.1-0.1-0.3-0.1-0.4-0.2c0,0-0.1-0.1-0.2-0.1c0,0-0.1,0-0.1,0.1c0,0,0,0,0.1,0c0.2,0.1,0.4,0,0.6,0.1
				c0.2,0,0.4,0.1,0.6,0.2c0.3,0.1,0.7,0.2,0.9,0.4c0.1,0,0.2,0,0.2,0c0.1-0.1,0.4,0,0.5,0c0.3,0.1,0.6,0.1,0.9,0.2
				c0.5,0.1,1,0.3,1.5,0.2c0.1,0,0.2-0.2,0-0.3c-0.1,0-0.2-0.1-0.2-0.1v0.1c0,0,0,0,0.1,0c0.2,0,0.4-0.1,0.5-0.1
				c0.4,0,0.9,0,1.3,0.1c0.2,0.1,0.3-0.3,0.1-0.3c-0.6-0.2-1.3-0.2-1.9-0.1c-0.2,0-0.4,0.1-0.4,0.3s0.2,0.4,0.4,0.5
				c0-0.1,0-0.2,0-0.3c-0.6,0.1-1.3-0.2-1.8-0.3c-0.3-0.1-1-0.3-1.2,0c0.1,0,0.1,0,0.2,0c-0.4-0.3-0.9-0.4-1.4-0.6
				c-0.3-0.1-1-0.3-1.2,0c-0.4,0.5,1.4,1.1,1.7,1.1c0-0.1,0-0.2,0-0.3c-0.5,0.1-0.6,0.5-0.3,0.9c0.4,0.5,1.2,0.7,1.8,0.8
				C82.7,135,82.7,134.7,82.5,134.6L82.5,134.6z"/>
		</g>
	</g>
	<g>
		<g>
			<path class="st15" d="M86.5,133.1C86.4,133.1,86.4,133.1,86.5,133.1C86.5,133.2,86.5,133.2,86.5,133.1c0.1,0,0.2,0,0.2,0
				c0.1,0,0.3,0,0.4,0c0.3,0,0.6,0.1,0.9,0.1c0.2,0,0.3-0.2,0.1-0.3c-0.4-0.2-0.9-0.4-1.3-0.6c-0.3-0.1-0.7-0.3-0.8-0.7
				c0-0.1-0.1-0.1-0.2-0.1c-0.6-0.1-1.3-0.1-1.9-0.3c-0.2-0.1-0.5-0.1-0.7-0.2c-0.2-0.1-0.1-0.1,0-0.2c0.2-0.1,0-0.4-0.2-0.3
				c-0.2,0.1-0.4,0.3-0.3,0.6c0.1,0.2,0.4,0.3,0.6,0.4c0.8,0.3,1.6,0.3,2.4,0.4c-0.1,0-0.1-0.1-0.2-0.1c0.1,0.4,0.5,0.6,0.8,0.8
				c0.5,0.2,1,0.4,1.5,0.6c0-0.1,0.1-0.2,0.1-0.3c-0.5-0.1-1-0.2-1.5-0.1c-0.2,0-0.4,0.1-0.5,0.3s0.1,0.3,0.3,0.3
				C86.6,133.5,86.7,133.2,86.5,133.1L86.5,133.1z"/>
		</g>
	</g>
	<g>
		<g>
			<path class="st15" d="M87.5,132.8c-3.6-0.7-7.1-1.5-10.6-2.3c-1.2-0.3-2.4-0.5-3.7-0.7c-1.2-0.2-2.4-0.4-3.5-0.8
				c-0.2-0.1-0.4,0.2-0.2,0.3c2.1,0.9,4.6,1,6.9,1.5c3.7,0.8,7.3,1.6,11,2.3C87.7,133.1,87.7,132.8,87.5,132.8L87.5,132.8z"/>
		</g>
	</g>
	<g>
		<g>
			<path class="st15" d="M69.9,129c-0.7-0.2-1.4-0.4-2.1-0.5c-0.2,0-0.6-0.1-0.8,0c-0.1,0-0.2,0.2-0.1,0.3l0.1,0.1l0.1,0.1
				c0.1,0.1,0.2,0,0.3,0c0.8,0.1,1.7,0.1,2.5,0.3C70,129.3,70.1,129,69.9,129c-0.7-0.1-1.3-0.2-2-0.3c-0.2,0-0.3,0-0.5,0h-0.1h-0.1
				l0,0l0,0l0,0l0,0c0,0.1,0,0,0,0.1c0,0,0,0.1-0.1,0.1l0,0l0,0c0,0,0,0,0.1,0s0.1,0,0.2,0s0.3,0,0.5,0.1c0.4,0.1,0.7,0.2,1.1,0.2
				c0.3,0.1,0.6,0.2,0.9,0.2C70,129.3,70.1,129,69.9,129L69.9,129z"/>
		</g>
	</g>
	<g>
		<g>
			<path class="st15" d="M84.1,128.3c-2.5,0.3-5,0.1-7.4,0.2c-1.1,0-2.1,0.1-3.1,0.3c-0.6,0.1-1.3,0.2-1.9,0.2s-1.2-0.1-1.8-0.1
				c-0.2,0-0.2,0.3,0,0.3c1.2,0,2.3,0.2,3.4,0c1.2-0.2,2.4-0.4,3.6-0.4c2.4-0.1,4.9,0.1,7.3-0.2C84.4,128.6,84.3,128.3,84.1,128.3
				L84.1,128.3z"/>
		</g>
	</g>
	<g>
		<g>
			<path class="st15" d="M75.6,125.3c-0.9,0.9-1.9,1.8-2.8,2.6c-0.8,0.6-1.6,1-2.6,1.1c-0.2,0-0.2,0.3,0,0.3c1-0.1,1.8-0.4,2.6-1
				c1.1-0.8,2-1.8,3-2.7C76,125.4,75.8,125.1,75.6,125.3L75.6,125.3z"/>
		</g>
	</g>
	<g>
		<g>
			<path class="st15" d="M81.5,136.2c-1.9-1.6-4-2.8-6.1-4c-0.9-0.5-1.8-1.1-2.7-1.7c-0.9-0.6-1.8-1.2-2.8-1.5
				c-0.2,0-0.3,0.3-0.1,0.3c1.1,0.2,2,0.8,2.8,1.5c0.8,0.6,1.7,1.2,2.6,1.7c2.1,1.2,4.2,2.4,6,4C81.4,136.6,81.6,136.4,81.5,136.2
				L81.5,136.2z"/>
		</g>
	</g>
	<g>
		<g>
			<path class="st15" d="M70.6,134.3c-0.3-0.6,0.1-1.2,0.3-1.8c0.2-0.4,0.2-0.8,0.3-1.2c0-0.4,0-0.8-0.1-1.2
				c-0.2-0.5-0.6-0.8-1.1-1.1c-0.2-0.1-0.4,0.2-0.2,0.3c0.5,0.2,0.9,0.6,1,1.1c0.1,0.4,0,0.7,0,1.1c0,0.2,0,0.4-0.1,0.6
				c-0.1,0.3-0.2,0.6-0.4,0.8c-0.2,0.5-0.3,1-0.1,1.5C70.5,134.6,70.7,134.5,70.6,134.3L70.6,134.3z"/>
		</g>
	</g>
</g>
<g>
	<g>
		<g>
			<path class="st15" d="M95.6,120.7c-0.4,0-0.8-0.1-1.2-0.1c-0.5-0.1-1-0.1-1.5-0.2c-0.1,0-0.2-0.1-0.2-0.1h-0.1
				c0,0.1,0,0.1,0.1,0.2c0,0,0.2,0,0.3,0c0.1,0,0.3,0,0.4,0.1c0.4,0.1,0.9,0.2,1.3,0.2c0.2,0,0.2-0.2,0.1-0.3h-0.1
				c-0.1,0-0.1,0,0,0.2h0.2c0.2,0,0.3,0,0.5,0c0.3,0,0.6,0,0.8,0c0.1,0,0.2-0.2,0-0.3c-0.2-0.1-0.2-0.2,0.1-0.2c0.2,0,0.1-0.2,0-0.3
				l0,0c0.1,0,0.2-0.3,0-0.3c-0.2-0.1-0.4-0.2-0.7-0.3c-0.2,0-0.4,0-0.5,0c-0.2,0-1.2,0.1-1.3-0.2c0-0.1-0.1-0.1-0.2-0.1
				c-0.4,0-0.9,0.1-1.3,0c-0.1,0-0.6,0-0.6-0.2c0-0.1,0.4-0.2,0.5-0.3c0.1-0.1,0-0.3-0.1-0.3c-0.3,0-0.4-0.2-0.6-0.5
				c0-0.1-0.1-0.1-0.2-0.1c-0.3,0.2-0.9,0.1-1.3,0.2c-0.2,0.1-1.2,0.4-1.2,0.1c0-0.2-0.3-0.1-0.3,0s-0.3,0.2-0.3,0.3
				c-0.1,0.1-0.1,0.1,0,0.3c0,0.1,0.3,0.5,0.5,0.5v-0.1h-0.1c-0.1,0-0.2,0-0.2,0c-0.2,0-0.3-0.1-0.5-0.1c-0.3-0.1-0.6-0.2-0.9-0.3
				c-0.2-0.1-0.3,0.2-0.1,0.3c0.2,0.1,0.8,0.7,0.3,0.6c-0.2,0-0.3,0.2-0.1,0.3c0.2,0.1,0.5,0.2,0.7,0.3c0.1,0.1,0.1,0,0,0
				c-0.2,0-0.3,0-0.5,0c-0.1,0-0.2,0.1-0.1,0.2c0,0.1-0.2,0.1-0.2,0.2c-0.1,0.1,0.1,0.2-0.1,0.3c-0.2,0-0.2,0.3,0,0.3
				s0.3,0.1,0.5,0.1c-0.1,0,0.1-0.1-0.1,0c-0.2,0.2-0.2,0.4-0.6,0.4c-0.2,0-0.3,0.3-0.1,0.3c0.5,0.1,0.8-0.1,1-0.6
				c0.2-0.4-0.4-0.5-0.7-0.5c0,0.1,0,0.2,0,0.3c0.1,0,0.3,0,0.3-0.2c0-0.1,0-0.2,0-0.3c0.1-0.1,0.2-0.1,0.3-0.2
				c0.1-0.1,0-0.2-0.1-0.3c0,0.1-0.1,0.2-0.1,0.2c0.2,0,1,0,0.9-0.4c0-0.3-0.8-0.5-1-0.6c0,0.1-0.1,0.2-0.1,0.3
				c1.1,0.2,0.6-0.9,0-1.2c0,0.1-0.1,0.2-0.1,0.3c0.4,0.1,0.7,0.3,1.1,0.3c0.2,0.1,0.6,0.2,0.8,0c0.2-0.1,0.2-0.2,0.1-0.4
				c-0.1-0.2-0.5-0.1-0.3-0.4c0.1-0.1,0.2-0.1,0.3-0.3c-0.1,0-0.2,0-0.3,0c0.1,0.5,0.9,0.3,1.3,0.2c0.3-0.1,0.5-0.2,0.8-0.2
				s0.7,0,0.9-0.1c-0.1,0-0.2,0-0.2-0.1c0.2,0.4,0.4,0.6,0.8,0.6c0-0.1-0.1-0.2-0.1-0.3c-0.2,0.1-0.5,0.2-0.6,0.4
				c-0.1,0.2,0.1,0.4,0.3,0.4c0.6,0.3,1.4,0.2,2,0.1c-0.1,0-0.1-0.1-0.2-0.1c0.1,0.4,0.7,0.5,1.1,0.5c0.3,0,0.6,0,0.8,0
				c0.3,0,0.5,0.2,0.8,0.3c0-0.1,0-0.2,0-0.3c-0.1,0-0.2,0.1-0.3,0.2c0,0,0,0.1,0,0.2c0.1,0.1,0.1,0.1,0.2,0.2c0-0.1,0-0.2,0-0.3
				c-0.6,0.1-0.7,0.5-0.1,0.8c0-0.1,0-0.2,0-0.3c-0.5,0.1-1,0-1.5,0.1c-0.3,0.1-0.3,0.3,0,0.5c0-0.1,0.1-0.2,0.1-0.3
				c-0.5,0-1-0.2-1.5-0.3c-0.2,0-0.6-0.1-0.8,0.1c0,0-0.1,0.1,0,0.2c0.1,0.3,0.9,0.4,1.2,0.4c0.7,0.1,1.4,0.3,2.1,0.2
				C95.8,121,95.8,120.7,95.6,120.7L95.6,120.7z"/>
		</g>
	</g>
	<g>
		<g>
			<path class="st15" d="M86.3,121.8c0.1,0.1,1,0.4,0.8,0.6c-0.1,0.1,0.1,0.3,0.2,0.2c0.3-0.1,0.6,0.2,0.8,0.5
				c0,0.1,0.1,0.1,0.2,0.1c0.4-0.2,1.1-0.3,1.5-0.1c0.1,0,0.3,0,0.2-0.2c0-0.1-0.2-0.3-0.2-0.3s0.1,0,0.2,0c0.2,0,0.5,0.1,0.7,0.2
				c0.5,0.2,1,0.7,1.2,1.2c0.1,0.1,0.3,0.2,0.3,0s0.4-0.2,0.5-0.2c0.3,0,0.4,0.1,0.6,0.3c0.1,0.1,0.2,0,0.4,0c0.3,0,0.6,0.1,0.9,0.3
				c0.2,0.1,0.4-0.1,0.2-0.2c-0.1-0.2,0.3-0.1,0.3-0.1c0.2,0,0.2-0.2,0.1-0.3c-0.3-0.2-0.5-0.2,0-0.2c0.2,0,0.2-0.4,0-0.3
				c-0.2,0-0.6,0-0.7,0.3c0,0.3,0.3,0.4,0.5,0.6c0-0.1,0.1-0.2,0.1-0.3c-0.4,0-1,0.2-0.5,0.7c0.1-0.1,0.2-0.2,0.2-0.2
				c-0.3-0.2-0.6-0.4-0.9-0.4c-0.2,0-0.3,0-0.4-0.1s-0.2-0.1-0.3-0.2c-0.4-0.1-1.1,0-1.2,0.4c0.1,0,0.2,0,0.3,0
				c-0.3-0.8-1.2-1.4-2-1.5c-0.2,0-0.6-0.1-0.7,0.1s0.1,0.4,0.2,0.6c0.1-0.1,0.2-0.1,0.2-0.2c-0.5-0.2-1.3-0.2-1.8,0.1
				c0.1,0,0.2,0,0.2,0.1c-0.3-0.4-0.7-0.8-1.2-0.6c0.1,0.1,0.1,0.2,0.2,0.2c0.4-0.6-0.6-0.8-0.9-1C86.4,121.4,86.1,121.6,86.3,121.8
				L86.3,121.8z"/>
		</g>
	</g>
	<g>
		<g>
			<path class="st15" d="M95.2,123.1c-0.2,0-0.5-0.1-0.7-0.2c-0.1,0-0.1-0.1-0.2-0.2c0,0,0-0.1,0,0h0.1c0.2,0,0.2-0.3,0-0.3
				s-0.4-0.1-0.5-0.2c-0.1,0-0.2-0.1-0.2-0.1l-0.1-0.1c-0.1,0-0.1,0.2,0,0.2s0.2,0,0.3,0c0.1,0,0.2,0.1,0.3,0.1
				c0.2,0.1,0.4,0.1,0.5,0.2c0.1,0,0.2,0,0.2,0c0.1-0.1,0.6,0.1,0.7,0.1c0.3,0.1,0.6,0.2,0.9,0.1c0.1,0,0.2-0.2,0-0.3l-0.1-0.1v0.1
				l0,0c0.1,0,0.2,0,0.3,0c0.2,0,0.5,0,0.7,0.1s0.3-0.3,0.1-0.3c-0.3-0.1-0.8-0.1-1.1-0.1c-0.1,0-0.2,0.1-0.3,0.2
				c0,0.2,0.1,0.3,0.3,0.3c0-0.1,0-0.2,0-0.3c-0.3,0-0.7-0.1-1-0.2c-0.2-0.1-0.6-0.2-0.8,0c0.1,0,0.1,0,0.2,0
				c-0.2-0.2-0.5-0.3-0.8-0.3c-0.2-0.1-0.6-0.2-0.8,0c-0.3,0.4,0.8,0.7,1,0.8c0-0.1,0-0.2,0-0.3c-0.3,0.1-0.4,0.4-0.2,0.6
				c0.3,0.3,0.7,0.4,1.1,0.5C95.4,123.4,95.4,123.1,95.2,123.1L95.2,123.1z"/>
		</g>
	</g>
	<g>
		<g>
			<path class="st15" d="M97.5,122.2c-0.1,0-0.1,0,0,0.2l0,0h0.1c0.1,0,0.2,0,0.2,0c0.2,0,0.3,0,0.5,0.1c0.1,0,0.2,0,0.2-0.1
				s0-0.2-0.1-0.2c-0.3-0.1-0.5-0.2-0.8-0.3c-0.1-0.1-0.4-0.2-0.4-0.3c0-0.1-0.1-0.1-0.2-0.1c-0.4,0-0.7-0.1-1.1-0.2
				c-0.1,0-0.3-0.1-0.4-0.1l0,0l0,0l0,0l0,0c0,0,0,0,0.1,0c0.2-0.1,0-0.4-0.2-0.3c-0.1,0.1-0.3,0.2-0.2,0.4c0.1,0.1,0.3,0.2,0.4,0.3
				c0.4,0.1,0.9,0.2,1.4,0.2c-0.1,0-0.1-0.1-0.2-0.1c0,0.2,0.3,0.4,0.5,0.5c0.3,0.1,0.6,0.2,0.9,0.4c0-0.1,0.1-0.2,0.1-0.3
				C98,122.3,97.7,122.2,97.5,122.2c-0.2,0-0.4,0.1-0.4,0.2c-0.1,0.2,0.1,0.3,0.2,0.3C97.7,122.6,97.7,122.3,97.5,122.2L97.5,122.2z
				"/>
		</g>
	</g>
	<g>
		<g>
			<path class="st15" d="M98.1,122c-2.1-0.4-4.1-0.9-6.1-1.3c-0.7-0.2-1.4-0.3-2.1-0.4s-1.4-0.2-2-0.5c-0.2-0.1-0.4,0.2-0.2,0.3
				c1.2,0.5,2.7,0.6,4,0.9c2.1,0.5,4.2,0.9,6.3,1.4C98.2,122.4,98.3,122,98.1,122L98.1,122z"/>
		</g>
	</g>
	<g>
		<g>
			<path class="st15" d="M87.9,119.8c-0.4-0.1-0.8-0.2-1.2-0.3c-0.2,0-0.4-0.1-0.5,0c-0.1,0-0.2,0.2-0.1,0.3c0,0,0,0.1,0.1,0.1
				c0,0,0,0,0.1,0.1c0.1,0,0.1,0,0.2,0c0.5,0,1,0.1,1.4,0.2C88,120.2,88.1,119.9,87.9,119.8c-0.5-0.1-1.1-0.2-1.6-0.2h0.1l0,0l0,0
				l0,0l0,0c0,0.1,0,0.1-0.1,0.2l0,0l0,0c0,0,0,0,0.1,0h0.1l0,0c0,0,0.1,0,0,0h0.1c0.3,0.1,0.6,0.1,0.9,0.2c0.1,0,0.2,0.1,0.4,0.1
				C88,120.2,88.1,119.9,87.9,119.8L87.9,119.8z"/>
		</g>
	</g>
	<g>
		<g>
			<path class="st15" d="M96.1,119.4c-1.4,0.2-2.9,0.1-4.3,0.1c-0.6,0-1.2,0.1-1.8,0.2c-0.4,0.1-0.7,0.1-1.1,0.1
				c-0.3,0-0.7-0.1-1-0.1c-0.2,0-0.2,0.3,0,0.3c0.7,0,1.3,0.1,2,0s1.4-0.2,2.1-0.2c1.4,0,2.8,0.1,4.2-0.1
				C96.4,119.7,96.3,119.4,96.1,119.4L96.1,119.4z"/>
		</g>
	</g>
	<g>
		<g>
			<path class="st15" d="M91.2,117.7c-0.5,0.5-1.1,1-1.6,1.5c-0.4,0.4-0.9,0.6-1.4,0.6c-0.2,0-0.2,0.3,0,0.3c0.3,0,0.6-0.1,0.9-0.2
				c0.2-0.1,0.4-0.2,0.6-0.4c0.6-0.5,1.2-1.1,1.7-1.6C91.6,117.8,91.3,117.5,91.2,117.7L91.2,117.7z"/>
		</g>
	</g>
	<g>
		<g>
			<path class="st15" d="M94.6,124c-1.1-0.9-2.3-1.6-3.5-2.4c-0.5-0.3-1-0.6-1.5-1s-1-0.7-1.7-0.9c-0.2,0-0.3,0.3-0.1,0.3
				c0.6,0.1,1.1,0.5,1.6,0.8c0.5,0.4,1,0.7,1.5,1c1.2,0.7,2.4,1.4,3.5,2.3C94.6,124.4,94.8,124.2,94.6,124L94.6,124z"/>
		</g>
	</g>
	<g>
		<g>
			<path class="st15" d="M88.4,122.9c-0.2-0.3,0.1-0.7,0.2-1c0.1-0.2,0.1-0.5,0.2-0.7c0-0.2,0-0.5-0.1-0.7c-0.1-0.3-0.4-0.5-0.7-0.7
				c-0.2-0.1-0.4,0.2-0.2,0.3c0.3,0.1,0.5,0.3,0.5,0.6c0,0.2,0,0.4,0,0.6c0,0.1,0,0.2-0.1,0.3c-0.1,0.2-0.1,0.3-0.2,0.5
				c-0.1,0.3-0.2,0.6,0,0.9C88.2,123.3,88.5,123.1,88.4,122.9L88.4,122.9z"/>
		</g>
	</g>
</g>
<g>
	<g>
		<path class="st15" d="M81.1,134.3c0.2-0.1,0.3-0.1,0.5-0.2c0.2-0.1,0.2-0.3,0-0.3s-0.4,0-0.5,0.1C81.1,134,81.1,134.1,81.1,134.3
			c2.4-0.6,4.8-0.3,7.2-0.9c0.2-0.1,0.1-0.4-0.1-0.3c-2.3,0.6-4.8,0.3-7.2,0.8C80.8,133.9,80.9,134.2,81.1,134.3
			c0.1-0.1,0.3-0.1,0.4-0.2c0-0.1,0-0.2,0-0.3c-0.2,0.1-0.3,0.1-0.5,0.2C80.8,134,80.9,134.4,81.1,134.3L81.1,134.3z"/>
	</g>
</g>
<g>
	<g>
		<path class="st15" d="M82,134.5c1.2,0.1,2.3-0.3,3.4-0.5c1-0.1,2.1-0.2,3-0.6c0.2-0.1,0-0.4-0.2-0.3c-1,0.4-2,0.4-3,0.6
			c-1.1,0.1-2.1,0.5-3.2,0.4C81.8,134.1,81.8,134.4,82,134.5L82,134.5z"/>
	</g>
</g>
<g>
	<g>
		<path class="st15" d="M82.3,134.3c0.6,0.1,1.1,0,1.7-0.1s1.1-0.2,1.6-0.4c0.2-0.1,0.1-0.4-0.1-0.3c-0.5,0.2-1.1,0.3-1.6,0.4
			c-0.5,0.1-1.1,0.1-1.6,0.1C82.1,133.9,82.1,134.3,82.3,134.3L82.3,134.3z"/>
	</g>
</g>
<g>
	<g>
		<path class="st15" d="M82.8,134.2c0.6,0,1.2-0.1,1.8-0.3c0.2-0.1,0.1-0.3,0-0.3c-0.7,0.1-1.3,0.1-2,0.3c-0.2,0-0.1,0.3,0,0.3
			c1-0.1,2-0.2,3-0.5c0.2-0.1,0.1-0.4-0.1-0.3c-1,0.3-1.9,0.4-2.9,0.5c0,0.1,0,0.2,0,0.3c0.6-0.2,1.3-0.2,1.9-0.3c0-0.1,0-0.2,0-0.3
			c-0.5,0.2-1.1,0.3-1.7,0.3C82.6,133.9,82.6,134.2,82.8,134.2L82.8,134.2z"/>
	</g>
</g>
<g>
	<g>
		<path class="st15" d="M70.5,134.8c0.8,0.2,1.5-0.1,2.2-0.1c0-0.1,0-0.2,0-0.3c-0.7,0-1.4,0.3-2.1,0c0,0.1,0,0.2,0,0.3
			c0.7,0,1.3-0.1,2-0.1c0.2,0,0.2-0.3,0-0.3c-0.7,0-1.3,0.1-2,0.1c-0.2,0-0.2,0.3,0,0.3c0.7,0.3,1.5,0,2.2,0c0.2,0,0.2-0.3,0-0.3
			c-0.4,0-0.7,0-1.1,0.1c-0.3,0.1-0.7,0.1-1.1,0C70.4,134.5,70.3,134.8,70.5,134.8L70.5,134.8z"/>
	</g>
</g>
<g>
	<g>
		<path class="st15" d="M84,129.9c0.3,0.1,0.5,0.2,0.8,0.1c0.1,0,0.1-0.1,0.1-0.2c0-0.1-0.1-0.1-0.2-0.1l0,0l0,0l0,0h-0.1h-0.1l0,0
			l0,0l0,0c-0.1,0-0.1,0-0.2,0h-0.1l0,0l0,0l0,0C84.1,129.7,84,129.7,84,129.9C83.9,129.8,84,129.9,84,129.9L84,129.9z"/>
	</g>
</g>
<g>
	<g>
		<path class="st15" d="M84.6,133.8c0.4-0.1,0.8-0.2,1.2-0.2c0.2,0,0.2-0.3,0-0.3c-0.3,0-0.7,0-1,0c0,0.1,0,0.2,0,0.3
			c0.5,0,1,0.1,1.4,0c0.5,0,1-0.1,1.3-0.4c0.1-0.1,0.1-0.3-0.1-0.3s-0.3,0.1-0.5,0.2c-0.2,0.1-0.1,0.4,0.1,0.3
			c0.1,0,0.3-0.1,0.4-0.2c0-0.1-0.1-0.2-0.1-0.3c-0.4,0.3-0.8,0.3-1.3,0.4c-0.4,0-0.9,0-1.3,0c-0.2,0-0.2,0.3,0,0.3
			c0.4,0.1,0.7,0.1,1.1,0.1c0-0.1,0-0.2,0-0.3c-0.4,0-0.8,0.1-1.2,0.2c-0.1,0-0.2,0.1-0.2,0.2C84.4,133.7,84.5,133.8,84.6,133.8
			L84.6,133.8z"/>
	</g>
</g>
<g>
	<g>
		<path class="st14" d="M82.5,129.1c0.5,0.1,0.9,0,1.4-0.2c0.2-0.1,0.1-0.4-0.1-0.3c-0.4,0.1-0.9,0.2-1.3,0.2
			c-0.1,0-0.2,0.1-0.2,0.2C82.3,129.1,82.4,129.1,82.5,129.1L82.5,129.1z"/>
	</g>
</g>
<g>
	<g>
		<path class="st14" d="M82.4,128.5c0.3,0,0.7,0,1,0c0.1,0,0.2-0.1,0.2-0.2c0-0.1-0.1-0.2-0.2-0.2c-0.3,0-0.7,0-1,0
			c-0.1,0-0.2,0.1-0.2,0.2C82.2,128.5,82.3,128.5,82.4,128.5L82.4,128.5z"/>
	</g>
</g>
<g>
	<g>
		<path class="st14" d="M85.4,133.1c0.7,0.2,1.5,0.3,2.2,0.2c0.2,0,0.2-0.3,0-0.3c-0.7,0.1-1.4,0-2.1-0.2
			C85.2,132.7,85.2,133,85.4,133.1L85.4,133.1z"/>
	</g>
</g>
<g>
	<g>
		<path class="st18" d="M87.1,116.1c0.8-0.1,1.6,0,2.4,0.2s1.7,0.5,2.4,0.8c0.2,0.1,0.3-0.2,0.1-0.3c-0.8-0.3-1.7-0.6-2.5-0.8
			c-0.8-0.2-1.6-0.3-2.4-0.2C86.9,115.8,86.9,116.1,87.1,116.1L87.1,116.1z"/>
	</g>
</g>
<g>
	<g>
		<path class="st18" d="M95,122.6L95,122.6L95,122.6c-0.1,0-0.3-0.1-0.4,0c-0.1,0-0.2,0.1-0.2,0.2s0,0.1,0.1,0.2
			c0.1-0.1,0.2-0.1,0.3-0.2l-0.1-0.1c0,0,0,0-0.1,0l0,0l0,0l0,0v0.1l0,0l0,0l0,0l0,0l0,0l0,0l0,0l0,0l0,0c0,0,0,0,0.1,0
			S94.8,122.8,95,122.6C95,122.6,95,122.5,95,122.6c-0.2-0.2-0.3-0.2-0.3-0.1l0,0l0,0l0,0l0,0h-0.1c-0.1,0-0.1,0.1-0.2,0.2
			c0,0.1,0,0.2,0,0.2l0.1,0.1c0,0,0,0,0.1,0l0,0l0,0c0.1,0.1,0.2,0.1,0.2,0c0.1,0,0.1-0.1,0-0.2c0,0,0,0,0-0.1l0,0l0,0l0,0l0,0l0,0
			l0,0l0,0l0,0l0,0l0,0l0,0l0,0l0,0l0,0c0.1,0,0.2,0.1,0.3,0.1c0.1,0,0.2-0.1,0.2-0.2C95.2,122.7,95.1,122.6,95,122.6L95,122.6z"/>
	</g>
</g>
<g>
	<g>
		<path class="st15" d="M53.8,113.7L53.8,113.7C53.8,113.7,53.8,113.8,53.8,113.7C53.8,113.8,53.8,113.7,53.8,113.7
			C53.9,113.7,53.9,113.7,53.8,113.7C53.9,113.8,53.9,113.8,53.8,113.7C53.9,113.7,53.9,113.7,53.8,113.7
			C53.9,113.8,53.9,113.8,53.8,113.7C53.9,113.7,53.9,113.8,53.8,113.7C53.9,113.8,53.9,113.8,53.8,113.7L53.8,113.7L53.8,113.7
			L53.8,113.7L53.8,113.7c-0.1,0-0.3,0.1-0.5,0.1c0,0.1,0.1,0.2,0.1,0.2c0,0.1,0.1,0.1,0.1,0.2c0.1,0.1,0.1,0.1,0.2,0.2
			c0,0,0,0-0.1-0.1c0,0,0,0,0,0.1s0.1,0.1,0.2,0.2c0.1,0,0.2,0,0.3,0s0.1-0.1,0.2-0.2c0-0.1,0-0.2,0-0.3c0-0.1-0.1-0.1-0.1-0.2
			s-0.1-0.1-0.1-0.2c0,0,0,0,0.1,0.1c-0.1-0.1-0.1-0.2-0.1-0.2v0.1l0,0c0,0,0-0.1-0.1-0.1l-0.1-0.1h-0.1h-0.1h-0.1
			c0,0-0.1,0-0.1,0.1c-0.1,0.1-0.1,0.1-0.1,0.2s0,0.2,0,0.3c0,0.1,0.1,0.2,0.1,0.3c0.1,0.1,0.2,0.2,0.4,0.2c0.1,0,0.2,0,0.2-0.1
			c0.1-0.1,0.1-0.2,0.1-0.2c0-0.1,0-0.2-0.1-0.2C53.9,113.8,53.9,113.7,53.8,113.7L53.8,113.7z"/>
	</g>
</g>
<g>
	<g>
		<path class="st15" d="M54.2,114.3c0.8-1,2.4-0.1,3.4,0.1c0.2,0.1,0.3-0.3,0.1-0.3c-1.1-0.3-2.8-1.2-3.7-0.1
			C53.8,114.2,54.1,114.5,54.2,114.3L54.2,114.3z"/>
	</g>
</g>
<g>
	<g>
		<path class="st15" d="M59.1,117.9c0.3-0.1,0.5-0.1,0.7-0.2c0.1,0,0.1-0.2,0.1-0.2c-0.1-0.1-0.1-0.1-0.2-0.1l0,0c0,0-0.1,0,0,0
			h-0.1c-0.1,0-0.1,0-0.2,0.1c-0.1,0-0.2,0.1-0.3,0.1S59,117.7,59.1,117.9C59,117.9,59.1,117.9,59.1,117.9L59.1,117.9z"/>
	</g>
</g>
<g>
	<g>
		<path class="st15" d="M74.1,107.5c-0.4,0.2-0.7,0.5-0.9,0.9c-0.2,0.4-0.3,0.9,0.1,1.2c0.2,0.1,0.4-0.1,0.2-0.2
			c-0.1-0.1-0.1-0.2-0.1-0.4c0-0.2,0.1-0.3,0.1-0.5c0.1-0.2,0.2-0.3,0.3-0.5c0.1-0.1,0.1-0.1,0.2-0.2c0,0,0.1,0,0.1-0.1h0.1
			c0.1,0,0.1-0.1,0.1-0.2C74.2,107.5,74.2,107.4,74.1,107.5L74.1,107.5z"/>
	</g>
</g>
<g>
	<g>
		<path class="st15" d="M52.9,113c0.1,0.3,0.2,0.6,0.4,0.9c0.1,0.3,0.3,0.6,0.6,0.6c0.2,0.1,0.3-0.3,0.1-0.3l0,0l0,0h-0.1l0,0l0,0
			c0,0,0,0-0.1-0.1s-0.2-0.2-0.2-0.3c-0.1-0.3-0.2-0.5-0.3-0.8c0-0.1-0.1-0.1-0.2-0.1C52.9,112.9,52.8,113,52.9,113L52.9,113z"/>
	</g>
</g>
<g>
	<g>
		<path class="st15" d="M53,113.2c0,0.3,0.1,0.6,0.2,0.9c0.1,0.3,0.3,0.6,0.7,0.5c0.1,0,0.2-0.1,0.2-0.2s-0.1-0.2-0.2-0.2l0,0l0,0
			l0,0l0,0c0,0-0.1,0,0,0c0,0,0,0-0.1,0l0,0l0,0l0,0l0,0c0,0,0-0.1-0.1-0.1V114c0,0,0,0,0-0.1l0,0l0,0c0,0,0,0,0-0.1v-0.1
			c0-0.1,0-0.1-0.1-0.2c0-0.1,0-0.1,0-0.2v-0.1l0,0l0,0c0-0.1-0.1-0.2-0.2-0.2C53.1,113,53,113.1,53,113.2L53,113.2z"/>
	</g>
</g>
<g>
	<g>
		<path class="st5" d="M80.9,73.7c-0.1,0.3-0.1,0.7,0,1s0.3,0.6,0.6,0.7c0.5,0.2,1,0.2,1.5,0.1c0.2-0.1,0.5-0.2,0.7-0.3
			c0.1-0.1,0.3-0.2,0.3-0.4c0-0.2,0-0.4-0.1-0.5S83.7,74,83.5,74c-0.2,0-0.3,0-0.5,0.1h-0.1c0.1,0,0.1,0,0.2-0.1
			c-0.3,0.1-0.5,0.2-0.8,0.2c0.1,0,0.1,0,0.2,0c-0.1,0-0.3,0-0.4,0c0.1,0,0.1,0,0.2,0c-0.1,0-0.1,0-0.2-0.1c0.1,0,0.1,0,0.2,0.1
			c0,0-0.1,0-0.1-0.1l0.1,0.1l-0.1-0.1l0.1,0.1c0,0,0-0.1-0.1-0.1c0,0.1,0,0.1,0.1,0.2c0-0.1,0-0.1,0-0.2c0,0.1,0,0.1,0,0.2
			c0-0.1,0-0.2,0-0.3c0,0.1,0,0.1,0,0.2c0-0.1,0-0.1,0-0.2c0-0.2,0-0.4-0.1-0.5s-0.2-0.3-0.4-0.3C81.4,73.1,81,73.3,80.9,73.7
			L80.9,73.7z"/>
	</g>
</g>
<g>
	<g>
		<path class="st5" d="M79.8,73.3c0,0.1,0,0.2,0,0.2v0.1c0,0.1,0,0.2,0,0.2c0.1,0.2,0.2,0.4,0.3,0.5l0,0c0,0,0.1,0.1,0.2,0.1
			s0.1,0,0.2,0s0.2,0,0.2,0c0.1,0,0.2-0.1,0.2-0.1c0.1,0,0.1-0.1,0.2-0.2c0-0.1,0.1-0.2,0.1-0.2c0-0.1,0-0.2,0-0.3
			c0-0.1,0-0.1-0.1-0.2s-0.1-0.2-0.2-0.2s-0.1,0-0.2-0.1c-0.1,0-0.2,0-0.3,0l0,0c0.1,0,0.1,0,0.2,0l0,0c0.1,0,0.1,0,0.2,0l0,0
			c0.1,0,0.1,0,0.2,0.1l0,0l0.1,0.1l0,0l0.1,0.1l0,0c0,0.1,0,0.1,0.1,0.2v-0.1c0,0.1,0,0.1,0,0.2c0-0.1,0-0.2,0-0.3
			c0-0.1,0-0.2-0.1-0.3c0-0.1-0.1-0.2-0.1-0.2c-0.1-0.1-0.1-0.1-0.2-0.1s-0.2-0.1-0.3-0.1c-0.1,0-0.1,0-0.2,0s-0.2,0.1-0.3,0.2
			L80,73C79.8,73.1,79.8,73.2,79.8,73.3L79.8,73.3z"/>
	</g>
</g>
<g>
	<g>
		<path class="st5" d="M78.1,74.1c0.1,0.3,0.3,0.5,0.5,0.7l0.1,0.1c0.1,0,0.2,0.1,0.2,0.1c0.1,0,0.1,0,0.2,0s0.2,0,0.2-0.1
			c0.4-0.3,0.8-0.7,0.8-1.3c0-0.1,0-0.1,0-0.2S80,73.2,80,73.2l-0.1-0.1C79.8,73,79.8,73,79.7,73s-0.2,0-0.3,0
			c-0.2,0-0.3,0.2-0.4,0.3c-0.1,0.2-0.2,0.3-0.3,0.5l0.1-0.1c-0.1,0.1-0.1,0.1-0.2,0.2l0.1-0.1c0,0-0.1,0-0.1,0.1
			c0.1,0,0.1,0,0.2-0.1c0,0,0,0-0.1,0c0.1,0,0.1,0,0.2,0l0,0c0.1,0,0.1,0,0.2,0l0,0c0.1,0,0.1,0,0.2,0.1l0,0l0.1,0.1
			c0,0,0,0-0.1-0.1l0.1,0.1l0,0c0-0.1-0.1-0.1-0.2-0.2s-0.1-0.1-0.2-0.1s-0.2,0-0.3,0c-0.1,0-0.2,0-0.2,0.1
			C78.2,73.7,78.1,73.9,78.1,74.1c-0.1,0-0.1,0.1-0.1,0.2s0,0.2,0.1,0.3c0.1,0.1,0.2,0.2,0.3,0.3c0.1,0,0.1,0.1,0.2,0.1h0.1h0.1
			c0.1,0,0.1,0,0.2,0l0,0c0.1,0,0.1-0.1,0.2-0.1l0,0c0.1-0.1,0.2-0.2,0.3-0.3c0.1-0.1,0.2-0.2,0.3-0.4c0.1-0.1,0.1-0.2,0.2-0.3
			c-0.4-0.1-0.8-0.2-1.2-0.3v0.1c0-0.1,0-0.1,0-0.2c0,0.1,0,0.1-0.1,0.2c0-0.1,0-0.1,0.1-0.2c0,0.1-0.1,0.1-0.1,0.2l0.1-0.1
			c0,0.1-0.1,0.1-0.2,0.2l0.1-0.1c0,0-0.1,0-0.1,0.1c0.3,0,0.5,0.1,0.8,0.1c-0.1-0.1-0.2-0.2-0.3-0.3l0.1,0.1
			c-0.1-0.1-0.1-0.1-0.1-0.2s-0.1-0.1-0.2-0.2s-0.1-0.1-0.2-0.1s-0.2,0-0.3,0c-0.1,0-0.2,0-0.2,0.1c-0.1,0.1-0.3,0.2-0.3,0.4
			c0,0.1,0,0.1,0,0.2C78,73.8,78.1,74,78.1,74.1L78.1,74.1z"/>
	</g>
</g>
<g>
	<g>
		<path class="st5" d="M64.1,71.9c-0.4,0.8-0.7,1.9,0.2,2.5c0.3,0.2,0.6,0.2,0.9,0.2c0.2,0,0.3-0.1,0.5-0.2c0.1-0.1,0.2-0.3,0.2-0.5
			s-0.1-0.3-0.2-0.5c-0.1-0.1-0.3-0.2-0.5-0.2c-0.1,0-0.2,0-0.3,0c0.1,0,0.1,0,0.2,0c-0.1,0-0.1,0-0.2-0.1c0.1,0,0.1,0,0.2,0.1
			c0,0-0.1,0-0.1-0.1l0.1,0.1L65,73.1l0.1,0.1L65,73.1c0,0.1,0,0.1,0.1,0.2c0-0.1,0-0.1-0.1-0.2c0,0.1,0,0.1,0,0.2
			c0-0.1,0-0.2,0-0.3c0,0.1,0,0.1,0,0.2c0-0.2,0.1-0.4,0.2-0.6c0,0.1,0,0.1-0.1,0.2c0-0.1,0.1-0.1,0.1-0.2c0.2-0.3,0.1-0.7-0.2-0.9
			C64.7,71.5,64.3,71.6,64.1,71.9L64.1,71.9z"/>
	</g>
</g>
</svg>
