<?xml version="1.0" encoding="utf-8"?>
<!-- Generator: Adobe Illustrator 24.0.1, SVG Export Plug-In . SVG Version: 6.00 Build 0)  -->
<svg version="1.1" id="Layer_1" xmlns="http://www.w3.org/2000/svg" xmlns:xlink="http://www.w3.org/1999/xlink" x="0px" y="0px"
	 viewBox="0 0 141.7 141.7" style="enable-background:new 0 0 141.7 141.7;" xml:space="preserve">
<style type="text/css">
	.st0{fill:#91C841;}
	.st1{fill:#CCCC32;}
	.st2{fill:#67522B;}
	.st3{fill:#439744;}
	.st4{fill:#F7F299;}
	.st5{fill:#D28829;}
	.st6{fill:#F0EA4D;}
	.st7{fill:#FDB71B;}
	.st8{fill:#F15F3D;}
	.st9{fill:#943A20;}
	.st10{fill:#C9B09D;}
	.st11{fill:#219C48;}
	.st12{fill:#D6C88B;}
	.st13{fill:#FBEAA7;}
	.st14{fill:#CD6435;}
	.st15{fill:#F28648;}
	.st16{fill:#75CEEB;}
	.st17{fill:#D45027;}
	.st18{fill:#7C2E18;}
	.st19{fill:#FFFFFF;}
	.st20{fill:#070707;}
	.st21{fill:none;stroke:#070707;stroke-width:0.4076;stroke-miterlimit:10;}
	.st22{fill:#231F20;}
	.st23{fill:#2E5529;}
	.st24{fill:none;stroke:#231F20;stroke-width:0.2717;stroke-miterlimit:10;}
</style>
<path class="st0" d="M27.1,34.5c0,0-3.6,2.7-1.8,7.9c0,0,2.5,6.8,9.3,4.2c0,0,3.4-1.9,3.4-6L37.8,39l-0.3-0.6c0,0-3.2-0.4-4.1-4.3
	h-0.3c0,0-3.5-1.4-4.7-0.3L27.1,34.5z"/>
<path class="st1" d="M26.9,33.7l-4.5-2.2c0,0,3.5,0.2,3.2-3c0,0,2.9,0.3-0.9-7l3.6,0.8l3.2,1.4l0.9,0.6c0,0,3.7,2.2,1.5-2.3
	l-1.5-2.6c0,0-1.8-2.4-0.7-7.5l0.7-3.7l0.2-2.6l1.1,3.1l2.1,5.7l2.3,4.3l2.4,4.2l3.5,5.4c0,0-4.3,5,0.1,8.5c0,0,3.3,1.7,3.8,1.3
	l-1.3,8.3l-0.3,6.3l-4.1-1.4c0,0-2.4-0.5-2.2-0.5c0.2,0,1,1.6,1,1.6l-0.2,1.6L40.5,56l-4.6,2.5c0,0,1.5-2.9-3-4.4c0,0-2.9-0.8-5.3,0
	l-4.4,0.9l-0.7,0c0,0,3.1-2.6,0.3-3.7c0,0-1.2-0.4-3.1,0.1l-2.5,0.4c0,0,1.2-1,1.4-1.1c0.2-0.2,3.3-2.1,3.3-2.1l2.4-1.7
	c0,0,1.9-1.3,1.4-2.6l0.6,0.1C26.4,44.3,31.8,38.3,26.9,33.7z"/>
<path class="st2" d="M29.3,27.6c0,0-2,1.8-2,4.1c0,2.3,0,2.3,0,2.3l0,0c0,0,0.2,3.6,2.8,4.9c0,0-1.9-3-1.9-4.1l-0.3-3.5l0.4-1.3
	l0.5-0.6L29,29L29.3,27.6z"/>
<path class="st3" d="M34.8,31.6c0,0,1.9-2.8,4.9-0.7c0,0,2.6,1.7,1.7,4.8c0,0-0.9,2.9-3.4,2.8c0,0-2.2,0.5-4-2.5
	C34,35.9,32.3,32.7,34.8,31.6z"/>
<polygon class="st4" points="53.7,27.6 57.5,24.8 56.6,24.1 55.1,22.8 54.5,21.2 54.3,19.5 54.3,18.3 54.2,17.8 51.9,20.4 
	49.3,23.7 47.9,26.5 50.3,26.5 52.2,26.9 53.2,27.8 "/>
<path class="st5" d="M65.6,22.5l0.5-1.3l-0.4-1.4L64,18.3l-3.8-2l-3-0.9c0,0-3.3-0.8-2.9,4.6c0,0-0.2,3.2,2.6,4.3l0.6,0.5l4.1-1.7
	L65.6,22.5z"/>
<path class="st6" d="M62.8,11.9l0.3-1.2c0,0,0,0,0,0l-1.3,1.3c0,0-2.4,2-4.2-0.8l-0.7-1.7l-0.5-1c0,0-1.6,1.7-2.8,2
	c0,0-1.7,0.8-2.9-0.5c0,0-1.4,1.3-1.6,4.6c0,0,0.3,3.3-2.7,5.2c0,0-3,0.7-4.7-2.8l-1.5-2.7l-1-1.3c0,0-0.8-0.6-0.8-0.7
	c0,0-1.3-0.5-1.3-0.5l-1-0.4l-1.1-1c0,0-0.7-1.1-0.8-1.3c-0.1-0.2-0.4-1-0.4-1s1.7,6.3,4.8,10.8l5.5,9.1c0,0,3-2,3.7-1.6
	c0,0,1.7-4,6.7-8.8c0,0,0.1-3,3-2.4l4.5,1.5l1,0.4l0.3-2.7l-0.4-1.2L62.8,11.9z"/>
<path class="st7" d="M82.4,8.7C82.4,8.6,82.4,8.6,82.4,8.7c0.1-0.1,0.1-0.1,0-0.1C82.4,8.6,82.4,8.6,82.4,8.7c0-0.1-9.5-2.2-13,6
	l-0.1,0.6l-1.7-1.7l-2.8-1.6l-1,1l-0.7,2.4l-0.2,2.2l2,1.4l1.2,0.8l0.1,1l-0.5,1.4l13.2-0.8l1.5-2.3l0.7-2.3l-0.4-2.1l-0.2-0.6
	l-1.2,0.4l0.1-0.4l-1.8,0C77.6,14.2,76.6,10.4,82.4,8.7z"/>
<path class="st0" d="M39.8,50.6c0.2,0,0.9,1.6,0.9,1.6l0.1,2.1c0,0-0.3,2.1-0.3,2.1c0,0.1-0.1,2-0.1,2.1c0,0.2,0.6,1.8,0.6,1.8
	l1.1,1.2c0,0,2.2,1,2.3,1c0.1,0,1.8-0.5,1.8-0.5l0.6-0.9l0.3-0.5l-0.3-2l-2.2-2.1l-2.4-3.5l-2.3-2.6"/>
<polygon class="st0" points="46.6,52.8 46.9,58.6 43.9,55.7 41.1,52 40,50.9 42.5,51.2 "/>
<path class="st6" d="M29.5,53.9c0,0,3.1,5.2,0.3,5.8l-0.3,1.4L28.7,62l-1.1,0.5l-1.1,0l1.1,0.7c0,0,2.5-1.3,5.9,0.5
	c0,0,3.5,1.8,4.4,4.5c0,0,3.2,2.9,0.6,4.9l3.6,2l2.2,1.1l0.8,0.8l0.5,0.7l1.8-1.9l-0.1-15.1l-0.7,0.9c0,0-4.4,2.6-6-3.6l0.3-2.4
	l-5.2,2.8c0,0,2.7-2.5-2.5-4.6C32.9,54,31,53.3,29.5,53.9z"/>
<path class="st8" d="M26.1,65.1l-0.9,2c0,0-3.1,6.6,3.3,9.6c0,0,7.9,1.6,9.6-6.6c0,0,0.3-3.8-4.3-6.2C33.7,63.9,27.6,60.7,26.1,65.1
	z"/>
<polygon class="st0" points="24.6,65 25.2,65.1 24,66.6 23.9,65.8 24.4,64.9 "/>
<path class="st0" d="M38,68.7c0,0,2.7,2.1,0.6,4.3l-1,0.9l-1.9,0.9c0,0,2.3-2.2,2.4-3.8V68.7z"/>
<path class="st4" d="M29.7,76.9L28,78.4l-2.8,1.9l-3.9,2.6l2.9-0.3c0,0,2.5-0.6,3.7,0.5c0,0,0.7,0.9-0.5,2.1l-1,1.1l2-0.4l3.4-0.6
	l1.9-0.1l0.9,0l-2.5-2.2l-1.5-1.7l-0.7-1.1l1.7,0.2l2.3-0.5l1.8,0l1.6,0.8l0.9,1.1l1,1.2l1,0.6L40,81.6l-0.7-2.9l-0.3-1.6l-0.3-1.4
	l-0.2-1.3L38,73.6l-1.4,0.8L35.5,75l-0.5,0.2l-0.4,0.5l-1.7,0.9L31.4,77L29.7,76.9z"/>
<path class="st9" d="M47.3,75.7l-1.9,1.9L43.8,76l-2.4-1.2l-2.8-1.5L38,72.8l1.4,6.9l1,3.6l-1.6-1.3l-1.7-2l-1.5-0.4l-2.5,0.2
	l-2.9,0.4l2.8,3.2l2.7,1.9l2.1,0.7l-1.4,1l-1.4,1L33.3,89l-1.9,0.2l1.5,1l2.2,0.5l2.7-0.5l2-0.5l0.9-0.4L40,91L39.2,92l-1.5,1.1
	l0.8,1h1.9c0,0,1.5-0.9,1.7-1c0.2-0.1,1.4-1.2,1.4-1.2l0.9-1.4l1.4,4l1.2-2.1l-0.2-5.1v-4.5l0.3-4.6L47.3,75.7z"/>
<path class="st5" d="M39.7,94.9c0,0-3,2.5,0.6,8.4l0.9,2l0.4,1.9l3.5-2.6l2.7-2.6l1.3-2l0.5-2.2l-0.2-1.2l-1.4-2.7L47.3,92L46,94.7
	l-1.6-4.2l-1.2,1.7l-1.6,1.3L40.3,94L39.7,94.9z"/>
<path class="st10" d="M46.3,46.3l-0.8-2.1l-0.9-1.8l-1-1.1c0,0-1.9-1.8-2.9,0.2c0,0-1.3,1.6,0.7,4.4c0,0,1.7,2.1,2.9,2.7l2,0.8V46.3
	z"/>
<path class="st7" d="M60.8,109.9l-0.7-1.5c0,0-1.4-2-1.2-2c0.2,0-2-1-2-1l-1.4-0.9l-0.4-0.7l-0.7-0.6l-0.9-0.2L49.6,98l-1.2,2.5
	l-2.5,3.1l-4.5,3.6l-1.1-3.8l-1.8-4c0,0-0.1-2.8,0.1-2.8s1.4-2.3,1.4-2.3l-1.5-0.3l-1.1-0.8l1.6-1l1.1-1.5l0.6-1.3l-3,0.9l-3.1,0.4
	L32.4,90l-1.1-0.9L30.9,89c0,0-3.7-0.9-3.4-0.9s2.3,3.8,2.2,5.4c0,0,0.4,1.2-0.9,1.8l-0.3,0.9c0,0-0.4,1.9-2.8,2.1l2.9,1.6l5,2.2
	c0,0,5.9,3.3,4.3,5.9l-1.3,1.3l-2.8,1.6l-1.5,0.5l-1.4,0l-1.1-0.2l-0.9-0.3l0.1,0.9L28,113l-2,1.7l-3.4,2.2l-2.6,1.9
	c0,0,6.9-1.6,6.9,0.3c0,0,0.6,0.8-1.7,2.8c-0.2,0.1-0.3,0.3-0.4,0.4c0,0,0,0,0,0c0.1-0.1,0.2-0.2,0.2-0.2c0.2-0.2,3.3-0.8,3.3-0.8
	s4.6-0.9,5.5-0.5c0,0,4,0.1,5.1,2.1c0.1,0.2,1,1.4-0.5,2.8l5.5-3.1c0,0-3-0.8-3.8-3.5c0,0-1.6-4.6,1.7-5.9l0.7-0.2l0.3,0.3l2-0.2
	c0,0,2.4,0.4,3.1,1.3c0,0,1.4,1.3,1.4,2.2l-0.2,2l-0.4,1.2l2.4-1.9l1.3-1.4l0.9-1.8l1.1-1.7l1.2-1.2l1.1-0.6l2.6,0.7l2.1,0
	L60.8,109.9z"/>
<path class="st10" d="M45.9,108.7l1.9-1.8l3.3-2.3l1.6-1l0.7-0.7c0,0,2.4-0.1,2.1,2.9l-0.5,1.4l-1.6,1.5l-2,1.4l-1.9,0.9l-1.6,0.4
	l-1.1-0.1C46.6,111.3,44.5,110.5,45.9,108.7z"/>
<path class="st11" d="M41.2,113.5c0,0-3.2,2.2-0.3,6.9c0,0,2.4,3.4,5.6,1.2c0,0,2.9-1.4,2.9-5.2c0,0-0.9-2.8-3.5-3.3l-2.7-0.1
	l-0.5-0.1L41.2,113.5z"/>
<path class="st6" d="M66.9,108.4l-2.6-0.2l-3.4-1.1l-1.9-0.6l1,2l1.1,2.6c0,0,1.6,3.8-1.2,5.9l-2.5,1.3c0,0-4,1.7-4.7,4.9l-0.1,2.7
	v2.1l-0.5,2l1.6-1.7c0,0,3.6-2.7,5.8,0.6l1.6,3.7c0,0,4.8-3.8,8.1-2.3l1-2.2l0.6-2.8c0,0,0.5-7.3,4.2-7.2c0,0,3-0.7,6.6,4.6l2.4,3.8
	c0,0,0.7,1.9,3.6,2.5l1.4,0.9l1.3,2l0.9,2.1h0.3l-1.8-5.4l-1.7-4l-1.3-2.8l-2.5-4.6l-1.7-2.9l-0.6,1.5l-1.3-1.8l-2.2-1.7l-1.3-0.8
	l-5.1-1.8l-1.7,2.4l-1.6,2.8l-0.3-2.8l-0.9-2.1L66.9,108.4z"/>
<path class="st1" d="M89.8,110.8l0.8,1.8l-0.1,1.1l0.5,1.7l1.4,2.7c0,0,1.4,3,1.4,2.9c0,0,0.6,2,0.6,2l0.2,1.4v1.8l-0.7,3.3
	l-0.8,2.9l-0.6,3.4l-0.2,1.2l-0.9-2.7l-0.4-1.8l-1.1-3.5l-2-4.7l-1.6-3.3l-2.1-3.9l-1.9-2.9l0.3-2.5l2.5-0.6l2.1-0.5l1.7,0.2
	L89.8,110.8z"/>
<polygon class="st0" points="77.3,110.9 76.5,109.9 76.1,108.7 76.1,108 73,108.4 72,109.3 74,110.1 "/>
<path class="st7" d="M82.3,107.1l0.3,2.6l0.1,2l1.7-0.4l2.1-0.5l1.6-0.2l1.2,0.3l0.3-0.1l0.7,1.6l0.8,1.3l1.6,1.7l3.9,3
	c0,0,7.2,5,10.3,6.1c0,0,6.9,3.1,10.6,1.9c0,0,2.6-0.1,2.7-2.2c0,0-0.2-2.8,3.2-2.5l2,0.1c0,0-4.4-4-4.4-5.4c0,0,0.1-1.7,2.1-2
	l-2.8-1.3c0,0-6-2.3-5.9-2.3s-9-5.5-9-5.5s-2.2-3.4,2.5-7c0,0,1.1-1.2,4.8,0.5l2,0.3l1.8-0.7l1.6-1.4l1.5-1.5l0.3-0.2
	c0,0-3.9,0.1-4.1-2.9c0,0,0.2-1.9,1.7-3.7c0,0-5.2-0.5-5.5-3.1c-0.2-2.5,0-0.3,0-0.3l-1.1,0.6l-2,1.1l-1.3,1l-1.6,1.2
	c0,0-3,1.9-4.6-1.2l-0.6-1.7l-0.5,4.2l-2.1,6.7l-3.2,4.6l0.1,0.5l-5.3,2.7L82.3,107.1z"/>
<path class="st10" d="M90.7,103.7c0,0,1.5-2,4.5-1.2l0.8,1.4l1.5,2.3l0.4,1c0,0,1,2.1-1.4,3c0,0-1.9,1.1-3.8-1.7l-1.1-1.4l-0.9-1
	l-1-0.9L90.7,103.7z"/>
<path class="st2" d="M97.5,120.1c0,0-1.8-3,0.6-6.1c0,0,2.7-2.7,4.7-1.8c0,0,1.9,0.7,1.3,3.6c0,0-0.6,3.3-2.5,4.5l-1.4,0.6
	C100.2,120.9,98.3,121.5,97.5,120.1z"/>
<polygon class="st12" points="105.5,114.7 105.3,116.5 103.9,115.9 104.2,114.7 103.8,113.3 "/>
<path class="st12" d="M103.8,117.2l-0.5,1.5l0,1.6c0,0,0.4,2.5,2.2,1.5l0.2-1.5l-0.2-1.4l-0.4-0.7L103.8,117.2z"/>
<path class="st13" d="M103.9,115.9c0.2-0.1,2.4,1.4,2.9,2.2l1,1.8l0.6,1.1l-2.6-2.3l-2.1-1.5L103.9,115.9z"/>
<path class="st13" d="M105.5,121.8l0.6,1.7c0,0,2.6,3.2,2.6-1.9l-1.8-1.7l-1.3-1.4l0.2,1.8L105.5,121.8z"/>
<path class="st2" d="M102.7,111.9c0-0.1-2.6-4.4,2.8-6.5c0,0,4.2-1.1,6.4,1.2c0,0,3.8,3.7,2.3,7.4c-0.1,0.2-1.4,3-5.3,2
	C108.9,116,104.5,115,102.7,111.9z"/>
<path class="st14" d="M98.7,67.4c0.3,0.1,2.2,1.4,2.2,1.4l2.5,1.2l1.7,1.6l1.4-1.5l1.4-0.9l0.6-1.6l0,3.3l0.2,1.7l-0.5,1.5l-0.4,0.5
	c0,0,2.5-0.9,2.7-0.7c0.2,0.2,2.5-0.3,2.5-0.3s-0.7,1.2-0.8,1.3c-0.1,0.1-0.7,1.4-0.7,1.4l-0.6,0.8l-1.1,0.3H107l0.4,0.8l1.6,0.9
	l1.2,1.4l0.3,0.7l-2.9-1.4v1.4c0,0-0.7,1.8-0.8,1.9c-0.1,0.2-0.8,1.6-0.8,1.6l-0.4,1.1l-1.3-3.7l-1.2,1.5l-1.6,1.1l-1.3,0.4
	l-0.9,0.2l-0.5-0.6l0.9-0.8l0.6-0.9L101,82l0.2-0.6L98.7,82l-1.9,0.3l-1.6-0.2l-1.5-0.6l2.2-0.9l1.7-1.3l0.9-0.7l-2.7-1.2l-2.4-2.2
	l-1.2-1.6l3-0.2l2.2,0l1.2,0.6l1.4,1.7l0.9,0.6c0,0-0.5-2.4-0.5-2.3c0,0.1-0.8-3.8-0.8-3.8l-0.7-2.5L98.7,67.4z"/>
<path class="st8" d="M116.8,62.4l-0.7,0.3l-1.3,0.3l-1.1,0.8l-1.1,0.9l-0.8,1.6c0,0-1.8,5.5,2.9,7.6c0,0,5.1,1.2,7.7-4.4
	c0,0,1.6-2.9-0.1-5.9c0,0-1.1-1.9-3.6-1.4l0.5,0.8L116.8,62.4z"/>
<path class="st10" d="M100,66.8c0.3-0.1,6.6,0.4,7.5-1.5c0,0,0.5-2.3-2.3-2.4c0,0-1.8-0.3-3.1-0.1c-1.3,0.2-2.2,0.2-2.3,0.3
	C99.9,63.1,100,66.8,100,66.8z"/>
<path class="st6" d="M119.2,63c0,0-3.5-1.7-5.2,0.4c0,0,0.3,2.1-2,2.6l-2.2,0l-2.5-0.3c0,0,1.7-3.9-5.5-2.9c0,0-2.1-1.3-2.1-1.2
	s0-14.2,0-14.2l-0.4-5.9l-0.9-4.8l2.3-0.8l1.4-2l1-2.6c0,0,0.6-4.5-4.1-6l-2.8-0.1l4.4-8.5l3.9-5.7l1.3-1.2l-0.9,1.6l-0.6,2l0.4,1.8
	l0,1l-2.1,5.4l-0.6,2.7c0,0-0.5,4.6,4.7,2.8l2.3-0.9l2.3-0.8l1.9-0.1c0,0-2,1.4,4.3,3.9c6.2,2.6,0.2,0.1,0.2,0.1l-0.4,0.3
	c0,0-2.7,2.7-1.6,4.5c0,0,1.3,2.1,4,2c0,0-2,0.9-2,0.9c0,0-2,1.3-2,1.3l-1.1,0.6l-1.7,0l-1.1-0.4l-1.6-0.8l-1.4-0.7l-1.2-0.3
	l-1.7,0.1l-1.2,0.7l-1.3,1.4l-0.8,1.4l0,0.9c0,0-1.1,2.4,2.7,5.2l8.4,6.3l0.3-0.1l4,2.8c0,0-3.2,1.1-1.8,3.6L119.2,63z"/>
<path class="st15" d="M102.7,55.3l-0.5-3.7c0,0,1.6-8.1,9.1-7c0,0,5,7.2,0.8,12.1l-2.4,1.7l-2.3,0.7h-1.7l-1.8-0.9l-0.8-1.5
	L102.7,55.3z"/>
<path class="st8" d="M114.9,42.6c0,0-1-4.1,2.9-5.8c0,0,1.3-0.9,1.3-0.9c0,0,3.3-0.5,4.2,1.7c0,0,1.5,3-1.3,6c0,0-2.1,2.8-4.6,2.2
	C117.3,45.8,115.2,45.4,114.9,42.6z"/>
<path class="st4" d="M78.9,21.4l1.5-2.3c0,0,2.1-1.8,2.3-1.9c0.1-0.1,4.1-2.8,3.3,1.3c0,0,3.3-2.2,4.7,1.9l0.3,1.8
	c0,0-0.3,0.9-0.4,1c-0.1,0.1-1,0.4-1,0.4l-1.1,0.4l-4.2-1.8L78.9,21.4z"/>
<path class="st1" d="M103.6,9.3l-2.6,0.9c0,0-3.7,1.1-5.6,5c0,0-0.6,1.4-0.7,1.6s-1.3,1.6-1.3,1.6L92,18.9l-0.2-3.3l-0.2-1.4
	L91,12.1l-0.6-1.9l-0.4-1.5l-1.4,2.5l-1.2,1.6l-0.9,0.5c-0.4,0.4-1.1,0.6-1.7,0.7c-0.6,0.1-1.2,0.1-1.7-0.1L83,14l-0.9-0.1l-1-0.6
	l-0.9-1.3l0.1,1.7l0.4,0.9l0.2,2.5l-0.5,1.9l4-2.8l1.3,0.5l0.4,1l0.2,0.4l1.5-0.4l1.8,0.5l1,1.5c0,0,0.5,1.4,0.5,1.6
	c0,0.2-0.1,1.4-0.1,1.4l-0.7,0.7l-1.6,0.6c0,0,3.5,2.5,3.6,2.4c0.1-0.1,4-1.3,4-1.3l4.2-8.3l2.7-4.1l2.7-3.1l1.7-2.3L103.6,9.3z"/>
<path class="st16" d="M47.7,38.1c0,0-6.6-0.9-5.1-7.1c0,0,1.3-4.3,6.4-4.5c0,0,3.8-0.3,4.3,1.6l4.5-3.4l6.3-1.9l4.9-0.6l5.4-0.5
	c0,0,8.1-1.5,15,3l2.8,1.9c0,0,5.3-3.2,8.8,0c0,0,4.2,2.7,0.9,8.4l-1.8,1.4l-1.7,0.5c0,0,0.7,4.1,0.8,4.1s0.5,6.5,0.5,6.5l-0.1,7.1
	l0.2,9l0.2,4.7l-1.7-1.5L101,76c0,0-1.4-0.7-1.5-0.8c0-0.1-1.3-1.5-1.3-1.5L97,73.3l-4.8,0.4l1.8,2.3l2.9,2.1l1.5,0.5l-1.6,1.1
	l-1.5,1l-1.9,0.4l2.2,1l3.1-0.1l2.6-0.7l-0.7,1.3c0,0-0.8,1.2-0.9,1.4c-0.1,0.2-1.3,0.6-1.3,0.6l1.1,0.6l1.1,0.1l0.1,2.3l-1.1,5.5
	l-1.7,4.3c0,0-2.3,4-2.4,4.1c-0.1,0.1-0.5,0.8-0.5,0.8s-3.1-1-5.2,2.6l-0.7,0.2l-2.7,1.1l-3.9,0.8l-9.5,1.3l-6.7,0l-5.5-1.4
	l-2.4-0.9l-3.1-1.5l-0.6-1.1l-0.9-0.5l-0.8-0.3l-2.7-3.3L48.9,96l-1.4-3.5c0,0-0.7-3.6-0.7-3.9c0-0.3,0-6.5,0-6.5l0.5-6.8l0.2-8.3
	l-0.2-7.1l-0.9-8.5l0.5-8L47.7,38.1z"/>
<path class="st17" d="M68.5,114.5l-0.7-3.9l-0.8-2.1l-0.6-1.4l0-1.6l0.2-1.6l0.2-0.7l-1.7,0.2l-2.8-0.1l-1-0.1l-1.2,0.2l1.2-1
	l0.9-1.2l0.7-1.1l0.8-1.1l1.5-1.2l2.1-0.4l-1.4-0.9l-1.8-1.6l-1.3-1.1c0,0-1.8-1-1.5-1c0.3,0.1,3.3-0.8,3.3-0.8s2.2-0.5,2.4-0.4
	c0.1,0.1,1.5,0.6,1.5,0.6l1.4,1.2l1.6,2l0.3,0.4l0.6-0.6l-1-1.4l-0.2-2.2l0.2-1.5l0.3-1.5l0.3-0.9l1.2,2.6l0.3,1.9l0,0.8l1.5-1.8
	l2.8-1.3l2.7-0.9l1.2-0.6l-0.9,1.9c0,0-1.1,1.7-1.2,1.9c-0.1,0.2-0.8,1.6-0.8,1.6s8.7-1.8,8.6,3.8l-1.8-0.4L84.2,97l-1.9,0.3l-0.5,0
	c0,0-0.7,0.1-0.5,0.2c0.1,0,4,2.6,4,2.6l2.2,2.1l1.1,2.1l0.6,1.7l-0.1,0.8l-1.4-1.8c0,0-2-0.6-2.2-0.6c-0.1,0-4.4-1-4.4-1l1.1,3.5
	l0.4,3.5l-0.2,2.2l-0.5,2.7l-2-2.1c0,0-2.1-1.7-2.1-1.8c0-0.1-1.2-1.7-1.2-1.7l-0.6-1.7l0.4-2.5l-0.2-1.6l0-1l-1.5,2.6l-1.9,2.7
	l-1.7,2.4l-1.8,3L68.5,114.5z"/>
<path class="st0" d="M56.5,67.4c0,0-1.6,1.9-3.8-1.1c0,0-1-2.4,0.7-5.1l0.6-1.2l0.3-1.3l0-0.7l2,1.2l2.6,2.8l1.4,1.8l0.5,1.4l0,0.8
	l-0.3,0.7l-0.4,0.5c0,0-0.6,0.5-0.7,0.5S58.1,68,58.1,68l-0.6-0.1L56.5,67.4z"/>
<path class="st0" d="M87.5,56.2c0.3,0.1,1.5,0.2,1.5,0.2l2.2,0.2l2.4-0.4c0,0,2.7-0.2,3.5,2.1c0,0,1.2,1.7-1.6,3
	c0,0,1.1,2.2-0.7,3.6c0,0-2.2,1.5-3.5-1.1l-0.7-3.4l-0.4-1.6l-0.5-1L88.9,57L87.5,56.2z"/>
<path class="st18" d="M81.8,46.9c-0.1,0.1-1.3,2-1.3,2s-1.4,2.4-1.4,2.4c0.1,0-0.8,2.3-0.9,2.4c0,0.1-1.6,2.5-1.6,2.5l-1.1,1.2
	l-0.1-0.8l-0.5-0.4l-1-0.3l-0.8-0.1l-0.8-0.2v0.3l-0.7-0.3l-0.9,0.2l-0.8,0.5l-0.9-2l-0.9-2.5l-0.8-2l-1.1-1.5h1.5l1.5-0.3l0.7-0.1
	l-0.3,1.1v1.3l0.2,1.4c0,0,1.7,3.4,3.4-0.3c0,0,0.5,1.9,1.8,1.5c0,0,2.1-0.1,1.8-2.6l-0.1-1.6l-0.3-1c0,0,1.5,0.1,1.7,0.1
	c0.1,0,2.1-0.4,2.1-0.4L81.8,46.9z"/>
<path class="st10" d="M69.7,42.3c0,0-3.2,1.7-3.4,3c0,0-0.9,2.3,2.4,2.7c0.4,0,2.1-0.2,2.1-0.2l2.3-0.6h1.8l2.3,0.6l1.6-0.1
	c0,0,1.7-0.7,1-2.8l-1.3-1.5l-1.1-0.7c0,0-1.6-0.6-1.4-0.6C76.1,42.2,69.5,42.3,69.7,42.3z"/>
<path class="st19" d="M69.8,48c0,0-0.7,3.2,0.2,4.4c0,0,2.1,2.1,3.1-0.6l0.2-0.6l0.2,0.9c0,0,1.3,2,2.9,0.2l0.5-1.1l-0.2-2.4
	c0,0-0.5-1.3-0.4-1.2c0.1,0.2-1.3-0.5-1.3-0.4s-1.1,0-1.1,0l-1.5,0.1l-1.3,0.4L69.8,48z"/>
<path class="st19" d="M54.4,35.8c0,0-0.9-7.6,6.6-9.1c0,0,8.1-1.7,9.7,7.1c0,0,0.9,5.4-4.6,8.4C66.1,42.2,56.5,46,54.4,35.8z"/>
<path class="st19" d="M75.3,31.7c0,0,1.8-6.8,9.3-6c0,0,6.7,1.3,6.8,8.6c0,0-0.2,6.1-6.3,7.6c0,0-4.9,1.6-8.8-3.4
	C76.4,38.5,74.2,34.9,75.3,31.7z"/>
<g>
	<g>
		<path class="st13" d="M107.2,120.6c0.4-0.6,0.2-1.6-0.3-2c-0.2-0.2-0.6-0.3-0.8-0.1c-0.3,0.2-0.4,0.5-0.3,0.8
			c0,0.2,0.1,0.4,0.1,0.5c0,0.1,0,0.2,0,0.2c0,0,0,0.1,0,0.1c0,0,0,0.2,0,0.1c0-0.1,0,0.1,0,0.1c0,0,0,0.1,0,0.1c0,0.1,0,0.2,0,0.3
			c0,0.2,0,0.4,0,0.6c0.5,0,0.9,0,1.4,0c0-0.2,0-0.3-0.1-0.5c0,0,0-0.1,0-0.1c0,0.1,0,0.1,0,0c0-0.1,0-0.2,0-0.2
			c0-0.4-0.3-0.7-0.7-0.7c-0.4,0-0.7,0.3-0.7,0.7c0,0.4,0,0.7-0.1,1.1c0,0.2,0,0.4,0.1,0.6c0.1,0.3,0.2,0.4,0.4,0.6
			c0.1,0.1,0.4,0.1,0.5,0.1c0.2,0,0.3-0.2,0.4-0.3c0.2-0.4,0.1-0.7-0.2-0.9c0.1,0,0.2,0.1,0.2,0.2c0-0.1,0,0.2,0,0.1c0,0,0,0,0-0.1
			c0-0.1,0,0.2,0,0.1c0-0.1,0-0.3,0-0.4c0-0.3,0-0.6,0-0.9c-0.5,0-0.9,0-1.4,0c0,0.2,0,0.4,0.1,0.6c0,0,0,0.1,0,0.1c0,0.1,0,0.1,0,0
			c0,0,0,0.2,0,0.2c0,0.4,0.3,0.7,0.7,0.7c0.4,0,0.6-0.3,0.7-0.7c0.1-0.8-0.1-1.6-0.3-2.4c-0.4,0.2-0.8,0.4-1.1,0.7
			c0,0,0.1,0.1,0.1,0.1c-0.1-0.1-0.1-0.1,0,0c0,0,0,0,0,0c0,0,0,0,0,0.1c0,0.1,0,0,0,0c0,0,0,0.1,0,0.1c0,0.1,0,0,0-0.1
			c0,0,0,0.1,0,0.1c0,0,0,0.1,0,0.1c0-0.1,0-0.1,0-0.1c0,0,0,0.1,0,0.1c0-0.1,0.1-0.1,0-0.1c0,0,0,0,0,0.1c-0.2,0.3-0.1,0.8,0.2,0.9
			C106.7,121.1,107,120.9,107.2,120.6L107.2,120.6z"/>
	</g>
</g>
<g>
	<g>
		<path class="st6" d="M55.8,10.4c0.5-0.2,0.5-0.7,0.7-1.1c-0.1,0-0.2,0-0.3,0c0.1,0.5,0.1,1,0.2,1.4c0.1,0.2,0.3,0.2,0.3,0
			c0-0.5-0.1-1-0.2-1.5c0-0.2-0.4-0.1-0.3,0c0.1,0.7,0.2,1.3,0.2,2c0,0.2,0.4,0.2,0.3,0c-0.1-0.7-0.2-1.3-0.2-2c-0.1,0-0.2,0-0.3,0
			c0.1,0.5,0.2,0.9,0.2,1.4c0.1,0,0.2,0,0.3,0c-0.2-0.4-0.2-0.9-0.2-1.3c0-0.1-0.1-0.2-0.1-0.2c-0.1,0-0.2,0-0.2,0.1
			c-0.1,0.3-0.1,0.8-0.5,0.9c-0.1,0-0.1,0.2-0.1,0.2C55.6,10.4,55.7,10.4,55.8,10.4L55.8,10.4z"/>
	</g>
</g>
<path class="st8" d="M69.9,56.1c0,0,1.2-1,2.4-0.3l0.2-0.3l2.2,0.4l0.8,0.6l0.2,0.6l-1.5,0.9h-1.5l-1.3-0.5l-1-0.8L69.9,56.1z"/>
<g>
	<g>
		<g>
			<path class="st20" d="M96.1,30.9c-3.6-6.6-11.5-9.9-18.8-9.8c-2.4,0-4.9,0.4-7.3,0.6c-2.4,0.3-4.8,0.3-7.2,0.8
				c-4.1,0.8-7.8,3-10.6,6.1c-4.8,5.4-6,12.8-6.1,19.7c-0.1,8.4,1.2,16.7,0.8,25.2c-0.2,5.6-1.3,11.3-0.4,16.9c0.8,4.7,3,9,6.3,12.5
				c0.3,0.3,0.8-0.2,0.5-0.5c-2.9-3.1-5-6.8-5.9-11c-1-4.8-0.3-9.7,0-14.5c0.3-4.7,0.4-9.4,0.1-14.2c-0.2-3.4-0.5-6.8-0.6-10.2
				c-0.3-6.8,0-14.2,3.5-20.3c1.9-3.3,4.8-6.1,8.3-7.7c4.3-2,9.5-2,14.2-2.5c4.4-0.4,8.6-0.5,12.9,1.1c4.1,1.5,7.7,4.2,9.8,8
				C95.7,31.6,96.3,31.3,96.1,30.9L96.1,30.9z"/>
		</g>
	</g>
	<g>
		<g>
			<path class="st20" d="M82.9,107.4c2.4-0.4,4.8-1,7-2.1c0.4-0.2,0.1-0.8-0.3-0.6c-2.1,1-4.5,1.6-6.8,2
				C82.3,106.8,82.4,107.5,82.9,107.4L82.9,107.4z"/>
		</g>
	</g>
	<g>
		<g>
			<path class="st20" d="M73.1,108.7c1-0.2,2-0.3,3-0.4c0.2,0,0.3-0.1,0.3-0.3c0-0.2-0.2-0.4-0.3-0.3c-1.1,0.1-2.1,0.3-3.2,0.4
				c-0.2,0-0.3,0.3-0.2,0.4C72.7,108.7,72.9,108.7,73.1,108.7L73.1,108.7z"/>
		</g>
	</g>
	<g>
		<g>
			<path class="st20" d="M58.2,106.3c2.5,1.5,5.3,2.2,8.2,2.4c0.4,0,0.4-0.6,0-0.7c-2.7-0.2-5.5-0.9-7.8-2.3
				C58.1,105.5,57.8,106.1,58.2,106.3L58.2,106.3z"/>
		</g>
	</g>
	<g>
		<g>
			<path class="st20" d="M64.3,23c0.4,0,0.4-0.7,0-0.7C63.9,22.3,63.9,23,64.3,23L64.3,23z"/>
		</g>
	</g>
	<g>
		<g>
			<path class="st20" d="M47.6,37.7c-3-0.2-5.5-2.8-4.9-5.9c0.5-2.7,3.2-4.8,5.9-5c1.5-0.1,3.4-0.1,4.4,1.2c0.3,0.3,0.7-0.1,0.5-0.5
				c-1-1.3-2.7-1.4-4.3-1.4c-1.6,0-3.2,0.5-4.5,1.5c-2.6,1.9-3.7,5.6-1.7,8.3c1.1,1.5,2.8,2.3,4.7,2.5C48,38.4,48,37.7,47.6,37.7
				L47.6,37.7z"/>
		</g>
	</g>
	<g>
		<g>
			<path class="st20" d="M92.4,26.7c1.2-0.6,2.6-1,4-1.2c1.3-0.1,2.8-0.1,4,0.6c2.3,1.3,2.9,4.7,2.1,7.1c-0.6,1.6-2.1,2.9-3.8,3.2
				c-0.4,0.1-0.2,0.7,0.2,0.7c1.6-0.2,3.2-1.4,3.9-2.9c0.7-1.3,0.8-2.8,0.6-4.3c-0.2-1.5-0.9-2.9-2-3.9c-1.1-1-2.7-1.3-4.2-1.2
				c-1.8,0-3.5,0.5-5.1,1.3C91.7,26.3,92,26.9,92.4,26.7L92.4,26.7z"/>
		</g>
	</g>
	<g>
		<g>
			<path class="st20" d="M69.6,42.5c0.1,0,0.1,0,0.2,0c0-0.1,0-0.2,0-0.3c-0.2,0.1-0.5,0.1-0.8,0.2c-0.4,0.2-0.8,0.5-1.1,0.8
				c-0.7,0.6-1.4,1.2-1.7,2.1c-0.8,2.1,2,3.1,3.6,2.9c1.3-0.2,2.5-0.7,3.7-0.9c1.1-0.1,2.1,0.3,3.2,0.6c0.8,0.2,1.7,0.4,2.4-0.2
				c0.7-0.5,1.1-1.5,0.9-2.3c-0.3-2-2.8-3.1-4.5-3.7c-0.2-0.1-0.3,0.3-0.1,0.3c1.4,0.5,3.3,1.3,4,2.7c0.5,0.8,0.3,2-0.5,2.6
				c-0.7,0.6-1.7,0.3-2.5,0.1c-0.8-0.2-1.5-0.5-2.3-0.5c-1,0-2,0.3-3,0.5c-1.2,0.3-2.3,0.6-3.5,0.1c-0.9-0.4-1.6-1.1-1.3-2.1
				c0.3-0.9,1.1-1.7,1.9-2.3c0.3-0.2,0.6-0.5,0.9-0.6c0.2-0.1,0.5-0.1,0.7-0.2c0.1-0.1,0.1-0.3,0-0.3c-0.1,0-0.3,0-0.4,0
				C69.3,42.2,69.4,42.6,69.6,42.5L69.6,42.5z"/>
		</g>
	</g>
	<g>
		<g>
			<path class="st20" d="M76.2,47.8c0.3,0.7,0.4,1.5,0.5,2.3c0,0.7,0,1.6-0.5,2.2c-0.4,0.5-1.3,0.8-1.9,0.5
				c-0.5-0.2-0.7-0.9-0.9-1.4c-0.1-0.2-0.4,0-0.3,0.2c0.2,0.4,0.4,1,0.7,1.3c0.4,0.4,1,0.4,1.6,0.3c0.6-0.2,1.1-0.5,1.3-1.1
				c0.3-0.6,0.3-1.3,0.3-2c0-0.8-0.2-1.6-0.5-2.4C76.4,47.5,76.1,47.6,76.2,47.8L76.2,47.8z"/>
		</g>
	</g>
	<path class="st21" d="M91.5,33.9c0-4.6-3.7-8.3-8.2-8.3c-4.5,0-8.2,3.7-8.2,8.3c0,4.6,3.7,8.3,8.2,8.3
		C87.8,42.2,91.5,38.5,91.5,33.9z"/>
	<path class="st21" d="M70.7,34.8c0-4.6-3.7-8.3-8.2-8.3c-4.5,0-8.2,3.7-8.2,8.3c0,4.6,3.7,8.3,8.2,8.3
		C67.1,43.1,70.7,39.3,70.7,34.8z"/>
	<path class="st20" d="M99,30.6c0-1-0.8-1.7-1.7-1.7c-1,0-1.7,0.8-1.7,1.7c0,1,0.8,1.8,1.7,1.8C98.2,32.4,99,31.6,99,30.6z"/>
	<path class="st20" d="M50.1,32.2c0-1-0.8-1.7-1.7-1.7c-1,0-1.7,0.8-1.7,1.7c0,1,0.8,1.8,1.7,1.8C49.3,33.9,50.1,33.2,50.1,32.2z"/>
	<path class="st20" d="M76.6,41.5c0-1.1-1.6-2.1-3.7-2.1c-2,0-3.7,0.9-3.7,2.1c0,1.1,1.6,2,3.7,2C75,43.6,76.6,42.7,76.6,41.5z"/>
	<path class="st20" d="M85.9,32.2c-0.9-1.2-2.6-1.4-3.8-0.5c-1.2,0.9-1.4,2.6-0.5,3.8c0.9,1.2,2.6,1.4,3.8,0.5
		C86.6,35.1,86.8,33.4,85.9,32.2z M83.1,35.8c-0.3-0.3-0.2-0.8,0.1-1.1c0.3-0.3,0.8-0.2,1.1,0.1c0.3,0.3,0.2,0.8-0.1,1.1
		C83.8,36.2,83.4,36.2,83.1,35.8z"/>
	<path class="st20" d="M62.9,31.7c-1.5,0-2.7,1.2-2.7,2.7c0,1.5,1.2,2.7,2.7,2.7c1.5,0,2.7-1.2,2.7-2.7
		C65.6,32.9,64.4,31.7,62.9,31.7z M64,36.1c-0.4,0-0.8-0.3-0.8-0.8c0-0.4,0.3-0.8,0.8-0.8c0.4,0,0.8,0.3,0.8,0.8
		C64.8,35.8,64.4,36.1,64,36.1z"/>
	<g>
		<g>
			<path class="st20" d="M73.1,47.2c0.1,0.5,0.1,1,0.1,1.6c0,0.6,0,1.1,0,1.7c-0.1,0.8-0.2,1.9-1.1,2.3c-0.7,0.3-1.5,0-1.9-0.6
				c-0.4-0.6-0.4-1.3-0.4-2c0-0.7,0.1-1.5,0.3-2.2c0.1-0.2-0.3-0.3-0.3-0.1c-0.2,0.7-0.3,1.5-0.3,2.2c0,0.8,0.1,1.6,0.5,2.3
				c0.4,0.7,1.2,1,2,0.8c0.9-0.2,1.3-1.1,1.5-1.9c0.1-0.8,0.1-1.5,0.1-2.3c0-0.6,0.1-1.3-0.1-1.9C73.4,46.9,73,47,73.1,47.2
				L73.1,47.2z"/>
		</g>
	</g>
	<g>
		<g>
			<path class="st20" d="M100.3,85.5c0.1,5.9-2,11.5-5.4,16.2c-0.3,0.4,0.3,0.7,0.6,0.3c3.5-4.8,5.6-10.6,5.5-16.5
				C100.9,85.1,100.2,85.1,100.3,85.5L100.3,85.5z"/>
		</g>
	</g>
	<g>
		<g>
			<path class="st20" d="M95.1,30.3c3.6,5.3,4.3,11.8,4.4,18.1c0,3-0.1,6-0.1,9.1c0,3.7,0.2,7.4,0.4,11c0,0.4,0.7,0.4,0.7,0
				c-0.2-3.7-0.4-7.5-0.4-11.2c0-3.2,0.1-6.4,0.1-9.7c-0.1-6.1-0.9-12.4-4.4-17.6C95.5,29.6,94.9,29.9,95.1,30.3L95.1,30.3z"/>
		</g>
	</g>
	<g>
		<g>
			<path class="st20" d="M78.7,47.9c1.5-0.1,2.9-0.7,4.2-1.5c1.3-0.8,2.5-1.7,3.5-2.9c-0.1,0-0.2,0-0.2,0c1,1,1.9,2.2,1.6,3.7
				c0,0.2,0.3,0.3,0.3,0.1c0.4-1.7-0.6-3-1.7-4.1c-0.1-0.1-0.2-0.1-0.2,0c-0.9,1.1-2.1,2.1-3.3,2.8c-1.3,0.8-2.7,1.4-4.1,1.5
				C78.5,47.6,78.5,47.9,78.7,47.9L78.7,47.9z"/>
		</g>
	</g>
	<g>
		<g>
			<path class="st20" d="M69.2,47.8c-1.5,0.9-3.4,0.1-4.7-0.7c-1.4-0.8-2.7-1.9-3.9-3c-0.1-0.1-0.2-0.1-0.2,0c-1,0.8-1.5,1.7-1.7,3
				c0,0.2,0.3,0.3,0.3,0.1c0.2-1.2,0.7-2.1,1.6-2.8c-0.1,0-0.2,0-0.2,0c1.3,1.2,2.7,2.4,4.3,3.2c1.4,0.8,3.2,1.4,4.7,0.5
				C69.5,48,69.4,47.7,69.2,47.8L69.2,47.8z"/>
		</g>
	</g>
	<g>
		<g>
			<path class="st20" d="M66.3,48.7c2.5,2.8,1.8,8.4,6.1,9.6c3.2,0.9,5-2.7,6-5c0.7-1.5,1.2-3.2,2.2-4.6c0.1-0.2-0.2-0.3-0.3-0.2
				c-1.7,2.4-2.2,5.4-3.9,7.7c-0.9,1.2-2.1,2.1-3.6,1.8c-2.1-0.4-3.1-2.1-3.8-3.9c-0.7-1.9-1.1-4.1-2.5-5.7
				C66.4,48.3,66.1,48.5,66.3,48.7L66.3,48.7z"/>
		</g>
	</g>
	<g>
		<g>
			<path class="st20" d="M70.2,56.1c0.5-0.3,1.1-0.4,1.7-0.3c0.7,0.2,1.1,0.9,1.1,1.6c0,0.2,0.4,0.2,0.3,0c-0.1-0.7-0.3-1.3-0.9-1.7
				c-0.5-0.3-1.1-0.3-1.6-0.2c-0.3,0.1-0.6,0.2-0.8,0.3C69.8,55.9,70,56.2,70.2,56.1L70.2,56.1z"/>
		</g>
	</g>
	<g>
		<g>
			<path class="st20" d="M72.2,55.7c0.2,0.1,0.5,0.2,0.7,0.2c0.3,0,0.7,0.1,1,0.1c0.6,0.1,1.3,0.3,1.4,1c0,0.2,0.4,0.1,0.3-0.1
				c-0.2-1.2-1.8-1.2-2.7-1.4c-0.2,0-0.5-0.1-0.6-0.2C72.2,55.3,72.1,55.6,72.2,55.7L72.2,55.7z"/>
		</g>
	</g>
</g>
<g>
	<g>
		<path class="st20" d="M46.3,45.8c-0.3-1.3-0.9-2.5-1.7-3.5c-0.6-0.8-1.6-2.1-2.7-1.9c-1.2,0.1-1.8,1.8-1.7,2.8
			c0.1,1.5,1,2.8,2.1,3.9c1.1,1.1,2.5,2.2,4.1,2.5c0.2,0,0.3-0.3,0.1-0.3c-1.2-0.2-2.4-1-3.3-1.8c-1-0.9-2-2.1-2.4-3.5
			c-0.2-0.6-0.2-1.3,0-1.9c0.2-0.5,0.5-1.1,1.1-1.3c1-0.4,2,0.9,2.5,1.6c0.8,1,1.4,2.3,1.7,3.6C46,46.2,46.3,46.1,46.3,45.8
			L46.3,45.8z"/>
	</g>
</g>
<g>
	<g>
		<path class="st20" d="M100.2,63.1c0.9-0.1,1.8-0.2,2.8-0.3c1.1,0,2.3,0,3.4,0.4c0.8,0.4,1.4,1.3,0.7,2.1c-0.8,0.8-2.1,1-3.1,1.1
			c-1.1,0.1-2.3,0.2-3.4,0c-0.2,0-0.3,0.3-0.1,0.3c1.1,0.2,2.2,0.1,3.3,0c1.2-0.1,2.5-0.3,3.5-1.1c0.8-0.7,0.7-1.8-0.1-2.4
			c-0.9-0.7-2.2-0.8-3.3-0.8c-1.2,0-2.4,0.1-3.6,0.3C99.9,62.8,100,63.2,100.2,63.1L100.2,63.1z"/>
	</g>
</g>
<g>
	<g>
		<path class="st20" d="M52.8,103.2c-0.4,0.4-0.8,0.6-1.3,0.9c-0.7,0.5-1.4,0.9-2.1,1.4c-1.3,0.9-2.8,1.9-3.7,3.2
			c-0.3,0.4-0.6,1-0.5,1.5c0.1,0.6,0.7,1,1.2,1.2c0.7,0.3,1.4,0.2,2.1,0c1-0.3,1.9-0.7,2.8-1.3c1.1-0.6,2.1-1.4,2.9-2.2
			c0.6-0.6,1.3-1.4,1.5-2.3c0-0.2-0.3-0.3-0.3-0.1c-0.1,0.8-0.7,1.4-1.2,1.9c-0.7,0.7-1.5,1.4-2.4,1.9c-0.8,0.6-1.7,1-2.7,1.4
			c-0.7,0.3-1.5,0.5-2.2,0.4c-0.5-0.1-1.2-0.5-1.4-1.1c-0.1-0.5,0.2-1,0.5-1.4c0.9-1.2,2.3-2.1,3.5-3c0.7-0.5,1.4-0.9,2.1-1.4
			c0.4-0.3,0.9-0.6,1.3-0.9C53.2,103.3,52.9,103,52.8,103.2L52.8,103.2z"/>
	</g>
</g>
<g>
	<g>
		<path class="st20" d="M89.7,105.5c1.1,0.4,1.8,1.6,2.5,2.5c0.7,0.9,1.5,1.9,2.7,2.3c1.2,0.4,2.5-0.2,3.1-1.2
			c0.6-1.1,0.1-2.4-0.5-3.4c-0.4-0.7-0.9-1.3-1.3-2c-0.4-0.5-0.8-1.1-0.9-1.7c0-0.2-0.4-0.1-0.3,0.1c0.2,1.1,1.1,2,1.7,2.9
			c0.6,0.9,1.5,2.2,1.2,3.4c-0.3,1.2-1.8,2-2.9,1.5c-1.1-0.4-1.9-1.5-2.6-2.3c-0.7-0.9-1.4-2-2.5-2.4
			C89.6,105.1,89.5,105.4,89.7,105.5L89.7,105.5z"/>
	</g>
</g>
<g>
	<g>
		<path class="st20" d="M38.4,44c-0.2,0.9-0.7,1.8-1,2.7c-0.3,0.8-0.6,1.7-0.9,2.6c-0.6,1.8-1.1,3.6-1.6,5.5
			c-0.9,3.7-1.5,7.4-1.8,11.1c0,0.2,0.3,0.2,0.3,0c0.3-3.8,1-7.7,1.9-11.4c0.4-1.7,0.9-3.4,1.5-5.1c0.3-0.9,0.5-1.7,0.9-2.6
			c0.4-0.9,0.8-1.7,1-2.7C38.8,43.9,38.4,43.8,38.4,44L38.4,44z"/>
	</g>
</g>
<g>
	<g>
		<path class="st20" d="M39.6,45.8c-0.8,2.1-1.2,4.3-1.8,6.4c-0.1,0.2,0.3,0.3,0.3,0.1c0.6-2.1,1-4.3,1.8-6.4
			C40,45.7,39.7,45.6,39.6,45.8L39.6,45.8z"/>
	</g>
</g>
<g>
	<g>
		<path class="st20" d="M108.2,84.2c1.4,6.3,0,12.7-1.2,18.8c0,0.2,0.3,0.3,0.3,0.1c1.3-6.2,2.6-12.7,1.2-19
			C108.5,83.9,108.1,84,108.2,84.2L108.2,84.2z"/>
	</g>
</g>
<g>
	<g>
		<path class="st20" d="M109.4,84.9c1,2.1,1.4,4.4,1.6,6.7c0,0.2,0.4,0.2,0.3,0c-0.2-2.4-0.6-4.7-1.7-6.9
			C109.6,84.5,109.3,84.7,109.4,84.9L109.4,84.9z"/>
	</g>
</g>
<g>
	<g>
		<path class="st20" d="M54.8,109c3,1.8,6.1,3.5,9.2,5.1c0.2,0.1,0.4-0.2,0.2-0.3c-3.1-1.7-6.2-3.3-9.2-5.1
			C54.8,108.6,54.7,108.9,54.8,109L54.8,109z"/>
	</g>
</g>
<g>
	<g>
		<path class="st20" d="M53.4,110.2c1.4,1,3,2,4.5,2.9c0.2,0.1,0.4-0.2,0.2-0.3c-1.5-0.9-3.1-1.8-4.5-2.9
			C53.4,109.8,53.2,110.1,53.4,110.2L53.4,110.2z"/>
	</g>
</g>
<g>
	<g>
		<path class="st20" d="M46.7,111c1.3-1.5,2.9-2.5,4.7-3.3c0.2-0.1,0-0.4-0.2-0.3c-1.8,0.8-3.5,1.8-4.7,3.3
			C46.3,111,46.5,111.2,46.7,111L46.7,111z"/>
	</g>
</g>
<g>
	<g>
		<path class="st20" d="M96.2,109.8c0.3-0.1,0.5-0.3,0.5-0.6c0-0.3-0.1-0.6-0.3-0.8c-0.4-0.6-1.1-1.2-1.8-1.5
			c-0.4-0.2-0.7-0.4-1.1-0.4c-0.2,0-0.3,0.3-0.1,0.3c0.7,0.1,1.3,0.5,1.8,0.9c0.3,0.2,0.5,0.4,0.8,0.7c0.2,0.2,0.3,0.4,0.4,0.7
			c0,0.2-0.1,0.4-0.3,0.5C95.8,109.6,96,109.9,96.2,109.8L96.2,109.8z"/>
	</g>
</g>
<g>
	<g>
		<path class="st20" d="M107.1,65.3c0.3-0.8-0.7-1.1-1.3-1.2c-0.9-0.2-2-0.2-2.8,0.2c-0.2,0.1-0.1,0.4,0.1,0.3
			c0.8-0.3,1.7-0.4,2.5-0.2c0.4,0.1,1.4,0.3,1.2,0.8C106.7,65.4,107,65.5,107.1,65.3L107.1,65.3z"/>
	</g>
</g>
<g>
	<g>
		<path class="st20" d="M41.1,41.7c0.4-0.2,0.8-0.3,1.2-0.2c0.3,0.1,0.6,0.3,0.8,0.5c0.5,0.5,0.7,1.3,0.8,2c0.1,0.4,0.1,0.8,0,1.2
			c0,0.2,0.3,0.2,0.3,0c0.1-0.8,0-1.6-0.3-2.4c-0.3-0.7-0.7-1.4-1.5-1.7c-0.5-0.1-1,0-1.5,0.1C40.8,41.5,40.9,41.8,41.1,41.7
			L41.1,41.7z"/>
	</g>
</g>
<g>
	<g>
		<path class="st20" d="M53.3,103.1c0.4,0,0.8,0,1.1,0.2c0.3,0.2,0.5,0.4,0.6,0.7c0.3,0.6,0.3,1.4,0.2,2.1c-0.1,0.2,0.3,0.3,0.3,0.1
			c0.3-1.1,0.1-2.8-1.1-3.3c-0.3-0.2-0.7-0.2-1.1-0.2C53.1,102.7,53.1,103.1,53.3,103.1L53.3,103.1z"/>
	</g>
</g>
<g>
	<g>
		<path class="st20" d="M55.1,104.5c1.2,0.8,2.4,1.4,3.7,2.1c0.2,0.1,0.4-0.2,0.2-0.3c-1.3-0.6-2.5-1.3-3.7-2.1
			C55,104.1,54.9,104.3,55.1,104.5L55.1,104.5z"/>
	</g>
</g>
<g>
	<g>
		<path class="st20" d="M89.9,105.4c0.2-1,0.9-1.8,1.7-2.3c1-0.7,2.2-0.9,3.4-0.4c0.2,0.1,0.3-0.3,0.1-0.3c-1.2-0.5-2.6-0.3-3.6,0.5
			c-0.9,0.6-1.6,1.5-1.9,2.5C89.5,105.5,89.8,105.6,89.9,105.4L89.9,105.4z"/>
	</g>
</g>
<g>
	<g>
		<path class="st20" d="M56.5,67.2c-0.8,1-1.9,0.6-2.7-0.1c-0.9-0.8-1.3-1.9-1.2-3.1c0.3-2.1,1.9-3.9,1.9-6.1
			c-0.1,0-0.2,0.1-0.3,0.1c1.2,0.7,2.3,1.6,3.3,2.6c1.1,1.1,2.3,2.4,2.8,3.9c0.2,0.6,0.3,1.2,0.1,1.8c-0.3,0.7-1,1.1-1.7,1.3
			c-1.6,0.6-2.3-0.8-2.6-2.1c-0.4-1.5-0.4-3.2-0.9-4.7c-0.1-0.2-0.4-0.1-0.3,0.1c0.6,1.5,0.5,3.1,0.9,4.6c0.3,1.2,1,2.8,2.5,2.6
			c1.4-0.2,2.7-1.3,2.6-2.8c-0.1-1.6-1.3-3.1-2.4-4.2c-1.2-1.3-2.5-2.6-4-3.4c-0.1-0.1-0.3,0-0.3,0.1c0,2.6-2.3,4.7-1.9,7.4
			c0.3,1.8,2.9,4.1,4.4,2.2C56.8,67.2,56.6,67,56.5,67.2L56.5,67.2z"/>
	</g>
</g>
<g>
	<g>
		<path class="st20" d="M88.4,56.9c2.3,1.1,2.1,3.6,2.5,5.8c0.2,0.9,0.5,1.9,1.3,2.5c0.9,0.6,2.2,0.4,3-0.4c1-1,1-2.4,0.4-3.6
			c0,0.1-0.1,0.2-0.1,0.2c0.8-0.3,1.5-0.7,1.9-1.5c0.3-0.6,0.2-1.3-0.1-1.9c-0.3-0.7-0.9-1.3-1.6-1.7c-0.9-0.5-1.9-0.5-2.9-0.4
			c-1.3,0.2-2.6,0.6-3.8,0c-0.2-0.1-0.4,0.2-0.2,0.3c2.2,1.2,4.7-0.9,6.9,0.5c0.7,0.5,1.4,1.3,1.5,2.2c0.1,1.1-0.8,1.8-1.8,2.1
			c-0.1,0-0.2,0.2-0.1,0.2c0.6,1.1,0.6,2.4-0.4,3.3c-0.9,0.8-2.3,0.6-3-0.4c-1.1-1.5-0.7-3.7-1.3-5.4c-0.4-1-1-1.8-2-2.3
			C88.4,56.6,88.2,56.8,88.4,56.9L88.4,56.9z"/>
	</g>
</g>
<g>
	<g>
		<path class="st20" d="M89.1,56C89.1,56,89.1,56,89.1,56c-0.1,0-0.1,0-0.1,0c0,0-0.1,0-0.1,0c0,0,0,0-0.1,0.1c0,0,0,0,0,0
			c0,0,0,0,0,0c0,0.1,0,0.1,0,0.2c0,0,0,0,0,0.1c0,0,0,0,0,0.1c0,0,0,0,0.1,0c0,0,0,0,0.1,0c0,0,0.1,0,0.1,0c0,0,0-0.1,0-0.1
			c0,0,0,0,0,0c0,0,0,0,0,0c0,0,0,0,0-0.1c0,0,0,0,0,0c0,0,0,0,0,0c0,0,0,0,0,0c0,0,0,0,0,0c0,0,0,0,0,0c0,0,0,0,0,0c0,0,0,0,0,0
			c0,0,0,0,0.1,0c0,0,0,0,0,0c0,0,0,0,0,0c0,0,0.1,0,0.1,0c0,0,0,0,0-0.1c0,0,0,0,0-0.1c0,0,0-0.1,0-0.1C89.2,56,89.2,56,89.1,56
			L89.1,56z"/>
	</g>
</g>
<g>
	<g>
		<path class="st20" d="M87.5,56.4c1.8,0.2,3.6,1.4,5,2.5c1.5,1.2,3.1,2.7,3.9,4.5c0.4,0.8,0.6,1.7,0.3,2.6
			c-0.1,0.2,0.3,0.3,0.3,0.1c0.6-1.7-0.5-3.5-1.5-4.8c-1.4-1.8-3.2-3.3-5.2-4.3c-0.9-0.5-1.8-0.9-2.8-1C87.3,56,87.3,56.3,87.5,56.4
			L87.5,56.4z"/>
	</g>
</g>
<g>
	<g>
		<g>
			<path class="st20" d="M62.9,10.9c-0.3,1-0.2,2-0.1,3.1c0.1,1,0.2,2.1-0.5,3c-0.1,0.2,0.2,0.3,0.3,0.2c1.3-1.9-0.1-4.2,0.6-6.2
				C63.3,10.8,63,10.7,62.9,10.9L62.9,10.9z"/>
		</g>
	</g>
	<g>
		<g>
			<path class="st20" d="M27,33.5c-1.6-0.8-3.2-1.6-4.8-2.3c0,0.1-0.1,0.2-0.1,0.3c0.2,0,0.4,0.1,0.6,0.1c0-0.1,0.1-0.2,0.1-0.3
				c-0.2,0-0.4-0.1-0.6-0.1c0,0.1-0.1,0.2-0.1,0.3c1.1,0.3,2.3,0,3.1-0.9c0.4-0.4,0.6-0.8,0.7-1.3c0-0.1,0-0.5,0-0.6
				c0.1-0.1,0.2,0,0.3-0.2c0.2-0.3,0.4-0.4,0.6-0.7c0.2-0.5,0.1-1.1,0-1.7c-0.3-1.8-1.5-3.2-2.1-4.9c-0.1,0-0.2,0.1-0.3,0.1
				c0.1,0.2,0.2,0.3,0.3,0.5c0.1-0.1,0.2-0.1,0.3-0.2c-0.1-0.2-0.2-0.3-0.3-0.5c-0.1,0.1-0.1,0.2-0.2,0.2c0.5,0.1,0.5,0.1,0.2-0.3
				c-0.1,0.1-0.1,0.2-0.2,0.3c1.4,0.4,2.9,0.7,4.3,1.2c1.5,0.5,2.7,1.2,4,2.1c1.5,1,2.7,0.2,2-1.5c-1.1-2.6-3-4.8-3.2-7.8
				c-0.1-3.4,1.3-6.5,1.3-9.9c-0.1,0-0.2,0-0.3,0c0,0.3,0,0.5,0,0.8c0.1,0,0.2,0,0.3,0c0-0.3,0-0.5,0-0.8c-0.1,0-0.2,0-0.3,0
				c0.1,0.1,0.3,1.1,0.4,1.1c0,0,0-0.9,0-1.1c-0.1,0-0.2,0.1-0.3,0.1c1.1,2.5,1.4,5.4,4.2,6.6c0.6,0.3,1.3,0.5,1.8,0.9
				c0.9,0.6,1.4,1.5,1.9,2.4c0.7,1.2,1.3,2.6,2.3,3.6c1.7,1.7,3.9,1.8,5.4-0.2c1.9-2.6,0.4-6.1,2.7-8.5c-0.1-0.1-0.2-0.1-0.3-0.2
				c-0.1,0.1-0.2,0.2-0.3,0.4c0.1,0.1,0.2,0.2,0.2,0.2c0.2-0.3,1.2,0.4,1.6,0.5c0.5,0.1,1-0.1,1.4-0.2c1.2-0.5,2.2-1.3,3.1-2.3
				c-0.1,0-0.2,0-0.3-0.1c0.1,0.3,0,1.1,0.2,0.6c0.1-0.2,0.1-0.4,0.1-0.6c-0.1,0-0.2,0-0.3,0c0.5,1.5,0.9,3.5,2.5,4.1
				c1.6,0.7,3.3-0.5,4.3-1.7c0.1-0.2-0.1-0.4-0.2-0.2c-1.1,1.2-3,2.5-4.5,1.3c-1-0.9-1.3-2.3-1.7-3.5c-0.1-0.2-0.3-0.2-0.3,0
				c-0.1,0.3-0.4,1.2,0.1,1.3c0.8,0.3,0.3-1.1,0.3-1.3c0-0.1-0.2-0.2-0.3-0.1c-1.2,1.3-3.9,3.6-5.5,1.6c-0.1-0.1-0.2-0.1-0.2,0
				c-0.2,0.2-0.2,0.2-0.4,0.5c-0.1,0.1,0.1,0.3,0.2,0.2c0.3-0.2,0.3-0.1,0.4-0.5c0.1-0.2-0.1-0.3-0.3-0.2c-1.8,1.8-1.4,4.1-1.9,6.4
				c-0.3,1.6-1.6,3.8-3.6,3.5c-1.7-0.2-2.8-1.8-3.5-3.1c-1.1-2-1.9-3.8-4.2-4.8c-1.5-0.7-2.5-1.3-3.2-2.9c-0.6-1.2-0.9-2.6-1.4-3.8
				c-0.1-0.2-0.3-0.1-0.3,0.1c0,0.3-0.1,1.8,0.5,1.7c0.7-0.1,0-1.5-0.1-1.8c-0.1-0.2-0.3-0.2-0.3,0c0,0.3,0,0.5,0,0.8
				c0,0.2,0.3,0.2,0.3,0c0-0.3,0-0.5,0-0.8c0-0.2-0.3-0.2-0.3,0c0,2.8-0.9,5.5-1.2,8.3c-0.2,2.5,0.4,4.5,1.5,6.7
				c0.5,0.9,1,1.7,1.4,2.6c0.1,0.2,0.3,0.5,0.3,0.8c0.1,2.2-1.4,0.7-1.9,0.5c-0.4-0.2-0.8-0.6-1.3-0.9c-2.1-1.2-4.6-1.6-7-2.3
				c-0.2,0-0.3,0.2-0.2,0.3c0.3,0.3,0.7,0.8,1.1,0.7c0.1,0,0.1-0.1,0.1-0.1c0.1-0.6-0.6-0.7-1.1-0.8c-0.1,0-0.3,0.1-0.2,0.2
				c0.1,0.2,0.2,0.4,0.3,0.5c0.1,0.2,0.4,0,0.3-0.2c-0.1-0.2-0.2-0.4-0.3-0.5c-0.1-0.1-0.4-0.1-0.3,0.1c0.3,0.7,3.8,7,1.3,6.9
				c-0.1,0-0.2,0.1-0.2,0.2c0.4,1.9-1.7,3.1-3.4,2.7c-0.2-0.1-0.3,0.3-0.1,0.3c0.2,0.1,0.4,0.1,0.6,0.1c0.2,0,0.3-0.3,0.1-0.3
				c-0.2-0.1-0.4-0.1-0.6-0.1c-0.2,0-0.3,0.2-0.1,0.3c1.6,0.8,3.2,1.5,4.8,2.3C27,33.9,27.2,33.6,27,33.5L27,33.5z"/>
		</g>
	</g>
	<g>
		<g>
			<path class="st20" d="M40.1,55.9c-1.9,1-3.9,2-5.7,3.3c-0.2,0.1,0,0.4,0.2,0.3c1.1-0.7,2.1-1.9,1.5-3.2c-0.6-1.4-2.5-2.2-3.8-2.5
				c-3.5-0.8-7,0.7-10.3,1.2c0,0.1,0.1,0.2,0.1,0.3c0.4-0.2,0.8-0.3,1.3-0.3c0-0.1,0-0.2,0-0.3C23,54.9,22.5,55,22,55
				c0.1,0.1,0.1,0.2,0.2,0.3c0.4-0.4,0.9-0.6,1.5-0.5c0-0.1,0-0.2,0-0.3c-0.5,0.3-1,0.5-1.6,0.6c0.1,0.1,0.1,0.2,0.2,0.3
				c0.9-0.9,2.8-2.6,1.3-3.9c-1.9-1.6-4.9,0.1-7,0.3c0,0.1,0.1,0.2,0.1,0.3c0.2-0.1,0.8-0.4,0.8-0.6c0,0-0.7,0.2-1,0.3
				c0,0.1,0.1,0.2,0.1,0.3c1.5-1,11.4-5.7,9-8.3c-0.1-0.2-0.4,0.1-0.2,0.2c2,2.1-7.5,6.8-8.9,7.8c-0.2,0.1-0.1,0.4,0.1,0.3
				c0.3-0.1,1.6-0.3,1.4-0.9c-0.2-0.6-1.4,0.4-1.6,0.6c-0.1,0.1-0.1,0.3,0.1,0.3c1.7-0.1,3.2-0.9,4.9-0.9c1.3,0,2.9,0.8,1.9,2.3
				c-0.4,0.6-0.9,1.1-1.4,1.6c-0.1,0.1,0,0.3,0.2,0.3c0.6-0.1,1.1-0.2,1.7-0.6c0.1-0.1,0.1-0.3,0-0.3c-0.7-0.3-1.3,0.2-1.8,0.6
				c-0.1,0.1,0,0.3,0.2,0.3c0.5-0.1,0.9-0.2,1.4-0.3c0.2-0.1,0.2-0.3,0-0.3c-0.5,0-1,0.1-1.5,0.3c-0.2,0.1,0,0.3,0.1,0.3
				c2.5-0.4,5-1.3,7.5-1.4c1.4-0.1,2.8,0.1,4.1,0.7c0.7,0.3,1.5,0.8,1.9,1.5c0.7,1.2-0.2,2.4-1.2,3.1c0.1,0.1,0.1,0.2,0.2,0.3
				c1.8-1.2,3.7-2.2,5.7-3.3C40.5,56.1,40.3,55.8,40.1,55.9L40.1,55.9z"/>
		</g>
	</g>
	<g>
		<g>
			<path class="st20" d="M33.4,8.1c2.2,7.3,6.2,13.8,10.5,20c0.1,0.2,0.4,0,0.3-0.2c-4.3-6.2-8.3-12.6-10.5-19.9
				C33.6,7.8,33.3,7.9,33.4,8.1L33.4,8.1z"/>
		</g>
	</g>
	<g>
		<g>
			<path class="st20" d="M40.2,43.6c-1.1,0.9-2.2,1.9-3.3,2.9c-0.2,0.1,0.1,0.4,0.2,0.2c1.1-1,2.2-1.9,3.3-2.9
				C40.6,43.7,40.3,43.4,40.2,43.6L40.2,43.6z"/>
		</g>
	</g>
	<g>
		<g>
			<path class="st20" d="M47.5,38.5c-1.3,0.7-2.5,1.5-3.8,2.3c-0.2,0.1,0,0.4,0.2,0.3c1.2-0.8,2.5-1.6,3.8-2.3
				C47.8,38.7,47.7,38.4,47.5,38.5L47.5,38.5z"/>
		</g>
	</g>
	<g>
		<g>
			<path class="st20" d="M48.1,26.2c1.3-3.3,4-5.7,6.2-8.4c0.1-0.2-0.1-0.4-0.2-0.2c-2.3,2.7-5,5.2-6.3,8.5
				C47.7,26.4,48,26.4,48.1,26.2L48.1,26.2z"/>
		</g>
	</g>
	<g>
		<g>
			<path class="st20" d="M41.6,26.5c-0.4,0.6-1.2,0.9-1.8,1.2c-1,0.5-2.1,0.8-3.2,1.2c-1.9,0.6-3.8,1.1-5.7,1.6
				c-0.2,0.1-0.1,0.4,0.1,0.3c2-0.6,4.1-1.1,6.1-1.7c1.1-0.3,2.1-0.7,3.1-1.2c0.6-0.3,1.4-0.7,1.8-1.3C42,26.5,41.7,26.3,41.6,26.5
				L41.6,26.5z"/>
		</g>
	</g>
</g>
<g>
	<g>
		<g>
			<path class="st20" d="M119.6,35.8c-1.6,0.5-2.7,1.8-4.2,2.5c-2.3,1-4.3-0.6-6.3-1.5c-1.4-0.6-2.9-0.7-4.2,0.2
				c-1.3,0.9-2.2,2.4-2.7,3.9c-0.1,0.2,0.3,0.3,0.3,0.1c0.6-1.7,1.8-3.7,3.7-4.2c2-0.5,3.7,1,5.4,1.7c1.3,0.5,2.6,0.7,4,0.1
				c1.5-0.7,2.6-1.9,4.2-2.4C119.9,36.1,119.8,35.8,119.6,35.8L119.6,35.8z"/>
		</g>
	</g>
	<g>
		<g>
			<path class="st20" d="M80.6,14.5c-0.1-0.8-0.2-1.7-0.3-2.5C80.2,12,80.1,12,80,12c0.9,2.2,3.1,2.5,5.3,2c2.6-0.6,4.1-2.9,4.9-5.3
				c0.1-0.2-0.2-0.3-0.3-0.1c-0.1,0.3-0.3,0.6-0.4,0.8c0.1,0.1,0.2,0.1,0.3,0.2c0.1-0.3,0.3-0.6,0.5-0.8c-0.1,0-0.2,0-0.3,0
				c0.1,0.3,0.1,0.6,0.1,0.9c0,0.2-0.1,0-0.1-0.2c0-0.2,0.2-0.5,0.3-0.7c-0.1,0-0.2,0-0.3,0c0.4,1.6,1.1,3.1,1.4,4.7
				c0.3,1.4,0,2.8,0.3,4.2c0.1,0.7,0.3,1.6,1.1,1.6c0.9,0,1.6-0.6,2.1-1.4c0.6-1,0.8-2.2,1.3-3.3c0.6-1.3,2-2.5,3.2-3.2
				c1.4-0.8,3-1.3,4.4-1.9c1.4-0.6,2.9-1.2,4.2-2c-0.1-0.1-0.2-0.2-0.2-0.2c-0.3,0.2-0.6,0.5-0.9,0.7c0.1,0.1,0.1,0.2,0.2,0.3
				c0.3-0.3,0.6-0.6,1-0.8c-0.1-0.1-0.2-0.2-0.2-0.2c-1.6,2.3-3.6,4-3.4,7c0.1,0.9,0.2,1.9,0,2.8c-0.2,1-0.8,1.8-1.2,2.7
				c-0.6,1.2-1.1,2.4-1.2,3.8c-0.2,2.2,0.7,4.2,3.1,4.2c1.2,0,2.4-0.5,3.5-1c0.8-0.4,1.6-0.8,2.5-1.1c0.8-0.3,1.5-0.1,2.4-0.1
				c0.2,0,0.2-0.3,0-0.3c-0.1,0-0.2,0-0.4,0c-0.2,0-0.2,0.3,0,0.3c0.1,0,0.2,0,0.4,0c0-0.1-0.1-0.2-0.1-0.3c-0.8,1-0.1,1.9,0.8,2.5
				c0.6,0.5,1.4,0.8,2.1,1.1c0.3,0.1,0.6,0.3,1,0.4c0.1,0,0.4,0.1,0.4,0.2c0.2,0.2,0-0.2-0.1,0.2c-0.4,0.8-1.3,1.4-1.7,2.3
				c-0.3,0.7-0.4,1.4-0.1,2c0.6,1.7,2.6,2.3,4.3,2.4c0.2,0,0.2-0.3,0-0.3c-1.5-0.1-3.4-0.6-4-2.3c-0.6-1.7,1.1-3.1,2.1-4.3
				c0.1-0.1,0.1-0.2,0-0.3c-1.2-0.5-0.5,1.4,0.1,0.2c0.1-0.1,0-0.2-0.1-0.2c-1.2-0.4-5.7-1.9-4.3-3.8c0.1-0.1,0-0.2-0.1-0.3
				c-0.1,0-0.2,0-0.4,0c-0.2,0-0.2,0.3,0,0.3c0.1,0,0.2,0,0.4,0c0-0.1,0-0.2,0-0.3c-0.5,0-0.9-0.2-1.3-0.2c-0.6,0-1.2,0.3-1.7,0.5
				c-1.1,0.5-2.2,1.1-3.3,1.5c-1.3,0.5-3.1,0.7-4.1-0.4c-1.1-1.2-0.7-3.6-0.2-5c0.4-1.3,1.2-2.3,1.7-3.5c0.5-1.2,0.4-2.4,0.3-3.6
				c-0.1-1.6,0.2-2.9,1.1-4.2c0.7-1,1.5-1.9,2.2-2.8c0.1-0.1-0.1-0.3-0.2-0.2c-0.4,0.2-0.7,0.5-1,0.8c-0.1,0.1,0,0.4,0.2,0.3
				c0.5-0.2,0.8-0.5,1.1-0.9c0.1-0.1-0.1-0.3-0.2-0.2c-2.4,1.4-5.1,2.4-7.7,3.4c-1.7,0.7-3.6,2.2-4.3,3.8c-0.4,1-0.6,2-1.1,3
				c-0.1,0.2-0.2,0.4-0.4,0.6c-0.7,0.9-1.1,1.1-1.7,0.5c-0.7-0.6-0.7-1.4-0.7-2.3c0-1.2,0-2.3-0.3-3.4c-0.4-1.4-0.9-2.7-1.3-4.1
				c0-0.1-0.2-0.2-0.3,0c-0.1,0.3-0.8,1.8,0.1,1.7c0.7-0.1,0.3-1.3,0.2-1.7c0-0.1-0.2-0.2-0.3,0c-0.2,0.3-0.3,0.5-0.5,0.8
				c-0.1,0.2,0.2,0.3,0.3,0.2C89.8,9.3,90,9,90.1,8.7c-0.1,0-0.2-0.1-0.3-0.1c-0.6,2.2-2,4.4-4.3,5c-2,0.6-4.3,0.4-5.2-1.8
				c-0.1-0.2-0.3-0.1-0.3,0.1c0,0.9,0.1,1.8,0.3,2.6C80.3,14.8,80.6,14.7,80.6,14.5L80.6,14.5z"/>
		</g>
	</g>
	<g>
		<g>
			<path class="st20" d="M101.7,62.5c-0.4-0.3-0.9-0.6-1.3-0.9c-0.1-0.1-0.2,0-0.2,0.1c0,0.1,0,0.2,0.1,0.2c0.4,0.3,0.9,0.6,1.3,0.9
				c0.1,0.1,0.2,0,0.2-0.1C101.8,62.6,101.8,62.5,101.7,62.5L101.7,62.5z"/>
		</g>
	</g>
	<g>
		<g>
			<path class="st20" d="M113.8,52.4c1.5,0.9,3,1.9,4.4,3.1c0-0.1,0.1-0.2,0.1-0.3c-0.3,0.1-0.3,0.2-0.1,0.3c0-0.1,0.1-0.2,0.1-0.3
				c-1.4,0.1-2.8,1.1-2.5,2.7c0.3,2.1,2.2,3.6,3.3,5.3c0.1-0.1,0.1-0.2,0.2-0.2c-1.1-0.3-2.3-0.8-3.5-0.7c-0.5,0-0.9,0.2-1.2,0.5
				c-0.5,0.4-0.6,0.9-0.8,1.5c-0.7,2.6-4.5,1.6-6.4,1.2c-0.2,0-0.3,0.3-0.1,0.3c1.8,0.4,4.5,1.1,6.1-0.3c0.9-0.8,0.6-2.5,2-2.8
				c1.2-0.3,2.6,0.3,3.8,0.6c0.1,0,0.3-0.1,0.2-0.2c-0.9-1.3-2.1-2.5-2.8-3.9c-0.4-0.7-0.7-1.6-0.3-2.4c0.4-0.7,1.2-1.1,2-1.1
				c0.2,0,0.2-0.2,0.1-0.3c-0.6-0.8-1,0.4-0.1,0.3c0.1,0,0.2-0.2,0.1-0.3c-1.4-1.2-2.9-2.2-4.5-3.2C113.8,52,113.6,52.3,113.8,52.4
				L113.8,52.4z"/>
		</g>
	</g>
	<g>
		<g>
			<path class="st20" d="M102.4,40.9c-0.6,2.2,1,4,2.6,5.4c0.2,0.1,0.4-0.1,0.2-0.2c-1.5-1.3-3.1-2.9-2.5-5
				C102.8,40.8,102.5,40.7,102.4,40.9L102.4,40.9z"/>
		</g>
	</g>
	<g>
		<g>
			<path class="st20" d="M105.7,9.2c-4.1,4.7-7.1,10.2-9.6,15.9c-0.1,0.2,0.2,0.4,0.3,0.2c2.5-5.6,5.5-11.1,9.6-15.8
				C106.1,9.3,105.8,9.1,105.7,9.2L105.7,9.2z"/>
		</g>
	</g>
	<g>
		<g>
			<path class="st20" d="M103.1,31.4c1.8,0.2,3.6,0.6,5.5,0.8c0.2,0,0.3-0.3,0.1-0.3c-1.9-0.3-3.7-0.6-5.5-0.8
				C102.9,31.1,102.9,31.4,103.1,31.4L103.1,31.4z"/>
		</g>
	</g>
</g>
<g>
	<g>
		<g>
			<path class="st20" d="M27.4,63c-0.4-0.2-0.7-0.4-1.1-0.6c0,0.1-0.1,0.2-0.1,0.3c0.2,0,0.3,0.1,0.5,0.1c0-0.1,0.1-0.2,0.1-0.3
				c-0.2,0-0.3-0.1-0.5-0.1c0,0.1-0.1,0.2-0.1,0.3c0.9,0.2,1.9,0,2.6-0.6c0.3-0.3,0.7-0.6,0.9-1c0.2-0.5,0.4-1,0.7-1.4
				c0.2-0.4,0.3-0.8,0.4-1.2c0.1-0.6,0.2-1.1,0.1-1.7c-0.2-1.1-0.9-2-1.3-3c-0.1-0.2-0.4,0-0.3,0.2c0.4,0.9,0.9,1.7,1.2,2.6
				c0.1,0.5,0.2,1,0.1,1.5c-0.1,0.5-0.1,0.9-0.4,1.3c-0.2,0.4-0.4,0.7-0.6,1c-0.2,0.4-0.3,0.8-0.6,1.1c-0.7,0.8-1.7,1.1-2.7,0.8
				c-0.2-0.1-0.3,0.3-0.1,0.3c0.2,0.1,0.3,0.1,0.5,0.1c0.2,0,0.3-0.3,0.1-0.3c-0.2-0.1-0.3-0.1-0.5-0.1c-0.2,0-0.3,0.2-0.1,0.3
				c0.3,0.2,0.7,0.4,1.1,0.6C27.5,63.4,27.6,63.1,27.4,63L27.4,63z"/>
		</g>
	</g>
	<g>
		<g>
			<path class="st20" d="M34.8,75.6c1.6-0.5,3-1.4,4.1-2.8c0.5-0.6,0.7-1.3,0.5-2.1c-0.2-0.8-0.8-1.4-1.2-2.1
				c-0.1-0.2-0.4,0-0.3,0.2c0.3,0.6,0.8,1.2,1.1,1.8c0.3,0.8,0,1.5-0.5,2.1c-1,1.2-2.3,2-3.8,2.5C34.5,75.3,34.6,75.7,34.8,75.6
				L34.8,75.6z"/>
		</g>
	</g>
	<g>
		<g>
			<path class="st20" d="M34.8,84.9c-2.9-0.1-5.7,0.6-8.5,1.3c0.1,0.1,0.1,0.2,0.2,0.3c0.9-0.8,2.9-2.6,1.4-3.8
				c-2-1.5-4.8,0.1-7,0.2c0,0.1,0,0.2,0,0.3c0.2-0.1,0.4-0.1,0.6-0.1c0-0.1,0-0.2,0-0.3c-0.2,0-0.4,0.1-0.6,0.1
				c0,0.1,0.1,0.2,0.1,0.3c0.2-0.2,0.7-0.4,0.9-0.6c-0.1,0.2-0.8,0.3-1.1,0.3c0,0.1,0.1,0.2,0.1,0.3c1.7-1.1,3.4-2.2,5.2-3.2
				c1.3-0.8,2.7-1.6,3.7-2.9c0.1-0.2-0.2-0.3-0.3-0.2c-1,1.4-2.6,2.1-4,3c-1.6,1-3.2,1.9-4.7,3c-0.2,0.1-0.1,0.4,0.1,0.3
				c0.3-0.1,1.8-0.3,1.4-0.9c-0.3-0.5-1.3,0.4-1.6,0.6c-0.1,0.1,0,0.3,0.1,0.3c0.2,0,0.4,0,0.7-0.1c0.2,0,0.1-0.3,0-0.3
				c-0.2,0-0.4,0-0.7,0.1c-0.2,0-0.1,0.3,0,0.3c1.9-0.1,4-1.2,5.9-0.7c0.5,0.1,1.1,0.4,1.3,0.9c0.1,0.4-0.1,0.8-0.3,1.2
				c-0.4,0.6-1,1.1-1.5,1.6c-0.1,0.1,0,0.3,0.2,0.3c2.8-0.7,5.5-1.4,8.4-1.3C35,85.3,35,85,34.8,84.9L34.8,84.9z"/>
		</g>
	</g>
	<g>
		<g>
			<path class="st20" d="M40.9,60.1c-1.9,0.6-3.9,1.1-5.8,1.6c-0.2,0.1-0.1,0.4,0.1,0.3c1.9-0.5,3.9-1,5.8-1.6
				C41.2,60.4,41.1,60.1,40.9,60.1L40.9,60.1z"/>
		</g>
	</g>
</g>
<g>
	<g>
		<g>
			<path class="st20" d="M44.2,122.3c-2.2,1.3-4.5,2.5-6.8,3.8c-0.2,0.1,0,0.4,0.2,0.3c0.2-0.1,0.4-0.2,0.6-0.4
				c0.2-0.1,0-0.4-0.2-0.3c-0.2,0.1-0.4,0.2-0.6,0.4c0.1,0.1,0.1,0.2,0.2,0.3c1-0.6,2-1.5,1.8-2.8c-0.2-1.3-1.6-2.1-2.8-2.5
				c-3.7-1.2-7.9-0.1-11.6,0.8c0.1,0.1,0.1,0.2,0.2,0.3c0.7-0.7,2.8-2.5,1.7-3.6c-0.7-0.7-2.1-0.7-3-0.6c-1.5,0.1-2.9,0.6-4.3,0.7
				c0,0.1,0.1,0.2,0.1,0.3c0.2-0.1,0.5-0.3,0.7-0.4c0.1-0.1,0.6-0.4,0.3-0.3c-0.3,0-0.7,0.4-1.1,0.5c0,0.1,0.1,0.2,0.1,0.3
				c2.7-1.8,5.8-3.2,8.2-5.5c0.6-0.6,1.4-1.5,1.1-2.4c-0.3-0.8-1.2-1-2-1.1c-0.2,0-0.3,0.2-0.1,0.3c2.4,1.3,5,1.9,7.5,0.4
				c1.5-0.9,4.8-2.1,3.9-4.4c-0.9-2.2-3.4-3.8-5.4-4.7c-2.5-1.2-5.2-2-7.6-3.5c0,0.1-0.1,0.2-0.1,0.3c0.2,0,0.4,0.1,0.6,0.1
				c0-0.1,0.1-0.2,0.1-0.3c-0.2,0-0.4-0.1-0.6-0.1c0,0.1-0.1,0.2-0.1,0.3c1,0.2,1.8,0.1,2.6-0.6c0.4-0.4,0.7-0.9,1-1.5
				c0.1-0.2,0.1-0.5,0.3-0.7c0.2-0.3,0.3-0.2,0.5-0.5c1.8-1.9-0.6-5.5-1.7-7.2c-0.1,0.1-0.1,0.2-0.2,0.2c0.1-0.1,0.1-0.2,0.2-0.2
				c-0.1,0.1-0.1,0.2-0.2,0.2c1.6,0.5,3.2,0.9,4.7,1.4c0.2,0.1,0.3-0.3,0.1-0.3c-1.6-0.5-3.1-0.9-4.7-1.4c-0.1,0-0.3,0.1-0.2,0.2
				c0.6,1,1.6,0.2,0.2-0.2c-0.1,0-0.3,0.1-0.2,0.2c1.1,1.8,3.2,4.9,1.6,6.8c-0.1,0.1-0.2,0.1-0.3,0.2c-0.2,0.2-0.4,1-0.5,1.3
				c-0.6,1.3-1.6,1.9-3,1.6c-0.2-0.1-0.3,0.3-0.1,0.3c0.2,0.1,0.4,0.1,0.6,0.1c0.2,0,0.3-0.3,0.1-0.3c-0.2-0.1-0.4-0.1-0.6-0.1
				c-0.2,0-0.3,0.2-0.1,0.3c3.5,2.1,7.8,2.8,10.9,5.5c0.8,0.7,2,1.8,2.1,2.8c0.2,1.7-1.8,2.4-3,3.1c-1.3,0.7-2.4,1.5-4,1.4
				c-1.5-0.1-2.8-0.6-4.1-1.3c0,0.1-0.1,0.2-0.1,0.3c0.4,0.1,0.9,0.1,1.2,0.3c1.1,0.8,0.2,1.8-0.4,2.4c-0.7,0.7-1.6,1.4-2.4,2
				c-1.9,1.3-3.9,2.3-5.8,3.6c-0.2,0.1-0.1,0.3,0.1,0.3c0.4-0.1,1.3-0.3,1.5-0.8c0-0.1,0-0.1,0-0.2c-0.4-0.3-1.3,0.5-1.6,0.7
				c-0.1,0.1-0.1,0.3,0.1,0.3c1.8-0.1,3.6-0.9,5.5-0.7c0.7,0.1,1.7,0.2,1.8,1.1c0,0.3-0.3,0.8-0.5,1.1c-0.4,0.6-0.9,1-1.4,1.5
				c-0.1,0.1,0,0.3,0.2,0.3c2.7-0.7,5.5-1.4,8.3-1.3c1.3,0,2.7,0.2,3.9,0.8c0.6,0.3,1.2,0.7,1.5,1.2c0.8,1.4-0.3,2.4-1.3,3.1
				c-0.2,0.1,0,0.4,0.2,0.3c0.2-0.1,0.4-0.2,0.6-0.4c-0.1-0.1-0.1-0.2-0.2-0.3c-0.2,0.1-0.4,0.2-0.6,0.4c0.1,0.1,0.1,0.2,0.2,0.3
				c2.2-1.3,4.5-2.5,6.8-3.8C44.6,122.4,44.4,122.1,44.2,122.3L44.2,122.3z"/>
		</g>
	</g>
	<g>
		<g>
			<path class="st20" d="M53.1,114.6c-1,2-2.7,3.6-4.5,4.9c-0.2,0.1,0,0.4,0.2,0.3c1.9-1.3,3.6-2.9,4.6-5
				C53.5,114.6,53.2,114.4,53.1,114.6L53.1,114.6z"/>
		</g>
	</g>
	<g>
		<g>
			<path class="st20" d="M67.8,110.3c-3.6,0.8-7.8,2.1-11.3,0.3c-0.2-0.1-0.4,0.2-0.2,0.3c3.6,1.9,7.9,0.6,11.6-0.2
				C68.1,110.6,68,110.3,67.8,110.3L67.8,110.3z"/>
		</g>
	</g>
	<g>
		<g>
			<path class="st20" d="M53.4,114.5c0.5-0.7,0.9-1.5,1.4-2.2c0.5-0.7,1.1-1.2,2-1.2c0.2,0,0.2-0.3,0-0.3c-2,0-2.7,2.2-3.6,3.6
				C53,114.5,53.3,114.7,53.4,114.5L53.4,114.5z"/>
		</g>
	</g>
	<g>
		<g>
			<path class="st20" d="M45.8,108.3c-2.1,1.5-4,3.2-5.9,5c-0.2,0.1,0.1,0.4,0.2,0.2c1.9-1.7,3.8-3.4,5.9-4.9
				C46.2,108.5,46,108.2,45.8,108.3L45.8,108.3z"/>
		</g>
	</g>
	<g>
		<g>
			<path class="st20" d="M55.8,108.9c1.7-0.4,3.4-0.9,5.1-1.4c0.2-0.1,0.1-0.4-0.1-0.3c-1.7,0.5-3.4,1-5.1,1.4
				C55.5,108.6,55.6,108.9,55.8,108.9L55.8,108.9z"/>
		</g>
	</g>
	<g>
		<g>
			<path class="st20" d="M38.7,96.1c-1.6,0.5-3.3,0.9-4.9,1.4c-0.2,0.1-0.1,0.4,0.1,0.3c1.6-0.4,3.3-0.9,4.9-1.4
				C39,96.3,38.9,96,38.7,96.1L38.7,96.1z"/>
		</g>
	</g>
</g>
<g>
	<g>
		<g>
			<path class="st20" d="M100.7,85.2c-0.1,1.9,0.7,4.6,2.8,4.9c1.4,0.2,2.7-0.7,3.7-1.5c1.6-1.2,3.1-2.6,5.2-2.7c0-0.1,0-0.2,0-0.3
				c-0.1,0-0.2,0-0.4,0c0,0.1,0,0.2,0,0.3c-0.1,0,0.1,0.8,0.2,0.9c0.2,0.4,0.6,0.6,1,0.8c0.6,0.3,1.2,0.6,1.8,0.9
				c0.4,0.1,0.8,0.3,1.1,0.4c0.4,0.1,0.8,0,1.2,0.1c0-0.1,0-0.2-0.1-0.3c-1.4,1.7-2.7,4.3-0.6,6c2.1,1.7,5.1,0.6,7.4-0.1
				c0.2-0.1,0.1-0.4-0.1-0.3c-0.5,0.1-0.9,0.2-1.4,0.3c-0.2,0-0.1,0.4,0.1,0.3c0.5-0.1,0.9-0.2,1.4-0.3c0.2,0,0.1-0.4,0-0.3
				c-2.1,0.2-3.9,0.4-5.4,2c-0.8,0.8-1.5,1.7-2.5,2.3c-1.3,0.7-2.6,0.5-3.9,0c-1.7-0.6-3.4-1.1-5,0c-1.5,1.1-2.2,3.1-2.7,4.8
				c-0.1,0.2,0.3,0.3,0.3,0.1c0.6-1.9,1.5-4.5,3.6-5.1c2-0.6,3.8,0.9,5.7,1c1.6,0.1,2.8-0.9,3.8-1.9c0.7-0.7,1.3-1.5,2.2-2
				c1.2-0.7,2.6-0.7,3.9-0.8c0-0.1,0-0.2,0-0.3c-0.5,0.1-0.9,0.2-1.4,0.3c0,0.1,0.1,0.2,0.1,0.3c0.5-0.1,0.9-0.2,1.4-0.3
				c0-0.1-0.1-0.2-0.1-0.3c-1.9,0.6-4,1.4-6,0.7c-3.1-1.1-2-4.2-0.5-6.1c0.1-0.1,0.1-0.2-0.1-0.3c-1.2-0.3-0.1,1.4,0.1,0.2
				c0-0.1,0-0.2-0.2-0.2c-1.5,0-2.8-0.6-4.1-1.3c-0.6-0.3-0.7-0.8-1-1.3c-0.1-0.2,0-0.2-0.1-0.4c0,0-0.1-0.1-0.2,0
				c-0.1,0-0.1,0-0.2,0.1c-0.2,0.1-0.2,0.3,0,0.3c0.1,0,0.2,0,0.4,0c0.2,0,0.2-0.3,0-0.3c-2.7,0.1-4.4,2.4-6.6,3.6
				c-3.1,1.8-4.9-1.3-4.8-4.1C101,85,100.7,85,100.7,85.2L100.7,85.2z"/>
		</g>
	</g>
	<g>
		<g>
			<path class="st20" d="M77.1,110.9c-1.6-0.4-3.2-0.9-4.7-1.5c-0.2-0.1-0.3,0.3-0.1,0.3c1.6,0.5,3.1,1.1,4.7,1.5
				C77.2,111.3,77.3,110.9,77.1,110.9L77.1,110.9z"/>
		</g>
	</g>
	<g>
		<g>
			<path class="st20" d="M84.8,111.1c-0.7,0.2-1.5,0.4-2.3,0.4c-0.2,0-0.2,0.4,0,0.3c0.8-0.1,1.6-0.2,2.4-0.4
				C85.1,111.4,85,111,84.8,111.1L84.8,111.1z"/>
		</g>
	</g>
	<g>
		<g>
			<path class="st20" d="M97,118.3c-2.8-1.9-6.1-4.1-7.1-7.5c-0.1-0.2-0.4-0.1-0.3,0.1c1,3.6,4.3,5.8,7.2,7.7
				C97,118.7,97.2,118.4,97,118.3L97,118.3z"/>
		</g>
	</g>
	<g>
		<g>
			<path class="st20" d="M114.2,110.9c2.9,1.5,6.2,2.1,9,3.8c0-0.1,0-0.2,0-0.3c-5,1.4,0.6,5.9,2.3,7.6c0-0.1,0.1-0.2,0.1-0.3
				c-1.5-0.1-3.5-0.5-4.7,0.6c-0.6,0.6-0.6,1.4-0.8,2.2c-0.4,1.7-2.5,1.9-3.9,1.9c-5.7,0.2-11-2.9-15.7-5.8
				c-0.2-0.1-0.4,0.2-0.2,0.3c4.5,2.8,9.6,5.7,15,5.8c1.5,0,4.2,0.1,4.9-1.6c0.6-1.3,0.1-2.6,1.9-3.1c1.1-0.3,2.3,0,3.4,0
				c0.2,0,0.2-0.2,0.1-0.3c-1.6-1.6-7-5.8-2.4-7.1c0.1,0,0.2-0.2,0-0.3c-2.8-1.7-6.1-2.3-9-3.8C114.1,110.5,114,110.8,114.2,110.9
				L114.2,110.9z"/>
		</g>
	</g>
	<g>
		<g>
			<path class="st20" d="M104.9,103.4c-0.1,0.7,0.1,1.5,0.5,2.1c0.1,0.2,0.4,0,0.3-0.2c-0.3-0.5-0.6-1.2-0.5-1.8
				c0-0.1,0-0.2-0.1-0.2C105,103.3,104.9,103.3,104.9,103.4L104.9,103.4z"/>
		</g>
	</g>
	<g>
		<g>
			<path class="st20" d="M85,111.3c1.5-0.2,3.5-1.2,4.8,0.1c0.2,0.2,0.4-0.1,0.2-0.2c-1.4-1.4-3.4-0.4-5.1-0.2
				C84.7,111,84.8,111.3,85,111.3L85,111.3z"/>
		</g>
	</g>
	<g>
		<g>
			<path class="st20" d="M108.4,121.5c0.4,0.5,0.8,1,1.2,1.5c0.1,0.1,0.1,0.1,0.2,0.1c0.1,0,0.1-0.2,0.1-0.2
				c-0.4-0.5-0.8-1.1-1.3-1.6c-0.1-0.1-0.2-0.1-0.2,0C108.3,121.4,108.4,121.5,108.4,121.5L108.4,121.5z"/>
		</g>
	</g>
	<g>
		<g>
			<path class="st20" d="M90.7,109.1c2.3,1.5,4.8,2.9,7.2,4.3c0.2,0.1,0.4-0.2,0.2-0.3c-2.4-1.4-4.9-2.8-7.2-4.3
				C90.7,108.7,90.6,109,90.7,109.1L90.7,109.1z"/>
		</g>
	</g>
	<g>
		<g>
			<path class="st20" d="M99.2,94.9c3.3-1.1,6.7-1.1,10.1-1.1c0.2,0,0.2-0.3,0-0.3c-3.4,0-6.9,0.1-10.2,1.1
				C98.9,94.6,99,94.9,99.2,94.9L99.2,94.9z"/>
		</g>
	</g>
</g>
<g>
	<g>
		<g>
			<path class="st20" d="M52,130.3c0.6-1.4,0.8-2.9,0.8-4.4c0.1-1.5-0.2-3.1,0.7-4.4c1.3-2,3.9-2.8,5.9-4c4.4-2.4,1.8-7.3-0.1-10.5
				c-0.1-0.2-0.4,0-0.3,0.2c1.1,1.9,2.4,4.1,2.5,6.4c0.1,2.8-2.5,3.8-4.6,4.9c-1.6,0.8-3.3,1.8-4,3.5c-0.5,1.1-0.3,2.2-0.4,3.4
				c0,1.7-0.2,3.4-0.9,5C51.6,130.4,51.9,130.5,52,130.3L52,130.3z"/>
		</g>
	</g>
	<g>
		<g>
			<path class="st20" d="M69.2,129.8c-3-0.9-5.9,0.7-8.2,2.7c-0.2,0.1,0.1,0.4,0.2,0.2c0.1-0.1,0.2-0.2,0.3-0.3
				c-0.1-0.1-0.2-0.2-0.2-0.2c-0.1,0.1-0.2,0.2-0.3,0.2c0.1,0,0.2,0.1,0.2,0.1c-0.1-0.3-0.2-0.7-0.2-1.1c0-0.5,0.1,0.2,0.1,0.4
				c0,0.2-0.1,0.5-0.2,0.7c0.1,0,0.2,0,0.3,0c-0.6-2-1.2-4.7-3.4-5.5c-2.5-1-4.9,1.3-6.2,3.2c-0.1,0.2,0.2,0.3,0.3,0.2
				c1.3-1.9,3.8-4.2,6.2-2.8c1.8,1,2.2,3.3,2.8,5.1c0.1,0.2,0.3,0.2,0.3,0c0.1-0.3,0.6-2.1-0.3-1.8c-0.6,0.2-0.2,1.4-0.1,1.8
				c0,0.1,0.2,0.2,0.2,0.1c0.2-0.1,0.2-0.1,0.3-0.3c0.2-0.2-0.1-0.4-0.2-0.2c-0.1,0.1-0.2,0.2-0.3,0.3c0.1,0.1,0.2,0.2,0.2,0.2
				c2.1-1.9,4.9-3.4,7.9-2.6C69.3,130.2,69.4,129.8,69.2,129.8L69.2,129.8z"/>
		</g>
	</g>
	<g>
		<g>
			<path class="st20" d="M90.4,112.6c-0.5,1.7,0.5,3.2,1.3,4.6c1.3,2.1,2.4,4.5,2.6,7c0.4,4.5-2.2,8.6-2,13.1c0.1,0,0.2,0,0.3,0
				c0-0.4,0-0.8,0-1.2c-0.1,0-0.2,0-0.3,0c0,0.4,0,0.8,0,1.2c0.1,0,0.2,0,0.3,0c-0.1-0.3-0.6-1.1-0.5-1.5c0.2,0,0.3,0.2,0.2,0.4
				c0,0.2,0,0.3,0,0.5c0,0.2,0,0.5,0,0.7c0.1,0,0.2,0,0.3,0c-1.2-2.9-1.8-7.1-5-8.6c-1-0.4-1.9-0.7-2.7-1.5c-0.6-0.6-1-1.3-1.5-2
				c-0.7-1.2-1.4-2.4-2.2-3.6c-1.3-2-3.2-4.1-5.8-4c-2.3,0.1-3.7,1.7-4.3,3.8c-0.8,2.7-0.4,6-2.1,8.4c-0.1,0.2,0.2,0.3,0.3,0.2
				c2.3-3.3,0.4-10.5,5-11.9c6-1.8,7.4,7.3,11,9.9c0.6,0.5,1.4,0.7,2.1,1c1.1,0.5,1.8,1.3,2.4,2.4c1.1,1.9,1.5,4,2.3,6
				c0.1,0.2,0.3,0.2,0.3,0c0-0.4,0.3-2.4-0.5-2.3c-0.9,0.1,0,1.9,0.2,2.3c0.1,0.2,0.3,0.2,0.3,0c0-0.4,0-0.8,0-1.2
				c0-0.2-0.3-0.2-0.3,0c0,0.4,0,0.8,0,1.2c0,0.2,0.3,0.2,0.3,0c-0.1-4.3,2.3-8.3,2.1-12.6c-0.1-1.9-0.7-3.8-1.6-5.5
				c-0.9-2-3.1-4.2-2.5-6.5C90.8,112.5,90.5,112.4,90.4,112.6L90.4,112.6z"/>
		</g>
	</g>
	<g>
		<g>
			<path class="st20" d="M91.7,133.7c-2-7.1-5.3-13.8-9.2-20.1c-0.1-0.2-0.4,0-0.3,0.2c3.8,6.3,7.1,12.9,9.1,20
				C91.4,134,91.7,133.9,91.7,133.7L91.7,133.7z"/>
		</g>
	</g>
	<g>
		<g>
			<path class="st20" d="M73.8,106.3c-1.2,5.8-6.1,9.6-9.6,14c-0.1,0.2,0.1,0.4,0.2,0.2c3.6-4.4,8.4-8.3,9.7-14.1
				C74.2,106.2,73.8,106.1,73.8,106.3L73.8,106.3z"/>
		</g>
	</g>
</g>
<g>
	<g>
		<path class="st20" d="M55.2,104.2c1.2,1.1,2.8,1.8,4.2,2.5c0.2,0.1,0.4-0.2,0.2-0.3c-1.4-0.7-3-1.4-4.1-2.5
			C55.3,103.8,55,104.1,55.2,104.2L55.2,104.2z"/>
	</g>
</g>
<g>
	<g>
		<path class="st20" d="M55.1,104c1.8,0.8,3.3,2,4.8,3.2c0.2,0.1,0.3-0.2,0.2-0.3c-1.5-1.2-3.1-2.4-4.8-3.2
			C55.1,103.6,54.9,103.9,55.1,104L55.1,104z"/>
	</g>
</g>
<g>
	<g>
		<path class="st20" d="M56.2,104.8c0.5,0.3,1,0.6,1.5,1c0.1,0.1,0.2,0.1,0.2,0c0.1-0.1,0.1-0.2,0-0.2c-0.5-0.4-1-0.8-1.5-1.1
			C56.2,104.4,56,104.6,56.2,104.8L56.2,104.8z"/>
	</g>
</g>
<g>
	<g>
		<path class="st22" d="M72.1,95.4c-0.6-0.4-1.2-1.3-1.6-1.8c-0.6-0.7-1.3-1.5-2-2c-2.3-1.5-4.8,0.5-7.2,0.6c-0.3,0-0.5,0.5-0.2,0.6
			c2.5,1.2,3.9,3.7,6.4,4.8c0.1-0.2,0.1-0.4,0.2-0.6c-2,0-3.4,0.9-4.6,2.4c-1.3,1.7-2.1,3.6-4.4,4c0.1,0.2,0.2,0.4,0.3,0.6
			c2.5-1.3,5.4,0,8-0.6c-0.1-0.1-0.3-0.3-0.4-0.4c-0.7,1.9-0.4,3.8,0.2,5.7c0.8,2.1,1.7,4.1,1.4,6.3c-0.1,0.3,0.5,0.6,0.6,0.3
			c2-4.5,5.8-7.9,7.5-12.5c-0.2,0-0.4,0.1-0.6,0.1c1.5,2.4-1,5.2,0.9,7.5c1.5,1.9,3.8,3.1,5.2,5.1c0.2,0.2,0.5,0.2,0.6-0.1
			c1-4.1,1.2-8.7-1.1-12.4c-0.1,0.2-0.3,0.3-0.4,0.5c2.4,0.7,7.2,0.8,8.1,3.6c0.1,0.4,0.6,0.3,0.7-0.1c0.3-2.2-1.1-4.1-2.5-5.6
			c-1.6-1.7-3.6-3.2-5.8-4.2c0,0.2-0.1,0.4-0.1,0.6c2-0.6,4.4-1.2,6.3-0.1c0.2,0.1,0.5,0,0.5-0.2c0.9-4.3-6.5-5.7-9.3-4.3
			c0.2,0.2,0.3,0.3,0.5,0.5c0.9-1.8,2.2-3.5,3.1-5.3c0.2-0.3-0.2-0.6-0.5-0.5c-2.6,1.3-7.6,1.6-8.5,4.9c0.2,0,0.4,0.1,0.7,0.1
			c-0.2-2-0.7-3.8-1.6-5.6c-0.1-0.2-0.5-0.2-0.6,0c-1.6,2.5-0.9,5.4,0.3,7.9c0.2-0.1,0.4-0.2,0.6-0.3C68.6,88.6,61,83.2,60.5,75.2
			c0-0.4-0.7-0.4-0.7,0c0.5,8.2,8.1,13.7,12.3,20c0.2,0.4,0.8,0,0.6-0.3c-1.1-2.3-1.7-4.9-0.3-7.2c-0.2,0-0.4,0-0.6,0
			c0.8,1.7,1.3,3.4,1.5,5.3c0,0.4,0.6,0.5,0.7,0.1c0.5-1.7,2.5-2.5,4-3c1.4-0.5,2.8-0.9,4.2-1.5c-0.2-0.2-0.3-0.3-0.5-0.5
			c-0.9,1.8-2.2,3.5-3.1,5.3c-0.2,0.3,0.2,0.6,0.5,0.5c2.3-1.1,9,0,8.3,3.6c0.2-0.1,0.3-0.1,0.5-0.2c-2.1-1.2-4.6-0.7-6.8,0
			c-0.2,0.1-0.4,0.5-0.1,0.6c1.9,0.8,3.7,2.1,5.2,3.6c1.5,1.4,3.1,3.4,2.8,5.6c0.2,0,0.4-0.1,0.7-0.1c-1.1-3.2-5.9-3.2-8.6-4
			c-0.3-0.1-0.5,0.2-0.4,0.5c2.1,3.5,1.9,8,1,11.9c0.2,0,0.4-0.1,0.6-0.1c-1.3-1.9-3.4-3.2-5-4.9c-2.1-2.3,0.5-5.2-1.1-7.8
			c-0.2-0.3-0.5-0.2-0.6,0.1c-1.8,4.5-5.5,7.8-7.5,12.3c0.2,0.1,0.4,0.2,0.6,0.3c0.7-4.3-3.1-7.8-1.6-12c0.1-0.3-0.2-0.5-0.4-0.4
			c-2.7,0.7-5.6-0.7-8.2,0.7c-0.4,0.2-0.1,0.7,0.3,0.6c1.8-0.4,2.9-1.6,3.9-3c1.3-1.9,2.4-3.4,4.9-3.4c0.3,0,0.5-0.5,0.2-0.6
			c-2.5-1.1-3.9-3.6-6.4-4.8c-0.1,0.2-0.1,0.4-0.2,0.6c2.4-0.1,5.1-2.3,7.3-0.3c0.7,0.7,1.4,1.4,2,2.2c0.4,0.4,0.7,1,1.2,1.3
			C72.1,96.2,72.4,95.6,72.1,95.4L72.1,95.4z"/>
	</g>
</g>
<g>
	<g>
		<path class="st22" d="M74,97.2c1.9,2.3,4.4,4.4,5.2,7.4c0.8,3-0.5,6.3,1.1,9.2c0.2,0.4,0.8,0,0.6-0.3c-0.9-1.6-0.8-3.3-0.7-5
			c0.1-1.6,0-3.2-0.6-4.7c-1-2.8-3.3-4.7-5.2-7C74.2,96.4,73.7,96.9,74,97.2L74,97.2z"/>
	</g>
</g>
<g>
	<g>
		<path class="st22" d="M69.3,111.8c0.4-4.7,0.3-10.4,3.7-14.2c0.3-0.3-0.2-0.8-0.5-0.5c-3.5,3.9-3.5,9.7-3.9,14.7
			C68.6,112.2,69.2,112.2,69.3,111.8L69.3,111.8z"/>
	</g>
</g>
<g>
	<g>
		<path class="st22" d="M62.4,102.3c2.7-0.8,5.1-2.4,7.3-4c0.4-0.3,0-0.8-0.3-0.6c-2.2,1.6-4.5,3.2-7.2,3.9
			C61.8,101.7,61.9,102.4,62.4,102.3L62.4,102.3z"/>
	</g>
</g>
<g>
	<g>
		<path class="st22" d="M79.8,88.8c-1.5,1.2-3,2.6-4.3,4.1c-0.3,0.3,0.2,0.8,0.5,0.5c1.3-1.5,2.8-2.9,4.3-4.1c0.1-0.1,0.1-0.4,0-0.5
			C80.1,88.6,79.9,88.7,79.8,88.8L79.8,88.8z"/>
	</g>
</g>
<g>
	<g>
		<path class="st22" d="M87.8,96.7c-1.5-1.5-3.7-2.2-5.8-2.4c-2-0.3-4.3-0.2-6.1,0.9c-0.4,0.2,0,0.8,0.3,0.6c1.7-1,3.9-1,5.8-0.8
			c1.9,0.3,3.9,0.9,5.3,2.2C87.7,97.5,88.1,97,87.8,96.7L87.8,96.7z"/>
	</g>
</g>
<g>
	<g>
		<g>
			<path class="st22" d="M106.5,77.9c1.5-0.2,3.3,0.5,4.6-0.6c1.1-0.9,1.2-2.4,2.1-3.4c0.2-0.2,0-0.7-0.3-0.6
				c-1.7,0.7-3.6,0.3-5.3,1c0.1,0.2,0.2,0.4,0.3,0.6c0.7-0.8,1.1-1.8,1-2.9c-0.1-1.6-0.9-3.1-0.1-4.6c-0.2-0.1-0.4-0.2-0.6-0.3
				c-0.5,1.8-2.5,2.7-3.4,4.3c0.2,0,0.4,0,0.6,0c-1.4-2.7-4.9-2.5-6.7-4.8c-0.3-0.3-0.7,0.1-0.5,0.4c1.3,3,1.2,6.4,2.7,9.4
				c0.1-0.2,0.3-0.3,0.4-0.5c-1.5-0.3-1.9-2.1-3.2-2.8c-1.8-0.9-4,0.2-5.9,0c-0.3,0-0.4,0.3-0.3,0.5c1.6,2.4,3.7,4.6,6.6,5.2
				c0-0.2-0.1-0.4-0.1-0.6c-1.5,0.9-3.5,3.2-5.3,2.4c-0.3-0.1-0.7,0.3-0.4,0.5c2.6,2.1,5.8,1.3,8.7,0.4c-0.1-0.2-0.3-0.3-0.4-0.5
				c-0.6,1.3-1.3,2.7-2.8,3.1c-0.2,0.1-0.3,0.3-0.2,0.5c1.9,2.6,5.9-0.5,6.6-2.7c-0.2,0-0.4,0-0.7,0c0.5,1.3,0.7,2.7,1.2,4
				c0.1,0.3,0.5,0.3,0.7,0c0.6-2,2.8-4.4,1.5-6.6c-0.2,0.2-0.3,0.3-0.5,0.5c1.1,0.8,2.2,1.4,3.5,1.8c0.3,0.1,0.5-0.2,0.4-0.4
				c-0.5-1.9-2.3-3-4.1-3.5c-0.1,0.2-0.1,0.4-0.2,0.7c1.2,0.2,2.5,0.3,3.7,0.3c0.4,0,0.4-0.7,0-0.7c-1.2-0.1-2.4-0.1-3.6-0.3
				c-0.4-0.1-0.6,0.5-0.2,0.7c1.6,0.5,3.1,1.3,3.6,3c0.1-0.1,0.3-0.3,0.4-0.4c-1.2-0.4-2.3-0.9-3.3-1.7c-0.3-0.2-0.6,0.2-0.5,0.5
				c1.1,1.9-1,4.2-1.5,6c0.2,0,0.4,0,0.7,0c-0.5-1.3-0.7-2.7-1.2-4c-0.1-0.3-0.5-0.3-0.7,0c-0.5,1.6-3.9,4.5-5.4,2.5
				c-0.1,0.2-0.1,0.3-0.2,0.5c1.6-0.5,2.5-2,3.2-3.5c0.1-0.2-0.1-0.6-0.4-0.5c-2.6,0.9-5.7,1.7-8.1-0.2c-0.1,0.2-0.3,0.4-0.4,0.5
				c2.3,1,4.2-1.3,6-2.4c0.2-0.1,0.2-0.6-0.1-0.6c-2.7-0.6-4.7-2.6-6.2-4.9c-0.1,0.2-0.2,0.3-0.3,0.5c1.9,0.2,4.7-1.1,6.2,0.4
				c0.9,0.9,1.3,2.1,2.7,2.4c0.3,0.1,0.5-0.2,0.4-0.5c-1.4-3-1.4-6.4-2.7-9.4c-0.2,0.1-0.4,0.3-0.5,0.4c1.7,2.2,5.2,2.1,6.6,4.6
				c0.1,0.2,0.5,0.2,0.6,0c0.9-1.7,2.9-2.5,3.4-4.4c0.1-0.4-0.4-0.6-0.6-0.3c-1.3,2.4,1,5.1-0.8,7.3c-0.2,0.2,0,0.7,0.3,0.6
				c1.7-0.7,3.6-0.3,5.3-1c-0.1-0.2-0.2-0.4-0.3-0.6c-0.7,0.8-0.9,1.9-1.5,2.8c-1.1,1.6-3.1,0.8-4.7,1C106,77.2,106,77.9,106.5,77.9
				L106.5,77.9z"/>
		</g>
	</g>
	<g>
		<g>
			<path class="st22" d="M104.8,77.8c-1.1-0.1-2.2,0-3.4-0.1c-1.2-0.1-2.3-0.4-3.3-1.1c-1.6-1-2.4-2.8-4.4-3.2
				c-0.4-0.1-0.6,0.6-0.2,0.7c1,0.2,1.7,0.8,2.4,1.6c0.7,0.7,1.4,1.4,2.2,1.9c2,1.2,4.4,0.9,6.6,1C105.2,78.5,105.2,77.8,104.8,77.8
				L104.8,77.8z"/>
		</g>
	</g>
	<g>
		<g>
			<path class="st22" d="M99.7,69c2.1,2.3,5,4.9,5.3,8.2c0,0.4,0.7,0.4,0.7,0c-0.3-3.6-3.2-6.2-5.5-8.7C99.9,68.2,99.4,68.7,99.7,69
				L99.7,69z"/>
		</g>
	</g>
	<g>
		<g>
			<path class="st22" d="M107.5,69.7c-0.9,1.7-1.2,3.7-1.4,5.6c0,0.2,0.2,0.3,0.3,0.3c0.2,0,0.3-0.2,0.3-0.3
				c0.2-1.8,0.5-3.6,1.3-5.3C108.3,69.7,107.7,69.4,107.5,69.7L107.5,69.7z"/>
		</g>
	</g>
	<g>
		<g>
			<path class="st22" d="M106.4,84.7c0.1-1.3,0.1-2.7,0-4c0-0.2-0.1-0.3-0.3-0.3c-0.2,0-0.4,0.2-0.3,0.3c0.1,1.3,0.1,2.7,0,4
				C105.7,85.1,106.3,85.1,106.4,84.7L106.4,84.7z"/>
		</g>
	</g>
	<g>
		<g>
			<path class="st22" d="M98.7,85.1c1.5-0.1,2.8-0.9,3.9-1.8c1.1-0.9,2.1-2.1,2.4-3.5c0.1-0.4-0.6-0.6-0.7-0.2
				c-0.3,1.3-1.2,2.3-2.2,3.2c-1,0.8-2.2,1.5-3.5,1.6C98.2,84.5,98.2,85.2,98.7,85.1L98.7,85.1z"/>
		</g>
	</g>
</g>
<g>
	<g>
		<g>
			<path class="st22" d="M46.8,75.7c-0.6,0.6-1.2,1.2-1.6,2c0.2,0,0.4,0,0.6,0c-1.7-3.2-5.9-2.9-8-5.7c-0.3-0.3-0.7,0.1-0.5,0.4
				c1.5,3.6,1.5,7.6,3.2,11.2c0.1-0.2,0.3-0.3,0.4-0.5c-2-0.4-2.4-2.9-4.3-3.5c-2.1-0.7-4.3,0.5-6.4,0.2c-0.3,0-0.4,0.3-0.3,0.5
				c1.9,2.8,4.4,5.4,7.9,6.1c0-0.2-0.1-0.4-0.1-0.6c-1.8,1.1-4,3.9-6.4,2.9c-0.3-0.2-0.7,0.2-0.4,0.5c1.1,1.3,2.8,1.6,4.4,1.6
				c2.1,0,4.1-0.4,6-1.2c-0.2-0.2-0.3-0.3-0.5-0.5c-0.7,1.5-1.6,3.2-3.3,3.8c-0.2,0.1-0.3,0.3-0.2,0.5c2.2,3.1,6.9-0.6,7.7-3.2
				c-0.2,0-0.4,0-0.7,0c0.6,1.5,0.9,3.2,1.4,4.7c0.1,0.3,0.5,0.3,0.7,0c0.3-0.8,0.6-1.6,1-2.4c0.2-0.4-0.4-0.7-0.6-0.3
				c-0.4,0.9-0.8,1.7-1.1,2.6c0.2,0,0.4,0,0.7,0c-0.6-1.5-0.9-3.2-1.4-4.7c-0.1-0.3-0.5-0.3-0.7,0c-0.6,2-4.7,5.5-6.5,3
				c-0.1,0.2-0.1,0.3-0.2,0.5c1.9-0.6,2.9-2.3,3.7-4.1c0.1-0.3-0.1-0.6-0.5-0.5c-1.7,0.7-3.5,1.1-5.3,1.1c-1.5,0-3.2-0.1-4.2-1.4
				c-0.1,0.2-0.3,0.4-0.4,0.5c2.8,1.2,5-1.6,7.1-2.9c0.2-0.1,0.2-0.6-0.1-0.6c-3.3-0.7-5.7-3.1-7.4-5.8c-0.1,0.2-0.2,0.3-0.3,0.5
				c2.1,0.3,4.7-1.2,6.7-0.1c1.6,0.9,1.9,3,3.9,3.3c0.3,0.1,0.5-0.2,0.4-0.5c-1.7-3.5-1.6-7.6-3.2-11.2c-0.2,0.1-0.4,0.3-0.5,0.4
				c2.1,2.7,6.2,2.5,7.9,5.5c0.1,0.2,0.5,0.2,0.6,0c0.4-0.7,0.9-1.3,1.5-1.8C47.6,75.9,47.1,75.4,46.8,75.7L46.8,75.7z"/>
		</g>
	</g>
	<g>
		<g>
			<path class="st22" d="M45,85.2c-1.3-0.1-2.7,0-4-0.1c-1.5-0.1-2.7-0.5-4-1.3c-1.9-1.2-2.9-3.3-5.2-3.8c-0.4-0.1-0.6,0.6-0.2,0.7
				c1.2,0.3,2,1,2.9,1.9c0.8,0.8,1.6,1.6,2.6,2.2c2.3,1.4,5.2,1,7.8,1.2C45.4,85.9,45.4,85.2,45,85.2L45,85.2z"/>
		</g>
	</g>
	<g>
		<g>
			<path class="st22" d="M39,74.7c2.5,2.8,5.9,5.8,6.3,9.8c0,0.4,0.7,0.4,0.7,0c-0.4-4.2-3.8-7.4-6.5-10.3
				C39.2,73.9,38.7,74.4,39,74.7L39,74.7z"/>
		</g>
	</g>
	<g>
		<g>
			<path class="st22" d="M46.8,93.3c0.1-1.6,0.1-3.2-0.1-4.8c0-0.2-0.1-0.3-0.3-0.3c-0.2,0-0.4,0.2-0.3,0.3c0.2,1.6,0.2,3.2,0.1,4.8
				C46.1,93.8,46.8,93.8,46.8,93.3L46.8,93.3z"/>
		</g>
	</g>
	<g>
		<g>
			<path class="st22" d="M37.8,93.8c1.7-0.1,3.3-1,4.6-2.1c1.3-1.1,2.5-2.5,2.9-4.1c0.1-0.4-0.6-0.6-0.7-0.2
				c-0.4,1.5-1.5,2.8-2.6,3.8c-1.2,1-2.6,1.9-4.2,1.9C37.3,93.2,37.3,93.9,37.8,93.8L37.8,93.8z"/>
		</g>
	</g>
</g>
<g>
	<g>
		<path class="st22" d="M46.4,60.6c-0.3,2.2-2.8,1.7-4.1,0.7c-0.9-0.6-1.5-1.6-1.6-2.7c-0.1-1.4,0.3-2.7,0.4-4.1
			c0.2-1.6,0-3-1.1-4.2c-0.1,0.2-0.2,0.4-0.3,0.6c2.1,0.4,4.4,0.9,6.3,2c0.4,0.2,0.7-0.4,0.3-0.6c-1.9-1.2-4.2-1.7-6.4-2.1
			c-0.3-0.1-0.5,0.3-0.3,0.6c2.2,2.7-0.4,6,0.7,9c0.7,1.8,2.9,3.3,4.9,3c1.1-0.1,1.8-1,2-2.1C47.1,60.4,46.5,60.2,46.4,60.6
			L46.4,60.6z"/>
	</g>
</g>
<g>
	<g>
		<path class="st22" d="M39.8,51.5c2.9,1.8,3.8,5.7,6.8,7.4c0.4,0.2,0.7-0.4,0.3-0.6c-1.5-0.9-2.4-2.3-3.3-3.7c-1-1.4-2-2.8-3.5-3.7
			C39.8,50.7,39.5,51.3,39.8,51.5L39.8,51.5z"/>
	</g>
</g>
<g>
	<g>
		<path class="st22" d="M103.5,55.8c-2-3.2-0.8-7.2,2.1-9.4c0.7-0.6,1.6-1,2.5-1.2c0.7-0.2,1.5-0.4,2.3-0.4c0.6,0,0.9,0.3,1.2,0.8
			c0.4,0.7,0.8,1.5,1,2.3c0.6,1.9,1,4.1,0.5,6c-0.3,1.5-1.2,2.6-2.5,3.5c-2,1.3-6.4,2.8-7.2-0.6c-0.4-1.6,1.2-2.7,2.3-3.5
			c1.1-0.9,2.5-1.9,2.7-3.4c0.1-0.4-0.6-0.6-0.7-0.2c-0.5,3-5.7,3.7-5,7.1c0.7,3.8,5.3,2.9,7.7,1.5c1.4-0.8,2.6-1.8,3.1-3.3
			c0.8-2,0.5-4.5-0.1-6.5c-0.3-1-0.6-1.9-1.1-2.8c-0.3-0.6-0.6-1.2-1.2-1.4c-0.6-0.3-1.3-0.1-2,0c-1,0.2-2,0.4-2.9,0.9
			c-3.9,2-5.8,7.1-3.4,11C103.2,56.5,103.8,56.2,103.5,55.8L103.5,55.8z"/>
	</g>
</g>
<g>
	<g>
		<path class="st22" d="M102.9,55.5c-1.2,1-1.7,2.8-0.9,4.2c0.2,0.4,0.8,0,0.6-0.3c-0.3-0.6-0.4-1.3-0.2-1.9c0.2-0.5,0.5-1,0.9-1.3
			c0.1-0.1,0.2-0.3,0.1-0.5C103.2,55.5,103,55.4,102.9,55.5L102.9,55.5z"/>
	</g>
</g>
<g>
	<g>
		<path class="st22" d="M39.8,94.2c-0.8,1-1.5,2.1-1.7,3.4c-0.1,1.1,0.1,2.1,0.5,3.1c0.9,2.2,2.4,4.1,2.5,6.5c0,0.2,0.3,0.5,0.5,0.3
			c2.2-1.7,4.5-3.4,6.2-5.7c1.7-2.2,2.7-5,0.6-7.2c-0.3-0.3-0.8,0.2-0.5,0.5c2,2.2,0.6,4.9-1.1,6.8c-1.6,1.9-3.6,3.5-5.6,5
			c0.2,0.1,0.3,0.2,0.5,0.3c-0.1-2.2-1.3-4.1-2.2-6c-0.4-0.9-0.8-1.9-0.8-3c0-1.3,0.7-2.5,1.5-3.5C40.5,94.4,40,93.9,39.8,94.2
			L39.8,94.2z"/>
	</g>
</g>
<g>
	<g>
		<path class="st22" d="M44.2,90.7c0,1.2-0.6,2.3-1,3.4c-0.4,1.1-0.7,2.3-0.9,3.5c-0.4,2.4-0.5,4.7-0.3,7.1c0,0.4,0.7,0.4,0.7,0
			c-0.1-2.5-0.1-5,0.4-7.4c0.2-1.2,0.5-2.3,1-3.4c0.4-1,0.8-2,0.9-3.2C44.8,90.3,44.2,90.3,44.2,90.7L44.2,90.7z"/>
	</g>
</g>
<g>
	<g>
		<path class="st22" d="M57.1,24c-2-0.6-2.4-2.9-2.4-4.7c0-0.9,0.1-1.9,0.4-2.7c0.3-0.6,0.8-0.8,1.5-0.8c1.2,0,2.4,0.3,3.5,0.8
			c1.5,0.6,2.9,1.4,4.2,2.3c0.8,0.6,2.3,1.9,1.3,2.9c-0.3,0.3,0.2,0.8,0.5,0.5c1-1.1,0.3-2.4-0.6-3.2c-1.3-1.3-3-2.2-4.6-2.9
			c-1.4-0.6-2.8-1.1-4.3-1.1c-0.7,0-1.4,0.3-1.8,0.9c-0.5,0.8-0.6,1.8-0.7,2.7c-0.2,2.3,0.4,5.2,2.9,6C57.3,24.7,57.5,24.1,57.1,24
			L57.1,24z"/>
	</g>
</g>
<g>
	<g>
		<path class="st22" d="M61.2,23.2c0.3-0.7-0.4-1.5-0.8-2c-0.6-0.7-1.3-1.3-1.7-2c-0.2-0.4-0.8,0-0.6,0.3c0.4,0.7,1,1.4,1.6,2
			c0.3,0.3,0.5,0.6,0.7,0.9c0.1,0.1,0.1,0.2,0.2,0.3c0,0,0,0.1,0,0.1c0-0.1,0,0,0,0c0,0,0,0.1,0,0c0,0,0,0.1,0,0
			c-0.1,0.2,0,0.4,0.1,0.5C60.8,23.4,61.1,23.4,61.2,23.2L61.2,23.2z"/>
	</g>
</g>
<g>
	<g>
		<path class="st22" d="M79.6,20.8c0.3-0.7,0.9-1.2,1.5-1.8c0.7-0.6,1.4-1.2,2.2-1.7c0.5-0.3,1.3-0.8,1.9-0.6
			c0.8,0.1,0.6,1.2,0.5,1.8c0,0.3,0.2,0.6,0.5,0.4c0.7-0.5,1.6-0.8,2.4-0.4c0.7,0.3,1.3,1,1.6,1.7c0.6,1.1,0.9,3.2-0.9,3.1
			c-0.4,0-0.4,0.7,0,0.7c1.6,0.1,2.3-1.3,2-2.8c-0.3-1.5-1.3-3-2.8-3.5c-0.9-0.3-1.9,0-2.7,0.5c0.2,0.1,0.3,0.3,0.5,0.4
			c0.1-0.7,0.2-1.6-0.3-2.2c-0.4-0.5-1-0.5-1.5-0.4c-1.5,0.3-3,1.5-4.1,2.6c-0.6,0.5-1.1,1.1-1.5,1.8C78.8,20.8,79.4,21.1,79.6,20.8
			L79.6,20.8z"/>
	</g>
</g>
<g>
	<g>
		<path class="st22" d="M84,21.5c1.3-1,2.1-2.4,3.1-3.6c1-1.2,2.3-2.4,4-2.1c0.4,0.1,0.6-0.6,0.2-0.7c-1.8-0.3-3.3,0.6-4.4,2
			c-1.1,1.2-1.9,2.8-3.2,3.8C83.3,21.2,83.6,21.8,84,21.5L84,21.5z"/>
	</g>
</g>
<g>
	<g>
		<path class="st22" d="M63.3,17.3c0.1-0.9,0.1-1.8,0.2-2.6c0.1-0.6,0.6-2.3,1.4-2.2c0.3,0,0.7,0.4,1,0.5c0.3,0.2,0.7,0.3,1,0.5
			c0.9,0.5,1.6,1,2.1,1.9c0.2,0.3,0.6,0.2,0.6-0.2c0-0.1,0-0.1,0-0.2c0-0.4-0.7-0.4-0.7,0c0,0.1,0,0.1,0,0.2c0,0.4,0.6,0.5,0.7,0.1
			c0.4-2.7,2.7-4.5,5-5.6C76.9,8.6,79.8,8,82.3,9c0-0.2,0-0.4,0-0.7c-2.6,0.7-5.7,2.9-5.1,6c0,0.2,0.3,0.3,0.4,0.2
			c0.7-0.2,1.4-0.1,2.1-0.4c-0.2-0.1-0.3-0.3-0.5-0.4C79.1,14,79,14.3,79,14.5c-0.1,0.3,0.2,0.5,0.4,0.4c0.4-0.1,0.8-0.3,1.2-0.4
			c-0.1-0.1-0.3-0.2-0.4-0.2c0.5,1.4,0.7,3.4-0.3,4.6c-0.3,0.3,0.2,0.8,0.5,0.5c1.2-1.4,1.1-3.7,0.5-5.3c-0.1-0.2-0.2-0.3-0.4-0.2
			c-0.4,0.1-0.8,0.3-1.2,0.4c0.1,0.1,0.3,0.3,0.4,0.4c0.1-0.3,0.1-0.5,0.2-0.8c0.1-0.3-0.2-0.5-0.5-0.4c-0.6,0.3-1.3,0.2-2,0.4
			c0.1,0.1,0.3,0.2,0.4,0.2c-0.5-2.7,2.5-4.5,4.7-5.1c0.4-0.1,0.3-0.5,0-0.7c-2.6-1.1-5.7-0.4-8.2,0.8c-2.4,1.2-4.9,3.2-5.3,6
			c0.2,0,0.4,0.1,0.7,0.1c0-0.1,0-0.1,0-0.2c0-0.4-0.7-0.4-0.7,0c0,0.1,0,0.1,0,0.2c0.2-0.1,0.4-0.1,0.6-0.2c-1.1-1.8-3-2.3-4.6-3.4
			c-0.1-0.1-0.3-0.1-0.3,0c-1.9,1.4-1.8,3.5-2,5.6C62.5,17.7,63.2,17.7,63.3,17.3L63.3,17.3z"/>
	</g>
</g>
<g>
	<g>
		<path class="st22" d="M80.1,8.4c-2.4,1.2-4.8,2.5-6.6,4.5c-1.7,2-2.5,4.5-2.4,7.1c0,0.4,0.7,0.4,0.7,0c-0.1-2.5,0.7-4.9,2.4-6.8
			c1.7-1.9,4-3.1,6.2-4.2C80.9,8.8,80.5,8.2,80.1,8.4L80.1,8.4z"/>
	</g>
</g>
<g>
	<g>
		<path class="st22" d="M71.8,21.4c0-1.3-1.3-2.2-2.2-3c-1.3-1-2.7-1.9-3.6-3.3c-0.5-0.7-0.8-1.4-0.7-2.2c0-0.4-0.6-0.4-0.7,0
			c-0.1,1.5,0.9,2.8,1.9,3.8c1.2,1.1,2.6,1.9,3.7,3.1c0.4,0.4,0.9,0.9,0.9,1.5C71.2,21.8,71.9,21.8,71.8,21.4L71.8,21.4z"/>
	</g>
</g>
<g>
	<g>
		<path class="st22" d="M72.5,21.7c1-0.6,1.9-1.5,2.7-2.4c1-0.9,2-1.7,3.3-2.1c0.4-0.1,0.2-0.8-0.2-0.7c-1.3,0.4-2.4,1.2-3.4,2.1
			c-0.9,0.8-1.7,1.8-2.8,2.4C71.8,21.3,72.1,21.9,72.5,21.7L72.5,21.7z"/>
	</g>
</g>
<path class="st23" d="M27.1,34.5c0,0-4.1,2.7-1.4,8.8c0,0,3.2,6,8.8,3.2c5.6-2.8,0.1-0.1,0.1-0.1s3.2-2.1,3.4-5.6L38,39.8l-0.5-1.3
	c0,0-3.7-0.8-4.1-4.3c0,0-3.2-1.6-5.3-0.3c0,0,0.4,3,2.1,5.1l-0.5,0C29.8,38.9,27.9,37.8,27.1,34.5z"/>
<g>
	<g>
		<path class="st20" d="M27.3,64.4c-2.8,2.1-4,5.8-2.5,9.1c0.6,1.4,1.7,2.6,3.1,3.2c1.5,0.7,3.3,0.7,4.8,0c3-1.2,6.1-4.2,5.5-7.7
			c-0.5-2.7-2.9-4.8-5.4-5.8c-2.4-1-5.8-1.1-6.9,1.8c-0.1,0.2,0.3,0.3,0.3,0.1c0.9-2.4,3.6-2.5,5.7-1.8c2.4,0.7,4.8,2.5,5.7,4.9
			c1.2,3.1-1,5.9-3.5,7.5c-1.5,0.9-3.2,1.5-5,1.1c-1.4-0.3-2.6-1.3-3.4-2.5c-0.9-1.4-1.3-3.1-1.1-4.7c0.2-2,1.4-3.7,2.9-4.9
			C27.7,64.6,27.5,64.3,27.3,64.4L27.3,64.4z"/>
	</g>
</g>
<g>
	<g>
		<path class="st20" d="M28.8,65.8c-0.3,0-0.6,0.2-0.8,0.4c-0.3,0.3-0.6,0.6-0.8,1c-0.2,0.4-0.3,0.9-0.2,1.3
			c0.1,0.5,0.4,0.9,0.8,1.1c0.3,0.2,0.7,0.4,1.1,0.3c0.4-0.1,0.8-0.2,1.1-0.5c0.7-0.5,1.3-1.2,1.5-2c0.1-0.4,0.1-0.8,0-1.2
			c-0.2-0.4-0.6-0.7-1-0.8c-0.2-0.1-0.3,0.3-0.1,0.3c0.3,0.1,0.6,0.3,0.8,0.6c0.1,0.3,0.1,0.6,0.1,0.8c-0.2,0.7-0.6,1.3-1.2,1.8
			c-0.4,0.4-1.1,0.8-1.7,0.5c-0.4-0.2-0.8-0.5-1-0.9c-0.1-0.4-0.1-0.7,0-1.1c0.1-0.4,0.4-0.8,0.7-1.1c0.2-0.2,0.5-0.5,0.7-0.5
			C29,66.1,29,65.8,28.8,65.8L28.8,65.8z"/>
	</g>
</g>
<g>
	<g>
		<path class="st20" d="M29.2,67.5c-0.4-1.1-1.3-2-2.3-2.6c-0.8-0.4-2-0.9-2.7-0.1c-0.5,0.5-0.5,1.3-0.5,1.9c0,0.1,0.2,0.2,0.3,0.1
			c0.5-0.5,0.9-1.1,1.4-1.6c0.1-0.1,0.1-0.2,0-0.2c-0.1-0.1-0.3-0.2-0.5-0.2c-0.2,0-0.5,0-0.6-0.1c-0.2-0.1-0.4,0.1-0.2,0.2
			c0.1,0.1,0.3,0.2,0.5,0.2c0.2,0,0.5,0,0.6,0.1c0-0.1,0-0.2,0-0.2c-0.5,0.5-0.9,1.1-1.4,1.6c0.1,0,0.2,0.1,0.3,0.1
			c0-0.5,0-1.2,0.3-1.6c0.2-0.3,0.6-0.4,1-0.4c1,0,1.9,0.7,2.6,1.4c0.4,0.4,0.8,0.9,0.9,1.5C29,67.8,29.3,67.7,29.2,67.5L29.2,67.5z
			"/>
	</g>
</g>
<g>
	<g>
		<path class="st20" d="M111.8,65.8c-0.7,1.9-0.8,4.1,0.2,5.9c1,1.8,2.9,2.6,4.8,2.4c4-0.4,6.9-4.5,6.4-8.4
			c-0.3-2.4-2.1-3.9-4.5-3.8c-0.2,0-0.2,0.3,0,0.3c2.1-0.1,3.8,1.1,4.2,3.2c0.3,1.7-0.2,3.6-1.1,5.1c-1,1.6-2.5,2.7-4.3,3.1
			c-1.8,0.4-3.8-0.1-4.9-1.7c-1.2-1.8-1.1-4.1-0.3-6C112.3,65.7,111.9,65.6,111.8,65.8L111.8,65.8z"/>
	</g>
</g>
<g>
	<g>
		<path class="st20" d="M116.5,62.5c-0.9,0-1.9,0.3-2.7,0.8c-0.2,0.1,0,0.4,0.2,0.3c0.7-0.5,1.6-0.7,2.5-0.7
			C116.8,62.8,116.8,62.5,116.5,62.5L116.5,62.5z"/>
	</g>
</g>
<g>
	<g>
		<path class="st20" d="M113.5,67.4c0.6,0.3,1.3,0.5,2,0.3c0.5-0.2,0.9-0.7,1.2-1.2c0.2-0.5,0.4-1,0.4-1.5c0-0.3-0.1-0.8-0.5-0.8
			c-0.2,0-0.4,0.2-0.5,0.3c-0.3,0.3-0.5,0.7-0.7,1.1c-0.1,0.1,0,0.3,0.2,0.2c0.1,0,0.4-0.1,0.4-0.3c0-0.1-0.1-0.2-0.3-0.2
			c-0.4-0.1-1,0-1.3,0.2c-0.1,0.1-0.1,0.2,0,0.3c0.5,0.2,0.9,0.6,1.4,0.8c0.1,0.1,0.3,0,0.2-0.2c-0.6-2.3-2.5-3.9-4.1-5.5
			c-0.2-0.2-0.4,0.1-0.2,0.2c1.6,1.6,3.5,3.1,4,5.4c0.1-0.1,0.2-0.1,0.2-0.2c-0.5-0.2-0.9-0.6-1.4-0.8c0,0.1,0,0.2,0,0.3
			c0.2-0.1,0.5-0.2,0.8-0.2c0.1,0,0.3,0,0.3,0c0.1,0,0.1,0.2,0-0.1c0-0.2,0-0.1-0.2,0c0.1,0.1,0.1,0.2,0.2,0.2
			c0.2-0.4,0.5-1,0.9-1.2c0,0,0.1,0,0.1,0.1c0,0.1,0.1,0.3,0.1,0.4c0,0.8-0.4,1.9-1.2,2.3c-0.6,0.3-1.3,0.1-1.9-0.2
			C113.4,67,113.3,67.3,113.5,67.4L113.5,67.4z"/>
	</g>
</g>
<path class="st24" d="M119,36.6c-7.1,0-4.6,14.4,2.7,7.3c3.5-3.5,2.2-9.5-3.3-7.9"/>
<g>
	<g>
		<path class="st20" d="M118.9,42.8c-0.1-0.8,0-1.7,0.5-2.4c0.5-0.7,1.2-0.9,2-0.7c0-0.1,0-0.2,0-0.3c-0.3,0.2-0.6,0.4-0.8,0.6
			c-0.4,0.3-0.8,0.4-1.3,0.5c-0.2,0-0.2,0.2-0.1,0.3c1.3,0.8,2.4,2.1,2.6,3.7c0,0.2,0.4,0.1,0.3-0.1c-0.3-1.7-1.4-3-2.8-3.9
			c0,0.1-0.1,0.2-0.1,0.3c0.5,0,0.9-0.2,1.3-0.4c0.3-0.2,0.6-0.5,0.9-0.7c0.1-0.1,0.1-0.3,0-0.3c-0.9-0.2-1.8,0-2.3,0.7
			c-0.6,0.8-0.7,1.8-0.6,2.7C118.6,43,118.9,43,118.9,42.8L118.9,42.8z"/>
	</g>
</g>
<g>
	<g>
		<path class="st20" d="M35.3,31.3c-0.7,0.3-1.4,0.7-1.8,1.5c-0.3,0.7-0.3,1.4-0.1,2.1c0.4,1.5,1.6,2.9,3.1,3.5
			c0.7,0.3,1.5,0.4,2.3,0.2c0.9-0.2,1.6-0.9,2.1-1.6c0.6-0.9,1-2,0.9-3.1c-0.1-1-0.7-1.9-1.4-2.6c-0.8-0.7-1.8-1.3-2.9-1.3
			c-1.2,0-2.1,0.7-2.7,1.7c-0.1,0.2,0.2,0.4,0.3,0.2c0.5-0.8,1.3-1.4,2.3-1.5c0.9-0.1,1.8,0.3,2.5,0.8c0.7,0.6,1.3,1.3,1.6,2.2
			c0.3,1,0.1,2-0.4,2.9c-0.4,0.8-1,1.5-1.9,1.8c-0.6,0.3-1.3,0.3-2,0.1c-1.4-0.4-2.6-1.6-3.1-2.9c-0.3-0.7-0.4-1.4-0.2-2.1
			c0.2-0.8,0.9-1.3,1.7-1.5C35.5,31.5,35.5,31.2,35.3,31.3L35.3,31.3z"/>
	</g>
</g>
<g>
	<g>
		<path class="st20" d="M37.9,36.7c0.1,0.1,0.3,0,0.3-0.1c0-0.1,0-0.2,0-0.3c-0.1-0.3-0.1-0.6-0.2-0.9c0,0,0-0.1,0-0.1
			c0,0,0,0,0-0.1c0,0,0,0,0,0c0,0,0,0,0,0c0-0.1,0-0.2,0-0.3c0-0.2,0-0.3,0-0.5c0,0,0-0.1,0-0.1c0,0.1,0,0,0,0c0,0,0,0,0-0.1
			c0,0,0-0.1,0-0.1c0,0,0,0,0,0c0,0,0,0,0,0c0,0,0,0,0-0.1c0,0,0,0,0,0c0,0,0,0,0,0c0,0,0,0,0,0c0,0,0,0,0,0c0,0,0,0,0,0
			c0,0,0,0,0,0c0,0,0,0,0,0c0,0,0,0,0,0c0,0,0.1,0,0.1,0c0,0,0,0,0,0c0,0,0,0,0.1,0c0,0,0,0,0.1,0c0,0,0.1,0,0,0
			c0.3,0.1,0.5,0.3,0.7,0.5c0.1,0.1,0.2,0.1,0.2,0c0.1-0.1,0.1-0.2,0-0.2c-0.3-0.3-0.8-0.6-1.2-0.6c-0.3,0-0.5,0.2-0.6,0.5
			c-0.1,0.3-0.1,0.6,0,1c0,0.3,0.1,0.7,0.2,1c0,0.1,0.1,0.3,0.1,0.4c0,0.1,0,0,0,0c0,0,0,0,0,0c0,0,0,0,0,0c0,0,0,0,0,0
			c0.1-0.1,0.2-0.1,0.2,0C38,36.3,37.7,36.5,37.9,36.7L37.9,36.7z"/>
	</g>
</g>
<g>
	<g>
		<path class="st20" d="M37.8,34.8c0.4-0.1,0.9-0.2,1.3,0.1c0.4,0.3,0.5,0.8,0.6,1.2c0.1,0.3,0.1,0.6,0.1,1c0,0.2,0.3,0.2,0.3,0
			c0-1-0.2-2.5-1.4-2.7c-0.3-0.1-0.7,0-1,0.1C37.5,34.6,37.6,34.9,37.8,34.8L37.8,34.8z"/>
	</g>
</g>
<g>
	<g>
		<path class="st20" d="M42.6,112.8c-3.9,0.7-3.5,5.7-1.5,8.2c1.1,1.3,2.8,2,4.4,1.4c1.1-0.4,2.2-1.3,2.9-2.2c0.8-1,1.3-2.2,1.1-3.5
			c-0.2-1.3-1.1-2.5-2.2-3.1c-1.3-0.8-2.9-0.9-4.4-0.5c-0.2,0.1-0.1,0.4,0.1,0.3c2.3-0.6,5.2,0.3,6.1,2.7c0.4,1.1,0.2,2.3-0.5,3.3
			c-0.6,1-1.7,1.9-2.7,2.4c-3.3,1.6-5.9-2.2-5.9-5.1c0-0.8,0.2-1.6,0.6-2.3c0.5-0.7,1.3-1.1,2.1-1.3
			C42.9,113.1,42.8,112.7,42.6,112.8L42.6,112.8z"/>
	</g>
</g>
<g>
	<g>
		<path class="st20" d="M42.5,115.5c0.4,0.4,0.9,0.8,1.5,0.9c0.5,0,0.9-0.3,1.1-0.7c0.2-0.3,0.3-0.7,0.4-1.1
			c0.1-0.2-0.3-0.3-0.3-0.1c-0.1,0.4-0.2,0.7-0.4,1.1c-0.1,0.2-0.3,0.4-0.5,0.4c-0.2,0.1-0.4,0-0.6-0.1c-0.3-0.2-0.6-0.4-0.9-0.7
			C42.6,115.1,42.4,115.3,42.5,115.5L42.5,115.5z"/>
	</g>
</g>
<g>
	<g>
		<path class="st20" d="M43.6,116.5c0.1-1-0.2-2-0.3-3c-0.1-0.5-0.1-0.9,0-1.4c0.1-0.6,0.5-1,1-1.4c0.2-0.1,0-0.4-0.2-0.3
			c-0.9,0.7-1.3,1.6-1.2,2.8c0.1,1.1,0.4,2.2,0.3,3.3C43.3,116.7,43.6,116.7,43.6,116.5L43.6,116.5z"/>
	</g>
</g>
<g>
	<g>
		<path class="st20" d="M27.2,34.3c-3.3,2.4-3.1,7-0.9,10.1c1,1.5,2.6,2.7,4.4,3.1c2,0.4,4-0.4,5.5-1.8c1.8-1.8,2.9-4.8,1.6-7.2
			c-0.1-0.2-0.4,0-0.3,0.2c1.2,2.1,0.3,4.7-1.2,6.4c-1.3,1.6-3.3,2.5-5.4,2.1c-3.4-0.6-5.7-4.1-5.9-7.4c-0.1-2,0.7-3.9,2.3-5.1
			C27.5,34.5,27.3,34.2,27.2,34.3L27.2,34.3z"/>
	</g>
</g>
<g>
	<g>
		<path class="st20" d="M28.5,33.8c1.5-0.5,3.2-0.2,4.6,0.5c0.2,0.1,0.4-0.2,0.2-0.3c-1.5-0.7-3.2-1.1-4.8-0.6
			C28.2,33.5,28.3,33.8,28.5,33.8L28.5,33.8z"/>
	</g>
</g>
<g>
	<g>
		<path class="st20" d="M27,38c0.2,0.9,0.6,1.9,1.4,2.4c0.6,0.4,1.3,0.3,1.9,0c0.7-0.3,1.2-0.9,1.6-1.5c0.4-0.6,0.7-1.3,0.6-2
			c-0.1-0.9-0.7-1.5-1.5-1.8c-0.2-0.1-0.3,0.3-0.1,0.3c0.6,0.2,1.2,0.7,1.3,1.4c0.1,0.6-0.1,1.3-0.4,1.8c-0.6,1-1.9,2.1-3.1,1.6
			c-0.9-0.4-1.2-1.4-1.4-2.2C27.3,37.7,26.9,37.8,27,38L27,38z"/>
	</g>
</g>
<g>
	<g>
		<path class="st20" d="M30.7,39.1c-2.2-0.7-3-3.3-3.2-5.3c-0.2-2.1,0.2-4.7,1.9-6.1c-0.1-0.1-0.2-0.1-0.3-0.2
			c-0.1,0.4-0.1,1-0.3,1.4c-0.2,0.3-0.5,0.5-0.7,0.7c-0.2,0.4-0.2,1-0.3,1.4c-0.1,0.6-0.1,1.3,0,1.9c0.2,2.5,1.1,4.8,2.8,6.7
			c0.1,0.2,0.4-0.1,0.2-0.2c-1.7-1.9-2.6-4.4-2.7-6.9c0-0.6,0-1.2,0.1-1.8c0.1-0.6,0.2-0.8,0.6-1.2c0.5-0.5,0.6-1.1,0.7-1.8
			c0-0.2-0.1-0.3-0.3-0.2c-1.9,1.5-2.3,4.4-2,6.6c0.3,2.1,1.2,4.7,3.4,5.4C30.8,39.5,30.9,39.2,30.7,39.1L30.7,39.1z"/>
	</g>
</g>
<g>
	<g>
		<path class="st20" d="M104.7,113.6c-1.8-1.3-3.4-3.5-2.2-5.7c1-1.8,3.2-2.7,5.2-2.7c2.6,0,4.7,1.5,5.8,3.8
			c0.6,1.3,1.2,2.9,0.8,4.4c-0.3,1.1-1.1,1.9-2.2,2.2c-2.7,0.9-6.1-0.3-8-2.3c-0.2-0.2-0.4,0.1-0.2,0.2c1.9,2,5,3.1,7.7,2.5
			c1.1-0.2,2.2-0.8,2.7-1.8c0.7-1.3,0.5-2.8,0-4.2c-0.9-2.7-2.9-4.9-5.8-5.2c-2.2-0.2-4.6,0.6-6,2.3c-0.7,0.9-1,2-0.7,3.1
			c0.3,1.5,1.5,2.6,2.7,3.5C104.7,114,104.8,113.7,104.7,113.6L104.7,113.6z"/>
	</g>
</g>
<g>
	<g>
		<path class="st20" d="M105.4,116.5c0-0.5,0-0.9,0.1-1.3c0-0.1,0-0.2-0.1-0.2c-0.1,0-0.2,0-0.2,0.1c-0.2,0.5-0.2,0.9-0.2,1.4
			c0,0.1,0.1,0.2,0.2,0.2C105.3,116.7,105.4,116.6,105.4,116.5L105.4,116.5z"/>
	</g>
</g>
<g>
	<g>
		<path class="st20" d="M103.3,117.7c-0.2,1.2-0.4,2.5,0.2,3.6c0.3,0.5,0.8,0.9,1.4,0.9c0.6,0,1.2-0.3,1.4-0.8
			c0.2-0.6,0.1-1.2-0.1-1.8c-0.1-0.2-0.4-0.1-0.3,0.1c0.1,0.4,0.2,0.9,0.1,1.4c-0.1,0.5-0.6,0.8-1.1,0.8c-1.2,0.1-1.5-1.4-1.5-2.3
			c0-0.6,0.1-1.2,0.2-1.7C103.6,117.6,103.3,117.5,103.3,117.7L103.3,117.7z"/>
	</g>
</g>
<g>
	<g>
		<path class="st20" d="M103.9,114.8c0,0.1,0,0.1,0,0.2c0,0,0,0,0,0c0,0,0,0,0,0c0,0,0,0.1,0,0.1c0,0.1-0.1,0.3-0.1,0.4
			c0,0.1,0,0.2,0.1,0.2c0.1,0,0.2,0,0.2-0.1c0.1-0.3,0.2-0.6,0.1-0.8c0-0.1-0.1-0.2-0.2-0.2C104,114.7,103.9,114.7,103.9,114.8
			L103.9,114.8z"/>
	</g>
</g>
<g>
	<g>
		<path class="st20" d="M101,112c-2,0.4-3.5,1.9-4.1,3.9c-0.4,1.5-0.4,3.5,0.7,4.6c1.3,1.4,3.4,0.5,4.6-0.6c1.6-1.3,2.2-3.7,1.9-5.7
			c-0.1-0.9-0.5-1.8-1.3-2.3c-0.9-0.5-2,0-2.8,0.6c-0.2,0.1,0,0.4,0.2,0.3c0.6-0.5,1.5-1,2.3-0.6c0.7,0.3,1,1.1,1.1,1.7
			c0.4,1.8-0.1,4-1.3,5.3c-1,1.1-3,2.3-4.4,1.2c-1.1-0.9-1.2-2.7-0.9-4c0.4-2,1.9-3.7,4-4.1C101.3,112.2,101.2,111.9,101,112
			L101,112z"/>
	</g>
</g>
<g>
	<g>
		<path class="st20" d="M103.9,116.2c1.5,0.6,2.6,1.9,3.4,3.2c0.4,0.7,0.9,1.3,1,2.1c0.2,0.7,0.1,1.4-0.1,2
			c-0.2,0.6-0.7,1.1-1.3,0.8c-0.4-0.2-0.7-0.7-0.8-1.1c-0.3-1-0.2-2-0.3-3c0-1.4-0.6-2.5-1.8-3.1c-0.2-0.1-0.4,0.2-0.2,0.3
			c0.7,0.3,1.3,0.9,1.5,1.6c0.2,0.7,0.2,1.4,0.1,2.1c0,1,0.1,2.2,0.7,3c0.7,0.9,1.8,0.7,2.3-0.3c0.3-0.6,0.4-1.3,0.3-1.9
			c-0.1-0.8-0.5-1.6-0.9-2.3c-0.9-1.5-2.2-3.1-3.9-3.8C103.8,115.8,103.7,116.1,103.9,116.2L103.9,116.2z"/>
	</g>
</g>
<g>
	<g>
		<path class="st20" d="M104.8,108.7c0.3,0.2,0.6,0.4,1,0.3c0.3,0,0.6-0.2,0.9-0.4c0.3-0.2,0.6-0.5,0.9-0.6c0.4-0.2,0.9-0.1,1.3,0
			c0.4,0.1,1,0.2,1.1,0.7c0.1,0.4,0,0.9,0,1.3c0,0.9,0.2,1.7,0.6,2.5c0.1,0.2,0.4,0,0.3-0.2c-0.4-0.7-0.6-1.5-0.6-2.3
			c0-0.4,0.1-0.9,0-1.3c-0.1-0.4-0.5-0.7-0.9-0.8c-0.8-0.3-1.6-0.4-2.3,0c-0.4,0.2-0.6,0.5-1,0.7c-0.4,0.3-0.8,0.2-1.2-0.1
			C104.8,108.3,104.6,108.6,104.8,108.7L104.8,108.7z"/>
	</g>
</g>
<g>
	<g>
		<path class="st20" d="M99,118.1c-0.2-1.1-0.2-2.9,1.1-3.3c0.4-0.1,0.9-0.1,1.4,0c0.2,0,0.3-0.3,0.1-0.3c-0.8-0.2-1.7-0.2-2.3,0.5
			c-0.5,0.5-0.7,1.3-0.7,1.9c0,0.4,0,0.9,0.1,1.3C98.7,118.4,99.1,118.3,99,118.1L99,118.1z"/>
	</g>
</g>
<g>
	<g>
		<path class="st13" d="M104.9,117.4c0.1,0.3,0.3,0.6,0.5,0.9c0.2,0.3,0.2,0.6,0.4,0.9c0,0.1,0.2,0.1,0.2,0.1c0.1,0,0.1-0.1,0.1-0.2
			c-0.1-0.3-0.2-0.6-0.4-0.9c-0.1-0.3-0.3-0.5-0.4-0.8c0-0.1-0.1-0.1-0.2-0.1C105,117.2,104.9,117.3,104.9,117.4L104.9,117.4z"/>
	</g>
</g>
<g>
	<g>
		<path class="st13" d="M104.9,117.5c0,0.3,0.3,0.6,0.4,0.9c0.1,0.3,0.3,0.7,0.4,1c0,0.1,0.2,0.1,0.2,0.1c0.1-0.1,0.1-0.1,0.1-0.2
			c-0.1-0.3-0.3-0.6-0.4-0.9c-0.1-0.1-0.1-0.3-0.2-0.4c-0.1-0.1-0.2-0.2-0.2-0.4c0-0.1-0.1-0.2-0.2-0.2
			C105,117.3,104.9,117.4,104.9,117.5L104.9,117.5z"/>
	</g>
</g>
<g>
	<g>
		<path class="st13" d="M105.7,118.9c0,0.3,0.1,0.5,0.2,0.8c0.1,0.3,0.2,0.5,0.2,0.8c0.1,0.5,0.2,1.1,0.4,1.6
			c0.1,0.2,0.4,0.1,0.3-0.1c-0.2-0.5-0.3-1.1-0.4-1.6c-0.1-0.3-0.1-0.5-0.2-0.8c-0.1-0.3-0.2-0.5-0.2-0.8
			C106,118.6,105.7,118.7,105.7,118.9L105.7,118.9z"/>
	</g>
</g>
<g>
	<g>
		<path class="st13" d="M105.8,119.2c0.1,1.1,0.3,2.1,0.6,3.2c0.1,0.2,0.4,0.1,0.3-0.1c-0.2-1-0.5-2.1-0.6-3.1
			C106.1,119,105.7,119,105.8,119.2L105.8,119.2z"/>
	</g>
</g>
<g>
	<g>
		<path class="st13" d="M105.8,120.6c0,0.6,0.1,1.3,0.3,1.9c0.1,0.2,0.4,0.1,0.3-0.1c-0.2-0.6-0.3-1.2-0.3-1.8
			C106.2,120.4,105.8,120.4,105.8,120.6L105.8,120.6z"/>
	</g>
</g>
<g>
	<g>
		<path class="st13" d="M105.8,120.9c0,0.6,0.1,1.2,0.2,1.7c0.1,0.2,0.4,0.1,0.3-0.1c-0.2-0.5-0.2-1.1-0.2-1.6
			C106.1,120.7,105.8,120.7,105.8,120.9L105.8,120.9z"/>
	</g>
</g>
<g>
	<g>
		<path class="st13" d="M105.7,121.1c0.1,0.5,0.1,1.1,0.2,1.6c0.1,0.2,0.4,0.1,0.3-0.1c-0.2-0.5-0.2-1.1-0.2-1.6
			c0-0.1-0.1-0.1-0.2-0.1C105.8,120.9,105.7,121,105.7,121.1L105.7,121.1z"/>
	</g>
</g>
<g>
	<g>
		<path class="st13" d="M106.7,119.4c0.5,0.7,0.8,1.5,1.1,2.4c0.1,0.2,0.4,0.1,0.3-0.1c-0.3-0.9-0.6-1.7-1.1-2.5
			C106.9,119.1,106.6,119.2,106.7,119.4L106.7,119.4z"/>
	</g>
</g>
<g>
	<g>
		<path class="st13" d="M107.1,119.8c0.3,0.2,0.4,0.5,0.5,0.8c0.1,0.3,0.2,0.6,0.3,1c0,0.2,0.4,0.1,0.3-0.1c-0.1-0.4-0.2-0.7-0.3-1
			c-0.1-0.3-0.3-0.7-0.6-0.9c-0.1-0.1-0.2-0.1-0.2,0C107,119.7,107,119.8,107.1,119.8L107.1,119.8z"/>
	</g>
</g>
<g>
	<g>
		<path class="st13" d="M107.4,120c0.1,0.1,0.2,0.2,0.2,0.3c0,0.1,0.1,0.3,0.1,0.4c0.1,0.3,0.3,0.7,0.4,1c0,0.2,0.4,0.1,0.3-0.1
			c-0.1-0.4-0.2-0.7-0.4-1.1c-0.1-0.3-0.2-0.6-0.4-0.8c-0.1-0.1-0.2-0.1-0.2,0C107.3,119.8,107.3,120,107.4,120L107.4,120z"/>
	</g>
</g>
<g>
	<g>
		<path class="st13" d="M106.3,118.6c0.6,0.7,1.1,1.5,1.4,2.4c0.1,0.2,0.4,0.1,0.3-0.1c-0.3-0.9-0.9-1.8-1.5-2.5
			c-0.1-0.1-0.2-0.1-0.2,0C106.2,118.4,106.3,118.5,106.3,118.6L106.3,118.6z"/>
	</g>
</g>
<g>
	<g>
		<path class="st13" d="M106.4,118.7c0.2,0.4,0.5,0.7,0.8,1c0.3,0.4,0.5,0.8,0.7,1.3c0.1,0.4,0.3,0.8,0.3,1.3c0,0.3,0,0.7-0.2,0.9
			c-0.2,0.1,0.1,0.4,0.2,0.2c0.3-0.2,0.3-0.7,0.3-1c0-0.5-0.1-0.9-0.3-1.3c-0.2-0.5-0.3-0.9-0.6-1.4c-0.3-0.4-0.7-0.8-1-1.2
			C106.5,118.3,106.3,118.5,106.4,118.7L106.4,118.7z"/>
	</g>
</g>
<g>
	<g>
		<path class="st13" d="M108,121.9c0.1,0.1,0.1,0.3,0.2,0.4c0,0.2,0.1,0.3,0,0.5c-0.1,0.4-0.3,0.8-0.6,0.9c-0.2,0.1,0,0.4,0.2,0.3
			c0.4-0.2,0.7-0.7,0.7-1.2c0.1-0.4,0-0.9-0.3-1.2C108.1,121.5,107.9,121.8,108,121.9L108,121.9z"/>
	</g>
</g>
<g>
	<g>
		<path class="st13" d="M106.4,121.6c0,0,0-0.1-0.1-0.1c0-0.1,0-0.2-0.1-0.2c0-0.2-0.1-0.3-0.3-0.4c0,0,0.1,0.1,0.1,0.1
			c-0.1-0.6,0-1.3,0-1.9c0-0.2-0.3-0.2-0.3,0c0,0.6-0.1,1.2,0,1.9c0,0.1,0,0.1,0.1,0.2c0,0,0.1,0,0.1,0.1c0.1,0.1,0.1,0.2,0.1,0.3
			c0.1,0.2,0.1,0.4,0.3,0.5C106.4,122.1,106.5,121.8,106.4,121.6L106.4,121.6z"/>
	</g>
</g>
<g>
	<g>
		<path class="st13" d="M106.2,118.6c0.5,0.5,0.9,1,1.2,1.6c0.1,0.2,0.4,0.1,0.3-0.1c-0.1-0.4-0.4-0.8-0.7-1.1
			c-0.2-0.2-0.4,0.1-0.2,0.2c0.4,0.4,0.7,1,0.8,1.5c0.1,0.2,0.4,0.1,0.3-0.1c-0.2-0.6-0.5-1.2-0.9-1.7c-0.1,0.1-0.2,0.2-0.2,0.2
			c0.3,0.3,0.5,0.6,0.6,1c0.1,0,0.2-0.1,0.3-0.1c-0.3-0.6-0.7-1.2-1.2-1.7C106.3,118.2,106.1,118.5,106.2,118.6L106.2,118.6z"/>
	</g>
</g>
<g>
	<g>
		<path class="st6" d="M55.9,10c0.2-0.2,0.3-0.4,0.5-0.7c-0.1,0-0.2-0.1-0.3-0.1c0,0.3,0.1,0.7,0.2,1c0,0.1,0.1,0.1,0.2,0.1
			c0.1,0,0.1-0.1,0.1-0.2c0-0.4-0.1-0.8-0.1-1.1c0-0.1-0.1-0.1-0.2-0.1c-0.1,0-0.1,0.1-0.1,0.2c0,0.5,0.2,0.9,0.1,1.4
			c0,0.1,0.1,0.2,0.2,0.2c0.1,0,0.2-0.1,0.2-0.2c0.1-0.5-0.1-0.9-0.1-1.4c-0.1,0-0.2,0-0.3,0c0.1,0.4,0.1,0.7,0.1,1.1
			c0.1,0,0.2,0,0.3,0c-0.1-0.3-0.2-0.6-0.2-0.9c0-0.2-0.2-0.2-0.3-0.1c-0.1,0.2-0.3,0.5-0.5,0.7c-0.1,0.1,0,0.2,0.1,0.2
			C55.8,10.1,55.9,10.1,55.9,10L55.9,10z"/>
	</g>
</g>
<g>
	<g>
		<path class="st1" d="M89.7,11.1c0.1-0.4,0.2-0.8,0.3-1.2c-0.1,0-0.2,0-0.3,0c0.1,0.4,0.2,0.8,0.2,1.2c0,0.1,0.1,0.2,0.2,0.2
			c0.1,0,0.2-0.1,0.2-0.2c0.1-0.4,0-0.9-0.2-1.3c-0.1-0.2-0.3-0.2-0.3,0c-0.1,0.4-0.2,0.8-0.3,1.2C89.3,11.2,89.7,11.3,89.7,11.1
			L89.7,11.1z"/>
	</g>
</g>
<g>
	<g>
		<path class="st1" d="M106,8.7c0.4-0.1,0.8-0.5,1-0.8c0-0.1,0-0.2-0.1-0.2c-0.1,0-0.2,0-0.2,0.1c0,0-0.1,0.1-0.1,0.1c0,0,0,0,0,0
			c0,0,0,0,0,0c0,0,0,0,0,0.1c-0.1,0.1-0.1,0.1-0.2,0.2c0,0,0,0-0.1,0c0,0,0,0,0,0c0,0,0,0,0,0c0,0-0.1,0.1-0.1,0.1
			c0,0-0.1,0-0.1,0.1c0,0,0,0,0,0c0,0,0,0,0,0c0,0-0.1,0-0.1,0c-0.1,0-0.1,0.1-0.1,0.2C105.8,8.7,105.9,8.8,106,8.7L106,8.7z"/>
	</g>
</g>
</svg>
