<?xml version="1.0" encoding="utf-8"?>
<!-- Generator: Adobe Illustrator 24.0.1, SVG Export Plug-In . SVG Version: 6.00 Build 0)  -->
<svg version="1.1" id="Layer_1" xmlns="http://www.w3.org/2000/svg" xmlns:xlink="http://www.w3.org/1999/xlink" x="0px" y="0px"
	 viewBox="0 0 141.7 141.7" style="enable-background:new 0 0 141.7 141.7;" xml:space="preserve">
<style type="text/css">
	.st0{fill:#78AE69;}
	.st1{fill:#C4A99A;}
	.st2{fill:#76CBE9;}
	.st3{fill:#FFFFFF;}
	.st4{fill:#ED7AAA;}
	.st5{fill:#EA393B;}
	.st6{fill:#F7CE18;}
	.st7{fill:#631113;}
	.st8{fill:#676868;}
	.st9{fill:#979797;}
	.st10{fill:#F5CB1A;}
	.st11{fill:#070707;}
	.st12{fill:none;stroke:#070707;stroke-width:0.5149;stroke-miterlimit:10;}
</style>
<ellipse class="st0" cx="72" cy="123" rx="53.4" ry="13.1"/>
<path class="st1" d="M31.2,121.1l1.1-1.3l1.8-1l1.9-0.6l1.9-0.4c0,0,1.2-0.2,1.3-0.1s1.3,1,1.3,1l0.9,1.5l0.4,1.3l1.1,1.9l0.2,0.3
	l-1.9,0.1l-3.1,0.9l-3.1,0.7l-2.1-0.3l-1.4-1.1l-0.5-1.7L31.2,121.1z"/>
<path class="st2" d="M38.9,117.2l-2.4-5.3l-2.6-9.1L30.2,92l-4.8-11.7L20,66.2l-3-11.8l-1.1-9.6l0.8-7.8l0.6-2.7l-4-1.5l-2.1-2.9
	L11,28.4V26l2.7-4.1l3.9-1.9l3.5-0.3l3.2,1.1l1.1,1.2l5.8-3.7l6.1-1.9l6.5-1.1l15.4-0.7c0,0,6.2,1.2,6.3,1.2l6.1,2.7l2.3,1.8l2-1.1
	l3.6-1c0,0,3.5-0.1,3.5,0c0.1,0,2.3,0.7,2.3,0.7l1.7,1.4l1.6,3.4l0.1,3.1L87.9,29l-1.3,1.8l-2.8,1.7L82.5,33l0.8,3.1l0.9,5l0.2,12.1
	l-0.1,3.4l0.4,11l0.1,4.8l-2.3,0.8L78.8,75l-2.2,1.4l-1,0.6l0.4-4.2l-0.1-3.9l1.9-0.5l0.2-0.3l-0.8-0.8L76,67l0.4-1.6l0.1-2
	l-0.7-2.9l-1.1-2.3L72.8,56L71,54.6l1.4-0.9l1.9-0.6l2.6-0.8l1.8-0.6l1.3-0.8l1.2-1l0.8-1.4l0.2-1.4v-1.2l-1-1.4L79.8,44l-2,0.1
	l-2.4,1.1l-1.3,1.3l-1.7,2.6l-1.7,3.2l-0.9,1.9L69.1,54l0.1-1.4l-0.6-1.8l-1.5-1.5l-1.3-0.6l-1.2-0.4l-1,0.5l-0.7,0.6L62.7,50
	l0.2,0.8l2.1,1.1l2.4,0.7l1.5,0.8l-0.1,0.7L65,54l-3.5,1.2l-1.3,0.9l-1.6,0.2L57.2,57l-1.4,1.2l-0.6,1.3L55,61.9l0.7,1.8l1.3,1.4
	l0.3,0.2l-2.6-0.2L54.6,65l-0.8,0.9l-0.2,0.6l0.5,0.5l1.9,0.3l-0.3,6l-0.1,8.1l0.4,5.9c0,0.1,1,4.7,1,4.7l-0.5-0.4l-2.1-4.9L52,81.5
	l-2.1-3.4c0,0-1.8-1.6-1.9-1.6c-0.1,0-2.2-0.7-2.2-0.7h-1.2L42,76.5l-0.8,1.4L41,79.1l0.8,2.7l1.2,2.4l2.6,3.3l1.9,1.9l-3,0.6
	l-3.3,1.4L39.5,93l-0.7,1.7l0.1,1.4l0.7,1.5l1.1,1l2.6,0.9l3.1,0.2l2.8-0.5l-2.1,1.7l-1.3,2.2l0.2,1.7l0.8,1.1l1.3,0.9l2.4,0.2
	l2.1-0.8l2.1-1.1l-0.1,2.5l1,1.3l1.2,0.3l1.5-0.2l1.4-0.6l1.9-2.1l0.6,0.9l1.5,2.2l3.3,2.2l2.9,1.1l3.8,0.9l3.2,0.2h0.6v1.2l0.4,1
	c0.1,0,1,0.9,1,0.9l-1.1,0.2l-3.8,0.2l-4.3,0.7l-3,0.7l-5.4,1.7l-3.7,1.6l-3.5,1.3l-4.4,1.2l-3.9,0.1l-3.1-0.9l-1.1-2.7l-1.1-1.9
	l-1.2-1.1L38.9,117.2z"/>
<path class="st1" d="M33,81l0.9,2l1.4,1.2l2,1.3l1.3,0.4H40c0,0,0.5-0.3,0.6-0.3S41,85,41,85l0.2-1l0.3-0.4l0.3-0.9l-0.2-0.9
	c0,0-0.8-0.9-0.9-0.9s-2.2-1.2-2.2-1.2l-2.1-0.5C36.4,79.1,33.1,78.6,33,81z"/>
<path class="st1" d="M45.9,39.9l-1.2,0.6l-1.6,1.1l-0.8,0.9l-0.8,1.1c0,0-0.2,0.8-0.2,0.9c0,0.1,0.1,0.9,0.1,0.9l0.6,0.8l1.8,1.1
	l1.9-0.1l2.7-0.6l2.1-0.4h1.8c0,0,1.8,0.6,1.9,0.6c0.1,0,1.6,0.2,1.6,0.2l1.5-0.1c0,0,0.8-0.5,0.9-0.6c0.1,0,0.6-1.1,0.6-1.1v-1.9
	l-1.4-1.6l-1.9-1.4L54,39.5l-2.7,1.4c-0.1,0-4.1-0.4-4.1-0.4L45.9,39.9z"/>
<path class="st3" d="M46,47.4l-0.2,1.3l-0.1,1.2c0,0-0.1,1.3,0,1.4C45.8,51.4,46,52,46,52l0.8,1.1l1,0.5h0.9l1-0.8l0.7-1.3l0.4,0.9
	c0,0,0.6,0.8,0.7,0.8c0.1,0,1.1,0.4,1.1,0.4l1.2-0.5l0.8-0.8l0.6-1.5l-0.4-3.1l-0.3-1.1L52,46.1h-1.8l-2.6,0.6L46,47.1V47.4z"/>
<path class="st3" d="M42.5,39.1c0,0,4.1-2.5,4.7-7.8c0,0,0.6-5-2.9-8.3c0,0-4.2-4.8-10.8-2.6c0,0-6,2.3-7,7.7c0,0-1.2,6.2,2.8,9.5
	c0,0,3.5,3.7,8,3.2C37.2,40.8,41.6,40.3,42.5,39.1z"/>
<path class="st3" d="M54.2,34.6l-0.9-1.9l-0.6-2.6l0.1-2.5l0.4-1.6l1.5-3l2.4-2.3c0,0,6.7-4.9,12.7,0.3c0,0,4.5,3.4,4,8.9
	c0,0-0.1,3.7-2.9,6.5l-3.5,2.5l-3.9,0.9l-4.7-1.1l-3.3-2.4L54.2,34.6z"/>
<path class="st2" d="M42.6,14.1c0,0-0.4-0.7-0.4-0.8s0-1.1,0-1.1v-1.3c0,0,0.4-1.2,0.4-1.3s0.6-1.2,0.6-1.2l1-1.4l1.3-1l1.3-0.3
	L48.1,6l0.8,0.4L49.3,7v0.6L49,8.3l-1.2,1.3l-2.2,1.5L44,12.2l-0.7,1L43,13.9v0.6L42.6,14.1z"/>
<polygon class="st2" points="44.8,15.1 45,14.3 45.4,13.4 46,12.5 46.9,11.5 48.3,10.8 49.6,10.9 50.3,10.8 49.8,11.7 48.9,12.9 
	47.6,13.9 46.5,14.3 45.8,14.7 45.8,14.9 "/>
<path class="st3" d="M60.1,56.1c0,0,3.7,0.1,4.6,4.1c0,0,1-3.7,4.4-4.1c0,0,3.6-0.3,4.9,2.6c0,0,1.8,3.7-1.3,6.2
	c0,0-3.7,3.1-7.2-1.1L65,62.2l-0.4,0.1L62.9,65L60,66.1l-2.3-0.5l-1.8-1.4l-0.6-1l-0.3-1l-0.1-1l0.4-2l1.2-1.6l1.4-1.1L60.1,56.1z"
	/>
<path class="st4" d="M57.4,67.1l-2.6,0.1l-1.2-0.4l-0.3-0.6l0.8-0.8l0.2-0.4l2.5,0.1l1.1,0.6l0.7,0.3l0.4,0.4c0,0,0.1,0.3,0,0.3
	C59,66.7,57.4,67.1,57.4,67.1z"/>
<path class="st5" d="M64.6,60l-1.1-2.3l-2.4-1.4l-1-0.2l1.7-1.2l2.4-0.8c0,0,2.4-0.3,2.4-0.2c1.1,0.1,2.1,0.1,3.2,0.2
	c0.8,0.3,1.5,0.7,2.3,1c0.8,0.8,1.6,1.7,2.5,2.5c0.5,0.9,1,1.7,1.5,2.6c0.2,0.7,0.4,1.3,0.6,2c0,0.5-0.1,1-0.1,1.4l-0.1,1.6L76,66.4
	L75.9,67l-2.4-0.2L73,66.7l-0.4,0.5L72,67.8l0.2,0.6l1.4,0.4h1.5l0.9-0.1l-0.2,1.2l0.2,1.8l-0.1,2.5l-0.3,2.4l-0.7,7.9l-1.9,13
	l0.7-0.1l0.9,0.1l0.5,0.6l0.2,0.8v0.9l-0.3,0.5l-1.2,0.9h-2l-1.3-0.6l-0.2,1l-1.1,1.2l-1.7,0.2c0,0-4.5-0.9-3.8-3.6l-1.2,0.9l-1,0.2
	l-0.2,0.2l-2.5-1.4l-1.5-1.6l-0.8-1.6l-0.2-1l0.3-1.3l0.6-1L56,87.5l-0.6-9.2l0.4-11.2l2.1-0.1l1.1-0.4l0.2-0.2l-0.3-0.6l1.5,0.1
	l1.6-0.5l1-0.6l1.3-1.6l0.4-1.1l0.9,1.5l1.9,1.8c0,0,4.1,2,6.7-1.9l0.5-1.9l-0.4-2.5l-0.8-1.3l-1-1L70.2,56l-2.5,0.4l-1.6,1.1
	l-0.8,1.2L64.6,60z"/>
<polygon class="st4" points="76.8,67.1 77.7,67.6 77.9,68.3 76.2,68.8 73.3,68.7 72.1,68.3 72.1,67.7 72.8,67 73.1,66.6 75.5,67 "/>
<path class="st6" d="M60.8,72.6l-0.5-0.8L60,69.5l0.1-2c0,0,2.5-2,6.5-0.4l0.7,0.7l0.2,0.9l-0.2,0.6l-1.4,1l-3.3,2l-1.4,0.6
	L60.8,72.6z"/>
<polygon class="st7" points="60.6,80.7 61.1,77.9 63,73.3 64.2,71.3 66.6,70 66.6,72.2 66.5,76.7 66.1,79 65.4,80.7 64.5,82 
	63.1,82.6 61.7,82.6 60.7,81.4 "/>
<path class="st8" d="M57.2,92.8L56.6,92l-2.2-4.4L53.7,87l-1.1-1.5L51.7,85c0,0-2.4-0.4-3.1,3.7l0.4,2.2l1,1.1c0,0,1.9,1.4,2.4,1.4
	l-1,0.5l-1.7,0.8l-1.1,0.9c0,0,0.8,1.4,1.1,1.7l1.4,0.7l1.3-0.1l1.4-0.6l-0.6,1.3l-0.3,1.3l0.2,1.2l0.4,0.8c0,0,0.9-0.3,1-0.2
	c0.1,0.1,1.5-0.9,1.5-0.9v1.2l0.3,1.3l0.6,0.8l0.8,0.4h1.2l0.9-0.7l0.8-0.8l1.1,2.8l0.3,0.5l0.7,1.5l1.6,1.8l1.7,1.1
	c0,0,4.4,2.1,6.1,2.2l7.6,0.7H85l2.5,0.1c0,0,0.6,0.3,0.6,0.2l1.2,0.6l0.7,1.1l1.4,1.8c0,0,1.7,1.4,1.6,1.5s0.6,1.3,0.6,1.3l0.2,0.9
	l-0.2,0.5l-0.5,0.6l-0.9,0.2l-0.7,0.4l-0.3,0.8l0.1,0.6l0.4,0.6l0.8,0.5l1,0.2l1.6-0.2l1.5-0.8l0.8-0.7l0.2-1.6l-0.4-1.4l-0.4-1.7
	l0.4-1.2l0.6-1l1.4-1l1.3-1l2.1-2l1.9-2.7l3.3-4.5l2-3.1l1.8-3.6l0.9-4.7l0.2-3.8l-0.3-2.5c0,0-1.2-4.4-1.2-4.3s-1.2-2.4-1.2-2.4
	l-2.2-3.1l-2.1-1.9l-4.5-2.7l-3.4-1.2l-5.6-0.9l0.1,1.3l-0.2,1l-0.5,0.7l-1.3,0.4l-1.6-0.2l-2.1-1.2l-1.7-1.6l-0.3,0.4l-4.3,1.9
	l-3.5,2.2l-1.2,0.5L74.9,84L74,91.1l-0.9,6.4l1.2-0.1l0.8,0.6l0.4,0.7v0.7l-0.4,0.7l-0.4,0.5l-0.5,0.3l-1.4,0.4l-1.5-0.4l-0.7-0.4
	l-0.2,1.1l-0.8,0.9L69,103l-1.9-0.2l-1.9-0.5l-1.1-1l-0.3-0.9v-1l-0.7,0.5l-1.1,0.5l-0.6,0.3l-1.2-0.7l-2.3-1.7l-1-1.5l-0.4-1.7
	l0.3-1.4L57.2,92.8z"/>
<path class="st9" d="M82.6,94.7l0.3,0.1l0.3,1l0.5,0.8l0.8,0.6c0,0,0.8,0.4,0.9,0.3s1.4-0.7,1.4-0.7l0.6-0.6l0.1-0.8L87.1,94H88
	l1-0.3l0.7-0.7l0.3-0.8v-0.8l-0.4-0.8L89,89.8l1.7-0.4H91l0.3,0.7l0.6,0.4l1.4,0.6l1.3,0.3l1.1,0.2l0.8,0.4l0.3,0.5V93l-0.5,0.6
	l1.9-0.2l1.1,0.2l0.6,0.5l0.2,0.6l-0.1,0.8c0,0-0.3,0.6-0.4,0.6s-1.7,1.4-1.7,1.4l1.9,0.1c0,0,1.8,0.7,1.9,1.6l0.3,0.9l-0.1,0.9
	l-0.3,1.1l-0.3,0.6l-1.1,0.9l-0.9,0.3l-1.8,0.4l-3.5,0.5l-2.7-0.3l-4.5-1.6l-2.3-1.8l-1.6-2.5l-0.3-2.1L82.6,94.7z"/>
<path class="st10" d="M96.8,90.7l1.4-0.4h1.4l1,0.4l0.7,0.6l0.3,0.8v0.8l-0.4,0.8l1.5-0.6l1.2-0.3h1l0.9,0.3l0.4,0.7l0.3,1l0.1,1
	v0.8l-0.7,2l-1.3,2.3l-2.4,2l-2.1,0.9l1.2-1.1l0.5-1.2l0.1-0.8l-0.1-0.8l-0.5-1.3l-0.7-0.6l-1.4-0.5H98l1.1-0.8l0.8-1l0.1-0.9
	l-0.2-0.6l-0.4-0.4l-0.7-0.3l-1.1,0.1c0,0-1.6,0.2-1.5,0.1l0.7-0.9l-0.2-0.5l-0.7-0.5l-2-0.4l-1.3-0.5l-1.1-0.4L91,89.3l2.8-0.9h1.4
	l1.1,0.4l0.5,0.6V90.7z"/>
<path class="st9" d="M81.6,122.3l-0.2-1.1v-1l-0.4-1.3l-1-1.4l-1.4-1l-0.7-0.7l-0.4-0.6v-0.9v-0.8h9.3l1.6,0.6c0,0,0.6,0.1,0.5,0.2
	s-0.8,1.4-0.8,1.4l-1.6,2l-2,1.7l0.1,1.9l-0.2,1.7l-0.6,0.8l-1.2,1.1l-1.1,0.2h-1.6l-1.1-0.6l-0.3-0.6l0.1-0.9c0,0,1-1,1-0.9
	s1.3-0.1,1.3-0.1L81.6,122.3z"/>
<path class="st1" d="M84.9,72.2l-0.1-4.5h2.5l1.6,0.5l1.4,1l1.2,1.1l0.6,1.2l0.2,1.2v0.9l-0.5,1l-1.4,0.6L89,75l-1.8-0.9l-1.7-1.2
	L84.9,72.2z"/>
<path class="st9" d="M96.2,72.1L95.4,71l-0.5-1l-0.1-0.8l0.2-1.1l1-0.6l1.3-0.3l1.3,0.2c0,0,1.5,0.1,1.5,0.2s0.4,0.3,0.4,0.3
	c0.5,2,0.9,3.9,1.4,5.9c-1-0.3-2.1-0.6-3.1-0.9L96.2,72.1z"/>
<polygon class="st5" points="101.7,73.6 102.5,72.4 102.7,71.2 102.5,70 101.7,68.8 100.5,68.1 "/>
<polygon class="st8" points="105.7,76.6 106.2,74.1 106.7,70.6 107.4,68.2 107.9,66.9 108.5,65.8 109.6,64.5 109.8,66.9 109.8,69.2 
	109.6,70.8 109.3,72.9 109,74.5 107.7,77 107.3,77.7 "/>
<path class="st5" d="M108.8,79.6l2-2.4c0,0,1.6-2.6,1.6-2.5s1.5-3.3,1.5-3.3l0.5-1.6l0.3-1.5l-0.1-1.9l-0.9-1.3l-2.5,4.1l-1,1.9
	c0,0-0.9,1.6-0.9,1.7s-1.1,2.5-1.1,2.5l-0.6,1.9l-0.4,0.6L108.8,79.6z"/>
<path class="st9" d="M110.4,82l3.4-2.6l3.2-2.2l1.7-1l-2,1.9l-2.8,2.2l-2.6,1.4L110.4,82z"/>
<polygon class="st5" points="109.6,80.8 111.6,78.7 114.1,76.6 116.2,75 118.1,73.6 119.8,72.7 121.4,72.1 122,72.2 120.9,74.2 
	119.5,75.5 118.8,76.3 116.6,77.6 114.1,79.2 112.1,80.8 110.3,82.1 "/>
<path class="st9" d="M109.2,73.6l0.4-2.3l0.2-3.6l-0.1-3.1l1-0.7l1.2,0.1c0.6,0.4,1.2,0.7,1.8,1.1c-0.7,1.3-1.3,2.5-2,3.8
	c-0.7,1.1-1.3,2.3-2,3.4c-0.2,0.7-0.5,1.5-0.7,2.2C109.1,74.2,109.1,73.9,109.2,73.6z"/>
<path class="st10" d="M100.5,67.9l-0.3-2.6c0,0-0.2-3.1,0.7-4.1c0,0,0.7-3.2,5-2l1.1,0.7l1,1.1l0.6,1.1l0.7,2.4l-0.4,0.5l-0.9,1.5
	l-0.5,1.2l-0.5,1.9l-0.3,1.8l-0.2,1.6l-0.7,3.7l-2.6-1.7l-1.8-1.1l0.9-1.4l0.4-1.6l-0.3-1.2l-1.3-1.2L100.5,67.9z"/>
<path class="st10" d="M108.9,79.6l1.9-2.4l1.5-2.4l1.1-2.2l1.1-2.4l0.3-2.7l-0.2-1.4l-0.7-1l1.7-1.8l1.8-1.4l1.2-0.4l1.4,0.2l1.3,1
	l1.3,1.7l0.5,2v2l-0.3,1.8l-0.9,2l-2.1,0.6l-2.4,1.5l-2.5,1.9l-3.5,3.1l-1.7,1.7L108.9,79.6z"/>
<path class="st9" d="M119.5,75.3c0-0.1,1.5-1.7,1.5-1.7l0.9-1.4l1.3,0.2l0.7,0.8l0.3,0.7l-3.7,1.2l-0.9,0.4
	C119.5,75.5,119.5,75.3,119.5,75.3z"/>
<path class="st8" d="M110.4,82.2l0.2-0.3l1.3-0.6l2-1.1l2-1.3l1.7-1.4l1.3-1.2c0.1,0,2.2-1.1,2.2-1.1l1.7-0.7l1.4-0.5l0.4,1.5
	l-0.3,1.8c0,0-0.7,1.5-0.7,1.6l-1.5,2l-1.9,1.5l-2.5,1.5l-2.3,0.8l-2,0.2l-1.8-0.1L110.4,82.2z"/>
<path class="st5" d="M112.2,86.2l3.2-0.6l2.3,0.6c0,0,2.4,0.7,2.4,0.9c0,0.1,0.9,0.6,0.9,0.6h-4.6l-3.2-0.8L112.2,86.2z"/>
<path class="st10" d="M111.4,84.5l0.5,1.6v0.2l1.1-0.2l2.1-0.1l2.4,0.3l1.3,0.4l1.2,0.5l0.6,0.4l3.9-0.9l2.7-1.4l1.7-1.2l1.1-1.7
	l0.5-1c0,0,0.4-2.7-0.1-4c0,0-0.3-2.2-2.4-3.1c0,0-1.3-0.6-1.3-0.5S125,74,125,74l-0.7,0.1l0.2,1.7l-0.4,2l-1.3,2.2l-1.4,1.3
	l-2.3,1.8l-2.5,1.1l-3.3,0.6L111.4,84.5z"/>
<path class="st9" d="M112.6,92.3v-2.2l-0.4-2.5l-0.1-1.2l1.2,0.5l2.6,0.7l2.8,0.2c1-0.1,1.9-0.1,2.9-0.2c0.2,0.2,0.5,0.4,0.7,0.6
	c0.1,0.3,0.3,0.7,0.4,1.1c0.1,0.3,0.2,0.5,0.3,0.7l0.3,0.9v1.6l-1,1.6l-1.8,0.9l-2.1,0.1l-2.2-0.7L112.6,92.3z"/>
<path class="st5" d="M69.2,53.5l-0.1-1.1l-0.5-1.3l-1.2-1.4L66,48.8l-1.3-0.3l-1.3,0.4l-0.6,0.8l-0.2,0.5l0.3,0.8l0.7,0.4l1.7,0.8
	l2.6,0.8L69.2,53.5z"/>
<path class="st5" d="M69.8,54.1l1.2-2l1.5-3.1l1.3-2.1l2.1-1.9l2-0.8l1.6-0.1c0,0,1.2,0.4,1.3,0.4s1,1.2,1,1.2l0.2,1.4l-0.1,1.1
	L81.7,49L81,50.1l-1.3,1l-2.4,1L74.7,53l-1.9,0.6l-1.6,0.8l-0.1,0.3L69.8,54.1z"/>
<path class="st10" d="M47.2,89.2l-2-2.1l-1.9-2.6l-0.6-1l-1.1-2L41,79.6c0,0-0.1-2-0.1-1.9l0.4-0.8l1.1-1l1.6-0.4l1.6,0.1l2.2,0.7
	l1.4,1.2l1.5,1.8l1.4,2.7l1.3,2.9l1,2.5l-0.1,0.3l-0.8-0.8l-0.9-1.2L51.9,85h-0.7l-0.8,0.2l-0.9,0.9l-0.5,1l-0.3,1.2v1.5l0.4,1.1
	l0.7,1l1.3,0.9l1.5,0.5l-1.1,0.4l-1.7,0.9l-1,0.7l0.6,1.2l0.7,0.7l1.1,0.6l1.4-0.1l1-0.3l0.9-0.6L53.6,98L53,99.2l-0.2,1l0.3,1.2
	l0.4,0.4h1.2l1.4-1.1l0.1,1.9c0,0,0.7,3.3,3.4,1.4l0.9-1.2l0.6,1.6l0.4,1.4v0.5l-1.7,1.7l-2,1.1l-1.3,0.1l-1.3-0.5l-0.5-1l-0.1-1.3
	l0.1-1.4l-3.1,1.4l-2.1,0.5l-1.9-0.2l-1-1l-0.6-0.8l-0.3-1l0.1-1.2l0.5-1.3l2.6-2.2L46,99.5l-2.8-0.1L41,98.8l-1.2-1.1L39,96.2
	l-0.2-1.8l0.4-1.4c0,0,1.6-1.7,1.7-1.7l3.9-1.5C44.8,89.7,47.2,89.2,47.2,89.2z"/>
<g>
	<g>
		<path class="st11" d="M60,67.6c-0.2,0.9-0.3,1.9-0.2,2.8c0.1,0.8,0.2,1.9,0.9,2.4c0.5,0.4,1,0.2,1.5-0.1c0.8-0.4,1.6-0.8,2.3-1.3
			c0.8-0.5,1.6-0.9,2.3-1.4c0.5-0.4,0.9-0.7,1-1.3c0.3-1.6-1.4-2.2-2.7-2.4c-1-0.1-2-0.1-3,0.1c-0.8,0.1-1.7,0.4-2.4,1
			C59.5,67.6,59.8,67.9,60,67.6c1.1-0.8,2.8-1,4.2-0.9c1,0.1,3,0.3,3.1,1.6c0,0.6-0.2,0.9-0.6,1.2c-0.6,0.4-1.2,0.8-1.8,1.2
			c-0.7,0.4-1.5,0.9-2.2,1.3c-0.3,0.2-0.6,0.3-0.9,0.5c-0.1,0.1-0.4,0.2-0.5,0.2h-0.1c-0.1,0-0.1-0.1-0.2-0.1
			c-0.1-0.1-0.2-0.3-0.3-0.5c-0.2-0.4-0.3-0.9-0.4-1.4c-0.1-0.9-0.1-1.9,0.1-2.8C60.5,67.5,60.1,67.3,60,67.6L60,67.6z"/>
	</g>
</g>
<g>
	<g>
		<path class="st11" d="M64.4,71.1c-0.5,0.5-0.8,1.1-1.1,1.7c-0.5,0.9-0.9,1.8-1.3,2.7c-0.7,1.7-1.5,3.8-1.2,5.7
			c0.3,1.6,1.9,2,3.2,1.3c1.7-1,2.2-3.4,2.4-5.1c0.3-2.2,0.2-4.5,0.2-6.8c0-0.3-0.4-0.3-0.4,0c0,1.7,0.1,3.5-0.1,5.2
			c-0.1,1.9-0.4,4.2-1.6,5.7c-0.9,1-2.9,1.5-3.3-0.2c-0.4-1.7,0.3-3.7,0.9-5.2c0.4-1,0.8-2,1.3-2.9c0.3-0.6,0.7-1.3,1.2-1.8
			C64.9,71.2,64.6,70.9,64.4,71.1L64.4,71.1z"/>
	</g>
</g>
<g>
	<g>
		<path class="st11" d="M72.7,66.8c-0.4,0.3-1,0.7-1,1.3c0,0.4,0.5,0.7,0.8,0.8c0.6,0.2,1.2,0.2,1.7,0.2c0.7,0,1.4,0,2-0.1
			c0.5-0.1,1.2-0.2,1.6-0.5c0.1,0,0.1-0.2,0.1-0.2c-0.8-2-3.4-1.2-5-1.8c-0.3-0.1-0.4,0.3-0.1,0.4c0.8,0.3,1.7,0.2,2.6,0.3
			c0.8,0.1,1.8,0.3,2.1,1.1c0-0.1,0.1-0.2,0.1-0.2c-0.3,0.2-0.8,0.3-1.2,0.4c-0.6,0.1-1.2,0.2-1.8,0.2c-0.6,0-1.1,0-1.7-0.1
			c-0.2,0-0.4-0.1-0.6-0.2c-0.1-0.1-0.3-0.1-0.3-0.2c0,0,0,0,0-0.1c0,0,0,0,0-0.1c0,0,0-0.1,0.1-0.2c0.2-0.3,0.4-0.4,0.7-0.6
			C73.2,67,72.9,66.6,72.7,66.8L72.7,66.8z"/>
	</g>
</g>
<g>
	<g>
		<path class="st11" d="M76.1,67.1c1.6-3.2,0.2-7.2-1.9-9.9c-1-1.2-2.1-2.3-3.6-2.9c-1.7-0.7-3.6-0.8-5.3-0.6
			c-1.9,0.2-3.7,0.9-5.2,2c-0.2,0.2,0.1,0.5,0.3,0.3c3-2.4,8.4-2.9,11.6-0.5c3.1,2.3,5.6,7.6,3.7,11.3
			C75.6,67.1,75.9,67.3,76.1,67.1L76.1,67.1z"/>
	</g>
</g>
<g>
	<g>
		<path class="st11" d="M69.3,53.9c0.4-1.3-0.2-2.7-1.1-3.7c-0.8-1-2.1-1.9-3.5-1.9c-0.6,0-1.1,0.2-1.6,0.6
			c-0.4,0.3-0.7,0.9-0.7,1.5c0,0.5,0.4,0.8,0.8,1c0.5,0.3,1.2,0.5,1.8,0.7c0.8,0.3,1.6,0.5,2.4,0.7c0.6,0.2,1.3,0.5,1.7,1
			c0.2,0.2,0.5-0.1,0.3-0.3c-0.3-0.4-0.8-0.6-1.2-0.8c-0.6-0.3-1.2-0.4-1.8-0.6c-0.6-0.2-1.3-0.4-1.9-0.6c-0.5-0.2-1-0.4-1.3-0.7
			s-0.3-0.6-0.1-1c0.3-0.5,0.7-0.9,1.2-1c1.1-0.2,2.4,0.5,3.2,1.3c1,0.9,1.8,2.3,1.4,3.7C68.8,54,69.2,54.2,69.3,53.9L69.3,53.9z"/>
	</g>
</g>
<g>
	<g>
		<path class="st11" d="M70,54.1c1.6-2.4,2.4-5.2,4.3-7.4c1.3-1.6,3.3-2.8,5.4-2.6c0.9,0.1,1.7,0.5,2.1,1.4c0.4,1,0.3,2.2-0.1,3.2
			c-0.8,1.8-2.8,2.6-4.6,3.2c-2,0.7-4.2,1-5.9,2.2c-0.2,0.2,0,0.5,0.2,0.4c1.8-1.2,4-1.5,6-2.2c1.8-0.6,3.9-1.6,4.7-3.5
			c0.7-1.7,0.5-4.2-1.4-4.9c-1.8-0.7-4,0.1-5.4,1.2c-2.8,2.3-3.7,5.8-5.6,8.7C69.4,54.1,69.8,54.4,70,54.1L70,54.1z"/>
	</g>
</g>
<g>
	<g>
		<path class="st11" d="M75.7,69.5c0.5,4.3-0.7,8.7-0.9,13.1c-0.1,2.6-0.3,5-0.8,7.6c-0.5,2.5-1,4.9-1.2,7.4c0,0.1,0.1,0.2,0.3,0.2
			c1.6-0.3,2.8,0.7,1.9,2.2c-1,1.7-3.1,1.3-4.5,0.4c-0.1-0.1-0.3,0-0.3,0.2c0.4,4.1-7.5,2.2-6.2-1.2c0.1-0.2-0.3-0.3-0.4-0.2
			c-0.5,0.8-1.3,1-2.2,1.2c-0.3,0.1-0.2,0.5,0.1,0.4c1-0.2,1.8-0.5,2.5-1.4c-0.1-0.1-0.3-0.1-0.4-0.2c-1.4,4.1,7.5,6,7.1,1.3
			c-0.1,0.1-0.2,0.1-0.3,0.2c1.8,1.1,4.4,1.3,5.3-1c0.8-1.9-0.9-2.8-2.6-2.4c0.1,0.1,0.2,0.1,0.3,0.2c0.2-2.7,0.8-5.3,1.3-8
			c0.4-2.3,0.6-4.6,0.7-7c0.2-4.3,1.4-8.7,0.9-13.1C76.1,69.2,75.6,69.2,75.7,69.5L75.7,69.5z"/>
	</g>
</g>
<g>
	<g>
		<path class="st11" d="M92.7,71.9c4.2,0.5,8.2,1.6,11.7,3.9c3.4,2.3,5.9,5.7,7.1,9.7c1.1,3.7,1.1,7.6,0.2,11.4
			c-0.5,2-1.2,3.9-2.2,5.6c-1,1.9-2.3,3.5-3.6,5.2c-1.4,1.9-2.6,4.2-4.3,5.9c-0.8,0.8-1.7,1.5-2.6,2.2c-0.6,0.5-1.4,1-1.9,1.6
			c-1,1.2-0.5,2.6-0.1,4c0.3,1.1,0.5,2.2-0.5,3.1c-0.8,0.7-2,1.1-3,1.1c-0.5,0-1.7-0.4-2-0.9c-0.5-1,0-1.4,0.8-1.8
			c0.6-0.3,1-0.3,1.3-0.9c0.5-1,0.1-2-0.6-2.9c-0.5-0.6-1.1-1-1.6-1.6c-0.8-0.8-1-1.7-1.7-2.5c-0.9-1-2.3-1.4-3.5-1.4
			c-4.4-0.1-8.9,0.2-13.3-0.6c-4.3-0.7-9.8-2.6-11-7.3c-0.1-0.3-0.5-0.2-0.4,0.1c0.2,0.9,0.6,1.6,1,2.4s1.1,1.3,1.9,1.8
			c1.6,1.2,3.5,2.1,5.4,2.6c4,1.2,8.2,1.2,12.4,1.2c2,0,4.9-0.5,6.7,0.8c0.9,0.7,1.1,1.6,1.8,2.4c0.6,0.7,1.3,1.3,1.9,1.9
			c0.7,0.7,1.4,1.6,0.8,2.6c-0.5,0.8-1.6,0.8-2.2,1.5c-1,1.1,0.4,2.2,1.4,2.6c1.4,0.6,3.1,0,4.3-0.9c1.2-0.9,1.1-2.3,0.7-3.6
			c-0.3-1.1-0.8-2.3-0.1-3.3c0.6-1.1,2-1.8,3-2.5c1.9-1.5,3.1-3.2,4.4-5.2c1.4-2,3-3.9,4.3-6c1.1-1.7,1.9-3.5,2.6-5.4
			c1.2-3.7,1.6-7.7,0.8-11.5c-0.8-4.3-3.1-8.4-6.6-11c-3.8-2.9-8.4-4.3-13.1-4.8C92.5,71.4,92.5,71.9,92.7,71.9L92.7,71.9z"/>
	</g>
</g>
<g>
	<g>
		<path class="st11" d="M75.8,77.2c1.5-0.6,2.7-1.7,4.1-2.5c1.6-0.9,3.2-1.6,5-2.1c0.3-0.1,0.2-0.5-0.1-0.4c-1.7,0.5-3.3,1.1-4.8,2
			c-1.5,0.8-2.7,2-4.3,2.6C75.4,76.9,75.5,77.3,75.8,77.2L75.8,77.2z"/>
	</g>
</g>
<g>
	<g>
		<path class="st11" d="M88.6,114.3c-1.2,2-2.6,3.8-4.6,5c-0.1,0-0.1,0.2-0.1,0.2c0.5,1.4,0.6,3.2-0.5,4.4c-1,1.1-2.8,1.4-4.1,0.9
			c-0.8-0.3-1.1-1.1-0.6-1.8c0.7-0.8,1.9-0.8,2.8-0.4c0.2,0.1,0.4-0.1,0.3-0.2c-0.3-1-0.3-2.1-0.6-3.2c-0.2-0.8-0.7-1.5-1.3-2
			c-0.5-0.4-1.1-0.7-1.6-1.1c-0.7-0.6-0.9-1.3-0.8-2.2c0-0.3-0.4-0.3-0.4,0c-0.1,0.7,0,1.4,0.5,2c0.4,0.5,1,0.8,1.6,1.2
			c0.8,0.5,1.4,1.1,1.7,2c0.3,1.1,0.3,2.2,0.6,3.3c0.1-0.1,0.2-0.2,0.3-0.2c-0.9-0.4-1.9-0.5-2.8,0c-0.6,0.4-1.1,1.1-0.9,1.8
			c0.2,0.9,1.3,1.2,2.1,1.3c1.4,0.1,2.9-0.3,3.8-1.4c1-1.3,0.9-3.1,0.4-4.6c0,0.1-0.1,0.2-0.1,0.2c2.1-1.2,3.5-3,4.7-5.1
			C89.1,114.3,88.8,114.1,88.6,114.3L88.6,114.3z"/>
	</g>
</g>
<g>
	<g>
		<path class="st11" d="M82.3,94.2c-0.4,3.2,0.4,6.3,3,8.3c2.6,1.9,6,2.6,9.1,2.5c3-0.1,6.5-0.8,8.9-2.7c2.1-1.7,3.7-4.6,3.5-7.3
			c-0.1-1-0.5-2.1-1.5-2.5c-1.5-0.6-3.3,0.3-4.6,1.1c0.1,0.1,0.2,0.2,0.3,0.3c0.9-1.1,1.2-2.5-0.1-3.4c-1.3-0.9-3.1-0.7-4.3,0.2
			c0.1,0.1,0.2,0.2,0.3,0.2c0.9-3.7-4.3-2.8-6.2-1.7c-0.2,0.1,0,0.5,0.2,0.4c1.6-0.9,6.4-2,5.6,1.2c0,0.2,0.2,0.4,0.3,0.2
			c0.9-0.7,2.2-0.9,3.3-0.5c1.5,0.6,1.5,1.9,0.6,3c-0.1,0.2,0,0.5,0.3,0.3c1.1-0.7,2.7-1.5,4.1-1.1c1,0.3,1.4,1.3,1.4,2.3
			c0.1,2.5-1.4,5.1-3.2,6.7c-2.2,1.8-5.3,2.5-8,2.7c-2.9,0.2-6-0.2-8.5-1.7c-3.1-1.8-4.4-5-3.9-8.5C82.8,94.1,82.4,93.9,82.3,94.2
			L82.3,94.2z"/>
	</g>
</g>
<g>
	<g>
		<path class="st11" d="M90.8,89.2c-0.2,1.7,1.7,2.1,3,2.3c0.8,0.1,1.6,0.2,2.3,0.5c0.9,0.4,0.3,1.1-0.2,1.6c-0.1,0.1,0,0.4,0.2,0.4
			c1.1,0,2.9-0.9,3.6,0.3c0.8,1.3-1.2,2.7-2.2,3.1c-0.3,0.1-0.2,0.5,0.1,0.4c1.9-0.4,3.8,0.4,4.1,2.5c0.2,1.7-0.9,3.3-2.7,3.4
			c-0.3,0-0.3,0.4,0,0.4c2.1-0.1,3.4-1.9,3.1-4c-0.3-2.3-2.5-3.2-4.6-2.8c0,0.1,0.1,0.3,0.1,0.4c1.2-0.4,3.1-1.8,2.6-3.4
			c-0.6-1.8-2.8-0.9-4.1-0.8c0.1,0.1,0.1,0.2,0.2,0.4c0.4-0.4,1.1-1.1,0.8-1.8c-0.3-0.5-1.1-0.7-1.6-0.8c-1.1-0.2-4.4-0.3-4.2-2
			C91.2,89,90.8,88.9,90.8,89.2L90.8,89.2z"/>
	</g>
</g>
<g>
	<g>
		<path class="st11" d="M80.5,26c-2.7-3.9-7.1-7.1-11.4-9.2c-5-2.3-10.4-3-15.8-2.7c-2.7,0.1-5.3,0.4-7.9,0.7
			c-2.5,0.2-5.1,0.5-7.6,1c-5,0.9-9.3,3-13,6.5c-17.4,16-6.5,42.1,0.9,60.2c2.5,6.1,5.2,12.2,7.2,18.6c1.8,5.7,2.7,11.8,6,16.9
			c0.3,0.5,1,0,0.7-0.4c-2.8-4.4-3.9-9.5-5.3-14.4c-1.5-5.3-3.6-10.5-5.7-15.6c-4.1-10-8.5-20.1-10.9-30.7c-2.3-10-2.5-21,3.7-29.7
			c3-4.1,7.1-7.6,11.9-9.3C38,16.2,43,16,47.8,15.5c6.1-0.6,12.2-1,18,1c2.8,0.9,5.3,2.4,7.6,4.1c2.3,1.7,4.6,3.5,6.2,5.9
			C80,26.9,80.8,26.5,80.5,26L80.5,26z"/>
	</g>
</g>
<g>
	<g>
		<path class="st11" d="M17.6,34c-3.8-0.3-7-3.5-6.3-7.5c0.6-3.5,4.1-6.1,7.5-6.3c1.9-0.1,4.4-0.1,5.7,1.6c0.3,0.4,0.9-0.2,0.6-0.6
			c-1.3-1.7-3.5-1.8-5.5-1.8c-2.1,0-4.1,0.7-5.8,1.9c-3.3,2.4-4.7,7-2.2,10.5c1.4,1.9,3.6,3,5.9,3.1C18.2,34.9,18.2,34,17.6,34
			L17.6,34z"/>
	</g>
</g>
<g>
	<g>
		<path class="st11" d="M74.9,20.1c1.5-0.8,3.2-1.3,5-1.5c1.7-0.2,3.6-0.1,5.1,0.7c3,1.7,3.8,6,2.7,9.1c-0.7,2.1-2.7,3.7-4.8,4.1
			c-0.5,0.1-0.3,0.9,0.2,0.8c2.1-0.3,4-1.8,5-3.7c0.9-1.6,1.1-3.6,0.8-5.4c-0.3-1.9-1.1-3.7-2.6-5s-3.5-1.6-5.4-1.6
			c-2.2,0.1-4.5,0.7-6.4,1.7C73.9,19.6,74.4,20.3,74.9,20.1L74.9,20.1z"/>
	</g>
</g>
<g>
	<g>
		<path class="st11" d="M45.8,40.1c0.1,0,0.2,0,0.2-0.1s0-0.3-0.1-0.4c-0.3,0.2-0.7,0.1-1,0.3c-0.5,0.2-1,0.7-1.5,1
			c-0.9,0.7-1.8,1.6-2.2,2.7c-1.1,2.7,2.5,4,4.6,3.7c1.6-0.2,3.1-0.9,4.8-1.1c1.5-0.1,2.7,0.4,4.1,0.7c1,0.3,2.1,0.5,3-0.2
			c0.9-0.6,1.3-1.9,1.2-3c-0.4-2.6-3.6-3.9-5.8-4.7c-0.3-0.1-0.4,0.3-0.1,0.4c1.8,0.7,4.2,1.7,5.2,3.5c0.6,1.1,0.4,2.5-0.6,3.3
			c-0.9,0.7-2.2,0.4-3.2,0.1c-1-0.3-1.9-0.6-2.9-0.6c-1.3-0.1-2.6,0.3-3.9,0.7c-1.5,0.4-3,0.7-4.4,0.1c-1.1-0.5-2-1.3-1.6-2.6
			c0.4-1.2,1.5-2.1,2.4-2.9c0.4-0.3,0.8-0.6,1.2-0.7c0.3-0.1,0.6-0.1,0.9-0.3c0.2-0.1,0.1-0.3-0.1-0.4c-0.1,0-0.3,0-0.5,0.1
			C45.4,39.8,45.5,40.2,45.8,40.1L45.8,40.1z"/>
	</g>
</g>
<g>
	<g>
		<path class="st11" d="M54.2,46.9c0.4,0.9,0.6,1.9,0.6,2.9c0,0.9,0,2-0.6,2.7c-0.6,0.6-1.6,1-2.4,0.6c-0.6-0.3-0.8-1.2-1.1-1.7
			c-0.1-0.2-0.5,0-0.4,0.2c0.3,0.5,0.5,1.2,0.9,1.6c0.5,0.5,1.3,0.5,2,0.3s1.4-0.7,1.7-1.4c0.3-0.8,0.4-1.7,0.4-2.5c0-1-0.2-2-0.6-3
			C54.5,46.5,54.1,46.6,54.2,46.9L54.2,46.9z"/>
	</g>
</g>
<g>
	<g>
		<path class="st11" d="M37.7,117.9c3.4-0.6,3.6,3.9,5.2,5.9c0.1-0.1,0.2-0.2,0.2-0.3c-1.6-0.3-3.3,0.2-4.8,0.7s-3.4,1.3-5,0.8
			c-1.4-0.4-2.5-2.2-2.1-3.6c0.4-1.3,1.9-2,3.1-2.5c1.4-0.5,2.9-0.9,4.4-1c0.3,0,0.3-0.5,0-0.4c-1.4,0.2-2.9,0.5-4.2,1
			s-2.8,1.1-3.5,2.4s-0.1,3,0.9,3.9c1.3,1.2,3.1,0.9,4.7,0.5c2-0.6,4.3-1.7,6.4-1.3c0.2,0,0.4-0.2,0.2-0.3c-1.7-2.2-1.9-6.7-5.7-6.1
			C37.4,117.6,37.5,118,37.7,117.9L37.7,117.9z"/>
	</g>
</g>
<g>
	<g>
		<path class="st11" d="M31.9,123.7c0-1.8,1.9-2.8,3.5-3c0.1,0,0.2-0.1,0.2-0.2s-0.1-0.2-0.2-0.2c-1.8,0.2-3.9,1.3-3.9,3.4
			C31.5,124,31.9,124,31.9,123.7L31.9,123.7z"/>
	</g>
</g>
<g>
	<g>
		<path class="st11" d="M84.6,67.8c0.3,0.2,0.9,0.1,1.3,0.1c0.5,0,1,0,1.6,0.1c1.5,0.3,2.9,1,3.8,2.2c0.7,1,1.1,2.3,0.7,3.5
			c-0.4,1.3-1.8,1.3-3,1c-1.6-0.4-2.8-1.6-3.9-2.7c-0.2-0.2-0.5,0.1-0.3,0.3c1.1,1.1,2.2,2.1,3.7,2.7c1.1,0.4,2.7,0.6,3.6-0.5
			c0.7-0.9,0.6-2.4,0.2-3.4c-0.6-1.4-1.8-2.4-3.2-3c-0.8-0.3-1.6-0.6-2.5-0.6c-0.3,0-0.7,0-1,0c-0.2,0-0.6,0.1-0.8-0.1
			C84.6,67.3,84.4,67.7,84.6,67.8L84.6,67.8z"/>
	</g>
</g>
<g>
	<g>
		<path class="st11" d="M88.9,72.3c1.1,0.3,2.6,1.4,1.9,2.7c-0.1,0.2,0.2,0.5,0.4,0.2c0.2-0.3,0.3-0.7,0.3-1.1s-0.2-0.7-0.4-1
			c-0.5-0.6-1.2-1-2-1.2C88.8,71.8,88.6,72.2,88.9,72.3L88.9,72.3z"/>
	</g>
</g>
<path class="st12" d="M73.7,29.2c0-5.8-4.7-10.5-10.5-10.5s-10.5,4.7-10.5,10.5s4.7,10.5,10.5,10.5S73.7,35,73.7,29.2z"/>
<path class="st12" d="M47.2,30.3c0-5.8-4.7-10.5-10.5-10.5s-10.5,4.7-10.5,10.5s4.7,10.5,10.5,10.5S47.2,36.1,47.2,30.3z"/>
<path class="st11" d="M83.8,25c0-1.2-1-2.2-2.2-2.2s-2.2,1-2.2,2.2s1,2.2,2.2,2.2S83.8,26.3,83.8,25z"/>
<path class="st11" d="M20.8,27c0-1.2-1-2.2-2.2-2.2s-2.2,1-2.2,2.2s1,2.2,2.2,2.2S20.8,28.2,20.8,27z"/>
<path class="st11" d="M54.7,38.9c0-1.4-2.1-2.6-4.7-2.6c-2.6,0-4.7,1.2-4.7,2.6c0,1.4,2.1,2.6,4.7,2.6
	C52.6,41.5,54.7,40.3,54.7,38.9z"/>
<path class="st11" d="M61.8,28.9c-1.9-0.1-3.5,1.3-3.6,3.2s1.3,3.5,3.2,3.6s3.5-1.3,3.6-3.2C65.1,30.6,63.7,29,61.8,28.9z M63,34.5
	c-0.5,0-1-0.4-1-1c0-0.5,0.4-1,1-1c0.5,0,1,0.4,1,1C63.9,34.1,63.5,34.5,63,34.5z"/>
<path class="st11" d="M39,29.6c-1.9,0-3.4,1.5-3.4,3.4s1.5,3.4,3.4,3.4s3.4-1.5,3.4-3.4C42.5,31.1,40.9,29.6,39,29.6z M40.4,35.2
	c-0.5,0-1-0.4-1-1c0-0.5,0.4-1,1-1c0.5,0,1,0.4,1,1S40.9,35.2,40.4,35.2z"/>
<g>
	<g>
		<path class="st11" d="M50.2,46.1c0.2,0.6,0.1,1.3,0.1,2s0,1.5,0,2.2c-0.1,1-0.3,2.5-1.4,3c-0.9,0.4-1.9,0-2.4-0.8
			s-0.6-1.7-0.6-2.6c0-0.9,0.1-1.9,0.4-2.8c0.1-0.3-0.3-0.4-0.4-0.1c-0.3,0.9-0.4,1.9-0.4,2.9s0.1,2.1,0.7,2.9
			c0.5,0.8,1.6,1.3,2.6,1.1c1.1-0.3,1.7-1.4,1.9-2.5c0.2-1,0.2-1.9,0.1-2.9c0-0.8,0.1-1.6-0.1-2.4C50.6,45.8,50.2,45.9,50.2,46.1
			L50.2,46.1z"/>
	</g>
</g>
<g>
	<g>
		<path class="st11" d="M32.8,81.1c0.6,2.3,2.8,4,5,4.8c0.8,0.3,1.7,0.5,2.4,0.3c0.9-0.2,1.2-1,1.2-1.9c0-0.3-0.4-0.3-0.4,0
			c0,0.8-0.4,1.4-1.2,1.5c-0.7,0.1-1.5-0.1-2.1-0.4c-1.9-0.8-3.9-2.3-4.4-4.4C33.1,80.7,32.7,80.9,32.8,81.1L32.8,81.1z"/>
	</g>
</g>
<g>
	<g>
		<path class="st11" d="M38.9,83.5c0.5,0.4,1.2,0.8,2,0.8c0.7,0,1.1-0.6,1.2-1.3c0.1-1.7-1.7-2.7-3.1-3.3c-0.8-0.3-1.6-0.6-2.4-0.7
			c-0.3,0-0.4,0.4-0.1,0.4c1.4,0.2,2.8,0.8,3.9,1.5c0.5,0.3,1.1,0.8,1.2,1.4c0.1,0.5,0.2,1.3-0.4,1.5c-0.6,0.2-1.4-0.2-1.9-0.6
			C39,83,38.7,83.3,38.9,83.5L38.9,83.5z"/>
	</g>
</g>
<g>
	<g>
		<path class="st11" d="M78.3,24.6c4.5,6.6,5.5,14.6,5.6,22.4c0,3.8-0.1,7.6-0.1,11.4c0,4.6,0.2,9.3,0.5,13.9c0,0.5,0.9,0.6,0.9,0
			c-0.3-4.7-0.5-9.4-0.5-14.1c0-4,0.2-8,0.1-12c-0.2-7.7-1.2-15.6-5.7-22.1C78.8,23.7,78,24.1,78.3,24.6L78.3,24.6z"/>
	</g>
</g>
<path class="st12" d="M74.7,61.1c0-2.7-2.2-4.9-4.9-4.9c-2.7,0-4.9,2.2-4.9,4.9s2.2,4.9,4.9,4.9C72.4,66,74.7,63.8,74.7,61.1z"/>
<path class="st12" d="M64.8,61.1c0-2.7-2.2-4.9-4.9-4.9S55,58.4,55,61.1s2.2,4.9,4.9,4.9C62.5,66,64.8,63.8,64.8,61.1z"/>
<path class="st11" d="M69.9,59.5c-0.9-0.1-1.7,0.6-1.7,1.5c-0.1,0.9,0.6,1.7,1.5,1.7c0.9,0.1,1.7-0.6,1.7-1.5S70.8,59.5,69.9,59.5z
	 M70.4,62.1c-0.3,0-0.5-0.2-0.5-0.5s0.2-0.5,0.5-0.5s0.5,0.2,0.5,0.5C70.9,61.9,70.7,62.1,70.4,62.1z"/>
<path class="st11" d="M59.9,59.4c-0.9,0-1.6,0.7-1.6,1.6c0,0.9,0.7,1.6,1.6,1.6c0.9,0,1.6-0.7,1.6-1.6
	C61.5,60.2,60.8,59.4,59.9,59.4z M60.6,62.1c-0.3,0-0.5-0.2-0.5-0.5s0.2-0.5,0.5-0.5s0.5,0.2,0.5,0.5C61,61.9,60.8,62.1,60.6,62.1z"
	/>
<g>
	<g>
		<path class="st11" d="M42.6,123.6c5.3,2.7,12-0.3,17-2.4c6.2-2.7,12.4-4,19.2-4c0.3,0,0.3-0.4,0-0.4c-6,0-11.8,1-17.4,3.3
			c-5.5,2.2-12.7,6.3-18.5,3.3C42.6,123.1,42.4,123.5,42.6,123.6L42.6,123.6z"/>
	</g>
</g>
<g>
	<g>
		<path class="st11" d="M54.1,65.1c-0.4,0.3-1,0.7-1,1.3c0,0.4,0.5,0.7,0.8,0.8c0.6,0.2,1.2,0.2,1.7,0.2c0.7,0,1.4,0,2-0.1
			c0.5-0.1,1.2-0.2,1.6-0.5c0.1,0,0.1-0.2,0.1-0.2c-0.8-2-3.4-1.2-5-1.8c-0.3-0.1-0.4,0.3-0.1,0.4c0.8,0.3,1.7,0.2,2.6,0.3
			c0.8,0.1,1.8,0.3,2.1,1.1c0-0.1,0.1-0.2,0.1-0.2c-0.3,0.2-0.8,0.3-1.2,0.4C57.2,66.9,56.6,67,56,67s-1.1,0-1.7-0.1
			c-0.2,0-0.4-0.1-0.6-0.2c-0.1-0.1-0.3-0.1-0.3-0.2c0,0,0,0,0-0.1c0,0,0,0,0-0.1c0,0,0-0.1,0.1-0.2c0.2-0.3,0.4-0.4,0.7-0.6
			C54.5,65.3,54.3,64.9,54.1,65.1L54.1,65.1z"/>
	</g>
</g>
<g>
	<g>
		<path class="st11" d="M55.5,67.5c-0.4,8.6-1.2,17.1,1.4,25.5c0.1,0.3,0.5,0.2,0.4-0.1C54.7,84.5,55.6,76,56,67.5
			C56,67.2,55.5,67.2,55.5,67.5L55.5,67.5z"/>
	</g>
</g>
<g>
	<g>
		<path class="st11" d="M101.9,73.8c-0.8-3.6-2-7.4-1.3-11.1c0.2-1.1,0.5-2.5,1.6-3.1c0.7-0.4,1.6-0.4,2.4-0.4c1.9,0,3,1.3,3.8,2.9
			c2.5,4.7,0.8,10.6-0.9,15.3c-0.1,0.3,0.3,0.4,0.4,0.1c0.2-0.6,0.4-1.1,0.7-1.7c0.1-0.2,0.4-0.7,0.2-0.7c-0.1-0.1-0.2-0.2-0.3-0.3
			c-0.1,0.8-0.7,1.7-1,2.4c0.1,0.1,0.3,0.1,0.4,0.2c1.4-3.7,3.1-7.2,5.1-10.5c1.3-2.2,3.8-6.1,6.9-5c2.2,0.7,2.8,3.8,2.9,5.8
			c0.1,2.8-1.2,5.2-3,7.3c-2.4,2.9-5.7,5.1-9.1,6.7c0.1,0.1,0.2,0.2,0.3,0.3c3.1-2.8,6.6-5.1,10.4-6.8c2.1-0.9,4.8-1.8,6.9-0.6
			c1.6,0.9,2.4,2.8,2.4,4.6c-0.1,8.1-12.7,10.1-18.3,6.9c0,0.1,0,0.3-0.1,0.4c3.2-1.2,8.2-0.1,10.2,2.8c1.4,2,0.7,4.9-1.9,5.4
			c-2.6,0.6-5.6-1-7.6-2.5c-0.2-0.2-0.4,0.2-0.2,0.4c2.1,1.6,5.5,3.3,8.3,2.4c2.1-0.6,3.2-2.9,2.4-5c-1.5-3.9-7.6-5.3-11.2-4
			c-0.2,0.1-0.2,0.3-0.1,0.4c2.8,1.6,6.3,1.8,9.4,1.2c3-0.5,6.1-1.8,8-4.3c1.6-2.2,2.1-5.3,0.6-7.7c-1.9-2.9-5.5-2.4-8.3-1.2
			c-4.1,1.7-7.8,4.2-11.1,7.1c-0.2,0.2,0.1,0.4,0.3,0.3c5.4-2.6,12.6-7.7,12.3-14.5c-0.1-2-0.7-4.7-2.6-5.8
			c-2.4-1.4-5.1,0.9-6.5,2.7c-1.3,1.8-2.4,3.8-3.4,5.7c-1.2,2.3-2.3,4.7-3.2,7.2c-0.1,0.2,0.3,0.4,0.4,0.2c0.3-0.8,0.9-1.7,1-2.5
			c0-0.2-0.1-0.3-0.3-0.3c-0.5,0.1-1,2.3-1.2,2.6c0.1,0,0.3,0.1,0.4,0.1c1.9-5.3,3.8-12.7-0.4-17.4c-1.2-1.3-2.3-1.3-3.9-1.3
			c-1.6,0.1-2.6,0.9-3,2.5c-1.2,4.2,0.1,8.6,1,12.7C101.5,74.2,101.9,74.1,101.9,73.8L101.9,73.8z"/>
	</g>
</g>
<g>
	<g>
		<path class="st11" d="M101.7,74c0.9-1.1,1.6-2.5,1.2-3.9c-0.3-1.2-1.4-2-2.5-2.4c-1-0.4-2.2-0.7-3.3-0.6c-1,0.1-2.1,0.4-2.5,1.4
			c-0.6,1.4,0.6,2.8,1.4,3.8c0.2,0.2,0.5-0.1,0.3-0.3c-0.7-0.8-1.6-1.9-1.5-3c0.1-1,1.2-1.4,2.1-1.5s1.8,0.1,2.7,0.4
			c1,0.3,2,0.9,2.5,1.8c0.8,1.3,0.1,2.9-0.8,4C101.2,73.9,101.5,74.2,101.7,74L101.7,74z"/>
	</g>
</g>
<g>
	<g>
		<path class="st11" d="M106.2,76.5c0.4-3.9,0.4-8.4,3.1-11.5c0.4-0.5,1-1,1.7-1.1s1.4,0.3,2,0.7c1.1,0.7,1.6,1.6,1.6,2.9
			c0.1,2.2-0.7,4.3-1.8,6.1c-1.2,2-2.6,3.8-4,5.7c-0.2,0.2,0.2,0.4,0.4,0.2c2.7-3.7,6.5-7.9,5.8-12.9c-0.1-0.9-0.7-1.7-1.4-2.2
			c-0.8-0.6-1.8-1.2-2.9-0.9c-2,0.7-3.1,3.3-3.7,5.2c-0.7,2.5-0.8,5.1-1.1,7.7C105.7,76.8,106.2,76.8,106.2,76.5L106.2,76.5z"/>
	</g>
</g>
<g>
	<g>
		<path class="st11" d="M109.8,81c2.5-2.7,5.3-5.2,8.4-7.1c1.2-0.7,3.2-1.9,4.7-1.2c0.7,0.4,1,1.2,1.2,1.9c0.4,1.8-0.2,3.5-1.3,4.9
			c-1.2,1.6-2.9,2.8-4.6,3.7c-1.9,1-4,1.7-6.1,1.2c-0.3-0.1-0.4,0.4-0.1,0.4c3.5,0.8,7.4-1.3,9.9-3.7c1.2-1.2,2.3-2.6,2.6-4.3
			c0.2-1.2,0.1-2.6-0.5-3.7c-0.9-1.5-2.7-1.2-4.1-0.6c-2.1,0.9-4,2.3-5.7,3.8c-1.6,1.4-3.2,2.8-4.6,4.4
			C109.3,80.9,109.6,81.2,109.8,81L109.8,81z"/>
	</g>
</g>
<g>
	<g>
		<path class="st11" d="M44.1,15.1c-1.7-0.4-1.8-2.4-1.6-3.8c0.3-1.7,1.1-3.6,2.6-4.7c0.7-0.5,1.5-0.7,2.3-0.6
			C48,6.1,49,6.5,49.2,7.2c0.1,0.6-0.5,1.2-0.8,1.5c-0.6,0.6-1.4,1.1-2.1,1.7c-0.8,0.6-1.6,1.1-2.3,1.8c-0.5,0.4-1.1,1-1.1,1.7
			c0,0.3,0.4,0.3,0.4,0c0-0.7,0.7-1.3,1.2-1.7c0.8-0.7,1.6-1.2,2.4-1.9c0.7-0.5,1.5-1.1,2.1-1.8c0.4-0.5,0.8-1.1,0.5-1.7
			c-0.3-0.7-1.2-1.2-1.9-1.3c-0.9-0.2-1.7,0-2.5,0.4c-1.6,1-2.6,3-3,4.8C41.8,12.6,42,15,44,15.5C44.3,15.6,44.4,15.1,44.1,15.1
			L44.1,15.1z"/>
	</g>
</g>
<g>
	<g>
		<path class="st11" d="M45,14.9c0.2-1.2,0.8-2.4,1.8-3.1c1-0.7,2.3-1,3.5-0.8c-0.1-0.1-0.1-0.2-0.2-0.3c-0.7,1.8-2.5,3-4.3,3.6
			c-0.3,0.1-0.1,0.5,0.1,0.4c2-0.7,3.8-2,4.6-3.9c0.1-0.1-0.1-0.3-0.2-0.3c-1.3-0.2-2.7,0.2-3.8,1s-1.7,2-1.9,3.4
			C44.5,15.2,44.9,15.2,45,14.9L45,14.9z"/>
	</g>
</g>
<g>
	<g>
		<path class="st11" d="M57,92.1c-1.8-2.7-2.7-5.9-4-8.9c-1.2-2.7-2.8-5.9-5.6-7.3c-1.7-0.8-5-1.1-6.2,0.8c-1.1,1.9,0.1,4.5,0.9,6.2
			c1.2,2.4,3,5.1,5.3,6.6c0-0.1,0.1-0.3,0.1-0.4c-3.4,0.3-9.5,2.1-8.9,6.7c0.7,4.7,7.4,4.2,10.7,3.4c-0.1-0.1-0.1-0.3-0.2-0.4
			c-2.3,1.2-5,4-3,6.6c2.5,3.3,5.9,0.9,8.7-0.4c-0.1-0.1-0.2-0.2-0.3-0.2c-0.5,1.8-0.4,4.2,1.9,4.4c2.2,0.2,4.3-1.4,5.3-3.2
			c0.1-0.2-0.2-0.5-0.4-0.2c-0.9,1.5-2.6,2.8-4.4,3c-2.4,0.2-2.6-2-2.1-3.8c0.1-0.2-0.2-0.3-0.3-0.2c-2.4,1.1-5.4,3.3-7.8,0.9
			c-2.4-2.4,0.2-5.2,2.5-6.4c0.2-0.1,0.1-0.5-0.2-0.4c-3,0.8-9.3,1.4-10.1-2.9s5.3-6,8.4-6.3c0.2,0,0.3-0.3,0.1-0.4
			c-1.9-1.2-3.3-3.2-4.4-5.1c-1.1-1.8-2.5-4.3-1.9-6.5c0.7-2.5,4.7-2.1,6.4-1.1c2.5,1.5,3.9,4.6,5,7.1c1.3,2.8,2.2,6,3.9,8.6
			C56.7,92.5,57.1,92.3,57,92.1L57,92.1z"/>
	</g>
</g>
<g>
	<g>
		<path class="st11" d="M53.9,86.9c-0.5-1.1-1.4-2.3-2.8-2.1C50,85,49.2,86,48.8,87c-0.5,1.2-0.6,2.7-0.1,4c0.7,1.6,2.3,2.4,3.9,2.8
			c0-0.1,0-0.3,0.1-0.4c-1.7,0.1-2.8,1.3-4.2,2.1c-0.1,0-0.1,0.2-0.1,0.2c1.1,2.8,4,3.6,6.2,1.5c-0.1-0.1-0.2-0.2-0.3-0.3
			c-1,1.1-2.1,3-1.4,4.5c0.7,1.7,2.6,0.3,3.5-0.5c-0.1-0.1-0.2-0.1-0.4-0.2c-0.2,1.4,0,3.3,1.5,4c1.5,0.6,2.7-0.6,3.4-1.8
			c-0.1,0-0.3,0-0.4-0.1c0.4,1.2,1,2.4,1,3.7c0,0.3,0.4,0.3,0.4,0c-0.1-1.4-0.6-2.6-1-3.8c-0.1-0.2-0.3-0.2-0.4-0.1
			c-0.5,1-1.6,2.2-2.9,1.6c-1.2-0.6-1.3-2.3-1.2-3.5c0-0.2-0.2-0.4-0.4-0.2c-0.8,0.7-2.7,2-2.9,0c-0.1-1.3,0.6-2.6,1.5-3.5
			c0.2-0.2-0.1-0.5-0.3-0.3c-1.4,1.3-3.4,1.6-4.7,0c-0.2-0.2-0.7-0.9-0.6-1.2c0.1-0.2,0.8-0.5,1-0.7c0.8-0.6,1.7-1.2,2.8-1.2
			c0.2,0,0.3-0.4,0.1-0.4c-1.5-0.3-2.9-1-3.6-2.4c-0.5-1.1-0.5-2.4-0.1-3.5c0.3-0.9,1-1.9,1.9-2.1c1.2-0.3,2.1,0.9,2.5,1.8
			C53.6,87.4,54,87.2,53.9,86.9L53.9,86.9z"/>
	</g>
</g>
<g>
	<g>
		<path class="st11" d="M61.3,100.6c-1.6-0.5-3.1-1.5-4.1-2.9c-0.5-0.6-0.8-1.4-0.8-2.2c-0.1-0.9,0.3-1.8,0.9-2.5
			c0.2-0.2-0.1-0.5-0.3-0.3c-0.6,0.7-1,1.6-1,2.6c0,0.9,0.3,1.7,0.8,2.5c1,1.5,2.7,2.6,4.4,3.2C61.4,101.1,61.6,100.6,61.3,100.6
			L61.3,100.6z"/>
	</g>
</g>
<g>
	<g>
		<path class="st11" d="M82.7,94.6c-0.1,1.4,0.6,2.8,2.1,3.1c1.1,0.2,2.5-0.3,2.9-1.5c0.3-0.8,0-1.7-0.4-2.4
			c-0.1,0.1-0.2,0.2-0.3,0.3c1,0.6,2.2,0.1,2.8-0.8c0.9-1.2,0.4-2.6-0.5-3.6c0,0.1,0,0.2,0,0.3c0.6-0.3,1.3-0.3,2-0.3
			c0.3,0,0.3-0.4,0-0.4c-0.8,0-1.5,0-2.2,0.4c-0.1,0.1-0.1,0.2,0,0.3c0.8,0.8,1.2,2,0.5,3.1c-0.5,0.7-1.5,1.2-2.3,0.7
			c-0.2-0.1-0.4,0.1-0.3,0.3c0.6,1,0.8,2.3-0.4,3c-0.9,0.5-2.1,0.3-2.8-0.4c-0.5-0.5-0.6-1.3-0.6-2C83.1,94.3,82.7,94.3,82.7,94.6
			L82.7,94.6z"/>
	</g>
</g>
<g>
	<g>
		<path class="st11" d="M45.1,46.9c-2.8,0.1-5.9-0.7-7.5-3.1c-0.1-0.1-0.2-0.1-0.3,0c-0.7,0.7-1.2,1.5-1.2,2.5c0,0.3,0.4,0.3,0.4,0
			c0-0.9,0.5-1.6,1.1-2.2c-0.1,0-0.2,0-0.3,0c1.7,2.6,4.9,3.5,7.9,3.4C45.4,47.3,45.4,46.9,45.1,46.9L45.1,46.9z"/>
	</g>
</g>
<g>
	<g>
		<path class="st11" d="M58.1,46.7c2.3-0.6,4.4-2.1,5.6-4.2c-0.1,0-0.2,0-0.3,0c0.7,0.9,1.3,1.9,1.3,3c0,0.3,0.4,0.3,0.4,0
			c0-1.3-0.6-2.4-1.4-3.3c-0.1-0.1-0.3-0.1-0.3,0c-1.1,2-3.1,3.4-5.3,4C57.8,46.3,57.9,46.7,58.1,46.7L58.1,46.7z"/>
	</g>
</g>
</svg>
