<?xml version="1.0" encoding="utf-8"?>
<!-- Generator: Adobe Illustrator 24.0.1, SVG Export Plug-In . SVG Version: 6.00 Build 0)  -->
<svg version="1.1" id="Layer_1" xmlns="http://www.w3.org/2000/svg" xmlns:xlink="http://www.w3.org/1999/xlink" x="0px" y="0px"
	 viewBox="0 0 141.7 141.7" style="enable-background:new 0 0 141.7 141.7;" xml:space="preserve">
<style type="text/css">
	.st0{fill:#78AE69;}
	.st1{fill:#76CBE9;}
	.st2{fill:#E27D9A;}
	.st3{fill:#FFFFFF;}
	.st4{fill:#C4A99A;}
	.st5{fill:#EA393B;}
	.st6{fill:#F5CB1A;}
	.st7{fill:#631113;}
	.st8{fill:#979797;}
	.st9{fill:#676868;}
	.st10{fill:#ED7AAA;}
	.st11{fill:#070707;}
	.st12{fill:none;stroke:#070707;stroke-width:0.4354;stroke-miterlimit:10;}
</style>
<ellipse class="st0" cx="70.9" cy="118.3" rx="51.8" ry="19.2"/>
<path class="st1" d="M31.9,65.6l-1.6-5.7l-0.7-5.6l-0.1-5.9l0.7-4.1l0.5-2.6l0.2-1.1l-2.6-0.4c0,0-5.8-2.2-5.4-7.7
	c0,0,0.6-7.5,10.1-8.4l3.9,0.8l1.8,1.5c0,0,5.4-6.6,16-7.6l13.5-1.5h8.6l7.2,1.6c0,0,8,3.1,9.7,5.4l4.7-1.7l4.1-0.4l3.6,1.6
	c0,0,4.4,3.3,2.7,9.7c0,0-0.9,2.1-0.8,2.2c0,0.1-2.5,2.2-2.5,2.2l-2.8,0.9l1.6,8.7l0.2,7.8l-0.2,3.2l-0.2,0.9l-3.5-2.4l-3.1-0.7
	l-3.2-0.1l-3,0.9l-1.5,1.1L88.8,60l-0.2,1.7c0,0-1.8,2.4-0.9,4c0,0,0.8,2,2.6,2.7l0.3,2.7l0.1,1.4L89.8,75l0.9,0.4h0.5l2.2,4.5
	l0.7,2.3l0,0.2l-2-0.6l-2,0.3l-2.3,1.2l-0.4,1.2l-0.2,1.4l0.4,1.3l0.2,1.8l-1.7-0.5l-1.4,0.6c0,0-0.2,1.2-0.2,1.3
	c0.1,0.1,0.9,1.8,0.9,1.8l1,1.4l-1,0.6l-0.8,1.3l0,1.2c0,0,0.8,1.2,0.7,1.3c-0.1,0.1,1.8,1.9,1.8,1.9l-3.6,5.6l-2,0.4l-1.4,0.6
	l-0.1-1.4l-1.1-0.4l-1.7,0.8l1.3-7.7c0,0,1.7-5,1.7-5.1c0-0.1,0.6-3,0.6-3l-1.1-3.1l-1.2-1.2l-4-1.4l-1.3-0.6l-2.3,0l-3.1,1
	l-1.2,1.5l-0.5,1.7l-0.1,0.6l-0.8,1.2v1.2l0.4,1l0.8,1.3l0.9,0.9l0.3,0.8l0.2,1.9l-0.7,3l1.2,0.2c0,0,0.9,1.7,1,1.8s1,3.1,1,3.1
	l-1.1,0.6l-0.4,1.1l-1-0.8l-1.8-0.1l-0.7,1.1c0,0-0.6,1.5-0.6,1.6c0,0.1-0.1,0.5-0.1,0.5l-1.4-0.8l-2.5-0.8c0,0-0.7,0.3-0.8,0.4
	c-0.1,0.1-0.7,0.5-0.6,0.7c0.1,0.2,0.2,1.5,0.2,1.5l-5.3-0.6l-2.2-0.6l-0.4-0.5l-1.6-0.8l-1.3-0.3l3.9-1l2.5-0.5l0.8-0.9l-0.1-0.9
	l-7.9,0.3l-0.8-1.5l0.2-0.8l-0.8-1.2l0.2-1.9l2.5-4.1l2.3-5.3l0.8-3.9l0.7-3.1l0.3-4v-6.6L52,65.5l-2.3-3.6L45,59.3l-4.2-0.8
	l-4.2,0.6L35,60c0,0-2,1.9-2,2c0.1,0-0.5,1.9-0.5,1.9l0.2,0.8L31.9,65.6z"/>
<path class="st2" d="M38.8,58.5c0,0-0.9-1.6-1-1.6s-0.7-1.5-0.7-1.5v-0.7l1.1-0.2l0.9,0.4l0.4,1.7v1.7L38.8,58.5z"/>
<path class="st2" d="M40.2,58.1l0.4-1.9l-0.4-1.8l-1.3-2.5l-0.2-1.4L39,49l1.6-0.1l1.4,1.4c0,0,0.8,1.7,0.8,1.8s0.3,1.8,0.3,1.8
	l-0.2,1.5l-0.7,1.4l-1.4,1.6L40.2,58.1z"/>
<path class="st3" d="M41.1,40.6c0,0-4.2-8.5,4.1-14.2c0,0,7.9-5.9,15.4,2.1c0,0,4.9,5.5,1.8,12.1c0,0-3.3,7.2-10.5,7.1
	C52,47.7,43.7,48,41.1,40.6z"/>
<path class="st3" d="M69.8,38c0,0-2.6-7.3,4.5-12.5c0,0,6.6-5.5,14.4,0.5c0,0,6.2,5.2,3.3,12.9c0,0-2.5,6.6-8.9,7.4
	c0,0-4.6,0.9-8.1-1.4C75.1,44.8,70.7,42,69.8,38z"/>
<path class="st4" d="M61.9,46.8l-1,0.2c0,0-4.5,2.9-4,4.9c0,0-0.6,2.4,4.2,2.8l3.1-0.5l2.7-0.7l3.2,0.2c0,0,1.9,0.7,2,0.7
	c0.1,0,2.3,0.1,2.3,0.1l1.1-0.7c0,0,1.6-1.9,0-4.3l-1.4-1.4l-3-1.6l-2.4,1c0,0-3.8,0.7-3.6,0.5C65.3,47.9,61.9,46.8,61.9,46.8z"/>
<path class="st3" d="M62,55c0,0-1.2,3.6,0.5,5.9c0,0,1.2,1.4,2.6,1l1-0.9l0.8-1.2l0.4,0.6l0.9,1.1c0,0,2.1,0.9,3.3-1l0.5-1.2
	l0.1-1.7L71.8,56l-0.5-1.9l-2.4-0.7l-1.2,0.1l-1.8,0.1l-1.7,0.7l-2,0.3L62,55z"/>
<polygon class="st5" points="95.2,56 93.8,53.9 93.1,52 93.1,50.9 94.1,50.5 95.4,51.1 95.8,52.7 95.9,54.6 95.8,56.2 "/>
<path class="st5" d="M96.8,55.8l0.8-2l-0.3-2.6l-0.9-2.4l-1.2-2.6v-2.3l0.9-1.2l2.1-0.3c0,0,1.2,1.5,1.3,1.6c0.1,0.1,0.9,2,1.1,2.1
	c0.1,0,0.7,2.7,0.7,2.7v2l-0.5,1.5l-1.2,2.1l-1.9,1.3l-0.5,0.5L96.8,55.8z"/>
<polygon class="st2" points="90.6,71.7 90.1,68.4 91.7,68.6 93.2,68.3 92.3,69.7 90.9,72.2 "/>
<polygon class="st5" points="88.7,61.3 89.1,59.3 90.5,57.6 94,56.3 98.2,56.2 102.4,57.8 104,59.1 105.3,60.9 105.9,63.9 
	105.3,67.2 103.8,71.2 102.7,75.4 101.3,82.5 100,89.5 101,90.2 102.2,90.5 102.7,91.1 102.4,92.5 101.5,93.1 100.1,93.1 99.2,92.7 
	98.1,93.8 97.3,93.8 95.6,92.2 94.5,92 93.7,91.9 93.6,90.9 94.2,90.1 95.2,89.9 95.6,89.6 94.7,83.4 92.8,78.3 90.9,75.3 
	90.2,68.6 "/>
<path class="st3" d="M87.6,64.4c0,0-0.3-3.6,4.1-4.1c0,0,3.5,0,4.1,3.3c0,0,0.9,2.8-2.1,4.5c0,0-2.5,1.4-5-1
	C88.7,67.1,87.6,65.9,87.6,64.4z"/>
<path class="st3" d="M96.5,65.1c0,0-0.6-4.5,4.1-4.8c0,0,5.6,0.8,3.6,6c0,0-0.5,1.8-3.1,2.2l-1.3-0.1l-2.1-1l-1-1.5L96.5,65.1z"/>
<polygon class="st6" points="89.8,75 91.2,71.5 92.8,68.8 94.3,67.6 95.6,67.4 97.9,67.8 99.7,68.7 101.9,70.8 102.2,72.2 
	101.7,73.1 98.9,74.2 93.2,75.3 91,75.4 89.9,75.3 "/>
<polygon class="st7" points="95.4,75.2 94.8,76.5 94.8,77.5 95.4,77.5 96,76.7 96,75.3 "/>
<path class="st7" d="M96.3,78.2l0.5,2.1l0.9,1.5c0,0,0.8,0.4,0.9,0.3s1.3-0.7,1.3-0.7l0.7-1.4l0.1-1.5l-0.7-1.7l-1-1l-2.2-1L95.9,75
	l0.4,2.3L96.3,78.2z"/>
<path class="st4" d="M102,78.9c0.1,0,2.4-1.4,2.4-1.4l1-1.3l0.4-1.8l-0.5-2.2l-1.2-1.9l-1.2,4.6l-0.8,3.3L102,78.9z"/>
<path class="st6" d="M95.1,87.3c0,0-0.8-4.9-0.9-4.7c0,0.2-1.3-0.7-1.3-0.7l-1.7-0.1l-1.7,0.6l-1.8,1.4c0,0-0.4,1.7-0.3,1.9
	s0.5,2.5,0.5,2.5l0.5,1.2l1.2,1.2l1.1-1.7l2.2-2.4l1.3-0.1L95.1,87.3z"/>
<polygon class="st6" points="87.8,94.7 86.1,92.9 85,91.1 84.6,90.1 84.8,89.3 86.1,88.5 87.8,89 89,89.9 89.7,90.7 88.4,91 
	87.9,91.8 87.8,92.9 87.9,94.1 88.2,95.1 "/>
<path class="st6" d="M85.9,98.4L85.1,97l-0.3-1.2l0.3-1l0.9-1l0.5-0.3l1.5,1.6l-0.9,0.3l-1,1c0,0,0,0.8,0,0.9c0,0.2,0.3,1.5,0.3,1.5
	L85.9,98.4z"/>
<polygon class="st8" points="91.7,94.7 90.9,92.6 90,91.1 90,90.3 90.9,88.4 91.8,87.1 93.4,86.5 94.2,86.4 95.2,87.5 95.6,89.3 
	95.6,89.7 94.8,90.2 93.9,90.8 93.7,91.4 94,92 94,92.6 93.3,93.6 92.2,94.6 "/>
<polygon class="st9" points="89.6,96.6 88,94.9 87.7,92.3 88.4,91 89.3,90.6 89.9,90.9 91,92.9 91.8,95.1 90.6,96 89.8,96.9 "/>
<path class="st8" d="M86.4,98.8c0,0-0.3-1.7-0.3-1.8s0.4-1.2,0.4-1.2l1.5-0.8l1.7,1.8l-0.9,1.3l-0.4,1.2L86.4,98.8z"/>
<path class="st8" d="M90.2,100.6l0.9-2.5l1.5-2.2l1-2.1v-1l-1.4,1.9l-1.7,1.8c0,0-1,1.1-1.2,1.1c-0.2,0-0.7,1.2-0.7,1.2l-0.3,1.1
	l0.3,0.5l0.8,0.4L90.2,100.6z"/>
<polygon class="st6" points="88.2,100.5 88.4,101.6 89.3,102.2 90,101.9 90.2,100.6 89.5,100.7 88.7,100.4 88.2,99.9 "/>
<path class="st6" d="M101.3,82.9l2.9-1.4l2.1,0.2l1.6,1.5l0.6,1.9l0.1,1.9l-0.1,1.8l-0.8,1.5l0,0.6l-0.6-1.8c0,0-1.1-1.7-1.1-1.8
	c-0.1-0.1-1.2-0.9-1.2-0.9l-1.3-0.6l-1.8,0.3l-0.8,0.5L101.3,82.9z"/>
<path class="st8" d="M100,89.5l0.5-1.8l0.2-1c0,0,2.3-0.8,2.4-0.8c0.1,0,2.1,1.1,2.1,1.1l1.3,1.7c0,0,0.8,1.7,0.8,1.7
	c0,0,0.1,1,0.1,1l-1.3,1.3l-1.1,0.8l-0.5,0.3l-1.9-1.6v-1.1l-0.7-0.7l-1.1-0.2L100,89.5z"/>
<path class="st6" d="M111.7,94.2c0-0.1,0.6-1.4,0.6-1.4l0.1-1.7l-0.4-1.3l-0.8-0.3h-1.8l-1.2,0.2l-0.4,1.1l2.2,1.2l1,1.2l0.7,1.2
	L111.7,94.2z"/>
<path class="st9" d="M104.4,93.7l1.8-1.1l1.1-1.4l1.4,0.3c0,0,1.9,1.5,1.9,1.6c0,0,0.5,1.2,0.5,1.2l-0.3,0.8l-1.9,0.9l-0.6,0.1
	l-2.1-1.6L104.4,93.7z"/>
<polygon class="st6" points="110.6,98.1 110.6,96.8 110.1,95.9 110.6,95.3 111.6,95.7 112.1,96.7 111.3,97.7 "/>
<polygon class="st8" points="108.6,96.2 110.1,95.7 110.7,96.7 110.7,97.7 110.6,98.2 109.9,98.2 "/>
<polygon class="st8" points="102.7,92.9 104,94.7 105.5,96.5 106.7,98.4 107.2,99.7 107.9,99.8 109.3,99 109.8,98.3 109,96.8 
	107.9,95.8 105.3,94.3 103.5,93 "/>
<path class="st6" d="M107.5,101.8c0.2-0.2,1.4-0.9,1.4-0.9l0.8-1.1l0.2-1.2l-0.1-0.4l-0.5,0.7l-0.8,0.5l-1,0.3L107.5,101.8z"/>
<path class="st9" d="M90.6,103.4l-0.6-1.7l0.3-1.7l1.4-3l0.9-1.5l1-1.9l0.5-1.5l1.1,0.1l1.2,1.1l0.8,0.7l1.4-0.3l0.5-0.8l0.8,0.2
	l1.4,0.1l0.7-0.6l0.3-0.4l0.3,1.5l0.8,0.8l2.5,3l1,2.3l0.3,1.8l0.1,0.7l-0.8,0.3l-0.8,0.7l-0.3,0.1c0,0-1.5-1.7-3.9,1.2l-0.9-1
	c0,0-1.9-1.2-2.9,0c-1,1.2-1.1,1.4-1,1.2c0.1-0.2-0.7-0.9-0.7-0.9l-1.2-0.9l-1.3-0.4l-1.5,0.5l-0.8,0.6L90.6,103.4z"/>
<path class="st8" d="M91.1,104.2c0,0,2.4,3.3,7.6,3.1l3.8-0.2l2.1-0.3l1.4-1l0.7-1l0.6-1.8v-0.9l-1.6,0.9l-0.8-0.4l-1.2,0.1
	l-0.9,0.4l-0.9,0.9l-0.3,0.4l-0.6-0.9l-1-0.6l-0.8-0.1l-0.7,0.1l-0.9,0.5l-0.7,0.9l-0.7-0.9l-1.2-0.8l-1.2-0.2l-1.4,0.2l-0.9,0.5
	l-0.8,0.6L91.1,104.2z"/>
<path class="st6" d="M97.7,107.8c0,0,0.8,2,0.8,2l-1.3,0.2l-0.9,0.3l-0.4,0.5c0,0,0.6,0.7,0.7,0.6c0.1-0.1,1.4-0.6,1.4-0.6h0.5
	l-0.7,1.1l-0.5,0.9c0,0-0.2,0.7-0.1,0.8c0,0.1,0.9,0,0.8-0.1c0-0.1,0.5-0.9,0.5-0.9s0.6-0.6,0.6-0.6c0,0.1-0.1,1.4-0.1,1.4
	s-0.1,0.7-0.1,0.9c0.1,0.2,0.2,0.6,0.3,0.4c0.1-0.2,0.6-0.9,0.6-0.9l0.1-1c0,0,0.5,0.5,0.6,0.5c0,0.1,0.2,0.5,0.3,0.4
	s0.6-0.1,0.6-0.1l0.2-0.5v-0.9l-0.8-0.6l-0.8-0.7l0-0.2l0.3-1.1l0.4-0.9l0.4-1.2l0.1-0.3l-3.5,0.1L97.7,107.8z"/>
<path class="st5" d="M66.4,87.5l0.3-1.3l0.7-1.2c0,0,0.9-0.9,1-0.9c0.1,0,1.5-0.6,1.5-0.6l2.6-0.3l2.7,0.5c0,0,2.1,0.7,2.2,0.8
	c0.1,0.1,2.6,2,2.6,2s1,2.1,1,2.2c0,0.1-0.1,2-0.1,2l-1.1,4.2l-0.6,1.6l-0.5,1.8l-1.5,7.1l-0.5,2.5l-0.2,2l-0.4,1.5l1,0.7l1,0.6
	l0.1,0.9l-0.4,0.7l-1,0.2h-0.9l-0.6-0.3l-0.6,0.7l-0.7,0.5l-0.7-0.5l-0.6-0.5l-0.7-0.7l-0.8,0l-0.6-0.1l0.1-0.7c0,0,0.7-0.8,0.8-0.8
	c0.1,0,0.7-0.4,0.7-0.4l-0.7-4.3l-1-4.3l-1.1-1.9l-0.9-1.7l-0.7-5.8L66.4,87.5z"/>
<path class="st3" d="M65.5,90.6l0.3-1.8l0.5-0.9l0.7-0.6l1.6-0.6l1.8,0.3l1,0.7l0.7,1.1c0,0,0.3,1.2,0.4,1.4c0,0.2-0.2,1.1-0.2,1.1
	l-0.4,0.9l-0.7,0.7l-1.1,0.6l-0.8,0.2h-1.2l-1.2-0.7l-0.7-0.7l-0.4-0.7L65.5,90.6z"/>
<path class="st3" d="M73,90.1l0.3-1.5l0.4-0.6l0.7-0.6l0.5-0.4c0,0,0.2-0.1,0.4-0.1c0.2,0,2,0,2,0l1.4,0.7l0.9,1.3l0.3,1.2
	c0,0-0.1,1.1-0.2,1.2S79.4,92,79.4,92l-0.4,0.8l-0.8,0.3c0,0-1.1,0.4-1.1,0.4c0,0-0.6,0.2-0.6,0.2l-0.9-0.2l-0.8-0.6L74,92.6
	l-0.5-0.6L73,91.1V90.1z"/>
<path class="st6" d="M67.4,98.9c0,0,1.2-2.1,1.1-2.3c-0.1-0.2,0.8-1.9,0.8-1.9s0.5-0.5,0.6-0.7c0.1-0.2,0.9-0.9,0.9-0.9l2.2-0.6
	l2.3,0.9c0,0,1.8,1.3,1.8,1.4c0,0,0.8,0.8,0.8,1c0,0.2,0,1.3-0.1,1.3c-0.1,0.1-0.8,1.1-1,1c-0.2,0-1.5,0.5-1.5,0.5l-2.9,0.5
	l-1.6,0.3l-2.9,0L67.4,98.9z"/>
<path class="st7" d="M71.7,99.9c-0.1,0.2-0.2,0.9-0.2,0.9s0,0.3,0.1,0.4s0.6-0.2,0.6-0.2l0.5-0.9l-0.1-0.7l-0.3-0.4l-0.4,0.4
	L71.7,99.9z"/>
<path class="st7" d="M73,102.2c0,0.1,0.7,2,0.7,2l1.2,1l1.1-0.6l0.6-0.9l0.2-1.2l-0.3-1.2l-0.3-0.6l-1.7-1.5l-1-0.3l-1,0.3l0.3,2
	L73,102.2z"/>
<path class="st6" d="M59.8,109.2l-0.1-1.2l0.4-0.9l1-0.4l1,0.2c0,0,2.2,0.8,2.3,0.8c0.1,0,0.7,0.7,0.7,0.7l0.1-1.9l0.6-0.6
	c0,0,0.7-0.5,0.7-0.6c0-0.1,0.7-0.3,0.7-0.3l1,0.2l0.8,0.6c0,0,0.3,0.3,0.3,0.2c-0.1-0.1,0.3-1.1,0.3-1.1l0.6-0.5l0.8,0l0.2,0.5
	l1.2,6.4l-1.4,0.8l-0.2,0.7l0.1,0.3l-3,0.6l-1.5-0.1l-2.2-0.3l-2.6-2.2L59.8,109.2z"/>
<path class="st6" d="M76.4,111.4c0,0,0.1-1.2,0.1-1.1c0,0.1,0.3-1.8,0.3-1.8l0.4-2.4l0.4-1l1.4-0.4h1.3c0,0,0.4,0.6,0.4,0.8
	c0.1,0.2-0.3,1-0.3,1l2-0.8l1.4-0.2l0.7,0.3l0.3,0.8v0.8l1-1l1.9-0.2l1.3,1.1c0,0,0.7,1.3,0.6,1.3c-0.1,0,0,1.1,0,1.1
	s-0.3,1.1-0.4,1.3c-0.1,0.1-0.8,1.2-0.8,1.2l-1,0.8l-3.9,0.6l-3.8,0.2l-1.3-0.1l-0.2-1l-0.9-0.6h-0.7L76.4,111.4z"/>
<path class="st8" d="M81.6,114.5c0,0,1.7,0.9,1.7,0.9s3.1,1.4,3.1,1.4c0,0,2.6,0.1,2.6,0.1l1.2,0.1l1-0.6l0.7-0.8l-0.3-0.8
	c0,0-0.6-0.4-0.7-0.5c-0.1,0-1,0-1,0l-0.4-0.3l0.6-0.7l-0.2-0.4l-1.1-0.2l-1.1,0.2l-1.9,0.1l-3,0.6l-1.1,0.1L81.6,114.5z"/>
<polygon class="st8" points="54.9,115.6 55.5,114.7 56.6,114 61.2,113.3 64.9,113.6 67.4,113.8 67.4,114.2 65.3,115.9 61.9,118 
	58.6,118.5 56.2,118.1 56.1,117.2 56.4,116.8 55.1,116.8 "/>
<path class="st9" d="M56.5,118.5l-1.1,1.2c0,0-1,1.5-1,1.5c0,0-0.5,1.3-0.5,1.3s-0.7,0.8-0.8,0.9c-0.1,0.1-1.8,1.4-1.8,1.4l-1.6,0.6
	l0.2-0.8l0.6-0.9l0.2-0.8l-0.4-0.6l-0.2-0.2l-0.6,0.7l-0.3,0.5l-0.4-1.2l-0.1-1.9l-0.1-0.7l-0.6,0.1l-0.3,0.8v0.9v0.9l-0.3,0.2
	l-0.4-1.2l-0.4-0.7l-0.6-0.2c0,0-0.3,0.3-0.3,0.4c0,0.1,0.3,1.2,0.3,1.2l0.5,1.5l0.3,1.4l0.2,0.9l0.2,1.2l0.7,1.5l0.3,0.7l0.5-1
	l0.2-1l-0.1-0.5c0,0,2.1,0,2.2-0.1c0.1-0.1,2.9,0.5,3,0.6c0.1,0.1,1.4,1.1,1.5,1c0.1-0.1,0.8,0.4,1,0.3c0.3-0.1,4.3,1.5,4.3,1.5
	l4.2,0.3l3.9-0.9l4.6-1.2l3.6-0.5l4.4,0.4l3.7,1l2.4,0.4l4.2-1.4l2.1-1.1l2.6-1.1l2.3-0.7l2.3-0.2l0.2,1.2l0.5,1.1l0.8,0.2l0.1-0.4
	c0,0-0.3-1.2-0.3-1.3c0-0.1,0-1.4,0-1.4l0.4-0.9l0.9-0.9l0.7-0.6l0.5-0.7c0,0,0-0.7,0-0.8c0-0.1-0.5-0.6-0.5-0.6l-0.6,0.6l-0.5,1
	l-0.7,0.5l0.1-1.2l0.1-1.4l0.1-0.8l-0.2-0.5c0,0-0.5,0.3-0.5,0.5c0,0.2-0.4,1.2-0.4,1.2l-0.3,0.9l0,0.1l-0.4-0.9l-0.2-1.3l-0.5-0.5
	l-0.4,0.4l-0.3,0.9l0.1,1.3l0.2,0.9l0.3,1l-3.7-0.1c0,0-2.5-0.5-2.4-0.4c0,0.1-1-1.9-1-1.9L91,118l-1.3-1h-1.3l-2.4-0.6l-3.5-1.2
	l-1.2-0.6l0.2-0.7l-1.1-0.1l-2.2-0.4l-0.6,0.8l-0.9,0.3l-0.9,0.1l-0.6-0.3l-0.6,0.7l-0.7,0.4l-0.6-0.5l-1-1l-1-0.4l-1.2,0.2
	l-2.7,0.8l-2.3,2l-3,1.4l-3.2,0.9l-1.8-0.2L56.5,118.5z"/>
<path class="st8" d="M65.8,130.8c0,0,5.1,0.5,5.2,0.6c0.1,0.1,7.5-0.1,7.5-0.1l5.5-0.9l3.3-0.7l-2.2-0.7l-4.8-1l-4-0.3l-4,0.9
	l-4.3,1.3l-2.9,0.6L65.8,130.8z"/>
<polygon class="st2" points="35,76.5 37.8,72.3 37.1,72.3 35.8,72.4 34.2,72.1 "/>
<path class="st5" d="M32.5,64.6l0.3-2l1-1.7l2.8-1.6l3.9-0.8l2.9,0.6l4.1,1.4l3.4,3.2l1.9,4.3c0,0,1.6,7.5,0.5,10.6l-0.2,3.7l-2.2,9
	l-1.5,3l-1.9,3.1l-0.8,2.8c0,0,1.2,1.1,0.6,2.3l-1.2,0.5l-2-0.2l-0.5,1.4l-0.8,1.1l-1.5,0.2l-1.3-0.7l-0.6-1l-0.5-1.5l-1.7,0.4
	l-0.7-0.1l-0.5-0.8l0.4-0.9l2.5-3l1.3-1v-1.5l-0.9-4.7l-1.1-4.9l-2.8-5.7l-1.2-7.7L32.5,64.6z"/>
<path class="st6" d="M33.9,79.6l0.9-2.8l2.3-3.9l2.2-1.9c0,0,2.5,0,2.6,0c0.1,0,3.2,1.3,3.2,1.5c0,0.1,1.9,2.1,1.9,2.1l1,1.5
	l-0.5,1.1l-1.8,1l-4.7,1.4l-4.2,0.2L33.9,79.6z"/>
<polygon class="st7" points="39.4,82.3 39.2,81.4 39.9,80 40.5,79.6 40.9,80.8 40.9,82 40.1,82.5 "/>
<path class="st7" d="M41.9,79.5c0.1,0,2.2,1,2.2,1l1.5,1.5l0.5,1.9v1.4l-0.6,1.3l-1,0.9l-1.7-0.1l-1.3-2.1l-0.5-2.5l-0.5-3
	L41.9,79.5z"/>
<path class="st3" d="M42.6,71c0,0-2.7-2.4-0.6-5.7c0,0,3-4.4,7.5-0.5c0,0,2.1,2.1,0.3,5.5c0,0-1,1.7-2.8,2l-1.7,0.3L42.6,71z"/>
<path class="st3" d="M31.5,68.6c0,0-1-3.7,3.6-5.4c0,0,4.4-0.7,5.5,3.5c0,0,0.4,2.5-1.3,4.4L38,72.1l-1.1,0.2c0,0-3.3,0.5-4.5-1.6
	L31.5,68.6z"/>
<path class="st4" d="M36.7,82.8l-0.5,1.5c0,0-0.5,1.7-0.5,1.7c0,0,0.1,1.7,0.1,1.8c0,0.1,0.5,0.9,0.4,1.2c-0.1,0.3,0.6,1.1,0.7,1.1
	c0.2,0.1,1.6,0.4,1.7,0.4c0.1,0,0.7,0,0.7,0l-0.8-3.3l-0.8-3L36.7,82.8z"/>
<path class="st9" d="M36.4,102.4c0,0.1-0.7,1.3-0.7,1.3l-0.8,1v-1.4l-1.4-0.7l-0.9,0c0,0-2.1,0.3-2,0.4c0,0.1-1.2,0.7-1.2,0.7
	l-0.9,0.7l-1.2,1.3l-0.4,1.1c0,0,0.3,1.1,0.3,1.1c0.1,0.1,0.9,0.7,0.9,0.7l1.2,0.5l-1,0.3l-0.8,0.5l-0.6,0.4l-0.2,0.6l0.2,0.6
	c0,0,0.4,0.3,0.6,0.3c0.1,0,0.4,0.1,0.6,0c0.2-0.1,0.6-0.2,0.7-0.2c0.1,0,0.9-0.1,0.9-0.1l0.4,0.1l-0.2,0.7c0,0,0.2,0.7,0.3,0.7
	c0.1,0,0.5,0.2,0.5,0.2h2l0.5-0.8l0.1,2.5l0.4,0.4h1.1l2.2-0.6l2.8-0.3c0,0,2.5,0.4,2.7,0.3c0.1-0.1,2.9,0.7,3.1,0.7
	c0.1,0,2,0.4,2,0.4l0.9,0.2l0.2-0.4l-0.8-0.6l0.6-0.1l-1.2-1.5l-0.4-1.6l-0.3-1.3l0.4-1.1h3l1.5-0.8l0.4-0.7l-0.4-0.5l-0.9-0.2
	l-1.5-0.4l2.4-0.6l2.6-0.6l1.7-0.6l0.5-0.7v-0.7l-0.7-0.3l-1.8-0.2l-1.2-0.2c0,0,1-0.8,0.9-0.8c0,0,2.4-0.6,2.4-0.6l1.5-0.4l1.4-0.6
	l0.8-0.6l0.2-0.8l-0.3-0.5l-1.2-0.3h-2.2c0,0-3,1.1-3,1.1c0,0-3,2.1-3,2.2c0,0.1-1.3,1.6-1.3,1.6l-0.3,0.5l-0.9-1.4l-1.3,0.8
	l-1.2,0.1l-0.9-0.5l-0.3,1.5l-1,1.4l-1.2,0l-1.5-0.8l-0.6-1.3l-0.3-0.9l-1.6,0.2H36.4z"/>
<polygon class="st6" points="32.2,116.7 32.2,115.6 33.4,115.2 34.1,115.3 34.8,116.1 33.7,116.5 32.5,117.3 "/>
<path class="st6" d="M47.6,117l0.8-0.7l0.2-0.8l0.9-0.7l0.9-0.3l0.9,0.2l-0.7,0.7l0.9,0.6c0,0,0.8,0.9,0.9,1
	c0.1,0.1,0.6,0.7,0.6,0.7l-0.8,0.6l-0.9-0.5l-1.2-1.4l-0.3,0.8l-1.5,0.1l-1.4,0L47.6,117z"/>
<path class="st5" d="M38.8,58.5l-0.4-0.8l-0.6-0.8l-0.5-0.8l-0.2-0.8l0.4-0.5l0.9-0.2c0,0,0.5,0.6,0.5,0.7c0.1,0.1,0.5,0.8,0.5,0.9
	c0,0.1,0,1.3,0,1.3l-0.2,1.1L38.8,58.5z"/>
<polygon class="st5" points="40,58.4 40.3,57.4 40.6,56.1 40.3,54.9 39.7,53.7 39.3,52.4 38.8,51.6 38.8,50.7 38.9,49.6 39.3,49.1 
	40.6,49 41.5,49.6 42.2,50.6 43,52.5 43.1,53.7 43,55.1 42.6,56.3 42,57.2 41.2,57.9 40.9,58.4 "/>
<path class="st5" d="M73.2,83l0.6-1.8l-0.2-2l-0.5-1.5l-1-2.3c0,0,0-1-0.1-1.1c-0.1-0.1-0.2-1.2-0.2-1.2l0.3-0.9l0.7-0.5h1.8
	l1.1,1.4l0.7,1.5l0.5,1.4l0.1,1.6l-0.1,1.5l-0.5,1.3l-0.7,1.1l-1.4,1.4l-0.7,0.4L73.2,83z"/>
<path class="st5" d="M71.9,82.8l-0.6-1.1l-0.3-0.7l-0.6-1L70,79.4l0.1-0.7l0.5-0.3h0.7l0.7,0.5c0,0,0.5,0.8,0.5,0.9
	c0,0.1,0.1,1.4,0.1,1.4l-0.1,1.1V83L71.9,82.8z"/>
<path class="st9" d="M63.7,113.1l-1.8-1l-1.1-1.1l-0.8-0.9l-0.1-0.5l1.2-0.5l1.2-0.2l1,0.2l0.9,0.6l0.8,0.8l1-0.8l0.9-0.7l0.6-0.6
	l0.7-0.4h1l0.8,0.4h0.4l0.4-0.6l0.5-0.3l0.3,1l0.1,0.6l-0.8,0.3l-0.6,0.9c0,0-0.2,0.3-0.2,0.3c-0.1-0.1-0.8-1-0.8-1l-0.9-0.2
	l-0.6,0.2l-0.5,0.7v0.9l0.1,0.4c0,0-0.5,0.1-0.6,0c-0.2-0.1-1.2-0.1-1.2-0.1l-0.8,0.1l-0.6,0.8l0.1,1L63.7,113.1z"/>
<path class="st9" d="M76.5,109.1l0.3-1.3h1.2l0.5,0.6l0.4,0.4l1.5-0.6l1.4-0.5l1.1,0.1l0.8,0.6l0.2,0.6l0.4,0.5l1.2-0.6l1.3-0.1
	l1,0.2l0.3,0.8v1.1l-0.1,0.6l-0.2,0.5l-0.4,0.7h-0.8l-0.6,0.2l-0.2-1.2l-0.7-0.5h-0.6c0,0-0.4,0.2-0.7,0.3s-0.9,0.5-0.9,0.5
	l-0.3-1.1l-0.3-0.9l-0.7-0.7l-1,0.3c0,0-0.4,0.5-0.7,0.6c-0.3,0-0.9,0.6-0.9,0.6l-0.6-0.7l-0.9-0.5h-0.5L76.5,109.1z"/>
<polygon class="st8" points="64.7,113.4 64.2,112.6 64.3,112.2 65.1,111.6 66.4,111.6 67.4,111.7 69,113.4 67.6,114 66.6,113.9 "/>
<polygon class="st5" points="67.3,110.7 67.6,109.7 68.5,109.3 69.3,109.5 70,110.4 70.4,111.6 70.7,112.4 70.6,113.3 69.6,113.6 
	68.3,113 "/>
<polygon class="st8" points="71.8,109.1 72.2,111.5 71,112.2 70.2,110.8 70.9,109.6 "/>
<polygon class="st8" points="76.1,111.3 76.7,109.4 77.6,109.5 78.9,110.8 77.9,112.3 76.4,111.8 "/>
<polygon class="st5" points="81.6,113.6 82.8,112.1 82.4,110.3 81.3,109.5 80.3,110.1 79.1,110.8 78.3,112.1 78.1,112.4 78.6,113.3 
	81,113.5 "/>
<path class="st8" d="M85.8,113l-0.1-0.9c0,0-0.6-1-0.7-0.8c-0.2,0.2-0.8,0.2-0.8,0.2l-0.9,0.3l-0.8,0.8l-0.7,0.9l1.8,0L85.8,113z"/>
<path class="st6" d="M58.2,113.8l-2.4,0.7l-0.9,0.7l0.2,0.8l0.9,0.4l0.2,0.8l0.3,0.9l1.5,0.3h1l0.9-0.3l-0.9-0.5l-0.1-1l0.4-0.6
	l-0.6-0.4l-0.6-0.5c0,0-0.2-0.6,0-0.6c0.2,0,0.3-0.6,0.3-0.6L58.2,113.8z"/>
<path class="st6" d="M86.9,113c0.2,0.2,0.6,0.8,0.6,0.8l0,0.9c0,0,0,0,0.2,0c0.3,0,0.7,0.5,0.7,0.5l0.5,0.6l0.3,0.5v0.4l1.5,0.1
	l1.1-0.8l0.1-0.8l-0.6-0.7l-0.7-0.3l-0.8,0.1l0.2-1l-0.6-0.4l-1.3-0.2L86.9,113z"/>
<path class="st6" d="M45.8,120.8l0.6,2.2l0.7,2.5l0.6,2.1l0.5,1.1l0.3,0.7l0.4-0.3l0.1-1.3l0-0.9l2.8-0.1l2.2,0.8l1.8,0.8l-1.6-2.1
	c0,0-1.1-2.2-0.3-3.8l-1.5,1.4l-1,1.1l-1.2,0.2l-0.5,0l0.3-0.7l0.3-0.4l0.5-0.8l0-0.8l-0.5-0.6l-0.5,0.5l-0.3,0.4c0,0-0.1,0-0.2,0.2
	c0,0.2-0.3-0.6-0.3-0.6l-0.2-1l0-0.7c0,0,0-0.5,0-0.7s-0.4-0.8-0.4-0.8s-0.5,0.2-0.4,0.2c0.1,0-0.1,0.4-0.1,0.6c0,0.2,0,1.1,0,1.1
	v0.9c0,0,0,0.5,0,0.5s-0.7-1.4-0.7-1.4l-0.4-0.7l-0.6-0.5L45.8,120.8z"/>
<path class="st6" d="M94.4,122c0,0,1.4,2.1-0.5,5.1l3.9-1.6l2.3-0.5l1.1,0l0.3,1.4l0.6,1l0.8,0.2l-0.2-0.8l-0.3-1.3l0-1
	c0,0,0.2-0.3,0.4-0.5c0.2-0.2,0.7-1.1,0.7-1.1l1-0.7l0.5-0.7l0.1-0.6l-0.4-0.8l-0.5-0.3l-0.7,1l-0.8,1c0,0-0.3,0.2-0.4,0
	c0-0.2,0.3-1.4,0.3-1.4l0.2-0.6l0.1-0.9l-0.2-0.4l-0.3-0.3l-0.6,1l-0.2,0.8l-0.3,0.4l-0.3-0.7l0.1-0.6l-0.3-0.7l-0.5-0.5l-0.4,0.5
	l-0.2,0.8l0.1,0.8l0.3,1.4l0.1,0.7l0,0.3h-2.7l-1.9-0.5H94.4z"/>
<path class="st6" d="M33,112.8l0.2-1.3l-1,0.1l-0.9-0.7l-0.3-0.6l0.8-0.8l0.4-0.3l-1-0.8l-0.3-0.8v-1l0-0.6l0.7-0.8l1-0.6l0.9-0.3
	l1.1,0.1l0.3-0.1l-0.2-1.1l-0.8-0.6h-2l-1.6,0.5l-1.1,0.6l-1.5,1.3L27,106l-0.2,1.1l0.6,1l1.1,0.7l0.7,0.2l0.1,0.3l-1.4,0.2
	c0,0-0.7,0.4-0.8,0.5c-0.1,0.1-0.4,0.3-0.4,0.6c-0.1,0.3,0.2,0.9,0.2,0.9s0.5,0.3,0.7,0.4c0.2,0,0.6-0.1,0.8-0.1
	c0.2,0,0.9-0.1,0.9-0.1l0.6,0.2l-0.2,0.4c0,0-0.2,0.6,0,0.7c0.2,0.2,0.9,0.4,0.9,0.4s0.6,0,0.8-0.1c0.1,0,0.8-0.4,0.8-0.4L33,112.8z
	"/>
<path class="st6" d="M47.3,108.9c-0.1-0.3,0.7-0.9,0.7-0.9l0-1c0,0-0.4-0.6-0.4-0.9c0.1-0.4,0.4-0.7,0.4-0.7l1.1-0.2
	c0,0,0.9,0.4,1,0.2c0.1-0.2,0.7-0.4,0.7-0.4c0,0-0.3-1-0.3-1l-0.3-0.9l0.6-0.4l0.5-0.7l0.3-0.9l-0.3-0.8v-0.1l2.7-1.3l1.7-0.4
	l1.6-0.2c0,0,1.6-0.1,1.6,0c0,0.1,0.7,0.8,0.7,0.8l0.2,0.5l-0.9,1.1l-1,0.3l-2,0.5l-1.6,0.5l-1.2,0.3l-0.5,0.4l1.1,0.5l1.3,0
	l0.8,0.3l0.3,0.3l0,0.6l-0.5,0.6l-1.1,0.6l-2.8,0.5l-2.3,0.3c0,0-0.6,0.5-0.5,0.5c0.1,0,1.2,0.2,1.3,0.2c0.2,0,0.9,0.3,0.9,0.3
	l0.4,0.5l-0.4,0.7c0,0-0.1,0.7-0.4,0.5c-0.3-0.1-1.3,0.2-1.3,0.2l-0.7,0.1l-1,0.1L47.3,108.9z"/>
<polygon class="st10" points="47.9,74 48.7,73.1 52.1,73.5 53.4,74 53.8,75 52.6,75.5 49.9,75.5 47.9,75.1 "/>
<polygon class="st10" points="31.9,74.2 32.4,73.3 34.6,73.7 35.4,74.2 35.7,75.2 34.9,75.7 33.2,75.7 31.9,75.3 "/>
<polygon class="st10" points="77.5,94.8 78,94.1 79.9,94.4 80.6,94.8 80.8,95.5 80.1,95.9 78.6,95.9 77.5,95.6 "/>
<path class="st10" d="M68.8,94L68,93.6l-1.4-0.2c-0.2,0.2-0.5,0.4-1,0.4L65.6,94v0.8l1.2,0.4h1.6l0.7-0.4L68.8,94z"/>
<polygon class="st10" points="101.7,69 102.3,68.1 104.9,68.5 105.9,69 106.2,70 105.3,70.5 103.2,70.5 101.7,70.1 "/>
<path class="st10" d="M91.8,70.2l-1-0.5l-2.6-0.4l-0.6,0.9v1l1.6,0.4h1.9c0.1-0.1,0.1-0.3,0.2-0.4c0-0.4,0.2-0.7,0.4-1
	C91.8,70.3,91.8,70.3,91.8,70.2z"/>
<g>
	<g>
		<path class="st11" d="M67.6,93.2c-0.4-0.1-0.9-0.1-1.3,0c-0.4,0.1-0.8,0.4-1,0.8c-0.2,0.3-0.2,0.6,0,0.9c0.2,0.3,0.5,0.4,0.8,0.6
			c0.5,0.2,1.1,0.3,1.7,0.2c0.6-0.1,1.3-0.3,1.5-1c0.1-0.4,0-0.9-0.4-1.1c-0.1-0.1-0.3-0.1-0.5-0.2c-0.1,0-0.2,0-0.2,0
			c0,0-0.1,0-0.1,0c0,0-0.1,0-0.1,0c-0.2-0.1-0.4-0.1-0.5,0.1c-0.1,0.2,0,0.4,0.1,0.5c0.2,0.1,0.5,0.1,0.8,0.2c0.1,0,0.1,0,0.2,0
			c-0.1,0,0.1,0.1,0,0c0,0,0.1,0.1,0,0c0,0,0,0,0,0.1c0-0.1,0,0,0,0c0,0,0,0.1,0,0.1c0,0,0,0.1,0,0.1c0,0,0,0.1,0,0
			c0,0-0.1,0.2,0,0.1c0,0,0,0.1,0,0.1c0,0-0.1,0.1,0,0c0,0,0,0,0,0c0,0-0.1,0.1,0,0c0,0-0.1,0.1-0.1,0.1c0,0-0.1,0-0.1,0
			c0,0,0.1,0,0,0c-0.1,0-0.2,0.1-0.4,0.1c0,0,0,0-0.1,0c0.1,0,0,0,0,0c-0.1,0-0.1,0-0.2,0c-0.1,0-0.2,0-0.4,0c-0.1,0-0.2,0-0.3,0
			c0,0-0.1,0,0,0c0,0-0.1,0-0.1,0c-0.1,0-0.1,0-0.2,0c-0.1,0-0.2-0.1-0.3-0.1c0,0-0.1,0,0,0c0,0-0.1,0-0.1,0c-0.1,0-0.1-0.1-0.2-0.1
			c0,0-0.1-0.1,0,0c0,0,0,0,0,0c0,0,0,0-0.1-0.1c0,0-0.1-0.1,0,0c0,0,0,0,0,0c0,0,0-0.1,0,0c0,0,0,0,0-0.1c0,0,0,0.1,0,0
			c0,0,0,0,0,0c0,0.1,0,0.1,0,0c0,0,0-0.1,0,0c0,0,0-0.1,0-0.1c0,0,0.1-0.1,0,0c0.1-0.1,0.3-0.3,0.4-0.3c0.3-0.1,0.7-0.1,1,0
			c0.2,0,0.4-0.1,0.4-0.3C67.9,93.5,67.8,93.3,67.6,93.2L67.6,93.2z"/>
	</g>
</g>
<g>
	<g>
		<path class="st11" d="M77.9,94.6C77.9,94.5,77.9,94.5,77.9,94.6C77.9,94.5,77.9,94.5,77.9,94.6c0,0,0,0.1,0,0.1
			C77.9,94.6,77.8,94.7,77.9,94.6C77.8,94.7,77.9,94.7,77.9,94.6C78,94.6,78,94.6,77.9,94.6C78,94.6,78,94.6,77.9,94.6
			c0.1,0,0.2,0,0.2,0c0.1,0,0.1,0,0.2,0c0,0,0,0,0.1,0c0.1,0,0,0,0,0c0.2,0,0.5,0,0.7,0c0.1,0,0.2,0,0.3,0c0,0,0.1,0,0.1,0
			c0.1,0-0.1,0,0,0c0.2,0.1,0.4,0.2,0.7,0.3c0.1,0.1,0.2,0.1,0.3,0.3c0,0,0,0,0,0c0,0,0,0.1,0.1,0.1c0.1,0.1,0-0.1,0,0
			c0,0,0,0.1,0,0.1c0,0.1,0,0.2-0.1,0.3c0,0,0,0.1,0,0c0,0,0,0-0.1,0.1c-0.1,0.1,0.1,0,0,0c0,0,0,0-0.1,0c0,0-0.1,0,0,0
			c0,0-0.1,0-0.1,0c-0.1,0-0.1,0-0.2,0c0.1,0,0,0,0,0c0,0-0.1,0-0.1,0c-0.1,0-0.1,0-0.2,0c-0.3,0-0.5-0.1-0.9-0.1
			c-0.3-0.1-0.5-0.1-0.8-0.1c-0.2,0-0.4,0.2-0.4,0.4c0,0.2,0.2,0.3,0.4,0.4c0.1,0,0,0,0,0c0,0,0.1,0,0.1,0c0.1,0,0.1,0,0.2,0
			c0.1,0,0.3,0.1,0.4,0.1c0.3,0.1,0.7,0.1,1,0.1c0.3,0,0.7,0,1-0.2c0.3-0.2,0.5-0.5,0.5-0.9c0-0.8-0.8-1.3-1.5-1.5
			c-0.2-0.1-0.4-0.1-0.6-0.1c-0.3,0-0.5,0-0.8,0c-0.3,0-0.6,0.1-0.9,0.3c-0.3,0.2-0.4,0.5-0.2,0.9C77.5,95.3,78.2,95,77.9,94.6
			L77.9,94.6z"/>
	</g>
</g>
<g>
	<g>
		<path class="st11" d="M91.7,69.9c-1.2-0.7-3.3-1.4-4.3-0.1c-0.4,0.5-0.6,1.3-0.1,1.8c0.4,0.4,1.1,0.6,1.7,0.6c0.7,0,1.4,0,2-0.3
			c0.4-0.2,0-0.8-0.4-0.6c0,0-0.1,0.1-0.1,0.1c0.1,0,0,0,0,0c0,0-0.1,0-0.1,0c-0.1,0-0.2,0.1-0.4,0.1c-0.1,0-0.2,0-0.3,0
			c-0.1,0-0.3,0-0.4,0c-0.3,0-0.5,0-0.8-0.1c-0.1,0-0.2-0.1-0.3-0.1c0,0-0.1,0,0,0c0,0,0,0-0.1,0c-0.1,0-0.1-0.1-0.2-0.1
			c0,0-0.1-0.1,0,0c0,0,0,0-0.1,0c0,0-0.1-0.1-0.1-0.1c0,0,0-0.1-0.1-0.1c0,0.1,0-0.1,0-0.1c0,0.1,0,0,0-0.1c0,0,0-0.1,0,0
			c0,0,0,0,0-0.1c0-0.2,0.1-0.2,0.1-0.4c0.3-0.5,0.9-0.6,1.5-0.6c0.7,0.1,1.4,0.3,2,0.7C91.8,70.7,92.1,70.1,91.7,69.9L91.7,69.9z"
			/>
	</g>
</g>
<g>
	<g>
		<path class="st11" d="M89.7,68.4c0,0.4,0.1,0.8,0.2,1.2c0.1,0.2,0.3,0.2,0.5,0.1c0.2-0.1,0.2-0.3,0.1-0.5c0,0,0-0.1,0-0.1
			c0,0,0,0.1,0,0.1c-0.1-0.2-0.1-0.3-0.1-0.5c0,0,0,0.1,0,0.1c0-0.1,0-0.3,0-0.4c0-0.1,0-0.2-0.1-0.3C90.3,68,90.2,68,90.1,68
			c-0.1,0-0.2,0-0.3,0.1C89.8,68.2,89.7,68.3,89.7,68.4L89.7,68.4z"/>
	</g>
</g>
<g>
	<g>
		<path class="st11" d="M104.7,68.1c-1-0.1-2.2-0.4-3,0.3c-0.3,0.3-0.6,0.8-0.6,1.2c0,0.4,0.3,0.7,0.6,0.9c0.7,0.4,1.5,0.4,2.2,0.3
			c0.4,0,0.7,0,1.1-0.1c0.4,0,1-0.1,1.3-0.4c0.5-0.4,0.3-1-0.1-1.4c-0.4-0.4-0.9-0.7-1.4-0.8c-0.4-0.1-0.6,0.6-0.2,0.7
			c0.3,0.1,0.7,0.3,0.9,0.5c0.1,0.1,0.2,0.2,0.3,0.3c0,0.1,0,0.1,0,0.1c0,0,0,0,0,0c-0.5,0.3-1.2,0.2-1.8,0.2c-0.6,0-1.2,0-1.7-0.1
			c-0.1,0-0.2-0.1-0.3-0.1c-0.1-0.1-0.1-0.1-0.2-0.2c0,0.1,0-0.1,0,0c0,0,0-0.2,0-0.1c0-0.2,0.1-0.3,0.2-0.4
			c0.3-0.3,0.7-0.4,1.1-0.4c0.4,0,0.9,0.1,1.3,0.1c0.2,0,0.4,0,0.4-0.3C105,68.4,104.9,68.1,104.7,68.1L104.7,68.1z"/>
	</g>
</g>
<g>
	<g>
		<path class="st11" d="M34.7,104.2c-0.6-0.3-1.4-0.2-2,0.1c-0.7,0.3-1.4,0.6-1.9,1.2c-1.2,1.4-0.3,3.4,1.2,4.1c0-0.2,0-0.4-0.1-0.6
			c-0.5,0.4-1.2,0.5-1.3,1.3c-0.1,0.8,0.6,1.3,1.3,1.1c-0.1-0.2-0.2-0.4-0.4-0.6c-0.4,0.5-0.5,1.1,0.2,1.5c0.6,0.3,1.3,0,1.6-0.6
			c0.3-0.4-0.4-0.8-0.6-0.4c-0.1,0.2-0.3,0.4-0.6,0.3c-0.2-0.1-0.2-0.2,0-0.3c0.2-0.3,0-0.7-0.4-0.6c-0.4,0.1-0.4-0.3-0.2-0.5
			c0.3-0.2,0.6-0.3,0.9-0.6c0.2-0.2,0.1-0.5-0.1-0.6c-1.1-0.5-1.9-2-0.9-3.1c0.4-0.4,0.9-0.7,1.4-0.9c0.4-0.2,1-0.4,1.5-0.1
			C34.8,105,35.2,104.4,34.7,104.2L34.7,104.2z"/>
	</g>
</g>
<g>
	<g>
		<path class="st11" d="M51.2,100.8c0.2-0.1,0.2-0.1,0.2,0.1c0,0.2-0.1,0.5-0.2,0.7c-0.3,0.5-0.8,0.9-1.4,1.2
			c-0.3,0.2-0.2,0.7,0.2,0.7c0.6,0,1.1,0.9,0.4,1.2c-0.4,0.2-0.9,0-1.3,0c-0.4,0-0.9,0-1.2,0.3c-0.3,0.2-0.6,0.7-0.6,1.1
			c0,0.4,0.2,0.7,0.4,1c0.2,0.3,0.3,0.6,0,0.8c-0.2,0.2-0.6,0.5-0.9,0.6c-0.4,0.1-0.3,0.8,0.2,0.7c0.4-0.1,0.8-0.4,1.1-0.7
			c0.4-0.3,0.6-0.7,0.5-1.2c0-0.2-0.1-0.4-0.2-0.6c-0.1-0.2-0.3-0.3-0.3-0.5c-0.1-0.6,0.7-0.8,1.1-0.7c0.9,0,2.1,0.2,2.3-1
			c0.2-0.9-0.5-1.8-1.4-1.7c0.1,0.2,0.1,0.5,0.2,0.7c0.8-0.5,1.8-1.2,2-2.2c0.2-0.9-0.5-1.4-1.3-1C50.4,100.4,50.7,101,51.2,100.8
			L51.2,100.8z"/>
	</g>
</g>
<g>
	<g>
		<path class="st11" d="M99.3,30.6c-3-5.6-8.3-9.5-14.2-11.7c-7.1-2.6-14.5-2.3-21.9-1.4c-4,0.5-8.1,0.7-12,1.5
			c-3.7,0.8-7.2,2.5-10.2,4.8C35.7,28,32.2,34,30.4,40.4c-1,3.8-1.5,7.7-1.4,11.6c0.1,2.3,0.3,4.6,0.7,6.9c0.4,2.3,1.1,4.5,1.5,6.8
			c0.1-0.2,0.2-0.3,0.3-0.5c0.1,0,0.2,0.1,0.3,0.1c-0.2-0.4-0.9,0-0.6,0.4c0,0,0,0,0,0c0.1,0.1,0.2,0.2,0.3,0.2c0,0,0,0,0,0
			c0.2,0,0.4-0.2,0.3-0.5c-0.3-1.7-0.9-3.5-1.2-5.2c-0.4-2.1-0.7-4.3-0.9-6.4c-0.2-3.6,0-7.1,0.7-10.7c1.3-6.5,4.3-12.7,9.1-17.3
			c2.7-2.5,6-4.5,9.5-5.6c3.6-1.2,7.4-1.3,11.1-1.7c7.3-0.9,14.6-1.9,21.8,0.1c6.8,1.9,13.1,5.9,16.5,12.2
			C98.9,31.4,99.5,31,99.3,30.6L99.3,30.6z"/>
	</g>
</g>
<g>
	<g>
		<path class="st11" d="M54.3,19.2c0.5,0,0.5-0.7,0-0.7C53.8,18.5,53.8,19.2,54.3,19.2L54.3,19.2z"/>
	</g>
</g>
<g>
	<g>
		<path class="st11" d="M30.5,40.3c-4.3-0.3-7.9-4-7.1-8.4c0.7-3.9,4.6-6.8,8.5-7.1c2.2-0.2,4.9-0.1,6.4,1.8
			c0.3,0.4,0.8-0.2,0.5-0.5c-1.4-1.8-3.8-2-6-2c-2.3,0-4.5,0.7-6.4,2.1c-3.6,2.7-5.2,7.7-2.4,11.6c1.5,2.1,4,3.2,6.5,3.4
			C31,41,31,40.3,30.5,40.3L30.5,40.3z"/>
	</g>
</g>
<g>
	<g>
		<path class="st11" d="M94,24.6c3.2-1.7,8-2.7,11.3-0.9c3.3,1.9,4.3,6.8,3.1,10.2c-0.8,2.3-3,4.2-5.5,4.6c-0.5,0.1-0.3,0.8,0.2,0.7
			c2.3-0.3,4.4-2,5.5-4c1-1.8,1.2-3.9,0.9-5.9c-0.3-2-1.3-4.1-2.8-5.5c-1.6-1.4-3.9-1.8-5.9-1.7c-2.4,0.1-4.9,0.7-7.1,1.9
			C93.2,24.2,93.6,24.8,94,24.6L94,24.6z"/>
	</g>
</g>
<g>
	<g>
		<path class="st11" d="M61.7,46.9c0.1,0,0.2,0,0.3-0.1c0-0.1,0-0.2,0-0.3c-0.3,0.2-0.7,0.1-1.1,0.3c-0.6,0.2-1.1,0.7-1.6,1.1
			c-1,0.8-2,1.7-2.4,2.9c-1.2,3,2.8,4.4,5.1,4c1.8-0.2,3.5-1,5.3-1.2c1.6-0.1,3.1,0.4,4.6,0.8c1.1,0.3,2.3,0.5,3.3-0.2
			c1-0.7,1.5-2.1,1.3-3.2c-0.5-2.8-4-4.3-6.4-5.2c-0.2-0.1-0.3,0.3-0.1,0.3c2.1,0.8,4.7,1.9,5.8,3.9c0.7,1.2,0.5,2.9-0.7,3.8
			c-1,0.8-2.5,0.4-3.6,0.1c-1.1-0.3-2.1-0.7-3.2-0.7c-1.5-0.1-2.9,0.4-4.3,0.8c-1.7,0.5-3.3,0.8-5,0.1c-1.2-0.6-2.3-1.5-1.8-3
			c0.4-1.3,1.6-2.4,2.7-3.2c0.4-0.3,0.8-0.7,1.3-0.8c0.3-0.1,0.7-0.1,1-0.3c0.1-0.1,0.1-0.3,0-0.3c-0.1,0-0.4,0-0.5,0.1
			C61.4,46.6,61.5,46.9,61.7,46.9L61.7,46.9z"/>
	</g>
</g>
<g>
	<g>
		<path class="st11" d="M71.2,54.4c0.4,1,0.6,2.2,0.7,3.3c0,1,0,2.3-0.7,3.1c-0.6,0.7-1.9,1.1-2.8,0.7c-0.7-0.3-1-1.3-1.3-1.9
			c-0.1-0.2-0.4,0-0.3,0.2c0.3,0.6,0.5,1.3,1,1.8c0.6,0.5,1.4,0.6,2.1,0.4c0.8-0.2,1.5-0.8,1.9-1.5c0.4-0.8,0.4-1.8,0.4-2.7
			c0-1.1-0.2-2.3-0.7-3.3C71.4,54.1,71.1,54.2,71.2,54.4L71.2,54.4z"/>
	</g>
</g>
<path class="st12" d="M92.8,34.8c0-6.4-5.2-11.7-11.7-11.7c-6.4,0-11.7,5.2-11.7,11.7c0,6.4,5.2,11.7,11.7,11.7
	C87.5,46.5,92.8,41.2,92.8,34.8z"/>
<path class="st12" d="M63.4,36c0-6.4-5.2-11.7-11.7-11.7C45.2,24.4,40,29.6,40,36c0,6.4,5.2,11.7,11.7,11.7
	C58.1,47.7,63.4,42.5,63.4,36z"/>
<path class="st11" d="M103.4,30.2c0-1.4-1.1-2.5-2.5-2.5c-1.4,0-2.5,1.1-2.5,2.5c0,1.4,1.1,2.5,2.5,2.5
	C102.3,32.6,103.4,31.5,103.4,30.2z"/>
<path class="st11" d="M34.1,32.4c0-1.4-1.1-2.5-2.5-2.5c-1.4,0-2.5,1.1-2.5,2.5c0,1.4,1.1,2.5,2.5,2.5C33,34.9,34.1,33.7,34.1,32.4z
	"/>
<path class="st11" d="M71.7,45.6c0-1.6-2.3-2.9-5.2-2.9c-2.9,0-5.2,1.3-5.2,2.9c0,1.6,2.3,2.9,5.2,2.9
	C69.3,48.5,71.7,47.2,71.7,45.6z"/>
<path class="st11" d="M80.5,31.3c-2.1,0-3.8,1.7-3.8,3.8c0,2.1,1.7,3.8,3.8,3.8c2.1,0,3.8-1.7,3.8-3.8C84.3,33,82.6,31.3,80.5,31.3z
	 M82.1,37.6c-0.6,0-1.1-0.5-1.1-1.1c0-0.6,0.5-1.1,1.1-1.1c0.6,0,1.1,0.5,1.1,1.1C83.1,37.1,82.7,37.6,82.1,37.6z"/>
<path class="st11" d="M51.7,31.7c-2.1,0-3.8,1.7-3.8,3.8c0,2.1,1.7,3.8,3.8,3.8c2.1,0,3.8-1.7,3.8-3.8
	C55.5,33.4,53.8,31.7,51.7,31.7z M53.2,37.9c-0.6,0-1.1-0.5-1.1-1.1c0-0.6,0.5-1.1,1.1-1.1c0.6,0,1.1,0.5,1.1,1.1
	C54.3,37.4,53.8,37.9,53.2,37.9z"/>
<g>
	<g>
		<path class="st11" d="M66.8,53.6c0.2,0.7,0.1,1.5,0.1,2.2c0,0.8,0,1.6,0,2.4c-0.1,1.2-0.4,2.8-1.6,3.3c-1,0.5-2.2,0-2.8-0.9
			c-0.5-0.9-0.6-1.9-0.6-2.9c0-1.1,0.1-2.1,0.4-3.1c0.1-0.2-0.3-0.3-0.3-0.1c-0.3,1-0.4,2.1-0.5,3.2c0,1.1,0.1,2.3,0.7,3.2
			c0.6,0.9,1.7,1.4,2.8,1.1c1.2-0.3,1.8-1.6,2-2.7c0.2-1.1,0.2-2.1,0.2-3.2c0-0.9,0.1-1.8-0.1-2.7C67.1,53.3,66.7,53.4,66.8,53.6
			L66.8,53.6z"/>
	</g>
</g>
<g>
	<g>
		<path class="st11" d="M86.9,99.6c-1.2,1.8-2.5,3.7-3.6,5.6c-0.2,0.4,0.4,0.8,0.6,0.4c1.1-1.9,2.4-3.7,3.6-5.6
			C87.8,99.5,87.2,99.2,86.9,99.6L86.9,99.6z"/>
	</g>
</g>
<g>
	<g>
		<path class="st11" d="M98,29.6c5.8,8.5,6.8,19.2,6,29.2c0,0.5,0.7,0.5,0.7,0c0.8-10.1-0.2-21-6.1-29.6
			C98.4,28.9,97.8,29.3,98,29.6L98,29.6z"/>
	</g>
</g>
<path class="st12" d="M40.6,67.8c0-2.6-2.1-4.6-4.6-4.6c-2.6,0-4.6,2.1-4.6,4.6c0,2.6,2.1,4.6,4.6,4.6
	C38.5,72.4,40.6,70.3,40.6,67.8z"/>
<path class="st11" d="M36,66.3c-0.8,0-1.5,0.7-1.5,1.5c0,0.8,0.7,1.5,1.5,1.5c0.8,0,1.5-0.7,1.5-1.5C37.5,67,36.8,66.3,36,66.3z
	 M36.6,68.7c-0.2,0-0.4-0.2-0.4-0.4c0-0.2,0.2-0.4,0.4-0.4c0.2,0,0.4,0.2,0.4,0.4C37,68.6,36.8,68.7,36.6,68.7z"/>
<path class="st12" d="M50.5,67.8c0-2.6-2.1-4.6-4.6-4.6c-2.6,0-4.6,2.1-4.6,4.6c0,2.6,2.1,4.6,4.6,4.6
	C48.4,72.4,50.5,70.3,50.5,67.8z"/>
<path class="st11" d="M45.9,66.3c-0.8,0-1.5,0.7-1.5,1.5c0,0.8,0.7,1.5,1.5,1.5c0.8,0,1.5-0.7,1.5-1.5C47.4,67,46.7,66.3,45.9,66.3z
	 M46.5,68.7c-0.2,0-0.4-0.2-0.4-0.4c0-0.2,0.2-0.4,0.4-0.4c0.2,0,0.4,0.2,0.4,0.4C46.9,68.6,46.7,68.7,46.5,68.7z"/>
<g>
	<g>
		<path class="st11" d="M33.6,80c0.2,0.4,1.5,0.2,1.8,0.2c1.1,0,2.2,0,3.2-0.1c2.9-0.1,5.9-0.9,8.5-2.4c1.2-0.7,1.6-1.7,0.8-2.9
			c-0.7-1-1.7-1.9-2.7-2.6c-2.1-1.4-4.9-2.6-7.1-0.9c-1.3,1-2.2,2.4-2.9,3.8c-0.7,1.4-1.4,2.9-1.7,4.5c-0.1,0.5,0.6,0.6,0.7,0.2
			c0.5-2.4,1.6-4.9,3.2-6.7c0.7-0.9,1.7-1.8,2.9-1.9c1.2-0.1,2.3,0.4,3.3,0.9c1.1,0.6,2.1,1.3,2.9,2.1c0.4,0.4,0.8,0.8,1,1.4
			c0.3,0.7-0.2,1.1-0.8,1.4c-2.3,1.3-5.1,2.1-7.7,2.2c-1,0-2,0.1-3,0.1c-0.5,0-0.9,0-1.4,0c-0.2,0-0.4,0-0.5,0c-0.3,0-0.1-0.1,0,0.1
			C34,79.2,33.3,79.6,33.6,80z"/>
	</g>
</g>
<g>
	<g>
		<path class="st11" d="M34.8,73.3c-0.1-0.4-0.2-0.7-0.3-1.1c-0.1-0.2-0.3-0.3-0.4-0.3c-0.2,0.1-0.3,0.3-0.3,0.4
			c0.1,0.4,0.2,0.7,0.3,1.1c0,0.1,0.1,0.2,0.2,0.2c0.1,0,0.2,0.1,0.3,0C34.8,73.7,34.9,73.5,34.8,73.3L34.8,73.3z"/>
	</g>
</g>
<g>
	<g>
		<path class="st11" d="M32.9,64.4c0.1-7.5,11.5-6.2,15.6-3.1c3.5,2.7,4.5,7.3,4.7,11.5c0.2,4.8-0.3,9.7-1.5,14.3
			c-0.7,2.7-1.6,5.1-3,7.4c-0.9,1.5-2.2,3.3-2.3,5.2c0,0.5,0.7,0.5,0.7,0c0.1-2.1,1.9-4.2,2.9-6c1.3-2.3,2-4.8,2.6-7.3
			c1.2-4.9,1.7-10.2,1.2-15.3c-0.4-4.1-1.9-8.4-5.5-10.8c-2.7-1.8-6.4-2.4-9.5-2.1c-3.5,0.4-6.6,2.3-6.6,6.1
			C32.2,64.9,32.9,64.9,32.9,64.4L32.9,64.4z"/>
	</g>
</g>
<g>
	<g>
		<path class="st11" d="M35.1,80.2c3,4.7,4.1,10.5,4.8,16c0.1,0.5,0.8,0.5,0.7,0c-0.7-5.6-1.9-11.5-4.9-16.3
			C35.5,79.5,34.9,79.8,35.1,80.2L35.1,80.2z"/>
	</g>
</g>
<g>
	<g>
		<path class="st11" d="M39.2,58.5c-0.1-0.6-0.6-1.2-0.9-1.7c-0.2-0.3-0.4-0.6-0.6-0.9c0,0,0-0.1,0-0.1c0,0,0-0.1,0,0c0,0,0,0,0,0
			c0-0.1,0-0.1-0.1-0.2c0-0.1,0,0,0,0c0,0,0-0.1,0-0.1c0,0,0,0,0-0.1c0,0,0,0.1,0,0c0,0,0-0.1,0-0.1c0,0,0,0,0,0c0-0.1,0,0,0,0
			c0,0,0.1-0.1,0,0c0,0,0.1,0,0.1,0c0.1,0,0.1,0,0.2-0.1c0,0,0.1,0,0.1,0c0,0,0,0,0.1,0c0,0,0,0,0,0c0,0,0.1,0,0.1,0c0,0,0.1,0,0,0
			c-0.1,0,0,0,0.1,0c0,0,0.1,0,0,0c0.1,0,0.1,0.1,0.1,0.1c0,0,0,0,0,0c0,0,0.1,0.1,0.1,0.1c0,0,0.1,0.1,0,0c0,0,0,0,0,0.1
			c0,0.1,0.1,0.1,0.1,0.2c0,0,0,0.1,0,0.1c0,0,0,0.1,0,0.1c0,0.1,0.1,0.1,0.1,0.2c0,0.2,0.1,0.3,0.1,0.5c0,0.1,0,0.3,0,0.4
			c0,0.4,0,0.7,0,1.1c0,0.1,0,0.2,0,0.2c0,0,0,0.1,0,0.1c0-0.1,0,0,0,0c0,0.1,0,0.2-0.1,0.3c-0.1,0.4,0.6,0.6,0.7,0.2
			c0.2-0.6,0.2-1.3,0.1-1.9c0-0.7-0.1-1.5-0.6-2.1c-0.2-0.3-0.5-0.5-0.8-0.5c-0.4-0.1-0.8,0-1.1,0.3c-0.7,0.5-0.3,1.4,0,2
			c0.2,0.4,0.5,0.8,0.8,1.1c0.1,0.2,0.2,0.3,0.3,0.5c0,0,0,0.1,0.1,0.1c0,0,0,0,0,0c0,0,0-0.1,0,0c0,0,0,0.1,0,0.1c0,0,0,0.2,0,0
			c0,0.2,0.2,0.4,0.4,0.4C39,58.8,39.2,58.7,39.2,58.5L39.2,58.5z"/>
	</g>
</g>
<g>
	<g>
		<path class="st11" d="M39.8,58.8c1.2-0.9,1.1-2.7,0.7-4c-0.2-0.8-0.5-1.4-0.9-2.1c-0.4-0.8-0.9-1.8-0.5-2.7c0.3-0.8,1-0.9,1.7-0.5
			c0.6,0.4,1,0.9,1.3,1.5c0.6,1.2,0.8,2.6,0.5,3.9c-0.3,1.5-1.3,2.7-2.8,3.1c-0.5,0.1-0.3,0.8,0.2,0.7c3.2-0.8,4-4.5,3-7.3
			c-0.5-1.3-1.5-3-3.1-2.9c-0.9,0-1.5,0.7-1.7,1.5c-0.2,1,0.2,2,0.6,2.9c0.4,0.9,0.8,1.7,1,2.6c0.2,0.8,0.2,2-0.5,2.6
			C39,58.4,39.4,59.1,39.8,58.8L39.8,58.8z"/>
	</g>
</g>
<g>
	<g>
		<path class="st11" d="M39.7,79.8c-0.3,0.4-0.5,0.8-0.6,1.3c-0.1,0.4-0.2,0.9,0,1.3c0.1,0.2,0.2,0.4,0.5,0.5c0.2,0.1,0.5,0,0.7-0.1
			c0.3-0.1,0.5-0.3,0.7-0.5c0.2-0.3,0.3-0.6,0.4-1c0-0.6-0.2-1.2-0.4-1.8c-0.1-0.2-0.3-0.2-0.5-0.1c-0.2,0.1-0.2,0.3-0.1,0.5
			c0,0.1,0.1,0.2,0.1,0.2c0-0.1,0,0,0,0.1c0,0.1,0,0.1,0.1,0.2c0,0.1,0.1,0.2,0.1,0.4c0,0.1,0,0.1,0,0.2c0,0,0,0.1,0,0.1
			c0,0,0,0.1,0,0.1c0,0.1,0,0.1,0,0.2c0,0,0,0.1,0,0.1c0,0,0,0.1,0,0c0,0.1,0,0.1,0,0.2c0,0,0,0.1,0,0.1c0,0,0,0.1,0,0c0,0,0,0,0,0
			c0,0.1-0.1,0.1-0.1,0.2c0-0.1,0,0,0,0c0,0-0.1,0.1-0.1,0.1c0,0-0.1,0.1-0.1,0.1c0,0-0.1,0.1,0,0c0,0,0,0-0.1,0
			c0,0-0.1,0.1-0.1,0.1c0,0,0,0-0.1,0c-0.1,0,0.1,0,0,0c0,0-0.1,0-0.1,0c0,0,0.1,0,0,0c0,0,0,0,0,0c-0.1,0,0.1,0,0,0c0,0,0,0,0,0
			c0,0,0.1,0,0,0c0,0-0.1,0,0,0c0.1,0.1-0.1-0.1,0,0c0,0.1,0,0,0,0c0,0,0,0.1,0,0c0,0,0,0,0,0c0,0,0-0.1,0-0.1c0-0.1,0,0,0,0
			c0,0,0,0,0-0.1c0,0,0-0.1,0-0.1c0-0.1,0-0.2,0-0.3c0,0,0-0.1,0,0c0,0.1,0,0,0,0c0-0.1,0-0.1,0-0.2c0-0.1,0-0.2,0.1-0.3
			c0-0.1,0-0.1,0.1-0.2c0,0,0-0.1,0-0.1c0-0.1,0,0,0,0c0-0.1,0.1-0.2,0.1-0.3c0,0,0.1-0.1,0.1-0.1c0,0,0,0,0,0c0,0,0,0,0,0
			c0,0,0,0,0-0.1c0.1-0.1,0.1-0.4,0-0.5C40.1,79.7,39.8,79.6,39.7,79.8L39.7,79.8z"/>
	</g>
</g>
<g>
	<g>
		<path class="st11" d="M40.6,81.1c0,1.1,0.2,2.3,0.5,3.4c0.3,1.1,0.7,2.4,1.7,3.1c1,0.8,2.2,0.1,3-0.7c1.2-1.3,1.2-3.1,0.4-4.6
			c-0.8-1.6-2.4-3-4.2-3.2c-0.5-0.1-0.5,0.7,0,0.7c2.6,0.3,5.2,3.9,3.5,6.3c-0.5,0.7-1.4,1.5-2.3,0.8c-0.8-0.6-1.1-1.8-1.4-2.7
			c-0.3-1-0.5-2.1-0.5-3.2C41.3,80.7,40.6,80.7,40.6,81.1L40.6,81.1z"/>
	</g>
</g>
<g>
	<g>
		<path class="st11" d="M33.9,80.1c0.7,0,1.5-0.2,2.2-0.4c1.2-0.3,2.4-0.6,3.6-1.1c1.2-0.4,2.3-0.8,3.4-1.4c0.6-0.3,1.5-0.8,1.8-1.5
			c0.3-0.8-0.6-1.3-1.2-1.5c-0.2-0.1-0.3,0.2-0.1,0.3c0.5,0.3,1,0.6,1.5,0.8c0.2,0.1,0.3-0.3,0.1-0.3c-0.5-0.2-1-0.5-1.4-0.8
			c0,0.1-0.1,0.2-0.1,0.3c0.5,0.2,1.3,0.5,0.9,1.2c-0.4,0.6-1.3,1-1.9,1.3c-2,1-4.2,1.6-6.4,2.2c-0.7,0.2-1.5,0.4-2.3,0.4
			C33.7,79.8,33.7,80.1,33.9,80.1L33.9,80.1z"/>
	</g>
</g>
<g>
	<g>
		<path class="st11" d="M39.9,96.6c-1.3,0.8-2.4,2-3.2,3.2c-0.5,0.7-1.6,2.4-0.3,3c0.8,0.4,1.9,0,2.7-0.3c-0.2-0.1-0.3-0.2-0.5-0.3
			c0.1,1.3,0.8,2.7,2,3.3c1,0.5,2.3,0.3,3-0.6c0.5-0.7,0.7-1.5,0.7-2.4c-0.2,0.1-0.4,0.2-0.5,0.3c1,0.7,2.5,0.7,3.6,0
			c0.4-0.3,0.7-0.8,0.7-1.3c0-0.7-0.4-1.2-0.9-1.6c-0.4-0.3-0.9,0.2-0.5,0.5c0.3,0.3,0.7,0.6,0.7,1.1c0,0.3-0.3,0.6-0.5,0.8
			c-0.8,0.5-1.9,0.4-2.6-0.1c-0.2-0.2-0.5,0.1-0.5,0.3c0,1.2-0.5,2.7-2,2.5c-1.4-0.2-2.1-1.6-2.3-2.8c0-0.2-0.2-0.4-0.5-0.3
			c-0.6,0.2-1.4,0.5-2.1,0.4c-0.1,0-0.1,0-0.2-0.1c0,0-0.1-0.1-0.1-0.1c0-0.1,0-0.3,0-0.4c0.1-0.5,0.5-1,0.8-1.5
			c0.4-0.6,0.9-1.1,1.4-1.6c0.5-0.5,1-1,1.6-1.3C40.6,96.9,40.3,96.3,39.9,96.6L39.9,96.6z"/>
	</g>
</g>
<g>
	<g>
		<g>
			<path class="st11" d="M32.9,114.2c0,0.4,0.1,0.7,0.2,1.1c0,0.1,0.1,0.2,0.2,0.2c0.1,0,0.2,0.1,0.3,0c0.1,0,0.2-0.1,0.2-0.2
				c0-0.1,0.1-0.2,0-0.3c-0.1-0.3-0.2-0.5-0.2-0.8c0,0,0,0.1,0,0.1c0-0.1,0-0.1,0-0.2c0-0.1,0-0.2-0.1-0.3c-0.1-0.1-0.2-0.1-0.3-0.1
				c-0.1,0-0.2,0-0.3,0.1C32.9,114.1,32.9,114.1,32.9,114.2L32.9,114.2z"/>
		</g>
	</g>
	<g>
		<g>
			<path class="st11" d="M47.1,115.1c0.5,0.2,1,0.5,1.5,0.8c0.2,0.1,0.4,0,0.5-0.1c0.1-0.2,0-0.4-0.1-0.5c-0.5-0.3-1-0.5-1.5-0.8
				c-0.2-0.1-0.4-0.1-0.5,0.1C46.9,114.7,46.9,115,47.1,115.1L47.1,115.1z"/>
		</g>
	</g>
	<g>
		<g>
			<path class="st11" d="M34.2,115c0.2,0.1-0.1,0.4,0.1,0.5c0,0,0.1-0.1,0.2-0.1c0.1,0,0.3-0.1,0.4-0.1c0.4-0.1,0.9-0.2,1.3-0.3
				c0.8-0.2,1.6-0.3,2.5-0.4c3.3-0.1,6.4,1,9.6,1.5c0.5,0.1,0.7-0.6,0.2-0.7c-3.4-0.5-6.9-1.9-10.5-1.5c-1.1,0.1-2.2,0.3-3.2,0.6
				c-0.3,0.1-1.7,0.5-0.9,1C34.3,115.9,34.6,115.3,34.2,115L34.2,115z"/>
		</g>
	</g>
	<g>
		<g>
			<path class="st11" d="M33.1,115.1c-1.3,0.3-2.8,0.5-3.8,1.4c-0.2,0.2-0.1,0.6,0.2,0.6c1.2,0.2,2.3-0.3,3.4-0.6
				c-0.1-0.2-0.2-0.4-0.3-0.7c-0.2,0.2-0.4,0.4-0.5,0.6c-0.1,0.2-0.2,0.4-0.4,0.6c-0.2,0.2-0.1,0.6,0.3,0.6c1,0,1.7-0.6,2.4-1.2
				c-0.2,0-0.3,0-0.5,0c0.3,0.3,0.7,0.6,1.1,0.6c0.4,0,0.8-0.2,1.1-0.5c0.2-0.2,0.1-0.5-0.2-0.6c-0.6-0.2-1.2-0.5-1.9-0.7
				c-0.4-0.2-0.6,0.5-0.2,0.7c0.6,0.2,1.2,0.5,1.9,0.7c-0.1-0.2-0.1-0.4-0.2-0.6c-0.4,0.4-0.8,0.3-1.2-0.1c-0.1-0.1-0.4-0.1-0.5,0
				c-0.5,0.5-1.1,1-1.9,1c0.1,0.2,0.2,0.4,0.3,0.6c0.3-0.3,0.4-0.8,0.8-1.1c0.3-0.2,0.1-0.8-0.3-0.7c-0.9,0.3-2,0.8-3,0.6
				c0.1,0.2,0.1,0.4,0.2,0.6c0.4-0.4,1-0.6,1.5-0.7c0.6-0.2,1.3-0.3,1.9-0.5C33.7,115.7,33.5,115,33.1,115.1L33.1,115.1z"/>
		</g>
	</g>
	<g>
		<g>
			<path class="st11" d="M48,115.9c0,0.4-0.4,0.5-0.7,0.6c-0.5,0.1-1,0.2-1.4,0.5c-0.3,0.2-0.2,0.6,0.1,0.7c0.4,0.2,1,0.2,1.5,0.2
				c0.6,0,1.2,0,1.8-0.2c0.4-0.1,0.9-0.2,1.1-0.7c0.2-0.5-0.5-0.9-0.9-1.1c0,0.2-0.1,0.4-0.1,0.7c0.1,0,0.1,0,0.3,0.1
				c0.2,0.1,0.3,0.2,0.4,0.4c0.3,0.3,0.6,0.7,0.9,1c0.3,0.3,0.7,0.5,1.1,0.5c0.5,0,0.9-0.4,1.2-0.8c0.1-0.2,0-0.4-0.1-0.5
				c-0.6-0.3-0.9-0.9-1.3-1.3c-0.6-0.6-1.3-0.7-2.1-0.5c0.1,0.2,0.2,0.4,0.3,0.7c0.6-0.3,1-0.6,1.6-0.9c0.2-0.1,0.2-0.5,0-0.6
				c-1-0.4-2-0.2-2.7,0.6c-0.3,0.4,0.3,0.7,0.6,0.4c0.4-0.5,1.1-0.6,1.7-0.4c0-0.2,0-0.4,0-0.6c-0.6,0.3-1,0.6-1.6,0.9
				c-0.4,0.2-0.1,0.7,0.3,0.7c0.7-0.1,1.2,0,1.6,0.6c0.4,0.5,0.7,1,1.3,1.2c0-0.2-0.1-0.3-0.1-0.5c-0.2,0.3-0.5,0.5-0.7,0.4
				c-0.3-0.1-0.6-0.5-0.8-0.8c-0.4-0.5-1-1.4-1.8-1.2c-0.3,0.1-0.4,0.5-0.1,0.7c0.2,0.1,0.4,0.2,0.5,0.4c0,0,0,0,0,0
				c0-0.1,0,0,0-0.1c0-0.1,0.1,0,0,0c0,0-0.1,0-0.1,0.1c0,0-0.1,0-0.2,0.1c-0.2,0.1-0.4,0.1-0.6,0.1c-0.5,0.1-0.9,0.1-1.4,0.1
				c-0.4,0-0.7,0-1.1-0.2c0,0.2,0.1,0.4,0.1,0.7c0.8-0.4,2.6-0.3,2.5-1.6C48.7,115.5,48,115.5,48,115.9L48,115.9z"/>
		</g>
	</g>
	<g>
		<g>
			<path class="st11" d="M35.4,108.1c-1.2-0.7-0.5-2.2-0.3-3.2c0.1-0.5,0.2-1.1,0-1.6c-0.2-0.6-0.8-0.9-1.4-1
				c-1.7-0.4-3.5,0.4-4.9,1.3c-1.1,0.8-2.7,2.2-2.4,3.8c0.4,1.6,2.4,2.1,3.8,2.3c0-0.2,0.1-0.5,0.1-0.7c-1.3,0-4.1,0.2-4.1,2
				c0.1,2,3,1.3,4.2,0.8c-0.1-0.2-0.2-0.4-0.3-0.7c-0.5,0.3-0.9,0.7-1,1.2c-0.1,0.5,0.3,1,0.8,1.2c0.9,0.5,2.1,0.2,3-0.3
				c0.4-0.2,0-0.9-0.4-0.6c-0.5,0.3-1.1,0.5-1.7,0.4c-0.3,0-0.6-0.1-0.8-0.3c-0.5-0.4,0.1-0.8,0.5-1c0.4-0.2,0.1-0.8-0.3-0.7
				c-0.6,0.2-3.4,1.1-3.2-0.2c0.1-0.6,0.9-0.9,1.4-1c0.6-0.1,1.3-0.2,1.9-0.2c0.4,0,0.5-0.6,0.1-0.7c-1-0.2-2.8-0.5-3.2-1.6
				c-0.2-0.6,0.1-1.3,0.5-1.8c0.5-0.6,1.1-1.2,1.8-1.6c1.2-0.7,3-1.5,4.4-0.9c1,0.4,0.5,1.8,0.3,2.6c-0.3,1.1-0.3,2.4,0.9,3
				C35.5,108.9,35.8,108.3,35.4,108.1L35.4,108.1z"/>
		</g>
	</g>
	<g>
		<g>
			<path class="st11" d="M45.8,107.3c1.4-1.6,2.4-3.5,3.8-5.1c1.4-1.7,3.1-2.7,5.2-3.3c1.2-0.3,2.9-0.8,4.1-0.4
				c0.7,0.2,0.6,0.9,0.1,1.3c-0.5,0.4-1.2,0.6-1.9,0.8c-1.7,0.4-3.6,0.6-5,1.6c-0.2,0.2-0.2,0.5,0,0.6c0.5,0.4,1.4,0.3,2,0.4
				c0.4,0,1.8,0,1.9,0.5c0.1,0.5-1.1,0.9-1.4,1c-0.5,0.2-1.1,0.3-1.6,0.3c-1.5,0.3-3.1,0.4-4.5,1c-0.3,0.1-0.2,0.6,0.1,0.7
				c0.4,0.2,0.9,0.2,1.3,0.3c0.4,0.1,1.2,0.1,1.4,0.4c0.3,0.4-1,0.9-1.3,1c-0.9,0.3-1.9,0.3-2.9,0.4c-0.5,0-0.5,0.8,0,0.7
				c1.2-0.1,2.5-0.1,3.7-0.6c0.6-0.2,1.5-0.8,1.4-1.6c-0.3-1.2-2.5-1-3.4-1.4c0,0.2,0.1,0.4,0.1,0.7c1.6-0.7,3.5-0.8,5.2-1.1
				c0.9-0.2,2.5-0.7,2.6-1.9c0.1-1.7-3.4-0.9-4.3-1.5c0,0.2,0,0.4,0,0.6c1.5-1.1,3.6-1.1,5.4-1.7c1-0.3,2.9-1.1,2.2-2.6
				c-0.6-1.3-2.7-0.9-3.7-0.7c-2,0.3-4,0.9-5.6,2.2c-2.2,1.8-3.5,4.5-5.3,6.7C45,107.2,45.5,107.7,45.8,107.3L45.8,107.3z"/>
		</g>
	</g>
</g>
<g>
	<g>
		<path class="st11" d="M36.3,101.8c-0.4,0.4-0.6,0.8-0.9,1.3c-0.3,0.5-0.6,1-0.9,1.4c-0.1,0.2,0,0.4,0.1,0.5c0.2,0.1,0.4,0,0.5-0.1
			c0.3-0.5,0.6-0.9,0.9-1.4c0.3-0.4,0.5-0.8,0.8-1.1C37.2,102,36.7,101.5,36.3,101.8L36.3,101.8z"/>
	</g>
</g>
<g>
	<g>
		<path class="st11" d="M47.1,102.6c0.1,0.1,0.1,0.1,0.2,0.2c0,0,0,0-0.1-0.1c0.3,0.3,0.5,0.7,0.8,1.1c0.1,0.1,0.4,0.1,0.5,0
			c0.1-0.1,0.1-0.4,0-0.5c-0.1-0.1-0.1-0.1-0.2-0.2c0,0,0,0,0.1,0.1c-0.3-0.3-0.5-0.7-0.8-1.1c-0.1-0.1-0.4-0.1-0.5,0
			C46.9,102.3,46.9,102.5,47.1,102.6L47.1,102.6z"/>
	</g>
</g>
<g>
	<g>
		<path class="st11" d="M46.4,108.6c-1,2.1-0.2,4.8,1.5,6.2c0.4,0.3,0.9-0.2,0.5-0.5c-1.5-1.2-2.3-3.6-1.4-5.4
			C47.3,108.5,46.6,108.2,46.4,108.6L46.4,108.6z"/>
	</g>
</g>
<g>
	<g>
		<path class="st11" d="M33.4,114.8c-0.1-0.6-0.2-1.2-0.1-1.9c0.1-0.6,0.3-1.1,0.7-1.6c0.1-0.2,0-0.4-0.1-0.5
			c-0.2-0.1-0.4,0-0.5,0.1c-0.4,0.6-0.7,1.2-0.8,1.9c-0.1,0.7,0,1.4,0.2,2.1c0,0.2,0.3,0.3,0.4,0.3C33.4,115.2,33.5,115,33.4,114.8
			L33.4,114.8z"/>
	</g>
</g>
<g>
	<g>
		<path class="st11" d="M72.5,54.7c0.9,0.2,2,0.1,2.9-0.1c1.4-0.2,2.8-0.6,4.2-1.1c1.3-0.5,2.7-1,3.9-1.8c0.8-0.5,1.8-1.1,2.3-2
			c0.5-0.9,0.1-1.7-0.6-2.3c-0.1,0.1-0.1,0.2-0.2,0.3c0.9,0.6,2,1.1,2.9,1.7c0.2,0.1,0.4-0.2,0.2-0.3c-0.9-0.6-2-1.1-2.9-1.7
			c-0.2-0.1-0.4,0.2-0.2,0.3c2.5,2-2.3,4.2-3.8,4.8c-1.6,0.7-3.2,1.2-4.8,1.6c-1.2,0.3-2.5,0.6-3.7,0.3
			C72.4,54.3,72.3,54.6,72.5,54.7L72.5,54.7z"/>
	</g>
</g>
<g>
	<path class="st12" d="M72.5,90.1c0-1.9-1.6-3.5-3.5-3.5c-1.9,0-3.5,1.6-3.5,3.5c0,1.9,1.6,3.5,3.5,3.5C70.9,93.6,72.5,92,72.5,90.1
		z"/>
	<path class="st11" d="M69,89c-0.6,0-1.1,0.5-1.1,1.1c0,0.6,0.5,1.1,1.1,1.1c0.6,0,1.1-0.5,1.1-1.1C70.1,89.5,69.6,89,69,89z
		 M69.4,90.8c-0.2,0-0.3-0.1-0.3-0.3c0-0.2,0.1-0.3,0.3-0.3c0.2,0,0.3,0.1,0.3,0.3C69.8,90.7,69.6,90.8,69.4,90.8z"/>
	<path class="st12" d="M79.9,90.1c0-1.9-1.6-3.5-3.5-3.5c-1.9,0-3.5,1.6-3.5,3.5c0,1.9,1.6,3.5,3.5,3.5C78.4,93.6,79.9,92,79.9,90.1
		z"/>
	<path class="st11" d="M76.5,89c-0.6,0-1.1,0.5-1.1,1.1c0,0.6,0.5,1.1,1.1,1.1c0.6,0,1.1-0.5,1.1-1.1C77.6,89.5,77.1,89,76.5,89z
		 M76.9,90.8c-0.2,0-0.3-0.1-0.3-0.3c0-0.2,0.1-0.3,0.3-0.3c0.2,0,0.3,0.1,0.3,0.3C77.2,90.7,77.1,90.8,76.9,90.8z"/>
	<g>
		<g>
			<path class="st11" d="M67.1,99.4c0.2,0.4,1.2,0.2,1.5,0.2c0.8,0,1.6,0,2.4-0.1c2.2-0.1,4.5-0.7,6.4-1.8c0.9-0.5,1.3-1.4,0.7-2.3
				c-0.5-0.8-1.3-1.4-2.1-2c-1.6-1.1-3.8-2-5.5-0.7c-1,0.7-1.7,1.8-2.2,2.9c-0.6,1.1-1,2.2-1.3,3.4c-0.1,0.5,0.6,0.6,0.7,0.2
				c0.4-1.8,1.2-3.6,2.4-5.1c0.5-0.6,1.2-1.3,2.1-1.4c0.9-0.1,1.7,0.3,2.5,0.7c0.8,0.4,1.6,1,2.2,1.6c0.3,0.3,0.6,0.6,0.7,1
				c0.2,0.5-0.2,0.8-0.6,1c-1.7,0.9-3.8,1.6-5.7,1.7c-0.8,0-1.5,0.1-2.3,0.1c-0.3,0-0.7,0-1,0c-0.1,0-0.3,0-0.4,0
				c-0.3,0,0-0.1,0.1,0.1C67.5,98.6,66.9,99,67.1,99.4z"/>
		</g>
	</g>
	<g>
		<g>
			<path class="st11" d="M68.4,96.9c0-0.5,0-1-0.1-1.6c0-0.2-0.2-0.4-0.4-0.4c-0.2,0-0.4,0.2-0.4,0.4c0,0.5,0.1,1,0.1,1.6
				c0,0.2,0.2,0.4,0.4,0.4C68.3,97.3,68.4,97.1,68.4,96.9L68.4,96.9z"/>
		</g>
	</g>
	<g>
		<g>
			<path class="st11" d="M78.8,96.1c-1.4,5-2,10.2-3.2,15.3c-0.1,0.5,0.6,0.6,0.7,0.2c1.1-5.1,1.8-10.3,3.2-15.3
				C79.6,95.8,78.9,95.6,78.8,96.1L78.8,96.1z"/>
		</g>
	</g>
	<g>
		<g>
			<path class="st11" d="M66.7,87.6c0-3.7,4.4-4.3,7.3-4c1.9,0.2,3.9,1,5.2,2.5c2.1,2.2,1.2,5.2,0.3,7.8c-0.2,0.4,0.5,0.6,0.7,0.2
				c0.8-2.2,1.6-4.6,0.6-6.9c-0.8-1.8-2.4-3-4.2-3.7c-2.6-1-6.1-1.2-8.5,0.3C66.8,84.6,66,86,66,87.6C66,88.1,66.7,88.1,66.7,87.6
				L66.7,87.6z"/>
		</g>
	</g>
	<g>
		<g>
			<path class="st11" d="M68.2,99.5c2.2,3.6,3.1,7.9,3.6,12c0.1,0.5,0.8,0.5,0.7,0c-0.5-4.3-1.4-8.7-3.7-12.4
				C68.6,98.8,68,99.1,68.2,99.5L68.2,99.5z"/>
		</g>
	</g>
	<g>
		<g>
			<path class="st11" d="M72.1,111.2c-0.6,0.3-1.5,0.6-1.8,1.3c-0.3,0.6,0,1.4,0.8,1.4c0.2,0,0.5-0.1,0.8-0.1
				c0.2,0.1,0.4,0.3,0.5,0.4c0.4,0.5,0.9,1,1.5,1.2c0.9,0.3,1.5-0.4,1.9-1.2c-0.2,0-0.4,0-0.6,0.1c1,0.8,3,0.7,3.5-0.6
				c0.2-0.6,0-1.5-0.6-1.8c-0.5-0.3-1.4-0.1-1.6-0.7c-0.2-0.4-0.8-0.1-0.6,0.4c0.2,0.5,0.7,0.7,1.2,0.8c0.5,0.1,1,0.2,1,0.8
				c0,1-1.7,1.1-2.3,0.6c-0.2-0.1-0.5-0.2-0.6,0.1c-0.1,0.3-0.4,0.8-0.7,0.9c-0.2,0-0.5-0.1-0.6-0.3c-0.5-0.4-0.8-0.9-1.3-1.3
				c-0.2-0.1-0.5-0.2-0.7-0.2c-0.1,0-0.6,0.1-0.6,0c-0.1,0,0-0.3,0-0.3c0-0.2,0.2-0.3,0.3-0.4c0.3-0.2,0.7-0.4,1-0.5
				C72.7,111.7,72.5,111,72.1,111.2L72.1,111.2z"/>
		</g>
	</g>
	<g>
		<g>
			<path class="st11" d="M72.3,83c-0.1-0.8-0.7-1.4-1.1-2c-0.3-0.4-0.5-0.7-0.7-1.1c-0.1-0.2-0.1-0.3-0.2-0.5c0-0.1,0-0.1,0-0.2
				c0,0,0-0.1,0-0.1c0-0.1,0.1-0.1,0.2-0.2c0.1,0,0.1-0.1,0.2-0.1c0,0,0.1,0,0.1,0c0.1,0,0,0,0.1,0c0.1,0,0.2,0,0.2,0
				c0,0,0.1,0,0.1,0c0,0,0.1,0,0.1,0c0.2,0.1,0.2,0.1,0.3,0.2c0.1,0.1,0.2,0.2,0.2,0.4c0.1,0.1,0.1,0.3,0.2,0.5
				c0.1,0.4,0.2,0.8,0.2,1.1c0,0.4,0,0.9,0,1.3c0,0.1,0,0.2,0,0.3c0,0.1,0,0.1,0,0.2c0,0.1,0,0.3-0.1,0.4c-0.1,0.4,0.6,0.6,0.7,0.2
				c0.2-0.7,0.2-1.5,0.2-2.2c0-0.8-0.2-1.8-0.7-2.5c-0.5-0.7-1.5-0.8-2.2-0.3c-0.8,0.6-0.4,1.6,0.1,2.3c0.3,0.5,0.6,0.9,1,1.4
				c0.1,0.2,0.3,0.4,0.4,0.6c0,0,0.1,0.1,0.1,0.1c0,0,0,0,0,0c0,0,0,0,0,0c0,0,0,0.1,0,0.1c0,0,0,0.2,0,0.1c0,0.2,0.2,0.4,0.4,0.4
				C72.1,83.4,72.3,83.2,72.3,83L72.3,83z"/>
		</g>
	</g>
	<g>
		<g>
			<path class="st11" d="M73,83.3c1.5-1.1,1.3-3.2,0.9-4.7c-0.2-0.9-0.6-1.7-1.1-2.6c-0.5-1-1.1-2.2-0.7-3.3c0.4-1,1.3-1.1,2.2-0.6
				c0.7,0.4,1.2,1.2,1.6,1.9c0.7,1.4,1,3.2,0.6,4.8c-0.4,1.8-1.6,3.4-3.4,3.8c-0.5,0.1-0.3,0.8,0.2,0.7c3.8-1,4.8-5.4,3.6-8.7
				c-0.5-1.5-1.8-3.5-3.6-3.5c-1,0-1.7,0.8-1.9,1.7c-0.3,1.2,0.2,2.4,0.7,3.4c0.5,1.1,1,2.1,1.2,3.2c0.2,1,0.3,2.5-0.7,3.2
				C72.3,83,72.6,83.6,73,83.3L73,83.3z"/>
		</g>
	</g>
	<g>
		<g>
			<path class="st11" d="M71.7,99.1c-0.2,0.3-0.4,0.6-0.5,1c-0.1,0.3-0.1,0.7,0,1c0.1,0.2,0.2,0.4,0.4,0.4c0.2,0.1,0.4,0,0.6-0.1
				c0.2-0.1,0.4-0.3,0.5-0.4c0.2-0.2,0.3-0.5,0.3-0.8c0-0.5-0.1-1-0.3-1.4c-0.1-0.2-0.3-0.2-0.5-0.1C72,98.8,72,99,72.1,99.2
				c0,0.1,0.1,0.1,0.1,0.2c0,0,0-0.1,0,0c0,0,0,0,0,0.1c0,0,0,0.1,0,0.1c0,0.1,0.1,0.2,0.1,0.3c0,0,0,0.1,0,0.1c0,0,0,0.1,0,0
				c0-0.1,0,0,0,0c0,0,0,0.1,0,0.1c0,0,0,0.1,0,0.1c0,0,0,0,0,0c0,0.1,0,0,0,0c0,0,0,0.1,0,0.1c0,0,0,0,0,0.1c0,0.1,0-0.1,0,0
				c0,0-0.1,0.1-0.1,0.1c0,0,0-0.1,0,0c0,0,0,0,0,0c0,0,0,0-0.1,0.1c0,0-0.1,0.1-0.1,0.1c0,0-0.1,0.1,0,0c0,0,0,0,0,0
				c0,0-0.1,0-0.1,0.1c0,0,0,0,0,0c-0.1,0,0.1,0,0,0c0,0-0.1,0-0.1,0c0,0,0.1,0,0.1,0c0,0,0,0,0,0c-0.1,0,0.1,0,0.1,0c0,0,0,0,0,0
				c0,0,0.1,0,0.1,0c0,0-0.1,0,0,0c0.1,0.1,0-0.1,0,0c0,0.1,0,0,0,0c0,0,0,0.1,0,0c0,0,0,0,0,0c0,0,0-0.1,0-0.1c0-0.1,0,0,0,0
				c0,0,0,0,0,0c0,0,0-0.1,0-0.1c0-0.1,0-0.1,0-0.2c0,0,0-0.1,0,0c0,0.1,0,0,0,0c0,0,0-0.1,0-0.1c0-0.1,0-0.2,0.1-0.2
				c0,0,0-0.1,0-0.1c0,0,0,0,0-0.1c0-0.1,0,0.1,0,0c0-0.1,0.1-0.1,0.1-0.2c0,0,0-0.1,0.1-0.1c0,0,0,0,0,0c0,0,0,0,0,0c0,0,0,0,0,0
				c0.1-0.1,0.2-0.4,0-0.5C72.1,99,71.9,99,71.7,99.1L71.7,99.1z"/>
		</g>
	</g>
	<g>
		<g>
			<path class="st11" d="M72.4,100.2c0,0.9,0.2,1.7,0.4,2.6c0.2,0.8,0.5,1.8,1.3,2.4c0.8,0.6,1.8,0.2,2.4-0.5c0.9-1,0.9-2.4,0.4-3.6
				c-0.6-1.3-1.9-2.3-3.3-2.5c-0.2,0-0.4,0.2-0.4,0.4c0,0.2,0.2,0.3,0.4,0.4c1.9,0.2,3.8,2.9,2.5,4.7c-0.2,0.3-0.6,0.7-1,0.8
				c-0.2,0.1-0.4,0-0.6-0.1c-0.6-0.5-0.8-1.3-1-2c-0.2-0.8-0.4-1.6-0.4-2.4C73.1,99.7,72.4,99.7,72.4,100.2L72.4,100.2z"/>
		</g>
	</g>
	<g>
		<g>
			<path class="st11" d="M81.6,113.2c-1-0.1-2.1,0.1-3-0.2c-0.2-0.1-0.4,0.1-0.4,0.3c-0.1,0.2,0.1,0.4,0.3,0.4
				c1,0.4,2.1,0.2,3.2,0.3c0.2,0,0.4-0.2,0.4-0.4C82,113.4,81.8,113.3,81.6,113.2L81.6,113.2z"/>
		</g>
	</g>
	<g>
		<g>
			<path class="st11" d="M95.2,123.3c-0.6-3-3.2-5.2-5.6-6.8c-0.4-0.3-0.7,0.4-0.4,0.6c2.2,1.6,4.7,3.6,5.3,6.4
				C94.6,123.9,95.3,123.7,95.2,123.3L95.2,123.3z"/>
		</g>
	</g>
	<g>
		<g>
			<path class="st11" d="M53.8,126.4c1.9,2.8,5.6,3.7,8.8,4.3c4,0.8,8.1,1,12.2,0.9c4.1-0.1,8.2-0.5,12.2-1.4c2.8-0.7,6.7-1.7,8-4.6
				c0.2-0.4-0.4-0.8-0.6-0.4c-1.4,3-5.7,3.9-8.5,4.4c-3.6,0.7-7.3,1.1-11,1.2c-3.7,0.1-7.4-0.1-11.1-0.7c-3.1-0.5-7.3-1.3-9.3-4.1
				C54.2,125.6,53.5,126,53.8,126.4L53.8,126.4z"/>
		</g>
	</g>
	<g>
		<g>
			<path class="st11" d="M56.4,118c-1.7,1.6-3,3.7-3.2,6.1c0,0.5,0.7,0.5,0.7,0c0.2-2.2,1.4-4.1,3-5.6
				C57.2,118.2,56.7,117.7,56.4,118L56.4,118z"/>
		</g>
	</g>
	<g>
		<g>
			<path class="st11" d="M70,113.1c-0.8,0.2-1.7,0.3-2.5,0.5c-0.2,0-0.3,0.3-0.3,0.4c0.1,0.2,0.3,0.3,0.4,0.3
				c0.8-0.2,1.7-0.3,2.5-0.5c0.2,0,0.3-0.3,0.3-0.4C70.4,113.2,70.2,113.1,70,113.1L70,113.1z"/>
		</g>
	</g>
	<g>
		<g>
			<path class="st11" d="M53.2,122.4c-0.6,1.5-2.2,2.1-3.5,2.6c-0.2,0.1-0.3,0.2-0.3,0.4c0,0.2,0.3,0.3,0.4,0.3
				c0.8-0.3,1.6-0.6,2.3-1.1c0.8-0.5,1.3-1.2,1.7-2c0.1-0.2-0.1-0.4-0.3-0.4C53.5,122.1,53.3,122.2,53.2,122.4L53.2,122.4z"/>
		</g>
	</g>
	<g>
		<g>
			<path class="st11" d="M56.6,128.3c-2.4-1.2-5.2-2.2-7.9-1.8c-0.5,0.1-0.3,0.8,0.2,0.7c1.3-0.2,2.6,0,3.8,0.3
				c1.2,0.3,2.4,0.8,3.6,1.4C56.7,129.1,57.1,128.5,56.6,128.3L56.6,128.3z"/>
		</g>
	</g>
	<g>
		<g>
			<path class="st11" d="M93.7,121.8c2.1,1.3,4.5,1.1,6.8,1.1c0.5,0,0.5-0.7,0-0.7c-2.2,0-4.5,0.2-6.5-1
				C93.7,120.9,93.3,121.5,93.7,121.8L93.7,121.8z"/>
		</g>
	</g>
	<g>
		<g>
			<path class="st11" d="M93,127.9c2.6-1.3,5.3-2.7,8.3-2.6c0.5,0,0.5-0.7,0-0.7c-3.1-0.1-6,1.3-8.7,2.7
				C92.2,127.5,92.6,128.1,93,127.9L93,127.9z"/>
		</g>
	</g>
	<g>
		<g>
			<path class="st11" d="M48.5,126.9c0.1,0.8,0.1,1.7-0.4,2.4c0.2,0,0.3,0,0.5,0c-0.8-1-1-2.4-1.2-3.6c-0.2-1.1-0.3-2.2-0.7-3.2
				c-0.2-0.4-0.4-0.9-0.5-1.3c0-0.1-0.1-0.2,0-0.3c0-0.1-0.1,0,0,0c0.2,0,0.3,0.1,0.4,0.3c0.6,0.8,0.6,2,1.1,2.8
				c0.1,0.3,0.6,0.2,0.7-0.1c0.1-0.8,0-1.5-0.1-2.3c-0.1-0.6-0.2-1.6,0.5-1.9c-0.1-0.1-0.3-0.2-0.4-0.3c0.4,1.4-0.2,3,0.7,4.2
				c0.1,0.2,0.5,0.3,0.6,0c0.1-0.3,0.3-0.6,0.5-0.8c0.1-0.1,0.2-0.2,0.3-0.3c0.1-0.1,0.1,0,0-0.1c0.1,0.1,0.1,0.3,0.1,0.4
				c0.1,0.8-0.9,1.5-1.2,2.2c-0.2,0.4,0.4,0.8,0.6,0.4c0.3-0.6,0.8-1.1,1.1-1.7c0.2-0.5,0.3-1.2,0-1.7c-0.7-0.9-1.8,0.6-2.1,1.2
				c0.2,0,0.4,0,0.6,0c-0.4-0.6-0.4-1.3-0.4-2c0-0.7,0-1.4-0.2-2.1c-0.1-0.2-0.3-0.3-0.4-0.3c-1.9,0.7-0.7,3.2-0.9,4.6
				c0.2,0,0.4-0.1,0.7-0.1c-0.5-0.8-0.5-1.8-1-2.7c-0.2-0.4-0.5-0.7-0.9-0.8c-0.4-0.1-0.7,0-0.9,0.4c-0.3,0.7,0.3,1.7,0.6,2.4
				c0.4,1.1,0.5,2.2,0.7,3.3c0.2,1.3,0.5,2.7,1.3,3.7c0.1,0.1,0.4,0.1,0.5,0c0.7-0.9,0.7-1.8,0.6-2.9
				C49.1,126.4,48.4,126.4,48.5,126.9L48.5,126.9z"/>
		</g>
	</g>
	<g>
		<g>
			<path class="st11" d="M100.7,122.6c0.1-0.5-0.1-0.8-0.1-1.3c0-0.3-0.1-0.6-0.2-1c-0.1-0.6-0.4-1.8,0.1-2.2c0.1-0.1,0-0.1,0.1,0
				c0.1,0.1,0.1,0.2,0.1,0.3c0.1,0.3,0.1,0.7,0.2,1.1c0.1,0.6,0,1.3,0.3,1.8c0.1,0.2,0.4,0.2,0.6,0.1c0.5-0.5,0.6-1.3,0.7-2
				c0.1-0.3,0.1-0.6,0.3-0.9c0,0,0.1,0,0.1,0c0,0.1-0.1-0.1-0.1-0.1c0,0.1,0,0.1,0,0.2c0.1,1.2-0.5,2.2-0.6,3.4
				c0,0.2,0.2,0.4,0.5,0.3c1.1-0.4,1.4-1.5,2-2.3c-0.1,0-0.3,0-0.4,0.1c0.3,0.2,0.6,0.4,0.6,0.8c0,0.3-0.2,0.5-0.4,0.7
				c-0.4,0.5-1,0.9-1.5,1.3c-0.6,0.5-0.9,1.3-1,2c-0.1,0.9,0.3,1.8,0.5,2.7c0.1-0.1,0.2-0.3,0.3-0.4c-1.1,0.2-1-1.6-1-2.3
				c0-0.5-0.7-0.5-0.7,0c0,1.3,0.1,3.4,2,3c0.2,0,0.3-0.3,0.3-0.4c-0.2-1-0.7-2-0.4-3c0.3-0.8,0.9-1.2,1.5-1.7
				c0.5-0.4,1.1-0.9,1.2-1.6c0.2-0.8-0.3-1.3-0.9-1.7c-0.1-0.1-0.3-0.1-0.4,0.1c-0.3,0.4-0.5,0.8-0.8,1.2c-0.2,0.4-0.5,0.8-1,1
				c0.2,0.1,0.3,0.2,0.5,0.3c0-0.5,0.3-1.3,0.4-1.9c0.1-0.6,0.4-1.5,0-2c-0.4-0.7-1.2-0.2-1.4,0.3c-0.2,0.4-0.2,0.8-0.3,1.2
				c-0.1,0.4-0.1,0.9-0.4,1.2c0.2,0,0.4,0,0.6,0.1c-0.3-0.6,0.1-4-1.4-3.5c-0.9,0.3-0.8,1.5-0.8,2.2c0.1,0.5,0.1,1,0.2,1.4
				c0,0.2,0,0.3,0.1,0.5c0,0.3,0.2,0.6,0.1,0.9C99.8,122.8,100.5,123,100.7,122.6L100.7,122.6z"/>
		</g>
	</g>
	<g>
		<g>
			<path class="st11" d="M67.2,113.5c-3.1-0.4-6.3-0.6-9.4,0c-1.2,0.2-3.1,0.7-3.6,1.9c-0.6,1.6,1.8,1.7,2.7,1.5
				c-0.1-0.2-0.1-0.5-0.2-0.7c-0.6,0.2-1.4,0.7-1.4,1.5c0.1,0.9,1.1,0.9,1.7,0.7c0.5-0.1,0.3-0.8-0.2-0.7c-0.2,0.1-0.8,0.2-0.8-0.1
				c0-0.3,0.6-0.6,0.8-0.7c0.5-0.1,0.3-0.8-0.2-0.7c-0.4,0.1-1.8,0.2-1.8-0.4c-0.1-0.5,1-0.9,1.3-1.1c1.1-0.5,2.4-0.7,3.6-0.8
				c2.5-0.2,5-0.1,7.4,0.2C67.7,114.3,67.7,113.5,67.2,113.5L67.2,113.5z"/>
		</g>
	</g>
	<g>
		<g>
			<path class="st11" d="M81.7,113.8c2.9,0.4,5.7-1.6,8.5-0.5c-0.1-0.2-0.1-0.4-0.2-0.5c-0.3,0.6-0.7,1-1.3,1.1
				c0.1,0.2,0.1,0.5,0.2,0.7c0.8-0.2,2.2-0.3,2.6,0.6c0.5,0.9-1,1.3-1.6,1.5c-0.5,0.1-0.3,0.8,0.2,0.7c1-0.2,2.7-1.1,2.1-2.4
				c-0.6-1.3-2.3-1.3-3.5-1c-0.5,0.1-0.3,0.8,0.2,0.7c0.8-0.2,1.4-0.7,1.7-1.4c0.1-0.2,0-0.4-0.2-0.5c-1.4-0.5-2.9-0.4-4.3-0.1
				c-1.4,0.3-2.8,0.8-4.2,0.6C81.4,113.1,81.2,113.7,81.7,113.8L81.7,113.8z"/>
		</g>
	</g>
	<g>
		<g>
			<path class="st11" d="M64.5,113.1c-1.1-0.5-2.1-1.2-3-2c-0.8-0.7-1.9-1.8-1.6-3c0.6-2.3,3.8-0.3,4.8,0.6c0.3,0.2,0.7,0,0.6-0.4
				c-0.3-1,0-2.1,0.9-2.7c0.9-0.7,1.9-0.3,2.6,0.6c0.2,0.3,0.7,0.2,0.7-0.2c0-0.6,0.3-1.7,1.1-1.2c0.4,0.2,0.8-0.4,0.4-0.6
				c-1.4-0.8-2.1,0.6-2.2,1.8c0.2-0.1,0.5-0.1,0.7-0.2c-0.8-1.2-2.2-1.7-3.5-0.9c-1.2,0.8-1.7,2.3-1.3,3.6c0.2-0.1,0.4-0.2,0.6-0.4
				c-1.2-1-3.4-2.4-5-1.7c-0.8,0.4-1.3,1.4-1.1,2.3c0.2,1.1,1,2,1.8,2.7c1,0.9,2.1,1.6,3.2,2.2C64.6,114,65,113.4,64.5,113.1
				L64.5,113.1z"/>
		</g>
	</g>
	<g>
		<g>
			<path class="st11" d="M77.4,105.8c0.4-0.5,1.3-0.8,1.9-0.8c0.2,0,0.6,0,0.8,0.2c0.3,0.3,0,0.9-0.1,1.2c-0.1,0.3,0.3,0.6,0.5,0.4
				c0.7-0.5,1.6-0.8,2.4-0.9c0.3,0,0.8-0.1,1.1,0.1c0.4,0.2,0.3,0.7,0.2,1c-0.1,0.4,0.3,0.6,0.6,0.4c1-0.9,2.6-1.5,3.5-0.2
				c0.8,1,0.9,2.6,0.3,3.7c-0.4,0.8-1.1,1.3-1.9,1.6c-0.4,0.1-0.3,0.8,0.2,0.7c1.8-0.6,2.9-2.2,2.8-4.1c-0.1-1.5-0.9-3.2-2.5-3.4
				c-1.1-0.1-2.1,0.5-2.9,1.2c0.2,0.1,0.4,0.2,0.6,0.4c0.1-0.5,0.1-1.2-0.2-1.6c-0.3-0.4-0.9-0.5-1.4-0.5c-1.1,0-2.3,0.4-3.2,1.1
				c0.2,0.1,0.4,0.3,0.5,0.4c0.2-0.5,0.4-1.2,0.1-1.7c-0.2-0.4-0.7-0.6-1.2-0.6c-0.9,0-2.2,0.4-2.7,1.2
				C76.6,105.8,77.2,106.1,77.4,105.8L77.4,105.8z"/>
		</g>
	</g>
	<g>
		<g>
			<path class="st11" d="M59.2,130c5.3,1.9,10.4-0.6,15.5-1.6c2.9-0.6,5.4-0.2,8.2,0.5c2.4,0.7,4.8,1.4,7.3,0.6
				c0.4-0.1,0.3-0.8-0.2-0.7c-2.6,0.8-5.3-0.2-7.8-0.9c-2.3-0.6-4.5-0.8-6.9-0.4c-5.3,0.9-10.5,3.7-15.9,1.8
				C59,129.1,58.8,129.8,59.2,130L59.2,130z"/>
		</g>
	</g>
	<g>
		<g>
			<path class="st11" d="M56.4,118.4c0.7,0.5,1.7,0.5,2.5,0.4c1.2-0.1,2.3-0.5,3.4-0.9c1.9-0.7,4.1-1.8,5.3-3.5
				c0.3-0.4-0.4-0.7-0.6-0.4c-0.5,0.7-1.2,1.2-1.9,1.7c-0.9,0.6-1.9,1.1-2.9,1.5c-1,0.4-2,0.7-3,0.9c-0.8,0.1-1.6,0.1-2.3-0.3
				C56.4,117.5,56,118.2,56.4,118.4L56.4,118.4z"/>
		</g>
	</g>
	<g>
		<g>
			<path class="st11" d="M81.7,113.3c-0.3,0.2-0.7,0.4-0.8,0.8c-0.1,0.4,0.1,0.7,0.4,0.9c0.7,0.5,1.7,0.7,2.5,0.9
				c1.9,0.6,3.7,1.5,5.7,1.2c0.5-0.1,0.3-0.8-0.2-0.7c-1.5,0.2-3-0.4-4.4-0.9c-0.7-0.3-1.3-0.5-2-0.7c-0.3-0.1-0.7-0.2-0.9-0.4
				c-0.1-0.1-0.4-0.2-0.3-0.3c0-0.1,0.3-0.2,0.4-0.3C82.5,113.7,82.1,113,81.7,113.3L81.7,113.3z"/>
		</g>
	</g>
</g>
<g>
	<path class="st12" d="M95.8,64.4c0-2.3-1.8-4.1-4.1-4.1c-2.3,0-4.1,1.8-4.1,4.1c0,2.3,1.8,4.1,4.1,4.1C94,68.6,95.8,66.7,95.8,64.4
		z"/>
	<path class="st11" d="M91.7,63.1c-0.7,0-1.3,0.6-1.3,1.3c0,0.7,0.6,1.3,1.3,1.3c0.7,0,1.3-0.6,1.3-1.3
		C93.1,63.7,92.5,63.1,91.7,63.1z M92.3,65.3c-0.2,0-0.4-0.2-0.4-0.4c0-0.2,0.2-0.4,0.4-0.4c0.2,0,0.4,0.2,0.4,0.4
		C92.6,65.1,92.5,65.3,92.3,65.3z"/>
	<path class="st12" d="M104.7,64.4c0-2.3-1.8-4.1-4.1-4.1c-2.3,0-4.1,1.8-4.1,4.1c0,2.3,1.8,4.1,4.1,4.1
		C102.8,68.6,104.7,66.7,104.7,64.4z"/>
	<path class="st11" d="M100.5,63.1c-0.7,0-1.3,0.6-1.3,1.3c0,0.7,0.6,1.3,1.3,1.3c0.7,0,1.3-0.6,1.3-1.3
		C101.9,63.7,101.3,63.1,100.5,63.1z M101.1,65.3c-0.2,0-0.4-0.2-0.4-0.4c0-0.2,0.2-0.4,0.4-0.4c0.2,0,0.4,0.2,0.4,0.4
		C101.5,65.1,101.3,65.3,101.1,65.3z"/>
	<g>
		<g>
			<path class="st11" d="M89.5,75.3c0.2,0.4,1.3,0.2,1.7,0.2c1,0,1.9,0,2.9-0.1c2.6-0.1,5.3-0.8,7.6-2.1c1.1-0.6,1.4-1.5,0.8-2.6
				c-0.6-0.9-1.5-1.7-2.4-2.3c-1.9-1.3-4.4-2.3-6.4-0.8c-1.1,0.9-2,2.1-2.6,3.4c-0.7,1.3-1.2,2.6-1.5,4c-0.1,0.5,0.6,0.6,0.7,0.2
				c0.5-2.1,1.5-4.3,2.9-6c0.6-0.8,1.5-1.6,2.5-1.6c1-0.1,2.1,0.3,3,0.8c0.9,0.5,1.8,1.1,2.6,1.9c0.3,0.3,0.7,0.7,0.9,1.2
				c0.2,0.6-0.2,1-0.7,1.2c-2,1.1-4.5,1.9-6.8,2c-0.9,0-1.8,0.1-2.7,0.1c-0.4,0-0.8,0-1.2,0c-0.2,0-0.3,0-0.5,0
				c-0.3,0-0.1-0.1,0,0.1C90,74.5,89.3,74.9,89.5,75.3z"/>
		</g>
	</g>
	<g>
		<g>
			<path class="st11" d="M103.6,70.7c-0.9,3-1.6,6.2-2.2,9.3c-0.3,1.6-0.6,3.2-1,4.8c-0.3,1.6,0,3.2-0.8,4.7
				c-0.2,0.4,0.4,0.8,0.6,0.4c0.8-1.5,0.5-2.9,0.8-4.5c0.3-1.6,0.7-3.2,1-4.8c0.6-3.2,1.3-6.5,2.2-9.6
				C104.5,70.4,103.8,70.2,103.6,70.7L103.6,70.7z"/>
		</g>
	</g>
	<g>
		<g>
			<path class="st11" d="M89,61.4c0-3.4,3-4.7,6-4.8c3.1-0.1,6.7,0.7,9,3.1c2.3,2.5,1.6,5.7,0.5,8.6c-0.2,0.4,0.5,0.6,0.7,0.2
				c0.9-2.6,1.7-5.6,0.2-8.1c-1.1-1.8-2.9-3-4.9-3.7c-3-1-7-1.4-9.8,0.3c-1.6,1-2.4,2.6-2.4,4.5C88.3,61.9,89,61.9,89,61.4L89,61.4z
				"/>
		</g>
	</g>
	<g>
		<g>
			<path class="st11" d="M90.9,75.5c2.6,4.2,3.7,9.3,4.3,14.2c0.1,0.5,0.8,0.5,0.7,0c-0.6-5-1.7-10.2-4.4-14.6
				C91.3,74.8,90.7,75.1,90.9,75.5L90.9,75.5z"/>
		</g>
	</g>
	<g>
		<g>
			<path class="st11" d="M95.4,89.4c-0.7,0.3-1.7,0.7-2.1,1.4c-0.3,0.7,0,1.5,0.8,1.5c0.3,0,0.6-0.1,0.9-0.1
				c0.3,0.1,0.5,0.3,0.6,0.5c0.5,0.5,1,1.2,1.7,1.4c1,0.4,1.8-0.5,2.1-1.4c-0.2,0-0.4,0-0.6,0.1c1.1,0.9,3.4,0.8,4-0.7
				c0.3-0.7,0-1.7-0.7-2.1c-0.6-0.3-1.6-0.1-1.9-0.8c-0.2-0.4-0.8-0.1-0.6,0.4c0.3,0.6,0.8,0.8,1.4,0.9c0.7,0.1,1.2,0.2,1.2,1
				c0,1.3-2.1,1.4-2.9,0.8c-0.2-0.1-0.5-0.2-0.6,0.1c-0.2,0.4-0.4,1-0.9,1.1c-0.3,0.1-0.6-0.2-0.8-0.3c-0.6-0.5-1-1.1-1.6-1.5
				c-0.3-0.2-0.5-0.2-0.8-0.2c-0.2,0-0.6,0.2-0.8,0c-0.1-0.1-0.1-0.3,0-0.4c0.1-0.2,0.3-0.4,0.4-0.5c0.4-0.3,0.8-0.5,1.2-0.6
				C96,89.9,95.8,89.2,95.4,89.4L95.4,89.4z"/>
		</g>
	</g>
	<g>
		<g>
			<path class="st11" d="M95.5,56c0-0.4-0.2-0.8-0.5-1.1c-0.3-0.4-0.6-0.9-0.9-1.3c-0.3-0.4-0.6-0.9-0.8-1.3
				c-0.1-0.2-0.2-0.4-0.2-0.6c0-0.1,0-0.3,0-0.4c0-0.1,0.1-0.2,0.3-0.3c0.2-0.1,0.4-0.2,0.6-0.2c0.3,0,0.6,0.1,0.8,0.3
				c0.5,0.6,0.6,1.6,0.7,2.4c0.1,0.9,0.1,1.8-0.2,2.6c-0.1,0.4,0.6,0.6,0.7,0.2c0.2-0.8,0.2-1.8,0.2-2.6c-0.1-1-0.2-2.1-0.8-2.9
				c-0.6-0.8-1.7-0.9-2.5-0.4c-0.9,0.7-0.4,1.9,0.1,2.6c0.3,0.6,0.8,1.1,1.1,1.6c0.2,0.2,0.3,0.5,0.5,0.7c0.1,0.1,0.1,0.2,0.1,0.3
				c0,0,0,0.1,0,0.1c0,0,0,0.2,0,0.1C94.9,56.5,95.6,56.5,95.5,56L95.5,56z"/>
		</g>
	</g>
	<g>
		<g>
			<path class="st11" d="M96.4,56.3c1.7-1.2,1.5-3.7,1-5.5c-0.3-1.1-0.8-2-1.2-3c-0.6-1.2-1.3-2.6-0.8-3.9c0.5-1.2,1.6-1.4,2.7-0.7
				c0.9,0.5,1.5,1.4,1.9,2.3c0.9,1.7,1.1,3.8,0.7,5.7c-0.5,2.2-1.9,4-4.1,4.6c-0.5,0.1-0.3,0.8,0.2,0.7c4.4-1.1,5.6-6.4,4.2-10.2
				c-0.6-1.8-2.1-4.1-4.2-4.1c-1.2,0-2,0.9-2.2,2c-0.3,1.4,0.3,2.8,0.9,4c0.6,1.3,1.2,2.4,1.4,3.8c0.2,1.3,0.3,3-0.8,3.9
				C95.7,56,96.1,56.6,96.4,56.3L96.4,56.3z"/>
		</g>
	</g>
	<g>
		<g>
			<path class="st11" d="M95,75.1c-0.3,0.3-0.5,0.7-0.6,1.1c-0.1,0.4-0.1,0.8,0,1.1c0.1,0.2,0.2,0.4,0.4,0.5c0.2,0.1,0.4,0,0.6-0.1
				c0.2-0.1,0.5-0.3,0.6-0.5c0.2-0.3,0.3-0.6,0.3-0.9c0-0.6-0.2-1.1-0.4-1.6c-0.1-0.2-0.3-0.2-0.5-0.1c-0.2,0.1-0.2,0.3-0.1,0.5
				c0,0.1,0.1,0.1,0.1,0.2c0,0,0-0.1,0,0c0,0,0,0,0,0.1c0,0,0,0.1,0.1,0.1c0,0.1,0.1,0.2,0.1,0.3c0,0.1,0,0.1,0,0.2c0,0,0,0.1,0,0
				c0-0.1,0,0,0,0.1c0,0.1,0,0.1,0,0.2c0,0,0,0.1,0,0.1c0,0,0,0,0,0c0,0,0,0,0,0c0,0,0,0.1,0,0.2c0,0,0,0,0,0.1c0,0.1,0-0.1,0,0
				c0,0.1-0.1,0.1-0.1,0.1c0-0.1,0,0,0,0c0,0,0,0-0.1,0.1c0,0-0.1,0.1-0.1,0.1c0,0-0.1,0.1,0,0c0,0,0,0,0,0c0,0-0.1,0.1-0.1,0.1
				c0,0,0,0-0.1,0c-0.1,0,0.1,0,0,0c0,0-0.1,0-0.1,0c0,0,0.1,0,0,0c0,0,0,0,0,0c-0.1,0,0.1,0,0,0c0,0,0,0,0,0c0,0,0.1,0,0,0
				c0,0-0.1,0,0,0c0.1,0.1,0-0.1,0,0c0,0.1,0,0,0,0c0,0,0,0.1,0,0c0,0,0,0,0,0c0,0,0-0.1,0-0.1c0-0.1,0,0,0,0c0,0,0,0,0,0
				c0,0,0-0.1,0-0.1c0-0.1,0-0.2,0-0.2c0,0,0-0.1,0,0c0,0.1,0,0,0,0c0,0,0-0.1,0-0.1c0-0.1,0-0.2,0.1-0.3c0,0,0-0.1,0.1-0.1
				c0,0,0,0,0-0.1c0-0.1,0,0.1,0,0c0-0.1,0.1-0.2,0.1-0.2c0,0,0-0.1,0.1-0.1c0,0,0,0,0,0c0,0,0,0,0,0c0,0,0,0,0-0.1
				c0.1-0.1,0.2-0.4,0-0.5C95.4,75,95.1,74.9,95,75.1L95,75.1z"/>
		</g>
	</g>
	<g>
		<g>
			<path class="st11" d="M95.8,76.3c0,1,0.2,2,0.4,3c0.3,1,0.7,2.2,1.5,2.8c0.9,0.7,2,0.1,2.7-0.6c1-1.2,1.1-2.8,0.4-4.1
				c-0.7-1.5-2.2-2.7-3.8-2.9c-0.5-0.1-0.5,0.7,0,0.7c2.3,0.3,4.6,3.5,3.1,5.6c-0.3,0.4-0.7,0.8-1.2,0.9c-0.3,0.1-0.5,0-0.7-0.2
				c-0.7-0.5-1-1.6-1.2-2.4c-0.2-0.9-0.4-1.9-0.4-2.8C96.5,75.9,95.8,75.9,95.8,76.3L95.8,76.3z"/>
		</g>
	</g>
	<g>
		<g>
			<path class="st11" d="M93.7,92c-0.3,1.8-1.5,3.3-2.4,4.8c-0.8,1.4-1.5,2.9-1.5,4.6c0,2.6,1.9,4.5,4.2,5.5c2.6,1,5.7,1,8.5,0.6
				c1.3-0.2,2.7-0.5,3.7-1.4c1.1-1,1.5-2.5,1.6-3.9c0.1-1.9-0.4-3.6-1.5-5.1c-1.2-1.6-2.7-3-3.7-4.7c-0.2-0.4-0.9,0-0.6,0.4
				c1.5,2.6,4.4,4.5,5,7.7c0.2,1.5,0.2,3.2-0.7,4.5c-0.8,1.2-2.2,1.6-3.5,1.8c-1.3,0.2-2.6,0.2-3.9,0.2c-1.2,0-2.5-0.1-3.7-0.4
				c-2.3-0.7-4.6-2.3-4.6-5c-0.1-3.6,3.2-5.9,3.8-9.3C94.5,91.8,93.8,91.6,93.7,92L93.7,92z"/>
		</g>
	</g>
	<g>
		<g>
			<path class="st11" d="M93.3,92.3c-0.4,1.2-1.4,2.1-2.4,3c-0.8,0.7-1.8,1.5-2.4,2.5c-0.4,0.6-0.5,1.4-0.6,2.1
				c-0.1,0.7-0.1,1.5,0.2,2.1c0.5,0.8,1.4,0.6,2.1,0.2c0.4-0.2,0-0.9-0.4-0.6c-0.5,0.3-1,0.5-1.2-0.2c-0.2-0.6-0.1-1.3,0-1.9
				c0.1-0.6,0.3-1.2,0.7-1.7c0.7-0.9,1.6-1.6,2.4-2.3c0.9-0.8,1.8-1.7,2.2-2.9C94.2,92.1,93.5,91.9,93.3,92.3L93.3,92.3z"/>
		</g>
	</g>
	<g>
		<g>
			<path class="st11" d="M102.3,92.3c1.3,2,3.8,2.5,5.5,3.9c0.8,0.7,1.7,1.8,1.7,3c0,1.1-1.2,1.7-2,2.2c-0.4,0.2,0,0.9,0.4,0.6
				c1-0.5,2.1-1.2,2.3-2.4c0.3-1.1-0.4-2.4-1.1-3.2c-0.8-1-2-1.6-3.1-2.2c-1.1-0.6-2.3-1.2-3.1-2.3
				C102.7,91.5,102.1,91.9,102.3,92.3L102.3,92.3z"/>
		</g>
	</g>
	<g>
		<g>
			<path class="st11" d="M89.9,96.3c-0.6-0.7-1.4-1.4-2-2.1c-0.9-0.9-1.8-1.9-2.5-3c-0.4-0.7-0.8-1.6,0.1-2.1
				c1.4-0.7,2.7,0.3,3.6,1.4c1.1,1.3,1.9,3,2.4,4.6c0.1,0.4,0.8,0.3,0.7-0.2c-0.5-1.6-1.2-3.2-2.3-4.6c-1-1.3-2.4-2.5-4.1-2.1
				c-0.5,0.1-1.1,0.4-1.4,0.9c-0.2,0.4-0.2,1-0.1,1.5c0.4,1.3,1.4,2.4,2.3,3.3c0.9,1,1.9,1.8,2.7,2.8C89.7,97.2,90.2,96.6,89.9,96.3
				L89.9,96.3z"/>
		</g>
	</g>
	<g>
		<g>
			<path class="st11" d="M88.4,89c-0.5-1.5-1.3-3.3-0.5-4.8c0.8-1.3,2.4-2,3.9-2c0.7,0,1.5,0.2,2,0.8c0.3,0.4,0.9,0,0.6-0.4
				c-1.1-1.4-3.1-1.4-4.6-0.8c-1.8,0.6-3.2,2.2-3,4.1c0.1,1.1,0.5,2.2,0.8,3.3C87.9,89.6,88.6,89.4,88.4,89L88.4,89z"/>
		</g>
	</g>
	<g>
		<g>
			<path class="st11" d="M101.3,83.3c0.7-0.3,1.4-0.8,2.1-1.1c0.9-0.4,2-0.5,2.9,0c1.4,0.7,1.9,2.6,2,4.1c0,1.4-0.4,2.9-1,4.1
				c-0.5,1.1-1.3,2.6-2.7,2.8c-0.5,0.1-0.3,0.8,0.2,0.7c1.1-0.2,2-1.1,2.5-2.1c0.7-1.2,1.2-2.5,1.4-3.8c0.5-2.4-0.1-5.8-2.7-6.6
				c-0.9-0.3-1.8-0.2-2.7,0.1c-0.8,0.3-1.5,0.9-2.3,1.2C100.7,82.8,100.8,83.5,101.3,83.3L101.3,83.3z"/>
		</g>
	</g>
	<g>
		<g>
			<path class="st11" d="M108.1,90.2c0.7-0.4,1.6-0.7,2.5-0.5c0.6,0.1,1,0.6,1.2,1.1c0.5,1.2,0.1,2.8-0.8,3.8
				c-0.6,0.7-1.5,1.1-2.5,1.2c-0.5,0-0.5,0.8,0,0.7c2-0.2,3.6-1.5,4.1-3.4c0.4-1.5,0-3.4-1.6-4c-1.1-0.4-2.3,0-3.2,0.5
				C107.3,89.7,107.7,90.4,108.1,90.2L108.1,90.2z"/>
		</g>
	</g>
	<g>
		<g>
			<path class="st11" d="M110.7,95.7c0.1,0,0.2,0,0.3,0.1c0,0,0.1,0,0.1,0c0,0,0,0,0.1,0c0,0,0,0,0,0c0.1,0,0.1,0.1,0.2,0.1
				c0,0,0,0,0,0c0,0,0.1,0,0.1,0.1c0,0,0,0,0.1,0.1c-0.1-0.1,0,0,0,0c0,0,0,0.1,0,0.1c0,0.1,0,0,0,0c0,0.1,0,0.1,0,0.2c0,0,0,0,0,0
				c0,0,0,0,0,0c0,0,0,0.1,0,0.1c0,0,0,0.1,0,0.1c0,0,0,0,0,0c0,0,0-0.1,0,0c0,0.1,0,0.1,0,0.2c0,0,0,0.1,0,0.1c0,0.1,0-0.1,0,0
				c0,0.1-0.1,0.1-0.1,0.2c0,0,0,0.1-0.1,0.1c0,0-0.1,0.1,0,0c0,0.1-0.1,0.1-0.1,0.2c-0.1,0.1-0.1,0.1-0.2,0.1c0.1-0.1,0,0,0,0
				c0,0-0.1,0-0.1,0.1c0,0-0.1,0-0.1,0.1c0,0,0,0-0.1,0c0,0-0.1,0,0,0c0,0,0,0,0,0c0,0-0.1,0-0.1,0c0,0-0.1,0-0.1,0c0,0-0.1,0-0.1,0
				c0,0,0,0-0.1,0c0.1,0,0,0,0,0c-0.1,0-0.2,0-0.3,0c-0.2,0-0.4,0.2-0.4,0.4c0,0.2,0.2,0.4,0.4,0.4c0.8,0,1.6-0.4,2.1-1
				c0.4-0.6,0.5-1.4,0.1-1.9c-0.3-0.4-0.7-0.5-1.1-0.6c-0.2,0-0.4,0-0.4,0.3C110.4,95.4,110.5,95.7,110.7,95.7L110.7,95.7z"/>
		</g>
	</g>
	<g>
		<g>
			<path class="st11" d="M86.4,93.1c-1.3,0.5-2.1,1.7-2,3c0.1,1.2,0.7,2.5,1.9,3.1c0.7,0.4,1.5,0.4,2.2,0.2c0.4-0.1,0.3-0.8-0.2-0.7
				c-1,0.3-2-0.1-2.6-1c-0.5-0.8-0.8-1.9-0.4-2.8c0.2-0.6,0.7-0.9,1.3-1.1C87,93.7,86.8,93,86.4,93.1L86.4,93.1z"/>
		</g>
	</g>
	<g>
		<g>
			<path class="st11" d="M97.2,107.7c0.4,0.9,0.8,1.7,0.9,2.7c0,0.2,0.3,0.3,0.4,0.3c0.2-0.1,0.3-0.3,0.3-0.4c-0.2-1-0.6-1.9-1-2.8
				c-0.1-0.2-0.3-0.2-0.5-0.1C97.2,107.3,97.1,107.5,97.2,107.7L97.2,107.7z"/>
		</g>
	</g>
	<g>
		<g>
			<path class="st11" d="M99,107.7c-0.2,0.9-0.2,1.8-0.3,2.7c0,0.2,0.2,0.4,0.4,0.4c0.2,0,0.3-0.2,0.4-0.4c0.1-0.8,0.1-1.7,0.3-2.5
				c0-0.2-0.1-0.4-0.3-0.4C99.2,107.4,99,107.5,99,107.7L99,107.7z"/>
		</g>
	</g>
	<g>
		<g>
			<path class="st11" d="M100.8,107.1c-0.6,1.2-1.2,2.5-1.2,3.8c0,0.5,0.7,0.5,0.7,0c0-1.2,0.6-2.4,1.1-3.5
				C101.6,107.1,101,106.7,100.8,107.1L100.8,107.1z"/>
		</g>
	</g>
	<g>
		<g>
			<path class="st11" d="M98.2,110.9c0.1,0,0.1,0,0.2,0.1c0,0,0,0,0.1,0c0.1,0,0.2,0,0.3,0c0.1,0,0.2-0.1,0.2-0.1
				c0.1-0.1,0.1-0.1,0.1-0.2c0,0,0-0.1,0-0.1c0,0,0-0.1,0-0.1c0,0,0-0.1-0.1-0.1c0,0-0.1-0.1-0.1-0.1c-0.1,0-0.2-0.1-0.3,0
				c-0.1,0-0.2,0.1-0.2,0.2c0,0,0,0.1-0.1,0.1c0,0,0,0,0.1-0.1c0,0,0,0,0,0c0,0,0,0,0.1-0.1c0,0,0,0,0,0c0,0,0.1,0,0.1,0
				c0,0,0,0,0,0c0,0,0.1,0,0.1,0c0,0,0,0-0.1,0c0,0,0.1,0,0.1,0c0,0-0.1,0-0.1,0c0,0,0.1,0,0.1,0c0,0,0,0-0.1,0c0,0-0.1,0-0.1,0
				c0,0-0.1,0-0.1,0c0,0-0.1,0-0.1,0.1c0,0-0.1,0.1-0.1,0.1c0,0.1-0.1,0.2,0,0.3C98.1,110.7,98.2,110.8,98.2,110.9L98.2,110.9z"/>
		</g>
	</g>
	<g>
		<g>
			<path class="st11" d="M98.6,110.9c0.1,0.1,0.2,0.3,0.3,0.4c0.1,0.1,0.1,0.1,0.2,0.2c0.1,0.1,0.2,0.1,0.3,0.1
				c0.1,0,0.3-0.1,0.4-0.2c0.1-0.1,0.1-0.1,0.2-0.2c0.1-0.1,0.1-0.2,0.2-0.3c0-0.1,0.1-0.2,0-0.3c0-0.1-0.1-0.2-0.2-0.2
				c-0.1,0-0.2-0.1-0.3,0c-0.1,0-0.2,0.1-0.2,0.2c-0.1,0.1-0.1,0.2-0.2,0.3c0,0,0,0,0.1-0.1c0,0-0.1,0.1-0.1,0.1c0,0,0,0,0.1-0.1
				c0,0-0.1,0-0.1,0.1c0.1,0,0.2,0,0.4,0c-0.1,0-0.1-0.1-0.2-0.1c0,0,0,0,0.1,0.1c-0.1-0.1-0.2-0.1-0.2-0.2c0,0,0,0,0.1,0.1
				c0-0.1-0.1-0.1-0.1-0.2c0-0.1-0.1-0.1-0.2-0.2c-0.1,0-0.2,0-0.3,0C98.6,110.5,98.5,110.8,98.6,110.9L98.6,110.9z"/>
		</g>
	</g>
	<g>
		<g>
			<path class="st11" d="M98.6,111.2c0,0.6-0.1,1.2-0.1,1.8c0,0.6,0,1.3,0.3,1.8c0.1,0.2,0.3,0.2,0.5,0.1c0.6-0.3,0.9-1,0.9-1.6
				c0.1-0.6,0-1.3-0.2-1.9c-0.1-0.4-0.8-0.3-0.7,0.2c0.1,0.4,0.3,0.8,0.5,1.2c0.2,0.4,0.5,0.9,0.9,1.2c0.4,0.3,0.9,0.3,1.2-0.2
				c0.3-0.6,0.2-1.2-0.2-1.8c-0.4-0.6-1.1-1.1-1.7-1.5c-0.4-0.2-0.8,0.4-0.4,0.6c0.5,0.3,0.9,0.6,1.2,1c0.2,0.2,0.3,0.4,0.4,0.6
				c0.1,0.2,0.1,0.3,0,0.6c0,0,0,0,0,0.1c0-0.1,0,0,0,0c0,0-0.1,0.1,0,0.1c0-0.1,0,0,0,0c0,0,0.1,0,0,0c0,0,0,0,0,0c0,0-0.1,0,0,0
				c-0.1,0,0,0,0,0c0,0-0.1,0,0,0c0,0-0.1,0-0.1-0.1c0,0-0.1,0,0,0c0,0,0,0,0,0c-0.3-0.3-0.5-0.5-0.7-0.9c-0.1-0.2-0.2-0.4-0.3-0.6
				c0,0,0-0.1-0.1-0.1c0,0.1,0,0,0-0.1c0-0.1,0-0.1-0.1-0.2c-0.2,0.1-0.5,0.1-0.7,0.2c0.2,0.5,0.2,1,0.2,1.6c0,0.3,0,0.5-0.1,0.7
				c-0.1,0.2-0.2,0.3-0.4,0.4c0.2,0,0.3,0.1,0.5,0.1c-0.4-1-0.1-2.2,0-3.3C99.3,110.8,98.6,110.8,98.6,111.2L98.6,111.2z"/>
		</g>
	</g>
	<g>
		<g>
			<path class="st11" d="M98.2,110.6c-0.6,1-1.8,2-1.4,3.3c0,0.2,0.3,0.3,0.4,0.3c0.9-0.3,1.4-1.2,1.8-2c0.1-0.2,0.1-0.4-0.1-0.5
				c-0.2-0.1-0.4-0.1-0.5,0.1c-0.2,0.4-0.3,0.7-0.6,1c-0.2,0.3-0.5,0.6-0.8,0.7c0.1,0.1,0.3,0.2,0.4,0.3c-0.1-0.2,0-0.4,0-0.7
				c0.1-0.2,0.2-0.5,0.4-0.7c0.3-0.5,0.7-0.9,0.9-1.4C99.1,110.5,98.4,110.2,98.2,110.6L98.2,110.6z"/>
		</g>
	</g>
	<g>
		<g>
			<path class="st11" d="M98.1,109.7c-0.3,0.1-0.7,0.1-1,0.2c-0.4,0.1-0.9,0.2-1.3,0.4c-0.2,0.1-0.3,0.3-0.4,0.5
				c-0.1,0.3,0.1,0.5,0.3,0.7c0.4,0.3,1,0.2,1.4,0.1c0.5-0.1,0.9-0.2,1.4-0.4c0.2-0.1,0.3-0.2,0.3-0.4c0-0.2-0.3-0.3-0.4-0.3
				c-0.3,0.1-0.7,0.2-1.1,0.3c-0.1,0-0.2,0-0.3,0.1c0,0,0,0-0.1,0c-0.1,0,0.1,0,0,0c-0.1,0-0.1,0-0.2,0c-0.1,0-0.2,0-0.3,0
				c0,0-0.2,0-0.1,0c0,0-0.1,0-0.1,0c0,0,0,0-0.1,0c-0.1,0,0,0,0,0c0,0-0.1-0.1,0,0c0,0,0,0,0,0c0.1,0.1,0,0.1,0,0c0,0,0,0,0,0
				c0,0,0,0.1,0,0.1c0,0,0,0.1,0,0c0,0.1,0,0.1,0,0c0,0-0.1,0.1,0,0c0,0,0-0.1,0.1-0.1c0,0-0.1,0.1,0,0c0,0,0,0,0,0
				c0,0,0.1,0,0.1-0.1c0,0,0.1,0,0,0c0,0,0,0,0,0c0.1,0,0.2-0.1,0.3-0.1c0.2-0.1,0.4-0.1,0.6-0.1c0.4-0.1,0.7-0.1,1.1-0.2
				c0.2,0,0.3-0.3,0.3-0.4C98.5,109.8,98.3,109.7,98.1,109.7L98.1,109.7z"/>
		</g>
	</g>
	<g>
		<g>
			<path class="st11" d="M87.4,99c-0.8,0-0.9-1.3-0.9-1.9c0.1-1,0.7-1.7,1.8-1.6c0.3,0,0.4-0.3,0.3-0.5c-0.7-1.1-0.8-4.6,1.3-3.7
				c0.2,0.1,0.5-0.1,0.5-0.3c0-1.7,3.3-6,4.6-3.3c0.2,0.4,0.8,0.1,0.6-0.4c-1.7-3.5-5.9,1.3-5.9,3.6c0.2-0.1,0.3-0.2,0.5-0.3
				c-2.8-1.2-3.1,3.1-2.1,4.8c0.1-0.2,0.2-0.4,0.3-0.5c-1.5-0.1-2.4,1-2.5,2.4c-0.1,1,0.4,2.5,1.6,2.6C87.8,99.8,87.8,99.1,87.4,99
				L87.4,99z"/>
		</g>
	</g>
	<g>
		<g>
			<path class="st11" d="M101,86.9c2.8-2.3,5.9,1.4,6.1,4.2c0,0.5,0.8,0.5,0.7,0c-0.1-1.8-1.1-3.6-2.4-4.7c-0.7-0.5-1.4-0.9-2.3-1
				c-1-0.1-1.8,0.3-2.6,0.9C100.2,86.7,100.7,87.2,101,86.9L101,86.9z"/>
		</g>
	</g>
	<g>
		<g>
			<path class="st11" d="M107.4,91.5c0.1,0,0.2,0,0.2,0c0,0,0.1,0,0.1,0c0,0,0.1,0,0.1,0c0.1,0,0.2,0,0.3,0.1c0,0,0.1,0,0.1,0
				c0.1,0,0.1,0,0.1,0c0.4,0.2,0.8,0.4,1.1,0.7c0.3,0.3,0.7,0.6,0.9,0.9c0.1,0.2,0.2,0.3,0.3,0.5c0.1,0.2,0.1,0.2,0.2,0.4
				c0,0,0,0,0,0c0,0,0-0.1,0,0c0,0,0,0.1,0,0.1c0,0,0,0,0,0c0,0,0-0.1,0,0c0,0,0,0.1,0,0.1c0,0,0,0.1,0,0c0,0,0,0,0,0
				c0,0-0.1,0.1-0.1,0.1c0,0-0.1,0.1-0.2,0.1c-0.4,0.3,0,0.9,0.4,0.6c0.4-0.3,0.6-0.6,0.6-1.1c0-0.4-0.2-0.9-0.4-1.2
				c-0.6-0.9-1.4-1.6-2.3-2c-0.4-0.2-0.9-0.4-1.4-0.4c-0.2,0-0.4,0.2-0.4,0.4C107,91.3,107.2,91.5,107.4,91.5L107.4,91.5z"/>
		</g>
	</g>
	<g>
		<g>
			<path class="st11" d="M109.8,96.2c0.1,0,0.1,0.1,0.1,0.1c0,0,0.1,0.1,0,0c0,0,0,0,0,0c0,0,0.1,0.1,0.1,0.1c0,0,0,0,0,0
				c0,0,0.1,0.1,0,0c0.1,0.1,0.1,0.2,0.2,0.2c0,0,0,0.1,0,0c0,0,0,0,0,0.1c0,0,0,0.1,0,0.1c0,0,0,0.1,0,0.1c0-0.1,0,0,0,0
				c0,0,0,0.1,0,0.1c0,0.1,0,0.1,0,0.2c0,0,0,0.1,0,0.1c0,0.1,0-0.1,0,0c0,0.1,0,0.2-0.1,0.3c0,0,0,0,0,0.1c0,0.1,0,0,0,0
				c0,0.1-0.1,0.1-0.1,0.2c-0.1,0.2,0,0.4,0.1,0.5c0.2,0.1,0.4,0,0.5-0.1c0.3-0.5,0.4-1.1,0.3-1.6c-0.1-0.5-0.5-1-1-1.3
				c-0.2-0.1-0.4,0-0.5,0.1C109.5,95.8,109.6,96.1,109.8,96.2L109.8,96.2z"/>
		</g>
	</g>
	<g>
		<g>
			<path class="st11" d="M88.3,100.3c0.3,0.3,0.6,0.6,1.1,0.7c0.5,0.1,0.9-0.1,1.2-0.4c0.1-0.1,0.1-0.2,0-0.3
				c-0.1-0.1-0.2-0.1-0.3,0c-0.3,0.2-0.6,0.4-0.9,0.3c-0.4-0.1-0.6-0.3-0.9-0.6c-0.1-0.1-0.2-0.1-0.3,0
				C88.2,100.1,88.2,100.2,88.3,100.3L88.3,100.3z"/>
		</g>
	</g>
	<g>
		<g>
			<path class="st11" d="M107.1,100c1.2,0.1,2.5-0.7,3-1.9c0.1-0.2-0.2-0.4-0.3-0.2c-0.4,1-1.5,1.8-2.7,1.7
				C106.8,99.6,106.8,100,107.1,100L107.1,100z"/>
		</g>
	</g>
	<g>
		<g>
			<path class="st11" d="M90.8,103.8c1.8-1.8,4.7-1.6,5.9,0.7c0.1,0.1,0.3,0.1,0.3,0c0.9-1.8,3.6-2.1,4.4,0c0.1,0.1,0.2,0.2,0.3,0
				c0.7-1.2,2.6-2.4,3.9-1.3c0.1,0.1,0.2,0.1,0.3,0c0.3-0.5,0.9-0.6,1.3-1c0.2-0.2-0.1-0.4-0.3-0.3c-0.5,0.4-1,0.5-1.4,1.1
				c0.1,0,0.2,0,0.3,0c-1.4-1.3-3.6,0-4.4,1.4c0.1,0,0.2,0,0.3,0c-0.9-2.3-4-2.2-5.1,0c0.1,0,0.2,0,0.3,0c-1.3-2.6-4.6-2.7-6.5-0.8
				C90.4,103.7,90.6,104,90.8,103.8L90.8,103.8z"/>
		</g>
	</g>
	<g>
		<g>
			<path class="st11" d="M89.9,75.5c0.7,0,1.3-0.2,2-0.4c1.1-0.3,2.2-0.6,3.2-0.9c1-0.4,2.1-0.7,3.1-1.2c0.6-0.3,1.4-0.7,1.6-1.3
				c0.3-0.7-0.6-1.2-1.1-1.4c-0.2-0.1-0.3,0.2-0.1,0.3c0.4,0.3,0.9,0.6,1.4,0.8c0.2,0.1,0.3-0.3,0.1-0.3c-0.5-0.2-0.9-0.4-1.3-0.7
				c0,0.1-0.1,0.2-0.1,0.3c0.4,0.2,1.2,0.5,0.8,1c-0.4,0.6-1.1,0.9-1.7,1.2c-1.8,0.9-3.8,1.5-5.7,1.9c-0.7,0.2-1.4,0.4-2,0.4
				C89.7,75.1,89.7,75.5,89.9,75.5L89.9,75.5z"/>
		</g>
	</g>
</g>
<g>
	<g>
		<path class="st11" d="M51.2,107.9c2.5,1.8,5.7,1.5,8.6,1.8c0.5,0,0.5-0.7,0-0.7c-2.8-0.3-5.9,0-8.2-1.7
			C51.2,107,50.8,107.6,51.2,107.9L51.2,107.9z"/>
	</g>
</g>
<g>
	<g>
		<path class="st11" d="M36.3,82.6c-0.2,0.5-0.5,0.9-0.6,1.4c-0.2,0.5-0.3,1-0.4,1.5c-0.2,1-0.2,2,0,2.9c0.2,0.8,0.7,1.6,1.4,2
			c0.7,0.4,1.6,0.5,2.4,0.4c0.5-0.1,0.5-0.8,0-0.7c-0.7,0.1-1.4,0.1-2-0.3c-0.7-0.4-1.1-1.1-1.2-1.8c-0.2-0.8-0.1-1.7,0.1-2.5
			c0.1-0.4,0.2-0.9,0.3-1.3c0.1-0.4,0.4-0.8,0.6-1.2C37.2,82.6,36.5,82.2,36.3,82.6L36.3,82.6z"/>
	</g>
</g>
<g>
	<g>
		<path class="st11" d="M104.2,70.7c0.1,0.1,0.2,0.3,0.3,0.4c0.1,0.2,0.2,0.4,0.3,0.6c0.2,0.4,0.3,0.7,0.5,1.1
			c0.3,0.8,0.4,1.6,0.2,2.5c-0.1,0.7-0.5,1.4-1.1,2c-0.3,0.3-0.6,0.5-1,0.7c-0.4,0.2-0.8,0.2-1.1,0.4c-0.4,0.2-0.1,0.8,0.4,0.6
			c0.4-0.2,0.9-0.3,1.3-0.5c0.4-0.2,0.8-0.5,1.1-0.9c0.6-0.7,1-1.5,1.1-2.3c0.1-0.9,0-1.9-0.3-2.8c-0.2-0.4-0.3-0.8-0.6-1.2
			c-0.2-0.4-0.4-0.8-0.8-1.1C104.2,69.8,103.8,70.4,104.2,70.7L104.2,70.7z"/>
	</g>
</g>
<g>
	<g>
		<path class="st11" d="M62.4,18.4c0.5-0.9,0.7-1.9,0.4-2.9c-0.2-0.9-0.7-1.6-1.4-2.2c-0.6-0.6-1.3-1-2.1-1.2
			c-0.6-0.2-1.4-0.2-1.9,0.1c-0.8,0.5-0.8,1.5-0.6,2.3c0,0.1,0.2,0.3,0.3,0.3c0.6-0.1,0.8-0.6,1.1-1c0.3-0.3-0.2-0.9-0.5-0.5
			c-0.1,0.1-0.3,0.3-0.4,0.5c-0.1,0.1-0.1,0.1-0.2,0.2c0,0-0.1,0-0.1,0.1c0,0-0.1,0,0,0c0.1,0.1,0.2,0.2,0.3,0.3
			c0-0.2-0.1-0.4-0.1-0.5c0-0.1,0-0.2,0-0.2c0,0,0-0.1,0-0.1c0,0,0-0.1,0,0c0,0,0,0,0,0c0-0.1,0-0.1,0-0.2c0,0,0-0.1,0,0
			c0,0,0-0.1,0-0.1c0,0,0,0,0-0.1c0-0.1,0,0,0,0c0,0,0.1-0.1,0.1-0.1c-0.1,0.1,0,0,0.1,0c0,0,0.1,0,0.1,0c0,0-0.1,0,0,0
			c0.1,0,0.1,0,0.2,0c0,0,0.1,0,0.1,0c0.1,0-0.1,0,0,0c0.1,0,0.3,0,0.4,0c0,0,0.1,0,0,0c0,0,0.1,0,0.1,0c0.1,0,0.2,0,0.2,0.1
			c1.3,0.3,2.6,1.4,3,2.7c0.3,0.9,0.2,1.7-0.3,2.6C61.6,18.4,62.2,18.8,62.4,18.4L62.4,18.4z"/>
	</g>
</g>
<g>
	<g>
		<path class="st11" d="M65.6,17.9c2.2-2.7,2.8-7.2,0.5-10.1c-0.5-0.7-1.5-1.6-2.5-1.4c-1.2,0.3-0.9,2-0.7,2.9
			c0,0.2,0.3,0.3,0.4,0.3c2.1-0.6,3.2-2.3,2.9-4.4c-0.1-0.5-0.8-0.5-0.7,0C65.8,7,65,8.3,63.2,8.9c0.1,0.1,0.3,0.2,0.4,0.3
			c-0.1-0.4-0.5-2,0.4-2c0.8,0.1,1.6,1.1,1.9,1.7c1.5,2.5,0.9,6.3-0.9,8.5C64.8,17.7,65.3,18.2,65.6,17.9L65.6,17.9z"/>
	</g>
</g>
<g>
	<g>
		<path class="st11" d="M60.2,109.9c0.9-0.9,2.5-0.7,3.5-0.1c0.6,0.3,1,1.5,1.8,1c0.7-0.4,1.1-1.3,1.7-1.8c0.8-0.7,2.2-1,3,0
			c0.2,0.2,0.6,0.1,0.6-0.2c0.1-0.4,0.2-0.6,0.6-0.8c0.4-0.2,0.1-0.8-0.4-0.6c-0.5,0.3-0.8,0.7-0.9,1.3c0.2-0.1,0.4-0.1,0.6-0.2
			c-0.8-1-2-1-3-0.5c-1,0.4-1.5,1.2-2.2,2c-0.1,0.1-0.1,0.2-0.2,0.2c-0.1,0.1,0.1,0.1-0.1,0c-0.2-0.1-0.3-0.4-0.5-0.6
			c-0.4-0.4-1-0.7-1.5-0.8c-1.2-0.3-2.5-0.3-3.4,0.6C59.4,109.7,59.9,110.2,60.2,109.9L60.2,109.9z"/>
	</g>
</g>
<g>
	<g>
		<path class="st11" d="M77.1,108.2c0.7-0.4,1.5-0.1,1.5,0.7c0,0.2,0.2,0.4,0.5,0.3c0.9-0.3,1.7-0.8,2.6-1.1c0.5-0.1,1-0.1,1.4,0.1
			c0.4,0.3,0.4,0.9,0.5,1.4c0,0.3,0.3,0.5,0.5,0.3c0.8-0.4,1.7-1,2.6-0.8c1.1,0.3,1.5,1.8,0.9,2.7c-0.2,0.4,0.4,0.8,0.6,0.4
			c0.7-1.2,0.4-2.9-0.9-3.6c-1.2-0.7-2.6,0-3.7,0.6c0.2,0.1,0.4,0.2,0.5,0.3c-0.1-0.5-0.1-1.1-0.4-1.6c-0.3-0.5-0.9-0.7-1.4-0.7
			c-1.3-0.1-2.4,0.8-3.6,1.2c0.2,0.1,0.3,0.2,0.5,0.3c-0.1-1.4-1.4-2.1-2.6-1.4C76.3,107.8,76.7,108.4,77.1,108.2L77.1,108.2z"/>
	</g>
</g>
<g>
	<g>
		<path class="st11" d="M69.1,113.1c-0.2-0.1-0.4-0.2-0.6-0.3c-0.2-0.2-0.3-0.4-0.5-0.7c-0.3-0.5-0.4-1-0.4-1.6c0,0.1,0-0.1,0-0.1
			c0-0.1,0-0.1,0.1-0.2c0-0.1,0,0.1,0,0c0,0,0-0.1,0-0.1c0,0,0-0.1,0.1-0.1c0-0.1,0,0,0,0c0.1-0.1,0.1-0.1,0.2-0.2
			c0.1,0,0.1,0,0.1-0.1c0.1,0,0.2-0.1,0.3-0.1c0.2,0,0.5,0.1,0.6,0.2c0.2,0.2,0.4,0.4,0.5,0.7c0.3,0.6,0.4,1.3,0.6,2
			c0.1,0.4,0.8,0.3,0.7-0.2c-0.4-1.2-0.7-3.4-2.4-3.4c-0.7,0-1.4,0.5-1.6,1.2c-0.2,0.7,0,1.4,0.3,2.1c0.3,0.7,0.9,1.4,1.6,1.6
			C69.4,113.9,69.6,113.2,69.1,113.1L69.1,113.1z"/>
	</g>
</g>
<g>
	<g>
		<path class="st11" d="M78.4,112.3c0.2-0.4,0.5-0.8,0.8-1.1c0.4-0.4,0.8-0.8,1.3-1c0.2-0.1,0.4-0.2,0.6-0.2c0.1,0,0.4,0,0.5,0.1
			c0.5,0.3,0.6,0.9,0.6,1.4c-0.1,0.7-0.5,1.5-1.2,1.8c-0.4,0.2,0,0.8,0.4,0.6c1.4-0.7,2.1-3.1,0.9-4.3c-1-1-2.5,0-3.3,0.7
			c-0.5,0.5-1,1-1.3,1.6c-0.1,0.2,0,0.4,0.1,0.5C78.1,112.5,78.3,112.5,78.4,112.3L78.4,112.3z"/>
	</g>
</g>
<g>
	<g>
		<path class="st11" d="M82.9,112.5C82.9,112.5,83,112.5,82.9,112.5C82.9,112.5,83,112.5,82.9,112.5c0.1-0.2,0.2-0.2,0.2-0.3
			c0.1-0.1,0.2-0.2,0.3-0.3c0.3-0.2,0.5-0.3,0.8-0.4c0,0,0.1,0,0.1,0c0,0,0.1,0,0,0c0.1,0,0.2,0,0.2,0c0,0,0.1,0,0.1,0
			c-0.1,0,0,0,0,0c0,0,0.1,0,0.1,0c0,0,0,0,0,0c0.1,0,0,0,0,0c0,0,0.1,0,0.1,0.1c0,0,0.1,0.1,0,0c0,0,0.1,0.1,0.1,0.1
			c0,0,0,0.1,0,0.1c0,0,0,0,0,0c0,0,0,0,0,0.1c0,0,0,0.1,0,0.1c0,0,0,0.1,0,0.1c0,0,0,0.1,0,0.1c0,0,0,0.1,0,0.1c0,0.1,0,0.2,0,0.2
			c0,0.1,0,0.1,0,0.2c0,0,0,0.1,0,0.1c0,0,0-0.1,0-0.1c0.1-0.1,0.2-0.2,0.3-0.3c0,0,0,0,0,0c0.1,0.1,0.3,0.2,0.4,0.3
			c0,0.1,0,0.1,0,0.1c0-0.5-0.7-0.5-0.7,0c0,0,0,0.1,0,0.1c0,0.2,0.3,0.3,0.4,0.3c0.4-0.1,0.3-0.6,0.3-0.9c0-0.4-0.1-0.8-0.5-1.1
			c-0.7-0.6-1.6-0.3-2.4,0.1c-0.4,0.2-0.7,0.5-1,0.9c-0.1,0.2,0,0.4,0.1,0.5C82.6,112.8,82.8,112.7,82.9,112.5L82.9,112.5z"/>
	</g>
</g>
<g>
	<g>
		<path class="st11" d="M67.4,111.5c-0.7-0.4-1.6-0.5-2.3-0.3c-0.7,0.2-1.3,0.8-1.2,1.6c0,0.4,0.3,0.8,0.7,1c0.2,0.1,0.4,0,0.5-0.1
			c0.1-0.2,0-0.4-0.1-0.5c0,0-0.1,0-0.1-0.1c0,0-0.1-0.1-0.1,0c0,0,0,0,0,0c0,0,0,0-0.1-0.1c0,0,0,0,0,0c0,0-0.1-0.1,0-0.1
			c0,0,0,0,0,0c0,0,0-0.1,0-0.1c0-0.1,0,0.1,0,0c0,0,0-0.1,0-0.1c0,0,0-0.1,0,0c0,0.1,0,0,0-0.1c0,0,0-0.1,0-0.1c0-0.1,0,0,0,0
			c0-0.1,0.1-0.1,0.1-0.2c0,0.1,0,0,0,0c0,0,0,0,0.1-0.1c0,0,0.1-0.1,0,0c0,0,0,0,0,0c0,0,0,0,0.1,0c0,0,0.1,0,0.1-0.1
			c0,0,0.1,0,0.1,0c0,0,0.1,0,0.1,0c0,0,0.1,0,0.1,0c0,0,0.1,0,0.1,0c0,0,0,0,0.1,0c0,0,0.1,0,0,0c0,0,0,0,0,0c0,0,0,0,0.1,0
			c0,0,0.1,0,0.1,0c0.1,0,0.1,0,0.2,0c0,0,0.1,0,0.1,0c0,0,0,0,0.1,0c0.1,0,0,0,0,0c0.2,0,0.3,0.1,0.5,0.1c0.1,0,0.2,0.1,0.2,0.1
			c-0.1,0,0,0,0.1,0c0,0,0.1,0,0.1,0.1c0.2,0.1,0.4,0,0.5-0.1C67.6,111.9,67.6,111.6,67.4,111.5L67.4,111.5z"/>
	</g>
</g>
<g>
	<g>
		<path class="st11" d="M70.7,110.6c0,0,0-0.1,0-0.1c0,0,0,0,0,0c0,0,0,0.1,0,0c0-0.1,0.1-0.1,0.1-0.2c0,0,0-0.1,0.1-0.1
			c0,0,0,0,0,0c0,0,0,0,0,0c0,0,0,0,0,0c0-0.1,0.1-0.1,0.1-0.2c0,0,0.1-0.1,0.1-0.1c0,0,0.1-0.1,0,0c0.1,0,0.1-0.1,0.2-0.1
			c0,0,0.1,0,0.1-0.1c0,0,0,0,0,0c0,0-0.1,0,0,0c0.1,0,0.1,0,0.2-0.1c0.2,0,0.3-0.3,0.3-0.4c-0.1-0.2-0.2-0.3-0.4-0.3
			c-0.4,0.1-0.7,0.3-0.9,0.5c-0.3,0.3-0.5,0.6-0.6,0.9c-0.1,0.2,0.1,0.4,0.3,0.4C70.5,110.9,70.7,110.8,70.7,110.6L70.7,110.6z"/>
	</g>
</g>
<g>
	<g>
		<path class="st11" d="M76.8,109.8C76.8,109.8,76.9,109.7,76.8,109.8c0.1,0,0.1,0,0.2,0c0.1,0,0.1,0,0.2,0c0,0,0.1,0,0.1,0
			c0,0,0,0,0,0c0,0,0,0,0.1,0c0,0,0.1,0,0.1,0c0,0,0.1,0,0.1,0c0,0-0.1,0,0,0c0,0,0.1,0.1,0.1,0.1c0,0,0,0,0,0c0,0,0,0,0.1,0.1
			c0,0,0.1,0.1,0.1,0.1c0,0,0.1,0.1,0.1,0.1c0,0,0,0,0.1,0.1c0,0,0,0,0,0c0,0,0,0,0,0c0,0,0.1,0.1,0.1,0.1c0,0,0.1,0.1,0.1,0.1
			c0.1,0.2,0.3,0.4,0.5,0.6c0.1,0.1,0.4,0.1,0.5,0c0.1-0.1,0.1-0.4,0-0.5c-0.1-0.1-0.2-0.2-0.3-0.3c0,0,0,0.1,0,0c0,0,0,0,0-0.1
			c0,0-0.1-0.1-0.1-0.1c-0.1-0.2-0.3-0.4-0.5-0.6c-0.2-0.2-0.4-0.3-0.7-0.4c-0.3-0.1-0.7-0.1-1,0c-0.2,0-0.3,0.3-0.3,0.4
			C76.4,109.7,76.6,109.8,76.8,109.8L76.8,109.8z"/>
	</g>
</g>
<g>
	<g>
		<path class="st11" d="M58.2,113.9c-0.3,0.2-0.5,0.4-0.6,0.8c-0.1,0.3,0,0.6,0.2,0.9c0.4,0.5,1,0.8,1.6,0.8
			c-0.1-0.2-0.1-0.5-0.2-0.7c-0.5,0.4-0.9,1.1-0.8,1.8c0.1,0.3,0.2,0.6,0.5,0.7c0.3,0.2,0.7,0.2,1.1,0.2c0.2,0,0.3-0.3,0.3-0.4
			c-0.1-0.2-0.3-0.3-0.4-0.3c-0.1,0-0.1,0-0.2,0c-0.1,0-0.1,0-0.1,0c-0.1,0-0.1,0-0.2-0.1c-0.1,0,0,0,0,0c0,0,0,0,0,0
			c-0.1,0,0,0,0-0.1c0,0,0,0,0-0.1c0,0,0,0,0,0c0,0,0-0.1,0-0.1c0-0.1,0,0.1,0,0c0,0,0,0,0-0.1c0,0,0-0.2,0-0.1c0,0,0-0.1,0-0.1
			c0,0,0,0,0-0.1c0-0.1,0,0,0,0c0.1-0.2,0.2-0.4,0.4-0.5c0.1-0.1,0.2-0.2,0.2-0.4c0-0.1-0.2-0.3-0.3-0.3c-0.4,0-0.7-0.1-1-0.4
			c-0.1-0.1-0.1-0.2-0.1-0.3c0-0.1,0,0.1,0-0.1c0,0,0,0,0-0.1c0-0.1,0.1-0.1,0.2-0.2c0.2-0.1,0.2-0.3,0.1-0.5
			C58.6,113.8,58.4,113.8,58.2,113.9L58.2,113.9z"/>
	</g>
</g>
<g>
	<g>
		<path class="st11" d="M86.7,113.5c0.1,0,0.2,0.1,0.3,0.2c0.1,0.1,0.2,0.2,0.2,0.3c0.1,0.3,0.1,0.5-0.1,0.6c-0.3,0.2,0,0.7,0.4,0.6
			c0.2-0.1,0.3-0.1,0.5,0c0.2,0.1,0.3,0.2,0.4,0.3c0.3,0.3,0.4,0.7,0.5,1.1c0,0.5,0.7,0.5,0.7,0c0-1.1-1.1-2.6-2.3-2.1
			c0.1,0.2,0.2,0.4,0.4,0.6c0.8-0.7,0.2-2-0.7-2.3C86.4,112.7,86.2,113.4,86.7,113.5L86.7,113.5z"/>
	</g>
</g>
<g>
	<g>
		<path class="st11" d="M34.5,73.2c-0.6-0.2-1.2-0.3-1.8-0.2c-0.5,0.1-1.1,0.4-1.3,0.9c-0.3,0.6-0.1,1.3,0.4,1.7
			c0.5,0.4,1.1,0.5,1.7,0.5c0.6,0,1.4,0,1.9-0.5c0.3-0.3-0.2-0.8-0.5-0.5c-0.1,0.1,0,0,0,0c0,0-0.1,0-0.1,0.1c-0.1,0,0.1,0,0,0
			c0,0,0,0-0.1,0c-0.1,0-0.1,0-0.2,0.1c-0.1,0-0.1,0-0.2,0c0,0-0.1,0-0.1,0c0.1,0,0,0,0,0c-0.1,0-0.3,0-0.4,0c-0.1,0-0.3,0-0.4,0
			c-0.2,0-0.2,0-0.4,0c-0.1,0-0.2-0.1-0.4-0.1c-0.1,0-0.1,0-0.2-0.1c0,0-0.1,0,0,0c0,0-0.1,0-0.1,0c0,0-0.1,0-0.1-0.1
			c0,0-0.1-0.1-0.1,0c0,0-0.1-0.1-0.1-0.1c0,0-0.1-0.1,0,0c0,0,0,0,0,0c0,0,0-0.1,0,0c0,0.1,0-0.1,0-0.1c0-0.1,0-0.1,0-0.2
			c0,0.1,0-0.1,0-0.1c0,0,0-0.1,0-0.1c0,0,0,0,0,0c0,0,0,0,0-0.1c0,0,0.1-0.2,0-0.1c0,0,0-0.1,0.1-0.1c0,0,0,0,0,0c-0.1,0.1,0,0,0,0
			c0,0,0,0,0,0c0,0,0.1-0.1,0,0c0.2-0.2,0.3-0.2,0.6-0.3c0.1,0,0.1,0,0.2,0c0,0,0.1,0,0,0c0,0,0.1,0,0.1,0c0.1,0,0.3,0,0.4,0
			c0.1,0,0.1,0,0.2,0c-0.1,0,0,0,0,0c0,0,0.1,0,0.1,0c0.1,0,0.1,0,0.2,0c0,0,0.2,0.1,0.1,0c0.2,0.1,0.4,0.1,0.5-0.1
			C34.7,73.5,34.7,73.3,34.5,73.2L34.5,73.2z"/>
	</g>
</g>
<g>
	<g>
		<path class="st11" d="M34.2,73.9c0.1,0.1,0.2,0.1,0.4,0.2c0,0,0.1,0,0.1,0.1c0.1,0-0.1,0,0,0c0,0,0,0,0,0c0.1,0.1,0.1,0.1,0.2,0.2
			c0,0,0,0,0,0c0,0,0.1,0.1,0,0c0,0,0,0.1,0.1,0.1c0,0,0,0.1,0.1,0.1c0,0.1,0-0.1,0,0c0,0,0,0,0,0.1c0,0,0,0,0,0c0,0,0,0.1,0,0
			c0,0,0,0.1,0,0.1c0,0,0,0.1,0,0c0,0,0,0,0,0.1c0,0,0,0,0,0.1c0,0.1,0-0.1,0,0c0,0.1-0.1,0.2,0,0.3c0,0.1,0.1,0.2,0.2,0.2
			c0.2,0.1,0.4,0.1,0.5-0.1c0.1-0.2,0.1-0.5,0.1-0.7c0-0.2-0.2-0.4-0.3-0.6c-0.2-0.3-0.5-0.5-0.9-0.6c-0.1,0-0.2-0.1-0.3,0
			c-0.1,0-0.2,0.1-0.2,0.2C34,73.6,34.1,73.8,34.2,73.9L34.2,73.9z"/>
	</g>
</g>
<g>
	<g>
		<path class="st11" d="M48,74.8c-0.4-1.6,2.5-1.3,3.4-1.1c0.4,0.1,0.8,0.2,1.2,0.3c0.3,0.1,0.9,0.3,0.8,0.8c0,0.3-0.5,0.4-0.8,0.5
			c-0.4,0.1-0.8,0.1-1.2,0.1c-0.5,0-1.1,0-1.6,0C49.2,75.2,48.5,75.2,48,74.8c-0.3-0.3-0.8,0.2-0.5,0.5c0.5,0.5,1.2,0.6,1.9,0.7
			c0.6,0.1,1.3,0.1,1.9,0.1c0.9,0,2.4,0,2.8-1c0.5-1.3-1.2-1.8-2.1-2c-0.9-0.2-1.8-0.3-2.8-0.2c-0.5,0.1-1.1,0.2-1.5,0.6
			c-0.4,0.4-0.5,1-0.4,1.6C47.4,75.4,48.1,75.2,48,74.8L48,74.8z"/>
	</g>
</g>
</svg>
