<?xml version="1.0" encoding="utf-8"?>
<!-- Generator: Adobe Illustrator 24.0.1, SVG Export Plug-In . SVG Version: 6.00 Build 0)  -->
<svg version="1.1" id="Layer_1" xmlns="http://www.w3.org/2000/svg" xmlns:xlink="http://www.w3.org/1999/xlink" x="0px" y="0px"
	 viewBox="0 0 141.7 141.7" style="enable-background:new 0 0 141.7 141.7;" xml:space="preserve">
<style type="text/css">
	.st0{fill:#E8F3F9;}
	.st1{fill:#A05830;}
	.st2{fill:#FFFFFF;}
	.st3{fill:#4D342A;}
	.st4{fill:#FAA324;}
	.st5{fill:#FDED1E;}
	.st6{fill:#C9B09D;}
	.st7{fill:#BB2025;}
	.st8{fill:#2E9445;}
	.st9{fill:#070707;}
</style>
<g>
	<polygon class="st0" points="79.3,118.4 76.8,120.6 77.1,123.9 74.2,122.1 71.2,123.4 72,120.2 69.8,117.7 73.1,117.5 74.8,114.6 
		76,117.7 	"/>
	<polygon class="st0" points="85.5,122.7 87,125.6 90.2,126.1 87.9,128.4 88.4,131.7 85.5,130.2 82.6,131.7 83.1,128.4 80.7,126.1 
		84,125.6 	"/>
	<polygon class="st0" points="48.2,108.8 47.2,112.2 49.4,114.9 45.9,115 44,118 42.8,114.7 39.4,113.8 42.2,111.6 42,108.1 
		44.9,110.1 	"/>
	<polygon class="st0" points="56.5,126 55.7,127.7 56.6,129.3 54.8,129.1 53.5,130.5 53.2,128.6 51.4,127.9 53.1,127 53.2,125.1 
		54.6,126.4 	"/>
	<polygon class="st0" points="36.4,110.5 36,112.3 37.3,113.6 35.5,113.8 34.7,115.4 33.9,113.8 32.2,113.5 33.5,112.3 33.2,110.5 
		34.8,111.4 	"/>
	<polygon class="st0" points="38.5,120.2 37.5,122 38.4,124 36.3,123.6 34.7,125.1 34.5,122.9 32.6,121.9 34.5,121 34.9,118.9 
		36.4,120.5 	"/>
	<polygon class="st0" points="66.2,133.4 65.3,134.1 65.3,135.2 64.4,134.6 63.4,134.9 63.7,133.5 63,132.3 64.2,132.3 64.8,131.7 
		65.1,133 	"/>
	<polygon class="st0" points="83.2,111.1 82.6,112.9 83.8,114.3 82,114.4 81,115.9 80.3,114.2 78.5,113.7 80,112.6 79.9,110.7 
		81.4,111.8 	"/>
	<polygon class="st0" points="100.1,129 99.8,131.2 101.5,132.6 99.3,133.1 98.5,135.1 97.4,133.2 95.2,133 96.7,131.4 96.2,129.3 
		98.2,130.2 	"/>
	<polygon class="st0" points="107.3,121.9 107.1,122.9 107.7,123.5 106.8,123.6 106.3,124.5 106,123.6 105,123.4 105.7,122.8 
		105.6,121.9 106.4,122.3 	"/>
	<polygon class="st0" points="115.7,114.2 114.8,115.8 115.5,117.5 113.7,117 112.3,118.3 112.2,116.4 110.6,115.5 112.3,114.8 
		112.7,113 113.9,114.4 	"/>
	<polygon class="st0" points="27.7,114.1 27.1,115.2 27.6,116.3 26.4,116 25.5,116.9 25.4,115.7 24.3,115.1 25.4,114.6 25.7,113.3 
		26.5,114.3 	"/>
	<polygon class="st0" points="48.1,127 47.8,127.7 48.2,128.3 47.5,128.2 47.1,128.8 46.9,128.1 46.2,127.9 46.8,127.5 46.8,126.8 
		47.4,127.2 	"/>
	<polygon class="st0" points="63.3,123.4 63.8,125.1 65.4,125.7 63.9,126.7 63.8,128.4 62.5,127.3 60.7,127.8 61.4,126.1 
		60.4,124.6 62.2,124.7 	"/>
	<polygon class="st0" points="73.5,125.7 74.1,126.9 75.4,127.1 74.4,128.1 74.7,129.4 73.5,128.8 72.2,129.4 72.5,128.1 
		71.5,127.1 72.9,126.9 	"/>
	<polygon class="st0" points="77,132.9 77.7,134.4 79.3,134.6 78.1,135.7 78.4,137.3 77,136.6 75.6,137.3 75.8,135.7 74.7,134.6 
		76.3,134.4 	"/>
	<path class="st1" d="M54.1,63.3c0,0-4.3-2.3-1.3-8l1.3,0.6l3.8,3.1l1.6,0.8l3-2c0,0,3.7-2.7,1.9-6.7c0,0,3.5,2,3.2,6.9l2.3-2.4
		c0,0,1,1.5-0.5,4.8l0.8-0.3v1.7c0.8,0.2,1.1,0.4,1.8,0.4c1.9,0,3.2-1.3,3.5-1.6c0.3,0.3,0.7,0.7,1,1c0.2,0.5,0.4,1.3,0.1,2.3
		c-0.5,1.6-2,2.7-4,2.9l1.6,12.9L71.6,77l0.6,3.7l1.2,5l-0.8,3.8c0,0,0.1-9.2-8.4-13c0,0-9.1-4.3-15.9,1c0,0-4.2,1.2-5.1,8.3
		c0,0-3.7-2.8,1.2-8.5l-2.9,0.8c0,0,2.9-4.9,4.7-4.5l-1.8-0.3L42.2,74l1.5-1.4l3.9-2l3.4-3.5L54.1,63.3z"/>
	<path class="st1" d="M62.8,99.3l0.5,0.9c0,0,0.8,5.7-8,6.9c0,0-0.3,7.9,10,12.9c1.2-1.2,2.3-2.5,3.5-3.7c1.5-2.2,3-4.4,4.5-6.5
		c1.4-1.7,2.9-2.6,3.8-3.1c1.1-0.6,2-1.1,3.4-1c1.4,0,2.5,0.6,3.1,1c0.5,0.4,1.2,0.9,1.6,1.5c0.8,1.2,1.7,3.2,1.9,6.5
		c0,0,1.7,4.4,4.5,5.9c0.8,0.2,2.5,0.4,4.3-0.2c2.8-0.8,4.3-2.7,4.8-3.4c0.5-0.6,1-1.1,1.6-1.7c0.7-1,1.6-2.3,2.3-3.8
		c0.6-1.2,0.9-2.4,1.2-3.4l-3.7-0.2l-3.7-0.4c-2.6-0.5-4.5-2-4.9-3.8c-0.1-0.4-0.1-0.8,0-1.4c0.7-0.4,1.3-0.8,2-1.1
		c0.4-0.1,2.4-0.8,3.5-2.9c1.3-2.5,0.2-4.9,0-5.2c-0.1-0.3-0.3-0.7-0.5-1.1c-0.6-1.2-1-2.1-1.8-2.8c-0.4-0.3-0.9-0.8-1.8-1.1
		c0.2,0.3,0.4,0.9,0.4,1.6c0.1,0.9-0.1,2-1.3,2.9c0,0-2.1,1.5-4.3,0.5c0,0-3.9-1.8-6.4,0l-3.6,1.3l-4-0.3L72,92.4
		c-0.5,1-1.5,2.6-3.2,4C66.5,98.4,64,99,62.8,99.3z"/>
	<circle class="st2" cx="58.9" cy="68.7" r="4.2"/>
	<circle class="st2" cx="67.6" cy="70.8" r="4.2"/>
	<path class="st3" d="M57,58.2L56,55v-7.4L55.2,45c-0.3-0.2-0.6-0.4-0.9-0.6c-2-1-3.9-0.9-5.1-0.8c-1-0.2-1.9-0.3-2.9-0.5
		c-0.3-0.3-0.7-0.5-1-0.8c-0.1-0.1-0.3-0.5-0.2-1c0.2-0.6,0.9-1.1,1.7-1.1c0.4-0.1,1-0.1,1.5-0.1c1.4,0.1,2.5,0.5,3.3,0.8
		c1,0.3,2,0.6,3,0.9c0.8-0.5,1.2-1,1.4-1.3c0.6-0.9,0.5-1.7,0.6-4.7c0-0.8,0.1-1.4,0.1-1.7c0.4-1.9,0.7-3.7,1.1-5.6
		c0.2-1,0.3-2,0.5-3c0.1,0.8,0.3,1.7,0.4,2.5l3.9-3.7c-0.4,1.9-0.7,4-1,6.1c-0.4,3.3-0.6,6.3-0.6,9.1c-0.1,2.9-0.2,5.9-0.1,9.1
		c0,2.9,0.1,5.7,0.3,8.4c-0.1,0.6-0.2,1.3-0.3,1.9l-1.3,0.9L57.8,59L57,58.2z"/>
	<path class="st3" d="M70.4,60.2l3.5-7l5.2-11.1l5.3-13.6l3.1-8.7l2-5.7c0,0,0.4-1.7,1.3-1.9c0.6-0.1,1.2,0.6,1.6,1.1
		c0.2,0.2,1.4,1.7,1.3,3.8c0,0.5-0.1,0.9-0.3,1.7c-0.1,0.5-0.2,1-0.4,1.7c-0.2,0.6-0.5,1.4-1,2.3c-2.3,4.7-4.5,9.3-6.8,14l-6.5,13.5
		l3.1,1.2c0.6,0.4,1.4,0.9,2.1,1.8c0.4,0.5,0.7,1,1,1.5c0,0.5,0,0.9-0.1,1.4c-0.3,0.2-0.6,0.5-0.9,0.7c-0.4,0-0.8-0.1-1.2-0.1
		c-0.5-0.4-1-0.8-1.6-1.2c-0.5-0.4-0.9-0.8-1.4-1.3l-1.6-0.6l-1.3,0.4L75.4,55l-1,1.8l0,2.1v2.8l-1.6,0.6l-2-0.3l-0.4-0.3V60.2z"/>
	<path class="st4" d="M57.6,13.4l1.5-7.4l5.2,5.8l7.7-1.6l-3.4,7c0,0,3.3,7.1,3.3,6.8s-7.5-1.6-7.5-1.6l-5.7,5.5l-1.3-7.4L51,16.9
		L57.6,13.4z"/>
	<polygon class="st5" points="85.5,52.8 82.7,49.5 87.4,49.6 89.6,45.8 90.9,50 95,50.7 92,53.5 92,57.4 88.5,55.5 84.7,56.9 	"/>
	<path class="st6" d="M44,82.4c0,0,5.5-11.5,18.5-6.2c0,0,9.9,3,10.1,13.4c0,0-0.7,11.2-16.2,9.8C56.4,99.4,40.6,96.2,44,82.4z"/>
	<path class="st7" d="M51.5,113.5c0,0,1.5-4.2,3.8-1.8l0.4,0.9c0,0-3.9,2.2-3.1,4.2c0,0,0.7,0,2.3-0.4c0,0,2.3-2.4,3.4-0.8
		s0-0.4,0-0.4s1.2,1.1-0.8,2.6l-1.7,2.1l1.3,0.8l1.9-1.2c0,0,1.5-2,2.2-0.8c0.7,1.1,0.7,1.1,0.7,1.1l-1.7,1.7l2.3-0.3l2.8-1.2
		c-2.2-1-3.8-2.3-4.9-3.2c-1-0.9-2.4-2.2-3.6-4.3c-1.1-1.9-1.5-3.7-1.7-4.9c-1.5-0.3-3,0.3-3.9,1.6
		C50.4,110.5,50.5,112.3,51.5,113.5z"/>
	<path class="st7" d="M99.4,122.2c-1.3-1-1.8-2.2-1.5-2.7c0.1-0.1,0.3-0.3,0.9-0.4c0,0,0.2-0.9,1.7,1.5l2.2,0.3l1.2-0.9v-1.3l-0.6-1
		l-1.4-0.4l-0.4-1.1l0.8-0.8l1.2-0.2l1.5,1.5l0.7-0.5l0.1-0.5l0.1-1.1l-0.7-0.4l-0.7-0.8l-0.5-0.8l0.4-1.1l0.5-0.7l0.8,0.3
		c0.3,0.2,0.7,0.4,1.2,0.9c0.5,0.6,0.7,1.1,0.8,1.5c0-1.2-0.1-2.5-0.1-3.7c-0.3-0.7-0.5-1.5-0.8-2.2c-0.5,0.1-1,0.2-1.5,0.3
		c-0.4,2-1.1,4.4-2.7,6.8c-1.2,1.8-3.1,4.6-6.7,5.6c-1.6,0.4-3,0.3-3.9,0.2c0.4,0.4,0.9,0.8,1.5,1.2C96,122.9,98.5,122.4,99.4,122.2
		z"/>
	<path class="st8" d="M51.5,113.5l1.1-1.9c0,0,1.9-1.5,2.7,0.1l0.4,0.9l-1.9,1.4l-0.7,1.6l-0.5,1.1L51.5,113.5z"/>
	<path class="st8" d="M53.2,116.8l1.4-0.4l1.5-0.7c0,0,2.4-2.1,2.6,0.7l-1.4,2.2l-1.4,1.2L53.2,116.8z"/>
	<path class="st8" d="M57.1,120.5l2-1.7c0,0,2.1-1.1,2.1,0.2v0.5v0.9l-1.1,1.1L57.1,120.5z"/>
	<path class="st7" d="M75.1,107.7c0,0,4.9-8.2,2.6-13.1l1-0.2c0,0,1.5,8,0.2,11.6L75.1,107.7z"/>
	<path class="st7" d="M79.6,94.3c0,0,2.6,8.5,1.7,11.3l3.4,1.3c0,0-4-11.8-3.5-12.9L79.6,94.3z"/>
	<path class="st7" d="M78.6,94.4c0,0-2.2-2.2-0.1-4.8C78.5,89.6,73.4,90.7,78.6,94.4z"/>
	<path class="st7" d="M77.5,89.5l-1.1-1.9c0,0-0.7-5.3,1.7-6.2c0,0,1.3-0.1,1.3,3l-0.1,2.3l-0.8,2.9L78,88.8l0.3-2.9l-0.7-1.5L77,85
		l0.2,2.5l0.7,2L77.5,89.5z"/>
	<path class="st7" d="M79.3,89.8l2-0.2c0,0,5.8-1.2,4.7-5.2l-1.5-0.8l-2.2,0.5l-1.8,1.5l-1.4,2.1l-0.6,1.9l0.4,0.1
		c0.4-0.7,0.9-1.5,1.3-2.2c0.5-0.5,1-0.8,1.3-1c0.6-0.4,0.9-0.4,1.1-0.4c0.4,0,0.7,0.4,0.8,0.5c-0.2,0.3-0.3,0.7-0.5,1
		c-0.4,0.3-0.9,0.6-1.3,1c-0.3,0.2-0.6,0.4-1,0.4c-0.4,0-0.7-0.1-1,0C79.5,89,79.3,89.2,79.3,89.8z"/>
	<polygon class="st3" points="52.8,81.6 52.4,80.6 52.6,79.4 54.1,80.2 54.4,81.1 53.4,81.6 	"/>
	<path class="st3" d="M62.6,86.9c0.1-0.4,0.3-0.3,0.4-1.1c0.5,0,1,0,1.5,0c0.1,0,0.4,0.5,0.3,1.1c-0.1,0.5-0.5,0.9-1,1
		C63.4,87.6,63,87.2,62.6,86.9z"/>
	<path class="st6" d="M53.7,63.3c0,0,0.7-2.8-1-7.6C52.7,55.7,49.8,59.9,53.7,63.3z"/>
	<path class="st6" d="M72.3,67.1c0,0,3.7-3.6,3.1-6.8l1.1,1.4l0.4,1.6l-0.6,1.6L75,66.1l-1.9,0.7L72.3,67.1z"/>
	<path class="st8" d="M99.8,122.1c0,0,6.7-0.7,7.9-9.2l-1.5-1.6c0,0-1.4-1.3-2,1.2l1.8,1.9c0,0,0.7,1.5-1,2.1l-1.3-1l-0.6-0.5
		l-0.9,0.2l-0.8,0.8c0,0-0.5,0.8,1.5,1.5l0.4,1.4c0,0,0.2,1.1-0.8,1.5c0,0-1.5,0.8-2.5-0.6l-0.8-1.3l-1,0.5c-0.2,0-0.4,0.1-0.6,0.1
		c0.1,0.4,0.2,0.7,0.4,1.1c0.1,0.3,0.3,0.7,0.7,1.1C99.2,121.8,99.6,122,99.8,122.1z"/>
	<g>
		<path class="st9" d="M58.9,73.1c-0.9,0-1.8-0.3-2.5-0.8l0,0c-0.9-0.7-1.5-1.7-1.7-2.8c-0.2-1.1,0.1-2.3,0.8-3.2
			c1.4-1.9,4.1-2.4,6-1c0.9,0.7,1.5,1.7,1.7,2.8c0.2,1.1-0.1,2.3-0.8,3.2c-0.7,0.9-1.7,1.5-2.8,1.7C59.4,73.1,59.1,73.1,58.9,73.1z
			 M58.9,64.9c-1.2,0-2.4,0.6-3.2,1.6c-0.6,0.8-0.9,1.9-0.7,2.9c0.2,1,0.7,1.9,1.6,2.6l0,0c0.8,0.6,1.9,0.9,2.9,0.7
			c1-0.2,1.9-0.7,2.6-1.6c0.6-0.8,0.9-1.9,0.7-2.9c-0.2-1-0.7-1.9-1.6-2.6C60.5,65.1,59.7,64.9,58.9,64.9z"/>
	</g>
	<g>
		<path class="st9" d="M60.5,69.7c0.4-0.6,0.3-1.4-0.3-1.9c-0.6-0.4-1.4-0.3-1.9,0.3c-0.4,0.6-0.3,1.4,0.3,1.9
			C59.2,70.5,60.1,70.3,60.5,69.7z M58.4,68.9c0.1-0.2,0.4-0.2,0.5-0.1c0.2,0.1,0.2,0.4,0.1,0.5c-0.1,0.2-0.4,0.2-0.5,0.1
			C58.3,69.3,58.3,69,58.4,68.9z"/>
	</g>
	<g>
		<path class="st9" d="M67.6,75c-1.3,0-2.6-0.6-3.5-1.8l0,0c-1.4-1.9-1-4.6,0.9-6c1.9-1.4,4.6-1,6,0.9c1.4,1.9,1,4.6-0.9,6
			C69.4,74.8,68.5,75,67.6,75z M64.4,73c1.3,1.7,3.7,2.1,5.5,0.9c1.7-1.3,2.1-3.7,0.9-5.5c-1.3-1.7-3.7-2.1-5.5-0.9
			C63.5,68.8,63.1,71.3,64.4,73L64.4,73z"/>
	</g>
	<g>
		<path class="st9" d="M68.9,71.6c0.6-0.4,0.7-1.3,0.3-1.9c-0.4-0.6-1.3-0.7-1.9-0.3c-0.6,0.4-0.7,1.3-0.3,1.9
			C67.4,71.9,68.3,72,68.9,71.6z M67.1,70.1c0.2-0.1,0.4-0.1,0.5,0.1c0.1,0.2,0.1,0.4-0.1,0.5c-0.2,0.1-0.4,0.1-0.5-0.1
			C66.9,70.5,67,70.2,67.1,70.1z"/>
	</g>
	<g>
		<path class="st9" d="M59.4,99.9c-1.6,0-3.3-0.2-4.9-0.7c-7.9-2.3-12.8-9.5-10.9-16.1c1.9-6.6,9.9-10.1,17.8-7.8
			c7.9,2.3,12.8,9.5,10.9,16.1C70.8,96.6,65.5,99.9,59.4,99.9z M54.6,98.7c7.7,2.2,15.4-1.1,17.2-7.4C73.7,85,69,78,61.3,75.8
			c-7.7-2.2-15.4,1.1-17.2,7.4C42.3,89.5,47,96.5,54.6,98.7z"/>
	</g>
	<g>
		<g>
			<path class="st9" d="M43.6,85.8c-3.1-2.3-0.7-6.3,0.9-8.6c0.2-0.3-0.2-0.6-0.4-0.4c-0.9,0.5-1.7,0.9-2.6,1.4
				c0.2,0.1,0.3,0.2,0.5,0.4c0.7-2.2,2.2-3.8,4.3-4.8c0.3-0.1,0.2-0.5-0.1-0.6c-2-0.5-4.1,0-5.6,1.6c0.2,0.2,0.3,0.3,0.5,0.5
				c1.9-2.4,4.8-3,7.1-4.8c2.5-1.9,4.1-4.7,6.3-6.8c0.3-0.3-0.2-0.7-0.5-0.5c-2.3,2.2-4,5.1-6.6,7c-2.3,1.7-5,2.3-6.8,4.6
				c-0.2,0.3,0.2,0.8,0.5,0.5c1.3-1.3,3.1-1.8,4.9-1.4c0-0.2-0.1-0.4-0.1-0.6c-2.2,1-3.9,2.8-4.6,5.1c-0.1,0.3,0.2,0.5,0.5,0.4
				c0.9-0.5,1.7-0.9,2.6-1.4c-0.1-0.1-0.3-0.3-0.4-0.4c-1.9,2.7-4.1,6.9-0.7,9.5C43.6,86.6,43.9,86,43.6,85.8L43.6,85.8z"/>
		</g>
	</g>
	<g>
		<g>
			<path class="st9" d="M54,63.4c-2.4-1.9-2.8-5.7-0.8-7.5c-0.2,0-0.3,0-0.5,0c1.6,1.8,3.6,3.1,5.7,4.2c1,0.5,1.1,0.2,2.1-0.4
				c0.9-0.6,1.8-1.2,2.6-2c1.3-1.2,2.1-2.9,2-4.7c-0.1-1.5-1-2.9-2.4-3.4c-0.3-0.1-0.6,0.4-0.2,0.6c3.2,1.4,5.1,4.8,4.7,8.3
				c0,0.3,0.4,0.4,0.5,0.2c1-1.1,1.8-2.3,2.6-3.5c-0.2,0-0.4-0.1-0.6-0.1c0.5,2,0.1,3.9-1,5.7c-0.2,0.2,0.1,0.5,0.4,0.5
				c0.6-0.1,1.1-0.4,1.6-0.7c-0.2-0.1-0.3-0.2-0.5-0.4c-0.1,0.5-0.2,1-0.3,1.5c0,0.1,0,0.3,0.1,0.4c2,1.1,4.4,0.5,5.7-1.3
				c-0.1,0-0.3,0.1-0.4,0.1c1.4,0.9,1.5,2.8,0.5,4c-0.9,1.1-2.3,1.6-3.6,1.8c-0.2,0-0.3,0.2-0.2,0.4c1.2,4.3,1.4,8.8,1.8,13.2
				c0.2-0.1,0.4-0.1,0.6-0.2c-0.7-1.2-1.6-2.3-2.6-3.3c-0.2-0.2-0.6,0-0.5,0.3c0.7,4.1,2.3,8.3,1.4,12.5c-0.1,0.4,0.5,0.6,0.6,0.2
				c0.9-4.3-0.7-8.7-1.4-12.9c-0.2,0.1-0.4,0.2-0.5,0.3c1,1,1.8,2,2.5,3.2c0.2,0.3,0.6,0.2,0.6-0.2c-0.4-4.5-0.6-9-1.8-13.4
				c-0.1,0.1-0.1,0.3-0.2,0.4c1.8-0.3,3.8-1.2,4.5-3c0.6-1.5,0.1-3.2-1.3-4c-0.2-0.1-0.3,0-0.4,0.1c-0.7,1-1.7,1.5-2.9,1.6
				c-0.3,0-1.4,0-1.6-0.3c-0.2-0.3,0.1-1,0.2-1.3c0.1-0.2-0.2-0.5-0.5-0.4c-0.4,0.3-0.9,0.5-1.4,0.7c0.1,0.2,0.2,0.3,0.4,0.5
				c1.2-1.9,1.6-4,1.1-6.1c-0.1-0.3-0.4-0.3-0.6-0.1c-0.7,1.2-1.6,2.3-2.5,3.4c0.2,0.1,0.4,0.2,0.5,0.2c0.5-3.7-1.6-7.3-5-8.9
				c-0.1,0.2-0.2,0.4-0.2,0.6c1.6,0.6,2.2,2.5,1.9,4.1c-0.3,1.7-1.7,3-3,3.9c-0.5,0.3-1.3,1.1-1.9,1.2c-0.7,0.1-1.7-0.6-2.3-1
				c-1.6-1-2.9-2.1-4.1-3.5c-0.1-0.1-0.3-0.1-0.5,0c-2.2,2.5-1.9,6.7,0.8,8.8C53.9,63.9,54.3,63.6,54,63.4L54,63.4z"/>
		</g>
	</g>
	<g>
		<g>
			<path class="st9" d="M53.8,44.4c1,0.3,1.4,1.1,1.7,2c0.4,1.1,0.3,2.5,0.2,3.6c0,1.1-0.1,2.2,0,3.3c0,1.7,0.3,3.3,0.9,4.9
				c0.3,0.1,0.6,0.3,0.9,0.5c-0.9-1.9-1.2-4-1.2-6.1c0-1.9,0.4-4.1,0-5.9c-0.2-0.9-0.8-2.3-1.6-2.7c-1.5-0.8-3.6-0.6-5.2-0.8
				c-1-0.1-2.1-0.1-3-0.5c-0.7-0.3-1.3-1-0.6-1.7c0.4-0.4,0.9-0.6,1.4-0.6c1.6-0.2,3.3,0.4,4.7,1c1.1,0.5,2.5,1,3.6,0.2
				c1.2-0.8,1.1-2.1,1.1-3.4c0.2-4.8,1.5-9.5,2.1-14.3c0-0.4-0.6-0.4-0.6,0c-0.5,4.2-1.6,8.4-2,12.6c-0.1,1.1,0.1,2.5-0.3,3.5
				c-0.5,1.5-1.9,1.4-3.1,0.9c-1.4-0.5-2.7-1-4.2-1.2c-1.1-0.1-2.3,0-3.1,0.8c-0.9,0.8-0.8,1.8,0.2,2.5c1.3,0.9,3.6,0.7,5.1,0.8
				C51.8,44,52.8,44.1,53.8,44.4z"/>
		</g>
	</g>
	<g>
		<g>
			<path class="st9" d="M60.3,58.9c0.8-0.4,1-0.5,1-1.5c0-1.5-0.1-3-0.1-4.5c-0.1-3-0.1-6,0-9c0.1-6.2,0.5-12.4,1.4-18.6
				c0.1-0.4-0.6-0.6-0.6-0.2c-0.8,5.5-1.2,11-1.3,16.5c-0.1,2.8-0.1,5.5-0.1,8.3c0,1.3,0,2.7,0.1,4c0,1.1,0.6,3.8-0.6,4.4
				C59.6,58.6,60,59.1,60.3,58.9L60.3,58.9z"/>
		</g>
	</g>
	<g>
		<g>
			<path class="st9" d="M71,59.5C76.5,49,81.3,38.2,85.3,27c1-2.9,2-5.7,2.9-8.6c0.4-1.3,0.8-2.6,1.2-3.8c0.2-0.5,0.5-1.5,1.1-1.7
				c1.2-0.6,2.2,1.2,2.5,2c0.9,2.6-0.2,5.5-1.2,7.9c-1.3,2.8-2.7,5.5-4.1,8.3c-3.2,6.3-6.3,12.7-9.5,19c-0.1,0.2,0,0.4,0.2,0.5
				c2.2,0.5,4.7,1.9,5.9,3.9c0.5,0.9,0.6,2.2-0.8,2.2c-0.7,0-1.2-0.4-1.7-0.8c-0.6-0.6-1.1-1.3-1.9-1.8c-1.3-0.8-2.9-0.5-4.1,0.4
				c-1.5,1.3-1.9,3.3-2.2,5.1c-0.1,0.4,0.5,0.6,0.6,0.2c0.2-1.3,0.4-2.8,1.2-3.9c1.1-1.6,3-2.3,4.6-0.9c1.2,1,2.5,3,4.3,2.2
				c1.7-0.7,0.8-2.6,0-3.7c-1.4-1.8-3.5-3.1-5.8-3.6c0.1,0.2,0.1,0.3,0.2,0.5c3.2-6.3,6.3-12.7,9.5-19c1.5-3,3.1-5.9,4.4-9
				c0.9-2.1,1.7-4.6,1.2-6.9c-0.3-1.4-1.8-4.2-3.6-3.1c-0.7,0.4-1.1,1.4-1.4,2.1c-0.5,1.6-1,3.2-1.5,4.7c-2.1,6.5-4.4,12.8-7.1,19.1
				c-3,7.1-6.3,14.1-9.9,20.9C70.2,59.5,70.8,59.9,71,59.5L71,59.5z"/>
		</g>
	</g>
	<g>
		<g>
			<path class="st9" d="M107.2,107.2c-0.1-0.1-0.2-0.2-0.4-0.1c-2.2,0.5-4.4,0.6-6.6,0.2c-1.9-0.3-4.3-0.9-5.8-2.2
				c-1-1-1.5-2.5,0.1-3.2c0.6-0.3,1.3-0.4,1.9-0.7c1.1-0.5,2-1.4,2.5-2.4c1.2-2.3,1.2-5,0-7.3c-1-1.9-2.7-3.3-4.6-4.4
				c-0.6-0.6-1.5-1-2.4-1.1c0,0,0,0,0,0v0c0,0,0,0-0.1,0c-0.4,0-0.4,0.5-0.1,0.6c0.8,0.3,1.5,0.7,2.3,1.1c1.3,1.4,1.3,3.8-0.7,5
				c-2.4,1.4-4.6-1-7-0.8c-2.3,0.2-4.3,1.5-6.5,1.9c-2.7,0.5-5.4-0.3-7.6-1.9c-0.3-0.2-0.6,0.3-0.3,0.6c2.4,1.8,5.4,2.5,8.3,2
				c1.7-0.3,3.3-1.2,5-1.6c1-0.3,2-0.4,3-0.1c0.9,0.3,1.6,0.8,2.5,1c2.1,0.5,4.6-1,4.9-3.2c0.1-0.7,0-1.3-0.2-1.9
				c3.2,2.4,5.3,6.2,2.9,10.1c-0.6,1-1.6,1.7-2.7,2.1c-0.9,0.3-1.9,0.5-2.4,1.3c-1.1,1.6,0.5,3.4,1.8,4.2c2.1,1.3,5,1.8,7.4,1.9
				c0.8,0,1.5,0,2.3-0.1c0.5-0.1,1.2-0.3,1.7-0.2c0.5,0.1,0.4-0.2,0.7,0.5c0.1,0.2,0.1,0.4,0.2,0.6c0.2,0.7,0.3,1.4,0.4,2.1
				c0.2,4.6-2.7,9.3-7.2,10.6c-4.5,1.3-9.7-1.1-12-5.2c-1.3-2.3-1.1-5-2.1-7.4c-0.8-2-2.6-3.5-4.8-3.8c-4.7-0.7-8.5,3.8-10.8,7.3
				c-2.6,3.9-6,9.5-11.5,8.4c-2.8-0.5-5.1-2.7-6.4-5.2c-0.7-1.3-1.2-2.8-1.4-4.4c-0.1-1.2,0-2.4,1.2-3.1c0.7-0.4,1.4-0.6,2.2-0.8
				c2.6-0.7,5.6-1.1,7.5-3.2c1.3-1.5,2-3.5,1.2-5.3c-0.2,0.1-0.4,0.1-0.6,0.2c1,2.1-0.4,4.5-2.2,5.7c-1.9,1.3-4.3,1.6-6.5,2.2
				c-1.5,0.4-3,1-3.3,2.7c-0.3,1.6,0.2,3.5,0.8,5c1.2,3,3.7,5.8,7,6.7c3.4,0.9,6.5-0.7,8.8-3.1c2.7-2.9,4.3-6.5,7.1-9.3
				c1.6-1.6,3.7-3,6-3.1c2.6-0.1,4.8,1.5,5.6,4c0.6,1.9,0.7,3.9,1.4,5.8c0.6,1.4,1.5,2.7,2.6,3.8c2.3,2.2,5.6,3.4,8.7,3.2
				C105.9,122.1,110.2,113.6,107.2,107.2z"/>
		</g>
	</g>
	<g>
		<g>
			<path class="st9" d="M77.5,94.9c0.8,3.8,0.1,7.7-2,11c-0.2,0.3,0.3,0.7,0.6,0.3c2.2-3.4,2.9-7.5,2.1-11.4
				C78.1,94.3,77.5,94.5,77.5,94.9L77.5,94.9z"/>
		</g>
	</g>
	<g>
		<g>
			<path class="st9" d="M84.4,107.2c0.4,0.3,0.8,0.6,1.1,1.1c-1.8-4.7-3.2-9.5-4.4-14.3c-0.1-0.4-0.7-0.2-0.6,0.2
				C81.5,98.6,82.9,102.9,84.4,107.2z"/>
		</g>
	</g>
	<g>
		<g>
			<path class="st9" d="M45.9,84.1c-0.1,4,3.1,7,6.4,8.8c4.3,2.5,9.3,3.9,14.2,4.6c0.4,0.1,0.6-0.6,0.2-0.6c-4.5-0.6-9-1.9-13-4
				c-3.4-1.7-7.1-4.6-7.1-8.8C46.6,83.6,45.9,83.6,45.9,84.1L45.9,84.1z"/>
		</g>
	</g>
	<g>
		<g>
			<path class="st9" d="M54.3,78.5c1.3-1.4,2.3,1.4,2.5,2.1c0.2,1.1,0,2.2-0.3,3.3c-0.1,0.2,0.2,0.3,0.3,0.1
				c0.5-1.5,0.7-3.7-0.3-5.1c-0.5-0.8-1.7-1.5-2.4-0.6C54,78.5,54.2,78.7,54.3,78.5L54.3,78.5z"/>
		</g>
	</g>
	<g>
		<g>
			<path class="st9" d="M61.6,86.4c0-1.3,1.3-2.4,2.6-2.2c0.2,0,0.3-0.3,0.1-0.3c-1.5-0.3-3,1-3,2.5C61.3,86.6,61.6,86.6,61.6,86.4
				L61.6,86.4z"/>
		</g>
	</g>
	<g>
		<g>
			<path class="st9" d="M53.2,81.4c-0.6-0.3-0.7-1.1-0.2-1.5c-0.1,0-0.3,0-0.4,0c0.4,0.2,0.9,0.5,1.1,0.9c0.1,0.2,0,0.4-0.1,0.5
				C53.5,81.5,53.3,81.6,53.2,81.4c-0.3-0.3-0.7,0.2-0.5,0.5c0.5,0.6,1.5,0.1,1.6-0.6c0.3-0.9-0.7-1.6-1.4-1.9c-0.1-0.1-0.3,0-0.4,0
				c-0.8,0.7-0.6,2.1,0.3,2.5C53.3,82.1,53.6,81.6,53.2,81.4L53.2,81.4z"/>
		</g>
	</g>
	<g>
		<g>
			<path class="st9" d="M63.2,86.2c0.5-0.5,1.8,0.2,1.3,0.9c-0.4,0.6-1.4,0.3-1.5-0.3c-0.1-0.4-0.7-0.2-0.6,0.2
				c0.2,1.3,2.3,1.5,2.7,0.3c0.6-1.3-1.4-2.5-2.4-1.5C62.5,86,62.9,86.5,63.2,86.2L63.2,86.2z"/>
		</g>
	</g>
	<g>
		<g>
			<path class="st9" d="M54.7,107.2c0.9,5.8,5,10.8,10.6,12.7c0.4,0.1,0.6-0.5,0.2-0.6c-5.4-1.9-9.3-6.6-10.1-12.2
				C55.3,106.7,54.7,106.8,54.7,107.2L54.7,107.2z"/>
		</g>
	</g>
	<g>
		<g>
			<path class="st9" d="M91.1,120.3c3.3,1.6,7-0.4,9.5-2.7c2.8-2.5,4.6-5.9,5.1-9.6c0.1-0.4-0.6-0.6-0.6-0.2
				c-0.5,3.2-1.9,6.2-4.1,8.5c-2.3,2.4-6.2,5.1-9.5,3.4C91.1,119.6,90.7,120.1,91.1,120.3L91.1,120.3z"/>
		</g>
	</g>
	<g>
		<g>
			<path class="st9" d="M78.1,94.1c-0.6-0.6-1.2-1.4-1.4-2.3c-0.2-1,0.4-2,1.4-1.9c0.9,0,1.6,0.7,1.7,1.5c0.2,1.1-0.5,2.1-1.4,2.6
				c-0.4,0.2,0,0.8,0.3,0.6c1.1-0.7,1.9-1.9,1.7-3.3c-0.2-1.1-1.1-1.9-2.2-2c-1.1-0.1-2.1,0.6-2.3,1.7c-0.2,1.4,0.7,2.7,1.6,3.6
				C77.9,94.9,78.4,94.4,78.1,94.1L78.1,94.1z"/>
		</g>
	</g>
	<g>
		<g>
			<path class="st9" d="M77.5,89.5c-0.6-1.1-1-2.4-1-3.7c0-1,0.2-3.2,1.2-3.8c1.7-1.2,1.8,2.8,1.8,3.5c-0.1,1.4-0.5,2.7-1.2,3.9
				c0.1,0,0.2,0.1,0.3,0.1c0.9-2.3,2.5-4.8,5-5.5c1.4-0.4,2.9,0.6,2.5,2.2c-0.2,0.8-0.9,1.5-1.6,1.9c-1.2,0.8-2.7,1.3-4.1,1.4
				c-0.3,0-0.6,0-0.8,0c-0.5-0.1-1.3-0.4-1.4-0.9c-0.2-0.7,0.9-1.5,1.3-2c0.5-0.6,0.8-1.3,1-2.1c0.2-1,0.2-2,0.3-3
				c0-0.3,0.2-1.8,0.5-2c0.4-0.2,1.5,0.9,1.9,1.1c0.1,0.1,0.3-0.1,0.2-0.2c-0.5-1.9,1.9-2.9,2.9-1.2c0.1-0.1,0.1-0.2,0.2-0.2
				c-2.4-0.5-0.2-2.8,0.6-3.2c0.7-0.4,1.5-0.5,2.3-0.4c0.1,0,0.2-0.1,0.2-0.2c-0.1-0.6-0.3-1.3-0.2-1.9c0-0.7,0.3-1.2,0.9-1.6
				c0.6-0.4,1.2-0.3,1.7,0.3c0.1,0.2,0.4,0,0.3-0.2c-0.5-0.9-1.6-0.9-2.4-0.3c-0.4,0.3-0.6,0.8-0.7,1.3c-0.1,0.4,0.2,1.9,0,2.1
				c-0.2,0.2-0.7,0.1-1,0.1c-0.4,0.1-0.8,0.2-1.2,0.4c-0.6,0.3-1.2,0.8-1.5,1.4c-0.5,1-0.1,2.1,1,2.4c0.1,0,0.3-0.1,0.2-0.2
				c-1.2-2-4.1-0.8-3.5,1.4c0.1-0.1,0.2-0.1,0.2-0.2c-0.6-0.5-1.3-0.9-1.9-1.4c-0.1,0-0.2,0-0.2,0.1c-0.8,1.5-0.7,3.1-0.9,4.7
				c-0.1,1.2-0.5,2.1-1.4,3c-0.4,0.4-0.9,0.8-1,1.4c-0.6,3,5.2,1,6.3,0.4c1.1-0.7,2.4-1.7,2.4-3.2c0-1.1-0.8-2-1.9-2
				c-3.1-0.2-5.3,3.4-6.3,5.9c-0.1,0.2,0.2,0.3,0.3,0.1c1-1.7,1.5-3.7,1.2-5.7c-0.1-0.8-0.4-2.6-1.6-2.4c-1.2,0.2-1.7,2.3-1.8,3.2
				c-0.3,1.8,0.1,3.5,1,5C77.3,89.9,77.6,89.7,77.5,89.5L77.5,89.5z"/>
		</g>
	</g>
	<g>
		<g>
			<path class="st9" d="M78.2,89.7c-1.2,1.6-1,3.9,0.6,5.2c0.2,0.1,0.4-0.1,0.2-0.2c-1.5-1.2-1.7-3.3-0.6-4.8
				C78.6,89.7,78.3,89.6,78.2,89.7L78.2,89.7z"/>
		</g>
	</g>
	<g>
		<g>
			<path class="st9" d="M78.3,94.5c1.2,3.7,1.2,7.7,0.2,11.4c-0.1,0.2,0.3,0.3,0.3,0.1c1.1-3.8,1-7.8-0.2-11.6
				C78.6,94.2,78.3,94.3,78.3,94.5L78.3,94.5z"/>
		</g>
	</g>
	<g>
		<g>
			<path class="st9" d="M79.5,94.8c1.2,3.5,1.8,7.1,1.8,10.8c0,0.2,0.3,0.2,0.3,0c0-3.7-0.6-7.4-1.8-10.9
				C79.7,94.5,79.4,94.6,79.5,94.8L79.5,94.8z"/>
		</g>
	</g>
	<g>
		<g>
			<path class="st9" d="M57.2,63.4c1.4-0.9,3.2-1,4.6,0c0.2,0.1,0.3-0.2,0.2-0.3c-1.5-1-3.4-1-4.9,0C56.8,63.3,57,63.6,57.2,63.4
				L57.2,63.4z"/>
		</g>
	</g>
	<g>
		<g>
			<path class="st9" d="M65.6,65.8c0.6-0.8,1.8-1,2.5-0.3c0.2,0.1,0.4-0.1,0.2-0.2c-0.9-0.8-2.3-0.6-3,0.4
				C65.2,65.8,65.5,65.9,65.6,65.8L65.6,65.8z"/>
		</g>
	</g>
	<g>
		<g>
			<path class="st9" d="M54,63.3c0.1-2.6-0.3-5.1-1.3-7.6c-0.1-0.2-0.4-0.1-0.3,0.1c1,2.4,1.4,4.9,1.3,7.5
				C53.7,63.5,54,63.5,54,63.3L54,63.3z"/>
		</g>
	</g>
	<g>
		<g>
			<path class="st9" d="M72.3,67.1c1.9-1.8,3.1-4.2,3.4-6.8c0-0.2-0.3-0.2-0.3,0c-0.3,2.5-1.4,4.8-3.3,6.6
				C72,67,72.2,67.2,72.3,67.1L72.3,67.1z"/>
		</g>
	</g>
	<g>
		<g>
			<path class="st9" d="M51.8,113.4c0.4-0.7,0.9-1.8,1.7-2.1c1.3-0.4,2.6,0.6,1.1,2c-0.2,0.2-0.4,0.3-0.6,0.5
				c-0.9,0.8-1.3,1.8-1.3,3c0,0.1,0.1,0.1,0.1,0.2c1.4,0.5,2.3-0.5,3.4-1.1c0.5-0.3,1.9-1,2.3-0.1c-0.1,0.5-0.1,1-0.2,1.4
				c-0.2,0.2-0.4,0.5-0.6,0.7c-0.6,0.7-1.2,1.4-1.7,2.1c0,0.1-0.1,0.1,0,0.2c0.5,0.7,1.2,0.7,2,0.3c0.5-0.2,0.9-0.6,1.3-0.9
				c0.2-0.2,0.4-0.4,0.7-0.5c0.6-0.5,0.9-0.4,1.1,0.6c0.6,0.5,0.6,0.8,0.2,1.1c-0.3,0.2-0.5,0.4-0.8,0.6c-0.2,0.1,0,0.4,0.2,0.3
				c0.8-0.5,2.1-1.4,1.7-2.5c-0.4-1.3-2-0.7-2.7-0.1c-0.6,0.4-1.6,1.6-2.4,1.4c-1.1-0.3,0.1-1.3,0.4-1.6c0.3-0.3,0.6-0.7,0.9-1
				c0.6-0.8,1.3-1.7,0.2-2.5c-1.4-0.9-2.6,0.6-3.7,1.2c-0.7,0.4-1.7,0.3-1.5-0.8c0.1-0.8,0.9-1.6,1.5-2c0.4-0.3,1-0.5,1.2-1
				c0.4-0.9-0.5-1.8-1.4-1.9c-1.4-0.2-2.3,1.4-2.8,2.4C51.4,113.4,51.7,113.6,51.8,113.4L51.8,113.4z"/>
		</g>
	</g>
	<g>
		<g>
			<path class="st9" d="M107.3,112.3c-0.5-0.7-1.4-1.9-2.4-1.7c-0.9,0.2-1,1.2-0.7,2c0.3,0.7,0.9,1.1,1.3,1.7
				c0.3,0.4,0.5,0.8,0.4,1.3c-0.5,0.6-0.9,0.7-1.2,0.2c-0.2-0.1-0.4-0.4-0.7-0.5c-0.9-0.5-2.1-0.5-2.6,0.5c-0.5,1.1,0.3,1.3,1,1.8
				c0.9,0.6,1.4,2,0.2,2.8c-0.9,0.6-1.8,0.1-2.4-0.7c-0.4-0.4-0.6-1-1.1-1.2c-0.3,0.2-0.6,0.5-1,0.6c-0.2,0.1-0.3,0.1-0.5,0.2
				c0,1.2,1.2,2.5,2,3.2c0.2,0.1,0.3-0.2,0.2-0.3c-0.6-0.5-1.6-1.4-1.7-2.2c-0.3-0.4-0.1-0.6,0.5-0.7c0.5-0.5,0.9-0.4,1.1,0.3
				c0.1,0.2,0.3,0.4,0.4,0.6c0.5,0.6,1.2,0.9,1.9,0.7c1.5-0.3,2-2.3,0.9-3.3c-0.1-0.1-0.3-0.2-0.4-0.3c-0.1,0-0.2-0.1-0.3-0.1
				c-0.7-0.3-0.6-0.9,0.5-2c0.7,0,1.3,0.5,1.8,0.9c0.1,0.1,0.3,0.4,0.5,0.5c0.4,0.1,0.8-0.3,1-0.6c0.3-0.7,0.1-1.4-0.3-1.9
				c-0.4-0.5-1.1-1-1.3-1.7c-0.2-1,1-1.6,1.7-1c0.3,0.3,0.6,0.7,0.8,1C107.1,112.6,107.4,112.5,107.3,112.3z"/>
		</g>
	</g>
	<g>
		<g>
			<path class="st9" d="M50.3,94c1.3,1.5,3.4,2,5.2,1.3c0.2-0.1,0.1-0.4-0.1-0.3c-1.8,0.6-3.7,0.1-4.9-1.3
				C50.4,93.6,50.1,93.9,50.3,94L50.3,94z"/>
		</g>
	</g>
	<g>
		<path class="st9" d="M58.4,28.8l-1-8.1l-7.2-3.8l7.4-3.5l1.3-8.1l5.6,6l8.1-1.2l-4,7.1l3.6,7.3l-8-1.6L58.4,28.8z M51.3,16.9
			l6.6,3.4l0.9,7.3l5.3-5.2l7.3,1.4L68,17.3l3.6-6.5l-7.3,1.1l-5.1-5.4L58,13.8L51.3,16.9z"/>
	</g>
	<g>
		<path class="st9" d="M92.3,58l-3.8-2.5l-4.2,1.7l1.2-4.4l-2.9-3.5l4.6-0.2l2.4-3.9l1.6,4.3l4.4,1.1L92,53.5L92.3,58z M88.5,54.9
			l3.2,2.1l-0.3-3.8l3-2.4l-3.7-0.9l-1.3-3.6l-2,3.2l-3.8,0.2l2.5,2.9l-1,3.7L88.5,54.9z"/>
	</g>
	<g>
		<g>
			<path class="st7" d="M64.6,23.2c0.5,1.5,0.2,3.3-0.2,4.7c-0.5,1.6-1.4,3-2.4,4.3c-1.1-0.2-2.4,0.2-3.4,0.4
				c-2.2,0.5-4.2,1.4-6.1,2.7c-0.6,0.4-2.9,1.8-1.8,2.7c0.4,0.4,1.3,0.2,1.7,0.2c1.1-0.1,2.2-0.4,3.3-0.8c2.4-1,4.6-2.7,6.3-4.8
				c0.1,0,0.1,0,0.2,0c1.3,0.4,1.8,1.8,1.7,3c-0.1,2-1.6,3.7-3.5,4.5c-0.2,0.1-0.1,0.4,0.1,0.3c1.5-0.6,2.7-1.7,3.3-3.1
				c0.6-1.4,0.7-3.3-0.5-4.4c-0.3-0.3-0.7-0.5-1.1-0.6c0.8-1.1,1.6-2.3,2.1-3.5c0.7-1.7,1-3.7,0.6-5.5
				C64.9,23.2,64.7,23.2,64.6,23.2z M52.9,37.7c-0.3,0-1,0.2-1.2,0.1c-1.5-0.8,0.2-1.8,0.7-2.1c0.7-0.5,1.4-0.9,2.2-1.3
				c1.6-0.8,3.3-1.4,5-1.7c0.7-0.1,1.5-0.3,2.2-0.2C59.5,35,56.3,37.3,52.9,37.7z"/>
		</g>
	</g>
	<g>
		<g>
			<path class="st4" d="M55,46.1c-1.2,1.2-2.7,2.4-3.6,3.8c-0.4,0.6-0.5,1.2,0,1.8c1.4,2,5.2-0.1,6.8-0.9c1.5-0.7,3-1.5,4.3-2.4
				c0.7-0.5,2.4-1.3,2.5-2.3c0.1-0.6-0.4-1.1-0.9-1.2c-1-0.3-1.9,0.4-2.6,1c-0.2,0.1,0.1,0.4,0.2,0.2c0.3-0.3,0.7-0.7,1.2-0.8
				c0.8-0.5,1.1,0.1,0.9,1.8c-0.1,0.1-0.2,0.2-0.4,0.3c-0.5,0.5-1.3,0.9-1.9,1.3c-1.4,0.9-2.9,1.6-4.4,2.3c-0.8,0.3-1.5,0.6-2.3,0.9
				c-0.4,0.1-0.7,0.2-1.1,0.3c-0.3,0-0.6,0.1-0.8,0.1c-1.1,0-1.5-0.5-1.1-1.4c0-1.1,0-0.9,0.6-1.5c0.3-0.3,0.6-0.6,0.9-0.9
				c0.6-0.7,1.3-1.3,1.9-2C55.3,46.2,55.1,46,55,46.1L55,46.1z"/>
		</g>
	</g>
	<g>
		<g>
			<path class="st8" d="M85.1,55.5c-1.4,0.6-2,1.9-3.1,2.9c-1,1-2.8,1.9-3.7,0.2c-0.6-1-0.3-2.3,0.1-3.3c1-2.8,2.9-5.1,1.1-8
				c-1.8-3-5.6-5.5-4.2-9.6c0.5-1.5,1.9-2.7,3.4-1.5c0.7,0.5,1.3,1.3,1.8,2C81,39,81.6,40,82,41c0.1,0.4,0.3,0.7,0.4,1.1
				c0.3,1,0.5,3.4-1.4,3c-0.2,0-0.3,0.3-0.1,0.3c1.2,0.2,2-0.7,2.1-1.8c0.1-1.8-1-3.8-2-5.2c-0.7-1.1-1.9-2.9-3.4-3
				c-1.2-0.1-2.1,1-2.5,2c-1.5,3.7,1.4,6.6,3.5,9.2c1.7,2.1,1.7,4.1,0.6,6.5c-0.7,1.5-1.7,3.1-1.4,4.7c0.2,1.3,1.1,2.4,2.5,2.1
				c2.3-0.4,2.9-3.3,4.9-4.1C85.3,55.7,85.2,55.4,85.1,55.5L85.1,55.5z"/>
		</g>
	</g>
	<g>
		<g>
			<path class="st4" d="M82.8,31.4c2.6-1.5,5,0.6,6.4,2.7c0.8,1.3,1.8,3.2-0.2,3.9c-1.4,0.5-2.7-0.4-3.8-1.1
				c-0.2-0.1-0.3,0.2-0.2,0.3c1.2,0.8,2.7,1.7,4.1,1.1c1.3-0.5,1.7-1.7,1.2-2.9c-1.2-2.7-4.4-6.2-7.7-4.3
				C82.5,31.2,82.7,31.5,82.8,31.4L82.8,31.4z"/>
		</g>
	</g>
	<g>
		<g>
			<path class="st9" d="M57.1,109.4c1.2,2.5,3.2,4.5,5.7,5.9c0.4,0.2,0.7-0.4,0.3-0.6c-2.4-1.3-4.2-3.2-5.4-5.6
				C57.5,108.8,57,109.1,57.1,109.4L57.1,109.4z"/>
		</g>
	</g>
	<g>
		<g>
			<path class="st9" d="M59.7,110.6c0.3,0.1,0.5,0.3,0.8,0.4c0.4,0.2,0.7-0.4,0.3-0.6c-0.3-0.1-0.5-0.3-0.8-0.4
				C59.7,109.9,59.3,110.4,59.7,110.6L59.7,110.6z"/>
		</g>
	</g>
	<g>
		<g>
			<path class="st9" d="M75.3,106.1c-0.2,0.5-0.3,1-0.5,1.5c-0.1,0.2,0.2,0.3,0.3,0.1c0.2-0.5,0.3-1,0.5-1.5
				C75.6,106,75.3,105.9,75.3,106.1L75.3,106.1z"/>
		</g>
	</g>
	<g>
		<g>
			<path class="st9" d="M75.3,106c0,0.3-0.1,0.6-0.3,0.9c-0.1,0.2,0.2,0.3,0.3,0.2c0.2-0.3,0.4-0.7,0.7-1c-0.1-0.1-0.2-0.1-0.3-0.2
				c-0.2,0.3-0.3,0.5-0.5,0.8c-0.1,0.2,0.2,0.3,0.3,0.2c0.1-0.2,0.3-0.4,0.4-0.6c0.1-0.2-0.2-0.3-0.3-0.2c-0.1,0.2-0.3,0.4-0.4,0.6
				c0.1,0.1,0.2,0.1,0.3,0.2c0.2-0.3,0.3-0.5,0.5-0.8c0.1-0.2-0.2-0.3-0.3-0.2c-0.2,0.3-0.4,0.7-0.7,1c0.1,0.1,0.2,0.1,0.3,0.2
				c0.2-0.3,0.3-0.7,0.3-1.1C75.6,105.8,75.3,105.8,75.3,106L75.3,106z"/>
		</g>
	</g>
	<g>
		<g>
			<path class="st9" d="M79.1,105.2c-0.3-0.6,1.3-0.6,1.6-0.9c0.2-0.2,0.4-0.4,0.3-0.7c-0.2-0.7-1.6-0.4-0.9-1.1
				c0.3-0.3,0.8-0.1,0.6-0.7c0-0.2-0.2-0.2-0.3-0.3c-0.2-0.1-0.4-0.3-0.6-0.4c-0.3-0.7-0.2-1,0.3-1c0.2-0.3,0.2,0,0.5-0.3
				c0-0.1,0-0.2-0.1-0.2c-0.8-0.3-0.9-0.9-0.4-1.8c0.1,0,0.2-0.2,0.1-0.3c-0.8-0.9-1.1-1.9-1-3c0-0.2-0.3-0.2-0.3,0
				c-0.1,1.3,0.2,2.3,1.1,3.3c0-0.1,0.1-0.2,0.1-0.3c-0.5,0-0.9,0.3-0.9,0.8c-0.1,0.5,0.8,1.3,0.8,1.3c-0.1,0.3-0.8,0.1-1,0.6
				c-0.2,0.7,0.8,1,1,1.4c0.6,0.8-0.7,0.3-0.9,0.9c-0.1,0.4,0.1,0.5,0.4,0.7c0.1,0,0.3,0,0.4,0.1c0.1,0,0.2,0.1,0.4,0.1
				c-0.2,0.3-0.3,0.5-0.5,0.8c-0.2,0.1-0.6,0-0.9,0.2c-0.4,0.2-0.4,0.6-0.2,1C78.9,105.5,79.2,105.4,79.1,105.2L79.1,105.2z"/>
		</g>
	</g>
	<g>
		<g>
			<path class="st9" d="M56.3,16c-0.6-0.3-1.2-0.2-1.6,0.3c-0.1,0.1-0.1,0.2,0,0.3c0.9,0.4,1.7,0.8,2.6,1.1c0.2,0.1,0.3-0.2,0.2-0.3
				c-0.9-0.4-1.7-0.8-2.6-1.1c0,0.1,0,0.2,0,0.3c0.3-0.3,0.8-0.4,1.3-0.2C56.4,16.4,56.5,16.1,56.3,16L56.3,16z"/>
		</g>
	</g>
	<g>
		<g>
			<path class="st9" d="M60.6,12.4c-0.1-0.7,0-1.3,0.2-1.9c-0.1,0-0.2,0-0.3,0.1c0.4,0.4,0.7,0.8,1.1,1.2c0.1,0.2,0.4-0.1,0.2-0.2
				c-0.4-0.4-0.7-0.8-1.1-1.2c-0.1-0.1-0.2,0-0.3,0.1c-0.3,0.7-0.3,1.4-0.2,2.1C60.3,12.7,60.6,12.6,60.6,12.4L60.6,12.4z"/>
		</g>
	</g>
	<g>
		<g>
			<path class="st9" d="M66.3,13.5c0.7-0.2,1.3-0.3,2-0.5c-0.1-0.1-0.1-0.1-0.2-0.2c-0.2,0.4-0.4,0.8-0.6,1.1
				c-0.1,0.2,0.2,0.3,0.3,0.2c0.3-0.4,0.5-0.8,0.7-1.2c0-0.1-0.1-0.2-0.2-0.2c-0.7,0.2-1.3,0.3-2,0.5C66,13.2,66.1,13.5,66.3,13.5
				L66.3,13.5z"/>
		</g>
	</g>
	<g>
		<g>
			<path class="st9" d="M59.8,21.8c-0.1,0.7,0,1.4,0.1,2.2c0,0.1,0.2,0.2,0.3,0.1c0.3-0.3,0.7-0.6,1-1c0.1-0.1-0.1-0.4-0.2-0.2
				c-0.3,0.3-0.7,0.6-1,1c0.1,0,0.2,0,0.3,0.1c-0.2-0.7-0.2-1.4-0.1-2.1C60.1,21.6,59.8,21.6,59.8,21.8L59.8,21.8z"/>
		</g>
	</g>
	<g>
		<g>
			<path class="st9" d="M66.4,21.3c0.6,0.1,1.1,0.2,1.7,0.3c0.1,0,0.2,0,0.2-0.2c0-0.6-0.1-1.1-0.3-1.6c-0.1-0.2-0.4,0-0.3,0.2
				c0.2,0.4,0.3,0.9,0.3,1.4c0.1-0.1,0.1-0.1,0.2-0.2c-0.6-0.1-1.1-0.2-1.7-0.3C66.3,20.9,66.2,21.2,66.4,21.3L66.4,21.3z"/>
		</g>
	</g>
	<g>
		<g>
			<path class="st9" d="M86.8,51.3c-0.3-0.1-0.5-0.2-0.7-0.3c0,0.1-0.1,0.2-0.1,0.3c0.4,0,0.7,0,1.1,0c0.2,0,0.2-0.3,0-0.3
				c-0.4,0-0.7,0-1.1,0c-0.2,0-0.2,0.2-0.1,0.3c0.2,0.2,0.5,0.3,0.8,0.4C86.9,51.7,87,51.4,86.8,51.3L86.8,51.3z"/>
		</g>
	</g>
	<g>
		<g>
			<path class="st9" d="M88.6,49.8c0.1-0.3,0.1-0.3,0.2-0.8c-0.1,0-0.2,0-0.3,0C88.5,49.5,88.5,49.5,88.6,49.8
				c-0.1,0.2,0.3,0.2,0.3,0c0-0.3,0-0.6-0.1-0.8c0-0.2-0.3-0.1-0.3,0c-0.1,0.3-0.1,0.5-0.2,0.8C88.2,50,88.5,50,88.6,49.8L88.6,49.8
				z"/>
		</g>
	</g>
	<g>
		<g>
			<path class="st9" d="M86.6,53.5c0,0.2,0,0.4,0,0.6c0,0.1,0.1,0.2,0.2,0.1c0.2-0.1,0.4-0.3,0.6-0.4c0.2-0.1,0-0.4-0.2-0.3
				c-0.2,0.1-0.4,0.3-0.6,0.4c0.1,0,0.2,0.1,0.2,0.1c0-0.2,0-0.4,0-0.6C86.9,53.3,86.6,53.3,86.6,53.5L86.6,53.5z"/>
		</g>
	</g>
	<g>
		<g>
			<path class="st9" d="M89.6,54.5c0,0.2,0.1,0.3,0.2,0.4c0.2,0.1,0.3,0.1,0.4-0.1c0.1-0.3,0-0.7-0.3-0.9c-0.2-0.1-0.3,0.2-0.2,0.3
				c0.2,0.1,0.2,0.4,0.1,0.6c0,0,0.1-0.1,0.1-0.1c-0.1,0-0.1-0.1-0.1-0.2C90,54.3,89.6,54.3,89.6,54.5L89.6,54.5z"/>
		</g>
	</g>
	<g>
		<g>
			<path class="st9" d="M90.7,51.4c0.4,0.1,0.7,0.1,1.1,0.2c0-0.1,0-0.2,0-0.3c-0.3,0.1-0.5,0.2-0.8,0.3c-0.2,0.1,0,0.4,0.2,0.3
				c0.3-0.1,0.5-0.2,0.8-0.3c0.1-0.1,0.1-0.3,0-0.3c-0.4-0.1-0.7-0.1-1.1-0.2C90.6,51.1,90.5,51.4,90.7,51.4L90.7,51.4z"/>
		</g>
	</g>
	<g>
		<g>
			<path class="st9" d="M79.4,89.4c0.3-0.7,0.6-1.4,1.1-1.9c0.4-0.5,1.3-1.4,2.1-1.3c0.3-0.1,0.4,0.1,0.3,0.5
				c0.2,0.2,0.2,0.4,0.1,0.6c-0.1,0.2-0.3,0.4-0.4,0.5c-0.3,0.3-0.6,0.5-0.9,0.7c-0.7,0.4-1.5,0.5-2.3,0.4c-0.2,0-0.2,0.3,0,0.3
				c1.1,0.1,2.1-0.2,3-0.8c0.5-0.4,1.6-1.5,1.1-2.2c-0.5-0.7-1.7-0.1-2.3,0.2c-1,0.7-1.6,1.8-2.1,2.9C79,89.4,79.3,89.6,79.4,89.4
				L79.4,89.4z"/>
		</g>
	</g>
	<g>
		<g>
			<path class="st9" d="M78,88.7c-0.3-0.6-0.6-1.2-0.7-1.8c-0.1-0.3-0.1-0.6-0.1-0.9c0-0.2,0-0.4,0.1-0.7c0-0.3,0.1-0.4,0.3-0.2
				c0.4,0.1,0.3,0.3,0.3,0.6c0,0.3,0,0.6,0,0.9c0,0.6,0,1.2-0.1,1.8c0,0.2,0.3,0.2,0.3,0c0-0.5,0.6-4.7-0.8-4.1
				c-0.5,0.2-0.5,1.3-0.5,1.7c0,1,0.3,1.9,0.8,2.8C77.8,89.1,78.1,88.9,78,88.7L78,88.7z"/>
		</g>
	</g>
	<g>
		<g>
			<path class="st9" d="M94.9,88.5c1.4,1.9,1.7,4.2,0.9,6.4c-0.1,0.2,0.2,0.3,0.3,0.1c0.9-2.3,0.6-4.7-0.9-6.7
				C95,88.2,94.7,88.4,94.9,88.5L94.9,88.5z"/>
		</g>
	</g>
	<g>
		<g>
			<path class="st9" d="M97.5,90.5c0.3,1.7,0.2,3.3-0.3,4.9c-0.1,0.2,0.3,0.3,0.3,0.1c0.5-1.7,0.5-3.4,0.3-5.1
				C97.8,90.2,97.5,90.3,97.5,90.5L97.5,90.5z"/>
		</g>
	</g>
	<g>
		<g>
			<path class="st9" d="M79.6,90c2.4,0.7,4.8,1.5,7.1,2.5c0.2,0.1,0.3-0.2,0.1-0.3c-2.3-0.9-4.7-1.8-7.1-2.5
				C79.5,89.6,79.4,90,79.6,90L79.6,90z"/>
		</g>
	</g>
	<g>
		<path class="st9" d="M70.4,59.2c-0.2,0.3-0.4,0.5-0.5,0.8c-0.3,0.4,0.4,0.7,0.6,0.4c0.2-0.3,0.4-0.5,0.5-0.8
			C71.3,59.2,70.6,58.9,70.4,59.2L70.4,59.2z"/>
	</g>
	<g>
		<path class="st9" d="M73.5,59.7c0,0.7,0,1.3,0,2c0,0.5,0.7,0.5,0.7,0c0-0.7,0-1.3,0-2C74.2,59.2,73.5,59.2,73.5,59.7L73.5,59.7z"
			/>
	</g>
</g>
</svg>
