<?xml version="1.0" encoding="utf-8"?>
<!-- Generator: Adobe Illustrator 24.0.1, SVG Export Plug-In . SVG Version: 6.00 Build 0)  -->
<svg version="1.1" id="Layer_1" xmlns="http://www.w3.org/2000/svg" xmlns:xlink="http://www.w3.org/1999/xlink" x="0px" y="0px"
	 viewBox="0 0 141.7 141.7" style="enable-background:new 0 0 141.7 141.7;" xml:space="preserve">
<style type="text/css">
	.st0{fill:#E8F3F9;}
	.st1{fill:#E26A27;}
	.st2{fill:#FFFFFF;}
	.st3{fill:#FDED1E;}
	.st4{fill:#FFC521;}
	.st5{fill:#4D342A;}
	.st6{fill:#C9B09D;}
	.st7{fill:#BB2025;}
	.st8{fill:#2E9445;}
	.st9{fill:#070707;}
	.st10{fill:#FAA324;}
</style>
<g>
	<polygon class="st0" points="39.7,113 39.4,116.4 42.1,118.6 38.7,119.4 37.5,122.6 35.7,119.6 32.3,119.4 34.5,116.8 33.7,113.5 
		36.8,114.8 	"/>
	<polygon class="st0" points="47.6,128.4 47.2,131.2 49.3,133.1 46.5,133.6 45.4,136.2 44,133.7 41.2,133.4 43.2,131.3 42.6,128.6 
		45.2,129.8 	"/>
	<polygon class="st0" points="101.7,127.4 101.6,130.4 104,132.2 101.1,132.9 100.1,135.7 98.5,133.3 95.5,133.2 97.4,130.9 
		96.5,128.1 99.3,129.1 	"/>
	<polygon class="st0" points="112.2,113.1 111.6,115.2 112.9,117 110.7,117 109.5,118.8 108.8,116.7 106.7,116.1 108.4,114.8 
		108.4,112.6 110.2,113.9 	"/>
	<polygon class="st0" points="77.7,114.4 76.4,120.2 80.4,124.5 74.6,125 71.7,130.2 69.4,124.8 63.6,123.6 68,119.7 67.3,113.9 
		72.4,116.9 	"/>
	<polygon class="st0" points="81.4,129.6 80.6,130.7 81,132 79.7,131.5 78.6,132.3 78.6,130.9 77.5,130.1 78.8,129.7 79.3,128.4 
		80,129.6 	"/>
	<polygon class="st0" points="61.5,126.2 60.6,128.2 61.7,130.1 59.5,129.8 58.1,131.5 57.6,129.3 55.6,128.5 57.5,127.4 
		57.7,125.2 59.3,126.7 	"/>
	<path class="st1" d="M73.7,56.2l-2.9,0.5l-2.5,1.1l-1.3-1.7l-2-0.2l0.1-2l-1.4-0.4l-2,0.9l1.7-3.8l-1.5,0.2l0.9-5.3l1.8-3.8
		l-1.5-0.4l-1.7,1.3l-0.3,2.4c0.2,1.1,0,2.2-0.5,3.2L60.4,49l-1.3,1.2l-0.8,0.7l-0.8-0.6c-0.4,0.1-0.8,0.1-1.2,0.1
		c-0.2,0-0.4,0-0.6,0c-0.2,0.1-0.3,0.1-0.5,0.2L55.2,51c-1,0.4-2,0.8-3.1,1.3c-0.5,0.3-1,0.5-1.5,0.8l-2.3-5.1l-1.5-1.7l-1.1,0.1
		L45,48.1c0,0-0.6,3.5,2.1,6.8l-1.7,1.5l-6,6.4l-5.1,5.7l-2.6,3.6l-1.3,4.6c0.2-0.7,1.2-2.8,4.8-5l-0.9,2.8l-0.6,3.6l1.1-0.4
		c0,0,5.4-10.8,19.5-6.4c0,0,9.5,3.4,10.7,10.7l1.8,1c0,0-1.5-6.1,1-8.7l1,1.9l0.5-10.6l-0.1-4.2l1.6,0.6c0,0,4.9-0.8,4.9-4.2
		c0-0.3,0-0.6,0-0.8L73.7,56.2z"/>
	<path class="st1" d="M55,97.4l1.2,2l-0.4,2.3l-0.9,2.5c0,0-4.7,2.8-8.1,3.1c-0.2,0.3-0.4,0.6-0.6,0.9c-0.1,0.7-0.1,2.2,0.8,3.6
		c0.7,1.3,1.7,1.9,2.5,2.4c1.1,0.7,2.2,1.1,2.9,1.2c0,0,4.2,1.9,12.2-1.7l3.9-5.3c0,0,6.5-6,11.3-1.2c0,0,2.3,2.5,2.5,7.7
		c0,0,6.2,5.5,12.8,1.2c0,0,5.3-3,7.2-8.6c0,0-7.7,1.2-11.7-2.3c0,0-3.8-3.1,0.5-4.7c0,0,6.5-1.5,4.4-8.7c0,0-1.1-4.5-5.4-6.7
		c0,0,2.5,2.3,0.8,4.7c0,0-2.1,4.1-6.7,1.2c0,0-2.1-1-4.3,0.4l-3.8,1.1l-3.8,0.5l-3.8-0.9l-3.3-2.3C65.1,90.1,62.5,95.4,55,97.4z"/>
	<circle class="st2" cx="52.6" cy="62.9" r="4.6"/>
	<circle class="st2" cx="61.4" cy="67.1" r="4.6"/>
	<polygon class="st3" points="55,17.6 55.9,13.5 53.1,10 57.7,9.4 60.4,5.4 61.7,10.3 66.5,11.4 63,14.2 63.2,18.6 59.6,16 	"/>
	<polygon class="st3" points="62,36 63.7,33.3 64.8,36.8 67.5,37.5 65.7,39.4 66,42.6 63.1,41.1 59.9,42.2 61.3,39 59.2,36.5 	"/>
	<polygon class="st4" points="87.3,45.1 89.3,36.8 94.7,43.4 103.4,42 99.4,49.3 102.7,57.1 94.6,55.6 88.5,61.5 87.7,53 79.6,49 	
		"/>
	<path class="st5" d="M49.8,51.2l0.7-2.8c0,0,0.6-4.5-3.2-5.4l-3.6-0.4c0,0-2.9-0.6-2.3-2.5c0,0,1.2-3,4.6-2.2c0,0,2.5-0.1,4,1.4
		c-0.2-0.9-0.3-1.9-0.5-2.8c0.2-1.1,0.4-2.2,0.6-3.2c0.3-1.1,0.1-2.4-0.7-3.2c-0.8-0.8-1.8-0.9-2.1-0.9c-1.2-0.2-2.4-0.4-3.6-0.6
		c-0.2-0.1-0.4-0.3-0.6-0.6c-0.2-0.6,0.1-1.2,0.2-1.5c0.3-0.6,0.7-0.9,0.7-0.9c0,0-0.5,0.3-0.9,0.8c-0.2,0.2-0.3,0.4-0.3,0.6
		c0.3-0.4,1-1.1,2.2-1.5c1.5-0.5,2.8-0.1,3.2,0c1.2,0.5,2.5,0.9,3.7,1.4c0,0,1.6,0.6,2.3-1.6l2.3-5.6l2-3.1c0,0,3-0.9,2.3,2.3
		l-2.4,4.5L56,29.6l-1.7,6.6l-0.5,9.9l0.7,5.1l-4,1.9L49.8,51.2z"/>
	<path class="st5" d="M65.1,54.4l5.5-6.2c0,0,7.5-11,9.8-19.4c0,0,3.1-8.1,4.6-6.8c0,0,2.2,0.2-0.5,8l-2.4,4.2L81.3,37
		c0,0-1,1.5,4.5,4.5c0,0,2.4,0.7,2.2,2.9l-0.8,1.8l-1.6,0.3l-6.1-2.1l-1.8-0.9L76.2,45L74,49.3l0.5,1l3.1,0.9c0,0,2.3,1.6,1.6,3.4
		c0,0-1.4,2.5-4.9-0.4c0,0-3.9-3.9-5,0l-1,3.4c0,0-0.4-2.5-3.3-1.9L65.1,54.4z"/>
	<path class="st6" d="M34.8,77.7c0,0,6.2-11.6,21.4-5.6c0,0,11.3,4.1,9.5,16.3c0,0-4.2,11.6-18.5,8.5C47.2,96.9,31.1,93.2,34.8,77.7
		z"/>
	<path class="st7" d="M43.2,113.7c0,0,2-2.1,3.8-1.2l1.6,1.7c0,0,0.7,2.5-3.1,4.2c0,0-0.2,1.8,5.4,4.7c0,0-0.9-6.5,3.2-7.1l1.4,0.1
		c0,0,2.3,3.3,1.3,6c0,0,3-1.3,6.9-7.8l-2.7,1.2c0,0-15.7,2.3-14.9-7.5C46.1,108,40.9,108,43.2,113.7z"/>
	<path class="st7" d="M89.6,123.3c0,0-1.6-2.8,1.9-5.5l1.8-0.1c0,0,3.8,1.8,3,6c0,0,4.8-1.3,5.3-3.7c0,0-3.9-0.4-3.5-6l2.4-2.8
		c0,0,4.3-0.9,4.1,2.3c0,0,0.6-1.7-0.3-6.1l-2.2,0.3c0,0-6.7,16.7-20,7.4C82.1,115.1,84,121.1,89.6,123.3z"/>
	<path class="st8" d="M89.6,123.3c0,0-1.7-3.9,2.6-5.7l1.3-0.2c0,0,4.1,3,2.8,6.3C96.2,123.7,91.8,124.2,89.6,123.3z"/>
	<path class="st8" d="M102.1,120.2c0,0-4.6-0.6-4.1-6.3l2.4-2.8c0,0,3.8-1.1,4.5,2.3C104.9,113.5,104.4,117.9,102.1,120.2z"/>
	<path class="st8" d="M57.1,121.7l-0.2-2.6l-1.4-2.6l0-0.5l-1.9-0.2c0,0-4,2.2-2.7,7.1C50.9,123,56.9,123,57.1,121.7z"/>
	<path class="st8" d="M45,118.2c0,0,2.5,0.7,3.5-4.1l-1.6-1.7c-0.3-0.1-1.4-0.5-2.7,0.1c-0.8,0.3-1.2,0.9-1.4,1.2
		c0.1,0.3,0.3,0.7,0.4,1C43.8,116,44.4,117.2,45,118.2z"/>
	<path class="st6" d="M47.8,55.2l0.1-2c0,0-0.1-4.1-2.8-5.6C45.2,47.6,43.9,51.7,47.8,55.2z"/>
	<path class="st6" d="M69.3,61.4c0,0,1-3.4,6.5-3.3L74.9,60L73.4,61l-1.5,0.8L69.3,61.4z"/>
	<path class="st7" d="M71.6,93.5c0,0,1.2,6.7-4.6,16.4c0,0,2.1-2.7,5.6-4.1c0,0,1.1-11.5-0.1-12.3C71.3,92.7,71.6,93.5,71.6,93.5z"
		/>
	<polygon class="st7" points="75.4,105.5 75.9,92.8 77.3,92.1 77.8,100.7 80.1,108 77.3,106.4 	"/>
	<path class="st7" d="M72.7,93l1.2-1.8c0,0,1.4-2.2-0.3-4.8c0,0,3.8-1.1,3.1,2l-0.1,1.4l-1.2,2.6L72.7,93z"/>
	<path class="st7" d="M71.9,88c0,0-3.8-4-1.9-5.1l0.3-1.1l1.2,0.2l1,0.5l1,4l-1.3-1.1l-0.8-0.7l-0.3,0.7l0.3,1.1l1.5,0.7L71.9,88z"
		/>
	<path class="st7" d="M76.7,87.2l2.7-0.9c0,0,3.9-2.5,0.6-5.4c-0.6-0.1-2.2-0.3-3.8,0.6c-2.7,1.5-3,4.6-3,4.9
		c0.6-0.1,1.1-0.1,1.7-0.2c0,0,0.3-3.2,3.9-3.2l0.3,1.3c0,0-1.1,1.2-3.4,2c-0.3,0.1-0.8,0.3-0.8,0.5C75,87,75.9,87.1,76.7,87.2z"/>
	<path class="st5" d="M44.5,76.2L43.3,77c0,0,0.6,3.1,3.1,1.2C46.3,78.2,47.2,77.3,44.5,76.2z"/>
	<path class="st5" d="M55.8,81.7c0,0,0.4-2.7,2.6-0.8l0.1,0.8C58.5,81.6,57.5,83.2,55.8,81.7z"/>
	<g>
		<g>
			<path class="st9" d="M52.6,67.6c-1.3,0-2.6-0.5-3.6-1.6l0,0c-1.7-2-1.5-5,0.5-6.7c2-1.7,5-1.5,6.7,0.5c1.7,2,1.5,5-0.5,6.7
				C54.8,67.2,53.7,67.6,52.6,67.6z M49.3,65.7c1.6,1.8,4.3,2,6.1,0.4c1.8-1.6,2-4.3,0.4-6.1c-1.6-1.8-4.3-2-6.1-0.4
				C48,61.2,47.8,63.9,49.3,65.7L49.3,65.7z"/>
		</g>
		<g>
			<path class="st9" d="M55.3,62.2c0.6-0.5,0.7-1.5,0.1-2.1c-0.5-0.6-1.5-0.7-2.1-0.1c-0.6,0.5-0.7,1.5-0.1,2.1
				C53.8,62.7,54.7,62.8,55.3,62.2z M53.3,60.8c0.2-0.2,0.4-0.1,0.6,0c0.2,0.2,0.1,0.4,0,0.6c-0.2,0.2-0.4,0.1-0.6,0
				C53.1,61.2,53.1,61,53.3,60.8z"/>
		</g>
	</g>
	<g>
		<g>
			<path class="st9" d="M61.4,71.8c-1.8,0-3.6-1.1-4.3-2.9l0,0c-0.5-1.2-0.5-2.4,0-3.6s1.4-2.1,2.5-2.6c1.2-0.5,2.4-0.5,3.6,0
				c1.2,0.5,2.1,1.4,2.6,2.5c0.5,1.2,0.5,2.4,0,3.6c-0.5,1.2-1.4,2.1-2.5,2.6C62.6,71.6,62,71.8,61.4,71.8z M57.4,68.7
				c0.9,2.2,3.5,3.2,5.7,2.3c1.1-0.5,1.9-1.3,2.3-2.4c0.4-1.1,0.4-2.2,0-3.3C64.9,64.3,64,63.5,63,63c-1.1-0.4-2.2-0.4-3.3,0
				c-1.1,0.5-1.9,1.3-2.3,2.4C56.9,66.5,57,67.7,57.4,68.7L57.4,68.7z"/>
		</g>
		<g>
			<path class="st9" d="M64.1,67.3c0.7-0.3,1.1-1.2,0.8-1.9c-0.3-0.7-1.2-1.1-1.9-0.8c-0.7,0.3-1.1,1.2-0.8,1.9
				C62.5,67.3,63.4,67.6,64.1,67.3z M62.6,65.3c0.2-0.1,0.5,0,0.5,0.2c0.1,0.2,0,0.5-0.2,0.5c-0.2,0.1-0.5,0-0.5-0.2
				C62.3,65.6,62.4,65.4,62.6,65.3z"/>
		</g>
	</g>
	<g>
		<path class="st9" d="M51.6,97.7c-1.8,0-3.6-0.3-5.4-0.8l0,0c-8.7-2.5-14-10.5-11.9-17.7c2.1-7.2,10.9-11,19.6-8.5
			c4.2,1.2,7.7,3.7,10,7c2.3,3.3,3,7.1,1.9,10.6c-1,3.5-3.6,6.3-7.3,7.9C56.3,97.3,54,97.7,51.6,97.7z M46.3,96.4
			c4.1,1.2,8.3,1,11.8-0.6c3.5-1.5,6-4.2,7-7.6c1-3.3,0.3-6.9-1.9-10.1c-2.2-3.2-5.6-5.6-9.7-6.8c-8.4-2.4-16.8,1.2-18.9,8.1
			C32.7,86.4,37.9,94,46.3,96.4z"/>
	</g>
	<g>
		<g>
			<path class="st9" d="M34,78.4c0.2-2.2,0.8-4.4,1.8-6.4c0.1-0.3-0.2-0.7-0.5-0.5c-2.4,1.3-4.4,3.3-5.7,5.7
				c0.2,0.1,0.4,0.2,0.6,0.3c0.9-6.1,5.4-9.8,9.2-14.2c0.7-0.8,7-8.4,7.9-7.7c0.3,0.3,0.8-0.2,0.5-0.5c-1.3-1.5-2.1-3.2-2.4-5.1
				c-0.2-1.1-0.2-4.4,1.6-2.7c1.4,1.3,2.6,4,2.9,6c0.1,0.4,0.8,0.4,0.7,0c-0.2-1.4-0.9-2.9-1.5-4.2c-0.5-1-1.4-2.8-2.8-3
				c-1.6-0.2-1.9,1.8-1.8,3c0.2,2.4,1.2,4.7,2.8,6.5c0.2-0.2,0.3-0.3,0.5-0.5c-0.9-0.8-2.6,1-3.2,1.5c-1.8,1.7-3.5,3.6-5.1,5.5
				c-4,4.7-9,8.7-10,15.2c-0.1,0.4,0.4,0.7,0.6,0.3c1.3-2.4,3.1-4.2,5.4-5.5c-0.2-0.2-0.3-0.3-0.5-0.5c-1,2.2-1.6,4.4-1.9,6.8
				C33.3,78.9,34,78.9,34,78.4L34,78.4z"/>
		</g>
	</g>
	<g>
		<g>
			<path class="st9" d="M54.9,51c-1.1-6.5-0.7-13.2,1-19.6c0.8-3.1,2-6.2,3.5-9.1c0.8-1.5,3.4-4.7,1.2-6.2c-1.9-1.2-3.3,1.8-3.9,3
				c-0.6,1.3-1.1,2.7-1.7,4c-0.3,0.7-0.6,1.4-1,2c-0.6,1-1,1.7-2.3,1.2c-1.4-0.6-2.3-1.3-3.9-1.5c-1.2-0.2-2.6-0.1-3.7,0.3
				c-1.6,0.6-2.6,2.5-0.7,3.5c2.4,1.2,6.9,0,6.6,4.1c-0.2,2.2-1.6,4.7-0.2,6.7c0.2-0.1,0.4-0.3,0.5-0.4c-1.6-1.3-3.7-1.9-5.7-1.5
				c-1.5,0.3-4,1.4-3.5,3.4c0.5,2.2,3.1,2.3,4.9,2.3c1.9,0.1,3.5,0.8,4.1,2.7c0.6,1.8,0.1,3.7-0.3,5.5c-0.1,0.4,0.6,0.6,0.7,0.2
				c0.8-3.2,1.2-8.2-3.2-9c-1.2-0.2-2.4,0-3.5-0.3C42,41.8,41,40,42.8,38.8c2.2-1.3,5-1,7,0.6c0.3,0.2,0.8-0.1,0.5-0.4
				c-2-2.9,2.6-7.8-1.6-9.9c-0.8-0.4-1.7-0.5-2.6-0.6c-0.6-0.1-1.1-0.1-1.7-0.3c-0.3-0.1-0.9-0.2-1-0.3c0-0.5-0.1-1.1-0.1-1.6
				c0.3-0.2,0.6-0.4,0.9-0.5c1.4-0.6,3.2-0.5,4.6,0c0.7,0.2,1.4,0.5,2,0.9c0.5,0.3,0.9,0.7,1.5,0.7c1.7,0,2.8-3.2,3.3-4.4
				c0.5-1.1,0.9-2.3,1.4-3.4c0.3-0.5,0.5-1.1,0.8-1.6c0.2-0.3,0.4-0.7,0.6-0.9c0.3-0.5,0.7-0.6,1.2-0.3c0.8,0,1.1,0.4,0.8,1.4
				c-0.2,1.2-1.3,2.5-1.9,3.6c-0.6,1.2-1.1,2.4-1.6,3.6c-1,2.5-1.8,5.1-2.4,7.8c-1.3,5.9-1.4,11.9-0.5,17.9
				C54.3,51.6,55,51.4,54.9,51L54.9,51z"/>
		</g>
	</g>
	<g>
		<g>
			<path class="st9" d="M65,55c4-3.9,7.4-8.3,10.1-13.1c2.9-5.1,4.5-10.6,7-15.9c0.3-0.6,0.6-1.2,0.9-1.7c0.4-0.8,0.7-1.6,1.6-1.8
				c0.9-0.2,0.7-0.1,0.7,0.7c0,0.4,0,0.8,0,1.2c-0.1,1-0.2,1.9-0.5,2.8c-0.7,2.9-2.4,5.2-3.5,7.8c-0.8,2-0.4,3.8,1.5,5
				c0.9,0.6,2,0.9,3,1.5c1.5,0.8,3.6,3.7,0.8,4.4c-1.3,0.3-2.7-0.2-3.9-0.7c-0.9-0.3-1.7-0.7-2.6-1.1c-0.7-0.3-1.6-0.8-2.3-0.9
				c-0.9-0.1-1.3,0.4-1.7,1.2c-0.9,1.7-1.7,3.4-2.6,5.1c-0.1,0.2,0,0.4,0.1,0.5c1.4,0.8,3.4,1,4.5,2.3c1.1,1.2,0.9,3.3-1.1,3.1
				c-1-0.1-1.9-0.9-2.6-1.5c-0.9-0.7-2.1-1.6-3.3-1.5c-1.4,0.1-1.5,1.4-2,2.6c-0.2,0.4,0.4,0.8,0.6,0.4c0.2-0.5,0.4-1.2,0.8-1.7
				c0.6-0.8,1.6-0.4,2.3,0c1,0.5,1.7,1.4,2.6,1.9c1.1,0.6,2.6,1.1,3.6,0.1c0.9-0.9,0.7-2.4,0-3.4c-1.1-1.6-3.3-1.9-4.9-2.8
				c0,0.2,0.1,0.3,0.1,0.5c0.8-1.6,1.5-3.4,2.5-4.8c0.3-0.4,0.7-1,1.2-1.1c0.3-0.1,1.1,0.4,1.4,0.6c0.9,0.4,1.7,0.7,2.6,1.1
				c1.7,0.7,4.3,1.9,6,0.5c1.8-1.4,0.6-3.6-0.8-4.7c-1-0.8-2.2-1.1-3.3-1.7c-2.1-1.1-2.4-3-1.4-5c1.4-2.9,3-5.5,3.6-8.7
				c0.2-1,0.9-5-1.2-4.7c-0.9,0.1-1.5,1.4-1.9,2.1c-0.8,1.4-1.4,2.8-2.1,4.2c-1.3,3.1-2.4,6.3-3.8,9.4c-3,6.6-7.2,12.5-12.4,17.6
				C64.2,54.8,64.7,55.3,65,55L65,55z"/>
		</g>
	</g>
	<g>
		<g>
			<path class="st9" d="M65.7,91.2c2.6,1.9,5.9,2.8,9.1,2.2c1.9-0.4,3.6-1.3,5.5-1.8c1.1-0.3,2.2-0.4,3.3-0.1
				c0.9,0.3,1.8,0.9,2.7,1.1c2.3,0.6,5-1.1,5.4-3.5c0.4-2.5-1.6-4.8-4.1-5.1c-0.4,0-0.4,0.6-0.1,0.7c5.1,2,10.7,7.5,7.1,13.3
				c-0.7,1.1-1.7,1.9-2.9,2.3c-1,0.3-2.1,0.5-2.7,1.4c-1.2,1.7,0.5,3.7,2,4.6c2.3,1.4,5.4,2,8.1,2.1c0.8,0,1.7,0,2.5-0.1
				c0.6-0.1,1.3-0.3,1.8-0.3c0.6,0.1,0.4-0.2,0.7,0.6c0.1,0.2,0.2,0.4,0.2,0.7c0.2,0.8,0.3,1.6,0.4,2.4c0.2,5-3,10.2-7.9,11.6
				c-5,1.4-10.7-1.2-13.1-5.7c-1.4-2.5-1.2-5.5-2.3-8.1c-0.9-2.2-2.8-3.8-5.2-4.1c-5.2-0.8-9.3,4.1-11.8,8
				c-2.8,4.3-6.6,10.4-12.6,9.2c-3.1-0.6-5.6-3-7-5.7c-0.8-1.5-1.4-3.1-1.5-4.8c-0.1-1.3,0-2.6,1.3-3.3c0.7-0.4,1.6-0.6,2.4-0.8
				c2.8-0.8,6.1-1.3,8.2-3.5c1.6-1.7,2.3-4.1,1.2-6.2c-0.2-0.4-0.8,0-0.6,0.4c1.3,2.4-0.3,5.1-2.3,6.5c-2.1,1.4-4.7,1.7-7.1,2.4
				c-1.6,0.5-3.3,1.1-3.7,2.9c-0.4,1.8,0.2,3.8,0.9,5.5c1.3,3.3,4.1,6.4,7.6,7.4c3.7,1,7.1-0.8,9.6-3.4c2.9-3.1,4.7-7.2,7.7-10.2
				c1.8-1.7,4-3.3,6.6-3.4c2.9-0.1,5.2,1.7,6.1,4.4c0.7,2.1,0.7,4.3,1.5,6.3c0.6,1.6,1.6,3,2.9,4.1c2.5,2.4,6.1,3.7,9.6,3.5
				c7.9-0.6,12.7-9.9,9.4-16.9c-0.1-0.1-0.3-0.2-0.4-0.2c-2.4,0.5-4.8,0.6-7.2,0.2c-2.1-0.3-4.7-0.9-6.3-2.5
				c-1.1-1.1-1.6-2.7,0.1-3.5c0.7-0.3,1.4-0.4,2.1-0.8c1.2-0.6,2.2-1.5,2.8-2.7c1.4-2.5,1.3-5.5-0.1-8c-1.6-2.9-4.6-4.8-7.6-6
				c0,0.2-0.1,0.5-0.1,0.7c3.4,0.4,4.6,4.9,1.6,6.7c-2.6,1.6-5-1.1-7.7-0.8c-2.5,0.3-4.7,1.7-7.1,2.1c-2.9,0.5-5.9-0.3-8.3-2.1
				C65.6,90.3,65.3,90.9,65.7,91.2L65.7,91.2z"/>
		</g>
	</g>
	<g>
		<g>
			<path class="st9" d="M55.7,51.9c0-0.6-0.1-0.8,0.5-1c0.8-0.3,0.3,0,0.9,0.1c0.4,0.1,0.7,0.2,1.2,0.2c0.8-0.1,1.6-0.7,2.1-1.3
				c0.7-0.9,0.8-2.1,0.9-3.2c0.1-1.7,0.3-5.5,3-4.8c-0.1-0.1-0.2-0.3-0.2-0.4c-1.2,3.1-2,6.3-2.3,9.6c0,0.3,0.3,0.4,0.5,0.3
				c0.4-0.2,0.7-0.3,1.1-0.5c-0.2-0.1-0.3-0.3-0.5-0.4c-0.4,1.3-0.8,2.5-1.2,3.8c-0.1,0.3,0.3,0.5,0.5,0.4c0.5-0.4,1.1-0.5,1.7-0.3
				c0.9-0.2,1.2,0.2,1,1.2c-0.2,0.3,0,0.6,0.3,0.6c4-0.6,3.7,7.4,3.8,9.8c0.1,3.5,0,6.9-0.1,10.4c0.2-0.1,0.4-0.1,0.7-0.2
				c-0.5-0.8-1-1.6-1.5-2.4c-0.2-0.3-0.5-0.2-0.6,0.1c-1.2,3.1-1.6,6.3-1.1,9.6c0.2-0.1,0.4-0.2,0.6-0.3c-0.4-0.5-0.9-1-1.3-1.5
				c-0.3-0.3-0.8,0.2-0.5,0.5c0.4,0.5,0.9,1,1.3,1.5c0.3,0.3,0.6,0,0.6-0.3c-0.4-3.2,0-6.3,1.1-9.3c-0.2,0-0.4,0.1-0.6,0.1
				c0.5,0.8,1,1.6,1.5,2.4c0.2,0.3,0.6,0.2,0.7-0.2c0.1-4.7,0.3-9.4-0.2-14.1c-0.3-2.6-0.7-7.4-4.5-6.8c0.1,0.2,0.2,0.4,0.3,0.6
				c0.5-0.6,0.5-1.5-0.1-2.1c-0.9-0.9-2.3-0.4-3.4,0.1c0.2,0.1,0.3,0.3,0.5,0.4c0.4-1.3,0.8-2.5,1.2-3.8c0.1-0.3-0.3-0.5-0.5-0.4
				c-0.4,0.2-0.7,0.3-1.1,0.5c0.2,0.1,0.4,0.2,0.5,0.3c0.3-3.3,1.1-6.4,2.3-9.4c0.1-0.2-0.1-0.4-0.2-0.4c-1.2-0.3-2.3,0.2-3,1.3
				c-1.1,1.5-0.8,3.3-1,5c-0.1,1.3-0.6,2.7-2,3.1c-1,0.3-1.5-0.8-2.4-0.7c-1,0.1-1.1,1.4-1,2.2C55,52.4,55.7,52.4,55.7,51.9
				L55.7,51.9z"/>
		</g>
	</g>
	<g>
		<g>
			<path class="st9" d="M71.6,93.5c0,5.4-1.5,10.6-4.5,15.1c-0.2,0.4,0.4,0.7,0.6,0.4c3-4.6,4.6-9.9,4.6-15.4
				C72.3,93,71.6,93,71.6,93.5L71.6,93.5z"/>
		</g>
	</g>
	<g>
		<g>
			<path class="st9" d="M77,93c0,5.3,1,10.5,3,15.5c0.2,0.4,0.8,0.2,0.7-0.2c-2-4.9-3-10-3-15.3C77.7,92.6,77,92.6,77,93L77,93z"/>
		</g>
	</g>
	<g>
		<g>
			<path class="st9" d="M40.1,85.1c1.9-2.5,4.1,3,5.2,3.8c0.6,0.5,1.3,0.6,2.1,0.5c0.7-0.1,1.3-0.5,2-0.5c0.7,0,1.5,0.1,2.2,0.3
				c2,0.5,4.2,1.7,6.3,0.9c1.5-0.6,2.5-2.1,2.1-3.6c-0.1-0.4-0.8-0.3-0.7,0.2c0.5,1.8-1.3,3-2.9,3c-1.3,0-2.6-0.5-3.9-0.9
				c-1-0.3-2-0.6-3.1-0.6c-1.3,0.1-2.4,1-3.7,0.1c-1.5-1-1.7-3.3-3.3-4.1c-1-0.5-2.2-0.4-2.9,0.5C39.3,85.1,39.9,85.4,40.1,85.1
				L40.1,85.1z"/>
		</g>
	</g>
	<g>
		<g>
			<path class="st9" d="M45.6,73.2c2.7,0.2,4.8,2.8,4.4,5.4c0,0.2,0.3,0.2,0.4,0c0.4-2.9-1.9-5.6-4.8-5.8
				C45.4,72.8,45.4,73.1,45.6,73.2L45.6,73.2z"/>
		</g>
	</g>
	<g>
		<g>
			<path class="st9" d="M54.4,79.5c0.6-1.5,2.5-2,3.8-1.1c0.2,0.1,0.4-0.2,0.2-0.3c-1.5-1-3.6-0.4-4.3,1.3
				C54,79.6,54.3,79.7,54.4,79.5L54.4,79.5z"/>
		</g>
	</g>
	<g>
		<g>
			<path class="st9" d="M45,76.7c0.7,0.3,1.1,0.8,1.3,1.5c0-0.1,0-0.2,0-0.3c-0.4,0.7-1.4,0.9-2,0.4c-0.6-0.6-0.5-1.6,0.1-2.1
				c0.4-0.3-0.1-0.8-0.5-0.5c-1.4,1.1-0.7,3.5,1.1,3.6c0.6,0,1.7-0.4,1.9-1.1c0.1-0.4-0.3-0.9-0.5-1.2c-0.3-0.4-0.7-0.7-1.1-0.9
				C45,75.9,44.6,76.5,45,76.7L45,76.7z"/>
		</g>
	</g>
	<g>
		<g>
			<path class="st9" d="M56.5,81.7c-0.4,0-0.3-0.7-0.1-0.9c0.6-0.6,1.6,0.4,2,0.8c0-0.1,0-0.3-0.1-0.4c-0.3,0.6-1.1,0.9-1.7,0.6
				c-0.4-0.2-0.8,0.4-0.4,0.6c0.9,0.5,2.2,0.1,2.6-0.8c0.1-0.1,0.1-0.3-0.1-0.4c-0.7-0.7-2.3-1.8-3.2-0.6c-0.4,0.7-0.3,1.9,0.7,1.9
				C57,82.4,57,81.7,56.5,81.7L56.5,81.7z"/>
		</g>
	</g>
	<g>
		<g>
			<path class="st9" d="M45.8,108.3c-0.9,3.7,2.8,6.4,5.9,7.4c4,1.2,8.4,0.7,12-1.4c0.4-0.2,0-0.8-0.4-0.6
				c-3.1,1.7-6.7,2.4-10.1,1.6c-3.1-0.6-7.7-3-6.7-6.8C46.6,108,45.9,107.8,45.8,108.3L45.8,108.3z"/>
		</g>
	</g>
	<g>
		<g>
			<path class="st9" d="M82.1,115.1c2.5,3,6.9,3.8,10.6,2.7c4.2-1.3,7.3-4.9,9.4-8.6c0.2-0.4-0.4-0.7-0.6-0.4
				c-2,3.5-4.7,6.8-8.6,8.2c-3.5,1.3-7.8,0.6-10.3-2.4C82.3,114.2,81.8,114.7,82.1,115.1L82.1,115.1z"/>
		</g>
	</g>
	<g>
		<g>
			<path class="st9" d="M73.2,93.3c-0.9-2-1.9-5.3,0.8-6.5c1.3-0.6,2.6,0.1,2.7,1.7c0,1.4-1,2.5-2,3.4c-0.3,0.3,0.2,0.8,0.5,0.5
				c1.2-1.2,2.4-2.6,2.1-4.4c-0.2-1.2-1.2-2.1-2.4-2.1c-1.3,0-2.5,0.9-3,2.1c-0.8,1.8-0.1,3.9,0.6,5.6
				C72.7,93.9,73.4,93.7,73.2,93.3L73.2,93.3z"/>
		</g>
	</g>
	<g>
		<g>
			<path class="st9" d="M71.9,87.3c-1.2-0.7-3-3-1.9-4.5c0.1-0.5,0.5-0.6,1.2-0.3c0.6-0.3,1-0.2,1.1,0.2c0.3,0.3,0.4,0.8,0.5,1.2
				c0.2,0.8,0.3,1.5,0.2,2.3c0,0.2,0.3,0.2,0.3,0c0.7-1.8,1.5-4,3.3-5c1.9-1,5.3-0.1,4.5,2.6c-0.4,1.4-1.9,2.2-3.2,2.6
				c-1.1,0.3-2.8,0.8-3.8,0c-0.7-0.5-1.1-2.2-1.2-3c-0.4-1.7,0.1-4.1,2.3-4.1c0.1,0,0.2-0.1,0.2-0.2c-0.2-1.1-0.4-2.3-0.1-3.4
				c0.4-1.3,1.9-2.2,3.1-1.3c0.1,0.1,0.3-0.1,0.3-0.2c-0.1-0.8-0.2-1.5,0-2.3c0.3-0.9,1.5-2,2.3-0.9c0.1,0.1,0.4,0.1,0.3-0.1
				c-0.6-2,1.5-4.1,3.5-3.5c0.2,0.1,0.3-0.3,0.1-0.3c-2.3-0.7-4.6,1.6-4,3.9c0.1,0,0.2-0.1,0.3-0.1c-0.6-0.8-1.6-0.8-2.3-0.2
				c-1.1,0.8-0.8,2.4-0.6,3.6c0.1-0.1,0.2-0.1,0.3-0.2c-0.9-0.6-2-0.5-2.8,0.3c-1.1,0.9-1.1,2.4-1,3.7c0.1,1,0,0.8-0.8,1.1
				c-0.5,0.2-0.9,0.7-1.2,1.2c-0.9,1.5-0.3,3.3,0.2,4.8c0.4,1,0.8,2,2.1,2c1.6,0.1,3.8-0.4,5-1.4c2-1.5,1.9-4.5-0.7-5.2
				c-3.6-1-5.4,2.8-6.5,5.6c0.1,0,0.2,0,0.3,0c0.1-1.3-0.7-6.2-3-4.5c-2.2,1.5-0.3,4.9,1.4,5.9C71.9,87.7,72,87.4,71.9,87.3
				L71.9,87.3z"/>
		</g>
	</g>
	<g>
		<g>
			<path class="st9" d="M73.2,84.3c-0.5-2.6,2.1-5,4.7-4.3c0.1,0,0.3-0.1,0.2-0.2c-0.7-2.1,1.9-3.6,3.2-1.7c0.1,0.1,0.3,0.1,0.3-0.1
				c-0.1-0.8,0.6-2.6,1.6-2.4c1,0.1,1.7,1.6,1.6,1.6c0.1,0,0.2,0,0.4,0c0.2-0.8,2.8-2.6,4.6-1.5c0.9,0.5,1.5,1.7,1.8,2.7
				c0.1,0.2,0.1,0.6,0.2,0.8c0.2,0.6-0.2,0.8-1.1,0.5c-0.2-0.4,0.3-1.2,0.5-1.4c1-1.5,3.4-2.1,4.6-0.4c1,1.4,0.7,3.5-0.7,4.4
				c-0.2,0.1,0,0.4,0.2,0.3c2-1.3,2-4.7-0.2-5.8c-1.2-0.6-2.7-0.2-3.7,0.7c-0.7,0.7-1.5,2.1-0.9,3.1c0.5,0.8,1.2,0.5,1.5-0.3
				c0.5-1.2-0.3-2.8-1.1-3.7c-1.8-2.1-5.8-1.8-6,1.4c0,0.2,0.3,0.2,0.4,0c0.3-3-4.2-3-3.9,0c0.1,0,0.2-0.1,0.3-0.1
				c-0.7-0.9-1.8-1.4-2.9-0.8c-0.4,0.2-0.8,0.6-1,1.1c-0.1,0.2-0.1,1.4-0.2,1.4c-0.1,0.1-1.6,0-1.9,0.1c-0.6,0.2-1.2,0.5-1.6,1
				c-1.1,1-1.5,2.3-1.3,3.8C72.9,84.6,73.2,84.5,73.2,84.3L73.2,84.3z"/>
		</g>
	</g>
	<g>
		<g>
			<path class="st9" d="M73.6,86.5c1.4,2.2,0.8,5.3-1.4,6.8c-0.2,0.1,0,0.4,0.2,0.3c2.4-1.6,3.1-4.9,1.5-7.3
				C73.7,86.1,73.4,86.3,73.6,86.5L73.6,86.5z"/>
		</g>
	</g>
	<g>
		<g>
			<path class="st9" d="M72.3,93.1c0.7,4.2,0.7,8.4,0,12.6c0,0.2,0.3,0.3,0.3,0.1c0.8-4.2,0.8-8.5,0-12.8
				C72.6,92.8,72.3,92.9,72.3,93.1L72.3,93.1z"/>
		</g>
	</g>
	<g>
		<g>
			<path class="st9" d="M75.7,93.1c-0.1,2.3-0.3,4.7-0.4,7c-0.1,1.1-0.1,2.2-0.2,3.4c0,0.7-0.3,1.4,0.1,2c0,0,0.1,0.1,0.2,0.1
				c0.2,0,0.3,0,0.4-0.2c0.1-0.1,0.1-0.1,0-0.2c0,0,0-0.1-0.1-0.1c-0.1-0.2-0.4,0-0.3,0.2c-0.3-0.7,0-2.1,0.1-2.9
				c0.1-1,0.1-2,0.2-3.1c0.1-2,0.2-4.1,0.3-6.1C76.1,92.8,75.7,92.8,75.7,93.1L75.7,93.1z"/>
		</g>
	</g>
	<g>
		<g>
			<path class="st9" d="M36.9,120.3c0,0,2.9,0,3.9,0c1,0,1,0,0,0C39.9,120.3,38.9,120.3,36.9,120.3L36.9,120.3L36.9,120.3z"/>
		</g>
	</g>
	<g>
		<g>
			<path class="st9" d="M47,58.2c1.6-0.9,3.3-1.5,5.2-1.7c0.2,0,0.2-0.4,0-0.4c-1.9,0.2-3.7,0.8-5.4,1.7C46.6,58,46.8,58.3,47,58.2
				L47,58.2z"/>
		</g>
	</g>
	<g>
		<g>
			<path class="st9" d="M63.9,60.8c2.2,1.9,3.4,4.5,3.3,7.4c0,0.2,0.3,0.2,0.4,0c0.1-3-1.1-5.7-3.4-7.6C64,60.4,63.8,60.6,63.9,60.8
				L63.9,60.8z"/>
		</g>
	</g>
	<g>
		<g>
			<path class="st9" d="M45.2,47.6c2.1,1.9,3,4.7,2.7,7.5c0,0.2,0.3,0.3,0.3,0.1c0.4-2.9-0.6-5.8-2.7-7.8
				C45.3,47.2,45.1,47.4,45.2,47.6L45.2,47.6z"/>
		</g>
	</g>
	<g>
		<g>
			<path class="st9" d="M68.1,58.3c1.1-1.1,2.4-1.7,3.9-1.8c1-0.1,3.8,0,3.7,1.4c-0.1,1.2-1.4,2.4-2.4,3c-1.3,0.7-2.7,0.9-4.1,0.4
				c-0.2-0.1-0.3,0.3-0.1,0.3c3.1,1.1,6.7-1.2,7-4.5c0-0.1,0-0.1-0.1-0.2c-2.6-1.6-6.1-1.2-8.3,1C67.7,58.3,67.9,58.5,68.1,58.3
				L68.1,58.3z"/>
		</g>
	</g>
	<g>
		<g>
			<path class="st9" d="M69.8,61.4c-1-0.3,0.9-1.6,1-1.7c0.5-0.3,1-0.5,1.5-0.7c1.1-0.5,2.3-0.7,3.5-0.9c0.2,0,0.2-0.4,0-0.4
				c-2,0.2-4.3,0.8-5.9,2.1c-0.5,0.4-1.2,1.6-0.2,1.9C69.9,61.8,70,61.4,69.8,61.4L69.8,61.4z"/>
		</g>
	</g>
	<g>
		<g>
			<path class="st9" d="M43.2,113.7c1-1,2.4-1.5,3.8-1.2c0.2,0,0.3-0.3,0.1-0.3c-1.5-0.3-3,0.2-4.1,1.3
				C42.8,113.6,43,113.9,43.2,113.7L43.2,113.7z"/>
		</g>
	</g>
	<g>
		<g>
			<path class="st9" d="M45.7,118.6c1.8-0.8,3-2.5,3.2-4.5c0-0.2-0.3-0.2-0.4,0c-0.2,1.8-1.4,3.4-3.1,4.2
				C45.3,118.4,45.5,118.7,45.7,118.6L45.7,118.6z"/>
		</g>
	</g>
	<g>
		<g>
			<path class="st9" d="M51.2,122.3c-0.8-2.2,0.1-4.7,2.2-5.9c0.2-0.1,0-0.4-0.2-0.3c-2.2,1.2-3.2,3.9-2.3,6.3
				C50.9,122.6,51.2,122.5,51.2,122.3L51.2,122.3z"/>
		</g>
	</g>
	<g>
		<g>
			<path class="st9" d="M55.5,116.6c1.2,1.6,1.6,3.5,1.3,5.5c0,0.2,0.3,0.3,0.3,0.1c0.4-2.1-0.1-4.1-1.3-5.8
				C55.7,116.2,55.4,116.4,55.5,116.6L55.5,116.6z"/>
		</g>
	</g>
	<g>
		<g>
			<path class="st9" d="M89.9,123.1c-1-1.8-0.1-4.2,1.7-5c0.2-0.1,0-0.4-0.2-0.3c-2.1,0.9-2.9,3.5-1.9,5.5
				C89.7,123.5,90,123.3,89.9,123.1L89.9,123.1z"/>
		</g>
	</g>
	<g>
		<g>
			<path class="st9" d="M93.3,117.7c2,1.1,3.2,3.2,2.9,5.5c0,0.2,0.3,0.2,0.4,0c0.2-2.4-1-4.7-3.1-5.8
				C93.2,117.3,93.1,117.6,93.3,117.7L93.3,117.7z"/>
		</g>
	</g>
	<g>
		<g>
			<path class="st9" d="M101.6,120c-2.8-0.8-4.2-4.2-2.9-6.8c0.1-0.2-0.2-0.4-0.3-0.2c-1.4,2.8,0.1,6.4,3.1,7.3
				C101.7,120.4,101.8,120.1,101.6,120L101.6,120z"/>
		</g>
	</g>
	<g>
		<g>
			<path class="st9" d="M100.6,111.4c1.6-0.9,3.7,0.2,4,2c0,0.2,0.4,0.2,0.4,0c-0.3-2.1-2.7-3.3-4.5-2.3
				C100.2,111.3,100.4,111.6,100.6,111.4L100.6,111.4z"/>
		</g>
	</g>
	<g>
		<g>
			<path class="st9" d="M47.4,91.4c1.5-0.5,3.1,0.3,3.7,1.7c0.1,0.2,0.4,0.1,0.3-0.1c-0.6-1.6-2.4-2.6-4.1-2
				C47.1,91.1,47.2,91.4,47.4,91.4L47.4,91.4z"/>
		</g>
	</g>
	<g>
		<path class="st9" d="M88.2,61.9L87.1,53l-7.9-4.1l8.1-3.8l1.5-8.8l6.1,6.5l8.9-1.3l-4.3,7.8l4,8l-8.8-1.7L88.2,61.9z M80.4,48.9
			l7.2,3.7l1,8l5.8-5.7l8,1.5l-3.6-7.3l3.9-7.1l-8,1.2l-5.5-5.9l-1.3,8L80.4,48.9z"/>
	</g>
	<g>
		<path class="st9" d="M63.4,19.1l-4.2-2.8l-4.6,1.9l1.3-4.8l-3.2-3.8l5-0.2l2.6-4.3l1.8,4.7L67,11L63,14.2L63.4,19.1z M59.3,15.8
			l3.5,2.3l-0.3-4.2l3.3-2.6l-4-1l-1.5-3.9L58,9.9l-4.2,0.2l2.7,3.2l-1.1,4L59.3,15.8z"/>
	</g>
	<g>
		<path class="st9" d="M66.2,43.1l-3-2l-3.4,1.4l1-3.5l-2.3-2.8L62,36l1.9-3.1l1.3,3.4l3.5,0.9l-2.8,2.3L66.2,43.1z M63.2,40.5
			l2.3,1.5l-0.2-2.8l2.2-1.7l-2.7-0.7l-1-2.6l-1.5,2.4l-2.8,0.1l1.8,2.1l-0.7,2.7L63.2,40.5z"/>
	</g>
	<g>
		<g>
			<path class="st7" d="M63,19.2c-0.2-0.1-0.4,0.1-0.2,0.2c0.6,0.5,1.1,1,1.5,1.6c0.6,1,0.7,2.8-0.7,3.3c-0.8,0.3-2-0.4-2.7-0.7
				c-0.7-0.3-1.5-0.6-2.2-0.8c-1.5-0.5-3-0.9-4.6-1.3c-0.9-0.2-1.9-0.3-2.8,0c-1.6,0.7-0.8,2.1,0.2,2.9c1.2,1,2.4,2.1,3.6,3.1
				c0.5,0.4,1,0.8,1.4,1.3c0.3,0.4,0.6,0.9,0.7,1.3c0.2,0.8-0.4,2.3-1.5,2.2c0,0.1-0.1,0.2-0.1,0.3c1.6,0.3,2.4-2,1.6-3.4
				c-0.8-1.4-2.3-2.4-3.5-3.4c-0.7-0.6-1.8-1.3-2.3-2c-1.8-2.4,1.3-2.3,2.3-2.1c2,0.4,4,1,5.9,1.7c1.3,0.5,3.1,1.7,4.5,1
				C66.5,23.2,64.4,20.3,63,19.2z"/>
		</g>
	</g>
	<g>
		<g>
			<path class="st10" d="M87.9,42.8c-1.9-2.3-4.1-4.2-6.6-5.8c-1.7-1.1-4.6-3.1-6.8-2.4c-2.1,0.6-1.6,3-0.9,4.5
				c0.5,1.2,1.3,2.4,2.1,3.4c0.5,0.6,1.2,1.2,1.7,1.9c0.3,0.4,0.7,0.9,0.8,1.5c-0.1,0.5-0.1,0.9-0.2,1.4c-0.8,0.9-1.5,0.8-2.1-0.1
				c-0.1-0.2-0.4-0.1-0.3,0.1c0.5,1.5,2.5,1.2,2.9-0.2c0.3-1-0.1-2.1-0.8-2.9c-1-1.3-2.2-2.3-3-3.7c-0.9-1.5-2.7-5.3,0.3-5.7
				c1.6-0.2,3.3,0.9,4.7,1.7c3,1.7,5.7,3.9,7.9,6.6C87.8,43.2,88.1,43,87.9,42.8L87.9,42.8z"/>
		</g>
	</g>
	<g>
		<g>
			<path class="st9" d="M48.7,110.4c2,2.6,5.4,3.7,8.6,2.6c0.4-0.1,0.2-0.8-0.2-0.7c-2.8,1-6,0.1-7.8-2.3
				C49.1,109.7,48.5,110,48.7,110.4L48.7,110.4z"/>
		</g>
	</g>
	<g>
		<g>
			<path class="st9" d="M53.1,110.9c0,0,0.8,0,1.6,0c0.5,0,0.5-0.5,0-0.5c-0.8,0-1,0-1.6,0C52.5,110.3,52.5,110.9,53.1,110.9
				C53.1,110.9,52.5,110.9,53.1,110.9z"/>
		</g>
	</g>
	<g>
		<g>
			<path class="st9" d="M58.8,10.5c0.2-0.4,0.5-0.7,0.7-1.2c-0.1,0-0.2,0-0.3,0c0.1,0.5,0.3,0.7,0.4,1c0.1,0.2,0.4,0.1,0.3-0.1
				c-0.1-0.3-0.3-0.6-0.4-0.9c-0.1-0.1-0.2-0.1-0.3,0c-0.2,0.4-0.5,0.7-0.7,1.1C58.4,10.6,58.7,10.7,58.8,10.5L58.8,10.5z"/>
		</g>
	</g>
	<g>
		<g>
			<path class="st9" d="M57,12c-0.2-0.3-0.4-0.6-0.7-0.9c0,0.1-0.1,0.2-0.1,0.3c0.4-0.1,0.8-0.1,1.2,0.1c0.2,0.1,0.3-0.3,0.1-0.3
				c-0.4-0.2-0.9-0.2-1.4-0.1c-0.1,0-0.2,0.2-0.1,0.3c0.2,0.3,0.4,0.6,0.7,0.9C56.9,12.3,57.2,12.2,57,12L57,12z"/>
		</g>
	</g>
	<g>
		<g>
			<path class="st9" d="M57.4,14.1c-0.1,0.3-0.2,0.6-0.2,0.9c0,0.1,0.1,0.2,0.3,0.2c0.4-0.2,0.7-0.3,1.1-0.5c0.2-0.1,0-0.4-0.2-0.3
				c-0.4,0.2-0.7,0.3-1.1,0.5c0.1,0.1,0.2,0.1,0.3,0.2c0-0.3,0-0.5,0.1-0.8C57.8,14,57.5,13.9,57.4,14.1L57.4,14.1z"/>
		</g>
	</g>
	<g>
		<g>
			<path class="st9" d="M60.4,14.7c0,0.3,0.2,0.5,0.4,0.6c0.1,0,0.1,0,0.2,0c0.3-0.2,0.4-0.6,0.2-1c-0.1-0.2-0.4,0-0.3,0.2
				c0.1,0.2,0.1,0.5-0.1,0.5c0.1,0,0.1,0,0.2,0c-0.1,0-0.2-0.2-0.2-0.4C60.8,14.5,60.4,14.5,60.4,14.7L60.4,14.7z"/>
		</g>
	</g>
	<g>
		<g>
			<path class="st9" d="M61.5,11.8c0.4,0,0.8,0,1.2,0c-0.1-0.1-0.1-0.2-0.2-0.3c-0.1,0.2-0.2,0.3-0.4,0.5c-0.1,0.2,0.2,0.4,0.3,0.2
				c0.1-0.2,0.2-0.3,0.4-0.5c0.1-0.1,0-0.3-0.2-0.3c-0.4,0-0.8,0-1.2,0C61.3,11.4,61.3,11.8,61.5,11.8L61.5,11.8z"/>
		</g>
	</g>
	<g>
		<g>
			<path class="st9" d="M90.2,44.8c0-0.9,0-1.8,0.3-2.7c-0.1,0-0.2,0-0.3,0c0.4,0.6,0.9,1.2,1.3,1.7c0.1,0.2,0.4,0,0.3-0.2
				c-0.4-0.6-0.9-1.2-1.3-1.7c-0.1-0.1-0.3-0.1-0.3,0c-0.2,0.9-0.3,1.9-0.3,2.8C89.9,45.1,90.2,45.1,90.2,44.8L90.2,44.8z"/>
		</g>
	</g>
	<g>
		<g>
			<path class="st9" d="M96.5,45.4c0.7-0.4,1.4-0.6,2.2-0.7c-0.1-0.1-0.1-0.1-0.2-0.2c-0.2,0.6-0.5,1.2-0.7,1.8
				c-0.1,0.2,0.3,0.3,0.3,0.1c0.2-0.6,0.5-1.2,0.7-1.8c0.1-0.1-0.1-0.2-0.2-0.2c-0.8,0.1-1.6,0.4-2.3,0.7
				C96.1,45.2,96.3,45.5,96.5,45.4L96.5,45.4z"/>
		</g>
	</g>
	<g>
		<g>
			<path class="st9" d="M85.7,48.2c-0.5,0.3-1,0.5-1.5,0.6c-0.2,0-0.2,0.2,0,0.3c0.7,0.4,1.4,0.8,2.1,1.1c0.2,0.1,0.4-0.2,0.2-0.3
				c-0.7-0.3-1.4-0.7-2.1-1.1c0,0.1,0,0.2,0,0.3c0.6-0.1,1.1-0.3,1.6-0.6C86.1,48.3,85.9,48,85.7,48.2L85.7,48.2z"/>
		</g>
	</g>
	<g>
		<g>
			<path class="st9" d="M89.1,54.5c0.1,0.6,0.3,1.2,0.4,1.7c0,0.1,0.2,0.2,0.3,0.1c0.5-0.4,0.9-0.8,1.2-1.4c0.1-0.2-0.2-0.4-0.3-0.2
				c-0.2,0.5-0.6,1-1,1.3c0.1,0,0.2,0.1,0.3,0.1c-0.1-0.6-0.3-1.2-0.4-1.7C89.3,54.2,89,54.3,89.1,54.5L89.1,54.5z"/>
		</g>
	</g>
	<g>
		<g>
			<path class="st9" d="M96.9,53.9c0.5,0.4,1.1,0.5,1.8,0.4c0.1,0,0.2-0.1,0.1-0.2c-0.2-0.5-0.4-1-0.6-1.5c-0.1-0.2-0.4-0.1-0.3,0.1
				c0.2,0.5,0.4,1,0.6,1.5c0-0.1,0.1-0.1,0.1-0.2c-0.5,0.1-1.1-0.1-1.5-0.4C96.9,53.5,96.7,53.8,96.9,53.9L96.9,53.9z"/>
		</g>
	</g>
	<g>
		<g>
			<path class="st9" d="M73.1,105.6c0.6,0.3,2.1,0,1.9-0.9c-0.1-0.4-0.4-0.4-0.7-0.5c-0.2,0-0.4,0-0.5,0c-0.5-0.4-0.4-0.5,0.2-0.5
				c0.4-0.1,0.6-0.2,1-0.3c0.1-0.1,0.1-0.2,0-0.3c-0.3-0.1-1.9-1-1.8-1.2c0.2-0.4,1.3-0.4,1.6-0.5c0.1,0,0.1-0.1,0.1-0.2
				c0-0.4-0.1-0.3-0.3-0.7c-0.1-0.1-0.3-0.1-0.4-0.2c-0.7-0.8-0.2-0.9,0.5-1.1c0.2,0,0.2-0.3,0-0.3c-0.8-0.1-1-0.6-0.7-1.7
				c0.1,0,0.2,0.1,0.4,0.1c0.1,0,0.3,0,0.4,0c0.3-0.1,0.6-0.2,0.7-0.5c0.2-0.8-1-0.8-1.3-1c-0.4-0.2-0.4-0.8,0.1-1
				c0,0,0.3,0.1,0.4,0.1c0.3-0.2,0.4,0,0.6-0.4c0.3-0.8-0.6-1.1-1.2-1.2c-0.2,0-0.2,0.3,0,0.4c0.2,0.6,0.2,0.8,0,0.7
				c-0.1,0-0.2-0.1-0.3-0.1c-0.1,0-0.3,0-0.4,0c-0.3,0.1-0.4,0.3-0.5,0.5c-0.4,1.2,1,1.1,1.5,1.6c0.8,0.7-0.8,0.5-1.1,0.7
				c-0.3,0.1-0.2,0.3-0.3,0.6c-0.3,1.1,0.6,1.5,1.9,1.7c0-0.1,0-0.2,0-0.3c-1.3,0.2-2.2,0.3-2,1.1c0,0.3,0.2,0.4,0.4,0.6
				c0.3,0.2,1-0.2,0.9,0.6c0,0.1-1.4,0.3-1.5,0.4c-0.1,0-0.2,0.2-0.1,0.3c0.3,0.3,0.6,0.7,1,0.9c0.2,0.2,0.5,0.3,0.7,0.5
				c-0.4,0.2-0.9,0.3-1.4,0.2c-0.1,0-0.1,0.1-0.2,0.1c-0.1,0.3-0.2,0.4,0.1,0.7c0.1,0.1,0.3,0.1,0.4,0.2c0.2,0,0.3,0,0.5,0.1
				c1,0.7,0.8,0.9-0.5,0.8C73.1,105.3,72.9,105.6,73.1,105.6L73.1,105.6z"/>
		</g>
	</g>
	<g>
		<g>
			<path class="st9" d="M61.9,39.6c0,0.1,0,0.1,0,0.2c0,0.2,0.4,0.1,0.3-0.1c0-0.1,0-0.1,0-0.2C62.2,39.3,61.9,39.4,61.9,39.6
				L61.9,39.6z"/>
		</g>
	</g>
	<g>
		<g>
			<path class="st9" d="M61,37.5c0.1,0.1,0.3,0.2,0.4,0.3c0.2,0.1,0.4-0.1,0.2-0.2c-0.1-0.1-0.3-0.2-0.4-0.3
				C61.1,37.1,60.9,37.3,61,37.5L61,37.5z"/>
		</g>
	</g>
	<g>
		<g>
			<path class="st9" d="M63.4,37c0.1-0.1,0.2-0.2,0.3-0.3c0.2-0.1-0.1-0.4-0.2-0.2c-0.1,0.1-0.2,0.2-0.3,0.3
				C62.9,36.9,63.2,37.1,63.4,37L63.4,37z"/>
		</g>
	</g>
	<g>
		<g>
			<path class="st9" d="M64.7,38.1c0.2-0.1,0.4-0.1,0.5-0.2c0.2-0.1,0.1-0.4-0.1-0.3c-0.2,0.1-0.4,0.1-0.5,0.2
				C64.4,37.8,64.5,38.2,64.7,38.1L64.7,38.1z"/>
		</g>
	</g>
	<g>
		<g>
			<path class="st9" d="M64,40.2c0.1,0.1,0.1,0.1,0.2,0.2c0.2,0.2,0.4-0.1,0.2-0.2c-0.1-0.1-0.1-0.1-0.2-0.2
				C64.1,39.8,63.8,40.1,64,40.2L64,40.2z"/>
		</g>
	</g>
	<g>
		<g>
			<path class="st9" d="M74.9,86.3c0.4-1.2,1.4-2.6,2.7-3c1.1-0.3,1.6,0.7,0.9,1.4c-0.2,0.2-0.5,0.4-0.7,0.5
				c-0.6,0.3-1.2,0.4-1.8,0.7c-0.2,0.1,0,0.4,0.2,0.3c0.9-0.5,2.2-0.6,2.8-1.5c0.4-0.6,0.3-1.5-0.3-1.8c-0.8-0.4-1.7,0.3-2.3,0.7
				c-0.8,0.7-1.4,1.6-1.8,2.6C74.5,86.4,74.8,86.5,74.9,86.3L74.9,86.3z"/>
		</g>
	</g>
	<g>
		<g>
			<path class="st9" d="M72.3,86.7c-0.9-0.2-1.4-1.3-1-2.2c-0.1,0-0.2,0-0.2,0.1c0.8,0.4,1.4,1,1.6,1.9c0.1,0.2,0.4,0.1,0.3-0.1
				c-0.2-0.9-0.9-1.7-1.8-2.1c-0.1,0-0.2,0-0.2,0.1c-0.5,1.1,0.1,2.4,1.3,2.7C72.5,87.1,72.6,86.8,72.3,86.7L72.3,86.7z"/>
		</g>
	</g>
	<g>
		<g>
			<path class="st9" d="M90.9,87c0.9,1.3,1.1,2.9,0.7,4.4c-0.1,0.2,0.3,0.3,0.3,0.1c0.4-1.6,0.1-3.3-0.8-4.7
				C91.1,86.6,90.8,86.8,90.9,87L90.9,87z"/>
		</g>
	</g>
	<g>
		<g>
			<path class="st9" d="M93.6,89.3c0.3,1.6,0.1,3.2-0.7,4.6c-0.1,0.2,0.2,0.4,0.3,0.2c0.8-1.5,1.1-3.2,0.8-4.9
				C93.8,89,93.5,89.1,93.6,89.3L93.6,89.3z"/>
		</g>
	</g>
	<g>
		<path class="st9" d="M34.2,78.8c0.2-0.3,0.4-0.5,0.7-0.7c0.5-0.2,0.3-1-0.2-0.8c-0.5,0.2-0.9,0.5-1.2,1
			C33.3,78.8,34,79.2,34.2,78.8L34.2,78.8z"/>
	</g>
	<g>
		<path class="st9" d="M69.2,54.2c-0.4,1.1-0.9,2.1-1.3,3.2c-0.2,0.5,0.6,0.7,0.8,0.2c0.4-1.1,0.9-2.1,1.3-3.2
			C70.2,54,69.4,53.8,69.2,54.2L69.2,54.2z"/>
	</g>
	<g>
		<path class="st9" d="M66,90.6c-0.2-0.3-0.5-0.5-0.7-0.8c-0.3-0.4-0.9,0.2-0.6,0.6c0.2,0.3,0.5,0.5,0.7,0.8
			C65.8,91.5,66.4,91,66,90.6L66,90.6z"/>
	</g>
	<g>
		<path class="st9" d="M56,98.1c-0.2-0.4-0.5-0.7-0.8-1c-0.4-0.3-0.8,0.4-0.4,0.7c0.2,0.2,0.4,0.4,0.6,0.7
			C55.6,98.9,56.3,98.5,56,98.1L56,98.1z"/>
	</g>
</g>
</svg>
