<?xml version="1.0" encoding="utf-8"?>
<!-- Generator: Adobe Illustrator 24.0.1, SVG Export Plug-In . SVG Version: 6.00 Build 0)  -->
<svg version="1.1" id="Layer_1" xmlns="http://www.w3.org/2000/svg" xmlns:xlink="http://www.w3.org/1999/xlink" x="0px" y="0px"
	 viewBox="0 0 141.7 141.7" style="enable-background:new 0 0 141.7 141.7;" xml:space="preserve">
<style type="text/css">
	.st0{opacity:0.47;fill:url(#SVGID_1_);}
	.st1{fill:#BB2025;}
	.st2{fill:#991C1F;}
	.st3{fill:#C9B09D;}
	.st4{fill:#EFEDED;}
	.st5{fill:#FFFFFF;}
	.st6{fill:#45494D;}
	.st7{fill:#4D342A;}
	.st8{fill:#DF8926;}
	.st9{fill:url(#SVGID_2_);}
	.st10{fill:#F7A639;}
	.st11{fill:#B66EAD;}
	.st12{fill:#F4A127;}
	.st13{fill:#804983;}
	.st14{fill:#A66AAA;}
	.st15{fill:#DD9FC7;}
	.st16{fill:#F5EC33;}
	.st17{fill:#9D5F9F;}
	.st18{fill:#22572B;}
	.st19{fill:#229446;}
	.st20{fill:#089B90;}
	.st21{fill:#363795;}
	.st22{fill:#4E51A2;}
	.st23{fill:#3E469D;}
	.st24{fill:#7778B9;}
	.st25{fill:#F7EF6D;}
	.st26{fill:#F7C526;}
	.st27{fill:#D27228;}
	.st28{fill:#F5EC33;stroke:#010101;stroke-width:0.2047;stroke-miterlimit:10;}
	.st29{fill:#75CEEB;}
	.st30{opacity:0.5;fill:url(#SVGID_3_);}
	.st31{opacity:0.5;fill:url(#SVGID_4_);}
	.st32{opacity:0.5;fill:url(#SVGID_5_);}
	.st33{fill:#231F20;}
	.st34{fill:#070707;}
	.st35{fill:#010101;}
	.st36{fill:url(#SVGID_6_);}
</style>
<linearGradient id="SVGID_1_" gradientUnits="userSpaceOnUse" x1="18.9188" y1="124.6614" x2="135.9527" y2="124.6614">
	<stop  offset="0" style="stop-color:#30C1D4"/>
	<stop  offset="1" style="stop-color:#757E8F"/>
</linearGradient>
<ellipse class="st0" cx="77.4" cy="124.7" rx="58.5" ry="12.1"/>
<path class="st1" d="M73.9,70.2c-0.1-0.2-0.8,0.2-1.5,0.2c-1-0.1-2.3-1.2-3.5-5.3c0.4-0.2,0.9-0.3,1.4-0.4c1.4-0.2,2.5,0,3.2,0.2
	c0.3,0.1,0.7,0.2,1.2,0.1c0.6-0.1,0.9-0.5,1.7-1c0.3-0.2,0.8-0.5,1.5-0.8c0.6,0,1.2,0,1.8,0c0,0,0.8,0.1,1.6-0.3
	c0.9-0.5,1.3-1.2,1.4-1.5l1.9-0.4l5.6,1.5l1.6,0.3l0.9-0.5l1.3,6.1l0.8,2.8l2,6.2l2.7,7.9l1.6,6.8l0.8,5.9l0,3.8
	c0,0-4.2,0.2-3.6,2.3l0.6,0.6l-0.7,0.7c0,0-3.7,1.4-2.8,3.7c0,0,1.4,2.1-0.5,3.1c0,0-1,1.5,0.1,2.8l1.1,3.3l0.8,1
	c0,0-3.5,5.4-10.6,8c0,0,0.8-2-1-2.8c0,0-4.3-1.8-3.1-3.3l2-1.9c0,0-5.2-4.4-13,0.7c0,0-1.1-3-4.3,0l-1,0.3l-1.6,0.1
	c0,0-1.4,1.1-1.3,2.3l-0.4,0.1l-0.7,0c0,0-1.2-0.9-1.5,2.4v1.5l-0.5,0.5l-11.6-3.2l-0.7-2.8c0,0-0.5-1.7,1.1-1.6c0,0-0.2-1-2.9-3.2
	c0,0-0.9-0.5-0.2-0.9c0,0-1.9-4.6-8.1-3.1c0,0-1.7,0.8-1-0.8c0,0-1.8-1.5-3.9,1.5l-0.9,1.2l-0.7,0.1l-1-0.3c0,0-4.9-4.8-5.5-17.1
	c0,0,3.9-2.2,5.8-4.8c0,0-1.4,11.2,11.6,17.7l0.3-1.6c0,0-2.3-4.3,2.2-6.8c0,0,4.4,8.7,19,12.1l-0.3-1.1c-0.2-0.5-0.6-1.4-1.1-2.4
	c-1.3-2.9-1.4-2.8-1.6-3.5c-0.1-0.5-0.8-2.6-0.2-5.2c0.1-0.4,0.4-1.3,1.1-3.1c0.5-1.2,0.8-2.2,1.1-2.8c0.4,0.1,1.1,0.3,1.9,0.3
	c1.9,0,3.2-0.7,4.3-1.2c0.3-0.2,1.8-0.9,1.6-1.3c-0.1-0.2-0.4-0.1-1.1-0.3c-0.6-0.1-1-0.3-1.3-0.5c-0.7-0.3-2.7-1.5-3.8-3.9
	c-0.9-2-0.7-3.8-0.6-4.3c0.3-1.4,0.6-2.4,0.9-3.1c0.8-1.8,1.4-2.3,1.6-3.9c0.1-0.9,0.2-1.5,0-2.3c-0.2-0.7-0.5-1.2-0.3-1.4
	c0.2-0.2,0.7,0,0.9,0.1c1.6,0.6,3.3,0,4.1-0.3C72.7,72.2,74.1,70.5,73.9,70.2z"/>
<path class="st2" d="M43.3,20.9c2.2-2.4,4.5-4.7,6.7-7.1c0,0,1.5-1.3,3.7-1.2l17,3.8l5,1.1c0,0,1-0.1,4,2.3l0.8,1.7l-1,1.4l-1.5,1.2
	l-1,0.6l0.9,3.4c0,1.5-0.1,3-0.1,4.5c0,0.3-0.1,0.7-0.1,1l-1.5,0.2L74,28l-0.8-1.7l-1,0.5c0,0-5.2,3-8.4,0.1c0,0-0.5,1.7-3.7-0.4
	l-3.5-3.6l-0.2-0.7c-0.1,0.2-0.2,0.3-0.4,0.5c-0.8,0.9-2,0.9-2.4,0.9C52.2,24,51,24,50.2,24c-1.2,0-2.7-0.1-4.4-1
	C44.6,22.4,43.8,21.5,43.3,20.9z"/>
<path class="st3" d="M23.1,71.4c0,0-2,4.5-0.9,9c0,0-3.8-0.4-3.1-2.7c0,0-2.7-1.4-0.7-3.7C18.5,74.1,21.3,71.4,23.1,71.4z"/>
<path class="st3" d="M83.7,71.4c-0.7,0.3-1.7,0.7-2.6,1.4c-1.8,1.3-2.8,2.9-3.3,3.8c-0.6,0.9-1,1.7-1.1,2.3
	c-0.2,0.7-0.5,1.4-0.4,2.4c0.1,0.7,0.3,1.3,0.4,1.6c0.2,0.1,0.5,0.3,0.8,0.4c0.5,0.2,1.1,0.3,1.7,0.2c0,0,1.5,2.3,4.2-0.6
	c0,0,2.3-2.4,3.1-7.1c0,0-1.2-1.1-0.9-2.7C85.6,73.1,85.7,70.9,83.7,71.4z"/>
<path class="st3" d="M40.7,121.3l-1.1-1.4l-1-2l-1.4-1.1l-1-0.3l-1.7,0.4c0,0-4.2,1.6-3.9,3.3c0,0-0.6,2.1,2.2,2.7
	c0,0,0.3,0.8,4.2-0.9C37.1,122.1,38.7,121.3,40.7,121.3z"/>
<path class="st3" d="M71.4,123.6l-4.1,3.5c0,0-4.2,3.2-1.1,5.9c0,0,1.3,2.4,4.9,1.1l4.5-3.7c0,0,2.7-2.5,3.9-2.2l-1.6-1.3l-2-2
	l-1.9-1.2l-1.2-0.3L71.4,123.6z"/>
<path class="st4" d="M32,51.2l-1.7,1.7l-1.9,1l-1.2,0.4c-0.5,0.1-1,0.1-1.6,0.2c-0.4,0.3-0.7,0.7-1.1,1L23,55.9c0,0-1.6,1.1-0.6,5.4
	l-0.2,3.2l-1.4,1.7c0,0-1.1,2.5-3.9,2.9c0,0,0.9,1.4,8.3-0.2c0,0-5.3,3-2.6,15.7l0.2,4.1c0,0-1.1,3.6-1,3.8c0.1,0.2-2.4,5.1-2.4,5.1
	s6.1,0.7,10.9-7c0,0-2.3,11.4,11.6,18.7l0.2-1.1l-0.6-1.9c0-0.7,0-2.1,0.7-3.4c0.3-0.6,0.7-1,0.9-1.3c0.5-0.5,0.8-0.8,1.1-0.8
	c0.4,0,0.8,0.6,0.9,1.4c0.7,1,1.5,1.9,2.5,2.9c5.3,5.4,11.9,7.2,15.9,7.9l-2.9-7c0,0-2.4-3.2,2-11.1c0,0,4,0.8,7.8-2.3
	c0,0-9.3-1.9-6.5-11.4c0,0,3.3-4.4,1.8-8.3c0,0,5.5,1.3,8.2-2.8c0,0-3.7,2.2-5.5-6.4c0,0-2.6-9.4-12.4-11.6l3.8-0.7l5-1.7
	c0,0-3.4-0.3-5.9-2.1l-3.7,1.1l-2,0.4l1.3-1.2c-1.2,0.6-2.4,1.2-3.6,1.8c-1,0.3-1.9,0.5-2.9,0.8c0,0-6,0.2-7.4-0.9L37,50.1l0.4,2.7
	L37,54.6c-0.1,0.1-0.8,1.4-2.2,1.4c-1.6,0.1-2.6-1.6-2.7-1.8C31.4,52.8,31.9,51.4,32,51.2z"/>
<path class="st4" d="M29.5,45.4c-0.5,0-2.8-0.2-2.8-0.2l0.5,2.1l-2.1-0.1l-1.8,0.8c0,0-2.2,0.6-2.8-0.4l-0.7,1.1l-0.2,1
	c0,0-4.2,0-7.1-2.9c0,0-1.1,4.1,5.1,5.6l2.2,2.4c0,0,1.1,2.7,5.8-0.2c0,0,3.7,0.8,5.2-2.9l2.2-1.3l0.3-1.7l-1.5-1.9L29.5,45.4z"/>
<path class="st4" d="M39.4,44c0,0-0.4-1.2-2.7-1.6L36,44.3l-1.5,2.5c0,0-2.9,2.2,1.2,3.4l3.7-0.3l7,1.1c0,0,5-0.1,7.2-2.2l0.8-0.8
	l-0.8,1.4l5.2-1.7c0,0,5.7-5,5.3-10.3c0,0-3.1,4.7-6.2,2.9l0.4-1.1L58.1,38c0,0,0.5,0.9-2.6,3.2l-5.3,0.6l3-3c0,0-7,0.3-10,4.9
	c0,0-2.1,0.3-0.8-2.1C42.4,41.7,40.4,42.4,39.4,44z"/>
<path class="st5" d="M62.8,55.5l2.2-2.4c0,0,1.9,3.1,3.6-0.4c0,0,1.5,3.6,8,1.7l4.5-0.7c0,0,3.7,1,3.9-1.2c0,0-1.2-2.5,1.6-2.9
	c0,0-0.6,2.1,1.3,1.5c0,0,1.4,0.3,1.4-1.9c0,0,1.2,0.8,2.5-0.6c0,0,1.2-1.3,1.8,0.2c0,0,0.3,3.7,4.2,5.3c0,0,2.3,0.8-0.7,5.4l1,3.4
	c0,0,0.5,3.8-4.6-0.3l-0.8-0.9l-0.8,1.1l-1.6-0.3l-3.3-1.2c0,0-3.9-0.7-4.1,0l-1.4,1.5l-1.6,0.3h-1.8l-1.5,0.8l-1.3,0.6l-0.9,0.2
	l-1.4-0.2l-1.4,0l-1.1,0.1l-1.4,0.4C68.9,65.1,67.7,58.3,62.8,55.5z"/>
<path class="st6" d="M78.6,75.3c0,0-2.2-1.8,0.1-3.7c0,0-0.3-3.3,2.5-2.3l1,1.6l1,0.4l0.5,0.1C83.7,71.4,79.3,73.1,78.6,75.3z"/>
<path class="st6" d="M85.2,80.8l1.4-5l1.1,1l0.6,3c0,0,0.2,3.1-1.5,2.9C86.7,82.7,85.4,82.5,85.2,80.8z"/>
<path class="st7" d="M64,87.4c-0.1-0.3,4.1,1.6,15.1,1.3c0,0,1.4,2.6,0.7,3.3L70.2,93l0.2-0.3C70.4,92.7,65.5,92.1,64,87.4z"/>
<path class="st7" d="M80.8,88.7c0,0,1.3,1.9,0.9,3.2c0,0,11.9-0.5,18-5.8l-1-3.1c0,0-7.7,3.8-9.6,3.9c0,0-6.5,1.4-6.9,1.6L80.8,88.7
	z"/>
<path class="st1" d="M52.8,12.9l9.9,5.3l6.4,3.6c0,0,5.2,4,7.1,11.9h1.4l0.1-2.9l-0.1-2.7l-0.5-2.4l0-1.1l1.1-0.5l2.2-2.6L78.7,19
	c0,0-1.6-1.7-4.3-2.2l-16.2-3.2l-4.8-1L52.8,12.9z"/>
<path class="st2" d="M24.5,96.5c0,0,0.8,12.6,5.4,17l1.1,0.4c0,0,0.9,0.3,1.5-1.7c0,0,2.8-2.5,3.6-1.2l0.1,0.8c0,0,0.3,1,2.5-0.1
	c0,0,5-1,7.1,3.3c0,0-1.3,0.8,2,2.2l1.5,2c0,0-2.6-0.1-1.2,2.4l0.4,2l11.5,3.1l0.4-0.4l0.1-2.7c0,0,0.9-2.5,1.9-1c0,0,1-0.1,1.5-1.9
	c0,0,0.4-1.4,2.1-0.6l3.3-1.9c0,0,2-0.2,1.8,1.5c0,0,6.8-5.5,13.1-0.8c0,0-4.4,2.8,0.1,4.4c0,0,3,0.8,2.3,3.4c0,0,6.2-1.5,10.6-7.7
	c0,0-1.2-0.8-1.6-2.5l-0.1-1c0,0-1.6-3-0.3-3.5l0.8-0.8c0,0,0.7-0.4-0.3-2.3c0,0-0.9-2.7,3.4-3.9c0,0,0.3-0.1-0.3-1.4
	c0,0-0.6-1.9,3.4-1.9c0,0,0.3-6.6-1.9-15.3c0,0-5.8,4.4-18,5.5l-0.3,2.4c0,0-2.2,1.7-2-0.3l0.2-2l-9.3,1c0,0-4.8,3-7.8,2.1
	c0,0-4.1,6.9-2.5,10.5l3.6,7.5c0,0-15.8-3.5-19.7-12.2c0,0-3.4,3-2.5,5.7l0.3,2.5l-0.2,0.4c0,0-12.2-4.8-11.5-18.3
	C30.4,91.2,28.6,94.4,24.5,96.5z"/>
<path class="st8" d="M92.8,62.9l-2.5,1.6l-2.3,0.6l-4.2,0l-0.3-1l-0.8,0.1l-1.5,0.9l-0.3,1l-0.8,0.2L79.4,66c0,0-1.2,3-0.8,3.4
	c0.4,0.4,0,1.8,0,1.8L78,72.1l-0.3,1.2l0.7,1.3l0.4,0.3l-1.1,2c0,0-3.2-5.4,1.4-11.7c0,0,2.3-3.3,9.2-2.9c0.8,0.1,1.7,0.1,2.7,0
	c0.6-0.1,1.2-0.2,1.7-0.3C92.7,62.4,92.7,62.6,92.8,62.9z"/>
<polygon class="st8" points="93.8,75.8 94.7,71.9 95.7,74.6 94.2,78.5 92.9,76.7 94.2,76.8 "/>
<linearGradient id="SVGID_2_" gradientUnits="userSpaceOnUse" x1="90.9187" y1="80.8067" x2="124.7576" y2="61.2698">
	<stop  offset="0.1338" style="stop-color:#9D6828"/>
	<stop  offset="0.5703" style="stop-color:#FCB42A"/>
	<stop  offset="0.799" style="stop-color:#FEDB2B"/>
</linearGradient>
<path class="st9" d="M102.2,100.3c0-1.7-0.2-3.6-0.4-5.5c-0.8-6.2-2.6-11.4-4.4-15.5c-0.7-1.8-1.3-3.6-1.9-5.5
	c-1.3-4.1-2.4-7.9-3.3-11.7h0.5l2.6,1.8c0,0,2.7,1.9,2.6-1l-0.7-2.5c0,0-0.4-1.6,1.2-3.8c0.1-0.3,0.2-1.1-0.2-2
	c-0.5-1.2-1.7-1.7-1.9-1.8c-0.6-0.5-1.2-1-1.8-1.5c-0.2-0.4-0.3-0.8-0.5-1.1c2.4,0,4.5-0.2,6.1-0.4c2.5-0.3,4.4-0.6,6.1-1
	c1.9-0.4,3.5-0.7,4.7-1c0.4,0.2,0.8,0.4,0.7,0.4c0,0.1-0.5-0.2-0.6,0c-0.3,0.3,0.9,1.8,1,1.9c1.3,1.6,2.6,2.6,2.7,2.7
	c1.7,1.3,3.7,2.8,6.1,4.6c2.4,1.8,3.7,4,5,5.8c1.2,1.8,2.6,3.9,3.4,7c0.6,2.3,0.7,4.3,0.7,5.6c-0.3,1.3-0.7,2.9-1.6,4.5
	c-1.4,2.5-4,5.6-8.7,7.9l-2.7,5c-0.5,0.6-1,1.3-1.7,1.9c-1.3,1.2-2.6,2.1-3.6,2.6c-1.1,0.6-2.6,1.3-4.4,1.8
	C105.2,100.1,103.5,100.3,102.2,100.3z"/>
<path class="st10" d="M92.7,46.1c1.4,0.2,2.7,0.4,4.2,0.4c0.2,0,1,0,1.7-0.1c0.7-0.1,2.4-0.3,6.4-2.1c2.5-1.2,3.7-1.7,5.3-3
	c1.2-0.9,2-1.8,2.6-2.4c0.2-0.3,0.3-0.5,0.5-0.8c0,0,1.3,0.2,1.6,2.1l1.7,3.6c0,0-0.2,2.3-1.3,2.9l-5.2,1.4
	c-2.5,0.6-5.4,1.2-8.5,1.6c-2.4,0.3-4.7,0.5-6.9,0.6c-0.2,0-0.4,0-0.7,0l-0.5-1.5c0.2-0.2,0.1-0.5,0-0.7c-0.1-0.2-0.2-0.3-0.8-0.2
	C92.7,47.2,92.7,46.7,92.7,46.1z"/>
<path class="st1" d="M111.5,48.1c1.3,0.8,2.6,1.6,3.9,2.4c1.6,1.4,3.1,2.8,4.7,4.2c1,0.8,1.8,1.3,2.5,1.7c1.4,0.8,2,1,2.4,1
	c0.7,0.1,1.3,0.1,1.7,0c0.1-0.2,0.4-0.4,0.5-0.8c0-0.2,0.1-0.5-0.1-1.2c-0.1-0.3-0.2-0.8-0.5-1.4c-0.7-1.5-2.3-3.1-2.6-3.3
	c-0.3-0.3-0.9-0.7-1.6-1.1c-1-0.5-1.8-0.6-2.7-0.8c-0.5-0.1-1.3-0.2-2.1-0.2c-1.7-0.1-3.3-0.3-5-0.4l0.6,0.5
	c2.4,0.3,4.9,0.6,7.3,0.9c0.7,0.2,1.6,0.5,2.5,1.1c0.5,0.3,1,0.9,2.1,2c0.2,0.2,0.5,0.6,0.6,1.1c0,0.1,0,0.2,0,0.3
	c-0.6-0.1-1.3-0.1-2.1-0.3c-1.3-0.3-3.2-1-5.6-2.4c-1-0.7-2.1-1.3-3.5-2C113.3,48.8,112.4,48.4,111.5,48.1z"/>
<path class="st1" d="M115.4,46.7c0,0,8.6-1.1,17.2,7l-2.5-5.9H129c0,0,0,0.9-3.6-1c0,0-5.6-1.5-9.1-1.1L115.4,46.7z"/>
<path class="st11" d="M93,43.8c1-2,2.1-4.1,3.1-6.2c1-2,1.9-4,2.8-6c0.5,1.1,1,2.3,1.5,3.4l-1.2,3.5L98,40.8l-3.4,5.5
	c-0.1-0.1-0.4-0.1-0.6-0.2c-0.6-0.1-0.9,0-1.1-0.2c-0.1-0.1,0-0.4,0.1-0.7C93.1,45,93.1,44.5,93,43.8z"/>
<polygon class="st12" points="95.3,46.5 97,43.3 98.3,40.4 97.5,41.5 94.4,46.4 "/>
<polygon class="st11" points="98.6,46.4 102.1,38.1 100.6,35.4 98.6,40 95.3,46.5 "/>
<polygon class="st13" points="99,31.4 100.3,34.6 101.1,33 102.5,32.2 100.8,27.3 "/>
<polygon class="st13" points="102.2,38 103.6,34.8 102.7,32.5 102.2,32.6 101.3,33.6 100.6,35.4 101.6,37.8 "/>
<path class="st14" d="M101,27.4l2.6,7.6l9.2,3.7l0.4-0.4l-3.8-6.9C109.3,31.4,101,27.4,101,27.4z"/>
<polygon class="st15" points="98.6,46.4 102.3,38.1 106.7,39.5 107,39.7 103.1,45.1 100.1,46.2 "/>
<polygon class="st15" points="105,44.3 107.5,39.8 111,40.8 109.3,42 107.1,43.3 "/>
<path class="st16" d="M103,44.9l4.7-6.8c0.1,0,0.2-0.1,0.3-0.1c-0.3,0.6-0.5,1.2-0.8,1.9c-0.7,1.4-1.5,2.8-2.2,4.2
	c-0.1,0.2-0.2,0.3-0.2,0.5l-0.9,0.3L103,44.9z"/>
<polygon class="st17" points="102.2,38.1 103.4,35.1 103.9,35 112.8,38.7 111,40.8 "/>
<path class="st16" d="M106,31.6l-0.5-1.7l-0.3-1.1l-0.6-0.5c0,0-2.4-0.4-1.6,2l0.5,0.8l1.6,1.2l0.8-0.1l-0.7-0.8l-0.9-0.7l-0.4-0.6
	l0.2-0.4c0,0,1,0.2,1.2,1.5l0.4,1.3L106,31.6z"/>
<path class="st16" d="M106.3,31.9c0.1,0,0.5,0.2,0.5,0.2l0.4-0.3h0.8l0.7,0.4v0.3l-1.2,0l-0.5-0.3l-0.8-0.6l0.2,0.8l1,0.6
	c0,0,1.7,0.8,3.2-0.9l0.3-1l-0.5-0.6l-0.9-0.2h-1l-1,0.4c-0.3,0.2-0.6,0.4-1,0.5C106.6,31.5,106.5,31.7,106.3,31.9z"/>
<polygon class="st18" points="92.6,37.9 95.9,38.1 95.3,39.3 93.2,43.4 92.9,40.7 "/>
<polygon class="st19" points="91.2,34.2 92.6,33.8 94,32.9 98.2,33.2 95.9,38.1 94.4,37.9 92.4,38 "/>
<path class="st20" d="M101.6,27.8l-1.4-7.8l5.3,1.7c0,0,0.6,0.1,0.1,1.7l-1,5h-0.8h-0.5L101.6,27.8z"/>
<polygon class="st21" points="81.7,13.3 82.4,14.5 82.9,15.8 78.7,19 77.9,18.2 76.9,17.8 76.5,17.5 "/>
<polygon class="st22" points="83.1,16 84.1,19.5 82.9,20.1 81.5,21 80.8,21.4 78.6,18.9 82.9,15.8 "/>
<path class="st21" d="M82.8,12.9c0,0.6,0.1,1.1,0.1,1.7c0.1,0.5,0.1,0.9,0.2,1.4l2.6-1.8l2.3-1.2l-0.8-3.6L85.8,10l-1.2,0.9
	l-1.7,1.5C82.9,12.6,82.8,12.8,82.8,12.9z"/>
<path class="st13" d="M82.9,12.5L82,13.1l-0.3,0.3l1,1.6C82.7,14.1,82.7,13.3,82.9,12.5z"/>
<path class="st22" d="M83.1,16l1,3.5c0,0,4.6-1.4,5-1.1l-1.2-5.5l-1,0.4l-1.3,0.8L83.1,16z"/>
<polygon class="st23" points="87.1,9.3 87.9,12.7 93.1,13.8 92.3,9.8 89.9,9.3 88.4,9.1 "/>
<path class="st24" d="M89.1,18.4l-1.2-5.5l1.2-0.1l1,0.1l3,0.8l0.3,0.1l0.6,1.4l1.2,2.5c0,0,2.5,5.1,2.3,7.7l0,1.7L97,28.5l-0.6,0.9
	l0.4-2.3c0,0,0-5.2-3.3-7.4C93.6,19.8,92.1,18.1,89.1,18.4z"/>
<path class="st15" d="M93.4,10l0.3,3.1c0,0,0.4,1.9,0.5,2c0,0.1,0.6,1.7,0.6,1.7l-1.3-2.9c0,0-1.3-2.5-1.1-4.1L93.4,10z"/>
<path class="st23" d="M93.6,10l4.2,1.2c0,0,1.2,0,1.2,1.9l0.3,2.1L93.9,14C93.9,14,93,10.5,93.6,10z"/>
<path class="st24" d="M94,14.2l2,5.2l1.1,3.2l0.4,2.8l0,2.4l-0.9,1.7L96,30.3c0,0-0.6,1-0.6,1.1s-1.3,1.4-1.3,1.4l3.8,0.4l2.8-5.6
	l0.2-0.2l0.7,0.4l-2.3-12.7L93.9,14L94,14.2z"/>
<path class="st17" d="M79,15.5c0,0-4.1-0.7-2.7-2.8c0,0-0.2-0.8,3.6-1.8l0.7-0.9c0,0,1.3-3.1,2.5-2.9c0,0,1.2-0.2,1.5,0.8l0.2,0.8
	l-0.1,0.9L84,11.4L79,15.5z"/>
<path class="st15" d="M94.5,10.3c0.2-0.3,0.5-0.6,0.7-1c0,0,1-1.5-1.3-2.4l-1.2-0.1L91,7.1c0,0-2.5-0.1-3-0.5c0,0-2-1-2.6-0.2
	c-0.1,0.2-0.2,0.4-0.2,0.6c0,0.2,0,0.4,0,0.6c-0.2,0.2-0.3,0.3-0.5,0.5c0,0.4,0,0.7,0,1.1c-0.3,0.7-0.5,1.4-0.8,2.1
	c0.8-0.5,1.5-1.1,2.3-1.6c1.2-0.5,2.1-0.5,2.8-0.5c0.9,0,1.4,0.3,2.8,0.6C93,10,93.9,10.2,94.5,10.3z"/>
<path class="st25" d="M9.4,66.9l1.2-1.7l1.3-1.5l1.8-1.2c0,0,2.1-0.7,2.4-0.7l0.4-0.5l-0.3-0.7l-0.2-0.9l-0.8-0.2
	c0,0-7.1,0.4-7.8,6.4c0,0-1.4,1,0.7,1.5L9.4,66.9z"/>
<path class="st26" d="M15.4,62.1c0,0-0.3,4.2,2.4,6.8l1.2-0.5l-0.5-1.6l-0.9-1.3L17,63.9l-0.6-1.4l0.1-0.7L15.4,62.1z"/>
<path class="st12" d="M9.7,66.4l1.5,0.6c0,0,1.4,1.7,1.7,2.8c0,0,1.2,3.6,3.7,2.7l0.1,0.2l-0.8,0.6c0,0-2.9,1.2-3.7-1.9
	c0,0-0.9-3.2-2.3-3.9L9.1,67L9.7,66.4z"/>
<polygon class="st27" points="17.2,72.9 18,74.6 19,73.7 17.8,72 "/>
<path class="st26" d="M18.4,70.8c-0.1,0.3,1.2,2.1,1.2,2.1V73l-0.7,0.6L17.7,72L18.4,70.8z"/>
<path class="st16" d="M9.6,66.6c0.3-0.5,0.7-0.9,1-1.4c0,0,2.2-3.3,4.8-3.1l0.1,1.8c0,0,0.4,3.4,2.3,5L17,69.3l1.1,0.3l0.2,0.6
	L18.2,71l-0.3,0.8l-1,0.8c0,0-1.9,0.9-3.3-1.4c0,0-1.8-3.9-2.4-3.9c-0.2-0.2-0.5-0.3-0.9-0.5C10.1,66.7,9.8,66.6,9.6,66.6z"/>
<path class="st27" d="M20.2,79.9l0.9,1.4c0,0,0.2,1.1,1.3,0.8l-0.2-2C22.2,80.1,21.1,80.5,20.2,79.9z"/>
<polygon class="st28" points="76.3,105.4 76,108 78,109.8 75.4,110.3 74.3,112.7 73,110.4 70.4,110.2 72.2,108.2 71.6,105.6 
	74,106.7 "/>
<polygon class="st28" points="93.2,95.5 92.8,98.7 95.2,100.8 92.1,101.4 90.8,104.3 89.2,101.5 86.1,101.2 88.2,98.9 87.6,95.8 
	90.4,97.1 "/>
<polygon class="st28" points="51.5,17.8 51.3,19.6 52.6,20.7 50.9,21 50.2,22.6 49.4,21.1 47.6,21 48.8,19.7 48.4,18 50,18.7 "/>
<path class="st1" d="M94.8,49.4l0.2-0.8c0,0,3.3-0.2,6.3-1l0.1,0.8C101.4,48.4,99.1,49.3,94.8,49.4z"/>
<path class="st1" d="M106.5,46.5c0,0,7.1-2.1,6.7-3.9c0,0,1.4,1,1.1,2C114.3,44.7,112.5,46.3,106.5,46.5z"/>
<path class="st21" d="M93.3,33.6c0,0,1.3,0.4,1.4,1.4l-0.5,0.5L94,35.7l-0.4,0.4L93,36.6h-0.8l-1-2.5L93.3,33.6z"/>
<path class="st21" d="M95.1,35.1l0.4,0.1l0.6-1c0,0,0.7-1.1,1.8-0.8l-1.2,2.7L96,35.9l-0.1,0.4h-0.2l-0.3-0.2l-0.2-0.3l-0.1-0.2
	L95.1,35.1z"/>
<path class="st16" d="M102.5,44.1c0,0,0.8-1.5,0-1.5C101.5,42.7,101.5,44.1,102.5,44.1C102.5,44.1,101.5,44.1,102.5,44.1z"/>
<path class="st16" d="M98.5,36.2c0,0,1.1-1.5,0-1.5C97.4,34.7,97.4,36.2,98.5,36.2C98.5,36.2,97.4,36.2,98.5,36.2z"/>
<path class="st16" d="M94.4,44.7c0,0,0.5-1.5,0-1.5C93.3,43.3,93.3,44.7,94.4,44.7C94.4,44.7,93.3,44.7,94.4,44.7z"/>
<path class="st16" d="M110.7,36.7c0,0,0.8-1.5,0-1.5C109.6,35.3,109.6,36.7,110.7,36.7C110.7,36.7,109.6,36.7,110.7,36.7z"/>
<path class="st16" d="M104.6,37.2C104.6,37.2,104.6,36.9,104.6,37.2c0,0,0.7,0.8,0.7,0l0,0C105.3,36.9,104.6,36.9,104.6,37.2
	C104.6,37.2,104.6,36.9,104.6,37.2z"/>
<path class="st16" d="M108,41.7c0,0,0.3-0.7,0-0.7C107.5,41,107.5,41.7,108,41.7C108,41.7,107.5,41.7,108,41.7z"/>
<path class="st16" d="M96.3,39.7c0,0,0.8-0.7,0-0.7C96,39,96,39.7,96.3,39.7C96.3,39.7,96,39.7,96.3,39.7z"/>
<path class="st16" d="M100.6,30.8c0,0,0.3-0.7,0-0.7C100.1,30.1,100.1,30.8,100.6,30.8C100.6,30.8,100.1,30.8,100.6,30.8z"/>
<path class="st16" d="M105.3,34.2h0.3c0.5,0,0.5-0.5,0-0.5c0,0,0,0-0.3,0S105,34.2,105.3,34.2C105.3,34.2,105,34.2,105.3,34.2z"/>
<path class="st15" d="M91.1,16.4c-0.2-0.1-0.4-0.2-0.5-0.4c0-0.1-0.1-0.2-0.1-0.2c0,0,0-0.1,0-0.1c0-0.2,0.1-0.3,0.3-0.1
	c0,0.1,0.1,0.2,0.2,0.1c0.2-0.2,0.6-0.8,0.8-0.3c0.1,0.4-0.3,0.7-0.5,0.9c-0.1,0.1,0,0.3,0.1,0.2c0.4-0.3,0.9-0.8,0.5-1.3
	c-0.4-0.5-0.9,0-1.1,0.4c0.1,0,0.1,0.1,0.2,0.1c0.1-0.5-0.6-0.5-0.7-0.1c-0.2,0.5,0.3,1,0.7,1.2C91.2,16.7,91.3,16.5,91.1,16.4
	L91.1,16.4z"/>
<path class="st15" d="M97.5,18.9c-0.2-0.2-0.3-0.3-0.4-0.5c-0.1-0.2-0.3-0.5-0.3-0.7c0-0.2,0.2-0.4,0.4-0.1c0,0.1,0,0.1,0,0.2
	c0,0.1,0.1,0.2,0.2,0.2c0.1,0,0.2,0,0.2-0.1c-0.1-0.7,0.9-0.6,0.7,0.1c-0.1,0.4-0.5,0.5-0.8,0.7c-0.1,0.1,0,0.3,0.1,0.2
	c0.5-0.2,1.3-0.8,0.8-1.5c-0.4-0.5-1.1-0.1-1,0.5c0.1,0,0.1-0.1,0.2-0.1c-0.2-0.1-0.1-0.5-0.4-0.6c-0.2-0.1-0.4,0-0.5,0.2
	c-0.4,0.5,0.3,1.3,0.7,1.7C97.4,19.2,97.6,19,97.5,18.9L97.5,18.9z"/>
<path class="st15" d="M85.7,17.8c-0.1,0-0.1-0.1-0.1-0.1c-0.1-0.1-0.1-0.2,0-0.3c0,0.1,0.2,0.1,0.2,0c0-0.1,0.2-0.1,0.3,0
	c0.1,0.1-0.1,0.4-0.2,0.4c-0.1,0.1,0,0.2,0.2,0.2c0.2-0.2,0.4-0.6,0.1-0.8c-0.2-0.1-0.5-0.1-0.6,0.2c0.1,0,0.1,0,0.2,0
	c-0.1-0.2-0.4-0.2-0.5,0c-0.2,0.3,0.1,0.5,0.3,0.7C85.7,18.1,85.8,17.9,85.7,17.8L85.7,17.8z"/>
<path class="st15" d="M81.8,19.5c-0.3,0-0.6-0.1-0.8-0.4c-0.1-0.1-0.2-0.3-0.1-0.4c0.1-0.2,0.4-0.3,0.4,0c0,0.1,0.2,0.1,0.2,0
	c0-0.1,0-0.2,0.1-0.3c0.1-0.2,0.3-0.3,0.4,0.1c0.1,0.2-0.1,0.5-0.1,0.7c0,0.1,0.2,0.2,0.2,0.1c0.1-0.3,0.3-1-0.1-1.2
	c-0.4-0.2-0.6,0.3-0.7,0.6c0.1,0,0.1,0,0.2,0c0.1-0.5-0.6-0.5-0.8-0.1c-0.2,0.7,0.6,1,1.1,1.1C81.8,19.7,81.9,19.5,81.8,19.5
	L81.8,19.5z"/>
<path class="st15" d="M85.6,11.7c0-0.1,0-0.1,0.1-0.2c0,0,0.1,0,0.2,0c0.1-0.1,0.1-0.2,0.2-0.2c0.1,0,0.1,0,0.1,0.1
	c0,0.1,0,0.1-0.1,0.2c-0.1,0.1-0.2,0.2-0.4,0.2c-0.1,0.1,0,0.2,0.1,0.2c0.3-0.1,0.8-0.5,0.5-0.8c-0.2-0.3-0.6-0.1-0.7,0.1
	c0.1,0,0.1,0,0.2,0c-0.2-0.1-0.4-0.1-0.5,0.1c-0.1,0.2,0.1,0.4,0.3,0.4C85.8,11.9,85.8,11.7,85.6,11.7L85.6,11.7z"/>
<path class="st15" d="M99,23.7c-0.1-0.1-0.2-0.2-0.2-0.3c0-0.1-0.1-0.1-0.1-0.2c-0.1-0.1-0.1-0.2,0.1-0.2c0,0.1,0.2,0.2,0.2,0.1
	c0.1-0.2,0.2-0.3,0.3-0.4c0,0-0.1,0-0.1,0c0.1,0.2,0.1,0.5-0.1,0.7c-0.1,0.1,0.1,0.2,0.2,0.1c0.2-0.3,0.2-0.6,0.1-0.9
	c0,0-0.1-0.1-0.1,0c-0.2,0.1-0.3,0.3-0.4,0.5c0.1,0,0.1,0,0.2,0.1c0-0.3-0.3-0.4-0.5-0.1c-0.2,0.3,0.2,0.7,0.4,1
	C98.9,23.9,99.1,23.8,99,23.7L99,23.7z"/>
<path class="st15" d="M94.5,20c-0.1-0.1-0.1-0.3,0-0.4c0.1-0.1,0.3,0.1,0.2,0.2c0.1,0,0.1,0.1,0.2,0.1c0.1-0.1,0.3-0.1,0.4,0.1
	c0.1,0.2-0.1,0.4-0.3,0.5c-0.1,0-0.1,0.3,0.1,0.2c0.3-0.1,0.7-0.5,0.4-0.9c-0.2-0.3-0.6-0.3-0.7,0c-0.1,0.1,0.1,0.2,0.2,0.1
	c0.2-0.2,0.1-0.6-0.2-0.6c-0.4,0-0.5,0.5-0.3,0.8C94.3,20.3,94.5,20.2,94.5,20L94.5,20z"/>
<path class="st15" d="M96.8,12.7c-0.1-0.1-0.4-0.4,0-0.5c0,0,0.1,0,0.2,0c0.1,0,0.3-0.2,0.4-0.2c0.2,0,0,0.2,0,0.3
	c-0.1,0-0.1,0.1-0.2,0.1C97,12.5,96.9,12.6,96.8,12.7c-0.1,0.1,0.1,0.2,0.2,0.1c0.2-0.3,0.6-0.2,0.7-0.6c0-0.2-0.1-0.4-0.3-0.4
	c-0.2,0-0.3,0.2-0.5,0.1c-0.1,0-0.2,0-0.3,0.1c-0.3,0.2-0.1,0.6,0.1,0.8C96.8,13,96.9,12.8,96.8,12.7L96.8,12.7z"/>
<path class="st15" d="M90.3,11.1c0.1,0,0.1-0.2,0-0.2C90.2,10.9,90.2,11.1,90.3,11.1L90.3,11.1z"/>
<path class="st15" d="M89.8,14.3c0.1,0,0.1-0.2,0-0.2C89.7,14.1,89.7,14.3,89.8,14.3L89.8,14.3z"/>
<path class="st15" d="M93.6,18c0.1,0,0.1-0.2,0-0.2C93.5,17.8,93.5,18,93.6,18L93.6,18z"/>
<path class="st15" d="M96.1,15.9c0.1,0,0.1-0.2,0-0.2C96,15.7,96,15.9,96.1,15.9L96.1,15.9z"/>
<path class="st15" d="M98.6,20.7C98.6,20.7,98.6,20.7,98.6,20.7c0.2-0.2,0-0.3-0.1-0.2c0,0,0,0-0.1,0.1
	C98.3,20.6,98.5,20.8,98.6,20.7L98.6,20.7z"/>
<path class="st15" d="M98.6,25.7c0.1,0,0.1-0.2,0-0.2C98.5,25.5,98.5,25.7,98.6,25.7L98.6,25.7z"/>
<path class="st15" d="M98.9,29c0.1,0,0.1-0.2,0-0.2C98.8,28.7,98.8,29,98.9,29L98.9,29z"/>
<path class="st15" d="M86.6,14.9c0.1,0,0.1-0.2,0-0.2C86.5,14.6,86.5,14.9,86.6,14.9L86.6,14.9z"/>
<path class="st15" d="M84,13.6c0.1,0,0.1-0.2,0-0.2C83.9,13.4,83.9,13.6,84,13.6L84,13.6z"/>
<path class="st15" d="M80.4,16.4c0.1,0,0.1-0.2,0-0.2C80.2,16.2,80.2,16.4,80.4,16.4L80.4,16.4z"/>
<path class="st15" d="M98.7,35.5c0.1,0,0.1-0.2,0-0.2C98.6,35.3,98.6,35.5,98.7,35.5L98.7,35.5z"/>
<path class="st15" d="M100.5,30.6c0.1,0,0.1-0.2,0-0.2C100.3,30.3,100.3,30.6,100.5,30.6L100.5,30.6z"/>
<path class="st15" d="M94.4,44.2c0.1,0,0.1-0.2,0-0.2C94.2,43.9,94.2,44.2,94.4,44.2L94.4,44.2z"/>
<path class="st15" d="M102.4,43.5C102.4,43.5,102.4,43.4,102.4,43.5c0.2-0.2,0-0.3-0.1-0.2c0,0,0,0-0.1,0.1
	C102.1,43.4,102.3,43.6,102.4,43.5L102.4,43.5z"/>
<path class="st15" d="M105,37.6c0.1,0,0.1-0.2,0-0.2C104.8,37.4,104.8,37.6,105,37.6L105,37.6z"/>
<path class="st15" d="M105.4,34.2c0.1,0,0.1-0.2,0-0.2C105.3,34,105.3,34.2,105.4,34.2L105.4,34.2z"/>
<path class="st15" d="M110.4,36.2c0.1,0,0.1-0.2,0-0.2C110.2,36,110.2,36.2,110.4,36.2L110.4,36.2z"/>
<path class="st15" d="M107.9,41.5c0.1,0,0.1-0.2,0-0.2C107.8,41.3,107.8,41.5,107.9,41.5L107.9,41.5z"/>
<path class="st16" d="M70.1,84.3c0,0,0.8-1.5,0-1.5C69,82.8,69,84.3,70.1,84.3C70.1,84.3,69,84.3,70.1,84.3z"/>
<path class="st16" d="M71.6,20.3c0.1,0,0.2,0,0.3,0c0.4,0,0.7-0.3,0.7-0.7c0-0.4-0.3-0.7-0.7-0.7c-0.1,0-0.2,0-0.3,0
	c-0.4,0-0.7,0.3-0.7,0.7C70.9,20,71.2,20.3,71.6,20.3L71.6,20.3z"/>
<path class="st16" d="M46.3,109.4c0,0.1,0,0.2,0,0.3c0,0.4,0.3,0.7,0.7,0.7c0.4,0,0.7-0.3,0.7-0.7c0-0.1,0-0.2,0-0.3
	c0-0.4-0.3-0.7-0.7-0.7C46.6,108.7,46.3,109,46.3,109.4L46.3,109.4z"/>
<path class="st16" d="M27.2,98.4c0,0.1,0,0.2,0,0.3c0,0.4,0.3,0.7,0.7,0.7c0.4,0,0.7-0.3,0.7-0.7c0-0.1,0-0.2,0-0.3
	c0-0.4-0.3-0.7-0.7-0.7C27.5,97.7,27.2,98,27.2,98.4L27.2,98.4z"/>
<path class="st16" d="M88.6,114c0,0,0.5-1.5,0-1.5C87.5,112.6,87.5,114,88.6,114C88.6,114,87.5,114,88.6,114z"/>
<path class="st16" d="M71.4,100.7c0,0,1.9-2.9,0-2.9C70.1,97.8,70.1,100.7,71.4,100.7C71.4,100.7,70.1,100.7,71.4,100.7z"/>
<path class="st16" d="M55.6,121c0,0,1.6-2.9,0-2.9C54.2,118.1,54.2,121,55.6,121C55.6,121,54.2,121,55.6,121z"/>
<path class="st16" d="M97.1,94.4c0,0,1.9-2.9,0-2.9C94.9,91.5,94.9,94.4,97.1,94.4C97.1,94.4,94.9,94.4,97.1,94.4z"/>
<path class="st16" d="M81.4,102.6c0.6-0.3,1.3-0.6,1.9-0.9c-0.1,0.6-0.1,1.2-0.2,1.8c-0.2,0.2-0.9,0.3-1.2,0.3c-0.9,0-2-0.6-2.3-1.6
	c-0.5-1.9,1.7-3.2,3.3-2.5c3.3,1.4,2.1,7.7-1.6,6.1c-0.2-0.1-0.4,0.2-0.2,0.3c2.9,1.3,4.9-2.1,3.9-4.7c-0.9-2.3-4.7-3.5-5.7-0.6
	c-0.4,1.2,0,2.4,1.2,3c0.9,0.5,2.5,0.6,3.2-0.5c1.3-2-2.5-3.4-2.8-0.8C81,102.8,81.3,102.8,81.4,102.6L81.4,102.6z"/>
<path class="st16" d="M52.2,113.8c0.1-0.8,1-0.3,1,0.3c0,0.6-0.8,0.9-1.3,0.8c-1-0.3-1.1-1.7-0.5-2.4c1.2-1.5,3.6-0.4,3.2,1.5
	c0,0.2,0.3,0.3,0.3,0.1c0.2-1.2-0.6-2.6-1.9-2.7c-1.3-0.1-2.5,1.1-2.4,2.4c0.1,1.2,1.5,2.1,2.5,1.1c0.8-0.8-0.1-2.2-1.1-1.9
	c-0.1,0-0.1,0.1-0.1,0.2c0,0.2-0.1,0.4-0.1,0.6C51.9,114,52.2,114,52.2,113.8L52.2,113.8z"/>
<path class="st16" d="M30,107.7c0.2,0,0.4,0.1,0.5,0.1c0.2,0.1,0.2,0.3,0.1,0.5c0,0.4-0.2,0.5-0.7,0.5c-0.4,0-0.9-0.3-1.1-0.6
	c-0.4-0.8-0.2-1.8,0.6-2.3c1.8-1,3.3,1,2.9,2.7c-0.1,0.2,0.3,0.3,0.3,0.1c0.4-1.4-0.3-3-1.8-3.3c-1.4-0.3-2.7,0.7-2.6,2.1
	c0.1,1.1,1.3,2.2,2.4,1.4c0.9-0.6,0-2.1-1-1.6C29.7,107.5,29.8,107.8,30,107.7L30,107.7z"/>
<path class="st16" d="M61.8,23.7c0.3-0.2,0.6-0.5,0.9-0.2c0.4,0.3,0.2,0.8-0.1,1c-0.6,0.4-1.3-0.2-1.4-0.8c-0.2-0.9,0.6-1.7,1.4-1.9
	c1.9-0.5,2.8,1.9,1.9,3.3c-0.1,0.2,0.2,0.4,0.3,0.2c0.8-1.1,0.6-3-0.7-3.6c-1.1-0.6-2.7,0-3.1,1.2c-0.4,1.2,0.7,2.9,2,2
	c0.5-0.3,0.6-0.9,0.2-1.4c-0.5-0.7-1-0.4-1.5,0C61.4,23.5,61.6,23.9,61.8,23.7L61.8,23.7z"/>
<path class="st16" d="M89.1,120.8c1.1,0.1,1.2,0.4,0.2,0.9c-0.3,0.1-0.6,0.1-0.9,0c-0.7-0.2-1-0.7-1-1.4c0-0.9,0.7-1.8,1.6-2.1
	c1.8-0.7,3.3,1.4,2.7,3c-0.1,0.2,0.3,0.3,0.3,0.1c0.6-1.5-0.4-3.4-2.1-3.6c-1.6-0.2-3.2,1.5-2.8,3.1c0.3,1.4,2.8,1.8,3.2,0.3
	c0.4-1.5-1.8-1.6-1.6-0.3C88.8,121.1,89.1,121,89.1,120.8L89.1,120.8z"/>
<path class="st16" d="M72,76.6c0.2,0.9,0,1.2-0.4,0.8c-0.3-0.1-0.5-0.4-0.6-0.7c-0.2-0.5-0.1-1.1,0.3-1.5c0.6-0.7,1.8-0.7,2.5-0.2
	c1.3,1,1.1,2.9-0.1,3.9c-2.4,2-5.5-1.2-3.8-3.6c0.1-0.2-0.2-0.4-0.3-0.2c-1,1.5-0.5,3.8,1.1,4.6c1.7,0.9,4-0.5,4.3-2.4
	c0.3-1.9-1.7-3.9-3.6-2.8c-1.5,0.9-1,3.8,1,3.4c0.7-0.1,1.3-1,0.8-1.7c-0.4-0.7-1.4-0.4-1.6,0.2C71.5,76.7,71.9,76.8,72,76.6
	L72,76.6z"/>
<path class="st16" d="M65.6,104.1c0.2,0,0.2-0.4,0-0.4C65.4,103.7,65.4,104.1,65.6,104.1L65.6,104.1z"/>
<path class="st16" d="M66.6,116c0.1,0.1,0.2,0.2,0.3,0.3c0.2,0.2,0.4-0.1,0.3-0.3c-0.1-0.1-0.2-0.2-0.3-0.3
	C66.6,115.6,66.4,115.9,66.6,116L66.6,116z"/>
<path class="st16" d="M86.1,94.9c0.1-0.1,0.2-0.2,0.3-0.3c0.2-0.2-0.1-0.4-0.3-0.3c-0.1,0.1-0.2,0.2-0.3,0.3
	C85.7,94.8,85.9,95.1,86.1,94.9L86.1,94.9z"/>
<path class="st16" d="M98.2,98.9c0.2,0,0.2-0.4,0-0.4C98,98.5,98,98.9,98.2,98.9L98.2,98.9z"/>
<path class="st16" d="M88.6,107.7c0.2,0,0.2-0.4,0-0.4C88.4,107.4,88.3,107.7,88.6,107.7L88.6,107.7z"/>
<path class="st16" d="M66.4,17.3c-0.1,0.1-0.1,0.1-0.1,0c0,0.2,0.4,0.2,0.4,0c0-0.4-0.6-0.4-0.6,0C66,17.6,66.4,17.6,66.4,17.3
	L66.4,17.3z"/>
<path class="st16" d="M75,25.9c0.2,0,0.2-0.4,0-0.4C74.8,25.5,74.8,25.9,75,25.9L75,25.9z"/>
<path class="st16" d="M76.9,19.9c0.2,0,0.2-0.4,0-0.4C76.6,19.5,76.6,19.9,76.9,19.9L76.9,19.9z"/>
<path class="st16" d="M51.6,14.9c0.2,0,0.2-0.4,0-0.4C51.3,14.6,51.3,14.9,51.6,14.9L51.6,14.9z"/>
<path class="st16" d="M55.3,20.2c0,0.1,0,0.1,0,0.2c0,0.2,0.4,0.2,0.4,0c0-0.1,0-0.1,0-0.2C55.7,20,55.3,20,55.3,20.2
	c0,0.1,0,0.1,0,0.2c0,0.2,0.4,0.2,0.4,0c0-0.1,0-0.1,0-0.2C55.7,20,55.3,20,55.3,20.2L55.3,20.2z"/>
<path class="st16" d="M68.8,24.6c0.2,0,0.2-0.4,0-0.4C68.5,24.2,68.5,24.6,68.8,24.6L68.8,24.6z"/>
<path class="st16" d="M85.3,85.1c0,0.1,0,0.1,0,0.2c0,0.2,0.4,0.2,0.4,0c0-0.1,0-0.1,0-0.2C85.6,84.9,85.3,84.9,85.3,85.1
	c0,0.1,0,0.1,0,0.2c0,0.2,0.4,0.2,0.4,0c0-0.1,0-0.1,0-0.2C85.6,84.9,85.3,84.9,85.3,85.1L85.3,85.1z"/>
<path class="st16" d="M91.2,67.1c0.2,0,0.2-0.4,0-0.4C91,66.7,91,67.1,91.2,67.1L91.2,67.1z"/>
<path class="st16" d="M72.5,67.8c0.1-0.1,0.2-0.2,0.3-0.3c0.2-0.2-0.1-0.4-0.3-0.3c-0.1,0.1-0.2,0.2-0.3,0.3
	C72.1,67.7,72.4,68,72.5,67.8L72.5,67.8z"/>
<path class="st29" d="M52.9,41.5c0,0,3-2.6,2.4-7.6c0,0,3.5,1.5,6.3-0.3c0,0,2-2,4.2-2.2c0,0,0.5,1.1,8.6-3.4l2,5.8
	c0,0-3.9,0.4-5.1,4.2l1.1-0.4l0.1,3.4l0.8-0.1c0,0,1.7,5.9,4.4,5.1c0,0,2.7-1.9,2.8,2.2c0,0,1.8,0.3,2.6-4.4l3.7-0.1l-0.2-1.4
	c0,0,3.6-2.1-1.4-5.5l1.3-1.3c0,0-5.4-2.5-8.7-2l0.4-3.2l-0.6-3.6l2.4-1.5c0,0,1.8-1.5,0.7-3.5c0,0,9.6-6.2,13.3-1.4
	c0,0,4,2.7,2.5,8.7c0,0-0.4,4.2-5.2,5.4c0,0,2.9,6.7,1.3,13.6l-1.3,0.9c0,0-1.5,1-1.6,0.2l-0.8,1.5c0,0-1.9,2.1-2.3-0.8
	c0,0-1.9,0-2,1.5c0,0,1,1.7-1.2,2.5c0,0-5.2,0.1-7.6,1.2c0,0-4.8,1.2-7.5-2.1c0,0-0.8,3.2-3,0.4l-2.2,2.3c0,0-5-3.3-5.8-3.6
	s6.4-0.4,7.6-2.2c0,0-4.4-0.5-5.9-2.1c0,0,5.5-5.4,5.3-10.3c0,0-2.4,3.7-6.5,3.2c0,0,0.9-1,0.6-1.8C58.3,38.7,55.1,41.9,52.9,41.5z"
	/>
<path class="st29" d="M100.8,111.4l-0.8,0.3l-0.2,0.8l-0.5-0.8l-0.1-0.9l0.2-0.7l0-1l0.3-1c0,0,1.1-1.9,2.5,0.3l1.9,0.3
	c0,0,1.8,1.6,1.4,2.5c0,0,0.6,0.6-2.3,1.2l-1.6,0.8l-1.6,0.2C100,113.4,101.2,112.4,100.8,111.4z"/>
<path class="st29" d="M59.7,13.7c0,0,2.6-5,8.7-2.7c0,0,4,0.5,5.5,5.9L59.7,13.7z"/>
<path class="st5" d="M32.4,50.6c-0.1,0.2-1,1.5-0.5,3c0.4,1.4,1.7,2.4,3.3,2.5c0,0,3-0.8,1.8-5.9l-1.3,0.1l-1.2,0.1l-0.9,0.1
	L32.4,50.6z"/>
<path class="st5" d="M35.3,30.6l0.3-2.4c0,0-9-1.4-12.8,8c0,0-2.1,4.7,0.6,8.3c0,0,1.9,2.8,3.4,2.8c0,0,0.8,0.4,0-1.6l0.4-0.3
	l2.3,0.1c0,0,1.4-6.2,7.7-2.8c0,0,1.7,0.1,2.3,1.4c0,0,2-2.5,3-1.8c0,0-1,1.4,0.3,1.6L45,42c0,0,2-2.2,8.2-3.2c0,0-2.8,1.9-2.7,3.4
	l2.4-0.3c1.1-1.7,1.7-3.2,2.1-4.2c0.4-1.2,0.7-2.2,0.5-3.6c-0.2-1.8-1-3.1-1.5-3.7c-0.8-0.9-1.9-2-3.5-2.8
	c-4.5-2.3-9.1-0.8-10.1-0.4C40.2,27.2,35.2,30.1,35.3,30.6z"/>
<path class="st5" d="M31.9,28.1c0,0-3-4.2,0.8-8.2c0,0-0.5,1.3,0.3,1.5c0,0,1.6-1.2,1.8-0.8c0.2,0.4-0.1-0.2-0.1-0.2l0.2,1.2
	l1.8-0.9c0,0,2.4,2.7,4.6,0.3c0,0,1.6-0.8,2.6,0.9c0,0,2.3,2.4,7.3,2.2l3.8-0.5c0,0,1.7-0.7,1.1-1.4l3.9,4.4c0,0,2.3,1.7,3.9,0.6
	c0,0,2.4,1.3,3.7,1c0.2,0,0.5,0,0.7,0c1.4-0.1,2.4-0.8,3-1.3c0.7-0.2,1.4-0.5,2-0.7c0.3,0.6,0.7,1.2,1,1.7l-3.3,1.7
	c-0.8,0.3-1.6,0.7-2.4,1c-0.7,0.2-1.3,0.3-2,0.5c-0.5,0.1-1,0.1-1.5,0.2c-0.5,0.1-1,0.3-1.4,0.4l-1,0.8c-0.4,0.3-0.8,0.6-1.2,0.8
	c-0.4,0.2-0.9,0.5-1.5,0.7c-1,0.3-1.9,0.3-2.4,0.2c-0.8-0.1-1.6-0.3-2.3-0.4c0,0-0.8-6.2-8.6-7.5c0,0-6.2-0.7-11.2,3.8l0-2
	C35.6,28.2,32.1,28,31.9,28.1z"/>
<path class="st5" d="M76.2,33.8c0,0-3.2-0.2-4.8,4.1l1.5-0.2l-0.5,3.4l1.3-0.1c0,0,1.1,4.8,4.1,4.8c0,0,2.5-2.1,2.8,2.2
	c0,0,1.9,0.1,2.6-4.4l3.4-0.1l0.1-1.4c0,0,2.1-0.9,1.1-2.9c0,0-0.7-2.1-2.5-2.6c0,0,0.1-0.8,1.3-1c0,0-3.5-2.8-8.7-2L76.2,33.8z"/>
<path class="st5" d="M79.1,69.8c-0.1-0.1-0.3-0.3-0.4-0.4c0-0.3,0.1-0.6,0.1-1.1c0.1-0.7,0.1-1,0.3-1.3c0.1-0.2,0.3-0.6,0.7-1
	c0,0,0.2,1,1.2,0c0,0,1.6-2.4,2.6-2l0.3,0.7c0.1,0.3,0.2,0.7,0.6,1c0.7,0.6,1.5,0.3,2.8,0.8c0.5,0.2,0.8,0.4,1.4,0.9
	c0.6,0.4,1.3,1.1,2.1,2.1c0.4,0.6,0.8,1.3,1.3,2c1,1.8,1.7,3.4,2.2,4.9c0.1,0.1,0.1,0.1,0.2,0.2l-1.4-0.1c0,0,1.1,1.2,1.6,4.5
	c0,0-1.1-1-2.3,0.7c-0.1,0.3-0.3,0.5-0.4,0.8c-0.3,0.1-0.6,0.2-0.9,0.3c-0.3,0.1-0.6,0.2-1,0.3l-1.1,0.3l-0.5,0.6l-1.2-1.5
	c0,0,2.2-0.4,0.3-5.9l-0.9-1l-0.7-0.8l-0.3-2.3l-0.4-1.2l-0.7-0.1l-0.9,0l-0.8-0.3l-1-1.1l-0.7-1l-0.9,0.1L79.1,69.8z"/>
<path class="st5" d="M102.4,108.1c0.3-0.2,0.6-0.4,1-0.8c0.6-0.6,0.9-1.3,1-1.7l-0.6-0.8c0,0,1.1-1.1,0-2.7
	c-0.4-0.2-1.1-0.4-1.9-0.5c-1.8-0.1-3.4,0.9-3.4,1.2c0,0.2,0,0.5,0,0.7c0,0.6,0.4,0.7,0.4,1c0,0.3-0.3,0.6-1.4,0.9
	c-0.5,0.4-1,0.7-1.5,1.1c-0.2,0.3-0.3,0.6-0.5,1.1c-0.3,1.1,0,2,0.1,2.4c0.1,0.2,0.2,0.4,0.2,0.6c0,0.9-0.9,1.6-1,1.6
	c-0.1,0.3-0.3,0.7-0.3,1.2c0,0.5,0.2,0.6,0.7,1.9c0.3,0.7,0.4,1.1,0.5,1.4c0.1,0.3,0.1,0.6,0.2,0.9c0.2,0.4,0.4,0.7,0.6,0.9
	c0.1,0.1,0.5,0.5,1.1,0.5c0.5,0,1-0.3,1.3-0.8c0,0,1.7,2.1,2.6-0.9l0.3-1.9l0.5-1.2c0,0,0.4-0.9-0.5-1.4l-0.8,0.3l-1,0.2
	c0.1-0.1,0.5-0.4,0.7-0.9c0.1-0.5,0-0.9-0.1-1c-0.2,0.1-0.4,0.1-0.6,0.2l-0.3,0.4l-0.3,0l-0.4-0.5l0.7-1.5c0,0-0.9-2.8,0.6-2.5
	l1.2,0C101.8,107.7,102.1,107.9,102.4,108.1z"/>
<path class="st5" d="M64.8,130.8c0,0-0.8,0.1-2.2,1.1c0,0,0.4-1.3-1.7-2c0,0-2-2-1.2-3.1h0.2c0,0,0.6,0.2,0.4-2c0,0,0.6-2.6,1.3-2.4
	l1.2,0c0.2-0.3,0.4-0.5,0.7-0.8c0.1-0.2,0.2-0.5,0.3-0.9c0.1-0.3,0.3-0.5,0.4-0.7c0.3-0.1,0.6-0.1,0.9-0.2c0.5-0.1,1-0.1,1.4-0.1
	c0.4-0.3,0.9-0.5,1.3-0.8c0,0,3.3-2,3.1,0.7l2.3-1.1c0,0,4.4-3.5,11.1,0c0,0-3.5,1.9-1.5,4.3c0,0,5.1,1.7,3.3,3.9
	c0,0,2.7,1.5,2.3,3.1l-1.8,0.8l-0.6,0.2l0.3,1.4c0,0,0.7,0.8-1.8,1.5l-3.9,0.1c0,0-2.2,0.7-2.6,1.4s-0.3,0-0.3,0
	c0-0.1,0.4-0.9,0-1.6c-0.4-0.7-1.3-0.9-2-0.7c-0.7,0.2-1.2,0.8-1.4,1.5l-1.9-1.2c0,0,2.5-1.6,2.5-1.9c0-0.2,2.5-2.9,4.6-3.1
	c0,0-1.4-0.9-1.6-1.3c-0.2-0.4-2.4-2.4-2.4-2.4s-2.7-2-4.5-0.5l-2.5,1.9C68.5,125.7,65.4,128,64.8,130.8z"/>
<path class="st5" d="M47.6,127.3c0,0,1.3-3.7-0.2-6.1c0,0,0-2.5,1.4-2c0,0-0.1-1-2.4-2.8c0,0-1.7-0.9-0.6-1.7c0,0-2.7-4.8-8.2-2.5
	c0,0-2,0.1-1-1.2c0,0-1.3-1-3.2,0.3l-0.7,1.2l-0.9,1.2l-1.4,0.2l-1-0.1v0.9l-0.2,0.8l-0.6,0.2c0,0-0.3,1.9,2.3,3.2
	c0,0,2.6-2,5.6-2.3c0,0,2,0.1,2.5,2.3l1.4,2.6l-1.2,0l-1.6,0.4l-1.4,0.2l-1.5,0.9c0,0,0.8-0.1,0.9,0.9c0,0.1,0,0.3,0,0.3
	s-0.6,1,2,0.5l1.6,2.3l1-0.3c0,0,2.8-1.3,4.3-1C46.1,126,47.6,127.3,47.6,127.3z"/>
<linearGradient id="SVGID_3_" gradientUnits="userSpaceOnUse" x1="23.4871" y1="43.9565" x2="28.2527" y2="43.9565">
	<stop  offset="0.1338" style="stop-color:#9D6828"/>
	<stop  offset="0.5703" style="stop-color:#FCB42A"/>
	<stop  offset="0.799" style="stop-color:#FEDB2B"/>
</linearGradient>
<path class="st30" d="M24.1,43.6c-0.2,0.4-0.4,0.8-0.6,1.2c0.1,0.2,0.2,0.5,0.5,0.7c0.4,0.2,0.8,0.1,1.3,0c0.3-0.1,0.8-0.2,1.3-0.5
	c0.4-0.3,0.7-0.5,1.1-0.8c0.3-0.1,0.5-0.3,0.5-0.7c0-0.3-0.2-0.5-0.5-0.6c0,0-0.7-1.2-2.5,0C24.9,43.1,24.5,43.3,24.1,43.6z"/>
<linearGradient id="SVGID_4_" gradientUnits="userSpaceOnUse" x1="37.8523" y1="40.0853" x2="45.8129" y2="40.0853">
	<stop  offset="0.1338" style="stop-color:#9D6828"/>
	<stop  offset="0.5703" style="stop-color:#FCB42A"/>
	<stop  offset="0.799" style="stop-color:#FEDB2B"/>
</linearGradient>
<path class="st31" d="M38.2,39.8c0,0-0.8-1.3,1.6-1.4c0,0,4.2-1.4,6,1.4c0,0,0.6,0.8-2.3,1.4c0,0-4.2,1.7-5.1,0.4
	C38.3,41.7,37.4,40.5,38.2,39.8z"/>
<linearGradient id="SVGID_5_" gradientUnits="userSpaceOnUse" x1="28.2527" y1="41.6556" x2="38.1878" y2="41.6556">
	<stop  offset="0.1338" style="stop-color:#9D6828"/>
	<stop  offset="0.5703" style="stop-color:#FCB42A"/>
	<stop  offset="0.799" style="stop-color:#FEDB2B"/>
</linearGradient>
<path class="st32" d="M28.4,43.7c0,0,4.1-3.9,9.3-3l0.5-0.9l-0.4-0.2c0,0-7.6,0.1-9.5,3.3L28.4,43.7z"/>
<path class="st33" d="M29.9,113.5c-3.5-4.9-4.6-10.8-5-16.7c0-0.3-0.5-0.3-0.5,0c0.4,6,1.6,12,5.1,17
	C29.6,114.1,30.1,113.8,29.9,113.5L29.9,113.5z"/>
<path class="st33" d="M59.8,126.3c-3.8-0.8-7.6-1.8-11.3-3c-0.3-0.1-0.5,0.4-0.1,0.5c3.7,1.2,7.5,2.2,11.3,3
	C60,126.9,60.2,126.3,59.8,126.3L59.8,126.3z"/>
<path class="st33" d="M96.5,119.1c-2.2,3.6-5.8,5.6-9.5,7.3c-0.3,0.1,0,0.6,0.3,0.5c3.8-1.7,7.5-3.8,9.7-7.4
	C97.1,119,96.7,118.8,96.5,119.1L96.5,119.1z"/>
<path class="st33" d="M101.4,107.7c0.6,0.6,1.3,1,2.1,1.3c0.8,0.3,1.5,0.9,1.8,1.7c0.3,1.1-1.2,1.2-2,1.4c-0.9,0.2-1.7,0.4-2.4,1
	c-0.3,0.2,0.1,0.6,0.4,0.4c1-0.8,2.3-0.8,3.5-1.2c0.7-0.2,1.2-0.7,1.1-1.4c-0.1-0.7-0.7-1.4-1.3-1.9c-0.3-0.3-0.6-0.4-1-0.5
	c-0.7-0.2-1.3-0.7-1.8-1.1C101.5,107.1,101.2,107.5,101.4,107.7L101.4,107.7z"/>
<path class="st33" d="M92.2,62.2c0.6,5.1,2.3,9.9,4.1,14.7c1.9,4.9,3.7,9.8,4.6,15c0.6,3,0.8,6.1,0.8,9.2c0,0.3,0.5,0.3,0.5,0
	c0-5.2-0.8-10.4-2.3-15.4c-1.5-5-3.6-9.8-5.2-14.8c-0.9-2.9-1.7-5.8-2-8.8C92.7,61.9,92.1,61.9,92.2,62.2L92.2,62.2z"/>
<path class="st33" d="M90,32.5c2.8,4.6,2.9,10.2,2.6,15.4c0,0.3,0.5,0.3,0.5,0c0.4-5.3,0.2-11-2.6-15.6C90.3,31.9,89.8,32.2,90,32.5
	L90,32.5z"/>
<path class="st33" d="M52.7,12.9c6.1,0.5,12.1,2.1,18.1,3.5c1.4,0.3,2.9,0.6,4.3,0.9c1.4,0.3,2.7,0.9,3.6,2c0.9,1,1.7,2.2,2.7,3.2
	c0.9,0.9,2,1.7,3,2.6c1.1,1,2,2.1,3,3.3c0.9,1.2,2.3,2.6,2.6,4.1c0.1,0.3,0.6,0.2,0.5-0.1c-0.2-1.3-1.2-2.3-1.9-3.3
	c-0.8-1.1-1.7-2.2-2.7-3.2c-1-1-2-2-3.1-2.9c-1.1-0.9-2-2.1-3-3.2c-0.9-1.1-1.8-2-3.1-2.6c-1.3-0.5-2.8-0.7-4.2-1
	c-3.1-0.7-6.2-1.5-9.4-2.2c-3.4-0.8-6.9-1.4-10.4-1.7C52.4,12.4,52.4,12.9,52.7,12.9L52.7,12.9z"/>
<path class="st33" d="M35.7,29.5c0-0.3,0.1-0.5,0.2-0.7c0.1-0.3-0.4-0.5-0.5-0.1c-0.1,0.3-0.1,0.6-0.2,0.9c0,0.1,0.1,0.3,0.3,0.3
	C35.6,29.7,35.7,29.6,35.7,29.5L35.7,29.5z"/>
<path class="st34" d="M43.4,34.1c-0.2-1.6-1.7-2.6-3.3-2.4c-1.6,0.2-2.6,1.7-2.4,3.3c0.2,1.6,1.7,2.6,3.3,2.4
	C42.6,37.1,43.7,35.7,43.4,34.1z M39,36c-0.1-0.4,0.2-0.9,0.7-0.9c0.4-0.1,0.9,0.2,0.9,0.7c0.1,0.4-0.2,0.9-0.7,0.9
	C39.5,36.7,39,36.4,39,36z"/>
<path class="st33" d="M35.6,28.2c-4.4-0.8-8.9,1.5-11.5,5c-2.6,3.4-3.3,8.2-0.6,11.7c1.3,1.7,3.3,2.9,5.5,3c0.2,0,0.2-0.3,0-0.3
	c-4-0.1-6.9-3.9-6.9-7.7c0-4.2,2.8-8.1,6.4-10.1c2.1-1.2,4.6-1.7,7-1.3C35.7,28.6,35.8,28.2,35.6,28.2L35.6,28.2z"/>
<path class="st33" d="M29,46.9c0.1,0.5,0.7,0.9,1.3,0.9c0.6,0,1.1-0.2,1.6-0.4c0.9-0.3,1.8-0.7,2.7-1c0.9-0.3,1.7-0.6,2.4-1.3
	c0.6-0.6,1-1.7,0.5-2.5c-0.2-0.4-0.6-0.7-1-0.9c-1.7-0.9-3.9-1-5.5,0.1c-1.6,1.1-2.5,3.3-1.7,5.1"/>
<path class="st33" d="M36.5,49.7c-1.1,0.2-2.3,0.2-3.4,0.5c-0.2,0-0.1,0.4,0.1,0.3c1.1-0.2,2.3-0.3,3.4-0.5
	C36.8,50.1,36.7,49.7,36.5,49.7L36.5,49.7z"/>
<path class="st33" d="M37.1,42.6c0.7,0.3,1.4,0.6,2,1.1c0.2,0.2,0.4-0.1,0.2-0.2c-0.6-0.6-1.3-0.9-2.1-1.2
	C37,42.2,36.9,42.5,37.1,42.6L37.1,42.6z"/>
<path class="st33" d="M37,50.1c0.2,1.5,0.3,3.4-0.6,4.7c-0.1,0.2-0.2,0.3-0.4,0.5c-0.3,0.3-0.7,0.5-1.1,0.3
	c-0.4-0.2-0.5-1.1-0.6-1.5C34,53,33.9,51.9,34,50.8c0-0.2-0.3-0.2-0.3,0c-0.1,1,0.2,6.6,2.4,5.1c1.7-1.2,1.6-3.8,1.4-5.7
	C37.3,49.9,37,49.9,37,50.1L37,50.1z"/>
<path class="st33" d="M35.1,55.9c-2.3-0.2-3.7-2.5-2.8-4.6c0.1-0.2-0.2-0.4-0.3-0.2c-1,2.4,0.5,5,3.1,5.1
	C35.3,56.3,35.3,56,35.1,55.9L35.1,55.9z"/>
<path class="st34" d="M83.5,71.5c-3.3,0.9-5.8,4.1-7,7.1c-0.4,1.1-0.7,2.3-0.4,3.4c0.3,1.2,1.4,1.6,2.6,1.6c0.2,0,0.2-0.3,0-0.3
	c-1.3,0-2.2-0.6-2.3-2c-0.1-1.1,0.2-2.2,0.7-3.1c1.2-2.8,3.5-5.6,6.5-6.4C83.9,71.8,83.8,71.4,83.5,71.5L83.5,71.5z"/>
<path class="st34" d="M80,80.3c-0.7,0.9-1.4,2.2-1,3.3c0.5,1.2,2.1,1.1,3.1,0.7c1.3-0.6,2.2-2,2.9-3.3c0.7-1.3,1.3-2.8,1.5-4.3
	c0-0.2-0.3-0.3-0.3-0.1c-0.2,1.2-0.6,2.3-1,3.4c-0.5,1.2-1.2,2.5-2.2,3.4c-0.8,0.7-2.6,1.4-3.4,0.4c-0.7-0.9,0.1-2.5,0.7-3.2
	C80.4,80.4,80.2,80.2,80,80.3L80,80.3z"/>
<path class="st34" d="M35.9,116.9c2.8-0.6,3.2,3.1,4.6,4.7c0.1-0.1,0.1-0.2,0.2-0.3c-1.3-0.2-2.5,0.3-3.7,0.7c-1.3,0.5-2.7,1.2-4,1
	c-1.3-0.1-2.5-1.6-2.2-3c0.3-1.1,1.5-1.8,2.5-2.2c1.2-0.5,2.4-0.8,3.6-1c0.2,0,0.1-0.4-0.1-0.3c-1.2,0.2-2.4,0.5-3.5,1
	c-1,0.4-2.2,1.1-2.7,2.2c-0.5,1.1,0.1,2.4,0.9,3.1c1,0.9,2.5,0.7,3.7,0.3c1.7-0.5,3.6-1.7,5.5-1.4c0.2,0,0.3-0.2,0.2-0.3
	c-1.5-1.8-1.8-5.4-4.9-4.8C35.6,116.6,35.7,116.9,35.9,116.9L35.9,116.9z"/>
<path class="st34" d="M31.4,122.1c0,0,1.4-2.5,2.8-2.7c0.2,0,0.1-0.3-0.1-0.3c-1.5,0.3-3.1,0.8-3.1,3
	C31,122.1,31.4,122.1,31.4,122.1L31.4,122.1z"/>
<path class="st34" d="M70.8,124c3.7-2.3,6,2.5,8.7,4.1c0-0.1,0-0.2,0-0.3c-3.8,0.7-5.8,4.9-9.4,6.2c-1.9,0.7-4.2-0.4-4.9-2.2
	c-0.7-1.7,0.7-3.5,1.9-4.7c1.4-1.4,3.1-2.6,4.8-3.6c0.2-0.1,0-0.4-0.2-0.3c-1.7,1-3.3,2.1-4.6,3.4c-1.2,1.2-2.5,2.8-2.3,4.6
	c0.2,1.7,2.1,3.2,3.8,3.4c1.9,0.2,3.5-1.2,4.9-2.3c1.8-1.5,3.7-3.6,6.1-4.1c0.1,0,0.2-0.2,0-0.3c-2.9-1.6-5.2-6.5-9.1-4.1
	C70.5,123.9,70.6,124.2,70.8,124L70.8,124z"/>
<path class="st34" d="M67.1,133.4c-0.8-2.2,0.7-4.1,2.5-5.2c0.2-0.1,0-0.4-0.2-0.3c-1.9,1.2-3.6,3.2-2.7,5.6
	C66.9,133.7,67.2,133.6,67.1,133.4L67.1,133.4z"/>
<path class="st34" d="M81,21.5c1.6-1.2,3.4-2,5.3-2.5c2-0.5,4.2-0.7,6.1,0.2c3.3,1.6,4.9,6.2,4,9.7c-0.6,2.3-2.4,4.3-4.6,5
	c-0.2,0.1-0.1,0.4,0.1,0.3c2-0.6,3.7-2.3,4.5-4.2c0.7-1.8,0.7-3.8,0.2-5.6c-0.5-1.8-1.5-3.6-3-4.8c-1.7-1.3-3.8-1.5-5.9-1.2
	c-2.5,0.4-4.9,1.4-6.9,2.9C80.6,21.3,80.8,21.6,81,21.5L81,21.5z"/>
<path class="st34" d="M91,25.6c-0.2-1.3-1.4-2.2-2.7-2c-1.3,0.2-2.2,1.4-2,2.7c0.2,1.3,1.4,2.2,2.7,2C90.3,28.2,91.2,26.9,91,25.6z"
	/>
<path class="st34" d="M28.5,37.9c-0.5-1.5-2.2-2.3-3.6-1.7c-1.5,0.5-2.3,2.2-1.7,3.7c0.5,1.5,2.2,2.3,3.7,1.7
	C28.3,41,29.1,39.3,28.5,37.9z M24.5,40.5c-0.1-0.4,0.1-0.9,0.5-1c0.4-0.2,0.9,0.1,1,0.5c0.2,0.4-0.1,0.9-0.5,1
	C25.1,41.2,24.7,40.9,24.5,40.5z"/>
<path class="st33" d="M34.6,41.7c-1.9-2.2-2.1-5.5-1.1-8.2c1.1-2.7,3.4-4.6,6-5.7c2.7-1.2,6-1.8,8.9-0.8c2.6,0.8,5.3,2.8,6.3,5.4
	c1.2,3-0.1,6.6-1.9,9c-0.1,0.2,0.2,0.4,0.3,0.2c1.8-2.4,2.9-5.6,2.2-8.5c-0.7-2.9-3.3-5-5.9-6.1c-2.9-1.2-6.3-0.9-9.2,0.2
	c-2.8,1-5.4,2.9-6.8,5.6c-1.4,2.9-1.3,6.6,0.9,9.1C34.5,42.1,34.7,41.9,34.6,41.7L34.6,41.7z"/>
<path class="st34" d="M23.1,71.1c-2.4,0.8-7.9,4-4.3,6.7c0.2,0.1,0.4-0.2,0.2-0.3c-3.2-2.4,2.1-5.4,4.2-6
	C23.4,71.3,23.3,71,23.1,71.1L23.1,71.1z"/>
<path class="st34" d="M21.8,75.9c-1.2,0.3-3.1,1.2-2.8,2.8c0.3,1.4,2,1.9,3.2,1.8c0.2,0,0.2-0.4,0-0.3c-1,0-2.6-0.3-2.9-1.4
	c-0.4-1.4,1.5-2.2,2.5-2.5C22.1,76.2,22,75.8,21.8,75.9L21.8,75.9z"/>
<path class="st34" d="M59.7,13.7c1.5-2.5,4.5-3.5,7.3-3.1c3.2,0.5,5.7,2.6,6.6,5.7c0.1,0.2,0.4,0.1,0.3-0.1c-1-3.3-3.7-5.5-7-5.9
	C64,9.9,61,11,59.4,13.5C59.3,13.7,59.6,13.9,59.7,13.7L59.7,13.7z"/>
<path class="st34" d="M27,44.7c3.2-2.2,6.8-4.6,10.8-3.8c0.2,0,0.3-0.3,0.1-0.3c-4.2-0.8-7.8,1.6-11.1,3.8
	C26.7,44.5,26.8,44.8,27,44.7L27,44.7z"/>
<path class="st34" d="M38,39.7c-0.5,0.6-0.4,1.3,0.1,1.8c0.6,0.7,1.6,0.7,2.5,0.6c1.3-0.1,2.6-0.5,3.8-0.9c0.6-0.2,1.8-0.6,1.7-1.4
	c-0.1-0.7-1.2-1.3-1.8-1.6c-0.9-0.4-1.8-0.5-2.7-0.4c-1.1,0-4.6,0.3-3.7,2.2c0.1,0.2,0.4,0,0.3-0.2c-0.2-0.4,0.1-0.9,0.4-1.1
	c0.2-0.1,0.4-0.2,0.6-0.2c0.3-0.1,0.6-0.1,0.9-0.2c0.6-0.1,1.2-0.2,1.9-0.2c1.1,0,2.7,0.3,3.5,1.2c0.1,0.2,0.3,0.6,0.2,0.8
	c-0.1,0.1-0.3,0.2-0.4,0.3c-0.4,0.2-0.8,0.3-1.1,0.5c-0.7,0.3-1.4,0.5-2.1,0.6c-0.7,0.2-1.5,0.3-2.2,0.3c-0.8,0-2.3-0.9-1.4-1.9
	C38.4,39.8,38.2,39.6,38,39.7L38,39.7z"/>
<path class="st34" d="M27.6,43c0.3-0.2,0.2-0.5-0.1-0.7c-0.5-0.4-1.4-0.1-1.9,0.1c-0.9,0.3-2.8,1.6-2.3,2.8c0.5,1.2,2.6,0.3,3.3-0.1
	c0.6-0.3,1.3-0.7,1.6-1.4c0.2-0.5,0-1-0.5-1.2c-0.2-0.1-0.3,0.3-0.1,0.3c0.1,0.2,0.2,0.3,0.3,0.5c0,0.3-0.2,0.5-0.4,0.6
	c-0.2,0.2-0.4,0.3-0.6,0.5c-0.3,0.2-0.6,0.4-0.9,0.5c-0.5,0.2-1.8,0.9-2.3,0.4c-0.2-0.3-0.2-0.7-0.1-1c0.1-0.2,0.3-0.4,0.4-0.5
	c0.2-0.3,0.5-0.5,0.8-0.7c0.3-0.2,0.7-0.4,1.1-0.5c0.2,0,0.4-0.1,0.6-0.1c0,0,0.9,0.1,0.7,0.2C27.3,42.9,27.5,43.2,27.6,43L27.6,43z
	"/>
<path class="st34" d="M22.6,55.6c-1.2,2.5-0.3,5.1-0.7,7.7c-0.4,2.7-2.3,5-5,5.8c-0.2,0.1-0.3,0.4,0,0.5c3.1,0.7,6.3,0.3,9.1-1
	c0.3-0.1,0.1-0.6-0.2-0.5c-2.7,1.2-6.2,1.5-8.7,0.9c0,0.2,0,0.3,0,0.5c2.2-0.7,4.4-2.6,5.1-5.1c0.8-2.8-0.5-5.9,0.9-8.6
	C23.2,55.6,22.7,55.3,22.6,55.6L22.6,55.6z"/>
<path class="st34" d="M44.3,101.3c4.2,6.7,12,10.3,19.4,12c0.2,0,0.4-0.1,0.3-0.3c-1-3.1-3.4-5.7-3.7-9c-0.2-3.2,1.4-6.2,2.5-9.2
	c0.1-0.3-0.4-0.5-0.5-0.1c-1.1,3-2.8,6-2.6,9.3c0.2,3.4,2.7,6,3.7,9.1c0.1-0.1,0.2-0.2,0.3-0.3c-7.3-1.7-15-5.1-19.1-11.7
	C44.5,100.8,44.1,101,44.3,101.3L44.3,101.3z"/>
<path class="st34" d="M62.8,95.3c2.9,0.3,5.8-0.6,8-2.5c0.2-0.2,0-0.4-0.2-0.4c-3.8-0.4-6.9-4-6.9-7.9c0-3.9,4.6-7.8,2-11.6
	c-0.1,0.1-0.2,0.3-0.3,0.4c3.2,0.9,6.8-0.2,9-2.8c0.2-0.2,0-0.5-0.3-0.4c-2.4,0.8-4-1.7-4.5-3.6c-0.5-1.9-0.9-3.7-1.8-5.5
	c-1.6-3.2-4.2-5.9-7.3-7.6c-1.8-1-3.7-1.7-5.7-2c-0.3-0.1-0.5,0.4-0.1,0.5c3.8,0.7,7.3,2.6,9.9,5.5c1.3,1.4,2.4,3,3.1,4.8
	c0.9,1.9,1,4.1,1.9,6c0.8,1.7,2.7,3.2,4.6,2.5c-0.1-0.1-0.2-0.3-0.3-0.4c-2.1,2.4-5.4,3.5-8.5,2.6c-0.2-0.1-0.4,0.2-0.3,0.4
	c1.5,2.2,0.2,4.9-0.8,7c-0.9,1.8-1.5,3.7-1.1,5.7c0.6,3.6,3.6,6.7,7.3,7c-0.1-0.1-0.1-0.3-0.2-0.4c-2.1,1.8-4.9,2.6-7.6,2.4
	C62.4,94.8,62.4,95.3,62.8,95.3L62.8,95.3z"/>
<path class="st34" d="M54.8,52.2c3.7-0.1,7.4-0.8,10.8-2.3c0.2-0.1,0.3-0.5-0.1-0.5c-2.3,0.1-4.5-0.7-6.3-2.2
	c-0.3-0.2-0.6,0.1-0.4,0.4c1.8,1.6,4.2,2.5,6.6,2.3c0-0.2,0-0.3-0.1-0.5c-3.4,1.4-7,2.2-10.7,2.3C54.4,51.7,54.4,52.3,54.8,52.2
	L54.8,52.2z"/>
<path class="st34" d="M32,28c-1.6-2.5-1.3-5.8,0.7-8c-0.1-0.1-0.2-0.1-0.3-0.2c-0.2,0.6-0.1,1.2,0.2,1.8c0.1,0.1,0.2,0.1,0.3,0
	c0.5-0.5,1.1-0.8,1.9-1c-0.1,0-0.1-0.1-0.2-0.1c0.1,0.4,0.1,0.8,0.2,1.2c0,0.1,0.2,0.2,0.3,0.1c0.6-0.4,1.2-0.8,1.9-1.1
	c-0.1,0-0.2,0-0.2-0.1c0.7,1.3,2.5,1.9,3.9,1.3c0.5-0.2,0.9-0.8,1.4-0.9c0.7-0.2,1.4,0.4,2,0.9c0.7,0.6,1.4,1.2,2.3,1.5
	c2,0.8,4.2,0.8,6.3,0.5c1-0.1,4.3-0.2,3.9-1.8c-0.1,0-0.2,0.1-0.3,0.1c0.9,1.7,2.5,3.1,3.9,4.4c1.1,0.9,2.6,1.6,3.9,0.6
	c0.2-0.1-0.1-0.4-0.2-0.2c-1.5,1.2-3.2-0.4-4.2-1.4c-1.1-1.1-2.3-2.1-3-3.5c-0.1-0.2-0.4-0.1-0.3,0.1c0.2,1-1.9,1.2-2.6,1.3
	c-1,0.1-1.9,0.3-2.9,0.3c-1.9,0.1-3.8-0.2-5.4-1.2c-1.1-0.7-2.4-2.5-3.8-1.7c-0.4,0.2-0.6,0.5-1,0.7c-0.4,0.2-0.9,0.3-1.3,0.3
	c-0.9-0.1-1.7-0.5-2.2-1.3c0-0.1-0.2-0.1-0.2-0.1c-0.6,0.4-1.2,0.8-1.9,1.1c0.1,0,0.2,0.1,0.3,0.1c-0.1-0.4-0.1-0.8-0.2-1.2
	c0-0.1-0.1-0.1-0.2-0.1c-0.8,0.2-1.4,0.5-2,1.1c0.1,0,0.2,0,0.3,0c-0.3-0.5-0.4-1-0.2-1.5c0-0.2-0.2-0.3-0.3-0.2
	c-2.1,2.3-2.4,5.8-0.7,8.4C31.9,28.3,32.2,28.1,32,28L32,28z"/>
<path class="st34" d="M77.8,24.6c1.2-0.7,2.1-1.9,2.8-3c0.1-0.2-0.2-0.4-0.3-0.2c-0.7,1.1-1.5,2.2-2.7,2.9
	C77.4,24.4,77.6,24.7,77.8,24.6L77.8,24.6z"/>
<path class="st34" d="M64.2,27.4c1.3,0.8,2.8,1.2,4.3,0.9c1.5-0.2,2.7-1.4,4.2-1.7c0.2,0,0.1-0.4-0.1-0.3c-1.3,0.2-2.3,1.1-3.6,1.5
	c-1.6,0.5-3.3,0.1-4.7-0.8C64.2,27,64,27.3,64.2,27.4L64.2,27.4z"/>
<path class="st34" d="M77.8,26.5c1.6-0.9,4.2-2.6,2.9-4.7c-0.1-0.2-0.4,0-0.3,0.2c1.2,1.9-1.4,3.4-2.8,4.2
	C77.5,26.3,77.6,26.6,77.8,26.5L77.8,26.5z"/>
<path class="st34" d="M55.3,33.9c1.3,0.7,2.7,0.8,4.1,0.5c0.7-0.1,1.5-0.4,2.1-0.8c0.8-0.5,1.4-1.2,2.3-1.6c0.9-0.4,1.8-0.4,2.8-0.5
	c0.9-0.2,1.7-0.4,2.6-0.8c1.6-0.7,3.2-1.5,4.8-2.2c0.2-0.1,0-0.4-0.2-0.3c-1.5,0.6-2.9,1.4-4.4,2.1c-0.8,0.4-1.7,0.7-2.6,0.9
	c-0.8,0.2-1.6,0.1-2.4,0.3c-1.6,0.5-2.6,1.9-4.1,2.4c-1.5,0.5-3.3,0.5-4.8-0.3C55.3,33.5,55.1,33.8,55.3,33.9L55.3,33.9z"/>
<path class="st34" d="M43.4,21.3c2.1-2.2,4.2-4.5,6.3-6.7c0.5-0.5,1-1,1.7-1.3c0.9-0.3,1.7,0,2.5,0.4c1.4,0.7,2.7,1.5,4.1,2.2
	c2.6,1.4,5.3,2.8,7.9,4.3c2.5,1.4,4.8,3,6.5,5.3c1.8,2.5,2.9,5.3,3.6,8.3c0.1,0.3,0.6,0.2,0.5-0.1c-0.7-2.8-1.7-5.5-3.3-7.8
	c-1.6-2.3-3.7-4.1-6.1-5.5c-2.8-1.7-5.7-3.2-8.6-4.7c-1.5-0.8-2.9-1.6-4.4-2.4c-1.2-0.6-2.4-0.9-3.5-0.2c-0.6,0.4-1.1,0.9-1.6,1.4
	c-0.7,0.7-1.4,1.5-2.1,2.2c-1.3,1.4-2.6,2.8-3.9,4.2C42.8,21.1,43.2,21.5,43.4,21.3L43.4,21.3z"/>
<path class="st34" d="M77.7,33.7c0.4-1.8,0.5-3.7,0.2-5.5c-0.2-1.6-1-3.6,0-5.1c0.2-0.3-0.3-0.5-0.5-0.3c-0.9,1.4-0.5,3-0.2,4.4
	c0.4,2.1,0.4,4.2-0.1,6.3C77.1,33.9,77.6,34,77.7,33.7L77.7,33.7z"/>
<path class="st34" d="M75.8,33.8c-2.3,0.3-4.2,2-4.6,4.3c0,0.2,0.2,0.4,0.4,0.3c0.4-0.2,0.8-0.4,1.2-0.6c-0.1-0.1-0.3-0.2-0.4-0.2
	c-0.1,1-0.1,2-0.2,3c0,0.3,0.5,0.3,0.5,0c0.1-1,0.1-2,0.2-3c0-0.2-0.2-0.3-0.4-0.2c-0.4,0.2-0.8,0.4-1.2,0.6
	c0.1,0.1,0.3,0.2,0.4,0.3c0.3-2.1,2-3.7,4.1-4C76.1,34.3,76.1,33.7,75.8,33.8L75.8,33.8z"/>
<path class="st34" d="M72.6,41.5c0.3-0.1,0.7-0.3,1-0.4c-0.1-0.1-0.2-0.2-0.3-0.3c0.2,2.5,1.9,4.7,4.2,5.6c0.1,0,0.3-0.1,0.3-0.2
	c0.2-0.8,1.2-0.8,1.8-0.3c0.6,0.6,0.7,1.6,0.7,2.4c0,0.2,0.2,0.3,0.4,0.2c1.6-1.1,2.5-2.9,2.3-4.9c-0.1,0.1-0.2,0.2-0.3,0.3
	c0.8,0,1.6-0.1,2.4-0.1c0.4,0,1.1,0.1,1.5-0.3c0.3-0.3,0.2-0.6,0.1-0.9c0-0.2-0.1-0.5,0.1-0.7c0.1-0.1,0.2-0.1,0.3-0.1
	c0.2-0.1,0.3-0.2,0.4-0.3c0.6-0.8,0.1-2.1-0.1-2.9c-0.2-0.5-0.4-0.9-0.8-1.3c-0.5-0.5-1.5-0.6-1.7-1c0,0.1,0,0.2,0,0.4
	c0.3-0.4,0.9-0.7,1.5-0.8c0.2,0,0.3-0.4,0.1-0.5c-2.6-1.7-5.8-2.4-8.9-2c-0.3,0-0.3,0.6,0,0.5c3-0.4,6.1,0.3,8.6,1.9
	c0-0.2,0-0.3,0.1-0.5c-0.7,0.1-1.2,0.5-1.7,0.9c-0.1,0.1-0.1,0.3,0,0.4c0.4,0.3,0.8,0.4,1.2,0.7c0.6,0.3,0.9,0.7,1.1,1.4
	c0.3,0.8,0.8,2.3-0.2,2.8c-0.6,0.3-0.6,0.5-0.5,1.1c0.1,0.9-1,0.7-1.6,0.7c-0.6,0-1.3,0.1-1.9,0.1c-0.1,0-0.3,0.1-0.3,0.3
	c0.1,1.7-0.7,3.4-2.1,4.4c0.1,0.1,0.3,0.2,0.4,0.2c0-1.1-0.2-2.6-1.4-3.1c-0.8-0.3-1.9-0.1-2.1,0.9c0.1-0.1,0.2-0.1,0.3-0.2
	c-2.1-0.8-3.6-2.8-3.9-5.1c0-0.1-0.2-0.3-0.3-0.3c-0.3,0.1-0.7,0.3-1,0.4C72.2,41.1,72.3,41.6,72.6,41.5L72.6,41.5z"/>
<path class="st34" d="M76.4,33.8c0.5,0.1,1-0.1,1.3-0.5c0.1-0.2-0.2-0.4-0.3-0.2c-0.2,0.3-0.6,0.4-0.9,0.3
	C76.3,33.4,76.2,33.8,76.4,33.8L76.4,33.8z"/>
<path class="st34" d="M81.4,88.7c6.2-0.7,12.3-2.7,17.7-5.8c0.2-0.1,0-0.4-0.2-0.3c-5.4,3.1-11.4,5-17.5,5.7
	C81.1,88.4,81.1,88.7,81.4,88.7L81.4,88.7z"/>
<path class="st34" d="M63.6,87.3c4.8,1.4,9.8,1.9,14.8,1.6c0.2,0,0.2-0.4,0-0.3c-5,0.2-9.9-0.3-14.7-1.6
	C63.5,86.9,63.4,87.2,63.6,87.3L63.6,87.3z"/>
<path class="st34" d="M82.3,91.9c6.2-0.5,12.6-1.8,17.7-5.6c0.2-0.1,0-0.4-0.2-0.3c-5,3.7-11.4,5-17.5,5.5
	C82.1,91.6,82.1,91.9,82.3,91.9L82.3,91.9z"/>
<path class="st34" d="M70.4,93.2c3-0.3,5.9-0.6,8.9-1c0.2,0,0.2-0.4,0-0.3c-3,0.3-5.9,0.6-8.9,1C70.2,92.9,70.2,93.2,70.4,93.2
	L70.4,93.2z"/>
<path class="st34" d="M30.9,118.7c-1.3-0.6-2.2-1.8-2.3-3.3c-0.1,0-0.2,0.1-0.3,0.1c0.3,0.5,0.9,0.2,1.1-0.2c0.3-0.5,0-1.5,1-1.3
	c0.4,0.1,0.8,0.2,1.1,0.1c0.4-0.1,0.5-0.5,0.7-0.8c0.2-0.5,0.5-0.9,0.9-1.3c0.5-0.4,1-0.8,1.7-1c0.2-0.1,0.7-0.2,1-0.2
	c0.7,0.3,0.3,0.5,0.4,0.9c0.1,0.6,0.9,0.6,1.4,0.5c1-0.3,1.8-0.6,2.8-0.5c2.2,0.1,4.3,1.3,5.4,3.3c0-0.1,0-0.2,0.1-0.2
	c-0.8,0.3-0.4,1.3,0.1,1.6c0.5,0.4,1.1,0.7,1.6,1.1c0.6,0.5,1,1.1,1.4,1.8c0.1-0.1,0.2-0.2,0.2-0.2c-0.4-0.3-1-0.2-1.3,0.2
	c-0.6,0.5-0.5,1.3-0.3,1.9c0.3,1,0.6,1.9,0.6,3c0,1.1-0.2,2.2-0.7,3.2c0.1,0,0.2,0,0.3,0c-1.1-1.3-2.8-1.9-4.5-1.7
	c-0.8,0.1-1.6,0.3-2.3,0.6c-0.2,0.1-0.5,0.2-0.7,0.3c-0.5,0.2-0.8,0-1.1-0.4c-0.4-0.5-0.7-1.1-1.1-1.7c0-0.1-0.1-0.1-0.2-0.1
	c-0.3,0.1-2,0.5-2.1-0.1c0-0.1,0.2-0.4,0.2-0.5c0-0.1,0-0.3-0.1-0.4c-0.2-0.5-0.8-0.8-1.3-0.6c-0.2,0.1-0.1,0.4,0.1,0.3
	c0.5-0.1,0.9,0.2,0.9,0.8c0,0.1-0.1,0.2-0.1,0.4c0,0.2,0,0.3,0.1,0.5c0.3,0.4,1.3,0.2,1.7,0.2c0.4-0.1,0.6-0.2,0.8,0.2
	c0.3,0.3,0.5,0.7,0.7,1c0.3,0.4,0.5,1,1.1,0.9c0.6,0,1.2-0.5,1.7-0.7c0.7-0.2,1.4-0.4,2.1-0.4c1.5-0.1,2.9,0.4,3.9,1.6
	c0.1,0.1,0.2,0.1,0.3,0c0.5-1.3,0.8-2.7,0.7-4c-0.1-0.7-0.2-1.3-0.4-2c-0.1-0.4-0.3-0.9-0.2-1.4c0.1-0.5,0.7-1.2,1.3-0.8
	c0.2,0.1,0.3-0.1,0.2-0.2c-0.4-0.7-0.9-1.4-1.5-2c-0.3-0.3-0.6-0.5-0.9-0.7c-0.3-0.2-1.8-1-0.8-1.4c0.1,0,0.1-0.2,0.1-0.2
	c-0.9-1.6-2.5-2.8-4.3-3.2c-0.9-0.2-1.8-0.3-2.7-0.1c-0.5,0.1-0.9,0.2-1.4,0.4c-0.2,0.1-0.7,0.2-0.9,0.1c-0.4-0.3-0.1-0.6-0.2-0.9
	c-0.1-0.8-1.1-0.6-1.7-0.4c-0.9,0.2-1.8,0.8-2.4,1.6c-0.3,0.4-0.4,0.9-0.7,1.2c-0.6,0.7-1.1,0.1-1.8,0.2c-0.3,0-0.5,0.2-0.6,0.5
	c-0.1,0.1-0.1,0.3-0.1,0.4c0,0.2-0.3,1.3-0.6,0.8c-0.1-0.1-0.3-0.1-0.3,0.1c0.1,1.6,1,2.9,2.5,3.6C31,119,31.2,118.7,30.9,118.7
	L30.9,118.7z"/>
<path class="st34" d="M64.7,130.6c-0.9,0.3-1.7,0.8-2.3,1.6c0.1,0,0.2,0.1,0.3,0.1c0.4-1.2-0.1-1.8-1.1-2.4
	c-0.5-0.3-0.9-0.7-1.4-1.1c-0.6-0.6-0.6-1.2-0.5-1.9c-0.1,0.1-0.2,0.1-0.3,0.2c1.2,0.7,1-2.2,1.1-2.6c0.1-0.5,0.3-1.1,0.5-1.5
	c0.2-0.4,0.4-0.5,0.8-0.4c0.1,0,0.3,0.2,0.4,0.2c0.4,0.1,0.6,0,0.9-0.3c0.3-0.4,0.4-0.9,0.6-1.3c0.1-0.3,0.3-0.6,0.5-0.7
	c0.4-0.3,1.1,0,1.6-0.1c0.8-0.1,1.5-0.6,2.2-1.1c0.5-0.3,1.1-0.6,1.6-0.6c0.7,0,1.4,0.6,1.2,1.3c-0.1,0.2,0,0.3,0.1,0.2
	c3.6-3.1,9.1-3.6,13-1.1c0-0.1,0-0.2,0-0.3c-1.1,0.7-3,2.2-1.8,3.8c0.6,0.7,1.8,1,2.6,1.4c1,0.6,2.2,1.8,1.3,2.9
	c-0.1,0.1,0,0.2,0.1,0.2c0.8,0.5,1.7,1.3,2,2.1c0.2,0.7-0.6,0.8-1.2,0.9c-0.4,0.1-0.8,0.2-1,0.6c-0.3,0.4,0,0.7,0.2,1.1
	c0.6,1.8-3.6,1.8-4.7,1.8c-1.5,0.1-2.8,0.4-3.9,1.5c0.1,0.1,0.2,0.1,0.3,0.2c0.5-1,0-2.3-1.1-2.7c-1.2-0.5-2.5,0.5-2.7,1.8
	c0.1,0,0.2-0.1,0.3-0.1c-0.7-0.4-1.4-0.9-2.1-1.3c-0.2-0.1-0.4,0.2-0.2,0.3c0.7,0.4,1.4,0.9,2.1,1.3c0.1,0.1,0.2,0,0.3-0.1
	c0.2-1,1.1-1.8,2.2-1.6c0.9,0.2,1.4,1.4,1,2.2c-0.1,0.2,0.1,0.3,0.3,0.2c1.5-1.4,3.5-1.3,5.4-1.5c1-0.1,3.6-0.3,3.4-1.8
	c0-0.3-0.2-0.5-0.3-0.7c-0.3-0.6,0.2-0.7,0.6-0.9c0.5-0.2,1-0.2,1.4-0.6c0.5-0.5,0.1-1-0.3-1.5c-0.5-0.7-1.1-1.3-1.8-1.7
	c0,0.1,0,0.2,0.1,0.2c0.9-1.3-0.3-2.8-1.4-3.4c-0.8-0.4-2.4-0.8-2.6-1.8c-0.3-1.4,1.1-2.2,2.1-2.8c0.1-0.1,0.1-0.2,0-0.3
	c-4.2-2.6-9.8-2.1-13.5,1.1c0.1,0.1,0.2,0.1,0.3,0.2c0.2-0.6-0.1-1.2-0.7-1.5c-0.6-0.4-1.4-0.3-2,0c-1,0.5-1.9,1.4-3.1,1.4
	c-0.7,0-1.2-0.2-1.7,0.4c-0.4,0.5-0.5,1.1-0.7,1.6c-0.5,1-0.9,0-1.6,0.1c-0.6,0.1-0.9,1.2-1,1.7c-0.1,0.5-0.2,1-0.3,1.5
	c0,0.2,0,1.9-0.5,1.6c-0.1-0.1-0.3,0-0.3,0.2c0,0.5-0.1,1.1,0.2,1.6c0.2,0.4,0.7,0.8,1,1.1c0.9,0.9,2.4,1,1.9,2.6
	c-0.1,0.2,0.2,0.3,0.3,0.1c0.5-0.7,1.2-1.2,2.1-1.4C65,130.8,64.9,130.5,64.7,130.6L64.7,130.6z"/>
<path class="st34" d="M25.4,68.3c-2.7,2.1-3.6,5.6-3.7,8.9c0,4.5,1.4,9,0.3,13.5c-0.6,2.5-1.7,4.8-2.9,7.1c-0.1,0.2,0,0.4,0.2,0.4
	c4.7-0.4,9-3.1,11.4-7.2c0.2-0.3-0.3-0.6-0.5-0.3c-2.3,3.9-6.4,6.6-10.9,7c0.1,0.1,0.2,0.3,0.2,0.4c1.8-3.8,3.5-7.6,3.4-11.9
	c-0.1-4.1-1.3-8.2-0.4-12.3c0.4-2,1.4-3.9,3-5.1C25.9,68.6,25.7,68.1,25.4,68.3L25.4,68.3z"/>
<path class="st34" d="M29.9,90.8c0,3.9,0.8,8,3,11.3c2.2,3.3,5.6,5.5,8.9,7.7c0.2,0.1,0.3,0,0.4-0.2c0.3-0.7,0.1-1.4-0.1-2.1
	c-0.2-0.8-0.3-1.6-0.2-2.5c0.2-1.6,1.1-3.1,2.5-4c0.3-0.2,0-0.6-0.3-0.5c-1.3,0.9-2.2,2.2-2.6,3.7c-0.2,0.8-0.3,1.5-0.2,2.3
	c0.1,1,0.7,1.9,0.3,2.9c0.1-0.1,0.3-0.1,0.4-0.2c-3.2-2.1-6.5-4.2-8.7-7.5c-2.1-3.2-3-7.2-2.9-11C30.5,90.4,29.9,90.4,29.9,90.8
	L29.9,90.8z"/>
<path class="st34" d="M78.3,74.7c-0.7-1-0.4-2.4,0.6-3c0.1,0,0.1-0.1,0.1-0.2c-0.2-1.1,0.6-2.6,2-2.1c0.8,0.3,0.8,1.3,1.4,1.9
	c0.6,0.5,1.2,0.3,1.9,0.3c1.4,0.1,1.2,1.8,1.4,2.8c0.1,0.8,0.5,1.3,1.1,1.8c0.8,0.7,1,1.7,1.2,2.7c0.2,1.1,0.4,2.5-0.5,3.4
	c-0.5,0.5-0.9,0.4-1.3-0.1c-0.4-0.4-0.7-1-0.8-1.6c0-0.2-0.4-0.2-0.3,0c0.1,1,0.6,1.8,1.5,2.3c0.7,0.4,1.5-0.5,1.7-1.1
	c0.5-1.1,0.2-2.3,0-3.4c-0.1-0.5-0.2-1-0.5-1.5c-0.3-0.5-0.7-0.8-1.1-1.2c-1-1-0.4-2.4-1-3.5c-0.2-0.4-0.5-0.7-0.8-0.8
	c-0.6-0.2-1.2,0.1-1.7-0.1c-1-0.3-0.8-1.8-1.9-2.2c-0.8-0.3-1.6,0.1-2.1,0.8c-0.3,0.5-0.3,0.9-0.3,1.5c-0.1,0.4-0.5,0.5-0.7,0.9
	c-0.5,0.8-0.5,1.9,0.1,2.7C78.2,75,78.5,74.8,78.3,74.7L78.3,74.7z"/>
<path class="st34" d="M79.4,69.3c-0.2,0.1-0.4,0.3-0.6,0.4c-0.2,0.1,0,0.4,0.2,0.3c0.2-0.1,0.4-0.3,0.6-0.4
	C79.8,69.5,79.6,69.2,79.4,69.3L79.4,69.3z"/>
<path class="st34" d="M78.8,69.7c-0.1-1.3,0.2-2.5,0.9-3.6c-0.1,0-0.2,0-0.3,0c0.2,0.8,0.7,0.5,1.1,0.3c0.3-0.2,0.5-0.5,0.7-0.8
	c0.3-0.4,0.7-0.8,1.1-1.1c0.3-0.2,0.8-0.6,1.1-0.1c0,0.1,0,0.4,0,0.4c0.1,0.3,0.2,0.5,0.4,0.7c0.6,0.7,1.6,0.8,2.5,1
	c1.1,0.2,2,0.9,2.7,1.7c0.7,0.7,1.4,1.4,1.9,2.2c1.1,2.1,2.1,4.3,3,6.4c0.1-0.1,0.1-0.1,0.2-0.2c-0.4-0.1-0.9-0.3-1.3-0.4
	c-0.1,0-0.3,0.1-0.2,0.3c1,1.5,1.6,3.3,1.5,5.2c0,0.2,0.3,0.2,0.3,0c0.1-0.6-0.4-1-0.9-1c-0.6-0.1-1,0.4-1.4,0.9
	c-0.2,0.3-0.4,0.7-0.7,1c-0.5,0.5-1.1,0.4-1.7,0.5c-0.8,0.1-1.5,0.2-1.9,1.3c0.1,0,0.2,0,0.3,0c-0.3-0.8-0.6-1.2-0.9-1.8
	c-0.1-0.2-0.4-0.1-0.3,0.1c0.3,0.6,0.6,1.1,0.9,1.7c0.1,0.1,0.2,0.1,0.3,0c0.5-0.8,1.2-1.1,2.1-1.1c0.5,0,0.9-0.1,1.3-0.4
	c0.3-0.3,0.5-0.7,0.7-1c0.2-0.2,0.3-0.5,0.6-0.6c0.4-0.2,1.2-0.5,1.1,0.6c0.1,0,0.2,0,0.3,0c0.1-2.2-0.5-3.8-1.6-5.4
	c-0.1,0.1-0.1,0.1-0.2,0.2c0.4,0.1,0.9,0.2,1.3,0.4c0.1,0,0.3-0.1,0.2-0.2c-0.8-2-1.8-4-2.8-6c-0.4-0.9-0.9-1.5-1.6-2.2
	c-0.6-0.7-1.2-1.4-2-1.9c-0.8-0.5-1.8-0.6-2.7-0.9c-0.6-0.2-1.3-0.5-1.5-1.2c-0.1-0.3,0.1-0.6-0.1-0.9c-0.4-0.4-1.2,0.1-1.6,0.3
	c-0.3,0.2-0.6,0.5-0.9,0.8c-0.3,0.3-1.1,1.8-1.5,0.9c-0.1-0.1-0.2-0.1-0.3,0c-0.7,1.1-1.1,2.4-0.9,3.7
	C78.5,69.9,78.8,69.9,78.8,69.7L78.8,69.7z"/>
<path class="st34" d="M63.4,55.1c0.6-0.6,1.3-1.3,1.9-1.9c-0.1,0-0.2-0.1-0.3-0.1c0.6,2,3.5,1.7,3.6-0.4c-0.1,0-0.2,0.1-0.3,0.1
	c2.3,3.3,6.7,2.4,10,1.7c1.2-0.3,2.4-0.5,3.6-0.5c0.7,0,1.5,0,2.2-0.3c0.5-0.2,0.9-0.6,0.9-1.2c0-0.5-0.3-1.1-0.2-1.6
	c0.2-0.7,0.9-1.2,1.6-1c0-0.1-0.1-0.2-0.1-0.3c-0.4,0.9,0.4,1.9,1.4,1.9c1.2,0,1.8-1.4,1.9-2.4c-0.1,0-0.2,0.1-0.3,0.1
	c0.3,0.6,1,0.5,1.5,0.2c0.4-0.2,0.6-0.5,0.9-0.8c0.6-0.6,1.5-0.8,1.8,0.2c0.3,0.8,0.2,1.6,0.6,2.4c0.4,0.6,1,1,1.6,1.4
	c0.7,0.5,1.4,0.9,2,1.5c0.8,0.9,0.7,1.9,0.2,2.9c-0.4,0.8-0.9,1.6-0.9,2.5c-0.1,1,0.4,1.8,0.7,2.7c0.2,0.6,0.4,1.4-0.2,1.9
	c-0.6,0.5-1.5,0.2-2.1-0.2c-1-0.6-1.6-1.7-2.8-2c-0.1,0-0.2,0-0.2,0.1c-0.6,1-2.1,0.5-2.9,0.2c-1.2-0.4-2.4-0.7-3.6-0.9
	c-0.9-0.1-2.1-0.5-3-0.1c-0.3,0.1-0.5,0.4-0.7,0.6c-0.4,0.5-0.7,0.9-1.4,1.1c-0.9,0.2-1.9,0-2.8,0.2c-0.8,0.2-1.5,0.8-2.2,1.3
	c-0.5,0.3-0.9,0.5-1.5,0.6c-0.7,0-1.3-0.2-1.9-0.4c-1.1-0.2-2.2,0-3.2,0.4c-0.2,0.1-0.1,0.4,0.1,0.3c1.3-0.5,2.5-0.5,3.9-0.2
	c0.9,0.2,1.7,0.2,2.5-0.2c0.9-0.5,1.6-1.2,2.6-1.4c0.9-0.2,2,0,2.9-0.3c0.3-0.1,0.6-0.3,0.9-0.5c0.5-0.5,0.7-1.1,1.5-1.2
	c0.6-0.1,1.3,0,1.9,0.1c0.7,0.1,1.3,0.2,2,0.4c1.1,0.3,2.1,0.7,3.2,0.9c0.6,0.1,1.4,0.2,1.9-0.2c0.1-0.1,0.2-0.2,0.3-0.3
	c0.2,0,0.6,0.2,0.7,0.3c0.5,0.3,0.9,0.7,1.3,1.1c0.6,0.5,1.3,1,2.1,1c0.6,0,1.2-0.4,1.4-1c0.2-0.7-0.1-1.5-0.4-2.2
	c-0.4-1-0.6-1.8-0.2-2.8c0.3-0.9,0.9-1.7,1.1-2.6c0.2-1.4-0.7-2.4-1.8-3.1c-0.7-0.5-1.5-0.9-2.1-1.6c-0.7-0.8-0.5-1.7-0.8-2.6
	c-0.2-0.6-0.7-1.1-1.4-0.9c-0.7,0.2-2.2,2.4-2.9,1.3c-0.1-0.2-0.3-0.1-0.3,0.1c-0.1,0.7-0.3,1.5-1,1.9c-0.7,0.4-2.1-0.2-1.6-1.2
	c0-0.1,0-0.2-0.1-0.3c-0.6-0.1-1.2,0.1-1.7,0.5c-0.5,0.6-0.4,1.1-0.3,1.8c0.2,1.3-0.8,1.6-1.9,1.7c-0.9,0.1-1.9,0.1-2.8,0.2
	c-3.5,0.5-8.8,2.6-11.3-1.2c-0.1-0.1-0.3-0.1-0.3,0.1c-0.1,1.7-2.4,2-2.9,0.3c0-0.1-0.2-0.2-0.3-0.1c-0.6,0.6-1.3,1.3-1.9,1.9
	C63,55,63.2,55.3,63.4,55.1L63.4,55.1z"/>
<path class="st33" d="M20,47.6c-0.2,0.2-0.3,0.4-0.5,0.7c-0.1,0.2-0.1,0.5-0.2,0.7c-0.4,0.9-1.7,0.3-2.4,0c-1.7-0.7-3.3-1.4-4.7-2.5
	c-0.2-0.1-0.4,0-0.4,0.2c0,1,0.3,2.1,0.9,2.9c0.6,0.9,1.4,1.4,2.3,1.9c1,0.6,2.2,0.7,2.9,1.6c0.6,0.9,1.3,1.8,2.2,2.4
	c0.9,0.5,1.9,0.6,2.9,0.4c0.5-0.1,1-0.3,1.4-0.5c0.6-0.3,1-0.6,1.7-0.6c2.1,0.1,3.8-1.3,5-2.8c0.2-0.2,0.3-0.5,0.5-0.7
	c0.3-0.3,0.5-0.4,0.8-0.5c0.4-0.1,0.8-0.3,0.9-0.7c0.3-1,0-2-0.9-2.6c-0.3-0.2-0.5,0.3-0.3,0.5c0.5,0.4,0.6,0.8,0.6,1.4
	c0,0.7-0.3,0.8-1,1.1c-0.7,0.3-1.1,1.1-1.6,1.7c-0.6,0.7-1.2,1.3-2,1.7c-0.4,0.2-0.8,0.4-1.2,0.4c-0.5,0.1-1-0.1-1.5,0
	c-0.3,0-0.6,0.3-0.9,0.5c-0.5,0.2-1,0.4-1.5,0.6c-1,0.3-2.1,0.3-3-0.3c-1-0.6-1.4-1.6-2.1-2.5c-0.5-0.6-1.2-0.7-1.9-1
	c-0.9-0.3-2-1-2.6-1.7c-0.8-0.9-1.2-2-1.2-3.1c-0.1,0.1-0.3,0.2-0.4,0.2c1.6,1.2,3.6,2.2,5.5,2.8c0.7,0.2,1.4,0.3,2-0.2
	c0.5-0.4,0.4-1.1,0.8-1.6C20.6,47.7,20.3,47.4,20,47.6L20,47.6z"/>
<path class="st33" d="M20.5,47.5c-0.6,0-0.8,0.6-0.7,1.1c0,0.1,0.2,0.2,0.3,0.2c0.1,0,0.2-0.2,0.2-0.3c0-0.1,0-0.2,0-0.3
	c0-0.1,0-0.1,0.1-0.1c0,0,0,0,0.1,0C20.8,48,20.8,47.5,20.5,47.5L20.5,47.5z"/>
<path class="st33" d="M34.3,46.3c-1.4,1-1.5,3.1,0.1,4.1c0.9,0.5,1.9,0.3,2.8,0c1.4-0.4,2.7-0.3,4.2-0.1c2.5,0.4,5.1,0.9,7.6,0.5
	c2.1-0.3,4.1-1.3,5.5-2.9c-0.1-0.1-0.3-0.2-0.4-0.3c-0.3,0.5-0.6,1-0.9,1.6c-0.1,0.2,0.2,0.5,0.4,0.3c0.2-0.2,0.9-0.3,1.2-0.4
	c0.6-0.1,1.3-0.3,1.9-0.4c1.3-0.3,2.3-1,3.2-2c2.3-2.6,4.9-6.1,4.4-9.8c0-0.3-0.4-0.3-0.5-0.1c-1,2.4-3.7,3.7-6.2,3.1
	c0,0.2,0,0.3,0.1,0.5c0.8-0.5,1.2-1.5,0.8-2.4c-0.1-0.2-0.4-0.3-0.5-0.1c-0.7,1.4-1.8,2.4-3.1,3.2c-0.3,0.2,0,0.6,0.3,0.5
	c1.4-0.8,2.6-1.9,3.3-3.3c-0.2,0-0.3,0-0.5-0.1c0.3,0.7,0,1.4-0.6,1.8c-0.2,0.1-0.2,0.4,0.1,0.5c2.8,0.7,5.7-0.8,6.8-3.5
	c-0.2,0-0.3,0-0.5-0.1c0.2,1.9-0.4,3.8-1.4,5.4c-0.9,1.5-2,3.1-3.3,4.4c-1,1-2.1,1.3-3.4,1.6c-0.6,0.1-1.1,0.3-1.7,0.4
	c-0.3,0.1-0.7,0.1-0.9,0.4c0.1,0.1,0.3,0.2,0.4,0.3c0.3-0.5,0.6-1,0.9-1.6c0.1-0.3-0.2-0.5-0.4-0.3c-2.9,3.2-7.5,3.2-11.4,2.5
	c-1.8-0.3-3.7-0.7-5.5-0.2c-1,0.3-2.1,0.7-3-0.2c-0.8-0.8-0.6-2.2,0.3-2.8C34.8,46.6,34.5,46.2,34.3,46.3L34.3,46.3z"/>
<path class="st33" d="M39.8,44.4c0.3-1.2,1.4-2.1,2.7-2.2c-0.1-0.1-0.2-0.3-0.2-0.4c-0.3,0.5-0.6,1.1-0.3,1.6c0.1,0.4,0.5,0.7,1,0.7
	c0.6-0.1,1-0.8,1.3-1.2c0.5-0.5,1.1-1,1.7-1.4c2.5-1.6,5.5-2.1,8.4-2.6c0-0.2-0.1-0.3-0.1-0.5c-1.8,0.6-3.2,1.8-4.1,3.5
	c-0.1,0.2,0.1,0.4,0.3,0.4c1.6-0.2,3.3-0.5,4.9-0.7c0.3,0,0.2-0.6-0.1-0.5c-1.6,0.2-3.3,0.5-4.9,0.7c0.1,0.1,0.2,0.3,0.3,0.4
	c0.8-1.5,2.1-2.7,3.8-3.3c0.3-0.1,0.2-0.6-0.1-0.5c-2.3,0.4-4.6,0.8-6.7,1.7c-1,0.4-1.9,0.9-2.7,1.5c-0.4,0.3-0.8,0.7-1.2,1.1
	c-0.3,0.3-0.4,0.6-0.8,0.7c-0.3,0.1-0.4,0-0.4-0.3c-0.1-0.1-0.1-0.3,0-0.4c0-0.2,0.2-0.4,0.3-0.6c0.1-0.2,0-0.4-0.2-0.4
	c-1.5,0.1-2.8,1.1-3.2,2.5C39.2,44.5,39.7,44.7,39.8,44.4L39.8,44.4z"/>
<path class="st33" d="M29.9,45.5c-1-0.4-2.1-0.5-3.2-0.3c-0.1,0-0.2,0.1-0.3,0.2c-0.1,0.5,0.1,0.6,0.3,1c0.1,0.2,0,0.5-0.3,0.7
	c-0.1,0.1-0.3,0-0.4,0c-0.3,0-0.6,0-0.9,0.1c-1.4,0.2-3,1.2-4.4,0.3c-0.3-0.2-0.5,0.3-0.3,0.5c1.7,1.1,3.4-0.2,5.2-0.3
	c0.5,0,1.2,0.1,1.6-0.4c0.5-0.7-0.5-1.1-0.3-1.7c-0.1,0.1-0.2,0.1-0.3,0.2c1-0.1,2,0,3,0.3C30.1,46.1,30.2,45.6,29.9,45.5L29.9,45.5
	z"/>
<path class="st33" d="M31.9,59.9c1,1.4,2.7,2.2,4.4,2c1.7-0.2,3.2-1.4,3.8-3c0.1-0.3-0.4-0.4-0.5-0.1c-1.2,3.1-5.4,3.6-7.3,0.9
	C32.1,59.4,31.7,59.6,31.9,59.9L31.9,59.9z"/>
<path class="st33" d="M31.3,62.7c-0.8,3.4,0.3,6.8,2.4,9.5c2.4,3,5.8,4.8,9.3,6c2.2,0.7,4.4,1.3,6.7,1.8c0.3,0.1,0.5-0.4,0.1-0.5
	c-4.6-1.1-9.4-2.2-13.2-5.1c-3.4-2.6-5.9-7.1-4.8-11.5C31.9,62.5,31.4,62.3,31.3,62.7L31.3,62.7z"/>
<path class="st33" d="M34.3,69.8c2.2,2.1,4.9,3.5,7.8,4c0.3,0.1,0.5-0.4,0.1-0.5c-2.9-0.5-5.5-1.9-7.6-3.9
	C34.4,69.2,34,69.5,34.3,69.8L34.3,69.8z"/>
<path class="st33" d="M23.8,75.4c0,2.4,0.6,4.7,0.8,7c0.3,2.4,0.1,4.7-0.5,7c-0.1,0.3,0.4,0.5,0.5,0.1c0.6-2.3,0.8-4.6,0.6-6.9
	c-0.2-2.4-0.9-4.8-0.9-7.3C24.3,75,23.7,75,23.8,75.4L23.8,75.4z"/>
<path class="st33" d="M26.5,81.2c-0.1,1-0.1,2-0.2,3c0,0.3,0.5,0.3,0.5,0c0.1-1,0.1-2,0.2-3C27,80.9,26.5,80.9,26.5,81.2L26.5,81.2z
	"/>
<path class="st34" d="M101.5,107.3c-0.6-0.1-1.4-0.3-1.9,0.3c-0.6,0.7,0,1.7-0.2,2.5c-0.1,0.7-0.9,1.5-0.2,2.2
	c0.2,0.2,0.4,0.3,0.6,0.2c0.1,0,0.1,0,0.2-0.1c0.1-0.2,0.2-0.3,0.3-0.5c0.1-0.1,0.3-0.2,0.5-0.3c-0.1,0-0.2-0.1-0.3-0.1
	c0.1,0.7,0,1.4-0.5,2c-0.1,0.2,0.1,0.4,0.2,0.2c0.6-0.7,0.8-1.5,0.6-2.3c0-0.1-0.2-0.1-0.3-0.1c-0.2,0.1-0.4,0.2-0.5,0.4
	c-0.2,0.2-0.4,0.8-0.8,0.1c-0.2-0.4,0.4-1.2,0.5-1.6c0.1-0.5,0-0.9-0.1-1.4c-0.1-1.1,0.8-1.3,1.7-1.1
	C101.6,107.7,101.7,107.3,101.5,107.3L101.5,107.3z"/>
<path class="st34" d="M102.6,108c0.9-0.5,2-1.2,1.8-2.4c0-0.2-0.2-0.4-0.2-0.6c-0.1-0.3,0.1-0.5,0.1-0.8c0.1-0.6,0.1-1.2-0.2-1.7
	c-0.6-1-1.8-1.2-2.8-1c-1,0.1-2.6,0.4-3.1,1.5c-0.2,0.5,0,0.7,0.1,1.1c0.1,0.3,0.9-0.1-0.1,0.8c-0.1,0.1-0.3,0.2-0.4,0.2
	c-0.4,0.2-0.8,0.4-1.1,0.7c-0.9,0.6-1.8,1.6-1.6,2.8c0.1,0.6,0.6,1.1,0.6,1.8c0,0.7-0.6,1.2-0.9,1.7c-0.7,1.1-0.3,1.9,0.2,3
	c0.6,1.2,0.5,2.9,1.7,3.8c0.8,0.6,2,0.4,2.4-0.5c-0.1,0-0.2,0-0.3,0c0.4,0.6,1,0.9,1.7,0.7c0.7-0.1,1.1-0.7,1.3-1.4
	c0.1-0.4,0.1-0.9,0.2-1.3c0.1-0.6,0.3-1.1,0.5-1.7c0.3-0.6,0.4-1.4-0.2-1.9c-0.2-0.1-0.4,0.1-0.2,0.2c0.7,0.6,0.1,1.4-0.2,2.1
	c-0.2,0.4-0.3,0.9-0.3,1.3c-0.1,0.6-0.1,1.3-0.4,1.8c-0.5,0.7-1.6,0.6-2-0.1c-0.1-0.1-0.3-0.1-0.3,0c-0.2,0.6-1,0.8-1.6,0.5
	c-0.6-0.3-0.9-0.9-1.1-1.5c-0.3-0.9-0.5-1.9-0.9-2.8c-0.3-0.6-0.5-1.2-0.2-1.8c0.2-0.4,0.5-0.7,0.7-1c0.4-0.6,0.6-1.2,0.3-1.9
	c-0.2-0.4-0.4-0.8-0.5-1.3c0-0.6,0.3-1.3,0.7-1.7c0.4-0.4,0.9-0.7,1.4-1c0.4-0.2,0.9-0.4,1.2-0.7c0.7-0.7-0.5-1.3-0.1-2
	c0.3-0.5,1-0.7,1.6-0.9c0.6-0.2,1.2-0.3,1.8-0.3c0.7,0,1.6,0.4,1.8,1.1c0.1,0.4,0.1,0.8,0,1.2c0,0.2-0.2,0.6-0.2,0.8
	c0,0.1,0,0.1,0,0.1c0.1,0.3,0.3,0.4,0.3,0.7c0,0.2-0.1,0.5-0.2,0.7c-0.3,0.6-0.9,1-1.5,1.3C102.2,107.9,102.4,108.2,102.6,108
	L102.6,108z"/>
<path class="st34" d="M78.5,88.2c1.5,1.5,1.9,3.7,1,5.6c-0.1,0.2,0.2,0.4,0.3,0.2c1-2,0.6-4.5-1-6C78.5,87.8,78.3,88,78.5,88.2
	L78.5,88.2z"/>
<path class="st34" d="M80.3,87.8c1.3,2,1.8,4.3,1.3,6.7c0,0.2,0.3,0.3,0.3,0.1c0.5-2.4,0-4.9-1.3-6.9C80.5,87.4,80.2,87.6,80.3,87.8
	L80.3,87.8z"/>
<path class="st34" d="M102,100.4c1.9,0.5,3.9-0.3,5.7-1c1.7-0.6,3.5-1.3,5-2.2c3.5-2.2,5.3-6,7.3-9.4c1.3-2.3,2.6-4.6,4-6.8
	c0.1-0.2-0.2-0.4-0.3-0.2c-1.4,2.4-2.7,4.7-4.1,7.1c-1.3,2.2-2.5,4.7-4.2,6.6c-1.6,1.9-3.7,3.1-6,3.9c-1.1,0.4-2.2,0.8-3.3,1.1
	c-1.3,0.4-2.7,0.8-4.1,0.5C101.9,100,101.8,100.4,102,100.4L102,100.4z"/>
<path class="st34" d="M119.3,88.7c5.5-3,11-8.2,10.7-15c-0.2-3.7-1.8-7.3-3.8-10.3c-1.9-2.9-4.2-5.5-7-7.6c-2.9-2.2-6.8-4-8-7.7
	c-0.1-0.2-0.4-0.1-0.3,0.1c1,2.8,3.5,4.6,5.9,6.2c2.9,2,5.5,4.2,7.6,6.9c2.3,2.9,4.1,6.3,5,9.9c0.8,3.5,0.2,7-1.8,10
	c-2,3.1-5.1,5.4-8.3,7.1C119,88.5,119.1,88.8,119.3,88.7L119.3,88.7z"/>
<path class="st34" d="M94.1,50.5c4.1-0.3,8.1-0.9,12.1-1.6c2-0.4,4.1-0.8,6.1-1.2c1.3-0.3,2.9-0.6,3.9-1.7c1.1-1.3,0.4-2.9-0.1-4.2
	c-0.4-0.8-0.7-1.7-1.1-2.5c-0.2-0.5-0.6-1.1-1.1-1.3c-0.5-0.1-0.9,0.2-1.1,0.5c-0.6,0.7-1.1,1.4-1.8,2.1c-1.3,1.1-2.9,1.9-4.5,2.7
	c-4,2-8.6,4.1-13.1,2.6c-0.2-0.1-0.3,0.3-0.1,0.3c3.3,1.1,6.8,0.3,9.9-1c1.5-0.6,3-1.4,4.5-2.1c1.3-0.7,2.6-1.4,3.7-2.4
	c0.5-0.4,0.9-0.9,1.3-1.5c0.4-0.5,0.8-1.2,1.4-0.7c0.4,0.3,0.5,0.8,0.7,1.2c0.3,0.8,0.7,1.6,1,2.4c0.4,0.9,0.8,1.9,0.5,2.9
	c-0.4,1.6-2.4,2-3.8,2.3c-1.8,0.4-3.7,0.8-5.6,1.1c-4.2,0.8-8.5,1.3-12.8,1.7C93.9,50.2,93.9,50.5,94.1,50.5L94.1,50.5z"/>
<path class="st34" d="M98.9,46.3c1.4-3.4,2.8-6.8,4.2-10.1c0.1-0.2,0.1-0.3,0.2-0.5c0-0.2,0.1-0.3,0.3-0.4c0.1-0.2,0.3-0.2,0.4,0
	c0.4,0.1,0.9,0.4,1.3,0.5c0.8,0.3,1.6,0.7,2.4,1c1.7,0.7,3.5,1.4,5.2,2.1c0.2,0.1,0.3-0.3,0.1-0.3c-1.9-0.8-3.8-1.6-5.7-2.3
	c-1-0.4-1.9-0.8-2.9-1.2c-0.4-0.2-0.9-0.5-1.1,0c-0.4,0.8-0.7,1.7-1.1,2.6c-0.4,0.9-0.8,1.9-1.1,2.8c-0.8,1.9-1.6,3.9-2.4,5.8
	C98.5,46.5,98.9,46.6,98.9,46.3L98.9,46.3z"/>
<path class="st34" d="M101.2,27.7c0.7,0.3,1.4,0.7,2,1c0.1-0.1,0.1-0.1,0.2-0.2c0,0,0-0.1-0.1-0.1l-2.4-1.2c-0.1-0.1-0.3,0-0.3,0.2
	c0.9,2.5,1.8,5.1,2.7,7.6c0.1,0.2,0.4,0.1,0.3-0.1C102.9,32.5,102,30.1,101.2,27.7z"/>
<path class="st34" d="M105.8,29.6c-0.1,0-0.2,0-0.4,0c0,0.1,0,0.1,0,0.2c0.7,0.3,1.4,0.7,2.1,1c0.1-0.1,0.3-0.1,0.4-0.2L105.8,29.6z
	"/>
<path class="st34" d="M113.4,38.6c-0.9-2.1-2-4.1-3.2-6c-0.1,0.1-0.2,0.1-0.3,0.2c1.2,1.9,2.2,3.9,3.2,6
	C113.1,38.9,113.4,38.8,113.4,38.6z"/>
<path class="st34" d="M100.5,27.4c-1.3,2.8-2.5,5.5-3.8,8.3c-1.2,2.7-2.4,5.4-3.9,7.9c-0.1,0.2,0.2,0.4,0.3,0.2
	c1.5-2.5,2.6-5.2,3.9-7.9c1.3-2.8,2.5-5.5,3.8-8.3C100.9,27.4,100.6,27.2,100.5,27.4L100.5,27.4z"/>
<path class="st34" d="M110.8,40.6c-2.6-0.8-5.2-1.6-7.9-2.4c-0.5-0.1-0.9-0.2-1.2-0.7c-0.1-0.2-0.2-0.5-0.3-0.7
	c-0.3-0.7-0.6-1.3-0.9-2c-0.6-1.2-1.1-2.5-1.7-3.7c-0.1,0.1-0.1,0.3-0.2,0.4c0.6,1.3,1.1,2.5,1.7,3.8c0.3,0.7,0.6,1.3,0.9,2
	c0.2,0.4,0.4,0.7,0.8,0.9c1.3,0.5,2.8,0.9,4.1,1.3c1.5,0.5,3,0.9,4.5,1.4C111,41,111.1,40.7,110.8,40.6z"/>
<path class="st34" d="M92.8,38.1c1-0.1,2-0.1,2.9,0.1c0.2,0.1,0.3-0.3,0.1-0.3c-1-0.2-2.1-0.3-3.1-0.1
	C92.5,37.8,92.6,38.1,92.8,38.1L92.8,38.1z"/>
<path class="st34" d="M93.9,33.2c1.2-0.1,2.5-0.1,3.7,0c0.2,0,0.2-0.3,0-0.3c-1.2-0.1-2.5-0.1-3.7,0C93.6,32.9,93.6,33.2,93.9,33.2
	L93.9,33.2z"/>
<path class="st34" d="M105.1,44.3c0.7-1.3,1.4-2.6,2-3.9c0.3-0.7,0.7-1.4,1-2.1c0.2-0.5,0.4-1,0.4-1.5c-0.1-1.2-1-2.2-1.5-3.3
	c-0.6-1.4-1.1-2.8-1.4-4.3c0-0.2-0.4-0.1-0.3,0.1c0.3,1.2,0.6,2.4,1.1,3.6c0.2,0.6,0.5,1.1,0.8,1.6c0.3,0.6,0.7,1.2,0.9,1.8
	c0.2,0.8-0.1,1.5-0.5,2.2c-0.3,0.6-0.6,1.2-0.9,1.8c-0.6,1.2-1.3,2.5-1.9,3.7C104.7,44.3,105,44.5,105.1,44.3L105.1,44.3z"/>
<path class="st34" d="M94.6,46.3c2.4-3.3,4.4-6.9,6.1-10.7c0.3-0.8,0.6-1.7,1.1-2.4c0.7-1,1.9-1.1,3.1-0.8c2.1,0.5,4.1,1.6,6.1,2.5
	c0.2,0.1,0.4-0.2,0.2-0.3c-1-0.5-2.1-0.9-3.1-1.4c-1.1-0.4-2.1-0.9-3.2-1.2c-0.8-0.2-1.6-0.2-2.3,0.2c-0.8,0.4-1.2,1.2-1.5,2
	c-1.8,4.2-3.9,8.3-6.6,12C94.2,46.3,94.5,46.5,94.6,46.3L94.6,46.3z"/>
<path class="st34" d="M105.8,32c-0.5,0.2-1.4-0.4-1.8-0.7c-0.5-0.4-1-0.9-1-1.5c0-0.7,0.4-1.5,1.3-1.3c0.6,0.2,1,0.8,1.2,1.4
	c0.3,0.9,0.3,2,1,2.8c0.6,0.6,1.4,0.9,2.3,0.8c0.8-0.1,1.6-0.7,2.1-1.4c0.4-0.5,0.6-1.2-0.1-1.5C109,29.8,106.8,30.8,105.8,32
	c0,0,0.1,0.1,0.2,0.2c0.4-0.8,0.7-1.7,0.9-2.6c0.2-0.9,0-1.7-0.1-2.6c-0.1-1.1,0.4-1.9,1.4-2.3c1.1-0.5,2.3-0.3,3.4-0.1
	c0.2,0,0.3-0.3,0.1-0.3c-1.7-0.2-3.9-0.4-4.9,1.3c-0.5,0.9-0.2,1.8-0.1,2.7C106.7,29.6,106.2,30.8,105.8,32c-0.2,0.2,0,0.4,0.2,0.2
	c0.8-0.9,1.9-1.4,3.1-1.5c0.6,0,1.9-0.1,1.6,0.9c-0.1,0.5-0.8,1-1.3,1.2c-1.4,0.7-2.8-0.1-3.2-1.5c-0.3-0.9-0.3-1.8-0.9-2.6
	c-1-1.2-2.7-0.5-2.6,1c0,0.8,0.6,1.4,1.2,1.8c0.6,0.4,1.4,1,2.1,0.7C106.1,32.2,106,31.9,105.8,32L105.8,32z"/>
<path class="st34" d="M106,31.6c0.3-1.5,0.9-3.2,2.1-4.3c0.6-0.6,1.5-0.9,2.3-0.6c0.9,0.4,1.2,1.9,0.1,2.2c0.1,0,0.1,0.1,0.2,0.1
	c-0.4-1.8,2.3-2.3,2.6-0.4c0,0.2,0.2,0.2,0.3,0c0.5-0.8,1.7-0.2,1.3,0.7c-0.1,0.2,0.2,0.4,0.3,0.2c0.7-1.3-1.1-2.3-1.9-1
	c0.1,0,0.2,0,0.3,0c-0.1-0.9-1.1-1.7-2-1.5c-0.9,0.2-1.4,1.2-1.2,2.1c0,0.1,0.1,0.1,0.2,0.1c0.7-0.2,1.1-1,1-1.7
	c-0.2-0.9-1.2-1.3-2-1.3c-2.4,0.1-3.6,3.3-3.9,5.2C105.6,31.7,106,31.8,106,31.6L106,31.6z"/>
<path class="st34" d="M93.3,33.9c0.4,0.2,0.8,0.4,1.1,0.7c0.2,0.2,0.3,0.5,0.3,0.8c0,0.1-0.1,0.2-0.1,0.4c0-0.7,0.2-0.8,0.6-0.4
	c0.1,0.1,0.3,0,0.3-0.1c0.3-1,1.1-1.8,2.2-1.8c0.2,0,0.2-0.4,0-0.3c-1.2,0.1-2.2,0.9-2.5,2.1c0.1,0,0.2-0.1,0.3-0.1
	c-0.8-1-2.2,0.3-1.3,1.2c0,0,0.1,0.1,0.2,0c0.5-0.2,0.8-0.7,0.7-1.3c-0.1-0.8-0.9-1.2-1.6-1.6C93.3,33.5,93.1,33.8,93.3,33.9
	L93.3,33.9z"/>
<path class="st34" d="M93.7,35.7c-0.2,0.3-0.6,0.5-0.9,0.6c-0.2,0-0.2,0.4,0,0.3c0.5-0.1,1-0.3,1.2-0.7
	C94.1,35.7,93.8,35.6,93.7,35.7L93.7,35.7z"/>
<path class="st34" d="M95,35.9c0.1,0.3,0.3,0.6,0.7,0.6c0.3,0,0.5-0.3,0.4-0.6c-0.1-0.2-0.4-0.1-0.3,0.1c0,0.1-0.1,0.1-0.2,0.1
	c-0.1-0.1-0.2-0.2-0.3-0.4C95.2,35.5,94.9,35.7,95,35.9L95,35.9z"/>
<path class="st34" d="M95.1,34.3c-0.5-1.4,0.5-3,2-3.1C97,31.1,97,31,96.9,30.9c-0.2,0.2-0.3,0.3-0.5,0.5c0.1,0.1,0.1,0.1,0.2,0.2
	c0.1-0.5,0.2-1,0.4-1.5c0.1-0.2,0.2-0.5,0.3-0.7c0-0.1,0.4-1,0.3-0.4c0.1,0,0.2,0,0.3,0c-0.4-0.8,0.4-2.2,1.5-2.2
	c0.1,0,0.2,0,0.2-0.2c-0.1-0.6,0.1-1.2,0.6-1.6c0.2-0.2-0.1-0.4-0.2-0.2c-0.6,0.5-0.8,1.2-0.7,2c0.1-0.1,0.1-0.1,0.2-0.2
	c-1.4,0.1-2.3,1.5-1.9,2.8c0.1,0.2,0.3,0.2,0.3,0c0.1-0.3,0-0.6-0.3-0.6c-0.1,0-0.1,0-0.2,0.1c-0.6,0.9-1,1.8-1.1,2.8
	c0,0.1,0.1,0.2,0.2,0.2c0.4-0.1,0.7-0.3,0.7-0.8c0-0.1,0-0.2-0.2-0.2c-1.7,0.2-2.9,1.9-2.3,3.5C94.9,34.6,95.2,34.5,95.1,34.3
	L95.1,34.3z"/>
<path class="st34" d="M94.9,48.8c2.2-0.1,4.4-0.5,6.5-1.1c0.2-0.1,0.1-0.4-0.1-0.3c-2.1,0.7-4.2,1.1-6.4,1.1
	C94.7,48.4,94.7,48.8,94.9,48.8L94.9,48.8z"/>
<path class="st34" d="M106.3,46.8c1.6-0.6,3.2-1.2,4.8-1.9c1-0.5,2-1.1,2.3-2.3c-0.1,0-0.2,0.1-0.3,0.1c0.5,0.4,1.7,1.6,0.8,2.1
	c-0.7,0.4-1.6,0.6-2.4,0.8c-1.6,0.5-3.3,0.8-5,1c-0.2,0-0.2,0.4,0,0.3c2.2-0.3,4.4-0.7,6.6-1.5c0.5-0.2,1.6-0.3,1.6-1
	c0-0.8-0.8-1.6-1.3-2c-0.1-0.1-0.3-0.1-0.3,0.1c-0.2,1.3-1.5,1.9-2.6,2.3c-1.4,0.6-2.8,1.1-4.2,1.6C106,46.5,106.1,46.9,106.3,46.8
	L106.3,46.8z"/>
<path class="st34" d="M101.1,47.6c0.1,0.3,0.1,0.6,0.2,0.9c0-0.1,0.1-0.1,0.1-0.2c-2.2,0.6-4.4,0.9-6.6,1.1c0.1,0.1,0.1,0.1,0.2,0.2
	c0.1-0.2,0.1-0.5,0.2-0.7c0.1-0.2-0.3-0.3-0.3-0.1c-0.1,0.2-0.1,0.5-0.2,0.7c0,0.1,0.1,0.2,0.2,0.2c2.3-0.1,4.5-0.5,6.7-1.1
	c0.1,0,0.1-0.1,0.1-0.2c-0.1-0.3-0.1-0.6-0.2-0.9C101.4,47.3,101,47.4,101.1,47.6L101.1,47.6z"/>
<path class="st34" d="M101.5,47.1c0.7,0,1,1,0.5,1.4c-0.2,0.1,0.1,0.4,0.2,0.2c0.7-0.6,0.2-2-0.7-2
	C101.2,46.7,101.2,47.1,101.5,47.1L101.5,47.1z"/>
<path class="st34" d="M105.1,45.6c-0.7,0.1-1.2,0.7-1.1,1.4c0.1,0.7,0.7,1.2,1.4,1.2c0.2,0,0.2-0.4,0-0.3c-0.5,0-1-0.3-1-0.9
	c0-0.5,0.4-0.9,0.9-1C105.4,45.9,105.3,45.5,105.1,45.6L105.1,45.6z"/>
<path class="st34" d="M113.2,42.2c1,0,1.8,0.9,1.8,1.9c0,0.2,0.3,0.2,0.3,0c0-1.2-1-2.2-2.1-2.2C113,41.9,113,42.2,113.2,42.2
	L113.2,42.2z"/>
<path class="st34" d="M105.6,31.5c0-0.5-0.1-0.9-0.4-1.4c-0.2-0.3-0.6-0.7-1-0.5c-0.9,0.5,0.7,1.8,1,2c0.2,0.2,0.4-0.1,0.2-0.2
	c-0.2-0.2-0.5-0.5-0.7-0.7c-0.1-0.1-0.6-0.5-0.5-0.7c0.2-0.4,0.7,0.4,0.7,0.6c0.1,0.3,0.2,0.6,0.2,0.9
	C105.2,31.7,105.6,31.7,105.6,31.5L105.6,31.5z"/>
<path class="st34" d="M109,32.4c0-0.1,0-0.1-0.1-0.2c0,0,0,0-0.1,0c0,0,0-0.1-0.1-0.1c-0.6-0.4-1.2-0.5-1.9-0.3c0,0,0,0,0,0
	c-0.2-0.1-0.5,0.1-0.3,0.3c0.6,0.6,1.5,0.7,2.2,0.3C108.9,32.4,108.9,32.4,109,32.4C109,32.3,109,32.3,109,32.4z M107.4,32.1
	c0.4-0.1,0.7,0,1.3,0.1C108.2,32.3,107.7,32.3,107.4,32.1z"/>
<path class="st34" d="M17.9,74.2c-0.2-0.5,0-0.9-0.8-1.4c0,0.1,0,0.2,0,0.2c0.8-0.3,0.6-0.7,0.9-1c-0.1,0-0.2,0-0.3,0
	c0.3,0.4,0.5,0.9,0.8,1.3c0.1,0.2,0.4,0,0.3-0.2c-0.3-0.4-0.6-0.9-0.8-1.3c-0.1-0.1-0.2-0.1-0.3,0c-0.3,0.3-0.7,0.7-1,1
	c-0.1,0.1-0.1,0.2,0,0.2c0.3,0.4,0.7,0.8,0.9,1.3C17.7,74.5,18,74.4,17.9,74.2L17.9,74.2z"/>
<path class="st34" d="M7.5,65.9c0.7-3.6,4.1-6.2,7.8-6c0.2,0,0.2-0.3,0-0.3c-3.8-0.2-7.4,2.6-8.1,6.3C7.1,66,7.4,66.1,7.5,65.9
	L7.5,65.9z"/>
<path class="st34" d="M9.8,66.8c2.2,0.2,2.7,2.9,3.7,4.4c0.7,1.1,2,2.1,3.4,1.6c0.2-0.1,0.1-0.4-0.1-0.3c-2.2,0.8-3.2-1.8-4-3.3
	c-0.6-1.3-1.5-2.5-3-2.7C9.5,66.4,9.5,66.7,9.8,66.8L9.8,66.8z"/>
<path class="st34" d="M17.5,72.3c0.8-0.5,1.2-1.5,0.9-2.4c-0.1-0.2-0.4-0.1-0.3,0.1c0.2,0.8-0.1,1.6-0.7,2
	C17.1,72.1,17.3,72.4,17.5,72.3L17.5,72.3z"/>
<path class="st34" d="M17.8,68.6c-1.5-1.8-2.3-4-2.1-6.3c0-0.2-0.3-0.2-0.3,0c-0.2,2.4,0.6,4.8,2.2,6.6C17.7,69.1,18,68.8,17.8,68.6
	L17.8,68.6z"/>
<path class="st34" d="M7.1,65.6c-1,0.8,0,2,1.1,1.9c0.7-0.1,1.3-0.6,1.7-1.2c0.6-0.8,1.1-1.6,1.8-2.2c0.7-0.6,1.5-1.2,2.4-1.6
	c0.4-0.2,0.9-0.4,1.4-0.5c0.3-0.1,0.8-0.1,1-0.3c0.5-0.3,0.3-1,0.1-1.4c-0.3-0.5-0.7-0.9-1.3-0.9c-0.2,0-0.2,0.4,0,0.3
	c0.7-0.1,1.7,1.2,0.9,1.7c-0.2,0.1-0.6,0.1-0.8,0.2c-0.2,0.1-0.4,0.1-0.6,0.2c-1,0.3-1.9,0.8-2.7,1.5c-0.8,0.6-1.5,1.3-2,2.1
	c-0.4,0.5-0.7,1.2-1.4,1.5c-0.5,0.2-1.1,0.3-1.4-0.2c-0.2-0.3-0.2-0.7,0.1-1C7.6,65.7,7.3,65.5,7.1,65.6L7.1,65.6z"/>
<path class="st34" d="M20.3,80.6c0.2,0.3,0.4,0.5,0.6,0.8c0.2,0.2,0.3,0.5,0.5,0.7c0.3,0.2,0.8,0.1,1.1-0.1c0.2-0.1,0-0.4-0.2-0.3
	c-0.2,0.2-0.5,0.2-0.7,0.1c-0.1-0.1-0.2-0.3-0.3-0.4c-0.2-0.3-0.5-0.6-0.7-0.9C20.4,80.2,20.1,80.4,20.3,80.6L20.3,80.6z"/>
<path class="st34" d="M77.6,77c-1.5-3.9-1.3-8.5,1.8-11.6c1.5-1.5,3.3-2.2,5.3-2.4c2.2-0.2,4.5-0.1,6.8-0.2c0.2,0,0.2-0.4,0-0.3
	c-2.5,0-5-0.1-7.4,0.3c-2,0.3-3.7,1.2-5.1,2.6c-3,3.2-3.2,7.9-1.7,11.8C77.3,77.3,77.7,77.2,77.6,77L77.6,77z"/>
<path class="st34" d="M84.8,65.1c2.5,0.3,5.1-0.2,7.3-1.4c0.2-0.1,0-0.4-0.2-0.3c-2.2,1.2-4.6,1.7-7.1,1.4
	C84.5,64.8,84.5,65.1,84.8,65.1L84.8,65.1z"/>
<path class="st34" d="M93.5,75.6c-0.1,0.2-0.1,0.3,0.1,0.4c0.2,0.1,0.4-0.1,0.5-0.3c0.6-1.1,0.7-2.6,0.6-3.8c0-0.2-0.4-0.2-0.3,0
	c0,0.7,0,1.3-0.1,2c0,0.3-0.1,0.5-0.2,0.7c-0.1,0.3-0.2,0.9-0.3,1.1C93.9,75.6,93.6,75.4,93.5,75.6L93.5,75.6z"/>
<path class="st34" d="M94.2,78.5c0.7-1.4,1.2-2.9,1.6-4.4c0.1-0.2-0.3-0.3-0.3-0.1c-0.4,1.5-0.9,2.9-1.6,4.3
	C93.8,78.5,94.1,78.7,94.2,78.5L94.2,78.5z"/>
<path class="st34" d="M84.4,65c-0.1-0.1-0.3-0.1-0.4-0.2c-0.2-0.1-0.4,0.2-0.2,0.3c0.1,0.1,0.3,0.1,0.4,0.2
	C84.4,65.4,84.6,65.1,84.4,65L84.4,65z"/>
<path class="st34" d="M39.1,38.7c-1,0.6-0.5,2,0.4,2.4c0.7,0.3,1.6,0.1,2.3-0.1c1.1-0.3,2.3-0.6,3.4-0.9c0.2-0.1,0.1-0.4-0.1-0.3
	c-1.2,0.3-2.5,0.7-3.7,0.9c-0.6,0.1-1.5,0.3-2-0.1c-0.5-0.4-0.7-1.2-0.1-1.6C39.5,38.9,39.3,38.6,39.1,38.7L39.1,38.7z"/>
<path class="st34" d="M24,43.8c-0.5,0.1-0.6,0.7-0.2,0.9c0.4,0.3,1-0.1,1.4-0.3c0.7-0.3,1.5-0.6,2.2-0.9c0.2-0.1,0.1-0.4-0.1-0.3
	c-0.5,0.2-1.1,0.4-1.6,0.7c-0.2,0.1-0.5,0.2-0.7,0.3c-0.1,0.1-0.2,0.1-0.4,0.2c-0.2,0.2-0.5,0.1-0.7-0.2
	C24.2,44.1,24.2,43.8,24,43.8L24,43.8z"/>
<path class="st34" d="M28.5,42.8c2.5-2.1,5.6-3.1,8.9-2.9c0.2,0,0.2-0.3,0-0.3c-3.3-0.2-6.6,0.8-9.1,3C28.1,42.7,28.4,43,28.5,42.8
	L28.5,42.8z"/>
<path class="st34" d="M53.9,15.7c3.3,1.1,6.5,2.8,9.3,4.9c0.2,0.1,0.4-0.2,0.2-0.3c-2.8-2.1-6-3.8-9.3-4.9
	C53.8,15.3,53.7,15.6,53.9,15.7L53.9,15.7z"/>
<path class="st34" d="M55.8,17.5c0.8,0.1,1.5,0.4,2.1,0.9c0.2,0.1,0.4-0.2,0.2-0.3c-0.7-0.5-1.4-0.8-2.2-0.9
	C55.7,17.1,55.6,17.5,55.8,17.5L55.8,17.5z"/>
<path class="st34" d="M121.9,80.9c-1.5,2.7-2.9,5.4-4.1,8.3c-0.1,0.2,0.2,0.4,0.3,0.2c1.2-2.8,2.6-5.6,4.1-8.3
	C122.3,80.9,122,80.7,121.9,80.9L121.9,80.9z"/>
<path class="st34" d="M119.1,82.1c-0.3,1.1-0.9,2.1-1.6,3c-0.1,0.2,0.2,0.4,0.3,0.2c0.7-0.9,1.2-1.9,1.6-3.1
	C119.5,81.9,119.2,81.9,119.1,82.1L119.1,82.1z"/>
<path class="st34" d="M98,51.9c3.6,0,7.2-0.8,10.5-2.2c0.2-0.1,0-0.4-0.2-0.3c-3.3,1.4-6.8,2.2-10.3,2.2
	C97.8,51.5,97.8,51.9,98,51.9L98,51.9z"/>
<path class="st34" d="M101.3,53.7c1.4-0.4,2.7-0.7,4.1-1.1c0.2-0.1,0.1-0.4-0.1-0.3c-1.4,0.4-2.7,0.7-4.1,1.1
	C101,53.4,101.1,53.7,101.3,53.7L101.3,53.7z"/>
<path class="st34" d="M40.2,26.2c2.4-0.8,5-1,7.5-0.6c0.2,0,0.3-0.3,0.1-0.3c-2.6-0.4-5.2-0.2-7.7,0.6C39.9,25.9,40,26.3,40.2,26.2
	L40.2,26.2z"/>
<path class="st34" d="M24.5,30.5c1.2-1,2.5-1.7,4.1-1.9c0.2,0,0.1-0.4-0.1-0.3c-1.6,0.2-3,0.9-4.2,2C24,30.4,24.3,30.7,24.5,30.5
	L24.5,30.5z"/>
<path class="st34" d="M8.4,66.5c0.9-1.6,2.2-2.9,3.9-3.8c0.2-0.1,0-0.4-0.2-0.3c-1.7,0.9-3.1,2.3-4,4C8,66.6,8.3,66.7,8.4,66.5
	L8.4,66.5z"/>
<path class="st34" d="M15.5,71.6c0.3,0.5,1.1,0.3,1.2-0.3c0-0.2-0.3-0.2-0.3,0c0,0.2-0.4,0.3-0.6,0.1C15.6,71.2,15.3,71.4,15.5,71.6
	L15.5,71.6z"/>
<path class="st34" d="M38.8,124.1c-0.4,0.4-0.1,1.1,0.4,1.3c0.7,0.3,1.3-0.4,1.7-0.9c0.1-0.2-0.1-0.4-0.2-0.2
	c-0.3,0.3-0.5,0.7-0.9,0.8c-0.3,0.1-1-0.3-0.7-0.7C39.2,124.2,39,124,38.8,124.1L38.8,124.1z"/>
<path class="st34" d="M61.1,127.6c-0.3-0.2-1.1,0.1-0.8,0.5c0.4,0.5,0.9,0.9,1.5,1.1c0.2,0.1,0.3-0.3,0.1-0.3
	c-0.3-0.1-0.6-0.3-0.9-0.5c-0.1-0.1-0.2-0.2-0.3-0.3c0,0-0.1-0.1-0.1-0.2c0-0.1,0.2-0.1,0.3,0C61.2,128,61.3,127.7,61.1,127.6
	L61.1,127.6z"/>
<path class="st34" d="M82.1,132.9c1.2,0.2,2.3-0.8,2.3-2c0-0.2-0.3-0.2-0.3,0c0,1-0.9,1.8-1.9,1.6C82,132.6,81.9,132.9,82.1,132.9
	L82.1,132.9z"/>
<path class="st34" d="M79.1,119c1-0.1,1.9,0,2.9,0.2c0-0.1-0.1-0.2-0.1-0.3c-1.1,0.9-1.6,2.4-1.3,3.9c0.1,0.2,0.4,0.1,0.3-0.1
	c-0.3-1.3,0.1-2.7,1.2-3.5c0.1-0.1,0-0.3-0.1-0.3c-1-0.2-2-0.3-3-0.2C78.9,118.7,78.9,119,79.1,119L79.1,119z"/>
<path class="st34" d="M41.6,113.8c0.8,0.4,1.6,0.8,2.4,1.2c0-0.1,0-0.2,0-0.3c-0.2,0.1-0.4,0.1-0.6,0.2c-0.1,0-0.1,0.1-0.1,0.2
	c0,0.3,0.2,0.6,0.5,0.8c0.2,0.1,0.4-0.2,0.2-0.3c-0.2-0.1-0.3-0.3-0.4-0.6c0,0.1-0.1,0.1-0.1,0.2c0.2-0.1,0.4-0.1,0.6-0.2
	c0.1,0,0.2-0.2,0-0.3c-0.8-0.4-1.6-0.8-2.4-1.2C41.6,113.4,41.4,113.7,41.6,113.8L41.6,113.8z"/>
<path class="st34" d="M96.4,112c-0.7,0.7-0.9,1.7-0.6,2.5c0.1,0.2,0.4,0.1,0.3-0.1c-0.3-0.8-0.1-1.6,0.5-2.2
	C96.8,112.1,96.5,111.8,96.4,112L96.4,112z"/>
<path class="st34" d="M100,113.8c0.3-0.1,0.6-0.1,0.9-0.2c0.2-0.1,0.1-0.4-0.1-0.3c-0.3,0.1-0.6,0.1-0.9,0.2
	C99.7,113.5,99.8,113.8,100,113.8L100,113.8z"/>
<path class="st34" d="M76.9,17.5c2-1.7,4-3.3,6-5c0.9-0.8,1.9-1.6,2.9-2.3c1.2-0.8,2.3-1,3.7-0.7c2.5,0.5,4.9,1.1,7.3,1.7
	c0.7,0.2,1.4,0.3,1.6,1c0.2,0.6,0.3,1.4,0.4,2c0.2,1.3,0.5,2.5,0.7,3.8c0.5,2.9,1.1,5.9,1.6,8.8c0,0.2,0.4,0.1,0.3-0.1
	c-0.5-2.9-1-5.7-1.6-8.6c-0.3-1.5-0.5-2.9-0.8-4.4c-0.2-0.9-0.1-2.3-1.1-2.7c-0.5-0.2-1.1-0.3-1.6-0.4c-0.7-0.2-1.4-0.3-2.1-0.5
	c-1.4-0.3-2.7-0.6-4.1-0.9c-1.1-0.3-2.2-0.4-3.4,0c-1,0.4-1.8,1-2.6,1.7c-2.5,2.1-5.1,4.2-7.6,6.3C76.5,17.4,76.8,17.6,76.9,17.5
	L76.9,17.5z"/>
<path class="st34" d="M86.9,9.4c0.6,3,1.3,5.9,1.9,8.9c0,0.2,0.4,0.1,0.3-0.1c-0.6-3-1.3-5.9-1.9-8.9C87.2,9.1,86.9,9.2,86.9,9.4
	L86.9,9.4z"/>
<path class="st34" d="M100.7,20.5c0.9,0.3,1.7,0.5,2.6,0.8c0.4,0.1,0.9,0.3,1.3,0.4c0.6,0.2,1.1,0.3,1,1.1c-0.1,0.8-0.4,1.7-0.6,2.5
	c-0.2,0.9-0.4,1.8-0.6,2.7c-0.1,0.2,0.3,0.3,0.3,0.1c0.3-1.1,0.5-2.3,0.8-3.4c0.1-0.5,0.2-1,0.4-1.6c0.1-0.3,0.3-0.8,0.1-1.1
	c-0.2-0.6-1.4-0.7-1.9-0.8c-1.1-0.3-2.3-0.7-3.4-1C100.6,20.1,100.5,20.4,100.7,20.5L100.7,20.5z"/>
<path class="st34" d="M78.7,19c1.4-1,2.9-2,4.4-3c0.7-0.5,1.5-1,2.2-1.5c0.7-0.5,1.5-1,2.3-1.4c1-0.4,1.9-0.1,2.9,0.1
	c0.9,0.2,1.8,0.4,2.6,0.6c1.8,0.4,3.6,0.9,5.4,1.3c0.2,0.1,0.3-0.3,0.1-0.3c-1.9-0.5-3.9-0.9-5.8-1.4c-0.9-0.2-1.8-0.4-2.8-0.7
	c-0.8-0.2-1.5-0.3-2.3-0.1c-0.7,0.2-1.4,0.7-2,1.1c-0.8,0.5-1.6,1.1-2.5,1.6c-1.6,1.1-3.2,2.2-4.8,3.3C78.4,18.9,78.6,19.2,78.7,19
	L78.7,19z"/>
<path class="st34" d="M78.5,15.1c-1.3-0.3-3.2-1.3-1.7-2.7c0.9-0.9,2.5-0.8,3.5-1.7c0.9-0.8,1.1-2.1,2-2.9C83,7.1,84,7,84.5,8
	c0.4,0.9-0.1,1.8-0.5,2.6c-0.1,0.2,0.2,0.4,0.3,0.2c0.6-1.1,1.3-3.4-0.5-3.9c-1.8-0.5-2.6,1.8-3.4,2.9c-0.7,1-1.8,1.2-2.9,1.6
	c-0.7,0.3-1.3,0.7-1.6,1.4c-0.5,1.5,1.3,2.3,2.4,2.5C78.6,15.5,78.7,15.2,78.5,15.1L78.5,15.1z"/>
<path class="st34" d="M85.4,7.3c-0.2-0.8,0.7-1.2,1.3-1.1c0.5,0.1,1,0.4,1.4,0.6c0.8,0.4,1.7,0.5,2.6,0.4c1-0.1,2-0.4,3-0.2
	c1,0.2,2.1,1.5,1.1,2.4c-0.2,0.2,0.1,0.4,0.2,0.2C95.8,9,95.7,8,95,7.3c-0.9-0.9-2.4-0.7-3.5-0.6c-1.1,0.2-2,0.3-3-0.2
	c-0.6-0.3-1.1-0.6-1.7-0.7c-0.9-0.1-1.9,0.6-1.7,1.5C85.1,7.6,85.5,7.5,85.4,7.3L85.4,7.3z"/>
<path class="st34" d="M85.1,7.9c0.1-0.1,0.1-0.1,0.2-0.2c0.2-0.2-0.1-0.4-0.2-0.2c-0.1,0.1-0.1,0.1-0.2,0.2
	C84.7,7.8,84.9,8.1,85.1,7.9L85.1,7.9z"/>
<path class="st34" d="M82.4,12.2c-0.5-0.1-0.9-0.3-1.2-0.6c-0.2-0.2-0.4,0.1-0.2,0.2c0.4,0.4,0.8,0.6,1.4,0.7
	C82.5,12.6,82.6,12.3,82.4,12.2L82.4,12.2z"/>
<path class="st34" d="M81.1,13.1c-0.5-0.1-1.1,0.1-1.5,0.5c-0.2,0.2,0.1,0.4,0.2,0.2c0.3-0.3,0.7-0.4,1.1-0.4
	C81.2,13.4,81.3,13.1,81.1,13.1L81.1,13.1z"/>
<path class="st34" d="M90.6,9c0.2-0.3,0.4-0.6,0.6-0.9c0.1-0.2-0.2-0.4-0.3-0.2c-0.2,0.3-0.4,0.6-0.6,0.9C90.1,9,90.4,9.2,90.6,9
	L90.6,9z"/>
<path class="st34" d="M91.7,8.9c0.6-0.1,1.2-0.3,1.6-0.7c0.2-0.1-0.1-0.4-0.2-0.2c-0.4,0.3-0.9,0.6-1.4,0.6
	C91.5,8.5,91.5,8.9,91.7,8.9L91.7,8.9z"/>
<path class="st34" d="M92.1,10.2c0.4,3.2,2.1,6,3.4,8.9c0.7,1.6,1.4,3.2,1.6,4.9c0.3,2.1,0.1,4.2-0.1,6.4c0,0.2,0.3,0.2,0.3,0
	c0.2-2,0.4-4,0.1-6c-0.2-1.6-0.7-3.1-1.3-4.6c-1.4-3.1-3.4-6.1-3.8-9.6C92.5,10,92.1,10,92.1,10.2L92.1,10.2z"/>
<path class="st34" d="M93.3,10c-0.4,3.4,1.2,6.6,2.5,9.7c1.3,3,2.3,6.7,0.7,9.8c-0.1,0.2,0.2,0.4,0.3,0.2c1.5-2.9,0.8-6.3-0.3-9.2
	c-1.3-3.4-3.2-6.7-2.8-10.5C93.7,9.7,93.3,9.7,93.3,10L93.3,10z"/>
<path class="st34" d="M81.5,13.3c1.1,2,1.9,4,2.4,6.2c0.1,0.2,0.4,0.1,0.3-0.1c-0.5-2.2-1.4-4.3-2.5-6.3
	C81.7,13,81.4,13.1,81.5,13.3L81.5,13.3z"/>
<path class="st34" d="M82.6,12.2c-0.1,2.5,0.3,4.9,1.3,7.2c0.1,0.2,0.4,0.1,0.3-0.1c-0.9-2.3-1.4-4.7-1.3-7.1
	C83,11.9,82.6,11.9,82.6,12.2L82.6,12.2z"/>
<path class="st34" d="M95.6,46.3c1.3-2.2,2.4-4.5,3.4-6.9c0.5-1.2,0.9-2.4,1.3-3.6c0.4-1.2,0.8-2.4,1.7-3.4c0.2-0.2-0.1-0.4-0.2-0.2
	c-1.6,1.7-2,4.3-2.8,6.4c-1,2.6-2.2,5.1-3.6,7.5C95.2,46.3,95.5,46.5,95.6,46.3L95.6,46.3z"/>
<path class="st34" d="M103.4,44.8c1.2-1.7,2.3-3.4,3.5-5.1c0.8-1.2,2-2.7,1.5-4.2c-0.1-0.2-0.4-0.1-0.3,0.1c0.6,1.7-1,3.4-1.9,4.7
	c-1,1.5-2,2.9-3,4.4C103,44.9,103.3,45,103.4,44.8L103.4,44.8z"/>
<path class="st34" d="M16.2,61.4c-0.4,2.6,2.1,4.4,2.5,6.8c0,0.2,0.4,0.2,0.3,0c-0.3-2.4-2.9-4.2-2.5-6.7
	C16.6,61.3,16.2,61.2,16.2,61.4L16.2,61.4z"/>
<path class="st34" d="M9,67.1c1.2,0.6,2,1.6,2.5,2.8c0.4,0.9,0.5,2,1.2,2.8c1,1.3,3.1,1.3,4.2,0.1c0.1-0.2-0.1-0.4-0.2-0.2
	c-0.7,0.8-1.9,1.1-2.9,0.6c-0.9-0.4-1.3-1.5-1.6-2.4c-0.6-1.7-1.4-3.1-3-4C9,66.7,8.8,67,9,67.1L9,67.1z"/>
<path class="st34" d="M18.2,71c0.1,0,1.1,1.9,1.2,2.1c0.1,0.2,0.4,0,0.3-0.2c-0.3-0.5-0.5-0.9-0.8-1.4c-0.1-0.2-0.3-0.7-0.7-0.8
	c-0.5,0-0.3,0.7,0,0.6C18.5,71.2,18.4,70.9,18.2,71L18.2,71z"/>
<path class="st34" d="M111.2,48.4c5.3,1.6,8,7.6,13.4,9c0.7,0.2,2,0.6,2.5-0.3c0.4-0.8-0.1-2.1-0.4-2.9c-0.8-2.1-2.4-3.9-4.5-4.9
	c-1.4-0.6-2.9-0.9-4.4-1c-1.8-0.2-3.5-0.2-5.3-0.3c-0.2,0-0.2,0.3,0,0.3c2.7,0.2,5.5,0.1,8.1,0.8c2.3,0.6,4.2,2.1,5.3,4.1
	c0.5,0.9,1,2.1,1,3.2c0,1.7-2.9,0.5-3.7,0.1c-2.2-1-3.9-2.7-5.6-4.3c-1.8-1.7-3.8-3.4-6.3-4.1C111.1,48,111,48.3,111.2,48.4
	L111.2,48.4z"/>
<path class="st34" d="M111.5,48.1c4.1,1.7,7.6,4.5,11.8,5.8c0.5,0.1,1,0.3,1.4,0.4c0.3,0.1,0.7,0.2,0.9,0c0.5-0.4-0.1-1.2-0.4-1.6
	c-1.1-1.6-2.8-2.7-4.6-3.2c-2.5-0.7-5.2-0.5-7.6-1.4c-0.2-0.1-0.3,0.3-0.1,0.3c2.4,0.8,4.9,0.7,7.3,1.3c1.3,0.3,2.5,0.9,3.5,1.8
	c0.4,0.4,0.8,0.8,1.2,1.2c0.2,0.2,0.4,0.5,0.5,0.7c0.3,0.6-0.4,0.6-0.8,0.5c-4.7-1-8.5-4.3-12.9-6C111.3,47.6,111.3,48,111.5,48.1
	L111.5,48.1z"/>
<path class="st34" d="M113.6,47.5c7.1-2.2,14,1.9,19.2,6.4c0.2,0.1,0.4-0.1,0.2-0.2c-5.3-4.6-12.3-8.8-19.5-6.5
	C113.3,47.2,113.4,47.5,113.6,47.5L113.6,47.5z"/>
<path class="st34" d="M133,53.7c-1.1-1.9-1.9-3.9-2.6-6c-0.1,0-0.2,0.1-0.3,0.1c0.7,2.1,1.6,4.1,2.6,6.1
	C132.8,54.1,133.1,53.9,133,53.7z"/>
<path class="st34" d="M129.7,47.7c-0.7,0.1-1.4,0.2-2.1,0c-0.6-0.2-1.3-0.5-1.9-0.7c-1.2-0.4-2.4-0.8-3.7-1
	c-1.9-0.4-3.9-0.5-5.8-0.2c-0.1,0.1-0.2,0.3-0.3,0.4c2.3-0.4,4.6-0.2,6.8,0.3c1.2,0.3,2.5,0.7,3.7,1.1c0.5,0.2,1.1,0.5,1.7,0.6
	c0.6,0.1,1.1,0,1.7-0.1C129.9,48,129.9,47.7,129.7,47.7z"/>
<path class="st35" d="M106.4,46.9c0.9,0,1.8-0.3,2.7-0.4c0.2,0,0.2-0.4,0-0.4c-0.9,0.1-1.8,0.4-2.7,0.4
	C106.2,46.6,106.2,46.9,106.4,46.9L106.4,46.9z"/>
<path class="st35" d="M112.9,48c-0.3-0.1-0.6-0.2-0.8-0.3c-0.2-0.1-0.4,0.2-0.2,0.3c0.3,0.2,0.6,0.3,0.9,0.4
	C113,48.4,113.1,48,112.9,48L112.9,48z"/>
<path class="st35" d="M111.3,48.1c0-0.1,0-0.1-0.1-0.2c-0.1-0.1-0.3-0.1-0.3,0.1c0,0.1,0,0.1,0.1,0.2
	C111,48.2,111.1,48.1,111.3,48.1c-0.1-0.1-0.1-0.1-0.1-0.1c-0.1,0.1-0.2,0.1-0.3,0.2c0,0,0,0,0,0.1C111,48.4,111.3,48.3,111.3,48.1
	c-0.1-0.1-0.1-0.1-0.1-0.2c-0.1,0.1-0.1,0.2-0.2,0.3c0,0,0,0,0.1,0C111.1,48.3,111.2,48.2,111.3,48.1
	C111.2,48.1,111.2,48.1,111.3,48.1c-0.1,0-0.2,0-0.3,0c0.2,0.1,0.4,0.1,0.7,0.2c0.1,0,0.2,0.1,0.2,0.1c0.1,0,0.2,0,0.4,0.1
	c0.2,0.1,0.3-0.3,0.1-0.3c-0.1,0-0.2,0-0.3-0.1c-0.1,0-0.2-0.1-0.3-0.1c-0.2-0.1-0.4,0-0.6-0.1c-0.1-0.1-0.2,0-0.3,0.1
	c0,0,0,0,0,0.1c0.1,0,0.1-0.1,0.2-0.1c0,0,0,0-0.1,0c-0.2,0-0.3,0.1-0.2,0.3c0,0,0,0,0,0.1C111,48.2,111.1,48.1,111.3,48.1
	c-0.1-0.1-0.1-0.1-0.1-0.1c-0.1-0.2-0.4,0-0.3,0.2c0,0,0,0,0,0.1C111,48.4,111.3,48.3,111.3,48.1C111.2,48,111.2,48,111.3,48.1
	c-0.2-0.1-0.3,0-0.4,0c0,0,0,0.1,0,0.1C111,48.5,111.3,48.4,111.3,48.1L111.3,48.1z"/>
<path class="st34" d="M129.7,48c0.2,0,0.4-0.1,0.6-0.1c-0.1,0-0.1-0.1-0.2-0.1c0,0,0,0,0,0c0-0.1,0.1-0.1,0.1-0.2c0,0,0,0,0,0
	c-0.2,0.1,0,0.4,0.2,0.3c0,0,0,0,0,0c0.1,0,0.1-0.1,0.1-0.2c0,0,0,0,0,0c0-0.1-0.1-0.1-0.2-0.1c-0.2,0-0.5,0.1-0.7,0.1
	C129.4,47.7,129.5,48.1,129.7,48L129.7,48z"/>
<linearGradient id="SVGID_6_" gradientUnits="userSpaceOnUse" x1="103.2934" y1="25.294" x2="103.2934" y2="22.0847">
	<stop  offset="0" style="stop-color:#FFFFFF;stop-opacity:0.45"/>
	<stop  offset="0.9931" style="stop-color:#FFFFFF;stop-opacity:0"/>
</linearGradient>
<polygon class="st36" points="104,22.1 104,23.2 104.9,23.9 103.8,24.2 103.5,25.3 102.8,24.4 101.7,24.4 102.4,23.5 102,22.4 
	103.1,22.8 "/>
</svg>
