<?xml version="1.0" encoding="utf-8"?>
<!-- Generator: Adobe Illustrator 24.0.1, SVG Export Plug-In . SVG Version: 6.00 Build 0)  -->
<svg version="1.1" id="Layer_1" xmlns="http://www.w3.org/2000/svg" xmlns:xlink="http://www.w3.org/1999/xlink" x="0px" y="0px"
	 viewBox="0 0 141.7 141.7" style="enable-background:new 0 0 141.7 141.7;" xml:space="preserve">
<style type="text/css">
	.st0{fill:#C9E3B1;}
	.st1{fill:#75D0ED;}
	.st2{fill:#FFFFFF;}
	.st3{fill:#CAB19D;}
	.st4{fill:#8C534D;}
	.st5{fill:#F18467;}
	.st6{fill:#ECA595;}
	.st7{fill:#756C67;}
	.st8{fill:#070707;}
	.st9{fill:none;stroke:#070707;stroke-width:0.4245;stroke-miterlimit:10;}
	.st10{fill:#CC9793;}
	.st11{fill:#AB685D;}
	.st12{fill:#0486B4;}
</style>
<g id="Layer_12">
</g>
<g id="Layer_8">
</g>
<g id="Layer_15">
</g>
<g id="Layer_16">
</g>
<path class="st0" d="M132.6,95.8l-1.8,0.2l-1.4,0.3l-1.3-0.3l-0.3-0.4l-0.7,0.3l-1.2-2.7l-0.5,2.2l-0.8,0.8l-1.1,0.1l-1.3,1.9
	l-2,1.7l-6.8,3.8l-2.7,0.8l-1.7,2.5l-0.9,1.3l-1.2,0l-0.3-0.5l-0.9,0.7l-0.9-0.1l-1-3.4l0-1.9l-2-1.9l-2.1-1c0,0-3-2.5-1.9-5.8
	l-3-0.3c0,0-2.4-0.2-2.5-2.1l-1.2,2.5l-0.7-1l-1.2,0l-3,1L84.5,95l-2.4-0.2c0,0,0.2-3.1,2.9-5.6c0,0-4.8,3.6-5,5.5l-0.7-4.2
	l-0.7,4.8l-0.9-1.4l-0.5,1.3c0,0-6.4-0.8-6.5-1.3c-0.1-0.5-0.9-0.3-0.9-0.3l-4.1,7.3l1.6,1.6c0,0,0.9,1.4,1.6,2.6l-0.1,1.5l-0.8,1.4
	l-1.4,0.5l-0.9-0.2l-1.7-0.6l-3.6-3.6l-2.4,1l-4.5,1l-9.7,1.3l-6.7,0.2c0,0-8.1-0.9-8.7-2.6l-2.2,1l-2.3,1.7l-1.7,0.9l-1.5,0.2
	l-0.9-0.6l-0.7-0.6l-0.4-1.6l0.8-1.5l2-1.7l1.2-0.8l-2.5-3.3l-2.3-3.8l-1.4-0.2l-2.8,1.3L12.9,95l0.6-1.9l-0.9,0.2l-0.9,0.8
	l-1.1,1.8l-1.2,0l-1.8-0.1l-2.5,0.5H3l7.9,7.1c0,0-6,9.7,4.5,15.1c0.4-1,0.7-2.1,0.9-3.3c0.1-0.8,0.7-1.1,1.3-1
	c0.6-0.2,1.4-0.1,1.7,0.6c0.1,0.1,0.1,0.2,0.1,0.3c0,0,0,0,0,0c0,0,0,0,0,0c0.5,1.1,0.9,2.3,1.3,3.5c0.2-0.4,0.4-0.7,0.6-1.1
	c0.8-1.4,3-0.4,2.6,1.1c-0.2,0.8-0.1,1.6,0.1,2.4c3.3,0.5,7.2,0.8,12,0.8l7.6,0.1c0,0,3.3-4.4,2.4-7.8l2,7.9l1.1-2.4l0.3,1.2
	l1.4,0.6l0.4-0.4c0,0,2.4,2.2,12.6-0.2l3.6-1.6c0.9-0.9,1.7-2,2.3-3.2c0.1-0.6,0.2-1.1,0.3-1.7c0.2-1.3,1.8-1.3,2.5-0.4
	c0.5,0.3,0.9,0.6,1.2,1c-0.1-0.9-0.3-1.7-0.7-2.6c-0.7-1.6,1.5-3.1,2.4-1.4c0.6,1.1,0.9,2.4,1.1,3.6c0.1,0.3,0.1,0.6,0.2,0.9
	c2.9,0.4,13.6,1.7,24.1,1.9c0-0.1-0.1-0.2-0.1-0.3c-0.3-1.2,1-2.2,2.1-1.6c0.2,0.1,0.3,0.2,0.4,0.4c0.3,0.3,0.4,0.6,0.4,0.9
	c0,0,0,0,0,0.1c0.1,0.2,0.1,0.4,0.2,0.6c10.9-0.1,20.8-1.9,20.6-7.7l9.4-14L132.6,95.8z"/>
<path class="st1" d="M22.7,101.6L19.8,98c0,0-4.8-4.4-3.4-19.2c0,0,0.6-11.9,0.5-14.7c0,0-0.7-9.7-0.7-11.2c0,0-0.7-11.4,0.9-17
	c0,0-6.5-1.2-5.5-7.2c0,0,4.1-7.6,11.2-3.2c0,0,4.6-5.2,16.2-5.8l9.2-0.7c0,0,9.3,0.9,14.5,5.1c0,0,4.9-2.8,9.1-0.2c0,0,2,2.1,2,3.9
	c0,0,0.5,2.2-1.2,4.8c0,0,0.4,0.4-3.2,1.9c-3.6,1.5-0.5,0.2-0.5,0.2s1.9,2.2,1.9,19.1L67.4,73v0.7c0,0,0.6,1,3.9,2.3l0.2,8.6
	c0,0-0.6,7.6-2.3,10.5c-1.7,2.9-3.4,5.6-3.4,5.6l-3.1,0.5c0,0-3,1.3-2.5,2.6l-2,1.1l-5.3,1.1L47,107l-6.9,0.6h-5.7l-3.6-1.3
	l-2.4-1.3l-1-1l-1.4-1.5l-1.2-0.8l-1.3-0.2L22.7,101.6z"/>
<circle class="st2" cx="32.3" cy="32.6" r="8.5"/>
<circle class="st2" cx="53.5" cy="31.9" r="8.5"/>
<path class="st2" d="M46.9,47.2c-0.1-0.5-0.3-1-0.4-1.5l-1.6-0.5l-1.5-0.1l-3.6,0.9l-0.4,1.6c0,0.1,0,0.2,0,0.4c0,0.1,0,0.2,0.1,0.3
	c0,0.4,0.1,0.9,0.1,1.3c0.4,0.8,1,1.7,1.6,1.6c0.9-0.3,1.1-0.2,2.2-1.4c0,0,0.7,1.7,1.8,1.3c0,0,0.5-0.1,1-0.5c0,0,0,0,0,0
	c0.3-0.3,0.5-0.8,0.7-1.3v-1.9L46.9,47.2z"/>
<path class="st3" d="M49.5,42.4c0-0.1-0.1-0.2-0.1-0.3l-3-2h-0.5c-1.7,1.2-4.3,1.4-5.9,0h-0.5l0.1,0.2l-1.7,0.8c0,0-0.1,0-0.1,0.1
	c-0.4,0.4-0.8,0.7-1.2,1.1c-0.5,0.8-0.9,1.9-0.2,2.6c1.1,1.1,1.8,1.3,2.9,1.2l3.8-0.9l1.1-0.1l3.7,0.8c0,0,1.5,0,1.8-0.6
	C49.5,45.2,50.6,44.6,49.5,42.4z"/>
<path class="st3" d="M48.1,70.3l1.9-1.6l1.6-0.9c0,0,1.7-0.7,2.4,0.2l0.3,0.6l1,0.6l0.3,0.6L55.1,71L53,72.6l-2.1,0.8l-2.5,0.2
	l-0.2,0C48.2,73.5,46.9,71.8,48.1,70.3z"/>
<path class="st3" d="M75,72l-1.5-1l-0.7,0.2c-0.6,0.8-1.4,1.4-2.3,1.8c-0.6,0.3-1.2,0.4-1.8,0.3c-0.3-0.1-0.5-0.1-0.8-0.3
	c-0.1,0.1-0.3,0.2-0.4,0.3c-0.1,0.1-0.3,0.1-0.4,0.2c0.6,0.7,3,2.2,3,2.2l1.4,0.3l0.8,0.1c0.2-0.1,0.5-0.2,0.8-0.2c0,0,0.1,0,0.1,0
	l0.9-0.5l1.1-1.1l0.3-0.9L75,72z"/>
<polygon class="st4" points="67.8,73.1 69.8,72 69.9,72.9 69.2,73.5 68.2,73.6 "/>
<path class="st3" d="M23.5,101.4l-1.8,1l-1.3,1l-0.9,0.9L19,105l-0.4,0.9c0,0,0,1.7,1.1,2.2c0,0,1.6,1.1,3.4-0.2
	c0,0,3.9-3.2,4.8-2.9l-1.8-2.3l-1.1-1L23.5,101.4z"/>
<polygon class="st3" points="60.2,103.8 60.9,102.5 62.6,101.2 64,100.8 65.7,100.7 65.7,101.2 67,102 68,103.4 68.5,105 
	68.8,106.5 68.4,107.5 67.5,108.1 66.6,108.4 65.7,108.2 64.4,107.7 63,106.5 62.2,105.6 61,104.4 "/>
<polygon class="st5" points="97.9,63.5 97.8,61.5 98.5,59.3 99.5,57.7 101,56.1 101.8,54.7 102.4,53 103,51.4 103.6,51.8 103.6,53 
	103.6,55.1 103.7,57.5 104.1,59.1 105,60.6 105,60.8 105.4,61.1 102.8,61.3 102.2,61.4 101.4,58.6 100.8,59 100.2,59.9 99.9,61.1 
	100.1,62 98.7,62.8 "/>
<polygon class="st5" points="113.2,64.9 114.9,64.6 116.8,64 118.4,63.1 119.6,62 120.5,61.1 121.7,60.5 121.6,61 121.1,62.2 
	120.3,63.5 119.7,65 119.3,66.7 118.8,68.2 118.2,69.5 117.4,70.7 116.5,71.5 115.2,71.9 114.5,71.9 114.4,70.6 115.8,69.6 
	116.9,68.6 117.7,67.6 117.9,66.7 117.4,66.4 116.5,66.4 115.5,66.7 114.4,67.1 114.1,67.3 113.7,66.2 "/>
<path class="st5" d="M96.6,64.5l1.1-0.7l1-1l1.3-0.6l1.3-0.6l1.5-0.3l1.4-0.2h2.1l2.2,0.3l1.7,0.7l1.2,0.7l1.3,1.3l0.5,1.3l0.7,1.5
	l0.4,1.9l0.1,1.8l0.2,2.2l0.3,1.1l-1.1-0.7l-1.6-0.8l-1.3-0.4l-1.5-0.2l-1.6,0l-1,0.2c0,0-0.9-0.8-1-0.9c-0.1-0.1-1.9-0.9-1.9-0.9
	l-1.7-0.4l-0.9-1.6l-1.4-1.8l-1.7-1.3L96.6,64.5z"/>
<path class="st5" d="M115.6,75c0,0-0.5-0.9-0.7-1.4l0.1,0.4L115.6,75z"/>
<path class="st5" d="M134.3,80.5C134.4,80.5,134.4,80.5,134.3,80.5c0.3,0,0.5,0,0.6,0.1c3.7-5.3,1.7-8.1,1.7-8.1
	c-3-6.4-9.9-5.9-9.9-5.9c-2.9-3-6.3-2.5-6.5-2.5l-4.2,7.5l-1.6,0.3l0.3,1.6c0.2,0.3,0.4,0.8,0.9,1.6c2.3,4.3-1.4,6.3-1.4,6.3
	l-2.4,0.6h-0.3l-2.3-0.4l-2.4-0.6l-2.4-0.5h-2.4l-0.9-0.7l-0.8,0.4l-0.2,1.3l0.4,1l-1.1-0.6l-0.7,0.2l-0.7,1l-0.2,1.6l1,1.5l0.6,0.8
	l0.1,2.5l0.5,1.8l0.7,2l0.6,2.1c-1.8,4.2,0.8,6.7,0.8,6.7l1.6,0.9l1.6,1l2.6,0.4l2.6,0.1l2-0.8l2.5-1l3-1.5l3.2-2.2
	c0,0,1.2-1.2,2.2-2.8c1-1.6,1.4-5.7,1.4-5.7l-0.1-6.5c0.9-5.2,4.3-6.2,4.3-6.2C133.2,77.1,134.1,79.5,134.3,80.5z"/>
<polygon class="st5" points="97.9,94.1 98.3,96.1 99.1,98.2 99.8,99.7 100.5,100.8 99.3,100.2 98.2,99.2 97.5,98 97.2,96.2 
	97.5,94.8 "/>
<circle class="st2" cx="103.4" cy="65" r="3.4"/>
<circle class="st2" cx="109.6" cy="67.9" r="3.4"/>
<path class="st6" d="M100.1,62c0,0-0.6-1.9,1.1-3.4l1,2.7C102.2,61.4,100.2,61.8,100.1,62z"/>
<path class="st6" d="M114.1,67.3c0,0,3.1-1.8,3.8-0.7l-0.1,0.7l-0.8,1.2l-1.9,1.5l-0.8,0.6L114.1,67.3z"/>
<path class="st6" d="M91.4,71.4c0,0-1.9-6.7,5-6.8l2.3,1.2l1.5,1.4l1.2,1.5l0.8,1.4l4.5,1.9L110,72l2.2,0.5l1.6,0.8l1.1,0.9l1.1,1.7
	l0.4,2l-0.3,1.7l-0.8,1.2l-1.3,1c0,0-2.2,0.8-5.3,0l-2.1-0.6l-1.8-0.4l-1.7-0.1l-1.3-0.1l-1.3-0.5l-2.4-1.9l-4-2.2l-1.7-1.7
	C92.5,74.1,91.3,72.6,91.4,71.4z"/>
<path class="st6" d="M100.4,82.6c0,0-0.6-1.8,0.6-2.3l-2.7-2l-0.2,0.7c0,0,0,0.8-1.6,1.1l-1.1-1.6l-0.3,0.9h-1l-1.1-1l-0.8,0.1
	l-0.3,0.9l-0.2,1.1l0.6,1.2l0.4,1.1l1.5,0.8l0.6,1.1c0,0,1.6,1.9,3.1,0.4c0,0-0.7,5.8,0.1,8.6l1.1,3.9l1.6,3.2l1.5,1.2l-0.6-1.5
	l-0.5-1.3c0,0-0.4-1.9,0.8-4.2l-0.4-0.5l-1.1-3.2l-0.7-3l0-1.6l-1.2-1.4l-0.3-1.3l0.8-1.5l0.9-0.3L100.4,82.6z"/>
<polygon class="st6" points="103.8,103.4 103.9,105.2 104.2,107.1 104.8,108.5 106.1,108.7 106.6,107.9 106.9,107 107,105.9 
	106.8,105 106.5,104.3 "/>
<polygon class="st6" points="110.7,104.6 109.8,105.8 109,107.1 108.1,108.4 107.6,108.6 106.9,108.4 106.6,107.9 106.5,104.3 
	108.9,104.6 "/>
<polygon class="st5" points="101.8,71.3 100.5,71.5 99.3,71.9 98.7,72.7 98.5,73.6 98.9,74.5 100,74.9 101.9,74.9 102.8,75.3 
	103.6,75.8 104.6,76.4 105.7,76.7 106.8,76.4 107.2,76 107.4,75.2 107.1,74.3 106.1,72.7 "/>
<path class="st2" d="M100.5,75c0,0-1.2,1.9-0.9,2.8l0.6,0.9h0.9l0.5-0.4l0.2-0.2l0.1,0.9l0.6,0.6l0.7,0l0.6-0.4l0.4-0.6l0.3-0.8
	l0.1-1v-0.3l-1.2-0.8l-0.8-0.4l-0.7-0.3L100.5,75z"/>
<path class="st7" d="M80,109.7c0.1,0,4.8-1.6,8-1.1c0,0,1.3,0.2,2.1,0.8l0.9,0.7l0.2,0.7l-0.7,0.3c0,0-2.8,0.7-5.1,0.5l-3.1-0.6
	c0,0-1.3-0.4-1.2-0.4s-0.6-0.4-0.6-0.4l-0.6-0.6L80,109.7z"/>
<polygon class="st7" points="92,108.2 92.1,108.7 93.1,109 94.1,108.9 94.6,108.6 94.3,108.3 93.5,108.1 "/>
<g>
	<g>
		<path class="st8" d="M105.3,60.6c-0.9-1.5-1.4-3.3-1.4-5.1c0-0.9,0.2-1.7,0.2-2.5c0-0.6-0.1-1.5-0.7-1.7c-0.6-0.2-0.9,0.3-1,0.7
			c-0.3,0.8-0.5,1.7-0.8,2.4c-0.7,1.6-2.1,2.5-2.9,3.9c-0.9,1.5-1.3,3.3-1.1,5.1c0,0.5,0.7,0.5,0.7,0c-0.2-1.8,0.3-3.7,1.3-5.2
			c0.5-0.8,1.3-1.4,1.8-2.1c0.5-0.7,0.9-1.5,1.1-2.3c0.1-0.4,0.3-0.9,0.4-1.3c0.1-0.2,0.1-0.5,0.3-0.5c0.1,0,0.1,0.7,0.1,0.8
			c0,1-0.2,1.9-0.2,2.8c0,1.8,0.6,3.7,1.5,5.2C104.9,61.4,105.5,61,105.3,60.6L105.3,60.6z"/>
	</g>
</g>
<g>
	<g>
		<path class="st8" d="M114.8,72.3c1.5,0,2.7-0.9,3.5-2.1c1-1.5,1.2-3.2,1.8-4.9c0.3-1,0.8-1.8,1.3-2.7c0.3-0.5,1-1.5,0.7-2.1
			c-0.5-1.3-2.9,1.5-3.3,1.9c-1.6,1.4-3.6,1.9-5.6,2.3c-0.4,0.1-0.3,0.8,0.2,0.7c1.8-0.3,3.7-0.7,5.2-1.8c0.7-0.5,1.4-1.2,2-1.8
			c0.2-0.2,0.4-0.3,0.6-0.5c0.1-0.1,0.2-0.2,0.3-0.3c-0.1-0.1-0.1-0.1-0.1,0.1c-0.2,0.5-0.5,1-0.7,1.5c-0.5,0.9-0.9,1.8-1.2,2.7
			c-0.3,1-0.5,1.9-0.9,2.9c-0.6,1.7-1.7,3.6-3.7,3.6C114.3,71.6,114.3,72.3,114.8,72.3L114.8,72.3z"/>
	</g>
</g>
<path class="st8" d="M101.6,70.3c0.3-0.8,1.8-1,3.2-0.3c1.4,0.6,2.3,1.8,2,2.6c-0.3,0.8-1.8,1-3.2,0.3
	C102.1,72.3,101.2,71.1,101.6,70.3z"/>
<g>
	<g>
		<path class="st8" d="M102.4,75.1c-0.2,0.3-0.2,0.7-0.3,1.1c-0.1,0.4-0.3,0.9-0.3,1.3c-0.1,0.6-0.1,1.4,0.4,1.8
			c0.4,0.4,1.1,0.4,1.6,0.1c0.5-0.3,0.7-0.8,0.9-1.4c0.2-0.6,0.3-1.2,0.3-1.8c0-0.2-0.4-0.2-0.4,0c0,0.4,0,0.9-0.2,1.3
			c-0.1,0.5-0.3,1-0.6,1.3c-0.3,0.4-0.8,0.5-1.2,0.2c-0.5-0.3-0.5-1-0.4-1.5c0.1-0.4,0.2-0.9,0.3-1.3c0.1-0.4,0.1-0.7,0.3-1.1
			C102.8,75.1,102.5,74.9,102.4,75.1L102.4,75.1z"/>
	</g>
</g>
<path class="st8" d="M103.6,63.4c1.1,0.6,1.4,1.9,0.8,3c-0.6,1-2,1.3-3.1,0.7c-1.1-0.6-1.4-1.9-0.8-3
	C101.2,63.1,102.5,62.8,103.6,63.4z M101,65.9c0.3,0.2,0.7,0.1,0.9-0.2c0.2-0.3,0.1-0.7-0.2-0.8c-0.3-0.2-0.7-0.1-0.9,0.2
	C100.6,65.4,100.7,65.8,101,65.9z"/>
<path class="st9" d="M110.8,64.6c1.7,0.7,2.6,2.7,1.9,4.5c-0.7,1.8-2.6,2.7-4.4,2c-1.7-0.7-2.6-2.7-1.9-4.5
	C107.1,64.8,109.1,63.9,110.8,64.6z"/>
<path class="st9" d="M100.2,63.8c0.7-1.8,2.6-2.7,4.4-2c1.7,0.7,2.6,2.7,1.9,4.5c-0.7,1.8-2.6,2.7-4.4,2
	C100.4,67.6,99.6,65.6,100.2,63.8z"/>
<g>
	<g>
		<path class="st8" d="M100.3,74.9c-0.4,0.5-0.6,1.1-0.8,1.6c-0.1,0.5-0.2,1.2,0,1.7c0.2,0.5,0.8,0.8,1.3,0.8c0.5,0,0.8-0.5,1.1-0.8
			c0.2-0.2-0.1-0.4-0.3-0.3c-0.2,0.2-0.5,0.7-0.8,0.7c-0.5,0-0.9-0.3-1.1-0.8c-0.1-0.4,0-1,0.1-1.4c0.2-0.5,0.4-0.9,0.7-1.3
			C100.8,74.9,100.5,74.7,100.3,74.9L100.3,74.9z"/>
	</g>
</g>
<g>
	<g>
		<path class="st8" d="M105.9,72.6c-0.1,0-0.1-0.1-0.2-0.1c-0.1,0-0.3,0.1-0.2,0.3c0.1,0.1,0.3,0.2,0.4,0.3c0.2,0.1,0.3,0.3,0.5,0.5
			c0.3,0.4,0.6,0.9,0.8,1.5c0.1,0.5,0.1,1-0.4,1.3c-0.7,0.4-1.5,0.2-2.2-0.1c-0.6-0.3-1.2-0.8-1.9-1.1c-0.5-0.2-1.1-0.3-1.7-0.3
			c-0.5,0-1.1,0.1-1.6-0.1c-0.6-0.3-0.7-1-0.5-1.6c0.5-1.2,2.3-1.4,3.3-1.5c0.2,0,0.2-0.4,0-0.4c-1.2,0.1-2.7,0.3-3.4,1.3
			c-0.4,0.5-0.5,1.2-0.2,1.8c0.2,0.6,0.8,0.8,1.4,0.8c0.6,0.1,1.3-0.1,2,0.1c0.9,0.2,1.5,0.7,2.3,1.2c0.7,0.4,1.5,0.7,2.3,0.5
			c0.6-0.1,1.1-0.5,1.2-1.1c0.1-0.6-0.2-1.3-0.5-1.9c-0.2-0.3-0.4-0.6-0.6-0.9c-0.1-0.1-0.2-0.2-0.3-0.2c-0.1,0-0.3-0.2-0.3-0.2
			c-0.1,0.1-0.1,0.2-0.2,0.3c0,0,0.1,0,0.1,0.1C105.9,73,106.1,72.7,105.9,72.6L105.9,72.6z"/>
	</g>
</g>
<g>
	<g>
		<path class="st8" d="M115.3,74c-0.9-2.6-0.2-5.5-1.3-8c-0.9-2.2-2.6-3.9-4.8-4.7c-2.1-0.8-4.5-0.7-6.7-0.4
			c-1.2,0.2-2.4,0.5-3.4,1.1c-0.9,0.6-1.6,2-2.7,2.1c-0.5,0-0.5,0.7,0,0.7c0.8,0,1.4-0.5,2-1.1c0.9-1,1.9-1.6,3.2-1.9
			c2.2-0.5,4.6-0.7,6.8-0.1c2.4,0.7,4.4,2.4,5.2,4.8c0.9,2.5,0.2,5.2,1.1,7.7C114.8,74.7,115.4,74.5,115.3,74L115.3,74z"/>
	</g>
</g>
<g>
	<g>
		<path class="st8" d="M98,78.5c0.9,0.7,1.8,1.6,2.9,2.1c1.3,0.6,2.8,0.3,4.1,0.5c2.6,0.5,5,1.8,7.7,1.3c2.1-0.3,3.8-1.7,4.1-3.9
			c0.3-2.1-0.9-4.2-2.6-5.3c-2.5-1.7-5.6-1.7-8.5-1.6c-0.5,0-0.5,0.7,0,0.7c2.8-0.1,6.1-0.2,8.5,1.7c2.1,1.7,2.9,5.2,0.4,6.9
			c-2.4,1.7-5.4,0.5-8-0.2c-1.4-0.4-2.7-0.4-4.1-0.5c-1.7-0.1-2.8-1.3-4-2.2C98.1,77.7,97.6,78.2,98,78.5L98,78.5z"/>
	</g>
</g>
<g>
	<g>
		<path class="st8" d="M102.8,70.4c-1.5-2.9-3.8-6.1-7.4-6c-1.5,0-2.9,0.7-3.8,1.9c-1.1,1.5-1.1,3.5-0.5,5.2
			c0.1,0.4,0.8,0.2,0.7-0.2c-0.5-1.5-0.5-3.3,0.5-4.6c0.8-1.1,2.3-1.6,3.7-1.5c3.2,0.2,5.1,3.1,6.4,5.7
			C102.4,71.2,103,70.8,102.8,70.4L102.8,70.4z"/>
	</g>
</g>
<g>
	<g>
		<path class="st8" d="M103.6,49.2c-0.2,0.4-0.3,0.8-0.5,1.2c-0.1,0.2-0.2,0.4-0.2,0.6c0,0,0,0.1-0.1,0.1c0-0.1,0-0.1,0,0
			c0,0,0,0,0,0c0,0,0,0,0,0c0.1-0.1,0.1-0.1,0,0c0,0,0,0,0.1,0c0.2-0.1,0.4,0.1,0.5,0.3c-0.1-0.3-0.4-0.5-0.7-0.4
			c-0.3,0.1-0.5,0.4-0.4,0.7c0.1,0.2,0.2,0.4,0.4,0.4c0.2,0.1,0.4,0,0.5-0.1c0.1-0.1,0.2-0.2,0.3-0.4c0.1-0.2,0.1-0.3,0.2-0.5
			c0.2-0.5,0.4-1,0.6-1.5c0-0.1,0-0.3-0.1-0.4c-0.1-0.1-0.2-0.2-0.3-0.2c-0.1,0-0.3,0-0.4,0.1C103.8,49,103.7,49.1,103.6,49.2
			L103.6,49.2z"/>
	</g>
</g>
<g>
	<g>
		<path class="st8" d="M101.9,49c0.1,0.4,0.2,0.7,0.3,1.1c0,0,0,0.2,0,0c0,0,0,0.1,0,0.1c0,0.1,0,0.2,0,0.3c0,0.2,0,0.4,0,0.6
			c0,0.3,0.3,0.5,0.5,0.5c0.3,0,0.5-0.2,0.5-0.5c0.1-0.8-0.1-1.7-0.4-2.5c-0.1-0.3-0.4-0.5-0.7-0.4C102,48.4,101.8,48.7,101.9,49
			L101.9,49z"/>
	</g>
</g>
<g>
	<g>
		<path class="st8" d="M103.3,51.3c-0.1-0.1-0.2-0.3-0.3-0.4c-0.1-0.1-0.3-0.2-0.4-0.3c-0.3-0.2-0.5-0.3-0.8-0.4
			c-0.1,0-0.3,0-0.4,0.1c-0.1,0.1-0.2,0.2-0.2,0.3c-0.1,0.3,0.1,0.6,0.4,0.7c0.1,0,0.2,0.1,0.3,0.1c0,0-0.1,0-0.1-0.1
			c0.2,0.1,0.4,0.2,0.5,0.3c0,0-0.1-0.1-0.1-0.1c0.2,0.1,0.3,0.3,0.4,0.4c0,0-0.1-0.1-0.1-0.1c0,0,0,0,0,0c0.1,0.1,0.2,0.2,0.3,0.2
			c0.1,0,0.3,0,0.4-0.1c0.1-0.1,0.2-0.2,0.2-0.3C103.4,51.6,103.4,51.4,103.3,51.3L103.3,51.3z"/>
	</g>
</g>
<g>
	<g>
		<path class="st8" d="M122.3,60.9c0.5-1,0.7-2.1,0.6-3.2c0-0.3-0.2-0.5-0.5-0.5c-0.3,0-0.5,0.2-0.5,0.5c0,0.2,0,0.5,0,0.7
			c0,0.1,0,0.1,0,0.2c0,0,0,0.2,0,0.1c0,0.1,0,0.2-0.1,0.3c0,0.2-0.1,0.5-0.2,0.7c0,0.1-0.1,0.2-0.1,0.3c-0.1,0.2,0-0.1,0,0.1
			c0,0.1-0.1,0.1-0.1,0.2c-0.1,0.2-0.1,0.6,0.2,0.7C121.9,61.2,122.2,61.1,122.3,60.9L122.3,60.9z"/>
	</g>
</g>
<g>
	<g>
		<path class="st8" d="M122.1,60.2c0,0,0-0.1-0.1-0.1c0,0,0,0,0,0c0,0,0,0,0,0c0,0,0-0.1,0-0.1c0,0,0-0.1,0-0.1
			c-0.1-0.1-0.1-0.3-0.2-0.4c-0.1-0.3-0.2-0.6-0.3-0.9c-0.1-0.3-0.4-0.5-0.7-0.4c-0.3,0.1-0.4,0.4-0.4,0.7c0.2,0.7,0.4,1.3,0.7,2
			c0.1,0.1,0.2,0.2,0.3,0.2c0.1,0,0.3,0,0.4-0.1c0.1-0.1,0.2-0.2,0.2-0.3C122.2,60.4,122.2,60.3,122.1,60.2L122.1,60.2z"/>
	</g>
</g>
<g>
	<g>
		<path class="st8" d="M122.5,61c0.4-0.3,0.8-0.6,1.2-0.8c0.1-0.1,0.2-0.2,0.2-0.3c0-0.1,0-0.3-0.1-0.4c-0.1-0.1-0.2-0.2-0.3-0.2
			c-0.1,0-0.3,0-0.4,0.1c-0.4,0.3-0.8,0.6-1.2,0.8c-0.1,0.1-0.2,0.2-0.2,0.3c0,0.1,0,0.3,0.1,0.4c0.1,0.1,0.2,0.2,0.3,0.2
			C122.2,61.1,122.4,61.1,122.5,61L122.5,61z"/>
	</g>
</g>
<g>
	<g>
		<path class="st8" d="M100.3,61.8c-0.2-1.1,0.3-2.3,1.2-2.9c-0.2,0-0.3-0.1-0.5-0.1c0.4,0.8,0.7,1.7,0.9,2.6
			c0.1,0.4,0.8,0.3,0.7-0.2c-0.2-1-0.5-1.9-0.9-2.8c-0.1-0.2-0.3-0.2-0.5-0.1c-1.2,0.9-1.7,2.3-1.5,3.7c0,0.2,0.3,0.3,0.4,0.2
			C100.3,62.2,100.3,62,100.3,61.8L100.3,61.8z"/>
	</g>
</g>
<g>
	<g>
		<path class="st8" d="M114.6,67.4c0.1,0,0.1-0.1,0.2-0.1c0,0,0.1,0,0.1-0.1c0,0,0,0,0.1,0c0.1,0,0,0,0,0c0.2-0.1,0.4-0.2,0.7-0.2
			c0.2-0.1,0.5-0.1,0.7-0.2c0.1,0,0.1,0,0.2,0c0,0,0.1,0,0.1,0c0.1,0-0.1,0,0,0c0.1,0,0.2,0,0.4,0c0.1,0,0.1,0,0.2,0c0,0,0,0,0.1,0
			c0.1,0-0.1,0,0,0c0,0,0.1,0,0.1,0c0,0,0,0,0.1,0c-0.1,0,0,0,0,0c0,0,0,0,0,0c-0.1,0,0,0,0,0c0,0,0,0,0,0c-0.1-0.1,0,0,0,0
			c0,0,0,0.1,0,0c0,0,0,0.1,0,0.1c0,0,0,0.1,0,0c0-0.1,0,0,0,0c0,0,0,0,0,0.1c0,0.1,0-0.1,0,0c0,0.1,0,0.1,0,0.2
			c-0.1,0.2-0.1,0.3-0.2,0.5c-0.2,0.3-0.5,0.6-0.7,0.9c-0.6,0.6-1.4,1.1-2.1,1.6c-0.4,0.2,0,0.9,0.4,0.6c0.7-0.5,1.5-1,2.1-1.6
			c0.6-0.5,1.2-1.3,1.3-2.1c0.1-0.5-0.3-0.9-0.8-1c-0.6-0.1-1.1,0-1.7,0.2c-0.5,0.1-1,0.3-1.5,0.6C113.9,67.1,114.2,67.7,114.6,67.4
			L114.6,67.4z"/>
	</g>
</g>
<g>
	<g>
		<path class="st8" d="M96.5,67.3c-1.4-0.3-2.9,0.8-3,2.3c0,0.2,0.2,0.4,0.4,0.4c0.2,0,0.3-0.2,0.4-0.4c0,0,0-0.1,0-0.1
			c0,0.1,0,0,0,0c0-0.1,0-0.1,0.1-0.2c0,0,0-0.1,0-0.1c0,0,0,0,0,0c0,0,0,0,0,0c0-0.1,0.1-0.1,0.1-0.2c0-0.1,0.1-0.1,0.1-0.2
			c0-0.1,0,0,0,0c0,0,0-0.1,0.1-0.1c0-0.1,0.1-0.1,0.1-0.1c0,0,0.1,0,0.1-0.1c0,0,0.1-0.1,0,0c0.1-0.1,0.2-0.2,0.4-0.2
			c0.1-0.1,0.2-0.1,0.3-0.1c0.1,0,0.1,0,0.2,0c0.1,0,0,0,0,0c0,0,0.1,0,0.1,0c0.1,0,0.1,0,0.2,0c0,0,0.1,0,0.1,0c0,0,0.1,0,0.1,0
			c0.2,0,0.4-0.1,0.4-0.2C96.8,67.5,96.7,67.3,96.5,67.3L96.5,67.3z"/>
	</g>
</g>
<g>
	<g>
		<path class="st8" d="M113.1,75.8c0.5,0.9,0.6,2,0.2,3c-0.1,0.2-0.1,0.4,0.1,0.5c0.2,0.1,0.4,0,0.5-0.1c0.5-1.2,0.5-2.6-0.2-3.7
			C113.5,75,112.9,75.4,113.1,75.8L113.1,75.8z"/>
	</g>
</g>
<g>
	<g>
		<path class="st8" d="M95.4,69.9c0.2-0.1,0.4-0.3,0.6-0.4c0,0,0.1-0.1,0.1-0.1c0,0,0-0.1,0-0.1c0-0.1,0-0.2-0.1-0.3
			c-0.1-0.1-0.2-0.1-0.3-0.1c0,0-0.1,0-0.1,0c-0.1,0-0.1,0-0.2,0.1c-0.2,0.1-0.4,0.3-0.6,0.4c0,0-0.1,0.1-0.1,0.1c0,0,0,0.1,0,0.1
			c0,0.1,0,0.2,0.1,0.3C94.9,70,95,70,95.1,70c0,0,0.1,0,0.1,0C95.3,70,95.3,69.9,95.4,69.9L95.4,69.9z"/>
	</g>
</g>
<g>
	<g>
		<path class="st8" d="M112.3,77.3c0,0.1,0,0.1,0,0.2c0,0,0,0.1,0,0.1c0,0,0,0.1,0.1,0.1c0,0,0.1,0.1,0.1,0.1c0,0,0.1,0,0.1,0
			c0,0,0.1,0,0.1,0c0.1,0,0.1,0,0.2-0.1c0,0,0,0,0.1-0.1c0-0.1,0-0.1,0-0.2c0-0.1,0-0.1,0-0.2c0,0,0-0.1,0-0.1c0,0,0-0.1-0.1-0.1
			c0,0-0.1-0.1-0.1-0.1c0,0-0.1,0-0.1,0c0,0-0.1,0-0.1,0c-0.1,0-0.1,0-0.2,0.1c0,0,0,0-0.1,0.1C112.4,77.1,112.3,77.2,112.3,77.3
			L112.3,77.3z"/>
	</g>
</g>
<g>
	<g>
		<path class="st8" d="M91,71.6c0.5,3.6,4.1,5.4,7,6.8c0.4,0.2,0.8-0.4,0.4-0.6c-2.8-1.3-6.2-3-6.7-6.4C91.6,70.9,91,71.1,91,71.6
			L91,71.6z"/>
	</g>
</g>
<path class="st8" d="M110.1,65.9c1.2,0.7,1.6,2.2,0.9,3.4c-0.7,1.2-2.3,1.5-3.5,0.8c-1.2-0.7-1.6-2.2-0.9-3.4
	C107.4,65.5,108.9,65.2,110.1,65.9z M107.1,68.8c0.3,0.2,0.8,0.1,1-0.2c0.2-0.3,0.1-0.8-0.3-1c-0.3-0.2-0.8-0.1-1,0.2
	C106.7,68.2,106.8,68.6,107.1,68.8z"/>
<g>
	<g>
		<path class="st8" d="M112.4,104.5c5.4-2.6,11.9-4.9,12.8-11.7c0.6-3.9-0.8-8.2,1.1-11.9c0.8-1.6,2.2-2.8,4-2.8
			c1.7,0,3.5,0.9,3.7,2.8c0,0.2,0.3,0.5,0.5,0.3c3.6-2.7,3.7-7.9,0.9-11.2c-1.5-1.8-3.7-3-5.9-3.5c-2.7-0.6-5.4,0.1-7.9,1.2
			c-0.4,0.2-0.1,0.8,0.4,0.6c4.3-1.9,9.1-1.9,12.5,1.6c2.9,2.9,3.1,8.1-0.3,10.6c0.2,0.1,0.4,0.2,0.5,0.3c-0.2-2.1-1.9-3.4-3.9-3.5
			c-2.5-0.2-4.4,1.6-5.3,3.8c-1.3,3.1-0.7,6.4-0.8,9.7c-0.1,3.6-1.5,6.5-4.3,8.7c-2.5,1.9-5.5,3-8.3,4.4
			C111.6,104.1,112,104.7,112.4,104.5L112.4,104.5z"/>
	</g>
</g>
<g>
	<g>
		<path class="st8" d="M112.2,103.8c-2,0.8-4.5,0.6-6.5,0c-1.9-0.5-3.6-1.6-4.2-3.5c-1.3-3.7,1.3-7.5,4.8-8.7
			c0.4-0.1,0.2-0.8-0.2-0.7c-3.2,1-5.6,3.8-5.7,7.2c0,1.5,0.4,2.9,1.3,4.1c1.1,1.4,2.8,2.1,4.5,2.4c2.1,0.4,4.3,0.6,6.3-0.3
			C113,104.2,112.7,103.6,112.2,103.8L112.2,103.8z"/>
	</g>
</g>
<g>
	<g>
		<path class="st8" d="M109.8,82.8c0.9,2.1,2.6,3.2,4.4,4.5c2,1.4,3.2,3.3,3.4,5.7c0.4,4.2-1.8,8.7-5.6,10.7c-0.4,0.2,0,0.8,0.4,0.6
			c3.8-1.9,6.1-6.3,6-10.5c0-2-0.7-4.1-2-5.6c-1.8-2.1-4.7-2.8-5.9-5.5C110.3,82.2,109.7,82.4,109.8,82.8L109.8,82.8z"/>
	</g>
</g>
<g>
	<g>
		<path class="st8" d="M110.4,86.6c0.7-1.5,0.6-3.3-0.2-4.8c-0.2-0.4-0.8,0-0.6,0.4c0.7,1.2,0.8,2.8,0.2,4.1
			c-0.1,0.2-0.1,0.4,0.1,0.5C110,86.8,110.3,86.8,110.4,86.6L110.4,86.6z"/>
	</g>
</g>
<g>
	<g>
		<path class="st8" d="M106.7,81.2c-1.9,1.8-4.7,1.8-6.9,0.7c-0.4-0.2-0.8,0.4-0.4,0.6c2.5,1.2,5.7,1.2,7.8-0.9
			C107.5,81.4,107,80.9,106.7,81.2L106.7,81.2z"/>
	</g>
</g>
<g>
	<g>
		<path class="st8" d="M99.5,81.9c-1,0.1-1.8,0.9-2,2c-0.2,1.3,0.8,2.3,1.5,3.2c0.9,1,1.9,1.9,3.1,2.4c1.3,0.5,2.7,0.5,4,0.1
			c0.4-0.1,0.2-0.8-0.2-0.7c-1.1,0.3-2.2,0.4-3.3,0c-1-0.3-1.9-1-2.7-1.8c-0.4-0.4-0.7-0.8-1-1.2c-0.3-0.4-0.7-0.8-0.8-1.4
			c-0.1-0.8,0.5-1.8,1.4-1.9C100,82.6,100,81.9,99.5,81.9L99.5,81.9z"/>
	</g>
</g>
<g>
	<g>
		<path class="st8" d="M102.9,102.1c-2.9-1.1-4.1-4.9-4.7-7.7c-0.7-3.2-0.6-6.5-0.1-9.7c0.1-0.4-0.6-0.6-0.7-0.2
			c-0.6,3.5-0.7,7.2,0.2,10.6c0.7,2.9,2,6.4,5,7.6C103.1,103,103.3,102.3,102.9,102.1L102.9,102.1z"/>
	</g>
</g>
<g>
	<g>
		<path class="st8" d="M99.3,82.5c0-0.4,0-0.7,0-1.1c0-0.4,0-0.8-0.1-1.2c-0.1-0.3-0.3-0.4-0.6-0.4c-0.3,0-0.5,0.3-0.6,0.5
			c-0.1,0.3-0.1,0.5-0.1,0.8c0,0.3-0.2,0.3-0.4,0.1c-0.2-0.1-0.4-0.3-0.6-0.5c-0.2-0.1-0.5-0.2-0.7-0.3c-1.1-0.2-2.2,0.4-2.4,1.5
			c-0.2,1.1,0.2,2.5,1,3.3c0.9,0.9,2.4,1.1,3.3,0.1c0.3-0.3-0.2-0.8-0.5-0.5c-0.5,0.6-1.4,0.6-2,0.2c-0.7-0.5-1-1.4-1.1-2.2
			c-0.1-0.8,0.1-1.6,1-1.8c0.3,0,0.6,0,0.9,0.1c0.4,0.2,0.6,0.5,1,0.7c0.4,0.2,0.9,0.1,1.2-0.4c0.1-0.2,0.1-0.5,0.1-0.7
			c0-0.1,0-0.2,0.1-0.3c0,0,0.1-0.1,0.1-0.1c0-0.1-0.1,0,0,0c-0.1-0.1-0.1-0.2-0.2-0.3c0.1,0.8,0.1,1.6,0.1,2.3
			C98.6,82.9,99.3,82.9,99.3,82.5L99.3,82.5z"/>
	</g>
</g>
<g>
	<g>
		<path class="st8" d="M100.7,100.7c-1.9-1.2-3.6-3.6-2.5-5.8c0.2-0.4-0.4-0.8-0.6-0.4c-1.2,2.6,0.5,5.4,2.8,6.8
			C100.7,101.5,101,100.9,100.7,100.7L100.7,100.7z"/>
	</g>
</g>
<g>
	<g>
		<path class="st8" d="M95.9,82.5c0,0-0.1,0-0.1,0c0,0,0,0-0.1,0c0,0,0,0,0,0c0,0,0,0,0,0c0,0-0.1,0-0.1,0c0,0-0.1,0-0.1,0
			c0,0-0.1,0-0.1,0c-0.1,0,0,0,0,0c0,0,0,0-0.1,0c-0.1,0-0.1-0.1-0.2-0.1c0,0,0,0,0,0c-0.1,0,0,0,0,0c0,0-0.1-0.1-0.1-0.1
			c-0.1-0.1-0.1-0.1-0.2-0.2c0,0,0,0,0,0c0,0,0,0,0-0.1c0,0,0-0.1-0.1-0.1c0,0,0-0.1-0.1-0.1c0,0,0,0,0-0.1c0,0,0,0,0,0c0,0,0,0,0,0
			c-0.1-0.2-0.2-0.3-0.4-0.2c-0.2,0.1-0.3,0.3-0.2,0.4c0.3,0.8,1.1,1.4,2,1.4c0.2,0,0.4-0.2,0.4-0.4C96.2,82.7,96.1,82.5,95.9,82.5
			L95.9,82.5z"/>
	</g>
</g>
<g>
	<g>
		<path class="st8" d="M95.8,84.3C95.8,84.3,95.7,84.3,95.8,84.3c-0.1,0-0.1,0-0.1,0c0,0,0.1,0,0,0c-0.1,0-0.1,0-0.2,0
			c-0.1,0-0.1,0-0.2,0c0,0-0.1,0-0.1,0c0,0,0,0,0,0c-0.1,0,0.1,0,0,0c-0.1,0-0.2-0.1-0.3-0.2c0,0,0,0-0.1,0c0,0,0,0,0,0
			c0,0-0.1,0,0,0c0,0,0,0,0,0c0,0,0,0,0,0c0,0,0,0-0.1-0.1c-0.1-0.1-0.4-0.1-0.5,0c-0.1,0.1-0.1,0.4,0,0.5c0.4,0.4,1,0.6,1.6,0.7
			c0.2,0,0.4-0.2,0.4-0.4C96.1,84.4,96,84.3,95.8,84.3L95.8,84.3z"/>
	</g>
</g>
<g>
	<g>
		<path class="st8" d="M101.7,95.7c0-3-2.3-5.6-2-8.7c0-0.5-0.7-0.4-0.7,0c-0.1,1.5,0.3,3,0.8,4.4c0.5,1.4,1.2,2.8,1.2,4.3
			C101,96.2,101.7,96.2,101.7,95.7L101.7,95.7z"/>
	</g>
</g>
<g>
	<g>
		<path class="st8" d="M94.2,83.2c-0.6-0.2-1.1-0.8-1.4-1.4c-0.3-0.6-0.6-1.2-0.7-1.9c-0.1-0.4,0.1-1.4,0.7-1.4
			c0.4,0,0.7,0.5,0.9,0.8c0.3,0.3,0.6,0.6,1,0.7c0.4,0,0.8-0.1,1-0.5c0.1-0.2,0.1-0.4,0.1-0.6c0-0.1-0.1-0.2-0.1-0.3
			c0,0-0.1-0.1-0.1-0.1c0,0,0,0,0,0c0-0.1,0-0.1,0,0c-0.2,0-0.3,0.1-0.5,0.1c0.7,0.5,1.1,1.4,1,2.3c0,0.2,0.2,0.4,0.4,0.4
			c0.2,0,0.3-0.2,0.4-0.4c0.1-1.1-0.4-2.2-1.4-2.9c-0.2-0.1-0.4,0-0.5,0.1c-0.1,0.2-0.1,0.4-0.1,0.6c0,0.1,0.3,0.4,0.2,0.5
			c0,0.1-0.2,0.2-0.3,0.2c-0.2,0-0.4-0.2-0.5-0.3c-0.3-0.3-0.5-0.7-0.9-0.9c-0.4-0.2-0.8-0.2-1.2,0c-0.6,0.4-0.9,1.2-0.8,1.9
			c0.1,0.8,0.4,1.5,0.8,2.2c0.4,0.7,1.1,1.5,1.9,1.8C94.4,84.1,94.6,83.4,94.2,83.2L94.2,83.2z"/>
	</g>
</g>
<g>
	<g>
		<path class="st8" d="M96.2,80.3c0.5,0.1,1,0,1.4-0.3c0.4-0.3,0.7-0.7,0.8-1.2c0-0.2-0.1-0.4-0.2-0.4c-0.2,0-0.4,0.1-0.4,0.2
			c0,0,0,0.1,0,0.1c0,0,0,0,0,0.1c0,0,0,0,0,0c0,0,0,0,0,0c0,0.1-0.1,0.2-0.1,0.2c0,0,0,0,0,0c0,0,0,0,0,0.1c0,0-0.1,0.1-0.1,0.1
			c0,0-0.1,0.1-0.1,0.1c-0.1,0.1,0.1,0,0,0c0,0,0,0-0.1,0c-0.1,0.1-0.2,0.1-0.2,0.1c-0.1,0,0.1,0,0,0c0,0,0,0-0.1,0c0,0-0.1,0-0.1,0
			c0,0-0.1,0-0.1,0c0,0,0.1,0,0,0c0,0,0,0-0.1,0c-0.1,0-0.1,0-0.2,0c0,0-0.1,0-0.1,0c-0.1,0,0.1,0,0,0c-0.2,0-0.4,0-0.4,0.2
			C95.9,80.1,96,80.3,96.2,80.3L96.2,80.3z"/>
	</g>
</g>
<g>
	<g>
		<path class="st8" d="M91.6,79.5c0.3,0.2,0.5,0.4,0.7,0.7c0.1,0.1,0.2,0.2,0.3,0.4c0,0,0.1,0.1,0.1,0.1c0,0,0,0,0,0c0-0.1,0,0,0,0
			c0.1,0.1,0.1,0.1,0.1,0.2c0.1,0.2,0.3,0.2,0.5,0.1c0.2-0.1,0.2-0.3,0.1-0.5c-0.4-0.6-0.9-1.1-1.5-1.5c-0.1-0.1-0.1-0.1-0.3-0.1
			c-0.1,0-0.2,0-0.3,0.1C91.5,79.2,91.4,79.4,91.6,79.5L91.6,79.5z"/>
	</g>
</g>
<g>
	<g>
		<path class="st8" d="M100.7,82.1C100.7,82.1,100.7,82.1,100.7,82.1C100.7,82.1,100.7,82.1,100.7,82.1c0-0.1,0-0.1,0-0.2
			c0,0,0-0.1,0-0.1c0,0,0-0.1,0-0.1c0,0,0,0.1,0,0c0-0.1,0-0.2,0-0.2c0,0,0-0.1,0-0.1c0,0,0,0,0,0c0,0,0,0,0-0.1
			c0-0.1,0-0.1,0.1-0.2c0,0,0-0.1,0-0.1c0,0,0,0.1,0,0c0,0,0,0,0-0.1c0-0.1,0.1-0.1,0.1-0.2c0,0,0,0,0,0c0,0,0,0,0,0
			c0,0,0.1-0.1,0.1-0.1c0.1-0.1,0.1-0.4,0-0.5c-0.1-0.1-0.4-0.1-0.5,0c-0.6,0.6-0.7,1.5-0.4,2.3c0.1,0.2,0.3,0.2,0.5,0.1
			C100.8,82.5,100.8,82.3,100.7,82.1L100.7,82.1z"/>
	</g>
</g>
<g>
	<g>
		<path class="st8" d="M103.7,103.3c0,1,0,1.9,0.2,2.8c0.1,0.8,0.3,1.7,0.7,2.3c0.4,0.5,1,0.7,1.6,0.3c0.6-0.4,0.8-1.3,0.9-2
			c0.1-0.9,0-1.8-0.4-2.6c-0.1-0.2-0.4,0-0.3,0.2c0.4,0.8,0.5,1.7,0.4,2.6c-0.1,0.6-0.6,2-1.5,1.6c-0.3-0.2-0.5-0.6-0.6-0.9
			c-0.2-0.4-0.3-0.9-0.3-1.4c-0.2-1-0.3-2-0.2-3C104,103.1,103.7,103.1,103.7,103.3L103.7,103.3z"/>
	</g>
</g>
<g>
	<g>
		<path class="st8" d="M106.6,107.7c-0.2,0.4,0.1,0.8,0.5,1c0.5,0.2,1,0,1.3-0.4c0.4-0.4,0.7-1,1-1.5c0.4-0.6,0.8-1.2,1.1-1.8
			c0.1-0.2-0.2-0.4-0.3-0.2c-0.6,0.9-1.2,1.9-1.8,2.8c-0.2,0.3-0.5,0.7-0.9,0.8c-0.3,0-0.8-0.2-0.6-0.6
			C107,107.7,106.7,107.5,106.6,107.7L106.6,107.7z"/>
	</g>
</g>
<g>
	<g>
		<path class="st8" d="M105.9,108.6c-0.4-0.6-0.5-1.5-0.1-2.1c0.1-0.2-0.2-0.4-0.3-0.2c-0.4,0.8-0.4,1.8,0.1,2.5
			C105.7,108.9,106,108.7,105.9,108.6L105.9,108.6z"/>
	</g>
</g>
<g>
	<g>
		<path class="st8" d="M107.9,108.5c0-0.5,0.1-0.9,0.1-1.4c0-0.1-0.1-0.2-0.2-0.2c-0.1,0-0.2,0.1-0.2,0.2c0,0.5-0.1,0.9-0.1,1.4
			c0,0.1,0.1,0.2,0.2,0.2C107.8,108.6,107.9,108.6,107.9,108.5L107.9,108.5z"/>
	</g>
</g>
<g>
	<g>
		<path class="st8" d="M126.8,66.2c-1.6-1.8-4.2-2.8-6.6-2.5c-0.4,0.1-0.5,0.8,0,0.7c2.3-0.3,4.6,0.6,6.1,2.2
			C126.6,67.1,127.1,66.6,126.8,66.2L126.8,66.2z"/>
	</g>
</g>
<g>
	<g>
		<path class="st8" d="M133.6,81.1c-0.1,0.4-0.2,0.8-0.3,1.2c0,0.1,0,0.3,0.1,0.4c0.1,0.1,0.2,0.2,0.3,0.2c0.1,0,0.3,0,0.4-0.1
			c0.1-0.1,0.2-0.2,0.2-0.3c0.1-0.4,0.2-0.8,0.3-1.2c0-0.1,0-0.3-0.1-0.4c-0.1-0.1-0.2-0.2-0.3-0.2c-0.1,0-0.3,0-0.4,0.1
			C133.7,80.9,133.6,81,133.6,81.1L133.6,81.1z"/>
	</g>
</g>
<g>
	<g>
		<path class="st8" d="M134.2,81.5c-0.1,0.3-0.1,0.5,0,0.8c0.1,0.3,0.2,0.5,0.4,0.7c0.1,0.1,0.2,0.2,0.4,0.2c0.1,0,0.3-0.1,0.4-0.2
			c0.1-0.1,0.2-0.2,0.2-0.4c0,0,0-0.1,0-0.1c0-0.1-0.1-0.2-0.1-0.2c0,0,0,0,0,0c0,0,0.1,0.1,0.1,0.1c-0.1-0.1-0.1-0.2-0.1-0.2
			c0,0,0,0.1,0.1,0.1c0-0.1-0.1-0.2-0.1-0.3c0,0,0,0.1,0,0.1c0-0.1,0-0.2,0-0.3c0,0,0,0.1,0,0.1c0,0,0-0.1,0-0.1
			c0-0.1,0-0.3-0.1-0.4c-0.1-0.1-0.2-0.2-0.3-0.2c-0.1,0-0.3,0-0.4,0.1C134.3,81.2,134.2,81.3,134.2,81.5L134.2,81.5z"/>
	</g>
</g>
<g>
	<g>
		<path class="st8" d="M134.5,81.4c0.2,0.1,0.4,0.2,0.5,0.3c0,0,0,0,0.1,0c0,0,0.1,0.1,0,0c-0.1-0.1,0,0,0,0c0,0,0,0,0.1,0.1
			c0.1,0.1,0.2,0.1,0.2,0.2c0.1,0.1,0.1,0.1,0.2,0.2c0,0,0.1,0.1,0.1,0.1c0,0,0,0,0.1,0.1c0,0,0,0,0-0.1c0,0,0,0,0,0
			c0.1,0.2,0.2,0.3,0.3,0.5c0.1,0.2,0.5,0.3,0.7,0.2c0.2-0.2,0.3-0.5,0.2-0.7c-0.4-0.8-1.1-1.5-2-1.9c-0.1-0.1-0.3-0.1-0.4-0.1
			c-0.1,0-0.3,0.1-0.3,0.2C134.2,80.9,134.2,81.2,134.5,81.4L134.5,81.4z"/>
	</g>
</g>
<g>
	<g>
		<path class="st8" d="M108,77.3c1.9,0.3,4-0.3,5.4-1.6c0.2-0.2-0.1-0.4-0.3-0.3c-1.4,1.2-3.3,1.8-5.1,1.5
			C107.9,76.9,107.8,77.2,108,77.3L108,77.3z"/>
	</g>
</g>
<g>
	<g>
		<path class="st8" d="M96.3,67.6c0,1.6,0.5,3.2,1.6,4.4c0.1,0.2,0.4-0.1,0.3-0.3c-1-1.2-1.5-2.7-1.5-4.2
			C96.6,67.4,96.3,67.4,96.3,67.6L96.3,67.6z"/>
	</g>
</g>
<g>
	<g>
		<path class="st8" d="M101.8,107.7c-0.7-1.3-1.4-2.5-2.2-3.7c-0.1-0.2-0.4,0-0.3,0.2c0.8,1.2,1.5,2.4,2.2,3.7
			C101.6,108,101.9,107.9,101.8,107.7L101.8,107.7z"/>
	</g>
</g>
<g>
	<g>
		<path class="st8" d="M100.2,108c-0.2-0.2-0.4-0.4-0.6-0.6c-0.1-0.1-0.2-0.1-0.3,0c-0.1,0.1-0.1,0.2,0,0.3c0.2,0.2,0.4,0.4,0.6,0.6
			c0.1,0.1,0.2,0.1,0.3,0C100.3,108.2,100.3,108.1,100.2,108L100.2,108z"/>
	</g>
</g>
<g>
	<g>
		<path class="st8" d="M114.2,108.8c1.1-1.6,2.5-3,4.1-4.1c0.2-0.1,0-0.4-0.2-0.3c-1.7,1.1-3.1,2.6-4.3,4.2
			C113.7,108.8,114,108.9,114.2,108.8L114.2,108.8z"/>
	</g>
</g>
<g>
	<g>
		<path class="st8" d="M116.2,109.3c0.3-0.2,0.5-0.4,0.8-0.6c0,0,0.1-0.1,0.1-0.1c0,0,0-0.1,0-0.1c0-0.1-0.2-0.1-0.2-0.1
			c-0.3,0.2-0.5,0.4-0.8,0.6c0,0-0.1,0.1-0.1,0.1c0,0,0,0.1,0,0.1C116,109.3,116.1,109.3,116.2,109.3L116.2,109.3z"/>
	</g>
</g>
<g>
	<g>
		<path class="st8" d="M70.7,94c1,0.4,2,0.6,3,0.7c1.2,0.2,2.3,0.4,3.5,0.6c0.1,0,0.2,0,0.2-0.2c0-0.5,0.1-0.8,0.4-1.1
			c-0.1,0-0.2,0-0.3,0c0.3,0.5,0.6,0.9,0.9,1.4c0.1,0.1,0.3,0.1,0.3,0c0.2-1.6,0.5-3.2,0.7-4.8c-0.1,0-0.2,0-0.3,0
			c0.4,1.4,0.7,2.7,0.7,4.2c0,0.2,0.2,0.2,0.3,0.1c1.2-2.2,2.9-4,5-5.4c-0.1-0.1-0.1-0.2-0.2-0.3c-1.5,1.6-3,3.4-3,5.7
			c0,0.2,0.4,0.2,0.4,0c0-2.2,1.5-3.9,2.9-5.5c0.1-0.1,0-0.4-0.2-0.3c-2.1,1.4-3.8,3.3-5.1,5.5c0.1,0,0.2,0.1,0.3,0.1
			c0-1.5-0.3-2.9-0.7-4.3c0-0.1-0.3-0.2-0.3,0c-0.2,1.6-0.5,3.2-0.7,4.8c0.1,0,0.2,0,0.3,0c-0.3-0.5-0.6-1-0.9-1.4
			c-0.1-0.1-0.2-0.1-0.3,0c-0.4,0.4-0.5,0.9-0.5,1.4c0.1-0.1,0.1-0.1,0.2-0.2c-1.1-0.2-2.2-0.3-3.2-0.5c-1.1-0.2-2.2-0.3-3.2-0.7
			C70.6,93.6,70.4,93.9,70.7,94L70.7,94z"/>
	</g>
</g>
<g>
	<g>
		<path class="st8" d="M123.6,96.5c0.7,0.2,1.5-0.2,1.9-0.8c0.5-0.7,0.6-1.7,0.7-2.6c-0.1,0-0.2,0.1-0.3,0.1
			c0.7,0.7,1.1,1.6,1.2,2.6c0,0.1,0.1,0.2,0.2,0.2c0.3,0,0.6-0.1,0.8-0.4c-0.1,0-0.2,0-0.3,0c1,1.8,3.4-0.1,4.8,0.3
			c0.2,0.1,0.3-0.3,0.1-0.3c-0.9-0.2-1.7,0.2-2.6,0.4c-0.7,0.2-1.7,0.2-2-0.5c-0.1-0.1-0.2-0.1-0.3,0c-0.1,0.2-0.3,0.3-0.6,0.3
			c0.1,0.1,0.1,0.1,0.2,0.2c0-1.1-0.5-2.1-1.3-2.9c-0.1-0.1-0.3,0-0.3,0.1c0,0.7-0.1,1.5-0.4,2.1c-0.3,0.6-1,1-1.7,0.9
			C123.4,96.1,123.3,96.5,123.6,96.5L123.6,96.5z"/>
	</g>
</g>
<g>
	<g>
		<path class="st8" d="M88.4,108.5c-2.9-0.3-5.9,0.1-8.6,1.1c-0.1,0-0.2,0.2-0.1,0.3c0.8,1.1,2.3,1.4,3.6,1.7
			c1.7,0.3,3.4,0.4,5.1,0.2c0.8-0.1,1.7-0.2,2.5-0.5c0.4-0.1,0.7-0.4,0.5-0.8c-0.3-0.5-1-0.9-1.5-1.2c-0.7-0.4-1.4-0.6-2.1-0.8
			c-0.2,0-0.3,0.3-0.1,0.3c0.6,0.1,1.2,0.3,1.7,0.6c0.5,0.2,1.2,0.6,1.5,1c0.4,0.6-0.2,0.6-0.6,0.7c-0.3,0.1-0.6,0.2-0.9,0.2
			c-0.7,0.1-1.4,0.2-2.1,0.3c-1.3,0.1-2.6,0-3.9-0.3c-1.1-0.2-2.6-0.5-3.3-1.5c0,0.1-0.1,0.2-0.1,0.3c2.7-1,5.6-1.4,8.5-1.1
			C88.6,108.9,88.6,108.5,88.4,108.5L88.4,108.5z"/>
	</g>
</g>
<g>
	<g>
		<path class="st8" d="M92.1,108.9c0.7,0.3,1.6,0.4,2.3,0.1c0.2-0.1,0.3-0.1,0.4-0.3c0.1-0.2,0-0.3-0.2-0.4
			c-0.1-0.1-0.3-0.1-0.5-0.2c-0.2,0-0.4-0.1-0.6-0.1c-0.5,0-1,0-1.4,0.1c-0.2,0-0.2,0.2,0,0.3c0.4,0.2,0.8,0.3,1.2,0.3
			c0.2,0,0.2-0.4,0-0.4c-0.4,0-0.7-0.1-1-0.2c0,0.1,0,0.2,0,0.3c0.4-0.1,0.9-0.1,1.3-0.1c0.2,0,0.4,0.1,0.6,0.1
			c0.1,0,0.4,0.1,0.4,0.2c0,0.1-0.4,0.2-0.4,0.2c-0.2,0-0.4,0.1-0.6,0.1c-0.4,0-0.8-0.1-1.2-0.2C92,108.5,91.9,108.8,92.1,108.9
			L92.1,108.9z"/>
	</g>
</g>
<g>
	<g>
		<path class="st8" d="M66.7,28.6C63,21.9,55,18.6,47.6,18.7c-2.6,0-5.2,0.4-7.8,0.7c-2.5,0.3-5,0.3-7.4,0.9
			c-4.1,0.9-7.8,3.1-10.6,6.2c-4.9,5.5-6.1,13.1-6.2,20.2c-0.1,8.5,1.2,16.9,0.8,25.5c-0.2,5.6-1.3,11.4-0.4,17
			c0.8,4.9,3.1,9.2,6.4,12.8c0.3,0.3,0.8-0.2,0.5-0.5c-3-3.2-5.1-7-6-11.3c-1-4.7-0.3-9.6,0-14.4c0.3-4.8,0.4-9.6,0.1-14.4
			c-0.2-3.5-0.5-6.9-0.7-10.4c-0.3-6.9,0-14.4,3.5-20.6c1.9-3.4,4.9-6.2,8.4-7.9c4.5-2.1,9.8-2.1,14.6-2.6c4.5-0.5,8.9-0.5,13.2,1.1
			c4.1,1.5,7.8,4.2,10,8.1C66.3,29.4,66.9,29,66.7,28.6L66.7,28.6z"/>
	</g>
</g>
<g>
	<g>
		<path class="st8" d="M27.8,105.3c4.6,2.9,10.6,2.9,15.8,2.4c2.7-0.2,5.4-0.6,8-1.1c2.9-0.5,6.1-0.7,8.6-2.3c0.4-0.2,0-0.9-0.4-0.6
			c-2.4,1.5-5.6,1.8-8.4,2.2c-2.6,0.4-5.2,0.8-7.8,1.1c-5.1,0.4-10.9,0.5-15.5-2.3C27.8,104.5,27.5,105.1,27.8,105.3L27.8,105.3z"/>
	</g>
</g>
<g>
	<g>
		<path class="st8" d="M34.2,20.6c0.5,0,0.5-0.7,0-0.7C33.7,19.9,33.7,20.6,34.2,20.6L34.2,20.6z"/>
	</g>
</g>
<g>
	<g>
		<path class="st8" d="M17,35.6c-3-0.2-5.6-2.8-5-6c0.5-2.8,3.3-4.9,6-5.1c1.5-0.1,3.5-0.1,4.5,1.2c0.3,0.4,0.8-0.1,0.5-0.5
			c-1.1-1.3-2.8-1.5-4.4-1.5c-1.7,0-3.3,0.5-4.6,1.5c-2.6,1.9-3.8,5.7-1.7,8.5c1.1,1.5,2.9,2.4,4.8,2.5C17.5,36.3,17.5,35.6,17,35.6
			L17,35.6z"/>
	</g>
</g>
<g>
	<g>
		<path class="st8" d="M62.9,24.4c1.2-0.6,2.6-1,4-1.2c1.4-0.2,2.9-0.1,4.1,0.6c2.4,1.3,3.1,4.8,2.2,7.2c-0.6,1.6-2.1,3-3.9,3.2
			c-0.4,0.1-0.3,0.7,0.2,0.7c1.7-0.2,3.2-1.5,4-2.9c0.7-1.3,0.9-2.9,0.6-4.3c-0.2-1.5-0.9-3-2.1-4c-1.2-1-2.8-1.3-4.3-1.3
			c-1.8,0.1-3.6,0.5-5.1,1.4C62.1,24,62.4,24.6,62.9,24.4L62.9,24.4z"/>
	</g>
</g>
<g>
	<g>
		<path class="st8" d="M39.6,40.5c0.1,0,0.1,0,0.2,0c0-0.1,0-0.2,0-0.3c-0.2,0.1-0.5,0.1-0.8,0.2c-0.4,0.2-0.8,0.5-1.2,0.8
			c-0.7,0.6-1.4,1.3-1.8,2.1c-0.9,2.2,2,3.2,3.7,3c1.3-0.2,2.5-0.8,3.8-0.9c1.2-0.1,2.2,0.3,3.3,0.6c0.8,0.2,1.7,0.4,2.4-0.2
			c0.7-0.5,1.1-1.5,0.9-2.4c-0.3-2.1-2.9-3.1-4.6-3.8c-0.2-0.1-0.3,0.3-0.1,0.3c1.5,0.5,3.3,1.3,4.1,2.8c0.5,0.9,0.3,2-0.5,2.7
			c-0.7,0.6-1.8,0.3-2.6,0.1C45.8,45.3,45,45,44.2,45c-1.1,0-2.1,0.3-3.1,0.6c-1.2,0.3-2.4,0.6-3.5,0.1c-0.9-0.4-1.6-1.1-1.3-2.1
			c0.3-0.9,1.2-1.7,1.9-2.3c0.3-0.2,0.6-0.5,0.9-0.6c0.2-0.1,0.5-0.1,0.7-0.2c0.1-0.1,0.1-0.3,0-0.3c-0.1,0-0.3,0-0.4,0
			C39.2,40.2,39.3,40.5,39.6,40.5L39.6,40.5z"/>
	</g>
</g>
<g>
	<g>
		<path class="st8" d="M46.3,45.9c0.3,0.7,0.5,1.5,0.5,2.3c0,0.7,0,1.6-0.5,2.2c-0.4,0.5-1.3,0.8-1.9,0.5c-0.5-0.2-0.7-0.9-0.9-1.4
			c-0.1-0.2-0.4,0-0.3,0.2c0.2,0.4,0.4,1,0.8,1.3c0.4,0.4,1.1,0.4,1.6,0.3c0.6-0.2,1.1-0.6,1.4-1.1c0.3-0.6,0.3-1.3,0.3-2
			c0-0.8-0.2-1.6-0.5-2.4C46.6,45.6,46.2,45.6,46.3,45.9L46.3,45.9z"/>
	</g>
</g>
<g>
	<g>
		<path class="st8" d="M22.8,101.9c2.4-1.3,3.8,2,5.5,3.1c0-0.1,0.1-0.2,0.1-0.3c-2.6,0.3-4.1,3-6.5,3.7c-1.2,0.3-2.7-0.5-3-1.7
			c-0.3-1.1,0.7-2.2,1.4-2.9c1-0.9,2.1-1.6,3.3-2.1c0.2-0.1,0-0.4-0.2-0.3c-1.1,0.6-2.2,1.2-3.1,2c-0.8,0.7-1.8,1.7-1.8,2.9
			c0,1.2,1.2,2.3,2.3,2.5c1.2,0.2,2.4-0.6,3.4-1.3c1.2-0.9,2.6-2.2,4.2-2.4c0.2,0,0.2-0.2,0.1-0.3c-1.9-1.2-3.2-4.5-5.8-3.1
			C22.4,101.7,22.6,102,22.8,101.9L22.8,101.9z"/>
	</g>
</g>
<g>
	<g>
		<path class="st8" d="M19.9,107.9c-0.5-1.4,0.7-2.6,1.9-3.2c0.2-0.1,0-0.4-0.2-0.3c-1.3,0.7-2.5,2-2,3.6
			C19.7,108.2,20,108.1,19.9,107.9L19.9,107.9z"/>
	</g>
</g>
<g>
	<g>
		<path class="st8" d="M64.8,107.8c-1.4-0.8-2.2-2.2-3.3-3.2c-0.2-0.2-0.5-0.4-0.7-0.5c-0.4-0.3-0.4-0.6-0.1-1
			c0.4-0.6,1.2-1.2,1.9-1.5c0.8-0.4,1.7-0.6,2.6-0.4c0.8,0.2,1.5,0.7,2,1.3c0.9,1,1.6,2.6,1.5,4c-0.1,0.8-0.6,1.5-1.5,1.7
			C66.3,108.3,65.5,108.1,64.8,107.8c-0.2-0.1-0.4,0.2-0.2,0.3c1.3,0.7,3.2,0.8,4-0.6c0.8-1.5,0.1-3.4-0.8-4.6c-1-1.4-2.7-2.5-4.5-2
			c-0.9,0.2-1.7,0.8-2.4,1.4c-0.5,0.4-1.1,1.2-0.7,1.8c0.2,0.3,0.6,0.5,0.9,0.7c0.4,0.4,0.8,0.8,1.1,1.2c0.7,0.8,1.4,1.6,2.3,2.1
			C64.8,108.2,65,107.9,64.8,107.8z"/>
	</g>
</g>
<g>
	<g>
		<path class="st8" d="M65.6,104.5c0.9,0.9,1.7,2.2,1.7,3.6c0,0.2,0.4,0.2,0.4,0c0-1.4-0.8-2.8-1.8-3.8
			C65.7,104.1,65.4,104.3,65.6,104.5L65.6,104.5z"/>
	</g>
</g>
<path class="st9" d="M61.9,31.7c0-4.6-3.8-8.4-8.4-8.4c-4.6,0-8.4,3.8-8.4,8.4c0,4.6,3.8,8.4,8.4,8.4C58.1,40.1,61.9,36.4,61.9,31.7
	z"/>
<path class="st9" d="M40.7,32.6c0-4.6-3.8-8.4-8.4-8.4c-4.6,0-8.4,3.8-8.4,8.4c0,4.6,3.8,8.4,8.4,8.4C37,41,40.7,37.3,40.7,32.6z"/>
<path class="st8" d="M69.6,28.4c0-1-0.8-1.8-1.8-1.8c-1,0-1.8,0.8-1.8,1.8c0,1,0.8,1.8,1.8,1.8C68.8,30.2,69.6,29.4,69.6,28.4z"/>
<path class="st8" d="M19.6,30c0-1-0.8-1.8-1.8-1.8c-1,0-1.8,0.8-1.8,1.8c0,1,0.8,1.8,1.8,1.8C18.8,31.8,19.6,31,19.6,30z"/>
<path class="st8" d="M46.7,39.5c0-1.2-1.7-2.1-3.8-2.1c-2.1,0-3.8,0.9-3.8,2.1c0,1.2,1.7,2.1,3.8,2.1C45,41.6,46.7,40.6,46.7,39.5z"
	/>
<path class="st8" d="M58.1,31.9c-1.5,0-2.7,1.2-2.7,2.8c0,1.5,1.2,2.8,2.7,2.8c1.5,0,2.8-1.2,2.8-2.8C60.9,33.1,59.6,31.9,58.1,31.9
	z M59.2,36.4c-0.4,0-0.8-0.3-0.8-0.8c0-0.4,0.3-0.8,0.8-0.8c0.4,0,0.8,0.3,0.8,0.8C60,36,59.7,36.4,59.2,36.4z"/>
<path class="st8" d="M37.1,32.1c-1.5,0-2.7,1.2-2.7,2.7c0,1.5,1.2,2.8,2.7,2.8c1.5,0,2.8-1.2,2.8-2.8C39.9,33.3,38.6,32.1,37.1,32.1
	z M38.2,36.6c-0.4,0-0.8-0.3-0.8-0.8c0-0.4,0.3-0.8,0.8-0.8c0.4,0,0.8,0.3,0.8,0.8C39,36.2,38.7,36.6,38.2,36.6z"/>
<g>
	<g>
		<path class="st8" d="M43.1,45.3c0.1,0.5,0.1,1.1,0.1,1.6c0,0.6,0,1.2,0,1.8c-0.1,0.8-0.3,2-1.1,2.4c-0.7,0.3-1.6,0-1.9-0.6
			c-0.4-0.6-0.4-1.4-0.4-2.1c0-0.8,0.1-1.5,0.3-2.3c0.1-0.2-0.3-0.3-0.3-0.1c-0.2,0.7-0.3,1.5-0.3,2.3c0,0.8,0.1,1.7,0.5,2.4
			c0.4,0.7,1.3,1,2.1,0.8c0.9-0.2,1.3-1.1,1.5-2c0.2-0.8,0.1-1.5,0.1-2.3c0-0.6,0.1-1.3-0.1-1.9C43.4,45,43.1,45.1,43.1,45.3
			L43.1,45.3z"/>
	</g>
</g>
<g>
	<g>
		<path class="st8" d="M70.9,76.1c0.1,4.3,0.4,8.6-0.3,12.8c-0.3,2.1-0.9,4.2-1.8,6.1c-1,2-2.4,3.7-3.4,5.7
			c-0.2,0.4,0.4,0.8,0.6,0.4c1.1-2,2.6-3.8,3.5-5.9c0.9-1.9,1.4-4,1.8-6.1c0.7-4.3,0.4-8.7,0.3-13C71.6,75.6,70.8,75.6,70.9,76.1
			L70.9,76.1z"/>
	</g>
</g>
<g>
	<g>
		<path class="st8" d="M65.6,28c5.2,7.7,4.6,17.7,4.6,26.6c0,0.5,0.7,0.5,0.7,0c0-9,0.6-19.2-4.7-26.9C66,27.3,65.4,27.7,65.6,28
			L65.6,28z"/>
	</g>
</g>
<g>
	<g>
		<path class="st8" d="M60.1,104.1c0,0,0.1,0,0.1,0c0,0,0,0,0.1,0c0,0,0,0,0.1,0c0,0,0,0,0-0.1c0,0,0,0,0-0.1c0,0,0-0.1-0.1-0.1
			c0,0-0.1-0.1-0.1-0.1c0,0,0,0,0,0c0,0-0.1,0-0.1,0c0,0,0,0-0.1,0.1c0,0,0,0,0,0.1c0,0,0,0,0,0c0,0,0,0,0,0c0,0,0,0,0,0
			c0,0,0,0,0,0c0,0,0,0,0,0c0,0,0,0,0,0c0,0,0,0,0,0c0,0,0,0,0,0c0.1,0.1,0.1,0.1,0.2,0.2c0-0.1,0-0.1,0.1-0.2
			c-0.1,0-0.2,0.1-0.3,0.1C60.1,104,60.2,104.1,60.1,104.1c0.1,0.1,0.1,0.1,0.1,0.1c0,0,0,0,0.1,0c0,0,0,0,0.1,0c0,0,0,0,0.1,0
			c0,0,0.1-0.1,0.1-0.1c0,0,0-0.1-0.1-0.1c-0.1-0.1-0.1-0.1-0.2-0.2c0,0-0.1-0.1-0.2,0c0,0-0.1,0-0.1,0c0,0,0,0,0,0.1
			c0,0.1,0,0.1-0.1,0.2c0,0,0,0.1,0,0.1c0,0,0,0,0,0.1C60,104.1,60,104.1,60.1,104.1c-0.1,0.1,0,0.1,0,0.1c0,0,0,0,0,0
			C60.2,104.2,60.2,104.2,60.1,104.1C60.2,104.2,60.2,104.2,60.1,104.1c0.1,0.1,0.1,0.1,0.1,0.1c0,0,0,0,0.1,0c0,0,0,0,0-0.1
			c0,0,0,0,0-0.1c-0.1,0-0.1,0.1-0.2,0.1c0,0,0,0,0,0c0,0,0,0,0.1,0c0,0,0,0,0.1,0c0,0,0,0,0-0.1c0,0,0,0,0-0.1c0,0,0-0.1-0.1-0.1
			c0,0-0.1-0.1-0.1-0.1c0,0-0.1,0-0.1,0c0,0,0,0-0.1,0c0,0,0,0-0.1,0c0,0,0,0,0,0.1c0,0,0,0,0,0.1c0,0,0,0.1,0.1,0.1
			C60,104.1,60.1,104.1,60.1,104.1L60.1,104.1z"/>
	</g>
</g>
<path class="st10" d="M69.3,69.2l-2.7-7l-4-7.3l-3,1l-2.9,2.2L54.9,60l-2.4,3.2l-1.3,3l-0.1,1.9c0.2-0.2,0.5-0.3,0.8-0.3
	c0.2-0.2,0.5-0.2,0.8-0.2c0.1,0,0.3,0,0.4,0.1c0.1,0,0.2,0,0.4,0c0.4,0.1,0.8,0.5,1,0.9c0.3,0.1,0.7,0.3,0.9,0.6
	c0.1,0.1,0.1,0.1,0.2,0.2c0.2,0.3,0.2,0.8,0.1,1.1c-0.1,0.3-0.3,0.7-0.7,0.8c0,0-0.1,0.1-0.1,0.1c-0.1,0.1-0.2,0.2-0.4,0.3
	c-0.1,0.1-0.2,0.2-0.3,0.2l0.1,0.1l2.2,1.1c0.4,0.1,0.9,0.3,1.3,0.5l6.1,0.4c0.7-0.1,1.5-0.2,2.2-0.4l1.9-0.7l1.9-1L69.3,69.2z"/>
<path class="st11" d="M74.7,63.9l-1.3-4.4l-1.9-3.5l-2.9-2.7l-4-0.8l-4,1.5l2.2,0.9l2.7,4.6l3.3,7.7l1.2,3c0.2,0.2,0.3,0.5,0.3,0.8
	c-0.1,0.6,0,1.3-0.1,1.9c0,0.2-0.1,0.3-0.2,0.4l2.1-1l1.5-2.2l1.4-3.4L74.7,63.9z"/>
<polygon class="st11" points="73,58 74.7,56.3 75.9,55.1 76.7,56.3 77.5,58 77.6,58.3 75.9,58.3 74.8,58.6 73.8,59.4 73.3,59.4 
	72.7,58.2 "/>
<polygon class="st4" points="59.7,55.9 59.7,54.7 60.4,54 61.6,54.2 62.6,54.9 61.2,55.3 "/>
<g>
	<g>
		<path class="st8" d="M62.6,54.6c-3.1,0.6-5.6,2.7-7.7,5c-2.1,2.3-4.1,4.9-4.3,8.1c0,0.5,0.7,0.5,0.7,0c0.2-3.1,2.2-5.6,4.2-7.7
			c2-2.2,4.3-4,7.3-4.7C63.2,55.1,63,54.5,62.6,54.6L62.6,54.6z"/>
	</g>
</g>
<g>
	<g>
		<path class="st8" d="M54.5,72.6c4.8,2.6,10.7,2.5,15.4-0.3c0.4-0.2,0-0.8-0.4-0.6c-4.5,2.6-10.1,2.7-14.7,0.3
			C54.5,71.8,54.1,72.4,54.5,72.6L54.5,72.6z"/>
	</g>
</g>
<g>
	<g>
		<path class="st8" d="M60,55.7c-0.3-0.5,0.1-1.1,0.7-1.3c0.6-0.2,1.2,0.2,1.6,0.6c0.6,0.6,1.1,1.5,1.5,2.3c1,1.7,1.9,3.5,2.7,5.3
			c0.8,1.8,1.6,3.7,2.2,5.7c0.3,0.9,0.6,1.8,0.8,2.7c0.2,0.6,0.4,1.3,0,1.9c-0.2,0.4-1.2,0.8-1.3,0c-0.1-0.4-0.7-0.3-0.7,0.2
			c0.1,0.8,0.9,1.1,1.7,0.9c1-0.3,1.2-1.3,1.1-2.2c-0.2-1.6-0.9-3.2-1.4-4.7c-0.5-1.5-1.1-3-1.8-4.5c-0.7-1.6-1.4-3.1-2.3-4.6
			c-0.7-1.2-1.3-2.7-2.4-3.7c-0.7-0.6-1.7-0.9-2.6-0.4c-0.7,0.5-1.1,1.3-0.6,2.1C59.6,56.4,60.2,56.1,60,55.7L60,55.7z"/>
	</g>
</g>
<g>
	<g>
		<path class="st8" d="M73.6,59.7c1.1-0.9,2.5-1.3,3.9-1c0.2,0,0.5-0.2,0.4-0.4c-0.4-1.2-1-2.3-1.7-3.3c-0.1-0.2-0.4-0.2-0.6-0.1
			c-1.1,1.1-2.1,2.1-3.2,3.2c-0.3,0.3,0.2,0.8,0.5,0.5c1.1-1.1,2.1-2.1,3.2-3.2c-0.2,0-0.4,0-0.6-0.1c0.7,1,1.3,2,1.6,3.1
			c0.1-0.1,0.3-0.3,0.4-0.4c-1.6-0.3-3.3,0.2-4.6,1.2c-0.1,0.1-0.1,0.4,0,0.5C73.2,59.8,73.4,59.8,73.6,59.7L73.6,59.7z"/>
	</g>
</g>
<g>
	<g>
		<path class="st8" d="M69.1,74c2.7-0.5,4.7-2.7,5.6-5.2c1.1-3.2,0.2-6.6-1.1-9.5c-1.3-2.8-2.8-5.7-5.9-6.8
			c-2.5-0.9-5.3-0.4-7.4,1.2c-0.4,0.3,0.1,0.8,0.5,0.5c2-1.5,4.7-1.8,7-1c2.7,1,4.1,3.8,5.3,6.3c1.2,2.7,2,5.8,1.2,8.7
			c-0.7,2.4-2.6,4.5-5.2,5C68.5,73.3,68.7,74,69.1,74L69.1,74z"/>
	</g>
</g>
<g>
	<g>
		<path class="st8" d="M52.9,67.6c1.9-2.1,4.3-3.6,7-4.2c0.4-0.1,0.3-0.8-0.2-0.7c-2.8,0.7-5.4,2.2-7.3,4.4
			C52.1,67.5,52.6,68,52.9,67.6L52.9,67.6z"/>
	</g>
</g>
<g>
	<g>
		<path class="st8" d="M67.2,73.8c1,1.5,2.8,2.3,4.5,2.3c0.9,0,1.8-0.2,2.5-0.8c0.8-0.5,1.5-1.3,1.4-2.3c-0.1-1.1-1.2-1.9-2.2-2.2
			c-0.2-0.1-0.3,0.3-0.1,0.3c1.1,0.3,2.4,1.6,1.7,2.8c-0.5,0.9-1.5,1.5-2.5,1.7c-1.9,0.4-4.1-0.4-5.2-2.1
			C67.4,73.4,67.1,73.6,67.2,73.8L67.2,73.8z"/>
	</g>
</g>
<g>
	<g>
		<path class="st8" d="M72.2,73.5c0.6,0.3,1.3,0.4,1.9,0.3c0.7-0.1,1.2-0.6,1.4-1.2c0.1-0.2-0.3-0.3-0.3-0.1
			c-0.4,1.2-1.8,1.2-2.8,0.7C72.2,73.1,72,73.4,72.2,73.5L72.2,73.5z"/>
	</g>
</g>
<g>
	<g>
		<path class="st8" d="M48.2,73.7c1.7,0.3,3.5-0.2,5-1c0.6-0.3,1.2-0.7,1.8-1.2c0.4-0.4,0.8-0.9,0.9-1.4c0.1-0.7-0.5-1.2-1.1-1.4
			c-0.2-0.1-0.3,0.3-0.1,0.3c0.3,0.1,0.8,0.4,0.9,0.8c0.1,0.3,0,0.6-0.2,0.8c-0.4,0.6-1,1.1-1.5,1.4c-1.6,1-3.6,1.7-5.5,1.4
			C48,73.3,47.9,73.6,48.2,73.7L48.2,73.7z"/>
	</g>
</g>
<g>
	<g>
		<path class="st8" d="M53,70.1c0.6-0.2,1.2-0.6,1.5-1.2c0.3-0.6,0-1.1-0.6-1.3c-1.4-0.7-3,0.2-4.2,1c-0.6,0.4-1.2,0.9-1.7,1.5
			c-0.1,0.2,0.1,0.4,0.3,0.3c0.8-0.9,1.9-1.7,3-2.2c0.5-0.3,1.2-0.5,1.8-0.4c0.4,0,1.3,0.3,1.2,0.9c-0.1,0.6-0.9,1-1.4,1.2
			C52.7,69.8,52.7,70.2,53,70.1L53,70.1z"/>
	</g>
</g>
<g>
	<g>
		<path class="st8" d="M82.6,95.1c1.4,0.2,2.8,0.1,4.1-0.2c0.7-0.2,1.3-0.4,2-0.7c0.7-0.3,2.3-0.7,2.3,0.6c0,0.2,0.3,0.3,0.3,0.1
			c0.4-0.8,0.8-1.7,1.2-2.5c-0.1,0-0.2-0.1-0.3-0.1c0,1.4,1.3,2.5,2.7,2.3c0.2,0,0.1-0.4-0.1-0.3c-1.2,0.2-2.3-0.8-2.3-1.9
			c0-0.2-0.3-0.3-0.3-0.1c-0.4,0.8-0.8,1.7-1.2,2.5c0.1,0,0.2,0.1,0.3,0.1c0-0.5-0.3-0.9-0.8-1.1c-0.8-0.3-1.6,0.1-2.3,0.4
			c-1.8,0.7-3.7,1-5.7,0.8C82.4,94.7,82.4,95.1,82.6,95.1L82.6,95.1z"/>
	</g>
</g>
<g>
	<g>
		<path class="st8" d="M17.6,94.5c-0.9-0.4-1.9-0.2-2.8,0.3c-0.4,0.2-1.7,1.5-1.7,0.3c0-0.3,0.1-0.6,0.2-0.9c0.1-0.3,0.2-0.7,0.4-1
			c0-0.1-0.1-0.2-0.2-0.2c-1.2,0-1.9,1-2.5,2c-0.1,0.2-0.3,0.8-0.5,0.9c-0.4,0.2-0.8-0.1-1.2-0.2c-0.6-0.2-1.1-0.2-1.7,0
			C7.3,95.7,7.4,96,7.7,96c0.8-0.2,1.4,0,2.1,0.3c0.4,0.2,0.6,0.2,0.9-0.2c0.8-1,1.2-2.8,2.8-2.8c-0.1-0.1-0.1-0.1-0.2-0.2
			c-0.3,0.6-1.3,3,0.2,2.8c0.6,0,1-0.6,1.5-0.9c0.7-0.4,1.6-0.6,2.4-0.3C17.6,94.9,17.8,94.6,17.6,94.5L17.6,94.5z"/>
	</g>
</g>
<g>
	<g>
		<path class="st8" d="M43.7,122.3c1.9-2.3,2.9-5.2,2.8-8.2c-0.1,0-0.2,0-0.3,0c0.6,2.6,1.2,5.3,1.9,7.9c0,0.1,0.3,0.2,0.3,0
			c0.4-0.8,0.8-1.6,1.1-2.4c-0.1,0-0.2-0.1-0.3-0.1c0.1,0.8,0.2,1.8,1.1,2.1c0.6,0.2,1.2,0,1.4-0.6c-0.1,0-0.2,0.1-0.3,0.1
			c1.4,1.3,3.4,1.1,5.2,1c2.5-0.1,5.1-0.5,7.6-1c0.2,0,0.1-0.4-0.1-0.3c-2.2,0.5-4.4,0.8-6.7,0.9c-1.8,0.1-4.3,0.5-5.8-0.9
			c-0.1-0.1-0.3-0.1-0.3,0.1c-0.3,1-1.4,0.1-1.6-0.4c-0.1-0.3-0.1-0.7-0.2-1c0-0.2-0.2-0.3-0.3-0.1c-0.4,0.8-0.8,1.6-1.1,2.4
			c0.1,0,0.2,0,0.3,0c-0.7-2.6-1.3-5.2-1.9-7.9c0-0.2-0.4-0.2-0.3,0c0.1,2.9-0.8,5.7-2.7,8C43.3,122.2,43.5,122.5,43.7,122.3
			L43.7,122.3z"/>
	</g>
</g>
<g>
	<g>
		<path class="st8" d="M43.8,121.7c-2.5,0-5.1-0.1-7.6-0.1c-0.2,0-0.2,0.4,0,0.4c2.5,0,5.1,0.1,7.6,0.1
			C44,122.1,44,121.7,43.8,121.7L43.8,121.7z"/>
	</g>
</g>
<circle class="st12" cx="17.8" cy="29.8" r="1.2"/>
<circle class="st12" cx="67.8" cy="28.4" r="1.2"/>
</svg>
