<?xml version="1.0" encoding="utf-8"?>
<!-- Generator: Adobe Illustrator 24.0.1, SVG Export Plug-In . SVG Version: 6.00 Build 0)  -->
<svg version="1.1" id="Layer_1" xmlns="http://www.w3.org/2000/svg" xmlns:xlink="http://www.w3.org/1999/xlink" x="0px" y="0px"
	 viewBox="0 0 141.7 141.7" style="enable-background:new 0 0 141.7 141.7;" xml:space="preserve">
<style type="text/css">
	.st0{fill:#C9E3B1;}
	.st1{opacity:0.27;fill:#FFFFFF;}
	.st2{fill:#75D0ED;}
	.st3{fill:#CAB19D;}
	.st4{fill:#FFFFFF;}
	.st5{fill:#AB685D;}
	.st6{fill:#CC9793;}
	.st7{fill:#8C534D;}
	.st8{fill:#070707;}
	.st9{fill:#F38568;}
	.st10{fill:#EDA796;}
	.st11{fill:none;stroke:#070707;stroke-width:0.437;stroke-miterlimit:10;}
	.st12{fill:#0486B4;}
</style>
<g id="Layer_12">
</g>
<g id="Layer_8">
</g>
<g id="Layer_15">
</g>
<g id="Layer_16">
</g>
<path class="st0" d="M117.6,127.3c0.1-2,3-3.3,3-3.3l-6,1.6l-4,2.3l-3.6-2.3l-1,1.5l-4.9-3.4l3.1,3.5l-4.4,0.4l-5.7,0.2l-2.4,0.2
	l-4.1,0.9l-3.7-1.5l-1.7,1.9l-3.3,0.1l-2.1-1.3l2.1-1.8L80,124l-1.3-2.2l-5-0.7l-6-0.3l-8.3,0.5l-7.4,1.1l-7.1,2.6l-5.9,0.6
	l-3.9-0.6l-4.5,2.6l-4,2.4l-3.6-0.8l-0.9-2.4l0.2-2.1l-2.4-2.3l-4.7-1.9l1.6,2.7v2.4l-1.2-1.3l-1.6,0.3l0.9,1.4l-4.5,0.4l-4.7-0.1
	c0,0,0,0.1,0,0.1c0,0.3-0.1,0.5-0.2,0.7l14,6.8c-5,2.8,2.8,3.3,13,3c0.3-0.4,0.5-0.9,0.7-1.4c0.6-1.8,3.1-1,2.8,0.8
	c0,0.1,0,0.3,0,0.5c0.3,0,0.7,0,1.1,0c0.1-0.3,0.3-0.5,0.4-0.8c0.9-1.2,2.5-0.7,2.7,0.6c5.9-0.3,11.7-0.8,15.9-1.1
	c0.3-1.4,0.6-2.8,0.7-4.2c0-0.1,0-0.1,0-0.2c-0.8-1.4,0.9-3.2,2.2-1.9c0.5,0.5,0.8,1.1,1.1,1.6c0.6,1,1.1,2,1.4,3
	c0,0.1,0.1,0.1,0.1,0.2c0.2-0.3,0.5-0.7,0.7-1c1.1-1.5,3.6-0.1,2.5,1.5c-0.1,0.2-0.3,0.4-0.4,0.6c4.3,0.5,15,1.1,32.6-0.8
	c16.6-1.8,18.6,0.5,18.4,2c0.1,0,0.2,0.1,0.3,0.1c0.1,0,0.2,0.1,0.3,0.1c0.1,0,0.2,0,0.2,0.1l8.4-5.1l7.8-2.6
	c0.1-0.3,0.1-0.6,0.1-0.8C127.4,128.5,117.5,128.8,117.6,127.3z"/>
<g>
	<g>
		<path class="st0" d="M117.4,130.5c1.1-0.4,2.2-0.6,3.3-0.4c0.8,0.1,1-1.3,0.2-1.4c-0.8-0.2-1.6-0.4-2.4-0.6
			c-0.1,0.5-0.1,1-0.2,1.4c3.4,0,6.8,0,10.2,0c0.9,0,0.9-1.4,0-1.5c-3.4-0.1-6.8-0.1-10.2,0c-0.8,0-1,1.2-0.2,1.4
			c0.8,0.2,1.6,0.4,2.4,0.6c0.1-0.5,0.1-1,0.2-1.4c-1.3-0.2-2.5,0-3.7,0.5C116.1,129.4,116.5,130.8,117.4,130.5L117.4,130.5z"/>
	</g>
</g>
<path class="st1" d="M31.8,69c-2.1-1.4-3.9-3.2-5.5-5.2c0,1.1,0,2.3,0,3.5c0.2,0.3,0.4,0.6,0.7,0.9c1.5,2.1,3.3,4,5.3,5.6
	c0.2-1.3,0.4-2.7,0.7-4C32.6,69.6,32.2,69.3,31.8,69z"/>
<path class="st1" d="M31.9,77.9c0-0.3,0-0.5,0.1-0.8c-1.8-1.4-3.6-2.9-5.1-4.6c-0.1-0.1-0.3-0.3-0.4-0.4c0.4,9.1,1.1,18.6,1.1,18.6
	l5.4,1.4C32,87.5,31.6,82.7,31.9,77.9z"/>
<path class="st2" d="M97.9,15.9l-1.2-3.4l-0.8-0.6c0,0,0,0-0.1,0c-0.8-0.3-1.7-0.7-2.4-1.3h-4l-5.7,1.6l-2-0.9l-9.2-4.5l-7.3-1.5H55
	l-7.2,1.3L41,7.5l-6,2.1l-7.2,4.8l-2.9-1.9h-3.1l-3.4,0.1L17,13.8l-2.6,2l-1.6,2.3l-0.7,2.5l0.7,3.9l2.1,2.6l3.4,1.6l2.5,0.2
	l-3.3,17.5l-2,12.6l-1.1,12.6v14.8l3,14.6l5,11.8l4.9,7.8l1.4-0.4l2,0.3l1.8,1.5l2.4,3.1l3.9,0.6l4.7-0.6l6-1.5l6.2-1.7l6.4-1h8.4
	l8.1,1l-2.4-2l-2-3.3l-1.9-4.6l-0.2-4.6l1-2.6l-4-1.7l-1.3,0.9l-2.2-0.7l-2.7-2.4l-1.7-3.1l-1-5.1v-5.3l0.5-4l-1.5-1.1l-2.9,0.3
	l1.1-3.3l0.7-1.3l4.1,4.4l0.4-3l2.2-2.4l1.5-1.8l-0.4-3.8l-0.2-2.1l0.6-3.1l1.3-2.5l2.1-1.6l1.5-2.3l-0.7-2.3l-0.8-3.6l-0.4-2.7
	l1.1-1.5l0.9-2.5l0.3-2.9l0.2-4.9l0.7,0.9l1.1,2.6l1.2,3l2.1,3.8l2.7,2l1.7-0.2l2.6-1l5,0.3l5.1,1.2c1.3-2.5-1.5-25.1-1.5-25.1
	l3.5-1.7L98,23l0.3-3.7L97.9,15.9z"/>
<path class="st3" d="M13.8,65.6c-0.5-0.1-1.1-0.1-1.6,0c-0.1,0-0.1,0-0.2,0l-2.6,0.6c-0.3,0.2-0.7,0.4-1,0.6
	c-0.2,0.2-0.4,0.4-0.7,0.6c-0.1,0.1-0.1,0.1-0.2,0.2l-1.2,1.7l-0.5,1.1l0.4,1.4L7,72.3L7.4,73l1.2,0.9l1.8-0.2l2-1.4l1.1-0.8
	l1.2-1.2l-0.2-4.7C14.2,65.6,14,65.6,13.8,65.6z"/>
<polygon class="st3" points="51.2,35 49.3,36 47.6,37.1 46.7,38.7 46.4,40.8 47.1,41.9 48.8,42.8 50.7,42.8 52.5,42.8 56,41.9 
	57.8,41.8 59.6,42.1 61.5,42.7 63.2,42.7 64.8,41.9 65.4,41 65.8,39.7 65.5,38.5 64,36.8 60.6,34.8 "/>
<circle class="st4" cx="41.1" cy="24.3" r="11.5"/>
<circle class="st4" cx="70.6" cy="23.1" r="11.5"/>
<polygon class="st4" points="51.2,44.6 51.2,46.8 51.7,48.8 52.8,50 54.8,50 55.9,48.9 56.3,47.9 57.3,49.6 58.9,50 60.2,49 
	61.4,47.3 61.5,46.1 61.5,44.6 60.8,42.7 58.8,41.9 56,41.9 54.8,42.1 51.7,42.9 "/>
<g>
	<g>
		<path class="st3" d="M7.6,70.2c-0.1-0.1-0.1-0.2-0.2-0.3c-0.1-0.2-0.2-0.3-0.4-0.3c-0.2,0-0.4,0-0.6,0.1c-0.2,0.1-0.4,0.3-0.5,0.6
			c0.4-0.1,0.9-0.1,1.3-0.2c-0.1-0.1,0,0.2,0,0c0,0.1,0,0.1,0,0.2c0,0,0-0.1,0-0.1c0,0.1,0,0.1,0,0.2c0,0,0-0.1,0-0.1
			c0-0.1,0,0,0,0.1c0-0.1,0.1-0.1,0.1-0.2c0.1-0.1,0.1-0.2,0.2-0.3c0,0,0,0,0.1-0.1c0.1-0.1,0,0,0,0c0,0,0.1-0.1,0.1-0.1
			c0.1-0.1,0.2-0.2,0.2-0.3c0.2-0.2,0.3-0.3,0.5-0.5c0,0,0.1-0.1,0.1-0.1c0,0,0,0,0.1-0.1c0,0-0.1,0.1,0,0c0.1-0.1,0.2-0.2,0.3-0.2
			c0.3-0.2,0.5-0.7,0.3-1c-0.2-0.3-0.7-0.5-1-0.3c-0.5,0.4-1,0.8-1.5,1.3c-0.5,0.6-1.2,1.4-0.7,2.2c0.1,0.3,0.4,0.4,0.7,0.3
			c0.3,0,0.5-0.2,0.6-0.5c0,0.1-0.1,0.2-0.1,0.2C7.1,71,7,71,7.1,71c-0.3-0.1-0.7-0.2-1-0.3c0.1,0.1,0.1,0.2,0.2,0.3
			c0.1,0.2,0.2,0.3,0.4,0.3c0.2,0,0.4,0,0.6-0.1C7.6,71,7.8,70.6,7.6,70.2L7.6,70.2z"/>
	</g>
</g>
<g>
	<g>
		<path class="st2" d="M68.2,48.4c-0.3,1.4-0.6,2.7-0.8,4.1c-0.1,0.4,0.1,0.8,0.5,0.9c0.4,0.1,0.8-0.1,0.9-0.5
			c0.4-1.2,0.8-2.3,1.2-3.5c-0.5-0.1-0.9-0.3-1.4-0.4c-0.3,1-0.5,2-0.8,3.1c-0.1,0.4,0.1,0.7,0.4,0.9c0.3,0.1,0.8,0,0.9-0.3
			c0.4-0.9,0.7-1.7,0.8-2.7c-0.5-0.1-1-0.1-1.4-0.2c0,0.2,0,0.4-0.1,0.6c0-0.1,0-0.1,0,0c0,0.1,0,0.1,0,0.2c0,0.1,0,0.2-0.1,0.3
			c-0.1,0.4-0.2,0.8-0.3,1.2c0.5,0.1,0.9,0.3,1.4,0.4c0.2-1,0.5-1.9,0.7-2.9c0.1-0.4-0.1-0.8-0.5-0.9c-0.4-0.1-0.8,0.1-0.9,0.5
			c-0.2,1-0.5,1.9-0.7,2.9c-0.1,0.4,0.1,0.8,0.5,0.9c0.4,0.1,0.8-0.1,0.9-0.5c0.3-0.9,0.4-1.8,0.5-2.7c0-0.4-0.3-0.7-0.6-0.7
			c-0.3,0-0.7,0.2-0.8,0.5c-0.1,0.4-0.2,0.8-0.3,1.2c-0.1,0.2-0.1,0.4-0.2,0.6c0,0.1-0.1,0.2-0.1,0.3c0,0-0.1,0.1,0,0.1
			c0,0-0.1,0.1-0.1,0.1c0.4,0.2,0.9,0.4,1.3,0.6c0.3-1,0.5-2,0.8-3.1c0.1-0.4-0.1-0.8-0.5-0.9c-0.4-0.1-0.8,0.1-0.9,0.5
			c-0.4,1.2-0.8,2.3-1.2,3.5c0.5,0.1,0.9,0.3,1.4,0.4c0.2-1.4,0.5-2.8,0.8-4.1c0.1-0.4-0.1-0.8-0.5-0.9C68.7,47.8,68.3,48,68.2,48.4
			L68.2,48.4z"/>
	</g>
</g>
<g>
	<g>
		<path class="st2" d="M96.1,15.5c0.1,0.1,0.1,0.3,0.2,0.5c0.1,0.2,0.1,0.5,0.2,0.7c0.1,0.5,0.2,1,0.2,1.5c0.1,0.8,1.2,1,1.4,0.2
			c0.2-0.7,0.3-1.5,0.2-2.2c-0.5,0.1-1,0.1-1.4,0.2c0.2,1,0.3,2.1,0.1,3.1c-0.2,0.9,1.1,1.3,1.4,0.4c0.2-0.7,0.3-1.4,0.3-2.1
			c-0.5,0-1,0-1.5,0c0,1.2-0.2,2.4-0.5,3.6c-0.2,0.8,0.9,1.3,1.3,0.6c0.4-0.7,0.6-1.5,0.7-2.3c0.1-0.8-1.2-1-1.4-0.2
			c-0.2,0.8-0.4,1.6-0.6,2.5c-0.2,0.9,1.2,1.3,1.4,0.4c0.2-0.8,0.4-1.6,0.6-2.5c-0.5-0.1-1-0.1-1.4-0.2c-0.1,0.5-0.2,1.1-0.5,1.6
			c0.4,0.2,0.9,0.4,1.3,0.6c0.3-1.3,0.5-2.7,0.5-4c0-0.9-1.4-0.9-1.5,0c0,0.6-0.1,1.1-0.3,1.7c0.5,0.1,0.9,0.3,1.4,0.4
			c0.4-1.3,0.2-2.6-0.1-3.8c-0.1-0.8-1.5-0.6-1.4,0.2c0.1,0.6,0,1.2-0.2,1.8c0.5,0.1,1,0.1,1.4,0.2c0-0.7-0.1-1.3-0.3-2
			c-0.1-0.6-0.2-1.3-0.7-1.7C96.4,13.8,95.4,14.9,96.1,15.5L96.1,15.5z"/>
	</g>
</g>
<g>
	<g>
		<path class="st4" d="M57.6,49.5c0.4,0.3,0.8,0.5,1.3,0.5c0.4,0,0.9-0.1,1.2-0.4c0.7-0.5,1.1-1.3,1.3-2.1c0.1-0.4-0.1-0.8-0.5-0.9
			c-0.4-0.1-0.8,0.1-0.9,0.5c-0.1,0.2-0.1,0.4-0.2,0.6c0,0.1,0.1-0.1,0-0.1c0,0,0,0,0,0.1c0,0,0,0.1-0.1,0.1
			c-0.1,0.1-0.1,0.2-0.2,0.3c-0.1,0.1,0,0,0-0.1c0,0,0,0-0.1,0.1c0,0-0.1,0.1-0.1,0.1c0,0-0.1,0.1-0.1,0.1c0,0,0.1-0.1,0.1,0
			c0,0,0,0-0.1,0c0,0-0.1,0-0.1,0.1c0,0-0.1,0.1,0,0c0.1,0,0,0,0,0c-0.1,0-0.2,0.1-0.3,0.1c0.1,0,0.1,0,0.2,0c-0.1,0-0.2,0-0.4,0
			c0.1,0,0.1,0,0.2,0c0,0-0.1,0-0.1,0c0,0-0.2-0.1,0,0c0.1,0.1,0,0,0,0c-0.2-0.1,0.1,0.1,0,0c-0.1-0.1-0.3-0.2-0.5-0.2
			c-0.2,0-0.4,0.1-0.5,0.2C57.4,48.7,57.3,49.2,57.6,49.5L57.6,49.5z"/>
	</g>
</g>
<g>
	<g>
		<path class="st3" d="M48,39.7C48,39.6,48,39.6,48,39.7C48,39.6,48,39.7,48,39.7C48.1,39.7,48,39.7,48,39.7c0,0,0,0.1,0,0.1
			C48.1,39.8,48.1,39.7,48,39.7c0,0.1,0,0.1,0,0.2C48,39.8,48.1,39.8,48,39.7c0,0.1,0,0.2,0,0.2c0,0,0-0.1,0.1-0.1
			c0,0-0.1,0.1-0.1,0.1c0,0,0,0,0,0c-0.4-0.3-0.8-0.6-1.1-0.9c-0.1,0.2-0.2,0.4-0.3,0.7c0.4,0,0.8,0,1.3,0c0,0,0,0,0,0
			c0,0.1,0,0.1,0.1,0.2c0,0,0-0.1,0-0.1c0,0.1,0,0.1,0,0.2c0,0,0-0.1,0-0.1c0,0.1,0,0.1,0,0.2c0,0,0-0.1,0-0.1c0,0.1,0,0.1-0.1,0.2
			c0,0,0,0,0-0.1c-0.4-0.2-0.9-0.4-1.3-0.6c0,0.1-0.1,0.2-0.1,0.4c0.5,0.1,0.9,0.3,1.4,0.4c0-0.1,0.1-0.2,0.1-0.3
			c0,0.1,0,0.1-0.1,0.2c0.1-0.2,0.2-0.3,0.3-0.5c0,0-0.1,0.1-0.1,0.1c0.1-0.1,0.2-0.2,0.3-0.3c0.1-0.1,0.1-0.1,0.2-0.2
			c0-0.1,0.1-0.2,0.1-0.3c0-0.2-0.1-0.4-0.2-0.5c-0.1-0.1-0.3-0.2-0.5-0.2c-0.1,0-0.1,0-0.2,0c-0.1,0-0.2,0.1-0.3,0.2
			c-0.2,0.2-0.4,0.4-0.6,0.7c-0.2,0.2-0.3,0.5-0.3,0.8c0,0.2,0,0.4,0.1,0.6c0.1,0.2,0.3,0.3,0.4,0.3c0.2,0,0.4,0,0.6-0.1
			c0.2-0.1,0.3-0.2,0.3-0.4c0-0.1,0.1-0.2,0.1-0.4c0.1-0.2,0-0.4-0.1-0.6c0,0-0.1-0.1-0.1-0.1C47.6,39,47.5,39,47.4,39
			c-0.1-0.1-0.3-0.1-0.5,0c-0.2,0.1-0.3,0.2-0.4,0.3c-0.1,0.2-0.2,0.4-0.2,0.6c0,0.2,0.1,0.4,0.1,0.6c0.1,0.2,0.4,0.4,0.6,0.4
			c0.2,0,0.5-0.1,0.6-0.4C47.9,40.2,48,40,48,39.7c0.1-0.1,0.2-0.3,0.1-0.5c0-0.2-0.1-0.3-0.3-0.4c-0.1-0.1-0.3-0.2-0.4-0.2
			c-0.2,0-0.4,0.1-0.5,0.2c-0.1,0.1-0.2,0.2-0.2,0.4c-0.1,0.2-0.1,0.3-0.1,0.4c0,0.1,0,0.2,0,0.4c0,0,0,0.1,0,0.1
			c0,0.1,0.1,0.2,0.1,0.2c0.1,0.2,0.2,0.3,0.4,0.3c0.2,0,0.4,0,0.6-0.1c0.2-0.1,0.3-0.2,0.3-0.4C48.2,40,48.1,39.8,48,39.7L48,39.7z
			"/>
	</g>
</g>
<g>
	<g>
		<path class="st3" d="M48.8,42.5c0.5,0.4,1.2,0.6,1.8,0.6c0.4,0,0.7-0.1,1-0.3c0.3-0.1,0.6-0.3,0.8-0.5c0.1-0.1,0.2-0.4,0.2-0.5
			c0-0.2-0.1-0.4-0.2-0.5C52.4,41.1,52.2,41,52,41c-0.2,0-0.4,0.1-0.5,0.2c0.2-0.1,0,0,0,0c0,0-0.1,0.1-0.2,0.1
			c-0.1,0.1-0.2,0.1-0.3,0.2c0,0-0.1,0-0.1,0c-0.1,0-0.1,0,0.1,0c0,0-0.1,0-0.2,0.1c-0.1,0-0.1,0-0.2,0c0,0-0.2,0-0.1,0
			c0.1,0,0,0-0.1,0c-0.1,0-0.1,0-0.2,0c-0.1,0-0.1,0-0.2,0c0.1,0,0.1,0,0.1,0c0,0,0,0-0.1,0c0,0-0.1,0-0.1,0c0,0-0.1,0-0.1,0
			c0.1,0,0.1,0.1,0.1,0c0,0-0.1,0-0.1-0.1c0,0-0.2-0.2,0,0c-0.2-0.1-0.3-0.2-0.5-0.2c-0.2,0-0.4,0.1-0.5,0.2
			C48.6,41.7,48.5,42.2,48.8,42.5L48.8,42.5z"/>
	</g>
</g>
<g>
	<g>
		<path class="st3" d="M62,42c0.4,0.6,1.1,0.9,1.8,0.7c0.6-0.2,1.1-0.7,1.4-1.3c0.1-0.2,0.1-0.4,0.1-0.6c0-0.2-0.2-0.4-0.3-0.4
			c-0.3-0.2-0.8-0.1-1,0.3c-0.1,0.2-0.2,0.3-0.3,0.5c0,0,0.1-0.1,0.1-0.1c-0.1,0.1-0.2,0.2-0.3,0.3c0,0,0.1-0.1,0.1-0.1
			c-0.1,0.1-0.2,0.1-0.3,0.2c0.1,0,0.1,0,0.2-0.1c-0.1,0-0.2,0.1-0.2,0.1c0.1,0,0.1,0,0.2,0c-0.1,0-0.2,0-0.3,0c0.1,0,0.1,0,0.2,0
			c-0.1,0-0.1,0-0.2-0.1c0.1,0,0.1,0,0.2,0.1c-0.1,0-0.1-0.1-0.2-0.1c0,0,0.1,0.1,0.1,0.1c0,0-0.1-0.1-0.1-0.1c0,0,0.1,0.1,0.1,0.1
			c0,0,0-0.1-0.1-0.1c-0.2-0.3-0.7-0.5-1-0.3C61.9,41.2,61.8,41.7,62,42L62,42z"/>
	</g>
</g>
<g>
	<g>
		<path class="st2" d="M21.3,27.1c-1.2,3.9-2,8-2.2,12.1c0,0.9,1.4,0.9,1.5,0c0.2-4,0.9-7.9,2.1-11.7C22.9,26.6,21.5,26.2,21.3,27.1
			L21.3,27.1z"/>
	</g>
</g>
<g>
	<g>
		<path class="st2" d="M61.7,78.7C61.7,78.7,61.7,78.7,61.7,78.7c0,0-0.1-0.1-0.1-0.1C61.7,78.7,61.7,78.7,61.7,78.7
			C61.7,78.7,61.7,78.7,61.7,78.7c0,0,0,0.1,0.1,0.2C61.8,78.8,61.7,78.7,61.7,78.7c0,0.1,0.1,0.2,0.1,0.3
			C61.8,78.9,61.8,78.9,61.7,78.7c0.1,0.2,0.1,0.3,0,0.4c0-0.1,0-0.1,0-0.2c0,0.1,0,0.2-0.1,0.3c0-0.1,0-0.1,0.1-0.2
			c-0.1,0.1-0.1,0.3-0.2,0.4c0,0,0.1-0.1,0.1-0.1c-0.1,0.1-0.2,0.3-0.4,0.4c-0.1,0.1-0.2,0.4-0.2,0.5c0,0.2,0.1,0.4,0.2,0.5
			c0.1,0.1,0.3,0.2,0.5,0.2c0.1,0,0.1,0,0.2,0c0.1,0,0.2-0.1,0.3-0.2c0.4-0.3,0.8-0.9,0.9-1.4c0-0.3,0.1-0.6-0.1-1
			c-0.1-0.2-0.1-0.3-0.2-0.4c-0.1-0.2-0.3-0.3-0.5-0.4c-0.1-0.1-0.4-0.1-0.6-0.1c-0.2,0-0.4,0.2-0.4,0.3c-0.1,0.2-0.1,0.4-0.1,0.6
			C61.4,78.5,61.6,78.6,61.7,78.7L61.7,78.7z"/>
	</g>
</g>
<g>
	<g>
		<path class="st2" d="M62.1,78.2c0,0.1,0,0.3,0,0.4c0,0.1,0,0.2,0.1,0.3c0,0.1,0.1,0.2,0.2,0.2c0.1,0.1,0.1,0.1,0.2,0.2
			c0.1,0,0.2,0.1,0.3,0.1c0.1,0,0.1,0,0.2,0c0.1,0,0.2-0.1,0.3-0.2c0,0,0.1-0.1,0.1-0.1c0.1-0.1,0.1-0.2,0.1-0.4c0-0.1,0-0.3,0-0.4
			c0-0.1,0-0.2-0.1-0.3c0-0.1-0.1-0.2-0.2-0.2c-0.1-0.1-0.1-0.1-0.2-0.2c-0.1,0-0.2-0.1-0.3-0.1c-0.1,0-0.1,0-0.2,0
			c-0.1,0-0.2,0.1-0.3,0.2c0,0-0.1,0.1-0.1,0.1C62.2,77.9,62.1,78.1,62.1,78.2L62.1,78.2z"/>
	</g>
</g>
<g>
	<g>
		<path class="st2" d="M59.4,84.6c0.2,0.3,0.5,0.6,0.9,0.8c0.4,0.1,0.9,0,1.1-0.4c0.3-0.5-0.1-1.2-0.7-1.2c-0.5,0-0.8,0.4-0.9,0.8
			c-0.4,1.3-0.6,2.6-1,3.9c-0.1,0.4,0.1,0.8,0.5,0.9c0.4,0.1,0.8-0.1,0.9-0.5c0.2-0.7,0.3-1.4,0.5-2c0.1-0.3,0.2-0.7,0.2-1
			c0-0.2,0.1-0.3,0.1-0.5c0-0.1,0-0.2,0.1-0.3c0,0,0-0.1,0-0.1c0,0.1-0.1,0.2-0.2,0.2c-0.1,0-0.2,0.1-0.4,0.1c0,0,0,0,0,0
			c-0.1,0-0.2-0.1-0.4-0.1c0,0,0,0,0,0c-0.1-0.1-0.2-0.2-0.3-0.3c0,0,0-0.1,0-0.1c0-0.1,0-0.3,0-0.4c0.1-0.1,0.2-0.2,0.2-0.3
			c0.1,0,0.2-0.1,0.4-0.1c0,0,0.1,0,0.1,0c-0.1,0-0.1-0.1,0,0c0,0-0.1-0.1-0.1-0.1c0,0.1,0,0.1,0,0c-0.2-0.3-0.7-0.5-1-0.3
			C59.3,83.8,59.2,84.3,59.4,84.6L59.4,84.6z"/>
	</g>
</g>
<g>
	<g>
		<path class="st2" d="M71.7,106c0.2-0.2,0.5-0.3,0.7-0.5c0.1,0,0.2-0.1,0.2-0.2c0.1-0.1,0.1-0.2,0.1-0.2c0-0.1,0-0.2,0-0.3
			c0-0.1,0-0.2-0.1-0.3c0,0-0.1-0.1-0.1-0.1c-0.1-0.1-0.2-0.2-0.3-0.2c-0.1,0-0.1,0-0.2,0c-0.1,0-0.3,0-0.4,0.1
			c-0.2,0.2-0.5,0.3-0.7,0.5c-0.1,0-0.2,0.1-0.2,0.2c-0.1,0.1-0.1,0.2-0.1,0.2c0,0.1,0,0.2,0,0.3c0,0.1,0,0.2,0.1,0.3
			c0,0,0.1,0.1,0.1,0.1c0.1,0.1,0.2,0.2,0.3,0.2c0.1,0,0.1,0,0.2,0C71.5,106.1,71.6,106.1,71.7,106L71.7,106z"/>
	</g>
</g>
<g>
	<g>
		<path class="st2" d="M72.2,105.9c0.3-0.2,0.5-0.3,0.8-0.5c0.1,0,0.2-0.1,0.2-0.2c0.1-0.1,0.1-0.2,0.1-0.2c0-0.1,0-0.2,0-0.3
			c0-0.1,0-0.2-0.1-0.3c-0.1-0.2-0.2-0.3-0.4-0.3c-0.1,0-0.1,0-0.2,0c-0.1,0-0.3,0-0.4,0.1c-0.3,0.2-0.5,0.3-0.8,0.5
			c-0.1,0-0.2,0.1-0.2,0.2c-0.1,0.1-0.1,0.2-0.1,0.2c0,0.1,0,0.2,0,0.3c0,0.1,0,0.2,0.1,0.3c0.1,0.2,0.2,0.3,0.4,0.3
			c0.1,0,0.1,0,0.2,0C71.9,106,72.1,106,72.2,105.9L72.2,105.9z"/>
	</g>
</g>
<g>
	<g>
		<path class="st2" d="M90.8,50.6c0.3,0.4,0.5,0.8,0.9,1.1c0.4,0.3,0.9,0.6,1.3,0.8c0.3,0.2,0.8,0.1,1-0.3c0.2-0.3,0.1-0.8-0.3-1
			c-0.3-0.2-0.7-0.4-1-0.6c0,0,0.1,0.1,0.1,0.1c-0.2-0.2-0.4-0.3-0.5-0.5c0,0,0.1,0.1,0.1,0.1c-0.1-0.2-0.3-0.4-0.4-0.6
			c-0.1-0.2-0.2-0.3-0.4-0.3c-0.2,0-0.4,0-0.6,0.1C90.8,49.8,90.6,50.3,90.8,50.6L90.8,50.6z"/>
	</g>
</g>
<polygon class="st5" points="67.2,103.8 65.7,103.3 63,100.9 61.3,97.8 60.3,93.7 60.1,90 60.3,87.4 61.4,85.2 61.8,84.2 59.2,82.3 
	57.6,82.3 56.3,82.7 58.1,78 62.2,82.4 64,78.3 67.2,74.7 71.2,73.8 74.3,74.3 76.6,75.7 74.7,76.3 73.2,79 71.8,82.3 70.5,85.7 
	69.1,90 67.9,94.7 66.9,99.4 "/>
<path class="st6" d="M66.9,101.8c0,0-0.5-6.7,7.1-24.6c0,0,5.5,0.5,11.6,9.1l-2.3,0.9l-1.1,0.9l-2.1-2.9l-0.1,1.5l0.3,0.9l-2,0.5
	l-1.7,0.5L75.5,90l0.3,1.2l2,3l2.2,0.6l2.3-1l0.7-1.7l6,1.6l0,3.7c0,0-6,7-8.8,6.5C80.3,103.8,73.2,105.6,66.9,101.8z"/>
<polygon class="st7" points="74,77.3 75.8,75.8 77.3,75.8 78,78 "/>
<path class="st7" d="M66.9,101.8l2.3,1.3C69.2,103.2,67,105.3,66.9,101.8z"/>
<polygon class="st3" points="27.4,120.6 24,123.3 22.2,124.7 22,126.8 22.9,129.2 23.6,129.4 24.7,130 26.5,130 28.8,128.9 
	31.6,126.8 35,125.1 33.8,123.6 31.5,121 29.7,120.1 "/>
<polygon class="st3" points="82.2,122 86.4,119.9 87.5,119.5 89.6,121.6 90.9,123.3 91.8,125.7 91.5,127.2 91.6,128 90,129.4 
	88.5,129.7 86.5,129.1 85,128.1 83.8,127.4 83.3,125.9 82.2,123.7 "/>
<g>
	<g>
		<path class="st8" d="M124.8,79c-0.7,1.8-1.1,3.8-1.2,5.8c0,0.9,1.4,0.9,1.5,0c0-1.9,0.4-3.7,1.1-5.4c0.1-0.4-0.2-0.8-0.5-0.9
			C125.2,78.4,124.9,78.7,124.8,79L124.8,79z"/>
	</g>
</g>
<g>
	<g>
		<path class="st8" d="M125,79.2c0.1,1.3,0.5,2.5,1.2,3.7c0.2,0.3,0.7,0.5,1,0.3c0.3-0.2,0.5-0.6,0.3-1c-0.1-0.3-0.3-0.5-0.4-0.8
			c0,0-0.1-0.2,0,0c0-0.1-0.1-0.1-0.1-0.2c0-0.1-0.1-0.3-0.1-0.4c-0.1-0.3-0.2-0.5-0.2-0.8c0-0.1-0.1-0.3-0.1-0.4c0-0.1,0-0.2,0-0.2
			c0,0.2,0-0.1,0-0.1c0-0.2-0.1-0.4-0.2-0.5c-0.1-0.1-0.3-0.2-0.5-0.2C125.4,78.4,124.9,78.8,125,79.2L125,79.2z"/>
	</g>
</g>
<path class="st9" d="M69.7,62.1l1.5-2.3l-1-3.1L70.1,53l0.4-3.3l0.9-2.5l0.4-4l0.1-3.7l0.7,0.9l1.5,3.4l1.4,3.6l2.4,2.7l1.8,1.7
	l2.9-0.7l3.6-0.4l2.7,0.2l3.5,1.7l1,0.4l2.5-1.7l2.1-1.9l1.3-1.5l1.3-2.7l1.4-2.9l1.1-0.4l-0.4,2.9l0,3.4l0,2.4l0.4,3.8l-0.1,2.9
	l-1,2.4l-2.3,2.1l-11.2,4.8L81.8,67l-3.6-2.6l-3.3-1.6C74.9,62.8,72.3,61.6,69.7,62.1z"/>
<polyline class="st9" points="91,79.6 91.3,81.3 90,83.8 86.4,86 82.3,88.1 82.2,90 83.1,92 84.3,92.3 86.6,93 89.1,93.6 89.1,97.3 
	88.1,98.6 85.6,101.1 82,103.5 78.2,104.5 73.2,104.9 72.2,107.4 72.2,110.7 73.7,115.3 77.8,121.7 78.7,121.8 80.4,121.9 
	84.6,120.6 89.1,118.5 93,117.5 96.9,117.1 100.4,117.4 103.1,118.1 105.6,118.5 108.3,117.8 109.1,115.9 109.5,114.4 109,112.7 
	109.7,109.9 110.1,107.8 109.9,104.9 111.4,101 111.6,97.3 110.1,93.7 109,90.4 106.9,87.7 104.9,84.4 103.1,86.4 100.1,87.3 
	98,86.9 96.7,85 97.1,83.7 98.2,81.3 100.1,80 100.8,78.6 95.3,79.2 "/>
<g>
	<g>
		<path class="st9" d="M105.6,118.4c0.8-0.1,1.5-0.3,2.1-0.8c0.7-0.5,1.1-1.1,1.4-1.9c-0.5-0.1-1-0.1-1.4-0.2c0,0,0,0.1,0,0.1
			c0-0.1,0-0.1,0,0c0,0.1,0,0.1,0,0.2c0,0.1-0.1,0.2-0.1,0.4c0,0,0,0,0,0.1c0,0.1,0,0.1,0,0c0,0-0.1,0.1-0.1,0.2
			c-0.1,0.1-0.1,0.2-0.2,0.3c-0.2,0.3-0.1,0.7,0.1,0.9c0.2,0.2,0.6,0.3,0.9,0.1c0.6-0.4,0.9-1,1-1.7c0-0.4-0.4-0.7-0.7-0.7
			c-0.4,0-0.7,0.3-0.7,0.7c0,0,0,0.1,0,0.1c0-0.1,0-0.1,0-0.1c0,0,0,0.1,0,0.1c0,0,0,0,0,0.1c0,0.1,0,0.1,0-0.1c0,0,0,0.1-0.1,0.1
			c0,0,0,0.1-0.1,0.1c-0.1,0.1,0.1-0.1,0,0c0,0-0.1,0.1-0.1,0.1c0,0,0,0-0.1,0.1c0.1-0.1,0.1-0.1,0,0c0.3,0.3,0.7,0.7,1,1
			c0.4-0.6,0.6-1.2,0.7-1.9c0-0.2-0.1-0.4-0.2-0.5c-0.1-0.1-0.3-0.2-0.4-0.2c-0.4-0.1-0.7,0.2-0.8,0.5c-0.1,0.1,0.1-0.2,0,0
			c0,0,0,0.1,0,0.1c0,0.1-0.1,0.1-0.1,0.2c-0.1,0.1-0.2,0.2-0.2,0.4c0,0,0.1-0.1,0,0c0,0,0,0.1-0.1,0.1c-0.1,0.1-0.1,0.1-0.2,0.2
			c0,0-0.1,0.1-0.2,0.1c0,0-0.1,0-0.1,0.1c0,0-0.1,0.1,0,0c-0.1,0.1-0.2,0.2-0.3,0.2c-0.1,0-0.1,0.1-0.2,0.1c0,0-0.1,0-0.1,0
			c0,0-0.1,0.1,0,0c0.1,0,0,0,0,0c0,0-0.1,0-0.1,0c-0.1,0-0.1,0-0.2,0.1c-0.1,0-0.1,0-0.2,0c0,0-0.1,0-0.1,0c-0.1,0,0.2,0,0,0
			c-0.2,0-0.4,0.1-0.5,0.2c-0.1,0.1-0.2,0.3-0.2,0.5C104.9,118,105.2,118.5,105.6,118.4L105.6,118.4z"/>
	</g>
</g>
<g>
	<g>
		<path class="st9" d="M108.9,116.7c0.1-0.4,0.3-0.7,0.4-1.1c-0.5-0.1-1-0.1-1.4-0.2c0,0.3,0,0.5,0.1,0.8c0,0.1,0,0.1,0,0.2
			c0,0.1,0.1,0.2,0.1,0.2c0.1,0.1,0.2,0.2,0.4,0.3c0.1,0,0.3,0,0.4,0c0.2,0,0.4-0.2,0.4-0.3c0.2-0.3,0.3-0.6,0.5-0.9
			c0.1-0.2,0.1-0.4,0.1-0.6c0-0.2-0.2-0.4-0.3-0.4c-0.2-0.1-0.4-0.1-0.6-0.1c-0.2,0.1-0.3,0.2-0.4,0.3c-0.2,0.3-0.3,0.6-0.5,0.9
			c0.5,0.1,0.9,0.2,1.4,0.4c0-0.3,0-0.5-0.1-0.8c0-0.2-0.1-0.4-0.2-0.5c0,0-0.1-0.1-0.1-0.1c-0.1-0.1-0.2-0.1-0.3-0.1
			c-0.1,0-0.1,0-0.2,0c-0.1,0-0.2,0-0.3,0.1c0,0-0.1,0.1-0.1,0.1c-0.1,0.1-0.2,0.2-0.2,0.3c-0.1,0.4-0.3,0.7-0.4,1.1
			c0,0.1,0,0.2,0,0.3c0,0.1,0,0.2,0.1,0.3c0.1,0.2,0.3,0.3,0.4,0.3c0.2,0,0.4,0,0.6-0.1c0,0,0.1-0.1,0.1-0.1
			C108.8,116.9,108.8,116.8,108.9,116.7L108.9,116.7z"/>
	</g>
</g>
<g>
	<g>
		<path class="st9" d="M97,80.4C97,80.3,97,80.3,97,80.4c-0.1,0.2-0.1,0.2-0.1,0.2c-0.1,0.1-0.1,0.1-0.1,0.1c0.1,0,0,0-0.1,0
			c0,0,0.1,0,0.1,0c-0.1,0-0.2,0-0.1,0c0,0,0.1,0,0.1,0c0.3,0,0.5,0,0.8,0c0.6,0,1.3-0.1,1.9-0.4c0.2-0.1,0.3-0.2,0.4-0.3
			c0.1-0.2,0.1-0.4,0.1-0.6c-0.1-0.3-0.5-0.7-0.9-0.5c-0.3,0.1-0.6,0.2-1,0.3c0,0-0.1,0-0.1,0c-0.1,0,0.1,0,0,0c-0.1,0-0.2,0-0.2,0
			c-0.2,0-0.3,0-0.5,0c-0.3,0-0.6,0-0.9,0c-0.4,0.1-0.8,0.4-0.9,0.8c-0.1,0.4,0.1,0.8,0.5,0.9C96.5,81,96.9,80.8,97,80.4L97,80.4z"
			/>
	</g>
</g>
<g>
	<g>
		<path class="st9" d="M100.1,80.3c0.1,0,0.1-0.1,0.2-0.1C100.3,80.2,100.2,80.2,100.1,80.3c0.1-0.1,0.2-0.1,0.3-0.1
			C100.4,80.2,100.3,80.2,100.1,80.3c0.2-0.1,0.3-0.1,0.4-0.1c-0.1,0-0.1,0-0.2,0c0,0,0.1,0,0.1,0c0.1,0,0.2,0,0.3,0
			c0.1,0,0.2,0,0.3-0.1c0.1,0,0.2-0.1,0.2-0.2c0.1-0.1,0.1-0.2,0.1-0.2c0-0.2,0-0.4-0.1-0.6c-0.1-0.2-0.2-0.3-0.4-0.3
			c-0.1,0-0.2,0-0.3,0c0,0-0.1,0-0.1,0c-0.1,0-0.3,0-0.4,0c-0.1,0-0.1,0-0.2,0.1c-0.1,0.1-0.3,0.1-0.4,0.2c-0.1,0-0.2,0.1-0.2,0.2
			c-0.1,0.1-0.1,0.2-0.1,0.2c0,0.1,0,0.2,0,0.3c0,0.1,0,0.2,0.1,0.3c0.1,0.2,0.2,0.3,0.4,0.3C99.8,80.4,100,80.4,100.1,80.3
			L100.1,80.3z"/>
	</g>
</g>
<g>
	<g>
		<path class="st9" d="M100.3,80.2c0.2-0.1,0.4-0.1,0.6-0.2c-0.1,0-0.1,0-0.2,0c0.2,0,0.5,0,0.7,0c-0.1,0-0.1,0-0.2,0c0,0,0,0,0,0
			c0.1,0,0.2,0,0.3,0c0.1,0,0.2,0,0.3-0.1c0.2-0.1,0.3-0.3,0.3-0.4c0-0.2,0-0.4-0.1-0.6c-0.1-0.1-0.3-0.3-0.4-0.3
			c-0.3,0-0.6-0.1-0.9,0c-0.3,0-0.6,0.1-0.9,0.2c-0.1,0-0.2,0.1-0.2,0.1c-0.1,0.1-0.1,0.1-0.2,0.2c-0.1,0.2-0.1,0.4-0.1,0.6
			c0.1,0.2,0.2,0.3,0.3,0.4C99.9,80.2,100.1,80.3,100.3,80.2L100.3,80.2z"/>
	</g>
</g>
<g>
	<g>
		<path class="st9" d="M96.6,79.1c-0.2,0-0.3,0-0.5,0c-0.1,0-0.2,0-0.3,0.1c-0.1,0-0.2,0.1-0.2,0.2c-0.1,0.1-0.1,0.1-0.2,0.2
			c0,0.1-0.1,0.2-0.1,0.3c0,0.1,0,0.1,0,0.2c0,0.1,0.1,0.2,0.2,0.3c0.1,0.1,0.3,0.2,0.5,0.2c0.3,0,0.5,0,0.8,0c0.1,0,0.2,0,0.3-0.1
			c0.1,0,0.2-0.1,0.2-0.2c0.1-0.1,0.1-0.1,0.2-0.2c0-0.1,0.1-0.2,0.1-0.3c0-0.1,0-0.1,0-0.2c0-0.1-0.1-0.2-0.2-0.3
			c-0.1-0.1-0.3-0.2-0.5-0.2c-0.3,0-0.5,0-0.8,0c-0.1,0-0.2,0-0.3,0.1c-0.1,0-0.2,0.1-0.2,0.2c-0.1,0.1-0.1,0.1-0.2,0.2
			c0,0.1-0.1,0.2-0.1,0.3c0,0.1,0,0.1,0,0.2c0,0.1,0.1,0.2,0.2,0.3c0.1,0.1,0.3,0.2,0.5,0.2c0.2,0,0.3,0,0.5,0c0.1,0,0.2,0,0.3-0.1
			c0.1,0,0.2-0.1,0.2-0.2c0.1-0.1,0.1-0.1,0.2-0.2c0-0.1,0.1-0.2,0.1-0.3c0-0.1,0-0.1,0-0.2c0-0.1-0.1-0.2-0.2-0.3
			C97,79.2,96.8,79.1,96.6,79.1L96.6,79.1z"/>
	</g>
</g>
<g>
	<g>
		<path class="st9" d="M97,79.8C97,79.8,97,79.8,97,79.8C97,79.8,96.9,79.9,97,79.8C96.9,79.9,96.9,79.9,97,79.8
			c-0.1,0.1-0.1,0.1-0.2,0.2c0,0,0.1,0,0.1,0c-0.1,0-0.1,0-0.2,0.1c0,0,0.1,0,0.1,0c-0.1,0-0.1,0-0.2,0c0,0,0.1,0,0.1,0
			c-0.1,0-0.1,0-0.2,0c0.1,0,0.1,0,0.1,0c-0.1,0-0.1,0-0.2-0.1c0,0,0.1,0,0.1,0.1c0,0-0.1-0.1-0.1-0.1c0,0,0,0,0.1,0.1
			c0,0-0.1-0.1-0.1-0.1c0,0,0,0.1,0,0.1c0-0.1,0-0.1-0.1-0.2c0,0,0,0.1,0,0.1c0-0.1,0-0.1,0-0.2c0,0,0,0,0,0c0,0.2,0.1,0.4,0.2,0.5
			c0.1,0.1,0.1,0.1,0.2,0.2c0.1,0,0.2,0.1,0.3,0.1c0.1,0,0.1,0,0.2,0c0.1,0,0.2-0.1,0.3-0.2c0.1-0.1,0.2-0.3,0.2-0.5
			c0-0.2-0.1-0.4-0.2-0.6c-0.1-0.1-0.1-0.2-0.2-0.2c-0.1-0.1-0.1-0.1-0.2-0.2c-0.2-0.1-0.4-0.1-0.6-0.2c-0.1,0-0.2,0-0.3,0
			c-0.1,0-0.1,0-0.2,0.1c0,0-0.1,0-0.1,0.1c-0.1,0-0.1,0.1-0.2,0.1c0,0,0,0,0,0c-0.1,0.1-0.1,0.1-0.1,0.2c-0.1,0.2-0.1,0.4-0.1,0.6
			c0,0.1,0.1,0.2,0.1,0.2c0.1,0.1,0.1,0.1,0.2,0.2c0.2,0.1,0.4,0.1,0.6,0.1C96.7,80.1,96.9,80,97,79.8L97,79.8z"/>
	</g>
</g>
<g>
	<g>
		<path class="st9" d="M98.3,79.8c-0.2,0.2-0.4,0.5-0.5,0.7c-0.1,0.1-0.1,0.1-0.2,0.2c0,0.1-0.1,0.2-0.1,0.3c0,0.1,0,0.2,0.1,0.3
			c0,0.1,0.1,0.2,0.2,0.2c0,0,0.1,0.1,0.1,0.1c0.1,0.1,0.2,0.1,0.4,0.1c0.1,0,0.1,0,0.2,0c0.1,0,0.2-0.1,0.3-0.2
			c0.2-0.2,0.3-0.3,0.5-0.5c0.1-0.1,0.1-0.1,0.2-0.2c0-0.1,0.1-0.2,0.1-0.3c0-0.1,0-0.2-0.1-0.3c0-0.1-0.1-0.2-0.2-0.2
			c0,0-0.1-0.1-0.1-0.1c-0.1-0.1-0.2-0.1-0.4-0.1c-0.1,0-0.1,0-0.2,0c-0.1,0-0.2,0.1-0.3,0.2c-0.2,0.2-0.3,0.3-0.5,0.5
			c-0.1,0.1-0.1,0.1-0.2,0.2c0,0.1-0.1,0.2-0.1,0.3c0,0.1,0,0.2,0.1,0.3c0,0.1,0.1,0.2,0.2,0.2c0,0,0.1,0.1,0.1,0.1
			c0.1,0.1,0.2,0.1,0.4,0.1c0.1,0,0.1,0,0.2,0c0.1,0,0.2-0.1,0.3-0.2c0.2-0.2,0.3-0.3,0.5-0.5c-0.3-0.3-0.7-0.7-1-1
			c-0.2,0.2-0.3,0.3-0.5,0.5c0.3,0.3,0.7,0.7,1,1c0.2-0.2,0.4-0.5,0.5-0.7c0.1-0.1,0.1-0.1,0.2-0.2c0-0.1,0.1-0.2,0.1-0.3
			c0-0.1,0-0.2-0.1-0.3c0-0.1-0.1-0.2-0.2-0.2c0,0-0.1-0.1-0.1-0.1c-0.1-0.1-0.2-0.1-0.4-0.1c-0.1,0-0.1,0-0.2,0
			C98.5,79.7,98.4,79.8,98.3,79.8L98.3,79.8z"/>
	</g>
</g>
<g>
	<g>
		<path class="st9" d="M74.1,105.1C74.1,105.1,74,105,74.1,105.1c0,0,0.1,0.1,0.1,0.1C74.2,105.1,74.1,105.1,74.1,105.1
			c0.1,0.1,0.1,0.1,0.2,0.2c0,0,0,0,0-0.1c0,0.1,0,0.1,0.1,0.2c0,0,0-0.1,0-0.1c0,0.1,0,0.1,0,0.2c0,0,0-0.1,0-0.1
			c0,0.1,0,0.1,0,0.2c0,0,0-0.1,0-0.1c0,0.1,0,0.1-0.1,0.2c0,0,0-0.1,0-0.1c0,0-0.1,0.1-0.1,0.1c0,0,0,0,0.1-0.1
			c0,0-0.1,0.1-0.1,0.1c0,0,0,0,0.1,0c-0.1,0-0.1,0-0.2,0.1c0,0,0,0,0.1,0c0.1,0,0.2-0.1,0.2-0.1c0.1-0.1,0.1-0.1,0.2-0.2
			c0.1-0.1,0.1-0.2,0.1-0.3c0-0.1,0-0.2,0-0.3c0-0.1,0-0.1-0.1-0.2c-0.1-0.1-0.2-0.2-0.3-0.3c-0.1,0-0.1,0-0.2-0.1
			c-0.1,0-0.3,0-0.4,0c0,0,0,0,0,0c-0.1,0-0.1,0.1-0.2,0.1c0,0,0,0,0,0c-0.1,0-0.1,0.1-0.2,0.1c0,0,0,0,0,0c0,0.1-0.1,0.1-0.1,0.2
			c0,0.1-0.1,0.2-0.1,0.3c0,0,0,0.1,0,0.1c0,0.1,0,0.2,0,0.2c0,0,0,0,0,0c0,0,0,0,0,0c0,0.1,0,0.2,0,0.2c0,0,0,0,0,0
			c0,0.1,0.1,0.1,0.1,0.2c0,0,0,0,0,0c0,0.1,0.1,0.1,0.1,0.2c0,0,0,0,0,0c0.1,0,0.1,0.1,0.2,0.1c0.1,0.1,0.2,0.1,0.3,0.1
			c0.1,0,0.2,0,0.3,0c0.1,0,0.2-0.1,0.2-0.1c0.1-0.1,0.1-0.1,0.2-0.2c0-0.1,0-0.1,0.1-0.2c0-0.1,0-0.3,0-0.4c0-0.1,0-0.1-0.1-0.2
			C74.3,105.2,74.2,105.1,74.1,105.1L74.1,105.1z"/>
	</g>
</g>
<polygon class="st10" points="66.4,75.1 65.6,70.1 66.7,65.3 69.7,62.1 72.6,62.1 76.6,63.5 79.6,65.5 81.8,67 87.6,67.5 91.8,64.8 
	96.4,63.1 100.5,61.1 106.2,59.7 110.9,60.3 113.7,62.1 115.9,65 116.9,69.2 116,72.9 114.4,75.3 112.4,77 109.3,78.2 105.1,78.3 
	100.8,78.6 97.8,78.2 93.3,79.1 87.6,80.4 83.8,81.4 81.3,81 79.3,79.7 78,78 77.3,76.8 75.5,75 73.2,73.8 69.6,73.5 "/>
<polyline class="st10" points="81.3,81 83.8,81.4 87.6,80.4 90.2,79.7 91,79.6 91.3,81.3 90,83.8 87.2,85.2 85.6,86.3 "/>
<polyline class="st10" points="102.7,78.5 100.1,80 98.2,81 97.1,83.7 96.7,85 98,86.9 100.1,87.3 102,86.8 103.3,85.6 105.1,83.5 
	106.6,81.3 106.9,79.8 106.6,78.3 "/>
<g>
	<g>
		<path class="st10" d="M102.2,85.4c0.9-0.3,1.7-0.8,2.2-1.6c-0.4-0.2-0.8-0.5-1.3-0.7c-0.1,0.1-0.1,0.2-0.2,0.3
			c-0.1,0.1,0.1-0.1,0,0c0,0-0.1,0.1-0.1,0.1c-0.1,0.2-0.3,0.3-0.5,0.5c-0.5,0.5,0,1.5,0.7,1.2c0.5-0.2,1-0.5,1.4-0.9
			c-0.4-0.3-0.8-0.6-1.1-0.9c-0.2,0.2-0.3,0.4-0.5,0.7c0.4,0.2,0.8,0.5,1.3,0.7c0.1-0.1,0.1-0.3,0.2-0.4c-0.1,0.1,0.1-0.1,0.1-0.1
			c0.1-0.1,0.1-0.1,0.2-0.2c0.6-0.5-0.2-1.6-0.9-1.1c-0.5,0.3-0.9,0.8-1.2,1.3c-0.2,0.3-0.1,0.8,0.3,1c0.4,0.2,0.8,0.1,1-0.3
			c0-0.1,0.1-0.1,0.1-0.2c-0.1,0.1,0.1-0.1,0.1-0.1c0-0.1,0.1-0.1,0.1-0.1c0,0,0.2-0.1,0.1-0.1c-0.3-0.3-0.7-0.7-1-1
			c0,0.1-0.1,0.1-0.1,0.2c0,0-0.1,0.1-0.1,0.1c0,0,0,0,0,0c-0.1,0.1-0.2,0.2-0.3,0.3c0.3,0.3,0.7,0.7,1,1c0,0,0.2-0.2,0.1-0.1
			c0,0,0.1,0,0.1-0.1c-0.1,0-0.1,0,0,0c-0.3-0.3-0.6-0.6-0.9-0.9c-0.1,0.2,0.1-0.1,0,0.1c-0.1,0.1,0,0,0,0c0,0-0.1,0.1,0,0
			c-0.1,0-0.1,0.1-0.2,0.1c0.3,0.4,0.6,0.8,0.9,1.1c1.4-1.2,2.5-2.9,2.9-4.7c0.1-0.4-0.1-0.8-0.5-0.9c-0.4-0.1-0.8,0.1-0.9,0.5
			c-0.1,0.2-0.1,0.4-0.2,0.6c0,0.1-0.1,0.2-0.1,0.3c0,0,0,0.1-0.1,0.1c0,0-0.1,0.1,0,0.1c-0.2,0.4-0.4,0.8-0.6,1.1
			c-0.1,0.2-0.2,0.3-0.3,0.5c0,0-0.1,0.1-0.1,0.1c0-0.1,0,0,0,0c-0.1,0.1-0.1,0.2-0.2,0.2c-0.3,0.3-0.6,0.6-0.9,0.9
			c-0.3,0.2-0.3,0.7-0.1,1c0.2,0.3,0.6,0.3,0.9,0.2c0.5-0.2,0.8-0.6,0.9-1.1c0.2-0.5-0.4-1.1-0.9-0.9c-0.3,0.1-0.6,0.3-0.9,0.6
			c-0.2,0.3-0.3,0.7,0,1c0.3,0.3,0.7,0.3,1,0c0.3-0.2,0.6-0.6,0.7-0.9c0.1-0.3,0.1-0.7-0.1-0.9c-0.2-0.2-0.6-0.3-0.9-0.1
			c-0.4,0.3-0.7,0.6-0.9,1c0.4,0.2,0.8,0.5,1.3,0.7c0-0.1,0.1-0.2,0.2-0.3c0,0,0.1-0.1,0.1-0.1c0.1-0.1-0.1,0.1,0,0
			c0.1-0.1,0.1-0.1,0.2-0.2c0,0,0.1-0.1,0.1-0.1c-0.1,0,0.1-0.1,0.1-0.1c-0.3-0.4-0.6-0.8-0.9-1.1c-0.3,0.3-0.6,0.6-0.7,1
			c-0.2,0.3-0.1,0.8,0.3,1c0.4,0.2,0.8,0.1,1-0.3c0.2-0.2,0.3-0.4,0.5-0.7c0.2-0.3,0.1-0.7-0.2-0.9c-0.3-0.2-0.7-0.2-1,0.1
			c-0.1,0.1-0.1,0.1-0.2,0.2c0,0-0.1,0.1-0.1,0.1c-0.1,0.1,0,0,0,0c-0.1,0.1-0.2,0.1-0.2,0.1c0,0-0.1,0-0.1,0.1
			c-0.1,0.1,0.2-0.1,0,0c0.2,0.4,0.5,0.8,0.7,1.2c0.4-0.4,0.7-0.8,1-1.2c0.2-0.3,0.1-0.8-0.3-1c-0.4-0.2-0.8-0.1-1,0.3
			c0,0-0.2,0.2-0.1,0.1c-0.1,0.1-0.1,0.1-0.2,0.2c0,0-0.1,0.1-0.1,0.1c0,0-0.1,0.1-0.1,0.1c0.1,0,0.1,0,0,0
			c-0.3,0.2-0.5,0.3-0.8,0.4c-0.4,0.1-0.6,0.5-0.5,0.9C101.4,85.3,101.8,85.5,102.2,85.4L102.2,85.4z"/>
	</g>
</g>
<g>
	<g>
		<path class="st10" d="M103,85.4c0.3-0.3,0.6-0.5,0.8-0.8c-0.4-0.3-0.8-0.6-1.1-0.9c-0.3,0.5-0.6,0.9-0.9,1.4
			c-0.1,0.1-0.1,0.3-0.1,0.4c0,0.2,0.1,0.3,0.2,0.4c0.1,0.1,0.2,0.2,0.3,0.2c0.1,0.1,0.3,0.1,0.5,0c0.3-0.1,0.6-0.3,0.8-0.5
			c0.2-0.2,0.4-0.4,0.5-0.6c0.2-0.3,0.1-0.7-0.1-0.9c-0.2-0.2-0.6-0.3-0.9-0.1c-0.5,0.2-0.9,0.6-1.1,1.1c-0.1,0.3-0.1,0.6,0.1,0.8
			c0.2,0.2,0.5,0.3,0.8,0.3c0.2-0.1,0.5-0.2,0.7-0.4c0.2-0.2,0.3-0.4,0.4-0.7c0-0.2,0-0.4-0.1-0.6c-0.1-0.1-0.2-0.2-0.3-0.3
			c-0.3-0.1-0.7,0-0.9,0.3c-0.2,0.3-0.4,0.6-0.5,0.9c-0.2,0.3-0.1,0.8,0.3,1c0.3,0.2,0.8,0.1,1-0.3c0.2-0.3,0.4-0.6,0.5-0.9
			c-0.4-0.2-0.9-0.4-1.3-0.6c0,0.1,0,0.1,0,0.1c0-0.1,0-0.1,0.1-0.2c0,0.1-0.1,0.1-0.1,0.2c0,0,0.1-0.1,0.1-0.1c0,0-0.1,0.1-0.1,0.1
			c0,0,0.1-0.1,0.1-0.1c0,0-0.1,0.1-0.1,0.1c0.1,0,0.1,0,0.2-0.1c0,0-0.1,0-0.1,0c0.3,0.4,0.5,0.7,0.8,1.1c0.1-0.1,0.1-0.2,0.2-0.3
			c0,0-0.1,0.1-0.1,0.1c0.1-0.1,0.2-0.3,0.4-0.4c0,0-0.1,0.1-0.1,0.1c0.1-0.1,0.2-0.1,0.3-0.2c-0.3-0.3-0.7-0.7-1-1
			c0,0.1-0.1,0.1-0.1,0.2c0,0,0.1-0.1,0.1-0.1c-0.1,0.1-0.2,0.2-0.3,0.3c0,0,0.1-0.1,0.1-0.1c-0.1,0.1-0.3,0.2-0.4,0.2
			c0.1,0,0.1,0,0.2-0.1c0,0,0,0,0,0c0.3,0.4,0.5,0.7,0.8,1.1c0.3-0.5,0.6-0.9,0.9-1.4c0.1-0.1,0.1-0.4,0.1-0.6
			c0-0.2-0.1-0.3-0.3-0.4c-0.3-0.2-0.7-0.2-1,0.1c-0.3,0.3-0.6,0.5-0.8,0.8c-0.3,0.3-0.3,0.8,0,1C102.2,85.6,102.7,85.6,103,85.4
			L103,85.4z"/>
	</g>
</g>
<g>
	<g>
		<path class="st10" d="M82.7,123.9C82.9,123.9,82.5,123.9,82.7,123.9c-0.1,0-0.3-0.1-0.3,0c0,0-0.2-0.1-0.2-0.1
			c0,0-0.2-0.2-0.2-0.2c-0.1-0.1-0.1-0.2-0.2-0.4c0-0.1,0-0.1,0,0c0-0.1,0-0.1,0-0.2c0-0.1,0-0.1,0,0c0-0.1,0-0.1,0-0.2
			c0.3-0.8-0.9-1.3-1.3-0.6c-0.2,0.4-0.2,0.7-0.2,1.1c0.4-0.3,0.7-0.5,1.1-0.8c-0.6-0.4-1.2-0.7-1.9-0.9c-0.7-0.2-1.2,0.7-0.7,1.2
			c0.7,0.7,1,1.8,0.8,2.8c0.5,0.1,1,0.1,1.4,0.2c0-0.4,0-0.9,0-1.3c0-0.9-1.4-0.9-1.5,0c0,0.7-0.2,1.4-0.4,2c0.5,0.1,1,0.1,1.4,0.2
			c0-0.4,0-0.8,0.2-1.2c-0.5-0.1-1-0.1-1.4-0.2c0,1-0.8,1.9-1.8,2.1c-0.3,0-0.5,0.4-0.5,0.6c0,0.3,0.1,0.6,0.3,0.7
			c1.8,1.2,4.2,1.1,5.7-0.6c-0.4-0.2-0.8-0.5-1.2-0.7c-0.1,0.2-0.1,0.4-0.2,0.7c-0.2,0.7,0.7,1.2,1.2,0.7c0.7-0.8,0.7-2.1-0.1-2.8
			c-0.5-0.5-1.4,0-1.2,0.7c0.1,0.5,0.2,1,0.1,1.5c0,0.3,0,0.6,0.3,0.8c0.3,0.2,0.6,0.1,0.9-0.1c1-0.9,0.7-2.1,0.1-3.1
			c-0.3-0.5-0.6-0.9-0.9-1.3c-0.1-0.2-0.2-0.4-0.4-0.6c0.1,0.2,0-0.1-0.1-0.2c0,0,0-0.1,0-0.1c0-0.1,0,0,0,0.1c0,0,0-0.1,0-0.1
			c-0.5,0.1-0.9,0.2-1.4,0.4c0.2,0.6,0.5,1.2,0.7,1.7c0.1,0.3,0.6,0.4,0.9,0.3c0.3-0.2,0.5-0.5,0.4-0.9c-0.2-0.8-0.4-1.5-0.8-2.2
			c-0.3-0.8-1.6-0.2-1.3,0.6c0.4,1.2,0.8,2.3,1.4,3.4c0.4-0.2,0.8-0.5,1.3-0.7c-0.2-0.4-0.5-0.7-0.7-1.1c-0.4,0.2-0.8,0.5-1.3,0.7
			c0.2,0.3,0.4,0.7,0.5,1.1c0.4-0.2,0.7-0.4,1.1-0.6c-0.2-0.1-0.3-0.3-0.4-0.5c-0.1-0.3-0.4-0.5-0.7-0.5c-0.3,0-0.6,0.2-0.7,0.5
			c-0.2,0.6-0.3,1.2-0.4,1.9c0.5,0,1,0,1.5,0c0-0.7-0.1-1.3-0.3-1.9c-0.2-0.7-1.2-0.7-1.4,0c-0.1,0.5-0.3,1.1-0.4,1.6
			c0.5,0.1,1,0.1,1.4,0.2c0-0.4,0.1-0.7,0.1-1.1c0.1-0.5-0.7-0.9-1.1-0.6c-0.7,0.5-1.1,1.2-1,2c0,0.3,0.2,0.6,0.4,0.7
			c0.2,0.1,0.6,0.1,0.8-0.2c0.4-0.5,0.7-1.1,0.9-1.7c0.2-0.8-0.9-1.3-1.3-0.6c-0.2,0.3-0.3,0.6-0.3,1c0,0.5,0.5,0.8,0.9,0.7
			c0.5-0.1,0.9-0.5,1-1c0.1-0.4-0.1-0.8-0.5-0.9c-0.4-0.1-0.8,0.1-0.9,0.5c0,0.1,0,0,0,0c0,0,0.3-0.1,0-0.1c0.3,0.2,0.6,0.5,0.9,0.7
			c0-0.1,0-0.2,0.1-0.3c-0.4-0.2-0.9-0.4-1.3-0.6c-0.1,0.4-0.2,0.7-0.5,1.1c0.4,0.2,0.8,0.3,1.2,0.5c0-0.3,0-0.6,0.3-0.8
			c-0.4-0.2-0.7-0.4-1.1-0.6c0,0.4-0.1,0.7-0.1,1.1c0,0.4,0.3,0.7,0.6,0.7c0.4,0,0.7-0.2,0.8-0.5c0.1-0.5,0.3-1.1,0.4-1.6
			c-0.5,0-0.9,0-1.4,0c0.2,0.5,0.2,1,0.2,1.6c0,0.4,0.3,0.7,0.7,0.7c0.4,0,0.7-0.3,0.7-0.7c0.1-0.5,0.2-1,0.3-1.5
			c-0.5,0-0.9,0-1.4,0c0.1,0.6,0.5,1.1,1,1.4c0.4,0.2,1.2-0.1,1.1-0.6c-0.1-0.7-0.3-1.3-0.7-1.8c-0.2-0.3-0.6-0.5-1-0.3
			c-0.3,0.2-0.5,0.7-0.3,1c0.2,0.4,0.5,0.7,0.7,1.1c0.5,0.8,1.7,0.1,1.3-0.7c-0.5-1-0.9-2-1.3-3.1c-0.4,0.2-0.9,0.4-1.3,0.6
			c0.3,0.6,0.5,1.2,0.6,1.9c0.4-0.2,0.9-0.4,1.3-0.6c-0.2-0.6-0.5-1.2-0.7-1.7c-0.1-0.3-0.5-0.4-0.8-0.3c-0.3,0.1-0.5,0.4-0.5,0.7
			c0,1,0.7,1.8,1.2,2.7c0.1,0.2,0.3,0.4,0.4,0.6c0,0.1,0.1,0.1,0.1,0.2c0.1,0.1,0-0.1,0,0c0,0.1,0.1,0.2,0.1,0.3c0,0,0,0.2,0,0.1
			c0-0.1,0,0,0,0.1c0,0.1,0,0.1,0,0.2c0-0.2,0,0,0,0c0,0-0.1,0.2,0,0.1c0-0.1,0,0,0,0.1c-0.1,0.1,0.1-0.1,0,0c0,0-0.1,0.1-0.1,0.1
			c0.4,0.2,0.8,0.5,1.2,0.7c0.1-0.8,0.1-1.5-0.1-2.3c-0.4,0.2-0.8,0.5-1.2,0.7c0.1,0.1,0.1,0.1,0.2,0.2c0-0.1,0,0.3,0,0.1
			c0,0.1,0,0.1,0,0.2c0-0.1,0,0,0,0.1c0,0.1,0,0.1-0.1,0.2c0.4,0.2,0.8,0.5,1.2,0.7c0.1-0.2,0.1-0.4,0.2-0.7
			c0.2-0.7-0.7-1.2-1.2-0.7c-1.1,1.2-2.7,1.2-4,0.3c-0.1,0.4-0.1,0.9-0.2,1.3c1.7-0.2,2.9-1.8,2.9-3.5c0-0.4-0.3-0.7-0.6-0.7
			c-0.4,0-0.7,0.2-0.8,0.5c-0.2,0.5-0.3,1-0.2,1.6c0.1,0.8,1.2,1,1.4,0.2c0.2-0.8,0.4-1.6,0.4-2.4c-0.5,0-1,0-1.5,0
			c0,0.4,0,0.9,0,1.3c0,0.8,1.3,1,1.4,0.2c0.3-1.5-0.1-3.1-1.2-4.2c-0.2,0.4-0.5,0.8-0.7,1.2c0.5,0.2,1,0.4,1.5,0.8
			c0.2,0.2,0.6,0.1,0.8-0.1c0.2-0.2,0.3-0.5,0.3-0.8c0,0,0,0,0,0c-0.4-0.2-0.9-0.4-1.3-0.6c-0.2,0.7,0,1.5,0.5,2.1
			c0.5,0.6,1.3,0.8,2,0.7c0.4-0.1,0.6-0.5,0.5-0.9C83.5,124,83.1,123.8,82.7,123.9L82.7,123.9z"/>
	</g>
</g>
<g>
	<g>
		<path class="st10" d="M79.4,123.5c0.1,0.2,0.1,0.3,0.2,0.5c0.1,0.2,0.2,0.3,0.3,0.4c0.2,0.1,0.4,0.1,0.6,0.1
			c0.4-0.1,0.6-0.5,0.5-0.9c-0.1-0.4-0.1-0.8-0.2-1.1c-0.4,0.3-0.7,0.5-1.1,0.8c0.1,0.1,0.2,0.1,0.4,0.2c-0.1,0-0.1,0-0.2-0.1
			c0,0,0.1,0,0.1,0.1c0,0-0.1-0.1-0.1-0.1c0,0,0.1,0.1,0.1,0.1c0,0,0.1,0.1,0.1,0.1c0.1,0.1,0.2,0.1,0.3,0.1c0.2,0,0.3,0,0.5-0.1
			c0.3-0.2,0.4-0.5,0.3-0.8c0-0.1-0.1-0.3-0.1-0.4c-0.1-0.2-0.2-0.3-0.3-0.4c-0.2-0.1-0.4-0.1-0.6-0.1c-0.4,0.1-0.6,0.5-0.5,0.9
			c0.1,0.2,0.1,0.4,0.2,0.6c0-0.1,0-0.1,0-0.2c0,0.2,0,0.5,0,0.7c0,0.1,0,0.1,0,0.2c0,0.1,0.1,0.2,0.1,0.2c0.1,0.1,0.2,0.2,0.4,0.3
			c0.3,0.1,0.6-0.1,0.8-0.3c0.4-0.6,0.5-1.4,0.3-2.2c-0.1-0.4-0.5-0.6-0.8-0.5c-0.3,0-0.7,0.4-0.6,0.7c0,0.4,0,0.8,0.1,1.2
			c0,0.3,0.2,0.6,0.5,0.7c0.3,0.1,0.7,0,0.8-0.3c0.2-0.4,0.4-0.9,0.5-1.4c-0.5-0.1-1-0.1-1.4-0.2c0,0.3-0.1,0.7-0.1,1
			c0,0.1,0,0.1,0,0.2c0,0.1,0.1,0.2,0.1,0.2c0.1,0.1,0.2,0.2,0.4,0.3c0.1,0,0.3,0,0.4,0c0.2,0,0.4-0.2,0.4-0.3
			c0.1-0.3,0.3-0.6,0.5-0.9c0,0-0.1,0.1-0.1,0.1c0.1-0.1,0.1-0.2,0.2-0.2c0,0-0.1,0.1-0.1,0.1c0.1-0.1,0.2-0.1,0.3-0.2
			c-0.1,0-0.1,0-0.2,0.1c0,0,0,0,0,0c0.2-0.1,0.3-0.2,0.4-0.3c0.1-0.2,0.1-0.4,0.1-0.6c-0.1-0.2-0.2-0.3-0.3-0.4
			c-0.2-0.1-0.4-0.1-0.6-0.1c-0.3,0.1-0.5,0.2-0.7,0.4c-0.1,0.1-0.3,0.3-0.4,0.4c-0.2,0.2-0.3,0.5-0.4,0.8c0.5,0.1,0.9,0.2,1.4,0.4
			c0-0.3,0.1-0.7,0.1-1c0-0.2-0.1-0.4-0.2-0.5c-0.1-0.1-0.3-0.2-0.4-0.2c-0.2,0-0.3,0-0.5,0.1c-0.1,0.1-0.3,0.3-0.3,0.4
			c0,0.3-0.1,0.6-0.2,0.8c0-0.1,0-0.1,0.1-0.2c-0.1,0.1-0.1,0.2-0.2,0.4c0.5,0.1,0.9,0.2,1.4,0.4c0-0.4,0-0.8-0.1-1.2
			c-0.5,0.1-1,0.1-1.4,0.2c0,0.1,0,0.2,0,0.2c0-0.1,0-0.1,0-0.2c0,0.2,0,0.4,0,0.5c0-0.1,0-0.1,0-0.2c0,0.2-0.1,0.4-0.2,0.6
			c0-0.1,0-0.1,0.1-0.2c0,0.1-0.1,0.2-0.1,0.3c0.5,0.1,0.9,0.2,1.4,0.4c0-0.5,0-1.1-0.2-1.5c-0.5,0.1-0.9,0.3-1.4,0.4
			c0.1,0.1,0.1,0.3,0.1,0.4c0.4-0.2,0.8-0.5,1.2-0.7c-0.2-0.2-0.4-0.3-0.6-0.4c0.1,0,0.1,0,0.2,0.1c0,0-0.1,0-0.1,0
			c-0.3-0.1-0.6-0.1-0.8,0.1c-0.2,0.2-0.3,0.5-0.3,0.8c0.1,0.4,0.1,0.8,0.2,1.1c0.5-0.1,0.9-0.3,1.4-0.4c-0.1-0.2-0.1-0.3-0.2-0.5
			c-0.1-0.2-0.2-0.3-0.3-0.4c-0.2-0.1-0.4-0.1-0.6-0.1C79.5,122.7,79.2,123.1,79.4,123.5L79.4,123.5z"/>
	</g>
</g>
<g>
	<g>
		<path class="st10" d="M82.9,126.7c0-0.2,0-0.4,0-0.6c-0.5,0.1-0.9,0.2-1.4,0.4c0,0.1,0.1,0.1,0.1,0.2c0.1,0.1,0.1,0.2,0.2,0.3
			c0,0,0.1,0.1,0.1,0.1c0.1,0.1,0.2,0.2,0.3,0.2c0.1,0,0.1,0,0.2,0.1c0.1,0,0.1,0,0.2,0c0.1,0,0.1,0,0.2,0c0.1,0,0.2-0.1,0.2-0.1
			c0.1,0,0.1-0.1,0.1-0.1c0,0,0.1-0.1,0.1-0.2c0-0.1,0-0.1,0-0.2c0-0.1,0-0.2,0-0.3c-0.1-0.2-0.2-0.5-0.3-0.7c0-0.1-0.1-0.2-0.1-0.2
			c-0.1-0.1-0.1-0.1-0.2-0.2c-0.1-0.1-0.2-0.1-0.3-0.1c-0.1,0-0.2,0-0.3,0c-0.1,0-0.1,0-0.2,0.1c-0.1,0.1-0.2,0.2-0.3,0.3
			c0,0.1,0,0.1-0.1,0.2c0,0.1,0,0.3,0,0.4c0,0.1,0.1,0.2,0.1,0.3c0.1,0.1,0.1,0.2,0.2,0.3c0.1,0.1,0.3,0.3,0.4,0.3
			c0.1,0.1,0.2,0.1,0.4,0.1c0.1,0,0.3,0,0.4-0.1c0.2-0.1,0.4-0.4,0.4-0.6c0-0.1,0-0.3-0.1-0.4c0,0,0-0.1-0.1-0.1c0,0,0-0.1-0.1-0.1
			c0,0-0.1-0.1-0.1-0.1c0,0-0.1,0-0.1-0.1c0,0-0.1,0-0.1,0c0,0-0.1,0-0.1,0c-0.1,0-0.2,0-0.2,0c-0.1,0-0.2,0-0.3,0c0,0,0,0,0,0
			c0,0,0,0,0,0c-0.1,0-0.1,0.1-0.2,0.1c-0.1,0-0.1,0.1-0.2,0.1c0,0,0,0,0,0c0,0-0.1,0.1-0.1,0.1c0,0,0,0,0,0c0,0,0,0,0,0
			c0,0.1,0,0.1-0.1,0.2c0,0,0,0,0,0c0,0.1,0,0.3,0,0.4c0,0.1,0.1,0.2,0.1,0.2c0.1,0.1,0.1,0.1,0.2,0.2c0.1,0.1,0.2,0.1,0.3,0.1
			c0.1,0,0.2,0,0.3,0c0.1,0,0.1,0,0.2-0.1c0.1-0.1,0.2-0.2,0.3-0.3c0-0.1,0-0.1,0.1-0.2c0-0.1,0-0.3,0-0.4c0,0,0,0,0,0
			c0,0.1,0,0.1,0,0.2c0,0,0,0,0,0c0,0.1,0,0.1,0,0.2c0,0,0,0,0,0c0,0.1,0,0.1-0.1,0.2c0,0,0,0,0,0c0,0-0.1,0.1-0.1,0.1c0,0,0,0,0,0
			c0,0-0.1,0.1-0.1,0.1c0,0,0,0,0,0c-0.1,0-0.1,0-0.2,0.1c0,0,0,0,0.1,0c-0.1,0-0.1,0-0.2,0c0,0,0,0,0.1,0c-0.1,0-0.1,0-0.2,0
			c0,0,0,0,0,0c-0.1,0-0.1,0-0.2-0.1c0,0,0,0,0,0c0,0-0.1-0.1-0.1-0.1c0,0,0,0,0,0c0,0-0.1-0.1-0.1-0.1c0,0,0,0,0,0
			c0-0.1,0-0.1-0.1-0.2c0,0,0,0,0,0c0-0.1,0-0.1,0-0.2c0,0,0,0,0,0c0.4-0.2,0.7-0.4,1.1-0.6c0,0,0,0-0.1,0c0,0,0.1,0.1,0.1,0.1
			c-0.1-0.1-0.1-0.1-0.2-0.2c0,0,0.1,0.1,0.1,0.1c-0.1-0.1-0.1-0.2-0.1-0.2c0,0.1,0,0.1,0.1,0.2c0,0,0,0,0-0.1
			c-0.5,0.1-0.9,0.3-1.4,0.4c0.1,0.2,0.2,0.5,0.3,0.7c0.4-0.3,0.7-0.5,1.1-0.8c0,0-0.1,0-0.1-0.1c0,0,0.1,0.1,0.1,0.1
			c-0.1-0.1-0.2-0.1-0.2-0.2c0,0,0.1,0.1,0.1,0.1c-0.1-0.1-0.1-0.2-0.2-0.3c0,0-0.1-0.1-0.1-0.1c-0.1-0.1-0.1-0.1-0.2-0.2
			c-0.1,0-0.1,0-0.2,0c-0.1,0-0.2,0-0.3,0c-0.1,0-0.1,0-0.2,0.1c0,0-0.1,0.1-0.1,0.1c-0.1,0.1-0.1,0.1-0.2,0.2
			c0,0.1-0.1,0.2-0.1,0.3c0,0.2,0,0.4,0,0.6c0,0.1,0,0.2,0.1,0.3c0,0.1,0.1,0.2,0.2,0.2c0.1,0.1,0.1,0.1,0.2,0.2
			c0.1,0,0.2,0.1,0.3,0.1c0.1,0,0.1,0,0.2,0c0.1,0,0.2-0.1,0.3-0.2C82.8,127,82.9,126.9,82.9,126.7L82.9,126.7z"/>
	</g>
</g>
<g>
	<g>
		<path class="st10" d="M107.3,118.6c-1.2-0.2-1.4,1.6-0.2,1.6c0.4,0,0.8-0.3,0.9-0.7c0.1-0.5-0.2-0.9-0.6-1.2c-0.6-0.4-1.4,0.4-1,1
			c0.7,1.1,1.3,2.3,2,3.4c0.2,0.3,0.6,0.4,0.9,0.3c0.4-0.2,0.5-0.5,0.4-0.9c-0.1-1-0.5-2-1.1-2.9c-0.4,0.2-0.8,0.5-1.3,0.7
			c0.3,0.4,0.6,0.8,0.9,1.2c0.4,0.6,1.3,0.4,1.4-0.4c0-0.5-0.1-1-0.3-1.4c-0.1-0.2-0.3-0.4-0.4-0.6c-0.2-0.2-0.4-0.3-0.5-0.4
			c0.1,0.1,0.1,0.2,0.2,0.3c0,0,0,0,0,0c0,0.1-0.1,0.2-0.1,0.4c0.1-0.1,0.4-0.3,0.6-0.4c0.3-0.2,0.5-0.4,0.8-0.5
			c-0.3-0.4-0.6-0.8-0.9-1.1c-0.2,0.3-0.5,0.6-0.7,0.9c-0.6,0.7,0.3,1.7,1,1c1.2-1.1,1.7-2.8,1.2-4.4c-0.3-0.9-1.7-0.5-1.4,0.4
			c0.4,1.3,0.7,2.6,1.1,3.9c0.3,1,0.6,2.1,0.1,3c0.2-0.1,0.4-0.2,0.6-0.4c-0.4,0-0.7,0-1.1,0c0.2,0.2,0.5,0.5,0.7,0.7
			c-0.1-1.2-0.1-2.4-0.2-3.7c0-0.9-1.4-0.9-1.5,0c-0.1,0.8,0,1.6,0.2,2.4c0.1,0.6,1,0.7,1.3,0.2c0.4-0.8,0.5-1.6,0.3-2.4
			c-0.2-0.7-1.2-0.7-1.4,0c-0.2,0.9-0.2,1.8,0.1,2.7c0.2,0.7,1.1,0.7,1.4,0c0.3-0.9,0.3-1.8-0.1-2.6c-0.3-0.6-1.2-0.4-1.3,0.2
			c-0.4,1.2-0.5,2.5-0.2,3.8c0.1,0.4,0.5,0.6,0.9,0.5c0.9-0.3,1.2-1.5,0.5-2.1c-0.7-0.6-1.7,0.4-1,1c-0.1-0.1,0-0.3,0.1-0.3
			c0.3,0.2,0.6,0.3,0.9,0.5c-0.2-1-0.1-2,0.2-3c-0.4,0.1-0.9,0.1-1.3,0.2c0.2,0.5,0.1,1,0,1.5c0.5,0,0.9,0,1.4,0
			c-0.2-0.6-0.2-1.3-0.1-1.9c-0.5,0-0.9,0-1.4,0c0.1,0.4,0,0.9-0.2,1.3c0.4,0.1,0.9,0.1,1.3,0.2c-0.2-0.7-0.2-1.3-0.1-2
			c-0.5,0-1,0-1.5,0c0.1,1.2,0.1,2.4,0.2,3.7c0,0.4,0.3,0.7,0.7,0.7c0.4,0,1,0.1,1.3-0.1c0.4-0.2,0.6-0.7,0.7-1.1
			c0.2-0.7,0.1-1.5,0-2.3c-0.3-1.7-0.9-3.3-1.3-5c-0.5,0.1-0.9,0.3-1.4,0.4c0.4,1.1,0,2.2-0.8,3c0.3,0.3,0.7,0.7,1,1
			c0.2-0.3,0.5-0.6,0.7-0.9c0.2-0.3,0.3-0.7,0.1-1c-0.2-0.3-0.6-0.4-0.9-0.2c-0.4,0.3-0.8,0.6-1.2,0.8c-0.4,0.3-0.8,0.6-0.7,1.2
			c0.1,0.5,0.5,0.6,0.8,1c0.2,0.3,0.3,0.6,0.2,0.9c0.5-0.1,0.9-0.2,1.4-0.4c-0.3-0.4-0.6-0.8-0.9-1.2c-0.2-0.3-0.6-0.5-1-0.3
			c-0.3,0.2-0.5,0.7-0.3,1c0.5,0.8,0.8,1.6,0.9,2.6c0.4-0.2,0.9-0.4,1.3-0.6c-0.7-1.1-1.3-2.3-2-3.4c-0.3,0.3-0.7,0.7-1,1
			c0,0,0,0,0,0c0-0.1-0.1-0.2-0.1-0.4c0,0,0-0.1,0-0.1c0.1-0.1,0.2-0.2,0.3-0.3c0,0,0,0-0.1,0c0.1,0,0.2-0.1,0.4-0.1c0,0,0,0-0.1,0
			c0.1,0,0.2,0.1,0.4,0.1c0,0,0,0,0,0c0.1,0.1,0.2,0.3,0.3,0.4c0,0,0,0.1,0,0.1c0,0.1-0.1,0.2-0.1,0.4c0,0,0,0,0-0.1
			c-0.1,0.1-0.2,0.2-0.3,0.3c0,0,0,0,0,0c-0.2,0-0.4,0-0.6,0.1c0,0,0,0,0.1,0C107.8,120.2,108.2,118.8,107.3,118.6L107.3,118.6z"/>
	</g>
</g>
<g>
	<g>
		<path class="st9" d="M107.9,114.4C107.9,114.4,107.9,114.4,107.9,114.4c0,0,0.1,0.1,0.1,0.1c0,0,0,0,0,0c0,0.1,0,0.1,0.1,0.2
			c0,0,0,0,0,0c0,0.1,0,0.1,0,0.2c0,0,0,0,0,0c0,0.1,0,0.1,0,0.2c0,0,0,0,0,0c0,0.1,0,0.1-0.1,0.2c0,0,0,0,0,0c0,0-0.1,0.1-0.1,0.1
			c0,0,0,0,0,0c0,0-0.1,0.1-0.1,0.1c0,0,0,0,0,0c-0.1,0-0.1,0-0.2,0.1c0,0,0,0,0,0c-0.1,0-0.1,0-0.2,0c0,0,0,0,0,0
			c-0.1,0-0.1,0-0.2,0c0,0,0,0,0,0c-0.1,0-0.1,0-0.2-0.1c0,0,0,0,0,0c0,0-0.1-0.1-0.1-0.1c0,0,0,0,0,0c0,0-0.1-0.1-0.1-0.1
			c0,0,0,0,0,0.1c0-0.1,0-0.1-0.1-0.2c0,0.1,0,0.1,0,0.2c0-0.1,0-0.1,0-0.2c0,0,0,0,0,0c0,0.1,0,0.1,0,0.2c0,0.1,0.1,0.2,0.1,0.2
			c0,0.1,0.1,0.1,0.1,0.1c0.1,0.1,0.2,0.1,0.2,0.1c0.1,0,0.3,0,0.4,0c0.1,0,0.2-0.1,0.2-0.1c0.1-0.1,0.1-0.1,0.2-0.2
			c0.1-0.1,0.2-0.3,0.2-0.4c-0.4,0-0.8,0-1.3,0c0.1,0.1,0.1,0.2,0.2,0.4c0-0.1,0-0.1-0.1-0.2c0.1,0.2,0.1,0.4,0.2,0.6
			c0,0.1,0.1,0.2,0.1,0.2c0.1,0.1,0.1,0.1,0.2,0.2c0.1,0.1,0.2,0.1,0.3,0.1c0.1,0,0.2,0,0.3,0c0.2-0.1,0.3-0.2,0.4-0.3
			c0-0.1,0-0.1,0.1-0.2c0-0.1,0-0.3,0-0.4c0-0.2-0.1-0.3-0.1-0.5c-0.1-0.2-0.2-0.4-0.3-0.6c-0.1-0.2-0.4-0.4-0.6-0.4
			c-0.3,0-0.5,0.1-0.6,0.4c-0.1,0.1-0.2,0.3-0.2,0.4c0.5,0.1,0.9,0.2,1.4,0.4c0-0.1,0-0.2,0-0.3c0-0.1-0.1-0.2-0.1-0.3
			c0,0-0.1-0.1-0.1-0.1c-0.1-0.1-0.1-0.1-0.2-0.2c-0.1-0.1-0.1-0.1-0.3-0.2c0,0,0,0,0,0c0,0-0.1,0-0.1,0c0,0-0.1,0-0.1,0
			c0,0,0,0,0,0c-0.1,0-0.2,0-0.2,0c-0.1,0-0.1,0.1-0.2,0.1c-0.1,0-0.2,0.1-0.2,0.2c-0.1,0.2-0.2,0.4-0.2,0.6c0,0.1,0,0.2,0,0.2
			c0,0.2,0.1,0.2,0.2,0.3c0.1,0.1,0.1,0.1,0.2,0.2c0.1,0,0.2,0.1,0.3,0.1c0.1,0,0.2,0,0.3-0.1c0.1,0,0.2-0.1,0.2-0.2
			c0.1-0.1,0.2-0.3,0.2-0.5c0-0.1,0-0.1,0-0.2C108,114.6,107.9,114.5,107.9,114.4L107.9,114.4z"/>
	</g>
</g>
<g>
	<g>
		<path class="st9" d="M108.5,116c0.9,0,0.9-1.5,0-1.5C107.5,114.6,107.5,116,108.5,116L108.5,116z"/>
	</g>
</g>
<g>
	<g>
		<path class="st9" d="M109.2,115.5c0.2-0.5,0.2-1.2,0.1-1.7c0-0.1,0-0.1-0.1-0.2c0-0.1-0.1-0.2-0.2-0.2c-0.1-0.1-0.3-0.2-0.4-0.2
			c-0.3,0-0.6,0.2-0.7,0.5c-0.1,0.5-0.2,1.1-0.1,1.7c0,0.1,0,0.1,0,0.2c0,0.1,0.1,0.2,0.1,0.2c0.1,0.1,0.2,0.2,0.4,0.3
			c0.1,0,0.3,0,0.4,0c0.2,0,0.4-0.2,0.4-0.3C109.1,115.7,109.2,115.6,109.2,115.5c0.1,0,0.1-0.1,0.2-0.2
			C109.3,115.4,109.2,115.4,109.2,115.5c0.1,0,0.1-0.1,0.1-0.1C109.2,115.4,109.2,115.5,109.2,115.5
			C109.1,115.5,109.1,115.5,109.2,115.5c0,0-0.1,0.1-0.2,0.1C109,115.6,109,115.6,109.2,115.5c-0.1,0.1-0.2,0.1-0.3,0.1
			c0,0,0.1,0,0.1,0c-0.1,0-0.1,0-0.2,0c0,0,0.1,0,0.1,0c-0.1,0-0.1,0-0.2-0.1c0,0,0.1,0,0.1,0.1c0,0-0.1-0.1-0.1-0.1
			c0,0,0,0,0.1,0.1c0,0-0.1-0.1-0.1-0.1c0,0,0,0,0,0.1c0-0.1,0-0.1-0.1-0.2c0,0,0,0,0,0.1c0-0.1,0-0.1,0-0.2c0,0,0,0,0,0.1
			c0-0.1,0-0.1,0-0.2c0,0,0,0,0,0.1c0-0.1,0-0.1,0.1-0.2c0,0,0,0,0,0.1c0,0,0.1-0.1,0.1-0.1c0,0,0,0,0,0c0,0,0.1-0.1,0.1-0.1
			c0,0,0,0-0.1,0c0.1,0,0.1,0,0.2-0.1c0,0-0.1,0-0.1,0c0.1,0,0.1,0,0.2,0c0,0-0.1,0-0.1,0c0.1,0,0.1,0,0.2,0c0,0-0.1,0-0.1,0
			c0.1,0,0.1,0,0.2,0.1c0,0-0.1,0-0.1-0.1c0,0,0.1,0.1,0.1,0.1c0,0,0,0-0.1-0.1c0,0,0.1,0.1,0.1,0.1c0,0,0,0,0-0.1
			c0,0.1,0,0.1,0.1,0.2c0,0,0,0,0-0.1c0,0.1,0,0.1,0,0.2c0,0,0,0,0-0.1c0-0.2-0.1-0.4-0.2-0.5c-0.1-0.1-0.3-0.2-0.5-0.2
			c-0.2,0-0.4,0.1-0.5,0.2c0,0-0.1,0.1-0.1,0.1c-0.1,0.1-0.1,0.2-0.1,0.4c0,0.2,0.1,0.5,0.2,0.6c0.1,0.2,0.3,0.3,0.5,0.4
			c0.4,0.1,0.8,0,1.1-0.2c0.2-0.2,0.3-0.4,0.3-0.7c0-0.1,0-0.2,0-0.3c0-0.1-0.1-0.2-0.1-0.3c-0.1-0.2-0.2-0.3-0.4-0.4
			c-0.2-0.1-0.4-0.2-0.7-0.1c-0.1,0-0.2,0-0.4,0.1c-0.1,0.1-0.3,0.2-0.3,0.3c-0.1,0.1-0.2,0.3-0.2,0.5
			C108.3,115.2,108.7,115.3,109.2,115.5c0-0.4,0-0.7,0-1.1c0,0.1,0,0.1,0,0.2c0-0.2,0.1-0.3,0.1-0.5c-0.5,0-0.9,0-1.4,0
			c0,0.1,0,0.1,0,0.2c0-0.1,0-0.1,0-0.2c0,0.2,0,0.4,0,0.6c0-0.1,0-0.1,0-0.2c0,0.2-0.1,0.4-0.1,0.5c-0.1,0.2,0,0.4,0.1,0.6
			c0.1,0.2,0.3,0.3,0.4,0.3c0.2,0,0.4,0,0.6-0.1c0,0,0.1-0.1,0.1-0.1C109.1,115.7,109.1,115.6,109.2,115.5L109.2,115.5z"/>
	</g>
</g>
<g>
	<g>
		<path class="st3" d="M82.6,123.7c0.1,0.5,0.3,1,0.5,1.5c0.4-0.2,0.8-0.5,1.3-0.7c-0.2-0.4-0.3-0.7-0.5-1.1
			c-0.4,0.2-0.8,0.5-1.3,0.7c0.3,0.5,0.5,1.1,0.8,1.6c0,0.1,0.1,0.1,0.1,0.2c0.1,0.1,0-0.1,0,0.1c0.1,0.1,0.1,0.3,0.2,0.4
			c0.1,0.3,0.2,0.6,0.3,0.9c0.1,0.4,0.5,0.6,0.9,0.5c0.4-0.1,0.6-0.5,0.5-0.9c-0.4-1.2-1-2.4-1.5-3.5c-0.2-0.3-0.7-0.5-1-0.3
			c-0.4,0.2-0.4,0.6-0.3,1c0.2,0.4,0.3,0.7,0.5,1.1c0.2,0.3,0.7,0.5,1,0.3c0.4-0.2,0.4-0.6,0.3-1c0.1,0.1,0,0,0,0
			c0-0.1,0-0.1-0.1-0.2c0-0.1-0.1-0.2-0.1-0.3c-0.1-0.2-0.1-0.4-0.2-0.6c-0.1-0.4-0.5-0.6-0.9-0.5C82.8,122.9,82.5,123.3,82.6,123.7
			L82.6,123.7z"/>
	</g>
</g>
<g>
	<g>
		<path class="st3" d="M86.9,128.8C86.9,128.8,86.9,128.8,86.9,128.8c0,0,0,0-0.1,0C86.8,128.8,86.9,128.8,86.9,128.8
			c0,0-0.1,0-0.1,0C86.8,128.7,86.8,128.8,86.9,128.8c0,0-0.1,0-0.1-0.1C86.8,128.7,86.8,128.8,86.9,128.8c0,0-0.1,0-0.1-0.1
			C86.8,128.7,86.8,128.8,86.9,128.8C86.8,128.8,86.8,128.7,86.9,128.8C86.8,128.7,86.8,128.8,86.9,128.8
			C86.8,128.8,86.8,128.7,86.9,128.8C86.8,128.7,86.8,128.8,86.9,128.8c-0.1,0,0-0.1,0-0.1C86.8,128.7,86.8,128.7,86.9,128.8
			c-0.2,0.3,0.1,0.8,0.5,0.8c0.5,0.1,1,0.2,1.5,0.3c0.2,0,0.4,0,0.6-0.1c0.2-0.1,0.3-0.3,0.3-0.4c0.1-0.4-0.1-0.8-0.5-0.9
			c-0.5-0.1-1-0.2-1.5-0.3c0.2,0.3,0.3,0.6,0.5,0.9c0.2-0.9-0.5-1.8-1.4-1.8c-0.4,0-0.7,0.3-0.7,0.7
			C86.2,128.4,86.5,128.8,86.9,128.8L86.9,128.8z"/>
	</g>
</g>
<circle class="st4" cx="79.8" cy="58.7" r="5"/>
<circle class="st4" cx="90.3" cy="59.2" r="5.1"/>
<path class="st9" d="M91.4,72.4l-0.1-1.1c-0.3-0.6-0.7-1.2-1.1-1.7c-0.4-0.3-0.8-0.6-1.3-0.9l-1.1-0.5l-0.7,0
	c-0.2,0.1-0.4,0.2-0.6,0.3c-1.7,0.4-3.3,0.8-5,0c-0.1,0-0.1-0.1-0.2-0.1l-0.6,0l-1.3,1.4L78.2,71l-0.2,1.4l1.1,1.2l1.6,0.4l0.9,0.1
	l1.7-0.4l1.5-0.4l1.9-0.1l2,0.5l1.2-0.1l1.2-0.5L91.4,72.4z"/>
<g>
	<g>
		<path class="st9" d="M79.1,71.7C79,71.7,79,71.7,79.1,71.7c0-0.1,0-0.3,0-0.4c0,0,0,0,0,0c0.1-0.1,0.2-0.2,0.3-0.3
			c-0.2,0.1-0.4,0.2-0.6,0.4c-0.2,0.2-0.3,0.4-0.4,0.7c-0.2,0.5-0.1,1,0.2,1.4c0.4,0.6,1.4,0.4,1.4-0.4c0-0.6-0.2-1.1-0.4-1.6
			c-0.4-0.7-1.6-0.2-1.3,0.6c0.1,0.2,0.1,0.5,0.2,0.7c0.3-0.3,0.6-0.6,0.9-0.9c-1.1-0.2-1.7,1.1-1,2c0.6,0.7,1.6,0.7,2.4,0.6
			c1.1-0.2,2.1-0.6,3.1-0.9c1.1-0.3,2.3-0.7,3.4-1c0.9-0.3,0.5-1.7-0.4-1.4c-1.6,0.5-3.1,0.9-4.7,1.4c-0.7,0.2-1.4,0.5-2.1,0.6
			c-0.2,0-0.4,0-0.6,0c0.1,0-0.3-0.1-0.2-0.1c0,0,0,0.1,0,0.1c0,0.1-0.1,0.2-0.3,0.3c-0.1,0-0.3,0-0.4,0c0,0,0.1,0,0.1,0
			c0.5,0.1,1.1-0.3,0.9-0.9c-0.1-0.2-0.1-0.5-0.2-0.7c-0.4,0.2-0.9,0.4-1.3,0.6c0.1,0.3,0.2,0.6,0.2,0.9c0.5-0.1,0.9-0.2,1.4-0.4
			c-0.1-0.2,0-0.3,0.2-0.4c0.5-0.3,0.6-0.9,0.3-1.4C79.8,70.1,78.6,70.8,79.1,71.7L79.1,71.7z"/>
	</g>
</g>
<g>
	<g>
		<path class="st9" d="M85.5,73.1c1.4,0.8,3.4,1,4.8,0c0.7-0.5,1.2-1.2,1.1-2c-0.1-0.8-0.5-1.6-1.3-1.8c-0.4-0.1-0.8,0.1-0.9,0.5
			c-0.1,0.4,0.1,0.8,0.5,0.9c0.1,0,0.1,0.1,0,0c0.1,0,0.1,0.1,0,0c0,0,0.1,0.1,0.1,0.1c-0.1-0.1,0,0,0,0c0.1,0.1,0-0.1,0,0
			c0,0,0,0.1,0,0.1c0,0,0,0.1,0,0.1c0-0.1,0-0.1,0,0c0,0,0,0.1,0,0.1c0,0.2,0-0.1,0,0c0,0.1,0,0.1-0.1,0.2c0.1-0.1,0,0,0,0.1
			c0,0-0.1,0.2,0,0.1c0,0.1-0.1,0.1-0.1,0.1c0,0-0.1,0.1-0.1,0.1c0,0-0.1,0.1-0.1,0.1c-0.1,0-0.1,0.1-0.2,0.1c0,0-0.1,0.1-0.1,0
			c-0.1,0-0.1,0.1-0.2,0.1c-0.1,0-0.3,0.1-0.4,0.1c0,0-0.2,0-0.1,0c-0.1,0-0.2,0-0.2,0c-0.1,0-0.3,0-0.4,0c-0.1,0-0.1,0-0.2,0
			c-0.1,0-0.1,0,0,0c0,0-0.1,0-0.1,0c-0.2,0-0.3-0.1-0.5-0.1c-0.3-0.1-0.5-0.2-0.8-0.3c-0.3-0.2-0.8-0.1-1,0.3
			C85,72.5,85.1,72.9,85.5,73.1L85.5,73.1z"/>
	</g>
</g>
<g>
	<g>
		<path class="st4" d="M82.2,75c-0.3,0.4-0.4,0.8-0.4,1.3c0,0.3,0.4,0.5,0.6,0.5c0.3,0,0.6-0.1,0.7-0.3c0.2-0.3,0.3-0.7,0.3-1.1
			c0-0.4-0.3-0.7-0.7-0.7c-0.2,0-0.4,0-0.6,0c0.2,0.4,0.4,0.7,0.6,1.1c0.2-0.3,0.6-0.5,0.9-0.6c0.7-0.1,1.3,0.1,1.9,0.3
			c0.1-0.5,0.1-1,0.2-1.4c-0.1,0-0.1,0-0.1,0c0.1,0.1-0.1-0.1-0.1-0.1c0,0.3,0,0.7,0,1c-0.3,0.1-0.4,0.1-0.2,0.1c-0.1,0,0,0,0.1,0
			c0.1,0,0.2,0,0.4,0.1c0.2,0,0.4,0.1,0.6,0.2c0.2,0.1,0.2,0.1,0.3,0.3c-0.1-0.1,0.1,0.2,0,0.1c0,0.1,0,0.1,0,0c0,0.1,0,0.1,0,0
			c0.5,0.1,0.9,0.2,1.4,0.4c0-0.5,0-1-0.1-1.4c-0.5,0.1-1,0.1-1.4,0.2c0.3,1,0.4,2,0.4,3.1c0,0.4,0.3,0.7,0.6,0.7
			c0.3,0,0.7-0.2,0.8-0.5c0.1-0.7,0-1.3-0.3-2c-0.2-0.3-0.6-0.4-0.9-0.3c-0.3,0.2-0.5,0.5-0.4,0.9c0.1,0.3,0.1,0.7,0,0.9
			c0,0-0.1,0,0,0c0,0,0,0,0,0c-0.1,0,0,0,0,0c0,0,0.1,0,0.1,0c0,0-0.1-0.1-0.1-0.1c-0.4-0.6-0.6-1.5-0.6-2.2c-0.5,0.1-1,0.1-1.4,0.2
			c0.2,0.7,0.5,1.5,0.9,2.1c0.1,0.3,0.4,0.4,0.7,0.3c0.3,0,0.5-0.2,0.6-0.5c0.3-0.6,0.3-1.3,0.1-2c-0.1-0.6-1-0.7-1.3-0.2
			c-0.2,0.4-0.3,0.8-0.3,1.2c0.5-0.1,1-0.1,1.4-0.2c-0.2-0.9-0.6-1.9-1.7-2.1c-0.5-0.1-1,0-1.4,0.4c-0.1,0.1-0.2,0.2-0.2,0.3
			c0,0.1-0.1,0.3-0.1,0.3c0.2-0.2,0.3-0.3,0.5-0.2c0.1,0,0.1,0.1,0.1,0.1c0,0-0.1-0.3-0.1-0.4c-0.1-0.6-1.1-0.7-1.3-0.2
			c-0.4,0.7-0.6,1.5-0.6,2.3c-0.1,0.8,1.3,1,1.4,0.2c0.1-0.7,0-1.5-0.4-2.1c-0.2-0.2-0.4-0.4-0.7-0.3c-0.3,0-0.5,0.2-0.6,0.5
			c-0.2,0.7-0.1,1.4,0.1,2c0.3,0.7,1.1,0.7,1.4,0c0.3-0.7,0-1.6-0.5-2c-0.4-0.3-1.1-0.3-1.2,0.3c-0.1,0.8-0.1,1.7,0.2,2.5
			c0.3,0.8,0.9,1.8,1.8,1.8c0.8,0,1.4-0.7,1.5-1.4c0.2-0.8,0.1-1.8-0.1-2.6c-0.1-0.3-0.4-0.5-0.7-0.5c-0.3,0-0.7,0.2-0.7,0.5
			c-0.1,0.4,0,0.8,0.2,1.2c0,0.1,0.1,0.1,0.1,0.2c0,0,0,0.2,0,0.1c0,0,0,0.2,0,0.1c0,0.1-0.1,0.1,0,0c0.1-0.1,0.1-0.1,0.2-0.1
			c0,0,0.2,0.1,0.1,0c-0.1,0,0,0,0,0c0-0.1,0-0.1,0,0c0,0,0,0,0-0.1c0,0.1,0.1-0.1,0.1-0.1c0.1-0.2,0.2-0.3,0.3-0.5
			c-0.4-0.2-0.9-0.4-1.3-0.6c-0.1,0.4-0.2,0.9-0.3,1.3c0.5,0,0.9,0,1.4,0c-0.1-0.2-0.1-0.3-0.1-0.5c0,0.1,0-0.1,0-0.1
			c0,0.1,0.1-0.2,0.1-0.1c-0.3,0-0.7,0-1,0c0.1,0.1,0.1,0.2,0.1,0.4c0,0.4,0.3,0.7,0.7,0.7c0.4,0,0.7-0.3,0.7-0.7
			c0-0.5-0.2-1-0.5-1.4c-0.2-0.3-0.8-0.3-1,0c-0.5,0.6-0.7,1.4-0.4,2.1c0.1,0.3,0.4,0.5,0.7,0.5c0.3,0,0.6-0.2,0.7-0.5
			c0.1-0.4,0.2-0.9,0.3-1.3c0.2-0.8-0.9-1.3-1.3-0.6c-0.3,0.5-0.6,1.1-0.5,1.8c0.1,0.6,0.7,1.1,1.3,1.1c0.7,0,1.1-0.5,1.2-1.1
			c0-0.3,0-0.5-0.1-0.8c-0.1-0.2-0.2-0.5-0.2-0.6c-0.5,0-0.9,0-1.4,0c0.1,0.6,0.2,1.2,0.1,1.7c0-0.1,0,0,0,0c0,0.1,0,0.1,0,0.2
			c0,0,0,0.1,0,0.1c0-0.1,0,0.1-0.1,0.1c0,0,0,0.1,0,0c0,0,0,0,0,0c-0.1,0-0.1,0.1,0,0c0,0,0.2-0.1,0.1,0c-0.1,0,0.1,0,0.1,0
			c0,0,0,0,0,0c0,0,0,0,0,0c-0.1-0.1-0.1-0.1-0.2-0.2c-0.1-0.2-0.3-0.4-0.3-0.7c-0.2-0.5-0.2-1-0.1-1.5c-0.4,0.1-0.8,0.2-1.2,0.3
			c0.2,0.2,0.3,0.3,0.2,0.6c0.5,0,0.9,0,1.4,0c-0.2-0.4-0.2-0.8-0.1-1.3c-0.4,0.1-0.9,0.1-1.3,0.2c0.2,0.3,0.3,0.7,0.3,1
			c0.5,0.1,1,0.1,1.4,0.2c0-0.5,0.2-1.1,0.4-1.5c-0.4-0.1-0.9-0.1-1.3-0.2c0.1,0.6,0.4,1.1,1,1.2c0.3,0.1,0.7,0,1-0.2
			c0.1-0.1,0.2-0.2,0.3-0.3c0.1-0.2,0.1-0.2,0.1-0.1c0-0.1,0-0.1,0,0c0,0,0,0-0.1,0.1c0.1,0,0.1,0,0,0c0.1,0,0.1,0,0,0
			c0,0,0.1,0,0.1,0c-0.1,0,0.1,0,0.1,0c-0.1,0-0.1,0,0,0c-0.1,0-0.1,0,0,0c0.3,0.2,0.3,0.6,0.4,1c0.2,0.8,1.5,0.6,1.4-0.2
			c0-0.2,0-0.3,0.1-0.5c-0.4-0.1-0.9-0.1-1.3-0.2c0.1,0.4,0,0.8-0.1,1.2c0.4-0.1,0.9-0.1,1.3-0.2c-0.3-0.6-0.6-1.1-0.7-1.8
			c-0.2-0.8-1.5-0.6-1.4,0.2c0,0.7,0.2,1.3,0.4,2c0.2,0.6,0.5,1.3,1.1,1.6c0.7,0.4,1.4,0.1,1.9-0.5c0.4-0.6,0.3-1.4,0.2-2
			c-0.4,0.2-0.9,0.4-1.3,0.6c0.1,0.3,0.2,0.6,0.2,0.8c0.5,0.1,1,0.1,1.4,0.2c0-1.2-0.1-2.3-0.4-3.5c-0.2-0.8-1.5-0.6-1.4,0.2
			c0,0.5,0,1,0.1,1.4c0,0.3,0.2,0.6,0.5,0.7c0.3,0.1,0.7,0,0.8-0.3c0.4-0.9,0-1.9-0.8-2.4c-0.4-0.2-0.8-0.4-1.2-0.4
			c-0.5-0.1-1-0.2-1.5,0.2c-0.3,0.3-0.2,0.7,0,1c0.3,0.4,0.8,0.6,1.2,0.6c0.8,0,1-1.2,0.2-1.4c-0.9-0.3-1.7-0.5-2.7-0.3
			c-0.8,0.1-1.5,0.6-1.8,1.3c-0.3,0.5,0.1,1.1,0.6,1.1c0.2,0,0.4,0,0.6,0c-0.2-0.2-0.5-0.5-0.7-0.7c0,0.1,0,0.2-0.1,0.3
			c0.4,0.1,0.9,0.1,1.3,0.2c0,0,0,0,0,0.1c0.2-0.3,0.3-0.7,0-1C82.9,74.7,82.4,74.6,82.2,75L82.2,75z"/>
	</g>
</g>
<g>
	<g>
		<path class="st4" d="M82.8,75.1C82.8,75.1,82.8,75.1,82.8,75.1c0,0,0,0.1,0,0.1C82.8,75.2,82.8,75.2,82.8,75.1c0,0,0,0.1,0,0.2
			C82.8,75.2,82.8,75.2,82.8,75.1c0,0,0,0.1,0,0.2C82.8,75.2,82.9,75.2,82.8,75.1c0,0,0,0.1,0,0.1c0.1-0.1,0.1-0.1,0.2-0.2
			C82.9,75.1,82.9,75.1,82.8,75.1c0.1,0,0.1-0.1,0.2-0.1C83,75.1,82.9,75.1,82.8,75.1c0.1,0,0.2-0.1,0.3-0.1c-0.1,0-0.1,0-0.2,0
			c0.1,0,0.2,0,0.2,0c-0.1,0-0.1,0-0.2,0c0.1,0,0.1,0,0.2,0c-0.1,0-0.1,0-0.2-0.1c0.1,0,0.1,0.1,0.1,0.1c0,0-0.1-0.1-0.1-0.1
			c0,0,0,0,0,0c0.2,0.1,0.3,0.2,0.5,0.2c0.2,0,0.4-0.1,0.5-0.2c0.1-0.1,0.2-0.3,0.2-0.5c0-0.2-0.1-0.4-0.2-0.5
			c-0.1-0.1-0.2-0.2-0.3-0.2c-0.2-0.1-0.3-0.1-0.4-0.1c-0.2,0-0.5,0-0.7,0.1c-0.3,0.1-0.5,0.2-0.7,0.4c-0.1,0.1-0.3,0.3-0.4,0.5
			c0,0.1-0.1,0.2-0.1,0.3c0,0.1,0,0.2,0,0.3c0,0.1,0,0.3,0,0.4c0,0.2,0.2,0.3,0.3,0.4c0.2,0.1,0.4,0.1,0.6,0.1
			c0.2-0.1,0.3-0.2,0.4-0.3C82.8,75.5,82.9,75.3,82.8,75.1L82.8,75.1z"/>
	</g>
</g>
<polygon class="st10" points="82,87.3 80.2,85.2 80.3,87.6 78.3,88.2 76.6,88.7 75.5,90 76,92.2 77.8,94.1 80,94.7 82.3,93.7 
	83.1,92 82.2,90 "/>
<path class="st9" d="M103.3,52.4l4-3.9l4.6-2l4.4-0.1c0,0,3.2,0.3,4,0.6c0.8,0.3,4.2,2.2,4.2,2.2l3.9,0.9l4.7,3.1l2.9,5l1,6.1
	l-0.8,4.8l-1.8,3.8l-2.8,3.4l-6.4,3.7l0.6-4.3l-1-3l-2.5-1.9l-3.3-1.1l-2.3-0.5l-0.3-2.2l-1.3-3l-1.6-1.9l-2.8-1.7l-4.7-0.6H102
	L103.3,52.4z"/>
<g>
	<g>
		<path class="st10" d="M72.6,51.5c-0.1,0.5,0,1,0.3,1.3c0.5,0.4,1.2,0.1,1.2-0.5c0-0.5-0.1-1.1-0.2-1.6c-0.1-0.4-0.5-0.6-0.8-0.5
			c-0.4,0-0.6,0.3-0.6,0.7c0,0.8,0.1,1.5,0.4,2.2c0.1,0.3,0.4,0.6,0.8,0.5c0.3,0,0.6-0.4,0.6-0.7c0-0.4,0-0.9,0-1.3
			c-0.5,0.1-0.9,0.2-1.4,0.4c0.4,0.6,0.8,1.2,1.1,1.9c0.4-0.2,0.8-0.5,1.3-0.7c-0.2-0.4-0.4-0.8-0.6-1.2c-0.3,0.4-0.5,0.7-0.8,1.1
			c0.1,0,0,0,0,0c0,0,0.1,0,0.1,0.1c0.1,0,0,0,0,0c0,0,0.1,0.1,0.1,0.1c0.1,0.1,0,0,0,0c0,0,0,0.1,0.1,0.1c0.1,0.1,0-0.1,0,0
			c0,0,0,0.1,0,0.1c0,0,0,0.1,0,0c0-0.1,0,0,0,0c0,0,0,0.1,0,0c0-0.1,0,0,0,0c0,0-0.1,0.1,0,0c0-0.1,0,0,0,0c0,0-0.1,0.1,0,0
			c0.1-0.1-0.1,0.1-0.1,0.1c0,0-0.1,0.1-0.1,0.1c0,0,0.1,0,0,0c0,0-0.1,0-0.1,0.1c0,0,0.1,0,0,0c-0.2,0.1-0.4,0.2-0.6,0.4
			c-0.2,0.2-0.3,0.5-0.3,0.8c0,0.4,0.3,0.6,0.6,0.7c0.5,0.2,1.1-0.4,0.9-0.9c-0.2-0.5-0.3-0.9-0.4-1.4c0-0.1,0-0.2-0.1-0.3
			c0-0.1,0-0.1,0-0.2c0-0.1,0,0,0,0c0,0,0,0,0-0.1c0-0.2,0-0.5-0.1-0.7c0-0.4-0.3-0.7-0.7-0.7c-0.4,0-0.7,0.3-0.7,0.7
			c0,1.1,0.2,2.1,0.6,3.1c0.3-0.3,0.6-0.6,0.9-0.9c0,0,0,0,0,0c0.1,0.1,0.2,0.1,0.3,0.2c0,0.2,0.1,0.5,0.1,0.7c0,0,0,0.1-0.1,0.1
			c0.1-0.1,0,0,0,0c0,0,0.1-0.1,0.1-0.1c-0.1,0-0.1,0-0.1,0c0,0,0.1,0,0.1,0c0.2-0.1,0.4-0.2,0.6-0.3c0.3-0.3,0.5-0.7,0.6-1.1
			c0.1-0.9-0.4-1.8-1.3-2.1c-0.3-0.1-0.6,0-0.8,0.3c-0.2,0.2-0.2,0.5-0.1,0.8c0.2,0.4,0.4,0.8,0.6,1.2c0.2,0.3,0.7,0.5,1,0.3
			c0.4-0.2,0.4-0.6,0.3-1c-0.3-0.7-0.7-1.3-1.1-1.9c-0.2-0.3-0.5-0.4-0.8-0.3c-0.3,0.1-0.5,0.4-0.5,0.7c0,0.4,0,0.9,0,1.3
			c0.5-0.1,1-0.1,1.4-0.2c-0.1-0.3-0.2-0.6-0.3-1c0,0,0-0.3,0-0.1c0-0.1,0-0.1,0-0.2c0-0.2,0-0.3,0-0.5c-0.5,0.1-1,0.1-1.4,0.2
			C72.7,51.2,72.7,51.3,72.6,51.5C72.7,51.5,72.7,51.5,72.6,51.5c0.1,0.2,0.1-0.1,0.1,0.1c0,0.2,0,0.4,0,0.7
			c0.4-0.2,0.8-0.3,1.2-0.5c-0.1-0.1-0.1,0,0,0c0-0.1,0-0.1,0,0c0,0.1,0,0.1,0,0c0,0.1,0,0.1,0,0c0.1-0.4-0.1-0.8-0.5-0.9
			C73.1,50.9,72.8,51.1,72.6,51.5L72.6,51.5z"/>
	</g>
</g>
<g>
	<g>
		<path class="st10" d="M98.5,56.4c-0.2-0.6-0.7-0.9-1.3-0.7c0.3,0.4,0.5,0.7,0.8,1.1c0.8-1.3,1.5-2.7,2.3-4
			c-0.5-0.1-0.9-0.2-1.4-0.4c0,1.6-0.3,3.1-0.8,4.5c-0.1,0.4,0.2,0.8,0.5,0.9c0.4,0.1,0.8-0.1,0.9-0.5c0.4-1,0.6-2.1,0.6-3.2
			c0-0.4-0.3-0.7-0.7-0.7c-0.4,0-0.7,0.3-0.7,0.7c-0.1,0.8-0.3,1.6-0.7,2.3c0.4,0,0.8-0.1,1.1-0.1c-0.2-0.2-0.4-0.5-0.6-0.7
			c-0.4-0.5-1.2,0-1.2,0.5c-0.1,0.7,0.1,1.4,0.4,2.1c0.1,0.3,0.6,0.4,0.9,0.3c0.3-0.1,0.5-0.5,0.4-0.9c-0.1-0.5-0.3-0.9-0.4-1.4
			c-0.2-0.8-1.4-0.6-1.4,0.2c0,1.2,0.4,2.3,1,3.3c0.3,0.6,1.1,0.4,1.3-0.2c0.6-1.7,0.8-3.5,0.7-5.3c-0.5,0-1,0-1.5,0
			c0.1,0.9,0,1.7-0.2,2.5c-0.1,0.4,0.1,0.8,0.5,0.9c0.4,0.1,0.8-0.1,0.9-0.5c0.5-1.4,0.6-2.9,0.4-4.3c-0.1-0.4-0.5-0.6-0.9-0.5
			c-0.4,0.1-0.6,0.5-0.5,0.9c0.2,1.2,0.1,2.4-0.4,3.5c0.5,0.1,0.9,0.3,1.4,0.4c0.3-0.9,0.4-1.9,0.3-2.9c0-0.4-0.3-0.7-0.7-0.7
			c-0.4,0-0.7,0.3-0.7,0.7c0.1,1.7-0.1,3.3-0.7,4.9c0.4-0.1,0.9-0.1,1.3-0.2c-0.5-0.8-0.8-1.6-0.8-2.6c-0.5,0.1-1,0.1-1.4,0.2
			c0.1,0.5,0.3,0.9,0.4,1.4c0.4-0.2,0.9-0.4,1.3-0.6c-0.2-0.4-0.2-0.9-0.2-1.4c-0.4,0.2-0.8,0.3-1.2,0.5c0.2,0.2,0.4,0.5,0.6,0.7
			c0.3,0.4,1,0.2,1.1-0.1c0.5-1,0.7-1.9,0.9-3c-0.5,0-1,0-1.5,0c0,1-0.2,1.9-0.6,2.8c0.5,0.1,0.9,0.3,1.4,0.4
			c0.6-1.6,0.9-3.2,0.9-4.9c0-0.7-1-1-1.4-0.4c-0.8,1.3-1.5,2.7-2.3,4c-0.3,0.5,0.2,1.2,0.8,1.1c-0.1-0.1-0.3-0.2-0.4-0.3
			c0.1,0.4,0.5,0.6,0.9,0.5C98.4,57.2,98.7,56.8,98.5,56.4L98.5,56.4z"/>
	</g>
</g>
<g>
	<g>
		<path class="st9" d="M104.2,57c-0.2,0.2-0.4,0.4-0.6,0.6c-0.1,0.1-0.2,0.2-0.3,0.3c0,0-0.1,0-0.1,0.1c-0.1,0.1,0,0,0,0
			c-0.1,0-0.1,0.1-0.2,0.1c-0.4,0.3-0.9,0.6-1.4,0.9c-0.3,0.2-0.4,0.6-0.3,0.9c0.1,0.3,0.5,0.5,0.9,0.4c0.6-0.2,1.3-0.3,1.9-0.5
			c0.4-0.1,0.6-0.5,0.5-0.9c-0.1-0.4-0.5-0.6-0.9-0.5c-0.6,0.2-1.3,0.3-1.9,0.5c0.2,0.4,0.4,0.9,0.6,1.3c1-0.6,2-1.3,2.8-2.1
			c0.3-0.3,0.3-0.8,0-1C105,56.7,104.5,56.7,104.2,57L104.2,57z"/>
	</g>
</g>
<g>
	<g>
		<path class="st9" d="M117.2,68.1c-0.2,0.2-0.3,0.4-0.5,0.7c-0.1,0.1-0.1,0.2-0.1,0.3c0,0.1,0,0.2,0,0.3c0,0.1,0.1,0.2,0.1,0.2
			c0.1,0.1,0.1,0.1,0.2,0.2c0.1,0,0.1,0,0.2,0.1c0.1,0,0.3,0,0.4,0c0.1,0,0.1,0,0.2-0.1c0.1-0.1,0.2-0.2,0.3-0.3
			c0.2-0.2,0.3-0.4,0.5-0.7c0.1-0.1,0.1-0.2,0.1-0.3c0-0.1,0-0.2,0-0.3c0-0.1-0.1-0.2-0.1-0.2c-0.1-0.1-0.1-0.1-0.2-0.2
			c-0.1,0-0.1,0-0.2-0.1c-0.1,0-0.3,0-0.4,0c-0.1,0-0.1,0-0.2,0.1C117.3,67.9,117.3,68,117.2,68.1L117.2,68.1z"/>
	</g>
</g>
<g>
	<g>
		<path class="st10" d="M81.2,124.3c0-0.2,0-0.4,0-0.7c0-0.1,0-0.2-0.1-0.3c0-0.1-0.1-0.2-0.2-0.2c-0.1-0.1-0.1-0.1-0.2-0.2
			c-0.1,0-0.2-0.1-0.3-0.1c-0.1,0-0.1,0-0.2,0c-0.1,0-0.2,0.1-0.3,0.2c0,0-0.1,0.1-0.1,0.1c-0.1,0.1-0.1,0.2-0.1,0.4
			c0,0.2,0,0.4,0,0.7c0,0.1,0,0.2,0.1,0.3c0,0.1,0.1,0.2,0.2,0.2c0.1,0.1,0.1,0.1,0.2,0.2c0.1,0,0.2,0.1,0.3,0.1c0.1,0,0.1,0,0.2,0
			c0.1,0,0.2-0.1,0.3-0.2c0,0,0.1-0.1,0.1-0.1C81.2,124.6,81.2,124.5,81.2,124.3L81.2,124.3z"/>
	</g>
</g>
<g>
	<g>
		<path class="st10" d="M80.7,124c0-0.1,0-0.2,0-0.3c0-0.1,0-0.2-0.1-0.3c0-0.1-0.1-0.2-0.2-0.2c-0.1-0.1-0.1-0.1-0.2-0.2
			c-0.1,0-0.2-0.1-0.3-0.1c-0.1,0-0.1,0-0.2,0c-0.1,0-0.2,0.1-0.3,0.2c0,0-0.1,0.1-0.1,0.1c-0.1,0.1-0.1,0.2-0.1,0.4
			c0,0.1,0,0.2,0,0.3c0,0.1,0,0.2,0.1,0.3c0,0.1,0.1,0.2,0.2,0.2c0.1,0.1,0.1,0.1,0.2,0.2c0.1,0,0.2,0.1,0.3,0.1c0.1,0,0.1,0,0.2,0
			c0.1,0,0.2-0.1,0.3-0.2c0,0,0.1-0.1,0.1-0.1C80.7,124.2,80.7,124.1,80.7,124L80.7,124z"/>
	</g>
</g>
<g>
	<g>
		<path class="st10" d="M80.6,123.3c-0.1-0.1-0.1-0.3-0.2-0.4c0-0.1-0.1-0.2-0.2-0.2c-0.1-0.1-0.2-0.1-0.2-0.1c-0.1,0-0.1,0-0.2,0
			c-0.1,0-0.2,0-0.3,0.1c-0.1,0-0.1,0-0.2,0.1c-0.1,0.1-0.1,0.1-0.2,0.2c0,0.1,0,0.1-0.1,0.2c0,0.1,0,0.3,0,0.4
			c0.1,0.3,0.1,0.5,0.2,0.8c0,0.1,0.1,0.2,0.1,0.2c0.1,0.1,0.1,0.1,0.2,0.2c0.1,0.1,0.2,0.1,0.3,0.1c0.1,0,0.2,0,0.3,0
			c0.2-0.1,0.3-0.2,0.4-0.3c0-0.1,0-0.1,0.1-0.2c0-0.1,0-0.3,0-0.4c-0.1-0.3-0.1-0.5-0.2-0.8c-0.4,0.2-0.9,0.4-1.3,0.6
			c0.1,0.1,0.1,0.3,0.2,0.4c0,0.1,0.1,0.2,0.2,0.2c0.1,0.1,0.2,0.1,0.2,0.1c0.1,0,0.2,0,0.3,0c0.1,0,0.2,0,0.3-0.1
			c0.2-0.1,0.3-0.2,0.3-0.4c0-0.1,0-0.1,0-0.2C80.7,123.5,80.7,123.4,80.6,123.3L80.6,123.3z"/>
	</g>
</g>
<g>
	<g>
		<path class="st10" d="M106.9,118.6C106.9,118.6,106.9,118.6,106.9,118.6c0,0,0.1,0,0.1,0C107,118.6,107,118.6,106.9,118.6
			c0.1,0,0.1,0,0.2,0C107.1,118.6,107.1,118.6,106.9,118.6c0.1,0,0.2,0,0.3,0.1c0,0-0.1,0-0.1-0.1c0,0,0.1,0.1,0.1,0.1
			c0,0-0.1,0-0.1-0.1c0,0,0.1,0.1,0.1,0.1c0,0,0,0,0,0c0-0.1-0.1-0.2-0.2-0.2c-0.1-0.1-0.2-0.1-0.2-0.1c-0.1,0-0.2,0-0.3,0
			c-0.1,0-0.2,0-0.3,0.1c0,0-0.1,0.1-0.1,0.1c-0.1,0.1-0.2,0.2-0.2,0.3c0,0.1,0,0.1,0,0.2c0,0.1,0,0.3,0.1,0.4
			c0,0.1,0.1,0.1,0.2,0.2c0,0,0,0,0.1,0.1c0.1,0,0.1,0.1,0.2,0.2c0,0,0,0,0,0c0.1,0,0.1,0.1,0.2,0.1c0,0,0,0,0.1,0c0,0,0.1,0,0.1,0
			c0,0,0.1,0,0.1,0c0,0,0.1,0,0.1,0c0.1,0,0.1,0,0.2,0c0,0,0,0,0,0c0.1,0,0.2-0.1,0.2-0.1c0.1-0.1,0.1-0.1,0.2-0.2
			c0.1-0.1,0.1-0.2,0.1-0.3c0-0.1,0-0.2,0-0.3c0-0.1,0-0.1-0.1-0.2c-0.1-0.1-0.2-0.2-0.3-0.3c-0.1,0-0.1,0-0.2-0.1
			C107.2,118.6,107.1,118.6,106.9,118.6L106.9,118.6z"/>
	</g>
</g>
<g>
	<g>
		<path class="st9" d="M97.6,80c0,0.2,0,0.3,0.1,0.5c0.1,0.1,0.2,0.3,0.3,0.3c0.1,0,0.1,0.1,0.2,0.1c0,0,0,0,0.1,0
			c0.2,0,0.3,0,0.5,0c0.1,0,0.2-0.1,0.3-0.1c0,0,0.1-0.1,0.1-0.1c0,0,0.1-0.1,0.1-0.1c0.1-0.1,0.2-0.3,0.3-0.4
			c0.1-0.2,0.1-0.4,0.1-0.6c0-0.1,0-0.1-0.1-0.2c0-0.1-0.1-0.2-0.2-0.2c-0.1-0.1-0.3-0.2-0.4-0.2c-0.2,0-0.4,0.1-0.5,0.2
			c-0.4,0.4-0.8,0.8-1.1,1.2c-0.1,0.1-0.2,0.3-0.2,0.5c0,0.2,0.1,0.4,0.2,0.5c0.1,0.1,0.3,0.2,0.5,0.2c0.2,0,0.4-0.1,0.5-0.2
			c0.4-0.4,0.8-0.8,1.1-1.2c-0.4-0.3-0.8-0.6-1.1-0.9c0,0.1-0.1,0.1-0.1,0.2c0,0,0.1-0.1,0.1-0.1c0,0-0.1,0.1-0.1,0.1
			c0,0,0.1-0.1,0.1-0.1c0,0-0.1,0-0.1,0.1c0.1,0,0.1,0,0.2-0.1c0,0-0.1,0-0.1,0c0.1,0,0.1,0,0.2,0c0,0-0.1,0-0.1,0
			c0.1,0,0.1,0,0.2,0c0,0-0.1,0-0.1,0c0.1,0,0.1,0,0.2,0.1c0,0,0,0-0.1,0c0,0,0.1,0.1,0.1,0.1c0,0,0,0,0,0c0,0,0.1,0.1,0.1,0.1
			c0,0,0,0,0,0c0,0.1,0,0.1,0.1,0.2c0,0,0,0,0,0c0,0.1,0,0.1,0,0.2c0,0,0,0,0,0c0-0.1,0-0.2-0.1-0.3c0-0.1-0.1-0.2-0.2-0.2
			c-0.1-0.1-0.3-0.2-0.5-0.2c-0.2,0-0.4,0.1-0.5,0.2C97.7,79.6,97.5,79.8,97.6,80L97.6,80z"/>
	</g>
</g>
<g>
	<g>
		<path class="st10" d="M81.3,123.6c-0.1-0.2-0.2-0.3-0.2-0.5c0-0.1-0.1-0.2-0.2-0.2c-0.1-0.1-0.2-0.1-0.2-0.1c-0.1,0-0.2,0-0.3,0
			c-0.1,0-0.2,0-0.3,0.1c0,0-0.1,0.1-0.1,0.1c-0.1,0.1-0.2,0.2-0.2,0.3c0,0.1,0,0.1,0,0.2c0,0.1,0,0.3,0.1,0.4
			c0.1,0.2,0.2,0.3,0.2,0.5c0,0.1,0.1,0.2,0.2,0.2c0.1,0.1,0.2,0.1,0.2,0.1c0.1,0,0.2,0,0.3,0c0.1,0,0.2,0,0.3-0.1
			c0,0,0.1-0.1,0.1-0.1c0.1-0.1,0.2-0.2,0.2-0.3c0-0.1,0-0.1,0-0.2C81.4,123.9,81.4,123.7,81.3,123.6L81.3,123.6z"/>
	</g>
</g>
<g>
	<g>
		<path class="st10" d="M80.7,123.3c-0.1-0.1-0.1-0.1-0.2-0.2c-0.1-0.1-0.1-0.1-0.2-0.2c-0.1,0-0.2-0.1-0.3-0.1
			c-0.1,0-0.2,0-0.3,0.1c-0.1,0-0.2,0.1-0.2,0.2c0,0-0.1,0.1-0.1,0.1c-0.1,0.1-0.1,0.2-0.1,0.4c0,0.1,0,0.1,0,0.2
			c0,0.1,0.1,0.2,0.2,0.3c0.1,0.1,0.1,0.1,0.2,0.2c0.1,0.1,0.1,0.1,0.2,0.2c0.1,0,0.2,0.1,0.3,0.1c0.1,0,0.2,0,0.3-0.1
			c0.1,0,0.2-0.1,0.2-0.2c0,0,0.1-0.1,0.1-0.1c0.1-0.1,0.1-0.2,0.1-0.4c0-0.1,0-0.1,0-0.2C80.9,123.5,80.8,123.4,80.7,123.3
			L80.7,123.3z"/>
	</g>
</g>
<g>
	<g>
		<path class="st8" d="M125.3,78.9c-2,0.6-3.5,2.1-4.2,4c-0.1,0.4,0.2,0.8,0.5,0.9c0.4,0.1,0.7-0.1,0.9-0.5c0,0,0.1-0.2,0,0
			c0,0,0-0.1,0.1-0.2c0-0.1,0.1-0.2,0.1-0.3c0.1-0.2,0.2-0.4,0.3-0.5c0,0,0.1-0.1,0.1-0.1c0,0,0.1-0.2,0.1-0.1c-0.1,0.1,0,0,0-0.1
			c0,0,0.1-0.1,0.1-0.1c0.1-0.2,0.3-0.3,0.4-0.5c0.1-0.1,0.2-0.1,0.2-0.2c0,0,0.1-0.1,0.1-0.1c-0.1,0-0.1,0.1,0,0
			c0.2-0.1,0.3-0.2,0.5-0.4c0.2-0.1,0.4-0.2,0.5-0.3c0.2-0.1-0.1,0.1,0,0c0.1,0,0.1,0,0.2-0.1c0.1,0,0.2-0.1,0.3-0.1
			c0.4-0.1,0.6-0.5,0.5-0.9C126,79.1,125.6,78.8,125.3,78.9L125.3,78.9z"/>
	</g>
</g>
<g>
	<g>
		<path class="st8" d="M88.8,18.8C84.1,10.1,74.1,5.6,64.6,5c-2.9-0.2-5.8,0.1-8.8,0.4c-3.5,0.3-7,0.8-10.4,1.1
			c-5.9,0.5-11.4,2.5-16,6.3c-8.3,7.1-9.8,17.9-11.3,28.1c-1.9,13.3-4.7,26.5-4.3,40c0.5,14.3,5,28.2,13.3,39.8
			c0.3,0.4,0.9,0,0.6-0.4c-7-9.9-11.5-21.5-12.8-33.6c-1.4-13.5,0.8-27,3-40.3c1.6-9.7,1.9-20.7,8-28.9c3.5-4.7,8.7-8.1,14.4-9.5
			c3.1-0.8,6.4-0.9,9.6-1.2c3.3-0.4,6.6-0.7,10-1C70.7,5,82.8,9.3,88.1,19.2C88.4,19.6,89,19.2,88.8,18.8L88.8,18.8z"/>
	</g>
</g>
<g>
	<g>
		<path class="st8" d="M43.6,7.4c0.5,0,0.5-0.7,0-0.7C43.2,6.7,43.2,7.4,43.6,7.4L43.6,7.4z"/>
	</g>
</g>
<g>
	<g>
		<path class="st8" d="M19.8,28.5c-4.3-0.3-8-4-7.2-8.5c0.7-3.9,4.6-6.9,8.5-7.2c2.2-0.2,4.9-0.1,6.4,1.8c0.3,0.4,0.8-0.2,0.5-0.5
			c-1.4-1.8-3.8-2-6-2c-2.3,0-4.5,0.7-6.4,2.1c-3.6,2.7-5.2,7.8-2.4,11.6c1.5,2.1,4,3.2,6.5,3.4C20.2,29.3,20.2,28.5,19.8,28.5
			L19.8,28.5z"/>
	</g>
</g>
<g>
	<g>
		<path class="st8" d="M83.5,12.8c3.2-1.7,8-2.7,11.3-0.9c3.4,1.9,4.3,6.8,3.1,10.2c-0.8,2.3-3,4.2-5.5,4.6
			c-0.5,0.1-0.3,0.8,0.2,0.7c2.3-0.3,4.4-2,5.5-4c1-1.8,1.2-3.9,0.9-6c-0.3-2.1-1.3-4.1-2.9-5.5c-1.6-1.4-3.9-1.8-6-1.7
			c-2.4,0.1-4.9,0.7-7.1,1.9C82.7,12.4,83.1,13,83.5,12.8L83.5,12.8z"/>
	</g>
</g>
<g>
	<g>
		<path class="st8" d="M51.1,35.2c0.1,0,0.2,0,0.3-0.1c0-0.1,0-0.2,0-0.3c-0.3,0.2-0.7,0.1-1.1,0.3c-0.6,0.2-1.1,0.7-1.6,1.1
			c-1,0.8-2,1.7-2.5,2.9c-1.2,3,2.8,4.4,5.1,4.1c1.8-0.2,3.5-1,5.3-1.2c1.6-0.2,3.1,0.4,4.6,0.8c1.1,0.3,2.4,0.5,3.3-0.2
			c1-0.7,1.5-2.1,1.3-3.2c-0.5-2.8-4-4.3-6.4-5.2c-0.2-0.1-0.3,0.3-0.1,0.4c2.1,0.8,4.7,1.9,5.8,3.9c0.7,1.2,0.5,2.9-0.7,3.8
			c-1,0.9-2.5,0.4-3.6,0.1c-1.1-0.3-2.1-0.7-3.2-0.7c-1.5-0.1-2.9,0.4-4.3,0.8c-1.7,0.5-3.4,0.8-5,0.1c-1.2-0.6-2.3-1.5-1.8-3
			c0.4-1.3,1.6-2.4,2.7-3.2c0.4-0.3,0.8-0.7,1.3-0.8c0.3-0.1,0.7-0.1,1-0.3c0.1-0.1,0.1-0.3,0-0.3c-0.1,0-0.4,0-0.5,0.1
			C50.8,34.9,50.9,35.2,51.1,35.2L51.1,35.2z"/>
	</g>
</g>
<g>
	<g>
		<path class="st8" d="M60.6,42.7c0.4,1,0.6,2.2,0.7,3.3c0,1,0,2.3-0.7,3.1c-0.6,0.7-1.9,1.1-2.8,0.7c-0.7-0.3-1-1.3-1.3-2
			c-0.1-0.2-0.4,0-0.3,0.2c0.3,0.6,0.5,1.3,1,1.8c0.6,0.5,1.4,0.6,2.2,0.4c0.8-0.2,1.5-0.8,1.9-1.5c0.4-0.8,0.4-1.9,0.4-2.8
			c0-1.1-0.2-2.3-0.7-3.3C60.8,42.4,60.5,42.5,60.6,42.7L60.6,42.7z"/>
	</g>
</g>
<g>
	<g>
		<path class="st8" d="M28.7,120c-1.5,0.8-3,1.7-4.3,2.8c-1.2,1-2.5,2.4-2.5,4c0,1.6,1.6,3.2,3.2,3.5c1.7,0.3,3.4-0.8,4.7-1.8
			c1.8-1.3,3.6-3.1,5.8-3.4c0.2,0,0.3-0.2,0.1-0.3c-2.6-1.7-4.4-6.3-8.1-4.3c-0.2,0.1,0,0.4,0.2,0.3c3.4-1.9,5.3,2.7,7.7,4.3
			c0-0.1,0.1-0.2,0.1-0.3c-3.6,0.5-5.6,4.2-9,5.1c-1.7,0.5-3.8-0.7-4.2-2.4c-0.4-1.6,0.9-3.1,2-4c1.4-1.2,3-2.2,4.6-3
			C29.1,120.2,28.9,119.9,28.7,120L28.7,120z"/>
	</g>
</g>
<g>
	<g>
		<path class="st8" d="M23.8,129.1c-0.6-2,1-3.7,2.6-4.5c0.2-0.1,0-0.4-0.2-0.3c-1.8,0.9-3.5,2.8-2.8,4.9
			C23.5,129.4,23.8,129.3,23.8,129.1L23.8,129.1z"/>
	</g>
</g>
<g>
	<path class="st8" d="M89.9,121.4c-0.6-0.7-1.5-1.5-2.4-1.9c-1-0.3-2.2,0.4-3.2,0.8c-0.1,0-0.1,0.1-0.1,0.2c0,0.1,0.1,0.3,0.1,0.4
		c0.2-0.1,0.4-0.3,0.6-0.3c0,0,0,0,0,0c0.3-0.4,0.9-0.5,1.5-0.7c1.4-0.2,2.4,0.8,3.3,1.7c1.6,2,3.6,7-0.2,7.9
		c-1.6,0.4-3.2-0.5-4.4-1.4c-0.1-0.1-0.7-0.6-1-0.9c-0.1,0.1-0.1,0.1-0.2,0.2c1.8,1.8,5,3.9,7.2,1.6
		C93.1,126.9,91.5,123.3,89.9,121.4z"/>
</g>
<g>
	<g>
		<path class="st8" d="M87.4,124.3c1.3,1.3,2.4,3.2,2.4,5.1c0,0.2,0.4,0.2,0.4,0c0-2-1.2-3.9-2.5-5.3
			C87.5,123.9,87.3,124.2,87.4,124.3L87.4,124.3z"/>
	</g>
</g>
<g>
	<g>
		<path class="st8" d="M106.1,78.1c-0.8,0-1.5,0-2.3,0c-0.4,0-0.7-0.1-1.1,0c-0.7,0.3-1.3,0.6-1.8,1.1c-1.2,0.8-2.2,1.8-3.1,3
			c-0.7,0.9-1.4,2.1-1.2,3.3c0.4,2,3.3,2.5,4.9,1.8c1.9-0.8,3.4-2.5,4.4-4.3C106.8,81.7,107.9,79.2,106.1,78.1
			c-0.1-0.1-0.3,0.2-0.1,0.3c1.3,0.9,0.5,2.9-0.1,4c-0.9,1.6-2.2,3.2-3.8,4.2c-0.7,0.4-1.4,0.7-2.2,0.6c-1-0.1-2.4-0.5-2.8-1.6
			c-0.4-1.1,0.3-2.3,0.9-3.1c0.8-1.1,1.8-2.1,2.9-2.9c0.6-0.4,1.2-0.8,1.8-1.1c0.4-0.2,0.8-0.1,1.1-0.1c0.7,0,1.5,0,2.2,0
			C106.3,78.5,106.3,78.1,106.1,78.1z"/>
	</g>
</g>
<g>
	<g>
		<path class="st8" d="M100.4,83.7c-0.8,1.1-2.4,2.4-3.6,1.1c-0.2-0.2-0.4,0.1-0.3,0.3c0.6,0.6,1.4,0.8,2.2,0.5c0.8-0.3,1.5-1,2-1.7
			C100.9,83.7,100.6,83.6,100.4,83.7L100.4,83.7z"/>
	</g>
</g>
<path class="st11" d="M82.3,23c0-6.5-5.2-11.7-11.7-11.7c-6.5,0-11.7,5.2-11.7,11.7c0,6.5,5.2,11.7,11.7,11.7
	C77,34.7,82.3,29.5,82.3,23z"/>
<path class="st11" d="M52.7,24.3c0-6.5-5.2-11.7-11.7-11.7c-6.5,0-11.7,5.2-11.7,11.7C29.3,30.7,34.6,36,41,36
	C47.5,36,52.7,30.7,52.7,24.3z"/>
<path class="st8" d="M93,18.4c0-1.4-1.1-2.5-2.5-2.5c-1.4,0-2.5,1.1-2.5,2.5c0,1.4,1.1,2.5,2.5,2.5C91.9,20.9,93,19.8,93,18.4z"/>
<path class="st8" d="M23.4,20.6c0-1.4-1.1-2.5-2.5-2.5c-1.4,0-2.5,1.1-2.5,2.5c0,1.4,1.1,2.5,2.5,2.5C22.3,23.1,23.4,22,23.4,20.6z"
	/>
<path class="st8" d="M61.1,33.8c0-1.6-2.3-2.9-5.2-2.9c-2.9,0-5.2,1.3-5.2,2.9c0,1.6,2.3,2.9,5.2,2.9C58.8,36.7,61.1,35.4,61.1,33.8
	z"/>
<path class="st8" d="M70.5,19.3c-2.1,0-3.8,1.7-3.8,3.8c0,2.1,1.7,3.8,3.8,3.8c2.1,0,3.8-1.7,3.8-3.8C74.4,21,72.6,19.3,70.5,19.3z
	 M72.1,25.6c-0.6,0-1.1-0.5-1.1-1.1c0-0.6,0.5-1.1,1.1-1.1c0.6,0,1.1,0.5,1.1,1.1C73.2,25.1,72.7,25.6,72.1,25.6z"/>
<path class="st8" d="M41,20.3c-2.1,0-3.8,1.7-3.8,3.8c0,2.1,1.7,3.8,3.8,3.8c2.1,0,3.8-1.7,3.8-3.8C44.9,22,43.1,20.3,41,20.3z
	 M42.6,26.5c-0.6,0-1.1-0.5-1.1-1.1c0-0.6,0.5-1.1,1.1-1.1c0.6,0,1.1,0.5,1.1,1.1C43.7,26,43.2,26.5,42.6,26.5z"/>
<g>
	<g>
		<path class="st8" d="M56.2,41.9c0.2,0.7,0.1,1.5,0.1,2.2c0,0.8,0,1.6,0,2.4c-0.1,1.2-0.4,2.8-1.6,3.3c-1,0.5-2.2,0-2.8-0.9
			c-0.5-0.9-0.6-1.9-0.6-2.9c0-1.1,0.1-2.1,0.4-3.2c0.1-0.2-0.3-0.3-0.4-0.1c-0.3,1-0.5,2.1-0.5,3.2c0,1.1,0.1,2.3,0.7,3.3
			c0.6,0.9,1.7,1.4,2.8,1.1c1.2-0.3,1.8-1.6,2-2.7c0.2-1.1,0.2-2.1,0.2-3.2c0-0.9,0.1-1.8-0.1-2.7C56.5,41.6,56.1,41.7,56.2,41.9
			L56.2,41.9z"/>
	</g>
</g>
<g>
	<g>
		<path class="st8" d="M14.3,65.4c-2-0.4-4.1,0.3-5.8,1.4c-1.2,0.8-2.8,2-2.9,3.5c-0.1,0.9,0.5,1.5,1.2,1.9C7,72.3,7.1,72,6.9,71.9
			c-0.4-0.2-0.9-0.5-1-1c-0.1-0.4,0-0.8,0.1-1.1c0.3-0.8,1-1.4,1.6-1.9c1.8-1.4,4.2-2.6,6.5-2.1C14.4,65.8,14.5,65.5,14.3,65.4
			L14.3,65.4z"/>
	</g>
</g>
<g>
	<g>
		<path class="st8" d="M8.8,70.3c-0.7,0.3-1.4,0.9-1.7,1.6c-0.3,0.7,0.1,1.3,0.8,1.7c1.7,0.8,3.5-0.4,4.8-1.4c0.7-0.6,1.4-1.3,2-2
			c0.1-0.2-0.2-0.4-0.3-0.2c-0.9,1.2-2.1,2.3-3.5,3c-0.6,0.3-1.3,0.6-2.1,0.5c-0.6-0.1-1.5-0.5-1.4-1.3c0.1-0.8,1-1.3,1.6-1.6
			C9.2,70.5,9,70.2,8.8,70.3L8.8,70.3z"/>
	</g>
</g>
<g>
	<g>
		<path class="st8" d="M87.5,17.9c6.9,10,6,22.7,6.1,34.3c0,0.5,0.7,0.5,0.7,0c-0.1-11.7,0.8-24.6-6.2-34.7
			C87.9,17.1,87.3,17.5,87.5,17.9L87.5,17.9z"/>
	</g>
</g>
<g>
	<g>
		<path class="st8" d="M79.8,123.7c0.1,0,0.1,0,0.2,0c0,0,0.1,0,0.1-0.1c0,0,0.1-0.1,0.1-0.1c0,0,0-0.1-0.1-0.1c0,0-0.1-0.1-0.1-0.1
			c0,0,0,0,0,0c-0.1,0-0.1,0-0.2,0.1c0,0,0,0.1,0,0.1c0,0,0,0,0,0c0,0,0,0,0,0c0,0,0,0,0,0c0,0,0,0,0,0c0,0,0,0,0,0c0,0,0,0,0,0
			c0,0,0,0,0,0c0,0,0,0,0,0c0.1,0.1,0.1,0.2,0.2,0.2c0-0.1,0-0.1,0.1-0.2c-0.1,0-0.2,0.1-0.3,0.1c0.1,0.1,0.1,0.1,0.2,0.2
			c0,0,0.1,0.1,0.1,0.1c0,0,0.1,0,0.1-0.1c0,0,0.1-0.1,0.1-0.1c0,0,0-0.1-0.1-0.1c-0.1-0.1-0.1-0.1-0.2-0.2c0,0-0.1-0.1-0.2,0
			c-0.1,0-0.1,0.1-0.1,0.1c0,0.1,0,0.1-0.1,0.2c0,0,0,0.1,0,0.1c0,0,0,0,0,0.1c0,0,0,0,0.1,0c0,0,0.1,0,0.1,0c0,0,0.1,0,0.1,0
			c0,0,0,0,0.1,0c0,0,0,0,0-0.1c0,0,0,0,0-0.1c-0.1,0-0.1,0.1-0.2,0.1c0,0,0,0,0,0c0,0,0.1,0,0.1-0.1c0,0,0.1-0.1,0.1-0.1
			c0,0,0-0.1-0.1-0.1c0,0-0.1-0.1-0.1-0.1c-0.1,0-0.1,0-0.2,0c0,0-0.1,0-0.1,0.1c0,0-0.1,0.1-0.1,0.1c0,0,0,0.1,0.1,0.1
			C79.7,123.7,79.7,123.7,79.8,123.7L79.8,123.7z"/>
	</g>
</g>
<g>
	<g>
		<path class="st8" d="M79.8,51.6c-2.6-1.9-4.4-4.5-5.4-7.5c-0.4-1.2-0.6-2.6-1.4-3.6c-0.5-0.7-1.6-1.2-1.9,0
			c-0.2,0.6,0,1.3,0.1,1.9c0.1,0.9,0.2,1.8,0.2,2.7c0,1.8-0.7,3.3-1.3,5c-1,2.9-0.8,6.2,0.4,9c0.2,0.4,0.9,0.2,0.7-0.2
			c-1.1-2.7-1.3-5.8-0.4-8.6c0.4-1.3,1.1-2.5,1.2-3.8c0.2-1.5,0-3-0.1-4.6c0-0.2-0.2-1-0.1-1.1c0.2,0,0.4,0,0.6,0
			c0.2,0.2,0.3,0.4,0.4,0.6c0.3,0.6,0.5,1.3,0.7,1.9c0.3,1.2,0.7,2.3,1.2,3.4c1.1,2.2,2.7,4.1,4.7,5.6
			C79.8,52.5,80.2,51.8,79.8,51.6L79.8,51.6z"/>
	</g>
</g>
<g>
	<g>
		<path class="st8" d="M101.9,60.7c3.2-4.1,0.8-9.5,1.2-14.2c0.1-1.1,0.3-2.2,0.3-3.3c0-0.5,0-1.3-0.5-1.6c-1.4-0.7-2.5,3.3-2.8,4.1
			c-0.7,1.5-1.5,2.8-2.7,3.9c-1.2,1.2-2.7,2.1-4.1,3c-0.4,0.3,0,0.9,0.4,0.6c2.5-1.6,4.9-3.2,6.4-5.8c0.7-1.2,1.1-2.4,1.6-3.7
			c0.1-0.2,0.8-1.6,1-1.4c0.2,0.2,0.1,1,0.1,1.2c-0.1,1.4-0.3,2.7-0.3,4.1c-0.1,1.4,0.1,2.7,0.3,4.1c0.3,2.9,0.7,6-1.2,8.4
			C101.1,60.5,101.6,61,101.9,60.7L101.9,60.7z"/>
	</g>
</g>
<path class="st8" d="M80.3,67.1c0-1.3,1.9-2.4,4.3-2.3c2.4,0.1,4.3,1.2,4.3,2.6c0,1.3-1.9,2.4-4.3,2.3
	C82.2,69.5,80.3,68.4,80.3,67.1z"/>
<path class="st8" d="M91.8,59.1c0,1-0.7,1.7-1.6,1.7c-0.9,0-1.7-0.8-1.7-1.7c0-1,0.7-1.7,1.6-1.7C91,57.4,91.7,58.2,91.8,59.1z
	 M89,58.5c0,0.3,0.2,0.5,0.5,0.5c0.3,0,0.5-0.2,0.5-0.5c0-0.3-0.2-0.5-0.5-0.5C89.2,58,89,58.2,89,58.5z"/>
<g>
	<g>
		<path class="st8" d="M84.3,73.4c-0.1,0.6,0.1,1.2,0.2,1.7c0.1,0.7,0.1,1.4,0.3,2.1c0.2,0.9,0.6,1.9,1.5,2.2
			c0.8,0.3,1.7-0.1,2.1-0.8c0.4-0.7,0.4-1.6,0.4-2.3c-0.1-0.9-0.3-1.8-0.7-2.6c-0.1-0.2-0.4,0-0.3,0.2c0.3,0.6,0.4,1.3,0.5,1.9
			c0.1,0.7,0.2,1.5-0.1,2.2c-0.2,0.7-0.9,1.2-1.6,1.1c-0.9-0.1-1.4-1.2-1.6-2c-0.2-0.7-0.2-1.3-0.3-2c-0.1-0.6-0.2-1.2-0.2-1.7
			C84.7,73.2,84.4,73.2,84.3,73.4L84.3,73.4z"/>
	</g>
</g>
<path class="st8" d="M81.6,59.4c0,1-0.7,1.7-1.6,1.7c-0.9,0-1.7-0.8-1.7-1.7c0-1,0.7-1.7,1.6-1.7C80.8,57.7,81.6,58.5,81.6,59.4z
	 M78.9,58.7c0,0.3,0.2,0.5,0.5,0.5c0.3,0,0.5-0.2,0.5-0.5c0-0.3-0.2-0.5-0.5-0.5C79.1,58.3,78.8,58.5,78.9,58.7z"/>
<path class="st11" d="M90,53.9c2.8,0,5.2,2.3,5.3,5.2c0.1,2.9-2.1,5.3-5,5.3c-2.8,0-5.2-2.3-5.3-5.2C84.9,56.3,87.2,53.9,90,53.9z"
	/>
<path class="st11" d="M74.7,58.8c-0.1-2.9,2.1-5.3,5-5.3c2.8,0,5.2,2.3,5.3,5.2c0.1,2.9-2.1,5.3-5,5.3C77.1,64,74.8,61.7,74.7,58.8z
	"/>
<g>
	<g>
		<path class="st8" d="M81.3,74.3c-0.4,1.4-0.3,2.9,0.2,4.2c0.3,0.6,0.8,1,1.4,1.2c0.5,0.2,1.2,0.1,1.6-0.3c0.5-0.4,0.5-1,0.7-1.6
			c0.1-0.2-0.3-0.3-0.4-0.1c-0.2,0.5-0.2,1.2-0.7,1.5c-0.6,0.4-1.5,0.1-2-0.3c-0.5-0.5-0.7-1.4-0.8-2.2c-0.1-0.8,0-1.6,0.2-2.4
			C81.7,74.1,81.4,74,81.3,74.3L81.3,74.3z"/>
	</g>
</g>
<g>
	<g>
		<path class="st8" d="M87.6,67.9c-0.1,0-0.3,0-0.4,0c-0.1,0.1-0.1,0.3,0,0.3c0.2,0.1,0.4,0.1,0.5,0.1c0.3,0,0.6,0.2,0.9,0.3
			c0.8,0.4,1.6,1,2.1,1.7c0.6,0.8,0.7,1.7,0,2.4c-0.9,0.8-2,1-3.2,0.9c-1-0.1-2-0.4-3-0.4c-0.9,0-1.7,0.2-2.5,0.5
			c-0.8,0.3-1.6,0.8-2.5,0.8c-1.1,0-1.8-1.2-1.8-2.2c0.1-1.9,2.4-3.2,3.9-3.9c0.2-0.1,0-0.4-0.2-0.3c-1.5,0.8-3.5,1.9-4,3.7
			c-0.2,0.9,0,1.8,0.7,2.5c0.7,0.7,1.5,0.7,2.4,0.4c1-0.3,1.9-0.9,3-1.1c1.2-0.2,2.5,0.2,3.7,0.3c1.2,0.2,2.3,0.1,3.3-0.6
			c0.7-0.5,1.2-1.1,1-2c-0.2-1-1-1.8-1.8-2.3c-0.5-0.4-1-0.7-1.6-0.9c-0.3-0.1-0.6-0.1-0.9-0.2c0,0.1,0,0.2,0,0.3
			c-0.1,0,0.2,0,0.2,0C87.9,68.2,87.9,67.9,87.6,67.9L87.6,67.9z"/>
	</g>
</g>
<g>
	<g>
		<path class="st8" d="M99.2,61c-1.4-3-2.6-6-5.4-8.1c-2.6-2-5.9-3-9.1-2.6c-3.4,0.4-7,2.2-9.7,4.2c-1.2,0.9-2.3,1.9-3.1,3.2
			c-0.7,1.3-0.9,3.3-2.4,3.9c-0.4,0.2-0.1,0.8,0.4,0.6c1-0.4,1.4-1.3,1.8-2.2c0.6-1.5,1.1-2.7,2.3-3.8c2.4-2.3,6-4,9.1-4.9
			c3.4-0.9,7.1-0.2,10,1.9c2.8,2,4,5.1,5.5,8.1C98.8,61.8,99.4,61.5,99.2,61L99.2,61z"/>
	</g>
</g>
<g>
	<g>
		<path class="st8" d="M70.3,58.6c0,0.3,0.1,0.6,0.2,0.8c0.1,0.3,0.3,0.5,0.5,0.6c0.1,0.1,0.2,0.1,0.3,0c0.1,0,0.2-0.1,0.2-0.2
			c0-0.1,0.1-0.2,0-0.3c0-0.1-0.1-0.2-0.2-0.2c0,0,0,0,0,0c0,0,0,0,0.1,0.1c-0.1-0.1-0.2-0.1-0.2-0.2c0,0,0,0,0.1,0.1
			c-0.1-0.1-0.1-0.2-0.2-0.3c0,0,0,0.1,0,0.1c0-0.1-0.1-0.2-0.1-0.4c0,0,0,0.1,0,0.1c0-0.1,0-0.1,0-0.2c0-0.2-0.2-0.4-0.4-0.4
			C70.5,58.3,70.3,58.4,70.3,58.6L70.3,58.6z"/>
	</g>
</g>
<g>
	<g>
		<path class="st8" d="M80.1,80.6c1.9,1.4,4.4,1.4,6.6,0.8c3.1-0.8,6-1.9,9.2-2.3c3.2-0.3,6.4-0.2,9.6-0.3c2.6,0,5.2-0.3,7.4-1.8
			c3.6-2.5,5.3-7.2,3.8-11.3c-1.8-4.7-6.4-7-11.2-6.4c-3,0.4-5.8,1.6-8.6,2.8c-3.3,1.5-6.7,3-10,4.5c-0.4,0.2-0.1,0.8,0.4,0.6
			c2.5-1.1,5-2.2,7.4-3.3c2.5-1.1,4.9-2.3,7.5-3.1c4.9-1.5,10.4-1.1,13.2,3.7c2.4,4.1,1,9.4-3,12c-2.2,1.4-4.8,1.6-7.3,1.6
			c-2.7,0-5.3-0.1-8,0.1c-2.8,0.2-5.6,0.8-8.3,1.7c-2.7,0.9-5.8,1.9-8.3,0C80.1,79.7,79.7,80.3,80.1,80.6L80.1,80.6z"/>
	</g>
</g>
<g>
	<g>
		<path class="st8" d="M82.1,66.7C78,63.2,68.5,58,65.9,65.9c-1,3-0.9,6.3,0.1,9.3c0.1,0.4,0.8,0.3,0.7-0.2c-0.8-2.6-1-5.3-0.3-7.9
			c0.4-1.6,1.1-3.3,2.6-4.2c2.6-1.4,6.1,0.1,8.5,1.4c1.5,0.8,2.8,1.8,4.1,2.9C81.9,67.5,82.4,67,82.1,66.7L82.1,66.7z"/>
	</g>
</g>
<g>
	<g>
		<path class="st8" d="M98.5,81c-0.8-1-1.9-1.7-3.1-2.1C95.3,78.8,95,79,95,79.2c-0.1,0.2,0.1,0.4,0.3,0.4c1.1,0.4,2,1.1,2.7,1.9
			c0.1,0.1,0.4,0.1,0.5,0C98.6,81.4,98.6,81.2,98.5,81L98.5,81z"/>
	</g>
</g>
<g>
	<g>
		<path class="st8" d="M90.8,79.9c0.7,0.6,0.1,1.7-0.4,2.3c-0.6,0.8-1.3,1.5-2.1,2.2c-1.6,1.3-3.5,2.2-5.5,2.6
			c-0.5,0.1-0.3,0.8,0.2,0.7c2.3-0.5,4.4-1.5,6.2-3.1c0.8-0.7,1.7-1.6,2.2-2.6c0.4-0.8,0.7-2-0.1-2.6C90.9,79,90.4,79.6,90.8,79.9
			L90.8,79.9z"/>
	</g>
</g>
<g>
	<g>
		<path class="st8" d="M82.6,87.1c-1.1,1-1.3,2.6-0.8,3.9c0.7,1.8,2.8,2.2,4.4,2.6c2,0.5,4.2,0.8,6.3,0.2c1.8-0.5,3.4-1.6,4.6-3.1
			c0.3-0.4-0.2-0.9-0.5-0.5c-1,1.2-2.2,2.2-3.7,2.7c-1.7,0.6-3.6,0.5-5.3,0.2c-0.9-0.2-1.8-0.4-2.6-0.7c-0.8-0.2-1.6-0.5-2.1-1.2
			c-0.8-1.1-0.7-2.7,0.3-3.6C83.5,87.3,83,86.8,82.6,87.1L82.6,87.1z"/>
	</g>
</g>
<g>
	<g>
		<path class="st8" d="M82.6,87.9c-0.6-0.9-1.2-1.8-1.9-2.7c-0.2-0.3-0.4-0.5-0.8-0.3c-0.3,0.1-0.4,0.5-0.5,0.8c0,0.3,0,0.6,0.2,0.9
			c0.2,0.3,0.7,1,0.1,1.2c-0.7,0.3-1.5-0.1-2.2,0.1c-1.6,0.4-2.7,1.9-2.2,3.6c0.5,1.6,2.3,3.1,3.9,3.5c1.7,0.4,3.8-0.6,4.1-2.5
			c0.1-0.5-0.6-0.7-0.7-0.2c-0.2,1.2-1.3,2.1-2.5,2.1c-1.4,0-2.6-0.9-3.4-1.9c-0.5-0.6-0.9-1.3-0.8-2c0.1-0.6,0.5-1.1,1-1.5
			c0.5-0.3,1.1-0.4,1.6-0.4c0.5,0,1,0.1,1.5-0.1c0.5-0.2,0.8-0.6,0.7-1.2c0-0.3-0.2-0.6-0.4-0.9c-0.1-0.1-0.4-0.8-0.1-0.8
			c-0.1,0-0.2-0.1-0.3-0.1c0.7,0.9,1.4,1.8,2,2.8C82.2,88.7,82.8,88.3,82.6,87.9L82.6,87.9z"/>
	</g>
</g>
<g>
	<g>
		<path class="st8" d="M88.7,93.7c0.2,1,0.2,2,0.1,3c0,0.2,0.2,0.4,0.4,0.4c0.2,0,0.3-0.2,0.4-0.4c0.1-1.1,0-2.1-0.2-3.2
			c0-0.2-0.3-0.3-0.4-0.3C88.8,93.3,88.7,93.5,88.7,93.7L88.7,93.7z"/>
	</g>
</g>
<g>
	<g>
		<path class="st8" d="M73.9,77.5c5,1,8.5,5.2,11.4,9.1c0.3,0.4,0.9,0,0.6-0.4c-2.9-4.1-6.6-8.4-11.8-9.4
			C73.7,76.7,73.5,77.4,73.9,77.5L73.9,77.5z"/>
	</g>
</g>
<g>
	<g>
		<path class="st8" d="M88.8,97.1c-4.9,7.2-14.4,9-21.7,4.4c-0.4-0.2-0.8,0.4-0.4,0.6c3.6,2.3,8,3.2,12.3,2.4
			c4.3-0.8,8-3.5,10.5-7.1C89.7,97.1,89.1,96.7,88.8,97.1L88.8,97.1z"/>
	</g>
</g>
<g>
	<g>
		<path class="st8" d="M78,78.5c0.5-1.1,0-2.3-1.1-2.9c-1.1-0.6-2.3,0.1-3,1c-1.1,1.4-1.7,3.3-2.3,4.9c-0.9,2.2-1.7,4.4-2.4,6.6
			c-0.7,2.3-1.3,4.6-1.9,6.9c-0.5,2-1.1,4.2-1.2,6.3c-0.1,1.2,0.1,2.8,1.5,3.1c1,0.3,1.8-0.4,1.9-1.4c0-0.5-0.7-0.5-0.7,0
			c0,0.4-0.6,0.7-1,0.6c-0.6-0.1-0.8-0.8-0.9-1.3c-0.1-0.7,0-1.5,0.1-2.2c0.2-1.3,0.5-2.6,0.8-3.9c0.6-2.7,1.3-5.4,2.1-8
			c0.8-2.5,1.7-5,2.7-7.5c0.5-1.1,0.9-2.4,1.6-3.4c0.3-0.5,0.9-1.3,1.6-1.4c1-0.2,2,1.1,1.6,2C77.2,78.6,77.8,79,78,78.5L78,78.5z"
			/>
	</g>
</g>
<g>
	<g>
		<path class="st8" d="M61.8,83.8c-1.5-1.3-3.6-2-5.6-1.5c0.1,0.1,0.3,0.3,0.4,0.4c0.3-1.6,0.9-3.1,1.7-4.6c-0.2,0-0.4,0-0.6,0.1
			c1.4,1.5,2.8,2.9,4.1,4.4c0.3,0.3,0.8-0.2,0.5-0.5c-1.4-1.5-2.8-2.9-4.1-4.4c-0.2-0.2-0.5-0.1-0.6,0.1c-0.8,1.5-1.4,3.1-1.8,4.8
			c-0.1,0.3,0.2,0.5,0.4,0.4c1.7-0.4,3.6,0.2,4.9,1.3C61.7,84.6,62.2,84.1,61.8,83.8L61.8,83.8z"/>
	</g>
</g>
<g>
	<g>
		<path class="st8" d="M68,103.7c-3.5-0.5-5.8-3.8-6.7-7c-1.2-3.9-0.6-8.1,0.5-12c1-3.4,2.3-7.6,5.5-9.5c2.9-1.7,6.5-1.3,9.1,0.8
			c0.4,0.3,0.9-0.2,0.5-0.5c-4.4-3.6-10.5-2.2-13.2,2.6c-1.8,3.2-2.9,7-3.5,10.5c-0.5,3.3-0.4,6.7,1,9.8c1.2,2.8,3.5,5.5,6.7,6
			C68.3,104.5,68.5,103.8,68,103.7L68,103.7z"/>
	</g>
</g>
<g>
	<g>
		<path class="st8" d="M71.3,36.4c0,0.6,0,1.3,0,1.9c0,0.3,0,0.6,0,0.9c0,0.1,0,0.1,0,0.2c0,0,0,0.1,0,0.1c0-0.1,0-0.1,0,0
			c0-0.1,0,0,0,0c0-0.1,0.1-0.1,0,0c0.2-0.1,0.4-0.1,0.6,0c-0.2-0.2-0.6-0.2-0.8,0c-0.2,0.2-0.2,0.6,0,0.8c0.4,0.4,0.9,0.2,1.1-0.2
			c0.2-0.4,0.2-0.8,0.2-1.2c0-0.8,0-1.7,0-2.5c0-0.3-0.2-0.6-0.5-0.5C71.6,35.9,71.3,36.1,71.3,36.4L71.3,36.4z"/>
	</g>
</g>
<g>
	<g>
		<path class="st8" d="M68.8,37.1c0.1,0.1,0.2,0.2,0.3,0.3c0,0.1,0.1,0.1,0.1,0.2c0,0,0,0.1,0.1,0.1c0.1,0.1,0-0.1,0,0
			c0.2,0.2,0.3,0.5,0.5,0.7c0.1,0.2,0.3,0.5,0.4,0.8c0,0.1,0.1,0.1,0.1,0.2c0,0,0,0.1,0,0c0,0,0,0.1,0,0.1c0.1,0.1,0.1,0.3,0.2,0.4
			c0.1,0.3,0.4,0.5,0.7,0.4c0.3-0.1,0.5-0.4,0.4-0.7c-0.4-1.2-1.1-2.3-2-3.3c-0.2-0.2-0.6-0.2-0.8,0C68.5,36.5,68.5,36.8,68.8,37.1
			L68.8,37.1z"/>
	</g>
</g>
<g>
	<g>
		<path class="st8" d="M71.6,39.8c-0.8-0.4-1.7-0.7-2.6-0.6c-0.2,0-0.3,0-0.4,0.2c-0.1,0.1-0.2,0.3-0.2,0.4c0,0.3,0.2,0.6,0.5,0.5
			c0.2,0,0.4,0,0.6,0c0.1,0,0.2,0,0.3,0c-0.1,0-0.1,0,0,0c0,0,0,0,0,0c0.1,0,0.1,0,0.2,0c0.2,0,0.4,0.1,0.5,0.2c0,0,0.2,0.1,0.1,0
			c0,0,0.1,0,0.1,0.1c0.1,0,0.2,0.1,0.3,0.2c0.2,0.1,0.6,0.1,0.7-0.2C72,40.2,71.9,39.9,71.6,39.8L71.6,39.8z"/>
	</g>
</g>
<g>
	<g>
		<path class="st8" d="M103.6,41.9c0.1-1.6-0.2-3.2-0.9-4.7c-0.1-0.3-0.5-0.3-0.7-0.2c-0.3,0.2-0.3,0.5-0.2,0.7
			c0.6,1.3,0.9,2.7,0.8,4.1c0,0.3,0.3,0.5,0.5,0.5C103.4,42.4,103.6,42.2,103.6,41.9L103.6,41.9z"/>
	</g>
</g>
<g>
	<g>
		<path class="st8" d="M103.1,41.4c-0.3-0.3-0.7-0.7-1-1c-0.2-0.2-0.3-0.4-0.5-0.5c-0.1-0.1-0.2-0.2-0.2-0.3c0,0-0.1-0.1-0.1-0.1
			c0,0,0,0,0-0.1c-0.1-0.1,0.1,0.1,0,0c-0.1-0.1-0.2-0.2-0.3-0.3c-0.1,0-0.3,0-0.4,0.1c-0.2,0.1-0.4,0.5-0.2,0.7
			c0.6,0.8,1.3,1.6,2,2.3c0.2,0.2,0.6,0.2,0.8,0C103.3,42,103.3,41.6,103.1,41.4L103.1,41.4z"/>
	</g>
</g>
<g>
	<g>
		<path class="st8" d="M78.6,90.9c-0.8,0.6-1.8,0.5-2.6,0c-0.2-0.1-0.4,0-0.5,0.1c-0.1,0.2,0,0.4,0.1,0.5c1,0.7,2.4,0.7,3.4,0
			c0.2-0.1,0.2-0.3,0.1-0.5C79.1,90.8,78.8,90.7,78.6,90.9L78.6,90.9z"/>
	</g>
</g>
<g>
	<g>
		<path class="st8" d="M79.8,93.4c-0.1,0-0.2,0.1-0.2,0.1c-0.1,0-0.1,0-0.2,0.1c-0.2,0.1-0.3,0.1-0.5,0.1c0,0-0.1,0-0.1,0
			c0,0,0,0,0,0c0,0,0,0-0.1,0c-0.1,0-0.2,0-0.3,0c-0.1,0-0.2,0-0.3,0c0,0-0.1,0-0.1,0c0,0-0.1,0-0.1,0c0,0,0,0,0,0
			c-0.2,0-0.4,0-0.4,0.3c0,0.2,0.1,0.4,0.3,0.4c0.9,0.1,1.7,0,2.5-0.4c0.2-0.1,0.2-0.3,0.1-0.5C80.2,93.4,80,93.3,79.8,93.4
			L79.8,93.4z"/>
	</g>
</g>
<g>
	<g>
		<path class="st8" d="M58.9,79.1c-0.5,1-1.1,2-1.6,3c-0.2,0.4,0.4,0.8,0.6,0.4c0.5-1,1.1-2,1.6-3C59.7,79.1,59.1,78.7,58.9,79.1
			L58.9,79.1z"/>
	</g>
</g>
<g>
	<g>
		<path class="st8" d="M72,76.9C72,76.9,72,76.9,72,76.9c0.2,0.1,0.4,0,0.5-0.1c0.4-0.7-0.6-1-1-0.3c-0.4,0.8-0.7,1.7-1,2.5
			c-0.4,1-0.7,1.9-1,2.9c-1.3,3.7-2.4,7.5-3.3,11.3c-0.1,0.5,0.6,0.7,0.7,0.2c0.7-2.8,1.4-5.6,2.3-8.4c0.4-1.3,0.9-2.7,1.3-4
			c0.3-0.7,0.5-1.4,0.8-2.1c0.1-0.3,0.2-0.6,0.3-0.9c0.1-0.2,0.3-1.2,0.5-1.2c-0.1,0-0.2-0.1-0.4-0.1c0-0.1,0-0.1,0-0.2
			c0.1-0.1,0.3-0.1,0.4-0.2c0,0,0,0-0.1,0C71.7,76,71.5,76.7,72,76.9L72,76.9z"/>
	</g>
</g>
<g>
	<g>
		<path class="st8" d="M65.6,95.6c-0.3,1-0.5,2-0.5,3.1c0,0.5,0.7,0.5,0.7,0c0-1,0.2-1.9,0.5-2.9c0.1-0.2-0.1-0.4-0.3-0.4
			C65.8,95.3,65.6,95.4,65.6,95.6L65.6,95.6z"/>
	</g>
</g>
<g>
	<g>
		<path class="st8" d="M104,41.9c0.4-0.6,0.8-1.3,1.2-1.9c0.2-0.2,0.1-0.6-0.2-0.7c-0.3-0.1-0.6-0.1-0.7,0.2
			c-0.4,0.6-0.8,1.3-1.2,1.9c-0.2,0.2-0.1,0.6,0.2,0.7C103.6,42.3,103.9,42.2,104,41.9L104,41.9z"/>
	</g>
</g>
<g>
	<g>
		<path class="st8" d="M72.9,104.7c-2.8,4.9-0.1,10.3,2.6,14.6c1.2,1.9,2.7,3.3,5,3c2.7-0.3,5.2-1.9,7.7-2.9c2.9-1.1,6-2,9.1-2
			c1.5,0,3,0.3,4.5,0.7c1.3,0.4,2.7,0.8,4.1,0.7c1.7-0.1,3.6-1.1,4-2.8c0.3-1.1-0.1-2.1-0.3-3.1c-0.3-1.6,0.6-2.8,0.8-4.3
			c0.3-2-0.9-3.9-2-5.4c-1.4-1.9-3.2-3.5-4.6-5.5c-0.3-0.4-0.9,0-0.6,0.4c1.9,2.9,5.2,5.1,6.3,8.5c0.7,2.1-0.8,3.6-0.7,5.7
			c0,1.1,0.6,2.1,0.5,3.1c-0.1,1.5-1.4,2.4-2.8,2.7c-2.4,0.5-4.9-0.9-7.3-1.3c-2.3-0.3-4.6,0-6.8,0.5c-2.3,0.6-4.6,1.4-6.8,2.4
			c-2.2,1-5.4,2.9-7.8,1.3c-1.1-0.8-1.8-2.2-2.5-3.4c-0.8-1.3-1.5-2.6-2-4c-1.1-2.8-1.3-5.9,0.2-8.6
			C73.8,104.6,73.1,104.3,72.9,104.7L72.9,104.7z"/>
	</g>
</g>
<g>
	<g>
		<path class="st8" d="M99.8,87.4c0.5,3.9,1.8,7.6,3.7,11c0.2,0.4,0.9,0,0.6-0.4c-1.9-3.3-3.1-7-3.7-10.8
			C100.4,86.8,99.7,87,99.8,87.4L99.8,87.4z"/>
	</g>
</g>
<g>
	<g>
		<path class="st8" d="M117.7,70c2.3,0,4.7,0.7,6.3,2.5c1.8,2,2.3,4.9,1,7.3c-0.1,0.3,0.1,0.6,0.4,0.5c6.6-2.1,11.6-8.2,12-15.1
			c0.3-6.1-2.7-13.4-8.9-15.4c-4.8-1.6-9.7,0.6-14,2.5c-0.4,0.2-0.1,0.8,0.4,0.6c3.6-1.6,7.6-3.4,11.7-2.8c3.3,0.5,6,2.6,7.7,5.5
			c3.2,5.3,3.1,12.2-0.3,17.4c-2.1,3.2-5.2,5.5-8.8,6.6c0.1,0.2,0.3,0.4,0.4,0.5c1.3-2.5,0.9-5.6-0.8-7.8c-1.7-2.2-4.4-3.1-7.1-3.1
			C117.3,69.2,117.3,70,117.7,70L117.7,70z"/>
	</g>
</g>
<g>
	<g>
		<path class="st8" d="M124.8,48.9c-6.9-5-16.6-3.5-21.7,3.3c-0.3,0.4,0.3,0.7,0.6,0.4c4.9-6.5,14.2-7.8,20.7-3.1
			C124.8,49.8,125.1,49.1,124.8,48.9L124.8,48.9z"/>
	</g>
</g>
<g>
	<g>
		<path class="st8" d="M78.6,121.9c0.7,1.4,1.6,3.6,0.1,4.9c-0.5,0.4-1.2,0.5-1.6,0.9c-0.4,0.4-0.3,0.9,0.1,1.2
			c1.3,1,3.2,0.8,4.7,0.6c0.7-0.1,1.4-0.2,1.9-0.8c0.3-0.5,0.4-1.1,0.3-1.6c-0.1-0.8-0.5-1.5-0.9-2.2c-0.6-0.9-1.2-1.9-0.9-3
			c0.1-0.2-0.3-0.3-0.4-0.1c-0.5,1.5,0.7,2.8,1.4,4.1c0.3,0.6,0.5,1.3,0.4,1.9c-0.1,0.8-0.8,1.1-1.5,1.2c-1.5,0.2-3.4,0.5-4.8-0.4
			c-0.8-0.5,0.2-1,0.7-1.2c0.6-0.3,1-0.5,1.3-1.1c0.9-1.5,0.1-3.3-0.6-4.7C78.8,121.5,78.5,121.7,78.6,121.9L78.6,121.9z"/>
	</g>
</g>
<g>
	<g>
		<path class="st8" d="M105.5,118.7c0.3,0.8,0.9,1.5,1.4,2.1c0.5,0.6,1,1.3,1.5,1.9c0.4,0.5,1,0.9,1.7,0.8c0.6-0.1,1.1-0.4,1.4-0.9
			c1-1.3,0.4-3.4-0.1-4.8c-0.6-1.7-1.6-3.2-1.8-5c0-0.2-0.4-0.2-0.4,0c0.2,1.4,0.8,2.7,1.3,4c0.6,1.4,1.4,3.2,1,4.7
			c-0.2,0.7-0.7,1.4-1.4,1.6c-0.9,0.2-1.4-0.5-1.9-1.2c-0.9-1.2-1.9-2.2-2.5-3.5C105.7,118.3,105.4,118.5,105.5,118.7L105.5,118.7z"
			/>
	</g>
</g>
<g>
	<g>
		<path class="st8" d="M79,129.4c-0.1-0.7,0.3-1.4,0.9-1.8c0.6-0.5,1.4-0.7,2.2-0.9c0.2-0.1,0.1-0.4-0.1-0.4
			c-0.8,0.2-1.7,0.5-2.4,1.1c-0.6,0.5-1,1.3-0.9,2.1C78.7,129.7,79.1,129.6,79,129.4L79,129.4z"/>
	</g>
</g>
<g>
	<g>
		<path class="st8" d="M110.8,122.7c-0.4-1.3-1-2.5-1.7-3.6c-0.1-0.2-0.4,0-0.3,0.2c0.7,1.1,1.3,2.3,1.7,3.5
			C110.6,123,110.9,122.9,110.8,122.7L110.8,122.7z"/>
	</g>
</g>
<g>
	<g>
		<path class="st8" d="M85.5,117.9c3.4-2.7,7.8-3.9,12.1-3.5c0.2,0,0.2-0.3,0-0.4c-4.4-0.4-8.9,0.9-12.4,3.6
			C85,117.7,85.3,118,85.5,117.9L85.5,117.9z"/>
	</g>
</g>
<g>
	<g>
		<path class="st8" d="M89,113.5c0.9-0.4,1.8-0.9,2.7-1.3c0.2-0.1,0-0.4-0.2-0.3c-0.9,0.4-1.8,0.9-2.7,1.3
			C88.6,113.3,88.8,113.6,89,113.5L89,113.5z"/>
	</g>
</g>
<g>
	<g>
		<path class="st8" d="M74,56.1c-1.2-1.8-1.5-4.1-0.7-6.2C73.1,50,73.1,50,73,50c1.5,1.1,2.6,2.7,3.2,4.6c0.1,0.2,0.4,0.1,0.4-0.1
			c-0.6-1.9-1.8-3.6-3.4-4.8c-0.1-0.1-0.2,0-0.3,0.1c-0.8,2.1-0.5,4.6,0.8,6.5C73.8,56.5,74.1,56.3,74,56.1L74,56.1z"/>
	</g>
</g>
<g>
	<g>
		<path class="st8" d="M97.1,55.8c0.6-1.8,1.7-3.3,3.2-4.4c-0.1,0-0.2-0.1-0.3-0.1c1.1,3,0.7,6.5-1.2,9.1c-0.1,0.2,0.2,0.4,0.3,0.2
			c1.9-2.7,2.4-6.3,1.2-9.4c0-0.1-0.2-0.2-0.3-0.1c-1.6,1.2-2.7,2.8-3.3,4.6C96.7,55.9,97,56,97.1,55.8L97.1,55.8z"/>
	</g>
</g>
<g>
	<g>
		<path class="st8" d="M88.9,96.9c0.3,0.5-1.4,0.8-1.6,0.8c-0.6,0.1-1.1,0.2-1.7,0.3c-1.2,0.2-2.4,0.3-3.5,0.4
			c-2.3,0.2-4.7,0.1-7-0.2c-0.2,0-0.3,0.3-0.1,0.4c2.9,0.4,5.8,0.4,8.7,0.1c1.4-0.2,2.8-0.4,4.1-0.7c0.5-0.1,2-0.5,1.5-1.3
			C89,96.6,88.7,96.8,88.9,96.9L88.9,96.9z"/>
	</g>
</g>
<g>
	<g>
		<path class="st8" d="M65,55.7c-2.9,7.2-3.4,15.1-1.6,22.6c0.1,0.5,0.8,0.3,0.7-0.2c-1.8-7.4-1.2-15.2,1.6-22.2
			C65.8,55.5,65.1,55.3,65,55.7L65,55.7z"/>
	</g>
</g>
<g>
	<g>
		<path class="st8" d="M67.4,60.6c-1.3,2.7-2,5.7-2,8.6c0,0.5,0.7,0.5,0.7,0c0.1-2.9,0.7-5.7,1.9-8.3C68.2,60.5,67.6,60.2,67.4,60.6
			L67.4,60.6z"/>
	</g>
</g>
<g>
	<g>
		<path class="st8" d="M34.9,125.4c3.1,1.1,6.4,0.6,9.6-0.1c3.6-0.9,7.2-1.9,10.8-2.6c7.5-1.5,15.3-2.2,22.9-0.5
			c0.5,0.1,0.7-0.6,0.2-0.7c-7-1.6-14.3-1.2-21.4,0.1c-3.6,0.7-7.2,1.5-10.7,2.5c-3.6,1-7.5,1.9-11.1,0.6
			C34.6,124.5,34.5,125.3,34.9,125.4L34.9,125.4z"/>
	</g>
</g>
<g>
	<g>
		<path class="st8" d="M104.5,84.5c0.7,1.7,1.9,3,2.9,4.5c1.2,1.6,2.2,3.3,2.9,5.2c1.4,3.7,1.2,8-1.3,11.1c-0.3,0.4,0.2,0.9,0.5,0.5
			c2.4-2.9,2.9-6.9,2-10.5c-0.5-1.9-1.4-3.7-2.5-5.4c-1.2-1.9-3-3.5-3.8-5.6C105.1,83.9,104.4,84.1,104.5,84.5L104.5,84.5z"/>
	</g>
</g>
<g>
	<g>
		<path class="st8" d="M99.4,68.3C99.4,68.2,99.4,68.2,99.4,68.3C99.4,68.2,99.4,68.2,99.4,68.3c0,0,0-0.1,0-0.1
			C99.4,68.2,99.4,68.2,99.4,68.3c0-0.1,0-0.1,0-0.2C99.4,68.1,99.4,68.2,99.4,68.3c0-0.1,0-0.2,0-0.2c0,0,0,0.1,0,0.1
			c0-0.1,0.1-0.1,0.1-0.2c0,0,0,0-0.1,0.1c0.1-0.1,0.1-0.1,0.2-0.2c0,0,0,0-0.1,0.1c0.1,0,0.1-0.1,0.2-0.1c0,0-0.1,0-0.1,0
			c0.1,0,0.1-0.1,0.2-0.1c0,0-0.1,0-0.1,0c0.1,0,0.1,0,0.2,0c0,0-0.1,0-0.1,0c0,0,0.1,0,0.1,0c0,0-0.1,0-0.1,0c0,0,0.1,0,0.1,0.1
			c0,0,0,0-0.1-0.1c0,0,0,0,0.1,0.1c0.1,0.1,0.4,0.1,0.5,0c0.1-0.2,0.1-0.4,0-0.5c-0.6-0.6-1.6-0.1-1.8,0.6c-0.1,0.2,0,0.5,0.1,0.7
			c0.1,0.2,0.3,0.2,0.5,0.1C99.4,68.6,99.5,68.4,99.4,68.3L99.4,68.3z"/>
	</g>
</g>
<g>
	<g>
		<path class="st8" d="M107.1,66.4C107.1,66.4,107.1,66.4,107.1,66.4C107.1,66.4,107.1,66.5,107.1,66.4
			C107.1,66.5,107.1,66.5,107.1,66.4C107.1,66.5,107,66.5,107.1,66.4C107,66.5,107,66.5,107.1,66.4c-0.1,0.1-0.1,0.1-0.1,0.1
			C107,66.5,107,66.5,107.1,66.4c-0.1,0.1-0.1,0.1-0.1,0.1c0,0,0,0,0.1,0c0,0-0.1,0-0.1,0c0,0,0.1,0,0.1,0c0,0-0.1,0-0.1,0
			c0,0,0.1,0,0.1,0c0,0-0.1,0-0.1,0c0,0,0.1,0,0.1,0.1c0,0,0,0-0.1-0.1c0,0,0,0,0.1,0.1c0,0,0,0-0.1-0.1c0,0,0,0,0,0.1
			c0,0,0-0.1,0-0.1c0,0,0,0,0,0c0,0,0-0.1,0-0.1c0,0,0,0,0,0.1c0,0,0-0.1,0-0.1c0,0,0,0,0,0c0,0,0-0.1,0-0.1c0,0,0,0,0,0
			c0,0,0,0.1,0,0.1c0,0,0,0.1,0,0.1c0,0.1,0.1,0.2,0.2,0.2c0.1,0,0.2,0.1,0.3,0c0.1,0,0.2-0.1,0.2-0.2c0.1-0.2,0.1-0.6-0.1-0.7
			c0,0-0.1-0.1-0.2-0.1c-0.1,0-0.1-0.1-0.2-0.1c0,0,0,0,0,0c0,0-0.1,0-0.1,0c-0.1,0-0.1,0-0.2,0c-0.1,0-0.2,0.1-0.2,0.1
			c-0.1,0.1-0.1,0.2-0.1,0.2c0,0,0,0.1,0,0.1c0,0,0,0.1,0,0.1c0,0.1,0.1,0.1,0.2,0.2c0.1,0,0.2,0,0.3,0c0,0,0,0,0.1-0.1
			C107,66.5,107.1,66.5,107.1,66.4L107.1,66.4z"/>
	</g>
</g>
<g>
	<g>
		<path class="st8" d="M104.2,71.6c0-0.3,0-0.5,0-0.8c-0.1,0.1-0.1,0.2-0.2,0.3c0,0,0,0,0,0c0.1,0-0.1,0,0,0c0,0,0.1,0,0.1,0
			c0.1,0,0.1,0,0.2,0c0,0-0.1,0-0.1,0c0.1,0,0.2,0,0.3,0c0,0-0.1,0-0.1,0c0,0,0.1,0,0.1,0c0,0,0,0,0.1,0c0,0,0.1,0.1,0,0
			c0,0,0.1,0,0.1,0.1c0,0,0,0,0.1,0c0.1,0-0.1-0.1,0,0c0.1,0.1,0.2,0.1,0.3,0.1c0.1,0,0.2,0,0.3-0.1c0.1-0.1,0.2-0.4,0-0.5
			c-0.5-0.4-1.1-0.5-1.7-0.2c-0.1,0.1-0.2,0.2-0.2,0.3c0,0.3,0,0.5,0,0.8c0,0.2,0.2,0.4,0.4,0.4C104,71.9,104.2,71.8,104.2,71.6
			L104.2,71.6z"/>
	</g>
</g>
<g>
	<g>
		<path class="st8" d="M68.7,70.3C68.7,70.4,68.6,70.4,68.7,70.3C68.6,70.4,68.7,70.4,68.7,70.3c0,0-0.1,0-0.1,0
			C68.6,70.4,68.6,70.4,68.7,70.3c0,0-0.1,0-0.1,0C68.6,70.4,68.6,70.4,68.7,70.3c-0.1,0-0.1,0-0.2,0c0,0,0.1,0,0.1,0
			c-0.1,0-0.1-0.1-0.2-0.1c0,0,0,0,0.1,0.1c-0.1,0-0.1-0.1-0.2-0.2c0,0,0,0,0.1,0.1c0-0.1-0.1-0.1-0.1-0.2c0,0,0,0.1,0,0.1
			c0-0.1,0-0.1-0.1-0.2c0,0,0,0.1,0,0.1c0-0.1,0-0.1,0-0.2c0,0,0,0.1,0,0.1c0,0,0-0.1,0-0.1c0,0,0,0.1,0,0.1c0,0,0-0.1,0.1-0.1
			c0,0,0,0-0.1,0.1c0,0,0,0,0.1-0.1c0.1-0.1,0.1-0.4,0-0.5c-0.1-0.1-0.4-0.1-0.5,0c-0.6,0.6-0.1,1.6,0.6,1.7c0.2,0.1,0.5,0,0.7-0.1
			c0.2-0.1,0.2-0.3,0.1-0.5C69.1,70.3,68.8,70.2,68.7,70.3L68.7,70.3z"/>
	</g>
</g>
<g>
	<g>
		<path class="st8" d="M71.7,67.1C71.7,67.1,71.7,67.1,71.7,67.1C71.7,67.2,71.8,67.2,71.7,67.1C71.8,67.2,71.8,67.2,71.7,67.1
			c0.1,0.1,0.1,0.1,0.1,0.1C71.8,67.2,71.8,67.2,71.7,67.1c0.1,0.1,0.1,0.1,0.1,0.2c0,0,0,0,0,0c0,0,0,0.1,0,0.1c0,0,0,0,0,0
			c0,0,0,0.1,0,0.1c0,0,0,0,0,0c0,0,0,0.1,0,0.1c0,0,0,0,0,0c0,0,0,0-0.1,0.1c0,0,0,0,0,0c0,0,0,0-0.1,0.1c0,0,0,0,0,0
			c0,0-0.1,0-0.1,0c0,0,0,0,0,0c0,0-0.1,0-0.1,0c0,0,0,0,0,0c0,0-0.1,0-0.1,0c0,0,0,0,0,0c0,0-0.1,0-0.1,0c0,0,0,0,0,0
			c0,0,0,0-0.1-0.1c0,0,0,0,0,0c0,0,0,0-0.1-0.1c0,0,0,0,0,0c0,0,0.1,0.1,0.1,0.1c0,0,0.1,0.1,0.1,0.1c0,0,0.1,0,0.1,0
			c0,0,0.1,0,0.1,0c0,0,0,0,0.1-0.1c0,0,0.1-0.1,0.1-0.2c0,0,0-0.1,0-0.1c0-0.1,0-0.1,0-0.2c0,0,0-0.1-0.1-0.1c0,0,0,0,0,0
			c0,0,0,0,0,0c0,0,0,0,0,0c0,0,0,0,0,0c0,0-0.1,0-0.1,0c0,0,0,0,0,0c0,0,0,0,0,0c0,0,0,0,0,0c0,0-0.1,0-0.1,0c0,0,0,0,0,0
			c0,0-0.1,0-0.1,0c0,0,0,0,0,0c0,0,0,0,0,0c0,0-0.1,0-0.1,0c0,0,0,0,0,0c0,0,0,0,0,0c0,0-0.1,0-0.1,0.1c0,0,0,0,0,0c0,0,0,0,0,0
			c0,0,0,0.1-0.1,0.1c0,0,0,0,0,0c0,0,0,0,0,0c0,0,0,0.1,0,0.1c0,0,0,0,0,0c0,0,0,0.1,0,0.1c0,0,0,0,0,0c0,0,0,0,0,0
			c0,0,0,0.1,0,0.1c0,0,0,0,0,0c0,0,0,0.1,0,0.1c0,0,0,0,0,0c0,0,0,0,0,0c0,0,0,0,0,0c0,0,0,0,0,0c0,0,0,0,0,0c0,0,0.1,0,0.1,0.1
			c0,0,0.1,0,0.1,0c0,0,0.1,0,0.1,0c0,0,0.1,0,0.1-0.1c0,0,0.1-0.1,0.1-0.1c0,0,0-0.1,0-0.1c0-0.1,0-0.1,0-0.2c0,0,0-0.1,0-0.1
			C71.8,67.2,71.8,67.2,71.7,67.1L71.7,67.1z"/>
	</g>
</g>
<g>
	<g>
		<path class="st8" d="M22.4,124.4c-1.8-2.3-4.4-3.8-7.2-4.3c-0.3-0.1-0.6,0.3-0.4,0.6c1.3,1.2,1.9,3,1.6,4.8c0.2,0,0.4-0.1,0.7-0.1
			c-0.7-1-2.3-2.5-3.4-1c-0.1,0.1-0.1,0.3-0.1,0.4c0.3,0.5,0.6,0.9,0.9,1.4c0.1-0.2,0.1-0.4,0.2-0.5c-2.9,0.5-5.8,0.6-8.7,0.3
			c-0.5-0.1-0.5,0.7,0,0.7c3,0.3,5.9,0.2,8.9-0.3c0.2,0,0.3-0.3,0.2-0.5c-0.3-0.5-0.6-0.9-0.9-1.4c0,0.1,0,0.3-0.1,0.4
			c0.8-1,1.8,0.2,2.2,0.9c0.2,0.2,0.6,0.2,0.7-0.1c0.4-2-0.2-4.1-1.7-5.5c-0.1,0.2-0.2,0.4-0.4,0.6c2.8,0.5,5.2,1.9,6.9,4.1
			C22.2,125.3,22.7,124.8,22.4,124.4L22.4,124.4z"/>
	</g>
</g>
<g>
	<g>
		<path class="st8" d="M76.8,127.8c-3.5,0.3-7,0.7-10.5,1c-0.5,0-0.5,0.8,0,0.7c3.5-0.3,7-0.7,10.5-1
			C77.2,128.5,77.3,127.7,76.8,127.8L76.8,127.8z"/>
	</g>
</g>
<g>
	<g>
		<path class="st8" d="M91.6,128.4c4.2-0.5,8.4-0.8,12.6-0.9c0.5,0,0.5-0.7,0-0.7c-4.2,0.1-8.4,0.4-12.6,0.9
			C91.2,127.7,91.2,128.5,91.6,128.4L91.6,128.4z"/>
	</g>
</g>
<g>
	<g>
		<path class="st8" d="M104.5,127.2c-0.8-1.5-1.9-2.7-3.2-3.8c-0.1,0.2-0.3,0.4-0.4,0.6c2.1,1,4,2.4,5.5,4.1c0.2,0.3,0.7,0,0.6-0.4
			c-0.2-0.7-0.1-1.4,0.3-2c-0.2,0-0.4,0-0.6,0.1c1.2,0.9,2.4,1.9,3.8,2.5c1,0.4,1.4,0,2.1-0.7c2-2.2,5.2-2.8,8.1-3.2
			c-0.1-0.2-0.1-0.5-0.2-0.7c-1.7,0.5-2.9,1.8-3.2,3.6c0,0.2,0.1,0.5,0.4,0.5c4.6,0.2,9.3,0.4,13.9,0.6c0.5,0,0.5-0.7,0-0.7
			c-4.6-0.2-9.3-0.4-13.9-0.6c0.1,0.2,0.2,0.3,0.4,0.5c0.3-1.5,1.3-2.6,2.7-3.1c0.5-0.1,0.3-0.8-0.2-0.7c-2.2,0.4-4.6,0.8-6.5,1.9
			c-0.4,0.2-0.8,0.5-1.1,0.8c-0.4,0.3-0.8,1-1.2,1.2c-1.1,0.7-3.6-1.5-4.4-2.2c-0.2-0.1-0.4-0.1-0.6,0.1c-0.5,0.8-0.6,1.7-0.3,2.6
			c0.2-0.1,0.4-0.2,0.6-0.4c-1.6-1.8-3.5-3.2-5.6-4.2c-0.3-0.2-0.8,0.3-0.4,0.6c1.2,1,2.3,2.2,3,3.6
			C104.1,128,104.7,127.6,104.5,127.2L104.5,127.2z"/>
	</g>
</g>
<circle class="st12" cx="21.1" cy="20.6" r="1.8"/>
<circle class="st12" cx="90.5" cy="18.5" r="1.8"/>
<g>
	<g>
		<path class="st10" d="M80.4,124.4c0.9,0,0.9-1.5,0-1.5C79.4,122.9,79.4,124.4,80.4,124.4L80.4,124.4z"/>
	</g>
</g>
</svg>
