<?xml version="1.0" encoding="utf-8"?>
<!-- Generator: Adobe Illustrator 24.0.1, SVG Export Plug-In . SVG Version: 6.00 Build 0)  -->
<svg version="1.1" id="Layer_1" xmlns="http://www.w3.org/2000/svg" xmlns:xlink="http://www.w3.org/1999/xlink" x="0px" y="0px"
	 viewBox="0 0 141.7 141.7" style="enable-background:new 0 0 141.7 141.7;" xml:space="preserve">
<style type="text/css">
	.st0{fill:#CEAE94;}
	.st1{fill:#ECCCAE;}
	.st2{opacity:0.27;fill:#FFFFFF;}
	.st3{fill:#75D0ED;}
	.st4{fill:#CAB19D;}
	.st5{fill:#FFFFFF;}
	.st6{fill:#C9E3B1;}
	.st7{fill:#F38568;}
	.st8{fill:#EDA796;}
	.st9{fill:#CC9793;}
	.st10{fill:#AB685D;}
	.st11{fill:#8C534D;}
	.st12{fill:#756C67;}
	.st13{fill:#070707;}
	.st14{fill:none;stroke:#070707;stroke-width:0.3895;stroke-miterlimit:10;}
	.st15{fill:none;stroke:#070707;stroke-width:1.8178;stroke-miterlimit:10;}
	.st16{fill:#010101;}
	.st17{font-family:'Helvetica-Bold';}
	.st18{font-size:6.7671px;}
	.st19{fill:#524C48;}
	.st20{fill:#0486B4;}
</style>
<g id="Layer_12">
</g>
<g id="Layer_8">
</g>
<g id="Layer_15">
</g>
<g id="Layer_16">
</g>
<path class="st0" d="M131.7,57.4l-53.3-8.8c-1.6-0.3-3.1,0.8-3.4,2.4l-1.9,11.8c-0.3,1.6,0.8,3.1,2.4,3.4l53.3,8.8
	c1.6,0.3,3.1-0.8,3.4-2.4l1.9-11.8C134.4,59.2,133.3,57.6,131.7,57.4z"/>
<path class="st1" d="M131.5,55.1l-53.1-8.8c-1.6-0.3-3.2,0.8-3.4,2.5l-2,12c-0.3,1.6,0.8,3.2,2.5,3.4l53.1,8.8
	c1.6,0.3,3.2-0.8,3.4-2.5l2-12C134.2,56.9,133.1,55.4,131.5,55.1z"/>
<path class="st2" d="M131,58.1l-52.2-8.6c-0.3-0.1-0.6,0.2-0.7,0.5l0,0.1c-0.1,0.3,0.2,0.6,0.5,0.7l52.2,8.6
	c0.3,0.1,0.6-0.2,0.7-0.5l0-0.1C131.5,58.4,131.3,58.2,131,58.1z"/>
<path class="st3" d="M36.5,121.7c0,0-0.1-1.4-0.2-3.6c-0.3-5.6-0.8-16.1-0.7-18.7c0.1-3.6,0.7-7.8,0.7-7.8l1.6-5.5
	c0,0,3.7-9.8,13.8-12.6c0,0,1.9,3.1,11.3,2.7l2.9,0.8c0,0,3.7,1,2.6-1.4l-1.7-0.9l0.9-0.8l4.1,0.8l1.9-0.5l-0.1-0.8l-1.3-1.1
	c0,0,4.3-0.8,12.3,4.7c0,0,5.8,5.9,7,11.1c1.1,5.1,1.4,33.6,1.4,33.6S59.2,128.1,36.5,121.7z"/>
<path class="st3" d="M36.7,89.6L34.2,89c0,0-4.4-2.8-3.1-7c0,0,1-3.4,5.7-4.7c0,0,2.9-0.3,4.1,0.2l1.8,1.2l-3.4,4.9
	C39.4,83.6,36.8,88.3,36.7,89.6z"/>
<path class="st3" d="M84.6,77.1l3.9-1.4h2l2.8,0.7l1.8,1.7l0.9,2.2c0,0,0.6,3.5-0.4,4.9c0,0-1.6,2.9-4.1,3L84.6,77.1z"/>
<polyline class="st4" points="34.8,118.1 31.8,118.8 30.3,121 29.9,121.8 30.2,122.9 30.8,123.2 31.1,123.7 32,124.4 33.3,124.3 
	34.8,123.2 35.7,122.6 36.5,121.7 36.4,118.1 34.8,117.5 "/>
<polygon class="st4" points="92.9,99.2 95.7,96.9 98.3,97 98.9,98 99,99.6 98.3,101 96.6,103 94.6,102.9 92.9,103 "/>
<polygon class="st4" points="60.4,94.1 58.9,94.8 57.6,95.6 56.9,96.9 56.7,98.4 57.3,99.3 58.5,99.9 60,99.9 61.3,99.9 64,99.3 
	65.3,99.2 66.7,99.4 68.2,99.9 69.4,99.9 70.6,99.3 71,98.6 71.4,97.7 71.1,96.7 70,95.4 67.4,93.9 "/>
<circle class="st5" cx="52.7" cy="86" r="8.7"/>
<circle class="st5" cx="75" cy="85.1" r="8.7"/>
<polygon class="st5" points="60.4,101.3 60.4,103 60.7,104.5 61.6,105.4 63,105.4 63.9,104.6 64.2,103.8 64.9,105.1 66.2,105.4 
	67.1,104.7 68.1,103.4 68.1,102.4 68.1,101.3 67.6,99.9 66.1,99.3 64,99.3 63,99.4 60.7,100 "/>
<g>
	<g>
		<path class="st5" d="M65.1,104.7c0.3,0.2,0.5,0.3,0.8,0.5c0.2,0.1,0.5,0.1,0.7,0c0.5-0.2,0.8-0.6,1.1-1.1c0.1-0.2,0.1-0.3,0.1-0.5
			c0-0.2-0.2-0.3-0.3-0.4c-0.2-0.1-0.3-0.1-0.5-0.1c-0.2,0-0.3,0.1-0.4,0.3c-0.1,0.1-0.1,0.3-0.2,0.4c0,0,0.1-0.1,0.1-0.1
			c-0.1,0.1-0.2,0.2-0.3,0.3c0,0,0.1-0.1,0.1-0.1c-0.1,0.1-0.2,0.1-0.3,0.2c0.2,0,0.4,0,0.7,0c-0.3-0.2-0.5-0.3-0.8-0.5
			c-0.3-0.2-0.7-0.1-0.9,0.2C64.7,104.2,64.8,104.5,65.1,104.7L65.1,104.7z"/>
	</g>
</g>
<g>
	<g>
		<path class="st5" d="M67.7,104c0.1-0.4,0.2-0.8,0.3-1.2c0-0.1,0-0.1,0-0.2c0-0.1,0-0.1,0-0.2c0-0.1-0.1-0.3-0.2-0.3
			c-0.1-0.1-0.2-0.1-0.3-0.1c-0.2,0-0.3,0-0.4,0.1c-0.3,0.1-0.4,0.4-0.4,0.7c0,0.1,0,0.2,0,0.3c0,0,0,0.1,0,0.1c0-0.1,0-0.1,0-0.2
			c0,0,0,0,0,0.1c0-0.1,0-0.1,0-0.2c0,0,0,0,0,0c0-0.1,0-0.1,0.1-0.2c0,0,0,0,0,0c0,0,0.1-0.1,0.1-0.1c0,0,0,0,0,0
			c0,0,0.1-0.1,0.1-0.1c0,0,0,0,0,0c0.1,0,0.1,0,0.2-0.1c0,0,0,0,0,0c0.1,0,0.1,0,0.2,0c0,0,0,0,0,0c0.1,0,0.1,0,0.2,0c0,0,0,0,0,0
			c0.1,0,0.1,0,0.2,0.1c0,0,0,0,0,0c0,0,0.1,0.1,0.1,0.1c0,0,0,0,0,0c0,0,0.1,0.1,0.1,0.1c0,0,0,0,0,0c0,0.1,0,0.1,0.1,0.2
			c0,0,0,0,0,0c0,0.1,0,0.1,0,0.2c0,0,0,0,0,0c0,0.1,0,0.1,0,0.2c0,0,0,0,0,0c0,0.1,0,0.1-0.1,0.2c0,0,0,0,0,0c0,0-0.1,0.1-0.1,0.1
			c0,0,0,0,0,0c0,0-0.1,0.1-0.1,0.1c0,0,0,0,0,0c0.1-0.1,0.3-0.2,0.3-0.4c0-0.2,0-0.4-0.1-0.5c-0.1-0.1-0.2-0.3-0.4-0.3
			c-0.2,0-0.4,0-0.5,0.1c-0.2,0.1-0.3,0.2-0.3,0.4c-0.1,0.2,0,0.4,0.1,0.5c0.2,0.3,0.5,0.4,0.8,0.3c0.3-0.1,0.5-0.4,0.5-0.7
			c0-0.1,0-0.2-0.1-0.3c0,0,0-0.1,0-0.1c0,0.1,0,0.1,0,0.2c0,0,0,0,0-0.1c0,0.1,0,0.1,0,0.2c0,0,0,0,0,0c0,0.1,0,0.1-0.1,0.2
			c0,0,0,0,0,0c0,0-0.1,0.1-0.1,0.1c0,0,0,0,0,0c0,0-0.1,0.1-0.1,0.1c0,0,0,0,0,0c-0.3-0.2-0.6-0.5-1-0.7c-0.1,0.4-0.3,0.8-0.3,1.2
			c0,0.2,0,0.3,0.1,0.5c0.1,0.1,0.2,0.3,0.4,0.3c0.2,0,0.4,0,0.5-0.1C67.5,104.3,67.6,104.2,67.7,104L67.7,104z"/>
	</g>
</g>
<path class="st6" d="M118.5,120.2c-0.3-0.2-0.6-0.3-0.8-0.5c-0.3,0-0.6-0.1-0.9-0.2c0.2,0.1,0.3,0.2,0.3,0.2l-1.4-0.4l-0.9,0.8
	l-1.5-0.6l-1,0.4l-1.1-0.6l-1.6,0.4l0.8-1.9c-0.1,0-0.1,0-0.2-0.1c0,0-0.1,0-0.1-0.1l-1,1l-0.8-0.5l1.2-2.2c0-0.1,0-0.2,0-0.3
	l0.1-0.3c0.1-0.2,0.2-0.3,0.3-0.4l0.5-0.9l-0.6,0.5c0,0.3-0.2,0.5-0.4,0.7c-0.2,0.3-0.6,0.4-0.9,0.4c0,0-0.1,0-0.1,0l-1.9,1.6
	l0.9-2.2c-0.1-0.2-0.2-0.4-0.2-0.7v-0.1c0-0.2,0-0.4,0.1-0.5l-2.7,2.8l-1.8,2.1l-3.5,1.9c0,0-33.1,7.4-63.2,1.3l-1.7,1.5l-1.5,1
	l-1.3,0.1l-0.9-0.7l-0.8-0.9l-0.3-1l0.4-0.8l0.7-0.9l-0.7-0.3c0,0-3.7-1.2-4.8-2.7c-1.1-1.5-2-3.1-2-3.1l-1.4-0.9l1,2.3l0.9,3
	l-1.8-1.3l0.3,0.8l-4,1.9l-9.3,0.4l10.2,3.4c-0.2-1,0.8-2,1.9-1.4c2.5,1.3,3.4,3.8,3.7,6.6l0.3,0.5c0,0-1.4,9.2,24.8,7.9
	c0.1-0.1,0.1-0.2,0.2-0.3c0.1-0.2,0.3-0.4,0.6-0.5c-0.1-1.1,1.3-1.9,2.2-1c0.5,0.5,1,1,1.5,1.5c0.2,0,0.3,0,0.4,0
	c0.4-1.2,0.5-2.4-0.3-3.5c-0.8-1.1,0.7-2.4,1.8-1.8c1.6,1,3.2,2.2,4.9,2.9c0.2,0.1,0.4,0.1,0.6,0.2c0.7-0.6,1.3-1.2,1.9-2
	c0-0.1,0-0.2,0-0.3c0-0.3,0.1-0.6,0.2-0.8l-1.1-2.8l2.3,1.8l0.5-1.2l1.8,1.5l1.5-0.5l3.3,0.8l11.6,0c0,0,3,0.1,7.4,0.1
	c0.8-1.2,1.9-2.2,3-3.1c1.1-0.9,2.3,0.7,1.8,1.8c-0.2,0.4-0.2,0.9,0,1.3c0.6,0,1.3,0,1.9,0c0.1-0.1,0.1-0.3,0.2-0.4
	c0.6-1.1,2.1-0.6,2.4,0.3C115.9,130.5,133.7,128.3,118.5,120.2z"/>
<polygon class="st7" points="53.2,38.5 53.9,36.3 54,32.9 54.7,30.1 56.1,27.6 58,25.4 60.8,24.1 63.3,23.4 66.3,23.4 70.2,24 
	72.9,24.6 75.1,26.4 76.9,27.6 74.9,29 72.9,30.6 71.1,32.8 70.1,34.4 67.6,36 64.9,36.5 63.3,36.5 60.7,36.5 57.3,37.1 54.4,38.5 
	53.2,39.3 "/>
<polygon class="st7" points="61.7,48.7 59.4,50.8 56.7,51.9 54.6,52.8 52.2,54.2 50.3,56.1 48.6,59.6 48.2,62.4 48.2,65 49.2,68.9 
	50.6,72 53.9,74.8 57.5,75.8 61.7,76 64.5,75.5 66.9,74 68.8,71.4 69.2,69.3 71.1,66.7 72.6,63.8 73.7,57.1 76,55.3 76.8,54.2 
	76.7,52.5 75.2,51 72.6,51.3 70.2,50.8 67.3,49.5 66.2,48.5 66.3,47.5 "/>
<polygon class="st7" points="73.9,66 74.3,68.3 73.9,70.5 72.3,72.4 70.5,72 "/>
<path class="st7" d="M52.8,26.7h-0.5l-2.4-1.2l-2.3-2l-1.3-1.2v-0.9l-1.1,0.4l0.6,1.7l1.5,3l0.9,2.8l0.7,2.6l1.2,2.4l1.8,1.6
	l1.6,0.2l0.6-3.2l0.7-3.5l1.4-1.7l-0.3-0.2C54.8,27.2,53.8,27,52.8,26.7z"/>
<polygon class="st7" points="65.2,23 67.4,21 68.6,18.3 68.9,15.4 68.9,13.7 69.9,11.7 70.3,12.3 71.1,15.7 71.8,17.4 73.2,19.1 
	74.4,21.3 74.9,23.1 75,24.6 75.1,26.4 72.9,24.6 70.2,24 "/>
<circle class="st5" cx="60.8" cy="31.8" r="4"/>
<circle class="st5" cx="68.7" cy="28.7" r="4"/>
<polygon class="st8" points="64.3,36.5 61.6,36.3 58.5,36.9 55.1,38.1 52.7,40.2 51.4,42.3 51.4,44.9 52.7,47.1 55.9,49 58,49.2 
	60.7,48.7 63.3,48.1 68.3,47.4 70.8,47.3 72.4,46.6 74.5,45.1 76.8,43.6 79.1,41.7 81.2,40.3 83.7,37.3 84.5,35.1 84.5,32.8 
	83.7,30.1 82,28.4 80,27.6 77.5,28 74.9,29 72.9,30.6 70.1,34.4 "/>
<polygon class="st8" points="68.6,23.1 70.1,21.3 70.3,18.4 71.6,19 72,21.4 72,23.4 72,24.3 69.6,23.9 68.3,23.6 "/>
<polygon class="st8" points="49.2,26.7 50.6,29.6 51.5,31.6 53.2,32.9 54,32.9 54,31.4 54.7,30.1 54.7,29.3 53.4,29.1 51.6,28.4 "/>
<polygon class="st8" points="72.6,63.8 70.3,67.7 69.2,69.3 68.8,71.4 67.6,73.3 66.9,74 69.1,73.1 70.5,72 72,69.3 73.9,66 "/>
<polygon class="st8" points="86.8,46.7 87.1,44.9 89.9,44.8 92.1,44.8 93.5,46.1 93.3,47.9 "/>
<polygon class="st8" points="76,51.2 76.7,48.6 77.2,50.1 78,50.6 79.9,50.2 81.2,50.3 82.2,51.4 82.1,53.3 81.7,54.2 80.6,55.4 
	79.1,56.1 77.5,55.7 76.8,55 76.9,53.3 76.7,52.5 "/>
<polygon class="st5" points="66.9,42.2 67,43.6 67.6,45.2 68.3,45.9 69.6,45.9 70.3,45.2 70.3,44 70.2,42.9 69.7,41.5 69.5,40.8 "/>
<polygon class="st5" points="72,40.3 72.9,41.5 73.3,42.9 73.3,43.9 72.7,44.6 71.6,45.3 71,44.8 69.5,40.8 "/>
<polygon class="st8" points="66.3,47.5 69.6,47.3 72.4,46.6 74.5,45.1 76.8,43.6 79.1,43.2 81.9,44.3 85.3,44.5 87.1,44.9 
	86.8,46.7 84.7,46.7 81.6,45.9 79.1,45.9 77.5,45.4 75.7,46.1 75,47.2 74.9,49.4 74.3,50.8 72,50.8 70.2,50.8 67.3,49.5 66.2,48.5 
	"/>
<path class="st7" d="M74.9,38.5l-0.3-0.9c-0.4-0.4-0.9-0.8-1.3-1.2c-0.4-0.1-0.8-0.3-1.3-0.4l-1.1-0.1L70.3,36
	c-0.1,0.1-0.3,0.3-0.5,0.4c-1.3,0.7-2.7,1.4-4.2,1.1c-0.1,0-0.1,0-0.2,0l-0.5,0.2L64,39.1l-0.7,1.2l0.1,1.2l1.2,0.8h1.5l0.7-0.1
	l1.4-0.7l1.2-0.7l1.6-0.5h1.9l1-0.3l0.9-0.7L74.9,38.5z"/>
<g>
	<path class="st8" d="M70.3,49.8c0.3,0.1,0.6,0.2,0.9,0.2c0.9,0.2,1.8,0.4,2.6,0.3"/>
</g>
<polygon class="st7" points="50.6,72.2 48.5,66.3 48.2,62.5 49.2,58.4 50.3,56.3 53.2,53.5 56.7,52.1 59.4,51 61.7,48.8 60.7,48.8 
	55.9,49.1 52.7,47.2 51.8,46 51.4,42.5 52.7,40.3 53.2,38.6 53.9,36.5 51.8,36 48.6,31 47.4,27.4 45.7,23.6 45,20.9 46.4,19.5 
	46.2,22.4 49,24.9 52.8,26.8 55.8,27.6 58,25.6 56.8,21.5 56.1,18.5 53.4,14.6 49.2,11.1 44.4,8.9 39.6,8.4 34.9,10.1 31,11.4 
	28.6,13.7 24.1,15.1 20.3,16.7 17.6,18.5 15.2,20.5 12.1,23.2 9.5,27.4 9.3,29.4 10.1,31.7 13.1,32 16.6,31 21.9,29.7 28.6,29.7 
	34.8,30.7 36.5,32.6 39.6,36 39.8,39.2 38.9,43.9 37.1,47.4 35.4,52.1 34.5,55 34.4,58 35.5,61.9 37.1,65.3 41,69.1 44.4,71.1 "/>
<polyline class="st8" points="63.1,76.3 66,77.1 67.7,77.3 68.7,75.7 66.9,74 "/>
<polygon class="st8" points="70.5,72 72.3,72.4 73.7,73.5 73.8,74.3 71.9,74.8 67.8,74 "/>
<g>
	<path class="st7" d="M34.8,28.4c-0.1-0.5-0.6-0.9-1.1-0.9c0.8,1,1.7,1.8,2.7,2.5c-0.7-0.4-1.3-0.7-2-1.1c0.4,0.8,1.1,1.4,1.9,1.6
		c-0.5-0.6-1.2-1.1-2-1.4c0.4,0.5,1,0.9,1.6,1.1c-0.7-0.6-1.6-1-2.5-1c0.7,0.7,1.6,1.2,2.6,1.4c-1-0.5-2-1-3-1.5
		c2,0.9,3.8,2.3,5.3,3.9"/>
</g>
<polygon class="st9" points="120.2,34.1 117.5,34.9 114.8,37 113.1,38.8 110.8,41.7 109.6,44.5 109.5,47.1 112.4,49.8 115.5,51.2 
	122.1,51.7 125,50.7 126.7,49.8 126.3,47.2 123.8,40.8 "/>
<polygon class="st10" points="118.2,33.2 121.8,31.8 125.5,32.5 128.2,35 130,38.2 131.2,42.3 131.3,45 130.1,48.1 128.6,50.1 
	126,51.2 127,48.7 125.7,45.3 122.6,38.3 120.2,34.1 "/>
<g>
	<g>
		<path class="st7" d="M34.4,29.3c0.4,0.5,0.8,0.8,1.4,1c0.3,0.1,0.7-0.1,0.8-0.4c0.1-0.3,0-0.7-0.3-0.8c-0.5-0.2-0.9-0.5-1.4-0.7
			c-0.3-0.2-0.6-0.1-0.8,0.2c-0.2,0.2-0.2,0.6,0.1,0.9c0.4,0.4,0.8,0.7,1.2,1.1c0.3-0.3,0.5-0.7,0.8-1c-0.4-0.2-0.9-0.4-1.3-0.6
			c-0.2-0.1-0.5-0.1-0.7,0.1c-0.2,0.1-0.3,0.4-0.2,0.7c0.2,0.4,0.4,0.7,0.8,0.9c0.4,0.2,0.8,0.3,1.2,0.2c0.3,0,0.5-0.4,0.5-0.6
			c0-0.3-0.2-0.5-0.5-0.6c-0.5-0.2-0.9-0.3-1.4-0.5c-0.3-0.1-0.6,0.1-0.7,0.3c-0.1,0.3-0.1,0.6,0.1,0.8c0.4,0.5,1,0.7,1.6,0.8
			c-0.1-0.4-0.2-0.8-0.3-1.2c0.1,0,0.1,0,0.1,0c0,0,0,0-0.1,0c0,0,0.1,0,0.1,0c-0.1,0-0.1,0,0,0c0.1,0,0,0,0,0c0,0,0.1,0,0.1,0
			c-0.1,0,0,0,0,0c-0.3,0.3-0.5,0.7-0.8,1c0.4,0.2,0.7,0.4,1.1,0.6c0.3,0.2,0.7,0.1,0.9-0.2c0.2-0.3,0.1-0.7-0.2-0.9
			c-0.4-0.3-0.9-0.7-1.3-1c-0.4-0.3-1,0.1-1,0.6c0,0.8,0.7,1.4,1.4,1.4c0.4,0,0.7-0.4,0.6-0.8C35.7,29.8,35.1,29.3,34.4,29.3
			c-0.6,0-0.8,0.9-0.3,1.2c0.9,0.5,1.9,1,2.8,1.5c0.3,0.2,0.7,0.1,0.9-0.2c0.2-0.3,0.1-0.7-0.2-0.9c-0.9-0.5-1.9-1-2.8-1.5
			c-0.1,0.4-0.2,0.8-0.3,1.2c0,0,0,0,0.1,0c0.1,0,0,0-0.1,0c0,0,0.1,0,0.1,0c0.1,0-0.1-0.1,0,0c0,0,0.1,0.1,0.1,0.1
			c-0.1,0-0.1-0.1,0,0c0.1,0.1,0,0,0,0c0,0,0.1,0.1,0.1,0.1c0.1,0.1,0-0.1,0,0c0.2-0.3,0.4-0.5,0.6-0.8c-0.1,0,0.1,0,0,0
			c0,0,0,0-0.1,0c0,0,0,0,0.1,0c0,0-0.1-0.1-0.1-0.1c0,0,0,0,0,0c0,0,0,0,0,0c-0.1-0.1,0,0,0,0c0,0-0.1-0.1-0.1-0.1c0,0,0,0.1,0,0.1
			c0,0,0-0.1,0-0.1c0-0.1,0,0.1,0,0c-0.3,0.2-0.7,0.4-1,0.6c0.4,0.3,0.9,0.7,1.3,1c0.2-0.4,0.4-0.7,0.7-1.1
			c-0.4-0.2-0.7-0.4-1.1-0.6c-0.3-0.2-0.6-0.1-0.8,0.2c-0.2,0.2-0.2,0.6,0.1,0.9c0.4,0.4,0.9,0.4,1.4,0.2c0.2-0.1,0.4-0.5,0.3-0.7
			c-0.1-0.3-0.3-0.5-0.6-0.5c-0.1,0,0.1,0,0,0c0,0-0.1,0-0.1,0c0,0-0.2,0,0,0c0,0-0.1,0-0.1-0.1c0,0-0.1,0-0.1-0.1
			c0,0-0.1,0-0.1-0.1c0,0,0,0,0.1,0c-0.1,0-0.2-0.2-0.2-0.2c-0.2,0.4-0.4,0.7-0.6,1.1c0.5,0.2,0.9,0.3,1.4,0.5c0-0.4,0-0.8,0-1.3
			c0.2,0,0,0,0,0c-0.1,0,0.1,0,0,0c0,0-0.1,0-0.1,0c0,0,0,0,0.1,0c0,0-0.1,0-0.1,0c0,0-0.1-0.1-0.1-0.1c0.1,0.1,0.1,0.1,0,0
			c0,0,0,0-0.1-0.1c-0.1-0.1,0.1,0.1,0,0c0,0-0.1-0.2,0,0c-0.3,0.2-0.6,0.5-1,0.7c0.4,0.2,0.9,0.4,1.3,0.6c0.3,0.1,0.6,0.1,0.8-0.2
			c0.2-0.2,0.2-0.6-0.1-0.9c-0.4-0.4-0.8-0.7-1.2-1.1c-0.3,0.3-0.5,0.7-0.8,1c0.5,0.2,0.9,0.5,1.4,0.7c0.2-0.4,0.3-0.8,0.5-1.2
			c-0.2-0.1,0.1,0.1,0,0c0,0-0.1,0-0.1-0.1c-0.1,0-0.1-0.1-0.2-0.1c-0.1,0,0.1,0.1,0,0c0,0-0.1-0.1-0.1-0.1c0,0-0.1-0.1-0.1-0.1
			c0,0-0.1-0.1,0,0c-0.1-0.1-0.2-0.2-0.4-0.3c-0.2,0-0.4,0-0.5,0.1C34.4,28.6,34.2,29,34.4,29.3L34.4,29.3z"/>
	</g>
</g>
<polygon class="st10" points="129.7,36.9 131.2,35.3 132.4,34.2 133.1,35.3 133.8,36.9 133.9,37.2 132.3,37.2 131.4,37.5 
	130.4,38.2 130,38.2 129.4,37.1 "/>
<polygon class="st11" points="117.5,34.9 117.5,33.9 118.2,33.2 119.2,33.4 120.2,34.1 118.8,34.5 "/>
<polyline class="st11" points="125.3,50.8 126.2,50.1 127,50.1 126.7,50.8 126,51.2 125.1,51 "/>
<g>
	<g>
		<path class="st8" d="M87,47.3c1,0.1,1.9,0.2,2.9,0.3c0.4,0,0.9,0.1,1.3,0.3c0.5,0.1,1,0.2,1.5,0c0.3-0.1,0.6-0.4,0.5-0.8
			c-0.1-0.3-0.5-0.6-0.8-0.5c-0.4,0.1-0.7,0-1.1-0.1c-0.5-0.1-0.9-0.2-1.4-0.2c-0.9-0.1-1.7-0.1-2.6-0.2c-0.3-0.1-0.7,0.1-0.8,0.5
			C86.5,46.8,86.7,47.2,87,47.3L87,47.3z"/>
	</g>
</g>
<g>
	<g>
		<path class="st5" d="M70.1,42.4c0,0.5,0,0.9,0.1,1.4c0,0.2,0.1,0.5,0.2,0.7c0.1,0.2,0.3,0.4,0.6,0.5c0.5,0.2,1.1,0.3,1.6,0
			c0.5-0.3,0.8-0.9,0.6-1.4c-0.1-0.2-0.1-0.3-0.3-0.4c-0.1-0.1-0.3-0.1-0.5-0.1c-0.3,0.1-0.6,0.5-0.5,0.8c0,0,0,0.1,0,0.1
			c0-0.1,0-0.1,0-0.2c0,0,0,0.1,0,0.1c0-0.1,0-0.1,0-0.2c0,0,0,0.1,0,0.1c0-0.1,0-0.1,0.1-0.2c0,0,0,0.1-0.1,0.1
			c-0.1,0.1,0.1-0.1,0,0c0,0,0,0,0,0c0,0,0,0,0.1-0.1c0,0-0.1,0-0.1,0.1c0.1,0,0.1,0,0.2-0.1c-0.1,0-0.1,0-0.2,0.1
			c0.1,0,0.1,0,0.2,0c-0.1,0-0.2,0-0.3,0c0.1,0,0.1,0,0.2,0c-0.1,0-0.2-0.1-0.4-0.1c0.1,0,0.1,0,0.2,0.1c0,0-0.1,0-0.1-0.1
			c0,0-0.1-0.1,0,0c0.1,0.1,0,0,0,0c0.1,0.1,0.1,0.1,0,0c0,0,0,0,0-0.1c0,0.1,0,0.1,0.1,0.2c-0.1-0.2-0.1-0.5-0.2-0.8
			c0,0.1,0,0.1,0,0.2c0-0.3-0.1-0.6,0-1c0-0.3-0.3-0.7-0.6-0.6C70.4,41.7,70.1,42,70.1,42.4L70.1,42.4z"/>
	</g>
</g>
<g>
	<g>
		<path class="st5" d="M67.3,44.6c0.3,0.4,0.6,0.7,0.9,1.1c0.2,0.2,0.4,0.4,0.7,0.5c0.2,0,0.4,0,0.5,0c0.2-0.1,0.4-0.2,0.5-0.4
			c0.1-0.1,0.1-0.4,0.1-0.5c0-0.2-0.2-0.3-0.3-0.4c-0.2-0.1-0.3-0.1-0.5-0.1c-0.1,0-0.1,0-0.2,0.1c-0.1,0.1-0.2,0.1-0.2,0.2
			c0,0,0,0,0,0c0,0,0.1-0.1,0.1-0.1c0,0,0,0,0,0c0,0,0.1-0.1,0.1-0.1c0,0,0,0-0.1,0c0.1,0,0.1,0,0.2-0.1c0,0-0.1,0-0.1,0
			c0.1,0,0.1,0,0.2,0c0,0-0.1,0-0.1,0c0.1,0,0.1,0,0.2,0c0,0-0.1,0-0.1,0c0.1,0,0.1,0,0.2,0.1c0,0-0.1,0-0.1-0.1
			c0,0,0.1,0.1,0.1,0.1c-0.1-0.1-0.2-0.2-0.2-0.3c-0.1-0.1-0.2-0.2-0.3-0.3c-0.2-0.2-0.4-0.4-0.6-0.7c-0.1-0.1-0.3-0.2-0.5-0.2
			c-0.2,0-0.3,0.1-0.5,0.2c-0.1,0.1-0.2,0.3-0.2,0.5C67.1,44.3,67.1,44.4,67.3,44.6L67.3,44.6z"/>
	</g>
</g>
<g>
	<g>
		<path class="st8" d="M70.7,50.3c0.3,0.4,0.9,0.7,1.4,0.8c0.3,0.1,0.6,0.1,1,0c0.1,0,0.2,0,0.2,0c0,0,0.1,0,0.1,0c0.1,0,0,0,0,0
			c0,0,0.2,0,0.2,0c0,0,0.1,0,0.1,0c0.1,0-0.2,0,0,0c0.3,0.1,0.7-0.1,0.8-0.5c0.1-0.3-0.1-0.7-0.5-0.8c-0.4-0.1-0.7,0-1,0
			c-0.1,0-0.1,0-0.2,0c-0.1,0-0.1,0,0,0c0,0-0.1,0-0.1,0c-0.1,0-0.1,0-0.2,0c0,0-0.1,0-0.2,0c0.1,0,0.1,0,0,0c0,0-0.1,0-0.1,0
			c-0.1,0-0.1,0-0.2,0c0,0-0.1,0-0.1,0c-0.1,0-0.1,0,0,0c0,0-0.1-0.1-0.2-0.1c0,0-0.1-0.1-0.1-0.1c0,0,0,0-0.1,0
			c0.1,0.1,0.1,0.1,0,0c-0.1-0.1-0.2-0.2-0.2-0.2c-0.2-0.3-0.7-0.2-0.9,0C70.5,49.7,70.5,50.1,70.7,50.3L70.7,50.3z"/>
	</g>
</g>
<g>
	<g>
		<path class="st7" d="M54.4,19.2c1.6,1.5,1.5,4,1.9,6c0.2,0.6,1.1,0.6,1.3,0c0.3-0.9,0-2-0.2-2.9c-0.2-0.9-0.5-1.9-0.8-2.8
			c-0.1-0.3-0.4-0.6-0.8-0.5c-0.3,0.1-0.6,0.5-0.5,0.8c0.3,0.8,0.6,1.7,0.8,2.6c0.1,0.4,0.2,0.9,0.2,1.3c0.1,0.4,0.1,0.8,0,1.2
			c0.4,0,0.8,0,1.3,0c-0.5-2.3-0.4-4.9-2.3-6.6C54.7,17.8,53.8,18.7,54.4,19.2L54.4,19.2z"/>
	</g>
</g>
<g>
	<g>
		<path class="st7" d="M33.3,30c0.3,0.2,0.7,0.3,1,0.5c0.1-0.4,0.1-0.8,0.2-1.2c-0.1,0-0.2,0-0.3,0c-0.7-0.1-1.2,0.8-0.5,1.2
			c1.6,0.8,3,1.8,4.2,3.2c1.1,1.3,2,2.8,2.5,4.4c0.3,0.8,1.5,0.5,1.3-0.3c-1.2-3.7-3.9-6.6-7.3-8.4c-0.2,0.4-0.3,0.8-0.5,1.2
			c0.3,0.1,0.6,0.1,1,0c0.5-0.1,0.6-0.9,0.2-1.2c-0.3-0.2-0.7-0.3-1-0.5C33.2,28.5,32.5,29.7,33.3,30L33.3,30z"/>
	</g>
</g>
<g>
	<g>
		<path class="st7" d="M52.3,34.7c0,0.1,0,0.2,0.1,0.3c0,0,0,0.1,0,0.2c0,0,0-0.1,0-0.1c0,0,0,0.1,0,0.1c0,0.2,0,0.4,0,0.6
			c0,0.2,0,0.4,0,0.6c0,0.1,0,0.2,0,0.3c0,0,0,0.1,0,0.1c0.1-0.2,0,0,0,0.1c0,0.2,0,0.3,0.1,0.5c0.1,0.1,0.2,0.3,0.4,0.3
			c0.3,0.1,0.7-0.1,0.8-0.5c0.1-0.9,0.1-1.8-0.1-2.7c-0.1-0.3-0.5-0.6-0.8-0.5C52.4,34.1,52.2,34.4,52.3,34.7L52.3,34.7z"/>
	</g>
</g>
<g>
	<g>
		<path class="st7" d="M49.7,70.5c0.2,0.2,0.4,0.5,0.6,0.7c0.2-0.4,0.3-0.7,0.5-1.1c-0.3,0-0.7,0-1,0c0,0.4,0,0.9,0,1.3
			c0.1,0,0.1,0,0.2,0c0,0,0.1,0,0.1,0c0,0-0.1,0,0,0c0.1,0,0.1,0,0.2,0.1c0.1,0,0,0,0,0c0,0,0.1,0,0.1,0.1c0.1-0.4,0.2-0.8,0.3-1.2
			c-0.5,0-0.9,0.5-0.8,1c0,0.2,0.1,0.3,0.2,0.4c0.2,0.2,0.5,0.3,0.8,0.2c0.3-0.1,0.5-0.4,0.5-0.7c0-0.3-0.3-0.5-0.6-0.6
			c-0.3,0-0.6-0.1-0.9-0.1c-0.3,0-0.5,0.2-0.6,0.4c-0.1,0.2,0,0.5,0.1,0.7c0.3,0.3,0.7,0.5,1.1,0.4c0.2,0,0.3-0.1,0.5-0.2
			c0.1-0.1,0.2-0.2,0.2-0.4c0-0.3-0.1-0.6-0.5-0.7c-0.3-0.1-0.6-0.1-1-0.2c-0.3-0.1-0.6,0-0.7,0.3c-0.1,0.3-0.1,0.6,0.1,0.8
			c0.3,0.2,0.5,0.5,0.9,0.5c0.4,0.1,0.8-0.1,1-0.5c0.1-0.3,0.1-0.6,0-0.9c-0.1-0.2-0.3-0.3-0.5-0.4c-0.2-0.1-0.4,0-0.6,0.1
			c-0.4,0.2-0.4,0.8-0.1,1c0.3,0.3,0.7,0.5,1.1,0.6c0.4,0.1,0.9,0.1,1.3-0.1c0.3-0.1,0.6-0.5,0.5-0.8c-0.1-0.3-0.5-0.6-0.8-0.5
			c-0.1,0-0.1,0-0.2,0.1c0,0,0,0,0,0c-0.1,0,0,0,0.1,0c0,0-0.1,0-0.1,0c-0.1,0-0.1,0-0.2,0c0,0-0.1,0-0.1,0c0.2,0,0.1,0,0,0
			c-0.1,0-0.1,0-0.2,0c0,0-0.1,0-0.1,0c0,0,0,0-0.1,0c0,0,0.1,0,0.1,0c-0.1,0-0.1-0.1-0.2-0.1c0,0-0.1,0-0.1-0.1c0,0-0.1-0.1,0,0
			c0,0.3-0.1,0.7-0.1,1c-0.2,0.1-0.4,0.1-0.6-0.1c-0.1-0.1-0.1-0.1-0.1-0.1c0,0-0.1-0.2,0-0.1c0,0.1,0-0.2,0-0.1c0,0,0,0,0,0
			c0-0.2,0-0.2,0-0.1c0,0,0-0.1,0-0.1c0,0,0,0,0,0c0-0.1,0.1-0.1,0,0c0,0,0,0,0.1-0.1c0,0,0.1,0,0.1,0c-0.1,0-0.1,0,0,0
			c0.1,0,0.1,0,0,0c-0.1,0,0,0,0.1,0c0,0-0.1,0,0,0c0.1,0,0,0,0,0c0,0,0,0,0,0c0,0,0,0,0,0c0,0,0,0,0,0c0,0,0,0,0,0
			c0,0-0.1-0.1-0.1-0.1c-0.2,0.4-0.4,0.7-0.6,1.1c0.3,0.1,0.6,0.1,1,0.2c0.1-0.4,0.1-0.9,0.2-1.3c-0.1,0-0.1,0-0.2,0
			c-0.1,0,0.1,0,0.1,0c0,0-0.1,0-0.1,0c0,0,0.1,0.1,0.1,0c0,0,0,0-0.1,0c-0.1-0.1,0.1,0.1,0,0c0,0,0,0-0.1-0.1
			c-0.2,0.4-0.3,0.7-0.5,1.1c0.3,0,0.6,0.1,0.9,0.1c-0.1-0.4-0.1-0.9-0.2-1.3c0,0,0,0,0,0c0.1,0,0.1,0,0.2,0c0.1,0,0.2,0.1,0.2,0.1
			c-0.1-0.1,0.1,0.1,0.1,0.1c0,0,0.1,0.2,0,0.1c0-0.1,0,0.2,0,0.1c0-0.1,0,0.2,0,0.1c-0.1,0.2-0.3,0.4-0.5,0.4
			c0.3,0,0.6-0.2,0.6-0.5c0.1-0.3,0-0.6-0.3-0.7c-0.4-0.2-0.8-0.3-1.2-0.3c-0.2,0-0.3,0.1-0.5,0.2c-0.1,0.1-0.2,0.3-0.2,0.5
			c0,0.4,0.3,0.6,0.6,0.6c0.3,0,0.7,0,1,0c0.3,0,0.5-0.2,0.6-0.4c0.1-0.2,0-0.5-0.1-0.7c-0.2-0.2-0.4-0.5-0.6-0.7
			c-0.2-0.3-0.7-0.2-0.9,0C49.5,69.9,49.5,70.3,49.7,70.5L49.7,70.5z"/>
	</g>
</g>
<g>
	<g>
		<path class="st7" d="M9.5,29.1c-0.2,0.7-0.2,1.5,0.3,2.1c0.3,0.2,0.6,0.4,0.9,0.5c0.2,0,0.4,0.1,0.6,0c0.2,0,0.4,0,0.6-0.1
			c0.2,0,0.3-0.2,0.4-0.3c0.1-0.1,0.1-0.3,0.1-0.5c-0.1-0.2-0.1-0.3-0.3-0.4c-0.2-0.1-0.3-0.1-0.5-0.1c-0.1,0-0.2,0-0.2,0
			c0.1,0,0.1,0,0.2,0c-0.2,0-0.4,0-0.6,0c0.1,0,0.1,0,0.2,0c-0.1,0-0.3,0-0.4-0.1c0.1,0,0.1,0,0.2,0.1c-0.1,0-0.2-0.1-0.3-0.1
			c0,0,0.1,0.1,0.1,0.1c-0.1,0-0.1-0.1-0.2-0.2c0,0,0.1,0.1,0.1,0.1c-0.1-0.1-0.1-0.1-0.1-0.2c0,0.1,0,0.1,0.1,0.2
			c0-0.1-0.1-0.2-0.1-0.3c0,0.1,0,0.1,0,0.2c0-0.1,0-0.3,0-0.4c0,0.1,0,0.1,0,0.2c0-0.2,0.1-0.3,0.1-0.4c0.1-0.3-0.1-0.7-0.5-0.8
			C9.9,28.5,9.6,28.7,9.5,29.1L9.5,29.1z"/>
	</g>
</g>
<g>
	<g>
		<path class="st7" d="M47.4,71.4c1,0.7,2.3,1.1,3.6,1.1c0.3,0,0.7-0.3,0.6-0.6c0-0.4-0.3-0.6-0.6-0.6c-0.1,0-0.3,0-0.4,0
			c-0.1,0-0.1,0-0.2,0c0,0,0,0,0,0c0,0-0.1,0-0.1,0c-0.3,0-0.6-0.1-0.8-0.2c-0.1,0-0.2-0.1-0.4-0.1c-0.1,0-0.1,0,0,0
			c0,0-0.1,0-0.1,0c-0.1,0-0.1-0.1-0.2-0.1c-0.3-0.1-0.5-0.3-0.7-0.4c-0.3-0.2-0.7-0.1-0.9,0.2C47,70.8,47.1,71.2,47.4,71.4
			L47.4,71.4z"/>
	</g>
</g>
<g>
	<g>
		<path class="st8" d="M67.2,76.8c0.2,0.1,0.3,0.2,0.5,0.2c0.1,0,0.2,0.1,0.2,0.1c0.1,0,0.2,0,0.3,0c0.1,0,0.2-0.1,0.2-0.1
			c0.1,0,0.1-0.1,0.2-0.2c0-0.1,0-0.1,0.1-0.2c0-0.1,0-0.2,0-0.3c0-0.1,0-0.1-0.1-0.2c-0.1-0.1-0.1-0.2-0.2-0.2
			c-0.2-0.1-0.3-0.2-0.5-0.2c-0.1,0-0.2-0.1-0.2-0.1c-0.1,0-0.2,0-0.3,0c-0.1,0-0.2,0.1-0.2,0.1c-0.1,0-0.1,0.1-0.2,0.2
			c0,0.1,0,0.1-0.1,0.2c0,0.1,0,0.2,0,0.3c0,0.1,0,0.1,0.1,0.2C67,76.7,67.1,76.7,67.2,76.8L67.2,76.8z"/>
	</g>
</g>
<path class="st12" d="M44.1,128C44.1,128,44.1,128,44.1,128C44.1,128,44.1,128,44.1,128C44.1,128,44.1,128,44.1,128
	c0-0.1-0.1-0.2-0.1-0.3c0,0,0,0,0,0c0-0.1-0.1-0.1-0.1-0.2c-0.2-0.1-0.4-0.1-0.7-0.2c-4.9-1.3-7.9,0.4-8.3,0.7c0,0,0,0,0,0
	c0.1,0,0.2,0.1,0.3,0.1c7,2.2,8.5,0.5,8.5,0.5l0.2-0.6C43.8,128,43.9,128,44.1,128C44.1,128,44.1,128,44.1,128
	C44.1,128,44.1,128,44.1,128z"/>
<g>
	<path class="st12" d="M37.1,128.7c-0.6-0.2-1-0.6-1.7-0.7c0.1,0,0.2,0.1,0.4,0.2c-0.2-0.1-0.4-0.1-0.6,0c0.3,0.1,0.7,0.1,1,0.1"/>
</g>
<polygon class="st12" points="42.5,130.9 44.4,130.4 45.1,131 43.9,131.3 "/>
<g>
	<g>
		<path class="st12" d="M38.7,128.1c-0.1-0.2-0.3-0.4-0.6-0.5c-0.1-0.1-0.2-0.1-0.4-0.1c-0.2,0-0.4,0-0.6,0c0.2,0.1,0.4,0.1,0.6,0.2
			c-0.2-0.1-0.3-0.2-0.6-0.3c-0.2,0-0.4,0-0.6,0.1c0.2,0,0.4,0,0.7,0c-0.5-0.2-1-0.3-1.5-0.2c-0.2,0.1-0.4,0.3-0.5,0.5
			c0,0.3,0.1,0.5,0.3,0.6c0.5,0.3,1,0.4,1.6,0.3c0.3-0.1,0.6-0.5,0.5-0.8c-0.1-0.4-0.4-0.5-0.8-0.5c0,0-0.1,0-0.1,0
			c0.1,0,0.1,0,0.2,0c-0.1,0-0.3,0-0.4,0c0.1,0,0.1,0,0.2,0c-0.1,0-0.3-0.1-0.4-0.1c0.1,0,0.1,0,0.2,0.1c-0.1,0-0.1-0.1-0.2-0.1
			c-0.1,0.4-0.1,0.8-0.2,1.2c0,0,0.1,0,0.1,0c-0.1,0-0.1,0-0.2,0c0.1,0,0.2,0,0.4,0c-0.1,0-0.1,0-0.2,0c0.1,0,0.2,0,0.3,0.1
			c-0.1,0-0.1,0-0.2-0.1c0.1,0,0.1,0.1,0.2,0.1c0.2,0.1,0.4,0,0.6,0c-0.1,0-0.1,0-0.2,0.1c0,0,0.1,0,0.1,0c-0.1,0-0.1,0-0.2,0
			c0,0,0.1,0,0.1,0c-0.1,0-0.1,0-0.2,0c0,0,0.1,0,0.1,0c-0.1,0-0.1,0-0.2-0.1c0,0,0,0,0.1,0c-0.1-0.1-0.1-0.1,0,0
			c0.2,0.1,0.3,0.1,0.5,0.1c-0.1,0-0.1,0-0.2,0c0.1,0,0.1,0,0.2,0c-0.1,0-0.1,0-0.2,0c0.1,0,0.1,0,0.2,0.1c-0.1,0-0.1,0-0.2-0.1
			c0,0,0.1,0,0.1,0.1c0.1,0,0.1,0.1,0,0c0,0,0,0,0.1,0.1c0.1,0.1-0.1-0.1,0,0c0.2,0.3,0.6,0.4,0.9,0.2
			C38.8,128.8,38.9,128.4,38.7,128.1L38.7,128.1z"/>
	</g>
</g>
<g>
	<g>
		<path class="st12" d="M41.8,128.4c0,0.2,0,0.3,0.1,0.5c0.1,0.1,0.2,0.3,0.3,0.3c0.1,0,0.1,0,0.2,0.1c0.1,0,0.2,0,0.3,0
			c0.1,0,0.1,0,0.2,0c0.1,0,0.2-0.1,0.2-0.1c0,0,0,0,0,0c0,0-0.1,0.1-0.1,0.1c0,0,0.1,0,0.1-0.1c-0.1,0-0.1,0-0.2,0.1
			c0.1,0,0.1,0,0.2-0.1c0.1,0,0.2-0.1,0.3-0.1c0,0,0.1-0.1,0.1-0.1c0,0,0.1-0.1,0.1-0.1c0,0,0.1-0.1,0.1-0.2c0,0,0,0,0,0
			c0-0.1,0.1-0.1,0.1-0.2c0,0,0,0,0,0c0,0,0-0.1,0-0.1c0,0,0-0.1,0-0.1c0,0,0-0.1,0-0.1c0,0,0-0.1,0-0.1c0,0,0,0,0,0
			c0-0.1,0-0.1-0.1-0.2c0,0,0,0,0,0c0,0-0.1-0.1-0.1-0.1c0,0,0,0-0.1-0.1c0,0-0.1,0-0.1-0.1c0,0-0.1-0.1-0.2-0.1c0,0,0,0,0,0
			c0,0,0,0,0,0c0,0-0.2,0-0.2,0c0,0,0,0,0,0c-0.1,0-0.1,0-0.2,0c0,0,0,0,0,0c-0.1,0-0.1,0-0.2,0.1c0,0,0,0,0,0c0,0-0.1,0-0.1,0.1
			c0,0-0.1,0-0.1,0.1c0,0-0.1,0.1-0.1,0.1c0,0,0,0,0,0c0,0-0.1,0.1-0.1,0.2c0,0,0,0,0,0c0,0,0,0,0,0c0,0,0,0.1,0,0.2
			c0,0,0,0.1,0,0.1c0,0,0,0.1,0,0.1c0,0,0,0.1,0.1,0.2c0,0.1,0.1,0.1,0.1,0.1c0,0,0.1,0.1,0.1,0.1c0,0,0,0,0.1,0.1
			c0.1,0,0.2,0.1,0.2,0.1c0.1,0,0.2,0,0.3,0c0.2-0.1,0.3-0.1,0.4-0.3c0-0.1,0.1-0.1,0.1-0.2c0,0,0,0,0-0.1c0-0.1,0-0.1,0-0.2
			c0,0,0,0,0-0.1c0-0.1,0-0.1,0-0.2c0,0,0,0,0-0.1c0-0.1-0.1-0.1-0.1-0.2c0,0,0,0,0-0.1c0-0.1-0.1-0.1-0.2-0.2
			c-0.1-0.1-0.1-0.1-0.2-0.1c-0.1,0-0.2,0-0.3,0c-0.1,0-0.2,0-0.2,0.1c-0.1,0.1-0.3,0.2-0.3,0.4c0,0.2,0,0.4,0.1,0.5c0,0,0,0,0,0.1
			c0-0.1,0-0.1-0.1-0.2c0,0,0,0.1,0,0.1c0-0.1,0-0.1,0-0.2c0,0,0,0.1,0,0.1c0-0.1,0-0.1,0-0.2c0,0,0,0.1,0,0.1c0-0.1,0-0.1,0.1-0.2
			c0,0,0,0,0,0c0.3-0.1,0.6-0.2,0.9-0.2c0,0,0,0,0,0c0,0,0.1,0.1,0.1,0.1c0,0,0,0,0,0c0,0,0.1,0.1,0.1,0.1c0,0,0,0,0,0
			c0,0.1,0,0.1,0.1,0.2c0,0,0,0,0,0c0,0.1,0,0.1,0,0.2c0,0,0,0,0,0c0,0.1,0,0.1,0,0.2c0,0,0,0,0,0c0,0.1,0,0.1-0.1,0.2c0,0,0,0,0,0
			c0,0-0.1,0.1-0.1,0.1c0,0,0,0,0,0c0,0-0.1,0.1-0.1,0.1c0,0,0,0,0,0c-0.1,0-0.1,0-0.2,0.1c0,0,0,0,0,0c-0.1,0-0.1,0-0.2,0
			c0,0,0,0,0,0c-0.1,0-0.1,0-0.2,0c0,0,0,0,0,0c-0.1,0-0.1,0-0.2-0.1c0,0,0,0,0,0c0,0-0.1-0.1-0.1-0.1c0,0,0,0,0,0
			c0,0-0.1-0.1-0.1-0.1c0,0,0,0,0,0c0-0.1,0-0.1-0.1-0.2c0,0,0,0,0,0c0-0.1,0-0.1,0-0.2c0,0,0,0,0,0c0-0.1,0-0.1,0-0.2
			c0,0,0,0,0,0.1c0-0.1,0-0.1,0.1-0.2c0,0,0,0,0,0.1c0,0,0.1-0.1,0.1-0.1c0,0,0,0-0.1,0.1c0,0,0.1-0.1,0.1-0.1c0,0-0.1,0-0.1,0.1
			c0.1,0,0.1,0,0.2-0.1c-0.1,0-0.1,0-0.2,0.1c-0.2,0.1-0.3,0.1-0.5,0.3c0.3,0,0.5-0.1,0.8-0.1c0,0,0,0,0,0c0,0,0.1,0.1,0.1,0.1
			c0,0,0,0,0,0c0,0,0.1,0.1,0.1,0.1c0,0,0,0,0-0.1c0,0.1,0,0.1,0.1,0.2c0,0,0,0,0-0.1c0,0.1,0,0.1,0,0.2c0,0,0,0,0-0.1
			c0-0.1,0-0.2-0.1-0.3c0-0.1-0.1-0.2-0.1-0.2c-0.1-0.1-0.1-0.1-0.2-0.1c-0.1,0-0.2-0.1-0.3-0.1c-0.2,0-0.3,0.1-0.5,0.2
			c0,0-0.1,0.1-0.1,0.1C41.9,128.1,41.8,128.3,41.8,128.4L41.8,128.4z"/>
	</g>
</g>
<g>
	<g>
		<path class="st12" d="M36.4,128.3c0.1,0.1,0.1,0.2,0.2,0.3c0.1,0.2,0.5,0.4,0.7,0.3c0.2-0.1,0,0,0.1,0c0.1,0,0.2,0.1,0.2,0.1
			c0.2,0.1,0.4,0.1,0.6,0.1c0.4,0,0.8-0.1,1.2-0.1c0.4,0.1,0.7,0.3,1,0.4c0.4,0.1,0.9,0.1,1.3,0.1c0.4-0.1,0.8-0.2,1.1-0.3
			c0.4-0.1,0.8-0.3,1-0.6c0.3-0.3,0.4-0.8,0.1-1.2c-0.2-0.4-0.7-0.6-1.1-0.4c-0.8,0.2-0.5,1.5,0.3,1.3c-0.4-0.1-0.5-0.3-0.4-0.4
			c0,0-0.1,0.1-0.1,0.1c-0.1,0-0.2,0.1-0.3,0.1c-0.3,0.1-0.6,0.2-0.8,0.2c-0.5,0.1-0.9,0-1.4-0.3c-0.6-0.3-1.1-0.3-1.7-0.2
			c-0.3,0-0.4,0-0.7-0.1c-0.3-0.1-0.6-0.2-0.9,0c0.2,0.1,0.5,0.2,0.7,0.3c-0.1-0.1-0.1-0.2-0.2-0.3
			C37.1,126.9,35.9,127.5,36.4,128.3L36.4,128.3z"/>
	</g>
</g>
<g>
	<path class="st13" d="M25.7,116.1c0-2,3.8-3.9,10.4-5.4c0-0.2,0-0.3,0-0.5c-6.7,1.5-10.8,3.6-10.8,5.9c0,1.6,1.9,3.1,5.7,4.4
		c0,0,0,0,0-0.1c0.1-0.1,0.2-0.3,0.3-0.5c0.1-0.1,0.2-0.2,0.2-0.4c-0.2,0.1-0.3,0.3-0.5,0.4C27.5,118.8,25.7,117.5,25.7,116.1z"/>
	<path class="st13" d="M93,110c0,0.2,0,0.3-0.1,0.5c0,0,0.1,0,0.1,0c7.3,1.5,11.4,3.6,11.4,5.6c0,1.4-1.8,2.7-5.2,3.9
		c-0.1-0.2-0.2-0.3-0.4-0.5c0.1,0.2,0.2,0.3,0.3,0.5c0.1,0.1,0.2,0.3,0.2,0.4c3.6-1.3,5.5-2.8,5.5-4.3
		C104.9,113.7,100.4,111.5,93,110z"/>
	<path class="st13" d="M93.3,121.6c-7.4,1.6-17.6,2.5-28.3,2.5c-10.8,0-20.9-0.9-28.4-2.5c0.1-0.2,0.1-0.3,0.1-0.5
		c-0.1,0.2-0.2,0.4-0.4,0.6c0,0.1-0.1,0.1-0.2,0.2l0.1,0c7.6,1.7,17.8,2.6,28.8,2.6c10.8,0,21.1-0.9,28.6-2.5
		C93.5,121.9,93.4,121.8,93.3,121.6z"/>
</g>
<g>
	<g>
		<path class="st13" d="M51.7,73.3c-6,1.7-10.9,6.1-13.6,11.7c-3.2,6.9-3.2,14.7-2.7,22.1c0.3,4.8,0.8,9.7,0.8,14.5
			c0,0.4,0.7,0.4,0.6,0c0-9.8-2.1-19.7-0.3-29.5c1.6-8.5,6.7-15.8,15.3-18.3C52.3,73.8,52.1,73.2,51.7,73.3L51.7,73.3z"/>
	</g>
</g>
<g>
	<g>
		<path class="st13" d="M88.8,81.8c-3.1-6-9.6-9.1-15.9-10.1c-0.4-0.1-0.6,0.6-0.2,0.6c6.2,1,12.6,4,15.5,9.8
			C88.4,82.5,89,82.2,88.8,81.8L88.8,81.8z"/>
	</g>
</g>
<g>
	<g>
		<path class="st13" d="M36.7,89.1c-3.2-0.2-6-3-5.3-6.3c0.5-3,3.4-5.1,6.4-5.4c1.6-0.1,3.7-0.1,4.8,1.3c0.3,0.3,0.7-0.1,0.5-0.5
			c-1.1-1.4-2.9-1.5-4.6-1.5c-1.7,0-3.4,0.5-4.8,1.6c-2.7,2-4,5.9-1.8,8.8c1.2,1.6,3,2.5,5,2.6C37.1,89.8,37.1,89.2,36.7,89.1
			L36.7,89.1z"/>
	</g>
</g>
<g>
	<g>
		<path class="st13" d="M84.8,77.4c2.4-1.3,6-2.1,8.5-0.6c2.5,1.4,3.2,5.1,2.3,7.7c-0.6,1.7-2.3,3.2-4.1,3.4
			c-0.4,0.1-0.2,0.7,0.2,0.6c1.8-0.3,3.4-1.5,4.2-3.1c0.7-1.4,0.9-3,0.7-4.5c-0.2-1.6-1-3.1-2.2-4.2c-1.2-1.1-2.9-1.4-4.5-1.3
			c-1.9,0.1-3.7,0.6-5.4,1.4C84.1,77,84.4,77.5,84.8,77.4L84.8,77.4z"/>
	</g>
</g>
<g>
	<g>
		<path class="st13" d="M60.4,94.2c0.1,0,0.1,0,0.2,0c0-0.1,0-0.2,0-0.3C60.3,94,60,94,59.7,94.1c-0.4,0.2-0.9,0.5-1.2,0.8
			c-0.7,0.6-1.5,1.3-1.9,2.2c-0.9,2.3,2.1,3.3,3.9,3.1c1.4-0.2,2.6-0.8,4-0.9c1.2-0.1,2.3,0.3,3.5,0.6c0.8,0.2,1.8,0.4,2.5-0.2
			c0.8-0.5,1.1-1.6,1-2.5c-0.4-2.2-3.1-3.3-4.8-3.9c-0.2-0.1-0.3,0.2-0.1,0.3c1.6,0.6,3.5,1.4,4.4,2.9c0.5,0.9,0.3,2.1-0.5,2.8
			c-0.8,0.6-1.9,0.3-2.7,0.1c-0.8-0.2-1.6-0.5-2.5-0.5c-1.1,0-2.2,0.3-3.2,0.6c-1.2,0.3-2.5,0.6-3.7,0.1c-0.9-0.4-1.7-1.1-1.4-2.2
			c0.3-1,1.2-1.8,2.1-2.4c0.3-0.2,0.6-0.5,1-0.6c0.2-0.1,0.5-0.1,0.8-0.2c0.1-0.1,0.1-0.3,0-0.3c-0.1,0-0.3,0-0.4,0
			C60.1,94,60.1,94.3,60.4,94.2L60.4,94.2z"/>
	</g>
</g>
<g>
	<g>
		<path class="st13" d="M67.5,99.9c0.3,0.8,0.5,1.6,0.5,2.5c0,0.7,0,1.7-0.5,2.3c-0.5,0.5-1.4,0.8-2.1,0.5c-0.5-0.3-0.7-1-1-1.5
			c-0.1-0.2-0.4,0-0.3,0.2c0.2,0.5,0.4,1,0.8,1.4c0.4,0.4,1.1,0.4,1.7,0.3c0.6-0.2,1.2-0.6,1.4-1.2c0.3-0.6,0.3-1.4,0.3-2.1
			c0-0.9-0.2-1.7-0.5-2.5C67.7,99.6,67.4,99.7,67.5,99.9L67.5,99.9z"/>
	</g>
</g>
<g>
	<g>
		<path class="st13" d="M92.8,103.1c0.1-0.1,0.4-0.1,0.5-0.1c0.3,0,0.5,0,0.8,0c0.6,0,1.2-0.1,1.7-0.3c1.2-0.4,2.4-1.2,3-2.3
			c0.5-0.9,0.6-2.1,0.2-3c-0.5-1-1.7-1-2.7-0.8c-1.4,0.3-2.5,1.4-3.6,2.4c-0.2,0.1,0.1,0.4,0.2,0.2c0.9-0.8,1.7-1.7,2.9-2.1
			c0.9-0.3,2.2-0.6,2.8,0.4c0.5,0.9,0.3,2.1-0.2,2.9c-0.6,1.1-1.8,1.8-3,2.1c-0.6,0.2-1.1,0.2-1.7,0.2c-0.3,0-0.9-0.1-1.2,0.1
			C92.4,103,92.6,103.2,92.8,103.1L92.8,103.1z"/>
	</g>
</g>
<g>
	<g>
		<path class="st13" d="M95.9,99.6c0.6-0.2,1.3-0.5,1.7-1c0.2-0.2,0.3-0.5,0.4-0.8c0-0.3-0.1-0.6-0.2-0.9c-0.1-0.2-0.4,0-0.3,0.2
			c0.6,1.1-0.6,2-1.6,2.3C95.7,99.3,95.7,99.6,95.9,99.6L95.9,99.6z"/>
	</g>
</g>
<path class="st14" d="M83.8,85c0-4.9-4-8.8-8.8-8.8c-4.9,0-8.8,4-8.8,8.8c0,4.9,4,8.8,8.8,8.8C79.9,93.9,83.8,89.9,83.8,85z"/>
<path class="st14" d="M52.7,77.1c-4.9,0-8.8,4-8.8,8.8c0,4.9,4,8.8,8.8,8.8c4.9,0,8.8-4,8.8-8.8C61.6,81.1,57.6,77.1,52.7,77.1z"/>
<path class="st13" d="M91.9,81.5c0-1-0.8-1.9-1.9-1.9c-1,0-1.9,0.8-1.9,1.9c0,1,0.8,1.9,1.9,1.9C91.1,83.4,91.9,82.6,91.9,81.5z"/>
<path class="st13" d="M39.4,83.2c0-1-0.8-1.9-1.9-1.9c-1,0-1.9,0.8-1.9,1.9c0,1,0.8,1.9,1.9,1.9C38.6,85.1,39.4,84.3,39.4,83.2z"/>
<path class="st13" d="M67.9,93.2c0-1.2-1.8-2.2-4-2.2c-2.2,0-4,1-4,2.2c0,1.2,1.8,2.2,4,2.2C66.1,95.4,67.9,94.4,67.9,93.2z"/>
<path class="st13" d="M71.4,81.3c0,1.6,1.3,2.9,2.9,2.9c1.6,0,2.9-1.3,2.9-2.9c0-1.6-1.3-2.9-2.9-2.9C72.7,78.5,71.4,79.8,71.4,81.3
	z M76.1,80.2c0,0.5-0.4,0.8-0.8,0.8c-0.5,0-0.8-0.4-0.8-0.8c0-0.5,0.4-0.8,0.8-0.8C75.7,79.4,76.1,79.7,76.1,80.2z"/>
<path class="st13" d="M50.3,82.2c0,1.6,1.3,2.9,2.9,2.9c1.6,0,2.9-1.3,2.9-2.9c0-1.6-1.3-2.9-2.9-2.9C51.6,79.3,50.3,80.6,50.3,82.2
	z M55.1,81c0,0.5-0.4,0.8-0.8,0.8c-0.5,0-0.8-0.4-0.8-0.8c0-0.5,0.4-0.8,0.8-0.8C54.7,80.2,55.1,80.6,55.1,81z"/>
<g>
	<g>
		<path class="st13" d="M64.1,99.3c0.1,0.5,0.1,1.1,0.1,1.7c0,0.6,0,1.2,0,1.8c-0.1,0.9-0.3,2.1-1.2,2.5c-0.7,0.3-1.7,0-2.1-0.7
			c-0.4-0.6-0.5-1.4-0.5-2.2c0-0.8,0.1-1.6,0.3-2.4c0.1-0.2-0.3-0.3-0.3-0.1c-0.2,0.8-0.3,1.6-0.3,2.4c0,0.8,0.1,1.8,0.5,2.5
			c0.5,0.7,1.3,1.1,2.1,0.9c0.9-0.2,1.4-1.2,1.6-2.1c0.2-0.8,0.1-1.6,0.1-2.4c0-0.7,0.1-1.4-0.1-2C64.4,99,64.1,99.1,64.1,99.3
			L64.1,99.3z"/>
	</g>
</g>
<g>
	<g>
		<path class="st13" d="M30.9,123.1c-0.3-0.2-0.6-0.4-0.7-0.7c-0.1-0.3,0-0.6,0.1-0.8c0.2-0.6,0.7-1.1,1.2-1.5
			c1.3-1.1,3.2-1.9,4.9-1.6c0.2,0,0.3-0.3,0.1-0.3c-1.5-0.3-3.1,0.3-4.4,1.1c-0.9,0.6-2.1,1.5-2.2,2.7c-0.1,0.7,0.4,1.2,0.9,1.4
			C30.9,123.5,31,123.2,30.9,123.1L30.9,123.1z"/>
	</g>
</g>
<g>
	<g>
		<path class="st13" d="M32.2,121.9c-0.5,0.2-1.1,0.7-1.3,1.2c-0.2,0.6,0.1,1,0.6,1.3c1.3,0.6,2.6-0.3,3.6-1.1
			c0.5-0.5,1.1-1,1.5-1.5c0.1-0.2-0.2-0.3-0.3-0.2c-0.7,0.9-1.6,1.7-2.6,2.3c-0.5,0.2-1,0.5-1.5,0.4c-0.4-0.1-1.1-0.4-1-0.9
			c0.1-0.6,0.7-1,1.2-1.2C32.6,122.1,32.4,121.8,32.2,121.9L32.2,121.9z"/>
	</g>
</g>
<g>
	<g>
		<path class="st13" d="M87.8,81.2C92,86.5,92,93.6,92.3,100c0.3,7.2,0.1,14.4,0.4,21.7c0,0.4,0.7,0.4,0.6,0
			c-0.3-7.7-0.2-15.4-0.5-23.1c-0.3-6.2-0.5-12.7-4.6-17.8C88,80.4,87.6,80.9,87.8,81.2L87.8,81.2z"/>
	</g>
</g>
<g>
	<g>
		<path class="st13" d="M43,127c-2.7-0.9-5.7-0.5-8.2,0.9c-0.1,0.1-0.1,0.2,0,0.3c2.2,1.2,4.7,1.3,7.2,1.4c0.9,0,2-0.1,2.4-1
			c0.3-0.7-0.3-1.7-1.2-1.4c-0.2,0.1-0.1,0.4,0.1,0.3c0.6-0.2,1,0.6,0.7,1.1c-0.3,0.5-0.8,0.7-1.3,0.7c-0.8,0.1-1.7,0-2.6-0.1
			c-1.8-0.1-3.6-0.4-5.2-1.3c0,0.1,0,0.2,0,0.3c2.4-1.4,5.3-1.7,8-0.9C43.1,127.3,43.2,127,43,127L43,127z"/>
	</g>
</g>
<g>
	<g>
		<path class="st13" d="M44.7,130.6c-0.7-0.5-1.7-0.3-2.3,0.2c-0.1,0.1-0.1,0.2,0,0.3c0.8,0.6,1.9,0.6,2.8,0.1
			c0.1,0,0.1-0.1,0.1-0.2c-0.1-0.3-0.4-0.6-0.8-0.7c-0.2,0-0.3,0.3-0.1,0.3c0.3,0.1,0.5,0.2,0.6,0.5c0-0.1,0-0.1,0.1-0.2
			c-0.8,0.4-1.7,0.4-2.4-0.1c0,0.1,0,0.2,0,0.3c0.5-0.5,1.3-0.6,1.9-0.2C44.7,131,44.9,130.7,44.7,130.6L44.7,130.6z"/>
	</g>
</g>
<g>
	<g>
		<path class="st13" d="M93.2,122c2.3-0.4,4.6-1,6.9-1.8c0.2-0.1,0.1-0.4-0.1-0.3c-2.2,0.8-4.5,1.4-6.9,1.8
			C93,121.7,93,122,93.2,122L93.2,122z"/>
	</g>
</g>
<g>
	<g>
		<path class="st13" d="M93.1,122.2c2.3-0.4,4.6-1.1,6.8-2.1c0.2-0.1,0-0.4-0.2-0.3c-2.2,0.9-4.4,1.6-6.8,2
			C92.8,121.9,92.9,122.2,93.1,122.2L93.1,122.2z"/>
	</g>
</g>
<g>
	<g>
		<path class="st13" d="M93.5,121.9c1.3-0.5,2.5-0.9,3.9-1.2c0-0.1-0.1-0.2-0.1-0.3c-0.9,0.4-1.9,0.6-2.9,0.9
			c-0.2,0-0.1,0.3,0.1,0.3c1.1-0.2,2.1-0.4,3.2-0.8c0.2-0.1,0.1-0.4-0.1-0.3c-0.7,0.1-1.5,0.3-2.2,0.6c-0.2,0.1-0.1,0.3,0.1,0.3
			c0.9-0.1,1.7-0.4,2.6-0.7c0.2-0.1,0.1-0.4-0.1-0.3c-0.8,0.3-1.7,0.6-2.6,0.7c0,0.1,0.1,0.2,0.1,0.3c0.7-0.2,1.5-0.4,2.2-0.6
			c0-0.1-0.1-0.2-0.1-0.3c-1,0.3-2.1,0.6-3.2,0.8c0,0.1,0.1,0.2,0.1,0.3c1-0.2,2-0.5,2.9-0.9c0.2-0.1,0-0.3-0.1-0.3
			c-1.3,0.3-2.6,0.7-3.9,1.2C93.2,121.6,93.3,122,93.5,121.9L93.5,121.9z"/>
	</g>
</g>
<g>
	<g>
		<path class="st13" d="M104.8,115.8c-0.1,0.1,0,0.4,0.2,0.4c0.2,0,0.2-0.3,0.1-0.4c-0.1-0.1-0.3,0-0.2,0.1c0,0.1,0,0.2-0.1,0.3
			c0.1,0.1,0.2,0.1,0.2,0.2c0,0,0-0.1,0.1-0.1c-0.1,0-0.2-0.1-0.2-0.1c0,0.1,0,0.1-0.1,0.1c0.1,0.1,0.1,0.1,0.2,0.2
			c0-0.1,0.1-0.2,0.2-0.4c-0.1,0-0.2-0.1-0.3-0.1c-0.1,0.3-0.2,0.5-0.4,0.7c0.1,0.1,0.2,0.1,0.3,0.2c0.2-0.3,0.4-0.7,0.6-1
			c-0.1,0-0.2-0.1-0.3-0.1c0,0.5-0.3,1-0.7,1.3c0.1,0.1,0.1,0.2,0.2,0.3c0.4-0.4,0.7-0.9,0.9-1.5c-0.1,0-0.2,0-0.3,0
			c-0.1,1.5-1.6,2.2-2.8,2.8c-0.2,0.1,0,0.4,0.2,0.3c1.3-0.6,2.8-1.4,2.9-3c0-0.2-0.3-0.2-0.3,0c-0.1,0.5-0.4,1-0.8,1.4
			c-0.1,0.1,0,0.4,0.2,0.3c0.5-0.4,0.8-0.9,0.9-1.6C105.2,115.7,104.9,115.7,104.8,115.8c-0.1,0.4-0.3,0.7-0.5,1
			c-0.1,0.2,0.1,0.3,0.3,0.2c0.2-0.2,0.4-0.5,0.5-0.9c0-0.2-0.2-0.3-0.3-0.1c-0.1,0.1-0.2,0.3-0.2,0.4c0,0.1,0.1,0.2,0.2,0.2
			c0.2-0.1,0.4-0.3,0.3-0.5c0-0.1-0.1-0.2-0.2-0.1c-0.1,0.1-0.2,0.2-0.2,0.3c0,0.1,0.1,0.3,0.2,0.2c0.2-0.1,0.3-0.4,0.3-0.6
			c-0.1,0-0.2,0.1-0.2,0.1C104.8,116,104.8,115.9,104.8,115.8c0.1,0.1,0.1,0,0.2,0c0,0,0,0,0,0c0,0,0.1,0,0.1,0.1c0,0,0,0.1,0,0.1
			C105.1,115.9,104.9,115.7,104.8,115.8L104.8,115.8z"/>
	</g>
</g>
<g>
	<g>
		<path class="st13" d="M25.2,115.9c-0.1,0.4,0,0.8,0.2,1.1c0.1,0.1,0.3,0,0.3-0.2c-0.1-0.2-0.2-0.5-0.3-0.7c-0.1-0.1-0.3-0.2-0.3,0
			c-0.1,0.4,0,0.7,0.3,1c0.1,0.1,0.3,0,0.3-0.2c-0.1-0.2-0.2-0.4-0.2-0.7c0-0.1-0.2-0.2-0.3-0.1c-0.2,0.5,0.1,1,0.4,1.3
			c0.4,0.4,0.8,0.7,1.2,1c0.9,0.6,1.9,0.9,3,1c0.2,0,0.2-0.3,0-0.3c-0.9-0.1-1.8-0.4-2.6-0.8c-0.4-0.2-0.8-0.5-1.1-0.8
			c-0.3-0.3-0.9-0.8-0.7-1.2c-0.1,0-0.2-0.1-0.3-0.1c0,0.3,0.1,0.6,0.2,0.8c0.1-0.1,0.2-0.1,0.3-0.2c-0.2-0.2-0.3-0.4-0.2-0.6
			c-0.1,0-0.2,0-0.3,0c0.1,0.2,0.2,0.5,0.3,0.7c0.1-0.1,0.2-0.1,0.3-0.2c-0.2-0.2-0.2-0.5-0.1-0.8C25.6,115.8,25.2,115.7,25.2,115.9
			L25.2,115.9z"/>
	</g>
</g>
<g>
	<g>
		<path class="st13" d="M25.2,115.9c-0.1,0.2-0.2,0.5-0.1,0.8c0,0.2,0.3,0.1,0.3,0c0-0.1,0-0.3,0-0.4c0-0.2-0.3-0.2-0.3,0
			c-0.1,0.2-0.1,0.3,0,0.5c0,0.2,0.3,0.1,0.3,0c0-0.1,0-0.3-0.1-0.4c-0.1-0.2-0.3-0.1-0.3,0.1c0,0.1,0,0.2,0.1,0.3
			c0,0.2,0.3,0.2,0.3,0c0-0.2,0-0.3-0.1-0.5c-0.1-0.1-0.2-0.1-0.3,0c-0.2,0.5,0.4,1,0.8,1.3c0.4,0.4,0.9,0.7,1.4,0.9
			c0.2,0.1,0.4-0.2,0.2-0.3c-0.4-0.2-0.9-0.5-1.2-0.8c-0.2-0.2-0.4-0.3-0.5-0.5c-0.2-0.2-0.3-0.4-0.2-0.6c-0.1,0-0.2,0-0.3,0
			c0.1,0.1,0.1,0.1,0.1,0.2c0.1,0,0.2,0,0.3,0c0-0.1,0-0.2-0.1-0.3c-0.1,0-0.2,0.1-0.3,0.1c0,0,0,0.1,0,0.2c0.1,0,0.2,0,0.3,0
			c0-0.1,0-0.2,0-0.3c-0.1,0-0.2,0-0.3,0c0,0.1,0,0.3,0,0.4c0.1,0,0.2,0,0.3,0c0-0.2,0-0.4,0.1-0.5
			C25.6,115.9,25.3,115.7,25.2,115.9L25.2,115.9z"/>
	</g>
</g>
<path class="st15" d="M101.6,71l-0.3,0c-0.3-0.1-0.7,0.2-0.7,0.5l-6.1,35.5c-0.1,0.3,0.2,0.7,0.5,0.7l0.3,0c0.3,0.1,0.7-0.2,0.7-0.5
	l6.1-35.5C102.1,71.4,101.9,71,101.6,71z"/>
<g>
	<path class="st13" d="M134.1,55c-0.5-0.7-1.2-1.1-2-1.2l-53.9-8.4c-1.6-0.3-3.2,0.9-3.5,2.5l-0.5,3.4c0.2,0,0.3-0.1,0.5,0l0.5-3.2
		c0.1-0.7,0.5-1.3,1-1.7c0.4-0.3,1-0.5,1.5-0.5c0.1,0,0.3,0,0.4,0l53.9,8.4c1.4,0.2,2.3,1.5,2.1,2.9l-2.3,14.9
		c-0.2,1.4-1.5,2.3-2.9,2.1L75,65.8c-0.7-0.1-1.3-0.5-1.7-1c-0.4-0.6-0.6-1.2-0.5-1.9l0.9-5.7c-0.2,0.1-0.3,0.1-0.5,0.1l-0.9,5.6
		c-0.1,0.8,0.1,1.6,0.5,2.2c0.5,0.7,1.2,1.1,2,1.2l53.9,8.4c0.2,0,0.3,0,0.5,0c1.5,0,2.8-1.1,3-2.6l2.3-14.9
		C134.7,56.5,134.5,55.7,134.1,55z"/>
</g>
<g>
	<path class="st13" d="M132.1,57.3c-0.6-0.8-1.4-1.3-2.4-1.4l-49.6-7.8c-0.9-0.1-1.9,0.1-2.7,0.7c-0.1,0.1-0.2,0.2-0.4,0.3
		c0.1,0.4,0.1,0.7,0.1,1c0.2,0,0.3,0.1,0.5,0.1c0.1,0.1,0.2,0.2,0.3,0.3c0.1-0.2,0.3-0.3,0.4-0.5c0.3-0.3,0.7-0.4,1.2-0.4
		c0.1,0,0.2,0,0.3,0l49.6,7.8c0.5,0.1,1,0.4,1.3,0.8c0.3,0.4,0.4,0.9,0.4,1.5l-1.5,9.6c-0.1,0.5-0.4,1-0.8,1.3
		c-0.4,0.3-1,0.4-1.5,0.4l-49.6-7.8c-0.5-0.1-1-0.4-1.3-0.8c-0.3-0.4-0.4-0.9-0.4-1.5l1-6.1c-0.2-0.1-0.5-0.1-0.7,0
		c-0.1,0.1-0.1,0.2-0.2,0.2c-0.1,0.2-0.2,0.3-0.3,0.5c-0.2,0.2-0.4,0.3-0.6,0.3l-0.8,4.8c-0.1,0.9,0.1,1.9,0.7,2.7
		c0.6,0.8,1.4,1.3,2.4,1.4l49.6,7.8c0.2,0,0.4,0,0.6,0c0.8,0,1.5-0.2,2.1-0.7c0.8-0.6,1.3-1.4,1.4-2.4l1.5-9.6
		C132.9,59.1,132.7,58.1,132.1,57.3z"/>
</g>
<text transform="matrix(0.9866 0.1633 -0.1633 0.9866 81.1609 58.7501)" class="st16 st17 st18">&quot;Hello World.&quot;</text>
<g>
	<g>
		<path class="st13" d="M130.3,57.7c0.1,0.1,0.2,0.2,0.3,0.3c0.1,0.1,0.1,0.1,0.2,0.1c0.1,0,0.2,0.1,0.3,0.1c0.2,0,0.3-0.1,0.5-0.2
			c0.1-0.1,0.2-0.3,0.2-0.5c0-0.2-0.1-0.3-0.2-0.5c0,0-0.1-0.1-0.1-0.1c-0.3,0.3-0.6,0.6-0.9,0.9c0.1,0.1,0.1,0.1,0.2,0.2
			c0.1,0.1,0.1,0.1,0.2,0.1c0.1,0,0.2,0.1,0.3,0.1c0.2,0,0.3-0.1,0.5-0.2c0.1-0.1,0.2-0.3,0.2-0.5c0-0.1,0-0.1,0-0.2
			c0-0.1-0.1-0.2-0.2-0.3c0,0-0.1-0.1-0.1-0.1c-0.3,0.3-0.6,0.6-0.9,0.9c0.2,0.2,0.4,0.3,0.6,0.4c0.1,0,0.2,0,0.3,0
			c0.1,0,0.2,0,0.2-0.1c0,0,0.1-0.1,0.1-0.1c0.1-0.1,0.1-0.1,0.1-0.2c0-0.1,0-0.1,0-0.2c0-0.1,0-0.2,0-0.3c0-0.1,0-0.1-0.1-0.2
			c-0.1-0.1-0.1-0.2-0.2-0.2c0,0,0,0,0,0c0,0,0.1,0.1,0.1,0.1c0,0,0,0,0,0c0,0,0.1,0.1,0.1,0.1c0,0,0,0,0-0.1c0,0.1,0,0.1,0.1,0.2
			c0,0,0,0,0,0c-0.2,0.3-0.3,0.5-0.5,0.8c0,0,0,0,0,0c-0.1,0-0.1,0-0.2,0c0,0,0,0,0,0c-0.1,0-0.1,0-0.2,0c0,0,0,0,0,0
			c-0.1,0-0.1,0-0.2-0.1c0,0,0,0,0,0c0,0-0.1-0.1-0.1-0.1c0.1,0.1,0.2,0.2,0.2,0.2c0.1,0.1,0.1,0.1,0.2,0.1c0.1,0,0.2,0.1,0.3,0.1
			c0.1,0,0.1,0,0.2,0c0.1,0,0.2-0.1,0.2-0.1c0,0,0.1-0.1,0.1-0.1c0.1-0.1,0.1-0.1,0.1-0.2c0-0.2,0-0.4-0.1-0.5
			c-0.1-0.1-0.2-0.2-0.3-0.3c-0.1-0.1-0.3-0.1-0.5-0.1c-0.2,0-0.3,0.2-0.4,0.3c-0.1,0.2-0.1,0.3-0.1,0.5c0,0.1,0,0.1,0.1,0.2
			c0.1,0.1,0.1,0.2,0.2,0.2c0,0,0.1,0.1,0.1,0.1c0.1,0,0.1,0,0.2,0.1c0.1,0,0.2,0,0.3,0c0.1,0,0.1,0,0.2,0c0.1,0,0.2-0.1,0.2-0.1
			c0.1-0.1,0.1-0.2,0.2-0.3c0.1-0.2,0-0.4-0.1-0.5c-0.1-0.2-0.2-0.3-0.3-0.4c-0.1,0-0.2-0.1-0.2-0.1c-0.1,0-0.2,0-0.3,0
			c-0.1,0-0.1,0-0.2,0.1c-0.1,0-0.1,0.1-0.2,0.2c0,0-0.1,0.1-0.1,0.1c0,0.1-0.1,0.2-0.1,0.3c0,0.2,0.1,0.3,0.2,0.5
			c0,0,0.1,0.1,0.1,0.1c0,0,0.1,0.1,0.1,0.1c0.1,0,0.2,0.1,0.2,0.1c0.1,0,0.1,0,0.2,0c0.1,0,0.2,0,0.2-0.1c0.1-0.1,0.2-0.1,0.2-0.2
			c0-0.1,0.1-0.2,0.1-0.2c0-0.1,0-0.2,0-0.3c-0.1-0.2-0.2-0.4-0.4-0.5c-0.1,0-0.1,0-0.2-0.1c-0.1,0-0.2,0-0.3,0c-0.1,0-0.1,0-0.2,0
			c-0.1,0-0.2,0.1-0.2,0.1c-0.1,0.1-0.1,0.2-0.2,0.3c-0.1,0.2,0,0.4,0.1,0.5c0.1,0.1,0.2,0.3,0.3,0.3c0.1,0,0.2,0.1,0.3,0.1
			c0.1,0,0.1,0,0.2,0c0.1,0,0.2-0.1,0.2-0.1c0,0,0.1-0.1,0.1-0.1c0,0,0.1-0.1,0.1-0.1c0-0.1,0-0.1,0-0.2c0-0.1,0-0.2,0-0.3
			c-0.1-0.2-0.1-0.2-0.2-0.3c-0.1-0.1-0.1-0.1-0.2-0.2c-0.1,0-0.1,0-0.2-0.1c-0.1,0-0.2,0-0.3,0c-0.1,0-0.1,0-0.2,0
			c-0.1,0-0.2,0.1-0.2,0.1c-0.1,0.1-0.1,0.2-0.2,0.3c-0.1,0.2,0,0.4,0.1,0.5c0,0,0,0,0,0c0,0,0.1,0.1,0.1,0.1c0,0,0.1,0,0.1,0.1
			c0,0,0.1,0,0.1,0.1c0.1,0,0.1,0,0.2,0.1c0.1,0,0.1,0,0.2,0c0.1,0,0.1,0,0.2,0c0.1,0,0.2-0.1,0.2-0.1c0,0,0.1-0.1,0.1-0.1
			c0,0,0.1-0.1,0.1-0.1c0-0.1,0-0.1,0-0.2c0-0.1,0-0.2,0-0.3c0-0.1-0.1-0.1-0.1-0.2c0-0.1-0.1-0.1-0.1-0.2c-0.1-0.1-0.1-0.1-0.2-0.1
			c-0.1,0-0.2-0.1-0.3-0.1c-0.1,0-0.1,0-0.2,0c-0.1,0-0.2,0.1-0.2,0.1c0,0-0.1,0.1-0.1,0.1c-0.1,0.1-0.1,0.1-0.1,0.2
			c0,0.2,0,0.3,0.1,0.5c0,0,0,0.1,0.1,0.1c0,0,0.1,0.1,0.1,0.1c0,0,0.1,0.1,0.1,0.1c0.1,0,0.2,0.1,0.2,0.1c0.1,0,0.1,0,0.2,0
			c0.1,0,0.2,0,0.2-0.1c0.1-0.1,0.2-0.1,0.2-0.2c0-0.1,0.1-0.2,0.1-0.2c0-0.1,0-0.2,0-0.3c0,0,0,0,0,0c0-0.1,0-0.1-0.1-0.2
			c0,0,0,0,0,0c0,0,0-0.1-0.1-0.1c0,0,0-0.1-0.1-0.1c-0.1-0.1-0.1-0.1-0.2-0.1c-0.1,0-0.2-0.1-0.3-0.1c-0.2,0-0.3,0.1-0.5,0.2
			c-0.1,0.1-0.2,0.3-0.2,0.5c0,0.2,0.1,0.3,0.2,0.5c0,0,0,0,0.1,0.1c0.1,0.1,0.1,0.1,0.2,0.1c0.1,0,0.2,0.1,0.3,0.1
			c0.1,0,0.1,0,0.2,0c0.1,0,0.2-0.1,0.2-0.1c0,0,0.1-0.1,0.1-0.1c0.1-0.1,0.1-0.1,0.1-0.2c0-0.2,0-0.3-0.1-0.5c0,0,0,0,0-0.1
			c0,0-0.1-0.1-0.1-0.1c-0.1-0.1-0.1-0.1-0.2-0.1c-0.1,0-0.1,0-0.2,0c-0.1,0-0.2,0-0.3,0c-0.1,0-0.2,0.1-0.3,0.2
			c-0.1,0.1-0.1,0.1-0.1,0.2c0,0.1-0.1,0.2-0.1,0.3c0,0.1,0,0.2,0.1,0.4c0,0,0.1,0.1,0.1,0.1c0,0,0.1,0.1,0.1,0.1
			c0.1,0,0.1,0,0.2,0.1c0.1,0,0.1,0,0.2,0c0.1,0,0.1,0,0.2,0c0.1,0,0.2-0.1,0.2-0.1c0,0,0.1-0.1,0.1-0.1c0,0,0.1-0.1,0.1-0.1
			c0-0.1,0-0.1,0-0.2c0-0.1,0-0.2,0-0.3c0,0,0,0,0,0c0-0.1-0.1-0.2-0.2-0.3c-0.1-0.1-0.2-0.1-0.3-0.2c-0.1,0-0.2,0-0.3,0
			c-0.1,0-0.2,0.1-0.3,0.2c0,0,0,0,0,0c-0.1,0.1-0.1,0.2-0.2,0.3c0,0.1,0,0.2,0,0.3c0,0,0,0.1,0.1,0.2c0,0.1,0.1,0.1,0.2,0.2
			c0,0,0,0,0.1,0.1c0.2,0.1,0.3,0.1,0.5,0.1c0.1,0,0.1,0,0.2-0.1c0,0,0.1-0.1,0.1-0.1c0.1-0.1,0.1-0.2,0.2-0.3c0,0,0-0.1,0-0.2
			c0-0.1,0-0.1,0-0.2c0,0,0-0.1,0-0.1c0,0,0-0.1,0-0.1c0-0.1-0.1-0.1-0.2-0.2c-0.1-0.1-0.1-0.1-0.2-0.1c-0.1,0-0.2,0-0.3,0
			c0,0-0.1,0-0.2,0.1c0,0-0.1,0.1-0.1,0.1c0,0-0.1,0.1-0.1,0.1c0,0,0,0.1,0,0.1c0,0.1,0,0.1,0,0.2c0,0.1,0,0.1,0,0.2
			c0,0,0,0.1,0,0.1c0,0.1,0,0.1,0.1,0.2c0,0.1,0.1,0.1,0.2,0.2c0,0,0.1,0.1,0.1,0.1c0.1,0,0.2,0.1,0.3,0.1c0,0,0,0,0,0
			c0.2,0,0.5-0.1,0.6-0.3c0.1-0.1,0.1-0.2,0.1-0.3c0-0.2-0.1-0.3-0.2-0.5c0,0-0.1-0.1-0.1-0.1c-0.1-0.1-0.2-0.1-0.3-0.1c0,0,0,0,0,0
			c-0.1,0-0.1,0-0.2,0c-0.1,0-0.1,0-0.2,0.1c0,0-0.1,0.1-0.1,0.1c-0.1,0.1-0.1,0.1-0.1,0.2c0,0.1,0,0.1,0,0.2c0,0.1,0,0.1,0,0.2
			c0,0.1,0,0.1,0,0.2c0,0.1,0.1,0.2,0.1,0.2c0,0,0,0,0,0c0,0-0.1-0.1-0.1-0.1c0.1,0.1,0.1,0.2,0.1,0.3c0,0.1,0.1,0.1,0.2,0.2
			c0.1,0.1,0.1,0.1,0.2,0.1c0.1,0,0.2,0,0.3,0c0.1,0,0.2,0,0.2-0.1c0.1-0.1,0.3-0.2,0.3-0.4c0-0.1,0-0.1,0-0.2c0-0.1,0-0.2-0.1-0.3
			c-0.1-0.2-0.2-0.3-0.3-0.4c-0.2,0.4-0.3,0.7-0.5,1.1c0,0,0,0,0,0c-0.2-0.2-0.4-0.4-0.6-0.6c0,0,0,0,0,0c0-0.1,0.1-0.2,0.1-0.3
			c0,0,0,0,0,0c0.2-0.1,0.4-0.2,0.6-0.3c0,0,0,0,0,0c0.2,0.2,0.4,0.3,0.6,0.5c0,0,0,0,0,0c0,0.2,0,0.3-0.1,0.5c0,0,0,0,0,0
			c-0.1,0.1-0.3,0.2-0.4,0.3c0,0,0,0,0,0c-0.2,0-0.3,0-0.5-0.1c0,0,0,0,0,0c-0.1-0.1-0.2-0.2-0.2-0.2c0,0,0,0,0,0
			c0-0.1,0-0.1-0.1-0.2c0,0,0,0,0,0c0-0.1,0-0.2,0-0.3c0,0,0,0,0,0c0.2-0.2,0.3-0.3,0.5-0.5c0,0,0,0,0,0c0.2,0,0.3,0,0.5,0.1
			c0,0,0,0,0,0c0.1,0.1,0.2,0.3,0.3,0.4c0,0,0,0,0,0c-0.1,0.2-0.1,0.4-0.2,0.6c0,0,0,0,0,0c-0.4-0.1-0.7-0.2-1.1-0.3c0,0,0,0,0,0
			c0.3-0.2,0.6-0.5,1-0.7c0,0,0,0,0,0c0,0,0.1,0.1,0.1,0.1c0,0,0,0,0,0c0,0,0.1,0.1,0.1,0.1c0,0,0,0,0,0c0,0.1,0,0.1,0.1,0.2
			c0,0,0,0,0,0c0,0.1,0,0.1,0,0.2c0,0,0,0,0,0c-0.4,0.1-0.8,0.2-1.2,0.3c0,0,0,0,0,0.1c0.3-0.3,0.7-0.5,1-0.8c0,0,0,0-0.1-0.1
			c-0.3,0.3-0.6,0.6-0.9,0.9c0,0,0,0,0,0c0,0-0.1-0.1-0.1-0.1c0,0,0,0,0,0c0-0.1,0-0.1-0.1-0.2c0,0,0,0,0,0c0.4-0.2,0.7-0.4,1.1-0.6
			c0,0,0,0,0,0c0,0,0.1,0.1,0.1,0.1c0,0,0,0,0,0c-0.3,0.3-0.7,0.5-1,0.8c0,0,0,0,0,0c0,0-0.1-0.1-0.1-0.1c0,0,0,0,0,0.1
			c0-0.1,0-0.1-0.1-0.2c0,0,0,0,0,0c0.3-0.2,0.6-0.5,1-0.7c0,0,0,0,0,0c0,0,0.1,0.1,0.1,0.1c0,0,0,0,0,0c0,0,0.1,0.1,0.1,0.1
			c0,0,0,0,0,0c-0.3,0.3-0.6,0.6-0.9,0.9c0,0,0,0,0,0c0,0-0.1-0.1-0.1-0.1c0,0,0,0,0.1,0.1c0,0-0.1-0.1-0.1-0.1c0,0,0,0,0,0
			c0-0.1,0-0.1-0.1-0.2c0,0,0,0,0,0c0.3-0.2,0.6-0.5,1-0.7c0,0,0,0,0,0c0,0,0.1,0.1,0.1,0.1c0,0,0,0,0,0c0,0,0.1,0.1,0.1,0.1
			c0,0,0,0,0,0c-0.3,0.3-0.6,0.6-0.9,0.9c0,0,0,0,0,0c0,0-0.1-0.1-0.1-0.1c0,0,0,0,0,0c0,0-0.1-0.1-0.1-0.1c0,0,0,0,0,0
			c0-0.1,0-0.1-0.1-0.2c0,0,0,0,0,0c0.4-0.2,0.7-0.4,1.1-0.6c0,0-0.1-0.1-0.1-0.1c-0.3,0.3-0.5,0.7-0.8,1c0,0,0,0,0,0
			c0,0-0.1-0.1-0.1-0.1c0,0,0,0,0.1,0.1c0,0-0.1-0.1-0.1-0.1c0,0,0,0,0,0.1c0.3-0.3,0.6-0.6,0.9-0.9c0,0-0.1-0.1-0.1-0.1
			c-0.2,0.4-0.4,0.7-0.7,1.1c0,0,0,0,0,0c0,0-0.1-0.1-0.1-0.1c0,0,0,0,0,0c0,0-0.1-0.1-0.1-0.1c0,0,0,0,0,0c0.3-0.3,0.7-0.5,1-0.8
			c-0.1-0.1-0.1-0.1-0.2-0.2c-0.1-0.1-0.1-0.1-0.2-0.2c-0.1-0.1-0.4-0.1-0.6-0.1c-0.1,0-0.2,0.1-0.2,0.1c-0.1,0-0.1,0.1-0.2,0.2
			c-0.1,0.2-0.1,0.3-0.1,0.5c0,0.1,0.1,0.2,0.1,0.2c0.1,0.1,0.2,0.2,0.3,0.3c0.2-0.4,0.3-0.8,0.5-1.2c0,0,0,0,0,0
			c0.1,0,0.1,0,0.2,0.1c-0.1,0-0.1-0.1-0.2-0.1c0,0,0.1,0.1,0.1,0.1c0,0,0,0-0.1-0.1c-0.1-0.1-0.3-0.2-0.5-0.2
			c-0.2,0-0.3,0.1-0.5,0.2c-0.1,0.1-0.2,0.3-0.2,0.5C130.4,57.5,130.4,57.5,130.3,57.7c0.1,0,0.2,0.1,0.3,0.2c0,0,0.1,0.1,0.1,0.1
			c0.3-0.3,0.6-0.6,0.9-0.9c-0.1-0.1-0.1-0.1-0.2-0.2c-0.1-0.1-0.1-0.1-0.2-0.1c-0.1,0-0.2-0.1-0.3-0.1c-0.2,0-0.3,0.1-0.5,0.2
			c-0.1,0.1-0.2,0.3-0.2,0.5c0,0.2,0.1,0.3,0.2,0.5c0,0,0.1,0.1,0.1,0.1c0.3-0.3,0.6-0.6,0.9-0.9c-0.1-0.1-0.2-0.2-0.3-0.3
			c-0.1-0.1-0.3-0.2-0.5-0.2c-0.2,0-0.3,0.1-0.5,0.2c-0.1,0.1-0.2,0.3-0.2,0.5C130.1,57.4,130.2,57.5,130.3,57.7L130.3,57.7z"/>
	</g>
</g>
<g>
	<g>
		<path class="st13" d="M131.1,58.2C131.1,58.2,131.1,58.2,131.1,58.2c0.1,0.1,0.2,0.1,0.2,0.2c0.1,0,0.2,0.1,0.3,0.1
			c0.1,0,0.1,0,0.2,0c0.1,0,0.2-0.1,0.2-0.1c0,0,0.1-0.1,0.1-0.1c0.1-0.1,0.1-0.1,0.1-0.2c0-0.1,0-0.1,0-0.2c0-0.1,0-0.2-0.1-0.3
			c0,0,0,0,0,0c0,0.1,0,0.1,0.1,0.2c0,0,0,0,0,0c0,0.1,0,0.2,0,0.3c0,0,0,0,0,0c0,0.1,0,0.1-0.1,0.2c0,0,0,0,0,0
			c0,0-0.1,0.1-0.1,0.1c0,0,0,0,0,0c0,0-0.1,0.1-0.1,0.1c0,0,0,0,0,0c-0.1,0-0.1,0-0.2,0.1c0,0,0,0,0,0c-0.1,0-0.1,0-0.2,0
			c0,0,0,0,0,0c-0.1,0-0.1,0-0.2,0c0,0,0,0,0,0c-0.1,0-0.1,0-0.2-0.1c0,0,0,0,0,0c0,0-0.1-0.1-0.1-0.1c0,0,0,0,0,0
			C131.2,58.2,131.2,58.1,131.1,58.2C131.2,58.1,131.2,58.1,131.1,58.2c0.4-0.2,0.8-0.5,1.2-0.7c0-0.1-0.1-0.1-0.1-0.2
			c0-0.1-0.1-0.1-0.2-0.2c-0.1-0.1-0.1-0.1-0.2-0.1c-0.1,0-0.2,0-0.3,0c-0.1,0-0.2,0-0.2,0.1c0,0-0.1,0.1-0.1,0.1
			c-0.1,0.1-0.1,0.2-0.2,0.3c0,0.1,0,0.1,0,0.2c0,0.1,0,0.2,0.1,0.3C131.1,58,131.1,58.1,131.1,58.2c0.1,0,0.2,0.1,0.2,0.2
			c0.1,0.1,0.1,0.1,0.2,0.1c0.1,0,0.2,0,0.3,0c0.1,0,0.2,0,0.2-0.1c0,0,0.1-0.1,0.1-0.1c0.1-0.1,0.1-0.2,0.2-0.3c0-0.1,0-0.1,0-0.2
			c0-0.1,0-0.2-0.1-0.3c0-0.1-0.1-0.1-0.1-0.2c0,0,0,0,0,0c0,0,0,0,0,0c0,0,0,0,0,0c0,0-0.1-0.1-0.1-0.1c0,0,0,0,0,0
			c-0.1,0-0.1-0.1-0.2-0.1c0,0,0,0,0,0c0,0-0.2,0-0.2,0c0,0,0,0,0,0c-0.1,0-0.1,0-0.2,0c-0.1,0-0.1,0-0.2,0.1c0,0,0,0-0.1,0.1
			c-0.1,0.1,0,0-0.1,0.1c0,0-0.1,0.1-0.1,0.1c0,0-0.1,0.1-0.1,0.2c0,0.1,0,0.1,0,0.2c0,0.1,0,0.1,0,0.2c0,0,0,0.1,0,0.1
			C131,58,131,58,131.1,58.2c0.3-0.4,0.6-0.6,1-0.9c0,0,0,0,0,0c-0.1-0.1-0.1-0.1-0.2-0.1c-0.1,0-0.2-0.1-0.3-0.1
			c-0.1,0-0.2,0-0.3,0.1c-0.1,0-0.2,0.1-0.2,0.1c0,0-0.1,0.1-0.1,0.1c-0.1,0.1-0.1,0.2-0.1,0.3c0,0.1,0,0.1,0,0.2
			C131,58,131,58.1,131.1,58.2L131.1,58.2z"/>
	</g>
</g>
<g>
	<g>
		<path class="st13" d="M130.7,56.6c-0.1,0-0.2-0.1-0.3-0.1c-0.1,0-0.2,0-0.3,0c-0.1,0-0.1,0-0.2,0c-0.1,0-0.2,0.1-0.2,0.1
			c0,0-0.1,0.1-0.1,0.1c-0.1,0.1-0.1,0.1-0.1,0.2c0,0.1,0,0.1,0,0.2c0,0.1,0,0.1,0,0.2c0,0.1,0.1,0.2,0.1,0.2c0,0.1,0.1,0.1,0.2,0.2
			c0.1,0,0.2,0.1,0.3,0.1c0.1,0,0.2,0,0.3,0c0.1,0,0.2,0,0.2-0.1c0,0,0.1-0.1,0.1-0.1c0.1-0.1,0.1-0.1,0.1-0.2c0-0.1,0-0.1,0-0.2
			c0-0.1,0-0.2,0-0.3c0-0.2-0.1-0.3-0.3-0.4c-0.1,0-0.1-0.1-0.2-0.1c-0.1,0-0.2-0.1-0.2-0.1c0,0-0.1,0-0.1,0c0.1,0,0.1,0,0.2,0.1
			c0,0,0,0,0,0c-0.2,0.4-0.4,0.7-0.7,1.1c0.1,0,0.2,0.1,0.3,0.1c0.1-0.4,0.1-0.9,0.2-1.3c0,0-0.1,0-0.1,0c0.1,0,0.1,0,0.2,0
			c0,0,0,0,0,0c-0.1,0-0.2,0-0.3,0c-0.1,0-0.2,0-0.2,0.1c0,0-0.1,0.1-0.1,0.1c-0.1,0.1-0.1,0.1-0.1,0.2c0,0.1,0,0.1,0,0.2
			c0,0.1,0,0.2,0,0.3c0.1,0.2,0.2,0.3,0.3,0.4c0,0,0,0,0,0c0.1,0,0.1,0.1,0.2,0.1c0.1,0,0.1,0,0.2,0c0.1,0,0.2,0,0.3-0.1
			c0.1,0,0.2-0.1,0.2-0.1c0,0,0.1-0.1,0.1-0.1c0-0.1,0.1-0.2,0.1-0.2c0-0.1,0-0.1,0-0.2c0-0.1,0-0.2-0.1-0.2
			c-0.1-0.1-0.2-0.3-0.4-0.3c-0.1,0-0.2,0-0.3-0.1c0.1,0.4,0.1,0.8,0.2,1.2c0,0,0,0,0,0c0.1,0,0.1-0.1,0.2-0.2
			c0.1-0.1,0.1-0.1,0.1-0.2c0-0.1,0-0.2,0-0.3c0-0.1,0-0.2-0.1-0.2c-0.1-0.1-0.2-0.3-0.4-0.3c-0.1,0-0.1,0-0.2,0
			c-0.1,0-0.2,0-0.3,0.1c0,0,0,0,0,0c0,0-0.1,0.1-0.1,0.1c0,0-0.1,0.1-0.1,0.1c0,0.1,0,0.1-0.1,0.2c0,0.1,0,0.2,0,0.3
			c0,0.1,0,0.1,0,0.2c0,0.1,0,0.1,0.1,0.1c0,0,0.1,0.1,0.1,0.1c0.1,0.1,0.1,0.1,0.2,0.1c0.1,0,0.2,0,0.3,0.1
			c0.1-0.4,0.1-0.9,0.2-1.3c0,0,0,0,0,0c0.1,0,0.1,0,0.2,0c0,0,0,0,0,0c0.1,0,0.1,0,0.2,0.1c0,0,0,0,0,0c-0.2,0.4-0.3,0.8-0.5,1.2
			c0.1,0,0.2,0,0.3,0c0.1,0,0.2,0,0.3-0.1c0.1,0,0.2-0.1,0.2-0.1c0,0,0.1-0.1,0.1-0.1c0-0.1,0.1-0.2,0.1-0.2c0-0.1,0-0.1,0-0.2
			c0-0.1,0-0.2-0.1-0.2c0,0-0.1-0.1-0.1-0.1c-0.1-0.1-0.2-0.1-0.3-0.2c0,0-0.1,0-0.1,0c0.1,0,0.1,0,0.2,0.1c0,0,0,0,0,0
			c-0.1,0-0.2-0.1-0.2-0.1c-0.1,0-0.2,0-0.3,0c-0.1,0-0.2,0.1-0.2,0.1c-0.1,0-0.1,0.1-0.2,0.2c-0.1,0.2-0.1,0.3-0.1,0.5
			c0.1,0.2,0.1,0.3,0.3,0.4c0.1,0,0.1,0.1,0.2,0.1c0,0,0.1,0,0.1,0c-0.1,0-0.1,0-0.2-0.1c0.1,0,0.2,0.1,0.3,0.1
			c0.2-0.4,0.3-0.8,0.5-1.2c0,0-0.1,0-0.1,0c0.1,0,0.1,0,0.2,0.1c0,0,0,0,0,0c-0.1,0.4-0.2,0.8-0.3,1.2c0,0,0.1,0,0.1,0
			c-0.1,0-0.1,0-0.2,0c0.1,0,0.1,0,0.2,0.1c-0.1,0-0.1,0-0.2-0.1c0,0,0,0,0,0c0.1,0,0.2,0.1,0.2,0.1c0.1,0,0.2,0,0.3,0
			c0.1,0,0.2-0.1,0.2-0.1c0.1,0,0.1-0.1,0.2-0.2c0.1-0.2,0.1-0.3,0.1-0.5c0-0.1,0-0.1-0.1-0.2C130.9,56.7,130.8,56.6,130.7,56.6
			L130.7,56.6z"/>
	</g>
</g>
<g>
	<g>
		<path class="st13" d="M100.7,70.9c0-0.2,0-0.3-0.1-0.5c0-0.2-0.3-0.1-0.3,0c0,0.2,0,0.3,0,0.5C100.4,70.9,100.5,70.8,100.7,70.9
			c-0.1-0.2-0.1-0.3-0.1-0.4c-0.1,0-0.2,0.1-0.3,0.1c0,0,0,0.1,0,0.1c0.1,0.1,0.3,0.2,0.3,0c0-0.2,0-0.3-0.1-0.4
			c-0.1-0.2-0.4,0-0.3,0.2c0,0.1,0,0.1,0,0.2c0.1,0,0.2-0.1,0.3-0.1c-0.1-0.2-0.3-0.3-0.5-0.5c-0.1-0.1-0.3,0-0.3,0.2
			c0,0.2,0.1,0.5,0.1,0.7c0,0.2,0.3,0.1,0.3,0c0-0.2-0.1-0.4-0.1-0.7c-0.1,0-0.2,0-0.3,0c0,0.3,0.1,0.6,0.1,0.8c0.1,0,0.2,0,0.3,0
			c-0.1-0.3-0.1-0.7-0.1-1c-0.1,0-0.2,0-0.3,0c0.1,0.5,0.1,1,0,1.5c0.1,0,0.2,0,0.3,0c0-0.6,0-1.2-0.3-1.7c-0.1-0.2-0.4,0-0.3,0.2
			c0.2,0.4,0.2,0.8,0.2,1.2c0,0.5,0,0.9,0,1.4c0,0.2,0.3,0.2,0.3,0c0.1-0.4,0.2-0.9,0.3-1.3c0-0.2,0.1-0.4,0.1-0.6
			c0-0.1,0-0.1,0-0.2c0,0,0-0.1,0-0.1c0,0,0,0-0.1,0c0,0,0.2,0.1,0.2,0.1c0.1,0,0.2-0.1,0.2-0.2c0-0.1-0.1-0.2-0.3-0.2
			c-0.1,0-0.2,0.1-0.2,0.2C100.5,70.5,100.5,70.7,100.7,70.9c0,0.2,0.3,0.1,0.2-0.1c-0.1-0.2-0.2-0.4-0.2-0.5
			c-0.1,0.1-0.1,0.2-0.2,0.2c0,0,0,0,0,0c0.1-0.1,0.1-0.1,0.2-0.2c-0.1,0-0.1-0.1-0.2-0.1c-0.1,0-0.2,0-0.3,0.1
			c-0.1,0.1,0,0.2-0.1,0.3c0,0.1,0,0.3,0,0.4c-0.1,0.5-0.2,1.1-0.3,1.6c0.1,0,0.2,0,0.3,0c0-0.5,0-1,0-1.5c0-0.4,0-0.9-0.2-1.3
			c-0.1,0.1-0.2,0.1-0.3,0.2c0.3,0.4,0.3,1,0.3,1.5c0,0.2,0.3,0.2,0.3,0c0.1-0.5,0.1-1,0-1.5c0-0.2-0.3-0.2-0.3,0
			c0,0.4,0,0.7,0.1,1.1c0,0.2,0.3,0.1,0.3,0c0-0.3,0-0.6-0.1-0.9c0-0.2-0.3-0.1-0.3,0c0,0.2,0.1,0.4,0.1,0.7c0.1,0,0.2,0,0.3,0
			c0-0.2-0.1-0.5-0.1-0.7c-0.1,0.1-0.2,0.1-0.3,0.2c0.2,0.2,0.3,0.3,0.5,0.5c0.1,0.1,0.3,0,0.3-0.1c0-0.1,0-0.2-0.1-0.3
			c-0.1,0.1-0.2,0.1-0.3,0.2c0,0.1,0.1,0.1,0,0.2c0.1,0,0.2,0,0.3,0c0,0,0-0.1,0-0.1c-0.1-0.2-0.4-0.1-0.3,0.1
			c0,0.1,0.1,0.2,0.1,0.3C100.4,71.1,100.7,71,100.7,70.9c0-0.2-0.1-0.3,0-0.4c-0.1,0-0.2,0-0.3,0c0,0.1,0,0.2,0,0.4
			C100.3,71.1,100.6,71.1,100.7,70.9L100.7,70.9z"/>
	</g>
</g>
<g>
	<g>
		<path class="st13" d="M100.9,71.7c0.1,0.3,0.1,0.7,0.2,1c0,0.3,0.1,0.6,0.2,0.9c0.1,0.2,0.3,0.1,0.3-0.1c0,0,0,0,0-0.1
			c0-0.1-0.1-0.2-0.2-0.2c-0.1,0-0.2,0.1-0.2,0.2c0,0,0,0,0,0.1c0.1,0,0.2-0.1,0.3-0.1c-0.1-0.1-0.1-0.3-0.1-0.4
			c0-0.2-0.1-0.3-0.1-0.5c-0.1-0.3-0.1-0.6-0.2-1c0-0.1-0.1-0.1-0.2-0.1C100.9,71.5,100.9,71.6,100.9,71.7L100.9,71.7z"/>
	</g>
</g>
<g>
	<g>
		<path class="st13" d="M102.5,70.4C102.5,70.4,102.5,70.4,102.5,70.4c0,0.1,0,0.1,0,0.2c0,0,0,0,0,0c0,0-0.1,0-0.1,0.1c0,0,0,0,0,0
			c-0.1,0-0.1,0-0.2-0.1c0-0.1,0-0.1,0,0c0,0,0,0,0,0.1c0,0,0,0.1,0,0.1c0,0.1,0.2,0.3,0.3,0.2c0.1-0.1,0.2-0.2,0.2-0.3
			C102.6,70.6,102.5,70.5,102.5,70.4c-0.1,0.2-0.2,0.4-0.2,0.5c0,0.2,0.1,0.3,0.3,0.2c0.1-0.1,0.2-0.2,0.3-0.4
			c-0.1,0-0.2-0.1-0.3-0.1c-0.1,0.2-0.1,0.4-0.2,0.6c0,0.2,0.2,0.3,0.3,0.1c0.1-0.1,0.2-0.3,0.2-0.5c-0.1,0-0.2-0.1-0.3-0.1
			c-0.1,0.3-0.2,0.6-0.2,1c0,0.1,0,0.2,0.1,0.2c0.1,0,0.2,0,0.2-0.1c0.1-0.2,0.2-0.4,0.3-0.6c-0.1,0-0.2-0.1-0.3-0.1
			c-0.1,0.4-0.2,0.7-0.3,1.1c0,0.2,0.2,0.3,0.3,0.1c0.2-0.5,0.3-1.2,0.8-1.5c-0.1-0.1-0.1-0.2-0.2-0.3c-0.5,0.4-0.7,1.1-0.9,1.7
			c0.1,0,0.2,0,0.3,0c0.1-0.6,0.3-1.1,0.6-1.6c0.1-0.2-0.1-0.3-0.3-0.2c-0.1,0.1-0.3,0.3-0.4,0.4c-0.2,0.1,0.1,0.4,0.2,0.2
			c0.1-0.1,0.2-0.3,0.3-0.4c0.1-0.1-0.1-0.2-0.2-0.2c-0.1,0-0.2,0.1-0.3,0.1c0.1,0.1,0.1,0.2,0.2,0.3c0.1-0.1,0.2-0.2,0.2-0.3
			c0.1-0.1,0-0.3-0.2-0.2c-0.1,0-0.2,0.1-0.3,0.2c-0.1,0.1,0.1,0.3,0.2,0.2c0.1-0.1,0.2-0.2,0.4-0.3c-0.1-0.1-0.2-0.1-0.3-0.2
			c-0.1,0.2-0.1,0.4-0.2,0.6c-0.1,0.2,0.1,0.3,0.3,0.2c0.1-0.1,0.2-0.2,0.3-0.4c-0.1-0.1-0.2-0.1-0.3-0.2c-0.2,0.4-0.4,0.7-0.5,1.1
			c-0.1,0.2,0.2,0.3,0.3,0.1c0.2-0.3,0.4-0.6,0.5-1c0.1-0.2-0.2-0.3-0.3-0.1c-0.2,0.4-0.3,0.8-0.5,1.2c-0.1,0.2,0.2,0.3,0.3,0.1
			c0.1-0.3,0.2-0.6,0.3-0.8c-0.1,0-0.2-0.1-0.3-0.1c-0.1,0.3-0.2,0.7-0.3,1c-0.1,0.2,0.2,0.3,0.3,0.1c0.1-0.3,0.2-0.6,0.3-0.9
			c0.1-0.2-0.2-0.3-0.3-0.1c-0.1,0.3-0.2,0.6-0.3,0.9c0.1,0,0.2,0.1,0.3,0.1c0.1-0.6,0.4-1.1,0.7-1.6c-0.1-0.1-0.2-0.1-0.3-0.2
			c-0.3,0.5-0.6,1-0.8,1.6c0.1,0.1,0.2,0.1,0.3,0.2c0.1-0.3,0.3-0.6,0.4-0.9c0.1-0.1,0.1-0.3,0.2-0.4c0.1-0.1,0.1-0.2,0.3-0.2
			c-0.1-0.1-0.1-0.2-0.2-0.3c-0.1,0.1-0.1,0.1-0.2,0.2c0.1,0.1,0.2,0.2,0.2,0.2c0.1-0.1,0.2-0.2,0.4-0.3c-0.1-0.1-0.1-0.2-0.2-0.3
			c-0.8,0.6-1.2,1.5-1.6,2.4c0.1,0,0.2,0.1,0.3,0.1c0.2-0.5,0.4-1,0.7-1.5c-0.1-0.1-0.2-0.1-0.3-0.2c-0.2,0.4-0.4,0.9-0.6,1.4
			c0,0.1,0,0.2,0.1,0.2c0.1,0,0.2,0,0.2-0.1c0.1-0.3,0.3-0.6,0.4-0.9c0.1-0.2-0.2-0.3-0.3-0.1c-0.1,0.3-0.3,0.7-0.4,1.1
			c0.1,0,0.2,0.1,0.3,0.1c0.1-0.3,0.2-0.7,0.3-1c-0.1,0-0.2-0.1-0.3-0.1c-0.1,0.3-0.2,0.5-0.3,0.8c-0.1,0.2,0.2,0.3,0.3,0.1
			c0.2-0.3,0.3-0.6,0.5-1c-0.1,0-0.2-0.1-0.3-0.1c-0.1,0.3-0.2,0.5-0.3,0.8c-0.1,0.2,0.2,0.3,0.3,0.1c0.1-0.2,0.2-0.5,0.3-0.8
			c0.1-0.2-0.2-0.3-0.3-0.1c-0.2,0.4-0.3,0.8-0.5,1.2c-0.1,0.2,0.2,0.3,0.3,0.1c0.2-0.4,0.3-0.8,0.5-1.2c-0.1,0-0.2-0.1-0.3-0.1
			c-0.1,0.2-0.1,0.5-0.2,0.7c0.1,0,0.2,0.1,0.3,0.1c0.1-0.3,0.2-0.5,0.3-0.8c0.1-0.2-0.2-0.3-0.3-0.1c-0.2,0.3-0.3,0.6-0.5,1
			c0.1,0,0.2,0.1,0.3,0.1c0.1-0.3,0.2-0.5,0.3-0.8c0-0.1,0-0.2-0.1-0.2c-0.1,0-0.2,0-0.2,0.1c-0.1,0.3-0.3,0.7-0.3,1
			c-0.1,0.2,0.3,0.3,0.3,0.1c0.1-0.3,0.2-0.7,0.4-1c-0.1,0-0.2-0.1-0.3-0.1c-0.1,0.3-0.3,0.6-0.4,0.9c0.1,0,0.2,0.1,0.3,0.1
			c0.2-0.4,0.4-0.9,0.6-1.3c0.1-0.2-0.2-0.3-0.3-0.2c-0.3,0.5-0.5,1.1-0.7,1.6c-0.1,0.2,0.2,0.3,0.3,0.1c0.4-0.9,0.8-1.7,1.5-2.3
			c0.1-0.1,0-0.3-0.2-0.3c-0.2,0.1-0.4,0.2-0.5,0.3c-0.1,0.2,0.1,0.4,0.2,0.2c0.1-0.1,0.1-0.1,0.2-0.2c0.1-0.1,0-0.3-0.2-0.3
			c-0.3,0.1-0.5,0.4-0.6,0.7c-0.2,0.3-0.3,0.7-0.5,1c-0.1,0.2,0.2,0.4,0.3,0.2c0.2-0.5,0.5-1.1,0.8-1.6c0.1-0.2-0.2-0.3-0.3-0.2
			c-0.4,0.5-0.6,1-0.8,1.6c-0.1,0.2,0.2,0.3,0.3,0.1c0.1-0.3,0.2-0.6,0.3-0.9c-0.1,0-0.2-0.1-0.3-0.1c-0.1,0.3-0.2,0.6-0.3,0.9
			c0.1,0,0.2,0.1,0.3,0.1c0.1-0.3,0.2-0.7,0.3-1c0.1-0.2-0.2-0.3-0.3-0.1c-0.1,0.3-0.2,0.6-0.3,0.8c0.1,0,0.2,0.1,0.3,0.1
			c0.1-0.4,0.3-0.7,0.4-1.1c-0.1,0-0.2-0.1-0.3-0.1c-0.1,0.3-0.3,0.6-0.5,0.9c0.1,0,0.2,0.1,0.3,0.1c0.1-0.4,0.3-0.7,0.5-1.1
			c0.1-0.2-0.2-0.3-0.3-0.2c-0.1,0.1-0.2,0.2-0.3,0.3c0.1,0.1,0.2,0.1,0.3,0.2c0.1-0.2,0.2-0.5,0.3-0.7c0-0.2-0.2-0.3-0.3-0.2
			c-0.1,0.1-0.2,0.2-0.3,0.2c0.1,0.1,0.1,0.1,0.2,0.2c0,0,0,0,0.1,0c-0.1-0.1-0.1-0.2-0.2-0.2c0,0.1-0.1,0.2-0.2,0.2
			c-0.1,0.1,0,0.3,0.2,0.3c0.1,0,0.2-0.1,0.3-0.1c-0.1-0.1-0.2-0.1-0.2-0.2c-0.1,0.1-0.1,0.2-0.2,0.3c0.1,0.1,0.2,0.2,0.2,0.2
			c0.1-0.1,0.3-0.3,0.4-0.4c-0.1-0.1-0.2-0.1-0.3-0.2c-0.4,0.5-0.6,1.2-0.6,1.8c0,0.2,0.3,0.2,0.3,0c0.2-0.6,0.4-1.2,0.8-1.6
			c0.1-0.1,0-0.4-0.2-0.3c-0.6,0.4-0.7,1.1-1,1.7c0.1,0,0.2,0.1,0.3,0.1c0.1-0.4,0.2-0.7,0.3-1.1c0.1-0.2-0.2-0.3-0.3-0.1
			c-0.1,0.2-0.2,0.4-0.3,0.6c0.1,0,0.2,0.1,0.3,0.1c0-0.3,0.1-0.7,0.2-1c0-0.1,0-0.2-0.1-0.2c-0.1,0-0.2,0-0.2,0.1
			c-0.1,0.1-0.1,0.3-0.2,0.4c0.1,0,0.2,0.1,0.3,0.1c0-0.2,0.1-0.4,0.2-0.6c0.1-0.2-0.2-0.3-0.3-0.1c0,0.1-0.1,0.2-0.2,0.2
			c0.1,0.1,0.2,0.1,0.3,0.2c0-0.1,0.1-0.3,0.1-0.4C102.8,70.4,102.6,70.3,102.5,70.4c-0.1,0.1-0.2,0.2-0.3,0.3
			c0.1,0.1,0.2,0.1,0.3,0.2C102.5,70.7,102.6,70.5,102.5,70.4c0,0-0.1-0.1-0.1-0.1c0,0-0.1,0-0.1,0.1c0,0.1,0,0.1,0,0.2c0,0,0,0,0,0
			C102.4,70.8,102.7,70.5,102.5,70.4L102.5,70.4z"/>
	</g>
</g>
<g>
	<g>
		<path class="st13" d="M99,70c0.4,0.2,0.6,0.7,0.7,1.2c0.1,0.5,0.1,1.1,0.1,1.6c0,0.2,0.3,0.2,0.3,0c0-0.6,0-1.2-0.2-1.8
			c-0.1-0.5-0.3-1-0.8-1.2C99,69.6,98.8,69.9,99,70L99,70z"/>
	</g>
</g>
<g>
	<g>
		<path class="st13" d="M99.4,70.1c0,0.1,0.1,0.2,0.1,0.3c0.1-0.1,0.2-0.1,0.3-0.2c0,0,0,0,0,0.1c-0.1,0-0.2,0-0.3,0
			c0.1,0.2,0.1,0.5,0.1,0.7c0,0.1,0.1,0.2,0.2,0.2c0.1,0,0.2-0.1,0.2-0.2c0-0.3-0.1-0.5-0.2-0.8c0-0.1-0.1-0.1-0.2-0.1
			c-0.1,0-0.1,0-0.2,0.1c0,0.1,0,0.2,0.1,0.3c0,0,0.1,0.1,0.2,0c0.1,0,0.1-0.1,0.1-0.2c0-0.1-0.1-0.2-0.1-0.3c0-0.1-0.1-0.1-0.2-0.1
			C99.5,69.9,99.4,70,99.4,70.1L99.4,70.1z"/>
	</g>
</g>
<g>
	<g>
		<path class="st13" d="M98.8,70c0.5,0.2,0.7,0.8,0.8,1.3c0.1,0.5,0.1,1.1,0.1,1.6c0,0.2,0.3,0.2,0.3,0c0-0.6,0-1.2-0.1-1.8
			c-0.1-0.5-0.4-1.1-0.9-1.4C98.8,69.6,98.6,69.9,98.8,70L98.8,70z"/>
	</g>
</g>
<g>
	<g>
		<path class="st13" d="M104.2,70.5c-0.5,0-1,0.4-1.3,0.7c0.1,0.1,0.2,0.2,0.2,0.2c0.3-0.3,0.6-0.5,1-0.6c0-0.1-0.1-0.2-0.1-0.3
			c-0.9,0.4-1.5,1.3-1.8,2.2c0,0.1,0,0.2,0.1,0.2c0.1,0,0.2,0,0.2-0.1c0.3-0.8,0.8-1.6,1.7-2c0.2-0.1,0-0.3-0.1-0.3
			c-0.5,0.1-0.9,0.3-1.2,0.7c-0.1,0.2,0.1,0.4,0.2,0.2c0.3-0.3,0.7-0.6,1.1-0.6C104.4,70.8,104.4,70.5,104.2,70.5L104.2,70.5z"/>
	</g>
</g>
<path class="st13" d="M30.7,120.3c0,0,2.4-2.7,5.7-2.2l-0.4-7.7l-3.1,1.1l-2.2,0.7l-2.3,1l-1.8,0.7l-0.9,1l-0.1,1.3v0.9l0.8,0.7
	l1,0.8L30.7,120.3z"/>
<g>
	<g>
		<path class="st13" d="M29,113.5C29,113.5,29,113.5,29,113.5c-0.4-0.2-0.7-0.1-0.9,0.2c-0.1,0.1-0.1,0.4-0.1,0.5
			c0.1,0.4,0.4,0.5,0.8,0.5c0.2,0,0.4-0.2,0.5-0.4c0.1-0.1,0.2-0.2,0.4-0.2c0.3-0.1,0.4-0.5,0.3-0.8c-0.1-0.3-0.4-0.4-0.8-0.4
			c-0.3,0.1-0.5,0.1-0.7,0.3c-0.7,0.3-0.2,1.4,0.5,1.2c0.1,0,0.3-0.1,0.4-0.1c-0.1-0.4-0.2-0.8-0.3-1.3c-0.1,0-0.2,0.1-0.3,0.1
			c0.2,0.4,0.3,0.8,0.5,1.2c1.4-0.9,3.1-1.3,4.7-1.7c0.8-0.2,0.5-1.5-0.3-1.3c-0.9,0.2-1.8,0.6-2.5,1.2c-0.3,0.2-0.4,0.6-0.2,0.9
			c0.2,0.3,0.6,0.4,0.9,0.2c0.7-0.5,1.4-0.8,2.2-1c-0.1-0.4-0.2-0.8-0.3-1.3c-1.7,0.4-3.5,0.9-5,1.8c-0.3,0.2-0.4,0.5-0.3,0.8
			c0.1,0.3,0.5,0.5,0.8,0.4c0.1,0,0.2-0.1,0.3-0.1c0.3-0.1,0.6-0.4,0.5-0.8c-0.1-0.3-0.5-0.5-0.8-0.5c-0.1,0-0.3,0.1-0.4,0.1
			c0.2,0.4,0.3,0.8,0.5,1.2c0.1-0.1,0.3-0.1,0.4-0.1c-0.2-0.4-0.3-0.8-0.5-1.2c-0.3,0.2-0.5,0.4-0.8,0.6c0.1-0.1,0.2-0.1,0.3-0.2
			c0,0,0,0,0,0c0.3,0.2,0.5,0.3,0.8,0.5c0,0,0,0,0,0c0,0.2,0,0.3-0.1,0.5c0,0,0,0,0,0c-0.3,0.1-0.6,0.2-0.9,0.2c0,0,0,0,0,0
			c0.3,0.2,0.7,0.1,0.9-0.2C29.4,114.1,29.3,113.6,29,113.5L29,113.5z"/>
	</g>
</g>
<g>
	<g>
		<path class="st13" d="M29.1,114.8c0.3-0.1,0.7-0.3,1-0.4c0.3-0.1,0.4-0.5,0.3-0.8c-0.1-0.3-0.5-0.5-0.8-0.4
			c-0.3,0.1-0.6,0.2-0.9,0.3c0.2,0.4,0.3,0.8,0.5,1.2c0.3-0.2,0.5-0.3,0.8-0.5c0.3-0.2,0.4-0.5,0.3-0.8c-0.1-0.3-0.4-0.4-0.8-0.4
			c-0.2,0-0.3,0.1-0.5,0.1c0.1,0.4,0.2,0.8,0.3,1.2c0.3-0.2,0.6-0.4,0.9-0.5c0.3-0.1,0.6-0.4,0.5-0.8c-0.1-0.3-0.5-0.6-0.8-0.5
			c-0.4,0.1-0.7,0.2-1.1,0.3c0.2,0.4,0.3,0.8,0.5,1.2c0.2-0.1,0.4-0.2,0.6-0.3c-0.1-0.4-0.2-0.8-0.3-1.3c-0.2,0.1-0.4,0.1-0.6,0.2
			c0.2,0.4,0.3,0.8,0.5,1.2c0.6-0.3,1.2-0.6,1.9-0.7c0.7-0.2,1.4-0.2,2-0.6c0.6-0.3,0.2-1.4-0.5-1.2c-0.6,0.2-1.2,0.4-1.8,0.6
			c0.1,0.4,0.2,0.8,0.3,1.3c0.7-0.3,1.3-0.5,2.1-0.6c0.3-0.1,0.5-0.5,0.5-0.8c-0.1-0.4-0.5-0.5-0.8-0.5c-0.7,0.1-1.4,0.4-2.1,0.6
			c-0.3,0.1-0.6,0.4-0.5,0.8c0.1,0.3,0.5,0.6,0.8,0.5c0.6-0.2,1.2-0.4,1.8-0.6c-0.2-0.4-0.3-0.8-0.5-1.2c-0.1,0.1-0.3,0.1-0.4,0.1
			c-0.1,0-0.3,0.1-0.4,0.1c-0.3,0.1-0.7,0.1-1,0.2c-0.7,0.2-1.4,0.5-2.1,0.8c-0.7,0.3-0.2,1.4,0.5,1.2c0.2-0.1,0.4-0.1,0.6-0.2
			c0.3-0.1,0.6-0.4,0.5-0.8c-0.1-0.3-0.5-0.6-0.8-0.5c-0.3,0.1-0.6,0.2-0.9,0.4c-0.6,0.4-0.2,1.4,0.5,1.2c0.4-0.1,0.7-0.2,1.1-0.3
			c-0.1-0.4-0.2-0.8-0.3-1.3c-0.4,0.2-0.8,0.4-1.2,0.6c-0.2,0.2-0.4,0.4-0.3,0.7c0.1,0.3,0.3,0.5,0.6,0.5c0.3,0,0.6-0.1,0.9-0.1
			c-0.2-0.4-0.3-0.8-0.5-1.2c-0.3,0.2-0.5,0.3-0.8,0.5C27.9,113.9,28.3,114.9,29.1,114.8c0.2-0.2,0.5-0.3,0.8-0.4
			c-0.2-0.4-0.3-0.8-0.5-1.2c-0.3,0.1-0.7,0.3-1,0.4c-0.3,0.1-0.4,0.6-0.2,0.9C28.5,114.9,28.8,114.9,29.1,114.8L29.1,114.8z"/>
	</g>
</g>
<g>
	<g>
		<path class="st13" d="M31.1,119.2c0.3-0.1,0.6-0.3,0.8-0.4c-0.3-0.3-0.5-0.7-0.8-1c-0.2,0.2-0.5,0.5-0.7,0.7
			c-0.2,0.2-0.2,0.4-0.1,0.7c0.1,0.2,0.3,0.4,0.6,0.4c0.3,0,0.5-0.1,0.7-0.2c-0.3-0.3-0.5-0.7-0.8-1c-0.2,0.2-0.4,0.4-0.5,0.6
			c-0.4,0.6,0.3,1.2,0.9,0.9c0.1,0,0.1-0.1,0.2-0.1c-0.3-0.3-0.6-0.6-0.9-0.9c0,0.1,0,0.1,0,0.1c0,0,0,0,0,0
			c0.2,0.4,0.4,0.7,0.7,1.1c0.1-0.1,0.1-0.1,0.2-0.2c-0.3-0.2-0.6-0.5-1-0.7c0,0,0,0,0,0.1c0.1-0.1,0.1-0.2,0.2-0.3
			c0.1,0,0.2-0.1,0.3-0.1c0.2,0.4,0.3,0.7,0.5,1.1c0.7-0.6,1.4-1.1,2.2-1.5c-0.2-0.4-0.4-0.7-0.7-1.1c-0.5,0.3-0.9,0.6-1.4,0.9
			C31.1,118.5,31,118.8,31.1,119.2c0.3,0.2,0.7,0.3,1,0.1c0.7-0.3,1.3-0.7,2-1.1c0.7-0.5,0.1-1.5-0.7-1.1c-0.4,0.2-0.8,0.4-1.2,0.7
			c-0.3,0.2-0.4,0.6-0.2,0.9c0.2,0.3,0.6,0.4,0.9,0.2c0.7-0.3,1.4-0.6,2.2-0.9c-0.1-0.4-0.2-0.8-0.3-1.3c-0.5,0.2-0.9,0.4-1.4,0.6
			c-0.3,0.1-0.5,0.4-0.5,0.7c0,0.3,0.3,0.5,0.6,0.6c0.5,0,1-0.1,1.4-0.3c0.2-0.1,0.4-0.1,0.6-0.2c0.2,0,0.3,0,0.5,0
			c-0.1-0.4-0.1-0.8-0.2-1.2c0,0,0,0,0,0c-0.5,0-0.9,0.8-0.5,1.1c0.4,0.3,0.8,0.3,1.2,0c0.3-0.2,0.2-0.7,0-0.9
			c-0.3-0.3-0.7-0.2-0.9,0c0,0,0,0,0,0c0.1-0.1,0.2-0.1,0.3-0.2c0.1,0,0.1,0,0.2,0c0.1,0.1,0.2,0.1,0.3,0.2c0,0,0,0,0,0
			c-0.2,0.4-0.3,0.7-0.5,1.1c0.2,0,0.4,0,0.6-0.2c0.5-0.3,0.4-1-0.2-1.2c-0.5-0.1-1-0.1-1.6,0.1c-0.4,0.1-0.9,0.3-1.3,0.3
			c0.1,0.4,0.1,0.9,0.2,1.3c0.5-0.2,0.9-0.4,1.4-0.6c0.3-0.1,0.6-0.4,0.5-0.8c-0.1-0.3-0.5-0.6-0.8-0.5c-0.8,0.3-1.7,0.7-2.5,1
			c0.2,0.4,0.4,0.7,0.7,1.1c0.4-0.2,0.8-0.4,1.2-0.7c-0.2-0.4-0.4-0.7-0.7-1.1c-0.6,0.4-1.3,0.8-2,1.1c0.2,0.4,0.4,0.7,0.7,1.1
			c0.5-0.3,0.9-0.6,1.4-0.9c0.7-0.5,0.1-1.6-0.7-1.1c-0.9,0.5-1.7,1-2.5,1.7c-0.4,0.4-0.1,1.1,0.5,1.1c0.4,0,0.7-0.2,0.9-0.6
			c0.2-0.5-0.5-1.1-1-0.7c-0.1,0.1-0.1,0.1-0.2,0.2c-0.3,0.2-0.4,0.6-0.2,0.9c0.2,0.3,0.6,0.4,0.9,0.2c0.2-0.1,0.4-0.3,0.5-0.5
			c0.3-0.6-0.3-1.2-0.9-0.9c-0.1,0-0.1,0.1-0.2,0.1c0.3,0.3,0.6,0.6,0.9,0.9c0.1-0.1,0.2-0.2,0.3-0.3c0.2-0.2,0.2-0.6,0.1-0.9
			c-0.2-0.2-0.6-0.3-0.8-0.2c-0.2,0.1-0.1,0-0.1,0c0.2,0.4,0.3,0.7,0.5,1.1c0.2-0.3,0.4-0.5,0.7-0.7c0.2-0.2,0.2-0.6,0.1-0.9
			c-0.2-0.3-0.5-0.3-0.8-0.2c-0.3,0.1-0.6,0.3-0.8,0.4c-0.3,0.2-0.4,0.6-0.2,0.9C30.4,119.3,30.8,119.4,31.1,119.2L31.1,119.2z"/>
	</g>
</g>
<g>
	<g>
		<path class="st13" d="M36,117.2C36,117.2,36,117.2,36,117.2c0,0,0.1,0.1,0.1,0.1c0,0,0,0,0,0c0,0.1,0,0.1,0.1,0.2c0,0,0,0,0,0
			c0,0.1,0,0.1,0,0.2c0,0,0,0,0,0c0,0.1,0,0.1,0,0.2c0,0,0,0,0,0c0,0.1,0,0.1-0.1,0.2c0,0,0,0,0,0c0,0-0.1,0.1-0.1,0.1c0,0,0,0,0,0
			c0,0-0.1,0.1-0.1,0.1c0,0,0,0,0,0c0.1,0,0.1-0.1,0.2-0.2c0.1-0.1,0.1-0.1,0.1-0.2c0-0.1,0-0.2,0-0.3c0-0.1,0-0.2-0.1-0.2
			c0,0-0.1-0.1-0.1-0.1c-0.1-0.1-0.2-0.1-0.3-0.2c-0.1,0-0.1,0-0.2,0c-0.1,0-0.2,0-0.3,0.1c-0.1,0.1-0.2,0.2-0.3,0.3c0,0,0,0,0,0
			c0,0.1,0,0.1-0.1,0.2c0,0,0,0,0,0c0,0.1,0,0.2,0,0.4c0,0.1,0.1,0.2,0.2,0.3c0.1,0.1,0.1,0.1,0.2,0.1c0.1,0,0.2,0.1,0.3,0.1
			c0.1,0,0.2,0,0.3-0.1c0.1,0,0.2-0.1,0.2-0.1c0,0,0.1-0.1,0.1-0.1c0.1-0.1,0.1-0.2,0.1-0.3c0-0.1,0-0.1,0-0.2
			C36.1,117.4,36,117.3,36,117.2L36,117.2z"/>
	</g>
</g>
<path class="st13" d="M99.2,120.4l1.3-0.4l1.7-0.8l1.1-1l0.9-0.9l0.7-0.7v-1.1l-0.6-1.2l-3.1-1.6l-2.5-1c0,0-3.2-0.9-3.3-0.9
	s-2.2-0.5-2.2-0.5l0.1,7.3C93.1,117.8,97.4,117.4,99.2,120.4z"/>
<g>
	<g>
		<path class="st13" d="M94.1,111c-0.1-0.1-0.3-0.2-0.4-0.4c0,0.1-0.1,0.2-0.1,0.3C93.7,110.9,93.9,111,94.1,111
			c0.1,0,0.1-0.1,0.2-0.2c-0.3-0.1-0.5-0.2-0.8-0.3c0,0.1-0.1,0.2-0.1,0.3c0.5,0.1,1,0.2,1.5,0.3c0-0.1,0-0.2,0-0.3
			c-0.4,0-0.8-0.1-1.1-0.3c0,0.1-0.1,0.2-0.1,0.3c1.7,0.6,3.6,0.7,5.3,1.4c0.8,0.4,1.7,0.8,2.5,1.2c0.8,0.4,1.7,0.9,2.3,1.6
			c0.1-0.1,0.2-0.1,0.3-0.2c-1.5-1.2-3.1-2.1-4.9-2.7c0,0.1-0.1,0.2-0.1,0.3c0.9,0.2,1.7,0.4,2.5,0.8c0.2,0.1,0.4-0.2,0.2-0.3
			c-0.5-0.2-0.9-0.4-1.4-0.7c-0.2-0.1-0.3,0.2-0.2,0.3c0.5,0.3,0.9,0.7,1.3,1.2c0.1,0.2,0.4-0.1,0.2-0.2c-0.4-0.5-0.9-0.9-1.4-1.2
			c-0.1,0.1-0.1,0.2-0.2,0.3c0.5,0.2,0.9,0.4,1.4,0.7c0.1-0.1,0.1-0.2,0.2-0.3c-0.8-0.4-1.7-0.6-2.6-0.8c-0.2,0-0.3,0.2-0.1,0.3
			c1.7,0.6,3.3,1.5,4.7,2.7c0.1,0.1,0.4,0,0.3-0.2c-0.5-0.7-1.2-1.2-2-1.5c-0.9-0.5-1.8-0.9-2.7-1.3c-1.8-0.8-3.7-0.9-5.5-1.5
			c-0.2-0.1-0.3,0.2-0.1,0.3c0.4,0.1,0.8,0.2,1.2,0.3c0.2,0,0.2-0.3,0-0.3c-0.5-0.1-1-0.2-1.5-0.3c-0.2,0-0.3,0.2-0.1,0.3
			c0.3,0.2,0.5,0.3,0.8,0.4c0.2,0,0.3-0.2,0.1-0.3c-0.2-0.1-0.5-0.2-0.7-0.2c-0.1,0-0.2,0.2-0.1,0.3c0.1,0.1,0.3,0.2,0.4,0.4
			C94,111.4,94.2,111.1,94.1,111L94.1,111z"/>
	</g>
</g>
<g>
	<g>
		<path class="st13" d="M104.6,116.5c0.1-0.1,0.2-0.1,0.3-0.2c-0.1-0.1-0.1-0.2-0.2-0.3c0,0-0.1,0-0.1,0.1c0,0-0.1,0.1-0.1,0.1
			c0,0,0,0.1,0,0.1C104.6,116.4,104.7,116.4,104.6,116.5c0.1-0.1,0.2-0.1,0.2-0.1c0,0,0.1,0,0.1-0.1c0,0,0.1-0.1,0.1-0.1
			c0,0,0-0.1,0-0.1c0,0-0.1-0.1-0.1-0.1c0,0,0,0,0,0c0,0-0.1,0-0.1,0c-0.1,0.1-0.2,0.1-0.3,0.2c0,0-0.1,0.1-0.1,0.1c0,0,0,0.1,0,0.1
			c0,0,0.1,0.1,0.1,0.1C104.5,116.5,104.5,116.5,104.6,116.5C104.6,116.5,104.6,116.5,104.6,116.5L104.6,116.5z"/>
	</g>
</g>
<g>
	<g>
		<path class="st13" d="M25.5,116.2c-0.1,0-0.2,0-0.3,0c-0.1,0-0.1,0.1-0.2,0.1c0,0.1,0,0.2,0.1,0.2c0.1,0,0.2,0,0.3-0.1
			C25.5,116.3,25.5,116.2,25.5,116.2c0.1-0.2,0.1-0.4,0.2-0.6c0-0.1,0-0.2-0.1-0.2c-0.1,0-0.2,0-0.2,0.1c-0.2,0.2-0.3,0.6-0.2,0.9
			c0,0.1,0.1,0.1,0.1,0.2c0.1,0,0.2,0,0.2-0.1c0-0.1,0-0.2-0.1-0.2c-0.1-0.1-0.2,0-0.3,0.1c-0.1,0.1,0,0.2,0,0.3
			c0.1,0.1,0.2,0.1,0.3,0C25.5,116.4,25.5,116.3,25.5,116.2c-0.1,0-0.2,0-0.3,0c-0.1,0-0.1,0.1-0.2,0.1c-0.1,0-0.1,0.1-0.1,0.2
			c0,0.1,0.1,0.1,0.2,0.1c0.3,0,0.7,0,1,0c0.1,0,0.2-0.1,0.2-0.2c0-0.1-0.1-0.2-0.2-0.2c-0.3,0-0.7,0-1,0c0,0.1,0.1,0.2,0.1,0.3
			c0.1,0,0.1-0.1,0.2-0.1c-0.1-0.1-0.1-0.2-0.2-0.3c0.1,0,0.1,0,0.2,0c0.1,0.1,0,0.1,0,0.1c0,0.1-0.1,0.1-0.1,0.1c0,0-0.1-0.1,0-0.1
			c0.1,0,0.2,0,0.3,0C25.5,116.3,25.5,116.2,25.5,116.2c0-0.1,0-0.1,0-0.1c0-0.1,0,0,0,0c0,0,0-0.1,0-0.1c0,0,0-0.1,0-0.1
			c0,0,0,0,0,0c0,0,0,0,0,0c0-0.1,0.1-0.1,0.1-0.2c-0.1,0-0.2-0.1-0.3-0.1c0,0.1-0.1,0.3-0.1,0.4c0,0.1,0,0.1-0.1,0.2
			c0,0,0,0.1,0,0.1c0,0,0,0,0,0c0,0,0,0,0,0c0,0,0.1,0,0.1,0c0,0.1,0,0.2,0,0.3c0.1,0,0.3,0,0.4,0c0.1,0,0.1-0.1,0.1-0.2
			C25.7,116.3,25.6,116.2,25.5,116.2L25.5,116.2z"/>
	</g>
</g>
<polygon class="st13" points="93,121.7 100.4,120.1 97.8,115 92.9,115 "/>
<g>
	<g>
		<path class="st13" d="M12.2,32.4c5.3-1.7,11.1-2.9,16.7-2.5c5.2,0.4,10.6,3.5,10.6,9.4c-0.1,5.4-3.9,9.7-5.1,14.8
			c-1,4.3,0.3,8.7,3.1,12c3.3,4,8.5,6,13.5,6.7c0.4,0.1,0.4-0.6,0-0.6c-5.2-0.7-10.5-2.9-13.6-7.2c-1.5-2.1-2.5-4.6-2.7-7.1
			c-0.2-2.8,0.8-5.4,1.9-7.9c1.9-4.2,4.7-9,3-13.8c-1.5-4.1-5.7-6.2-9.7-6.7C24,28.6,17.6,30,12,31.8C11.6,31.9,11.8,32.6,12.2,32.4
			L12.2,32.4z"/>
	</g>
</g>
<g>
	<g>
		<path class="st13" d="M65.3,23.3c1.8-1,3-2.7,3.5-4.7c0.3-1,0.4-2,0.4-3c0-0.7,0-1.4,0-2c0-0.4,0.1-0.9,0.3-1.3
			c0.2-0.5,0.4-0.2,0.5,0.2c0.3,1.2,0.4,2.5,0.9,3.7c0.4,1.1,1,1.9,1.8,2.8c1.7,2.1,2.5,4.8,2.2,7.5c0,0.4,0.6,0.4,0.6,0
			c0.2-2-0.1-4.1-1-6c-0.5-0.9-1.1-1.7-1.7-2.5c-0.8-1-1.2-2-1.5-3.2c-0.2-0.9-0.2-2.1-0.7-3c-0.3-0.6-0.9-0.6-1.3-0.1
			c-0.6,0.7-0.6,1.8-0.6,2.6c0,1.1,0,2.1-0.1,3.2C68,19.6,67,21.6,65,22.7C64.6,22.9,65,23.5,65.3,23.3L65.3,23.3z"/>
	</g>
</g>
<g>
	<g>
		<path class="st13" d="M53.6,36c-4.2-0.2-4.7-5.5-5.7-8.6c-0.4-1.2-0.9-2.3-1.5-3.3c-0.2-0.4-0.4-0.7-0.6-1.1
			c-0.1-0.2-0.2-0.4-0.3-0.7c0,0-0.1-0.2,0-0.3c0,0-0.1,0,0,0.1c0.2,0,0.6,0.3,0.7,0.5c0.4,0.3,0.7,0.6,1,0.9
			c0.6,0.5,1.2,1.1,1.7,1.7c1.9,1.8,4.6,2.3,7,2.8c0.4,0.1,0.6-0.5,0.2-0.6c-1.6-0.3-3.3-0.6-4.8-1.3c-0.9-0.4-1.7-1-2.4-1.7
			c-0.7-0.7-1.4-1.3-2.1-2c-0.4-0.3-1-0.9-1.6-0.8c-0.8,0.2-0.4,1.2-0.2,1.6c0.5,1.1,1.2,2.1,1.7,3.2c0.9,2,1.2,4.3,2.1,6.3
			c0.9,2.1,2.3,3.8,4.7,4C54,36.7,54,36,53.6,36L53.6,36z"/>
	</g>
</g>
<path class="st13" d="M71,34.6c-0.4-1-2.3-1.3-4.2-0.5c-1.9,0.8-3.1,2.2-2.6,3.3c0.4,1,2.3,1.3,4.2,0.5C70.2,37.1,71.4,35.6,71,34.6
	z"/>
<path class="st13" d="M59.5,32.3c0.2,0.7,1,1.1,1.7,0.9c0.7-0.2,1.1-1,0.9-1.7c-0.2-0.7-1-1.1-1.7-0.9
	C59.7,30.8,59.3,31.6,59.5,32.3z M61.5,31.2c0.1,0.2-0.1,0.4-0.3,0.5c-0.2,0.1-0.4-0.1-0.5-0.3c-0.1-0.2,0.1-0.4,0.3-0.5
	C61.2,30.8,61.4,31,61.5,31.2z"/>
<g>
	<g>
		<path class="st13" d="M69.5,40.8c0.2,0.4,0.3,0.8,0.4,1.2c0.1,0.5,0.3,0.9,0.4,1.4c0.1,0.7,0.3,1.7-0.3,2.2
			c-0.5,0.5-1.3,0.4-1.7,0c-0.5-0.4-0.7-1-0.8-1.6c-0.2-0.6-0.3-1.3-0.2-1.9c0-0.2-0.3-0.2-0.3,0c0,0.7,0.1,1.3,0.2,2
			c0.2,0.7,0.4,1.4,1,1.8c0.5,0.5,1.3,0.6,1.9,0.2c0.7-0.4,0.8-1.3,0.8-2c-0.1-0.7-0.2-1.3-0.4-1.9c-0.1-0.5-0.2-1-0.5-1.5
			C69.6,40.5,69.4,40.7,69.5,40.8L69.5,40.8z"/>
	</g>
</g>
<path class="st13" d="M67.4,29c0.2,0.7,1,1.1,1.7,0.9c0.7-0.2,1.1-1,0.9-1.7c-0.2-0.7-1-1.1-1.7-0.9C67.6,27.5,67.2,28.3,67.4,29z
	 M69.4,27.9c0.1,0.2-0.1,0.4-0.3,0.5c-0.2,0.1-0.4-0.1-0.5-0.3c-0.1-0.2,0.1-0.4,0.3-0.5C69.1,27.6,69.3,27.7,69.4,27.9z"/>
<path class="st14" d="M59.6,27.9c-2.2,0.6-3.4,2.9-2.8,5.1c0.6,2.2,2.9,3.4,5.1,2.8c2.2-0.6,3.4-2.9,2.8-5.1
	C64.1,28.5,61.8,27.3,59.6,27.9z"/>
<path class="st14" d="M72.6,27.6c-0.6-2.2-2.9-3.4-5.1-2.8c-2.2,0.6-3.4,2.9-2.8,5.1c0.6,2.2,2.9,3.4,5.1,2.8
	C72,32,73.2,29.8,72.6,27.6z"/>
<g>
	<g>
		<path class="st13" d="M72.2,40.6c0.4,0.5,0.7,1.1,0.9,1.8c0.2,0.6,0.3,1.3,0.1,1.9c-0.2,0.5-0.8,1-1.4,0.9c-0.5,0-0.8-0.6-1.1-0.9
			c-0.1-0.2-0.4,0.1-0.2,0.2c0.4,0.4,0.7,1,1.3,1c0.7,0.1,1.3-0.3,1.7-0.9c0.4-0.6,0.3-1.4,0.1-2c-0.2-0.7-0.5-1.5-1-2.1
			C72.3,40.3,72,40.5,72.2,40.6L72.2,40.6z"/>
	</g>
</g>
<g>
	<g>
		<path class="st13" d="M65.5,37.7c0,0,0.1-0.1,0.2-0.1c-0.1-0.1-0.1-0.2-0.2-0.2c0-0.1,0,0-0.1,0c-0.1,0-0.1,0.1-0.2,0.1
			c-0.1,0.1-0.2,0.1-0.3,0.2c-0.3,0.2-0.5,0.6-0.8,0.9c-0.5,0.6-0.9,1.3-1,2.1c-0.3,1.9,2.2,2.3,3.6,1.7c1.1-0.4,1.9-1.2,3-1.6
			c0.9-0.3,1.8-0.2,2.7-0.2c0.7,0,1.5,0,2-0.6c0.5-0.6,0.6-1.5,0.3-2.2c-0.7-1.7-3.1-2-4.6-2.1c-0.2,0-0.2,0.3,0,0.3
			c1.3,0.1,3.1,0.4,4,1.5c0.5,0.6,0.6,1.7,0,2.3c-0.5,0.5-1.4,0.5-2,0.4c-0.7,0-1.4-0.1-2.1,0.1c-0.9,0.2-1.7,0.7-2.4,1.2
			c-0.9,0.5-1.8,0.9-2.9,0.7c-0.7-0.2-1.4-0.6-1.3-1.4c0.1-0.8,0.6-1.6,1.1-2.2c0.2-0.3,0.4-0.6,0.7-0.7c0.2-0.1,0.5-0.2,0.6-0.4
			c0.1-0.1-0.1-0.3-0.2-0.2c-0.1,0-0.2,0.1-0.3,0.1C65.2,37.5,65.3,37.8,65.5,37.7L65.5,37.7z"/>
	</g>
</g>
<g>
	<g>
		<path class="st13" d="M53.4,39.7c1.2-2.9,0.5-6.2,1.5-9.1c1-3,3.4-5.3,6.5-6.2c2.8-0.9,5.8-0.7,8.6-0.1c1.6,0.3,3.2,0.8,4.4,1.9
			c0.8,0.8,1.4,1.7,2.6,2.1c0.4,0.1,0.6-0.5,0.2-0.6c-1.5-0.5-2.2-2.1-3.6-2.9c-1.3-0.8-2.9-1.1-4.4-1.3c-2.8-0.5-5.8-0.5-8.5,0.5
			c-2.7,1-4.8,3.1-5.9,5.7c-1.4,3.2-0.5,6.7-1.8,9.9C52.6,39.9,53.2,40.1,53.4,39.7L53.4,39.7z"/>
	</g>
</g>
<g>
	<g>
		<path class="st13" d="M70,35.1c1.3-2.3,2.8-4.5,5-5.9c2-1.2,4.8-1.6,6.9-0.3c2.3,1.4,2.8,4.4,2,6.8c-0.8,2.6-3,4.5-5.1,6.1
			c-2.1,1.5-4.3,2.9-6.5,4.4c-1.4,0.9-2.6,0.9-4.1,0.9c-1.2,0-2.4,0.2-3.6,0.5c-2.4,0.6-4.8,1.4-7.3,1.3c-2.4-0.1-4.9-1.3-5.5-3.9
			c-0.7-3.1,1.6-5.9,4.3-7.1c2.9-1.3,6.3-1.1,9.4-1c0.4,0,0.4-0.6,0-0.6c-5.2-0.3-13.4,0-14.4,6.7c-0.3,2.4,0.7,4.6,2.9,5.7
			c2.3,1.1,4.9,0.9,7.3,0.4c1.6-0.4,3.2-0.9,4.8-1.2c1.7-0.3,3.5,0.1,5.1-0.4c1.3-0.5,2.4-1.5,3.6-2.3c1.5-1,3.1-1.9,4.6-3
			c2.2-1.6,4.4-3.6,5.2-6.3c0.7-2.3,0.4-5-1.3-6.8c-1.9-2-5.1-2.1-7.5-1c-2.9,1.2-4.8,4-6.3,6.7C69.3,35.2,69.8,35.5,70,35.1
			L70,35.1z"/>
	</g>
</g>
<g>
	<g>
		<path class="st13" d="M50.7,72.5c1.4,1.8,3.3,2.9,5.6,3.4c2.6,0.6,5.6,0.9,8.1,0c4-1.4,6-5.9,4.9-9.9c-0.7-2.6-2.6-4.7-4.9-6.1
			c-0.4-0.2-0.7,0.4-0.3,0.6c2.4,1.4,4.3,3.7,4.8,6.4c0.4,2.4-0.3,5-2,6.7c-2.1,2.1-5.2,2.4-8.1,2c-2.9-0.3-5.7-1.1-7.5-3.5
			C51,71.9,50.4,72.2,50.7,72.5L50.7,72.5z"/>
	</g>
</g>
<g>
	<g>
		<path class="st13" d="M61.4,48.4c-0.8,0.9-1.7,1.8-2.7,2.5c-1,0.7-2.2,1-3.4,1.4c-2,0.6-3.6,1.6-4.9,3.2c-2.8,3.4-3,8-2,12.1
			c0.1,0.4,0.7,0.2,0.6-0.2c-1.1-4.2-0.7-9.1,2.5-12.3c0.8-0.8,1.7-1.4,2.7-1.8c1-0.4,2-0.6,3-0.9c1.9-0.7,3.3-2.1,4.6-3.5
			C62.2,48.6,61.7,48.1,61.4,48.4L61.4,48.4z"/>
	</g>
</g>
<g>
	<g>
		<path class="st13" d="M61.1,54.1c-0.4-2,0.3-4,1.8-5.3c0.3-0.3-0.1-0.7-0.5-0.5c-1.7,1.4-2.5,3.8-2,6
			C60.6,54.7,61.2,54.5,61.1,54.1L61.1,54.1z"/>
	</g>
</g>
<g>
	<g>
		<path class="st13" d="M66,47.4c-1,1.8,2,3,3.2,3.4c1.9,0.7,4.1,0.9,6.1,0.6c0.4-0.1,0.2-0.7-0.2-0.6c-1.7,0.3-3.4,0.2-5-0.3
			c-0.8-0.2-1.6-0.6-2.3-1c-0.5-0.3-1.6-1-1.2-1.7C66.8,47.3,66.2,47,66,47.4L66,47.4z"/>
	</g>
</g>
<g>
	<g>
		<path class="st13" d="M75.2,51.4c1.1,0.4,1.6,1.6,1.3,2.7c-0.2,0.7-0.8,1.1-1.3,1.5c-0.6,0.4-1.2,0.9-1.8,1.2
			c-1.2,0.8-2.5,1.4-4,1.5c-1.5,0.1-3-0.2-4.2-0.9c-0.4-0.2-0.7,0.4-0.3,0.6c1.5,0.9,3.2,1.2,5,1c1.8-0.2,3.3-1.1,4.8-2.1
			c1.2-0.8,2.6-1.7,2.6-3.3c0-1.2-0.7-2.4-1.9-2.8C74.9,50.6,74.8,51.2,75.2,51.4L75.2,51.4z"/>
	</g>
</g>
<g>
	<g>
		<path class="st13" d="M69.4,69.5c1.4-1.7,2.6-3.6,3.5-5.6c0.2-0.4-0.4-0.7-0.6-0.3c-0.9,2-2,3.8-3.4,5.4
			C68.7,69.4,69.1,69.8,69.4,69.5L69.4,69.5z"/>
	</g>
</g>
<g>
	<g>
		<path class="st13" d="M65.9,75.1c4.3-0.8,6.3-5.2,8-8.7c0.2-0.4-0.4-0.7-0.6-0.3c-1.6,3.4-3.5,7.6-7.6,8.4
			C65.3,74.5,65.5,75.1,65.9,75.1L65.9,75.1z"/>
	</g>
</g>
<g>
	<g>
		<path class="st13" d="M76.3,51.5c0.2-1,0.5-1.9,0.7-2.8c-0.1,0.1-0.2,0.2-0.2,0.2c0.2-0.1,0.2,0.4,0.2,0.6c0,0.3-0.1,0.6-0.1,0.8
			c0.1,0.4,0.4,0.8,0.9,0.8c0.5,0,1-0.2,1.4-0.4c0.4-0.2,0.9-0.2,1.3-0.1c2.7,0.5,0.9,4.2-0.7,5c-1,0.5-2.3,0.3-2.9-0.7
			c-0.2-0.4-0.8,0-0.6,0.3c0.6,1.1,2.1,1.5,3.3,1.1c1.4-0.5,2.4-1.9,2.7-3.4c0.2-0.7,0.1-1.5-0.3-2.1c-0.4-0.5-0.9-0.8-1.5-0.9
			c-0.6-0.1-1.2,0-1.8,0.2c-0.3,0.1-0.7,0.3-1,0.3c-0.5,0-0.3-0.6-0.2-0.9c0-0.4,0-0.7-0.3-1c-0.2-0.2-0.6-0.4-0.9-0.1
			c-0.2,0.1-0.2,0.4-0.2,0.6c-0.1,0.3-0.2,0.5-0.2,0.8c-0.1,0.5-0.3,1.1-0.4,1.6C75.6,51.8,76.2,52,76.3,51.5L76.3,51.5z"/>
	</g>
</g>
<g>
	<g>
		<path class="st13" d="M63,76.6c1,0.3,2,0.6,3,0.9c0.8,0.2,1.8,0.4,2.6-0.2c0.6-0.5,0.7-1.4,0.2-2c-0.6-0.7-1.5-0.7-2.4-0.9
			c-0.4-0.1-0.6,0.5-0.2,0.6c0.6,0.2,1.5,0.1,2,0.6c0.5,0.5,0.3,1.1-0.3,1.3c-0.7,0.3-1.6-0.1-2.3-0.3c-0.8-0.2-1.6-0.5-2.4-0.7
			C62.8,75.8,62.6,76.5,63,76.6L63,76.6z"/>
	</g>
</g>
<g>
	<g>
		<path class="st13" d="M67.7,74.3c1.7,0.7,3.7,1,5.5,0.7c0.3-0.1,0.7-0.2,0.9-0.5c0.2-0.3,0.1-0.8-0.1-1.1c-0.3-0.6-1-1-1.7-1.2
			c-0.8-0.2-1.6-0.2-2.4-0.2c-0.4,0-0.4,0.7,0,0.6c0.7,0,1.5,0,2.2,0.2c0.3,0.1,0.7,0.2,0.9,0.5c0.2,0.2,0.7,0.7,0.4,1
			c-0.2,0.3-0.9,0.2-1.2,0.2c-0.5,0-1,0-1.5,0c-1-0.1-2-0.3-2.9-0.7C67.5,73.6,67.3,74.2,67.7,74.3L67.7,74.3z"/>
	</g>
</g>
<g>
	<g>
		<path class="st13" d="M71.8,72.6c2.3-1.3,3.5-4.3,2.5-6.8c-0.1-0.4-0.8-0.2-0.6,0.2c0.9,2.2-0.1,4.9-2.2,6
			C71.1,72.3,71.4,72.8,71.8,72.6L71.8,72.6z"/>
	</g>
</g>
<g>
	<g>
		<path class="st13" d="M42.5,20.4c0.2,0.1,0.4,0.2,0.6,0.4c0.1,0.1,0.2,0.1,0.3,0.2c0,0,0.1,0,0.1,0.1c0.1,0.1,0,0,0,0
			c0,0,0.1,0.1,0.1,0.1c0.2,0.2,0.4,0.3,0.5,0.5c0.1,0.1,0.2,0.2,0.3,0.3c0,0,0.1,0.1,0.1,0.1c0.1,0.1-0.1-0.1,0,0
			c0,0,0,0.1,0.1,0.1c0.1,0.1,0.2,0.3,0.4,0.3c0.2,0,0.4,0,0.5-0.1c0.3-0.2,0.4-0.6,0.2-0.9c-0.7-0.9-1.5-1.7-2.5-2.2
			c-0.2-0.1-0.3-0.1-0.5-0.1c-0.2,0-0.3,0.2-0.4,0.3C42.1,19.8,42.1,20.2,42.5,20.4L42.5,20.4z"/>
	</g>
</g>
<g>
	<g>
		<path class="st13" d="M43.8,17.3c0.3,1.5,0.7,2.9,1.2,4.3c0.1,0.3,0.4,0.6,0.8,0.5c0.3-0.1,0.6-0.5,0.5-0.8
			c-0.6-1.4-1-2.8-1.2-4.3c-0.1-0.3-0.5-0.5-0.8-0.5C43.9,16.6,43.7,17,43.8,17.3L43.8,17.3z"/>
	</g>
</g>
<g>
	<g>
		<path class="st13" d="M46.9,21.3c0.1-0.7,0.1-1.3,0.2-2c0-0.2-0.1-0.4-0.2-0.5c-0.1-0.1-0.3-0.2-0.5-0.2c-0.2,0-0.3,0.1-0.5,0.2
			c-0.1,0.1-0.2,0.3-0.2,0.5c-0.1,0.7-0.1,1.3-0.2,2c0,0.2,0.1,0.4,0.2,0.5c0.1,0.1,0.3,0.2,0.5,0.2c0.2,0,0.3-0.1,0.5-0.2
			C46.8,21.7,46.9,21.5,46.9,21.3L46.9,21.3z"/>
	</g>
</g>
<g>
	<g>
		<path class="st13" d="M67,10.1c0.5,0.7,1,1.3,1.6,1.8c0.1,0.1,0.3,0.2,0.5,0.2c0.2,0,0.3-0.1,0.5-0.2c0.1-0.1,0.2-0.3,0.2-0.5
			c0-0.2-0.1-0.3-0.2-0.5c-0.4-0.4-0.8-0.8-1.2-1.3c0,0,0.1,0.1,0.1,0.1c-0.1-0.1-0.2-0.3-0.3-0.4c-0.1-0.1-0.2-0.3-0.4-0.3
			c-0.2,0-0.4,0-0.5,0.1c-0.1,0.1-0.3,0.2-0.3,0.4C66.9,9.8,66.9,9.9,67,10.1L67,10.1z"/>
	</g>
</g>
<g>
	<g>
		<path class="st13" d="M68.2,5.4C68.1,7.3,68.4,9.2,69,11c0.1,0.3,0.4,0.5,0.8,0.5c0.3-0.1,0.6-0.5,0.5-0.8
			c-0.6-1.7-0.8-3.5-0.7-5.3c0-0.4-0.3-0.6-0.6-0.6C68.5,4.8,68.2,5.1,68.2,5.4L68.2,5.4z"/>
	</g>
</g>
<g>
	<g>
		<path class="st13" d="M71,11.3c0-0.1,0-0.1,0-0.2c0-0.1,0-0.1,0,0c0,0,0-0.1,0-0.1c0-0.1,0-0.2,0.1-0.4c0.1-0.3,0.1-0.5,0.2-0.7
			c0-0.1,0.1-0.2,0.1-0.4c0.1-0.2-0.1,0.1,0,0c0-0.1,0.1-0.1,0.1-0.2c0.1-0.2,0.2-0.5,0.4-0.7c0.2-0.3,0.1-0.7-0.2-0.9
			c-0.3-0.2-0.7-0.1-0.9,0.2c-0.6,1-1,2.2-1.1,3.4c0,0.3,0.3,0.7,0.6,0.6C70.7,11.9,71,11.6,71,11.3L71,11.3z"/>
	</g>
</g>
<g>
	<g>
		<path class="st13" d="M69.4,11.6C69.5,11.6,69.5,11.6,69.4,11.6c0,0-0.1,0-0.1,0C69.3,11.6,69.4,11.6,69.4,11.6
			c-0.1,0-0.2,0-0.2,0c0,0,0.1,0,0.1,0c-0.1,0-0.1,0-0.2-0.1c0,0,0.1,0,0.1,0c0,0-0.1-0.1-0.1-0.1c0,0,0,0,0.1,0.1
			c0,0-0.1-0.1-0.1-0.1c0,0,0,0,0,0c0,0.1,0.1,0.1,0.2,0.2c0.1,0.1,0.1,0.1,0.2,0.1c0.1,0,0.2,0,0.3,0c0.1,0,0.2,0,0.2-0.1
			c0,0,0.1-0.1,0.1-0.1c0.1-0.1,0.1-0.2,0.2-0.3c0-0.1,0-0.1,0-0.2c0-0.1,0-0.2-0.1-0.3c0,0,0,0,0,0c0-0.1-0.1-0.1-0.1-0.1
			c0,0,0,0,0,0c-0.1,0-0.1-0.1-0.2-0.1c0,0,0,0-0.1,0c-0.1,0-0.1-0.1-0.2-0.1c0,0,0,0,0,0c-0.1,0-0.1,0-0.2,0c0,0,0,0-0.1,0
			c-0.1,0-0.2,0-0.2,0c-0.1,0-0.2,0.1-0.2,0.1c-0.1,0-0.1,0.1-0.2,0.2c0,0.1-0.1,0.2-0.1,0.2c0,0.1,0,0.2,0,0.3c0,0.1,0,0.1,0.1,0.2
			c0.1,0.1,0.1,0.2,0.2,0.2c0.1,0,0.1,0,0.2,0.1C69.2,11.7,69.3,11.7,69.4,11.6L69.4,11.6z"/>
	</g>
</g>
<g>
	<g>
		<path class="st13" d="M78.5,50.4c0.8-0.3,1.6-0.5,2.4-0.8c0.3-0.1,0.6-0.5,0.5-0.8c-0.1-0.3-0.5-0.6-0.8-0.5
			c-0.8,0.3-1.6,0.5-2.4,0.8c-0.3,0.1-0.6,0.5-0.5,0.8C77.8,50.2,78.2,50.5,78.5,50.4L78.5,50.4z"/>
	</g>
</g>
<g>
	<g>
		<path class="st13" d="M80.5,49.9C80.5,49.9,80.6,49.8,80.5,49.9C80.5,49.9,80.5,49.9,80.5,49.9C80.5,49.9,80.5,49.9,80.5,49.9
			C80.5,49.9,80.5,49.9,80.5,49.9C80.5,49.9,80.5,49.9,80.5,49.9C80.5,49.9,80.5,49.9,80.5,49.9C80.5,49.9,80.5,49.9,80.5,49.9
			c0,0-0.1,0-0.1,0C80.4,49.9,80.4,49.9,80.5,49.9c-0.2-0.3-0.3-0.6-0.4-1c0,0-0.1,0.1-0.1,0.1c0,0.1-0.1,0.2-0.1,0.2
			c0,0.1,0,0.2,0,0.3c0,0.1,0.1,0.2,0.1,0.2c0,0.1,0.1,0.1,0.2,0.2c0.1,0,0.1,0,0.2,0.1c0.1,0,0.2,0,0.3,0c0.1,0,0.1,0,0.2-0.1
			c0.1-0.1,0.2-0.1,0.2-0.2c0,0,0.1-0.1,0.1-0.1c0.1-0.1,0.1-0.2,0.1-0.3c0-0.1,0-0.2-0.1-0.3c0-0.1-0.1-0.2-0.1-0.2
			c-0.1-0.1-0.2-0.1-0.3-0.2c-0.1,0-0.2,0-0.2,0c0,0-0.1,0-0.1,0c-0.1,0-0.2,0-0.3,0c-0.1,0-0.2,0.1-0.2,0.1c0,0-0.1,0-0.1,0
			c-0.1,0-0.1,0.1-0.2,0.1c0,0,0,0-0.1,0.1c-0.1,0.1-0.1,0.1-0.1,0.2c0,0.1-0.1,0.2-0.1,0.3c0,0.1,0,0.2,0.1,0.3
			c0,0.1,0.1,0.2,0.1,0.2c0,0,0.1,0.1,0.1,0.1c0.1,0.1,0.2,0.1,0.3,0.1c0.1,0,0.1,0,0.2,0C80.3,50,80.4,50,80.5,49.9L80.5,49.9z"/>
	</g>
</g>
<g>
	<g>
		<path class="st13" d="M12.7,31.4c-1.1,0.4-2.3,0.5-3-0.7c-0.5-1-0.2-2.2,0.2-3.1c0.5-1.6,1.6-2.9,2.7-4.1c2-2.2,4.2-4.4,6.8-6
			c5.8-3.6,13.2-4,19.1-0.5c0.4,0.2,0.7-0.4,0.3-0.6c-6.9-4-15.4-3-21.6,1.8c-1.5,1.2-2.8,2.5-4.1,3.8c-1.3,1.4-2.7,2.8-3.5,4.6
			C9,27.9,8.5,29.7,9.2,31c0.8,1.6,2.2,1.5,3.7,1C13.3,31.9,13.1,31.3,12.7,31.4L12.7,31.4z"/>
	</g>
</g>
<g>
	<g>
		<path class="st13" d="M28.1,14.6c4.6-4.9,12.1-6.9,18.5-4.5c6.3,2.3,10.8,8.6,11.1,15.3c0,0.4,0.7,0.4,0.6,0
			C58,18.5,53.5,12.1,47,9.6c-6.6-2.6-14.6-0.6-19.4,4.5C27.3,14.4,27.8,14.9,28.1,14.6L28.1,14.6z"/>
	</g>
</g>
<g>
	<g>
		<path class="st13" d="M77.3,43.6c1.8-0.4,3.4,1,5.2,1.1c1,0.1,2-0.3,2.9-0.1c0.8,0.2,1.8,1,1.2,1.9c-0.3,0.3,0.3,0.7,0.6,0.3
			c0.5-0.7,0.3-1.8-0.4-2.3c-0.8-0.7-2-0.6-3-0.6c-0.7,0.1-1.3,0.1-1.9,0c-0.5-0.1-1.1-0.3-1.6-0.5c-1-0.4-2-0.7-3-0.4
			C76.7,43.1,76.9,43.7,77.3,43.6L77.3,43.6z"/>
	</g>
</g>
<g>
	<g>
		<path class="st13" d="M87.4,45.5c1.3-0.2,2.8-0.8,4.1-0.5c0.6,0.1,1.1,0.4,1.4,1c0.3,0.5,0.3,1.2,0.1,1.8
			c-0.2,0.4,0.4,0.7,0.6,0.3c0.7-1.4,0-3.1-1.5-3.6c-1.6-0.5-3.3,0.2-4.9,0.4C86.8,44.9,87,45.6,87.4,45.5L87.4,45.5z"/>
	</g>
</g>
<g>
	<g>
		<path class="st13" d="M88.8,46.5c0.9-0.2,1.9,0.1,2.4,0.8c0.1,0.1,0.3,0.2,0.4,0.1c0.1-0.1,0.2-0.3,0.1-0.4c-0.7-1-2-1.4-3.2-1.1
			C88.2,46,88.4,46.6,88.8,46.5L88.8,46.5z"/>
	</g>
</g>
<g>
	<g>
		<path class="st13" d="M79.9,52.9c1-0.1,1.9-0.6,2.5-1.4c0.1-0.1,0-0.4-0.1-0.4c-0.2-0.1-0.3,0-0.4,0.1c0,0,0,0,0,0.1c0,0,0,0,0,0
			c0,0-0.1,0.1-0.1,0.1c-0.1,0.1-0.1,0.1-0.2,0.2c0,0-0.1,0.1-0.1,0.1c0,0-0.1,0,0,0c0,0,0,0-0.1,0c-0.1,0.1-0.2,0.1-0.3,0.2
			c-0.1,0.1-0.2,0.1-0.3,0.1c-0.1,0-0.1,0.1-0.2,0.1c-0.1,0-0.2,0.1-0.3,0.1c0,0-0.1,0-0.2,0c0,0-0.1,0,0,0c0,0-0.1,0-0.1,0
			c-0.2,0-0.3,0.1-0.3,0.3C79.5,52.7,79.7,52.9,79.9,52.9L79.9,52.9z"/>
	</g>
</g>
<g>
	<g>
		<path class="st13" d="M79.7,54.5c0.9,0,1.8-0.4,2.5-0.9c0.1-0.1,0.1-0.3,0-0.5c-0.1-0.1-0.3-0.1-0.5,0c-0.6,0.5-1.3,0.7-2,0.8
			c-0.2,0-0.3,0.1-0.3,0.3C79.3,54.4,79.5,54.5,79.7,54.5L79.7,54.5z"/>
	</g>
</g>
<g>
	<g>
		<path class="st13" d="M53.6,33.5c0.1-0.2,0.1-0.4-0.1-0.5c0,0-0.1,0-0.1-0.1c-0.1,0-0.1-0.1-0.2-0.1c-0.1-0.1-0.3-0.2-0.4-0.3
			c-0.2-0.2-0.5-0.4-0.7-0.7c-0.4-0.5-0.8-1-1.1-1.6c-0.6-1.2-1.1-2.4-1.5-3.7c-0.2,0.1-0.4,0.2-0.5,0.3c1.6,1.5,3.6,2.5,5.7,2.7
			c0.4,0.1,0.4-0.6,0-0.6c-2-0.3-3.8-1.2-5.3-2.5c-0.2-0.2-0.6,0-0.5,0.3c0.6,1.7,1.1,3.4,2.2,4.8c0.5,0.7,1.1,1.3,1.7,1.8
			c0.3,0.2,0.8,0.6,1.1,0.2c0.2-0.2,0.2-0.7-0.2-0.8C53.3,32.8,53.1,33.4,53.6,33.5L53.6,33.5z"/>
	</g>
</g>
<g>
	<g>
		<path class="st13" d="M68.5,23.7c0.6-0.8,1.2-1.6,1.6-2.5c0.2-0.4,0.4-0.9,0.4-1.4c0-0.2,0.1-0.5,0.1-0.7c0-0.1,0-0.2,0-0.3
			c0-0.1,0-0.1-0.1-0.1c0,0,0.1,0,0.1,0.1c0.3,0.3,0.5,0.8,0.7,1.2c0.2,0.5,0.3,0.9,0.4,1.4c0.2,1,0.2,2,0.2,3c0,0.4,0.7,0.4,0.6,0
			c0-1.8-0.1-3.6-0.9-5.2c-0.2-0.4-0.4-0.7-0.7-0.9c-0.3-0.2-0.7-0.2-0.9,0.1C70,18.4,70,18.6,70,18.8c0,0.2,0,0.5,0,0.7
			c0,0.4-0.2,0.9-0.3,1.3c-0.4,1-1,1.8-1.6,2.6C67.7,23.7,68.3,24,68.5,23.7L68.5,23.7z"/>
	</g>
</g>
<g>
	<g>
		<path class="st13" d="M105,117.1c0.8-1.9,2.2-3.5,4.1-4.4c-0.1-0.2-0.3-0.3-0.4-0.5c-1.2,1.5-2,3.2-2.2,5.1c0,0.3,0.4,0.4,0.6,0.2
			c1.1-1.3,2.4-2.4,3.9-3.2c0.4-0.2,0-0.8-0.3-0.6c-1.5,0.8-2.9,1.9-4,3.3c0.2,0.1,0.4,0.2,0.6,0.2c0.2-1.7,0.9-3.3,2-4.6
			c0.2-0.3-0.1-0.7-0.4-0.5c-1.9,1-3.4,2.7-4.3,4.6C104.3,117.2,104.8,117.5,105,117.1L105,117.1z"/>
	</g>
</g>
<g>
	<g>
		<path class="st13" d="M25.7,117.2c-0.6-1-1.2-2-1.8-3.1c-0.4-0.7-1-1.7-2-1.4c-0.2,0.1-0.3,0.3-0.2,0.5c0.8,1.7,1.4,3.4,1.8,5.2
			c0.2-0.1,0.4-0.2,0.6-0.3c-0.6-0.9-1.5-1.5-2.6-1.6c-0.3,0-0.4,0.4-0.2,0.6c0.3,0.3,0.5,0.6,0.8,0.9c0-0.2,0-0.3,0.1-0.5
			c-1.3,0.6-2.7,1.3-4,1.9c-0.4,0.2,0,0.7,0.3,0.6c1.3-0.6,2.7-1.3,4-1.9c0.2-0.1,0.2-0.4,0.1-0.5c-0.3-0.3-0.5-0.6-0.8-0.9
			c-0.1,0.2-0.2,0.4-0.2,0.6c0.8,0.1,1.6,0.6,2,1.3c0.2,0.3,0.7,0.1,0.6-0.3c-0.4-1.9-1-3.7-1.9-5.4c-0.1,0.2-0.1,0.3-0.2,0.5
			c0.4-0.1,0.7,0.3,0.9,0.5c0.3,0.4,0.5,0.8,0.7,1.2c0.5,0.8,0.9,1.7,1.4,2.5C25.4,117.9,26,117.6,25.7,117.2L25.7,117.2z"/>
	</g>
</g>
<g>
	<g>
		<path class="st13" d="M109.3,119.4c0.3-0.8,0.9-1.4,1.6-1.9c-0.2-0.1-0.3-0.2-0.5-0.4c-0.4,0.9-0.7,1.7-1.1,2.6
			c-0.1,0.2,0.2,0.5,0.4,0.4c0.5-0.1,1.1-0.3,1.6-0.4c-0.1,0-0.2-0.1-0.3-0.1c0.8,0.7,2,0.6,2.6-0.3c0.1-0.1,0-0.4-0.1-0.4
			c-0.2-0.1-0.3,0-0.4,0.1c-0.3,0.4-0.9,0.5-1.3,0.3c-0.1-0.1-0.2-0.2-0.3-0.2c-0.2-0.1-0.4,0-0.6,0.1c-0.4,0.1-0.8,0.2-1.2,0.3
			c0.1,0.1,0.3,0.3,0.4,0.4c0.4-0.9,0.7-1.7,1.1-2.6c0.1-0.3-0.3-0.5-0.5-0.4c-0.8,0.5-1.4,1.2-1.8,2.1c-0.1,0.2,0,0.3,0.1,0.4
			C109,119.6,109.2,119.5,109.3,119.4L109.3,119.4z"/>
	</g>
</g>
<g>
	<g>
		<path class="st13" d="M113.1,119.8c0.5,0.3,0.9,0.5,1.4,0.8c0.2,0.1,0.5,0,0.5-0.3c0-0.3,0.3-0.5,0.6-0.6c0.4-0.1,0.8,0.1,1.2,0.2
			c0.7,0.2,1.4,0.3,2-0.2c0.3-0.3-0.1-0.7-0.5-0.5c-0.3,0.2-0.7,0.2-1,0.1c-0.4-0.1-0.9-0.3-1.3-0.4c-0.7-0.1-1.6,0.4-1.6,1.2
			c0.2-0.1,0.3-0.2,0.5-0.3c-0.5-0.3-0.9-0.5-1.4-0.8C113.1,119,112.8,119.6,113.1,119.8L113.1,119.8z"/>
	</g>
</g>
<g>
	<g>
		<path class="st13" d="M16.3,119.7c-2.4-0.1-4.8-0.1-7.2,0.1c-0.4,0-0.4,0.7,0,0.6c2.4-0.2,4.8-0.2,7.2-0.1
			C16.7,120.4,16.7,119.7,16.3,119.7L16.3,119.7z"/>
	</g>
</g>
<g>
	<g>
		<path class="st13" d="M64.5,131.5c-0.1-1.1-0.5-2.2-1.1-3.1c-0.2,0.1-0.3,0.3-0.5,0.4c0.7,0.7,1.5,1.3,2.4,1.8
			c0.2,0.1,0.4,0,0.5-0.2c0.2-0.4,0.3-0.8,0.5-1.2c-0.2,0-0.4,0-0.6,0c0.1,0.4,0.5,0.7,0.9,0.8c0.2,0.1,1.1,0.2,1,0.6
			c-0.1,0.2,0.2,0.5,0.4,0.4c0.5-0.2,1-0.3,1.5-0.5c0.4-0.1,0.2-0.8-0.2-0.6c-0.5,0.2-1,0.3-1.5,0.5c0.1,0.1,0.3,0.3,0.4,0.4
			c0.2-0.5-0.2-0.9-0.7-1.1c-0.3-0.1-1.1-0.1-1.2-0.5c-0.1-0.3-0.5-0.3-0.6,0c-0.2,0.4-0.3,0.8-0.5,1.2c0.2-0.1,0.3-0.1,0.5-0.2
			c-0.8-0.5-1.6-1-2.3-1.7c-0.3-0.3-0.7,0.1-0.5,0.4c0.6,0.8,0.9,1.8,1.1,2.8C63.9,131.9,64.5,131.9,64.5,131.5L64.5,131.5z"/>
	</g>
</g>
<g>
	<g>
		<path class="st13" d="M72.5,131.4c3.9,0,7.7,0,11.6,0c0.4,0,0.4-0.6,0-0.6c-3.9,0-7.7,0-11.6,0C72.1,130.7,72.1,131.4,72.5,131.4
			L72.5,131.4z"/>
	</g>
</g>
<g>
	<g>
		<path class="st13" d="M9.4,31.2c-1.4,0.6-2.5,1.9-3,3.3c-0.1,0.3,0.1,0.7,0.5,0.8c0.4,0.1,0.7-0.1,0.8-0.5c0,0,0-0.1,0-0.1
			c0,0,0,0,0-0.1c0,0,0,0,0,0.1c0-0.1,0.1-0.2,0.1-0.2c0.1-0.1,0.2-0.3,0.2-0.4c0.1-0.1,0.2-0.3,0.3-0.4c0,0.1-0.1,0.1,0,0
			c0,0,0-0.1,0.1-0.1c0.1-0.1,0.1-0.1,0.2-0.2c0.1-0.1,0.2-0.2,0.4-0.3C8.9,33,9,33,9.1,32.9c0,0,0,0,0.1,0c-0.1,0.1-0.1,0.1,0,0
			c0,0,0.1,0,0.1-0.1c0.3-0.2,0.6-0.4,0.9-0.5c0.3-0.1,0.4-0.6,0.2-0.9C10.1,31.1,9.7,31.1,9.4,31.2L9.4,31.2z"/>
	</g>
</g>
<g>
	<g>
		<path class="st13" d="M10.1,31.9c-0.7,1.6-1,3.4-1.1,5.2c0,0.8,1.3,0.8,1.3,0c0-1.7,0.4-3.3,1-4.8c0.1-0.3-0.1-0.7-0.5-0.8
			C10.5,31.4,10.3,31.6,10.1,31.9L10.1,31.9z"/>
	</g>
</g>
<g>
	<g>
		<path class="st13" d="M11,32.3c0.1,1.2,0.5,2.3,1.1,3.3c0.2,0.3,0.6,0.4,0.9,0.2c0.3-0.2,0.4-0.6,0.2-0.9
			c-0.1-0.2-0.2-0.5-0.4-0.7c0,0-0.1-0.2,0,0c0-0.1-0.1-0.1-0.1-0.2c0-0.1-0.1-0.2-0.1-0.3c-0.1-0.2-0.1-0.5-0.2-0.7
			c0-0.1-0.1-0.2-0.1-0.4c0-0.1,0-0.1,0-0.2c0,0.2,0-0.1,0-0.1c0-0.2-0.1-0.3-0.2-0.5c-0.1-0.1-0.3-0.2-0.5-0.2
			C11.3,31.6,10.9,31.9,11,32.3L11,32.3z"/>
	</g>
</g>
<g>
	<g>
		<path class="st13" d="M120.1,33.8c-3.1,0.7-5.6,2.8-7.6,5.2c-1.9,2.3-3.9,5.1-3.3,8.2c0.1,0.4,0.7,0.2,0.6-0.2
			c-0.5-3,1.5-5.8,3.4-7.9c1.9-2.2,4.2-4.1,7-4.7C120.7,34.3,120.5,33.7,120.1,33.8L120.1,33.8z"/>
	</g>
</g>
<g>
	<g>
		<path class="st13" d="M109.4,47.7c4.4,4.9,11.9,5.7,17.5,2.4c0.4-0.2,0-0.8-0.3-0.6c-5.3,3.1-12.5,2.3-16.7-2.3
			C109.6,46.9,109.1,47.4,109.4,47.7L109.4,47.7z"/>
	</g>
</g>
<g>
	<g>
		<path class="st13" d="M117.7,34.8c-0.3-0.5,0.1-1,0.6-1.2c0.6-0.2,1.1,0.2,1.5,0.6c0.6,0.6,1,1.4,1.4,2.1c0.9,1.6,1.7,3.2,2.5,4.9
			c0.8,1.7,1.4,3.4,2,5.2c0.3,0.8,0.5,1.6,0.8,2.5c0.1,0.6,0.3,1.2,0,1.8c-0.2,0.4-1.1,0.7-1.2,0c-0.1-0.4-0.7-0.2-0.6,0.2
			c0.1,0.7,0.9,1,1.5,0.8c0.9-0.2,1.1-1.2,1-2c-0.2-1.5-0.8-3-1.3-4.3c-0.5-1.4-1-2.8-1.6-4.1c-0.6-1.4-1.3-2.8-2.1-4.2
			c-0.6-1.1-1.2-2.5-2.2-3.4c-0.7-0.6-1.6-0.9-2.3-0.3c-0.6,0.4-1,1.2-0.5,1.9C117.4,35.5,118,35.1,117.7,34.8L117.7,34.8z"/>
	</g>
</g>
<g>
	<g>
		<path class="st13" d="M130.2,38.5c1-0.8,2.3-1.2,3.6-1c0.2,0,0.5-0.1,0.4-0.4c-0.4-1.1-0.9-2.1-1.6-3c-0.1-0.2-0.3-0.2-0.5-0.1
			c-1,1-2,1.9-3,2.9c-0.3,0.3,0.2,0.8,0.5,0.5c1-1,2-1.9,3-2.9c-0.2,0-0.3,0-0.5-0.1c0.7,0.9,1.2,1.8,1.5,2.9
			c0.1-0.1,0.3-0.3,0.4-0.4c-1.5-0.2-3,0.2-4.2,1.1c-0.1,0.1-0.1,0.3,0,0.5C129.9,38.6,130.1,38.6,130.2,38.5L130.2,38.5z"/>
	</g>
</g>
<g>
	<g>
		<path class="st13" d="M126.1,51.6c2.5-0.4,4.3-2.4,5.1-4.8c1-2.9,0.2-6-1-8.7c-1.2-2.6-2.6-5.2-5.4-6.2c-2.3-0.8-4.9-0.4-6.8,1.1
			c-0.3,0.3,0.1,0.7,0.5,0.5c1.8-1.4,4.3-1.7,6.4-0.9c2.5,1,3.8,3.5,4.8,5.8c1.1,2.5,1.9,5.3,1.1,8c-0.7,2.2-2.4,4.2-4.7,4.6
			C125.5,51,125.7,51.6,126.1,51.6L126.1,51.6z"/>
	</g>
</g>
<g>
	<g>
		<path class="st13" d="M109.8,47.4c1.7-2.7,4.5-4.6,7.5-5.4c0.4-0.1,0.2-0.7-0.2-0.6c-3.3,0.8-6.1,2.8-7.9,5.7
			C109,47.4,109.6,47.7,109.8,47.4L109.8,47.4z"/>
	</g>
</g>
<path class="st19" d="M35.7,111.1c0,0-6.1,0.4-9.7,4c-0.1,0.3-0.2,0.6-0.3,0.9c0.1,0.5,0.2,0.9,0.5,1.4c0.7,0.6,2,1.4,4.2,2.4
	c0,0,2.3-2.2,5.9-2.2L35.7,111.1z"/>
<path class="st19" d="M93.1,110.6l0,11.1l5.3-1.4l3.9-1.5l2.2-1.9C104.4,116.9,106.4,113.3,93.1,110.6z"/>
<circle class="st20" cx="37.6" cy="83.2" r="1.4"/>
<circle class="st20" cx="90.1" cy="81.6" r="1.4"/>
<g>
	<g>
		<path class="st12" d="M42,128.5c0.1,0.1,0.1,0.1,0.2,0.2c0.1,0,0.2,0.1,0.2,0.1c0.2,0,0.3,0,0.5,0c0,0,0.1,0,0.1,0
			c0.1,0,0.2-0.1,0.2-0.1c0.1,0,0.1-0.1,0.2-0.2c0-0.1,0.1-0.1,0.1-0.2c0,0,0,0,0,0c-0.4,0-0.7,0-1.1,0c0,0,0,0,0,0.1
			c0-0.1,0-0.1-0.1-0.2c0,0,0,0.1,0,0.1c0-0.1,0-0.1,0-0.2c0,0,0,0.1,0,0.1c0-0.1,0-0.1,0-0.2c0,0,0,0.1,0,0.1c0-0.1,0-0.1,0.1-0.2
			c0,0,0,0.1-0.1,0.1c0,0.1-0.1,0.2-0.1,0.2c0,0.1,0,0.2,0,0.3c0,0.1,0.1,0.2,0.1,0.2c0,0.1,0.1,0.1,0.2,0.2c0.1,0,0.1,0,0.2,0.1
			c0.1,0,0.2,0,0.3,0c0.1,0,0.1,0,0.2-0.1c0.1-0.1,0.2-0.1,0.2-0.2c0,0,0,0,0-0.1c0-0.1,0.1-0.1,0.1-0.2c0,0,0,0,0-0.1
			c0-0.1,0-0.2,0-0.2c0,0,0-0.1,0-0.1c0-0.1,0-0.2,0-0.2c0,0,0,0,0-0.1c0-0.1-0.1-0.2-0.1-0.2c-0.1-0.2-0.3-0.3-0.6-0.3
			c-0.2,0-0.5,0.1-0.6,0.3c0,0,0,0,0,0.1c0,0,0.1-0.1,0.1-0.1c0,0,0,0.1-0.1,0.1c0,0,0.1-0.1,0.1-0.1c0,0-0.1,0-0.1,0.1
			c0.1,0,0.1,0,0.2-0.1c0,0-0.1,0-0.1,0c0.1,0,0.1,0,0.2,0c0,0-0.1,0-0.1,0c0.1,0,0.1,0,0.2,0c0,0-0.1,0-0.1,0c0.1,0,0.1,0,0.2,0.1
			c0,0-0.1,0-0.1,0c0,0,0.1,0.1,0.1,0.1c0,0,0,0,0,0c-0.1-0.1-0.1-0.1-0.2-0.1c-0.1,0-0.2-0.1-0.3-0.1c-0.1,0-0.2,0-0.3,0.1
			c-0.1,0-0.2,0.1-0.2,0.1c-0.1,0.1-0.2,0.3-0.2,0.5c0,0.1,0,0.1,0,0.2C41.8,128.4,41.9,128.5,42,128.5L42,128.5z"/>
	</g>
</g>
<path class="st2" d="M101,71.4l-5.6,34c0,0.2,0.1,0.5,0.4,0.5l0.2,0c0.2,0,0.5-0.1,0.5-0.4l5.6-34c0-0.2-0.1-0.5-0.4-0.5l-0.2,0
	C101.2,71,101,71.1,101,71.4z"/>
<g>
	<g>
		<path class="st7" d="M13.7,29.8C13.6,29.8,13.6,29.9,13.7,29.8c0,0-0.1,0.1-0.1,0.1c-0.1,0-0.1,0.1-0.2,0.1
			c-0.1,0-0.1,0.1-0.2,0.1c0,0-0.1,0-0.1,0.1c0.1,0,0,0,0,0c-0.2,0.1-0.3,0.1-0.5,0.1c-0.1,0-0.2,0-0.2,0c0.1,0,0,0,0,0
			c-0.1,0-0.1,0-0.2,0c-0.1,0-0.2,0-0.2,0c0,0-0.1,0-0.1,0c0,0-0.1,0-0.1,0c0.1,0-0.1,0-0.1,0c0,0-0.1,0-0.1,0c0,0-0.1,0-0.1,0
			c-0.1,0,0.1,0,0,0c0,0-0.1,0-0.1-0.1c-0.1,0,0.1,0.1,0,0c0,0-0.1,0-0.1-0.1c0,0-0.1-0.1,0,0c0,0.1,0,0,0,0c0,0,0-0.1,0,0
			c0,0.1,0,0,0-0.1c0-0.1,0,0.1,0,0c0-0.3-0.3-0.7-0.6-0.6c-0.3,0-0.7,0.3-0.6,0.6c0,0.6,0.3,1,0.8,1.4c0.4,0.3,0.9,0.4,1.4,0.4
			c1,0,1.9-0.4,2.7-1c0.3-0.2,0.2-0.7,0-0.9C14.3,29.6,14,29.6,13.7,29.8L13.7,29.8z"/>
	</g>
</g>
</svg>
