<?xml version="1.0" encoding="utf-8"?>
<!-- Generator: Adobe Illustrator 24.0.1, SVG Export Plug-In . SVG Version: 6.00 Build 0)  -->
<svg version="1.1" id="Layer_1" xmlns="http://www.w3.org/2000/svg" xmlns:xlink="http://www.w3.org/1999/xlink" x="0px" y="0px"
	 viewBox="0 0 141.7 141.7" style="enable-background:new 0 0 141.7 141.7;" xml:space="preserve">
<style type="text/css">
	.st0{fill:#E1ACCF;}
	.st1{fill:#8671B3;}
	.st2{fill:#6DB8E6;}
	.st3{opacity:0.2;fill:url(#SVGID_1_);}
	.st4{opacity:0.28;fill:url(#SVGID_2_);}
	.st5{opacity:0.2;fill:url(#SVGID_3_);}
	.st6{fill:#FFFFFF;}
	.st7{fill:#C9B09D;}
	.st8{fill:#6086C5;}
	.st9{fill:#DD5043;}
	.st10{fill:#18A05D;}
	.st11{fill:#FFC314;}
	.st12{fill:#070707;}
	.st13{fill:none;stroke:#070707;stroke-width:0.4484;stroke-miterlimit:10;}
</style>
<g id="Layer_12">
</g>
<g id="Layer_8">
</g>
<g id="Layer_15">
</g>
<g id="Layer_16">
</g>
<path class="st0" d="M86.5,55l-0.7-2.4l-0.4-1.4v-1.8l0.2-2.3l0.8-2l1.4-1.9l1.7-2l0.8-1.2l0.9-2.1l0.2-2.4V32l-0.4-2.2l0-2.7
	l0.3-2.3l0.4-1.3l-0.8-0.2l-1.3-1.2l-0.6-1.3l-0.1-1.4l0.3-1.3l0.9-1.4l1.1-0.8c0,0,2.5-1.2,5.6,1.2l2.8-1.1l3.9-1
	c0,0,5.4-1.2,12.8,1.8c0,0,3.7,2.1,4.8,3.4c0,0,2-2.5,4.7,0.3c0,0,2.2,2.6-1.8,5.1l0.6,2.6l0.1,2.5l0.2,3.3l0.1,3l0,3.1l-1.8-0.1
	c0,0-3.1-0.3-1.9,1.6l2,1.6l1.7,0.4l0.1,2.4v4.3l-1,3.8l-1.5,3.6l-1.6,3l0.4,0.9c0,0.1,0,0.3-0.1,0.5c-0.2,0.3-0.5,0.3-0.5,0.3
	c-0.2,0-0.4,0-0.6,0c-0.3,0-0.5-0.1-0.7-0.1c-0.7,0.8-1.7,1.7-2.7,2.6c-1.6,1.3-3.5,2.8-5.2,3.3c-0.5,0-1,0-1.7,0
	c-0.9,0.1-1.6,0.3-2.2,0.6c-1.6-0.5-3.6-1.1-5.9-1.9c-3.3-1.1-4-1.3-4.9-1.7c-1.3-0.6-3.3-1.4-5.6-3.2c-1.4-1.1-2.4-2.1-3.2-2.9
	c0.1-0.2,0.3-0.5,0.3-1c0.1-0.5,0-0.8-0.1-1c0-0.2-0.1-0.8-0.5-1.3C87.2,55.3,86.7,55.1,86.5,55z"/>
<path class="st1" d="M80.5,122.5c-0.8-1.6-1.9-4-2.4-7.1c-0.8-4.3-0.2-7.6,0.1-9.1c1.5-8.1,6.6-13.7,8.8-15.8c0.4,0.3,1.1,0.8,2.2,1
	c1.1,0.2,2,0.1,2.4,0c0.1-0.1,0.6-0.6,0.6-1.5c-0.1-1-1-1.4-1-1.4c-0.6-0.4-1.1-0.8-1.7-1.2c1.9-1.9,3.4-3.6,4.4-4.8
	c1.6-2,2.6-3.4,4.5-5.2c1.1-1,2.1-1.8,2.8-2.3c-0.2-0.5-0.4-1.3-0.4-2.3c0-0.8,0.2-1.5,0.4-2c0.2-0.3,0.6-0.9,1.4-1.3
	c1-0.5,2-0.4,2.3-0.3c0.3,0,1.2,0.1,1.9,0.8c0.6,0.5,0.8,1.1,0.9,1.3c0.1,0.4,0.1,0.7,0.2,1.1c1.6-0.1,3.7-0.1,6.2,0.5
	c3.8,0.9,6.6,2.7,8.1,3.9c1.3,0.8,2.8,2,4.4,3.6c1.8,1.9,3,3.8,3.7,5.2c0.3,0.7,0.6,1.5,0.9,2.2c0.6,0,1.6,0.1,2.6,0.4
	c1,0.3,1.7,0.8,2.2,1.1c0.3,0.3,0.8,0.8,1.2,1.7c0.4,1,0.4,1.9,0.3,2.3c-0.1,0.5-0.3,1.1-0.6,1.7c-0.5,0.9-1.1,1.5-1.6,1.9
	c-0.4,0.2-1,0.6-2,0.7c-1.1,0.2-2-0.1-2.4-0.2c-0.4,0.9-1,2-1.7,3c-1.2,1.8-2.5,3.2-3.6,4.2c-0.5,0.5-1.2,1.1-1.9,1.9
	c-0.4,0.5-1.1,1.2-1.7,2.2c-0.5,0.7-1.1,1.7-1.6,3.1c-0.2,0.7-0.4,1.5-0.5,2.4c-0.2,1.3-0.2,2.4-0.1,3.4c0.2,0,0.7-0.2,1.2,0.1
	c0.9,0.4,1.1,1.3,1.1,1.4c0,0.2,0,0.4,0,0.7c-0.1,0.4-0.4,0.7-0.5,0.8c-0.2,0.1-0.5,0.3-0.9,0.4c-0.5,0.1-0.9,0.1-1.1,0
	c-0.2,0.6-0.5,1.2-0.8,1.8c-0.4,0.8-0.9,1.6-1.3,2.2c-0.6,0.7-1.4,1.5-2.4,2.2c-1.3,1-2.5,1.7-3.6,2.2c-0.3-0.1-0.8-0.3-1.5-0.2
	c-1.6,0.1-2.5,1.5-2.6,1.7c-0.1,0.5-0.1,0.9-0.2,1.4c-3.2,1-5.8,1.1-7.4,1c-2.5-0.2-4.5-0.8-6-1.3c-1.8-0.6-3.3-1.2-4.3-1.7
	c-1.2-0.6-2.2-1.2-3-1.7c-1.9-1.2-1.2-1.1-2.8-2.1c-0.3-0.2-0.5-0.4-0.7-0.7c-0.2-0.3-0.2-0.5-0.3-0.7c-0.2-0.4-0.4-0.8-0.6-1.1
	c-0.1-0.3-0.4-0.7-0.9-1.1C80.9,122.7,80.7,122.6,80.5,122.5z"/>
<path class="st2" d="M41.6,58.6c3.6,5.6,7.2,11.2,10.7,16.8l-28,44l-2-3.2l-1.2-3l-1-3.3l-0.8-3l-0.6-2.3l-0.8-2.7l-1.2-3.2l-1.6-4
	l-1.6-3.9l-1.4-3.7l-1.2-4c-0.2-1-0.4-2.1-0.7-3.1c-0.1-0.7-0.2-1.3-0.3-2l-1.9,0.1L5.5,77l-1.1-1.9l-0.1-2.4l1.6-2.4L7.9,69l2-0.5
	l1.4,0.4l1.6-2.2l2.6-2.7l5.1-3l7.6-3.2c1.8-0.3,3.6-0.7,5.4-1c1.4,0.1,2.7,0.2,4.1,0.3C39,57.7,40.3,58.1,41.6,58.6z"/>
<linearGradient id="SVGID_1_" gradientUnits="userSpaceOnUse" x1="4.5099" y1="88.1819" x2="52.6179" y2="88.1819">
	<stop  offset="0.4144" style="stop-color:#2484C7;stop-opacity:0"/>
	<stop  offset="0.9977" style="stop-color:#242163"/>
</linearGradient>
<path class="st3" d="M41.9,58.6c3.6,5.6,7.2,11.2,10.7,16.8l-28,44l-2-3.2l-1.2-3l-1-3.3l-0.8-3l-0.6-2.3l-0.8-2.7L17,98.8l-1.6-4
	l-1.6-3.9l-1.4-3.7l-1.2-4c-0.2-1-0.4-2.1-0.7-3.1c-0.1-0.7-0.2-1.3-0.3-2l-1.9,0.1L5.8,77l-1.1-1.9l-0.1-2.4l1.6-2.4l2.1-1.3l2-0.5
	l1.4,0.4l1.6-2.2l2.6-2.7l5.1-3l7.6-3.2c1.8-0.3,3.6-0.7,5.4-1c1.4,0.1,2.7,0.2,4.1,0.3C39.3,57.7,40.6,58.2,41.9,58.6z"/>
<linearGradient id="SVGID_2_" gradientUnits="userSpaceOnUse" x1="77.7512" y1="101.162" x2="137.6932" y2="101.162">
	<stop  offset="0.479" style="stop-color:#8653A2;stop-opacity:0"/>
	<stop  offset="1" style="stop-color:#6C2A82"/>
</linearGradient>
<path class="st4" d="M80.5,122.5c-0.8-1.6-1.9-4-2.4-7.1c-0.8-4.3-0.2-7.6,0.1-9.1c1.5-8.1,6.6-13.7,8.8-15.8c0.4,0.3,1.1,0.8,2.2,1
	c1.1,0.2,2,0.1,2.4,0c0.1-0.1,0.6-0.6,0.6-1.5c-0.1-1-1-1.4-1-1.4c-0.6-0.4-1.1-0.8-1.7-1.2c1.9-1.9,3.4-3.6,4.4-4.8
	c1.6-2,2.6-3.4,4.5-5.2c1.1-1,2.1-1.8,2.8-2.3c-0.2-0.5-0.4-1.3-0.4-2.3c0-0.8,0.2-1.5,0.4-2c0.2-0.3,0.6-0.9,1.4-1.3
	c1-0.5,2-0.4,2.3-0.3c0.3,0,1.2,0.1,1.9,0.8c0.6,0.5,0.8,1.1,0.9,1.3c0.1,0.4,0.1,0.7,0.2,1.1c1.6-0.1,3.7-0.1,6.2,0.5
	c3.8,0.9,6.6,2.7,8.1,3.9c1.3,0.8,2.8,2,4.4,3.6c1.8,1.9,3,3.8,3.7,5.2c0.3,0.7,0.6,1.5,0.9,2.2c0.6,0,1.6,0.1,2.6,0.4
	c1,0.3,1.7,0.8,2.2,1.1c0.3,0.3,0.8,0.8,1.2,1.7c0.4,1,0.4,1.9,0.3,2.3c-0.1,0.5-0.3,1.1-0.6,1.7c-0.5,0.9-1.1,1.5-1.6,1.9
	c-0.4,0.2-1,0.6-2,0.7c-1.1,0.2-2-0.1-2.4-0.2c-0.4,0.9-1,2-1.7,3c-1.2,1.8-2.5,3.2-3.6,4.2c-0.5,0.5-1.2,1.1-1.9,1.9
	c-0.4,0.5-1.1,1.2-1.7,2.2c-0.5,0.7-1.1,1.7-1.6,3.1c-0.2,0.7-0.4,1.5-0.5,2.4c-0.2,1.3-0.2,2.4-0.1,3.4c0.2,0,0.7-0.2,1.2,0.1
	c0.9,0.4,1.1,1.3,1.1,1.4c0,0.2,0,0.4,0,0.7c-0.1,0.4-0.4,0.7-0.5,0.8c-0.2,0.1-0.5,0.3-0.9,0.4c-0.5,0.1-0.9,0.1-1.1,0
	c-0.2,0.6-0.5,1.2-0.8,1.8c-0.4,0.8-0.9,1.6-1.3,2.2c-0.6,0.7-1.4,1.5-2.4,2.2c-1.3,1-2.5,1.7-3.6,2.2c-0.3-0.1-0.8-0.3-1.5-0.2
	c-1.6,0.1-2.5,1.5-2.6,1.7c-0.1,0.5-0.1,0.9-0.2,1.4c-3.2,1-5.8,1.1-7.4,1c-2.5-0.2-4.5-0.8-6-1.3c-1.8-0.6-3.3-1.2-4.3-1.7
	c-1.2-0.6-2.2-1.2-3-1.7c-1.9-1.2-1.2-1.1-2.8-2.1c-0.3-0.2-0.5-0.4-0.7-0.7c-0.2-0.3-0.2-0.5-0.3-0.7c-0.2-0.4-0.4-0.8-0.6-1.1
	c-0.1-0.3-0.4-0.7-0.9-1.1C80.9,122.7,80.7,122.6,80.5,122.5z"/>
<linearGradient id="SVGID_3_" gradientUnits="userSpaceOnUse" x1="85.3257" y1="41.7054" x2="126.2949" y2="41.7054">
	<stop  offset="0.4008" style="stop-color:#A967AB;stop-opacity:0"/>
	<stop  offset="1" style="stop-color:#9F3192"/>
</linearGradient>
<path class="st5" d="M86.5,55l-0.7-2.4l-0.4-1.4v-1.8l0.2-2.3l0.8-2l1.4-1.9l1.7-2l0.8-1.2l0.9-2.1l0.2-2.4V32l-0.4-2.2l0-2.7
	l0.3-2.3l0.4-1.3l-0.8-0.2l-1.3-1.2l-0.6-1.3l-0.1-1.4l0.3-1.3l0.9-1.4l1.1-0.8c0,0,2.5-1.2,5.6,1.2l2.8-1.1l3.9-1
	c0,0,5.4-1.2,12.8,1.8c0,0,3.7,2.1,4.8,3.4c0,0,2-2.5,4.7,0.3c0,0,2.2,2.6-1.8,5.1l0.6,2.6l0.1,2.5l0.2,3.3l0.1,3l0,3.1l-1.8-0.1
	c0,0-3.1-0.3-1.9,1.6l2,1.6l1.7,0.4l0.1,2.4v4.3l-1,3.8l-1.5,3.6l-1.6,3l0.4,0.9c0,0.1,0,0.3-0.1,0.5c-0.2,0.3-0.5,0.3-0.5,0.3
	c-0.2,0-0.4,0-0.6,0c-0.3,0-0.5-0.1-0.7-0.1c-0.7,0.8-1.7,1.7-2.7,2.6c-1.6,1.3-3.5,2.8-5.2,3.3c-0.5,0-1,0-1.7,0
	c-0.9,0.1-1.6,0.3-2.2,0.6c-1.6-0.5-3.6-1.1-5.9-1.9c-3.3-1.1-4-1.3-4.9-1.7c-1.3-0.6-3.3-1.4-5.6-3.2c-1.4-1.1-2.4-2.1-3.2-2.9
	c0.1-0.2,0.3-0.5,0.3-1c0.1-0.5,0-0.8-0.1-1c0-0.2-0.1-0.8-0.5-1.3C87.2,55.3,86.7,55.1,86.5,55z"/>
<circle class="st6" cx="100.9" cy="25.5" r="5.1"/>
<circle class="st6" cx="113.9" cy="25.2" r="5.1"/>
<circle class="st6" cx="110.3" cy="82.4" r="6"/>
<circle class="st6" cx="121.7" cy="92.3" r="6"/>
<circle class="st6" cx="20.1" cy="71.8" r="6.4"/>
<circle class="st6" cx="35.3" cy="65.7" r="6.4"/>
<path class="st6" d="M29,79.7c0.1,0.4,0.2,0.8,0.3,1.2l0.4,1.3l0.7,0.8l0.8,0.2l0.8-0.2l0.4-0.6l0.1-1l0.6,0.5l0.7,0.2l0.9-0.4
	L35,81v-1l-0.3-1l-0.8-1.2h-1.2l-1,0.2c-0.2,0.1-0.5,0.1-0.7,0.2c-0.3,0.2-0.5,0.3-0.8,0.5C29.8,79,29.4,79.4,29,79.7z"/>
<path class="st6" d="M105.7,33.8l-0.2,0.8l-0.1,0.8l0.2,0.9c0,0,0.6,0.6,0.6,0.7c0,0.1,0.8,0,0.8,0l0.6-0.6l0.1-0.3l0.5,0.6l0.9,0.2
	l0.7-0.6l0.1-0.8l0-0.7l-0.2-0.9l-0.1-0.2l-0.8-0.1l-0.9-0.3l-0.6-0.1l-0.8,0.2l-0.6,0.2L105.7,33.8z"/>
<polygon class="st6" points="107.6,92.8 107.1,93.2 106.5,93.7 106,94.2 105.6,94.9 105.5,95.4 105.5,96 106,96.6 106.8,96.7 
	107.5,96.4 107.4,97 107.4,97.8 108,98.3 108.9,98.4 109.7,97.9 110.2,97.4 110.6,96.9 111,96.2 111.1,96 110.5,95.1 110.2,94.5 
	109.6,94 108.7,93.5 108.1,93.1 107.6,92.8 "/>
<path class="st7" d="M105.8,30.2l-0.7,0.3l-0.6,0.5l-0.6,0.4c0,0-0.3,0.4-0.3,0.5c0,0-0.2,0.5-0.2,0.5V33l0.1,0.3l0.4,0.4l0.7,0.1
	l1.2-0.1l1-0.3l0.7-0.1l1,0.1l1,0.2l1,0.1l0.5-0.2l0.6-0.4l0.4-0.7l-0.2-0.7l-0.4-0.5l-0.4-0.4l-0.6-0.4l-0.8-0.3l-0.5-0.2l-0.8,0.5
	l-1.4,0.1l-0.6-0.1L105.8,30.2z"/>
<path class="st7" d="M91.1,37.7c0,0-0.6,0.6-0.6,0.6s-0.6,0.4-0.6,0.4S89.3,39,89.3,39l-0.5,0.3c0,0-0.3,0.2-0.4,0.2
	c-0.1,0-0.3,0.4-0.3,0.4l-0.1,0.5l0.1,0.4l0.3,0.4l0.3,0.2h0.5l0.4-0.1l0.4-0.6c0,0,0.4-0.7,0.5-0.8c0-0.1,0.4-0.8,0.4-0.8l0.3-0.7
	L91.1,37.7z"/>
<path class="st7" d="M121,41.6c0,0-1.4-1.9,2.1-1.6l1.4,0.1l1.2,0.5l0.4,0.4l0.4,0.6v0.5l-0.3,0.6l-0.5,0.4l-0.8,0.3H124l-0.7-0.2
	l-0.9-0.4l-0.6-0.5l-0.5-0.6L121,41.6z"/>
<polygon class="st7" points="86.4,55.1 85.2,54.9 84.2,55 83.2,55.3 82.6,55.7 82.2,56.3 82.1,56.8 82.3,57.4 82.6,57.9 83.7,58.6 
	85.1,59 86.5,59.2 87.3,59.4 87.9,59 88.1,58.1 88.1,57 87.7,56.1 86.9,55.2 "/>
<polygon class="st7" points="107.6,68.8 108,69.1 108.3,69.8 108.3,70.6 108.3,71.3 108.6,71.8 109,72.2 110.1,72.4 111.3,72.4 
	112.3,72.5 112.7,72 112.8,71.7 113.1,71.3 113.1,70.9 112.7,70.6 112.3,70.4 111.8,70.4 111.9,69.7 111.9,69.3 111.7,68.7 
	111.4,68.5 111,68.2 110.4,68.1 109.6,68.2 108.8,68.4 "/>
<path class="st7" d="M88.6,87.2h-0.8l-0.6,0.2l-0.4,0.3l-0.3,0.5v0.8l0.2,0.7l1,1.3l1.5,0.7l1.6,0.1l1-0.1c0.1,0,0.7-0.4,0.8-1
	c0.1-0.8-0.5-1.4-0.6-1.5c0,0,0,0-0.6-0.4c-0.7-0.5-1-0.7-1.5-0.9c-0.1-0.1-0.3-0.1-0.3-0.2L88.6,87.2z"/>
<path class="st7" d="M110.5,89.8l-1.1-0.2c0,0-1.2-0.1-1.2-0.2c0,0-0.7,0.1-0.7,0.1l-0.6,0.2l-0.5,0.4l-0.2,0.6v0.6l0.4,0.6l0.7,0.8
	l1.4,0.8l1,0.5l0.6,0.6l0.5,0.9l0.6,0.9l1,0.7l0.9,0.1l0.7-0.6l0.4-0.5l0.1-0.8l0-0.6l-0.3-0.8l-0.3-0.7l-0.6-0.4l-1.5-0.7l-0.9-1.4
	L110.5,89.8z"/>
<path class="st7" d="M109.3,106.7c0,0,0.2-2.3,2.2-0.7l0.5,0.8c0,0,0.5,1.1,0.5,1.2c0,0.1,0.2,0.8,0.2,0.8l0.1,1l-0.2,0.7l-0.3,0.3
	h-0.5l-0.4-0.2l-0.4,0.1l-0.6-0.2l-0.5-0.6l-0.3-0.9l-0.2-1.2L109.3,106.7z"/>
<path class="st7" d="M80.3,122.5l-1.3,0.3l-1.4,0.5l-0.9,0.5l-0.6,0.5l-0.4,0.6c0,0,0,0.7-0.1,0.8c0,0.1,0.2,0.8,0.2,0.8
	c0.1,0.1,0.1,0.3,0.3,0.4c0.3,0.3,0.5,0.5,0.6,0.5c0.5,0.2,0.9,0.2,1.1,0.2c0.4-0.1,0.8-0.1,1.2-0.2l1.2-0.4l1.2-0.5l1-0.4l0.7-0.1
	l-0.6-1.2l-0.5-0.8l-0.5-0.9l-0.6-0.4L80.3,122.5z"/>
<polygon class="st7" points="107.1,132.2 107.2,131.3 107.6,130.5 108.2,129.9 109,129.4 109.9,129.1 110.7,129.1 111.6,129.4 
	112.3,129.8 113.2,130.6 113.7,131.2 114,131.9 114.2,132.6 114.1,133.3 113.9,133.8 113.2,134.3 112.6,134.5 111.9,134.5 
	111.1,134.5 110.4,134.2 109.7,133.9 108.9,133.4 108,132.9 107.2,132.4 "/>
<path class="st7" d="M27.7,75.2L26.9,76l-0.6,0.9l-0.5,0.7l-0.2,0.8c0,0,0,0.4,0,0.5c0,0.1,0.5,0.7,0.5,0.7l0.5,0.3h1.2l1-0.3l1-0.6
	l1-0.7l1-0.4l1-0.2h1.2l0.9-0.3l0.7-0.4l0.4-0.7v-0.6l-0.5-0.9l-0.6-0.6l-1.2-0.4l-0.9-0.2h-1.1l-0.9,0.9l-1.5,0.9l-1.3,0.1
	L27.7,75.2z"/>
<path class="st7" d="M16.4,98.2l-0.7,0.2l-0.7,0.4l-0.8,0.7l-0.5,0.6l-0.4,0.6l-0.3,0.5l-0.2,0.7l0.1,0.5c0,0,0.2,0.3,0.3,0.3
	c0,0,0.4,0.2,0.4,0.2l0.3,0l0.3,0.4l0.8,0.1l0.5-0.2l0.7-0.6l0.6-0.9l0.3-0.7l0.2-0.6L16.4,98.2z"/>
<polygon class="st7" points="24.2,119.3 22.1,122.6 21,122.9 20.1,122.9 19.4,122.8 18.9,122.6 18.6,121.8 18.6,120.9 18.8,119.9 
	19.4,119.3 20.7,118.6 21.7,117.9 22.8,117.3 "/>
<g>
	<polygon class="st8" points="17.9,21.3 73.9,109.3 84.6,91.6 40.5,21.3 	"/>
	<path class="st9" d="M39.6,21.3c15,23.4,30,46.9,45,70.3c2.8-5.7,5.6-11.3,8.5-17C81.8,57,70.4,39.3,59.1,21.7
		C52.6,21.6,46.1,21.4,39.6,21.3z"/>
	<polygon class="st10" points="52.3,75.4 63,92.1 38.8,130.8 16.9,130.8 	"/>
	<polygon class="st11" points="38.8,130.8 63,92.1 73.9,109.3 59.4,130.8 	"/>
</g>
<g>
	<g>
		<path class="st12" d="M24.6,119.3c-3.3-4.3-4.3-9.7-5.7-14.9c-1.6-5.7-4.3-11-6.3-16.5c-1.9-5.3-3.5-11.2-1.7-16.8
			c1.7-5.5,6.3-8.3,11.3-10.5c6.1-2.7,12.6-5.1,19-1.9c0.3,0.1,0.5-0.3,0.2-0.4c-5.2-2.6-11.1-1.7-16.3,0.6c-4.7,2-9.8,4-12.8,8.4
			C9.1,72,9.3,78,10.7,83.4c1.7,6.3,4.7,12.2,6.9,18.4c2.1,6,2.7,12.6,6.6,17.8C24.3,119.8,24.7,119.5,24.6,119.3L24.6,119.3z"/>
	</g>
</g>
<g>
	<g>
		<path class="st12" d="M9.7,77.6c-2.2,0.6-4.6-0.6-5.1-2.9c-0.4-2,0.9-4,2.6-5c1.1-0.6,2.8-1.2,3.9-0.4c0.4,0.3,0.8-0.4,0.4-0.6
			c-1.2-0.8-2.8-0.4-4,0.2c-1.1,0.5-2.1,1.3-2.7,2.3c-1.4,2.1-1.2,5,0.8,6.6c1.2,0.9,2.8,1.1,4.3,0.7C10.4,78.2,10.2,77.5,9.7,77.6
			L9.7,77.6z"/>
	</g>
</g>
<g>
	<g>
		<path class="st12" d="M27.4,75.7c0,0,0.1-0.1,0.2-0.1c-0.1-0.1-0.1-0.2-0.2-0.3c-0.1,0.1-0.4,0.3-0.6,0.4
			c-0.2,0.3-0.4,0.6-0.6,0.9c-0.4,0.6-0.7,1.2-0.7,1.9c-0.1,1.8,2.2,1.9,3.4,1.4c0.9-0.4,1.7-1.1,2.6-1.6c0.8-0.4,1.6-0.4,2.5-0.5
			c0.7,0,1.4-0.1,1.9-0.6c0.5-0.5,0.5-1.4,0.3-2c-0.7-1.5-3-1.7-4.4-1.7c-0.2,0-0.2,0.4,0,0.4c1.2,0,2.9,0.1,3.8,1.1
			c0.5,0.5,0.6,1.5,0.1,2c-0.4,0.5-1.2,0.5-1.8,0.5c-0.6,0-1.2,0-1.8,0.2c-0.8,0.3-1.5,0.8-2.2,1.3c-0.7,0.5-1.5,0.9-2.4,0.8
			c-0.7-0.1-1.3-0.4-1.3-1.1c0-0.7,0.4-1.4,0.7-2c0.2-0.3,0.4-0.6,0.6-0.8c0.2-0.1,0.4-0.2,0.5-0.4c0.1-0.1-0.1-0.3-0.2-0.3
			c-0.1,0-0.2,0.1-0.2,0.1C27,75.5,27.2,75.8,27.4,75.7L27.4,75.7z"/>
	</g>
</g>
<g>
	<g>
		<path class="st12" d="M33.6,77.9c0.4,0.4,0.7,0.9,0.9,1.5c0.2,0.5,0.4,1.1,0.2,1.6C34.6,81.5,34,82,33.5,82c-0.4,0-0.7-0.5-1-0.8
			c-0.2-0.2-0.4,0.1-0.3,0.3c0.4,0.4,0.7,0.9,1.3,0.9c0.6,0,1.2-0.4,1.5-1c0.3-0.6,0.1-1.3-0.1-1.9c-0.2-0.7-0.6-1.3-1-1.8
			C33.7,77.5,33.4,77.7,33.6,77.9L33.6,77.9z"/>
	</g>
</g>
<g>
	<g>
		<g>
			<path class="st12" d="M22,122.4c-0.8,0.5-2.1,0.6-2.8-0.1c-0.4-0.4-0.5-0.9-0.4-1.4c0.2-0.8,0.9-1.5,1.5-1.9
				c0.4-0.3,0.9-0.6,1.4-0.8c0.4-0.2,0.9-0.4,1.3-0.7c0.2-0.1,0-0.5-0.2-0.3c-0.4,0.3-0.9,0.4-1.3,0.7c-0.5,0.3-0.9,0.5-1.4,0.9
				c-0.7,0.5-1.4,1.2-1.6,2.1c-0.2,0.6-0.1,1.2,0.3,1.7c0.4,0.4,1,0.6,1.5,0.7c0.7,0.1,1.4-0.1,1.9-0.4
				C22.3,122.6,22.2,122.3,22,122.4L22,122.4z"/>
		</g>
	</g>
	<g>
		<g>
			<path class="st12" d="M19.6,122.5c-0.3-1.1,0.5-2,1.4-2.4c0.2-0.1,0-0.4-0.2-0.3c-1,0.5-2,1.6-1.6,2.8
				C19.3,122.8,19.6,122.7,19.6,122.5L19.6,122.5z"/>
		</g>
	</g>
</g>
<path class="st13" d="M41.4,63.6c-1.2-3.4-4.9-5.2-8.2-4c-3.4,1.2-5.2,4.9-4,8.2c1.2,3.4,4.9,5.2,8.2,4C40.8,70.7,42.6,67,41.4,63.6
	z"/>
<path class="st13" d="M26.2,69.6c-1.2-3.4-4.9-5.2-8.2-4c-3.4,1.2-5.2,4.9-4,8.2c1.2,3.4,4.9,5.2,8.2,4C25.6,76.7,27.4,73,26.2,69.6
	z"/>
<path class="st12" d="M10.2,73c-0.2-0.7-1-1.1-1.7-0.8c-0.7,0.2-1.1,1-0.8,1.7c0.2,0.7,1,1.1,1.7,0.8C10.1,74.5,10.4,73.7,10.2,73z"
	/>
<path class="st12" d="M32.3,73.1c-0.3-0.8-1.8-1.1-3.3-0.6c-1.5,0.5-2.5,1.6-2.2,2.5c0.3,0.8,1.8,1.1,3.3,0.6
	C31.6,75,32.6,73.9,32.3,73.1z"/>
<path class="st12" d="M37.8,63.7c-1.1,0.4-1.7,1.6-1.3,2.7c0.4,1.1,1.6,1.7,2.7,1.3c1.1-0.4,1.7-1.6,1.3-2.7
	C40.2,63.9,38.9,63.4,37.8,63.7z M39.8,66.7c-0.3,0.1-0.7-0.1-0.8-0.4c-0.1-0.3,0.1-0.7,0.4-0.8c0.3-0.1,0.7,0.1,0.8,0.4
	C40.3,66.3,40.1,66.6,39.8,66.7z"/>
<path class="st12" d="M23,69.7c-1.1,0.4-1.7,1.6-1.3,2.7c0.4,1.1,1.6,1.7,2.7,1.3c1.1-0.4,1.7-1.6,1.3-2.7
	C25.3,69.9,24.1,69.3,23,69.7z M24.9,72.7c-0.3,0.1-0.7-0.1-0.8-0.4c-0.1-0.3,0.1-0.7,0.4-0.8c0.3-0.1,0.7,0.1,0.8,0.4
	C25.4,72.3,25.2,72.6,24.9,72.7z"/>
<g>
	<g>
		<path class="st12" d="M31.1,78.3c0.2,0.3,0.3,0.7,0.4,1.1c0.1,0.4,0.3,0.8,0.4,1.2c0.2,0.6,0.4,1.5-0.1,2
			c-0.4,0.4-1.1,0.5-1.5,0.1c-0.4-0.3-0.7-0.9-0.9-1.4c-0.2-0.6-0.3-1.1-0.3-1.7c0-0.2-0.4-0.2-0.4,0c0,0.6,0.1,1.2,0.3,1.8
			c0.2,0.6,0.5,1.2,1,1.6c0.5,0.4,1.3,0.4,1.8,0c0.6-0.4,0.7-1.2,0.6-1.9c-0.1-0.6-0.3-1.2-0.5-1.7c-0.2-0.5-0.3-0.9-0.5-1.3
			C31.3,77.9,31,78,31.1,78.3L31.1,78.3z"/>
	</g>
</g>
<g>
	<g>
		<path class="st12" d="M16.4,98c-1.2,0.2-2.2,1-3,2c-0.5,0.6-1.1,1.6-0.8,2.4c0.1,0.5,0.6,0.7,1.1,0.8c0.2,0,0.2-0.3,0-0.4
			c-0.5-0.1-0.8-0.3-0.7-0.8c0-0.4,0.2-0.8,0.4-1.2c0.6-1.1,1.7-2.2,3-2.3C16.6,98.4,16.6,98,16.4,98L16.4,98z"/>
	</g>
</g>
<g>
	<g>
		<path class="st12" d="M14.3,101.6c-0.3,0.3-0.6,0.7-0.6,1.2c0,0.4,0.2,0.8,0.7,0.9c0.5,0.1,1,0,1.4-0.3c0.4-0.3,0.8-0.8,1-1.2
			c0.3-0.5,0.5-1,0.7-1.5c0.1-0.2-0.3-0.3-0.4-0.1c-0.1,0.4-0.3,0.7-0.5,1.1c-0.2,0.4-0.5,0.8-0.8,1.2c-0.3,0.3-0.6,0.5-1,0.5
			c-0.3,0-0.7,0-0.7-0.4c0-0.4,0.3-0.8,0.5-1C14.7,101.7,14.5,101.4,14.3,101.6L14.3,101.6z"/>
	</g>
</g>
<g>
	<g>
		<path class="st12" d="M24.2,59.4c0.4-2-0.2-4.3-2.3-5.2c-1.7-0.7-3.8,0.3-3.9,2.3c0,0.6,0.2,1.4,1,1.3c0.7-0.1,0.9-0.9,0.7-1.6
			c-0.6-1.9-3.5-2-5.2-1.9c-2.6,0.2-5,1.2-6.8,3c-0.2,0.2,0.1,0.4,0.3,0.3c1.3-1.3,3-2.2,4.8-2.6c1.7-0.4,3.9-0.5,5.5,0.3
			c0.4,0.2,0.8,0.5,1,0.9c0.3,0.5,0.2,0.7-0.3,0.7c-0.3,0.3-0.5,0.3-0.5,0c-0.1-0.2,0-0.5,0-0.7c0.3-1,1.2-1.7,2.2-1.8
			c2.6-0.1,3.5,2.8,3.1,4.9C23.8,59.6,24.2,59.7,24.2,59.4L24.2,59.4z"/>
	</g>
</g>
<g>
	<g>
		<path class="st12" d="M25.8,58.8c-0.6-2.2-1.6-4.3-2.8-6.3c-0.1-0.2-0.5,0-0.3,0.2c1.3,1.9,2.2,4,2.8,6.2
			C25.5,59.1,25.9,59,25.8,58.8L25.8,58.8z"/>
	</g>
</g>
<g>
	<g>
		<path class="st12" d="M86.6,55c-1.1-3.2-1.9-6.9,0-10c1.4-2.2,3.5-3.8,4.4-6.4c1-2.8,0.3-5.7,0.2-8.6c-0.2-2.9,0.1-5.8,1.5-8.4
			c3-5.4,9.8-7.2,15.6-6.7c4.6,0.4,9.5,1.8,12.7,5.4c2.1,2.3,3.1,5.2,3.4,8.3c0.2,1.9,0,3.8,0.1,5.8c0,1.9,0.3,3.8,0.2,5.7
			c0,0.2,0.4,0.2,0.4,0c0.1-1.9-0.2-3.8-0.2-5.7c0-1.9,0.1-3.8-0.1-5.8c-0.2-2.6-1-5.1-2.5-7.3c-2.7-3.9-7.3-5.8-11.9-6.5
			c-5.5-0.8-11.5-0.1-15.7,3.8c-2.1,1.9-3.3,4.4-3.7,7.2c-0.5,3.2,0.3,6.3,0.2,9.5c0,2-0.6,3.8-1.7,5.4c-1,1.4-2.3,2.5-3.2,4
			c-1.9,3.2-1.1,7,0,10.3C86.4,55.3,86.7,55.2,86.6,55L86.6,55z"/>
	</g>
</g>
<g>
	<g>
		<path class="st12" d="M87.8,59.6c2.5,2.5,5.5,4.4,8.8,5.8c3.5,1.5,7.2,2.2,10.8,3.6c0.2,0.1,0.3-0.3,0.1-0.4
			c-3.5-1.3-7.2-2-10.7-3.6c-3.2-1.4-6.2-3.3-8.7-5.8C87.9,59.1,87.7,59.4,87.8,59.6L87.8,59.6z"/>
	</g>
</g>
<g>
	<g>
		<path class="st12" d="M124.6,43.5c-0.2,2.6,0.3,5.3-0.2,7.9c-0.5,2.4-1.5,4.8-2.7,6.9c-2.4,4.2-6,7.8-10.5,9.7
			c-0.2,0.1-0.1,0.5,0.1,0.4c4.5-1.9,8.1-5.3,10.5-9.5c1.3-2.1,2.3-4.5,2.8-6.9c0.6-2.8,0.2-5.6,0.3-8.4
			C125,43.3,124.7,43.3,124.6,43.5L124.6,43.5z"/>
	</g>
</g>
<g>
	<g>
		<path class="st12" d="M109.7,30c-0.1,0-0.2,0-0.2,0c-0.1,0.1-0.2,0.3,0,0.3c0.1,0.1,0.3,0.1,0.4,0.1c0.2,0,0.3,0.1,0.5,0.2
			c0.5,0.3,0.9,0.6,1.3,1.1c0.3,0.4,0.4,0.9-0.1,1.3c-0.6,0.5-1.3,0.6-2.1,0.4c-0.6-0.1-1.2-0.3-1.9-0.3c-0.5,0-1,0.1-1.5,0.3
			c-0.5,0.2-1,0.5-1.6,0.4c-0.6-0.1-1-0.8-0.8-1.4c0.2-1.1,1.6-1.7,2.5-2.1c0.2-0.1,0-0.4-0.2-0.3c-1,0.4-2.2,1.1-2.6,2.2
			c-0.2,0.6-0.1,1.2,0.3,1.6c0.4,0.4,1,0.5,1.5,0.3c0.6-0.2,1.2-0.5,1.8-0.6c0.8-0.1,1.6,0.2,2.3,0.3c0.7,0.1,1.5,0.1,2.1-0.3
			c0.5-0.3,0.8-0.7,0.7-1.3c-0.1-0.6-0.6-1.1-1.1-1.5c-0.3-0.2-0.6-0.4-0.9-0.6C110,30.1,109.8,30.1,109.7,30
			c-0.1,0.1-0.1,0.2-0.1,0.4c0,0,0.1,0,0.1,0C110,30.4,110,30,109.7,30L109.7,30z"/>
	</g>
</g>
<g>
	<g>
		<path class="st12" d="M105.5,33.8c-0.3,0.8-0.3,1.8,0,2.6c0.1,0.4,0.5,0.7,0.9,0.8c0.3,0.1,0.8,0.1,1.1-0.1
			c0.3-0.2,0.4-0.6,0.5-0.9c0.1-0.2-0.2-0.4-0.3-0.2c-0.1,0.3-0.2,0.7-0.5,0.8c-0.3,0.2-0.9,0.1-1.1-0.2c-0.3-0.3-0.4-0.8-0.4-1.3
			c0-0.5,0-1,0.2-1.4C106,33.6,105.6,33.5,105.5,33.8L105.5,33.8z"/>
	</g>
</g>
<path class="st13" d="M95.7,25.8c-0.2-2.8,2-5.3,4.8-5.4c2.8-0.2,5.3,2,5.5,4.8c0.2,2.8-2,5.3-4.8,5.4
	C98.3,30.8,95.9,28.6,95.7,25.8z"/>
<path class="st13" d="M108.7,25.5c-0.2-2.8,2-5.3,4.8-5.4c2.8-0.2,5.3,2,5.5,4.8c0.2,2.8-2,5.3-4.8,5.4
	C111.3,30.5,108.9,28.4,108.7,25.5z"/>
<path class="st12" d="M105.3,30c0-0.7,1-1.3,2.2-1.4c1.3-0.1,2.3,0.4,2.4,1.1c0,0.7-1,1.3-2.2,1.4C106.4,31.2,105.3,30.7,105.3,30z"
	/>
<path class="st12" d="M98.6,25.3c0.9-0.1,1.7,0.6,1.8,1.6c0.1,0.9-0.6,1.7-1.6,1.8c-0.9,0.1-1.7-0.6-1.8-1.6
	C97,26.1,97.7,25.4,98.6,25.3z M98.1,28.1c0.3,0,0.5-0.2,0.4-0.5c0-0.3-0.2-0.5-0.5-0.4c-0.3,0-0.5,0.2-0.4,0.5
	C97.6,27.9,97.9,28.1,98.1,28.1z"/>
<path class="st12" d="M111.6,24.8c0.9-0.1,1.7,0.6,1.8,1.6c0.1,0.9-0.6,1.7-1.6,1.8c-0.9,0.1-1.7-0.6-1.8-1.6
	C109.9,25.7,110.7,24.9,111.6,24.8z M111.1,27.6c0.3,0,0.5-0.2,0.4-0.5c0-0.3-0.2-0.5-0.5-0.4c-0.3,0-0.5,0.2-0.4,0.5
	C110.6,27.4,110.8,27.6,111.1,27.6z"/>
<g>
	<g>
		<path class="st12" d="M107.4,33.3c-0.1,0.5-0.1,1,0,1.5c0,0.6,0.1,1.2,0.4,1.7c0.2,0.4,0.6,0.8,1.1,0.7c0.7-0.1,1.1-0.6,1.3-1.2
			c0.2-0.7,0-1.6-0.2-2.3c-0.1-0.2-0.4-0.1-0.4,0.1c0.3,0.9,0.7,2.7-0.6,3c-1,0.2-1.2-1.3-1.2-1.9c0-0.3,0-0.6,0-0.8
			c0-0.2,0-0.5,0-0.6C107.8,33.1,107.5,33,107.4,33.3L107.4,33.3z"/>
	</g>
</g>
<g>
	<g>
		<path class="st12" d="M96.8,16.8c-1.8-1.3-4.3-2.3-6.3-0.8c-1.6,1.2-2.4,3.5-1.6,5.4c0.4,1.1,1.3,1.9,2.4,2.4
			c0.2,0.1,0.3-0.3,0.1-0.4c-1.2-0.5-2.1-1.5-2.4-2.7c-0.2-1.1,0.1-2.4,0.7-3.4c0.7-1.1,1.9-1.7,3.2-1.6c1.3,0.1,2.6,0.7,3.6,1.5
			C96.8,17.3,97,17,96.8,16.8L96.8,16.8z"/>
	</g>
</g>
<g>
	<g>
		<path class="st12" d="M112,68.9c-0.5-0.8-1.2-1.1-2.1-0.9c-0.9,0.1-1.7,0.5-2.6,0.6c-0.2,0-0.2,0.4,0,0.4c0.6,0,0.7,1,0.7,1.4
			c0,0.5-0.1,1.3,0.2,1.7c0.3,0.3,0.8,0.4,1.2,0.5c0.6,0.1,1.2,0,1.8,0c0.5,0,1.1,0.2,1.6-0.1c0.3-0.2,0.4-0.6,0.2-0.9
			c-0.3-0.4-0.9-0.5-1.4-0.6c-0.6-0.1-1.2,0-1.8,0.1c-0.2,0-0.1,0.4,0.1,0.4c0.5-0.1,0.9-0.2,1.4-0.1c0.4,0,1,0.1,1.3,0.4
			c0.2,0.3,0,0.5-0.3,0.5c-0.3,0-0.5,0-0.8,0c-0.5,0-1,0-1.5,0c-0.5,0-1.1,0-1.5-0.3c-0.3-0.2-0.2-0.6-0.2-0.8c0-0.5,0-1-0.1-1.4
			c-0.1-0.5-0.4-1-1-1.1c0,0.1,0,0.2,0,0.4c1.4,0,3.4-1.4,4.3,0.2C111.8,69.3,112.1,69.1,112,68.9L112,68.9z"/>
	</g>
</g>
<g>
	<g>
		<path class="st12" d="M83.3,58.7c0.6,0.3,1.3,0.4,2,0.5c0.4,0,0.8,0.1,1.1,0.2c0.3,0.1,0.5,0.2,0.8,0.2c1.2,0.2,1.1-2.3,0.9-3
			c-0.4-1.3-1.6-1.9-2.8-2c-1,0-2.1,0.2-2.8,0.9c-0.4,0.4-0.7,1-0.5,1.6C82.2,57.8,82.7,58.3,83.3,58.7c0.2,0.1,0.4-0.2,0.2-0.3
			c-0.9-0.5-1.6-1.6-0.8-2.5c0.6-0.6,1.5-0.8,2.3-0.8c1,0,2.2,0.3,2.6,1.3c0.3,0.5,0.3,1.1,0.2,1.7c0,0.3,0,0.6-0.1,0.8
			c-0.1,0.3-0.3,0.4-0.6,0.3c-1.2-0.4-2.6-0.3-3.7-0.8C83.3,58.2,83.1,58.6,83.3,58.7z"/>
	</g>
</g>
<g>
	<g>
		<path class="st12" d="M85.1,56.4c-1-0.2-2.1-0.1-3,0.4c-0.2,0.1,0,0.5,0.2,0.3c0.8-0.5,1.8-0.6,2.7-0.4
			C85.3,56.8,85.4,56.4,85.1,56.4L85.1,56.4z"/>
	</g>
</g>
<g>
	<g>
		<path class="st12" d="M121.1,41.8c0.1,0,0.2,0.1,0.2,0.2c0.1,0.1,0.2,0.2,0.3,0.4c0.2,0.3,0.5,0.4,0.7,0.6
			c0.7,0.5,1.6,0.7,2.5,0.6c0.8-0.1,1.6-0.6,1.9-1.3c0.3-0.8-0.3-1.4-0.9-1.8c-0.8-0.5-1.8-0.6-2.7-0.6c-0.2,0-0.2,0.4,0,0.4
			c0.7,0,1.5,0.1,2.1,0.4c0.6,0.3,1.4,0.8,1.2,1.6c-0.3,0.7-1.1,1.1-1.8,1.1c-0.8,0-1.6-0.3-2.2-0.8c-0.2-0.2-0.4-0.4-0.6-0.6
			c-0.1-0.2-0.3-0.4-0.5-0.5C120.9,41.4,120.8,41.7,121.1,41.8L121.1,41.8z"/>
	</g>
</g>
<g>
	<g>
		<path class="st12" d="M124.3,42c0.4,0.2,0.8,0.4,1.3,0.4c0.5,0,0.8-0.3,1-0.8c0.1-0.2-0.3-0.3-0.4-0.1c-0.1,0.2-0.1,0.3-0.3,0.4
			c-0.1,0.1-0.3,0.1-0.4,0.1c-0.4,0-0.7-0.1-1-0.3C124.3,41.6,124.1,41.9,124.3,42L124.3,42z"/>
	</g>
</g>
<path class="st12" d="M91.7,18.5c0.2-0.7,0.9-1.1,1.5-0.9c0.7,0.2,1.1,0.8,0.9,1.5c-0.2,0.7-0.9,1.1-1.5,0.9
	C91.9,19.8,91.5,19.1,91.7,18.5z"/>
<g>
	<g>
		<path class="st12" d="M124,25.7c1.3-0.8,2.7-2,2.5-3.7c-0.1-1.5-1.5-2.9-3-3.2c-0.9-0.1-1.8,0.1-2.5,0.7c-0.2,0.2,0.1,0.4,0.3,0.3
			c1.5-1.4,3.8-0.4,4.6,1.2c0.9,1.8-0.6,3.4-2.1,4.3C123.6,25.5,123.8,25.8,124,25.7L124,25.7z"/>
	</g>
</g>
<path class="st12" d="M124.4,21.6c0.4,0.3,0.5,0.9,0.2,1.3c-0.3,0.4-0.9,0.5-1.3,0.2c-0.4-0.3-0.5-0.9-0.2-1.3
	C123.4,21.4,124,21.3,124.4,21.6z"/>
<g>
	<g>
		<path class="st12" d="M90.7,37.7c-0.2,0.4-0.7,0.7-1.1,0.9c-0.4,0.2-0.9,0.4-1.2,0.7c-0.3,0.3-0.6,0.7-0.7,1.1
			c0,0.4,0.2,0.7,0.5,1c0.3,0.2,0.8,0.3,1.1-0.1c0.2-0.2-0.1-0.4-0.3-0.3c-0.3,0.3-0.7,0-0.9-0.2c-0.3-0.4,0-0.9,0.3-1.2
			c0.8-0.7,1.9-0.8,2.5-1.7C91.2,37.7,90.8,37.5,90.7,37.7L90.7,37.7z"/>
	</g>
</g>
<g>
	<g>
		<path class="st12" d="M88.3,40.9c0.3-0.3,0.5-0.6,0.8-0.8c0.1-0.1,0.1-0.2,0-0.3c-0.1-0.1-0.2-0.1-0.3,0c-0.3,0.3-0.5,0.6-0.8,0.8
			c-0.1,0.1-0.1,0.2,0,0.3C88.1,41,88.2,41,88.3,40.9L88.3,40.9z"/>
	</g>
</g>
<g>
	<g>
		<path class="st12" d="M108.2,13.7c-0.4-0.2-0.6-0.7-0.6-1.1c0.1-0.6,0.5-1,1.1-1.1c1.3-0.3,2.3,0.8,2.8,1.8
			c0.1-0.1,0.1-0.2,0.2-0.3c-1,0-2-0.2-2.9-0.8c-0.7-0.5-2.1-1.5-1.3-2.4c0.6-0.8,1.8-1.1,2.7-1.3c1.1-0.3,2.3-0.4,3.4-0.3
			c0.2,0,0.2-0.4,0-0.4c-1-0.1-2.1,0-3.1,0.2c-0.9,0.2-1.9,0.4-2.7,1c-0.6,0.4-1.1,1-0.9,1.8c0.3,0.8,1.1,1.4,1.9,1.8
			c0.9,0.5,1.9,0.7,2.9,0.7c0.1,0,0.2-0.2,0.2-0.3c-0.7-1.3-2-2.5-3.6-1.9c-0.6,0.2-1,0.7-1,1.4c0,0.6,0.2,1.2,0.8,1.4
			C108.3,14.1,108.5,13.8,108.2,13.7L108.2,13.7z"/>
	</g>
</g>
<g>
	<g>
		<path class="st12" d="M106.3,14.4c0.1-2.1-1.6-4.1-3.8-4.5c-0.2,0-0.3,0.3-0.1,0.4c2,0.3,3.5,2.1,3.5,4.1
			C105.9,14.7,106.3,14.7,106.3,14.4L106.3,14.4z"/>
	</g>
</g>
<g>
	<g>
		<path class="st12" d="M112.9,71.9c0.3-0.2,0.4-0.6,0.3-1c-0.1-0.4-0.4-0.7-0.8-0.8c-0.2-0.1-0.5-0.1-0.7-0.1
			c-0.1,0-0.2,0.1-0.2,0.2c0,0.1,0.1,0.2,0.2,0.2c0.2,0,0.4,0,0.6,0.1c0.1,0,0.2,0.1,0.3,0.1c0,0,0.1,0,0.1,0.1c0,0,0,0,0.1,0
			c0,0,0,0.1,0,0c0.1,0.1,0.1,0.3,0.1,0.4c0,0,0,0.1,0,0.2c0,0.1-0.1,0.1-0.1,0.1C112.5,71.7,112.7,72.1,112.9,71.9L112.9,71.9z"/>
	</g>
</g>
<g>
	<g>
		<path class="st12" d="M120.5,60.7c0,0.3,0.2,0.5,0.3,0.7c0.1,0.2,0.2,0.4,0.1,0.5c-0.3,0.5-1,0.3-1.4,0.2
			c-0.2-0.1-0.3,0.3-0.1,0.4c0.5,0.1,1.1,0.2,1.5-0.1c0.2-0.1,0.3-0.3,0.4-0.5c0.1-0.2,0-0.4-0.1-0.6c-0.1-0.2-0.3-0.4-0.3-0.6
			c0-0.1-0.1-0.2-0.2-0.2C120.6,60.5,120.5,60.6,120.5,60.7L120.5,60.7z"/>
	</g>
</g>
<g>
	<g>
		<path class="st12" d="M111.6,129.5c3-1.3,5.7-3.6,7.3-6.5c1.8-3.2,0.6-6.8,1.4-10.3c0.9-4.1,4.4-6.5,7.1-9.4
			c2.1-2.3,3.9-5.1,4.5-8.2c1.3-6.4-2.4-12.8-7.2-16.8c-4.8-3.9-11.1-6.9-17.4-5.9c-3.8,0.6-7.1,2.7-9.7,5.5
			c-1.5,1.6-2.7,3.3-4.2,4.9c-1.4,1.5-2.9,2.9-4.1,4.5c-0.1,0.2,0.2,0.4,0.3,0.2c1.1-1.5,2.5-2.7,3.7-4.1c1.2-1.3,2.2-2.6,3.4-4
			c2.3-2.7,5-5,8.5-6.1c6.3-2,12.9,0.6,18,4.4c5.3,3.9,9.7,10.3,8.4,17.2c-0.6,3.1-2.4,5.9-4.5,8.2c-2.2,2.4-5,4.5-6.5,7.6
			c-1.5,3.3-0.5,6.7-1.3,10.1c-0.9,3.9-4.5,6.9-8,8.5C111.2,129.2,111.4,129.6,111.6,129.5L111.6,129.5z"/>
	</g>
</g>
<g>
	<g>
		<path class="st12" d="M83.1,126.2c6.6,5.5,15.2,9,23.8,6.3c0.2-0.1,0.1-0.4-0.1-0.4c-8.5,2.6-16.9-0.8-23.5-6.2
			C83.2,125.8,82.9,126,83.1,126.2L83.1,126.2z"/>
	</g>
</g>
<g>
	<g>
		<path class="st12" d="M86.8,90.3c-8.6,7.8-12.2,21.6-6.6,32.1c0.1,0.2,0.4,0,0.3-0.2c-5.5-10.3-2-24,6.5-31.6
			C87.3,90.4,87,90.2,86.8,90.3L86.8,90.3z"/>
	</g>
</g>
<g>
	<g>
		<path class="st12" d="M110.1,90c0,0,0.1,0.1,0.1,0.1c0-0.1,0-0.2,0-0.3c0.1-0.1,0.1,0,0-0.1c-0.1,0-0.1-0.1-0.2-0.1
			c-0.1-0.1-0.2-0.1-0.3-0.1c-0.3-0.1-0.6-0.1-1-0.1c-0.6,0-1.3,0-1.9,0.2c-1.4,0.6-0.8,2.5,0.2,3.3c0.7,0.5,1.5,0.9,2.2,1.3
			c0.7,0.4,1.1,1,1.5,1.7c0.3,0.5,0.6,1.2,1.2,1.5c0.6,0.3,1.4,0.2,1.9-0.3c1.3-1.1,0.4-3.3-0.2-4.6c-0.1-0.2-0.4,0-0.3,0.2
			c0.5,1,1.3,2.8,0.5,3.9c-0.4,0.5-1.2,0.8-1.8,0.4c-0.5-0.4-0.7-1-1-1.5c-0.3-0.5-0.7-1-1.2-1.4c-0.6-0.4-1.3-0.7-1.9-1.1
			c-0.7-0.4-1.2-0.9-1.4-1.7c-0.1-0.6,0-1.1,0.6-1.3c0.6-0.3,1.3-0.2,1.9-0.2c0.3,0,0.6,0.1,0.8,0.2c0.2,0.1,0.4,0.3,0.6,0.2
			c0.1-0.1,0.1-0.2,0-0.3c-0.1-0.1-0.1-0.1-0.2-0.1C110.1,89.5,109.9,89.8,110.1,90L110.1,90z"/>
	</g>
</g>
<g>
	<g>
		<path class="st12" d="M110.9,96c-0.2,0.5-0.5,0.9-0.8,1.3c-0.3,0.3-0.7,0.8-1.2,0.9c-0.5,0.1-1-0.1-1.3-0.5
			c-0.2-0.4,0-0.8,0.2-1.2c0.1-0.2-0.3-0.3-0.4-0.1c-0.1,0.4-0.3,0.8-0.2,1.2c0.1,0.4,0.5,0.8,0.9,0.9c0.4,0.2,0.9,0.2,1.3-0.1
			c0.4-0.2,0.8-0.6,1.1-0.9c0.4-0.4,0.6-0.9,0.8-1.4C111.3,95.8,111,95.7,110.9,96L110.9,96z"/>
	</g>
</g>
<path class="st13" d="M125.8,96.4c2.3-2.4,2.2-6.1-0.2-8.4c-2.4-2.3-6.1-2.2-8.4,0.2c-2.3,2.4-2.2,6.1,0.2,8.4
	C119.8,98.8,123.5,98.7,125.8,96.4z"/>
<path class="st13" d="M114.6,86.5c2.3-2.4,2.2-6.1-0.2-8.4c-2.4-2.3-6.1-2.2-8.4,0.2c-2.3,2.4-2.2,6.1,0.2,8.4
	C108.5,88.9,112.3,88.8,114.6,86.5z"/>
<path class="st12" d="M114.3,92.9c0.6-0.6,0.2-1.9-0.9-2.9c-1.1-1-2.4-1.4-2.9-0.8c-0.6,0.6-0.2,1.9,0.9,2.9
	C112.4,93.1,113.7,93.5,114.3,92.9z"/>
<path class="st12" d="M119.1,91.2c1,0.3,2.1-0.2,2.5-1.2c0.3-1-0.2-2.1-1.2-2.5c-1-0.3-2.1,0.2-2.5,1.2
	C117.5,89.8,118.1,90.9,119.1,91.2z M119.4,88c0.3,0.1,0.4,0.4,0.3,0.7c-0.1,0.3-0.4,0.4-0.7,0.3c-0.3-0.1-0.4-0.4-0.3-0.7
	C118.8,88,119.1,87.9,119.4,88z"/>
<path class="st12" d="M108.7,80.8c1,0.3,2.1-0.4,2.4-1.4c0.3-1-0.4-2.1-1.4-2.4c-1-0.3-2.1,0.4-2.4,1.4
	C107,79.5,107.7,80.6,108.7,80.8z M108.7,77.5c0.3,0.1,0.5,0.4,0.4,0.7c-0.1,0.3-0.4,0.5-0.7,0.4c-0.3-0.1-0.5-0.4-0.4-0.7
	C108.1,77.7,108.4,77.5,108.7,77.5z"/>
<g>
	<g>
		<path class="st12" d="M109.5,94.1c-0.2,0.3-0.4,0.5-0.7,0.7c-0.3,0.3-0.5,0.5-0.7,0.8c-0.4,0.4-1,0.9-1.6,0.9
			c-0.5,0-0.9-0.6-0.9-1.1c0-0.5,0.4-1,0.7-1.3c0.4-0.4,0.8-0.8,1.3-1.1c0.2-0.1,0-0.4-0.2-0.3c-0.5,0.3-1,0.7-1.4,1.1
			c-0.4,0.4-0.8,1-0.9,1.6c-0.1,0.6,0.3,1.3,0.9,1.5c0.6,0.2,1.3-0.2,1.8-0.6c0.4-0.3,0.7-0.7,1-1c0.3-0.3,0.6-0.6,0.8-1
			C110,94.1,109.7,93.9,109.5,94.1L109.5,94.1z"/>
	</g>
</g>
<g>
	<g>
		<path class="st12" d="M131.5,88c2.7,0.2,5.8,1.4,5.9,4.5c0,1.4-0.5,2.9-1.5,3.9c-1.2,1.2-3.1,1.6-4.6,0.9
			c-0.2-0.1-0.4,0.2-0.2,0.3c2.5,1.2,5.2-0.4,6.2-2.8c0.5-1.1,0.6-2.5,0.2-3.7c-0.4-1.1-1.2-2-2.2-2.6c-1.2-0.6-2.5-0.9-3.9-1
			C131.3,87.6,131.3,88,131.5,88L131.5,88z"/>
	</g>
</g>
<g>
	<g>
		<path class="st12" d="M79.7,122.8c2.1-0.5,2.5,2.3,3.6,3.5c0-0.1,0.1-0.2,0.1-0.3c-1.1-0.1-2.1,0.3-3.1,0.7
			c-0.9,0.4-2,0.9-3.1,0.8c-0.9-0.2-1.7-1.2-1.5-2.2c0.2-0.8,1.1-1.3,1.8-1.7c0.9-0.4,1.8-0.7,2.8-0.9c0.2,0,0.1-0.4-0.1-0.4
			c-0.9,0.2-1.9,0.5-2.7,0.9c-0.8,0.4-1.7,0.9-2.1,1.8c-0.4,0.9,0.2,2,1,2.6c0.9,0.6,2.1,0.3,3-0.1c1.2-0.5,2.6-1.3,3.9-1.1
			c0.2,0,0.2-0.2,0.1-0.3c-1.2-1.3-1.5-4.2-3.9-3.6C79.3,122.5,79.4,122.8,79.7,122.8L79.7,122.8z"/>
	</g>
</g>
<g>
	<g>
		<path class="st12" d="M76.3,126.8c-0.1-1.2,1.1-1.8,2.1-2.1c0.2,0,0.1-0.4-0.1-0.4c-1.2,0.2-2.4,1.1-2.3,2.4
			C75.9,127,76.3,127,76.3,126.8L76.3,126.8z"/>
	</g>
</g>
<g>
	<g>
		<path class="st12" d="M111.6,134.3c-1.3-0.2-2.3-1.1-3.5-1.6c-0.2-0.1-0.4-0.1-0.6-0.2c-0.3-0.1-0.4-0.4-0.3-0.7
			c0.2-0.6,0.6-1.2,1.1-1.7c1-1.1,2.5-1,3.7-0.3c0.9,0.6,1.9,1.6,2,2.7C114.2,133.9,112.7,134.5,111.6,134.3c-0.2,0-0.3,0.3-0.1,0.4
			c1.1,0.2,2.5-0.2,2.9-1.4c0.4-1.3-0.7-2.6-1.7-3.4c-1.1-0.9-2.8-1.3-4.1-0.5c-0.6,0.4-1,1-1.4,1.6c-0.3,0.4-0.7,1.3-0.2,1.7
			c0.2,0.2,0.5,0.2,0.8,0.3c0.4,0.1,0.9,0.4,1.3,0.6c0.8,0.4,1.6,0.9,2.5,1.1C111.7,134.7,111.8,134.3,111.6,134.3z"/>
	</g>
</g>
<g>
	<g>
		<path class="st12" d="M111.2,131.7c0.5,0.2,1,0.6,1.4,0.9c0.4,0.4,0.7,0.8,0.9,1.3c0.1,0.2,0.4,0.1,0.4-0.1
			c-0.4-1.1-1.4-2-2.4-2.4C111.2,131.3,111,131.6,111.2,131.7L111.2,131.7z"/>
	</g>
</g>
<g>
	<g>
		<path class="st12" d="M91.7,91.3c-0.2-0.1-0.5,0-0.8,0c-0.3,0.1-0.6,0.1-1,0.1c-0.9-0.1-1.9-0.4-2.6-1c-0.6-0.5-1-1.4-0.8-2.1
			c0.1-0.9,1-1,1.7-0.9c1.1,0.1,1.9,0.8,2.8,1.4c0.2,0.1,0.4-0.2,0.2-0.3c-0.8-0.6-1.7-1.2-2.7-1.4c-0.8-0.1-1.8-0.1-2.2,0.7
			c-0.4,0.7-0.2,1.6,0.2,2.3c0.5,0.8,1.3,1.3,2.2,1.6c0.5,0.2,1.1,0.3,1.7,0.2c0.2,0,0.4-0.1,0.6-0.1c0.1,0,0.4-0.1,0.5,0
			C91.8,91.8,91.9,91.4,91.7,91.3L91.7,91.3z"/>
	</g>
</g>
<g>
	<g>
		<path class="st12" d="M88.6,88.8c-0.4-0.1-0.9-0.2-1.2-0.5c-0.1-0.1-0.2-0.3-0.3-0.4c-0.1-0.2,0-0.4,0.1-0.6c0-0.1,0-0.2-0.1-0.2
			c-0.1,0-0.2,0-0.2,0.1c-0.2,0.5-0.1,1,0.3,1.4c0.4,0.4,0.9,0.6,1.4,0.6c0.1,0,0.2,0,0.2-0.1C88.8,89,88.7,88.8,88.6,88.8
			L88.6,88.8z"/>
	</g>
</g>
<path class="st12" d="M134.8,92.9c0.3-0.7,0-1.6-0.7-1.9c-0.7-0.3-1.6,0-1.9,0.7c-0.3,0.7,0,1.6,0.7,1.9
	C133.6,93.9,134.5,93.6,134.8,92.9z"/>
<g>
	<g>
		<g>
			<path class="st12" d="M111.3,106.2c0.7,0.9,1.2,2.1,1.2,3.2c0,0.3,0,0.7-0.2,1c-0.2,0.4-0.5,0.4-0.9,0.2
				c-0.2-0.1-0.4,0.2-0.2,0.3c0.4,0.2,0.9,0.3,1.2-0.1c0.3-0.3,0.4-0.8,0.4-1.2c0.1-1.3-0.5-2.7-1.3-3.7
				C111.5,105.7,111.2,106,111.3,106.2L111.3,106.2z"/>
		</g>
	</g>
	<g>
		<g>
			<path class="st12" d="M111.1,109.4c0.1,0.3,0.3,0.8,0.1,1.1c-0.2,0.3-0.7-0.1-0.9-0.2c-0.3-0.3-0.4-0.6-0.5-1
				c-0.1-0.4-0.2-0.8-0.2-1.3c0-0.4,0-0.8,0-1.2c0-0.2-0.3-0.3-0.4-0.1c-0.1,0.9,0,1.9,0.3,2.8c0.1,0.4,0.4,0.8,0.7,1.1
				c0.3,0.3,0.9,0.5,1.2,0.2c0.3-0.4,0.2-1,0-1.5C111.4,109.1,111,109.2,111.1,109.4L111.1,109.4z"/>
		</g>
	</g>
</g>
<g>
	<g>
		<path class="st12" d="M119.6,121.1c0.8,0.1,1.8,0,2.4-0.7c0.6-0.8,0.4-2-0.4-2.6c-0.5-0.4-1-0.5-1.6-0.4c-0.2,0-0.1,0.4,0.1,0.4
			c0.8-0.1,1.7,0.4,1.9,1.3c0.2,0.8-0.3,1.4-1,1.7c-0.4,0.1-0.8,0.2-1.2,0.1C119.5,120.7,119.3,121.1,119.6,121.1L119.6,121.1z"/>
	</g>
</g>
<g>
	<g>
		<path class="st12" d="M101.4,75.1c-0.5-1.5-0.8-3.5,0.4-4.7c1.2-1.2,3.2-1.3,4.6-0.4c0.8,0.5,1.3,1.5,1.3,2.4c0,0.2,0.4,0.2,0.4,0
			c-0.1-0.9-0.4-1.8-1.1-2.4c-0.7-0.6-1.6-0.9-2.5-1c-0.9,0-1.9,0.2-2.7,0.8c-0.7,0.5-1.2,1.4-1.3,2.3c-0.2,1.1,0.1,2.2,0.4,3.2
			C101.1,75.4,101.5,75.3,101.4,75.1L101.4,75.1z"/>
	</g>
</g>
<path class="st12" d="M103.7,71.3c-0.6,0-1.1,0.4-1.1,1c0,0.6,0.4,1.1,1,1.1c0.6,0,1.1-0.4,1.1-1C104.8,71.9,104.3,71.4,103.7,71.3z
	"/>
<g>
	<g>
		<path class="st12" d="M122.9,76.2c2.1-2.1,2.2-5.9,0.1-8c-0.2-0.2-0.4,0.1-0.3,0.3c2,2,1.9,5.5-0.1,7.5
			C122.5,76.1,122.7,76.4,122.9,76.2L122.9,76.2z"/>
	</g>
</g>
<g>
	<g>
		<path class="st12" d="M123.9,77.9c1.1-1,2.2-1.9,3.3-2.9c0.2-0.2-0.1-0.4-0.3-0.3c-1.1,1-2.2,1.9-3.3,2.9
			C123.5,77.7,123.7,78,123.9,77.9L123.9,77.9z"/>
	</g>
</g>
<g>
	<g>
		<path class="st12" d="M127.6,74.4c-0.4-0.6-0.7-1.4-0.7-2.1c-0.1,0.1-0.2,0.1-0.2,0.2c1.8,0.3,3.3,1.5,4,3.3
			c0.1,0,0.2-0.1,0.3-0.1c-0.5-0.7-0.9-1.4-1.2-2.2c-0.3-0.7-0.6-1.6-0.6-2.4c0-1.3,1.6-0.2,2,0.2c0.6,0.5,1.1,1.2,1.4,2
			c0.1-0.1,0.2-0.1,0.3-0.2c-1.4-1.7-1.8-4-1.2-6c0.1-0.2-0.3-0.3-0.4-0.1c-0.7,2.2-0.2,4.6,1.3,6.4c0.1,0.1,0.4,0,0.3-0.2
			c-0.4-0.9-1-1.7-1.7-2.3c-0.5-0.4-1.5-1.1-2.1-0.5c-0.6,0.6-0.1,1.9,0.1,2.5c0.3,1.1,0.8,2.1,1.5,2.9c0.1,0.2,0.4,0.1,0.3-0.1
			c-0.6-1.8-2.3-3.2-4.2-3.5c-0.1,0-0.2,0-0.2,0.2c0,0.8,0.3,1.6,0.7,2.3C127.4,74.8,127.7,74.6,127.6,74.4L127.6,74.4z"/>
	</g>
</g>
<g>
	<g>
		<path class="st12" d="M111.7,69c0,0.3,0,0.6-0.1,0.9c-0.1,0.3-0.1,0.6-0.2,0.9c-0.1,0.2,0.3,0.3,0.4,0.1c0.1-0.6,0.3-1.2,0.3-1.9
			C112.1,68.8,111.7,68.8,111.7,69L111.7,69z"/>
	</g>
</g>
</svg>
