<?xml version="1.0" encoding="utf-8"?>
<!-- Generator: Adobe Illustrator 24.0.1, SVG Export Plug-In . SVG Version: 6.00 Build 0)  -->
<svg version="1.1" id="Layer_1" xmlns="http://www.w3.org/2000/svg" xmlns:xlink="http://www.w3.org/1999/xlink" x="0px" y="0px"
	 viewBox="0 0 141.7 141.7" style="enable-background:new 0 0 141.7 141.7;" xml:space="preserve">
<style type="text/css">
	.st0{fill:#6DB8E6;}
	.st1{fill:#E1ACCF;}
	.st2{fill:#8671B3;}
	.st3{opacity:0.2;fill:url(#SVGID_1_);}
	.st4{opacity:0.2;fill:url(#SVGID_2_);}
	.st5{opacity:0.26;fill:url(#SVGID_3_);}
	.st6{fill:#FFFFFF;}
	.st7{fill:#C9B09D;}
	.st8{fill:#6086C5;}
	.st9{fill:#DD5043;}
	.st10{fill:#18A05D;}
	.st11{fill:#FFC314;}
	.st12{fill:#070707;}
	.st13{fill:none;stroke:#070707;stroke-width:0.4384;stroke-miterlimit:10;}
	.st14{fill:none;stroke:#070707;stroke-width:0.2923;stroke-miterlimit:10;}
</style>
<g id="Layer_12">
</g>
<g id="Layer_8">
</g>
<g id="Layer_15">
</g>
<g id="Layer_16">
</g>
<path class="st0" d="M38.5,34.6l-0.6-0.3l-0.6-0.5l-0.2-0.4c0,0,0.1-0.2,0.1-0.3c0,0,0.3-0.2,0.3-0.2l0.4,0l0.2,0l-0.4-1.6l-0.2-1.5
	l-0.1-1l0-0.7l0.2-2.3l0.3-1.5l0.2-1l1.2-3.7l0.8-1.7l0.3-0.6l2.1-3.5l1.2-1.6l0.8-0.9l-0.8-0.5L43,9.8l-0.4-0.9l0-1L43,7.2l0.4-0.6
	l0.8-0.5L45,5.8l0.9-0.1l1,0.1l1,0.3l1,0.5l0.8,0.6l0.2,0.6V8l1.1-0.4l1-0.3L52.7,7l0.8-0.1l1-0.2l-0.2-0.5l0.2-0.6l0.3-0.4l0.6-0.3
	l0.7-0.2L57,4.6l0.7,0.1l1.3,0.2L60,5.5l0.7,0.9l0.2,0.6v0.6l-0.1,0.4l2.8,1.5l2.7,1.7l1.8,1.8l1,1.8l0.6,1.2l0.5,1.6l0.3,1.3v1.2
	l0.1,1.1l-2-0.1l-1.7,0.9l-0.6,0.2l-0.8,0.4l-0.5,0.4L64.5,23l-0.1,0.6c0,0-0.4,1.2,1.1,1.6l0.5,0.2l0.8,0.1l-0.3,0.5l-0.1,0.8
	l0.1,1.2l0.4,0.8l0.8,0.3l0.5-0.2l0.5-0.5l0.3,0.1l-0.4,0.6L67.8,30l-0.9,0.8c0,0-1.3,1-1.3,1s-1.2,1-1.2,1l-0.7,0.6l-3.8,3.8
	l-2.5,2.9l-1.9,2.5l-0.5,0.4l-0.4,0.4l-0.8,0.3l-1,0.2h-1.8l-1.7-0.3l-1.7-0.5l-2.2-0.9L43.3,41l-1-0.8l-1.8-1.9l-1-1.4l-0.7-1.4
	L38.5,34.6z"/>
<path class="st1" d="M41.1,75.1c3,4.8,6.1,9.5,9.1,14.3l-23.7,37.3l-1.7-2.7l-1.1-2.5l-0.9-2.8l-0.7-2.5l-0.5-1.9l-0.7-2.3l-1-2.7
	l-1.4-3.4l-1.4-3.3l-1.2-3.1L15,95.9c-0.2-0.9-0.4-1.7-0.6-2.6c-0.1-0.6-0.2-1.1-0.3-1.7l-1.6,0.1l-2-0.9l-0.9-1.6l-0.1-2l1.4-2
	l1.7-1.1l1.7-0.4l1.2,0.3l1.3-1.9l2.2-2.3l4.3-2.6l6.4-2.7c1.5-0.3,3.1-0.6,4.6-0.9c1.2,0.1,2.3,0.2,3.5,0.3
	C38.9,74.4,40,74.7,41.1,75.1z"/>
<path class="st2" d="M89.9,101.5l-0.6,0.5l-0.8,0.8l-0.8,0.9l-1.1,1.5l-0.8,1.3l-0.5,0.9l-0.8,1.8l-0.7,1.7l-0.7,2.4l-0.5,2.3
	l-0.2,1.1l-0.1,3.8l0.3,2.1l0.5,2.4l0.6,1.9l0.9,1.9l1,0.7l0.4,0.6l0.5,0.9l0.5,0.7l0.2,0.5l1.4,1.2l2.3,1.5l2.9,1.3l2.3,0.8
	l2.5,0.7l2.9,0.4h1.8l1.7-0.2l1.6-0.4l0.4-0.2l-0.2-0.8l0.2-1.2l0.2-0.8l0.9-0.7l1.1-0.3l1,0l1,0.2l0.7,0.5l0.1,0.1l0.8-0.7l1.2-1
	l1-1l0.9-1.1l0.7-1l0.7-1.3l0.3-0.5l0.8-0.1l0.6-0.1l0.5-0.5l0.2-0.8l-0.1-0.8l-0.4-0.4l-0.7-0.3h-0.6l-0.1,0c0,0,0.1-2.4,0.1-2.4
	s0.1-1.2,0.1-1.2l0.3-1.2l0.6-1.6l0.9-1.2l0.9-1.1l0.8-0.8l0.6-0.6l1.8-1.8l1.3-1.4l0.9-1.3l0.5-0.8l0.5-0.8l0.4-1l0.5,0.2l1.1,0.1
	l1.1-0.1l0.8-0.5l0.8-0.5l0.9-1.3l0.2-1.2v-1.1l-0.2-1l-0.4-0.6l-0.4-0.5l-0.8-0.6l-0.8-0.4l-1-0.4l-0.7-0.1l-0.7-0.1h-0.4l-0.9-2.3
	l-1.3-2l-1.7-2.1l-2.2-2l-2.9-2l-2.5-1.3c0,0-4.7-2-8.1-1.5l-0.3-1.2l-0.6-0.8l-1.1-0.6l-1-0.3l-1.3,0.2l-0.8,0.6l-0.6,0.7l-0.3,1v1
	l0.1,1l0.1,0.6l-2,1.6l-1.4,1.5l-2.1,2.5l-4.4,4.9l1.3,1l0.2,0.1l0.3,2.3l-1.4,0.2l-1.3-0.3l-0.8-0.5L89.9,101.5z"/>
<linearGradient id="SVGID_1_" gradientUnits="userSpaceOnUse" x1="37.0263" y1="24.0348" x2="70.57" y2="24.0348">
	<stop  offset="0.5362" style="stop-color:#2782C5;stop-opacity:3.167334e-02"/>
	<stop  offset="1" style="stop-color:#2B378A"/>
</linearGradient>
<path class="st3" d="M38.5,34.4l-0.6-0.3l-0.6-0.5L37,33.2c0,0,0.1-0.2,0.1-0.3c0,0,0.3-0.2,0.3-0.2l0.4,0l0.2,0l-0.4-1.6l-0.2-1.5
	l-0.1-1l0-0.7l0.2-2.3l0.3-1.5l0.2-1l1.2-3.7l0.8-1.7l0.3-0.6l2.1-3.5l1.2-1.6l0.8-0.9l-0.8-0.5L43,9.6l-0.4-0.9l0-1l0.4-0.7
	l0.4-0.6l0.8-0.5L45,5.6l0.9-0.1l1,0.1l1,0.3l1,0.5L49.6,7l0.2,0.6v0.2l1.1-0.4l1-0.3l0.8-0.2l0.8-0.1l1-0.2l-0.2-0.5l0.2-0.6
	l0.3-0.4l0.6-0.3l0.7-0.2l0.7-0.2l0.7,0.1l1.3,0.2L60,5.3l0.7,0.9l0.2,0.6v0.6l-0.1,0.4l2.8,1.5l2.7,1.7l1.8,1.8l1,1.8l0.6,1.2
	l0.5,1.6l0.3,1.3v1.2l0.1,1.1l-2-0.1l-1.7,0.9l-0.6,0.2l-0.8,0.4l-0.5,0.4l-0.4,0.4l-0.1,0.6c0,0-0.4,1.2,1.1,1.6l0.5,0.2l0.8,0.1
	L66.4,26l-0.1,0.8l0.1,1.2l0.4,0.8l0.8,0.3l0.5-0.2l0.5-0.5l0.3,0.1l-0.4,0.6l-0.7,0.8l-0.9,0.8c0,0-1.3,1-1.3,1s-1.2,1-1.2,1
	l-0.7,0.6L59.8,37L57.3,40l-1.9,2.5l-0.5,0.4l-0.4,0.4l-0.8,0.3l-1,0.2h-1.8l-1.7-0.3l-1.7-0.5L45.2,42l-1.9-1.2l-1-0.8l-1.8-1.9
	l-1-1.4l-0.7-1.4L38.5,34.4z"/>
<linearGradient id="SVGID_2_" gradientUnits="userSpaceOnUse" x1="9.4395" y1="100.1785" x2="50.1841" y2="100.1785">
	<stop  offset="0.4754" style="stop-color:#F288B7;stop-opacity:0"/>
	<stop  offset="1" style="stop-color:#993E97"/>
</linearGradient>
<path class="st4" d="M41.1,75.1c3,4.8,6.1,9.5,9.1,14.3l-23.7,37.3l-1.7-2.7l-1.1-2.5l-0.9-2.8l-0.7-2.5l-0.5-1.9l-0.7-2.3l-1-2.7
	l-1.4-3.4l-1.4-3.3l-1.2-3.1L15,95.9c-0.2-0.9-0.4-1.7-0.6-2.6c-0.1-0.6-0.2-1.1-0.3-1.7l-1.6,0.1l-2-0.9l-0.9-1.6l-0.1-2l1.4-2
	l1.7-1.1l1.7-0.4l1.2,0.3l1.3-1.9l2.2-2.3l4.3-2.6l6.4-2.7c1.5-0.3,3.1-0.6,4.6-0.9c1.2,0.1,2.3,0.2,3.5,0.3
	C38.9,74.4,40,74.7,41.1,75.1z"/>
<linearGradient id="SVGID_3_" gradientUnits="userSpaceOnUse" x1="82.1599" y1="110.6723" x2="132.6676" y2="110.6723">
	<stop  offset="0.5083" style="stop-color:#824D9E;stop-opacity:0"/>
	<stop  offset="1" style="stop-color:#592D8D;stop-opacity:0.9611"/>
</linearGradient>
<path class="st5" d="M89.8,101.4l-0.6,0.5l-0.8,0.8l-0.8,0.9l-1.1,1.5l-0.8,1.3l-0.5,0.9l-0.8,1.8l-0.7,1.7l-0.7,2.4l-0.5,2.3
	l-0.2,1.1l-0.1,3.8l0.3,2.1l0.5,2.4l0.6,1.9l0.9,1.9l1,0.7l0.4,0.6l0.5,0.9l0.5,0.7l0.2,0.5l1.4,1.2l2.3,1.5l2.9,1.3l2.3,0.8
	l2.5,0.7l2.9,0.4h1.8l1.7-0.2l1.6-0.4l0.4-0.2l-0.2-0.8l0.2-1.2l0.2-0.8l0.9-0.7l1.1-0.3l1,0l1,0.2l0.7,0.5l0.1,0.1l0.8-0.7l1.2-1
	l1-1l0.9-1.1l0.7-1l0.7-1.3l0.3-0.5l0.8-0.1l0.6-0.1l0.5-0.5l0.2-0.8l-0.1-0.8l-0.4-0.4l-0.7-0.3h-0.6l-0.1,0c0,0,0.1-2.4,0.1-2.4
	s0.1-1.2,0.1-1.2l0.3-1.2l0.6-1.6l0.9-1.2l0.9-1.1l0.8-0.8l0.6-0.6l1.8-1.8l1.3-1.4l0.9-1.3l0.5-0.8l0.5-0.8l0.4-1l0.5,0.2l1.1,0.1
	l1.1-0.1l0.8-0.5l0.8-0.5l0.9-1.3l0.2-1.2V103l-0.2-1l-0.4-0.6l-0.4-0.5l-0.8-0.6l-0.8-0.4l-1-0.4l-0.7-0.1l-0.7-0.1h-0.4l-0.9-2.3
	l-1.3-2l-1.7-2.1l-2.2-2l-2.9-2l-2.5-1.3c0,0-4.7-2-8.1-1.5l-0.3-1.2l-0.6-0.8l-1.1-0.6l-1-0.3l-1.3,0.2l-0.8,0.6L102,85l-0.3,1v1
	l0.1,1l0.1,0.6l-2,1.6l-1.4,1.5L96.5,94L92,99l1.3,1l0.2,0.1l0.3,2.3l-1.4,0.2l-1.3-0.3l-0.8-0.5L89.8,101.4z"/>
<circle class="st6" cx="22.9" cy="86.2" r="5.4"/>
<circle class="st6" cx="35.8" cy="81.1" r="5.4"/>
<path class="st6" d="M30.4,92.9c0.1,0.3,0.1,0.7,0.2,1L31,95l0.6,0.6l0.6,0.1l0.7-0.1l0.3-0.5l0-0.8l0.5,0.5l0.6,0.2l0.8-0.3
	l0.4-0.7v-0.9l-0.2-0.9l-0.7-1h-1l-0.8,0.2c-0.2,0.1-0.4,0.1-0.6,0.2c-0.2,0.1-0.4,0.3-0.6,0.4C31.2,92.4,30.8,92.7,30.4,92.9z"/>
<path class="st7" d="M29.3,89.2l-0.6,0.7l-0.5,0.7l-0.4,0.6l-0.2,0.7c0,0,0,0.4,0,0.4c0,0.1,0.4,0.6,0.4,0.6l0.4,0.3h1l0.8-0.2
	l0.9-0.5l0.8-0.6l0.8-0.4l0.8-0.2h1l0.8-0.3l0.6-0.3l0.3-0.6v-0.5l-0.4-0.7l-0.5-0.5l-1-0.3l-0.8-0.2h-1l-0.7,0.8l-1.3,0.7l-1.1,0.1
	L29.3,89.2z"/>
<path class="st7" d="M19.8,108.6l-0.6,0.2l-0.6,0.3l-0.7,0.6l-0.5,0.5l-0.3,0.5l-0.2,0.5l-0.1,0.6l0.1,0.5c0,0,0.2,0.2,0.2,0.3
	s0.3,0.1,0.3,0.1l0.3,0l0.3,0.4l0.7,0.1l0.4-0.2l0.6-0.5l0.5-0.7l0.3-0.6l0.2-0.5L19.8,108.6z"/>
<polygon class="st7" points="26.4,126.5 24.6,129.2 23.7,129.6 22.9,129.6 22.4,129.4 21.9,129.2 21.6,128.6 21.6,127.8 21.8,127 
	22.3,126.5 23.4,125.9 24.2,125.3 25.2,124.8 "/>
<circle class="st6" cx="109.7" cy="94.9" r="5"/>
<circle class="st6" cx="119.2" cy="103.2" r="5"/>
<path class="st6" d="M107.4,103.7l-0.6,0.5l-0.5,0.4l-0.4,0.5l-0.3,0.7v0.4l0.3,0.6l0.7,0.2l0.9-0.3l-0.2,0.8l0.3,0.7l0.8,0.3
	l0.6-0.2l0.6-0.5l0.6-0.7l0.3-0.6l-0.2-0.7l-0.6-0.8c-0.2-0.2-0.4-0.3-0.7-0.5c-0.3-0.1-0.5-0.3-0.8-0.4L107.4,103.7z"/>
<path class="st6" d="M66.7,25.5l-0.2,0.4l-0.1,0.5l-0.1,0.9c0,0.3,0.1,0.5,0.1,0.8c0.1,0.2,0.2,0.4,0.3,0.6L67,29l0.6,0.2l0.5-0.1
	l0.5-0.5l0.4,0.1l0.3-0.1l0.3-0.3c0.1-0.2,0.1-0.3,0.2-0.5c0-0.2,0-0.5,0.1-0.7l0.1-0.9l0.1-1l-0.7,0l-0.6,0l-0.5,0.2h-0.6
	L66.7,25.5z"/>
<ellipse class="st6" cx="58.8" cy="19.1" rx="6.1" ry="6"/>
<path class="st6" d="M69.2,14.6l0.4,0.7l0.4,1.1l0.4,1.6l0.1,1.2l0,0.8l0,0.7l0.5,0.9l-0.8,0.7l0.3,0.4l0.5,0.7c0,0,0.8,1.3-0.2,1.8
	l-0.6,0.2l-0.3,0l-0.6-0.1l-1,0.1l-0.8,0.2l-0.9,0.1l-0.3,1.1l-0.1,1l0.2,0.8l0.4,0.5l0.4,0.2l0.7,0.1l0.3-0.1l0.5-0.5l0.4,0.1
	l0.4-0.1l0.4-0.4l0.1-0.7l0.1-0.7l0-0.2l0.5,0.1c0.6-0.1,2.2-0.5,3.5-1.8c0.4-0.4,1.3-1.3,1.6-2.8c0.5-2.3-0.6-4.6-1.9-5.8
	c-0.8-0.7-1.7-1.2-2.4-1.4c-0.6-0.2-1.2-0.2-1.2-0.2c-0.4,0-0.8,0-0.8,0c0,0,0.1,0,0.3,0"/>
<path class="st7" d="M50.7,28.8l-0.2,0.3c0,0-0.4,0.7,0.6,1.5c0.2,0.1,0.4,0.2,0.6,0.3c0.1,0,0.2,0.1,0.3,0.1
	c0.1,0.1,0.3,0.2,0.4,0.3c0.2,0.1,0.3,0.2,0.5,0.3c0.1,0,0.3,0,0.4,0c0.1,0,0.2-0.1,0.3-0.1c0.1-0.1,0.2-0.2,0.3-0.3
	c0-0.1,0-0.2,0-0.4l-0.1-0.4c-0.1-0.2-0.2-0.4-0.3-0.6c-0.1-0.2-0.3-0.3-0.4-0.5c-0.2-0.2-0.3-0.3-0.5-0.5c-0.2-0.1-0.4-0.3-0.5-0.4
	c-0.1-0.1-0.3-0.2-0.4-0.3c-0.1,0-0.3,0-0.4,0c-0.1,0-0.2,0.1-0.3,0.1c-0.1,0.1-0.1,0.2-0.2,0.3C50.7,28.6,50.7,28.7,50.7,28.8z"/>
<polygon class="st7" points="62.6,34.5 63.1,34 63.7,33.4 64.2,33 64.8,33 65.5,33.2 65.9,33.6 66.1,34.1 66.1,34.3 66.2,34.6 
	66.1,35 65.9,35.1 65.5,35.3 64.8,35.2 63.9,35.1 63,34.8 "/>
<polygon class="st7" points="46.3,42.6 46,42.9 45.7,43.1 45.6,43.3 45.6,43.6 45.8,43.8 46.3,43.7 46.9,43.4 47.2,43.2 47.3,43 
	46.7,42.9 "/>
<polygon class="st7" points="53.5,43.7 53.8,43.6 54.3,43.4 54.7,43.2 55,43 55.6,43 55.9,43.1 56,43.3 55.8,43.5 55.5,43.8 
	54.8,43.9 54.2,43.9 53.6,43.8 "/>
<polygon class="st7" points="67,21.6 66.5,21.8 65.6,22.2 65.1,22.5 64.6,22.9 64.4,23.3 64.3,24 64.4,24.6 64.9,25.1 65.7,25.4 
	66.9,25.5 68,25.4 69.1,25.2 70.3,25.2 70.9,25.1 71.3,24.8 71.4,24.2 71.3,23.8 71,23.2 70.7,22.7 70.2,22.4 68.4,22.3 67.4,21.9 
	"/>
<path class="st7" d="M109.9,101.3l-0.8-0.3l-1.2-0.1l-1,0.2l-0.5,0.3l-0.3,0.6v0.5l0.4,0.4l0.6,0.7l1.1,0.7l0.8,0.5l0.6,0.6l0.4,0.6
	l0.6,0.9l0.8,0.5c0.3,0,0.6-0.1,0.8-0.1c0.2-0.2,0.4-0.4,0.5-0.7l0.1-0.8l-0.1-0.9l-0.3-0.8l-0.2-0.5l-0.6,0l-1-0.9l-0.4-0.4
	L109.9,101.3z"/>
<path class="st7" d="M93.5,100.1l-1-0.7L91.7,99l-0.9-0.2l-0.9,0.3l-0.3,0.4l-0.1,0.6l0,0.6l0.2,0.7l0.4,0.5l0.5,0.4l0.5,0.2
	l0.7,0.2l0.8,0.1l0.7,0l0.6-0.1l0.3,0C94,102.6,95.4,102,93.5,100.1z"/>
<path class="st7" d="M95.8,105.4l-0.8-0.2l-1.3-0.2l-0.7,0.2l-0.5,0.2c0,0-0.3,0.4-0.3,0.4c0,0,0,0.3,0,0.3l-0.2,0.3l-0.2,0.3
	l0.1,0.4c0,0,0.2,0.3,0.2,0.3c0.1,0,0.8,0.3,0.9,0.3c0,0,1.1,0.1,1.1,0.1l0.9-0.1l1-0.4C96,107.3,97.9,106.5,95.8,105.4z"/>
<path class="st7" d="M84.3,128.7c0,0-0.9,0.2-1,0.2c0,0-0.9,0.3-0.9,0.3l-0.9,0.4c0,0-0.8,0.5-0.8,0.5c0,0-0.4,0.5-0.4,0.5
	s-0.2,0.5-0.2,0.5c0,0.1,0.1,0.6,0.1,0.7c0,0.1,0.4,0.6,0.4,0.6l0.6,0.5l0.8,0.2l1.1-0.1l1.1-0.6l0.9-0.4l1.3-0.2l0.5-0.1l-0.7-0.9
	l-0.3-0.7l-0.3-0.5l-0.5-0.6L84.3,128.7z"/>
<polygon class="st7" points="106.6,136.9 106.6,135.9 106.7,135.2 107.1,134.4 107.5,133.9 108.1,133.6 109.1,133.4 110,133.3 
	110.9,133.6 111.5,133.9 112.1,134.3 112.3,134.9 112.5,135.8 112,136.3 111.7,136.8 110.8,137.2 109.8,137.3 108.7,137.4 
	107.8,137.5 107.1,137.5 "/>
<g>
	<polygon class="st8" points="21,43.6 68.4,118 77.5,103.1 40.2,43.6 	"/>
	<path class="st9" d="M39.4,43.6c12.7,19.8,25.4,39.7,38.1,59.5c2.4-4.8,4.8-9.6,7.2-14.4c-9.6-14.9-19.2-29.9-28.8-44.8
		C50.4,43.8,44.9,43.7,39.4,43.6z"/>
	<polygon class="st10" points="50.2,89.4 59.2,103.5 38.7,136.2 20.2,136.2 	"/>
	<polygon class="st11" points="38.7,136.2 59.2,103.5 68.4,118 56.1,136.2 	"/>
</g>
<g>
	<g>
		<path class="st12" d="M41,74.9c-4.4-2.2-9.3-1.5-13.6,0.4c-4,1.7-8.4,3.4-11,7.1c-6.2,9,1.4,20.7,4.4,29.4c1.7,5,2.3,10.6,5.6,15
			c0.2,0.2,0.5,0,0.4-0.2c-2.7-3.6-3.6-8.1-4.7-12.3c-1.3-4.7-3.5-9.1-5.2-13.7c-1.7-4.6-3.1-9.6-1.7-14.5c1.4-4.7,5.2-7.2,9.5-9.1
			c5.2-2.3,10.7-4.4,16.2-1.7C41,75.4,41.2,75,41,74.9L41,74.9z"/>
	</g>
</g>
<g>
	<g>
		<path class="st12" d="M14.1,91.4c-1.9,0.5-4.1-0.5-4.4-2.6c-0.3-1.7,0.8-3.5,2.3-4.3c1-0.5,2.4-1,3.4-0.4c0.2,0.1,0.4-0.2,0.2-0.3
			c-1-0.6-2.3-0.3-3.3,0.1c-0.9,0.4-1.7,1-2.2,1.9c-1.1,1.7-1,4.1,0.7,5.4c1,0.8,2.3,0.9,3.5,0.6C14.5,91.6,14.4,91.3,14.1,91.4
			L14.1,91.4z"/>
	</g>
</g>
<g>
	<g>
		<path class="st12" d="M29.1,89.6c0,0,0.1-0.1,0.1-0.1c-0.1-0.1-0.1-0.2-0.2-0.3c0,0.1-0.4,0.2-0.5,0.3c-0.2,0.2-0.4,0.5-0.5,0.8
			c-0.3,0.5-0.6,1.1-0.6,1.6c-0.1,1.5,1.8,1.7,2.9,1.2c0.8-0.4,1.4-1,2.2-1.4c0.7-0.3,1.4-0.3,2.1-0.4c0.6,0,1.2-0.1,1.6-0.5
			c0.4-0.5,0.5-1.2,0.2-1.7c-0.6-1.3-2.5-1.5-3.8-1.5c-0.2,0-0.2,0.4,0,0.4c1,0,2.4,0.1,3.2,0.9c0.4,0.4,0.5,1.2,0.1,1.7
			c-0.4,0.4-1,0.4-1.5,0.4c-0.5,0-1.1,0-1.6,0.2c-0.7,0.2-1.3,0.7-1.9,1.1c-0.6,0.4-1.3,0.8-2.1,0.7c-0.6-0.1-1.1-0.3-1.1-0.9
			c0-0.6,0.3-1.2,0.6-1.7c0.1-0.2,0.3-0.5,0.5-0.7c0.1-0.1,0.4-0.2,0.5-0.3c0.1-0.1-0.1-0.3-0.2-0.3c-0.1,0-0.1,0.1-0.2,0.1
			C28.7,89.4,28.9,89.7,29.1,89.6L29.1,89.6z"/>
	</g>
</g>
<g>
	<g>
		<path class="st12" d="M34.3,91.5c0.3,0.4,0.6,0.8,0.7,1.2c0.2,0.4,0.3,0.9,0.2,1.4c-0.1,0.4-0.6,0.8-1,0.8c-0.4,0-0.6-0.4-0.9-0.6
			c-0.2-0.2-0.4,0.1-0.3,0.3c0.3,0.3,0.6,0.7,1.1,0.7c0.5,0,1.1-0.4,1.3-0.9c0.2-0.5,0.1-1.1-0.1-1.7c-0.2-0.6-0.5-1.1-0.9-1.5
			C34.4,91.1,34.2,91.3,34.3,91.5L34.3,91.5z"/>
	</g>
</g>
<g>
	<g>
		<g>
			<path class="st12" d="M24.5,129.1c-0.7,0.4-1.9,0.5-2.5-0.2c-0.3-0.4-0.3-0.9-0.1-1.3c0.2-0.6,0.7-1,1.2-1.4
				c0.5-0.4,1.2-0.7,1.8-1c0.2-0.1,0-0.4-0.2-0.3c-0.6,0.3-1.2,0.6-1.8,1c-0.5,0.4-1.1,0.9-1.3,1.5c-0.2,0.5-0.2,1.1,0.1,1.6
				c0.3,0.4,0.8,0.6,1.3,0.7c0.6,0.1,1.2,0,1.7-0.3C24.8,129.3,24.7,129,24.5,129.1L24.5,129.1z"/>
		</g>
	</g>
	<g>
		<g>
			<path class="st12" d="M22.5,129.2c-0.3-0.9,0.4-1.6,1.2-2c0.2-0.1,0-0.4-0.2-0.3c-0.9,0.4-1.7,1.4-1.4,2.4
				C22.2,129.6,22.5,129.5,22.5,129.2L22.5,129.2z"/>
		</g>
	</g>
</g>
<path class="st13" d="M41,79.4c-1-2.9-4.1-4.4-7-3.4c-2.9,1-4.4,4.1-3.4,7c1,2.9,4.1,4.4,7,3.4C40.4,85.4,42,82.3,41,79.4z"/>
<path class="st13" d="M28.1,84.5c-1-2.9-4.1-4.4-7-3.4c-2.9,1-4.4,4.1-3.4,7c1,2.9,4.1,4.4,7,3.4C27.6,90.4,29.1,87.3,28.1,84.5z"/>
<path class="st12" d="M14.5,87.3c-0.2-0.6-0.9-0.9-1.5-0.7c-0.6,0.2-0.9,0.9-0.7,1.5c0.2,0.6,0.9,0.9,1.5,0.7
	C14.4,88.6,14.7,87.9,14.5,87.3z"/>
<path class="st12" d="M33.2,87.4c-0.2-0.7-1.5-0.9-2.8-0.5c-1.3,0.4-2.1,1.4-1.9,2.1c0.2,0.7,1.5,0.9,2.8,0.5
	C32.7,89.1,33.5,88.1,33.2,87.4z"/>
<path class="st12" d="M37.9,79.5c-0.9,0.3-1.4,1.3-1.1,2.3c0.3,0.9,1.3,1.4,2.3,1.1c0.9-0.3,1.4-1.3,1.1-2.3
	C39.9,79.7,38.9,79.2,37.9,79.5z M39.6,82c-0.3,0.1-0.6,0-0.6-0.3c-0.1-0.3,0-0.6,0.3-0.6c0.3-0.1,0.6,0,0.6,0.3
	C40,81.6,39.8,81.9,39.6,82z"/>
<path class="st12" d="M25.3,84.5c-0.9,0.3-1.4,1.3-1.1,2.3c0.3,0.9,1.3,1.4,2.3,1.1c0.9-0.3,1.4-1.3,1.1-2.3
	C27.3,84.7,26.3,84.2,25.3,84.5z M27,87.1c-0.3,0.1-0.6,0-0.6-0.3c-0.1-0.3,0-0.6,0.3-0.6c0.3-0.1,0.6,0,0.6,0.3
	C27.4,86.7,27.3,87,27,87.1z"/>
<g>
	<g>
		<path class="st12" d="M32.2,91.8c0.2,0.3,0.3,0.6,0.3,0.9c0.1,0.3,0.3,0.7,0.4,1c0.1,0.5,0.3,1.2-0.1,1.7
			c-0.3,0.4-0.9,0.4-1.2,0.1c-0.4-0.3-0.6-0.7-0.7-1.2c-0.2-0.5-0.3-1-0.3-1.5c0-0.2-0.4-0.2-0.4,0c0,0.5,0.1,1,0.3,1.5
			c0.2,0.5,0.4,1,0.9,1.4c0.4,0.3,1.1,0.3,1.5,0c0.5-0.4,0.6-1,0.5-1.6c-0.1-0.5-0.3-1-0.4-1.5c-0.1-0.4-0.2-0.8-0.4-1.1
			C32.4,91.4,32.1,91.6,32.2,91.8L32.2,91.8z"/>
	</g>
</g>
<g>
	<g>
		<path class="st12" d="M19.9,108.4c-1,0.1-1.9,0.9-2.5,1.7c-0.4,0.5-0.9,1.3-0.7,2c0.1,0.4,0.5,0.6,0.9,0.7c0.2,0,0.2-0.3,0-0.4
			c-0.4,0-0.6-0.3-0.6-0.7c0-0.4,0.2-0.7,0.4-1c0.5-0.9,1.5-1.8,2.5-2C20.1,108.7,20.1,108.3,19.9,108.4L19.9,108.4z"/>
	</g>
</g>
<g>
	<g>
		<path class="st12" d="M18.1,111.4c-0.3,0.3-0.5,0.6-0.5,1c0,0.4,0.2,0.7,0.6,0.8c0.4,0.1,0.8,0,1.2-0.3c0.4-0.3,0.6-0.7,0.9-1
			c0.2-0.4,0.5-0.8,0.6-1.3c0.1-0.2-0.3-0.3-0.4-0.1c-0.1,0.3-0.2,0.6-0.4,0.9c-0.2,0.4-0.4,0.7-0.7,1c-0.2,0.2-0.5,0.4-0.8,0.5
			c-0.2,0-0.3,0-0.5-0.1c-0.1-0.1-0.1-0.1-0.1-0.2c0-0.3,0.2-0.6,0.4-0.9C18.5,111.5,18.3,111.2,18.1,111.4L18.1,111.4z"/>
	</g>
</g>
<g>
	<g>
		<path class="st12" d="M26.4,75.8c0.3-1.7-0.2-3.7-1.9-4.4c-1.4-0.6-3.2,0.3-3.3,1.9c0,0.5,0.2,1.2,0.8,1.1
			c0.6-0.1,0.8-0.8,0.6-1.3c-0.6-1.6-3-1.7-4.4-1.6c-2.2,0.1-4.2,1-5.8,2.6c-0.2,0.2,0.1,0.4,0.3,0.3c1.1-1.1,2.5-1.9,4.1-2.2
			c1.4-0.3,3.3-0.4,4.6,0.3c0.3,0.2,0.7,0.4,0.8,0.8c0.3,0.4,0.2,0.6-0.3,0.6c-0.3,0.2-0.4,0.2-0.4,0c-0.1-0.2,0-0.4,0-0.6
			c0.2-0.9,1-1.5,1.9-1.5c2.2,0,2.9,2.4,2.6,4.1C26,76,26.3,76.1,26.4,75.8L26.4,75.8z"/>
	</g>
</g>
<g>
	<g>
		<path class="st12" d="M27.8,75.3c-0.5-1.9-1.3-3.7-2.4-5.3c-0.1-0.2-0.4,0-0.3,0.2c1.1,1.6,1.9,3.4,2.4,5.2
			C27.5,75.6,27.8,75.5,27.8,75.3L27.8,75.3z"/>
	</g>
</g>
<g>
	<path class="st12" d="M51.7,31c0.7,0.3,1.5,1.2,2.2,0.5c0.7-0.7-0.3-1.8-0.8-2.3c-0.5-0.5-1.5-1.6-2.2-0.9c-0.7,0.7,1,1.6,1.4,1.8
		c0.1,0,0.1,0,0.1-0.1c-0.4-0.3-2.3-1.3-1.1-1.8c0.6-0.3,1.5,0.7,1.9,1.1c0.5,0.5,1.4,1.5,0.6,2.2c-0.5,0.4-1.4-0.5-1.9-0.7
		C51.6,30.9,51.6,31,51.7,31L51.7,31z"/>
</g>
<g>
	<path class="st12" d="M50.6,28.8c-0.6,1,0.3,1.7,1.1,2.2c0.1,0,0.1-0.1,0.1-0.1c-0.8-0.4-1.6-1-1.1-2
		C50.7,28.8,50.6,28.8,50.6,28.8L50.6,28.8z"/>
</g>
<g>
	<path class="st12" d="M44.5,11c-0.8-0.6-1.6-1.3-1.7-2.4c-0.1-0.8,0.3-1.6,1-2.1c0.7-0.6,1.8-0.8,2.7-0.7c0.6,0.1,1.2,0.3,1.7,0.5
		c0.4,0.2,1.6,0.7,1.5,1.4c0,0.2,0.3,0.2,0.3,0c0.1-1.2-2-1.9-2.9-2.1c-1.2-0.3-2.4-0.1-3.4,0.5c-0.8,0.5-1.3,1.4-1.3,2.4
		c0,1.2,0.9,2.1,1.9,2.7C44.4,11.4,44.6,11.1,44.5,11L44.5,11z"/>
</g>
<path class="st12" d="M47.3,9c0.2-0.5-0.1-1-0.6-1.2c-0.5-0.2-1.1,0-1.3,0.4c-0.2,0.5,0.1,1,0.6,1.2C46.6,9.7,47.2,9.5,47.3,9z"/>
<path class="st14" d="M65,19.7c0.3-3.3-2.2-6.2-5.6-6.6c-3.4-0.3-6.4,2.1-6.7,5.4c-0.3,3.3,2.2,6.2,5.6,6.6
	C61.6,25.4,64.6,23,65,19.7z"/>
<path class="st12" d="M63.7,19.2c-0.8-0.8-2.1-0.7-2.8,0.1c-0.7,0.8-0.7,2.1,0.1,2.8c0.8,0.8,2.1,0.7,2.8-0.1
	C64.5,21.2,64.5,20,63.7,19.2z M62.1,22.1c-0.2-0.2-0.2-0.6,0-0.8c0.2-0.2,0.6-0.2,0.8,0c0.2,0.2,0.2,0.6,0,0.8
	C62.7,22.3,62.3,22.3,62.1,22.1z"/>
<g>
	<path class="st12" d="M66.9,21.7c0.1,0,0.1,0,0.2,0c0-0.1,0-0.1,0-0.2c-1.1,0.2-2.7,1-2.9,2.3c-0.2,1.4,1.6,1.8,2.6,1.8
		c0.7,0,1.5-0.1,2.2-0.2c0.6-0.1,1.4,0.1,1.9-0.2c1.5-0.6-0.1-2.4-0.7-3.1c-0.1-0.1-0.2,0.1-0.1,0.1c0.5,0.4,0.9,0.9,1.1,1.4
		c0.2,0.5,0.2,1-0.3,1.3c-0.3,0.1-0.6,0.1-0.9,0.1c-0.9,0-1.9,0.2-2.8,0.3c-1.1,0.1-2.9,0-2.9-1.5c0-1.2,1.8-1.9,2.7-2.1
		c0.1,0,0.1-0.2,0-0.2c-0.1,0-0.1,0-0.2,0C66.7,21.6,66.7,21.8,66.9,21.7L66.9,21.7z"/>
</g>
<path class="st12" d="M71.7,21.6c0.1-0.8-1-1.5-2.4-1.6c-1.4-0.1-2.6,0.4-2.7,1.1c-0.1,0.8,1,1.5,2.4,1.6
	C70.4,22.8,71.6,22.3,71.7,21.6z"/>
<g>
	<path class="st12" d="M69,25.3c-0.1,1,0.2,3.3-1.1,3.7c-1,0.3-1.4-0.8-1.5-1.6c0-0.6,0.1-1.3,0.4-1.9c0-0.1-0.1-0.2-0.2-0.1
		c-0.5,1.2-0.8,3.6,1,3.7c1.6,0.1,1.4-2.9,1.5-3.9C69.2,25.2,69,25.2,69,25.3L69,25.3z"/>
</g>
<g>
	<path class="st12" d="M68.7,28.6c1.7,0.6,1.3-2.4,1.4-3.3c0-0.1-0.2-0.1-0.2,0c-0.1,0.8,0.3,3.6-1.2,3.2
		C68.7,28.4,68.6,28.6,68.7,28.6L68.7,28.6z"/>
</g>
<path class="st12" d="M74.2,21.6c-0.8-0.4-1.8,0-2.1,0.8c-0.4,0.8,0,1.7,0.8,2.1c0.8,0.4,1.8,0,2.1-0.8C75.4,22.9,75,21.9,74.2,21.6
	z M73.8,24.2c-0.2-0.1-0.3-0.4-0.2-0.6c0.1-0.2,0.4-0.3,0.6-0.2c0.2,0.1,0.3,0.4,0.2,0.6C74.3,24.2,74,24.3,73.8,24.2z"/>
<g>
	<g>
		<path class="st12" d="M70.6,20.6c0.2-4.3-1.7-8.2-5.4-10.5c-1.8-1.1-3.7-2-5.7-2.7C57.3,6.7,55,6.3,52.7,7c-0.1,0-0.1,0.3,0.1,0.2
			c4.1-1.3,8.7,0.9,12.2,3c3.7,2.2,5.7,6.1,5.5,10.4C70.4,20.8,70.6,20.8,70.6,20.6L70.6,20.6z"/>
	</g>
</g>
<g>
	<g>
		<path class="st12" d="M68.9,28.6c-0.6,0.9-1.5,1.5-2.3,2.2c-1,0.7-1.8,1.6-2.7,2.4c-1.8,1.6-3.6,3.4-5.2,5.2
			c-0.7,0.8-1.4,1.6-2,2.5c-1,1.4-1.8,2.6-3.7,2.8c-2.6,0.3-5.2-0.4-7.5-1.6c-4.1-2.1-6.8-6.1-7.7-10.6c-0.9-5.2,0.5-10.5,3-15
			c1.3-2.4,2.8-4.8,5.1-6.4c2.1-1.5,4.5-2.5,7-3.1c0.1,0,0.1-0.2-0.1-0.2c-2.3,0.6-4.6,1.5-6.6,2.8c-2,1.3-3.4,3.1-4.6,5.1
			c-2.8,4.5-4.7,9.9-4.2,15.3c0.4,4.4,2.5,8.7,6.2,11.3c2.1,1.4,4.6,2.4,7,2.6c2.2,0.2,4,0,5.4-1.8c2-2.7,4.3-5.2,6.8-7.6
			c1.2-1.1,2.4-2.3,3.7-3.3c1-0.8,1.9-1.5,2.7-2.5C69.2,28.6,69,28.5,68.9,28.6L68.9,28.6z"/>
	</g>
</g>
<g>
	<path class="st12" d="M70.2,14.5c-0.4,0-0.8,0-1.1,0c0,0.1,0.1,0.1,0.1,0.2c0.3,0,0.7,0,1,0c3.3,0.3,5.8,3.2,5.5,6.5
		c-0.3,2.9-2.7,5.1-5.6,5.3l0,0.2c3-0.2,5.5-2.5,5.8-5.5C76.2,17.8,73.6,14.8,70.2,14.5z"/>
</g>
<g>
	<path class="st12" d="M66.2,34.6c0.2-0.9-1.7-0.8-2.2-0.8c-0.1,0-0.1,0.1,0,0.1c0.5,0,2.6-0.1,1.9,0.9c-0.3,0.6-1.6,0.2-2.2,0.1
		c-0.4-0.1-0.9-0.2-1.3-0.5c0,0,0,0,0,0c0,0,0,0-0.1,0c0.4,0.3,1.1,0.5,1.5,0.5C64.6,35.2,66,35.6,66.2,34.6z"/>
</g>
<g>
	<path class="st12" d="M66.2,34.2C66.1,33.1,65,33,64,33c0,0,0,0,0,0c0,0,0,0,0,0.1c0,0,0,0,0.1,0c0.9-0.1,1.9,0,2,1.1
		C66.1,34.3,66.2,34.3,66.2,34.2z"/>
</g>
<g>
	<g>
		<path class="st12" d="M54.6,6.7C54.2,5.8,55,5.2,55.8,5c0.8-0.2,1.6-0.3,2.4-0.2c0.7,0.1,1.4,0.4,2,0.9c0.6,0.6,0.9,1.4,0.6,2.2
			C60.6,8,60.8,8.1,60.9,8c0.4-0.8,0.1-1.7-0.5-2.3c-0.6-0.7-1.4-1-2.2-1.2c-0.9-0.1-2-0.1-2.8,0.3c-0.7,0.3-1.3,1-1,1.8
			C54.4,6.8,54.6,6.8,54.6,6.7L54.6,6.7z"/>
	</g>
</g>
<g>
	<g>
		<path class="st12" d="M46.1,42.7c-0.2,0.1-0.4,0.2-0.5,0.4c-0.1,0.2-0.2,0.4-0.1,0.5c0.1,0.2,0.2,0.3,0.4,0.3
			c0.2,0,0.5-0.1,0.7-0.2c0.2-0.1,0.5-0.3,0.7-0.4c0.1-0.1,0-0.2-0.2-0.2c-0.2,0.2-0.4,0.3-0.6,0.4c-0.1,0.1-0.2,0.1-0.3,0.1
			c-0.1,0-0.2,0.1-0.4,0c-0.1-0.1-0.2-0.3-0.1-0.4c0.1-0.2,0.3-0.3,0.5-0.4C46.3,42.8,46.2,42.6,46.1,42.7L46.1,42.7z"/>
	</g>
</g>
<g>
	<g>
		<path class="st12" d="M53.4,43.9c0.4,0.1,0.7,0.1,1.1,0.1c0.3,0,0.7,0,1-0.1c0.2-0.1,0.5-0.3,0.6-0.6c0-0.2-0.2-0.3-0.4-0.3
			c-0.2,0-0.5,0-0.7,0c-0.1,0-0.1,0.2,0,0.2c0.2,0,0.4,0,0.5,0c0.1,0,0.2,0,0.2,0c0,0,0.1,0,0.1,0.1c0,0-0.1,0.1-0.1,0.2
			c-0.1,0.1-0.2,0.2-0.4,0.2c-0.3,0.1-0.6,0.1-0.9,0.1c-0.3,0-0.7,0.1-1.1-0.1C53.4,43.6,53.3,43.8,53.4,43.9L53.4,43.9z"/>
	</g>
</g>
<g>
	<g>
		<path class="st12" d="M45.8,43.7c0.1-0.1,0.2-0.3,0.4-0.4c0,0,0,0,0-0.1c0,0,0-0.1,0-0.1c0,0-0.1,0-0.2,0
			c-0.1,0.1-0.2,0.3-0.4,0.4c0,0,0,0,0,0.1c0,0,0,0.1,0,0.1C45.7,43.8,45.8,43.8,45.8,43.7L45.8,43.7z"/>
	</g>
</g>
<g>
	<g>
		<path class="st12" d="M55.1,43.4c0.2-0.1,0.4-0.1,0.6,0c0.1,0,0.1,0,0.1-0.1c0-0.1,0-0.1-0.1-0.1c-0.2-0.1-0.5-0.1-0.8,0
			c-0.1,0-0.1,0.1-0.1,0.1C55,43.4,55.1,43.4,55.1,43.4L55.1,43.4z"/>
	</g>
</g>
<g>
	<g>
		<path class="st12" d="M38.6,34.6c-0.3-0.2-0.5-0.3-0.8-0.5c-0.1-0.1-0.3-0.2-0.4-0.3c-0.1-0.1-0.2-0.1-0.2-0.2
			c-0.1-0.2,0-0.5,0.2-0.6c0.1-0.1,0.2-0.1,0.3-0.1c0.1,0,0.2,0.1,0.2,0.2c0,0.1,0.2,0.1,0.2,0c0-0.2-0.2-0.4-0.4-0.4
			c-0.2,0-0.5,0.1-0.6,0.3c-0.1,0.2-0.2,0.4-0.1,0.7c0.1,0.2,0.4,0.4,0.6,0.5c0.3,0.2,0.6,0.4,0.9,0.6
			C38.6,34.9,38.7,34.7,38.6,34.6L38.6,34.6z"/>
	</g>
</g>
<g>
	<g>
		<path class="st12" d="M112.2,134.2c2.1-1.8,4.6-3.5,5.4-6.3c0.9-3-0.1-6.1,1.2-9.1c1.4-2.9,4.2-4.8,6.2-7.2c1.6-2,2.9-4.3,3.2-6.8
			c0.7-5.4-2.5-10.5-6.6-13.7c-4-3.2-9.3-5.6-14.5-4.8c-3.2,0.5-6,2.3-8.2,4.7c-1.2,1.3-2.2,2.7-3.4,4C94.3,96.4,93,97.6,92,99
			c-0.1,0.2,0.2,0.4,0.3,0.2c1-1.3,2.1-2.3,3.2-3.5c1-1.1,1.9-2.2,2.8-3.3c1.9-2.2,4.2-4.2,7-5.1c5.3-1.7,10.8,0.4,15.1,3.5
			c4.5,3.2,8.3,8.6,7.4,14.4c-0.4,2.7-1.9,5-3.7,7c-1.7,1.9-3.9,3.6-5.2,5.8c-1.5,2.5-1.1,5.1-1.3,7.9c-0.3,3.8-3,5.8-5.7,8.1
			C111.8,134.1,112,134.3,112.2,134.2L112.2,134.2z"/>
	</g>
</g>
<g>
	<g>
		<path class="st12" d="M86.4,131.7c2.5,2.6,5.8,4.1,9.2,5.3c3.7,1.3,7.6,1.8,11.3,0.4c0.2-0.1,0.1-0.4-0.1-0.4
			c-3.7,1.3-7.5,0.8-11.1-0.4c-3.3-1.1-6.6-2.6-9-5.2C86.5,131.2,86.2,131.5,86.4,131.7L86.4,131.7z"/>
	</g>
</g>
<g>
	<g>
		<path class="st12" d="M89.6,101.5c-7.1,6.9-9.9,18.2-5.3,27.3c0.1,0.2,0.4,0,0.3-0.2c-4.5-8.9-1.7-20,5.3-26.8
			C90,101.6,89.8,101.3,89.6,101.5L89.6,101.5z"/>
	</g>
</g>
<g>
	<g>
		<path class="st12" d="M109.5,101.3c0,0,0.1,0,0.1,0.1c0-0.1,0-0.2,0-0.3c0.1-0.1,0.2,0,0-0.1c0,0-0.1-0.1-0.2-0.1
			c-0.1-0.1-0.2-0.1-0.3-0.1c-0.3-0.1-0.5-0.1-0.8-0.1c-0.5,0-1.1,0-1.6,0.2c-1.2,0.5-0.7,2.1,0.1,2.8c0.6,0.5,1.2,0.7,1.9,1.1
			c0.6,0.4,0.9,0.8,1.3,1.4c0.3,0.5,0.5,1,1,1.3c0.5,0.3,1.2,0.1,1.6-0.2c1.1-1,0.3-2.8-0.2-3.9c-0.1-0.2-0.4,0-0.3,0.2
			c0.4,0.9,1.1,2.4,0.4,3.3c-0.3,0.4-1,0.6-1.5,0.3c-0.4-0.3-0.6-0.8-0.9-1.2c-0.3-0.4-0.6-0.8-1-1.2c-0.5-0.4-1.1-0.6-1.6-0.9
			c-0.6-0.3-1-0.8-1.2-1.5c-0.1-0.5,0-0.9,0.5-1.1c0.5-0.2,1.1-0.2,1.6-0.1c0.2,0,0.5,0.1,0.7,0.2c0.1,0.1,0.4,0.3,0.5,0.2
			c0.1-0.1,0.1-0.2,0-0.3c-0.1-0.1-0.1-0.1-0.2-0.1C109.5,100.9,109.3,101.2,109.5,101.3L109.5,101.3z"/>
	</g>
</g>
<g>
	<g>
		<path class="st12" d="M110.2,106.4c-0.2,0.4-0.4,0.8-0.7,1.1c-0.3,0.3-0.6,0.6-1,0.7c-0.4,0.1-0.8-0.1-1.1-0.4
			c-0.2-0.3,0-0.7,0.1-1c0.1-0.2-0.3-0.3-0.4-0.1c-0.1,0.3-0.3,0.7-0.2,1c0.1,0.4,0.4,0.7,0.7,0.8c0.4,0.2,0.8,0.1,1.1-0.1
			c0.4-0.2,0.7-0.5,0.9-0.8c0.3-0.4,0.6-0.8,0.7-1.2C110.6,106.2,110.3,106.2,110.2,106.4L110.2,106.4z"/>
	</g>
</g>
<path class="st13" d="M122.9,106.7c1.9-2,1.9-5.2-0.2-7.1c-2-1.9-5.2-1.9-7.1,0.2c-1.9,2-1.9,5.2,0.2,7.1
	C117.8,108.8,120.9,108.7,122.9,106.7z"/>
<path class="st13" d="M113.3,98.3c1.9-2,1.9-5.2-0.2-7.1c-2-1.9-5.2-1.9-7.1,0.2c-1.9,2-1.9,5.2,0.2,7.1
	C108.2,100.4,111.4,100.3,113.3,98.3z"/>
<path class="st12" d="M113.1,103.8c0.5-0.5,0.1-1.6-0.8-2.5c-0.9-0.9-2-1.2-2.5-0.7c-0.5,0.5-0.1,1.6,0.8,2.5
	C111.5,104,112.6,104.3,113.1,103.8z"/>
<path class="st12" d="M117.2,102.4c0.9,0.3,1.8-0.2,2.1-1c0.3-0.9-0.2-1.8-1-2.1c-0.9-0.3-1.8,0.2-2.1,1
	C115.9,101.2,116.3,102.1,117.2,102.4z M117.4,99.6c0.2,0.1,0.4,0.3,0.3,0.6c-0.1,0.2-0.3,0.4-0.6,0.3c-0.2-0.1-0.4-0.3-0.3-0.6
	C116.9,99.7,117.2,99.5,117.4,99.6z"/>
<path class="st12" d="M108.4,93.6c0.9,0.2,1.8-0.3,2-1.2c0.2-0.9-0.3-1.8-1.2-2c-0.9-0.2-1.8,0.3-2,1.2
	C107,92.4,107.5,93.3,108.4,93.6z M108.4,90.8c0.2,0.1,0.4,0.3,0.3,0.6c-0.1,0.2-0.3,0.4-0.6,0.3c-0.3-0.1-0.4-0.3-0.3-0.6
	C107.9,90.9,108.1,90.7,108.4,90.8z"/>
<g>
	<g>
		<path class="st12" d="M109.1,104.8c-0.1,0.2-0.4,0.4-0.6,0.6c-0.2,0.2-0.4,0.4-0.6,0.7c-0.3,0.3-0.8,0.8-1.4,0.7
			c-0.4,0-0.8-0.5-0.7-0.9c0-0.4,0.3-0.8,0.6-1.1c0.3-0.3,0.7-0.7,1.1-0.9c0.2-0.1,0-0.4-0.2-0.3c-0.4,0.2-0.8,0.6-1.2,0.9
			c-0.3,0.4-0.7,0.8-0.7,1.3c-0.1,0.5,0.3,1.1,0.8,1.3c0.6,0.2,1.1-0.1,1.6-0.5c0.3-0.3,0.6-0.6,0.9-0.9c0.2-0.3,0.5-0.5,0.7-0.8
			C109.5,104.7,109.2,104.6,109.1,104.8L109.1,104.8z"/>
	</g>
</g>
<g>
	<g>
		<path class="st12" d="M127.7,99.6c2.2,0.1,4.9,1.1,5,3.7c0.1,1.2-0.4,2.4-1.2,3.3c-0.5,0.5-1.1,0.9-1.8,1c-0.3,0.1-0.7,0.1-1,0.1
			c-0.2,0-0.4,0-0.6-0.1c-0.1,0-0.2,0-0.3-0.1c-0.2-0.1-0.2-0.1-0.1,0c0,0.1,0,0.1,0,0.2c0,0,0,0,0,0c-0.1,0-0.2,0-0.3,0
			c0,0,0,0,0,0c0.2,0.2,0.4-0.1,0.3-0.3c0,0,0,0,0,0c-0.1-0.1-0.2-0.1-0.3,0c0,0,0,0,0,0c-0.1,0.1-0.1,0.2,0,0.2
			c0.1,0.1,0.3,0.2,0.4,0.2c0.3,0.1,0.6,0.1,0.9,0.1c0.6,0,1.2-0.1,1.7-0.3c1-0.4,1.8-1.3,2.2-2.3c0.4-1,0.5-2.1,0.2-3.1
			c-0.3-1-1-1.7-1.9-2.2c-1-0.6-2.2-0.8-3.3-0.9C127.4,99.3,127.4,99.6,127.7,99.6L127.7,99.6z"/>
	</g>
</g>
<g>
	<g>
		<path class="st12" d="M83.5,128.9c1.8-0.5,2.2,1.9,3.1,2.9c0-0.1,0.1-0.2,0.1-0.3c-0.9-0.1-1.7,0.3-2.5,0.7
			c-0.8,0.3-1.7,0.9-2.6,0.8c-0.8-0.1-1.5-1-1.4-1.7c0.1-0.7,0.9-1.2,1.5-1.5c0.7-0.4,1.5-0.6,2.3-0.8c0.2-0.1,0.1-0.4-0.1-0.4
			c-0.8,0.2-1.6,0.4-2.3,0.8c-0.7,0.3-1.5,0.8-1.7,1.6c-0.3,0.8,0.2,1.7,0.9,2.1c0.8,0.5,1.8,0.2,2.6-0.1c1-0.4,2.1-1.1,3.3-1
			c0.2,0,0.2-0.2,0.1-0.3c-0.6-0.6-0.9-1.5-1.4-2.2c-0.5-0.7-1.2-1-2.1-0.8C83.2,128.6,83.3,129,83.5,128.9L83.5,128.9z"/>
	</g>
</g>
<g>
	<g>
		<path class="st12" d="M80.8,132.4c-0.1-1,0.8-1.6,1.7-1.8c0.2-0.1,0.1-0.4-0.1-0.4c-1,0.2-2,1-1.9,2.1c0,0.1,0.1,0.2,0.2,0.2
			C80.7,132.5,80.8,132.5,80.8,132.4L80.8,132.4z"/>
	</g>
</g>
<g>
	<g>
		<path class="st12" d="M111,136.9c-1.1,0.4-2.4,0.1-3.5,0.3c-0.2,0-0.4,0.1-0.5,0c-0.2-0.2-0.2-0.6-0.2-0.8c0-0.5,0-1.1,0.2-1.6
			c0.4-1.1,1.6-1.5,2.7-1.4c0.8,0.1,1.7,0.3,2.3,0.9c0.3,0.4,0.5,0.9,0.3,1.4C112.1,136.3,111.5,136.7,111,136.9
			c-0.2,0.1-0.1,0.4,0.1,0.4c1-0.4,1.9-1.4,1.5-2.5c-0.4-0.9-1.5-1.4-2.4-1.6c-1.1-0.2-2.5,0-3.2,1c-0.4,0.5-0.5,1.1-0.6,1.7
			c0,0.5-0.1,1.3,0.4,1.7c0.2,0.1,0.4,0.1,0.6,0.1c0.4-0.1,0.7-0.1,1.1-0.1c0.9,0,1.8,0,2.6-0.3C111.3,137.2,111.3,136.9,111,136.9z
			"/>
	</g>
</g>
<g>
	<g>
		<path class="st12" d="M109.7,135.2c0.9-0.1,1.9,0.1,2.6,0.7c0.2,0.2,0.4-0.1,0.3-0.3c-0.8-0.6-1.9-0.9-2.8-0.8
			C109.5,134.8,109.5,135.2,109.7,135.2L109.7,135.2z"/>
	</g>
</g>
<g>
	<g>
		<path class="st12" d="M94,102.4c-0.2-0.1-0.5,0-0.7,0c-0.3,0-0.5,0.1-0.8,0.1c-0.8,0-1.6-0.3-2.2-0.8c-0.5-0.4-0.8-1.1-0.7-1.8
			c0.1-0.7,0.8-0.8,1.4-0.8c0.9,0.1,1.6,0.7,2.3,1.2c0.2,0.1,0.4-0.2,0.2-0.3c-0.7-0.5-1.4-1.1-2.3-1.2c-0.7-0.1-1.5-0.1-1.9,0.6
			c-0.3,0.6-0.1,1.4,0.2,1.9c0.4,0.7,1.1,1.2,1.9,1.4c0.4,0.1,1,0.2,1.4,0.2c0.2,0,0.4-0.1,0.5-0.1c0.1,0,0.3-0.1,0.4,0
			C94,102.8,94.2,102.5,94,102.4L94,102.4z"/>
	</g>
</g>
<g>
	<g>
		<path class="st12" d="M91.4,100.5c-0.1,0-0.2,0-0.3-0.1c0,0-0.1,0-0.1,0c0,0-0.1,0-0.1,0c0,0-0.1,0,0,0c-0.2-0.1-0.3-0.2-0.5-0.3
			c-0.1-0.1-0.1-0.1-0.1-0.2c0,0,0-0.1-0.1-0.1c0,0,0,0,0,0c0,0,0,0,0,0c0,0,0,0,0-0.1c0,0,0,0,0-0.1c0,0,0,0,0,0c0,0,0,0,0,0
			c0,0,0-0.1,0-0.1c0,0,0,0,0,0c0,0,0,0,0,0c0,0,0,0,0-0.1c0-0.1,0-0.1,0.1-0.2c0-0.1,0-0.2-0.1-0.2c-0.1,0-0.2,0-0.2,0.1
			c-0.2,0.4-0.1,0.9,0.3,1.2c0.3,0.3,0.7,0.5,1.2,0.5c0.1,0,0.2,0,0.2-0.1C91.5,100.6,91.5,100.5,91.4,100.5L91.4,100.5z"/>
	</g>
</g>
<path class="st12" d="M130.5,103.7c0.3-0.6,0-1.3-0.6-1.6c-0.6-0.3-1.3,0-1.6,0.6c-0.3,0.6,0,1.3,0.6,1.6
	C129.5,104.6,130.2,104.4,130.5,103.7z"/>
<g>
	<g>
		<path class="st12" d="M95.9,107.1c-0.8,0.4-1.8,0.5-2.7,0.4c-0.3,0-0.7-0.1-0.9-0.3c-0.1-0.1-0.2-0.2-0.2-0.3
			c0-0.2,0.1-0.3,0.2-0.4c0.2-0.2-0.1-0.4-0.3-0.3c-0.3,0.3-0.5,0.7-0.2,1.1c0.2,0.3,0.7,0.5,1,0.6c1.1,0.2,2.3,0.1,3.2-0.4
			C96.3,107.3,96.1,107,95.9,107.1L95.9,107.1z"/>
	</g>
</g>
<g>
	<g>
		<path class="st12" d="M93.3,106.3c-0.3,0-0.7,0.1-0.9-0.2c-0.2-0.2,0.3-0.6,0.5-0.7c0.6-0.3,1.3-0.2,1.9-0.1
			c0.3,0.1,0.6,0.1,0.9,0.2c0.2,0.1,0.3-0.3,0.1-0.4c-0.3-0.1-0.7-0.2-1-0.2c-0.4-0.1-0.8-0.1-1.3-0.1c-0.4,0-0.8,0.1-1.1,0.3
			c-0.3,0.2-0.7,0.6-0.4,1c0.2,0.4,0.8,0.4,1.2,0.4C93.5,106.6,93.5,106.2,93.3,106.3L93.3,106.3z"/>
	</g>
</g>
<g>
	<g>
		<path class="st12" d="M117.9,127.7c0.8,0.2,1.6-0.3,2-1c0.3-0.8,0-1.6-0.7-2c-0.4-0.2-0.9-0.3-1.3-0.2c-0.2,0.1-0.1,0.4,0.1,0.4
			c0.6-0.2,1.3,0.2,1.5,0.7c0.3,0.6,0.1,1.3-0.5,1.6c-0.3,0.2-0.7,0.3-1,0.2C117.7,127.3,117.6,127.7,117.9,127.7L117.9,127.7z"/>
	</g>
</g>
<g>
	<g>
		<path class="st12" d="M102.2,88.7c-0.6-1.6-0.7-3.7,1.1-4.5c1.6-0.8,4-0.1,4.2,1.9c0,0.2,0.4,0.2,0.4,0c-0.2-1.6-1.8-2.7-3.3-2.6
			c-0.7,0-1.5,0.3-2,0.7c-0.6,0.5-0.9,1.2-1,1.9c-0.1,0.9,0.1,1.8,0.4,2.6C102,89,102.3,88.9,102.2,88.7L102.2,88.7z"/>
	</g>
</g>
<path class="st12" d="M104.2,85.5c-0.5,0-0.9,0.4-0.9,0.9c0,0.5,0.4,0.9,0.9,0.9c0.5,0,0.9-0.4,0.9-0.9
	C105.1,86,104.7,85.6,104.2,85.5z"/>
</svg>
