<?xml version="1.0" encoding="utf-8"?>
<!-- Generator: Adobe Illustrator 24.0.1, SVG Export Plug-In . SVG Version: 6.00 Build 0)  -->
<svg version="1.1" id="Layer_1" xmlns="http://www.w3.org/2000/svg" xmlns:xlink="http://www.w3.org/1999/xlink" x="0px" y="0px"
	 viewBox="0 0 141.7 141.7" style="enable-background:new 0 0 141.7 141.7;" xml:space="preserve">
<style type="text/css">
	.st0{fill:#75CEEB;}
	.st1{fill:#C9B09D;}
	.st2{fill:#FFFFFF;}
	.st3{fill:#FEE267;}
	.st4{fill:#FCB353;}
	.st5{fill:#FEE953;}
	.st6{fill:#C4E8F1;}
	.st7{fill:#089CD3;}
	.st8{fill:#070707;}
	.st9{fill:#010101;}
	.st10{font-family:'CenturyGothic';}
	.st11{font-size:4.6856px;}
</style>
<g id="Layer_12">
</g>
<g id="Layer_8">
</g>
<g id="Layer_15">
</g>
<g id="Layer_16">
</g>
<path class="st0" d="M45.5,103.8l-0.6-0.3l-0.6-0.5l-0.5-0.7l-0.3-0.8l0-0.7c0,0,0.1-2.4,3.1-2.4l1.6,0.4l0.9,0.5l0.5,0.6l0.1,0.3
	v0.1l1.6-0.5l2-0.3l2.2-0.1l2.2,0l2.1,0.2l1.2,0.2l0.2-0.9l0.9-1.2l1.2-0.5h0.9l1,0.4l0.9,0.9l0.5,1.1l0.1,1v0.9l-0.3,0.7l-0.5,0.6
	l0.3,0.6l0.6,1.1l0.5,1.4l0.3,1.8l0.1,1.6l0.1,2.1v2.2c0,0,0,4.7,3.3,5.2c0.7,0.2,1.4,0.3,2.2,0.4c0.6,0.1,1.1,0.2,1.7,0.2
	c0.6,0.1,1.3,0.3,1.9,0.4l1,0.6l-0.2,1.1l0.5,0.6l1.1-0.3l0.4,1.3l0.3,2.1l-0.1,2.2l-0.3,2.3l-0.8,0.6l-0.8,0.6l-0.4,0.6l0,0.6
	l0.7,0.4l-0.6,0.6l-1,0.4c-2.2,0.7-6.4,1.7-11.6,0.8c-6.2-1.1-10.4-4.3-12.3-6c-2.9-2.6-4.6-5.4-5.6-7.2c0.1-0.5,0.3-0.9,0.4-1.4
	l0-1.5l-0.4-0.5l-0.8,0.3l-0.4,0.3c-0.3-0.6-0.5-1.4-0.8-2.2c-0.4-1.5-0.7-2.9-0.8-4c0-1.5,0-2.9,0-4.4c0-0.7,0.1-1.6,0.3-2.7
	C45.1,104.9,45.3,104.3,45.5,103.8z"/>
<polygon class="st1" points="77.7,121.8 77.8,121.1 78,120.4 78.5,119.6 78.9,119.2 79.3,119 80,119.1 80.4,119.4 80.9,120.1 
	81.2,120.5 81,121.2 80.2,121.6 79.7,121.8 79.3,122.1 78.9,122.4 78.2,122.4 77.8,122 "/>
<polygon class="st1" points="77.6,132.3 77.6,131.9 78.3,131.1 78.8,130.8 80,130.2 81,130.2 81.2,130.3 81.4,130.6 81.8,130.7 
	81.8,131.3 81.5,131.7 80.4,132.4 79.3,132.8 78.3,133.2 77.7,132.5 "/>
<path class="st1" d="M55.1,110.8l-0.3,0.1l-0.4,0.2l-0.3,0.2l-0.2,0.2l-0.2,0.2l-0.1,0.2l-0.1,0.3v0.3v0.2c0,0,0.1,0.1,0.1,0.2
	c0,0,0.2,0.2,0.2,0.2l0.3,0.2l0.4,0.1H55l0.4-0.1l0.5-0.1l0.5-0.1l0.4-0.1l0.7,0l0.4,0.1l0.7,0.2l0.5,0l0.4-0.1l0.3-0.2l0.1-0.4
	l-0.1-0.4l0-0.3l-0.3-0.3l-0.3-0.2c0,0-0.4-0.3-0.4-0.3c0,0-0.3-0.2-0.3-0.2l-0.3-0.2c0,0-0.5,0.2-0.5,0.3c0,0-0.8,0.2-0.8,0.2
	l-0.9-0.1l-0.6-0.2L55.1,110.8z"/>
<path class="st2" d="M55.2,113.4c0,0-0.1,0.3-0.1,0.3c0,0-0.1,0.3-0.1,0.3v0.3c0,0,0,0.3,0,0.3c0,0,0,0.3,0,0.3c0,0,0.1,0.3,0.1,0.3
	s0.1,0.3,0.1,0.3l0.2,0.2l0.3,0.1H56l0.2-0.1l0.2-0.2l0.1-0.2l0.1-0.3l0.1,0.2l0.2,0.3l0.3,0.2l0.3,0l0.3-0.1l0.2-0.2l0.1-0.2
	l0.1-0.4l0-0.4l-0.1-0.5l-0.1-0.4l-0.1-0.2l-0.5-0.2l-0.4-0.1l-0.4,0l-0.3,0.1l-0.5,0.1c0,0-0.3,0.1-0.3,0.1c0,0-0.3,0.1-0.3,0.1
	L55.2,113.4z"/>
<polygon class="st2" points="49.4,110.3 48.9,109.8 48.6,109.3 48.3,108.9 48.2,108.5 48.1,108 48,107.5 48,107 48.1,106.4 
	48.3,105.9 48.8,105.1 49.1,104.7 49.9,104.1 50.3,103.9 51.1,103.7 51.9,103.6 52.8,103.7 53.7,104.1 54.5,104.7 55.1,105.5 
	55.4,106.3 55.6,107 55.6,107.8 55.4,108.4 55.2,109.1 55,109.4 54.8,109.7 54.4,110.1 53.6,110 52.9,109.8 52.2,109.8 51.4,109.8 
	50.8,110 50,110.1 "/>
<polygon class="st2" points="59.2,110.1 58.8,109.7 58.4,109.3 58,108.8 57.7,108.3 57.6,107.7 57.6,107.2 57.6,106.7 57.7,106.1 
	57.8,105.5 58.1,104.9 58.5,104.4 59.2,103.8 59.9,103.5 60.6,103.2 61.2,103.2 61.9,103.2 62.8,103.5 63.6,103.9 64.1,104.4 
	64.6,105.1 64.8,105.5 65,106.1 65.1,107 65.1,107.4 64.9,108.1 64.6,108.8 64.2,109.4 63.9,109.7 63.5,109.5 62.9,109.4 
	62.4,109.3 61.9,109.3 61.4,109.3 60.9,109.4 60.4,109.5 59.9,109.8 59.4,110 "/>
<path class="st3" d="M61.2,100l-1.8-0.4l-2.2-0.2h-2.3l-2.1,0.2l-1.5,0.3l-1.5,0.4l-0.2-0.7L49,99.2l-0.5-0.3L48,98.6l-0.5-0.2
	l0.9-1.5l1.2-1.7l1.1-1.4l1.9-2l2.6-2l2.5-1.6l2.4-1.1l2.9-1l3-0.5l2.7-0.3c0,0,3.4,0.1,3.5,0.1c0.1,0,3.1,0.5,3.3,0.6
	s3.4,1.1,3.5,1.1s3.1,1.5,3.1,1.5l2.3,1.6l1.8,1.4l1.6,1.6l2.1,2.6l1.6,2.6l1.4,3l0.9,3.2l0.5,2.9l0.1,4.2l-0.2,2.1l-0.5,2.8l-1,2.9
	l-1.1,2.5l-2.3,3.4l-2.5,2.6l-2.6,2.2l-2,1.5l-0.9,0.4l0.6-0.8l0-0.5l-0.3-0.3l-0.2-0.3l-0.5-0.1l-0.6,0c0,0-0.5,0.2-0.5,0.1
	s0.3-2,0.3-2l0.1-1.5l0-1v-0.8l-0.2-1l-0.3-0.6l-0.4-1.3l0.9-0.5l0.8-0.4l0.2-0.7l-0.2-0.4l-0.5-0.8l-0.6-0.3l-0.9,0.2l-0.6,0.6
	l-0.3,0.6l-0.5,0l-1.7-0.6l-1.6-0.2l-1.7-0.2l-1.2-0.3l-1.1-0.4l-1-0.8l-0.6-0.9l-0.4-1l-0.2-1.1l-0.1-1.3l0-2.2l0.5,0.3l1,0l0.8,0
	l1.1-0.3l0.6-0.4c0,0,0.5-0.7,0.5-0.6c0,0.1,0.1-0.7,0.1-0.7l-0.1-0.5l-0.4-0.5l-0.6-0.1l-0.5,0.1l-0.6,0.2l-0.8,0.5l-0.7,0.5
	l-0.5,0.5l-0.3,0.4l-0.1-0.1l0-1.3l-0.2-2.1l-0.3-1.3l-0.5-1.2l-0.4-0.8l-0.5-1l0.5-0.4l0.4-0.9l0.1-1l-0.2-1.2l-0.4-0.9l-0.6-0.6
	c0,0-0.8-0.5-0.9-0.5c-0.1,0-0.8-0.2-0.8-0.2l-0.8,0.1l-0.6,0.3l-0.8,0.6L61.5,99L61.2,100z"/>
<path class="st4" d="M68.1,75L67,75.3l-1.4,1l-0.6,1l-0.3,1v1.1l0.2,1.1l1.1,1.6l1.3,0.7l1.4,0.2l1.9-0.3l1-0.9l0.8-1.2l0.3-1.2
	v-1.1l-0.2-0.7l-0.6-1.2l-0.6-0.5l-0.7-0.5v1.2v0.8l0.5,0.7l0.3,0.8c0,0-0.1,0.7-0.1,0.8s-0.2,0.5-0.3,0.6S70.1,81,70.1,81l-0.9,0.2
	c0,0-0.9-0.1-1-0.1s-0.7-0.3-0.7-0.3s-0.5-0.6-0.5-0.7s-0.3-0.8-0.3-0.8s0-0.7,0-0.8s0.2-0.9,0.2-0.9s0.8-0.6,0.8-0.7
	s0.3-0.7,0.3-0.7V75z"/>
<path class="st5" d="M69.6,70.1c0,0-0.9,0.9-0.9,0.9l-0.4,1.6l-0.1,2c0,0-0.2,2-0.2,2.1c0,0.1,0.1,1.7,0,1.8
	c-0.1,0.1,0.3,1.1,0.3,1.2s0.4,0.8,0.4,0.8s0.1,0.6,0.2,0.5s0.7-0.6,0.7-0.7s0.5-1,0.5-1l0.2-1.8l0.2-1.4c0,0,0.1-1.3,0.1-1.4
	c0-0.1,0-1.1,0-1.1s0-1,0-1.2c0-0.2,0-1.3,0-1.3l-0.3-0.9L69.6,70.1z"/>
<path class="st6" d="M69.4,70.1l-0.9,1.2l-0.5,1.9l0.1,1.4L67,75.3l-1.4,1l-0.9,1.2l-0.2,0.7l-12.6-6.9L44,67l-5.4-3.3l-2.1-2
	l-1.2-2.6l0.2-2.6l0.8-2.8l0.9-3.4l6.4-23.7l4.2-16.2l1-2.3L50,6.5L51.2,6l1.2,0.3l0.7-0.9l1.6-0.7h1.4l27.2,0.5l3.1-0.1l1.9,0.3
	L89.7,6L91,7.6l1.5,4.1l6,22.2l3.5,13.2l1.7,8.9l0.2,2.5l-0.4,1.2l-0.8,1c0,0-0.8,0.7-0.9,0.8c-0.1,0.1-0.9,0.7-0.9,0.7L96,65.5
	l-7,4.3l-5.6,3.1l-6.5,3.3L74,77.6l-1.2-0.2l-0.4-0.1l-0.4-0.8l-0.8-0.7l-0.5-0.3l0-2.1l0.2-1.8l-0.5-1.3L69.4,70.1z"/>
<polygon class="st7" points="37.7,62.8 47.1,26.7 51.8,8.4 52.4,6.3 51.2,6 50,6.5 48.7,8 46.4,16.1 42.2,31.7 38.1,47.1 35.8,55 
	35.3,57.6 35.3,59.1 35.9,60.8 "/>
<path class="st7" d="M70.8,67.5c0.5,2.3,1.1,4.1,1.6,5.4c0.7,2.1,1.5,4,1,4.4c-0.2,0.2-0.6,0.1-0.8,0c-0.5-0.2-0.4-0.7-1-1.2
	c-0.5-0.4-0.8-0.3-1-0.6c-0.2-0.3-0.1-0.6,0-0.9c0,0,0.4-1.7,0-3.4c-0.1-0.5-0.2-1-0.6-1.1c-0.4-0.1-0.9,0.4-1,0.5
	c-0.2,0.2-0.5,0.6-0.6,2c-0.2,1.5,0,2.1-0.4,2.4c-0.2,0.1-0.3,0.1-0.8,0.3c-0.5,0.2-0.8,0.4-1.1,0.6c0.6-2.6,0.9-4.4,1.2-5.8
	c0.6-3,0.6-3.1,0.8-3.7c0.2-0.5,0.5-1,0.5-1.6c0-0.6-0.4-0.9-0.7-1.8c-0.2-0.5-0.5-1.2-0.7-2.1c-0.7-2.6-1.4-5.3-2.1-7.9l-2.8-12
	l-2.5-9.6l-1.6-6.7L52.9,5.8c0.2-0.2,0.5-0.5,0.7-0.7C54,5,54.4,4.8,54.7,4.7l0.9-0.1c0.8,4.2,1.7,8.5,2.7,12.8
	c1.7,7.6,3.4,15,5.3,22.2C65.9,48.9,68.4,58.2,70.8,67.5z"/>
<polygon class="st7" points="101.3,61.6 99.3,55.5 97.7,49.9 96.4,45.4 94.1,34.7 91.9,25 89.6,15.3 88.4,11.5 87.1,7.4 86.4,5.2 
	89.1,5.5 90.7,7.3 92.3,11.4 94.6,20.3 97.2,29.5 99.3,36.8 102.3,48.1 103.5,54.5 103.9,57.1 103.9,58.6 103.4,60.1 102.7,60.8 
	101.3,61.9 "/>
<g>
	<g>
		<path class="st8" d="M49.6,125.3c0.6,0.9,1.2,1.7,2,2.4c0.2,0.1,0.4-0.1,0.2-0.2c-0.4-0.3-0.7-0.7-1.1-1.1
			c-0.3-0.4-0.6-0.8-0.9-1.3C49.7,125,49.4,125.1,49.6,125.3L49.6,125.3z"/>
	</g>
</g>
<g>
	<g>
		<path class="st8" d="M87.6,127.4c0.4-0.5,0.8-0.9,1.2-1.4c0.4-0.5,0.8-0.9,1.1-1.4c0.1-0.2-0.2-0.3-0.3-0.2
			c-0.3,0.5-0.7,0.9-1.1,1.4c-0.4,0.5-0.8,0.9-1.2,1.4C87.2,127.3,87.5,127.6,87.6,127.4L87.6,127.4z"/>
	</g>
</g>
<g>
	<g>
		<path class="st8" d="M87.9,127.1c0.7-0.8,1.3-1.6,2-2.5c0.1-0.1,0.1-0.2,0-0.2c-0.1-0.1-0.2-0.1-0.2,0c-0.7,0.8-1.3,1.6-2,2.5
			c-0.1,0.1-0.1,0.2,0,0.2C87.8,127.2,87.9,127.2,87.9,127.1L87.9,127.1z"/>
	</g>
</g>
<g>
	<g>
		<path class="st8" d="M49.3,125c0.5,0.6,0.9,1.3,1.5,1.8c0.6,0.6,1.2,1.2,1.8,1.8c0.2,0.1,0.4-0.1,0.2-0.2
			c-0.6-0.6-1.2-1.2-1.8-1.7c-0.6-0.6-1-1.2-1.5-1.8C49.5,124.7,49.2,124.8,49.3,125L49.3,125z"/>
	</g>
</g>
<g>
	<path class="st1" d="M47.3,118.2l-0.6,0.2l-1.1,0.9l-0.6,0.7l-0.3,0.8l-0.1,0.9l0.2,0.6l0.4,0.4c0.3,0,0.5,0.1,0.8,0.1
		c0.2-0.1,0.3-0.2,0.5-0.3l0.4-0.4c0.2-0.2,0.4-0.5,0.5-0.9c0.1-0.3,0.2-0.5,0.2-0.8c0.1-0.3,0.1-0.5,0.2-0.9c0-0.3,0.1-0.5,0.1-0.8
		c0-0.1,0-0.2-0.1-0.4C47.6,118.2,47.4,118.2,47.3,118.2z"/>
	<g>
		<g>
			<path class="st8" d="M46.7,122.4c0.8-0.8,1-2,1.1-3.1c0.1-0.5,0.1-1.4-0.7-1.2c-0.3,0.1-0.5,0.2-0.8,0.4
				c-0.3,0.2-0.5,0.4-0.8,0.7c-0.6,0.6-1,1.3-1,2.1c0,0.6,0.2,1.2,0.7,1.5C45.8,123.1,46.3,122.8,46.7,122.4
				c0.1-0.1-0.1-0.2-0.1-0.1c-0.3,0.3-0.8,0.6-1.2,0.3c-0.4-0.3-0.6-0.8-0.6-1.3c0-0.7,0.4-1.3,0.9-1.9c0.4-0.4,0.8-0.9,1.3-1.1
				c0.1-0.1,0.4-0.1,0.5,0c0.2,0.2,0.2,0.5,0.1,0.8c-0.1,1.1-0.3,2.3-1.1,3.2C46.5,122.4,46.6,122.5,46.7,122.4z"/>
		</g>
	</g>
</g>
<g>
	<path class="st1" d="M68.1,111.5l0.6,0.2l1.4,0l0.9-0.2l0.7-0.4l0.6-0.6l0.2-0.6l0-0.5c-0.2-0.2-0.3-0.4-0.5-0.6
		c-0.2,0-0.4-0.1-0.6-0.1l-0.5,0.1c-0.3,0.1-0.6,0.2-0.9,0.4c-0.3,0.2-0.5,0.3-0.6,0.5c-0.2,0.2-0.5,0.3-0.7,0.6
		c-0.2,0.2-0.4,0.4-0.5,0.6c0,0-0.1,0.2-0.1,0.4C68,111.3,68.1,111.4,68.1,111.5z"/>
	<g>
		<g>
			<path class="st8" d="M71.2,108.5c-0.6,0.1-1.2,0.4-1.7,0.8c-0.5,0.4-0.9,0.8-1.3,1.2c-0.2,0.2-0.4,0.5-0.3,0.8
				c0.1,0.2,0.3,0.3,0.5,0.4c0.6,0.2,1.3,0.1,2,0c0.8-0.1,1.6-0.5,2.1-1.3c0.3-0.4,0.4-1,0.1-1.5C72.2,108.5,71.7,108.4,71.2,108.5
				c-0.1,0-0.1,0.2,0.1,0.2c0.4-0.1,0.9,0,1.1,0.4c0.2,0.4,0.1,0.9-0.2,1.2c-0.4,0.6-1.1,1-1.9,1.1c-0.6,0.1-1.2,0.2-1.7,0.1
				c-0.2,0-0.4-0.1-0.5-0.3c-0.1-0.2,0.1-0.4,0.2-0.6c0.3-0.4,0.8-0.9,1.2-1.2c0.5-0.4,1.1-0.7,1.7-0.8
				C71.4,108.7,71.3,108.5,71.2,108.5z"/>
		</g>
	</g>
</g>
<g>
	<g>
		<path class="st8" d="M44.4,120.8c0,0.1,0.1,0.2,0.1,0.4c0,0,0,0.1,0.1,0.1c0,0,0.1,0,0.1,0c0.1,0,0.1-0.1,0.1-0.2
			c0-0.1-0.1-0.2-0.1-0.4c0,0,0-0.1-0.1-0.1c0,0-0.1,0-0.1,0C44.4,120.7,44.4,120.8,44.4,120.8L44.4,120.8z"/>
	</g>
</g>
<g>
	<g>
		<path class="st8" d="M45.5,122.8c-0.1-0.8,0.1-1.6,0.5-2.3c0.1-0.1-0.1-0.2-0.2-0.1c-0.4,0.7-0.6,1.5-0.5,2.4
			C45.3,122.9,45.5,122.9,45.5,122.8L45.5,122.8z"/>
	</g>
</g>
<g>
	<g>
		<path class="st8" d="M52.6,6.1c4.9,16.3,8.6,32.9,12.7,49.4c0.6,2.2,1,4.5,1.8,6.6c0.8,2,1.8,3.8,3,5.5c0.2,0.3,0.8,0,0.6-0.3
			c-1.1-1.6-2.2-3.3-2.9-5.2c-0.7-1.9-1.2-3.9-1.7-5.9c-1-4.1-2-8.2-3-12.3c-2-8.1-3.9-16.3-6.1-24.4c-1.2-4.6-2.5-9.1-3.9-13.6
			C53.1,5.5,52.5,5.7,52.6,6.1L52.6,6.1z"/>
	</g>
</g>
<g>
	<g>
		<path class="st8" d="M72.7,77.6c1.1,1,3-0.5,4.1-1c2.1-1,4.1-2,6.2-3.1c4.1-2.2,8.2-4.5,12.1-7c2-1.3,4-2.6,5.9-4
			c1.4-1,2.9-2,3.2-3.7c0.4-2-0.3-4.3-0.6-6.3c-0.4-2.4-1-4.7-1.5-7.1c-2.3-9.6-5.3-18.9-7.8-28.5c-0.6-2.2-1-4.3-1.7-6.4
			c-0.5-1.5-1-3.4-2.2-4.5c-2.1-2-5.7-1.2-8.3-1.1c-5.5,0.1-11-0.3-16.5-0.4c-2.8-0.1-5.6-0.1-8.3-0.2c-1.5,0-3.7-0.3-4.5,1.3
			C52.4,6,53,6.4,53.2,6C54,4.3,57.5,5,59,5.1c2.2,0.1,4.4,0.1,6.6,0.2c4.4,0.1,8.8,0.2,13.2,0.3c1.7,0,3.4,0.1,5.1,0
			c1.4-0.1,3-0.2,4.4,0.3c1.8,0.6,2.4,2.3,3.1,4c0.7,1.8,1.1,3.7,1.6,5.6c2.1,8.4,4.6,16.6,6.8,24.9c1.1,4.2,2.2,8.4,3,12.7
			c0.4,2.1,1.3,5,0.1,6.9c-1,1.6-3.3,2.7-4.9,3.8c-3.9,2.6-7.9,5-11.9,7.3c-2,1.1-4,2.2-6.1,3.2c-1,0.5-2.1,1-3.1,1.5
			c-0.7,0.3-3.2,1.9-3.9,1.4C72.8,76.9,72.3,77.3,72.7,77.6L72.7,77.6z"/>
	</g>
</g>
<g>
	<g>
		<path class="st8" d="M52.5,6c-1-0.3-1.9-0.6-2.7,0.2c-1,1-1.8,2.2-2.2,3.7c-0.9,3.4-1.7,6.9-2.6,10.3c-1.7,6.6-3.5,13.2-5.2,19.7
			c-0.9,3.4-1.8,6.8-2.8,10.2c-0.4,1.6-0.9,3.1-1.3,4.7c-0.4,1.4-0.8,2.7-0.6,4.1c0.5,4.3,5.6,6.3,8.8,8.3c3.2,1.9,6.6,3.6,9.9,5.4
			c3.5,2,7.1,3.9,10.6,5.9c0.4,0.2,0.7-0.4,0.3-0.6c-5.6-3.1-11.3-6.2-16.9-9.2c-2.3-1.2-4.4-2.6-6.7-3.9c-1.8-1-3.7-2.2-4.8-4.1
			c-1.5-2.6-0.1-5.5,0.6-8.2c0.8-3.1,1.7-6.2,2.5-9.3c1.6-5.9,3.2-11.9,4.8-17.9c0.9-3.4,1.8-6.8,2.6-10.2c0.5-1.9,0.8-3.8,1.5-5.6
			c0.3-0.9,0.7-1.7,1.4-2.4c0.7-0.8,1.6-0.9,2.6-0.6C52.7,6.8,52.9,6.1,52.5,6L52.5,6z"/>
	</g>
</g>
<g>
	<g>
		<path class="st8" d="M68.4,75.7c0.2-0.8,0.2-1.7,0.2-2.6c0-0.8,0.1-1.7,0.6-2.3c0.1-0.2,0.7-0.7,0.9-0.5c0.1,0.1,0.1,0.2,0.1,0.3
			c0,0.2,0,0.5,0.1,0.7c0,0.4,0,0.9,0,1.3c0,1,0,2.1-0.1,3.1c0,0.4,0.6,0.4,0.7,0c0.1-1,0.2-2.1,0.1-3.2c0-0.5,0-1.1-0.1-1.6
			c0-0.4,0-0.8-0.3-1.2c-0.4-0.5-1.1-0.2-1.5,0.1c-0.7,0.5-1,1.3-1.1,2.1c-0.2,1.1,0,2.3-0.3,3.4C67.7,76,68.3,76.2,68.4,75.7
			L68.4,75.7z"/>
	</g>
</g>
<g>
	<g>
		<path class="st8" d="M52.9,5.4c-1.4,1.4-1.6,3.6-2.1,5.4c-0.6,2.4-1.3,4.8-1.9,7.2c-1.3,4.9-2.5,9.8-3.8,14.7
			c-2.6,9.9-5.1,19.8-7.7,29.7c-0.1,0.4,0.5,0.6,0.6,0.2c2.5-9.6,5-19.2,7.5-28.7c1.2-4.7,2.5-9.5,3.7-14.2c0.6-2.4,1.3-4.8,1.9-7.2
			c0.3-1.1,0.6-2.3,0.9-3.4c0.3-1.2,0.6-2.3,1.4-3.2C53.7,5.6,53.2,5.1,52.9,5.4L52.9,5.4z"/>
	</g>
</g>
<g>
	<g>
		<path class="st8" d="M55.1,4.8c4.2,19.6,9,39.1,14.2,58.5c0.7,2.8,1.5,5.5,2.3,8.2c0.3,1.1,0.6,2.2,0.9,3.2
			c0.1,0.3,0.9,2.2,0.4,2.2c-0.4,0-0.4,0.7,0,0.7c1.3,0,0.8-1.4,0.6-2.2c-0.7-2-1.3-4.1-1.8-6.2c-1.4-5.1-2.8-10.2-4.1-15.4
			c-2.7-10.4-5.3-20.9-7.8-31.3c-1.4-6-2.7-11.9-4-17.9C55.6,4.2,55,4.4,55.1,4.8L55.1,4.8z"/>
	</g>
</g>
<g>
	<g>
		<path class="st8" d="M68.3,64.3c-1,3.8-1.8,7.6-2.5,11.4c-0.1,0.4,0.6,0.6,0.6,0.2c0.7-3.8,1.6-7.6,2.5-11.4
			C69,64.1,68.4,63.9,68.3,64.3L68.3,64.3z"/>
	</g>
</g>
<g>
	<g>
		<path class="st8" d="M86.3,5.5c3.4,8.9,5.2,18.4,7.2,27.7c2.1,9.5,4.3,19,7.6,28.2c0.1,0.2,0.4,0.1,0.3-0.1
			c-3.3-9.2-5.5-18.7-7.6-28.2c-2-9.3-3.8-18.8-7.2-27.7C86.5,5.2,86.2,5.3,86.3,5.5L86.3,5.5z"/>
	</g>
</g>
<g>
	<g>
		<path class="st8" d="M70.2,75.3c-0.2,1.8,0.3,4.2-1.4,5.4c0.1,0,0.3,0,0.4,0.1c-1.5-1.3-1-3.7-0.7-5.5c0-0.2-0.2-0.3-0.3-0.3
			c-0.2,0-0.3,0.2-0.3,0.3c-0.3,1.9-0.8,4.5,0.9,5.9c0.1,0.1,0.3,0.1,0.4,0.1c2-1.4,1.5-3.9,1.7-6C70.9,74.9,70.3,74.9,70.2,75.3
			L70.2,75.3z"/>
	</g>
</g>
<g>
	<path class="st8" d="M70.8,75.2c0,0.2,0,0.4,0,0.6c1.1,0.7,1.8,1.9,1.8,3.3c0,2.1-1.7,3.8-3.8,3.8c-2.1,0-3.8-1.7-3.8-3.8
		c0-1.9,1.4-3.5,3.2-3.8c0-0.2,0.1-0.4,0.1-0.6c-2.2,0.2-3.9,2.1-3.9,4.3c0,2.4,2,4.4,4.4,4.4c2.4,0,4.4-2,4.4-4.4
		C73.1,77.4,72.1,75.9,70.8,75.2z"/>
</g>
<g>
	<path class="st8" d="M44.1,102.4c-0.2-0.2-0.3-0.5-0.3-0.8c-0.9,2.8-1.5,5.7-1.5,8.8c0,3.9,0.8,7.6,2.3,10.9c0-0.3,0.1-0.6,0.2-0.8
		c-1.3-3.1-2-6.6-2-10.2C42.8,107.7,43.2,104.9,44.1,102.4z"/>
	<path class="st8" d="M69.6,83.1c-10.9,0-20.4,6.4-24.7,15.7c0.1,0,0.2-0.1,0.3-0.1c0,0,0,0,0,0c0.1,0,0.2-0.1,0.4-0.1
		c4.4-8.9,13.5-15,24.1-15c14.8,0,26.8,12,26.8,26.8s-12,26.8-26.8,26.8c-10.3,0-19.3-5.9-23.8-14.5c-0.2,0-0.5-0.1-0.7-0.2
		c4.5,9,13.8,15.2,24.5,15.2c15.1,0,27.3-12.3,27.3-27.3S84.7,83.1,69.6,83.1z"/>
</g>
<path class="st8" d="M47.4,121.3c0,0.1-0.1,0.2-0.1,0.2c0,0,0,0,0,0c0,0,0,0,0,0.1c0,0,0,0,0,0c0,0,0,0.1-0.1,0.1
	c0.7,1.4,1.5,2.7,2.5,3.9c0.1,0,0.2,0,0.3,0c0-0.1,0-0.1,0-0.2C49,124.1,48.1,122.7,47.4,121.3z"/>
<path class="st8" d="M69.4,85c-9.7,0-18.1,5.5-22.3,13.5c0.1,0,0.3,0,0.4,0c4.2-7.8,12.4-13.2,21.9-13.2c13.6,0,24.7,11.1,24.7,24.7
	c0,5.4-1.8,10.5-4.7,14.5c0,0.1,0,0.1,0,0.2c0.1,0,0.2,0,0.3,0c0,0,0,0,0.1,0c3-4.1,4.8-9.2,4.8-14.7C94.6,96.3,83.3,85,69.4,85z"/>
<path class="st8" d="M45.6,103.7c-0.1,0-0.2-0.1-0.3-0.1c-0.6,2.1-0.9,4.3-0.9,6.6c0,3.1,0.6,6.1,1.6,8.9c0.1-0.1,0.1-0.2,0.2-0.2
	l0.1-0.1c-1-2.7-1.5-5.5-1.5-8.6C44.7,107.9,45,105.7,45.6,103.7z"/>
<path class="st8" d="M87.7,127c0,0-0.1-0.1-0.1-0.1c-4.5,4.9-11,8-18.1,8c-6.8,0-13-2.8-17.5-7.3c0,0-0.1,0-0.1,0
	c-0.1,0-0.2,0-0.3,0c0,0,0,0.1,0,0.1c4.6,4.7,10.9,7.6,17.9,7.6c7.3,0,13.8-3.1,18.4-8.1C87.8,127.1,87.7,127.1,87.7,127z"/>
<g>
	<g>
		<path class="st8" d="M45.1,103.5c-1.4-0.8-1.9-2.6-0.8-3.9c0.8-1,2.3-1.2,3.5-0.8c0.7,0.2,1.7,0.7,1.8,1.6c0,0.2,0.4,0.1,0.3-0.1
			c-0.2-0.9-1-1.3-1.7-1.6c-0.7-0.3-1.4-0.4-2.1-0.3c-1.5,0.2-2.8,1.4-2.7,3c0.1,1,0.7,1.9,1.6,2.4
			C45.2,103.9,45.3,103.6,45.1,103.5L45.1,103.5z"/>
	</g>
</g>
<path class="st8" d="M47.5,101.6c0.2-0.4,0-1-0.4-1.2c-0.4-0.2-1,0-1.2,0.4c-0.2,0.4,0,1,0.4,1.2C46.7,102.2,47.3,102,47.5,101.6z"
	/>
<text transform="matrix(1.0144 0 0 1 59.2407 94.5)" class="st9 st10 st11">SPEAKER</text>
<g>
	<g>
		<path class="st8" d="M51.9,127.8C51.9,127.7,51.9,127.7,51.9,127.8c0-0.1,0-0.1,0-0.2c0,0,0,0,0-0.1c0,0-0.1,0-0.1,0
			c0,0,0,0-0.1,0c0,0,0,0-0.1,0c0,0,0,0,0,0c0,0,0,0,0,0.1c0,0,0,0.1,0,0.1c0,0,0.1,0.1,0.1,0.1c0,0,0,0,0,0c0,0,0,0,0,0
			c0,0,0,0,0,0c0,0,0,0,0,0c0,0,0,0,0,0c0,0,0,0,0,0c0,0,0,0,0,0c0,0,0,0,0,0c0,0,0,0,0,0c0,0,0,0,0,0c0,0,0,0,0,0c0,0,0,0,0,0
			c0,0,0,0,0,0c0,0,0,0,0,0c0,0,0,0,0,0c0,0,0,0,0,0.1c0,0,0,0,0,0.1c0,0,0,0,0,0.1c0,0,0,0,0,0C51.7,127.8,51.8,127.8,51.9,127.8
			C51.9,127.8,51.9,127.8,51.9,127.8L51.9,127.8z"/>
	</g>
</g>
<g>
	<g>
		<path class="st8" d="M70.5,77.9C70.5,77.9,70.5,77.8,70.5,77.9c0,0.1,0.1,0.1,0.1,0.2c0,0.1,0.1,0.2,0.1,0.3
			c0.1,0.2,0.2,0.4,0.2,0.7c0.1,0.4,0,0.8-0.2,1.1c-0.4,0.5-1.1,0.7-1.7,0.8c-0.6,0-1.2-0.1-1.5-0.6c-0.3-0.5-0.4-1.1-0.4-1.7
			c0-0.6,0.3-1.2,0.9-1.4c0.4-0.1,0.2-0.8-0.2-0.6c-0.8,0.3-1.2,0.9-1.4,1.7c-0.1,0.8,0,1.7,0.4,2.3c1,1.4,3.5,1.2,4.4-0.1
			c0.4-0.5,0.4-1.1,0.3-1.7c-0.1-0.3-0.2-0.6-0.3-0.9c-0.1-0.3-0.2-0.6-0.6-0.7C70.3,77.2,70.1,77.8,70.5,77.9L70.5,77.9z"/>
	</g>
</g>
<g>
	<g>
		<path class="st8" d="M78.2,132.9c-0.3,0.3-0.6,0.6-1,0.8c-0.1,0-0.1,0.1-0.1,0.2c0,0.1,0.1,0.1,0.2,0.1c0.4-0.2,0.8-0.5,1.1-0.9
			c0.1-0.1,0.1-0.2,0-0.2C78.4,132.8,78.2,132.8,78.2,132.9L78.2,132.9z"/>
	</g>
</g>
<g>
	<g>
		<path class="st8" d="M79.2,122.3c1.1,2.4,0.9,5.3,0.3,7.8c0,0.2,0.3,0.3,0.3,0.1c0.6-2.6,0.8-5.6-0.3-8.1
			C79.4,121.9,79.1,122.1,79.2,122.3L79.2,122.3z"/>
	</g>
</g>
<g>
	<g>
		<path class="st8" d="M45.4,104.5c1.9-4.2,6.9-4.9,11-4.9c4.6,0,9.1,1.4,10.6,6.2c0.7,2.3,0.6,4.7,0.7,7.1c0,1.6,0,3.5,1.1,4.8
			c2.1,2.7,6.1,1.5,8.8,2.9c0.2,0.1,0.4-0.2,0.2-0.3c-2.5-1.3-5.9-0.4-8.1-2.2c-1.7-1.4-1.6-3.6-1.6-5.6c0-1.9,0-3.8-0.4-5.6
			c-0.5-2.8-2.1-5.3-4.7-6.5c-3.1-1.4-6.9-1.3-10.2-0.9c-3.1,0.4-6.2,1.8-7.6,4.8C45.1,104.5,45.3,104.7,45.4,104.5L45.4,104.5z"/>
	</g>
</g>
<g>
	<g>
		<path class="st8" d="M61.3,99.9c0.2-1.5,1.5-2.7,3-2.3c1.4,0.3,2.3,1.7,2.3,3c0,0.7-0.1,1.7-0.7,2.2c-0.2,0.1,0,0.4,0.2,0.3
			c0.7-0.5,0.8-1.3,0.9-2c0.1-0.8-0.1-1.6-0.5-2.3c-0.8-1.3-2.6-2.1-4-1.2c-0.8,0.5-1.3,1.3-1.4,2.3C61,100.1,61.3,100.1,61.3,99.9
			L61.3,99.9z"/>
	</g>
</g>
<path class="st8" d="M64,101.3c0.5,0,0.9-0.3,0.9-0.8c0-0.5-0.3-0.9-0.8-0.9c-0.5,0-0.9,0.3-0.9,0.8C63.2,100.9,63.5,101.3,64,101.3
	z"/>
<g>
	<g>
		<path class="st8" d="M77.8,121.9c0,0.3,0.3,0.5,0.6,0.6c0.4,0,0.8-0.2,1.2-0.4c0.4-0.2,0.8-0.4,1.2-0.7c0.3-0.2,0.5-0.4,0.5-0.8
			c0-0.4-0.3-0.7-0.5-1c-0.2-0.3-0.5-0.5-0.8-0.7c-0.7-0.3-1.3,0.2-1.7,0.7c-0.2,0.3-0.4,0.7-0.6,1.1c-0.1,0.4-0.2,0.9,0,1.3
			c0.1,0.1,0.2,0,0.2-0.1c-0.3-0.6,0.1-1.4,0.4-1.9c0.3-0.5,0.7-1,1.3-1c0.6,0,1,0.6,1.3,1.1c0.2,0.3,0.3,0.6,0,0.9
			c-0.2,0.2-0.6,0.4-0.9,0.5c-0.4,0.2-0.7,0.4-1.1,0.6c-0.2,0.1-0.4,0.2-0.6,0.1c-0.2,0-0.3-0.2-0.4-0.4
			C77.9,121.8,77.7,121.8,77.8,121.9L77.8,121.9z"/>
	</g>
</g>
<g>
	<g>
		<path class="st8" d="M80.9,131.1c0.3-0.1,0.5-0.3,0.7-0.5c0.1-0.1,0.1-0.2,0-0.2c-0.5-0.6-1.4-0.4-2-0.1c-0.5,0.2-0.9,0.4-1.3,0.7
			c-0.3,0.2-0.7,0.5-0.8,1c-0.1,0.4,0,0.7,0.3,1c0.3,0.2,0.6,0.2,0.9,0.2c0.4,0,0.8-0.2,1.2-0.3c0.5-0.2,0.9-0.4,1.3-0.7
			c0.3-0.2,0.7-0.5,0.8-0.9c0-0.3-0.1-0.8-0.5-0.8c-0.2,0-0.3,0.3-0.1,0.3c0.3,0,0.3,0.4,0.2,0.6c-0.2,0.3-0.5,0.4-0.7,0.6
			c-0.6,0.3-1.3,0.7-2,0.8c-0.3,0.1-0.6,0.1-0.8,0c-0.3-0.1-0.4-0.5-0.3-0.8c0.1-0.3,0.4-0.6,0.7-0.8c0.3-0.2,0.6-0.4,1-0.6
			c0.5-0.3,1.4-0.6,1.9,0c0-0.1,0-0.2,0-0.2c-0.1,0.2-0.3,0.3-0.5,0.4C80.6,130.9,80.7,131.2,80.9,131.1L80.9,131.1z"/>
	</g>
</g>
<text transform="matrix(1.0144 0 0 1 70.6982 104.3652)" class="st9 st10 st11">AWARD</text>
<g>
	<g>
		<path class="st8" d="M80.4,119.5c-0.4,0.2-0.7,0.5-1,0.9c-0.1,0.1,0.1,0.2,0.2,0.1c0.2-0.4,0.5-0.7,0.9-0.9
			C80.6,119.6,80.5,119.4,80.4,119.5L80.4,119.5z"/>
	</g>
</g>
<g>
	<g>
		<path class="st8" d="M72.4,109.1c-0.3-0.2-0.7,0.1-0.9,0.3c-0.3,0.2-0.5,0.5-0.8,0.7c-0.1,0.1,0.1,0.2,0.1,0.1
			c0.2-0.2,0.4-0.5,0.7-0.7c0.2-0.2,0.5-0.4,0.8-0.3C72.4,109.3,72.5,109.1,72.4,109.1L72.4,109.1z"/>
	</g>
</g>
<g>
	<path class="st8" d="M55.1,110.9c0,0,0.1,0,0.1,0c0,0,0-0.1,0-0.1c-0.1,0.1-0.2,0-0.3,0.1c-0.2,0.1-0.4,0.2-0.5,0.4
		c-0.3,0.3-0.6,0.6-0.8,0.9c-0.3,0.9,0.8,1.4,1.5,1.3c0.6,0,1.2-0.3,1.8-0.4c0.6-0.1,1.1,0.2,1.7,0.3c0.7,0.2,1.5-0.2,1.4-1.1
		c-0.1-0.9-1.3-1.4-2.1-1.7c-0.1,0-0.1,0.1,0,0.1c0.8,0.3,2.3,0.9,2,2c-0.2,0.8-1,0.7-1.6,0.5c-0.4-0.1-0.8-0.2-1.3-0.2
		c-0.5,0.1-1.1,0.3-1.6,0.4c-0.6,0.1-1.8-0.1-1.7-0.9c0.1-0.5,0.6-0.9,1-1.2c0.1-0.1,0.3-0.2,0.4-0.2c0.1,0,0.2,0,0.3-0.1
		c0,0,0-0.1,0-0.1c-0.1,0-0.1,0-0.1,0C54.9,110.8,55,110.9,55.1,110.9L55.1,110.9z"/>
	<path class="st8" d="M58.1,113.3c0.2,0.5,0.3,1.3,0.1,1.8c-0.2,0.4-0.7,0.7-1.1,0.4c-0.2-0.1-0.2-0.3-0.4-0.6c0-0.1-0.1,0-0.1,0.1
		c0.1,0.2,0.2,0.5,0.5,0.7c0.3,0.1,0.6,0.1,0.9-0.1c0.7-0.5,0.5-1.7,0.2-2.3C58.2,113.2,58.1,113.2,58.1,113.3L58.1,113.3z"/>
	<path class="st8" d="M59.2,110.1L59.2,110.1c-1.1-0.7-1.7-1.9-1.7-3.2c0-2.1,1.7-3.8,3.8-3.8c2.1,0,3.8,1.7,3.8,3.8
		c0,1.1-0.4,2-1.2,2.8l0,0l0,0c-0.6-0.2-1.2-0.3-1.8-0.4c-0.7,0-1.3,0.1-2,0.3c-0.1,0-0.2,0.1-0.4,0.2
		C59.6,110,59.4,110.1,59.2,110.1L59.2,110.1z M61.3,103.2c-2,0-3.7,1.7-3.7,3.7c0,1.2,0.6,2.3,1.6,3c0.2-0.1,0.4-0.2,0.6-0.2
		c0.1-0.1,0.2-0.1,0.4-0.2c0.7-0.3,1.3-0.4,2.1-0.4c0.6,0,1.1,0.1,1.8,0.4c0.7-0.7,1.1-1.6,1.1-2.6C65,104.9,63.4,103.2,61.3,103.2z
		"/>
	<path class="st8" d="M49.4,110.4L49.4,110.4c-1-0.8-1.5-1.9-1.5-3c0-2.1,1.7-3.8,3.8-3.8c2.1,0,3.8,1.7,3.8,3.8
		c0,1.1-0.5,2.1-1.2,2.8l0,0l0,0c-0.5-0.2-1.1-0.3-1.6-0.3C51.7,109.8,50.6,110,49.4,110.4L49.4,110.4z M51.8,103.7
		c-2,0-3.7,1.7-3.7,3.7c0,1.1,0.5,2.2,1.4,2.9c1.1-0.4,2.2-0.6,3.3-0.5c0.5,0,1.1,0.1,1.6,0.3c0.7-0.7,1.2-1.7,1.2-2.7
		C55.5,105.3,53.8,103.7,51.8,103.7z"/>
	<path class="st8" d="M58.3,110.4c0-0.5-0.8-0.9-1.7-0.9c-0.9,0-1.7,0.4-1.7,0.9c0,0.5,0.8,0.9,1.7,0.9
		C57.5,111.4,58.3,111,58.3,110.4z"/>
	<path class="st8" d="M60.1,107c0,0.7,0.6,1.2,1.2,1.2c0.7,0,1.2-0.6,1.2-1.2c0-0.7-0.6-1.2-1.2-1.2C60.6,105.7,60.1,106.3,60.1,107
		z M62.1,106.5c0,0.2-0.2,0.3-0.3,0.3c-0.2,0-0.3-0.2-0.3-0.3c0-0.2,0.2-0.3,0.3-0.3C61.9,106.1,62.1,106.3,62.1,106.5z"/>
	<path class="st8" d="M50.9,108.1c0.5,0.5,1.3,0.5,1.7,0c0.5-0.5,0.5-1.3,0-1.7c-0.5-0.5-1.3-0.5-1.7,0
		C50.4,106.8,50.4,107.6,50.9,108.1z M52,106.3c0.1,0.1,0.1,0.4,0,0.5c-0.1,0.1-0.4,0.1-0.5,0c-0.1-0.1-0.1-0.4,0-0.5
		C51.6,106.1,51.9,106.1,52,106.3z"/>
	<path class="st8" d="M56.7,113c0.1,0.5,0.1,1.1,0,1.6c0,0.3-0.1,0.6-0.3,0.9c-0.3,0.2-0.7,0.2-0.9,0c-0.5-0.5-0.4-1.5-0.2-2.1
		c0-0.1-0.1-0.1-0.1,0c-0.2,0.7-0.4,2.2,0.6,2.4c0.5,0.1,0.8-0.1,1-0.5c0.2-0.4,0.2-0.8,0.2-1.1c0-0.4,0-0.7,0-1.1
		C56.8,112.9,56.7,113,56.7,113L56.7,113z"/>
	<path class="st8" d="M59,113.4c1.1-0.3,2.2-0.7,2.8-1.7c0-0.1-0.1-0.1-0.1-0.1c-0.6,1-1.7,1.4-2.7,1.7
		C58.9,113.3,58.9,113.4,59,113.4L59,113.4z"/>
	<path class="st8" d="M51.5,112c1,0.8,2.2,1.3,3.4,1.6c0.1,0,0.1-0.1,0-0.1c-1.2-0.3-2.4-0.8-3.4-1.6
		C51.5,111.8,51.4,111.9,51.5,112L51.5,112z"/>
	<path class="st8" d="M54.8,116.3c1.1,0.8,2.7,0.8,3.8,0c0.1,0,0-0.1-0.1-0.1c-1.1,0.8-2.6,0.8-3.6,0
		C54.8,116.2,54.8,116.3,54.8,116.3L54.8,116.3z"/>
	<path class="st8" d="M61.7,111.7c0.3,0.2,0.5,0.5,0.5,0.9c0,0.1,0.1,0.1,0.1,0c0-0.4-0.2-0.8-0.5-1
		C61.7,111.6,61.7,111.7,61.7,111.7L61.7,111.7z"/>
	<path class="st8" d="M51.5,111.9c-0.3,0.2-0.5,0.5-0.4,0.9c0,0.1-0.1,0.1-0.1,0c0-0.4,0.1-0.8,0.5-1
		C51.5,111.8,51.6,111.9,51.5,111.9L51.5,111.9z"/>
</g>
</svg>
