<?xml version="1.0" encoding="utf-8"?>
<!-- Generator: Adobe Illustrator 24.0.1, SVG Export Plug-In . SVG Version: 6.00 Build 0)  -->
<svg version="1.1" id="Layer_1" xmlns="http://www.w3.org/2000/svg" xmlns:xlink="http://www.w3.org/1999/xlink" x="0px" y="0px"
	 viewBox="0 0 141.7 141.7" style="enable-background:new 0 0 141.7 141.7;" xml:space="preserve">
<style type="text/css">
	.st0{fill:#75CEEB;}
	.st1{fill:#C9B09D;}
	.st2{fill:#FFFFFF;}
	.st3{fill:#FCB353;}
	.st4{fill:#FEE953;}
	.st5{fill:#FEE267;}
	.st6{fill:#C4E8F1;}
	.st7{fill:#089CD3;}
	.st8{fill:#070707;}
	.st9{fill:none;stroke:#070707;stroke-width:0.5283;stroke-miterlimit:10;}
	.st10{fill:#010101;}
	.st11{font-family:'CenturyGothic';}
	.st12{font-size:5.5257px;}
</style>
<g id="Layer_12">
</g>
<g id="Layer_8">
</g>
<g id="Layer_15">
</g>
<g id="Layer_16">
</g>
<path class="st0" d="M53.8,128.3c0-0.8,0-1.7,0-2.5l0-2.4l0-2.1l0.2-2l0.3-1.6l0.2-0.8c0,0-3.4-0.3-3.6-3.4c0,0,0.1-3.4,4.4-4
	c0,0,1.5-0.3,2.8,1c0,0,1.8-2.8,8.6-3.4l5.5-0.6l3.3,0.1l3,0.5l2.2,0.8l2.1,1.4l0.4,0.2l2.1-0.7l1.5-0.1L88,109c0,0,3.1,1.4,1.9,5.1
	l-0.8,1.2l-0.9,0.7l-1.1,0.3l0.4,1.9l0.3,2.4l0.1,2.4l0,3.1l-0.1,1.5l0,0.3c-0.8,0.8-1.8,1.6-3,2.5c-2.9,2.1-5.8,3.2-8,3.8
	c-1.7,0.4-3.8,0.8-6.4,0.8c-3.3,0-6-0.6-8-1.2c-1.4-0.5-3.2-1.2-5.1-2.4C56,130.2,54.8,129.2,53.8,128.3z"/>
<polygon class="st1" points="53.8,124.8 53.2,124.8 52.5,124.8 51.7,125 51.1,125.4 50.5,125.8 50.2,126.2 50,126.7 50,127.2 
	50.2,127.7 51.1,127.9 51.9,127.7 52.6,127.4 53.1,127.1 53.8,126.6 "/>
<path class="st2" d="M68.8,126.1c-0.1,0.6-0.2,1.1-0.2,1.7c0.1,0.4,0.1,0.8,0.2,1.1c0.1,0.1,0.2,0.2,0.3,0.4
	c0.1,0.1,0.3,0.2,0.4,0.2c0.1,0,0.3,0.1,0.5,0.1c0.2,0,0.4-0.1,0.5-0.1c0.1-0.1,0.3-0.2,0.4-0.5c0.1-0.2,0.2-0.5,0.2-0.6
	c0.2,0.3,0.5,0.6,0.7,1c0.1,0,0.2,0.1,0.4,0.1c0.2,0,0.3,0,0.4,0c0.2-0.1,0.4-0.2,0.6-0.4c0.1-0.1,0.2-0.2,0.3-0.3
	c0.1-0.3,0.1-0.6,0.2-0.8c0-0.4,0-0.8-0.1-1.1c-0.1-0.4-0.2-0.7-0.3-1.1c-0.3-0.1-0.7-0.2-1-0.3c-0.3,0-0.6,0-0.9,0
	c-0.3,0.1-0.7,0.1-1,0.2C69.9,125.8,69.3,126,68.8,126.1z"/>
<path class="st1" d="M68.9,122.1c-0.3,0.1-0.5,0.1-0.8,0.2c-0.2,0.1-0.4,0.2-0.6,0.4l-0.3,0.3c-0.1,0.1-0.2,0.2-0.3,0.4
	c-0.1,0.1-0.3,0.3-0.4,0.4c-0.1,0.2-0.2,0.4-0.2,0.6c0,0.1,0,0.3,0,0.4c0,0.1,0,0.3,0.1,0.5c0.1,0.1,0.2,0.3,0.5,0.5
	c0.8,0.5,1.7,0.4,1.9,0.4c0.2,0,0.6-0.1,1-0.3c0.4-0.1,0.7-0.2,1.1-0.3c0.2,0,0.5,0,0.7-0.1c0.3,0,0.6,0.1,0.9,0.1
	c0.4,0.1,0.8,0.3,1.2,0.4c0.3,0,0.7,0,1,0c0.2-0.2,0.5-0.3,0.7-0.5c0.1-0.2,0.2-0.5,0.2-0.8c0-0.7-0.4-1.2-0.5-1.4
	c-0.3-0.2-0.7-0.5-1.1-0.8c-0.4-0.2-0.7-0.4-1-0.5c-0.2,0.2-0.9,0.8-2,0.9C70,122.9,69.1,122.3,68.9,122.1z"/>
<polygon class="st1" points="88,124 88.6,123.8 89.3,123.9 90.2,124.2 90.9,124.6 91.5,125.3 91.9,125.9 92,126.6 91.5,127.2 
	90.8,127.8 90.4,127.8 89.8,127.6 89.4,127.3 89,126.9 88.7,126.7 88.4,126.2 88,125.9 "/>
<polygon class="st3" points="50,127.2 50,126.7 50.2,126.1 50.7,125.7 51.1,125.4 49.8,123.6 48.4,121.2 47.5,119.2 46.8,117.3 
	46.2,115.3 45.7,112.3 45.6,109.5 45.7,108 45.9,106.8 46.1,105.6 46.6,103 47,101.8 47.3,100.9 47.9,99.5 48.7,98 49.2,97 
	49.8,96.2 50.5,95.2 51.3,94.1 52,93.2 53.2,92 54.7,90.6 55.9,89.9 57.1,89 58.8,87.9 60.4,87.2 62.3,86.4 63.8,85.9 65.7,85.5 
	67.8,85.2 69.6,85.1 71.2,85 72.9,85.1 74.7,85.3 76.5,85.7 78.3,86.3 80.3,87 82.2,87.9 83.7,88.7 84.8,89.5 87.2,91.3 88.7,92.8 
	89.9,94.2 90.9,95.6 92,97.3 93.2,99.5 94,101.4 94.7,103.8 95.2,105.8 95.3,107.5 95.5,108.8 95.5,110.6 95.3,112.3 95,114.7 
	94.5,116.9 93.6,119.4 92.4,121.9 91.7,123 91.2,123.9 90.7,124.5 91.4,125.1 91.8,125.6 92,126.2 92,126.5 93.2,125 94.3,123.3 
	95.2,121.3 96,119.4 96.8,117.2 97.3,114.9 97.5,113.3 97.7,110.5 97.6,107.7 97.5,106.2 97,103.6 96.3,101.4 95.4,98.9 94.8,97.7 
	93.2,95 91.5,92.7 89.9,91 88.1,89.3 86.8,88.3 83.8,86.3 81.1,85 78.2,84 75.3,83.3 72.7,82.9 68.8,82.9 65,83.5 62.5,84.2 
	59.8,85.2 56.8,86.8 54,88.6 51.8,90.5 49.2,93.5 47.6,95.8 45.9,99 44.5,103.1 43.8,106.8 43.6,110.5 44,114.9 45,118.6 
	46.2,121.6 48,125 49.9,127.5 "/>
<path class="st3" d="M50.4,127.9l0.4-0.1h0.9l0.5-0.2l0.5-0.2l0.7,0.7l1.1,1l1.6,1.2l1.5,1l1.6,0.9l2,0.9l2.3,0.8l1.8,0.4l1.8,0.4
	l2,0.1h2.1l2.1-0.1l1.6-0.2L77,134l1.5-0.5l2.3-0.8l2-1.1l1.6-1l1.5-1.1l1.3-1.2l0.9-0.8l0.6-0.5l0.1-0.1l0.4,0.4l0.7,0.4l0.9,0.2
	l-0.1,0.4l-0.7,0.8l-0.9,0.8l-1.3,1.2l-2.2,1.6l-1.8,1.1l-1.4,0.7l-2.5,1l-3.1,0.9l-5,0.7c0,0-2.7,0-2.8,0c-0.1,0-3.2-0.4-3.2-0.4
	l-4-1.1l-3.2-1.3l-2.2-1.3l-2.1-1.4l-1.8-1.5L50.4,127.9z"/>
<path class="st2" d="M60.2,121.4c-0.2,0-0.4-0.1-0.8-0.7c-0.3-0.4-0.5-0.6-0.7-0.9c-0.7-1.4-0.7-3-0.7-3c0-0.2,0.1-2,1.2-3.4
	c0.4-0.5,0.9-0.9,0.9-0.9c0.5-0.4,1.2-0.8,1.2-0.8l0,0c0.5-0.2,1.4-0.4,2.4-0.4c0.7,0,1.3,0.2,1.8,0.3c0.4,0.1,2,0.7,3.1,2.4
	c0.9,1.5,0.8,2.9,0.8,3.4c0,0.4-0.1,1.2-0.5,2c-0.4,0.9-1,1.4-1.3,1.7c-0.7-0.2-2.2-0.5-3.8-0.4c0,0-1.3,0-2.5,0.4
	c-0.4,0.1-0.6,0.2-0.6,0.2C60.3,121.4,60.3,121.4,60.2,121.4z"/>
<path class="st2" d="M75,121c-0.3,0.1-0.9-0.3-2-2.2c-0.2-0.5-0.7-1.7-0.5-3.3c0.2-1.7,1.1-2.8,1.5-3.2c0.4-0.4,1.4-1.3,3-1.6
	c1-0.2,1.9-0.1,2.4,0c0.5,0.1,2,0.5,3.2,2c1.1,1.4,1.2,2.9,1.3,3.4c0.1,1.2-0.2,2-0.3,2.2c-0.4,1.1-1.1,1.8-1.4,2.1
	c-0.4-0.1-0.9-0.3-1.6-0.4c-0.6-0.1-1.3-0.2-2.1-0.1c-0.8,0.1-1.5,0.4-1.9,0.5c-0.6,0.2-1.1,0.4-1.1,0.4C75,121,75,121,75,121z"/>
<path class="st3" d="M69.2,74.8l-1.1,0.3l-1.4,1l-0.6,1l-0.3,1v1.1l0.2,1.1l1.1,1.6l1.3,0.7l1.4,0.2l1.9-0.3l1-0.9l0.8-1.2l0.3-1.2
	v-1.1l-0.2-0.7L73,76.3l-0.6-0.5l-0.7-0.5v1.2v0.8l0.5,0.7l0.3,0.8c0,0-0.1,0.7-0.1,0.8s-0.2,0.5-0.3,0.6s-0.8,0.6-0.8,0.6L70.3,81
	c0,0-0.9-0.1-1-0.1c-0.1,0-0.7-0.3-0.7-0.3s-0.5-0.6-0.5-0.7s-0.3-0.8-0.3-0.8s0-0.7,0-0.8s0.2-0.9,0.2-0.9s0.8-0.6,0.8-0.7
	c0-0.2,0.3-0.7,0.3-0.7V74.8z"/>
<path class="st4" d="M70.7,69.9c0,0-0.9,0.9-0.9,0.9l-0.4,1.6l-0.1,2c0,0-0.2,2-0.2,2.1c0,0.1,0.1,1.7,0,1.8s0.3,1.1,0.3,1.2
	c0,0.1,0.4,0.8,0.4,0.8s0.1,0.6,0.2,0.5c0.2-0.1,0.7-0.6,0.7-0.7c0-0.1,0.5-1,0.5-1l0.2-1.8l0.2-1.4c0,0,0.1-1.3,0.1-1.4
	s0-1.1,0-1.1s0-1,0-1.2s0-1.3,0-1.3l-0.3-0.9L70.7,69.9z"/>
<path class="st5" d="M60.7,87l2.1-0.8l2.4-0.6l2.5-0.4l3-0.2l2.3,0.2l2.4,0.3l2,0.5l2.3,0.8c0,0,9.4,3.6,13.4,12.6
	c0,0,4.3,8.1,1.2,18.1c0,0-2.3,5.9-3.6,7l-0.5-0.3l-0.5-0.2l-0.4-0.1l-0.7-0.1L88,124l-0.1-2.9l-0.2-2l-0.2-1.6l-0.3-1.3l1.1-0.3
	l0.9-0.7l0.7-1.1l0.3-1.2l0-1l-0.5-1.4l-0.5-0.8l-0.8-0.6l-0.9-0.4h-1.1c0,0-2.9,0.3-3.2,0.8l-0.7-0.5c0,0-3.2-2.8-9.8-2.6l-3,0.2
	l-1.9,0.2l-3.2,0.5l-1.4,0.3l-1.2,0.3l-1,0.5l-0.9,0.5l-1.1,0.8l-0.7,0.8l-0.6-0.6l-1.2-0.4l-1.3-0.1l-1.2,0.4l-1.1,0.6L52,111
	l-0.5,0.7l-0.4,0.8c0,0-0.2,0.8-0.2,0.8c0,0,0.1,0.9,0.1,0.9l0.4,1l0.7,0.8l1,0.7l0.7,0.1l0.6,0.1c0,0-0.2,0.6-0.2,0.8
	c0,0.2-0.2,1.1-0.2,1.1l-0.1,1.2l-0.2,4.7l-0.6,0l-0.8,0l-0.8,0.2l-0.7,0.2l-1.2-1.8c0,0-4.1-6.2-4-11.9c0,0-1.1-6.9,3.9-15.2
	C49.7,96.4,53.6,90,60.7,87z"/>
<polygon class="st5" points="52.7,127.4 53.7,126.7 53.8,128.2 "/>
<polygon class="st5" points="88,125.8 88.8,126.8 88.1,127.5 "/>
<path class="st6" d="M70.6,69.9l-0.9,1.2L69.2,73l0.1,1.4l-1.2,0.7l-1.4,1l-0.9,1.2L65.6,78L53,71.1l-7.9-4.3l-5.4-3.3l-2.1-2
	l-1.2-2.6l0.2-2.6l0.8-2.8l0.9-3.4l6.4-23.7l4.2-16.2l1-2.3l1.2-1.5l1.2-0.4l1.2,0.3l0.7-0.9l1.6-0.7h1.4L84.4,5L87.5,5l1.9,0.3
	l1.3,0.6l1.3,1.6l1.5,4.1l6,22.2l3.5,13.2l1.7,8.9l0.2,2.5l-0.4,1.2l-0.8,1c0,0-0.8,0.7-0.9,0.8c-0.1,0.1-0.9,0.7-0.9,0.7l-4.9,3.3
	l-7,4.3l-5.6,3.1L78,76l-2.9,1.4l-1.2-0.2l-0.4-0.1L73,76.3l-0.8-0.7l-0.5-0.3l0-2.1l0.2-1.8l-0.5-1.3L70.6,69.9z"/>
<polygon class="st7" points="38.8,62.6 48.2,26.5 52.9,8.2 53.5,6.1 52.3,5.8 51.1,6.3 49.9,7.8 47.5,15.9 43.3,31.5 39.2,46.9 
	36.9,54.8 36.4,57.3 36.4,58.9 37,60.6 "/>
<path class="st7" d="M71.9,67.3c0.5,2.3,1.1,4.1,1.6,5.4c0.7,2.1,1.5,4,1,4.4c-0.2,0.2-0.6,0.1-0.8,0c-0.5-0.2-0.4-0.7-1-1.2
	c-0.5-0.4-0.8-0.3-1-0.6c-0.2-0.3-0.1-0.6,0-0.9c0,0,0.4-1.7,0-3.4c-0.1-0.5-0.2-1-0.6-1.1c-0.4-0.1-0.9,0.4-1,0.5
	c-0.2,0.2-0.5,0.6-0.6,2c-0.2,1.5,0,2.1-0.4,2.4c-0.2,0.1-0.3,0.1-0.8,0.3c-0.5,0.2-0.8,0.4-1.1,0.6c0.6-2.6,0.9-4.4,1.2-5.8
	c0.6-3,0.6-3.1,0.8-3.7c0.2-0.5,0.5-1,0.5-1.6c0-0.6-0.4-0.9-0.7-1.8c-0.2-0.5-0.5-1.2-0.7-2.1c-0.7-2.6-1.4-5.3-2.1-7.9l-2.8-12
	l-2.5-9.6l-1.6-6.7L54,5.6c0.2-0.2,0.5-0.5,0.7-0.7c0.4-0.1,0.7-0.2,1.1-0.4l0.9-0.1c0.8,4.2,1.7,8.5,2.7,12.8
	c1.7,7.6,3.4,15,5.3,22.2C67,48.7,69.5,58,71.9,67.3z"/>
<polygon class="st7" points="102.4,61.4 100.4,55.3 98.8,49.7 97.5,45.2 95.2,34.5 93,24.8 90.7,15.1 89.5,11.3 88.2,7.2 87.5,5 
	90.2,5.3 91.8,7.1 93.4,11.2 95.7,20.1 98.3,29.3 100.4,36.6 103.4,47.8 104.7,54.3 105,56.9 105,58.4 104.5,59.8 103.8,60.6 
	102.4,61.7 "/>
<g>
	<g>
		<path class="st8" d="M53.7,124.7c-0.1,0-0.2,0-0.3,0c-0.1,0-0.3,0-0.4,0c-0.3,0-0.7,0-1,0.1c-0.7,0.2-1.4,0.5-1.8,1.1
			c-0.3,0.4-0.4,1.1-0.1,1.6c0.3,0.5,1,0.5,1.5,0.4c0.8-0.2,1.5-0.7,2.1-1.2c0.1-0.1,0-0.2-0.1-0.1c-0.5,0.4-1,0.8-1.7,1
			c-0.5,0.2-1.3,0.3-1.7-0.2c-0.3-0.4-0.1-1.1,0.2-1.5c0.4-0.5,1.1-0.8,1.8-1c0.3-0.1,0.6-0.1,0.9-0.1c0.2,0,0.5,0.1,0.7,0
			C53.9,124.8,53.8,124.6,53.7,124.7L53.7,124.7z"/>
	</g>
</g>
<g>
	<g>
		<path class="st8" d="M51.6,126.5c-0.4,0.1-0.7,0.2-1,0.5c-0.1,0.1-0.2,0.3-0.2,0.4c0,0.2,0,0.3,0.1,0.5c0.1,0.1,0.2,0,0.2-0.1
			c-0.4-0.6,0.5-1,0.9-1.1C51.8,126.7,51.8,126.5,51.6,126.5L51.6,126.5z"/>
	</g>
</g>
<g>
	<g>
		<path class="st8" d="M88.1,124c1.1-0.2,2.3,0.3,3.1,1.1c0.3,0.3,0.5,0.6,0.7,1c0.1,0.4,0,0.8-0.4,1c-0.1,0.1,0,0.2,0.1,0.2
			c0.3-0.2,0.6-0.4,0.6-0.8c0-0.3-0.1-0.7-0.3-0.9c-0.5-0.7-1.3-1.3-2.1-1.6c-0.5-0.2-1.1-0.2-1.6-0.1C87.9,123.8,88,124,88.1,124
			L88.1,124z"/>
	</g>
</g>
<g>
	<g>
		<path class="st8" d="M90.6,126.4c0.3,0.1,0.6,0.4,0.6,0.7c0.1,0.3-0.2,0.6-0.5,0.6c-0.3,0.1-0.6,0-0.9-0.2
			c-0.3-0.2-0.6-0.4-0.9-0.7c-0.3-0.3-0.5-0.6-0.7-0.9c-0.1-0.1-0.2,0-0.2,0.1c0.2,0.3,0.4,0.6,0.7,0.9c0.3,0.3,0.6,0.6,1,0.8
			c0.3,0.2,0.7,0.3,1,0.1c0.3-0.1,0.6-0.4,0.5-0.8c-0.1-0.4-0.4-0.7-0.8-0.9C90.6,126.2,90.5,126.3,90.6,126.4L90.6,126.4z"/>
	</g>
</g>
<g>
	<g>
		<path class="st8" d="M53.7,5.9c4.9,16.3,8.6,32.9,12.7,49.4c0.6,2.2,1,4.5,1.8,6.6c0.8,2,1.8,3.8,3,5.5c0.2,0.3,0.8,0,0.6-0.3
			c-1.1-1.6-2.2-3.3-2.9-5.2c-0.7-1.9-1.2-3.9-1.7-5.9c-1-4.1-2-8.2-3-12.3c-2-8.1-3.9-16.3-6.1-24.4c-1.2-4.6-2.5-9.1-3.9-13.6
			C54.2,5.3,53.6,5.5,53.7,5.9L53.7,5.9z"/>
	</g>
</g>
<g>
	<g>
		<path class="st8" d="M73.8,77.4c1.1,1,3-0.5,4.1-1c2.1-1,4.1-2,6.2-3.1c4.1-2.2,8.2-4.5,12.1-7c2-1.3,4-2.6,5.9-4
			c1.4-1,2.9-2,3.2-3.7c0.4-2-0.3-4.3-0.6-6.3c-0.4-2.4-1-4.7-1.5-7.1c-2.3-9.6-5.3-18.9-7.8-28.5c-0.6-2.2-1-4.3-1.7-6.4
			c-0.5-1.5-1-3.4-2.2-4.5c-2.1-2-5.7-1.2-8.3-1.1c-5.5,0.1-11-0.3-16.5-0.4c-2.8-0.1-5.6-0.1-8.3-0.2c-1.5,0-3.6-0.3-4.5,1.3
			c-0.2,0.4,0.4,0.7,0.6,0.3c0.8-1.7,4.4-1,5.8-0.9C62.4,4.9,64.6,5,66.8,5c4.4,0.1,8.8,0.2,13.2,0.3c1.7,0,3.4,0.1,5.1,0
			c1.4-0.1,3-0.2,4.4,0.3c1.8,0.6,2.4,2.3,3,4c0.7,1.8,1.1,3.7,1.6,5.6c2.1,8.4,4.6,16.6,6.8,24.9c1.1,4.2,2.2,8.4,3,12.7
			c0.4,2.1,1.3,5,0.1,6.9c-1,1.6-3.3,2.7-4.9,3.8c-3.9,2.6-7.8,5-11.9,7.3c-2,1.1-4,2.2-6.1,3.2c-1,0.5-2.1,1-3.1,1.5
			c-0.7,0.3-3.2,1.9-3.9,1.4C73.9,76.7,73.4,77.1,73.8,77.4L73.8,77.4z"/>
	</g>
</g>
<g>
	<g>
		<path class="st8" d="M53.6,5.8c-1-0.3-1.9-0.6-2.7,0.2c-1,1-1.8,2.2-2.2,3.7c-0.9,3.4-1.7,6.9-2.6,10.3
			c-1.7,6.6-3.5,13.2-5.2,19.7c-0.9,3.4-1.8,6.8-2.8,10.2c-0.4,1.6-0.9,3.1-1.3,4.7c-0.4,1.4-0.8,2.7-0.6,4.1
			c0.5,4.3,5.6,6.3,8.8,8.3c3.2,1.9,6.6,3.6,9.9,5.4c3.5,2,7.1,3.9,10.6,5.9c0.4,0.2,0.7-0.4,0.3-0.6c-5.6-3.1-11.2-6.2-16.9-9.2
			c-2.3-1.2-4.4-2.6-6.7-3.9c-1.8-1-3.7-2.2-4.8-4.1c-1.5-2.6-0.1-5.5,0.6-8.2c0.8-3.1,1.7-6.2,2.5-9.3c1.6-5.9,3.2-11.9,4.8-17.9
			c0.9-3.4,1.8-6.8,2.6-10.2c0.5-1.9,0.8-3.8,1.5-5.6c0.3-0.9,0.7-1.7,1.4-2.4c0.7-0.8,1.6-0.9,2.6-0.6C53.8,6.6,54,5.9,53.6,5.8
			L53.6,5.8z"/>
	</g>
</g>
<g>
	<g>
		<path class="st8" d="M69.5,75.5c0.2-0.8,0.2-1.7,0.2-2.6c0-0.8,0.1-1.7,0.6-2.3c0.1-0.2,0.7-0.7,0.9-0.5c0.1,0.1,0.1,0.2,0.1,0.3
			c0,0.2,0,0.5,0.1,0.7c0,0.4,0,0.9,0,1.3c0,1,0,2.1-0.1,3.1c0,0.4,0.6,0.4,0.7,0c0.1-1,0.2-2.1,0.1-3.2c0-0.5,0-1.1-0.1-1.6
			c0-0.4,0-0.8-0.3-1.2c-0.4-0.5-1.1-0.2-1.5,0.1c-0.7,0.5-1,1.3-1.1,2.1c-0.2,1.1,0,2.3-0.3,3.4C68.8,75.8,69.4,75.9,69.5,75.5
			L69.5,75.5z"/>
	</g>
</g>
<g>
	<g>
		<path class="st8" d="M54,5.2c-1.4,1.4-1.6,3.6-2.1,5.4c-0.6,2.4-1.3,4.8-1.9,7.2c-1.3,4.9-2.5,9.8-3.8,14.7
			c-2.6,9.9-5.1,19.8-7.7,29.7c-0.1,0.4,0.5,0.6,0.6,0.2c2.5-9.6,5-19.2,7.5-28.7c1.2-4.7,2.5-9.5,3.7-14.2c0.6-2.4,1.3-4.8,1.9-7.2
			c0.3-1.1,0.6-2.3,0.9-3.4c0.3-1.2,0.6-2.3,1.4-3.2C54.8,5.4,54.3,4.9,54,5.2L54,5.2z"/>
	</g>
</g>
<g>
	<g>
		<path class="st8" d="M56.2,4.6c4.2,19.6,9,39.1,14.2,58.5c0.7,2.8,1.5,5.5,2.3,8.2c0.3,1.1,0.6,2.2,0.9,3.2
			c0.1,0.3,0.9,2.2,0.4,2.2c-0.4,0-0.4,0.7,0,0.7c1.3,0,0.8-1.4,0.6-2.2c-0.7-2-1.3-4.1-1.8-6.2c-1.4-5.1-2.8-10.2-4.1-15.4
			c-2.7-10.4-5.3-20.8-7.8-31.3c-1.4-6-2.7-11.9-4-17.9C56.7,4,56.1,4.2,56.2,4.6L56.2,4.6z"/>
	</g>
</g>
<g>
	<g>
		<path class="st8" d="M69.4,64.1c-1,3.8-1.8,7.6-2.5,11.4c-0.1,0.4,0.6,0.6,0.6,0.2c0.7-3.8,1.6-7.6,2.5-11.4
			C70.1,63.9,69.5,63.7,69.4,64.1L69.4,64.1z"/>
	</g>
</g>
<g>
	<g>
		<path class="st8" d="M87.4,5.3c3.4,8.9,5.2,18.4,7.2,27.7c2.1,9.5,4.3,19,7.6,28.2c0.1,0.2,0.4,0.1,0.3-0.1
			C99.2,52,97,42.5,94.9,33c-2-9.3-3.8-18.8-7.2-27.7C87.6,5,87.3,5.1,87.4,5.3L87.4,5.3z"/>
	</g>
</g>
<g>
	<g>
		<path class="st8" d="M71.3,75.1c-0.2,1.8,0.3,4.2-1.4,5.4c0.1,0,0.3,0,0.4,0.1c-1.5-1.3-1-3.7-0.7-5.5c0-0.2-0.2-0.3-0.3-0.3
			c-0.2,0-0.3,0.2-0.3,0.3c-0.3,1.9-0.8,4.5,0.9,5.9c0.1,0.1,0.3,0.1,0.4,0.1c2-1.4,1.5-3.9,1.7-6C72,74.7,71.4,74.7,71.3,75.1
			L71.3,75.1z"/>
	</g>
</g>
<g>
	<path class="st8" d="M71.9,75c0,0.2,0,0.4,0,0.6c1.1,0.7,1.8,1.9,1.8,3.3c0,2.1-1.7,3.8-3.8,3.8c-2.1,0-3.8-1.7-3.8-3.8
		c0-1.9,1.4-3.5,3.2-3.8c0-0.2,0.1-0.4,0.1-0.6c-2.2,0.2-3.9,2.1-3.9,4.3c0,2.4,2,4.4,4.4,4.4c2.4,0,4.4-2,4.4-4.4
		C74.2,77.2,73.2,75.7,71.9,75z"/>
</g>
<circle class="st9" cx="70.7" cy="110" r="27.1"/>
<path class="st8" d="M70.6,84.8c-13.8,0-25.1,11.3-25.1,25.1c0,5.8,2,11.2,5.3,15.4c0.1,0,0.2,0,0.3,0c0-0.1,0-0.1,0-0.2
	c-3.3-4.2-5.3-9.5-5.3-15.2c0-13.6,11.1-24.7,24.7-24.7s24.7,11.1,24.7,24.7c0,5.4-1.8,10.5-4.7,14.5c0,0.1,0,0.1,0,0.2
	c0.1,0,0.2,0,0.3,0c0,0,0,0,0.1,0c3-4.1,4.8-9.2,4.8-14.7C95.7,96.1,84.4,84.8,70.6,84.8z"/>
<path class="st8" d="M88.8,126.8c0,0-0.1-0.1-0.1-0.1c-4.5,4.9-11,8-18.1,8c-6.8,0-13-2.8-17.5-7.3c0,0-0.1,0-0.1,0
	c-0.1,0-0.2,0-0.3,0c0,0,0,0.1,0,0.1c4.6,4.7,10.9,7.6,17.9,7.6c7.3,0,13.8-3.1,18.4-8.1C88.9,126.9,88.8,126.9,88.8,126.8z"/>
<g>
	<g>
		<path class="st8" d="M85.6,112.5c-3.2-5.3-9.1-6.5-14.9-6c-2.9,0.2-5.7,0.8-8.5,1.3c-3,0.6-5.5,3.8-6.8,6.4
			c-2.1,4.4-1.8,9.2-1.7,13.9c0,0.2,0.3,0.2,0.3,0c0-4-0.3-8.1,1-12c1.1-3.1,3.3-6.3,6.4-7.7c1.2-0.5,2.7-0.6,3.9-0.8
			c1.4-0.3,2.9-0.5,4.3-0.6c2.7-0.3,5.5-0.4,8.1,0.2c3.2,0.7,5.9,2.6,7.6,5.5C85.4,112.8,85.7,112.6,85.6,112.5L85.6,112.5z"/>
	</g>
</g>
<g>
	<g>
		<path class="st8" d="M54.4,116.8c-2-0.1-3.6-1.8-3.2-3.8c0.3-1.8,2.1-3.1,3.8-3.2c1-0.1,2.2,0,2.9,0.8c0.1,0.2,0.4-0.1,0.2-0.2
			c-0.7-0.8-1.7-0.9-2.7-0.9c-1,0-2,0.3-2.9,0.9c-1.6,1.2-2.4,3.5-1.1,5.2c0.7,0.9,1.8,1.5,3,1.5C54.6,117.2,54.6,116.9,54.4,116.8
			L54.4,116.8z"/>
	</g>
</g>
<g>
	<g>
		<path class="st8" d="M83.2,109.7c1.5-0.8,3.6-1.2,5.1-0.4c1.5,0.9,2,3.1,1.4,4.6c-0.4,1.1-1.4,1.9-2.5,2.1c-0.2,0-0.1,0.3,0.1,0.3
			c1-0.2,2-0.9,2.5-1.8c0.4-0.8,0.5-1.8,0.4-2.7c-0.1-0.9-0.6-1.9-1.3-2.5c-0.7-0.6-1.8-0.8-2.7-0.8c-1.1,0-2.2,0.3-3.2,0.9
			C82.9,109.5,83,109.8,83.2,109.7L83.2,109.7z"/>
	</g>
</g>
<path class="st8" d="M87.5,112.3c0-0.6-0.5-1.1-1.1-1.1c-0.6,0-1.1,0.5-1.1,1.1c0,0.6,0.5,1.1,1.1,1.1
	C87,113.4,87.5,112.9,87.5,112.3z"/>
<path class="st8" d="M56,113.3c0-0.6-0.5-1.1-1.1-1.1c-0.6,0-1.1,0.5-1.1,1.1c0,0.6,0.5,1.1,1.1,1.1C55.5,114.4,56,113.9,56,113.3z"
	/>
<g>
	<g>
		<path class="st8" d="M85.1,112c3.1,4.6,2.8,10.4,2.8,15.7c0,0.2,0.3,0.2,0.3,0c0.1-5.4,0.4-11.2-2.8-15.9
			C85.2,111.7,84.9,111.8,85.1,112L85.1,112z"/>
	</g>
</g>
<text transform="matrix(1.0144 0 0 1 58.8164 94.3975)"><tspan x="0" y="0" class="st10 st11 st12">SPEAKER</tspan><tspan x="0.9" y="6.6" class="st10 st11 st12">AWARD</tspan></text>
<g>
	<g>
		<path class="st8" d="M69.6,106.7c-0.4-0.4-0.7-1-0.3-1.5c0.2-0.2,0.4-0.2,0.6-0.1c0.2,0.1,0.3,0.4,0.2,0.6c0.1,0,0.2,0,0.2-0.1
			c-0.6-0.3-0.9-1-0.9-1.7c0-0.2-0.3-0.2-0.3,0c0,0.8,0.4,1.6,1.1,2c0.1,0,0.2,0,0.2-0.1c0.2-0.3,0.1-0.7-0.2-0.9
			c-0.3-0.3-0.7-0.3-1-0.1c-0.3,0.2-0.5,0.6-0.5,1c0,0.4,0.3,0.8,0.6,1.1C69.5,107.1,69.7,106.9,69.6,106.7L69.6,106.7z"/>
	</g>
</g>
<g>
	<g>
		<path class="st8" d="M68.4,106.9c-0.1-0.3-0.3-0.6-0.4-0.9c0-0.1-0.1-0.1-0.2-0.1c-0.1,0-0.1,0.1-0.1,0.2c0.1,0.3,0.3,0.6,0.4,0.9
			c0,0.1,0.1,0.1,0.2,0.1C68.3,107.1,68.4,107,68.4,106.9L68.4,106.9z"/>
	</g>
</g>
<g>
	<g>
		<path class="st8" d="M53,127.5C53,127.5,53.1,127.5,53,127.5c0-0.1,0-0.1,0-0.2c0,0,0,0,0-0.1c0,0-0.1,0-0.1,0c0,0,0,0-0.1,0
			c0,0,0,0-0.1,0c0,0,0,0,0,0c0,0,0,0,0,0.1c0,0,0,0.1,0,0.1c0,0,0.1,0.1,0.1,0.1c0,0,0,0,0,0c0,0,0,0,0,0c0,0,0,0,0,0c0,0,0,0,0,0
			c0,0,0,0,0,0c0,0,0,0,0,0c0,0,0,0,0,0c0,0,0,0,0,0c0,0,0,0,0,0c0,0,0,0,0,0c0,0,0,0,0,0c0,0,0,0,0,0c0,0,0,0,0,0c0,0,0,0,0,0
			c0,0,0,0,0,0c0,0,0,0,0,0.1c0,0,0,0,0,0.1c0,0,0,0,0,0.1c0,0,0,0,0,0C52.8,127.6,52.9,127.6,53,127.5C53,127.6,53,127.6,53,127.5
			L53,127.5z"/>
	</g>
</g>
<g>
	<g>
		<path class="st8" d="M54,128.3c0-0.1,0-0.2,0-0.3c0,0,0-0.1-0.1-0.1c0,0-0.1,0-0.1,0c0,0-0.1,0-0.1,0.1c0,0,0,0.1,0,0.1
			c0,0,0,0.1,0,0.1c0,0,0,0,0,0c0,0.1,0,0.1,0,0.2c0,0,0,0,0,0.1c0,0,0,0,0,0.1c0,0,0.1,0.1,0.1,0c0,0,0.1,0,0.1,0
			C53.9,128.4,54,128.4,54,128.3C54,128.4,54,128.3,54,128.3L54,128.3z"/>
	</g>
</g>
<g>
	<g>
		<path class="st8" d="M71.6,77.7C71.6,77.7,71.6,77.6,71.6,77.7c0,0.1,0.1,0.1,0.1,0.2c0,0.1,0.1,0.2,0.1,0.3
			c0.1,0.2,0.2,0.4,0.2,0.7c0.1,0.4,0,0.8-0.2,1.1c-0.4,0.5-1.1,0.7-1.7,0.8c-0.6,0-1.2-0.1-1.5-0.6c-0.3-0.5-0.4-1.1-0.4-1.7
			c0-0.6,0.3-1.2,0.9-1.4c0.4-0.1,0.2-0.8-0.2-0.6c-0.8,0.3-1.2,0.9-1.4,1.7c-0.1,0.8,0,1.7,0.4,2.3c1,1.4,3.5,1.2,4.4-0.1
			c0.4-0.5,0.4-1.1,0.3-1.7c-0.1-0.3-0.2-0.6-0.3-0.9c-0.1-0.3-0.2-0.6-0.6-0.7C71.4,77,71.2,77.6,71.6,77.7L71.6,77.7z"/>
	</g>
</g>
<g>
	<path class="st8" d="M68.6,122.3c0.1,0,0.1,0,0.2,0c0-0.1,0-0.1-0.1-0.2c-0.1,0.1-0.4,0.1-0.5,0.1c-0.3,0.1-0.6,0.4-0.8,0.6
		c-0.5,0.4-1,0.9-1.2,1.4c-0.5,1.3,1.1,2.1,2.3,2c0.9-0.1,1.8-0.5,2.7-0.6c0.9-0.1,1.7,0.2,2.5,0.4c1.1,0.3,2.3-0.4,2.1-1.7
		c-0.2-1.4-2-2.2-3.1-2.6c-0.1,0-0.2,0.1,0,0.2c1.2,0.4,3.4,1.4,3,3c-0.3,1.2-1.5,1-2.4,0.7c-0.6-0.2-1.3-0.4-1.9-0.3
		c-0.8,0.1-1.6,0.4-2.4,0.6c-0.9,0.2-2.7-0.1-2.6-1.4c0.1-0.8,0.9-1.4,1.5-1.8c0.2-0.1,0.4-0.3,0.6-0.4c0.1,0,0.3,0,0.4-0.1
		c0-0.1,0-0.2-0.1-0.2c-0.1,0-0.1,0-0.2,0C68.5,122.1,68.5,122.3,68.6,122.3L68.6,122.3z"/>
	<path class="st8" d="M73.3,125.9c0.3,0.8,0.5,1.9,0.2,2.7c-0.3,0.6-1.1,1.1-1.7,0.6c-0.3-0.2-0.4-0.5-0.5-0.8
		c-0.1-0.1-0.2,0-0.2,0.1c0.2,0.4,0.3,0.8,0.7,1c0.4,0.2,1,0.1,1.3-0.1c1-0.7,0.7-2.5,0.3-3.5C73.4,125.8,73.2,125.8,73.3,125.9
		L73.3,125.9z"/>
	<path class="st8" d="M74.9,121.2L74.9,121.2c-1.6-1.1-2.6-2.9-2.6-4.8c0-3.2,2.6-5.8,5.8-5.8c3.2,0,5.8,2.6,5.8,5.8
		c0,1.6-0.6,3.1-1.8,4.2l0,0l-0.1,0c-0.9-0.3-1.8-0.5-2.7-0.6c-1-0.1-2,0.1-3,0.5c-0.2,0.1-0.4,0.2-0.5,0.2
		C75.5,120.9,75.2,121,74.9,121.2L74.9,121.2z M78.1,110.7c-3.1,0-5.6,2.5-5.6,5.6c0,1.8,0.9,3.5,2.4,4.6c0.3-0.1,0.6-0.2,0.9-0.4
		c0.2-0.1,0.4-0.2,0.5-0.2c1-0.4,2-0.6,3.1-0.5c0.9,0,1.7,0.2,2.7,0.5c1.1-1.1,1.7-2.5,1.7-4C83.7,113.2,81.2,110.7,78.1,110.7z"/>
	<path class="st8" d="M60.1,121.5L60.1,121.5c-1.4-1.2-2.2-2.8-2.2-4.6c0-3.2,2.6-5.8,5.8-5.8c3.2,0,5.8,2.6,5.8,5.8
		c0,1.6-0.7,3.2-1.9,4.3l0,0l-0.1,0c-0.8-0.2-1.7-0.4-2.5-0.5C63.5,120.7,61.9,120.9,60.1,121.5L60.1,121.5z M63.7,111.3
		c-3.1,0-5.6,2.5-5.6,5.6c0,1.7,0.8,3.3,2.1,4.3c1.7-0.6,3.4-0.8,5-0.7c0.8,0.1,1.6,0.2,2.4,0.5c1.1-1.1,1.8-2.5,1.8-4.1
		C69.3,113.8,66.8,111.3,63.7,111.3z"/>
	<path class="st8" d="M73.5,121.6c0-0.8-1.1-1.4-2.6-1.4c-1.4,0-2.6,0.6-2.6,1.4c0,0.8,1.1,1.4,2.6,1.4
		C72.4,123,73.5,122.4,73.5,121.6z"/>
	<path class="st8" d="M76.2,116.4c0,1,0.8,1.9,1.9,1.9c1,0,1.9-0.8,1.9-1.9c0-1-0.8-1.9-1.9-1.9C77.1,114.5,76.2,115.3,76.2,116.4z
		 M79.3,115.6c0,0.3-0.2,0.5-0.5,0.5c-0.3,0-0.5-0.2-0.5-0.5c0-0.3,0.2-0.5,0.5-0.5C79.1,115.1,79.3,115.3,79.3,115.6z"/>
	<path class="st8" d="M62.4,118c0.7,0.7,1.9,0.7,2.6,0c0.7-0.7,0.7-1.9,0-2.6c-0.7-0.7-1.9-0.7-2.6,0
		C61.7,116.1,61.7,117.3,62.4,118z M64,115.3c0.2,0.2,0.2,0.5,0,0.7c-0.2,0.2-0.5,0.2-0.7,0c-0.2-0.2-0.2-0.5,0-0.7
		C63.5,115.1,63.8,115.1,64,115.3z"/>
	<path class="st8" d="M71.1,125.6c0.1,0.7,0.1,1.7,0,2.4c0,0.4-0.2,1-0.5,1.3c-0.4,0.4-1,0.3-1.4,0c-0.8-0.7-0.6-2.3-0.3-3.2
		c0-0.1-0.1-0.2-0.2,0c-0.3,1-0.6,3.3,0.8,3.7c0.7,0.2,1.2-0.2,1.5-0.8c0.2-0.5,0.2-1.2,0.2-1.7c0-0.5,0.1-1.1-0.1-1.6
		C71.2,125.4,71.1,125.4,71.1,125.6L71.1,125.6z"/>
	<path class="st8" d="M74.6,126.1c1.7-0.4,3.3-1.1,4.3-2.6c0.1-0.1-0.1-0.2-0.2-0.1c-0.9,1.5-2.5,2.1-4.2,2.5
		C74.4,126,74.5,126.1,74.6,126.1L74.6,126.1z"/>
	<path class="st8" d="M63.2,123.9c1.6,1.2,3.3,2,5.2,2.4c0.1,0,0.2-0.1,0-0.2c-1.9-0.4-3.6-1.2-5.2-2.4
		C63.2,123.7,63.2,123.9,63.2,123.9L63.2,123.9z"/>
	<path class="st8" d="M68.3,130.5c1.7,1.3,4,1.3,5.7,0c0.1-0.1,0-0.2-0.1-0.2c-1.6,1.2-3.9,1.2-5.5,0
		C68.3,130.3,68.2,130.5,68.3,130.5L68.3,130.5z"/>
	<path class="st8" d="M78.7,123.6c0.5,0.3,0.8,0.8,0.7,1.4c0,0.1,0.2,0.1,0.2,0c0.1-0.6-0.3-1.2-0.8-1.6
		C78.7,123.4,78.6,123.5,78.7,123.6L78.7,123.6z"/>
	<path class="st8" d="M63.3,123.9c-0.4,0.3-0.7,0.8-0.6,1.4c0,0.1-0.1,0.1-0.2,0c-0.1-0.6,0.2-1.2,0.7-1.6
		C63.3,123.6,63.4,123.8,63.3,123.9L63.3,123.9z"/>
</g>
</svg>
