<?xml version="1.0" encoding="utf-8"?>
<!-- Generator: Adobe Illustrator 24.0.1, SVG Export Plug-In . SVG Version: 6.00 Build 0)  -->
<svg version="1.1" id="Layer_1" xmlns="http://www.w3.org/2000/svg" xmlns:xlink="http://www.w3.org/1999/xlink" x="0px" y="0px"
	 viewBox="0 0 141.7 141.7" style="enable-background:new 0 0 141.7 141.7;" xml:space="preserve">
<style type="text/css">
	.st0{fill:#75CEEB;}
	.st1{fill:#FFFFFF;}
	.st2{fill:#C9B09D;}
	.st3{fill:#FFC314;}
	.st4{fill:#FCB353;}
	.st5{fill:#FEE953;}
	.st6{fill:#FEE267;}
	.st7{fill:#C4E8F1;}
	.st8{fill:#089CD3;}
	.st9{fill:#070707;}
	.st10{fill:none;stroke:#070707;stroke-width:0.5307;stroke-miterlimit:10;}
	.st11{fill:#010101;}
	.st12{font-family:'CenturyGothic';}
	.st13{font-size:5.5508px;}
</style>
<g id="Layer_12">
</g>
<g id="Layer_8">
</g>
<g id="Layer_15">
</g>
<g id="Layer_16">
</g>
<path class="st0" d="M53.9,128.5c0-0.8,0-1.7,0-2.5l0-2.4l0-2.1l0.2-2l0.3-1.6l0.2-0.8c0,0-3.4-0.3-3.6-3.4c0,0,0.1-3.4,4.4-4
	c0,0,1.5-0.3,2.8,1c0,0,1.8-2.8,8.7-3.4l5.5-0.6l3.3,0.1l3,0.5l2.2,0.8l2.1,1.4l0.4,0.3l2.1-0.7l1.5-0.1l1.4,0.2
	c0,0,3.1,1.4,1.9,5.1l-0.8,1.2l-0.9,0.7l-1.1,0.3l0.4,1.9l0.3,2.4l0.1,2.4l0,3.1l-0.1,1.6l0,0.3c-0.8,0.8-1.8,1.6-3,2.5
	c-2.9,2.1-5.8,3.2-8,3.8c-1.7,0.4-3.8,0.8-6.4,0.8c-3.3,0-6.1-0.6-8-1.2c-1.4-0.5-3.2-1.2-5.1-2.4C56.1,130.4,54.9,129.4,53.9,128.5
	z"/>
<path class="st1" d="M69,126.3c-0.1,0.6-0.2,1.1-0.2,1.7c0.1,0.4,0.1,0.8,0.2,1.1c0.1,0.1,0.2,0.2,0.3,0.4c0.1,0.1,0.3,0.2,0.4,0.2
	c0.1,0,0.3,0.1,0.5,0.1c0.2,0,0.4-0.1,0.5-0.1c0.1-0.1,0.3-0.2,0.4-0.5c0.2-0.2,0.2-0.5,0.2-0.6c0.2,0.3,0.5,0.6,0.7,1
	c0.1,0,0.2,0.1,0.4,0.1c0.2,0,0.3,0,0.4,0c0.2-0.1,0.4-0.2,0.6-0.4c0.1-0.1,0.2-0.2,0.3-0.3c0.1-0.3,0.1-0.6,0.2-0.8
	c0-0.4,0-0.8-0.1-1.1c-0.1-0.4-0.2-0.7-0.3-1.1c-0.3-0.1-0.7-0.2-1-0.3c-0.3,0-0.6,0-0.9,0c-0.3,0.1-0.7,0.1-1,0.2
	C70,126,69.5,126.1,69,126.3z"/>
<path class="st2" d="M69.1,122.3c-0.3,0.1-0.5,0.1-0.8,0.2c-0.2,0.1-0.4,0.2-0.6,0.4l-0.3,0.3c-0.1,0.1-0.2,0.2-0.3,0.4
	c-0.1,0.1-0.3,0.3-0.4,0.4c-0.1,0.2-0.2,0.4-0.2,0.6c0,0.1,0,0.3,0,0.4c0,0.1,0,0.3,0.1,0.5c0.1,0.1,0.2,0.3,0.5,0.5
	c0.8,0.5,1.7,0.4,1.9,0.4c0.2,0,0.6-0.1,1-0.3c0.4-0.1,0.7-0.2,1.1-0.3c0.2,0,0.5,0,0.7-0.1c0.3,0,0.6,0.1,0.9,0.1
	c0.4,0.1,0.8,0.3,1.2,0.4c0.3,0,0.7,0,1,0c0.2-0.2,0.5-0.3,0.7-0.5c0.1-0.2,0.2-0.5,0.2-0.8c0-0.7-0.4-1.2-0.5-1.4
	c-0.3-0.2-0.7-0.5-1.1-0.8c-0.4-0.2-0.7-0.4-1-0.6c-0.2,0.2-0.9,0.8-2,0.9C70.2,123.1,69.3,122.4,69.1,122.3z"/>
<polygon class="st3" points="50.1,127.4 50.1,126.9 50.3,126.3 50.7,125.9 51.1,125.6 49.9,123.8 48.5,121.4 47.6,119.3 46.9,117.4 
	46.3,115.5 45.8,112.4 45.7,109.6 45.8,108.1 45.9,106.9 46.1,105.7 46.7,103.1 47,101.9 47.4,101 48,99.6 48.7,98.1 49.3,97.1 
	49.9,96.2 50.5,95.3 51.4,94.2 52.1,93.2 53.3,92 54.8,90.7 56,89.9 57.2,89 58.9,87.9 60.5,87.2 62.4,86.4 63.9,85.9 65.9,85.5 
	67.9,85.2 69.7,85.1 71.3,85 73,85.2 74.9,85.3 76.7,85.8 78.5,86.3 80.5,87 82.4,87.9 83.9,88.7 85,89.5 87.4,91.4 88.9,92.9 
	90.1,94.2 91.2,95.6 92.3,97.4 93.5,99.6 94.2,101.5 94.9,103.9 95.4,105.9 95.6,107.6 95.8,109 95.8,110.7 95.6,112.4 95.3,114.8 
	94.8,117.1 93.9,119.5 92.7,122 92,123.2 91.4,124 91,124.7 91.6,125.3 92,125.8 92.2,126.4 92.3,126.7 93.5,125.2 94.5,123.4 
	95.5,121.5 96.3,119.6 97,117.4 97.6,115 97.8,113.4 98,110.6 97.9,107.8 97.7,106.3 97.3,103.7 96.6,101.5 95.6,99 95,97.7 
	93.5,95.1 91.7,92.7 90.2,91 88.3,89.3 87,88.3 84.1,86.4 81.3,85 78.4,84 75.5,83.3 72.9,82.9 68.9,82.9 65.1,83.5 62.7,84.2 
	59.9,85.2 56.9,86.8 54.1,88.7 51.9,90.6 49.3,93.6 47.7,95.8 46,99.1 44.5,103.2 43.8,106.9 43.6,110.7 44.1,115 45,118.7 
	46.3,121.8 48.1,125.2 50,127.7 "/>
<path class="st3" d="M50.5,128.1c-0.4-0.9-0.9-1.9-1.3-2.8c0.3-0.2,0.6-0.3,0.9-0.5c0.2,0.1,0.4,0.2,0.7,0.3
	c0.7,0.5,1.1,1.1,1.3,1.5c0.3,0.3,0.5,0.7,0.8,1l0.7,0.7l1.1,1l1.6,1.2l1.5,1l1.6,0.9l2,0.9l2.3,0.8l1.8,0.4l1.8,0.5l2,0.1h2.1
	l2.2-0.1l1.6-0.2l2.1-0.4l1.5-0.5l2.3-0.8l2-1.1l1.6-1l1.6-1.1l1.3-1.2l0.9-0.8l0.6-0.5l0.1-0.1c0.3-0.4,0.6-0.7,0.9-1.1
	c0.5-0.6,1.1-1.3,1.6-1.9c0.4,0.7,0.8,1.4,1.3,2c-0.6,0.8-1.3,1.6-1.9,2.4l-0.7,0.8l-0.9,0.8l-1.3,1.2l-2.2,1.6l-1.8,1.1l-1.4,0.7
	l-2.5,1l-3.1,0.9l-5,0.7c0,0-2.7,0-2.8,0c-0.1,0-3.3-0.4-3.3-0.4l-4.1-1.1l-3.2-1.3l-2.3-1.3l-2.1-1.4l-1.8-1.5L50.5,128.1z"/>
<path class="st1" d="M60.3,121.6c-0.2,0-0.4-0.1-0.8-0.7c-0.3-0.4-0.5-0.7-0.7-0.9c-0.8-1.4-0.7-3-0.7-3c0-0.2,0.1-2,1.2-3.5
	c0.4-0.5,0.9-0.9,0.9-0.9c0.5-0.4,1.2-0.8,1.2-0.8l0,0c0.5-0.2,1.4-0.4,2.4-0.4c0.7,0,1.3,0.2,1.8,0.3c0.4,0.1,2,0.7,3.1,2.4
	c0.9,1.5,0.8,3,0.8,3.5c0,0.4-0.1,1.2-0.5,2c-0.4,0.9-1,1.4-1.3,1.7c-0.7-0.2-2.2-0.5-3.8-0.4c0,0-1.3,0-2.5,0.4
	c-0.4,0.1-0.6,0.2-0.6,0.2C60.5,121.5,60.4,121.6,60.3,121.6z"/>
<path class="st1" d="M75.1,121.2c-0.3,0.1-0.9-0.3-2-2.2c-0.2-0.5-0.7-1.7-0.5-3.3c0.2-1.7,1.1-2.8,1.5-3.2c0.4-0.4,1.4-1.3,3-1.7
	c1-0.2,1.9-0.1,2.4,0c0.5,0.1,2.1,0.5,3.2,2c1.1,1.4,1.2,2.9,1.3,3.4c0.1,1.2-0.2,2-0.3,2.2c-0.4,1.1-1.1,1.8-1.4,2.2
	c-0.4-0.1-0.9-0.3-1.6-0.4c-0.6-0.1-1.3-0.2-2.1-0.1c-0.8,0.1-1.5,0.4-1.9,0.5c-0.6,0.2-1.1,0.4-1.1,0.4
	C75.2,121.2,75.2,121.2,75.1,121.2z"/>
<path class="st2" d="M55,127.2v0.6l0.5,1.3l0.5,0.8l0.6,0.6l0.8,0.4h0.6l0.5-0.2c0.1-0.2,0.2-0.5,0.4-0.7c0-0.2-0.1-0.4-0.1-0.6
	l-0.3-0.5c-0.1-0.2-0.4-0.5-0.7-0.8c-0.2-0.2-0.5-0.3-0.7-0.4c-0.2-0.2-0.5-0.3-0.8-0.5c-0.3-0.1-0.5-0.2-0.7-0.3c0,0-0.2-0.1-0.4,0
	C55.2,127,55.1,127.1,55,127.2z"/>
<path class="st2" d="M82.1,129.9c0-0.1-0.1-0.3-0.1-0.5c0-0.2,0.1-0.4,0.2-0.5c0.1-0.2,0.2-0.4,0.4-0.7c0.2-0.2,0.3-0.4,0.5-0.5
	c0.3-0.2,0.6-0.4,0.9-0.6c0.2-0.1,0.4-0.2,0.7-0.3c0.2-0.1,0.5-0.1,0.6-0.1c0.2,0.1,0.4,0.3,0.6,0.4c0.1,0.1,0.1,0.3,0.1,0.5
	c0,0.3,0,0.5-0.1,0.6c-0.1,0.3-0.2,0.7-0.4,1c-0.2,0.4-0.4,0.7-0.5,0.9c-0.1,0.2-0.2,0.4-0.6,0.7c-0.2,0.1-0.4,0.2-0.5,0.2
	c-0.1,0-0.3,0.1-0.6,0c-0.4-0.1-0.5-0.5-0.5-0.6c0,0-0.4,0-0.6-0.2C82.2,130.1,82.1,129.9,82.1,129.9z"/>
<path class="st4" d="M69.4,74.8l-1.1,0.3l-1.4,1l-0.6,1l-0.3,1v1.1l0.2,1.1l1.1,1.6l1.3,0.7l1.4,0.2l1.9-0.3l1-0.9l0.8-1.2l0.3-1.2
	v-1.1l-0.2-0.7l-0.6-1.2l-0.6-0.5l-0.7-0.5v1.2v0.8l0.5,0.7l0.3,0.8c0,0-0.1,0.7-0.1,0.8s-0.2,0.5-0.3,0.6s-0.8,0.6-0.8,0.6L70.5,81
	c0,0-0.9-0.1-1-0.1s-0.7-0.3-0.7-0.3s-0.5-0.6-0.5-0.7S68,79.1,68,79.1s0-0.7,0-0.8c0-0.2,0.2-0.9,0.2-0.9s0.8-0.6,0.8-0.7
	c0-0.2,0.3-0.7,0.3-0.7V74.8z"/>
<path class="st5" d="M70.9,69.8c0,0-0.9,0.9-0.9,0.9l-0.4,1.6l-0.1,2c0,0-0.2,2-0.2,2.1c0,0.1,0.1,1.7,0,1.8
	c-0.1,0.1,0.3,1.1,0.3,1.2c0,0.1,0.4,0.8,0.4,0.8s0.1,0.6,0.2,0.5c0.2-0.1,0.7-0.6,0.7-0.7s0.5-1,0.5-1l0.2-1.8l0.2-1.4
	c0,0,0.1-1.3,0.1-1.4c0-0.1,0-1.1,0-1.1s0-1.1,0-1.2c0-0.2,0-1.3,0-1.3L71.6,70L70.9,69.8z"/>
<path class="st6" d="M60.8,87.1l2.1-0.8l2.4-0.6l2.5-0.4l3-0.2l2.4,0.2l2.4,0.3l2.1,0.5l2.3,0.8c0,0,9.5,3.6,13.5,12.6
	c0,0,4.3,8.2,1.2,18.2c0,0-2.3,5.9-3.6,7.1c-0.3,0.4-0.6,0.8-0.9,1.2c-0.6,0.6-1.2,1.2-1.8,1.8c0-0.5,0-1,0-1.6c0-0.4,0-0.7,0-1.1
	c0-0.3,0-0.6,0-0.9l-0.1-2.9l-0.2-2.1l-0.2-1.6l-0.4-1.3l1.1-0.3l0.9-0.7l0.7-1.1l0.3-1.2l0-1l-0.5-1.4l-0.5-0.8l-0.9-0.6l-0.9-0.4
	h-1.1c0,0-2.9,0.3-3.3,0.8l-0.7-0.5c0,0-3.2-2.8-9.9-2.6l-3.1,0.2l-1.9,0.2l-3.2,0.5l-1.4,0.3l-1.2,0.3l-1,0.5l-0.9,0.5l-1.1,0.8
	l-0.7,0.8l-0.6-0.6l-1.2-0.4l-1.3-0.1l-1.2,0.4l-1.1,0.6l-0.6,0.6l-0.5,0.7l-0.4,0.8c0,0-0.2,0.8-0.2,0.8c0,0,0.1,0.9,0.1,0.9
	l0.4,1.1l0.7,0.8l1,0.7L54,117l0.6,0.1c0,0-0.2,0.6-0.2,0.8c0,0.2-0.2,1.1-0.2,1.1l-0.1,1.2l-0.2,4.7c0,0.5,0,1,0,1.5
	c0,0.7,0,1.4,0,2c-0.6-0.6-1.2-1.1-1.7-1.7c-0.4-0.5-0.7-0.9-1.1-1.4l-1.2-1.8c0,0-4.1-6.2-4-12c0,0-1.2-6.9,4-15.2
	C49.7,96.5,53.7,90,60.8,87.1z"/>
<path class="st7" d="M70.7,69.8l-0.9,1.2L69.4,73l0.1,1.4l-1.2,0.7l-1.4,1L66,77.2L65.7,78l-12.6-7l-7.9-4.3l-5.4-3.3l-2.1-2
	l-1.2-2.6l0.2-2.6l0.8-2.8l0.9-3.5L44.8,26L49,9.8l1-2.3l1.2-1.5l1.2-0.4l1.2,0.3l0.7-0.9l1.6-0.7h1.4l27.3,0.5l3.1-0.1l1.9,0.3
	L91,5.5l1.3,1.6l1.5,4.2l6.1,22.3l3.5,13.3l1.7,8.9l0.2,2.5l-0.4,1.2l-0.8,1c0,0-0.8,0.7-0.9,0.8c-0.1,0.1-0.9,0.7-0.9,0.7l-4.9,3.3
	l-7,4.3l-5.6,3.1L78.2,76l-2.9,1.4L74,77.2l-0.4-0.1l-0.4-0.8l-0.8-0.7l-0.5-0.3l0-2.1l0.2-1.8L71.6,70L70.7,69.8z"/>
<polygon class="st8" points="38.8,62.5 48.3,26.2 53,7.8 53.6,5.8 52.4,5.5 51.2,5.9 49.9,7.5 47.5,15.6 43.4,31.2 39.2,46.7 
	36.9,54.7 36.5,57.2 36.5,58.8 37,60.5 "/>
<path class="st8" d="M72.1,67.2c0.6,2.3,1.1,4.1,1.6,5.4c0.7,2.1,1.5,4,1,4.4c-0.2,0.2-0.6,0.1-0.9,0c-0.5-0.2-0.4-0.7-1-1.2
	c-0.5-0.4-0.8-0.3-1-0.6c-0.2-0.3-0.1-0.6,0-0.9c0,0,0.4-1.7,0-3.4c-0.1-0.5-0.2-1-0.6-1.1c-0.4-0.1-0.9,0.4-1,0.5
	c-0.2,0.2-0.5,0.6-0.6,2c-0.2,1.5,0,2.1-0.4,2.5c-0.2,0.1-0.3,0.1-0.8,0.3c-0.5,0.2-0.8,0.4-1.1,0.6c0.6-2.6,0.9-4.4,1.2-5.9
	c0.6-3,0.6-3.1,0.9-3.7c0.2-0.5,0.5-1,0.5-1.7c0-0.6-0.4-0.9-0.7-1.8c-0.2-0.5-0.5-1.2-0.7-2.1c-0.7-2.6-1.4-5.3-2.1-7.9l-2.8-12
	L61,30.9l-1.7-6.7l-5.3-19c0.2-0.2,0.5-0.5,0.7-0.7c0.4-0.1,0.7-0.3,1.1-0.4l0.9-0.1c0.8,4.2,1.7,8.5,2.7,12.8
	c1.7,7.7,3.4,15.1,5.3,22.3C67.2,48.6,69.6,57.9,72.1,67.2z"/>
<polygon class="st8" points="102.7,61.3 100.7,55.2 99.1,49.6 97.8,45 95.5,34.3 93.3,24.5 91,14.8 89.8,10.9 88.4,6.9 87.8,4.6 
	90.4,4.9 92,6.7 93.7,10.9 96,19.8 98.6,29.1 100.7,36.3 103.7,47.7 105,54.2 105.3,56.8 105.3,58.2 104.9,59.7 104.1,60.5 
	102.7,61.6 "/>
<g>
	<g>
		<path class="st9" d="M50.7,125.3c0.6,0.9,1.2,1.7,2,2.4c0.2,0.1,0.4-0.1,0.2-0.2c-0.4-0.3-0.7-0.7-1.1-1.1
			c-0.3-0.4-0.6-0.8-0.9-1.3C50.9,124.9,50.6,125.1,50.7,125.3L50.7,125.3z"/>
	</g>
</g>
<g>
	<g>
		<path class="st9" d="M89,127.4c0.4-0.5,0.8-1,1.2-1.4c0.4-0.5,0.8-0.9,1.1-1.4c0.1-0.2-0.2-0.3-0.3-0.2c-0.3,0.5-0.7,0.9-1.1,1.4
			c-0.4,0.5-0.8,0.9-1.2,1.4C88.6,127.3,88.8,127.5,89,127.4L89,127.4z"/>
	</g>
</g>
<g>
	<g>
		<path class="st9" d="M89.3,127.1c0.7-0.8,1.3-1.6,2-2.5c0.1-0.1,0.1-0.2,0-0.2c-0.1-0.1-0.2-0.1-0.2,0c-0.7,0.8-1.3,1.6-2,2.5
			c-0.1,0.1-0.1,0.2,0,0.2C89.1,127.2,89.2,127.2,89.3,127.1L89.3,127.1z"/>
	</g>
</g>
<g>
	<g>
		<path class="st9" d="M50.5,125c0.5,0.6,0.9,1.3,1.5,1.9c0.6,0.6,1.2,1.2,1.8,1.8c0.2,0.2,0.4-0.1,0.2-0.2
			c-0.6-0.6-1.2-1.2-1.8-1.7c-0.6-0.6-1-1.2-1.5-1.8C50.6,124.7,50.3,124.8,50.5,125L50.5,125z"/>
	</g>
</g>
<g>
	<g>
		<path class="st9" d="M58.9,129.1c-0.6-1.1-1.7-1.7-2.8-2.1c-0.3-0.1-0.6-0.2-0.9-0.1c-0.2,0.1-0.3,0.3-0.3,0.5
			c0,0.6,0.3,1.3,0.6,1.8c0.4,0.7,1,1.4,1.8,1.6c0.5,0.2,1.1,0.1,1.5-0.3C59.2,130.1,59.1,129.5,58.9,129.1c-0.1-0.1-0.2,0-0.2,0.1
			c0.2,0.4,0.3,0.9-0.1,1.2c-0.4,0.3-0.9,0.3-1.4,0.2c-0.7-0.2-1.2-0.8-1.6-1.5c-0.3-0.5-0.5-1-0.6-1.6c0-0.2,0-0.4,0.1-0.5
			c0.2-0.1,0.5,0,0.7,0c0.5,0.2,1.1,0.5,1.5,0.8c0.5,0.3,1,0.8,1.3,1.3C58.8,129.3,59,129.2,58.9,129.1z"/>
	</g>
</g>
<g>
	<g>
		<path class="st9" d="M57.3,129.3c0.2,0.3,0.5,0.6,0.9,0.7c0.1,0.1,0.3,0.1,0.5,0c0.2,0,0.3-0.2,0.4-0.3c0.1-0.1-0.1-0.2-0.2-0.1
			c-0.4,0.6-1.1-0.1-1.4-0.4C57.4,129.1,57.2,129.2,57.3,129.3L57.3,129.3z"/>
	</g>
</g>
<g>
	<g>
		<path class="st9" d="M82.8,130.6c0.7,1.1,1.9,0.1,2.4-0.7c0.2-0.4,0.4-0.8,0.6-1.3c0.2-0.4,0.3-0.9,0.3-1.4c0-0.4-0.3-0.7-0.7-0.8
			c-0.4-0.1-0.9,0.1-1.3,0.3c-0.5,0.2-0.9,0.6-1.3,1c-0.4,0.4-0.7,0.8-0.8,1.3c-0.1,0.5,0,1.1,0.4,1.4c0.5,0.3,1.1-0.3,1.3-0.8
			c0.1-0.1-0.1-0.2-0.2-0.1c-0.1,0.3-0.6,0.9-1,0.7c-0.4-0.2-0.4-0.8-0.3-1.1c0.3-0.9,1.1-1.6,1.8-2c0.5-0.3,1.7-0.8,1.9,0.1
			c0.1,0.4,0,0.8-0.1,1.2c-0.1,0.4-0.3,0.8-0.5,1.2c-0.2,0.4-0.4,0.7-0.7,0.9c-0.2,0.2-0.5,0.4-0.8,0.4c-0.3,0.1-0.6-0.1-0.8-0.4
			C82.9,130.4,82.8,130.5,82.8,130.6L82.8,130.6z"/>
	</g>
</g>
<g>
	<g>
		<path class="st9" d="M68.6,126.5c0.1,0,0.1,0,0.2,0c0,0,0.1,0,0.1,0c0,0,0,0,0-0.1c0,0,0-0.1,0-0.1c0,0,0,0-0.1,0
			c-0.1,0-0.1,0-0.2,0c0,0-0.1,0-0.1,0C68.6,126.4,68.5,126.4,68.6,126.5C68.5,126.4,68.6,126.5,68.6,126.5
			C68.6,126.5,68.6,126.5,68.6,126.5L68.6,126.5z"/>
	</g>
</g>
<g>
	<g>
		<path class="st9" d="M73.6,126.3c0.5,0.1,1,0.1,1.5,0c0.1,0,0.1-0.2-0.1-0.2c-0.5,0.1-1,0.1-1.4,0C73.5,126,73.4,126.2,73.6,126.3
			L73.6,126.3z"/>
	</g>
</g>
<g>
	<g>
		<path class="st9" d="M53.8,5.6c4.9,16.3,8.6,32.9,12.7,49.4c0.6,2.3,1,4.6,1.9,6.8c0.8,2,1.8,3.8,3,5.6c0.2,0.3,0.8,0,0.6-0.3
			c-1.1-1.6-2.2-3.3-2.9-5.2c-0.8-2-1.2-4.1-1.7-6.1c-1-4.1-2-8.1-3-12.2c-2-8.1-3.9-16.2-6-24.3c-1.2-4.6-2.5-9.2-3.9-13.8
			C54.3,5,53.7,5.2,53.8,5.6L53.8,5.6z"/>
	</g>
</g>
<g>
	<g>
		<path class="st9" d="M73.9,77.4c1.1,1,3-0.5,4.1-1c2.1-1,4.1-2,6.2-3.1c4.2-2.2,8.2-4.5,12.2-7c2-1.3,4-2.6,5.9-4
			c1.4-1,2.9-2,3.2-3.8c0.4-2-0.3-4.3-0.6-6.3c-0.4-2.4-1-4.8-1.5-7.1c-2.3-9.6-5.3-19-7.8-28.6c-0.6-2.2-1-4.3-1.7-6.5
			c-0.5-1.5-1-3.4-2.2-4.5c-2.1-2-5.8-1.2-8.4-1.1C77.8,4.5,72.2,4.1,66.7,4c-2.8-0.1-5.6-0.1-8.4-0.2c-1.5,0-3.7-0.3-4.5,1.3
			c-0.2,0.4,0.4,0.7,0.6,0.3c0.8-1.7,4.4-1,5.9-0.9c2.2,0.1,4.4,0.1,6.7,0.2c4.4,0.1,8.9,0.2,13.3,0.3c1.7,0,3.4,0.1,5.1,0
			c1.5-0.1,3-0.2,4.4,0.3c1.9,0.6,2.5,2.3,3.1,4c0.7,1.8,1.1,3.7,1.6,5.6c2.1,8.4,4.6,16.7,6.9,25c1.1,4.2,2.2,8.5,3,12.8
			c0.4,2.1,1.3,5,0.1,6.9c-1,1.6-3.3,2.8-4.9,3.8c-3.9,2.6-7.9,5.1-12,7.3c-2,1.1-4.1,2.2-6.1,3.2c-1,0.5-2.1,1-3.1,1.5
			c-0.7,0.3-3.2,1.9-3.9,1.4C74.1,76.6,73.6,77.1,73.9,77.4L73.9,77.4z"/>
	</g>
</g>
<g>
	<g>
		<path class="st9" d="M53.7,5.5c-1-0.3-1.9-0.6-2.7,0.2c-1,1-1.8,2.2-2.2,3.7c-0.9,3.5-1.8,6.9-2.6,10.4c-1.7,6.7-3.5,13.4-5.3,20
			c-0.9,3.3-1.8,6.7-2.7,10c-0.5,1.7-0.9,3.5-1.4,5.2c-0.3,1.2-0.7,2.4-0.5,3.8c0.6,4.3,5.6,6.2,8.8,8.2c3.2,2,6.6,3.6,9.9,5.4
			c3.6,2,7.1,3.9,10.7,5.9c0.4,0.2,0.7-0.4,0.3-0.6c-5.6-3.1-11.3-6.2-17-9.3c-2.3-1.2-4.5-2.6-6.8-3.9c-1.8-1.1-3.7-2.2-4.8-4.1
			c-1.4-2.5-0.1-5.3,0.6-7.9c0.8-3,1.7-6.1,2.5-9.1c1.7-6.1,3.3-12.3,4.9-18.4c0.9-3.4,1.8-6.8,2.7-10.3c0.4-1.7,0.8-3.5,1.3-5.2
			c0.3-1,0.8-2,1.5-2.8c0.7-0.8,1.6-0.9,2.6-0.6C53.9,6.2,54.1,5.6,53.7,5.5L53.7,5.5z"/>
	</g>
</g>
<g>
	<g>
		<path class="st9" d="M69.7,75.5c0.2-0.8,0.2-1.7,0.2-2.6c0-0.8,0.1-1.7,0.6-2.3c0.1-0.2,0.7-0.7,0.9-0.5c0.1,0.1,0.1,0.2,0.1,0.3
			c0,0.2,0,0.5,0.1,0.7c0,0.4,0,0.9,0,1.3c0,1,0,2.1-0.1,3.1c0,0.4,0.6,0.4,0.7,0c0.1-1.1,0.2-2.1,0.1-3.2c0-0.5,0-1.1-0.1-1.6
			c0-0.4,0-0.8-0.3-1.2c-0.4-0.5-1.1-0.2-1.5,0.1c-0.7,0.5-1,1.3-1.1,2.1c-0.2,1.1,0,2.3-0.3,3.4C68.9,75.7,69.6,75.9,69.7,75.5
			L69.7,75.5z"/>
	</g>
</g>
<g>
	<g>
		<path class="st9" d="M54.1,4.8c-1.4,1.4-1.6,3.6-2.1,5.4c-0.6,2.4-1.2,4.8-1.9,7.2c-1.3,5-2.6,9.9-3.9,14.9
			c-2.6,9.9-5.2,19.9-7.7,29.8c-0.1,0.4,0.5,0.6,0.6,0.2c2.5-9.6,5-19.2,7.5-28.8c1.2-4.8,2.5-9.6,3.7-14.4c0.6-2.4,1.2-4.8,1.9-7.2
			c0.3-1.1,0.6-2.2,0.9-3.4c0.3-1.2,0.6-2.3,1.4-3.2C54.9,5,54.4,4.5,54.1,4.8L54.1,4.8z"/>
	</g>
</g>
<g>
	<g>
		<path class="st9" d="M56.3,4.3c4.3,19.7,9,39.3,14.3,58.7c0.7,2.7,1.5,5.4,2.2,8.1c0.3,1.2,0.6,2.3,1,3.5c0.1,0.3,0.9,2.2,0.4,2.2
			c-0.4,0-0.4,0.7,0,0.7c1.3,0,0.8-1.4,0.6-2.2c-0.7-2-1.3-4.1-1.8-6.2c-1.4-5.2-2.9-10.4-4.2-15.7c-2.7-10.5-5.3-21-7.8-31.5
			c-1.4-5.9-2.7-11.8-4-17.7C56.8,3.7,56.2,3.8,56.3,4.3L56.3,4.3z"/>
	</g>
</g>
<g>
	<g>
		<path class="st9" d="M69.5,64c-1,3.8-1.8,7.6-2.5,11.4c-0.1,0.4,0.6,0.6,0.6,0.2c0.7-3.8,1.6-7.7,2.5-11.4
			C70.3,63.8,69.6,63.6,69.5,64L69.5,64z"/>
	</g>
</g>
<g>
	<g>
		<path class="st9" d="M87.6,5c3.4,9,5.2,18.5,7.3,27.9c2.1,9.5,4.3,19.1,7.6,28.3c0.1,0.2,0.4,0.1,0.3-0.1
			c-3.4-9.2-5.5-18.7-7.6-28.3c-2.1-9.4-3.9-18.9-7.3-27.9C87.9,4.7,87.6,4.8,87.6,5L87.6,5z"/>
	</g>
</g>
<g>
	<g>
		<path class="st9" d="M71.5,75.1c-0.2,1.8,0.3,4.2-1.4,5.4c0.1,0,0.3,0,0.4,0.1c-1.5-1.3-1-3.8-0.7-5.5c0-0.2-0.2-0.3-0.3-0.3
			c-0.2,0-0.3,0.2-0.3,0.3c-0.3,1.9-0.8,4.5,0.9,6c0.1,0.1,0.3,0.1,0.4,0.1c2-1.4,1.5-3.9,1.7-6C72.2,74.7,71.6,74.7,71.5,75.1
			L71.5,75.1z"/>
	</g>
</g>
<g>
	<path class="st9" d="M72,75c0,0.2,0,0.4,0,0.6c1.1,0.7,1.8,1.9,1.8,3.3c0,2.1-1.7,3.8-3.8,3.8c-2.1,0-3.8-1.7-3.8-3.8
		c0-1.9,1.4-3.5,3.2-3.8c0-0.2,0.1-0.4,0.1-0.6c-2.2,0.2-3.9,2.1-3.9,4.3c0,2.4,2,4.4,4.4,4.4c2.4,0,4.4-2,4.4-4.4
		C74.4,77.2,73.4,75.7,72,75z"/>
</g>
<circle class="st10" cx="70.8" cy="110.1" r="27.2"/>
<path class="st9" d="M70.7,84.8c-13.9,0-25.2,11.3-25.2,25.2c0,5.8,2,11.2,5.4,15.5c0.1,0,0.2,0,0.3,0c0-0.1,0-0.1,0-0.2
	c-3.3-4.2-5.3-9.5-5.3-15.3c0-13.7,11.1-24.8,24.8-24.8S95.6,96.3,95.6,110c0,5.5-1.8,10.5-4.8,14.6c0,0.1,0,0.1,0,0.2
	c0.1,0,0.2,0,0.3,0c0,0,0,0,0.1,0c3-4.2,4.8-9.3,4.8-14.8C95.9,96.1,84.6,84.8,70.7,84.8z"/>
<path class="st9" d="M89,127c0,0-0.1-0.1-0.1-0.1c-4.5,4.9-11,8-18.2,8c-6.9,0-13.1-2.8-17.6-7.3c0,0-0.1,0-0.1,0
	c-0.1,0-0.2,0-0.3,0c0,0,0,0.1,0,0.1c4.6,4.7,11,7.6,18,7.6c7.3,0,13.9-3.1,18.5-8.1C89.2,127.1,89.1,127.1,89,127z"/>
<g>
	<g>
		<path class="st9" d="M85.8,112.6c-3.2-5.4-9.1-6.5-14.9-6c-2.9,0.2-5.7,0.8-8.6,1.3c-3,0.6-5.6,3.8-6.8,6.4
			c-2.1,4.4-1.8,9.2-1.8,13.9c0,0.2,0.3,0.2,0.3,0c0-4-0.3-8.2,1-12.1c1.1-3.1,3.3-6.3,6.4-7.7c1.2-0.5,2.7-0.6,3.9-0.8
			c1.4-0.3,2.9-0.5,4.3-0.6c2.7-0.3,5.5-0.4,8.2,0.2c3.3,0.8,5.9,2.6,7.6,5.5C85.7,112.9,86,112.8,85.8,112.6L85.8,112.6z"/>
	</g>
</g>
<g>
	<g>
		<path class="st9" d="M54.5,117c-2-0.1-3.6-1.8-3.2-3.8c0.3-1.8,2.1-3.1,3.9-3.2c1-0.1,2.2,0,2.9,0.8c0.1,0.2,0.4-0.1,0.2-0.2
			c-0.7-0.8-1.7-0.9-2.7-0.9c-1,0-2.1,0.3-2.9,1c-1.6,1.2-2.4,3.5-1.1,5.3c0.7,0.9,1.8,1.5,3,1.6C54.7,117.3,54.7,117,54.5,117
			L54.5,117z"/>
	</g>
</g>
<g>
	<g>
		<path class="st9" d="M83.5,109.8c1.5-0.8,3.6-1.2,5.2-0.4c1.5,0.9,2,3.1,1.4,4.6c-0.4,1.1-1.4,1.9-2.5,2.1c-0.2,0-0.1,0.4,0.1,0.3
			c1-0.2,2-0.9,2.5-1.8c0.4-0.8,0.5-1.8,0.4-2.7c-0.1-0.9-0.6-1.9-1.3-2.5c-0.7-0.6-1.8-0.8-2.7-0.8c-1.1,0-2.2,0.3-3.2,0.9
			C83.1,109.7,83.3,109.9,83.5,109.8L83.5,109.8z"/>
	</g>
</g>
<path class="st9" d="M87.8,112.4c0-0.6-0.5-1.1-1.1-1.1c-0.6,0-1.1,0.5-1.1,1.1c0,0.6,0.5,1.1,1.1,1.1
	C87.2,113.5,87.8,113,87.8,112.4z"/>
<path class="st9" d="M56.1,113.4c0-0.6-0.5-1.1-1.1-1.1c-0.6,0-1.1,0.5-1.1,1.1c0,0.6,0.5,1.1,1.1,1.1
	C55.6,114.5,56.1,114,56.1,113.4z"/>
<g>
	<g>
		<path class="st9" d="M85.3,112.1c3.2,4.6,2.8,10.5,2.8,15.8c0,0.2,0.3,0.2,0.3,0c0.1-5.4,0.4-11.3-2.8-16
			C85.5,111.8,85.2,112,85.3,112.1L85.3,112.1z"/>
	</g>
</g>
<text transform="matrix(1.0144 0 0 1 58.9287 94.4492)"><tspan x="0" y="0" class="st11 st12 st13">SPEAKER</tspan><tspan x="0.9" y="6.7" class="st11 st12 st13">AWARD</tspan></text>
<g>
	<g>
		<path class="st9" d="M69.7,106.8c-0.4-0.4-0.7-1.1-0.3-1.5c0.2-0.2,0.4-0.2,0.6-0.1c0.2,0.1,0.3,0.4,0.2,0.6c0.1,0,0.2,0,0.2-0.1
			c-0.6-0.3-0.9-1-0.9-1.7c0-0.2-0.3-0.2-0.3,0c0,0.8,0.4,1.6,1.1,2c0.1,0,0.2,0,0.2-0.1c0.2-0.3,0.1-0.7-0.2-0.9
			c-0.3-0.3-0.7-0.3-1-0.1c-0.3,0.2-0.5,0.6-0.5,1c0,0.4,0.3,0.8,0.6,1.1C69.6,107.2,69.9,107,69.7,106.8L69.7,106.8z"/>
	</g>
</g>
<g>
	<g>
		<path class="st9" d="M68.5,107c-0.1-0.3-0.3-0.6-0.4-0.9c0-0.1-0.1-0.1-0.2-0.1c-0.1,0-0.2,0.1-0.1,0.2c0.1,0.3,0.3,0.6,0.4,0.9
			c0,0.1,0.1,0.1,0.2,0.1C68.5,107.2,68.6,107.1,68.5,107L68.5,107z"/>
	</g>
</g>
<g>
	<g>
		<path class="st9" d="M53.1,127.7C53.1,127.7,53.1,127.7,53.1,127.7c0-0.1,0-0.1,0-0.2c0,0,0,0,0-0.1c0,0-0.1,0-0.1,0
			c0,0,0,0-0.1,0c0,0,0,0-0.1,0c0,0,0,0,0,0c0,0,0,0,0,0.1c0,0,0,0.1,0,0.1c0,0,0.1,0.1,0.1,0.1c0,0,0,0,0,0c0,0,0,0,0,0
			c0,0,0,0,0,0c0,0,0,0,0,0c0,0,0,0,0,0c0,0,0,0,0,0c0,0,0,0,0,0c0,0,0,0,0,0c0,0,0,0,0,0c0,0,0,0,0,0c0,0,0,0,0,0c0,0,0,0,0,0
			c0,0,0,0,0,0c0,0,0,0,0,0c0,0,0,0,0,0c0,0,0,0,0,0.1c0,0,0,0,0,0.1c0,0,0,0,0,0.1c0,0,0,0,0,0C52.9,127.8,53,127.8,53.1,127.7
			C53.1,127.8,53.1,127.8,53.1,127.7L53.1,127.7z"/>
	</g>
</g>
<g>
	<g>
		<path class="st9" d="M54.1,128.5c0-0.1,0-0.2,0-0.3c0,0,0-0.1-0.1-0.1c0,0-0.1,0-0.1,0c0,0-0.1,0-0.1,0.1c0,0,0,0.1,0,0.1
			c0,0,0,0.1,0,0.1c0,0,0,0,0,0c0,0.1,0,0.1,0,0.2c0,0,0,0,0,0.1c0,0,0,0,0,0.1c0,0,0.1,0.1,0.1,0c0,0,0.1,0,0.1,0
			C54,128.6,54,128.6,54.1,128.5C54.1,128.6,54.1,128.5,54.1,128.5L54.1,128.5z"/>
	</g>
</g>
<g>
	<g>
		<path class="st9" d="M71.8,77.6C71.8,77.6,71.8,77.6,71.8,77.6c0,0.1,0.1,0.1,0.1,0.2c0,0.1,0.1,0.2,0.1,0.3
			c0.1,0.2,0.2,0.5,0.2,0.7c0.1,0.4,0,0.8-0.2,1.1c-0.4,0.5-1.1,0.7-1.7,0.8c-0.6,0-1.2-0.1-1.5-0.6c-0.4-0.5-0.4-1.1-0.4-1.7
			c0-0.6,0.3-1.2,0.9-1.4c0.4-0.1,0.2-0.8-0.2-0.6c-0.8,0.3-1.2,0.9-1.4,1.7c-0.1,0.8,0,1.7,0.4,2.3c1,1.4,3.5,1.2,4.5-0.1
			c0.4-0.5,0.4-1.1,0.3-1.7c-0.1-0.3-0.2-0.6-0.3-0.9c-0.1-0.3-0.2-0.6-0.6-0.7C71.6,76.9,71.4,77.6,71.8,77.6L71.8,77.6z"/>
	</g>
</g>
<g>
	<path class="st9" d="M68.8,122.4c0.1,0,0.1,0,0.2,0c0-0.1,0-0.1-0.1-0.2c-0.1,0.1-0.4,0.1-0.5,0.1c-0.3,0.1-0.6,0.4-0.8,0.6
		c-0.5,0.4-1,0.9-1.2,1.4c-0.5,1.4,1.1,2.1,2.3,2c0.9-0.1,1.8-0.5,2.7-0.6c0.9-0.1,1.7,0.2,2.5,0.4c1.1,0.3,2.3-0.4,2.1-1.7
		c-0.2-1.4-2-2.2-3.1-2.6c-0.1,0-0.2,0.1,0,0.2c1.2,0.4,3.4,1.4,3,3c-0.3,1.2-1.5,1-2.4,0.7c-0.6-0.2-1.3-0.4-1.9-0.3
		c-0.8,0.1-1.6,0.4-2.4,0.6c-0.9,0.2-2.7-0.1-2.6-1.4c0.1-0.8,0.9-1.4,1.5-1.9c0.2-0.2,0.4-0.3,0.6-0.4c0.1,0,0.3,0,0.4-0.1
		c0-0.1,0-0.2-0.1-0.2c-0.1,0-0.1,0-0.2,0C68.6,122.3,68.7,122.5,68.8,122.4L68.8,122.4z"/>
	<path class="st9" d="M73.4,126.1c0.3,0.8,0.5,1.9,0.2,2.7c-0.3,0.6-1.1,1.1-1.7,0.6c-0.3-0.2-0.4-0.5-0.5-0.8
		c-0.1-0.1-0.2,0-0.2,0.1c0.2,0.4,0.3,0.8,0.7,1c0.4,0.2,1,0.1,1.3-0.1c1-0.7,0.7-2.5,0.3-3.5C73.6,126,73.4,126,73.4,126.1
		L73.4,126.1z"/>
	<path class="st9" d="M75,121.3L75,121.3c-1.6-1.1-2.6-2.9-2.6-4.9c0-3.2,2.6-5.9,5.9-5.9c3.2,0,5.9,2.6,5.9,5.9
		c0,1.6-0.6,3.1-1.8,4.2l0,0l-0.1,0c-0.9-0.3-1.8-0.5-2.7-0.6c-1-0.1-2,0.1-3,0.5c-0.2,0.1-0.4,0.2-0.5,0.2
		C75.7,121.1,75.4,121.2,75,121.3L75,121.3z M78.3,110.8c-3.1,0-5.6,2.5-5.6,5.6c0,1.8,0.9,3.6,2.4,4.6c0.3-0.1,0.6-0.2,0.9-0.4
		c0.2-0.1,0.4-0.2,0.6-0.2c1-0.4,2-0.6,3.1-0.5c0.9,0,1.7,0.2,2.7,0.5c1.1-1.1,1.7-2.5,1.7-4C84,113.4,81.4,110.8,78.3,110.8z"/>
	<path class="st9" d="M60.2,121.7L60.2,121.7c-1.4-1.2-2.3-2.8-2.3-4.6c0-3.2,2.6-5.9,5.9-5.9c3.2,0,5.9,2.6,5.9,5.9
		c0,1.6-0.7,3.2-1.9,4.3l0,0l-0.1,0c-0.8-0.2-1.7-0.4-2.5-0.5C63.7,120.8,62,121.1,60.2,121.7L60.2,121.7z M63.8,111.5
		c-3.1,0-5.6,2.5-5.6,5.6c0,1.7,0.8,3.3,2.1,4.4c1.7-0.6,3.4-0.8,5-0.7c0.8,0.1,1.6,0.2,2.5,0.5c1.1-1.1,1.8-2.6,1.8-4.1
		C69.5,114,67,111.5,63.8,111.5z"/>
	<path class="st9" d="M73.7,121.8c0-0.8-1.2-1.4-2.6-1.4c-1.4,0-2.6,0.6-2.6,1.4c0,0.8,1.2,1.4,2.6,1.4
		C72.5,123.2,73.7,122.6,73.7,121.8z"/>
	<path class="st9" d="M76.4,116.5c0,1,0.8,1.9,1.9,1.9c1,0,1.9-0.8,1.9-1.9c0-1-0.8-1.9-1.9-1.9C77.3,114.6,76.4,115.5,76.4,116.5z
		 M79.5,115.8c0,0.3-0.2,0.5-0.5,0.5c-0.3,0-0.5-0.2-0.5-0.5c0-0.3,0.2-0.5,0.5-0.5C79.3,115.2,79.5,115.5,79.5,115.8z"/>
	<path class="st9" d="M62.5,118.2c0.7,0.7,1.9,0.7,2.7,0c0.7-0.7,0.7-1.9,0-2.7c-0.7-0.7-1.9-0.7-2.7,0
		C61.8,116.2,61.8,117.4,62.5,118.2z M64.2,115.5c0.2,0.2,0.2,0.5,0,0.8c-0.2,0.2-0.5,0.2-0.8,0c-0.2-0.2-0.2-0.5,0-0.8
		C63.6,115.2,63.9,115.2,64.2,115.5z"/>
	<path class="st9" d="M71.3,125.7c0.1,0.7,0.1,1.7,0,2.4c0,0.4-0.2,1-0.5,1.3c-0.4,0.4-1,0.3-1.4,0c-0.8-0.7-0.6-2.3-0.3-3.2
		c0-0.1-0.1-0.2-0.2,0c-0.3,1-0.6,3.3,0.8,3.7c0.7,0.2,1.2-0.2,1.5-0.8c0.2-0.5,0.2-1.2,0.2-1.7c0-0.5,0.1-1.1-0.1-1.6
		C71.4,125.6,71.2,125.6,71.3,125.7L71.3,125.7z"/>
	<path class="st9" d="M74.8,126.3c1.7-0.4,3.3-1.1,4.3-2.6c0.1-0.1-0.1-0.2-0.2-0.1c-0.9,1.5-2.6,2.1-4.2,2.5
		C74.6,126.2,74.6,126.3,74.8,126.3L74.8,126.3z"/>
	<path class="st9" d="M63.4,124.1c1.6,1.2,3.3,2,5.2,2.4c0.1,0,0.2-0.1,0-0.2c-1.9-0.4-3.6-1.2-5.2-2.4
		C63.4,123.9,63.3,124.1,63.4,124.1L63.4,124.1z"/>
	<path class="st9" d="M68.4,130.7c1.7,1.3,4.1,1.3,5.7,0c0.1-0.1,0-0.2-0.1-0.2c-1.6,1.2-3.9,1.2-5.5,0
		C68.4,130.5,68.4,130.7,68.4,130.7L68.4,130.7z"/>
	<path class="st9" d="M78.9,123.8c0.5,0.3,0.8,0.8,0.7,1.4c0,0.1,0.2,0.1,0.2,0c0.1-0.6-0.3-1.2-0.8-1.6
		C78.9,123.5,78.8,123.7,78.9,123.8L78.9,123.8z"/>
	<path class="st9" d="M63.4,124c-0.4,0.3-0.7,0.8-0.6,1.4c0,0.1-0.2,0.1-0.2,0c-0.1-0.6,0.2-1.2,0.7-1.6
		C63.5,123.8,63.5,124,63.4,124L63.4,124z"/>
</g>
</svg>
