<?xml version="1.0" encoding="utf-8"?>
<!-- Generator: Adobe Illustrator 24.0.1, SVG Export Plug-In . SVG Version: 6.00 Build 0)  -->
<svg version="1.1" id="Layer_1" xmlns="http://www.w3.org/2000/svg" xmlns:xlink="http://www.w3.org/1999/xlink" x="0px" y="0px"
	 viewBox="0 0 500 550" style="enable-background:new 0 0 500 550;" xml:space="preserve">
<style type="text/css">
	.st0{fill:#070707;}
	.st1{fill:none;stroke:#070707;stroke-width:1.5;stroke-miterlimit:10;}
</style>
<g>
	<g>
		<g>
			<path class="st0" d="M360.3,113.9c-10.8-19.7-29.4-33-50.2-40.6c-10.6-3.9-21.8-6-33.1-6.7c-14.2-0.9-28.5,1.3-42.6,2.8
				c-14.8,1.6-30.1,2-44.5,6c-12.4,3.5-23.7,9.9-33.6,18.1c-16.3,13.6-26.9,32.5-32.7,52.7c-12.2,42.4-5.2,87.9-2.7,131.1
				c1.9,32.8-2.3,65.2-3.4,98c-0.9,26.7,5.1,52.3,20.5,74.3c3.4,4.9,7.3,9.4,11.4,13.8c1.1,1.2,2.9-0.6,1.8-1.8
				c-19.5-20.7-30.2-46.6-31.2-75c-0.6-16,1.4-32.1,2.5-48c1.2-16.4,1.7-32.9,1.4-49.4c-0.9-45.8-10-92,0.9-137.3
				c4.8-20.1,14.3-38.7,29.3-53c9.5-9.1,20.9-15.8,33.3-20c14.4-4.9,30.1-5.1,45.1-6.8c13.4-1.4,26.9-3.4,40.4-3.2
				c11,0.2,22,2.2,32.5,5.4c21.8,6.7,41.6,20.6,52.7,40.8C358.9,116.6,361.1,115.3,360.3,113.9L360.3,113.9z"/>
		</g>
	</g>
	<g>
		<g>
			<path class="st0" d="M175.3,479.8c22.1,13.6,50.2,13.6,75.2,11.5c12.9-1.1,25.7-3,38.5-5.2c13.6-2.3,28.8-3.4,40.7-10.9
				c1.4-0.9,0.1-3-1.3-2.2c-11.6,7.4-26.8,8.4-40.1,10.7c-12.6,2.2-25.2,4-37.8,5.1c-24.5,2.1-52.3,2.2-73.9-11.2
				C175.2,476.8,173.9,479,175.3,479.8L175.3,479.8z"/>
		</g>
	</g>
	<g>
		<g>
			<path class="st0" d="M205.3,74.8c1.6,0,1.6-2.5,0-2.5S203.7,74.8,205.3,74.8L205.3,74.8z"/>
		</g>
	</g>
	<g>
		<g>
			<path class="st0" d="M123.4,147.2c-20.1-1.6-31.5-22.3-20.1-39.5c4.9-7.4,13.3-12.1,21.9-13.8c8-1.6,19.3-0.9,24.8,5.7
				c1,1.2,2.8-0.5,1.8-1.8c-5.9-7.1-17.2-7.9-25.8-6.6c-10,1.5-18.8,6.9-24.7,15.1c-5.8,8.1-6.5,18.5-2.6,27.5
				c4.2,9.7,14.8,15,24.8,15.8C125,149.8,125,147.3,123.4,147.2L123.4,147.2z"/>
		</g>
	</g>
	<g>
		<g>
			<path class="st0" d="M342.2,93.2c14.3-7.4,36.4-10.8,46.6,4.6c10.1,15.3,3.8,40.1-15.8,43.4c-1.6,0.3-0.9,2.7,0.7,2.4
				c21.4-3.6,27.1-29,18-45.9c-9.8-18.2-35.2-14.6-50.6-6.6C339.5,91.8,340.8,93.9,342.2,93.2L342.2,93.2z"/>
		</g>
	</g>
	<g>
		<g>
			<path class="st0" d="M231,170c0.4-0.1,0.8-0.1,1.2-0.2c-0.1-0.4-0.3-0.7-0.4-1.1c-0.8,0.9-3.3,0.7-4.4,1.4
				c-2.7,1.6-5.1,3.6-7.4,5.7c-3.6,3.3-7.1,7.9-6.3,13c0.7,5,7.7,8.3,12.1,8.7c9.1,0.9,17.2-4,26.1-4.4c10-0.4,26.1,11,29.7-5
				c2.6-11.7-13.6-18.6-21.9-21.7c-0.8-0.3-1.1,0.9-0.3,1.2c8.8,3.2,23.4,9.6,20.8,21.3c-1.8,7.9-9.6,7.2-15.6,5.5
				c-4.7-1.4-9-2.7-14-2.5c-5.5,0.2-10.9,2.5-16.2,3.7c-6.6,1.5-19.4,0.3-19.6-8.8c-0.1-5.7,6.4-10.8,10.5-13.8
				c1.4-1,2.8-2.1,4.5-2.5c0.8-0.2,2.3-0.3,2.9-1c0.3-0.4,0.1-1.1-0.4-1.1c-0.5,0.1-1,0.1-1.5,0.2C229.9,169,230.2,170.2,231,170
				L231,170z"/>
		</g>
	</g>
	<g>
		<g>
			<path class="st0" d="M263.5,195.9c2.2,5.8,2.9,11.9,1.6,18c-1.1,5-6,7.6-10.8,6.6c-2.8-0.6-4-4.7-5-6.9c-0.4-0.7-1.4-0.1-1.1,0.6
				c1.3,2.6,2.2,5.3,4.7,7c2.8,1.8,6.8,0.5,9.4-0.9c7.6-4.3,4.9-18.3,2.5-24.7C264.4,194.8,263.2,195.1,263.5,195.9L263.5,195.9z"/>
		</g>
	</g>
	<g>
		<g>
			<path class="st0" d="M150.7,463.8c11.9-6.1,18.2,9.1,26.4,14.7c0.1-0.4,0.1-0.8,0.1-1.1c-6.5,1-11.9,5.4-17,9.2
				c-6,4.5-13.7,11.2-21.6,7.5c-10-4.7-7.2-14.3-0.9-20.5c4.8-4.7,10.9-8.3,16.8-11.3c0.7-0.4,0.1-1.4-0.6-1.1
				c-9.5,4.8-31,17.2-20.7,30.1c13.1,16.4,31.1-10.8,44.4-12.8c0.6-0.1,0.5-0.9,0.1-1.1c-8.8-6-14.9-21.2-27.7-14.7
				C149.4,463.1,150,464.2,150.7,463.8L150.7,463.8z"/>
		</g>
	</g>
	<g>
		<g>
			<path class="st0" d="M137.1,492.4c-2-7,3.2-12.5,9-15.5c0.7-0.4,0.1-1.5-0.6-1.1c-6.3,3.3-11.7,9.4-9.6,16.9
				C136.1,493.5,137.3,493.2,137.1,492.4L137.1,492.4z"/>
		</g>
	</g>
	<g>
		<g>
			<path class="st0" d="M351.6,492.1c-6.8-4-11-10.8-16.7-16.1c-0.6-0.5-1.4-1.1-2-1.5c-5.4-3.9,2.1-8.9,4.2-10.5
				c4.9-3.8,10.5-5.6,16.6-3.9c8.3,2.4,13.7,11.4,15.7,19.2c1.1,4.5,0.5,9.2-2.8,12.7C363,496,355.8,494.2,351.6,492.1
				c-0.7-0.4-1.4,0.7-0.6,1.1c7.6,3.8,19.2,3.1,20.1-7.5c1-10.6-6-21.8-15.5-26.2c-4.9-2.3-10.1-1.5-14.8,0.7
				c-3.5,1.6-11.1,6.4-11.3,10.9c-0.1,4,5.2,6.3,7.6,8.9c4.4,4.7,8.1,9.9,13.8,13.2C351.7,493.6,352.3,492.5,351.6,492.1z"/>
		</g>
	</g>
	<g>
		<g>
			<path class="st0" d="M355.7,476.1c4.5,4.7,8.1,10.7,8.3,17.3c0,0.8,1.3,0.8,1.2,0c-0.2-7-3.9-13.3-8.7-18.2
				C356,474.6,355.1,475.5,355.7,476.1L355.7,476.1z"/>
		</g>
	</g>
	<g>
		<g>
			<path class="st0" d="M379.7,275.9c2.4,1.1,5.7,0.3,8.3,0.3c7.2,0,14.9,5.1,18.5,11.1c1.9,3.1,2.3,7.1,1.6,10.6
				c-1,5.1-5.9,5.8-10.2,5.2c-6.8-1-12.1-6.1-16.8-10.7c-0.6-0.6-1.5,0.3-0.9,0.9c5.2,5.1,11.3,10.8,19.1,11.3
				c5.1,0.3,9.7-2,10.3-7.6c0.7-6.5-2.2-12.8-7.6-16.6c-3.5-2.5-7.3-4-11.5-5c-3.2-0.7-7.3,0.8-10.2-0.5
				C379.6,274.5,379,275.6,379.7,275.9L379.7,275.9z"/>
		</g>
	</g>
	<g>
		<g>
			<path class="st0" d="M396.2,293c4.6,1.4,10.1,5.3,7.4,10.7c-0.4,0.7,0.7,1.3,1.1,0.6c3.2-6.2-2.7-10.8-8.1-12.5
				C395.7,291.5,395.4,292.8,396.2,293L396.2,293z"/>
		</g>
	</g>
	<circle class="st1" cx="297.7" cy="128.4" r="40.2"/>
	<path class="st1" d="M236.6,132.6c0-22.2-18-40.2-40.2-40.2c-22.2,0-40.2,18-40.2,40.2c0,22.2,18,40.2,40.2,40.2
		C218.6,172.8,236.6,154.8,236.6,132.6z"/>
	<path class="st0" d="M374.7,112.4c0-4.7-3.8-8.5-8.5-8.5c-4.7,0-8.5,3.8-8.5,8.5c0,4.7,3.8,8.5,8.5,8.5
		C370.9,120.9,374.7,117.1,374.7,112.4z"/>
	<circle class="st0" cx="127.2" cy="120" r="8.5"/>
	<path class="st0" d="M265.3,165.5c0-5.5-8.1-10-18-10c-9.9,0-18,4.5-18,10c0,5.5,8.1,10,18,10C257.2,175.4,265.3,171,265.3,165.5z"
		/>
	<path class="st0" d="M298.6,113.6c-7.3,0-13.1,5.9-13.1,13.1c0,7.3,5.9,13.1,13.1,13.1c7.3,0,13.1-5.9,13.1-13.1
		C311.7,119.5,305.9,113.6,298.6,113.6z M303.9,135.1c-2.1,0-3.7-1.7-3.7-3.7c0-2.1,1.7-3.7,3.7-3.7c2.1,0,3.7,1.7,3.7,3.7
		C307.6,133.5,305.9,135.1,303.9,135.1z"/>
	<path class="st0" d="M196.6,116.7c-7.3,0-13.1,5.9-13.1,13.1s5.9,13.2,13.1,13.2c7.3,0,13.1-5.9,13.1-13.2S203.8,116.7,196.6,116.7
		z M201.9,138.3c-2.1,0-3.7-1.7-3.7-3.7s1.7-3.7,3.7-3.7c2.1,0,3.7,1.7,3.7,3.7S203.9,138.3,201.9,138.3z"/>
	<g>
		<g>
			<path class="st0" d="M248.3,193.2c1,5.3,0.5,11.7,0.1,17c-0.5,6.8-6.1,15.2-13.4,9.1c-5.6-4.7-3.9-16.5-2-22.6
				c0.2-0.8-1-1.1-1.2-0.3c-2.3,7.7-3.9,22.5,5.9,25.8c14.4,4.8,13.3-22,11.9-29.3C249.4,192,248.2,192.4,248.3,193.2L248.3,193.2z"
				/>
		</g>
	</g>
	<g>
		<g>
			<path class="st0" d="M122.2,279.2c-9.2-1.6-18.6,2.7-25.3,8.9c-4.7,4.3-7.2,10.8-0.6,14.5c0.7,0.4,1.3-0.7,0.6-1.1
				c-8.3-4.6,0.1-12.3,4.8-15.6c5.8-4.1,13.1-6.7,20.2-5.4C122.6,280.6,123,279.4,122.2,279.2L122.2,279.2z"/>
		</g>
	</g>
	<g>
		<g>
			<path class="st0" d="M103.2,296c-2.5,1.2-6.3,3.7-6.2,7c0.1,3,2.9,4.9,5.7,5.2c7.8,1,16.1-7.1,20.3-12.8c0.5-0.7-0.6-1.3-1.1-0.6
				c-3.3,4.5-7.9,8.4-12.8,10.9c-3.3,1.7-7.9,2.3-10.5-1.1c-2.3-3.1,3.2-6.5,5.2-7.5C104.5,296.7,103.9,295.6,103.2,296L103.2,296z"
				/>
		</g>
	</g>
	<g>
		<g>
			<path class="st0" d="M356.1,110.6c15.2,22.2,19.4,49.2,20.7,75.5c1.3,27.4-0.2,54.8,0.9,82.2c1.3,32.4,4,64.7,3.9,97.1
				c-0.1,16-0.9,31.8-4.4,47.4c-1.6,7.3-3.8,14.4-7.3,21.1c-3.2,6.1-7.3,11.6-11,17.3c-1.5,2.3-2.8,4.6-4.1,6.9
				c-0.8,1.4,1.4,2.7,2.2,1.3c6.2-11.5,14.7-21.3,19.2-33.7c4.9-13.6,6.7-28.6,7.5-42.9c1.6-32.3-1-64.7-2.7-96.9
				c-1.5-28.6-1-57-1.3-85.6c-0.3-24.8-2-50.8-12-73.8c-2.6-6-5.7-11.7-9.4-17.2C357.3,108,355.1,109.3,356.1,110.6L356.1,110.6z"/>
		</g>
	</g>
	<g>
		<g>
			<path class="st0" d="M329.4,474c0.2,0,0.4,0,0.6,0c0.8,0,0.8-1.2,0-1.2c0,0-0.1,0-0.1,0c-0.2,0-0.4,0.1-0.5,0.3
				c-0.1,0.1-0.2,0.2-0.1,0.2c0.3,0.3,0.5,0.5,0.8,0.8c0.1-0.2,0.2-0.5,0.2-0.7c-0.3,0.1-0.7,0.2-1,0.3c0.2,0.2,0.5,0.5,0.7,0.7
				c0.6,0.6,1.5-0.3,0.9-0.9c-0.2-0.2-0.5-0.5-0.7-0.7c-0.3-0.3-0.9-0.2-1,0.3c-0.1,0.2-0.2,0.5-0.2,0.7c-0.2,0.5,0.3,0.9,0.8,0.8
				c0.4-0.1,0.7-0.4,0.9-0.8c-0.2,0.1-0.4,0.2-0.5,0.3c0,0,0.1,0,0.1,0c0.8,0,0.8-1.2,0-1.2c-0.2,0-0.4,0-0.6,0
				C328.6,472.8,328.6,474,329.4,474L329.4,474z"/>
		</g>
	</g>
</g>
</svg>
