<?xml version="1.0" encoding="utf-8"?>
<!-- Generator: Adobe Illustrator 24.0.1, SVG Export Plug-In . SVG Version: 6.00 Build 0)  -->
<svg version="1.1" id="Layer_1" xmlns="http://www.w3.org/2000/svg" xmlns:xlink="http://www.w3.org/1999/xlink" x="0px" y="0px"
	 viewBox="0 0 141.7 141.7" style="enable-background:new 0 0 141.7 141.7;" xml:space="preserve">
<style type="text/css">
	.st0{fill:url(#SVGID_1_);}
	.st1{opacity:0.25;fill:url(#SVGID_2_);enable-background:new    ;}
	.st2{opacity:0.28;fill:url(#SVGID_3_);enable-background:new    ;}
	.st3{opacity:0.15;fill:url(#SVGID_4_);enable-background:new    ;}
	.st4{fill:#75CEEB;}
	.st5{fill:#FFFFFF;}
	.st6{opacity:0.61;fill:#75CEEB;enable-background:new    ;}
	.st7{fill:#C9B09D;}
	.st8{opacity:0.55;fill:#E2DEDE;enable-background:new    ;}
	.st9{opacity:0.8;fill:#EDBC7A;enable-background:new    ;}
	.st10{fill:#B77329;}
	.st11{opacity:0.61;fill:#BEE6F0;enable-background:new    ;}
	.st12{fill:#EE6459;}
	.st13{fill:#EDBC7A;}
	.st14{opacity:0.45;fill:#E2DEDE;enable-background:new    ;}
	.st15{opacity:0.4;fill:#FFFFFF;enable-background:new    ;}
	.st16{opacity:0.35;fill:#FFFFFF;enable-background:new    ;}
	.st17{fill:#090909;}
	.st18{fill:none;stroke:#090909;stroke-width:0.5169;stroke-miterlimit:10;}
	.st19{fill:#010101;}
	.st20{fill:#231F20;}
	.st21{fill:none;stroke:#231F20;stroke-width:0.5169;stroke-miterlimit:10;}
	.st22{fill:none;stroke:#231F20;stroke-width:2.0674;stroke-miterlimit:10;}
	.st23{fill:none;stroke:#231F20;stroke-width:0.5169;stroke-miterlimit:10.0003;}
	.st24{fill:none;stroke:#231F20;stroke-width:0.5169;stroke-miterlimit:10.0015;}
	.st25{fill:none;stroke:#231F20;stroke-width:0.2584;stroke-miterlimit:10;}
	.st26{fill:#090909;stroke:#231F20;stroke-width:0.2584;stroke-miterlimit:10;}
	.st27{fill:#090909;stroke:#231F20;stroke-width:0.5169;stroke-miterlimit:10;}
</style>
<linearGradient id="SVGID_1_" gradientUnits="userSpaceOnUse" x1="7.8077" y1="70.6558" x2="134.326" y2="70.6558" gradientTransform="matrix(1 0 0 -1 0 141.7323)">
	<stop  offset="0" style="stop-color:#2484C7;stop-opacity:0"/>
	<stop  offset="0.6385" style="stop-color:#2484C7"/>
	<stop  offset="0.919" style="stop-color:#3C3292;stop-opacity:0.9621"/>
	<stop  offset="1" style="stop-color:#3C3292;stop-opacity:0.9621"/>
</linearGradient>
<path class="st0" d="M39,101.7c-2,1-6.6,3.3-12.8,3.1c-2-0.1-8.8-0.4-13.4-4.9c-7.2-6.8-5.2-20-2.7-32.4c0.2-1,0.4-2.1,0.6-3.1
	c1.1-5.7,2.6-10.2,3.5-13c0.7-3.4,2.8-10.4,8.7-17c7.5-8.3,16.6-10.5,20-11.3C45,19.4,52.5,7.3,64.1,5.2c2.1-0.4,6.1-1,8.8,1.1
	c3.4,2.7,1.4,6.8,4,9.8C81,21,91,15.6,101,16.5c6.8,0.6,15.8,4.1,25.8,17.2c2.3,3.5,7.4,12.6,7.2,25.1c-0.2,9.7-3.5,17-5.5,20.6
	c-1.1,3.2-2.7,7.8-4.4,13.1c-4.4,13.2-5.3,16.5-3.8,20.1c0.5,1.2,1.4,3.1,2.1,6.1c0.6,2.8,0.6,5.2,0.5,6.7c-0.4,1.4-1.2,3.7-3.1,5.9
	c-3.1,3.8-7,5.2-8.7,5.6c-2.1,0-5.4-0.2-9.3-1.1c-6.9-1.7-8.4-4-13.6-4c-4,0.1-7.9,1.4-9,2c-2.9,1.1-3.4,1.9-5.5,2.6
	c-4.4,1.7-8.6,0.7-11.3,0.2c-1.3-0.3-16.5-3.7-17.7-11.6c-0.8-5.8,6.6-8.4,5.8-16c-0.1-1-0.6-5.3-4-7.2
	C43.3,99.8,39.6,101.3,39,101.7z"/>
<linearGradient id="SVGID_2_" gradientUnits="userSpaceOnUse" x1="6.7105" y1="67.3553" x2="134.1497" y2="67.3553" gradientTransform="matrix(1 0 0 -1 0 141.7323)">
	<stop  offset="0" style="stop-color:#2484C7;stop-opacity:0"/>
	<stop  offset="0" style="stop-color:#2484C7;stop-opacity:3.392472e-02"/>
	<stop  offset="0.1412" style="stop-color:#5BBA47;stop-opacity:0.9621"/>
	<stop  offset="0.3108" style="stop-color:#199B48;stop-opacity:0.6708"/>
	<stop  offset="0.6783" style="stop-color:#46419A;stop-opacity:0.9386"/>
	<stop  offset="0.8819" style="stop-color:#6EBE45;stop-opacity:0.9621"/>
</linearGradient>
<path class="st1" d="M24.5,84.8c0.2,0.5,1.1,2.3,3.2,2.8c1.9,0.5,3.5-0.3,3.9-0.6c5.2-2.7,2.9-11.7,6.7-13.2
	c1.2-0.5,2.7-0.2,9.6,4.4c4.7,3.1,8.5,5.9,11.2,8c6.3,3.6,12,6.9,17.5,10c1.4,0.8,2.9,1.7,5.1,1.8c4.4,0.3,5.9-2.9,11.6-5.4
	c6.5-2.9,9-0.6,13-3.6c3.3-2.5,4.8-6.3,5.4-9.2c1-0.6,4.2-2.3,8.6-1.8c4.1,0.5,6.7,2.7,7.6,3.5c0.2-0.5,0.4-1,0.5-1.3
	c0.2-0.6,0.2-0.8,0.4-1.1c0.2-0.4,0.3-0.5,0.6-0.9c0.2-0.4,0.3-0.7,0.5-1c0.3-0.9,0.5-1.1,0.9-2.1c0.5-1.1,1.4-3.4,2.1-6.1
	c0.1-0.5,0.2-0.9,0.5-2.2c0.3-1.4,0.4-1.6,0.5-2.2c0.2-0.9,0.1-1.1,0.2-2.6c0.2-2.1,0.3-2.4,0.2-2.5c-0.6-0.3-2.2,4.7-6.4,6.4
	c-1.2,0.5-3.2,0.8-5.9,1.4c-1.8,0.4-2.3,0.5-3.2,0.9c-1.2,0.5-1.4,0.7-2.3,0.9c-1.4,0.2-2.7-0.5-3.2-0.7c-4.2-2.1-12.2,7.8-16.3,5.6
	c-1.1-0.5-0.6-1.3-3.8-4.9c-1.2-1.3-1.8-1.7-1.8-2.4c-0.2-2.5,5.5-4.5,5.2-5.2c-0.1-0.3-1.7,0.1-3.8,0.4c-3.6,0.5-6.6,0.4-9.2,0.2
	c-4.4-0.3-4.5-0.9-6-0.4c-3.7,1.2-5,6.1-5.6,5.8c-0.3-0.2,0.2-1.7,0.4-4.9c0.1-2,0.2-2.9-0.1-3.3c-1.3-1.3-5.5,2.3-13.6,4.2
	c-1.2,0.3-2.9,0.6-6.2,1.2s-3.9,0.6-4.8,0.5c-0.4-0.1-4.1-0.6-5.8-3.4c-0.4-0.7-0.7-2.5-1.4-6.1c-0.2-1-0.4-2.2-1.3-3.2
	c-0.6-0.7-1.3-1-1.9-1.2c-1.6-0.4-3.9-0.8-6.6-0.4c-3.5,0.4-5.9,2-7.9,2.9c-2.6,1.2-6.2,2.9-10.9,4.8c-0.2,1.1-0.4,2.3-0.6,3.5
	c-1.6,8.5-3.1,16.8-4.4,25.2c0.5-1.2,2.4-5.5,6.8-7.1c0.9-0.3,3.2-1,5.8-0.2C22.7,81.1,24.2,84.3,24.5,84.8z"/>
<linearGradient id="SVGID_3_" gradientUnits="userSpaceOnUse" x1="14.4" y1="108.9478" x2="134.3" y2="108.9478" gradientTransform="matrix(1 0 0 -1 0 141.7323)">
	<stop  offset="5.310961e-03" style="stop-color:#2484C7;stop-opacity:0"/>
	<stop  offset="0.2406" style="stop-color:#B157A1;stop-opacity:0.4427"/>
	<stop  offset="0.5623" style="stop-color:#2484C7"/>
	<stop  offset="0.9989" style="stop-color:#E16C65"/>
</linearGradient>
<path class="st2" d="M14.4,50.2c16-9.2,22.8-9.1,25.7-6.6c3.2,2.8,0.8,7.5,4.4,11.1c4.2,4.1,10.8-1.7,26.5-3
	c9.7-0.8,20.4-1.8,26.8,4.2c1.7,1.7,3.3,3.8,6.6,4.9c3.7,1,6.9-2,10.4-0.9c0.5,0.2,1.9,0.6,3.4,0.3c0.6-0.1,0.4-0.2,1.9-0.6
	c0.7-0.2,1.6-0.4,3.1-0.8c0.3-0.1,0.4-0.1,0.7-0.2c4.4-1.2,8.1-2.2,10.4-2.8c-0.2-4.4-1.1-10.6-4.3-17.2c-0.5-1-2.4-4.7-5.9-8.7
	c-3.1-3.6-6.2-6.2-8.7-7.9c-2.9-1.8-5.2-2.9-6.6-3.6c-1.2-0.6-2.1-0.9-3.1-1.2c-1.1-0.3-2.6-0.6-3.4-0.6c-0.2,0-0.4-0.1-0.9-0.1
	c-0.7-0.1-0.9-0.2-1.3-0.2c-0.5-0.1-0.8,0-1.6,0.1c-0.5,0.1,0.9-0.1-2.2,0.2c-2.2,0.2-3.2,0.4-3.7,0.4c-2,0.3-2,0.4-3.8,0.6
	c-0.6,0.1-0.6,0.1-3.1,0.3c-3.2,0.3-3.4,0.4-3.9,0.3c-0.9-0.1-2.4-0.2-3.6-1.2c-1.1-0.8-1.9-2.1-2.1-3.1c-0.1-0.2-0.2-0.9-0.3-1.6
	c-0.1-0.5-0.2-0.8-0.2-1.1c-0.1-0.9-0.4-3.9-2.8-5.5c-1-0.7-2-0.9-2.9-1C66.7,4.2,61.8,5,56.8,8c0,0-6.2,3.7-10,9.7
	c-0.1,0.2-0.7,1.1-1.7,2.6c-0.7,1-1.3,2-1.8,2.6c-0.5,0.2-0.9,0.3-1.2,0.4c-0.8,0.3-1,0.2-2,0.5c-0.4,0.1-0.5,0.2-1,0.3
	c-0.5,0.2-0.7,0.2-1.3,0.4c-0.8,0.3-1.6,0.6-2.1,0.7c-3.3,1.4-10,5.1-15.3,12.5C16.6,42.6,15.1,47.2,14.4,50.2z"/>
<linearGradient id="SVGID_4_" gradientUnits="userSpaceOnUse" x1="12.0515" y1="31.3387" x2="122.9795" y2="31.3387" gradientTransform="matrix(1 0 0 -1 0 141.7323)">
	<stop  offset="0.5058" style="stop-color:#CC6980;stop-opacity:0.8786"/>
	<stop  offset="0.6936" style="stop-color:#B656A1;stop-opacity:0.5644"/>
	<stop  offset="0.7932" style="stop-color:#2484C7;stop-opacity:0"/>
	<stop  offset="1" style="stop-color:#2484C7"/>
	<stop  offset="1" style="stop-color:#2C83C2"/>
	<stop  offset="1" style="stop-color:#4B80B3"/>
</linearGradient>
<path class="st3" d="M44.9,125.2c0,0.1,0.2,1,0.6,2c0.5,1,1.4,2.4,3.8,4c0.5,0.4,2.2,1.4,5.3,2.8c0.8,0.3,4,1.7,8.8,2.6
	c2.9,0.6,4.4,0.8,6.3,0.6c2.3-0.2,4-0.9,5.1-1.3c2.2-0.8,1.9-1.1,4.1-2.1c0,0,3.3-1.4,7.5-2c0.4-0.1,1.1-0.2,2-0.1
	c0.2,0,0.3,0,2,0.2c1.4,0.2,1.7,0.2,2,0.3c0.4,0.1,0.7,0.2,1.3,0.5c0.7,0.3,1.1,0.5,1.2,0.5c1.2,0.6,3.2,1.3,3.7,1.6
	c2.3,0.9,4.1,1.1,6.6,1.6c1.8,0.3,2.9,0.4,3.4,0.4c1.7,0.1,2.5,0.3,3.4,0c0.3-0.1,0.3-0.1,1.9-0.9c2.6-1.3,2.5-1.3,2.8-1.6
	c0.8-0.5,1.3-1.1,2.6-2.3c0.9-0.9,1.1-1.2,1.3-1.6c0.4-0.5,0.3-0.6,1-1.9c0.6-1.1,0.7-1.2,0.9-1.8c0.1-0.1,0.3-0.8,0.4-1.8
	c0.2-1.1,0-2.2-0.2-2.9c0.1-1.4-0.1-2.6-0.3-3.4c-0.3-1.7-0.9-3.1-1.4-4.3c-0.5-1.3-0.6-1.3-0.8-2c-0.3-1.3,0-2.3-0.6-2.8
	c-0.4-0.3-0.8-0.3-1-0.4c-1.8-0.4-3.3-4.4-3.1-8.3c0.4-5.7,4.5-6.8,4.1-10c-0.7-5-12.1-9.4-15.6-6.2c-4,3.6,1.3,18,0.2,18.3
	c-0.1,0-0.3,0-0.9-0.1c-0.7-0.1-0.9-0.2-1.3-0.2c-0.5-0.1-0.8,0-1.6,0.1c-0.5,0.1,0.9-0.1-2.2,0.2c-2.2,0.2-3.2,0.4-3.7,0.4
	c-2,0.3-2,0.4-3.8,0.6c-0.6,0.1-0.6,0.1-3.1,0.3c-3.2,0.3-3.4,0.4-3.9,0.3c-0.9-0.1-2.4-0.2-3.6-1.2c-1.1-0.8-1.9-2.1-2.1-3.1
	c-0.1-0.2-0.2-0.9-0.3-1.6c-0.1-0.5-0.2-0.8-0.2-1.1c-0.8-1.3-1.9-3.2-2.8-5.5c-1.4-3.9-1-5.5-2.4-6.4c-2.1-1.2-6.2,0.4-8.2,2.9
	c-0.6,0.8-0.8,1.4-1.9,2.3c-1.4,1.1-3.1,1.3-4.3,1.4c-5,0.3-8-2.3-11.7-2.5c-5.3-0.3-6.1,4.5-12.9,7.5c-10.1,4.4-20.6-0.8-21.1,1
	c-0.4,1.1,3.7,3.6,6.7,4.8c4.3,1.7,9.2,1,9.2,1h-0.2c0,0,0.3,0,0.7,0.1c0.2,0,0.4,0,0.8-0.1c2.5-0.3,4.1-0.7,4.1-0.7
	c0.7-0.2,1.6-0.4,2.7-0.9c0.6-0.3,0.9-0.4,2.5-1.1c0.7-0.3,1-0.5,1.1-0.5c2.2-0.8,4.1-0.5,4.7-0.5c0.4,0.1,1,0.2,1.8,0.5l0,0
	c0,0,1.3,0.7,2.9,2.7l0.2,0.3c0,0-0.2-0.2-0.2-0.1c0,0,0.5,0.5,0.6,0.9c0,0.1,0.1,0.2,0.1,0.2c0.1,0.2,0.1,0.3,0.2,0.7
	c0.2,0.7,0.3,0.8,0.5,1.2c0.1,0.3,0.1,0.6,0.2,1.1c0.1,0.9,0.2,1.4,0.1,2.3c-0.1,0.7-0.2,1.2-0.3,1.8c-0.1,0.2-0.1,0.6-0.3,1
	c-0.3,0.9-0.7,1.3-1.6,2.6c-0.7,1.1-0.6,1-1.2,2.1c-0.8,1.1-0.8,1-1.3,1.9c-0.5,0.8-1,1.7-1.1,2.8C44.6,123.8,44.8,124.6,44.9,125.2
	z"/>
<path class="st4" d="M61.9,84l-0.2-3.9L61.2,74c0,0-0.3-10.3,1.1-14.4c0,0-7.2-1.2-4.1-7.6c0,0,4.1-5.2,9-1.6l0.5-0.2
	c0,0,3.8-4.8,14.1-5l9.1-0.6c0,0,7.2,0.7,11.8,4.5c0,0,6.2-3.1,8.9,0.9c0,0,3.4,6.3-3.1,8.4l-0.1,0.7l0.6,3.4l0.3,3.5l0.1,4.8v8.5
	l0.2,5.5l0.6,12.8v4.5l-0.3,3.6l-0.7,3.8l-0.9,2.6l-0.7,1.6l-1.7,2.8l-0.6,0.6c0,0-3.7-0.4-4.8,2.6l-1.7,1l-2.7,0.7l-4.1,0.7
	l-3.7,0.5L85,123h-3.7h-2.6l-2.7-0.6l-2.3-0.6l-1.8-1v-0.3l-1-1l-0.9-0.8l-0.9-0.7l-0.8-0.2l-1,0.2l-1-1.2c0,0-4.8-5-4.9-13.9
	l0.4-7.5l0.2-4.7L61.9,84z"/>
<circle class="st5" cx="76.4" cy="57.5" r="7.3"/>
<circle class="st5" cx="94.4" cy="56.8" r="7.3"/>
<path class="st6" d="M71,62.2c0.2,0.1,0.5,0.3,0.9,0.5c0.6,0.3,1.2,0.4,2.1,0.6c1.1,0.2,2.8,0.4,4.9,0.1c0.7-0.1,1.8-0.4,2.8-0.9
	c-0.4,0.4-2.2,2.3-5,2.5c0,0-2.1,0.1-4.2-1c-0.3-0.2-0.7-0.4-1.1-0.9C71.2,62.6,71.1,62.4,71,62.2z"/>
<path class="st6" d="M88.8,61.4c0.4,0.2,0.9,0.4,1.4,0.6c0.2,0.1,0.9,0.3,1.9,0.4c2.5,0.4,4.7,0,5-0.1c0.7-0.2,1.8-0.4,2.9-1
	c-0.3,0.4-0.6,0.8-1.2,1.3c-1.7,1.2-3.4,1.4-4,1.4c-2,0.1-3.5-0.6-4.2-1c-0.5-0.4-1.1-0.9-1.1-0.9C89.2,61.9,89,61.7,88.8,61.4z"/>
<path class="st5" d="M82.9,69.3c-0.1,0.3-0.2,0.7-0.2,1.1c-0.1,0.6,0,1.1,0.1,1.6c0.2,0.4,0.4,0.9,0.6,1.3c0.1,0.1,0.3,0.3,0.7,0.5
	c0.4,0.2,0.7,0.2,0.9,0.1c0.2-0.1,0.4-0.2,0.6-0.4c0.2-0.2,0.3-0.3,0.3-0.4c0.3,0.2,0.6,0.4,1,0.7c0.3,0,0.6,0.1,1-0.1
	c0.4-0.1,0.6-0.2,0.8-0.3c0.1-0.1,0.4-0.4,0.5-0.8c0.1-0.3,0.1-0.6,0.1-0.8c0-0.5-0.1-1-0.1-1.6c-0.1-0.4-0.2-0.7-0.3-1.1
	c-0.4-0.1-0.9-0.3-1.3-0.4l-1-0.3l-0.8,0.1L85,68.7L84.1,69L82.9,69.3z"/>
<path class="st7" d="M82.9,64.2l-1.1,0.5l-0.9,0.7L80.3,66l-0.4,0.4L79.7,67v1l0.5,0.5l0.6,0.4l1.9,0.6l0.5-0.4l1.2-0.3l1.4-0.4
	l0.9-0.1l1,0.3l1.1,0.4l1.4,0.2l0.9-0.6l0.4-0.8V67l-0.2-0.6L91,65.6l-0.6-0.5l-0.6-0.3l-0.6-0.3l-0.5-0.3c0,0-0.8-0.2-0.9-0.3
	C87.9,63.8,82.9,64.2,82.9,64.2z"/>
<polygon class="st7" points="61.7,83.9 60.8,84 59.9,84.1 58.9,84.5 58,85 57.4,85.5 56.6,86.4 56.4,86.9 56.4,87.5 56.8,87.9 
	57.3,88.1 57.5,88.5 57.6,88.8 58.1,89 58.9,89.1 59.9,88.8 60.3,88.4 61,87.8 61.7,87.3 62,86.9 61.8,85 "/>
<path class="st7" d="M109.8,86.3c0.1,0.1,0.7,0.7,0.7,0.7l1.1,0.8l1.1,0.5l1,0.1l0.7-0.3l0.5-0.5l0.2-0.7l-0.1-0.8l-0.5-1.1
	l-0.5-0.5l-0.7-0.5l-0.7-0.3l-0.8-0.2l-1-0.1l-1.1-0.1L109.8,86.3z"/>
<path class="st7" d="M67.9,117.8l-0.8,0.4l-0.9,0.5c0,0-0.6,0.4-0.7,0.5s-0.7,0.6-0.7,0.6s-0.4,0.5-0.5,0.6s-0.4,0.6-0.4,0.6
	s-0.9,1,0.7,2.5l0.7,0.4l1,0.1l0.7-0.3l0.6-0.4l0.9-0.7l1.2-0.9l0.8-0.5l1-0.4H72l-1.1-1.1l-0.7-0.9l-1-0.7l-0.6-0.2L67.9,117.8
	L67.9,117.8z"/>
<path class="st7" d="M100.8,119.6"/>
<path class="st7" d="M101,120.1l0.8,0.9l1,1.1l1.2,1.1l1.4,0.6h1.4l0.6-0.6l0.5-0.9v-0.8l-0.3-1.2l-0.4-0.7l-0.5-0.9l-0.9-0.9
	l-0.8-0.3c0,0-0.8-0.2-0.9-0.2s-1.8,0.4-1.8,0.4l-0.8,0.5l-0.7,0.7L101,120.1z"/>
<path class="st8" d="M60.9,121.9c0,0.1,0.5,1.1,0.5,1.1l0.8,1c0.7,0.5,2.1,1.6,4.1,2c1.7,0.3,2.9,0,3.5-0.1c0.8-0.2,2.1-0.5,3.3-1.4
	c0.9-0.7,1.4-1.7,1.8-2.2c-0.1,0.4-0.2,0.8-0.3,1.3c-0.1,0.3-0.3,0.7-0.6,1.2c-0.3,0.4-0.7,0.8-0.9,1c-0.5,0.4-1.1,0.9-2.2,1.2
	c-1,0.4-1.9,0.5-2.5,0.5s-1.4,0-2.4-0.2s-1.9-0.6-2.4-0.9c-0.6-0.3-1.3-0.9-2-1.8c-0.4-0.5-0.8-1.1-0.8-2.1
	C60.8,122.3,60.8,122,60.9,121.9z"/>
<path class="st8" d="M97.3,121.9c0,0.1,0.5,1.1,0.5,1.1l0.8,1c0.7,0.5,2.1,1.6,4.1,2c1.7,0.3,2.9,0,3.5-0.1c0.8-0.2,2.1-0.5,3.3-1.4
	c0.9-0.7,1.4-1.7,1.8-2.2c-0.1,0.4-0.2,0.8-0.3,1.3c-0.1,0.3-0.3,0.7-0.6,1.2c-0.3,0.4-0.7,0.8-0.9,1c-0.5,0.4-1.1,0.9-2.2,1.2
	c-1,0.4-1.9,0.5-2.5,0.5s-1.4,0-2.4-0.2s-1.9-0.6-2.4-0.9c-0.6-0.3-1.3-0.9-2-1.8c-0.4-0.5-0.8-1.1-0.8-2.1
	C97.2,122.3,97.2,122,97.3,121.9z"/>
<path class="st8" d="M52.4,65.3c-0.2,1.2-0.3,2.6-0.3,4c-0.1,1.4-0.1,2.8,0,4c0,0.8,0.1,2.1,0.2,3.5c0.1,1.6,0.3,3.5,0.7,5.8
	c0.3,1.6,0.7,3.7,1.4,6.1c0.3,1.1,0.7,2.4,1.2,3.8c0.8,2.2,1.6,3.7,1.9,4.5c0.7,1.6,1.8,3.5,3.2,5.6c0.9,1.3,1.8,2.5,2.5,3.3
	c1.3,1.7,2.4,2.8,3,3.3c1,1,1.8,1.7,2.1,1.9c0.6,0.5,1.1,0.9,1.6,1.2c1.3,0.9,3,2.1,5.1,3c3.9,1.8,7.5,2.3,10,2.4
	c1.3,0,3.2-0.1,5.3-0.4c0.7-0.1,3.4-0.7,6.6-2.3c2.5-1.2,4.4-2.7,6-3.9c0.9-0.8,2-1.8,2.9-2.8c4.7-4.9,7.2-10.1,8.9-14.4
	c-1.6,3.4-3.8,7.4-7.2,11.4c-0.9,1-1.8,2-2.7,2.8c-0.6,0.6-1.6,1.3-2.7,2.3c-2.2,1.7-4.1,2.6-5,3.1c-0.9,0.4-2.6,1.2-5,1.9
	c-1.4,0.4-3.5,0.7-5.9,0.7c-1.2,0-2.7-0.1-4.2-0.3c-1.7-0.3-3.1-0.7-4.2-1c-1.4-0.5-2.6-1-3.5-1.4c-2-0.9-3.3-2-4.2-2.6
	c-0.8-0.6-1.3-1-1.7-1.3c-0.7-0.6-1.3-1.2-1.8-1.7c-0.5-0.4-1.1-0.9-1.9-1.9c-0.3-0.3-0.4-0.5-0.6-0.7c-1.2-1.7-1.8-2.2-2.5-3.2
	c-0.9-1.2-1.4-2.2-2.2-3.5c-0.9-1.8-1.7-3.1-2-3.9c-0.7-1.8-1.2-3.1-1.4-3.6c-0.4-1-0.7-2.1-0.9-2.8c-0.6-2-0.9-3.7-1.2-5.4
	c-0.2-0.8-0.5-2.9-0.8-5.6c-0.1-1-0.2-2-0.3-3.2c-0.1-1.7,0-2.4,0-5C52.5,68.1,52.5,66.8,52.4,65.3z"/>
<path class="st9" d="M53.4,51.9h-0.6l-0.7,0.3l-0.5,0.6l-0.3,0.9c0,0-0.2,1.6-0.1,1.7s0.1,1.8,0.1,1.8s0.1,1.8,0,2
	c-0.1,0.1-0.1,1.3-0.1,1.3l0.2,1.1l0.6,0.5l0.5,0.2h0.3l0.4-1.9l0.4-1.7l0.2-0.9C53.8,58,53.2,55.9,53.4,51.9z"/>
<path class="st9" d="M44.6,57.9l-0.4-0.2l-0.5,0.1l-0.5,0.4L43,57.8l0.1-0.7l0.2-0.8l0.5-0.8l0.6-0.6l0.7-0.4l1.2-0.3l1.1,0.1
	l0.8,0.4l0.7,0.5l0.6,0.8c0,0.1,0.2,0.5,0.2,0.7c0,0.1,0.1,0.8,0.1,0.8l-0.1,0.4l-0.3-0.4L49,57.3c-0.1,0-0.2-0.1-0.4-0.1
	s-0.4,0.1-0.5,0.2c0-0.2-0.1-0.4-0.1-0.6l-0.4-0.6l-0.4-0.3l-0.7-0.1H46l-0.5,0.3l-0.4,0.3l-0.2,0.5l-0.2,0.6L44.6,57.9z"/>
<path class="st9" d="M43.1,58.7l0.4,0.8l0.5,0.6c0,0,2.4,2.1,4.7,0c0,0,1-0.9,1.1-2.2c0,0-0.6-1.2-1.7-0.5c0,0-0.2,1.3-1,1.7
	c0,0-1.6,0.5-2.1-0.4l-0.5-0.9l-0.8-0.2l-0.5,0.3L43.1,58V58.7L43.1,58.7z"/>
<path class="st10" d="M50.3,59.3c0,0-1-2.3-0.2-4.1l0.9,0.1l0.1,0.9l0.1,2l-0.1,1.1H50.3z"/>
<path class="st11" d="M79.8,107.8c0.2,0.5,0.6,1.8,1.8,2.8c0.3,0.2,1.8,1.4,4,1.3c1.9-0.1,3-1.1,3.4-1.4c1.3-1.1,1.9-2.6,2-3.2
	c-0.1,0.5-0.2,1.1-0.5,1.9c-0.2,0.6-0.6,1.7-1.3,2.5c-0.3,0.4-2,2.5-4.3,2.3c-0.2,0-1.7-0.1-2.8-1.1c-0.5-0.5-0.8-1-1.1-1.7
	c-0.4-0.8-0.6-1.4-0.7-1.9C80,108.7,79.9,108.2,79.8,107.8z"/>
<polygon class="st12" points="81.7,106.5 82,107.7 82.7,108.8 83.5,109.4 84.7,109.7 86,109.5 87.2,109 88.2,108.2 89,107.2 
	89.5,106.4 89.6,105.3 88.2,103.6 86.5,103.7 84.2,103.9 82,104.7 "/>
<path class="st13" d="M114.9,46.2c0,0,1.3-0.9,2.2,0.4c0.3,0.5,0.6,1.2,0.8,2.2c0.2,0.9,0.1,1.7,0.1,2.2c0.1,0.7,0.3,1.5,0.4,2.2
	l-0.1,1.4l-0.6,0.7l-0.8,0.3l-0.3-1.1l-0.6-1.8l-0.1-1.1c0,0,0-1.1-0.1-1.2c-0.1-0.2-0.3-1.4-0.3-1.4c0-0.2,0-0.5,0-0.7
	C115.3,47.6,115.1,46.9,114.9,46.2z"/>
<polygon class="st13" points="119.2,49.7 119.1,48.4 119.5,47.4 120.1,46.7 120.6,46.1 122,45.6 123,45.6 123.9,46 124.9,46.7 
	125.4,47.4 125.7,47.9 125.7,48.2 125.3,48.2 124.7,48.4 124.3,48.7 123.8,48.1 123.3,47.6 122.5,47.4 122,47.5 121.4,47.8 
	120.9,48.2 120.6,49.1 119.9,49.2 "/>
<path class="st13" d="M120.6,49.3c0.1,0.1,0.1,0.2,0.2,0.5c0.1,0.2,0.2,0.3,0.3,0.4c0.2,0.2,0.5,0.3,0.7,0.5l1.1,0.1l0.6-0.3
	l0.4-0.5l0.2-0.9l0.1-0.4l0.7-0.4l0.7-0.1l0.2,0.7c0,0.3-0.1,0.5-0.1,0.8s-0.1,0.8-0.5,1.4s-0.9,0.9-1.2,1c-0.3,0.2-0.8,0.4-1.7,0.4
	c-0.6,0-1.1-0.2-1.4-0.3c-0.2-0.1-0.5-0.2-0.8-0.5c-0.4-0.3-0.6-0.7-0.7-0.9s-0.2-0.4-0.2-0.7c-0.1-0.3-0.1-0.5,0-0.6
	c0.1-0.2,0.4-0.3,0.7-0.3C120.1,49.2,120.4,49.2,120.6,49.3z"/>
<path class="st10" d="M117.6,48.1c0.1-0.2,0.3-0.3,0.3-0.3c0.1,0,0.2-0.1,0.4,0c0.1,0,0.2,0.1,0.3,0.4c0.1,0.2,0.1,0.4,0.2,0.6
	s0.1,0.4,0.1,0.7c0.1,0.7,0.1,0.6,0.1,0.8c0.1,0.3,0.1,0.4,0.2,0.7c0.1,0.4,0,0.5,0,0.5c0,0.1-0.1,0.3-0.3,0.4c0,0-0.3,0.1-0.5,0
	c-0.1-0.1-0.1-0.1-0.2-0.3c-0.1-0.3-0.2-0.6-0.2-0.7c0-0.1,0-0.1,0-0.1c0-0.1,0-0.1,0-0.1c0-0.1,0.1-0.2,0.2-0.4
	c0.1-0.1,0-0.3,0-0.7c0-0.3-0.1-0.6-0.1-0.6l0,0c0,0-0.1-0.3-0.3-0.7c0.2-0.3,0.2-0.5,0.2-0.5C117.9,47.8,117.8,47.9,117.6,48.1z"/>
<path class="st14" d="M61.1,74c-0.3-0.4-0.6-0.8-0.9-1.2c-0.4-0.5-0.9-1.1-1.3-1.7s-0.7-1.1-1-1.7S57.3,68.5,57,68
	c-0.4-0.8-0.8-1.8-1.1-2.6c-0.5-1.1-1-2.5-1.3-4c-0.3-1.1-0.4-2.3-0.5-3.3c-0.2-1.3-0.4-2.8-0.3-4.5c0.1-4.1,1.2-7.4,2.2-9.6
	c1-2.4,3.3-6.7,7.8-10.6c4.3-3.8,8.8-5.5,11.4-6.3c2.9-0.9,8.6-2.3,15.6-1.1c6.1,1,10.4,3.5,12.9,5.2c1.4,1,4,3,6.5,6.2
	c2.5,3.2,3.7,6,4.1,7c0.9,2.2,1.3,4,1.5,5.1c0.3,1.7,0.9,4.7,0.3,8.5c-0.3,1.8-0.7,3.1-1.2,4.6c-0.8,2.6-1.7,4.3-1.9,4.6
	c-0.5,1-0.9,1.7-1.3,2.3c-0.9,1.4-1.6,2.5-2.2,3.3c0-1.6,0-3.3-0.1-5c-0.1-1.7-0.2-3.4-0.3-5c-0.3-1.4-0.5-2.9-0.8-4.3
	c0.5-0.1,1.8-0.3,3-1.5c0.8-0.8,1.1-1.7,1.2-2.2c0.1-0.4,0.3-1,0.3-1.7c0-0.2,0-0.9-0.4-1.8c-0.2-0.6-0.5-1-0.8-1.3
	c-0.1-0.3-0.3-0.8-0.8-1.3c-0.5-0.4-1-0.6-1.2-0.6c-1-0.2-1.8-0.3-2.3-0.2c-0.8,0-1.4,0.2-2,0.3c-0.8,0.2-1.2,0.3-1.3,0.4
	c-0.5,0.2-0.9,0.4-1.2,0.5c-0.9-0.5-2.2-1.1-3.7-1.8c-1.3-0.6-2.2-1-3.4-1.3c-1.4-0.4-3.4-0.7-5.6-0.8c-2-0.1-3.6,0.1-5,0.3
	c-1.9,0.1-3.7,0.2-5.9,0.5c-1.8,0.2-3.4,0.5-5,0.9c-0.9,0.3-2.1,0.8-3.3,1.4c-1.4,0.8-2.6,1.7-3.5,2.5c-0.4-0.3-1.1-0.8-2.3-1.1
	c-0.9-0.2-1.7-0.1-2.2,0c-0.4,0-1.1,0.1-1.9,0.3c-1.1,0.4-1.8,1-2.2,1.4c-0.3,0.3-0.8,0.8-1.1,1.7c-0.4,0.9-0.4,1.9-0.4,2.3
	c0.1,0.4,0.2,1.2,0.7,2.2c0.5,0.9,1.2,1.4,1.7,1.7c0.3,0.2,0.8,0.4,1.3,0.5s0.9,0.2,1.2,0.2c-0.4,1.8-0.7,3.7-0.9,5.9
	C61,68.7,61,71.5,61.1,74z"/>
<path class="st15" d="M54.5,86.7c-0.6-2.5-1.2-5.4-1.7-8.6c-0.5-4.1-0.5-8-0.3-11.1c0.1-2.3,0.4-4.8,0.9-7.5
	c0.7-3.6,1.8-6.8,2.8-9.4c0.8-2.3,2.1-5.3,4-8.5c1-1.7,2.6-4.1,5.4-6.9c1.7-1.7,4.2-3.9,8-5.9c1.3-0.6,2.8-1.1,4.2-1.8
	c2.4-0.8,6.2-1.7,10.8-1.1c8.7,1,14.2,6.4,16.7,8.9c2,2,4.8,5.1,7,9.7c0.6,1.3,1.3,2.8,2,4.2c1.7,3.5,2.3,6.5,2.7,8.4
	c1.2,5.2,1.7,9.2,1.7,10.3c0.4,5.4,0,9.7-0.3,11.9c-0.7,5.8-2.3,10.9-3.9,15.1c-1.1,2.6-2.9,6-5.8,9.5c-3.6,4.4-7.4,7.2-10.2,8.9
	c-1.8,1-4.4,2.4-7.9,3.1c-6.1,1.2-11.2-0.3-13.5-1.1c-2-0.7-4.1-1.9-6.4-3.4c-5.7-3.9-8.9-8.8-10.6-11.9c-1-1.7-2.1-3.6-3-5.8
	C55.8,91,55,88.7,54.5,86.7z"/>
<path class="st16" d="M60.9,121.9l-0.1-1.6l0.9-2.1l1.4-1l2-1l1.8-0.5h1.9l1.7,0.4l2,0.9l1.7,1.2l0.8,1.3l0.2,1.2l-0.1,1.2l-0.7,1
	l-0.9,1l-1.8,1.1l-1.7,0.5l-2,0.2l-2.1-0.2C65.8,125.8,62,125.3,60.9,121.9z"/>
<polygon class="st16" points="97.4,122.2 97.2,121.6 97.3,120.4 97.9,119 98.7,118 99.8,117.2 100.8,116.6 102.3,116 104,115.9 
	105.7,115.9 107.3,116.3 109.3,117.5 110.4,118.7 111.2,119.6 111.4,120.9 111.4,121.6 110.9,122.7 110.3,123.7 109.1,124.7 
	107.8,125.4 106.2,125.9 104.3,126.1 102.5,125.9 101.2,125.6 100,125 98.8,124.3 97.9,123.2 "/>
<path class="st13" d="M74.2,118.7l-0.4-1.4l-0.3-2.1c0,0-8.6-5.3-12.3-11.6l0.2,2.6l0.6,3.1c0.4,0.8,0.8,1.6,1.2,2.4
	c0.3,0.6,0.6,1.2,0.9,1.8c0.4,0.6,0.8,1.3,1.1,1.9c0.3,0.3,0.5,0.7,0.8,1c0.5,0.5,0.9,1.1,1.4,1.6c0.2-0.1,0.4-0.1,0.6-0.2
	c0.4,0.1,0.8,0.1,1.2,0.2c0.3,0.2,0.6,0.5,0.9,0.7c0.3,0.3,0.6,0.5,0.9,0.8c0.3,0.3,0.7,0.7,1,1c0,0.1-0.1,0.3-0.1,0.4l0.8,0.7
	l1.3,0.4l0.6,0.3c0.2-0.5,0.5-1.1,0.7-1.6C74.9,120,74.5,119.4,74.2,118.7z"/>
<polygon class="st13" points="99.3,113.7 99.3,115.1 99,116.4 98.6,117.8 97.9,118.8 97.2,120.2 97.2,121.3 99.3,120.9 100.8,120 
	100.9,118.9 101.9,118 103.1,117.4 104.4,117.2 105.3,117.4 106.9,114.9 108.3,112.3 109.2,109.9 110,107.2 110.1,105 110.2,102.8 
	109,104.4 107.2,106.6 105.9,108.1 104.3,109.7 102.8,111.2 100.9,112.6 "/>
<path class="st10" d="M74.1,118.3l-0.4-1.7l-0.1-1.7c0,0,5.5,2.9,11,2.9c0,0,5.3,0.4,10.8-2.1l4-2.1l-0.1,1.3l-0.3,1.4l-0.3,1.1
	l-1,1.3l-0.5,1.4c0,0.4,0,0.8,0,1.2c-3.2,0.5-6.4,1-9.6,1.6c-2.6,0.1-5.1,0.2-7.7,0.3c-0.8-0.1-1.5-0.2-2.3-0.3
	c-0.9-0.2-1.8-0.3-2.7-0.5c0.1-0.6,0.1-1.2,0.2-1.8l-0.4-1.7L74.1,118.3z"/>
<polygon class="st10" points="40,35.5 41.8,33.9 44.9,30.6 47,28.1 45.6,28.4 43.4,28.6 41.2,29.5 38.6,30 36.6,30.6 35.6,31.3 
	35.7,31.5 36.3,32.2 "/>
<polygon class="st10" points="46.4,41.9 54.3,34.5 51.5,45 50.8,46.7 50.4,46.6 "/>
<path class="st4" d="M40,35.5l12.4-13.3c0,0,6-6,13.6-8c0,0.2,0.2,0.6,0.6,1s0.9,0.5,1.1,0.5c-0.7,2-1.8,4.1-3.2,6.5
	c-2.2,3.5-4.5,6.2-6.5,8.2c-3.8,3.8-7.6,7.6-11.5,11.4L40,35.5z"/>
<polygon class="st13" points="38.4,33.8 43.9,28.7 40.3,29.6 37,32.6 "/>
<path class="st13" d="M47.8,43.4l5.5-5.1l-1,3.7c-0.6,0.5-1,0.9-1.3,1.3c-0.4,0.4-0.7,0.8-1.2,1.1c-0.2,0.1-0.4,0.2-0.6,0.3
	C48.6,44.3,48.2,43.9,47.8,43.4z"/>
<path class="st5" d="M64.5,15.5L63.8,16c-0.2,0.3-0.4,0.5-0.6,0.8c0,0.2-0.1,0.4-0.1,0.6c0.1,0.1,0.3,0.2,0.4,0.4c0.3,0,0.5,0,0.8,0
	c0,0.2-0.1,0.4-0.1,0.6c0.1,0.1,0.1,0.3,0.2,0.4c0.1,0,0.4,0.2,0.8,0.1s0.6-0.5,0.6-0.5c0.2-0.3,0.4-0.5,0.6-0.8
	c-0.1-0.1-0.3-0.2-0.4-0.4c-0.2-0.3-0.1-0.4-0.3-0.6c-0.2-0.3-0.5-0.2-0.9-0.4C64.6,15.9,64.5,15.8,64.5,15.5z"/>
<path class="st5" d="M58.9,22.2l-0.4-1.3l1-1h1.2c0,0,1.1,0.9,1,1s0.1,1.1-0.1,1.1s-0.9,0.8-1.1,0.8s-1.2-0.1-1.2-0.1L58.9,22.2z"/>
<path class="st5" d="M55,25.7v-1l0.9-0.6H57l0.5,0.7c0,0,0.1,0.8-0.1,1c-0.2,0.1-0.9,0.7-0.9,0.7l-1-0.2L55,25.7z"/>
<polygon class="st5" points="52.3,29.1 52.8,28.6 53.5,28.9 53.4,29.6 52.8,30 52.2,29.6 "/>
<polygon class="st5" points="49.5,26.7 49.4,26.4 49.9,25.9 50.3,25.9 50.2,26.4 49.7,26.7 "/>
<polygon class="st5" points="53.1,23.2 53.2,22.7 53.6,22.3 54.2,22.2 54.2,22.5 53.9,23 53.3,23.3 "/>
<polygon class="st5" points="56.8,19.9 57.1,19.4 57.8,18.9 58.4,18.3 58.9,18.1 58.9,18.4 58.4,19.1 57.9,19.5 57.3,19.7 "/>
<path class="st10" d="M42.8,38.3c0.5-0.5,0.9-1,1.3-1.6l2.4-2.1l1.7-1.9l1.1-1.2c0.4-0.3,0.8-0.6,1.1-1c0.2,0,0.3,0,0.5,0
	c0,0,0.2,0.2,0.2,0.4c0,0.3-0.3,0.5-0.3,0.5c-0.2,0.2-0.4,0.5-0.6,0.7c-0.2,0.3-0.5,0.5-0.7,0.8c-0.3,0.3-0.7,0.6-1,0.9
	c-0.4,0.3-0.7,0.6-1,1c-0.4,0.3-0.7,0.6-1.1,0.9c-0.4,0.4-0.7,0.7-1,1s-0.7,0.5-1,0.8s-0.6,0.6-0.8,0.9C43.3,38.8,43,38.6,42.8,38.3
	z"/>
<polygon class="st7" points="49.5,25.2 49,25.2 48.4,25.2 47.9,24.7 47.6,24.4 47.7,24.1 47.8,24 47.7,23.8 47.8,23.4 48.4,23.3 
	49.1,23.2 49.9,23.5 50.4,24 50.4,24.2 50,24.7 "/>
<polygon class="st7" points="56.8,31.8 56.8,32.4 57.1,33.1 57.3,33.4 57.6,33.7 57.9,33.8 58.4,33.7 58.7,33.2 58.8,32.8 
	58.8,32.3 58.7,31.8 58.5,31.5 58.2,31.1 57.8,30.6 "/>
<polygon class="st7" points="64.7,14.5 64.5,14.9 64.4,15.2 64.3,15.6 64.5,15.9 64.8,16.1 65.4,16.3 65.7,16.5 66,16.8 66.2,17.2 
	66.3,17.4 66.7,17.4 67.1,17.2 67.3,16.9 67.7,15.9 67.6,15.3 66.6,14.6 66,14.2 "/>
<polygon class="st12" points="36.8,31.5 36.6,31.2 36.9,31.2 37.1,30.9 37.2,31.3 37.5,31.5 37.2,31.6 37.2,31.9 37,31.7 36.6,31.8 
	"/>
<polygon class="st12" points="50.2,44.9 50,44.7 50.4,44.7 50.7,44.5 50.7,44.8 51,44.9 50.8,45.1 50.8,45.4 50.4,45.2 50,45.3 "/>
<path class="st16" d="M40,35.4c0.1,0,0.8-0.7,0.8-0.7l2.8,2.7l-0.8,0.8L40,35.4z"/>
<path class="st16" d="M43.5,39l2.9,3l0.9-0.8c-1-1-2-2-3-3C44,38.5,43.8,38.7,43.5,39z"/>
<polygon class="st16" points="50.8,23.9 57.9,30.4 61.4,26.6 54.6,20.1 "/>
<polygon class="st16" points="59.3,16.7 64.7,21.7 66,19.9 67.1,17.2 66.7,17.4 66.4,17.4 65.8,18.2 65.2,18.8 64.7,18.8 64.4,18.6 
	64.2,18.2 64.3,17.7 63.7,17.7 63.3,17.6 63.1,17.2 63.4,16.4 64,15.9 64.3,15.6 64.4,15.2 64.7,14.5 63.3,15 61.5,15.9 "/>
<path class="st10" d="M49.4,45.5l-0.5,0.2l-0.4,0.5l-0.3,0.5l-0.4,0.4l-0.4,0.5L47,47.8h-0.5L46,48.1l0.6,0.2
	c0.4-0.1,0.7-0.1,1.1-0.2c0.2-0.1,0.4-0.3,0.6-0.4l0.8-0.8l0.4-0.6L50,46c0-0.1-0.1-0.2-0.1-0.3C49.6,45.6,49.5,45.6,49.4,45.5z"/>
<path class="st13" d="M26.8,78l-0.9-1.1l-0.4-1.1l-0.3-1l-0.2-1l-0.1-1.2l0.2-1.7l0.3-1.7l0.5-1.6l0.9-2.6l1.4-2.6l2.1-2.7l2.3-2.1
	l3-1.9l1.8-1.3l0.7-1.1l0.5-2.4l0.4-2l0.5-1.1l1-0.6l1.4-0.1l0.7,0.3l-1.2,0.1l-1,0.3L40,48.3c0,0-0.4,0.6-0.4,0.7
	c0,0.1-0.1,0.9-0.1,0.9l-0.2,1.3c0,0-0.2,1-0.2,1.1s-0.5,1.4-0.5,1.4l-1,1.1L36.3,56l-1.8,1l-1.1,0.7L31.7,59l-1.4,1.7L29,62.8
	l-1,1.7l-1.8,4l-0.5,2.7l-0.1,2l0.1,1.3l0.5,1.9l0.5,1.1l0.5,1L26.8,78z"/>
<polygon class="st10" points="29.6,79.2 30.8,78.9 31.4,78.2 31.8,77.3 31.7,76.4 31.4,75.8 31,75.3 31.8,75.7 32.4,76.3 32.6,77.2 
	32.5,78 32.1,78.7 31.5,79.1 30.9,79.4 30.1,79.5 "/>
<path class="st10" d="M29,74.7l-2.3,0.7l-1.2,0.7L22.9,78l-1.8,1.9l-0.8,1.3l-0.6,1.2l-0.5,1.8c0,0-0.5,4.8,2.2,6.9H21l-0.6-0.6
	l-0.9-1.1c0,0-2.1-3.1-0.3-7.8l1.6-2.3l1.9-1.9l2.4-1.7l1.9-0.9l1.7-0.4L29,74.7z"/>
<polygon class="st13" points="26.4,92.5 28.4,91.9 31.1,91.1 32.9,90 35.6,88.3 37.8,86.6 40.2,84.3 42.1,82.2 44.3,79.1 46.2,76.3 
	48.1,72.7 49.2,69.8 49.9,67.5 51.2,61.7 52.1,62.2 51.8,63.2 50.8,67.6 49.8,70.2 49,72.4 47.1,76 46.1,77.8 44.2,80.6 42.1,83.3 
	39.9,85.4 37.3,87.8 34.7,89.7 32.1,91 30.2,91.8 28.1,92.5 27,92.7 "/>
<path class="st17" d="M82.7,64.4c0.1-0.3,0.1-0.4-0.2-0.2c-0.1,0-0.2,0.1-0.3,0.1c-0.2,0.1-0.4,0.2-0.6,0.3c-0.4,0.3-0.8,0.6-1.2,1
	c-0.5,0.6-1.1,1.4-0.9,2.3s1.3,1.4,2.3,1.6c1.8,0.3,3.3-0.8,5.1-0.8c1.8,0.1,5,1.9,5.3-1.1c0.2-2.1-2.5-3.2-4-3.8
	c-0.2-0.1-0.3,0.2-0.1,0.3c1.4,0.5,4.2,1.8,3.8,3.7c-0.5,2.4-3.4,0.6-4.9,0.6c-2.1-0.1-4.9,2-6.6,0c-1.4-1.7,1.6-3.5,2.8-3.9
	c0.1-0.1,0.2-0.2,0.1-0.3s-0.3,0-0.4,0C82.5,64.1,82.5,64.4,82.7,64.4L82.7,64.4z"/>
<path class="st18" d="M83.7,57.5c0-4-3.3-7.3-7.3-7.3s-7.3,3.3-7.3,7.3s3.3,7.3,7.3,7.3S83.7,61.5,83.7,57.5z"/>
<path class="st17" d="M89,63.5c0-1-1.4-1.9-3.3-1.9s-3.3,0.8-3.3,1.9c0,1.1,1.4,1.9,3.3,1.9S89,64.5,89,63.5z"/>
<path class="st17" d="M73.9,57c0,1.3,1,2.4,2.4,2.4s2.4-1,2.4-2.4c0-1.3-1-2.4-2.4-2.4C75,54.6,73.9,55.7,73.9,57z M77.8,56.1
	c0,0.4-0.3,0.7-0.7,0.7s-0.7-0.3-0.7-0.7s0.3-0.7,0.7-0.7C77.5,55.3,77.8,55.7,77.8,56.1z"/>
<path class="st17" d="M85.8,68.6c0.3,1.3,0.3,3.3-0.4,4.4c-0.7,1.1-2.1,0.5-2.5-0.6c-0.3-0.9-0.2-2.2,0.1-3.1
	c0.1-0.2-0.3-0.3-0.3-0.1c-0.3,1.1-0.5,2.5,0,3.6c0.4,0.8,1.3,1.3,2.3,0.9c1.7-0.8,1.3-3.9,1.1-5.4C86.1,68.4,85.8,68.4,85.8,68.6
	L85.8,68.6z"/>
<path class="st17" d="M81,101.2c0.2,3-0.3,9.2,4.5,8.5c4.2-0.6,4.9-5.8,5.2-9.2c0-0.2-0.3-0.2-0.3,0c-0.3,3.2-0.7,7.8-4.5,8.8
	c-4.8,1.2-4.3-5.3-4.4-8.2C81.4,101,81,101,81,101.2L81,101.2z"/>
<path class="st17" d="M82,106.2c0.2-1,1.2-1.9,2.3-1.7c1,0.3,1.7,1.4,1.2,2.5c-0.1,0.2,0.3,0.3,0.3,0.1c0.4-1.1-0.3-2.6-1.6-2.9
	c-1.2-0.3-2.5,0.6-2.7,1.9C81.6,106.3,81.9,106.4,82,106.2L82,106.2z"/>
<path class="st17" d="M79.5,106.6c0.4,3.3,2,8.2,6.3,7.4c4-0.7,5.3-5.3,5.9-8.7c0-0.2-0.3-0.3-0.3-0.1c-0.6,3.3-1.6,7.3-5.3,8.4
	c-4.2,1.1-5.8-3.9-6.3-7.1C79.7,106.3,79.4,106.4,79.5,106.6L79.5,106.6z"/>
<path class="st17" d="M70.7,62.4c3.3,2,8.1,1.9,11.5,0.1c0.2-0.1,0-0.4-0.2-0.3c-3.3,1.8-7.9,1.8-11.1-0.1
	C70.7,62,70.6,62.3,70.7,62.4L70.7,62.4z"/>
<path class="st17" d="M81.7,105.9c0.1-0.8,0.2-1.8,0.3-2.6c-0.1,0-0.2,0-0.3,0c-0.1,0.7-0.1,1.4-0.1,2.2c0.1,0,0.2,0,0.3,0
	c0-0.5,0.1-1,0.2-1.4c-0.1,0-0.2,0-0.3-0.1c0,0.4-0.1,0.9-0.1,1.3c0,0.2,0.3,0.2,0.3,0.1c0.1-0.3,0.2-0.6,0.3-0.9
	c-0.1,0-0.2-0.1-0.3-0.1c-0.1,0.3-0.2,0.5-0.3,0.8c0.1,0.1,0.2,0.1,0.3,0.2c0.1-0.3,0.3-0.5,0.5-0.6c-0.1-0.1-0.2-0.1-0.3-0.2
	c-0.1,0.4-0.3,0.6-0.5,0.9c-0.1,0.2,0.1,0.4,0.2,0.2c0.3-0.3,0.5-0.6,0.8-1c0.1-0.2-0.1-0.4-0.2-0.2c-0.2,0.2-0.2,0.2-0.3,0.4
	c-0.1,0.2,0.1,0.3,0.3,0.2c0.2-0.1,0.3-0.3,0.5-0.4c0.1-0.1-0.1-0.4-0.2-0.3s-0.3,0.1-0.4,0.2c0.1,0.1,0.1,0.2,0.2,0.3
	c0.2-0.1,0.3-0.2,0.5-0.3c-0.1-0.1-0.1-0.2-0.2-0.2v-0.1c-0.1-0.1-0.1-0.2-0.2-0.2c-0.1,0.1-0.1,0.2-0.2,0.3c0.1,0,0.2,0.1,0.3,0.1
	c0-0.2,0-0.4,0-0.5c-0.1,0-0.2,0-0.3-0.1c-0.1,0.2-0.1,0.3-0.2,0.5c0.1,0,0.2,0.1,0.3,0.1c0-0.3,0-0.6,0-0.9c-0.1,0-0.2,0-0.3,0
	c0,0.3,0,0.5,0,0.8c0.1,0,0.2,0,0.3,0c0-0.5-0.1-1-0.1-1.7c0-0.2-0.3-0.2-0.3,0c-0.1,0.5-0.1,0.9-0.1,1.3c0.1,0,0.2,0,0.3,0
	c0-0.6-0.1-1.2-0.1-1.9c0-0.2-0.3-0.2-0.3,0c0,0.6,0,1.2,0.1,1.9c0.1,0,0.2,0,0.3,0c-0.1-0.7-0.2-1.4-0.3-2.2c0-0.2-0.3-0.1-0.3,0.1
	c0,0.7,0.1,1.4,0.2,2.2c0,0.2,0.3,0.2,0.3,0c-0.1-0.7-0.2-1.4-0.2-2.2c0-0.2-0.3-0.2-0.3,0c0,0.7,0.1,1.6,0.2,2.3
	c0,0.2,0.3,0.1,0.3-0.1c-0.1-0.7-0.1-1.3-0.2-2.1c0-0.2-0.3-0.2-0.3,0c0,0.4,0,0.8,0,1.2c0.1,0,0.2,0,0.3,0c0-0.4-0.1-0.8-0.1-1.2
	c0-0.2-0.3-0.2-0.3,0c0,0.3,0,0.7,0,1c0.1,0,0.2,0,0.3-0.1c-0.1-0.3-0.1-0.5-0.1-0.8c-0.1,0-0.2,0-0.3,0c0,0.4,0.1,0.7,0.2,1.1
	c0.1,0.2,0.4,0.1,0.3-0.1c-0.1-0.3-0.1-0.6-0.2-1c0-0.2-0.3-0.2-0.3,0c0,0.3,0,0.6,0.1,0.9c0,0.2,0.3,0.1,0.3-0.1c0-0.3,0-0.7,0-1
	c-0.1,0-0.2,0-0.3,0c0,0.4,0.1,0.8,0.1,1.2c0,0.2,0.3,0.2,0.3,0c0-0.4,0-0.8,0-1.2c-0.1,0-0.2,0-0.3,0c0.1,0.7,0.1,1.3,0.2,2.1
	c0.1,0,0.2,0,0.3-0.1c-0.1-0.7-0.2-1.4-0.2-2.2c-0.1,0-0.2,0-0.3,0c0.1,0.7,0.2,1.4,0.2,2.2c0.1,0,0.2,0,0.3,0
	c-0.1-0.7-0.2-1.4-0.2-2.2c-0.1,0-0.2,0-0.3,0.1c0.1,0.7,0.2,1.3,0.3,2.1c0,0.2,0.3,0.2,0.3,0c0-0.6,0-1.2-0.1-1.9
	c-0.1,0-0.2,0-0.3,0c0,0.6,0.1,1.2,0.1,1.9c0,0.2,0.3,0.2,0.3,0c0.1-0.5,0.1-0.9,0.1-1.3c-0.1,0-0.2,0-0.3,0c0,0.5,0.1,1,0.1,1.7
	c0,0.2,0.3,0.2,0.3,0c0-0.3,0-0.5,0-0.8c0-0.2-0.3-0.2-0.3,0c0,0.3,0,0.6,0,0.9c0,0.2,0.2,0.2,0.3,0.1c0.1-0.2,0.2-0.4,0.2-0.6
	s-0.3-0.2-0.3-0.1c-0.1,0.3-0.1,0.4,0,0.7c0,0.1,0.2,0.2,0.3,0.1c0.2-0.2,0.2-0.1,0.3-0.3c0.1-0.1,0-0.3-0.2-0.2
	c-0.9,0.3,0,1.2,0.3,0.6c0.1-0.1-0.1-0.3-0.2-0.2c-0.3,0.1-0.5,0.2-0.7,0.4c-0.1,0.1,0,0.3,0.2,0.3c0.3-0.1,0.2,0,0.4-0.2
	c-0.1-0.1-0.1-0.2-0.2-0.3c-0.2,0.1-0.3,0.3-0.5,0.4c0.1,0.1,0.2,0.1,0.3,0.2c0.1-0.1,0.2-0.2,0.3-0.4c-0.1-0.1-0.2-0.2-0.2-0.2
	c-0.3,0.3-0.5,0.6-0.8,1c0.1,0.1,0.2,0.2,0.2,0.2c0.3-0.3,0.5-0.7,0.6-1.1c0.1-0.2-0.2-0.3-0.3-0.2c-0.2,0.2-0.4,0.4-0.5,0.7
	c-0.1,0.2,0.2,0.4,0.3,0.2c0.2-0.3,0.3-0.6,0.3-0.9c0.1-0.2-0.3-0.3-0.3-0.1c-0.1,0.3-0.2,0.6-0.3,0.9c0.1,0,0.2,0,0.3,0.1
	c0-0.4,0.1-0.9,0.1-1.3c0-0.2-0.3-0.2-0.3-0.1C81.8,104.6,81.7,105.1,81.7,105.9c0,0.1,0.3,0.1,0.3-0.1c0.1-0.7,0.1-1.4,0.1-2.2
	c0-0.2-0.3-0.2-0.3,0c-0.1,0.8-0.2,1.7-0.3,2.5C81.4,106.1,81.7,106.1,81.7,105.9L81.7,105.9z"/>
<path class="st17" d="M81.4,103.6c0,0.1,0.1,0.1,0.1,0.2c0.1,0.2,0.3,0.1,0.3-0.1c0-0.1-0.1-0.2-0.1-0.3c-0.1,0-0.2,0.1-0.3,0.1
	c0.1,0.2,0.1,0.4,0.1,0.6c0.1,0,0.2,0,0.3,0c0-0.2,0-0.5,0-0.7s-0.3-0.2-0.3-0.1c0,0.2,0,0.3,0.1,0.5s0.4,0.1,0.3-0.1
	c-0.1-0.1-0.1-0.2-0.1-0.3c-0.1,0-0.2,0-0.3-0.1c0,0.2,0,0.5,0,0.7s0.3,0.2,0.3,0s0-0.5-0.1-0.7s-0.4-0.1-0.3,0.1
	C81.4,103.5,81.5,103.6,81.4,103.6c0.2,0,0.3,0,0.4,0c0-0.1-0.1-0.1-0.1-0.2C81.6,103.2,81.4,103.4,81.4,103.6L81.4,103.6z"/>
<path class="st17" d="M85.5,104.7c-0.1,0-0.2,0.1-0.3,0.1C85.3,104.8,85.4,104.8,85.5,104.7C85.6,104.7,85.6,104.7,85.5,104.7
	s-0.2,0-0.3,0.1c0.1,0.1,0.1,0.2,0.1,0.3c0.1,0,0.2-0.1,0.3-0.1C85.6,104.9,85.6,104.8,85.5,104.7c0,0-0.1,0-0.2-0.1
	c0,0.1,0,0.2,0,0.2c0,0.2,0.2,0.2,0.3,0.1c0.1-0.2,0.1-0.4-0.1-0.4c-0.1,0-0.2,0-0.2,0.1c0,0,0,0,0,0.1s0,0.2,0.1,0.2c0,0,0,0,0.1,0
	s0.2,0,0.2,0c0.1-0.1,0.2-0.2,0.4-0.2c-0.1-0.1-0.1-0.2-0.2-0.3c-0.1,0.1-0.1,0.2-0.2,0.2c0.1,0.1,0.2,0.1,0.3,0.2
	c0-0.1,0-0.1,0.1-0.2c0-0.1-0.1-0.2-0.2-0.2c-0.3,0-0.5-0.1-0.7-0.2s-0.3,0.2-0.2,0.3c0.1,0.1,0.2,0.2,0.3,0.3
	c0.1-0.1,0.1-0.2,0.2-0.3c-0.2-0.1-0.3-0.2-0.4-0.3c-0.1,0.1-0.1,0.2-0.2,0.3c0.1,0.1,0.3,0.2,0.3,0.3c0.1-0.1,0.1-0.2,0.2-0.3
	c-0.1-0.1-0.3-0.2-0.4-0.2c-0.1,0.1-0.1,0.2-0.2,0.3c0.1,0.1,0.3,0.2,0.4,0.3C85.3,104.8,85.3,104.7,85.5,104.7
	c-0.4-0.3-0.6-0.4-0.8-0.6c-0.1,0.1-0.1,0.2-0.2,0.3c0.2,0.1,0.4,0.1,0.5,0.2c0.1-0.1,0.1-0.2,0.2-0.3c-0.4-0.2-0.7-0.3-1.1-0.5
	c-0.2-0.1-0.3,0.1-0.2,0.3c0.3,0.3,0.6,0.4,1,0.3c0.2,0,0.2-0.3,0-0.3c-0.3,0-0.6-0.1-0.8-0.1s-0.2,0.3-0.1,0.3
	c0.3,0.1,0.6,0.1,0.8,0.2c0-0.1,0-0.2,0-0.3c-0.2,0-0.4-0.1-0.6-0.1c-0.1,0.1-0.1,0.2-0.1,0.3c0.3,0.1,0.5,0.1,0.7,0.1
	c0-0.1,0.1-0.2,0.1-0.3c-0.3-0.1-0.6-0.1-0.9-0.2c-0.2,0-0.3,0.2-0.1,0.3c0.3,0.1,0.5,0.2,0.8,0.3c0-0.1,0-0.2,0.1-0.3
	c-0.2,0-0.4,0-0.6-0.1c0,0.1-0.1,0.2-0.1,0.3c0.3,0.1,0.6,0.1,0.8,0.1s0.3-0.2,0.1-0.3c-0.2-0.1-0.4-0.2-0.6-0.3
	c0,0.1,0,0.2-0.1,0.3c0.5-0.1,0.9-0.1,1.4-0.2c0-0.1-0.1-0.2-0.1-0.3c-0.2,0.1-0.3,0.3-0.5,0.4c-0.1,0.1,0,0.3,0.1,0.3
	c0.4,0,0.7-0.1,1-0.4c0.1-0.1,0.1-0.4-0.1-0.3s-0.5,0.2-0.7,0.2c-0.2,0.1-0.1,0.4,0.1,0.3c0.3-0.1,0.6-0.2,0.9-0.3
	c0-0.1-0.1-0.2-0.1-0.3c-0.2,0.1-0.5,0.2-0.7,0.3c-0.2,0.1-0.1,0.3,0.1,0.3c0.3-0.1,0.6-0.1,0.8-0.2c-0.1-0.1-0.1-0.2-0.1-0.3
	c-0.2,0.1-0.4,0.2-0.6,0.3c-0.2,0.1-0.1,0.3,0.1,0.3c0.3-0.1,0.5-0.2,0.8-0.3c-0.1-0.1-0.1-0.2-0.2-0.3c-0.1,0.1-0.3,0.2-0.4,0.3
	c-0.2,0.1,0.1,0.3,0.2,0.3c0.2-0.1,0.4-0.2,0.6-0.2c0.2-0.1,0.2-0.3-0.1-0.3s-0.5,0.1-0.7,0.2s-0.1,0.3,0.1,0.3
	c0.4-0.1,0.7-0.2,1-0.4c0.1-0.1,0.1-0.3-0.1-0.3c-0.4,0.1-0.8,0.1-1.2,0.1c0,0.1,0,0.2,0.1,0.3c0.3-0.1,0.6-0.1,0.9-0.2
	c0.2-0.1,0.1-0.3-0.1-0.3c-0.5-0.1-1-0.1-1.7-0.1c-0.2,0-0.2,0.3-0.1,0.3c0.4,0.1,0.9,0.1,1.1-0.3c0-0.1,0-0.1-0.1-0.2
	c0,0,0,0-0.1-0.1c-0.2-0.1-0.4,0.1-0.2,0.2c-0.2,0-0.5,0-0.7,0c0,0.1,0,0.2-0.1,0.3c0.5,0.1,1,0.1,1.7,0.1c0-0.1,0-0.2-0.1-0.3
	c-0.3,0.1-0.6,0.2-0.9,0.2c-0.2,0-0.1,0.3,0.1,0.3c0.4,0,0.8,0,1.2-0.1c0-0.1-0.1-0.2-0.1-0.3c-0.3,0.2-0.6,0.3-1,0.4
	c0.1,0.1,0.1,0.2,0.1,0.3c0.2-0.1,0.4-0.1,0.5-0.2c0-0.1,0-0.2-0.1-0.3c-0.2,0.1-0.4,0.2-0.6,0.3c0.1,0.1,0.1,0.2,0.2,0.3
	c0.1-0.1,0.3-0.2,0.4-0.3c0.2-0.1-0.1-0.4-0.2-0.3c-0.2,0.2-0.5,0.2-0.7,0.3c0.1,0.1,0.1,0.2,0.1,0.3c0.2-0.1,0.4-0.2,0.6-0.3
	c0.2-0.1,0.1-0.3-0.1-0.3c-0.3,0.1-0.6,0.2-0.8,0.2c0,0.1,0.1,0.2,0.1,0.3c0.2-0.1,0.5-0.2,0.7-0.3c0.2-0.1,0.1-0.4-0.1-0.3
	c-0.3,0.1-0.6,0.2-0.9,0.3c0,0.1,0.1,0.2,0.1,0.3c0.2-0.1,0.5-0.2,0.7-0.2c-0.1-0.1-0.1-0.2-0.1-0.3c-0.3,0.2-0.5,0.3-0.9,0.3
	c0,0.1,0.1,0.2,0.1,0.3c0.2-0.1,0.3-0.3,0.5-0.4c0.1-0.1,0-0.3-0.1-0.3c-0.5,0.1-0.9,0.1-1.4,0.2c-0.2,0-0.2,0.3-0.1,0.3
	c0.2,0.1,0.4,0.2,0.6,0.3c0.1-0.1,0.1-0.2,0.1-0.3c-0.3-0.1-0.6-0.1-0.8-0.1s-0.3,0.3-0.1,0.3c0.2,0.1,0.4,0.1,0.7,0.1
	c0.2,0,0.2-0.3,0.1-0.3c-0.3-0.1-0.4-0.1-0.7-0.3c-0.1,0.1-0.1,0.2-0.1,0.3c0.3,0.1,0.6,0.1,0.9,0.2c0.2,0,0.3-0.3,0.1-0.3
	c-0.3-0.1-0.5-0.1-0.7-0.1s-0.3,0.2-0.1,0.3c0.3,0.2,0.5,0.2,0.8,0.1c0.2,0,0.2-0.3,0-0.3c-0.3-0.1-0.6-0.1-0.8-0.2
	c0,0.1,0,0.2-0.1,0.3c0.3,0,0.6,0.1,0.8,0.1c0-0.1,0-0.2,0-0.3c-0.3,0.1-0.5-0.1-0.7-0.3c-0.1,0.1-0.1,0.2-0.2,0.3
	c0.4,0.2,0.7,0.3,1.1,0.5c0.2,0.1,0.3-0.2,0.2-0.3c-0.2-0.1-0.4-0.2-0.6-0.3c-0.2-0.1-0.3,0.2-0.2,0.3c0.3,0.2,0.5,0.4,0.8,0.6
	c0.2,0.1,0.3-0.2,0.2-0.3c-0.1-0.1-0.3-0.2-0.4-0.3c-0.2-0.1-0.3,0.1-0.2,0.3c0.2,0.1,0.3,0.2,0.5,0.3c0.2,0.1,0.3-0.2,0.2-0.3
	c-0.1-0.2-0.3-0.3-0.4-0.4c-0.2-0.1-0.3,0.2-0.2,0.3c0.2,0.1,0.3,0.2,0.4,0.3c0.2,0.1,0.3-0.1,0.2-0.3c-0.1-0.1-0.2-0.2-0.3-0.3
	c-0.1,0.1-0.1,0.2-0.2,0.3C85,104.5,85.2,104.6,85.5,104.7c-0.1-0.2-0.1-0.2-0.2-0.3c0,0.1,0,0.1-0.1,0.2
	C85.1,104.8,85.4,104.9,85.5,104.7c0.1,0,0.2,0,0.2-0.1c0.1-0.1,0-0.3-0.2-0.3c-0.1,0-0.2,0.1-0.3,0.1c0,0-0.1,0-0.1,0.1
	c-0.1,0.1-0.1,0.1,0.1,0.2c-0.1,0-0.1,0.1-0.2,0.1h-0.1C85.3,104.5,85.4,104.7,85.5,104.7c0-0.1,0-0.1,0-0.2c0-0.2-0.3-0.2-0.3-0.1
	c-0.1,0.3-0.1,0.3,0,0.5c0,0.2,0.3,0.1,0.3-0.1c0-0.3,0-0.2-0.2-0.4c-0.1-0.1-0.3-0.1-0.3,0.1c0,0.1,0,0.2,0.1,0.3s0.2,0.1,0.3,0
	c0.1-0.1,0.1-0.2,0.1-0.3c0-0.1-0.1-0.1-0.1-0.2c-0.1,0-0.2,0-0.3,0.1c-0.1,0-0.1,0.1-0.1,0.2c0,0,0,0,0,0.1
	C85.3,104.9,85.6,104.8,85.5,104.7L85.5,104.7z"/>
<path class="st17" d="M82.6,104.4c0.5-0.1,0.9-0.3,1.4-0.4c-0.1-0.1-0.1-0.2-0.1-0.3c-0.3,0.2-0.6,0.3-0.9,0.3c0,0.1,0,0.2,0.1,0.3
	c0.3-0.1,0.6-0.1,1-0.2c0.2,0,0.2-0.3,0-0.3c-0.3,0-0.5,0.1-0.7,0.2s-0.1,0.3,0.1,0.3c0.4-0.1,0.8-0.2,1.1-0.5
	c0.2-0.1,0-0.4-0.2-0.3c-0.3,0.2-0.7,0.4-1.1,0.4c0.1,0.1,0.1,0.2,0.1,0.3c0.2-0.1,0.4-0.1,0.6-0.1c0-0.1,0-0.2,0-0.3
	c-0.4,0.1-0.7,0.1-1.1,0.2c-0.2,0-0.1,0.3,0.1,0.3c0.4,0,0.7-0.1,1.1-0.3c0.2-0.1,0.1-0.4-0.1-0.3c-0.5,0.1-0.9,0.3-1.4,0.4
	C82.4,104.1,82.4,104.5,82.6,104.4L82.6,104.4z"/>
<path class="st17" d="M85.6,104.2c-0.2,0-0.3,0-0.5,0s-0.2,0.2-0.1,0.3c0.1,0.1,0.1,0.2,0.2,0.2c0.1-0.1,0.2-0.2,0.2-0.2
	c-0.1-0.1-0.1-0.1-0.2-0.2c-0.2-0.1-0.4,0.1-0.2,0.2c0.1,0.1,0.1,0.1,0.2,0.2c0-0.1,0-0.1-0.1-0.2l0,0c0.1-0.1,0.1-0.1,0.2-0.1l0,0
	l0.1,0.1l0,0c0,0.1,0,0.1-0.1,0.2c0,0,0.1,0,0.2,0s0.1-0.1,0.2-0.1c0.1-0.1,0.2-0.2,0.2-0.3C85.8,104.2,85.7,104.3,85.6,104.2
	c0.1,0.1,0.1,0.1,0.1,0.2c0,0.2,0.2,0.2,0.3,0.1c0.1-0.1,0.1-0.2,0.2-0.3c-0.1,0-0.2-0.1-0.3-0.1c0,0.1,0,0.1-0.1,0.1
	c0.1,0,0.2,0.1,0.3,0.1v-0.1c-0.1,0-0.2,0-0.3,0c0.2,0.2,0.4,0.2,0.5-0.1c0.1-0.2-0.2-0.3-0.3-0.1h0.1c-0.1-0.1-0.2-0.1-0.3,0
	C85.7,104.1,85.7,104.2,85.6,104.2c0.1,0.3,0.3,0.3,0.4,0.2c0.1-0.1,0.1-0.2,0.1-0.3c0-0.2-0.2-0.2-0.3-0.1
	C85.7,104.1,85.7,104.2,85.6,104.2c0.1,0.1,0.2,0.2,0.3,0.2c0-0.1-0.1-0.2-0.1-0.3C85.9,104,85.7,104,85.6,104.2
	c0,0.1-0.1,0.1-0.2,0.2c-0.1,0-0.2,0.1-0.2,0.1c-0.1,0.2,0.1,0.3,0.2,0.3s0.1-0.1,0.2-0.1c0-0.2-0.1-0.3-0.2-0.4
	c-0.1,0.1-0.2,0.2-0.2,0.2c0.1,0.1,0.1,0.1,0.2,0.2c0.2,0.2,0.4-0.1,0.2-0.2c-0.1-0.1-0.1-0.2-0.2-0.2c0,0.1-0.1,0.2-0.1,0.3
	c0.2,0,0.3,0,0.5,0C85.8,104.5,85.8,104.2,85.6,104.2L85.6,104.2z"/>
<path class="st17" d="M82.6,100.9c0,0.4,0,0.8,0,1.2c0,0.3,0.6,0.5,0.6,0.1c0.1-0.4,0.1-0.8,0.2-1.2c0.1-0.4-0.6-0.6-0.6-0.2
	c-0.1,0.4-0.1,0.8-0.2,1.2c0.2,0,0.4,0.1,0.6,0.1c0-0.4,0-0.8,0-1.2C83.3,100.5,82.6,100.5,82.6,100.9L82.6,100.9z"/>
<path class="st17" d="M82,101.1c0,0.6,0,1.1,0,1.8c0,0.4,0.5,0.4,0.6,0.1c0.2-0.6,0.2-1.1,0.3-1.8c0.1-0.4-0.5-0.6-0.6-0.2
	c-0.1,0.6-0.2,1.2-0.3,1.8c0.2,0,0.4,0.1,0.6,0.1c0-0.6,0-1.1,0-1.8C82.6,100.7,82,100.7,82,101.1L82,101.1z"/>
<path class="st17" d="M81.6,101.2c0,0.2,0,0.4,0,0.6c0.2-0.1,0.4-0.1,0.6-0.2c-0.1-0.1-0.1-0.1-0.1-0.2
	C82.2,101,81.7,100.9,81.6,101.2c-0.1,0.2-0.2,0.3-0.2,0.4c0.2,0.1,0.4,0.1,0.6,0.2c0-0.1,0-0.3,0.1-0.4c0-0.2-0.1-0.3-0.2-0.4
	C81.7,100.9,81.5,101.1,81.6,101.2c-0.1,0.2-0.2,0.4-0.2,0.5c-0.1,0.3,0.5,0.4,0.6,0.2c0.1-0.1,0.1-0.3,0.2-0.4
	C82,101.4,81.8,101.4,81.6,101.2c0,0.3,0,0.5,0.1,0.7c0.2,0.3,0.6,0.2,0.6-0.2c0-0.2,0-0.4,0-0.6s-0.2-0.3-0.3-0.3
	C81.8,100.8,81.6,101,81.6,101.2L81.6,101.2z"/>
<path class="st17" d="M81.6,101.2c0,0.3-0.1,0.6-0.1,0.8c0,0.4,0.6,0.4,0.6,0.1c0.1-0.3,0.1-0.6,0.2-1c0-0.2-0.1-0.3-0.2-0.4
	c-0.2-0.1-0.4,0.1-0.4,0.2c-0.1,0.3-0.1,0.6-0.2,1c0.2,0,0.4,0.1,0.6,0.1c0-0.3,0-0.6,0.1-0.8C82.2,100.8,81.6,100.8,81.6,101.2
	L81.6,101.2z"/>
<path class="st17" d="M81.6,101.2c0,0.3,0,0.7,0.1,1c0,0.4,0.6,0.4,0.6,0s0-0.7,0-1.1S81.7,100.7,81.6,101.2c0.1,0.3,0.1,0.6,0.1,1
	c0.2,0,0.4,0,0.6,0c0-0.3,0-0.7-0.1-1C82.2,100.8,81.5,100.8,81.6,101.2L81.6,101.2z"/>
<path class="st17" d="M83,100.9c-0.1,0.3-0.2,0.6-0.2,0.9c0.2,0,0.4,0.1,0.6,0.1c0-0.3,0.1-0.5,0-0.8
	C83.4,100.9,83.1,100.8,83,100.9c-0.3,0-0.5,0.1-0.6,0.3c-0.1,0.2,0,0.4,0.1,0.4c0.2,0.1,0.3,0,0.4-0.1c0,0,0.1,0,0.1-0.1
	c0.1-0.1-0.3-0.1-0.2-0.2v0.1v0.1c0,0.1,0,0.3,0,0.4c0,0.4,0.6,0.5,0.6,0.1c0.1-0.3,0.1-0.6,0.2-0.9C83.7,100.7,83.1,100.5,83,100.9
	L83,100.9z"/>
<path class="st17" d="M83.5,100.9c-0.1,0.4-0.2,0.9-0.2,1.3s0.6,0.4,0.6,0c0.1-0.4,0.1-0.8,0-1.2c0-0.4-0.7-0.4-0.6,0
	c0,0.4,0,0.8,0,1.2c0.2,0,0.4,0,0.6,0c0-0.4,0.1-0.8,0.2-1.1C84.2,100.7,83.6,100.5,83.5,100.9L83.5,100.9z"/>
<path class="st17" d="M83.9,100.7c-0.1,0.3-0.1,0.6-0.1,0.9c0.1,0.4,0.6,0.4,0.6,0c0-0.3,0-0.6,0-1c0-0.2-0.2-0.3-0.4-0.2
	c-0.2,0.1-0.3,0.2-0.2,0.4c0.1,0.3,0,0.5,0,0.8c0.2,0,0.4,0,0.6,0c0-0.3,0-0.5,0-0.8C84.7,100.5,84,100.3,83.9,100.7L83.9,100.7z"/>
<path class="st17" d="M84.5,100.7c-0.1,0.3-0.1,0.6-0.1,1c0.2,0,0.4-0.1,0.6-0.1c-0.1-0.3-0.1-0.5-0.2-0.8c-0.1-0.4-0.7-0.2-0.6,0.2
	c0.1,0.3,0.1,0.5,0.2,0.8c0.1,0.4,0.7,0.3,0.6-0.1c0-0.3,0-0.5,0-0.8c0-0.2-0.1-0.3-0.2-0.4C84.7,100.4,84.5,100.5,84.5,100.7
	L84.5,100.7z"/>
<path class="st17" d="M85.1,100.9c0,0.2-0.1,0.5-0.1,0.7c0.2,0,0.4,0,0.6,0c0-0.3,0-0.6-0.1-0.8c0-0.2-0.2-0.3-0.4-0.2
	c-0.2,0.1-0.3,0.2-0.2,0.4c0.1,0.2,0.1,0.4,0,0.7c0,0.2,0.2,0.3,0.3,0.3c0.2,0,0.3-0.2,0.3-0.3c0-0.2,0.1-0.5,0.1-0.7
	s-0.2-0.3-0.3-0.3C85.2,100.6,85.1,100.7,85.1,100.9L85.1,100.9z"/>
<path class="st17" d="M85.4,100.8c0,0.2,0,0.5,0,0.7c0,0.4,0.6,0.4,0.6,0c0-0.3,0-0.6-0.1-0.8C85.9,100.3,85.3,100.5,85.4,100.8
	c0,0.3,0,0.5,0,0.7c0.2,0,0.4,0,0.6,0c0-0.2,0-0.5,0-0.7C86.1,100.4,85.4,100.4,85.4,100.8L85.4,100.8z"/>
<path class="st17" d="M85.9,100.7c0,0.3,0,0.6,0,0.8c0,0.4,0.6,0.4,0.6,0c0-0.3-0.1-0.7-0.1-1C86.3,100.2,85.7,100.4,85.9,100.7
	c0,0.3,0,0.6,0,0.8c0.2,0,0.4,0,0.6,0c0-0.3,0-0.6,0-0.8C86.5,100.3,85.9,100.3,85.9,100.7L85.9,100.7z"/>
<path class="st17" d="M86.2,100.7c0,0.3,0,0.6,0,0.8c0,0.4,0.6,0.4,0.6,0c0-0.3,0-0.7-0.1-1c0-0.2-0.2-0.3-0.4-0.2
	C86.2,100.4,86.2,100.6,86.2,100.7c0,0.3,0,0.5,0,0.8c0.2,0,0.4,0,0.6,0c0-0.3,0-0.6,0-0.8C86.9,100.3,86.2,100.3,86.2,100.7
	L86.2,100.7z"/>
<path class="st17" d="M87,100.6c0,0.2,0,0.5,0.1,0.7c0,0.2,0.1,0.3,0.3,0.3c0.2,0,0.3-0.2,0.3-0.3c0-0.3-0.1-0.5-0.1-0.8
	c0-0.2-0.2-0.3-0.4-0.2C87,100.4,86.9,100.5,87,100.6c0,0.3,0.1,0.5,0.1,0.7c0.2,0,0.4,0,0.6,0c0-0.2-0.1-0.5-0.1-0.7
	s-0.1-0.3-0.3-0.3C87.1,100.3,87,100.5,87,100.6L87,100.6z"/>
<path class="st17" d="M87.1,100.7c0,0.2,0.1,0.4,0.1,0.6s0.2,0.3,0.4,0.2c0.2,0,0.3-0.2,0.3-0.3c0-0.2,0-0.3-0.1-0.5
	c0-0.2-0.1-0.3-0.3-0.3C87.2,100.4,87.1,100.6,87.1,100.7c0,0.2,0.1,0.3,0.1,0.5c0.2,0,0.4-0.1,0.6-0.1c0-0.1,0-0.3-0.1-0.4
	c0-0.2-0.1-0.3-0.3-0.3C87.2,100.4,87.1,100.6,87.1,100.7L87.1,100.7z"/>
<path class="st17" d="M87.7,100.7c0,0.1,0,0.2,0,0.4c0.2,0,0.4,0,0.6,0c0-0.1,0-0.2,0-0.3c0-0.2-0.1-0.3-0.3-0.3
	C87.9,100.4,87.7,100.5,87.7,100.7c0,0.1,0,0.2,0,0.4c0,0.2,0.1,0.3,0.3,0.3c0.2,0,0.3-0.2,0.3-0.3s0-0.2,0-0.4
	C88.4,100.3,87.7,100.3,87.7,100.7L87.7,100.7z"/>
<path class="st17" d="M87.9,100.7c0,0.2,0,0.5,0.1,0.7c0,0.2,0.2,0.3,0.4,0.2c0.2,0,0.3-0.2,0.3-0.3c0-0.2,0-0.5,0-0.7
	s-0.1-0.3-0.3-0.3c-0.2,0-0.3,0.2-0.3,0.3c0,0.2,0,0.5,0,0.7c0.2,0,0.4-0.1,0.6-0.1c0-0.2,0-0.3-0.1-0.5
	C88.5,100.3,87.9,100.3,87.9,100.7L87.9,100.7z"/>
<path class="st17" d="M88.4,100.7c0,0.2,0,0.4-0.1,0.6c0.2,0,0.4,0,0.6,0c0-0.2,0-0.5,0-0.7s-0.1-0.3-0.3-0.3
	c-0.2,0-0.3,0.2-0.3,0.3c0,0.2,0,0.5,0,0.7c0,0.4,0.6,0.4,0.6,0c0-0.2,0-0.4,0.1-0.6c0-0.2-0.2-0.3-0.3-0.3
	C88.5,100.4,88.4,100.6,88.4,100.7L88.4,100.7z"/>
<path class="st17" d="M89.3,100.4c-0.2,0.6-0.2,1.2-0.3,1.9c0.2,0,0.4,0,0.6,0c0-0.6,0-1.1-0.1-1.8c0-0.4-0.7-0.4-0.6,0
	c0.1,0.6,0.1,1.1,0.1,1.8c0,0.4,0.6,0.4,0.6,0c0-0.6,0.1-1.1,0.3-1.8C90,100.2,89.4,100,89.3,100.4L89.3,100.4z"/>
<path class="st17" d="M89.6,100.4c0,0.2-0.1,0.4-0.1,0.6c0.2,0,0.4,0.1,0.6,0.1c0-0.2,0.1-0.4,0.1-0.6
	C90,100.5,89.8,100.5,89.6,100.4c0,0.5-0.1,0.9-0.1,1.4c0,0.4,0.6,0.4,0.6,0.1c0.1-0.3,0.1-0.5,0.2-0.8c-0.2,0-0.4-0.1-0.6-0.1
	c0,0.3-0.1,0.6-0.1,0.9c-0.1,0.4,0.6,0.4,0.6,0.1c0.1-0.3,0.1-0.6,0.2-0.8c-0.2,0-0.4,0-0.6,0c0,0.1,0.1,0.2,0,0.3
	c0.2,0.1,0.4,0.1,0.6,0.2c0-0.4,0-0.7,0-1c0-0.4-0.7-0.4-0.6,0c0,0.4,0,0.7,0,1s0.5,0.4,0.6,0.2c0.1-0.2,0.2-0.5,0.1-0.7
	c-0.1-0.3-0.6-0.3-0.6,0c-0.1,0.3-0.1,0.6-0.2,0.8c0.2,0,0.4,0.1,0.6,0.1c0-0.3,0.1-0.6,0.1-0.9c0.1-0.4-0.6-0.4-0.6-0.1
	c-0.1,0.3-0.1,0.5-0.2,0.8c0.2,0,0.4,0.1,0.6,0.1c0-0.4,0-0.9,0-1.3C90.2,100.1,89.6,100.1,89.6,100.4s-0.1,0.5-0.1,0.7
	c-0.1,0.4,0.6,0.4,0.6,0.1c0-0.2,0.1-0.4,0.1-0.6C90.3,100.2,89.7,100,89.6,100.4L89.6,100.4z"/>
<path class="st17" d="M89.7,100.5c0,0.3-0.1,0.7-0.1,1c0,0.2,0.2,0.3,0.3,0.3c0.2,0,0.3-0.2,0.3-0.3c0-0.3,0.1-0.7,0.1-1
	c0-0.2-0.2-0.3-0.3-0.3C89.8,100.3,89.7,100.4,89.7,100.5c0,0.4-0.1,0.7-0.1,1c0.2,0,0.4,0,0.6,0c0-0.3,0.1-0.7,0.1-1
	C90.4,100.1,89.7,100.1,89.7,100.5L89.7,100.5z"/>
<path class="st17" d="M89.7,100.6c0,0.3-0.1,0.5-0.1,0.7c0,0.4,0.6,0.4,0.6,0.1c0.1-0.2,0.1-0.5,0.1-0.7s-0.1-0.3-0.2-0.4
	S89.8,100.3,89.7,100.6c0.1,0.2,0,0.4-0.1,0.7c0.2,0,0.4,0.1,0.6,0.1c0-0.3,0.1-0.5,0.1-0.7s-0.2-0.3-0.3-0.3
	C89.8,100.3,89.7,100.4,89.7,100.6L89.7,100.6z"/>
<path class="st17" d="M83.5,101.7c-0.6,0.6-1.1,1.3-1.6,2.2c-0.2,0.3,0.2,0.6,0.5,0.4c0.6-0.5,1.1-1,1.6-1.8
	c0.2-0.3-0.2-0.6-0.5-0.4c-0.5,0.4-0.8,0.9-1.2,1.4c-0.2,0.3,0.2,0.6,0.5,0.4c0.5-0.4,1-0.8,1.4-1.3c-0.2-0.2-0.3-0.3-0.5-0.5
	c-0.5,0.5-1,1.1-1.4,1.8c-0.2,0.3,0.2,0.6,0.4,0.4c0.8-0.6,1.6-1.2,2.2-2c0.2-0.3-0.1-0.7-0.4-0.5c-0.7,0.4-1.3,0.9-2.1,1.4
	c-0.2,0.2-0.1,0.6,0.2,0.5c0.9-0.1,1.9-0.6,2.9-0.5c0-0.2,0-0.4,0-0.6c-0.8,0.3-1.8,0.5-2.7,0.7c-0.4,0.1-0.3,0.6,0.1,0.6
	c0.9,0,1.9-0.1,2.7-0.3c-0.1-0.2-0.1-0.4-0.2-0.6c-0.3,0-0.6,0-0.9,0c-0.4-0.1-0.6,0.5-0.2,0.6c0.3,0.1,0.5,0.1,0.7,0.2
	c-0.1-0.2-0.1-0.4-0.2-0.5c-0.1,0.1-0.2,0.1-0.3,0.2c0.1,0.2,0.1,0.4,0.2,0.6c1.1-0.3,2.1-1.2,3.2-1.2c0-0.2-0.1-0.4-0.1-0.6
	c-0.7,0.2-1.3,0.4-2,0.7c-0.3,0.1-0.2,0.6,0.2,0.6c0.5-0.1,1.1-0.1,1.7-0.2c0-0.2-0.1-0.4-0.1-0.6c-0.3,0.1-0.6,0.2-0.8,0.3
	c-0.4,0.1-0.3,0.6,0.1,0.6c0.2,0,0.5,0,0.7,0c0-0.2-0.1-0.4-0.1-0.6c-0.2,0.1-0.3,0.1-0.5,0.2c-0.4,0.2-0.2,0.8,0.2,0.6
	c0.6-0.2,1.1-0.1,1.8-0.2c0.1,0,0.2-0.1,0.3-0.1c0.4-0.3,0.3-1.1,0.3-1.7c0-0.4-0.5-0.4-0.6-0.1c-0.1,0.5-0.2,0.8-0.1,1.3
	c0,0.3,0.3,0.4,0.5,0.2c0.4-0.4,0.5-0.8,0.3-1.3c-0.1-0.2-0.4-0.3-0.5-0.2c-0.3,0.2-0.3,0.3-0.5,0.6c0.2,0.1,0.4,0.2,0.6,0.3
	c0.1-0.3,0.1-0.6,0.2-0.9s-0.3-0.5-0.5-0.3c-0.4,0.3-0.6,0.7-0.8,1.1s0.4,0.7,0.6,0.3c0.2-0.4,0.4-0.8,0.5-1.2
	c0.1-0.3-0.3-0.5-0.5-0.3c-0.4,0.4-0.7,0.7-1,1.2c-0.2,0.4,0.3,0.7,0.6,0.3c0.3-0.4,0.4-0.8,0.5-1.3c0-0.3-0.2-0.5-0.5-0.4
	c-0.6,0.4-1.1,0.8-1.6,1.3c0.2,0.2,0.3,0.3,0.5,0.5c0.3-0.4,0.6-0.8,0.8-1.3c0.1-0.3-0.2-0.7-0.4-0.4c-0.5,0.4-1,0.8-1.4,1.2
	c0.2,0.1,0.3,0.3,0.5,0.4c0.2-0.4,0.5-0.8,0.7-1.2c0.2-0.3-0.2-0.6-0.4-0.4c-0.5,0.4-1,0.7-1.6,1.1c0.2,0.1,0.3,0.3,0.5,0.4
	c0.3-0.4,0.7-0.9,1.1-1.3c0.3-0.3-0.1-0.7-0.4-0.5c-0.6,0.3-1.1,0.7-1.6,1.1c-0.3,0.3,0.2,0.7,0.5,0.5c0.4-0.4,0.7-0.7,1-1.2
	c0.2-0.2-0.1-0.6-0.4-0.5c-0.4,0.2-0.8,0.4-1.1,0.7c-0.3,0.3,0.1,0.7,0.4,0.5c0.5-0.3,0.7-0.6,0.9-1.1c0.1-0.4-0.5-0.6-0.6-0.2
	c-0.2,0.2-0.4,0.5-0.6,0.7c0.1,0.2,0.3,0.3,0.4,0.5c0.3-0.2,0.6-0.4,0.8-0.5c-0.1-0.2-0.2-0.3-0.4-0.5c-0.3,0.4-0.6,0.7-0.9,1
	c0.2,0.2,0.3,0.3,0.5,0.5c0.4-0.4,0.9-0.7,1.4-1c-0.1-0.2-0.3-0.3-0.4-0.5c-0.4,0.5-0.8,0.9-1.1,1.4c-0.2,0.3,0.3,0.6,0.5,0.4
	c0.4-0.4,0.9-0.7,1.4-1c-0.2-0.2-0.3-0.3-0.4-0.4c-0.2,0.4-0.5,0.8-0.7,1.2c-0.2,0.3,0.2,0.6,0.5,0.4c0.4-0.4,0.8-0.7,1.3-1.1
	c-0.2-0.2-0.3-0.3-0.4-0.4c-0.2,0.4-0.4,0.8-0.7,1.1s0.2,0.8,0.5,0.5c0.4-0.5,0.9-0.8,1.4-1.2c-0.2-0.1-0.3-0.2-0.5-0.4
	c-0.1,0.4-0.2,0.8-0.4,1.1c0.2,0.1,0.4,0.2,0.6,0.3c0.3-0.4,0.5-0.7,0.9-1.1c-0.2-0.1-0.4-0.2-0.5-0.3c-0.1,0.4-0.3,0.7-0.5,1
	c0.2,0.1,0.4,0.2,0.6,0.3c0.2-0.4,0.4-0.7,0.7-0.9c-0.2-0.1-0.4-0.2-0.5-0.3c-0.1,0.3-0.1,0.6-0.2,0.9c-0.1,0.4,0.4,0.6,0.6,0.3
	c0.1-0.2,0.2-0.3,0.4-0.4c-0.2-0.1-0.4-0.1-0.5-0.2c-0.1,0.2-0.1,0.5-0.2,0.7c0.2,0.1,0.4,0.2,0.5,0.2c-0.1-0.4-0.1-0.8,0.1-1.1
	c-0.2,0-0.4-0.1-0.6-0.1c0,0.4,0,0.7-0.2,1c-0.2,0-0.4,0-0.6,0c-0.4,0-0.7,0.1-1.1,0.3c0.1,0.2,0.1,0.4,0.2,0.6
	c0.2-0.1,0.3-0.1,0.5-0.2c0.3-0.1,0.3-0.6-0.1-0.6c-0.2,0-0.5,0-0.7,0c0,0.2,0.1,0.4,0.1,0.6c0.3-0.1,0.6-0.1,0.8-0.3
	c0.3-0.1,0.3-0.7-0.1-0.6c-0.5,0.1-1.1,0.1-1.7,0.2c0.1,0.2,0.1,0.4,0.2,0.6c0.6-0.3,1.1-0.5,1.9-0.6c0.4-0.1,0.3-0.6-0.1-0.6
	c-1.2-0.1-2.2,0.9-3.4,1.2c-0.4,0.1-0.2,0.7,0.2,0.6c0.4-0.1,0.4-0.1,0.6-0.3s0.1-0.5-0.2-0.5c-0.3-0.1-0.5-0.1-0.7-0.2
	c-0.1,0.2-0.1,0.4-0.2,0.6c0.5,0.1,0.8,0.1,1.3,0c0.4-0.1,0.2-0.7-0.2-0.6c-0.8,0.2-1.8,0.2-2.6,0.3c0,0.2,0.1,0.4,0.1,0.6
	c0.9-0.2,1.9-0.4,2.7-0.7c0.3-0.1,0.3-0.6,0-0.6c-1-0.2-2,0.4-3.1,0.5c0.1,0.2,0.2,0.4,0.2,0.5c0.6-0.5,1.2-0.9,1.9-1.3
	c-0.1-0.2-0.3-0.3-0.4-0.5c-0.6,0.7-1.2,1.3-2,1.9c0.2,0.2,0.3,0.3,0.4,0.4c0.4-0.6,0.8-1.1,1.3-1.7c0.3-0.3-0.2-0.7-0.5-0.5
	c-0.5,0.4-1,0.8-1.4,1.3c0.2,0.1,0.3,0.3,0.5,0.4c0.3-0.5,0.6-0.8,1.1-1.2c-0.2-0.1-0.3-0.3-0.5-0.4c-0.4,0.7-0.8,1.1-1.4,1.7
	c0.2,0.1,0.3,0.3,0.5,0.4c0.4-0.7,0.9-1.3,1.4-2.1C84.4,101.8,83.8,101.3,83.5,101.7L83.5,101.7z"/>
<path class="st17" d="M82.8,104.1C82.8,104,82.8,104,82.8,104.1c-0.1,0-0.2,0.2-0.1,0.4c0.1,0.2,0.3,0.2,0.4,0.1s0.2-0.2,0.2-0.3
	c0-0.2-0.1-0.4-0.2-0.4C83,103.8,82.8,103.9,82.8,104.1L82.8,104.1z"/>
<path class="st19" d="M83.2,103.8c0.2-0.5,0.5-0.9,0.9-1.3c0.6-0.6-0.3-1.6-0.9-0.9c-0.5,0.4-0.8,0.9-1.1,1.6
	c-0.2,0.3-0.1,0.7,0.2,0.9C82.6,104.3,83,104.2,83.2,103.8L83.2,103.8z"/>
<path class="st19" d="M81.1,100.8l0.5,5.5l0.6-1.2l0.7-0.5l0.8-0.3l0.8,0.3l0.6,0.5l0.2,0.1l0.4-0.5l0.9-0.4l0.8-0.2l0.9,0.3
	l0.6,0.5l0.3,0.5l0.1,0.5L90,105l0.4-1.4l0.1-1.1l0.2-1.4l0.1-0.7C87.5,100.2,84.4,100.4,81.1,100.8z"/>
<path class="st17" d="M106.2,53.2c-3.3-5.9-10.3-8.9-16.8-8.9c-2.2,0-4.4,0.3-6.6,0.5s-4.3,0.3-6.5,0.7c-3.7,0.7-7,2.6-9.6,5.4
	c-4.4,4.9-5.6,11.6-5.7,18c-0.1,7.5,1,15.1,0.7,22.6c-0.2,5.1-1.1,10.3-0.3,15.4c0.7,4.2,2.7,8.1,5.7,11.2c0.3,0.3,0.7-0.2,0.5-0.5
	c-2.6-2.8-4.4-6.1-5.3-9.8c-0.9-4.2-0.3-8.7,0-12.9c0.3-4.2,0.4-8.6,0.1-12.8c-0.2-3-0.5-6.1-0.6-9.1c-0.2-6.2,0-12.8,3.1-18.4
	c1.8-3,4.2-5.5,7.3-7c3.9-2,8.6-1.9,12.8-2.3c4-0.4,8-0.4,11.8,0.9c3.7,1.3,6.9,3.7,8.9,7.2C105.9,53.9,106.4,53.5,106.2,53.2
	L106.2,53.2z"/>
<path class="st17" d="M71.7,121.2c4.1,2.5,9.3,2.6,14,2.2c2.4-0.2,4.7-0.5,7-0.9c2.6-0.4,5.5-0.6,7.8-2.1c0.4-0.2,0-0.8-0.3-0.6
	c-2.2,1.3-5,1.6-7.4,2c-2.3,0.4-4.7,0.7-7,0.9c-4.5,0.4-9.6,0.4-13.6-2.1C71.6,120.4,71.3,121,71.7,121.2L71.7,121.2z"/>
<path class="st17" d="M77.3,46c0.4,0,0.4-0.6,0-0.6S76.9,46,77.3,46L77.3,46z"/>
<path class="st17" d="M62.1,59.3c-3.6-0.3-5.8-4.1-3.6-7.2c0.9-1.2,2.4-2.2,3.9-2.5c1.4-0.3,3.5-0.2,4.5,1c0.3,0.3,0.7-0.2,0.5-0.5
	c-1.1-1.3-3.3-1.4-5.1-1.2c-1.9,0.3-3.7,1.4-4.7,3.1c-2.2,3.6,0.5,7.5,4.3,8C62.5,60,62.5,59.4,62.1,59.3L62.1,59.3z"/>
<path class="st17" d="M102.8,49.5c2.6-1.3,6.7-2.1,8.6,0.8c1.8,2.9,0.7,7.2-2.9,7.9c-0.4,0.1-0.2,0.7,0.2,0.6
	c3.9-0.7,5.2-5.4,3.5-8.6c-1.9-3.5-6.5-2.9-9.6-1.3C102.1,49,102.4,49.7,102.8,49.5L102.8,49.5z"/>
<path class="st17" d="M67.2,118.2c2.2-1,3.4,1.7,4.9,2.7c0-0.1,0-0.2,0-0.3c-1.1,0.2-2.1,0.9-3,1.7c-1,0.7-2.4,2.1-3.8,1.7
	c-2.2-0.6-1.8-2.7-0.5-3.9c0.9-0.8,2-1.6,3.1-2.1c0.2-0.1,0-0.4-0.2-0.3c-1.8,0.8-5.9,3.3-3.8,5.7c2.6,3,5.7-2,8.3-2.4
	c0.2,0,0.1-0.2,0-0.3c-1.7-1.1-2.8-3.9-5.2-2.7C66.9,118,67,118.3,67.2,118.2L67.2,118.2z"/>
<path class="st17" d="M64.7,123.5c-0.4-1.2,0.6-2.3,1.7-2.8c0.2-0.1,0-0.4-0.2-0.3c-1.1,0.6-2.2,1.8-1.8,3.2
	C64.5,123.8,64.8,123.7,64.7,123.5L64.7,123.5z"/>
<path class="st17" d="M104.5,123.4c-1.2-0.7-2-2-2.9-2.8c-0.5-0.5-0.7-1.2-0.2-1.9c0.5-0.6,1.8-1.2,2.6-1.2c1.8,0,3.1,1.6,3.6,3.1
	c0.3,0.7,0.5,1.9,0,2.5C106.8,124,105.5,123.9,104.5,123.4c-0.2-0.1-0.4,0.2-0.2,0.3c1.6,0.7,3.6,0.5,3.8-1.6c0.2-1.9-1.2-4.1-3-4.9
	c-0.9-0.4-2-0.3-2.9,0.2c-0.7,0.4-1.8,1-2,1.9c-0.2,0.7,0.6,1,1.1,1.6c0.9,0.9,1.7,2.1,2.9,2.8C104.5,123.8,104.7,123.5,104.5,123.4
	z"/>
<path class="st17" d="M105.2,120.5c0.8,0.8,1.4,2,1.6,3.2c0,0.2,0.3,0.2,0.3,0c-0.1-1.3-0.7-2.5-1.7-3.4
	C105.3,120.1,105,120.3,105.2,120.5L105.2,120.5z"/>
<path class="st17" d="M109.8,83.4c0.6,0.3,1.4,0,2.1,0.1c1.1,0.3,2.4,0.9,2.9,2.1c0.7,1.3,0.1,3.1-1.7,2.7c-1.2-0.2-2.2-1.1-3.1-2
	c-0.2-0.2-0.4,0.1-0.2,0.2c1,1,2.2,2.1,3.7,2.1c1,0,1.8-0.5,1.9-1.6c0.1-1.2-0.5-2.4-1.6-3.1c-0.6-0.4-1.4-0.8-2.2-0.9
	c-0.5-0.1-1.2,0.1-1.8-0.1C109.7,82.9,109.6,83.3,109.8,83.4L109.8,83.4z"/>
<path class="st17" d="M112.8,86.5c0.8,0.3,1.9,0.9,1.3,2c-0.1,0.2,0.2,0.3,0.3,0.2c0.6-1.1-0.5-2.1-1.6-2.4
	C112.7,86,112.6,86.5,112.8,86.5L112.8,86.5z"/>
<path class="st17" d="M108.7,53c0-0.8-0.7-1.6-1.6-1.6c-0.8,0-1.6,0.7-1.6,1.6c0,0.8,0.7,1.6,1.6,1.6
	C108.1,54.5,108.7,53.8,108.7,53z"/>
<circle class="st17" cx="62.8" cy="54.3" r="1.6"/>
<path class="st17" d="M61.9,83.9c-1.7-0.3-3.5,0.5-4.8,1.7c-0.8,0.8-1.3,2.1-0.1,2.8c0.2,0.1,0.3-0.2,0.2-0.3
	c-1.4-0.8,0-2.3,0.9-2.8c1-0.7,2.4-1.2,3.7-1C62,84.2,62.1,83.9,61.9,83.9L61.9,83.9z"/>
<path class="st17" d="M58.4,87c-0.5,0.2-1.1,0.7-1.1,1.3s0.6,0.9,1.1,1c1.4,0.2,3.1-1.3,3.8-2.4c0.1-0.2-0.2-0.3-0.3-0.2
	c-0.6,0.8-1.4,1.6-2.4,2c-0.6,0.3-1.7,0.5-2-0.1s0.5-1.1,0.9-1.3C58.7,87.2,58.5,86.9,58.4,87L58.4,87z"/>
<path class="st17" d="M105.2,52.7c4.4,6.6,3.9,15,3.8,22.6c-0.1,9.3,1.2,18.6,0.7,27.9c-0.1,2.6-0.5,5.4-1.3,7.9
	c-0.8,2.3-2.4,4-3.5,6.1c-0.2,0.4,0.4,0.7,0.6,0.3c1-1.9,2.4-3.4,3.2-5.4c0.8-1.9,1.2-4,1.4-6c0.6-4.8,0.3-9.7,0.1-14.6
	c-0.3-5.1-0.6-10-0.6-15.1c0-4,0.2-8-0.2-12c-0.4-4.2-1.3-8.5-3.8-12.1C105.5,51.9,105,52.2,105.2,52.7L105.2,52.7z"/>
<path class="st17" d="M100.4,120.1L100.4,120.1c0.3,0,0.3-0.3,0.1-0.3l0,0c-0.1,0-0.1,0-0.1,0.1l0,0c0.1,0.1,0.1,0.1,0.2,0.2
	c0-0.1,0-0.1,0.1-0.1C100.5,120,100.4,120.1,100.4,120.1S100.4,120.2,100.4,120.1c0.2,0.2,0.5,0,0.3-0.2c-0.1-0.1-0.1-0.1-0.1-0.1
	c-0.1-0.1-0.2-0.1-0.3,0.1c0,0.1,0,0.1-0.1,0.1C100.1,120.1,100.3,120.2,100.4,120.1c0.1,0.1,0.2,0,0.2-0.1
	C100.5,120,100.5,120.1,100.4,120.1L100.4,120.1c0.3,0,0.3-0.3,0.1-0.3h-0.1C100.2,119.7,100.2,120.1,100.4,120.1L100.4,120.1z"/>
<path class="st18" d="M101.7,56.8c0-4-3.3-7.3-7.3-7.3S87,52.8,87,56.8s3.3,7.3,7.3,7.3C98.4,64.1,101.7,60.9,101.7,56.8z"/>
<path class="st17" d="M92.2,56.8c0,1.3,1,2.4,2.4,2.4c1.3,0,2.4-1,2.4-2.4c0-1.3-1-2.4-2.4-2.4C93.2,54.4,92.2,55.4,92.2,56.8z
	 M96.1,55.9c0,0.4-0.3,0.7-0.7,0.7s-0.7-0.3-0.7-0.7s0.3-0.7,0.7-0.7C95.8,55.1,96.1,55.4,96.1,55.9z"/>
<path class="st17" d="M81.4,104.4c0,0.5,0.1,1,0.1,1.7c0,0.2,0.3,0.2,0.3,0s0-0.3,0-0.4c-0.1,0-0.2,0-0.3,0c0,0.3,0.1,0.6,0.1,1
	c0,0.2,0.3,0.2,0.3,0.1c0.2-0.8,0.4-1.7,1.1-2.2c0.2-0.1,0-0.4-0.2-0.3c-0.8,0.5-1.1,1.4-1.2,2.4c0.1,0,0.2,0,0.3,0.1
	c0-0.3,0-0.6-0.1-1c0-0.2-0.3-0.2-0.3,0s0,0.3,0,0.4c0.1,0,0.2,0,0.3,0c-0.1-0.5-0.1-1-0.1-1.7C81.7,104.2,81.4,104.2,81.4,104.4
	L81.4,104.4z"/>
<path class="st17" d="M85.6,105.4c0.3-0.6,1.3-1.1,2.1-1.1c0.9,0,1.7,0.7,1.9,1.7c0.1,0.2,0.4,0.1,0.3-0.1c-0.2-0.9-0.9-1.8-2-1.9
	c-0.8-0.1-2.3,0.4-2.6,1.2C85.3,105.4,85.6,105.6,85.6,105.4L85.6,105.4z"/>
<path class="st17" d="M88.6,61.4c3.2,1.9,8.4,1.9,11.6,0c0.2-0.1,0-0.4-0.2-0.3c-3.1,1.9-8.2,1.8-11.3,0
	C88.6,61.1,88.4,61.3,88.6,61.4L88.6,61.4z"/>
<path class="st17" d="M87.2,81.4c-1.6,0.1-3.1,0.1-4.6,0.3c-0.6,0.1-1.3,0.2-1.9,0.2l0.2,19.3l9.7-0.6l0.2-19.3
	C89.6,81.3,88.5,81.3,87.2,81.4z"/>
<path class="st17" d="M90.4,69.1l-0.5,0.1l-1.2-0.3c0.3,0.6,0.4,1.2,0.4,2c0,0.4,0.1,0.7,0,1.1c-0.1,0.6-0.4,1.3-0.9,1.7
	c-0.5,0.4-1.3,0.3-1.8-0.2c-0.2-0.2-0.2-0.4-0.3-0.6C86,72.6,86,72.4,86,72.2l-0.3,0.5l-0.3,0.5l-0.5,0.4l-0.7,0.1l-0.7-0.4L83,72.6
	l-0.2-1.1l0.2-2.1c-0.1,0-0.2,0-0.4-0.1C82,69.4,81.4,69.2,81,69l0,0c-0.1,0-0.2,0-0.2-0.1l0,0c0,0,0,0-0.1,0L81,81.8l9.7-0.6V69.1
	C90.7,69.1,90.6,69.1,90.4,69.1z"/>
<path class="st17" d="M90.3,68.9c-0.6,0.1-1-0.1-1.7-0.2c-0.2,0-0.2,0.1-0.2,0.2c0.3,0.8,0.4,1.8,0.4,2.6c0,0.4-0.1,1-0.4,1.4
	c-1.4,0.6-2.2,0.5-2.3-0.3c0-0.2-0.1-0.3-0.1-0.5c0-0.1-0.2-0.2-0.3,0c-0.2,0.5-0.5,1.1-1,1.4c-0.6,0.3-1.2-0.2-1.6-0.6
	c-0.7-1-0.3-2.5-0.2-3.6c0-0.1-0.1-0.2-0.2-0.2c-0.7-0.1-1.4-0.2-2.2-0.4c-0.1,0-0.2,0.1-0.2,0.2c0.1,4.3,0.2,8.6,0.3,12.9
	c0,0.1,0.1,0.2,0.2,0.2c3.3-0.2,6.5-0.4,9.7-0.6c0.1,0,0.2-0.1,0.2-0.2c0-4,0-8.2,0-12.3c0-0.1-0.1-0.2-0.2-0.2
	C90.8,68.9,90.6,68.9,90.3,68.9c-0.1,0-0.1,0.3,0.1,0.3c0.5-0.1,0.1-0.3,0.3,0.1c0.1,0.2,0,0.6,0,0.8c0,0.9,0,1.9,0,2.7
	c0,2.1,0,4.2,0,6.3c0,0.6-0.1,1.2,0,1.9c0,0.3-0.1,0.2,0.1,0.1c-0.1,0.1-0.4,0-0.5,0c-2,0.1-3.9,0.2-5.9,0.4
	c-0.9,0.1-1.8,0.1-2.7,0.2c-0.2,0-0.4,0.1-0.6,0c-0.1,0,0.1,0.3,0.1,0c-0.2-1.4-0.1-3.1-0.1-4.7C81,75,81,72.9,81,70.9
	c0-0.6,0-1.1,0-1.8c0-0.3-0.1,0-0.1,0c0.3,0,0.5,0.2,0.7,0.2c0.2,0.1,0.8,0,1,0.1c0.3,0.1,0.1-0.2,0.2,0.3c0,0.3-0.1,0.6-0.1,0.8
	c0,0.3-0.1,0.6-0.1,0.9c0.1,0.6,0.2,1.4,0.7,2c1.2,1.1,2.3-0.1,2.8-1.1c-0.1,0-0.2,0-0.3,0c0.2,1.2,1.1,2.4,2.5,1.4s1-3.6,0.5-5
	c-0.1,0.1-0.1,0.2-0.2,0.2c0.7,0.2,1.1,0.3,1.9,0.2C90.7,69.2,90.6,68.9,90.3,68.9z"/>
<path class="st17" d="M83,45c-0.8-1.8-1.6-3.6-2.2-5.5c-0.1-0.2-0.4-0.1-0.3,0.1c0.7,1.9,1.4,3.7,2.3,5.6C82.8,45.3,83.1,45.2,83,45
	L83,45z"/>
<path class="st17" d="M83.7,45c-0.4-5.2-0.3-10.3,0.2-15.5c0-0.2-0.3-0.2-0.3,0C83.1,34.7,83,39.8,83.4,45
	C83.4,45.2,83.7,45.2,83.7,45L83.7,45z"/>
<path class="st17" d="M85.6,44.3c0.2,0.1,0.2,0.1,0.2,0s0-0.1,0-0.1c0-0.1,0-0.2,0-0.2c0-0.3,0-0.5,0-0.8c0-0.4,0.1-0.9,0.1-1.3
	c0-0.2-0.3-0.2-0.3,0c0,0.6-0.1,1.3-0.1,2c0,0.2-0.1,1,0.3,0.7C85.9,44.5,85.8,44.3,85.6,44.3L85.6,44.3z"/>
<path class="st17" d="M73.1,49.3c1.3-1.3,3.5-1.6,5.2-0.4c0.2,0.1,0.3-0.2,0.2-0.3c-1.8-1.1-4-0.9-5.5,0.5
	C72.8,49.3,73,49.6,73.1,49.3L73.1,49.3z"/>
<path class="st17" d="M91.1,48.8c1.3-1.3,3.5-1.6,5.2-0.4c0.2,0.1,0.3-0.2,0.2-0.3c-1.8-1.1-4-0.9-5.5,0.5
	C90.7,48.7,90.9,48.9,91.1,48.8L91.1,48.8z"/>
<ellipse class="st18" cx="67.9" cy="120.9" rx="7.1" ry="5.2"/>
<path class="st17" d="M84.8,25.3c-17.4,0-31.5,13.1-31.5,29.3c0,7.3,3,14.2,7.9,19.3c-0.1-0.2-0.1-0.4-0.2-0.5
	c-4.7-5.1-7.4-11.6-7.4-18.8c0.1-15.9,14.1-28.9,31.3-28.9s31.2,13,31.2,29c0,6.7-2.5,12.9-6.6,17.9c0.1,0.1,0.1,0.2,0.1,0.3
	c4.2-5,6.7-11.3,6.7-18.1C116.3,38.5,102.1,25.3,84.8,25.3z"/>
<ellipse class="st18" cx="85.7" cy="70.9" rx="33.3" ry="45.2"/>
<circle class="st18" cx="122.5" cy="49.1" r="3.5"/>
<circle class="st18" cx="122.5" cy="49.1" r="1.8"/>
<ellipse class="st18" cx="104.3" cy="120.9" rx="7.1" ry="5.2"/>
<path class="st17" d="M53.1,51.8c-2.6-0.3-2.2,3.5-2.2,5.1c0,1.3-0.2,2.8,0,4.1c0.1,0.8,0.6,1.4,1.4,1.6c0.2,0,0.2-0.3,0-0.3
	c-0.4-0.3-0.7-0.6-1.1-0.9c-0.1-0.3-0.1-0.6-0.1-0.8s0-0.6,0-0.9c0-0.8,0-1.7,0-2.4c0-1.4-0.4-5.2,1.9-5
	C53.3,52.1,53.3,51.8,53.1,51.8L53.1,51.8z"/>
<path class="st17" d="M50.9,55c-0.2-0.2-0.5-0.3-0.8-0.1c-0.5,0.3-0.3,1.1-0.3,1.7c0,0.3-0.1,3.3,0.8,2.8c0.2-0.1,0-0.4-0.2-0.3
	C50.1,59.2,50,57.2,50,57c0-0.3,0-0.5-0.1-0.8c0-0.1,0-0.2,0-0.3c-0.1-0.3,0.1-0.6,0.5-0.7C50.8,55.4,51,55.2,50.9,55L50.9,55z"/>
<path class="st17" d="M115.3,46.4c0.5,0.1,1.1,0.2,1.7,0.3c0.1,0.2,0.2,0.4,0.3,0.6c0.1,0.2,0.1,0.5,0.2,0.7
	c0.1,0.7,0.3,1.4,0.4,2.2c0.2,1.3,1.4,5.2-0.7,5.3c-0.2,0-0.2,0.3,0,0.3c2.8-0.2,1.1-4.7,0.9-6.2c-0.2-1-0.8-5.4-2.9-3.5
	C114.9,46.2,115.2,46.6,115.3,46.4L115.3,46.4z"/>
<path class="st17" d="M117.9,48.1c0.5-0.6,0.7,0.7,0.8,0.9c0.1,0.3,0.1,0.6,0.2,0.8c0.1,0.3,0.1,0.6,0.2,0.8c0,0.1,0.1,0.3,0.1,0.4
	c0.1,0.4-0.2,0.7-0.7,0.7c-0.2-0.1-0.4,0.1-0.2,0.2c0.3,0.3,0.7,0.3,1-0.1c0.5-0.5,0.2-1.3,0.1-1.9c-0.1-0.4-0.4-3.5-1.7-2.4
	C117.6,48.1,117.8,48.3,117.9,48.1L117.9,48.1z"/>
<circle class="st18" cx="46.4" cy="57.5" r="3.5"/>
<circle class="st18" cx="46.4" cy="57.5" r="1.8"/>
<ellipse class="st18" cx="104.3" cy="121.6" rx="7.1" ry="5.9"/>
<ellipse class="st18" cx="67.9" cy="121.6" rx="7.1" ry="5.9"/>
<ellipse class="st18" cx="85.4" cy="71.8" rx="33.3" ry="46.1"/>
<path class="st20" d="M40.1,35.5c6.6-6.2,11.7-14.3,19.7-18.8c1.9-1,3.8-1.9,5.9-2.3c0.4-0.1,1.1-0.3,1.6-0.2
	c0.9,0.2,0.5,1.2,0.3,1.9c-0.4,1-0.8,2.1-1.3,3c-2.1,4.1-5,7.6-8.1,11.1c-3.8,4.1-7.9,8.1-11.8,12c0.1,0.1,0.1,0.1,0.2,0.2
	c0.1-0.1,0.1-0.2,0.2-0.2c0.1-0.1-0.1-0.3-0.2-0.2c-0.1,0.1-0.1,0.2-0.2,0.2c-0.1,0.1,0.1,0.3,0.2,0.2c3.7-3.7,7.4-7.3,11.1-11.2
	c3.2-3.4,6.3-7,8.6-11.3c0.5-1,1-2.2,1.4-3.2c0.2-0.6,0.7-1.7,0.3-2.3c-0.2-0.3-0.5-0.3-0.8-0.3c-0.6,0.1-1.1,0.2-1.8,0.3
	c-1,0.2-2,0.5-2.9,0.9c-4,1.7-7.5,4.4-10.6,7.5c-4,4-7.5,8.6-11.8,12.5C39.9,35.4,40,35.6,40.1,35.5L40.1,35.5z"/>
<path class="st20" d="M35.6,31.6c2.7,2.3,5.2,4.8,7.6,7.3c2.5,2.5,4.9,5.1,7.2,7.8c0.1,0.1,0.3,0,0.2-0.2c-2.5-2.7-5-5.3-7.4-7.9
	c-2.4-2.5-4.9-5-7.4-7.2C35.6,31.3,35.5,31.5,35.6,31.6L35.6,31.6z"/>
<path class="st20" d="M35.8,31.6c0-0.5,0.9-0.7,1.3-0.8c0.5-0.2,0.9-0.3,1.4-0.4c0.9-0.3,1.8-0.5,2.7-0.8c2-0.5,3.8-1,5.8-1.3
	c0.2,0,0.1-0.3,0-0.3c-2.2,0.4-4.3,0.9-6.5,1.6c-1,0.3-2.2,0.6-3.2,0.9c-0.6,0.2-1.9,0.4-1.9,1.1C35.5,31.7,35.8,31.7,35.8,31.6
	L35.8,31.6z"/>
<path class="st20" d="M54.2,34.2c-0.5,2.1-1,4.1-1.7,6.3c-0.5,2.1-0.9,4.1-1.9,6.1c0.1,0,0.1-0.1,0.2-0.1c-0.1,0-0.2-0.1-0.3-0.1
	c-0.2-0.1-0.3,0.2-0.1,0.2c0.1,0,0.2,0.1,0.3,0.1s0.1,0,0.2-0.1c0.9-1.9,1.3-3.9,1.9-5.9c0.5-2.2,1.1-4.3,1.7-6.5
	C54.5,34.1,54.2,34.1,54.2,34.2L54.2,34.2z"/>
<path class="st20" d="M42.9,38.4c1.3-1.3,2.7-2.7,4-3.9c0.6-0.6,1.2-1.2,2-2c0.3-0.3,0.7-0.7,1-1c0.2-0.2,0.3-0.3,0.4-0.4
	c0.2-0.2,0.8-0.4,0.8,0.1c0,0.4-0.4,0.7-0.6,0.9c-0.3,0.4-0.7,0.7-1,1c-0.6,0.6-1.2,1.2-2,1.9c-1.3,1.2-2.7,2.5-4,3.8
	c-0.1,0.1,0,0.3,0.2,0.2c1.2-1.1,2.6-2.4,3.8-3.6c1.1-1.1,2.5-2.2,3.5-3.4c0.2-0.3,0.5-0.7,0.4-1.1s-0.5-0.4-0.8-0.3
	s-0.5,0.3-0.6,0.5c-0.3,0.3-0.6,0.6-0.9,0.9c-0.6,0.6-1.2,1.2-2,2c-1.4,1.4-2.9,2.8-4.3,4.2C42.6,38.3,42.8,38.5,42.9,38.4
	L42.9,38.4z"/>
<path class="st20" d="M51.1,30.6c-2.6,2.7-5.2,5.3-7.9,7.9c-0.1,0.1,0,0.2,0.1,0.1C46,36,48.6,33.3,51.1,30.6
	C51.2,30.7,51.1,30.6,51.1,30.6L51.1,30.6z"/>
<path class="st20" d="M59.3,16.9c1.9,1.7,3.6,3.3,5.4,5c0.1,0.1,0.1-0.1,0.1-0.1c-1.8-1.8-3.5-3.4-5.4-5
	C59.4,16.8,59.3,16.9,59.3,16.9L59.3,16.9z"/>
<path class="st20" d="M54.6,20.2c2.2,2.1,4.4,4.1,6.6,6.3c0.1,0.1,0.1-0.1,0.1-0.1c-2.2-2.1-4.4-4.1-6.6-6.3
	C54.6,20.1,54.6,20.2,54.6,20.2L54.6,20.2z"/>
<path class="st20" d="M50.7,24c2.3,2.3,4.7,4.3,7.1,6.4c0.1,0.1,0.2-0.1,0.1-0.1c-2.5-2.1-4.9-4.1-7.1-6.4
	C50.7,23.8,50.5,23.9,50.7,24L50.7,24z"/>
<path class="st20" d="M40.2,29.8c0.1,0,0.1-0.1,0.2-0.1c0,0,0-0.1-0.1-0.1c-0.3,0.2-3.4,2.8-3.2,3c0.1,0.1,0.1-0.1,0.1-0.1l0,0h-0.1
	l0,0c0,0,0,0,0,0.1l0,0c0,0,0,0.1,0.1,0.1c0.2,0,0.3-0.2,0.4-0.3c0.3-0.3,0.6-0.6,0.9-0.9c0.6-0.6,1.2-1.1,2-1.7
	c0.1-0.1,0-0.1-0.1-0.1C40.2,29.7,40.2,29.7,40.2,29.8C40,29.8,40.1,29.9,40.2,29.8L40.2,29.8z"/>
<path class="st20" d="M43.8,28.7c-1.9,1.7-3.6,3.4-5.5,5.1c-0.1,0.1,0,0.2,0.1,0.1C40.3,32.2,42,30.5,43.8,28.7
	C44,28.7,43.9,28.6,43.8,28.7L43.8,28.7z"/>
<path class="st20" d="M53.1,38.3c-1.9,1.7-3.6,3.4-5.5,5.2l0.1,0.1c0.1-0.1,0.2-0.2,0.2-0.2c0.1-0.1-0.1-0.1-0.1-0.1
	c-0.1,0.1-0.2,0.2-0.2,0.2c-0.1,0.1,0,0.1,0.1,0.1C49.5,41.8,51.3,40.2,53.1,38.3C53.2,38.3,53.1,38.2,53.1,38.3L53.1,38.3z"/>
<path class="st20" d="M52.1,42c-0.6,0.6-1.2,1.2-1.9,1.9c-0.3,0.3-0.6,0.5-0.9,0.7c-0.1,0.1-0.3,0.1-0.2,0.3c0,0,0,0.1,0.1,0.1l0,0
	c0.1,0,0.1-0.1,0-0.1c0.3,0,0.6-0.4,0.8-0.6c0.3-0.2,0.5-0.5,0.8-0.7C51.3,43,51.8,42.5,52.1,42C52.3,42.1,52.2,42,52.1,42L52.1,42z
	"/>
<path class="st20" d="M40.7,34.7c0.8,0.9,1.8,1.9,2.8,2.7c0.1,0.1,0.2-0.1,0.1-0.1C42.6,36.5,41.6,35.6,40.7,34.7
	C40.8,34.6,40.7,34.7,40.7,34.7L40.7,34.7z"/>
<path class="st20" d="M44.3,38.3c0.9,0.9,1.9,1.9,2.8,2.8c0.1,0.1,0.2,0,0.1-0.1C46.3,40.1,45.3,39.1,44.3,38.3L44.3,38.3L44.3,38.3
	z"/>
<polygon class="st21" points="37.5,31.4 37.2,31.6 37.2,31.9 36.9,31.7 36.6,31.8 36.8,31.5 36.6,31.2 36.9,31.2 37.1,30.9 
	37.2,31.3 "/>
<polygon class="st21" points="51.1,44.9 50.8,45.1 50.7,45.4 50.4,45.2 50.1,45.2 50.2,45 50,44.7 50.4,44.7 50.7,44.5 50.7,44.8 
	"/>
<circle class="st22" cx="60.3" cy="21.2" r="1.2"/>
<circle class="st22" cx="56.2" cy="25.2" r="0.7"/>
<circle class="st22" cx="52.8" cy="29.2" r="0.5"/>
<ellipse transform="matrix(0.7026 -0.7116 0.7116 0.7026 -0.2078 44.9113)" class="st23" cx="53.6" cy="22.7" rx="0.7" ry="0.3"/>
<ellipse transform="matrix(0.7864 -0.6178 0.6178 0.7864 0.4922 39.828)" class="st24" cx="57.8" cy="19.2" rx="1.4" ry="0.3"/>
<ellipse transform="matrix(0.7026 -0.7116 0.7116 0.7026 -3.9394 43.3643)" class="st23" cx="49.9" cy="26.4" rx="0.5" ry="0.3"/>
<circle class="st25" cx="60.3" cy="21.2" r="1.7"/>
<circle class="st21" cx="56.2" cy="25.2" r="1.2"/>
<circle class="st21" cx="52.8" cy="29.2" r="0.8"/>
<path class="st26" d="M59.2,21.1c0,0.5,0.4,0.9,0.9,0.9s0.9-0.4,0.9-0.9s-0.4-0.9-0.9-0.9C59.6,20.2,59.2,20.6,59.2,21.1z
	 M60.8,20.7c0,0.2-0.1,0.3-0.3,0.3s-0.3-0.1-0.3-0.3c0-0.2,0.1-0.3,0.3-0.3C60.7,20.5,60.8,20.6,60.8,20.7z"/>
<path class="st27" d="M55.8,25.2c0,0.3,0.2,0.5,0.5,0.5s0.5-0.2,0.5-0.5s-0.2-0.5-0.5-0.5S55.8,25,55.8,25.2z M56.5,25
	c0,0.1-0.1,0.1-0.1,0.1L56.3,25c0-0.1,0.1-0.1,0.1-0.1L56.5,25z"/>
<path class="st27" d="M52.5,29.2c0,0.2,0.1,0.3,0.3,0.3s0.3-0.1,0.3-0.3s-0.1-0.3-0.3-0.3C52.6,28.9,52.5,29.1,52.5,29.2z M53,29.1
	C53,29.2,52.9,29.2,53,29.1c-0.1,0.1-0.2,0.1-0.2,0S52.8,29,53,29.1C52.9,29,53,29.1,53,29.1z"/>
<path class="st17" d="M66.3,14.3C66.3,14.3,66.3,14.4,66.3,14.3c0.1,0,0.1-0.1,0.1-0.1c-0.2,0-0.3,0-0.4,0c-0.2,0-0.4,0.1-0.6,0.1
	c-0.3,0.1-0.7,0.3-0.8,0.5c-0.2,0.3-0.2,0.6-0.1,0.9c0.2,0.4,0.8,0.4,1.1,0.6c0.5,0.3,0.4,1.4,1.2,1c0.9-0.4,1-1.4,0.8-2.3
	c0-0.1-0.2-0.1-0.1,0c0.2,0.8,0.2,1.8-0.7,2.2c-0.7,0.3-0.6-0.7-1-1c-0.2-0.2-0.5-0.2-0.7-0.3c-0.5-0.2-0.7-0.8-0.3-1.2
	c0.3-0.3,0.7-0.4,1-0.4C66,14.3,66.2,14.4,66.3,14.3C66.5,14.4,66.5,14.3,66.3,14.3L66.3,14.3C66.3,14.2,66.2,14.3,66.3,14.3
	L66.3,14.3z"/>
<path class="st17" d="M66.3,17.5c-0.2,0.4-0.5,0.8-0.9,1.1c-0.3,0.2-0.7,0.2-1-0.1c-0.3-0.3-0.1-0.5,0-0.8c0-0.1-0.1-0.1-0.1-0.1
	c-0.1,0.3-0.2,0.5-0.1,0.8s0.4,0.4,0.7,0.4c0.7,0,1.2-0.8,1.6-1.3C66.5,17.4,66.4,17.4,66.3,17.5L66.3,17.5z"/>
<ellipse transform="matrix(0.7026 -0.7116 0.7116 0.7026 9.5951 52.1628)" class="st17" cx="67.2" cy="14.6" rx="1.1" ry="1.6"/>
<path class="st17" d="M65.5,16.4c-0.2,0.3-0.6,0.6-0.8,0.9c-0.2,0.1-0.3,0.3-0.5,0.4c-0.3,0.2-0.7,0.1-0.9-0.3
	c-0.3-0.7,0.7-1.3,1.1-1.7c0.1-0.1,0-0.2-0.1-0.1c-0.6,0.3-1.7,1.1-1.1,2c0.6,1.1,2.1-0.5,2.5-1C65.6,16.4,65.5,16.3,65.5,16.4
	L65.5,16.4z"/>
<path class="st17" d="M57.8,30.6c0.1,0.2,0.3,0.3,0.4,0.4c0.4,0.4,0.7,1.1,0.5,1.8c-0.1,0.3-0.3,0.7-0.6,0.9c-0.5,0.2-0.8-0.3-1-0.6
	c-0.2-0.4-0.2-0.9-0.2-1.3c0-0.1-0.1-0.1-0.1,0c0,0.6,0.1,1.4,0.6,2c0.3,0.3,0.7,0.3,1,0c0.4-0.4,0.6-1,0.5-1.6
	c-0.1-0.3-0.2-0.6-0.4-0.8c-0.2-0.2-0.5-0.4-0.6-0.7C57.8,30.5,57.7,30.5,57.8,30.6L57.8,30.6z"/>
<path class="st17" d="M57.7,32.7c0.2,0.4,0.3,0.9-0.2,1c-0.1,0,0,0.2,0.1,0.1c0.5-0.2,0.5-0.8,0.3-1.2
	C57.8,32.5,57.7,32.6,57.7,32.7L57.7,32.7z"/>
<path class="st17" d="M50.7,24.1c-0.4-0.6-1.3-0.9-2.1-0.9c-0.5,0-1,0.2-0.9,0.8c0,0.1,0.1,0,0.1-0.1c-0.1-0.3,0.1-0.5,0.3-0.6
	c0.1,0,0.2-0.1,0.3-0.1c0.2,0,0.5,0,0.7,0.1c0.6,0.1,1.1,0.4,1.4,0.8C50.5,24.3,50.7,24.2,50.7,24.1L50.7,24.1z"/>
<path class="st17" d="M48.5,24c-0.2-0.1-0.6-0.2-0.8,0.1c-0.2,0.2-0.1,0.5,0.1,0.7c0.4,0.5,1.3,0.5,2,0.4c0.1,0,0.1-0.1,0-0.1
	c-0.4,0.1-0.8,0.1-1.2-0.1c-0.2-0.1-0.4-0.1-0.6-0.3c-0.1-0.1-0.1-0.2-0.2-0.3c0.1-0.1,0.1-0.3,0.1-0.4C48,23.9,48.3,24,48.5,24
	C48.5,24.1,48.6,24,48.5,24L48.5,24z"/>
<path class="st17" d="M39,36.5c-4.1,3.9-8.1,8-11.8,12.2c-0.1,0.1,0.1,0.1,0.1,0.1c3.7-4.2,7.8-8.3,11.8-12.2
	C39.1,36.5,39,36.4,39,36.5z"/>
<path class="st17" d="M40.6,40.6c-1.1,1.1-2.3,2.3-3.4,3.4c-0.1,0.1,0,0.2,0.1,0.1c1.1-1.1,2.4-2.3,3.5-3.4
	C40.8,40.6,40.7,40.5,40.6,40.6L40.6,40.6z"/>
<path class="st17" d="M42,42.3c-0.5,0.5-0.9,1-1.4,1.6c-0.2,0.1,0,0.1,0,0.1c0.5-0.5,0.9-1,1.4-1.6C42.1,42.4,42,42.3,42,42.3
	L42,42.3z"/>
<path class="st17" d="M43,44c-0.2,0.2-0.4,0.5-0.6,0.7c-0.1,0.1,0.1,0.2,0.1,0.1C42.7,44.6,42.9,44.3,43,44C43.1,44,43,43.9,43,44
	L43,44z"/>
<path class="st17" d="M39.9,38.3c-2,2-3.9,3.8-5.8,5.8c-0.1,0.1,0,0.2,0,0.1C36.1,42.2,38,40.4,39.9,38.3
	C40,38.4,39.9,38.3,39.9,38.3z"/>
<path class="st17" d="M51.1,62c-1.3,8.4-5.2,16.1-11.1,22.2c-3,3.1-6.5,5.7-10.5,7.1c-2.3,0.8-5.1,1.3-7.3,0.2
	c-1.8-0.9-2.9-2.7-3.3-4.7c-0.9-4.2,1.8-8.2,5.2-10.4c1.9-1.2,5.1-3.1,7-1c1.4,1.4,0.4,3.5-1.6,3.6c-1.3,0.1-2.5-0.9-3.1-2
	c-2.6-3.8-0.8-9.1,1-12.8c0.9-1.9,2.2-3.7,3.6-5.2c1.4-1.4,3.1-2.3,4.9-3.4c1.3-0.9,2.4-2,2.7-3.6c0.4-2,0.2-5.1,3-5
	c1.4,0.1,2.8,0.9,4.2,0.9c0.5,0,1-0.1,1.4-0.4c0.7-0.4,1.2-1.8,2.1-2c0.2-0.1,0.1-0.4-0.1-0.3c-0.8,0.2-1,0.9-1.6,1.6
	c-0.9,0.9-2,0.8-3.1,0.6c-1.3-0.4-2.9-1.1-4.3-0.5c-1.6,0.7-1.7,2.4-1.9,3.9c-0.2,1.4-0.5,2.7-1.7,3.7c-0.9,0.8-2.1,1.3-3.1,2
	c-3.9,2.4-6.5,6.7-8,11c-1.1,3.5-1.8,9.6,2.4,11.5c1.3,0.6,3.1,0.3,3.8-1.1s-0.5-3.1-2-3.6c-2.1-0.7-4.4,0.7-6.1,1.9
	c-1.8,1.2-3.4,2.8-4.3,4.7C17.7,84.1,18,88.5,21,91c3.6,3,9.2,0.6,12.7-1.4c9.7-5.8,15.9-16.7,17.7-27.7
	C51.4,61.9,51.1,61.8,51.1,62L51.1,62z"/>
<path class="st17" d="M32.1,55.9c-2.9,2.2-5.2,5.1-6.4,8.5c-0.1,0.2,0.2,0.3,0.3,0.1c1.2-3.3,3.4-6.2,6.2-8.3
	C32.5,56,32.3,55.7,32.1,55.9L32.1,55.9z"/>
<path class="st17" d="M25.9,95.5c4.4-0.7,8.5-2.6,11.9-5.4c3.4-2.8,6.2-6.4,8.8-9.9c0.1-0.2-0.2-0.3-0.3-0.2
	c-2.6,3.4-5.2,6.8-8.4,9.6c-3.5,3-7.6,4.9-12.1,5.6C25.6,95.2,25.7,95.6,25.9,95.5L25.9,95.5z"/>
<path class="st17" d="M34.5,96c2.2-1.3,4.1-2.9,6-4.8c0.2-0.2-0.1-0.4-0.2-0.2c-1.9,1.8-3.8,3.3-6,4.7C34.2,95.9,34.4,96.2,34.5,96
	L34.5,96z"/>
<path class="st17" d="M89,82.8c-0.1-2.4,0.1-4.8,0.4-7.1c0.3-2.2,0.5-4.8,2.2-6.3c0.3-0.3-0.2-0.7-0.5-0.5c-1.6,1.4-1.9,3.6-2.2,5.7
	c-0.4,2.7-0.6,5.5-0.5,8.3C88.4,83.3,89,83.3,89,82.8L89,82.8z"/>
<path class="st17" d="M82.5,77.7c-0.6-0.5-0.3-2.2-0.3-2.9s-0.1-1.3-0.2-2.1c-0.2-1.3-0.6-2.7-1.4-3.8c-0.2-0.3-0.8,0-0.6,0.3
	c1.1,1.6,1.4,3.4,1.4,5.4c0,1-0.4,2.8,0.5,3.5C82.4,78.4,82.8,78,82.5,77.7L82.5,77.7z"/>
<path class="st17" d="M65.8,127.2c-0.4-0.4-0.6-0.9-0.6-1.4c0-0.2-0.3-0.2-0.3,0c0.1,0.6,0.3,1.2,0.7,1.7
	C65.6,127.5,66,127.3,65.8,127.2L65.8,127.2z"/>
<path class="st17" d="M70.5,127.2c0.3-0.4,0.4-0.9,0.3-1.4c-0.1-0.2-0.4-0.1-0.3,0.1c0.1,0.4,0.1,0.8-0.2,1.2
	C70.1,127.2,70.4,127.4,70.5,127.2L70.5,127.2z"/>
<path class="st17" d="M103.5,127.6c0.1-0.2,0-0.4-0.1-0.5c-0.2-0.3-0.3-0.6-0.2-0.9c0.1-0.2-0.3-0.3-0.3-0.1c-0.1,0.3-0.1,0.5,0,0.7
	c0,0.1,0.1,0.2,0.1,0.3s0.3,0.3,0.2,0.3C103.1,127.6,103.4,127.7,103.5,127.6L103.5,127.6z"/>
<path class="st17" d="M108.4,126.6c0.3-0.5,0.4-0.9,0.4-1.4c0-0.2-0.3-0.2-0.3,0c0,0.5-0.1,0.9-0.3,1.3
	C108,126.7,108.3,126.8,108.4,126.6L108.4,126.6z"/>
<path class="st17" d="M82.5,117.5c-0.4-0.4-0.6-1-0.6-1.7c0-0.2-0.3-0.2-0.3,0c-0.1,0.7,0.2,1.3,0.7,1.9
	C82.5,117.9,82.7,117.6,82.5,117.5L82.5,117.5z"/>
<path class="st17" d="M92.8,116.6c0.3-0.4,0.4-0.9,0.4-1.4c0-0.2-0.3-0.2-0.3,0c0,0.5-0.1,0.9-0.3,1.3
	C92.4,116.7,92.7,116.9,92.8,116.6L92.8,116.6z"/>
<path class="st17" d="M69.9,112.4L69.9,112.4c-0.1,0.1-0.1,0.2-0.1,0.3c0,0,0,0,0,0.1s0.1,0.1,0.1,0.1s0,0,0.1,0s0.1-0.1,0.2-0.1
	c0.1-0.3-0.1-0.5-0.2-0.7c-0.1-0.4-0.1-0.8,0.1-1.2c0.1-0.2-0.3-0.3-0.3-0.1c-0.1,0.3-0.2,0.7-0.1,1c0,0.2,0,0.3,0.1,0.4
	c0,0.1,0.2,0.4,0.2,0.5c0.1-0.1,0.1-0.1,0.2-0.1C70,112.5,70,112.5,69.9,112.4c0.1,0.1,0.2,0.1,0.2,0.1s0,0,0-0.1
	c0,0.1,0,0.2-0.1,0.2l0,0C70.2,112.6,70.1,112.3,69.9,112.4L69.9,112.4z"/>
<path class="st17" d="M102.4,111.5c0.1-0.4,0.1-0.8,0-1.2c-0.1-0.2-0.4-0.1-0.3,0.1c0.1,0.3,0.1,0.7,0,1
	C102,111.6,102.3,111.7,102.4,111.5L102.4,111.5z"/>
<path class="st17" d="M86.4,118c0.1,1.6,0.1,3.1,0.5,4.7c0.1,0.2,0.4,0.1,0.3-0.1c-0.4-1.4-0.4-3-0.5-4.5
	C86.7,117.8,86.4,117.8,86.4,118L86.4,118z"/>
<path class="st17" d="M74.4,118.6c-0.4-1.1-0.6-2.3-0.7-3.5c0-0.2-0.3-0.2-0.3,0c0.1,1.2,0.3,2.5,0.7,3.6
	C74.2,118.9,74.5,118.8,74.4,118.6L74.4,118.6z"/>
<path class="st17" d="M98.5,118.3c0.7-1.4,1.1-3,1-4.5c0-0.2-0.3-0.2-0.3,0c0,1.6-0.3,3-1,4.4C98.1,118.3,98.4,118.5,98.5,118.3
	L98.5,118.3z"/>
<path class="st17" d="M51.8,62.3c-1.3,8.4-5.2,16.1-11.1,22.2c-3,3.1-6.5,5.7-10.5,7.1c-2.3,0.8-5.1,1.3-7.3,0.2
	c-1.8-0.9-2.9-2.7-3.3-4.7c-0.9-4.2,1.8-8.2,5.2-10.4c1.9-1.2,5.1-3.1,7-1c1.4,1.4,0.4,3.5-1.6,3.6c-1.3,0.1-2.5-0.9-3.1-2
	c-2.6-3.8-0.8-9.1,1-12.8c0.9-1.9,2.2-3.7,3.6-5.2c1.4-1.4,3.1-2.3,4.9-3.4c1.3-0.9,2.4-2,2.7-3.6c0.4-2,0.2-5.1,3-5
	c1.4,0.1,2.8,0.9,4.2,0.9c0.5,0,1-0.1,1.4-0.4c0.7-0.4,1.2-1.8,2.1-2c0.2-0.1,0.1-0.4-0.1-0.3c-0.8,0.2-1,0.9-1.6,1.6
	c-0.9,0.9-2,0.8-3.1,0.6c-1.3-0.4-2.9-1.1-4.3-0.5c-1.6,0.7-1.7,2.4-1.9,3.9c-0.2,1.4-0.5,2.7-1.7,3.7c-0.9,0.8-2.1,1.3-3.1,2
	c-3.9,2.4-6.5,6.7-8,11c-1.1,3.5-1.8,9.6,2.4,11.5c1.3,0.6,3.1,0.3,3.8-1.1s-0.5-3.1-2-3.6c-2.1-0.7-4.4,0.7-6.1,1.9
	c-1.8,1.2-3.4,2.8-4.3,4.7c-1.8,3.3-1.4,7.8,1.6,10.2c3.6,3,9.2,0.6,12.7-1.4C44,84.2,50.2,73.3,52,62.3
	C52.1,62.2,51.8,62.1,51.8,62.3L51.8,62.3z"/>
<path class="st17" d="M39.1,49c0.2,0,0.3,0.1,0.4,0.2c0.1,0.2,0.4,0,0.3-0.2c-0.1-0.3-0.4-0.4-0.7-0.4C38.8,48.8,38.9,49.1,39.1,49
	L39.1,49z"/>
<path class="st17" d="M49.4,45.7L49.4,45.7c0.3,0,0.3-0.3,0.1-0.3c0,0,0,0-0.1,0C49.2,45.4,49.2,45.7,49.4,45.7L49.4,45.7z"/>
<path class="st17" d="M32.7,57.7c0.2,0,0.3,0.1,0.3,0.2c0.1,0.2,0.4,0,0.3-0.2c-0.1-0.3-0.4-0.4-0.7-0.4c-0.1,0-0.1,0.1-0.1,0.2
	C32.5,57.7,32.6,57.7,32.7,57.7L32.7,57.7z"/>
<path class="st17" d="M26.3,66.8c0.1-0.1,0.3,0,0.4,0.1c0.1,0.2,0.4,0,0.3-0.2c-0.2-0.3-0.5-0.4-0.8-0.2
	C25.8,66.7,26,66.9,26.3,66.8L26.3,66.8z"/>
<path class="st17" d="M19.3,82.2c0.1-0.1,0.2-0.1,0.3,0.1c0.1,0.2,0.4,0.1,0.3-0.1c-0.1-0.3-0.5-0.4-0.8-0.2
	C18.9,82.1,19.1,82.3,19.3,82.2L19.3,82.2z"/>
<path class="st17" d="M36.3,88c0.1,0,0.2,0.1,0.3,0.2c0.1,0.2,0.4-0.1,0.2-0.2c-0.1-0.1-0.3-0.2-0.5-0.3C36.2,87.7,36.1,88,36.3,88
	L36.3,88z"/>
<path class="st17" d="M45.1,78.4c0.1-0.1,0.3,0,0.3,0.1c0.1,0.2,0.4,0.1,0.3-0.1c-0.1-0.3-0.4-0.5-0.7-0.4
	C44.8,78.2,44.9,78.5,45.1,78.4L45.1,78.4z"/>
<path class="st17" d="M50,68.2c0.1-0.1,0.2,0,0.3,0.1c0,0.1,0.1,0.1,0.2,0.1s0.1-0.1,0.1-0.2c-0.1-0.3-0.5-0.5-0.7-0.3
	C49.6,68.1,49.8,68.3,50,68.2L50,68.2z"/>
<path class="st17" d="M43.1,58.3c0.4-0.4,0.9-0.5,1.3-0.3c0.2,0.1,0.4-0.2,0.2-0.3c-0.6-0.3-1.3-0.2-1.8,0.3
	C42.8,58.2,43,58.4,43.1,58.3L43.1,58.3z"/>
<path class="st17" d="M48.3,57.6c0.4-0.3,1-0.2,1.3,0.3c0.1,0.2,0.4,0,0.3-0.2c-0.4-0.6-1.1-0.7-1.8-0.4
	C48,57.4,48.1,57.7,48.3,57.6L48.3,57.6z"/>
<path class="st17" d="M50.3,59.5c0.2,0,0.4,0,0.6,0c0.2,0,0.2-0.3,0-0.3s-0.4,0-0.6,0C50.1,59.2,50.1,59.5,50.3,59.5L50.3,59.5z"/>
<path class="st17" d="M50.5,55.2c0.2,0.1,0.3,0.2,0.5,0.2s0.2-0.3,0-0.3c-0.1,0-0.2-0.1-0.3-0.1C50.5,54.8,50.3,55,50.5,55.2
	L50.5,55.2z"/>
<path class="st17" d="M50.2,56.4c0.2-0.2,0.5-0.3,0.6-0.1c0.2,0.1,0.4-0.1,0.2-0.2c-0.4-0.3-0.9-0.2-1.1,0.2
	C49.8,56.5,50.1,56.6,50.2,56.4L50.2,56.4z"/>
<path class="st17" d="M50,58.4c0.3,0.3,0.8,0.3,1-0.1c0.1-0.2-0.2-0.3-0.3-0.2c-0.1,0.2-0.4,0.2-0.5,0.1C50.1,58,49.9,58.3,50,58.4
	L50,58.4z"/>
<path class="st17" d="M51.4,54.5c0.4-0.5,1.2-1.1,1.9-0.6c0.2,0.1,0.4-0.1,0.2-0.2c-0.8-0.7-1.8-0.1-2.3,0.6
	C51,54.5,51.3,54.7,51.4,54.5L51.4,54.5z"/>
<path class="st17" d="M51.1,60.2c0.5,0.5,1.3,0.6,2,0.3c0.2-0.1,0-0.4-0.2-0.3c-0.5,0.3-1.1,0.2-1.6-0.2C51.2,59.8,51,60,51.1,60.2
	L51.1,60.2z"/>
<path class="st17" d="M51.3,57.3c0.6-0.4,1.3-0.5,2-0.2c0.2,0.1,0.3-0.2,0.1-0.3c-0.7-0.3-1.7-0.2-2.3,0.3
	C51,57.2,51.2,57.5,51.3,57.3L51.3,57.3z"/>
<path class="st17" d="M119.3,49.8c0.2-0.1,0.4-0.2,0.6-0.3c0.2,0,0.5-0.1,0.6,0.1c0.1,0.2,0.4,0,0.3-0.2c-0.4-0.6-1.3-0.1-1.8,0.2
	C118.9,49.7,119.2,49.9,119.3,49.8L119.3,49.8z"/>
<path class="st17" d="M124.5,48.8c0.3-0.3,0.8-0.5,1.2-0.5c0.2,0,0.2-0.3,0-0.3c-0.6,0-1.1,0.2-1.6,0.6
	C124,48.8,124.3,49,124.5,48.8L124.5,48.8z"/>
<path class="st17" d="M118,49.5c0.1-0.3,0.4-0.5,0.8-0.4c0.2,0.1,0.3-0.3,0.1-0.3c-0.4-0.1-0.9,0.1-1.1,0.5
	C117.6,49.6,117.9,49.7,118,49.5L118,49.5z"/>
<path class="st17" d="M118,51.1c0.4,0.2,0.8,0.2,1.1-0.1c0.2-0.1-0.1-0.4-0.2-0.2c-0.2,0.2-0.5,0.2-0.7,0.1
	C118,50.7,117.9,51,118,51.1L118,51.1z"/>
<path class="st17" d="M117.6,48c-0.6-0.5-1.7-0.5-2.3,0.1c-0.2,0.2,0.1,0.4,0.2,0.2c0.5-0.5,1.2-0.5,1.8-0.1
	C117.5,48.4,117.8,48.1,117.6,48L117.6,48z"/>
<path class="st17" d="M118.3,52.1c-0.2,0.7-1,1.1-1.8,1c-0.2-0.1-0.3,0.3-0.1,0.3c0.9,0.2,1.9-0.3,2.2-1.2
	C118.7,52,118.3,51.9,118.3,52.1L118.3,52.1z"/>
<path class="st17" d="M117.8,50.2c-0.6,0-1.2,0.2-1.9,0.5c-0.2,0.1,0,0.4,0.2,0.3c0.5-0.3,1.1-0.4,1.8-0.4
	C118,50.5,118,50.2,117.8,50.2L117.8,50.2z"/>
<path class="st17" d="M76.6,121.5c6.4,0.4,12.8,0,19.1-1c0.2,0,0.1-0.3-0.1-0.3c-6.3,1.1-12.7,1.4-19,1
	C76.4,121.1,76.4,121.5,76.6,121.5L76.6,121.5z"/>
</svg>
