<?xml version="1.0" encoding="utf-8"?>
<!-- Generator: Adobe Illustrator 24.0.1, SVG Export Plug-In . SVG Version: 6.00 Build 0)  -->
<svg version="1.1" id="Layer_1" xmlns="http://www.w3.org/2000/svg" xmlns:xlink="http://www.w3.org/1999/xlink" x="0px" y="0px"
	 viewBox="0 0 141.7 141.7" style="enable-background:new 0 0 141.7 141.7;" xml:space="preserve">
<style type="text/css">
	.st0{fill:#F7DCD8;}
	.st1{fill:#76CDEA;}
	.st2{fill:#FFFFFF;}
	.st3{fill:#F3B555;}
	.st4{fill:#C9B09E;}
	.st5{fill:#4CA0D5;}
	.st6{fill:#ADD1A4;}
	.st7{fill:#7AAE54;}
	.st8{fill:#3373AE;}
	.st9{fill:#0B0B0B;}
	.st10{fill:#D38E94;}
	.st11{clip-path:url(#SVGID_2_);fill:#0B0B0B;}
	.st12{clip-path:url(#SVGID_4_);fill:#0B0B0B;}
	.st13{clip-path:url(#SVGID_6_);fill:#0B0B0B;}
	.st14{clip-path:url(#SVGID_8_);fill:#0B0B0B;}
	.st15{clip-path:url(#SVGID_10_);fill:#0B0B0B;}
	.st16{clip-path:url(#SVGID_12_);fill:#0B0B0B;}
	.st17{clip-path:url(#SVGID_14_);fill:#0B0B0B;}
	.st18{clip-path:url(#SVGID_16_);fill:#0B0B0B;}
	.st19{clip-path:url(#SVGID_18_);fill:#0B0B0B;}
	.st20{clip-path:url(#SVGID_20_);fill:#0B0B0B;}
	.st21{clip-path:url(#SVGID_22_);fill:#0B0B0B;}
	.st22{clip-path:url(#SVGID_24_);fill:#0B0B0B;}
	.st23{clip-path:url(#SVGID_26_);fill:#0B0B0B;}
	.st24{clip-path:url(#SVGID_28_);fill:#0B0B0B;}
	.st25{clip-path:url(#SVGID_30_);fill:#0B0B0B;}
	.st26{clip-path:url(#SVGID_32_);fill:#0B0B0B;}
	.st27{clip-path:url(#SVGID_34_);fill:#0B0B0B;}
	.st28{fill:#C4413E;}
</style>
<g id="Layer_7">
</g>
<path class="st0" d="M45.4,34.3l0.8-2.1l1.7-3.2l1.8-1.7l2.5-2.1l2.3-1.5c0,0,2.6-1.4,2.7-1.5c0.1-0.1,3.8-1.5,3.8-1.5l4-0.9
	l3.5-0.5l3.1-0.2h3.7l3.7,0.3l2.5,0.5l1.6,0.3l1.2,1.1l0.9,0.6l1.2,1.2l0.9,1.5l0.9,1.8l0.7,1.6l0.7,1.8l0.7,2l0.3,1.5v1.4l-0.8,1.4
	l0.2,2.1l1,0.9L90.5,44l-0.3,7.4l-0.7,1.4l-0.7,1.9l-0.7,0.5l-3.2,1l-3,0.8l-3.1,0.5l-2.9,0.3L72.7,58l-4-0.7l-5.2-1L60,55.1
	l-4.4-1.8l-3.3-1.8l-2.5-1.9L48.2,48l-1.4-2l-1.2-2.3L45,42.1l-0.6-2v-2.7v-1.9L45.4,34.3z"/>
<path class="st1" d="M41.3,22.9"/>
<path class="st2" d="M40.1,22c0,0-1.4-1.1-1.2-1.1l-0.8-1.2l-0.6-1.1l-0.1-1l0.1-1l0.6-1.1l0.9-1.1l0.7-0.5l1-0.7l1.2-0.6h1.2
	l1.2-0.2l1.4,0.3l1.4,0.1c0,0,1,0.3,1.1,0.5l0.9,0.5l0.7,0.6l0.5,0.7l0.2,0.6v0.5l-0.6,0.5L48.6,17l-1.4,1l-1.6,1.2l-1.4,1l-1.1,1
	l-1.1,1l-0.7,0.6l-0.8-0.6L40.1,22z"/>
<path class="st2" d="M55.8,13.7l0.1-1l0.3-1l0.6-1.4L57.5,9l0.9-1.1L59.5,7l0.8-0.3h0.9l1.1,0.2l0.8,0.3l0.7,0.6L64.5,9
	c0,0,0.1,0.7,0.2,0.8v1.4L64.5,12L64,12.7h-1.2h-2l-1.5,0.2l-1.5,0.3l-0.9,0.3L55.8,13.7z"/>
<path class="st2" d="M57.7,33.4l0.5-2.1l0.9-2l1.1-1.7l1.5-1.4l1.6-1.1l1.7-0.8l2-0.6c0,0,1.8-0.2,1.9-0.1c0.1,0,2.9,0.5,2.9,0.5
	l2.3,0.8l1.9,1l1.2,1.4l1.1,1.2l1,1.8l0.5,1.2l0.3,2v1.8L80,37.4l-0.7,1.7l-1,1.8l-1.9,2l-1.2,1l-1.5,0.8l-1.9,0.6l-1.7,0.3h-1.7
	l-1.6-0.2L65.3,45l-1.8-0.8l-1.6-1l-1.4-1.4l-1.4-1.7l-0.9-2l-0.5-1.6l-0.1-1.8L57.7,33.4L57.7,33.4z"/>
<path class="st2" d="M87.5,24.7l0.9,1.7c0,0,0.6,1.2,0.6,1.4c0,0.1,0.5,1.2,0.6,1.4c0,0.1,0.6,1.6,0.6,1.6s0.2,1.4,0.3,1.5
	c0.1,0.1,0.2,1.6,0.2,1.6v0.8l0.3,1.2v1l-0.2,1.5L91,39l0.2,0.5l0.8,0.9l0.9,0.9l0.2,0.9v0.7l-0.3,0.7l-1,0.5L90.9,44h-0.2l0.1,0.2
	l0.1,0.8l0.1,1.4c0,0,2.7-0.2,4.7-1.9c0,0,2.1-1.7,3.4-3.7c0,0,1.4-2.8,1.4-5.1c0,0,0.1-2.8-1.5-5.5c0,0-1.7-2.8-4.2-4
	c0,0-2.8-1.2-4.1-1.4C90.8,24.4,87.6,24.2,87.5,24.7z"/>
<path class="st3" d="M65.9,68.8c0,0-0.8,1.4-0.9,1.5s-0.9,1.6-0.9,1.7s-0.8,1.7-0.8,1.9c0,0.2-0.9,3.1-0.9,3.1l-0.6,2.9l-0.1,2.8
	c0,0,0.2,2.9,0.2,3.1s0.3,2.3,0.3,2.3l0.8,2l0.2,1.6c0,0,0.3,2.6,0.2,2.7s0,1.2,0,1.2l-1.2-0.3l-3.4-0.1H58v1l-0.1,0.9L57.1,98h-1
	l-1.2-0.1l-1.1-0.6l-0.9-0.9l-0.6-0.9l-0.5-1l-0.1-0.2L49,93.7L46.1,93l-3.4-0.7l-3.6-1.2l-2.9-1.5l-2-1.7l-1.7-1.7l-1.1-1.7
	l-1.1-1.9l-0.6-1h-1.1L26.1,81l-1.2-0.2l-1-0.8l-0.3-0.9l0.3-0.9l1-0.5l1-0.6l1.1,0.1l0.9,0.1l-0.5-1.5l-0.2-2L26.9,73L25,73.9
	l-2.6,1.4l-1.7,1.1l-1,1l-1,1.1L18.1,79l-0.9-1.5l-0.8-1.4l-0.7-2l-0.9-1.9l-0.7-1.4l-0.8-0.7l-0.8,0.5L11.7,72c0,0-0.1,1-0.1,1.4
	c0,0.2,0.2,1.8,0.3,2c0,0.2,0.6,1.8,0.6,1.8l0.8,1.7l0.8,1.4l0.8,1.1l0.9,0.8l0.7,0.3l-0.2,0.9l-0.5,1.8V87l-0.3,2.1V92l0.6,2.5
	l1.5,4.6c0,0,1.4,2.8,1.5,2.9s2,2.8,2,2.8l2,1.6l2.1,2.1c0,0,2.3,1.9,2.4,2s1.7,1.9,1.7,1.9l1.1,1.8c0,0,0.6,1.6,0.6,1.7
	s0.2,2.1,0.2,2.1v2.1c0,0-0.5,1.7-0.5,1.8l-0.2,1.5l-1.4,2.3l-1.2,1.5l-0.9,0.7l-0.6,0.7v1.7l0.3,1.7l0.9,1.4l1.1,0.8l1.4,0.3h1.7
	l1.1-0.6l0.6-0.6v-1l-0.6-0.7l-0.6-0.5l-0.7-0.3l0.1-1l0.7-1.4l0.5-1.9l0.6-1.6l0.5-1.6l0.2-1.6l0.1-1.7l0.1-1.6l-0.1-1.6l-0.2-1.7
	l-0.2-1.1l1.1,0.5l1.7,1l2,0.9l1.9,0.7l0.9,0.2c0,0,0.3,1.6,0.3,1.7s0.2,2.7,0.2,2.7v2.5v2.6v2.7l-0.2,1.7l0.3,1.2l0.7,0.8l2,0.3
	l2-0.8l2.1-1.5l1.2-1.2v-1.1l-0.6-0.6L48,128l-0.9,0.1c-0.2-0.3-0.3-0.7-0.5-1c0-0.3-0.1-0.7-0.1-1c0-0.6,0-1.3,0-1.9
	c0-0.8,0-1.6,0-2.4c-0.3-1.1-0.5-2.3-0.8-3.4l-0.1-0.3l4.3,0.5l4.6,0.1l5.9-0.1l2.9-0.1l3.5-0.3h2.4c0.5,0.1,1.1,0.2,1.6,0.3
	c0,0.3-0.1,0.5-0.1,0.8c0,1.5-0.1,3-0.1,4.5c0,0.8,0,1.6,0,2.5c0,0.7-0.1,1.4-0.1,2.1c0,0.5,0,1,0,1.5c0.2,0.5,0.3,1.1,0.5,1.6
	c0.3,0.4,0.5,0.8,0.8,1.1l1.9,0.3c0.7,0,1.4,0,2.1,0c0.6-0.2,1.2-0.3,1.8-0.5c0.3-0.3,0.7-0.6,1-0.9c-0.1-0.5-0.1-1.1-0.2-1.6
	c-0.2-0.4-0.4-0.8-0.7-1.2l-0.8-0.5l-0.8-0.5l-0.7-0.2h-0.6l-0.2-1.8v-2.1V122l0.2-2v-1.7l2.1-0.5c1.1-0.1,2.3-0.1,3.4-0.2
	c1.9-0.9,3.8-1.7,5.7-2.6c2.2-1,4.4-2.1,6.7-3.1c1-0.7,2-1.4,3.1-2.2c0.7-0.7,1.3-1.4,2-2.1c1-0.8,2-1.5,2.9-2.3
	c0.4-0.6,0.7-1.3,1.1-1.9c0.6-0.7,1.2-1.4,1.8-2c0.5-0.9,1.1-1.8,1.6-2.7c0.6-0.6,1.2-1.2,1.7-1.8c0.4-1.1,0.8-2.1,1.2-3.2
	c0.4-1,0.8-1.9,1.2-2.9c0.4-1.1,0.7-2.2,1.1-3.3c0.2-1.2,0.3-2.4,0.5-3.5c0-1.1,0-2.3,0-3.4c-0.3-1-0.7-2-1-3.1l-0.8-1.5l-0.6-0.6
	l-1.8,1.1l-2.3,0.6c-0.5-0.1-0.9-0.3-1.4-0.4c-0.5,0.1-0.9,0.2-1.4,0.4c-0.2-0.4-0.4-0.9-0.6-1.3c-0.5-0.7-0.9-1.4-1.4-2.1L97.1,71
	c-0.1-0.1-0.2-0.1-0.2-0.2c0.1-0.7,0.3-1.5,0.4-2.2c0.3-0.7,0.7-1.3,1-2c0.6-0.5,1.2-1,1.7-1.4c0.5-0.3,0.9-0.6,1.4-0.9
	c0.2-0.1,0.5-0.1,0.7-0.2c-1.2-1-2.3-2.1-3.5-3.1l-2.3-1l-3.6-1.1l-2.9-0.5l-5.7,0.1l-4.7,0.7l-4.9,2l-3.7,2.3l-2,1.5l1.1,1.1
	l0.9,1.2l0.2,1.1l-0.3,0.8l-0.9,0.5h-1.4l-1.2-0.6L65.9,68.8z"/>
<path class="st2" d="M84.6,45l-0.2,0.6l-0.1,0.9c0,0,0,0.8-0.1,0.9c-0.1,0.1,0,0.8,0,0.9c0,0.1,0.1,0.5,0.1,0.7s0.1,0.7,0.1,0.7
	l0.3,0.5l0.3,0.5l0.3,0.3c0,0,2,1.4,3.3-0.9h1.1c0,0,1.2-0.3,1-3.1l-0.2-1.5v-1.6l-1.7,0.3l-1.2,0.2l-1.4,0.3l-1,0.1L84.6,45z"/>
<path class="st2" d="M96.5,70.9l0.2-1.4c0,0,0.3-1.2,0.5-1.4c0.1-0.1,1.1-1.5,1.1-1.5l1.6-1.7c0,0,1.4-0.6,1.5-0.6s2.1-0.7,2.1-0.7
	l1.6-0.3l1.5,0.3c0,0,1.6,0.2,1.6,0.5s1.1,1.1,1.1,1.1l1,0.9l1,1l0.6,1.1l0.3,1.6l-0.1,1.6l-0.6,1.6l-1,1.6l-1.5,1.5l-2.1,1.2
	c0,0-1.9,0.6-2,0.6s-1.9,0.3-1.9,0.3h-1.2l-0.6-2l-0.7-1.2l-0.9-1.5l-1.1-1.1l-1.2-0.9L96.5,70.9z"/>
<path class="st2" d="M79.4,76.9l-1-0.5l-1.8-1L75,73.5l-0.9-1.7c0,0-0.6-1.6-0.6-1.7s0-2,0-2l0.6-1.6l1.1-1.6l1.2-1
	c0,0,1.7-0.6,1.7-0.7c0-0.1,1.8-0.2,1.8-0.2h2.3l2,0.6l1.5,0.5l1.4,0.9l0.8,0.8l0.6,1.1l0.2,1.2l-0.1,1.2l-0.1,0.8l-1.7,0.8L85,71.6
	l-1.2,0.8l-1.2,1l-1,1.1c0,0-0.9,0.9-1,1C80.5,75.7,79.4,76.9,79.4,76.9z"/>
<path class="st4" d="M84.4,37.9l-0.6,0.2l-0.7,0.3l-0.8,0.5l-0.8,0.6l-0.7,0.6l-0.7,0.7l-0.3,0.9l-0.1,0.7c0,0-0.1,0.7,0,0.8
	s0.3,0.7,0.3,0.7l0.5,0.7c0.1,0,0.9,0.3,0.9,0.3l1.9,0.3l1-0.1l1.2-0.2l1.2-0.3l1.4-0.2l1-0.3h1.2l1.1-0.2l0.8-0.3l0.5-0.5l0.2-0.6
	l0.1-1L92.9,41l-0.6-0.6l-0.8-0.8l-0.7-0.9L89,38.8l-1.9,0.1l-1.8-0.3L84.4,37.9z"/>
<path class="st0" d="M101.5,36.1l0.3-1.5l0.6-1.8l0.1-0.7l0.5-0.7l1.9-0.5l4.1-0.6l2.3-0.1l1.6,0.1c0,0,2.3,0.2,2.3,0.5
	c0,0.2,1.6,0.8,1.6,0.8c0.1,0,2,1,2,1l1.8,2l1.2,1.8l0.8,1.8l1,2.4l0.2,2.3l0.3,2.4l0.5,1.8c0,0,0.3,1.6,0.2,1.7
	c-0.1,0.1,0,2.1,0,2.1s-0.1,1.8-0.1,1.9c0,0.1-0.5,1.8-0.5,1.9c0,0.1-0.8,1.2-0.8,1.2l-1.5,1l-1.6,0.3l-2.3-0.1l-1.6-0.2l-1.4-1.1
	c0,0-0.7-1.2-0.6-1.4c0-0.1-0.1-1,0-1.1s0.6-1.5,0.6-1.4c0.1,0.1,1.1-0.3,1.1-0.3l1.6-0.1l0.7,0.5l0.9-2l0.5-1.6l0.5-2
	c0,0,0.2-2,0.1-2.4c-0.1-0.2-0.5-2.6-0.6-2.8s-1.1-2.9-1.1-2.9l-1.6-1.8c0,0-1.6-1.4-1.7-1.4s-2-0.7-2-0.7l-1.8-0.2h-2.1l-2,0.3
	l-2.4,0.7l-2.4,0.6L101.5,36.1z"/>
<path class="st0" d="M64.5,67.8c0,0,0.6-1,0.6-1.1c-0.1-0.1,0.5-0.9,0.5-1c0.1-0.1,1.1-1.1,1.1-1.1l1.2-0.6l0.1,0.6l0.7,0.6l1,1
	c0,0,0.5,0.5,0.5,0.6s0.7,1,0.7,1l0.1,0.6c0,0,0,0.6,0,0.7s-0.3,0.7-0.3,0.7l-1,0.2h-1.1l-0.9-0.3l-0.9-0.5l-1.5-0.8L64.5,67.8z"/>
<path class="st5" d="M26.7,61.2c0,0,1.9-10.9,2.1-11.1L44,56.3l10.7,3.3l5.1,1l2.9,0.5h0.8L65,62l1,0.7l1,0.3l1.1,0.2l-0.6,0.3
	l-1.1,0.9l-0.9,1c0,0-0.2,0.8-0.5,1c-0.2,0.2-0.7,1.5-0.7,1.5L64,68.8l-0.9-1.6L62.8,67l-2.7,0.9l-3.6,0.2l-5.4-0.7l-5.9-0.9l-6.1-1
	l-6.6-1.8L26.7,61.2z"/>
<path class="st5" d="M26.6,64.8v2v2.7c0,0,0.8,5.4,1,5.5l7.5,4l5.8,2.5l8.8,3.1L62,87.2L61.7,84l0.2-4.1l0.9-4l1.2-2.8l0.8-2.4
	l0.8-1.4l0.3-0.6l-0.5-0.2l-1,0.5L64,69.2l-0.2-0.6l-0.6-0.8L62,68.7l-2.4,0.6l-5.2,0.2L50.5,69l-4.7-0.9l-5.1-0.8l-5.2-0.6
	l-4.9-0.9l-2.7-0.6L26.6,64.8z"/>
<path class="st3" d="M106.2,98.2l2.3,0.2l2.7-0.1l1.9-0.7l1.1-1l0.9-1.8l0.8-3.2l0.6-3.2l0.1-4.9l0.2-4l0.3-2.4V74l0.2-3.3l0.3-1.6
	v-1.5l-1-1.5l-0.5-1.7V63l0.1-0.9l-1-0.2l-0.8-1v-0.8l0.2-1.1l0.8-1l0.6-0.6l1.7-0.3l1.5,0.1l1.2,0.7l1.2,0.9c0,0,0.6,1.9,0.7,2
	c0,0.2,0.3,2,0.3,2.1c0,0.2,0,1.7-0.2,1.7s-0.5,1.1-0.5,1.1l-0.2,0.8v1.8v2.5v2.4v2.3l-0.1,2.4l-0.1,3.6l-0.5,2.7l-0.5,3.1l-0.5,2.6
	l-0.8,3.2l-0.8,2.1l-1.2,2.5l-1.4,2l-1.4,1.4l-1.6,1.1l-2,0.9l-2.9,0.6l-2.6,0.1l-2.6-0.2l-0.9-0.1l1.5-1.7l0.9-1.5l1-1.5
	L106.2,98.2z"/>
<path class="st6" d="M17.8,43.1l0.9-1.2l1.1-1.6l1.5-1.6l1.8-1.7l2.3-1.4c0,0,2-1,2.1-1s2.1-0.7,2.1-0.7l2.1-0.6l1.8-0.3H34l-0.7,2
	c0,0-0.9,1.9-0.9,2s-0.6,1.8-0.6,1.8l-0.6,1.8l-0.5,1.1c0,0,2.6,1.5,2.6,1.7s2.6,1.9,2.7,2c0.2,0.1,2.3,1.4,2.3,1.4l3.5,2l2.9,1.6
	l2.4,1.2l5.4,2.6l3.6,1.5l3.4,1.4l2.7,1.4l2.3,1.4l1.5,1.4l1,1l0.2,0.9h-0.7l-1.4-0.3l-1.9-1.2L60.9,60l-3.5-1.7l-4.1-1.7l-4.2-1.9
	l-4.9-2l-5.4-2.4l-4.7-2.4l-3.4-1.5l-1.4-0.7l0.1,2L29,50.2l-0.6,1.9l-2.7-0.5l-3.1-1.8l-1.9-2l-1.8-2.7L17.8,43.1z"/>
<path class="st7" d="M17.7,43.2l-0.5,1.2L16.6,47l-0.2,3.8l0.2,2.6l0.5,2.3c0,0,0.6,2.1,0.7,2.3c0,0.1,0.8,2,0.9,2.1
	c0,0.1,1,1.9,1,1.9l1,1.5l1.2,1.2l1.1,0.9l1.5,0.8l1.2,0.5l0.7,0.3l0.1-2.3l5.8,1.4l4.7,0.9l5.3,0.5c0,0,4.5,0.6,4.6,0.8
	c0.1,0.2,5.5,1,5.5,1l4.2,0.2l3.5-0.2l1.6-0.9l1.1-0.6l-0.3-0.8L60.1,68L55,68.2l-6.3-0.8l-5.3-0.8l-5.3-1l-4.6-1.2l-4.5-2l-2.1-1.1
	l0.6-4.2l0.7-2.7l0.5-2.3l-1.8-0.2L24.4,51l-1.8-1.6l-1.5-1.7l-1.7-2.1l-1.1-1.7L17.7,43.2z"/>
<polygon class="st5" points="67.3,61.8 67.7,62.4 67.9,63.5 68.4,63.8 68.4,64.3 68.8,65 69.7,64.3 71.8,62.9 73,62 73.5,61.8 
	72.8,61.4 71.2,61.7 68.4,61.5 "/>
<polygon class="st8" points="27.6,75.3 28.1,77.3 28.8,79.3 29.7,81.6 30.9,83.7 32.3,85.9 34,87.8 36,89.5 38.6,90.8 42.5,92.3 
	45.6,93 48.8,93.7 51.3,94.2 55,94.7 58.1,95.1 60.8,95.2 63.4,95.2 63.3,92.4 62.7,90 62.1,88.1 62,87.1 58.9,86.8 53.2,85.5 
	48.6,84.3 43.1,82.5 39.3,80.7 34.8,78.7 31.6,77.3 28.6,75.7 "/>
<polygon class="st0" points="24.5,77.9 23.8,78.5 23.7,79.3 23.7,80.2 24.5,80.7 25.5,81.1 26.6,81.2 27.8,81.6 28.8,81.4 
	29.7,81.6 29,80 28.6,78.8 28.3,77.9 28,77.4 27,77.3 25.8,77.3 24.8,77.5 "/>
<polygon class="st0" points="51.9,94.3 52.3,95.6 53.1,96.7 53.8,97.6 54.8,97.8 56.4,98 57.2,97.7 58.1,97.3 58.1,96.4 57.8,95.5 
	57.5,94.9 55.8,94.9 53.7,94.6 "/>
<path class="st9" d="M83.7,71.7l1-0.9l0.9-1.2l0.6-1.5l0.3-1v-1.2l-0.1-1l-0.2-0.5l1.1,0.8c0,0,0.8,1,0.8,1.1s0.5,1.2,0.5,1.2v1.4
	L88.4,70l-0.8,0.3L85.7,71l-1,0.7l-1,0.7l-1.9,1.8l-1,1.1l-0.8,1l-0.5,0.6L78,76.2l-1.4-0.8l-0.8-0.7l-0.9-0.9L74.7,73l0.1-0.3
	c0,0,1,0.1,1,0.2c0.1,0.1,0.8,0.5,0.8,0.5l2.3,0.1l2.1-0.3l1.6-0.8L83.7,71.7z"/>
<path class="st9" d="M101,75.7l1.8-0.5c0,0,1.9-0.7,2-0.7s1.8-1.1,1.8-1.1l1.1-1.2l1.2-1l0.7-1.5l0.5-1.1l-0.1-1.8l-0.6-1.1l1.2,0.8
	c0.4,0.6,0.9,1.1,1.3,1.7c0,0.8,0,1.5,0,2.3l-0.3,1.8l-0.6,1.2l-0.8,1.1l-0.9,1.1l-1.7,0.9c-0.1,0.2-1.9,0.9-1.9,0.9
	c-0.6,0.2-1.2,0.5-1.8,0.7c-0.8,0.1-1.5,0.3-2.3,0.4C101.4,77.6,101.2,76.7,101,75.7z"/>
<path class="st2" d="M88.7,81.4l-0.6,0.9c0,0-0.5,0.7-0.5,0.8c0,0.1,0,1,0,1l0.6,0.5l0.8,0.5c0.1,0,1.2-0.9,1.2-0.9s0.5,0.9,0.5,1
	c0,0.2,1.1,0.6,1.1,0.6l1-0.5l0.9-1.1l0.1-1.6l-0.1-1.1L92.5,82c0,0-1,0.3-1.1,0.3c-0.2,0-1.4,0-1.4,0L89.2,82L88.7,81.4z"/>
<path class="st9" d="M64.6,69.3L64.6,69.3c0.5,0,0.8-0.3,0.8-0.8s-0.3-0.8-0.8-0.8l0,0c-0.5,0-0.8,0.3-0.8,0.8S64.2,69.3,64.6,69.3
	L64.6,69.3z"/>
<path class="st9" d="M104,31.5c0.1-0.1,0.1-0.1,0.2-0.2s-0.1,0.1,0,0c0.2-0.3,0.3-0.8,0-1c-0.3-0.3-0.8-0.3-1,0
	c-0.2,0.2-0.2,0.5-0.3,0.7c0,0.5,0.3,0.8,0.8,0.8s0.7-0.3,0.8-0.8c-0.2,0.3-0.2,0.6-0.1,0.3c-0.3-0.3-0.7-0.7-1-1
	c-0.1,0.1-0.1,0.1-0.2,0.2s0.1-0.1,0,0c-0.2,0.3-0.3,0.8,0,1C103.2,31.8,103.8,31.8,104,31.5L104,31.5z"/>
<path class="st9" d="M103.6,30.7c-0.1,0-0.1,0-0.2-0.1s-0.1-0.1,0,0c0-0.1,0-0.1,0,0c0,0,0,0.2,0,0c0,0.1,0,0.3,0,0.5
	c0,0.5,0.3,0.8,0.8,0.8s0.7-0.3,0.8-0.8c0-0.3,0-0.6,0-0.9c-0.1-0.5-0.5-0.7-0.8-0.9c-0.3-0.1-0.8,0.1-0.9,0.6
	C103,30.2,103.2,30.6,103.6,30.7L103.6,30.7z"/>
<path class="st9" d="M102.7,37.6c0-0.2,0-0.3,0-0.6c0-0.1,0,0.2,0,0.1c0-0.2-0.1,0.1,0,0c-0.1,0.1-0.2,0.2-0.3,0.2c0.1,0-0.2,0,0,0
	c0.5,0,0.8-0.3,0.8-0.8s-0.3-0.7-0.8-0.8c-0.6-0.1-0.9,0.3-1.1,0.8c-0.1,0.2-0.1,0.6,0,0.9c0,0.5,0.3,0.8,0.8,0.8
	C102.4,38.2,102.9,37.9,102.7,37.6L102.7,37.6z"/>
<path class="st10" d="M82.4,50.9c0.2-0.1,1.4-1.1,1.4-1.1l0.5-0.5l0.2,0.5l0.6,0.8l0.7,0.7l1.4,0.3l0.9-0.3l0.7-0.5l0.1-0.5h1
	l0.7-0.3l-0.7,1.5l-1.2,1l-1.1,0.7L85.8,53l-1.2-0.8L82.4,50.9z"/>
<path class="st5" d="M101.5,37.9l-0.1-0.9l0.2-1l0.3-1.2l0.3-1.7l0.5-1.2l0.7-1.2l0.1-0.6l-1.2,0.5l-1.5,0.1l-1,0.5l-0.2,0.2
	l0.3,0.9l0.3,1.1c0,0,0.3,0.9,0.2,0.9c-0.1,0.1,0,1,0,1V36l-0.1,0.9v0.8l0.3,0.3h0.7L101.5,37.9L101.5,37.9z"/>
<polygon class="st2" points="28.9,50.2 29.9,45.5 58,58 62.8,60.7 60.3,60.9 53.8,59.6 46.1,57.4 38.4,54.1 31.4,51.1 "/>
<polygon class="st2" points="31,41.7 32.7,36.5 35.7,30.8 38.4,26.7 41.1,23.5 45.7,19.2 50.5,15.9 54.3,14.5 57.8,13.1 61.2,12.3 
	65.1,12.5 68.6,13.1 73,14.5 76.3,15.7 81,18 83.9,20.8 81.6,20 77.2,19.5 70.4,19.2 62.9,20.4 57.4,22.2 52.9,24.6 49.5,27.5 
	47.1,30.4 46.1,32.7 45,35.3 44.7,39.1 45.3,42.4 47.1,46.3 49.7,49.2 53.4,52 57.4,54.1 62.8,56 66.4,56.9 73,58 79.2,57.6 
	84.2,56.5 87.5,55.4 89.1,54.8 88.5,56.5 88.5,58 87.5,58.3 83.3,58.6 79.2,59.2 76.7,60.2 74.5,61.2 73.5,61.8 71.2,61.7 
	67.3,61.8 65.4,60.2 62.5,58.3 58.3,56.6 52.9,54.4 46.2,51.4 40.7,48.2 34.5,44.5 "/>
<g>
	<g>
		<g>
			<defs>
				<rect id="SVGID_1_" x="7.2" y="-16.3" width="118.6" height="130.5"/>
			</defs>
			<clipPath id="SVGID_2_">
				<use xlink:href="#SVGID_1_"  style="overflow:visible;"/>
			</clipPath>
			<path class="st11" d="M28,77.4c-1.7-0.6-4.1-0.3-4.4,1.7c-0.6,2.9,4.4,2.5,6,2.7c0.2,0,0.3-0.2,0.1-0.2c-1.7-0.3-3.5,0-5.1-0.9
				c-1.8-1-0.2-2.8,1-3.2c0.8-0.2,1.6-0.1,2.3,0.2C28.1,77.7,28.2,77.5,28,77.4"/>
		</g>
	</g>
	<g>
		<g>
			<defs>
				<rect id="SVGID_3_" x="7.2" y="-16.3" width="118.6" height="130.5"/>
			</defs>
			<clipPath id="SVGID_4_">
				<use xlink:href="#SVGID_3_"  style="overflow:visible;"/>
			</clipPath>
			<path class="st12" d="M29.6,81.9L29.6,81.9c-0.3-0.1-0.8-0.1-1.4-0.1c-1.6-0.1-3.6-0.2-4.4-1.2c-0.3-0.5-0.5-0.9-0.2-1.5
				c0.1-0.7,0.6-1.2,1.1-1.6c0.9-0.5,2.3-0.6,3.4-0.1l0,0c0.1,0,0.2,0.2,0.1,0.3c0,0.1-0.2,0.2-0.3,0.1c-0.8-0.2-1.6-0.3-2.3-0.2
				c-0.8,0.2-1.7,0.9-1.8,1.7c-0.1,0.5,0.2,0.9,0.8,1.2c1,0.6,2,0.7,3.2,0.7c0.6,0,1.2,0.1,1.8,0.2c0.1,0,0.2,0.1,0.2,0.2
				C29.8,81.8,29.7,81.9,29.6,81.9z M26.4,77.3c-0.7,0-1.2,0.1-1.7,0.3c-0.6,0.3-0.9,0.8-1,1.5c-0.1,0.6,0,1,0.2,1.4
				c0.8,1,2.8,1.1,4.3,1.1c0.6,0,1,0.1,1.4,0.1l0,0l0,0c-0.6-0.1-1.1-0.1-1.7-0.2c-1.1,0-2.3-0.1-3.3-0.7c-0.8-0.5-0.9-1.1-0.9-1.5
				c0.1-0.9,1.1-1.7,1.9-1.9c0.7-0.1,1.6-0.1,2.4,0.2l0,0l0,0C27.4,77.3,27,77.3,26.4,77.3z"/>
		</g>
	</g>
</g>
<g>
	<g>
		<g>
			<defs>
				<rect id="SVGID_5_" x="7.2" y="-16.3" width="118.6" height="130.5"/>
			</defs>
			<clipPath id="SVGID_6_">
				<use xlink:href="#SVGID_5_"  style="overflow:visible;"/>
			</clipPath>
			<path class="st13" d="M41.3,22.4c-1.7-0.9-3.2-2.1-3.6-4c-0.3-1.5,0.3-2.9,1.4-4.1c1.2-1.2,3.1-1.7,4.9-1.7
				c1.1,0,2.1,0.2,3.3,0.6c0.9,0.2,2.9,1,3.1,2.3c0,0.3,0.6,0.3,0.6,0c-0.1-2.1-4.1-3.1-5.7-3.3c-2.1-0.2-4.3,0.1-6.1,1.5
				c-1.4,1.1-2.1,2.8-1.9,4.6c0.3,2.1,2.1,3.7,4,4.6C41.3,23.1,41.7,22.6,41.3,22.4"/>
		</g>
	</g>
</g>
<g>
	<g>
		<g>
			<defs>
				<rect id="SVGID_7_" x="7.2" y="-16.3" width="118.6" height="130.5"/>
			</defs>
			<clipPath id="SVGID_8_">
				<use xlink:href="#SVGID_7_"  style="overflow:visible;"/>
			</clipPath>
			<path class="st14" d="M46.3,18.3c0.2-0.9-0.3-1.8-1.4-2.1c-1-0.3-2,0.2-2.4,1c-0.2,0.9,0.3,1.8,1.4,2.1S46,19.1,46.3,18.3"/>
		</g>
	</g>
</g>
<g>
	<g>
		<g>
			<defs>
				<rect id="SVGID_9_" x="7.2" y="-16.3" width="118.6" height="130.5"/>
			</defs>
			<clipPath id="SVGID_10_">
				<use xlink:href="#SVGID_9_"  style="overflow:visible;"/>
			</clipPath>
			<path class="st15" d="M56,13.5c0.3-2.1,1.2-4.7,3.2-6c1.1-0.8,2.7-0.6,3.8,0.1c1.5,0.9,1.6,2.9,1,4.3c-0.1,0.3,0.5,0.6,0.6,0.1
				c1.1-2.8-0.8-6.2-4.1-5.7c-3.2,0.5-4.6,4.1-5,6.9C55.5,13.7,56,13.9,56,13.5"/>
		</g>
	</g>
</g>
<g>
	<g>
		<g>
			<defs>
				<rect id="SVGID_11_" x="7.2" y="-16.3" width="118.6" height="130.5"/>
			</defs>
			<clipPath id="SVGID_12_">
				<use xlink:href="#SVGID_11_"  style="overflow:visible;"/>
			</clipPath>
			<path class="st16" d="M69,45.9c-6.4,0-11.6-5.1-11.6-11.3S62.6,23.3,69,23.3s11.6,5.1,11.6,11.3S75.5,45.9,69,45.9z M69,23.8
				c-6.1,0-11.2,4.9-11.2,10.9s5,10.9,11.2,10.9c6.1,0,11.2-4.9,11.2-10.9S75.1,23.8,69,23.8z"/>
		</g>
	</g>
</g>
<g>
	<g>
		<g>
			<defs>
				<rect id="SVGID_13_" x="7.2" y="-16.3" width="118.6" height="130.5"/>
			</defs>
			<clipPath id="SVGID_14_">
				<use xlink:href="#SVGID_13_"  style="overflow:visible;"/>
			</clipPath>
			<path class="st17" d="M76.4,32.6c-2,0-3.7,1.6-3.7,3.6s1.7,3.6,3.7,3.6s3.7-1.6,3.7-3.6C80.1,34.2,78.5,32.6,76.4,32.6 M78,38.5
				c-0.6,0-1-0.5-1-1c0-0.6,0.5-1,1-1c0.6,0,1,0.5,1,1S78.5,38.5,78,38.5"/>
		</g>
	</g>
</g>
<g>
	<g>
		<g>
			<defs>
				<rect id="SVGID_15_" x="7.2" y="-16.3" width="118.6" height="130.5"/>
			</defs>
			<clipPath id="SVGID_16_">
				<use xlink:href="#SVGID_15_"  style="overflow:visible;"/>
			</clipPath>
			<path class="st18" d="M84.3,38.1c0.1,0,0.2,0,0.3,0c0-0.1,0-0.2-0.1-0.3c-2,0.6-4.7,2.3-4.9,4.6c-0.1,2.6,3.3,2.9,5.1,2.7
				c1.4-0.1,2.6-0.6,4-0.8c1.1-0.2,2.5-0.1,3.5-0.7c2.7-1.4-0.6-4.5-1.8-5.4c-0.1-0.1-0.3,0.1-0.1,0.2c0.9,0.7,1.7,1.5,2.4,2.4
				c0.5,0.8,0.6,1.9-0.2,2.5c-0.5,0.3-1.1,0.3-1.7,0.3c-1.7,0.1-3.4,0.7-5.1,1c-2,0.3-5.3,0.5-5.7-2.4c-0.2-2.1,2.9-3.8,4.6-4.3
				c0.2-0.1,0.1-0.3-0.1-0.3c-0.1,0-0.2,0-0.3,0C84,37.8,84.1,38.1,84.3,38.1"/>
		</g>
	</g>
</g>
<g>
	<g>
		<g>
			<defs>
				<rect id="SVGID_17_" x="7.2" y="-16.3" width="118.6" height="130.5"/>
			</defs>
			<clipPath id="SVGID_18_">
				<use xlink:href="#SVGID_17_"  style="overflow:visible;"/>
			</clipPath>
			<path class="st19" d="M93.1,36.9c0-1.4-2.1-2.5-4.7-2.5s-4.7,1.1-4.7,2.5s2.1,2.5,4.7,2.5C91,39.5,93.1,38.4,93.1,36.9"/>
		</g>
	</g>
</g>
<g>
	<g>
		<g>
			<defs>
				<rect id="SVGID_19_" x="7.2" y="-16.3" width="118.6" height="130.5"/>
			</defs>
			<clipPath id="SVGID_20_">
				<use xlink:href="#SVGID_19_"  style="overflow:visible;"/>
			</clipPath>
			<path class="st20" d="M88.8,44.2c0,1.9,0.9,6.1-1.5,7c-1.8,0.7-2.8-1.2-2.9-2.6c-0.1-1.1,0-2.4,0.3-3.5c0-0.2-0.2-0.2-0.3-0.1
				c-0.7,2.3-0.9,6.8,2.5,6.7c3.1-0.1,2.1-5.7,2-7.4C89.2,44,88.8,44,88.8,44.2"/>
		</g>
	</g>
</g>
<g>
	<g>
		<g>
			<defs>
				<rect id="SVGID_21_" x="7.2" y="-16.3" width="118.6" height="130.5"/>
			</defs>
			<clipPath id="SVGID_22_">
				<use xlink:href="#SVGID_21_"  style="overflow:visible;"/>
			</clipPath>
			<path class="st21" d="M88.8,50.3c3.3,0.7,2-4.6,2-6.3c0-0.2-0.3-0.2-0.3,0c0,1.5,1.2,6.7-1.6,6C88.7,50,88.7,50.2,88.8,50.3"/>
		</g>
	</g>
</g>
<g>
	<g>
		<g>
			<defs>
				<rect id="SVGID_23_" x="7.2" y="-16.3" width="118.6" height="130.5"/>
			</defs>
			<clipPath id="SVGID_24_">
				<use xlink:href="#SVGID_23_"  style="overflow:visible;"/>
			</clipPath>
			<path class="st22" d="M96.6,31.2c-2,0-3.7,1.6-3.7,3.6s1.7,3.6,3.7,3.6s3.7-1.6,3.7-3.6C100.4,32.8,98.7,31.2,96.6,31.2
				 M98.1,37.1c-0.6,0-1-0.5-1-1c0-0.6,0.5-1,1-1s1,0.5,1,1C99.1,36.7,98.7,37.1,98.1,37.1"/>
		</g>
	</g>
</g>
<g>
	<g>
		<g>
			<defs>
				<rect id="SVGID_25_" x="7.2" y="-16.3" width="118.6" height="130.5"/>
			</defs>
			<clipPath id="SVGID_26_">
				<use xlink:href="#SVGID_25_"  style="overflow:visible;"/>
			</clipPath>
			<path class="st23" d="M91.1,35.4c-0.2-6.1-2.9-12.2-7.9-15.9c-2.3-1.7-4.7-2.9-7.5-3.8c-3.1-1.1-6.2-2.4-9.5-2.9
				c-3.6-0.7-7.2-0.6-10.6,0.9c-0.3,0.1,0,0.7,0.3,0.6c4-1.7,8.3-1.4,12.3-0.3c3.5,0.9,7.1,2.1,10.5,3.7c7,3.4,11.4,10.2,11.6,18
				C90.5,35.8,91.1,35.8,91.1,35.4"/>
		</g>
	</g>
</g>
<g>
	<g>
		<g>
			<defs>
				<rect id="SVGID_27_" x="7.2" y="-16.3" width="118.6" height="130.5"/>
			</defs>
			<clipPath id="SVGID_28_">
				<use xlink:href="#SVGID_27_"  style="overflow:visible;"/>
			</clipPath>
			<path class="st24" d="M30.2,45.5h-0.3c-0.1,0-0.1,0-0.2,0c-0.5,1.7-0.8,3.5-1.2,5.2c-0.9,3.5-1.6,7.1-2,10.7c0,0.1,0,0.1,0,0.2
				c0.2-0.1,0.5-0.1,0.6-0.1C27.5,56.1,29,50.8,30.2,45.5C30.4,45.5,30.2,45.5,30.2,45.5z"/>
		</g>
	</g>
</g>
<g>
	<g>
		<g>
			<defs>
				<rect id="SVGID_29_" x="7.2" y="-16.3" width="118.6" height="130.5"/>
			</defs>
			<clipPath id="SVGID_30_">
				<use xlink:href="#SVGID_29_"  style="overflow:visible;"/>
			</clipPath>
			<path class="st25" d="M55.8,13.4c-5.8,2-11.1,5.4-15.3,9.8c-4.6,4.9-7.5,10.5-9.4,17c-0.1,0.5-0.2,0.8-0.3,1.2
				c0.2,0.1,0.3,0.2,0.6,0.3c1.7-6.1,4.2-11.8,8.4-16.6c4.4-5.1,10-8.9,16.3-11.2C56.4,13.8,56.1,13.2,55.8,13.4z"/>
		</g>
	</g>
</g>
<g>
	<g>
		<g>
			<defs>
				<rect id="SVGID_31_" x="7.2" y="-16.3" width="118.6" height="130.5"/>
			</defs>
			<clipPath id="SVGID_32_">
				<use xlink:href="#SVGID_31_"  style="overflow:visible;"/>
			</clipPath>
			<path class="st26" d="M46.4,92.9c-3.2-0.7-6.6-1.5-9.4-3.1c-2.5-1.5-4.5-3.7-6-6.2c-3.2-5.5-4.5-12.3-4.3-18.8
				c-0.2-0.1-0.5-0.1-0.6-0.3C26,70.4,27,76.2,29.3,81.6c1.1,2.6,2.7,5.1,5,7c2.4,2,5.3,3.2,8.3,4c6.8,1.8,13.9,3.1,21,3.1V95
				C57.8,95,52.1,94.2,46.4,92.9z"/>
		</g>
	</g>
</g>
<g>
	<g>
		<g>
			<defs>
				<rect id="SVGID_33_" x="7.2" y="-16.3" width="118.6" height="130.5"/>
			</defs>
			<clipPath id="SVGID_34_">
				<use xlink:href="#SVGID_33_"  style="overflow:visible;"/>
			</clipPath>
			<path class="st27" d="M89.1,24.2c-0.7,0-1.4,0.1-2,0.2c0.1,0.1,0.1,0.2,0.2,0.3c0.6-0.1,1.2-0.1,1.8-0.1
				c6.2,0,11.2,4.9,11.2,10.9c0,5.3-4,9.8-9.3,10.7v0.2c5.4-0.9,9.6-5.5,9.6-11.1C100.6,29.2,95.4,24.2,89.1,24.2"/>
		</g>
	</g>
</g>
<path class="st9" d="M78.5,57.2L78.5,57.2c-0.1,0.2-0.1,0.5-0.1,0.8c3.7-0.2,7.4-1.5,10.9-2.9c0.5-0.2,0.2-0.9-0.2-0.7
	C85.7,55.8,82.1,57.1,78.5,57.2c-0.5,0.1-0.5,0.9,0,0.9h0.1C79,58,79,57.2,78.5,57.2L78.5,57.2z"/>
<path class="st9" d="M85.7,22.3c-1.6-2.5-4.7-2.8-7.5-3.2c-4.4-0.6-9-0.3-13.5,0.5c-7.5,1.4-15.3,5.3-18.8,12.3
	c-3.3,6.6-1,13.9,4.5,18.5c5.8,4.9,14.1,7,21.5,7.7c2.1,0.2,4.4,0.2,6.6,0c0.5,0,0.5-0.8,0-0.8c-12.4,1.2-37-5.2-33-22.2
	c1.8-7.8,9.6-12.4,16.9-14.4c4-1,8.1-1.2,12.2-1.2c3.2,0.1,8.4,0.1,10.3,3.1C85.2,23.1,85.9,22.6,85.7,22.3L85.7,22.3z"/>
<path class="st9" d="M89.4,54.9c0.7-1.5,1.2-2.9,1.5-4.6c0.1-0.5-0.7-0.7-0.7-0.2c-0.2,1.6-0.7,3.1-1.4,4.4
	C88.6,55,89.2,55.3,89.4,54.9L89.4,54.9z"/>
<path class="st9" d="M89.1,54.3c-0.6,0.1-0.7,1-0.8,1.5c-0.1,0.7-0.2,1.5-0.2,2.1c0,0.5,0.8,0.5,0.8,0s0-0.9,0.1-1.4
	c0-0.3,0.1-0.7,0.1-1c0-0.1,0.2-0.6,0.1-0.6C89.7,55,89.5,54.3,89.1,54.3L89.1,54.3z"/>
<path class="st9" d="M67.9,62.1c1.7,0.1,3.5,0,5.2-0.2c0.5-0.1,0.2-0.8-0.2-0.7c-1.7,0.2-3.3,0.2-5,0.2C67.5,61.3,67.5,62,67.9,62.1
	L67.9,62.1z"/>
<path class="st9" d="M28.8,50.5c11.1,4.9,22.3,9.7,34.4,11.2c0.5,0.1,0.5-0.7,0-0.8c-12-1.5-23.1-6.2-34-11.1
	C28.7,49.7,28.3,50.2,28.8,50.5L28.8,50.5z"/>
<path class="st9" d="M27.4,75.5c10.5,6,21.9,10.2,33.9,12.1c0.5,0.1,0.7-0.7,0.2-0.7C49.7,85,38.3,80.8,27.9,74.8
	C27.4,74.5,27,75.2,27.4,75.5L27.4,75.5z"/>
<path class="st9" d="M76.7,66.4c0,1.8,1.5,3.3,3.3,3.3s3.3-1.5,3.3-3.3s-1.5-3.3-3.3-3.3C78.2,63.1,76.7,64.6,76.7,66.4z M82,65
	c0,0.6-0.5,0.9-0.9,0.9c-0.6,0-0.9-0.5-0.9-0.9c0-0.6,0.5-0.9,0.9-0.9S82,64.6,82,65z"/>
<path class="st9" d="M98.8,67.4c0,1.8,1.5,3.3,3.3,3.3s3.3-1.5,3.3-3.3s-1.5-3.3-3.3-3.3S98.8,65.6,98.8,67.4z M104.1,66.2
	c0,0.6-0.5,0.9-0.9,0.9c-0.6,0-0.9-0.5-0.9-0.9c0-0.6,0.5-0.9,0.9-0.9C103.8,65.2,104.1,65.6,104.1,66.2z"/>
<path class="st9" d="M79.4,43.6C79.4,43.7,79.6,43.7,79.4,43.6c0.5,0.5,0.9-0.1,0.6-0.5c0,0,0,0-0.1-0.1
	C79.7,42.8,79.1,43.2,79.4,43.6L79.4,43.6z"/>
<path class="st9" d="M98,77.7c0.2-1.7-2-3.3-5-3.7c-2.9-0.5-5.5,0.6-5.9,2.3c-0.2,1.7,2,3.3,5,3.7C95.2,80.3,97.8,79.3,98,77.7z"/>
<path class="st9" d="M69.6,64.9c4.4-4.2,10.5-5.9,16.5-6.2c5.7-0.3,11.6,1.2,15.7,5.4c0.3,0.3,0.9-0.2,0.6-0.6
	c-4.2-4.4-10.3-5.9-16.2-5.7c-6.1,0.2-12.6,2.3-17.1,6.4C68.7,64.7,69.3,65.3,69.6,64.9L69.6,64.9z"/>
<path class="st9" d="M63,97.2c0.8-1.9,0.8-3.8,0.5-5.9c-0.2-1.1-0.7-2.3-0.9-3.4c-0.3-1.4-0.5-2.6-0.5-4c-0.2-5.1,1.2-10.1,3.8-14.4
	c0.2-0.5-0.5-0.8-0.7-0.3c-2.4,4.1-3.7,8.6-4,13.2c-0.1,2.3,0.2,4.5,0.8,6.7c0.3,1.2,0.8,2.4,0.9,3.6c0.1,1.4-0.1,2.8-0.7,4.1
	C62.1,97.4,62.9,97.6,63,97.2L63,97.2z"/>
<path class="st9" d="M97.1,70.5c0.2-3.1,2.6-5.3,5.4-6.3c3.2-1,6.2,0.2,8.3,2.8c1.6,2.1,1.2,5-0.3,7.1c-1.7,2.5-4.9,3.6-7.8,3.6
	c-0.5,0-0.5,0.8,0,0.8c3.3,0,6.4-1.4,8.5-4c1.9-2.5,1.9-5.7,0.1-8.1c-4.3-5.8-14.2-3.1-14.8,4.2C96.3,71,97,71,97.1,70.5L97.1,70.5z
	"/>
<path class="st9" d="M88.7,69.9c2.1-6.6-7.4-8.8-11.9-6.8c-2.8,1.4-4.2,4.3-3.7,7.4c0.5,3.2,2.9,5.7,6,6.6c0.5,0.1,0.7-0.6,0.2-0.7
	c-5.5-1.8-7.8-9.5-2-12.6c4-2,12.7,0.2,10.9,5.9C87.8,70.1,88.6,70.4,88.7,69.9L88.7,69.9z"/>
<path class="st9" d="M66,71.2c-0.9,2.4-1.8,7.2,1.6,8.1c2.9,0.8,4.7-2.8,4.5-5.2c0-0.5-0.8-0.5-0.8,0c0.1,2.1-1.6,5.8-4.2,4.2
	c-2.3-1.4-1.2-5.1-0.6-7C66.9,70.8,66.1,70.7,66,71.2L66,71.2z"/>
<path class="st9" d="M74.7,73c6,2.8,14-1.9,12-8.9c-0.1-0.5-0.9-0.2-0.7,0.2c1.8,6.3-5.4,10.6-10.9,8.1C74.6,72.1,74.2,72.7,74.7,73
	L74.7,73z"/>
<path class="st9" d="M101.2,76.1c4.5-0.1,12.9-6.8,8.1-11.3c-0.3-0.3-0.9,0.2-0.6,0.6c4.2,4-3.7,10-7.6,10.1
	C100.7,75.3,100.7,76.1,101.2,76.1L101.2,76.1z"/>
<path class="st9" d="M88.9,78.5c-0.6,4.4-10,11-10.7,3.5c-0.3-3.4,2.8-6.7,5.1-8.7c2.8-2.6,6.3-3.8,10.2-3.1
	c3.4,0.7,6.3,3.4,7.4,6.7c0.6,2,0.8,4.2,0.7,6.2c0,1.6-0.3,4.5-2.3,5c-1.1,0.2-2.6-0.7-3.4-1.5c-1.6-1.4-1.6-3.7-1.5-5.7
	c0-0.5,0.1-0.9,0.2-1.4s-0.7-0.7-0.7-0.2c-0.5,2.7-0.5,6,1.8,7.9c1.2,1,3.2,1.9,4.6,1s1.7-2.8,1.8-4.3c0.2-2,0-4.2-0.3-6.2
	c-1.1-5.5-6.6-9.4-12.2-8.5c-3.2,0.5-5.5,2-7.8,4.3c-2,1.9-4.2,4.5-4.4,7.5c-0.3,3.4,2.1,6,5.5,5c2.9-0.9,6.2-4.1,6.7-7.2
	C89.7,78.2,89.1,77.9,88.9,78.5L88.9,78.5z"/>
<path class="st9" d="M85.9,83.7c1.4,2.9,6.4,5.9,9.2,2.9c0.3-0.3-0.2-0.9-0.6-0.6c-2.4,2.6-6.8-0.3-7.9-2.8
	C86.3,82.9,85.7,83.4,85.9,83.7L85.9,83.7z"/>
<path class="st9" d="M109.2,76.9c2.5,4.1,1.4,9.2-0.1,13.3c-1.5,4.3-3.7,8.5-6.6,12.1c-6.6,8.1-17,14.1-27.3,15.8
	c-0.5,0.1-0.2,0.8,0.2,0.7c10.7-1.8,21.5-8.1,28.2-16.7c2.8-3.7,5.1-8.1,6.6-12.6c1.4-4.2,2.1-9.2-0.2-13.1
	C109.5,76,109,76.5,109.2,76.9L109.2,76.9z"/>
<path class="st9" d="M34.3,114.7c4.9,3.5,11.1,4.3,16.9,4.5c6.1,0.2,12.3-0.3,18.4-0.2c0.5,0,0.5-0.8,0-0.8
	c-5.9-0.1-11.8,0.5-17.5,0.2c-6-0.1-12.4-0.9-17.4-4.5C34.3,113.8,33.9,114.5,34.3,114.7L34.3,114.7z"/>
<path class="st9" d="M27.1,128.3c4.1-2.7,5.5-9.4,3.6-13.8c-1.2-2.9-3.8-5-6.3-6.9c-2.6-2-4.6-4.3-6.1-7.2c-2.4-4.7-3.2-10.4-2-15.6
	c1.2-5.7,5.4-9.7,11-11.1c0.5-0.1,0.2-0.9-0.2-0.7c-4.7,1.2-8.8,4.3-10.6,8.9c-1.9,4.7-1.8,10-0.3,14.8c0.7,2.4,1.7,4.6,3.1,6.7
	c1.9,2.9,5,4.9,7.6,7.2s4.1,5,4.1,8.6c0,3.2-1.2,6.8-4,8.7C26.3,127.9,26.6,128.6,27.1,128.3L27.1,128.3z"/>
<path class="st9" d="M18.4,78.5c-1.6-2-2.3-4.9-3.3-7.1c-0.7-1.5-1.9-2.6-3.2-0.8c-1.2,1.8-0.5,4.4,0.2,6.3s1.9,4.3,3.7,5.5
	c0.5,0.2,0.8-0.3,0.3-0.7c-1.5-1-2.4-2.9-3.2-4.5c-0.8-1.7-1.7-4.3-0.7-6.1c0.1-0.2,0.8-1,1.1-0.8s0.5,0.6,0.7,0.9
	c0.6,0.9,0.9,1.9,1.4,2.8c0.7,1.6,1.2,3.5,2.4,4.9C18.1,79.5,18.7,79,18.4,78.5L18.4,78.5z"/>
<path class="st9" d="M41.2,117.4c0.7,4.1,0.5,8.4,0.5,12.4c0,0.5,0.8,0.5,0.8,0c0-4.2,0.2-8.5-0.5-12.7
	C41.9,116.7,41.1,116.8,41.2,117.4L41.2,117.4z"/>
<path class="st9" d="M45.7,118.3c0.7,3.5,0.2,7,0.5,10.6c0,0.5,0.8,0.5,0.8,0c-0.2-3.6,0.2-7.2-0.5-10.7
	C46.4,117.6,45.6,117.9,45.7,118.3L45.7,118.3z"/>
<path class="st9" d="M70.4,113.9c0,5.4-0.2,11-0.2,16.4c0,0.5,0.8,0.5,0.8,0c0-5.4,0.2-11,0.2-16.4
	C71.2,113.5,70.4,113.5,70.4,113.9L70.4,113.9z"/>
<path class="st9" d="M74.7,113.3c0.9,5.1-0.5,10.2,0.5,15.2c0.1,0.5,0.8,0.2,0.7-0.2c-0.9-5.1,0.5-10.2-0.5-15.2
	C75.4,112.7,74.6,112.9,74.7,113.3L74.7,113.3z"/>
<path class="st9" d="M106,98.5c2.4,0.1,4.7,0.6,6.9-0.3c2.6-1.1,3.2-4.5,3.5-7.1c1-7.8,0.8-15.7,1.6-23.5c0-0.5-0.7-0.5-0.8,0
	c-0.7,6.4-0.8,12.9-1.2,19.5c-0.2,3.2-0.1,7.6-2.6,10c-1.9,1.8-5.1,1-7.5,0.9C105.5,97.7,105.5,98.5,106,98.5L106,98.5z"/>
<path class="st9" d="M102.4,104c3.4,0.5,6.9,0.6,10.2-0.9c3.5-1.6,5.4-5.2,6.7-8.6c1.5-3.8,1.9-8.1,2.4-12.2
	c0.5-5.1,0.6-10.3,0.3-15.4c0-0.5-0.8-0.5-0.8,0c0.3,8.5,0.2,17.3-2,25.6c-1,3.7-2.8,7.6-6.2,9.7c-3.2,1.8-7.1,1.7-10.5,1.2
	C102,103,102,103.8,102.4,104L102.4,104z"/>
<path class="st9" d="M103.1,31.9c5.3-1.2,11.6-2.3,16.2,1.8c3.8,3.5,4.4,9.6,5.1,14.5c0.5,4,0.3,9.3-4.9,9c-1.8-0.1-4.9-0.9-4.4-3.3
	c0.6-2.9,4.6-1.4,6.1-0.2c0.3,0.3,0.9-0.2,0.6-0.6c-1.5-1.1-4.2-2.4-6-1.4s-1.9,3.5-0.3,4.7c1.5,1.2,4,1.6,5.9,1.2
	c2.5-0.3,3.6-2.6,4-4.9c0.3-2.5-0.1-5-0.5-7.5c-0.6-3.6-1.2-7.1-3.2-10.3c-4.1-6.4-12.2-5.7-18.5-4.2
	C102.4,31.2,102.5,32,103.1,31.9L103.1,31.9z"/>
<path class="st9" d="M119,52.3c2.6-4.9,2.8-11.8-1.4-15.8s-10.5-2.1-15.4-0.8c-0.5,0.1-0.2,0.9,0.2,0.7c4.7-1.2,10.1-3.1,14.4,0.3
	c4.4,3.5,4,10.6,1.6,15.2C118.1,52.3,118.8,52.6,119,52.3L119,52.3z"/>
<path class="st9" d="M99.9,31.2c0.8-0.3,1.6-0.6,2.5-0.7c0.5-0.1,1.2-0.1,1.6-0.5c0.3-0.3-0.1-0.9-0.6-0.6c-1,0.9-3.6,8.8-1.6,8.7
	c0-0.2-0.1-0.5-0.1-0.8c-0.3,0.1-0.7,0.1-1,0c-0.5,0-0.5,0.7,0,0.8c0.5,0,0.8,0,1.2-0.1c0.5-0.1,0.3-0.8-0.1-0.8
	c-0.3,0,0.7-3.7,0.8-4c0.3-0.9,0.7-2.7,1.4-3.4c-0.2-0.2-0.3-0.3-0.6-0.6c-0.2,0.3-1.8,0.3-2.1,0.5c-0.6,0.1-1.1,0.3-1.7,0.6
	C99.1,30.8,99.5,31.5,99.9,31.2L99.9,31.2z"/>
<path class="st9" d="M130.7,50.1c1.6-0.7,3.1-1.5,4.5-2.4c0.5-0.2,0-0.9-0.3-0.7c-1.5,0.9-3.1,1.7-4.5,2.4
	C129.9,49.7,130.2,50.3,130.7,50.1L130.7,50.1z"/>
<path class="st9" d="M130.9,55.8c1.6,0,3.2,0.2,4.7,0.6c0.5,0.1,0.7-0.7,0.2-0.7c-1.6-0.3-3.3-0.6-5-0.6
	C130.5,55,130.5,55.8,130.9,55.8L130.9,55.8z"/>
<path class="st9" d="M130.1,62.3c0.9,1.4,2,2.5,3.4,3.5c0.3,0.3,0.9-0.2,0.6-0.6c-1.2-0.9-2.4-2-3.3-3.3
	C130.5,61.5,129.8,61.9,130.1,62.3L130.1,62.3z"/>
<path class="st9" d="M112.7,51.1c-1.1-1.1-2.3-2.1-3.3-3.3c-0.3-0.3-0.8,0.1-0.6,0.6c0.9,1.2,2.1,2.3,3.3,3.3
	C112.6,52,113,51.5,112.7,51.1L112.7,51.1z"/>
<path class="st9" d="M111.9,56.6c-1.8,0.5-3.5,0.6-5.3,0.5c-0.5,0-0.5,0.7,0,0.8c1.9,0.1,3.7,0,5.5-0.5
	C112.6,57.1,112.4,56.3,111.9,56.6L111.9,56.6z"/>
<path class="st9" d="M79.3,43c-3.8,0.7,1.7,7.1,2.7,8c1.2,1.2,3.4,2.8,5.3,2.4c1.1-0.2,3.1-1.6,3.3-2.8c0-0.5-0.7-0.5-0.8,0
	c0,0.2-0.8,0.9-0.9,1c-0.6,0.6-1.2,1-2,1.1c-1.6,0.1-3.2-1.2-4.2-2.1c-0.6-0.6-5.5-6.3-3.1-6.8C80,43.7,79.8,42.9,79.3,43L79.3,43z"
	/>
<path class="st9" d="M88.2,81.2c1.1,2.3,3.8,1.8,5.7,0.8c0.5-0.2,0-0.9-0.3-0.7c-1.5,0.8-3.7,1.4-4.6-0.5
	C88.6,80.3,87.9,80.8,88.2,81.2L88.2,81.2z"/>
<path class="st9" d="M88.3,81.7c-0.8,0.9-1.2,2.6,0,3.4c1.4,0.9,2.4-0.6,2.7-1.8c-0.2,0-0.5-0.1-0.8-0.1c-0.1,1.2,0.2,3.4,2,2.8
	c1.6-0.6,2.1-2.5,2-4c0-0.5-0.8-0.5-0.8,0c0.1,1.1-0.2,2.4-1.2,3.1c-1.2,1-1.4-1-1.4-1.9c0-0.5-0.7-0.5-0.8-0.1
	c-0.2,0.7-0.8,2-1.7,1.2c-0.7-0.6-0.3-1.6,0.2-2.1C89.1,81.8,88.5,81.2,88.3,81.7L88.3,81.7z"/>
<path class="st9" d="M51.4,94.5c0.5,1.8,1.9,3.7,3.8,4c0.6,0.1,1.1-0.2,1.4-0.8c0.2-0.9-0.5-1.8-0.9-2.5c-0.3-0.3-0.9,0-0.7,0.3
	c0.5,0.6,1.6,2.5,0,2.1c-1.6-0.3-2.6-1.9-2.9-3.4C52,93.8,51.3,94,51.4,94.5L51.4,94.5z"/>
<path class="st9" d="M33.5,113.9c1.4,5.9-0.1,11.3-2.4,16.7c-0.2,0.5,0.6,0.7,0.7,0.2c2.4-5.5,3.8-11.2,2.4-17.2
	C34.1,113.2,33.4,113.3,33.5,113.9L33.5,113.9z"/>
<path class="st9" d="M26,128.6c-0.2,1.8,0,3.7,1.5,5c1,0.9,2.5,1.4,4,1.1c1-0.1,2.1-0.6,2.5-1.6c0.5-1.4-1.2-2.5-2.1-3.1
	c-0.5-0.2-0.8,0.5-0.3,0.7c0.7,0.3,2.1,1.2,1.8,2.3c-0.3,0.8-1.5,1-2.3,1c-1.1,0-2.1-0.3-3.1-1c-1.2-1.1-1.2-2.8-1.1-4.4
	C26.7,128.2,26,128.2,26,128.6L26,128.6z"/>
<path class="st9" d="M41.7,129.7c-0.2,1.7-0.2,3.8,1.7,4.4c1.6,0.5,3.4-0.5,4.7-1.2c1.1-0.7,2.7-1.9,2.7-3.4c0.1-1.8-2.8-1.7-4-1.6
	c-0.1,0-0.2,0-0.3,0c-0.5,0-0.5,0.8,0,0.8c0.7-0.1,3.6-0.5,3.5,0.9c-0.1,1.1-1.6,2.1-2.4,2.6c-1.1,0.7-2.6,1.5-4,1.2
	c-1.7-0.2-1.6-2.3-1.4-3.5C42.5,129.5,41.8,129.3,41.7,129.7L41.7,129.7z"/>
<path class="st9" d="M70.5,130.9c0.6,3.2,4.2,3.3,6.6,2c1-0.5,2-1.4,2.1-2.6c0.2-1.5-1.6-2.5-2.7-2.9c-0.5-0.2-0.8,0.5-0.3,0.7
	c0.9,0.5,2.4,1.1,2.3,2.4c0,0.9-1.1,1.6-1.9,1.9c-1.9,0.9-4.9,0.8-5.3-1.7C71.2,130.2,70.4,130.4,70.5,130.9L70.5,130.9z"/>
<path class="st9" d="M64.5,68.9c0.5-2.1,1.7-4,3.7-4.9c0.5-0.2,0.1-0.9-0.3-0.7c-2.1,1-3.5,3.1-4.1,5.3
	C63.7,69.1,64.4,69.3,64.5,68.9L64.5,68.9z"/>
<path class="st9" d="M68.2,63.1c-0.7-0.3-1.4-0.6-2-0.7c-0.5-0.1-0.5,0.7,0,0.8c0.6,0.1,1.1,0.3,1.7,0.6
	C68.2,64,68.6,63.4,68.2,63.1L68.2,63.1z"/>
<path class="st9" d="M64.1,68.4c-0.5-0.2-0.6-0.8-0.9-1.1c-0.2-0.5-0.9,0-0.7,0.3c0.3,0.6,0.6,1.1,1.1,1.5
	C64.2,69.3,64.5,68.7,64.1,68.4L64.1,68.4z"/>
<path class="st9" d="M64.3,68.1c1.1,0.9,2.5,1.8,3.8,2.1c0.9,0.2,1.9,0.2,2.6-0.3c2.1-1.7-1.5-4.9-2.6-5.8c-0.3-0.3-0.9,0.2-0.6,0.6
	c1,0.8,2.1,1.8,2.7,2.9c0.3,0.6,0.5,1.4-0.1,1.8s-1.6,0.2-2.3,0.1c-1.2-0.3-2.3-1-3.3-1.8C64.4,67.2,63.8,67.8,64.3,68.1L64.3,68.1z
	"/>
<path class="st9" d="M71,69.2c-0.6-0.9-1.4-1.6-2.1-2.3c-0.3-0.3-0.9,0.2-0.6,0.6c0.8,0.7,1.6,1.2,2,2.1C70.6,70,71.3,69.7,71,69.2
	L71,69.2z"/>
<path class="st9" d="M56.1,98.3c0.8-0.1,1.8-0.5,2.1-1.2c0.3-0.8,0-1.6-0.5-2.3c-0.2-0.5-0.9,0-0.7,0.3c0.2,0.5,0.6,1.1,0.3,1.6
	c-0.2,0.6-1.1,0.8-1.7,0.8C55.5,97.7,55.7,98.4,56.1,98.3L56.1,98.3z"/>
<path class="st9" d="M84.4,49.9c-0.6,0.2-1,0.7-1.5,1L81.6,50l-1.9-2.6l-0.9-2v-1.2l0.8-0.8H80l0.9,1l1,0.5l1.2,0.2h1.4l-0.2,2.4
	L84.4,49.9z"/>
<path class="st9" d="M121.9,67c1.4-1.9,1.2-5.4,0.5-7.6c-0.8-2.4-3.7-3.1-6-2.3c-1.8,0.7-3.4,4-1.4,5.2c1.8,1.1,4.5-0.2,5.3-2
	c0.2-0.5-0.5-0.8-0.7-0.3c-0.6,1.4-2.6,2.6-4.1,1.9c-1.2-0.6-0.7-2.5-0.1-3.2c0.7-0.8,1.7-1,2.7-1.1c2.5-0.1,3.5,1.8,3.7,4
	c0.1,1.6,0.1,3.7-0.8,5.1C121,67,121.6,67.3,121.9,67L121.9,67z"/>
<path class="st9" d="M116.1,62.1c-0.6,2.7,0.1,5.1,2.3,6.8c0.3,0.3,0.8-0.3,0.3-0.7c-1.9-1.5-2.5-3.6-1.9-6
	C116.9,61.9,116.2,61.7,116.1,62.1L116.1,62.1z"/>
<path class="st9" d="M116.7,52c-0.6,1.7,0.3,3.2,2,3.5c0.5,0.1,0.7-0.7,0.2-0.7c-1.4-0.2-1.9-1.2-1.6-2.6
	C117.6,51.8,116.8,51.6,116.7,52L116.7,52z"/>
<path class="st9" d="M101.8,38.4c0.8,0,1.6-0.8,1.6-1.6c0-0.5-0.8-0.5-0.8,0s-0.5,0.8-0.8,0.8C101.4,37.6,101.4,38.4,101.8,38.4
	L101.8,38.4z"/>
<path class="st9" d="M103.4,30.7c0.3,0.3,0.6,0.6,0.9,0.9s0.9-0.2,0.6-0.6c-0.3-0.3-0.6-0.6-0.9-0.9
	C103.6,29.8,103.1,30.2,103.4,30.7L103.4,30.7z"/>
<path class="st9" d="M64,69.6c0.8,0,1.5-0.5,1.8-1.1c0.2-0.5-0.5-0.8-0.7-0.3s-0.7,0.7-1.2,0.7C63.5,68.8,63.5,69.6,64,69.6L64,69.6
	z"/>
<path class="st9" d="M102.5,37C102.5,36.9,102.5,36.9,102.5,37c-0.1,0-0.2,0.1-0.2,0.1l0,0c-0.1,0-0.2-0.1-0.3-0.1
	c0-0.1-0.1-0.1,0,0c0,0.1,0,0.1,0,0.2s0,0.3-0.1,0.5c-0.2,0.5,0.5,0.8,0.7,0.3c0.3-0.6,0.7-1.2,1.1-1.7c0.3-0.3-0.2-0.9-0.6-0.6
	c-0.6,0.6-0.9,1.2-1.2,1.9c0.2,0.1,0.5,0.2,0.7,0.3c0.2-0.5,0.3-1,0.1-1.5c-0.1-0.2-0.2-0.2-0.5-0.2s-0.3,0.3-0.3,0.6
	C101.7,37.6,102.5,37.6,102.5,37L102.5,37z"/>
<path class="st9" d="M102.4,36.4c0,0.1,0,0.3,0.1,0.3c0.2,0.2,0.6,0.1,0.8-0.1c0.3-0.3-0.2-0.9-0.6-0.6c-0.1,0.1,0,0-0.1,0
	c0.1-0.1,0.3,0,0.3,0.1s0,0.1,0,0c0,0.1,0,0.1,0,0.1C103.2,36,102.4,35.9,102.4,36.4L102.4,36.4z"/>
<path class="st9" d="M67.9,63.7L67.9,63.7L67.9,63.7C68,63.8,67.9,63.7,67.9,63.7c0.1,0.1,0.1,0.2,0.2,0.2l0,0c0,0.1,0,0,0,0.1
	c0,0.2,0.1,0.3,0.3,0.3c0.2,0,0.3-0.2,0.3-0.3c0-0.3-0.2-0.7-0.5-0.9C68.1,62.8,67.6,63.4,67.9,63.7L67.9,63.7z"/>
<path class="st9" d="M33.6,32.7c-8.4,1-16.3,6-17.4,14.9c-0.9,7.2,1.7,17.1,9.4,19.5c0.5,0.1,0.7-0.6,0.2-0.7
	c-7.5-2.3-9.5-11.6-8.9-18.4c0.8-8.7,8.7-13.6,16.7-14.6C34.1,33.4,34.1,32.6,33.6,32.7L33.6,32.7z"/>
<path class="st9" d="M17.5,43.3c2.4,4.5,5.2,8.6,10.6,9.3c0.5,0.1,0.5-0.7,0-0.8c-5.1-0.7-7.7-4.7-10-8.9
	C17.9,42.4,17.2,42.9,17.5,43.3L17.5,43.3z"/>
<path class="st9" d="M27.9,39.4c6.6,6.8,15.8,11.1,24.3,15c2.8,1.2,5.8,2.3,8.6,3.5c1.8,0.8,7.2,2.9,6.6,5.7
	c-0.1,0.5,0.6,0.7,0.7,0.2c0.7-2.5-2.6-4.3-4.4-5.3c-3.1-1.7-6.3-2.8-9.6-4.2c-4.4-1.7-8.7-4.1-12.8-6.3c-4.5-2.5-9-5.4-12.7-9.2
	C28.1,38.5,27.5,39,27.9,39.4L27.9,39.4z"/>
<path class="st9" d="M66.2,62.4c-6.8-4.7-14.7-7.2-22.2-10.6c-6-2.7-12-5.5-17.9-8.5c-0.5-0.2-0.8,0.5-0.3,0.7
	c5.8,2.8,11.4,5.8,17.4,8.3c7.7,3.3,15.8,6,22.6,10.9C66.3,63.5,66.7,62.8,66.2,62.4L66.2,62.4z"/>
<path class="st9" d="M62.5,66.7c-2.6,1.4-5.9,1-8.7,0.7c-3.2-0.3-6.4-0.9-9.6-1.4c-7.4-1-14.7-3.2-21-7.2c-0.5-0.2-0.8,0.3-0.3,0.7
	c6.6,4.2,14,6.3,21.7,7.4c3.3,0.5,6.4,1,9.7,1.4c2.8,0.3,6,0.5,8.7-0.9C63.4,67.2,62.9,66.5,62.5,66.7L62.5,66.7z"/>
<path class="st9" d="M62.8,67.6c-3.4,2.3-8,1.7-11.9,1c-3.1-0.5-6.1-1.2-9.3-1.6s-6.4-0.7-9.6-1.2c-2.3-0.3-5.8-0.8-7.4-2.6
	c-0.3-0.3-0.9,0.1-0.6,0.6c1.6,1.8,4.7,2.3,6.9,2.7c3.4,0.7,6.8,1,10.3,1.5c3.6,0.5,7.1,1.4,10.7,1.8c3.6,0.6,7.9,0.8,11.1-1.4
	C63.6,68,63.3,67.4,62.8,67.6L62.8,67.6z"/>
<path class="st9" d="M22.7,58.9c0.1,0.2,0.2,0.6,0.6,0.5c0.2-0.1,0.3-0.3,0.3-0.6c0.1-0.3,0.1-0.6,0.1-0.9c0-0.1,0-0.3,0.1-0.5
	c0-0.1,0-0.1,0-0.2c0,0,0-0.1,0,0c0.3-0.3-0.2-0.9-0.6-0.6c-0.2,0.3-0.3,0.8-0.3,1.1c0,0.2-0.1,0.5-0.1,0.7c0,0.1,0,0.1,0,0.2l0,0
	c0.1-0.2,0.2-0.2,0.6,0c0-0.1,0,0,0-0.1C23.2,58.3,22.4,58.5,22.7,58.9L22.7,58.9z"/>
<path class="st9" d="M25.5,43.4c-0.5,0.5-0.7,1.1-0.7,1.8c0,0.5,0.8,0.5,0.8,0s0.2-0.9,0.5-1.2C26.3,43.6,25.7,43.1,25.5,43.4
	L25.5,43.4z"/>
<path class="st9" d="M28.6,38.8c0-0.5,0.2-0.7,0.5-0.9c0.3-0.3-0.2-0.9-0.6-0.6c-0.5,0.5-0.7,0.9-0.7,1.5S28.6,39.4,28.6,38.8
	L28.6,38.8z"/>
<path class="st9" d="M23.8,63.1c0,0.9,0.1,1.7,0.7,2.4c0.3,0.3,0.9-0.2,0.6-0.6c-0.5-0.5-0.5-1.2-0.5-1.8
	C24.6,62.7,23.8,62.7,23.8,63.1L23.8,63.1z"/>
<path class="st9" d="M62.3,67.1c0.2,0.1,0.5,0.2,0.8,0.1c0.2-0.1,0.2-0.5,0.1-0.7c-0.1-0.5-0.5-0.9-0.8-1.2
	c-0.3-0.3-0.9,0.2-0.6,0.6c0.1,0.1,0.1,0.1,0.2,0.2c0.1,0.1,0.2,0.3,0.2,0.5c0.1,0.1,0.1,0.2,0.1,0.3c0-0.1,0-0.1,0,0
	c0-0.2,0.2-0.3,0.3-0.3c-0.1,0,0.1,0,0,0c0,0-0.1,0-0.1-0.1C62.3,66.2,61.8,66.9,62.3,67.1L62.3,67.1z"/>
<path class="st9" d="M61.4,66c0.1,0,0.3-0.1,0.5-0.1c0,0,0.2,0,0.1,0c-0.1-0.1-0.2-0.1-0.3-0.2l0,0c0-0.2,0.1-0.3,0.1-0.6
	c0.2-0.1,0,0-0.1,0s-0.2,0.1-0.3,0.1c-0.3,0.1-0.7,0.2-1,0.3c-0.5,0.1-0.2,0.9,0.2,0.7C60.8,66.1,61,66,61.4,66
	c0.3,0,0.6-0.1,0.7-0.1c0.2-0.1,0.2-0.3,0.1-0.6l0,0C62,65.2,61.9,65,61.8,65c-0.2,0-0.5,0.1-0.8,0.1c-0.2,0-0.3,0.2-0.2,0.5
	C60.9,65.8,61.1,66,61.4,66L61.4,66z"/>
<path class="st9" d="M86.7,83.3c1.1,3.1,5.3,5.8,8.3,3.2c0.3-0.3-0.2-0.9-0.6-0.6c-2.4,2.1-6-0.3-6.9-2.8
	C87.1,82.6,86.5,82.8,86.7,83.3L86.7,83.3z"/>
<path class="st9" d="M87.2,82.5c-0.1,0.3-0.3,0.7-0.3,1c-0.1,0.3,0,0.8,0.1,1.1c0.2-0.1,0.5-0.2,0.7-0.3c-0.2-0.2-0.5-0.6-0.6-0.8
	c-0.2-0.5-0.9,0-0.7,0.3c0.2,0.3,0.5,0.7,0.7,1c0.2,0.2,0.8,0,0.7-0.3c-0.1-0.2-0.1-0.5-0.1-0.7c0-0.3,0.2-0.6,0.3-0.8
	C88.2,82.5,87.5,82,87.2,82.5L87.2,82.5z"/>
<path class="st9" d="M88.6,85.6c0.8,0.5,1.8-0.2,2.1-1c0.2-0.5-0.6-0.7-0.7-0.2c-0.1,0.3-0.7,0.7-1,0.6
	C88.6,84.7,88.2,85.4,88.6,85.6L88.6,85.6z"/>
<path class="st9" d="M89.6,86.2c0.5-0.1,0.9-0.3,1.2-0.7c0.3-0.3-0.2-0.9-0.6-0.6c-0.2,0.2-0.6,0.5-0.9,0.6
	C88.9,85.6,89.1,86.3,89.6,86.2L89.6,86.2z"/>
<path class="st9" d="M90,86.5c0.5-0.2,0.8-0.5,1.1-0.8c0.3-0.3-0.2-0.9-0.6-0.6c-0.2,0.2-0.6,0.5-0.8,0.6c-0.1,0.2-0.2,0.3-0.2,0.6
	C89.6,86.5,89.8,86.6,90,86.5L90,86.5z"/>
<path class="st9" d="M90.6,86.9c0.3-0.2,0.6-0.5,0.8-0.7c0.1-0.1,0.2-0.3,0.1-0.6c-0.1-0.1-0.3-0.2-0.6-0.1
	c-0.3,0.2-0.6,0.5-0.8,0.7C89.8,86.4,90.2,87.1,90.6,86.9L90.6,86.9z"/>
<path class="st9" d="M91.4,86.9c0.2-0.2,0.5-0.6,0.8-0.7c0.5-0.2,0-0.9-0.3-0.7c-0.5,0.2-0.8,0.6-1,1c-0.1,0.1,0,0.5,0.1,0.6
	C91.1,87.2,91.3,87.1,91.4,86.9L91.4,86.9z"/>
<path class="st9" d="M91.8,87c0.5-0.3,0.9-0.7,1.4-1.1c0.3-0.5,0.7-0.9,1-1.4c0.3-0.3-0.2-0.9-0.6-0.6c-0.3,0.3-0.6,0.9-0.9,1.2
	c-0.3,0.5-0.8,0.9-1.2,1.1C91,86.6,91.3,87.3,91.8,87L91.8,87z"/>
<path class="st9" d="M92.3,87.1c0.9-0.5,1.2-1.5,1.9-2.1c0.3-0.3-0.2-0.9-0.6-0.6c-0.6,0.7-1,1.6-1.8,2C91.5,86.6,92,87.3,92.3,87.1
	L92.3,87.1z"/>
<path class="st9" d="M93.5,87c0.1-0.2,0.3-0.5,0.5-0.7s0.3-0.6,0.6-0.9c0.3-0.3-0.2-0.9-0.6-0.6c-0.2,0.3-0.5,0.7-0.7,1
	c-0.2,0.2-0.5,0.5-0.6,0.8C92.6,87.2,93.2,87.4,93.5,87L93.5,87z"/>
<path class="st9" d="M93.9,86.9c0.3-0.2,0.5-0.7,0.8-0.9c0.3-0.3-0.2-0.9-0.6-0.6s-0.5,0.7-0.8,0.9C93,86.6,93.6,87.2,93.9,86.9
	L93.9,86.9z"/>
<path class="st9" d="M86,88.7c1.9,3.8,5.8,3.4,9,1.6c0.2-0.1,0-0.5-0.2-0.3c-3.2,1.7-6.7,2.3-8.5-1.5C86.2,88.3,85.9,88.5,86,88.7
	L86,88.7z"/>
<path class="st9" d="M106.7,52.6c1.8,0.6,3.6,1.2,5.4,1.8c0.5,0.1,0.7-0.6,0.2-0.7c-1.8-0.6-3.6-1.2-5.4-1.8
	C106.5,51.7,106.2,52.4,106.7,52.6L106.7,52.6z"/>
<g id="Layer_5">
	<g>
		<path class="st28" d="M87.6,83c0,0,0.2,3.2,2.7,1.5l0.8,0.9c0,0,0.8,1.2,2.6-1.4l0.8,2c0,0-2.8,3.7-8-2.3L87.6,83z"/>
	</g>
	<g>
		<path class="st28" d="M82.7,50.7l1.6-1.4c0,0-0.6-1,0-4c0,0-3.4,0.6-4.4-1.8c0,0-2.3-0.1-0.8,2.6L82.7,50.7z"/>
	</g>
</g>
</svg>
