<?xml version="1.0" encoding="utf-8"?>
<!-- Generator: Adobe Illustrator 24.0.1, SVG Export Plug-In . SVG Version: 6.00 Build 0)  -->
<svg version="1.1" id="Layer_1" xmlns="http://www.w3.org/2000/svg" xmlns:xlink="http://www.w3.org/1999/xlink" x="0px" y="0px"
	 viewBox="0 0 141.7 141.7" style="enable-background:new 0 0 141.7 141.7;" xml:space="preserve">
<style type="text/css">
	.st0{fill:#F8DDD9;}
	.st1{fill:#75CEEB;}
	.st2{fill:#FFFFFF;}
	.st3{fill:#F3B555;}
	.st4{fill:#C9B09D;}
	.st5{fill:#4AA0D5;}
	.st6{fill:#ACD2A5;}
	.st7{fill:#79AE55;}
	.st8{fill:#3372AD;}
	.st9{fill:#070707;}
	.st10{fill:#D38E94;}
	.st11{clip-path:url(#SVGID_2_);fill:#070707;stroke:#070707;stroke-width:0.2325;stroke-miterlimit:10;}
	.st12{clip-path:url(#SVGID_2_);fill:#070707;}
	.st13{clip-path:url(#SVGID_2_);fill:none;stroke:#070707;stroke-width:0.4649;stroke-miterlimit:10;}
	.st14{fill:#C3403D;}
</style>
<g id="Layer_7">
</g>
<g id="Layer_7_2_">
</g>
<g id="Layer_7_3_">
</g>
<g id="Layer_8">
</g>
<g id="Layer_7_1_">
</g>
<g id="Layer_10">
</g>
<path class="st0" d="M54.8,34l0.8-2.1l1.7-3.2l1.8-1.8l2.5-2.2l2.3-1.6c0,0,2.7-1.4,2.8-1.5c0.1-0.1,4-1.5,4-1.5l4-0.9l3.5-0.5
	l3.1-0.2h3.8l3.8,0.4l2.6,0.5l1.7,0.3l1.3,1.1l0.9,0.5l1.3,1.2l0.9,1.5l1,1.8l0.7,1.6l0.7,1.9l0.7,2.1l0.4,1.5v1.4l-0.8,1.4l0.3,2.2
	l1.1,0.9l-0.6,5l-0.3,7.5l-0.7,1.4l-0.7,2l-0.7,0.5l-3.2,1l-3.1,0.9l-3.1,0.5l-3,0.4L83,58.2l-4-0.7l-5.3-1L70,55.3l-4.5-1.8
	l-3.3-1.8l-2.6-1.9l-1.6-1.6l-1.5-1.9l-1.2-2.3l-0.6-1.7l-0.6-2.1v-2.8v-1.9L54.8,34z"/>
<path class="st1" d="M50.7,22.6"/>
<path class="st2" d="M49.4,21.4c0,0-1.4-1.2-1.3-1.1c0.1,0.1-0.9-1.3-0.9-1.3l-0.5-1.2l-0.1-1.1l0.1-1.1l0.5-1.2l0.9-1.1l0.7-0.5
	l1.1-0.7l1.2-0.6h1.3l1.3-0.2l1.4,0.4l1.3,0.2c0,0,1.1,0.4,1.1,0.4c0,0.1,0.9,0.4,1,0.5c0,0.1,0.7,0.6,0.7,0.6l0.5,0.7l0.2,0.6v0.4
	l-0.5,0.4l-1.3,0.7l-1.4,1l-1.6,1.2l-1.4,1l-1.3,1.1l-1.1,1.1l-0.7,0.6l-0.8-0.6L49.4,21.4z"/>
<path class="st2" d="M65.4,12.9l0.1-1l0.4-1l0.6-1.4l0.6-1.4L68,7l1.1-0.8l0.8-0.3h1l1.2,0.2L73,6.5l0.7,0.6l0.6,1.1
	c0,0,0.1,0.7,0.2,0.8c0,0.1,0,1.3,0,1.3s-0.2,0.8-0.2,0.9c0,0.1-0.3,0.6-0.3,0.6l-1.2,0l-2.1,0l-1.5,0.3l-1.6,0.3l-0.9,0.3
	L65.4,12.9z"/>
<path class="st2" d="M67.4,33.1l0.5-2.2l0.9-2.1l1.2-1.7l1.5-1.4l1.7-1.2l1.8-0.8l2.1-0.6c0,0,1.9-0.2,1.9-0.2c0.1,0,3,0.5,3,0.5
	l2.3,0.9l2,1.1l1.3,1.4l1.1,1.3l1.1,1.9l0.5,1.3l0.4,2.1v1.9l-0.3,2l-0.7,1.7l-1.1,1.8l-2,2.1l-1.3,1l-1.5,0.8l-1.9,0.6l-1.7,0.3
	h-1.8l-1.6-0.1L75.2,45l-1.9-0.9L71.6,43l-1.4-1.4l-1.3-1.7l-0.9-2l-0.4-1.6l-0.2-1.8L67.4,33.1z"/>
<path class="st2" d="M110.5,31.8c-0.2-0.7-0.5-1.5-1-2.3c0,0-1.8-2.8-4.2-4.1c0,0-2.8-1.3-4.1-1.4c0,0-3.2-0.3-3.3,0.2l0.9,1.7
	c0,0,0.6,1.3,0.6,1.4c0,0.1,0.5,1.3,0.5,1.4c0,0.1,0.6,1.6,0.6,1.6s0.3,1.4,0.3,1.5c0.1,0.1,0.2,1.6,0.2,1.6v0.8l0.3,1.2v1.1
	l-0.2,1.5l0.2,0.6l0.3,0.5l0.8,0.9l1,0.9l0.2,0.9v0.7l-0.3,0.7l-1,0.6l-0.9,0.2H101l0.1,0.2l0.1,0.8l0.1,1.3c0,0,2.7-0.3,4.9-1.9
	c0,0,2.2-1.8,3.4-3.8c0,0,0.7-1.4,1.1-3.1C110.7,35.4,110.7,33.6,110.5,31.8z"/>
<path class="st3" d="M121.2,78.7l-0.8-1.5l-0.5-0.6l-1.8,1.1l-2.3,0.6l-1.6,0.4l-1.9-0.1l-0.3-1.5l-1.2-2.4l-2.6-2.7l-1-0.7l0.7-2
	l0.8-2.1l1.9-1.9l1.6-0.9l0.9-0.3l-3.4-2.4l-2.9-1.7l-3.7-1.1l-3-0.4l-5.7,0.1l-4.9,0.7l-4.9,2l-3.8,2.3l-1.9,1.7l1.2,1.2l0.9,1.3
	L81,69l-0.4,0.9l-0.9,0.5l-1.4,0L77,69.7l-1.3-0.6c0,0-0.8,1.4-0.9,1.5c-0.1,0.1-0.9,1.6-0.9,1.7c0,0.1-0.8,1.8-0.8,1.9
	c0,0.2-0.9,3.2-0.9,3.2l-0.6,3l-0.2,2.8c0,0,0.2,3,0.2,3.1c0,0.1,0.3,2.4,0.3,2.4l0.8,2.1l0.3,1.7c0,0,0.3,2.6,0.2,2.7
	c-0.1,0.1,0,1.2,0,1.2l-1.3-0.3l-3.3-0.2h-0.9l0,1l-0.2,0.9L66.7,99h-1l-1.2-0.1l-1.1-0.6l-0.9-0.9l-0.6-0.9l-0.4-1l-0.1-0.3
	l-2.7-0.6L55.7,94l-3.5-0.7l-3.7-1.2l-3.1-1.5l-2.1-1.8l-1.7-1.7l-1.2-1.8l-1.1-2l-0.6-1h-1.3L35,81.9l-1.2-0.2l-0.9-1l-0.3-1
	l0.4-0.9l1.1-0.5l1-0.6l1.2,0.1l1,0.2l-0.5-1.5l-0.3-2.2l-0.5-0.9L34,74.3l-2.6,1.3l-1.8,1.1l-1.1,1l-1,1.2l-0.6,0.5l0,0
	c0,0,0,0,0,0c-0.1,0.1-0.2,0.1-0.2,0.2c-0.1,0.1-0.2,0.2-0.2,0.3c0,0.1-0.1,0.2-0.1,0.3c-0.2,0.4-0.4,0.9-0.6,1.3
	c0,0.1-0.1,0.3-0.1,0.4c0,0,0,0.1,0,0.1c0,0.1,0,0.1,0,0.2c0,0.2-0.1,0.4-0.1,0.5c-0.1,0.2-0.2,0.4-0.3,0.6L25,84l-0.5,1.8l-0.1,1.8
	l-0.3,2.2l0,3.1l0.6,2.6l1.5,4.7c0,0,1.4,2.8,1.5,3c0.1,0.1,2.1,2.9,2.1,2.9l2.1,1.6l2.2,2.2c0,0,2.3,2,2.4,2.1
	c0.1,0.1,1.7,1.9,1.7,1.9l1.1,1.9c0,0,0.6,1.7,0.6,1.8c0,0.1,0.3,2.2,0.3,2.2v2.2c0,0-0.5,1.8-0.5,1.8c0,0-0.2,1.5-0.2,1.5l-1.4,2.3
	l-1.2,1.5l-0.9,0.7l-0.6,0.7l-0.1,1.7l0.4,1.7l0.9,1.3l1.2,0.8l1.4,0.4h1.8l1.2-0.6l0.5-0.6v-1l-0.5-0.7l-0.6-0.5l-0.7-0.4l0.1-1.1
	l0.6-1.4l0.5-1.5l0.5-1.7l0.4-1.7l0.2-1.7l0.2-1.7l0.1-1.6l-0.1-1.6l-0.1-1.6l-0.2-1.2l1.1,0.5l1.7,1l2.1,1l2,0.7l0.9,0.3
	c0,0,0.4,1.6,0.3,1.8c0,0.1,0.2,2.7,0.2,2.8c0,0.1,0,2.5,0,2.5l0,2.6l0,2.7l-0.2,1.7l0.4,1.3l0.7,0.8l2.1,0.3l2.1-0.8l2.2-1.5
	l1.3-1.2v-1.1l-0.5-0.6l-1.5-0.3l-0.9,0.1H56l-0.1-1.6v-2.2l0-2.3l0-1.9l-0.2-1.9l-0.1-0.3l4.4,0.5c0,0,4.8,0.1,4.8,0.1
	c0,0,6-0.1,6-0.1l3-0.1l3.6-0.3h3.2l0,1.8l-0.2,2.5v2l0.1,2.2l-0.1,2.1v1.5l0.6,1.2l1.4,1.4l1.9,0.3l2.2-0.5l1.2-0.7l0.9-1.1
	l0.2-1.2l-0.4-1l-0.8-0.5l-0.8-0.5l-0.7-0.2h-0.6l-0.2-1.8v-3.9l0.2-2.1v-1.7l2.2-0.4l2.5-0.7l8.4-3.1l4.6-3.1l3-2.2l2.7-2.3
	l2.4-2.3l1.1-1.3l1.9-2.4l1.7-2.6l1.2-2.2l1.5-3.1l1.2-3l1-2.8l0.6-3.6l0.1-3.2L121.2,78.7z"/>
<path class="st2" d="M94.9,45l-0.2,0.6l-0.1,1c0,0,0,0.8-0.1,0.9c-0.1,0.1,0,0.9,0,0.9c0,0.1,0.1,0.5,0.1,0.7c0,0.2,0.1,0.7,0.1,0.7
	l0.4,0.5l0.3,0.5l0.4,0.4c0,0,2,1.4,3.4-0.9h1.2c0,0,1.3-0.4,1.1-3.1l-0.2-1.5l-0.2-1.7l-1.7,0.3l-1.2,0.2l-1.4,0.4l-1.1,0.2
	L94.9,45z"/>
<path class="st2" d="M107.1,71.1l0.2-1.4c0,0,0.4-1.2,0.4-1.4c0.1-0.1,1.1-1.5,1.1-1.5l1.6-1.7c0,0,1.4-0.6,1.5-0.6
	c0.1,0,2.2-0.7,2.2-0.7l1.6-0.3l1.6,0.3c0,0,1.6,0.2,1.6,0.5c-0.1,0.2,1.2,1.1,1.2,1.1l1,0.9l1,1l0.5,1.2l0.3,1.6l-0.1,1.6l-0.6,1.6
	l-1,1.6l-1.5,1.5l-2.2,1.3c0,0-2,0.6-2,0.6c-0.1,0-1.9,0.3-1.9,0.3h-1.2l-0.6-2.1l-0.7-1.3l-1-1.5l-1.2-1.2l-1.3-0.9L107.1,71.1z"/>
<path class="st2" d="M89.6,77.2l-1.1-0.5l-1.9-1.1l-1.6-1.9l-1-1.8c0,0-0.6-1.6-0.6-1.8c0-0.1,0-2.1,0-2.1l0.5-1.7l1.2-1.6l1.3-1
	c0,0,1.7-0.6,1.7-0.7c0.1-0.1,1.9-0.2,1.9-0.2h2.3l2.1,0.6l1.5,0.4l1.4,0.9l0.8,0.9l0.6,1.2l0.3,1.3l-0.2,1.2l-0.1,0.8l-1.7,0.8
	l-1.7,0.9L94,72.6l-1.3,1.1l-1.1,1.1c0,0-1,0.9-1,1C90.7,75.9,89.6,77.2,89.6,77.2z"/>
<path class="st4" d="M103.5,41.1c-0.3-0.2-0.4-0.5-0.5-0.9l-0.2-0.2l-0.8-0.8l-0.7-0.9l-1.9,0.1l-2,0.1l-1.9-0.4l-0.9-0.6l-0.6,0.2
	l-0.7,0.3l-0.8,0.5l-0.8,0.6l-0.7,0.6l-0.6,0.7l-0.4,0.9L90,42c0,0-0.2,0.7,0,0.8c0.2,0.1,0.4,0.7,0.4,0.7s0.4,0.6,0.5,0.7
	c0.1,0,1,0.4,1,0.4l1.9,0.4l1-0.1l1.3-0.2l1.2-0.3l1.4-0.2l1.1-0.4h1.2l1.1-0.2l0.8-0.4l0.5-0.5l0.2-0.6l-0.1-0.8L103.5,41.1z"/>
<path class="st0" d="M74.4,68c0,0,0.6-1,0.5-1.1c-0.1-0.1,0.4-0.9,0.5-1.1c0.1-0.1,1.1-1.2,1.1-1.2l1.3-0.6l0.1,0.5l0.6,0.5l1.1,1.1
	c0,0,0.5,0.5,0.5,0.6c0,0.1,0.7,1,0.7,1l0.2,0.6c0,0,0,0.6,0,0.7c0,0.1-0.3,0.7-0.3,0.7l-0.9,0.5l-1.1,0.1l-0.9-0.3l-1-0.5l-1.5-0.8
	L74.4,68z"/>
<path class="st5" d="M35.8,61.5c0,0,1.9-11.1,2.2-11.3l15.5,6.4l11,3.4l5.3,1.1l3,0.4l0.8,0l1.4,0.9l1,0.7l1,0.3l1.1,0.3L77.5,64
	l-1.1,1l-1,1c0,0-0.3,0.9-0.5,1.1c-0.3,0.2-0.7,1.5-0.7,1.5l-0.4,0.9l-0.9-1.6l-0.4-0.4l-2.6,0.8l-3.7,0.2l-5.6-0.6l-6-0.9l-6.2-1.1
	L41.6,64L35.8,61.5z"/>
<path class="st5" d="M35.6,65.1v2.2V70c0,0,0.9,5.5,1.1,5.7l7.7,4l5.9,2.6l9,3.1L71.8,88l-0.4-3.3l0.2-4.2l0.9-4l1.2-2.9l0.8-2.4
	l0.8-1.4l0.4-0.6l-0.4-0.3l-1,0.6l-0.6,0.1L73.5,69l-0.6-0.8l-1.3,0.9l-2.4,0.6l-5.3,0.2L60,69.3l-4.8-0.9L50,67.6l-5.3-0.5l-5-0.9
	l-2.7-0.6L35.6,65.1z"/>
<path class="st6" d="M26.6,42.6l0.9-1.3l1.1-1.6l1.5-1.6l1.8-1.7l2.3-1.4c0,0,2-1.1,2.1-1c0.1,0,2.2-0.7,2.2-0.7l2.1-0.5l1.9-0.3
	h0.8l-0.8,1.9c0,0-0.9,1.9-0.9,2.1c0,0.1-0.6,1.9-0.6,1.9l-0.6,1.8l-0.5,1.2c0,0,2.6,1.5,2.6,1.8c0,0.3,2.6,2,2.8,2.1
	c0.2,0.1,2.3,1.4,2.3,1.4l3.6,2.1l3,1.6l2.5,1.2l5.6,2.6l3.7,1.5l3.5,1.4l2.8,1.3l2.4,1.4l1.5,1.4l1,1.1l0.2,0.9l-0.7,0l-1.4-0.4
	l-1.9-1.3l-2.3-1.7l-3.6-1.8l-4.2-1.7l-4.3-2l-5-2.1l-5.5-2.4l-4.9-2.5l-3.4-1.5L39,45.1l-0.3,2.2L38,49.9l-0.5,2l-2.8-0.5l-3.1-1.8
	l-1.9-2l-1.8-2.8L26.6,42.6z"/>
<path class="st7" d="M26.5,43.1L26,44.3L25.4,47l-0.2,4l0.2,2.7l0.4,2.3c0,0,0.6,2.2,0.6,2.3c0,0.1,0.8,2,0.9,2.2
	c0.1,0.1,1.1,1.9,1.1,1.9l1.1,1.5l1.2,1.2l1.2,0.9l1.5,0.8l1.2,0.4l0.8,0.3l0.2-2.4l5.9,1.4l4.8,0.9l5.5,0.5c0,0,4.6,0.6,4.7,0.8
	c0.1,0.2,5.6,1,5.6,1l4.3,0.2l3.6-0.2l1.6-0.9l1.2-0.6l-0.4-0.8L70,68.2l-5.5,0.1l-6.5-0.9l-5.5-0.9l-5.4-1l-4.7-1.2L38,62.6
	l-2.2-1.1l0.6-4.3l0.7-2.7l0.5-2.3l-1.9-0.2l-2.3-0.8l-1.9-1.6l-1.5-1.7l-1.7-2.2l-1-1.8L26.5,43.1z"/>
<polygon class="st5" points="77.2,62 77.6,62.7 77.8,63.7 78.3,64.2 78.3,64.6 78.7,65.4 79.6,64.6 81.8,63.2 83,62.3 83.5,62 
	82.8,61.7 81.2,61.9 78.3,61.8 "/>
<polygon class="st8" points="36.7,75.9 37.1,77.8 37.8,80 38.7,82.2 40,84.5 41.4,86.7 43.2,88.6 45.2,90.4 47.9,91.8 51.8,93.2 
	55.1,93.9 58.3,94.6 60.8,95.2 64.6,95.6 67.7,96.1 70.6,96.2 73.2,96.2 73.1,93.4 72.5,91 72,88.9 71.8,88 68.6,87.5 62.8,86.3 
	58.1,85 52.5,83.1 48.5,81.4 43.9,79.3 40.7,77.8 37.6,76.2 "/>
<path class="st0" d="M38.1,80.6l-0.4-1.2l-0.3-0.9L37.1,78l-1-0.2h-1.2L33.8,78l-0.3,0.5l-0.7,0.6l-0.2,0.8v0.4
	c0.1,0.1,0.2,0.2,0.3,0.3c0.1,0.1,0.1,0.2,0.2,0.4l0.4,0.2l1,0.5l1.1,0.2l1.2,0.3l1-0.2l0.9,0.1L38.1,80.6z"/>
<polygon class="st0" points="61.4,95.3 61.8,96.6 62.7,97.7 63.4,98.6 64.4,98.9 66,99 66.9,98.8 67.7,98.3 67.7,97.4 67.5,96.5 
	67.2,95.9 65.5,95.9 63.3,95.5 "/>
<path class="st9" d="M94,72.2l1.1-0.9L96,70l0.5-1.5l0.3-1v-1.3l-0.1-1.1l-0.2-0.5l1.2,0.8c0,0,0.8,1.1,0.8,1.2
	c0,0.1,0.4,1.3,0.4,1.3l0,1.4l-0.2,1.2L98,70.7l-2,0.7l-1,0.7l-1,0.7l-2,1.8L91,75.9l-0.8,1l-0.4,0.6l-1.5-0.7L86.8,76l-0.9-0.8
	L85,74.3l-0.3-0.8l0.1-0.4c0,0,1,0.1,1.1,0.2c0.1,0.1,0.9,0.5,0.9,0.5l2.3,0.1l2.1-0.3l1.6-0.8L94,72.2z"/>
<path class="st9" d="M111.7,76.3l1.9-0.4c0,0,2-0.7,2.1-0.7c0.1,0,1.9-1.1,1.9-1.1l1.2-1.2l1.3-1.1l0.7-1.5l0.5-1.2l-0.2-1.9
	l-0.5-1.1l1.3,0.8l0.8,1.8l0.4,2.3l-0.3,1.9l-0.6,1.3l-0.8,1.1l-0.9,1.1l-1.8,1c-0.1,0.3-2,0.9-2,0.9l-2,0.4l-2.4,0.3L111.7,76.3z"
	/>
<path class="st2" d="M99,82.1L98.4,83c0,0-0.4,0.7-0.4,0.9s0,1,0,1l0.5,0.5c0,0,0.8,0.5,0.9,0.5c0.1,0,1.3-0.9,1.3-0.9
	s0.5,0.9,0.5,1.1c0,0.2,1.2,0.6,1.1,0.6c0,0,1.1-0.5,1.1-0.5l0.9-1.2l0.1-1.6l-0.1-1.1l-1.3,0.5c0,0-1,0.3-1.2,0.4
	c-0.2,0-1.4,0-1.4,0l-0.9-0.2L99,82.1z"/>
<g>
	<g>
		<path class="st9" d="M74.5,70C74.5,70,74.5,70,74.5,70c0.1,0,0.2,0,0.3-0.1c0.1,0,0.2-0.1,0.2-0.2c0.1-0.1,0.1-0.2,0.2-0.2
			c0-0.1,0.1-0.2,0.1-0.3c0-0.1,0-0.1,0-0.2c0-0.1-0.1-0.2-0.2-0.3c-0.1,0-0.1-0.1-0.2-0.1c-0.1-0.1-0.3-0.1-0.4-0.1c0,0,0,0,0,0
			c-0.1,0-0.2,0-0.3,0.1c-0.1,0-0.2,0.1-0.2,0.2c-0.1,0.1-0.1,0.2-0.2,0.2c0,0.1-0.1,0.2-0.1,0.3c0,0.1,0,0.1,0,0.2
			c0,0.1,0.1,0.2,0.2,0.3c0.1,0,0.1,0.1,0.2,0.1C74.2,70,74.3,70,74.5,70L74.5,70z"/>
	</g>
</g>
<path class="st10" d="M92.6,50.9c0.2-0.2,1.4-1.2,1.4-1.2l0.5-0.5l0.2,0.5l0.5,0.8l0.7,0.7l1.3,0.3l1-0.4l0.7-0.5l0.1-0.5h1.1
	l0.7-0.3l-0.7,1.5L99,52.5l-1.2,0.7L96,52.9l-1.5-0.7L92.6,50.9z"/>
<path class="st2" d="M67.9,58.2L39.2,45.3l-1,4.8l2.5,1l7.2,2.9l6.8,3c1.1,0,2.2,0.5,3.1,1c0,0,0.1,0,0.1,0.1l5.9,1.6l6.6,1.3l2.6,0
	L67.9,58.2z"/>
<polygon class="st2" points="39.8,41.5 41.6,36.2 44.7,30.2 47.3,26.1 50.1,22.8 54.9,18.4 59.8,15 63.7,13.6 67.2,12.2 70.7,11.3 
	74.6,11.5 78.2,12.2 82.7,13.6 86.1,14.9 90.9,17.2 93.8,20.1 91.5,19.3 87,18.6 80.1,18.4 72.4,19.6 66.8,21.4 62.2,23.9 
	58.7,26.9 56.3,29.9 55.2,32.2 54.1,34.9 53.9,38.8 54.4,42.1 56.3,46.1 58.9,49.1 62.7,51.9 66.8,54 72.3,56 76.1,56.9 82.7,58.1 
	89.1,57.6 94.2,56.5 97.5,55.4 99.2,54.7 98.5,56.4 98.5,58.1 97.5,58.3 93.2,58.6 89.1,59.2 86.5,60.3 84.2,61.3 83.2,61.8 
	80.9,61.8 77,61.8 75,60.3 72,58.3 67.8,56.6 62.2,54.4 55.4,51.3 49.7,48 43.5,44.2 "/>
<g>
	<g>
		<path class="st9" d="M117.2,75C117.2,75,117.3,75.1,117.2,75c0.1,0.1,0.2,0.2,0.3,0.2c0.1,0,0.2,0.1,0.3,0.1c0.1,0,0.2,0,0.3-0.1
			c0.1,0,0.2-0.1,0.2-0.2c0-0.1,0.1-0.1,0.1-0.2c0.1-0.1,0.1-0.3,0.1-0.4c0-0.1,0-0.1,0-0.2c0-0.1-0.1-0.2-0.2-0.3c0,0,0,0,0,0
			c-0.1-0.1-0.2-0.1-0.2-0.2c-0.1,0-0.2-0.1-0.3-0.1c-0.1,0-0.2,0-0.3,0.1c-0.1,0-0.2,0.1-0.2,0.2c0,0.1-0.1,0.1-0.1,0.2
			c-0.1,0.1-0.1,0.3-0.1,0.4c0,0.1,0,0.1,0,0.2C117.1,74.8,117.1,74.9,117.2,75L117.2,75z"/>
	</g>
</g>
<g>
	<g>
		<path class="st9" d="M120.2,72.7c1,0,1-1.5,0-1.5C119.2,71.2,119.2,72.7,120.2,72.7L120.2,72.7z"/>
	</g>
</g>
<g>
	<g>
		<path class="st9" d="M91.3,74.8c1,0,1-1.5,0-1.5C90.3,73.2,90.3,74.8,91.3,74.8L91.3,74.8z"/>
	</g>
</g>
<g>
	<g>
		<path class="st10" d="M99.4,52c0.2-0.2,0.3-0.4,0.5-0.5c0.1-0.1,0.1-0.2,0.2-0.2c0-0.1,0.1-0.2,0.1-0.3c0-0.1,0-0.2-0.1-0.3
			c0-0.1-0.1-0.2-0.2-0.2c-0.1,0-0.1-0.1-0.2-0.1c-0.1-0.1-0.3-0.1-0.4-0.1c-0.1,0-0.1,0-0.2,0c-0.1,0-0.2,0.1-0.3,0.2
			c-0.1,0.2-0.3,0.4-0.5,0.5c-0.1,0.1-0.1,0.2-0.2,0.2c0,0.1-0.1,0.2-0.1,0.3c0,0.1,0,0.2,0.1,0.3c0,0.1,0.1,0.2,0.2,0.2
			c0.1,0,0.1,0.1,0.2,0.1c0.1,0.1,0.3,0.1,0.4,0.1c0.1,0,0.1,0,0.2,0C99.2,52.2,99.3,52.1,99.4,52L99.4,52z"/>
	</g>
</g>
<path class="st3" d="M25.2,83l0.5-1.4l0.8-1.2l0.4-0.8l-0.6-1.2l-0.8-1.6L25,75.5l-0.7-1.7l-0.9-1.9l-0.6-1L22,70.3l-0.4,0.2L21,71
	l-0.4,0.7c0,0-0.3,0.8-0.3,0.9c0,0.1-0.4,1.1-0.2,1.2c0.2,0.1,0.4,1.4,0.5,1.5c0,0.1,1,2.8,1,2.8s0.8,1.6,0.9,1.7
	c0.1,0.1,1,1.5,1,1.5l1.1,1.1L25.2,83z"/>
<g>
	<defs>
		<rect id="SVGID_1_" x="15.8" y="-17.8" width="121.3" height="133.4"/>
	</defs>
	<clipPath id="SVGID_2_">
		<use xlink:href="#SVGID_1_"  style="overflow:visible;"/>
	</clipPath>
	<path class="st11" d="M37.1,77.8c-1.7-0.6-4.1-0.3-4.5,1.7c-0.6,3,4.6,2.5,6.1,2.8c0.2,0,0.3-0.2,0.1-0.3c-1.8-0.4-3.5,0-5.2-0.9
		c-1.8-1.1-0.3-2.9,1.1-3.2c0.8-0.2,1.6-0.1,2.3,0.2C37.2,78.2,37.3,77.9,37.1,77.8"/>
	<path class="st12" d="M50.7,21.7c-1.7-0.9-3.2-2.2-3.7-4.1c-0.4-1.5,0.4-3.1,1.4-4.1c1.3-1.3,3.2-1.8,4.9-1.8
		c1.1,0,2.2,0.3,3.3,0.6c0.9,0.3,3.1,1,3.1,2.3c0,0.4,0.6,0.4,0.6,0c-0.1-2.2-4.1-3.2-5.8-3.4c-2.2-0.3-4.4,0.2-6.2,1.5
		c-1.4,1.1-2.2,2.9-2,4.7c0.3,2.2,2.2,3.8,4,4.8C50.8,22.4,51.1,21.9,50.7,21.7"/>
	<path class="st12" d="M55.8,17.4c0.3-0.9-0.3-1.9-1.4-2.2c-1-0.3-2.1,0.2-2.4,1.1c-0.3,0.9,0.3,1.9,1.4,2.2
		C54.4,18.8,55.5,18.3,55.8,17.4"/>
	<path class="st12" d="M65.8,12.6c0.3-2.2,1.3-4.9,3.3-6.1c1.2-0.8,2.8-0.6,3.9,0.2c1.5,0.9,1.6,3,1,4.4c-0.1,0.4,0.4,0.5,0.6,0.2
		c1.2-2.9-0.8-6.3-4.2-5.8c-3.2,0.5-4.7,4.1-5.1,7C65.1,12.8,65.7,13,65.8,12.6"/>
	<path class="st13" d="M90.7,34.2c0-6.2-5.2-11.3-11.6-11.3c-6.4,0-11.6,5.1-11.6,11.3c0,6.2,5.2,11.3,11.6,11.3
		C85.5,45.4,90.7,40.4,90.7,34.2z"/>
	<path class="st12" d="M86.6,32c-2.1,0-3.8,1.7-3.8,3.7c0,2,1.7,3.7,3.8,3.7c2.1,0,3.8-1.7,3.8-3.7C90.4,33.7,88.7,32,86.6,32
		 M88.1,38c-0.6,0-1.1-0.5-1.1-1c0-0.6,0.5-1,1.1-1c0.6,0,1.1,0.5,1.1,1C89.2,37.6,88.7,38,88.1,38"/>
	<path class="st12" d="M94.6,37.7c0.1,0,0.2,0,0.4-0.1c0-0.1-0.1-0.2-0.1-0.3c-2.1,0.6-4.9,2.3-5,4.7c-0.1,2.7,3.3,3,5.2,2.8
		c1.4-0.2,2.7-0.5,4-0.8c1.1-0.3,2.6-0.1,3.6-0.6c2.8-1.4-0.6-4.6-1.9-5.6c-0.2-0.1-0.3,0.1-0.2,0.3c0.9,0.7,1.8,1.5,2.4,2.4
		c0.5,0.8,0.6,1.9-0.3,2.5c-0.5,0.3-1.2,0.3-1.7,0.4c-1.8,0.2-3.4,0.7-5.2,1c-2.1,0.4-5.5,0.5-5.7-2.4c-0.2-2.2,3-3.9,4.7-4.4
		c0.2-0.1,0.1-0.3-0.1-0.3c-0.1,0-0.2,0-0.4,0.1C94.3,37.4,94.4,37.7,94.6,37.7"/>
	<path class="st12" d="M103.6,36.5c0-1.4-2.2-2.6-4.8-2.6c-2.7,0-4.8,1.2-4.8,2.6c0,1.4,2.2,2.6,4.8,2.6
		C101.5,39.1,103.6,37.9,103.6,36.5"/>
	<path class="st12" d="M99.3,44c0,1.9,0.9,6.2-1.5,7.2c-1.8,0.7-2.9-1.3-3-2.7c-0.1-1.2,0-2.5,0.4-3.6c0.1-0.2-0.2-0.3-0.3-0.1
		c-0.7,2.3-0.9,7,2.6,6.8c3.1-0.2,2.1-5.7,2.1-7.6C99.6,43.8,99.3,43.8,99.3,44"/>
	<path class="st12" d="M99.3,50.2c3.4,0.7,2-4.7,2-6.4c0-0.2-0.3-0.2-0.3,0c0,1.6,1.2,6.8-1.7,6.1C99.2,49.8,99.1,50.1,99.3,50.2"/>
	<path class="st12" d="M107.2,30.7c-2.1,0-3.8,1.7-3.8,3.7c0,2,1.7,3.7,3.8,3.7c2.1,0,3.8-1.7,3.8-3.7
		C111,32.3,109.3,30.7,107.2,30.7 M108.8,36.7c-0.6,0-1.1-0.5-1.1-1c0-0.6,0.5-1,1.1-1c0.6,0,1.1,0.5,1.1,1
		C109.8,36.2,109.4,36.7,108.8,36.7"/>
	<path class="st12" d="M101.5,34.9c-0.2-6.2-3-12.4-8-16.3c-2.3-1.8-4.9-3-7.6-4c-3.2-1.2-6.4-2.4-9.7-3c-3.7-0.7-7.4-0.5-10.8,0.9
		c-0.4,0.2,0,0.7,0.3,0.5c4.1-1.7,8.5-1.4,12.6-0.4c3.6,0.9,7.3,2.2,10.7,3.9c7.1,3.4,11.6,10.4,11.9,18.3
		C101,35.3,101.6,35.3,101.5,34.9"/>
	<path class="st12" d="M39.4,45.3h-0.3c-0.1,0-0.2,0-0.2,0c-0.4,1.8-0.9,3.5-1.3,5.3c-0.9,3.6-1.7,7.3-2.1,11c0,0.1,0,0.2,0,0.2
		c0.2-0.1,0.4-0.1,0.6-0.1C36.7,56.1,38.2,50.7,39.4,45.3C39.5,45.3,39.5,45.3,39.4,45.3z"/>
	<path class="st12" d="M65.6,12.4c-5.9,2.1-11.3,5.6-15.6,10.1c-4.7,4.9-7.7,10.8-9.6,17.3c-0.1,0.4-0.2,0.8-0.4,1.3
		c0.2,0.1,0.4,0.2,0.5,0.3c1.8-6.2,4.2-12.1,8.5-17c4.5-5.2,10.2-9.2,16.7-11.4C66.1,12.9,65.9,12.3,65.6,12.4z"/>
	<path class="st12" d="M55.9,93.7c-3.2-0.7-6.7-1.5-9.6-3.2c-2.6-1.5-4.6-3.8-6.1-6.4C37,78.5,35.7,71.6,35.9,65
		c-0.2-0.1-0.4-0.2-0.6-0.3c-0.2,6,0.8,12,3.3,17.5c1.2,2.7,2.8,5.2,5,7.1c2.4,2.1,5.4,3.2,8.5,4c7,1.9,14.2,3.1,21.5,3.1v-0.6
		C67.6,95.8,61.7,95,55.9,93.7z"/>
	<path class="st12" d="M99.5,23.5c-0.7,0-1.4,0.1-2.1,0.2c0.1,0.1,0.2,0.2,0.2,0.3c0.6-0.1,1.2-0.2,1.9-0.2c6.3,0,11.5,5,11.5,11.1
		c0,5.5-4.1,10-9.5,10.9v0.4c5.6-0.9,9.8-5.6,9.8-11.3C111.3,28.6,106,23.5,99.5,23.5"/>
</g>
<g>
	<g>
		<path class="st9" d="M88.8,57.3c-0.1,0-0.1,0-0.2,0c0,0.3,0,0.5,0,0.8c1.9-0.1,3.8-0.5,5.5-1c1.9-0.5,3.7-1.2,5.5-2
			c0.5-0.2,0.3-0.9-0.2-0.7c-1.7,0.7-3.5,1.4-5.3,1.9c-1.8,0.5-3.7,1-5.5,1.1c-0.5,0-0.5,0.8,0,0.8c0.1,0,0.1,0,0.2,0
			C89.3,58.1,89.3,57.3,88.8,57.3L88.8,57.3z"/>
	</g>
</g>
<g>
	<g>
		<path class="st9" d="M96,21.5c-1.4-2.1-4-2.7-6.3-3.1c-3.7-0.5-7.4-0.5-11.1-0.2c-6.6,0.5-13.2,2.6-18.3,7c-4.6,3.9-7.4,10-6.1,16
			c1.3,5.9,6.1,10,11.4,12.5c7,3.3,15.4,5.2,23.1,4.4c0.5,0,0.5-0.8,0-0.8c-6.6,0.7-13.3-0.7-19.4-2.9c-5.1-1.9-10.4-4.9-13-9.9
			c-2.9-5.6-1.5-12.2,2.5-16.8c4.1-4.7,10.4-7.3,16.4-8.4c3.9-0.7,7.9-0.8,11.8-0.5c2.7,0.2,6.7,0.4,8.4,3
			C95.6,22.3,96.3,21.9,96,21.5L96,21.5z"/>
	</g>
</g>
<g>
	<g>
		<path class="st9" d="M99.9,54.9c0.7-1.5,1.3-3.1,1.5-4.7c0-0.2-0.1-0.4-0.3-0.5c-0.2-0.1-0.4,0.1-0.5,0.3
			c-0.2,1.6-0.7,3.1-1.4,4.5C99,54.9,99.7,55.3,99.9,54.9L99.9,54.9z"/>
	</g>
</g>
<g>
	<g>
		<path class="st9" d="M99.6,54.3c-0.6,0-0.7,0.8-0.8,1.2c-0.1,0.6-0.2,1.3-0.2,1.9c0,0.2,0,0.4,0,0.6c0,0.5,0.8,0.5,0.8,0
			c0-0.6,0.1-1.2,0.1-1.8c0-0.1,0,0,0-0.1c0,0,0-0.1,0-0.1c0-0.1,0-0.2,0-0.3c0-0.2,0.1-0.3,0.1-0.5c0-0.1,0-0.1,0.1-0.2
			c0,0,0.1-0.1,0,0c0,0,0-0.1,0-0.1c0,0,0,0,0-0.1c0-0.1-0.1,0.1,0,0c0.1-0.1-0.1,0,0,0c0,0,0,0-0.1,0c0,0,0,0-0.1,0
			c0.2,0,0.4-0.2,0.4-0.4C99.9,54.5,99.8,54.3,99.6,54.3L99.6,54.3z"/>
	</g>
</g>
<g>
	<g>
		<path class="st9" d="M77.9,62.2c1.8,0.1,3.5,0,5.3-0.2c0.2,0,0.3-0.3,0.3-0.5c-0.1-0.2-0.3-0.3-0.5-0.3c-1.7,0.3-3.4,0.3-5.1,0.2
			C77.4,61.4,77.4,62.1,77.9,62.2L77.9,62.2z"/>
	</g>
</g>
<g>
	<g>
		<path class="st9" d="M37.9,50.3c11.3,5,22.8,9.9,35.1,11.4c0.5,0.1,0.5-0.7,0-0.8c-12.2-1.5-23.6-6.4-34.7-11.3
			C37.8,49.5,37.4,50.1,37.9,50.3L37.9,50.3z"/>
	</g>
</g>
<g>
	<g>
		<path class="st9" d="M36.6,75.9C47.3,82,59,86.3,71.2,88.2c0.5,0.1,0.7-0.7,0.2-0.7c-12.2-1.9-23.8-6.1-34.5-12.2
			C36.5,74.9,36.1,75.6,36.6,75.9L36.6,75.9z"/>
	</g>
</g>
<path class="st9" d="M86.9,66.6c0,1.8,1.5,3.3,3.3,3.3c1.8,0,3.3-1.5,3.3-3.3c0-1.8-1.5-3.3-3.3-3.3C88.4,63.2,86.9,64.7,86.9,66.6z
	 M92.3,65.2c0,0.5-0.4,0.9-0.9,0.9c-0.5,0-0.9-0.4-0.9-0.9c0-0.5,0.4-0.9,0.9-0.9C91.9,64.3,92.3,64.7,92.3,65.2z"/>
<path class="st9" d="M109.5,67.7c0,1.8,1.5,3.3,3.3,3.3c1.8,0,3.3-1.5,3.3-3.3c0-1.8-1.5-3.3-3.3-3.3
	C111,64.3,109.5,65.8,109.5,67.7z M114.9,66.3c0,0.5-0.4,0.9-0.9,0.9c-0.5,0-0.9-0.4-0.9-0.9c0-0.5,0.4-0.9,0.9-0.9
	C114.5,65.4,114.9,65.8,114.9,66.3z"/>
<g>
	<g>
		<path class="st9" d="M89.7,43.3C89.7,43.3,89.7,43.4,89.7,43.3c0.1,0.1,0.1,0.1,0.2,0.1c0,0,0.1,0,0.1,0c0.1,0,0.1,0,0.1,0
			c0,0,0.1,0,0.1-0.1c0,0,0-0.1,0.1-0.1c0-0.1,0.1-0.1,0.1-0.2c0,0,0-0.1,0-0.1c0-0.1-0.1-0.1-0.1-0.2c0,0,0,0-0.1-0.1
			c0,0-0.1-0.1-0.1-0.1c0,0-0.1,0-0.1,0c-0.1,0-0.1,0-0.1,0c0,0-0.1,0-0.1,0.1c0,0,0,0.1-0.1,0.1c0,0.1-0.1,0.1-0.1,0.2
			c0,0,0,0.1,0,0.1C89.6,43.2,89.7,43.3,89.7,43.3L89.7,43.3z"/>
	</g>
</g>
<path class="st9" d="M108.6,78.1c0.2-1.7-2-3.4-5.1-3.8c-3.1-0.4-5.7,0.6-6,2.3c-0.2,1.7,2,3.4,5.1,3.8
	C105.7,80.8,108.4,79.8,108.6,78.1z"/>
<g>
	<g>
		<path class="st9" d="M79.6,65.1c4.5-4.2,10.7-6,16.7-6.4c5.9-0.3,12,1.2,16.2,5.5c0.3,0.4,0.9-0.2,0.5-0.5
			c-4.3-4.5-10.6-6.1-16.7-5.8c-6.2,0.4-12.6,2.3-17.3,6.6C78.7,64.9,79.3,65.4,79.6,65.1L79.6,65.1z"/>
	</g>
</g>
<g>
	<g>
		<path class="st9" d="M72.9,98c0.8-2,0.9-4.2,0.4-6.2c-0.7-2.5-1.3-4.9-1.4-7.5c-0.1-5.1,1.3-10.1,3.9-14.5
			c0.3-0.4-0.4-0.8-0.7-0.4c-2.5,4.1-3.9,8.8-4,13.6c0,2.4,0.2,4.7,0.8,7c0.3,1.2,0.8,2.4,0.9,3.7c0.1,1.4-0.1,2.8-0.7,4.1
			C72,98.3,72.8,98.5,72.9,98L72.9,98z"/>
	</g>
</g>
<g>
	<g>
		<path class="st9" d="M107.7,70.8c0.3-4.8,6.1-8.1,10.5-6.4c2.2,0.8,4.1,2.9,4.5,5.3c0.3,2.1-0.6,4.2-2.1,5.6
			c-1.9,1.9-4.5,2.9-7.2,2.8c-0.5,0-0.5,0.8,0,0.8c4.8,0.1,10.5-3.5,10.1-8.8c-0.2-2.6-2-4.9-4.3-6.1c-2.3-1.3-5.1-1-7.4,0
			c-2.6,1.2-4.7,3.7-4.9,6.7C106.9,71.3,107.6,71.3,107.7,70.8L107.7,70.8z"/>
	</g>
</g>
<g>
	<g>
		<path class="st9" d="M99.2,70.2c1.8-5.2-4.2-7.7-8.4-7.7c-2.4,0-4.8,0.9-6.3,2.8c-1.5,1.9-1.7,4.4-1,6.6c0.9,2.7,3.1,4.8,5.8,5.6
			c0.5,0.1,0.7-0.6,0.2-0.7c-4.1-1.3-7.2-6.3-4.9-10.3c2.2-3.9,7.9-3.9,11.4-2c1,0.5,1.8,1.2,2.3,2.2c0.6,1.1,0.5,2.3,0.1,3.4
			C98.3,70.4,99,70.6,99.2,70.2L99.2,70.2z"/>
	</g>
</g>
<g>
	<g>
		<path class="st9" d="M75.9,71.4c-0.4,1.1-0.7,2.3-0.8,3.5c-0.1,1.2,0,2.5,0.7,3.5c0.7,0.9,1.8,1.6,3,1.4c1.1-0.2,1.9-1,2.4-1.9
			c0.6-1,1.1-2.3,0.9-3.6c0-0.5-0.8-0.5-0.8,0c0.1,0.9-0.2,1.9-0.6,2.7c-0.4,0.8-1,1.6-1.9,1.9c-0.9,0.3-1.9-0.2-2.5-1
			c-0.6-0.8-0.7-2-0.6-3c0.1-1.2,0.4-2.4,0.8-3.5C76.8,71.2,76.1,71,75.9,71.4L75.9,71.4z"/>
	</g>
</g>
<g>
	<g>
		<path class="st9" d="M84.8,73.3c4.5,2.2,10.8,0.2,12.3-4.8c0.4-1.4,0.3-2.9-0.1-4.4c-0.1-0.5-0.9-0.3-0.7,0.2
			c0.9,2.9-0.2,5.9-2.7,7.6c-2.4,1.7-5.7,2-8.4,0.7C84.7,72.4,84.3,73.1,84.8,73.3L84.8,73.3z"/>
	</g>
</g>
<g>
	<g>
		<path class="st9" d="M111.9,76.5c2.2,0,4.4-1.3,6.1-2.7c1.7-1.4,3.5-3.4,3.6-5.7c0-1.2-0.5-2.4-1.4-3.2c-0.4-0.3-0.9,0.2-0.5,0.5
			c3.7,3.4-1.8,8-4.8,9.4c-0.9,0.4-1.9,0.8-3,0.8C111.4,75.8,111.4,76.5,111.9,76.5L111.9,76.5z"/>
	</g>
</g>
<g>
	<g>
		<path class="st9" d="M99.4,79c-0.3,2.1-1.9,3.9-3.5,5.2c-1.4,1.2-3.8,2.6-5.7,1.6c-2.5-1.3-1.9-4.8-0.9-6.8
			c1.3-2.6,3.5-4.8,5.8-6.5c5.2-3.7,12.6-2.5,15.7,3.2c0.8,1.5,1.1,3.3,1.3,5c0.2,1.8,0.2,3.7-0.2,5.5c-0.4,1.7-1.5,3.1-3.4,2.3
			c-3.5-1.4-3.9-5.1-3.3-8.4c0.1-0.5-0.7-0.7-0.7-0.2c-0.6,2.9-0.5,6.6,2.2,8.4c1.5,1,3.5,1.8,4.9,0.3c1.3-1.4,1.4-3.8,1.5-5.7
			c0-2-0.2-4.2-0.9-6.2C110,70.3,101.8,67.5,96,71c-2.8,1.7-5.4,4.2-7.1,7.1c-1.3,2.3-2,5.4-0.1,7.6c1.7,2,4.6,1.1,6.5-0.1
			c2.2-1.4,4.4-3.8,4.8-6.5C100.2,78.6,99.4,78.6,99.4,79L99.4,79z"/>
	</g>
</g>
<g>
	<g>
		<path class="st9" d="M96.3,84.3c0.8,1.8,2.5,3.1,4.3,3.7c1.7,0.7,3.8,0.7,5.1-0.8c0.3-0.4-0.2-0.9-0.5-0.5c-1.1,1.3-3,1.1-4.4,0.5
			c-1.5-0.6-3.1-1.8-3.7-3.3C96.8,83.5,96.1,83.9,96.3,84.3L96.3,84.3z"/>
	</g>
</g>
<g>
	<g>
		<path class="st9" d="M120,77.3c1.9,3.2,1.7,7.1,0.8,10.5c-0.9,3.7-2.5,7.3-4.4,10.6c-4.1,7.1-10.4,12.5-17.6,16.3
			c-4.2,2.2-8.8,3.9-13.5,4.7c-0.5,0.1-0.3,0.8,0.2,0.7c16.5-2.7,31.6-15.3,35.9-31.6c1-3.8,1.4-8.1-0.8-11.6
			C120.5,76.5,119.8,76.9,120,77.3L120,77.3z"/>
	</g>
</g>
<g>
	<g>
		<path class="st9" d="M43.5,116c5,3.6,11.3,4.5,17.3,4.7c6.3,0.2,12.5-0.4,18.8-0.3c0.5,0,0.5-0.8,0-0.8c-6-0.1-12,0.5-18,0.3
			c-6.1-0.2-12.6-0.9-17.7-4.6C43.5,115,43.1,115.7,43.5,116L43.5,116z"/>
	</g>
</g>
<g>
	<g>
		<path class="st9" d="M36.2,129.8c3.5-2.4,4.8-7.3,4.4-11.4c-0.6-5.2-5.1-8-8.7-11.2c-6.5-5.7-9.1-16-6.1-24.1
			c1.8-4.8,5.7-8.1,10.7-9.3c0.5-0.1,0.3-0.9-0.2-0.7c-4,1-7.5,3.3-9.7,6.8c-2.1,3.4-2.8,7.5-2.6,11.4c0.2,4,1.4,8,3.3,11.5
			c1.2,2.1,2.8,3.9,4.7,5.5c2.2,1.9,4.7,3.5,6.3,6c2.9,4.3,2.1,11.8-2.4,14.9C35.4,129.4,35.8,130.1,36.2,129.8L36.2,129.8z"/>
	</g>
</g>
<g>
	<g>
		<path class="st9" d="M27.3,79c-0.5-0.6-0.8-1.4-1.2-2.1c-0.4-1-0.9-2-1.3-3c-0.4-0.9-0.8-1.8-1.2-2.7c-0.3-0.5-0.6-1.1-1.2-1.3
			c-0.6-0.2-1.3,0.4-1.7,0.8c-0.5,0.6-0.7,1.3-0.8,2.1c-0.2,1.9,0.5,3.9,1.3,5.6c0.7,1.6,1.8,3.6,3.3,4.6c0.4,0.3,0.8-0.4,0.4-0.7
			c-1.2-0.7-2-2.2-2.6-3.4c-0.8-1.6-1.5-3.4-1.6-5.2c0-0.7,0-1.5,0.3-2.1c0.1-0.3,0.3-0.5,0.6-0.7c0.2-0.1,0.5-0.3,0.6-0.3
			c0.4,0.2,0.7,1,0.9,1.4c0.4,0.8,0.8,1.7,1.1,2.5c0.7,1.6,1.3,3.6,2.4,5C27.1,79.9,27.6,79.4,27.3,79L27.3,79z"/>
	</g>
</g>
<g>
	<g>
		<path class="st9" d="M50.6,118.7c0.7,4.2,0.5,8.5,0.5,12.8c0,0.5,0.8,0.5,0.8,0c0-4.3,0.2-8.7-0.5-13
			C51.3,118,50.6,118.2,50.6,118.7L50.6,118.7z"/>
	</g>
</g>
<g>
	<g>
		<path class="st9" d="M55.3,119.7c0.7,3.6,0.2,7.2,0.5,10.8c0,0.5,0.8,0.5,0.8,0c-0.2-3.7,0.3-7.4-0.5-11
			C55.9,119,55.2,119.2,55.3,119.7L55.3,119.7z"/>
	</g>
</g>
<g>
	<g>
		<path class="st9" d="M80.5,115.2c0,5.6-0.2,11.2-0.2,16.7c0,0.5,0.8,0.5,0.8,0c0-5.6,0.2-11.2,0.2-16.7
			C81.2,114.7,80.5,114.7,80.5,115.2L80.5,115.2z"/>
	</g>
</g>
<g>
	<g>
		<path class="st9" d="M84.8,114.6c0.9,5.1-0.4,10.4,0.5,15.5c0.1,0.5,0.8,0.3,0.7-0.2c-0.9-5.1,0.4-10.4-0.5-15.5
			C85.5,113.9,84.8,114.1,84.8,114.6L84.8,114.6z"/>
	</g>
</g>
<g>
	<g>
		<path class="st9" d="M89.6,42.7c-3,0.3-0.4,4.6,0.4,5.7c1,1.4,2.3,2.7,3.7,3.7c1.3,0.9,3,1.7,4.5,1c0.8-0.3,1.3-0.9,1.9-1.5
			c0.3-0.3,1.1-1,0.8-1.5c-0.2-0.4-0.9-0.1-0.7,0.4c0,0,0,0,0,0c0-0.1,0-0.2,0-0.3c-0.1,0.2-0.4,0.5-0.6,0.7
			c-0.2,0.3-0.5,0.5-0.7,0.8c-0.6,0.5-1.3,0.9-2.1,0.8c-1.7-0.1-3.3-1.4-4.4-2.6c-1.2-1.2-2.2-2.5-2.9-4.1c-0.3-0.6-1-2.3,0.1-2.5
			C90.1,43.4,90.1,42.6,89.6,42.7L89.6,42.7z"/>
	</g>
</g>
<g>
	<g>
		<path class="st9" d="M98.6,81.7c1,2.3,4,1.8,5.8,0.8c0.4-0.3,0-0.9-0.4-0.7c-1.4,0.9-3.9,1.4-4.7-0.5c-0.1-0.2-0.4-0.2-0.5-0.1
			C98.5,81.3,98.5,81.5,98.6,81.7L98.6,81.7z"/>
	</g>
</g>
<g>
	<g>
		<path class="st9" d="M98.6,82.2c-0.7,0.8-1.1,1.9-0.5,2.9c0.5,0.8,1.5,1.1,2.3,0.6c0.6-0.4,0.9-1.1,1.1-1.8
			c-0.3,0-0.5-0.1-0.8-0.1c-0.1,1,0,2.9,1.5,2.9c1.1,0,1.9-1,2.3-1.9c0.3-0.7,0.5-1.5,0.4-2.3c0-0.5-0.8-0.5-0.8,0
			c0.1,1-0.2,2.1-0.9,2.9c-0.3,0.3-0.5,0.5-0.9,0.5c0.1,0,0,0,0,0c0,0-0.1,0-0.1,0c-0.1,0,0.1,0-0.1,0c0,0-0.1,0-0.1,0
			c-0.1-0.1-0.2-0.1-0.3-0.3c-0.3-0.5-0.3-1.3-0.3-1.9c0-0.4-0.7-0.5-0.8-0.1c-0.1,0.5-0.4,1.2-0.9,1.4c-0.1,0.1-0.2,0.1-0.4,0.1
			c0,0-0.1,0-0.2-0.1c0.1,0-0.1,0-0.1,0c0,0-0.1-0.1-0.1-0.1c-0.1-0.1-0.2-0.2-0.3-0.4c-0.1-0.1-0.1-0.3-0.1-0.5
			c0-0.5,0.2-1,0.6-1.4C99.5,82.4,99,81.8,98.6,82.2L98.6,82.2z"/>
	</g>
</g>
<g>
	<g>
		<path class="st9" d="M61,95.3c0.4,1.5,1.4,3,2.9,3.7c0.5,0.2,1.1,0.4,1.6,0.2c0.5-0.1,0.8-0.6,0.9-1.1c0-0.8-0.5-1.6-1-2.2
			c-0.1-0.2-0.3-0.3-0.5-0.1c-0.2,0.1-0.3,0.4-0.1,0.5c0.2,0.3,0.5,0.7,0.7,1c0,0,0,0.1,0,0.1c0,0,0.1,0.1,0,0
			c0,0.1,0.1,0.1,0.1,0.2c0,0.1,0,0.1,0,0.2c0,0,0,0.1,0,0.1c0,0.1,0-0.1,0,0c0,0.1,0,0.1,0,0.2c0,0,0,0.1,0,0.1c0,0.1,0-0.1,0,0
			c0,0,0,0.1,0,0.1c0,0.1,0,0,0,0c0,0,0,0,0,0.1c0,0,0,0,0,0c0,0,0.1-0.1,0,0c0,0-0.1,0.1-0.1,0.1c0.1,0,0,0-0.1,0c0,0,0,0-0.1,0
			c0,0,0.1,0,0,0c0,0-0.1,0-0.1,0c0,0,0,0-0.1,0c0.1,0,0.1,0,0,0c-0.1,0-0.2,0-0.3,0c-0.1,0,0.1,0,0,0c0,0,0,0-0.1,0
			c-0.1,0-0.1,0-0.2,0c-0.1,0-0.1,0-0.2-0.1c0,0-0.1,0-0.1,0c0,0-0.1-0.1,0,0c-0.3-0.1-0.5-0.3-0.7-0.4c0,0-0.1,0-0.1-0.1
			c0,0,0,0,0,0c0,0,0,0,0,0c-0.1-0.1-0.1-0.1-0.2-0.2c-0.1-0.1-0.3-0.2-0.4-0.4c-0.1-0.2-0.2-0.3-0.3-0.4c-0.1-0.2-0.2-0.4-0.3-0.6
			c-0.2-0.4-0.4-0.8-0.5-1.3C61.7,94.6,60.9,94.8,61,95.3L61,95.3z"/>
	</g>
</g>
<g>
	<g>
		<path class="st9" d="M42.7,115.1c1.4,6-0.2,11.6-2.5,17.2c-0.2,0.5,0.6,0.7,0.7,0.2c2.4-5.7,4-11.5,2.5-17.6
			C43.4,114.4,42.6,114.6,42.7,115.1L42.7,115.1z"/>
	</g>
</g>
<g>
	<g>
		<path class="st9" d="M35,130.2c-0.2,1.5-0.1,3.1,0.8,4.3c0.7,1,1.7,1.6,2.8,1.9c1,0.2,2,0.2,3-0.1c0.8-0.3,1.5-0.9,1.6-1.7
			c0.1-1.3-1.3-2.2-2.3-2.8c-0.4-0.2-0.8,0.4-0.4,0.7c0.6,0.3,1,0.6,1.5,1.1c0,0,0.1,0.1,0.1,0.1c0.1,0.1,0-0.1,0,0c0,0,0,0,0,0
			c0.1,0.1,0.1,0.2,0.2,0.3c0,0,0.1,0.2,0,0c0,0,0,0.1,0,0.1c0,0,0,0.1,0,0.1c0,0,0,0,0,0c0,0.1,0-0.1,0,0c0,0.1,0,0.1,0,0.2
			c0,0.1,0-0.1,0,0c0,0,0,0.1,0,0.1c0,0-0.1,0.1,0,0c0,0,0,0.1-0.1,0.1c0,0,0,0.1-0.1,0.1c0,0-0.1,0.1,0,0c-0.1,0.1-0.1,0.1-0.2,0.2
			c0,0-0.1,0-0.1,0.1c-0.1,0.1,0,0,0,0c-0.2,0.1-0.3,0.2-0.5,0.3c-0.1,0,0,0-0.1,0c0,0-0.1,0-0.1,0c-0.1,0-0.2,0.1-0.3,0.1
			c-0.1,0-0.2,0-0.3,0.1c0,0-0.1,0-0.1,0c0,0-0.1,0,0,0c0,0-0.1,0-0.1,0c-0.2,0-0.5,0-0.7,0c-0.1,0-0.2,0-0.3,0c0,0-0.2,0-0.1,0
			c-0.1,0-0.1,0-0.2,0c-0.2,0-0.5-0.1-0.7-0.2c-0.3-0.1-0.3-0.1-0.6-0.3c-0.5-0.2-0.8-0.5-1.1-0.9c-0.1-0.1,0-0.1-0.1-0.2
			c0-0.1-0.1-0.1-0.1-0.2c-0.1-0.1-0.2-0.3-0.2-0.4c-0.1-0.3-0.2-0.6-0.3-0.9c-0.2-0.8-0.2-1.7-0.1-2.5c0-0.2-0.2-0.4-0.4-0.4
			C35.1,129.8,35,130,35,130.2L35,130.2z"/>
	</g>
</g>
<g>
	<g>
		<path class="st9" d="M51.1,131.3c-0.2,1.4-0.3,3.3,1,4.2c1,0.7,2.4,0.4,3.5,0c1.3-0.5,2.5-1.2,3.5-2.2c0.7-0.6,1.6-1.7,1.3-2.7
			c-0.2-0.5-0.6-0.8-1.1-1c-0.7-0.3-1.6-0.3-2.4-0.2c-0.3,0-0.5,0-0.8,0.1c-0.2,0-0.4,0.2-0.4,0.4c0,0.2,0.2,0.4,0.4,0.4
			c0.5-0.1,1-0.1,1.5-0.1c0.2,0,0.4,0,0.6,0c0.1,0,0.2,0,0.3,0c0.1,0-0.1,0,0,0c0,0,0,0,0.1,0c0,0,0.1,0,0.1,0
			c0.1,0,0.3,0.1,0.4,0.1c0.1,0,0.1,0,0.2,0.1c-0.1,0,0,0,0.1,0c0,0,0.1,0.1,0.1,0.1c0.1,0.1,0,0,0.1,0c0,0,0.1,0.1,0.1,0.1
			c0.1,0.1,0-0.1,0,0c0,0,0,0.1,0.1,0.1c0,0.1,0-0.1,0,0c0,0,0,0,0,0.1c0,0,0,0.1,0,0.1c0-0.1,0,0,0,0c0,0,0,0.1,0,0.1
			c0,0.1,0-0.1,0,0c0,0,0,0,0,0.1c0,0.1-0.1,0.2-0.1,0.3c0,0.1,0-0.1,0,0c0,0,0,0,0,0.1c0,0.1-0.1,0.1-0.1,0.2
			c-0.1,0.1-0.1,0.2-0.2,0.3c0,0.1-0.1,0.1-0.1,0.1c0,0,0.1-0.1,0,0c0,0,0,0,0,0c0,0,0,0.1-0.1,0.1c-0.1,0.1-0.2,0.2-0.3,0.3
			c-0.2,0.2-0.4,0.4-0.7,0.6c-0.1,0-0.1,0.1-0.2,0.1c0,0-0.1,0-0.1,0.1c0.1-0.1,0,0-0.1,0c-0.1,0.1-0.3,0.2-0.4,0.3
			c-0.5,0.4-1.1,0.7-1.7,0.9c0,0,0.1,0,0,0c0,0-0.1,0-0.1,0c-0.1,0-0.2,0.1-0.2,0.1c-0.2,0.1-0.3,0.1-0.5,0.1
			c-0.1,0-0.3,0.1-0.4,0.1c-0.1,0-0.1,0-0.2,0c0,0-0.1,0-0.1,0c-0.1,0-0.1,0,0,0c-0.3,0-0.5,0-0.8,0c0,0-0.1,0-0.1,0
			c-0.1,0,0.1,0,0,0c-0.1,0-0.1,0-0.2,0c-0.1,0-0.2-0.1-0.3-0.1c-0.1,0,0.1,0,0,0c0,0,0,0-0.1,0c-0.1,0-0.1-0.1-0.2-0.1
			c0,0-0.2-0.1-0.1-0.1c0,0-0.1-0.1-0.1-0.1c0,0-0.1-0.1-0.1-0.1c0,0-0.1-0.1,0,0c0,0,0-0.1-0.1-0.1c-0.1-0.1-0.1-0.2-0.2-0.3
			c0,0,0,0.1,0,0c0,0,0-0.1,0-0.1c0-0.1,0-0.1-0.1-0.2c0-0.1,0-0.1,0-0.2c0,0,0-0.1,0-0.1c0-0.1,0,0,0-0.1c0-0.4,0-0.8,0-1.2
			c0-0.2,0-0.4,0.1-0.6c0-0.2-0.1-0.4-0.3-0.5C51.4,131,51.2,131.1,51.1,131.3L51.1,131.3z"/>
	</g>
</g>
<g>
	<g>
		<path class="st9" d="M80.6,132.5c0.2,1.1,0.8,2,1.8,2.5c1,0.5,2.1,0.5,3.1,0.3c1-0.2,2-0.6,2.8-1.3c0.7-0.5,1.2-1.4,1.1-2.2
			c-0.2-1.4-1.6-2.2-2.7-2.7c-0.5-0.2-0.8,0.5-0.4,0.7c0.6,0.3,1.2,0.6,1.6,1c0.1,0.1,0.2,0.2,0.2,0.2c0.1,0.1,0.1,0.1,0.2,0.2
			c0.1,0.1,0.1,0.2,0.2,0.3c0,0,0,0,0,0.1c0,0.1,0-0.1,0,0c0,0,0,0.1,0.1,0.2c0,0,0,0.1,0,0.1c0,0,0,0,0,0.1c0,0.1,0-0.1,0,0
			c0,0.1,0,0.2,0,0.3c0,0,0,0.1,0,0c0,0,0,0.1,0,0.1c0,0.1,0,0.2-0.1,0.3c0,0,0,0,0,0c0,0,0,0.1-0.1,0.1c0,0.1-0.1,0.2-0.2,0.2
			c-0.1,0.1,0,0-0.1,0.1c0,0-0.1,0.1-0.1,0.1c-0.1,0.1-0.1,0.2-0.2,0.2c-1.2,1.1-3.4,1.7-5,1.2c-0.4-0.1-0.8-0.4-1.1-0.7
			c-0.3-0.4-0.5-0.9-0.6-1.4C81.2,131.8,80.5,132,80.6,132.5L80.6,132.5z"/>
	</g>
</g>
<g>
	<g>
		<path class="st9" d="M74.4,69.1c0.5-2.1,1.7-4.1,3.8-5c0.2-0.1,0.2-0.4,0.1-0.5c-0.1-0.2-0.3-0.2-0.5-0.1c-2.2,1-3.6,3.1-4.1,5.5
			C73.6,69.4,74.3,69.6,74.4,69.1L74.4,69.1z"/>
	</g>
</g>
<g>
	<g>
		<path class="st9" d="M78.2,63.3c-0.6-0.4-1.4-0.6-2.1-0.7c-0.2,0-0.4,0.2-0.4,0.4c0,0.2,0.2,0.4,0.4,0.4c0,0,0,0,0,0
			c0,0,0,0,0.1,0c0,0,0.1,0,0.1,0c0.1,0,0.2,0,0.2,0c0.2,0,0.3,0.1,0.5,0.1c0.1,0,0.2,0.1,0.2,0.1c0,0,0,0,0,0c0,0,0,0,0,0
			c0,0,0.1,0,0.1,0c0.2,0.1,0.3,0.1,0.4,0.2c0.2,0.1,0.4,0,0.5-0.1C78.4,63.6,78.4,63.4,78.2,63.3L78.2,63.3z"/>
	</g>
</g>
<g>
	<g>
		<path class="st9" d="M74,68.7C74,68.7,73.9,68.6,74,68.7c-0.1-0.1-0.2-0.2-0.1-0.1c0,0-0.1-0.1-0.1-0.1c0,0,0-0.1-0.1-0.1
			c0,0,0,0,0,0c0-0.1,0.1,0.1,0,0c0-0.1-0.1-0.1-0.1-0.2c-0.2-0.2-0.3-0.5-0.4-0.7c-0.1-0.2-0.4-0.3-0.5-0.1
			c-0.2,0.1-0.3,0.3-0.1,0.5c0.3,0.5,0.6,1.2,1.2,1.5c0.2,0.1,0.4,0.1,0.5-0.1C74.2,69,74.2,68.8,74,68.7L74,68.7z"/>
	</g>
</g>
<g>
	<g>
		<path class="st9" d="M74.1,68.3c0.9,0.8,2,1.5,3.1,1.9c0.8,0.3,1.7,0.5,2.5,0.3c0.7-0.1,1.3-0.5,1.5-1.1c0.3-0.7,0-1.5-0.3-2.1
			c-0.7-1.3-1.8-2.3-2.9-3.1c-0.2-0.1-0.4-0.2-0.5,0c-0.1,0.1-0.2,0.4,0,0.5c0.9,0.7,1.9,1.6,2.6,2.6c0.1,0.2,0.2,0.4,0.3,0.6
			c0,0,0.1,0.1,0,0.1c0,0,0,0.1,0,0.1c0,0.1,0.1,0.2,0.1,0.3c0,0.1,0,0.2,0.1,0.2c0,0,0,0,0,0.1c0,0,0-0.1,0,0c0,0,0,0.1,0,0.1
			c0,0.1,0,0.1,0,0.2c0,0.1,0,0.1,0,0c0,0,0,0.1,0,0.1c0,0.1,0,0.1-0.1,0.2c0,0.1,0-0.1,0,0c0,0,0,0.1,0,0.1c0,0,0,0,0,0.1
			c0,0.1,0,0,0,0c0,0-0.1,0.1-0.1,0.1c0,0-0.1,0.1,0,0c0,0,0,0-0.1,0.1c-0.1,0-0.1,0.1-0.2,0.1c0,0-0.1,0-0.1,0c0.1,0,0,0,0,0
			c-0.1,0-0.1,0-0.2,0.1c-0.1,0-0.1,0-0.2,0c0.1,0,0,0,0,0c0,0-0.1,0-0.1,0c-0.2,0-0.4,0-0.5,0c0,0-0.1,0-0.1,0c-0.1,0,0,0-0.1,0
			c-0.1,0-0.2,0-0.3-0.1c-0.2,0-0.4-0.1-0.6-0.2c-1.1-0.4-2.1-1-3.1-1.8c-0.2-0.1-0.4-0.2-0.5,0C74,67.9,74,68.2,74.1,68.3
			L74.1,68.3z"/>
	</g>
</g>
<g>
	<g>
		<path class="st9" d="M81.1,69.5c-0.6-0.9-1.4-1.6-2.2-2.3c-0.2-0.1-0.4-0.2-0.5,0c-0.1,0.1-0.2,0.4,0,0.5c0.4,0.3,0.8,0.7,1.1,1
			c0.2,0.2,0.4,0.4,0.5,0.6c0,0.1,0.1,0.1,0.1,0.2c0,0,0.1,0.1,0,0c0,0,0,0,0,0c0.1,0.1,0.2,0.2,0.2,0.3c0.1,0.2,0.4,0.3,0.5,0.1
			C81.1,69.9,81.2,69.7,81.1,69.5L81.1,69.5z"/>
	</g>
</g>
<g>
	<g>
		<path class="st9" d="M65.9,99.2c0.7-0.1,1.5-0.3,1.9-0.9c0.4-0.5,0.5-1.1,0.3-1.7c-0.1-0.4-0.3-0.8-0.5-1.1
			c-0.3-0.4-0.9,0-0.7,0.4c0.1,0.1,0.1,0.2,0.2,0.3c0,0,0,0.1,0.1,0.1c0,0,0.1,0.1,0,0.1c0.1,0.2,0.1,0.3,0.2,0.5c0,0,0,0.1,0,0.1
			c0-0.1,0,0,0,0c0,0.1,0,0.1,0,0.2c0,0,0,0.1,0,0c0,0,0,0.1,0,0.1c0,0,0,0.1,0,0.1c0,0,0,0.1,0,0.1c0-0.1,0,0,0,0.1
			c0,0,0,0.1-0.1,0.1c0,0-0.1,0.1,0,0c0,0,0,0.1-0.1,0.1C67.1,98,67,98,67,98c0.1-0.1,0,0-0.1,0c0,0-0.1,0-0.1,0.1
			c0,0-0.1,0-0.1,0.1c0,0-0.1,0.1-0.1,0c-0.1,0-0.2,0.1-0.3,0.1c-0.2,0.1-0.5,0.1-0.7,0.2c-0.2,0-0.3,0.3-0.3,0.5
			C65.4,99.2,65.6,99.3,65.9,99.2L65.9,99.2z"/>
	</g>
</g>
<g>
	<path class="st9" d="M94.8,49.8c-0.6,0.2-1,0.7-1.5,1l-1.4-0.9l-2-2.7l-0.9-2v-1.3l0.8-0.8l0.4,0l0.9,1l1,0.5l1.2,0.3l1.4,0
		l-0.2,2.4L94.8,49.8z"/>
</g>
<g>
	<g>
		<path class="st9" d="M73.8,69.8c0.8,0,1.5-0.4,1.9-1.1c0.1-0.2,0.1-0.4-0.1-0.5c-0.2-0.1-0.4-0.1-0.5,0.1c0,0.1-0.1,0.1-0.1,0.2
			c0,0,0,0,0,0.1c0,0,0.1-0.1,0,0c0,0,0,0.1-0.1,0.1c-0.1,0.1-0.1,0.1-0.2,0.2c0.1-0.1,0,0,0,0c0,0-0.1,0-0.1,0.1c0,0-0.1,0-0.1,0.1
			c0,0,0,0,0,0c-0.1,0,0.1,0,0,0c-0.1,0-0.1,0-0.2,0.1c0,0-0.1,0-0.1,0c0,0,0,0-0.1,0c0,0-0.1,0,0,0c0.1,0,0,0,0,0c0,0,0,0-0.1,0
			c0,0-0.1,0-0.1,0c-0.2,0-0.4,0.2-0.4,0.4C73.5,69.7,73.6,69.8,73.8,69.8L73.8,69.8z"/>
	</g>
</g>
<g>
	<g>
		<path class="st9" d="M77.9,63.8c0,0,0.1,0.1,0.1,0.1C78,63.9,78,63.9,77.9,63.8c0.1,0.1,0.2,0.2,0.2,0.3c0,0,0-0.1,0-0.1
			c0,0.1,0,0.1,0.1,0.2c0,0,0-0.1,0-0.1c0,0,0,0,0,0.1c0,0.1,0,0.2,0.1,0.3c0.1,0.1,0.2,0.1,0.3,0.1c0.1,0,0.2,0,0.3-0.1
			c0.1-0.1,0.1-0.2,0.1-0.3c0-0.2-0.1-0.4-0.2-0.6c-0.1-0.1-0.1-0.2-0.2-0.3c-0.1-0.1-0.2-0.1-0.3-0.1c-0.1,0-0.2,0-0.3,0.1
			c-0.1,0.1-0.1,0.2-0.1,0.3C77.8,63.7,77.8,63.8,77.9,63.8L77.9,63.8z"/>
	</g>
</g>
<g>
	<g>
		<path class="st9" d="M42.8,32.2c-6.4,0.8-13.3,3.9-16.3,10c-2.7,5.5-1.9,13.2,0.8,18.6c1.6,3.1,4,5.6,7.4,6.6
			c0.5,0.1,0.7-0.6,0.2-0.7c-6-1.8-8.5-8.4-9.1-14c-0.3-2.9-0.2-6.1,0.9-8.8c1.2-3.1,3.5-5.5,6.2-7.3c3-1.9,6.5-3,10-3.5
			C43.3,32.9,43.3,32.1,42.8,32.2L42.8,32.2z"/>
	</g>
</g>
<g>
	<g>
		<path class="st9" d="M26.4,43c1.2,2.2,2.5,4.5,4.3,6.3c1.8,1.8,4.1,2.9,6.6,3.2c0.5,0.1,0.5-0.7,0-0.8c-2.4-0.3-4.6-1.4-6.3-3.1
			c-1.7-1.7-2.8-3.9-4-6C26.8,42.2,26.2,42.5,26.4,43L26.4,43z"/>
	</g>
</g>
<g>
	<g>
		<path class="st9" d="M37,39c5.3,5.6,12.5,9.3,19.3,12.7c2.6,1.3,5.2,2.6,7.9,3.6c2.6,1,5.3,2,7.8,3.3c1.6,0.8,5.8,2.7,5.2,5
			c-0.1,0.5,0.6,0.7,0.7,0.2c0.5-1.9-1.3-3.4-2.7-4.3c-2.4-1.6-5.1-2.7-7.7-3.8c-6.5-2.6-12.8-5.5-18.8-9.1c-4-2.3-7.9-5-11.1-8.3
			C37.2,38.1,36.6,38.7,37,39L37,39z"/>
	</g>
</g>
<g>
	<g>
		<path class="st9" d="M76.2,62.6c-6.9-4.8-15-7.5-22.7-10.9c-6.2-2.7-12.2-5.6-18.2-8.7c-0.4-0.2-0.8,0.4-0.4,0.7
			c5.9,2.9,11.7,5.9,17.8,8.5c7.8,3.3,16.2,6.1,23.2,11.1C76.2,63.6,76.6,62.9,76.2,62.6L76.2,62.6z"/>
	</g>
</g>
<g>
	<g>
		<path class="st9" d="M72.4,66.9c-2.7,1.4-6.1,1-9.1,0.7c-3.3-0.4-6.5-0.9-9.8-1.4C46,65.2,38.6,63,32.2,58.9
			c-0.4-0.3-0.8,0.4-0.4,0.7c6.7,4.3,14.4,6.5,22.2,7.5c3.3,0.4,6.6,1,9.9,1.4c2.9,0.3,6.2,0.5,8.9-0.9
			C73.2,67.4,72.8,66.7,72.4,66.9L72.4,66.9z"/>
	</g>
</g>
<g>
	<g>
		<path class="st9" d="M72.7,67.9c-2.6,1.7-5.9,1.7-8.9,1.5c-3.1-0.3-6.2-1-9.3-1.6c-4.7-0.9-9.6-1.1-14.3-2c-2-0.4-5-0.8-6.4-2.5
			c-0.3-0.4-0.9,0.2-0.5,0.5c1.2,1.4,3.4,1.9,5.1,2.3c2.7,0.7,5.5,1,8.3,1.4c2.4,0.3,4.7,0.5,7.1,0.9c3.2,0.6,6.3,1.3,9.5,1.7
			c3.3,0.3,7,0.4,9.9-1.5C73.5,68.3,73.1,67.6,72.7,67.9L72.7,67.9z"/>
	</g>
</g>
<g>
	<g>
		<path class="st9" d="M31.6,59c0.1,0.3,0.3,0.6,0.6,0.5c0.2-0.1,0.3-0.3,0.4-0.5c0.1-0.4,0.1-0.9,0.2-1.3c0-0.1,0-0.2,0.1-0.3
			c0,0,0,0,0-0.1c0-0.1,0,0.1,0,0c0,0,0,0,0,0c0-0.1-0.1,0.1,0,0c0.1-0.1,0.2-0.4,0-0.5c-0.2-0.1-0.4-0.2-0.5,0
			c-0.1,0.1-0.2,0.3-0.2,0.5c0,0.2-0.1,0.4-0.1,0.6c-0.1,0.4-0.1,0.7-0.2,1c0-0.1,0-0.1,0-0.1c0,0.1,0.1-0.1,0-0.1
			c0.1-0.1,0.3-0.1,0.4-0.1c0.1,0,0.1,0.1,0.1,0.1c0,0,0,0,0,0c0-0.1,0,0.1,0,0c0,0,0,0,0-0.1c-0.1-0.2-0.3-0.3-0.5-0.3
			C31.7,58.6,31.5,58.8,31.6,59L31.6,59z"/>
	</g>
</g>
<g>
	<g>
		<path class="st9" d="M34.5,43.1c-0.2,0.2-0.4,0.5-0.5,0.7c-0.1,0.3-0.2,0.7-0.2,1.1c0,0.2,0.2,0.4,0.4,0.4c0.2,0,0.4-0.2,0.4-0.4
			c0-0.1,0-0.1,0-0.2c0-0.1,0,0,0,0c0,0,0,0,0-0.1c0,0,0-0.1,0-0.1c0-0.1,0-0.1,0.1-0.2c0,0,0-0.1,0-0.1c0,0,0,0,0,0
			c0-0.1,0,0.1,0,0c0.1-0.1,0.1-0.2,0.2-0.4c0,0,0-0.1,0.1-0.1c0,0,0,0,0,0c0,0-0.1,0.1,0,0c0,0,0.1-0.1,0.1-0.1
			c0.1-0.1,0.2-0.4,0-0.5C34.9,43,34.7,43,34.5,43.1L34.5,43.1z"/>
	</g>
</g>
<g>
	<g>
		<path class="st9" d="M37.6,38.4c0-0.1,0-0.2,0-0.2c0,0,0,0.1,0,0.1c0-0.1,0-0.2,0.1-0.3c0,0,0,0.1,0,0.1c0.1-0.1,0.1-0.2,0.2-0.3
			c0,0,0,0.1-0.1,0.1c0.1-0.1,0.2-0.2,0.3-0.3c0.1-0.1,0.2-0.4,0-0.5c-0.2-0.1-0.4-0.2-0.5,0c-0.2,0.2-0.4,0.4-0.5,0.6
			c-0.2,0.3-0.2,0.6-0.2,0.9c0,0.2,0.2,0.4,0.4,0.4C37.5,38.8,37.6,38.7,37.6,38.4L37.6,38.4z"/>
	</g>
</g>
<g>
	<g>
		<path class="st9" d="M32.8,63.2c0,0.9,0.1,1.8,0.7,2.4c0.1,0.1,0.4,0.2,0.5,0c0.1-0.2,0.2-0.4,0-0.5c0,0-0.1-0.1-0.1-0.1
			c0,0,0,0,0,0c0,0,0,0,0-0.1c-0.1-0.1-0.1-0.2-0.1-0.2c0,0,0-0.1,0,0c0,0,0,0,0-0.1c0,0,0-0.1,0-0.1c0-0.1-0.1-0.2-0.1-0.3
			c0,0,0-0.1,0-0.1c0-0.1,0,0,0,0c0,0,0-0.1,0-0.1c0-0.1,0-0.2,0-0.3c0-0.2,0-0.3,0-0.5c0-0.2-0.2-0.4-0.4-0.4
			C33,62.9,32.8,63,32.8,63.2L32.8,63.2z"/>
	</g>
</g>
<g>
	<g>
		<path class="st9" d="M72.1,67.3c0.2,0.1,0.4,0.2,0.6,0.2c0.2,0,0.3-0.2,0.3-0.3c0-0.1,0-0.2,0-0.3c0-0.2-0.1-0.3-0.2-0.5
			c-0.1-0.2-0.2-0.3-0.3-0.4c-0.1-0.2-0.2-0.3-0.3-0.4c-0.1-0.1-0.4-0.2-0.5,0c-0.1,0.2-0.2,0.4,0,0.5c0,0,0.1,0.1,0.1,0.1
			c0,0,0-0.1-0.1-0.1c0.2,0.3,0.4,0.6,0.5,0.9c0,0,0-0.1,0-0.1c0,0.1,0.1,0.2,0.1,0.2c0,0,0-0.1,0-0.1c0,0,0,0,0,0.1
			c0,0,0-0.1,0-0.1c0,0,0,0,0,0c0,0,0-0.1,0-0.1c0,0,0,0,0,0c0,0,0-0.1,0.1-0.1c0,0,0,0,0,0c0,0,0.1,0,0.1-0.1c0,0,0,0,0,0
			c0,0,0.1,0,0.1,0c0,0,0,0,0,0c0,0,0.1,0,0.1,0c0,0,0,0,0,0c0,0,0.1,0,0.1,0c0,0-0.1,0-0.1,0c0,0,0.1,0,0.1,0
			c-0.1,0-0.1-0.1-0.2-0.1c-0.2-0.1-0.4,0-0.5,0.1C71.8,67,71.9,67.2,72.1,67.3L72.1,67.3z"/>
	</g>
</g>
<g>
	<g>
		<path class="st9" d="M71.1,66.1c0.2,0,0.4-0.1,0.7-0.1c0,0-0.1,0-0.1,0c0,0,0,0,0,0c0,0-0.1,0-0.1,0c0,0,0,0,0,0
			c-0.1,0-0.1-0.1-0.2-0.1c0,0,0,0,0,0c0-0.2,0-0.3-0.1-0.5c0,0,0,0,0,0c0,0,0.1-0.1,0.1-0.1c0,0,0,0,0,0c0,0,0.1,0,0.1,0
			c0,0-0.1,0-0.1,0c-0.1,0-0.2,0-0.3,0.1c-0.3,0.1-0.5,0.1-0.8,0.2c-0.1,0-0.3,0.1-0.4,0.1c-0.1,0-0.2,0.1-0.2,0.2
			c0,0.1-0.1,0.2,0,0.3c0,0.1,0.1,0.2,0.2,0.2c0.1,0,0.2,0.1,0.3,0c0.5-0.2,1-0.3,1.5-0.4c0,0,0.1,0,0.1,0c0.1,0,0.2-0.1,0.3-0.2
			c0-0.1,0.1-0.2,0-0.2c0-0.1,0-0.2-0.1-0.2c-0.1-0.1-0.2-0.1-0.3-0.1c0,0-0.1,0-0.1,0c0,0-0.1,0-0.1,0c-0.2,0-0.3,0.1-0.5,0.1
			c-0.1,0-0.2,0.1-0.2,0.2c0,0.1-0.1,0.2,0,0.3c0,0.1,0.1,0.2,0.2,0.2C70.9,66.1,71,66.1,71.1,66.1L71.1,66.1z"/>
	</g>
</g>
<g>
	<g>
		<path class="st9" d="M97,83.8c1.1,3.1,5.6,6,8.4,3.3c0.4-0.3-0.2-0.9-0.5-0.5c-2.3,2.3-6.2-0.4-7.1-2.9
			C97.6,83.1,96.9,83.3,97,83.8L97,83.8z"/>
	</g>
</g>
<g>
	<g>
		<path class="st9" d="M97.7,83.1C97.6,83.2,97.6,83.2,97.7,83.1C97.7,83.2,97.6,83.2,97.7,83.1c0,0.1-0.1,0.1-0.1,0.2
			c0,0.1-0.1,0.1-0.1,0.2c-0.1,0.2-0.1,0.4-0.2,0.6c0,0.4,0.1,0.7,0.2,1c0.2-0.1,0.4-0.3,0.6-0.4c0,0-0.1-0.1-0.1-0.1
			c0,0-0.1-0.1-0.1-0.1c0,0,0,0,0,0c0,0,0,0,0,0c0,0,0,0,0,0c0,0-0.1-0.1-0.1-0.1c-0.1-0.2-0.2-0.3-0.3-0.5
			c-0.1-0.2-0.4-0.3-0.5-0.1c-0.2,0.1-0.2,0.3-0.1,0.5c0.2,0.3,0.4,0.7,0.7,1c0.1,0.1,0.3,0.2,0.5,0.1c0.1-0.1,0.2-0.3,0.2-0.4
			c0-0.1-0.1-0.3-0.1-0.4c0,0,0-0.1,0-0.1c0,0.1,0,0.1,0,0c0,0,0,0,0-0.1c0,0,0-0.1,0-0.1c0,0,0-0.2,0-0.1c0-0.1,0-0.1,0.1-0.2
			c0,0,0-0.1,0-0.1c0,0,0,0,0,0c0,0,0,0,0-0.1c0.1-0.2,0.2-0.3,0.2-0.5c0.1-0.2-0.1-0.4-0.3-0.5C97.9,82.8,97.7,82.9,97.7,83.1
			L97.7,83.1z"/>
	</g>
</g>
<g>
	<g>
		<path class="st9" d="M99.1,86.3c0.4,0.2,0.9,0.1,1.3-0.1c0.4-0.2,0.7-0.5,0.9-0.9c0.1-0.2-0.1-0.4-0.3-0.5c-0.2,0-0.4,0.1-0.5,0.3
			c0,0.1,0,0,0,0c0,0,0,0,0,0c0,0,0,0.1-0.1,0.1c0,0,0,0,0,0c0.1-0.1,0,0,0,0c0,0-0.1,0.1-0.1,0.1c0,0-0.1,0.1-0.1,0.1c0,0,0,0,0,0
			c0.1-0.1,0,0,0,0c-0.1,0-0.1,0.1-0.2,0.1c0,0-0.1,0-0.1,0.1c0,0,0,0,0.1,0c0,0,0,0,0,0c0,0,0,0-0.1,0c0,0-0.1,0-0.1,0
			c0,0-0.2,0,0,0c0,0-0.1,0-0.1,0c0,0-0.1,0-0.1,0c0.1,0,0,0,0,0c0,0,0,0,0,0c-0.1,0,0.1,0,0,0c0,0,0,0-0.1,0
			c-0.2-0.1-0.4,0-0.5,0.1C98.8,85.9,98.9,86.2,99.1,86.3L99.1,86.3z"/>
	</g>
</g>
<g>
	<g>
		<path class="st9" d="M100,86.8c0.2-0.1,0.5-0.2,0.7-0.3c0.2-0.1,0.4-0.3,0.6-0.5c0.2-0.1,0.1-0.4,0-0.5c-0.2-0.1-0.4-0.1-0.5,0
			c-0.1,0.1-0.2,0.2-0.3,0.2c0,0,0.1,0,0.1-0.1c-0.1,0.1-0.3,0.2-0.5,0.3c0,0,0.1,0,0.1,0c-0.1,0-0.2,0.1-0.3,0.1
			c-0.2,0.1-0.3,0.3-0.3,0.5C99.6,86.8,99.8,86.9,100,86.8L100,86.8z"/>
	</g>
</g>
<g>
	<g>
		<path class="st9" d="M100.5,87.2c0.2-0.1,0.4-0.2,0.6-0.4c0.2-0.1,0.4-0.3,0.6-0.5c0.1-0.1,0.1-0.2,0.1-0.3c0-0.1,0-0.2-0.1-0.3
			c-0.1-0.1-0.2-0.1-0.3-0.1c-0.1,0-0.2,0-0.3,0.1c-0.2,0.1-0.3,0.3-0.5,0.4c0,0,0.1,0,0.1-0.1c-0.2,0.1-0.3,0.2-0.5,0.3
			c0,0,0.1,0,0.1,0c0,0,0,0,0,0c-0.1,0-0.2,0.1-0.2,0.2c0,0.1-0.1,0.2,0,0.3c0,0.1,0.1,0.2,0.2,0.2
			C100.2,87.2,100.4,87.3,100.5,87.2L100.5,87.2z"/>
	</g>
</g>
<g>
	<g>
		<path class="st9" d="M101.1,87.5c0.3-0.2,0.5-0.4,0.8-0.6c0,0-0.1,0-0.1,0.1c0,0,0.1-0.1,0.1-0.1c0.1-0.1,0.1-0.1,0.2-0.2
			c0-0.1,0-0.2,0-0.3c-0.1-0.1-0.1-0.2-0.2-0.2c-0.1,0-0.2,0-0.3,0c-0.2,0.2-0.5,0.4-0.7,0.6c0,0,0.1,0,0.1-0.1
			c-0.1,0.1-0.1,0.1-0.2,0.2c-0.1,0.1-0.2,0.1-0.2,0.2c0,0.1,0,0.2,0,0.3c0.1,0.1,0.1,0.2,0.2,0.2C100.9,87.6,101,87.6,101.1,87.5
			L101.1,87.5z"/>
	</g>
</g>
<g>
	<g>
		<path class="st9" d="M101.9,87.6C101.9,87.5,101.9,87.5,101.9,87.6C101.9,87.5,101.9,87.6,101.9,87.6c0.2-0.2,0.4-0.4,0.6-0.6
			c0,0-0.1,0-0.1,0.1c0.1-0.1,0.2-0.2,0.3-0.2c0.1,0,0.2-0.1,0.2-0.2c0-0.1,0-0.2,0-0.3c-0.1-0.1-0.1-0.2-0.2-0.2
			c-0.1,0-0.2,0-0.3,0c-0.2,0.1-0.4,0.3-0.6,0.4c-0.2,0.2-0.3,0.3-0.5,0.6c-0.1,0.1-0.1,0.2,0,0.3c0,0.1,0.1,0.2,0.2,0.2
			c0.1,0,0.2,0.1,0.3,0C101.8,87.7,101.8,87.7,101.9,87.6L101.9,87.6z"/>
	</g>
</g>
<g>
	<g>
		<path class="st9" d="M102.3,87.7c0.5-0.3,1-0.7,1.4-1.2c0.2-0.2,0.4-0.5,0.6-0.7c0.1-0.1,0.1-0.2,0.2-0.4c0-0.1,0.1-0.1,0.1-0.2
			c0,0,0-0.1,0.1-0.1c0,0,0,0,0,0c0.1-0.2,0.2-0.4,0-0.5c-0.1-0.1-0.4-0.2-0.5,0c-0.2,0.2-0.3,0.5-0.5,0.7c0,0.1-0.1,0.1-0.1,0.2
			c0,0,0,0.1-0.1,0.1c0,0,0,0,0,0c-0.1,0.1-0.2,0.2-0.3,0.3c-0.2,0.2-0.4,0.4-0.6,0.6c-0.2,0.2-0.4,0.3-0.6,0.5
			c-0.2,0.1-0.2,0.4-0.1,0.5C101.8,87.7,102.1,87.8,102.3,87.7L102.3,87.7z"/>
	</g>
</g>
<g>
	<g>
		<path class="st9" d="M102.9,87.8c0.5-0.2,0.8-0.7,1.2-1.1c0.1-0.2,0.3-0.4,0.4-0.6c0-0.1,0.1-0.1,0.1-0.1c0-0.1,0,0.1,0,0
			c0,0,0,0,0.1-0.1c0.1-0.1,0.2-0.2,0.2-0.3c0.1-0.1,0.2-0.4,0-0.5c-0.2-0.1-0.4-0.2-0.5,0c-0.3,0.4-0.6,0.8-0.9,1.2c0,0,0,0,0,0.1
			c0,0-0.1,0.1,0,0c0,0-0.1,0.1-0.1,0.1c-0.1,0.1-0.2,0.2-0.2,0.3c0,0-0.1,0.1-0.1,0.1c0,0,0,0-0.1,0.1c0,0-0.1,0.1,0,0
			c-0.1,0.1-0.2,0.1-0.3,0.2c-0.2,0.1-0.2,0.4-0.1,0.5C102.5,87.8,102.7,87.9,102.9,87.8L102.9,87.8z"/>
	</g>
</g>
<g>
	<g>
		<path class="st9" d="M104,87.6C104,87.6,104,87.6,104,87.6C104,87.5,104,87.6,104,87.6C104,87.6,104,87.5,104,87.6
			c0.1-0.1,0.1-0.1,0.1-0.2c0,0-0.1,0.1,0,0c0,0,0.1-0.1,0.1-0.1c0.1-0.1,0.2-0.2,0.3-0.4c0.1-0.2,0.2-0.3,0.4-0.5
			c0.1-0.1,0.1-0.2,0.2-0.2c0,0,0.1-0.1,0.1-0.1c0,0,0,0,0,0c0,0,0,0,0.1-0.1c0.1-0.2,0.2-0.4,0-0.5c-0.1-0.1-0.4-0.2-0.5,0
			c-0.1,0.2-0.3,0.4-0.4,0.6c-0.1,0.1-0.1,0.2-0.2,0.3c0,0-0.1,0.1-0.1,0.1c0,0-0.1,0.1,0,0c0,0,0,0,0,0c-0.1,0.1-0.2,0.2-0.3,0.4
			c-0.1,0.1-0.3,0.3-0.3,0.5c0,0.2,0.1,0.4,0.3,0.5C103.7,87.9,103.9,87.8,104,87.6L104,87.6z"/>
	</g>
</g>
<g>
	<g>
		<path class="st9" d="M104.5,87.5c0.2-0.2,0.4-0.5,0.6-0.8c0,0,0,0.1-0.1,0.1c0.1-0.1,0.2-0.2,0.2-0.3c0.1-0.1,0.2-0.4,0-0.5
			c-0.2-0.1-0.4-0.1-0.5,0c-0.2,0.2-0.4,0.5-0.6,0.7c0,0,0-0.1,0.1-0.1c-0.1,0.1-0.2,0.2-0.3,0.3c-0.1,0.1-0.1,0.2-0.1,0.3
			c0,0.1,0,0.2,0.1,0.3c0.1,0.1,0.2,0.1,0.3,0.1C104.3,87.6,104.4,87.6,104.5,87.5L104.5,87.5z"/>
	</g>
</g>
<g>
	<g>
		<path class="st9" d="M96.4,89.4c0.8,1.6,2.1,2.9,4,3.1c1.8,0.2,3.7-0.6,5.3-1.5c0.2-0.1,0-0.5-0.2-0.3c-1.5,0.8-3.2,1.5-4.9,1.4
			c-1.8-0.1-3.1-1.3-3.8-2.9C96.6,89,96.3,89.2,96.4,89.4L96.4,89.4z"/>
	</g>
</g>
<path class="st14" d="M97.9,83.6c0,0,0.2,3.2,2.8,1.5l0.8,1c0,0,0.8,1.3,2.7-1.3l0.8,2.1c0,0-2.9,3.8-8.2-2.3L97.9,83.6z"/>
<path class="st14" d="M92.8,50.5l1.6-1.4c0,0-0.6-1.1,0-4c0,0-3.5,0.5-4.6-1.8c0,0-2.3-0.1-0.8,2.7L92.8,50.5z"/>
</svg>
