<?xml version="1.0" encoding="utf-8"?>
<!-- Generator: Adobe Illustrator 24.0.1, SVG Export Plug-In . SVG Version: 6.00 Build 0)  -->
<svg version="1.1" id="Layer_1" xmlns="http://www.w3.org/2000/svg" xmlns:xlink="http://www.w3.org/1999/xlink" x="0px" y="0px"
	 viewBox="0 0 141.7 141.7" style="enable-background:new 0 0 141.7 141.7;" xml:space="preserve">
<style type="text/css">
	.st0{fill:#75CEEB;}
	.st1{fill:#E0BAD8;}
	.st2{fill:#FFFFFF;}
	.st3{fill:#C9B09D;}
	.st4{fill:#BDDA7D;}
	.st5{fill:#609B44;}
	.st6{fill:#B2CBD3;}
	.st7{fill:#B5B9BA;}
	.st8{fill:#A899AA;}
	.st9{fill:#899EA3;}
	.st10{fill:#F3787A;}
	.st11{fill:url(#SVGID_1_);}
	.st12{fill:url(#SVGID_2_);}
	.st13{fill:#726573;}
	.st14{fill:url(#SVGID_3_);}
	.st15{fill:url(#SVGID_4_);}
	.st16{fill:#304F7B;}
	.st17{fill:#ED5E5D;}
	.st18{fill:#ED9FA0;}
	.st19{fill:#F26C78;}
	.st20{fill:#F2C4C6;}
	.st21{fill:#AA3A3A;}
	.st22{fill:#F05151;}
	.st23{fill:url(#SVGID_5_);}
	.st24{opacity:0.8;fill:url(#SVGID_6_);enable-background:new    ;}
	.st25{opacity:0.5;fill:url(#SVGID_7_);enable-background:new    ;}
	.st26{opacity:0.5;fill:url(#SVGID_8_);enable-background:new    ;}
	.st27{opacity:0.5;fill:#F3787A;enable-background:new    ;}
	.st28{opacity:0.5;fill:#BDDA7D;enable-background:new    ;}
	.st29{opacity:0.8;fill:url(#SVGID_9_);enable-background:new    ;}
	.st30{opacity:0.5;fill:url(#SVGID_10_);enable-background:new    ;}
	.st31{opacity:0.5;fill:url(#SVGID_11_);enable-background:new    ;}
	.st32{opacity:0.5;fill:url(#SVGID_12_);enable-background:new    ;}
	.st33{opacity:0.5;fill:url(#SVGID_13_);enable-background:new    ;}
	.st34{opacity:0.5;fill:url(#SVGID_14_);enable-background:new    ;}
	.st35{opacity:0.5;fill:url(#SVGID_15_);enable-background:new    ;}
	.st36{opacity:0.5;fill:url(#SVGID_16_);enable-background:new    ;}
	.st37{opacity:0.5;fill:url(#SVGID_17_);enable-background:new    ;}
	.st38{opacity:0.5;fill:url(#SVGID_18_);enable-background:new    ;}
	.st39{opacity:0.5;fill:url(#SVGID_19_);enable-background:new    ;}
	.st40{opacity:0.5;fill:#3F4DA1;enable-background:new    ;}
	.st41{opacity:0.3;fill:#3F4DA1;enable-background:new    ;}
	.st42{opacity:0.5;fill:#243263;enable-background:new    ;}
	.st43{opacity:0.5;fill:#9ED4F3;enable-background:new    ;}
	.st44{opacity:0.3;fill:#E3D8E5;enable-background:new    ;}
	.st45{opacity:0.5;fill:#FDFDFE;enable-background:new    ;}
	.st46{fill:#BA7DB1;}
	.st47{fill:#070707;}
	.st48{fill:none;stroke:#070707;stroke-width:0.2249;stroke-miterlimit:10;}
</style>
<g id="Layer_7">
</g>
<g id="Layer_7_2_">
</g>
<g id="Layer_7_3_">
</g>
<g id="Layer_8">
</g>
<g id="Layer_7_1_">
</g>
<g id="Layer_10">
</g>
<path class="st0" d="M27.3,72.2L27,72.5l-0.6,0.4l-0.6,0.3L25,73.5l-0.9,0.2h-1l-0.9-0.2L21.4,73l-1-0.6l-0.8-0.9l-0.7-1l-0.3-1.2
	v-1.1l0.1-1l0.2-1l0.6-1.2l0.7-1l0.9-0.8l1.1-0.6l0.7-0.2l0.8-0.1V61l0.1-1.7L24,58l0.4-1.3l0.6-1.2l1.5-3.1l2.2-3l2-2.7l2-2.5
	l2.5-2.3l2.5-1.7l2.1-1l2-0.7l2.4-0.6l1-0.1l0.4-1.3l0.9-1.7l1-1.2l1.1-0.8l1.1-0.5c0,0.1,1.1,0,1.1,0l1.4,0.4l1.1,0.6l1.3,1l0.9,1
	l0.7,1.3l0.3,1.3v0.9l-0.1,0.7L56.2,40l-0.3,0.5l0.4,0.4l1.7,1l0.9,0.9l1,0.9l0.8,0.8l0.6,0.7l0.5,0.6l1.1-0.8l1.6-1.2l2.1-1.1
	l2.6-0.9l2.9-0.5l3.2-0.4l3-0.4l3.2-0.2l2.3-0.1l2.6,0.2l2.3,0.4l2.6,0.8l2.3,1l2.3,1.4l1.2,0.9l1.9-0.7l2-0.4h1.8l1.5,0.4l1,0.6
	l0.7,0.8l0.5,0.9l0.4,1.3l0.2,1.3L107,50l-0.4,1.4l-0.6,1l-0.7,0.8l-0.7,0.5l-0.7,0.4l-1.1,0.2l0.2,0.9l0.2,0.7l0.4,0.9l0.5,0.7
	l0.6,0.6l0.3,0.3v0.9l0.2,1.3l0.4,1.4l0.4,1.4l0.5,1.6l0.4,1.6l0.2,1.4v1.2l-0.2,1.1l-0.4,0.9l-0.5,0.7l-0.6,0.6l-0.2,0.3l-2.1,0.6
	l-2.3,0.4l-2.2,0.3l-1.8,0.1h-1.6l-1.3,0.1l-1.2,0.2l-1,0.3l-0.9,0.5l-0.2,0.1c0,0,0.4-0.6-0.5-1.8l-0.7-0.1l-0.8,0.2l-0.8,0.1
	l-0.7,0.3l-0.5,0.3l-0.7,0.5l-0.5,0.4l-0.5,0.5l-0.2,0.4l-0.8,0.3l-1,0.3l-1,0.2h-1.5h-1.2l-1.1-0.2l-1-0.3l-0.8-0.1L76,76.2
	l-0.3-0.8l-0.3-0.5l-0.7-0.2L74,74.6l-0.6,0.1h-0.8l0.3-0.6l0.3-0.7v-0.7L73,71.8l-0.3-0.5L72.2,71l-0.4,0.1l-0.5,0.4L71,71.9
	c0,0,0,0.4,0,0.5s0.1,0.5,0.2,0.6s0.2,0.6,0.2,0.6v0.5l-0.1,0.5L71.1,75c0,0-0.1,0.2-0.1,0.3c0,0.1-0.1,0.4-0.1,0.4l-0.1,0.4
	c0,0.1,0,0.6,0,0.6v0.4l0.2,0.3l0.4,0.8l-0.6-0.7l-0.4-0.4l-0.6-0.6L69.2,76l-0.4-0.6l-0.2-0.3l-0.4,0.1c0,0-1.4-0.4-1.4-0.3
	s-1.2-0.3-1.2-0.3l-1-0.3L63.8,74l-1-0.5l-0.3-0.1l-1.3,0.1l-1.8,0.4l-1.5,0.5l-1,0.4l-1,0.5l-0.3-0.2L55,75l-1.4,0.2l-1.4,0.5
	l-1,0.7l-0.8,0.8L50,77.5c0,0-0.2,0.6-0.1,0.6l-0.1,0.1l-2,0.7l-2.3,0.5l-3.2,0.2l-2.7-0.3l-2.8-0.7l-2.2-0.9L32,76.2l-2.1-1.6
	L28.3,73L27.3,72.2z"/>
<path class="st1" d="M57.7,67.9c-0.5-0.9-0.9-1.8-1.2-2.8c-0.9-1.9-1.4-3.9-0.7-5.7c-0.1-1.4-0.1-2.7,0.3-4.1c-1.5,0-3-0.4-4-1.5
	c-0.3-0.3-0.5-0.7-0.7-1.2c-2.2-2.2-0.1-5.3,2-6.8c1.3-1,2.9-1.5,4.6-1.1c0.9,0.2,1.8,0.5,2.6,1.1c0.2,0.1,0.4,0.3,0.6,0.4
	c0.2-0.2,0.4-0.4,0.7-0.6l0,0l0,0L61.4,45l-0.6-0.7L60,43.5l-1-0.9l-1-0.8l-1.7-1L56,40.4l0.3-0.5l0.2-0.5l0.1-0.7v-0.9l-0.3-1.3
	l-0.7-1.3l-0.9-1l-1.3-1l-1.1-0.6L51,32.3c0,0-1.1,0.1-1.1,0s-1.1,0.5-1.1,0.5l-1.1,0.8l-1,1.2l-0.9,1.7l-0.4,1.3l-1,0.1L42,38.5
	l-2,0.7l-2.1,1l-2.5,1.7l-2.5,2.3l-2,2.5l-2,2.7l-2.2,3l-1.5,3.1l-0.6,1.2L24.2,58l-0.3,1.4l-0.1,1.7v1.3L23,62.5l-0.7,0.2l-1.1,0.6
	l-0.9,0.8l-0.7,1L19,66.2l-0.2,1l-0.1,1v1.1l0.3,1.2l0.7,1l0.8,0.9l1,0.6l0.8,0.5l0.9,0.2h1l0.9-0.2l0.8-0.3l0.6-0.3l0.6-0.4
	l0.3-0.3l0.9,1.1l1.6,1.6l2.1,1.6l2.6,1.5l2.2,0.9l2.8,0.7l2.7,0.3l3.2-0.2l2.3-0.5l2-0.7c0,0,0.2-0.1,0.1-0.1l0.1-0.6l0.3-0.4
	l0.8-0.8l1-0.7l1.4-0.5l1.4-0.2l0.6,0.1l0.3,0.2l1-0.5l1-0.4l1.5-0.5l1.8-0.4h1.2C60.5,72,58.7,70.2,57.7,67.9z"/>
<path class="st2" d="M35.3,68.9v-1.2l0.3-1.4l0.6-1.4l0.8-1.5l1-1.2l1-1l0.9-0.9l-0.8-1.7l-0.9-1.2L36.9,56l-1.3-0.7l-1.8-0.6
	l-1.1-0.1l-1.5,0.1l-1.6,0.5l-1.1,0.6c0,0-1.3,1.1-1.2,1.1l-0.7,1L26.1,59l-0.3,1.6v1.5l0.3,1.3l0.3,1l0.6,1l0.7,0.9l0.9,1
	c0,0,0.9,0.7,1,0.7l1.1,0.6l1.5,0.5l1.4,0.2l1.1-0.1l0.7-0.1L35.3,68.9z"/>
<polygon class="st2" points="44.2,56.9 45.2,56.1 46.3,55.3 47.3,54.5 48,54 48.7,53.5 49.5,53.1 50.1,52.8 50.9,52.5 51.1,52.5 
	50.8,51.5 50.8,50.5 50.9,49.7 51.1,48.7 51.5,48.1 52.1,47.2 51.6,46.3 50.9,45.2 49.9,44.4 48.9,43.6 48,43.2 46.6,42.7 
	44.9,42.6 43.5,42.7 42.1,43.2 40.6,44.3 39.6,45.4 38.9,46.9 38.6,48.1 38.5,49.4 38.6,50.4 39,51.9 39.7,53.3 40.4,54.3 
	41.4,55.3 42.3,56 43.1,56.4 "/>
<polygon class="st2" points="45.6,67.1 46,67.7 46.3,68.2 46.9,69 47.4,69.5 47.8,69.9 48.5,70.1 49.2,70.1 49.7,69.8 50,69.5 
	50.1,69.1 50.1,68.8 50.1,68.4 49.9,68 49.8,67.7 50.2,67.8 50.8,68 51.3,68 51.6,67.8 51.9,67.4 52,67.1 52.1,66.7 52.1,66.2 
	52,65.7 51.7,65.3 51.2,64.8 50.8,64.3 50.3,63.9 49.7,63.5 49.4,63.3 48.7,63.6 48,64 47.5,64.4 47.2,64.8 46.8,65.3 46.4,65.9 
	46.1,66.5 "/>
<path class="st2" d="M77.1,52.5c0-4.2-3.4-7.6-7.6-7.6s-7.6,3.4-7.6,7.6s3.4,7.6,7.6,7.6S77.1,56.7,77.1,52.5z"/>
<path class="st2" d="M96.3,51.7c0-4.2-3.4-7.6-7.6-7.6s-7.6,3.4-7.6,7.6s3.4,7.6,7.6,7.6S96.3,55.9,96.3,51.7z"/>
<polygon class="st2" points="76.3,64.7 76.2,65.3 76.1,66.1 76,66.9 76.1,67.6 76.3,68.3 76.6,68.9 77.1,69.2 78,69.4 78.6,69.1 
	79,68.7 79.3,68.3 79.4,67.9 79.6,68.3 79.9,68.9 80.4,69.2 81.2,69.3 81.8,69.1 82.3,68.6 82.6,68.1 82.8,67.3 82.8,66.7 
	82.7,65.9 82.6,65.3 82.4,64.7 82.4,64.3 81.7,64.1 81,63.9 80.4,63.8 79.5,63.9 78.9,64 78.1,64.2 77.3,64.4 76.6,64.6 "/>
<path class="st3" d="M42.2,63.2L42,63.5l-0.2,0.4l-0.1,0.5l-0.1,0.9v0.8l0.1,0.8l0.3,0.7l0.3,0.5l0.8,0.2h0.6l0.5-0.1l0.5-0.2
	l0.4-0.3l0.4-0.3l0.3-0.6l0.6-0.8l0.3-0.6l0.5-0.6l0.5-0.5l0.6-0.4l0.6-0.3l0.7-0.3l0.5-0.2l0.6-0.4l0.3-0.4l0.3-0.4v-0.6l-0.1-0.7
	L50.6,60l-0.4-0.4l-0.6-0.3L49,59.2h-0.9l-0.7,0.1l-0.7,0.1l-0.6,0.2v0.6L45.7,61l-0.4,0.6c0,0-0.5,0.5-0.6,0.6S44,62.6,44,62.6
	l-0.5,0.3l-0.7,0.2L42.2,63.2z"/>
<path class="st3" d="M76.2,59.5l-0.3,0.1l-0.4,0.1l-0.4,0.2l-0.6,0.5c0,0.1-0.5,0.5-0.5,0.5l-0.5,0.6L73.1,62l-0.2,0.4l-0.1,0.5
	l0.1,0.4l0.2,0.4l0.4,0.3l0.3,0.2l0.4,0.2l0.7,0.2l0.8,0.1l0.8-0.1l1-0.2l0.7-0.2l0.9-0.2l0.6-0.1l1,0.1l1.1,0.2
	c0,0.1,0.7,0.2,0.7,0.2l1.1,0.1l0.7-0.1l0.5-0.2l0.3-0.4l0.3-0.5l0.1-0.6v-0.6l-0.3-0.6l-0.5-0.6L84,60.4l-0.7-0.5L82,59.3l-1,0.5
	l-1.8,0.6L77.5,60L76.2,59.5z"/>
<path class="st3" d="M71.4,74.1l-0.1-0.7L71,72.7V72l0.4-0.6c0,0,0.4-0.3,0.5-0.3s0.5,0,0.5,0l0.4,0.2l0.4,0.7c0,0,0,0.5,0,0.6
	s0.1,0.6,0,0.7S72.9,74,72.9,74s-0.2,0.3-0.2,0.4s-0.1,0.2-0.1,0.2h1.2c0,0,0.7,0,0.9,0.1c0.1,0,0.6,0.1,0.7,0.2
	c0,0.1,0.4,0.4,0.4,0.4s0.2,0.4,0.2,0.5c0,0,0.2,0.4,0.2,0.5s0,0.5-0.1,0.6c0,0.1-0.2,0.6-0.3,0.7c0,0.1-0.4,0.5-0.4,0.6l-0.5,0.5
	L74,78.9h-0.8l-0.7-0.2l-0.7-0.4l-0.7-0.4l-0.4-0.8v-0.7l0.2-0.7l0.3-0.9L71.4,74.1z"/>
<path class="st3" d="M84.7,76.3l0.6-0.8l1.1-0.8l1-0.6l1.2-0.4l0.9-0.1h0.8c0,0,1,0.9,0.5,1.8l-0.2,0.7c0,0.1-0.5,0.8-0.5,0.8
	s-0.4,0.3-0.5,0.4s-0.5,0.6-0.5,0.6l-1,0.6c0,0-0.6,0.3-0.7,0.3s-0.6,0.1-0.6,0.1l-0.5-0.1l-0.4-0.2l-0.3-0.2v-0.5l-0.4-0.1
	l-0.4-0.3L84.6,77L84.7,76.3z"/>
<path class="st3" d="M50,77.7l0.2-0.5c0.3-0.2,0.5-0.4,0.8-0.6c0.2-0.2,0.5-0.4,0.7-0.6c0.3-0.1,0.7-0.2,1-0.3
	c0.3-0.1,0.5-0.3,0.8-0.4c0.3-0.1,0.7-0.2,1-0.3c0.2,0,0.4,0,0.5,0c0.1,0,0.2,0,0.3,0c0.2,0.1,0.3,0.2,0.5,0.3
	c0.1,0.1,0.2,0.2,0.3,0.3c0.1,0.1,0.2,0.2,0.3,0.3c0,0.2,0.1,0.4,0.1,0.6c0,0.1,0,0.2,0.1,0.3c0,0.1,0,0.1-0.1,0.2
	c0,0.1-0.1,0.3-0.1,0.4c0,0.1,0,0.2,0,0.3c0,0.2-0.1,0.3-0.2,0.4c-0.1,0.2-0.3,0.4-0.4,0.5c-0.3,0.2-0.6,0.4-0.9,0.7
	c-0.3,0.1-0.7,0.2-1,0.3c-0.3,0.1-0.5,0.1-0.8,0.2h-0.8l-0.8-0.1L51,79.4c-0.1,0-0.1-0.1-0.2-0.1c-0.2-0.2-0.4-0.3-0.6-0.5L50,78.5
	l-0.1-0.3L50,77.7z"/>
<polygon class="st3" points="32.8,77.1 32.5,77.2 32.1,77.4 31.8,77.6 31.6,77.8 31.4,78 31.4,78.6 31.7,79.2 32.1,79.6 32.8,79.9 
	33.5,80.1 34.3,80.3 35,80.6 36.1,80.8 36.9,80.7 37.3,80.5 37.6,80.1 37.6,79.6 37.5,79.1 35.6,78.4 33.6,77.5 "/>
<path class="st3" d="M110.9,66.5c0,0-0.2,0.6-0.2,0.7s-0.3,0.8-0.2,0.8s-0.2,0.5-0.2,0.6s-0.3,0.5-0.3,0.5l-0.2,0.3h0.6h0.4l0.7-0.2
	l0.7-0.3l0.6-0.3l0.4-0.3l0.1-0.4l-0.1-0.2l-0.4-0.3l-0.4-0.2l-0.8-0.3L110.9,66.5z"/>
<path class="st0" d="M107.2,59.7h0.5l0.7-0.2l0.7-0.2l0.4-0.1h0.2l0.2,0.3l0.1,0.3c0,0,0,0.3-0.1,0.3l-0.1,0.3l-0.2,0.3l-0.2,0.2
	l-0.1,0.1l0.5,0.5h-0.3l-0.4,0.2h-0.3l-0.5-0.2l-0.4-0.3l-0.4-0.6l-0.2-0.5L107.2,59.7z"/>
<polyline class="st4" points="105.3,57.8 105.4,58.7 105.6,59.8 106.1,60.9 106.7,61.9 107.4,63.2 108.1,64.4 108.6,65.8 109,66.7 
	109.2,67.8 109.1,68.8 108.8,69.7 108.4,70.5 107.9,71.2 107.7,71.5 108.4,71 109,70.4 109.4,69.9 109.9,69.2 110.4,68.3 
	110.8,66.8 111,65.8 111,64.8 110.8,63.7 110.5,62.8 110.1,62.1 109.7,61.5 109.4,61.6 108.9,61.7 108.4,61.5 107.9,61.1 
	107.5,60.7 107.3,60.1 107.2,59.7 106.5,59.3 106.4,59.1 106.3,58.6 106.1,58.2 105.8,58 105.5,57.8 105.3,57.7 "/>
<polygon class="st5" points="105.3,58.5 105.2,59.2 105.3,60 105.5,61 105.7,62 106.2,63.4 106.6,64.8 107,66.1 107.3,67.6 
	107.3,69 107.2,69.8 106.8,70.8 106.4,71.5 105.9,72.1 105.5,72.5 105.6,72.6 106.6,72.1 107.4,71.7 108,71.1 108.5,70.3 
	108.8,69.6 109.1,68.7 109.2,67.9 109.1,67.2 108.9,66.3 108.6,65.5 108.2,64.6 107.7,63.7 107,62.6 106.5,61.6 106,60.7 
	105.7,59.9 105.5,59.1 "/>
<polygon class="st6" points="104.3,77.4 105.4,77.1 106.8,76.5 107.9,75.8 109,74.9 109.9,74.2 110.8,73.3 111.4,72.4 111.9,71.6 
	112.1,71 112.2,70.5 112.1,70 111.8,69.7 111.5,69.5 110.8,69.4 109.8,69.4 109.2,70.2 108.6,70.8 108,71.3 106.7,72.1 104.6,72.9 
	102.7,73.4 101.2,73.7 99.2,74 97.8,74.1 96,74.2 94.5,74.2 93.4,74.3 92.6,74.5 91.7,74.8 91.1,75.1 90.7,75.4 90.5,76 91.7,76.1 
	94.1,76.3 96.1,76.5 98.4,76.6 100.8,76.8 102.6,77.1 "/>
<polygon class="st7" points="108.1,81.5 108.5,80.7 108.9,79.7 109.2,78.9 109.6,78 109.9,77.2 110.5,76.4 111,75.7 111.6,75.2 
	112.2,74.7 112.8,74.2 113.4,73.6 114,73 114.4,72.5 114.7,72 114.8,71.5 114.7,70.9 114.5,70.3 113.4,69.9 111.8,69.6 112,69.9 
	112.2,70.5 112.1,71.1 111.8,71.7 111.3,72.5 110.7,73.4 109.7,74.4 108.1,75.6 106.3,76.8 105.2,77.2 104.3,77.4 105.9,78.1 
	107.1,78.9 107.7,79.6 107.9,80.1 108,80.6 108,81.1 107.9,81.4 "/>
<polygon class="st8" points="108.4,81.7 109.3,80.1 110,78.8 110.6,77.7 111.4,76.7 112.3,75.9 113.3,75.2 114.1,74.4 114.8,73.8 
	115.2,73 115.4,72.2 115.3,71.5 115,70.9 114.8,70.4 114.5,70.3 114.7,71.1 114.7,71.8 114.5,72.2 114.3,72.7 113.6,73.4 
	112.6,74.4 111.5,75.2 110.5,76.4 109.8,77.6 109.4,78.5 108.9,79.7 108.4,80.8 108.1,81.5 "/>
<polygon class="st9" points="112.3,86.8 112.5,85.2 112.5,83.4 112.5,82 112.7,80.9 113,79.7 113.6,78.6 114.3,77.6 115.2,76.2 
	115.9,74.9 116.4,73.9 116.7,73.1 116.7,72.4 116.7,72 116.4,71.4 115.9,71.1 114.8,70.4 115.2,71.3 115.3,72 115.3,72.6 
	115.2,73.2 114.6,73.9 113.8,74.8 112.5,75.8 111.5,76.6 110.6,77.7 109.7,79.2 109.1,80.4 108.4,81.7 110.6,83.7 111.4,84.8 
	111.8,85.6 "/>
<path class="st10" d="M56.2,75.1l0.6-0.3l1-0.4l0.7-0.3l0.9-0.3l0.8-0.2l0.8-0.1h0.9h0.7l0.4,0.2l0.3,0.1L63.1,74l-0.6,0.3l-0.9,0.6
	l-1.3,0.6l-0.7,0.2h-0.7l-0.5-0.1l-0.7-0.2L57,75.3L56.2,75.1z"/>
<linearGradient id="SVGID_1_" gradientUnits="userSpaceOnUse" x1="18.9" y1="61.3917" x2="108.2167" y2="61.3917" gradientTransform="matrix(1 0 0 -1 0 141.7323)">
	<stop  offset="5.161830e-03" style="stop-color:#83759C"/>
	<stop  offset="1" style="stop-color:#C7EAFB"/>
</linearGradient>
<path class="st11" d="M55.8,75.3l0.2,0.2c0.1,0.1,0.2,0.1,0.3,0.2c0,0.1,0.1,0.1,0.1,0.2c0,0.2,0.1,0.5,0.1,0.7c0,0.1,0,0.3,0,0.4
	c0,0.2-0.1,0.4-0.1,0.6c-0.1,0.2-0.2,0.4-0.3,0.6c-0.3,0.3-0.5,0.5-0.8,0.8c-0.3,0.2-0.7,0.4-1,0.5c-0.5,0.1-0.9,0.2-1.4,0.3
	c-0.4,0-0.7-0.1-1.1-0.1l-0.7-0.2l-0.6-0.3l-0.4-0.3L50,78.5l-0.1-0.3l-1.6,0.6l-2.8,0.7l-2.4,0.2h-1.7l-1.6-0.2c-0.4,0-0.7,0-1.1,0
	c-0.3-0.1-0.7-0.1-1-0.2c-0.1,0-0.2,0-0.3,0l0.1,0.6l-0.1,0.4l-0.2,0.3L37,80.7l-0.6,0.1l-0.8-0.1l-0.7-0.2l-1.1-0.3l-1-0.4L32,79.4
	l-0.5-0.6l-0.1-0.5V78l0.1-0.3c0,0,0.2-0.3,0.3-0.3l0.5-0.3c0.1,0,0.2,0,0.3,0c-0.7-0.5-1.4-0.9-2.1-1.4c-0.1,0-0.2,0-0.3,0L28.5,77
	l-1.4,1.1l-0.9,0.7l-0.4,0.3l-1,0.6L24.2,80l-0.6,0.3L22.3,81l-1.1,0.7l-0.8,0.6l-0.5,0.4c0,0-0.8,0.7-1,1.7v0.5l0.1,0.4
	c0.2,0.2,0.4,0.4,0.5,0.6c0.4,0.2,0.7,0.3,1.1,0.5c0.4,0.1,0.8,0.2,1.2,0.3c0.6,0.1,1.3,0.1,1.9,0.2c0.7,0,1.5,0,2.2,0
	c0.9-0.1,1.8-0.2,2.7-0.3c0.9,0,1.9-0.1,2.8-0.1c2-0.2,4-0.4,6-0.7c2.4-0.3,4.9-0.7,7.3-1c1.7-0.2,3.4-0.4,5.1-0.6
	c0.8-0.1,1.6-0.1,2.4-0.2c0.7,0,1.4,0,2.2-0.1c1.3,0.1,2.6,0.2,3.9,0.3c1.1,0.1,2.2,0.2,3.3,0.2c0.9,0.1,1.7,0.2,2.6,0.3
	c1.9,0.2,3.8,0.5,5.7,0.7c0.7,0,1.5,0.1,2.2,0.1c2.8,0.3,5.5,0.6,8.3,0.9c1.8,0,3.6,0.1,5.5,0.1c1.3,0,2.7,0,4,0c1,0,2,0,3,0
	c1-0.1,2-0.2,2.9-0.3c1.3-0.2,2.7-0.5,4-0.7c1-0.3,2-0.6,3.1-0.9c0.6-0.3,1.3-0.6,1.9-0.9c0.3-0.2,0.6-0.3,0.9-0.5
	c0.3-0.2,0.7-0.4,1-0.6c0.2-0.2,0.3-0.3,0.5-0.5c0.1-0.2,0.2-0.4,0.3-0.6c0.1-0.3,0.1-0.5,0.2-0.8c0-0.3-0.1-0.6-0.1-0.9
	c-0.2-0.2-0.4-0.5-0.6-0.7l-0.7-0.7c-0.2-0.1-0.4-0.2-0.6-0.2c-0.3-0.1-0.6-0.3-0.9-0.4c-0.3-0.1-0.7-0.1-1-0.2
	c-0.5-0.2-1-0.4-1.5-0.6c-1-0.1-1.9-0.1-2.9-0.2c-0.7,0-1.4-0.1-2.1-0.1c-0.8,0-1.7-0.1-2.5-0.1c-0.8-0.1-1.6-0.2-2.5-0.3
	c-0.7-0.1-1.4-0.1-2-0.2c-0.1,0-0.1,0.1-0.2,0.1l-0.9,1l-1.3,1l-1,0.5h-0.8l-0.6-0.4L85.4,78l0.1-0.2l-0.4-0.1l-0.4-0.4l-0.1-0.5
	l0.1-0.5l0.2-0.4L84,76.4l-1,0.3L80.9,77l-1.7,0l-1.3-0.2l-1-0.2L76,76.4L75.9,77l-0.3,0.7l-0.4,0.5l-0.4,0.4l-0.6,0.3l-1.2,0
	l-0.8-0.4l-0.8-0.4l-0.5-0.5l-0.4-0.3l-0.6-0.5l-0.6-0.7l-0.4-0.5l-0.3-0.5l-0.4,0.1L66,74.8l-1.4-0.5l-1.4-0.5l-0.6,0.3L61.4,75
	l-1.1,0.6c-0.1,0-0.3,0-0.4,0c-0.2,0-0.4,0.1-0.6,0.1c-0.3,0-0.5,0-0.8,0.1l-0.8-0.3l-0.8-0.2l-0.5-0.1h-0.2L55.8,75.3z"/>
<linearGradient id="SVGID_2_" gradientUnits="userSpaceOnUse" x1="18.9" y1="56.8823" x2="108.4" y2="56.8823" gradientTransform="matrix(1 0 0 -1 0 141.7323)">
	<stop  offset="0" style="stop-color:#F6A8CA"/>
	<stop  offset="4.531705e-03" style="stop-color:#F3A6C7"/>
	<stop  offset="6.508315e-02" style="stop-color:#E299BA"/>
	<stop  offset="0.1274" style="stop-color:#D992B2"/>
	<stop  offset="0.1939" style="stop-color:#D68FB0"/>
	<stop  offset="0.5003" style="stop-color:#AB84BB"/>
	<stop  offset="0.6762" style="stop-color:#6978BA"/>
	<stop  offset="0.9388" style="stop-color:#664984"/>
</linearGradient>
<path class="st12" d="M18.9,86.4l0.3-0.7c0,0,0.1,0,0.1,0c0.3,0,0.4,0.2,0.5,0.3c0.3,0.2,0.5,0.3,0.6,0.3c0.2,0.1,0.4,0.1,0.4,0.1
	c0.1,0,0.2,0,0.2,0.1c0.3,0.1,0.6,0.1,0.9,0.2c0.6,0.1,1.3,0.1,1.9,0.2c0.5,0,1.1,0,1.6,0c0.6,0,1.2,0,1.8,0c0.7,0,1.3-0.1,2-0.1
	c0.6-0.1,1.2-0.1,1.8-0.2c0.9-0.1,1.8-0.2,2.7-0.2c1-0.1,2-0.2,3-0.3c1.1-0.1,2.1-0.3,3.2-0.4c1-0.2,2.1-0.3,3.1-0.5
	c1.3-0.2,2.6-0.4,3.9-0.5c1.4-0.2,2.7-0.4,4.1-0.5c1.6,0,3.3,0,4.9,0c1.4,0.1,2.9,0.2,4.3,0.3c1.5,0.2,3,0.4,4.5,0.5
	c2.1,0.2,4.2,0.4,6.3,0.6c2.4,0.3,4.7,0.5,7.1,0.8c2.5,0.2,5,0.3,7.5,0.5c2.2-0.1,4.3-0.1,6.5-0.2c1.7-0.2,3.4-0.4,5.1-0.5
	c1.3-0.3,2.6-0.5,4-0.8c1-0.4,2.1-0.7,3.1-1.1c0.5-0.3,1-0.5,1.5-0.8c0.3-0.2,0.7-0.4,1-0.6c0.2-0.2,0.4-0.5,0.7-0.7
	c0.1-0.2,0.2-0.3,0.3-0.5c0,0,0.1,0.1,0.1,0.1c0.1,0.1,0.2,0.2,0.2,0.3c0.1,0.1,0.1,0.2,0.2,0.3c-0.2,0.4-0.3,0.8-0.5,1.2
	c-0.2,0.3-0.4,0.5-0.6,0.8c-0.3,0.3-0.6,0.5-0.9,0.8c-0.3,0.2-0.6,0.4-1,0.6c-0.4,0.2-0.8,0.4-1.3,0.6c-0.6,0.2-1.1,0.5-1.7,0.7
	c-0.4,0-0.8,0.1-1.2,0.1c-0.3,0-0.6,0-0.8,0c-0.3,0-0.5,0-0.8,0c-0.2-0.1-0.4-0.2-0.6-0.2c-0.1,0-0.2,0-0.3,0
	c-0.2,0.1-0.3,0.3-0.5,0.4c-0.3,0.1-0.6,0.2-0.8,0.3c-0.3,0.1-0.6,0.1-1,0.2c-0.3,0-0.6,0-0.9,0c-0.4,0-0.9,0.1-1.3,0.1
	c-0.5,0-0.9,0-1.4,0c-0.4,0-0.8,0.1-1.2,0.1c-0.3,0.1-0.6,0.1-0.9,0.2c-0.2,0-0.4,0.1-0.5,0.1c-0.2,0-0.4,0.1-0.6,0.1
	c-0.2,0-0.5,0-0.7,0c-0.3,0-0.7,0-1-0.1c-0.4,0-0.8-0.1-1.2-0.1c-0.4,0-0.7-0.1-1.1-0.1c-0.3,0-0.7,0-1,0c-0.3,0-0.6,0.1-1,0.1
	c-0.4,0-0.9,0.1-1.3,0.1c-0.4,0-0.8,0-1.2,0.1c-0.5,0-1.1,0-1.6-0.1c-0.5,0-0.9-0.1-1.4-0.1c-1.1-0.2-2.1-0.3-3.2-0.5
	c-0.5-0.1-1.1-0.2-1.6-0.2c-0.5-0.1-1-0.1-1.5-0.2c-0.4,0-0.7,0-1.1-0.1c-0.5,0.1-1,0.1-1.5,0.2c-0.4,0-0.7,0-1.1,0
	c-0.3,0-0.6-0.1-0.9-0.1c-0.3-0.1-0.7-0.2-1-0.3c-0.3-0.2-0.6-0.4-0.9-0.6c-0.5-0.4-0.9-0.7-1.3-1.1c0.2,0.2,0.5,0.3,0.7,0.5
	c-0.2-0.1-0.4-0.2-0.6-0.2c-0.2-0.1-0.4-0.1-0.6-0.2c-0.2,0-0.4,0-0.6,0c-0.2,0-0.4,0-0.6,0c-0.4,0-0.8,0.1-1.2,0.1
	c-0.4,0-0.8,0.1-1.2,0.1c-0.4,0-0.8,0.1-1.2,0.1c-0.4,0-0.8,0-1.2,0c-0.5-0.1-1.1-0.2-1.6-0.2c-0.4-0.1-0.9-0.2-1.3-0.2
	c-0.4,0-0.8-0.1-1.3-0.1c-0.5,0-1.1,0-1.6,0c-0.6,0.1-1.2,0.2-1.8,0.3c-0.7,0.2-1.4,0.3-2.1,0.5c-0.4,0.1-0.9,0.2-1.3,0.3
	c-0.3,0-0.6,0.1-0.9,0.1c-0.2,0-0.5,0-0.7,0c-0.3,0-0.5,0-0.8-0.1c-0.2,0-0.5-0.1-0.7-0.1c-0.2,0-0.3,0-0.5,0c-0.2,0-0.4,0-0.6,0
	c-0.3,0.1-0.7,0.2-1,0.3c-0.4,0.1-0.9,0.3-1.3,0.4c-0.3,0-0.6,0-0.9-0.1c-0.3,0-0.6-0.1-0.9-0.1c-0.2,0-0.4-0.1-0.7-0.1
	c-0.2,0-0.4,0-0.6,0c-0.2,0.1-0.4,0.1-0.6,0.2c-0.1,0.1-0.3,0.1-0.4,0.2c-0.1,0.1-0.3,0.1-0.4,0.2c-0.1,0.1-0.2,0.2-0.2,0.2
	c-0.1,0-0.3,0-0.4,0.1c-0.2,0-0.3-0.1-0.5-0.1c-0.2-0.1-0.4-0.1-0.6-0.2c-0.1,0-0.3-0.1-0.4-0.1c-0.2,0-0.3,0-0.5,0
	c-0.2,0.1-0.5,0.1-0.7,0.2c-0.3,0.1-0.6,0.2-1,0.3c-0.2,0.1-0.4,0.1-0.7,0.2c-0.2,0-0.4,0.1-0.6,0.1c-0.1-0.1-0.3-0.2-0.4-0.3
	l-0.5-0.2c-0.1,0-0.2,0-0.3,0c-0.1,0-0.3,0-0.4-0.1c-0.1,0-0.2,0-0.4,0.1c-0.2,0.1-0.5,0.2-0.7,0.4c-0.2,0.1-0.5,0.2-0.7,0.3
	c-0.2,0-0.4,0-0.6,0c-0.2-0.1-0.4-0.1-0.6-0.2c-0.2-0.1-0.5-0.2-0.7-0.3c-0.3-0.1-0.6-0.2-0.9-0.2c-0.2,0-0.4-0.1-0.6-0.1
	c-0.5,0-1.1-0.1-1.6-0.1c-0.3,0-0.6-0.1-0.9-0.1c-0.4-0.1-0.7-0.2-1.1-0.3C19.4,86.7,19.1,86.5,18.9,86.4z"/>
<path class="st13" d="M18.8,86.6l-0.4,0.8l-0.6,1.2l-0.3,0.8l-0.2,0.8l-0.1,0.6c0,0,0.1,0.6,0,0.6s0.1,0.6,0.1,0.6l0.2,0.9l0.1,0.5
	l0.5,0.1l3.4-0.6l3.1-0.7l2.4-0.6l2.5-0.7c0,0,2.2-0.6,2.3-0.6l1.8-0.4l3.3-0.2l3.4,0.5l2.9,0.6l4.4,1.3l3.9,0.9l4.9,0.9l3.5,0.3
	l4.3,0.2h1.6l4.9-0.3l6.6-0.5l6.9-0.8l6.6-0.8l6.2-0.6l1.6,0.1l2.8,0.5l2.2,0.5l1.5,0.2l0.7-0.2l1.3-0.5l1-0.4l1.1-0.6l0.9-0.6
	l0.4-0.3l0.5-0.4l0.5-0.6l0.4-0.8l0.2-1.1v-0.8l-0.4-1.1l-0.7-1l-0.6-0.8l-1.1-1.1l-0.7-0.6l-0.8-0.6l-0.1,0.3c0,0-0.2,0.4-0.1,0.4
	l-0.2,0.6l-0.4,0.6l-1.5,1.2l-1.2,0.8l-1.5,0.7l-1.2,0.4l-0.9,0.1h-0.9l-0.6-0.1l-0.8-0.3l-0.5,0.5L97.5,87l-0.6,0.2l-1.1,0.2
	l-1.2,0.1h-1.5l-0.9,0.1l-0.8,0.1l-0.7,0.1L90.2,88l-0.4,0l-0.6,0.1h-0.9L87.4,88l-0.9-0.1l-0.9-0.1h-1L83,87.9L81.6,88h-1.4
	l-1.4-0.1L77,87.7l-2-0.3L73,87l-1.8-0.2h-1.3h-1.2h-1.1l-1.1-0.3l-0.7-0.3l-0.6-0.4l-0.8-0.6L64,84.9l-0.6-0.1h-0.6l-0.7,0.1
	L61.2,85l-1.3,0.2l-1.2,0.1h-1.2l-1-0.1L55.4,85l-1-0.2l-1.2-0.1l-1.3,0.1l-1.1,0.1l-2.7,0.6l-1.7,0.3L45.3,86h-0.6l-0.6-0.1
	l-0.6-0.1h-0.6h-0.6l-0.6,0.1L41,86.2l-0.7,0.2l-0.7,0.1l-0.6,0l-0.8-0.1l-0.6-0.1l-0.4-0.1l-0.4,0.1l-0.4,0.2L36,86.7L35.7,87
	l-0.3,0.2L35,87.3l-0.3-0.1l-0.4-0.1l-0.4-0.2l-0.4-0.2h-0.3L33,86.8l-0.7,0.3l-0.7,0.3l-0.9,0.3l-0.5,0.1h-0.4l-0.3-0.3L29,87.3
	l-0.4-0.1h-0.3l-0.4,0.1l-0.5,0.3l-0.5,0.2L26.5,88H26l-0.6-0.2l-0.7-0.2L24,87.3l-0.7-0.1h-0.7l-1-0.1l-1.3-0.2l-0.8-0.2l-0.6-0.3
	L18.8,86.6z"/>
<linearGradient id="SVGID_3_" gradientUnits="userSpaceOnUse" x1="5.3" y1="52.5823" x2="136.6" y2="52.5823" gradientTransform="matrix(1 0 0 -1 0 141.7323)">
	<stop  offset="0" style="stop-color:#004C93"/>
	<stop  offset="0.6735" style="stop-color:#4AB1E4"/>
</linearGradient>
<path class="st14" d="M19.3,85.7L19,85.3l-0.1-0.6l0.1-0.5l0.2-0.5l0.8-1l1.3-1l1.2-0.7l1-0.5l0.8-0.4l1-0.6l0.5-0.5l-1.4,0.3
	l-1.9,0.5l-2,0.5l-2.1,0.6l-1.9,0.7L15,82.2l-3.1,1.3l-2.4,1.3l-0.8,0.5l-1.3,1.1l-0.8,0.9l-0.7,0.9l-0.4,0.9L5.3,90
	c0,0,0,0.7,0,0.8c0,0.1,0.2,0.7,0.2,0.7L6,92.7l0.7,0.9l0.7,0.8l1.4,1.1l3.8,2.1l2.4,1l2.6,0.9l5.8,1.7l7.4,1.5l7.9,1.3l8.7,0.9
	l9,0.6l9.3,0.4H75l9.3-0.3l8.3-0.6l10.6-1.2l6.6-1l6.2-1.2l5.4-1.4l3.8-1.2l4.5-1.8L132,96l1.9-1.3l1.1-1l0.7-0.8l0.5-0.9l0.3-0.9
	l0.1-1l-0.1-0.8l-0.4-1.1l-1.5-1.9l-1.3-1l-2.2-1.3l-2.2-1.1l-2.6-1.1l-2-0.7l-1.5-0.5l-1.1-0.3l-0.4-0.2l3.3-0.5l3.1-0.5l2.3-0.5
	l1.6-0.6l1.2-0.6l0.5-0.4l0.3-0.4l-0.1-0.3l-0.3-0.4l-0.6-0.4l-1.2-0.6l-2.4-0.7c0,0-3.8-0.8-3.8-0.7l-3.1-0.5l-2.1-0.2l-1.6-0.2
	l-1.6-0.2l-0.1,0.4l-0.1,0.6l-0.3,0.8l-0.4,0.8l-0.5,0.9l-0.5,0.8l-1.2,1.8l-0.5,0.8l-0.3,0.7l-0.2,0.8l-0.1,0.6l-0.1,1.2v1.2v1.1
	v0.9l-0.1,0.7V87l-0.1,0.8l-0.3,0.8l-0.4,0.7l-0.4,0.4l-0.5,0.4l-1,0.7l-1.4,0.8l-1.3,0.5l-0.5,0.3l-0.8,0.2l-0.4,0.2l-1.4-0.2
	l-1.7-0.4l-1.7-0.5l-1.9-0.3l-1.5-0.1l-1.2,0.1L89.8,92l-6.4,0.7L77,93.5l-8.1,0.6L60.4,94l-4,0l-5.3-0.9L46,91.7l-4.2-1.3l-3.1-0.5
	l-2.8-0.2l-2.3,0.2l-2.4,0.6c0,0-2.4,0.6-2.3,0.6s-5.5,1.5-5.5,1.5l-2.8,0.6l-3,0.5l-0.3-0.9l-0.1-1l0.1-1.1l0.4-1.4l0.6-1.4
	L19.3,85.7z"/>
<linearGradient id="SVGID_4_" gradientUnits="userSpaceOnUse" x1="58.089" y1="51.7323" x2="63.332" y2="51.7323" gradientTransform="matrix(1 0 0 -1 0 141.7323)">
	<stop  offset="0" style="stop-color:#F38DBA"/>
	<stop  offset="3.070749e-02" style="stop-color:#E999BD"/>
	<stop  offset="7.011200e-02" style="stop-color:#E3A6C2"/>
	<stop  offset="0.1104" style="stop-color:#DEAFC5"/>
	<stop  offset="0.1518" style="stop-color:#DBB4C7"/>
	<stop  offset="0.1959" style="stop-color:#DAB6C7"/>
	<stop  offset="0.2659" style="stop-color:#D3B0C6"/>
	<stop  offset="0.5003" style="stop-color:#AB84BB"/>
	<stop  offset="0.6762" style="stop-color:#6978BA"/>
	<stop  offset="0.9388" style="stop-color:#664984"/>
</linearGradient>
<polygon class="st15" points="58.4,90.2 58.1,89.7 58.1,89 58.2,88.5 58.6,88.1 59,87.8 59.4,87.6 60.2,87.4 60.9,87.4 61.6,87.6 
	62.2,87.8 62.7,88.3 63,88.8 63.2,89.3 63.3,90 63.3,90.6 63.2,91 62.9,91.7 62.5,92.1 62,92.4 61.5,92.5 60.9,92.6 60.5,92.5 
	59.9,92.3 59.3,91.9 59,91.5 58.6,90.9 58.4,90.4 "/>
<path class="st16" d="M59.9,91l-0.2-0.5L59.5,90v-0.5l0.2-0.4l0.3-0.3l0.7-0.3h0.5l0.5,0.1l0.4,0.2l0.3,0.3l0.2,0.3l0.2,0.4v0.4
	l-0.1,0.4l-0.1,0.3c0,0.1-0.1,0.3-0.1,0.3l-0.3,0.3l-0.4,0.3L61.6,92h-0.4h-0.4l-0.5-0.3L60,91.5L59.9,91z"/>
<path class="st10" d="M61.6,91.8l-0.5-0.3l-0.5-0.4l-0.3-0.4l-0.2-0.4l-0.2-0.4l-0.1-0.5L60,89l0.2-0.2l0.3-0.1l0.4,0.2l0.4,0.3
	l0.4,0.4l0.4,0.4l0.2,0.3c0,0,0.2,0.2,0.2,0.3c0,0.1,0.1,0.2,0.1,0.2L62.5,91l-0.3,0.3l-0.3,0.2l-0.2,0.1L61.6,91.8z"/>
<path class="st0" d="M62.1,91.4l-0.3,0.1l-0.3-0.1l-0.3-0.2l-0.1-0.3l0.1-0.3l0.1-0.1l0.3,0.1c0,0,0.2,0.2,0.3,0.3
	c0,0.1,0.2,0.3,0.2,0.3V91.4z"/>
<path class="st17" d="M24.6,50.1l-0.3-0.6l-0.4-0.8l-0.6-1.1l-0.5-1l-0.5-1.1L22,44.3l-0.2-0.8v-0.9l0.1-0.9l0.1-0.8l0.3-0.8
	l0.3-0.6l0.6-0.6l0.5-0.2H24l0.6,0.2L25,39l0.6,0.4l0.5,0.6l0.4,0.6l0.3,0.5c0.2,0.3,0.4,0.5,0.5,0.8c0.2,0.1,0.4,0.3,0.6,0.4
	c0.3,0.1,0.6,0.1,0.9,0.2c0.3,0,0.6-0.1,1-0.1c0.3-0.1,0.6-0.1,0.9-0.2c0.2,0,0.3,0,0.5,0c0.2,0,0.3,0,0.5,0.1l0.4,0.3l0.2,0.3
	l0.1,0.4v0.4L32.2,44c0,0.1,0,0.3,0,0.4c-0.1,0.2-0.1,0.4-0.2,0.6c0,0-0.2,0.3-0.3,0.4l-5.3,7.2l-0.2-0.7L26,51.4L25.7,51l-0.2-0.3
	l-0.2-0.2l-0.2-0.2L25,50.2L24.6,50.1z"/>
<path class="st18" d="M25.4,49.8l-0.1-0.7l-0.2-1l-0.1-1v-0.8l0.1-0.8l0.2-0.8l0.3-0.8c0,0,0.4-0.5,0.4-0.6l0.3-0.3l0.4,0.1
	c0.1,0.1,0.2,0.2,0.3,0.3c0.1,0,0.1,0.1,0.2,0.3c0.1,0.2,0.1,0.3,0.1,0.4c0,0.2-0.1,0.4-0.1,0.6c0,0.1-0.1,0.3-0.1,0.4l-0.2,0.6
	l-0.3,0.8l-0.3,0.8l-0.4,0.9l-0.2,0.8L25.4,49.8z"/>
<path class="st18" d="M25.9,50.7l0.1-0.5l0.2-0.6l0.2-0.3l0.3-0.2l0.4-0.2h0.3l0.1,0.2c0,0-0.1,0.2-0.1,0.3l-0.2,0.4L27,50.1
	l-0.3,0.2l-0.3,0.2L26,50.7H25.9z"/>
<path class="st19" d="M24.8,55.5l-0.5,0.1L24,55.5h-0.3h-0.4l-0.4-0.1l-0.2-0.2l-0.3-0.3l-0.1-0.4l-0.1-0.4c0,0,0-0.5,0.1-0.6
	c0.1,0,0.1-0.6,0.1-0.6s0.3-0.6,0.3-0.7c0-0.1,0.3-0.7,0.4-0.7c0.1-0.1,0.4-0.5,0.4-0.5l0.4-0.4l0.6-0.3l0.4-0.1l0.3,0.1l0.4,0.2
	l0.3,0.4l0.3,0.4l0.2,0.5l0.1,0.4l0.1,0.5l-1,1.3l-0.4,0.9L24.8,55.5z"/>
<path class="st20" d="M25.1,54.9l-0.4,0.2h-0.3c0,0-0.3-0.1-0.4,0c-0.1,0.1-0.4,0-0.4,0l-0.3-0.2L23,54.7l-0.2-0.3l-0.1-0.3l0.1-0.3
	l0.3-0.3c0.1,0,0.4-0.2,0.4-0.2l0.5-0.1l0.5,0.2c0,0,0.3,0.2,0.4,0.3l0.3,0.3l0.2,0.3l-0.2,0.4L25.1,54.9z"/>
<path class="st21" d="M25.7,53.7l-0.1-0.5l-0.3-0.5L25,52.4l-0.3-0.2l-0.4-0.1L23.9,52h-0.5L23,52.2l-0.2,0.1l-0.3,0.3l0.3-0.6
	l0.3-0.5l0.3-0.5l0.3-0.4c0.1,0,0.3-0.2,0.4-0.2c0,0,0.2-0.1,0.3-0.2c0.1,0,0.5-0.1,0.5-0.1l0.4,0.1l0.3,0.3l0.2,0.3l0.3,0.5
	l0.2,0.4l0.1,0.4l0.1,0.3v0.2c0,0-0.3,0.3-0.3,0.4l-0.3,0.5L25.7,53.7z"/>
<path class="st22" d="M22.2,54.5l-0.3,0.2l-0.4,0.2l-0.8,0.5l-0.8,0.4l-0.8,0.5l-0.9,0.6l-0.6,0.5L16.9,58l-0.6,0.6l-0.7,0.9
	L15,60.4l-0.4,0.8L14.2,62l-0.4,0.9v0.9c0,0,0.1,0.7,0.2,0.8c0,0.1,0.5,0.6,0.5,0.6l0.5,0.3l0.6,0.2h0.7c0.1,0,0.3,0.1,0.5,0
	c0.2-0.1,0.4-0.2,0.5-0.3c0.4-0.2,0.7-0.4,1.1-0.6c0.3-0.3,0.7-0.6,1-0.8c0.3-0.2,0.6-0.5,0.9-0.7c0.3-0.2,0.6-0.4,0.9-0.6
	c0.3-0.1,0.5-0.2,0.8-0.3c0.2,0,0.3,0,0.5,0c0.1-0.1,0.2-0.1,0.3-0.2l0.5,0.1h0.2l0.1-1.2c0.1-0.5,0.1-1.1,0.2-1.6
	c0.1-0.4,0.2-0.8,0.3-1.2c0.1-0.3,0.2-0.6,0.2-0.9c0.1-0.4,0.2-0.7,0.3-1.1c0,0,0.1,0,0.1-0.1c0.1-0.1,0.1-0.3,0.1-0.4
	c0,0,0.1-0.1,0.1-0.2c0-0.1-0.1-0.2-0.1-0.2c0.1,0-0.2,0-0.2,0h-0.3h-0.2h-0.4h-0.3h-0.3l-0.4-0.1l-0.2-0.2l-0.2-0.2L22.2,54.5z"/>
<path class="st18" d="M21.9,59.9l0.2-0.9l0.3-0.6l0.5-0.7c0,0,0.3-0.5,0.3-0.6s0.4-0.6,0.4-0.6l0.2-0.4l-0.2,0.6l-0.1,0.6l-0.1,0.6
	c0,0-0.1,0.7,0,0.7c0,0-0.1,0.4-0.1,0.5s-0.1,0.4-0.1,0.5L23,60.1l-0.3,0.5l-0.4,0.2h-0.2l-0.2-0.2l-0.1-0.4L21.9,59.9z"/>
<path class="st10" d="M25.4,50.2L25,49.1l-0.5-2l-0.2-2.3l0.3-1.8l0.6-1.5l0.7-1l0.2-0.4l-0.6-0.8l-0.9-0.5l-0.9-0.2l-0.6,0.2
	c-0.2,0.2-0.4,0.4-0.5,0.6c-0.2,0.3-0.3,0.6-0.5,0.9l-0.3,1.3c0,0.4,0,0.9,0,1.3c0.1,0.6,0.2,1.2,0.3,1.8l0.5,1.6l1,2.2l1,1.6
	l0.4,0.1l0.4,0.2V50.2z"/>
<linearGradient id="SVGID_5_" gradientUnits="userSpaceOnUse" x1="63.4615" y1="54.7488" x2="63.4615" y2="67.92" gradientTransform="matrix(1 0 0 -1 0 141.7323)">
	<stop  offset="0.3035" style="stop-color:#FFFFFF;stop-opacity:0.4"/>
	<stop  offset="0.4621" style="stop-color:#FFFAFC;stop-opacity:0.2953"/>
	<stop  offset="0.9857" style="stop-color:#F6ADCD;stop-opacity:0"/>
</linearGradient>
<path class="st23" d="M55.9,75.3l0.2,0.2l0.3,0.6v0.4c0,0,0.1,0.5,0,0.5l-0.2,0.6l-0.3,0.5L55,79l-0.9,0.5l-1.2,0.3h-1l-0.7-0.2
	l-0.6-0.3L50.2,79L50,78.7l-0.1-0.4l-1.6,0.6l-2.8,0.7l-2.4,0.2h-1.7l-1.6-0.2l-1.3-0.3L37.4,79l0.1,0.4l0.1,0.6l-0.1,0.4l-0.2,0.3
	l-0.4,0.1l-0.6,0.1l-0.8-0.1l-0.7-0.2l-1.1-0.3l-1-0.4l-0.6-0.4l-0.5-0.6l-0.1-0.5v-0.3l0.1-0.3c0,0,0.2-0.3,0.3-0.3l0.5-0.3
	l0.6-0.2l-2.2-1.5l-0.5,0.3L28.6,77l-1.4,1.1l-0.9,0.7l-0.4,0.3l-1,0.6l-0.7,0.3l-0.6,0.3l-1.2,0.7l-1.1,0.7l-0.8,0.6L20,82.8
	c0,0-0.8,0.7-1,1.7v0.5l0.1,0.4l0.4,0.4l1.3,0.6l1.2,0.2l2,0.2h2.2l2.6-0.1l2.8-0.3l6-0.7l7.4-1l5-0.7l2.5-0.2h2.1l4.1,0.2l3.3,0.3
	l2.5,0.3l6.1,0.7l1.8,0.2l8.3,0.7l5.4,0.2h4.1l2.9-0.1l2.9-0.3l4.2-0.7l2.9-0.8l1.9-0.8l1.1-0.6l0.9-0.7l0.5-0.6l0.3-0.6l0.1-0.7
	l0-0.4l-0.4-0.7l-0.7-0.7l-0.8-0.5l-1-0.5l-0.8-0.2l-1.6-0.4l-3-0.4l-2.1-0.1l-2.4-0.2l-2.5-0.2l-2-0.2l-0.1,0.3l-0.9,1l-1.3,1
	l-1,0.5h-0.8l-0.6-0.4l-0.4-0.3l0.1-0.2l-0.4-0.1l-0.4-0.4l-0.1-0.5l0.1-0.5l0.1-0.3l-0.8,0.5l-1,0.3l-2.2,0.3L79.2,77l-1.3-0.2
	l-1-0.2L76,76.4L75.9,77l-0.3,0.7l-0.4,0.5l-0.4,0.4L74.2,79l-1.1,0.1l-0.8-0.4l-0.8-0.4L71,77.8l-0.4-0.3L70,76.9l-0.6-0.7L69,75.7
	l-0.3-0.5l-0.4,0.1l-2.2-0.4l-1.4-0.5l-1.4-0.5l-0.6,0.3L61.4,75l-1.1,0.6l-0.5,0.2l-0.6,0.1l-0.7-0.1l-0.8-0.3l-0.8-0.2l-0.5-0.1
	h-0.2L55.9,75.3z"/>
<linearGradient id="SVGID_6_" gradientUnits="userSpaceOnUse" x1="64.636" y1="47.2117" x2="64.636" y2="60.2501" gradientTransform="matrix(1 0 0 -1 0 141.7323)">
	<stop  offset="0" style="stop-color:#C2D6EF"/>
	<stop  offset="1" style="stop-color:#2484C6;stop-opacity:0.2"/>
</linearGradient>
<path class="st24" d="M18.8,86.6l-0.4,0.8l-0.6,1.2l-0.3,0.8l-0.2,0.8l-0.1,0.6c0,0,0.1,0.6,0,0.6s0.1,0.6,0.1,0.6l0.2,0.9l0.1,0.5
	l0.5,0.1l3.4-0.6l3.1-0.7l2.4-0.6l2.5-0.7c0,0,2.2-0.6,2.3-0.6l1.8-0.4l3.3-0.2l3.4,0.5l2.9,0.6l4.4,1.3l3.9,0.9l4.9,0.9l3.5,0.3
	l4.3,0.2h1.6l4.9-0.3l6.6-0.5l6.9-0.8l6.6-0.8l6.2-0.6l1.6,0.1l2.8,0.5l2.2,0.5l1.5,0.2l0.7-0.2l1.3-0.5l1-0.4l1.1-0.6l0.9-0.6
	l0.4-0.3l0.5-0.4l0.5-0.6l0.4-0.8l0.2-1.1v-0.8l-0.4-1.1l-0.7-1l-0.6-0.8l-1.1-1.1l-0.7-0.6l-0.8-0.6l-0.1,0.3c0,0-0.2,0.4-0.1,0.4
	l-0.2,0.6l-0.4,0.6l-1.5,1.2l-1.2,0.8l-1.5,0.7l-1.2,0.4l-0.9,0.1h-0.9l-0.6-0.1l-0.8-0.3l-0.5,0.5L97.5,87l-0.6,0.2l-1.1,0.2
	l-1.2,0.1h-1.5l-0.9,0.1l-0.8,0.1l-0.7,0.1L90.2,88l-0.4,0l-0.6,0.1h-0.9L87.4,88l-0.9-0.1l-0.9-0.1h-1L83,87.9L81.6,88h-1.4
	l-1.4-0.1L77,87.7l-2-0.3L73,87l-1.8-0.2h-1.3h-1.2h-1.1l-1.1-0.3l-0.7-0.3l-0.6-0.4l-0.8-0.6L64,84.9l-0.6-0.1h-0.6l-0.7,0.1
	L61.2,85l-1.3,0.2l-1.2,0.1h-1.2l-1-0.1L55.4,85l-1-0.2l-1.2-0.1l-1.3,0.1l-1.1,0.1l-2.7,0.6l-1.7,0.3L45.3,86h-0.6l-0.6-0.1
	l-0.6-0.1h-0.6h-0.6l-0.6,0.1L41,86.2l-0.7,0.2l-0.7,0.1l-0.6,0l-0.8-0.1l-0.6-0.1l-0.4-0.1l-0.4,0.1l-0.4,0.2L36,86.7L35.7,87
	l-0.3,0.2L35,87.3l-0.3-0.1l-0.4-0.1l-0.4-0.2l-0.4-0.2h-0.3L33,86.8l-0.7,0.3l-0.7,0.3l-0.9,0.3l-0.5,0.1h-0.4l-0.3-0.3L29,87.3
	l-0.4-0.1h-0.3l-0.4,0.1l-0.5,0.3l-0.5,0.2L26.5,88H26l-0.6-0.2l-0.7-0.2L24,87.3l-0.7-0.1h-0.7l-1-0.1l-1.3-0.2l-0.8-0.2l-0.6-0.3
	L18.8,86.6z"/>
<linearGradient id="SVGID_7_" gradientUnits="userSpaceOnUse" x1="70.95" y1="35.7451" x2="70.95" y2="69.2451" gradientTransform="matrix(1 0 0 -1 0 141.7323)">
	<stop  offset="0" style="stop-color:#FFFFFF"/>
	<stop  offset="0.3836" style="stop-color:#2484C6;stop-opacity:0"/>
</linearGradient>
<path class="st25" d="M19.3,85.7L19,85.3l-0.1-0.6l0.1-0.5l0.2-0.5l0.8-1l1.3-1l1.2-0.7l1-0.5l0.8-0.4l1-0.6l0.5-0.5l-1.4,0.3
	l-1.9,0.5l-2,0.5l-2.1,0.6l-1.9,0.7L15,82.2l-3.1,1.3l-2.4,1.3l-0.8,0.5l-1.3,1.1l-0.8,0.9l-0.7,0.9l-0.4,0.9L5.3,90
	c0,0,0,0.7,0,0.8c0,0.1,0.2,0.7,0.2,0.7L6,92.7l0.7,0.9l0.7,0.8l1.4,1.1l3.8,2.1l2.4,1l2.6,0.9l5.8,1.7l7.4,1.5l7.9,1.3l8.7,0.9
	l9,0.6l9.3,0.4H75l9.3-0.3l8.3-0.6l10.6-1.2l6.6-1l6.2-1.2l5.4-1.4l3.8-1.2l4.5-1.8L132,96l1.9-1.3l1.1-1l0.7-0.8l0.5-0.9l0.3-0.9
	l0.1-1l-0.1-0.8l-0.4-1.1l-1.5-1.9l-1.3-1l-2.2-1.3l-2.2-1.1l-2.6-1.1l-2-0.7l-1.5-0.5l-1.1-0.3l-0.4-0.2l3.3-0.5l3.1-0.5l2.3-0.5
	l1.6-0.6l1.2-0.6l0.5-0.4l0.3-0.4l-0.1-0.3l-0.3-0.4l-0.6-0.4l-1.2-0.6l-2.4-0.7c0,0-3.8-0.8-3.8-0.7l-3.1-0.5l-2.1-0.2l-1.6-0.2
	l-1.6-0.2l-0.1,0.4l-0.1,0.6l-0.3,0.8l-0.4,0.8l-0.5,0.9l-0.5,0.8l-1.2,1.8l-0.5,0.8l-0.3,0.7l-0.2,0.8l-0.1,0.6l-0.1,1.2v1.2v1.1
	v0.9l-0.1,0.7V87l-0.1,0.8l-0.3,0.8l-0.4,0.7l-0.4,0.4l-0.5,0.4l-1,0.7l-1.4,0.8l-1.3,0.5l-0.5,0.3l-0.8,0.2l-0.4,0.2l-1.4-0.2
	l-1.7-0.4l-1.7-0.5l-1.9-0.3l-1.5-0.1l-1.2,0.1L89.8,92l-6.4,0.7L77,93.5l-8.1,0.6L60.4,94l-4,0l-5.3-0.9L46,91.7l-4.2-1.3l-3.1-0.5
	l-2.8-0.2l-2.3,0.2l-2.4,0.6c0,0-2.4,0.6-2.3,0.6s-5.5,1.5-5.5,1.5l-2.8,0.6l-3,0.5l-0.3-0.9l-0.1-1l0.1-1.1l0.4-1.4l0.6-1.4
	L19.3,85.7z"/>
<linearGradient id="SVGID_8_" gradientUnits="userSpaceOnUse" x1="71.25" y1="42.4265" x2="71.25" y2="63.7199" gradientTransform="matrix(1 0 0 -1 0 141.7323)">
	<stop  offset="0" style="stop-color:#FFFFFF"/>
	<stop  offset="0.3836" style="stop-color:#2484C6;stop-opacity:0"/>
</linearGradient>
<path class="st26" d="M129,90.1c-0.1-0.4-0.2-0.9-0.3-1.3c-0.5-0.5-1-1-1.6-1.3s-1.2-0.6-1.8-0.9c-1.6-0.4-3.2-0.7-4.8-0.9
	c-3-0.5-6-0.7-9-0.9c-1.3-0.1-2.5-0.1-3.8-0.1c-0.3,0-0.7,0-1,0v0.7v0.7v0.6l-0.1,0.4v0.3l-0.1,0.5l-0.3,0.5l-0.3,0.4l-0.4,0.3
	l-0.5,0.3l-1,0.4l-1.3,0.5l-1.3,0.3l-0.5,0.2l-0.7,0.2l-0.5,0l-1.4-0.1l-1.7-0.3L95,90.4l-1.9-0.2h-1.5l-1.2,0.1l-5.9,0.4l-6.2,0.5
	l-6.2,0.5L64.3,92l-8.2-0.1l-3.6-0.2l-5.1-0.6l-5-0.9l-4-0.8l-2.8-0.3c-3.9,0.9-7.5,2.7-11.5,2.9c-1.6,0.6-3.3,1-5,1.1
	c-0.9,0.2-1.9,0.4-2.8,0.5c-0.6,0.1-1.4,0.3-2,0c-0.3,0.1-0.7,0.2-1,0.3c0,0.1,0.1,0.2,0.1,0.3c0.2,0.3,0.5,0.6,0.8,0.8l1.1,0.3
	l5.6,1.1l7.1,1l7.7,0.8l8.4,0.6l8.7,0.4l9,0.2h9l9-0.2l8-0.4l10-0.8l6.4-0.6l6-0.8l5.2-0.9L119,95l4.3-1.1l2.2-0.8l1.8-0.8l1.1-0.6
	l0.7-0.5c0-0.3,0.1-0.6,0.1-0.9C129,90.2,129,90.1,129,90.1z"/>
<path class="st27" d="M61.6,91.9l-0.5-0.3l-0.5-0.4l-0.3-0.4l-0.2-0.4L59.9,90l-0.1-0.5l0.2-0.4l0.2-0.2l0.3-0.1l0.4,0.2l0.4,0.3
	l0.4,0.4l0.4,0.4l0.2,0.3c0,0,0.2,0.2,0.2,0.3c0,0.1,0.1,0.2,0.1,0.2l-0.1,0.2l-0.3,0.3L62,91.9L61.8,92L61.6,91.9z"/>
<polygon class="st28" points="62.1,91.4 61.8,91.5 61.5,91.4 61.3,91.2 61.1,91 61.1,90.7 61.2,90.4 61.3,90.4 61.6,90.6 61.8,90.9 
	62,91.1 62.1,91.3 "/>
<linearGradient id="SVGID_9_" gradientUnits="userSpaceOnUse" x1="64.749" y1="47.0163" x2="64.749" y2="59.5608" gradientTransform="matrix(1 0 0 -1 0 141.7323)">
	<stop  offset="0" style="stop-color:#C2D6EF"/>
	<stop  offset="1" style="stop-color:#2484C6;stop-opacity:0.2"/>
</linearGradient>
<path class="st29" d="M18.8,86.8l-0.4,0.8l-0.6,1.2l-0.3,0.8l-0.2,0.8L17.2,91c0,0,0.1,0.6,0,0.6s0.1,0.6,0.1,0.6l0.2,0.9l0.1,0.5
	l0.5,0.1l3.4-0.6l3.1-0.7l2.4-0.6l2.5-0.7c0,0,2.2-0.6,2.3-0.6l1.8-0.4l3.3-0.2l3.4,0.5l2.9,0.6l4.4,1.3l3.9,0.9l4.9,0.9l3.5,0.3
	l4.3,0.2h1.6l4.9-0.3l6.6-0.5l6.9-0.8l6.6-0.8l6.2-0.6l1.6,0.1l2.8,0.5l2.2,0.5l1.5,0.2l0.7-0.2l1.3-0.5l1-0.4l1.1-0.6l0.9-0.6
	l0.4-0.3l0.5-0.4l0.5-0.6c0.2-0.2,0.3-0.4,0.5-0.6c0.1-0.4,0.2-0.9,0.3-1.3c-0.1-0.3-0.2-0.5-0.2-0.8l-0.4-1.1l-0.7-1l-0.6-0.8
	l-1.1-1.1l-0.7-0.6c-0.1,0-0.1-0.1-0.2-0.1c-0.1,0-0.1,0.1-0.2,0.1c0,0.1,0,0.2,0,0.3c0,0.1,0,0.2,0,0.2c-0.1,0.3-0.2,0.5-0.2,0.8
	c-0.2,0.3-0.4,0.6-0.6,0.8c-0.5,0.3-0.9,0.6-1.4,0.9c-0.4,0.2-0.8,0.5-1.2,0.7c-0.5,0.3-1.1,0.6-1.6,1c-0.5,0.1-0.9,0.2-1.4,0.2
	c-0.3,0-0.7,0.1-1,0.1c-0.4,0-0.7,0-1.1,0c-0.2-0.1-0.4-0.2-0.6-0.2c-0.1-0.1-0.2-0.1-0.3-0.2c-0.1,0.2-0.3,0.3-0.4,0.5
	c-0.3,0.1-0.6,0.2-0.9,0.3c-0.2,0-0.5,0.1-0.7,0.1c-0.4,0.1-0.7,0.2-1.1,0.2c-0.4,0-0.8,0-1.2,0c-0.5-0.1-1-0.1-1.5-0.2l-0.9,0.1
	l-0.8,0.1L90.7,88l-0.5,0.2l-0.4,0l-0.6,0.1h-0.9l-0.9-0.1l-0.9-0.1L85.6,88h-1L83,88.1l-1.4,0.1h-1.4l-1.4-0.1L77,87.9l-2-0.3
	l-2-0.4L71.2,87h-1.3h-1.2h-1.1l-1.1-0.3l-0.7-0.3L65.2,86l-0.8-0.6L64,85.1L63.4,85h-0.6l-0.7,0.1l-0.9,0.1l-1.3,0.2l-1.2,0.1h-1.2
	l-1-0.1l-1.1-0.2l-1-0.2l-1.2-0.1L51.9,85l-1.1,0.1l-2.7,0.6L46.4,86l-1.1,0.2h-0.6l-0.6-0.1L43.5,86h-0.6h-0.6l-0.6,0.1L41,86.4
	l-0.7,0.2l-0.7,0.1l-0.6,0l-0.8-0.1l-0.6-0.1l-0.4-0.1l-0.4,0.1l-0.4,0.2L36,86.9l-0.3,0.3l-0.3,0.2L35,87.5l-0.3-0.1l-0.4-0.1
	l-0.4-0.2l-0.4-0.2h-0.3L33,87l-0.7,0.3l-0.7,0.3l-0.9,0.3L30.2,88h-0.4l-0.3-0.3L29,87.5l-0.4-0.1h-0.3l-0.4,0.1l-0.5,0.3L26.9,88
	l-0.4,0.2H26L25.4,88l-0.7-0.2L24,87.5l-0.7-0.1h-0.7l-1-0.1l-1.3-0.2l-0.8-0.2C19.3,86.9,19,86.8,18.8,86.8z"/>
<linearGradient id="SVGID_10_" gradientUnits="userSpaceOnUse" x1="29.1932" y1="48.7323" x2="41.0674" y2="48.7323" gradientTransform="matrix(1 0 0 -1 0 141.7323)">
	<stop  offset="3.507650e-03" style="stop-color:#00B9F2"/>
	<stop  offset="8.144610e-02" style="stop-color:#00BFF3"/>
	<stop  offset="0.3172" style="stop-color:#72D0F6"/>
	<stop  offset="0.5344" style="stop-color:#A9E0F9"/>
	<stop  offset="0.726" style="stop-color:#CEECFB"/>
	<stop  offset="0.8847" style="stop-color:#E3F4FC"/>
	<stop  offset="0.991" style="stop-color:#EAF7FC"/>
</linearGradient>
<path class="st30" d="M41.1,93c0-0.3-2.7-0.6-5.9-0.6c-3.3,0-5.9,0.3-5.9,0.6c0,0.3,2.7,0.6,5.9,0.6C38.4,93.6,41.1,93.4,41.1,93z"
	/>
<linearGradient id="SVGID_11_" gradientUnits="userSpaceOnUse" x1="35.6" y1="47.0323" x2="42.237" y2="47.0323" gradientTransform="matrix(1 0 0 -1 0 141.7323)">
	<stop  offset="3.507650e-03" style="stop-color:#00B9F2"/>
	<stop  offset="8.144610e-02" style="stop-color:#00BFF3"/>
	<stop  offset="0.3172" style="stop-color:#72D0F6"/>
	<stop  offset="0.5344" style="stop-color:#A9E0F9"/>
	<stop  offset="0.726" style="stop-color:#CEECFB"/>
	<stop  offset="0.8847" style="stop-color:#E3F4FC"/>
	<stop  offset="0.991" style="stop-color:#EAF7FC"/>
</linearGradient>
<path class="st31" d="M42.2,94.7c0-0.3-1.5-0.6-3.3-0.6s-3.3,0.3-3.3,0.6c0,0.3,1.5,0.6,3.3,0.6C40.7,95.3,42.2,95,42.2,94.7z"/>
<linearGradient id="SVGID_12_" gradientUnits="userSpaceOnUse" x1="40.9915" y1="48.1323" x2="44.31" y2="48.1323" gradientTransform="matrix(1 0 0 -1 0 141.7323)">
	<stop  offset="3.507650e-03" style="stop-color:#00B9F2"/>
	<stop  offset="8.144610e-02" style="stop-color:#00BFF3"/>
	<stop  offset="0.3172" style="stop-color:#72D0F6"/>
	<stop  offset="0.5344" style="stop-color:#A9E0F9"/>
	<stop  offset="0.726" style="stop-color:#CEECFB"/>
	<stop  offset="0.8847" style="stop-color:#E3F4FC"/>
	<stop  offset="0.991" style="stop-color:#EAF7FC"/>
</linearGradient>
<path class="st32" d="M44.3,93.6c0-0.1-0.7-0.2-1.7-0.2c-0.9,0-1.7,0.1-1.7,0.2s0.7,0.2,1.7,0.2C43.6,93.8,44.3,93.7,44.3,93.6z"/>
<linearGradient id="SVGID_13_" gradientUnits="userSpaceOnUse" x1="88.7712" y1="47.7225" x2="100.6455" y2="47.7225" gradientTransform="matrix(1 0 0 -1 0 141.7323)">
	<stop  offset="3.507650e-03" style="stop-color:#00B9F2"/>
	<stop  offset="8.144610e-02" style="stop-color:#00BFF3"/>
	<stop  offset="0.3172" style="stop-color:#72D0F6"/>
	<stop  offset="0.5344" style="stop-color:#A9E0F9"/>
	<stop  offset="0.726" style="stop-color:#CEECFB"/>
	<stop  offset="0.8847" style="stop-color:#E3F4FC"/>
	<stop  offset="0.991" style="stop-color:#EAF7FC"/>
</linearGradient>
<path class="st33" d="M100.6,94c0-0.3-2.7-0.5-5.9-0.5c-3.3,0-5.9,0.2-5.9,0.5s2.7,0.5,5.9,0.5C98,94.6,100.6,94.3,100.6,94z"/>
<linearGradient id="SVGID_14_" gradientUnits="userSpaceOnUse" x1="95.1754" y1="46.2323" x2="101.8125" y2="46.2323" gradientTransform="matrix(1 0 0 -1 0 141.7323)">
	<stop  offset="3.507650e-03" style="stop-color:#00B9F2"/>
	<stop  offset="8.144610e-02" style="stop-color:#00BFF3"/>
	<stop  offset="0.3172" style="stop-color:#72D0F6"/>
	<stop  offset="0.5344" style="stop-color:#A9E0F9"/>
	<stop  offset="0.726" style="stop-color:#CEECFB"/>
	<stop  offset="0.8847" style="stop-color:#E3F4FC"/>
	<stop  offset="0.991" style="stop-color:#EAF7FC"/>
</linearGradient>
<path class="st34" d="M101.8,95.5c0-0.3-1.5-0.5-3.3-0.5s-3.3,0.2-3.3,0.5s1.5,0.5,3.3,0.5S101.8,95.8,101.8,95.5z"/>
<linearGradient id="SVGID_15_" gradientUnits="userSpaceOnUse" x1="100.5695" y1="47.2127" x2="103.888" y2="47.2127" gradientTransform="matrix(1 0 0 -1 0 141.7323)">
	<stop  offset="3.507650e-03" style="stop-color:#00B9F2"/>
	<stop  offset="8.144610e-02" style="stop-color:#00BFF3"/>
	<stop  offset="0.3172" style="stop-color:#72D0F6"/>
	<stop  offset="0.5344" style="stop-color:#A9E0F9"/>
	<stop  offset="0.726" style="stop-color:#CEECFB"/>
	<stop  offset="0.8847" style="stop-color:#E3F4FC"/>
	<stop  offset="0.991" style="stop-color:#EAF7FC"/>
</linearGradient>
<path class="st35" d="M103.9,94.5c0-0.1-0.7-0.2-1.7-0.2c-0.9,0-1.7,0.1-1.7,0.2s0.7,0.2,1.7,0.2C103.1,94.8,103.9,94.7,103.9,94.5z
	"/>
<linearGradient id="SVGID_16_" gradientUnits="userSpaceOnUse" x1="82.8238" y1="46.0323" x2="94.6979" y2="46.0323" gradientTransform="matrix(1 0 0 -1 0 141.7323)">
	<stop  offset="3.507650e-03" style="stop-color:#00B9F2"/>
	<stop  offset="8.144610e-02" style="stop-color:#00BFF3"/>
	<stop  offset="0.3172" style="stop-color:#72D0F6"/>
	<stop  offset="0.5344" style="stop-color:#A9E0F9"/>
	<stop  offset="0.726" style="stop-color:#CEECFB"/>
	<stop  offset="0.8847" style="stop-color:#E3F4FC"/>
	<stop  offset="0.991" style="stop-color:#EAF7FC"/>
</linearGradient>
<ellipse class="st36" cx="88.8" cy="95.7" rx="5.9" ry="0.9"/>
<linearGradient id="SVGID_17_" gradientUnits="userSpaceOnUse" x1="89.228" y1="44.1323" x2="95.8649" y2="44.1323" gradientTransform="matrix(1 0 0 -1 0 141.7323)">
	<stop  offset="3.507650e-03" style="stop-color:#00B9F2"/>
	<stop  offset="8.144610e-02" style="stop-color:#00BFF3"/>
	<stop  offset="0.3172" style="stop-color:#72D0F6"/>
	<stop  offset="0.5344" style="stop-color:#A9E0F9"/>
	<stop  offset="0.726" style="stop-color:#CEECFB"/>
	<stop  offset="0.8847" style="stop-color:#E3F4FC"/>
	<stop  offset="0.991" style="stop-color:#EAF7FC"/>
</linearGradient>
<path class="st37" d="M95.9,97.6c0-0.3-1.5-0.5-3.3-0.5s-3.3,0.2-3.3,0.5s1.5,0.5,3.3,0.5S95.9,97.9,95.9,97.6z"/>
<linearGradient id="SVGID_18_" gradientUnits="userSpaceOnUse" x1="94.6221" y1="45.1323" x2="97.9406" y2="45.1323" gradientTransform="matrix(1 0 0 -1 0 141.7323)">
	<stop  offset="3.507650e-03" style="stop-color:#00B9F2"/>
	<stop  offset="8.144610e-02" style="stop-color:#00BFF3"/>
	<stop  offset="0.3172" style="stop-color:#72D0F6"/>
	<stop  offset="0.5344" style="stop-color:#A9E0F9"/>
	<stop  offset="0.726" style="stop-color:#CEECFB"/>
	<stop  offset="0.8847" style="stop-color:#E3F4FC"/>
	<stop  offset="0.991" style="stop-color:#EAF7FC"/>
</linearGradient>
<path class="st38" d="M97.9,96.6c0-0.1-0.7-0.2-1.7-0.2c-0.9,0-1.7,0.1-1.7,0.2s0.7,0.2,1.7,0.2C97.2,96.8,97.9,96.7,97.9,96.6z"/>
<linearGradient id="SVGID_19_" gradientUnits="userSpaceOnUse" x1="48.8536" y1="38.6323" x2="77.7969" y2="38.6323" gradientTransform="matrix(1 0 0 -1 0 141.7323)">
	<stop  offset="3.507650e-03" style="stop-color:#00B9F2"/>
	<stop  offset="8.144610e-02" style="stop-color:#00BFF3"/>
	<stop  offset="0.3172" style="stop-color:#72D0F6"/>
	<stop  offset="0.5344" style="stop-color:#A9E0F9"/>
	<stop  offset="0.726" style="stop-color:#CEECFB"/>
	<stop  offset="0.8847" style="stop-color:#E3F4FC"/>
	<stop  offset="0.991" style="stop-color:#EAF7FC"/>
</linearGradient>
<path class="st39" d="M77.8,103.1c0-0.5-6.5-0.8-14.5-0.8s-14.5,0.4-14.5,0.8c0,0.5,6.5,0.8,14.5,0.8S77.8,103.6,77.8,103.1z"/>
<path class="st40" d="M33.9,95.3c0-0.3-2.1-0.5-4.7-0.5s-4.7,0.2-4.7,0.5s2.1,0.5,4.7,0.5S33.9,95.6,33.9,95.3z"/>
<path class="st41" d="M130.2,92.1c0-0.3-2.7-0.6-6-0.6s-6,0.3-6,0.6c0,0.3,2.7,0.6,6,0.6S130.2,92.5,130.2,92.1z"/>
<path class="st41" d="M119.8,93.5c0-0.2-0.7-0.4-1.6-0.4s-1.6,0.2-1.6,0.4c0,0.2,0.7,0.4,1.6,0.4C119.1,93.9,119.8,93.7,119.8,93.5z
	"/>
<path class="st41" d="M85.9,103.1c0-0.2-0.9-0.4-2-0.4s-2,0.2-2,0.4c0,0.2,0.9,0.4,2,0.4S85.9,103.4,85.9,103.1z"/>
<path class="st41" d="M81.6,102.3c0-0.2-0.4-0.4-1-0.4s-1,0.2-1,0.4c0,0.2,0.4,0.4,1,0.4C81.1,102.7,81.6,102.5,81.6,102.3z"/>
<path class="st42" d="M15,90.8c0-0.3-1.7-0.5-3.8-0.5s-3.8,0.2-3.8,0.5s1.7,0.5,3.8,0.5C13.4,91.3,15,91.1,15,90.8z"/>
<path class="st42" d="M16.9,86.6c0-0.3-0.8-0.5-1.9-0.5c-1,0-1.9,0.2-1.9,0.5s0.8,0.5,1.9,0.5S16.9,86.9,16.9,86.6z"/>
<path class="st42" d="M13,88.2c0-0.2-0.6-0.4-1.3-0.4s-1.3,0.2-1.3,0.4c0,0.2,0.6,0.4,1.3,0.4C12.5,88.6,13,88.4,13,88.2z"/>
<path class="st43" d="M126,78c0-0.3-2.1-0.6-4.7-0.6s-4.7,0.3-4.7,0.6c0,0.3,2.1,0.6,4.7,0.6C123.8,78.6,126,78.4,126,78z"/>
<path class="st43" d="M129,76.2c0-0.2-1.3-0.4-3-0.4s-3,0.2-3,0.4c0,0.2,1.3,0.4,3,0.4C127.6,76.6,129,76.4,129,76.2z"/>
<path class="st44" d="M21.8,87l-0.4,0.3L20.9,88l-0.6,0.6l-0.5,0.8l-0.4,0.9l-0.3,0.8c0,0-0.3,0.7-0.3,0.8c0,0.1-0.1,0.4-0.1,0.4
	c0,0.1,0.1,2.1,1.3-1.7C20,90.6,20.6,88.7,21.8,87z"/>
<path class="st44" d="M21.7,87.6c0,0-0.8,1.4-0.7,2.8C21,90.3,21.3,92.6,21.7,87.6z"/>
<path class="st44" d="M25.4,91.9l-0.2-0.2L25,91.3L24.9,91C24.9,91.1,25.3,90.6,25.4,91.9z"/>
<path class="st44" d="M44.2,91l-0.4-0.5L43.4,90l-0.3-0.7l-0.2-0.6v-0.2c0,0,0.2-1.8,1.2,0.7v0.5l0.1,0.5l0.6,0.9L44.2,91z"/>
<path class="st44" d="M50.5,84.9l0.3,0.6l0.4,1l0.1,0.9c0,0,0,0.8,0,0.9l-0.1,1.1l-0.1,0.7L51,90.7c0,0-1.5,1.6-0.5-2.9
	C50.5,87.8,51,86.3,50.5,84.9z"/>
<path class="st44" d="M51.1,84.9l0.5,1l0.4,1l0.2,0.7l0.2,0.9l0.1,0.6c0,0-0.4,1.1-0.7-1.3C51.8,87.8,51.8,86.6,51.1,84.9z"/>
<path class="st44" d="M65.9,94.5l0.8-0.6l0.8-0.8l0.5-0.6l0.4-0.7l0.3-0.6l0.1-0.3c0,0,0.5-2.7-1.9,1.8L65.9,94.5z"/>
<path class="st44" d="M86.6,90.5l0.1,0.5c0,0,0.1,0.6,0.1,0.7l-0.2,0.5c0,0-0.3,0.2-0.4,0.2c-0.1,0.1-0.3,0.2-0.4,0.3s1-1,0.3-1.8
	C85.4,90,86.2,89.6,86.6,90.5z"/>
<path class="st44" d="M98.5,86.5l0.4,0.3c0,0,0.4,0.5,0.4,0.6c0,0,0.2,0.5,0.2,0.6c0,0,0.1,0.4,0.1,0.5s0,0.6,0,0.6
	c0,0.1-0.1,0.6-0.1,0.6c0,0.1-0.1,0.5-0.1,0.5v0.1c0,0,0,2.1,1.2-0.9l-0.1-0.7l-0.2-0.8l-0.3-0.6L99.5,87l-0.4-0.3l-0.4-0.4
	L98.5,86.5z"/>
<path class="st5" d="M109.4,62.8c-0.2-0.4-0.7-0.6-1-0.4c-0.3,0.2-0.4,0.7-0.2,1c0.2,0.4,0.7,0.6,1,0.4
	C109.5,63.7,109.6,63.2,109.4,62.8z"/>
<path class="st5" d="M110.3,63.9c0-0.1-0.1-0.2-0.2-0.2S110,63.9,110,64s0.1,0.2,0.2,0.2S110.4,64.1,110.3,63.9z"/>
<path class="st5" d="M110.5,65.7c0-0.3-0.2-0.6-0.5-0.6s-0.5,0.3-0.5,0.6c0,0.3,0.2,0.6,0.5,0.6C110.3,66.4,110.5,66.1,110.5,65.7z"
	/>
<path class="st5" d="M107.1,60.7c-0.1-0.2-0.3-0.3-0.4-0.2s-0.2,0.3-0.1,0.5s0.3,0.3,0.4,0.2C107.1,61.1,107.2,60.9,107.1,60.7z"/>
<path class="st5" d="M107.8,62c0-0.1,0-0.2-0.1-0.2s-0.1,0.1-0.1,0.2c0,0.1,0,0.2,0.1,0.2S107.8,62.1,107.8,62z"/>
<path class="st5" d="M110.1,68c0-0.1,0-0.3-0.1-0.3s-0.2,0.1-0.2,0.2s0,0.3,0.1,0.3C110,68.3,110.1,68.2,110.1,68z"/>
<path class="st5" d="M105.8,58.6C105.8,58.5,105.7,58.5,105.8,58.6c-0.1-0.1-0.1,0-0.1,0.1c0,0.1,0.1,0.1,0.1,0.1
	C105.8,58.7,105.8,58.7,105.8,58.6z"/>
<path class="st45" d="M23.3,52.7c0-0.1-0.1-0.2-0.2-0.2s-0.2,0.1-0.2,0.2c0,0.1,0.1,0.2,0.2,0.2C23.3,52.9,23.3,52.8,23.3,52.7z"/>
<path class="st45" d="M23.9,52.5c0-0.1-0.1-0.2-0.2-0.2s-0.2,0.1-0.2,0.2c0,0.1,0.1,0.2,0.2,0.2S23.9,52.6,23.9,52.5z"/>
<path class="st45" d="M24.5,52.6c0-0.1-0.1-0.2-0.2-0.2s-0.2,0.1-0.2,0.2c0,0.1,0.1,0.2,0.2,0.2S24.5,52.7,24.5,52.6z"/>
<path class="st45" d="M31.1,44.3c0-0.4-0.4-0.8-0.8-0.8s-0.8,0.4-0.8,0.8c0,0.4,0.4,0.8,0.8,0.8S31.1,44.8,31.1,44.3z"/>
<path class="st45" d="M18.3,62c0-0.6-0.5-1.2-1.2-1.2c-0.6,0-1.2,0.5-1.2,1.2c0,0.6,0.5,1.2,1.2,1.2S18.3,62.7,18.3,62z"/>
<path class="st45" d="M20.7,56.8c0-0.3-0.2-0.5-0.5-0.5s-0.5,0.2-0.5,0.5s0.2,0.5,0.5,0.5S20.7,57.1,20.7,56.8z"/>
<path class="st45" d="M22.9,53.2c0-0.1-0.1-0.2-0.2-0.2s-0.2,0.1-0.2,0.2c0,0.1,0.1,0.2,0.2,0.2C22.9,53.4,22.9,53.3,22.9,53.2z"/>
<path class="st45" d="M25.3,53.2c0-0.1-0.1-0.2-0.2-0.2s-0.2,0.1-0.2,0.2c0,0.1,0.1,0.2,0.2,0.2C25.3,53.4,25.3,53.3,25.3,53.2z"/>
<path class="st45" d="M25,52.9c0-0.1-0.1-0.2-0.2-0.2s-0.2,0.1-0.2,0.2c0,0.1,0.1,0.2,0.2,0.2C24.9,53,25,53,25,52.9z"/>
<path class="st45" d="M23.5,43c0-0.3-0.2-0.5-0.5-0.5s-0.5,0.2-0.5,0.5s0.2,0.5,0.5,0.5S23.5,43.3,23.5,43z"/>
<path class="st45" d="M17.8,58.5c0-0.2-0.2-0.3-0.3-0.3c-0.2,0-0.3,0.2-0.3,0.3c0,0.2,0.2,0.3,0.3,0.3
	C17.7,58.8,17.8,58.7,17.8,58.5z"/>
<path class="st45" d="M28.3,48.2c0-0.1-0.1-0.2-0.2-0.2s-0.2,0.1-0.2,0.2c0,0.1,0.1,0.2,0.2,0.2S28.3,48.3,28.3,48.2z"/>
<polygon class="st46" points="28.5,67.1 28.2,66.2 28,65.3 27.9,64.3 27.8,63.2 27.9,62.1 28.1,61.1 28.5,59.9 28.8,59 29.4,57.9 
	30.2,56.9 30.8,56.2 31.6,55.6 32.5,55.1 33.5,54.7 33.8,54.6 32.7,54.5 31.8,54.6 31,54.7 29.9,55 29,55.4 28.2,56 27.5,56.6 
	27.1,57.2 26.4,58.1 26.1,59.4 25.8,60.6 25.8,61.8 26.1,63.2 26.4,64.1 26.9,65.1 27.6,66.1 "/>
<polygon class="st46" points="39.2,52.3 39.4,51.1 39.7,50 40.2,48.8 40.6,47.9 41.3,46.8 42.2,45.6 42.8,44.9 43.6,44.3 44.8,43.5 
	46,43.2 46.9,43 47.6,42.9 46.3,42.6 44.4,42.6 42.7,42.9 41.6,43.5 40.7,44.2 39.9,45.1 39.1,46.4 38.6,48 38.5,49.4 38.7,50.8 "/>
<g>
	<g>
		<path class="st47" d="M30.3,75.7c-2.2,1.2-3.9,3-6,4.2c-1.6,0.9-3.5,1.6-4.6,3c-1.2,1.5-1,2.9,0.9,3.5c2.4,0.7,5.1,0.5,7.5,0.4
			c2.4-0.2,4.8-0.4,7.1-0.6c5.4-0.5,10.7-1.8,16.1-2.1c5.5-0.4,11.1,0.5,16.6,1.1c10.6,1.1,21.8,2.5,32.3,0.2
			c2.3-0.5,11.2-3.1,6.7-6.7c-1.8-1.4-4.4-1.7-6.6-1.9c-3.2-0.3-6.5-0.4-9.7-0.7c-0.1,0-0.1,0.2,0,0.2c2.4,0.2,4.9,0.4,7.3,0.5
			s4.9,0.3,7.2,1.2c1.4,0.5,3.5,1.8,2.6,3.5c-0.5,1-1.7,1.7-2.7,2.2c-2.2,1.1-4.7,1.6-7.1,2c-9.6,1.6-19.4,0.4-29-0.5
			c-4.8-0.5-9.6-1.2-14.4-1.3c-4.7,0-9.4,0.9-14.1,1.6c-3.1,0.4-6.1,0.7-9.2,1c-2.3,0.2-4.6,0.4-6.9,0.4c-1.6,0-6.4-0.1-4.9-2.9
			c1-1.9,3.3-2.7,5.1-3.7c2.2-1.2,3.9-3,6-4.2C30.5,75.8,30.4,75.7,30.3,75.7L30.3,75.7z"/>
	</g>
</g>
<g>
	<g>
		<path class="st47" d="M38.1,80.1c3.1,0.2,6.1,0.5,9.1,0.8c2.9,0.3,5.9,0.7,8.9,0.5C61.4,81,66,78,71.3,78.3c0.1,0,0.1-0.2,0-0.2
			c-5.3-0.3-10,2.7-15.2,3.1c-2.9,0.2-5.8-0.2-8.7-0.5c-3.1-0.3-6.2-0.6-9.4-0.8C38,79.9,38,80.1,38.1,80.1L38.1,80.1z"/>
	</g>
</g>
<g>
	<g>
		<path class="st47" d="M19.2,85.6c-1.2,2.5-3,5.2-1.7,8c0.1,0.1,0.2,0,0.2-0.1c-1.3-2.7,0.5-5.4,1.7-7.9
			C19.4,85.6,19.2,85.5,19.2,85.6L19.2,85.6z"/>
	</g>
</g>
<g>
	<g>
		<path class="st47" d="M108,81.6c2.1,1.5,5.5,4.7,3.7,7.6c-0.7,1.1-2,1.8-3.2,2.4c-1.3,0.6-2.6,1.2-4,1.4c0,0.1,0,0.1,0.1,0.2
			c0.2-0.1,0.3-0.2,0.5-0.2c0.1,0,0.1-0.2,0-0.2c-0.2,0.1-0.4,0.2-0.6,0.2c-0.1,0,0,0.2,0.1,0.2c1.5-0.3,3-0.9,4.3-1.6
			c1.2-0.6,2.6-1.4,3.2-2.7C113.4,86,110.2,83,108,81.6C108,81.3,107.9,81.5,108,81.6L108,81.6z"/>
	</g>
</g>
<g>
	<g>
		<path class="st47" d="M110.9,90.3c3.1-3,0.7-7.9,2.7-11.4c0.9-1.6,2.1-3.1,2.9-4.8c0.5-1,0.8-2.3-0.3-3.1
			c-0.1-0.1-0.2,0.1-0.1,0.2c1.4,1.1,0.1,3.2-0.6,4.3c-0.8,1.3-1.8,2.6-2.5,4c-1.5,3.3,0.7,7.8-2.2,10.6
			C110.7,90.2,110.8,90.3,110.9,90.3L110.9,90.3z"/>
	</g>
</g>
<g>
	<g>
		<path class="st47" d="M108.2,82.1c0.4-1.5,0.8-2.7,1.2-3.6c0.3-0.8,0.6-1.3,0.9-1.8c0.4-0.6,0.9-1.1,1.5-1.6
			c1.3-1.1,3.8-2.7,2.6-4.6c-0.1-0.1-0.2,0-0.2,0.1c-1.6,2-2.6,3.8-3.3,5c-1.6,2.8-3.1,6.5-2.7,6.7c0,0,0.1,0,0.2,0
			C108.3,82.2,108.2,82.2,108.2,82.1z"/>
	</g>
</g>
<g>
	<g>
		<path class="st47" d="M103.9,77.5c1.2-0.1,2.2-0.5,3.2-1.1s2-1.4,2.9-2.2c0.5-0.5,1-1,1.4-1.6s0.7-1.2,0.8-1.9
			c0.1-0.7-0.3-1.2-1-1.3c-0.1,0-0.2,0.2,0,0.2c2,0.4,0.1,3-0.6,3.8c-0.8,1-1.8,1.7-2.9,2.5S105.3,77.4,103.9,77.5
			C103.8,77.3,103.8,77.5,103.9,77.5L103.9,77.5z"/>
	</g>
</g>
<g>
	<g>
		<path class="st47" d="M110.1,69.4c2.2,0.2,4.5,0.7,6.3,2.1c0.1,0.1,0.2-0.1,0.1-0.2c-1.8-1.4-4.1-1.9-6.4-2.1
			C110,69.2,110,69.4,110.1,69.4L110.1,69.4z"/>
	</g>
</g>
<g>
	<g>
		<path class="st47" d="M13,94c3.3,0.1,6.5-0.4,9.7-1.1c3.4-0.8,6.8-2,10.2-2.7c3.8-0.8,7.6,0,11.2,1c3.4,1,6.7,2,10.1,2.6
			c6.8,1.2,13.6,0.9,20.5,0.3c7-0.6,14-1.5,20.9-2.2c3.8-0.4,7.2,1.2,10.9,1.4c1.8,0.1,3.5,0,5.3,0s3.4-0.6,5.2-0.7
			c0.2,0,0.2-0.4,0-0.4c-1.5,0.1-2.9,0.6-4.3,0.7c-1.6,0.1-3.2,0-4.8,0c-3.3-0.1-6.3-1.2-9.6-1.5c-1.7-0.2-3.4,0.2-5.1,0.3
			c-1.8,0.2-3.5,0.3-5.3,0.5c-3.6,0.4-7.1,0.9-10.7,1.2c-7.1,0.7-14.3,1.2-21.4,0.2c-3.5-0.5-6.8-1.4-10.2-2.4
			c-3.1-1-6.4-1.8-9.7-1.8c-3.8,0-7.4,1.5-11.1,2.4c-3.9,1-7.9,1.8-11.9,1.7C12.8,93.6,12.8,94,13,94L13,94z"/>
	</g>
</g>
<g>
	<g>
		<path class="st47" d="M19.2,86.7c1.7,0.7,3.5,0.3,5.2,0.9c0.6,0.2,1.3,0.6,1.9,0.6c0.5,0,0.9-0.3,1.3-0.5c0.6-0.3,1-0.3,1.7-0.1
			c0.1,0.1,0.3,0.2,0.4,0.3c0.6,0.2,1.2,0,1.8-0.2c1-0.4,1.6-0.8,2.7-0.4c0.4,0.1,0.8,0.4,1.3,0.2c0.5-0.2,0.8-0.6,1.3-0.8
			c1.1-0.4,2.2,0.3,3.3,0.1c0.8-0.1,1.6-0.6,2.4-0.7c0.8-0.1,1.6,0.2,2.4,0.2c1.8,0,3.6-0.6,5.4-1c1-0.2,2.1-0.4,3.1-0.3
			c1.1,0,2.3,0.3,3.4,0.5c1.6,0.2,3.1,0,4.8-0.2c0.9-0.1,1.9-0.3,2.7,0.1c0.7,0.4,1.3,1,2,1.4c1.6,0.8,3.6,0.3,5.3,0.4
			c2.2,0.2,4.4,0.7,6.5,0.9c2,0.3,3.9,0.3,5.8,0c1.5-0.2,3,0.1,4.5,0.2c1.4,0.1,2.6-0.4,4-0.5s2.7,0,4.1-0.2
			c0.6-0.1,1.2-0.2,1.8-0.5c0.5-0.3,0.5-0.4,1.2-0.2c1.2,0.3,2.5,0.1,3.7-0.3c1.9-0.7,4.9-2.3,5.2-4.5c0-0.1-0.2-0.2-0.2,0
			c-0.2,1.7-2.2,2.9-3.5,3.6c-1.7,0.9-4,1.8-5.8,0.8h-0.1c-0.7,0.9-2.2,1-3.2,1.1c-1.2,0.1-2.5,0.1-3.7,0.2c-1,0.1-1.8,0.5-2.8,0.5
			c-1.2,0-2.4-0.2-3.6-0.3c-1.5,0-2.9,0.3-4.4,0.3c-1.8,0-3.6-0.3-5.4-0.6c-1.5-0.2-3-0.5-4.6-0.6c-2-0.1-3.8,0.4-5.5-0.9
			c-0.7-0.5-1.2-1.1-2-1.2c-1.3-0.1-2.7,0.3-3.9,0.4c-1.6,0.2-3.2-0.2-4.8-0.4c-1.4-0.2-2.8-0.1-4.3,0.2c-1.5,0.3-2.9,0.7-4.4,0.9
			c-1.3,0.2-2.5-0.3-3.8,0c-0.9,0.2-1.6,0.7-2.5,0.7c-0.7,0-1.3-0.2-1.9-0.3c-0.5-0.1-1-0.1-1.4,0.2c-0.1,0.1-0.2,0.1-0.2,0.2
			c-0.7,0.4-1.1,0.7-2,0.3c-1.2-0.6-2,0.4-3.2,0.6c-1.2,0.3-1.8-0.8-2.9-0.3c-0.6,0.2-1.1,0.7-1.8,0.7c-0.7,0-1.4-0.4-2-0.6
			c-1.6-0.5-3.3-0.1-4.9-0.8C19.1,86.4,19.1,86.6,19.2,86.7L19.2,86.7z"/>
	</g>
</g>
<g>
	<g>
		<path class="st47" d="M28.6,77.6c0.8-0.4,1.6-0.7,2.5-0.9c0.1,0,0.1-0.2,0-0.2c-0.9,0.3-1.7,0.6-2.5,0.9
			C28.4,77.5,28.5,77.7,28.6,77.6L28.6,77.6z"/>
	</g>
</g>
<g>
	<g>
		<path class="st47" d="M108.3,82c0.7-1.1,1.2-2.3,1.8-3.4c0.7-1.2,1.5-2.1,2.6-2.9c0.9-0.7,2-1.4,2.5-2.5c0.4-0.9,0.2-1.9-0.4-2.7
			c-0.1-0.1-0.2,0-0.2,0.1c0.8,1.3,0.7,2.4-0.4,3.5c-0.8,0.8-1.8,1.4-2.6,2.2c-1.7,1.5-2.4,3.7-3.6,5.6
			C108.1,82,108.3,82.1,108.3,82L108.3,82z"/>
	</g>
</g>
<g>
	<g>
		<path class="st47" d="M21.8,86.9c-1.8,1.3-2.8,3.3-3.2,5.4c0,0.1,0.2,0.2,0.2,0c0.5-2.1,1.4-4.1,3.2-5.3
			C22,87,21.9,86.9,21.8,86.9L21.8,86.9z"/>
	</g>
</g>
<g>
	<g>
		<path class="st47" d="M21.7,87.5c-0.5,0.8-0.7,1.8-0.7,2.8c0,0.1,0.2,0.1,0.2,0c0-0.9,0.2-1.9,0.7-2.7
			C21.9,87.5,21.7,87.4,21.7,87.5L21.7,87.5z"/>
	</g>
</g>
<g>
	<g>
		<path class="st47" d="M50.6,85.3c1,1.6,0.6,3.7,0.3,5.4c0,0.1,0.2,0.2,0.2,0c0.3-1.8,0.7-3.9-0.3-5.6
			C50.7,85.1,50.5,85.2,50.6,85.3L50.6,85.3z"/>
	</g>
</g>
<g>
	<g>
		<path class="st47" d="M51,85c0.8,1.3,1.1,2.7,1.4,4.2c0,0.1,0.2,0.1,0.2,0c-0.3-1.5-0.6-3-1.5-4.2C51.1,84.8,50.9,84.9,51,85
			L51,85z"/>
	</g>
</g>
<g>
	<g>
		<path class="st47" d="M51.9,80.6c2,0.5,4.3,0.9,6.2-0.2c0.1-0.1,0-0.2-0.1-0.2c-1.8,1-4.1,0.6-6,0.1
			C51.9,80.3,51.8,80.5,51.9,80.6L51.9,80.6z"/>
	</g>
</g>
<g>
	<g>
		<path class="st47" d="M44.8,91.1c-0.2-0.3-0.5-0.5-0.6-0.9c-0.1-0.3-0.1-0.7-0.1-1.1c0-0.1-0.2-0.2-0.2,0
			c-0.1,0.4-0.1,0.8,0.1,1.2C44.1,90.7,44.4,91,44.8,91.1C44.7,91.4,44.8,91.2,44.8,91.1L44.8,91.1z"/>
	</g>
</g>
<g>
	<g>
		<path class="st47" d="M44.7,91.3c-0.9-0.7-1.7-1.7-1.8-2.8c0-0.1-0.2-0.1-0.2,0c0.2,1.2,0.9,2.3,1.9,3
			C44.7,91.5,44.8,91.3,44.7,91.3L44.7,91.3z"/>
	</g>
</g>
<g>
	<g>
		<path class="st47" d="M25.5,91.8L25.5,91.8L25.5,91.8C25.5,91.8,25.4,91.8,25.5,91.8c-0.1,0-0.1,0-0.2-0.1c-0.1,0-0.1-0.1-0.2-0.2
			c-0.1-0.2-0.2-0.3-0.2-0.5c0-0.1-0.2-0.1-0.2,0c0,0.2,0.1,0.5,0.2,0.7s0.3,0.3,0.5,0.3C25.6,92,25.6,91.8,25.5,91.8L25.5,91.8z"/>
	</g>
</g>
<g>
	<g>
		<path class="st47" d="M65.5,94.7c1.7-0.6,2.8-2.1,3.4-3.7c0-0.1-0.1-0.2-0.2,0C68.1,92.6,67,94,65.5,94.7
			C65.3,94.5,65.4,94.7,65.5,94.7L65.5,94.7z"/>
	</g>
</g>
<g>
	<g>
		<path class="st47" d="M31.4,78.7c-1.7,0.1-3.3,0.6-4.9,1.2c-0.7,0.3-1.4,0.6-2.1,1c-0.6,0.3-1.3,0.7-1.8,1.2
			c-0.7,0.8-1.1,2.2-0.1,2.8c0.5,0.3,1.2,0.4,1.8,0.4c0.9,0,1.8,0,2.7,0c0.1,0,0.1-0.2,0-0.2c-1.3-0.1-2.8,0.2-4-0.3
			c-0.7-0.3-1-1-0.8-1.8c0.2-0.7,0.8-1.2,1.3-1.6c1.1-0.7,2.4-1.3,3.6-1.7c1.4-0.5,2.8-0.8,4.2-1C31.6,78.9,31.6,78.7,31.4,78.7
			L31.4,78.7z"/>
	</g>
</g>
<g>
	<g>
		<g>
			<path class="st47" d="M90.5,75.2c-0.1,0.6-0.3,1.1-0.7,1.5c-0.1,0.1,0,0.2,0.1,0.3c0.1,0.1,0.2,0,0.3-0.1
				c0.4-0.5,0.6-1.1,0.7-1.7c0-0.1-0.1-0.2-0.2-0.2C90.6,75,90.5,75.1,90.5,75.2L90.5,75.2z"/>
		</g>
	</g>
	<g>
		<g>
			<g>
				<path class="st47" d="M100.5,49c-2.5-4.5-7-7.3-11.9-8.4c-2.7-0.6-5.5-0.7-8.3-0.5c-3.2,0.3-6.4,0.5-9.5,1.1
					c-5.4,0.9-10.1,3.9-12.8,8.7c-2.5,4.4-3.4,9.8-2,14.7c0.8,2.9,2.5,5.6,4.7,7.7c2.1,1.9,4.8,2.9,7.6,3.2c0.2,0,0.2-0.3,0-0.4
					C65.6,74.8,63,73.9,61,72c-2-1.8-3.6-4.3-4.4-6.9c-1.6-4.7-0.9-10,1.4-14.4c2.5-4.8,6.9-7.9,12.1-9c2.8-0.6,5.7-0.7,8.6-1.1
					c2.8-0.3,5.6-0.5,8.4,0c5.3,0.9,10.4,3.7,13.1,8.5C100.3,49.4,100.6,49.2,100.5,49L100.5,49z"/>
			</g>
		</g>
		<g>
			<g>
				<path class="st47" d="M55.7,55.3c-2.8-0.2-5.2-2.6-4.7-5.6c0.5-2.6,3-4.5,5.6-4.7c1.4-0.1,3.2,0,4.2,1.2
					c0.1,0.2,0.4-0.1,0.3-0.3c-0.9-1.2-2.5-1.3-3.9-1.3c-1.5,0-2.9,0.5-4.1,1.4c-2.3,1.7-3.4,5-1.5,7.5c1,1.3,2.6,2.1,4.2,2.2
					C55.9,55.7,55.9,55.3,55.7,55.3L55.7,55.3z"/>
			</g>
		</g>
		<g>
			<g>
				<path class="st47" d="M97.1,45c2.1-1.1,5.2-1.8,7.4-0.6c2.2,1.2,2.8,4.5,2,6.7c-0.6,1.5-2,2.8-3.6,3c-0.2,0-0.1,0.4,0.1,0.4
					c1.5-0.2,2.9-1.3,3.6-2.6c0.6-1.2,0.8-2.5,0.6-3.8c-0.2-1.3-0.8-2.7-1.8-3.5c-1.1-0.9-2.5-1.1-3.8-1.1c-1.6,0.1-3.2,0.5-4.6,1.2
					C96.7,44.8,96.9,45.1,97.1,45L97.1,45z"/>
			</g>
		</g>
		<g>
			<g>
				<path class="st47" d="M76.1,59.5c0.1,0,0.1,0,0.2,0c0-0.1,0-0.1,0-0.2c-0.2,0.1-0.5,0.1-0.7,0.2c-0.4,0.2-0.7,0.5-1,0.7
					c-0.6,0.5-1.3,1.1-1.6,1.9c-0.8,1.9,1.8,2.8,3.3,2.6c1.2-0.2,2.3-0.7,3.5-0.8c1.1-0.1,2,0.3,3,0.5c0.7,0.2,1.5,0.3,2.2-0.1
					c0.6-0.5,0.9-1.3,0.8-2.1c-0.3-1.8-2.6-2.8-4.1-3.4c-0.1,0-0.2,0.1,0,0.2c1.4,0.5,3.1,1.2,3.8,2.6c0.4,0.8,0.3,1.9-0.4,2.5
					c-0.7,0.6-1.6,0.3-2.4,0.1c-0.7-0.2-1.4-0.4-2.1-0.5c-1,0-1.9,0.2-2.8,0.5c-1.1,0.3-2.2,0.5-3.3,0.1c-0.8-0.4-1.5-1-1.2-2
					c0.3-0.9,1.1-1.6,1.8-2.1c0.3-0.2,0.6-0.4,0.9-0.5c0.2-0.1,0.5-0.1,0.7-0.2c0.1,0,0.1-0.1,0-0.2c-0.1,0-0.2,0-0.3,0
					C75.9,59.4,76,59.6,76.1,59.5L76.1,59.5z"/>
			</g>
		</g>
		<g>
			<g>
				<path class="st47" d="M82.3,64.5c0.3,0.7,0.4,1.4,0.4,2.1s0,1.5-0.5,2c-0.4,0.5-1.2,0.8-1.8,0.5c-0.5-0.2-0.6-0.8-0.9-1.3
					c-0.1-0.1-0.2,0-0.2,0.1c0.2,0.4,0.3,0.9,0.7,1.2c0.4,0.3,0.9,0.4,1.4,0.2c0.5-0.1,1-0.5,1.2-1s0.3-1.2,0.3-1.8
					c0-0.7-0.2-1.5-0.4-2.2C82.4,64.3,82.2,64.4,82.3,64.5L82.3,64.5z"/>
			</g>
		</g>
		<path class="st48" d="M96.3,51.7c0-4.2-3.4-7.6-7.6-7.6s-7.6,3.4-7.6,7.6s3.4,7.6,7.6,7.6S96.3,55.9,96.3,51.7z"/>
		<path class="st48" d="M77.1,52.5c0-4.2-3.4-7.6-7.6-7.6s-7.6,3.4-7.6,7.6s3.4,7.6,7.6,7.6S77.1,56.7,77.1,52.5z"/>
		<path class="st47" d="M103.3,48.7c0-0.9-0.7-1.6-1.6-1.6s-1.6,0.7-1.6,1.6c0,0.9,0.7,1.6,1.6,1.6
			C102.6,50.3,103.3,49.6,103.3,48.7z"/>
		<path class="st47" d="M58,50.1c0-0.9-0.7-1.6-1.6-1.6c-0.9,0-1.6,0.7-1.6,1.6c0,0.9,0.7,1.6,1.6,1.6C57.3,51.7,58,51,58,50.1z"/>
		<path class="st47" d="M82.6,58.7c0-1-1.5-1.9-3.4-1.9s-3.4,0.8-3.4,1.9c0,1,1.5,1.9,3.4,1.9C81,60.6,82.6,59.8,82.6,58.7z"/>
		<path class="st47" d="M86.3,52.4c0.4,1.3,1.8,2.1,3.1,1.7c1.3-0.4,2.1-1.8,1.7-3.1s-1.8-2.1-3.1-1.7
			C86.7,49.7,85.9,51.1,86.3,52.4z M90,50.3c0.1,0.4-0.1,0.8-0.5,0.9c-0.4,0.1-0.8-0.1-0.9-0.5s0.1-0.8,0.5-0.9
			C89.5,49.7,89.8,49.9,90,50.3z"/>
		<path class="st47" d="M67.1,53.1c0.3,1.3,1.7,2.1,3,1.8s2.1-1.7,1.8-3c-0.3-1.3-1.7-2.1-3-1.8C67.6,50.4,66.8,51.8,67.1,53.1z
			 M70.8,51.1c0.1,0.4-0.1,0.8-0.5,0.9c-0.4,0.1-0.8-0.1-0.9-0.5s0.1-0.8,0.5-0.9C70.3,50.5,70.7,50.8,70.8,51.1z"/>
		<g>
			<g>
				<path class="st47" d="M79.4,63.9c0.1,0.5,0.1,1,0.1,1.5s0,1.1,0,1.6c-0.1,0.8-0.2,1.8-1,2.2c-0.7,0.3-1.5,0-1.8-0.6
					s-0.4-1.3-0.4-1.9c0-0.7,0.1-1.4,0.3-2.1c0-0.1-0.1-0.2-0.2,0c-0.4,0.6-0.4,1.3-0.4,2s0.1,1.5,0.5,2.1s1.1,0.9,1.8,0.7
					c0.8-0.2,1.2-1,1.3-1.7c0.1-0.7,0.1-1.4,0.1-2.1c0-0.6,0.1-1.2-0.1-1.7C79.5,63.8,79.4,63.8,79.4,63.9L79.4,63.9z"/>
			</g>
		</g>
		<g>
			<g>
				<path class="st47" d="M90.2,73.4c-1.3-0.3-2.7,0.2-3.9,0.9c-0.8,0.5-1.8,1.3-1.9,2.3c-0.1,0.6,0.3,1,0.8,1.3
					c0.2,0.1,0.4-0.2,0.2-0.3c-0.3-0.1-0.5-0.3-0.6-0.6c-0.1-0.2,0-0.5,0.1-0.7c0.2-0.5,0.6-0.9,1-1.3c1.1-0.9,2.7-1.6,4.2-1.3
					C90.3,73.8,90.4,73.5,90.2,73.4L90.2,73.4z"/>
			</g>
		</g>
		<g>
			<g>
				<path class="st47" d="M86.5,76.6c-0.5,0.2-1,0.6-1.1,1.1c-0.2,0.5,0.1,0.9,0.5,1.2c1.1,0.6,2.3-0.2,3.2-0.9
					c0.5-0.4,0.9-0.8,1.3-1.3c0.1-0.2-0.2-0.4-0.3-0.2c-0.6,0.8-1.4,1.5-2.2,1.9c-0.4,0.2-0.8,0.4-1.3,0.3c-0.4-0.1-0.9-0.3-0.8-0.7
					c0.1-0.5,0.6-0.8,1-1C86.9,76.8,86.7,76.5,86.5,76.6L86.5,76.6z"/>
			</g>
		</g>
		<g>
			<g>
				<path class="st47" d="M99.8,48.3c4,5.9,5.3,14.3,0.1,19.8c-0.2,0.2,0.1,0.4,0.3,0.3c5.3-5.7,4-14.3,0-20.3
					C100,47.9,99.7,48.1,99.8,48.3L99.8,48.3z"/>
			</g>
		</g>
		<g>
			<g>
				<path class="st47" d="M74.2,74.4c-0.5,0-1.1,0-1.6,0c0.1,0.1,0.1,0.2,0.2,0.3c0.5-0.8,0.8-1.9,0.5-2.9c-0.3-0.8-1.1-1.3-1.8-0.7
					c-0.3,0.3-0.5,0.7-0.6,1.1c-0.1,0.5,0.3,0.9,0.4,1.4c0.1,0.4-0.2,0.9-0.3,1.3c-0.1,0.4-0.2,0.8-0.3,1.2c-0.1,0.9,0.1,1.8,1,2.2
					c0.2,0.1,0.4-0.2,0.2-0.3c-0.9-0.4-1-1.3-0.8-2.2c0.1-0.4,0.2-0.8,0.3-1.2c0.1-0.4,0.3-0.8,0.1-1.3c-0.2-0.5-0.5-1-0.2-1.6
					c0.2-0.4,0.7-0.8,1.1-0.5c0.5,0.3,0.6,1.1,0.5,1.6c0,0.6-0.3,1.1-0.5,1.6c-0.1,0.1,0,0.3,0.2,0.3c0.5,0,1.1,0,1.6,0
					C74.4,74.8,74.4,74.4,74.2,74.4L74.2,74.4z"/>
			</g>
		</g>
		<g>
			<g>
				<path class="st47" d="M84.9,64.3c1.7-0.3,3.3-0.9,4.8-1.7c0.5-0.3,1.3-0.6,1.7-1.2c0.3-0.5-0.1-0.8-0.5-1c0,0.1,0,0.1,0,0.2
					c0.8,0.1,1.5,0.8,1.5,1.7c0,0.1,0.2,0.1,0.2,0c0-0.9-0.8-1.7-1.7-1.8c-0.1,0-0.2,0.1,0,0.2c1,0.4-0.1,1.1-0.5,1.4
					c-0.6,0.3-1.2,0.6-1.8,0.9C87.4,63.5,86.2,63.9,84.9,64.3C84.7,64.2,84.8,64.3,84.9,64.3L84.9,64.3z"/>
			</g>
		</g>
		<g>
			<g>
				<path class="st47" d="M71.5,78.4c0.7,0.4,1.5,0.8,2.3,0.7c0.6-0.1,1.2-0.4,1.6-0.8c0.7-0.8,1.1-2.2,0.5-3.1
					c-0.3-0.6-1-0.8-1.6-0.7c-0.2,0-0.2,0.4,0,0.4c0.5,0,1,0.1,1.2,0.4c0.3,0.4,0.3,0.8,0.3,1.3c-0.1,1-0.9,2-1.9,2.2
					c-0.8,0.2-1.6-0.2-2.3-0.6C71.5,78,71.3,78.3,71.5,78.4L71.5,78.4z"/>
			</g>
		</g>
		<g>
			<g>
				<path class="st47" d="M77.3,40.3c-0.3-0.3-0.6-0.7-0.9-1c-0.3-0.4-0.5-0.9-0.6-1.4c0-0.4,0.3-1,0.7-0.9c0.4,0.1,0.5,0.7,0.5,1
					c0.1,0,0.1,0,0.2-0.1c-1.6-1.5,1.1-2.8,2.3-3.2c0.1,0,0.1-0.2,0-0.2c-1.3,0.4-4.1,1.9-2.4,3.5c0.1,0.1,0.2,0,0.2-0.1
					c0-0.4-0.2-1-0.6-1.2s-0.8,0.1-0.9,0.5c-0.2,0.5,0,1.1,0.3,1.6s0.7,1.1,1.1,1.5C77.3,40.5,77.4,40.4,77.3,40.3L77.3,40.3z"/>
			</g>
		</g>
		<g>
			<g>
				<path class="st47" d="M78.3,40.1c-0.1,0-0.2-0.1-0.3-0.1c-0.1-0.1-0.1-0.1-0.1-0.2c0-0.2,0.2-0.5,0.3-0.7V39h-0.1
					c-0.2,0.2-0.4,0.5-0.3,0.8c0,0.3,0.3,0.4,0.5,0.5C78.3,40.4,78.4,40.2,78.3,40.1L78.3,40.1z"/>
			</g>
		</g>
		<g>
			<g>
				<path class="st47" d="M109.2,61.1c2,2.1,2.1,5.2,0.8,7.7c-1.3,2.6-4,3.8-6.7,4.5c-2.5,0.6-5.2,0.9-7.8,0.9c-1.1,0-2.2,0-3.3,0.4
					c-0.5,0.2-1.8,0.6-1.8,1.3c0,0.1,0.1,0.1,0.2,0.1c0.1-0.1,0.1-0.2,0.2-0.2c0.1-0.1,0-0.2-0.1-0.1c-0.3,0.3,0.2-0.1,0.3-0.1
					c0.4-0.2,0.7-0.5,1.2-0.7c0.7-0.3,1.4-0.3,2.2-0.4c1.2-0.1,2.5,0,3.7-0.1c2.8-0.3,5.7-0.6,8.2-1.8c2.3-1,4-2.8,4.7-5.3
					c0.6-2.2,0.1-4.6-1.5-6.2C109.3,60.9,109.1,61,109.2,61.1L109.2,61.1z"/>
			</g>
		</g>
		<g>
			<g>
				<path class="st47" d="M106.5,59.4c0.3,0.1,0.6,0.3,0.9,0.4h0.1v-0.1C107.2,59.6,106.9,59.4,106.5,59.4L106.5,59.4
					C106.4,59.3,106.4,59.4,106.5,59.4L106.5,59.4z"/>
			</g>
		</g>
		<g>
			<g>
				<path class="st47" d="M103,55.2c0.3,1.3,1.1,2.4,2.1,3.2c0.1,0.1,0.2-0.1,0.1-0.1C104.2,57.5,103.4,56.4,103,55.2
					C103.1,55.1,103,55.1,103,55.2L103,55.2z"/>
			</g>
		</g>
		<g>
			<g>
				<path class="st47" d="M110.9,66.6c0.6,0.2,1.2,0.4,1.7,0.7c0.2,0.1,0.5,0.3,0.6,0.6c0.1,0.3-0.4,0.6-0.6,0.7
					c-0.6,0.3-1.4,0.4-2,0.7c-0.1,0-0.1,0.2,0,0.2c0.6-0.2,1.3-0.3,1.9-0.6c0.3-0.1,0.8-0.4,0.8-0.8c0-0.3-0.3-0.5-0.5-0.7
					c-0.3-0.2-0.7-0.4-1.1-0.5c-0.3-0.1-0.6-0.2-1-0.4C110.8,66.4,110.8,66.6,110.9,66.6L110.9,66.6z"/>
			</g>
		</g>
		<g>
			<g>
				<path class="st47" d="M111.5,68.1c0.3,0.1,0.6,0.2,0.9,0.2s0.6-0.1,0.9-0.2c0.1-0.1,0-0.2-0.1-0.2c-0.3,0.1-0.5,0.2-0.8,0.2
					s-0.6-0.1-0.8-0.2C111.5,67.8,111.4,68,111.5,68.1L111.5,68.1z"/>
			</g>
		</g>
		<g>
			<g>
				<path class="st47" d="M107.4,59.8c0.2,0,0.5-0.1,0.7-0.2c0.3-0.1,0.6-0.2,0.9-0.3c0.2-0.1,0.5-0.2,0.7-0.1
					c0.1,0,0.2,0.1,0.2,0.2c0.1,0.2,0.1,0.3,0,0.5c-0.1,0.4-0.3,0.7-0.7,0.9c-0.1,0.1,0,0.2,0.1,0.2c0.5-0.4,1.1-1.3,0.6-1.9
					c-0.2-0.2-0.4-0.1-0.6-0.1c-0.3,0.1-0.6,0.2-1,0.3c-0.3,0.1-0.6,0.2-0.9,0.3C107.3,59.6,107.3,59.8,107.4,59.8L107.4,59.8z"/>
			</g>
		</g>
		<g>
			<g>
				<path class="st47" d="M76.2,76.6c2.9,0.9,6.2,1.1,8.9-0.5c0.2-0.1,0-0.4-0.2-0.3c-2.6,1.6-5.8,1.3-8.6,0.4
					C76,76.1,75.9,76.5,76.2,76.6L76.2,76.6z"/>
			</g>
		</g>
		<g>
			<g>
				<path class="st47" d="M71.1,77.6c-1.1-0.9-2.3-1.9-2.6-3.3c0-0.1-0.2-0.1-0.2,0c0.3,1.5,1.6,2.5,2.6,3.4
					C71,77.8,71.1,77.7,71.1,77.6L71.1,77.6z"/>
			</g>
		</g>
		<g>
			<g>
				<path class="st47" d="M109.7,61.4c-0.5,0.2-1.1,0.2-1.6-0.2s-0.7-0.9-0.8-1.5c0-0.1-0.2-0.1-0.2,0c0.1,0.6,0.4,1.2,0.9,1.6
					C108.5,61.7,109.2,61.7,109.7,61.4C109.9,61.6,109.8,61.4,109.7,61.4L109.7,61.4z"/>
			</g>
		</g>
		<g>
			<g>
				<path class="st47" d="M106.5,59.2c-0.2-0.8-0.3-1.4-1.2-1.6c-0.1,0-0.1,0-0.1,0.1c-0.1,2.3,1.5,4.3,2.6,6.3
					c0.6,1.1,1.2,2.3,1.3,3.6c0.1,1.5-0.6,2.8-1.6,3.8c-0.1,0.1,0,0.2,0.1,0.1c1-1,1.7-2.3,1.6-3.7c0-1.3-0.5-2.5-1.1-3.6
					c-0.7-1.3-1.5-2.5-2.1-3.8c-0.3-0.7-0.6-1.4-0.6-2.1c0-0.1-0.1-0.4,0-0.5c0.1-0.2,0.4,0,0.5,0.2c0.3,0.3,0.3,0.8,0.4,1.1
					C106.4,59.4,106.5,59.4,106.5,59.2L106.5,59.2z"/>
			</g>
		</g>
		<g>
			<g>
				<path class="st47" d="M105.2,57.7c-0.9,4.8,4.8,10.7,0.2,14.7c-0.1,0.1,0,0.2,0.1,0.1C110.2,68.4,104.4,62.6,105.2,57.7
					C105.4,57.7,105.2,57.6,105.2,57.7L105.2,57.7z"/>
			</g>
		</g>
	</g>
</g>
<g>
	<g>
		<path class="st47" d="M56,75c0.8-0.6,1.5-1.3,2.3-1.9c0.6-0.4,1.4-0.8,1.6-1.5c0.1-0.2-0.3-0.3-0.4-0.1c-0.2,0.7-1,1.1-1.5,1.4
			c-0.8,0.5-1.5,1.2-2.2,1.8C55.6,74.9,55.8,75.2,56,75L56,75z"/>
	</g>
</g>
<g>
	<g>
		<path class="st47" d="M50.4,38.4c-4.6-1.4-9.5-0.5-13.5,2.1c-2.2,1.4-4,3.2-5.7,5.3c-1.6,2-3.2,4.1-4.6,6.3
			c-3,4.5-3.9,9.5-2.3,14.7c1.5,4.8,4.7,8.6,9.1,11c5.1,2.7,10.9,3,16.3,0.9c0.2-0.1,0.1-0.4-0.1-0.4c-9.4,3.6-20.6-0.5-24.4-10
			c-2-5-1.8-10.3,1-14.9c1.2-1.9,2.6-3.7,3.9-5.5c1.5-2.1,3.1-4.1,5.1-5.7c4.2-3.3,9.8-4.8,15-3.3C50.5,38.8,50.6,38.4,50.4,38.4
			L50.4,38.4z"/>
	</g>
</g>
<g>
	<g>
		<path class="st47" d="M26.9,72.3c-2.2,2-5.6,1.4-7.2-1.1c-1.2-1.8-1.2-4.3,0-6.2c0.8-1.2,2.2-2.6,3.7-2.4c0.2,0,0.2-0.3,0-0.4
			c-1.5-0.2-2.8,0.9-3.7,2c-0.8,0.9-1.2,2.1-1.3,3.3c-0.2,2.6,1.3,5.2,3.8,6c1.7,0.5,3.5,0.1,4.9-1.1C27.4,72.4,27.1,72.1,26.9,72.3
			L26.9,72.3z"/>
	</g>
</g>
<g>
	<g>
		<path class="st47" d="M45.4,37.9c0.7-2.7,2.9-6,6.1-5.3c1.6,0.4,3,1.4,3.9,2.7c1,1.4,1.3,3.5,0.3,5c-0.1,0.2,0.2,0.4,0.3,0.2
			c1.7-2.5,0.1-5.7-2.1-7.2c-1.1-0.8-2.5-1.3-3.8-1.2c-1.2,0.1-2.3,0.9-3.1,1.8c-1,1.1-1.7,2.5-2,3.9C44.9,38,45.3,38.1,45.4,37.9
			L45.4,37.9z"/>
	</g>
</g>
<g>
	<g>
		<path class="st47" d="M42.1,63.3C42.1,63.2,42.2,63.2,42.1,63.3v-0.2c0,0.2-0.3,0.5-0.4,0.7c-0.1,0.4-0.2,0.7-0.2,1.1
			c-0.1,0.8-0.1,1.6,0.2,2.3c0.6,1.7,2.8,1.2,3.8,0.2c0.7-0.7,1.1-1.6,1.7-2.4c0.6-0.8,1.3-1.2,2.2-1.5c0.6-0.3,1.4-0.5,1.8-1.1
			c0.4-0.7,0.2-1.6-0.3-2.2c-1.2-1.6-3.8-1-5.4-0.5c-0.1,0-0.1,0.2,0,0.2c1.4-0.5,3.4-1,4.7-0.1c0.7,0.5,1.2,1.6,0.7,2.4
			c-0.4,0.6-1.2,0.9-1.9,1.1c-0.6,0.3-1.2,0.6-1.7,1c-0.6,0.6-1,1.3-1.4,2c-0.5,0.8-1.2,1.5-2.2,1.7c-0.8,0.2-1.6,0-1.9-0.8
			c-0.4-0.8-0.3-1.7-0.2-2.5c0-0.3,0.1-0.8,0.2-1.1c0.1-0.2,0.3-0.4,0.4-0.6c0-0.1-0.1-0.1-0.1-0.1C42,63,42,63,41.9,63.1
			C41.9,63.3,42.1,63.4,42.1,63.3L42.1,63.3z"/>
	</g>
</g>
<g>
	<g>
		<path class="st47" d="M49.4,63.4c1,0.5,2.1,1.4,2.5,2.5c0.2,0.6,0.2,1.4-0.4,1.8c-0.5,0.4-1.1,0.1-1.6-0.1c-0.1,0-0.2,0.1-0.1,0.2
			c0.4,0.2,0.9,0.4,1.3,0.3c0.5-0.1,0.9-0.5,1-1c0.4-1.1-0.4-2.1-1.2-2.8c-0.5-0.4-1-0.8-1.5-1.1C49.3,63.2,49.3,63.4,49.4,63.4
			L49.4,63.4z"/>
	</g>
</g>
<g>
	<path class="st47" d="M52.2,47.1c-0.3-0.6-0.7-1.2-1.1-1.7c-1.4-1.6-3.3-2.6-5.3-2.8c-1.9-0.2-3.7,0.3-5.1,1.5
		c-2.9,2.5-3.1,7.2-0.3,10.4c1,1.2,2.4,2.1,3.8,2.5c0,0,0-0.1,0.1-0.1c0,0,0.1,0,0.1-0.1c-1.5-0.4-2.8-1.3-3.8-2.5
		c-2.7-3.2-2.6-7.7,0.3-10.2c1.3-1.1,3.1-1.7,4.9-1.5c2,0.2,3.8,1.2,5.1,2.8c0.5,0.6,0.9,1.1,1.2,1.8C52.1,47.2,52.2,47.1,52.2,47.1
		z"/>
</g>
<g>
	<path class="st47" d="M38.4,57.3c-1.4-1.6-3.2-2.6-5.3-2.8c-1.9-0.2-3.7,0.3-5.1,1.5s-2.2,3-2.3,4.9c-0.1,2,0.6,3.9,2,5.5
		S31,69,33,69.2l0,0c0.9,0.1,1.7,0,2.5-0.2c0-0.1,0-0.1,0-0.2C34.7,69,33.9,69.1,33,69c-2-0.2-3.8-1.2-5.1-2.8
		c-1.3-1.5-2-3.4-1.9-5.3c0.1-1.9,0.9-3.6,2.2-4.8c1.3-1.1,3.1-1.7,4.9-1.5c2,0.2,3.8,1.2,5.1,2.8c0.7,0.9,1.3,1.9,1.6,2.9
		c0,0,0.1-0.1,0.2-0.1C39.6,59.2,39.1,58.2,38.4,57.3z"/>
</g>
<path class="st47" d="M51.9,36.3c-0.6-0.6-1.6-0.6-2.2,0c-0.6,0.6-0.5,1.6,0.2,2.2c0.6,0.6,1.6,0.6,2.2,0
	C52.6,37.9,52.6,36.9,51.9,36.3z"/>
<path class="st47" d="M24.6,67.2c-0.6-0.6-1.6-0.6-2.2,0s-0.5,1.6,0.2,2.2c0.6,0.6,1.6,0.6,2.2,0C25.3,68.7,25.3,67.8,24.6,67.2z"/>
<path class="st47" d="M46.1,58.9c-0.7-0.8-2.3-0.5-3.6,0.6s-1.8,2.7-1.1,3.4c0.7,0.8,2.3,0.5,3.6-0.6C46.2,61.2,46.8,59.7,46.1,58.9
	z"/>
<path class="st47" d="M43.9,51.3c0.8,1.1,2.2,1.4,3.2,0.7c1-0.8,1.2-2.3,0.4-3.4c-0.8-1.1-2.2-1.4-3.2-0.7
	C43.4,48.6,43.2,50.2,43.9,51.3z M46.4,48.2c0.2,0.3,0.2,0.8-0.1,1s-0.7,0.1-0.9-0.2s-0.2-0.8,0.1-1C45.7,47.8,46.2,47.9,46.4,48.2z
	"/>
<path class="st47" d="M31.2,63.2c0.8,1.1,2.2,1.5,3.2,0.7c1-0.7,1.2-2.3,0.5-3.4c-0.8-1.1-2.2-1.5-3.2-0.7
	C30.6,60.5,30.4,62.1,31.2,63.2z M33.6,60.2c0.2,0.3,0.2,0.8-0.1,1s-0.7,0.1-0.9-0.2s-0.2-0.8,0.1-1C33,59.8,33.4,59.8,33.6,60.2z"
	/>
<g>
	<g>
		<path class="st47" d="M47.3,64.7c0.9,1,2.1,1.9,2.5,3.2c0.1,0.3,0.2,0.7,0.1,1c0,0.3-0.2,0.8-0.4,1c-0.6,0.4-1.5-0.1-2-0.5
			c-0.7-0.7-1.3-1.4-1.7-2.3c0-0.1-0.2,0-0.2,0.1c0.4,0.9,1,1.7,1.7,2.3c0.3,0.3,0.6,0.5,1,0.6c0.3,0.1,0.7,0.2,1,0.1
			c0.7-0.2,0.8-1.1,0.8-1.7c-0.1-0.7-0.5-1.4-0.9-1.9c-0.6-0.7-1.2-1.3-1.8-2C47.3,64.5,47.2,64.6,47.3,64.7L47.3,64.7z"/>
	</g>
</g>
<g>
	<g>
		<path class="st47" d="M58.4,42.5c1.1,0.9,2.2,1.9,3,3.1c0.1,0.2,0.5,0,0.3-0.2c-0.9-1.2-1.9-2.3-3.1-3.2
			C58.4,42.1,58.2,42.4,58.4,42.5L58.4,42.5z"/>
	</g>
</g>
<g>
	<g>
		<path class="st47" d="M57.9,42.2c0.1,0.1,0.2,0.1,0.2,0.2l0,0l0.1,0.1c0,0,0,0,0.1,0c0,0,0,0,0.1,0c0,0,0.1,0,0.1-0.1l0.1-0.1
			c0,0,0-0.1-0.1-0.1c-0.1-0.1-0.3-0.2-0.4-0.3H58c0,0-0.1,0-0.1,0.1L57.9,42.2C57.8,42.1,57.8,42.1,57.9,42.2
			C57.8,42.1,57.9,42.1,57.9,42.2L57.9,42.2z"/>
	</g>
</g>
<g>
	<g>
		<path class="st47" d="M49.4,38.4c3,0.6,5.9,1.9,8.4,3.7c0.2,0.1,0.4-0.2,0.2-0.3c-2.5-1.8-5.4-3.1-8.5-3.7
			C49.3,38,49.2,38.3,49.4,38.4L49.4,38.4z"/>
	</g>
</g>
<g>
	<g>
		<path class="st47" d="M24.1,55.3c-0.6,0.1-1.3,0.2-1.6-0.4c-0.3-0.5-0.2-1.3,0-1.8c0.2-0.7,0.5-1.4,1-2c0.3-0.4,0.8-0.9,1.4-0.8
			c0.8,0.1,1.1,1.1,1.3,1.7c0,0.1,0.1,0.3,0.1,0.5c0,0.1,0.2,0.1,0.2,0c-0.1-0.5-0.3-1.1-0.6-1.5c-0.2-0.3-0.4-0.6-0.8-0.7
			c-0.6-0.2-1.2,0.2-1.6,0.6c-0.5,0.6-0.9,1.3-1.2,2c-0.2,0.6-0.4,1.4-0.1,2.1c0.3,0.7,0.9,0.9,1.6,0.8c0.1,0,0.2,0,0.3-0.1
			C24.2,55.5,24.2,55.3,24.1,55.3L24.1,55.3z"/>
	</g>
</g>
<g>
	<g>
		<path class="st47" d="M25.7,53.4c-0.2-0.7-0.7-1.3-1.4-1.4c-0.7-0.2-1.4,0.1-1.8,0.7c-0.2,0.3-0.3,0.8-0.2,1.1
			c0,0.1,0.2,0.1,0.2,0c-0.2-0.8,0.4-1.6,1.3-1.7c0.9-0.1,1.6,0.5,1.8,1.3C25.5,53.5,25.7,53.5,25.7,53.4L25.7,53.4z"/>
	</g>
</g>
<g>
	<g>
		<path class="st47" d="M24.6,50.1c-0.9-1.7-1.9-3.4-2.4-5.2c-0.5-1.7-0.6-3.8,0.3-5.3c0.3-0.6,0.9-1,1.6-0.8
			c0.8,0.2,1.4,0.9,1.9,1.5c0.8,1,1.3,2.4,2.7,2.5c0.9,0,1.8-0.7,2.7-0.3c1.1,0.5,0.9,1.6,0.4,2.5c0-0.1,0.2,0,0.2-0.1
			c0.3-0.6,0.7-1.3,0.4-2c-0.3-0.6-1-1-1.7-0.9c-1,0.1-1.9,0.7-2.9,0.1c-0.8-0.5-1.1-1.4-1.6-2.1c-0.7-0.9-2-2.2-3.2-1.2
			s-1.4,3.2-1.2,4.6C22.1,45.9,23.5,48,24.6,50.1C24.5,50.3,24.7,50.2,24.6,50.1L24.6,50.1z"/>
	</g>
</g>
<g>
	<g>
		<path class="st47" d="M25.5,50.4c-0.5-1.7-1-3.4-1.1-5.2c0-1.9,0.6-3.7,1.9-5c0.1-0.1,0-0.2-0.1-0.1c-1.3,1.3-1.9,3-2,4.9
			c0,1.9,0.5,3.8,1.1,5.6C25.3,50.6,25.5,50.5,25.5,50.4L25.5,50.4z"/>
	</g>
</g>
<g>
	<g>
		<path class="st47" d="M25.7,50.6c0-0.2,0.1-0.3,0.2-0.5c0.1-0.3,0.3-0.7,0.4-1c0.3-0.7,0.6-1.4,1-2c0.1-0.1-0.1-0.2-0.2-0.1
			c-0.4,0.6-0.7,1.3-1,2c-0.1,0.3-0.3,0.7-0.4,1c-0.1,0.2-0.2,0.3-0.2,0.5S25.7,50.8,25.7,50.6L25.7,50.6z"/>
	</g>
</g>
<g>
	<g>
		<path class="st47" d="M24.7,55.4c-1.3,0.1-2.2,1.2-2.8,2.3c-0.6,1.2-1,2.5-1.3,3.8c0,0.1,0.2,0.2,0.2,0c0.2-1.2,0.6-2.4,1.1-3.6
			C22.5,56.8,23.4,55.6,24.7,55.4C24.8,55.6,24.8,55.4,24.7,55.4L24.7,55.4z"/>
	</g>
</g>
<g>
	<g>
		<path class="st47" d="M22.1,54.5c-1.1,0.6-2.3,1.2-3.3,1.9c-0.9,0.6-1.9,1.3-2.6,2.2c-0.9,1.2-1.8,2.5-2.2,4
			c-0.4,1.2-0.2,2.6,1.1,3.1c1.4,0.5,2.7-0.3,3.8-1.2c1.4-1.2,2.8-2.7,4.8-1.9c0.1,0,0.2-0.1,0-0.2c-3-1.2-4.5,2.6-7,3.2
			c-0.8,0.2-1.7,0-2.2-0.5C14,64.5,14,63.7,14.1,63c0.3-1.4,1.2-2.8,2-3.9c1.5-2,4-3.2,6.1-4.3C22.3,54.6,22.2,54.5,22.1,54.5
			L22.1,54.5z"/>
	</g>
</g>
<g>
	<g>
		<path class="st47" d="M22.7,55.6c-0.2,0.3-0.5,0.6-0.7,0.8c-0.4,0.3-0.8,0.6-1.1,1c-0.8,0.6-1.6,1.2-2.2,1.9
			c-0.1,0.1,0,0.2,0.1,0.1c0.7-0.7,1.5-1.3,2.3-1.9c0.4-0.3,0.8-0.6,1.2-1c0.3-0.2,0.5-0.5,0.7-0.8C22.9,55.5,22.8,55.5,22.7,55.6
			L22.7,55.6z"/>
	</g>
</g>
<g>
	<g>
		<path class="st47" d="M25.9,50.7c0.1-0.8,0.7-1.7,1.5-1.6L27.3,49c0,0.9-1,1.5-1.7,1.8c-0.1,0,0,0.2,0.1,0.2c0.8-0.4,1.8-1,1.8-2
			c0-0.1,0-0.1-0.1-0.1c-1-0.1-1.6,0.9-1.7,1.7C25.7,50.8,25.9,50.8,25.9,50.7L25.9,50.7z"/>
	</g>
</g>
<g>
	<g>
		<path class="st47" d="M25.5,49.9c-0.1-1.4-0.6-2.8-0.3-4.2c0.1-0.4,0.2-0.8,0.4-1.2c0.1-0.4,0.3-0.8,0.7-1.1
			c0.3-0.2,0.7,0.1,0.8,0.4c0.1,0.3,0,0.7-0.1,1c-0.2,1-0.6,1.9-1,2.8c-0.3,0.9-0.8,1.9-0.7,2.8c0,0.1,0.2,0.1,0.2,0
			c-0.1-1,0.4-2,0.8-2.9c0.4-1,0.8-2,1-3.1c0-0.3,0.1-0.7-0.1-0.9c-0.1-0.3-0.4-0.5-0.7-0.5c-0.4,0.1-0.6,0.4-0.8,0.7
			c-0.2,0.4-0.4,0.9-0.5,1.3C25,45.6,25,46.1,25,46.7c0,1,0.3,2,0.4,3.1C25.3,50.1,25.5,50.1,25.5,49.9L25.5,49.9z"/>
	</g>
</g>
<g>
	<g>
		<path class="st47" d="M24.1,55.6c-0.2,0.2-0.4,0.4-0.5,0.6c-0.3,0.4-0.5,0.7-0.7,1.1c-0.5,0.8-0.9,1.6-1.1,2.5
			c-0.1,0.5-0.1,1.1,0.6,1c0.9-0.2,1-1.4,1.1-2.1c0.1-0.6,0.2-1.3,0.3-1.9c0.1-0.5,0.2-1.1,0.6-1.3c0.1-0.1,0-0.2-0.1-0.2
			c-0.7,0.5-0.7,1.5-0.9,2.3c-0.1,0.5-0.1,1-0.3,1.6c-0.1,0.4-0.2,0.9-0.4,1.2c-0.1,0.2-0.5,0.4-0.7,0.3c-0.2-0.1-0.1-0.4-0.1-0.6
			c0.2-0.8,0.6-1.6,1-2.3c0.2-0.4,0.5-0.8,0.8-1.2c0.2-0.2,0.4-0.5,0.6-0.7C24.3,55.7,24.2,55.6,24.1,55.6L24.1,55.6z"/>
	</g>
</g>
<g>
	<g>
		<path class="st47" d="M22,52.8c-1,0.7-2.2,0.7-3.2-0.1C18,52,17.4,51,17.1,50c-0.1-0.5-0.5-1.8,0.2-2c0.5-0.1,1.1,0.3,1.3,0.8
			c0.1,0.2,0,0.5-0.2,0.7c-0.3,0.2-0.7,0.1-1-0.2c-0.4-0.4-0.8-1.1-0.8-1.7c0-0.5,0.3-0.9,0.4-1.3c0-0.4-0.2-0.9-0.3-1.3
			c-0.2-0.6-0.5-1.3-0.7-1.9c0-0.1-0.2-0.1-0.2,0c0.2,0.7,0.5,1.4,0.8,2.2c0.1,0.3,0.2,0.6,0.2,1c0,0.3-0.1,0.5-0.2,0.7
			c-0.3,0.9,0,2,0.8,2.6c0.4,0.3,1,0.2,1.3-0.3c0.3-0.6-0.1-1.1-0.6-1.3c-0.3-0.2-0.8-0.3-1.1,0c-0.3,0.3-0.3,0.7-0.3,1.1
			c0,1.2,0.6,2.4,1.4,3.3c1.1,1.2,2.5,1.5,3.9,0.6C22.2,52.9,22.1,52.7,22,52.8L22,52.8z"/>
	</g>
</g>
<g>
	<g>
		<path class="st47" d="M22.2,52.1c-0.4,0.2-0.8,0.3-1.2,0.2c-0.4-0.1-0.7-0.3-0.9-0.6c-0.4-0.4-0.7-1.2-0.3-1.8
			c0.3-0.4,0.8-0.5,1.3-0.5L21,49.3c0,0.1,0,0.3,0,0.4c0,0.1,0,0.1,0,0.2c0,0.1-0.1,0.1-0.2,0.2c-0.1,0.1-0.3,0.2-0.4,0.3h0.1
			c-0.1-0.1-0.1-0.2,0-0.3s0.1-0.2,0.1-0.3s-0.2-0.1-0.2,0s-0.1,0.2-0.2,0.3s0,0.3,0.1,0.4c0,0,0.1,0.1,0.1,0
			c0.2-0.1,0.5-0.3,0.6-0.5s0-0.5,0-0.7c0-0.1,0-0.1-0.1-0.1c-0.5,0-1,0.1-1.3,0.4c-0.3,0.2-0.4,0.6-0.3,1c0.1,0.8,0.7,1.5,1.4,1.7
			C21.2,52.5,21.8,52.4,22.2,52.1C22.4,52.2,22.3,52.1,22.2,52.1L22.2,52.1z"/>
	</g>
</g>
<g>
	<g>
		<path class="st47" d="M22.7,51.5L22.7,51.5C22.7,51.5,22.6,51.6,22.7,51.5c-0.1,0.1-0.1,0.1-0.1,0.1s0,0-0.1,0l0,0l0,0l0,0
			c0,0,0,0-0.1,0l0,0l0,0c0,0,0,0-0.1,0l0,0l0,0c0,0,0,0-0.1,0l0,0l0,0l0,0c0,0,0,0-0.1,0l0,0l0,0l0,0l0,0l0,0v-0.1c0,0,0,0,0-0.1
			v-0.1c0-0.2,0-0.4,0-0.6c0,0,0-0.1-0.1-0.1c0,0-0.1,0-0.1,0.1c-0.1,0.4-0.1,0.8,0.1,1.1c0.2,0.2,0.4,0.3,0.7,0.2
			c0.1,0,0.3-0.1,0.4-0.2C22.9,51.6,22.8,51.4,22.7,51.5L22.7,51.5z"/>
	</g>
</g>
<g>
	<g>
		<path class="st47" d="M39.9,60.1c-2.4,2.2-5,5.3-4.6,8.8c0,0.1,0.2,0.1,0.2,0c-0.4-3.5,2.1-6.5,4.5-8.7
			C40.1,60.2,40,60.1,39.9,60.1L39.9,60.1z"/>
	</g>
</g>
<g>
	<g>
		<path class="st47" d="M44.2,56.9c2.2-1.5,4.2-3.6,6.9-4.4c0.1,0,0.1-0.2,0-0.2c-2.7,0.8-4.6,2.9-6.9,4.4
			C44.1,56.8,44.1,57,44.2,56.9L44.2,56.9z"/>
	</g>
</g>
<g>
	<g>
		<path class="st47" d="M51.2,62.1c0.9-1.4,2.5-4.3,0.5-5.5c0,0.1,0,0.1,0,0.2c0.7-0.5,1.6-0.1,2.1,0.5c0.1,0.1,0.2,0,0.1-0.1
			c-0.6-0.6-1.6-1-2.4-0.5c-0.1,0-0.1,0.1,0,0.2c1.9,1.2,0.2,3.9-0.6,5.3C51,62.1,51.2,62.2,51.2,62.1L51.2,62.1z"/>
	</g>
</g>
<g>
	<g>
		<path class="st47" d="M55.9,75.4c2-1.1,4.2-2,6.6-1.8c0.1,0,0.1-0.2,0-0.2c-2.4-0.2-4.6,0.8-6.7,1.8
			C55.7,75.3,55.8,75.4,55.9,75.4L55.9,75.4z"/>
	</g>
</g>
<g>
	<g>
		<path class="st47" d="M55.9,75.3c1.3-0.1,2.5,0.8,3.9,0.5c1.3-0.3,2.3-1.2,3.4-1.8c0.1-0.1,0-0.2-0.1-0.2
			c-1.1,0.5-2.1,1.4-3.4,1.7c-1.3,0.3-2.5-0.7-3.8-0.5C55.8,75.1,55.8,75.3,55.9,75.3L55.9,75.3z"/>
	</g>
</g>
<g>
	<g>
		<path class="st47" d="M32.9,77c-0.7,0.1-1.7,0.5-1.6,1.4s0.9,1.4,1.7,1.7c0.5,0.1,0.9,0.2,1.4,0.4c0.3,0.1,0.6,0.2,1,0.3
			c0.6,0.1,1.3,0.2,1.8-0.1c0.7-0.4,0.5-1.2,0.3-1.8c-0.1-0.1-0.2,0-0.2,0.1c0.2,0.5,0.4,1.2-0.2,1.5c-0.5,0.2-1.1,0.2-1.6,0.1
			c-0.6-0.1-1.2-0.4-1.8-0.5c-0.8-0.2-1.6-0.4-2.1-1.1c-0.2-0.4-0.3-0.9,0-1.2c0.3-0.3,0.8-0.5,1.2-0.5C33.1,77.2,33.1,77,32.9,77
			L32.9,77z"/>
	</g>
</g>
<g>
	<g>
		<path class="st47" d="M31.5,78.1c1.1-0.5,2.4,0,3.3,0.7c0.1,0.1,0.2-0.1,0.1-0.1c-1-0.8-2.3-1.3-3.5-0.8
			C31.3,78,31.4,78.2,31.5,78.1L31.5,78.1z"/>
	</g>
</g>
<g>
	<g>
		<path class="st47" d="M55,74.9c-1.4,0.1-2.8,0.5-4,1.4c-0.8,0.6-1.8,1.9-0.7,2.8c0.9,0.8,2.2,0.9,3.4,0.6c1.1-0.3,2.3-1,2.7-2.1
			c0.4-1,0.1-2.4-1.1-2.6c-0.1,0-0.2,0.2,0,0.2c1,0.2,1.3,1.3,1,2.2c-0.3,1-1.4,1.7-2.4,2.1s-2.2,0.3-3.1-0.2
			c-0.5-0.3-0.9-0.8-0.7-1.4c0.2-0.5,0.6-0.9,1-1.3c1.1-0.9,2.5-1.3,3.9-1.4C55.1,75.1,55.1,74.9,55,74.9L55,74.9z"/>
	</g>
</g>
<g>
	<g>
		<path class="st47" d="M50.9,79.3c0.1-1.7,2.4-2.1,3.7-1.9c0.1,0,0.1-0.2,0-0.2c-1.4-0.2-3.8,0.2-3.9,2.1
			C50.7,79.4,50.9,79.4,50.9,79.3L50.9,79.3z"/>
	</g>
</g>
<g>
	<g>
		<path class="st47" d="M98.6,86.7c1.1,0.8,0.8,2.5,0.6,3.6c0,0.1,0.2,0.2,0.2,0c0.3-1.2,0.5-3-0.6-3.9
			C98.6,86.4,98.6,86.6,98.6,86.7L98.6,86.7z"/>
	</g>
</g>
<g>
	<g>
		<path class="st47" d="M98.8,86.7c1.1,0.4,1.4,1.7,1.6,2.8c0,0.1,0.2,0.1,0.2,0c-0.1-0.6-0.2-1.2-0.5-1.8c-0.3-0.5-0.7-1-1.3-1.2
			C98.8,86.4,98.7,86.6,98.8,86.7L98.8,86.7z"/>
	</g>
</g>
<g>
	<g>
		<path class="st47" d="M86.1,92.5c0.4-0.1,0.6-0.3,0.7-0.7c0.1-0.5,0-0.9-0.2-1.4c0-0.1-0.2-0.1-0.2,0c0.1,0.4,0.2,0.8,0.2,1.2
			c0,0.3-0.2,0.5-0.6,0.6C86,92.4,86,92.5,86.1,92.5L86.1,92.5z"/>
	</g>
</g>
<g>
	<g>
		<path class="st47" d="M45.4,67.3c-1.5,1.8-3.8,4.3-6.3,3c-0.1,0-0.1,0-0.1,0.1c-0.1,0.7,0.1,1.4,0.5,2c0.1,0.1,0.2,0,0.2-0.1
			c-0.3-0.6-0.5-1.2-0.4-1.9l-0.1,0.1c2.6,1.3,5-1.2,6.6-3C45.6,67.4,45.5,67.2,45.4,67.3L45.4,67.3z"/>
	</g>
</g>
<g>
	<g>
		<path class="st47" d="M76.7,79.9c2.1-0.5,4.2-0.4,6.3,0.2c1.3,0.3,2.6,1.1,3.9,1.2c0.3,0,0.7-0.1,1-0.2c1-0.2,2-0.4,3-0.7
			c2.3-0.5,4.7-0.9,7-0.2c0.1,0,0.2-0.1,0-0.2c-1.9-0.6-3.8-0.4-5.8-0.1c-1.1,0.2-2.2,0.5-3.3,0.7c-0.6,0.1-1.4,0.5-2.1,0.4
			s-1.4-0.4-2-0.6c-0.9-0.3-1.9-0.6-2.8-0.8c-1.8-0.4-3.6-0.4-5.4,0.1C76.5,79.8,76.6,79.9,76.7,79.9L76.7,79.9z"/>
	</g>
</g>
<g>
	<g>
		<path class="st47" d="M81.9,81.4c1.7-0.1,3.2,0.8,4.9,1c1.5,0.2,3-0.3,4.5-0.7c0.1,0,0.1-0.2,0-0.2c-1.5,0.4-3,0.9-4.6,0.6
			c-1.6-0.2-3-1.1-4.7-0.9C81.8,81.2,81.8,81.4,81.9,81.4L81.9,81.4z"/>
	</g>
</g>
<g>
	<g>
		<path class="st47" d="M107.5,65c1,1.7,1.2,3.8-0.1,5.4c-0.1,0.1,0.1,0.2,0.1,0.1c0.6-0.8,1-1.7,1-2.7s-0.3-2-0.8-2.9
			C107.6,64.8,107.4,64.9,107.5,65L107.5,65z"/>
	</g>
</g>
<g>
	<g>
		<path class="st47" d="M25.2,54.6c-0.6,0.3-1.3,0.4-1.9,0.1c-0.3-0.1-0.5-0.5-0.4-0.8s0.4-0.4,0.6-0.5c0.3-0.1,0.7-0.1,1,0
			c0.4,0.2,0.7,0.5,0.9,1c0,0.1,0.2,0.1,0.2,0c-0.1-0.4-0.4-0.8-0.9-1c-0.4-0.2-0.8-0.2-1.2-0.1c-0.3,0.1-0.7,0.2-0.8,0.6
			c-0.2,0.3,0,0.7,0.3,1s0.7,0.3,1.1,0.3s0.8-0.1,1.2-0.3C25.4,54.7,25.3,54.5,25.2,54.6L25.2,54.6z"/>
	</g>
</g>
<g>
	<g>
		<g>
			<path class="st47" d="M58.4,90.3c-0.2-0.4-0.4-1-0.3-1.5c0.1-0.4,0.4-0.7,0.8-1c0.8-0.5,1.9-0.5,2.8-0.1c1.1,0.5,1.6,1.6,1.5,2.8
				c-0.1,1.1-1,2-2.1,2C59.7,92.5,58.7,91.5,58.4,90.3c0-0.2-0.2-0.2-0.2-0.1c0.2,1.3,1.2,2.3,2.5,2.4c1.1,0.1,2.3-0.5,2.6-1.6
				c0.3-1.2-0.1-2.6-1.2-3.3c-0.9-0.6-2.1-0.6-3.1-0.2c-0.5,0.2-0.9,0.6-1.1,1.1c-0.2,0.6-0.1,1.2,0.2,1.8
				C58.3,90.5,58.5,90.4,58.4,90.3L58.4,90.3z"/>
		</g>
	</g>
	<g>
		<g>
			<path class="st47" d="M60.2,91.3c-0.6-0.5-0.9-1.4-0.4-2.1c0.2-0.3,0.5-0.5,0.9-0.5s0.9,0.1,1.3,0.3c0.5,0.3,0.8,0.9,0.7,1.5
				s-0.5,1.1-1,1.4c-0.3,0.1-0.6,0.2-0.9,0.1c-0.4-0.1-0.7-0.4-0.9-0.7c-0.1-0.1-0.2,0-0.2,0.1c0.4,0.6,1.1,1.1,1.8,0.8
				c0.6-0.2,1-0.8,1.2-1.4s0-1.3-0.5-1.7c-0.4-0.3-0.8-0.4-1.3-0.4c-0.4,0-0.9,0.1-1.2,0.4C59,89.8,59.3,91,60,91.6
				C60.2,91.5,60.3,91.4,60.2,91.3L60.2,91.3z"/>
		</g>
	</g>
	<g>
		<g>
			<path class="st47" d="M61.7,91.7c-0.4-0.1-0.8-0.5-1.1-0.8s-0.6-0.7-0.7-1.2c0-0.3,0-0.7,0.4-0.7c0.3,0,0.6,0.2,0.8,0.4
				c0.3,0.3,0.6,0.6,0.8,0.9c0.2,0.2,0.4,0.5,0.5,0.8v0.1l0,0c0,0,0,0-0.1,0.1s-0.3,0.1-0.4,0.1c-0.3,0-0.7,0-0.8-0.4
				c0-0.1-0.1-0.2,0-0.3c0,0,0-0.1,0.1-0.1s0.2,0.1,0.3,0.2s0.2,0.3,0.3,0.4c0,0.1,0.1,0.1,0.1,0.2v0.1l0,0c0,0.1,0.2,0.1,0.2,0
				s-0.1-0.2-0.2-0.3c-0.1-0.2-0.2-0.3-0.4-0.5s-0.6-0.5-0.7-0.1c-0.1,0.4,0.1,0.9,0.5,1c0.3,0.1,0.8,0.1,1-0.2
				c0.2-0.2,0-0.5-0.1-0.7c-0.2-0.4-0.5-0.8-0.9-1.1c-0.3-0.3-0.6-0.6-1-0.7s-0.7,0.1-0.8,0.5c-0.1,0.5,0.1,1,0.4,1.3
				c0.3,0.4,0.7,0.9,1.2,1.1c0.1,0.1,0.2,0.1,0.3,0.1C61.7,92,61.8,91.8,61.7,91.7L61.7,91.7z"/>
		</g>
	</g>
	<g>
		<g>
			<path class="st47" d="M59,91.6c-0.9-0.5-2-0.1-2.8,0.3c-0.1,0.1,0,0.2,0.1,0.2c0.8-0.4,1.8-0.8,2.6-0.3
				C59,91.8,59.1,91.7,59,91.6L59,91.6z"/>
		</g>
	</g>
	<g>
		<g>
			<path class="st47" d="M58.4,90.4c-0.4-0.3-0.9-0.6-1.4-0.8c-0.1,0-0.2,0.1,0,0.2c0.5,0.2,0.9,0.5,1.3,0.7
				C58.4,90.6,58.5,90.5,58.4,90.4L58.4,90.4z"/>
		</g>
	</g>
	<g>
		<g>
			<path class="st47" d="M63.4,90.4c0.5-0.4,1.1-0.5,1.6-0.6c0.7-0.1,1.4,0,2,0.2c0.1,0,0.2-0.1,0-0.2c-0.7-0.2-1.4-0.3-2.1-0.2
				c-0.6,0.1-1.2,0.3-1.7,0.6C63.1,90.3,63.3,90.5,63.4,90.4L63.4,90.4z"/>
		</g>
	</g>
	<g>
		<g>
			<path class="st47" d="M63.4,88.6c0-0.1,0.1-0.1,0.1-0.2c0,0,0-0.1,0.1-0.1l0,0l0,0l0,0c0.1-0.1,0.1-0.2,0.2-0.2V88h-0.1
				c-0.1,0.1-0.2,0.2-0.2,0.2c-0.1,0.1-0.2,0.2-0.2,0.4v0.1C63.3,88.6,63.4,88.6,63.4,88.6L63.4,88.6z"/>
		</g>
	</g>
	<g>
		<g>
			<path class="st47" d="M61.8,92.8c0.1,0,0.1,0,0.2,0c0.1,0,0.1,0.1,0.2,0.1c0.1,0.1,0.2,0.2,0.3,0.4c0,0,0.1,0.1,0.1,0
				c0,0,0.1-0.1,0-0.1c-0.1-0.2-0.2-0.3-0.3-0.4s-0.3-0.2-0.5-0.2C61.7,92.6,61.7,92.8,61.8,92.8L61.8,92.8z"/>
		</g>
	</g>
	<g>
		<g>
			<path class="st47" d="M60.3,87.4c-0.2,0-0.5,0-0.6-0.1c-0.1,0-0.1-0.1-0.2-0.2c-0.1-0.1-0.1-0.2-0.1-0.3c0-0.1-0.2-0.1-0.2,0
				c0.1,0.3,0.2,0.5,0.4,0.7c0.2,0.1,0.5,0.2,0.7,0.2C60.4,87.6,60.4,87.4,60.3,87.4L60.3,87.4z"/>
		</g>
	</g>
</g>
<g>
	<g>
		<path class="st47" d="M58.4,92.1c-0.3,0.3-0.5,0.5-0.8,0.7c-0.1,0.1-0.2,0.1-0.2,0.2c-0.1,0.1,0,0.2,0.1,0.2
			c0.2-0.1,0.3-0.2,0.5-0.4c0.2-0.1,0.3-0.3,0.5-0.4l0.1-0.1C58.7,92.1,58.5,92,58.4,92.1L58.4,92.1z"/>
	</g>
</g>
<g>
	<g>
		<path class="st47" d="M63.6,90.9c0.2-0.1,0.4-0.1,0.6-0.1s0.4,0.1,0.6,0.2c0.1,0.1,0.2-0.1,0.1-0.2c-0.2-0.1-0.5-0.2-0.7-0.3
			c-0.2,0-0.5,0-0.7,0.1C63.5,90.7,63.5,90.9,63.6,90.9L63.6,90.9z"/>
	</g>
</g>
<g>
	<g>
		<path class="st47" d="M63.2,91.4c0.1,0.1,0.2,0.1,0.3,0.2s0.2,0.1,0.4,0.2c0,0,0,0,0.1,0l0,0l0,0l0,0v-0.1l0,0c0,0,0,0,0.1,0l0,0
			l0,0H64c0,0-0.1,0-0.1,0.1s0,0.1,0.1,0.1s0.2,0.1,0.2,0v-0.1h-0.1c0,0-0.1,0-0.1-0.1h-0.1l0,0l0,0l0,0c0,0,0,0-0.1,0
			s-0.1-0.1-0.2-0.1h-0.1l0,0l0,0l0,0l0,0h-0.1C63.2,91.3,63.2,91.4,63.2,91.4L63.2,91.4z"/>
	</g>
</g>
<g>
	<g>
		<path class="st47" d="M60.4,87.3c0-0.1,0-0.1,0-0.2V87c0,0,0,0,0-0.1s0.1-0.2,0.1-0.4v-0.1h-0.1c-0.1,0.1-0.1,0.3-0.1,0.4
			S60.3,87.1,60.4,87.3C60.2,87.4,60.4,87.4,60.4,87.3L60.4,87.3z"/>
	</g>
</g>
<g>
	<g>
		<path class="st47" d="M61.2,87.5L61.2,87.5L61.2,87.5c0-0.1,0-0.1,0-0.2l0,0l0,0l0,0l0,0l0,0l0,0l0,0l0,0l0,0l0,0
			c0,0,0.1,0,0.1-0.1s0-0.1-0.1-0.1h-0.1L61,87.2v0.1v0.1C61,87.5,61,87.6,61.2,87.5C61.1,87.6,61.2,87.5,61.2,87.5L61.2,87.5z"/>
	</g>
</g>
<g>
	<g>
		<path class="st47" d="M60.3,88c-0.6,0.1-1,0.4-1.3,0.9c-0.2,0.6-0.1,1.2,0.2,1.8c0.1,0.1,0.2,0,0.2-0.1c-0.2-0.5-0.3-1.1-0.1-1.6
			s0.6-0.8,1.1-0.8C60.5,88.1,60.4,88,60.3,88L60.3,88z"/>
	</g>
</g>
<g>
	<g>
		<path d="M41.1,47.4c0.7-0.8,0.9-1.8,0.7-2.9c-0.2-1.1-0.8-2.1-1.3-3.1c-0.1-0.1-0.2,0-0.2,0.1c0.5,0.9,1,1.8,1.2,2.8
			c0.3,1.1,0.1,2.1-0.6,3C40.9,47.3,41,47.5,41.1,47.4L41.1,47.4z"/>
	</g>
</g>
<g>
	<g>
		<path d="M43.2,44.7c1.1-1.7,0.9-3.8,0-5.5c-0.1-0.1-0.2,0-0.2,0.1c0.9,1.7,1,3.7,0,5.3C43,44.7,43.1,44.8,43.2,44.7L43.2,44.7z"/>
	</g>
</g>
<g>
	<g>
		<path d="M44.8,43.8c1.3-1,1.7-2.7,1.5-4.2c0-0.1-0.2-0.1-0.2,0c0.2,1.5-0.2,3.1-1.5,4C44.6,43.7,44.7,43.8,44.8,43.8L44.8,43.8z"
			/>
	</g>
</g>
<g>
	<g>
		<path d="M28.6,59.1c-0.2,0.6-1,0.9-1.6,1s-1.4,0.1-1.9-0.4c-0.1-0.1-0.2,0-0.1,0.1c0.5,0.6,1.4,0.6,2,0.5s1.5-0.4,1.7-1.1
			C28.8,59,28.7,59,28.6,59.1L28.6,59.1z"/>
	</g>
</g>
<g>
	<g>
		<path d="M27.8,61.7c-0.4,0.5-0.9,1-1.5,1.1c-0.7,0.2-1.3,0-2-0.3c-0.1-0.1-0.2,0.1-0.1,0.2c0.7,0.3,1.4,0.5,2.1,0.3
			s1.2-0.6,1.6-1.2C28.1,61.7,27.9,61.6,27.8,61.7L27.8,61.7z"/>
	</g>
</g>
<g>
	<g>
		<path d="M27.6,63.7c0,0.7-0.4,1.3-0.9,1.8s-1.1,0.8-1.8,0.6c-0.1,0-0.2,0.1,0,0.2c1.2,0.3,2.3-0.7,2.7-1.7
			c0.1-0.3,0.2-0.6,0.2-0.9C27.8,63.6,27.6,63.6,27.6,63.7L27.6,63.7z"/>
	</g>
</g>
<g>
	<g>
		<path d="M39.3,52.3c0.3-2,1.1-4,2.3-5.7c0.6-0.9,1.4-1.7,2.3-2.3c0.5-0.3,1-0.6,1.6-0.7c0.6-0.2,1.2-0.5,1.9-0.5
			c0.1,0,0.1-0.2,0-0.2c-0.6,0-1.2,0.3-1.8,0.4C45,43.5,44.5,43.7,44,44c-0.9,0.6-1.7,1.3-2.3,2.2C40.4,48,39.5,50.1,39.3,52.3
			C39.1,52.3,39.2,52.4,39.3,52.3L39.3,52.3z"/>
	</g>
</g>
<g>
	<g>
		<path d="M28.6,67.1c-0.4-1.3-0.8-2.5-0.8-3.8s0.4-2.6,0.8-3.8c0.9-2.2,2.8-4.3,5.2-4.7c0.1,0,0.1-0.2,0-0.2
			c-2.4,0.4-4.3,2.6-5.3,4.7c-0.5,1.1-0.8,2.4-0.9,3.6c-0.1,1.5,0.3,2.9,0.8,4.2C28.5,67.3,28.6,67.2,28.6,67.1L28.6,67.1z"/>
	</g>
</g>
<g>
	<g>
		<path d="M27.8,65.2c0.4,1.3,0.8,2.9,0,4.1c-0.1,0.1,0.1,0.2,0.2,0.1c0.8-1.3,0.5-2.9,0-4.3C28,65,27.8,65,27.8,65.2L27.8,65.2z"/>
	</g>
</g>
<g>
	<g>
		<path d="M47.3,42.9c1.4,0.2,2.4-1.2,2.9-2.3c0.1-0.1-0.1-0.2-0.2-0.1c-0.5,1-1.5,2.3-2.8,2.2C47.1,42.7,47.1,42.9,47.3,42.9
			L47.3,42.9z"/>
	</g>
</g>
</svg>
