<?xml version="1.0" encoding="utf-8"?>
<!-- Generator: Adobe Illustrator 24.0.1, SVG Export Plug-In . SVG Version: 6.00 Build 0)  -->
<svg version="1.1" id="Layer_1" xmlns="http://www.w3.org/2000/svg" xmlns:xlink="http://www.w3.org/1999/xlink" x="0px" y="0px"
	 viewBox="0 0 141.7 141.7" style="enable-background:new 0 0 141.7 141.7;" xml:space="preserve">
<style type="text/css">
	.st0{fill:#F3F0A8;}
	.st1{fill:#938455;}
	.st2{fill:#75CEEB;}
	.st3{fill:#233C79;}
	.st4{opacity:0.48;fill:#1A305B;enable-background:new    ;}
	.st5{fill:#C9B09D;}
	.st6{fill:#FFFFFF;}
	.st7{fill:url(#SVGID_1_);}
	.st8{fill:#CDA366;}
	.st9{fill:#DD9F36;}
	.st10{fill:url(#SVGID_2_);}
	.st11{fill:#13529C;}
	.st12{fill:#3A80BC;}
	.st13{fill-rule:evenodd;clip-rule:evenodd;fill:#CDA366;}
	.st14{fill-rule:evenodd;clip-rule:evenodd;fill:#D2B589;}
	.st15{fill-rule:evenodd;clip-rule:evenodd;fill:#ECECEC;}
	.st16{fill:#D9D9D8;}
	.st17{fill:#B2B2B2;}
	.st18{fill-rule:evenodd;clip-rule:evenodd;fill:#E3E3E2;}
	.st19{fill:#ECECEC;}
	.st20{fill:#CBCED6;}
	.st21{fill:#EEEDE4;}
	.st22{fill:url(#SVGID_3_);}
	.st23{fill:#DB9832;}
	.st24{fill:#C7822A;}
	.st25{fill-rule:evenodd;clip-rule:evenodd;fill:#F8D359;}
	.st26{fill-rule:evenodd;clip-rule:evenodd;fill:#F5BF17;}
	.st27{fill-rule:evenodd;clip-rule:evenodd;fill:#E8AD22;}
	.st28{fill-rule:evenodd;clip-rule:evenodd;fill:#DB9832;}
	.st29{fill:#090909;}
	.st30{fill:none;stroke:#090909;stroke-width:0.5299;stroke-miterlimit:9.9996;}
</style>
<g id="Layer_7">
</g>
<g id="Layer_7_2_">
</g>
<g id="Layer_7_3_">
</g>
<g id="Layer_8">
</g>
<g id="Layer_7_1_">
</g>
<g id="Layer_10">
</g>
<g id="Layer_4">
	<path class="st0" d="M15.1,114.1c3.6-3.5,8.3-9.2,10.7-17.1c2.2-7,1-10.8,0.7-23.1c-0.2-15.5-0.3-23.3,2.9-32.4
		c1.6-4,5.3-14.1,15.4-21.7c8.8-6.7,17.8-7.9,24.7-8.8c15.8-2.1,27.8,2.1,30.3,3.1c4.7,1.8,13.5,5.2,21,13.8c0.8,1,4.6,5.3,7.7,12.1
		c1.7,3.7,2.9,7.5,4.8,18c2,11.6,3.1,17.3,3.4,24.4c0.2,6.5,0.1,15.5-1.6,26.2"/>
	<path class="st1" d="M26.4,112.4c15.7-0.4,31.4-1,46.9-1.5c20.6-0.7,41.1-1.6,61.7-2.4c0,0,8.7,5-49.8,12.5c0,0-5.7,18-50.5,6
		c0,0-14.7-5-23.5-3.5c-1.8,0.7-4,0-4.9-1.8c-0.8-1.7-0.3-3.8,1.3-5c1.2-0.6,2.8-1.5,5-2.1s3.7-0.7,6.3-1.1
		C20.4,113.4,23.2,113.1,26.4,112.4z"/>
</g>
<path class="st2" d="M41.6,71.3c-0.4-0.4-0.2-1.2-0.1-2c0.2-2-0.3-2-0.4-4.9c-0.2-3.9,0.6-5.8-0.3-6.4c-0.4-0.2-0.6,0-1.5-0.1
	c-1.6-0.1-2.6-0.8-3.5-1.4c-2.9-1.9-3.9-5.6-4-6.1c0-0.8,0.2-3.8,2.5-6.5c2.1-2.4,4.9-3.1,5.9-3.3c3.2-0.5,5.6,0.5,6.5,1l0.1,0.4
	l0.6-1c0,0,3.5-7.8,21.4-11.8c0,0,18.9-5.5,25.1-2.6c0,0,8.4,2,9.3,3.5c0,0,9.1-6.7,14.1-1.4c0,0,5.1,4.3,2,11.3
	c0,0-1.8,2.9-4.1,3.5c1.3,2.7,2.5,5.6,3.7,8.7c1.1,2.7,2,5.4,2.8,7.9c-0.8,1.3-1.9,3-3.4,4.9c-1,1.3-4,4.7-8.9,7.8
	c-2.6,1.7-4.8,2.6-6.7,3.4c-3.2,1.4-5.7,2.1-9.2,3.2c-2.1,0.6-5,1.4-8.4,2.1c-0.4-0.1-0.8-0.1-1.1-0.2c-1.2,0-2.4-0.1-3.6-0.1
	L78.6,80L74,77.9L70.6,76l-3.3,0.6L64.7,77L63,76.9l-0.8-2.2l-0.8-1.2l-1-0.5l-2-0.1L56,74l-1,0.9l-1.3-0.7L52.1,74l-1.4,0.3
	l-0.2-1.2l-1.1-0.3l-0.7-0.4c-1.6-1.1-3-1.4-3.8-1.4C43.3,71.2,42.3,71.8,41.6,71.3z"/>
<path class="st3" d="M73.2,91.8c0,0,6.5-0.2,11.6-2.2l1.3,3.5l-0.3,4.7l-1.7,2.6l-2.6,1.8l-3,1.4l-2,0.1c-0.6,0-1.3,0-2,0
	c-0.2-0.3-0.4-0.7-0.6-1.1l-1.2-8.9L73.2,91.8z"/>
<path class="st3" d="M91.2,88.1l2.9-0.7l5.9-1.6l6.5-2.2l6.8-3l5.5-3c1.8-1.1,3.6-2.2,5.3-3.3c0.2,1.4,0.3,2.9,0.5,4.3l0.1,10.2
	l-1.2,12.6l-1.2,7.3c0,0-10.4,0.5-11.1,0.5s-35.1,1.2-35.1,1.2l-1.4-3.6c0,0,2.3,0.5,3,1c0.6,0.4,5.3,0,5.3,0l4.6-1.5
	c1.2-1.4,2.3-2.6,3.5-4c0.6-1.5,1.3-3,1.9-4.6l-0.3-4.5L91.2,88.1z"/>
<path class="st4" d="M73.2,91.8c17-5.8,34-11.7,50.9-17.5c0,0.5,0,1,0.1,1.6c0,0.4,0.1,0.9,0.1,1.3c-0.8,3.5-2.4,7.7-6.1,10.7
	c-5.6,4.6-12.7,3.7-13.2,6.5c-0.4,2.6,5.5,4.2,5.7,8.8c0.1,2.6-1.8,4.7-2,4.9c-3.1,3.2-6.9,0.7-18.5,2c-3.1,0.3-6.3,0-9.3,0.6
	c-1.7,0.3-3.5,0.7-4.7-0.2c-1-0.7-1.1-1.8-1.4-3.6s-0.7-4.2-1.5-7.3C73.3,97.1,73.3,94.5,73.2,91.8z"/>
<path class="st5" d="M36.3,93.1l-1.1,1.1l-1,1.2L34,96.2c0,0,0.1,1.9,1.4,1.9h0.2l0.1,0.8c0,0,0.8,1.4,2.8,0.6l0.7-1.2l0.4-2.2
	l-1-1.6l-1.2-1.1L36.3,93.1z"/>
<polygon class="st5" points="101.3,101.7 99,101.9 97.4,102.2 95.9,102.9 95.2,103.8 95.2,104.7 95.5,106.2 96.3,107.4 98,108.5 
	100.3,108.9 102.8,108.5 103.3,107 103.5,105.7 103.3,104.4 102.5,102.8 "/>
<path class="st5" d="M74.2,58.8L73,59.5l-1.3,1.4l-1,1.5l-0.6,1.2L69.9,65l0.5,1.2l1.6,1l2.4,0.3l2.4-0.7l2.3-1.2l1.6-0.6l1.2-0.1
	L84,65l2.2,0.1l1.8-0.2l1.2-0.7l0.5-1.5L89.6,61L89,59.3l-1.4-1l-2.1-1.1l-2-0.2c0,0-3,2.1-3.2,2.1c-0.1,0-5,0-5,0L74.2,58.8z"/>
<circle class="st6" cx="62.1" cy="49.5" r="12.2"/>
<circle class="st6" cx="92.2" cy="43.3" r="12.2"/>
<path class="st6" d="M75.9,66.9c0,0-0.1,1.3,0,1.3s0,1.6,0,1.6l0.2,1.2l0.5,1.6l1.3,1.2L79,74l0.7-0.1l0.8-0.5l0.6-0.8l0.4-1.4
	L82,72l1,1l1.3,0.1l1.4-0.6l0.7-1l0.2-1.4l-0.2-2l-0.6-1.9l-0.6-1.3l-1.6-0.2l-1.6,0l-1.3,0.1l-1.3,0.5L77.7,66L75.9,66.9z"/>
<linearGradient id="SVGID_1_" gradientUnits="userSpaceOnUse" x1="37.4" y1="39.3823" x2="78.3545" y2="39.3823" gradientTransform="matrix(1 0 0 -1 0 141.7323)">
	<stop  offset="0" style="stop-color:#DC9731"/>
	<stop  offset="0.4706" style="stop-color:#FFD53A"/>
	<stop  offset="1" style="stop-color:#E0A633"/>
</linearGradient>
<path class="st7" d="M77.3,113.6l-1.7-4l-2.2-10L73,93l-1.4,2.2l-1.4-12l-24.9,6l-0.2-0.4L45,89.4l-1.6,0.4l0.6,1.6l-1.6,3.3l-0.1,2
	l-0.5,2.2l0.3,3.8v1.2l-0.7,3.2l-1.2,0.6l-2.8,6.7l3,4.2c1.7,0.7,3.4,1.6,5.1,2.3c2,0.2,4.1,0.4,6.1,0.6c1.8-0.2,3.5-0.3,5.3-0.5
	c2.5-0.2,5.1-0.4,7.6-0.7c2.6-0.8,5.3-1.7,7.9-2.5l5.9-2.9L77.3,113.6z"/>
<polygon class="st8" points="30.7,115.6 32.5,115.2 34.8,115.4 33.9,116.2 32.8,116.9 31.8,116.8 30.7,116.2 "/>
<path class="st9" d="M11.1,119.7c0.3-0.5,0.7-1.1,1.1-1.6c0.8-0.3,1.7-0.5,2.5-0.8c0.6,0,1.3,0.1,1.9,0.1l2.8-0.2l3.2-1.4h3.2H27
	l-0.3,1.6l-1,0.5l2.3,0.7l4,0.2l1.9,1.2l0.7,1l0.1,1.2l-1.6,0.5l-1.4,0.5l-3-0.5l-3.9-1.2l-3.1-0.6h-3.6l-3.4-0.1
	c-1-0.1-1.9-0.2-2.9-0.3C11.7,120.2,11.4,120,11.1,119.7z"/>
<linearGradient id="SVGID_2_" gradientUnits="userSpaceOnUse" x1="11.7404" y1="21.6823" x2="30.6891" y2="21.6823" gradientTransform="matrix(1 0 0 -1 0 141.7323)">
	<stop  offset="0" style="stop-color:#DC9731"/>
	<stop  offset="0.4706" style="stop-color:#FFD53A"/>
	<stop  offset="1" style="stop-color:#E0A633"/>
</linearGradient>
<path class="st10" d="M11.7,119.7c0.1,0.2,0.4,0.4,0.7,0.6c1,0.5,1.9,0.3,3.3,0.2c0.3,0,1.2,0.1,2.8,0.3c2.1,0.3,6.3,1,11.6,2.1
	c0.3-0.1,0.6-0.5,0.6-0.7c0-0.4-0.5-1-1.2-0.8c-2.6-0.5-5.2-1-7.8-1.4c0.1-0.3,0.4-0.6,0.7-1c0.6-0.5,1.4-0.4,1.6-1
	c0.2-0.3,0.1-0.6,0.1-0.8c-1.1,0.1-2,0.3-2.5,0.5c-0.7,0.2-1.2,0.4-2,0.5c-0.1,0-1,0.2-1.9,0.2c-2.6,0.1-3.4-0.7-4.7-0.2
	C12.8,118.4,12.2,118.7,11.7,119.7z"/>
<path class="st11" d="M73.2,91.8c0,0,8.4-0.5,11.6-2.2l-1.4-2L81,86.8l-2.4-0.3l-2.8,1c-1.1,0.5-2,1.2-3.1,1.7
	C73,90,73.1,91,73.2,91.8z"/>
<path class="st11" d="M91.2,88.1c0.4-0.1,7.5-1.7,7.5-1.7l7.7-2.6l5.5-2.4l5.8-3.1l4-2.4c0.8-0.5,1.6-1.1,2.4-1.6
	c0.3-0.2,0.8-0.6,1.2-1.3c0.2-0.3,0.3-0.6,0.4-0.8c0-0.5,0-1,0.1-1.5c-0.3-0.9-0.5-1.8-0.8-2.7c-0.4-1.3-0.9-2.6-1.3-4
	c-0.5-1.5-1.1-3-1.6-4.4l-1.7,2.5l-2.6,4l-3.5,3.5l-5.1,3.6l-4.5,2.3L99.2,78l-6.8,2L85,82l3,1.6l2.6,3.3L91.2,88.1z"/>
<polygon class="st11" points="101.3,101.7 103,103.8 103.5,105.7 102.8,108.5 104.8,107.6 106.4,106.5 106.9,104.9 106.4,102.9 
	105.4,102.2 103.9,101.8 "/>
<path class="st12" d="M87.1,82.5c1.4-0.1,2.6-0.3,4-0.4l6-1.8l6.9-2.8c0.7-0.3,1.8-0.7,3-1.4c0.6-0.3,1.3-0.7,2.8-1.6
	c1.1-0.7,2.5-1.6,4.2-2.7c1.2-1.2,2.4-2.2,3.7-3.4c0.7-0.8,1.6-1.8,2.3-2.6l3.1-4.1l-0.8-2.2l-1.7,2.5c-1.6,2-3.1,3.9-4.7,5.9
	c-1.8,1.5-3.6,3-5.4,4.5l-5.6,3l-5.7,2.5l-4.7,1.5c-1.9,0.4-3.8,0.8-5.7,1.2c-1.2,0.3-2.4,0.6-3.6,0.9
	C85.8,81.7,86.5,82.2,87.1,82.5z"/>
<path class="st12" d="M101.3,101.7l1.4,1.7l0.8,2.2l-0.3,1.9l-0.4,0.8c0.5-0.1,1-0.3,1.5-0.4c0.1-0.6,0.1-1.2,0.2-1.8l-0.1-2.3
	l-1.8-2L101.3,101.7z"/>
<path class="st13" d="M46.2,81.1c0,0-1.1,29.9-0.6,34.7c0.4,4.8,0.7,4.9,0.7,4.9c-0.5-0.1-7.4-1.5-7.5-3.8c0-0.4,0.2-1.1,0.7-2.3
	c0.5-1.4,1.1-2.2,1.3-2.4c1.2-2.1,0.6-4.7,0.6-7.3c0-1.9,0.2-4.6,1.4-7.8c-0.3-3.5-0.6-7.1-1-10.7l0.7-5.6L46.2,81.1z"/>
<path class="st14" d="M44.9,120.4c-1.1-0.1-2.4-0.4-2.6-1.2c-0.1-0.5,0.3-1,0.6-1.6c0.7-1.4,0.6-2.4,0.6-3.8c0.1-3.2,1-5.1,1.4-13.2
	c0.4-7.6,0.2-14.6-0.1-19.5l1.8,0.3c0,6.6-0.2,11.9-0.5,15.6c0,0.3-0.3,4.2-0.3,9.3c0,3.3,0.1,5.8,0.8,9c0.6,2.4,1.6,5.8,3.7,6.4
	c0.8,0.2,1.6-0.1,2.2-0.4l0,0C50,120.9,47.5,120.6,44.9,120.4z"/>
<path class="st15" d="M48.6,84.9l12.5-0.2l4,0.3l-0.8,6.1c0,0-1.2,2.1-2.5,1.5C60.4,92,61,94,59.2,93.4c-0.5-0.1-0.6-0.1-1.1-0.1
	c-0.7-0.1-0.8,0-1.4-0.1c-0.4,0-0.6-0.1-1.2-0.2c-1.5-0.3-1.6-0.4-2-0.3c-0.5,0.2-0.7,0.5-1,0.4c-0.2-0.1-0.3-0.5-0.5-0.5
	c-0.3-0.1-0.5,0.5-1.1,0.5c-0.3,0-0.3-0.2-0.7-0.2c-0.3,0-0.3,0.1-0.7,0.2c-0.1,0-0.2,0-0.8-0.1c-0.3-0.1-0.5,0-1-0.2
	c-1.6-0.7-1.3,0.4-2.4,0c-0.3-0.1-0.5-0.1-0.5-0.1c-0.3,0-0.3,0.1-0.8,0.1C43.4,93,43.2,93,43,93c-0.5,0-0.5-0.2-1-0.2
	c-0.6,0-1,0.4-1.6,0.1c-0.7-0.5-0.7-4.3-0.7-4.3l1.7-1.2l1.8-1.2l1.2-0.7c0.6,0,1.3-0.1,1.9-0.1C47.1,85.1,47.9,85,48.6,84.9z"/>
<path class="st16" d="M43.7,92.6c0.3,0,0.5-0.1,0.6-0.2l0,0c0.3-0.2,0.3-0.4,0.2-0.7c1,0.8-1,2.4-3.1,1.3c-2-1.1-1-2.4-1-2.4
	C40.6,92,42.5,92.8,43.7,92.6L43.7,92.6z"/>
<path class="st17" d="M41.9,92.5c0,0,0.3,0.6,1.2,0.1C42.9,93.4,41.8,93,41.9,92.5L41.9,92.5z"/>
<path class="st17" d="M43.3,92.1c0,0.1,0.2,0.4,1,0.3C43.9,93,43,92.6,43.3,92.1L43.3,92.1z"/>
<path class="st17" d="M46.1,92.8c0.1-0.1,0.2-0.1,0.3-0.2l0,0c0.1-0.1,0.1-0.2,0-0.3c0.6,0.3-0.1,1.4-1.4,1.1
	c-1.2-0.3-0.7-1.1-0.7-1.1C44.4,93,45.4,93,46.1,92.8L46.1,92.8z"/>
<path class="st17" d="M53.1,93.3c-0.1,0.1-0.3,0.1-0.4,0c-0.5-0.1-0.4-0.6-0.2-0.7c-0.3,0.5,0.8,0.6,0.6,0.1
	C53.4,92.6,53.5,93.2,53.1,93.3L53.1,93.3z"/>
<path class="st17" d="M48.1,92.3c0,0,0.2,0.5-0.3,0.7c-0.6,0.2-1.1-0.3-0.8-0.8C46.9,92.9,48,92.8,48.1,92.3L48.1,92.3z"/>
<path class="st17" d="M50.1,93c0.2,0.7,1.3-0.1,0.6-0.5C51.9,92.7,50.2,94,50.1,93L50.1,93z"/>
<path class="st17" d="M48.1,92.6c0,0,0.4,0.3,0.8,0.1C48.9,93.3,47.8,93.1,48.1,92.6L48.1,92.6z"/>
<path class="st17" d="M53.7,92.9C53.7,92.8,53.7,92.8,53.7,92.9c0.1,0.2,0.6,0.2,0.7-0.1L54.3,93c0.2,0.1,0.5-0.2,0.5-0.4
	c0.4,1.1,1.4,0.5,1.5,0.3c0,0.6,2.1,0.4,2.5,0c0.2,0.8,2.1,1,2.5,0.3l0.1-0.1c1,0.7,2.6,0.3,3-0.2c-0.5,1.1-2.3,1-2.9,0.6
	c-0.5,0.5-2.4,0.3-2.9-0.2c-0.5,0.2-1.9,0.3-2.4-0.1c-0.3,0.4-1,0.3-1.4,0c-0.2,0.2-0.5,0.2-0.7,0C54,93.2,53.8,93.1,53.7,92.9
	L53.7,92.9z"/>
<path class="st17" d="M49.6,93.6c0.8-0.1,0.5-0.8,0.3-1c0.4,0.7-1.2,1-1,0.1C48.6,93.1,48.8,93.7,49.6,93.6L49.6,93.6z"/>
<path class="st6" d="M44.4,91.4c0.5-0.5-0.7-1.1-0.7-0.2c-0.3-0.3,0-0.5,0.2-0.6l0,0C44.7,90.3,44.6,91.3,44.4,91.4L44.4,91.4z"/>
<path class="st6" d="M47.3,90.7c0.4-0.4-0.5-0.7-0.5-0.2c-0.2-0.2,0-0.4,0.1-0.4l0,0C47.6,89.8,47.6,90.5,47.3,90.7L47.3,90.7z"/>
<path class="st6" d="M48.7,91.6c0.4-0.4-0.5-0.7-0.5-0.2c-0.2-0.2,0-0.4,0.1-0.4l0,0C48.9,90.8,48.9,91.5,48.7,91.6L48.7,91.6z"/>
<path class="st6" d="M48.9,89.4c0.4-0.4-0.5-0.8-0.5-0.2c-0.2-0.3,0-0.4,0.1-0.5l0,0C49.1,88.5,49.1,89.3,48.9,89.4L48.9,89.4z"/>
<path class="st6" d="M50.6,89.6c0.4-0.4-0.5-0.7-0.5-0.2c-0.2-0.2,0-0.4,0.1-0.4l0,0C50.8,88.7,50.8,89.5,50.6,89.6L50.6,89.6z"/>
<path class="st6" d="M50.8,89.8c0.3-0.3-0.4-0.6-0.4-0.1c-0.1-0.2,0-0.3,0.1-0.3l0,0C51,89.2,51,89.8,50.8,89.8L50.8,89.8z"/>
<path class="st6" d="M53.8,91.3c0.4-0.4-0.5-0.8-0.5-0.2c-0.2-0.3,0-0.4,0.1-0.5l0,0C54,90.4,54,91.2,53.8,91.3L53.8,91.3z"/>
<path class="st6" d="M55.6,91.6c0.3-0.3-0.4-0.6-0.4-0.1c-0.1-0.2,0-0.3,0.1-0.3l0,0C55.8,91,55.8,91.5,55.6,91.6L55.6,91.6z"/>
<path class="st6" d="M52.4,90.3c0.4-0.4-0.5-0.8-0.5-0.2c-0.2-0.3,0-0.4,0.1-0.5l0,0C52.6,89.5,52.6,90.2,52.4,90.3L52.4,90.3z"/>
<path class="st6" d="M56.1,88.3c0.3-0.3-0.4-0.5-0.4-0.1c-0.1-0.2,0-0.3,0.1-0.3l0,0C56.4,87.7,56.4,88.3,56.1,88.3L56.1,88.3z"/>
<path class="st6" d="M57.3,89.8c0.4-0.4-0.5-0.8-0.5-0.2c-0.2-0.3,0-0.4,0.1-0.5l0,0C57.6,88.8,57.6,89.6,57.3,89.8L57.3,89.8z"/>
<path class="st6" d="M58.1,89.6c0.3-0.3-0.4-0.6-0.4-0.1c-0.1-0.2,0-0.3,0.1-0.3l0,0C58.3,89,58.3,89.5,58.1,89.6L58.1,89.6z"/>
<path class="st6" d="M45.2,90.7c0.4-0.4-0.5-0.8-0.5-0.2c-0.2-0.3,0-0.4,0.1-0.5l0,0C45.5,89.8,45.4,90.5,45.2,90.7L45.2,90.7z"/>
<path class="st6" d="M50.8,91.1c0.4-0.4-0.5-0.8-0.5-0.2c-0.2-0.3,0-0.4,0.1-0.5l0,0C51.1,90.2,51.1,91,50.8,91.1L50.8,91.1z"/>
<path class="st6" d="M51.3,91.6c0.4-0.4-0.5-0.7-0.5-0.2c-0.2-0.2,0-0.4,0.1-0.5l0,0C51.5,90.8,51.5,91.5,51.3,91.6L51.3,91.6z"/>
<path class="st18" d="M51,91.2c0.1,0,0.2,0.1,0.2,0.1c0,0.1-0.1,0.1-0.2,0.1c-0.1,0-0.2-0.1-0.2-0.1S50.8,91.2,51,91.2L51,91.2z"/>
<path class="st6" d="M60.2,89c-0.5-0.5,0.6-1,0.6-0.2c0.2-0.3,0-0.4-0.2-0.5l0,0C60,88,60,88.8,60.2,89L60.2,89z"/>
<path class="st6" d="M60,89.8c-0.4-0.4,0.5-0.8,0.5-0.2c0.2-0.3,0-0.4-0.1-0.5l0,0C59.6,89,59.6,89.7,60,89.8L60,89.8z"/>
<path class="st6" d="M58.6,90.4c-0.3-0.3,0.4-0.6,0.4-0.1c0.1-0.2,0-0.3-0.1-0.3l0,0C58.4,89.8,58.4,90.4,58.6,90.4L58.6,90.4z"/>
<path class="st6" d="M64.2,88.6c0.3-0.5-0.4-1-0.4-0.2c-0.1-0.3,0-0.4,0.1-0.5l0,0C64.4,87.7,64.4,88.5,64.2,88.6L64.2,88.6z"/>
<path class="st6" d="M63.9,89.3c0.3-0.5-0.4-1-0.4-0.2c-0.1-0.3,0-0.4,0.1-0.5l0,0C64,88.2,64,89.2,63.9,89.3L63.9,89.3z"/>
<path class="st6" d="M62.7,89.4c0.4-0.6-0.6-1.2-0.6-0.3c-0.2-0.4,0-0.6,0.1-0.7l0,0C62.9,88,62.9,89.2,62.7,89.4L62.7,89.4z"/>
<path class="st6" d="M62.1,89.9c0.4-0.5-0.5-1-0.5-0.2c-0.2-0.3,0-0.4,0.1-0.5l0,0C62.3,89,62.3,89.8,62.1,89.9L62.1,89.9z"/>
<path class="st6" d="M61.2,90.2c0.3-0.3-0.4-0.5-0.4-0.1c-0.1-0.2,0-0.3,0.1-0.3l0,0C61.4,89.6,61.4,90.1,61.2,90.2L61.2,90.2z"/>
<path class="st6" d="M63.8,90.1C63.6,89.8,64,89.5,64,90c0.1-0.2,0-0.3-0.1-0.3l0,0C63.6,89.5,63.6,90.1,63.8,90.1L63.8,90.1z"/>
<path class="st6" d="M62.2,91.5c-0.4-0.4,0.5-0.8,0.5-0.2c0.2-0.3,0-0.4-0.1-0.5l0,0C61.9,90.7,61.9,91.5,62.2,91.5L62.2,91.5z"/>
<path class="st6" d="M63.1,91.9c-0.3-0.3,0.3-0.5,0.3-0.1c0.1-0.1,0-0.2-0.1-0.3l0,0C62.9,91.3,62.9,91.8,63.1,91.9L63.1,91.9z"/>
<path class="st6" d="M61,91.4c0.5-0.5-0.6-1-0.6-0.2c-0.2-0.3,0-0.4,0.2-0.5l0,0C61.2,90.3,61.2,91.3,61,91.4L61,91.4z"/>
<path class="st6" d="M61.3,92.1c0.4-0.4-0.5-0.8-0.5-0.2c-0.2-0.3,0-0.4,0.1-0.5l0,0C61.5,91.3,61.5,92,61.3,92.1L61.3,92.1z"/>
<path class="st6" d="M62.7,92.8c0.3-0.3-0.4-0.6-0.4-0.1c-0.1-0.2,0-0.3,0.1-0.3l0,0C62.8,92.1,62.8,92.8,62.7,92.8L62.7,92.8z"/>
<path class="st6" d="M58.5,91.8c-0.4-0.5,0.6-1,0.6-0.2c0.2-0.3,0-0.4-0.2-0.5l0,0C58.3,90.9,58.3,91.7,58.5,91.8L58.5,91.8z"/>
<path class="st6" d="M59.1,92.3c-0.5-0.5,0.5-1,0.6-0.2c0.2-0.3,0-0.4-0.2-0.5l0,0C58.9,91.4,58.9,92.2,59.1,92.3L59.1,92.3z"/>
<path class="st6" d="M60,92.7c-0.3-0.3,0.3-0.6,0.4-0.1c0.1-0.2,0-0.3-0.1-0.3l0,0C59.9,92,59.9,92.6,60,92.7L60,92.7z"/>
<path class="st6" d="M54.3,89c-0.5-0.5,0.6-1,0.6-0.2c0.2-0.3,0-0.4-0.2-0.5l0,0C54,87.9,54,88.8,54.3,89L54.3,89z"/>
<path class="st6" d="M56.5,90.8c0.4-0.4-0.5-0.8-0.5-0.2c-0.2-0.3,0-0.4,0.1-0.5l0,0C56.8,89.8,56.8,90.7,56.5,90.8L56.5,90.8z"/>
<path class="st6" d="M57.1,92.6c0.2-0.2-0.3-0.4-0.3-0.1c-0.1-0.1,0-0.2,0.1-0.3l0,0C57.2,92,57.2,92.5,57.1,92.6L57.1,92.6z"/>
<path class="st6" d="M57.4,92.2c0.2-0.2-0.3-0.4-0.3-0.1c-0.1-0.1,0-0.2,0.1-0.3l0,0C57.5,91.7,57.5,92.1,57.4,92.2L57.4,92.2z"/>
<path class="st6" d="M45.8,91.7c-0.4-0.4,0.5-0.8,0.5-0.2c0.2-0.3,0-0.4-0.1-0.5l0,0C45.4,90.9,45.4,91.6,45.8,91.7L45.8,91.7z"/>
<path class="st6" d="M45.4,92.1c-0.3-0.3,0.3-0.5,0.3-0.1c0.1-0.2,0-0.2-0.1-0.3l0,0C45.2,91.6,45.2,92,45.4,92.1L45.4,92.1z"/>
<path class="st6" d="M46.4,91.2c-0.2-0.2,0.3-0.4,0.3-0.1c0.1-0.1,0-0.2-0.1-0.2l0,0C46.2,90.8,46.2,91.2,46.4,91.2L46.4,91.2z"/>
<path class="st17" d="M51.1,92.6c-0.1,0.7,1.2,0.4,0.7-0.1C52.9,93.1,50.6,93.6,51.1,92.6L51.1,92.6z"/>
<path class="st19" d="M38.1,114.8c0,0,0.7,4,7.3,6c0,0,11.1,1.1,15.9,0l11.8-3.4l5.2-2.6l1.4,2l0.3,3.1l-1.4,1.7c0,0-2,3.5-12.3,5.2
	c0,0-14.9,1.2-16.8,0c0,0-5.9,0.3-11.6-3.6c0,0-2.8-4.9-1.3-8.2L38.1,114.8z"/>
<path class="st19" d="M72.9,89.2l3.1-1.7l4.6-0.6c0,0,5.3-1.5,5.8,9.2c0,0-1.9,6-6.9,7.5c-0.7,0.2-1.8,0.3-3.1,0.1
	c-0.7-0.1-1.4-0.3-1.9-0.5c-0.1,0.6-0.2,1.3-0.3,1.8l0.6,2l3.5,1.3c0,0,10.5,1,13.7-7.9c0,0,3.3-9.5-4.2-17.1
	c-0.5-0.4-1.1-0.8-1.8-1.2c-2.2-1.1-4.4-1-5.5-0.8v1l-1.6,2.2L76.1,84L75,85.5v0.7l-1.2,0.7l-2.1-0.4L72.9,89.2z"/>
<path class="st20" d="M74.2,105.1c0.6,0.2,1.4,0.3,2.4,0.4c0.9,0,1.7-0.1,2.2-0.2c1.2-0.5,2.3-0.9,3.5-1.4l2.9-2.2
	c0.6-0.6,1.3-1.6,1.8-2.9c0.1-0.3,0.6-1.5,0.8-3.3c0.1-1,0-1.8,0-2.5c0-2.9-1.7-5.4-4.2-6.5c-1.5-0.6-3.5-0.7-6.2,0.5
	c0,0,5-1.2,6,0.5c0,0,3.7,2.5,3,8.6c-0.3,0.8-0.7,1.7-1.3,2.6c-1.2,1.8-2.6,3-3.6,3.7c-0.3,0.2-0.6,0.4-1.1,0.5
	c-0.4,0.1-0.7,0.1-0.9,0.2c-1.3,0.6-2.4,0.7-3.1,0.6c-1-0.1-2.2-0.6-2.4-0.2c-0.1,0.1-0.1,0.3,0,0.4c0.1,0.1,0.1,0.2,0.2,0.4
	C74.2,104.7,74.2,104.9,74.2,105.1z"/>
<path class="st20" d="M38.1,114.8c0,0,0,3.7,7.3,6l6.1,0.6l9.7-0.6l9-2.6l8.1-3.4l0.6,1c0,0-27.1,17.9-42.8,1.1
	C36.2,116.9,35.8,114.6,38.1,114.8z"/>
<path class="st6" d="M43.4,89.8l0.8,2l-1.4,2.9c-0.2,0.8-0.3,1.6-0.5,2.4c-0.1,1.1-0.3,2.2-0.4,3.3v3.9c-0.1,0.7-0.1,1.3-0.2,2
	c-0.6,0.4-1.1,0.9-1.7,1.3c-0.5-0.2-1-0.3-1.5-0.5c-0.3-0.6-0.6-1.1-0.9-1.7c-0.1-0.4-0.1-0.7-0.2-1.1c0.1-0.8,0.2-1.5,0.3-2.3
	c0.5-1.2,1-2.4,1.5-3.7c0-0.8,0.1-1.6,0.1-2.4l-1-1.6l-2.2-1.5c-0.2-0.5-0.5-1-0.7-1.4c0-1.1-0.1-2.2-0.1-3.3c0.2-1,0.4-2,0.6-3.1
	c0-0.8,0.1-1.6,0.1-2.4c-0.2-0.7-0.4-1.4-0.6-2.1c0-0.7,0-1.4,0-2.1c0.2-0.7,0.4-1.5,0.6-2.2c0.6-1,1.2-2,1.8-3l2.5-1.5l3-0.6
	c0,0,4.1,0,5.1,1.2s1.8,0.6,1.8,0.6l0.6,0.5c0.1,0.1,0.2,0.3,0.2,0.4c0.1,0.2,0.2,0.3,0.3,0.3c0.3,0.2,0.8,0,1.1-0.3
	c0.8,0.3,1.5,0.5,2.3,0.8l3.4-2l2.8,0.2l1.7,3.2l0.8,0.7l3.7-0.3l3.3-0.5l5.4,2.5l3.7,1.8c0.3,0.6,0.6,1.1,0.8,1.7
	c-0.1,0.5-0.3,1-0.4,1.6c-0.4,0.3-0.7,0.6-1.1,0.9c-0.9-0.1-1.8-0.2-2.7-0.3c-0.4,0.4-0.9,0.8-1.3,1.1V86c0,0.1,0.1,0.3,0,0.5
	c-0.2,0.3-0.7,0.4-1.2,0.2c-0.7,0-1.4,0-2.1,0l1.2,2.3l-0.3,2.6l-0.1,2.9L70.6,97l-1.2-0.7l-2.1-1.7c0,0-0.4-0.2-1,2.1l-0.4,1.8
	l-1.4,1.5l-1.4-0.3l-1.4-1l-1.5-1.9c0,0-1.7-1.9,1-3.8c0,0-3-2.6-1.8-5.2c0,0-3.2,2.2-4.6-1.8c0,0-1.2,3.6-4.5,2.3
	c0,0-2.8,2-4.9,0.3L43.4,89.8z"/>
<path class="st21" d="M41.1,85c-0.5,0.3-1.9,1.2-2.5,3.1c-0.1,0.4-0.5,1.5-0.1,2.6c0.5,1.5,1.9,2,1.8,2.2c-0.1,0.3-2.6-0.2-3.4-1.9
	c-0.4-1-0.2-1.8,0.2-3.4c0.5-1.8,1-2.2,1.3-3.6c0.2-1.2,0.1-2.3-0.1-3.3c-0.1-0.3-0.7-2.2,0.3-4.1c0.6-1.2,2-2.2,4.6-2.6
	c0.6,0,3.3-0.1,5.2,1.9c0.5,0.5,0.8,1.2,1.1,1.6l-0.6,1.9v1.7l-2.4-0.8h-3l-1.4,1.9L41.1,85z"/>
<path class="st21" d="M58.4,79.7l1.1-1.9l2.5-0.7c0,0,3.6,1,3.8,2.2v1.1l0.5,0.5l-0.5,0.8l0.5,1l2-1.6l1.7,1.1l0.4,1.7v2.2l-1.3,1.8
	l-1.3,0.4c0,0.2-0.1,1.9-1.3,2.6c-1.5,1.1-4-0.1-4.5-1.5c-0.5-1.6,1.3-3.3,0.7-3.9c-0.7-0.7-3.5,1.4-5,0.3c-0.7-0.5-0.6-1.5-1.6-1.9
	c-0.5-0.2-1.2-0.1-1.4,0c-1.7,0.4-1.9,2-2.9,2.1s-1.9-1.2-2.2-2.2c-0.4-1.6,0.3-3.6,1.6-3.9c0.7-0.2,1.6,0.1,1.8,0.2
	c1.1,0.5,1,1.2,1.9,1.8c0.8,0.5,2.3,0.7,3.2,0C58.6,81.1,58.5,79.9,58.4,79.7z"/>
<path class="st21" d="M62.3,94.1c0,0,2.8-2.3,2.3,1.2l-1.2,0.8h-1.2v-2H62.3z"/>
<path class="st9" d="M41.4,107c0,0-8.9,20.2,36.9,7.9l-3.5,1.5l-7.8,2.9l-9.4,2.1l-9.1-0.1l-5.2-1.3l-3.8-2.4l-2-3.1l2.8-6.7
	L41.4,107z"/>
<path class="st21" d="M38.8,101.8c0,0,2.8-4.3,1.1,2l-0.6,1c-0.2-0.2-0.5-0.4-0.7-0.5C38.6,103.5,38.7,102.6,38.8,101.8z"/>
<linearGradient id="SVGID_3_" gradientUnits="userSpaceOnUse" x1="117.0603" y1="44.0997" x2="115.2389" y2="36.6237" gradientTransform="matrix(0.9886 -0.1506 -0.1506 -0.9886 -36.9429 179.517)">
	<stop  offset="0" style="stop-color:#A4C7BE"/>
	<stop  offset="0.2621" style="stop-color:#A9C8BD"/>
	<stop  offset="0.5945" style="stop-color:#B9CBBB"/>
	<stop  offset="0.9634" style="stop-color:#D4D2BA"/>
	<stop  offset="1" style="stop-color:#D6D2BA"/>
</linearGradient>
<path class="st22" d="M78.9,118.9c-4.1,5.5-10.7,5.5-14.2,6.5C68.8,125.7,78.7,123.6,78.9,118.9L78.9,118.9z"/>
<path class="st23" d="M48.3,94.1c-1.1,0.4,0,1.9,0.6,0.8c0,0.6-0.3,0.7-0.7,0.7l0,0C47,95.5,47.9,94.1,48.3,94.1L48.3,94.1z"/>
<path class="st23" d="M51.1,100.7c-0.7,0.3,0,1.4,0.4,0.5c0,0.4-0.3,0.5-0.5,0.5l0,0C50.2,101.8,50.7,100.7,51.1,100.7L51.1,100.7z"
	/>
<path class="st23" d="M56.2,102.2c-0.7,0.3,0,1.4,0.4,0.5c0,0.4-0.3,0.5-0.5,0.5l0,0C55.4,103.3,55.9,102.2,56.2,102.2L56.2,102.2z"
	/>
<path class="st23" d="M49.4,100.3c-1.4,0.5,0,2.5,0.8,1.1c0,0.8-0.5,1-1,1l0,0C47.8,102.2,48.8,100.3,49.4,100.3L49.4,100.3z"/>
<path class="st23" d="M51.1,96.7c-1,0.4,0,1.8,0.5,0.7c0,0.5-0.3,0.7-0.6,0.7l0,0C49.9,98,50.6,96.7,51.1,96.7L51.1,96.7z"/>
<path class="st23" d="M53.2,102.4c-1.4,0.5,0,2.4,0.7,1.1c0,0.8-0.4,1-0.8,1l0,0C51.7,104.2,52.6,102.4,53.2,102.4L53.2,102.4z"/>
<path class="st23" d="M40.1,112.8c1.2,0.6,0.1,2.2-0.6,1c0,0.7,0.4,0.7,0.7,0.7l0,0C41.5,114.2,40.6,112.8,40.1,112.8L40.1,112.8z"
	/>
<path class="st23" d="M55.4,95.3c1.1,0.7-0.3,2.1-0.8,0.7c-0.1,0.6,0.3,0.8,0.6,0.8l0,0C56.6,96.9,55.9,95.3,55.4,95.3L55.4,95.3z"
	/>
<path class="st23" d="M56.4,111.5c0.7,0.7-0.2,2.1-0.6,0.7c-0.1,0.6,0.2,0.8,0.4,0.8l0,0C57.2,113.2,56.8,111.6,56.4,111.5
	L56.4,111.5z"/>
<path class="st23" d="M66.5,98.7c0.7,0.7-0.2,2.1-0.6,0.7c-0.1,0.6,0.2,0.8,0.4,0.8l0,0C67.4,100.3,66.8,98.7,66.5,98.7L66.5,98.7z"
	/>
<path class="st24" d="M69.7,99.6c0.6,0.6-0.2,1.8-0.5,0.6c-0.1,0.5,0.2,0.7,0.4,0.7l0,0C70.4,100.9,70,99.7,69.7,99.6L69.7,99.6z"/>
<path class="st24" d="M49.7,106.9c-0.7,0.4,0,1.8,0.4,0.7c0,0.6-0.2,0.7-0.4,0.7l0,0C48.8,108.1,49.4,106.9,49.7,106.9L49.7,106.9z"
	/>
<path class="st24" d="M49,105.6c-0.5,0.3,0,1.4,0.3,0.5c0,0.4-0.2,0.5-0.3,0.5l0,0C48.5,106.5,48.8,105.6,49,105.6L49,105.6z"/>
<path class="st24" d="M47,97.4c-0.5,0.3,0,1.4,0.3,0.5c0,0.4-0.2,0.5-0.3,0.5l0,0C46.5,98.4,46.8,97.4,47,97.4L47,97.4z"/>
<path class="st24" d="M61.9,103.5c-0.5,0.3,0,1.4,0.3,0.5c0,0.4-0.2,0.5-0.3,0.5l0,0C61.3,104.4,61.7,103.5,61.9,103.5L61.9,103.5z"
	/>
<path class="st23" d="M63.7,106.5c1,0.8-0.3,2.1-0.7,0.7c-0.1,0.6,0.3,0.8,0.6,1l0,0C64.8,108.2,64.2,106.7,63.7,106.5L63.7,106.5z"
	/>
<path class="st23" d="M66.3,103.3c0.8,1-0.7,2-1,0.6c-0.2,0.6,0.1,0.8,0.5,1l0,0C67.1,105.1,66.7,103.4,66.3,103.3L66.3,103.3z"/>
<path class="st23" d="M72.3,104.6c0.6,0.8-0.5,2-0.7,0.6c-0.2,0.6,0.1,0.8,0.3,1l0,0C72.7,106.3,72.5,104.7,72.3,104.6L72.3,104.6z"
	/>
<path class="st24" d="M67.6,113.2c0.6,0.8-0.5,2-0.7,0.6c-0.2,0.6,0.1,0.8,0.3,1l0,0C68.1,115,67.9,113.4,67.6,113.2L67.6,113.2z"/>
<path class="st23" d="M70.3,109.4c0.5,0.7-0.5,1.7-0.6,0.5c-0.2,0.5,0.1,0.7,0.3,0.7l0,0C70.8,110.9,70.6,109.5,70.3,109.4
	L70.3,109.4z"/>
<path class="st23" d="M65.7,109c0.4,0.5-0.4,1.4-0.5,0.4c-0.1,0.4,0,0.5,0.2,0.6l0,0C66.1,110,66,109,65.7,109L65.7,109z"/>
<path class="st24" d="M68.5,111.2c0.6,0.8-0.6,2-0.7,0.6c-0.2,0.6,0.1,0.8,0.3,1l0,0C69.1,113,68.9,111.3,68.5,111.2L68.5,111.2z"/>
<path class="st23" d="M53,98.9c-1.2,1,0.7,2.3,1.1,0.7c0.3,0.7-0.2,1.1-0.5,1.2l0,0C52,101,52.4,99.1,53,98.9L53,98.9z"/>
<path class="st24" d="M49,114.1c-0.8,0.7,0.6,1.8,0.8,0.5c0.2,0.6-0.1,0.8-0.4,1l0,0C48.3,115.8,48.6,114.3,49,114.1L49,114.1z"/>
<path class="st23" d="M51.6,110.3c-0.7,0.3,0,1.4,0.4,0.5c0,0.4-0.3,0.5-0.5,0.5l0,0C50.7,111.2,51.3,110.3,51.6,110.3L51.6,110.3z"
	/>
<path class="st23" d="M53.2,110.9c-0.7,0.3,0,1.4,0.4,0.5c0,0.4-0.3,0.5-0.5,0.5l0,0C52.2,112,52.9,110.9,53.2,110.9L53.2,110.9z"/>
<path class="st23" d="M53.3,106.7c-0.7,0.3,0,1.4,0.4,0.6c0,0.4-0.3,0.5-0.5,0.5l0,0C52.4,107.6,53,106.7,53.3,106.7L53.3,106.7z"/>
<path class="st23" d="M50.1,111.8c-1.6,0.6,0,3,1,1.3c0,1-0.5,1.2-1.1,1.2l0,0C48.2,114,49.5,111.8,50.1,111.8L50.1,111.8z"/>
<path class="st23" d="M54.7,115.9c-1.4,0.5,0,2.4,0.7,1.1c0,0.7-0.4,1-0.8,1l0,0C53.1,117.7,54,115.9,54.7,115.9L54.7,115.9z"/>
<path class="st24" d="M47,103.5c-0.5,0.3,0,1.4,0.3,0.5c0,0.4-0.2,0.5-0.3,0.5l0,0C46.5,104.4,46.8,103.5,47,103.5L47,103.5z"/>
<path class="st23" d="M51.7,114.4c-1.2,1.3,0.7,2.1,1.1,0.4c0.2,0.6-0.2,1.1-0.5,1.4l0,0C50.7,116.8,51.2,114.7,51.7,114.4
	L51.7,114.4z"/>
<path class="st24" d="M47.7,108.5c-0.4,0.3,0,1.4,0.3,0.6c0,0.4-0.1,0.5-0.3,0.5l0,0C47.1,109.5,47.5,108.5,47.7,108.5L47.7,108.5z"
	/>
<path class="st24" d="M46.2,106.2c-0.4,0.3,0,1.4,0.3,0.6c0,0.4-0.1,0.5-0.3,0.5l0,0C45.7,107.3,46,106.2,46.2,106.2L46.2,106.2z"/>
<path class="st23" d="M48.3,110.5c-0.8,0.6,0,2.9,0.5,1.2c0,1-0.3,1.1-0.5,1.1l0,0C47.2,112.4,48,110.5,48.3,110.5L48.3,110.5z"/>
<path class="st23" d="M63.7,112.8c1,0.8-0.3,2.1-0.7,0.7c-0.1,0.6,0.3,0.8,0.6,1l0,0C64.8,114.4,64.2,112.8,63.7,112.8L63.7,112.8z"
	/>
<path class="st23" d="M61.9,116.4c1,0.8-0.3,2.1-0.7,0.7c-0.1,0.6,0.3,0.8,0.6,1l0,0C62.9,118.1,62.3,116.5,61.9,116.4L61.9,116.4z"
	/>
<path class="st23" d="M65.8,112.4c0.4,0.5-0.4,1.4-0.5,0.4c-0.1,0.4,0,0.5,0.2,0.6l0,0C66.1,113.5,66,112.5,65.8,112.4L65.8,112.4z"
	/>
<path class="st23" d="M59.5,112.3c-1.4,0.5,0,2.4,0.7,1.1c0,0.8-0.4,1-0.8,1l0,0C58.1,114,59,112.3,59.5,112.3L59.5,112.3z"/>
<path class="st23" d="M67.2,105.8c-1.1,0.4,0,1.8,0.6,0.7c0,0.6-0.3,0.7-0.6,0.7l0,0C66.1,107.2,66.8,105.8,67.2,105.8L67.2,105.8z"
	/>
<path class="st23" d="M59.5,109.2c0.7,1.1-0.8,2-1,0.5c-0.3,0.6,0.1,0.8,0.4,1.1l0,0C60.2,111.1,60,109.4,59.5,109.2L59.5,109.2z"/>
<path class="st24" d="M72.5,115.4c1,0.8-0.3,2.1-0.7,0.7c-0.1,0.6,0.3,0.8,0.6,1l0,0C73.5,117.1,72.9,115.6,72.5,115.4L72.5,115.4z"
	/>
<path class="st24" d="M73.1,110c1,0.8-0.3,2.1-0.7,0.7c-0.1,0.6,0.3,0.8,0.6,1l0,0C74.2,111.7,73.5,110,73.1,110L73.1,110z"/>
<path class="st24" d="M69.3,116.1c0.4,0.7-0.3,1.6-0.4,0.5c-0.1,0.5,0.1,0.6,0.3,0.7l0,0C69.7,117.5,69.5,116.2,69.3,116.1
	L69.3,116.1z"/>
<path class="st24" d="M71,112.3c0.5,0.8-0.3,1.9-0.5,0.6c-0.1,0.5,0.1,0.7,0.3,0.8l0,0C71.6,114,71.3,112.4,71,112.3L71,112.3z"/>
<path class="st25" d="M51.3,100.8c0.1,0,0.2,0.1,0.2,0.2s0,0.1-0.1,0.2c0,0,0,0,0-0.1s-0.1-0.1-0.2-0.1c-0.1,0-0.1,0-0.2,0.1V101
	C51,100.9,51.1,100.8,51.3,100.8L51.3,100.8z"/>
<path class="st25" d="M47,103.7c0.1,0,0.2,0.1,0.2,0.2s0,0.1-0.1,0.2c0,0,0,0,0-0.1s-0.1-0.1-0.2-0.1s-0.1,0-0.2,0.1v-0.1
	C46.8,103.8,46.9,103.7,47,103.7L47,103.7z"/>
<path class="st25" d="M51.3,96.8c0.2,0.1,0.3,0.3,0.2,0.5c0,0.1-0.1,0.2-0.2,0.2c0,0,0,0,0.1-0.1c0-0.1-0.1-0.2-0.2-0.3
	c-0.1-0.1-0.2-0.1-0.3,0V97C50.8,96.8,51.1,96.8,51.3,96.8L51.3,96.8z"/>
<path class="st25" d="M53.5,98.9c0.3,0.1,0.4,0.3,0.4,0.5c0,0.1-0.1,0.3-0.3,0.3c0,0,0,0,0.1-0.1s-0.1-0.2-0.3-0.3
	c-0.2,0-0.3-0.1-0.4,0.1c0-0.1,0-0.1,0-0.1C53,99,53.3,98.8,53.5,98.9L53.5,98.9z"/>
<path class="st25" d="M56.6,99.9c0.3,0,0.5,0.2,0.5,0.5c0,0.1-0.1,0.3-0.2,0.4c0,0,0,0,0-0.1c0-0.5-0.7-0.6-0.8-0.1
	c0-0.1,0-0.1,0-0.2C56,100.1,56.2,99.9,56.6,99.9L56.6,99.9z"/>
<path class="st25" d="M53.6,102.6c0.3,0.1,0.4,0.4,0.3,0.6c-0.1,0.1-0.2,0.3-0.3,0.3c0,0,0,0,0.1-0.1c0-0.1-0.1-0.3-0.3-0.4
	s-0.3-0.1-0.5,0c0-0.1,0-0.1,0-0.2C53,102.6,53.3,102.5,53.6,102.6L53.6,102.6z"/>
<path class="st25" d="M62,103.2c-0.2,0.1-0.4,0.3-0.3,0.5c0.1,0.1,0.2,0.2,0.3,0.3c0,0,0,0-0.1-0.1c0-0.1,0.1-0.3,0.3-0.3
	c0.2-0.1,0.3-0.1,0.4,0c0-0.1,0-0.1,0-0.1C62.5,103.3,62.3,103.1,62,103.2L62,103.2z"/>
<path class="st25" d="M54.9,95.5c-0.2,0.1-0.4,0.3-0.3,0.5c0.1,0.1,0.2,0.2,0.3,0.3c0,0,0,0-0.1-0.1c0-0.1,0.1-0.3,0.3-0.3
	c0.2-0.1,0.3-0.1,0.4,0c0-0.1,0-0.1,0-0.1C55.4,95.5,55.1,95.4,54.9,95.5L54.9,95.5z"/>
<path class="st25" d="M55.9,112c-0.2,0.1-0.3,0.3-0.2,0.5c0,0.1,0.1,0.2,0.2,0.3c0,0,0,0-0.1-0.1c0-0.1,0.1-0.3,0.2-0.3
	c0.1-0.1,0.2-0.1,0.3,0c0-0.1,0-0.1,0-0.1C56.4,112,56.1,111.8,55.9,112L55.9,112z"/>
<path class="st25" d="M66.1,98.7c-0.2,0.1-0.3,0.3-0.2,0.5c0,0.1,0.1,0.2,0.2,0.3c0,0,0,0-0.1-0.1c0-0.1,0.1-0.3,0.2-0.3
	c0.1-0.1,0.2-0.1,0.3,0c0-0.1,0-0.1,0-0.1C66.5,98.7,66.3,98.6,66.1,98.7L66.1,98.7z"/>
<path class="st25" d="M65.7,103.1c-0.2,0.1-0.3,0.4-0.3,0.7c0.1,0.2,0.1,0.3,0.3,0.3c0,0,0,0-0.1-0.1c0-0.1-0.1-0.4,0.1-0.5
	s0.5-0.1,0.5,0c0-0.1,0-0.1,0-0.2C66.2,103.2,65.9,102.9,65.7,103.1L65.7,103.1z"/>
<path class="st26" d="M69.5,99.6c-0.1,0.1-0.2,0.2-0.1,0.4c0,0.1,0.1,0.1,0.1,0.2c0,0,0,0,0-0.1s0.1-0.2,0.1-0.2
	c0.1-0.1,0.1-0.1,0.2,0v-0.1C69.7,99.6,69.6,99.6,69.5,99.6L69.5,99.6z"/>
<path class="st26" d="M67.2,105.8c-0.2,0.1-0.3,0.3-0.2,0.5c0,0.1,0.1,0.2,0.2,0.2c0,0,0,0-0.1-0.1c0-0.1,0.1-0.3,0.2-0.3
	c0.1-0.1,0.2-0.1,0.3,0c0-0.1,0-0.1,0-0.1C67.5,105.8,67.3,105.7,67.2,105.8L67.2,105.8z"/>
<path class="st26" d="M66.2,109.6c-0.2,0.1-0.3,0.3-0.2,0.5c0,0.1,0.1,0.2,0.2,0.2c0,0,0,0-0.1-0.1c0-0.1,0.1-0.3,0.2-0.3
	c0.1-0.1,0.2-0.1,0.3,0c0-0.1,0-0.1,0-0.1C66.6,109.7,66.4,109.6,66.2,109.6L66.2,109.6z"/>
<path class="st27" d="M68.1,111.3c-0.2,0.1-0.3,0.3-0.2,0.5c0,0.1,0.1,0.2,0.2,0.2c0,0,0,0,0-0.1s0.1-0.2,0.2-0.3
	c0.1-0.1,0.2-0.1,0.3,0c0-0.1,0-0.1,0-0.1C68.4,111.3,68.2,111.2,68.1,111.3L68.1,111.3z"/>
<path class="st27" d="M67.1,113.2c-0.2,0.1-0.3,0.3-0.2,0.5c0,0.1,0.1,0.2,0.2,0.2c0,0,0,0,0-0.1s0.1-0.2,0.2-0.3
	c0.1-0.1,0.2-0.1,0.3,0c0-0.1,0-0.1,0-0.1C67.5,113.2,67.3,113.1,67.1,113.2L67.1,113.2z"/>
<path class="st25" d="M53.6,106.7c0.2,0.1,0.3,0.3,0.2,0.4c0,0.1-0.1,0.2-0.2,0.2c0,0,0,0,0.1-0.1c0.1-0.3-0.4-0.5-0.5-0.2v-0.1
	C53.2,106.7,53.4,106.5,53.6,106.7L53.6,106.7z"/>
<path class="st23" d="M54,109.2c-0.4,0.5,0.5,1.1,0.5,0.2c0.2,0.3,0,0.5-0.1,0.6l0,0C53.8,110.4,53.8,109.3,54,109.2L54,109.2z"/>
<path class="st25" d="M54.2,109.1c0.2,0,0.3,0.1,0.3,0.2s0,0.2-0.1,0.2c0,0,0,0,0-0.1c0-0.2-0.5-0.2-0.5,0v-0.1
	C54,109.3,54.1,109.2,54.2,109.1L54.2,109.1z"/>
<path class="st23" d="M58.9,95.8c-1.4,0.5,0,2.5,0.8,1.1c0,0.8-0.5,1-1,1l0,0C57.3,97.6,58.4,95.8,58.9,95.8L58.9,95.8z"/>
<path class="st25" d="M59.2,95.9c0.3,0.1,0.5,0.3,0.5,0.5c0,0.1-0.1,0.3-0.3,0.3c0,0,0,0,0.1-0.1c0.1-0.5-0.7-0.7-1-0.2
	c0-0.1,0-0.1,0-0.2C58.7,96.1,58.9,95.9,59.2,95.9L59.2,95.9z"/>
<path class="st23" d="M60.1,98.3c-1,0.3,0,1.7,0.5,0.7c0,0.5-0.3,0.6-0.6,0.6l0,0C59,99.6,59.6,98.3,60.1,98.3L60.1,98.3z"/>
<path class="st25" d="M60.3,98.4c0.2,0,0.3,0.2,0.3,0.4c0,0.1-0.1,0.2-0.2,0.2c0,0,0,0,0-0.1c0.1-0.3-0.4-0.4-0.6-0.1v-0.1
	C59.9,98.5,60.1,98.3,60.3,98.4L60.3,98.4z"/>
<path class="st23" d="M60.6,99.8c-0.7,0.3,0,1.4,0.4,0.5c0,0.4-0.3,0.5-0.5,0.5l0,0C59.7,100.8,60.4,99.8,60.6,99.8L60.6,99.8z"/>
<path class="st25" d="M60.8,99.9c0.2,0,0.3,0.2,0.3,0.3c0,0.1-0.1,0.1-0.1,0.2c0,0,0,0,0-0.1c0-0.3-0.3-0.4-0.5-0.1v-0.1
	C60.5,100,60.6,99.9,60.8,99.9L60.8,99.9z"/>
<path class="st23" d="M59.2,101.1c-0.5,0.2,0,1,0.3,0.4c0,0.3-0.2,0.4-0.3,0.4l0,0C58.6,101.8,59,101.1,59.2,101.1L59.2,101.1z"/>
<path class="st25" d="M59.3,101.1c0.1,0,0.2,0.1,0.2,0.2s-0.1,0.1-0.1,0.1s0,0,0-0.1c0-0.2-0.3-0.3-0.3-0.1c0,0,0,0,0-0.1
	C59.1,101.2,59.2,101.1,59.3,101.1L59.3,101.1z"/>
<path class="st23" d="M58.7,105c-1.4,0.5,0,2.5,0.8,1.1c0,0.8-0.5,1-1,1l0,0C57,106.9,58.1,105,58.7,105L58.7,105z"/>
<path class="st25" d="M59,105.1c0.3,0.1,0.5,0.3,0.5,0.5c0,0.1-0.1,0.3-0.3,0.3c0,0,0,0,0.1-0.1c0.1-0.5-0.7-0.7-1-0.2
	c0-0.1,0-0.1,0-0.2C58.4,105.2,58.7,105.1,59,105.1L59,105.1z"/>
<path class="st23" d="M57,114.5c-0.7,1.1,0.8,2,1,0.5c0.3,0.6,0,0.8-0.3,1.1l0,0C56.4,116.4,56.6,114.7,57,114.5L57,114.5z"/>
<path class="st23" d="M57.8,116.1c-1,1.4,1.2,2.6,1.4,0.7c0.4,0.8,0,1.2-0.5,1.4l0,0C57.1,118.6,57.3,116.3,57.8,116.1L57.8,116.1z"
	/>
<path class="st28" d="M55.9,123.6c1.2,0.1,2.6,0.3,4.8,0.1c1.6-0.1,2.8-0.2,3.6-0.4c5.3-0.8,9.5-2.4,9.5-2.3s-9.1,4.6-17.7,4.2
	c-2.5-0.1-3.6-0.5-7.6-0.5c-2,0-3.4,0.1-5.2-0.6c-2-0.8-3.7-2.4-3.5-2.9c0.3-0.5,3.2,1.6,8.3,2.2C51.1,123.8,51.1,123.2,55.9,123.6z
	"/>
<path class="st23" d="M88.1,102.4c-0.5,0.7-1.1,1.4-1.8,2c-1.7,1.3-3.9,1.5-4,1.2c0-0.1,0.1-0.3,1-0.8c0.7-1,2-2.2,3.9-3.7
	c1.1-0.8,1.6-1.5,1.9-2c0.2-0.2,0.4-0.5,0.7-1c0.3-0.6,0.6-1.6,0.3-4c-0.2-1.3-0.3-2.8-1.2-4.6c-1.7-3.6-4.8-5.4-4.7-5.4
	c0.1-0.1,2.2,1.2,4.1,3.7c1,1.3,3.1,4,2.9,7.7C91.1,98.2,89.9,99.9,88.1,102.4z"/>
<g id="Layer_1_1_">
	<g>
		<g>
			<path class="st29" d="M110,35.9c-3.8-4.9-9.5-7.9-15.5-9.3c-7.2-1.6-14.3-0.4-21.4,1.5c-6.4,1.7-13,2.9-18.8,6.4
				c-5,3.1-8.8,7.8-11,13.2c-3.2,7.5-3.2,15.8-2.1,23.7c0.1,0.5,0.8,0.5,0.7,0c-0.8-6.8-1.1-13.7,1-20.3c1.7-5.7,5.2-11,10-14.6
				c5.2-4,11.7-5.4,17.9-7C77.5,27.8,84,26,91,26.9c7.1,0.8,14,4,18.4,9.6C109.8,36.7,110.3,36.2,110,35.9L110,35.9z"/>
		</g>
	</g>
	<g>
		<g>
			<path class="st29" d="M61.8,31.8c0.5,0,0.5-0.7,0-0.7C61.2,31,61.2,31.8,61.8,31.8L61.8,31.8z"/>
		</g>
	</g>
	<g>
		<g>
			<path class="st29" d="M41,57.5c-2.8,0.2-5.5-0.6-7.3-2.9c-1.8-2.2-2-5.3-0.7-7.9c1.1-2.3,3.1-4.1,5.4-5.1c2.4-1,5.9-1.5,8.1,0.3
				c0.3,0.3,1-0.2,0.5-0.5c-2.2-1.9-5.8-1.6-8.4-0.6c-2.9,1-5.3,3.2-6.5,5.9c-2.6,6.1,2.4,12.1,8.8,11.6
				C41.5,58.1,41.5,57.4,41,57.5L41,57.5z"/>
		</g>
	</g>
	<g>
		<g>
			<path class="st29" d="M103.5,30.6c3.9-2.9,10.6-5.2,14.3-0.8c3.5,4.1,3.1,11.7-2.6,13.6c-0.4,0.1-0.3,0.8,0.2,0.7
				c5.9-2,6.9-9.5,3.5-14.2c-3.8-5.3-11.2-3.3-15.8,0C102.8,30.2,103.2,30.9,103.5,30.6L103.5,30.6z"/>
		</g>
	</g>
	<g>
		<g>
			<path class="st29" d="M74.2,59c0.1-0.1,0.3-0.1,0.4-0.1c-0.1-0.1-0.1-0.2-0.2-0.3c-0.1,0.2-0.7,0.3-1.1,0.4
				c-0.6,0.3-1.2,1.1-1.7,1.6c-0.8,1-1.7,2.1-1.9,3.4c-0.4,2.8,3.1,3.7,5.2,3.3c2-0.4,3.8-1.7,5.8-2.3c1.8-0.5,3.4-0.1,5.2,0
				c1.2,0.1,2.4,0.1,3.3-0.8c0.8-0.8,1.1-2.2,0.7-3.3c-0.7-3-4.9-3.9-7.5-4.5c-0.2-0.1-0.3,0.3-0.1,0.3c2.8,0.5,8.1,1.9,7.2,5.6
				c-0.7,3.7-6,1.5-8.6,2c-1.9,0.4-3.6,1.6-5.4,2.2c-1.8,0.5-5.4,0.4-5.5-2.1c-0.1-1.6,1.3-3.2,2.3-4.3c0.4-0.4,0.8-0.8,1.4-1.2
				c0.2-0.1,0.6-0.2,0.8-0.4c0.1-0.1-0.1-0.3-0.2-0.3s-0.3,0.1-0.4,0.1C73.8,58.6,73.9,59.1,74.2,59L74.2,59z"/>
		</g>
	</g>
	<g>
		<g>
			<path class="st29" d="M85.2,65.1c0.8,1.5,1.5,3.3,1.4,5.1c-0.1,1.4-1.1,2.9-2.6,2.8c-1.1-0.1-1.6-1.1-2.1-1.8
				c-0.1-0.2-0.4,0-0.3,0.2c0.5,0.7,1.1,1.8,2,2c1,0.2,2-0.3,2.6-1c1.8-1.9,0.4-5.5-0.6-7.3C85.4,64.7,85.1,64.9,85.2,65.1
				L85.2,65.1z"/>
		</g>
	</g>
	<g>
		<g>
			<path class="st29" d="M103.9,107.9c-2.6,1.1-6.4,1.3-8.2-1.6c-2-3.3,2.2-4.2,4.6-4.5c1.9-0.2,4.8-0.4,6,1.4
				C107.8,105.1,105.4,107.1,103.9,107.9c-0.3,0.1-0.1,0.4,0.1,0.3c1.7-0.8,4-2.9,2.8-5c-1.4-2.3-5.2-1.9-7.3-1.6
				c-2.2,0.3-5.5,1.4-4.3,4.2c1.4,3.6,5.8,3.6,8.9,2.4C104.1,108.1,104.1,107.8,103.9,107.9z"/>
		</g>
	</g>
	<g>
		<g>
			<path class="st29" d="M99,105.8c-1.4,0.3-3.5,0.3-3.6-1.6c0-0.2-0.4-0.2-0.3,0c0.1,2.1,2.4,2.3,4.1,1.9
				C99.3,106.1,99.2,105.8,99,105.8L99,105.8z"/>
		</g>
	</g>
	<ellipse class="st30" cx="92.1" cy="43.2" rx="12.2" ry="12.2"/>
	<ellipse class="st30" cx="62" cy="49.5" rx="12.2" ry="12.2"/>
	<ellipse class="st29" cx="111.8" cy="35.1" rx="2.5" ry="2.5"/>
	<ellipse class="st29" cx="40.7" cy="49.1" rx="2.5" ry="2.5"/>
	<path class="st29" d="M84.2,55.9c-0.3-1.6-2.9-2.5-5.8-2.1c-3,0.4-5.2,2.2-4.9,3.9c0.3,1.6,2.9,2.5,5.8,2.1
		C82.3,59.3,84.5,57.6,84.2,55.9z"/>
	<path class="st29" d="M89.7,44.6c-2.2,0.3-3.6,2.4-3.3,4.6c0.3,2.2,2.4,3.6,4.6,3.3s3.6-2.4,3.3-4.6C94,45.6,91.9,44.1,89.7,44.6z
		 M92.4,50.7c-0.6,0.1-1.2-0.3-1.3-1c-0.1-0.6,0.3-1.2,1-1.3c0.6-0.1,1.2,0.3,1.3,1C93.3,50,93,50.6,92.4,50.7z"/>
	<path class="st29" d="M61.2,50.5c-2.2,0.3-3.6,2.4-3.3,4.6c0.3,2.2,2.4,3.6,4.6,3.3c2.1-0.3,3.6-2.4,3.3-4.6
		C65.5,51.5,63.3,50.1,61.2,50.5z M63.9,56.6c-0.6,0.1-1.2-0.3-1.3-1c-0.1-0.6,0.3-1.2,1-1.3s1.2,0.3,1.3,1
		C64.8,55.9,64.4,56.5,63.9,56.6z"/>
	<g>
		<g>
			<path class="st29" d="M80.5,65c0.5,1.5,0.7,3.5,0.8,5.1c0.1,1.9-1,5-3.5,3.5c-2-1.2-2.1-4.8-1.8-6.7c0-0.2-0.3-0.2-0.3,0
				c-0.3,2.2-0.1,7,3.1,7.4c1.6,0.2,2.6-0.8,3-2.3c0.2-1,0.1-2-0.1-3c-0.2-1.3-0.3-2.8-0.7-3.9C80.7,64.7,80.4,64.8,80.5,65L80.5,65
				z"/>
		</g>
	</g>
	<g>
		<g>
			<path class="st29" d="M36.2,92.9c-1.6,1.2-3.9,3.9-1.3,5.2c0.2,0.1,0.4-0.2,0.2-0.3c-2.3-1.2-0.1-3.6,1.3-4.6
				C36.5,93.1,36.4,92.8,36.2,92.9L36.2,92.9z"/>
		</g>
	</g>
	<g>
		<g>
			<path class="st29" d="M37.1,96.2c-1,0.4-2.3,1.5-1.7,2.8c0.5,1.1,2,1.1,3,0.7c0.2-0.1,0.1-0.4-0.1-0.3c-0.7,0.2-2,0.3-2.4-0.4
				c-0.7-1.1,0.7-2,1.5-2.4C37.5,96.4,37.3,96.1,37.1,96.2L37.1,96.2z"/>
		</g>
	</g>
	<g>
		<g>
			<path class="st29" d="M123.8,74.6c1,11.4,0.4,23-1.8,34.1c-0.1,0.5,0.6,0.6,0.7,0.2c2.2-11.3,2.9-22.9,1.8-34.3
				C124.4,74.2,123.6,74.2,123.8,74.6L123.8,74.6z"/>
		</g>
	</g>
	<g>
		<g>
			<path class="st29" d="M108.6,35.1c3.3,3.3,5.7,7.3,7.6,11.6c2,4.3,3.9,8.9,4.8,13.6c0.1,0.5,0.8,0.3,0.7-0.2
				c-1-4.8-2.9-9.4-4.9-13.8c-2-4.3-4.5-8.4-7.7-11.7C108.8,34.2,108.3,34.8,108.6,35.1L108.6,35.1z"/>
		</g>
	</g>
	<g>
		<path class="st29" d="M66.3,96.4c0.1,1.2,0,2.9-1.4,3.3c-1.1,0.3-2.3-0.3-3.1-1c-1-0.7-1.7-1.8-1.8-3.1c0-1.6,1.4-2.6,2.7-3.3
			c0.3-0.2,0.1-0.7-0.3-0.5c-1.5,0.7-2.9,1.9-3,3.7c0,1.5,1,2.9,2,3.7c1,0.7,2.4,1.4,3.7,1c1.6-0.5,1.8-2.4,1.8-3.9
			C67,95.9,66.3,95.9,66.3,96.4L66.3,96.4z"/>
	</g>
	<g>
		<path class="st29" d="M61.7,92.5c-2.2-1.3-2.6-3.1-1-5.1c0.2-0.2-0.1-0.7-0.3-0.5c-0.8,0.6-1.8,1.3-3,1.3c-1.5,0-1.7-1.8-1.8-2.9
			c0-0.4-0.6-0.4-0.6,0c0,1.3,0.3,2.6,1.5,3.3c1.4,0.7,3.1-0.3,4.1-1.2c-0.1-0.1-0.2-0.3-0.3-0.5c-2,2.4-1.6,4.6,1.1,6.1
			C61.7,93.2,62.1,92.7,61.7,92.5L61.7,92.5z"/>
	</g>
	<g>
		<path class="st29" d="M55.1,86c-0.6,1.2-1.7,2.1-3.1,2.2c-1.6,0.1-2.4-1.1-2.5-2.5c0-0.4-0.6-0.4-0.6,0c0.1,1.5,0.8,3,2.5,3.2
			c1.8,0.2,3.5-1,4.3-2.5C55.7,86,55.2,85.7,55.1,86L55.1,86z"/>
	</g>
	<g>
		<path class="st29" d="M50.1,88.4c-2.9,1.5-5.3-0.1-6.5-2.9c-0.1-0.3-0.7-0.1-0.5,0.3c1.4,3,4.2,4.7,7.3,3.1
			C50.8,88.7,50.4,88.2,50.1,88.4L50.1,88.4z"/>
	</g>
	<g>
		<path class="st29" d="M45.2,88.3c-1.6,1.8-3.6,1.1-5.3-0.1c-0.3-0.2-0.6,0.3-0.3,0.5c2,1.3,4.3,1.9,6-0.1
			C46,88.4,45.5,88,45.2,88.3L45.2,88.3z"/>
	</g>
	<g>
		<path class="st29" d="M74.9,85.9c-0.4,0.8-1.6,0.6-2.4,0.5c-0.4-0.1-0.5,0.5-0.1,0.6c1.1,0.2,2.5,0.3,3.1-0.7
			C75.6,85.9,75.1,85.6,74.9,85.9L74.9,85.9z"/>
	</g>
	<g>
		<path class="st29" d="M52.3,78.5c1.7-2.1,7.2-8.4,9.6-3.6c0.5,1.2,0.3,2.9,2.1,2.6c1.2-0.1,2.1-0.5,3.3-0.7c2-0.4,4,0.1,5.8,0.8
			c1.4,0.5,2.4,1.6,3.8,2.2c0.5,0.2,1.1,0.4,1.6,0.6c1.9,0.7,1.9,3,0.3,3.8c-0.3,0.2-0.1,0.7,0.3,0.5c2.4-1.3,2.8-3.4,0.2-4.8
			c-3.6-1.8-6.9-4.3-11.2-4.1c-2,0.1-4.3,2-5.3-1c-0.3-1.2-1.1-2.1-2.3-2.3c-3.8-0.6-6.5,2.6-8.6,5.3C51.5,78.5,52,78.8,52.3,78.5
			L52.3,78.5z"/>
	</g>
	<g>
		<path class="st29" d="M42.9,90.1c1,1.6,0.1,3-0.4,4.5C42,95.8,42,97,41.9,98.3c-0.1,1.5-0.1,3.1-0.1,4.6c0,0.6-0.3,1.3-0.3,1.9
			c-0.1,0.4-0.1,0.7-0.1,1.2c-2,1.3-3.2,1.1-3.5-0.6c-1.5-4.1,5.1-8.8-0.1-11.9c-1.5-1-2.2-1.4-2.3-3.2c-0.1-1.3,0.2-2.5,0.5-3.8
			c0.2-1,0.3-1.8,0.4-2.8c0.1-1.3-0.6-2.8-0.7-4.1c-0.3-6.7,8.3-10.2,13.2-6.7c0.3,0.2,0.6-0.3,0.3-0.5c-4.3-3.1-11.3-1.5-13.5,3.6
			c-0.5,1.4-0.8,2.9-0.7,4.3c0,0.7,0.3,1.6,0.5,2.2c0.3,1.3,0,2.4-0.2,3.7c-0.4,2.2-1.2,4.9,0.5,6.8c0.2,0.2,0.7,0.5,1.1,0.6
			c2.2,0.8,2.4,2.9,1.9,4.9c-0.5,1.7-1.4,3.2-1.6,5c-0.3,1.8,0.7,4.9,3,4.6c2.6-0.3,2.3-5.7,2.4-7.5c0.1-2.4,0.1-4.8,1.4-7
			c0.8-1.6,0.7-2-0.2-3.6C43.2,89.5,42.7,89.8,42.9,90.1L42.9,90.1z"/>
	</g>
	<g>
		<path class="st29" d="M58.7,80.3c0.3-1.7,1.7-2.5,3.4-2.6c0.7,0,1.6,0.2,2.2,0.5c0.3,0.2,0.6,0.4,1,0.7c0.7,0.6,0.5,1-0.2,1.5
			c-0.2,0.2-0.2,0.5,0.1,0.5c0.5,0.1,0.6,0.2,0.3,0.4c-0.3,0.3,0.1,0.7,0.4,0.4c1-1,0.5-1.4-0.7-1.5c0.1,0.2,0.1,0.4,0.1,0.5
			c1.1-0.7,1.6-1,0.6-2.2c-0.7-1-1.8-1.4-2.9-1.6c-2.2-0.5-4.6,0.7-5,3C58.1,80.5,58.7,80.6,58.7,80.3L58.7,80.3z"/>
	</g>
	<g>
		<path class="st29" d="M66.4,82.6c1.3-1.8,3.1-1.2,3.8,0.6c0.8,2.1-0.5,3.9-2.6,4.5c-0.4,0.1-0.2,0.7,0.1,0.6
			c2.6-0.6,3.9-3.1,2.9-5.6c-0.4-1-1.2-1.7-2.1-1.9c-1.2-0.2-2,0.6-2.6,1.5C65.7,82.6,66.2,82.9,66.4,82.6L66.4,82.6z"/>
	</g>
	<g>
		<path class="st29" d="M70.1,86c2.3,1.4,2.6,4.3,2.2,6.8c-0.2,1.1-0.5,2-1.1,3C70,97.9,69,96.1,67.9,95c-0.3-0.3-0.7,0.1-0.4,0.4
			c0.8,0.8,1.6,1.8,2.6,2.4c0.1,0.1,0.3,0.1,0.3-0.1c3-3,4.1-9.6-0.1-12.2C70.1,85.2,69.8,85.8,70.1,86L70.1,86z"/>
	</g>
	<g>
		<path class="st29" d="M54,78.6c-1.9-3.8-5.6-1.8-5.8,1.8c0-0.7-4.3-0.5-5-0.2c-1.9,1.1-2.4,3.1-2.2,5.1c0,0.4,0.6,0.4,0.6,0
			c-0.3-4.5,3.2-5.8,6.8-3.9c0.2,0.1,0.5,0,0.5-0.3c-0.2-3,2.8-5.9,4.6-2.2C53.6,79.2,54.2,78.9,54,78.6L54,78.6z"/>
	</g>
	<g>
		<path class="st29" d="M79.7,81.4c0.1,0.2,0.1,0.4,0,0.6c8.1-3,13.2,7.3,12.9,14.4c-0.4,8.5-9.5,13.9-17.4,10.5
			c-0.3-0.1-0.7,0.3-0.3,0.5c3.9,1.7,9.1,1.2,12.7-1c3.5-2,5.2-6,5.5-10C93.9,88.8,87.8,78.7,79.7,81.4z"/>
	</g>
	<g>
		<path class="st29" d="M73.3,89.6c1.4-1.7,3.9-2.2,6-2.4c3.8-0.4,6.1,2.5,6.6,6c0.7,6.7-5.1,11.3-11.3,10.1
			c-0.4-0.1-0.5,0.5-0.1,0.6c6.9,1.4,13.5-4.1,12-11.4c-0.5-2.9-2.4-5.6-5.6-5.8c-2.6-0.2-6.3,0.5-7.9,2.6
			C72.7,89.5,73.1,89.9,73.3,89.6L73.3,89.6z"/>
	</g>
	<g>
		<path class="st29" d="M72.6,91.8c0,7.6,1.2,15,4.1,22.1c0.1,0.3,0.7,0.1,0.5-0.3c-3-7-4-14.3-4.1-21.8
			C73.2,91.4,72.6,91.4,72.6,91.8L72.6,91.8z"/>
	</g>
	<g>
		<path class="st29" d="M78,114.5c-5.9,3.9-13.8,5.5-20.7,6.3c-6.3,0.6-16.8,0.8-19.3-6.6c-0.1-0.4-0.7-0.2-0.6,0.1
			c2.3,7.1,11.4,7.5,17.7,7.2c7.7-0.4,16.6-2.2,23.2-6.6C78.6,114.7,78.3,114.3,78,114.5L78,114.5z"/>
	</g>
	<g>
		<path class="st29" d="M78.3,114.9c6.1,10-12.8,11.8-18.5,12.1c-5.2,0.2-10.5-0.1-15.6-1.4c-1.9-0.4-3.7-1.2-5.4-2.2
			c-1.1-0.7-1.6-1.8-1.9-3c-0.1-0.5-1.2-5.6,0.6-4.9c0.3,0.1,0.7-0.4,0.3-0.5c-2.4-1.1-2,2.8-1.8,4.1c0.4,2.5,1.5,4.3,3.7,5.5
			c5.1,2.8,11.8,3,17.4,3.1c6.1,0,28.9-1.6,21.9-13C78.6,114.2,78.1,114.5,78.3,114.9L78.3,114.9z"/>
	</g>
	<g>
		<path class="st29" d="M24.7,115.6c-3.1,0.2-5.7,1.9-8.9,1.7c-1.2-0.1-2.2,0.2-3.3,0.7c-0.5,0.3-1.5,1.2-1.5,1.8
			c0.1,0.5,0.4,0.7,1,0.8c1.6,0.4,3.4,0.3,5,0.4c3.8,0.1,7.4,1,11.1,1.7c1.6,0.3,5.6,1.5,6.7-0.5c1-1.9-1.4-2.9-2.9-3.2
			c-1.4-0.3-3-0.3-4.3-0.6c-0.3-0.1-0.6-0.1-1-0.3c-1-0.3-0.5-0.2,0-0.6c0.2-0.1,0.5-0.4,0.5-0.6C27.6,115.4,25.5,115.4,24.7,115.6
			c-0.2,0-0.2,0.4,0,0.3c0.3,0,0.6,0,1,0c1.3,0.1,0.5,1.4-0.1,1.8c-0.1,0.1-0.1,0.3,0,0.3c1.3,0.6,2.5,0.8,3.9,1
			c1,0.1,1.9,0.2,2.9,0.4c0.4,0.1,1,0.3,1.4,0.5c1.4,0.6,0.7,2.4-0.5,2.8c-1.8,0.5-4.2-0.3-6-0.6c-2-0.4-4.1-1-6.1-1.3
			c-1.7-0.3-3.3-0.3-5-0.3c-1,0-1.8-0.1-2.8-0.2s-2-0.5-1.1-1.6c0.5-0.5,1.2-0.8,1.8-1.1c1.5-0.5,3.4-0.1,5-0.4
			c2-0.3,3.8-1.3,5.8-1.5C25,115.9,25,115.4,24.7,115.6z"/>
	</g>
	<g>
		<path class="st29" d="M31,116.6c1.6,0.5,3,0.2,4.1-1c0.1-0.1,0.1-0.2,0-0.3c-1.1-0.5-2.4-0.7-3.5-0.5
			C30.6,115.1,30.3,115.8,31,116.6c0.1,0.1,0.3-0.1,0.2-0.3c-0.7-1,0.6-1.1,1.4-1.1c0.8,0,1.7,0.1,2.4,0.5c0-0.1,0-0.2,0-0.3
			c-1.1,1.1-2.4,1.3-3.8,0.7C30.8,116.2,30.8,116.5,31,116.6L31,116.6z"/>
	</g>
	<g>
		<path class="st29" d="M48.3,73.7c1-0.8,2.3-0.7,2.5,0.6c0,0.4,0.6,0.4,0.6,0c-0.1-0.8-0.5-1.6-1.3-1.8c-0.8-0.3-1.7,0.2-2.2,0.7
			C47.6,73.5,48,73.9,48.3,73.7L48.3,73.7z"/>
	</g>
	<g>
		<path class="st29" d="M76.1,83.9c-1,0.2-1.5,1.3-1.1,2.1c0.1,0.3,0.7,0.1,0.5-0.3c-0.2-0.5,0.2-1.1,0.7-1.2
			C76.6,84.4,76.5,83.9,76.1,83.9L76.1,83.9z"/>
	</g>
	<g>
		<path class="st29" d="M71.7,87c0.2,0,0.4,0,0.6,0c0.4,0,0.4-0.6,0-0.6c-0.2,0-0.4,0-0.6,0C71.3,86.4,71.3,87,71.7,87L71.7,87z"/>
	</g>
	<g>
		<path class="st29" d="M37.9,114.2c1.1-2.1,1.7-4.5,2.3-6.8c0.1-0.4-0.5-0.5-0.6-0.1c-0.6,2.2-1.2,4.6-2.2,6.7
			C37.2,114.3,37.7,114.5,37.9,114.2L37.9,114.2z"/>
	</g>
	<g>
		<path class="st29" d="M77,114.2c0.4,0.3,0.8,0.6,1.3,0.8c0.3,0.2,0.6-0.3,0.3-0.5c-0.4-0.3-0.8-0.6-1.3-0.8
			C76.9,113.4,76.7,114,77,114.2L77,114.2z"/>
	</g>
	<g>
		<path class="st29" d="M61.8,94.4c-0.3,0.7-0.1,1.6,0.6,2c0.7,0.4,1.7-0.1,2.2-0.6c0.3-0.3-0.2-0.7-0.4-0.4
			c-0.3,0.4-0.8,0.7-1.4,0.5c-0.5-0.2-0.5-0.8-0.3-1.3C62.5,94.1,61.9,93.9,61.8,94.4L61.8,94.4z"/>
	</g>
	<g>
		<path class="st29" d="M38.7,102c-0.5,1.1-0.8,2.3,0.1,3.3c0.1,0.1,0.3,0.1,0.3,0.1c0.4-0.2,0.6-0.5,0.7-1c0.1-0.3-0.4-0.5-0.6-0.1
			c-0.1,0.3-0.2,0.4-0.5,0.5c0.1,0,0.2,0,0.3,0.1c-0.6-0.7-0.3-1.8,0.1-2.5C39.4,102,38.9,101.6,38.7,102L38.7,102z"/>
	</g>
	<g>
		<path class="st29" d="M38.3,80.6c-1.2-3.6,1.5-5.7,4.8-6.6c0.4-0.1,0.2-0.7-0.1-0.6c-3.5,1-6.4,3.5-5.2,7.3
			C37.9,81.1,38.4,80.9,38.3,80.6L38.3,80.6z"/>
	</g>
	<g>
		<path class="st29" d="M40.9,78.3c-0.2-0.5,0.1-1.2,0.6-1.4c0.3-0.2,0-0.7-0.3-0.5c-0.7,0.4-1.2,1.3-1,2.1
			C40.5,78.8,41,78.7,40.9,78.3L40.9,78.3z"/>
	</g>
	<g>
		<g>
			<path class="st29" d="M31.9,112.5c2.2-0.1,4.5-0.2,6.8-0.3c0.5,0,0.5-0.7,0-0.7c-2.2,0.1-4.5,0.2-6.8,0.3
				C31.3,111.7,31.3,112.5,31.9,112.5L31.9,112.5z"/>
		</g>
	</g>
	<g>
		<g>
			<path class="st29" d="M129.8,108.2c-17.9,0.6-35.8,2.1-53.7,2c-0.5,0-0.5,0.7,0,0.7c17.9,0.1,35.8-1.4,53.7-2
				C130.3,109,130.3,108.2,129.8,108.2L129.8,108.2z"/>
		</g>
	</g>
	<g>
		<g>
			<path class="st29" d="M85.2,81.5c14.4-2.5,30-8.3,37-22.3c-0.1,0-0.2,0-0.3,0c0.7,2.2,1.4,4.3,2.1,6.5c0.6,2,2.6,5.6,1.1,7.4
				c-1.3,1.4-3.4,2.4-5,3.4c-1.7,1.1-3.5,2.1-5.2,3.1c-7.2,3.8-14.9,6.5-23,7.9c-0.2,0-0.1,0.4,0.1,0.3c8.8-1.6,17.2-4.7,24.9-9
				c1.9-1.1,3.8-2.2,5.6-3.5c1.2-0.7,3.1-1.7,3.6-3.1c0.3-0.6,0.1-1.4-0.1-2c-0.3-1.4-0.8-2.6-1.3-3.9c-0.7-2.4-1.6-4.9-2.4-7.3
				c-0.1-0.1-0.3-0.2-0.3,0c-7,13.9-22.4,19.5-36.8,22C84.9,81.2,85,81.6,85.2,81.5L85.2,81.5z"/>
		</g>
	</g>
	<g>
		<g>
			<path class="st29" d="M84.8,89.3c-3.7,1.5-7.6,2.2-11.7,2.2c-0.2,0-0.2,0.3,0,0.3c4,0,8.1-0.7,11.8-2.2
				C85.1,89.6,85,89.2,84.8,89.3L84.8,89.3z"/>
		</g>
	</g>
	<g>
		<g>
			<path class="st29" d="M101.5,102.2c1.9,1.4,2.4,4.1,1.2,6.1c-0.1,0.2,0.2,0.4,0.3,0.2c1.4-2.2,0.7-5.2-1.3-6.7
				C101.5,101.7,101.3,102,101.5,102.2L101.5,102.2z"/>
		</g>
	</g>
	<g>
		<g>
			<path class="st29" d="M103.5,103.9c0.5-0.7,1.7-1,2.5-0.5c0.2,0.1,0.4-0.2,0.2-0.3c-1.1-0.5-2.3-0.3-3.1,0.6
				C103,103.9,103.3,104.1,103.5,103.9L103.5,103.9z"/>
		</g>
	</g>
	<g>
		<g>
			<path class="st29" d="M104,105.8c1.1-0.1,2-0.6,2.9-1.3c0.2-0.1-0.1-0.4-0.3-0.3c-0.7,0.6-1.7,1.1-2.6,1.2
				C103.6,105.5,103.7,105.9,104,105.8L104,105.8z"/>
		</g>
	</g>
	<g>
		<g>
			<path class="st29" d="M68.9,28.9c0.6-3.3-0.6-6.7-3.9-7.9c-2.8-1-5.9,0.7-6.4,3.7c-0.2,1.1,0.1,2.5,1.1,3.2c1,0.5,2,0,2.5-1
				c1.4-2.8-2.8-4.9-5-4.8c-3,0.2-5,3.7-2.8,6c0.2,0.2,0.4-0.1,0.3-0.3c-1-1.1-1.1-2.5-0.3-3.7c0.8-1.5,2.6-1.9,4.1-1.6
				c1.4,0.3,3.1,1.3,3.4,2.8c0.3,1.4-1.3,3.7-2.8,1.5c-0.4-0.6-0.4-1.7-0.2-2.4c0.7-2.9,3.8-4.1,6.4-2.9c2.8,1.4,3.7,4.3,3.1,7.2
				C68.5,29,68.9,29.1,68.9,28.9L68.9,28.9z"/>
		</g>
	</g>
	<g>
		<g>
			<path class="st29" d="M73.1,28.7c0.5-1.3,1.3-3.3-0.3-4.3c-1.1-0.6-2.3,0.1-2.2,1.4c0,0.2,0.3,0.1,0.3-0.1c0.1-1.6-1-3.1-2.5-3.4
				c-0.2-0.1-0.3,0.3-0.1,0.3c1.5,0.3,2.3,1.6,2.2,3c0.1,0,0.2,0,0.3-0.1c0.4-1.3,1.1-1.5,2-0.4c0.2,0.3,0.3,0.7,0.3,1.1
				c0,0.7-0.3,1.6-0.6,2.2C72.7,28.7,73.1,28.9,73.1,28.7L73.1,28.7z"/>
		</g>
	</g>
	<g>
		<g>
			<path class="st29" d="M88,65c2.9-1.2,6.1-2.6,7.2-5.8c0.1-0.2-0.3-0.3-0.3-0.1c-1.1,3.1-4.1,4.5-6.9,5.5
				C87.7,64.7,87.8,65.1,88,65L88,65z"/>
		</g>
	</g>
	<g>
		<g>
			<path class="st29" d="M92.7,59.5c0.8-0.1,1.7-0.4,2.6-0.3s1.8,1,2.2,1.7c1,1.5,1,3.4,1,5.1c0,0.2,0.3,0.2,0.3,0
				c0-1.9,0-4-1.3-5.6c-0.5-0.6-1.2-1.2-1.9-1.4c-1.1-0.3-2,0.1-3.1,0.1C92.4,59.1,92.4,59.5,92.7,59.5L92.7,59.5z"/>
		</g>
	</g>
	<g>
		<g>
			<path class="st29" d="M119.9,63.6c1.2-0.3,2.3,5,2.5,5.7c0.3,1.9,0.4,3.8,0.2,5.8c0,0.2,0.3,0.2,0.3,0c0.2-2.6,0-5.4-0.7-7.9
				c-0.3-1-1.1-4.3-2.4-3.9C119.6,63.3,119.7,63.7,119.9,63.6L119.9,63.6z"/>
		</g>
	</g>
	<g>
		<g>
			<path class="st29" d="M116,68.3c2.1-1.3,2.9,3.5,3,4.5c0.2,1.5,0.3,2.9,0.2,4.3c0,0.2,0.3,0.2,0.3,0c0.1-1.6-0.1-11.3-3.7-9.2
				C115.7,68.1,115.8,68.4,116,68.3L116,68.3z"/>
		</g>
	</g>
	<g>
		<g>
			<path class="st29" d="M111.4,72.2c2.4-1.3,2.4,6.9,2.4,8.1c0,0.2,0.3,0.2,0.3,0c0-1.4,0.3-10.2-3-8.4
				C110.9,72,111.1,72.3,111.4,72.2L111.4,72.2z"/>
		</g>
	</g>
	<g>
		<g>
			<path class="st29" d="M106.4,75.1c1.1,0,1.7,2.8,1.9,3.5c0.3,1.2,0.4,2.4,0.5,3.7c0,0.2,0.4,0.2,0.3,0c-0.1-1.8-0.3-3.5-1-5.2
				c-0.3-0.8-0.7-2.4-1.9-2.4C106.2,74.8,106.2,75.1,106.4,75.1L106.4,75.1z"/>
		</g>
	</g>
	<g>
		<g>
			<path class="st29" d="M101.5,77.2c0.3,2.6,1,5.3,1.7,7.9c0.1,0.2,0.4,0.2,0.3-0.1c0-0.1,0-0.3-0.1-0.4c0-0.2-0.4-0.2-0.3,0
				c0,0.1,0,0.3,0.1,0.4c0.1,0,0.2,0,0.3-0.1c-0.7-2.6-1.4-5.2-1.7-7.9C101.8,76.9,101.4,77,101.5,77.2L101.5,77.2z"/>
		</g>
	</g>
	<g>
		<g>
			<path class="st29" d="M93,79.7c0.3,2.5,0.7,5,1.6,7.4c0.1,0.2,0.4,0.1,0.3-0.1c-0.8-2.4-1.4-4.8-1.6-7.3
				C93.3,79.5,93,79.5,93,79.7z"/>
		</g>
	</g>
	<g>
		<g>
			<path class="st29" d="M80.9,86.9c0.3,1.2,0.6,2.3,1.2,3.5c0.1,0.2,0.4,0,0.3-0.2c-0.5-1.1-0.8-2.2-1.1-3.4
				C81.2,86.6,80.8,86.6,80.9,86.9L80.9,86.9z"/>
		</g>
	</g>
	<g>
		<g>
			<path class="st29" d="M74.7,88.1c0,1.3,0.2,2.4,0.6,3.6c0.1,0.2,0.4,0.1,0.3-0.1c-0.4-1.2-0.6-2.3-0.6-3.5
				C75.1,87.9,74.7,87.9,74.7,88.1L74.7,88.1z"/>
		</g>
	</g>
	<g>
		<g>
			<path class="st29" d="M90.8,82.4c11.9-3.3,24.1-8.3,31.2-19c0.1-0.2-0.2-0.4-0.3-0.2c-7,10.6-19.2,15.5-30.9,18.8
				C90.5,82.1,90.6,82.4,90.8,82.4L90.8,82.4z"/>
		</g>
	</g>
	<g>
		<g>
			<path class="st29" d="M102.7,102.2c1.3,1.3,1.8,3,1.6,4.8c0,0.2,0.3,0.3,0.3,0.1c0.3-1.9-0.3-3.7-1.6-5.1
				C102.8,101.8,102.6,102,102.7,102.2L102.7,102.2z"/>
		</g>
	</g>
	<g>
		<g>
			<path class="st29" d="M121.6,59.1c0.2-0.1,0.4,0.1,0.4,0.3c-0.1,0.2,0.3,0.3,0.3,0.1c0.2-0.5-0.4-1.1-1-0.7
				C121.2,58.9,121.4,59.1,121.6,59.1L121.6,59.1z"/>
		</g>
	</g>
	<g>
		<g>
			<path class="st29" d="M50.6,74.8c-0.1,0-0.2,0.1-0.3,0.1c0,0.1,0.1,0.2,0.1,0.3c1.2-1.2,3.1-1.2,4.3-0.1c0.2,0.1,0.4-0.1,0.3-0.3
				c-1.4-1.2-3.5-1.2-4.9,0.1c-0.1,0.1,0,0.3,0.1,0.3c0.3,0,0.2,0,0.4-0.1C51.1,75,50.8,74.5,50.6,74.8L50.6,74.8z"/>
		</g>
	</g>
	<g>
		<g>
			<path class="st29" d="M96.9,57.8c1,0.2,1.6,0.8,1.9,1.8c0.1,0.2,0.4,0.1,0.3-0.1c-0.3-1.1-1.2-1.8-2.2-2
				C96.8,57.4,96.7,57.8,96.9,57.8L96.9,57.8z"/>
		</g>
	</g>
	<g>
		<g>
			<path class="st29" d="M74.3,105.2c7,1.6,13.9-3.7,13.7-10.9c-0.1-3.3-1.8-6.7-5-7.9c-3.5-1.4-7.1,0.8-9.9,2.9
				c-0.2,0.1,0,0.5,0.2,0.3c2.5-1.9,5.8-3.9,9-3c3.5,1.1,5.3,4.8,5.2,8.3c-0.2,6.8-6.7,11.6-13.2,10.1
				C74.2,104.7,74.1,105.1,74.3,105.2L74.3,105.2z"/>
		</g>
	</g>
</g>
</svg>
