<?xml version="1.0" encoding="utf-8"?>
<!-- Generator: Adobe Illustrator 24.0.1, SVG Export Plug-In . SVG Version: 6.00 Build 0)  -->
<svg version="1.1" id="Layer_1" xmlns="http://www.w3.org/2000/svg" xmlns:xlink="http://www.w3.org/1999/xlink" x="0px" y="0px"
	 viewBox="0 0 141.7 141.7" style="enable-background:new 0 0 141.7 141.7;" xml:space="preserve">
<style type="text/css">
	.st0{fill:#DBB075;}
	.st1{fill:#A6835A;}
	.st2{fill:#71583F;}
	.st3{fill:#735A41;}
	.st4{fill:#75CEEB;}
	.st5{fill:#FFFFFF;}
	.st6{fill:#C9B09D;}
	.st7{fill:#475588;}
	.st8{fill:#1C2538;}
	.st9{fill:url(#SVGID_1_);}
	.st10{fill:url(#SVGID_2_);}
	.st11{fill:url(#SVGID_3_);}
	.st12{fill:#F6E37D;}
	.st13{fill:#010101;}
	.st14{font-family:'MyriadPro-Regular';}
	.st15{font-size:13.4409px;}
	.st16{font-size:13.4408px;}
	.st17{font-size:5.4538px;}
	.st18{font-size:7.5587px;}
	.st19{font-size:7.5588px;}
	.st20{fill:#070707;}
	.st21{fill:none;stroke:#070707;stroke-width:0.4106;stroke-miterlimit:10;}
</style>
<path class="st0" d="M31,26.6c-1.9-1.7-3.3-3.3-4.3-4.5c-0.5-0.7-4.1-5-3.2-6.2c0.1-0.1,0.4-0.4,0.8-0.7c0.4-0.3,0.8-0.5,1.1-0.6
	c1.3-0.8,3.3-2,5.8-3.2c4.9-2.3,9.1-3.2,12.9-4c1.7-0.4,4.2-0.9,8.6-1.5c5.2-0.7,11-1.5,18.1-1.4c5,0,10.2,0.7,21.3,2.3
	c0,0,24.1,5.6,26.4,9.8c0,0,0.8,2.2-1.8,5l-5.1,5.4c0,0-13.1-8-35.6-7.7l-16.6,0.1l-3.1,0.3l-2.4,0.7l-3.6,0.4l-6.2,1l-6.7,2
	L31,26.6z"/>
<path class="st1" d="M15.9,32c0,0,4.1-7,9.4-11.7l3.7,4.5l1.9,1.8l1,0.7l2.2,0.1l1.7-0.1l1,0.2l0.3,0.8l-0.8,0.2h-2.8L31,29.1
	l-2.5,0.7l-3.6,1.6l-4.2,2.7l-5.2,4.2l1.4-2.4l2.2-3l1.2-2.4l0.2-1.3h-1L15.9,32z"/>
<path class="st1" d="M105.5,28.1l3.2,0l2.4-1l1.8-1.5l1.8-2l2.7-2.5l1.8,2.5l3,4.5c0.4,0.6,0.7,1.2,1.1,1.9c-0.5-0.2-1-0.4-1.6-0.7
	c-0.1,0.1-0.2,0.3-0.2,0.4c0.1,0.4,0.3,0.9,0.4,1.3c1,2,2,4,3,6v1.1l-3.2-3.1c-1.4-0.9-2.8-1.8-4.3-2.8c-1.2-0.5-2.4-1-3.5-1.5
	l-3.8-1.2l-3.3-0.8L105.5,28.1z"/>
<polygon class="st2" points="105.5,28.1 105.3,26.9 106.8,24.8 108.7,25.4 111.5,26.9 110.4,27.5 108.7,28.1 "/>
<polygon class="st3" points="31,26.6 34.2,24.9 35.6,24.4 37,26.1 36.9,27.6 35,27.3 32.9,27.6 "/>
<path class="st0" d="M11,81.3c0,0,1.1,8.8,3.8,13.3l4.6,7l5.5,5.7l6.2,4.8l5,4L38,118l0.4,1.5l5.2-2.7l3.2-1.9l-11.1-7.2l-5.4-4.9
	l-3.8-4.5l-2.6-3.7l-2.2-3.6l-1.8-3.7l-1.2-4.4l-0.1-3.4c0,0-4.4,5.9-3.9,6.9L11,81.3z"/>
<polygon class="st0" points="123,78.9 122.4,82.8 121.4,86.8 118.1,93.9 114.2,99.4 110.2,103.7 105,108.1 101.8,110.3 98.1,112.7 
	96.3,113.8 95.7,114.8 96.3,115.9 101.8,118.9 102.3,119.1 102.8,118 104.6,116.3 107.9,113.8 112.1,110.9 115.5,108.2 119.3,104.7 
	123,100.4 126.1,95.3 128.7,90.2 130.3,85.4 130.7,80.3 129.1,83.7 126.7,86.6 124.6,81.4 "/>
<polygon class="st2" points="105.5,115.6 103.6,117 102.5,118.6 102.2,119.6 103.6,120.3 105.7,119.8 107.9,118.9 109.2,118.6 
	108.7,117.7 107.4,116.4 "/>
<polygon class="st2" points="31.8,118.7 33.2,117.7 35.3,115.7 36.5,116.4 38.2,118.7 38.4,119.5 37.3,120.1 36.4,120.3 34.3,119.5 
	"/>
<path class="st1" d="M41.9,118l5,3.6l8.3,3.8l4.5,1.3l6,1c0,0,12.5,1.8,22.6-2.9l8.5-4.5l3.4-2.3l1.9,1l0.4,0.7l0.7,0.6l1.3,0.1
	l2.2-0.8l1.5-0.7l1.3-0.3l0.5,1l-0.5,0.7l-1.3,1.8c0,0-6,9.1-19.6,13c0,0-11.3,2.7-14.9,2.1c0,0-15.3,0.1-25.6-5l-8.5-4.9l-5-4
	l-1.8-2.4l-1.3-1.7l1.2-0.5l3,1.2l2.1,0.3L41.9,118z"/>
<path class="st4" d="M53.8,103.3l0.1-3.8l-0.8-4L52,92.1L50.7,89l-1-3.6l-0.8-0.2l-3,0.2l-2-1l-1.2-1.6l-0.4-1.7l0.4-2.3l0.5-1.1
	l1.1-1.4l1.4-1l1.7-0.8l1.7-0.2l0.7,0.2l1-2.5l4.3-2.7l7.1-4.4l5.6-3.8l5.6-4h3.3l3,0.2l1.9-2.1l2.3-1.4l2.7-0.3l2.3,1.2l1.7,2.5
	l0.3,1.6l-0.3,1.8l-1.5,2l1.8,2.1l2.5,3.3L96,73l2.2,5.4l1.5,5.2l1.1,5.5l0.8,8.4l-2.5,2.8l-3.8-3.2L95,96.9l-1.1,2.1
	c0,0-2.6,2.5-2.8,2.7c-0.2,0.1-0.9,0.7-0.9,0.7l-2.9,1.6l-4.5,1.8l-4.7,1.8L75,109l-2,1.6l-1.4,1.8l-0.9,2.8l-0.7-3.2l-1.6-2.1
	l-1.7-1.4l-2.3-1.1l-2.7-0.5l-2.3-0.4l-2-0.8l-2.2-1.3L53.8,103.3z"/>
<circle class="st5" cx="59.7" cy="76.3" r="7.3"/>
<circle class="st5" cx="75.6" cy="67.1" r="7.3"/>
<path class="st5" d="M71,83.6c0,0.5,0.2,1.4,0.7,2.2c0.3,0.5,1,1.4,2,1.4c0.1,0,0.9,0,1.3-0.7c0.4-0.6,0.1-1.3,0.1-1.4
	c0.1,0.1,0.6,0.6,1.4,0.5c0.6-0.1,1-0.4,1.2-0.7c0.6-0.8,0.1-2.6-1.4-4.3c-0.9,0.1-2.5,0.5-3.9,1.7C71.7,82.8,71.3,83.2,71,83.6z"/>
<polygon class="st6" points="68.7,78.9 67.7,80.2 67.1,81.6 67,82.8 67.4,83.9 68.3,84.4 69.2,84.4 70.7,83.9 71.4,83.2 72.5,82.2 
	73.5,81.4 74.9,81.1 75.9,80.8 77,80.2 77.8,79.6 78.1,78.6 77.8,77.3 77.1,76.7 75.9,76.5 74.4,76.4 73,76.7 72,78.1 70.6,78.9 
	69,79.2 "/>
<path class="st6" d="M69.9,101.1l0.7-0.2l1.3-0.8l1.7,0.1l1.9,0.7l0.9,1.2l0.1,0.7l-0.1,0.5l-0.5,0.6l-0.9,0.3l-1,0.1h-1l-1-0.4
	l-0.6-0.1C71.4,103.8,67.9,102.1,69.9,101.1z"/>
<path class="st6" d="M79.8,96.5l-1,0.5l-1,0.6l-0.7,1.3l-0.6,1.2l-0.1,1.5l0.7,0.7l0.7,0l0.4,0.5h0.9l0.7-0.6l0.7-0.8l0.4-1.3
	l0.3-1.1c0,0,0.4-1-0.2-1.7C80.6,96.6,79.9,96.5,79.8,96.5z"/>
<path class="st7" d="M31,86.3l4.6-2.2l3.4-2.3l3.2-2.9l1.4-1.7l2.2-2l2.7-1.8l3.3-2l7.7-4.6l4.8-3.1l6.8-4.7l3.4-2.8l3.4-2.8
	l4.2-2.7l3.9-2.1l6.8-3.5l1.1-0.9l-1.3-0.2L90,44.1l-2.4,0.4l-2.8,0.5L82,45.7l-2.4-0.3c0,0-1.5-0.1-2-0.1c-0.5-0.1-2-0.2-2-0.2
	l-0.8-1l-1.4,0l-2-0.5l-0.8,0.1l-1.3-1.3l-2.2-1l-3.7-1.1l-3.1-1.8l-3.7-2.6l-3.3-2.5l-1.8-2L50,30.6l-1.7,0.2l-1.4,1.1l-1.1,1.5
	l-1.6,2.4l-2.1,2.6L40,40.2l-1.7,0.9L40,41l2.9,1.1l2.7,3l1.8,3.7l1.4,6.2l-0.2,7l-1.5,5.5L45,72.2l-2.8,4.1l-1.6,1.9l-2.3,2.3
	L36,82.3l-2.5,2L31,86.3z"/>
<polygon class="st8" points="50.3,72.2 47,74.4 49.7,74.7 "/>
<polygon class="st8" points="30.4,86.3 33.5,85.5 36.3,83.9 42.6,78.9 42.2,81.2 42.9,83.2 43.4,84 42.3,84.4 40.3,85.5 38.3,86.2 
	34.3,87.3 31.5,87.7 "/>
<path class="st8" d="M73.3,57.3l2.4-2.2l3-2.3l3.3-2.1l3.9-2.1l4.2-2.1l3.7-1.9l-1.6,1.8l-1.3,2.1l-1.3,1.8l-1.9,1.3l-1.9,1.1
	l-1.4,1l-1.5,0.9l-1.8,1.2l-1.5,1.7c0,0-2.4,0-2.5,0C77,57.5,73.3,57.3,73.3,57.3z"/>
<linearGradient id="SVGID_1_" gradientUnits="userSpaceOnUse" x1="34.2795" y1="91.5701" x2="53.9229" y2="91.5701">
	<stop  offset="0" style="stop-color:#FFD190"/>
	<stop  offset="9.363312e-02" style="stop-color:#F7C882"/>
	<stop  offset="0.3903" style="stop-color:#E9B15B"/>
	<stop  offset="0.651" style="stop-color:#E0A13C"/>
	<stop  offset="0.8631" style="stop-color:#DB982C"/>
	<stop  offset="1" style="stop-color:#D99528"/>
</linearGradient>
<polygon class="st9" points="34.3,87.6 42.1,96.9 44.4,95.6 46.7,95.4 49,96 51,97.2 53.9,99.5 53.4,96.9 52.2,92.7 50.5,88.1 
	49.6,85.2 48.9,85.2 47.4,85.5 45.9,85.5 44.4,84.5 43.2,83.7 41.8,84.8 39.1,85.9 36,87 "/>
<linearGradient id="SVGID_2_" gradientUnits="userSpaceOnUse" x1="74.8511" y1="51.2636" x2="98.6823" y2="51.2636">
	<stop  offset="0.3533" style="stop-color:#DD9C31"/>
	<stop  offset="0.4161" style="stop-color:#E3A542"/>
	<stop  offset="0.527" style="stop-color:#ECB45F"/>
	<stop  offset="0.6404" style="stop-color:#F3C075"/>
	<stop  offset="0.7557" style="stop-color:#F8C984"/>
	<stop  offset="0.874" style="stop-color:#FDCF8D"/>
	<stop  offset="1" style="stop-color:#FFD190"/>
</linearGradient>
<path class="st10" d="M74.9,44.1l1.6-1.3l1.8-0.4l2.7-0.6l2.6-1l2.2-1.8l2.3-2.1l1.5-1.6l1.4-1.1H92l1.6,1.3l2,2.5l1.5,1.7l1.6,1.8
	l-1.5,0.8l-1.9,2l-1.3,2.4c0,0-1.3,3.1-1.3,3.4s-0.8,3.5-0.8,3.5l0,5.6l0.8,4.7l1,4.3l-1.9-2.1l-2.6-3l0.6-1l0.9-1.8l0.3-1.5
	l-0.3-1.6l-1.2-2.1L87.5,54l-1.6-0.3l-2.4,0.5l1.8-1.4l2.4-1.5l1.8-1.5l1.6-1.9c0,0,1.1-1.8,1.2-1.9c0.1-0.2,1.5-1.8,1.5-1.8
	l-1.5-0.2L90,44.1l-2,0.3L86,44.9l-1.8,0.6l-2.5,0.3l-2.7-0.3l-2-0.3l-1.4-0.2L74.9,44.1z"/>
<linearGradient id="SVGID_3_" gradientUnits="userSpaceOnUse" x1="98.2571" y1="86.2442" x2="108.5627" y2="86.2442">
	<stop  offset="0" style="stop-color:#DD9C31"/>
	<stop  offset="9.711999e-02" style="stop-color:#E3A542"/>
	<stop  offset="0.2687" style="stop-color:#ECB45F"/>
	<stop  offset="0.444" style="stop-color:#F3C075"/>
	<stop  offset="0.6222" style="stop-color:#F8C984"/>
	<stop  offset="0.8052" style="stop-color:#FDCF8D"/>
	<stop  offset="1" style="stop-color:#FFD190"/>
</linearGradient>
<path class="st11" d="M101.7,95c0.2-0.3,6.8-7.8,6.8-7.8l-0.7-0.9l-9.6-8.8l0.7,3.3l1.3,5c0,0,0.6,3.9,0.6,4
	C100.9,89.9,101.7,95,101.7,95z"/>
<path class="st1" d="M31.5,87.7l2.8-0.4l7.8,9.5l2.3-1.2l2.8-0.1l3,1.2l2.1,1.5l1.4,0.8l0.1,2.5l-0.1,1.7l-1.6-1.8l-3-2.4l-2.7-1.4
	l-1.6,0L43.7,98l-1,0.7l-0.8,0.7l-0.1,0.2c0,0-3.4-4.6-3.5-4.3C38.2,95.5,31.5,87.7,31.5,87.7z"/>
<path class="st1" d="M101.5,94.8l0.2,2.8l2.1-2.4l2.5-2.8l3.3-3.7l2.3-2.4l-2.3-1.3l-5.1-3.8l-2.8-2.8l-4.1-5.4L95.5,68l-1.6-5.8
	l-0.2-5l0.5-3.8l1.7-5.2l1.8-2.9l2.1-2l2.3-1l1.9-0.1l-3.4-2.5L97,35.9l-2.2-2.7L93,31.4L91.7,31l-0.9,0.1L89.1,33l-2.3,2l-2.7,2.1
	l-2.9,1.7l-2.3,1l-2.3,0.6l-1.8,0.5l-1,0.8l-0.9,1l-1.2,1.1l1.2,0.2l2,0.3l0.8-1.2c0,0,1.7-0.6,1.8-0.6c0.1-0.1,2.1-0.4,2.1-0.4
	l2-0.6l2.3-1.4l2.8-1.8l1.7-2l1.7-1.5l1-0.7l1.2,0.4l1.3,1.3c0,0,2,2.7,2,2.8c0,0.1,3.2,2.9,3.2,2.9l-1.7,0.9l-2.1,2.3
	c0,0-1.2,2.3-1.3,2.4s-0.9,2.5-0.9,2.5s-0.8,2.8-0.8,2.9c0,0.1-0.5,5.4-0.5,5.4l0.6,5l1.4,5.7l1.5,2.8l1.4,2.8l1.3,2.5l1.9,2.3
	l9.3,8.2l-3.2,3.1L101.5,94.8z"/>
<polygon class="st12" points="47.8,39.3 46.9,35.5 50.3,37.5 53.2,35.9 52.2,38.5 55.5,39.6 54.4,40.3 52,41 51.1,42.6 50.6,44.9 
	49,41.3 47.8,41 45.8,41 "/>
<path class="st12" d="M55.5,56.9c0-0.1,0-1.5,0-1.5l1.2,0.7l1.3-1.7l0.2,1.9l2,0.7l0.1,0.5L57.9,58l0,2.2L56.7,59L56,58.6l-1,0.3
	L54.1,59L55.5,56.9z"/>
<polygon class="st12" points="58,46.1 59.5,44.9 60.2,44.7 60.2,43 61.1,43.8 62.6,43.4 62.5,44.5 64,45.2 64,45.7 62.7,45.8 
	61.5,46.2 61,47.7 60.5,46.8 59.8,46.2 58.8,46.3 "/>
<text transform="matrix(0.8755 -0.4833 0.4833 0.8755 31.0341 24.7834)" class="st13 st14 st15">G</text>
<text transform="matrix(0.9731 -0.2305 0.2305 0.9731 38.3164 20.1783)" class="st13 st14 st16">O</text>
<text transform="matrix(0.9916 -0.1293 0.1293 0.9916 47.7529 18.152)" class="st13 st14 st16">L</text>
<text transform="matrix(0.9982 -5.936977e-02 5.936977e-02 0.9982 54.9688 16.8233)" class="st13 st14 st15">A</text>
<text transform="matrix(1 0 0 1 63.9888 16.4409)" class="st13 st14 st16">N</text>
<text transform="matrix(0.9986 5.294986e-02 -5.294986e-02 0.9986 73.5682 16.2159)" class="st13 st14 st15">G</text>
<text transform="matrix(0.9219 0.3874 -0.3874 0.9219 102.9712 20.8214)" class="st13 st14 st16">K</text>
<text transform="matrix(0.9787 0.2052 -0.2052 0.9787 87.0612 17.1961)" class="st13 st14 st16">N</text>
<text transform="matrix(0.9639 0.2663 -0.2663 0.9639 95.9764 19.1477)" class="st13 st14 st16">S</text>
<text transform="matrix(0.7086 0.6771 -0.6909 0.723 28.3097 107.8943)" class="st13 st14 st17">W</text>
<text transform="matrix(0.7838 0.5884 -0.6003 0.7997 32.7146 111.4797)" class="st13 st14 st17">I</text>
<text transform="matrix(0.7294 0.6546 -0.6679 0.7443 34.0694 112.3898)" class="st13 st14 st17">T</text>
<text transform="matrix(0.7498 0.6312 -0.644 0.765 36.7993 114.7751)" class="st13 st14 st17">H</text>
<text transform="matrix(0.7639 -0.614 0.6265 0.7795 101.693 116.4299)" class="st13 st14 st17">G</text>
<text transform="matrix(0.7741 -0.6011 0.6133 0.7898 104.8802 114.1817)" class="st13 st14 st17">O</text>
<text transform="matrix(0.7429 -0.6392 0.6522 0.758 108.5615 111.8856)" class="st13 st14 st17">PH</text>
<text transform="matrix(0.764 -0.6139 0.6264 0.7795 113.8555 107.6253)" class="st13 st14 st17">E</text>
<text transform="matrix(0.7003 -0.6856 0.6996 0.7146 116.187 105.425)" class="st13 st14 st17">R </text>
<text transform="matrix(0.6122 -0.7653 0.7809 0.6246 118.687 102.7382)" class="st13 st14 st17">S</text>
<text transform="matrix(0.8061 0.5575 -0.5688 0.8225 37.0091 123.6239)" class="st13 st14 st18">L</text>
<text transform="matrix(0.8662 0.4585 -0.4678 0.8838 39.9949 125.9765)" class="st13 st14 st18">O</text>
<text transform="matrix(0.8636 0.4633 -0.4727 0.8812 44.4177 128.4508)" class="st13 st14 st19">V</text>
<text transform="matrix(0.896 0.3971 -0.4052 0.9142 48.7618 130.8284)" class="st13 st14 st19">E</text>
<text transform="matrix(0.9571 0.2111 -0.2154 0.9765 54.6145 133.0425)" class="st13 st14 st19">F</text>
<text transform="matrix(0.9686 0.1495 -0.1526 0.9883 58.7127 134.0125)" class="st13 st14 st18">R</text>
<text transform="matrix(0.9767 8.092316e-02 -8.256960e-02 0.9966 63.3324 134.6478)" class="st13 st14 st19">O</text>
<text transform="matrix(0.9801 0 0 1 68.6519 135.1279)" class="st13 st14 st19">M</text>
<text transform="matrix(0.9599 -0.1976 0.2017 0.9795 77.0893 135.45)" class="st13 st14 st18">S</text>
<text transform="matrix(0.9552 -0.2195 0.224 0.9746 80.924 135.0032)" class="st13 st14 st19">I</text>
<text transform="matrix(0.9507 -0.2382 0.243 0.97 82.9049 134.6421)" class="st13 st14 st19">B</text>
<text transform="matrix(0.9472 -0.2517 0.2569 0.9665 86.8147 133.5212)" class="st13 st14 st19">E</text>
<text transform="matrix(0.9248 -0.3244 0.331 0.9436 90.5077 132.1383)" class="st13 st14 st19">R</text>
<text transform="matrix(0.9167 -0.3466 0.3537 0.9354 94.3638 130.5959)" class="st13 st14 st19">I</text>
<text transform="matrix(0.8002 -0.5659 0.5774 0.8165 96.4009 129.7442)" class="st13 st14 st18">AN</text>
<g>
	<g>
		<path class="st20" d="M23.2,15.2c-0.5,0.3-0.5,0.9-0.3,1.5c0.3,0.8,0.7,1.6,1.1,2.4c1,1.7,2.2,3.2,3.5,4.7
			c0.6,0.7,1.3,1.4,1.9,2.1c0.6,0.6,1.2,1.3,2.1,1.6c0.8,0.3,1.6,0.3,2.4,0.2c0.5,0,0.9-0.1,1.4-0.1c0.3,0,0.6,0,1,0.1
			c0.1,0,0.3,0.1,0.4,0.1c0.2,0.1,0.3,0.3,0.2,0.5c-0.5,0.1-0.4,0.6,0.1,0.5c0.5-0.1,0.9-0.6,0.6-1.1c-0.3-0.6-1.4-0.6-2-0.6
			c-1,0-1.9,0.2-2.9,0.1c-1.2-0.1-1.9-0.9-2.7-1.8c-1.3-1.4-2.6-2.9-3.8-4.5c-0.6-0.8-1.1-1.7-1.6-2.5c-0.2-0.4-1.4-2.4-0.8-2.8
			C24.2,15.2,23.5,15,23.2,15.2L23.2,15.2z"/>
	</g>
</g>
<g>
	<g>
		<path class="st20" d="M31.1,26.6c5.4-3,11.3-4.5,17.4-5.5c1.4-0.2,2.9-0.4,4.3-0.6c1.2-0.2,2.4-0.6,3.6-0.9
			c1.4-0.3,2.9-0.2,4.4-0.2c1.4,0,2.8,0,4.2,0c10.8-0.1,21.8-0.3,32.4,2.3c3,0.7,5.9,1.7,8.7,2.9c1.3,0.6,3,1.1,4.2,2
			c0.2,0.1,0.5,0.2,0.5,0.5c0,0.5-1.9,0.8-2.5,0.8c-0.9,0.1-1.8,0.1-2.7,0c-0.2,0-0.9,0.3-0.5,0.3c2.3,0.1,4.6,0,6.6-1.4
			c0,0,0.1-0.1,0.1-0.1c-9.7-5.5-20.7-7.2-31.7-7.6c-5.5-0.2-11-0.1-16.5,0c-2.4,0-4.9-0.3-7.2,0.3c-1.5,0.3-2.8,0.8-4.3,1
			c-1.4,0.2-2.7,0.4-4,0.6c-6.1,1-12.1,2.6-17.5,5.6C30.2,26.8,31,26.7,31.1,26.6L31.1,26.6z"/>
	</g>
</g>
<g>
	<g>
		<path class="st20" d="M23.8,15.8c5.6-4.4,12.3-6.7,19.2-8.1C46,7,49.2,6.5,52.3,6c1.8-0.3,3.5-0.6,5.3-0.8c2-0.2,4-0.2,5.9-0.3
			c4.1-0.2,8-0.4,12.1-0.1C79.4,5,83.3,5.4,87.1,6c3.7,0.6,7.4,1.4,11,2.4c3.9,1,7.5,2.4,11.3,3.8c2,0.7,4,1.4,5.9,2.3
			c0.7,0.3,1.4,0.8,2,1.3c1,1,1.1,1.8,0.5,3c-1.5,3.2-4.4,5.5-6.6,8.1c-0.2,0.2,0.6,0.1,0.7-0.1c2-2.4,4.6-4.4,6.1-7.2
			c0.8-1.4,1.4-2.5,0.3-3.8c-1.2-1.5-3.3-2.1-5-2.7c-3.8-1.5-7.6-3.1-11.4-4.2c-3.9-1.1-7.8-2-11.7-2.8c-8-1.5-16.2-2.1-24.3-1.7
			c-4,0.2-7.8,0.4-11.8,1C50.5,6,47,6.6,43.5,7.3C36.2,8.9,29,11.2,23,15.9C22.9,16,23.6,16,23.8,15.8L23.8,15.8z"/>
	</g>
</g>
<g>
	<g>
		<path class="st20" d="M24.9,20.2c-4.7,4.9-9.6,10.2-11.6,16.9c-0.1,0.3,0.7,0.2,0.8-0.1c2-6.7,6.9-11.9,11.6-16.8
			C25.8,20,25,20,24.9,20.2L24.9,20.2z"/>
	</g>
</g>
<g>
	<g>
		<path class="st20" d="M16,32.8c1.1-1.6,2.7-3,4.5-3.8c-0.2,0-0.4,0-0.6,0.1c0.6,0.9-0.3,2-0.7,2.8c-0.6,1-1.2,1.9-1.8,2.9
			c-1.2,1.8-2.5,3.6-3.9,5.2c-0.2,0.2,0.6,0.1,0.7,0c1.5-1.8,2.9-3.8,4.3-5.7c0.6-0.9,1.2-1.9,1.8-2.8c0.5-0.8,1.1-1.7,0.5-2.6
			c-0.1-0.1-0.5,0-0.6,0.1c-1.9,0.9-3.5,2.3-4.7,4C15.1,33,15.9,32.9,16,32.8L16,32.8z"/>
	</g>
</g>
<g>
	<g>
		<path class="st20" d="M15.5,38.4c3.3-2.8,6.6-5.6,10.4-7.5c2.1-1,4.3-1.7,6.6-2c1.5-0.1,3.1,0.1,4.6-0.5c0.5-0.2-0.3-0.2-0.5-0.1
			c-1,0.5-2.4,0.2-3.6,0.3c-0.9,0.1-1.8,0.2-2.6,0.4c-1.9,0.4-3.8,1.1-5.5,2c-3.8,1.9-7,4.7-10.2,7.4C14.6,38.6,15.3,38.6,15.5,38.4
			L15.5,38.4z"/>
	</g>
</g>
<g>
	<g>
		<path class="st20" d="M37.5,28.3c0.7-1.6-0.7-3.1-1.7-4.1c-0.2-0.2-0.9,0.1-0.7,0.3c1,1,2.3,2.4,1.7,4c-0.1,0.1,0.3,0.1,0.3,0.1
			C37.2,28.5,37.4,28.5,37.5,28.3L37.5,28.3z"/>
	</g>
</g>
<g>
	<g>
		<path class="st20" d="M116.9,21.2c3.6,4.8,6.7,10,9.7,15.2c0.1,0.2,0.9-0.1,0.8-0.2c-3-5.2-6-10.4-9.7-15.2
			C117.5,20.8,116.8,21.1,116.9,21.2L116.9,21.2z"/>
	</g>
</g>
<g>
	<g>
		<path class="st20" d="M106.3,24.8c-0.4,0.3-0.6,0.7-0.9,1.1c-0.3,0.4-0.8,0.9-0.9,1.5c-0.1,0.7,0.5,1.2,1.2,1.4
			c1,0.4,2.2,0.5,3.2,0.7c1.3,0.3,2.6,0.7,3.8,1.2c4.9,1.7,9.3,4.3,12.4,8.5c0.1,0.2,0.9-0.1,0.7-0.3c-2.8-3.8-6.7-6.3-11-8
			c-2.2-0.9-4.5-1.5-6.9-2.1c-0.8-0.2-2.1-0.2-2.6-1c-0.4-0.8,1-2.5,1.6-3C107.2,24.6,106.5,24.7,106.3,24.8L106.3,24.8z"/>
	</g>
</g>
<g>
	<g>
		<path class="st20" d="M123.6,29.8c-0.6-0.4-2.1-1.3-2.7-0.4c-0.2,0.4,0,0.8,0.2,1.1c0.4,0.7,0.8,1.4,1.1,2.1
			c1.4,2.7,2.6,5.4,3.8,8.1c0.1,0.3,0.9,0.1,0.8-0.2c-0.9-2.2-1.9-4.4-3-6.5c-0.5-1-1-2-1.5-3c-0.1-0.2-0.8-1.3-0.7-1.5
			c0.2-0.2,1.2,0.5,1.4,0.6C123.3,30.4,124,30.1,123.6,29.8L123.6,29.8z"/>
	</g>
</g>
<g>
	<g>
		<path class="st20" d="M40.2,57c0.3,1.3,2.2,1.4,2.9,0.4c1.7-2-1.3-3.8-2.7-4.5c-2.3-1.2-4.7-2.9-5.4-5.5c-0.9-3.3,1.9-6.7,5.4-6.2
			c3.1,0.5,5.1,4,6.3,6.6c1.2,2.7,1.8,5.7,1.9,8.7c0.2,5.8-1.5,11.6-4.5,16.5c-3.4,5.4-8.3,9.8-13.8,12.9c-0.5,0.3,0,0.7,0.3,0.5
			c9.7-5.5,17.5-14.7,18.7-26.1c0.6-5.7-0.5-11.9-4-16.5c-1.5-1.9-3.5-3.4-6-3.2c-2.2,0.2-4.1,1.6-4.9,3.7c-0.9,2.5,0.2,4.9,2,6.6
			c1.1,1,2.4,1.8,3.7,2.5c0.8,0.4,1.7,0.8,2.2,1.6c0.2,0.3,0.4,0.8,0.4,1.2c0,1-1.5,1.6-1.7,0.4C40.9,56.5,40.1,56.7,40.2,57
			L40.2,57z"/>
	</g>
</g>
<g>
	<g>
		<path class="st20" d="M99.9,56.9c-2-1.3,1.8-2.7,2.7-3.1c1.1-0.5,2.1-1.2,3-2c1.7-1.6,2.8-4,2.3-6.3c-0.5-2-2.3-3.7-4.4-3.7
			c-2.2,0-4.2,1.4-5.6,2.9c-3.4,3.8-4.5,9.7-4.3,14.7c0.2,5.3,1.9,10.5,4.9,15c3.3,5,7.9,9,13,11.9c0.3,0.2,1-0.2,0.6-0.4
			c-8.6-4.8-15.5-12.7-17.3-22.6c-0.9-5-0.5-10.5,1.7-15.2c1.1-2.4,3-4.8,5.6-5.5c3.2-0.9,5.5,2.1,5.1,5.1c-0.5,3.3-3.3,5.2-6.2,6.3
			c-0.8,0.3-1.8,0.7-2.1,1.6c-0.3,0.7-0.1,1.4,0.5,1.8C99.5,57.5,100.2,57.1,99.9,56.9L99.9,56.9z"/>
	</g>
</g>
<g>
	<g>
		<path class="st20" d="M37.8,41.5c3.6-1.2,6-4.3,8-7.4c0.6-0.9,1.1-1.9,2-2.6c1.4-1.2,2.7-0.5,3.8,0.7c1.4,1.6,2.9,3,4.9,4.1
			c0.3,0.1,1-0.2,0.6-0.4c-1.2-0.6-2.3-1.4-3.2-2.3c-0.8-0.8-1.4-1.7-2.3-2.5c-1.4-1.2-3.2-0.9-4.5,0.3c-0.8,0.7-1.3,1.6-1.8,2.5
			c-0.6,1-1.3,2-2,2.9c-1.5,1.9-3.2,3.5-5.5,4.3C37.2,41.2,37.3,41.7,37.8,41.5L37.8,41.5z"/>
	</g>
</g>
<g>
	<g>
		<path class="st20" d="M52.2,32.8c3.4,3,7,6,11.3,7.7c1.9,0.8,4.4,1,6,2.4c0.6,0.5,1,1.2,1.8,1.2c0.5,0,1-0.2,1.3-0.7
			c0.1-0.1-0.7-0.1-0.8,0.1c-0.3,0.5-2-1.3-2.3-1.5c-0.6-0.4-1.4-0.7-2.1-0.9c-1.8-0.6-3.6-1.1-5.4-2c-3.4-1.8-6.3-4.3-9.1-6.7
			C52.8,32.3,52.1,32.6,52.2,32.8L52.2,32.8z"/>
	</g>
</g>
<g>
	<g>
		<path class="st20" d="M105.5,42.2c-3.7-1.7-6.6-4.6-9.2-7.8c-1.7-2.1-3.8-5.3-6.5-2.7c-2.9,2.8-5.9,5.5-9.6,7.2
			c-1,0.4-1.9,0.8-2.9,1.1c-0.8,0.2-1.6,0.3-2.4,0.6c-1.4,0.6-2,2.4-3.5,2.8c-0.5,0.1-0.3,0.7,0.2,0.6c1.3-0.3,1.9-1.4,2.8-2.2
			c0.8-0.7,1.8-0.8,2.8-1c0.8-0.2,1.6-0.5,2.4-0.8c3.2-1.2,6.1-3.3,8.6-5.6c0.6-0.5,1.2-1.1,1.7-1.6c0.4-0.4,0.8-0.9,1.3-1.2
			c0.9-0.4,1.6,0.1,2.2,0.6c1.4,1.2,2.4,2.9,3.6,4.3c2.3,2.6,4.9,5,8.1,6.4C105.4,42.9,106,42.4,105.5,42.2L105.5,42.2z"/>
	</g>
</g>
<g>
	<g>
		<path class="st20" d="M29.8,86.6c4,4.3,7.9,8.7,11.7,13.2c0.2,0.2,1-0.1,0.7-0.3c-3.8-4.5-7.7-8.9-11.7-13.2
			C30.3,86.1,29.5,86.4,29.8,86.6L29.8,86.6z"/>
	</g>
</g>
<g>
	<g>
		<path class="st20" d="M111.6,86.3c-4.2,4.5-8.4,9.1-12.4,13.8c-0.2,0.2,0.6,0.1,0.7,0c4.1-4.7,8.2-9.3,12.4-13.8
			C112.5,86.1,111.7,86.1,111.6,86.3L111.6,86.3z"/>
	</g>
</g>
<g>
	<g>
		<path class="st20" d="M42.3,99.8c2-3.7,6.5-1.2,8.6,0.9c2.1,2.1,3.8,4.3,6.5,5.6c2.8,1.3,6.2,0.6,8.9,2.2c2.4,1.5,4,4.3,3.9,7.1
			c0,0.4,0.8,0.3,0.8-0.1c0.1-3-1.5-5.9-4.1-7.5c-1.3-0.8-2.6-1.1-4.1-1.2c-2.3-0.2-4.4-0.5-6.3-1.8c-3.1-1.9-4.8-5.5-8.1-7.1
			c-2.4-1.1-5.5-0.7-6.8,1.8C41.3,100.1,42.1,100.1,42.3,99.8L42.3,99.8z"/>
	</g>
</g>
<g>
	<g>
		<path class="st20" d="M71.1,116.2c-0.6-6.8,8.1-8.9,12.9-10.7c4.5-1.6,9.3-4,11.4-8.6c0.2-0.4-0.6-0.4-0.8-0.1
			c-2.6,5.7-8.9,7.5-14.3,9.4c-4.5,1.6-10.5,4.4-10,10.1C70.3,116.7,71.1,116.5,71.1,116.2L71.1,116.2z"/>
	</g>
</g>
<g>
	<g>
		<path class="st20" d="M94.7,96.9c1.2,1.4,2.6,2.7,4.1,3.6c0.1,0.1,0.4,0,0.5,0c0,0,0.4-0.2,0.2-0.3c-1.6-1-3-2.2-4.1-3.6
			C95.3,96.5,94.5,96.7,94.7,96.9L94.7,96.9z"/>
	</g>
</g>
<g>
	<g>
		<path class="st20" d="M10.4,80.3c0.4,8.2,3.8,15.8,9.1,22c2.5,3,5.5,5.7,8.6,8c1.7,1.3,3.5,2.5,5.1,3.8c0.9,0.7,1.7,1.4,2.5,2.2
			c0.4,0.4,0.8,0.8,1.2,1.2c0.1,0.2,0.3,0.3,0.4,0.5c0.2,0.2,0.4,0.5,0.5,0.8c-0.2,0.3-0.4,0.7-0.6,1c-0.8,0.4-2.9-0.7-3.6-1
			c-0.7-0.2-1.5-0.6-2.2-0.4c-1.9,0.5,0.4,2.4,1,3c0.2,0.2,1-0.1,0.7-0.3c-0.3-0.4-0.7-0.7-1-1.1c-0.3-0.3-0.6-0.3-0.2-0.7
			c0.3-0.4,0.2-0.2,0.6-0.1c1.1,0.1,2.2,0.8,3.2,1.1c0.9,0.2,2.1,0.3,2.7-0.5c1-1.4-1.3-3.1-2.1-3.9c-1.4-1.3-3-2.5-4.5-3.7
			c-3.4-2.5-6.8-5-9.7-8.1c-2.7-2.8-5.1-6-6.9-9.5c-2.3-4.5-3.7-9.3-3.9-14.4C11.2,79.8,10.4,79.9,10.4,80.3L10.4,80.3z"/>
	</g>
</g>
<g>
	<g>
		<path class="st20" d="M130.2,80.3c0.1,4.6-1.3,8.9-3.5,12.9c-2.1,3.8-4.6,7.7-7.5,10.9c-3.1,3.5-6.8,6.2-10.6,8.8
			c-1.8,1.2-3.5,2.4-5.1,3.8c-0.7,0.6-2.3,1.9-1.8,3c0.6,1.4,2.8,0.7,3.8,0.3c0.7-0.3,1.4-0.7,2.2-1c0.4-0.2,1.2-0.6,1.5,0
			c0.2,0.5-0.4,1.3-0.7,1.6c-0.3,0.3,0.4,0.3,0.6,0.1c0.6-0.6,1.4-2.1,0.2-2.5c-1-0.3-2.3,0.5-3.1,0.9c-0.8,0.4-1.9,1-2.7,0.9
			c-2-0.2-0.6-2.1,0.2-2.8c1.7-1.7,3.8-3.1,5.8-4.4c3.7-2.5,7.3-5.2,10.3-8.5c2.8-3.2,5.3-6.9,7.4-10.6c2.3-4.2,3.9-8.8,3.8-13.7
			C131,79.9,130.2,80,130.2,80.3L130.2,80.3z"/>
	</g>
</g>
<g>
	<g>
		<path class="st20" d="M102.6,119c-1.7-0.7-3.4-1.5-5-2.5c-0.7-0.4-1.7-1.1-1.6-2c0.2-1,1.7-1.5,2.5-2c3.2-1.9,6.2-4,9.1-6.4
			c5.6-4.6,10.5-10.4,13.3-17.2c0.8-1.8,1.4-3.8,1.8-5.7c0.4-1.8,0.8-3.9-0.1-5.6c-0.1-0.2-0.8,0.1-0.8,0.2c0.9,1.7,0.5,3.7,0.2,5.5
			c-0.4,1.8-0.9,3.6-1.6,5.3c-1.4,3.5-3.3,6.7-5.6,9.7c-4.9,6.3-11.4,11-18.2,15c-1.3,0.8-1.6,1.7-0.3,2.8c1.6,1.4,3.8,2.3,5.8,3
			C102,119.3,102.6,119,102.6,119L102.6,119z"/>
	</g>
</g>
<g>
	<g>
		<path class="st20" d="M121.8,78.1c2.1,2.6,3.6,5.6,4.3,8.8c0,0.2,0.7,0,0.8-0.1c2-2.1,3.5-4.5,4.4-7.2c0.1-0.2-0.7-0.1-0.8,0.1
			c-0.9,2.7-2.4,5.1-4.3,7.1c0.3,0,0.5-0.1,0.8-0.1c-0.7-3.3-2.2-6.3-4.3-8.9C122.4,77.7,121.7,77.9,121.8,78.1L121.8,78.1z"/>
	</g>
</g>
<g>
	<g>
		<path class="st20" d="M105.6,115.8c1.6,0.6,2.7,2,3.7,3.4c0.2,0.2,0.9,0,0.7-0.3c-1-1.4-2.1-2.8-3.8-3.4c-0.2-0.1-0.4,0-0.6,0.1
			C105.5,115.6,105.4,115.7,105.6,115.8L105.6,115.8z"/>
	</g>
</g>
<g>
	<g>
		<path class="st20" d="M10.2,80.3c1.2,2.4,2.6,4.5,4.4,6.5c0.1,0.1,0.9-0.1,0.7-0.3c-1.7-2-3.2-4.1-4.3-6.5
			C10.9,79.9,10.2,80.1,10.2,80.3L10.2,80.3z"/>
	</g>
</g>
<g>
	<g>
		<path class="st20" d="M14.9,86.7c0.3-2.6,2-4.7,3.7-6.6c0.1-0.1,0.1-0.3-0.1-0.4c-0.2-0.1-0.4,0-0.6,0.2c-1.8,2-3.6,4.2-3.9,6.9
			C14.1,87.2,14.9,87.1,14.9,86.7L14.9,86.7z"/>
	</g>
</g>
<g>
	<g>
		<path class="st20" d="M18.1,79.4c-0.3,3.8,0.9,7.4,2.7,10.8c1.9,3.6,4.2,7,6.7,10.1c5.2,6.3,11.9,10.7,18.9,14.8
			c0-0.1,0-0.3,0-0.4c-2.7,1.6-5.4,3.2-8.1,4.7c-0.5,0.3,0,0.7,0.4,0.5c2.8-1.5,5.6-3.1,8.3-4.8c0.1-0.1,0.2-0.3,0-0.4
			c-6.8-4-13.4-8.2-18.5-14.3c-2.4-2.9-4.5-6-6.3-9.2c-2-3.6-3.6-7.5-3.3-11.7C18.9,79,18.1,79.1,18.1,79.4L18.1,79.4z"/>
	</g>
</g>
<g>
	<g>
		<path class="st20" d="M31.2,119.1c1.6-0.9,3-2,4.2-3.4c0.1-0.1-0.1-0.1-0.2-0.1c-0.2,0-0.4,0.1-0.5,0.2c-1.1,1.3-2.5,2.4-4,3.3
			c-0.1,0-0.3,0.1-0.1,0.2C30.8,119.3,31.1,119.2,31.2,119.1L31.2,119.1z"/>
	</g>
</g>
<g>
	<g>
		<path class="st20" d="M41.4,118.1c3.2,2.5,6.6,4.7,10.4,6.3c3.7,1.6,7.6,2.6,11.6,3.2c8.1,1.2,16.3,0.8,23.9-2.4
			c4.4-1.9,8.5-4.3,12.6-6.8c0.5-0.3-0.3-0.3-0.5-0.2c-7.1,4.3-14.4,8.7-22.9,9.4c-7.7,0.6-15.7-0.3-22.9-3.1
			c-4.2-1.6-7.9-4-11.4-6.8C41.9,117.6,41.2,117.9,41.4,118.1L41.4,118.1z"/>
	</g>
</g>
<g>
	<g>
		<path class="st20" d="M32.4,121.5c1.4,2.5,3.6,4.1,5.9,5.7c2.4,1.6,5,3.2,7.6,4.5c5.3,2.7,11,4.2,16.9,5
			c11.5,1.6,23.8,0.6,34.1-5.1c5-2.8,9.3-6.6,12.5-11.3c0.2-0.3-0.6-0.3-0.8-0.1c-6,8.8-15.9,14.1-26.3,15.9c-5.8,1-11.7,1-17.5,0.3
			c-6-0.7-11.8-2-17.3-4.6c-2.7-1.3-5.3-2.8-7.9-4.5c-2.6-1.7-5.2-3.4-6.7-6.2C32.9,120.8,32.2,121.1,32.4,121.5L32.4,121.5z"/>
	</g>
</g>
<g>
	<g>
		<path class="st20" d="M50.4,72c-2.3,4.6-2.3,9.6-0.8,14.5c1.7,5.5,4.5,10.8,3.8,16.8c-0.1,0.4,0.6,0.4,0.7,0
			c0.7-5.4-1.5-10.3-3.2-15.2C49,82.8,48.4,77.5,51,72.4C51.2,72,50.6,71.6,50.4,72L50.4,72z"/>
	</g>
</g>
<g>
	<g>
		<path class="st20" d="M84.6,59.3c-3.3-2.2-7.4-2.8-11.3-2.3c-0.4,0.1-0.4,0.7,0,0.7c3.8-0.5,7.7,0.1,10.9,2.3
			C84.6,60.1,84.9,59.5,84.6,59.3L84.6,59.3z"/>
	</g>
</g>
<g>
	<g>
		<path class="st20" d="M49,84.8c-1.6,0.7-3.5,0.6-4.9-0.5c-1.1-0.9-1.7-2.3-1.6-3.8c0.1-1.4,0.8-2.7,1.7-3.7
			c0.5-0.5,1.2-0.9,1.9-1.3c0.9-0.5,2-0.9,3.1-0.4c0.4,0.2,0.7-0.4,0.3-0.6c-1.6-0.7-3.3,0.1-4.7,1c-1.1,0.7-2,1.8-2.5,3
			c-1.1,2.5-0.4,5.6,2.1,6.9c1.5,0.8,3.3,0.7,4.9,0C49.8,85.2,49.4,84.6,49,84.8L49,84.8z"/>
	</g>
</g>
<g>
	<g>
		<path class="st20" d="M79.9,57.6c1.7-2.4,5.1-4.9,8-3c2.6,1.7,3.7,5.9,0.9,8c-0.4,0.3,0,0.9,0.3,0.6c2.4-1.7,2.4-5.1,0.9-7.4
			c-0.7-1.1-1.8-2-3.1-2.4c-1.4-0.4-2.8-0.1-4,0.6c-1.4,0.8-2.7,1.9-3.6,3.3C79.1,57.7,79.7,58,79.9,57.6L79.9,57.6z"/>
	</g>
</g>
<g>
	<g>
		<path class="st20" d="M68.5,79.5c0.1,0,0.1-0.1,0.1-0.1c-0.1-0.1-0.1-0.1-0.2-0.2c0-0.1,0,0-0.1,0c-0.1,0-0.1,0.1-0.2,0.2
			c-0.1,0.1-0.2,0.2-0.3,0.3c-0.2,0.3-0.4,0.7-0.6,1.1c-0.3,0.7-0.6,1.5-0.5,2.3c0.2,1.9,2.6,1.8,3.9,1c0.9-0.6,1.6-1.5,2.5-2.1
			c0.8-0.6,1.7-0.8,2.6-1c0.7-0.1,1.6-0.3,2.1-0.9c0.5-0.6,0.5-1.6,0.2-2.2c-0.9-1.8-3.6-1.6-5.3-1.3c-0.2,0-0.2,0.4,0,0.3
			c1.4-0.2,3.5-0.4,4.6,0.7c0.6,0.6,0.8,1.7,0.3,2.3c-0.5,0.6-1.3,0.7-2,0.8c-0.7,0.1-1.4,0.3-2.1,0.7c-0.8,0.4-1.4,1.1-2.1,1.7
			c-0.8,0.7-1.6,1.3-2.6,1.3c-0.8,0-1.6-0.3-1.7-1.2c-0.1-0.8,0.2-1.6,0.5-2.3c0.1-0.3,0.3-0.7,0.5-0.9c0.2-0.2,0.4-0.3,0.5-0.5
			c0-0.1-0.1-0.3-0.2-0.2c-0.1,0-0.2,0.1-0.3,0.2C68,79.4,68.3,79.6,68.5,79.5L68.5,79.5z"/>
	</g>
</g>
<g>
	<g>
		<path class="st20" d="M75.8,80.9c0.5,0.4,0.9,0.9,1.2,1.5c0.3,0.5,0.6,1.2,0.6,1.8c0,0.6-0.5,1.2-1.1,1.4c-0.6,0.1-1-0.4-1.4-0.7
			c-0.2-0.1-0.4,0.2-0.2,0.3c0.5,0.3,1,0.8,1.6,0.7c0.7-0.1,1.3-0.7,1.4-1.4c0.2-0.7-0.1-1.4-0.5-2c-0.4-0.7-0.8-1.3-1.4-1.8
			C75.9,80.5,75.6,80.7,75.8,80.9L75.8,80.9z"/>
	</g>
</g>
<g>
	<g>
		<path class="st20" d="M69.9,101.2c0.2,0,0.5-0.2,0.7-0.3c0.3-0.1,0.5-0.3,0.8-0.4c0.9-0.3,2-0.4,3-0.1c0.9,0.3,1.6,0.9,1.9,1.8
			c0.3,0.9-0.3,1.5-1.2,1.7c-1.2,0.4-2.4,0-3.6-0.3c-0.2-0.1-0.3,0.3-0.1,0.3c1.1,0.3,2.3,0.7,3.5,0.4c0.8-0.2,1.7-0.7,1.7-1.6
			c0-0.8-0.5-1.7-1.2-2.2c-0.9-0.6-2-0.8-3.1-0.7c-0.5,0.1-1,0.2-1.5,0.4c-0.2,0.1-0.4,0.2-0.6,0.3c-0.1,0.1-0.3,0.2-0.5,0.2
			C69.7,100.9,69.7,101.2,69.9,101.2L69.9,101.2z"/>
	</g>
</g>
<g>
	<g>
		<path class="st20" d="M74,102.6c0.8-0.2,2,0,2,1.1c0,0.2,0.3,0.2,0.3,0c0-0.6-0.3-1-0.8-1.3c-0.5-0.2-1.1-0.2-1.7-0.1
			C73.7,102.3,73.8,102.6,74,102.6L74,102.6z"/>
	</g>
</g>
<path class="st21" d="M82.1,63.6c-1.9-3.6-6.3-5-9.9-3.1c-3.6,1.9-5,6.3-3.1,9.9c1.9,3.6,6.3,5,9.9,3.1C82.6,71.7,84,67.2,82.1,63.6
	z"/>
<path class="st21" d="M66.1,72.9c-1.9-3.6-6.3-5-9.9-3.1c-3.6,1.9-5,6.3-3.1,9.9c1.9,3.6,6.3,5,9.9,3.1C66.6,80.9,68,76.5,66.1,72.9
	z"/>
<path class="st20" d="M86.7,57.9c-0.4-0.8-1.3-1-2.1-0.7c-0.8,0.4-1,1.3-0.7,2.1c0.4,0.8,1.3,1.1,2.1,0.7
	C86.8,59.6,87.1,58.7,86.7,57.9z"/>
<path class="st20" d="M48.8,79.4c-0.4-0.8-1.3-1-2.1-0.7c-0.8,0.4-1,1.3-0.7,2.1c0.4,0.8,1.3,1,2.1,0.7
	C48.9,81.1,49.2,80.2,48.8,79.4z"/>
<path class="st20" d="M73.6,75.8c-0.5-0.9-2.1-0.9-3.7-0.1c-1.6,0.8-2.5,2.2-2.1,3.1c0.5,0.9,2.1,0.9,3.8,0.1
	C73.1,78.1,74,76.7,73.6,75.8z"/>
<path class="st20" d="M74.7,65c-1.2,0.6-1.6,2.1-1,3.2c0.6,1.2,2.1,1.6,3.2,1c1.2-0.6,1.6-2.1,1-3.2C77.4,64.8,75.9,64.4,74.7,65z
	 M77.4,68c-0.3,0.2-0.7,0-0.9-0.3c-0.2-0.3,0-0.7,0.3-0.9c0.3-0.2,0.7,0,0.9,0.3C77.9,67.4,77.8,67.8,77.4,68z"/>
<path class="st20" d="M58.5,74.1c-1.2,0.6-1.6,2.1-1,3.2c0.6,1.2,2.1,1.6,3.2,1c1.2-0.6,1.6-2.1,1-3.2C61.2,74,59.7,73.5,58.5,74.1z
	 M61.2,77.2c-0.3,0.2-0.7,0-0.9-0.3c-0.2-0.3,0-0.7,0.3-0.9c0.3-0.2,0.7,0,0.9,0.3C61.7,76.6,61.6,77,61.2,77.2z"/>
<g>
	<g>
		<path class="st20" d="M73.1,81.7c0.3,0.3,0.4,0.7,0.6,1.1c0.2,0.4,0.5,0.8,0.7,1.2c0.3,0.7,0.7,1.5,0.3,2.3
			c-0.3,0.6-1.1,0.9-1.7,0.6c-0.6-0.3-1-0.9-1.3-1.4c-0.3-0.6-0.6-1.3-0.7-2c0-0.2-0.4-0.1-0.3,0.1c0.1,0.7,0.4,1.4,0.7,2
			c0.3,0.6,0.8,1.3,1.5,1.6c0.7,0.3,1.5,0.1,2-0.4c0.5-0.6,0.4-1.5,0.1-2.2c-0.2-0.6-0.5-1.1-0.8-1.7c-0.3-0.5-0.4-1-0.8-1.4
			C73.2,81.3,73,81.6,73.1,81.7L73.1,81.7z"/>
	</g>
</g>
<g>
	<g>
		<path class="st20" d="M79.8,96.4c-1.6,0.4-2.8,2-3.3,3.5c-0.2,0.5-0.3,1.2-0.2,1.7c0.2,0.6,0.7,0.9,1.3,0.9c0.2,0,0.2-0.3,0-0.3
			c-0.6,0-1-0.2-1-0.8c-0.1-0.5,0.1-1,0.3-1.5c0.5-1.3,1.6-2.7,3-3.1C80.1,96.6,80,96.3,79.8,96.4L79.8,96.4z"/>
	</g>
</g>
<g>
	<g>
		<path class="st20" d="M78.1,100.7c-0.3,0.4-0.6,0.9-0.5,1.4c0,0.5,0.4,0.8,0.9,0.8c1.2,0,1.9-1.2,2.3-2.2c0.2-0.6,0.4-1.2,0.5-1.8
			c0-0.2-0.3-0.2-0.3,0c-0.1,0.4-0.2,0.9-0.3,1.3c-0.2,0.5-0.4,1-0.7,1.4c-0.2,0.3-0.6,0.7-1,0.8c-0.3,0.1-0.9,0.1-1-0.3
			c-0.1-0.4,0.1-1,0.4-1.3C78.5,100.7,78.3,100.5,78.1,100.7L78.1,100.7z"/>
	</g>
</g>
<g>
	<g>
		<path class="st20" d="M83.5,59.3c10.1,5.6,14.9,17.8,16.8,28.7c0.5,3,0.8,6.1,0.9,9.2c0,0.4,0.7,0.4,0.7,0
			c-0.2-11.3-3.4-23.6-10.8-32.4c-2.1-2.4-4.5-4.5-7.3-6.1C83.5,58.5,83.1,59.1,83.5,59.3L83.5,59.3z"/>
	</g>
</g>
<g>
	<g>
		<path class="st20" d="M76.7,80.6c1.5-0.2,1.7-1.9,1.8-3.1c0.1-0.8,0.1-1.8,0.8-2.3c0.5-0.4,1.4-0.5,1.6-1.3c0-0.2-0.3-0.3-0.3-0.1
			c-0.1,0.7-1.2,0.9-1.6,1.3c-0.5,0.5-0.7,1.3-0.7,2c-0.1,1.1-0.1,3-1.5,3.2C76.4,80.3,76.4,80.6,76.7,80.6L76.7,80.6z"/>
	</g>
</g>
<g>
	<g>
		<path class="st20" d="M69,84.3c-1.1,0.2-1.9-0.7-2.9-1c-0.5-0.1-1-0.1-1.5,0.1c-0.4,0.2-0.9,0.6-1.4,0.4c-0.2-0.1-0.3,0.3-0.1,0.3
			c0.4,0.2,0.9-0.1,1.2-0.3c0.6-0.3,1.2-0.4,1.8-0.2c1,0.4,1.8,1.1,2.8,0.9C69.3,84.6,69.2,84.3,69,84.3L69,84.3z"/>
	</g>
</g>
<g>
	<g>
		<path class="st20" d="M80.6,74C80.6,74,80.7,74,80.6,74C80.7,74,80.7,74,80.6,74c0.1,0,0.1,0,0.1,0c0,0,0.1,0,0.1,0.1
			c0,0,0.1,0.1,0.1,0.1c0,0,0,0,0,0c0,0,0,0,0,0c0,0,0,0,0.1,0.1c0,0,0.1,0.1,0.1,0.1c0,0,0,0,0,0.1c0,0,0,0,0,0c0,0,0,0,0,0
			c0,0,0,0,0,0c0,0,0.1,0.1,0.1,0.1c0,0,0,0,0,0.1c0,0,0,0,0,0c0,0,0,0,0,0c0,0,0,0.1,0.1,0.1c0,0,0.1,0,0.1,0
			c0.1,0,0.2-0.1,0.1-0.2c-0.2-0.4-0.5-0.8-1-1c-0.1,0-0.2,0-0.2,0.1C80.5,73.9,80.5,74,80.6,74L80.6,74z"/>
	</g>
</g>
<g>
	<g>
		<path class="st20" d="M62.9,84c-0.1,0.5,0,1,0.2,1.5c0,0.1,0.2,0.1,0.2,0.1c0.1,0,0.1-0.2,0.1-0.2c-0.2-0.4-0.3-0.8-0.2-1.2
			c0-0.1,0-0.2-0.1-0.2C63,83.9,62.9,84,62.9,84L62.9,84z"/>
	</g>
</g>
<g>
	<g>
		<path class="st20" d="M81.5,71.8c0.5-0.5,0.9-1.2,1.3-1.8c0.4-0.6,0.9-1.2,1.6-1.5c0.2-0.1,0-0.4-0.2-0.3
			c-0.7,0.3-1.2,0.9-1.6,1.5c-0.4,0.6-0.8,1.3-1.3,1.9C81.1,71.7,81.4,71.9,81.5,71.8L81.5,71.8z"/>
	</g>
</g>
<g>
	<g>
		<path class="st20" d="M59.9,83.5c-1.3-0.2-2.6,0.2-3.7,0.8c-0.2,0.1,0,0.4,0.2,0.3c1.1-0.6,2.3-0.9,3.5-0.8
			C60.2,83.9,60.2,83.5,59.9,83.5L59.9,83.5z"/>
	</g>
</g>
<g>
	<g>
		<path class="st20" d="M30.3,87c4.9-1.8,9.4-4.8,12.9-8.7c0.3-0.3-0.2-0.8-0.5-0.5c-3.5,3.8-7.8,6.8-12.6,8.6
			C29.7,86.5,29.9,87.1,30.3,87L30.3,87z"/>
	</g>
</g>
<g>
	<g>
		<path class="st20" d="M46.5,75.2c3.7-2.9,8-4.9,12-7.4c4.1-2.6,8.1-5.3,12.1-8.2c3.6-2.6,6.8-5.9,10.7-8.1
			c4.2-2.4,8.6-4.4,12.9-6.7c-0.1-0.2-0.2-0.4-0.3-0.6c-1.8,1.1-2.5,3.3-3.8,4.8c-1.9,2-4.7,3.6-7.2,4.9c-0.4,0.2,0,0.8,0.3,0.6
			c2.4-1.3,4.9-2.8,6.9-4.6c1.6-1.4,2.3-3.9,4.1-5.1c0.4-0.2,0-0.8-0.3-0.6c-4.2,2.3-8.7,4.3-12.9,6.7c-4,2.3-7.3,5.7-11,8.4
			c-4,2.9-8,5.7-12.2,8.3c-3.9,2.4-8,4.3-11.6,7.2C45.7,75,46.1,75.4,46.5,75.2L46.5,75.2z"/>
	</g>
</g>
<g>
	<g>
		<path class="st20" d="M93.9,43.8c-1.6-0.1-3.2-0.2-4.7,0c-1.6,0.2-3,0.8-4.6,1.2c-1.9,0.5-3.7,0.4-5.7,0.1
			c-1.4-0.2-2.9-0.4-4.3-0.2c-5.2,0.7-8.8,5.4-13.3,7.6c-0.4,0.2,0,0.8,0.3,0.6c4.6-2.3,8.3-7.2,13.7-7.6c3-0.2,5.8,0.9,8.8,0.3
			c1.6-0.3,3.1-0.9,4.7-1.2c1.7-0.3,3.4-0.2,5.1-0.1C94.3,44.5,94.3,43.8,93.9,43.8L93.9,43.8z"/>
	</g>
</g>
<g>
	<g>
		<path class="st20" d="M70.4,43.9c0.9,0.6,2,0.4,3,0.4c0.7,0,1.7,0.3,1.9,1.1c0,0.2,0.3,0.3,0.4,0.2c0.2-0.1,0.3-0.2,0.2-0.4
			c-0.1-1-1.2-1.4-2-1.6c-1-0.1-2.3,0.3-3.2-0.4C70.4,43.1,70.1,43.7,70.4,43.9L70.4,43.9z"/>
	</g>
</g>
<g>
	<g>
		<path class="st20" d="M31.5,88.1c4.1-0.3,8-1.6,11.5-3.6c0.4-0.2,0-0.8-0.3-0.6c-3.4,2-7.2,3.2-11.2,3.5
			C31,87.4,31,88.1,31.5,88.1L31.5,88.1z"/>
	</g>
</g>
<g>
	<g>
		<path class="st20" d="M34,87.9c2.6,3.1,5.2,6.2,7.8,9.2c0.1,0.1,0.4,0.1,0.5,0c3.5-3,8.1-0.5,10.9,2.2c0.3,0.3,0.8-0.2,0.5-0.5
			c-3.1-3-8.1-5.5-11.9-2.2c0.2,0,0.3,0,0.5,0c-2.6-3.1-5.2-6.2-7.8-9.2C34.2,87.1,33.8,87.5,34,87.9L34,87.9z"/>
	</g>
</g>
<g>
	<g>
		<path class="st20" d="M75.1,44.2c0.7-1.2,2.1-1.4,3.4-1.6c1.1-0.2,2.2-0.5,3.3-0.9c2-0.9,3.8-2.1,5.4-3.6c0.8-0.8,1.6-1.6,2.4-2.4
			c0.6-0.7,1.3-1.5,2.5-1.1c0.6,0.2,1,0.9,1.4,1.4c1.6,2.1,3.3,4,5.2,5.8c0.1-0.2,0.1-0.4,0.2-0.6c-4.5,1.7-6.2,7.2-7.2,11.5
			C90.4,58,92.1,63.8,93.4,69c0.1,0.4,0.8,0.2,0.7-0.2c-0.6-2.3-1.1-4.5-1.5-6.8c-0.5-2.7-0.9-5.5-0.5-8.2c0.4-2.3,1.2-4.6,2.1-6.7
			c1-2.2,2.4-4.3,4.8-5.2c0.2-0.1,0.4-0.4,0.2-0.6c-1.2-1.1-2.3-2.2-3.3-3.4c-0.9-1.1-1.7-2.4-2.8-3.4c-2-1.7-3.5,0.3-4.9,1.7
			c-2,2.1-4.3,4-7.1,5c-2.1,0.8-5.2,0.4-6.5,2.6C74.3,44.3,74.9,44.6,75.1,44.2L75.1,44.2z"/>
	</g>
</g>
<g>
	<g>
		<path class="st20" d="M97.4,76.9c1.4,2,3.2,3.7,5,5.2c2.1,1.8,4.2,3.5,6.2,5.3c0-0.2,0-0.3,0-0.5c-2.7,2.4-5.1,5.1-7.3,7.9
			c-0.3,0.3,0.3,0.7,0.6,0.3c2.2-2.8,4.5-5.4,7.2-7.8c0.1-0.1,0.1-0.4,0-0.5c-2-1.7-4-3.4-6-5.1c-1.9-1.6-3.8-3.2-5.1-5.3
			C97.8,76.2,97.2,76.5,97.4,76.9L97.4,76.9z"/>
	</g>
</g>
<g>
	<g>
		<path class="st20" d="M51,69.2c1.3-2.2,3.8-3.3,5.9-4.5c2.3-1.4,4.7-2.7,7-4.2c4.4-2.8,8.6-5.8,12.5-9.3c0.3-0.3-0.2-0.8-0.5-0.5
			c-4.2,3.8-8.8,7-13.5,9.9c-2.3,1.4-4.6,2.8-7,4.2c-1.9,1.1-3.8,2.2-5,4.1C50.2,69.3,50.8,69.6,51,69.2L51,69.2z"/>
	</g>
</g>
<g>
	<g>
		<path class="st20" d="M48.3,39.7c-0.5-1.5-0.9-2.9-1.3-4.4c-0.2,0.1-0.3,0.3-0.5,0.4c0.6,0.4,1.2,0.8,1.8,1.2
			c0.5,0.3,1.1,0.9,1.6,1c0.5,0.1,1.1-0.3,1.5-0.6c0.6-0.3,1.3-0.7,1.9-1c-0.2-0.1-0.3-0.3-0.5-0.4c-0.3,0.8-0.7,1.7-1,2.5
			c-0.1,0.2,0.1,0.4,0.2,0.4c1.1,0.2,2.2,0.6,3.3,1.1c0-0.2,0-0.4-0.1-0.5c-0.6,0.5-1.3,0.8-2,0.9c-0.6,0.1-1.4,0-1.9,0.4
			c-0.4,0.4-0.5,1.1-0.6,1.7c-0.2,0.8-0.4,1.7-0.6,2.5c0.2,0,0.4,0,0.7,0c-0.3-0.7-0.6-1.3-0.8-2c-0.2-0.6-0.4-1.3-0.8-1.8
			c-0.3-0.4-0.7-0.5-1.2-0.4c-0.8,0.2-1.5,0.2-2.3-0.2c0,0.2,0,0.4,0,0.6c0.6-0.5,1.2-0.9,1.9-1.3c0.4-0.2,0-0.8-0.3-0.6
			c-0.7,0.4-1.3,0.8-1.9,1.3c-0.2,0.1-0.3,0.5,0,0.6c0.5,0.2,1,0.4,1.5,0.4c0.3,0,0.5,0,0.8,0c0.4-0.1,0.8-0.2,1,0.1
			c0.2,0.2,0.3,0.6,0.4,0.9c0.1,0.3,0.2,0.5,0.3,0.8c0.3,0.6,0.5,1.2,0.8,1.8c0.1,0.3,0.6,0.4,0.7,0c0.2-0.7,0.3-1.5,0.5-2.2
			c0.1-0.6,0.1-1.7,0.9-1.8c0.6-0.1,1.2-0.1,1.8-0.3c0.6-0.2,1.1-0.5,1.6-0.9c0.2-0.1,0.1-0.4-0.1-0.5c-1.1-0.5-2.2-0.9-3.4-1.2
			c0.1,0.1,0.2,0.3,0.2,0.4c0.3-0.8,0.7-1.7,1-2.5c0.1-0.3-0.3-0.5-0.5-0.4c-0.5,0.3-1,0.6-1.6,0.8c-0.4,0.2-1.1,0.8-1.5,0.6
			c-0.5-0.2-1-0.6-1.4-0.9c-0.5-0.4-1.1-0.7-1.6-1.1c-0.3-0.2-0.6,0.1-0.5,0.4c0.4,1.5,0.8,3,1.3,4.4C47.8,40.3,48.4,40.1,48.3,39.7
			L48.3,39.7z"/>
	</g>
</g>
<g>
	<g>
		<path class="st20" d="M55.8,56.9c-0.1-0.5-0.1-1.1,0-1.7c-0.2,0.1-0.3,0.1-0.5,0.2c0.5,0.2,0.7,1.1,1.4,0.9
			c0.4-0.1,0.6-0.6,0.9-0.9c0.3-0.4,0.5-0.8,0.7-1.3c-0.2,0-0.4,0-0.5,0.1c0.3,0.3,0.1,1,0,1.4c-0.1,0.6,0.1,1,0.7,1.2
			c0.3,0.1,0.6,0.2,0.9,0.3c0.2,0.1,0.3,0.1,0.5,0.2c0,0,0.1,0.1,0.1,0.1c0-0.1,0-0.1,0-0.2c0,0,0,0-0.1,0c-0.1,0-0.4,0.1-0.5,0.1
			c-0.2,0-0.3,0-0.5,0c-0.4,0-0.7,0-1.1,0c-0.2,0-0.4,0.2-0.3,0.4c0.2,0.8,0.2,1.6,0,2.4c0.1-0.1,0.3-0.2,0.4-0.2
			c-0.3-0.1-0.5-0.6-0.6-0.9c-0.2-0.3-0.4-0.6-0.7-0.8c-0.9-0.4-1.6,0.5-2.5,0.5c0.1,0.1,0.2,0.3,0.3,0.4c0.3-0.8,0.8-1.5,1.3-2.1
			c0.3-0.3-0.2-0.8-0.5-0.5c-0.6,0.7-1.1,1.5-1.5,2.4c-0.1,0.2,0.1,0.4,0.3,0.4c0.5,0,0.8-0.2,1.3-0.4c0.3-0.1,0.8-0.4,1.1-0.1
			c0.3,0.2,0.4,0.6,0.6,0.9c0.2,0.3,0.4,0.6,0.8,0.7c0.2,0.1,0.4-0.1,0.4-0.2c0.2-0.9,0.2-1.8,0-2.8c-0.1,0.1-0.2,0.3-0.3,0.4
			c0.4,0,0.9,0,1.3,0c0.4,0,0.8,0,1.1-0.2c0.3-0.1,0.5-0.4,0.4-0.7c-0.1-0.3-0.4-0.5-0.7-0.6c-0.4-0.2-0.7-0.3-1.1-0.4
			c-0.2,0-0.4,0-0.4-0.2c0-0.1,0-0.3,0.1-0.4c0.1-0.6,0.2-1.3-0.3-1.8c-0.1-0.1-0.4-0.1-0.5,0.1c-0.2,0.3-0.3,0.6-0.5,1
			c-0.1,0.2-0.2,0.3-0.3,0.5c-0.1,0.1-0.2,0.4-0.4,0.4c-0.1,0-0.3-0.2-0.4-0.3c-0.2-0.2-0.3-0.4-0.6-0.5c-0.2-0.1-0.5,0-0.5,0.2
			c-0.1,0.7-0.1,1.3,0,2C55.2,57.5,55.9,57.3,55.8,56.9L55.8,56.9z"/>
	</g>
</g>
<g>
	<g>
		<path class="st20" d="M60.5,44.6c-0.1-0.5-0.1-1,0-1.5c-0.2,0-0.4,0-0.7,0c0.1,0.5,0.5,0.9,1,1c0.6,0.1,1.3-0.2,1.8-0.4
			c-0.1-0.2-0.3-0.3-0.4-0.5c-0.3,0.5-0.4,1-0.2,1.5c0,0.1,0.1,0.2,0.2,0.2c0.3,0.1,0.6,0.1,0.9,0.2c0,0,0.4,0.2,0.4,0.2
			c0.1-0.2,0-0.2-0.1-0.1c-0.1,0-0.1,0.1-0.2,0.1c-0.4,0.2-0.9,0.1-1.4,0.2c-0.4,0-0.8,0.3-0.8,0.7c0,0.3,0,0.5-0.1,0.7
			c-0.1,0.2-0.2,0.4-0.4,0.5c0.2,0.1,0.3,0.1,0.5,0.2c-0.1-0.6-0.3-1.3-0.9-1.7c-0.3-0.2-0.7-0.2-1.1-0.2c-0.3,0-0.9,0.2-1.1,0
			c0,0.1,0,0.3-0.1,0.4c0.5-0.5,1.1-1,1.9-1.3c0.4-0.2,0.2-0.8-0.2-0.7c-0.8,0.3-1.5,0.8-2.2,1.4c-0.1,0.1-0.1,0.3-0.1,0.4
			c0.2,0.3,0.5,0.4,0.8,0.5c0.4,0,0.8-0.1,1.1-0.1c0.7,0,0.9,0.9,1,1.4c0,0.2,0.3,0.3,0.5,0.2c0.5-0.3,0.8-0.9,0.8-1.5
			c0-0.1-0.1-0.3,0-0.4c0.1-0.1,0.2-0.1,0.3-0.1c0.3,0,0.6,0,0.9-0.1c0.4-0.1,1.4-0.5,1.2-1.1c-0.1-0.3-0.5-0.4-0.7-0.5
			c-0.3-0.1-0.7-0.2-1.1-0.3c0.1,0.1,0.2,0.2,0.2,0.2c-0.1-0.4,0-0.7,0.2-1c0.2-0.2-0.1-0.6-0.4-0.5c-0.4,0.1-0.9,0.4-1.3,0.4
			c-0.3,0-0.6-0.2-0.6-0.5c-0.1-0.3-0.6-0.3-0.7,0c-0.1,0.6-0.1,1.2,0,1.8C59.9,45.2,60.6,45,60.5,44.6L60.5,44.6z"/>
	</g>
</g>
</svg>
