<?xml version="1.0" encoding="utf-8"?>
<!-- Generator: Adobe Illustrator 24.0.1, SVG Export Plug-In . SVG Version: 6.00 Build 0)  -->
<svg version="1.1" id="Layer_1" xmlns="http://www.w3.org/2000/svg" xmlns:xlink="http://www.w3.org/1999/xlink" x="0px" y="0px"
	 viewBox="0 0 141.7 141.7" style="enable-background:new 0 0 141.7 141.7;" xml:space="preserve">
<style type="text/css">
	.st0{fill:#79CAE6;}
	.st1{fill:#FFFFFF;}
	.st2{fill:#C7AF9D;}
	.st3{fill:url(#SVGID_1_);}
	.st4{fill:#F36E38;}
	.st5{fill:#FFF2B4;}
	.st6{fill:url(#SVGID_2_);}
	.st7{fill:#070707;}
	.st8{fill:none;stroke:#070707;stroke-width:0.39;stroke-miterlimit:10;}
	.st9{fill:#DD905B;}
	.st10{fill:#F0A570;}
	.st11{fill:#85482F;}
	.st12{fill:#774E31;}
	.st13{fill:#418A9B;}
	.st14{fill:#302D1F;}
	.st15{fill:#255782;}
	.st16{fill:#3B749F;}
	.st17{fill:#76AEB8;}
	.st18{fill:#9FA6AA;}
	.st19{fill:#231F20;}
</style>
<path class="st0" d="M35.6,136.1v-4.3v-5.3v-5.8l-0.8-7.5l5.4,3.6l6.2,2.3l3.4,0.5l-2.6-3.1l-2-4.5l-0.8-4.3l-0.1-5.2l0.3-5.7
	l0.4-5.2l0.3-1.5l2.1-5.5l2.6-3.4l4-2.8l5.8-2l6-2.1l4.2-2.5l2.2,0.7l2.8-0.4l3.5-0.6c0,0,8.1-1.6,14.5,3.7c0,0,7.5-3.6,10.8-0.5
	c0,0,4.9,3.9,2.3,10l-2.5,2.7l-2,0.9h-1c0,0,4.3,25.5-3.5,29.6l3.5-2.7l1.9-1.6l0.1,7.1l0.4,6.1l0.5,6.6l0,0.7L35.6,136.1z"/>
<circle class="st1" cx="55.4" cy="86" r="10.3"/>
<circle class="st1" cx="81.7" cy="84.7" r="10.3"/>
<path class="st1" d="M64.4,102.4c0,0-1.3,5.4,1.3,6.4c0,0,2.2,0.6,3-1.5c0,0,2,2.4,2.7,1.4c0,0,2.3-0.5,1.9-3.5l-0.6-3l-2.6-0.7
	h-1.4l-2.2,0.6L64.4,102.4z"/>
<path class="st2" d="M57.6,129.6c0,0,0.7,3.4,4.9,5.7l1.8,0.2l0.8-1.4v-0.7l0.7-0.4l0.2-1.1l-0.7-1.4l-1.7-1.4l-2.4-1.1
	C61.3,128.1,57.4,126.7,57.6,129.6z"/>
<path class="st2" d="M77.9,127.7l-2,1.6l-1.4,1.9l-0.3,1.3l0.2,1l1.6,1.2l1.8,0.4l2.5-1.1l1.8-1.8l0.9-1.7v-1.7l0.4-0.8
	C83.3,127.8,85.3,123.9,77.9,127.7z"/>
<path class="st2" d="M64.5,95.1c0,0-5,2-4.7,5.3c0,0,0.1,2.1,4.7,2.1l4.3-1h1.4c1.2,0.3,2.4,0.6,3.6,0.8c0.3,0,0.6,0,1,0
	c0.5,0,0.9-0.1,1.2-0.2c0.2-0.1,0.6-0.4,0.9-1c0.2-0.4,0.3-0.8,0.3-1c0-0.2,0.1-0.5,0-1c-0.1-0.3-0.2-0.6-0.3-0.7
	c-0.2-0.3-0.4-0.7-0.8-1.1c-0.4-0.4-0.8-0.7-1.1-0.8c-0.5-0.3-1-0.6-1.6-0.9c-0.3-0.2-0.6-0.3-0.9-0.5c-0.5,0.4-1.8,1.3-3.7,1.4
	C66.5,96.5,64.9,95.4,64.5,95.1z"/>
<path class="st0" d="M36.1,89.9l-2.2-0.4c0,0-7.6-2.5-3.6-10c0,0,5.7-7.6,12.9-2.5l-1.4,1.9L39,82.9l-1.9,4.2L36.1,89.9z"/>
<linearGradient id="SVGID_1_" gradientUnits="userSpaceOnUse" x1="29.572" y1="91.0076" x2="95.6828" y2="91.0076">
	<stop  offset="0" style="stop-color:#FCEF44"/>
	<stop  offset="5.699537e-02" style="stop-color:#FCDE33"/>
	<stop  offset="0.1286" style="stop-color:#FCD222"/>
	<stop  offset="0.2023" style="stop-color:#FDCA17"/>
	<stop  offset="0.2809" style="stop-color:#FDC713"/>
	<stop  offset="0.6685" style="stop-color:#F29140"/>
	<stop  offset="0.8876" style="stop-color:#ED683C"/>
	<stop  offset="1" style="stop-color:#E93F3A"/>
</linearGradient>
<path class="st3" d="M69.9,71.8l-3.7,2l-4.5,1.4l-2,1.1l-3-1.1H54l-3.1,0.9l-3.2,2.1c0,0-5.3,4.9-2.1,11l-1.1,6.6L44.5,109
	c0,0,0.9,7.1,4.9,10.1l-1.2,0.3c0,0-9.6-1-15.7-9.4c0,0-3.2-4.4-2.8-10l1.3-12.6l2.2,1.6l3,0.8l2-5.2l2.7-4.5l2.4-3.2L41,75.7
	L38.3,75h-1.2l4.2-4.8c0,0,11.2-12.7,24.3-2.8l3.8-3.2c0,0,10.2-7.3,26.3,9.6l-2.8,1.4L89,72.8c0,0-3.8-2.6-13.3-0.8l-2.4,0.3
	l-2.1-0.1L69.9,71.8z"/>
<polygon class="st4" points="100.4,88.3 101.3,100.1 101.2,108 99.8,114 98.2,116.9 101.9,114 104.9,110 105.8,106.4 106,101.5 
	105.3,95.5 104.3,91 103.4,87.4 "/>
<path class="st5" d="M45.4,89.5c0.4-1.6,1.1-3.6,2.5-5.7c3.9-5.6,10-7.1,11.8-7.4c0,0-6.1-3-11.5,1.5c-0.7,0.6-2.9,2.7-3.5,6.3
	C44.5,86.6,45.1,88.6,45.4,89.5z"/>
<linearGradient id="SVGID_2_" gradientUnits="userSpaceOnUse" x1="34.8249" y1="94.5396" x2="69.635" y2="94.5396">
	<stop  offset="7.653061e-02" style="stop-color:#F6F4C2"/>
	<stop  offset="0.2414" style="stop-color:#F9F2A2"/>
	<stop  offset="0.3215" style="stop-color:#FAE37F"/>
	<stop  offset="0.4038" style="stop-color:#FBD95F"/>
	<stop  offset="0.4881" style="stop-color:#FCD142"/>
	<stop  offset="0.5737" style="stop-color:#FDCC2A"/>
	<stop  offset="0.6615" style="stop-color:#FDC919"/>
	<stop  offset="0.7551" style="stop-color:#FDC713"/>
	<stop  offset="1" style="stop-color:#F29140"/>
</linearGradient>
<path class="st6" d="M49.3,119.1c0,0-8.3-5.9-4.1-28.9c0,0-2.8-7.2,3.2-12.9c0,0,5.5-4,11.2-0.9c0,0,9.3-3.5,9.9-4.4
	c-2.1-0.9-8.5-3.3-16.1-1c-6,1.8-9.5,5.5-10.9,7c-4.7,5-6,10.5-6.7,13.4c-0.5,2-4.3,19.4,4.9,25.6C43.8,118.9,47,119.2,49.3,119.1z"
	/>
<g>
	<g>
		<path class="st7" d="M34.5,113.1c0.6,7.4,0.9,14.7,0.8,22.1c0,0.4,0.6,0.4,0.7,0c0.1-7.4-0.2-14.8-0.8-22.1
			C35.1,112.7,34.5,112.7,34.5,113.1L34.5,113.1z"/>
	</g>
</g>
<g>
	<g>
		<path class="st7" d="M44.3,75.9c-4.5,4-7.6,9.5-8.6,15.4c-0.1,0.4,0.6,0.6,0.6,0.2c1-5.8,4-11.2,8.5-15.1
			C45.1,76.1,44.6,75.6,44.3,75.9L44.3,75.9z"/>
	</g>
</g>
<g>
	<g>
		<path class="st7" d="M97.7,80.9c-2.3-4.4-6-7.8-10.8-9.2c-2.3-0.7-4.8-0.9-7.2-0.7c-3.1,0.3-6.6,1.9-9.5,0.5
			c-0.4-0.2-0.7,0.4-0.3,0.6c2.5,1.2,5.1,0.4,7.6,0c2.7-0.5,5.4-0.6,8,0c5.2,1.1,9.4,4.5,11.8,9.2C97.3,81.6,97.9,81.3,97.7,80.9
			L97.7,80.9z"/>
	</g>
</g>
<g>
	<g>
		<path class="st7" d="M36.1,89.5C32.3,89.3,29,86,29.7,82c0.6-3.5,4.1-6.1,7.6-6.4c1.9-0.1,4.4-0.1,5.7,1.6
			c0.3,0.3,0.7-0.1,0.5-0.5c-1.3-1.6-3.4-1.8-5.4-1.8c-2.1,0-4,0.6-5.7,1.9c-3.2,2.4-4.7,6.9-2.1,10.3c1.4,1.9,3.6,2.9,5.8,3
			C36.5,90.2,36.5,89.6,36.1,89.5L36.1,89.5z"/>
	</g>
</g>
<g>
	<g>
		<path class="st7" d="M93,75.5c2.9-1.5,7.2-2.4,10.1-0.8c3,1.7,3.9,6.1,2.8,9.1c-0.8,2.1-2.7,3.8-4.9,4.1c-0.4,0.1-0.2,0.7,0.2,0.6
			c2.1-0.3,4-1.8,4.9-3.6c0.9-1.6,1.1-3.5,0.8-5.3c-0.3-1.8-1.1-3.7-2.6-4.9c-1.5-1.2-3.5-1.6-5.3-1.5c-2.2,0.1-4.4,0.7-6.3,1.7
			C92.3,75.1,92.6,75.7,93,75.5L93,75.5z"/>
	</g>
</g>
<g>
	<g>
		<path class="st7" d="M64.1,95.5c0.1,0,0.2,0,0.3-0.1c0-0.1,0-0.2,0-0.3c-0.3,0.2-0.7,0.1-1,0.3c-0.5,0.2-1,0.6-1.4,1
			c-0.9,0.7-1.8,1.6-2.2,2.6c-1.1,2.7,2.5,3.9,4.5,3.6c1.6-0.2,3.1-0.9,4.7-1.1c1.4-0.1,2.7,0.4,4.1,0.7c1,0.3,2.1,0.4,3-0.2
			c0.9-0.6,1.3-1.8,1.1-2.9c-0.4-2.5-3.6-3.9-5.7-4.6c-0.2-0.1-0.3,0.2-0.1,0.3c1.8,0.7,4.2,1.7,5.2,3.5c0.6,1.1,0.4,2.6-0.6,3.4
			c-0.9,0.8-2.2,0.4-3.3,0.1c-1-0.3-1.9-0.6-2.9-0.6c-1.3-0.1-2.6,0.3-3.8,0.7c-1.5,0.4-3,0.7-4.5,0.1c-1.1-0.5-2-1.4-1.6-2.7
			c0.4-1.2,1.5-2.2,2.4-2.9c0.4-0.3,0.8-0.6,1.2-0.7c0.3-0.1,0.6-0.1,0.9-0.3c0.1-0.1,0.1-0.3,0-0.3c-0.1,0-0.3,0-0.4,0.1
			C63.8,95.2,63.9,95.5,64.1,95.5L64.1,95.5z"/>
	</g>
</g>
<g>
	<g>
		<path class="st7" d="M72.5,102.2c0.4,0.9,0.6,1.9,0.6,2.9c0,0.9,0,2.1-0.7,2.8c-0.6,0.6-1.7,1-2.5,0.6c-0.7-0.3-0.9-1.2-1.2-1.7
			c-0.1-0.2-0.4,0-0.3,0.2c0.3,0.5,0.5,1.2,0.9,1.6c0.5,0.5,1.3,0.5,1.9,0.3c0.7-0.2,1.4-0.7,1.7-1.4c0.3-0.7,0.4-1.7,0.4-2.5
			c0-1-0.2-2-0.6-3C72.8,101.9,72.5,102,72.5,102.2L72.5,102.2z"/>
	</g>
</g>
<g>
	<g>
		<path class="st7" d="M83.1,127.9c-0.3,0.3-0.3,0.8-0.3,1.1c-0.1,0.6-0.1,1.1-0.3,1.6c-0.5,1.5-1.6,2.8-3,3.5
			c-1.2,0.6-2.8,0.8-4.1,0.2c-1.4-0.6-1.3-2-0.7-3.2c0.7-1.5,2.1-2.5,3.5-3.4c0.2-0.1,0-0.4-0.2-0.3c-1.3,0.9-2.6,1.8-3.4,3.2
			c-0.6,1-1,2.5-0.1,3.5c0.9,0.9,2.4,1,3.6,0.8c1.5-0.3,2.9-1.2,3.8-2.4c0.5-0.7,1-1.6,1.1-2.5c0-0.3,0.1-0.6,0.1-0.9
			c0-0.3,0-0.8,0.2-1C83.5,128,83.2,127.7,83.1,127.9L83.1,127.9z"/>
	</g>
</g>
<g>
	<g>
		<path class="st7" d="M77.6,131.5c-0.3,0.6-0.8,1.2-1.4,1.6c-0.7,0.4-1.4,0.3-2-0.1c-0.2-0.1-0.3,0.2-0.2,0.3
			c0.7,0.5,1.5,0.5,2.2,0.1c0.7-0.4,1.3-1,1.6-1.7C78,131.4,77.7,131.3,77.6,131.5L77.6,131.5z"/>
	</g>
</g>
<path class="st8" d="M91.9,84.6c0-5.8-4.7-10.5-10.5-10.5c-5.8,0-10.5,4.7-10.5,10.5c0,5.8,4.7,10.5,10.5,10.5
	C87.2,95.1,91.9,90.4,91.9,84.6z"/>
<path class="st8" d="M65.6,85.8c0-5.8-4.7-10.5-10.5-10.5c-5.8,0-10.5,4.7-10.5,10.5c0,5.8,4.7,10.5,10.5,10.5
	C60.9,96.2,65.6,91.5,65.6,85.8z"/>
<path class="st7" d="M101.5,80.5c0-1.2-1-2.2-2.2-2.2c-1.2,0-2.2,1-2.2,2.2c0,1.2,1,2.2,2.2,2.2C100.5,82.7,101.5,81.7,101.5,80.5z"
	/>
<path class="st7" d="M39.3,82.5c0-1.2-1-2.2-2.2-2.2c-1.2,0-2.2,1-2.2,2.2c0,1.2,1,2.2,2.2,2.2C38.3,84.7,39.3,83.7,39.3,82.5z"/>
<path class="st7" d="M73,94.3c0-1.4-2.1-2.6-4.7-2.6c-2.6,0-4.7,1.2-4.7,2.6c0,1.4,2.1,2.6,4.7,2.6C70.9,96.9,73,95.7,73,94.3z"/>
<path class="st7" d="M78.9,83.7c1.3,1.3,3.5,1.3,4.8,0c1.3-1.3,1.3-3.5,0-4.8c-1.3-1.3-3.5-1.3-4.8,0C77.5,80.2,77.5,82.4,78.9,83.7
	z M81.9,78.8c0.4,0.4,0.4,1,0,1.4c-0.4,0.4-1,0.4-1.4,0c-0.4-0.4-0.4-1,0-1.4C80.9,78.4,81.5,78.4,81.9,78.8z"/>
<path class="st7" d="M54,81.8c-0.2,1.9,1.2,3.5,3.1,3.7c1.9,0.2,3.5-1.2,3.7-3.1c0.2-1.9-1.2-3.5-3.1-3.7
	C55.9,78.5,54.2,79.9,54,81.8z M59.7,80.9c0,0.5-0.5,0.9-1.1,0.9c-0.5-0.1-0.9-0.5-0.9-1.1c0.1-0.5,0.5-0.9,1.1-0.9
	C59.4,79.9,59.8,80.4,59.7,80.9z"/>
<g>
	<g>
		<path class="st7" d="M68.6,101.5c0.2,0.6,0.1,1.3,0.1,2c0,0.7,0,1.5,0,2.2c-0.1,1-0.3,2.5-1.4,3c-0.9,0.4-2,0-2.5-0.8
			c-0.5-0.8-0.6-1.7-0.6-2.6c0-0.9,0.1-1.9,0.4-2.8c0.1-0.2-0.3-0.3-0.3-0.1c-0.3,0.9-0.4,1.9-0.4,2.8c0,1,0.1,2.1,0.6,2.9
			c0.5,0.8,1.5,1.2,2.5,1c1.1-0.3,1.6-1.4,1.8-2.4c0.2-0.9,0.2-1.9,0.1-2.9c0-0.8,0.1-1.6-0.1-2.4C68.9,101.2,68.6,101.3,68.6,101.5
			L68.6,101.5z"/>
	</g>
</g>
<g>
	<g>
		<path class="st7" d="M57.4,129.4c0.3,1.9,1.6,3.5,3.1,4.7c1,0.7,2.5,1.7,3.8,1.3c0.7-0.2,1-0.9,1.1-1.6c0-0.2-0.3-0.2-0.3,0
			c-0.1,0.8-0.6,1.4-1.4,1.3c-0.7,0-1.4-0.3-2-0.7c-1.8-1-3.6-2.9-3.9-5C57.7,129.2,57.4,129.2,57.4,129.4L57.4,129.4z"/>
	</g>
</g>
<g>
	<g>
		<path class="st7" d="M63.2,132.6c0.5,0.5,1.1,0.9,1.8,1c0.6,0.1,1.1-0.4,1.2-1c0.3-1.7-1.2-2.9-2.5-3.7c-0.7-0.4-1.5-0.9-2.4-1.1
			c-0.2-0.1-0.3,0.3-0.1,0.3c0.6,0.2,1.2,0.5,1.8,0.8c0.7,0.4,1.4,0.8,1.9,1.4c0.5,0.4,0.9,1,1,1.6c0,0.6-0.1,1.3-0.8,1.4
			c-0.7,0.1-1.3-0.4-1.7-0.9C63.2,132.3,63,132.5,63.2,132.6L63.2,132.6z"/>
	</g>
</g>
<g>
	<g>
		<path class="st7" d="M102.1,114.4c0,6.6,0.6,13.2,1,19.7c0,0.4,0.7,0.4,0.7,0c-0.4-6.6-1.1-13.1-1-19.7
			C102.7,114,102.1,114,102.1,114.4L102.1,114.4z"/>
	</g>
</g>
<g>
	<g>
		<path class="st7" d="M96.6,80c4,5.8,4.4,12.7,4.4,19.6c0,6.2,0.7,13.5-4.3,18.1c-0.3,0.3,0.1,0.7,0.5,0.5c2-1.8,4.5-3.1,6.3-5.1
			c1.7-1.9,2.4-4.3,2.7-6.8c0.7-6.1-0.4-12.5-2.5-18.2c-0.1-0.4-0.8-0.2-0.6,0.2c2,5.4,3.1,11.4,2.6,17.2c-0.2,2.8-1,5.6-3,7.6
			c-1.8,1.8-4,3-5.9,4.7c0.2,0.2,0.3,0.3,0.5,0.5c5.1-4.6,4.5-11.9,4.5-18.2c0-7.1-0.4-14.3-4.5-20.3C96.9,79.3,96.4,79.7,96.6,80
			L96.6,80z"/>
	</g>
</g>
<g>
	<g>
		<path class="st7" d="M48.8,77.1c-0.3-0.3-0.5-0.7-0.8-1c-0.1-0.1-0.1-0.1-0.2-0.1c-0.1,0-0.2,0-0.3,0c-0.1,0-0.1,0.1-0.1,0.2
			c0,0.1,0,0.2,0,0.3c0.3,0.3,0.5,0.7,0.8,1c0.1,0.1,0.1,0.1,0.2,0.1c0.1,0,0.2,0,0.3,0c0.1,0,0.1-0.1,0.1-0.2
			C48.8,77.3,48.8,77.2,48.8,77.1L48.8,77.1z"/>
	</g>
</g>
<g>
	<g>
		<path class="st7" d="M51.7,75.7c0-0.3,0-0.7,0-1c0-0.2-0.1-0.3-0.3-0.3c-0.2,0-0.3,0.1-0.3,0.3c0,0.3,0,0.7,0,1
			c0,0.2,0.1,0.3,0.3,0.3C51.5,76,51.7,75.9,51.7,75.7L51.7,75.7z"/>
	</g>
</g>
<g>
	<g>
		<path class="st7" d="M57.7,75.5c0.2-0.5,0.3-1,0.5-1.6c0.1-0.2-0.1-0.4-0.2-0.4c-0.2,0-0.3,0.1-0.4,0.2c-0.2,0.5-0.3,1-0.5,1.6
			c-0.1,0.2,0.1,0.4,0.2,0.4C57.4,75.8,57.6,75.7,57.7,75.5L57.7,75.5z"/>
	</g>
</g>
<g>
	<g>
		<path class="st7" d="M79.2,74.3c-0.2-0.4-0.3-0.9-0.5-1.3c0-0.1-0.1-0.1-0.1-0.2c-0.1,0-0.2-0.1-0.3,0c-0.2,0-0.3,0.2-0.2,0.4
			c0.2,0.4,0.3,0.9,0.5,1.3c0,0.1,0.1,0.1,0.1,0.2c0.1,0,0.2,0.1,0.3,0C79.1,74.7,79.3,74.5,79.2,74.3L79.2,74.3z"/>
	</g>
</g>
<g>
	<g>
		<path class="st7" d="M83.4,74.2c0.1-0.4,0.2-0.9,0.3-1.3c0-0.2,0-0.4-0.2-0.4c-0.2,0-0.4,0-0.4,0.2c-0.1,0.4-0.2,0.9-0.3,1.3
			c0,0.2,0,0.4,0.2,0.4C83.1,74.5,83.3,74.4,83.4,74.2L83.4,74.2z"/>
	</g>
</g>
<g>
	<g>
		<path class="st7" d="M87.5,76c0.4,0,0.4-0.7,0-0.7C87.1,75.4,87.1,76,87.5,76L87.5,76z"/>
	</g>
</g>
<g>
	<g>
		<path class="st7" d="M87.8,76.1c0.3-0.4,0.5-0.9,0.8-1.3c0.1-0.1,0-0.4-0.1-0.4c-0.2-0.1-0.4,0-0.4,0.1c-0.3,0.4-0.5,0.9-0.8,1.3
			c-0.1,0.1,0,0.4,0.1,0.4C87.5,76.3,87.7,76.3,87.8,76.1L87.8,76.1z"/>
	</g>
</g>
<g>
	<g>
		<path class="st7" d="M69.5,71.7C63,76,53.9,75.8,48.8,82.1c-2.4,3-3.8,6.8-4.2,10.6c-0.6,4.9-1,10.1-0.5,15
			c0.4,4.5,2.1,9,5.5,12.1c0.1-0.2,0.2-0.4,0.2-0.6c-7-0.6-14.5-4.6-18.1-10.9c-3.4-6.1-1.1-13.7-0.9-20.2c0-0.4-0.6-0.4-0.7,0
			c-0.2,6.8-2.7,15,1.4,21.2c4,6.1,11.1,10,18.2,10.6c0.3,0,0.4-0.4,0.2-0.6c-7.1-6.3-5.5-16.6-5-25.1c0.3-4.2,1.5-8.4,4.2-11.7
			c2.4-3,6-4.5,9.5-5.7c3.8-1.3,7.7-2.3,11.1-4.6C70.1,72,69.8,71.4,69.5,71.7L69.5,71.7z"/>
	</g>
</g>
<g>
	<g>
		<path class="st7" d="M37.3,75.2c3.3-4.3,7.3-8.5,12.5-10.4c2.6-1,5.5-1.4,8.3-0.8c2.7,0.6,5.1,2.1,7.4,3.7
			c0.3,0.2,0.7-0.3,0.3-0.6c-2.3-1.6-4.7-3.2-7.5-3.7c-2.7-0.6-5.6-0.3-8.2,0.6c-5.5,1.9-9.7,6.2-13.2,10.7
			C36.6,75.1,37.1,75.5,37.3,75.2L37.3,75.2z"/>
	</g>
</g>
<g>
	<g>
		<path class="st7" d="M65.9,67.4c8.3-9.8,23.2-1.2,29.5,6.6c0.3,0.3,0.7-0.1,0.5-0.5C89.3,65.4,74,56.9,65.5,67
			C65.2,67.3,65.7,67.8,65.9,67.4L65.9,67.4z"/>
	</g>
</g>
<g>
	<g>
		<path class="st7" d="M65.2,67.1c0.7-0.9,0-1.8-0.5-2.7c-0.3-0.6-0.7-1.3-1-1.9c-0.5-0.8-1.8-3.1-3-2.2c-0.7,0.6-0.7,1.7,0,2.3
			c1.1,0.9,2.5,0.1,3.3-0.9c0.4-0.5,0.8-1.2,0.8-1.8c0-0.7-0.4-1.2-0.9-1.6c-1.2-1-2.7-1.7-4.2-2c-0.8-0.2-1.6-0.3-2.3,0.1
			c-0.6,0.3-1,0.9-0.9,1.5c0.1,0.6,0.7,1,1.3,1.1c0.8,0.1,1.5-0.3,2.1-0.8c0.3-0.2,0-0.8-0.3-0.6C59,58,58.5,58.3,58,58.4
			c-0.6,0-1.2-0.4-0.9-1c0.6-1,2.3-0.5,3.2-0.2c1.1,0.3,2.1,0.9,3,1.5c0.5,0.4,0.9,0.8,0.8,1.5c-0.1,0.6-0.5,1.1-0.9,1.5
			c-0.4,0.4-0.9,0.8-1.4,0.8c-0.6,0-1.1-0.5-0.9-1.1c0.1-0.3,0.3-0.6,0.6-0.5c0.4,0.1,0.7,0.6,1,1c0.4,0.5,0.7,1,0.9,1.5
			c0.3,0.5,0.5,0.9,0.8,1.4c0.3,0.6,1,1.4,0.5,2.1C64.4,67.1,64.9,67.4,65.2,67.1L65.2,67.1z"/>
	</g>
</g>
<g>
	<g>
		<path class="st7" d="M65.9,67.4c0-2.1,0.7-4.1,1.9-5.8c0.2-0.3-0.3-0.7-0.6-0.3c-1.3,1.8-2,3.9-2,6.1
			C65.2,67.8,65.9,67.8,65.9,67.4L65.9,67.4z"/>
	</g>
</g>
<g>
	<g>
		<path class="st7" d="M72.8,102.5c2,1,4.3,1,6.3,0c2-0.9,3.9-3.1,3.5-5.4c-0.1-0.4-0.7-0.2-0.6,0.2c0.4,2.1-1.6,4-3.3,4.7
			c-1.7,0.7-3.8,0.8-5.5-0.1C72.7,101.7,72.4,102.3,72.8,102.5L72.8,102.5z"/>
	</g>
</g>
<g>
	<g>
		<path class="st7" d="M80.6,97.8c1.5-0.7,3.6,0.3,4,1.9c0.1,0.4,0.7,0.2,0.6-0.2c-0.5-2.1-3.1-3.2-5-2.3
			C79.9,97.4,80.2,98,80.6,97.8L80.6,97.8z"/>
	</g>
</g>
<g>
	<g>
		<path class="st7" d="M96.3,37.9c-0.8,1.8-3.5,0.4-4.8-0.1c-0.6-0.2-1.3-0.5-1.8-0.9c-0.3-0.2-0.7-0.4-0.8-0.7
			c-0.2-0.4,0.4-0.5,0.7-0.6c0.2-0.1,0.1-0.4-0.1-0.3c-1.3,0.3-2.8-0.7-2.9-2.1c-0.1-1.4,1.3-2.6,2.7-2.5c0.1,0,0.2-0.1,0.2-0.2
			c0-1.3,0.5-2.8,1.8-3.2c1.2-0.4,2.8,0.5,2.7,1.8c0,0.2,0.3,0.2,0.3,0c0.1-0.9,0.9-1.6,1.8-1.8c0.9-0.2,1.9,0.4,2.5,1.1
			c1.3,1.5,1.1,4.4-1.2,4.7c-0.1,0-0.2,0.2-0.1,0.3c0.8,0.4,1.2,1.5,0.6,2.3c-0.6,0.7-1.8,0.6-2.4-0.1c-0.1,0.1-0.1,0.2-0.2,0.3
			C96,36.2,96.5,37.1,96.3,37.9c-0.1,0.2,0.2,0.3,0.3,0.1c0.3-1-0.3-2.1-1.3-2.3c-0.2,0-0.3,0.1-0.2,0.3c0.7,0.8,2.1,0.9,2.9,0
			c0.7-0.9,0.3-2.3-0.7-2.8c0,0.1-0.1,0.2-0.1,0.3c2.6-0.3,2.9-3.6,1.5-5.3c-0.7-0.8-1.8-1.4-2.9-1.1c-1,0.2-1.8,1-1.9,2.1
			c0.1,0,0.2,0,0.3,0c0-1.4-1.5-2.5-2.8-2.2c-1.6,0.3-2.5,2.1-2.4,3.6c0.1-0.1,0.1-0.1,0.2-0.2c-1.6-0.1-3.2,1.3-3,3
			c0.2,1.5,1.8,2.6,3.3,2.3c0-0.1-0.1-0.2-0.1-0.3c-0.7,0.2-1.3,0.6-0.7,1.3c0.6,0.7,1.6,1,2.3,1.3c1.5,0.6,4.6,2.3,5.5,0.1
			C96.6,37.8,96.4,37.7,96.3,37.9z"/>
	</g>
</g>
<g>
	<g>
		<path class="st7" d="M96,43.2c0.2,0.5,0,1.1,0.4,1.5c0.1,0.1,0.2,0,0.3-0.1c0.4-1.1,1.6-3.1,2.9-2c1.2,1,0.7,3-0.4,3.8
			c0.1,0.1,0.2,0.1,0.3,0.2c0.6-1.2,2.3-0.5,2.2,0.7c-0.1,1.3-1.8,1.5-2.6,0.8c-0.1-0.1-0.3,0-0.3,0.1c0.1,1.4-0.8,2.9-2.3,3
			c-1.5,0.2-2.9-1.6-2.2-3c0.1-0.2-0.1-0.3-0.2-0.2c-1,0.4-2.3-0.3-2.3-1.5c0-1.1,1.3-1.8,2.3-1.4c0.2,0.1,0.3-0.2,0.1-0.3
			c-1.2-0.5-2.7,0.5-2.7,1.8c0.1,1.3,1.6,2.1,2.8,1.6c-0.1-0.1-0.1-0.1-0.2-0.2c-0.8,1.5,0.5,3.4,2.1,3.5c1.8,0.1,3-1.8,2.9-3.4
			c-0.1,0-0.2,0.1-0.3,0.1c1.1,1,3.1,0.5,3.2-1.1c0-1.5-2.1-2.2-2.8-0.8c-0.1,0.2,0.1,0.3,0.3,0.2c1.2-1,1.7-3.3,0.3-4.4
			c-1.5-1.1-3,1-3.4,2.3c0.1,0,0.2,0,0.3-0.1c-0.3-0.3-0.2-0.9-0.4-1.4C96.3,43,96,43.1,96,43.2L96,43.2z"/>
	</g>
</g>
<g>
	<g>
		<path class="st7" d="M94.1,45.2c-0.1-0.6,0-1.3,0.4-1.9c0.1-0.1,0-0.2-0.1-0.2c-0.1,0-0.2,0-0.2,0.1c-0.4,0.6-0.5,1.4-0.4,2.1
			C93.8,45.5,94.1,45.5,94.1,45.2L94.1,45.2z"/>
	</g>
</g>
<g>
	<g>
		<path class="st7" d="M97.8,57.9c-0.9,0.8-2.1,0.5-3.1-0.1c-0.2-0.1-0.3,0.1-0.2,0.3c0.6,0.7-0.1,1.7-0.8,2c-0.3,0.1-0.8,0-1.1-0.2
			c-0.3-0.1-0.6-0.3-0.8-0.6c-0.5-0.5-0.8-1.2-0.8-1.9c0-0.3,0-0.7,0.2-1c0.1-0.2,0.2-0.4,0.3-0.5c0.2-0.1,0.4,0,0.5,0.2
			c0.1,0.2,0.4-0.1,0.2-0.2c-0.2-0.2-0.5-0.4-0.8-0.3c-0.3,0.1-0.5,0.4-0.6,0.7c-0.3,0.7-0.2,1.5,0,2.2c0.3,0.7,0.8,1.3,1.4,1.6
			c0.3,0.2,0.6,0.3,1,0.3c0.4,0,0.7-0.2,1.1-0.4c0.7-0.5,0.9-1.5,0.4-2.2c-0.1,0.1-0.1,0.2-0.2,0.3c1.1,0.6,2.4,0.9,3.5,0
			C98.1,58,97.9,57.7,97.8,57.9L97.8,57.9z"/>
	</g>
</g>
<g>
	<g>
		<path class="st7" d="M91.9,55.7c-0.4-0.3-0.6-0.9-0.3-1.3c0.3-0.4,0.8-0.7,1.3-0.6c0.3,0.1,0.6,0.2,0.8,0.5
			c0.2,0.2,0.3,0.3,0.6,0.3c0.6,0,1.1-0.7,1.7-0.5c0.7,0.2,1.1,1.1,0.5,1.6c-0.1,0.1,0,0.4,0.2,0.3c0.1,0,0.1-0.1,0.2-0.1
			c0.2-0.1,0.1-0.4-0.1-0.3c-0.1,0-0.2,0.1-0.3,0.1c0.1,0.1,0.1,0.2,0.2,0.3c0.5-0.5,0.4-1.3-0.1-1.8c-0.3-0.2-0.6-0.4-0.9-0.4
			c-0.4,0-0.7,0.2-1,0.4c-0.2,0.1-0.4,0.2-0.6,0.2c-0.2,0-0.3-0.2-0.4-0.4c-0.3-0.2-0.6-0.4-0.9-0.4c-0.6-0.1-1.2,0.3-1.5,0.8
			c-0.4,0.7-0.1,1.4,0.4,1.8C91.9,56.2,92.1,55.9,91.9,55.7L91.9,55.7z"/>
	</g>
</g>
<g>
	<g>
		<path class="st7" d="M88.2,60.4c0,0.1,0.1,0.3,0,0.4c0,0.1,0.1,0.3,0.2,0.2c0.6-0.4,1.4,0.4,1.1,1.1c-0.3,0.6-1.1,0.7-1.7,0.4
			c-0.1-0.1-0.3,0.1-0.2,0.2c0.4,0.6-0.6,1.2-1.1,0.8c-0.5-0.3-0.4-1.2-0.1-1.6c0.1-0.2-0.1-0.4-0.2-0.2c-0.4,0.5-0.5,1.3-0.2,1.8
			c0.4,0.6,1.2,0.6,1.7,0.1c0.3-0.3,0.3-0.7,0.1-1c-0.1,0.1-0.1,0.1-0.2,0.2c0.6,0.4,1.4,0.3,1.9-0.2c0.6-0.5,0.4-1.4-0.2-1.8
			c-0.3-0.2-0.8-0.3-1.1,0c0.1,0.1,0.2,0.1,0.2,0.2c0-0.2,0-0.4,0-0.6C88.5,60.1,88.2,60.2,88.2,60.4L88.2,60.4z"/>
	</g>
</g>
<g>
	<g>
		<path class="st7" d="M86.5,61.4c0,0-0.1,0-0.1,0c0,0,0,0-0.1,0c0,0,0,0,0,0c0,0,0,0,0,0c0,0,0,0,0,0c-0.1,0-0.3,0-0.4,0
			c-0.1,0-0.1,0-0.2,0c0,0-0.1,0,0,0c0,0,0,0,0,0c0,0-0.1,0-0.1,0c0,0,0,0,0,0c0,0,0,0,0,0c0,0,0,0,0,0c0,0,0,0,0,0c0,0,0,0,0,0
			c0,0,0,0,0,0c0,0,0,0,0,0c0,0,0,0,0,0c0,0,0,0,0,0c0,0,0,0,0,0c0,0,0,0,0,0c0,0,0,0,0,0c0,0,0,0,0-0.1c0,0,0,0,0,0c0,0,0-0.1,0,0
			c0,0,0,0,0,0c0,0,0,0,0,0c0,0,0,0,0,0c0,0,0,0,0,0c0,0,0,0,0,0c0.2-0.1,0.4-0.2,0.6-0.3c0.2-0.1,0.4-0.1,0.5-0.2
			c0.1,0,0.1-0.1,0.1-0.2c0-0.1-0.1-0.1-0.2-0.1c-0.2,0.1-0.3,0.2-0.5,0.2c-0.2,0.1-0.4,0.2-0.6,0.3c-0.2,0.1-0.4,0.3-0.3,0.6
			c0.1,0.3,0.3,0.4,0.6,0.4c0.3,0,0.6,0,0.9-0.1c0.1,0,0.1-0.1,0.1-0.2C86.6,61.4,86.5,61.4,86.5,61.4L86.5,61.4z"/>
	</g>
</g>
<g>
	<g>
		<path class="st7" d="M22.9,136.8c25.5-0.6,51.1-1.3,76.6-1.9c7.2-0.2,14.5-0.4,21.7-0.6c0.4,0,0.4-0.7,0-0.7
			c-25.5,0.6-51.1,1.3-76.6,1.9c-7.2,0.2-14.5,0.4-21.7,0.6C22.5,136.1,22.5,136.8,22.9,136.8L22.9,136.8z"/>
	</g>
</g>
<g>
	<g>
		<path class="st7" d="M86.8,60.2c0-0.3,0.4-0.6,0.7-0.6c0.4,0,0.6,0.4,0.7,0.7c0,0.1,0.1,0.1,0.2,0.1c0.1,0,0.1-0.1,0.1-0.2
			c-0.1-0.5-0.5-0.9-1-1c-0.5,0-1,0.4-1,0.9C86.5,60.4,86.8,60.4,86.8,60.2L86.8,60.2z"/>
	</g>
</g>
<g>
	<g>
		<path class="st7" d="M98,58c0.3-0.5,0.3-1.2,0.1-1.7c-0.1-0.3-0.2-0.6-0.5-0.7c-0.2-0.2-0.6-0.2-0.8,0c-0.1,0.1-0.1,0.2,0,0.2
			c0.1,0.1,0.2,0.1,0.2,0c0.2-0.1,0.4,0,0.5,0.2c0.1,0.2,0.2,0.4,0.3,0.6c0.1,0.4,0.1,0.9-0.1,1.3C97.7,58,97.9,58.1,98,58L98,58z"
			/>
	</g>
</g>
<g>
	<g>
		<path class="st7" d="M94.5,43.3c0.1-0.3,0.5-0.4,0.8-0.4c0.2,0,0.4,0,0.5,0c0.1,0,0.2,0.1,0.2,0.2c0,0.2,0.3,0.3,0.3,0.1
			c0-0.2-0.1-0.4-0.3-0.6c-0.2-0.1-0.5-0.1-0.7-0.1c-0.4,0-1,0.1-1.2,0.5C94.1,43.3,94.4,43.4,94.5,43.3L94.5,43.3z"/>
	</g>
</g>
<path class="st9" d="M34.5,32.8l11.8-18.6l13.7-1.5l3.7-0.5c0.3,0.8,0.6,1.6,0.9,2.4c0,0.2-0.1,0.5-0.4,0.6c-0.1,0.1-0.2,0-0.5,0
	c0,0,0,0-0.8,0.1c-0.2,0-1.8,0.2-1.8,0.2c-0.6,0.1-2.1,0.2-5.6,0.5c0.2,3.3,0.3,6.6,0.4,10.1c0.1,5.3,0,10.5-0.2,15.4
	c-0.1,0.2-0.2,0.4-0.5,0.7c-0.7,0.8-1.8,0.8-2.2,0.9c-2.4,0.2-3.6,0.3-7.9,0.3c-4.9,0-6.7,1-9.3-0.5c-0.6-0.4-1-0.7-1.3-1
	c-0.3-0.3-0.6-0.7-0.9-1.3c-0.4-1-0.3-1.9,0-4.2C34.1,35.1,34.3,33.9,34.5,32.8z"/>
<path class="st10" d="M63.4,27.3l-2.8-0.1l0.8-2.3l7.2-0.5l10.6,11.8c0.4,1.2,0.7,3.1,0,5.2c-0.1,0.3-0.2,0.6-0.4,0.9
	c-0.2,0.3-0.5,0.7-0.9,1c-1.3,0.8-2.8,0.4-4.5,0.1c-1.3-0.2-3-0.3-5.3-0.1C66.6,38,65,32.7,63.4,27.3z"/>
<path class="st11" d="M55.9,24.9c1.9-0.2,3.8-0.5,5.8-0.7c0.8-3,1.7-5.9,2.5-8.9c-2.8,0.3-5.7,0.5-8.5,0.8
	C55.7,19,55.8,22,55.9,24.9z"/>
<path class="st12" d="M58.1,27.6c1.8-0.1,3.6-0.3,5.4-0.4c-0.6,1.3-1.2,2.6-1.8,3.8l-4.3,0.3C57.6,30.1,57.8,28.8,58.1,27.6z"/>
<path class="st13" d="M63.4,27.3L61.7,31c0.4,1.5,0.8,2.9,1.1,4c0.3,0.9,0.6,2,1,3.4c0.3,1,0.6,2,0.9,3c0.1,0.3,0.2,0.9,0.7,1.5
	c0.2,0.3,0.5,0.6,0.7,0.8c0,0,0.1,0,0.1,0.1c0,0,0.1,0,0.1,0.1c0.1,0,0.1,0,0.2,0.1c0.2,0.1,0.6,0.1,1.1,0c0.5-0.1,0.9-0.3,1-0.5
	C66.8,38,65.1,32.7,63.4,27.3z"/>
<path class="st13" d="M57.4,31.3c0.4-2.2,0.8-4.5,1.2-6.7c-0.3,0.1-0.6,0.1-0.8,0.2c-0.2,1.5-0.5,2.9-0.7,4.4L57.4,31.3z"/>
<path class="st14" d="M58.6,24.6c1-0.1,2-0.3,3-0.4c-0.3,1.1-0.7,2.1-1,3.2c-0.9,0.1-1.7,0.2-2.6,0.2C58.2,26.6,58.4,25.6,58.6,24.6
	z"/>
<path class="st15" d="M34.7,37.4c7.1-0.2,14.2-0.3,21.3-0.5c0,0.6,0,1.2,0,1.8c-7.2,0.1-14.4,0.2-21.5,0.3
	C34.5,38.4,34.6,37.9,34.7,37.4z"/>
<path class="st15" d="M35.1,36.2c0.1-0.5,0.2-1,0.3-1.5c6.9-0.2,13.8-0.4,20.7-0.7c0,0.5,0,1,0,1.5C49,35.8,42,36,35.1,36.2z"/>
<path class="st15" d="M35.9,33.8c0.3-0.5,0.6-0.9,0.8-1.4c6.4-0.3,12.9-0.7,19.3-1c0,0.5,0,1,0,1.5C49.3,33.2,42.6,33.5,35.9,33.8z"
	/>
<path class="st16" d="M38,30.1l-0.7,1.2c6.3-0.3,12.5-0.7,18.8-1c0-0.4,0-0.8,0-1.3C50,29.4,44,29.8,38,30.1z"/>
<path class="st17" d="M38.7,29.1c2.7-0.1,5.5-0.2,8.4-0.4c3.1-0.2,6-0.5,8.8-0.8c0-0.4,0-0.8,0-1.2c-2.6,0.1-5.4,0.2-8.2,0.4
	c-2.8,0.2-5.6,0.4-8.3,0.7C39.3,28.2,39,28.7,38.7,29.1z"/>
<path class="st17" d="M40.1,26.9c2.5-0.2,4.5-0.3,5.9-0.4c2.4-0.1,3.7-0.2,5.8-0.4c1.8-0.2,3.3-0.4,4.2-0.5c0-0.3,0-0.6,0-1
	c-2.7,0.1-5.5,0.2-8.4,0.5c-2.4,0.2-4.7,0.4-6.9,0.7c-0.1,0.1-0.3,0.3-0.4,0.6C40.2,26.5,40.1,26.7,40.1,26.9z"/>
<path class="st17" d="M41.2,25c4.9-0.4,9.8-0.7,14.7-1.1c0-0.4,0-0.8,0-1.2c-4.6,0.4-9.3,0.8-13.9,1.2L41.2,25z"/>
<path class="st17" d="M42.4,23.1c2.3-0.3,4.7-0.5,7.1-0.7c2.2-0.2,4.3-0.4,6.4-0.5c0-0.3,0-0.6,0-0.9c-1.1,0-2.2,0.1-3.4,0.2
	c-3.3,0.2-6.4,0.5-9.4,1C42.8,22.4,42.6,22.8,42.4,23.1z"/>
<path class="st17" d="M43.5,21.2c4.1-0.4,8.2-0.7,12.3-1.1c0-0.3,0-0.6,0-0.9c-3.9,0.4-7.7,0.7-11.6,1.1
	C44,20.6,43.7,20.9,43.5,21.2z"/>
<path class="st17" d="M44.7,19.5c3.7-0.3,7.4-0.7,11-1c0-0.2,0-0.5,0-0.7c-3.5,0.4-7,0.7-10.5,1.1C45,19.1,44.8,19.3,44.7,19.5z"/>
<path class="st17" d="M45.6,18l10-0.9l0-1c-3.1,0.4-6.3,0.7-9.4,1.1C46,17.4,45.8,17.7,45.6,18z"/>
<path class="st17" d="M47.3,15.1l12.4-1.4l-0.1-0.4c-3.9,0.4-7.9,0.8-11.8,1.2C47.6,14.8,47.4,15,47.3,15.1z"/>
<path class="st17" d="M46.4,16.6c0.2-0.2,0.3-0.5,0.5-0.7c2-0.3,4-0.6,6.1-0.8c2.5-0.3,4.9-0.5,7.2-0.6c0,0.2,0.1,0.4,0.1,0.5
	C55.7,15.5,51.1,16,46.4,16.6z"/>
<path class="st18" d="M60,12.7c0.1,0.8,0.2,1.5,0.4,2.3l4.1-0.3l-0.8-2.4C62.5,12.4,61.2,12.6,60,12.7z"/>
<g>
	<g>
		<g>
			<path class="st19" d="M34.6,32.9c3.9-6.2,7.8-12.4,11.8-18.6c0-0.1-0.1-0.1-0.1-0.1c-3.9,6.2-7.8,12.4-11.8,18.6
				C34.4,32.9,34.5,32.9,34.6,32.9L34.6,32.9z"/>
		</g>
	</g>
	<g>
		<g>
			<path class="st19" d="M46.4,14.3c5.7-0.7,11.5-1.4,17.3-2c0.1,0,0.1-0.1,0-0.1c-5.8,0.6-11.5,1.3-17.3,2
				C46.3,14.2,46.3,14.3,46.4,14.3L46.4,14.3z"/>
		</g>
	</g>
	<g>
		<g>
			<path class="st19" d="M46.3,13.8c5.4-0.6,10.8-1.2,16.3-1.9c0.1,0,0.1-0.1,0-0.1c-5.4,0.7-10.8,1.3-16.3,1.9
				C46.2,13.7,46.2,13.9,46.3,13.8L46.3,13.8z"/>
		</g>
	</g>
	<g>
		<g>
			<path class="st19" d="M46.4,13.7c0,0.1,0.1,0.2,0.1,0.4c0,0,0,0.1,0.1,0c0,0,0.1,0,0-0.1c0-0.1-0.1-0.2-0.1-0.4
				C46.5,13.7,46.5,13.6,46.4,13.7C46.4,13.7,46.4,13.7,46.4,13.7L46.4,13.7z"/>
		</g>
	</g>
	<g>
		<g>
			<path class="st19" d="M62.4,12c0,0.1-0.1,0.2,0,0.3c0,0,0.1,0,0.1,0c0,0,0.1,0,0.1,0c0,0,0,0,0-0.1c0,0,0-0.1,0-0.1c0,0,0,0,0,0
				c0,0,0,0-0.1,0c0,0,0,0,0,0c0,0,0,0,0,0c0,0,0,0,0,0c0,0,0,0,0,0c0,0,0,0,0,0c0,0,0,0,0,0c0,0,0,0,0,0c0,0,0,0,0,0c0,0,0,0,0,0
				c0,0,0,0,0,0c0,0,0,0,0,0c0,0,0,0,0,0c0,0,0,0,0,0c0,0,0,0,0,0c0,0,0,0,0,0c0,0,0,0,0,0c0,0,0,0,0,0c0,0,0,0,0,0c0,0,0,0,0,0
				c0,0,0,0,0,0c0,0,0,0,0,0c0,0,0,0,0,0c0,0,0,0,0,0c0,0,0,0,0,0c0,0,0,0,0,0c0,0,0,0,0,0c0,0,0,0,0,0c0,0,0,0,0,0c0,0,0,0,0,0
				c0,0,0,0,0,0c0,0,0,0,0,0c0,0,0,0,0,0c0,0,0,0,0,0c0,0,0,0,0,0c0,0,0,0,0,0c0,0,0,0,0-0.1C62.5,12.1,62.5,12,62.4,12
				C62.4,12,62.4,12,62.4,12L62.4,12z"/>
		</g>
	</g>
	<g>
		<g>
			<path class="st19" d="M48,13.8c0,0.1,0,0.1,0.1,0.2c0,0,0,0.1,0.1,0c0,0,0.1,0,0-0.1c0-0.1,0-0.1-0.1-0.2
				C48.1,13.7,48.1,13.7,48,13.8C48,13.7,48,13.8,48,13.8L48,13.8z"/>
		</g>
	</g>
	<g>
		<g>
			<path class="st19" d="M47.4,13.8c0,0.1,0,0.2,0.1,0.2c0,0,0.1,0,0.1,0c0,0,0-0.1,0-0.1c0,0,0,0,0,0c0,0,0,0,0,0c0,0,0,0,0,0
				c0,0,0,0,0,0c0,0,0,0,0,0c0,0,0,0,0,0c0,0,0,0,0,0c0,0,0,0,0,0c0,0,0,0,0,0c0,0,0,0,0,0c0,0,0,0,0,0c0,0,0,0,0,0c0,0,0,0,0,0
				C47.5,13.8,47.5,13.8,47.4,13.8C47.4,13.8,47.4,13.8,47.4,13.8L47.4,13.8z"/>
		</g>
	</g>
	<g>
		<g>
			<path class="st19" d="M48.7,13.7c0,0,0,0.1,0,0.1c0,0,0,0.1,0.1,0.1c0,0,0.1,0,0.1-0.1c0,0,0-0.1,0-0.1
				C48.9,13.7,48.8,13.6,48.7,13.7C48.8,13.7,48.7,13.7,48.7,13.7L48.7,13.7z"/>
		</g>
	</g>
	<g>
		<g>
			<path class="st19" d="M49.5,13.6c0,0,0,0.1,0,0.1c0,0,0,0.1,0.1,0.1c0,0,0.1,0,0.1-0.1c0,0,0-0.1,0-0.1
				C49.6,13.5,49.6,13.5,49.5,13.6C49.5,13.5,49.5,13.5,49.5,13.6L49.5,13.6z"/>
		</g>
	</g>
	<g>
		<g>
			<path class="st19" d="M50.8,13.5C50.8,13.5,50.8,13.5,50.8,13.5C50.8,13.5,50.8,13.5,50.8,13.5C50.8,13.5,50.8,13.5,50.8,13.5
				C50.8,13.5,50.8,13.5,50.8,13.5C50.8,13.5,50.8,13.5,50.8,13.5C50.8,13.5,50.8,13.5,50.8,13.5C50.8,13.5,50.8,13.5,50.8,13.5
				C50.8,13.5,50.8,13.5,50.8,13.5C50.8,13.5,50.8,13.5,50.8,13.5C50.8,13.5,50.8,13.5,50.8,13.5C50.8,13.5,50.8,13.5,50.8,13.5
				C50.8,13.5,50.8,13.5,50.8,13.5C50.8,13.5,50.8,13.5,50.8,13.5c0,0.1,0,0.1,0.1,0.1c0,0,0.1,0,0.1,0c0,0,0-0.1,0-0.1
				c0,0-0.1-0.1-0.1-0.1C50.8,13.4,50.8,13.4,50.8,13.5C50.7,13.4,50.8,13.5,50.8,13.5L50.8,13.5z"/>
		</g>
	</g>
	<g>
		<g>
			<path class="st19" d="M51.5,13.3c0,0.1,0,0.2,0,0.3c0,0,0,0.1,0.1,0.1c0,0,0.1,0,0.1-0.1c0-0.1,0-0.2,0-0.3
				C51.7,13.3,51.6,13.2,51.5,13.3C51.6,13.2,51.5,13.2,51.5,13.3L51.5,13.3z"/>
		</g>
	</g>
	<g>
		<g>
			<path class="st19" d="M52.2,13.3c0,0,0,0.1,0,0.1c0,0,0,0.1,0.1,0.1c0,0,0.1,0,0.1-0.1c0,0,0-0.1,0-0.1
				C52.3,13.3,52.3,13.2,52.2,13.3C52.2,13.2,52.2,13.2,52.2,13.3L52.2,13.3z"/>
		</g>
	</g>
	<g>
		<g>
			<path class="st19" d="M53,13.3c0.1,0,0.1-0.1,0-0.1C53,13.1,53,13.3,53,13.3L53,13.3z"/>
		</g>
	</g>
	<g>
		<g>
			<path class="st19" d="M53.9,12.9c-0.1,0-0.1,0.1-0.1,0.2c0,0.1,0,0.1,0.1,0.2c0,0,0.1,0,0.1,0c0,0,0-0.1,0-0.1c0,0,0,0,0,0
				c0,0,0,0,0,0c0,0,0,0,0,0c0,0,0,0,0,0c0,0,0,0,0,0c0,0,0,0,0,0c0,0,0,0,0,0c0,0,0,0,0,0c0,0,0,0,0,0c0,0,0,0,0,0c0,0,0,0,0,0
				c0,0,0,0,0,0c0,0,0,0,0,0c0,0,0,0,0,0c0,0,0,0,0,0c0,0,0,0,0,0c0,0,0,0,0,0C53.9,13,54,13,53.9,12.9C54,13,54,13,53.9,12.9
				C53.9,12.9,53.9,12.9,53.9,12.9L53.9,12.9z"/>
		</g>
	</g>
	<g>
		<g>
			<path class="st19" d="M63.7,12.3c0.2,0.7,0.5,1.5,0.7,2.2c0,0.1,0.1,0,0.1,0c-0.2-0.7-0.5-1.5-0.7-2.2
				C63.8,12.2,63.6,12.2,63.7,12.3L63.7,12.3z"/>
		</g>
	</g>
	<g>
		<g>
			<path class="st19" d="M64.4,14.6c-1.3,4.2-2.5,8.4-3.8,12.6c0,0.1,0.1,0.1,0.1,0c1.3-4.2,2.5-8.4,3.8-12.6
				C64.5,14.5,64.4,14.5,64.4,14.6L64.4,14.6z"/>
		</g>
	</g>
	<g>
		<g>
			<path class="st19" d="M54.5,13c0,0.1,0,0.1-0.1,0.2c0,0,0,0.1,0,0.1c0,0,0.1,0,0.1,0c0-0.1,0-0.1,0.1-0.2
				C54.6,13,54.6,12.9,54.5,13C54.5,12.9,54.5,12.9,54.5,13L54.5,13z"/>
		</g>
	</g>
	<g>
		<g>
			<path class="st19" d="M55.1,13c0,0,0,0.1,0.1,0.1c0,0,0,0,0,0c0,0,0,0,0.1,0c0,0,0,0,0,0c0,0,0,0,0-0.1c0,0,0-0.1-0.1-0.1
				C55.2,12.9,55.2,12.9,55.1,13C55.2,12.9,55.2,12.9,55.1,13C55.1,12.9,55.1,12.9,55.1,13C55.1,12.9,55.1,12.9,55.1,13L55.1,13z"/>
		</g>
	</g>
	<g>
		<g>
			<path class="st19" d="M56.5,12.7c0,0-0.1,0.1-0.1,0.1c0,0,0,0.1,0,0.1c0,0,0.1,0,0.1,0c0,0,0-0.1,0-0.1c0,0,0,0,0,0c0,0,0,0,0,0
				c0,0,0,0,0,0c0,0,0,0,0,0c0,0,0,0,0,0c0,0,0,0,0,0c0,0,0,0,0,0c0,0,0,0,0,0c0,0,0,0,0,0c0,0,0,0,0,0c0,0,0,0,0,0c0,0,0,0,0,0
				c0,0,0,0,0,0c0,0,0,0,0,0c0,0,0,0,0,0C56.6,12.8,56.6,12.8,56.5,12.7C56.6,12.7,56.6,12.7,56.5,12.7
				C56.6,12.7,56.6,12.6,56.5,12.7L56.5,12.7z"/>
		</g>
	</g>
	<g>
		<g>
			<path class="st19" d="M58,12.6C58,12.6,58,12.6,58,12.6C58,12.6,58,12.6,58,12.6C58,12.6,58,12.6,58,12.6
				C58,12.6,58,12.6,58,12.6C58,12.6,58,12.6,58,12.6C58,12.6,58,12.6,58,12.6C58,12.6,58,12.6,58,12.6C58,12.7,58,12.7,58,12.6
				C58,12.7,58,12.7,58,12.6C58,12.7,58,12.7,58,12.6C58,12.7,58,12.7,58,12.6c0,0.1,0,0.1,0,0.1C58,12.7,58,12.7,58,12.6
				c0,0.1,0,0.1,0,0.1c0,0,0,0,0,0c0,0,0,0,0,0c0,0,0,0.1,0,0.1c0,0,0.1,0,0.1,0c0-0.1,0-0.1,0-0.2c0-0.1-0.1-0.1-0.1-0.1
				C58,12.5,57.9,12.5,58,12.6C57.9,12.6,57.9,12.6,58,12.6L58,12.6z"/>
		</g>
	</g>
	<g>
		<g>
			<path class="st19" d="M57.3,12.6c0,0,0,0.1,0,0.1c0,0,0,0,0,0c0,0,0,0,0,0c0,0,0.1,0,0.1-0.1c0,0,0-0.1,0-0.1c0,0,0,0,0,0
				C57.4,12.6,57.3,12.6,57.3,12.6C57.3,12.6,57.2,12.6,57.3,12.6L57.3,12.6z"/>
		</g>
	</g>
	<g>
		<g>
			<path class="st19" d="M59.3,12.5c0,0.1,0.1,0.1,0.1,0.2c0,0,0.1,0,0.1,0c0,0,0-0.1,0-0.1c0-0.1-0.1-0.1-0.1-0.2
				C59.4,12.4,59.4,12.3,59.3,12.5C59.3,12.4,59.3,12.4,59.3,12.5L59.3,12.5z"/>
		</g>
	</g>
	<g>
		<g>
			<path class="st19" d="M60.9,12.2c0,0.1,0.1,0.1,0.1,0.2c0,0,0,0,0,0c0,0,0,0,0.1,0c0,0,0.1,0,0-0.1c0-0.1-0.1-0.1-0.1-0.2
				C61,12.2,61,12.2,60.9,12.2C60.9,12.1,60.9,12.1,60.9,12.2C60.9,12.2,60.9,12.2,60.9,12.2L60.9,12.2z"/>
		</g>
	</g>
	<g>
		<g>
			<path class="st19" d="M61.6,12.2c0,0.1,0,0.1,0,0.2c0,0,0,0.1,0.1,0.1c0,0,0.1,0,0.1-0.1c0-0.1,0-0.1,0-0.2
				C61.8,12.2,61.7,12.1,61.6,12.2C61.7,12.1,61.6,12.2,61.6,12.2L61.6,12.2z"/>
		</g>
	</g>
	<g>
		<g>
			<path class="st19" d="M60.1,12.4c0,0.1,0.1,0.1,0.1,0.2c0,0,0,0,0,0c0,0,0,0,0.1,0c0,0,0-0.1,0-0.1c0-0.1-0.1-0.1-0.1-0.2
				C60.2,12.3,60.2,12.3,60.1,12.4C60.1,12.3,60.1,12.3,60.1,12.4C60.1,12.3,60.1,12.3,60.1,12.4L60.1,12.4z"/>
		</g>
	</g>
	<g>
		<g>
			<path class="st19" d="M58.7,12.5c0,0.1,0.1,0.1,0.1,0.2c0,0,0,0,0,0c0,0,0,0,0.1,0c0,0,0.1,0,0-0.1c0-0.1-0.1-0.1-0.1-0.2
				C58.8,12.5,58.8,12.5,58.7,12.5C58.8,12.4,58.8,12.4,58.7,12.5C58.7,12.4,58.7,12.5,58.7,12.5L58.7,12.5z"/>
		</g>
	</g>
	<g>
		<g>
			<path class="st19" d="M60,12.9c0.1,0.7,0.2,1.4,0.3,2.1c0,0.1,0.1,0,0.1,0c-0.1-0.7-0.2-1.4-0.3-2.1C60.1,12.8,60,12.9,60,12.9
				L60,12.9z"/>
		</g>
	</g>
	<g>
		<g>
			<path class="st19" d="M60.4,15c1.4-0.1,2.7-0.2,4.1-0.3c0.1,0,0.1-0.1,0-0.1c-1.4,0.1-2.7,0.2-4.1,0.3C60.3,14.9,60.3,15,60.4,15
				L60.4,15z"/>
		</g>
	</g>
	<g>
		<g>
			<path class="st19" d="M60.1,13c-0.1,0.1-0.1,0.1-0.2,0.2c0,0,0,0.1,0,0.1c0,0,0.1,0,0.1,0C60,13.2,60.1,13.1,60.1,13
				C60.2,13,60.2,13,60.1,13C60.2,12.9,60.1,12.9,60.1,13L60.1,13z"/>
		</g>
	</g>
	<g>
		<g>
			<path class="st19" d="M59.8,13.2c0.1,0.7,0.2,1.4,0.4,2.1c0,0.1,0.1,0,0.1,0c-0.1-0.7-0.2-1.4-0.4-2.1
				C59.9,13.1,59.8,13.2,59.8,13.2L59.8,13.2z"/>
		</g>
	</g>
	<g>
		<g>
			<path class="st19" d="M60.4,15.3C60.4,15.3,60.4,15.2,60.4,15.3C60.4,15.2,60.4,15.2,60.4,15.3C60.4,15.2,60.4,15.2,60.4,15.3
				C60.4,15.2,60.4,15.2,60.4,15.3C60.4,15.2,60.4,15.2,60.4,15.3c0-0.1,0-0.1,0-0.1c0,0,0,0,0,0c0,0,0,0,0,0c0,0,0,0,0,0
				c0,0,0,0,0,0c0,0,0,0,0,0c0,0,0,0,0,0c0,0,0,0,0,0c0,0,0,0,0,0c0,0,0,0,0,0c0,0,0,0,0,0c0,0,0,0,0,0c0,0,0,0,0,0c0,0,0,0,0,0
				c0,0,0,0,0,0c0,0,0,0,0,0c0,0,0,0,0,0c0,0,0,0,0,0c0,0,0,0,0,0c0,0,0.1,0,0-0.1c0,0,0-0.1-0.1,0c-0.1,0-0.1,0.1-0.2,0.2
				c0,0.1,0,0.2,0,0.3C60.3,15.3,60.3,15.4,60.4,15.3C60.4,15.3,60.4,15.3,60.4,15.3L60.4,15.3z"/>
		</g>
	</g>
	<g>
		<g>
			<path class="st19" d="M60.4,15.4c1.3-0.3,2.6-0.4,3.9-0.3c0.1,0,0.1-0.1,0-0.1c-1.3,0-2.7,0.1-4,0.3
				C60.2,15.3,60.3,15.4,60.4,15.4L60.4,15.4z"/>
		</g>
	</g>
	<g>
		<g>
			<path class="st19" d="M55.8,16.2c2.8-0.3,5.5-0.6,8.3-0.8c0.1,0,0.1-0.1,0-0.1c-2.8,0.3-5.5,0.6-8.3,0.8
				C55.8,16.1,55.8,16.3,55.8,16.2L55.8,16.2z"/>
		</g>
	</g>
	<g>
		<g>
			<path class="st19" d="M44.9,16.8c5.1-0.6,10.1-1.1,15.2-1.7c0.1,0,0.1-0.1,0-0.1c-5.1,0.6-10.1,1.1-15.2,1.7
				C44.8,16.7,44.8,16.8,44.9,16.8L44.9,16.8z"/>
		</g>
	</g>
	<g>
		<g>
			<path class="st19" d="M46,14.9c4.5-0.5,9-0.9,13.5-1.4c0.1,0,0.1-0.1,0-0.1c-4.5,0.5-9,0.9-13.5,1.4C45.9,14.8,45.9,14.9,46,14.9
				L46,14.9z"/>
		</g>
	</g>
	<g>
		<g>
			<path class="st19" d="M45.7,15.5c0.1,0,0.1-0.1,0-0.1C45.6,15.4,45.6,15.5,45.7,15.5L45.7,15.5z"/>
		</g>
	</g>
	<g>
		<g>
			<path class="st19" d="M45.7,15.4c4.7-0.5,9.4-1.1,14-1.6c0.1,0,0.1-0.1,0-0.1c-4.7,0.5-9.4,1.1-14,1.6
				C45.6,15.3,45.6,15.4,45.7,15.4L45.7,15.4z"/>
		</g>
	</g>
	<g>
		<g>
			<path class="st19" d="M59.6,13.3c0,0.1,0,0.2-0.1,0.4c0,0,0,0.1,0,0.1c0,0,0.1,0,0.1,0c0-0.1,0-0.2,0.1-0.4
				C59.7,13.3,59.7,13.3,59.6,13.3C59.6,13.3,59.6,13.3,59.6,13.3L59.6,13.3z"/>
		</g>
	</g>
	<g>
		<g>
			<path class="st19" d="M45.3,16.1c4.8-0.7,9.6-1.2,14.4-1.5c0.1,0,0.1-0.1,0-0.1c-4.8,0.3-9.6,0.8-14.4,1.5
				C45.2,16,45.2,16.1,45.3,16.1L45.3,16.1z"/>
		</g>
	</g>
	<g>
		<g>
			<path class="st19" d="M44.4,17.4c3.7-0.3,7.5-0.8,11.2-1.2c0.1,0,0.1-0.1,0-0.1c-3.7,0.5-7.4,0.9-11.2,1.2
				C44.4,17.3,44.4,17.4,44.4,17.4L44.4,17.4z"/>
		</g>
	</g>
	<g>
		<g>
			<path class="st19" d="M43.9,18.3c3.9-0.5,7.8-0.9,11.7-1.2c0.1,0,0.1-0.1,0-0.1c-3.9,0.3-7.8,0.7-11.7,1.2
				C43.9,18.2,43.9,18.4,43.9,18.3L43.9,18.3z"/>
		</g>
	</g>
	<g>
		<g>
			<path class="st19" d="M43.4,18.9c4-0.3,8.1-0.6,12.1-1.1c0.1,0,0.1-0.1,0-0.1c-4,0.4-8.1,0.8-12.1,1.1
				C43.3,18.8,43.3,18.9,43.4,18.9L43.4,18.9z"/>
		</g>
	</g>
	<g>
		<g>
			<path class="st19" d="M42.9,19.8c4.2-0.4,8.5-0.9,12.7-1.3c0.1,0,0.1-0.1,0-0.1c-4.2,0.4-8.5,0.9-12.7,1.3
				C42.8,19.7,42.8,19.9,42.9,19.8L42.9,19.8z"/>
		</g>
	</g>
	<g>
		<g>
			<path class="st19" d="M42.4,20.5c4.4-0.4,8.8-0.8,13.3-1.2c0.1,0,0.1-0.1,0-0.1c-4.4,0.4-8.8,0.8-13.3,1.2
				C42.4,20.4,42.4,20.5,42.4,20.5L42.4,20.5z"/>
		</g>
	</g>
	<g>
		<g>
			<path class="st19" d="M41.9,21.5c4.6-0.4,9.2-0.9,13.8-1.3c0.1,0,0.1-0.1,0-0.1c-4.6,0.4-9.2,0.9-13.8,1.3
				C41.8,21.4,41.8,21.5,41.9,21.5L41.9,21.5z"/>
		</g>
	</g>
	<g>
		<g>
			<path class="st19" d="M41.4,22.3c4.7-0.6,9.5-1,14.3-1.3c0.1,0,0.1-0.1,0-0.1c-4.8,0.3-9.5,0.8-14.3,1.3
				C41.4,22.2,41.4,22.3,41.4,22.3L41.4,22.3z"/>
		</g>
	</g>
	<g>
		<g>
			<path class="st19" d="M40.8,23.3c5-0.6,10-1.1,15-1.4c0.1,0,0.1-0.1,0-0.1c-5,0.3-10,0.7-15,1.4C40.7,23.2,40.7,23.4,40.8,23.3
				L40.8,23.3z"/>
		</g>
	</g>
	<g>
		<g>
			<path class="st19" d="M40.2,24.1c5.2-0.4,10.3-0.9,15.5-1.3c0.1,0,0.1-0.1,0-0.1c-5.2,0.4-10.3,0.9-15.5,1.3
				C40.1,24,40.1,24.1,40.2,24.1L40.2,24.1z"/>
		</g>
	</g>
	<g>
		<g>
			<path class="st19" d="M39.5,25.1c5.4-0.4,10.7-0.8,16.1-1.3c0.1,0,0.1-0.1,0-0.1c-5.4,0.4-10.7,0.8-16.1,1.3
				C39.4,25,39.4,25.2,39.5,25.1L39.5,25.1z"/>
		</g>
	</g>
	<g>
		<g>
			<path class="st19" d="M39.1,26c5.6-0.7,11.2-1.2,16.8-1.3c0.1,0,0.1-0.1,0-0.1c-5.6,0.2-11.2,0.6-16.8,1.3C39,25.9,39,26,39.1,26
				L39.1,26z"/>
		</g>
	</g>
	<g>
		<g>
			<path class="st19" d="M38.3,27.2c5.8-0.8,11.6-0.6,17.4-1.5c0.1,0,0-0.1,0-0.1c-5.7,1-11.6,0.7-17.4,1.5
				C38.2,27.1,38.3,27.2,38.3,27.2L38.3,27.2z"/>
		</g>
	</g>
	<g>
		<g>
			<path class="st19" d="M37.8,28c6-0.6,12.1-1,18.1-1.2c0.1,0,0.1-0.1,0-0.1c-6,0.2-12.1,0.6-18.1,1.2C37.7,27.9,37.7,28,37.8,28
				L37.8,28z"/>
		</g>
	</g>
	<g>
		<g>
			<path class="st19" d="M37,29.2c6.3-0.1,12.6-0.5,18.8-1.2c0.1,0,0.1-0.1,0-0.1c-6.3,0.6-12.5,1-18.8,1.2
				C36.9,29.1,36.9,29.2,37,29.2L37,29.2z"/>
		</g>
	</g>
	<g>
		<g>
			<path class="st19" d="M36.4,30.2c6.5-0.4,12.9-0.7,19.4-1.1c0.1,0,0.1-0.1,0-0.1c-6.5,0.4-12.9,0.7-19.4,1.1
				C36.3,30.1,36.3,30.2,36.4,30.2L36.4,30.2z"/>
		</g>
	</g>
	<g>
		<g>
			<path class="st19" d="M35.6,31.5c6.8-0.3,13.5-0.6,20.3-1.1c0.1,0,0.1-0.1,0-0.1c-6.7,0.4-13.5,0.8-20.3,1.1
				C35.6,31.3,35.6,31.5,35.6,31.5L35.6,31.5z"/>
		</g>
	</g>
	<g>
		<g>
			<path class="st19" d="M34.9,32.5c7-0.2,13.9-0.6,20.9-1.1c0.1,0,0.1-0.1,0-0.1c-7,0.5-13.9,0.9-20.9,1.1
				C34.8,32.4,34.8,32.5,34.9,32.5L34.9,32.5z"/>
		</g>
	</g>
	<g>
		<g>
			<path class="st19" d="M35.5,33.9c6.8-0.3,13.6-0.6,20.4-0.9c0.1,0,0.1-0.1,0-0.1c-6.8,0.3-13.6,0.6-20.4,0.9
				C35.4,33.8,35.4,33.9,35.5,33.9L35.5,33.9z"/>
		</g>
	</g>
	<g>
		<g>
			<path class="st19" d="M35.9,34.8c6.7-0.1,13.3-0.3,20-0.6c0.1,0,0.1-0.1,0-0.1c-6.7,0.3-13.3,0.5-20,0.6
				C35.8,34.6,35.8,34.8,35.9,34.8L35.9,34.8z"/>
		</g>
	</g>
	<g>
		<g>
			<path class="st19" d="M35.5,34C35.5,34,35.5,34,35.5,34c0.1,0,0.1,0,0.1-0.1c0,0,0-0.1-0.1-0.1c0,0,0,0-0.1,0
				C35.5,33.8,35.4,33.9,35.5,34C35.4,33.9,35.5,34,35.5,34L35.5,34z"/>
		</g>
	</g>
	<g>
		<g>
			<path class="st19" d="M35.5,33.9c-0.5,1.9-0.9,3.8-1.2,5.7c0,0.1,0.1,0.1,0.1,0c0.4-1.9,0.8-3.8,1.2-5.7
				C35.6,33.8,35.5,33.8,35.5,33.9L35.5,33.9z"/>
		</g>
	</g>
	<g>
		<g>
			<path class="st19" d="M55.6,16.3c0.3,8.1,0.5,16.3,0.2,24.4c0,0.1,0.1,0.1,0.1,0c0.3-8.1,0.1-16.3-0.2-24.4
				C55.7,16.2,55.6,16.2,55.6,16.3L55.6,16.3z"/>
		</g>
	</g>
	<g>
		<g>
			<path class="st19" d="M56,25c1.9-0.2,3.8-0.4,5.7-0.7c0.1,0,0-0.1,0-0.1c-1.9,0.3-3.7,0.6-5.6,0.7C55.9,24.9,55.9,25,56,25L56,25
				z"/>
		</g>
	</g>
	<g>
		<g>
			<path class="st19" d="M58.5,24.8c-0.2,1.1-0.4,2.3-0.6,3.4c-0.1,0.6-0.2,1.1-0.3,1.7c0,0.3-0.1,0.6-0.1,0.9c0,0.1-0.1,0.3,0,0.4
				c0,0,0,0,0.1,0c0.1,0,0.1,0,0.1-0.1c0,0,0,0,0-0.1c0,0,0,0,0,0c0-0.1-0.2,0-0.1,0.1c0,0,0.1-0.4,0.1-0.5c0-0.1,0-0.2,0.1-0.4
				c0-0.3,0.1-0.5,0.1-0.8c0.1-0.5,0.2-1,0.3-1.5c0.2-1,0.4-2.1,0.6-3.1C58.6,24.8,58.5,24.7,58.5,24.8L58.5,24.8z"/>
		</g>
	</g>
	<g>
		<g>
			<path class="st19" d="M57,29.2c0.1,0.7,0.2,1.4,0.3,2c0,0.1,0.1,0,0.1,0c-0.2-0.7-0.3-1.3-0.3-2C57.1,29.1,57,29.1,57,29.2
				L57,29.2z"/>
		</g>
	</g>
	<g>
		<g>
			<path class="st19" d="M57.1,29.2c0.3-1.4,0.6-2.9,0.8-4.4c0-0.1-0.1-0.1-0.1,0c-0.2,1.5-0.4,2.9-0.7,4.3
				C57,29.2,57.1,29.3,57.1,29.2L57.1,29.2z"/>
		</g>
	</g>
	<g>
		<g>
			<path class="st19" d="M57.4,31.3c0.7-0.1,1.4-0.1,2.1-0.2c0.7-0.1,1.4-0.1,2.1-0.2c0.1,0,0.1-0.1,0-0.1c-0.7,0.1-1.4,0.1-2.2,0.2
				c-0.7,0.1-1.4,0.1-2.1,0.2C57.3,31.2,57.3,31.4,57.4,31.3L57.4,31.3z"/>
		</g>
	</g>
	<g>
		<g>
			<path class="st19" d="M58.3,27.6c4.1-0.4,8.3-0.6,12.4-0.7c0.1,0,0.1-0.1,0-0.1c-4.1,0.1-8.3,0.4-12.4,0.7
				C58.2,27.5,58.2,27.6,58.3,27.6L58.3,27.6z"/>
		</g>
	</g>
	<g>
		<g>
			<path class="st19" d="M60.8,27.1c3.1-0.2,6.2-0.4,9.3-0.7c0.1,0,0.1-0.1,0-0.1c-3.1,0.3-6.2,0.6-9.3,0.7
				C60.8,26.9,60.8,27.1,60.8,27.1L60.8,27.1z"/>
		</g>
	</g>
	<g>
		<g>
			<path class="st19" d="M61.1,26.5c2.9-0.3,5.8-0.5,8.7-0.6c0.1,0,0.1-0.1,0-0.1c-2.9,0.1-5.8,0.3-8.7,0.6
				C61,26.4,61,26.5,61.1,26.5L61.1,26.5z"/>
		</g>
	</g>
	<g>
		<g>
			<path class="st19" d="M61.2,25.9c2.7,0.1,5.5-0.3,8.2-0.5c0.1,0,0.1-0.1,0-0.1c-2.7,0.2-5.4,0.6-8.2,0.5
				C61.1,25.8,61.1,25.9,61.2,25.9L61.2,25.9z"/>
		</g>
	</g>
	<g>
		<g>
			<path class="st19" d="M61.3,25.5c2.6,0.1,5.1-0.5,7.7-0.3c0.1,0,0.1-0.1,0-0.1c-2.6-0.1-5.1,0.5-7.7,0.3
				C61.2,25.4,61.2,25.5,61.3,25.5L61.3,25.5z"/>
		</g>
	</g>
	<g>
		<g>
			<path class="st19" d="M61.4,25c2.4-0.2,4.7-0.3,7.1-0.5c0.1,0,0.1-0.1,0-0.1c-2.4,0.2-4.7,0.3-7.1,0.5C61.3,24.9,61.3,25,61.4,25
				L61.4,25z"/>
		</g>
	</g>
	<g>
		<g>
			<path class="st19" d="M61.7,31.1c0.6-1.2,1.2-2.5,1.8-3.7c0-0.1-0.1-0.1-0.1-0.1c-0.6,1.2-1.2,2.5-1.8,3.7
				C61.5,31.1,61.6,31.1,61.7,31.1L61.7,31.1z"/>
		</g>
	</g>
	<g>
		<g>
			<path class="st19" d="M63.4,27.4c1.5,4.6,2.9,9.2,4.4,13.8c0,0.1,0.2,0,0.1,0c-1.5-4.6-2.9-9.2-4.4-13.8
				C63.5,27.2,63.4,27.3,63.4,27.4L63.4,27.4z"/>
		</g>
	</g>
	<g>
		<g>
			<path class="st19" d="M63.1,28.1c1.3,4.4,2.7,8.7,4.3,13c0,0.1,0.2,0,0.1,0c-1.5-4.3-3-8.7-4.3-13C63.2,28,63.1,28,63.1,28.1
				L63.1,28.1z"/>
		</g>
	</g>
	<g>
		<g>
			<path class="st19" d="M61.7,31c0.9,3.4,1.9,6.7,2.9,10.1c0,0.1,0.1,0,0.1,0c-1-3.3-2-6.7-2.9-10.1C61.8,30.9,61.6,30.9,61.7,31
				L61.7,31z"/>
		</g>
	</g>
	<g>
		<g>
			<path class="st19" d="M68.6,24.6c3.5,3.9,7,7.8,10.6,11.8c0.1,0.1,0.1,0,0.1-0.1C75.7,32.3,72.2,28.4,68.6,24.6
				C68.6,24.4,68.5,24.5,68.6,24.6L68.6,24.6z"/>
		</g>
	</g>
	<g>
		<g>
			<path class="st19" d="M63.7,28.1c2.5-0.2,5-0.4,7.5-0.6c0.1,0,0.1-0.1,0-0.1c-2.5,0.1-5,0.3-7.5,0.6
				C63.6,27.9,63.6,28.1,63.7,28.1L63.7,28.1z"/>
		</g>
	</g>
	<g>
		<g>
			<path class="st19" d="M63.9,28.5c2.6-0.3,5.1-0.5,7.7-0.6c0.1,0,0.1-0.1,0-0.1c-2.6,0.2-5.1,0.4-7.7,0.6
				C63.8,28.4,63.8,28.6,63.9,28.5L63.9,28.5z"/>
		</g>
	</g>
	<g>
		<g>
			<path class="st19" d="M64.1,29.1c2.7-0.2,5.4-0.4,8.2-0.6c0.1,0,0.1-0.1,0-0.1c-2.7,0.2-5.4,0.4-8.2,0.6C64,29,64,29.1,64.1,29.1
				L64.1,29.1z"/>
		</g>
	</g>
	<g>
		<g>
			<path class="st19" d="M64.3,29.6c2.8-0.2,5.5-0.4,8.3-0.6c0.1,0,0.1-0.1,0-0.1c-2.8,0.2-5.5,0.4-8.3,0.6
				C64.3,29.5,64.3,29.6,64.3,29.6L64.3,29.6z"/>
		</g>
	</g>
	<g>
		<g>
			<path class="st19" d="M64.4,30.4c2.9-0.3,5.8-0.4,8.7-0.6c0.1,0,0.1-0.1,0-0.1c-2.9,0.2-5.8,0.3-8.7,0.6
				C64.3,30.3,64.3,30.4,64.4,30.4L64.4,30.4z"/>
		</g>
	</g>
	<g>
		<g>
			<path class="st19" d="M64.7,30.9c3-0.1,6-0.3,8.9-0.7c0.1,0,0.1-0.1,0-0.1c-3,0.4-6,0.6-8.9,0.7C64.6,30.7,64.6,30.9,64.7,30.9
				L64.7,30.9z"/>
		</g>
	</g>
	<g>
		<g>
			<path class="st19" d="M65,31.4c3-0.1,6.1-0.3,9.1-0.7c0.1,0,0.1-0.1,0-0.1c-3,0.4-6.1,0.7-9.1,0.7C64.9,31.3,64.9,31.4,65,31.4
				L65,31.4z"/>
		</g>
	</g>
	<g>
		<g>
			<path class="st19" d="M65,32c3.2-0.1,6.4-0.4,9.6-0.7c0.1,0,0.1-0.1,0-0.1c-3.2,0.3-6.4,0.6-9.6,0.7C64.9,31.9,64.9,32,65,32
				L65,32z"/>
		</g>
	</g>
	<g>
		<g>
			<path class="st19" d="M65.3,32.8c3.4-0.1,6.8-0.4,10.2-0.7c0.1,0,0.1-0.1,0-0.1c-3.4,0.3-6.8,0.6-10.2,0.7
				C65.2,32.6,65.2,32.8,65.3,32.8L65.3,32.8z"/>
		</g>
	</g>
	<g>
		<g>
			<path class="st19" d="M65.5,33.4c3.5-0.2,6.9-0.5,10.4-0.7c0.1,0,0.1-0.1,0-0.1c-3.5,0.2-6.9,0.5-10.4,0.7
				C65.4,33.3,65.4,33.4,65.5,33.4L65.5,33.4z"/>
		</g>
	</g>
	<g>
		<g>
			<path class="st19" d="M65.8,34.2c3.6-0.2,7.2-0.5,10.8-0.8c0.1,0,0.1-0.1,0-0.1c-3.6,0.4-7.2,0.6-10.8,0.8
				C65.7,34,65.7,34.2,65.8,34.2L65.8,34.2z"/>
		</g>
	</g>
	<g>
		<g>
			<path class="st19" d="M65.9,34.7c3.7-0.2,7.4-0.5,11.1-0.8c0.1,0,0.1-0.1,0-0.1c-3.7,0.3-7.4,0.6-11.1,0.8
				C65.8,34.6,65.8,34.7,65.9,34.7L65.9,34.7z"/>
		</g>
	</g>
	<g>
		<g>
			<path class="st19" d="M66.2,35.3c3.8,0,7.6-0.3,11.4-0.8c0.1,0,0.1-0.1,0-0.1c-3.8,0.5-7.6,0.7-11.4,0.8
				C66.1,35.2,66.1,35.3,66.2,35.3L66.2,35.3z"/>
		</g>
	</g>
	<g>
		<g>
			<path class="st19" d="M66.4,36.1c3.9-0.3,7.9-0.6,11.8-0.8c0.1,0,0.1-0.1,0-0.1c-3.9,0.2-7.9,0.5-11.8,0.8
				C66.3,35.9,66.3,36.1,66.4,36.1L66.4,36.1z"/>
		</g>
	</g>
	<g>
		<g>
			<path class="st19" d="M66.6,36.8c4.2-0.2,8.3-0.4,12.5-0.6c0.1,0,0.1-0.1,0-0.1c-4.2,0.2-8.3,0.4-12.5,0.6
				C66.5,36.7,66.5,36.8,66.6,36.8L66.6,36.8z"/>
		</g>
	</g>
	<g>
		<g>
			<path class="st19" d="M66.7,37.4c4.1-0.3,8.2-0.6,12.4-0.8c0.1,0,0.1-0.1,0-0.1c-4.1,0.2-8.2,0.5-12.4,0.8
				C66.6,37.3,66.6,37.5,66.7,37.4L66.7,37.4z"/>
		</g>
	</g>
	<g>
		<g>
			<path class="st19" d="M66.9,38.3c4-0.1,7.9-0.4,11.8-0.8c0.1,0,0.1-0.1,0-0.1c-3.9,0.4-7.9,0.7-11.8,0.8
				C66.8,38.2,66.8,38.4,66.9,38.3L66.9,38.3z"/>
		</g>
	</g>
	<g>
		<g>
			<path class="st19" d="M67.3,39c3.8-0.2,7.7-0.4,11.5-0.5c0.1,0,0.1-0.1,0-0.1c-3.8,0.1-7.7,0.3-11.5,0.5
				C67.2,38.8,67.2,39,67.3,39L67.3,39z"/>
		</g>
	</g>
	<g>
		<g>
			<path class="st19" d="M67.5,39.9c3.8-0.3,7.5-0.5,11.3-0.7c0.1,0,0.1-0.1,0-0.1c-3.8,0.2-7.5,0.4-11.3,0.7
				C67.4,39.8,67.4,39.9,67.5,39.9L67.5,39.9z"/>
		</g>
	</g>
	<g>
		<g>
			<path class="st19" d="M67.9,40.5c3.7-0.2,7.3-0.4,11-0.6c0.1,0,0.1-0.1,0-0.1c-3.7,0.2-7.3,0.4-11,0.6
				C67.8,40.4,67.8,40.5,67.9,40.5L67.9,40.5z"/>
		</g>
	</g>
	<g>
		<g>
			<path class="st19" d="M78.9,40.6c-3.5,0.4-7,0.7-10.5,0.8c-0.1,0-0.1,0.1,0,0.1c3.5-0.1,7-0.4,10.5-0.8
				C79,40.7,79,40.6,78.9,40.6L78.9,40.6z"/>
		</g>
	</g>
	<g>
		<g>
			<path class="st19" d="M63.6,28.7c0.1-0.1,0.1-0.2,0.2-0.4c0,0,0-0.1,0-0.1c0,0-0.1,0-0.1,0c-0.1,0.1-0.1,0.2-0.2,0.4
				C63.5,28.7,63.5,28.7,63.6,28.7C63.6,28.8,63.6,28.7,63.6,28.7L63.6,28.7z"/>
		</g>
	</g>
	<g>
		<g>
			<path class="st19" d="M63.8,29.5C63.8,29.5,63.9,29.4,63.8,29.5c0.1-0.1,0.1-0.1,0.1-0.1c0,0,0,0,0,0c0,0,0,0,0,0c0,0,0,0,0,0
				c0,0,0-0.1,0.1-0.1c0,0,0,0,0,0c0,0,0,0,0,0c0,0,0,0,0,0c0,0,0,0,0,0c0,0,0-0.1,0-0.1c0,0-0.1,0-0.1,0c-0.1,0.1-0.2,0.2-0.3,0.4
				C63.7,29.5,63.7,29.5,63.8,29.5C63.8,29.5,63.8,29.5,63.8,29.5L63.8,29.5z"/>
		</g>
	</g>
	<g>
		<g>
			<path class="st19" d="M64.1,30C64.1,30,64.1,30,64.1,30C64.1,30,64.1,29.9,64.1,30C64.1,29.9,64.1,29.9,64.1,30
				c0-0.1,0-0.1,0-0.1c0,0,0,0,0,0c0,0,0,0,0,0c0,0,0,0,0,0c0,0,0,0,0-0.1c0,0,0,0,0,0c0,0,0,0,0,0c0,0,0,0,0,0c0,0,0,0,0,0
				c0,0,0,0,0,0c0,0,0,0,0,0c0,0,0,0,0,0c0,0,0,0,0,0c0,0,0,0,0.1,0c0,0,0-0.1,0-0.1c0,0-0.1,0-0.1,0c-0.2,0.1-0.3,0.3-0.3,0.5
				C63.9,30,64,30,64.1,30C64,30,64.1,30,64.1,30L64.1,30z"/>
		</g>
	</g>
	<g>
		<g>
			<path class="st19" d="M64.3,31.1c0.1-0.1,0.2-0.3,0.3-0.4c0,0,0-0.1,0-0.1c0,0-0.1,0-0.1,0c-0.1,0.1-0.2,0.3-0.3,0.4
				C64.2,31.1,64.2,31.1,64.3,31.1C64.3,31.2,64.3,31.2,64.3,31.1L64.3,31.1z"/>
		</g>
	</g>
	<g>
		<g>
			<path class="st19" d="M64.8,32.4c0.1-0.1,0.1-0.2,0.2-0.4c0,0,0-0.1,0-0.1c0,0-0.1,0-0.1,0c-0.1,0.1-0.1,0.2-0.2,0.4
				C64.6,32.3,64.6,32.4,64.8,32.4C64.7,32.4,64.7,32.4,64.8,32.4L64.8,32.4z"/>
		</g>
	</g>
	<g>
		<g>
			<path class="st19" d="M35.6,33.4C35.6,33.5,35.5,33.5,35.6,33.4c-0.1,0.1-0.1,0.1-0.1,0.2c0,0,0.1,0,0.1,0
				C35.6,33.6,35.7,33.6,35.6,33.4C35.7,33.5,35.7,33.5,35.6,33.4C35.7,33.4,35.6,33.4,35.6,33.4L35.6,33.4z"/>
		</g>
	</g>
	<g>
		<g>
			<path class="st19" d="M37.3,32.6c0,0.3-0.1,0.6-0.1,0.9c0,0.1,0.1,0.1,0.1,0c0-0.3,0.1-0.6,0.1-0.9
				C37.4,32.5,37.3,32.5,37.3,32.6L37.3,32.6z"/>
		</g>
	</g>
	<g>
		<g>
			<path class="st19" d="M38.2,32.5c0,0.4-0.1,0.8-0.1,1.1c0,0.1,0.1,0.1,0.1,0c0-0.4,0.1-0.8,0.1-1.1
				C38.3,32.4,38.2,32.4,38.2,32.5L38.2,32.5z"/>
		</g>
	</g>
	<g>
		<g>
			<path class="st19" d="M38.9,32.6c0,0.3,0,0.6-0.1,0.9c0,0.1,0.1,0.1,0.1,0c0-0.3,0-0.6,0.1-0.9C39.1,32.5,38.9,32.5,38.9,32.6
				L38.9,32.6z"/>
		</g>
	</g>
	<g>
		<g>
			<path class="st19" d="M39.7,32.5c0,0.4,0,0.7,0.1,1.1c0,0.1,0.1,0,0.1,0c-0.1-0.3-0.1-0.7-0.1-1.1C39.9,32.4,39.7,32.4,39.7,32.5
				L39.7,32.5z"/>
		</g>
	</g>
	<g>
		<g>
			<path class="st19" d="M40.7,32.4c0,0.4,0,0.7,0,1.1c0,0.1,0.1,0.1,0.1,0c0-0.4,0-0.7,0-1.1C40.8,32.3,40.7,32.3,40.7,32.4
				L40.7,32.4z"/>
		</g>
	</g>
	<g>
		<g>
			<path class="st19" d="M41.6,32.4c-0.1,0.4,0,0.7,0,1.1c0,0.1,0.1,0,0.1,0c-0.1-0.3-0.1-0.7,0-1C41.8,32.4,41.8,32.4,41.6,32.4
				C41.7,32.3,41.7,32.4,41.6,32.4L41.6,32.4z"/>
		</g>
	</g>
	<g>
		<g>
			<path class="st19" d="M42.6,32.4c0,0.1,0,0.2-0.1,0.3c0,0.1,0,0.2,0,0.3c0,0.1,0,0.3,0.2,0.3c0.1,0,0.1-0.1,0-0.1
				c0,0,0,0-0.1-0.1c0,0,0-0.1,0-0.1c0-0.2,0.1-0.3,0.1-0.5C42.8,32.4,42.8,32.4,42.6,32.4C42.7,32.4,42.6,32.4,42.6,32.4L42.6,32.4
				z"/>
		</g>
	</g>
	<g>
		<g>
			<path class="st19" d="M43.5,32.5c0,0.4,0,0.7,0,1.1c0,0.1,0.1,0.1,0.1,0c0-0.4,0-0.7,0-1.1C43.7,32.4,43.5,32.4,43.5,32.5
				L43.5,32.5z"/>
		</g>
	</g>
	<g>
		<g>
			<path class="st19" d="M41.7,33.2c0.3,0,0.6,0,0.9-0.1c0.1,0,0-0.1,0-0.1c-0.3,0.1-0.6,0.1-0.8,0.1C41.7,33.1,41.7,33.1,41.7,33.2
				C41.7,33.2,41.7,33.2,41.7,33.2L41.7,33.2z"/>
		</g>
	</g>
	<g>
		<g>
			<path class="st19" d="M44.4,32.4c0,0.4,0.1,0.7,0.1,1.1c0,0.1,0.1,0.1,0.1,0c0-0.1,0.1-0.1,0.1-0.2c0,0,0-0.1,0-0.1
				c0,0-0.1,0-0.1,0c0,0.1-0.1,0.1-0.1,0.2c0,0,0.1,0,0.1,0c0-0.4-0.1-0.7-0.1-1.1C44.5,32.3,44.4,32.3,44.4,32.4L44.4,32.4z"/>
		</g>
	</g>
	<g>
		<g>
			<path class="st19" d="M45.4,32.3c-0.2,0.3-0.2,0.7,0,1c0,0.1,0.2,0,0.1-0.1c-0.1-0.3-0.1-0.6,0-0.9
				C45.6,32.3,45.4,32.2,45.4,32.3L45.4,32.3z"/>
		</g>
	</g>
	<g>
		<g>
			<path class="st19" d="M45.5,32.8c0.2,0,0.5,0,0.7-0.1c0,0,0.1,0,0-0.1c0,0,0-0.1-0.1,0c-0.2,0.1-0.4,0.1-0.6,0.1
				C45.5,32.7,45.5,32.7,45.5,32.8C45.4,32.8,45.5,32.8,45.5,32.8L45.5,32.8z"/>
		</g>
	</g>
	<g>
		<g>
			<path class="st19" d="M46.4,32.1c-0.1,0.4-0.1,0.7,0,1.1c0,0.1,0.1,0,0.1,0c-0.1-0.3-0.1-0.7,0-1C46.5,32.1,46.4,32,46.4,32.1
				L46.4,32.1z"/>
		</g>
	</g>
	<g>
		<g>
			<path class="st19" d="M47.5,32c0,0.4,0,0.9,0,1.3c0,0.1,0.1,0.1,0.1,0c0-0.4,0-0.9,0-1.3C47.7,31.9,47.5,31.9,47.5,32L47.5,32z"
				/>
		</g>
	</g>
	<g>
		<g>
			<path class="st19" d="M48.4,32c0,0.4,0,0.8,0.1,1.2c0,0.1,0.1,0.1,0.1,0c0-0.4,0-0.8-0.1-1.2C48.5,32,48.4,32,48.4,32L48.4,32z"
				/>
		</g>
	</g>
	<g>
		<g>
			<path class="st19" d="M49.4,31.9c0,0.4,0,0.8,0,1.2c0,0.1,0.1,0.1,0.1,0c0-0.4-0.1-0.8,0-1.2C49.6,31.8,49.4,31.8,49.4,31.9
				L49.4,31.9z"/>
		</g>
	</g>
	<g>
		<g>
			<path class="st19" d="M50.5,31.9c-0.1,0.4-0.1,0.8,0.1,1.2c0,0.1,0.1,0,0.1-0.1c-0.2-0.3-0.2-0.7,0-1.1
				C50.6,31.8,50.5,31.8,50.5,31.9L50.5,31.9z"/>
		</g>
	</g>
	<g>
		<g>
			<path class="st19" d="M51.4,31.9c0.1,0.4,0.1,0.8,0.2,1.1c0,0.1,0.1,0,0.1,0c-0.1-0.4-0.1-0.8-0.2-1.1
				C51.5,31.7,51.4,31.8,51.4,31.9L51.4,31.9z"/>
		</g>
	</g>
	<g>
		<g>
			<path class="st19" d="M52.5,31.7c-0.1,0.4-0.1,0.9,0,1.3c0,0.1,0.1,0.1,0.1,0c0-0.4,0-0.9,0-1.3C52.7,31.6,52.5,31.6,52.5,31.7
				L52.5,31.7z"/>
		</g>
	</g>
	<g>
		<g>
			<path class="st19" d="M53.5,31.8c0,0.4,0,0.9,0.1,1.3c0,0.1,0.1,0,0.1,0c-0.1-0.4-0.1-0.8-0.1-1.3C53.6,31.7,53.5,31.7,53.5,31.8
				L53.5,31.8z"/>
		</g>
	</g>
	<g>
		<g>
			<path class="st19" d="M54.5,31.6c0,0.4,0,0.9,0,1.3c0,0.1,0.1,0.1,0.1,0c0-0.4,0-0.9,0-1.3C54.6,31.5,54.5,31.5,54.5,31.6
				L54.5,31.6z"/>
		</g>
	</g>
	<g>
		<g>
			<path class="st19" d="M51.7,32.8c0.3,0,0.6,0,0.8-0.1c0.1,0,0-0.1,0-0.1c-0.2,0.1-0.5,0.1-0.8,0.1C51.7,32.6,51.7,32.6,51.7,32.8
				C51.7,32.7,51.7,32.7,51.7,32.8L51.7,32.8z"/>
		</g>
	</g>
	<g>
		<g>
			<path class="st19" d="M35.1,36.3c6.9-0.2,13.9-0.4,20.8-0.5c0.1,0,0.1-0.1,0-0.1C48.9,35.8,42,36,35.1,36.1
				C35,36.1,35,36.3,35.1,36.3L35.1,36.3z"/>
		</g>
	</g>
	<g>
		<g>
			<path class="st19" d="M34.7,37.4c7-0.2,14.1-0.3,21.1-0.5c0.1,0,0.1-0.1,0-0.1c-7,0.2-14.1,0.3-21.1,0.5
				C34.6,37.3,34.6,37.4,34.7,37.4L34.7,37.4z"/>
		</g>
	</g>
	<g>
		<g>
			<path class="st19" d="M53.6,35.9c0,0.3,0,0.6,0,0.9c0,0.1,0.1,0.1,0.1,0c0-0.3,0-0.6,0-0.9C53.7,35.8,53.6,35.8,53.6,35.9
				L53.6,35.9z"/>
		</g>
	</g>
	<g>
		<g>
			<path class="st19" d="M36.3,37.5c-0.1,0.5-0.1,1-0.2,1.5c0,0.1,0.1,0.1,0.1,0c0.1-0.5,0.1-1,0.2-1.5
				C36.4,37.4,36.3,37.4,36.3,37.5L36.3,37.5z"/>
		</g>
	</g>
	<g>
		<g>
			<path class="st19" d="M37.2,37.3c0,0.5,0,1-0.1,1.5c0,0.1,0.1,0.1,0.1,0c0.1-0.5,0.1-1,0.1-1.5C37.3,37.3,37.2,37.3,37.2,37.3
				L37.2,37.3z"/>
		</g>
	</g>
	<g>
		<g>
			<path class="st19" d="M38.1,37.5C38,37.9,38,38.3,38,38.8c0,0.1,0.1,0.1,0.1,0c0-0.4,0-0.9,0.1-1.3
				C38.2,37.4,38.1,37.4,38.1,37.5L38.1,37.5z"/>
		</g>
	</g>
	<g>
		<g>
			<path class="st19" d="M39.2,37.4c0,0.5,0,1.1,0,1.6c0,0.1,0.1,0.1,0.1,0c0-0.5,0-1.1,0-1.6C39.3,37.3,39.2,37.3,39.2,37.4
				L39.2,37.4z"/>
		</g>
	</g>
	<g>
		<g>
			<path class="st19" d="M40.2,37.3c0,0.5,0,0.9,0,1.4c0,0.1,0.1,0.1,0.1,0c0-0.5,0-0.9,0-1.4C40.3,37.3,40.2,37.3,40.2,37.3
				L40.2,37.3z"/>
		</g>
	</g>
	<g>
		<g>
			<path class="st19" d="M35.2,39.1c6.9-0.1,13.7-0.2,20.6-0.3c0.1,0,0.1-0.1,0-0.1c-6.9,0.1-13.7,0.2-20.6,0.3
				C35.1,39,35.1,39.1,35.2,39.1L35.2,39.1z"/>
		</g>
	</g>
	<g>
		<g>
			<path class="st19" d="M54.2,39.4c0.1,0.2,0.1,0.3,0,0.5c0,0,0,0.1,0.1,0.1c0.5,0,0.9-0.1,1.4-0.1c0.1,0,0.1-0.1,0-0.1
				c-0.5,0-0.9,0.1-1.4,0.1c0,0,0,0.1,0.1,0.1c0-0.2,0-0.4,0-0.6C54.3,39.3,54.2,39.4,54.2,39.4L54.2,39.4z"/>
		</g>
	</g>
	<g>
		<g>
			<path class="st19" d="M54.3,39.4c0.5,0,0.9-0.1,1.4-0.1c0.1,0,0.1-0.1,0-0.1c-0.5,0-0.9,0.1-1.4,0.1
				C54.2,39.3,54.2,39.4,54.3,39.4L54.3,39.4z"/>
		</g>
	</g>
	<g>
		<g>
			<path class="st19" d="M35.9,33.8c0.3-0.4,0.5-0.9,0.8-1.3c0-0.1-0.1-0.1-0.1-0.1c-0.3,0.4-0.5,0.9-0.8,1.3
				C35.8,33.8,35.9,33.9,35.9,33.8L35.9,33.8z"/>
		</g>
	</g>
	<g>
		<g>
			<path class="st19" d="M37.3,31.4c0.2-0.4,0.5-0.8,0.7-1.2c0-0.1-0.1-0.1-0.1-0.1c-0.2,0.4-0.5,0.8-0.7,1.2
				C37.2,31.4,37.3,31.4,37.3,31.4L37.3,31.4z"/>
		</g>
	</g>
	<g>
		<g>
			<path class="st19" d="M38.7,29.3c0.3-0.4,0.6-0.9,0.9-1.3c0-0.1-0.1-0.1-0.1-0.1c-0.3,0.4-0.6,0.9-0.9,1.3
				C38.5,29.3,38.6,29.3,38.7,29.3L38.7,29.3z"/>
		</g>
	</g>
	<g>
		<g>
			<path class="st19" d="M40.1,26.9c0.1-0.4,0.3-0.7,0.5-1c0.1-0.1,0-0.2-0.1-0.1c-0.3,0.3-0.5,0.6-0.5,1C40,27,40.1,27,40.1,26.9
				L40.1,26.9z"/>
		</g>
	</g>
	<g>
		<g>
			<path class="st19" d="M41.3,25c0.2-0.4,0.5-0.7,0.8-1.1c0.1-0.1,0-0.2-0.1-0.1c-0.3,0.3-0.6,0.7-0.8,1.1
				C41.1,25,41.2,25.1,41.3,25L41.3,25z"/>
		</g>
	</g>
	<g>
		<g>
			<path class="st19" d="M42.4,23.1c0.2-0.4,0.4-0.7,0.7-1c0.1-0.1,0-0.2-0.1-0.1c-0.3,0.3-0.5,0.6-0.7,1
				C42.3,23.1,42.4,23.2,42.4,23.1L42.4,23.1z"/>
		</g>
	</g>
	<g>
		<g>
			<path class="st19" d="M43.6,21.3c0.2-0.3,0.3-0.5,0.5-0.8c0-0.1-0.1-0.1-0.1-0.1c-0.2,0.3-0.3,0.5-0.5,0.8
				C43.4,21.3,43.5,21.3,43.6,21.3L43.6,21.3z"/>
		</g>
	</g>
	<g>
		<g>
			<path class="st19" d="M44.7,19.6c0.1-0.2,0.3-0.4,0.4-0.6c0,0,0-0.1,0-0.1c0,0-0.1,0-0.1,0c-0.1,0.2-0.3,0.4-0.4,0.6
				C44.6,19.5,44.6,19.6,44.7,19.6C44.7,19.6,44.7,19.6,44.7,19.6L44.7,19.6z"/>
		</g>
	</g>
	<g>
		<g>
			<path class="st19" d="M45.7,18c0.2-0.2,0.3-0.5,0.5-0.7c0,0,0-0.1,0-0.1c0,0-0.1,0-0.1,0c-0.2,0.2-0.3,0.5-0.5,0.7
				C45.5,18,45.5,18.1,45.7,18C45.6,18.1,45.6,18.1,45.7,18L45.7,18z"/>
		</g>
	</g>
	<g>
		<g>
			<path class="st19" d="M46.5,16.5c0.2-0.2,0.3-0.4,0.4-0.6c0,0,0-0.1,0-0.1c0,0-0.1,0-0.1,0C46.7,16,46.6,16.2,46.5,16.5
				C46.4,16.5,46.5,16.6,46.5,16.5L46.5,16.5z"/>
		</g>
	</g>
	<g>
		<g>
			<path class="st19" d="M47.4,15.2c0.1-0.1,0.2-0.2,0.3-0.4c0,0,0-0.1,0-0.1c0,0-0.1,0-0.1,0C47.5,14.9,47.4,15,47.4,15.2
				C47.2,15.1,47.2,15.2,47.4,15.2C47.3,15.2,47.3,15.2,47.4,15.2L47.4,15.2z"/>
		</g>
	</g>
	<g>
		<g>
			<path class="st19" d="M60.2,13c1.2-0.2,2.4-0.4,3.6-0.5c0.1,0,0.1-0.1,0-0.1c-1.2,0.1-2.4,0.3-3.6,0.5C60.1,12.9,60.1,13,60.2,13
				L60.2,13z"/>
		</g>
	</g>
	<g>
		<g>
			<path class="st19" d="M60.1,12.9c0,0-0.1-0.1-0.1-0.1c0,0-0.1,0-0.1,0c0,0,0,0.1,0,0.1C59.9,12.9,60,12.9,60.1,12.9
				C60,13,60.1,13,60.1,12.9C60.1,12.9,60.1,12.9,60.1,12.9L60.1,12.9z"/>
		</g>
	</g>
	<g>
		<g>
			<path class="st19" d="M60,12.7c-0.5,0.3-0.5,1.2,0,1.5c0.1,0,0.1-0.1,0.1-0.1c-0.4-0.3-0.4-1,0-1.3C60.1,12.7,60,12.6,60,12.7
				L60,12.7z"/>
		</g>
	</g>
	<g>
		<g>
			<path class="st19" d="M60.2,14.1c0.2-0.2,0.5-0.2,0.8-0.3c0.3,0,0.7-0.1,1-0.1c0.6-0.1,1.3-0.1,1.9-0.2c0.1,0,0.1-0.1,0-0.1
				c-0.7,0.1-1.4,0.2-2.2,0.2c-0.3,0-0.6,0.1-1,0.1C60.6,13.8,60.3,13.8,60.2,14.1C60.1,14.1,60.2,14.2,60.2,14.1L60.2,14.1z"/>
		</g>
	</g>
	<g>
		<g>
			<path class="st19" d="M60.6,13.2c0.2,0.6,0.4,1.2,0.4,1.8c0,0.1,0.1,0.1,0.1,0c-0.1-0.6-0.2-1.2-0.4-1.8
				C60.7,13,60.6,13.1,60.6,13.2L60.6,13.2z"/>
		</g>
	</g>
	<g>
		<g>
			<path class="st19" d="M60.3,14.6c1.3-0.3,2.6-0.4,3.9-0.5c0.1,0,0.1-0.1,0-0.1c-1.3,0.1-2.6,0.2-3.9,0.5
				C60.2,14.5,60.2,14.6,60.3,14.6L60.3,14.6z"/>
		</g>
	</g>
	<g>
		<g>
			<path class="st19" d="M60.3,13.4c1.1-0.3,2.3-0.5,3.5-0.6c0.1,0,0.1-0.1,0-0.1c-1.2,0.1-2.4,0.3-3.5,0.6
				C60.2,13.3,60.2,13.4,60.3,13.4L60.3,13.4z"/>
		</g>
	</g>
	<g>
		<g>
			<path class="st19" d="M61.5,12.8C61.5,12.8,61.5,12.8,61.5,12.8C61.6,12.8,61.6,12.8,61.5,12.8C61.6,12.8,61.6,12.8,61.5,12.8
				c0,0.1,0,0.1,0,0.1c0,0,0,0,0,0.1c0,0.1,0,0.2,0,0.2c0,0.1,0.1,0.3,0.1,0.4c0.1,0.3,0.1,0.6,0.2,0.9c0,0.1,0.1,0,0.1,0
				c-0.1-0.5-0.2-1-0.3-1.4c0-0.1,0-0.1,0-0.2c0,0,0-0.1,0-0.1C61.7,12.7,61.6,12.7,61.5,12.8c-0.1,0-0.1,0.2,0,0.1
				C61.6,12.9,61.6,12.7,61.5,12.8L61.5,12.8z"/>
		</g>
	</g>
	<g>
		<g>
			<path class="st19" d="M62.1,12.7c0.2,0.6,0.3,1.3,0.4,2c0,0.1,0.1,0.1,0.1,0c-0.1-0.7-0.2-1.4-0.4-2
				C62.2,12.5,62.1,12.6,62.1,12.7L62.1,12.7z"/>
		</g>
	</g>
	<g>
		<g>
			<path class="st19" d="M62.9,12.5c0.2,0.7,0.4,1.4,0.7,2.1c0,0.1,0.2,0,0.1,0c-0.3-0.7-0.5-1.4-0.7-2.1
				C63,12.4,62.8,12.4,62.9,12.5L62.9,12.5z"/>
		</g>
	</g>
	<g>
		<g>
			<path class="st19" d="M36.9,34.8c-0.1,0.4-0.1,0.8-0.1,1.2c0,0.1,0.1,0.1,0.1,0c0-0.4,0-0.8,0.1-1.1C37.1,34.8,37,34.7,36.9,34.8
				L36.9,34.8z"/>
		</g>
	</g>
	<g>
		<g>
			<path class="st19" d="M37.7,34.8c0.1,0.4,0.1,0.8,0,1.1c0,0.1,0.1,0.1,0.1,0c0.1-0.4,0.1-0.8,0-1.2
				C37.8,34.7,37.7,34.7,37.7,34.8L37.7,34.8z"/>
		</g>
	</g>
	<g>
		<g>
			<path class="st19" d="M38.6,34.8c-0.1,0.4-0.1,0.8,0,1.3c0,0.1,0.1,0,0.1,0c-0.1-0.4-0.1-0.8,0-1.2
				C38.7,34.7,38.6,34.7,38.6,34.8L38.6,34.8z"/>
		</g>
	</g>
	<g>
		<g>
			<path class="st19" d="M39.5,34.7c0,0.4,0,0.8,0,1.2c0,0.1,0.1,0.1,0.1,0c0-0.4,0-0.8,0-1.2C39.6,34.6,39.5,34.6,39.5,34.7
				L39.5,34.7z"/>
		</g>
	</g>
	<g>
		<g>
			<path class="st19" d="M40.5,34.8c0,0.4-0.1,0.8-0.1,1.2c0,0.1,0.1,0.1,0.1,0c0-0.1,0.1-0.1,0.1-0.2c0-0.1-0.1-0.1-0.1-0.1
				c0,0.1-0.1,0.1-0.1,0.2c0,0,0.1,0,0.1,0c0-0.4,0.1-0.8,0.1-1.2C40.6,34.7,40.5,34.7,40.5,34.8L40.5,34.8z"/>
		</g>
	</g>
	<g>
		<g>
			<path class="st19" d="M41.3,34.8c0,0.4,0,0.8,0,1.1c0,0.1,0.1,0.1,0.1,0c0-0.4,0-0.8,0-1.1C41.4,34.7,41.3,34.7,41.3,34.8
				L41.3,34.8z"/>
		</g>
	</g>
	<g>
		<g>
			<path class="st19" d="M42.3,34.6c0,0.3,0,0.6,0,0.9c0,0.1,0,0.3,0.1,0.3c0.1,0,0.1-0.2,0-0.2c-0.1,0-0.1,0.1,0,0.1c0,0,0,0,0,0
				c0,0,0,0,0,0c0,0,0.1,0,0.1,0c0,0,0,0,0,0c0,0,0-0.1,0-0.1c0,0,0-0.1,0-0.1c0-0.1,0-0.2,0-0.3c0-0.2,0-0.4,0-0.6
				C42.4,34.5,42.3,34.5,42.3,34.6L42.3,34.6z"/>
		</g>
	</g>
	<g>
		<g>
			<path class="st19" d="M43.3,34.6c0,0.4,0,0.8,0,1.2c0,0.1,0.1,0.1,0.1,0c0-0.4,0-0.8,0-1.2C43.4,34.5,43.3,34.5,43.3,34.6
				L43.3,34.6z"/>
		</g>
	</g>
	<g>
		<g>
			<path class="st19" d="M44.3,34.6c-0.1,0.4-0.1,0.8-0.1,1.2c0,0.1,0.1,0.1,0.1,0c0-0.4,0-0.8,0.1-1.2
				C44.4,34.6,44.3,34.5,44.3,34.6L44.3,34.6z"/>
		</g>
	</g>
	<g>
		<g>
			<path class="st19" d="M45.2,34.7c0,0.3,0.1,0.7,0.1,1c0,0,0,0.1,0.1,0.1c0,0,0.1,0,0.1-0.1c0-0.3-0.1-0.7-0.1-1
				C45.3,34.7,45.3,34.6,45.2,34.7C45.2,34.6,45.2,34.7,45.2,34.7L45.2,34.7z"/>
		</g>
	</g>
	<g>
		<g>
			<path class="st19" d="M46.2,34.5c-0.1,0.4,0,0.8,0.1,1.2c0,0.1,0.1,0,0.1,0c-0.1-0.4-0.1-0.7-0.1-1.1
				C46.3,34.5,46.2,34.5,46.2,34.5L46.2,34.5z"/>
		</g>
	</g>
	<g>
		<g>
			<path class="st19" d="M47.3,34.6c-0.1,0.4-0.1,0.8,0,1.2c0,0.1,0.1,0,0.1,0c-0.1-0.4-0.1-0.8,0-1.1
				C47.4,34.6,47.3,34.5,47.3,34.6L47.3,34.6z"/>
		</g>
	</g>
	<g>
		<g>
			<path class="st19" d="M48.5,34.5c-0.1,0.4-0.1,0.8-0.1,1.2c0,0.1,0.1,0.1,0.1,0c0-0.4,0-0.8,0-1.1C48.6,34.4,48.5,34.4,48.5,34.5
				L48.5,34.5z"/>
		</g>
	</g>
	<g>
		<g>
			<path class="st19" d="M49.4,34.4c0,0.3-0.1,0.7-0.1,1c0,0.1,0,0.3,0.1,0.3c0.1,0,0.2-0.1,0.1-0.2c-0.1-0.1-0.2,0-0.1,0.1
				c0,0,0,0,0-0.1c0,0,0,0,0,0c0,0,0,0,0-0.1c0-0.1,0-0.1,0-0.2c0-0.1,0-0.2,0-0.3c0-0.2,0-0.4,0.1-0.7
				C49.6,34.3,49.5,34.3,49.4,34.4L49.4,34.4z"/>
		</g>
	</g>
	<g>
		<g>
			<path class="st19" d="M50.4,34.3c0,0.4,0.1,0.9,0,1.3c0,0.1,0.1,0.1,0.1,0c0-0.4,0-0.9,0-1.3C50.6,34.3,50.4,34.3,50.4,34.3
				L50.4,34.3z"/>
		</g>
	</g>
	<g>
		<g>
			<path class="st19" d="M51.6,34.3c-0.1,0.5-0.1,1,0,1.5c0,0.1,0.1,0,0.1,0c-0.1-0.5-0.1-0.9,0-1.4C51.7,34.2,51.6,34.2,51.6,34.3
				L51.6,34.3z"/>
		</g>
	</g>
	<g>
		<g>
			<path class="st19" d="M52.5,34.3c0,0.5,0.1,0.9,0.1,1.4c0,0.1,0.1,0.1,0.1,0c0-0.5-0.1-0.9-0.1-1.4
				C52.7,34.2,52.5,34.2,52.5,34.3L52.5,34.3z"/>
		</g>
	</g>
	<g>
		<g>
			<path class="st19" d="M53.6,34.3c0,0.4,0,0.9,0,1.3c0,0.1,0.1,0.1,0.1,0c-0.1-0.4-0.1-0.9,0-1.3C53.7,34.3,53.6,34.3,53.6,34.3
				L53.6,34.3z"/>
		</g>
	</g>
	<g>
		<g>
			<path class="st19" d="M54.8,34.3c0,0.4,0.1,0.9,0.1,1.3c0,0.1,0.1,0.1,0.1,0c0-0.4-0.1-0.9-0.1-1.3
				C54.9,34.2,54.8,34.2,54.8,34.3L54.8,34.3z"/>
		</g>
	</g>
	<g>
		<g>
			<path class="st19" d="M51.6,35.3c0.3,0,0.7,0,1,0c0.1,0,0.1-0.1,0-0.1c-0.3,0-0.7,0-1,0C51.5,35.2,51.5,35.3,51.6,35.3L51.6,35.3
				z"/>
		</g>
	</g>
	<g>
		<g>
			<path class="st19" d="M45.5,35.5c0.2-0.1,0.4-0.1,0.6,0c0,0,0.1,0,0.1,0c0,0,0-0.1,0-0.1c-0.2-0.1-0.5-0.1-0.7,0
				C45.3,35.5,45.4,35.6,45.5,35.5L45.5,35.5z"/>
		</g>
	</g>
	<g>
		<g>
			<path class="st19" d="M43.1,37.3c0,0.5,0,1,0,1.5c0,0.1,0.1,0.1,0.1,0c0-0.5,0-1,0-1.5C43.2,37.3,43.1,37.3,43.1,37.3L43.1,37.3z
				"/>
		</g>
	</g>
	<g>
		<g>
			<path class="st19" d="M44,37.4c0,0.4,0,0.8,0,1.2c0,0.1,0.1,0.1,0.1,0c0.1-0.4,0.1-0.8,0-1.2C44.1,37.3,44,37.3,44,37.4L44,37.4z
				"/>
		</g>
	</g>
	<g>
		<g>
			<path class="st19" d="M45.1,37.3c0.1,0.5,0,0.9,0,1.4c0,0.1,0.1,0.1,0.1,0c0.1-0.5,0.1-1,0.1-1.4C45.2,37.2,45.1,37.2,45.1,37.3
				L45.1,37.3z"/>
		</g>
	</g>
	<g>
		<g>
			<path class="st19" d="M46.2,37.3c0,0.5,0,0.9-0.1,1.4c0,0.1,0.1,0.1,0.1,0c0.1-0.5,0.1-1,0.1-1.4C46.3,37.3,46.2,37.3,46.2,37.3
				L46.2,37.3z"/>
		</g>
	</g>
	<g>
		<g>
			<path class="st19" d="M47.3,37.3c0,0.5-0.1,1.1-0.1,1.6c0,0.1,0.1,0.1,0.1,0c0-0.5,0.1-1.1,0.1-1.6
				C47.4,37.2,47.3,37.2,47.3,37.3L47.3,37.3z"/>
		</g>
	</g>
	<g>
		<g>
			<path class="st19" d="M48.3,37.3c0,0.5,0,1,0,1.4c0,0.1,0.1,0.1,0.1,0c0-0.5,0-1,0-1.4C48.4,37.3,48.3,37.3,48.3,37.3L48.3,37.3z
				"/>
		</g>
	</g>
	<g>
		<g>
			<path class="st19" d="M49.3,37.1c0,0.5,0,1,0.1,1.5c0,0.1,0.1,0.1,0.1,0c-0.1-0.5-0.1-1-0.1-1.5C49.5,37.1,49.3,37.1,49.3,37.1
				L49.3,37.1z"/>
		</g>
	</g>
	<g>
		<g>
			<path class="st19" d="M50.4,37.2c-0.1,0.5-0.1,1,0,1.4c0,0.1,0.1,0.1,0.1,0c0-0.5,0-1,0-1.4C50.5,37.1,50.4,37.1,50.4,37.2
				L50.4,37.2z"/>
		</g>
	</g>
	<g>
		<g>
			<path class="st19" d="M51.5,37.1c0,0.5,0,1,0.1,1.5c0,0.1,0.1,0,0.1,0c-0.1-0.5-0.1-1-0.1-1.5C51.7,37.1,51.6,37.1,51.5,37.1
				L51.5,37.1z"/>
		</g>
	</g>
	<g>
		<g>
			<path class="st19" d="M52.7,36.9c-0.1,0.6-0.1,1.1,0,1.7c0,0.1,0.1,0.1,0.1,0c0-0.6,0-1.1,0-1.7C52.9,36.8,52.7,36.8,52.7,36.9
				L52.7,36.9z"/>
		</g>
	</g>
	<g>
		<g>
			<path class="st19" d="M53.8,37.1c0,0.5,0,1,0.1,1.5c0,0.1,0.1,0.1,0.1,0c0-0.5,0-1-0.1-1.5C53.9,37,53.8,37,53.8,37.1L53.8,37.1z
				"/>
		</g>
	</g>
	<g>
		<g>
			<path class="st19" d="M54.8,37.2c0,0.5,0,1-0.1,1.5c0,0.1,0.1,0.1,0.1,0c0.1-0.5,0.1-1,0.1-1.5C54.9,37.1,54.8,37.1,54.8,37.2
				L54.8,37.2z"/>
		</g>
	</g>
	<g>
		<g>
			<path class="st19" d="M45.2,38.5C45.3,38.4,45.3,38.4,45.2,38.5C45.3,38.5,45.3,38.5,45.2,38.5c0.1,0,0.1,0,0.1,0
				c0,0,0.1,0,0.1,0c0.1,0,0.2,0,0.3,0c0.2,0,0.3,0,0.5,0c0.1,0,0.1-0.1,0-0.1c-0.3,0-0.6,0-0.8,0c0,0-0.1,0-0.1,0
				C45.2,38.4,45.2,38.4,45.2,38.5c0,0.1,0.1,0.1,0.1,0C45.4,38.3,45.2,38.4,45.2,38.5L45.2,38.5z"/>
		</g>
	</g>
	<g>
		<g>
			<path class="st19" d="M38.4,30c0,0.3-0.1,0.7-0.1,1c0,0.1,0.1,0.1,0.1,0.1c0,0,0-0.1,0.1-0.1c0-0.1-0.1-0.1-0.1-0.1
				c0,0,0,0.1-0.1,0.1c0,0,0.1,0,0.1,0.1c0-0.3,0.1-0.7,0.1-1C38.6,30,38.6,30,38.4,30C38.5,30,38.5,30,38.4,30L38.4,30z"/>
		</g>
	</g>
	<g>
		<g>
			<path class="st19" d="M39.3,30c0,0.4,0,0.8,0,1.2c0,0.1,0.1,0.1,0.1,0c0-0.4,0-0.8,0-1.2C39.4,29.9,39.3,29.9,39.3,30L39.3,30z"
				/>
		</g>
	</g>
	<g>
		<g>
			<path class="st19" d="M40.1,30.2c0,0.3,0,0.5-0.1,0.8c0,0.1,0.1,0.1,0.1,0c0-0.3,0-0.5,0.1-0.8C40.3,30.1,40.1,30.1,40.1,30.2
				L40.1,30.2z"/>
		</g>
	</g>
	<g>
		<g>
			<path class="st19" d="M41,30c-0.1,0.3-0.1,0.6,0,0.8c0,0.1,0.1,0,0.1,0c-0.1-0.2-0.1-0.5,0-0.8C41.2,30,41.1,30,41,30
				C41.1,30,41.1,30,41,30L41,30z"/>
		</g>
	</g>
	<g>
		<g>
			<path class="st19" d="M41.8,30c0,0.3,0,0.6,0,0.9c0,0,0,0,0,0.1c0.1,0.1,0.2-0.1,0.2-0.2c0-0.1-0.2,0-0.1,0.1c0,0,0,0,0,0
				c0,0,0,0,0,0c0,0,0,0,0,0.1c0-0.3,0-0.6,0-0.9C41.9,29.9,41.9,29.9,41.8,30C41.8,29.9,41.8,29.9,41.8,30L41.8,30z"/>
		</g>
	</g>
	<g>
		<g>
			<path class="st19" d="M43,30c0,0.3-0.1,0.6-0.1,0.9c0,0.1,0.1,0.1,0.1,0c0-0.3,0.1-0.6,0.1-0.9C43.1,29.9,43,29.9,43,30L43,30z"
				/>
		</g>
	</g>
	<g>
		<g>
			<path class="st19" d="M43.7,30c0,0.3,0,0.6-0.1,0.9c0,0.1,0.1,0.1,0.1,0c0-0.3,0-0.6,0.1-0.9C43.8,29.9,43.7,29.9,43.7,30
				L43.7,30z"/>
		</g>
	</g>
	<g>
		<g>
			<path class="st19" d="M44.6,29.8c0,0.3-0.1,0.6-0.1,0.9c0,0.1,0,0.1,0,0.2c0,0,0.1,0.1,0.1,0.1c0.1,0,0.1-0.2,0-0.2
				c-0.1,0-0.1,0.1,0,0.1c-0.1,0-0.1-0.1,0-0.1c0,0,0,0,0,0c0,0,0,0,0-0.1c0,0,0-0.1,0-0.1c0-0.1,0-0.2,0-0.3c0-0.2,0-0.4,0-0.6
				C44.8,29.7,44.6,29.7,44.6,29.8L44.6,29.8z"/>
		</g>
	</g>
	<g>
		<g>
			<path class="st19" d="M45.7,29.7c-0.1,0.3-0.1,0.7,0,1c0,0.1,0.1,0.1,0.1,0c0-0.3,0-0.7,0-1C45.9,29.7,45.7,29.7,45.7,29.7
				L45.7,29.7z"/>
		</g>
	</g>
	<g>
		<g>
			<path class="st19" d="M46.5,29.7c0,0.4,0,0.7,0.1,1.1c0,0.1,0.1,0,0.1,0c-0.1-0.3-0.1-0.7-0.1-1.1C46.7,29.6,46.5,29.6,46.5,29.7
				L46.5,29.7z"/>
		</g>
	</g>
	<g>
		<g>
			<path class="st19" d="M47.7,29.6c0,0.3,0,0.6,0,0.9c0,0.1,0.1,0.1,0.1,0c0-0.3,0-0.6,0-0.9C47.8,29.5,47.7,29.5,47.7,29.6
				L47.7,29.6z"/>
		</g>
	</g>
	<g>
		<g>
			<path class="st19" d="M39.6,28c0,0.3,0,0.6-0.1,0.9c0,0.1,0.1,0.1,0.1,0c0-0.3,0-0.6,0.1-0.9C39.7,27.9,39.6,27.9,39.6,28
				L39.6,28z"/>
		</g>
	</g>
	<g>
		<g>
			<path class="st19" d="M40.4,28c0,0.3-0.1,0.7-0.1,1c0,0.1,0.1,0.1,0.1,0c0-0.3,0.1-0.7,0.1-1C40.6,27.9,40.5,27.9,40.4,28
				L40.4,28z"/>
		</g>
	</g>
	<g>
		<g>
			<path class="st19" d="M41.4,28c0,0.2-0.1,0.5-0.1,0.7c0,0,0,0.1,0.1,0.1c0,0,0.1,0,0.1-0.1c0-0.2,0.1-0.5,0.1-0.7
				C41.5,27.9,41.5,27.9,41.4,28C41.4,27.9,41.4,27.9,41.4,28L41.4,28z"/>
		</g>
	</g>
	<g>
		<g>
			<path class="st19" d="M42.2,27.9c0,0.3,0,0.7-0.1,1c0,0.1,0.1,0.1,0.1,0c0-0.3,0-0.7,0.1-1C42.4,27.8,42.2,27.8,42.2,27.9
				L42.2,27.9z"/>
		</g>
	</g>
	<g>
		<g>
			<path class="st19" d="M43.2,27.7c-0.1,0.4-0.1,0.7-0.1,1.1c0,0.1,0.1,0.1,0.1,0c0-0.4,0-0.7,0.1-1.1
				C43.3,27.7,43.2,27.7,43.2,27.7L43.2,27.7z"/>
		</g>
	</g>
	<g>
		<g>
			<path class="st19" d="M44,27.7c0,0.3-0.1,0.5-0.1,0.8c0,0,0,0.1,0,0.1c0,0,0.1,0.1,0.1,0.1c0.1,0,0.1-0.2,0-0.2
				c-0.1,0-0.1,0.1,0,0.1c0,0,0,0,0,0c0,0,0,0,0,0c0,0,0,0,0,0c0,0,0,0,0,0c0,0,0-0.1,0-0.1c0-0.1,0-0.1,0-0.2c0-0.2,0-0.3,0.1-0.5
				C44.2,27.7,44.2,27.6,44,27.7C44.1,27.6,44,27.6,44,27.7L44,27.7z"/>
		</g>
	</g>
	<g>
		<g>
			<path class="st19" d="M44.8,27.7c0,0.3-0.1,0.6-0.1,0.9c0,0,0,0.1,0.1,0.1c0,0,0.1,0,0.1-0.1c0-0.3,0.1-0.6,0.1-0.9
				C44.9,27.6,44.9,27.6,44.8,27.7C44.8,27.6,44.8,27.6,44.8,27.7L44.8,27.7z"/>
		</g>
	</g>
	<g>
		<g>
			<path class="st19" d="M45.6,27.6c0,0.3,0,0.7,0,1c0,0.1,0.1,0.1,0.1,0c0-0.3,0-0.7,0-1C45.8,27.5,45.6,27.5,45.6,27.6L45.6,27.6z
				"/>
		</g>
	</g>
	<g>
		<g>
			<path class="st19" d="M46.5,27.5c0,0.3,0,0.5,0.1,0.8c0,0.1,0.1,0.1,0.1,0c0-0.3,0-0.5-0.1-0.8C46.6,27.5,46.5,27.5,46.5,27.5
				L46.5,27.5z"/>
		</g>
	</g>
	<g>
		<g>
			<path class="st19" d="M47.5,27.4c0,0.4-0.1,0.7-0.1,1.1c0,0.1,0.1,0.1,0.1,0c0-0.4,0-0.7,0.1-1.1C47.7,27.4,47.6,27.3,47.5,27.4
				C47.6,27.3,47.6,27.4,47.5,27.4L47.5,27.4z"/>
		</g>
	</g>
	<g>
		<g>
			<path class="st19" d="M48.3,27.3c0,0.3,0,0.7,0,1c0,0.1,0.1,0.1,0.1,0c0-0.3,0-0.7,0-1C48.5,27.2,48.3,27.2,48.3,27.3L48.3,27.3z
				"/>
		</g>
	</g>
	<g>
		<g>
			<path class="st19" d="M49.4,27.1c0,0.3,0,0.6,0,0.9c0,0.1,0.1,0.1,0.1,0c0,0,0.1-0.1,0.1-0.1c0.1-0.1,0-0.2-0.1-0.1
				c0,0-0.1,0.1-0.1,0.1c0,0,0.1,0,0.1,0c0-0.3,0-0.6,0-0.9C49.5,27,49.4,27,49.4,27.1L49.4,27.1z"/>
		</g>
	</g>
	<g>
		<g>
			<path class="st19" d="M51.3,29.3c0,0.3,0,0.6,0,0.9c0,0.1,0.1,0.1,0.1,0c0-0.3,0-0.6,0-0.9C51.5,29.2,51.3,29.2,51.3,29.3
				L51.3,29.3z"/>
		</g>
	</g>
	<g>
		<g>
			<path class="st19" d="M52.3,29.2c-0.1,0.3-0.1,0.7,0,1c0,0.1,0.1,0,0.1,0c-0.1-0.3-0.1-0.6,0-0.9C52.5,29.2,52.3,29.2,52.3,29.2
				L52.3,29.2z"/>
		</g>
	</g>
	<g>
		<g>
			<path class="st19" d="M52.2,27c0,0.3,0,0.6-0.1,0.9c0,0,0,0.1,0.1,0.1c0,0,0.1,0,0.1-0.1c0-0.3,0.1-0.6,0.1-0.9
				C52.3,27,52.2,27,52.2,27L52.2,27z"/>
		</g>
	</g>
	<g>
		<g>
			<path class="st19" d="M45.8,25.2c0,0.3,0,0.6,0.1,0.9c0,0.1,0.1,0.1,0.1,0c0-0.3,0-0.6-0.1-0.9C46,25.2,45.8,25.2,45.8,25.2
				L45.8,25.2z"/>
		</g>
	</g>
	<g>
		<g>
			<path class="st19" d="M46.8,25.4c-0.1,0.3-0.1,0.6,0,0.8c0,0,0,0.1,0.1,0c0,0,0.1,0,0-0.1c-0.1-0.2-0.1-0.5,0-0.7
				C46.9,25.4,46.9,25.3,46.8,25.4C46.9,25.3,46.8,25.3,46.8,25.4L46.8,25.4z"/>
		</g>
	</g>
	<g>
		<g>
			<path class="st19" d="M51.2,25C51,25.3,51,25.7,51,26c0,0.1,0.1,0,0.1,0c-0.1-0.3,0-0.7,0.1-1C51.3,25,51.2,24.9,51.2,25L51.2,25
				z"/>
		</g>
	</g>
	<g>
		<g>
			<path class="st19" d="M52.1,25c0.1,0.3,0.1,0.6,0,0.9c0,0.1,0.1,0.1,0.1,0c0.1-0.3,0.1-0.6,0-1C52.2,24.9,52.1,25,52.1,25
				L52.1,25z"/>
		</g>
	</g>
	<g>
		<g>
			<path class="st19" d="M53.1,25C53,25.3,53,25.6,53,25.8c0,0,0,0.1,0.1,0c0,0,0.1,0,0-0.1c0-0.3,0-0.5,0.1-0.8
				C53.3,25,53.2,24.9,53.1,25L53.1,25z"/>
		</g>
	</g>
	<g>
		<g>
			<path class="st19" d="M53.8,25c0,0.3-0.1,0.6-0.1,0.9c0,0,0,0.1,0.1,0.1c0,0,0.1,0,0.1-0.1c0-0.3,0.1-0.6,0.1-0.9
				C54,24.9,53.9,24.9,53.8,25C53.9,24.9,53.8,24.9,53.8,25L53.8,25z"/>
		</g>
	</g>
	<g>
		<g>
			<path class="st19" d="M45.9,23.7c0.1,0.2,0.1,0.5,0,0.7c0,0.1,0.1,0.1,0.1,0c0.1-0.3,0.1-0.5,0-0.8C46,23.6,45.9,23.6,45.9,23.7
				L45.9,23.7z"/>
		</g>
	</g>
	<g>
		<g>
			<path class="st19" d="M46.9,23.7c0,0.2,0,0.5,0,0.7c0,0.1,0.1,0.1,0.1,0c0-0.2,0-0.5,0-0.7C47,23.6,46.9,23.6,46.9,23.7
				L46.9,23.7z"/>
		</g>
	</g>
	<g>
		<g>
			<path class="st19" d="M47.7,23.5c-0.1,0.3-0.1,0.6-0.1,0.9c0,0.1,0.1,0.1,0.1,0c0-0.3,0-0.6,0.1-0.8
				C47.8,23.5,47.7,23.4,47.7,23.5L47.7,23.5z"/>
		</g>
	</g>
	<g>
		<g>
			<path class="st19" d="M48.6,23.5c0,0.3,0,0.6,0,0.9c0,0.1,0.1,0.1,0.1,0c0-0.3,0-0.6,0-0.9C48.7,23.4,48.6,23.4,48.6,23.5
				L48.6,23.5z"/>
		</g>
	</g>
	<g>
		<g>
			<path class="st19" d="M49.4,23.5c0,0.3,0,0.5,0.1,0.8c0,0.1,0.1,0,0.1,0c-0.1-0.3-0.1-0.5-0.1-0.8C49.5,23.4,49.5,23.4,49.4,23.5
				C49.4,23.4,49.4,23.4,49.4,23.5L49.4,23.5z"/>
		</g>
	</g>
	<g>
		<g>
			<path class="st19" d="M50.3,23.3c0,0.2,0,0.5,0.1,0.7c0,0,0,0.1,0.1,0.1c0,0,0.1,0,0.1-0.1c0-0.2,0-0.5-0.1-0.7
				C50.4,23.3,50.4,23.2,50.3,23.3C50.3,23.2,50.3,23.3,50.3,23.3L50.3,23.3z"/>
		</g>
	</g>
	<g>
		<g>
			<path class="st19" d="M51.1,23.1c0.1,0.3,0.1,0.6,0,0.9c0,0,0,0.1,0.1,0.1c0,0,0.1,0,0.1-0.1c0-0.3,0-0.6,0-1
				C51.2,23,51.1,23,51.1,23.1L51.1,23.1z"/>
		</g>
	</g>
	<g>
		<g>
			<path class="st19" d="M52,23.2c0,0.3,0,0.6,0,0.9c0,0.1,0.1,0,0.1,0c-0.1-0.3-0.1-0.6,0-0.8C52.1,23.2,52.1,23.2,52,23.2
				C52,23.2,52,23.2,52,23.2L52,23.2z"/>
		</g>
	</g>
	<g>
		<g>
			<path class="st19" d="M52.7,23.1c0,0.3,0.1,0.5,0.1,0.8c0,0,0,0.1,0.1,0c0,0,0.1,0,0-0.1c0-0.3-0.1-0.5-0.1-0.8
				C52.8,23,52.8,23,52.7,23.1C52.7,23,52.7,23.1,52.7,23.1L52.7,23.1z"/>
		</g>
	</g>
</g>
<g>
	<g>
		<path class="st7" d="M52.9,44.5c-2.4,5.3-8.8,6.1-13.9,4.6c-2.6-0.8-5-2.2-6.7-4.3c-2.4-3.1-3.2-7.3-2.4-11.1
			c0.9-4.4,3.6-8.2,6.7-11.3c0.1-0.1-0.1-0.4-0.2-0.2c-5.6,5.5-9.7,14.2-5.1,21.6c3,4.9,9.5,7.1,15,6.1c3.1-0.6,5.7-2.4,7-5.3
			C53.3,44.4,53,44.3,52.9,44.5L52.9,44.5z"/>
	</g>
</g>
<g>
	<g>
		<path class="st7" d="M36.5,22.2c-3.4-3.8-3.3-10.3,1.1-13.3c4.3-3.1,10-1.9,14.6,0c0.2,0.1,0.3-0.2,0.1-0.3
			c-4.8-2-11.2-3.2-15.5,0.5c-3.9,3.4-3.8,9.6-0.4,13.3C36.4,22.6,36.6,22.4,36.5,22.2L36.5,22.2z"/>
	</g>
</g>
<g>
	<g>
		<path class="st7" d="M52.5,8.9C55,4,61.8,4.5,66.1,6.1c4.5,1.6,8.6,5.5,8,10.6c0,0.2,0.3,0.2,0.3,0c0.6-5.3-3.7-9.3-8.3-10.9
			c-4.5-1.6-11.4-2-14,3C52.1,8.9,52.4,9.1,52.5,8.9L52.5,8.9z"/>
	</g>
</g>
<g>
	<g>
		<path class="st7" d="M74.6,16.9c-0.2-0.3,0.8-0.1,1-0.1c0.4,0.1,0.8,0.3,1.1,0.5c0.7,0.4,1.2,1,1.7,1.6c1.1,1.2,2.1,2.5,2.6,4
			c0.9,2.5-0.1,5.8-3,6.3c-0.2,0-0.1,0.4,0.1,0.3c1.5-0.3,2.6-1.3,3.2-2.7c0.7-1.6,0.5-3.2-0.2-4.8c-0.8-1.7-2.2-3.5-3.7-4.7
			c-0.6-0.5-1.3-0.9-2.1-1c-0.5-0.1-1.4,0-0.9,0.7C74.5,17.2,74.7,17.1,74.6,16.9L74.6,16.9z"/>
	</g>
</g>
<g>
	<g>
		<path class="st7" d="M77.4,29.8c2.6,1.4,4.2,4,4.9,6.8c0.7,3,0.9,7.2-1.3,9.6c-1.2,1.2-2.8,1.9-4.3,2.6c-1.8,0.8-3.8,1.5-5.8,1.5
			c-1.9,0-3.7-0.8-5.5-1.6c-1.7-0.8-4.4-2.3-3.2-4.5c0.1-0.2-0.2-0.4-0.3-0.2c-1.4,2.8,2.2,4.5,4.2,5.4c1.4,0.6,2.9,1.2,4.4,1.3
			c1.8,0.1,3.5-0.3,5.1-1c2.7-1,5.7-2.3,6.9-5.1c1-2.5,0.8-5.7,0.1-8.2c-0.7-2.8-2.4-5.3-5-6.7C77.4,29.4,77.3,29.7,77.4,29.8
			L77.4,29.8z"/>
	</g>
</g>
<g>
	<g>
		<path class="st7" d="M52.9,44.8c0.6,1.7,2.6,2.7,4.3,2.5c2-0.2,3.7-1.5,4.5-3.2c0.1-0.2-0.2-0.3-0.3-0.2c-0.8,1.6-2.3,2.8-4.1,3
			c-1.6,0.2-3.5-0.6-4.1-2.3C53.1,44.5,52.8,44.6,52.9,44.8L52.9,44.8z"/>
	</g>
</g>
<line class="st15" x1="67.6" y1="40.5" x2="67.9" y2="41.4"/>
</svg>
