<?xml version="1.0" encoding="utf-8"?>
<!-- Generator: Adobe Illustrator 24.0.1, SVG Export Plug-In . SVG Version: 6.00 Build 0)  -->
<svg version="1.1" id="Layer_1" xmlns="http://www.w3.org/2000/svg" xmlns:xlink="http://www.w3.org/1999/xlink" x="0px" y="0px"
	 viewBox="0 0 141.7 141.7" style="enable-background:new 0 0 141.7 141.7;" xml:space="preserve">
<style type="text/css">
	.st0{fill:#FCE350;}
	.st1{fill:#FBEFAE;}
	.st2{fill:#FEE000;}
	.st3{fill:#D8C031;}
	.st4{fill:#B6A556;}
	.st5{fill:#75CEEB;}
	.st6{fill:#FFFFFF;}
	.st7{fill:#C9B09D;}
	.st8{fill:#969E3A;}
	.st9{fill:#F15B22;}
	.st10{fill:#F8BA6E;}
	.st11{fill:#070707;}
	.st12{fill:none;stroke:#070707;stroke-width:0.4153;stroke-miterlimit:10;}
</style>
<path class="st0" d="M9.5,31.5c0,0,3.9-8.2,9.3-8.4c0,0,2.9-0.2,3.5,0.9l-2.6-5.7c0,0-1.8-4.6,0.2-6.1l0.8-0.8l-6.9-3.6l-4-1.4L7,6
	l0.7,13.3l1.1,8.3L9.5,31.5z"/>
<path class="st1" d="M18.7,57c0,0-4.9-14.3-4.3-17.1c0,0-0.8-6.3,1.3-9.4c0,0,2.1-3.1,3.3-3.1c0,0,3.2-1.5,4.3-0.6l0.9,0.6L22.3,24
	c0,0-2.5-1.7-5.5-0.4c0,0-3.6,1.6-5.8,5.2l-1.4,2.6l0.9,4.3L15,50l2.6,5.8L18.7,57z"/>
<path class="st2" d="M31.6,38.3l-3.7-5l-3.7-5.9l-1.2-0.7c0,0-2.5-1.6-6.7,3c0,0-3,3.7-1.6,12.6l0.7,3.6l1.7,5.8l1.7,5.2l1.3,3.3
	l6.8,10.6l4.9,5.3L35,79c0,0,3.5,2.1,3.6,2.2c0.1,0.1,1,0.5,1,0.5L35.3,78c0,0-2.8-3.4-4.9-8.7L28.2,63l-2-9l-0.8-8
	c0,0-0.7-5.5,2.6-7.6l1.7-0.4L31.6,38.3z"/>
<path class="st1" d="M32.2,39.4c0,0-3.6,0.8-3.9,7.8c0,0,0.3,6.6,2.5,12.1l2.9,7.1l2.8,5.4l3.2,5.1l3.2,4l1.6,1.5l2.2,1.8
	c0,0-6.9-1.6-8.9-3.9c0,0-4.3-3.2-6.4-8.9l-2.1-5.3l-2.1-7.2l-1.3-7.3l-0.4-5c0,0-0.4-7.4,3-8c0.3-0.1,1.4-0.2,1.6-0.1
	c0.2,0,1.6,0.2,1.6,0.2L32.2,39.4z"/>
<path class="st3" d="M45.2,50.2L44.5,55c0,0,0.1,4.7,0.1,4.8c0,0.2,1.3,8.8,4.4,13c0,0,4,5.8,4.1,5.9c0.2,0.2,4.1,5.2,4.1,5.2
	l-1.1,0.8l-5.6-0.1l-3.7-0.5c0,0-4.5-1.9-10.4-12.4l-4-7.8c0,0-3.3-8.9-3.7-11.8c0,0-1.7-7.9,1.1-10.9c0,0,0.4-0.9,0.5-0.9
	c0.1,0,1.7-0.9,1.7-0.9l3.8,3.9l3.9,3.4l1.1,1.5C40.9,48.2,42.8,50.3,45.2,50.2z"/>
<path class="st1" d="M22.2,12.2l-1.5-0.8c0,0-2.8,2-1.4,6l1.5,3.5l2,4.4l4.2,6.9c0,0,3.5,5.3,3.7,5.4c0.1,0.1,3.5,3.9,3.6,4.1
	c0.1,0.2,4.4,4.3,4.4,4.3l1,0.8l-0.5-3.2l-1-1.5l-1.9-2.6l-4.7-5.8L28,28.5l-3.5-5.1l-2-3.6l-1.1-2.7C21.4,17.1,20.2,13.2,22.2,12.2
	z"/>
<path class="st4" d="M45.7,37.8c0,0-2-4.8-2-4.8s-3.9-5.4-4.9-6.6l-4.3-4.7L31.8,19l-3.5-3l-0.5-0.9l7.6,4.8l5.6,4.4l4,3.8
	c0,0,7.5,6.9,7.2,10.5l-1,0.9c0,0-0.5-1.1-2.4-1.8L45.7,37.8z"/>
<path class="st2" d="M39.4,43.5c0,0,0.8-4.6,6.3-5.7l-1.9-4.6l-2.6-3.7l-3.2-4l-3.4-3.8l-3.5-3.3l-3-2.7l-3-1.9l-2.2-1.2l-0.6-0.3
	c0,0-2.5,1.1,0,6.9l1.5,3l2.9,4.4l2.8,4.1l2.5,3.3l2.7,3.3l2.7,3.3l1.1,2L39.4,43.5z"/>
<path class="st5" d="M57.9,35.3c0,0-4.6,1.6-6.4,4.1c0,0-3.3-3.9-9.4,0c0,0-5.5,4.1-0.4,9.5c0,0,2.4,1.4,3.7,1.3
	c0,0-1.7,7.5-0.1,13.1l1.5,5.2l2.7,4.9L55,81l3.9,4.9l7.6,10.2l5.1,7c0,0,5.8,7.6,12.6,6.4c0,0,5.2-0.5,9-4.3l2.3-3.1l2.2-5.5L99,91
	l1.6-7.9l-0.2-6.1l1-10.2v-6.5L101,54l-0.7-4.8l-0.1-0.3l1.9-0.5c0,0,4.8-1.7,2.4-8.7l-1.5-2l-1.7-0.9l-1.7-0.3l-1.9,0.1l-1.5,0.5
	l-1.4,0.3c0,0-1.3,0.7-1.2,0.6c0.2,0-3.3-2.4-3.3-2.4l-3.9-1.8l-4.7-1.1L76,32.2l-7.3,0.7l-5.3,0.7l-4.2,0.9L57.9,35.3z"/>
<path class="st6" d="M52.4,46.6c0,0,0-9.7,11.2-8.5c0,0,7,1.9,6.6,9.6c0,0-0.8,5.2-4.9,7c0,0-5.3,2.9-10.4-1.7
	C54.9,53,52.2,50.1,52.4,46.6z"/>
<path class="st6" d="M74.9,44.9c0,0,0.5-7.1,7.9-8c0,0,9-0.5,9.8,8.5c0,0,0,6.9-6.5,9c0,0-5.4,1.8-9.6-3.3
	C76.6,51,74.6,48.5,74.9,44.9z"/>
<path class="st7" d="M69.2,54.8c0,0-4.7,2.2-3.7,4.7c0,0,1.4,2.2,5.2,1.1c0,0,2.7-0.9,3.5-0.5l3.3,0.7c0,0,3.1,0.2,2.6-2.2l-0.4-1.5
	l-1.7-1.5l-2.1-1.2C75.8,54.3,69,54.8,69.2,54.8z"/>
<path class="st6" d="M72.8,64.9c0,0-0.7,2.8-3,1c0,0-1.1-1.5-0.8-3.1l0.3-1.8l2.6-0.8l1.8-0.4l1.9,0.5l0.7,0c0,0,0.9,2.9,0.6,3.6
	l-0.3,1.2c0,0-0.6,1.4-2.3,1.2l-0.9-0.5l-0.5-1.1L72.8,64.9z"/>
<path class="st3" d="M100.6,77.1c0.2,0.1,9.9-1.4,11.2-5.5c0,0,1.9-1.7,3.8-12.1l0.6-7.7l-0.2-4.6l-0.8-5l-1.3-3.7l-1.3-1.9
	l-0.8-0.7l-1.2-0.5c0,0-1.1-0.1-1.2-0.1c-0.2,0-1.2,0.3-1.2,0.3l-1,0.1l-3.2,2.4l0.4,1.2l0.8,2.4l0,2.4c0,0-0.4,1.5-0.5,1.6
	s-0.9,1.3-0.9,1.3l-1.4,1.2l-1.9,1l0.7,2.9l0.3,8.9l-0.5,7.7L100.6,77.1z"/>
<path class="st7" d="M104.8,66.7c0.1,0,3.7-0.1,2.6,1.3l-0.7,0.9l-2,0.7l-2.1,0.2l-1.3-0.2l-0.3-0.2l0.3-3.1L104.8,66.7z"/>
<path class="st1" d="M119.5,65.3c-0.1,0.1-7.4,7.2-7.4,7.2l-1.6,1.2c0,0,3.3-3.7,4.9-13.1l0.4-3.5l0.4-6.6l-0.1-3.6l-1-5.2l-1.3-3.6
	c0,0-0.8-1.6-3.1-2.7l-1.2-0.1l-1.9,0.4l-0.3,0l2.6-2.4c0,0,5.2-1.1,8.2,3.3c0,0,2.6,4,2.9,8.8l0.2,5.4l-0.5,5.4l-0.7,5.8
	c0,0-0.6,3-0.4,3.2C119.5,65.3,119.5,65.3,119.5,65.3z"/>
<path class="st2" d="M128.5,48.5c0,0-2.3,5.8-2.3,5.8l-2.2,4.6l-3.5,5.3l-0.9,1.1l0.7-6.5c0,0,0.3-7.2,0.5-7.2c0.2,0,0-3.1,0-3.1
	l-0.2-4l-0.6-3.2l-0.9-2.8l-1.7-2.7l-1.5-1.3l-2.2-0.9l-2.1-0.3l-1.5-0.1c0,0,4.2-4,4.3-4.1c0.1-0.1,5.1-5.5,5.1-5.5l2.4,0.1
	c0,0,4.5-0.4,5.9,5.2l0.9,3.2l0.6,3.6c0,0,0.2,4.2,0.2,4.3c0,0.1-0.4,5.4-0.4,5.6c0,0.1-0.2,2.3-0.2,2.3L128.5,48.5z"/>
<path class="st1" d="M121.1,21.4l-1.7,2.1l2.4,0.1c0,0,3.3-0.5,5.2,3.7l1.6,4.4l0.6,4.6v4.9l-0.3,3.9l-0.2,2.6l2.1-6.7l1.3-6.1
	l0.7-5.7l0-4.3l-0.2-2.6c0,0-1.7-3.7-6.2-2.8l-2.3,0.7l-2.2,0.9l-0.8,0.1V21.4z"/>
<path class="st0" d="M128,7.6c0.1,0.2,2.6,6.2,2.6,6.3c0,0.1,1.2,4.2,1.2,4.3c0,0.2,0.8,4.2,0.8,4.2s-1.9-3.6-5.8-2.9l-2.1,0.5
	l-2.1,0.8l-1.3,0.4c0,0,4.8-5.8,5.5-8.4l0.7-2.1l0.4-1.9V7.6z"/>
<path class="st3" d="M124.7,5.6l-3.1,0.9l-6,2.5c0,0-5.7,3.1-5.8,3.1c-0.1,0-6.5,5-6.5,5l-5,5c0,0-2.8,3.5-2.9,3.7
	c-0.1,0.1-1.7,3.6-1.9,3.7c-0.2,0.1-2.2,3.4-2.2,3.4l-1.8,1.9l3.9,2.9l1.6-0.7v-0.1c0,0,0-0.3,0.2-0.8c0-0.1,0-0.1,0-0.2
	c0.1-2,1.1-3.9,2.2-5.5c0.6-0.8,1.1-1.7,1.9-2.4c0.1-0.1,0.3-0.2,0.4-0.4c0.1-0.3,0.3-0.5,0.6-0.7c0.4-0.6,0.9-1.1,1.3-1.6
	c0.9-1.2,2-2.4,3.2-3.7c0.2-0.2,7.6-7.4,7.6-7.4s5.1-4.1,5.3-4.2c0.2-0.1,4.7-2.8,4.7-2.8l2.4-1l0.3-0.1L124.7,5.6z"/>
<polygon class="st1" points="101.8,36.9 104.6,35.6 107.1,33.8 110.6,30.7 113.3,28 116.8,24 119.4,20.7 122.3,16.4 124.1,13.1 
	125.2,10.2 125.5,8 125.5,7 124.7,5.6 126.5,5.8 127.5,6.9 127.9,8.3 127.6,10.8 126.8,12.9 125.5,15.3 123.1,18.8 119.4,23.6 
	116.1,27.4 112,31.4 109.6,33.6 106.3,36.3 103.7,38.1 "/>
<path class="st2" d="M95,37.1c0,0-0.4-3.5,5.3-10l4.4-5.1l5.4-5.5l3.8-3.3l4.4-3.3l3.1-1.8l2.5-1.2l1.4-0.2l0.3,1.1l-0.3,2.6l-1,2.6
	l-1.9,3.6l-3.7,5.3l-3.7,4.5l-4.6,4.8l-4.2,3.6c0,0-2.3,2-4.6,2.1l-2.6-0.4l-2.3,0.3L95,37.1z"/>
<polygon class="st7" points="84.4,109.6 85.6,111.6 87,114.7 88.3,116.8 89.5,118.1 89.7,118.2 90.4,117.1 90.7,115.7 90.7,114.8 
	90.1,112.3 90,111.1 88.3,108.5 "/>
<path class="st7" d="M92.1,117.2C92.1,117.2,92.1,117.2,92.1,117.2C92.1,117.2,92.2,117.2,92.1,117.2c2.3-3.9,0.2-11,0.1-11.1
	l-2.1,1.4l-0.4,3.9l0.3,0.9c0,0,0.4,2.3,0.5,2.5C91.4,116.1,92,116.9,92.1,117.2z"/>
<path class="st2" d="M100,86l3,4.4l3.3,5.6l3.8,6.4l2.5,3.8l3.5,4.3l3.4,3.1c0,0,6.7,5.4,5.1-1.5l-2.8-6.4l-2.9-5.1l-3.1-4.7
	l-2.7-3.5l-4.3-4.5l-3.5-2.7l-3.1-1.8l-1.4-0.8L100,86z"/>
<path class="st3" d="M95.8,102l1.2-2.9l1-3.3l1.4-6.6l1.8,4.5l2.3,4.6l2.9,4.8l3.8,5.4l6.6,8.1l5.4,5.7c0,0,4.3,3.5,4.4,3.4
	c0.2,0-2.1-0.6-2.1-0.6l-6.5-3.1l-5.8-3.5l-4.8-3.2l-4.4-3.7l-4.4-5.4L95.8,102z"/>
<path class="st1" d="M134.4,127.1c0,0-0.3-10.3-4.9-18.8l-4.1-8.4l-5.7-8.2l-5.9-5.7l-6.4-4.4l-6.8-2.9l-0.1,4.1c0,0,7.6,3.4,10.1,7
	c0,0,6.3,6.7,7.9,10.3c0,0,5.7,9.4,6.1,12.1c0,0,0.7,2.1-0.8,3.3c0,0-1.8,0.5-5.7-3.1c0,0-3.1-3.3-3.1-3.1c0,0.1-2-2.5-2-2.5
	l-3.3-4.8c0,0-3.3-5.9-3.3-5.8c0,0.1-3-5.1-3-5.1l-2.3-3.5l-1.3-1.8l-0.6,3.3l4.3,9.7l4.1,6.4c0,0,5.2,6.8,5.2,6.8
	c-0.1,0,6.1,7.2,6.1,7.2l3.8,3.7l3,2.3l2.2,1.2l4.2,0.7H134.4z"/>
<path class="st8" d="M88.3,124.9c0.1-0.2,1.7-1,1.7-1l0.4-0.1L89,123c0,0-1.4-1.7-1.2-3l1.5,0.4c0,0,2.8,2.1,4.4-1.4l1-1.8l0.9-1.1
	l-0.4,3.1c0,0,3.1-1.3,3.8-3.2c0,0,0.6,2.4-1.3,4.5l6.1-1.8c0,0,0.4,2.7-5.9,4.7l1.6,1.6l1.5,1.7l-1.7,0.7l-2.1,0.7l-2.5,0l-0.5,2.3
	l0.3,2.3l-2.2-3.3l-0.5-0.4l-2.2,1.8l0-2.2l1.4-1.9l1.1-1.2l-1.8,0.1L88.3,124.9z"/>
<path class="st1" d="M58.8,86.1c0,0-5.5,9.9-4.3,20.4c0,0,1.5,11.4,4.4,16.1c0,0,2.4,7.3,4,8.7c1.6,1.4,0.1,0.2,0.1,0.2l1.3,1.5
	l1.4,2.3c0,0,2.7,4.8,4.6-1.3l0.5-2.3l0.7-8.5v-8.5l-0.4-6.7l-0.6-4.7l-0.3-2.2l-4.5-6.4L61.2,89L58.8,86.1z"/>
<path class="st2" d="M66.6,109.6l-0.8-6l-0.3-3.3l-0.2-3.2l-0.8-3.2L64.3,93l-3-4.3l-0.5,2.9c0,0.1-0.6,6-0.9,10.5
	c1,0,1.9,1,1.3,2.1c-1.2,2,0,5,0.6,7c0.4,1.4,2,4.3,0.8,5.6c-0.4,0.4-0.8,0.5-1.2,0.4c0.5,1.6,1,3,1.6,3.2c0,0,2.2,2.6,3.7-3.2
	l0.3-2.2L66.6,109.6z"/>
<path class="st4" d="M75.1,106.7c0.2,0.1,0.3,1.3,0.3,1.3l0.5,2.3c0,0,0.1,2.2-0.3,4.8l-0.7,4.4c0,0-1.1,4.4-1.1,4.5
	c0,0.1-0.9,2.6-0.9,2.6l-1,2.5l-1.2,2.8l0.6-6.7l0.1-6v-4.6l-0.3-5.1l-0.4-4.1l-0.5-3.9l3.3,3.6L75.1,106.7z"/>
<path class="st9" d="M51,104.7c0,0-0.9-2.3,0.1-4.4l0.8,2.2l1.3,2.2l0.9-2.4l1.7-1.6l2.5-2.8l0.3,1.3l-0.7,2.4l-0.8,1.7
	c0,0,1.9-1.7,5.4-0.9l2.2,0.1l1.5-0.5l-0.4,1l-2.1,1.2l-2.8,1.5c0,0,2.1-0.2,7.1,3.9l-0.9,0.1l-2.8,0.5c0,0-2.8,0.7-2.7,0.5
	c0.1-0.2,1.3,1,2.2,2.6c0,0,1.2,2.3,1.2,2.5c0,0.2,0.3,2.6,0.4,2.7c0,0.1,0.2,1.7,0.2,1.7l-2.4-1.8l-2.4-1.6l-1.3-1.3l-1-1.3
	l-0.5,1.6c0,0-1,2.4-1.1,2.6c-0.1,0.2-1.4,3.1-1.4,3.1l-0.6,1.7l-1.3-2.4l-1.5-3.2l-0.7-2.1l0.1-3.7l-1.7,1.5l-1.6,1.2
	c0,0-3,1-3.1,1.1c0,0,1.3-1.4,1.3-1.4l1.1-1.8l1.4-2.8l1.1-1.6l-1.6,0l-2-0.5l-2-0.6l3-1.1l2.5-0.8L51,104.7z"/>
<path class="st10" d="M36.2,96.5l1.3-2.5l0.7,4.8l2.4-0.1l-1.3,1.2l-0.4,1l0.7,0.8h-2.7l0.6,1l-0.6,0.3l-0.7,2.4l-0.7-2.7l-1,1.5
	l-2.4,1.6l1-3.4l-1.8-0.3l-2.6-1.9l3.2-1.4c0,0-3.7-1.2-3.7-5.7c-0.1-4.5,0-0.2,0-0.2l4.2,3.2l0-1.3l-0.8-3l2.1,1.8l1.7,1.7
	L36.2,96.5z"/>
<g>
	<g>
		<path class="st11" d="M97.7,42.5c-0.3-0.6-0.5-1.2-0.9-1.7c-0.4-0.6-1-1.1-1.5-1.7c-1-1.1-2-2.1-3.2-3c-2.5-1.8-5.3-3-8.3-3.6
			c-6.5-1.4-13-0.2-19.5,0.6c-2.9,0.4-5.6,0.9-8.2,2.3c-2.4,1.3-4.6,3.1-6.3,5.2c-3.4,4.2-5.3,9.4-5.6,14.8
			c-0.3,5.7,1.2,11.4,4,16.4c3.1,5.6,7.6,10.5,11.5,15.6c4.1,5.2,7.7,10.8,11.8,16c1.6,2,3.5,4,5.8,5.2c2.3,1.2,4.9,1.5,7.4,1.1
			c6.1-0.8,10.6-5.1,12.7-10.8c1.3-3.5,1.8-7.2,2.4-10.8c0.6-3.7,1.5-7.4,0.9-11.2c-0.1-0.4-0.7-0.3-0.7,0.2
			c0.6,3.4-0.2,6.8-0.7,10.1c-0.5,3.1-1,6.2-1.8,9.3c-1.4,5.3-4.5,10-9.9,11.8c-2.7,0.9-5.7,1.1-8.4,0.2c-2.5-0.8-4.5-2.6-6.2-4.5
			c-3.9-4.5-7.1-9.7-10.7-14.4C55.3,80.6,46.1,71.8,45,59.8c-1-10.4,4.4-22.4,15.2-25.3c3.4-0.9,7-1.1,10.4-1.5
			c3.2-0.4,6.5-0.6,9.7-0.3c3.5,0.3,7,1.3,10,3.1c1.5,0.9,2.8,1.9,3.9,3.1c0.5,0.5,1,1.1,1.4,1.6c0.6,0.7,0.9,1.5,1.4,2.3
			C97.3,43.3,97.9,42.9,97.7,42.5L97.7,42.5z"/>
	</g>
</g>
<g>
	<g>
		<path class="st11" d="M63.3,34c0.4,0,0.4-0.7,0-0.7C62.9,33.3,62.9,34,63.3,34L63.3,34z"/>
	</g>
</g>
<g>
	<g>
		<path class="st11" d="M45.2,49.9c-3.2-0.2-6-3-5.4-6.3c0.5-3,3.5-5.2,6.4-5.4c1.6-0.1,3.7-0.1,4.8,1.3c0.3,0.3,0.8-0.1,0.5-0.5
			c-1.1-1.4-3-1.5-4.6-1.5c-1.8,0-3.5,0.6-4.9,1.6c-2.8,2-4,6-1.8,8.9c1.2,1.6,3.1,2.5,5,2.6C45.6,50.6,45.6,49.9,45.2,49.9
			L45.2,49.9z"/>
	</g>
</g>
<g>
	<g>
		<path class="st11" d="M93.6,38c1.3-0.7,2.8-1.1,4.2-1.3c1.4-0.2,3-0.1,4.3,0.6c2.5,1.4,3.2,5.1,2.3,7.7c-0.6,1.7-2.3,3.2-4.1,3.5
			c-0.4,0.1-0.3,0.7,0.2,0.7c1.8-0.3,3.4-1.5,4.2-3.1c0.7-1.4,0.9-3,0.7-4.6c-0.2-1.6-1-3.2-2.2-4.2c-1.3-1.1-3-1.4-4.6-1.3
			c-1.9,0.1-3.8,0.6-5.4,1.4C92.9,37.6,93.2,38.2,93.6,38L93.6,38z"/>
	</g>
</g>
<g>
	<g>
		<path class="st11" d="M69,55c0.1,0,0.1,0,0.2,0c0-0.1,0-0.2,0-0.3c-0.2,0.1-0.6,0.1-0.8,0.2c-0.4,0.2-0.9,0.6-1.2,0.8
			c-0.8,0.6-1.5,1.3-1.9,2.2c-0.9,2.3,2.1,3.4,3.9,3.1c1.4-0.2,2.7-0.8,4-0.9c1.2-0.1,2.3,0.3,3.5,0.6c0.8,0.2,1.8,0.4,2.6-0.2
			c0.8-0.5,1.1-1.6,1-2.5c-0.4-2.2-3.1-3.3-4.9-4c-0.2-0.1-0.3,0.3-0.1,0.3c1.6,0.6,3.5,1.4,4.4,3c0.5,0.9,0.3,2.2-0.5,2.8
			c-0.8,0.6-1.9,0.3-2.7,0.1c-0.8-0.2-1.6-0.5-2.5-0.5c-1.1,0-2.2,0.3-3.3,0.6c-1.2,0.3-2.5,0.6-3.8,0.1c-0.9-0.4-1.7-1.1-1.4-2.2
			c0.3-1,1.2-1.8,2.1-2.4c0.3-0.2,0.6-0.5,1-0.6c0.2-0.1,0.5-0.1,0.8-0.2c0.1-0.1,0.1-0.3,0-0.3c-0.1,0-0.3,0-0.4,0
			C68.7,54.7,68.8,55.1,69,55L69,55z"/>
	</g>
</g>
<g>
	<g>
		<path class="st11" d="M76.2,60.7c0.3,0.8,0.5,1.6,0.5,2.5c0,0.7,0,1.7-0.6,2.3c-0.5,0.5-1.4,0.9-2.1,0.5c-0.5-0.3-0.7-1-1-1.5
			c-0.1-0.2-0.4,0-0.3,0.2c0.2,0.5,0.4,1,0.8,1.4c0.4,0.4,1.1,0.4,1.7,0.3c0.6-0.2,1.2-0.6,1.4-1.2c0.3-0.6,0.3-1.4,0.3-2.1
			c0-0.9-0.2-1.7-0.5-2.5C76.4,60.4,76.1,60.5,76.2,60.7L76.2,60.7z"/>
	</g>
</g>
<path class="st12" d="M92.7,45.8c0-4.9-4-8.9-8.9-8.9c-4.9,0-8.9,4-8.9,8.9c0,4.9,4,8.9,8.9,8.9C88.7,54.7,92.7,50.7,92.7,45.8z"/>
<path class="st12" d="M70.2,46.7c0-4.9-4-8.9-8.9-8.9c-4.9,0-8.9,4-8.9,8.9c0,4.9,4,8.9,8.9,8.9C66.3,55.6,70.2,51.6,70.2,46.7z"/>
<path class="st11" d="M100.8,42.2c0-1-0.8-1.9-1.9-1.9c-1,0-1.9,0.8-1.9,1.9c0,1,0.8,1.9,1.9,1.9C100,44.1,100.8,43.3,100.8,42.2z"
	/>
<path class="st11" d="M47.9,43.9c0-1-0.8-1.9-1.9-1.9c-1,0-1.9,0.8-1.9,1.9c0,1,0.8,1.9,1.9,1.9C47.1,45.8,47.9,45,47.9,43.9z"/>
<path class="st11" d="M76.6,54c0-1.2-1.8-2.2-4-2.2c-2.2,0-4,1-4,2.2c0,1.2,1.8,2.2,4,2.2C74.8,56.2,76.6,55.2,76.6,54z"/>
<path class="st11" d="M83.8,43.4c-1.6,0-2.9,1.3-2.9,2.9c0,1.6,1.3,2.9,2.9,2.9c1.6,0,2.9-1.3,2.9-2.9
	C86.7,44.7,85.4,43.4,83.8,43.4z M84.9,48.1c-0.5,0-0.8-0.4-0.8-0.8c0-0.5,0.4-0.8,0.8-0.8c0.5,0,0.8,0.4,0.8,0.8
	C85.7,47.8,85.4,48.1,84.9,48.1z"/>
<path class="st11" d="M61.3,46c-1.6,0-2.9,1.3-2.9,2.9c0,1.6,1.3,2.9,2.9,2.9c1.6,0,2.9-1.3,2.9-2.9C64.2,47.3,62.9,46,61.3,46z
	 M62.5,50.7c-0.5,0-0.8-0.4-0.8-0.8c0-0.5,0.4-0.8,0.8-0.8c0.5,0,0.8,0.4,0.8,0.8C63.3,50.3,63,50.7,62.5,50.7z"/>
<g>
	<g>
		<path class="st11" d="M72.8,60.1c0.1,0.5,0.1,1.1,0.1,1.7c0,0.6,0,1.2,0,1.9c-0.1,0.9-0.3,2.1-1.2,2.5c-0.7,0.3-1.7,0-2.1-0.7
			c-0.4-0.6-0.5-1.5-0.5-2.2c0-0.8,0.1-1.6,0.3-2.4c0.1-0.2-0.3-0.3-0.3-0.1c-0.2,0.8-0.3,1.6-0.3,2.4c0,0.8,0.1,1.8,0.6,2.5
			c0.5,0.7,1.3,1.1,2.2,0.9c0.9-0.2,1.4-1.2,1.6-2.1c0.2-0.8,0.1-1.6,0.1-2.4c0-0.7,0.1-1.4-0.1-2C73.1,59.8,72.7,59.9,72.8,60.1
			L72.8,60.1z"/>
	</g>
</g>
<g>
	<g>
		<path class="st11" d="M96.6,41.9c3.4,5,4.4,10.9,4.4,16.8c0,6.2-0.6,12.5-0.9,18.7c0,0.4,0.7,0.4,0.7,0c0.4-6.5,1-13,0.9-19.5
			c-0.1-5.7-1.2-11.5-4.5-16.3C97,41.2,96.4,41.5,96.6,41.9L96.6,41.9z"/>
	</g>
</g>
<g>
	<g>
		<path class="st11" d="M70.5,32.6c0.9-1,0.2-2.3-0.5-3.1c-1-1.3-2.6-2.3-4.2-2.6c-1.6-0.3-3.2,0.3-3.9,1.8
			c-0.8,1.5-0.4,3.6,0.2,5.1c0.7,1.5,2.2,2.9,4,2c1.6-0.9,0.6-3.1-0.6-3.8c-1.7-1-4.3-0.1-5.4,1.4c-1.5,2,2.1,4.6-0.1,6.3
			c-0.5,0.4-1.2,0.6-1.2,1.3c0,0.9,0.8,2,1.5,2.5c0.7,0.6,1.6,0.8,2.4,1.1c1.2,0.5,1.7,1.2,1.4,2.6c-0.1,0.4,0.6,0.6,0.7,0.2
			c0.3-1.3,0.1-2.5-1.2-3.1c-1.2-0.6-2.6-0.7-3.4-1.9c-0.4-0.6-1-1.3-0.3-1.8c0.5-0.3,1-0.6,1.3-1.1c0.3-0.6,0.4-1.2,0.3-1.9
			c-0.2-1-1-2-1-3.1c0-1.1,1.2-1.7,2-2.1c1-0.4,2.1-0.5,3,0.3c0.5,0.4,1,1.2,0.8,1.9c-0.3,0.9-1.7,0.9-2.4,0.4
			c-2.2-1.6-2.6-7,0.7-7.5c1.5-0.2,3.1,0.6,4.2,1.6c0.6,0.6,2.2,2.1,1.4,3C69.7,32.4,70.2,32.9,70.5,32.6L70.5,32.6z"/>
	</g>
</g>
<g>
	<g>
		<path class="st11" d="M74.5,32.4c1.1-1.4,0.7-4-1.2-4.5c-1.3-0.4-2.6,0.4-3.2,1.6c-0.7,1.3-0.8,3-0.6,4.5c0.2,1.7,0.7,3.4,1.5,4.9
			c0.8,1.5,2.1,2.9,3.8,3.1c0.4,0.1,0.6-0.6,0.2-0.7c-2.7-0.4-4.1-3.6-4.6-5.9c-0.3-1.3-0.4-2.8-0.2-4.1c0.2-1,0.6-2.1,1.6-2.6
			c2-0.9,3.4,1.7,2.2,3.2C73.7,32.2,74.2,32.7,74.5,32.4L74.5,32.4z"/>
	</g>
</g>
<g>
	<g>
		<path class="st11" d="M89.7,35.1c3-2.3,4.3-6.5,6.3-9.6c1.3-2,3-3.7,4.7-5.4c1.7-1.8,3.6-3.5,5.6-5c3.5-2.7,7.4-4.8,11.4-6.6
			c1.7-0.7,3.3-1.5,5-2c1.3-0.4,3.1-1,4.2,0.1c1.1,1.1,1.7,2.7,2.2,4.1c0.7,1.7,1.2,3.5,1.7,5.3c0.9,3.3,1.6,6.5,1.7,9.9
			c0.2,10.1-3,20.4-7.2,29.5c-2.3,5.1-5.5,9.7-9.6,13.6c-2,2-4.3,3.9-6.7,5.4c-2.4,1.5-5.1,1.8-7.8,2.4c-0.4,0.1-0.3,0.8,0.2,0.7
			c2.4-0.5,4.8-0.8,7-1.9c2.2-1.1,4.3-2.8,6.1-4.5c3.9-3.4,7.3-7.5,9.8-12c2.5-4.4,4.3-9.3,5.8-14.1c1.6-5.1,2.8-10.3,3.1-15.6
			c0.2-3.9-0.1-7.7-1-11.4c-0.9-3.5-1.8-7.1-3.6-10.3c-0.5-0.9-1.2-2.1-2.4-2.4c-1.4-0.3-3.1,0.3-4.5,0.8c-3.7,1.3-7.5,3-10.9,5.1
			c-4.9,2.9-9.2,6.8-13,11.1c-1.6,1.9-2.9,3.8-4.1,5.9c-1.2,2.2-2.3,4.8-4.3,6.4C89,34.8,89.3,35.4,89.7,35.1L89.7,35.1z"/>
	</g>
</g>
<g>
	<g>
		<path class="st11" d="M56.7,83.9c-0.8,0.7-2.6,0.5-3.6,0.4c-1.4,0-2.7-0.1-4.1-0.3c-3.2-0.4-6.3-1.3-9.2-2.7
			c-5.6-2.7-10.2-7-13.8-12C17.8,57.7,12.3,44.2,9.6,30.2C8,22.2,7.3,14.1,7.3,6C7.2,6.1,7.1,6.3,7,6.4c3.7,0.1,7.2,1.9,10.3,3.6
			c3.2,1.7,6.4,3.3,9.5,5.1c6.9,3.8,13.1,8.5,18.6,14.1c2.4,2.5,6,5.5,6.3,9.2c0,0.4,0.7,0.4,0.7,0c-0.3-3.1-2.7-5.7-4.7-7.8
			c-2.6-2.8-5.4-5.5-8.4-8c-6.4-5.2-13.7-8.9-21-12.8C14.9,7.8,11,5.8,7,5.7C6.8,5.7,6.6,5.8,6.6,6c0,15.1,2.4,30.2,8.2,44.2
			c2.8,6.9,6.4,13.6,10.8,19.6c3.6,5,8.2,9.3,13.7,12c3.1,1.5,6.5,2.5,9.9,2.9c1.6,0.2,3.2,0.2,4.7,0.2c1.1,0,2.4,0.1,3.3-0.7
			C57.6,84.1,57.1,83.6,56.7,83.9L56.7,83.9z"/>
	</g>
</g>
<g>
	<g>
		<path class="st11" d="M56.9,118.3c0.8,2.1,1.8,4.1,2.6,6.2c0.7,2,1.4,4,2.5,5.8c0.9,1.5,2.1,2.8,3,4.3c0.5,0.9,1.2,2.1,2.2,2.5
			c2.6,1,3.3-3.2,3.7-4.7c0.6-2,1.6-3.9,2.3-5.9c0.8-2.2,1.4-4.4,1.9-6.7c0.8-4,2.1-8.6,0.2-12.4c-0.1-0.2-0.3-0.1-0.3,0.1
			c0,0.3,0,0.5,0,0.8c0,0.2,0.3,0.2,0.3,0c0-0.3,0-0.5,0-0.8c-0.1,0-0.2,0.1-0.3,0.1c1.2,2.3,1.1,4.8,0.7,7.3
			c-0.3,2.2-0.8,4.5-1.3,6.6c-1,4.3-3.1,8.2-4.2,12.5c-0.2,0.8-0.5,1.8-1.1,2.4c-1.1,1-2.2,0.3-3-0.7c-0.9-1.3-1.6-2.7-2.6-3.9
			c-1.6-2.1-2.6-4.4-3.5-6.9c-0.8-2.3-1.9-4.4-2.7-6.6C57.2,118,56.9,118.1,56.9,118.3L56.9,118.3z"/>
	</g>
</g>
<g>
	<g>
		<path class="st11" d="M58.6,86.1c-2.8,4.7-4.2,10.1-4.4,15.6c0,0.2,0.3,0.2,0.3,0c0.2-5.4,1.6-10.7,4.4-15.4
			C59,86,58.7,85.9,58.6,86.1L58.6,86.1z"/>
	</g>
</g>
<g>
	<g>
		<path class="st11" d="M100.9,79.2c7.1,2.5,13.4,6.9,18.3,12.5c5.4,6.1,9,13.6,11.8,21.3c1.7,4.6,3,9.4,3.1,14.3
			c0.1-0.1,0.2-0.2,0.3-0.3c-8-0.1-15.2-4.3-21.8-8.5c-3.2-2.1-6.5-4.2-9.3-6.9c-2.9-2.9-5.1-6.4-7.3-9.8c-0.2-0.4-0.8,0-0.6,0.3
			c2.3,3.5,4.5,7,7.4,9.9c2.8,2.8,6.1,4.9,9.4,7c6.7,4.3,14,8.5,22.1,8.6c0.2,0,0.3-0.2,0.3-0.3c0-4.4-1.1-8.7-2.5-12.8
			c-1.3-4-2.9-7.8-4.8-11.6c-3.6-7.1-8.5-13.6-14.9-18.4c-3.5-2.6-7.3-4.6-11.4-6.1C100.7,78.4,100.5,79,100.9,79.2L100.9,79.2z"/>
	</g>
</g>
<g>
	<g>
		<path class="st11" d="M84.5,109.9c1.6,2.9,2.4,6.4,5.2,8.5c0.1,0.1,0.2,0,0.2-0.1c1.1-1.5,1.1-3.5,0.7-5.2
			c-0.5-1.8-1.3-3.6-2.4-5.1c-0.1-0.2-0.4,0-0.3,0.2c1,1.4,1.9,3,2.3,4.7c0.5,1.8,0.6,3.7-0.6,5.3c0.1,0,0.2,0,0.2-0.1
			c-2.7-2-3.4-5.6-5-8.3C84.7,109.5,84.4,109.7,84.5,109.9L84.5,109.9z"/>
	</g>
</g>
<g>
	<g>
		<path class="st11" d="M92,105.9c0.9,3.7,1.5,7.8,0,11.4c0.1,0,0.2,0,0.3,0c-1.3-1.3-1.8-3.2-2-5c-0.2-1.6-0.2-3.2,0.1-4.8
			c0-0.2-0.3-0.3-0.3-0.1c-0.3,1.7-0.3,3.4-0.1,5.1c0.2,1.8,0.8,3.7,2.1,5.1c0.1,0.1,0.2,0.1,0.3,0c1.6-3.7,1-7.9,0-11.6
			C92.3,105.6,92,105.7,92,105.9L92,105.9z"/>
	</g>
</g>
<g>
	<g>
		<path class="st11" d="M89.7,118.2c0-2.2-1.1-4.2-1.8-6.2c-0.1-0.2-0.4-0.1-0.3,0.1c0.7,2,1.7,4,1.8,6.2
			C89.3,118.5,89.7,118.5,89.7,118.2L89.7,118.2z"/>
	</g>
</g>
<g>
	<g>
		<path class="st11" d="M92.3,117.1c-0.5-1.9-0.4-3.8-0.4-5.7c0-0.2-0.3-0.2-0.3,0c0,1.9,0,3.9,0.4,5.8
			C92.1,117.4,92.4,117.3,92.3,117.1L92.3,117.1z"/>
	</g>
</g>
<g>
	<g>
		<path class="st11" d="M101.6,66.4c0.9,0.4,2.1,0.4,3.1,0.5c0.6,0,1.2,0.1,1.8,0.1c0.3,0,0.8,0.1,1,0.3c0.2,0.3,0,0.7-0.2,0.9
			c-0.2,0.3-0.6,0.5-0.9,0.7c-0.9,0.4-1.9,0.6-2.9,0.6c-0.5,0-1,0-1.5,0c-0.3,0-0.6-0.1-0.8-0.3c-0.1-0.2-0.4,0.1-0.2,0.2
			c0.2,0.2,0.5,0.3,0.8,0.4c0.4,0.1,0.9,0.1,1.4,0.1c1.1,0,2.2-0.2,3.2-0.6c0.7-0.3,1.6-0.8,1.7-1.7c0-1-1.3-1-2-1
			c-0.7-0.1-1.5-0.1-2.2-0.2c-0.6,0-1.3-0.1-1.9-0.3C101.6,66,101.4,66.3,101.6,66.4L101.6,66.4z"/>
	</g>
</g>
<g>
	<g>
		<path class="st11" d="M104.3,67.9c1.2,0.5,2.6,0.2,3.5-0.7c0.2-0.2-0.1-0.4-0.2-0.2c-0.8,0.8-2.1,1-3.2,0.6
			C104.2,67.5,104.1,67.9,104.3,67.9L104.3,67.9z"/>
	</g>
</g>
<g>
	<g>
		<path class="st11" d="M9.6,31.6c1.1-2.4,2.7-4.7,4.7-6.3c1.6-1.4,3.7-2.3,5.8-1.9c1.9,0.4,3.7,1.7,5.4,2.6
			c0.1-0.1,0.1-0.2,0.2-0.3c-0.8-0.5-1.7-0.9-2.5-1.4c-0.2-0.1-0.7-0.4-0.8-0.4c-0.3-0.4-0.5-1.2-0.8-1.7c-1.2-2.6-3.6-6.4-2-9.2
			c0.4-0.8,1.1-1.2,1.8-1.7c0.1-0.1,1-0.6,1-0.7c0-0.5-1.3,0.7-1.5,0.8c-0.1,0.1,0.2,0.1,0.2,0.1c0,0-0.1-0.1-0.1-0.1
			c-0.1,0-0.2,0-0.3,0c-0.7,0.4-1.3,1.3-1.6,2.1c-1,2.4,0.5,5.1,1.5,7.3c1.4,3.1,2.9,6,4.7,8.9c3.9,6.3,8.5,12.2,14.1,17
			c0.2,0.1,0.4-0.1,0.2-0.2c-5.4-4.6-9.9-10.2-13.6-16.2c-1.9-3-3.5-6.1-5-9.3c-0.7-1.5-1.4-3.1-1.8-4.7c-0.2-1-0.2-2,0.2-2.9
			c0.1-0.2,1.3-1.6,1.3-1.7c0,0.1,0.2,0.2,0.3,0.1c0.5-0.4,1.1-0.7,1.5-1.2c0.1-0.1,0-0.2-0.1-0.3c-0.2,0-0.4,0.2-0.5,0.3
			c-0.7,0.4-1.4,0.9-1.9,1.5c-0.9,1-1.2,2.3-1.1,3.5c0.1,1.5,0.8,2.8,1.4,4.1c0.5,1.1,1,2.2,1.5,3.3c0.2,0.4,0.3,0.9,0.7,1.2
			c0.5,0.4,1.3,0.7,1.8,1c0.5,0.3,0.9,0.5,1.4,0.8c0.2,0.1,0.4-0.2,0.2-0.3c-1.8-1-3.6-2.3-5.7-2.7c-1.9-0.3-3.8,0.4-5.3,1.5
			c-2.3,1.7-4.1,4.3-5.3,6.9C9.2,31.6,9.5,31.8,9.6,31.6L9.6,31.6z"/>
	</g>
</g>
<g>
	<g>
		<path class="st11" d="M103.7,38.3c1.6-0.5,3.2-2.1,4.4-3.2c2.6-2.3,5.1-4.7,7.5-7.2c2.6-2.7,5.1-5.6,7.4-8.6
			c1.8-2.5,3.7-5.1,4.6-8c0.7-2,0.8-4.4-1.1-5.6c-0.2-0.1-0.4,0.2-0.2,0.3c1.9,1.2,1.6,3.5,0.9,5.4c-1,2.8-2.7,5.3-4.5,7.7
			c-4.1,5.5-9,10.6-14.1,15.1c-1,0.9-2.1,1.8-3.2,2.6c-0.6,0.4-1.2,1-1.9,1.2C103.4,38,103.5,38.4,103.7,38.3L103.7,38.3z"/>
	</g>
</g>
<g>
	<g>
		<path class="st11" d="M70.4,134.4c1.5-7.1,1.3-14.5,1-21.7c-0.1-2.7-0.2-5.4-0.6-8.1c-0.2-1.7-0.5-4.1-1.8-5.4
			c-0.2-0.2-0.4,0.1-0.2,0.2c1.5,1.4,1.6,4.3,1.8,6.2c0.3,2.5,0.4,5,0.5,7.5c0.3,7,0.4,14.1-1,21.1
			C70.1,134.6,70.4,134.7,70.4,134.4L70.4,134.4z"/>
	</g>
</g>
<g>
	<g>
		<path class="st11" d="M99.1,88.4c2.2,7.9,6.8,14.9,11.8,21.4c2.5,3.2,5.1,6.3,7.8,9.3c2.7,3,5.6,5.8,9.3,7.5
			c0.2,0.1,0.4-0.2,0.2-0.3c-3.6-1.7-6.5-4.5-9.2-7.4c-2.6-2.9-5.1-5.9-7.5-9c-5.1-6.5-9.7-13.6-12-21.6
			C99.4,88.1,99,88.2,99.1,88.4L99.1,88.4z"/>
	</g>
</g>
<g>
	<g>
		<path class="st11" d="M61.2,117.6c0.4,1.2,1.5,4.1,3.3,3.5c2.4-0.8,2.5-4.7,2.5-6.7c0.1-3.9-0.6-7.7-1.1-11.5
			c-0.4-3.1,0-6.5-1.5-9.3c-0.1-0.2-0.4,0-0.3,0.2c1.3,2.5,1.1,5.2,1.3,7.9c0.2,2.8,0.8,5.6,1.1,8.5c0.2,2.6,0.5,5.6-0.3,8.2
			c-0.4,1.3-1.7,3.5-3.2,2c-0.7-0.7-1.1-1.8-1.5-2.7C61.5,117.3,61.2,117.4,61.2,117.6L61.2,117.6z"/>
	</g>
</g>
<g>
	<g>
		<path class="st11" d="M60.8,89.5c-0.4,4.1-1,8.1-1.2,12.2c0,0.2,0.3,0.2,0.3,0c0.2-4.1,0.8-8.1,1.2-12.2
			C61.2,89.2,60.8,89.2,60.8,89.5L60.8,89.5z"/>
	</g>
</g>
<g>
	<g>
		<path class="st11" d="M99.8,86c4.4,5.8,7.5,12.5,11.6,18.6c2.6,3.9,5.9,8.3,10.1,10.7c1.1,0.6,2.7,1.1,3.3-0.3
			c0.7-1.6-0.3-3.9-1-5.4c-0.8-1.8-1.7-3.5-2.6-5.2c-1.6-2.8-3.1-5.5-5-8.1c-4.1-5.8-9.3-11.1-16-13.7c-0.2-0.1-0.3,0.3-0.1,0.3
			c10.6,4,17.1,14.5,22.1,24.1c1,1.9,2,3.9,2.3,6c0.1,0.8,0.2,2-0.6,2.5c-0.8,0.5-2-0.3-2.7-0.7c-4-2.5-7.1-6.5-9.6-10.3
			c-4-6.1-7.1-12.7-11.6-18.6C99.9,85.7,99.6,85.8,99.8,86L99.8,86z"/>
	</g>
</g>
<g>
	<g>
		<path class="st11" d="M23.9,27.2c-1.4-2-4.8-0.3-6.3,0.8c-2.5,1.8-3.5,4.9-3.6,7.9c-0.4,8.2,2.5,16.6,5.6,24
			c0.1,0.2,0.4,0.1,0.3-0.1c-2.8-6.6-5-13.5-5.5-20.8c-0.2-3-0.1-6.2,1.5-8.8c0.8-1.2,1.9-2.2,3.3-2.8c1.2-0.6,3.4-1.4,4.4,0
			C23.8,27.5,24.1,27.4,23.9,27.2L23.9,27.2z"/>
	</g>
</g>
<g>
	<g>
		<path class="st11" d="M31.1,38.2c-6.6-1.9-6.2,7.4-5.8,11.4c0.7,6.7,2.4,13.3,4.9,19.5c1.2,2.9,2.6,5.9,4.5,8.4
			c1,1.3,2.1,2.3,3.4,3.1c1.6,1,3.4,1.7,4.9,3c0.2,0.1,0.4-0.1,0.2-0.2c-2.2-1.9-5.2-2.7-7.3-4.8c-2-2.1-3.5-4.7-4.6-7.4
			c-1.5-3.2-2.7-6.6-3.6-10.1c-0.8-2.9-1.4-5.8-1.8-8.8c-0.5-3.1-0.9-6.5-0.4-9.6c0.2-1.3,0.6-2.7,1.5-3.6c1-1,2.5-1,3.8-0.6
			C31.3,38.6,31.4,38.2,31.1,38.2L31.1,38.2z"/>
	</g>
</g>
<g>
	<g>
		<path class="st11" d="M107.5,36.1c5.7-2.8,7.6,5.4,8.1,9.3c0.9,6.9,0.3,14.4-1.8,21.1c-0.9,2.8-2.2,6.1-4.7,7.8
			c-0.2,0.1,0,0.4,0.2,0.3c2.2-1.5,3.5-4.1,4.4-6.6c1.3-3.5,2-7.3,2.3-11c0.4-3.8,0.4-7.7-0.1-11.6c-0.4-2.8-1-5.9-2.7-8.3
			c-1.5-2-3.7-2.5-5.9-1.4C107.2,35.9,107.3,36.2,107.5,36.1L107.5,36.1z"/>
	</g>
</g>
<g>
	<g>
		<path class="st11" d="M119.4,23.7c1.7,0.6,3.4-0.3,5.1,0.8c1.2,0.8,2.1,2.2,2.7,3.5c1.3,2.8,1.8,6,2,9c0.2,2.6,0,5.4-0.3,8
			c-0.3,2.8-0.6,6.3-2.5,8.5c-0.1,0.2,0.1,0.4,0.2,0.2c1.4-1.7,1.8-3.9,2.2-6c0.4-2.6,0.6-5.2,0.7-7.8c0.1-4.5-0.3-9.7-2.8-13.5
			c-0.6-1-1.5-1.9-2.5-2.5c-1.5-0.8-3.2,0-4.7-0.6C119.2,23.3,119.1,23.6,119.4,23.7L119.4,23.7z"/>
	</g>
</g>
<g>
	<g>
		<path class="st11" d="M36,97.4c0.8-1.2,1.4-2.5,2-3.8c-0.2-0.1-0.4-0.1-0.6-0.2c0,1.8,0.4,3.5,0.2,5.3c0,0.2,0.2,0.3,0.3,0.3
			c1.1,0,2.1,0.1,3.2-0.2c-0.1-0.2-0.2-0.4-0.3-0.6c-1,0.5-1.7,1.3-2.5,2c-0.1,0.1-0.1,0.3-0.1,0.4c0.3,0.4,0.6,0.8,0.9,1.2
			c0.1-0.2,0.2-0.4,0.3-0.6c-0.9-0.3-1.9,0-2.9-0.2c-0.3-0.1-0.6,0.2-0.4,0.5c0.4,0.6,1,1.1,1.5,1.6c0.3,0.3,0.6,0.5,0.8,0.8
			c0.2,0.2,0.3,0.5,0.5,0.6c-0.1-0.1-0.2-0.3-0.2-0.4c0.1-0.1-0.4,0.2-0.5,0.2c0.2,0,0.3,0.1,0.5,0.1c-0.4-0.8-1.2-1.3-1.8-2
			c-0.2-0.3-0.7-0.1-0.6,0.3c0.1,0.9-0.3,1.7-0.7,2.5c0.2,0,0.4,0,0.7,0c-0.2-1-0.6-2.1-0.4-3.1c0.1-0.4-0.5-0.6-0.7-0.2
			c-0.6,1.9-2.6,2.5-3.9,3.8c0.2,0.1,0.4,0.2,0.6,0.3c0.4-1.3,0.8-2.5,1.5-3.7c0.2-0.3-0.1-0.6-0.4-0.5c-1.9,0.5-3.1-1.6-4.7-2.2
			c0,0.2,0,0.4,0,0.7c1.3-0.5,2.6-1.1,4-1.5c0.4-0.1,0.3-0.7-0.1-0.7c-2.7-0.1-3.5-3.1-4.1-5.3c-0.2,0.1-0.3,0.3-0.5,0.4
			c1.7,0.9,3,2.3,4.6,3.3c0.3,0.2,0.5-0.1,0.5-0.4c-0.2-1.6-0.5-3.3-1.4-4.7c-0.2,0.2-0.3,0.3-0.5,0.5c1,0.7,2,1.5,2.9,2.4
			C34.9,95.1,36,96.2,36,97.4c0,0.5,0.7,0.5,0.7,0c0-1.3-1-2.4-1.9-3.3c-1-1-2.2-1.9-3.3-2.7c-0.3-0.2-0.7,0.2-0.5,0.5
			c0.9,1.4,1.1,3,1.3,4.6c0.2-0.1,0.3-0.3,0.5-0.4c-1.6-1-2.9-2.4-4.6-3.3c-0.3-0.1-0.6,0.1-0.5,0.4c0.7,2.5,1.7,5.7,4.8,5.8
			c0-0.2-0.1-0.5-0.1-0.7c-1.3,0.5-2.6,1.1-4,1.5c-0.3,0.1-0.3,0.5,0,0.7c0.9,0.4,1.6,1.2,2.5,1.8c0.8,0.5,1.7,0.7,2.6,0.5
			c-0.1-0.2-0.3-0.3-0.4-0.5c-0.7,1.2-1.1,2.5-1.6,3.8c-0.1,0.3,0.3,0.6,0.6,0.3c0.7-0.7,1.7-1.2,2.5-1.8c0.8-0.6,1.3-1.3,1.6-2.3
			c-0.2-0.1-0.4-0.1-0.7-0.2c-0.2,1.2,0.2,2.3,0.4,3.5c0.1,0.4,0.5,0.3,0.7,0c0.4-1,0.8-1.7,0.7-2.8c-0.2,0.1-0.4,0.2-0.6,0.3
			c0.5,0.7,1.3,1.2,1.8,2c0.1,0.2,0.3,0.2,0.5,0.1c0.3-0.2,0.7-0.3,0.9-0.6c0.1-0.2-0.1-0.4-0.2-0.4c0.1,0-0.3-0.4-0.3-0.5
			c-0.2-0.3-0.5-0.5-0.7-0.7c-0.5-0.5-1-0.9-1.4-1.5c-0.1,0.2-0.3,0.3-0.4,0.5c0.9,0.2,2,0,2.9,0.2c0.3,0.1,0.6-0.3,0.3-0.6
			c-0.3-0.3-0.6-0.6-0.8-1c0,0.1,0,0.3-0.1,0.4c0.7-0.7,1.5-1.5,2.4-1.9c0.3-0.2,0.1-0.8-0.3-0.6c-1,0.4-2,0.2-3,0.2
			c0.1,0.1,0.2,0.2,0.3,0.3c0.2-1.8-0.2-3.5-0.2-5.3c0-0.3-0.5-0.5-0.6-0.2c-0.6,1.3-1.2,2.6-2,3.8C35.2,97.4,35.8,97.7,36,97.4
			L36,97.4z"/>
	</g>
</g>
<g>
	<g>
		<path class="st11" d="M38.7,94.6c5.7,2.8,9.1,8.7,14.2,12.4c0.3,0.3,0.6-0.3,0.4-0.5c-1.1-1.4-2.4-2.1-4.2-1.7
			c-1.9,0.4-3.6,1.7-5.6,1.8c0,0.2,0,0.5,0,0.7c2.5-0.1,4.3,2,6.8,0.8c-0.1-0.2-0.3-0.4-0.4-0.5c-2.7,2.2-2.9,6.6-6.1,8.1
			c-0.4,0.2-0.1,0.8,0.3,0.6c3-1.1,5.9-2,7.7-4.8c-0.2-0.1-0.4-0.2-0.6-0.3c-0.7,2.1-0.8,4.1,0.1,6.1c0.9,2.1,2.3,4,3,6.3
			c0.1,0.3,0.6,0.4,0.7,0c0.6-3.7,4.8-7.7,3.1-11.6c-0.1-0.3-0.7-0.2-0.6,0.2c0.4,4.6,5.2,5.7,7.8,8.7c0.2,0.2,0.6,0,0.6-0.2
			c0-3.6-1.3-8.5-4.6-10.5c-0.1,0.2-0.2,0.4-0.3,0.6c2.5,0.3,5.1-1.5,7.4-0.5c0.4,0.2,0.7-0.4,0.3-0.6c-2.6-1.6-5.1-4.3-8.4-4.5
			c0.1,0.2,0.1,0.4,0.2,0.6c1.9-1.3,5.5-1.4,6.1-4c0.1-0.3-0.3-0.6-0.5-0.4c-1.5,1.1-3.4,0.4-5.1,0.3c-1.7-0.1-3.2,0.2-4.5,1.3
			c0.2,0.1,0.4,0.3,0.5,0.4c1.3-1.8,2.2-4,1.6-6.2c-0.1-0.3-0.5-0.4-0.6-0.1c-0.8,1.5-2.2,2.4-3.4,3.6c-1.1,1.1-1.7,2.5-1.8,4.1
			c0.2-0.1,0.4-0.1,0.6-0.2c-0.9-1.5-1.9-3-2.2-4.8c-0.1-0.4-0.6-0.3-0.7,0c-0.7,2.3-0.6,4.8,1.2,6.5c0.3,0.3,0.8-0.2,0.5-0.5
			c-1.7-1.6-1.6-3.8-1-5.9c-0.2,0-0.4,0-0.7,0c0.3,1.8,1.3,3.4,2.2,5c0.2,0.3,0.6,0.2,0.6-0.2c0.1-1.9,1-3.1,2.3-4.3
			c1-0.9,2-1.8,2.7-3.1c-0.2,0-0.4-0.1-0.6-0.1c0.6,2.1-0.3,4-1.5,5.7c-0.2,0.3,0.3,0.6,0.5,0.4c1.7-1.4,3.6-1.2,5.6-0.9
			c1.3,0.2,2.7,0.2,3.8-0.6c-0.2-0.1-0.3-0.3-0.5-0.4c-0.6,2.2-4.2,2.4-5.8,3.6c-0.3,0.2-0.2,0.6,0.2,0.6c3,0.1,5.6,2.9,8,4.4
			c0.1-0.2,0.2-0.4,0.3-0.6c-2.5-1.1-5,0.8-7.6,0.4c-0.4,0-0.6,0.4-0.3,0.6c3.1,1.8,4.2,6.5,4.3,9.9c0.2-0.1,0.4-0.2,0.6-0.2
			c-2.4-2.8-7.3-3.9-7.6-8.2c-0.2,0.1-0.4,0.1-0.6,0.2c0.9,1.9-0.3,4.2-1.2,6c-0.8,1.6-1.7,3.2-2,5c0.2,0,0.4,0,0.7,0
			c-0.6-2-1.6-3.6-2.6-5.4c-1.2-2.2-1.3-4.2-0.5-6.6c0.1-0.4-0.4-0.6-0.6-0.3c-1.7,2.6-4.5,3.4-7.3,4.5c0.1,0.2,0.2,0.4,0.3,0.6
			c3.3-1.6,3.5-6,6.3-8.2c0.3-0.3-0.1-0.7-0.4-0.5c-2.2,1.1-4.2-1-6.5-0.9c-0.4,0-0.4,0.7,0,0.7c1.5-0.1,2.9-0.8,4.3-1.3
			c2-0.8,3.6-0.8,5,1c0.1-0.2,0.3-0.4,0.4-0.5c-5-3.7-8.5-9.6-14.2-12.4C38.6,93.8,38.3,94.4,38.7,94.6L38.7,94.6z"/>
	</g>
</g>
<g>
	<g>
		<path class="st11" d="M81.4,133c2.1-0.6,4.1-1.7,5.9-2.9c1.8-1.3,3.5-2.7,4.9-4.5c0.3-0.3-0.2-0.8-0.5-0.5c-1.3,1.7-3,3.1-4.7,4.3
			c-1.8,1.2-3.7,2.3-5.7,2.9C80.8,132.4,81,133.1,81.4,133L81.4,133z"/>
	</g>
</g>
<g>
	<g>
		<path class="st11" d="M91.4,125c-1.2,0.2-2.5,0.3-3.5-0.4c0,0.2-0.1,0.4-0.1,0.6c1-0.2,1.7-0.8,2.7-1.1c0.3-0.1,0.3-0.6,0-0.7
			c-1.7-0.5-2.2-2.4-2.4-4c-0.2,0.1-0.3,0.3-0.5,0.4c1.6,0.7,3.8,2.4,5.4,0.8c1.3-1.3,1.5-3.5,3.1-4.5c-0.2-0.1-0.3-0.3-0.5-0.4
			c-0.5,1.2-0.9,2.4-0.7,3.7c0,0.2,0.3,0.3,0.5,0.2c1.7-0.8,3.1-2.3,4.1-3.9c-0.2-0.1-0.4-0.1-0.6-0.2c0.2,1.8-0.2,3.5-1.4,4.8
			c-0.3,0.3,0.1,0.7,0.4,0.5c2.1-1,4.6-1.1,6.6-2.4c-0.2-0.1-0.3-0.3-0.5-0.4c-1.1,3.1-3.8,4.2-6.8,4.6c-0.3,0-0.3,0.6,0,0.7
			c1.9,0.4,2.2,2.7,4,3.3c0-0.2,0-0.4,0-0.7c-2,0.8-4.3,2.2-6.5,1.5c-0.2-0.1-0.4,0.1-0.4,0.2c-0.5,1.6-0.8,3.2-0.2,4.8
			c0.2-0.1,0.3-0.3,0.5-0.4c-1.3-0.8-1.3-2.7-2.6-3.7c-0.1-0.1-0.4-0.2-0.5,0c-0.6,0.7-1.4,1.2-2.1,1.7c0.2,0.1,0.3,0.1,0.5,0.2
			c-0.7-2.3,1.5-3.7,2.8-5.2c0.3-0.3-0.2-0.8-0.5-0.5c-1.5,1.7-3.8,3.3-3,5.9c0.1,0.2,0.3,0.3,0.5,0.2c0.8-0.5,1.7-1,2.3-1.8
			c-0.2,0-0.3,0-0.5,0c1.3,1,1.3,2.9,2.7,3.8c0.2,0.2,0.6-0.1,0.5-0.4c-0.6-1.5-0.2-3,0.2-4.5c-0.1,0.1-0.3,0.2-0.4,0.2
			c2.3,0.7,4.7-0.7,6.8-1.5c0.3-0.1,0.3-0.5,0-0.7c-1-0.4-1.4-1.2-2-2c-0.5-0.7-1.1-1.1-2-1.3c0,0.2,0,0.4,0,0.7
			c3.3-0.5,6.2-1.8,7.3-5.1c0.1-0.3-0.3-0.5-0.5-0.4c-2,1.3-4.5,1.4-6.6,2.4c0.1,0.2,0.3,0.4,0.4,0.5c1.4-1.5,1.8-3.4,1.7-5.3
			c0-0.3-0.5-0.5-0.6-0.2c-0.9,1.5-2.2,2.9-3.9,3.6c0.2,0.1,0.3,0.1,0.5,0.2c-0.2-1.2,0.2-2.3,0.7-3.4c0.1-0.3-0.3-0.5-0.5-0.4
			c-1.3,0.8-1.9,2.4-2.6,3.7c-0.5,0.9-1,1.5-2.2,1.4c-1.1-0.1-2-0.9-3-1.3c-0.3-0.1-0.5,0.1-0.5,0.4c0.2,1.8,0.9,3.9,2.9,4.4
			c0-0.2,0-0.4,0-0.7c-0.9,0.3-1.7,0.9-2.7,1.1c-0.3,0.1-0.3,0.5-0.1,0.6c1.2,0.8,2.7,0.7,4,0.5C92,125.6,91.8,124.9,91.4,125
			L91.4,125z"/>
	</g>
</g>
<g>
	<g>
		<path class="st11" d="M53,107.2c1.8,1.1,3.3,2.6,4.9,3.9c1.9,1.7,3.9,3.5,5.4,5.6c0.3,0.5,1.1,1.4,0.9,2c-0.2,0.4,0.5,0.6,0.7,0.2
			c0.3-0.6-0.2-1.4-0.5-2c-0.6-1-1.4-1.9-2.2-2.8c-1.9-2.1-4-4-6.2-5.8c-0.8-0.7-1.6-1.3-2.5-1.9C53,106.4,52.7,107,53,107.2
			L53,107.2z"/>
	</g>
</g>
<g>
	<g>
		<path class="st11" d="M53.6,107.1c1.5,2,0.8,4.4,0.2,6.5c-0.5,1.9-1,4.1,0.2,5.8c0.3,0.4,0.9,0,0.6-0.3c-1.3-1.8-0.4-4.2,0.1-6.2
			c0.5-2.1,0.8-4.3-0.5-6.2C53.9,106.4,53.3,106.8,53.6,107.1L53.6,107.1z"/>
	</g>
</g>
<g>
	<g>
		<path class="st11" d="M52,106.7c0,0,0.1,0.1,0.1,0.1c0,0,0,0.1,0,0c0,0.1,0,0.1,0,0.2c0,0.1,0,0.3-0.1,0.4c-0.1,0.4-0.4,0.7-0.7,1
			c-0.6,0.7-1.3,1.3-2,2c-0.3,0.3,0.2,0.8,0.5,0.5c0.7-0.7,1.5-1.4,2.2-2.2c0.5-0.6,1.2-1.6,0.6-2.4c-0.1-0.1-0.3-0.2-0.5-0.1
			C52,106.3,51.9,106.5,52,106.7L52,106.7z"/>
	</g>
</g>
<g>
	<g>
		<path class="st11" d="M53.2,106.9c1.9,0.2,2.5-2.2,2.9-3.6c0.1-0.4,0.2-0.9,0.3-1.3c0.1-0.4-0.5-0.6-0.7-0.2
			c-0.3,1-0.4,1.9-0.8,2.9c-0.3,0.8-0.8,1.6-1.7,1.5C52.8,106.1,52.8,106.8,53.2,106.9L53.2,106.9z"/>
	</g>
</g>
<g>
	<g>
		<path class="st11" d="M54.5,107.3c3.4,0.7,6.8,1.8,10.3,1.3c0.4-0.1,0.4-0.7,0-0.7c-3.4,0.4-6.8-0.6-10.1-1.3
			C54.2,106.5,54,107.2,54.5,107.3L54.5,107.3z"/>
	</g>
</g>
<g>
	<g>
		<path class="st11" d="M54.9,107.1c2.8-0.7,5.1-2.7,8-3.1c0.4-0.1,0.3-0.7-0.2-0.7c-2.9,0.4-5.2,2.4-8,3.1
			C54.2,106.5,54.4,107.2,54.9,107.1L54.9,107.1z"/>
	</g>
</g>
<g>
	<g>
		<path class="st11" d="M37.2,101.5c-0.2-1.1-0.8-2-1.5-2.8c-0.7-0.7-1.4-1.4-2-2.2c-0.3-0.4-0.9,0-0.6,0.3c1.2,1.6,3.1,2.7,3.5,4.8
			C36.6,102.2,37.3,102,37.2,101.5L37.2,101.5z"/>
	</g>
</g>
<g>
	<g>
		<path class="st11" d="M35.6,100.2c-0.3-1-1.5-1.1-2.4-0.9c-0.2,0-0.3,0.3-0.2,0.4c0.1,0.2,0.2,0.3,0.4,0.2c0.1,0,0.1,0,0.2,0
			c0,0,0.1,0,0.1,0c0,0,0.1,0,0,0c0.1,0,0.2,0,0.3,0c0.1,0,0.2,0,0.3,0c-0.1,0,0,0,0,0c0,0,0,0,0.1,0c0,0,0.1,0,0.1,0
			c0,0,0.1,0,0.1,0c0,0,0,0,0,0c0,0,0,0,0.1,0c0,0,0.1,0,0.1,0.1c0,0,0,0,0.1,0c0,0,0,0,0,0c0,0,0.1,0.1,0.1,0.1c0,0,0,0,0,0
			c0,0,0-0.1,0,0c0,0,0,0.1,0.1,0.1c0,0,0,0,0,0.1c0,0,0,0,0,0c0,0,0,0,0,0c0.1,0.2,0.2,0.3,0.4,0.2
			C35.6,100.6,35.7,100.4,35.6,100.2L35.6,100.2z"/>
	</g>
</g>
<g>
	<g>
		<path class="st11" d="M36.7,99.4c0-0.1,0-0.1,0-0.2C36.7,99.3,36.7,99.3,36.7,99.4c0-0.2,0.1-0.4,0.1-0.5c0.1-0.2,0.1-0.4,0.1-0.6
			c0-0.2-0.2-0.4-0.3-0.3c-0.2,0-0.3,0.2-0.3,0.3c0,0.1,0,0.1,0,0.2c0,0,0-0.1,0-0.1c0,0.2-0.1,0.3-0.1,0.5
			c-0.1,0.2-0.1,0.4-0.1,0.6c0,0.2,0.2,0.4,0.3,0.3C36.6,99.8,36.7,99.6,36.7,99.4L36.7,99.4z"/>
	</g>
</g>
<g>
	<g>
		<path class="st11" d="M92.6,125.6c2.2-2.4,4.9-4.1,8.2-4.3c0.4,0,0.4-0.7,0-0.7c-3.5,0.2-6.4,2-8.7,4.5
			C91.8,125.4,92.3,125.9,92.6,125.6L92.6,125.6z"/>
	</g>
</g>
<g>
	<g>
		<path class="st11" d="M92.4,125.6c1.4-1.7,2.1-3.8,2.5-5.9c0.1-0.4-0.6-0.6-0.7-0.2c-0.4,2-1,4-2.3,5.6
			C91.6,125.4,92.1,125.9,92.4,125.6L92.4,125.6z"/>
	</g>
</g>
<g>
	<g>
		<path class="st11" d="M92.9,125c0.1-0.6,0.1-1.2,0-1.8c-0.2-0.7-0.5-1.3-0.9-1.8c-0.1-0.1-0.4-0.1-0.5,0c-0.1,0.1-0.1,0.3,0,0.5
			c0.7,0.9,1,1.9,0.8,3c0,0.2,0.1,0.4,0.2,0.4C92.7,125.3,92.9,125.2,92.9,125L92.9,125z"/>
	</g>
</g>
<g>
	<g>
		<path class="st11" d="M94,125c1.3,0.9,3,1.6,4.6,1.4c0.2,0,0.3-0.1,0.3-0.3c0-0.2-0.2-0.4-0.3-0.3c-1.5,0.2-3-0.4-4.3-1.3
			C94,124.1,93.6,124.7,94,125L94,125z"/>
	</g>
</g>
<g>
	<g>
		<path class="st11" d="M92.3,125.6c0.2,0.7,0.4,1.3,0.7,2c0.1,0.2,0.2,0.3,0.4,0.2c0.2-0.1,0.3-0.2,0.2-0.4c-0.2-0.7-0.4-1.3-0.7-2
			c-0.1-0.2-0.2-0.3-0.4-0.2C92.3,125.3,92.2,125.4,92.3,125.6L92.3,125.6z"/>
	</g>
</g>
<g>
	<g>
		<path class="st11" d="M10.7,48.8c0.1,14.3,5.5,27.3,12.8,39.4c0.1,0.2,0.4,0,0.3-0.2c-7.2-12-12.7-25-12.7-39.2
			C11,48.6,10.7,48.6,10.7,48.8L10.7,48.8z"/>
	</g>
</g>
<g>
	<g>
		<path class="st11" d="M16.5,66.9c0.9,6.4,4.6,12.1,7.5,17.8c0.1,0.2,0.4,0,0.3-0.2c-2.9-5.7-6.5-11.3-7.5-17.7
			C16.8,66.5,16.5,66.6,16.5,66.9L16.5,66.9z"/>
	</g>
</g>
<g>
	<g>
		<path class="st11" d="M37.3,106.8c3.8,7.2,9.6,13.5,16.1,18.3c0.2,0.1,0.4-0.2,0.2-0.3c-6.5-4.8-12.2-11-16-18.2
			C37.5,106.4,37.2,106.6,37.3,106.8L37.3,106.8z"/>
	</g>
</g>
<g>
	<g>
		<path class="st11" d="M40.1,108.5c1.8,1.8,3.2,3.8,4.7,5.8c0.1,0.2,0.4,0,0.3-0.2c-1.5-2-3-4.1-4.7-5.8
			C40.2,108.1,39.9,108.3,40.1,108.5L40.1,108.5z"/>
	</g>
</g>
<g>
	<g>
		<path class="st11" d="M74.5,133.1c6.3,3.7,13.7,5.5,20.9,3.5c7.3-2,13.1-7.3,17.5-13.2c0.1-0.2-0.2-0.4-0.3-0.2
			c-4.4,5.9-10.1,11.1-17.3,13.1c-7.1,2-14.4,0.2-20.6-3.4C74.4,132.7,74.3,133,74.5,133.1L74.5,133.1z"/>
	</g>
</g>
<g>
	<g>
		<path class="st11" d="M99.8,130.9c2.3-0.7,4.4-2.2,6.3-3.7c1.9-1.6,3.7-3.4,4.9-5.5c0.1-0.2-0.2-0.4-0.3-0.2
			c-1.2,2-2.9,3.8-4.7,5.3c-1.8,1.6-3.9,3.1-6.3,3.7C99.5,130.7,99.6,131,99.8,130.9L99.8,130.9z"/>
	</g>
</g>
<g>
	<g>
		<path class="st11" d="M104.5,125.9c1-0.6,1.8-1.5,2.3-2.6c0.1-0.2-0.2-0.4-0.3-0.2c-0.5,1-1.2,1.8-2.2,2.4
			C104.2,125.8,104.4,126.1,104.5,125.9L104.5,125.9z"/>
	</g>
</g>
<g>
	<g>
		<path class="st11" d="M21.8,12.1c-1.2,1.5-1,3.6-0.4,5.3c0.8,2.6,2.2,5,3.7,7.2c2.7,4.1,5.7,8.1,8.8,11.9c1,1.2,2.1,2.5,3,3.8
			c0.6,0.8,1.4,1.7,1.7,2.7c0.1,0.2,0.4,0.1,0.3-0.1c-0.5-1.6-1.9-3.1-2.9-4.4c-1.8-2.2-3.7-4.4-5.5-6.7c-1.3-1.6-2.4-3.4-3.6-5.1
			c-1.5-2.1-2.9-4.2-4-6.4c-1.1-2.2-2.8-5.7-0.9-8C22.2,12.2,22,12,21.8,12.1L21.8,12.1z"/>
	</g>
</g>
<g>
	<g>
		<path class="st11" d="M102.2,36.8c1.8-0.2,3.4-1.6,4.7-2.7c2.5-2,4.8-4.3,7-6.7c4.3-4.7,8.8-10.1,11-16.1c0.6-1.8,1.3-4.3-0.2-5.8
			c-0.2-0.2-0.4,0.1-0.2,0.2c1.4,1.4,0.8,3.8,0.2,5.4c-0.9,2.6-2.4,5.1-4,7.4c-3.6,5.3-7.9,10.2-12.8,14.4c-1.5,1.3-3.6,3.3-5.7,3.5
			C102,36.5,102,36.8,102.2,36.8L102.2,36.8z"/>
	</g>
</g>
<g>
	<g>
		<path class="st11" d="M32.1,39.2c-5.9,2.3-4,11.3-2.8,15.9c2.1,8.2,6,16.3,11.1,23c1.8,2.4,4.2,5.3,7.2,6.3
			c0.2,0.1,0.3-0.3,0.1-0.3c-2.6-0.8-4.6-3.2-6.3-5.3c-2.4-3-4.4-6.3-6.2-9.7c-1.9-3.7-3.6-7.5-4.8-11.5c-1.1-3.4-2-7.1-1.9-10.7
			c0-2.9,0.8-6.1,3.7-7.3C32.4,39.5,32.4,39.2,32.1,39.2L32.1,39.2z"/>
	</g>
</g>
<g>
	<g>
		<path class="st11" d="M109.7,33.5c12.4-1.3,11.3,15.7,10.5,23.8c-0.3,2.6-0.6,5.2-1,7.9c0,0.2,0.3,0.3,0.3,0.1
			c0.8-5.3,1.5-10.5,1.4-15.9c0-4.7-0.4-10.7-4.1-14.2c-2-1.8-4.6-2.3-7.2-2C109.5,33.2,109.5,33.5,109.7,33.5L109.7,33.5z"/>
	</g>
</g>
<g>
	<g>
		<path class="st11" d="M121.1,21.6c2-0.6,3.8-1.6,5.9-1.9c1.1-0.2,2.2-0.1,3.2,0.4c1.2,0.7,2.1,1.9,2.7,3.1c0.1,0.2,0.4,0,0.3-0.2
			c-0.6-1.2-1.4-2.5-2.7-3.1c-0.9-0.5-2-0.7-3-0.6c-2.3,0.2-4.3,1.3-6.4,2C120.8,21.3,120.9,21.6,121.1,21.6L121.1,21.6z"/>
	</g>
</g>
<g>
	<g>
		<path class="st11" d="M22.6,24c-2.4-1.8-5.3-1.2-7.7,0.4c-2.2,1.5-4.2,3.7-5,6.2c-0.3,0.8-0.4,1.9,0.3,2.5
			c0.2,0.2,0.4-0.1,0.2-0.2c-0.6-0.5-0.4-1.5-0.2-2.1c0.3-1.1,0.9-2.1,1.6-3c1.5-2,3.8-4,6.4-4.5c1.5-0.3,3,0.1,4.2,1
			C22.6,24.5,22.8,24.2,22.6,24L22.6,24z"/>
	</g>
</g>
<g>
	<g>
		<path class="st11" d="M21,11.6c5.5,2.6,10.3,6.9,14.4,11.3c4.1,4.3,8.3,9.4,10.1,15.2c0.1,0.2,0.4,0.1,0.3-0.1
			c-1.8-5.7-5.9-10.8-10-15.1c-4.2-4.5-9.1-8.9-14.8-11.6C21,11.2,20.8,11.5,21,11.6L21,11.6z"/>
	</g>
</g>
<g>
	<g>
		<path class="st11" d="M125.2,6c-7.4,2.5-13.6,8.5-18.9,14c-2.4,2.5-4.8,5.1-7,7.9c-2,2.6-4.1,5.6-4.4,9c0,0.2,0.3,0.2,0.3,0
			c0.3-3.6,2.7-6.9,5-9.6c2.1-2.5,4.3-4.9,6.6-7.3c5.2-5.4,11.3-11.2,18.5-13.7C125.5,6.3,125.4,5.9,125.2,6L125.2,6z"/>
	</g>
</g>
</svg>
