<?xml version="1.0" encoding="utf-8"?>
<!-- Generator: Adobe Illustrator 24.0.1, SVG Export Plug-In . SVG Version: 6.00 Build 0)  -->
<svg version="1.1" id="Layer_1" xmlns="http://www.w3.org/2000/svg" xmlns:xlink="http://www.w3.org/1999/xlink" x="0px" y="0px"
	 viewBox="0 0 141.7 141.7" style="enable-background:new 0 0 141.7 141.7;" xml:space="preserve">
<style type="text/css">
	.st0{fill:#75CEEB;}
	.st1{fill:#FFFFFF;}
	.st2{fill:#C9B09D;}
	.st3{fill:#F2654A;}
	.st4{fill:#C1AD48;}
	.st5{fill:#F5831F;}
	.st6{fill:#F5ED50;}
	.st7{fill:#B0AFAB;}
	.st8{fill:#070707;}
	.st9{fill:none;stroke:#070707;stroke-width:0.4939;stroke-miterlimit:10;}
	.st10{fill:#231F20;}
</style>
<path class="st0" d="M37.6,41.3c0,0-11.9-2.1-7.7-13c0,0,3.8-7.9,13.5-6.2c0,0,5.8,1.4,6.4,3.9c0,0,7.8-5.1,14.6-5.9
	C64.9,20.1,81,20,81,20l7.8,0.4c0,0,17.9,0.8,28.1,12.7c0,0,9.9-3.7,15.4,2.7c0,0,4.8,6.9-0.9,14c0,0-4.7,3.7-6.8,2.8l0.6,12.9
	c0,0-2.1,19.7-3.6,23.4l-3.3,12.5c0,0-4.3,12.8-8,14.8c0,0-1.7,6.6-13.2,8.5c0,0-11.6-0.1-11.4,0c0.2,0.1-11.1-1.2-11.1-1.2
	s-21-4.4-25-14.6c0,0-2.1,0.4-2.7-14.8c0,0-0.5-7.2-0.5-7c0,0.2,1-0.8,1-0.8h1.2c0,0-0.4-1.6-0.6-1.7c-0.2-0.1,0.2-1,0.2-1l4.6-2.4
	c0,0,1.8,0,2.1,0.5l0.2-1.9l0.2-2.5l2.2-2c0,0-2.5-0.6,0.5-4.6l-4.2-0.1c0,0-2.8-1.5-2.2-2.5c0.6-1,0.1-0.3,0.1-0.3
	s-4.5,6.6-4.9,2.6c0-0.3-2.5-1.4,2.7-11.1c0,0-6.4,2.6-4.6-2.5c0,0-2.5-0.5-2-3.5c0-0.1,0-0.3,0.1-0.4c0,0-2,2.8-3.9,1.1
	c0,0,0,4.3-3.9,3.2l0.3-0.8c0,0-1.1-5.3,1.2-12.9L37.6,41.3z"/>
<path class="st1" d="M51.8,47.7c0,0-7.6-10.4,3.3-19.6c0,0,11.7-8.1,20.1,3.4c0,0,5.1,5.6,0.6,15.3c0,0-3.6,8.5-15.3,6.8
	C60.5,53.7,54.2,51.9,51.8,47.7z"/>
<path class="st1" d="M85.4,46.6c0,0-2.9-8.9,6.5-15.3c0,0,10-4.9,17.6,2c0,0,8.3,9.8,1,19.2c0,0-6.8,8.5-17.6,3.8
	C92.8,56.3,86.3,52.5,85.4,46.6z"/>
<path class="st2" d="M73.9,54.5c0,0-0.5-0.9-4.9,2.1c0,0-4,3.1-0.9,5.9c0,0,1.3,2.2,7,1.4c0,0,6.5-1.2,8.8,1.5c0,0,6.3,2.2,6.4-2.8
	c0,0,1.8-1.7-5.3-6.8L73.9,54.5z"/>
<path class="st1" d="M72.3,65.1c0,0-2.3,6.8,1.1,8c0,0,2.4,1.1,3.9-2h0.3c0,0,0.3,3.4,3.3,3c0,0,3.6-0.3,3.3-5.5l-0.3-3.1l-3-1.5
	c0,0-3-0.7-4.9-0.1l-3.3,0.3L72.3,65.1z"/>
<path class="st3" d="M56.8,72.3l0.8-2c-3.5,1.6-6.2-1.8-6.2-1.8c-2.2,3.5-3.6,2.8-3.6,2.8c-3.2-1.8-1-6.7-1-6.7l2.6-5.3
	c-6.8,1.8-4.6-2.5-4.6-2.5c-2.4-0.8-1.8-3.5-1.8-3.5c-2.6,2.4-3.8,1-3.9,0.6c0,0,0,0,0,0c0,0,0,0.1,0,0.1c0.1,3.9-3.6,3.5-3.6,3.5
	c2.1,4.9-2.6,5.9-2.6,5.9l0.5,1.4c1.1,4.4-1.5,3-1.5,3l-1.1-1.9l-0.2-2.5c-0.6,0.5-2-0.9-2-0.9l-1.4-2.5l-1-0.6c0,0,0,0-0.1,0H26
	c0,0-0.1,0-0.1,0c-0.5,3.3-4.7-0.3-4.7-0.3c-1.4,1.5-4.1-0.8-4.4-0.7c0,0,0,0,0,0c0,0.1,0.1,0.2,0.1,0.3c1.1,4-0.5,5.7-0.5,5.7
	c5.5,6.4,1.3,6.5,1.3,6.5l-0.2,0c-0.2,0,4.5,3.1,4.5,3.1l2.8,3.6c1.2,3.2-2.1,0.6-2.1,0.6l-2-2.4L19,74.5c0.1,1.7-4.4-0.2-4.4-0.2
	l-2.2-0.8c0,0.1,0,0.2,0,0.3c-0.4,2.8-3.8,2.4-3.8,2.4l-1.3,1.6V80l4.2,2.4c2.2,1.3,0.4,3.3,0.4,3.3c4.8,1.2,6.4,4.1,6.4,4.1
	c0.5,1.9-5.1,2.5-5.1,2.5c1.5,1.2-1.2,4.2-1.2,4.2h1.7l2.6,1.3l2.3,0.1l3.2,0.1c2.1,0.1,1.6,1.8,1.6,1.8l3.6-1.5l1.1-1.5
	c0.4-4.8,3.2-1.9,3.2-1.9l1.8,3.8c2.9-7.6,5.2-4.7,5.2-4.7c-1.9-6,2.3-4.8,2.3-4.8l1.4,0.5l0.4-0.6l1.5-0.5l1.5-0.7
	c0,0,0.9-0.5,1.1-0.9c0.1-0.4,1-0.8,1-0.8l1.3-0.2c-1.6-2.3-0.5-2.5-0.5-2.5l3.6-1.8c1.9-1.7,3.1,0,3.1,0h0.6c0-0.1-0.1-0.3-0.1-0.5
	c-0.6-2.9,0.3-4.6,0.3-4.6l1.8-1.4l-1.1-1.3L56.8,72.3z"/>
<path class="st2" d="M41.4,95.4c0,0,2.9-0.1,5.4-3l-0.6-5.1l-1.8,0.9l-1.3,0.4l-0.8,1.1l-0.8,0.2l-1.3,1.2c0,0-1.2,1.3-1.2,1.5
	c0,0.2-0.4,0.8-0.3,1c0.1,0.2,0.8,1.4,0.8,1.4L41.4,95.4z"/>
<polygon class="st4" points="38.7,89.7 40.9,93 42.1,94.1 42.9,93.3 "/>
<path class="st5" d="M47.8,102.6l-2.6-1.2c0,0-1.1-0.2-1.4-0.2c-0.3,0-1.9,0-1.9,0l-1-0.5c0,0-0.3,1.1-1.5,1.8c0,0,1.9,0.8,0.3,2
	c0,0,4.7,1.3,3.3,2.6l-0.5,0.3c0,0,4.3,0.6,3.5,1.2l-0.5,0.5l-1.9,0.3l-2.5-1.2l-0.5,0.4l-4.9-0.2v0.5l-0.1,0.5l-3.9,0.7v0.6
	l-1.7,0.7l2.6,1.4l0.8,0.8l4.4,0.1c0,0,1.6,0.4,1.2,1.4c-0.4,1,0.2,0,0.2,0l7.8-0.9c0,0,3.8,0.9,3,1.1l-2.7,0.4h-4.5l-0.8,0.6
	c0,0-4.9,1.6-4.5,1.4c0.4-0.1,1.7,0.8,0.1,2.2l0.3,0.9l2.2,0.9c0,0,5.4-2,6.8,0c1.4,2,0,0.2,0,0.2s2.9-2.3,7.2-1.1v1.4
	c0,0-1.4,0.6-1.1,1c0.3,0.3,2,1.4,2,1.4l0.5,0.8l4.7-6.7C60,118.5,49.4,114.6,47.8,102.6z"/>
<path class="st3" d="M65.8,120.9l-1,1.6l-1.3-0.7l-1.3,0.4l-2.1,1.2c0,0-1.5,0.5-1.7,0.5s-2.4,0.3-2.4,0.5c0,0.2,4-6,4-6L65.8,120.9
	z"/>
<path class="st3" d="M51.3,120.8l-0.9,0.9l-3.1,0.6l3.5,1.4c0,0-0.3,0.8,0.1,0.8c0.4,0,3.6-0.4,3.6-0.4l-1.5-1l0.9-1.1v-1.4
	l-0.4-0.3L51.3,120.8z"/>
<path class="st6" d="M91.8,130.4V129l1.2-0.4l-2.3-1.2l-0.6-0.9l0.1-1.4L79,124.1l-8.2-1.8l-5-1.5l-1,1.4l-1.3-0.4l-2.1,0.8
	l-2.5,1.2c0,0-2.4,0.7-3.1,0.9c0,0.1-0.2,0.6-0.2,0.6l-1.9,1.1c0,0-6.9,1.4-6.5,1.4c0.4,0,5.3,0.5,2.6,1.7v1.2l2.1,1
	c0,0,3.3-1.5,5.3,0.1c0,0,0.9-2.3,5.6-1.4c0,0,2.2-2.3,3.2-1.3c0,0,0.9,0.6-0.9,2h0.4l0,1.9c0,0,3.6-0.5,3.8,1.1
	c0,0,1.9,0.3,2.8,1.2l0.2,0.5c0,0,2.8-2.1,4.5-1.9c0.1,0,0.3,0,0.3,0c0,0,0-0.1,0-0.1c-0.2-0.1-0.5-0.1-0.5-0.1s-1.7-2.6,2.8-2
	c0,0-3.4-3.5,0-4.1c3.4-0.6,0.3,0.2,0.3,0.2s0,1.3,0.3,1.2c0.3,0,1,1.3,1,1.3s2.9,1.3,3,1.3c0.1,0.1,3.7,0.5,3.7,0.5l2.7-0.5
	l1.2,0.5l1.6-0.7L91.8,130.4z"/>
<path class="st7" d="M114.3,111.4l-4.1,4.5l-0.5,1.5c0,0-2.4,7.5-19.3,7.6c0,0-1.4,2.2,1.7,3.2c0,0,22.8-1.1,26.9-3.6
	c0,0,11.1-3.1,7.7-7.4C126.7,117.2,125.5,113.5,114.3,111.4z"/>
<path class="st2" d="M67.8,102.6c0,0-1.6,1.5-0.3,6.7c0,0,0.6,3.1,2.9,2.6c0,0,2.1-2.3,0.7-6.8C71,105.1,69.5,102.4,67.8,102.6z"/>
<path class="st2" d="M89.4,112.3c0.2-0.1,3.9-7.3,7.5-7.6c0,0,2.4,3.1-2,6.7c0,0-1.9,2-4.7,2.5C90.2,113.9,88.2,113.4,89.4,112.3z"
	/>
<path class="st2" d="M120.6,92.6c0.4,0.1,5,8.2,8.1,5.6c0,0,0.8-0.5-1.4-2.8l-5.7-6.7L120.6,92.6z"/>
<g>
	<g>
		<g>
			<path class="st8" d="M45.8,87.6c1.2,6,0.4,12.2,2.1,18.1c1.6,5.6,5.6,9.7,10.6,12.5c5.3,3,11.4,4.6,17.4,5.7
				c6.4,1.2,13.2,1.9,19.7,1.4c6.2-0.5,12.4-2.8,15-8.8c0.2-0.5-0.5-0.9-0.7-0.4c-2.5,5.6-8.2,7.9-13.9,8.4
				c-6.1,0.6-12.5,0-18.5-1.1c-10.7-1.8-24.9-5.5-28.6-17.2c-1.9-6.1-1.1-12.6-2.3-18.8C46.5,86.8,45.7,87.1,45.8,87.6L45.8,87.6z"
				/>
		</g>
	</g>
	<g>
		<g>
			<path class="st8" d="M122.7,42c-2.5-6.9-7.7-12.4-14-16.1c-7.3-4.3-15.7-5.7-24-6.2c-4.3-0.2-8.5-0.4-12.8-0.4
				c-4.1,0-8.3,0.2-12.3,1.4c-7.5,2.1-13.7,7.4-18.2,13.6c-2.5,3.5-4.8,7.6-5.9,11.8c-1.2,4.7-0.9,9.7,0.3,14.4
				c0.1,0.5,0.9,0.3,0.8-0.2c-1.1-4.2-1.5-8.6-0.6-12.8c0.8-3.8,2.6-7.3,4.7-10.6c4-6.4,9.9-12.1,17.1-14.7c7.6-2.7,15.8-2,23.7-1.7
				c8.2,0.3,16.6,1,24,4.6c7.3,3.5,13.7,9.5,16.5,17.2C122.1,42.7,122.9,42.5,122.7,42L122.7,42z"/>
		</g>
	</g>
	<g>
		<g>
			<path class="st8" d="M69.8,19.8c0.5,0,0.5-0.8,0-0.8C69.2,19,69.2,19.8,69.8,19.8L69.8,19.8z"/>
		</g>
	</g>
	<g>
		<g>
			<path class="st8" d="M37.1,40.9c-5.3-1.2-9-6.4-7.1-11.7c1.6-4.5,6.7-7.2,11.4-6.9c2.7,0.2,6.1,0.8,7.5,3.3c0.3,0.5,1,0,0.7-0.4
				c-1.4-2.5-4.3-3.2-7-3.6c-2.6-0.4-5.3,0-7.7,1.2c-4.8,2.4-7.8,8-5.5,13.2c1.3,3,4.2,5,7.4,5.7C37.4,41.8,37.6,41,37.1,40.9
				L37.1,40.9z"/>
		</g>
	</g>
	<g>
		<g>
			<path class="st8" d="M116.7,33.6c4.1-1.4,9.6-1.8,13.4,0.7c4.1,2.6,4.6,9,2.6,13c-1.4,2.8-4.4,4.9-7.6,4.9c-0.5,0-0.5,0.8,0,0.8
				c6,0,9.8-5.7,9.6-11.3c-0.1-2.5-0.9-5.2-2.7-7c-1.7-1.8-4.2-2.6-6.6-2.8c-2.9-0.3-6,0-8.8,0.9C116,33,116.2,33.8,116.7,33.6
				L116.7,33.6z"/>
		</g>
	</g>
	<g>
		<g>
			<path class="st8" d="M73.6,54.6c0,0,0.4,0,0.4,0c0-0.1,0-0.3,0-0.4c-0.4,0.2-0.9,0.1-1.3,0.1c-0.7,0.1-1.5,0.7-2.2,1
				c-1.3,0.8-2.8,1.8-3.6,3.1c-1.9,3.3,2.4,5.7,5.1,5.8c2.1,0.1,4.2-0.5,6.3-0.5c2.1,0,3.8,0.9,5.6,1.7c1.3,0.6,2.8,1.2,4.2,0.6
				c1.4-0.6,2.3-2.2,2.3-3.6c0-3.5-4-6-6.7-7.5c-0.2-0.1-0.4,0.2-0.2,0.4c2.4,1.3,5.2,3,6.2,5.7c0.7,1.7,0.1,3.8-1.6,4.7
				c-1.5,0.8-3.2-0.1-4.6-0.7c-1.3-0.6-2.5-1.2-3.9-1.4c-1.6-0.3-3.2,0-4.7,0.2c-1.8,0.2-3.8,0.5-5.6-0.4c-1.5-0.7-3.1-2.2-2.5-4
				c0.6-1.6,2.3-2.7,3.7-3.5c0.7-0.4,1.5-0.9,2.2-1c0.4-0.1,0.8,0,1.1-0.1c0.1-0.1,0.2-0.3,0-0.4c-0.2-0.1-0.4,0-0.6,0
				C73.3,54.2,73.3,54.6,73.6,54.6L73.6,54.6z"/>
		</g>
	</g>
	<g>
		<g>
			<path class="st8" d="M83.7,65.5c0.3,1.3,0.4,2.8,0.2,4.1c-0.2,1.2-0.5,2.7-1.4,3.5c-0.9,0.8-2.5,1.1-3.5,0.4
				c-0.8-0.5-0.9-1.7-1.2-2.6c-0.1-0.2-0.5-0.1-0.4,0.1c0.3,0.8,0.4,1.7,0.9,2.4c0.6,0.8,1.7,1,2.6,0.8c1-0.1,2-0.7,2.5-1.5
				c0.6-1,0.9-2.2,1-3.3c0.2-1.4,0.1-2.8-0.2-4.1C84,65.1,83.6,65.2,83.7,65.5L83.7,65.5z"/>
		</g>
	</g>
	<path class="st9" d="M113.4,45.7c1.2-7.8-4.2-15.1-12-16.3c-7.8-1.2-15.1,4.2-16.3,12c-1.2,7.8,4.2,15.1,12,16.3
		C104.9,58.9,112.2,53.5,113.4,45.7z"/>
	<path class="st9" d="M77.6,41.8c1.2-7.8-4.2-15.1-12-16.3c-7.8-1.2-15.1,4.2-16.3,12c-1.2,7.8,4.2,15.1,12,16.3
		C69.1,55,76.4,49.6,77.6,41.8z"/>
	<path class="st8" d="M127.2,42.1c0.3-1.6-0.9-3.2-2.5-3.4c-1.7-0.3-3.2,0.9-3.4,2.5c-0.3,1.7,0.9,3.2,2.5,3.4
		C125.4,44.9,126.9,43.8,127.2,42.1z"/>
	<path class="st8" d="M42.9,32c0.3-1.7-0.9-3.2-2.5-3.4c-1.7-0.3-3.2,0.9-3.4,2.5c-0.3,1.7,0.9,3.2,2.5,3.4
		C41.1,34.8,42.6,33.6,42.9,32z"/>
	<path class="st8" d="M85.9,54.9c0.3-1.9-2.3-3.9-5.8-4.5c-3.5-0.5-6.6,0.6-6.9,2.5c-0.3,1.9,2.3,3.9,5.8,4.5
		C82.6,58,85.6,56.8,85.9,54.9z"/>
	<path class="st8" d="M99.9,39.8c-2.6-0.4-4.9,1.4-5.3,3.9c-0.4,2.5,1.4,4.9,3.9,5.3c2.6,0.4,4.9-1.4,5.3-3.9
		C104.2,42.6,102.4,40.2,99.9,39.8z M100.6,47.6c-0.7-0.1-1.2-0.8-1.1-1.5c0.1-0.7,0.8-1.2,1.5-1.1c0.7,0.1,1.2,0.8,1.1,1.5
		C102,47.3,101.3,47.8,100.6,47.6z"/>
	<path class="st8" d="M64.1,35.5c-2.5-0.4-4.9,1.4-5.3,3.9c-0.4,2.6,1.4,4.9,3.9,5.3c2.6,0.4,4.9-1.4,5.3-3.9
		C68.4,38.3,66.7,35.9,64.1,35.5z M64.8,43.3c-0.7-0.1-1.2-0.8-1.1-1.5c0.1-0.7,0.8-1.2,1.5-1.1c0.7,0.1,1.2,0.8,1.1,1.5
		C66.2,42.9,65.5,43.4,64.8,43.3z"/>
	<g>
		<g>
			<path class="st8" d="M78.5,63.7c0.1,0.9-0.1,1.8-0.3,2.6c-0.2,0.9-0.2,1.9-0.4,2.8c-0.3,1.4-0.9,3.3-2.3,3.9
				c-1.3,0.5-2.8-0.2-3.4-1.4c-0.5-1.1-0.5-2.5-0.3-3.7c0.2-1.3,0.5-2.6,1.1-3.8c0.1-0.2-0.2-0.4-0.4-0.2c-0.6,1.2-0.9,2.5-1.1,3.8
				c-0.2,1.3-0.3,2.8,0.3,4c0.5,1.2,1.9,2,3.2,1.9c1.6-0.2,2.5-1.7,2.9-3c0.4-1.2,0.6-2.5,0.7-3.8c0.1-1,0.5-2.1,0.4-3.1
				C78.9,63.4,78.5,63.4,78.5,63.7L78.5,63.7z"/>
		</g>
	</g>
	<g>
		<g>
			<path class="st8" d="M120.8,40.5c5,11.3,4.5,23.8,2.6,35.7c-0.8,4.8-1.8,9.6-2.8,14.4c-0.9,4.3-2,8.7-3.5,12.9
				c-1.6,4.5-3.7,9.2-7.5,12.3c-0.4,0.3,0.2,0.9,0.6,0.6c3.3-2.7,5.3-6.6,6.9-10.4c1.8-4.4,2.9-9,4-13.6c2.4-10.7,4.7-21.6,4.5-32.6
				c-0.1-6.8-1.3-13.5-4.1-19.7C121.3,39.6,120.6,40,120.8,40.5L120.8,40.5z"/>
		</g>
	</g>
	<g>
		<g>
			<path class="st8" d="M66,91.9c11.1-2.4,26.9-5.1,34.1,6.2c0.3,0.4,1,0,0.7-0.4c-7.5-11.7-23.6-9-35.1-6.5
				C65.2,91.2,65.5,92,66,91.9L66,91.9z"/>
		</g>
	</g>
	<g>
		<g>
			<path class="st8" d="M42,88.8c-0.8,0.6-1.5,1.3-2.2,2c-0.7,0.8-1.4,1.7-1.5,2.8c0,1.1,0.9,1.9,1.8,2.1c1.2,0.3,2.5-0.1,3.6-0.6
				c1.2-0.5,2.4-1.3,3.2-2.4c0.3-0.4-0.3-1-0.6-0.6c-0.6,0.8-1.5,1.4-2.3,1.9c-0.9,0.5-2,1-3.1,0.9c-0.8,0-1.7-0.5-1.7-1.4
				c0-0.9,0.7-1.7,1.2-2.3c0.7-0.7,1.4-1.4,2.2-2C43,89,42.4,88.5,42,88.8L42,88.8z"/>
		</g>
	</g>
	<g>
		<g>
			<path class="st8" d="M120.9,93.2c0.5,1.4,1.5,2.8,2.6,3.8c1,1,2.5,2.3,4.1,2.2c0.9-0.1,1.5-0.6,1.9-1.4c0.1-0.2,0.1-0.4-0.1-0.5
				c-2.4-3-5.4-5.5-7.5-8.7c-0.3-0.4-1,0-0.7,0.4c2.2,3.3,5.2,5.8,7.7,8.9c0-0.2,0-0.3-0.1-0.5c-0.4,0.6-0.9,1.1-1.7,0.9
				c-0.8-0.1-1.6-0.7-2.3-1.2c-0.8-0.6-1.4-1.4-2-2.1c-0.5-0.6-0.9-1.3-1.1-2C121.6,92.5,120.8,92.7,120.9,93.2L120.9,93.2z"/>
		</g>
	</g>
	<g>
		<g>
			<path class="st8" d="M68.9,111.4c-0.9-1.3-1.3-3-1.5-4.6c-0.1-0.8-0.2-1.6-0.1-2.4c0-0.3,0.1-0.6,0.2-0.9
				c0.1-0.2,0.2-0.4,0.3-0.5c-0.1,0.1,0.1,0,0.1-0.1c0.1,0,0,0,0.1,0c0.1,0,0.1,0,0.1,0c0.1,0,0.1,0,0.2,0c0.2,0,0.6,0.2,0.8,0.4
				c0.6,0.4,1.2,1,1.6,1.6c0.6,1.4,0.7,3.2,0.4,4.6c-0.1,0.4-0.2,0.8-0.3,1.1c-0.1,0.3-0.3,0.6-0.5,0.7c-0.2,0.2-0.4,0.2-0.7,0.1
				c-0.4-0.1-0.7-0.4-1.1-0.6c-0.4-0.4-1,0.2-0.6,0.6c0.6,0.5,1.4,1.1,2.3,0.8c0.7-0.2,1.1-0.9,1.4-1.6c0.6-1.7,0.5-3.8,0-5.4
				c-0.3-0.9-0.7-1.5-1.3-2.1c-0.6-0.5-1.4-1.2-2.2-1.1c-1.6,0.1-1.6,2.5-1.6,3.7c0.1,1.1,0.3,2.2,0.6,3.3c0.3,0.9,0.6,1.9,1.2,2.7
				C68.5,112.3,69.2,111.9,68.9,111.4L68.9,111.4z"/>
		</g>
	</g>
	<g>
		<g>
			<path class="st8" d="M89.6,112.7c0.2-0.8,0.7-1.5,1.1-2.1c0.6-0.9,1.2-1.8,2-2.6c0.7-0.8,1.4-1.5,2.2-2.1
				c0.5-0.4,1.2-0.9,1.8-0.8c0.1,0,0.3,0.1,0.4,0.3c0.2,0.3,0.2,0.7,0.2,1c0,0.9-0.1,1.7-0.6,2.5c-1.1,1.7-2.8,3.1-4.6,4.1
				c-0.6,0.3-1.6,0.8-2.3,0.6c-0.2-0.1-0.3-0.2-0.4-0.4c-0.1-0.4,0-0.9,0.1-1.4c0.1-0.5-0.7-0.7-0.8-0.2c-0.2,0.8-0.4,1.9,0.3,2.6
				c0.6,0.5,1.6,0.4,2.3,0.1c1-0.3,2-0.9,2.9-1.6c1-0.7,1.9-1.5,2.6-2.5c0.6-0.8,1.1-1.6,1.2-2.6c0.1-0.9,0.2-2.2-0.5-2.8
				c-0.6-0.6-1.4-0.3-2.1,0c-0.9,0.5-1.7,1.2-2.4,1.9c-1,1-1.9,2.1-2.6,3.2c-0.6,0.9-1.2,1.8-1.5,2.8
				C88.7,113,89.5,113.3,89.6,112.7L89.6,112.7z"/>
		</g>
	</g>
</g>
<g>
	<g>
		<g>
			<path class="st8" d="M17.5,71.5c1.6,0.6,2.6,2.2,3.8,3.3c1.2,1,2.5,2.1,3.2,3.5c0,0.1,0.3,0.6,0.2,0.8c-0.3,0.4-1.2-0.2-1.4-0.3
				c-0.7-0.5-1.2-1.2-1.6-1.9c-0.7-1.1-1.3-2.2-2.5-3c-0.3-0.2-0.7,0.1-0.6,0.5c0.2,1.4-2.5,0.1-3.1-0.2c-1.1-0.4-2.2-1-3.3-1.1
				c-0.2,0-0.4,0.2-0.4,0.4c0.1,2-1.3,2.8-3.1,2.4c-0.3-0.1-0.5,0.1-0.5,0.4c-0.1,0.8-0.6,1.1-1.3,1.1c-0.3,0-0.5,0.4-0.4,0.6
				C7,78.5,7.3,79.2,6.8,80c-0.1,0.2,0,0.5,0.2,0.6c1.6,0.6,6.7,2.4,4.5,4.8c-0.2,0.2-0.1,0.6,0.2,0.7c1.8,0.5,4.4,1.1,5.6,2.7
				c1.9,2.4-3.3,2.7-4.5,3.2c-0.3,0.1-0.4,0.5-0.1,0.8c1.1,0.8-0.9,3.1-1.4,3.9c-0.2,0.3,0.1,0.7,0.5,0.6c1.9-0.6,3.3,1.1,5.1,1.2
				c0.6,0,1.2-0.1,1.8-0.1c1,0,2-0.1,3,0.1c0.3,0,0.9,0.1,1,0.4c0.3,0.4-0.2,0.8-0.5,1.1c-0.4,0.4,0.2,0.9,0.6,0.6
				c0.8-0.7,1.9-0.7,2.9-1.1c0.7-0.3,1.3-0.7,1.7-1.3c0.4-0.4,0.7-0.9,0.9-1.4c0.1-0.5,0-1.3,0.2-1.7c1.5-2.4,3.5,3.7,3.8,4.6
				c0.1,0.5,0.8,0.4,0.8-0.1c0-1.5,2.9-7.3,4.7-5.2c0.3,0.3,0.8,0,0.7-0.4c-0.2-1-0.5-2.2-0.3-3.2c0.3-1.9,2.7-1,3.9-0.6
				c0.2,0.1,0.4,0,0.5-0.2c0.7-1.4,1.8-1,3-1.6c1.1-0.6,1.4-2,2.9-1.7c0.3,0.1,0.7-0.3,0.5-0.6c-0.3-0.5-1.1-1.4-0.7-1.9
				c0.3-0.4,1.3-0.6,1.8-0.9c1-0.5,3.5-2.4,4.5-1.1c0.3,0.4,1,0,0.7-0.4c-1.4-2-4.1,0-5.6,0.8c-0.7,0.4-2,0.6-2.3,1.4
				c-0.4,0.8,0.6,1.9,0.9,2.5c0.2-0.2,0.3-0.4,0.5-0.6c-0.6-0.1-1.2-0.2-1.7,0.1c-0.6,0.3-0.9,1-1.5,1.4c-0.7,0.5-1.5,0.4-2.2,0.7
				c-0.7,0.3-1.1,0.8-1.4,1.4c0.2-0.1,0.3-0.1,0.5-0.2c-1.3-0.4-3.7-1.3-4.6,0.2c-0.8,1.2-0.2,3.3,0.1,4.6c0.2-0.1,0.5-0.3,0.7-0.4
				c-2.5-3-6.1,3.7-6.1,5.7c0.3,0,0.5-0.1,0.8-0.1c-0.4-1.7-1.5-5.9-4-5.6c-1.5,0.2-1.3,1.3-1.6,2.5c-0.3,1.3-1.5,2.3-2.7,2.6
				c-1,0.3-1.8,0.4-2.6,1.1c0.2,0.2,0.4,0.4,0.6,0.6c0.6-0.6,1.2-1.5,0.5-2.3c-0.7-0.7-2.1-0.7-3-0.7c-1.1,0-2.2,0.1-3.3,0.1
				c-2,0-3.4-1.9-5.5-1.1c0.2,0.2,0.3,0.4,0.5,0.6c0.8-1.4,3-3.6,1.1-5c0,0.3-0.1,0.5-0.1,0.8c1.7-0.7,6.3-0.7,5.4-3.7
				c-0.7-2.3-4.5-3.2-6.5-3.8c0.1,0.2,0.1,0.5,0.2,0.7c2.9-3.1-2.6-5.3-4.9-6.1c0.1,0.2,0.2,0.4,0.2,0.6c0.6-1,0.3-2.1-0.3-3
				c-0.1,0.2-0.2,0.4-0.4,0.6c1.3,0.1,2-0.7,2.1-1.9c-0.2,0.1-0.3,0.3-0.5,0.4c2.3,0.5,4.3-0.6,4.1-3.1c-0.1,0.1-0.3,0.3-0.4,0.4
				c1.4,0.2,7.8,4,7.2,0.3c-0.2,0.2-0.4,0.3-0.6,0.5c1.8,1.2,2.2,3.6,4,4.8c0.8,0.5,2.7,1.3,2.8-0.3c0-1.6-1.7-3.2-2.7-4.1
				c-1-0.9-2-1.7-2.9-2.7c-0.7-0.8-1.3-1.2-2.2-1.5C17.2,70.5,17,71.3,17.5,71.5L17.5,71.5z"/>
		</g>
	</g>
	<g>
		<g>
			<path class="st8" d="M55.3,82c0.4-0.9,0-1.9,0-2.8c-0.1-1.6,1-2.9,2.4-3.6c0.4-0.2,0.2-0.8-0.2-0.8c-1.9,0.2,0.2-3.6,0.7-4.4
				c0.2-0.3-0.1-0.7-0.5-0.6c-1.5,0.5-5.6,0.4-5.8-1.8c0-0.3-0.5-0.6-0.7-0.3c-0.7,0.9-1.4,2.6-2.5,3.1c-1.8,0.8-2.2-2.3-2.1-3.4
				c0.3-2.9,1.8-6,3.6-8.2c0.3-0.4-0.2-0.9-0.6-0.6c-0.9,0.7-2.2,1.2-3.4,1c-1.6-0.2-1.6-1.4-1-2.7c0.1-0.2,0-0.5-0.2-0.6
				c-1.7-0.5-2-2.3-1.5-3.8c0.2-0.5-0.6-0.7-0.8-0.2c-0.6,1.5-2,2.4-3.4,1.3c-0.3-0.2-0.6,0.1-0.6,0.4c-0.1,0.8-0.2,1.9-0.7,2.5
				c-0.7,0.7-1.8,0.5-2.7,0.3c-0.5-0.1-0.7,0.7-0.2,0.8c1.1,0.3,2.4,0.5,3.3-0.3c0.9-0.8,1-2.1,1.2-3.2c-0.2,0.1-0.4,0.2-0.6,0.4
				c1.9,1.4,3.8,0.1,4.6-1.8c-0.3-0.1-0.5-0.1-0.8-0.2c-0.6,1.9,0,4.2,2.1,4.8c-0.1-0.2-0.2-0.4-0.2-0.6c-0.7,1.4-1,3.1,0.8,3.8
				c1.6,0.6,3.6-0.1,4.9-1.1c-0.2-0.2-0.4-0.4-0.6-0.6c-2.1,2.6-4.3,6.8-3.8,10.3c0.2,1.3,1.2,3,2.7,2.8c1.6-0.2,2.4-2.3,3.3-3.4
				c-0.2-0.1-0.5-0.2-0.7-0.3c0.3,2.8,4.8,3.2,6.9,2.6c-0.2-0.2-0.3-0.4-0.5-0.6c-0.7,1.2-3.3,5.9,0,5.6c-0.1-0.3-0.1-0.5-0.2-0.8
				c-1.1,0.5-2.2,1.5-2.7,2.7c-0.2,0.6-0.2,1.1-0.2,1.7c0.1,0.7,0.4,1.6,0.1,2.2C54.4,82,55.1,82.5,55.3,82L55.3,82z"/>
		</g>
	</g>
	<g>
		<g>
			<path class="st8" d="M34.7,58c2.1,1.2,0.4,5.2-1.8,5.1c-0.3,0-0.5,0.4-0.4,0.6c0.3,0.6,0.5,1.4,0.5,2.1c0,0.5,0.2,1.7-0.4,2
				c-0.7,0.3-1.2-1.2-1.4-1.7c-0.2-0.7-0.4-1.6-0.3-2.4c0.1-0.4-0.3-0.6-0.6-0.5c-1,0.5-1.7-1.2-2.1-1.9c-0.5-0.9-1.1-2.1-2.3-2.3
				c-0.2,0-0.5,0.1-0.5,0.4c0.2,2.4-3.4,0.6-4-0.6c-0.2-0.5-1-0.3-0.8,0.2c0.8,2,5.8,3.9,5.6,0.4c-0.2,0.1-0.3,0.3-0.5,0.4
				c2.1,0.4,2.2,5.4,5,4.1c-0.2-0.2-0.4-0.3-0.6-0.5c-0.2,1.1,0.1,2.3,0.4,3.3c0.3,0.8,1,2.1,2.1,1.8c1.9-0.4,1.1-4.1,0.5-5.3
				c-0.1,0.2-0.2,0.4-0.4,0.6c3.1,0.1,5-5,2.2-6.7C34.6,57,34.2,57.7,34.7,58L34.7,58z"/>
		</g>
	</g>
	<g>
		<g>
			<path class="st8" d="M20.5,59.2c0.1,0.2-0.9,0.3-1,0.2c-0.4,0-0.7-0.1-1.1-0.3c-0.6-0.3-1-0.8-1.5-1.2c-0.2-0.2-0.7-0.1-0.7,0.3
				c0.3,2.2,1.3,4.5-0.5,6.4c-0.2,0.2-0.1,0.5,0.1,0.6c1,0.8,2,1.7,2.7,2.8c0.2,0.4,0.5,1,0.3,1.5c-0.2,0.7-1,1-1.6,1.1
				c-0.5,0.1-0.3,0.9,0.2,0.8c0.8-0.2,1.6-0.6,2.1-1.3c0.3-0.6,0.3-1.3,0-2c-0.6-1.5-2-2.7-3.2-3.7c0,0.2,0.1,0.4,0.1,0.6
				c0.9-0.9,1.3-2,1.3-3.3c0-1.2-0.4-2.4-0.6-3.7c-0.2,0.1-0.5,0.2-0.7,0.3c0.9,0.8,1.7,1.7,3,1.8c0.8,0.1,2.5-0.3,1.8-1.5
				C21,58.4,20.2,58.8,20.5,59.2L20.5,59.2z"/>
		</g>
	</g>
	<g>
		<g>
			<path class="st8" d="M17.1,59.6c4.5,5.6,8.5,11.6,12.5,17.6c1.4,2.1,2.9,4.1,4.6,6c1.5,1.8,3.8,4,4.1,6.5c0.1,0.5,0.9,0.5,0.8,0
				c-0.3-2.2-1.9-4.1-3.2-5.7c-1.8-2.3-3.7-4.4-5.3-6.8C26.4,71,22.3,64.9,17.7,59C17.4,58.6,16.8,59.2,17.1,59.6L17.1,59.6z"/>
		</g>
	</g>
	<g>
		<g>
			<path class="st8" d="M38.3,89.6c0.4,0.9,1,1.9,1.6,2.7c0.3,0.5,0.7,1,1.1,1.4c0.3,0.3,0.8,0.7,1.2,0.7c0.6,0,0.9-0.6,1.1-1.2
				c0-0.2,0-0.4-0.2-0.5c-0.8-0.5-1.5-1-2.2-1.6c-0.7-0.6-1.4-1.3-1.9-2.1C38.7,88.8,38,89.2,38.3,89.6c0.6,0.8,1.2,1.6,2,2.2
				c0.7,0.6,1.6,1.2,2.4,1.7c-0.1-0.2-0.1-0.3-0.2-0.5c0,0.1-0.1,0.3-0.1,0.4c0-0.1,0,0,0,0.1c0,0-0.1,0.2,0,0.1
				c0,0-0.1,0.1-0.1,0.1c0.1-0.1,0,0,0,0c-0.1,0,0.1,0,0,0c0,0,0,0,0,0c-0.1,0,0.1,0,0,0c-0.1,0,0.1,0,0,0c0,0-0.1,0-0.1,0
				c-0.1,0,0.1,0.1,0,0c0,0,0,0-0.1,0c0,0-0.1-0.1-0.1-0.1c0,0-0.2-0.1-0.1,0c0,0-0.1-0.1-0.1-0.1c-0.1-0.1-0.2-0.2-0.3-0.2
				c-0.4-0.4-0.6-0.8-1-1.3c-0.3-0.5-0.6-1-0.9-1.5c-0.2-0.4-0.4-0.8-0.6-1.2c-0.1-0.2-0.4-0.3-0.6-0.1
				C38.3,89.2,38.2,89.4,38.3,89.6L38.3,89.6z"/>
		</g>
	</g>
	<g>
		<g>
			<path class="st8" d="M7.2,78.2c5.8,1.1,10.8,4.3,16.2,6.5c2.5,1,5.1,1.5,7.8,1.8c1.5,0.2,3.1,0.4,4.4,1.3c1,0.7,1.8,1.6,3,2.1
				c0.5,0.2,0.7-0.6,0.2-0.8c-1.2-0.5-2.1-1.6-3.2-2.2c-1.1-0.6-2.2-0.8-3.4-1c-3-0.4-5.7-0.8-8.6-1.9c-5.4-2.1-10.4-5.3-16.2-6.5
				C6.9,77.3,6.7,78.1,7.2,78.2L7.2,78.2z"/>
		</g>
	</g>
	<g>
		<g>
			<path class="st8" d="M12.5,97c4.1-1.6,8.2-3.4,12.4-5c4-1.5,8.6-3.8,12.9-2.6c0.5,0.1,0.7-0.6,0.2-0.8c-4.2-1.2-8.6,0.7-12.5,2.2
				c-4.5,1.7-8.8,3.6-13.3,5.3C11.8,96.3,12,97.1,12.5,97L12.5,97z"/>
		</g>
	</g>
	<g>
		<g>
			<path class="st8" d="M42.6,53.3c-2.3,7.1-2.8,14.5-3.3,22c-0.2,2.8-0.9,5.3-1.4,8c-0.4,2-0.8,4.6,0.5,6.3c0.3,0.4,1,0,0.7-0.4
				c-1.5-1.9-0.6-5-0.1-7.1c0.5-2.4,1-4.7,1.2-7.2c0.5-7.2,1-14.4,3.2-21.3C43.6,53,42.8,52.8,42.6,53.3L42.6,53.3z"/>
		</g>
	</g>
	<g>
		<g>
			<path class="st8" d="M57,70.5c-1.5,2.1-3.8,3.6-6,4.9c-2,1.3-3.9,2.5-5.7,4c-1.7,1.4-3.4,2.7-4.9,4.4c-1.3,1.4-2.5,3.2-2.4,5.2
				c0.1,0.5,0.9,0.5,0.8,0c-0.2-2.2,1.5-4.1,3-5.6c1.4-1.4,3-2.6,4.6-3.9c3.6-3,8.5-4.7,11.2-8.7C58,70.5,57.3,70.1,57,70.5L57,70.5
				z"/>
		</g>
	</g>
</g>
<g>
	<g>
		<path class="st8" d="M80.3,19.8c1.8-6.1-7.6-8.8-12-6.9c-2.7,1.2-4.7,3.9-4.5,6.9c0.2,2.7,1.8,5.2,4.1,6.7c2.6,1.7,5.8,1.4,7.8-1
			c0.2-0.2,0.2-0.5-0.1-0.6c-1-0.7-2.1-1-3.3-1.4c-0.2-0.1-0.5,0.1-0.5,0.3c-0.5,2,0,4.1,0.5,6.1c0.1,0.5,0.9,0.3,0.8-0.2
			c-0.5-1.8-0.9-3.8-0.5-5.7c-0.2,0.1-0.3,0.2-0.5,0.3c1.1,0.4,2.1,0.7,3.1,1.3c0-0.2-0.1-0.4-0.1-0.6c-3.5,4.3-9.4,0.2-10.3-4.2
			c-0.6-2.8,0.9-5.1,3.2-6.6c2-1.4,4.9-1.1,7.2-0.4c2.6,0.8,5.3,2.9,4.4,5.9C79.3,20.1,80.1,20.3,80.3,19.8L80.3,19.8z"/>
	</g>
</g>
<g>
	<g>
		<path class="st8" d="M85.7,19.1c-1.8-4.6,0-9.7,3.1-13.3c0.3-0.4-0.2-1-0.6-0.6C85,9,83.1,14.5,85,19.3
			C85.1,19.8,85.9,19.6,85.7,19.1L85.7,19.1z"/>
	</g>
</g>
<g>
	<g>
		<path class="st8" d="M83,19.2c0-3.7-1.4-7.1-3.2-10.2c-0.3-0.5-1,0-0.7,0.4c1.7,3,3.1,6.3,3.1,9.8C82.2,19.8,83,19.8,83,19.2
			L83,19.2z"/>
	</g>
</g>
<g>
	<g>
		<g>
			<path class="st8" d="M38.8,115.5c3.6-0.3,7.4-1.2,10.9,0.2c0-0.3,0-0.5,0-0.8c-2.5,0.8-5,0.1-7.6,0.3c-0.5,0.1-0.5,0.8,0,0.8
				c0.4,0,1.1,0.2,1.5-0.1c0.2-0.1,0.3-0.5,0.1-0.6c-0.4-0.3-1.2-0.1-1.6-0.1c-0.4,0.1-0.6,0.7-0.1,0.8c0.4,0.1,0.2-0.2,0.3-0.2
				c-0.1,0-0.3,0.2-0.4,0.2c-0.3,0.1-0.5,0.2-0.8,0.3c-1.3,0.4-2.6,0.5-3.9,1c-0.4,0.1-0.4,0.7,0,0.8c0.9,0.3,0.7,1-0.1,1.3
				c-0.3,0.1-0.4,0.6-0.1,0.8c0,0.1,0.1,0.2,0.1,0.4c-0.4,0.2-0.2,0.8,0.2,0.8c0.8,0,1.4,0.6,2.1,0.7c0.6,0.1,1.2-0.1,1.8-0.3
				c1.7-0.5,3.7-1.1,5.2,0.2c0.1,0.1,0.3,0.2,0.5,0.1c2.2-1.3,4.5-1.3,7-0.9c-0.1-0.1-0.2-0.3-0.3-0.4c0,0.5,0.1,1-0.3,1.4
				c-0.4,0.4-0.7,0.6-1,1.1c-0.1,0.3,0,0.6,0.4,0.6c1.2-0.1,1.7,0.8,2.4,1.6c0.1,0.2,0.5,0.3,0.6,0.1c1.2-1.3,3.4-1.1,4.9-1.9
				c0.7-0.4,3.4-2.3,3.8-1c0.1,0.4,0.7,0.4,0.8,0c0.1-0.4,0.2-0.7,0.5-0.9c0.4-0.4-0.2-0.9-0.6-0.6c-0.4,0.4-0.7,0.7-0.8,1.2
				c0.3,0,0.5,0,0.8,0c-0.6-1.9-2.9-0.7-4-0.1c-1,0.5-1.8,1-2.9,1.2c-1.1,0.3-2.4,0.5-3.2,1.4c0.2,0,0.4,0.1,0.6,0.1
				c-0.8-1.1-1.5-2.2-3.1-2.1c0.1,0.2,0.2,0.4,0.4,0.6c0.3-0.6,1.1-0.8,1.4-1.4c0.2-0.4,0-1.1,0-1.5c0-0.2-0.1-0.4-0.3-0.4
				c-2.7-0.4-5.2-0.4-7.6,1c0.2,0,0.3,0,0.5,0.1c-1.2-1.1-2.6-1.2-4.2-0.9c-0.9,0.2-1.8,0.6-2.7,0.7c-1,0.1-1.8-0.7-2.8-0.7
				c0.1,0.3,0.1,0.5,0.2,0.8c0.9-0.5,0.8-1.4-0.1-1.8c0,0.3-0.1,0.5-0.1,0.8c1.9-0.7,2.1-2.2,0.1-2.9c0,0.3,0,0.5,0,0.8
				c1.7-0.6,3.6-0.6,5.2-1.5c0.9-0.5,0.7-1.2-0.3-1.4c0,0.3-0.1,0.5-0.1,0.8c0.1,0,1-0.1,1-0.2c0-0.2,0.1-0.4,0.1-0.6
				c-0.2,0.1-0.9,0-1.1,0c0,0.3,0,0.5,0,0.8c2.6-0.3,5.2,0.4,7.8-0.3c0.4-0.1,0.4-0.6,0-0.8c-3.5-1.4-7.5-0.5-11.1-0.2
				C38.3,114.7,38.3,115.5,38.8,115.5L38.8,115.5z"/>
		</g>
	</g>
	<g>
		<g>
			<path class="st8" d="M46.6,101.6c-0.5-0.3-1-0.6-1.5-0.8c-0.5-0.2-0.9-0.2-1.4-0.1c-1.2,0.1-2.2,0.1-3.2-0.7
				c-0.2,0.2-0.3,0.4-0.5,0.6c0.3,0.2,0.5,0.5,0.1,0.7c-0.3,0.2-0.8,0.4-1.2,0.4c-0.4,0-0.6,0.6-0.2,0.8c0.3,0.1,0.6,0.3,0.9,0.5
				c0.1,0.1,0.4,0.3,0.4,0.4c0.1,0.3-0.9,0.6-1.1,0.7c-0.5,0.2-0.3,1,0.2,0.8c0.7-0.2,1.8-0.6,1.8-1.5c0-0.8-1.1-1.3-1.7-1.6
				c-0.1,0.3-0.1,0.5-0.2,0.8c0.7,0,1.5-0.3,2-0.8c0.6-0.7,0.1-1.4-0.5-1.8c-0.4-0.3-0.9,0.3-0.5,0.6c1,0.8,2,1,3.3,1
				c0.5,0,1-0.1,1.4,0c0.5,0.1,1,0.4,1.5,0.8C46.6,102.6,47,101.9,46.6,101.6L46.6,101.6z"/>
		</g>
	</g>
	<g>
		<g>
			<path class="st8" d="M39.2,105.2c0.9-0.1,1.9,0.1,2.6,0.5c0.5,0.3,1.2,0.9,0.4,1.3c-0.4,0.2-0.2,0.7,0.2,0.8
				c0.7,0.1,1.3,0.3,2,0.5c0.3,0.1,0.6,0.2,0.9,0.4c0,0,0.2,0.2,0.3,0.2c0.1,0.1,0.1,0.1,0.1-0.2c-0.1,0-0.1,0-0.2,0.1
				c-0.3-0.1-0.7,0-1,0c-0.4,0-0.8-0.1-1.3-0.2c-0.6-0.1-1.4-0.3-1.9-0.6c-0.2-0.1-0.5-0.1-0.6,0.1c-0.3,0.6-2.2,0.1-2.7,0.1
				c-1-0.1-2.2-0.3-3.2,0c-0.4,0.1-0.4,0.7,0,0.8c0.2,0.1,0.3,0.1,0.5,0.2c-0.2-0.1,0.2-0.1-0.1-0.1c-0.3,0-0.7,0.3-1,0.4
				c-0.8,0.2-1.7,0.3-2.5,0.2c-0.5-0.1-0.7,0.7-0.2,0.8c1.2,0.2,2.8,0.1,3.9-0.5c0.4-0.2,0.8-0.4,0.7-0.9c0-0.5-0.6-0.8-1.1-0.9
				c0,0.3,0,0.5,0,0.8c1.1-0.4,2.6,0,3.8,0.1c0.8,0.1,2.2,0.3,2.6-0.6c-0.2,0-0.4,0.1-0.6,0.1c0.9,0.5,1.9,0.7,2.9,0.9
				c0.7,0.1,2.1,0.4,2.6-0.4c0.8-1.3-3.2-2-3.9-2.1c0.1,0.3,0.1,0.5,0.2,0.8c1-0.5,1-1.5,0.2-2.3c-1-0.9-2.5-1.2-3.9-1
				C38.5,104.5,38.7,105.3,39.2,105.2L39.2,105.2z"/>
		</g>
	</g>
	<g>
		<g>
			<path class="st8" d="M31.5,110.5c0.1-0.3,0.1-0.3-0.1-0.2c0,0-0.1,0.1-0.1,0.1c-0.1,0.1-0.3,0.1-0.4,0.2
				c-0.3,0.1-0.6,0.2-0.9,0.2c-0.6,0.1-1.2,0.1-1.8,0.1c-0.5,0-0.6,0.7-0.1,0.8c0.9,0.3,1.8,0.5,2.8,0.8c0.6,0.2,1.6,0.5,1.8,1.2
				c0,0.2,0.2,0.3,0.4,0.3c1.3-0.1,2.6-0.2,3.9,0c0.5,0,1,0.1,1.5,0.3c0.3,0.2,0.2,0.3,0,0.6c-0.4,0.4,0.2,1,0.6,0.6
				c0.4-0.4,0.7-0.9,0.4-1.4c-0.3-0.5-0.9-0.6-1.5-0.7c-1.6-0.3-3.3-0.2-4.9-0.1c0.1,0.1,0.3,0.2,0.4,0.3c-0.3-0.9-1-1.3-1.8-1.6
				c-1.1-0.4-2.2-0.6-3.3-1c0,0.3-0.1,0.5-0.1,0.8c1.1,0,2.2,0,3.2-0.4c0.4-0.2,0.8-0.4,0.9-0.9c0-0.5-0.4-0.6-0.8-0.7
				C30.9,109.6,30.9,110.5,31.5,110.5L31.5,110.5z"/>
		</g>
	</g>
	<g>
		<g>
			<path class="st8" d="M29.5,111.8c7.4,0.2,14.7,0.8,22.1,1.2c0.5,0,0.5-0.8,0-0.8c-7.4-0.5-14.7-1-22.1-1.2
				C29,111,29,111.8,29.5,111.8L29.5,111.8z"/>
		</g>
	</g>
	<g>
		<g>
			<path class="st8" d="M37.8,121.2c5.9-2.2,12.3-2.5,18.3-4.5c0.5-0.2,0.3-1-0.2-0.8c-6,1.9-12.4,2.3-18.3,4.5
				C37.1,120.5,37.3,121.3,37.8,121.2L37.8,121.2z"/>
		</g>
	</g>
	<g>
		<g>
			<path class="st8" d="M55.8,125.2c1.4-2.1,2.7-4.2,4.1-6.2c0.3-0.4-0.4-0.8-0.7-0.4c-1.4,2-2.7,4.1-4.1,6.2
				C54.8,125.2,55.5,125.6,55.8,125.2L55.8,125.2z"/>
		</g>
	</g>
	<g>
		<g>
			<path class="st8" d="M40.7,101c1.8,1.4,3.8,2.5,5.8,3.6c0.5,0.3,0.9-0.5,0.4-0.7c-2-1.1-4-2.3-5.8-3.6
				C40.6,100,40.2,100.7,40.7,101L40.7,101z"/>
		</g>
	</g>
</g>
<g>
	<g>
		<g>
			<path class="st8" d="M79.8,131.4c-0.4-0.6-1-1.1-1.4-1.7c-0.2-0.4-0.2-0.9,0.1-1.3c0.4-0.5,1-0.5,1.1,0.1c0.2,0.6,0,1.2,0.5,1.7
				c0.4,0.5,1.1,0.7,1.7,0.9c0.8,0.2,1.4,0.7,2.2,1c0.8,0.4,1.6,0.6,2.5,0.6c0.9,0,1.9-0.1,2.8-0.2c0.7-0.1,1.7-0.5,2.3,0.1
				c0.2,0.2,0.6,0.1,0.7-0.2c0.1-0.4,1-0.4,1.3-0.7c0.2-0.2,0.2-0.5-0.1-0.6c-0.2-0.1-0.3-0.1-0.6-0.2c-0.4-0.1-0.8,0.5-0.3,0.8
				c0.2,0.1,0.4,0.1,0.6,0.2c0.4,0.1,0.8-0.5,0.3-0.8c-0.6-0.3-1.3-0.5-1.7-1c-0.7-0.9,0.5-1,1.1-1c0.4,0,0.6-0.6,0.2-0.8
				c-0.7-0.3-3.2-1.2-2.6-2.2c0.3-0.4-0.4-0.9-0.7-0.4c-1.1,1.7,1.7,2.8,2.9,3.3c0.1-0.3,0.1-0.5,0.2-0.8c-0.9,0-2.2,0.2-2.1,1.4
				c0.1,1.2,1.4,1.7,2.3,2.1c0.1-0.3,0.2-0.5,0.3-0.8c-0.1,0-0.3,0-0.4-0.1c-0.1,0.3-0.2,0.5-0.3,0.8c0.1,0,0.2,0.1,0.4,0.1
				c0-0.2-0.1-0.4-0.1-0.6c-0.3,0.2-0.7,0.1-1,0.3c-0.3,0.2-0.5,0.4-0.5,0.7c0.2-0.1,0.5-0.1,0.7-0.2c-0.6-0.6-1.4-0.6-2.1-0.5
				c-1.2,0.2-2.3,0.4-3.5,0.4c-1.4-0.1-2.3-0.7-3.5-1.3c-0.7-0.3-2.1-0.4-2.4-1.3c-0.2-0.7,0-1.5-0.7-2c-0.6-0.4-1.5,0-1.9,0.5
				c-1.4,1.5,0.4,3,1.3,4.2C79.6,132.4,80.2,131.8,79.8,131.4L79.8,131.4z"/>
		</g>
	</g>
	<g>
		<g>
			<path class="st8" d="M55.6,124.8c0.3,0.3-0.5,0.6-0.7,0.7c-0.5,0.3-1.1,0.4-1.7,0.6c-2.1,0.6-4.3,1-6.5,1.2c-0.5,0-0.5,0.8,0,0.8
				c1.2,0,2.4,0,3.5,0.5c0.1,0.1,0.2,0.1,0.3,0.2c0.2,0.1,0,0.1,0.2,0c-0.1,0.1-0.3,0.1-0.4,0.2c-0.3,0.1-0.7,0.2-1,0.2
				c-0.3,0.1-0.4,0.6-0.1,0.8c0.1,0.1,0.3,0.1,0.3,0.2c0,0.1-0.3,0.3-0.4,0.3c-0.3,0.2-0.7,0.4-1,0.5c-0.4,0.1-0.4,0.7,0,0.8
				c1.4,0.2,2.9-0.6,4,0.4c0.1,0.1,0.3,0.2,0.5,0.1c1.4-1,3.1-0.8,4.6-0.1c0.5,0.2,0.9-0.5,0.4-0.7c-1.7-0.8-3.8-1-5.4,0.1
				c0.2,0,0.3,0,0.5,0.1c-0.6-0.6-1.3-0.8-2.1-0.8c-0.7,0-1.5,0.3-2.2,0.2c0,0.3,0,0.5,0,0.8c0.6-0.2,1.3-0.5,1.8-1
				c0.5-0.6,0.2-1.2-0.5-1.5c0,0.3-0.1,0.5-0.1,0.8c0.7-0.1,2.7-0.5,1.8-1.6c-0.4-0.5-1.3-0.8-2-0.9c-0.9-0.2-1.8-0.2-2.6-0.2
				c0,0.3,0,0.5,0,0.8c2.5-0.2,4.9-0.7,7.3-1.4c0.9-0.3,3.5-1.2,2.2-2.5C55.8,123.8,55.2,124.4,55.6,124.8L55.6,124.8z"/>
		</g>
	</g>
	<g>
		<g>
			<path class="st8" d="M50.7,121.2c-1.2,0.5-2.4,0.6-3.6,0.8c-0.4,0.1-0.4,0.7,0,0.8c0.8,0.1,1.6,0.5,2.3,0.7
				c0.4,0.2,0.8,0.4,1.2,0.6c0.1,0,0.1,0.1,0.1,0.1c0.1,0.1,0.1,0.1,0.1,0.1c0,0,0-0.2,0-0.2c0,0,0,0,0,0c0,0-0.1,0-0.1,0
				c-0.4,0.2-0.2,0.8,0.2,0.8c1.2-0.1,2.3-0.3,3.5-0.4c0.5,0,0.5-0.8,0-0.8c-1.2,0-2.3,0.2-3.5,0.4c0.1,0.3,0.1,0.5,0.2,0.8
				c0.5-0.2,0.6-0.7,0.3-1.1c-0.3-0.4-0.8-0.6-1.2-0.8c-0.6-0.3-1.2-0.5-1.7-0.7c-0.4-0.1-0.7-0.3-1.1-0.3c0,0.3,0,0.5,0,0.8
				c1.2-0.2,2.5-0.3,3.6-0.8C51.4,121.8,51.2,121,50.7,121.2L50.7,121.2z"/>
		</g>
	</g>
	<g>
		<g>
			<path class="st8" d="M57.9,131.4C57.8,131.3,57.9,131.4,57.9,131.4c0-0.1,0.2-0.2,0.3-0.3c0.4-0.2,0.9-0.3,1.3-0.4
				c1-0.2,2.2-0.3,3.2,0c0.2,0,0.4,0,0.5-0.2c0.3-0.7,1.5-1.1,2.1-1.2c0.1,0,0.6,0,0.7,0.1c0,0.1-0.2,0.3-0.2,0.3
				c-0.3,0.3-0.7,0.6-1.1,0.7c-0.4,0.2-0.4,0.8,0.1,0.8c0.2,0,0.6,0,0.6,0.2c0,0.1-0.2,0.5-0.2,0.6c-0.2,0.5-0.2,1,0.2,1.3
				c0.3,0.2,0.5,0.3,0.8,0.2c0.4-0.2,0.8-0.3,1.3-0.2c0.3,0,1.7,0.6,1.5,0.9c-0.3,0.4,0.4,0.9,0.7,0.4c0.5-0.7-0.4-1.5-1-1.8
				c-0.9-0.5-2.1-0.6-3.1-0.1c0.1,0,0.3,0,0.4,0c-0.6-0.2,0-0.9,0.1-1.3c0.1-0.8-0.8-1-1.5-1.1c0,0.3,0.1,0.5,0.1,0.8
				c0.8-0.3,3.1-1.9,1.4-2.6c-0.7-0.3-1.6-0.1-2.3,0.3c-0.5,0.2-1.3,0.7-1.5,1.2c0.2-0.1,0.3-0.1,0.5-0.2c-1.4-0.4-3-0.3-4.4,0.2
				c-0.7,0.2-2.1,1-1.2,1.9C57.7,132.3,58.3,131.8,57.9,131.4L57.9,131.4z"/>
		</g>
	</g>
	<g>
		<g>
			<path class="st8" d="M70,134.7c-0.1,0.3-0.2,0.1,0.1,0.1c0.1,0,0.3,0,0.4,0c0.3,0.1,0.6,0.1,0.8,0.2c0.4,0.2,0.5,0.4,0.7,0.8
				c0.1,0.2,0.4,0.4,0.6,0.2c0.5-0.3,1-0.8,1.5-1.1c0.8-0.5,1.8-0.7,2.8-0.7c0.3,0,0.5-0.3,0.4-0.6c-0.2-0.3-0.5-0.9-0.4-1.3
				c0.4-0.8,2.1-0.4,2.7-0.3c0.5,0.1,0.7-0.7,0.2-0.8c-1.1-0.2-2.9-0.5-3.6,0.7c-0.4,0.7-0.1,1.5,0.3,2.1c0.1-0.2,0.2-0.4,0.4-0.6
				c-1,0.1-2.1,0.2-3,0.7c-0.6,0.3-1.1,0.8-1.7,1.2c0.2,0.1,0.4,0.2,0.6,0.2c-0.3-0.8-0.7-1.2-1.5-1.5c-0.5-0.2-1.9-0.6-2.1,0.2
				C69.1,135,69.9,135.2,70,134.7L70,134.7z"/>
		</g>
	</g>
	<g>
		<g>
			<path class="st8" d="M72.9,135.3c0.2-3.9,1-7.8,0.7-11.8c0-0.5-0.9-0.5-0.8,0c0.3,3.9-0.5,7.8-0.7,11.8
				C72.1,135.8,72.9,135.8,72.9,135.3L72.9,135.3z"/>
		</g>
	</g>
	<g>
		<g>
			<path class="st8" d="M92,131.7c-4.4-2.5-8.1-6.1-12.8-7.9c-0.5-0.2-0.7,0.6-0.2,0.8c4.7,1.8,8.3,5.3,12.6,7.8
				C92,132.6,92.4,131.9,92,131.7L92,131.7z"/>
		</g>
	</g>
	<g>
		<g>
			<path class="st8" d="M48.7,131.4c3.8-1.2,7.6-2.5,11.3-3.9c1.8-0.7,3.7-1.4,5.5-2.2c1.9-0.8,3.6-1.9,5.7-2.1c0.5,0,0.5-0.9,0-0.8
				c-1.7,0.2-3.3,0.8-4.9,1.6c-2,1-4.1,1.8-6.2,2.6c-3.9,1.5-7.8,2.8-11.7,4.1C48,130.8,48.2,131.6,48.7,131.4L48.7,131.4z"/>
		</g>
	</g>
	<g>
		<g>
			<path class="st8" d="M66.7,122.8c1,0,2.1-0.1,3.1-0.2c0.2,0,0.4-0.2,0.4-0.4c0-0.2-0.2-0.4-0.4-0.4c-1,0.1-2.1,0.2-3.1,0.2
				c-0.2,0-0.4,0.2-0.4,0.4C66.3,122.6,66.5,122.8,66.7,122.8L66.7,122.8z"/>
		</g>
	</g>
	<g>
		<g>
			<path class="st8" d="M47.8,122.8c1.4-0.2,2.8-0.2,4.2-0.2c0.5,0,0.5-0.8,0-0.8c-1.4,0-2.8,0-4.2,0.2c-0.2,0-0.4,0.2-0.4,0.4
				C47.4,122.6,47.6,122.8,47.8,122.8L47.8,122.8z"/>
		</g>
	</g>
</g>
<g>
	<path class="st10" d="M113.8,110.8c0,0.2-0.1,0.5-0.2,0.7c8.2,1.7,13.5,4.2,13.5,7c0,4.9-16.5,9.1-36.1,9.2
		c0.2,0.2,0.3,0.4,0.3,0.7c20.5-0.1,36.5-4.4,36.5-9.8C127.8,115.4,122.4,112.6,113.8,110.8z"/>
</g>
</svg>
