<?xml version="1.0" encoding="utf-8"?>
<!-- Generator: Adobe Illustrator 24.0.1, SVG Export Plug-In . SVG Version: 6.00 Build 0)  -->
<svg version="1.1" id="Layer_1" xmlns="http://www.w3.org/2000/svg" xmlns:xlink="http://www.w3.org/1999/xlink" x="0px" y="0px"
	 viewBox="0 0 141.7 141.7" style="enable-background:new 0 0 141.7 141.7;" xml:space="preserve">
<style type="text/css">
	.st0{fill:#C4C68B;}
	.st1{fill:#FDEB07;}
	.st2{fill:#EE3624;}
	.st3{fill:#8D7666;}
	.st4{fill:#FFFFFF;}
	.st5{fill:#A1A85A;}
	.st6{fill:#75CEEB;}
	.st7{fill:#C9B09D;}
	.st8{fill:#8A6D5A;}
	.st9{fill:#F99C1C;}
	.st10{fill:#F8AEAB;}
	.st11{fill:#991C1F;}
	.st12{fill:#B62525;}
	.st13{fill:#F7EEA5;}
	.st14{fill:#F8E87A;}
	.st15{fill:#CEBB2C;}
	.st16{fill:#8E8231;}
	.st17{fill:#F9B047;}
	.st18{fill:#F4C587;}
	.st19{fill:#BB7429;}
	.st20{fill:#7F5421;}
	.st21{fill:#F3776E;}
	.st22{fill:#231F20;}
	.st23{fill:#070707;}
	.st24{fill:none;stroke:#070707;stroke-width:0.4436;stroke-miterlimit:10;}
</style>
<path class="st0" d="M42.9,81.2c0,0-20.1,1-22,2.3l-3.7,4.3l-0.8-2.4l-3.2,0.9c0,0-0.3,3,20.5,4.5c0,0,23.5,2,27.4,1.4
	c0,0,21.3,0.3,23.5,0.3c2.2-0.1,23.6-1.2,25-1.3c0,0,14.2-1.8,15-2c0.8-0.2,12.4-2.7,0.6-5.5l-11.8-1.5l-10.8-1l-11.5-0.8l-12-0.2
	l-13.8-0.1L42.9,81.2z"/>
<path class="st1" d="M109,75l-1.8,0c0,0-1.6-0.3,0-1.7l0.8-0.7l-2,0.1l0.1-1.5c0,0-4.8-0.5-2.2-5.3c0,0,1.1-2.3,5.8-2.6l-0.8-0.3
	l1.8-1.7c0,0-6.5,1-1.5-7.7l-0.6-0.1l-1.3,0.4l-1.3,0.8l-1.2,0.7l-0.9,0.3l-0.8-0.1c0,0-0.9-1.6-0.9-1.4c0.1,0.2-0.5,1.1-0.5,1.1
	l-1.4,1.5l-1.4,1l-2.5,0.5c0,0-3.5-0.2-3.1-5.5l0.8-4.3l-1.8,0.5c0,0-2.7,0.2-4.8-4.4l-1.1,1.6L85.4,49L84.3,51l-2.8,2.4
	c0,0,2.9,3.4,2,7c0,0-1.7,3.3-3.5-1.2h-1.5c0,0-2.4,3.4-6.5,1l-1.5,1.8c0,0,3.9,3.6,0.5,5.6l0.1,1.5l2.2,1.2l5.1,2.4
	c0,0,4.7,3.4,1.4,4.7l-1.8,1.6c0,0,3.6,2,0.3,5.9c0,0,1.7,0.7,1.2,2c-0.1,0.2-0.1,0.3-0.2,0.4c0-0.1,0.1-0.1,0.2-0.2
	c0.3-0.1,2.9-1.6,2.9-1.6s2.2-0.6,2.1-0.5c-0.1,0.1,1.5,0.6,1.5,0.6s0.5-1.5,1.8-1.2c0,0,0.1,0,0.1,0c0-0.1,0.1-0.1,0.1-0.2
	c0-0.6,0.1-2,2.6-3.2l1.4-1.3l0.5-1.1l0.4,0.6l2.7,0.5l2.1,0.3l5.1,1.2c0,0-1.9-1.4,2.9-2.1l1.7-0.5l1.8-1.2l1.7-1l-0.3-0.6L109,75z
	"/>
<path class="st2" d="M35.9,74.3c-1.1,0.4-3-0.8-3-0.8c-0.8-2.2,2.1-5.6,2.1-5.6c-1.4-0.4-1.2-1.8-1.2-1.8c-2.7,0.2-0.6-4.7-0.6-4.7
	c-1.5-0.2-1.1-2.4-1.1-2.4c-2.9,4.3-4.5,1.5-4.5,1.5c-1.1,3-3.3,3.5-3.3,3.5c-3.1-0.1-2.6-5.3-2.6-5.3c-2,0-2.8-3.8-2.9-4.2
	c-0.1,0-0.1-0.1-0.2-0.2c0,0,0,0.1-0.1,0.1c-0.8,1.8-2,0.7-2,0.7c0.4,5.3-3.6,6.8-3.6,6.8c1.1,1.4,0.8,2.4,0.8,2.4
	c-0.8,2-2.5-1.3-2.5-1.3c-0.5,2.1-2.5,2-2.5,2c0.2,2.1-1.2,1.4-1.2,1.4L6,64.8l-1.5,1.4L5,68c0.2-0.6,1.4,0.5,1.4,0.5
	c0.6,1.1-0.8,2.3-0.8,2.3C6.4,71.2,6.5,74,6.5,74c4-0.8,5.4,0.9,5.4,0.9c3.4,2.7-0.7,5-0.7,5c1.4,1.2-0.3,3-0.3,3
	c0.4-0.5,1.7,0.3,1.7,0.3c0.5,1-0.9,2-1.4,2.3c0.8,1.1,0.3,2.1,0.3,2.1c1.2-1.6,5-2.1,5-2.1l0.6,2.6c0,0,2-2.4,2.1-2.6
	c0.2-0.2,1.1-1.2,1.4-1.5c0.3-0.3,0.7-0.7,0.9-0.9c0.2-0.1,0.8-0.7,1.2-0.8c0.3-0.1,0.2-0.2,0.8-0.2c0.3-0.2,0.7-0.4,1.1-0.5
	c0-0.1,0.1-0.2,0.1-0.2l1.2-0.5c0,0,0.3-0.5,0.2-1c0.9,0.5,1.5,0.5,1.5,0.5l1.5-0.2l2.9-1.5l5-2.5C35.6,75.9,35.9,74.3,35.9,74.3z"
	/>
<path class="st3" d="M26.1,80.5c0.2,0.2,3.2,4.5,2.1,7.4c0,0,4.5-0.9,5-0.6c0,0,0.4-1.7-3.8-1.2l-2.6-5.4L26.1,80.5z"/>
<path class="st4" d="M16.7,71.3c0,0-2-4.6,3.5-4.7c0,0,4,1.6,1.5,5.4C21.7,72.1,18.6,74.5,16.7,71.3z"/>
<path class="st4" d="M23.6,67.7c0,0,0.9-4.2,4.9-2.5c0.3,0.1,3.5,3.1-0.1,5.7C28.4,70.9,24.2,73,23.6,67.7z"/>
<path class="st5" d="M52.2,41.6c0,0-1.3-0.2-0.7-1.6C51.6,40,52.6,40.8,52.2,41.6z"/>
<path class="st5" d="M54.8,41.8c0,0,0.2-1.5,1.1-0.3L54.8,41.8z"/>
<path class="st6" d="M44.4,47c0,0-2.3-2-5.1,1.1c0,0-1.6,1.9,2.3,3.9l-0.5,3.1L41,60.2l0.6,4.6l-0.5,7.3c0,0-0.2,4.4,0,4.5
	c0.2,0.2,2.2,4.4,2.2,4.4l0.9,1.3c0,0,1-0.1,1.6,0.5l1,1l2.2,1l6.8,0l4.7-0.9l1-0.5c0,0,1.2-1.9,2.5-1.4l2.3-4.2l0.3-4.9l-0.3-6.1
	v-6.5v-5.4l-0.7-3.3l1-0.7c0,0,2.3-1.1,0.5-4.3c0,0-1.5-1.7-4.1-0.2L62.4,46l-3.9-1.7l-3.2-0.3l-4,0.4L47.7,45L44.4,47z"/>
<path class="st4" d="M44.7,50.5c0,0,0.8-6.1,6.5-2.9c0,0,2.7,2.7,0.4,5.4c0,0-2.2,2.1-5,0.8C46.6,53.8,45.1,52.9,44.7,50.5z"/>
<path class="st4" d="M54.6,49.3c0.1-0.2,0.7-4.7,5.7-2.7c0,0,3.9,2.4,1,6.1c0,0-1.4,2.8-5.2,0.5C56.2,53.2,54.1,51.6,54.6,49.3z"/>
<path class="st7" d="M52.3,54c0,0-2.6,1.2-1.7,2.4c0,0,0.5,0.5,2.7,0.1l1.5,0l1.5,0.2c0,0,0.8-0.8,0.1-1.8l-1.8-0.9L52.3,54z"/>
<path class="st4" d="M52,57c0,0-0.2,2.1,0.8,2c0,0,0.4,0.4,1-0.7c0,0,0.3,0.9,0.9,0.7c0,0,0.9-0.1,0.8-1.3l-0.2-1.1l-1.4-0.3
	l-0.9,0.2l-0.8,0.1L52,57z"/>
<path class="st7" d="M41.1,64.8c0,0-2.8,0.4-2.4,1.8l0.3,0.4l0.5,0.5l1-0.3l0.9-0.7L41.1,64.8z"/>
<path class="st7" d="M66.4,64.6c0.1,0,0.2,1.5,0.2,1.5s0.7,1.1,1.9,1c0,0,0.7-0.2,0.7-1.3l-0.4-0.7l-0.8-0.6l-0.8-0.2L66.4,64.6z"/>
<path class="st8" d="M92,85.3c0,0-1.1,0.1-1.9,1.1c-0.7,1-0.1,0.3-0.1,0.3S92,87.3,92,85.3z"/>
<path class="st9" d="M116,73.9c0,0,1.6-1.4-0.2-3.8c0,0,1.9,0.9,1.5-5.3c0,0,1.7,2.5,1.5-3.4l1.2-0.9c0,0,1.1,3.1,3.1-2.5l1.4,1.5
	c0,0,2.1-4.6,2.6-4.5l0,0c0.5,0.1,0.9,2,0.9,2s2-2.8,3.6-1.8c0.3,0.2,0.5,2.7,0.5,2.7l1.2-0.5l-0.1,2.9c0,0-0.3,2.9,1.6,0.9
	l-0.2,5.1l0.7-0.8c0,0,1,1.2,1.6,0.4c0,0,1.5,4.1-1.9,7.9l1.8-0.6l-0.1,1.6l-1.5,2l-1.2,1.3l1.2,0.4l-0.9,1.4l-2.1,1.4l-1.1,0.1
	l-0.5,0c0,0,1,1.3,0.9,1.2c-0.1-0.1-1.5,0.4-1.5,0.4s-1.8,0.2-2,0.3c-0.2,0-1.7-0.1-1.7-0.1l-1-0.9l-1.1,1c0,0-1.6,1.8-7.5-6.7
	C116.7,76.8,118.7,74.9,116,73.9z"/>
<path class="st4" d="M120,68.2c0,0-1.2-4.2,3.5-4.6c0,0,4.6,1,2.7,4.9c0,0-1.1,2.6-3.6,1.9C122.6,70.5,120.1,69.5,120,68.2z"/>
<path class="st4" d="M127.1,70.1c0,0,1.6-4.8,5.4-2.5c0,0,3.4,3.1-0.2,5.8c0,0-2.5,1.6-4-0.3C128.3,73.1,126.7,71.4,127.1,70.1z"/>
<polygon class="st8" points="122.6,86.5 124.1,86.6 124.3,86.2 125.8,87.1 125,87.5 123.5,87.8 122.8,87.5 "/>
<path class="st7" d="M44.3,82.5c0,0-2.6,1.5-1.7,2.8c0,0,1,1.1,2.4-0.3l1.5-0.9l0.3-0.1L46,83.2l-0.9-0.8H44.3z"/>
<path class="st7" d="M61.8,83.2c0,0,0.9-1.1,2.3-1.1c0,0,0,0,0,0l0,0c1.4,0,0,0,0,0s1.2,1.2,1.4,2c0,0,0.2,1-0.3,1.3
	c-0.1,0-0.2,0.1-0.3,0.1c-0.9,0.1-1,0.2-2.2-0.9l-0.8-0.9L61.8,83.2z"/>
<path class="st4" d="M81.2,67.2c0,0,0.6-4.7,5.2-4.2c0,0,4.8,0.7,3.9,5.7c0,0-1.1,3.9-4.5,3.4C85.8,72.1,80.8,71.6,81.2,67.2z"/>
<path class="st4" d="M92.1,66.5c0,0-1.4-4.8,3.5-6c0,0,4.9-0.9,5.4,4.5c0,0,0,3.8-3.7,4.5C97.3,69.5,93,70,92.1,66.5z"/>
<path class="st10" d="M17.8,60c0,0,2.2,1,3.9-1.2l-1.6-1l-1.3-3.2L18,57l-0.4,2.1L17.8,60"/>
<path class="st11" d="M12.8,75.8c0.1,0.1-1.4-1,5.9,2.8c0,0,0.5,0.2,2.5,0.6c0,0,4.4-0.5,4.4,0.9c0,0.3,0.1,0.7,0.1,0.7l-1.2,0.5
	l-1.9,0.8c0,0-2.1,1.3-2.1,1.6c0,0.3-3.3,4.2-3.3,4.2l-1-2.5l-2.6,0.7l-2.1,1.4l-0.1-1.3l-0.4-0.8l1.1-0.7l0.4-0.9L12.2,83l-0.7-0.3
	l-0.4,0l0.4-0.7c0,0,0.1-1.1,0.1-1.2c0-0.1-0.6-1-0.6-1l1.1-0.6l0.6-0.7l0.2-1L12.8,75.8z"/>
<path class="st12" d="M37,76.5c0,0,0-0.1,0.1-0.1c0,0-0.1,0-0.1,0c-1.7-0.5-1.1-1.6-1.1-1.6l-0.3-0.3l-2.1,1.5l-3.8,1.7l-3.6,2.2
	v0.5l1.8,0.2l3.5-1.5L37,76.5C37,76.4,37,76.4,37,76.5z"/>
<path class="st13" d="M88.1,54.2c0,0-0.5,0.9-2.8,0l-1.5-1c0,0-2.2-0.2-2-0.2c0.2,0,2.9-2.3,2.9-2.3l0.8-1.9l0.6-1.9
	c0,0,0.6-1.3,0.7-1.5c0.1-0.2,0.8-0.7,0.8-0.7l-0.3,1.2V49v2l0.8,1.7C88.1,52.7,88.4,53.7,88.1,54.2z"/>
<path class="st14" d="M94.1,48.4c0,0-2.8,7.9,1.3,9.7c4.1,1.8,0.2,0,0.2,0s-3.8,2.4-5.7,1.8c0,0-2,1.1-1.7-4.1l0.1-1.8l-0.1-1.2
	L87.3,51v-3.3l0.3-3C87.6,44.7,90.2,50.2,94.1,48.4z"/>
<path class="st15" d="M80,74.3c0,0,1.4,1.9-0.2,2.6c0,0-0.9,1.8-1.8,1.9c0,0,3.2,3.8,0.2,5.8c-3,2-0.1,0.2-0.1,0.2s1.8,1.2,1.2,2.3
	c-0.6,1.1,2.5-1.4,2.5-1.4s1.4-1.1,3.7-0.2c0,0,0.9-1.4,2.1-1.1c0,0-0.6-2.3,2.4-3.1l2.1-2l0.3-0.4c0,0,0,0.4,0.3,0.4
	c0.3,0.1,0.2-1,0.2-1s-0.1-2-4.6-2.8c0,0-4.4-0.8-4.4-0.6c0,0.2-2.7-0.6-2.7-0.4C81.2,74.5,80,74.3,80,74.3z"/>
<path class="st16" d="M109.6,76.9l-1,0.7l-1.9,1.3l-2.1,0.5l-1.1,0.2l-1.3,0.7l0.1,1.2l-2.1-1l-2.3-0.5l-1.9-0.1l-1.9,0l-0.9-0.1
	l-0.6-0.5l0.3-0.4L93,78.5c0,0,1.1,0.3,1.3,0.3s3.4-0.2,5.1-1.5l2.3-0.7l2.9-0.2l4.1,0.4L109.6,76.9z"/>
<path class="st17" d="M124.6,59.6c0,0,3.2,3.9,4.8,1.4l1.1-2.7l0.9-3.4c0,0-0.4-0.8-3.1,1.8l-0.8-0.4l-0.4-1.3L124.6,59.6z"/>
<path class="st18" d="M132.3,57.9c0,0-0.2,1.6-2.1,1.4l1.2-4.3L132.3,57.9z"/>
<path class="st19" d="M116.7,76.8c0,0,1.1-1.8,4.4,0.1c0,0,1.9,0.5,2.8,2.2l0.7,2.4l0.5,0.9l-0.6,0.9l-1.3,0.4l-1.4-0.6L116.7,76.8z
	"/>
<path class="st20" d="M131.4,82.7l-2.4,0.6l-1.9,0.3l-1.1-0.4l-0.6-0.9c0,0,0.2-1.8,3-1.2c0,0,2,0.3,2.1,0.4
	C130.7,81.6,131.4,82.7,131.4,82.7z"/>
<path class="st21" d="M13,65.2c0,0,1.2,0.4,2.2-0.3l1.5-0.9l1-1.1c0,0,0.7-1.1,0.2-2.6l-0.2-1.4L18,57l0.5-2.3l0.2-0.4l-0.7,1
	l-1.2,0c0,0-0.2,2.2-0.3,2.3c-0.1,0.1-0.7,1.6-0.7,1.6l-0.9,1.3L14,61.2l-1,0.7l0.8,1.1l0,1.3l-0.9,0.6L13,65.2z"/>
<g>
	<g>
		<g>
			<path class="st22" d="M78,59.2c0.9,0.8,1.7,0.7,2.5-0.2c-0.2-0.1-0.4-0.1-0.6-0.2c0.2,1.1,0.7,2.4,1.8,2.8c0.8,0.3,1.5,0,1.9-0.7
				c1.4-2.3,0-6.3-1.9-7.9c0,0.2,0,0.4-0.1,0.6c1.6-1,3-2.2,3.9-3.8c0.9-1.6,0.8-3.8,2.2-5.1c-0.2,0-0.4,0-0.6-0.1
				c0.9,1.3,1.6,2.8,2.8,3.8c1.3,1,2.8,0.9,4.3,0.3c-0.1-0.2-0.3-0.4-0.4-0.5C93,50,92.8,52,93,53.9c0.1,1.6,0.6,3.7,2.1,4.5
				c1.4,0.8,3.3,0.1,4.6-0.7c1.2-0.7,2.7-2,2.7-3.5c0-0.5-0.7-0.5-0.7,0c0,1.3-1.6,2.4-2.6,3c-1.2,0.7-2.9,1.3-4.1,0.2
				c-1.1-1-1.3-2.9-1.3-4.2c0-1.5,0.1-3.1,0.8-4.5c0.1-0.3-0.1-0.7-0.4-0.5c-1.5,0.6-2.8,0.7-4-0.5c-0.9-0.9-1.5-2.2-2.2-3.2
				c-0.1-0.2-0.4-0.2-0.6-0.1c-1.2,1.1-1.4,2.6-1.9,4.1c-0.7,2.1-2.3,3.6-4.1,4.7c-0.2,0.1-0.3,0.4-0.1,0.6c1.5,1.3,2.3,3.6,2.2,5.5
				c0,0.7-0.4,2.4-1.5,1.9c-0.8-0.4-1.1-1.5-1.3-2.3c0-0.3-0.4-0.4-0.6-0.2c-0.3,0.5-0.8,0.5-1.4,0.2C78.1,58.4,77.6,58.9,78,59.2
				L78,59.2z"/>
		</g>
	</g>
	<g>
		<g>
			<path class="st22" d="M101.8,54.2c0.4,1.4,1.3,2.2,2.8,1.6c1.3-0.5,3-2.4,4.4-1.8c-0.1-0.2-0.1-0.4-0.2-0.6
				c-2.6,2.4-3.5,9.6,1.9,8.3c-0.1-0.2-0.2-0.5-0.3-0.7c-0.7,0.5-1.3,1-1.9,1.7c-0.2,0.2-0.1,0.5,0.2,0.6c0.3,0.1,0.6,0.2,0.9,0.3
				c0-0.2,0.1-0.5,0.1-0.7c-2.9,0.2-5.6,0.8-6.7,3.8c-1,2.6,0.4,4.8,3.2,4.7c-0.1-0.2-0.2-0.4-0.3-0.6c-0.5,0.5-0.5,1-0.7,1.7
				c0,0.2,0.1,0.4,0.3,0.5c1,0.2,1.8,0.1,2.8-0.2c-0.1-0.2-0.2-0.4-0.4-0.6c-0.7,0.5-2.8,2.1-1.3,3c1.2,0.7,3.3,0.1,4.2,1.4
				c0.1-0.2,0.3-0.4,0.4-0.5c-1.1-0.2-2.2,0.9-3,1.5c-1.2,0.8-2.1,1.1-3.5,1.4c-0.8,0.1-2.1,0.3-2.6,1c-0.6,0.8,0.3,1.6,1,2
				c0.1-0.2,0.2-0.5,0.3-0.7c-2-0.7-4.2-1.8-6.3-2c-1.2-0.1-3.9,0.8-4.2-0.9c-0.1-0.5-0.8-0.3-0.7,0.2c0.2,1.7,2,1.6,3.3,1.5
				c2.7-0.2,5.1,1.1,7.6,1.9c0.4,0.1,0.6-0.5,0.3-0.7c-0.5-0.3-1.1-0.7-0.5-1.1c0.3-0.2,0.7-0.3,1-0.4c0.7-0.2,1.4-0.2,2.1-0.4
				c0.8-0.2,1.5-0.6,2.2-1.1c0.6-0.4,1.9-1.8,2.7-1.6c0.3,0.1,0.6-0.2,0.4-0.5c-0.6-1-1.9-1.2-3-1.4c-0.3,0-1.3-0.1-1.5-0.4
				c-0.3-0.4,1.3-1.6,1.6-1.8c0.3-0.2,0-0.7-0.4-0.6c-0.8,0.2-1.5,0.3-2.4,0.2c0.1,0.2,0.2,0.3,0.3,0.5c0.1-0.5,0.1-0.9,0.5-1.3
				c0.2-0.2,0.1-0.7-0.3-0.6c-2.9,0.2-3.4-2.5-2.1-4.6c1.2-2,3.4-2.2,5.5-2.4c0.4,0,0.5-0.6,0.1-0.7c-0.3-0.1-0.6-0.2-0.9-0.3
				c0.1,0.2,0.1,0.4,0.2,0.6c0.5-0.6,1.1-1.2,1.7-1.6c0.3-0.2,0.1-0.8-0.3-0.7c-4.5,1.1-3.2-5.2-1.2-7.1c0.2-0.2,0.1-0.5-0.2-0.6
				c-1.1-0.5-2.2,0.3-3.1,0.8c-1.3,0.8-2.9,2-3.6-0.1C102.3,53.6,101.6,53.8,101.8,54.2L101.8,54.2z"/>
		</g>
	</g>
	<g>
		<g>
			<path class="st22" d="M91.9,78.5c-0.5,2.9-5,2.4-4.7,5.8c0.1-0.1,0.2-0.2,0.4-0.4c-1.1,0-1.8,0.5-2.2,1.5
				c0.2-0.1,0.4-0.1,0.5-0.2c-1.1-0.5-2.3-0.8-3.5-0.3c-1.2,0.5-2.1,1.5-3.5,1.8c0.1,0.2,0.3,0.4,0.4,0.5c0.7-1.2,0.1-2.5-1.3-2.8
				c0.1,0.2,0.1,0.4,0.2,0.6c2.2-2,2-4.6-0.3-6.4c-0.1,0.2-0.1,0.4-0.2,0.6c1.1-0.4,2.1-1,2.1-2.3c-0.1,0.1-0.2,0.2-0.3,0.4
				c2.4-0.8,0.8-3-0.3-4.2c-2.3-2.3-5.5-3.3-8.6-4.2c0.1,0.2,0.1,0.4,0.2,0.6c0.9-1,0.8-1.8-0.2-2.5c-0.1,0.2-0.1,0.5-0.2,0.7
				c3.7-0.5,1.6-4.8-0.3-6.3c0,0.2-0.1,0.5-0.1,0.7c1-0.4,1.7-1,1.8-2.2c-0.2,0.1-0.4,0.2-0.6,0.3c1.9,1.9,6.2,1.8,7.4-0.8
				c0.2-0.4-0.4-0.8-0.6-0.4c-1,2.2-4.7,2.2-6.2,0.7c-0.2-0.2-0.6,0-0.6,0.3c-0.1,0.8-0.6,1.2-1.2,1.5c-0.3,0.1-0.4,0.5-0.1,0.7
				c1.3,0.9,3.4,4.5,0.6,4.9c-0.4,0-0.5,0.5-0.2,0.7c0,0.5,0.1,0.9,0.1,1.4c-0.2,0.2-0.1,0.5,0.2,0.6c2.5,0.8,5.2,1.5,7.2,3.1
				c0.8,0.7,3.7,3.2,1.7,3.9c-0.2,0-0.3,0.2-0.3,0.4c0,1-0.8,1.3-1.5,1.6c-0.2,0.1-0.4,0.4-0.2,0.6c2,1.5,2.2,3.6,0.3,5.4
				c-0.2,0.2-0.1,0.6,0.2,0.6c0.9,0.2,1.3,0.9,0.8,1.7c-0.2,0.3,0.1,0.6,0.4,0.5c1-0.2,1.8-0.7,2.7-1.3c1.3-0.8,2.3-0.8,3.7-0.2
				c0.2,0.1,0.4,0,0.5-0.2c0.3-0.8,0.7-0.9,1.5-0.9c0.2,0,0.4-0.2,0.4-0.4c-0.2-1.8,1.2-2.3,2.5-3c1.1-0.6,1.9-1.4,2.1-2.6
				C92.7,78.3,92,78.1,91.9,78.5L91.9,78.5z"/>
		</g>
	</g>
</g>
<g>
	<g>
		<g>
			<path class="st22" d="M115.5,70.3c0.6,1,1.2,2.3,0.2,3.3c-0.2,0.2-0.1,0.6,0.2,0.6c0.9,0.1,1.6,1.7,0.5,2
				c-0.3,0.1-0.3,0.5-0.1,0.7c-0.1-0.1,0,0,0,0.1c0,0,0.1,0.1,0.2,0.2c0.2,0.3,0.4,0.6,0.6,0.8c0.6,0.8,1.2,1.6,1.9,2.4
				c0.7,0.8,1.4,1.6,2.3,2.3c0.7,0.5,1.4,1.1,2.3,1.1c0.9,0.1,1.6-0.6,2-1.4c0.2-0.4-0.4-0.8-0.6-0.4c-0.3,0.6-0.7,1.1-1.4,1
				c-0.8-0.1-1.5-0.7-2.1-1.2c-1.5-1.3-2.7-2.9-3.8-4.4c-0.3-0.4-0.6-1-1-1.2c0,0.2-0.1,0.5-0.1,0.7c1.9-0.5,1.2-3.2-0.5-3.4
				c0.1,0.2,0.1,0.4,0.2,0.6c1.3-1.2,0.7-2.9-0.1-4.2C115.9,69.6,115.3,69.9,115.5,70.3L115.5,70.3z"/>
		</g>
	</g>
	<g>
		<g>
			<path class="st22" d="M124.7,82c1.3,3.3,4.3,1.1,6.9,1.2c0.3,0,0.5-0.4,0.3-0.6c-0.3-0.4-0.6-0.8-0.9-1.2
				c-0.1,0.2-0.2,0.4-0.3,0.6c2.1-0.1,4.3-1.1,5-3.1c0.1-0.2-0.1-0.5-0.4-0.5c-0.5,0-0.8,0.2-0.7-0.2c0-0.1,0.4-0.4,0.4-0.5
				c0.4-0.4,0.8-0.6,1.2-1c0.9-0.9,1.3-2.2,1.2-3.5c0-0.4-0.5-0.5-0.7-0.2c-0.4,0.5-0.9,0.8-1.5,0.6c0.1,0.2,0.1,0.4,0.2,0.6
				c2-2.6,2.9-5.5,1.9-8.7c-0.1-0.3-0.5-0.4-0.7-0.1c-0.3,0.5-0.6,0.6-0.7-0.1c0-0.4-0.5-0.5-0.7-0.2c-0.3,0.4-0.5,0.7-0.8,1
				c0.2,0.1,0.4,0.1,0.6,0.2c-0.4-1.7,0.5-3.4,0.2-5.1c-0.1-0.3-0.4-0.3-0.6-0.2c-0.4,0.4-0.8,1-1,0.3c-0.1-0.4,0-1,0-1.4
				c0.1-0.8,0.2-1.7,0.1-2.5c0-0.2-0.3-0.3-0.5-0.3c-0.4,0.2-0.8,0.3-1.2,0.5c0.2,0.1,0.3,0.2,0.5,0.3c-0.3-1.1,0.3-3.1-1.3-3.3
				c-1.3-0.2-2.7,1.3-3.2,2.4c-0.2,0.4,0.4,0.8,0.6,0.4c0.2-0.4,0.4-0.7,0.7-1c0.5-0.5,1.1-1.1,1.8-0.7c0.8,0.5,0.3,1.7,0.6,2.5
				c0,0.2,0.3,0.3,0.5,0.3c0.4-0.2,0.8-0.3,1.2-0.5c-0.2-0.1-0.3-0.2-0.5-0.3c0.3,1.3-0.4,2.7-0.1,4.1c0.4,1.4,1.6,0.5,2.2-0.1
				c-0.2-0.1-0.4-0.1-0.6-0.2c0.3,1.7-0.5,3.4-0.2,5.1c0.1,0.3,0.4,0.4,0.6,0.2c0.4-0.4,0.7-0.7,1-1.1c-0.2-0.1-0.5-0.1-0.7-0.2
				c0.1,1.6,1.3,2.1,2,0.5c-0.2,0-0.5-0.1-0.7-0.1c0.9,2.9,0.1,5.6-1.7,7.9c-0.2,0.2-0.1,0.5,0.2,0.6c1.1,0.3,1.7,0,2.4-0.9
				c-0.2-0.1-0.5-0.1-0.7-0.2c0.1,1.2-0.3,2.3-1.2,3.2c-0.5,0.5-1.1,0.9-1.5,1.4c-0.7,1.1,0.4,1.4,1.3,1.4c-0.1-0.2-0.2-0.3-0.4-0.5
				c-0.7,1.7-2.6,2.5-4.3,2.6c-0.3,0-0.5,0.4-0.3,0.6c0.3,0.4,0.6,0.8,0.9,1.2c0.1-0.2,0.2-0.4,0.3-0.6c-2-0.1-5.1,2-6.1-0.6
				C125.3,81.4,124.5,81.6,124.7,82L124.7,82z"/>
		</g>
	</g>
	<g>
		<g>
			<path class="st22" d="M128.4,56.8c-0.4-0.6-0.7-1.2-0.9-1.9c0-0.3-0.5-0.4-0.6-0.2c-1.1,1.4-2.2,2.9-2.7,4.7
				c0.2-0.1,0.4-0.1,0.5-0.2c-0.6-0.4-1-0.9-1.2-1.6c-0.1-0.3-0.4-0.4-0.6-0.2c-0.6,0.7-0.9,1.7-1.2,2.5c-0.1,0.3-0.3,1-0.7,1.2
				c-0.4,0.2-0.6-0.4-0.7-0.7c-0.1-0.2-0.3-0.2-0.5-0.1c-0.4,0.2-1.3,0.6-1.4,1.1c-0.1,0.4,0,1,0,1.4c0,0.6,0,1.2-0.1,1.8
				c-0.2,0.7-0.3,0.6-0.8,0c-0.2-0.3-0.6,0-0.6,0.3c-0.1,1,0.6,5.1-1.2,4.8c-0.5-0.1-0.7,0.6-0.2,0.7c2.8,0.5,2-3.9,2.1-5.5
				c-0.2,0.1-0.4,0.2-0.6,0.3c0.7,0.9,1.7,0.9,2-0.3c0.3-1.1,0.2-2.3,0.2-3.4c-0.1,0.1-0.1,0.2-0.2,0.3c0.4-0.3,0.8-0.5,1.2-0.8
				c-0.2,0-0.3-0.1-0.5-0.1c0.5,1,1.3,1.7,2.1,0.5c0.7-1,0.8-2.5,1.6-3.3c-0.2-0.1-0.4-0.1-0.6-0.2c0.2,0.9,0.8,1.5,1.5,2
				c0.2,0.1,0.5,0,0.5-0.2c0.4-1.7,1.4-3,2.5-4.4c-0.2-0.1-0.4-0.1-0.6-0.2c0.2,0.8,0.5,1.4,0.9,2.1C128,57.6,128.7,57.2,128.4,56.8
				L128.4,56.8z"/>
		</g>
	</g>
</g>
<g>
	<g>
		<g>
			<path class="st22" d="M16.1,85.6c0.1,0.9,0.2,1.8,0.6,2.7c0.1,0.2,0.4,0.3,0.6,0.1c1.7-2,3.4-4.9,5.8-6.1
				c1.3-0.6,3.4-0.5,3.2-2.5c-0.2,0-0.5,0.1-0.7,0.1c1,3.6,9.7-2.8,11.5-3.2c0.3-0.1,0.4-0.6,0-0.7c-0.9-0.2-1.1-0.8-0.8-1.5
				c0.1-0.2-0.1-0.5-0.4-0.5c-0.8,0.1-2,0.3-2.6-0.4c-0.4-0.5-0.3-1.3-0.1-1.9c0.4-1.4,1.4-2.7,2.5-3.6c0.3-0.3,0-0.7-0.4-0.6
				c-1,0.2-1.2-0.6-1.2-1.3c0-0.2-0.2-0.3-0.4-0.4c-2.2-0.2-0.7-3-0.2-4.2c0.1-0.2-0.1-0.4-0.3-0.5c-1-0.4-1-1.2-0.8-2
				c0.1-0.3-0.3-0.6-0.6-0.4c-1.1,1.1-2.5,3.4-4,1.5c-0.1-0.2-0.5-0.1-0.6,0.1c-0.6,1.4-1.7,4-3.7,3.1c-1.6-0.7-1.7-2.8-1.4-4.2
				c0.1-0.5-0.6-0.7-0.7-0.2c-0.4,1.8-0.1,4.3,1.8,5.1c2.4,1,3.8-1.6,4.6-3.4c-0.2,0-0.4,0-0.6,0.1c1.9,2.3,3.6,0,5.1-1.5
				c-0.2-0.1-0.4-0.2-0.6-0.4c-0.3,1.3,0,2.4,1.3,2.9c-0.1-0.2-0.2-0.3-0.3-0.5c-0.6,1.8-2,4.8,1,5.1c-0.1-0.1-0.2-0.2-0.4-0.4
				c-0.1,1.4,0.7,2.3,2.1,2c-0.1-0.2-0.2-0.4-0.4-0.6c-1.4,1.1-2.7,2.9-2.9,4.8c-0.2,2.2,1.8,2.6,3.6,2.4c-0.1-0.2-0.2-0.3-0.4-0.5
				c-0.5,1.2,0.1,2.2,1.3,2.4c0-0.2,0-0.5,0-0.7c-1.4,0.3-10,5.9-10.6,3.7c-0.1-0.4-0.8-0.3-0.7,0.1c0.1,1.2-1.1,1.3-2,1.6
				c-0.8,0.2-1.5,0.7-2.2,1.2c-1.8,1.5-3.1,3.5-4.6,5.2c0.2,0,0.4,0,0.6,0.1c-0.4-0.8-0.4-1.6-0.6-2.5C16.7,84.9,16,85.1,16.1,85.6
				L16.1,85.6z"/>
		</g>
	</g>
	<g>
		<g>
			<path class="st22" d="M21.7,58.4c-0.9,0-1.4-0.9-1.7-1.6c-0.4-0.8-0.6-1.8-0.9-2.6c-0.1-0.3-0.6-0.4-0.7,0
				c-0.1,0.3-0.2,0.8-0.5,1c-0.3,0.2-0.7,0-1-0.2c-0.2-0.2-0.6-0.1-0.6,0.3c-0.1,1.3-0.1,2.7-0.7,3.9c-0.6,1.1-1.6,1.9-2.7,2.6
				c-0.2,0.1-0.3,0.4-0.1,0.6c0.5,0.5,1.1,1.4,0.6,2.2c-0.5,0.8-1.3-0.8-1.4-1.2c-0.2-0.4-0.9-0.2-0.7,0.2c0.3,0.9,1.4,2.8,2.6,1.6
				c0.9-1,0.3-2.5-0.6-3.3c0,0.2,0,0.4-0.1,0.6c1.2-0.7,2.3-1.6,3-2.9c0.7-1.3,0.8-2.8,0.8-4.3c-0.2,0.1-0.4,0.2-0.6,0.3
				c0.5,0.4,1.1,0.7,1.7,0.4c0.6-0.3,0.9-0.9,1-1.5c-0.2,0-0.5,0-0.7,0c0.6,1.7,1.1,4.7,3.4,4.8C22.2,59.1,22.2,58.4,21.7,58.4
				L21.7,58.4z"/>
		</g>
	</g>
	<g>
		<g>
			<path class="st22" d="M10.9,62.9c-0.3,1-1,1.8-2.1,1.6c-0.3-0.1-0.5,0.2-0.5,0.5c0.2,0.5,0.4,1.5-0.5,1.2
				c-0.7-0.2-1.3-0.8-1.6-1.5c-0.2-0.3-0.6-0.2-0.7,0.1c-0.3,0.7-0.8,1-1.5,0.8c-0.4-0.1-0.6,0.5-0.3,0.7c0.6,0.4,0.9,1,0.7,1.7
				c-0.1,0.2,0.1,0.5,0.4,0.5c0.6-0.1,1.1,0.1,1.1,0.8c0,0.6-0.3,1.1-0.8,1.5c-0.2,0.1-0.1,0.4,0,0.5c0.6,0.8,0.9,1.8,0.5,2.8
				c-0.1,0.4,0.4,0.6,0.6,0.4C6.6,74.1,6.8,74,7,73.8c0.4-0.3-0.2-0.8-0.5-0.5c-0.2,0.2-0.4,0.3-0.6,0.5c0.2,0.1,0.4,0.2,0.6,0.4
				c0.5-1.2,0.1-2.5-0.7-3.5c0,0.2,0,0.3,0,0.5c0.7-0.5,1.1-1.4,1-2.3c-0.1-0.9-1-1.3-1.8-1.2c0.1,0.2,0.2,0.3,0.4,0.5
				c0.3-1.1-0.2-2-1.1-2.5C4.1,65.8,4,66,3.9,66.2c1.1,0.3,2-0.3,2.4-1.3c-0.2,0-0.5,0.1-0.7,0.1c0.4,0.9,1.4,1.8,2.4,1.9
				c1.3,0.1,1.2-1.3,1-2.2c-0.2,0.2-0.3,0.3-0.5,0.5c1.5,0.3,2.6-0.7,3-2.1C11.8,62.6,11.1,62.4,10.9,62.9L10.9,62.9z"/>
		</g>
	</g>
	<g>
		<g>
			<path class="st22" d="M6.6,74.4c1.9-0.3,4.1-0.4,5.4,1.1c0.5,0.6,0.8,1.3,0.8,2.1c-0.1,1-0.9,1.6-1.7,2c-0.2,0.1-0.4,0.4-0.2,0.6
				c0.9,0.7,0.3,1.8-0.3,2.5c-0.2,0.3,0,0.7,0.4,0.6c0.5-0.1,1.4-0.2,1.4,0.6c0,0.7-0.8,1.1-1.4,1.2c-0.3,0-0.3,0.4-0.2,0.6
				c0.5,0.5,0.6,1.2,0.4,1.9c-0.1,0.3,0.4,0.6,0.6,0.4c1.1-1.2,2.9-1.8,4.5-2.2c0.5-0.1,0.3-0.8-0.2-0.7c-1.7,0.4-3.6,1-4.8,2.4
				c0.2,0.1,0.4,0.2,0.6,0.4c0.3-0.9,0.1-1.9-0.5-2.6c-0.1,0.2-0.1,0.4-0.2,0.6c1-0.2,2-0.9,1.9-2.1c-0.1-1.2-1.4-1.3-2.3-1.1
				c0.1,0.2,0.2,0.4,0.4,0.6c0.8-1,1.5-2.6,0.3-3.5c-0.1,0.2-0.1,0.4-0.2,0.6c1-0.4,1.9-1.1,2.2-2.2c0.2-0.9,0-1.9-0.6-2.7
				c-1.5-2.1-4.2-2.1-6.5-1.7C5.9,73.7,6.1,74.4,6.6,74.4L6.6,74.4z"/>
		</g>
	</g>
</g>
<g>
	<g>
		<path class="st23" d="M64.7,48.5c-1.8-3.1-5.4-4.7-8.9-4.7c-2.3,0-4.8,0.2-7.1,0.7c-1.9,0.4-3.6,1.3-4.9,2.7
			c-2.4,2.5-3.1,6.1-3.1,9.5c-0.1,4.1,0.6,8.2,0.4,12.3c-0.1,2.7-0.6,5.4-0.1,8c0.4,2.2,1.5,4.1,3,5.8c0.3,0.3,0.8-0.2,0.5-0.5
			c-1.3-1.4-2.3-3.1-2.7-5.1c-0.5-2.2-0.2-4.4,0-6.6c0.3-3.7-0.1-7.4-0.2-11.1c-0.2-3.2-0.1-6.6,1.3-9.5c0.8-1.6,2.1-3,3.6-3.9
			c2-1.1,4.3-1.1,6.5-1.4c4.2-0.4,8.9,0,11.2,4.1C64.3,49.3,65,48.9,64.7,48.5L64.7,48.5z"/>
	</g>
</g>
<g>
	<g>
		<path class="st23" d="M46.5,84.4c2.2,1.3,4.9,1.4,7.4,1.2c1.3-0.1,2.5-0.3,3.8-0.5c1.4-0.2,2.9-0.4,4.1-1.1c0.4-0.2,0-0.9-0.4-0.6
			c-1.1,0.7-2.5,0.8-3.8,1c-1.2,0.2-2.4,0.4-3.6,0.5c-2.3,0.2-5,0.2-7-1C46.4,83.5,46,84.1,46.5,84.4L46.5,84.4z"/>
	</g>
</g>
<g>
	<g>
		<path class="st23" d="M49.5,45.1c0.5,0,0.5-0.7,0-0.7C49,44.4,49,45.1,49.5,45.1L49.5,45.1z"/>
	</g>
</g>
<g>
	<g>
		<path class="st23" d="M41.5,51.6c-1.3-0.1-2.4-1.2-2.1-2.5c0.2-1.2,1.4-2.1,2.6-2.2c0.7,0,1.5,0,2,0.5c0.1,0.2,0.4,0.1,0.5,0
			c0.2-0.2,0.1-0.4,0-0.5c-0.5-0.7-1.4-0.7-2.2-0.7c-0.8,0-1.6,0.3-2.2,0.7c-1.3,1-1.9,2.8-0.9,4.2c0.6,0.8,1.4,1.2,2.4,1.3
			C42,52.4,42,51.7,41.5,51.6L41.5,51.6z"/>
	</g>
</g>
<g>
	<g>
		<path class="st23" d="M62.9,46.9c0.5-0.3,1.1-0.5,1.7-0.5c0.6-0.1,1.3-0.1,1.8,0.2c1,0.6,1.3,2.1,0.9,3.1
			c-0.3,0.7-0.9,1.3-1.7,1.4c-0.2,0-0.3,0.3-0.3,0.5c0.1,0.2,0.3,0.3,0.5,0.3c0.8-0.1,1.6-0.7,2-1.5c0.4-0.7,0.4-1.4,0.3-2.2
			c-0.1-0.7-0.5-1.5-1-1.9c-0.6-0.5-1.4-0.7-2.2-0.6c-0.9,0-1.7,0.3-2.5,0.7C62.1,46.4,62.5,47.1,62.9,46.9L62.9,46.9z"/>
	</g>
</g>
<g>
	<g>
		<path class="st23" d="M52,54.2C52.1,54.2,52.1,54.2,52,54.2c0-0.1,0-0.2,0-0.4c-0.1,0-0.3,0.1-0.4,0.1c-0.2,0.1-0.4,0.3-0.6,0.4
			c-0.3,0.3-0.7,0.6-0.9,1c-0.4,1.1,1,1.6,1.8,1.5c0.6-0.1,1.2-0.3,1.8-0.4c0.5-0.1,1,0.1,1.5,0.3c0.4,0.1,0.9,0.2,1.2-0.1
			c0.4-0.3,0.5-0.8,0.5-1.2c-0.2-1-1.4-1.5-2.2-1.8c-0.2-0.1-0.3,0.3-0.1,0.4c0.7,0.2,1.5,0.6,1.9,1.2c0.2,0.4,0.1,0.9-0.2,1.1
			c-0.3,0.2-0.8,0.1-1.1,0c-0.4-0.1-0.7-0.2-1.1-0.2c-0.5,0-1,0.1-1.5,0.3c-0.5,0.1-1.1,0.3-1.6,0c-0.4-0.2-0.7-0.4-0.6-0.9
			c0.1-0.4,0.5-0.7,0.9-1c0.1-0.1,0.3-0.2,0.4-0.3c0.1,0,0.3,0,0.4-0.1c0.1-0.1,0.1-0.3,0-0.3c-0.1,0-0.2,0-0.2,0
			C51.7,53.9,51.8,54.3,52,54.2L52,54.2z"/>
	</g>
</g>
<g>
	<g>
		<path class="st23" d="M55,56.6c0.1,0.3,0.2,0.7,0.2,1.1c0,0.3,0,0.7-0.2,0.9c-0.2,0.2-0.5,0.3-0.8,0.2c-0.2-0.1-0.3-0.4-0.4-0.6
			c-0.1-0.2-0.4,0-0.3,0.2c0.1,0.2,0.2,0.5,0.4,0.6c0.2,0.2,0.6,0.2,0.8,0.2c0.3-0.1,0.6-0.3,0.7-0.6c0.1-0.3,0.2-0.7,0.2-1
			c0-0.4-0.1-0.8-0.2-1.1c0-0.1-0.1-0.2-0.2-0.1C55.1,56.4,55,56.6,55,56.6L55,56.6z"/>
	</g>
</g>
<g>
	<g>
		<path class="st23" d="M44.3,82.7c0.5-0.3,0.9-0.1,1.3,0.3c0.4,0.4,0.7,0.8,1.1,1.1c0-0.1,0.1-0.2,0.1-0.3
			c-0.6,0.1-1.1,0.4-1.6,0.8c-0.5,0.3-0.9,0.8-1.5,0.9c-0.5,0.1-1.1-0.2-1.3-0.7c-0.1-0.5,0.3-0.9,0.6-1.2c0.4-0.4,1-0.7,1.5-1
			c0.2-0.1,0-0.4-0.2-0.3c-0.5,0.3-1,0.6-1.5,0.9c-0.4,0.3-0.9,0.8-0.9,1.4c0,0.6,0.6,1.2,1.2,1.3c0.6,0.1,1.2-0.3,1.7-0.6
			c0.3-0.2,0.6-0.5,0.9-0.7c0.3-0.2,0.6-0.4,0.9-0.4c0.2,0,0.3-0.2,0.1-0.3c-0.5-0.3-0.8-0.8-1.2-1.2c-0.5-0.4-1-0.5-1.6-0.2
			C43.9,82.5,44,82.8,44.3,82.7L44.3,82.7z"/>
	</g>
</g>
<g>
	<g>
		<path class="st23" d="M43,85.4c-0.1-0.3,0-0.5,0.1-0.8c0.2-0.2,0.4-0.4,0.7-0.6c0.1,0,0.1-0.2,0.1-0.3c-0.1-0.1-0.2-0.1-0.3-0.1
			c-0.6,0.3-1.2,1-1,1.8c0,0.1,0.1,0.2,0.2,0.1C43,85.6,43,85.5,43,85.4L43,85.4z"/>
	</g>
</g>
<g>
	<g>
		<path class="st23" d="M63.8,85.3c-0.6-0.4-1-1-1.5-1.5c-0.1-0.1-0.2-0.2-0.3-0.3c-0.1-0.1-0.1-0.2,0-0.3c0.2-0.3,0.5-0.5,0.8-0.7
			c0.3-0.2,0.7-0.3,1.1-0.2c0.4,0.1,0.7,0.3,0.9,0.6c0.4,0.5,0.7,1.1,0.6,1.8c0,0.3-0.3,0.6-0.6,0.7C64.4,85.5,64,85.4,63.8,85.3
			c-0.2-0.1-0.4,0.2-0.2,0.3c0.6,0.3,1.6,0.4,2-0.3c0.4-0.7,0.1-1.6-0.4-2.3c-0.5-0.7-1.3-1.2-2.2-1c-0.4,0.1-0.8,0.4-1.2,0.7
			c-0.3,0.2-0.6,0.6-0.3,1c0.1,0.1,0.3,0.2,0.4,0.3c0.2,0.2,0.4,0.4,0.5,0.6c0.3,0.4,0.7,0.7,1.1,1C63.8,85.7,64,85.4,63.8,85.3z"/>
	</g>
</g>
<g>
	<g>
		<path class="st23" d="M64,83.9c0.4,0.4,0.8,1,0.8,1.6c0,0.2,0.4,0.2,0.4,0c0-0.7-0.4-1.4-0.9-1.9C64.1,83.5,63.8,83.7,64,83.9
			L64,83.9z"/>
	</g>
</g>
<g>
	<g>
		<path class="st23" d="M66.4,64.5c0.1,0.1,0.4,0.1,0.5,0.1c0.2,0,0.4,0,0.6,0c0.5,0.1,1,0.4,1.4,0.8c0.3,0.3,0.4,0.8,0.3,1.2
			c-0.1,0.4-0.6,0.4-1,0.3c-0.6-0.2-1-0.6-1.4-1c-0.2-0.2-0.4,0.1-0.3,0.3c0.4,0.4,0.9,0.8,1.4,1c0.5,0.2,1.1,0.2,1.4-0.2
			c0.3-0.4,0.3-1,0.1-1.4c-0.2-0.5-0.7-1-1.2-1.2c-0.3-0.1-0.6-0.2-1-0.2c-0.1,0-0.3,0-0.4,0c-0.1,0-0.1,0-0.2,0c0,0,0,0,0,0
			c0,0,0,0,0,0c0,0,0,0,0,0C66.3,64,66.2,64.4,66.4,64.5L66.4,64.5z"/>
	</g>
</g>
<g>
	<g>
		<path class="st23" d="M68,66.2C68,66.2,68,66.2,68,66.2c0.1,0,0.1,0,0.1,0c0,0,0,0,0,0c0.1,0,0.1,0.1,0.2,0.1c0,0,0.1,0,0.1,0.1
			c0,0,0,0,0,0c0,0,0,0,0,0c0,0,0,0,0,0c0,0,0.1,0.1,0.1,0.1c0,0,0,0,0,0c0,0,0,0,0,0c0,0,0,0,0,0.1c0,0,0,0,0,0c0,0,0,0,0,0
			c0,0,0,0.1,0,0.1c0,0,0,0,0,0c0,0,0,0,0,0c0,0,0,0,0,0c0,0,0,0,0,0c0,0,0,0.1,0,0.1c0,0,0,0,0,0c0,0,0,0,0,0c0,0.1,0,0.2,0.1,0.3
			c0.1,0,0.2,0,0.3-0.1c0.1-0.1,0.1-0.3,0.1-0.5c0-0.2-0.1-0.3-0.2-0.4c-0.2-0.2-0.5-0.4-0.8-0.5c-0.1,0-0.2,0-0.2,0.1
			C67.8,66,67.9,66.1,68,66.2L68,66.2z"/>
	</g>
</g>
<path class="st24" d="M62.4,50.1c0-2.2-1.7-3.9-3.9-3.9c-2.2,0-3.9,1.7-3.9,3.9c0,2.2,1.7,3.9,3.9,3.9C60.6,54,62.4,52.2,62.4,50.1z
	"/>
<path class="st24" d="M52.5,50.5c0-2.2-1.7-3.9-3.9-3.9c-2.2,0-3.9,1.7-3.9,3.9c0,2.2,1.7,3.9,3.9,3.9
	C50.8,54.4,52.5,52.6,52.5,50.5z"/>
<path class="st23" d="M65.9,48.5c0-0.5-0.4-0.8-0.8-0.8c-0.5,0-0.8,0.4-0.8,0.8c0,0.5,0.4,0.8,0.8,0.8C65.6,49.3,65.9,49,65.9,48.5z
	"/>
<path class="st23" d="M42.7,49.3c0-0.5-0.4-0.8-0.8-0.8c-0.5,0-0.8,0.4-0.8,0.8c0,0.5,0.4,0.8,0.8,0.8
	C42.4,50.1,42.7,49.7,42.7,49.3z"/>
<path class="st23" d="M55.3,53.7c0-0.5-0.8-1-1.7-1c-1,0-1.7,0.4-1.7,1c0,0.5,0.8,1,1.7,1C54.5,54.6,55.3,54.2,55.3,53.7z"/>
<path class="st23" d="M58.5,48.8c-0.7,0-1.3,0.6-1.3,1.3c0,0.7,0.6,1.3,1.3,1.3s1.3-0.6,1.3-1.3C59.7,49.4,59.2,48.8,58.5,48.8z
	 M59,50.9c-0.2,0-0.4-0.2-0.4-0.4c0-0.2,0.2-0.4,0.4-0.4c0.2,0,0.4,0.2,0.4,0.4C59.3,50.7,59.2,50.9,59,50.9z"/>
<path class="st23" d="M48.6,49.2c-0.7,0-1.3,0.6-1.3,1.3c0,0.7,0.6,1.3,1.3,1.3c0.7,0,1.3-0.6,1.3-1.3
	C49.9,49.8,49.3,49.2,48.6,49.2z M49.1,51.3c-0.2,0-0.4-0.2-0.4-0.4c0-0.2,0.2-0.4,0.4-0.4c0.2,0,0.4,0.2,0.4,0.4
	C49.5,51.1,49.3,51.3,49.1,51.3z"/>
<g>
	<g>
		<path class="st23" d="M53.5,56.4c0.1,0.2,0,0.5,0,0.7c0,0.3,0,0.5,0,0.8c0,0.3-0.1,0.9-0.5,1c-0.3,0.1-0.6,0-0.8-0.3
			c-0.2-0.3-0.2-0.6-0.2-0.9c0-0.3,0-0.7,0.1-1c0.1-0.2-0.3-0.3-0.4-0.1c-0.1,0.3-0.2,0.7-0.2,1.1c0,0.4,0,0.8,0.3,1.1
			c0.2,0.4,0.7,0.5,1.1,0.4c0.5-0.1,0.7-0.6,0.8-1c0.1-0.4,0.1-0.7,0.1-1.1c0-0.3,0-0.6,0-0.9C53.8,56.1,53.5,56.2,53.5,56.4
			L53.5,56.4z"/>
	</g>
</g>
<g>
	<g>
		<path class="st23" d="M41.5,64.6c-0.7-0.2-1.4,0.1-2,0.5c-0.4,0.3-1,0.7-1,1.3c0,0.3,0.2,0.6,0.5,0.7c0.2,0.1,0.4-0.2,0.2-0.3
			c-0.2-0.1-0.4-0.3-0.2-0.5c0.1-0.2,0.3-0.5,0.5-0.6c0.6-0.4,1.3-0.8,2.1-0.7C41.6,65,41.7,64.6,41.5,64.6L41.5,64.6z"/>
	</g>
</g>
<g>
	<g>
		<path class="st23" d="M39.5,66.2c-0.3,0.1-0.5,0.3-0.6,0.6c-0.1,0.3,0.1,0.6,0.3,0.7c0.3,0.1,0.6,0.1,0.9,0
			c0.3-0.1,0.6-0.3,0.8-0.5c0.2-0.2,0.5-0.4,0.7-0.7c0.1-0.1,0-0.2-0.1-0.3c-0.1-0.1-0.2,0-0.3,0.1c0,0.1-0.1,0.1-0.2,0.2
			c-0.1,0.1-0.2,0.2-0.3,0.3c-0.2,0.2-0.4,0.4-0.7,0.5c-0.1,0.1-0.2,0.1-0.3,0.1c0,0-0.1,0-0.1,0c0,0-0.1,0-0.1,0c0,0,0,0,0,0
			c0,0,0,0,0,0c-0.1,0-0.2-0.1-0.3-0.1c0,0,0,0,0,0c0,0,0-0.1,0,0c0,0,0-0.1,0,0c0,0,0,0,0,0c0,0,0,0,0,0c0-0.1,0.1-0.2,0.1-0.2
			c0.1-0.1,0.2-0.2,0.3-0.2c0.1,0,0.1-0.2,0.1-0.3C39.7,66.2,39.6,66.2,39.5,66.2L39.5,66.2z"/>
	</g>
</g>
<g>
	<g>
		<path class="st23" d="M63.9,48.5c3,4.5,1.9,10.6,2.1,15.6c0.1,3.1,0.4,6.1,0.4,9.2c0,1.7-0.1,3.4-0.6,5c-0.4,1.4-1.3,2.4-2,3.6
			c-0.2,0.4,0.4,0.8,0.6,0.4c0.6-1.1,1.5-2.1,1.9-3.3c0.5-1.4,0.7-3,0.7-4.5c0.1-3.5-0.2-6.9-0.3-10.4c-0.2-5.2,0.9-11.4-2.2-16
			C64.3,47.7,63.6,48.1,63.9,48.5L63.9,48.5z"/>
	</g>
</g>
<g>
	<g>
		<path class="st23" d="M61.5,83.7C61.6,83.7,61.6,83.7,61.5,83.7c0.1,0,0.1,0,0.1,0c0,0,0,0,0.1,0c0,0,0,0,0-0.1c0,0,0,0,0-0.1
			c0,0,0,0,0,0c0,0,0-0.1,0-0.1c0,0-0.1-0.1-0.1-0.1c0,0,0,0,0,0c0,0-0.1,0-0.1,0c0,0,0,0-0.1,0.1c0,0,0,0,0,0c0,0,0,0,0,0
			c0,0,0,0,0,0c0,0,0,0,0,0c0,0,0,0,0,0c0,0,0,0,0,0c0,0,0,0,0,0c0,0,0,0,0,0c0,0,0,0,0,0c0.1,0.1,0.1,0.2,0.2,0.2c0,0,0,0,0-0.1
			c-0.1,0-0.2,0.1-0.3,0.1C61.5,83.7,61.5,83.7,61.5,83.7C61.5,83.7,61.5,83.8,61.5,83.7C61.6,83.8,61.6,83.8,61.5,83.7
			c0.1,0,0.1,0,0.2,0c0,0,0,0,0.1,0c0,0,0.1-0.1,0.1-0.1c0,0,0-0.1-0.1-0.1c0,0,0,0-0.1-0.1c0,0-0.1-0.1-0.2,0c0,0-0.1,0-0.1,0
			c0,0,0,0.1,0,0.1c0,0,0,0,0,0.1c0,0,0,0.1,0,0.1c0,0,0,0,0,0.1C61.4,83.7,61.4,83.7,61.5,83.7C61.5,83.8,61.5,83.8,61.5,83.7
			C61.5,83.8,61.6,83.8,61.5,83.7C61.6,83.8,61.6,83.8,61.5,83.7c0.1,0,0.1,0,0.1,0c0,0,0,0,0,0c0,0,0,0,0,0c0,0,0,0,0-0.1
			C61.7,83.7,61.6,83.7,61.5,83.7C61.6,83.7,61.6,83.7,61.5,83.7c0.1,0,0.1,0,0.1,0c0,0,0,0,0.1,0c0,0,0,0,0-0.1c0,0,0,0,0-0.1
			c0,0,0,0,0,0c0,0,0-0.1,0-0.1c0,0-0.1-0.1-0.1-0.1c0,0,0,0-0.1,0c0,0,0,0-0.1,0c0,0,0,0-0.1,0c0,0,0,0,0,0.1c0,0,0,0,0,0.1
			c0,0,0,0,0,0c0,0,0,0.1,0,0.1C61.4,83.7,61.5,83.7,61.5,83.7L61.5,83.7z"/>
	</g>
</g>
<path class="st24" d="M101,64.2c-0.4-2.5-2.8-4.2-5.3-3.7c-2.5,0.4-4.2,2.8-3.7,5.3c0.4,2.5,2.8,4.2,5.3,3.7
	C99.7,69.1,101.4,66.7,101,64.2z"/>
<path class="st24" d="M90.3,66.7c-0.4-2.5-2.8-4.2-5.3-3.7c-2.5,0.4-4.2,2.8-3.7,5.3c0.4,2.5,2.8,4.2,5.3,3.7
	C89.1,71.6,90.8,69.2,90.3,66.7z"/>
<path class="st23" d="M96.2,63.5c-0.8,0.1-1.4,0.9-1.2,1.7c0.1,0.8,0.9,1.4,1.7,1.2c0.8-0.1,1.4-0.9,1.2-1.7
	C97.8,63.9,97,63.3,96.2,63.5z M97.2,65.8c-0.2,0-0.5-0.1-0.5-0.3c0-0.2,0.1-0.5,0.3-0.5c0.2,0,0.5,0.1,0.5,0.3
	C97.6,65.5,97.4,65.8,97.2,65.8z"/>
<path class="st23" d="M85.5,66c-0.8,0.1-1.4,0.9-1.2,1.7c0.1,0.8,0.9,1.4,1.7,1.2c0.8-0.1,1.4-0.9,1.2-1.7
	C87.1,66.4,86.3,65.9,85.5,66z M86.6,68.3c-0.2,0-0.5-0.1-0.5-0.3c0-0.2,0.1-0.5,0.3-0.5c0.2,0,0.5,0.1,0.5,0.3
	C86.9,68.1,86.8,68.3,86.6,68.3z"/>
<path class="st24" d="M30,67.5c-0.3-1.8-2-2.9-3.8-2.6c-1.8,0.3-2.9,2-2.6,3.8c0.3,1.8,2,2.9,3.8,2.6C29.1,71,30.3,69.3,30,67.5z"/>
<path class="st24" d="M22.5,69.3c-0.3-1.8-2-2.9-3.8-2.6c-1.8,0.3-2.9,2-2.6,3.8c0.3,1.8,2,2.9,3.8,2.6
	C21.7,72.8,22.9,71.1,22.5,69.3z"/>
<path class="st23" d="M26.6,67.1c-0.6,0.1-1,0.7-0.9,1.2c0.1,0.6,0.7,1,1.2,0.9c0.6-0.1,1-0.7,0.9-1.2C27.8,67.4,27.2,67,26.6,67.1z
	 M27.4,68.7c-0.2,0-0.3-0.1-0.3-0.2c0-0.2,0.1-0.3,0.2-0.3c0.2,0,0.3,0.1,0.3,0.2C27.6,68.5,27.5,68.7,27.4,68.7z"/>
<path class="st23" d="M19.2,68.8c-0.6,0.1-1,0.7-0.9,1.2c0.1,0.6,0.7,1,1.2,0.9c0.6-0.1,1-0.7,0.9-1.2
	C20.3,69.1,19.7,68.7,19.2,68.8z M19.9,70.5c-0.2,0-0.3-0.1-0.3-0.2c0-0.2,0.1-0.3,0.2-0.3c0.2,0,0.3,0.1,0.3,0.2
	C20.2,70.3,20.1,70.4,19.9,70.5z"/>
<path class="st24" d="M133.5,72.1c0.9-1.7,0.3-3.8-1.3-4.7c-1.7-0.9-3.7-0.2-4.6,1.4c-0.9,1.7-0.3,3.8,1.3,4.7
	C130.5,74.4,132.6,73.8,133.5,72.1z"/>
<path class="st24" d="M126.2,68.7c0.9-1.7,0.3-3.8-1.3-4.7c-1.7-0.9-3.7-0.2-4.6,1.4c-0.9,1.7-0.3,3.8,1.3,4.7
	C123.2,71,125.3,70.4,126.2,68.7z"/>
<path class="st23" d="M131.1,69.5c-0.5-0.3-1.2-0.1-1.5,0.5c-0.3,0.6-0.1,1.2,0.4,1.5c0.5,0.3,1.2,0.1,1.5-0.5
	C131.8,70.5,131.6,69.8,131.1,69.5z M130.6,71.3c-0.2-0.1-0.2-0.3-0.1-0.4c0.1-0.2,0.3-0.2,0.4-0.1c0.2,0.1,0.2,0.3,0.1,0.4
	C130.9,71.3,130.7,71.4,130.6,71.3z"/>
<path class="st23" d="M123.8,66.1c-0.5-0.3-1.2-0.1-1.5,0.5c-0.3,0.6-0.1,1.2,0.4,1.5c0.5,0.3,1.2,0.1,1.5-0.5
	C124.5,67,124.3,66.4,123.8,66.1z M123.3,67.9c-0.2-0.1-0.2-0.3-0.1-0.4c0.1-0.2,0.3-0.2,0.4-0.1c0.2,0.1,0.2,0.3,0.1,0.4
	C123.6,67.9,123.4,68,123.3,67.9z"/>
<g>
	<g>
		<path class="st23" d="M12.1,75.8c-0.9,1.3-2.1,2.3-3.1,3.5c-1,1.3-1.5,2.8-1.6,4.4c0.1,0,0.2,0,0.4,0c0-1,0.2-2,0.7-2.9
			c-0.1,0-0.2,0-0.3,0c0.3,0.9,0.4,1.9,0.6,2.9c0,0.2,0.4,0.1,0.4-0.1c-0.2-1-0.3-1.9-0.6-2.9c0-0.2-0.3-0.2-0.3,0
			c-0.6,0.9-0.8,2-0.8,3.1c0,0.2,0.4,0.2,0.4,0c0.1-1.7,0.6-3.2,1.7-4.4c1-1.1,2.1-2.1,2.9-3.3C12.5,75.8,12.2,75.6,12.1,75.8
			L12.1,75.8z"/>
	</g>
</g>
<g>
	<g>
		<path class="st23" d="M35.1,68.1c1.3-0.3,2.6-0.6,3.7-1.4c-0.1,0-0.2,0-0.3-0.1c0.4,0.5,0.5,1.2,0.2,1.8c-0.1,0.2,0.2,0.4,0.3,0.2
			c0.4-0.6,0.3-1.6-0.2-2.2c-0.1-0.1-0.2-0.1-0.3-0.1c-1.1,0.7-2.3,1-3.6,1.3C34.7,67.8,34.8,68.1,35.1,68.1L35.1,68.1z"/>
	</g>
</g>
<g>
	<g>
		<path class="st23" d="M38.1,67.3C38.1,67.3,38.1,67.3,38.1,67.3C38.1,67.3,38.1,67.4,38.1,67.3C38.1,67.4,38.1,67.4,38.1,67.3
			c0.1,0.1,0.1,0.1,0.1,0.1c0,0,0,0,0,0c0,0,0,0,0,0c0,0,0,0.1,0,0.1c0,0,0,0,0,0c0,0,0,0,0,0c0,0,0,0,0,0.1c0,0,0,0,0,0.1
			c0,0,0,0,0,0c0,0,0,0,0,0c0,0,0,0.1,0,0.1c0,0,0,0,0,0c0,0,0,0,0,0c0,0,0,0,0,0.1c0,0,0,0,0,0c0,0,0,0,0,0c0,0,0,0-0.1,0.1
			c-0.1,0.1-0.1,0.2,0,0.3c0.1,0.1,0.2,0.1,0.3,0c0.2-0.2,0.3-0.4,0.3-0.7c0-0.2-0.1-0.5-0.3-0.7c-0.1-0.1-0.2-0.1-0.3,0
			C38,67.1,38,67.2,38.1,67.3L38.1,67.3z"/>
	</g>
</g>
<g>
	<g>
		<path class="st23" d="M13.9,71c1.5,2.6,4,4.3,7,4.5c2.8,0.3,5.6-0.7,7.8-2.4c0.2-0.1-0.1-0.4-0.3-0.3c-2.1,1.6-4.7,2.5-7.4,2.3
			c-2.9-0.2-5.4-1.9-6.8-4.4C14.1,70.6,13.7,70.8,13.9,71L13.9,71z"/>
	</g>
</g>
<g>
	<g>
		<path class="st23" d="M90.7,71.3c0.2,0.6,0.6,1.1,1.2,1.2c0.5,0.1,1-0.2,1.4-0.7c0.2-0.3,0.3-0.7,0.3-1c0-0.2-0.3-0.2-0.4,0
			c0,0.5-0.3,0.9-0.7,1.2c-0.3,0.2-0.7,0.2-1.1-0.1c-0.2-0.2-0.4-0.4-0.5-0.7C91,71,90.6,71.1,90.7,71.3L90.7,71.3z"/>
	</g>
</g>
<g>
	<g>
		<path class="st23" d="M123.4,74.2c2.7,3.4,8.1,2.3,11-0.3c-0.1,0-0.2-0.1-0.3-0.1c0.2,0.7,0.2,1.4-0.4,1.9
			c-0.2,0.2,0.1,0.4,0.3,0.3c0.7-0.6,0.8-1.5,0.5-2.3c0-0.1-0.2-0.2-0.3-0.1c-2.7,2.5-7.9,3.5-10.5,0.3
			C123.5,73.8,123.3,74.1,123.4,74.2L123.4,74.2z"/>
	</g>
</g>
<g>
	<g>
		<path class="st23" d="M70.5,67.4c-0.2-0.5-0.5-1.2-1.2-1.1c-0.5,0.1-0.9,0.6-1.1,1c-0.2,0.3-0.3,0.6-0.4,0.9
			c-0.1,0.2,0.3,0.3,0.4,0.1c0.1-0.4,0.3-0.9,0.6-1.3c0.1-0.1,0.1-0.2,0.2-0.2c0,0,0.1,0,0.1-0.1c0,0,0,0,0.1,0c0,0,0,0,0,0
			c0,0,0.1,0,0.1,0c0,0,0,0,0,0c0,0,0,0,0.1,0c0,0,0,0,0,0c0,0,0,0,0,0c0,0,0,0,0.1,0c0,0,0,0,0,0c0,0,0,0,0,0c0,0,0.1,0,0.1,0
			c0.2,0.2,0.4,0.5,0.5,0.8C70.3,67.7,70.6,67.6,70.5,67.4L70.5,67.4z"/>
	</g>
</g>
<g>
	<g>
		<path class="st23" d="M68.4,67c0,0-0.1,0.1-0.1,0.1c0,0,0,0,0,0c0,0,0,0,0,0c0,0,0,0-0.1,0c-0.1,0.1-0.2,0.1-0.3,0.2
			c-0.1,0-0.2,0.1-0.3,0.1c-0.1,0-0.2,0.1-0.3,0.1c-0.1,0-0.2,0.1-0.1,0.2c0,0.1,0.1,0.2,0.2,0.1c0.5-0.2,0.9-0.3,1.3-0.7
			c0.1-0.1,0.1-0.2,0-0.3C68.6,67,68.5,67,68.4,67L68.4,67z"/>
	</g>
</g>
<g>
	<g>
		<path class="st23" d="M104.5,69.6c0.6,0.6,1.6,0.6,2.4,0.6c0.5,0,1,0,1.5,0c0.4,0,0.8,0,1.2,0.3c0.2,0.1,0.4-0.2,0.2-0.3
			c-0.7-0.5-1.7-0.3-2.5-0.3c-0.5,0-1,0-1.4,0c-0.4,0-0.8-0.1-1-0.4C104.6,69.1,104.4,69.4,104.5,69.6L104.5,69.6z"/>
	</g>
</g>
<g>
	<g>
		<path class="st23" d="M115.5,70.2c-0.4,0.1-0.8,0.1-1.2,0c-0.5-0.1-1-0.2-1.5-0.2c-1-0.1-2,0-2.6,0.9c-0.1,0.2,0.2,0.4,0.3,0.2
			c0.6-0.8,1.7-0.8,2.6-0.6c0.5,0.1,0.9,0.1,1.4,0.2c0.4,0,0.8,0.1,1.1-0.1C115.8,70.4,115.7,70.1,115.5,70.2L115.5,70.2z"/>
	</g>
</g>
<g>
	<g>
		<path class="st23" d="M110.1,71.2c0-0.1,0-0.1-0.1-0.2c0,0,0-0.1,0-0.1c0,0,0,0,0,0c0,0,0,0,0-0.1c0-0.1,0-0.1,0-0.2
			c0,0,0-0.1,0-0.1c0,0,0,0,0,0c0,0,0,0,0,0c0,0,0,0,0,0c0,0,0-0.1,0-0.1c0,0,0,0,0-0.1c0,0,0,0,0,0c0,0,0,0,0,0c0,0,0-0.1,0.1-0.1
			c0,0,0,0,0,0c0,0,0,0,0,0c0,0,0,0,0,0c0,0,0,0,0,0c0,0,0,0,0,0c0,0,0,0,0,0c0,0,0,0,0,0c0,0,0,0,0,0c0,0,0,0,0,0c0,0,0,0,0,0
			c0,0,0,0,0,0c0,0,0,0,0,0c0,0,0,0,0,0c0,0,0,0,0,0c0,0,0,0,0,0c0,0,0,0,0,0c0,0,0,0,0,0c0,0,0,0,0,0c0,0,0,0,0,0c0,0,0,0,0,0
			c0,0,0,0,0,0c0,0,0,0.1,0,0.1c0,0,0,0,0,0c0,0,0,0,0,0c0,0,0,0,0,0.1c0,0,0,0,0,0.1c0,0,0,0,0,0c0,0,0,0,0,0c0,0,0,0,0,0
			c0,0.1,0,0.1,0,0.2c0,0,0,0.1,0,0.1c0,0,0,0,0,0c0,0,0,0,0,0c0,0,0,0,0,0c0.1,0,0.1-0.1,0.2-0.1c0,0,0,0,0,0c0,0,0,0,0,0
			c0,0,0,0,0,0c0,0,0,0,0,0c0,0,0,0,0,0c0,0,0,0,0,0c0,0,0,0,0,0c0,0,0,0,0,0c0,0,0,0,0,0c0,0,0,0,0-0.1c0,0,0-0.1,0,0c0,0,0,0,0,0
			c0,0,0,0,0,0c0,0,0,0,0,0c0,0,0,0,0,0c0,0,0,0,0,0c0,0,0,0,0,0c0,0,0,0,0,0c0,0,0,0,0,0c0,0,0,0,0,0c0,0,0,0,0.1,0
			c0,0,0.1,0,0.1,0c0.1,0,0.2-0.1,0.3-0.2c0.1-0.1,0.1-0.2,0-0.3c-0.1-0.1-0.2-0.1-0.3,0c0,0,0,0,0,0c0,0,0,0,0,0c0,0,0,0,0,0
			c0,0,0,0,0,0c0,0-0.1,0-0.2,0c-0.1,0-0.2,0.1-0.3,0.2c-0.1,0.1-0.1,0.1-0.1,0.2c-0.1,0.1-0.1,0.2-0.1,0.4c0,0.2,0.3,0.4,0.5,0.4
			c0.1,0,0.1,0,0.2-0.1c0.1-0.2,0.2-0.5,0.2-0.7c0-0.2-0.1-0.4-0.2-0.5c-0.1-0.1-0.3-0.1-0.5,0c-0.2,0.1-0.3,0.3-0.3,0.5
			c-0.1,0.3,0,0.7,0.1,1c0,0.1,0.1,0.2,0.2,0.1C110.1,71.4,110.1,71.3,110.1,71.2L110.1,71.2z"/>
	</g>
</g>
<g>
	<g>
		<path class="st23" d="M92.2,79.7c0.3,1.7,0.6,3.4,1.1,5.1c0.1-0.1,0.1-0.2,0.2-0.2c-1.4,0.2-3.1,0.5-3.7,1.9c0,0.1,0,0.2,0.1,0.2
			c0.6,0.3,1.2,0.2,1.7-0.2c0.4-0.3,0.7-0.9,0.5-1.4c-0.1-0.2-0.4-0.1-0.4,0.1c0.1,0.4-0.1,0.7-0.3,1c-0.4,0.3-0.9,0.4-1.4,0.2
			c0,0.1,0.1,0.1,0.1,0.2c0.5-1.3,2.1-1.5,3.3-1.7c0.1,0,0.2-0.1,0.2-0.2c-0.5-1.7-0.8-3.4-1.1-5.1C92.6,79.4,92.2,79.5,92.2,79.7
			L92.2,79.7z"/>
	</g>
</g>
<g>
	<g>
		<path class="st23" d="M125.2,81.9c-0.6,1.5-0.2,3.3-1.2,4.6c0.1,0,0.2,0,0.3-0.1c-0.5-0.3-1.1-0.4-1.6-0.1
			c-0.5,0.2-0.5,0.7-0.2,1.1c0.9,1,2.6,0.5,3.5-0.2c0.1-0.1,0.1-0.3,0-0.3c-0.6-0.2-1-0.7-1.5-0.9c-0.2-0.1-0.3,0.3-0.1,0.4
			c0.6,0.2,1,0.7,1.5,0.9c0-0.1,0-0.2,0-0.3c-0.4,0.3-0.8,0.5-1.3,0.6c-0.5,0.1-1,0.2-1.4,0c-0.3-0.2-0.7-0.6-0.2-0.8
			c0.4-0.2,0.9-0.1,1.3,0.1c0.1,0.1,0.2,0,0.3-0.1c1-1.4,0.6-3.2,1.2-4.7C125.6,81.8,125.2,81.7,125.2,81.9L125.2,81.9z"/>
	</g>
</g>
<g>
	<g>
		<path class="st23" d="M25.5,80.1c1,1,1.7,2.3,2.2,3.6c0.5,1.2,0.9,2.8,0.3,4.1c-0.1,0.1,0,0.3,0.2,0.3c1.6-0.4,3.3-0.6,4.9-0.6
			c0.1,0,0.2-0.1,0.2-0.2c-0.2-2-2.7-1.4-4.1-1.4c0.1,0,0.1,0.1,0.2,0.1c-0.6-1.9-1.5-3.7-2.4-5.5c-0.1-0.2-0.4,0-0.3,0.2
			c0.9,1.7,1.8,3.5,2.4,5.4c0,0.1,0.1,0.1,0.2,0.1c1.1,0,3.6-0.6,3.7,1c0.1-0.1,0.1-0.1,0.2-0.2c-1.7,0-3.4,0.2-5,0.6
			c0.1,0.1,0.1,0.2,0.2,0.3c0.6-1.3,0.3-2.9-0.2-4.2c-0.5-1.4-1.3-2.8-2.4-3.8C25.6,79.7,25.4,80,25.5,80.1L25.5,80.1z"/>
	</g>
</g>
<g>
	<g>
		<path class="st23" d="M12.5,75.6c2.5,1,4.7,2.8,7.3,3.6c2,0.6,4.6-0.4,6.2,1.2c0.2,0.2,0.4-0.1,0.3-0.3c-1.6-1.7-4-0.7-6-1.2
			c-2.8-0.7-5-2.6-7.6-3.7C12.3,75.2,12.3,75.6,12.5,75.6L12.5,75.6z"/>
	</g>
</g>
<g>
	<g>
		<path class="st23" d="M25.8,80.3c2.6-2.9,7.1-2.8,9.7-5.7c0.2-0.2-0.1-0.4-0.3-0.3c-2.5,2.9-7,2.9-9.7,5.7
			C25.4,80.2,25.6,80.5,25.8,80.3L25.8,80.3z"/>
	</g>
</g>
<g>
	<g>
		<path class="st23" d="M79,73.5c0.5,0.6,1.3,0.9,2.1,1c1.1,0.3,2.2,0.4,3.3,0.5c2.3,0.3,5,0.3,7,1.5c1,0.6,1.6,1.5,1.4,2.6
			c0,0.2,0.3,0.3,0.4,0.1c0.3-2.2-1.5-3.2-3.3-3.7c-2.5-0.7-5.1-0.7-7.7-1.2c-1-0.2-2.2-0.4-2.9-1.2C79.1,73,78.8,73.3,79,73.5
			L79,73.5z"/>
	</g>
</g>
<g>
	<g>
		<path class="st23" d="M93.2,78.6c2.2,1.2,5.1-0.6,7.2-1.4c1.7-0.7,3.3-0.8,5.1-0.6c1.8,0.2,3.5,0.4,5.3,0c0.2-0.1,0.1-0.4-0.1-0.4
			c-1.7,0.5-3.4,0.2-5.2,0c-1.6-0.2-3.1-0.1-4.6,0.4c-1.2,0.4-2.3,1-3.5,1.4c-1.2,0.4-2.7,0.9-4,0.3C93.2,78.2,93,78.5,93.2,78.6
			L93.2,78.6z"/>
	</g>
</g>
<g>
	<g>
		<path class="st23" d="M125.1,82c-0.2-0.1-0.3-0.6-0.3-0.8c-0.1-0.5-0.2-0.9-0.4-1.4c-0.2-0.8-0.5-1.5-1.2-2c-1.3-1-3.1-1.8-4.7-2
			c-0.8-0.1-1.6,0.1-2,0.8c-0.1,0.2,0.2,0.4,0.3,0.2c0.8-1.4,3.2-0.3,4.3,0.2c0.7,0.3,1.3,0.7,2,1.1c0.7,0.5,0.9,1.4,1.1,2.1
			c0.1,0.4,0.2,0.9,0.3,1.3c0.1,0.2,0.2,0.5,0.4,0.6C125.2,82.4,125.3,82,125.1,82L125.1,82z"/>
	</g>
</g>
<g>
	<g>
		<path class="st23" d="M125.5,82.1c0.1-1,1.4-1,2.1-1c1,0.1,1.9,0.3,2.9,0.5c0.2,0.1,0.3-0.3,0.1-0.4c-1.1-0.2-2.2-0.5-3.3-0.6
			c-1,0-2.1,0.2-2.2,1.3C125.1,82.3,125.5,82.3,125.5,82.1L125.5,82.1z"/>
	</g>
</g>
<g>
	<g>
		<path class="st23" d="M12.9,65.4c0.7,0.5,1.8,0,2.4-0.3c0.9-0.4,1.9-1,2.5-1.9c0.8-1.1,0.1-2.7,0-3.9c-0.2-1.7,1-3.1,0.9-4.8
			c0-0.2-0.4-0.2-0.4,0c0.1,1.4-0.8,2.7-0.9,4.1c0,0.6,0.1,1.3,0.2,1.9c0.1,0.7,0.4,1.6,0.1,2.2c-0.4,0.8-1.4,1.4-2.1,1.8
			c-0.6,0.3-1.8,0.9-2.5,0.5C12.9,64.9,12.7,65.2,12.9,65.4L12.9,65.4z"/>
	</g>
</g>
<g>
	<g>
		<path class="st23" d="M17.6,60.1c0.6,0.4,1.4,0.3,2,0.2c0.7-0.1,1.5-0.5,2-1c0.2-0.2-0.1-0.4-0.3-0.3c-0.5,0.5-1.1,0.8-1.8,0.9
			c-0.6,0.1-1.3,0.2-1.8-0.2C17.5,59.6,17.4,59.9,17.6,60.1L17.6,60.1z"/>
	</g>
</g>
<g>
	<g>
		<path class="st23" d="M87.1,45.9c0.3,1.7-0.1,3.4,0.1,5.1c0.1,0.5,0.3,0.9,0.5,1.3c0.2,0.4,0.6,1.1,0.4,1.6
			c-0.1,0.4-0.6,0.7-1,0.7c-0.4,0-0.8-0.1-1.1-0.2c-0.8-0.3-1.5-0.8-2.3-1.2c-0.6-0.3-1.4-0.6-2,0c-0.2,0.2,0.1,0.4,0.3,0.3
			c0.6-0.5,1.5,0,2,0.3c0.8,0.4,1.5,0.9,2.4,1.1c0.7,0.2,1.6,0,2-0.7c0.5-0.9-0.4-2-0.7-2.8c-0.3-0.8-0.2-1.9-0.2-2.7
			c0-1,0.1-1.9-0.1-2.8C87.4,45.6,87.1,45.7,87.1,45.9L87.1,45.9z"/>
	</g>
</g>
<g>
	<g>
		<path class="st23" d="M88.2,53.5c-0.2,0.8-0.2,1.7-0.2,2.6c0,1,0.1,2,0.4,2.9c0.3,0.7,0.8,1.1,1.6,1.1c1,0.1,2-0.3,3-0.6
			c0.9-0.3,1.9-0.7,2.8-1.3c0.2-0.1,0-0.4-0.2-0.3c-0.7,0.4-1.4,0.8-2.2,1c-0.9,0.4-1.9,0.7-2.8,0.8c-0.7,0.1-1.5,0-1.8-0.8
			c-0.4-0.8-0.4-1.8-0.4-2.7c0-0.9,0-1.8,0.2-2.7C88.6,53.4,88.2,53.3,88.2,53.5L88.2,53.5z"/>
	</g>
</g>
<g>
	<g>
		<path class="st23" d="M131,55.2c-0.2,1.5-0.6,3-1.2,4.3c-0.2,0.6-0.5,1.3-0.9,1.8c-0.5,0.6-1.4,0.3-1.9,0
			c-0.9-0.4-1.7-1.1-2.3-1.9c-0.1-0.2-0.5,0-0.3,0.2c0.5,0.7,1.3,1.4,2,1.8c0.7,0.4,1.6,0.8,2.4,0.4c0.6-0.3,0.9-1,1.1-1.6
			c0.4-0.9,0.7-1.7,0.9-2.6c0.2-0.8,0.4-1.6,0.5-2.5C131.4,55,131.1,55,131,55.2L131,55.2z"/>
	</g>
</g>
<g>
	<g>
		<path class="st23" d="M132.1,58c-0.2,0.4-0.5,0.7-0.9,0.9c-0.4,0.2-0.8,0.2-1.2,0.1c-0.2-0.1-0.3,0.3-0.1,0.4
			c0.5,0.2,1,0.1,1.4-0.1c0.5-0.2,0.8-0.6,1-1.1C132.6,58,132.2,57.8,132.1,58L132.1,58z"/>
	</g>
</g>
<g>
	<g>
		<path class="st23" d="M51.2,59.7c0.3,0.8,1,1.4,1.7,1.6c0.6,0.2,1.5,0.2,2-0.2c0.3-0.2,0.5-0.5,0.5-0.9c0-0.2-0.3-0.2-0.4,0
			c-0.1,0.7-1,0.9-1.6,0.8c-0.9-0.1-1.7-0.6-2-1.5C51.4,59.3,51.1,59.4,51.2,59.7L51.2,59.7z"/>
	</g>
</g>
<g>
	<g>
		<path class="st23" d="M52,44c-0.1-0.1-0.3-0.2-0.4-0.3c0-0.1,0-0.3,0-0.4c0.1-0.4,0.4-0.8,0.6-1.1c0.2-0.4,0.4-0.8,0.3-1.3
			c0-0.2-0.3-0.5-0.5-0.7c-0.2-0.2-0.4-0.4-0.7-0.5c-0.1-0.1-0.2,0-0.3,0.1C51,40.2,51,40.6,51.2,41c0.2,0.4,0.6,0.6,0.9,0.8
			c0.2,0.1,0.4-0.2,0.2-0.3c-0.3-0.2-0.6-0.4-0.8-0.6c-0.2-0.3-0.2-0.6-0.1-1c-0.1,0-0.2,0.1-0.3,0.1c0.3,0.2,0.5,0.4,0.7,0.6
			c0.1,0.1,0.2,0.2,0.3,0.4c0,0.1,0,0.2,0,0.3c-0.1,0.5-0.3,0.9-0.5,1.3c-0.2,0.3-0.4,0.7-0.4,1.1c0,0.4,0.2,0.7,0.6,0.8
			C52.1,44.5,52.2,44.1,52,44L52,44z"/>
	</g>
</g>
<g>
	<g>
		<path class="st23" d="M53.4,44.2c0.6-0.4,0.8-1.1,1.1-1.7c0.1-0.3,0.2-0.6,0.4-0.9c0-0.1,0.1-0.1,0.1-0.2c0,0,0,0,0-0.1
			c0,0,0.1-0.1,0-0.1c0,0,0.1-0.1,0.1-0.1c0,0,0,0,0,0c0,0,0,0,0,0c0,0,0,0,0,0c0,0,0,0,0,0c0,0,0.1,0,0,0c0,0,0.1,0,0.1,0
			c0,0,0,0,0,0c0,0,0,0,0,0c0,0,0,0,0,0c0.1,0.1,0.3,0.2,0.4,0.4c0-0.1,0-0.2,0-0.3c-0.1,0.1-0.3,0.2-0.4,0.2c-0.2,0-0.4,0-0.5,0
			c-0.2,0.1-0.1,0.4,0.1,0.4c0.2-0.1,0.3,0,0.5,0c0.2,0,0.4-0.1,0.6-0.3c0.1-0.1,0.1-0.2,0-0.3c-0.2-0.2-0.4-0.5-0.8-0.5
			c-0.3,0-0.5,0.2-0.6,0.4c-0.2,0.3-0.3,0.6-0.4,0.9c-0.1,0.3-0.3,0.7-0.4,1c-0.2,0.3-0.3,0.6-0.6,0.8C53,44,53.2,44.3,53.4,44.2
			L53.4,44.2z"/>
	</g>
</g>
<g>
	<path class="st23" d="M43.1,80.9c-4.6,0.3-8.9,0.6-12.7,1c-3.2,0.3-6.7,0.8-9.7,1.3c-0.1,0.1-0.1,0.2-0.2,0.2c0,0,0,0.1,0.1,0.1
		c2.6-0.5,6-1,9.9-1.4c3.9-0.4,8.2-0.7,12.8-1C43.2,81.1,43.2,81,43.1,80.9z"/>
	<path class="st23" d="M79.3,80.3L79.3,80.3c-2.5-0.1-5-0.1-7.4-0.1c-2.2,0-4.4,0-6.5,0c0,0.1-0.1,0.2-0.1,0.3c2.2,0,4.4,0,6.6,0
		c2.5,0,5,0,7.5,0C79.3,80.4,79.3,80.4,79.3,80.3z"/>
	<path class="st23" d="M102.3,81c0.2,0.1,0.5,0.2,0.7,0.3c3.7,0.2,7.1,0.5,10.3,0.8c3.5,0.4,6.6,0.8,9.1,1.2
		c0.1-0.1,0.2-0.2,0.3-0.3C117.6,82.3,110.5,81.6,102.3,81z"/>
	<path class="st23" d="M90.9,80.5c0,0,0,0.1,0,0.1c0,0.1-0.1,0.1-0.1,0.2c3.5,0.1,6.9,0.3,10.1,0.5c0.1-0.1,0.3-0.2,0.5-0.3
		C98,80.8,94.5,80.6,90.9,80.5z"/>
	<path class="st23" d="M124.7,83.6c0.1,0.1,0.1,0.2,0.2,0.4c3.5,0.8,5.4,1.6,5.4,2.4c0,1.5-6.4,3-17,4.1
		c-11.1,1.1-25.8,1.8-41.4,1.8s-30.3-0.6-41.4-1.8c-10.2-1.1-16.4-2.5-17-3.9c-0.1,0-0.2,0.1-0.3,0.1c1.6,3.7,30.6,5.9,58.6,5.9
		c15.6,0,30.4-0.6,41.4-1.8c7.9-0.8,17.3-2.3,17.3-4.4C130.6,85.3,128.4,84.4,124.7,83.6z"/>
</g>
</svg>
