<?xml version="1.0" encoding="utf-8"?>
<!-- Generator: Adobe Illustrator 24.0.1, SVG Export Plug-In . SVG Version: 6.00 Build 0)  -->
<svg version="1.1" id="Layer_1" xmlns="http://www.w3.org/2000/svg" xmlns:xlink="http://www.w3.org/1999/xlink" x="0px" y="0px"
	 viewBox="0 0 141.7 141.7" style="enable-background:new 0 0 141.7 141.7;" xml:space="preserve">
<style type="text/css">
	.st0{fill:#79AF69;}
	.st1{fill:#EB393A;}
	.st2{fill:#EE7AAB;}
	.st3{fill:#A5353A;}
	.st4{fill:#F6CD11;}
	.st5{fill:#630F10;}
	.st6{fill:#FFFFFF;}
	.st7{fill:#666766;}
	.st8{fill:#979797;}
	.st9{fill:#F6CB15;}
	.st10{fill:#C4C4C4;}
	.st11{fill:#E4E4E4;}
	.st12{fill:#C4A899;}
	.st13{fill:#8E5F4A;}
	.st14{fill:#76CCEA;}
	.st15{clip-path:url(#SVGID_2_);fill:#070707;}
	.st16{clip-path:url(#SVGID_4_);fill:#070707;}
	.st17{clip-path:url(#SVGID_6_);fill:#070707;}
	.st18{clip-path:url(#SVGID_8_);fill:#070707;}
	.st19{clip-path:url(#SVGID_10_);fill:#070707;}
	.st20{clip-path:url(#SVGID_12_);fill:#070707;}
	.st21{clip-path:url(#SVGID_14_);fill:#070707;}
	.st22{clip-path:url(#SVGID_16_);fill:#070707;}
	.st23{clip-path:url(#SVGID_18_);fill:#070707;}
	.st24{clip-path:url(#SVGID_20_);fill:#070707;}
	.st25{clip-path:url(#SVGID_22_);fill:#070707;}
	.st26{clip-path:url(#SVGID_24_);fill:none;stroke:#070707;stroke-width:0.3969;stroke-miterlimit:10;}
	.st27{clip-path:url(#SVGID_26_);fill:none;stroke:#070707;stroke-width:0.3969;stroke-miterlimit:10;}
	.st28{clip-path:url(#SVGID_28_);fill:#070707;}
	.st29{clip-path:url(#SVGID_30_);fill:#070707;}
	.st30{clip-path:url(#SVGID_32_);fill:#070707;}
	.st31{clip-path:url(#SVGID_34_);fill:#070707;}
	.st32{clip-path:url(#SVGID_36_);fill:#070707;}
	.st33{clip-path:url(#SVGID_38_);fill:#070707;}
	.st34{clip-path:url(#SVGID_40_);fill:#070707;}
	.st35{clip-path:url(#SVGID_42_);fill:#070707;}
	.st36{clip-path:url(#SVGID_44_);fill:#070707;}
	.st37{clip-path:url(#SVGID_46_);fill:#070707;}
	.st38{clip-path:url(#SVGID_48_);fill:#070707;}
	.st39{clip-path:url(#SVGID_50_);fill:#070707;}
	.st40{clip-path:url(#SVGID_52_);fill:#070707;}
	.st41{clip-path:url(#SVGID_54_);fill:#070707;}
	.st42{clip-path:url(#SVGID_56_);fill:#070707;}
	.st43{clip-path:url(#SVGID_58_);fill:#070707;}
	.st44{clip-path:url(#SVGID_60_);fill:#070707;}
	.st45{clip-path:url(#SVGID_62_);fill:#070707;}
	.st46{clip-path:url(#SVGID_64_);fill:#070707;}
	.st47{clip-path:url(#SVGID_66_);fill:#070707;}
	.st48{clip-path:url(#SVGID_68_);fill:#070707;}
	.st49{clip-path:url(#SVGID_70_);fill:#070707;}
	.st50{clip-path:url(#SVGID_72_);fill:#070707;}
	.st51{clip-path:url(#SVGID_74_);fill:#070707;}
	.st52{clip-path:url(#SVGID_76_);fill:#070707;}
	.st53{clip-path:url(#SVGID_78_);fill:#070707;}
	.st54{fill:#070707;}
	.st55{fill:none;stroke:#070707;stroke-width:0.5292;stroke-miterlimit:10;}
</style>
<path class="st0" d="M130.5,113.3c-0.1-0.4-0.3-0.8-0.5-1.1c-0.4-0.2-0.7-0.3-1.1-0.5l-4.3-0.1c1.6-2.5-0.1-2.5-0.1-2.5l0.6-2.1
	l-1.7,0.9l-0.5,0.1l0.5-1l-1.2,0.4v-2.9c-1.7,1.7-1.1,3.8-1.1,3.8l-1.6-1.4l-0.9-2.2l-1.6-2.8l-1.2-1.5l-0.8-0.3l2.3,2.9l1.1,2.5
	l0.4,2.4v1.5h-0.1l-81.4,7l-0.7-0.3l-2.8,2.6c-0.1,0.1-1.6,1.1-2.8,0.6c-0.2-0.1-1-0.4-1.1-1.1c0-0.1,0-0.2,0-0.3
	c-0.2-0.2-0.4-0.4-0.5-0.6c-0.3-0.1-0.5-0.3-0.8-0.4v-1l0.8-0.9l0.4-0.6l-6-3.9c-0.1-0.3-0.3-0.6-0.4-0.9c0.1-2.5,0.3-4.9,0.4-7.4
	c-0.7,1.5-1.4,3-2.1,4.5c-0.3,1.3-0.5,2.7-0.8,4c-0.3-1.2-0.5-2.5-0.8-3.7c-0.2,1.1-0.5,2.1-0.7,3.2l-0.8-1.6H18
	c-1,1,0.2,2.8,0.2,2.8l-0.6,0.5l-0.1,0.9l-0.1,0.8l1.2,0.7l-4.8-0.1l2.3,1.3l-5.2,0.9c-0.2,0.1-0.3,0.2-0.5,0.4
	c-0.4,0.8-0.5,1.7-0.2,2.6c0.4,1.1,1.1,1.9,1.9,2.7c0.1,0.1,0.1,0.1,0.2,0.2c0.2,0.1,0.3,0.3,0.5,0.4c27,14.7,66.8,13.3,66.8,13.3
	c29.6-0.2,43.5-10.7,49.4-17.8c0.5-1.1,1-2.2,1.4-3.3C130.4,114.3,130.4,113.8,130.5,113.3z"/>
<path class="st1" d="M46.1,24v2.8L45.8,31l0.2,4.3l0.2,3.8l0.9,3.9l0.1,0.4c0,0-1.3,2.6,0,3.9l3.2,2.3c0,0,1.4-0.5,1.8-0.9
	c0-0.1,0.1-0.1,0.1-0.2c0-0.5,0.1,1.4,0.1,1.4l1.1,1l1.9,0.5l1.6-0.5l0.4-0.9v-0.6c0,0,3.6,2.2,4-1.5c0,0-0.1-1.3-1.9-0.8l0.9-5.3
	l0.7-6.6l0.6-5.6v-4.7c0,0-3.7,0.2-2.7-1.1l0.6-0.7l2.2,0.3l0.5-1.6v-2L60.9,17l-2.7-2.6L56,13.7h-3.1l-2.1,0.7l-1.3,0.8l1.3,0.8
	l0.7,0.7l0.6,1.4l0.9-1.7l1.8-1.2l1.8-0.2l1.7,0.7l1.3,1.6c0,0,1.1,2.4-0.8,4.1l-1-0.3h-2.4l-1.9,0.5l-0.9-1.1l-0.4-0.9L51.5,21
	l-1,1.1l-1.2,0.5l-0.9,0.1l0.5,0.5L48,23.6L46.1,24z"/>
<path class="st1" d="M56.9,13.7l1.5-2.7l1.8-3c0,0,3.2-3.3,5.8-1.5c0,0,2.2,1.9-1.1,5l-3.3,1.1l-2.8,0.9L58,14.3L56.9,13.7z"/>
<path class="st1" d="M56.1,13l-1.3-0.6l-1.7-0.5c0,0-2.9-0.8-1-2.2c0,0,1.4-1.1,2.7,0.4l1,1l0.7,0.7v1.5L56.1,13z"/>
<polygon class="st2" points="45.1,22.1 47.2,22.3 48.4,22.8 48.8,23.2 47.9,23.6 46.1,24 45.1,23.6 44.3,23.2 44.5,22.7 "/>
<polygon class="st3" points="54,21.7 56.1,21.4 58.2,21.4 58,22.1 57.2,22.5 56.5,22.6 55.4,22.6 53.8,22 "/>
<polygon class="st2" points="58.8,24 59.4,23.4 61.8,23.6 62.7,24 63,24.7 62.1,25.1 60.3,25.1 58.8,24.8 "/>
<path class="st4" d="M50.8,28.1l4.5-3c0,0,0.3-0.7-0.8-1.7l-1.6-0.1L51,23.4L49.6,24l-0.2,1.6l0.2,1.7l0.5,0.8H50.8z"/>
<polygon class="st5" points="50.2,34.7 50.4,32.4 51.7,28.9 52.7,27.3 54.5,26 54.4,28.7 54.3,31.6 54,33.8 52.9,35.3 51.5,35.7 
	50.4,35.1 "/>
<path class="st6" d="M45.4,21.4c0,0-2.3-3.5,0.7-5.6c0,0,3.7-2,5.3,1.2l0.6,1.2v1.3l-0.4,1.1l-0.9,1.2l-1.6,0.8l-0.8,0.2l-0.8-0.4
	l-1.2-0.2L45.4,21.4z"/>
<path class="st6" d="M58.7,21.5l0.9-1.4l0.1-1.8l-0.5-1.4L58,15.5c0,0-3.1-0.8-3.6,0l-1.5,1l-0.6,1.1L52,19l0.3,1.3l1.1,1.6
	L58.7,21.5z"/>
<path class="st7" d="M59.4,47.1c-0.3,0,0.7-4.5,0.7-4.5l0.7-4l0.6-7.2l4.6-2.5l5.5-1.5l5.8,0.3c0,0,9.1,2.2,11.6,9
	c0,0,3.7,8.9-2.1,16.2l-2.2,2.8l-2.2,1.9l-2.2,0.3L67,59.6l-8.2-0.1c0,0-6.6-1.6-7.9-5.4L49.2,52l-1.3-2v-2l1.7,1.4l1.1,0.1l1.5-0.9
	c0,0-0.7,2.5,3.1,2.9c0,0,2.3,0,2-2c0,0,3.4,1.6,3.8-0.7C61.2,48.8,62,46.9,59.4,47.1z"/>
<path class="st8" d="M67,45.3c0,0,0.2,2.1,1.9,1.9c0,0,2.7-0.3,1.4-2.6c0,0,1.8-0.1,2-0.9l0.2-1L72,41.5l1.3-0.6l0.4,0.7l1.2,0.6
	l2.1,0.5l0.5,0.1l0.3,0.6L77.4,44h1.8l0.8,0.3l0.2,0.9L79.9,46l-1.2,1.2l1.5,0.1c0,0,1.7,0.6,1.5,2.4l-0.4,1.1l-0.6,0.9l-1,0.3
	l-3.3,0.7l-3.9-0.4c0,0-3.3-0.6-5-3.2C66,46.5,67.7,46.6,67,45.3z"/>
<path class="st9" d="M81.3,44.1c0,0,3.3-1.9,3.9,0.3l0.2,1.9l-0.5,1.4l-0.8,1.8l-1.5,1.4l-1.9,0.9l1-2.1L81.2,48l-1.3-0.8h-1.2
	l1.2-1.2l0.3-1.1L80,44.4l-0.8-0.3l-1.7,0.2l0.3-0.8l-0.3-0.6h-0.9l-1.9-0.7l-1.3-0.7l-0.1-0.6l2.4-0.6l1.3,0.1l0.7,0.5l0.2,1
	l1.9-0.2l1.3,0.4l0.4,0.7L81.3,44.1z"/>
<polygon class="st8" points="81.4,28.9 80.7,24.5 78.9,23.6 77.1,24 76.2,24.8 76.1,25.6 76.7,26.9 77.2,27.6 79.8,28.2 "/>
<path class="st9" d="M84.8,31.1l0.4-3l0.6-3l0.8-2.3l0.8-1.1c0,0-0.2-3.9-3.7-4.3c0,0-2.9-0.7-3.3,3.1v3.9c0,0,2.3,1,1.8,2.5
	L81.6,29L84.8,31.1z"/>
<path class="st1" d="M81.1,27.3c0.1-0.1-0.5-2.7-0.5-2.7s1.6,0.8,1.7,2.3L81.7,29L81.1,27.3z"/>
<polygon class="st7" points="85.9,32.1 87.1,29.3 87.5,26 87.5,22.6 87.5,21.7 86.5,23.1 85.7,25.6 85.1,29.3 84.8,31.1 "/>
<polygon class="st8" points="90.9,22.3 87.5,28.4 87.8,23.4 87.5,21.4 89.2,21.2 "/>
<polygon class="st1" points="87.1,33.3 89.8,29.3 91.2,26.3 91.6,24 90.9,22.3 87.5,27.7 86,31.9 "/>
<polygon class="st1" points="88.2,35.2 93.8,31.5 96.9,27.8 95.4,28.2 92.5,30 89.9,32.1 87.7,34.4 "/>
<path class="st9" d="M90.9,22.3c0,0,2.5-4.1,5.1-2.3c0,0,2.3,1.8,2,4.6l-1.1,3.2l-1.5,0.4L93,29.7l-2.3,1.8l-2.9,2.8l-0.6-0.9
	l2.6-3.6l1.6-3.9l0.2-2.3L90.9,22.3z"/>
<polygon class="st8" points="95.3,30.5 98.9,29.1 98.4,28.2 97.1,27.8 "/>
<polygon class="st7" points="89.5,37.3 92.2,37.4 94.4,36.3 97.1,34.7 98.2,33 98.9,31.3 98.9,29.1 96.2,30 93.8,31.5 90.6,34 
	88.2,35.7 88.9,36.8 "/>
<path class="st9" d="M89.9,38.8l0.6-0.4h2l2.7,0.8l1,0.3l3.5-0.9l2.4-1.5c0,0,2.1-2.2,1.7-4.5c0,0,0.3-3-2.9-3.4l-2,0.1
	c0,0,1.2,3-2,5.4c0,0-1.8,1.7-4.3,2.6l-2,0.1l-1.4,0.1L89.9,38.8z"/>
<polygon class="st8" points="90,43.2 89.6,38.9 92.3,39.5 95.7,39.5 96.9,40.2 98,41.6 98.2,42.8 97.8,44.1 97.1,44.8 96.5,45.3 
	95.3,45.3 93.4,44.9 91.6,44.2 "/>
<path class="st1" d="M89.5,38.5c0,0,4.2-0.6,6.2,1C95.7,39.5,91.8,40.2,89.5,38.5z"/>
<path class="st10" d="M91.6,53c0,0,0.6-3.3,6.1-4.4c0,0,0.7-0.3,1.2-0.1c0,0,2.9,0.6,1.6,3.4c0,0-1.6,2.6-4.2,3.4
	c0,0-1.5,0.8-3.5-0.4C92.8,54.8,91.3,53.8,91.6,53z"/>
<path class="st11" d="M105.9,57.4c0,0-1.4-3.1,0.3-4.6c0,0,3.1-0.5,4.1,2.9c0,0,0.3,2.2-0.5,3.4c0,0-1.1,1.6-2.4,0.4L105.9,57.4z"/>
<path class="st10" d="M114.8,67.9l1.3,1.9l0.5,1.4l0.1,1.2v0.9l-0.5,0.6l-0.7-0.2l-0.7-0.2l-1-1.2l-2.3-2.3l-0.7-1.1l-0.2-0.9
	c0,0,0.6-1.7,2.9-1L114.8,67.9z"/>
<path class="st11" d="M111.7,84.5l-0.1-1.6c0-0.1,0.4-1.4,0.4-1.4l1.1-1.1l1.1-0.2l0.5,1.1l-0.1,2c0,0.1-0.7,2-0.7,2l-0.9,0.8
	l-0.7-0.3L111.7,84.5z"/>
<path class="st12" d="M104.7,116.2l-0.1-4.8l1.5,0.2h2.1l2.4,1.1l1.5,1.7l0.4,1.1c0,0,0.1,1.1,0.1,1.2s-0.2,1.2-0.2,1.2l-1,0.9
	l-1.7,0.1l-2-0.7l-1.9-1.4L104.7,116.2z"/>
<path class="st13" d="M34.7,123.5c0,0,0.8-1.4,6.2-1.6c0,0,3.5,0.1,4.3,1.4l0.2,0.7l-0.1,0.5l-0.5,0.5l-1.4,0.2L40,125l-2.6-0.4
	l-1.8-0.5l-0.9-0.4V123.5z"/>
<polygon class="st13" points="43.9,127 44.7,126.6 45.6,126.6 46.4,126.8 46.8,127 46.7,127.2 46,127.5 44.9,127.6 44.1,127.3 "/>
<polygon class="st12" points="36.4,115.9 35.7,116.9 34.7,117.9 33.1,118.9 31.9,119.3 31,119.3 30.5,118.9 30.1,118.6 29.9,118.1 
	29.9,117.9 29.3,117.7 28.7,117 28.6,116.2 28.9,115.3 29.8,114.1 31.3,112.9 33.4,111.9 35.4,111.7 36.5,111.8 "/>
<path class="st14" d="M37,77.1c0-0.1,1.4-4,1.4-4l1.1-2.4l1.3-2.1l1.3-1.7l2-2.5l-1.2-1.1l-2.2-0.8l-2-0.1l-3.2,0.5l-1.7,0.8l-1.3,1
	L31,66.4l-1.1,2.2l-0.2,2l0.4,1.6l0.5,1.3c0,0,2,2.2,2,2.3c0.1,0,2.5,1.1,2.5,1.1L37,77.1z"/>
<path class="st14" d="M36.6,116l-0.7-12.6l-0.3-5.3l-0.3-9.7l0.6-6.8l2.3-8.1l1.7-3.6l4-5.4c0,0,4.8-5,11.1-6.4l1.6,0.6l4.2,0.9
	l3.2,0.2l4.5-0.2l4.7-0.7l8.4-1.2l1.9-1l4.3,1.5l3.8,2.2l2.7,2.2l2-1.1l3.6-0.8c0,0,3.5,0.3,3.6,0.3s2.6,1.2,2.6,1.2
	s1.5,2.1,1.6,2.1s0.7,2.4,0.7,2.4v2.7l-0.5,2.5l-1,1.3l-1.5,1.4l-1.3,0.9l-1.4,0.3l1.1,8.4l0.5,11.3v6.7l0.2,9.3l0.1,4.9l-14.4,2.1
	l-13.3,0.7H62.7l-10.9-0.8l-8.3-1L36.6,116z"/>
<path class="st6" d="M45.4,72.5l0.7-3.4c0,0,1.3-4.1,5.9-5.9c0,0,5.8-2.7,11.2,2c0,0,4.3,4,3.3,9.4c0,0-0.6,5.8-6.2,8.2
	c0,0-6.5,3.2-12.1-2.6C48.2,80.1,45,76.9,45.4,72.5z"/>
<path class="st6" d="M72.3,69.8c0,0,1.5-6.7,7.8-8.2c0,0,6.9-2.1,11.5,4.4c0,0,3.8,5.1,0.5,11.1c0,0-2.7,4.7-7.1,5.2
	c0,0-6.5,1.6-10.7-3.8C74.4,78.4,71.2,74.4,72.3,69.8z"/>
<path class="st12" d="M65.4,82.7c0,0-1.7,0.3-3.7,2.4c0,0-2.4,2.6,0.2,4c0,0,1.3,1.2,3.6,0.7l2-0.5l1.9-0.4c0,0,1.9-0.1,2-0.1
	s1.9,0.5,1.9,0.5s1.5,0.4,1.6,0.4s1.5-0.1,1.5-0.1l1.1-0.6l0.6-1.2v-1.3l-0.4-1.4L76.5,84l-1.8-1.1l-0.9-0.6l-4.1,1.5L66.2,83
	L65.4,82.7z"/>
<path class="st6" d="M69.8,94.6l-0.4,0.9c0,0-1.5,2.2-3.6,0.2c0,0-1.2-2.3-0.7-4.1l0.3-1.8l2-0.5l2.1-0.5l1.4-0.1l2.1,0.4l0.7,0.2
	l0.4,1.5l0.2,2.3l-0.4,1.8l-0.6,0.7c0,0-1.5,1.5-2.8,0.2l-0.6-0.9l-0.3-0.8L69.8,94.6z"/>
<g>
	<g>
		<defs>
			<rect id="SVGID_1_" x="-7.7" y="-47.3" width="157.5" height="222.7"/>
		</defs>
		<clipPath id="SVGID_2_">
			<use xlink:href="#SVGID_1_"  style="overflow:visible;"/>
		</clipPath>
		<path class="st15" d="M23.5,109.2c0-2.4,4.5-4.7,12.5-6.5c0-0.2,0-0.4-0.1-0.5c-8.1,1.8-12.9,4.3-12.9,7.1c0,1.9,2.3,3.7,6.8,5.3
			c0,0,0,0,0-0.1c0.1-0.2,0.3-0.4,0.4-0.6c0.1-0.1,0.2-0.3,0.3-0.4c-0.2,0.2-0.4,0.3-0.6,0.5C25.7,112.5,23.5,110.8,23.5,109.2"/>
	</g>
	<g>
		<defs>
			<rect id="SVGID_3_" x="-7.7" y="-47.3" width="157.5" height="222.7"/>
		</defs>
		<clipPath id="SVGID_4_">
			<use xlink:href="#SVGID_3_"  style="overflow:visible;"/>
		</clipPath>
		<path class="st16" d="M104.5,101.8c0,0.2,0,0.4-0.1,0.5h0.1c8.7,1.8,13.7,4.3,13.7,6.8c0,1.6-2.2,3.3-6.2,4.7
			c-0.1-0.2-0.3-0.4-0.5-0.6c0.1,0.2,0.3,0.4,0.4,0.6s0.2,0.3,0.2,0.5c4.4-1.6,6.6-3.3,6.6-5.2C118.8,106.3,113.4,103.7,104.5,101.8
			"/>
	</g>
	<g>
		<defs>
			<rect id="SVGID_5_" x="-7.7" y="-47.3" width="157.5" height="222.7"/>
		</defs>
		<clipPath id="SVGID_6_">
			<use xlink:href="#SVGID_5_"  style="overflow:visible;"/>
		</clipPath>
		<path class="st17" d="M104.9,115.9c-8.9,1.9-21.2,3-34,3c-13,0-25.1-1.1-34.2-3c0.1-0.2,0.1-0.4,0.1-0.6c-0.1,0.3-0.3,0.5-0.4,0.8
			c-0.1,0.1-0.1,0.2-0.2,0.2h0.1c9.1,2,21.4,3.1,34.6,3.1c13,0,25.4-1.1,34.4-3.1C105.1,116.2,105,116.1,104.9,115.9"/>
	</g>
	<g>
		<defs>
			<rect id="SVGID_7_" x="-7.7" y="-47.3" width="157.5" height="222.7"/>
		</defs>
		<clipPath id="SVGID_8_">
			<use xlink:href="#SVGID_7_"  style="overflow:visible;"/>
		</clipPath>
		<path class="st18" d="M55.1,58.1c-0.1-0.1-0.2-0.2-0.3-0.3c-5.1,1.5-9.7,4.4-13,8.6c-4.4,5.6-6.1,12.8-6.6,19.9
			c-0.7,9.9,1,19.7,1,29.6c0,0.4,0.7,0.4,0.7,0c0-8.2-1.2-16.4-1.2-24.7c0-7.2,0.9-14.6,4.4-21c3.3-6,8.9-10.3,15.5-12
			C55.4,58.2,55.2,58.2,55.1,58.1z"/>
	</g>
	<g>
		<defs>
			<rect id="SVGID_9_" x="-7.7" y="-47.3" width="157.5" height="222.7"/>
		</defs>
		<clipPath id="SVGID_10_">
			<use xlink:href="#SVGID_9_"  style="overflow:visible;"/>
		</clipPath>
		<path class="st19" d="M99.4,68c-3.2-5.8-9.1-9.7-15.4-11.4c-0.2-0.1-0.4-0.1-0.6-0.2l0,0c-0.2,0.2-0.5,0.3-0.8,0.4l0,0l0,0
			c6.7,1.5,13,5.4,16.3,11.4C99,68.7,99.6,68.4,99.4,68z"/>
	</g>
	<g>
		<defs>
			<rect id="SVGID_11_" x="-7.7" y="-47.3" width="157.5" height="222.7"/>
		</defs>
		<clipPath id="SVGID_12_">
			<use xlink:href="#SVGID_11_"  style="overflow:visible;"/>
		</clipPath>
		<path class="st20" d="M36.7,76.8c-2.4-0.2-4.8-1.4-5.9-3.7c-1.1-2.3-0.8-5,0.8-7c1.3-1.8,3.4-3,5.6-3.4c2.1-0.4,5.1-0.3,6.6,1.5
			c0.3,0.3,0.7-0.1,0.5-0.5c-1.6-1.9-4.5-2.1-6.8-1.7c-2.7,0.4-5.2,1.9-6.6,4.2c-1.4,2.2-1.7,5-0.5,7.3c1.2,2.4,3.8,3.8,6.5,4
			C37.1,77.5,37.1,76.8,36.7,76.8"/>
	</g>
	<g>
		<defs>
			<rect id="SVGID_13_" x="-7.7" y="-47.3" width="157.5" height="222.7"/>
		</defs>
		<clipPath id="SVGID_14_">
			<use xlink:href="#SVGID_13_"  style="overflow:visible;"/>
		</clipPath>
		<path class="st21" d="M94.6,62.5c3.7-1.9,9.7-2.9,12.3,1.2c2.6,4.1,1.1,10.6-4.2,11.5c-0.4,0.1-0.2,0.7,0.2,0.6
			c5.6-0.9,7.3-7.7,4.8-12.2c-2.7-4.8-9.2-3.9-13.4-1.8C93.9,62.1,94.2,62.7,94.6,62.5"/>
	</g>
	<g>
		<defs>
			<rect id="SVGID_15_" x="-7.7" y="-47.3" width="157.5" height="222.7"/>
		</defs>
		<clipPath id="SVGID_16_">
			<use xlink:href="#SVGID_15_"  style="overflow:visible;"/>
		</clipPath>
		<path class="st22" d="M65.2,82.9c0.1,0,0.2,0,0.3-0.1c0-0.1-0.1-0.2-0.1-0.3c-0.2,0.2-0.7,0.1-0.9,0.2c-0.5,0.2-1.1,0.7-1.5,1
			c-0.9,0.7-1.8,1.6-2.2,2.7c-1,2.5,2.1,3.9,4.2,3.7c1.7-0.1,3.3-0.9,5-1.1s3.1,0.4,4.7,0.8c2.1,0.5,4.2-0.7,3.9-3.1
			c-0.4-2.6-3.7-4-5.8-4.8c-0.2-0.1-0.3,0.2-0.1,0.3c2.2,0.8,6.4,2.6,5.5,5.6c-0.6,2.2-2.7,1.9-4.4,1.4c-1.2-0.4-2.3-0.7-3.6-0.6
			c-1.5,0.1-3,0.8-4.5,1c-1.7,0.3-5.1-0.3-4.8-2.6c0.2-1.4,1.6-2.6,2.7-3.4c0.4-0.3,0.8-0.5,1.2-0.7c0.2-0.1,0.6-0.1,0.8-0.3
			c0.1-0.1,0-0.3-0.1-0.3s-0.2,0-0.4,0.1C64.9,82.6,65,82.9,65.2,82.9"/>
	</g>
	<g>
		<defs>
			<rect id="SVGID_17_" x="-7.7" y="-47.3" width="157.5" height="222.7"/>
		</defs>
		<clipPath id="SVGID_18_">
			<use xlink:href="#SVGID_17_"  style="overflow:visible;"/>
		</clipPath>
		<path class="st23" d="M73.8,89.7c0.6,1.5,0.9,3.5,0.3,5.1c-0.5,1.2-2,2-3.1,1.1c-0.5-0.4-0.7-1-1-1.6c-0.1-0.2-0.4,0-0.3,0.2
			c0.3,0.7,0.6,1.5,1.3,1.9c0.8,0.4,1.8,0.2,2.5-0.3c1.9-1.3,1.3-4.7,0.6-6.5C74,89.4,73.7,89.5,73.8,89.7"/>
	</g>
	<g>
		<defs>
			<rect id="SVGID_19_" x="-7.7" y="-47.3" width="157.5" height="222.7"/>
		</defs>
		<clipPath id="SVGID_20_">
			<use xlink:href="#SVGID_19_"  style="overflow:visible;"/>
		</clipPath>
		<path class="st24" d="M104.6,111.4c0.8,0.4,1.9,0,2.8,0.2c1.8,0.4,3.7,1.4,4.5,3.2c0.9,2,0.1,4.3-2.4,3.9
			c-1.8-0.3-3.2-1.6-4.4-2.8c-0.2-0.1-0.4,0.1-0.2,0.2c1.4,1.4,3,2.8,5,3c1.5,0.1,2.6-0.7,2.7-2.2c0.2-1.8-0.8-3.4-2.2-4.3
			c-0.9-0.6-2-1.1-3.1-1.3c-0.8-0.1-1.8,0.2-2.5-0.1C104.5,111,104.4,111.3,104.6,111.4"/>
	</g>
	<g>
		<defs>
			<rect id="SVGID_21_" x="-7.7" y="-47.3" width="157.5" height="222.7"/>
		</defs>
		<clipPath id="SVGID_22_">
			<use xlink:href="#SVGID_21_"  style="overflow:visible;"/>
		</clipPath>
		<path class="st25" d="M108.5,115.7c1.2,0.4,2.7,1.4,1.9,2.8c-0.1,0.2,0.2,0.4,0.3,0.2c0.8-1.6-0.7-2.9-2.1-3.3
			C108.3,115.3,108.3,115.6,108.5,115.7"/>
	</g>
	<g>
		<defs>
			<rect id="SVGID_23_" x="-7.7" y="-47.3" width="157.5" height="222.7"/>
		</defs>
		<clipPath id="SVGID_24_">
			<use xlink:href="#SVGID_23_"  style="overflow:visible;"/>
		</clipPath>
		<path class="st26" d="M93.5,71.8c0-5.9-4.8-10.6-10.6-10.6c-5.9,0-10.6,4.8-10.6,10.6c0,5.9,4.8,10.6,10.6,10.6
			C88.7,82.5,93.5,77.7,93.5,71.8z"/>
	</g>
	<g>
		<defs>
			<rect id="SVGID_25_" x="-7.7" y="-47.3" width="157.5" height="222.7"/>
		</defs>
		<clipPath id="SVGID_26_">
			<use xlink:href="#SVGID_25_"  style="overflow:visible;"/>
		</clipPath>
		<path class="st27" d="M56,62.3c-5.9,0-10.6,4.8-10.6,10.6c0,5.9,4.8,10.6,10.6,10.6c5.9,0,10.6-4.8,10.6-10.6
			C66.7,67.1,61.9,62.3,56,62.3z"/>
	</g>
	<g>
		<defs>
			<rect id="SVGID_27_" x="-7.7" y="-47.3" width="157.5" height="222.7"/>
		</defs>
		<clipPath id="SVGID_28_">
			<use xlink:href="#SVGID_27_"  style="overflow:visible;"/>
		</clipPath>
		<path class="st28" d="M103.2,67.6c0-1.2-1-2.3-2.3-2.3c-1.2,0-2.3,1-2.3,2.3c0,1.2,1,2.3,2.3,2.3S103.2,68.9,103.2,67.6"/>
	</g>
	<g>
		<defs>
			<rect id="SVGID_29_" x="-7.7" y="-47.3" width="157.5" height="222.7"/>
		</defs>
		<clipPath id="SVGID_30_">
			<use xlink:href="#SVGID_29_"  style="overflow:visible;"/>
		</clipPath>
		<path class="st29" d="M40,69.6c0-1.2-1-2.3-2.3-2.3c-1.2,0-2.3,1-2.3,2.3c0,1.2,1,2.3,2.3,2.3S40,70.9,40,69.6"/>
	</g>
	<g>
		<defs>
			<rect id="SVGID_31_" x="-7.7" y="-47.3" width="157.5" height="222.7"/>
		</defs>
		<clipPath id="SVGID_32_">
			<use xlink:href="#SVGID_31_"  style="overflow:visible;"/>
		</clipPath>
		<path class="st30" d="M74.2,81.6c0-1.5-2.1-2.6-4.8-2.6c-2.6,0-4.8,1.2-4.8,2.6c0,1.5,2.1,2.6,4.8,2.6
			C72.1,84.3,74.2,83.1,74.2,81.6"/>
	</g>
	<g>
		<defs>
			<rect id="SVGID_33_" x="-7.7" y="-47.3" width="157.5" height="222.7"/>
		</defs>
		<clipPath id="SVGID_34_">
			<use xlink:href="#SVGID_33_"  style="overflow:visible;"/>
		</clipPath>
		<path class="st31" d="M77.5,68.9c0,1.9,1.6,3.5,3.5,3.5s3.5-1.6,3.5-3.5s-1.6-3.5-3.5-3.5C79,65.5,77.5,67,77.5,68.9 M83.2,67.5
			c0,0.5-0.4,1-1,1c-0.5,0-1-0.4-1-1c0-0.5,0.4-1,1-1C82.7,66.5,83.2,67,83.2,67.5"/>
	</g>
	<g>
		<defs>
			<rect id="SVGID_35_" x="-7.7" y="-47.3" width="157.5" height="222.7"/>
		</defs>
		<clipPath id="SVGID_36_">
			<use xlink:href="#SVGID_35_"  style="overflow:visible;"/>
		</clipPath>
		<path class="st32" d="M55.2,68.7c0,1.9,1.6,3.5,3.5,3.5s3.5-1.6,3.5-3.5s-1.6-3.5-3.5-3.5C56.7,65.2,55.2,66.8,55.2,68.7
			 M60.8,67.3c0,0.5-0.4,1-1,1c-0.5,0-1-0.4-1-1c0-0.5,0.4-1,1-1C60.4,66.3,60.8,66.8,60.8,67.3"/>
	</g>
	<g>
		<defs>
			<rect id="SVGID_37_" x="-7.7" y="-47.3" width="157.5" height="222.7"/>
		</defs>
		<clipPath id="SVGID_38_">
			<use xlink:href="#SVGID_37_"  style="overflow:visible;"/>
		</clipPath>
		<path class="st33" d="M69.8,89c0.3,1.4,0.2,3.1,0,4.5c-0.1,0.8-0.3,1.8-0.9,2.4c-0.7,0.7-1.9,0.6-2.7,0c-1.5-1.3-1-4.3-0.5-6
			c0.1-0.2-0.3-0.3-0.3-0.1c-0.6,1.9-1.1,6.1,1.5,6.8c1.3,0.4,2.3-0.3,2.8-1.5c0.4-1,0.4-2.2,0.4-3.2s0.1-2.1-0.1-3
			C70,88.7,69.7,88.8,69.8,89"/>
	</g>
	<g>
		<defs>
			<rect id="SVGID_39_" x="-7.7" y="-47.3" width="157.5" height="222.7"/>
		</defs>
		<clipPath id="SVGID_40_">
			<use xlink:href="#SVGID_39_"  style="overflow:visible;"/>
		</clipPath>
		<path class="st34" d="M36.4,111.7c-2.4-0.4-5,0.7-6.7,2.3c-1.2,1.2-1.9,2.9-0.2,3.8c0.2,0.1,0.4-0.2,0.2-0.3
			c-2.2-1.2,0-3.3,1.3-4.1c1.6-1.1,3.4-1.8,5.3-1.4C36.5,112.1,36.6,111.8,36.4,111.7"/>
	</g>
	<g>
		<defs>
			<rect id="SVGID_41_" x="-7.7" y="-47.3" width="157.5" height="222.7"/>
		</defs>
		<clipPath id="SVGID_42_">
			<use xlink:href="#SVGID_41_"  style="overflow:visible;"/>
		</clipPath>
		<path class="st35" d="M31.4,116.2c-0.7,0.3-1.6,1-1.6,1.8s0.8,1.3,1.5,1.4c2,0.3,4.3-1.9,5.4-3.4c0.1-0.2-0.2-0.3-0.3-0.2
			c-0.9,1.2-2.1,2.3-3.4,2.9c-0.8,0.4-2.2,0.7-2.8-0.3c-0.5-0.9,0.7-1.7,1.4-2C31.7,116.4,31.5,116.1,31.4,116.2"/>
	</g>
	<g>
		<defs>
			<rect id="SVGID_43_" x="-7.7" y="-47.3" width="157.5" height="222.7"/>
		</defs>
		<clipPath id="SVGID_44_">
			<use xlink:href="#SVGID_43_"  style="overflow:visible;"/>
		</clipPath>
		<path class="st36" d="M98.3,67.2c5,6.4,5,14.9,5.3,22.6c0.3,8.7,0.2,17.4,0.5,26.1c0,0.4,0.7,0.4,0.7,0
			c-0.4-9.2-0.2-18.4-0.6-27.7c-0.3-7.5-0.6-15.4-5.5-21.5C98.5,66.4,98.1,66.9,98.3,67.2"/>
	</g>
	<g>
		<defs>
			<rect id="SVGID_45_" x="-7.7" y="-47.3" width="157.5" height="222.7"/>
		</defs>
		<clipPath id="SVGID_46_">
			<use xlink:href="#SVGID_45_"  style="overflow:visible;"/>
		</clipPath>
		<path class="st37" d="M128.8,111.6L128.8,111.6c-0.8,0-1.5-0.1-2.3-0.2c-0.5,0-1.5,0.1-1.5-0.4c0-0.6,0.6-0.9,0.2-1.7
			c-0.1-0.2-0.4-0.3-0.5-0.5c-0.2-0.5,0.4-1.5,0.6-2c0.1-0.1-0.1-0.3-0.2-0.2c-0.4,0.3-0.8,0.6-1.3,0.8c-0.9,0.3-0.5-0.2-0.3-0.8
			c0-0.2-0.2-0.3-0.3-0.2c-0.9,0.9-0.9,0.3-0.9-0.5c0-0.6,0-1.3,0-1.9c0-0.2-0.2-0.2-0.3-0.1c-0.9,1.2-1.3,2.5-1.2,3.9
			c-2.4-2.6-3-6.6-6.2-8.5c-0.2-0.1-0.3,0.1-0.2,0.3c2.6,2.6,4.1,6,4.3,9.7c0,0.2,0.3,0.2,0.3,0c-0.2-3.2-1.3-6.2-3.2-8.6
			c2.1,2.2,2.8,5.5,5,7.6c0.1,0.1,0.3,0,0.3-0.1c-0.1-1.3,0.2-2.6,0.9-3.7c0,1,0,1.9,0,2.9c0,0.1,0.1,0.2,0.2,0.2
			c0.3-0.1,0.6-0.3,0.8-0.5c-0.1,0.3-0.2,0.6-0.3,0.9c0,0.1,0.1,0.2,0.2,0.2c0.7-0.3,1.2-0.6,1.8-0.9c-0.2,0.5-0.4,1-0.6,1.6
			c0,0.1,0,0.2,0.1,0.2c1.4,0.4,0.4,1.8,0,2.3c-0.1,0.1,0,0.2,0.1,0.2c1.6,0.2,3.3,0.3,4.9,0.4C129.3,111.8,129,111.7,128.8,111.6z"
			/>
	</g>
	<g>
		<defs>
			<rect id="SVGID_47_" x="-7.7" y="-47.3" width="157.5" height="222.7"/>
		</defs>
		<clipPath id="SVGID_48_">
			<use xlink:href="#SVGID_47_"  style="overflow:visible;"/>
		</clipPath>
		<path class="st38" d="M23.1,102c-1.4,2.4-2,5-2.5,7.7c-0.2-0.9-0.3-1.8-0.5-2.7c0-0.2-0.3-0.1-0.3,0c-0.3,0.8-0.5,1.5-0.6,2.4
			c-0.3-0.7-0.7-1.6-1.3-1.4c-0.7,0.2-0.5,1.5-0.4,1.9c0,0.3,0.3,0.8,0.3,1.1c-0.1,0.6,0,0.1-0.2,0.4s-0.4,0.5-0.4,0.8
			c-0.1,0.8,0.4,1.4,1,1.8c-1.4-0.1-2.8-0.3-4.2-0.4c-0.2,0-0.2,0.2-0.1,0.3c0.7,0.5,1.3,0.9,2,1.4c-1.5,0.2-3,0.5-4.5,0.7
			c-0.2,0.1-0.4,0.3-0.5,0.4c1.9-0.3,3.7-0.6,5.6-0.8c0.2,0,0.1-0.2,0-0.3c-0.6-0.4-1.2-0.8-1.8-1.2c1.4,0.1,2.8,0.3,4.2,0.4
			c0.2,0,0.2-0.2,0.1-0.3c-0.3-0.2-0.6-0.4-0.8-0.7c-0.6-0.5-0.5-1.1,0.3-1.9c0.1,0,0.1-0.1,0.1-0.2c-0.3-0.6-0.8-1.9-0.2-2.4
			c0.5-0.3,0.3-0.2,0.6,0.3c0.2,0.3,0.3,0.6,0.5,0.9c0.1,0.2,0.3,0.1,0.3-0.1c0.1-0.8,0.2-1.6,0.5-2.4c0.2,1,0.4,2,0.6,3
			c0,0.2,0.3,0.2,0.3,0c0.5-2.7,1-5.4,2.3-7.8c-0.2,2.2-0.3,4.5-0.5,6.7c0,0.2,0.3,0.2,0.3,0c0.2-2.5,0.4-5,0.5-7.4
			C23.5,101.9,23.2,101.9,23.1,102z"/>
	</g>
	<g>
		<defs>
			<rect id="SVGID_49_" x="-7.7" y="-47.3" width="157.5" height="222.7"/>
		</defs>
		<clipPath id="SVGID_50_">
			<use xlink:href="#SVGID_49_"  style="overflow:visible;"/>
		</clipPath>
		<path class="st39" d="M44.2,122.3c-3.3-1-6.8-0.6-9.9,1.1c-0.1,0.1-0.1,0.2,0,0.3c1.5,0.8,3.1,1.2,4.7,1.4
			c1.6,0.2,3.5,0.5,5.1,0.2c0.8-0.2,1.8-0.8,1.7-1.7c0-0.8-0.7-1.3-1.5-1.1c-0.2,0-0.1,0.4,0.1,0.3c0.9,1.3,0.8,2-0.2,2.1
			c-0.3,0.1-0.5,0.2-0.8,0.2c-0.4,0-0.8,0-1.2,0c-0.8,0-1.5-0.1-2.3-0.1c-0.9-0.1-1.8-0.2-2.6-0.4c-0.3-0.1-2.5-0.6-2.5-0.9
			c0-0.8,3.3-1.3,4.1-1.4c1.7-0.2,3.5,0,5.1,0.5C44.4,122.7,44.5,122.4,44.2,122.3"/>
	</g>
	<g>
		<defs>
			<rect id="SVGID_51_" x="-7.7" y="-47.3" width="157.5" height="222.7"/>
		</defs>
		<clipPath id="SVGID_52_">
			<use xlink:href="#SVGID_51_"  style="overflow:visible;"/>
		</clipPath>
		<path class="st40" d="M46.4,126.6c-0.9-0.5-2-0.4-2.7,0.3c-0.1,0.1-0.1,0.2,0,0.3c1,0.7,2.2,0.7,3.3,0.1c0.1,0,0.1-0.1,0.1-0.2
			c-0.2-0.4-0.5-0.7-0.9-0.8c-0.2-0.1-0.3,0.3-0.1,0.3c0.4,0.1,0.6,0.3,0.7,0.6c0-0.1,0-0.2,0.1-0.2c-1,0.5-2.1,0.5-3-0.1
			c0,0.1,0,0.2,0,0.3c0.6-0.6,1.6-0.7,2.3-0.2C46.4,127,46.5,126.7,46.4,126.6"/>
	</g>
	<g>
		<defs>
			<rect id="SVGID_53_" x="-7.7" y="-47.3" width="157.5" height="222.7"/>
		</defs>
		<clipPath id="SVGID_54_">
			<use xlink:href="#SVGID_53_"  style="overflow:visible;"/>
		</clipPath>
		<path class="st41" d="M73.9,128.8c-0.8-1-1.6-1.9-2.3-2.9c-0.1,0.1-0.2,0.2-0.2,0.2c0.9,0.8,1.8,1.5,2.7,2.2
			c0.1,0.1,0.2,0,0.2-0.1c0.2-0.6,0.4-1.2,0.7-1.8h-0.3c0.4,1,1.5,1.3,2.3,0.7c-0.1,0-0.2-0.1-0.3-0.1c0.1,1,0.8,1.4,1.7,1.4
			c0.5,0,0.1-0.1,0.5,0l0.6,0.4c0.8,0.3,1.8,0.2,2.6,0.3c5,0.2,10.1-0.1,15.1-0.8c0.2,0,0.1-0.3-0.1-0.3c-3,0.4-6,0.7-9,0.8
			c-1.4,0-2.8,0.1-4.2,0c-1.2,0-4.3,0.3-5-0.9c0-0.1-0.2-0.1-0.2-0.1c-0.8,0.5-1.4,0.2-1.8-0.8c0-0.2-0.2-0.2-0.3-0.1
			c-0.6,0.5-1.2,0.3-1.7-0.5c-0.1-0.2-0.3-0.2-0.3,0c-0.1,0.3-0.2,0.6-0.3,0.9c-0.3,0.6-0.2,0.6-0.9,0.2c-0.7-0.4-1.3-1-1.9-1.5
			c-0.2-0.1-0.4,0.1-0.2,0.2c0.8,1,1.6,1.9,2.3,2.9C73.8,129.2,74,128.9,73.9,128.8"/>
	</g>
	<g>
		<defs>
			<rect id="SVGID_55_" x="-7.7" y="-47.3" width="157.5" height="222.7"/>
		</defs>
		<clipPath id="SVGID_56_">
			<use xlink:href="#SVGID_55_"  style="overflow:visible;"/>
		</clipPath>
		<path class="st42" d="M67.3,129.1c-0.3,0.4-0.7,0.8-1.3,1.1c0.1,0,0.2,0,0.3,0c-0.1-0.3-0.3-0.5-0.7-0.7c-0.1,0-0.2,0-0.3,0
			c-0.4,0.2-0.6,0.4-0.4,0.7l0.3-0.1c-0.3-0.1-0.6-0.2-0.9-0.3c-0.1,0-0.2,0-0.2,0c-0.4,0.5-2.7,0.4-3.8,0.4c-1.6,0-3.2,0-4.9,0
			c-0.2,0-0.2,0.1,0,0.1c2.9,0.1,5.8,0,8.7-0.1c0.1,0,0.2,0,0.2-0.1c0.1-0.3,0.3-0.3,0.7,0c0.1,0,0.3,0,0.3-0.1
			c0.1-0.5,0.3-0.6,0.6-0.2c0.1,0.1,0.1,0.2,0.2,0.3c0,0.1,0.2,0.1,0.3,0c0.5-0.4,1-0.8,1.3-1.2C67.7,129.1,67.4,129,67.3,129.1"/>
	</g>
	<g>
		<defs>
			<rect id="SVGID_57_" x="-7.7" y="-47.3" width="157.5" height="222.7"/>
		</defs>
		<clipPath id="SVGID_58_">
			<use xlink:href="#SVGID_57_"  style="overflow:visible;"/>
		</clipPath>
		<path class="st43" d="M69.3,129.9c0.2-1.7,0.1-3.4-0.2-5.1c0-0.2-0.4-0.1-0.3,0.1c0.3,1.7,0.4,3.3,0.2,5
			C68.9,130.1,69.2,130.1,69.3,129.9"/>
	</g>
	<g>
		<defs>
			<rect id="SVGID_59_" x="-7.7" y="-47.3" width="157.5" height="222.7"/>
		</defs>
		<clipPath id="SVGID_60_">
			<use xlink:href="#SVGID_59_"  style="overflow:visible;"/>
		</clipPath>
		<path class="st44" d="M69.5,130.3c0.2-1,0.3-1.9,0.5-2.9c0-0.2-0.3-0.3-0.3-0.1c-0.2,1-0.3,1.9-0.5,2.9
			C69.1,130.5,69.4,130.6,69.5,130.3"/>
	</g>
</g>
<g>
	<defs>
		<rect id="SVGID_61_" x="-7.7" y="-47.3" width="157.5" height="222.7"/>
	</defs>
	<clipPath id="SVGID_62_">
		<use xlink:href="#SVGID_61_"  style="overflow:visible;"/>
	</clipPath>
	<path class="st45" d="M29.5,114.3c0,0,2.8-3.3,6.9-2.6l-0.5-9.2l-3.8,1.3l-2.6,0.9l-2.8,1.2l-2.2,0.8l-1.1,1.2l-0.1,1.6v1l1,0.8
		l1.2,1L29.5,114.3z"/>
</g>
<g>
	<defs>
		<rect id="SVGID_63_" x="-7.7" y="-47.3" width="157.5" height="222.7"/>
	</defs>
	<clipPath id="SVGID_64_">
		<use xlink:href="#SVGID_63_"  style="overflow:visible;"/>
	</clipPath>
	<path class="st46" d="M27,106.1L27,106.1c-0.4,0-0.7,0.3-0.7,0.7l0,0c0,0.5,0.5,0.8,1,0.6c0.3-0.2,0.5-0.5,0.9-0.6
		c0.7-0.4,0.2-1.4-0.5-1.2c-0.3,0.1-0.5,0.2-0.9,0.3c-0.7,0.3-0.2,1.4,0.5,1.2c0.2,0,0.3-0.1,0.5-0.1c-0.1-0.4-0.2-0.9-0.4-1.3
		c-0.1,0-0.2,0.1-0.3,0.1c0.2,0.4,0.3,0.8,0.5,1.2c1.8-1,3.7-1.6,5.6-2.1c-0.1-0.4-0.2-0.9-0.4-1.3c-1.1,0.3-2.1,0.7-3,1.4
		c-0.7,0.5,0,1.6,0.7,1.1c0.8-0.6,1.7-1,2.7-1.3c0.8-0.2,0.5-1.5-0.4-1.3c-2.1,0.5-4.1,1.1-6,2.2c-0.6,0.4-0.2,1.5,0.5,1.2
		c0.1,0,0.2-0.1,0.3-0.1c0.8-0.3,0.5-1.5-0.4-1.3c-0.2,0-0.3,0.1-0.5,0.1c0.2,0.4,0.3,0.8,0.5,1.2c0.2-0.1,0.4-0.1,0.5-0.2
		c-0.2-0.4-0.3-0.8-0.5-1.2c-0.3,0.2-0.6,0.5-0.9,0.6c0.3,0.2,0.7,0.4,1,0.6l0,0c-0.2,0.2-0.4,0.4-0.7,0.7l0,0
		C27.9,107.3,27.9,106,27,106.1"/>
</g>
<g>
	<defs>
		<rect id="SVGID_65_" x="-7.7" y="-47.3" width="157.5" height="222.7"/>
	</defs>
	<clipPath id="SVGID_66_">
		<use xlink:href="#SVGID_65_"  style="overflow:visible;"/>
	</clipPath>
	<path class="st47" d="M27.6,107.5c0.4-0.2,0.8-0.4,1.2-0.5c0.7-0.3,0.2-1.4-0.5-1.2c-0.4,0.1-0.8,0.2-1.1,0.3
		c0.2,0.4,0.3,0.8,0.5,1.2l0.9-0.6c0.7-0.4,0.2-1.3-0.5-1.2c-0.2,0-0.4,0.1-0.7,0.1c0.1,0.4,0.2,0.8,0.3,1.2
		c0.4-0.3,0.7-0.5,1.1-0.6c0.8-0.3,0.5-1.5-0.4-1.3c-0.4,0.1-0.9,0.3-1.3,0.4c0.2,0.4,0.3,0.8,0.5,1.2c0.2-0.2,0.5-0.3,0.7-0.4
		c-0.1-0.4-0.2-0.9-0.4-1.3c-0.2,0.1-0.5,0.2-0.7,0.2c0.2,0.4,0.3,0.8,0.5,1.2c1.5-0.8,3.2-0.9,4.8-1.6c0.7-0.3,0.2-1.4-0.5-1.2
		c-0.7,0.2-1.5,0.5-2.2,0.7c0.1,0.4,0.2,0.9,0.4,1.3c0.8-0.3,1.6-0.6,2.5-0.8c0.8-0.2,0.5-1.5-0.4-1.3c-0.9,0.2-1.7,0.4-2.5,0.8
		c-0.8,0.3-0.5,1.5,0.4,1.3c0.7-0.2,1.5-0.5,2.2-0.7c-0.2-0.4-0.3-0.8-0.5-1.2c-0.8,0.4-1.7,0.4-2.6,0.7c-0.8,0.2-1.5,0.5-2.2,0.9
		c-0.7,0.3-0.2,1.4,0.5,1.2c0.2-0.1,0.5-0.1,0.7-0.2c0.8-0.3,0.5-1.6-0.4-1.3c-0.4,0.1-0.7,0.3-1.1,0.5c-0.6,0.4-0.2,1.4,0.5,1.2
		c0.4-0.1,0.9-0.3,1.3-0.4c-0.1-0.4-0.2-0.9-0.4-1.3c-0.5,0.2-1,0.4-1.4,0.8c-0.5,0.3-0.4,1.3,0.3,1.2c0.3,0,0.7-0.1,1-0.1
		c-0.2-0.4-0.3-0.8-0.5-1.2c-0.3,0.2-0.6,0.4-0.9,0.6c-0.6,0.4-0.2,1.4,0.5,1.2c0.4-0.1,0.8-0.2,1.1-0.3c-0.2-0.4-0.3-0.8-0.5-1.2
		c-0.4,0.2-0.8,0.4-1.2,0.5C26.1,106.7,26.8,107.9,27.6,107.5"/>
</g>
<g>
	<defs>
		<rect id="SVGID_67_" x="-7.7" y="-47.3" width="157.5" height="222.7"/>
	</defs>
	<clipPath id="SVGID_68_">
		<use xlink:href="#SVGID_67_"  style="overflow:visible;"/>
	</clipPath>
	<path class="st48" d="M29.9,112.9c0.3-0.2,0.7-0.3,1-0.5c-0.3-0.3-0.5-0.7-0.8-1c-0.3,0.3-0.5,0.6-0.8,0.9c-0.4,0.5,0,1.2,0.6,1.1
		c0.3,0,0.4-0.1,0.6-0.2c-0.3-0.3-0.5-0.7-0.8-1c-0.2,0.2-0.4,0.4-0.6,0.7c-0.4,0.6,0.4,1.2,0.9,0.9c0.1,0,0.1-0.1,0.2-0.1l-0.9-0.9
		c-0.1,0.1-0.1,0.1-0.2,0.2c-0.6,0.5,0.2,1.5,0.8,1c0.1-0.1,0.2-0.1,0.3-0.2l-0.9-0.9l0.1-0.1l0.6,1.1c0.8-0.7,1.7-1.3,2.7-1.8
		L32,111c-0.6,0.4-1.1,0.7-1.7,1.1c-0.7,0.5-0.1,1.5,0.7,1.1c0.8-0.4,1.6-0.8,2.4-1.3c0.7-0.5,0.1-1.6-0.7-1.1
		c-0.5,0.3-1,0.5-1.5,0.8c-0.8,0.4-0.1,1.5,0.7,1.1c0.9-0.4,1.7-0.7,2.6-1.1l-0.4-1.3c-0.6,0.2-1.1,0.4-1.7,0.7
		c-0.7,0.3-0.6,1.3,0.2,1.3c1,0,2-0.7,3-0.5v-1.3c-0.1,0-0.2,0.1-0.3,0.1c-0.7,0.2-0.6,1,0,1.3c0.3,0.1,0.5,0.1,0.8-0.1
		c0.8-0.4,0.1-1.5-0.7-1.1c0.1,0,0.1,0,0.2-0.1v1.3l0.3-0.1c0.6-0.2,0.7-1.2,0-1.3c-1.2-0.2-2.2,0.5-3.4,0.5
		c0.1,0.4,0.1,0.9,0.2,1.3c0.6-0.2,1.1-0.4,1.7-0.7c0.8-0.3,0.4-1.6-0.4-1.3c-1,0.4-2,0.8-3,1.2c0.2,0.4,0.4,0.8,0.7,1.1
		c0.5-0.3,1-0.5,1.5-0.8c-0.2-0.4-0.4-0.8-0.7-1.1c-0.8,0.5-1.5,0.9-2.4,1.3c0.2,0.4,0.4,0.8,0.7,1.1c0.6-0.4,1.1-0.7,1.7-1.1
		c0.7-0.5,0.1-1.6-0.7-1.1c-1,0.6-2,1.3-3,2.1c-0.5,0.4,0,1.3,0.6,1.1c0.3-0.1,0.5-0.2,0.7-0.5c0.4-0.5-0.4-1.3-0.9-0.9l-0.3,0.2
		c0.3,0.3,0.5,0.7,0.8,1c0.2-0.2,0.3-0.3,0.4-0.5c0.4-0.6-0.4-1.2-0.9-0.9c-0.1,0-0.1,0.1-0.2,0.1l0.9,0.9c0.1-0.1,0.2-0.3,0.4-0.4
		c0.6-0.5-0.2-1.3-0.8-1c-0.1,0-0.2,0-0.3,0.1l0.6,1.1c0.3-0.3,0.5-0.6,0.8-0.9c0.6-0.5-0.1-1.4-0.8-1c-0.3,0.2-0.7,0.3-1,0.5
		C28.5,112.1,29.2,113.3,29.9,112.9"/>
</g>
<g>
	<defs>
		<rect id="SVGID_69_" x="-7.7" y="-47.3" width="157.5" height="222.7"/>
	</defs>
	<clipPath id="SVGID_70_">
		<use xlink:href="#SVGID_69_"  style="overflow:visible;"/>
	</clipPath>
	<path class="st49" d="M35.9,110.8c0,0.2,0,0.4,0,0.5c-0.1,0.1-0.2,0.2-0.2,0.2l0,0c0.1-0.1,0.3-0.2,0.3-0.4c0-0.2,0-0.4-0.1-0.5
		c-0.2-0.3-0.6-0.5-0.9-0.2c-0.2,0.1-0.3,0.3-0.3,0.5s0,0.4,0.1,0.6c0.1,0.1,0.2,0.3,0.4,0.3s0.4,0,0.5-0.1
		C35.9,111.5,36.1,111.1,35.9,110.8"/>
</g>
<g>
	<defs>
		<rect id="SVGID_71_" x="-7.7" y="-47.3" width="157.5" height="222.7"/>
	</defs>
	<clipPath id="SVGID_72_">
		<use xlink:href="#SVGID_71_"  style="overflow:visible;"/>
	</clipPath>
	<path class="st50" d="M111.9,114.4l1.5-0.5l2-0.9l1.3-1.1l1.1-1l0.8-0.8v-1.4l-0.7-1.5l-3.7-1.9l-3-1.2c0,0-3.8-1.1-4-1.1
		s-2.7-0.6-2.7-0.6l0.1,8.8C104.6,111.2,109.8,110.7,111.9,114.4"/>
</g>
<g>
	<defs>
		<rect id="SVGID_73_" x="-7.7" y="-47.3" width="157.5" height="222.7"/>
	</defs>
	<clipPath id="SVGID_74_">
		<use xlink:href="#SVGID_73_"  style="overflow:visible;"/>
	</clipPath>
	<path class="st51" d="M105.7,103.1c-0.2-0.1-0.3-0.3-0.5-0.4L105,103C105.3,103,105.6,103.1,105.7,103.1s0.2-0.1,0.2-0.2
		c-0.4-0.1-0.7-0.2-0.9-0.4c0,0.1-0.1,0.2-0.1,0.3c0.6,0.1,1.2,0.3,1.8,0.4c0-0.1,0-0.2,0-0.3c-0.5,0-0.9-0.1-1.4-0.3
		c-0.2-0.1-0.3,0.2-0.1,0.3c2.1,0.7,4.4,0.8,6.5,1.8c1.8,0.8,4.3,1.6,5.5,3.3c0.1-0.1,0.2-0.1,0.3-0.2c-1.8-1.4-3.7-2.5-5.9-3.3
		c0,0.1-0.1,0.2-0.1,0.3c1,0.2,2,0.5,3,1c0.2,0.1,0.4-0.2,0.2-0.3c-0.5-0.3-1.1-0.5-1.6-0.8c-0.2-0.1-0.3,0.2-0.2,0.3
		c0.6,0.4,1.1,0.9,1.6,1.4c0.1,0.2,0.4-0.1,0.2-0.2c-0.5-0.6-1-1-1.6-1.5c-0.1,0.1-0.1,0.2-0.2,0.3c0.5,0.3,1.1,0.5,1.6,0.8
		c0.1-0.1,0.1-0.2,0.2-0.3c-1-0.4-2-0.8-3.1-1c-0.2,0-0.3,0.2-0.1,0.3c2.1,0.7,4,1.8,5.7,3.2c0.1,0.1,0.4,0,0.3-0.2
		c-1.2-1.7-3.5-2.4-5.3-3.3c-2.2-1-4.6-1.2-6.9-2c0,0.1-0.1,0.2-0.1,0.3c0.5,0.2,0.9,0.3,1.5,0.3c0.2,0,0.2-0.3,0-0.3
		c-0.6-0.1-1.2-0.3-1.8-0.4c-0.2,0-0.3,0.2-0.1,0.3c0.3,0.2,0.6,0.4,1,0.5c0.2,0,0.3-0.2,0.1-0.3c-0.5-0.2-0.3-0.2-0.8-0.3
		c-0.1,0-0.3,0.2-0.2,0.3c0.2,0.1,0.3,0.3,0.5,0.4C105.7,103.4,105.9,103.2,105.7,103.1"/>
</g>
<g>
	<defs>
		<rect id="SVGID_75_" x="-7.7" y="-47.3" width="157.5" height="222.7"/>
	</defs>
	<clipPath id="SVGID_76_">
		<use xlink:href="#SVGID_75_"  style="overflow:visible;"/>
	</clipPath>
	<path class="st52" d="M118.4,109.6c0.1-0.1,0.3-0.1,0.4-0.2c-0.1-0.1-0.1-0.2-0.2-0.3c0,0-0.1,0-0.1,0.1c-0.2,0.1,0,0.4,0.2,0.3
		c0,0,0.1,0,0.1-0.1c0.2-0.1,0-0.4-0.2-0.3c-0.1,0.1-0.3,0.1-0.4,0.2C118.1,109.4,118.2,109.7,118.4,109.6"/>
</g>
<g>
	<defs>
		<rect id="SVGID_77_" x="-7.7" y="-47.3" width="157.5" height="222.7"/>
	</defs>
	<clipPath id="SVGID_78_">
		<use xlink:href="#SVGID_77_"  style="overflow:visible;"/>
	</clipPath>
	<path class="st53" d="M23.3,109.4c-0.1,0-0.2,0-0.4,0v0.3C23.1,109.7,23.1,109.6,23.3,109.4c0-0.2,0.1-0.5,0.2-0.8
		c0.1-0.2-0.2-0.3-0.3-0.1c-0.2,0.3-0.3,0.7-0.3,1L23.3,109.4c-0.1-0.1-0.4-0.3-0.5-0.1c-0.1,0.2,0.1,0.4,0.3,0.3
		c0-0.1-0.1-0.2-0.1-0.3l-0.2,0.1c-0.2,0.1-0.1,0.3,0.1,0.3c0.4,0,0.8,0,1.2,0c0.2,0,0.2-0.3,0-0.3c-0.4,0-0.8,0-1.2,0
		c0,0.1,0.1,0.2,0.1,0.3c0.1,0,0.1-0.1,0.2-0.1c0.2-0.1,0-0.4-0.1-0.3L23.3,109.4l-0.2,0.1l0,0H23v-0.1
		C23,109.6,23.4,109.6,23.3,109.4c0-0.3,0-0.6,0.2-0.9c-0.1,0-0.2-0.1-0.3-0.1c-0.1,0.2-0.1,0.3-0.2,0.5l-0.1,0.4
		c-0.2,0-0.2,0.3,0,0.3s0.3,0,0.5,0C23.6,109.6,23.5,109.3,23.3,109.4"/>
</g>
<g>
	<g>
		<path class="st54" d="M49.3,24.1c-0.2,0.7-0.2,1.5-0.1,2.2c0.1,0.7,0.2,1.5,0.7,2c0.2,0.2,0.5,0.3,0.7,0.2
			c0.2-0.1,0.4-0.2,0.6-0.3c0.6-0.3,1.2-0.6,1.8-1s1.2-0.7,1.8-1.1c0.4-0.3,0.7-0.6,0.8-1.1c0.3-1.3-1.1-1.9-2.2-2.1
			c-0.8-0.1-1.6-0.1-2.4,0c-0.7,0.1-1.4,0.3-1.9,0.8c-0.3,0.3,0.2,0.7,0.5,0.5c0.4-0.3,0.9-0.5,1.3-0.6c0.6-0.1,1.2-0.2,1.8-0.1
			c0.5,0,1.1,0.1,1.6,0.3c0.2,0.1,0.4,0.2,0.5,0.4c0.1,0.1,0.2,0.3,0.2,0.4c0,0.2-0.1,0.4-0.2,0.6c0.1-0.1,0,0-0.1,0.1
			s-0.1,0.1-0.2,0.1c-0.5,0.3-0.9,0.6-1.4,0.9c-0.6,0.3-1.1,0.7-1.7,1c-0.4,0.2-0.8,0.4-1.1,0.5l0,0c0.1,0.1,0,0,0,0l-0.1-0.1
			c-0.1-0.1-0.2-0.2-0.2-0.3c-0.2-0.3-0.2-0.7-0.3-1c-0.1-0.7-0.1-1.5,0.1-2.1C50,23.9,49.4,23.7,49.3,24.1L49.3,24.1z"/>
	</g>
</g>
<g>
	<g>
		<path class="st54" d="M52.7,26.7c-0.4,0.4-0.6,0.9-0.9,1.3c-0.4,0.7-0.7,1.4-1,2.1c-0.5,1.3-1.2,3-0.9,4.5
			c0.2,1.3,1.6,1.7,2.7,1.1c1.4-0.8,1.7-2.6,1.9-4.1c0.2-1.7,0.2-3.5,0.2-5.3c0-0.4-0.7-0.4-0.7,0c0,1.3,0,2.7-0.1,4
			c-0.1,1.4-0.3,3.1-1.2,4.3c-0.6,0.7-2,1.1-2.3,0c-0.3-1.2,0.3-2.8,0.7-3.9c0.3-0.7,0.6-1.5,1-2.2c0.2-0.5,0.5-1,0.9-1.3
			C53.4,26.9,53,26.4,52.7,26.7L52.7,26.7z"/>
	</g>
</g>
<g>
	<g>
		<path class="st54" d="M59.1,23.4c-0.4,0.3-0.8,0.6-0.8,1.1c0,0.4,0.4,0.6,0.7,0.8c0.4,0.1,0.9,0.2,1.4,0.2s1.1,0,1.6-0.1
			c0.4-0.1,0.9-0.2,1.3-0.4c0.1-0.1,0.2-0.2,0.2-0.4c-0.3-0.8-1-1.1-1.8-1.2c-0.7-0.1-1.5,0-2.2-0.3c-0.4-0.1-0.6,0.5-0.2,0.6
			c0.6,0.2,1.4,0.2,2,0.3c0.6,0.1,1.2,0.2,1.5,0.8c0.1-0.1,0.1-0.2,0.2-0.4c-0.1,0-0.1,0.1-0.2,0.1l0,0c0,0,0.1,0,0,0h-0.1
			c-0.2,0.1-0.4,0.1-0.5,0.1s-0.2,0-0.3,0.1c0,0,0,0-0.1,0s0.1,0,0,0s-0.1,0-0.2,0c-0.2,0-0.5,0-0.7,0s-0.5,0-0.7,0
			c-0.1,0-0.2,0-0.3,0c0,0,0,0-0.1,0s0.1,0,0,0h-0.1c-0.1,0-0.2,0-0.3-0.1h-0.1l0,0c-0.1,0,0,0,0,0c-0.1,0-0.1-0.1-0.2-0.1
			c0.1,0.1,0,0,0,0s-0.1-0.1,0,0l0,0c0-0.1,0,0.1,0,0c0,0.1,0,0.1,0,0c0,0.1,0,0,0,0c0,0.1,0,0,0,0l0,0c0-0.1,0,0,0,0l0.1-0.1
			c0.1-0.1,0.2-0.2,0.3-0.2c0.1-0.1,0.2-0.3,0.1-0.5C59.5,23.3,59.3,23.2,59.1,23.4L59.1,23.4z"/>
	</g>
</g>
<g>
	<g>
		<path class="st54" d="M61.9,23.8c1.3-2.5,0.2-5.7-1.5-7.8c-0.8-1-1.7-1.8-2.9-2.3c-1.3-0.5-2.8-0.6-4.1-0.4
			c-1.5,0.2-2.9,0.7-4.1,1.6c-0.3,0.3,0.1,0.7,0.5,0.5c2.3-1.8,6.4-2.1,8.7-0.4s4.2,5.7,2.8,8.5C61.2,23.9,61.7,24.2,61.9,23.8
			L61.9,23.8z"/>
	</g>
</g>
<g>
	<g>
		<path class="st54" d="M56.7,13.6c0.3-1.1-0.2-2.2-0.9-3S54.1,9.1,53,9.1c-0.5,0-1,0.2-1.3,0.5s-0.6,0.8-0.6,1.2
			c0.1,0.9,1.4,1.3,2.1,1.5c0.6,0.2,1.2,0.4,1.8,0.6c0.4,0.2,0.9,0.4,1.2,0.7s0.7-0.1,0.5-0.5c-0.3-0.3-0.6-0.5-1-0.7
			c-0.5-0.2-0.9-0.4-1.4-0.5s-1-0.3-1.4-0.5c-0.3-0.1-0.7-0.3-1-0.5c-0.1-0.1-0.1-0.1-0.1-0.1v-0.1v-0.1c0-0.1,0-0.1,0.1-0.2
			c0.2-0.4,0.5-0.6,0.8-0.7c0.8-0.2,1.7,0.4,2.3,0.9c0.7,0.7,1.4,1.7,1,2.7C55.9,13.8,56.6,14,56.7,13.6L56.7,13.6z"/>
	</g>
</g>
<g>
	<g>
		<path class="st54" d="M57.2,13.8c1.2-1.8,1.8-4,3.3-5.6c1-1.2,2.5-2.1,4.1-1.9c0.6,0.1,1.2,0.4,1.4,1c0.3,0.7,0.2,1.6-0.1,2.3
			c-0.6,1.4-2.1,2-3.4,2.4c-1.5,0.5-3.2,0.8-4.6,1.7c-0.4,0.2,0,0.8,0.3,0.6c1.4-0.9,3.1-1.2,4.6-1.7c1.5-0.5,3.1-1.2,3.7-2.8
			c0.6-1.4,0.4-3.4-1.2-4c-1.4-0.5-3.2,0.1-4.3,1c-2.2,1.7-2.9,4.5-4.4,6.7C56.4,13.9,57,14.2,57.2,13.8L57.2,13.8z"/>
	</g>
</g>
<g>
	<g>
		<path class="st54" d="M61.3,25.6c0.4,3.3-0.5,6.7-0.7,10c-0.1,2-0.2,3.9-0.6,5.9c-0.4,1.9-0.8,3.7-0.9,5.6c0,0.2,0.2,0.4,0.4,0.3
			c1.1-0.2,1.9,0.4,1.2,1.5c-0.8,1.2-2.2,0.9-3.2,0.2c-0.2-0.1-0.5,0-0.5,0.3c0.2,2.9-5.3,1.5-4.5-0.9c0.1-0.4-0.4-0.5-0.6-0.3
			c-0.4,0.6-1,0.7-1.6,0.8c-0.4,0.1-0.2,0.7,0.2,0.6c0.8-0.2,1.5-0.4,2-1.1c-0.2-0.1-0.4-0.2-0.6-0.3c-1.2,3.4,6.1,4.9,5.8,1.1
			c-0.2,0.1-0.3,0.2-0.5,0.3c1.4,0.9,3.5,1,4.3-0.8c0.7-1.6-0.7-2.4-2.2-2.1c0.1,0.1,0.3,0.2,0.4,0.3c0.2-2.1,0.6-4.1,1-6.1
			c0.3-1.8,0.4-3.6,0.5-5.5c0.2-3.3,1.1-6.7,0.7-10C61.9,25.2,61.3,25.2,61.3,25.6L61.3,25.6z"/>
	</g>
</g>
<g>
	<g>
		<path class="st54" d="M81.9,57.2c-6.1,0.7-12.2,2.1-18.3,2.2c-4.9,0.1-10.5-0.9-12.6-5.9c-0.2-0.4-0.8-0.2-0.6,0.2
			c2,4.8,6.9,6.3,11.7,6.4c6.7,0.2,13.2-1.5,19.8-2.2C82.3,57.8,82.4,57.2,81.9,57.2L81.9,57.2z"/>
	</g>
</g>
<g>
	<g>
		<path class="st54" d="M74.6,27.6c6.1,0.7,12,3.6,14.1,9.8c1,2.9,1.1,6,0.4,9c-0.7,3.2-2.5,5.9-4.4,8.5c-0.2,0.3,0.3,0.7,0.6,0.3
			c2.1-2.9,3.9-5.8,4.6-9.4c0.5-3.1,0.3-6.3-0.8-9.3c-2.4-6-8.3-8.9-14.5-9.5C74.2,26.9,74.2,27.6,74.6,27.6L74.6,27.6z"/>
	</g>
</g>
<g>
	<g>
		<path class="st54" d="M66.4,44.6c-0.4,2.5,0.3,5,2.4,6.6c2,1.5,4.7,2,7.1,1.9s5.1-0.6,7-2.1c1.6-1.3,2.9-3.6,2.7-5.7
			c-0.1-0.9-0.4-1.7-1.3-2c-1.2-0.5-2.6,0.2-3.7,0.8c0.1,0.2,0.3,0.3,0.4,0.5c0.7-0.9,1-2.1-0.1-2.9c-1-0.7-2.5-0.6-3.5,0.1
			c0.2,0.1,0.3,0.2,0.5,0.4c0.8-3.1-3.4-2.4-5.1-1.5c-0.4,0.2,0,0.8,0.3,0.6c0.7-0.4,1.6-0.6,2.4-0.7c1.1-0.1,2,0.1,1.7,1.4
			c-0.1,0.3,0.2,0.6,0.5,0.4c0.7-0.5,1.6-0.7,2.4-0.4c1,0.4,1,1.3,0.4,2.1c-0.2,0.3,0.1,0.7,0.4,0.5c0.8-0.5,2-1.1,3-0.8
			c0.7,0.2,0.9,0.9,0.9,1.6c0.1,1.9-1,3.9-2.4,5c-1.6,1.4-4,1.9-6.1,2c-2.2,0.1-4.6-0.2-6.5-1.3c-2.3-1.3-3.3-3.7-2.9-6.3
			C67.1,44.4,66.5,44.2,66.4,44.6L66.4,44.6z"/>
	</g>
</g>
<g>
	<g>
		<path class="st54" d="M73,40.7c-0.2,1.4,1.3,1.8,2.4,2c0.6,0.1,1.2,0.1,1.8,0.4c0.5,0.2,0.1,0.7-0.2,1c-0.2,0.2-0.1,0.6,0.2,0.6
			c0.7,0,2.1-0.7,2.6,0.1c0.6,0.9-0.9,1.9-1.6,2.1c-0.4,0.1-0.2,0.7,0.2,0.6c1.4-0.3,2.7,0.2,2.9,1.7c0.2,1.2-0.6,2.4-1.9,2.5
			c-0.4,0-0.4,0.7,0,0.7c1.7-0.1,2.8-1.6,2.6-3.2c-0.3-1.9-2-2.7-3.8-2.3c0.1,0.2,0.1,0.4,0.2,0.6c1-0.4,2.5-1.5,2.1-2.8
			c-0.5-1.5-2.2-0.8-3.3-0.8c0.1,0.2,0.2,0.4,0.2,0.6c0.4-0.4,0.9-1,0.6-1.6c-0.2-0.5-0.9-0.6-1.3-0.7c-0.7-0.1-3.2-0.2-3.1-1.4
			C73.7,40.5,73,40.3,73,40.7L73,40.7z"/>
	</g>
</g>
<g>
	<g>
		<path class="st54" d="M44.8,22.1c-0.4,0.3-0.8,0.6-0.8,1.1c0,0.4,0.4,0.6,0.7,0.8c0.4,0.1,0.9,0.2,1.4,0.2s1.1,0,1.6-0.1
			c0.4-0.1,0.9-0.2,1.3-0.4c0.1-0.1,0.2-0.2,0.2-0.4c-0.3-0.8-1-1.1-1.8-1.2c-0.7-0.1-1.5,0-2.2-0.3c-0.4-0.1-0.6,0.5-0.2,0.6
			c0.6,0.2,1.4,0.2,2,0.3c0.6,0.1,1.2,0.2,1.5,0.8c0.1-0.1,0.1-0.2,0.2-0.4c-0.1,0-0.1,0.1-0.2,0.1l0,0c0,0,0.1,0,0,0h-0.1
			c-0.2,0.1-0.4,0.1-0.5,0.1s-0.2,0-0.3,0.1c0,0,0,0-0.1,0s0.1,0,0,0s-0.1,0-0.2,0c-0.2,0-0.5,0-0.7,0s-0.5,0-0.7,0
			c-0.1,0-0.2,0-0.3,0c0,0,0,0-0.1,0s0.1,0,0,0h-0.1c-0.1,0-0.2,0-0.3-0.1H45l0,0c-0.1,0,0,0,0,0c-0.1,0-0.1-0.1-0.2-0.1
			c0.1,0.1,0,0,0,0s-0.1-0.1,0,0l0,0c0-0.1,0,0.1,0,0c0,0.1,0,0.1,0,0c0,0.1,0,0,0,0c0,0.1,0,0,0,0l0,0c0-0.1,0,0,0,0l0.1-0.1
			c0.1-0.1,0.2-0.2,0.3-0.2c0.1-0.1,0.2-0.3,0.1-0.5C45.1,22,44.9,22,44.8,22.1L44.8,22.1z"/>
	</g>
</g>
<g>
	<g>
		<path class="st54" d="M45.8,24c-0.3,6.6-0.9,13.2,1.1,19.7c0.1,0.4,0.8,0.2,0.6-0.2c-2-6.4-1.3-12.9-1-19.5
			C46.5,23.6,45.8,23.6,45.8,24L45.8,24z"/>
	</g>
</g>
<g>
	<g>
		<path class="st54" d="M81.9,29.2c-0.4-2-0.9-4.1-1-6.2c-0.1-1.8-0.2-5.1,2.2-5.3c6.1-0.4,4.1,10.6,2.7,13.8
			c0.2,0.1,0.4,0.2,0.6,0.3c1.3-3.6,3-7.5,5.6-10.3c1.2-1.3,2.8-2.4,4.3-0.8c2.2,2.4,1.4,5.6-0.3,8c-1.9,2.6-4.7,4.8-7.7,6.2
			c0.1,0.2,0.3,0.3,0.4,0.5c1.6-1.4,3.3-2.6,5.1-3.7c1.9-1.2,4.3-2.5,6.7-2.3c2.7,0.2,3.6,3.4,2.7,5.6c-0.9,2.3-3.4,3.5-5.7,4
			c-2.5,0.6-5.6,0.7-7.8-0.6c0,0.2-0.1,0.4-0.1,0.6c2.4-0.9,7.3,0.3,8.2,3c0.6,2-1.2,3.2-3,3c-1.7-0.2-3.4-1-4.7-2
			c-0.3-0.3-0.8,0.2-0.5,0.5c2.2,1.8,9.2,4.3,9-0.9c-0.2-3.6-6.3-5.1-9.1-4.1c-0.3,0.1-0.3,0.5-0.1,0.6c2.2,1.3,5,1.3,7.5,0.9
			c2.5-0.4,5.4-1.5,6.7-3.9c1.1-2,0.9-5.2-1.1-6.6s-4.9-0.2-6.9,0.7c-2.6,1.3-5.1,3-7.3,4.9c-0.3,0.3,0.1,0.7,0.4,0.5
			c4.7-2.2,12.3-8.3,8.8-14.3c-2.9-5-7.1,1-8.6,3.9c-1.2,2.1-2.2,4.3-3,6.6c-0.1,0.3,0.5,0.6,0.6,0.3c0.9-2.1,1.3-4.5,1.4-6.8
			c0.1-2.2,0.1-5-1.5-6.8c-1.1-1.2-3.5-1.8-4.9-0.6c-1.4,1.2-1.3,3.5-1.2,5.1c0.1,2.2,0.6,4.4,1.1,6.6C81.3,29.8,82,29.6,81.9,29.2
			L81.9,29.2z"/>
	</g>
</g>
<g>
	<g>
		<path class="st54" d="M81.6,29.2c0.6-0.8,1.1-1.7,0.9-2.8c-0.2-0.9-0.8-1.7-1.6-2.1c-0.8-0.5-1.8-0.7-2.7-0.7
			c-0.9,0-1.9,0.2-2.3,1.1c-0.6,1.1,0.3,2.4,1,3.2c0.3,0.3,0.7-0.1,0.5-0.5c-0.5-0.6-1.2-1.4-1-2.2c0.2-0.7,1-0.9,1.7-0.9
			c1.4,0,3.3,0.6,3.7,2c0.3,0.9-0.1,1.8-0.7,2.5C80.9,29,81.4,29.5,81.6,29.2L81.6,29.2z"/>
	</g>
</g>
<g>
	<g>
		<path class="st54" d="M85.1,31.5c0.3-1.4,0.4-2.8,0.6-4.2c0.3-1.6,0.6-3.4,1.5-4.8c0.3-0.5,0.8-0.9,1.4-1c0.7,0,1.6,0.5,2,1
			c1.3,1.4,0.3,3.8-0.4,5.3c-0.9,1.9-2.1,3.7-3.4,5.3c-0.3,0.3,0.3,0.7,0.6,0.3c1.2-1.6,2.4-3.3,3.3-5.2c0.8-1.6,1.8-4,0.7-5.8
			c-0.8-1.3-2.8-2.2-4.1-1.2c-1.4,1-1.8,3-2.1,4.6c-0.4,1.8-0.4,3.7-0.9,5.5C84.3,31.8,85,31.9,85.1,31.5L85.1,31.5z"/>
	</g>
</g>
<g>
	<g>
		<path class="st54" d="M88.1,34.4c1.9-2,4.1-4,6.5-5.4c0.9-0.5,2.3-1.3,3.3-0.8c0.5,0.3,0.7,0.9,0.8,1.5c0.2,1.2-0.2,2.4-1,3.4
			c-0.9,1.2-2.1,2-3.3,2.7c-1.4,0.8-3.1,1.4-4.8,1c-0.4-0.1-0.6,0.5-0.2,0.6c2.8,0.6,5.9-1.1,7.9-3c1.6-1.5,2.8-4,1.6-6.2
			c-0.7-1.2-2.1-1.2-3.3-0.7c-1.6,0.6-3.1,1.7-4.5,2.8c-1.3,1-2.5,2.1-3.6,3.3C87.3,34.2,87.8,34.7,88.1,34.4L88.1,34.4z"/>
	</g>
</g>
<g>
	<g>
		<path class="st54" d="M50.4,49.4c-2.2-0.7-4.9-3.2-3-5.5c0.3-0.3-0.2-0.8-0.5-0.5c-0.5,0.6-0.8,1.3-0.8,2.1c0,0.7,0.2,1.4,0.6,2
			c0.8,1.2,2.1,2.1,3.5,2.6C50.7,50.1,50.8,49.5,50.4,49.4L50.4,49.4z"/>
	</g>
</g>
<g>
	<g>
		<path class="st54" d="M66.7,44.9c-0.1,1.2,0.5,2.3,1.7,2.5c1,0.2,2.1-0.2,2.4-1.2c0.2-0.7,0-1.4-0.4-2c-0.2,0.2-0.3,0.3-0.5,0.5
			c0.9,0.5,1.9,0.1,2.4-0.7c0.7-1,0.4-2.2-0.4-3c0,0.2,0,0.3-0.1,0.5c0.5-0.2,0.9-0.2,1.4-0.2c0.4,0,0.4-0.7,0-0.7
			c-0.6,0-1.2,0-1.8,0.3c-0.2,0.1-0.2,0.4-0.1,0.5c0.6,0.6,0.9,1.4,0.4,2.2c-0.3,0.5-1,0.8-1.6,0.5c-0.3-0.2-0.6,0.2-0.5,0.5
			c0.4,0.7,0.6,1.6-0.2,2.1c-0.6,0.3-1.4,0.2-1.9-0.3c-0.4-0.4-0.4-0.9-0.4-1.4C67.4,44.5,66.7,44.5,66.7,44.9L66.7,44.9z"/>
	</g>
</g>
<path class="st55" d="M59.8,18.9c0-2.1-1.7-3.8-3.8-3.8s-3.8,1.7-3.8,3.8s1.7,3.8,3.8,3.8C58,22.7,59.8,21,59.8,18.9z"/>
<path class="st55" d="M52.1,18.9c0-2.1-1.7-3.8-3.8-3.8s-3.8,1.7-3.8,3.8s1.7,3.8,3.8,3.8C50.4,22.7,52.1,21,52.1,18.9z"/>
<path class="st54" d="M56.1,17.6c-0.7,0-1.3,0.5-1.3,1.2s0.5,1.3,1.2,1.3s1.3-0.5,1.3-1.2C57.3,18.3,56.8,17.7,56.1,17.6z
	 M56.5,19.7c-0.2,0-0.4-0.2-0.4-0.4c0-0.2,0.2-0.4,0.4-0.4s0.4,0.2,0.4,0.4C56.8,19.5,56.7,19.7,56.5,19.7z"/>
<path class="st54" d="M48.4,17.6c-0.7,0-1.2,0.6-1.2,1.2c0,0.7,0.6,1.2,1.2,1.2c0.7,0,1.2-0.6,1.2-1.2
	C49.6,18.2,49.1,17.6,48.4,17.6z M48.9,19.7c-0.2,0-0.4-0.2-0.4-0.4c0-0.2,0.2-0.4,0.4-0.4s0.4,0.2,0.4,0.4
	C49.3,19.5,49.1,19.7,48.9,19.7z"/>
<g>
	<g>
		<path class="st54" d="M51.1,53.9c-0.5-1-1.3-1.8-1.9-2.6c-0.7-0.8-1.2-1.7-1.2-2.8c0-0.4-0.7-0.4-0.7,0c0,1.1,0.5,2.1,1.2,3
			s1.5,1.7,2,2.7C50.7,54.6,51.3,54.3,51.1,53.9L51.1,53.9z"/>
	</g>
</g>
<g>
	<g>
		<path class="st54" d="M61.7,31.5c2-0.9,3.6-2.4,5.7-3c2.4-0.6,4.9-1.2,7.4-0.9c0.4,0,0.4-0.6,0-0.7c-2.5-0.2-5.2,0.3-7.6,1
			c-2.2,0.6-3.9,2.1-5.9,3C61,31.1,61.4,31.7,61.7,31.5L61.7,31.5z"/>
	</g>
</g>
<g>
	<g>
		<path class="st54" d="M81.8,57.8c1.5-0.3,2.6-1.7,3.6-2.7c0.3-0.3-0.2-0.8-0.5-0.5c-0.5,0.5-1,1.1-1.6,1.6c-0.5,0.4-1.1,0.8-1.7,1
			C81.2,57.3,81.4,57.9,81.8,57.8L81.8,57.8z"/>
	</g>
</g>
<g>
	<g>
		<path class="st54" d="M98.2,48.3c-1.8,0.2-3.6,1.1-5,2.2c-1,0.8-2.4,2.4-1.4,3.7c0.6,0.8,1.6,1.1,2.5,1.3c0.8,0.2,1.6,0,2.4-0.2
			c1.6-0.6,3.2-1.8,3.9-3.3c0.4-0.7,0.6-1.5,0.3-2.2c-0.4-0.9-1.3-1.3-2.2-1.5c-0.2-0.1-0.3,0.3-0.1,0.3c0.7,0.2,1.5,0.5,1.9,1.2
			c0.3,0.6,0.2,1.2-0.1,1.8c-0.6,1.4-2,2.6-3.4,3.2c-0.7,0.3-1.4,0.5-2.2,0.5c-0.9,0-1.9-0.4-2.5-0.9c-1.3-1-0.2-2.5,0.7-3.3
			c0.7-0.7,1.6-1.2,2.5-1.6c0.8-0.4,1.7-0.7,2.6-0.8C98.4,48.6,98.4,48.2,98.2,48.3L98.2,48.3z"/>
	</g>
</g>
<g>
	<g>
		<path class="st54" d="M107.6,60.1c1.4,0.7,2.6-0.7,3.1-1.9c0.6-1.7-0.2-3.5-1.4-4.7c-0.8-0.8-2.1-1.6-3.2-1
			c-1.2,0.7-1.1,2.4-0.9,3.6C105.5,57.6,106.3,59.3,107.6,60.1c0.4,0.2,0.7-0.4,0.3-0.6c-1-0.6-1.6-1.8-1.9-2.8s-0.6-2.4,0-3.3
			c0.6-0.8,1.7-0.3,2.3,0.1c1.1,0.8,2,2.3,1.9,3.7c-0.1,1-1,2.9-2.3,2.3C107.6,59.3,107.3,59.9,107.6,60.1z"/>
	</g>
</g>
<g>
	<g>
		<path class="st54" d="M115,73.6c0-0.3-0.5-0.5-0.6-0.7c-0.5-0.5-1-0.9-1.4-1.4c-0.5-0.5-1-1.1-1.5-1.7c-0.3-0.5-0.7-1-0.7-1.6
			s0.5-0.8,0.9-0.9c0.8-0.2,1.7-0.1,2.4,0.3c1.3,0.8,2.2,2.5,2.5,4c0.1,0.6,0.3,1.4,0,2C116.2,74.2,115.4,73.8,115,73.6
			c-0.2-0.2-0.4,0.1-0.2,0.2c0.5,0.3,1.3,0.7,1.8,0.3c0.5-0.3,0.5-1,0.5-1.5c-0.1-1.7-0.9-3.4-2.1-4.6c-0.6-0.6-1.3-1-2.1-1
			c-0.7,0-1.7,0-2.2,0.5c-0.9,1,0.5,2.6,1.1,3.3c0.6,0.7,1.2,1.3,1.9,2c0.2,0.2,0.5,0.5,0.7,0.7c0.1,0.1,0.1,0.1,0.2,0.2
			s0.1,0.1,0.1,0C114.7,73.8,115,73.8,115,73.6L115,73.6z"/>
	</g>
</g>
<g>
	<g>
		<path class="st54" d="M114.3,84.8c0.7-0.9,0.9-2.2,0.8-3.4c-0.1-0.5-0.2-1-0.5-1.4c-0.4-0.4-0.9-0.3-1.4-0.1
			c-0.6,0.3-1.1,0.8-1.4,1.3s-0.5,1.1-0.5,1.7c-0.1,0.6,0,1.2,0.2,1.8c0.1,0.5,0.3,0.9,0.7,1.3c0.4,0.4,0.9,0.4,1.4,0.2
			c0.7-0.4,1.1-1.2,1.4-1.9c0.1-0.2,0-0.4-0.1-0.5s-0.4,0-0.5,0.1c-0.2,0.6-0.5,1.2-1,1.6c-0.1,0.1,0.1,0,0,0l0,0l-0.1,0.1
			c0.1,0,0,0-0.1,0c0,0,0,0-0.1,0s0.1,0,0,0H113c-0.1,0,0.1,0,0,0l0,0c0,0-0.1-0.1,0,0c0,0-0.1,0-0.1-0.1l0,0c0,0,0.1,0.1,0,0
			l-0.1-0.1l-0.1-0.1c0.1,0.1,0-0.1-0.1-0.1c-0.1-0.2-0.2-0.3-0.2-0.5c-0.2-0.5-0.2-0.9-0.2-1.4s0.1-1,0.3-1.5c0,0.1,0-0.1,0-0.1
			v-0.1c0-0.1,0.1-0.1,0.1-0.2c0.1-0.1,0.1-0.2,0.2-0.3c0.2-0.2,0.4-0.4,0.7-0.6c0.1-0.1,0.2-0.1,0.3-0.2c0.1,0,0.1-0.1,0.3-0.1
			c0.1,0-0.1,0,0,0c0,0,0,0,0.1,0h0.1c-0.1,0,0,0,0.1,0c0,0,0.1,0,0,0c0,0,0,0,0.1,0l0,0c0.1,0-0.1-0.1,0,0l0.1,0.1c0,0,0.1,0.1,0,0
			l0,0l0.1,0.1l0,0c0,0.1,0-0.1,0,0v0.1c0,0.1,0.1,0.2,0.1,0.3v0.1l0,0c0,0,0,0,0,0.1s0,0.1,0,0.2s0,0.3,0,0.4c0,0.3,0,0.5-0.1,0.8
			c-0.1,0.6-0.3,1.1-0.6,1.6c-0.1,0.1,0,0.4,0.1,0.5C114,85.1,114.2,85,114.3,84.8L114.3,84.8z"/>
	</g>
</g>
<g>
	<g>
		<path class="st54" d="M99,46.5c1.1,0,2.1,0.4,2.8,1.2c0.8,0.8,0.9,2,0.7,3.1c0,0.2,0.3,0.3,0.3,0.1c0.2-1.2,0-2.4-0.8-3.4
			c-0.8-0.9-1.9-1.3-3.1-1.3C98.7,46.1,98.7,46.5,99,46.5L99,46.5z"/>
	</g>
</g>
<g>
	<g>
		<path class="st54" d="M103.4,55.9c0.5,2.1,2.1,3.8,3.9,5c0.4,0.2,0.7-0.3,0.3-0.6c-1.6-1.1-3.1-2.6-3.6-4.6
			C103.9,55.3,103.3,55.5,103.4,55.9L103.4,55.9z"/>
	</g>
</g>
<g>
	<g>
		<path class="st54" d="M113.5,65c1.4,0.1,2.7,0.8,3.6,1.9c0.9,1,1.5,2.3,2,3.6c0.1,0.2,0.4,0.1,0.3-0.1c-0.5-1.3-1.2-2.7-2.2-3.8
			c-1-1.1-2.3-1.8-3.8-1.9C113.3,64.6,113.3,65,113.5,65L113.5,65z"/>
	</g>
</g>
<g>
	<g>
		<path class="st54" d="M117.9,65.2c1,0.8,1.5,2,1.5,3.3c0,0.2,0.3,0.2,0.3,0c0-1.4-0.6-2.7-1.7-3.6
			C117.9,64.8,117.8,65.1,117.9,65.2L117.9,65.2z"/>
	</g>
</g>
<g>
	<g>
		<path class="st54" d="M110.4,78.9c-2.7,3.1-2,7.7-0.6,11.2c0.2,0.4,0.8,0.2,0.6-0.2c-1.3-3.2-2.1-7.7,0.4-10.5
			C111.1,79,110.6,78.6,110.4,78.9L110.4,78.9z"/>
	</g>
</g>
<g>
	<g>
		<path class="st54" d="M107.1,86.3c0.2,0.7,0.5,1.5,0.5,2.3c0,0.2,0.2,0.3,0.3,0.3c0.2,0,0.3-0.2,0.3-0.3c0-0.9-0.3-1.7-0.5-2.5
			c-0.1-0.2-0.2-0.3-0.4-0.2C107.2,86,107,86.2,107.1,86.3L107.1,86.3z"/>
	</g>
</g>
<g>
	<g>
		<path class="st54" d="M89.8,55.7c0.5,0.6,1.1,1.1,1.8,1.5c0.7,0.3,1.5,0.5,2.2,0.7c0.2,0,0.3-0.3,0.1-0.3
			c-0.7-0.1-1.5-0.3-2.1-0.6c-0.7-0.3-1.3-0.8-1.8-1.4C89.9,55.3,89.7,55.5,89.8,55.7L89.8,55.7z"/>
	</g>
</g>
<g>
	<g>
		<path class="st54" d="M110.6,53.4c0.2,0.2,0.4,0.4,0.5,0.5s0.1,0.1,0.2,0.1s0.2,0,0.2-0.1c0.1-0.1,0.1-0.1,0.1-0.2
			c0-0.1,0-0.2-0.1-0.2c-0.2-0.2-0.4-0.4-0.5-0.5s-0.1-0.1-0.2-0.1s-0.2,0-0.2,0.1c-0.1,0.1-0.1,0.1-0.1,0.2
			C110.5,53.3,110.6,53.4,110.6,53.4L110.6,53.4z"/>
	</g>
</g>
<g>
	<g>
		<path class="st54" d="M53.4,22c1.6,0,3.1-0.5,4.7-0.3c0.2,0,0.4,0,0.4-0.2s-0.1-0.4-0.2-0.4c-1.6-0.3-3.2,0.2-4.9,0.3
			C53,21.4,53,22,53.4,22L53.4,22z"/>
	</g>
</g>
<polygon class="st54" points="104.5,102.1 105.5,102.1 109,103.2 112.6,104.1 115.8,105.5 117.4,107 118.4,108.9 111.6,114.1 
	110.2,111.9 106.8,111.3 106,111.6 104.5,111.5 104.5,111.1 "/>
</svg>
