<?xml version="1.0" encoding="utf-8"?>
<!-- Generator: Adobe Illustrator 24.0.1, SVG Export Plug-In . SVG Version: 6.00 Build 0)  -->
<svg version="1.1" id="Layer_1" xmlns="http://www.w3.org/2000/svg" xmlns:xlink="http://www.w3.org/1999/xlink" x="0px" y="0px"
	 viewBox="0 0 141.7 141.7" style="enable-background:new 0 0 141.7 141.7;" xml:space="preserve">
<style type="text/css">
	.st0{fill:#E8F3F9;}
	.st1{fill:url(#SVGID_1_);}
	.st2{fill:#C88D65;}
	.st3{fill:#FFFFFF;}
	.st4{fill:#FDED1E;}
	.st5{fill:#FAA324;}
	.st6{fill:#4D342A;}
	.st7{fill:#C9B09D;}
	.st8{fill:#BB2025;}
	.st9{fill:#2E9445;}
	.st10{fill:#EE6459;}
	.st11{fill:#070707;}
	.st12{fill:#FFC521;}
	.st13{fill-rule:evenodd;clip-rule:evenodd;fill:#698639;}
</style>
<polygon class="st0" points="124.6,112.6 122.4,119.3 126.7,124.9 119.6,125 115.6,130.8 113.4,124.1 106.6,122.1 112.3,117.9 
	112.1,110.8 117.9,115 "/>
<polygon class="st0" points="85.6,130.5 85.5,132.7 87.2,134 85.1,134.5 84.4,136.6 83.2,134.7 81,134.7 82.4,133 81.8,130.9 
	83.8,131.7 "/>
<polygon class="st0" points="106.9,101.2 107.5,106 111.8,108.2 107.4,110.2 106.6,115 103.3,111.5 98.5,112.2 100.9,107.9 
	98.7,103.6 103.5,104.5 "/>
<polygon class="st0" points="66,116.3 63.4,119.5 64.5,123.5 60.6,122 57.2,124.3 57.4,120.1 54.1,117.6 58.2,116.5 59.6,112.6 
	61.9,116.1 "/>
<polygon class="st0" points="54.1,128.5 53.9,131 55.9,132.6 53.4,133.2 52.4,135.6 51.1,133.4 48.6,133.2 50.2,131.3 49.6,128.8 
	52,129.8 "/>
<polygon class="st0" points="70,129.9 69.1,130.3 69,131.3 68.3,130.6 67.3,130.7 67.8,129.9 67.3,129 68.3,129.1 69,128.4 
	69.1,129.4 "/>
<linearGradient id="SVGID_1_" gradientUnits="userSpaceOnUse" x1="93.2814" y1="68.6997" x2="93.2814" y2="68.6997">
	<stop  offset="0" style="stop-color:#30C1D4"/>
	<stop  offset="0.9108" style="stop-color:#DFE0F1"/>
</linearGradient>
<path class="st1" d="M93.3,68.7"/>
<path class="st2" d="M23.3,73.3c0,0,0-2.7,3.3-4.4c0,0-0.4-1.1-3.3,0c0,0,4.5-4.7,9.4-7.7l-4.2,1l1.2-1c0,0,0.7-2.1,7.4-3.7l4.6-2.2
	l-1.4-1.2l-0.6-2.6l2.3-3l3.1-3.7l1.9,3.6l1.3,3.3l-0.5,1.9l3.2-0.7l2.2,1c0,0,0.7,1.2,4.4-2.9c0,0,0.2,2.7-1.2,4l3.6-0.6L58.1,57
	l3.3,1.2l-0.1,1.3l-1.5,1.2l-0.5,0.8l0,1.5l0.5,1.2l1.2-1.4l2.3-0.4l2.4,0.9l1.8-0.4l0.2,1l-1.9,2.3l-2,1.9l-2.4,0.2l-1.8-0.1
	l-0.1,2.1l-0.8,4.9L57.4,82L56,79.3l-2.6,5.5l-0.4,1.3c0,0,0.5-11.2-11.4-15.5C41.6,70.7,31.7,65.9,23.3,73.3z"/>
<path class="st2" d="M42.4,97.3c0,0,3.7,6.4-6.1,9.9c0,0-2.9,10.2,8.3,15c0,0,4.7-2.7,7-8.7c0,0,5.1-7.5,10.4-8c0,0,7.3-0.6,7.8,8.5
	c0,0,1.5,8.6,10.3,10.4l5.2-4.5c0,0,5.9-6.7,2.6-11.5l-5.9-1.3c0,0-5-1.9-4.3-4.6c0,0-0.4-2.1,3.4-2.1c0,0,4.1-3,3.4-6.6
	c-0.1-0.5,0.5-5.6-5.3-8.4c0.1,0.1,1.3,1.8,0.4,3.8c-0.8,2-2.9,2.4-3,2.4c0,0-1,0.3-6.3-1.4l-3.8,1l-3.2,0.7l-3.1,0.4l-2.3,0
	l-3.6-1.4l-2.2-1.7l-1.9,3.1l-2.8,2.7l-3.9,1.6L42.4,97.3z"/>
<circle class="st3" cx="45.4" cy="62.3" r="4.8"/>
<circle class="st3" cx="53.6" cy="68.4" r="4.8"/>
<polygon class="st4" points="38.5,24 35.1,20.2 40,20.5 42.5,15.9 44.3,20.4 48.6,21.4 44.9,24.7 45.5,29.4 41.4,26.6 37,29 "/>
<polygon class="st5" points="91.8,14 93,5.4 99.3,12.2 108.2,10.6 104.2,18.4 108.2,26.3 99.2,25 92.8,30.7 91.9,21.9 83.4,17.8 "/>
<path class="st6" d="M46.7,47.8c0.9-2.5,1.7-4.4,2.3-5.7c0.6-1.4,1.2-2.7,0.6-3.7c-0.4-0.7-1.2-1-1.4-1.1c-2.6-0.9-8.4-5.5-8.7-7.1
	c0,0-1.5-1.9,0.1-2.8c0,0,1.3-0.7,4,2l4.5,4.6c0,0,1.7,2.5,2.9,1.6c0.1,0,0.2-0.2,0.5-0.5c0.1-0.1,0.2-0.2,0.3-0.2
	c0.1-0.1,0.2-0.2,0.3-0.3c0.8-1.9,1.6-3.7,2.3-5.6c0.7-1.4,1.6-3,2.8-4.7c1.2-1.7,2.4-3.1,3.5-4.3c1.8-1.5,3.6-3.1,5.3-4.6
	c0,0,3.6-1.1,1.6,2.5l-4.4,6.4c-1.6,2.6-3.2,5.2-4.8,7.8c-1.2,2.5-2.4,4.9-3.6,7.4c-0.7,1.6-1.3,3.3-1.9,5.2c-1,3.1-1.6,6-2,8.6
	c-1.1,0.2-2.2,0.3-3.3,0.5c0.2-0.7,0.5-1.4,0.7-2.1L46.7,47.8z"/>
<path class="st6" d="M60.9,57.5c0,0,9.7-6.5,10-7.7l5.6-6.3l6.6-9.5c1.4-2.5,2.9-5.1,4.3-7.6c1.7-2.2,2.8-3.1,3.4-2.8
	c0.3,0.1,0.4,0.5,0.4,1.2c-0.2,1.2-0.4,2.4-0.5,3.6L88.4,34l-3.9,5.8l-5.2,6.4l-7.1,6c0,0-0.8,0.3-0.9,0.9c-0.1,0.8,1.1,1.6,1.8,2.1
	c0.6,0.4,1.7,1,3.2,1.2c1,0.5,1.7,1.5,1.7,2.5c0,0.7-0.4,1.3-0.4,1.3c-0.3,0.5-0.8,0.8-1,0.8c-1.5,0.7-3.4-0.2-3.7-0.4
	c0,0-0.7-0.3-3.1-2.5l0,0l-2-1.3l-1.9,1l-2.5,2.4l-1.5,1.3l-0.4,1.2l-1.6,1.4l-0.7-2l1.3-1.5l1.2-1.5l-0.2-1
	C61.3,58,61.1,57.7,60.9,57.5z"/>
<path class="st7" d="M20.5,76.5c0,0,7.1-13.3,23.9-4.8c0,0,15.5,9.6,3.9,22.4c0,0-10.2,8.8-24.6-2.2C23.7,92,16.6,83.9,20.5,76.5z"
	/>
<path class="st8" d="M29.6,114.7c0,0,1.1-4.8,6.2-3.8l0.4,2.8c0,0-4.2,1.9-4.4,5.9l3.3,2.7c0,0-0.3-3.6,3.1-4.4l3.1,2.9l-1.4,2.7
	c0,0,3.4,0.6,4.6-1.4c0,0-10.9-4.5-8.3-15c0,0-5.7-0.1-6.6,2.4C29.6,109.6,28.5,111.3,29.6,114.7z"/>
<path class="st8" d="M79.9,124.1c0.9,0.3,2.3,0.5,3.9,0.4c3.3-0.3,5.5-2,6.4-2.8c-0.4,0.2-1.7,0.6-3.3,0.1c-1.3-0.4-2.1-1.2-2.5-1.5
	c1.1-1.1,2.2-2.3,3.3-3.4c0,0,0.5,1.9,5,2.1l1.4-6.2c-3.2-1.5-4.4-1.3-4.8-0.8c-0.3,0.3-0.5,1.1-0.6,1.1c0,0,0,0,0.1-0.4
	c0-0.1,0.1-0.2,0.1-0.3c0,0-0.4,1.8-1,3.3c-1,2.5-2.7,4.1-4.4,5.7C82.6,122.1,81.4,123.1,79.9,124.1z"/>
<path class="st9" d="M88.6,108.2c1.5-0.1,2.9-0.3,4.4-0.4c0,0,1.7,3.1,1.1,5.1c0,0-2.5-2.5-5.1-0.5C88.8,111,88.7,109.6,88.6,108.2z
	"/>
<path class="st9" d="M87.6,116.9c0,0,0.8,2.1,5,2.1l-3.1,3.1c0,0-4.7-0.2-5.2-1.9L87.6,116.9z"/>
<path class="st9" d="M35.8,110.9l0.4,2.8c0,0-3.5,1.2-4.4,5.5l-2.2-4.5C29.6,114.7,30.7,109.9,35.8,110.9z"/>
<path class="st9" d="M38.1,117.9l3.1,2.4l-1.7,3.1c-0.2,0.1-0.6,0.2-1.1,0.2c-0.6,0-1.1-0.1-2-0.4c-0.7-0.3-1.1-0.4-1.2-0.5
	c-0.6-0.8,0.1-2.3,0.7-3.1C36.7,118.6,37.6,118.1,38.1,117.9z"/>
<path class="st6" d="M31.8,76.1c0,0,0.1,3,2.2,1.8C34,77.9,34.5,75.2,31.8,76.1z"/>
<path class="st6" d="M43.1,79.8c0,0,3.2,0.7,3.1,1.8L44.7,82l-1.2-0.7L43.1,79.8z"/>
<path class="st8" d="M60.4,92.2l0.9-1.2c0,0-3.3-1.9,0.1-4.4l-0.9-1.1C60.4,85.5,54.5,87.9,60.4,92.2z"/>
<path class="st8" d="M61.5,86.1c0,0-2.6-5.5,1.4-6.9l0.7-0.6l0.7,3.1l-1.1,2.2l1.5-1.4l0.8-0.4c0,0,3.3-1.2,3.6,2
	c0,0,0.9,1.8-3.7,2.8l-2.1-0.2l-0.8-0.4c0.7-0.2,1.5-0.4,2.3-0.5c0.4-0.1,0.9-0.2,1.3-0.2c0.5-0.2,1.1-0.4,1.6-0.5
	c0-0.4,0-0.7-0.1-1.1c-0.4-0.1-0.8-0.3-1.2-0.4c-0.7,0.3-1.3,0.5-2,0.8l-0.6,1.3C63.1,85.8,62.3,85.9,61.5,86.1z"/>
<path class="st8" d="M57.2,92.4l1.3,7.1l-1,6.2l-1,2.4l4-2.6c0,0,0.1-8.5-1.7-13.3L57.2,92.4z"/>
<path class="st8" d="M63.2,92.4c0,0-2.2,5.9-0.5,13.2c0,0,3.1,0.1,4.6,1.5c0,0-4.2-13.7-2.8-15.7L63.2,92.4z"/>
<path class="st10" d="M30.7,85.7c-0.1,0.8-0.1,1.5-0.2,2.3c-0.2,2.4,0.9,4.6,2.8,5.4c1.6,0.7,3.2,0.2,3.6,0c0.3-0.2,1.2-0.8,1.6-2
	c0.6-1.4,0.3-2.7,0.2-3.1c-1-0.1-2.2-0.4-3.5-0.8C33.4,87.1,31.9,86.4,30.7,85.7z"/>
<path class="st7" d="M42.5,55.5c-0.4-0.3,3.5-3.4,2.5-10.6c-0.4,0.4-0.9,1-1.6,1.8c-1.7,1.8-1.8,1.7-2.2,2.3
	c-0.4,0.5-1.7,2.4-1.2,4.4c0.1,0.4,0.3,1.1,0.9,1.6C41.5,55.5,42.2,55.5,42.5,55.5z"/>
<path class="st7" d="M59.6,68.6c0,0,1.3-6.1,7.2-3.5l0.6,0.3l-3.1,2.3l-2.2,0.7l-1.6-0.1L59.6,68.6z"/>
<g>
	<g>
		<path class="st11" d="M42.1,55.2c-2.4-0.6-2.1-3.7-1.1-5.4c1.2-1.9,3.1-3.2,4.4-5.1c-0.2,0-0.4-0.1-0.7-0.1c0.5,2.7,5.1,7,2,9.5
			c-0.4,0.3,0.2,0.8,0.5,0.5c3.6-2.8-1.3-7.3-1.8-10.2c-0.1-0.3-0.5-0.3-0.7-0.1c-1.6,2.4-4.7,4.1-5.1,7.1c-0.3,1.8,0.4,3.9,2.3,4.4
			C42.4,56.1,42.6,55.4,42.1,55.2L42.1,55.2z"/>
	</g>
</g>
<g>
	<g>
		<path class="st11" d="M60.8,63.9c0.7-1.5,2.5-1.2,3.8-0.9c1.2,0.3,2.2,0.6,3.4,0.3c-0.1-0.1-0.3-0.3-0.4-0.4
			c-0.5,3.4-3.9,5.7-7.2,4.9c-0.5-0.1-0.7,0.6-0.2,0.7c3.7,0.9,7.6-1.7,8.1-5.4c0-0.3-0.2-0.5-0.4-0.4c-2.2,0.5-6.3-2.2-7.7,0.9
			C60,64,60.6,64.3,60.8,63.9L60.8,63.9z"/>
	</g>
</g>
<g>
	<g>
		<path class="st11" d="M46.3,55.3c1.4-0.9,3-2,4.7-1.6c0.9,0.2,1.6,0.8,2.6,0.6c1.9-0.3,3.1-2.2,4-3.7c-0.2,0-0.4-0.1-0.7-0.1
			c0.4,1.7,0,3.3-1,4.7c-0.2,0.2,0.1,0.6,0.3,0.6c1.4-0.1,2.7-0.3,4-0.7c-0.1-0.2-0.2-0.4-0.4-0.6c-0.7,0.9-1.4,1.8-2.1,2.6
			c-0.2,0.2-0.1,0.5,0.2,0.6c0.7,0.2,2.8,0.4,3.1,1c0.6,1.2-1.5,1.7-2.1,2.4c-0.8,1.1,0.9,2.1,0.4,3.2c-0.2,0.4,0.4,0.8,0.6,0.4
			c0.6-1.3-1.1-2.4,0-3.5c0.5-0.5,1-0.6,1.4-1.2c0.3-0.5,0.5-1.2,0.5-1.8c0-0.2-0.1-0.3-0.3-0.4c-1.2-0.3-2.3-0.6-3.5-0.8
			c0.1,0.2,0.1,0.4,0.2,0.6c0.7-0.9,1.4-1.8,2.1-2.6c0.2-0.3,0-0.7-0.4-0.6c-1.3,0.4-2.5,0.6-3.8,0.7c0.1,0.2,0.2,0.4,0.3,0.6
			c1.2-1.5,1.5-3.4,1.1-5.2c-0.1-0.3-0.5-0.4-0.7-0.1c-0.5,0.9-1.1,1.9-2,2.6c-1.4,1.2-2.3,0.5-3.8,0.1c-1.9-0.5-3.7,0.6-5.3,1.7
			C45.6,55,45.9,55.6,46.3,55.3L46.3,55.3z"/>
	</g>
</g>
<g>
	<g>
		<path class="st11" d="M51.3,54c0.9-8.6,4.6-16.6,9-24c2.2-3.6,4.5-7.1,6.9-10.6c0.6-0.9,2-2.4,1.4-3.7c-0.5-0.9-1.6-0.8-2.4-0.5
			c-1.5,0.6-2.7,1.9-3.7,3c-1.5,1.4-2.8,3-4.1,4.6c-2.3,3-4.3,6.3-5.8,9.8c-0.3,0.7-0.5,1.7-0.9,2.3c-0.9,1.2-2.2,0-3-0.7
			c-1.3-1.1-2.4-2.6-3.5-3.9c-1-1.1-4.8-5.2-6.2-2.5c-0.5,1.1,0.2,2.5,0.8,3.3c1.2,1.6,2.9,3.1,4.5,4.3c0.9,0.6,1.8,1.2,2.8,1.7
			c0.4,0.2,0.8,0.3,1.2,0.6c1.2,0.8,1.3,1.6,0.9,2.8c-0.7,2.5-1.7,5-2.5,7.4c-0.2,0.4,0.6,0.6,0.7,0.2c0.7-1.9,1.3-3.9,2-5.8
			c0.4-1.3,1.4-3.1,0.4-4.4c-0.8-1-2.5-1.4-3.6-2c-1.7-1-3.3-2.3-4.7-3.7c-0.6-0.6-1.2-1.2-1.6-1.9c-0.2-0.3-0.5-1.1-0.4-1.5
			c0.4-1.6,1.9-0.6,2.5-0.2c1.3,0.9,2.3,2.1,3.3,3.3c0.9,1.1,1.9,2.3,3,3.2c0.7,0.6,2.1,1.7,3.1,1.2c1-0.4,1.3-2.4,1.7-3.3
			c0.7-1.7,1.6-3.4,2.6-5.1c1.8-3.1,4-6,6.5-8.6c1.1-1.2,2.4-2.7,3.9-3.4c1-0.5,2.2-0.6,1.5,1.4c-0.1,0.4-0.6,0.9-0.8,1.2
			c-0.6,0.8-1.1,1.7-1.7,2.5c-2.2,3.2-4.3,6.5-6.3,9.9c-4.1,7.1-7.4,14.8-8.3,23.1C50.5,54.5,51.2,54.5,51.3,54L51.3,54z"/>
	</g>
</g>
<g>
	<g>
		<path class="st11" d="M60.4,58.4c6.6-4.3,12.6-9.7,17.4-16c2.4-3.1,4.6-6.5,6.5-10c1.9-3.6,3.9-7.4,7.3-9.7
			c-0.2-0.1-0.4-0.2-0.6-0.3C90.3,35.6,80,44.9,70.7,53.1c-0.1,0.1-0.1,0.3-0.1,0.4c1,1.7,2.9,2.1,4.6,2.9c1.3,0.6,3.5,2.8,1.4,4
			c-1.4,0.8-3.2,0.1-4.4-0.7c-1.1-0.7-2.1-1.6-3.1-2.5c-0.6-0.5-1.2-1-2-0.8c-1,0.2-1.9,1.3-2.6,2c-1.1,1-2.2,2.1-3.2,3.1
			c-0.3,0.3,0.2,0.8,0.5,0.5c0.9-0.9,1.9-1.8,2.8-2.7c0.4-0.4,0.9-1,1.4-1.4c1.6-1.1,2.5-0.2,3.5,0.7c1.4,1.2,3,2.5,4.8,2.8
			c1.3,0.2,2.9-0.1,3.5-1.4c0.6-1.3-0.4-2.8-1.4-3.6c-0.8-0.7-5.3-1.9-5-3.1c0.1-0.3,1-0.9,1.3-1.2c0.5-0.4,0.9-0.8,1.4-1.2
			c1-0.9,2-1.8,2.9-2.7c3.6-3.4,7-7.1,9.7-11.3c2.8-4.4,4.7-9.4,5-14.6c0-0.3-0.3-0.5-0.6-0.3c-3,2.1-4.9,5.1-6.6,8.2
			c-1.9,3.5-3.9,7-6.3,10.3c-5,6.8-11.2,12.7-18.3,17.2C59.6,58,60,58.7,60.4,58.4L60.4,58.4z"/>
	</g>
</g>
<g>
	<g>
		<path class="st11" d="M45.3,67.3c-2.2,0-4.3-1.5-4.8-3.8c-0.6-2.6,1-5.3,3.6-6c1.3-0.3,2.6-0.1,3.7,0.6c1.1,0.7,1.9,1.8,2.2,3.1
			l0,0c0.6,2.6-1,5.3-3.6,6C46.1,67.3,45.7,67.3,45.3,67.3z M45.3,57.9c-0.4,0-0.7,0-1.1,0.1c-2.4,0.6-3.9,3-3.3,5.4
			c0.6,2.4,3,3.9,5.4,3.3c2.4-0.6,3.9-3,3.3-5.4l0,0c-0.3-1.2-1-2.2-2-2.8C46.9,58.1,46.1,57.9,45.3,57.9z"/>
	</g>
	<g>
		<path class="st11" d="M42.5,61.6c-0.8,0.2-1.3,1-1.1,1.9c0.2,0.8,1,1.3,1.9,1.1c0.8-0.2,1.3-1,1.1-1.9
			C44.1,61.9,43.3,61.4,42.5,61.6z M43.7,63.9c-0.2,0.1-0.5-0.1-0.5-0.3c-0.1-0.2,0.1-0.5,0.3-0.5c0.2-0.1,0.5,0.1,0.5,0.3
			C44,63.6,43.9,63.9,43.7,63.9z"/>
	</g>
</g>
<g>
	<g>
		<path class="st11" d="M53.5,73.3c-0.9,0-1.8-0.3-2.6-0.8c-1.1-0.7-1.9-1.8-2.2-3.1c-0.6-2.7,1.1-5.3,3.7-5.9
			c1.3-0.3,2.6-0.1,3.7,0.6c1.1,0.7,1.9,1.8,2.2,3.1c0.3,1.3,0.1,2.6-0.6,3.7c-0.7,1.1-1.8,1.9-3.1,2.2
			C54.2,73.3,53.9,73.3,53.5,73.3z M53.5,63.9c-0.3,0-0.7,0-1,0.1c-2.4,0.5-3.9,3-3.4,5.4l0,0c0.3,1.2,1,2.2,2,2.8
			c1,0.6,2.2,0.8,3.4,0.6c1.2-0.3,2.2-1,2.8-2c0.6-1,0.8-2.2,0.6-3.4c-0.3-1.2-1-2.2-2-2.8C55.2,64.1,54.3,63.9,53.5,63.9z"/>
	</g>
	<g>
		<path class="st11" d="M56.3,69.2c0.8-0.2,1.4-1,1.2-1.8s-1-1.4-1.8-1.2c-0.8,0.2-1.4,1-1.2,1.8C54.6,68.8,55.5,69.3,56.3,69.2z
			 M55.1,66.8c0.2-0.1,0.5,0.1,0.5,0.3c0.1,0.2-0.1,0.5-0.3,0.5c-0.2,0.1-0.5-0.1-0.5-0.3C54.8,67.1,54.9,66.9,55.1,66.8z"/>
	</g>
</g>
<g>
	<path class="st11" d="M37.8,97.7c-1.8,0-3.7-0.3-5.6-0.8l0,0C23.1,94.3,17.5,86,19.7,78.5c2.2-7.5,11.4-11.5,20.4-8.9
		c9.1,2.6,14.7,10.9,12.5,18.5C50.8,94,44.7,97.7,37.8,97.7z M32.3,96.4c8.8,2.5,17.6-1.3,19.7-8.5c2.1-7.2-3.3-15.2-12.1-17.7
		c-8.8-2.5-17.6,1.3-19.7,8.5C18.1,85.9,23.5,93.8,32.3,96.4z"/>
</g>
<g>
	<g>
		<path class="st11" d="M53,90.4c2.7,2,6.1,2.9,9.5,2.3c2-0.4,3.8-1.4,5.7-1.9c1.1-0.3,2.3-0.4,3.5-0.1c1,0.3,1.8,0.9,2.8,1.2
			c2.5,0.6,5.2-1.1,5.6-3.7c0.4-2.6-1.7-5-4.2-5.3c-0.4,0-0.4,0.6-0.1,0.7c5.3,2.1,11.1,7.9,7.4,13.9c-0.7,1.2-1.8,2-3.1,2.5
			c-1,0.4-2.1,0.6-2.8,1.5c-1.3,1.8,0.5,3.8,2.1,4.8c2.4,1.5,5.7,2.1,8.5,2.2c0.9,0,1.7,0,2.6-0.1c0.6-0.1,1.3-0.3,1.9-0.3
			c0.6,0.1,0.4-0.2,0.8,0.6c0.1,0.2,0.2,0.5,0.2,0.7c0.2,0.8,0.4,1.6,0.4,2.5c0.2,5.2-3.1,10.7-8.3,12.1c-5.2,1.4-11.1-1.3-13.7-6
			c-1.5-2.6-1.3-5.7-2.4-8.5c-1-2.3-3-4-5.5-4.3c-5.4-0.8-9.7,4.3-12.3,8.3c-3,4.5-6.9,10.8-13.2,9.6c-3.2-0.6-5.8-3.1-7.4-5.9
			c-0.8-1.5-1.4-3.3-1.6-5c-0.1-1.4,0-2.7,1.3-3.5c0.8-0.4,1.7-0.6,2.5-0.9c3-0.8,6.4-1.3,8.6-3.7c1.6-1.8,2.4-4.3,1.2-6.5
			c-0.2-0.4-0.9,0-0.6,0.4c1.4,2.5-0.3,5.3-2.4,6.7c-2.2,1.5-4.9,1.8-7.4,2.5c-1.7,0.5-3.4,1.1-3.8,3c-0.4,1.8,0.2,4,0.9,5.7
			c1.4,3.5,4.2,6.7,8,7.7c3.8,1,7.4-0.8,10-3.6c3.1-3.3,4.9-7.5,8.1-10.7c1.8-1.8,4.2-3.5,6.9-3.6c3-0.1,5.5,1.8,6.4,4.6
			c0.7,2.2,0.8,4.5,1.6,6.6c0.7,1.6,1.7,3.1,3,4.3c2.7,2.5,6.4,3.9,10,3.6c8.3-0.7,13.3-10.3,9.8-17.7c-0.1-0.2-0.3-0.2-0.4-0.2
			c-2.5,0.5-5,0.7-7.6,0.3c-2.2-0.4-4.9-1-6.6-2.6c-1.2-1.1-1.7-2.8,0.1-3.7c0.7-0.3,1.5-0.5,2.2-0.8c1.3-0.6,2.3-1.6,2.9-2.8
			c1.4-2.6,1.3-5.8-0.1-8.3c-1.7-3.1-4.8-5.1-7.9-6.3c0,0.2-0.1,0.5-0.1,0.7c3.6,0.4,4.8,5.1,1.7,7c-2.7,1.6-5.2-1.2-8.1-0.9
			c-2.6,0.3-4.9,1.8-7.4,2.2c-3.1,0.5-6.2-0.4-8.7-2.2C53,89.5,52.6,90.1,53,90.4L53,90.4z"/>
	</g>
</g>
<g>
	<g>
		<path class="st11" d="M41.7,55.3c-4.6,2.1-9.8,2.9-13.7,6.4c-0.3,0.3,0,0.7,0.4,0.6c1.5-0.4,3-0.5,4.6-0.4
			c-0.1-0.2-0.1-0.5-0.2-0.7c-3.7,2.1-7.1,4.7-10.1,7.8c-0.3,0.3,0.1,0.8,0.4,0.6c1.1-0.7,2.3-0.9,3.6-0.6c0.5,0.1,0.7-0.6,0.2-0.7
			c-1.5-0.3-2.9,0-4.2,0.7c0.1,0.2,0.3,0.4,0.4,0.6c2.9-3,6.3-5.6,10-7.6c0.3-0.2,0.2-0.6-0.2-0.7c-1.6-0.2-3.2,0-4.8,0.4
			c0.1,0.2,0.2,0.4,0.4,0.6c3.8-3.4,9-4.2,13.6-6.3C42.4,55.7,42.1,55.1,41.7,55.3L41.7,55.3z"/>
	</g>
</g>
<g>
	<g>
		<path class="st11" d="M59.2,68.6c0.3,2.5-0.1,5-0.6,7.5c-0.5,2.4-1.1,4.7-2,7c0.2,0,0.5,0.1,0.7,0.1c0-1.6-0.4-3.1-1.3-4.4
			c-0.2-0.3-0.6-0.2-0.7,0.1c-0.7,2.5-1.7,4.8-3.1,7c-0.2,0.4,0.4,0.8,0.6,0.4c1.4-2.2,2.4-4.6,3.1-7.1c-0.2,0-0.4,0.1-0.7,0.1
			c0.8,1.3,1.2,2.5,1.2,4.1c0,0.4,0.6,0.5,0.7,0.1c0.9-2.4,1.6-4.9,2.1-7.4c0.5-2.3,0.9-4.8,0.6-7.2C59.9,68.1,59.2,68.1,59.2,68.6
			L59.2,68.6z"/>
	</g>
</g>
<g>
	<g>
		<path class="st11" d="M57.2,92.4c0.8,4.9,1.6,10.3-1,14.8c-0.2,0.4,0.4,0.8,0.6,0.4c2.8-4.7,2-10.3,1.1-15.4
			C57.8,91.8,57.1,92,57.2,92.4L57.2,92.4z"/>
	</g>
</g>
<g>
	<g>
		<path class="st11" d="M63.9,91.5c0.1,6.1,1.6,12,4.4,17.5c0.2,0.4,0.8,0,0.6-0.4c-2.7-5.3-4.2-11.1-4.3-17.1
			C64.6,91,63.9,91,63.9,91.5L63.9,91.5z"/>
	</g>
</g>
<g>
	<g>
		<path class="st11" d="M25.7,77.2c-1.5,9.8,13.5,12.5,20.4,12.6c0.5,0,0.5-0.7,0-0.7c-4.2,0-8.4-0.8-12.3-2.4
			c-3.8-1.5-8.2-4.6-7.4-9.3C26.4,77,25.7,76.8,25.7,77.2L25.7,77.2z"/>
	</g>
</g>
<g>
	<g>
		<path class="st11" d="M30.4,87.1c-0.8,3.1,0.9,6.8,4.4,7c3,0.2,5.2-2.9,3.9-5.7c-0.2-0.4-0.8-0.1-0.6,0.4c1.2,2.6-1.3,5.1-3.9,4.5
			c-2.7-0.6-3.7-3.5-3.1-5.9C31.2,86.9,30.5,86.7,30.4,87.1L30.4,87.1z"/>
	</g>
</g>
<g>
	<g>
		<path class="st11" d="M33.9,88.6c-0.6,0.9-0.6,2.2,0,3.1c0.3,0.4,0.9,0,0.6-0.4c-0.5-0.7-0.5-1.6,0-2.4
			C34.8,88.5,34.2,88.2,33.9,88.6L33.9,88.6z"/>
	</g>
</g>
<g>
	<g>
		<path class="st11" d="M32.9,73.2c2.3,1.2,3.7,3.4,3.8,6c0,0.2,0.4,0.2,0.4,0c-0.1-2.7-1.6-5.1-4-6.3
			C32.8,72.8,32.6,73.1,32.9,73.2L32.9,73.2z"/>
	</g>
</g>
<g>
	<g>
		<path class="st11" d="M41.1,79.6c1.5-1.9,4.3-2.2,6.3-0.8c0.2,0.1,0.4-0.2,0.2-0.3c-2.1-1.6-5.1-1.2-6.7,0.8
			C40.7,79.6,40.9,79.8,41.1,79.6L41.1,79.6z"/>
	</g>
</g>
<g>
	<g>
		<path class="st11" d="M32.3,76c0.5,0.2,1.1,0.4,1.4,0.8c0.4,0.4,0.4,1.1-0.3,1.1c-1.4,0.1-1.3-1.9-1.2-2.8c0.1-0.5-0.7-0.5-0.7,0
			c-0.1,0.9-0.2,2,0.4,2.8c0.5,0.6,1.3,0.9,2,0.6c0.7-0.3,0.9-1.1,0.6-1.7c-0.4-0.8-1.3-1.3-2.1-1.5C32,75.2,31.8,75.9,32.3,76
			L32.3,76z"/>
	</g>
</g>
<g>
	<g>
		<path class="st11" d="M43.3,80.4c1.1,0,2.1,0.4,2.9,1.2c0-0.2,0-0.4,0.1-0.6c-0.6,0.3-1.4,0.8-2.1,0.5c-0.4-0.2-0.9-0.8-0.5-1.2
			c0.3-0.4-0.2-0.9-0.5-0.5c-0.6,0.7-0.3,1.6,0.3,2.1c1,0.8,2.3,0.2,3.2-0.3c0.2-0.1,0.2-0.4,0.1-0.6c-0.9-0.9-2.1-1.4-3.4-1.4
			C42.9,79.6,42.9,80.4,43.3,80.4L43.3,80.4z"/>
	</g>
</g>
<g>
	<g>
		<path class="st11" d="M35.5,107c-1.4,6.4,2.4,13.1,8.6,15.2c0.4,0.2,0.6-0.6,0.2-0.7c-5.8-2-9.4-8.4-8.1-14.3
			C36.3,106.7,35.6,106.5,35.5,107L35.5,107z"/>
	</g>
</g>
<g>
	<g>
		<path class="st11" d="M80.1,124.4c4.9-3.7,11.1-9,8.7-16c-0.2-0.4-0.9-0.3-0.7,0.2c2.3,6.6-3.7,11.6-8.3,15.1
			C79.3,124,79.7,124.7,80.1,124.4L80.1,124.4z"/>
	</g>
</g>
<g>
	<g>
		<path class="st11" d="M60.3,91.5c-2.6-0.7-3.1-4.7-0.1-5.2c1.2-0.2,2.4,0.4,2.5,1.7c0.1,1.1-0.6,2.3-1.7,2.5
			c-0.5,0.1-0.3,0.8,0.2,0.7c1.5-0.3,2.4-1.8,2.2-3.3c-0.2-1.6-1.6-2.5-3.1-2.4c-3.9,0.4-3.7,5.6-0.2,6.7
			C60.6,92.3,60.8,91.6,60.3,91.5L60.3,91.5z"/>
	</g>
</g>
<g>
	<g>
		<path class="st11" d="M61.4,84.9c-1-1.6-0.7-3.8,0.6-5.1c0.2-0.2,0.6-0.7,0.9-0.7c0.9,0,0.9,1,0.9,1.6c0,1.2-0.4,2.4-1.3,3.3
			c0.1,0.1,0.2,0.2,0.3,0.3c0.7-0.9,1.6-1.7,2.7-2.1c1.4-0.5,3.7,0.1,3.6,2c-0.1,1.3-1.3,1.9-2.4,2.2c-0.5,0.1-0.9,0.2-1.4,0.2
			c-0.3,0-0.5,0-0.8,0c-0.7,0.1-1.2-0.2-1.4-0.9c-0.7-0.9-0.7-1.1-0.5-2.2c0.1-0.6,0.3-1.1,0.6-1.7c0.4-0.8,1-1.6,1.7-2.3
			c0.8-0.7,1.7-1.4,2.7-1.8c0.9-0.3,4.1-1.1,3.4,0.9c0.1,0,0.2,0,0.4,0c-0.3-0.9-0.5-1.8-0.2-2.8c0.2-0.6,0.6-1,1.1-1.3
			c1.5-0.6,2.2,0,2.2,1.6c-0.1,0.2,0.3,0.3,0.4,0.1c0.3-0.8,0.8-1.7,1.5-2.1c1.2-0.7,3.6-0.3,3,1.7c-0.1,0.2,0.3,0.3,0.4,0.1
			c0.4-1.3-0.6-2.4-1.9-2.6c-1.7-0.2-2.8,1.5-3.4,2.9c0.1,0,0.2,0.1,0.4,0.1c0.4-1.4-1-2.7-2.4-2.2c-2,0.7-1.9,3.2-1.5,4.8
			c0,0.2,0.3,0.2,0.4,0c0.4-1-0.7-1.7-1.6-1.8c-1.5-0.3-3.4,0.7-4.5,1.6c-1.3,1-2.3,2.4-2.8,4c-0.4,1.3-0.7,3.3,0.8,3.9
			c1.9,0.9,6.6-0.2,6.2-3c-0.2-1.2-1.3-2-2.5-2.2c-1.8-0.3-3.4,1.1-4.4,2.4c-0.1,0.2,0.1,0.4,0.3,0.3c1.4-1.6,1.7-3.7,0.8-5.6
			c0-0.1-0.1-0.1-0.2-0.1c-2.7,0.9-3.8,4.2-2.3,6.6C61.2,85.3,61.6,85.1,61.4,84.9L61.4,84.9z"/>
	</g>
</g>
<g>
	<g>
		<path class="st11" d="M64.3,81.7c-2.1-1.7-1.8-5.2,0.5-6.5c0.1-0.1,0.1-0.2,0-0.3c-0.7-0.4-1.2-1-1.6-1.7c-0.1-0.2-0.4,0-0.3,0.2
			c0.3,0.6,0.6,0.9,1,1.4c0.4,0.5,0.4,0,0.1,0.6c-0.4,0.7-1,1.1-1.3,2c-0.5,1.7,0,3.6,1.3,4.7C64.2,82.1,64.5,81.8,64.3,81.7
			L64.3,81.7z"/>
	</g>
</g>
<g>
	<g>
		<path class="st11" d="M60.7,86.5C60.8,86.7,61.1,86.2,60.7,86.5c0,0.1-0.1,0.1-0.1,0.1c-0.2,0.2-0.4,0.4-0.5,0.6
			c-0.3,0.4-0.4,1-0.4,1.5c0,1,0.5,2,1.5,2.4c0.2,0.1,0.3-0.3,0.1-0.4c-1-0.4-1.4-1.5-1.2-2.5c0.1-0.4,0.3-0.8,0.6-1.1
			c0.2-0.2,0.6-0.3,0.8-0.5c0.4-0.7-1.3-0.8-1,0C60.4,86.8,60.8,86.7,60.7,86.5L60.7,86.5z"/>
	</g>
</g>
<g>
	<g>
		<path class="st11" d="M58.3,92.4c1.5,4.3,2.1,8.7,1.7,13.2c0,0.2,0.3,0.2,0.4,0c0.4-4.5-0.1-9-1.7-13.3
			C58.6,92.1,58.2,92.2,58.3,92.4L58.3,92.4z"/>
	</g>
</g>
<g>
	<g>
		<path class="st11" d="M62.9,92.3c-1.2,4.4-1.2,8.9-0.1,13.3c0.1,0.2,0.4,0.1,0.4-0.1c-1.1-4.3-1.1-8.8,0.1-13.1
			C63.3,92.2,62.9,92.1,62.9,92.3L62.9,92.3z"/>
	</g>
</g>
<g>
	<g>
		<path class="st11" d="M29.9,114.3c0.9-2.4,3.3-3.8,5.8-3.4c0.2,0,0.3-0.3,0.1-0.4c-2.7-0.4-5.4,1.1-6.3,3.7
			C29.5,114.4,29.9,114.5,29.9,114.3L29.9,114.3z"/>
	</g>
</g>
<g>
	<g>
		<path class="st11" d="M32.1,118.5c0.6-2.1,2.1-3.9,4-4.9c0.2-0.1,0-0.4-0.2-0.3c-2.1,1.1-3.5,2.9-4.2,5.1
			C31.7,118.7,32.1,118.8,32.1,118.5L32.1,118.5z"/>
	</g>
</g>
<g>
	<g>
		<path class="st11" d="M35.1,122.3c0.2-1.9,1.4-3.6,3.1-4.4c0.2-0.1,0-0.4-0.2-0.3c-1.8,0.9-3,2.7-3.3,4.8
			C34.7,122.5,35,122.5,35.1,122.3L35.1,122.3z"/>
	</g>
</g>
<g>
	<g>
		<path class="st11" d="M39.9,123.5c0.5-0.9,0.9-1.8,1.4-2.7c0.1-0.2-0.2-0.4-0.3-0.2c-0.5,0.9-0.9,1.8-1.4,2.7
			C39.5,123.6,39.8,123.7,39.9,123.5L39.9,123.5z"/>
	</g>
</g>
<g>
	<g>
		<path class="st11" d="M84.4,120.7c1.1,1.1,2.7,1.6,4.2,1.3c0.2,0,0.1-0.4-0.1-0.4c-1.4,0.3-2.8-0.2-3.9-1.2
			C84.5,120.3,84.2,120.5,84.4,120.7L84.4,120.7z"/>
	</g>
</g>
<g>
	<g>
		<path class="st11" d="M87.3,116.2c0.6,1.9,2.5,3.1,4.5,2.8c0.2,0,0.1-0.4-0.1-0.4c-1.8,0.3-3.5-0.8-4.1-2.5
			C87.5,115.9,87.2,116,87.3,116.2L87.3,116.2z"/>
	</g>
</g>
<g>
	<g>
		<path class="st11" d="M89.6,112.2c1.5-0.7,3.2-0.4,4.2,0.9c0.2,0.2,0.4-0.1,0.3-0.3c-1.1-1.4-3.1-1.8-4.7-1
			C89.2,112,89.3,112.3,89.6,112.2L89.6,112.2z"/>
	</g>
</g>
<g>
	<g>
		<path class="st11" d="M48.8,57.9c0.7-0.1,1.3,0.3,1.6,0.8c0.1,0.2,0.4,0,0.3-0.2c-0.4-0.7-1.2-1.1-2-1
			C48.6,57.5,48.6,57.9,48.8,57.9L48.8,57.9z"/>
	</g>
</g>
<g>
	<g>
		<path class="st11" d="M54.6,61c0.2,0.3,0.3,0.6,0.5,0.9c0.1,0.2,0.4,0,0.3-0.2c-0.2-0.3-0.3-0.6-0.5-0.9
			C54.8,60.6,54.5,60.8,54.6,61L54.6,61z"/>
	</g>
</g>
<g>
	<g>
		<path class="st11" d="M42.5,55.5c2.4-3,3.3-6.9,2.5-10.6c0-0.2-0.4-0.1-0.4,0.1c0.8,3.6-0.1,7.4-2.4,10.3
			C42.1,55.4,42.3,55.7,42.5,55.5L42.5,55.5z"/>
	</g>
</g>
<g>
	<g>
		<path class="st11" d="M59.6,68.6c0.4-3.1,4-5,6.8-3.6c0.2,0.1,0.4-0.2,0.2-0.3c-3-1.5-6.9,0.6-7.4,3.9
			C59.2,68.9,59.5,68.9,59.6,68.6L59.6,68.6z"/>
	</g>
</g>
<g>
	<g>
		<path class="st11" d="M27.2,88.7c-0.1,1.3,0.2,2.6,0.9,3.7c0.1,0.2,0.4,0,0.3-0.2c-0.7-1.1-1-2.3-0.9-3.6
			C27.6,88.5,27.2,88.5,27.2,88.7L27.2,88.7z"/>
	</g>
</g>
<g>
	<path class="st11" d="M92.6,31.5l-1.1-9.3l-8.3-4.3l8.5-4l1.5-9.2l6.4,6.8l9.2-1.4l-4.5,8.2l4.2,8.4L99.2,25L92.6,31.5z M84.4,18
		l7.5,3.9l1,8.4l6-5.9l8.3,1.6l-3.8-7.6l4.1-7.4l-8.4,1.3L93.5,6l-1.4,8.4L84.4,18z"/>
</g>
<g>
	<path class="st11" d="M45.7,30.1l-4.4-2.9l-4.8,2l1.4-5l-3.4-4l5.2-0.2l2.8-4.4l1.8,4.9l5.1,1.3l-4.1,3.3L45.7,30.1z M41.4,26.6
		L45,29l-0.3-4.3l3.4-2.7l-4.2-1l-1.5-4.1L40,20.5l-4.4,0.2l2.8,3.3l-1.2,4.2L41.4,26.6z"/>
</g>
<g>
	<g>
		<path class="st12" d="M43.5,29.2c-1.8,1.8-3.1,4-3.6,6.4c-0.3,1.4,0.4,2.8,2.1,2.2c1-0.4,1.6-1.4,2.3-2.2c1-1.3,2-2.6,3-3.9
			c0.5-0.7,1-1.3,1.6-2c0.2-0.3,0.5-0.5,0.7-0.7c0.4-0.4,0.9-0.4,1.5,0c-0.1,0.2-0.2,0.3-0.3,0.5c-0.2,0.7-0.8,1.4-1.1,2
			c-0.5,0.8-0.9,1.6-1.4,2.5c-0.1,0.2,0.2,0.4,0.3,0.2c1-1.8,2-3.6,3-5.4c0.1-0.1,0-0.2-0.1-0.3c-0.8-0.6-1.7-0.2-2.4,0.4
			c-1.5,1.3-2.7,3.3-3.9,4.8c-0.6,0.8-1.3,1.6-1.9,2.4c-0.3,0.3-0.7,0.9-1.1,1.1c-2.7,1.1-2-1.5-1.8-2.3c0.6-2.1,1.8-4,3.3-5.6
			C43.9,29.3,43.6,29.1,43.5,29.2L43.5,29.2z"/>
	</g>
</g>
<g>
	<g>
		<path class="st8" d="M84.3,28c-1.8-3.3,2.9-4.7,5.9-4.9c0.1-0.1,0.2-0.2,0.3-0.3c0,0,0.1-0.1,0.1-0.1c-1.5,0-3.1,0.3-4.5,1
			c-1.3,0.6-2.8,1.6-2.6,3.2c0.1,0.8,0.6,1.5,1,2.1c0.8,1.2,1.6,2.4,2.4,3.5c1.4,2,3.7,4.5,3.6,7.1c0,3.2-3.7,3.7-6.1,3
			c-2.1-0.6-4-1.8-6.1-2c-2.7-0.3-6.1,1.7-4.8,4.8c0.8,2,2.8,2.9,4.3,4.3c0.5,0.5,1.1,1.1,1.4,1.8c0.6,1.9-1,2.2-2.2,2.1
			c-1.6-0.1-3.1-0.5-4.6-1.2c-0.1,0.1-0.2,0.2-0.3,0.3c1.8,0.9,7.9,2.9,7.6-0.6c-0.2-1.7-1.8-2.8-3.1-3.8c-1.1-0.8-2.2-1.7-2.7-3
			c-0.6-1.6,0-3,1.5-3.8c4.1-2.2,8.1,2.6,12.4,1.6c1.4-0.3,2.6-1.2,3-2.6c0.5-1.8-0.6-3.7-1.5-5.2C87.7,32.9,85.7,30.6,84.3,28z"/>
	</g>
</g>
<g>
	<g>
		<path class="st5" d="M68.3,60.4c-0.7-0.9-1.5-1.9-2.2-2.8c-0.8-1.1-2.4-2.5-2.3-3.9c0-2.2,2.5-2.8,3.9-1.6
			c0.1-0.1,0.1-0.2,0.2-0.3c-1.8-1.7-5.1-0.3-4.4,2.5c0.2,0.9,0.9,1.7,1.5,2.4c0.8,1,1.6,2,2.4,3c0.5,0.6,0.9,1.2,1.4,1.7
			c0.2,0.2,0.4,0.5,0.5,0.7c-0.2,1-0.6,1.3-1.3,1c-1.4-0.4-2.9-1.5-4.2-2.2c-0.2-0.1-0.4,0.2-0.2,0.3c1.2,0.6,2.4,1.4,3.6,2
			c0.4,0.2,0.9,0.4,1.4,0.4c0.8,0,1.4-0.4,1.2-1.3C69.5,61.7,68.7,60.9,68.3,60.4z"/>
	</g>
</g>
<g>
	<g>
		<path class="st8" d="M58.7,30.6c-1-1.1-1.8-2.2-2.4-3.6c-0.6-1.3-1.1-2.7-1.4-4.1c-0.1-0.4-0.2-0.9-0.3-1.3
			c0.7-1.5,1.5-1.9,2.5-1.2c0.7,0.4,1.1,1.2,1.5,1.9c0.1-0.1,0.1-0.2,0.2-0.2c0,0,0,0,0,0c-0.7-1.3-2-2.8-3.6-2.1
			c-2,0.8-0.6,3.9-0.1,5.3c0.8,2.4,1.9,4.4,3.7,6.3c1.2,1.2,2.5,2.7,2.1,4.5c-0.5,2.2-3,1.7-4.6,1.1c-0.1,0.1-0.1,0.2-0.2,0.3
			c1.5,0.6,3.4,1.2,4.6-0.2c1-1.2,0.6-2.9-0.1-4.1C60.2,32,59.4,31.3,58.7,30.6z"/>
	</g>
</g>
<g>
	<g>
		<path class="st5" d="M63.2,26.7c0.3,1.2,1.5,1.8,2.7,1.7c1.5-0.2,2.4-1.6,2.5-3c0.2-2-1.1-3.7-2.4-5.1c-0.9-0.9-1.8-1.7-2.6-2.7
			c-0.3-0.3-0.5-0.7-0.8-1.1c-0.7-1-0.4-1.8,1-2.5c0.7,0.1,1.3,0.8,1.8,1.3c0.2,0.2,0.4-0.1,0.3-0.3c-0.7-0.8-2.2-2.1-3.4-1.3
			c-1.3,0.9-0.2,2.8,0.5,3.7c1.4,1.9,3.5,3.1,4.6,5.2c0.7,1.2,0.9,2.8,0.2,4c-0.9,1.6-3.5,1.8-4.1-0.2
			C63.5,26.4,63.1,26.5,63.2,26.7L63.2,26.7z"/>
	</g>
</g>
<g>
	<g>
		<path class="st11" d="M37.7,108.5c0.3,3.5,1.8,6.7,4.4,9.1c0.3,0.3,0.9-0.2,0.5-0.5c-2.4-2.3-3.9-5.2-4.2-8.6
			C38.3,108,37.6,108,37.7,108.5L37.7,108.5z"/>
	</g>
</g>
<g>
	<g>
		<path class="st11" d="M40.5,111.4c0.8,1,1.5,2,2.3,3.1c0.3,0.4,0.9,0,0.6-0.4c-0.8-1-1.5-2-2.3-3.1
			C40.9,110.6,40.2,111,40.5,111.4L40.5,111.4z"/>
	</g>
</g>
<g>
	<g>
		<path class="st11" d="M94.5,13.7c-0.2-1,0-1.9,0.4-2.8c-0.1,0-0.2,0-0.3,0c0.1,0.9,0.7,1.7,1.5,2.2c0.2,0.1,0.4-0.2,0.2-0.3
			c-0.7-0.4-1.2-1.1-1.3-1.9c0-0.1-0.3-0.2-0.3,0c-0.4,1-0.6,2-0.4,3.1C94.1,14.1,94.5,14,94.5,13.7L94.5,13.7z"/>
	</g>
</g>
<g>
	<g>
		<path class="st11" d="M101.4,14c0.9,0.1,1.8,0,2.7-0.3c-0.1-0.1-0.1-0.2-0.2-0.3c-0.4,0.6-0.8,1.2-1.3,1.7
			c-0.2,0.2,0.1,0.4,0.3,0.3c0.5-0.5,1-1.1,1.3-1.7c0.1-0.1-0.1-0.3-0.2-0.3c-0.9,0.3-1.7,0.4-2.6,0.3C101.2,13.6,101.2,14,101.4,14
			L101.4,14z"/>
	</g>
</g>
<g>
	<g>
		<path class="st11" d="M102.7,22c0.6,0.7,1.2,1.4,1.8,2.1c0.1-0.1,0.2-0.2,0.3-0.3c-0.7-0.6-1.5-0.8-2.4-0.7
			c-0.2,0-0.1,0.4,0.1,0.4c0.8-0.1,1.5,0.1,2.1,0.6c0.2,0.2,0.4-0.1,0.3-0.3c-0.6-0.7-1.2-1.4-1.8-2.1
			C102.8,21.5,102.5,21.8,102.7,22L102.7,22z"/>
	</g>
</g>
<g>
	<g>
		<path class="st11" d="M94.2,23.6c0.1,0.7,0.1,1.5,0.2,2.2c0,0.1,0.1,0.2,0.3,0.2c0.6-0.3,1.1-0.8,1.5-1.3c0.1-0.2-0.2-0.4-0.3-0.2
			c-0.4,0.5-0.8,0.9-1.4,1.2c0.1,0.1,0.2,0.1,0.3,0.2c-0.1-0.7-0.1-1.5-0.2-2.2C94.5,23.4,94.2,23.4,94.2,23.6L94.2,23.6z"/>
	</g>
</g>
<g>
	<g>
		<path class="st11" d="M90.4,16.7c-0.6,0.2-1.2,0.5-1.7,0.7c-0.1,0-0.2,0.2-0.1,0.3c0.3,0.7,0.8,1.3,1.5,1.6
			c0.2,0.1,0.4-0.2,0.2-0.3c-0.6-0.3-1.1-0.8-1.4-1.5c0,0.1-0.1,0.2-0.1,0.3c0.6-0.2,1.2-0.5,1.7-0.7C90.8,16.9,90.7,16.6,90.4,16.7
			L90.4,16.7z"/>
	</g>
</g>
<g>
	<g>
		<path class="st11" d="M41.1,20.8c0.3-0.4,0.6-0.8,0.9-1.2c-0.1,0-0.2-0.1-0.3-0.1c0,0.5,0.2,1,0.5,1.4c0.1,0.2,0.5,0,0.3-0.2
			C42.2,20.4,42,20,42,19.6c0-0.2-0.2-0.2-0.3-0.1c-0.3,0.4-0.6,0.8-0.9,1.2C40.6,20.8,40.9,21,41.1,20.8L41.1,20.8z"/>
	</g>
</g>
<g>
	<g>
		<path class="st11" d="M43.5,22.5c0.4,0.1,0.8,0.2,1.1,0.4c0-0.1-0.1-0.2-0.1-0.3c-0.3,0.2-0.5,0.5-0.8,0.7
			c-0.2,0.2,0.1,0.4,0.3,0.3c0.3-0.2,0.5-0.5,0.8-0.7c0.1-0.1,0-0.3-0.1-0.3c-0.4-0.1-0.8-0.2-1.1-0.4C43.4,22,43.3,22.4,43.5,22.5
			L43.5,22.5z"/>
	</g>
</g>
<g>
	<g>
		<path class="st11" d="M42,25.9c0.3,0.2,0.6,0.4,0.9,0.5c0.1,0.1,0.3,0,0.3-0.2c0-0.3,0-0.6,0.1-0.9c0.1-0.2-0.3-0.3-0.4-0.1
			c-0.1,0.3-0.2,0.7-0.2,1c0.1-0.1,0.2-0.1,0.3-0.2c-0.3-0.2-0.6-0.4-0.9-0.5C41.9,25.4,41.7,25.8,42,25.9L42,25.9z"/>
	</g>
</g>
<g>
	<g>
		<path class="st11" d="M39.4,24.5c-0.1,0.4-0.1,0.7-0.2,1.1c0,0.1,0.1,0.2,0.2,0.2c0.4,0,0.7-0.2,0.8-0.6c0.1-0.2-0.3-0.3-0.4-0.1
			c-0.1,0.2-0.2,0.3-0.5,0.3c0.1,0.1,0.1,0.2,0.2,0.2c0.1-0.4,0.1-0.7,0.2-1.1C39.8,24.4,39.5,24.3,39.4,24.5L39.4,24.5z"/>
	</g>
</g>
<g>
	<g>
		<path class="st11" d="M39.3,22.9c-0.3-0.3-0.6-0.6-0.9-0.9c0,0.1-0.1,0.2-0.1,0.3c0.5,0,0.9,0,1.4,0.2c0.2,0.1,0.3-0.3,0.1-0.4
			c-0.5-0.2-1-0.2-1.5-0.2c-0.2,0-0.2,0.2-0.1,0.3c0.3,0.3,0.6,0.6,0.9,0.9C39.2,23.3,39.5,23.1,39.3,22.9L39.3,22.9z"/>
	</g>
</g>
<g>
	<g>
		<path class="st11" d="M59.6,94.4c0.9-0.3,3,0.2,1.5,0.9c-0.5,0.3-0.3-0.2-0.8,0.1C60,95.6,60,95.7,60,96.1c0,0.1,0.1,0.2,0.2,0.2
			c0.6,0,2.1,0,1.4,0.8c-0.4,0.4-1.2,0.6-1.7,0.8c-0.1,0-0.1,0.1-0.1,0.2c0.1,0.7,0.5,0.6,1.1,0.8c0.2,0.1,1.2-0.3,0.6,0.6
			c-0.1,0.1-0.6,0.1-0.7,0.2c-0.3,0.1-0.4,0.2-0.6,0.5c0,0.1,0,0.1,0,0.2c0.1,0.2,0.1,0.2,0.2,0.3c0.1,0,0.2,0.1,0.3,0.1
			c0.7-0.1,0.6,0.3-0.2,1.1c-0.2,0-0.3,0.3-0.1,0.3c0.3,0.1,1.4,0.5,1.4,0.8c0,0.2-1.3,0.7-1.6,0.8c-0.1,0.1-0.1,0.3,0,0.3
			c0.4,0.2,0.3,0.2,0.7,0.2c0.1,0,0.3,0,0.4,0c0.5-0.1,0.8,0.1,0.9,0.7c-0.2,0.2,0.1,0.4,0.3,0.3c0.3-0.3,0.4-0.8,0-1.1
			c-0.2-0.2-0.4-0.2-0.6-0.2c-0.2,0-0.9,0.1-1-0.1c0,0,1.5-0.7,1.5-0.7c0.1-0.1,0.1-0.3,0-0.3c-0.6-0.3-1.2-0.7-1.8-0.9
			c0,0.1-0.1,0.2-0.1,0.3c0.6,0,1.6-0.2,1.6-1c0-0.3-0.1-0.5-0.4-0.6c0,0-0.7-0.1-0.7-0.1c-0.4-0.5,0.4-0.4,0.6-0.5
			c0.4-0.2,0.9-0.5,0.5-1c-0.2-0.3-0.5-0.2-0.8-0.3c-0.1,0-0.3,0-0.4,0c-0.6-0.3-0.6-0.5-0.2-0.6c0.2-0.3,1.2-0.7,1.6-0.9
			c0.1-0.1,0.1-0.2,0-0.3c-0.4-0.3-0.9-0.4-1.3-0.6c-0.2,0-0.3-0.1-0.5-0.1c0.3-0.2,0.5-0.2,0.9-0.2c0.3-0.2,0.5-0.3,0.5-0.7
			c0.1-1.5-1.8-1.2-2.6-0.9C59.3,94.2,59.4,94.5,59.6,94.4L59.6,94.4z"/>
	</g>
</g>
<g>
	<g>
		<path class="st11" d="M63.5,86.1c0.6-1,1.8-2.6,3.2-2.1c1.5,0.6-0.1,1.5-0.7,1.6c-0.7,0.2-1.4,0.1-2.1,0c-0.2,0-0.3,0.3-0.1,0.4
			c1,0.1,2.1,0.2,3.1-0.3c0.6-0.3,1.2-0.9,0.8-1.6c-0.4-0.7-1.4-0.7-2.1-0.4c-1.1,0.4-1.7,1.3-2.3,2.2
			C63.1,86.1,63.4,86.3,63.5,86.1L63.5,86.1z"/>
	</g>
</g>
<g>
	<g>
		<path class="st11" d="M62.3,85.1c-0.3-0.7-0.5-1.3-0.5-2.1c0-0.7,0.3-1.9,1.3-1.5c0-0.1-0.1-0.1-0.1-0.2c-0.2,0.5-0.3,1.1-0.5,1.6
			c-0.1,0.2,0.3,0.3,0.4,0.1c0.2-0.5,0.3-1.1,0.5-1.6c0-0.1,0-0.2-0.1-0.2c-0.7-0.3-1.4,0.2-1.6,0.9c-0.4,1,0,2.3,0.4,3.2
			C62.1,85.5,62.4,85.3,62.3,85.1L62.3,85.1z"/>
	</g>
</g>
<g>
	<g>
		<path class="st11" d="M60.7,92.3c0.2-0.4,0.4-0.8,0.8-1c0.2-0.2-0.1-0.4-0.3-0.3c-0.4,0.3-0.7,0.7-0.9,1.2
			C60.3,92.4,60.6,92.5,60.7,92.3L60.7,92.3z"/>
	</g>
</g>
<g>
	<g>
		<path class="st11" d="M81.8,87c0.7,1.7,0.6,3.6-0.5,5.2c-0.1,0.2,0.2,0.4,0.3,0.2c1.1-1.6,1.3-3.7,0.5-5.5
			C82.1,86.6,81.7,86.7,81.8,87L81.8,87z"/>
	</g>
</g>
<g>
	<g>
		<path class="st11" d="M84.1,91c-0.2,1.4-0.9,2.7-1.9,3.7c-0.2,0.2,0.1,0.4,0.3,0.3c1.1-1,1.8-2.4,2-3.9
			C84.5,90.7,84.1,90.7,84.1,91L84.1,91z"/>
	</g>
</g>
<g>
	<g>
		<path class="st11" d="M26.5,68.6c-1.7,1-3.1,2.5-3.9,4.4c-0.2,0.4,0.4,0.8,0.6,0.4c0.7-1.7,2-3.1,3.6-4.1
			C27.3,69,26.9,68.3,26.5,68.6L26.5,68.6z"/>
	</g>
</g>
<g>
	<path class="st11" d="M42.8,97.1c-0.1-0.1-0.3-0.4-0.6-0.3c-0.2,0-0.3,0.2-0.3,0.4c0,0,0,0,0,0c0,0.5,0.8,0.5,0.8,0c0,0,0,0,0,0
		c-0.1,0.1-0.2,0.3-0.3,0.4c0,0,0,0,0.1,0c-0.1,0-0.2,0-0.3,0c0,0,0,0,0,0c-0.1-0.1-0.1-0.2-0.2-0.2c0,0.1,0.1,0.2,0.2,0.3
		C42.6,98.1,43.2,97.6,42.8,97.1L42.8,97.1z"/>
</g>
<g>
	<path class="st11" d="M53.2,89.7c0,0-0.1,0-0.1,0c0.1,0,0.2,0,0.3,0c-0.4-0.2-0.7-0.7-1-1c-0.4-0.4-1,0.2-0.6,0.6
		c0.4,0.4,1,1.2,1.6,1.1C54,90.4,53.8,89.6,53.2,89.7L53.2,89.7z"/>
</g>
<path class="st13" d="M117,81.3"/>
</svg>
