<?xml version="1.0" encoding="utf-8"?>
<!-- Generator: Adobe Illustrator 24.0.1, SVG Export Plug-In . SVG Version: 6.00 Build 0)  -->
<svg version="1.1" id="Layer_1" xmlns="http://www.w3.org/2000/svg" xmlns:xlink="http://www.w3.org/1999/xlink" x="0px" y="0px"
	 viewBox="0 0 141.7 141.7" style="enable-background:new 0 0 141.7 141.7;" xml:space="preserve">
<style type="text/css">
	.st0{fill:#FFFFFF;}
	.st1{fill:#A81E28;}
	.st2{fill:#75CEEB;}
	.st3{fill:#C9B09D;}
	.st4{fill:url(#SVGID_1_);}
	.st5{fill:#D15E27;stroke:#010101;stroke-width:9.574725e-02;stroke-miterlimit:10;}
	.st6{fill:#3D59A8;stroke:#010101;stroke-width:9.574725e-02;stroke-miterlimit:10;}
	.st7{fill:#F1EA31;stroke:#010101;stroke-width:9.574725e-02;stroke-miterlimit:10;}
	.st8{fill:#BB2025;}
	.st9{fill:url(#SVGID_2_);}
	.st10{fill:url(#SVGID_3_);}
	.st11{fill:url(#SVGID_4_);}
	.st12{fill:url(#SVGID_5_);}
	.st13{fill:#674438;}
	.st14{fill:#38261F;}
	.st15{fill:#83564A;}
	.st16{fill:#5C3F3A;}
	.st17{fill:#B7776C;}
	.st18{fill:#9C6054;}
	.st19{fill:#FDED1E;}
	.st20{opacity:0.8;fill:#E8F3F9;}
	.st21{opacity:0.5;fill:#E8F3F9;}
	.st22{opacity:0.6;fill:#E8F3F9;}
	.st23{opacity:0.5;}
	.st24{fill:#E8F3F9;}
	.st25{opacity:0.3;}
	.st26{fill:#F5EC34;}
	.st27{fill:none;stroke:#010101;stroke-width:0.1915;stroke-miterlimit:10;}
	.st28{opacity:0.5;fill:#F5EC34;}
	.st29{opacity:0.7;}
	.st30{fill:#070707;}
	.st31{fill:#E8E21A;}
	.st32{fill:#3D59A8;}
</style>
<path class="st0" d="M73.5,10.3L73,9.7L72.7,9c0,0,0-0.8,0-0.8c0,0,0.1-0.8,0.1-0.8l0.3-0.6l0.5-0.5l0.7-0.5l0.3-0.2l0.3,0.6l1-0.6
	l0.7-0.1l0.7,0.1L78,6l0.3,0.6v0.7l-0.3,0.4l0.1,0.5l0.2,0.4L78,9.5l-0.4,0.6l-0.3,0.4l-0.5-0.3l-0.7,0.5l-0.5,0.4l-0.4,0.2h-0.5
	l-0.5,0.2L73.5,10.3z"/>
<polygon class="st1" points="73.8,12.6 74.1,12.1 74,11.1 74.4,11.4 75.1,11.1 75.4,11.9 75.4,12.7 75.1,13.2 73.6,14.1 72.1,14.9 
	71.4,15.3 70.8,15.6 70.3,15.9 69.8,16.1 70.1,16.6 70.2,17.1 70,17.3 69.8,17.4 70.7,18.1 71.9,19.2 73.6,20.6 78,23 81.3,25.2 
	84,27.5 85.5,28.9 83,28.6 79.9,28.5 75.9,28.9 71.9,29.5 65.3,30.6 61.5,31.2 58,32.1 56,32.7 53,34.1 53.5,33.5 55.2,32.1 
	57.1,30.6 59.2,29.1 61.5,27.6 63.6,26.4 65.7,25.4 70.2,23.4 70.7,23.1 69.9,22.7 69.7,22 69.9,21.3 68.4,20.1 66.8,18.3 
	66.6,16.9 66.7,16 67.4,15.2 68.7,14.6 71.5,13.7 72.7,13.3 73.3,12.9 "/>
<path class="st2" d="M56.9,11.1"/>
<path class="st0" d="M50.4,43.8L49.2,43l-0.8-0.9l-0.3-0.9l-0.2-0.9v-0.8l0.4-0.8l1.2-1.6l2.4-2.1l1.8-1.1l3.2-1.3l2.5-0.8
	c0,0,3.1-0.6,3.1-0.6c0,0,2.9-0.5,2.9-0.5l5.3-0.9l4.1-0.7l3.6-0.3l4.6,0l2.7,0.5l2.7,1c0,0,2.3,1.4,2.4,1.5c0,0,2.1,1.4,2.1,1.4
	l2.5,2l1.2,1.5l0.4,1.6v1.1l-0.6,1.4l-0.9,1.3l-1.1,0.8l-1.1,0.5h-1.6l-3-0.4l-2.2-0.5l-2.5-0.7l-2.4-0.5l-1.9-0.1l-1.3,0.1
	l-1.1,0.4L76.7,42l-1.6,1.1l-0.9,0.3l-1.3,0.3h-1.4l-1.7-0.6L68,42.4l-1.8-0.5l-2-0.2l-1.8,0l-2.5,0.2l-1.4,0.6L57.3,43l-1.4,0.9
	L55,44.5l-1.1,1.1c0,0-1.3-1.1-1.4-1.1C52.4,44.6,50.4,43.8,50.4,43.8z"/>
<path class="st2" d="M48.1,55.8l-2.2-0.7l-2.2-1.9l-0.9-1.9L42.7,49l0.9-1.7l1.7-1.6l1.9-1l2.7-0.6l2.1,0.4l1.4,0.9l0.4,0.4l2.3-1.8
	l3-1.8l3.5-0.4l2.3,0l3.5,0.8l1.9,0.8l1.3,0.4h1.4l1.7-0.3l1.1-0.6l1.2-0.8l1.4-0.6l1.6-0.2c0,0,2.3,0.2,2.3,0.2c0.1,0,2,0.4,2,0.4
	l1.9,0.5l1.8,0.4l2.3,0.5l1.4,0.2l0.9,0.9l1.9-0.7l3.7-0.5l2.3,0.3l1.4,1.1l1.2,2l0.5,1.9l-0.3,2.1l-0.5,1.3l-1,1.3
	c0,0-1.4,1.1-1.5,1.1c0,0-1.5,0.5-1.5,0.5l1.1,6.9l-1.3,0.5l-1.7,0.9L95.1,64l-1.8,1.6L91.6,67l-2.2,1.9L87.9,69l-2.2,0.5l-2.8,1.1
	l-2.2,1.2l-2.2,1.4l-4.2,2.4l-1.7-1.6L70.8,73l-2.5-0.8L66.9,72l-2-0.2L61.1,72l-0.7-0.6l-2.2-1.1l-2-0.8l-1.5-0.4l-1.8-0.3l3.7-2.9
	l-2.4,0.3L50,66.9l-3.2,0l0.3-4.4l0.8-5.3L48.1,55.8z"/>
<path class="st0" d="M54.7,53.3c0,0-0.2-5.1,2.7-6.9c0,0,2.6-2.8,7-2.1c0,0,4.7,0.7,6.4,5.7c0,0,0.9,3.8-0.3,5.6
	c0,0-0.8,2.9-5.2,4.7c0,0-4.3,1.7-8.4-2.3C56.9,58,55,56,54.7,53.3z"/>
<path class="st0" d="M75.6,53.1l-0.3-1.9l0.6-2.6l0.9-1.5c0,0,0.7-2,4.1-3.3c0,0,5.5-2.3,9.5,2.8c0,0,3.1,4.1,0.8,8.4
	c0,0-1.8,4.1-6.2,4.6c0,0-4.1,0.5-6.5-1.8C78.3,57.8,75.6,55.5,75.6,53.1z"/>
<path class="st3" d="M70.2,59.8L69,60.5l-1.6,1.3c0,0-2,2.1,0.3,3.3c0,0,1.5,1,4.9-0.3c0,0,2.1-0.5,4.1,0.4c0,0,3.8,1.1,3.5-1.9
	c0,0,0.3-1.6-2.2-2.9l-1.4-0.7c0,0-1.4,0.7-1.4,0.7c0,0-2.5,0.3-2.5,0.3l-1.9-0.6L70.2,59.8z"/>
<path class="st0" d="M70.2,65.7c0,0-0.8,3.4,0.7,4.5c0,0,1.9,1.5,2.7-1.2c0,0,0.9,2.4,2.5,1.3c0,0,1.6-0.4,1.2-2.9l-0.6-2.2
	l-0.8-0.4l-1.5-0.2L73,64.8l-1.9,0.5l-0.9,0.2V65.7z"/>
<path class="st0" d="M74.2,75.7l1.8-1l2.7-1.6l2.5-1.5l2.6-1.3l2.4-0.9c0,0,1.9-0.4,2-0.4c0.1,0,1,0,1,0l2.9-2.4l3.5-3l2.8-1.6
	l1.3-0.5l-0.1-1.9l1.2,0.9l1,1.2l0.7,0.9l-0.2,0.2L103,64l0.4,2.3l0.1,2.4v2.7l0.2,3l-0.1,1l-0.6,1.1l-0.9,0.8l-0.8,0.4l-1.6,0.6
	L96,78.9L92.9,79l-2.1-0.3l-0.5,0.6l-1.2,0.9l-2.4,0.9l-3.7,1.3c0,0-3.4,1.7-3.8,4L79,87.9l0.4,2.6l-3.9-0.1l-4.8-0.3l-0.5-1.3v-1.8
	l0.2-2.1l-0.2-1.5l-0.7-1.4l-1.4-1l-2.3-0.9l-2.1-0.5l-3.1-0.8l4.5-2.3l3-1.8l1.3-0.9L67.9,74c0,0-6.8,0.8-7.8,1.7l-4,0.6l-2.8-0.1
	c0,0-2.1-0.4-2-0.8l1.6-2.1l-2.4,0.1l-1.6,0L47.5,73l5.3-4.2l4.2,1l2.2,0.9l1.6,1.2l3.3-0.2l3,0.3l3.7,1
	C70.9,73,72.9,73.9,74.2,75.7z"/>
<linearGradient id="SVGID_1_" gradientUnits="userSpaceOnUse" x1="22.5082" y1="70.5665" x2="69.4836" y2="70.5665">
	<stop  offset="0" style="stop-color:#16A2A9"/>
	<stop  offset="3.956180e-02" style="stop-color:#189FA0"/>
	<stop  offset="0.1054" style="stop-color:#169A86"/>
	<stop  offset="0.1892" style="stop-color:#1C8E5E"/>
	<stop  offset="0.2871" style="stop-color:#227F3F"/>
	<stop  offset="0.301" style="stop-color:#247D3E"/>
	<stop  offset="0.3379" style="stop-color:#247D3E"/>
	<stop  offset="0.5987" style="stop-color:#397D4D"/>
</linearGradient>
<path class="st4" d="M24.8,68.8l2.2-1.1l-0.1-1.4c0,0-0.4-0.5,1.5-5.1c0,0,1-2.2,0.8-6.7l-0.5-4.6l-1.3-5.1l-0.7-2.8l5,7.9
	c0,0,4.2,6.3,5,6.5c0,0,4.2,4.6,7,6l-4.1,1.3l1.5,0.1l0.1,0.3l-0.5,1c0,0,1.7,2.2,6.3,1.8l3.9,0l4.3-0.7l1.4-0.2l-3.8,3l-5.2,4
	l0.5,0.3l4.7-0.1l-1.6,2.1c0,0,0.8,1.6,6.3,0.8c0.2,0,5.7-1.4,5.7-1.4l3.4-0.6l2.9-0.1l-1.6,1.1l-6,3.3l-7.4,3.1l-5,1
	c0,0-4.2,0.3-5.9-2.5l-3.3-1.3l2,3.6l-2.4,1.8l-4.2,3.8l-8.3,11.1l0.3-3l2.1-7l4.1-10.8l-5.1,2.1l-4.4,1.4l-1.7,0.4l3.3-4.1l3.2-3.7
	l2.1-3l1-2.5l-2.2,0.6l-2.3,0.3l-1.8-0.4L24.8,68.8z"/>
<path class="st5" d="M29,63.5c0,0,0.5-1,3.9,1.1c0,0,1.7,1.1,0.7,1.7c0,0-1.7,0.6-2.7,0.1C30.9,66.4,28.7,65.3,29,63.5z"/>
<path class="st6" d="M36.4,61.2c0,0-0.7-2.9,1.5-1.5c0,0,1.7,1.2,1.1,2.3C39,62,37.5,63,36.4,61.2z"/>
<path class="st7" d="M37.7,71.4c0,0,1.6-2.3,3.3,0.2c0,0,1,1.9-0.2,3.5c0,0-2.3,1.3-3.2-0.9C37.5,74.3,36.9,71.9,37.7,71.4z"/>
<path class="st2" d="M40.1,79c0,0,2.8,4.2,2.8,5.2l1.5-1L44,81.9l-0.5-1.7l-3.7-1.4L40.1,79z"/>
<path class="st3" d="M46.3,82.3c0,0-7.2,3.2-3.8,5h0.2c0,0,0.2,1.4,2.3,0.7l1.7-1l0.9-1.1l0-3l0-0.2L46.3,82.3z"/>
<polygon class="st8" points="47.9,82.7 51,82.5 54.2,81.6 57.6,80.5 60.7,79.2 62.4,79.6 67.6,81 69.1,81.9 69.8,82.7 70.3,84 
	70.3,85.8 70.1,87.6 70.7,90 65.5,90.2 50.2,91.2 48.3,88.7 47.8,85.4 "/>
<path class="st8" d="M79.5,90.7L79,88.9c0,0-0.7-3.9,4-6.3l3.5-1.3l2.5-0.9l1.1-0.6l0.8-1.1l2.5,0.3l4.1-0.3l2.7-0.5l0.5,5.3V87
	l-1.3,2.4L98,90.2c0,0-7.9,1-7.9,1c0,0-8.4-0.2-8.4-0.2L79.5,90.7z"/>
<path class="st3" d="M100.8,81.7c0.1,0,1.5,0,1.5,0s2.4,0,3.7,2.2c0,0,1.3,2.9-0.6,3.2l-0.1,0.3c0,0-2.6,0.2-4.2-2.1L100.8,81.7z"/>
<linearGradient id="SVGID_2_" gradientUnits="userSpaceOnUse" x1="109.4949" y1="94.4355" x2="109.4949" y2="67.2475">
	<stop  offset="5.680010e-03" style="stop-color:#FEDB2B"/>
	<stop  offset="0.248" style="stop-color:#FDD82B"/>
	<stop  offset="0.5671" style="stop-color:#F3AE2B"/>
	<stop  offset="1" style="stop-color:#9D6828"/>
</linearGradient>
<path class="st9" d="M100.3,78.1l0.4,3.5c0,0,3.7-0.6,5.5,2.4c0,0,2.8-3.8,6.3,2.3l2,5.5l0.7,2.6c0,0,2.7,0.7,3.4-5.7
	c0,0,0.9-4-3-7.5l-2-2l-1.1-1.2l-0.4-0.8l0.9-0.6c0,0,2-1.3-1.2-4.6l-3.3-2.8l-2.4-1.8h-0.5l-2.3,2.3l0.3,2.9c0,0,0,2.1,0,2.2
	c0,0.1-0.4,1.6-0.4,1.6l-0.7,0.9l-0.7,0.3L100.3,78.1z"/>
<linearGradient id="SVGID_3_" gradientUnits="userSpaceOnUse" x1="104.2196" y1="124.8836" x2="104.2196" y2="85.4895">
	<stop  offset="0" style="stop-color:#9D6828"/>
	<stop  offset="0.4037" style="stop-color:#9D6828"/>
	<stop  offset="0.514" style="stop-color:#A56E28"/>
	<stop  offset="0.7826" style="stop-color:#FCB42B"/>
	<stop  offset="0.9028" style="stop-color:#FEDB2B"/>
	<stop  offset="1" style="stop-color:#FEDB2B"/>
</linearGradient>
<path class="st10" d="M100.9,85.5l1.5,1.2l-0.5,1.7l-0.6,2l-0.7,5.2L100,105v7.1c0,0-0.6,6.1,3.6,9.1c0,0,4.7,3.2,9,1.7l-0.4,0.5
	c0,0-4.5,1.7-7.3,1.4c0,0-2.3,0.3-5.5-0.9l-1.3-0.4l-1.1,0l-1.1,0.3l0.2-2.1l-0.5-2.8l0-2.6l0.1-2.4l0.2-4l0.8-0.1l-0.1-2.7
	l-0.8-2.1l-0.1-1.6v-3.3l2.7-0.7v-7.7l-0.2-1.8l1.5-1.3l0.8-2.2L100.9,85.5z"/>
<linearGradient id="SVGID_4_" gradientUnits="userSpaceOnUse" x1="110.2401" y1="123.2262" x2="110.2401" y2="86.2953">
	<stop  offset="0" style="stop-color:#9D6828"/>
	<stop  offset="0.1848" style="stop-color:#9D6828"/>
	<stop  offset="0.6542" style="stop-color:#FCB42B"/>
	<stop  offset="0.8513" style="stop-color:#FEDB2B"/>
	<stop  offset="1" style="stop-color:#FEDB2B"/>
</linearGradient>
<path class="st11" d="M102.6,86.9c0,0,3,1.6,3.7-0.6l0.5,0.4c0,0,2.9,3.5,3.4,5.9l1.4,4.7l0.8,2.6l1.6,3.8l0.1,0.3
	c0,0,3.9,2.8,5.4,7.5c0,0,2,6-0.1,10.3c0,0-0.7-1.3-4.7,0.3l-2.4,1.1c0,0-7,1.4-10.9-4.1c0,0-1.8-1.2-1.5-10.4l0.3-7.9l0.5-7.1
	l0.7-3.7l0.6-2.1L102.6,86.9z"/>
<linearGradient id="SVGID_5_" gradientUnits="userSpaceOnUse" x1="34.1105" y1="128.9297" x2="119.7256" y2="128.9297">
	<stop  offset="0.4872" style="stop-color:#DDF2F8"/>
	<stop  offset="1" style="stop-color:#808999"/>
</linearGradient>
<path class="st12" d="M96.1,126.9l-0.4-1.5l0.3-1.5c0,0,0.9-0.9,3.9,0.3c0,0,2.1,1.3,7.3,0.7l2.9-0.6l2.3-1l2.7-1.1
	c0,0,3.6-1.5,4.2-0.1c0,0,1.3,2-2.1,3.6c0,0-3.3,1.2-4.7,3.2c0,0-2.6,3.1-4.7,4c0,0-4,1.9-10.5,1.3c0,0-9-0.6-8.9-0.6
	c0.1,0-13.4-0.4-14.3,0c0,0-16.3,0.7-16.6,0.9c0,0-12,1.5-13.1,1.8c0,0-7.3,1.2-9.2,0.5c0,0-1.5-0.6-1.4-0.9c0,0,0.7-1.9,5.5-2.7
	c0,0,3.5-1.5,3.6-2.6c0,0-3.7-2-3.4-3.1c0,0-0.5-2.7,4.7-4.3c0,0,3.9-1.5,8.3-0.9l-0.1,1.8l0.5,0.5l-0.1,1.6l-0.5,0.9l6.5,0.8
	l2.9-0.8l2.3-0.5l0.9,0.9l4.5,0.1l3.5-0.8l1.8-0.2l1.8,0.6l7-0.7l2.1-0.2l1.3,1l4.6,0.5L96.1,126.9z"/>
<path class="st13" d="M50.3,91.2l-0.8,5.4v2.1l0.8,1.5c0,0,2.8,2.4,11.2,0.7l11.2-1.2h7.6l8.4,0.2H96l2.4-0.5l0.1-9.2l-3.3,0.4
	l-9.7,0.4l-8-0.6L70,90.2l-8.3,0.2l-7.5,0.4L50.3,91.2z"/>
<path class="st14" d="M52.2,101.6c0,0-0.6,1.6-0.6,1.7c0,0.1,0.5,1.3,0.5,1.3l0.5,0.3l0,1.1l-0.7,1.1l0.1,1.3c0,0,1,2.3,1,2.5
	c0,0.2,0.1,1.7,0.1,1.7l-0.7,0.8c0,0-0.2,1.3-0.1,1.4c0.1,0.1,0.7,1.4,0.7,1.4s0.9,0.8,0.7,1c-0.1,0.2-0.2,3.4-0.2,3.4
	s-0.4,1.9-0.4,2c0,0.1,0.2,1.8,0.2,1.8l0.1,1.5l-0.5,1.2l4.5,0.6l4-0.4l2-0.4l0.9-0.2l0.9,0.7l3.2,0.1l4.1-0.7l2.3-0.3l2,0.6
	l3.1-0.2l4-0.6l2.3,0l1.4,0.9l3.4,0.4l5.1-0.3l-0.7-1.2l0.6-3.9l-0.2-2.5l-0.2-2.8l0.4-3l0-3.9l0.8-0.3v-2.3l-0.7-2.4l-0.1-2.2
	L96,99.9h-9.7l-8.1-0.4L71,99.9l-6.8,0.7l-7.1,0.9l-4.7-0.6L52.2,101.6z"/>
<path class="st15" d="M62.2,101.6c0.1-0.1,0.2,1.2,0.2,1.2l-0.9,1.1l-1.4,0.8c0,0-4.4,0.5-4.4,0.6c0,0-3.1-0.3-3.1-0.3l-1-1l0.3-1.6
	l0.6-1.1l3.3,0.3c0,0,5-0.4,5-0.3c0,0.1,1.2-0.3,1.2-0.3L62.2,101.6z"/>
<path class="st16" d="M63.4,101l1,2.4c0,0,0.6,1.9,4.6,0.9l2.7-0.4l1.3-1.1l0.2-1.8l-0.2-1.4L63.4,101L63.4,101z"/>
<path class="st16" d="M75.1,99.7l-0.5,1.8l0.3,2.1c0,0,0,0.6,1.9,0.7l3.6-0.1l2.2-0.6l1.2-0.8l0.2-1.5l-0.4-1.6L75.1,99.7z"/>
<polygon class="st16" points="85.9,99.9 85.9,101.9 86.6,103.3 88.7,103.9 91.5,103.9 94.4,103.9 95.8,103.3 96.1,101.9 95.9,100.1 
	"/>
<polygon class="st16" points="80.7,105.6 89.1,105.4 89.7,107.7 89.2,108.9 88,109.6 83,109.8 81.2,109.2 80.5,107.6 "/>
<polygon class="st15" points="91.8,105.9 93.3,105.2 95.2,105 96.4,105.8 96.9,107.5 96.9,109.7 95,110.2 93.3,110.1 92.1,109.6 
	91.5,108.2 91.5,106.7 "/>
<polygon class="st15" points="70.6,106 70.4,108.4 70.8,110.2 72.8,110.2 76.8,109.9 78.2,109 78.9,107.6 77.8,106.6 74.6,106.1 "/>
<polygon class="st17" points="74.7,112.5 74.3,114.1 75.1,116.1 76.3,116.9 80.1,116.9 83.3,116.4 84.4,114.9 85,113.5 83.2,112.3 
	79.7,112.2 75.7,112.2 "/>
<polygon class="st16" points="86.1,112.7 86.6,115.2 88.3,116.9 90.9,117.3 93.5,116.8 95.5,115.5 96,113.8 95.2,112.3 92.7,111.1 
	89.3,111.1 86.7,111.7 "/>
<path class="st15" d="M52.9,110.8c0.2,0,1.5,0.4,1.5,0.4s1.3-0.1,1.4-0.2c0.1-0.1,0.9-1.1,0.9-1.1l0.4-1.5l-0.1-1.7l-5-0.1l0.1,2.1
	L52.9,110.8z"/>
<polygon class="st17" points="59.2,106.3 58.7,107.7 58.9,109.3 59.4,110.4 60.3,111 63.2,111.3 65.2,111.2 66.9,110.6 68,109.6 
	68.3,108 67.9,106.6 66.8,106.1 64.4,105.8 61.2,106.1 "/>
<path class="st15" d="M52.4,113.3c0.1,0,6.7-0.6,6.7-0.6l2.4,1l0.6,1.3v1.2l-0.4,0.7l-1.8,0.3l-3.8,0.4l-1.5-0.4l-1.6-1.2l-0.8-1.9
	L52.4,113.3z"/>
<polygon class="st18" points="63.7,113.3 63.9,115.3 64.5,116.5 68,116.7 71.6,115.9 72.7,114.6 72.4,113.3 71.4,112.4 68.5,112.2 
	"/>
<path class="st16" d="M53.7,119.1l0.8-0.9c0,0,1-0.1,1.1-0.1s1.1,0.9,1.2,0.9c0.1,0,1,1.3,1,1.3v1.4l-0.3,1.3l-1.2,1.1l-1.6,0.4
	l-1.4-0.2l-0.4-0.6l0.4-2.9L53.7,119.1z"/>
<path class="st15" d="M59.2,121v-2.2c0,0,1.1-0.2,1.2-0.2c0.1,0,4.1,0.3,4.1,0.3l2.2,1l0.5,1.2l-0.3,1.3l-0.7,0.9l-1.8,0.8l-2,0.2
	l-1.9-0.4l-0.9-1.5L59.2,121z"/>
<polygon class="st18" points="68.8,122.1 68.8,120.2 69.3,118.6 72.4,118.5 76.2,118.6 77.7,119.5 78.5,120.5 78.2,121.7 
	77.3,122.6 75.9,123.2 71.7,123.5 69.6,122.8 "/>
<path class="st17" d="M80.2,118.5l-0.4,2.1l0.5,1.8c0,0,0.9,0.8,1.1,0.9c0.2,0,2.7,0,2.7,0l2.6-0.2l1.5-0.1l1-0.8l0.5-1.2l-0.3-1.4
	l-0.2-0.9l-6.4-0.6L80.2,118.5z"/>
<path class="st15" d="M91,118.8c0,0.1,0,2.4,0,2.4s0.1,2.1,0.2,2s2,1,2,1l2,0.3l0.8-0.7l0.2-2.4l-0.9-2.3l-1-0.7l-1.8,0L91,118.8z"
	/>
<polygon class="st16" points="86.5,125 90.8,125.1 94.2,125.4 95.7,126.3 96.2,127.2 93.8,127.3 89.5,127.5 87.6,127.1 86.1,126.1 
	86.4,125.2 "/>
<polygon class="st16" points="83.8,124.8 84.1,125.9 84.3,126.2 81.1,126.7 78,127 76,126.8 74.8,126.1 74.6,125.3 79.8,125 "/>
<path class="st16" d="M64.9,125.6h2.9c0,0,2.9-0.6,3-0.6c0.1,0.1,1.9,0.1,1.9,0.1l0.7,1.1l-1,0.5l-4.4,0.6l-2.3-0.1l-1-0.5
	L64.9,125.6z"/>
<path class="st15" d="M61.9,126.9l0.8-1.6c0,0-1.9-0.1-1.8,0c0,0.1-4.8,0.1-4.7,0.1c0.1,0-2,0.3-2,0.3l-0.9,0.3l-0.6,0.8l2.6,0.4
	l3.8,0L61.9,126.9z"/>
<polygon class="st19" points="23.2,37.1 22.9,34.8 22.5,31 22.5,29.3 25.5,33 27.7,36.6 33,35.7 31.7,37.1 30.1,38.2 28.9,38.6 
	32,40.5 34,42.1 34.3,42.5 33.8,42.8 32.4,43 30.2,42.7 26.7,41.7 25.8,43.3 24.3,46.3 23.6,47.3 23.1,43.9 22.8,41.5 23,40.8 
	20.5,40.8 18.8,40.6 17.7,40.1 20,39.5 22,38.3 "/>
<polygon class="st20" points="38.3,64.4 37.4,65.2 37.6,66.5 36.4,65.9 35.3,66.4 35.6,65.1 34.7,64.2 36,64.1 36.6,63 37.1,64.1 
	"/>
<polygon class="st21" points="35,74.5 34.7,75.1 35,75.7 34.3,75.5 33.8,76 33.8,75.3 33.2,75 33.8,74.7 33.9,74.1 34.4,74.6 "/>
<polygon class="st22" points="46.9,67.4 46.6,69.5 48.2,70.8 46.1,71.3 45.3,73.2 44.3,71.3 42.2,71.2 43.7,69.6 43.2,67.6 
	45.1,68.5 "/>
<g class="st23">
	<g>
		<path class="st24" d="M31.6,91c0.6,0,0.6-1,0-1C31,90.1,31,91,31.6,91L31.6,91z"/>
	</g>
</g>
<g class="st23">
	<g>
		<path class="st24" d="M56.3,79.2c0.6,0,0.6-1,0-1C55.6,78.3,55.6,79.2,56.3,79.2L56.3,79.2z"/>
	</g>
</g>
<g class="st23">
	<g>
		<path class="st24" d="M32.7,58.2c0.6,0,0.6-1,0-1C32.1,57.2,32.1,58.2,32.7,58.2L32.7,58.2z"/>
	</g>
</g>
<g class="st23">
	<g>
		<path class="st24" d="M28.9,68.7c0.3,0,0.3-0.5,0-0.5C28.6,68.2,28.6,68.7,28.9,68.7L28.9,68.7z"/>
	</g>
</g>
<g class="st23">
	<g>
		<path class="st24" d="M31.8,53.6c0.3,0,0.3-0.5,0-0.5C31.5,53.1,31.5,53.6,31.8,53.6L31.8,53.6z"/>
	</g>
</g>
<g class="st23">
	<g>
		<path class="st24" d="M49.2,81.4c0.1,0,0.2,0,0.4,0c0.1,0,0.1,0,0.2-0.1c0,0,0.1-0.1,0.1-0.2c0-0.1,0-0.1-0.1-0.2
			c0,0-0.1-0.1-0.2-0.1c-0.1,0-0.2,0-0.4,0c-0.1,0-0.1,0-0.2,0.1c0,0-0.1,0.1-0.1,0.2c0,0.1,0,0.1,0.1,0.2
			C49.1,81.3,49.1,81.4,49.2,81.4L49.2,81.4z"/>
	</g>
</g>
<g class="st23">
	<g>
		<path class="st24" d="M47.7,76.1c0.3,0,0.3-0.5,0-0.5C47.4,75.6,47.4,76.1,47.7,76.1L47.7,76.1z"/>
	</g>
</g>
<g class="st23">
	<g>
		<path class="st24" d="M37.2,82.3c0.3,0,0.3-0.5,0-0.5C36.9,81.8,36.9,82.3,37.2,82.3L37.2,82.3z"/>
	</g>
</g>
<g class="st23">
	<g>
		<path class="st24" d="M34.1,62.8c0.3,0,0.3-0.5,0-0.5C33.8,62.4,33.8,62.8,34.1,62.8L34.1,62.8z"/>
	</g>
</g>
<g class="st23">
	<g>
		<path class="st24" d="M63.7,76.5c0.3,0,0.3-0.5,0-0.5C63.4,76,63.4,76.5,63.7,76.5L63.7,76.5z"/>
	</g>
</g>
<g class="st25">
	<g>
		<path class="st0" d="M106.5,76c0.6,0,0.6-1,0-1C105.8,75,105.8,76,106.5,76L106.5,76z"/>
	</g>
</g>
<g class="st25">
	<g>
		<path class="st0" d="M116.2,118.1c0.6,0,0.6-1,0-1C115.6,117.1,115.6,118.1,116.2,118.1L116.2,118.1z"/>
	</g>
</g>
<g class="st25">
	<g>
		<path class="st0" d="M114.5,109.6c0.6,0,0.6-1,0-1C113.8,108.7,113.8,109.6,114.5,109.6L114.5,109.6z"/>
	</g>
</g>
<g class="st23">
	<g>
		<path class="st0" d="M111.7,80.6c0.6,0,0.6-1,0-1C111.1,79.6,111.1,80.6,111.7,80.6L111.7,80.6z"/>
	</g>
</g>
<g class="st25">
	<g>
		<path class="st0" d="M109.6,99.8c0.6,0,0.6-1,0-1C109,98.9,109,99.8,109.6,99.8L109.6,99.8z"/>
	</g>
</g>
<g class="st23">
	<g>
		<path class="st0" d="M106.5,96.2c1.2,0,1.2-1.9,0-1.9C105.2,94.3,105.2,96.2,106.5,96.2L106.5,96.2z"/>
	</g>
</g>
<g class="st23">
	<g>
		<path class="st0" d="M106.8,108.4c1.2,0,1.2-1.9,0-1.9C105.5,106.5,105.5,108.4,106.8,108.4L106.8,108.4z"/>
	</g>
</g>
<g class="st25">
	<g>
		<path class="st0" d="M106.8,72c1.2,0,1.2-1.9,0-1.9C105.5,70.1,105.5,72,106.8,72L106.8,72z"/>
	</g>
</g>
<g class="st25">
	<g>
		<path class="st0" d="M106.7,120.9c1.2,0,1.2-1.9,0-1.9C105.4,118.9,105.4,120.9,106.7,120.9L106.7,120.9z"/>
	</g>
</g>
<g class="st25">
	<g>
		<path class="st0" d="M111.7,114.7c1.2,0,1.2-1.9,0-1.9C110.5,112.8,110.5,114.7,111.7,114.7L111.7,114.7z"/>
	</g>
</g>
<g>
	<polygon class="st26" points="65.7,82.2 65.4,84.1 66.9,85.4 65,85.7 64.3,87.5 63.3,85.8 61.4,85.6 62.7,84.2 62.3,82.4 64,83.2 	
		"/>
	<polygon class="st27" points="65.7,82.2 65.4,84.1 66.9,85.4 65,85.7 64.3,87.5 63.3,85.8 61.4,85.6 62.7,84.2 62.3,82.4 64,83.2 	
		"/>
</g>
<path class="st28" d="M55.7,84.7c0.2-0.1,0.4-0.4,0.7-0.2c0.3,0.2,0.1,0.6-0.1,0.8c-0.5,0.3-1-0.1-1.1-0.6c-0.2-0.7,0.4-1.3,1.1-1.5
	c1.5-0.4,2.2,1.5,1.4,2.5c-0.1,0.1,0.1,0.3,0.2,0.1c0.6-0.9,0.4-2.3-0.6-2.8c-0.9-0.5-2.1,0-2.4,0.9c-0.3,0.9,0.5,2.2,1.5,1.6
	c0.4-0.2,0.4-0.7,0.2-1.1c-0.4-0.5-0.8-0.3-1.2,0C55.4,84.6,55.5,84.8,55.7,84.7"/>
<path class="st28" d="M69.3,27.8c0.2-0.1,0.3-0.3,0.6-0.1c0.2,0.2,0.1,0.5-0.1,0.6c-0.4,0.3-0.8-0.1-0.9-0.5c-0.1-0.6,0.4-1,0.9-1.2
	c1.2-0.3,1.8,1.2,1.2,2c-0.1,0.1,0.1,0.2,0.2,0.1c0.5-0.7,0.4-1.8-0.5-2.3c-0.7-0.4-1.7,0-1.9,0.7c-0.3,0.7,0.4,1.8,1.2,1.2
	c0.3-0.2,0.4-0.6,0.2-0.9c-0.3-0.4-0.6-0.2-0.9,0C69,27.7,69.2,27.9,69.3,27.8"/>
<g class="st29">
	<g>
		<path class="st26" d="M51.2,89.3c1.2,0,1.2-1.9,0-1.9C49.9,87.4,49.9,89.3,51.2,89.3L51.2,89.3z"/>
	</g>
</g>
<g class="st29">
	<g>
		<path class="st26" d="M97.1,81.6c1.2,0,1.2-1.9,0-1.9C95.9,79.7,95.9,81.6,97.1,81.6L97.1,81.6z"/>
	</g>
</g>
<g class="st29">
	<g>
		<path class="st26" d="M60.1,87.8c0.3,0,0.3-0.5,0-0.5C59.8,87.4,59.8,87.8,60.1,87.8L60.1,87.8z"/>
	</g>
</g>
<g class="st29">
	<g>
		<path class="st26" d="M90,82.4c0.1,0,0.1,0,0.2,0c0,0,0,0,0,0c0.1,0,0.1,0,0.2,0c0.1,0,0.1-0.1,0.2-0.1c0,0,0.1-0.1,0.1-0.2
			c0-0.1,0-0.1,0-0.2c0,0,0-0.1,0-0.1c0-0.1-0.1-0.2-0.1-0.2c0,0-0.1,0-0.1-0.1c-0.1,0-0.2-0.1-0.2-0.1c-0.1,0-0.1,0-0.2,0
			c0,0,0,0,0,0c-0.1,0-0.1,0-0.2,0c-0.1,0-0.1,0.1-0.2,0.1c0,0-0.1,0.1-0.1,0.2c0,0.1,0,0.1,0,0.2c0,0,0,0.1,0,0.1
			c0,0.1,0.1,0.2,0.1,0.2c0,0,0.1,0,0.1,0.1C89.8,82.4,89.9,82.4,90,82.4L90,82.4z"/>
	</g>
</g>
<g class="st29">
	<g>
		<path class="st26" d="M62.1,29.4c0.3,0,0.3-0.5,0-0.5C61.8,29,61.8,29.4,62.1,29.4L62.1,29.4z"/>
	</g>
</g>
<g class="st29">
	<g>
		<path class="st26" d="M59.8,82.4c0.6,0,0.6-1,0-1C59.1,81.5,59.1,82.4,59.8,82.4L59.8,82.4z"/>
	</g>
</g>
<g class="st29">
	<g>
		<path class="st26" d="M67.6,87.6c0.6,0,0.6-1,0-1C67,86.7,67,87.6,67.6,87.6L67.6,87.6z"/>
	</g>
</g>
<g class="st29">
	<g>
		<path class="st26" d="M81.5,87.2c0.3,0,0.3-0.5,0-0.5C81.2,86.7,81.2,87.2,81.5,87.2L81.5,87.2z"/>
	</g>
</g>
<g class="st29">
	<g>
		<path class="st26" d="M49.9,85.9c0.3,0,0.3-0.5,0-0.5C49.6,85.4,49.6,85.9,49.9,85.9L49.9,85.9z"/>
	</g>
</g>
<g>
	<g>
		<g>
			<g>
				<path d="M49.8,91.6c8.3-0.6,16.6-1.3,24.9-0.7c7.9,0.6,15.8,1.2,23.6-0.4c0.5-0.1,0.3-0.9-0.2-0.8c-7.9,1.6-16,0.9-23.9,0.3
					C66,89.5,58,90.2,49.8,90.8C49.3,90.9,49.3,91.6,49.8,91.6L49.8,91.6z"/>
			</g>
		</g>
		<g>
			<g>
				<path d="M98.2,90.5c0.2,1.7,0.1,3.4,0,5.1c0,0.8-0.1,1.5-0.1,2.3c0,0.4,0,0.7,0,1.1c0,0.3-1.6,0.4-1.9,0.4
					c-3.7,0.4-7.4,0.2-11.1,0.1c-6.4-0.3-12.7-0.6-19,0.4c-4.3,0.6-8.9,1.7-13.3,1c-0.9-0.1-1.7-0.4-2.4-0.9
					c-0.9-0.6-0.8-1.8-0.8-2.8c0-1.9,0.3-4,0.9-5.8c0.1-0.5-0.6-0.7-0.8-0.2c-0.5,1.6-0.7,3.3-0.8,4.9c-0.1,1.5-0.3,3.2,0.9,4.3
					c1.2,1.1,3.1,1.2,4.6,1.3c2.3,0.1,4.7-0.1,7-0.4c5.2-0.7,10.3-1.4,15.6-1.4c7.2,0.1,14.5,0.9,21.7-0.1c0.2,0,0.3-0.2,0.3-0.4
					c-0.1-3,0.3-6.1,0-9.1C98.9,90,98.2,90,98.2,90.5L98.2,90.5z"/>
			</g>
		</g>
		<g>
			<g>
				<path d="M62.6,101.2c-0.2-0.5-0.9-0.1-0.7,0.4c1.3,2.9-3.9,3-5.6,3c-1.2,0-2.5,0.2-3.7-0.2c-1.2-0.3-0.3-2.3,0.1-3.3
					c-0.3,0-0.5-0.1-0.7-0.2c-0.5,1.1-1.3,2.9-0.3,3.9c1.1,1.1,3.5,0.6,4.9,0.6C58.9,105.4,64.2,104.9,62.6,101.2z"/>
			</g>
		</g>
		<g>
			<g>
				<path d="M63.1,101.3c0.4,1,0.7,2.3,1.6,3.1c0.8,0.8,2.2,0.5,3.2,0.4c1.5-0.2,3.2-0.2,4.5-1c1.2-0.7,1.2-2.3,1.2-3.5
					c0-0.5-0.8-0.5-0.8,0c0.1,1.3,0,2.6-1.4,3.1c-1.1,0.4-2.3,0.4-3.4,0.6c-0.8,0.1-1.8,0.3-2.6-0.1c-0.8-0.5-1.1-2-1.4-2.8
					C63.7,100.7,62.9,100.9,63.1,101.3L63.1,101.3z"/>
			</g>
		</g>
		<g>
			<g>
				<path d="M74.4,100c0,1-0.7,3.6,0.3,4.3c1.4,0.9,3.5,0.6,5,0.4c1.3-0.1,3-0.2,4-1.1c1.1-1,0.6-2.5,0.3-3.8
					c-0.1-0.5-0.9-0.3-0.8,0.2c0.3,1.1,0.8,2.5-0.4,3.2c-1,0.5-2.4,0.6-3.4,0.7c-1.2,0.1-2.5,0.2-3.7-0.1c-1.3-0.3-0.6-2.9-0.5-3.9
					C75.2,99.4,74.4,99.4,74.4,100L74.4,100z"/>
			</g>
		</g>
		<g>
			<g>
				<path d="M85.5,100.5c-0.1,1.4-0.1,2.8,1.4,3.5c1.4,0.6,3.3,0.2,4.9,0.2c1.2,0,2.9,0.3,4-0.4c1.1-0.8,0.7-2.7,0.6-3.8
					c-0.1-0.5-0.9-0.5-0.8,0c0.1,0.8,0.5,2.6-0.3,3.2c-0.7,0.5-2.2,0.2-3,0.2c-1.2,0-2.5,0.1-3.7,0.1c-1.9,0-2.3-1.2-2.2-3
					C86.3,100,85.5,100,85.5,100.5L85.5,100.5z"/>
			</g>
		</g>
		<g>
			<g>
				<path d="M56.7,106.3c-1.6-0.3-3.2-0.2-4.8,0c-0.2,0-0.4,0.2-0.4,0.4c-0.2,2.1,0.6,4.9,3.1,5c2.7,0.1,3.1-3.1,2.7-5.1
					c-0.1-0.5-0.9-0.3-0.8,0.2c0.3,1.5,0.1,4-2,4.1c-2.1,0-2.5-2.6-2.4-4.2c-0.1,0.1-0.3,0.3-0.4,0.4c1.5-0.2,3.1-0.3,4.6,0
					C57,107.2,57.2,106.4,56.7,106.3L56.7,106.3z"/>
			</g>
		</g>
		<g>
			<g>
				<path d="M58.6,106.2c-0.2,1.4-0.6,2.9,0.4,4.2c0.7,0.9,2,1.2,3,1.3c2,0.2,5.7,0,6.6-2.3c2-5.3-6.4-3.5-8.9-3.6
					c-0.5,0-0.5,0.8,0,0.8c2.1,0.1,6.8-1.5,8.2,0.8c0.5,0.9-0.1,2.3-0.8,2.7c-0.9,0.6-2.2,0.7-3.3,0.8c-1,0.1-2.1,0-3.1-0.3
					c-1.9-0.6-1.5-2.7-1.3-4.2C59.4,105.9,58.6,105.7,58.6,106.2L58.6,106.2z"/>
			</g>
		</g>
		<g>
			<g>
				<path d="M69.8,106.1c0.4,1.4-0.3,2.9,0.4,4.3c0.4,0.7,1.4,0.5,2.1,0.5c1.9-0.1,5.2,0,6.4-1.6c3-4-6.4-3.4-8-3.6
					c-0.5-0.1-0.5,0.7,0,0.8c1.3,0.1,8.6-0.5,7.6,2c-0.7,1.7-3.9,1.5-5.4,1.6c-1.1,0.1-2.1,0.4-2.2-1c-0.1-1,0.2-2.1-0.1-3.1
					C70.5,105.4,69.7,105.6,69.8,106.1L69.8,106.1z"/>
			</g>
		</g>
		<g>
			<g>
				<path d="M79.8,106.1c0.2,1.1,0.3,2.7,1.2,3.5c1,0.9,3.1,0.6,4.3,0.6c1.4-0.1,3.1-0.1,4.2-1c1.1-1,0.1-2.8-0.4-3.7
					c-0.3-0.4-0.9,0-0.7,0.4c0.7,1.2,1.4,2.7-0.3,3.2c-1.2,0.4-2.7,0.4-4,0.4c-0.8,0-2.2,0.1-2.7-0.7c-0.5-0.7-0.6-2-0.8-2.9
					C80.5,105.4,79.8,105.6,79.8,106.1L79.8,106.1z"/>
			</g>
		</g>
		<g>
			<g>
				<path d="M80.6,106c2.9-0.3,5.9,0.1,8.8-0.4c0.5-0.1,0.3-0.8-0.2-0.8c-2.9,0.5-5.8,0-8.6,0.3C80.1,105.3,80.1,106,80.6,106
					L80.6,106z"/>
			</g>
		</g>
		<g>
			<g>
				<path d="M91.3,105.7c-0.3,1.5-0.6,3.5,0.8,4.5c1.3,0.9,3.5,0.3,5,0c0.2,0,0.3-0.2,0.3-0.4c-0.1-1.5-0.1-3.2-1-4.4
					c-1-1.3-3-0.6-4.2-0.1c-0.5,0.2-0.3,0.9,0.2,0.8c1-0.4,2.5-1,3.4-0.1c0.8,0.9,0.8,2.7,0.8,3.9c0.1-0.1,0.2-0.3,0.3-0.4
					c-1.3,0.2-2.7,0.6-3.9,0.2c-1.6-0.4-1.1-2.6-0.9-3.8C92.2,105.4,91.4,105.2,91.3,105.7L91.3,105.7z"/>
			</g>
		</g>
		<g>
			<g>
				<path d="M51.8,112.9c-0.8,6.3,6.1,5.2,10.1,4.4c0.1,0,0.2-0.1,0.3-0.3c1.6-6.5-6.3-3.8-9.8-4.1c-0.5,0-0.5,0.7,0,0.8
					c2.2,0.2,9-1.9,9.3,1.6c0.1,1.5-0.7,1.4-1.9,1.7c-1.2,0.2-2.4,0.3-3.5,0.3c-2.7,0-4-1.6-3.6-4.3
					C52.7,112.4,51.9,112.4,51.8,112.9L51.8,112.9z"/>
			</g>
		</g>
		<g>
			<g>
				<path d="M63.3,112.9c0,1.6-0.5,3.9,1.7,4.2c2,0.3,4.4-0.1,6.4-0.7c1.5-0.5,2.5-2.6,1-3.7c-2.3-1.8-5.8-0.4-8.3-0.1
					c-0.5,0.1-0.5,0.9,0,0.8c1.7-0.2,3.4-0.6,5.1-0.7c1-0.1,4,0.2,3.1,2.1c-0.4,0.8-1.3,1-2,1.2c-1.4,0.3-2.8,0.5-4.2,0.5
					c-0.7,0-1.2,0-1.7-0.5c-0.7-0.5-0.2-2.2-0.2-3C64.1,112.4,63.3,112.4,63.3,112.9L63.3,112.9z"/>
			</g>
		</g>
		<g>
			<g>
				<g>
					<path d="M75.2,111.9c-0.3,0.1-0.6,0.3-0.9,0.4c-0.2,0.2-0.3,0.6-0.3,0.9c0,1.2,0,2.4,0.9,3.3c0.9,0.9,2.3,0.8,3.5,0.7
						c2.3,0,5.9,0.1,6.8-2.6C86.4,111,77.7,111.5,75.2,111.9z M83,115.9c-1.1,0.4-2.4,0.5-3.6,0.5c-1,0.1-2.1,0.1-3.2-0.1
						c-0.9-0.2-1.3-0.9-1.4-1.7c-0.1-0.9-0.3-2.2,1-2.2c1.2,0,2.4,0,3.6,0c1.3,0,4.2-0.1,5,1.3C84.9,114.5,83.5,115.7,83,115.9z"/>
					<g>
						<path class="st30" d="M75.1,111.8c-0.3,0.1-0.7,0.3-0.9,0.5c-0.2,0.2-0.3,0.7-0.4,0.9c-0.1,0.6,0,1.3,0.1,1.9
							c0.3,1.3,1.2,2.1,2.5,2.3c1.1,0.1,2.3,0,3.5,0c1.1,0,2.2-0.2,3.2-0.6c1.3-0.5,3-2.3,1.9-3.8c-0.9-1.2-2.9-1.4-4.2-1.5
							C79,111.4,77,111.5,75.1,111.8c-0.1,0-0.1,0.2,0.1,0.2c1.3-0.2,2.7-0.3,4.1-0.3c1.5,0,3.2,0.1,4.6,0.7c0.5,0.2,1,0.6,1.2,1.2
							c0.2,0.8-0.3,1.6-0.8,2.2c-1.4,1.4-3.8,1.3-5.6,1.3c-1.2,0-2.8,0.3-3.7-0.7c-0.6-0.6-0.8-1.5-0.9-2.3c0-0.4,0-0.8,0.1-1.2
							c0.2-0.6,0.6-0.7,1.1-1C75.4,111.9,75.3,111.7,75.1,111.8z"/>
						<path class="st30" d="M82.9,115.8c-0.9,0.3-1.8,0.4-2.8,0.5c-0.9,0.1-1.8,0.1-2.7,0.1c-0.9,0-2,0-2.4-1
							c-0.2-0.5-0.3-1.2-0.3-1.8c0-0.3,0.1-0.7,0.4-0.8c0.4-0.2,0.9-0.1,1.3-0.1c0.9,0,1.9,0,2.8,0c1.2,0,2.4,0,3.6,0.3
							c0.6,0.2,1.6,0.6,1.5,1.4C84.2,114.9,83.5,115.6,82.9,115.8c-0.1,0.1-0.1,0.3,0.1,0.2c1-0.4,2.2-1.8,1.2-2.7
							c-1-1-2.8-0.9-4.1-0.9c-1,0-2.1,0-3.1,0c-0.7,0-1.7-0.2-2.2,0.5c-0.3,0.5-0.2,1.2-0.2,1.7c0.1,0.7,0.4,1.5,1.1,1.9
							c0.4,0.2,1,0.2,1.5,0.2c0.7,0,1.4,0,2.1-0.1c1.2-0.1,2.5-0.1,3.6-0.5C83.1,116,83.1,115.7,82.9,115.8z"/>
					</g>
				</g>
			</g>
		</g>
		<g>
			<g>
				<path d="M86.2,112.3c2.3-0.8,5.1-1.2,7.5-0.5c2.4,0.6,2.6,3,0.6,4.1c-1.5,0.9-3.5,1.1-5.2,0.7c-2.2-0.5-2.8-2.4-2.2-4.4
					c0.1-0.5-0.6-0.7-0.8-0.2c-1.7,5.6,5.2,6.8,8.9,4.4c1.7-1.1,2.1-3.5,0.3-4.7c-2.6-1.7-6.5-1-9.3-0.1
					C85.5,111.7,85.7,112.5,86.2,112.3L86.2,112.3z"/>
			</g>
		</g>
		<g>
			<g>
				<path d="M53.3,123.8c0-1,0-1.9,0.2-2.9c0.1-0.8,0.3-2.2,1.3-2.5c0.6-0.2,1.3,0.5,1.7,0.9c0.7,0.6,1,1.4,0.9,2.3
					c-0.3,1.8-2.1,2.7-3.8,2.1c-0.5-0.2-0.7,0.6-0.2,0.8c1.8,0.7,3.7-0.2,4.5-1.9c0.8-1.9-0.3-3.8-2-4.7c-3.1-1.7-3.3,4.2-3.3,5.9
					C52.5,124.3,53.3,124.3,53.3,123.8L53.3,123.8z"/>
			</g>
		</g>
		<g>
			<g>
				<path d="M58.7,119.2c0,1.9,0.1,5.1,2.5,5.4c2,0.2,5-0.1,6-2.1c2-4.1-5.5-4.2-7.7-4.2c-0.5,0-0.5,0.8,0,0.8
					c1.7,0,7.1-0.2,7.2,2.3c0.1,2.2-3,2.5-4.6,2.5c-1.3,0-1.9-0.4-2.3-1.7c-0.3-1-0.3-2-0.3-3C59.5,118.7,58.7,118.7,58.7,119.2
					L58.7,119.2z"/>
			</g>
		</g>
		<g>
			<g>
				<path d="M68.7,118.6c-0.2,1.2-0.8,2.8-0.1,4c0.6,0.9,1.9,1.2,2.9,1.2c2.1,0.2,6.1,0.3,7.1-2.1c1.7-4.3-7.1-3.8-9.3-3.2
					c-0.5,0.1-0.3,0.9,0.2,0.8c1.6-0.4,8.2-1.1,8.5,1.4c0.3,2.5-3.8,2.4-5.3,2.4c-1.1,0-2,0-3-0.5c-1.3-0.7-0.5-2.7-0.3-3.7
					C69.6,118.3,68.9,118.1,68.7,118.6L68.7,118.6z"/>
			</g>
		</g>
		<g>
			<g>
				<path d="M79.6,119.2c0.4,0.4-0.1,1.9,0,2.4c0.1,0.6,0.4,1.3,0.9,1.6c1.6,1,3.8,0.3,5.6,0.3c1.2,0,2.7,0,3.4-1
					c0.8-1.1,0.3-2.8,0-4c-0.1-0.5-0.9-0.3-0.8,0.2c0.3,1,0.9,2.8-0.1,3.6c-1,0.7-2.6,0.4-3.8,0.5c-1.6,0.1-4.5,0.9-4.5-1.6
					c0-0.8,0.4-1.8-0.2-2.5C79.8,118.2,79.3,118.8,79.6,119.2L79.6,119.2z"/>
			</g>
		</g>
		<g>
			<g>
				<path d="M80.3,118.7c2.9-0.7,5.8,0.1,8.6,0.2c0.5,0,0.5-0.8,0-0.8c-3-0.1-5.9-0.8-8.8-0.2C79.6,118.1,79.8,118.8,80.3,118.7
					L80.3,118.7z"/>
			</g>
		</g>
		<g>
			<g>
				<path d="M90.6,119c0.2,1.3-0.6,3.9,0.7,4.8c1,0.7,3.3,1.4,4.4,0.8c1.3-0.8,1-3.6,0.7-4.7c-0.7-2.4-3.1-1.7-4.9-1.5
					c-0.5,0.1-0.5,0.8,0,0.8c1.4-0.2,3.5-1,4.1,0.9c0.3,0.8,0.6,3.8-0.7,3.9c-0.9,0.1-3.1-0.3-3.4-1.2c-0.4-1.2,0-2.6-0.2-3.9
					C91.3,118.3,90.5,118.5,90.6,119L90.6,119z"/>
			</g>
		</g>
		<g>
			<g>
				<path d="M53.1,127c-0.4-1.6,8.5-1.2,9.7-1.3c-0.2-0.1-0.3-0.3-0.5-0.4c-0.2,2.8-7.1,1.5-8.9,1.4c-0.5,0-0.5,0.8,0,0.8
					c2.3,0,9.4,1.6,9.7-2.2c0-0.3-0.3-0.4-0.5-0.4c-1.6,0.3-11-0.9-10.3,2.3C52.5,127.7,53.2,127.5,53.1,127L53.1,127z"/>
			</g>
		</g>
		<g>
			<g>
				<path d="M64.2,125.9c-0.7,3.6,7.8,1.4,9.4,1c0.2,0,0.3-0.2,0.3-0.4c-0.4-3.9-6.4-0.9-8.7-1.3c-0.5-0.1-0.7,0.7-0.2,0.8
					c1.3,0.3,2.7-0.1,4-0.4c0.8-0.1,1.6-0.3,2.5-0.3c0.5,0,0.9,0.1,1.3,0.4c0.4,0.3,0.6,0.4,0.2,0.5c-1,0.2-8.4,1.8-8-0.2
					C65.1,125.6,64.3,125.4,64.2,125.9L64.2,125.9z"/>
			</g>
		</g>
		<g>
			<g>
				<path d="M74.2,125.3c0.5,3.7,7.6,1.4,9.9,1.3c0.2,0,0.4-0.2,0.4-0.4c0-0.6,0-1-0.2-1.6c-0.1-0.2-0.2-0.3-0.4-0.3
					c-2.9,0-5.8,0.5-8.7,0.5c-0.5,0-0.5,0.8,0,0.8c1.6,0,3.1-0.2,4.7-0.3c0.8-0.1,1.6-0.1,2.3-0.2c1-0.1,1.5-0.2,1.5,1
					c0.1-0.1,0.3-0.3,0.4-0.4c-1.7,0-8.7,2-9.1-0.5C74.9,124.8,74.1,124.7,74.2,125.3L74.2,125.3z"/>
			</g>
		</g>
		<g>
			<g>
				<path d="M85.7,124.8c-0.9,4.3,8.3,3,10.5,2.7c0.2,0,0.3-0.2,0.3-0.4c-0.5-3.9-7.7-1.6-10.1-2.2c-0.5-0.1-0.7,0.6-0.2,0.8
					c1.4,0.4,3.1,0.1,4.5,0c1,0,2,0,3,0.1c0.3,0,0.7,0.1,1,0.2c0.4,0.1,0.8,0.8,1.1,0.8c-1.6,0.3-10,1.3-9.4-1.7
					C86.5,124.5,85.8,124.3,85.7,124.8L85.7,124.8z"/>
			</g>
		</g>
		<g>
			<g>
				<path d="M95.5,103.8c0,0.5,0.2,1,0.4,1.5c0.2,0.5,0.9,0.1,0.7-0.4c-0.2-0.3-0.3-0.7-0.3-1.1C96.3,103.3,95.5,103.3,95.5,103.8
					L95.5,103.8z"/>
			</g>
		</g>
		<g>
			<g>
				<path d="M95.7,110.3c0,0.6-0.2,1.1-0.2,1.6c0,0.5,0.8,0.5,0.8,0c0-0.6,0.2-1.1,0.2-1.6C96.5,109.8,95.7,109.8,95.7,110.3
					L95.7,110.3z"/>
			</g>
		</g>
		<g>
			<g>
				<path d="M95.5,116c-0.2,0.8-0.4,1.6-0.2,2.4c0.1,0.5,0.9,0.3,0.8-0.2c-0.1-0.7,0-1.3,0.2-2C96.4,115.8,95.6,115.6,95.5,116
					L95.5,116z"/>
			</g>
		</g>
		<g>
			<g>
				<path d="M95.3,124.7c0,0.3,0,0.6,0,0.9c0,0.5,0.8,0.5,0.8,0c0-0.3,0-0.6,0-0.9C96.1,124.2,95.3,124.2,95.3,124.7L95.3,124.7z"/>
			</g>
		</g>
		<g>
			<g>
				<path d="M52.9,125.1c0,0.1,0,0.2,0,0.3c0,0.5,0.8,0.5,0.8,0c0-0.3,0-0.6,0-0.8c0-0.5-0.8-0.5-0.8,0c0,0.3,0,0.6,0,0.8
					c0,0.5,0.8,0.5,0.8,0c0-0.1,0-0.2,0-0.3C53.7,124.6,52.9,124.6,52.9,125.1L52.9,125.1z"/>
			</g>
		</g>
		<g>
			<g>
				<path d="M53.7,119.7c0.2-1,0.2-2,0-2.9c-0.1-0.5-0.9-0.3-0.8,0.2c0.2,0.8,0.2,1.7,0,2.5C52.8,120,53.6,120.2,53.7,119.7
					L53.7,119.7z"/>
			</g>
		</g>
		<g>
			<g>
				<path d="M53.3,113c0.2-1,0.2-1.9-0.2-2.9c-0.2-0.5-0.9-0.1-0.7,0.4c0.3,0.7,0.3,1.5,0.1,2.2C52.5,113.3,53.2,113.5,53.3,113
					L53.3,113z"/>
			</g>
		</g>
		<g>
			<g>
				<path d="M52.1,106.2c0.1,0.2,0.3,0.3,0.5,0.3c0.2-0.1,0.3-0.2,0.3-0.4c0.1-0.3,0.1-0.5,0.1-0.8c0-0.5-0.8-0.5-0.8,0
					c0,0.1,0,0.3,0,0.4c0,0,0,0.1,0,0.1c0,0.1,0-0.1,0,0c0,0,0,0.1,0,0.1c0.1-0.2,0.3-0.3,0.6-0.1c0.1,0.1,0,0.1,0,0
					c-0.1-0.2-0.4-0.2-0.5-0.1C52,105.7,51.9,106,52.1,106.2L52.1,106.2z"/>
			</g>
		</g>
		<g>
			<g>
				<path d="M64.7,126.1c-0.7-0.1-1.3,0.1-2,0.2c-0.5,0.1-0.3,0.9,0.2,0.8c0.7-0.2,1.3-0.3,2-0.2c0,0,0.1,0,0.1,0
					C64.7,126.7,64.6,126.4,64.7,126.1z"/>
			</g>
		</g>
		<g>
			<g>
				<path d="M73.7,126.9c0.4,0,0.8-0.2,1.3-0.2c0.5,0,0.5-0.8,0-0.8c-0.4,0-0.8,0.2-1.3,0.2C73.2,126.1,73.2,126.9,73.7,126.9
					L73.7,126.9z"/>
			</g>
		</g>
		<g>
			<g>
				<path d="M84,126.7c0.8-0.1,1.6-0.2,2.3,0c0.5,0.1,0.7-0.6,0.2-0.8c-0.9-0.2-1.8-0.2-2.8,0C83.3,126.1,83.5,126.8,84,126.7
					L84,126.7z"/>
			</g>
		</g>
		<g>
			<g>
				<g>
					<path class="st30" d="M47.3,83.4c0,3,0.1,6.3,2.9,8.1c0.4,0.3,0.8-0.4,0.4-0.7c-2.5-1.7-2.5-4.7-2.5-7.4
						C48.1,82.9,47.3,82.9,47.3,83.4L47.3,83.4z"/>
				</g>
			</g>
			<g>
				<g>
					<path class="st30" d="M57.3,42.4c-8.4,5.1-10.8,15.3-10.8,24.5c0,0.2,0.1,0.3,0.3,0.4c0.1,0,0.2,0,0.4,0
						c0.1-0.1,0.2-0.2,0.2-0.3c0-8.9,2.2-18.9,10.4-23.8C58.1,42.8,57.7,42.1,57.3,42.4z"/>
				</g>
			</g>
			<g>
				<g>
					<path class="st30" d="M96.5,48.5c-1.1-2.1-2.7-3.8-4.5-5.2c-0.4,0-0.9,0-1.3,0c0,0,0,0.1,0.1,0.1c2.1,1.5,3.8,3.3,5.1,5.6
						C96.1,49.3,96.8,48.9,96.5,48.5z"/>
				</g>
			</g>
			<g>
				<g>
					<path class="st30" d="M48,55.2c-4-0.4-6.2-4.4-4-7.9c1.7-2.6,7-4.3,9.3-1.6c0.3,0.4,0.9-0.2,0.6-0.6c-1.3-1.5-3.6-1.7-5.4-1.4
						c-2.1,0.3-3.9,1.4-5.1,3.2c-2.9,3.9,0.3,8.7,4.7,9.1C48.5,56.1,48.5,55.3,48,55.2L48,55.2z"/>
				</g>
			</g>
			<g>
				<g>
					<path class="st30" d="M92.8,44.4c2.9-1.5,7.3-2.2,9.3,0.9c2.1,3.1,0.7,7.9-3.2,8.7c-0.5,0.1-0.3,0.9,0.2,0.8
						c4.4-0.8,5.6-5.9,3.8-9.5c-2-3.9-7.4-3.2-10.6-1.5C91.9,44,92.3,44.7,92.8,44.4L92.8,44.4z"/>
				</g>
			</g>
			<g>
				<g>
					<path class="st30" d="M70,60.1c0-0.1,0-0.2,0-0.4c-0.1,0-0.3,0.1-0.4,0.1c-0.3,0.1-0.1,0-0.5,0.2c-0.5,0.3-1,0.7-1.5,1.1
						c-0.6,0.6-1.6,1.7-1.3,2.7c1,3.4,5.6,1.1,7.8,1c2.2-0.2,5.3,2.3,6.2-1c0.7-2.5-2.8-4-4.5-4.6c-0.2-0.1-0.3,0.3-0.1,0.4
						c1.7,0.7,4.6,1.8,4.2,4.2c-0.4,2.7-3.9,0.8-5.5,0.7c-2.4-0.1-4.4,1.6-6.8,0.4c-2.9-1.4,1.1-4.3,2.5-4.8c0.1,0,0.2-0.2,0.1-0.3
						c-0.1-0.1-0.3,0-0.5,0C69.6,59.8,69.7,60.2,70,60.1L70,60.1z"/>
				</g>
			</g>
			<g>
				<g>
					<path class="st30" d="M76.6,65.4c0.4,1.2,0.6,2.4,0.3,3.6c-0.2,1-1.4,1.7-2.3,1.2c-0.4-0.2-0.6-0.9-0.8-1.3
						c-0.1-0.2-0.5,0-0.3,0.2c0.3,0.6,0.5,1.2,1.1,1.5c0.6,0.3,1.4,0.1,1.9-0.3c1.5-1.1,1.1-3.6,0.5-5.1
						C76.8,65,76.5,65.1,76.6,65.4L76.6,65.4z"/>
				</g>
			</g>
			<g>
				<g>
					<path class="st30" d="M100.4,81.8c0.6,0.3,1.4,0,2.1,0.1c1.4,0.3,2.7,1.1,3.4,2.3c0.3,0.6,0.4,1.3,0.3,1.9
						c-0.2,1.1-1.2,1.2-2.1,1.1c-1.4-0.2-2.4-1.2-3.4-2.2c-0.2-0.2-0.5,0.1-0.3,0.3c1.1,1,2.3,2.2,3.9,2.3c1.1,0.1,2.1-0.5,2.2-1.7
						c0.1-1.4-0.6-2.6-1.7-3.4c-0.7-0.5-1.5-0.8-2.3-1c-0.7-0.2-1.5,0.1-2.1-0.1C100.3,81.3,100.2,81.7,100.4,81.8L100.4,81.8z"/>
				</g>
			</g>
			<g>
				<g>
					<path class="st30" d="M103.8,85.1c0.9,0.3,2,1,1.5,2.1c-0.1,0.2,0.2,0.4,0.3,0.2c0.7-1.3-0.5-2.3-1.7-2.7
						C103.6,84.7,103.5,85,103.8,85.1L103.8,85.1z"/>
				</g>
			</g>
			<g>
				<path class="st30" d="M83.6,60c-4.7,0-8.5-3.8-8.5-8.5c0-4.7,3.8-8.5,8.5-8.5c4.7,0,8.5,3.8,8.5,8.5C92.1,56.2,88.3,60,83.6,60z
					 M83.6,43.5c-4.4,0-8,3.6-8,8c0,4.4,3.6,8,8,8c4.4,0,8-3.6,8-8C91.6,47.1,88,43.5,83.6,43.5z"/>
			</g>
			<g>
				<path class="st30" d="M62.9,60.9c-4.7,0-8.5-3.8-8.5-8.5c0-4.7,3.8-8.5,8.5-8.5c4.7,0,8.5,3.8,8.5,8.5
					C71.4,57.1,67.6,60.9,62.9,60.9z M62.9,44.4c-4.4,0-8,3.6-8,8c0,4.4,3.6,8,8,8c4.4,0,8-3.6,8-8C70.9,48,67.3,44.4,62.9,44.4z"/>
			</g>
			<g>
				<path class="st30" d="M99.4,48.3c0-1-0.8-1.7-1.7-1.7c-1,0-1.7,0.8-1.7,1.7c0,1,0.8,1.7,1.7,1.7C98.6,50,99.4,49.2,99.4,48.3z"
					/>
			</g>
			<g>
				<path class="st30" d="M50.5,49.8c0-1-0.8-1.7-1.7-1.7c-1,0-1.7,0.8-1.7,1.7c0,1,0.8,1.7,1.7,1.7C49.7,51.6,50.5,50.8,50.5,49.8z
					"/>
			</g>
			<g>
				<path class="st30" d="M77,59.1c0-1.1-1.6-2-3.7-2c-2,0-3.7,0.9-3.7,2c0,1.1,1.6,2,3.7,2C75.3,61.2,77,60.2,77,59.1z"/>
			</g>
			<g>
				<path class="st30" d="M79.3,49.3c-1.5,0-2.7,1.2-2.7,2.7c0,1.5,1.2,2.7,2.7,2.7c1.5,0,2.7-1.2,2.7-2.7
					C82,50.5,80.8,49.3,79.3,49.3z M80.4,53.7c-0.4,0-0.8-0.3-0.8-0.8c0-0.4,0.3-0.8,0.8-0.8c0.4,0,0.8,0.3,0.8,0.8
					C81.1,53.4,80.8,53.7,80.4,53.7z"/>
			</g>
			<g>
				<path class="st30" d="M64.9,49.6c-1.5,0-2.7,1.2-2.7,2.7c0,1.5,1.2,2.7,2.7,2.7c1.5,0,2.7-1.2,2.7-2.7
					C67.6,50.8,66.4,49.6,64.9,49.6z M66,54c-0.4,0-0.8-0.3-0.8-0.8c0-0.4,0.3-0.8,0.8-0.8c0.4,0,0.8,0.3,0.8,0.8
					C66.8,53.7,66.4,54,66,54z"/>
			</g>
			<g>
				<g>
					<path class="st30" d="M73.5,64.8c0.2,1,0.1,2.1,0.1,3.1c0,1.4-1.1,3.7-2.7,2.1c-1.1-1-0.7-3.3-0.3-4.5c0.1-0.2-0.3-0.3-0.4-0.1
						c-0.5,1.6-0.8,4.7,1.2,5.4c3,1,2.8-4.6,2.5-6.1C73.8,64.4,73.4,64.6,73.5,64.8L73.5,64.8z"/>
				</g>
			</g>
			<g>
				<g>
					<path class="st30" d="M45.4,82.5c-1.4,0.5-5.9,3.4-3,4.7c0.2,0.1,0.4-0.2,0.2-0.3c-2.4-1.1,1.7-3.6,2.9-4
						C45.7,82.8,45.6,82.4,45.4,82.5L45.4,82.5z"/>
				</g>
			</g>
			<g>
				<g>
					<path class="st30" d="M43.8,85.8c-0.5,0.3-1.3,0.8-1.3,1.5c0,0.7,0.6,1.1,1.2,1.1c1.6,0.2,3.3-1.5,4.2-2.7
						c0.2-0.2-0.2-0.4-0.3-0.2c-0.7,0.9-1.6,1.7-2.6,2.2c-0.6,0.3-1.6,0.5-2-0.2c-0.4-0.6,0.7-1.3,1-1.4C44.2,86,44,85.7,43.8,85.8
						L43.8,85.8z"/>
				</g>
			</g>
			<g>
				<g>
					<path class="st30" d="M100.7,77.9c-0.2,0.1-0.3,0.1-0.5,0.1c0,0-0.1,0-0.1,0c0,0,0,0,0,0c0,0,0,0-0.1,0c0,2,0.3,4.1,0.4,6.1
						c0,1.1-0.1,2.2-0.3,3.2c-0.3,1.3-1.3,1.9-2.3,2.5c-0.2,0.1-0.2,0.3-0.1,0.5c0,0,0.1,0,0.1,0c0.3,0,0.3,0,0.6,0c0,0,0.1,0,0.1,0
						c1.6-1,2.4-2,2.7-4C101.3,83.6,100.7,80.8,100.7,77.9z"/>
				</g>
			</g>
			<g>
				<g>
					<path class="st30" d="M95.4,48c2.8,4,3.7,8.7,4,13.5c0,0.5,0.8,0.5,0.8,0c-0.3-4.9-1.3-9.8-4.1-13.9
						C95.8,47.1,95.2,47.5,95.4,48L95.4,48z"/>
				</g>
			</g>
		</g>
		<g>
			<g>
				<path class="st30" d="M54.5,44.9c2.8-2.5,7.1-3.3,10.8-3c1.8,0.1,3.3,0.9,5,1.5c1.6,0.7,3.1,0.4,4.8-0.1c0.5-0.2,1-0.5,1.4-0.9
					c0.9-0.7,1.7-1,2.8-1.2c1.6-0.2,3.3,0.2,4.9,0.5c2.8,0.6,5.7,1.7,8.6,1.5c2.3-0.2,4.5-2.3,4.6-4.7c0.2-3.3-3.3-5.3-5.6-6.9
					c-1.5-1.1-3.1-2-4.9-2.7c-1.9-0.8-4.1-0.9-6.2-0.9c-4.3,0-8.5,1.1-12.8,1.7c-5.3,0.7-10.8,1.5-15.4,4.3c-1.9,1.1-3.9,2.8-4.7,5
					c-0.6,1.9,0.4,3.7,2.1,4.5c0.2,0.1,0.4-0.2,0.2-0.3c-2.2-1.1-2.5-3.4-1.3-5.4c1.1-1.8,3.2-3.1,5-4c3.4-1.8,7.4-2.6,11.2-3.2
					c4.3-0.7,8.6-1.6,12.9-2c2.3-0.2,4.6-0.2,6.8,0.2c2.3,0.4,4.4,1.7,6.3,2.9c1.7,1.1,3.5,2.3,4.8,3.8c1.8,2.1,0.9,5.1-1.2,6.6
					c-2.4,1.7-6.5,0.2-9.1-0.5c-2.8-0.7-5.3-1.2-8.1-0.6c-0.5,0.1-1,0.6-1.5,0.9c-1,0.8-2.3,1.3-3.6,1.4c-1.9,0.1-3.5-1.2-5.3-1.7
					c-4.2-1.1-9.7-0.1-13,2.8C54.1,44.8,54.3,45.1,54.5,44.9L54.5,44.9z"/>
			</g>
		</g>
		<g>
			<g>
				<path class="st30" d="M69.9,21.1c-1.8-1.1-4.9-4-2.2-5.8c1.5-1,3.4-1.1,5-1.9c0.2-0.1,0-0.5-0.2-0.3c-1.3,0.7-2.8,0.9-4.2,1.5
					c-0.6,0.2-1.9,0.9-2.1,1.6c-0.6,2.2,1.9,4.3,3.5,5.2C69.9,21.5,70.1,21.2,69.9,21.1L69.9,21.1z"/>
			</g>
		</g>
		<g>
			<g>
				<path class="st30" d="M50.3,36.2c3.6-2.8,7.1-5.9,11-8.2c1.9-1.1,3.7-2.1,5.8-2.9c2.1-0.9,4.1-2.4,6.5-1.8
					c0.2,0.1,0.4-0.3,0.1-0.4c-1.6-0.4-3.1,0-4.5,0.7c-2.3,1.1-4.6,2-6.7,3.3c-4.4,2.7-8.4,5.9-12.4,9.1
					C49.9,36.1,50.1,36.4,50.3,36.2L50.3,36.2z"/>
			</g>
		</g>
		<g>
			<g>
				<path class="st30" d="M71.9,15.2c1.1-0.7,4.7-1.8,3.5-3.7c-0.1-0.2-0.5,0-0.3,0.2c0.9,1.5-2.5,2.6-3.4,3.1
					C71.5,15,71.7,15.3,71.9,15.2L71.9,15.2z"/>
			</g>
		</g>
		<g>
			<g>
				<path class="st30" d="M85.9,28.8c-1.3-0.7-2.4-2-3.6-3c-1.1-0.9-2.2-1.8-3.5-2.6c-2.6-1.6-5.6-2.6-7.6-5.1
					c-0.2-0.2-0.4,0.1-0.3,0.3c1.9,2.3,4.7,3.5,7.2,4.9c1.5,0.8,2.9,2,4.2,3.1c1.1,0.9,2.1,2,3.3,2.7C85.9,29.3,86.1,28.9,85.9,28.8
					L85.9,28.8z"/>
			</g>
		</g>
		<g>
			<g>
				<path class="st30" d="M73.5,10.2c-0.8-0.8-0.9-1.8-0.4-2.9c0.2-0.5,0.7-1.1,1.3-1.3c0.1,0,0.3,0.4,0.4,0.5
					c0.1,0.1,0.2,0.1,0.3,0c0.1-0.2,0.4-0.3,0.3-0.6c0-0.1-0.1-0.2-0.2-0.1c-0.3,0.1-0.5,0.3-0.4,0.6c0,0.1,0.2,0.2,0.3,0.1
					c0.8-0.8,2.5-1.3,3.1,0.1c0.3,0.6-0.5,0.9-0.2,1.5c0.3,0.6,0,1-0.2,1.6c-0.2,0.5-0.5,0.6-0.9,0.3c-0.1-0.1-0.2,0-0.3,0
					c-0.5,0.3-0.6,0.8-1.2,0.9c-0.2,0-0.1,0.4,0.1,0.4c0.3,0,1.4-0.9,1.4-0.8c0.1,0.1,0.4,0.4,0.6,0.2c0.5-0.6,0.8-1.3,1.1-2
					C78.8,8.3,78,8,78.4,7.6c0.7-0.7-0.2-1.8-0.8-2.1c-1-0.5-2.1,0-2.8,0.7c0.1,0,0.2,0.1,0.3,0.1c-0.1,0-0.2-0.1-0.3-0.1
					c0.1,0,0.2,0,0.3,0c-0.1-0.2-0.2-0.5-0.4-0.7c-0.1-0.1-0.2-0.1-0.3-0.1c-1,0.6-1.5,1.1-1.9,2.2c-0.4,1,0,2,0.7,2.8
					C73.4,10.6,73.7,10.3,73.5,10.2L73.5,10.2z"/>
			</g>
		</g>
		<g>
			<g>
				<path class="st30" d="M53.5,69.2c2.5,0.4,4.9,1.1,7,2.5c0.2,0.1,0.4-0.2,0.2-0.3c-2.1-1.5-4.5-2.2-7.1-2.6
					C53.3,68.8,53.2,69.2,53.5,69.2L53.5,69.2z"/>
			</g>
		</g>
		<g>
			<g>
				<path class="st30" d="M59.5,72.5c4.3-0.7,9.5-0.9,13.1,2c5,3.9,1.4,10.5,2.6,15.6c0.1,0.2,0.4,0.1,0.4-0.1
					c-0.8-3.3,0.3-6.6,0.1-9.9c-0.1-2.4-1.2-4.6-3.1-6.1c-3.6-2.8-9-2.5-13.2-1.8C59.2,72.1,59.3,72.5,59.5,72.5L59.5,72.5z"/>
			</g>
		</g>
		<g>
			<g>
				<path class="st30" d="M74.5,75.7c3.2-1.7,6.2-3.9,9.6-5.4c4.3-2,8.4-1.5,11.8,1.9c0.2,0.2,0.5-0.1,0.3-0.3
					c-2.8-2.9-6.2-3.9-10.1-2.8c-4.3,1.2-7.9,4.2-11.8,6.3C74.1,75.5,74.3,75.9,74.5,75.7L74.5,75.7z"/>
			</g>
		</g>
		<g>
			<g>
				<path class="st30" d="M102,62.4c1.3,1.8,1.3,4,1.3,6.2c0,1.3,0,2.7,0.1,4c0.1,1.5,0.4,3-0.8,4.2c-1.4,1.4-4.3,1.6-6.2,1.8
					c-2.7,0.4-6.3,0.5-8.4-1.5c-0.2-0.2-0.5,0.1-0.3,0.3c2,2,5.5,1.9,8.1,1.7c2.2-0.2,4.8-0.5,6.7-1.8c2.2-1.5,1.1-4.9,1.1-7.1
					c0-2.6,0.3-5.7-1.3-8C102.2,62,101.8,62.2,102,62.4L102,62.4z"/>
			</g>
		</g>
		<g>
			<g>
				<path class="st30" d="M90,68.6c3.1-2.6,5.7-5.7,9.6-7c0.2-0.1,0.1-0.5-0.1-0.4c-4,1.3-6.7,4.4-9.8,7.1
					C89.5,68.5,89.8,68.8,90,68.6L90,68.6z"/>
			</g>
		</g>
		<g>
			<g>
				<path class="st30" d="M90.7,78.6C90.7,78.6,90.7,78.6,90.7,78.6C90,80,87.8,80.5,86.4,81c-1.5,0.5-2.9,1-4.3,1.8
					c-3,1.9-3.9,4.4-3,7.8c0.1,0.2,0.4,0.1,0.4-0.1c-0.5-2-0.6-3.9,0.7-5.6c1-1.3,2.6-2.2,4.1-2.8c1.9-0.7,5.6-1.2,6.6-3.3
					c0,0,0-0.1,0-0.1C90.9,78.7,90.8,78.6,90.7,78.6z"/>
			</g>
		</g>
		<g>
			<g>
				<path class="st30" d="M63.4,78.7c0.8-0.2,1.6-0.5,2.3-0.8c0.2-0.1,0.1-0.5-0.1-0.4c-0.8,0.3-1.5,0.6-2.3,0.8
					C63,78.4,63.1,78.8,63.4,78.7L63.4,78.7z"/>
			</g>
		</g>
		<g>
			<g>
				<path class="st30" d="M62.3,79.9c2.3,0.7,4.9,0.6,6.7,2.3c2.4,2.2,0.2,5.2,1.3,7.7c0.1,0.2,0.4,0,0.3-0.2
					c-0.6-1.3-0.1-3.2-0.1-4.6c0-1.2-0.5-2.3-1.3-3.2c-1.7-1.9-4.7-1.7-6.9-2.4C62.2,79.4,62.1,79.8,62.3,79.9L62.3,79.9z"/>
			</g>
		</g>
		<g>
			<g>
				<path class="st30" d="M56.7,90.4c-2-2-3.9-4.3-4.1-7.1c0-0.3-0.4-0.3-0.4,0c0.3,3,2.2,5.4,4.2,7.4
					C56.6,90.8,56.9,90.5,56.7,90.4L56.7,90.4z"/>
			</g>
		</g>
		<g>
			<g>
				<path class="st30" d="M58.8,90.7c0-0.6-0.2-1.2-0.2-1.8c0-0.3-0.4-0.3-0.4,0c0,0.6,0.2,1.2,0.2,1.8
					C58.4,90.9,58.8,90.9,58.8,90.7L58.8,90.7z"/>
			</g>
		</g>
		<g>
			<g>
				<path class="st30" d="M88.6,91c2.9-3,4.7-6.8,5-10.9c0-0.3-0.4-0.3-0.4,0c-0.3,4-2.1,7.7-4.9,10.6C88.1,90.9,88.4,91.2,88.6,91
					L88.6,91z"/>
			</g>
		</g>
		<g>
			<g>
				<path class="st30" d="M90.7,91.2c0.9-0.9,1.8-1.8,2.4-3c0.1-0.2-0.2-0.4-0.3-0.2c-0.6,1.1-1.5,2-2.3,2.9
					C90.3,91.1,90.6,91.4,90.7,91.2L90.7,91.2z"/>
			</g>
		</g>
		<g>
			<g>
				<path class="st30" d="M95.9,90.5c0.5,0,0.9-0.4,1.1-0.8c0.1-0.2-0.2-0.4-0.3-0.2c-0.1,0.3-0.4,0.6-0.7,0.6
					C95.6,90.1,95.6,90.5,95.9,90.5L95.9,90.5z"/>
			</g>
		</g>
		<g>
			<g>
				<path class="st30" d="M84.2,90.5c-0.2-0.2-0.4-0.6-0.5-0.9c-0.1-0.2-0.5,0-0.3,0.2c0.2,0.3,0.3,0.7,0.6,1
					C84.1,91,84.4,90.7,84.2,90.5L84.2,90.5z"/>
			</g>
		</g>
		<g>
			<g>
				<path class="st30" d="M64.9,90.5c0.3,0,0.5-0.4,0.7-0.6c0.2-0.2-0.1-0.5-0.3-0.3c-0.1,0.1-0.2,0.2-0.2,0.3c0,0-0.1,0.1-0.1,0.1
					c0,0,0,0-0.1,0.1c0,0-0.1,0,0,0C64.7,90.1,64.7,90.5,64.9,90.5L64.9,90.5z"/>
			</g>
		</g>
		<g>
			<g>
				<path class="st30" d="M55.9,90.5c-0.9-0.2-1.5-0.9-1.9-1.7c-0.1-0.2-0.5-0.1-0.4,0.1c0.4,0.9,1.1,1.7,2.1,2
					C56,90.9,56.1,90.5,55.9,90.5L55.9,90.5z"/>
			</g>
		</g>
		<g>
			<g>
				<path class="st30" d="M89.8,91.2c0.3-0.3,0.6-0.7,0.8-1.1c0.1-0.2-0.2-0.4-0.3-0.2c-0.2,0.4-0.4,0.7-0.7,1.1
					C89.4,91.1,89.7,91.4,89.8,91.2L89.8,91.2z"/>
			</g>
		</g>
		<g>
			<g>
				<path class="st30" d="M95.4,90.6c0.2,0.1,0.3,0.1,0.5,0c0.2-0.2,0.2-0.5,0.2-0.7c0-0.3-0.4-0.3-0.4,0c0,0.1,0,0.2,0,0.3
					c0,0,0,0.1,0,0.1c0,0.1,0,0,0.1,0C95.5,90.2,95.2,90.5,95.4,90.6L95.4,90.6z"/>
			</g>
		</g>
		<g>
			<g>
				<path class="st30" d="M85.2,91c0-0.2,0-0.5,0-0.7c0-0.3-0.4-0.3-0.4,0c0,0.2,0,0.5,0,0.7C84.8,91.3,85.2,91.3,85.2,91L85.2,91z"
					/>
			</g>
		</g>
		<g>
			<g>
				<path class="st30" d="M60,90.3c0-0.3,0-0.5,0.2-0.8c0.1-0.2-0.2-0.4-0.3-0.2c-0.2,0.3-0.2,0.6-0.2,1C59.7,90.6,60,90.6,60,90.3
					L60,90.3z"/>
			</g>
		</g>
		<g>
			<g>
				<path class="st30" d="M99.7,59.5c1.2,1,2.3,2.2,3.1,3.6c0.1,0.2,0.5,0,0.3-0.2c-0.8-1.5-1.9-2.6-3.1-3.7
					C99.8,59.1,99.5,59.3,99.7,59.5L99.7,59.5z"/>
			</g>
		</g>
		<g>
			<g>
				<path class="st30" d="M119.8,122.1c-0.4-1.7-2.9-1-3.9-0.6c-2.2,0.7-4.1,2.1-6.3,2.6c-2.5,0.6-5,0.8-7.5,0.4
					c-1.8-0.3-3.8-1.7-5.5-1.1c-0.2,0.1-0.1,0.5,0.1,0.4c1.3-0.4,2.5,0.4,3.7,0.7c0.9,0.3,1.8,0.4,2.7,0.5c2.2,0.3,4.5-0.1,6.6-0.5
					c2.2-0.5,4.2-1.8,6.3-2.6c0.9-0.3,2.6-0.9,3.3,0c1.3,1.7-1.6,3.1-2.8,3.6c-1.3,0.6-2.5,1.2-3.5,2.2c-1.4,1.4-2.3,3-4.2,4
					c-3.3,1.9-7.4,1.9-11,1.8c-3.8-0.1-7.5-0.5-11.3-0.6c-10.3-0.3-20.6,0.3-30.8,1.1c-5.5,0.4-10.8,2-16.3,2.3
					c-1.2,0.1-2.3,0.1-3.5-0.1c-0.5-0.1-0.9-0.2-1.3-0.5c-0.8-0.5,0.9-1.4,1.3-1.6c2.7-1.5,5.8-1.2,7.7-3.9c0.1-0.1,0-0.2-0.1-0.3
					c-1.1-0.7-3.4-1.4-3.5-3c-0.1-2,2.5-3.2,4-3.8c2.8-1,6.2-1.5,9.1-1.1c0-0.1,0-0.3,0-0.4c-2.6-0.3-5.2,0-7.7,0.7
					c-2.3,0.6-5,1.7-5.7,4.3c-0.2,0.9,0.3,1.6,1,2c0.4,0.4,1,0.6,1.5,0.9c0.3,0.2,0.6,0.4,0.9,0.5c0.3,0.2-1.2,1.3-1.2,1.3
					c-2.5,1.8-5.9,1.3-8,3.9c-0.1,0.1-0.1,0.2,0,0.2c1.1,1.4,3.4,1.3,4.9,1.2c2.9-0.1,5.7-0.6,8.5-1.2c8.1-1.5,16.4-1.9,24.6-2.2
					c5.1-0.2,10.2-0.2,15.4-0.1c3.7,0.1,7.4,0.5,11.1,0.6c3.2,0.1,6.7-0.1,9.7-1.4c1.3-0.6,2.6-1.4,3.6-2.5c1.3-1.6,2.4-3,4.3-3.9
					C117.7,125.4,120.3,124.6,119.8,122.1z"/>
			</g>
		</g>
		<g>
			<g>
				<path class="st30" d="M70.5,20.4c-0.4,0.5-0.9,1-1,1.6c-0.1,0.7,0.5,1.1,1.2,1.3c0.2,0.1,0.3-0.3,0.1-0.4
					c-0.6-0.2-1.1-0.6-0.8-1.3c0.2-0.4,0.5-0.7,0.7-1.1C70.9,20.5,70.6,20.2,70.5,20.4L70.5,20.4z"/>
			</g>
		</g>
		<g>
			<g>
				<path class="st30" d="M71.3,18.3c-1.1-1.1-2.7-1.9-4.2-1.1c-0.2,0.1,0,0.5,0.2,0.3c1.3-0.7,2.7,0.1,3.7,1
					C71.2,18.7,71.5,18.4,71.3,18.3L71.3,18.3z"/>
			</g>
		</g>
		<g>
			<g>
				<path class="st30" d="M70.1,17.4c0.8-0.8-0.6-2-1.4-2.3c-0.2-0.1-0.3,0.3-0.1,0.4c0.4,0.2,1.7,1.1,1.2,1.7
					C69.6,17.3,69.9,17.6,70.1,17.4L70.1,17.4z"/>
			</g>
		</g>
		<g>
			<g>
				<path class="st30" d="M69.8,16.4c0.9-0.3,1.7-0.9,2.5-1.4c0.2-0.1,0-0.5-0.2-0.3c-0.8,0.5-1.5,1.1-2.4,1.4
					C69.4,16.1,69.5,16.5,69.8,16.4L69.8,16.4z"/>
			</g>
		</g>
		<g>
			<g>
				<path class="st30" d="M72.8,13.4c0.6-0.4,1.2-0.4,1.9-0.4c0.3,0,0.3-0.4,0-0.4c-0.7,0-1.5,0-2.1,0.4
					C72.4,13.2,72.6,13.5,72.8,13.4L72.8,13.4z"/>
			</g>
		</g>
		<g>
			<g>
				<path class="st30" d="M74,12.7c0-0.3,0.3-0.6,0.7-0.5c0.2,0.1,0.4-0.3,0.1-0.4c-0.5-0.1-1.1,0.3-1.1,0.8
					C73.6,12.9,73.9,13,74,12.7L74,12.7z"/>
			</g>
		</g>
		<g>
			<g>
				<path class="st30" d="M74.3,11.9c0-0.7-0.5-1.3-0.8-1.8c-0.1-0.2-0.5,0-0.3,0.2c0.3,0.5,0.7,1,0.8,1.6
					C74,12.2,74.4,12.2,74.3,11.9L74.3,11.9z"/>
			</g>
		</g>
		<g>
			<g>
				<path class="st30" d="M75.5,11.5c-0.1-0.1-0.2-0.2-0.1-0.3c0.2-0.2-0.1-0.5-0.3-0.3c-0.3,0.3-0.1,0.6,0.1,0.9
					C75.4,12,75.7,11.7,75.5,11.5L75.5,11.5z"/>
			</g>
		</g>
		<g>
			<g>
				<path class="st30" d="M73.4,10.5c0.4,0.3,0.7,0.7,0.9,1.1c0.1,0.1,0.2,0.1,0.3,0c0.2-0.2,0.4-0.3,0.7-0.2
					c0.2,0.1,0.4-0.3,0.1-0.4c-0.4-0.1-0.8,0-1.1,0.3c0.1,0,0.2,0,0.3,0c-0.2-0.5-0.6-0.9-1-1.2C73.4,10,73.2,10.3,73.4,10.5
					L73.4,10.5z"/>
			</g>
		</g>
		<g>
			<g>
				<path class="st30" d="M71.1,22.2c-0.2-0.1,0.8-1,0.9-1.1c0.2-0.2-0.1-0.4-0.3-0.3c-0.3,0.3-1.5,1.2-0.8,1.7
					C71.1,22.7,71.3,22.3,71.1,22.2L71.1,22.2z"/>
			</g>
		</g>
		<g>
			<g>
				<path class="st30" d="M68.5,18.3c0.3-0.1,0.6,0,0.7,0.3c0.1,0.2,0.5,0,0.3-0.2c-0.3-0.4-0.7-0.6-1.2-0.5
					C68.2,18,68.3,18.3,68.5,18.3L68.5,18.3z"/>
			</g>
		</g>
		<g>
			<g>
				<path class="st30" d="M69.5,14.9c0.1,0.3,0.2,0.5,0.4,0.7c0.2,0.2,0.5-0.1,0.3-0.3c-0.1-0.1-0.2-0.3-0.3-0.5
					C69.8,14.5,69.4,14.6,69.5,14.9L69.5,14.9z"/>
			</g>
		</g>
		<g>
			<g>
				<path class="st30" d="M64.9,28.4c2.2-2.3,5.8-3.8,8.9-2.8c0.2,0.1,0.3-0.3,0.1-0.4c-3.3-1-7,0.6-9.3,2.9
					C64.5,28.3,64.7,28.6,64.9,28.4L64.9,28.4z"/>
			</g>
		</g>
		<g>
			<g>
				<path class="st30" d="M119.9,121.7c3.1-9.7-3.6-20.7-14.2-20.6c-0.3,0-0.3,0.4,0,0.4c10.4,0,16.8,10.6,13.8,20.1
					C119.4,121.8,119.8,121.9,119.9,121.7L119.9,121.7z"/>
			</g>
		</g>
		<g>
			<g>
				<path class="st30" d="M113.8,103.4c0.1,0.2,0.2,0.4,0.3,0.6c0.1,0,0.2-0.1,0.4-0.2c-3.2-5.5-2.9-13.2-7.9-17.7
					c-0.2-0.2-0.5,0.1-0.3,0.3c4.9,4.5,4.6,12.1,7.8,17.6c0.1,0.2,0.4,0.1,0.4-0.2c-0.1-0.5-0.1-0.4-0.4-0.8
					C113.9,102.9,113.6,103.2,113.8,103.4L113.8,103.4z"/>
			</g>
		</g>
		<g>
			<g>
				<path class="st30" d="M106.5,83.7c4.8-3.5,7.8,7.7,8.4,10.8c0.1,0.2,0.4,0.1,0.4-0.1c-0.7-3.2-3.8-14.9-9-11
					C106.1,83.6,106.3,83.9,106.5,83.7L106.5,83.7z"/>
			</g>
		</g>
		<g>
			<g>
				<path class="st30" d="M115.7,94.5c1.3-0.2,1.8-1.2,2.2-2.4c0.7-2.1,1.1-4,0.7-6.2c-0.7-4.2-4.7-5.6-6.6-9
					c-0.1-0.2-0.5,0-0.3,0.2c1.4,2.4,4,3.7,5.5,6c1.1,1.6,1.3,3.6,1.2,5.4c-0.1,1.5-0.9,5.3-2.7,5.6
					C115.5,94.1,115.5,94.5,115.7,94.5L115.7,94.5z"/>
			</g>
		</g>
		<g>
			<g>
				<path class="st30" d="M112.3,76.8c-2.3-0.5-4,1.5-5.5,3c-0.2,0.2,0.1,0.5,0.3,0.3c1.3-1.3,3-3.3,5.1-2.9
					C112.4,77.3,112.6,76.9,112.3,76.8L112.3,76.8z"/>
			</g>
		</g>
		<g>
			<g>
				<path class="st30" d="M112.5,77c3.3-1.7-0.5-5.6-2.2-6.9c-1-0.8-2.1-1.5-3.1-2.3c-0.4-0.3-0.7-0.6-1.1-0.8
					c-0.8-0.3-2.3,2-2.7,2.4c-0.2,0.2,0.1,0.5,0.3,0.3c0.7-0.7,1.3-1.6,2.1-2.2c0.4-0.3,2.3,1.5,2.6,1.8c1.4,1,7.7,5.5,3.9,7.4
					C112.1,76.8,112.3,77.1,112.5,77L112.5,77z"/>
			</g>
		</g>
		<g>
			<g>
				<path class="st30" d="M102.2,86.8c-1.6,4-2,8.3-2.1,12.6c-0.2,4.7-0.7,9.6-0.3,14.3c0.3,3.2,1.3,6.2,4.2,7.9
					c2.7,1.7,6.6,2.4,9.5,1c0.2-0.1,0-0.5-0.2-0.3c-3.2,1.6-7.8,0.4-10.4-2c-2.9-2.6-2.8-7.3-2.7-10.8c0.1-3.8,0.2-7.5,0.4-11.3
					c0.1-3.9,0.6-7.8,2-11.4C102.7,86.7,102.3,86.6,102.2,86.8L102.2,86.8z"/>
			</g>
		</g>
	</g>
	<g>
		<g>
			<path class="st30" d="M42.7,84.3c0.1-0.1,0.2-0.2,0.3-0.2c-0.5-2.1-1.9-3.8-3.1-5.6c-0.1-0.2-0.5,0-0.3,0.2
				C40.8,80.4,42.2,82.2,42.7,84.3C42.7,84.3,42.7,84.3,42.7,84.3z"/>
		</g>
	</g>
	<g>
		<g>
			<path class="st30" d="M44.3,82.9c0-0.9-0.4-1.8-0.6-2.6c-0.1-0.2-0.5-0.1-0.4,0.1c0.3,0.8,0.6,1.6,0.6,2.5
				C44,83.2,44.4,83.2,44.3,82.9L44.3,82.9z"/>
		</g>
	</g>
	<g>
		<g>
			<path class="st30" d="M42.3,82.3C36,86.3,31.8,92.6,27.4,98.6c0.9-7.1,4.3-13.6,6.5-20.3c0.1-0.2-0.1-0.3-0.3-0.2
				c-3.5,1.6-7,3.3-10.8,4c3.2-4.3,7.7-8,9.5-13.2c0-0.1-0.1-0.3-0.2-0.2c-2.3,0.9-4.7,1.3-7,0.3c0.7-0.3,1.4-0.8,2.1-1.2
				c0.1,0,0.1-0.1,0.1-0.2c-0.6-1.8,0.4-3.9,1-5.7c0.7-2,1.1-3.9,1.1-6c0.1-4.4-1.4-8.7-2.5-13c4.5,7.3,8.9,15,16.3,19.6
				c-1.3,0.3-2.6,0.8-4,1.1c-0.2,0.1-0.2,0.4,0.1,0.4c0.2,0,1.8-0.2,1.5,0.4c-0.1,0.3-0.3,0.6-0.4,0.9c0,0.1,0,0.2,0.1,0.2
				c1.6,1.3,3.4,1.6,5.3,1.8c0.2-0.1,0.4,0,0.6,0c0,0,0,0,0.1,0c0.4-0.1,0.9-0.1,1.3-0.1c0-0.1-0.1-0.1-0.2-0.2
				c-1.4-0.2-2.8-0.2-4.2-0.5c-0.3-0.1-2.7-0.8-2.3-1.6c0.2-0.4,0.4-0.7,0.4-1.1c0-0.1-0.1-0.2-0.2-0.2h-0.4c1-0.3,2-0.6,3-0.9
				c0.2,0,0.2-0.3,0-0.4c-8-4.7-12.5-13-17.2-20.7c-0.1-0.2-0.4-0.1-0.4,0.2c1.3,5.6,3.3,11,2.5,16.9c-0.3,2.1-1.3,4-1.9,6
				c-0.2,0.7-0.4,1.6-0.2,2.3c0.2,0.9-1.5,1.5-2.2,1.6c-0.2,0-0.2,0.3,0,0.4c1.4,0.8,2.9,1.2,4.5,0.9c1-0.1,1.9-0.4,2.8-0.7
				c0.1-0.1-0.7,1.7-0.5,1.3c-0.3,0.6-0.6,1.1-0.9,1.7c-2.3,3.7-5.6,6.6-8.1,10.1c-0.1,0.2,0.1,0.3,0.2,0.3c3.9-0.7,7.4-2.3,11-3.9
				c-2.4,6.8-5.7,13.5-6.5,20.7c0,0.2,0.3,0.2,0.4,0.1c4.5-6.1,8.7-12.6,15.1-16.8C42.4,82.5,42.4,82.4,42.3,82.3
				C42.3,82.3,42.3,82.3,42.3,82.3z"/>
		</g>
	</g>
	<g>
		<g>
			<path class="st30" d="M69.7,73.9c-3.2-0.5-6.4,0.6-9.5,1.3c-1.8,0.4-3.6,0.8-5.4,0.8c-0.9,0-1.8-0.1-2.6-0.4c0,0-0.9-0.1-0.6-0.5
				c0.5-0.6,0.9-1.4,1.5-1.8c0.2-0.1,0.1-0.4-0.2-0.4c-1.5,0.2-3,0.3-4.5,0.1c-1.2-0.1-0.1-0.6,0.3-0.9c0.7-0.6,1.4-1.1,2.2-1.7
				c2-1.5,4.1-2.9,6-4.5c0.1-0.1,0-0.4-0.1-0.3c-3.3,0.4-6.7,1.5-10,1c-0.2,0-0.4,0.3-0.1,0.4c0.2,0,0.5,0.1,0.7,0.1
				c0.5,0,1,0,1.5,0.1c2.4,0,4.8-0.7,7.2-1c-3,2.3-6.1,4.4-8.9,6.8c-0.1,0.1-0.1,0.3,0.1,0.3c1.7,0.3,3.4,0.3,5.1,0.1
				c-0.5,0.5-0.9,1.2-1.4,1.8c-0.1,0.1-0.1,0.2,0,0.3c5.7,3,12.1-1.9,18.1-1.3c-3.8,2.4-7.8,4.5-12,6.2c-3.7,1.5-10.7,4-13.4-0.4
				c-0.1-0.2-0.5,0-0.3,0.2c2.5,4.3,8.8,2.4,12.5,1.1c4.9-1.7,9.5-4.2,13.9-7C69.9,74.2,69.9,74,69.7,73.9z"/>
		</g>
	</g>
	<g>
		<g>
			<path class="st30" d="M17.7,40.1c0,0-0.1-0.1-0.1-0.1c0,0.1-0.1,0.2-0.1,0.4c2.3-0.2,4.2-1.6,6-3c0.1,0,0.1-0.1,0-0.2
				c-0.8-2.6-0.6-5.3-0.9-8c-0.1,0-0.2,0.1-0.3,0.1c2.3,2.2,3.7,5,5.3,7.6c0,0.1,0.1,0.1,0.2,0.1c1.9-0.6,3.8-0.8,5.8-1.3
				c-0.1-0.1-0.1-0.2-0.2-0.3c-0.6,0.5-1.2,1-1.9,1.5c-0.5,0.3-2,1.7-2.7,1.4c-0.2-0.1-0.4,0.2-0.2,0.3c1.6,1.3,3.7,1.8,5.1,3.4
				c1.1,1.1-3,0.6-3.3,0.5c-1.3-0.3-2.5-0.7-3.8-1c-0.1,0-0.2,0-0.2,0.1c-0.9,1.9-1.7,3.9-2.9,5.7c0.1,0,0.2,0,0.4,0
				c-0.3-1-0.4-2.2-0.5-3.3c0-0.4-0.5-2.8-0.2-3.1c0.1-0.1,0-0.3-0.1-0.3C21.2,40.6,19.4,41,17.7,40.1c-0.2-0.1-0.4,0.2-0.2,0.3
				c1.7,0.9,3.6,0.5,5.5,0.6c0-0.1-0.1-0.2-0.1-0.3c-0.4,0.4,0,2.2,0,2.7c0.1,1.3,0.1,2.8,0.5,4c0.1,0.2,0.3,0.2,0.4,0
				c0.7-1,1.3-2.1,1.8-3.2c0.3-0.7,0.6-1.3,0.9-2c0.3-0.6,1.5,0,1.9,0.1c2,0.6,4.1,1.2,6.1,0.4c0.1,0,0.2-0.2,0.1-0.3
				c-1.4-2.1-3.8-2.7-5.7-4.1c-0.1,0.1-0.2,0.2-0.2,0.3c0.7,0.3,1.7-0.5,2.2-0.8c1-0.7,1.9-1.4,2.8-2.2c0.2-0.1,0-0.4-0.2-0.3
				c-1.2,0.3-2.5,0.5-3.7,0.7c-0.4,0.1-1.8,0.7-2.1,0.2c-0.3-0.5-0.7-1.1-1-1.7c-1.2-2-2.4-4-4.1-5.6c-0.1-0.1-0.4,0-0.3,0.1
				c0.2,2,0.1,4.1,0.4,6.2c0.1,0.5,0.2,1,0.3,1.5c0.2,0.7-1.2,1.3-1.7,1.6c-1.2,0.8-2.4,1.4-3.8,1.5c-0.2,0-0.3,0.3-0.1,0.4
				c0,0,0.1,0.1,0.1,0.1C17.7,40.6,17.9,40.2,17.7,40.1z"/>
		</g>
	</g>
	<g>
		<g>
			<path class="st30" d="M33.8,65.2c-0.3-0.4-0.7-0.6-1.1-0.9c-0.4-0.3-0.9-0.5-1.4-0.7c-0.4-0.2-0.9-0.4-1.4-0.4
				c-0.3-0.1-0.8-0.1-1,0.1c-0.3,0.2-0.3,0.7-0.2,1c0.2,0.6,0.6,1.1,1,1.6c0.1-0.1,0.2-0.2,0.3-0.2c-0.3-0.4-0.7-0.9-0.9-1.4
				c0,0,0,0,0,0c0,0,0,0,0,0c0,0,0-0.1,0-0.1c0,0,0-0.1,0-0.2c0,0,0,0,0-0.1c0,0,0,0,0,0c0,0,0-0.1,0-0.1c0,0,0,0,0,0c0,0,0,0,0,0
				c0,0,0,0,0,0v0c0,0,0,0,0,0c0,0,0,0,0,0c0,0,0,0,0,0c0,0,0,0,0.1,0c0,0,0,0,0,0c0,0,0,0,0,0c0,0,0.1,0,0.1,0c0,0,0,0,0,0
				c0,0,0,0,0,0c0.1,0,0.2,0,0.3,0c0,0,0.1,0,0.1,0c0,0,0,0,0,0c0,0,0,0,0,0c0,0,0.1,0,0.1,0c0.2,0,0.4,0.1,0.7,0.2
				c0.1,0,0.2,0.1,0.4,0.1c0.1,0,0.1,0,0.2,0.1c0.1,0,0,0,0.1,0c0,0,0.1,0,0.1,0c0.5,0.2,0.9,0.5,1.4,0.8c0.2,0.2,0.3,0.2,0.5,0.4
				c0.1,0.1,0.2,0.1,0.2,0.2c0,0,0.1,0.1,0.1,0.1c0,0,0,0,0,0.1c0,0,0,0,0,0c0,0,0,0,0,0c0,0.1,0.1,0.1,0.1,0.2c0,0,0,0,0,0
				c0,0,0,0,0,0c0,0,0,0.1,0,0.1v0c0,0,0,0,0,0c0,0,0,0,0,0c0,0,0,0,0,0c0,0,0,0,0,0c0,0,0,0,0,0c0,0,0,0,0,0c0,0,0,0-0.1,0.1
				c0,0,0,0,0,0c0,0,0,0,0,0c0,0,0,0-0.1,0c0,0-0.1,0-0.1,0.1c0,0,0,0,0,0c0,0,0,0,0,0c0,0-0.1,0-0.1,0c-0.3,0.1-0.5,0.1-0.8,0.1
				c-0.4,0-0.8,0-1.2,0c0,0.1,0,0.3,0,0.4c0.6,0,1.2,0,1.8-0.1c0.4-0.1,0.8-0.2,1-0.6C34.2,65.8,34,65.5,33.8,65.2z"/>
		</g>
	</g>
	<g>
		<g>
			<path class="st30" d="M41.6,73c-0.3-1.6-1.1-3-2.9-2.6c-0.4,0.1-0.7,0.2-1,0.4c0.1,0.1,0.2,0.2,0.3,0.3c0.1,0,0.1-0.1,0.2-0.1
				c1.3-0.7,2.5,0.1,2.9,1.4c0.3,1.2,0.1,2.6-1.3,3c-1.4,0.3-2.3-0.9-2.4-2.2c0-0.3-0.4-0.3-0.4,0c0,1.5,1,2.7,2.5,2.6
				C41,75.7,41.8,74.3,41.6,73z"/>
		</g>
	</g>
	<g>
		<g>
			<path class="st30" d="M39.3,61.1c-0.2-0.5-0.5-0.9-0.9-1.3c-0.4-0.3-0.8-0.6-1.3-0.6c-0.4,0-0.7,0.3-0.8,0.6
				c-0.1,0.3-0.1,0.6,0,0.8c0,0.1,0,0.3,0.1,0.4c0.1,0,0.3-0.1,0.4-0.1c0-0.2-0.1-0.4-0.1-0.6c0-0.1,0-0.2,0-0.2c0,0,0-0.1,0-0.1
				c0,0,0,0,0,0c0,0,0,0,0-0.1c0-0.1,0-0.1,0-0.2c0,0,0,0,0,0c0,0,0-0.1,0-0.1c0,0,0,0,0,0c0,0,0,0,0,0c0,0,0,0,0,0c0,0,0,0,0,0
				c0,0,0,0,0,0c0,0,0,0,0,0c0,0,0,0,0.1,0c0,0,0,0,0,0c0,0,0.1,0,0.1,0c0,0,0,0,0,0c0,0,0,0,0,0c0,0,0.1,0,0.1,0c0,0,0.1,0,0.1,0
				c0,0,0.1,0,0.1,0c0,0,0,0,0,0c0,0,0,0,0,0c0.1,0.1,0.2,0.1,0.3,0.2c0.1,0,0.1,0.1,0.2,0.1c0.1,0,0.1,0,0.1,0.1
				c0.1,0.1,0.2,0.2,0.3,0.3c0,0,0.1,0.1,0.1,0.1c0,0,0,0,0.1,0.1c0,0,0,0,0,0c0,0,0,0,0,0c0.1,0.1,0.1,0.2,0.2,0.3
				c0,0,0.1,0.1,0.1,0.2c0,0,0,0,0,0c0,0,0,0,0,0c0,0,0,0.1,0,0.1c0,0,0,0.1,0,0.1c0,0,0,0,0,0.1c0,0,0,0,0,0c0,0,0,0,0,0
				c0,0,0,0.1,0,0.1c0,0,0,0,0,0c0,0,0,0,0,0.1c0,0,0,0,0,0c0,0,0,0,0,0c0,0,0,0,0,0.1c0,0,0,0,0,0.1c0,0,0,0,0,0c0,0,0,0,0,0
				c0,0,0,0,0,0c-0.1,0.1-0.2,0.1-0.4,0.2c-0.1,0-0.2,0-0.3,0c-0.1,0-0.3,0-0.4,0c0,0-0.1,0-0.1,0c0,0.1-0.1,0.3-0.1,0.4
				c0.2,0,0.4,0,0.6,0c0.3,0,0.6-0.1,0.9-0.2C39.3,62,39.4,61.5,39.3,61.1z"/>
		</g>
	</g>
</g>
<g>
	<g>
		<path class="st30" d="M29.6,65.6c0.5,0.5,1.1,1,1.9,1.1c0.1,0,0.1-0.1,0.1-0.1c0-0.1-0.1-0.1-0.1-0.1c-0.7-0.1-1.2-0.6-1.7-1
			C29.7,65.4,29.5,65.5,29.6,65.6L29.6,65.6z"/>
	</g>
</g>
<g>
	<g>
		<path class="st30" d="M29.5,65.6c0.4,0.8,1.4,1.2,2.2,1.2c0.2,0,0.2-0.2,0-0.2c-0.8,0-1.7-0.4-2-1.1
			C29.6,65.3,29.4,65.4,29.5,65.6L29.5,65.6z"/>
	</g>
</g>
<g>
	<g>
		<path class="st30" d="M30.1,66c0.4,0.4,0.9,0.8,1.5,0.7c0.2,0,0.2-0.2,0-0.2c-0.5,0-1-0.3-1.4-0.7C30.2,65.8,30,65.9,30.1,66
			L30.1,66z"/>
	</g>
</g>
<g>
	<g>
		<path class="st30" d="M30.4,66.4c0.4,0.3,0.9,0.6,1.3,0.4c0.1,0,0.1-0.3-0.1-0.2c-0.2,0.1-0.4,0-0.6-0.1c-0.2-0.1-0.4-0.2-0.6-0.3
			c-0.1,0-0.1,0-0.2,0C30.3,66.3,30.4,66.4,30.4,66.4L30.4,66.4z"/>
	</g>
</g>
<g>
	<g>
		<path class="st30" d="M36.2,60.7c0.2,0.8,0.8,1.6,1.6,1.7c0.2,0,0.2-0.2,0-0.2c-0.8,0-1.2-0.8-1.4-1.5
			C36.4,60.4,36.2,60.5,36.2,60.7L36.2,60.7z"/>
	</g>
</g>
<g>
	<g>
		<path class="st30" d="M36.2,60.5c-0.1,0.4,0.1,0.9,0.3,1.3c0.3,0.4,0.7,0.6,1.2,0.7c0.2,0,0.2-0.2,0-0.2c-0.4,0-0.7-0.3-1-0.6
			c-0.2-0.3-0.4-0.7-0.3-1.1C36.4,60.4,36.2,60.4,36.2,60.5L36.2,60.5z"/>
	</g>
</g>
<g>
	<g>
		<path class="st30" d="M36.3,61.1c0.2,0.3,0.3,0.6,0.5,0.9c0.1,0.1,0.3-0.1,0.2-0.2c-0.1-0.1-0.2-0.2-0.3-0.4
			c-0.1-0.1-0.1-0.3-0.2-0.4c0-0.1-0.1-0.1-0.2,0C36.3,61,36.3,61,36.3,61.1L36.3,61.1z"/>
	</g>
</g>
<g>
	<g>
		<path class="st30" d="M36.2,61.1c0.1,0.5,0.3,0.9,0.8,1.2c0.4,0.2,0.9,0.3,1.4,0.2c0.2,0,0.2-0.3,0-0.2c-0.4,0-0.9,0.1-1.2-0.2
			c-0.4-0.2-0.6-0.6-0.7-1C36.3,60.9,36.1,60.9,36.2,61.1L36.2,61.1z"/>
	</g>
</g>
<g>
	<g>
		<path class="st30" d="M36.6,61.7c0.1,0.6,0.8,0.9,1.4,0.8c0.1,0,0.1-0.1,0.1-0.1c0-0.1-0.1-0.1-0.1-0.1c-0.4,0.1-0.9-0.2-1.1-0.7
			C36.8,61.4,36.5,61.5,36.6,61.7L36.6,61.7z"/>
	</g>
</g>
<g>
	<g>
		<path class="st30" d="M38.2,70.7c-0.8,0.6-1.1,1.8-1,2.7c0,0.2,0.2,0.2,0.2,0c0-0.9,0.1-2,0.9-2.5C38.5,70.8,38.4,70.6,38.2,70.7
			L38.2,70.7z"/>
	</g>
</g>
<g>
	<g>
		<path class="st30" d="M38.2,70.6c-1.1,0-1.2,1.6-1.2,2.4c0,0.2,0,0.5,0.1,0.7c0,0.2,0.3,0.1,0.2-0.1c-0.1-0.5-0.1-1.1,0-1.7
			c0.1-0.5,0.3-1.1,0.9-1.1C38.3,70.8,38.3,70.6,38.2,70.6L38.2,70.6z"/>
	</g>
</g>
<g>
	<g>
		<path class="st30" d="M38,70.7c-0.6,0.7-1,1.5-1,2.4c0.1,0,0.2,0,0.2,0c0-0.4,0-0.9,0.2-1.3c0.1-0.4,0.3-0.8,0.7-0.9
			C38.3,70.9,38.2,70.6,38,70.7c-0.4,0-0.7,0.5-0.8,1c-0.1,0.5-0.2,1-0.2,1.4c0,0.2,0.2,0.2,0.2,0c0-0.8,0.4-1.6,0.9-2.2
			C38.3,70.8,38.1,70.6,38,70.7L38,70.7z"/>
	</g>
</g>
<g>
	<g>
		<path class="st30" d="M45.4,67.1c1.4,0.4,2.9,0.1,4.3-0.1c0.2,0,0.2-0.3,0-0.2c-1.4,0.1-2.9,0.5-4.3,0.1
			C45.3,66.8,45.2,67.1,45.4,67.1L45.4,67.1z"/>
	</g>
</g>
<g>
	<g>
		<path class="st30" d="M53.8,68.9c-0.4,0-0.7,0-1.1,0c-0.1,0-0.1,0.1-0.1,0.1c0,0.1,0.1,0.1,0.1,0.1c0,0,0,0,0,0c0,0,0,0,0,0
			c0,0,0,0,0.1,0c0.1,0,0.1,0,0.2,0c0.1,0,0.2,0,0.3,0c0.1,0,0.3,0,0.4,0C54,69.2,54,68.9,53.8,68.9L53.8,68.9z"/>
	</g>
</g>
<g>
	<g>
		<path class="st30" d="M54,69c-0.4,0-0.9,0-1.3,0c-0.2,0-0.2,0.2,0,0.2c0.4,0,0.9,0,1.3,0C54.2,69.2,54.2,69,54,69L54,69z"/>
	</g>
</g>
<g>
	<g>
		<path class="st30" d="M54,68.9c-0.2-0.1-0.5-0.2-0.7-0.3c-0.1,0-0.1,0-0.2,0c0,0.1,0,0.1,0,0.2c0.3,0.1,0.5,0.2,0.8,0.3
			c0.1,0,0.1,0,0.1-0.1C54.1,69,54,68.9,54,68.9L54,68.9z"/>
	</g>
</g>
<g>
	<g>
		<path class="st30" d="M53.2,69C53.2,69,53.2,69,53.2,69C53.2,69,53.2,69,53.2,69C53.2,69,53.3,69,53.2,69C53.3,69,53.3,69,53.2,69
			C53.3,69,53.3,69,53.2,69C53.3,69,53.3,69,53.2,69c0.1,0,0.1,0,0.1,0C53.3,69,53.3,69,53.2,69c0.1,0,0.1,0,0.2,0
			c0.1,0,0.1,0,0.1-0.1c0-0.1,0-0.1-0.1-0.1c0,0-0.1,0-0.1,0c0,0-0.1,0-0.1,0c0,0-0.1,0-0.1,0c0,0-0.1,0-0.1,0.1c0,0,0,0.1,0,0.2
			C53.1,69.1,53.2,69.1,53.2,69L53.2,69z"/>
	</g>
</g>
<g>
	<g>
		<path class="st30" d="M60.5,71.6c0.2,0.1,0.4,0.2,0.5,0.4c0.1,0,0.1,0,0.2,0c0-0.1,0-0.1,0-0.2c-0.2-0.1-0.4-0.2-0.5-0.4
			c-0.1,0-0.1,0-0.2,0C60.4,71.5,60.4,71.6,60.5,71.6L60.5,71.6z"/>
	</g>
</g>
<g>
	<g>
		<path class="st30" d="M60.4,71.6c0.1,0.1,0.2,0.2,0.2,0.2c0,0,0,0,0,0.1c0,0,0,0,0,0c0,0,0,0,0,0c0,0,0,0,0,0c0,0,0.1,0.1,0.1,0.1
			c0,0,0,0,0.1,0.1c0,0,0.1,0,0.1,0c0,0,0.1-0.1,0-0.2c-0.1-0.2-0.3-0.4-0.4-0.5c0,0-0.1,0-0.2,0C60.3,71.5,60.3,71.6,60.4,71.6
			L60.4,71.6z"/>
	</g>
</g>
<g>
	<g>
		<path class="st30" d="M60.5,71.6c0.3,0.2,0.6,0.4,0.8,0.6c0.1,0.1,0.3-0.1,0.2-0.2c-0.3-0.3-0.6-0.5-0.9-0.7c-0.1,0-0.1,0-0.2,0
			C60.4,71.5,60.4,71.5,60.5,71.6L60.5,71.6z"/>
	</g>
</g>
<g>
	<g>
		<path class="st30" d="M39.7,78.6c1.2,0.6,2.5,1.1,3.8,1.6c0.1,0.1,0.2-0.2,0.1-0.2c-1.3-0.5-2.5-1-3.7-1.6
			C39.7,78.4,39.6,78.6,39.7,78.6L39.7,78.6z"/>
	</g>
</g>
<g>
	<g>
		<path class="st30" d="M40,78.9c1.1,0.8,2.4,1.1,3.6,1.6c0.1,0.1,0.3-0.1,0.1-0.2c-1.2-0.5-2.5-0.9-3.6-1.6
			C40,78.6,39.9,78.8,40,78.9L40,78.9z"/>
	</g>
</g>
<g>
	<g>
		<path class="st30" d="M47.7,83.6c0-0.3,0-0.5,0-0.8c0-0.1,0-0.1-0.1-0.1c-0.1,0-0.1,0-0.1,0.1c0,0.3,0,0.6,0,0.9
			c0,0.1,0.1,0.1,0.1,0.1C47.7,83.8,47.7,83.7,47.7,83.6L47.7,83.6z"/>
	</g>
</g>
<g>
	<g>
		<path class="st30" d="M47.2,82.7c0.1,0.6,0.2,1.1,0.3,1.7c0,0.2,0.3,0.1,0.2-0.1c-0.1-0.6-0.1-1.1-0.3-1.7
			C47.4,82.5,47.1,82.6,47.2,82.7L47.2,82.7z"/>
	</g>
</g>
<g>
	<g>
		<path class="st30" d="M47.9,82.7C47.9,82.8,47.9,82.8,47.9,82.7C47.9,82.8,47.9,82.8,47.9,82.7C47.9,82.8,47.9,82.8,47.9,82.7
			C47.9,82.8,47.9,82.8,47.9,82.7c0,0.1,0,0.1,0,0.1c0,0,0,0,0,0.1c0,0.1,0,0.2-0.1,0.3c0,0.2-0.1,0.5-0.1,0.7
			c0,0.1,0.1,0.1,0.1,0.1c0.1,0,0.1-0.1,0.1-0.1c0,0,0,0,0,0c0,0,0,0,0,0c0,0,0,0,0-0.1c0-0.1,0-0.1,0-0.2c0-0.1,0-0.2,0.1-0.4
			c0-0.2,0.1-0.4,0.1-0.6C48.2,82.6,47.9,82.6,47.9,82.7L47.9,82.7z"/>
	</g>
</g>
<g>
	<g>
		<path class="st30" d="M47.7,82.8c0,0.3-0.1,0.5-0.1,0.8c0,0.1,0.1,0.1,0.1,0.1c0.1,0,0.1-0.1,0.1-0.1c0-0.2,0-0.5,0.1-0.7
			c0-0.1,0-0.1-0.1-0.1C47.8,82.7,47.7,82.7,47.7,82.8L47.7,82.8z"/>
	</g>
</g>
<g>
	<g>
		<path class="st30" d="M47.7,82.9c0,0,0,0.1,0,0.1c0,0,0,0,0,0.1c0,0,0,0,0,0c0,0,0,0,0,0c0,0,0,0.1,0,0.1c0,0,0,0,0,0.1
			c0,0,0,0,0,0c0,0,0,0,0,0c0,0.1,0,0.1,0.1,0.1c0.1,0,0.1,0,0.1-0.1c0-0.2,0-0.4,0-0.6c0-0.1-0.1-0.1-0.1-0.1
			C47.8,82.7,47.7,82.8,47.7,82.9L47.7,82.9z"/>
	</g>
</g>
<g>
	<g>
		<path class="st30" d="M47.4,82.8c0,0.3,0.1,0.6,0.1,0.9c0,0.1,0.3,0.1,0.2-0.1c-0.1-0.3-0.1-0.6-0.1-0.9
			C47.7,82.7,47.4,82.7,47.4,82.8L47.4,82.8z"/>
	</g>
</g>
<g>
	<g>
		<path class="st30" d="M89.9,68.2c-0.2,0.1-0.4,0.3-0.6,0.4c0,0-0.1,0.1-0.1,0.1c0,0,0,0.1,0,0.2c0,0,0.1,0,0.2,0c0,0,0,0,0,0
			c0,0,0,0,0,0c0,0,0,0,0,0c0,0,0,0,0.1,0c0.1,0,0.1-0.1,0.2-0.1c0.1-0.1,0.2-0.2,0.4-0.2c0,0,0.1,0,0.1-0.1c0.1,0,0.1-0.1,0-0.2
			C90.1,68.2,90,68.2,89.9,68.2L89.9,68.2z"/>
	</g>
</g>
<g>
	<g>
		<path class="st30" d="M90.2,68.1c-0.1,0.1-0.2,0.2-0.3,0.2c-0.1,0.1-0.2,0.2-0.2,0.2c0,0-0.1,0.1-0.1,0.1c0,0.1,0.1,0.1,0.1,0.1
			c0.1,0,0.1-0.1,0.1-0.1c0,0,0,0,0,0c0,0,0,0,0,0c0,0,0,0,0,0c0,0,0,0,0,0c0,0,0,0,0,0c0,0,0,0,0,0c0,0,0.1-0.1,0.1-0.1
			c0.1-0.1,0.2-0.2,0.3-0.3c0,0,0,0,0.1-0.1c0,0,0,0,0,0c0,0,0,0,0,0c0,0,0,0,0,0c0,0,0,0,0.1-0.1c0,0,0-0.1,0-0.1
			C90.3,68.1,90.2,68.1,90.2,68.1L90.2,68.1z"/>
	</g>
</g>
<g>
	<g>
		<path class="st30" d="M115.2,94.4c0.3,0,0.5,0,0.7-0.1c0.1,0,0.1-0.1,0.1-0.1c0-0.1-0.1-0.1-0.1-0.1c-0.1,0-0.2,0.1-0.3,0.1
			c0,0,0,0,0,0c0,0,0,0,0,0c0,0-0.1,0-0.1,0c-0.1,0-0.1,0-0.2,0c-0.1,0-0.1,0.1-0.1,0.1C115.1,94.4,115.2,94.4,115.2,94.4
			L115.2,94.4z"/>
	</g>
</g>
<g>
	<g>
		<path class="st30" d="M115.2,94.6c0.1,0.1,0.4,0,0.5,0c0.2-0.1,0.4-0.2,0.6-0.3c0.1,0,0.1-0.1,0-0.2c0-0.1-0.1-0.1-0.2,0
			c-0.1,0-0.1,0.1-0.2,0.1c-0.1,0-0.2,0.1-0.2,0.1c-0.1,0-0.2,0.1-0.2,0.1c0,0,0,0,0,0c0,0,0,0,0,0c0,0,0,0,0,0c0,0,0,0,0,0
			c0,0,0,0,0,0c0,0,0,0,0,0c0,0,0,0,0,0c-0.1,0-0.1,0-0.2,0C115.2,94.5,115.2,94.6,115.2,94.6L115.2,94.6z"/>
	</g>
</g>
<g>
	<g>
		<path class="st30" d="M115.4,94.6c0.2,0,0.4-0.1,0.5-0.2c0.1,0,0.1-0.1,0-0.2c0-0.1-0.1-0.1-0.2,0c0,0,0,0-0.1,0c0,0,0,0,0,0
			c0,0,0,0,0,0c0,0,0,0,0,0c0,0-0.1,0-0.1,0c-0.1,0-0.2,0-0.2,0.1c-0.1,0-0.1,0.1-0.1,0.1C115.3,94.6,115.3,94.6,115.4,94.6
			L115.4,94.6z"/>
	</g>
</g>
<g>
	<g>
		<path class="st30" d="M115.2,94.7c0.1,0,0.2-0.1,0.3-0.1c0.2-0.1,0.3-0.1,0.5-0.2c0.1,0,0.1-0.1,0-0.2c0-0.1-0.1-0.1-0.2,0
			c0,0,0,0,0,0c0,0,0,0,0,0c0,0,0,0,0,0c0,0,0,0,0,0c0,0-0.1,0-0.1,0c-0.1,0-0.2,0.1-0.3,0.1c-0.1,0-0.2,0.1-0.3,0.1
			c-0.1,0-0.1,0.1-0.1,0.1C115.1,94.7,115.1,94.8,115.2,94.7L115.2,94.7z"/>
	</g>
</g>
<g>
	<g>
		<path class="st30" d="M115.2,94.7c0.3,0,0.6-0.2,0.9-0.3c0.1,0,0.1-0.1,0-0.2c0-0.1-0.1-0.1-0.2,0c-0.1,0.1-0.3,0.2-0.4,0.2
			c-0.1,0.1-0.3,0.1-0.4,0.1c-0.1,0-0.1,0.1-0.1,0.1C115.1,94.6,115.1,94.7,115.2,94.7L115.2,94.7z"/>
	</g>
</g>
<g>
	<g>
		<path class="st30" d="M113.1,122.9c0.9-0.5,1.8-0.8,2.8-1.1c0.1,0,0.1-0.3-0.1-0.2c-1,0.3-1.9,0.6-2.8,1.1
			C112.8,122.8,113,123,113.1,122.9L113.1,122.9z"/>
	</g>
</g>
<g>
	<g>
		<path class="st30" d="M113.2,122.7c1.3-0.3,2.5-0.8,3.8-1.1c0.2,0,0.1-0.3-0.1-0.2c-1.3,0.3-2.5,0.8-3.8,1.1
			C113,122.5,113.1,122.7,113.2,122.7L113.2,122.7z"/>
	</g>
</g>
<g>
	<g>
		<path class="st30" d="M113.1,122.9c0.7-0.4,1.4-0.5,2.1-0.8c0.1-0.1,0.1-0.3-0.1-0.2c-0.7,0.3-1.5,0.4-2.2,0.8
			C112.8,122.8,112.9,123,113.1,122.9L113.1,122.9z"/>
	</g>
</g>
<g>
	<g>
		<path class="st30" d="M113.3,122.6c1.3-0.5,2.5-0.9,3.9-1.2c0.2,0,0.1-0.3-0.1-0.2c-1.3,0.3-2.6,0.7-3.9,1.2
			C113.1,122.5,113.1,122.7,113.3,122.6L113.3,122.6z"/>
	</g>
</g>
<g>
	<g>
		<path class="st30" d="M96.8,123.4c-0.3,0.2-0.5,0.2-0.8,0.4c0,0,0,0.1,0,0.2c0.1,0,0.1,0,0.2,0c0,0,0,0,0,0c0,0,0,0,0,0
			c0,0,0,0,0,0c0,0,0.1,0,0.1-0.1c0.1,0,0.1-0.1,0.2-0.1c0.1-0.1,0.3-0.1,0.4-0.2c0.1,0,0.1-0.1,0-0.2
			C96.9,123.4,96.8,123.4,96.8,123.4L96.8,123.4z"/>
	</g>
</g>
<g>
	<g>
		<path class="st30" d="M52.8,126.5c0.1,0.1,0.2,0.3,0.4,0.4c0.2,0.1,0.3,0.1,0.5,0.2c0.1,0,0.1-0.1,0.1-0.1c0-0.1-0.1-0.1-0.1-0.1
			c0,0,0,0,0,0c0,0,0,0,0,0c0,0,0,0-0.1,0c0,0-0.1,0-0.1,0c0,0,0,0-0.1,0c0,0,0,0,0,0c0,0,0,0,0,0c0,0-0.1,0-0.1,0c0,0,0,0,0,0
			c0,0,0,0,0,0c0,0,0,0,0,0c0,0-0.1,0-0.1-0.1c0,0,0,0,0,0c0,0,0,0,0,0c0,0,0,0,0,0c0,0,0-0.1-0.1-0.1c0-0.1-0.1-0.1-0.2,0
			C52.8,126.4,52.8,126.5,52.8,126.5L52.8,126.5z"/>
	</g>
</g>
<g>
	<g>
		<path class="st30" d="M52.9,126.7c0.2,0.2,0.5,0.4,0.8,0.4c0.1,0,0.1-0.1,0.1-0.1c0-0.1-0.1-0.1-0.1-0.1c0,0-0.1,0-0.1,0
			c0,0,0,0,0,0c0,0,0,0,0,0c0,0-0.1,0-0.1,0c0,0,0,0,0,0c0,0,0,0,0,0c0,0,0,0,0,0c0,0-0.1,0-0.1,0c0,0,0,0,0,0c0,0,0,0,0,0
			c0,0,0,0,0,0c0,0-0.1-0.1-0.1-0.1c0,0-0.1,0-0.2,0C52.9,126.6,52.9,126.7,52.9,126.7L52.9,126.7z"/>
	</g>
</g>
<g>
	<g>
		<path class="st30" d="M52.6,126.9c-0.1,0.1-0.1,0.2,0,0.3c0,0.1,0.1,0.1,0.2,0.2c0.2,0.1,0.5,0,0.7,0c0.1,0,0.1,0,0.2,0
			c0,0,0.1,0,0.1,0c0,0,0,0,0,0c0,0,0,0,0,0c0.1,0,0.1,0,0.1-0.1c0-0.1-0.1-0.1-0.1-0.1c0,0-0.1,0-0.1,0c0,0,0,0-0.1,0c0,0,0,0,0,0
			c0,0,0,0,0,0c0,0,0,0,0,0c-0.1,0-0.2,0-0.3,0c-0.1,0-0.2,0-0.3,0c0,0,0,0,0,0c0,0,0,0,0,0c0,0,0,0-0.1,0c0,0,0,0,0,0c0,0,0,0,0,0
			c0,0,0,0,0,0c0,0,0,0,0,0c0,0,0,0,0,0c0,0,0,0,0,0c0,0,0,0,0,0c0,0,0,0,0,0c0,0,0,0,0,0c0,0,0,0,0,0c0,0,0,0,0,0c0,0,0,0,0,0
			c0,0,0,0,0,0c0,0,0,0,0,0c0,0,0,0,0,0c0,0,0,0,0,0C52.9,126.9,52.6,126.8,52.6,126.9L52.6,126.9z"/>
	</g>
</g>
<g>
	<g>
		<path class="st30" d="M52.6,127.3c0.4,0.2,0.9,0,1.3,0c0.1,0,0.1,0,0.1-0.1c0-0.1-0.1-0.1-0.1-0.1c-0.2,0-0.4,0.1-0.6,0.1
			c-0.2,0-0.4,0-0.5,0c-0.1,0-0.1,0-0.2,0C52.5,127.2,52.6,127.3,52.6,127.3L52.6,127.3z"/>
	</g>
</g>
<g>
	<g>
		<path class="st30" d="M52.6,123.8c0,0.2,0.1,0.4,0.2,0.6c0,0.1,0.1,0.2,0.1,0.3c0,0,0,0.1,0.1,0.1c0,0,0,0,0,0c0,0,0,0,0,0
			c0,0.1,0.1,0.1,0.1,0.1c0.1,0,0.1-0.1,0.1-0.1c0-0.1-0.1-0.1-0.1-0.2c0-0.1-0.1-0.2-0.1-0.3c-0.1-0.1-0.1-0.2-0.1-0.3c0,0,0,0,0,0
			c0,0,0,0,0,0c0,0,0,0,0-0.1c0,0,0,0,0-0.1c0,0,0,0,0,0c0,0,0,0,0,0c0-0.1,0-0.1-0.1-0.1C52.7,123.7,52.6,123.7,52.6,123.8
			L52.6,123.8z"/>
	</g>
</g>
<g>
	<g>
		<path class="st30" d="M52.9,123.9c0.1,0.3,0.2,0.6,0.3,0.8c0,0.1,0.1,0.1,0.2,0c0.1,0,0.1-0.1,0-0.2c-0.1-0.2-0.2-0.5-0.3-0.8
			c0-0.1-0.1-0.1-0.1-0.1C52.9,123.7,52.8,123.8,52.9,123.9L52.9,123.9z"/>
	</g>
</g>
<g>
	<g>
		<path class="st30" d="M95.6,115.5c0.1,0.2,0.2,0.3,0.2,0.5c0,0.2,0.3,0.1,0.2-0.1c0-0.2,0-0.4,0-0.6c-0.1,0-0.2,0-0.2,0
			c0,0.2,0.1,0.4,0.1,0.6c0.1,0,0.2,0,0.2,0c0-0.2-0.1-0.4-0.1-0.6c0-0.1-0.2-0.1-0.2,0c0,0.2-0.1,0.4-0.1,0.6c0.1,0,0.2,0,0.2,0
			c0-0.2,0-0.4,0-0.6c-0.1,0-0.2,0-0.2,0c0,0.2,0,0.5,0,0.7c0.1,0,0.2,0,0.2,0c0-0.2,0-0.4,0-0.5C95.8,115.5,95.8,115.6,95.6,115.5
			c0.1,0.3,0.1,0.5,0.2,0.7c0.1,0,0.1-0.1,0.2-0.1c-0.1-0.3-0.1-0.6,0-0.9c-0.1,0-0.1,0-0.2,0c0.1,0.3,0.2,0.5,0.2,0.8
			c0,0.3-0.1,0.6-0.3,0.8c-0.1,0.1,0.1,0.3,0.2,0.1c0.2-0.3,0.3-0.6,0.3-0.9c0-0.3-0.1-0.7-0.2-1c0-0.1-0.2-0.1-0.2,0
			c-0.2,0.4-0.2,0.8,0,1.2c0.1,0.1,0.3,0,0.2-0.1c-0.1-0.2-0.1-0.5-0.1-0.7C95.9,115.4,95.7,115.4,95.6,115.5c0,0.2,0.1,0.4,0.1,0.6
			c0,0.2,0.2,0.2,0.2,0c0-0.2,0-0.5,0-0.7c0-0.1-0.2-0.1-0.2,0c0,0.2,0,0.4,0,0.7c0,0.1,0.2,0.1,0.2,0c0-0.2,0-0.3,0.1-0.5
			c-0.1,0-0.2,0-0.2,0c0,0.2,0.1,0.3,0.1,0.5c0,0.2,0.2,0.2,0.2,0c0-0.2,0-0.4-0.1-0.6c0-0.1-0.2-0.1-0.2,0c0,0.2,0,0.4,0,0.7
			c0.1,0,0.2,0,0.2-0.1c0-0.2-0.1-0.4-0.2-0.5C95.8,115.3,95.6,115.4,95.6,115.5L95.6,115.5z"/>
	</g>
</g>
<g>
	<g>
		<path d="M80.3,119.8c0.1-0.6,0.4-1.2,0.9-1.5c0-0.1-0.1-0.1-0.1-0.2c-0.3,0.2-0.6,0.4-0.8,0.8c-0.2,0.3-0.3,0.7-0.3,1
			c0.1,0,0.2,0,0.2,0c-0.1-0.5,0.1-0.9,0.3-1.3c0.1-0.1-0.1-0.2-0.2-0.1c-0.2,0.2-0.3,0.5-0.3,0.7c0,0.2,0.2,0.2,0.2,0.1
			c0-0.2,0.1-0.4,0.3-0.6c-0.1,0-0.1-0.1-0.2-0.1c-0.3,0.5-0.5,1-0.3,1.5c0,0.1,0.2,0.1,0.2,0c0.1-0.3,0.1-0.6,0.3-0.9
			c0.2-0.3,0.4-0.5,0.7-0.7c0.1-0.1,0-0.3-0.1-0.2c-0.6,0.3-1,1-1.1,1.6c0,0.1,0,0.1,0.1,0.1C80.2,119.9,80.3,119.8,80.3,119.8
			L80.3,119.8z"/>
	</g>
</g>
<g>
	<g>
		<path d="M80.2,120.7c0.1-0.5,0.2-1,0.4-1.5c0.2-0.5,0.5-0.9,1-1c0.2,0,0.1-0.3-0.1-0.2c-1.2,0.2-1.3,1.7-1.5,2.6
			C80,120.8,80.2,120.9,80.2,120.7L80.2,120.7z"/>
	</g>
</g>
<g>
	<g>
		<path d="M80,119.2c-0.1-0.1-0.1-0.2-0.2-0.3c0,0,0-0.1,0-0.1c0,0,0,0,0,0c0,0,0,0,0,0c0,0,0,0,0,0c0-0.1,0-0.1,0-0.2c0,0,0,0,0,0
			c0,0,0,0,0,0c0,0,0-0.1,0-0.1c0,0,0,0,0,0c0,0,0,0,0,0c0,0,0,0,0,0c0,0,0,0,0-0.1c0,0,0,0,0,0c0,0,0,0,0,0c0,0,0,0,0.1-0.1
			c0,0,0,0,0,0c0,0,0,0,0,0c0,0,0,0,0,0c0,0,0,0,0,0c0,0,0,0,0,0c0,0,0,0,0,0c0.1,0,0.1,0,0.2,0c0.1,0,0.2,0,0.2,0
			c0.1,0,0.2-0.2,0.1-0.2c-0.3-0.1-0.6-0.1-0.8,0.2c-0.2,0.2-0.2,0.5-0.1,0.8c0,0.2,0.1,0.3,0.2,0.4c0,0.1,0.1,0.1,0.2,0
			C80,119.4,80,119.3,80,119.2L80,119.2z"/>
	</g>
</g>
<g>
	<g>
		<path d="M79.9,119.1c-0.1-0.1-0.1-0.2-0.1-0.3c0,0,0,0,0,0c0,0,0,0,0,0c0,0,0-0.1,0-0.1c0,0,0,0,0,0c0,0,0,0,0,0c0,0,0-0.1,0-0.1
			c0,0,0,0,0,0c0,0,0,0,0,0c0,0,0-0.1,0-0.1c0,0,0,0,0,0c0,0,0,0,0,0c0,0,0,0,0.1-0.1c0,0,0,0,0,0c0,0,0,0,0,0c0,0,0,0,0,0
			c0,0,0,0,0.1,0c0,0,0,0,0,0c0,0,0,0,0,0c0,0,0,0,0,0c0,0,0,0,0,0c0,0,0,0,0,0c0,0,0,0,0,0c0,0,0,0,0,0c0,0,0,0,0,0c0,0,0,0,0,0
			c0,0,0,0,0,0c0,0,0,0,0.1,0c0.1,0,0.1,0,0.2,0.1c0.1,0.1,0.3-0.1,0.1-0.2c-0.1-0.1-0.3-0.1-0.5-0.1c-0.1,0-0.3,0.1-0.4,0.2
			c-0.2,0.2-0.3,0.5-0.3,0.7c0,0.2,0.1,0.3,0.2,0.5c0,0,0.1,0,0.2,0C79.9,119.2,79.9,119.2,79.9,119.1L79.9,119.1z"/>
	</g>
</g>
<g>
	<g>
		<path d="M79.9,118.4C79.9,118.4,79.9,118.4,79.9,118.4c-0.1-0.1-0.1-0.1-0.1-0.1c0,0-0.1,0-0.1,0c0,0,0,0-0.1,0.1c0,0,0,0,0,0.1
			c0,0,0,0,0,0c0,0,0,0,0,0c0,0,0,0,0,0.1c0,0,0,0,0,0c0,0,0,0,0,0c0,0,0,0,0,0c0,0,0,0,0,0c0,0,0,0,0,0c0,0,0,0,0,0c0,0,0,0,0,0
			c0,0,0,0,0,0c0,0,0,0,0,0c0,0,0,0,0,0c0,0,0,0,0,0c0,0,0,0,0,0c0,0,0,0,0,0c0,0,0,0,0,0c0,0,0,0,0,0
			C79.8,118.5,79.8,118.5,79.9,118.4C79.8,118.5,79.8,118.5,79.9,118.4C79.9,118.5,79.9,118.5,79.9,118.4
			C79.9,118.5,79.9,118.5,79.9,118.4C79.9,118.5,79.9,118.5,79.9,118.4C79.9,118.5,79.9,118.5,79.9,118.4
			C79.9,118.5,79.9,118.5,79.9,118.4C79.9,118.5,79.9,118.5,79.9,118.4c0,0-0.1,0-0.1,0c0,0-0.1,0-0.1,0c0,0,0,0.1,0,0.1
			c0,0,0,0.1,0,0.1c0,0,0,0,0,0c0,0,0,0,0,0c0,0,0,0,0,0c0,0,0,0,0,0c0,0,0,0,0,0c0,0,0,0,0-0.1c0,0,0,0,0,0c0,0,0,0,0,0
			C79.9,118.5,79.9,118.5,79.9,118.4C79.9,118.4,79.9,118.4,79.9,118.4C79.9,118.4,79.9,118.4,79.9,118.4
			C79.9,118.4,79.9,118.4,79.9,118.4C79.9,118.4,79.9,118.4,79.9,118.4C79.9,118.4,79.9,118.4,79.9,118.4
			C79.9,118.5,79.9,118.5,79.9,118.4C79.9,118.5,79.9,118.5,79.9,118.4C79.9,118.5,79.9,118.5,79.9,118.4
			C79.9,118.5,79.9,118.5,79.9,118.4C79.9,118.5,79.9,118.5,79.9,118.4C79.9,118.5,79.9,118.5,79.9,118.4c-0.1,0.1-0.1,0.1-0.1,0.1
			c0,0,0,0,0,0c0,0,0,0,0,0c0,0,0,0,0,0c0,0,0,0,0,0c0,0,0,0,0,0c0,0,0,0,0,0c0,0,0,0,0,0c0,0,0,0,0,0c0,0,0,0,0,0c0,0,0,0,0,0
			c0,0,0,0,0,0c0,0,0,0,0,0c0,0,0,0,0,0c0,0,0,0,0,0c0,0,0,0,0,0c0,0,0.1,0,0.1,0C79.9,118.6,79.9,118.6,79.9,118.4
			C80,118.5,80,118.5,79.9,118.4L79.9,118.4z"/>
	</g>
</g>
<g>
	<g>
		<path d="M91,119c0-0.1,0-0.1-0.1-0.2c0,0,0,0,0,0c0,0,0,0,0,0c0,0,0,0,0,0c0,0,0,0,0,0c0,0,0,0,0,0c0,0,0,0,0,0c0,0,0,0,0,0
			c0,0,0,0,0,0c0,0,0,0,0,0c0,0,0,0,0.1,0c0,0,0,0,0.1,0c0.2-0.1,0.5-0.1,0.7-0.1c0.1,0,0.3,0,0.4,0c0.2,0,0.2-0.3,0-0.2
			c-0.3,0-0.5,0-0.8,0c-0.2,0-0.6,0.1-0.7,0.3c-0.1,0.2-0.1,0.3,0,0.5c0,0.1,0.1,0.1,0.1,0.1C91,119.2,91.1,119.1,91,119L91,119z"/>
	</g>
</g>
<g>
	<g>
		<path d="M95.7,117.7c0.3,1,0.4,2.1,0.4,3.1c0,0.2,0.2,0.2,0.2,0c0-1.1-0.1-2.2-0.4-3.2C95.9,117.5,95.6,117.5,95.7,117.7
			L95.7,117.7z"/>
	</g>
</g>
<g>
	<g>
		<path d="M95.8,118.2c0.1,0.2,0.1,0.4,0.1,0.6c0,0.1,0,0.2,0,0.3c0,0,0,0.1,0,0.1c0,0,0,0.1,0,0.1c0,0,0,0,0,0c0,0,0,0,0.1-0.1
			c0,0,0,0,0,0c0,0,0.1,0,0.1,0c0.1,0,0,0.1,0,0c0,0,0,0,0,0c0,0,0,0,0-0.1c0,0,0-0.1,0-0.1c0,0-0.1,0-0.1,0c0,0-0.1,0.1-0.1,0.1
			c0,0.2,0.2,0.2,0.2,0c0,0,0,0,0,0c0,0,0,0-0.1,0.1c0,0,0,0,0,0c0,0-0.1,0-0.1,0c-0.1,0,0-0.1,0,0c0,0,0,0,0,0c0,0,0,0,0,0.1
			c0,0,0,0.1,0,0.1c0,0,0.1,0,0.1,0c0.1-0.1,0.1-0.2,0.1-0.3c0-0.1,0-0.2,0-0.4c0-0.2,0-0.5-0.1-0.7c0-0.1-0.1-0.1-0.2,0
			C95.8,118.1,95.7,118.2,95.8,118.2L95.8,118.2z"/>
	</g>
</g>
<g>
	<g>
		<path d="M95.7,118.4C95.7,118.4,95.7,118.4,95.7,118.4C95.7,118.4,95.8,118.4,95.7,118.4c0,0.1,0,0.1,0,0.2c0,0,0,0,0,0
			c0,0,0,0,0,0.1c0,0,0,0.1,0,0.1c0,0.1,0,0.3,0,0.4c0,0.1,0.1,0.1,0.1,0.1c0.1,0,0.1-0.1,0.1-0.1c0-0.1,0-0.3,0-0.4
			c0-0.1,0-0.3-0.1-0.4c0-0.1-0.1-0.1-0.2,0C95.7,118.3,95.7,118.3,95.7,118.4L95.7,118.4z"/>
	</g>
</g>
<g>
	<g>
		<path d="M96.1,111.3c0,0.8-0.1,1.5-0.1,2.2c0,0.2,0.2,0.2,0.2,0c0-0.8,0.1-1.5,0.1-2.2C96.4,111.2,96.1,111.2,96.1,111.3
			L96.1,111.3z"/>
	</g>
</g>
<g>
	<g>
		<path d="M96,111.9c0,0.3-0.1,0.6-0.1,1c0,0.2,0.2,0.2,0.2,0c0-0.3,0-0.6,0.1-1c0-0.1-0.1-0.1-0.1-0.1
			C96.1,111.8,96,111.9,96,111.9L96,111.9z"/>
	</g>
</g>
<g>
	<g>
		<path d="M96.1,114.3c0,0.9-0.1,1.9-0.3,2.8c0,0.2,0.2,0.2,0.2,0.1c0.2-0.9,0.4-1.9,0.3-2.8C96.4,114.1,96.1,114.1,96.1,114.3
			L96.1,114.3z"/>
	</g>
</g>
<g>
	<g>
		<path d="M96.1,104.5c0.2,0.4,0.3,0.8,0.3,1.2c0,0.4,0,0.8,0,1.2c0,0.2,0.2,0.2,0.2,0c0-0.4,0-0.9-0.1-1.3c0-0.4-0.1-0.9-0.3-1.2
			C96.3,104.2,96.1,104.3,96.1,104.5L96.1,104.5z"/>
	</g>
</g>
<g>
	<g>
		<path d="M96.2,104.9c0.1,0.4,0.1,0.8,0.2,1.1c0,0.2,0.3,0.1,0.2-0.1c-0.1-0.4-0.1-0.8-0.2-1.1C96.4,104.7,96.2,104.8,96.2,104.9
			L96.2,104.9z"/>
	</g>
</g>
<g>
	<g>
		<path d="M89.3,105.1c0.4,0.3,0.4,1,0.4,1.5c0,0.5,0,1,0,1.5c0,0.2,0.2,0.2,0.2,0c0-0.6,0.1-1.1,0-1.7c0-0.5-0.1-1.1-0.5-1.5
			C89.4,104.8,89.2,105,89.3,105.1L89.3,105.1z"/>
	</g>
</g>
<g>
	<g>
		<path d="M89.1,105.5c0.3,0.5,0.5,1.1,0.5,1.6c0,0.2,0.2,0.2,0.2,0c0-0.6-0.2-1.3-0.5-1.8C89.2,105.2,89,105.3,89.1,105.5
			L89.1,105.5z"/>
	</g>
</g>
<g>
	<g>
		<path d="M89.3,105.5c0.1,0.3,0.2,0.5,0.3,0.8c0.1,0.3,0.1,0.6,0,0.8c0,0.1,0.2,0.2,0.2,0.1c0.1-0.3,0-0.6,0-0.9
			c-0.1-0.3-0.2-0.6-0.3-0.9C89.4,105.2,89.2,105.3,89.3,105.5L89.3,105.5z"/>
	</g>
</g>
<g>
	<g>
		<path d="M89.4,105.4c0.2,0.2,0.2,0.5,0.3,0.7c0,0.3,0,0.5,0,0.8c0,0.2,0.2,0.2,0.2,0c0-0.3,0-0.6,0-0.9c0-0.3-0.1-0.6-0.3-0.8
			C89.5,105.1,89.3,105.3,89.4,105.4L89.4,105.4z"/>
	</g>
</g>
<g>
	<g>
		<path d="M87.9,105.7c0.6,0.1,1,0.6,1.4,1c0.1,0.1,0.3-0.1,0.2-0.2c-0.4-0.4-0.9-0.9-1.5-1c-0.1,0-0.1,0-0.1,0.1
			C87.8,105.6,87.9,105.7,87.9,105.7L87.9,105.7z"/>
	</g>
</g>
<g>
	<g>
		<path d="M80.9,105.3c-0.2,0-0.4,0-0.6,0.1c-0.2,0.1-0.3,0.3-0.3,0.5c0,0.1,0,0.3,0.1,0.4c0,0.1,0.1,0.1,0.1,0.1
			c0.1,0,0.1-0.1,0.1-0.1c0-0.1,0-0.1-0.1-0.2c0,0,0,0,0,0c0,0,0,0,0,0c0,0,0,0,0,0c0,0,0,0,0,0c0,0,0,0,0-0.1c0,0,0,0,0,0
			c0,0,0,0,0,0c0,0,0,0,0-0.1c0,0,0,0,0,0c0,0,0,0,0,0c0,0,0,0,0,0c0,0,0,0,0,0c0,0,0,0,0,0c0,0,0,0,0,0c0,0,0,0,0,0c0,0,0,0,0,0
			c0,0,0,0,0,0c0,0,0,0,0,0c0,0,0,0,0,0c0,0,0.1,0,0.1,0c0,0,0,0,0,0c0,0,0,0,0,0c0,0,0,0,0,0c0,0,0,0,0,0c0.1,0,0.1,0,0.2,0
			c0.1,0,0.1-0.1,0.1-0.1C81,105.3,80.9,105.3,80.9,105.3L80.9,105.3z"/>
	</g>
</g>
<g>
	<g>
		<path d="M80.8,105.2c-0.2-0.1-0.5,0-0.7,0.2c-0.2,0.2-0.2,0.5-0.2,0.7c0,0.1,0.1,0.3,0.2,0.4c0,0.1,0.1,0.1,0.2,0
			c0.1,0,0.1-0.1,0-0.2c-0.1-0.1-0.1-0.2-0.1-0.3c0-0.1,0-0.1,0-0.1c0,0,0-0.1,0-0.1c0,0,0,0,0,0c0,0,0,0,0,0c0,0,0,0,0,0
			c0,0,0-0.1,0-0.1c0,0,0,0,0,0c0,0,0,0,0,0c0,0,0,0,0,0c0,0,0,0,0-0.1c0,0,0,0,0,0c0,0,0,0,0,0c0,0,0,0,0.1-0.1c0,0,0,0,0,0
			c0,0,0,0,0,0c0,0,0,0,0,0c0,0,0,0,0,0c0,0,0.1,0,0.1,0c0,0,0,0,0,0c0,0,0,0,0,0c0,0,0,0,0.1,0c0,0,0.1,0,0.1,0
			c0.1,0,0.1,0,0.1-0.1C80.9,105.3,80.9,105.2,80.8,105.2L80.8,105.2z"/>
	</g>
</g>
<g>
	<g>
		<path d="M81.3,105.5c-0.3,0.1-0.6,0.3-0.7,0.6c-0.2,0.3-0.2,0.7-0.2,1c0,0.2,0.2,0.2,0.2,0c0-0.3,0-0.6,0.1-0.9
			c0.1-0.3,0.3-0.4,0.6-0.5C81.6,105.7,81.5,105.5,81.3,105.5L81.3,105.5z"/>
	</g>
</g>
<g>
	<g>
		<path d="M80.8,105.7c0,0.1,0,0.1-0.1,0.2c0,0.1-0.1,0.1-0.1,0.2c-0.1,0.1-0.2,0.2-0.2,0.3c0,0.1,0,0.1,0,0.2c0.1,0,0.1,0,0.2,0
			c0.2-0.2,0.3-0.5,0.4-0.7c0-0.1,0-0.1-0.1-0.1C80.9,105.6,80.8,105.6,80.8,105.7L80.8,105.7z"/>
	</g>
</g>
<g>
	<g>
		<path d="M80.6,105.3c-0.1-0.1-0.2-0.1-0.3-0.1c-0.1,0-0.2,0.1-0.2,0.2c-0.1,0.2-0.1,0.4-0.1,0.7c0,0.1,0.1,0.2,0.1,0.3
			c0,0.1,0.1,0.1,0.2,0c0.1,0,0.1-0.1,0-0.2c0,0,0,0,0,0c0,0,0,0,0,0c0,0,0,0,0,0c0,0,0-0.1,0-0.1c0,0,0,0,0-0.1c0,0,0,0,0,0
			c0,0,0,0,0,0c0,0,0-0.1,0-0.1c0,0,0,0,0-0.1c0,0,0,0,0,0c0,0,0,0,0,0c0,0,0-0.1,0-0.1c0,0,0,0,0,0c0,0,0,0,0,0c0,0,0,0,0,0
			c0,0,0,0,0,0c0,0,0,0,0,0c0,0,0,0,0,0c0,0,0,0,0,0c0,0,0,0,0,0c0,0,0,0,0,0c0,0,0,0,0,0c0,0,0,0,0,0c0,0,0,0,0,0c0,0,0,0,0,0
			c0,0,0,0,0.1,0c0,0,0,0,0,0c0,0,0,0,0,0c0,0,0,0,0,0C80.6,105.6,80.7,105.3,80.6,105.3L80.6,105.3z"/>
	</g>
</g>
<g>
	<g>
		<path d="M80.5,105.2c-0.2-0.1-0.5,0-0.6,0.2c-0.1,0.2-0.1,0.5,0,0.7c0,0.1,0.1,0.3,0.1,0.4c0,0.1,0.1,0.1,0.2,0
			c0.1,0,0.1-0.1,0-0.2c0,0,0,0,0,0c0,0,0,0,0,0c0,0,0,0,0-0.1c0-0.1,0-0.1,0-0.2c0-0.1,0-0.2,0-0.3c0-0.1,0-0.2,0-0.3c0,0,0,0,0,0
			c0,0,0,0,0,0c0,0,0,0,0-0.1c0,0,0,0,0,0c0,0,0,0,0,0c0,0,0,0,0,0c0,0,0,0,0,0c0,0,0,0,0,0c0,0,0,0,0,0c0,0,0,0,0,0c0,0,0,0,0,0
			c0,0,0,0,0,0c0.1,0,0.1,0,0.2,0C80.6,105.4,80.7,105.2,80.5,105.2L80.5,105.2z"/>
	</g>
</g>
<g>
	<g>
		<path d="M70.2,105.7C70.2,105.7,70.1,105.7,70.2,105.7C70.1,105.8,70.1,105.8,70.2,105.7C70.1,105.8,70.1,105.8,70.2,105.7
			c-0.1,0-0.1,0.1-0.1,0.1c0.2-0.2,0.6-0.2,0.9-0.1c0.3,0.1,0.6,0.2,0.9,0.3c0.1,0,0.2-0.2,0.1-0.2c-0.6-0.1-1.5-0.7-2-0.1
			c0,0,0,0.1,0,0.1c0,0.1,0.1,0.1,0.1,0.2c0.1,0,0.1,0,0.2,0C70.3,106,70.3,105.7,70.2,105.7L70.2,105.7z"/>
	</g>
</g>
<g>
	<g>
		<path d="M59,107.9c0-0.4,0.1-0.7,0.4-1c0.3-0.3,0.6-0.4,1-0.5c0.1,0,0.1-0.3-0.1-0.2c-0.4,0.1-0.8,0.3-1.1,0.6
			c-0.3,0.3-0.4,0.7-0.4,1.2C58.8,108,59,108,59,107.9L59,107.9z"/>
	</g>
</g>
<g>
	<g>
		<path d="M58.9,107.2c-0.2-0.2-0.2-0.5-0.1-0.7c0.1-0.2,0.2-0.4,0.4-0.5c0.2-0.1,0.5-0.1,0.7-0.1c0.3,0,0.6,0,0.8,0.1
			c0.2,0,0.5,0.1,0.7,0.1c0.1,0,0.2-0.2,0.1-0.2c-0.5-0.1-1.1-0.2-1.7-0.2c-0.3,0-0.6,0-0.8,0.1c-0.2,0.1-0.4,0.3-0.4,0.6
			c-0.1,0.3-0.1,0.7,0.2,1C58.9,107.4,59,107.3,58.9,107.2L58.9,107.2z"/>
	</g>
</g>
<g>
	<g>
		<path d="M58.9,106.4c0.2-0.2,0.3-0.3,0.6-0.3c0.1,0,0.1-0.1,0.1-0.1c0-0.1-0.1-0.1-0.1-0.1c-0.1,0-0.2,0-0.3,0.1
			c-0.1,0-0.2,0.1-0.2,0.2c0,0,0,0.1,0,0.1c0,0,0.1,0.1,0.1,0.1c0.3,0,0.5-0.1,0.7-0.2c0-0.1-0.1-0.1-0.1-0.2
			C59.5,106.2,59.2,106.3,58.9,106.4c0,0.1,0,0.1,0,0.2c0,0.1,0.1,0.1,0.2,0c0.2-0.1,0.4-0.2,0.6-0.3c0-0.1-0.1-0.1-0.1-0.2
			c-0.2,0.2-0.4,0.3-0.5,0.5c0,0,0,0.1,0,0.2c0,0,0.1,0.1,0.2,0c0.1-0.1,0.3-0.2,0.4-0.2c0-0.1-0.1-0.1-0.1-0.2
			c-0.1,0.1-0.1,0.1-0.2,0.2c-0.1,0.1-0.1,0.2,0.1,0.2c0,0,0.1,0,0.1,0c0,0,0-0.1,0.1-0.1c-0.1,0-0.1-0.1-0.2-0.1c0,0,0,0,0,0.1
			c0,0,0,0,0,0c0,0,0,0,0,0c0,0-0.1,0.1-0.1,0.1c-0.1,0.1,0.1,0.3,0.2,0.2c0.1-0.1,0.1-0.1,0.2-0.2c0-0.1,0-0.1,0-0.2
			c0,0-0.1,0-0.2,0c0,0,0,0,0,0.1c0,0,0,0,0,0c0,0,0,0,0.1,0c0,0.1,0,0.1,0.1,0.2c0.1-0.1,0.2-0.1,0.3-0.2c0.1-0.1,0-0.3-0.1-0.2
			c-0.1,0.1-0.3,0.2-0.4,0.2c0,0.1,0.1,0.1,0.1,0.2c0.2-0.2,0.4-0.4,0.5-0.5c0,0,0-0.1,0-0.1c0,0-0.1-0.1-0.1-0.1
			C59.4,106.2,59.2,106.3,58.9,106.4c0.1,0.1,0.1,0.2,0.2,0.2c0.3-0.2,0.5-0.3,0.7-0.6c0,0,0-0.1,0-0.1c0,0-0.1-0.1-0.1,0
			c-0.3,0-0.5,0.1-0.7,0.2c0,0.1,0.1,0.1,0.1,0.2c0,0,0.1-0.1,0.1-0.1c0,0,0,0,0,0c0,0,0,0,0,0c0,0,0,0,0,0c0,0,0,0,0,0c0,0,0,0,0,0
			c0,0,0,0,0.1,0c0,0,0,0,0,0c0,0,0,0,0,0c0,0,0.1,0,0.1,0c0-0.1,0-0.2,0-0.2c-0.3,0-0.5,0.2-0.7,0.4c0,0.1,0,0.1,0,0.2
			C58.8,106.5,58.9,106.5,58.9,106.4L58.9,106.4z"/>
	</g>
</g>
<g>
	<g>
		<path d="M51.7,106.8C51.7,106.8,51.7,106.8,51.7,106.8C51.7,106.8,51.7,106.8,51.7,106.8C51.7,106.7,51.7,106.8,51.7,106.8
			C51.7,106.7,51.7,106.7,51.7,106.8c0-0.1,0-0.1,0-0.1c0,0,0,0,0,0c0,0,0-0.1,0-0.1c0.1-0.1,0.2-0.2,0.3-0.3
			c0.2-0.2,0.4-0.4,0.6-0.6c0-0.1,0-0.1,0-0.2c-0.1,0-0.1,0-0.2,0c0,0,0,0,0,0c0,0,0,0,0,0c0,0,0,0-0.1,0.1
			c-0.1,0.1-0.1,0.1-0.2,0.2c-0.1,0.1-0.2,0.2-0.3,0.3c-0.2,0.2-0.4,0.4-0.3,0.7C51.5,107,51.7,106.9,51.7,106.8L51.7,106.8z"/>
	</g>
</g>
<g>
	<g>
		<path d="M51.7,106.7c0.1-0.3,0.4-0.6,0.5-1c0.1-0.3,0.2-0.7,0-0.9c-0.1-0.1-0.3,0-0.2,0.2c0.2,0.2,0,0.6-0.1,0.8
			c-0.2,0.3-0.3,0.6-0.5,0.9C51.4,106.8,51.7,106.9,51.7,106.7L51.7,106.7z"/>
	</g>
</g>
<g>
	<g>
		<path d="M52.1,106.7c0.1-0.4,0.2-0.7,0.4-1.1c0-0.1,0-0.1,0-0.2c-0.1,0-0.1,0-0.2,0c-0.2,0.4-0.3,0.8-0.4,1.2
			C51.8,106.8,52.1,106.9,52.1,106.7L52.1,106.7z"/>
	</g>
</g>
<g>
	<g>
		<path d="M56,106.5c0.2,0,0.4,0,0.6,0c0.2,0,0.3,0.1,0.4,0.2c0.1,0.1,0.3,0,0.2-0.1c-0.3-0.4-0.7-0.3-1.1-0.3
			C55.9,106.2,55.9,106.5,56,106.5L56,106.5z"/>
	</g>
</g>
<g>
	<g>
		<path d="M51.9,108.1c0.4,1.3,1,2.6,2.2,3.2c0.1,0.1,0.3-0.1,0.1-0.2c-1.2-0.6-1.7-1.9-2.1-3.1C52.1,107.9,51.9,107.9,51.9,108.1
			L51.9,108.1z"/>
	</g>
</g>
<g>
	<g>
		<path d="M52.2,113.1c-0.1-0.3,0.1-0.6,0.3-0.8c0.2-0.3,0.4-0.5,0.6-0.7c0-0.1,0-0.1,0-0.2c0,0-0.1-0.1-0.2,0
			c-0.2,0.3-0.5,0.5-0.7,0.8c-0.2,0.3-0.4,0.6-0.3,1C52,113.3,52.3,113.3,52.2,113.1L52.2,113.1z"/>
	</g>
</g>
<g>
	<g>
		<path d="M52.3,113.1c0.1-0.4,0.3-0.7,0.6-1c-0.1,0-0.1-0.1-0.2-0.1c-0.2,0.3-0.5,0.6-0.6,0.9c0,0.1,0.1,0.2,0.2,0.1
			c0.3-0.2,0.4-0.6,0.6-0.9c-0.1,0-0.1-0.1-0.2-0.1c-0.2,0.3-0.3,0.6-0.4,0.9c0,0.1,0,0.1,0.1,0.1c0.1,0,0.1,0,0.1-0.1
			c0.1-0.2,0.2-0.3,0.3-0.5c-0.1,0-0.1-0.1-0.2-0.1c-0.1,0.2-0.1,0.4-0.2,0.6c0,0.1,0,0.1,0.1,0.1c0.1,0,0.1,0,0.1-0.1
			c0-0.2,0.1-0.4,0.2-0.6c0-0.1-0.2-0.2-0.2-0.1c-0.1,0.2-0.2,0.4-0.3,0.6c0.1,0,0.2,0,0.2,0.1c0.1-0.3,0.2-0.6,0.4-0.8
			c0-0.1,0-0.1,0-0.2c-0.1,0-0.1,0-0.2,0c-0.2,0.3-0.3,0.6-0.6,0.9c0.1,0,0.1,0.1,0.2,0.1c0.1-0.3,0.3-0.6,0.5-0.9
			c0.1-0.1-0.1-0.2-0.2-0.1c-0.3,0.3-0.6,0.7-0.7,1.1c0,0.1,0,0.1,0.1,0.1C52.2,113.2,52.2,113.1,52.3,113.1L52.3,113.1z"/>
	</g>
</g>
<g>
	<g>
		<path d="M53.1,119.1c-0.3,0.7-0.4,1.6-0.4,2.3c0,0.8,0,1.7,0.2,2.5c0,0.1,0.3,0.1,0.2-0.1c-0.2-0.8-0.3-1.6-0.2-2.3
			c0-0.8,0.1-1.6,0.4-2.3C53.3,119,53.1,118.9,53.1,119.1L53.1,119.1z"/>
	</g>
</g>
<g>
	<g>
		<path d="M53,125.1c-0.1,0.5-0.3,1-0.5,1.4c-0.1,0.1,0.1,0.3,0.2,0.1c0.2-0.5,0.4-1,0.5-1.5C53.3,125,53.1,125,53,125.1L53,125.1z"
			/>
	</g>
</g>
<g>
	<g>
		<path d="M61.1,127.5c0.8-0.1,1.7-0.3,2.5-0.7c0.1-0.1,0-0.3-0.1-0.2c-0.7,0.4-1.6,0.6-2.4,0.7C60.9,127.3,60.9,127.5,61.1,127.5
			L61.1,127.5z"/>
	</g>
</g>
<g>
	<g>
		<path d="M61.8,127.2c0.5-0.1,1-0.3,1.5-0.4c0.1,0,0.1-0.3-0.1-0.2c-0.5,0.1-1,0.3-1.5,0.4c-0.1,0-0.1,0.1-0.1,0.1
			C61.7,127.2,61.7,127.2,61.8,127.2L61.8,127.2z"/>
	</g>
</g>
<g>
	<g>
		<path d="M65.3,125.3c-0.1-0.1-0.2-0.2-0.4-0.2c-0.1,0-0.2,0-0.3,0.1c-0.2,0.1-0.3,0.4-0.4,0.6c0,0.1,0,0.3,0,0.4
			c0,0.1,0.1,0.1,0.1,0.1c0.1,0,0.1-0.1,0.1-0.1c0,0,0,0,0,0c0,0,0,0,0,0c0,0,0-0.1,0-0.1c0,0,0-0.1,0-0.1c0,0,0,0,0,0c0,0,0,0,0,0
			c0-0.1,0-0.1,0-0.2c0,0,0,0,0-0.1c0,0,0,0,0,0c0,0,0,0,0,0c0,0,0,0,0,0c0,0,0,0,0-0.1c0,0,0,0,0,0c0,0,0,0,0,0c0,0,0,0,0,0
			c0,0,0,0,0,0c0,0,0,0,0,0c0,0,0,0,0.1,0c0,0,0,0,0,0c0,0,0,0,0,0c0,0,0,0,0,0c0,0,0,0,0,0c0,0,0,0,0,0c0,0,0,0,0,0c0,0,0,0,0,0
			c0,0,0,0,0,0c0,0,0,0,0,0c0,0,0,0,0,0c0,0,0,0,0,0c0,0,0.1,0,0.1,0c0,0,0,0,0,0c0,0,0,0,0,0c0,0,0,0,0,0c0,0,0.1,0,0.1,0.1
			c0,0,0.1,0,0.2,0C65.4,125.4,65.4,125.4,65.3,125.3L65.3,125.3z"/>
	</g>
</g>
<g>
	<g>
		<path d="M64.7,125.3c-0.2,0.1-0.3,0.3-0.4,0.5c0,0.1,0,0.1,0.1,0.1c0.1,0,0.1,0,0.1-0.1c0,0,0-0.1,0-0.1c0,0,0,0,0,0c0,0,0,0,0,0
			c0,0,0,0,0,0c0,0,0-0.1,0.1-0.1c0,0,0,0,0,0c0,0,0,0,0,0c0,0,0,0,0,0c0,0,0,0,0,0c0,0,0,0,0,0c0,0,0,0,0,0c0,0,0,0,0.1,0
			c0.1,0,0.1-0.1,0-0.2C64.9,125.3,64.8,125.3,64.7,125.3L64.7,125.3z"/>
	</g>
</g>
<g>
	<g>
		<path d="M64.8,125.3c-0.1,0-0.1,0.1-0.2,0.2c-0.1,0.1-0.1,0.1-0.1,0.2c0,0,0,0.1,0,0.1c0,0,0,0,0.1,0.1c0.1,0,0.1,0,0.1-0.1
			c0,0,0,0,0,0c0,0,0,0,0,0c0,0,0-0.1,0.1-0.1c0,0,0,0,0,0c0,0,0.1-0.1,0.1-0.1c0,0,0,0,0,0c0,0,0,0,0.1,0c0,0,0,0,0.1-0.1
			c0,0,0-0.1,0-0.1C64.9,125.3,64.9,125.3,64.8,125.3C64.8,125.3,64.8,125.3,64.8,125.3L64.8,125.3z"/>
	</g>
</g>
<g>
	<g>
		<path d="M64.8,125.2c-0.3,0-0.5,0.1-0.6,0.4c-0.1,0.2-0.1,0.5,0,0.7c0,0.1,0.1,0.1,0.1,0.1c0.1,0,0.1-0.1,0.1-0.1c0,0,0-0.1,0-0.1
			c0,0,0-0.1,0-0.1c0,0,0-0.1,0-0.1c0,0,0,0,0,0c0,0,0,0,0,0c0,0,0-0.1,0-0.1c0,0,0,0,0,0c0,0,0,0,0,0c0,0,0,0,0,0c0,0,0,0,0-0.1
			c0,0,0,0,0,0c0,0,0,0,0,0c0,0,0,0,0,0c0,0,0,0,0,0c0,0,0,0,0,0c0,0,0,0,0,0c0,0,0,0,0,0c0,0,0,0,0,0c0,0,0,0,0.1,0c0,0,0,0,0,0
			c0,0,0,0,0,0C65,125.4,65,125.2,64.8,125.2L64.8,125.2z"/>
	</g>
</g>
<g>
	<g>
		<path d="M59.4,120.7c0-0.7,0.1-1.8,1-1.8c0.2,0,0.2-0.3,0-0.2c-0.5,0-0.8,0.3-1,0.8c-0.2,0.4-0.2,0.9-0.2,1.3
			C59.1,120.9,59.4,120.9,59.4,120.7L59.4,120.7z"/>
	</g>
</g>
<g>
	<g>
		<path d="M59.5,119.5c0-0.2,0.2-0.5,0.3-0.7c0,0,0.1-0.1,0-0.2c0,0-0.1-0.1-0.2,0c-0.2,0.2-0.4,0.5-0.4,0.8c0,0.1,0,0.1,0.1,0.1
			C59.4,119.6,59.5,119.6,59.5,119.5L59.5,119.5z"/>
	</g>
</g>
<g>
	<g>
		<path d="M59,119.4c0-0.1,0-0.2,0-0.3c0,0,0,0,0-0.1c0,0,0,0,0,0c0,0,0,0,0,0c0,0,0,0,0,0c0,0,0-0.1,0-0.1c0,0,0,0,0-0.1
			c0,0,0,0,0,0c0,0,0,0,0,0c0,0,0,0,0-0.1c0,0,0,0,0,0c0,0,0,0,0,0c0,0,0,0,0,0c0,0,0,0,0,0c0,0,0,0,0,0c0,0,0,0,0,0c0,0,0,0,0,0
			c0,0,0,0,0,0c0,0,0,0,0,0c0,0,0,0,0,0c0,0,0,0,0.1,0c0,0,0,0,0,0c0,0,0,0,0,0c0,0,0,0,0,0c0,0,0,0,0,0c0,0,0,0,0,0c0,0,0,0,0,0
			c0,0,0,0,0,0c0,0,0,0,0,0c0,0,0,0,0.1,0c0.1,0,0.1,0,0.2,0c0-0.1,0-0.1,0-0.2c-0.2-0.1-0.5-0.2-0.7,0c-0.2,0.1-0.2,0.4-0.2,0.6
			c0,0.1,0,0.2,0,0.4c0,0.1,0.1,0.1,0.1,0.1C58.9,119.5,59,119.5,59,119.4L59,119.4z"/>
	</g>
</g>
<g>
	<g>
		<path d="M59.1,119.3c0-0.1,0-0.1,0-0.2c0,0,0,0,0,0c0,0,0,0,0,0c0,0,0,0,0,0c0,0,0-0.1,0-0.1c0,0,0,0,0,0c0,0,0,0,0,0c0,0,0,0,0,0
			c0,0,0-0.1,0-0.1c0,0,0,0,0,0c0,0,0,0,0,0c0,0,0,0,0,0c0,0,0,0,0,0c0,0,0,0,0.1-0.1c0,0,0-0.1,0-0.2c-0.1,0-0.1,0-0.2,0
			c-0.2,0.2-0.3,0.5-0.3,0.8c0,0.1,0.1,0.1,0.1,0.1C59,119.4,59.1,119.4,59.1,119.3L59.1,119.3z"/>
	</g>
</g>
<g>
	<g>
		<path d="M59.1,119.4c-0.1-0.1-0.1-0.2-0.1-0.3c0-0.1,0-0.2,0.1-0.3c0,0,0,0,0,0c0,0,0,0,0.1-0.1c0,0,0,0,0,0c0,0,0,0,0,0
			c0,0,0.1,0,0.1,0c0.1,0,0.2-0.1,0.3-0.1c0.2,0,0.3,0.1,0.5,0.1c0.1,0.1,0.3-0.1,0.1-0.2c-0.3-0.2-0.6-0.2-1-0.1
			c-0.3,0.1-0.5,0.3-0.5,0.6c0,0.2,0,0.4,0.1,0.5C58.9,119.6,59.1,119.5,59.1,119.4L59.1,119.4z"/>
	</g>
</g>
<g>
	<g>
		<path d="M69.2,118.9c-0.1-0.1-0.1-0.3,0-0.4c0.2-0.1,0.5-0.1,0.7-0.1c0.6,0,1.3,0.1,1.9,0.2c0.2,0,0.4,0.1,0.6,0.1
			c0.1,0,0.2-0.2,0.1-0.2c-0.5-0.1-1.1-0.2-1.7-0.3c-0.4,0-0.7-0.1-1.1,0c-0.2,0-0.5,0-0.7,0.2c-0.2,0.2-0.2,0.5,0,0.7
			C69,119.1,69.2,119,69.2,118.9L69.2,118.9z"/>
	</g>
</g>
<g>
	<g>
		<path d="M69.3,118.5c0.5,0,0.9-0.1,1.4,0c0.2,0,0.2-0.2,0-0.2c-0.5,0-0.9,0.1-1.4,0C69.2,118.3,69.2,118.5,69.3,118.5L69.3,118.5z
			"/>
	</g>
</g>
<g>
	<g>
		<path d="M79.6,118.7c0,1.1,0,2.2,0,3.3c0,0.2,0.2,0.2,0.2,0c0-1.1,0-2.2,0-3.3C79.8,118.6,79.6,118.6,79.6,118.7L79.6,118.7z"/>
	</g>
</g>
<g>
	<g>
		<path d="M79.6,118.7c-0.1,0.8-0.2,1.5-0.2,2.3c0,0.7,0.2,1.5,0.8,1.9c0.1,0.1,0.3-0.1,0.1-0.2c-0.6-0.4-0.7-1.3-0.7-1.9
			c0-0.7,0.1-1.4,0.2-2.1C79.9,118.5,79.6,118.5,79.6,118.7L79.6,118.7z"/>
	</g>
</g>
<g>
	<g>
		<path d="M74.4,125.1c0.5,0.1,0.9,0.1,1.4,0.1c0.5,0,1.1,0,1.6,0c0.2,0,0.2-0.2,0-0.2c-0.5,0-1,0-1.5,0c-0.5,0-0.9,0-1.4,0
			C74.3,124.9,74.2,125.1,74.4,125.1L74.4,125.1z"/>
	</g>
</g>
<g>
	<g>
		<path d="M74.4,125.1c0.6-0.3,1.4-0.3,2.1-0.2c0.7,0,1.4,0.1,2,0.1c0.2,0,0.2-0.2,0-0.2c-1.4,0-2.9-0.5-4.2,0.1
			C74.1,125,74.3,125.2,74.4,125.1L74.4,125.1z"/>
	</g>
</g>
<g>
	<g>
		<path d="M86.1,124.8C86.1,124.8,86.1,124.8,86.1,124.8c0.1,0,0.1,0,0.2,0c0.2,0,0.4,0,0.5,0c0.5,0,1,0.1,1.5,0.2
			c0.5,0.1,1,0.1,1.5,0.1c0.3,0,0.7,0.1,1,0c0.1,0,0.1-0.3-0.1-0.2c-0.2,0.1-0.5,0-0.7,0c-0.4,0-0.8-0.1-1.2-0.1
			c-0.8-0.1-1.5-0.2-2.3-0.2c-0.1,0-0.5-0.1-0.6,0.1C85.8,124.8,86,124.9,86.1,124.8L86.1,124.8z"/>
	</g>
</g>
<g>
	<g>
		<path d="M86.3,125c1.2-0.3,2.5,0.1,3.8,0.3c0.2,0,0.2-0.2,0.1-0.2c-1.3-0.2-2.6-0.5-3.9-0.3C86.1,124.8,86.1,125.1,86.3,125
			L86.3,125z"/>
	</g>
</g>
<g>
	<g>
		<path d="M86.5,125.1c0.9,0,1.8-0.1,2.8,0c0.2,0,0.2-0.2,0.1-0.2c-0.9-0.2-1.9,0-2.8,0C86.3,124.9,86.3,125.1,86.5,125.1
			L86.5,125.1z"/>
	</g>
</g>
<g>
	<g>
		<path d="M82.1,126.7c1,0,2.1,0.1,3-0.3c0.1-0.1,0.1-0.3-0.1-0.2c-0.9,0.4-2,0.3-2.9,0.3C81.9,126.5,81.9,126.7,82.1,126.7
			L82.1,126.7z"/>
	</g>
</g>
<g>
	<g>
		<path d="M85.8,111.8c-0.4,0.4-0.3,1.1-0.2,1.7c0.1,0.6,0.3,1.2,0.6,1.7c0.1,0.1,0.3,0,0.2-0.1c-0.3-0.4-0.4-1-0.5-1.5
			c-0.1-0.5-0.2-1.1,0.1-1.5C86.1,111.8,85.9,111.7,85.8,111.8L85.8,111.8z"/>
	</g>
</g>
<g>
	<g>
		<path d="M85.8,112.1c-0.1,0.6-0.3,1.3,0.1,1.9c0.1,0.1,0.3,0,0.2-0.1c-0.3-0.5-0.2-1.2,0-1.7C86.1,112,85.8,112,85.8,112.1
			L85.8,112.1z"/>
	</g>
</g>
<g>
	<g>
		<path d="M85.9,111.8c-0.3,0.1-0.4,0.5-0.4,0.8c0,0.2,0,0.4,0.1,0.5c0,0.1,0,0.2,0,0.4c0,0.2,0.2,0.2,0.2,0c0-0.3-0.1-0.6-0.1-0.8
			c0-0.1,0-0.3,0-0.4c0,0,0-0.1,0-0.1c0,0,0,0,0,0c0,0,0,0,0,0c0,0,0.1-0.1,0.1-0.1C86.1,112,86,111.7,85.9,111.8L85.9,111.8z"/>
	</g>
</g>
<g>
	<g>
		<path d="M91.6,107.5c0.1-0.4,0.2-0.7,0.4-1.1c0.2-0.3,0.4-0.6,0.8-0.9c0.1,0,0.1-0.1,0-0.2c0-0.1-0.1-0.1-0.2,0
			c-0.3,0.3-0.6,0.6-0.8,0.9c-0.2,0.4-0.4,0.8-0.5,1.2C91.3,107.6,91.6,107.7,91.6,107.5L91.6,107.5z"/>
	</g>
</g>
<g>
	<g>
		<path d="M91.7,106c0-0.1,0-0.3,0.1-0.4c0.1-0.1,0.3-0.2,0.4-0.2c0.4-0.1,0.8-0.2,1.2-0.2c0.2,0,0.4,0,0.6-0.1
			c0.1,0,0.1-0.3-0.1-0.2c-0.4,0.1-0.8,0.1-1.2,0.2c-0.4,0.1-0.9,0.1-1.1,0.5c-0.1,0.2-0.2,0.4-0.1,0.6
			C91.5,106.2,91.7,106.2,91.7,106L91.7,106z"/>
	</g>
</g>
<g>
	<g>
		<path d="M96,123.4c0,0.6-0.2,1.2-0.2,1.8c-0.1,0.5-0.1,1.2,0.3,1.6c0.1,0.1,0.3,0,0.2-0.1c-0.3-0.5-0.3-1.1-0.2-1.6
			c0.1-0.6,0.2-1.2,0.2-1.7C96.3,123.2,96,123.2,96,123.4L96,123.4z"/>
	</g>
</g>
<g>
	<g>
		<path d="M96.2,123.5c-0.3,1.2-0.5,2.5,0,3.7c0.1,0.1,0.3,0.1,0.2-0.1c-0.4-1.2-0.2-2.4,0-3.6C96.4,123.4,96.2,123.3,96.2,123.5
			L96.2,123.5z"/>
	</g>
</g>
<g>
	<g>
		<path d="M96.1,102.5c0.1,0.3,0,0.6,0,0.8c0,0.3,0,0.6,0,0.9c0,0.6,0.1,1.3,0.2,1.9c0,0.2,0.3,0.1,0.2-0.1c-0.1-0.7-0.2-1.3-0.2-2
			c0-0.3,0-0.6,0.1-0.9c0-0.3,0.1-0.5,0-0.8C96.3,102.3,96.1,102.3,96.1,102.5L96.1,102.5z"/>
	</g>
</g>
<g>
	<g>
		<path d="M96,102.9c0,0.7-0.1,1.3,0,1.9c0,0.2,0.3,0.1,0.2-0.1c-0.1-0.6,0-1.3,0-1.9C96.2,102.8,96,102.8,96,102.9L96,102.9z"/>
	</g>
</g>
<g>
	<g>
		<path d="M96,103.9c0.3,1.2,0.5,2.5,0.8,3.8c0,0.2,0.3,0.1,0.2-0.1c-0.3-1.3-0.5-2.5-0.8-3.8C96.2,103.7,96,103.7,96,103.9
			L96,103.9z"/>
	</g>
</g>
<g>
	<g>
		<path d="M63.8,114.3c0.1-0.3,0.2-0.7,0.4-0.9c0.2-0.2,0.5-0.4,0.9-0.5c0.1-0.1,0.1-0.3-0.1-0.2c-0.4,0.1-0.7,0.3-1,0.6
			c-0.3,0.3-0.4,0.6-0.5,1c0,0.1,0,0.1,0.1,0.1C63.7,114.4,63.8,114.3,63.8,114.3L63.8,114.3z"/>
	</g>
</g>
<g>
	<g>
		<path d="M70.5,107.7c0.1,0,0.1-0.1,0.1-0.2c0-0.1,0.1-0.2,0.1-0.3c0.1-0.3,0.2-0.5,0.3-0.7c0.1-0.1,0.2-0.2,0.4-0.3
			c0.1,0,0.1-0.3-0.1-0.2c-0.3,0.1-0.5,0.3-0.7,0.6c-0.1,0.2-0.2,0.5-0.3,0.7c0,0,0,0.1,0,0.1c0,0,0,0,0,0c0,0,0,0,0,0c0,0,0,0,0,0
			c0,0,0,0,0,0c0,0,0,0,0,0c0,0,0,0,0,0c-0.1,0-0.1,0.1,0,0.2C70.4,107.7,70.4,107.7,70.5,107.7L70.5,107.7z"/>
	</g>
</g>
<g>
	<g>
		<path d="M70.7,106.8c0-0.1,0-0.1,0-0.2c0,0,0-0.1,0-0.1c0,0,0,0,0,0c0,0,0,0,0,0c0,0,0,0,0,0c0,0,0,0,0-0.1c0,0,0,0,0,0
			c0,0,0,0,0,0c0,0,0,0,0,0c0,0,0,0,0,0c0,0,0,0,0.1-0.1c0,0,0,0,0,0c0,0,0,0,0,0c0,0,0,0,0,0c0.1,0,0.1-0.1,0-0.2
			c0-0.1-0.1-0.1-0.2,0c-0.2,0.1-0.3,0.4-0.4,0.7c0,0.1,0,0.1,0.1,0.1C70.7,106.9,70.7,106.8,70.7,106.8L70.7,106.8z"/>
	</g>
</g>
<g>
	<g>
		<path d="M106.3,84c0,0,0.1-0.1,0.1-0.1c0,0,0,0,0,0c0-0.1,0.1-0.1,0.1-0.1c0,0,0,0,0,0c0,0,0.1-0.1,0.1-0.1c0.1,0,0.1-0.1,0-0.2
			c0-0.1-0.1-0.1-0.2,0c-0.2,0.1-0.3,0.2-0.4,0.4c0,0.1,0,0.1,0,0.2C106.2,84,106.2,84,106.3,84L106.3,84z"/>
	</g>
</g>
<g>
	<g>
		<path d="M106.1,83.9c0,0,0.1-0.1,0.1-0.1c0,0,0,0,0.1-0.1c0,0,0,0,0,0c0,0,0,0,0,0c0,0,0,0,0,0c0,0,0.1-0.1,0.1-0.1c0,0,0,0,0.1,0
			c0,0,0,0,0,0c0,0,0,0,0,0c0,0,0,0,0,0c0,0,0,0,0,0c0,0,0.1,0,0.1-0.1c0,0,0-0.1,0-0.1c0-0.1-0.1-0.1-0.1-0.1
			c-0.1,0-0.2,0.1-0.3,0.2c-0.1,0.1-0.2,0.2-0.3,0.2c0,0,0,0.1,0,0.2C106,83.9,106,83.9,106.1,83.9L106.1,83.9z"/>
	</g>
</g>
<g>
	<g>
		<path d="M106.3,84.1c0.2-0.2,0.4-0.4,0.6-0.6c0,0,0-0.1,0-0.2c-0.1,0-0.1,0-0.2,0c-0.2,0.2-0.4,0.4-0.6,0.6c0,0-0.1,0.1,0,0.2
			C106.1,84.2,106.2,84.2,106.3,84.1L106.3,84.1z"/>
	</g>
</g>
<g>
	<g>
		<path d="M112.6,76.6c-0.1,0-0.2,0-0.3,0.1c-0.1,0.1-0.1,0.1-0.2,0.2c0,0.1,0,0.1,0,0.2c0,0,0,0.1,0,0.1c0,0,0,0,0.1,0.1
			c0.1,0,0.1,0,0.1-0.1c0,0,0-0.1,0-0.1c0,0,0,0,0,0c0,0,0,0,0,0c0,0,0,0,0,0c0,0,0,0,0,0c0,0,0,0,0,0c0,0,0,0,0,0c0,0,0,0,0,0
			c0,0,0,0,0,0c0,0,0,0,0.1,0c0,0,0,0,0,0c0,0,0,0,0,0c0,0,0,0,0,0c0,0,0,0,0.1,0c0,0,0,0,0,0c0,0,0.1,0,0.1,0
			c0.1,0,0.1-0.1,0.1-0.1C112.7,76.6,112.7,76.6,112.6,76.6L112.6,76.6z"/>
	</g>
</g>
<g>
	<g>
		<path d="M112.6,76.6c-0.1,0.2-0.2,0.4-0.3,0.6c-0.1,0.3,0,0.5,0.1,0.8c0.1,0.1,0.3,0.1,0.2-0.1c-0.1-0.2-0.1-0.4-0.1-0.7
			c0-0.2,0.2-0.4,0.3-0.5C112.9,76.6,112.7,76.4,112.6,76.6L112.6,76.6z"/>
	</g>
</g>
<g>
	<g>
		<path d="M112.3,77.1c0,0.1,0,0.1,0,0.2c0,0,0,0,0,0c0,0,0,0.1,0,0.1c0,0,0,0,0,0c0,0,0,0,0,0c0,0,0,0.1,0,0.1c0,0,0,0.1,0.1,0.1
			c0.1,0,0.1,0,0.2,0c0-0.1,0-0.2,0.1-0.2c0-0.1,0-0.1,0-0.2c0-0.1-0.1-0.1-0.1-0.1C112.3,77,112.3,77,112.3,77.1L112.3,77.1z"/>
	</g>
</g>
<g>
	<g>
		<path d="M49.8,43.5c0.4,0.3,0.9,0.4,1.3,0.7c0.1,0.1,0.3-0.1,0.1-0.2c-0.4-0.2-0.9-0.4-1.3-0.7C49.8,43.2,49.7,43.4,49.8,43.5
			L49.8,43.5z"/>
	</g>
</g>
<g>
	<g>
		<path d="M49.6,43.5c1,0.4,2.1,0.7,2.9,1.4c0.1,0.1,0.3-0.1,0.2-0.2c-0.4-0.4-0.9-0.6-1.4-0.9c-0.5-0.2-1.1-0.4-1.6-0.6
			C49.6,43.2,49.5,43.4,49.6,43.5L49.6,43.5z"/>
	</g>
</g>
<g>
	<g>
		<path d="M56.8,43.3c1.2-1,2.7-0.7,4.1-1.2c0.1,0,0.1-0.3-0.1-0.2c-0.7,0.2-1.5,0.3-2.2,0.4c-0.7,0.1-1.4,0.4-2,0.9
			C56.5,43.2,56.6,43.4,56.8,43.3L56.8,43.3z"/>
	</g>
</g>
<g>
	<g>
		<path d="M56.6,43.1c0.5-0.2,0.9-0.6,1.4-0.8c0.5-0.2,1.2-0.2,1.7-0.3c1.3-0.2,2.6-0.5,3.9-0.2c0.1,0,0.2-0.2,0.1-0.2
			c-1.2-0.3-2.5-0.1-3.7,0.2c-0.6,0.1-1.3,0.2-1.8,0.3c-0.6,0.2-1,0.6-1.6,0.9C56.4,42.9,56.5,43.2,56.6,43.1L56.6,43.1z"/>
	</g>
</g>
<g>
	<g>
		<path d="M56.9,43c0.3-0.1,0.5-0.2,0.8-0.3c0.3-0.1,0.6-0.2,0.9-0.3c0.7-0.2,1.4-0.2,2.1-0.4c0.1,0,0.1-0.3-0.1-0.2
			c-0.7,0.2-1.4,0.2-2.1,0.4c-0.3,0.1-0.6,0.2-0.9,0.3c-0.3,0.1-0.5,0.3-0.8,0.4C56.7,42.8,56.8,43,56.9,43L56.9,43z"/>
	</g>
</g>
<g>
	<g>
		<path d="M56.6,43.3c0.6-0.4,1-0.9,1.7-1.1c0.6-0.3,1.3-0.4,2-0.5c1.6-0.2,3.2,0,4.8,0.1c0.2,0,0.2-0.2,0-0.2
			c-1.6-0.1-3.3-0.3-4.9,0c-0.7,0.1-1.4,0.2-2,0.5c-0.6,0.3-1.1,0.7-1.6,1.1C56.3,43.2,56.4,43.4,56.6,43.3L56.6,43.3z"/>
	</g>
</g>
<g>
	<polygon class="st26" points="97.6,83.5 97.4,84.8 98.4,85.6 97.1,85.9 96.6,87.1 96,85.9 94.7,85.8 95.6,84.9 95.3,83.6 
		96.5,84.1 	"/>
	<polygon class="st27" points="97.6,83.5 97.4,84.8 98.4,85.6 97.1,85.9 96.6,87.1 96,85.9 94.7,85.8 95.6,84.9 95.3,83.6 
		96.5,84.1 	"/>
</g>
<g>
	<polygon class="st26" points="77.9,24.3 77.7,25.6 78.7,26.5 77.4,26.7 76.9,27.9 76.3,26.8 75,26.7 75.9,25.7 75.6,24.5 76.8,25 	
		"/>
	<polygon class="st27" points="77.9,24.3 77.7,25.6 78.7,26.5 77.4,26.7 76.9,27.9 76.3,26.8 75,26.7 75.9,25.7 75.6,24.5 76.8,25 	
		"/>
</g>
<path class="st28" d="M85.3,85.9c0.3-0.2,0.6-0.6,1.1-0.3c0.4,0.3,0.2,0.9-0.1,1.2c-0.7,0.5-1.5-0.2-1.7-0.9c-0.2-1,0.7-1.9,1.6-2.2
	c2.2-0.6,3.3,2.2,2.2,3.8c-0.2,0.2,0.2,0.4,0.4,0.2c0.9-1.3,0.7-3.4-0.8-4.2c-1.3-0.7-3.1,0-3.6,1.4c-0.5,1.3,0.8,3.4,2.3,2.3
	c0.5-0.4,0.7-1.1,0.3-1.6c-0.5-0.8-1.1-0.4-1.7,0C84.9,85.7,85.1,86,85.3,85.9"/>
<g class="st29">
	<g>
		<path class="st26" d="M94.8,89.1c0.3,0,0.3-0.5,0-0.5C94.5,88.7,94.5,89.1,94.8,89.1L94.8,89.1z"/>
	</g>
</g>
<g class="st29">
	<g>
		<path class="st26" d="M98.8,87.8c0.3,0,0.3-0.5,0-0.5C98.5,87.3,98.5,87.8,98.8,87.8L98.8,87.8z"/>
	</g>
</g>
<g class="st29">
	<g>
		<path class="st26" d="M68,83.6c0.3,0,0.3-0.5,0-0.5C67.7,83.1,67.7,83.6,68,83.6L68,83.6z"/>
	</g>
</g>
<g class="st29">
	<g>
		<path class="st26" d="M73,21.9c0.1,0,0.3,0,0.4,0c0.1,0,0.1,0,0.2-0.1c0,0,0.1-0.1,0.1-0.2c0-0.1,0-0.1-0.1-0.2
			c0,0-0.1-0.1-0.2-0.1c-0.1,0-0.3,0-0.4,0c-0.1,0-0.1,0-0.2,0.1c0,0-0.1,0.1-0.1,0.2c0,0.1,0,0.1,0.1,0.2
			C72.8,21.9,72.9,21.9,73,21.9L73,21.9z"/>
	</g>
</g>
<g class="st29">
	<g>
		<path class="st26" d="M69.5,19.4c-0.1,0.1-0.1,0.1-0.2,0.2c0,0,0,0,0,0c0,0,0,0,0,0.1c0,0,0,0.1,0,0.1c0,0,0,0.1,0,0.1
			c0,0,0,0.1,0,0.1c0,0,0,0,0,0c0,0,0.1,0,0.1,0c0,0,0,0,0.1,0c0,0,0.1,0,0.1-0.1c0.1-0.1,0.1-0.1,0.2-0.2c0,0,0,0,0,0
			c0,0,0,0,0-0.1c0,0,0-0.1,0-0.1c0,0,0-0.1,0-0.1c0,0,0-0.1,0-0.1c0,0,0,0,0,0c0,0-0.1,0-0.1,0c0,0,0,0-0.1,0
			C69.6,19.4,69.6,19.4,69.5,19.4L69.5,19.4z"/>
	</g>
</g>
<g class="st29">
	<g>
		<path class="st26" d="M80.6,27.3c0.3,0,0.3-0.5,0-0.5C80.3,26.8,80.3,27.3,80.6,27.3L80.6,27.3z"/>
	</g>
</g>
<g class="st29">
	<g>
		<path class="st26" d="M66.5,29.4c0.3,0,0.3-0.5,0-0.5C66.1,28.9,66.1,29.4,66.5,29.4L66.5,29.4z"/>
	</g>
</g>
<g>
	<g>
		<path class="st31" d="M29.2,45.2c-0.6,0.1-1.2,0.4-1.8,0.8c-0.8,0.4-1.5,1-2.1,1.6c-1.1,1.1-1.6,2.7-0.6,4.1
			c1.6,2.2,4.3-1.3,5.2-2.5c0.8-1,1.5-2,2.3-2.9c0.1-0.2,0.3-0.3,0.4-0.4c0,0,0.1,0,0.1-0.1c-0.1,0.1,0,0,0,0c0,0,0,0,0.1,0
			c0.1,0-0.1,0,0,0c0.4-0.1,0.8-0.3,1.2-0.3c0.1,0,0.3,0,0.4,0c0.1,0,0.1,0,0.1,0c-0.1,0,0-0.1,0,0c0,0,0,0.1,0,0.1
			c0,0.2-0.1,0.4-0.3,0.6c-0.3,0.6-0.8,1.1-1.2,1.6c-0.7,0.8-1.6,1.6-2.5,2.2c-1,0.7-2.1,1.4-2.9,2.3c-0.3,0.3-0.8,0.8-0.8,1.3
			c0,0.5,0.4,0.8,0.9,0.9c0.4,0.1,0.7,0,1.1,0c0.6-0.1,0.6-1,0-1c-0.3,0-0.6,0.1-0.9,0c-0.1,0-0.1,0-0.1,0c0,0,0,0,0,0
			c0,0,0.1,0.1,0.1,0.1c0,0,0,0,0,0c0-0.1,0.1-0.2,0.2-0.3c0.1-0.1,0.3-0.4,0.5-0.5c0.8-0.8,1.8-1.4,2.7-2c0.9-0.6,1.7-1.4,2.5-2.2
			c0.5-0.5,0.9-1,1.3-1.6c0.3-0.4,0.6-0.9,0.6-1.4c0-1.5-2.1-1-2.9-0.7c-0.8,0.3-1.3,1.2-1.8,1.8c-0.8,1-1.6,2.1-2.5,3
			c-0.4,0.4-0.8,0.9-1.3,1.2c-0.2,0.1-0.4,0.3-0.6,0.4c-0.1,0.1-0.3,0.1-0.4,0.2c0,0-0.2,0-0.2,0c0,0-0.1,0-0.1,0
			c-0.1-0.1-0.2-0.2-0.3-0.3c-0.3-0.5-0.4-1.1-0.2-1.7c0.3-0.7,0.9-1.3,1.5-1.8c0.6-0.5,1.3-0.9,2-1.2c0.2-0.1,0.4-0.2,0.7-0.2
			C30,46,29.8,45,29.2,45.2L29.2,45.2z"/>
	</g>
</g>
<g>
	<g>
		<path class="st8" d="M27.7,62.3c2.7-0.3,5.3-1.6,7.6-3.1c2.1-1.3,4.3-2.8,5.8-4.8c0.6-0.8,1.1-1.8,0.8-2.8c-0.2-0.8-1-1.2-1.8-1.1
			c-1.2,0.1-2.3,0.9-3.3,1.6c-1.1,0.8-2.1,1.6-3.1,2.4c-1.3,1-2.6,1.9-4,2.8c-1.3,0.8-3,1.8-4.6,1.4c0.1,0.2,0.2,0.4,0.3,0.6
			c0.6-1.4,2.2-1.7,3.5-2.2c0.6-0.2,0.3-1.1-0.3-0.9c-1.6,0.6-3.4,1.1-4.2,2.8c-0.1,0.2,0.1,0.5,0.3,0.6c2.7,0.7,5.6-1.5,7.7-3
			c1.2-0.8,2.3-1.7,3.5-2.6c1.1-0.9,2.4-2,3.9-2.4c0.9-0.2,1.3,0.3,1.1,1.2c-0.2,0.7-0.7,1.3-1.2,1.8c-0.9,1-2.1,1.9-3.2,2.7
			c-1.3,0.9-2.7,1.8-4.1,2.5c-1.5,0.8-3,1.5-4.7,1.6C27.1,61.4,27.1,62.4,27.7,62.3L27.7,62.3z"/>
	</g>
</g>
<g>
	<g>
		<path class="st32" d="M31.6,69.3c-1.6,0.1-3.1,1.1-3.2,2.8c0,0.2,0.2,0.4,0.4,0.5c1.3,0.5,2.8,0,4-0.5c1.7-0.8,3.3-1.8,4.8-2.9
			c1.3-0.9,2.5-1.8,3.8-2.7c0.8-0.6,1.5-1.2,2.4-1.7c0.5-0.2,1.1-0.5,1.5-0.2c0.7,0.5,0.2,1.2-0.3,1.6c-0.5,0.4,0.2,1.1,0.7,0.7
			c0.7-0.6,1.2-1.6,0.7-2.5c-0.5-0.8-1.4-1-2.2-0.8c-1.1,0.3-2,1.1-2.9,1.7c-0.7,0.5-1.4,0.9-2,1.4c-1.7,1.2-3.4,2.5-5.2,3.6
			c-1.4,0.8-3.4,2-5.1,1.3c0.1,0.2,0.2,0.3,0.4,0.5c0.1-1.1,1.1-1.8,2.2-1.8C32.2,70.2,32.2,69.2,31.6,69.3L31.6,69.3z"/>
	</g>
</g>
<g>
	<g>
		<path class="st32" d="M29.2,79.9c-0.8,1-1.1,2.4,0.6,2.5c1.6,0.1,3.4-0.6,4.9-1.2c3.2-1.3,6.1-2.7,8.9-4.7c2.6-1.8,5-3.9,7.7-5.6
			c1.3-0.8,2.6-1.6,4-2c1.2-0.3,4.1-0.4,3.8,1.7c-0.3,1.7-2.3,2.8-3.7,3.4c-1.5,0.7-3.1,1.1-4.5,1.9c-3.6,1.9-7,4.1-10.7,5.8
			c-2.6,1.2-5.2,1.9-7.9,2.7c-2.2,0.6-5.1,1.5-6.3,3.6c-1.4,2.4,0.6,5.2,3.2,3.8c0.5-0.3,0.1-1.1-0.5-0.8c-2.1,1.1-2.8-1.4-1.7-2.8
			c0.7-1,2-1.6,3.1-2.1c2-0.8,4.2-1.2,6.3-1.9c6.5-1.9,11.9-6.5,18.2-9c2.1-0.8,5.3-2.2,5.6-4.8c0.2-2.2-2.2-3-4-2.8
			c-2.3,0.3-4.5,1.7-6.3,3c-2.6,1.8-5,3.9-7.7,5.6c-2.6,1.8-5.4,3.1-8.4,4.2c-0.9,0.3-1.9,0.6-2.9,0.8c-0.2,0-1.1,0.3-1.3,0.1
			c-0.3-0.2,0.1-0.5,0.3-0.9C30.2,80.1,29.5,79.5,29.2,79.9L29.2,79.9z"/>
	</g>
</g>
</svg>
