<?xml version="1.0" encoding="utf-8"?>
<!-- Generator: Adobe Illustrator 24.0.1, SVG Export Plug-In . SVG Version: 6.00 Build 0)  -->
<svg version="1.1" id="Layer_1" xmlns="http://www.w3.org/2000/svg" xmlns:xlink="http://www.w3.org/1999/xlink" x="0px" y="0px"
	 viewBox="0 0 141.7 141.7" style="enable-background:new 0 0 141.7 141.7;" xml:space="preserve">
<style type="text/css">
	.st0{fill:#991C1F;}
	.st1{fill:#F5EC34;}
	.st2{fill:#FFFFFF;}
	.st3{fill:#75CEEB;}
	.st4{fill:#45494D;}
	.st5{fill:#C9B09D;}
	.st6{fill:#F0EDED;}
	.st7{fill:#BB2025;}
	.st8{fill:#4C342A;}
	.st9{fill:#FAA324;}
	.st10{fill:#FFC521;}
	.st11{fill:#9C6054;}
	.st12{fill:#83564A;}
	.st13{fill:#B7776C;}
	.st14{fill:#38261F;}
	.st15{fill:#5C3F3A;}
	.st16{fill:url(#SVGID_1_);}
	.st17{fill:url(#SVGID_2_);}
	.st18{fill:url(#SVGID_3_);}
	.st19{fill:url(#SVGID_4_);}
	.st20{fill:url(#SVGID_5_);}
	.st21{fill:#704C3F;}
	.st22{fill:none;stroke:#000000;stroke-width:4.233595e-02;stroke-miterlimit:10;}
	.st23{opacity:0.7;}
	.st24{opacity:0.3;}
	.st25{opacity:0.4;}
	.st26{opacity:0.5;}
	.st27{fill:#070707;}
	.st28{fill:none;stroke:#070707;stroke-width:0.254;stroke-miterlimit:10;}
	.st29{fill:none;stroke:#070707;stroke-width:0.1693;stroke-miterlimit:10;}
</style>
<g id="Layer_12">
</g>
<g id="Layer_8">
</g>
<g id="Layer_15">
</g>
<g id="Layer_16">
</g>
<path class="st0" d="M74.8,34.4l1.6-4l1.6-4.4l2-4.6c0,0,1.3-3.9,6.7-5.4c0,0,5.2-1.4,9.7,3.5c0,0,4.9,2.9,8.5,2.1l2.8-0.4l0.5,0.3
	l-2.2,1.7c0,0-4.6,1.6-5.6,1.3c0,0-7.6-2.6-8.9,0.1c0,0,3.6,1.8,3.6,4.3c0,2.5,0,0.1,0,0.1s-6-1.4-10.9,0.4c0,0-6.9,2.5-8.6,4.9
	L74.8,34.4z"/>
<polygon class="st1" points="87.1,17.5 87.1,19.1 85.9,20.1 87.4,20.5 88,22 88.9,20.7 90.5,20.6 89.5,19.5 89.9,18 88.4,18.4 "/>
<polygon class="st1" points="80.4,26.9 80.6,26 81.2,26.8 82.2,26.7 81.7,27.5 81.9,28.4 81,28.1 80.3,28.7 80.3,27.7 79.4,27.1 "/>
<polygon class="st1" points="87.6,25.5 87.6,26 87.1,26.3 87.7,26.5 87.8,27 88.1,26.6 88.7,26.6 88.4,26.2 88.6,25.7 88.1,25.9 "/>
<path class="st2" d="M107.6,21.1l-0.5-0.7l-0.5-0.8l-0.2-0.9v-1.1l1.6,1l0.4-1.5c0,0,1.4-3.8,5.5-2.4l0.4,0.5l1.2,0.6
	c0,0,0.9,0.5,0.9,0.5c0.1,0.1,1.5,2.4,1,3.9l-0.7-0.4l-0.7,0.3c0,0,1.6,2.6-1.9,4.9c0,0-3.6,0.1-4.9-1.5l-0.8,1.4l-0.4-2.9
	L107.6,21.1z"/>
<path class="st2" d="M72.8,40.3c0,0-0.8-3.8,3.5-7c0,0,5.8-4.6,12.5-4.9c0,0,6.4-0.6,11.4,2.5c0,0,1.2,1.2,1.4,1.6l-2.5,1.5
	l-0.1,0.3c0,0-5.5-3.2-12.4-0.3c0,0-8.3,2.4-9,3.6c0,0-3.2,2.2-3.3,3.6l-0.7-0.6L72.8,40.3z"/>
<path class="st3" d="M104.8,39.7l1.3-1.1c0,0,2.1-2.7,0-4.9c0,0-1.6-2.6-5-1.1l-1.9,1.4c0,0-4.3-2.6-9.4-1.2l-6,1.7l-4.9,2.2
	c0,0-3.9,1.7-4.5,4.1c0,0-1.2-1.4-3.7-0.2c0,0-2.8,1.9-2.8,4c0,0.2-0.3,1.5,2,3.1c0,0,2.3,0.5,2.5,0.1l0.1,3.3l1.5,6.6
	c0,0,2.8,2.4,9.7,1.4c0,0-0.2-1.8,0.2-2.8c0,0-0.9,0-1.5,2c0,0-0.6-4.4,3-8c0,0-0.5-1.7,2.1-3l3.8-1.1c0,0,1.9,0.3,2.8,1.3
	c0,0,0.3,1.1-0.3,1.9c-0.6,0.8,0,0.1,0,0.1s3.4-2.1,6.2,1.4l-2.2-0.2c0,0,0.7,1,3.2,0.9l2.8,0.4l0.6,0l2.3-1.6l1.3-1.5l-1.5-5.2
	l-0.9-2.3L104.8,39.7z"/>
<polygon class="st4" points="108.5,48.3 109.2,46.9 109.3,45.4 108.9,44.5 108.2,43.8 107.4,43.5 106.6,43.5 107.9,48.9 "/>
<path class="st2" d="M101.5,53l0.7-0.5l1.5-0.5l0.9,0.2l2.1-1.6l1.3-1.4l0.9-1.3l0.5-1l0-1.3l-0.1-1.1c0,0,2.7,1.4,3.1,4.2
	c0,0,0.4,2.4-2.5,5l-2.3,1.8c0,0-3-0.6-3.2-0.5C104.2,55,100.8,54.5,101.5,53z"/>
<path class="st5" d="M87.2,47.2c0,0-2.8,2.1-1.5,3.3c0,0,0.6,1.3,3.1,0.1c0,0,1.4-1.4,3.1-1c0,0,2.2,0.2,2.1-1.1l0-0.8l-0.5-0.7
	l-1-0.5l-1.5-0.4L87.2,47.2z"/>
<path class="st2" d="M90.7,52.7c0,0-0.4,2-1.6,0.9c0,0-0.7-0.3-1-1.4l0.1-1.2l1.6-0.8l0.8-0.3l0.7-0.2l0.8,0.2c0,0,0.9,0.8,0.8,2.2
	c0,0,0,1-1,1.4L90.7,52.7z"/>
<polygon class="st4" points="72.6,51.3 74.1,58.1 71.9,56.4 71.1,55.2 70.8,54 71.1,52.5 "/>
<path class="st2" d="M79.4,38.7c0,0-4.4,1.6-3.2,6.7c0,0,1.1,3.9,5.8,3.6c0,0,4.3-0.5,4.7-4.7c0,0,0.8-3.8-3.2-5.5
	C83.5,38.8,81.6,37.9,79.4,38.7z"/>
<path class="st2" d="M92.5,35c0,0-4.4,1.6-3.2,6.7c0,0,1.1,3.9,5.8,3.6c0,0,4.3-0.5,4.7-4.7c0,0,0.8-3.8-3.2-5.5
	C96.6,35.1,94.8,34.2,92.5,35z"/>
<path class="st6" d="M85.5,50.4c0,0-3.5,2.8-2.9,7.5c0,0,0.7-1.7,1.4-1.6c0,0-2.3,9,7.7,11.1c0,0-2.2-2.2-2-3.3c0,0,3,2.8,3.3,2.9
	c0,0,4,2.8,7.8,0.5c0,0-2.4-0.7-3.1-4.3c0,0,4.3,4.6,12.5,4.7c0,0,5.6,0.7,11.6-2.7l-0.1,0.5c0,0,2.9-1.8,4.7-1.5c0,0,0.7-0.2,3.2,0
	c0,0,4.2,0.5,5.2-1.3l0.2-0.3c0,0-2.6,0.9-6-1.5c0,0-3.8-1.5-7,0.2l-2.7,0.5l-2.1,0.1l-1.7-0.2c0,0,2.8-1.6,2.8-1.9l-0.7-0.2
	l-3.9-0.3c0,0-0.4,0.5-2.8-0.5c0,0-4.4-1-4.2-1.9c0,0,3,0,3.1,0.3c0,0-0.8-1.3-3.1-1.9l-1.4-0.3l-1.8-0.4l-1.3-0.4l-0.6-0.6V53
	l2.2-1l-0.7-0.3l-2,0.1l-1.7-0.2l-1-0.3l-0.8-0.4l2.5,0.1l-0.4-0.7l-1.1-0.8l-1-0.4L96.2,49l-1.4,0.2l-1.1,0.3L93,49.7h-0.7l0.5,1.4
	l0.2,1.1L92.8,53l-0.6,0.3h-0.6l-0.7-0.7l-0.3,0.8L89.7,54l-0.7,0l-0.7-0.8l-0.3-1l0.1-1.2L87,51.3L86.2,51L85.5,50.4z"/>
<path class="st7" d="M109.3,54l0.8,2.7l0.7,2.5l-1.5-0.4l-1.9-0.9l-0.8-0.6c0,0,2.1-0.3,3,0.3v-0.3c0,0-0.6-0.9-2.2-1.7L109.3,54z"
	/>
<path class="st5" d="M114,59.4c0,0,1.3-1-0.7-2.7c0,0-1.6-1-3.3-0.1l0.4,2.3l1.7,0.5C112.2,59.5,113.6,60,114,59.4z"/>
<path class="st2" d="M83.7,59.4c0,0,0.6,3.4,2.6,5.4L80,65.4l-5.3-0.3l-3.6-0.8c0,0-3.4-1.9-2-6.4l1-2.7l0.8-1.3c0,0,0.2,2.9,3.2,4
	c0,0,4.8,1.8,5.6,1.4L83.7,59.4z"/>
<path class="st5" d="M77.2,68.2l-0.9-2.9l-1.2,0c0,0-2.1,1.9-2,1.9c0.1-0.1,0.1-0.1,0.1-0.1s-0.7,1.3,0.5,1.5c0,0,0.8,1.2,1.9,0.2
	L77.2,68.2z"/>
<path class="st7" d="M91.7,67.4c0,0-2.3-2.3-2-3.3c0,0,3.1,2.9,3.2,2.9c0.1,0-0.1,0-0.1,0L91.7,67.4z"/>
<path class="st7" d="M76.4,65.6l0.8,2.6l4.5,0.5c0,0,1.5,0.6,1.4,0.6c-0.1,0.1-4.6,1.1-4.6,1.1l-0.9,0l0.5,0.7l3.7,0.2l4.2-0.7
	l2.7-1L90,69l0-0.9l1.7-0.7c0,0-3.1-0.2-5.4-2.6l-3.9,0.6l-4.5,0.1l-1.5,0L76.4,65.6z"/>
<path class="st7" d="M99.3,66.4c0.2,0,1.8-0.7,1.8-0.7l-3.3-2.6l0.2,0.9l0.6,1.5L99.3,66.4z"/>
<polygon class="st8" points="105.8,67.5 106.6,69.3 108.5,67.9 "/>
<path class="st9" d="M105,67.4c0.2,0.4,1.3,3.2,1.3,3.2l0.5-1.4l-0.9-1.6l0-0.3l-1.1-0.1L105,67.4z"/>
<path class="st8" d="M99.5,66.4l1.9-0.6l1.3,0.7l0.8,1.2l0,1.2l-0.4,0.9l-0.8,0.9l-1.4,0.8l-4.6,1.5l-1.7-0.1l-1.3-0.9l-0.4-1
	L93,68.6l0.1-1.4l0.1-0.3c0,0,4,2.9,7.7,0.5C100.8,67.4,99.2,66.9,99.5,66.4z"/>
<path class="st10" d="M90.4,68.4c0.1-0.1,2.7-1.2,2.7-1.2s-0.3,0.9-0.2,2.4c0.1,1.5-0.1,0.2,0,0.1s0.5,3.7,3.6,3.1l4.8-1.6l1.5-1
	l0.7-0.7l0.1-1.1l-0.2-0.9l-0.3-1l1.8,0.7l1,1.6l0.5,1.8l-0.1,0.6l-0.8,0.8l-3.6,2L97,75.7l-1.9,0.7l-1.7-0.2l-0.8-0.5l-0.4-0.8
	l-0.8-3.5l-0.5-2.2L90.4,68.4z"/>
<polygon class="st9" points="90.3,69.3 90.5,71.2 90.9,73 92.2,75.1 91.6,72.7 91.2,70.4 90.3,68.6 "/>
<path class="st8" d="M78,71.2l2.8,0.4l3.5-0.4l2.7-0.8l1.9-0.9l1-0.6l0.4,2.2l0.8,2.3l1,1.6l-1.3,0.1l-5.2,0.2l-4.8,0.1
	c0,0-2.4-0.4-2.4-0.6C78.5,74.7,78,71.2,78,71.2z"/>
<polygon class="st0" points="93.1,76.3 92,75 83.8,75.5 81.7,75.7 88.6,76.3 "/>
<polygon class="st2" points="96.3,76.2 99.5,74.9 100.3,76.3 "/>
<polygon class="st0" points="103.6,73.3 102.9,74 102.9,74.5 103.3,75.1 104.1,75.1 106.2,74.2 109.2,72.4 110.8,71.3 112,70.1 
	112.7,68.4 112.9,67.8 108.6,67.9 107.6,68.4 107,68.9 106.7,69.8 106.6,70.6 106,71.4 105.1,72.2 104.1,73 "/>
<polygon class="st2" points="99.7,75.1 100.3,76.3 107.9,77.1 112.5,74.3 114.6,72.7 115.9,71.5 116.6,70.4 116.8,69.2 116.8,68.3 
	116.3,67.4 112.9,67.8 112.6,69.2 110.9,70.9 108.1,73 105.4,74.4 103.8,75.2 103.2,75 102.9,74.5 102.9,73.6 "/>
<path class="st11" d="M78.5,74.9l-0.3-2l-4,0.4l0.8,3.6l7.1,3.8l6,3.6L98.2,85l9.6,1l7.4,1.3c0,0,4.5,1.4,6.4-2.3l2.1-3.4
	c0,0,0.7-2,0.8-2.1c0.1-0.1,0-1.3,0-1.3l-1.3-1l-2.2-0.7l-2.7-0.2l-1.2,0.1l-1.2,0.3l-1.7,0.4l-0.8,0.1l-0.6-0.2c0,0-1-1.4,0.6-3.4
	l-5.3,3.4l-6.1-0.6l-6-0.1l-7.4-0.1l-6-0.6L78.5,74.9z"/>
<path class="st5" d="M118,74.9c0,0-0.4-2.4-4-1.5c0,0-1.5,0.3-1.5,3.1l0.7,0.8l2.5-0.5l1.4-0.3C117,76.5,117.6,75.8,118,74.9z"/>
<polygon class="st12" points="108.2,86.2 107.4,87.7 107.3,89.2 107.3,89.7 109.9,90.1 111.4,90.2 112.5,90 113.1,89.7 113.5,88.7 
	113.5,87.6 113.4,87 "/>
<path class="st12" d="M92.6,84.4L92.5,87c0,0-4.4-2.7-4.3-2.7C88.4,84.4,92.6,84.4,92.6,84.4z"/>
<path class="st13" d="M101.2,93.7l0.4-2.8l4.7-0.5c0,0,3.6,0.5,3.7,0.7c0.1,0.1,1.9,0.6,1.9,0.6l0,1.3v1.3l-0.4,1l-0.6,1.6l-7.1-0.6
	L101.2,93.7z"/>
<path class="st14" d="M104.8,97.4c0.1,0.1,4.6,0.5,4.6,0.5l0.4-1l-6.2-0.5l0.7,1.2L104.8,97.4z"/>
<polygon class="st15" points="108.6,102.3 109.6,102 110,100.1 109.3,97.9 104.6,97.6 108.1,102.1 "/>
<polygon class="st14" points="101.4,90.7 101.6,90.3 104.1,89.7 107.7,89.7 111.2,90.1 111.2,91.3 107.3,90.8 104,90.5 101.6,91.1 
	"/>
<polygon class="st14" points="92.6,84.4 92.7,85.4 101.9,86.2 107.4,87.6 107.9,86.4 101.2,85.3 95.1,84.8 "/>
<polygon class="st15" points="92.5,87 92.7,85.4 98.6,86 104.1,86.8 107.4,87.3 107.3,89.7 104.1,89.7 102.1,90 101.2,90.4 
	101.2,93.7 96,89.5 "/>
<linearGradient id="SVGID_1_" gradientUnits="userSpaceOnUse" x1="119.3946" y1="107.8715" x2="119.3946" y2="101.9997">
	<stop  offset="0" style="stop-color:#808999"/>
	<stop  offset="0.6556" style="stop-color:#DDF2F8"/>
</linearGradient>
<polygon class="st16" points="112.4,102 115.4,102.3 117.3,102 119.2,102.3 122.2,103.7 124.8,104.7 126.1,105.5 126.4,106.3 
	126.4,107.9 121.4,107 116.9,105.9 113.9,104 "/>
<linearGradient id="SVGID_2_" gradientUnits="userSpaceOnUse" x1="4.7525" y1="114.9249" x2="137.3759" y2="114.9249">
	<stop  offset="0.4872" style="stop-color:#DDF2F8"/>
	<stop  offset="1" style="stop-color:#808999"/>
</linearGradient>
<path class="st17" d="M137.1,116.1l-1.3-2.7l-1.8-1.7l-2-2.1l-2.7-0.9l-2.7-0.4l-4.6-1.1l-4.7-1.4l-4.5-2.8l-1.3-1.4l-1.5-0.8
	l-0.4,1.2l-1,0.3l-0.1,0.4l2.4,3.7c4.4,5.8-1.6,9.6-1.6,9.6l-4.2,1.5l-7.5,1.1c-3.4,0.9-16.7-0.8-16.7-0.8s-7.3-1.3-7.4-1.4
	c-0.1-0.1-6.3-0.6-6.3-0.6l-9,0.5l-4.5,0.2l-2.9,0.3l-5.7-0.2l-6.7-1.2l-5.7-0.6c-14.3,0.3-11.7-10.1-11.8-10.1c0,0,0,0,0,0
	c0,0,0,0,0,0c0,0-0.1,0-0.1,0c-14.1,3.5-13.4,4.3-13.4,4.3c-6.8,4.2,1.8,11.2,1.8,11.2c5.2,5.8,27.8,8,27.8,8c2.4,1.4,21.8,0,21.8,0
	c1.6,0.5,16.7-3.1,16.7-3.1c1.5-1.3,16.1-1.7,16.1-1.7c2.2-1,27.6,0.4,27.6,0.4l7.7,0.3l5.1-0.5l2.1-0.8l2-1.4l0.9-1.4l0.3-2
	L137.1,116.1z"/>
<path class="st7" d="M59.1,73.2c0.1,0.1,0.8,1.1,0.8,1.1l0.8,0.4l3.7-0.7l3.8-0.5l1.3-0.5l1.4-1.2l0.2-0.5l-1.5-0.1l-2.2,0.6
	l-3.9,0.5l-3.6,0.3L59.1,73.2z"/>
<linearGradient id="SVGID_3_" gradientUnits="userSpaceOnUse" x1="35.6434" y1="101.4099" x2="35.6434" y2="82.4577">
	<stop  offset="0" style="stop-color:#808999"/>
	<stop  offset="0.7872" style="stop-color:#DDF2F8"/>
</linearGradient>
<path class="st18" d="M21.6,101.4c0,0,0.6-1.9,0-3.3c0,0-1.9-5.2,2.2-6.1c0,0,0.7-0.1,8.7-1.4c0,0,0.9,0.4,3.6-5.3
	c0,0,1.5-3.1,2.9-2.8c0,0,1.1,1.5,1.3,1.5c0.1,0,2.3,0.7,2.3,0.7s2.3-0.7,2.4-0.7c0.1,0,3.1-1.6,3.1-1.6s1.8-0.2,1.9,0.2l0.2,0.4
	l-9.4,7l-3.4,2.4l-3.9,1.1L29.1,96l-3.5,2.6l-3,2.5L21.6,101.4z"/>
<linearGradient id="SVGID_4_" gradientUnits="userSpaceOnUse" x1="20.6424" y1="95.809" x2="112.3897" y2="95.809">
	<stop  offset="0" style="stop-color:#9D6828"/>
	<stop  offset="0.1848" style="stop-color:#9D6828"/>
	<stop  offset="0.6542" style="stop-color:#FCB42B"/>
	<stop  offset="0.8513" style="stop-color:#FEDB2B"/>
	<stop  offset="1" style="stop-color:#FEDB2B"/>
</linearGradient>
<path class="st19" d="M20.9,104l1.5-2.6l3.2-3.3l4.1-2.4l4.6-2.3l3.1-0.9l3.4-2.4l4.7-3.6l4.2-3.2l10-9.2l0.7,0.3L66,74l4.1-1.1
	l1.2,0.8l3,2.9l1.7,0.9l11.8,6.7l8.3,5.4c0,0,10.2,9.6,14.1,15.7c0.1,0.2,4.5,6.8,0.7,9.4c0,0-4.4,4.2-16.1,4.1l-6.9-0.1l-11-1.5
	l-6.1-1c0,0-4.7-0.8-14.2,0.3l-4.4,0.3l-4.1,0.3l-4.6-0.6l-4.4-0.8l-4.8-0.6l-4.6-0.3l-4.2-1l-3.3-2.5l-1.4-2.6l-0.2-3.4L20.9,104z"
	/>
<linearGradient id="SVGID_5_" gradientUnits="userSpaceOnUse" x1="52.5691" y1="66.942" x2="82.9196" y2="66.942">
	<stop  offset="0" style="stop-color:#9D6828"/>
	<stop  offset="0.1848" style="stop-color:#9D6828"/>
	<stop  offset="0.6542" style="stop-color:#FCB42B"/>
	<stop  offset="0.8513" style="stop-color:#FEDB2B"/>
	<stop  offset="1" style="stop-color:#FEDB2B"/>
</linearGradient>
<path class="st20" d="M60.6,72.5l0.7-1.6l0.2-1.4l-0.4-1l-1.7-1.5L57.2,66l-3-1.3l-1.1-0.8l-0.5-0.4c0,0-0.6-0.9,3.2-0.3l3.3,0.6
	l1.9-0.6c0,0,2.6-1.3,2.6-1.3c0-0.1,1-0.6,1-0.6h0.8l1.5,0.6l1.9,2.2l2.2,2.3l1.3,0.8l0.9,0.1c0,0-0.7,1.3,1.1,1.8l1.4-0.1l0.9-0.6
	l5,0.4l1.5,0.6l-0.6,0.6l-8.8,1l-2.5,0.7l-0.3-0.4h-0.6l-4.6,1.1l-2.6,0.4L60.6,72.5z"/>
<polygon class="st9" points="83.2,73.6 83.2,73.2 83.4,72.9 83.7,72.8 84,73.1 84,73.4 83.8,73.8 83.4,73.9 "/>
<path class="st9" d="M87.3,73c0-0.1,0.2-0.4,0.2-0.4c0.1,0,0.3-0.2,0.4-0.2c0.1,0,0.5,0.4,0.5,0.4v0.5l-0.6,0.4l-0.5-0.2L87.3,73z"
	/>
<polygon class="st9" points="94.4,71.9 94.5,71.6 94.6,71.6 94.8,71.6 95,71.7 95,71.9 94.7,72 "/>
<path class="st9" d="M97.9,70.6v-0.3l0.1-0.1l0.2-0.1c0,0,0.1,0,0.1,0.1c0.1,0.1,0,0.1,0,0.2c0.1,0.1,0,0.3,0,0.3l-0.1,0.1l-0.2,0.1
	L97.9,70.6z"/>
<polygon class="st9" points="100.8,69.3 100.8,69.1 100.9,68.9 101.1,68.9 101.2,69.1 101.2,69.6 101,69.6 "/>
<path class="st9" d="M93,68.6c0.1,0,1.8-0.7,1.8-0.7l-1.6-1l-0.3,1.4L93,68.6z"/>
<polygon class="st9" points="98.3,64.8 99.3,64.6 101.1,65.6 99.3,66.4 98.6,65.5 "/>
<g>
	<g>
		<path d="M93,68.8c0.6-0.3,1.3-0.5,2-0.8c0.1,0,0.1-0.3-0.1-0.2c-0.7,0.3-1.4,0.5-2,0.8C92.8,68.6,92.9,68.8,93,68.8L93,68.8z"/>
	</g>
</g>
<g>
	<g>
		<path d="M98.3,65c0.3-0.1,0.7-0.3,1-0.4c0.1,0,0.1-0.1,0.1-0.1c0-0.1-0.1-0.1-0.1-0.1c-0.4,0.1-0.7,0.3-1,0.4
			C98.1,64.8,98.2,65,98.3,65L98.3,65z"/>
	</g>
</g>
<g>
	<g>
		<path d="M98.3,64.7c0.2-0.1,0.5-0.3,0.7-0.3c0.1,0,0.1-0.1,0.1-0.1c0-0.1-0.1-0.1-0.1-0.1c-0.3,0-0.5,0.2-0.8,0.3
			c-0.1,0-0.1,0.1,0,0.1C98.2,64.8,98.2,64.8,98.3,64.7L98.3,64.7z"/>
	</g>
</g>
<g>
	<g>
		<path d="M98.3,64.9c0.1-0.1,0.2-0.2,0.4-0.2c0.1-0.1,0.3-0.1,0.5-0.1c0.1,0,0.1-0.2,0-0.2c-0.2,0-0.4,0.1-0.5,0.1
			c-0.2,0.1-0.3,0.2-0.5,0.3C98.1,64.9,98.2,65,98.3,64.9L98.3,64.9z"/>
	</g>
</g>
<g>
	<g>
		<path d="M93.1,68.6c0.4-0.1,0.7-0.2,1.1-0.3c0.3-0.1,0.5-0.2,0.8-0.3c0.1,0,0.1-0.2,0-0.2c-0.3,0-0.6,0.2-0.8,0.3
			c-0.4,0.1-0.7,0.2-1.1,0.4C92.9,68.4,92.9,68.6,93.1,68.6L93.1,68.6z"/>
	</g>
</g>
<g>
	<g>
		<path d="M93,69c0.9-0.2,1.7-0.7,2.6-0.8c0.1,0,0.1-0.2-0.1-0.2c-0.9,0.2-1.7,0.6-2.6,0.8C92.9,68.8,92.9,69,93,69L93,69z"/>
	</g>
</g>
<g>
	<g>
		<path d="M93.3,70.1c0.5-0.4,1.1-0.7,1.7-0.9c0.3-0.1,0.5-0.2,0.8-0.4c0.3-0.2,0.5-0.3,0.8-0.4c0.1,0,0.1-0.2,0-0.2
			c-0.3,0-0.5,0.2-0.8,0.3c-0.3,0.2-0.6,0.3-0.8,0.4c-0.6,0.3-1.3,0.6-1.8,1C93.1,70,93.2,70.2,93.3,70.1L93.3,70.1z"/>
	</g>
</g>
<g>
	<g>
		<path d="M93.2,69.7c0.6-0.3,1.1-0.6,1.7-0.9c0.2-0.1,0.4-0.2,0.6-0.3c0.2-0.1,0.4-0.2,0.6-0.2c0.1,0,0.1-0.2,0-0.2
			c-0.2,0-0.4,0.1-0.6,0.2c-0.2,0.1-0.4,0.2-0.6,0.3c-0.6,0.3-1.2,0.6-1.8,0.9C93,69.6,93.1,69.8,93.2,69.7L93.2,69.7z"/>
	</g>
</g>
<g>
	<g>
		<path d="M94.1,69.5c0.7-0.2,1.2-0.7,1.9-0.9c0.1,0,0.1-0.3-0.1-0.2c-0.7,0.2-1.2,0.7-1.9,0.9C93.9,69.3,93.9,69.5,94.1,69.5
			L94.1,69.5z"/>
	</g>
</g>
<g>
	<g>
		<path d="M100,67.1c0.8-0.1,1.6-0.4,2.4-0.6c0.1,0,0.1-0.2-0.1-0.2c-0.8,0.2-1.5,0.5-2.3,0.6C99.9,66.9,99.9,67.1,100,67.1
			L100,67.1z"/>
	</g>
</g>
<g>
	<g>
		<path d="M100.2,67.2c0.8-0.2,1.6-0.5,2.4-0.6c0.1,0,0.1-0.2,0-0.2c-0.8,0-1.6,0.4-2.5,0.6C100,67,100,67.2,100.2,67.2L100.2,67.2z
			"/>
	</g>
</g>
<path class="st21" d="M78,71.2c0,0.1,0.3,2.4,0.3,2.4l0.9,0.3l0.7-0.6h0.4c0,0,0.5,0.6,0.6,0.6c0.1,0,1.2-0.2,1.2-0.2l0.5-0.1
	l0.5,0.3l-0.1-0.8l0.3-0.3c0,0,0.2-0.2,0.2-0.2c0.1,0,0.3,0.4,0.3,0.4l0.3-0.4l0.8,0.1l0.5,0.2l0.5-0.2l0.4-0.2l0.4,0.1l0.4-0.1
	l0.7-0.3l0.4,0.3l0.2,0.5l0.4,0.1l0.5,0.1c0,0,0.3,0,0.4,0c0.1,0,0.3,0,0.3,0l0.3-0.4l0.2-0.3l-0.4-3.3l-0.1-0.2l-2.6,1.3l-4.4,1.2
	l-4,0L78,71.2z"/>
<polygon class="st7" points="83.1,73.2 83.4,72.8 83.8,72.7 83.7,72.4 83.2,72.3 82.9,72.4 82.8,72.7 82.8,72.8 83,73.4 "/>
<path class="st7" d="M87.2,72.9l0.5-0.5l0.3-0.1c0,0,0.2,0.1,0.3,0.1c0,0.1,0.1-0.1,0.1-0.1L88.2,72l-0.5-0.1l-0.3,0L87,72v0.4
	l0,0.5L87.2,72.9z"/>
<g>
	<g>
		<path d="M93.2,70c0.1,0,0.3-0.1,0.4-0.2c0.2-0.1,0.5-0.3,0.7-0.4c0.5-0.3,1-0.6,1.6-0.9c0.1-0.1,0.2-0.1,0.4-0.2
			c0.1-0.1,0-0.2-0.1-0.2c-0.5,0.1-1,0.4-1.5,0.6c-0.5,0.3-1,0.5-1.5,0.9c-0.1,0.1,0,0.2,0.1,0.1c0.4-0.3,0.9-0.6,1.4-0.8
			c0.5-0.2,0.9-0.5,1.5-0.6c0-0.1-0.1-0.1-0.1-0.2c-0.8,0.5-1.7,0.9-2.5,1.4c-0.1,0.1-0.2,0.1-0.3,0.1c0,0-0.1,0-0.1,0c0,0,0,0,0,0
			C93.1,69.8,93.1,70,93.2,70L93.2,70z"/>
	</g>
</g>
<g>
	<g>
		<path d="M95.1,68c-0.6,0.2-1.2,0.4-1.8,0.6c-0.1,0-0.2,0.1-0.3,0.1c0,0.1,0.1,0.1,0.1,0.2c0.3-0.2,0.7-0.3,1.1-0.4
			c0.2,0,0.3-0.1,0.5-0.2c0.2-0.1,0.4-0.2,0.6-0.2c0.1,0,0.1-0.2,0-0.2c-0.4,0-0.8,0.3-1.2,0.4c-0.4,0.1-0.8,0.2-1.1,0.4
			c-0.1,0.1,0,0.2,0.1,0.2c0.6-0.2,1.2-0.4,1.8-0.6c0.1,0,0.2-0.1,0.3-0.1C95.2,68.1,95.2,67.9,95.1,68L95.1,68z"/>
	</g>
</g>
<polyline class="st22" points="93,70 96.2,68.3 95.2,67.9 92.8,68.8 "/>
<g class="st23">
	<g>
		<path class="st1" d="M82.5,21.9c0.5,0,0.5-0.8,0-0.8C82,21.1,82,21.9,82.5,21.9L82.5,21.9z"/>
	</g>
</g>
<g class="st23">
	<g>
		<path class="st1" d="M95.1,21.6c0.5,0,0.5-0.8,0-0.8C94.5,20.7,94.5,21.6,95.1,21.6L95.1,21.6z"/>
	</g>
</g>
<g class="st23">
	<g>
		<path class="st1" d="M99.8,23.5c0.1,0,0.1,0,0.2,0c0.1,0,0.2,0,0.3-0.1c0.1,0,0.2-0.1,0.3-0.2c0.1-0.1,0.1-0.2,0.2-0.3
			c0.1-0.1,0.1-0.2,0.1-0.3c0-0.1,0-0.2,0-0.2c0-0.1-0.1-0.3-0.2-0.4c-0.1,0-0.1-0.1-0.2-0.1c-0.1-0.1-0.3-0.1-0.4-0.1
			c-0.1,0-0.1,0-0.2,0c-0.1,0-0.2,0-0.3,0.1c-0.1,0-0.2,0.1-0.3,0.2c-0.1,0.1-0.1,0.2-0.2,0.3C99,22.4,99,22.5,99,22.7
			c0,0.1,0,0.2,0,0.2c0,0.1,0.1,0.3,0.2,0.4c0.1,0,0.1,0.1,0.2,0.1C99.5,23.5,99.7,23.5,99.8,23.5L99.8,23.5z"/>
	</g>
</g>
<g>
	<g>
		<path class="st1" d="M84.4,26.2c1.1,0,1.1-1.7,0-1.7C83.3,24.5,83.3,26.2,84.4,26.2L84.4,26.2z"/>
	</g>
</g>
<g class="st23">
	<g>
		<path class="st1" d="M82.7,68.2c1.1,0,1.1-1.7,0-1.7C81.6,66.5,81.6,68.2,82.7,68.2L82.7,68.2z"/>
	</g>
</g>
<g class="st23">
	<g>
		<path class="st1" d="M109,70.9c1.1,0,1.1-1.7,0-1.7C107.9,69.2,107.9,70.9,109,70.9L109,70.9z"/>
	</g>
</g>
<g class="st23">
	<g>
		<path class="st1" d="M78.8,67.2c0.3,0,0.3-0.4,0-0.4C78.5,66.8,78.5,67.2,78.8,67.2L78.8,67.2z"/>
	</g>
</g>
<g>
	<g>
		<path class="st1" d="M87.3,68.4c0.1,0,0.1,0,0.2,0c0,0,0.1,0,0.1,0c0,0,0,0,0.1,0c0,0,0,0,0-0.1c0,0,0-0.1,0-0.1c0,0,0,0,0-0.1
			c0,0,0-0.1-0.1-0.1c0,0,0,0,0,0c0,0-0.1,0-0.1,0c-0.1,0-0.1,0-0.2,0c0,0-0.1,0-0.1,0c0,0,0,0-0.1,0c0,0,0,0,0,0.1c0,0,0,0.1,0,0.1
			c0,0,0,0,0,0.1c0,0,0,0.1,0.1,0.1c0,0,0,0,0,0C87.2,68.4,87.2,68.4,87.3,68.4L87.3,68.4z"/>
	</g>
</g>
<g>
	<g>
		<path class="st1" d="M106,73C106,73,106,73,106,73c0,0.1,0,0.1,0,0.1c0,0,0,0,0,0c0,0,0,0,0,0.1c0,0,0,0,0.1,0.1c0,0,0,0,0.1,0
			c0,0,0.1,0,0.1,0c0,0,0,0,0,0c0,0,0,0,0,0c0.1,0,0.1,0,0.1-0.1c0,0,0,0,0.1-0.1c0-0.1,0-0.1,0.1-0.2c0,0,0-0.1,0-0.1
			c0,0,0,0,0-0.1c0,0,0,0-0.1,0c0,0-0.1,0-0.1,0c0,0,0,0-0.1,0c0,0-0.1,0-0.1,0.1c0,0,0,0,0,0c0,0,0,0.1,0,0.1c0,0,0,0,0,0
			c0,0,0,0,0-0.1c0,0,0,0,0,0c0,0,0,0,0-0.1c0,0,0,0,0,0c0,0,0,0,0,0c0,0,0,0,0,0c0,0,0,0,0,0c0,0,0,0,0,0c0,0,0,0,0.1,0
			c0,0,0,0,0,0c0,0,0,0,0.1,0c0,0,0,0,0,0c0,0,0,0,0.1,0c0,0,0,0,0,0c0,0,0,0,0.1,0c0,0,0,0,0,0c0,0,0,0,0,0c0,0,0,0,0,0
			c0,0,0,0,0,0c0,0,0,0,0,0c0,0,0,0,0,0.1c0,0,0,0,0,0c0,0,0,0,0,0.1c0,0,0,0,0,0c0,0,0-0.1,0-0.1c0,0,0,0,0-0.1c0,0,0,0-0.1,0
			c0,0-0.1,0-0.1,0c0,0,0,0-0.1,0c0,0-0.1,0-0.1,0.1c0,0,0,0,0,0C106,72.9,106,72.9,106,73L106,73z"/>
	</g>
</g>
<g class="st23">
	<g>
		<path class="st1" d="M111.3,69.2c0,0,0.1,0.1,0.1,0.1c0,0,0,0,0,0c0,0,0,0,0.1,0c0,0,0.1,0,0.1,0c0,0,0.1,0,0.1,0c0,0,0,0,0.1,0
			c0,0,0,0,0,0c0,0,0-0.1,0-0.1c0,0,0,0,0-0.1c0,0,0-0.1-0.1-0.1c0,0-0.1-0.1-0.1-0.1c0,0,0,0,0,0c0,0,0,0-0.1,0c0,0-0.1,0-0.1,0
			c0,0-0.1,0-0.1,0c0,0,0,0-0.1,0c0,0,0,0,0,0c0,0,0,0.1,0,0.1C111.3,69.1,111.3,69.1,111.3,69.2C111.3,69.2,111.3,69.2,111.3,69.2
			L111.3,69.2z"/>
	</g>
</g>
<g>
	<g>
		<path class="st1" d="M91,22.7c0.3,0,0.3-0.4,0-0.4C90.7,22.3,90.7,22.7,91,22.7L91,22.7z"/>
	</g>
</g>
<g>
	<g>
		<path class="st1" d="M92,18.5c0.3,0,0.3-0.4,0-0.4C91.8,18,91.8,18.5,92,18.5L92,18.5z"/>
	</g>
</g>
<g>
	<g>
		<path class="st1" d="M92.2,26.9c0.3,0,0.3-0.4,0-0.4C91.9,26.5,91.9,26.9,92.2,26.9L92.2,26.9z"/>
	</g>
</g>
<g>
	<g>
		<path class="st1" d="M78,30.5c0.3,0,0.3-0.4,0-0.4C77.7,30.1,77.7,30.5,78,30.5L78,30.5z"/>
	</g>
</g>
<g class="st23">
	<g>
		<path class="st1" d="M104,22.7C104,22.7,104,22.7,104,22.7C104,22.7,104,22.8,104,22.7c0,0.1,0,0.1,0,0.2c0,0,0,0,0,0.1
			c0,0,0,0,0,0c0,0,0,0,0,0c0,0,0,0,0,0c0,0,0,0,0.1,0c-0.1,0,0,0,0.1,0c0,0,0,0,0,0c0,0,0.1,0,0.1,0c0,0,0,0,0.1,0c0,0,0,0,0,0
			c0,0,0,0,0.1-0.1c0,0,0.1-0.1,0.1-0.1c0,0,0,0,0-0.1c0,0,0-0.1,0-0.1c0,0,0-0.1,0-0.1c0,0,0,0,0-0.1c0,0,0,0,0,0c0,0-0.1,0-0.1,0
			c0,0,0,0-0.1,0c0,0-0.1,0-0.1,0.1c0,0-0.1,0.1-0.1,0.1c0,0,0,0,0,0c0,0,0,0,0,0c0,0,0,0,0.1,0c0,0,0,0,0,0c0,0,0,0,0.1,0
			c0,0,0,0,0,0c0,0,0,0,0.1,0c0,0,0,0,0,0c0,0,0,0,0.1,0c0,0,0,0,0,0c0,0,0,0,0,0c0,0,0,0,0,0c0,0,0,0,0,0c0,0,0,0,0,0
			c0,0,0,0,0,0.1c0,0,0,0,0,0c0,0,0,0,0,0.1c0,0,0-0.1,0-0.1c0,0,0-0.1,0-0.1c0,0,0,0,0-0.1c0,0,0,0-0.1,0c0,0-0.1,0-0.1,0
			c0,0,0,0-0.1,0c0,0-0.1,0-0.1,0.1c0,0,0,0,0,0C104,22.6,104,22.6,104,22.7L104,22.7z"/>
	</g>
</g>
<g class="st23">
	<g>
		<path class="st1" d="M82,21.7c-0.4-0.5-0.4-1.1,0.1-1.6c0.4-0.4,1.1-0.5,1.6-0.2c0.5,0.4,0.7,1.1,0.4,1.6c-0.2,0.6-0.8,1-1.4,1.2
			C82.1,23,81.4,23,81,22.4c-0.1-0.2-0.5,0-0.4,0.2c0.9,1.5,3.1,0.5,3.7-0.7c0.4-0.7,0.3-1.6-0.4-2.2c-0.6-0.5-1.5-0.5-2.1,0
			c-0.3,0.2-0.6,0.6-0.6,1c-0.1,0.5,0.1,0.9,0.4,1.3C81.9,22.2,82.2,21.9,82,21.7L82,21.7z"/>
	</g>
</g>
<g class="st23">
	<g>
		<path class="st1" d="M93.8,20.8c0,0.5,0.2,1,0.7,1.3c0.3,0.2,0.7,0.4,1.2,0.3c0.4,0,0.8-0.2,1.1-0.5c0.3-0.3,0.4-0.8,0.3-1.2
			c-0.2-0.8-1-1.2-1.8-1.2c-0.8,0-1.7,0.4-2.2,1c-0.3,0.3-0.5,0.7-0.5,1.2c0,0.5,0.4,1,0.7,1.4c0.2,0.2,0.5-0.1,0.3-0.3
			c-0.3-0.3-0.5-0.6-0.6-1c0-0.3,0-0.6,0.2-0.8c0.4-0.5,1.1-0.9,1.7-1c0.6-0.1,1.3,0,1.6,0.5c0.2,0.3,0.2,0.7,0.1,1
			c-0.1,0.3-0.4,0.4-0.6,0.5c-0.3,0.1-0.7,0.1-1-0.1c-0.4-0.2-0.6-0.6-0.6-1C94.2,20.5,93.8,20.5,93.8,20.8L93.8,20.8z"/>
	</g>
</g>
<g>
	<g>
		<path class="st1" d="M87,69c-0.1,0-0.3-0.1-0.4-0.1c0,0-0.1,0-0.1,0c0,0,0,0,0,0c0,0,0.1,0,0,0c0,0-0.1,0-0.1-0.1c0,0,0,0-0.1,0
			c0,0,0,0,0,0c0,0,0,0,0,0c0,0,0,0,0,0c0,0,0,0,0,0c0,0,0,0.1,0,0c0,0,0,0,0,0c0,0,0,0,0,0c0,0,0,0,0,0c0,0,0,0,0,0c0,0,0-0.1,0,0
			c0,0,0-0.1,0-0.1c0,0,0,0.1,0,0c0,0,0,0,0,0c0,0,0,0,0-0.1c0,0,0,0,0-0.1c0,0,0,0,0,0c0,0,0,0,0,0c0,0,0-0.1,0.1-0.1c0,0,0,0,0,0
			c0,0,0,0,0,0c0,0,0,0,0,0c0,0,0.1-0.1,0.1-0.1c0.1-0.1,0.1-0.1,0.2-0.2c0,0,0.1-0.1,0,0c0,0,0,0,0.1,0c0,0,0.1-0.1,0.1-0.1
			c0.1-0.1,0.2-0.1,0.3-0.2c0,0,0.1,0,0.1-0.1c0,0,0,0,0,0c0,0,0,0,0,0c0,0,0.1,0,0.1,0c0.1,0,0.2-0.1,0.3-0.1c0,0,0.1,0,0.1,0
			c0,0,0.1,0,0,0c0,0,0,0,0.1,0c0,0,0.1,0,0.1,0c0,0,0.1,0,0.1,0c0,0-0.1,0,0,0c0,0,0,0,0,0c0,0,0,0,0.1,0c0,0,0,0,0.1,0
			c0,0,0,0,0,0c0,0-0.1,0,0,0c0,0,0.1,0,0.1,0.1c0,0,0,0,0,0c0,0,0,0,0,0c0,0,0,0,0,0c0,0,0,0,0,0c0,0,0-0.1,0,0c0,0,0,0,0,0.1
			c0,0,0,0,0,0.1c0,0,0-0.1,0,0c0,0,0,0,0,0c0,0,0,0.1,0,0.1c0,0,0-0.1,0,0c0,0,0,0,0,0c0,0,0,0.1,0,0.1c0,0.1,0,0.1,0,0.2
			c0,0,0,0,0,0c0,0,0-0.1,0,0c0,0,0,0.1,0,0.1c0,0.2-0.1,0.3-0.1,0.5c0,0.1-0.1,0.2-0.1,0.3c0,0.1,0,0.2,0.1,0.3
			c0.1,0,0.2,0,0.3-0.1c0.1-0.3,0.3-0.7,0.3-1c0-0.2,0-0.5-0.1-0.7c-0.2-0.4-0.7-0.4-1.1-0.4c-0.4,0.1-0.9,0.3-1.2,0.5
			c-0.3,0.2-0.7,0.6-0.7,1c0,0.5,0.5,0.7,0.9,0.8c0.1,0,0.2,0,0.2,0c0.1,0,0.2,0,0.3-0.1C87.2,69.2,87.1,69,87,69L87,69z"/>
	</g>
</g>
<g>
	<g>
		<path class="st1" d="M86.2,69.9c-0.7-0.2-1.2-0.6-1.4-1.3c-0.2-0.6,0-1.2,0.4-1.6c0.3-0.3,0.7-0.4,1.1-0.4c0.3,0,0.3-0.4,0-0.4
			c-0.8,0-1.6,0.4-1.9,1.2c-0.3,0.7-0.1,1.6,0.4,2.2c0.3,0.4,0.8,0.6,1.2,0.7C86.3,70.3,86.4,69.9,86.2,69.9L86.2,69.9z"/>
	</g>
</g>
<g class="st23">
	<g>
		<path class="st2" d="M35.3,106.7c0.5,0,0.5-0.8,0-0.8C34.7,105.9,34.7,106.7,35.3,106.7L35.3,106.7z"/>
	</g>
</g>
<g class="st23">
	<g>
		<path class="st2" d="M52.4,90.1c0.1,0,0.1,0,0.2,0c0.1,0,0.1,0,0.2,0c0.1,0,0.1,0,0.1-0.1c0,0,0.1-0.1,0.1-0.1c0-0.1,0-0.1,0-0.2
			c0,0,0-0.1,0-0.1c0-0.1-0.1-0.1-0.1-0.2c0,0-0.1,0-0.1-0.1c-0.1,0-0.1-0.1-0.2-0.1c-0.1,0-0.1,0-0.2,0c-0.1,0-0.1,0-0.2,0
			c-0.1,0-0.1,0-0.1,0.1c0,0-0.1,0.1-0.1,0.1c0,0.1,0,0.1,0,0.2c0,0,0,0.1,0,0.1c0,0.1,0.1,0.1,0.1,0.2c0,0,0.1,0,0.1,0.1
			C52.2,90.1,52.3,90.1,52.4,90.1L52.4,90.1z"/>
	</g>
</g>
<g class="st23">
	<g>
		<path class="st2" d="M68.9,108.3c0,0.1,0,0.1,0,0.2c0,0.1,0,0.1,0,0.2c0,0.1,0,0.1,0.1,0.1c0,0,0.1,0.1,0.1,0.1c0.1,0,0.1,0,0.2,0
			c0,0,0.1,0,0.1,0c0.1,0,0.1-0.1,0.2-0.1c0,0,0-0.1,0.1-0.1c0-0.1,0.1-0.1,0.1-0.2c0-0.1,0-0.1,0-0.2c0-0.1,0-0.1,0-0.2
			c0-0.1,0-0.1-0.1-0.1c0,0-0.1-0.1-0.1-0.1c-0.1,0-0.1,0-0.2,0c0,0-0.1,0-0.1,0c-0.1,0-0.1,0.1-0.2,0.1c0,0,0,0.1-0.1,0.1
			C68.9,108.2,68.9,108.3,68.9,108.3L68.9,108.3z"/>
	</g>
</g>
<g class="st23">
	<g>
		<path class="st2" d="M87.5,95.9c0.5,0,0.5-0.8,0-0.8C86.9,95.1,86.9,95.9,87.5,95.9L87.5,95.9z"/>
	</g>
</g>
<g class="st23">
	<g>
		<path class="st2" d="M99.3,110.2C99.4,110.2,99.4,110.2,99.3,110.2c0.1,0.1,0.1,0.1,0.2,0.2c0,0,0.1,0.1,0.1,0.1
			c0.1,0,0.1,0,0.2,0c0.1,0,0.1,0,0.2,0c0.1,0,0.1,0,0.1-0.1c0,0,0-0.1,0.1-0.1c0-0.1,0.1-0.1,0.1-0.2c0,0,0-0.1,0-0.1
			c0-0.1-0.1-0.1-0.1-0.2c-0.1-0.1-0.1-0.1-0.2-0.2c0,0,0,0,0,0c0,0-0.1-0.1-0.1-0.1c-0.1,0-0.1,0-0.2,0c-0.1,0-0.1,0-0.2,0
			c-0.1,0-0.1,0-0.1,0.1c0,0,0,0.1-0.1,0.1c0,0.1-0.1,0.1-0.1,0.2c0,0,0,0.1,0,0.1C99.3,110.1,99.3,110.1,99.3,110.2L99.3,110.2z"/>
	</g>
</g>
<g class="st23">
	<g>
		<path class="st2" d="M49.3,106.4c1.6,0,1.6-2.5,0-2.5C47.7,103.9,47.7,106.4,49.3,106.4L49.3,106.4z"/>
	</g>
</g>
<g class="st23">
	<g>
		<path class="st2" d="M67.3,84.2c1.6,0,1.6-2.5,0-2.5C65.7,81.7,65.7,84.2,67.3,84.2L67.3,84.2z"/>
	</g>
</g>
<g class="st23">
	<g>
		<path class="st2" d="M89.1,110.6c0,0,0.1,0.1,0.1,0.1c0,0,0,0,0,0c0.1,0.1,0.3,0.2,0.4,0.3c0.2,0.1,0.3,0.1,0.5,0.1
			c0.2,0,0.3,0,0.5-0.1c0.2-0.1,0.3-0.1,0.4-0.3c0.1-0.1,0.1-0.2,0.2-0.3c0.1-0.2,0.2-0.4,0.2-0.6c0-0.1,0-0.2,0-0.3
			c-0.1-0.2-0.2-0.4-0.3-0.6c0,0-0.1-0.1-0.1-0.1c0,0,0,0,0,0c-0.1-0.1-0.3-0.2-0.4-0.3c-0.2-0.1-0.3-0.1-0.5-0.1
			c-0.2,0-0.3,0-0.5,0.1c-0.2,0.1-0.3,0.1-0.4,0.3c-0.1,0.1-0.1,0.2-0.2,0.3c-0.1,0.2-0.2,0.4-0.2,0.6c0,0.1,0,0.2,0,0.3
			C88.8,110.3,88.9,110.4,89.1,110.6L89.1,110.6z"/>
	</g>
</g>
<g class="st23">
	<g>
		<path class="st2" d="M24,105c0,0.1,0,0.1,0,0.2c0,0.2,0,0.3,0.1,0.5c0.1,0.2,0.1,0.3,0.3,0.4c0.1,0.1,0.3,0.2,0.4,0.3
			c0.2,0.1,0.3,0.1,0.5,0.1c0.1,0,0.2,0,0.3,0c0.2-0.1,0.4-0.2,0.6-0.3c0.1-0.1,0.1-0.2,0.2-0.3c0.1-0.2,0.2-0.4,0.2-0.6
			c0-0.1,0-0.1,0-0.2c0-0.2,0-0.3-0.1-0.5c-0.1-0.2-0.1-0.3-0.3-0.4c-0.1-0.1-0.3-0.2-0.4-0.3c-0.2-0.1-0.3-0.1-0.5-0.1
			c-0.1,0-0.2,0-0.3,0c-0.2,0.1-0.4,0.2-0.6,0.3c-0.1,0.1-0.1,0.2-0.2,0.3C24.1,104.5,24,104.7,24,105L24,105z"/>
	</g>
</g>
<g class="st23">
	<g>
		<path class="st2" d="M62.3,96.2c0.3-0.5,0.7-0.7,1.2-0.5c0.4,0.2,0.7,0.7,0.6,1.2c-0.1,0.9-1,1.3-1.8,1c-0.7-0.2-1.3-0.9-1.4-1.6
			c-0.2-1,0.5-1.9,1.3-2.5c0.9-0.7,2.1-0.8,3.1-0.2c0.9,0.5,1.6,1.5,1.8,2.5c0.4,1.8-0.5,3.8-2.4,4.3c-1.9,0.5-3.9-0.6-4.7-2.3
			c-0.1-0.1-0.2,0-0.2,0.1c0.8,1.8,2.9,2.9,4.8,2.4c2.2-0.5,3.2-3,2.5-5c-0.4-1.1-1.2-2-2.3-2.5c-1.2-0.4-2.5,0-3.4,0.9
			c-0.7,0.7-1.1,1.7-0.7,2.7c0.3,0.7,1,1.4,1.8,1.5c1,0.1,2-0.7,1.7-1.8c-0.1-0.5-0.5-0.9-1-1c-0.5-0.1-1,0.2-1.3,0.7
			C62.1,96.2,62.2,96.3,62.3,96.2L62.3,96.2z"/>
	</g>
</g>
<g class="st24">
	<g>
		<path class="st2" d="M94.2,102.4c0.3,0.1,0.5,0.1,0.8,0.3c0,0,0,0,0,0c0,0,0,0,0,0c0,0,0,0,0,0c0,0,0,0,0,0c0,0,0,0,0,0
			c0,0,0,0,0,0c0,0,0,0,0,0c0,0,0,0,0,0c0,0,0,0,0,0c0,0,0,0,0,0c0,0,0,0,0,0c0,0,0,0-0.1,0c0,0-0.1,0-0.1,0c-0.2,0-0.3,0.1-0.5,0.1
			c-0.4,0-0.8,0-1-0.2c-0.1-0.1-0.2-0.2-0.1-0.3c0,0,0,0,0,0c0,0,0,0,0-0.1c0,0,0-0.1,0.1-0.1c0.1-0.1,0.1-0.2,0.2-0.3
			c0.2-0.2,0.5-0.5,0.8-0.7c0.2-0.1,0.4-0.2,0.6-0.3c0.4,0,0.7,0.1,0.9,0.4c0.3,0.3,0.4,0.8,0.4,1.2c0,0.4,0,0.9-0.2,1.2
			c-0.2,0.4-0.5,0.6-0.9,0.7c-0.6,0.1-1.3-0.2-1.8-0.5c-0.2-0.1-0.4-0.2-0.6-0.4c-0.1-0.1-0.2,0.1-0.1,0.2c0.6,0.4,1.4,0.9,2.2,0.9
			c0.5,0,1-0.2,1.3-0.6c0.3-0.4,0.4-0.9,0.4-1.3c0-0.5-0.1-1-0.3-1.4c-0.2-0.4-0.6-0.6-1-0.7c-0.6,0-1.1,0.4-1.6,0.8
			c-0.3,0.3-0.8,0.7-0.5,1.2c0.2,0.3,0.7,0.4,1.1,0.4c0.2,0,0.4,0,0.6,0c0.2,0,0.3-0.1,0.4-0.2c0.1-0.1,0.2-0.2,0.1-0.3
			c-0.1-0.2-0.3-0.2-0.5-0.3c-0.2-0.1-0.3-0.1-0.5-0.1C94.1,102.1,94.1,102.3,94.2,102.4L94.2,102.4z"/>
	</g>
</g>
<g class="st25">
	<g>
		<path class="st2" d="M42.6,111c0.2,0,0.5-0.1,0.7,0c0.3,0.1,0.1,0.5,0,0.7c-0.1,0.2-0.2,0.4-0.5,0.4c-0.2,0-0.5-0.1-0.7-0.2
			c-0.2-0.2-0.4-0.4-0.4-0.6c-0.1-0.3,0.1-0.6,0.3-0.9c0.3-0.3,0.6-0.5,1-0.5c0.7,0,1.4,0.4,1.8,1c0.4,0.5,0.7,1.3,0.4,1.9
			c-0.4,0.9-1.7,0.9-2.5,0.8c-0.2,0-0.4,0-0.6-0.1c-0.1,0-0.1,0.2,0,0.2c0.7,0.1,1.5,0.1,2.2-0.1c0.4-0.1,0.8-0.3,1.1-0.7
			c0.4-0.7,0.1-1.6-0.3-2.2c-0.5-0.6-1.2-1.2-2-1.1c-0.5,0.1-0.9,0.3-1.2,0.7c-0.4,0.6-0.2,1.2,0.3,1.6c0.4,0.3,1.1,0.4,1.4-0.1
			c0.1-0.2,0.1-0.4,0.2-0.6c0-0.1,0-0.3,0-0.4c-0.1-0.2-0.4-0.2-0.6-0.2c-0.2,0-0.3,0-0.5,0C42.4,110.8,42.4,111,42.6,111L42.6,111z
			"/>
	</g>
</g>
<g class="st24">
	<g>
		<path class="st2" d="M43.2,94.9c0.3,0,0.7,0.1,0.9,0.3c0,0,0,0,0,0.1c0,0,0,0-0.1,0.1c0,0-0.1,0-0.1,0.1c-0.4,0.2-1,0.2-1.4,0
			c-0.6-0.3-0.1-1.2,0.3-1.5c0.7-0.5,1.7-0.1,2.2,0.5c0.6,0.7,0.8,1.7,0.2,2.4c-0.1,0.1-0.2,0.2-0.3,0.3c-0.1,0.1,0,0.2,0.1,0.1
			c0.4-0.4,0.7-0.8,0.7-1.4c0-0.5-0.2-1-0.5-1.4c-0.5-0.7-1.6-1.3-2.5-0.9c-0.4,0.2-0.8,0.6-0.9,1.1c-0.1,0.3,0,0.6,0.2,0.8
			c0.4,0.4,1.2,0.3,1.6,0.1c0.2-0.1,0.4-0.2,0.4-0.4c-0.1-0.3-0.5-0.4-0.7-0.4c-0.1,0-0.2-0.1-0.4-0.1
			C43.1,94.7,43.1,94.9,43.2,94.9L43.2,94.9z"/>
	</g>
</g>
<g class="st26">
	<g>
		<path class="st2" d="M80.4,86.2c0.2,0.3,0.5,0.6,0.8,0.7c0.2,0,0.5,0,0.7-0.2c0.2-0.2,0.2-0.4,0.2-0.7c-0.1-0.3-0.3-0.5-0.6-0.7
			c-0.6-0.4-1.7-0.7-2.2,0c-0.4,0.5-0.4,1.3-0.2,1.9c0.2,0.7,0.7,1.3,1.4,1.5c1,0.3,1.9-0.4,2.5-1.1c0.1-0.1,0.2-0.3,0.4-0.4
			c0.1-0.1-0.1-0.3-0.1-0.1c-0.6,0.7-1.4,1.5-2.4,1.5c-0.6,0-1.2-0.5-1.4-1.1c-0.3-0.5-0.4-1.2-0.2-1.8c0.1-0.2,0.2-0.4,0.5-0.5
			c0.3-0.1,0.6-0.1,0.9,0c0.2,0.1,0.5,0.2,0.7,0.3c0.2,0.1,0.5,0.3,0.5,0.6c0,0.2-0.1,0.4-0.3,0.5c-0.2,0.1-0.5,0.1-0.7-0.1
			c-0.2-0.1-0.3-0.3-0.4-0.4C80.5,86,80.3,86.1,80.4,86.2L80.4,86.2z"/>
	</g>
</g>
<g class="st23">
	<g>
		<path class="st2" d="M83,113.4c0.1,0.1,0.3,0.1,0.4,0c0.1,0,0.1-0.1,0.2-0.1c0.1,0,0.2,0.1,0.2,0.2c0,0,0-0.1,0-0.1
			c-0.3,0.3-0.7,0.4-1.1,0.3c-0.3-0.1-0.6-0.4-0.6-0.7c0-0.4,0.4-0.8,0.7-0.9c0.3-0.1,0.6-0.2,0.9-0.2c1,0.1,1.5,1.6,0.9,2.4
			c-0.4,0.6-1.2,0.5-1.9,0.3c-0.1,0-0.2,0.2-0.1,0.2c0.6,0.2,1.5,0.3,2-0.3c0.4-0.4,0.5-1.1,0.3-1.6c-0.2-0.6-0.6-1.1-1.2-1.2
			c-0.4-0.1-0.7,0-1.1,0.1c-0.4,0.2-0.9,0.5-0.9,1c0,0.4,0.3,0.8,0.6,1c0.5,0.2,1,0,1.4-0.3c0,0,0-0.1,0-0.1
			c-0.1-0.2-0.2-0.3-0.4-0.3c-0.1,0-0.3,0.1-0.4,0.1C83,113.1,82.9,113.3,83,113.4L83,113.4z"/>
	</g>
</g>
<g class="st23">
	<g>
		<path class="st2" d="M63.9,88.6c0.3,0,0.3-0.4,0-0.4C63.6,88.2,63.6,88.6,63.9,88.6L63.9,88.6z"/>
	</g>
</g>
<g class="st23">
	<g>
		<path class="st2" d="M76.3,92.3c0.3,0,0.3-0.4,0-0.4C76,91.9,76,92.3,76.3,92.3L76.3,92.3z"/>
	</g>
</g>
<g class="st23">
	<g>
		<path class="st2" d="M77,103.1c0.3,0,0.3-0.4,0-0.4C76.7,102.7,76.7,103.1,77,103.1L77,103.1z"/>
	</g>
</g>
<g class="st23">
	<g>
		<path class="st2" d="M93.5,98c0,0,0.1-0.1,0.1-0.1c0,0,0,0,0,0c0,0,0,0,0-0.1c0,0,0-0.1,0-0.1c0,0,0-0.1,0-0.1c0,0,0,0,0-0.1
			c0,0,0,0,0,0c0,0-0.1,0-0.1,0c0,0,0,0-0.1,0c0,0-0.1,0-0.1,0.1c0,0-0.1,0.1-0.1,0.1c0,0,0,0,0,0c0,0,0,0,0,0.1c0,0,0,0.1,0,0.1
			c0,0,0,0.1,0,0.1c0,0,0,0,0,0.1c0,0,0,0,0,0c0,0,0.1,0,0.1,0C93.4,98.1,93.4,98.1,93.5,98C93.5,98,93.5,98,93.5,98L93.5,98z"/>
	</g>
</g>
<g class="st23">
	<g>
		<path class="st2" d="M58.8,107.5c0.1,0,0.1,0,0.2,0c0,0,0.1,0,0.1,0c0,0,0,0,0.1,0c0,0,0,0,0-0.1c0,0,0-0.1,0-0.1c0,0,0,0,0-0.1
			c0,0,0-0.1-0.1-0.1c0,0,0,0,0,0c0,0-0.1,0-0.1,0c-0.1,0-0.1,0-0.2,0c0,0-0.1,0-0.1,0c0,0,0,0-0.1,0c0,0,0,0,0,0.1c0,0,0,0.1,0,0.1
			c0,0,0,0,0,0.1c0,0,0,0.1,0.1,0.1c0,0,0,0,0,0C58.8,107.5,58.8,107.5,58.8,107.5L58.8,107.5z"/>
	</g>
</g>
<g class="st23">
	<g>
		<path class="st2" d="M30.1,98.8c0,0,0.1,0.1,0.1,0.1c0,0,0,0,0,0c0,0,0,0,0.1,0c0,0,0.1,0,0.1,0c0,0,0.1,0,0.1,0c0,0,0,0,0.1,0
			c0,0,0,0,0,0c0,0,0-0.1,0-0.1c0,0,0,0,0-0.1c0,0,0-0.1-0.1-0.1c0,0-0.1-0.1-0.1-0.1c0,0,0,0,0,0c0,0,0,0-0.1,0c0,0-0.1,0-0.1,0
			c0,0-0.1,0-0.1,0c0,0,0,0-0.1,0c0,0,0,0,0,0c0,0,0,0.1,0,0.1C30,98.7,30,98.7,30.1,98.8C30,98.8,30,98.8,30.1,98.8L30.1,98.8z"/>
	</g>
</g>
<g class="st23">
	<g>
		<path class="st2" d="M30.6,111.6c0.3,0,0.3-0.4,0-0.4C30.3,111.2,30.3,111.6,30.6,111.6L30.6,111.6z"/>
	</g>
</g>
<g class="st23">
	<g>
		<path class="st2" d="M96.6,116.2c0.3,0,0.3-0.4,0-0.4C96.3,115.8,96.3,116.2,96.6,116.2L96.6,116.2z"/>
	</g>
</g>
<g class="st23">
	<g>
		<path class="st2" d="M62.9,114c0.3,0,0.3-0.4,0-0.4C62.6,113.6,62.6,114,62.9,114L62.9,114z"/>
	</g>
</g>
<g class="st23">
	<g>
		<path class="st2" d="M59.5,65.9C59.5,65.9,59.5,65.9,59.5,65.9C59.5,65.9,59.5,65.9,59.5,65.9C59.5,65.9,59.5,65.9,59.5,65.9
			C59.5,65.9,59.5,65.9,59.5,65.9C59.5,65.9,59.5,65.9,59.5,65.9C59.5,65.9,59.5,65.9,59.5,65.9C59.5,65.9,59.5,65.9,59.5,65.9
			c0.1,0.1,0.1,0.1,0.1,0.1c0,0,0.1,0,0.1,0c0,0,0,0,0,0c0,0,0.1,0,0.1,0c0.1,0,0.1,0,0.1-0.1c0,0,0.1-0.1,0.1-0.1
			c0-0.1,0-0.1-0.1-0.1c0,0-0.1-0.1-0.1-0.1c0,0,0,0,0,0c0,0,0,0,0.1,0c0,0,0,0,0,0c0,0,0,0,0.1,0c0,0,0,0,0,0c0,0,0,0,0,0
			c0,0-0.1-0.1-0.1-0.1c0,0,0,0-0.1,0c0,0-0.1,0-0.1,0c0,0,0,0,0,0c0,0-0.1,0-0.1,0c-0.1,0-0.1,0-0.1,0.1c0,0-0.1,0.1-0.1,0.1
			c0,0.1,0,0.1,0.1,0.1C59.4,65.9,59.5,65.9,59.5,65.9L59.5,65.9z"/>
	</g>
</g>
<g class="st23">
	<g>
		<path class="st2" d="M68,66.8c0,0,0.1,0.1,0.1,0.1c0,0,0,0,0,0c0,0,0,0,0.1,0c0,0,0.1,0,0.1,0c0,0,0.1,0,0.1,0c0,0,0,0,0.1,0
			c0,0,0,0,0,0c0,0,0-0.1,0-0.1c0,0,0,0,0-0.1c0,0,0-0.1-0.1-0.1c0,0-0.1-0.1-0.1-0.1c0,0,0,0,0,0c0,0,0,0-0.1,0c0,0-0.1,0-0.1,0
			c0,0-0.1,0-0.1,0c0,0,0,0-0.1,0c0,0,0,0,0,0c0,0,0,0.1,0,0.1C67.9,66.7,67.9,66.7,68,66.8C68,66.8,68,66.8,68,66.8L68,66.8z"/>
	</g>
</g>
<g class="st23">
	<g>
		<path class="st2" d="M107.8,105.7c0.3,0,0.3-0.4,0-0.4C107.5,105.3,107.5,105.7,107.8,105.7L107.8,105.7z"/>
	</g>
</g>
<g class="st23">
	<g>
		<path class="st2" d="M101,96.4c0.3,0,0.3-0.4,0-0.4C100.7,95.9,100.7,96.4,101,96.4L101,96.4z"/>
	</g>
</g>
<g class="st23">
	<g>
		<path class="st2" d="M53.6,97.8c0.5,0,0.5-0.8,0-0.8C53,96.9,53,97.8,53.6,97.8L53.6,97.8z"/>
	</g>
</g>
<g class="st23">
	<g>
		<path class="st2" d="M62.7,64.9c0.5,0,0.5-0.8,0-0.8C62.2,64.1,62.2,64.9,62.7,64.9L62.7,64.9z"/>
	</g>
</g>
<g class="st23">
	<g>
		<path class="st2" d="M82.2,99c0.5,0,0.5-0.8,0-0.8C81.7,98.1,81.7,99,82.2,99L82.2,99z"/>
	</g>
</g>
<g class="st23">
	<g>
		<path class="st2" d="M89,87.9c0.5,0,0.5-0.8,0-0.8C88.4,87.1,88.4,87.9,89,87.9L89,87.9z"/>
	</g>
</g>
<g class="st23">
	<g>
		<path class="st2" d="M39.9,101.7c0.5,0,0.5-0.8,0-0.8C39.3,100.8,39.3,101.7,39.9,101.7L39.9,101.7z"/>
	</g>
</g>
<g>
	<g>
		<path class="st27" d="M78.6,73.3c-0.1-1-0.4-2-0.6-3.1c-0.1,0.2-0.2,0.4-0.4,0.5c0.2,0.9,0.4,1.9,0.5,2.8c0.1,0.5,0.1,1,0.1,1.4
			c0.2,0,0.3,0,0.5,0C78.8,74.5,78.7,73.9,78.6,73.3z"/>
		<path class="st27" d="M76.8,67.9c0.2,0.1,0.4,0.2,0.6,0.3c-0.3-0.9-0.5-1.8-0.8-2.6c-0.1-0.3-0.6-0.2-0.5,0.1
			C76.4,66.4,76.6,67.1,76.8,67.9z"/>
		<path class="st27" d="M102.3,36.1c-2-2.2-4.9-3.4-7.9-3.7c-3.6-0.4-7,0.8-10.4,1.9c-2.7,1-5.6,1.9-7.8,3.9c-2.3,2.1-3.6,5.1-4,8.2
			c-0.5,3.9,0.4,7.8,1.5,11.6c0.1,0.1,0.3,0.2,0.5,0.3c0.1,0,0.1,0.1,0.2,0.1c-1.8-6.1-3.3-13.6,1.3-18.9c1.9-2.2,4.6-3.3,7.3-4.2
			c3.1-1.1,6.2-2.3,9.4-2.4c3.5-0.1,7.1,1.1,9.5,3.6C102.2,36.7,102.6,36.4,102.3,36.1z"/>
		<path class="st27" d="M72.2,47.8c-2.6,0.4-4.8-2-3.7-4.5c0.8-1.8,3.8-3.7,5.7-2.3c0.3,0.2,0.5-0.3,0.3-0.4
			c-1.1-0.8-2.7-0.5-3.9,0.1c-1.2,0.6-2.2,1.6-2.7,2.9c-0.9,2.9,1.6,5.2,4.5,4.8C72.7,48.2,72.6,47.7,72.2,47.8"/>
		<path class="st27" d="M99.3,34.1c1.7-1.4,4.6-2.6,6.3-0.7c1.6,1.7,1.5,4.8-0.9,5.8c-0.3,0.1,0,0.6,0.3,0.4
			c2.5-1.1,2.8-4.4,1.1-6.4c-1.9-2.4-5.2-1.2-7.2,0.5C98.7,34,99.1,34.3,99.3,34.1"/>
		<path class="st27" d="M87.1,47.5c0-0.2,0-0.3-0.2-0.2c-0.1,0-0.1,0.1-0.2,0.1c-0.1,0.1-0.2,0.2-0.3,0.3c-0.3,0.3-0.6,0.7-0.8,1
			c-0.3,0.5-0.5,1.1-0.3,1.7c0.3,0.7,1.4,0.9,2.1,0.8c1.2-0.2,2-1.1,3.2-1.4c1.2-0.3,3.9,0.5,3.7-1.6c-0.1-1.6-2.3-2-3.6-2.2
			c-0.2,0-0.2,0.2,0,0.3c1.2,0.1,3.6,0.6,3.3,2.2c-0.3,1.6-2.5,0.8-3.6,1.1C89.1,50,87,52,85.7,50.6c-0.9-1,0.7-2.6,1.5-3.1
			c0.1-0.1,0.1-0.2,0-0.2c-0.1-0.1-0.2,0-0.3,0.1C86.8,47.4,87,47.6,87.1,47.5"/>
		<path class="st27" d="M92.1,49.8c0.4,0.6,0.8,1.4,0.8,2.2c0,0.5-0.3,1.1-0.9,1.1c-0.6,0.1-0.8-0.3-1.2-0.7
			c-0.1-0.1-0.3,0.1-0.2,0.2c0.3,0.3,0.5,0.7,1,0.8c0.5,0.1,1-0.2,1.3-0.6c0.6-0.9,0-2.4-0.6-3.2C92.3,49.6,92,49.7,92.1,49.8"/>
		<path class="st27" d="M116.8,76.3c-0.5,0.3-1.1,0.4-1.6,0.5c-0.5,0.1-1,0.3-1.5,0.3c-1.6,0.1-1.2-2.4-0.5-3.1
			c0.7-0.6,1.7-0.8,2.6-0.7c0.5,0.1,1.1,0.2,1.5,0.5C118.2,74.6,117.6,75.8,116.8,76.3c-0.1,0.1,0,0.3,0.1,0.2c1-0.7,1.7-2,0.5-2.9
			c-1-0.8-2.8-0.8-3.9-0.1c-1.2,0.7-1.6,2.5-0.9,3.7c0.3,0.5,0.6,0.4,1,0.3c1.1-0.3,2.3-0.4,3.3-0.9C117.1,76.5,117,76.3,116.8,76.3
			"/>
		<path class="st27" d="M115.3,74.9c0.8-0.2,1.8-0.2,2.5,0.2c0.1,0.1,0.3-0.1,0.1-0.2c-0.8-0.5-1.8-0.5-2.7-0.3
			C115,74.7,115.1,74.9,115.3,74.9"/>
		<path class="st27" d="M109.9,56.6c0.4,0.1,0.7-0.1,1-0.2c0.9-0.2,2,0.1,2.7,0.7c0.6,0.6,1.1,2-0.1,2.3c-1,0.3-2.1-0.3-2.9-0.8
			c-0.1-0.1-0.3,0.1-0.1,0.2c0.9,0.5,2,1.1,3.1,0.8c0.6-0.2,1-0.7,0.9-1.3c-0.1-0.9-0.8-1.6-1.6-1.9c-0.5-0.2-1.1-0.3-1.6-0.3
			c-0.5,0-1,0.3-1.4,0.3C109.8,56.3,109.8,56.6,109.9,56.6"/>
		<path class="st27" d="M112.6,58.3c0.6,0,1.4,0.4,1.3,1.1c0,0.2,0.2,0.2,0.2,0.1c0.2-0.9-0.7-1.4-1.5-1.4
			C112.5,58.1,112.5,58.3,112.6,58.3"/>
		<path class="st28" d="M99.8,38.7c-0.7-2.9-3.6-4.7-6.5-4c-2.9,0.7-4.7,3.6-4,6.5c0.7,2.9,3.6,4.7,6.5,4
			C98.7,44.5,100.5,41.6,99.8,38.7z"/>
		<path class="st28" d="M86.6,42.5c-0.7-2.9-3.6-4.7-6.5-4c-2.9,0.7-4.7,3.6-4,6.5c0.7,2.9,3.6,4.7,6.5,4
			C85.6,48.2,87.3,45.3,86.6,42.5z"/>
		<path class="st27" d="M104.1,35.5c-0.1-0.6-0.8-1-1.4-0.8c-0.6,0.1-1,0.8-0.8,1.4c0.1,0.6,0.8,1,1.4,0.8
			C103.9,36.8,104.3,36.1,104.1,35.5"/>
		<path class="st27" d="M73,44c-0.1-0.6-0.8-1-1.4-0.8c-0.6,0.1-1,0.8-0.8,1.4c0.1,0.6,0.8,1,1.4,0.8C72.8,45.2,73.2,44.6,73,44"/>
		<path class="st27" d="M91.4,45.8c-0.2-0.7-1.4-1-2.7-0.7c-1.3,0.3-2.2,1.1-2,1.9c0.2,0.7,1.4,1,2.7,0.7
			C90.7,47.4,91.6,46.5,91.4,45.8"/>
		<path class="st27" d="M93,41.7c0.5,0.8,1.6,1.1,2.5,0.5c0.8-0.5,1.1-1.6,0.5-2.4c-0.5-0.8-1.6-1.1-2.4-0.5
			C92.7,39.8,92.5,40.9,93,41.7 M95.1,39.6c0.1,0.2,0.1,0.5-0.2,0.7c-0.2,0.1-0.5,0.1-0.7-0.2c-0.1-0.2-0.1-0.5,0.2-0.7
			C94.6,39.3,94.9,39.3,95.1,39.6"/>
		<path class="st27" d="M80.2,45c0.5,0.8,1.6,1.1,2.5,0.5c0.8-0.5,1.1-1.6,0.5-2.4c-0.5-0.8-1.6-1.1-2.5-0.5
			C79.9,43.1,79.7,44.1,80.2,45 M82.3,42.8c0.1,0.2,0.1,0.5-0.2,0.7c-0.2,0.1-0.5,0.1-0.7-0.1c-0.1-0.2-0.1-0.5,0.2-0.7
			C81.8,42.5,82.1,42.6,82.3,42.8"/>
		<path class="st27" d="M90.1,50c0.3,0.6,0.4,1.3,0.5,1.9c0.1,0.8-0.1,2.4-1.3,1.8c-0.9-0.4-1-2-1-2.9c0-0.2-0.3-0.2-0.3,0
			c-0.1,1.1,0.3,3.4,1.9,3.2c1.8-0.2,0.9-3.2,0.4-4.2C90.2,49.7,90,49.8,90.1,50"/>
		<path class="st27" d="M75.4,65.4c-0.2,0-0.4,0-0.5,0c-0.8,0.4-1.4,1-1.8,1.7c-0.4,0.7-0.5,1.6,0.5,1.8c0.2,0,0.2-0.2,0.1-0.2
			c-1.1-0.3-0.4-1.4,0-2C74.2,66.2,74.8,65.7,75.4,65.4z"/>
		<g>
			<path class="st27" d="M76.9,68.1c-1,1.2-4.2,1.3-2.4-0.2c0.1-0.1-0.1-0.3-0.2-0.2c-0.3,0.3-0.7,0.7-0.6,1.1
				c0.1,0.4,0.5,0.6,0.8,0.6c0-0.1,0-0.2,0-0.3"/>
			<g>
				<path class="st27" d="M76.8,68.1c-0.5,0.6-1.4,0.9-2.1,0.9c-0.3,0-0.9,0-0.7-0.5c0.1-0.2,0.5-0.4,0.5-0.6c0-0.6-0.8,0.4-0.8,0.4
					c-0.4,0.7,0.2,1.1,0.8,1.2c0,0,0.1,0,0.1-0.1c0-0.1,0-0.2,0-0.2c0-0.1-0.1-0.1-0.1,0c0,0.2,0,0.2-0.3,0.2
					c-0.5-0.5-0.5-0.9-0.2-1.3c0.1-0.2,0.2-0.2,0.2-0.1c-0.2,0.1-0.4,0.3-0.4,0.5c-0.1,0.2,0.1,0.4,0.3,0.5
					C75,69.4,76.3,68.8,76.8,68.1C77,68.1,76.9,68,76.8,68.1L76.8,68.1z"/>
			</g>
		</g>
		<path class="st27" d="M110.5,58.9c0.1,0,0.3,0,0.4,0.1c0,0,0-0.1,0-0.2c-0.4-1.3-0.8-2.7-1.1-4c-0.1-0.3-0.6-0.2-0.5,0.1
			c0.4,1.3,0.7,2.6,1.1,3.9C110.4,58.9,110.5,58.9,110.5,58.9z"/>
		<path class="st27" d="M101.6,35.9c3.6,3.3,4.9,8.1,6,12.6c0.1,0.3,0.6,0.2,0.5-0.1c-1.2-4.6-2.4-9.5-6.1-12.9
			C101.7,35.4,101.3,35.7,101.6,35.9"/>
		<path class="st27" d="M102,32.3c-1.5-2.6-4.8-3.6-7.6-4.1c-3.1-0.5-6.3-0.3-9.4,0.4c-3.1,0.8-5.9,2.1-8.4,4.1
			c-2.4,1.9-4.4,4.3-3.9,7.5c0,0,0.1,0,0.1,0c0.2,0,0.3,0,0.4,0.1c0,0,0,0,0-0.1c-0.7-3.5,1.9-6,4.5-7.8c2.3-1.6,4.9-2.7,7.7-3.4
			c2.8-0.7,5.7-0.8,8.5-0.4c2.8,0.4,6.1,1.3,7.6,3.9C101.7,32.9,102.2,32.6,102,32.3z"/>
		<path class="st27" d="M75,34.7c1.2-3.3,2.4-6.6,3.7-10c1.1-2.9,2.4-5.8,5.2-7.4c2.3-1.3,5.3-1.6,7.8-0.7c2.6,0.9,4.4,3.2,6.9,4.3
			c2.8,1.2,5.9,1.3,8.9,0.4c0.3-0.1,0.2-0.6-0.1-0.5c-3.2,0.9-6.7,0.6-9.6-0.9c-1.3-0.7-2.3-1.7-3.4-2.5c-1-0.7-2.2-1.3-3.4-1.5
			c-2.4-0.6-4.9-0.3-7.1,0.9c-2.5,1.3-4,3.6-5,6.1c-1.6,3.8-3,7.8-4.4,11.7C74.4,34.8,74.9,35,75,34.7"/>
		<path class="st27" d="M95,28.7L95,28.7c0.2,0,0.3,0,0.4,0.1c0,0,0-0.1,0-0.1c-0.4-2.5-2.8-4.1-5-4.9c-2.6-0.9-5.4-0.9-7.9,0.1
			c-0.3,0.1-0.2,0.6,0.1,0.5c2.3-0.9,4.7-1,7-0.3C91.9,24.7,94.5,26.2,95,28.7C95,28.7,95,28.7,95,28.7z"/>
		<path class="st27" d="M109.1,20.5c-3,2.2-6.2,4.3-10.1,3.3c-2.5-0.6-5.7-1.9-7.7,0.5c0,0,0,0,0,0c0.2,0,0.3,0.1,0.4,0.3
			c2.4-2.7,6.4,0,9.3,0c3.2,0,5.9-1.9,8.3-3.7C109.6,20.8,109.3,20.3,109.1,20.5z"/>
		<path class="st27" d="M108.9,44.2c-0.6-0.8-1.6-1.3-2.6-0.9c0.1,0.1,0.2,0.3,0.1,0.5c0,0,0,0,0,0c1.4-0.4,2.6,1,2.6,2.3
			c0,1.2-0.8,2.2-1.5,3.1c-1.3,1.4-2.8,2.6-4.4,3.7c-0.3,0.2,0,0.6,0.3,0.4c2.2-1.5,4.9-3.3,5.9-5.9
			C109.7,46.3,109.6,45.1,108.9,44.2z"/>
		<path class="st27" d="M83.8,59c-3.1,0.3-6.4,0.2-9.3-1.1c-1.2-0.5-2.4-1.3-3-2.4c-0.7-1.4-0.5-3.1,1-3.8c0.3-0.1,0-0.6-0.3-0.4
			c-2.8,1.4-1.6,4.9,0.5,6.3c3.1,2.2,7.4,2.3,11.1,2C83.8,59.4,83.8,59.2,83.8,59z"/>
		<path class="st27" d="M109.4,44.3c-0.3-0.2-0.5-0.3-0.8-0.5c1.4,1.7,3.5,3.2,3.3,5.6c-0.2,2.4-2.5,4.3-4.4,5.7
			c-0.3,0.2,0,0.6,0.3,0.4c2-1.4,4.2-3.3,4.6-5.7c0.3-1.9-0.7-3.2-1.8-4.5C110.2,45,109.8,44.6,109.4,44.3z"/>
		<path class="st27" d="M85.6,64.6c-2.8,0.4-5.7,0.6-8.5,0.6c-1.8,0-3.6-0.1-5.2-0.8c-4.3-1.8-2.9-6.7-1-10.1c-0.1-0.3-0.1-0.6,0-1
			c-2.2,3.3-4.1,8.6-0.2,11.1c1.6,1,3.7,1.2,5.6,1.3c3.2,0.1,6.3-0.1,9.4-0.6C86.1,65,85.9,64.6,85.6,64.6z"/>
		<path class="st27" d="M91.7,67.2c-0.5,0.2-1,0.5-1.6,0.8c-0.3,0.2,0,0.6,0.3,0.4c0.5-0.3,1-0.5,1.6-0.8
			C92.2,67.5,92,67.1,91.7,67.2"/>
		<path class="st27" d="M89.8,68.2c0.2,2.3,0.6,5.2,2,7.1c1.4,1.8,3.8,1.2,5.7,0.6c2.5-0.8,5.1-1.8,7.3-3.2c0.8-0.5,1.6-1.1,1.9-2
			c0.4-1,0-2.1-0.5-3c-0.1-0.3-0.6,0-0.4,0.3c0.6,1.2,0.9,2.5-0.1,3.5c-0.7,0.7-1.7,1.2-2.6,1.6c-1.8,1-3.8,1.7-5.8,2.3
			c-2,0.6-4.3,1.2-5.5-1c-1-1.9-1.4-4.2-1.6-6.3C90.3,67.8,89.8,67.8,89.8,68.2"/>
		<path class="st27" d="M92.6,68.2c0,2.4,0.6,5.4,3.6,4.9c2-0.3,4.4-1.1,6.1-2.2c1.5-0.9,2-2.2,1.1-3.8c-0.2-0.3-0.6,0-0.4,0.3
			c1.1,2.1-0.9,3.2-2.6,3.9c-1.4,0.6-3,1.1-4.5,1.3c-2.5,0.4-2.8-2.5-2.8-4.4C93.1,67.9,92.6,67.9,92.6,68.2"/>
		<path class="st27" d="M108.6,67.8C108.6,67.8,108.6,67.8,108.6,67.8c-0.3,0-0.5,0-0.6,0c-0.6,0.3-1.3,0.8-1.4,1.5
			c0,0.3,0.5,0.3,0.5,0c0.1-0.7,1-1,1.5-1.3c0.1,0,0.1-0.1,0.1-0.2C108.7,67.8,108.7,67.8,108.6,67.8z"/>
		<path class="st27" d="M91.7,75c-3.9,0.1-7.8,0.2-11.7,0.2c0.6,0.1,1.1,0.3,1.7,0.5c3.4,0,6.7-0.1,10.1-0.2
			C92.1,75.5,92.1,75,91.7,75z"/>
		<path class="st27" d="M90.4,68.5c-3.7,2.4-8.1,3.3-12.5,2.5c0,0.2,0.1,0.3,0.1,0.5c0,0,0,0,0,0c4.4,0.8,8.9-0.1,12.7-2.6
			C90.9,68.7,90.7,68.3,90.4,68.5z"/>
		<path class="st27" d="M109,76.7c1.4-0.9,2.7-1.8,4.1-2.6c2.1-1.4,5.3-3.9,3.5-6.6c-0.2-0.3-0.6,0-0.4,0.3c2.1,3-2.9,5.6-4.9,6.9
			c-1,0.6-2,1.3-3,1.9C108.5,76.6,108.8,76.7,109,76.7z"/>
		<path class="st27" d="M104,75.4c3.6-1.7,7.5-3.4,9.1-7.3c0.1-0.3-0.4-0.4-0.5-0.1c-1.5,3.7-5.4,5.4-8.8,7
			C103.5,75.1,103.7,75.5,104,75.4"/>
		<path class="st27" d="M99.4,75.2c0.3,0.3,0.4,0.7,0.5,1.2c0,0.3,0.5,0.2,0.5-0.1c-0.1-0.5-0.3-1-0.6-1.4
			C99.6,74.6,99.2,75,99.4,75.2"/>
		<path class="st27" d="M95.6,76.6C95.7,76.6,95.7,76.6,95.6,76.6c0.1,0,0.2,0,0.3,0c0.1,0,0.2,0,0.2,0c0,0,0,0,0,0
			c0.1,0,0.2-0.1,0.3-0.1c-0.2-0.2-0.3-0.3-0.5-0.4C95.6,76,95.3,76.4,95.6,76.6z"/>
		<path class="st27" d="M102.8,73.5c-0.6,0.7-0.3,1.7,0.5,2c0.3,0.1,0.4-0.4,0.1-0.5c-0.4-0.2-0.6-0.8-0.3-1.2
			C103.4,73.6,103.1,73.2,102.8,73.5"/>
		<path class="st27" d="M87.6,72.8c0.1-0.4,0.6-0.3,0.6,0.1c0,0.5-0.7,0.4-0.8,0c-0.1-0.3-0.6-0.2-0.5,0.1c0.1,0.4,0.5,0.7,1,0.7
			c0.5,0,0.8-0.4,0.8-0.8c0-0.4-0.3-0.8-0.7-0.8c-0.4,0-0.8,0.2-0.9,0.6C87,73,87.5,73.2,87.6,72.8"/>
		<path class="st27" d="M83.4,73.4c-0.1-0.1,0-0.3,0.1-0.3c0.1-0.1,0.2,0.1,0.3,0.2c0.1,0.4-0.5,0.5-0.7,0.3
			c-0.3-0.2-0.6,0.2-0.4,0.4c0.3,0.3,0.9,0.4,1.3,0.1c0.4-0.2,0.5-0.7,0.3-1.1c-0.2-0.4-0.7-0.5-1-0.3c-0.4,0.3-0.5,0.7-0.2,1.1
			C83.2,74,83.6,73.6,83.4,73.4"/>
		<path class="st27" d="M90.3,68.6c1.1,2.4,1,5,2.1,7.4c0.1,0.3,0.6,0,0.4-0.3c-1.1-2.4-1.1-5-2.1-7.4
			C90.6,68.1,90.2,68.3,90.3,68.6"/>
		<path class="st27" d="M105,67.8c0.5,1,0.9,2.1,1,3.3c0,0.3,0.6,0.3,0.5,0c-0.1-1.3-0.5-2.4-1.1-3.6
			C105.3,67.3,104.9,67.5,105,67.8"/>
		<path class="st27" d="M100,66.5c0.3-0.1,0.5-0.2,0.8-0.3c0.3-0.1,0.2-0.6-0.1-0.5c-0.3,0.1-0.5,0.2-0.8,0.3
			C99.5,66.1,99.7,66.6,100,66.5"/>
		<path class="st27" d="M93.1,70.1c0.3-0.1,0.6-0.3,0.8-0.4c0.3-0.1,0-0.6-0.3-0.4c-0.3,0.1-0.6,0.3-0.8,0.4
			C92.6,69.8,92.8,70.2,93.1,70.1"/>
		<polygon class="st29" points="82.2,26.8 81.6,27.5 81.9,28.4 81,28.1 80.2,28.7 80.2,27.7 79.4,27.2 80.4,26.9 80.6,26 81.2,26.8 
					"/>
		<polygon class="st29" points="88.6,25.7 88.4,26.2 88.7,26.6 88.1,26.6 87.8,27 87.6,26.5 87.1,26.3 87.6,26 87.6,25.4 88,25.8 		
			"/>
		<polygon class="st29" points="89.9,17.8 89.5,19.4 90.5,20.6 88.9,20.7 88,22 87.4,20.5 85.9,20.1 87.2,19.1 87.1,17.5 88.4,18.4 
					"/>
		<path class="st27" d="M83.1,73.9c-0.7-0.9-1.4,0.3-2.2-0.2c-0.2-0.1-0.4-0.6-0.7-0.6c-0.6,0-0.4,1.1-1.4,0.5
			c-0.1-0.1-0.3,0.1-0.1,0.2c0.3,0.2,0.5,0.2,0.8,0.1c0.4-0.1,0.6-0.6,1-0.3c0.3,0.2,0.5,0.5,0.8,0.6c0.5,0.1,1.4-0.6,1.7-0.2
			C83,74.1,83.2,74,83.1,73.9"/>
		<path class="st27" d="M84.4,72.9c0.3,0.1,0.5,0,0.7,0.1c0,0,0.1,0.1,0.1,0.1c0.1,0.1,0.2,0.1,0.3,0.1c0.2,0,1-0.7,1.1-0.3
			c0,0.2,0.3,0.2,0.3,0c0-0.3-0.2-0.4-0.5-0.4c-0.2,0-0.3,0.1-0.4,0.1c-0.1,0.1-0.2,0.2-0.3,0.2c-0.6,0.2-0.4-0.1-0.7-0.2
			c-0.3-0.1-0.6-0.2-0.8,0c-0.1,0.1-0.1,0.4,0.1,0.4C84.5,73.2,84.6,72.9,84.4,72.9"/>
		<path class="st27" d="M88.7,73.4c0.3-0.4,1,0.3,1.4,0c0.2-0.2,0.3-0.8,0.6-0.8c0.2,0,0.2-0.3,0-0.3c-0.4,0.1-0.4,0.4-0.7,0.7
			c-0.4,0.5-1.1-0.3-1.6,0.2C88.4,73.4,88.6,73.5,88.7,73.4"/>
		<path class="st27" d="M76.8,36.8c4.5-2.4,9.3-4,14.4-4.6c0.2,0,0.2-0.3,0-0.3c-5.1,0.6-10,2.2-14.5,4.6
			C76.5,36.7,76.7,36.9,76.8,36.8"/>
		<path class="st27" d="M80.7,34.1c2.3-0.7,4.6-1.4,6.8-2.1c0.2,0,0.1-0.3-0.1-0.2c-2.3,0.7-4.6,1.3-6.8,2.1
			C80.5,33.9,80.6,34.1,80.7,34.1"/>
		<path class="st27" d="M102.9,54.1c1.1-0.6,2.2-1.1,3.2-1.7c0.1-0.1,0-0.3-0.1-0.2c-1.1,0.5-2.2,1.1-3.3,1.7
			C102.7,54,102.8,54.2,102.9,54.1"/>
		<path class="st27" d="M84.2,61C84.1,61,84.1,61,84.2,61C84.1,60.9,84.1,60.9,84.2,61c-2,0.3-4,0.6-6,0.8c-0.2,0-0.2,0.3,0,0.3
			c2-0.2,4-0.5,6-0.8c0,0,0,0,0,0C84.2,61.1,84.2,61.1,84.2,61z"/>
		<path class="st27" d="M104.5,76c1.9-1,3.8-1.9,5.7-2.9c0.1-0.1,0-0.3-0.1-0.2c-1.9,1-3.8,1.9-5.7,2.9
			C104.2,75.8,104.3,76,104.5,76"/>
		<path class="st27" d="M83.3,73.5c-0.3-0.3-0.7-0.9-0.1-1c0.4-0.1,0.7,0.3,0.9,0.6c0.1,0.1,0.3,0,0.2-0.1c-0.2-0.5-0.8-1-1.3-0.7
			c-0.7,0.3-0.2,1.1,0.2,1.4C83.2,73.8,83.4,73.6,83.3,73.5"/>
		<path class="st27" d="M87.3,73c-0.3-0.3-0.2-0.9,0.2-1.1c0.5-0.2,1,0.4,0.9,0.9c-0.1,0.2,0.2,0.2,0.2,0.1c0.2-0.7-0.5-1.4-1.2-1.2
			c-0.6,0.2-0.8,1.1-0.3,1.5C87.2,73.3,87.4,73.1,87.3,73"/>
		<path class="st27" d="M97.9,70.4c0.1-0.2,0.4-0.4,0.5-0.1c0.1,0.2-0.2,0.2-0.2,0.1C98.1,70.3,97.8,70.3,97.9,70.4
			c0,0.5,0.8,0.4,0.7-0.1c0-0.2-0.2-0.4-0.4-0.4c-0.3,0-0.5,0.2-0.6,0.4C97.6,70.5,97.8,70.6,97.9,70.4"/>
		<path class="st27" d="M100.9,69.2c0-0.1,0.2-0.2,0.2-0.1c0.1,0.1,0.1,0.3,0,0.3c0.1,0,0.1,0,0.2,0c-0.1-0.1-0.2-0.3-0.3-0.4
			c-0.1-0.1-0.3,0-0.2,0.1c0.1,0.1,0.2,0.3,0.3,0.4c0,0.1,0.1,0.1,0.2,0c0.3-0.2,0.3-0.6,0-0.8c-0.3-0.2-0.7,0.1-0.6,0.4
			C100.6,69.4,100.9,69.3,100.9,69.2"/>
		<path class="st27" d="M94.5,71.8c0.1-0.2,0.4-0.2,0.4,0.1c0,0.1-0.1,0.2-0.2,0.1c-0.1,0-0.1-0.1-0.1-0.2c0.1-0.1-0.1-0.3-0.2-0.2
			c-0.2,0.2-0.1,0.5,0.1,0.6c0.2,0.1,0.5,0,0.6-0.2c0.1-0.2,0-0.5-0.3-0.5c-0.2-0.1-0.5,0.1-0.6,0.3C94.1,71.9,94.4,71.9,94.5,71.8"
			/>
		<path class="st27" d="M89.9,55.5c1.5,1,3-0.2,4-1.2c0.1-0.1-0.1-0.3-0.2-0.2c-0.9,1-2.3,2.1-3.7,1.2
			C89.9,55.2,89.7,55.4,89.9,55.5"/>
		<path class="st27" d="M85,50.6c-2.1,2.2-3,5.1-2.5,8.1c0,0.1,0.3,0.1,0.3,0c0-1,0.5-1.9,1.4-2.4c-0.1,0-0.1-0.1-0.2-0.1
			c-1.5,5.6,2.5,11.1,8.3,11.5c0.2,0,0.2-0.2,0-0.3c-5.6-0.5-9.4-5.8-8-11.2c0-0.1-0.1-0.2-0.2-0.1c-1,0.6-1.5,1.5-1.5,2.6
			c0.1,0,0.2,0,0.3,0c-0.5-2.9,0.5-5.7,2.5-7.8C85.3,50.7,85.1,50.5,85,50.6"/>
		<path class="st27" d="M92,67.4c-1.3-1-2.1-2.3-2.3-3.8l-0.2,0.1c2.5,3.2,6.6,5.9,10.8,4.2c0.2-0.1,0.1-0.3-0.1-0.2
			c-4.2,1.7-8.1-1-10.5-4.2c-0.1-0.1-0.2,0-0.2,0.1c0.3,1.6,1.1,3,2.5,4C92,67.8,92.1,67.5,92,67.4"/>
		<path class="st27" d="M100.1,67c-1.3-1-2.1-2.4-2.4-4l-0.2,0.1c2.9,3.1,7,4.5,11.2,4.8c4.4,0.3,9.5-0.3,13.2-2.8
			c0.1-0.1,0-0.3-0.1-0.2c-3.6,2.4-8.5,3.1-12.7,2.8c-4.2-0.3-8.4-1.7-11.3-4.8c-0.1-0.1-0.2,0-0.2,0.1c0.3,1.7,1.1,3.1,2.4,4.2
			C100.1,67.3,100.2,67.1,100.1,67"/>
		<path class="st27" d="M111.8,59.3c-0.2-0.1-0.4-0.2-0.5-0.3c-1.6-0.3-3.1-0.9-4.5-1.7c1-0.2,2-0.1,3,0.3c0.1,0,0.2-0.1,0.1-0.2
			c-0.8-1.3-2.1-1.8-3.5-2.1c-0.8-0.2-1.6-0.3-2.4-0.4c-0.4-0.1-0.8-0.2-1.2-0.3c-0.4-0.2-2-1-1.1-1.7c0.1-0.1-0.1-0.3-0.2-0.2
			c-1.4,1.1,1.2,2.1,2,2.3c2,0.5,4.6,0.4,5.9,2.2c-1-0.3-2.1-0.4-3.1-0.1c-0.1,0-0.1,0.2,0,0.2c1.8,1.2,3.9,1.8,6,2.2
			C112.1,59.5,111.9,59.4,111.8,59.3z"/>
		<path class="st27" d="M118.2,59.7c-1.5,0-3-0.1-4.5-0.2c-0.3,0.1-0.6,0.2-0.9,0.1c1.8,0.2,3.6,0.3,5.4,0.3
			C118.4,59.9,118.4,59.7,118.2,59.7z"/>
		<path class="st27" d="M101.5,53.4c0.7-0.7,1.4-1.1,2.4-1.3c0.1,0,0.1-0.2,0-0.2c-2.1-0.5-4.6,0.2-6.3-1.2c0,0.1-0.1,0.1-0.1,0.2
			c0.9,0.1,1.7,0.2,2.6,0.3c0.1,0,0.2-0.1,0.1-0.2c-1.3-1.9-3.8-2.6-5.9-1.8c0,0.1,0.1,0.2,0.1,0.2c0.2-0.1,0.4-0.2,0.5-0.2
			c0.2-0.1,0-0.3-0.1-0.2c-0.2,0.1-0.4,0.2-0.5,0.2c-0.1,0.1,0,0.3,0.1,0.2c1.3-0.5,2.7-0.4,4,0.2c0.2,0.1,1.5,0.8,1.4,1.2
			c0,0.1-2.1-0.3-2.2-0.3c-0.1,0-0.2,0.2-0.1,0.2c1.8,1.5,4.3,0.8,6.4,1.3v-0.2c-1,0.2-1.8,0.6-2.5,1.4
			C101.2,53.3,101.3,53.5,101.5,53.4"/>
		<path class="st27" d="M118.2,59.7c-0.9,0.8-1.8,1.4-2.9,1.9c-0.1,0-0.1,0.2,0,0.2c3.5,1,6.8-1,10.3-1.2c0.9,0,1.9,0,2.7,0.4
			c0.8,0.3,1.6,0.9,2.4,1.2c1.4,0.6,2.8,0.7,4.3,0.5l-0.1-0.2c-1.7,2.2-4.7,1.4-7.1,1.3c-2.3-0.2-4.3,0.5-6.2,1.7
			c-0.1,0.1,0,0.3,0.1,0.2c1.1-0.7,2.3-1.3,3.7-1.6c1.4-0.3,2.9,0,4.3,0.1c1.9,0.2,4,0.1,5.3-1.5c0.1-0.1,0-0.2-0.1-0.2
			c-2.1,0.3-3.8-0.3-5.6-1.3c-1.2-0.6-2.4-0.9-3.8-0.8c-3.5,0.2-6.7,2.1-10.2,1.2c0,0.1,0,0.2,0,0.2c1.1-0.5,2.1-1.1,2.9-1.9
			C118.5,59.8,118.3,59.6,118.2,59.7"/>
		<path class="st27" d="M85.4,56.9c-0.2,2.3,0.5,4.5,2.1,6.2c0.1,0.1,0.3-0.1,0.2-0.2c-1.5-1.7-2.3-3.8-2-6
			C85.7,56.7,85.4,56.7,85.4,56.9"/>
		<path class="st27" d="M91.4,62.3c-0.3,1,0.7,1.8,1.5,2.4c1,0.7,2.1,1.3,3.2,1.6c0.2,0.1,0.2-0.2,0.1-0.2c-0.8-0.3-1.7-0.6-2.4-1.1
			c-0.8-0.5-2.5-1.5-2.1-2.7C91.7,62.2,91.4,62.2,91.4,62.3"/>
		<path class="st27" d="M100.8,62c3.5,3.3,8.4,4.8,13.1,4.1c0.2,0,0.1-0.3-0.1-0.2c-4.7,0.7-9.5-0.8-12.9-4
			C100.8,61.8,100.7,61.9,100.8,62"/>
		<path class="st27" d="M105.5,63.8c1.4,0.8,2.9,1,4.5,0.7c0.2,0,0.1-0.3-0.1-0.2c-1.5,0.3-3,0.1-4.3-0.7
			C105.5,63.5,105.3,63.7,105.5,63.8"/>
		<path class="st27" d="M93.5,63.7c0.4,0.3,0.8,0.7,1.2,1c0.1,0.1,0.3-0.1,0.2-0.2c-0.4-0.3-0.8-0.7-1.2-1
			C93.6,63.4,93.4,63.6,93.5,63.7"/>
		<path class="st27" d="M87,58.1c0.2,0.6,0.4,1.2,0.6,1.8c0.1,0.2,0.3,0.1,0.3-0.1c-0.2-0.6-0.4-1.2-0.6-1.8
			C87.2,57.9,87,58,87,58.1"/>
		<path class="st27" d="M123,63.7c2.2-0.9,4.5-1,6.8-0.4c0.2,0,0.2-0.2,0.1-0.2c-2.3-0.6-4.7-0.4-6.9,0.4
			C122.8,63.5,122.8,63.7,123,63.7"/>
		<path class="st27" d="M125.1,62.3c0.6-0.4,1.3-0.5,2-0.3c0.2,0.1,0.2-0.2,0.1-0.2c-0.7-0.3-1.5-0.2-2.2,0.3
			C124.9,62.2,125,62.4,125.1,62.3"/>
		<path class="st27" d="M107.5,21c-0.7-1-1-2.2-0.9-3.4c-0.1,0-0.3,0.1-0.4,0.1c0.4,0.6,1,0.9,1.6,1.2c0.2,0.1,0.3-0.1,0.3-0.2
			c0.1-1.4,0.9-2.7,2.2-3.4c0.9-0.5,2.7-0.8,3.4-0.1c0.2,0.2,0.3,0.4,0.6,0.6c0.6,0.3,1.1,0.5,1.6,0.9c1,0.9,1.5,2.3,1.3,3.6
			c0.1,0,0.3-0.1,0.4-0.1c-0.5-0.5-1.2-0.7-1.9-0.4c-0.2,0.1-0.2,0.2-0.2,0.4c0.7,1.6,0.1,3.6-1.6,4.4c-1.7,0.8-3.5-0.1-4.8-1.2
			c-0.1-0.1-0.4-0.1-0.4,0.1c-0.1,0.6-0.4,1-0.8,1.4c0.1,0.1,0.3,0.1,0.4,0.2c-0.1-1-0.2-2-0.2-3c0-0.3-0.5-0.3-0.5,0
			c0.1,1,0.2,2,0.2,3c0,0.2,0.3,0.3,0.4,0.2c0.5-0.4,0.8-0.9,0.9-1.6c-0.1,0-0.3,0.1-0.4,0.1c1.6,1.3,3.7,2.3,5.6,1.2
			c1.8-1,2.3-3.1,1.5-4.9c-0.1,0.1-0.1,0.3-0.2,0.4c0.5-0.2,1-0.1,1.4,0.3c0.1,0.1,0.4,0.1,0.4-0.1c0.2-1.1,0-2.2-0.6-3.2
			c-0.3-0.4-0.6-0.8-1-1.2c-0.4-0.3-1.8-0.7-1.8-1.3c0-0.1-0.1-0.2-0.2-0.2c-3-1.1-6.1,0.9-6.4,4.1c0.1-0.1,0.2-0.2,0.3-0.2
			c-0.6-0.2-1-0.5-1.4-1c-0.1-0.1-0.4-0.1-0.4,0.1c-0.2,1.4,0.1,2.7,0.9,3.8C107.2,21.5,107.7,21.2,107.5,21"/>
		<path class="st27" d="M110.6,17.9c-0.9,1.9,0.6,3.9,2.7,3.7c0.3,0,0.3-0.6,0-0.5c-1.7,0.2-3-1.3-2.2-2.9
			C111.2,17.9,110.7,17.6,110.6,17.9"/>
		<path class="st27" d="M112.7,17.9c-0.4,0.3-0.4,0.7-0.2,1.1c0.3,0.4,0.7,0.6,1.2,0.4c0.5-0.2,0.9-0.8,1-1.4
			c0.1-0.4-0.1-1.1-0.7-1.1c-0.3,0-0.3,0.5,0,0.5c0.3,0,0.1,0.6,0.1,0.7c-0.1,0.3-0.2,0.5-0.5,0.7c-0.2,0.1-0.4,0.2-0.6,0
			c-0.1-0.1-0.3-0.4-0.1-0.5C113.3,18.1,113,17.7,112.7,17.9"/>
		<g>
			<g>
				<path d="M107.4,21.1c0.2,0.2,0.4,0.3,0.6,0.2c0.2,0,0.5-0.1,0.7-0.2c0.1,0,0.1-0.2-0.1-0.2c-0.2,0.1-0.4,0.1-0.6,0.2
					c-0.1,0-0.2,0-0.3,0c-0.1,0-0.2-0.1-0.2-0.2c0,0-0.1,0-0.1,0C107.4,21,107.4,21,107.4,21.1L107.4,21.1z"/>
			</g>
		</g>
		<g>
			<g>
				<path d="M107.5,21c0.2,0.2,0.6,0.3,0.9,0.2c0.3-0.1,0.6-0.2,0.9-0.4c0.1-0.1-0.1-0.2-0.1-0.1c-0.2,0.2-0.5,0.3-0.7,0.4
					c-0.3,0.1-0.6,0.1-0.8-0.1C107.5,20.8,107.4,20.9,107.5,21L107.5,21z"/>
			</g>
		</g>
		<g>
			<g>
				<path d="M106.5,19.7c0.2,0.4,0.5,0.8,0.8,1.1c0.3,0.3,0.8,0.6,1.3,0.5c0.1,0,0.1-0.2-0.1-0.2c-0.4,0.1-0.8-0.2-1.1-0.5
					c-0.3-0.3-0.6-0.7-0.8-1C106.6,19.4,106.4,19.5,106.5,19.7L106.5,19.7z"/>
			</g>
		</g>
		<g>
			<g>
				<path d="M107.2,21.3c0.2,0,0.3,0.1,0.5,0.1c0.1,0,0.2,0,0.3,0.1c0.1,0,0.2,0,0.2,0c0.1-0.1,0-0.2-0.1-0.1c0,0,0,0,0,0
					c0,0,0,0,0,0c0,0,0,0,0,0c0,0,0,0,0,0c0,0,0,0,0,0c0,0,0,0,0,0c0,0,0,0,0,0c0,0,0,0,0,0c-0.1,0-0.2,0-0.3-0.1
					c-0.2,0-0.3-0.1-0.5-0.1c-0.1,0-0.1,0-0.1,0.1C107.1,21.2,107.1,21.3,107.2,21.3L107.2,21.3z"/>
			</g>
		</g>
		<g>
			<g>
				<path d="M106.7,21.6c0.2,0,0.4,0,0.7,0c0.2,0,0.4,0.1,0.5,0.1c0.1,0,0.1-0.2,0-0.2c-0.2,0-0.4-0.1-0.5-0.1c-0.2,0-0.5,0-0.7,0
					c-0.1,0-0.1,0.1-0.1,0.1C106.6,21.5,106.7,21.6,106.7,21.6L106.7,21.6z"/>
			</g>
		</g>
		<g>
			<g>
				<path d="M85.1,50.8c0.1-0.1,0.3-0.2,0.4-0.4c0,0,0-0.1,0-0.1c0,0-0.1,0-0.1,0c-0.1,0.1-0.1,0.1-0.2,0.2c0,0-0.1,0.1-0.1,0.1
					c0,0,0,0,0,0c0,0,0,0,0,0c0,0,0,0,0,0c0,0,0,0,0,0c0,0-0.1,0.1,0,0.1C85,50.9,85,50.9,85.1,50.8L85.1,50.8z"/>
			</g>
		</g>
		<g>
			<g>
				<path d="M85.1,50.8c0.1-0.1,0.2-0.2,0.3-0.4c0,0,0-0.1,0-0.1c-0.1,0-0.1,0-0.1,0c0,0,0,0,0,0c0,0,0,0,0,0c0,0,0,0,0,0
					c0,0,0,0,0,0c0,0-0.1,0.1-0.1,0.1c-0.1,0.1-0.1,0.1-0.2,0.2c0,0,0,0,0,0.1c0,0,0,0.1,0,0.1C85,50.8,85.1,50.8,85.1,50.8
					L85.1,50.8z"/>
			</g>
		</g>
		<g>
			<g>
				<path d="M93.6,49.6c0.2,0,0.4,0,0.5-0.1c0.2-0.1,0.3-0.1,0.5-0.2c0,0,0.1-0.1,0-0.1c0,0-0.1-0.1-0.1,0c-0.1,0.1-0.3,0.2-0.4,0.2
					c-0.1,0-0.2,0-0.2,0.1c-0.1,0-0.1,0-0.2,0c-0.1,0-0.1,0.1-0.1,0.1C93.5,49.6,93.6,49.6,93.6,49.6L93.6,49.6z"/>
			</g>
		</g>
		<g>
			<g>
				<path d="M93.8,49.5c0.7-0.3,1.4-0.4,2.1-0.4c0.1,0,0.1-0.2,0-0.2c-0.8,0.1-1.5,0.1-2.3,0.5C93.6,49.4,93.7,49.6,93.8,49.5
					L93.8,49.5z"/>
			</g>
		</g>
		<g>
			<g>
				<path d="M94,49.4c0.8-0.3,1.7-0.5,2.5-0.3c0.1,0,0.2-0.2,0.1-0.2c-0.9-0.2-1.8,0-2.6,0.3C93.8,49.3,93.8,49.5,94,49.4L94,49.4z"
					/>
			</g>
		</g>
		<g>
			<g>
				<path d="M101.6,53c0.1-0.1,0.2-0.2,0.3-0.3c0.2-0.1,0.3-0.2,0.5-0.2c0.4-0.2,0.8-0.3,1.2-0.4c0.1,0,0.1-0.2-0.1-0.2
					c-0.5,0.1-0.9,0.2-1.3,0.4c-0.2,0.1-0.3,0.2-0.5,0.3c-0.1,0.1-0.3,0.2-0.3,0.4C101.3,53.1,101.5,53.2,101.6,53L101.6,53z"/>
			</g>
		</g>
		<g>
			<g>
				<path d="M108.9,44.8c0.6,0.3,1.3,0.6,1.8,1.1c0.1,0.1,0.2-0.1,0.1-0.1c-0.5-0.5-1.2-0.8-1.8-1.1
					C108.9,44.6,108.8,44.7,108.9,44.8L108.9,44.8z"/>
			</g>
		</g>
		<g>
			<g>
				<path d="M107.9,43.6c0.2,0.1,0.5,0.2,0.7,0.4c0.2,0.2,0.4,0.3,0.6,0.5c0.4,0.4,0.8,0.8,1.2,1.2c0.1,0.1,0.2,0,0.1-0.1
					c-0.2-0.2-0.4-0.4-0.6-0.6c-0.2-0.2-0.4-0.4-0.6-0.6c-0.4-0.3-0.8-0.8-1.3-0.9C107.8,43.3,107.7,43.5,107.9,43.6L107.9,43.6z"/>
			</g>
		</g>
		<g>
			<g>
				<path d="M108.8,44.3c0.2,0.3,0.5,0.5,0.9,0.7c0.1,0.1,0.2-0.1,0.1-0.2c-0.3-0.2-0.5-0.4-0.8-0.5
					C108.9,44.4,108.8,44.4,108.8,44.3c0,0.1,0,0.2,0.1,0.2c0.2,0.3,0.6,0.4,0.9,0.5c0.1,0,0.1,0,0.1,0c0,0,0-0.1,0-0.1
					c-0.2-0.1-0.4-0.3-0.6-0.5c0,0.1-0.1,0.1-0.1,0.2c0.2,0.2,0.5,0.4,0.7,0.6c0,0,0.1,0,0.1,0c0,0,0-0.1,0-0.1
					c-0.2-0.2-0.5-0.4-0.7-0.6c0,0-0.1,0-0.1,0c0,0,0,0.1,0,0.1c0.2,0.2,0.4,0.4,0.7,0.5c0-0.1,0.1-0.1,0.1-0.2
					c-0.3-0.1-0.6-0.2-0.8-0.5c0,0.1-0.1,0.1-0.1,0.2c0.3,0.1,0.5,0.3,0.7,0.5c0-0.1,0.1-0.1,0.1-0.2c-0.3-0.2-0.6-0.4-0.8-0.7
					c0,0-0.1,0-0.1,0C108.7,44.2,108.7,44.3,108.8,44.3L108.8,44.3z"/>
			</g>
		</g>
		<g>
			<g>
				<path d="M103.8,52.1C103.7,52.1,103.8,52.1,103.8,52.1C103.8,52.1,103.8,52.1,103.8,52.1C103.8,52.1,103.8,52.1,103.8,52.1
					C103.8,52.1,103.8,52.1,103.8,52.1c0.1,0,0.1,0,0.1,0c0.1,0,0.1,0,0.2,0c0,0,0,0,0,0c0,0,0,0,0,0c0,0,0,0,0,0c0,0,0.1,0,0.1,0
					c0,0,0.1,0,0.1,0c0.1,0,0.1,0,0.1-0.1c0-0.1,0-0.1-0.1-0.1c-0.2-0.1-0.5-0.1-0.7,0c-0.1,0-0.1,0.1,0,0.1
					C103.7,52.1,103.7,52.1,103.8,52.1L103.8,52.1z"/>
			</g>
		</g>
		<g>
			<g>
				<path d="M107.5,48.4c0,0.2,0.1,0.5,0.1,0.7c0,0,0,0.1,0,0.1c0,0,0,0,0,0c0,0,0,0,0,0c0,0.1,0,0.1,0.1,0.1c0.1,0,0.1,0,0.1-0.1
					c0,0,0-0.1,0-0.1c0-0.1,0-0.1,0-0.2c0-0.1-0.1-0.3-0.1-0.4c0,0,0-0.1,0-0.1c0-0.1-0.1-0.1-0.1-0.1
					C107.5,48.2,107.5,48.3,107.5,48.4L107.5,48.4z"/>
			</g>
		</g>
		<g>
			<g>
				<path d="M107.5,48.2c0,0.2,0.1,0.3,0.1,0.5c0,0.1,0,0.3,0.1,0.4c0,0.1,0.1,0.1,0.1,0.1c0.1,0,0.1-0.1,0.1-0.1
					c0-0.1-0.1-0.3-0.1-0.4c0-0.2,0-0.4-0.1-0.5c0-0.1-0.1-0.1-0.1-0.1C107.6,48.1,107.5,48.2,107.5,48.2L107.5,48.2z"/>
			</g>
		</g>
		<g>
			<g>
				<path d="M107.8,55.2c0-0.1-0.1-0.1-0.1-0.1c-0.1,0-0.1,0-0.1,0c-0.1,0-0.2,0.1-0.3,0.2c0,0-0.1,0-0.1,0.1c-0.1,0-0.1,0.1,0,0.2
					c0.1,0.1,0.2,0.1,0.3,0.2c0.1,0,0.1,0,0.1-0.1c0-0.1,0-0.1-0.1-0.1c0,0,0,0,0,0c0,0,0,0,0,0c0,0,0,0-0.1,0c0,0,0,0,0,0
					c0,0,0,0,0,0c0,0,0,0,0,0c0,0.1,0,0.1,0,0.2c0.1,0,0.1-0.1,0.2-0.1c0,0,0.1-0.1,0.1-0.1c0,0,0,0,0.1,0c0,0,0,0,0,0c0,0,0,0,0,0
					c0,0,0,0,0,0c0,0,0,0,0,0c0,0,0,0,0,0c0,0,0,0,0,0c0,0,0,0,0,0c0,0,0,0,0,0c0,0,0,0,0,0c0,0,0,0,0,0c0,0,0,0,0,0
					c0,0.1,0,0.1,0.1,0.1C107.8,55.3,107.8,55.3,107.8,55.2L107.8,55.2z"/>
			</g>
		</g>
		<g>
			<g>
				<path d="M107.7,55.6C107.7,55.6,107.7,55.6,107.7,55.6C107.7,55.7,107.7,55.7,107.7,55.6C107.7,55.7,107.7,55.6,107.7,55.6
					C107.7,55.6,107.7,55.6,107.7,55.6C107.7,55.6,107.7,55.6,107.7,55.6C107.7,55.6,107.7,55.6,107.7,55.6
					C107.7,55.6,107.7,55.6,107.7,55.6c0-0.1,0-0.1,0-0.1c0,0,0,0,0,0c0,0,0,0,0,0c0,0,0,0,0,0c0-0.1,0.1-0.1,0.1-0.2c0,0,0,0,0-0.1
					c0,0,0-0.1,0-0.1c0,0-0.1,0-0.1,0c-0.1,0.1-0.1,0.1-0.2,0.2c0,0,0,0.1-0.1,0.1c0,0.1,0,0.1,0,0.2c0,0,0,0.1,0,0.1c0,0,0,0,0.1,0
					C107.6,55.8,107.6,55.7,107.7,55.6C107.6,55.7,107.7,55.7,107.7,55.6L107.7,55.6z"/>
			</g>
		</g>
		<g>
			<g>
				<path d="M107.6,55.7c0.1-0.1,0.2-0.2,0.3-0.4c0,0,0-0.1,0-0.1c0,0,0-0.1,0-0.1c0,0-0.1,0-0.1,0c0,0,0,0-0.1,0c0,0,0,0,0,0
					c0,0,0,0,0,0c-0.1,0.1-0.2,0.2-0.3,0.3c0,0,0,0.1,0,0.1c0,0,0,0.1,0,0.1C107.5,55.7,107.5,55.7,107.6,55.7
					C107.6,55.7,107.6,55.7,107.6,55.7L107.6,55.7z"/>
			</g>
		</g>
		<g>
			<g>
				<path d="M107.4,55.6c0,0,0.1,0,0.1,0c0,0,0.1-0.1,0.1-0.1c0,0,0,0,0,0c0,0,0,0,0,0c0,0,0-0.1,0-0.1c0,0,0,0-0.1,0
					c0,0-0.1,0-0.1,0c0,0-0.1,0-0.1,0.1c0,0,0,0-0.1,0c0,0,0,0,0,0c0,0,0,0,0,0c0,0,0,0,0,0c0,0,0,0,0,0c0,0-0.1,0-0.1,0
					c0,0,0,0,0,0.1C107.3,55.5,107.3,55.5,107.4,55.6C107.3,55.6,107.4,55.6,107.4,55.6L107.4,55.6z"/>
			</g>
		</g>
		<g>
			<g>
				<path d="M109.5,55.2c-0.1-0.3-0.2-0.5-0.3-0.8c0-0.1-0.1-0.1-0.1-0.1c-0.1,0-0.1,0.1-0.1,0.1c0.1,0.3,0.2,0.5,0.3,0.8
					c0,0.1,0.1,0.1,0.1,0.1C109.5,55.3,109.5,55.2,109.5,55.2L109.5,55.2z"/>
			</g>
		</g>
		<g>
			<g>
				<path d="M109.8,55.2c-0.1-0.4-0.1-0.7-0.1-1.1c0-0.1-0.2-0.1-0.2,0.1c0.1,0.4,0.1,0.7,0.1,1.1c0,0.1,0.1,0.1,0.1,0.1
					C109.8,55.3,109.8,55.2,109.8,55.2L109.8,55.2z"/>
			</g>
		</g>
		<g>
			<g>
				<path d="M109.6,55.2c0-0.3-0.1-0.6-0.1-0.9c0-0.1-0.1-0.1-0.1-0.1c-0.1,0-0.1,0-0.1,0.1c0,0.3,0.1,0.6,0.1,0.9
					c0,0.1,0,0.1,0.1,0.1C109.6,55.3,109.6,55.2,109.6,55.2L109.6,55.2z"/>
			</g>
		</g>
		<g>
			<g>
				<path d="M109.5,54.9c0,0,0-0.1-0.1-0.1c0,0,0-0.1-0.1-0.1c0,0,0-0.1,0-0.1c0,0,0,0,0-0.1c0,0,0,0,0,0c0,0,0,0,0,0
					c0-0.1,0-0.1-0.1-0.1c-0.1,0-0.1,0-0.1,0.1c0,0.2,0.1,0.5,0.2,0.7c0,0,0.1,0.1,0.1,0C109.6,55,109.6,54.9,109.5,54.9L109.5,54.9
					z"/>
			</g>
		</g>
		<g>
			<g>
				<path d="M121.7,65.8c0.1-0.2,0.2-0.4,0.2-0.7c0-0.1,0-0.1-0.1-0.1c-0.1,0-0.1,0-0.1,0.1c0,0.1,0,0.2-0.1,0.3c0,0.1,0,0.1,0,0.2
					c0,0,0,0,0,0c0,0,0,0,0,0c0,0,0,0.1,0,0.1c0,0,0,0.1,0,0.1C121.6,65.8,121.7,65.8,121.7,65.8L121.7,65.8z"/>
			</g>
		</g>
	</g>
	<g>
		<g>
			<path d="M77,74.9c6.6,2.1,13.7,1.8,20.6,1.8c8,0.1,15.7,1.9,23.5,3.1c0-0.2,0.1-0.4,0.1-0.6c-0.3,0-0.6,0-0.8,0
				c-0.4,0-0.4,0.6,0,0.6c0.3,0,0.6,0,0.8,0c0.3,0,0.4-0.5,0.1-0.6c-7.4-1.1-14.6-3-22.1-3.1c-7.4-0.2-14.9,0.4-22-1.8
				C76.8,74.2,76.7,74.8,77,74.9L77,74.9z"/>
		</g>
		<g>
			<path d="M89,84.3c-0.4-0.1-0.8-0.3-1.2-0.4c-0.1,0.2-0.1,0.4-0.2,0.6c6.8,0.3,13.6,1.2,20.4,2.2c2.7,0.4,5.5,0.9,8.2,1.3
				c1.5,0.2,2.9,0.2,4.2-0.7c1.2-0.9,1.9-2.4,2.6-3.6c0.9-1.5,1.9-3,1.9-4.7c0-2.6-5.6-2.8-7.3-2.9c-0.4,0-0.4,0.6,0,0.6
				c1.3,0,2.7,0.2,4,0.5c1.3,0.3,3,0.8,2.6,2.7c-0.2,0.9-0.7,1.8-1.2,2.6c-0.7,1.3-1.4,2.6-2.4,3.7c-1.3,1.6-3.2,1.4-5,1.1
				c-9.3-1.3-18.6-2.9-28-3.3c-0.3,0-0.4,0.4-0.2,0.6c0.7,0.3,0.6,0.3,1.3,0.4C89.2,84.9,89.4,84.3,89,84.3L89,84.3z"/>
		</g>
		<g>
			<path d="M74.9,75.9c-0.4-0.8-0.3-1.7-0.6-2.5c0,0.1-0.1,0.3-0.1,0.4c1.3-0.6,2.7-0.6,4-0.4c0.4,0.1,0.4-0.6,0-0.6
				c-1.5-0.2-3-0.2-4.4,0.5c-0.2,0.1-0.2,0.3-0.1,0.4c0.3,0.8,0.2,1.7,0.6,2.5C74.5,76.5,75.1,76.2,74.9,75.9L74.9,75.9z"/>
		</g>
		<g>
			<path d="M59.4,74.7c1.6,0.6,4.2-0.1,5.8-0.4c1.9-0.3,4.8-0.5,6-2.3c0.8-1.2-0.8-1.1-1.6-1c-1.1,0.2-2.2,0.5-3.3,0.7
				c-2.5,0.6-5.1,0.5-7.6,0.9c-0.2,0-0.3,0.3-0.2,0.4c0.1,0.4,0.3,0.7,0.6,1c0.2,0.3,0.8,0,0.5-0.3c-0.8-1.1,0.7-0.8,1.5-0.8
				c0.8-0.1,1.6-0.1,2.5-0.2c1.1-0.1,2.1-0.3,3.1-0.6c0.7-0.2,1.5-0.4,2.2-0.5c0.4-0.1,0.9-0.2,1.3-0.2c0.9-0.1-0.6,1-0.7,1
				c-1.4,0.8-3.5,1-5.1,1.2c-1.3,0.2-3.7,0.9-5,0.3C59.2,73.9,59,74.5,59.4,74.7L59.4,74.7z"/>
		</g>
		<g>
			<path d="M72.7,67c-2.5-0.7-3.5-2.9-5.1-4.7c-0.9-1-2-1.6-3.4-1.3c-1.9,0.4-3.2,2.4-5.3,2.5c-2.4,0.1-4.3-1.3-6.8-0.5
				c-0.2,0.1-0.3,0.3-0.1,0.5c2.6,2.8,12,3.6,8.1,9c0,0.1-0.1,0.1-0.1,0.2c0.1,0,0.2,0,0.3,0c0.1,0,0.3,0,0.4,0.1
				c3.6-5.3-3.9-6.7-7.3-8.8c-2-1.2,1.4-0.7,2-0.6c1,0.2,2,0.4,3.1,0.7c1.2,0.2,2.5-0.5,3.4-1.1c1.3-0.7,2.4-2.1,4.2-1.1
				c1.2,0.6,2,2.1,2.8,3.1c1,1.3,2,2.1,3.6,2.6C73,67.7,73.1,67.1,72.7,67z"/>
		</g>
		<g>
			<path d="M63.1,72.7c1.5-1.5,2-3.5,0.7-5.4c-0.2-0.3-0.8,0-0.5,0.3c1.1,1.6,0.7,3.3-0.6,4.6C62.4,72.5,62.8,73,63.1,72.7
				L63.1,72.7z"/>
		</g>
		<g>
			<path d="M66.9,71.7c0.1-1.1,0.3-2.4,0.8-3.4c0.2-0.4-0.4-0.7-0.5-0.3c-0.5,1.1-0.8,2.5-0.9,3.7C66.3,72.1,66.9,72.1,66.9,71.7
				L66.9,71.7z"/>
		</g>
		<g>
			<path d="M66.4,68c0.7-0.6,0.2-1.5-0.1-2.1c-0.6-1.2-1.9-3-0.5-4.1c0.3-0.2-0.1-0.7-0.4-0.4c-0.9,0.7-0.9,1.8-0.5,2.8
				c0.2,0.6,1.8,2.9,1.2,3.4C65.7,67.8,66.1,68.2,66.4,68L66.4,68z"/>
		</g>
		<g>
			<path d="M64.7,74c-1.7,1.8-3.8,3.3-5.5,5c-1.4,1.3-3.2,3.1-3.2,5.2c0,0.4,0.6,0.4,0.6,0c0-2.3,2.5-4.3,4-5.7
				c1.5-1.4,3.1-2.6,4.5-4C65.4,74.1,65,73.7,64.7,74L64.7,74z"/>
		</g>
		<g>
			<path d="M68.6,73.8c3.4,1.4,5,4.9,7.4,7.4c0.3,0.3,0.7-0.2,0.4-0.4c-2.5-2.6-4.2-6.1-7.7-7.6C68.4,73.1,68.3,73.7,68.6,73.8
				L68.6,73.8z"/>
		</g>
		<g>
			<path d="M59.3,74.2C53.7,79,48.5,84.5,42.5,88.7c-3.3,2.2-8.7,5-8.7,9.6c0,0.4,0.6,0.4,0.6,0c0.1-5,6.8-7.8,10.2-10.3
				c5.3-4,10.1-9,15.1-13.3C60,74.3,59.6,73.9,59.3,74.2L59.3,74.2z"/>
		</g>
		<g>
			<path d="M57.5,112.8c-2.4,4.4-8.4,4.1-12.7,3.5c-2.4-0.3-4.7-0.9-7.1-1.3c-3.3-0.5-6.6-0.4-9.9-1c-5.7-1-8.9-7-5.7-12
				c1.6-2.5,4.7-4.3,7.2-5.8c2.4-1.5,5-2.7,7.7-3.4c0.3-0.3,0.5-0.6,0.8-0.8c-5.8,1.2-12.7,5-16.2,9.8c-2.9,4-1.1,9.5,2.9,11.9
				c2.9,1.8,7.2,1.6,10.5,1.8c3.3,0.2,6.6,1.1,9.9,1.5c4.5,0.6,10.7,0.7,13.2-3.8C58.2,112.8,57.7,112.5,57.5,112.8z"/>
		</g>
		<g>
			<path d="M53.4,117c3.7-0.2,7.4-0.7,11.2-0.9c3.9-0.2,7.8,0.5,11.6,1.2c5,0.9,9.9,1.7,14.9,1.8c4.1,0.1,8.2-0.1,12.2-0.8
				c3.1-0.6,6.6-1.7,8.6-4.4c2.1-3-0.2-6.8-1.9-9.5c-2.6-4.1-5.9-8.1-9.5-11.5c-4.8-4.6-10.7-7.9-16.2-11.4
				c-2.9-1.8-5.9-3.1-8.9-4.6c-2-1-3.1-3.5-5.3-4.2c-0.4-0.1-0.5,0.5-0.2,0.6c2,0.6,3.4,2.9,5.2,4.1c2.5,1.7,5.6,2.5,8.2,4.2
				c5.3,3.4,10.8,6.6,15.6,10.7c3.6,3.1,6.8,7,9.5,10.8c2.2,3.1,5.5,7.7,2.3,11.2c-2.5,2.7-7.1,3.3-10.6,3.7
				c-3.6,0.4-7.2,0.4-10.7,0.3c-5.3-0.2-10.5-1.3-15.7-2.2c-6.9-1.2-13.4-0.2-20.3,0.2C53,116.4,53,117.1,53.4,117L53.4,117z"/>
		</g>
		<g>
			<path d="M90.9,90.2c2.5,0.5,4.5,2.7,6.3,4.3c1.8,1.7,3.9,3.5,5.3,5.5c1.3,1.8,1.8,4.1,3,6c1.6,2.4,4.4,6.1,0.2,7.7
				c-0.4,0.1-0.2,0.7,0.2,0.6c6.2-2.3-0.4-8.7-1.7-12.2c-1.2-3-3.4-4.9-5.6-7c-2.1-2-4.6-4.8-7.5-5.4C90.7,89.6,90.5,90.2,90.9,90.2
				L90.9,90.2z"/>
		</g>
		<g>
			<path d="M113,87.3c0.3,0.8,0.7,1.8-0.2,2.3c-0.6,0.4-1.6,0.2-2.3,0.2c-0.8-0.1-1.6-0.3-2.4-0.4c-0.3-0.1-0.6-0.1-0.6-0.2
				c0-0.9,0.3-1.8,0.8-2.6c0.2-0.3-0.3-0.6-0.5-0.3c-0.7,1-0.9,2.1-0.9,3.3c0,0.1,0.1,0.3,0.2,0.3c2.4,0.5,8.3,1.8,6.5-2.7
				C113.4,86.8,112.8,87,113,87.3L113,87.3z"/>
		</g>
		<g>
			<path d="M101.4,93.8c0.2-1.1,0.2-2.1,0.2-3.2c0-0.4-0.6-0.4-0.6,0c0,1,0,2-0.2,3C100.7,94,101.3,94.2,101.4,93.8L101.4,93.8z"/>
		</g>
		<g>
			<path d="M101.6,91.3c3.2-0.9,6.8-0.5,9.9,0.6c0.4,0.1,0.5-0.5,0.2-0.6c-3.2-1.1-7-1.5-10.2-0.6C101,90.8,101.2,91.4,101.6,91.3
				L101.6,91.3z"/>
		</g>
		<g>
			<path d="M111.3,91.8c0.9,1.1-0.2,3.4-0.6,4.6c-0.3,0.7-2.7,0-3.3,0c-1.1-0.1-2.1-0.2-3.2-0.2c-0.4,0-0.4,0.6,0,0.6
				c2.2,0,4.3,0.4,6.5,0.6c0.1,0,0.2-0.1,0.3-0.2c0.6-1.4,1.9-4.3,0.8-5.7C111.6,91.2,111.1,91.5,111.3,91.8L111.3,91.8z"/>
		</g>
		<g>
			<path d="M104.9,97.9c1.6,0,3.2,0.2,4.8,0.2c-0.1-0.1-0.2-0.1-0.3-0.2c0.3,1,0.8,4.5-1.1,4.2c-0.4-0.1-0.5,0.5-0.2,0.6
				c2.6,0.4,2.3-3.4,1.8-4.9c0-0.1-0.2-0.2-0.3-0.2c-1.6,0-3.2-0.2-4.8-0.2C104.5,97.3,104.5,97.9,104.9,97.9L104.9,97.9z"/>
		</g>
		<g>
			<path d="M109.2,98.1c-0.1,0.1,0,0,0.1-0.1c0.1,0,0.2,0.1,0.3,0.1c0.1,0.1,0.1,0.2,0.1,0.2c0,0,0,0,0,0c0,0,0-0.1,0-0.1
				c0-0.1,0.1-0.2,0.1-0.3c0.1-0.2,0.1-0.4,0.1-0.6c0-0.4-0.6-0.4-0.6,0c0,0,0,0,0,0c0,0.1,0,0.1,0,0.2c0,0.1-0.1,0.3-0.1,0.4
				c-0.1,0.2-0.2,0.5,0,0.7c0.1,0.1,0.2,0.1,0.3,0.1c0.1,0,0.2-0.1,0.2-0.2C109.9,98.1,109.4,97.8,109.2,98.1L109.2,98.1z"/>
		</g>
		<g>
			<path d="M110.9,91.5L110.9,91.5c0.2,0,0.4,0.1,0.5,0.2c0,0,0-0.1,0-0.2v-1.2c0-0.4-0.6-0.4-0.6,0L110.9,91.5
				C110.9,91.5,110.9,91.5,110.9,91.5z"/>
		</g>
		<g>
			<path d="M92.4,84.4c-0.1,0-0.1-0.1-0.2-0.1c0,0,0,0,0,0.1c0.2,0.8,0.2,1.7,0,2.5c-0.1,0.4,0.5,0.5,0.6,0.2c0.2-0.9,0.2-1.8,0-2.7
				C92.6,84.5,92.5,84.5,92.4,84.4z"/>
		</g>
		<g>
			<path d="M110,100.8c1.6,0.7,2.4,2.2,3.7,3.3c1.2,1,2.7,1.6,4.2,2.2c3.8,1.6,8,1.3,11.7,2.8c0.4,0.1,0.5-0.4,0.2-0.6
				c-3.2-1.3-6.9-1.3-10.2-2.3c-2.1-0.7-4.2-1.6-5.9-3c-1.2-1-1.8-2.3-3.3-3C109.9,100.1,109.6,100.6,110,100.8L110,100.8z"/>
		</g>
		<g>
			<path d="M129.2,108.5c-0.4-0.1-0.4,0.6,0,0.6c6.5,0.9,11.7,11.1,3.8,13.9c-3.1,1.1-6.7,0.9-9.9,0.9c-3.7,0-7.3-0.4-11-0.6
				c-7.6-0.5-15.2-0.3-22.8,0c-3.5,0.2-7,0.3-10.4,0.9c-3.5,0.6-6.9,1.7-10.4,2.4c-14,3-29.5,2.7-43.5-0.4c-6.7-1.5-15-3.5-18.9-9.7
				c-5.3-8.4,9.8-9.7,14.7-11.4c0-0.1,0-0.2,0-0.3c0-0.2,0-0.3,0.1-0.4c-3,1.2-6.3,1.7-9.4,2.6c-2,0.6-4.5,1.5-5.8,3.3
				c-3.3,4.7,1.8,9.7,5.7,12c5.7,3.4,13.1,4.7,19.6,5.8c7,1.1,14.1,1.4,21.2,1.1c7-0.3,14.1-1.1,20.9-2.9c7.9-2.1,15.9-2.3,24-2.5
				c7.8-0.2,15.6,0.4,23.4,0.7c4.9,0.2,12.2,1,16-2.8C141.1,117,134,109.1,129.2,108.5z"/>
		</g>
		<g>
			<path d="M112.8,112.5c1.4,0,2.8,0,4.1,0.2c0.4,0.1,0.5-0.5,0.2-0.6c-1.4-0.2-2.8-0.2-4.3-0.2
				C112.4,111.9,112.4,112.5,112.8,112.5L112.8,112.5z"/>
		</g>
		<g>
			<path d="M74.9,68.9c-1.2,0.4-2.4,0.2-3.3-0.8c-0.3-0.3-0.7,0.1-0.4,0.4c1,1.1,2.5,1.3,3.9,0.9C75.4,69.3,75.3,68.7,74.9,68.9
				L74.9,68.9z"/>
		</g>
		<g>
			<path d="M83.6,69.3c-1.9-1.5-4.5-1-6.8-1.3c-0.1,0.3-0.3,0.5-0.7,0.5c0,0,0,0,0.1,0c0.8,0.1,1.7,0.2,2.5,0.2
				c0.8,0,5.2,0.4,2.9,0.9c-3.6,0.8-7.2,0.4-10.7,1.7c-0.4,0.1-0.2,0.7,0.2,0.6c4-1.4,8.3-1,12.4-2.1C83.7,69.8,83.8,69.5,83.6,69.3
				z"/>
		</g>
	</g>
	<g>
		<path d="M21.9,101.8c0.5-1.3,0.3-2.5,0-3.9c-0.7-3-0.6-5.1,2.7-5.9c2.6-0.6,6.6,0.2,8.8-1.7c1.2-1,1.6-2.5,2.3-3.8
			c0.4-0.7,0.8-1.4,1.2-2.2c1.8-3.5,2.4-0.3,3.2,0.2c1,0.5,2.2,0.7,3.4,0.5c2.2-0.5,4-3.2,6.5-1.9c0.4,0.2,0.7-0.4,0.3-0.5
			c-4-2-6.9,4.6-10.7,0.4c-2.3-2.5-5,4.4-5.5,5.4c-1.9,4-7.9,1.9-11.3,3.5c-4.2,2.1-0.3,6.5-1.6,9.7C21.2,102,21.8,102.2,21.9,101.8
			L21.9,101.8z"/>
	</g>
	<g>
		<path d="M111.6,102c2.1,1.1,4.4-0.2,6.6,0.4c1.6,0.4,3,1.2,4.5,1.8c1.5,0.6,4.3,0.9,3.5,3.4c-0.1,0.4,0.5,0.5,0.6,0.2
			c0.7-2.3-0.7-3.1-2.7-3.7c-1.9-0.7-3.7-1.7-5.7-2.2c-2.1-0.6-4.5,0.7-6.4-0.4C111.5,101.3,111.2,101.8,111.6,102L111.6,102z"/>
	</g>
	<g>
		<path d="M101.4,90.7c1.5-1.3,4.2-1,6.1-0.7c0.4,0,0.4-0.6,0-0.6c-2-0.2-4.8-0.5-6.5,0.9C100.7,90.6,101.1,91,101.4,90.7
			L101.4,90.7z"/>
	</g>
	<g>
		<path d="M92.6,85.6c4.9,0.3,9.8,0.9,14.6,2.1c0.4,0.1,0.5-0.5,0.2-0.6c-4.8-1.2-9.8-1.8-14.8-2.1C92.2,85,92.2,85.6,92.6,85.6
			L92.6,85.6z"/>
	</g>
	<g>
		<path d="M19.3,114.8c2,2.5,4.8,3.4,7.8,4.3c3.7,1.1,7.6,1.7,11.5,2.1c8.4,0.9,16.8,0.7,25.2,1.5c0.4,0,0.4-0.6,0-0.6
			c-7.3-0.7-14.6-0.7-21.8-1.2c-3.9-0.3-7.8-0.8-11.6-1.6c-3.8-0.8-8.2-1.8-10.7-5C19.5,114.1,19.1,114.5,19.3,114.8L19.3,114.8z"/>
	</g>
	<g>
		<path d="M49.9,125.5c1.3,0.2,2.6,0.2,3.9,0.2c0.4,0,0.4-0.6,0-0.6c-1.2,0-2.5,0-3.7-0.2C49.7,124.9,49.5,125.4,49.9,125.5
			L49.9,125.5z"/>
	</g>
</g>
<g>
	<g>
		<path d="M21.6,101.1c0,0.1,0,0.3-0.1,0.4c-0.1,0.1-0.1,0.3-0.2,0.4c-0.1,0.3-0.2,0.7-0.3,1c0,0.1,0.2,0.2,0.2,0.1
			c0.1-0.3,0.2-0.7,0.3-1c0.1-0.2,0.1-0.3,0.2-0.4c0.1-0.1,0.1-0.3,0.1-0.4C21.8,101,21.6,101,21.6,101.1L21.6,101.1z"/>
	</g>
</g>
<g>
	<g>
		<path d="M21.5,101.1c-0.1,0.3-0.2,0.5-0.3,0.8c-0.1,0.3-0.2,0.5-0.3,0.8c-0.2,0.6-0.3,1.1-0.4,1.7c0,0.1,0.2,0.1,0.2,0
			c0.1-0.6,0.2-1.2,0.4-1.7c0.1-0.3,0.2-0.5,0.3-0.8c0.1-0.3,0.2-0.5,0.3-0.8C21.8,101,21.6,101,21.5,101.1L21.5,101.1z"/>
	</g>
</g>
<g>
	<g>
		<path d="M74.9,69.2c0.3-0.3,0.7-0.4,1.1-0.6c0.4-0.2,0.8-0.4,1-0.7c0.1-0.1-0.1-0.3-0.1-0.1c-0.5,0.7-1.5,0.7-2.1,1.3
			C74.7,69.1,74.8,69.3,74.9,69.2L74.9,69.2z"/>
	</g>
</g>
<g>
	<g>
		<path d="M76.7,67.3c0.1,0.3,0.1,0.6,0.1,0.9c0,0.1,0.2,0.1,0.2,0c0-0.2,0-0.4,0.1-0.5c-0.1,0-0.1,0-0.2,0c0,0.2,0,0.3,0.1,0.5
			c0.1,0.1,0.2,0.1,0.2-0.1c0-0.1,0-0.2-0.1-0.4c0-0.1-0.2-0.1-0.2,0c0,0.2,0,0.4,0.1,0.5c0.1,0.1,0.2,0.1,0.2-0.1
			c0-0.1,0-0.2-0.1-0.4c0-0.1-0.1-0.1-0.1-0.1c-0.1,0-0.1,0.1-0.1,0.1c0,0.1,0.1,0.3,0.2,0.4c0,0.1,0.2,0,0.2,0c0-0.1,0-0.3,0-0.4
			c0-0.1-0.2-0.1-0.2,0.1c0,0.1,0.1,0.2,0.1,0.3c0.1,0.1,0.2,0,0.2-0.1c0,0,0,0,0-0.1c0,0,0-0.1,0-0.1c0-0.1-0.2,0-0.2,0.1
			c0,0,0,0.1,0,0.1c0,0,0,0,0,0c0,0.1,0,0.1,0.1,0.1c0.1,0,0.1,0,0.1-0.1c0,0,0-0.1,0-0.1c0,0,0,0,0,0c-0.1,0-0.1,0-0.2,0.1
			c0,0,0,0,0,0.1c0,0,0,0.1,0,0.1c0.1,0,0.1-0.1,0.2-0.1c-0.1-0.1-0.1-0.2-0.1-0.3c-0.1,0-0.1,0-0.2,0.1c0,0.1,0.1,0.2,0,0.3
			c0.1,0,0.1,0,0.2,0c-0.1-0.1-0.1-0.2-0.1-0.3c-0.1,0-0.1,0-0.2,0.1c0,0.1,0.1,0.2,0.1,0.3c0.1,0,0.1,0,0.2-0.1
			c-0.1-0.1-0.1-0.3-0.1-0.4c-0.1,0-0.1,0-0.2,0c0,0.1,0.1,0.2,0.1,0.3c0.1,0,0.1,0,0.2-0.1c-0.1-0.1-0.1-0.2-0.1-0.4
			c0-0.1-0.2-0.1-0.2,0c0,0.2,0,0.3-0.1,0.5c0.1,0,0.1,0,0.2,0c-0.1-0.3-0.1-0.6-0.1-0.9C76.9,67.1,76.7,67.2,76.7,67.3L76.7,67.3z"
			/>
	</g>
</g>
<g>
	<g>
		<path d="M74.7,69.4c0.1,0,0.2,0,0.2,0c0.1,0,0.2-0.1,0.2-0.1c0,0,0,0,0-0.1c0,0,0-0.1,0-0.1c0,0,0,0-0.1,0c0,0-0.1,0-0.1,0
			c0,0,0,0,0,0c0,0,0,0,0,0c0,0,0,0,0,0c0,0,0,0-0.1,0c0,0-0.1,0-0.1,0c0,0-0.1,0-0.1,0c0,0,0,0,0,0c0,0,0,0,0,0c0,0,0,0,0,0
			c0,0,0,0,0,0c0,0,0,0,0,0c0,0,0,0,0,0c0,0-0.1,0-0.1,0c0,0,0,0,0,0.1C74.6,69.3,74.6,69.4,74.7,69.4L74.7,69.4z"/>
	</g>
</g>
<g>
	<g>
		<path d="M74.7,69.5c0.4,0,0.8-0.2,1.1-0.5c0.3-0.2,0.6-0.5,0.9-0.8c0.1-0.1-0.1-0.2-0.1-0.1c-0.3,0.3-0.6,0.5-0.9,0.7
			c-0.3,0.2-0.7,0.4-1,0.4C74.6,69.3,74.6,69.5,74.7,69.5L74.7,69.5z"/>
	</g>
</g>
<g>
	<g>
		<path d="M75.1,69.3c0.2-0.2,0.5-0.3,0.7-0.4c0.1,0,0.1-0.1,0-0.1c0-0.1-0.1-0.1-0.1,0c-0.3,0.1-0.5,0.3-0.7,0.4c0,0-0.1,0.1,0,0.1
			C75,69.3,75,69.3,75.1,69.3L75.1,69.3z"/>
	</g>
</g>
<g>
	<g>
		<path d="M74.7,69.2c0.7-0.5,1.6-0.7,2.3-1.2c0.1-0.1,0-0.2-0.1-0.1c-0.7,0.5-1.6,0.7-2.3,1.2C74.4,69.1,74.5,69.3,74.7,69.2
			L74.7,69.2z"/>
	</g>
</g>
<g>
	<g>
		<path d="M72.7,67.2c0.1,0.1,0.2,0.1,0.4,0.1c0.1,0,0.1,0,0.1-0.1c0-0.1,0-0.1-0.1-0.1c0,0-0.1,0-0.1,0c0,0,0,0,0,0
			c-0.1,0-0.1,0-0.1,0c0,0,0,0,0,0c0,0,0,0-0.1,0c0,0-0.1,0-0.1,0C72.6,67.1,72.6,67.2,72.7,67.2L72.7,67.2z"/>
	</g>
</g>
<g>
	<g>
		<path d="M72.7,67.2C72.7,67.2,72.8,67.2,72.7,67.2C72.8,67.2,72.8,67.2,72.7,67.2C72.8,67.2,72.8,67.2,72.7,67.2
			c0.1,0,0.1,0,0.2,0c0.1,0,0.2,0,0.2,0c0.1,0,0.1,0,0.1-0.1c0-0.1,0-0.1-0.1-0.1c0,0,0,0-0.1,0c0,0,0,0,0,0c0,0,0,0,0,0
			c0,0,0,0,0,0c0,0-0.1,0-0.1,0c-0.1,0-0.1,0-0.2,0c-0.1,0-0.1,0-0.1,0.1C72.6,67.2,72.7,67.2,72.7,67.2L72.7,67.2z"/>
	</g>
</g>
<g>
	<g>
		<path d="M72.5,67.5c0.1,0,0.1,0.1,0.2,0.1c0.1,0,0.2,0,0.3,0c0,0,0.1,0,0.1-0.1c0,0,0-0.1,0-0.1c0,0,0,0,0,0c0,0,0,0,0,0
			c0,0,0,0,0,0c0,0,0,0,0,0c0,0,0-0.1,0-0.1c0-0.1-0.1-0.1-0.1-0.1c-0.1,0-0.1,0.1-0.1,0.1c0,0,0,0,0,0c0,0,0,0,0,0c0,0,0,0,0,0
			c0,0,0,0,0,0.1c0,0.1,0,0.1,0,0.1c0-0.1,0-0.1,0.1-0.2c0,0,0,0,0,0c0,0,0,0,0,0c0,0,0,0,0,0c0,0,0,0,0,0c0,0,0,0,0,0c0,0,0,0,0,0
			c0,0,0,0,0,0c0,0,0,0,0,0c0,0,0,0,0,0c0,0,0,0,0,0c0,0,0,0,0,0c0,0-0.1,0-0.1,0c0,0-0.1,0-0.1,0C72.5,67.5,72.5,67.5,72.5,67.5
			L72.5,67.5z"/>
	</g>
</g>
<g>
	<g>
		<path d="M59.3,73.7c0.3,0.3,0.5,0.5,0.8,0.8c0,0,0.1,0,0.1,0c0,0,0-0.1,0-0.1c-0.3-0.2-0.5-0.5-0.8-0.8
			C59.3,73.5,59.2,73.6,59.3,73.7L59.3,73.7z"/>
	</g>
</g>
<g>
	<g>
		<path d="M59.4,73.6c0.1,0.2,0.2,0.3,0.4,0.5c0.1,0.2,0.3,0.3,0.4,0.5c0,0,0.1,0,0.1,0c0-0.1,0-0.1,0-0.1c-0.3-0.2-0.5-0.6-0.8-0.9
			c0,0-0.1,0-0.1,0C59.3,73.5,59.3,73.6,59.4,73.6L59.4,73.6z"/>
	</g>
</g>
<g>
	<g>
		<path d="M68.1,73.7c0.4,0.1,0.8,0.2,1.2,0.3c0.1,0,0.2-0.2,0.1-0.2c-0.4-0.1-0.8-0.2-1.2-0.3c-0.1,0-0.1,0-0.1,0.1
			C68,73.6,68,73.7,68.1,73.7L68.1,73.7z"/>
	</g>
</g>
<g>
	<g>
		<path d="M69.3,73.4c0.6,0.2,1.2,0.2,1.8,0.5c0.1,0.1,0.2-0.2,0.1-0.2c-0.6-0.2-1.2-0.3-1.8-0.5C69.3,73.1,69.2,73.3,69.3,73.4
			L69.3,73.4z"/>
	</g>
</g>
<g>
	<g>
		<path d="M74.1,75.3c0.1,0.5,0.1,1,0.3,1.4c0,0.1,0.2,0.1,0.2-0.1c-0.2-0.4-0.2-0.9-0.3-1.3c0-0.1,0-0.1-0.1-0.1
			C74.2,75.2,74.1,75.3,74.1,75.3L74.1,75.3z"/>
	</g>
</g>
<g>
	<g>
		<path d="M74.3,75.3c0.4,0.6,0.5,1.3,0.9,1.9c0.1,0.1,0.3,0,0.2-0.1c-0.4-0.6-0.5-1.3-0.9-1.9C74.4,75,74.3,75.1,74.3,75.3
			L74.3,75.3z"/>
	</g>
</g>
<g>
	<g>
		<path d="M74.5,75.7c0.2,0.4,0.3,0.8,0.5,1.2c0.1,0,0.1-0.1,0.2-0.1c-0.1-0.3-0.2-0.6-0.4-0.9c0-0.1-0.2,0-0.2,0.1
			c0,0.3,0.1,0.6,0.2,0.9c0.1,0,0.1-0.1,0.2-0.1c-0.1-0.2-0.2-0.4-0.3-0.6c0-0.1-0.2,0-0.2,0.1c0,0.2,0.1,0.3,0.1,0.5
			c0,0.1,0.2,0.1,0.2-0.1c0-0.1-0.1-0.3-0.1-0.4c0-0.1-0.2-0.1-0.2,0c0,0.1,0,0.2,0,0.3c0,0.1,0.2,0.1,0.2-0.1c0-0.1,0-0.1,0-0.1
			c-0.1,0-0.1,0-0.2,0c0.1,0.1,0.1,0.2,0.1,0.3c0.1,0,0.1,0,0.2-0.1c0-0.1-0.1-0.3-0.1-0.5c-0.1,0-0.1,0-0.2,0.1
			c0.1,0.2,0.2,0.4,0.3,0.6c0,0.1,0.1,0.1,0.1,0c0.1,0,0.1-0.1,0-0.1c-0.1-0.2-0.2-0.5-0.2-0.8c-0.1,0-0.1,0-0.2,0.1
			c0.1,0.3,0.2,0.6,0.4,0.9c0.1,0.1,0.2,0,0.2-0.1c-0.2-0.4-0.3-0.9-0.5-1.3c0-0.1-0.1-0.1-0.1,0C74.4,75.6,74.4,75.7,74.5,75.7
			L74.5,75.7z"/>
	</g>
</g>
<g>
	<g>
		<path d="M77.4,70.6c0.3,0.4,0.5,0.9,0.5,1.4c0,0.1,0.2,0.1,0.2-0.1c-0.1-0.5-0.3-1-0.6-1.4C77.5,70.3,77.4,70.4,77.4,70.6
			L77.4,70.6z"/>
	</g>
</g>
<g>
	<g>
		<path d="M85.4,64.9c0.1,0,0.2,0,0.3-0.1c0.1,0,0.1,0,0.2-0.1c0,0,0,0,0,0c0,0,0,0,0,0c0,0,0,0,0,0c0,0,0.1,0,0.1,0
			c0.1,0,0.1-0.1,0.1-0.1c0-0.1-0.1-0.1-0.1-0.1c-0.1,0-0.2,0.1-0.3,0.1c0,0,0,0,0,0c0,0,0,0,0,0c0,0,0,0,0,0c0,0-0.1,0-0.1,0
			c0,0-0.1,0-0.1,0c0,0,0,0,0,0c0,0,0,0,0,0c0,0,0,0,0,0c-0.1,0-0.1,0-0.1,0.1C85.3,64.8,85.4,64.9,85.4,64.9L85.4,64.9z"/>
	</g>
</g>
<g>
	<g>
		<path d="M85.5,64.8c0.1,0,0.2,0,0.2-0.1c0,0,0.1,0,0.1,0c0,0,0,0,0,0c0,0,0,0,0,0c0,0,0,0,0,0c0,0,0,0,0.1,0c0.1,0,0.1,0,0.1-0.1
			c0-0.1,0-0.1-0.1-0.1c-0.2,0-0.4,0.1-0.5,0.1c-0.1,0-0.1,0.1-0.1,0.1C85.4,64.8,85.5,64.8,85.5,64.8L85.5,64.8z"/>
	</g>
</g>
<g>
	<g>
		<path d="M85.6,65c0.3,0.1,0.6,0.1,0.9,0c0.1,0,0.1-0.1,0.1-0.1c0-0.1-0.1-0.1-0.1-0.1c-0.1,0-0.2,0-0.4,0c-0.1,0-0.1,0-0.2,0
			c0,0,0,0,0,0c0,0,0,0,0,0c0,0,0,0,0,0c0,0,0,0,0,0c0,0,0,0,0,0c0,0,0,0,0,0c-0.1,0-0.1,0-0.1,0C85.5,64.9,85.5,65,85.6,65L85.6,65
			z"/>
	</g>
</g>
<g>
	<g>
		<path d="M85.7,65c0.1,0,0.3,0,0.4,0c0.1,0,0.1,0,0.1-0.1c0-0.1,0-0.1-0.1-0.1c-0.1,0-0.2-0.1-0.3-0.1c0,0.1,0,0.1,0,0.2
			c0,0,0,0,0.1,0c0,0,0,0,0,0c0,0,0,0,0,0c0,0,0,0,0,0c0,0,0,0,0,0c0,0,0,0,0.1,0c0,0,0,0,0,0c0,0,0,0,0,0c0,0,0,0,0,0
			c0.1,0,0.1,0,0.1-0.1c0-0.1,0-0.1-0.1-0.1c-0.1,0-0.2,0-0.4,0c0,0-0.1,0.1-0.1,0.1c0,0.1,0,0.1,0.1,0.1c0.1,0,0.2,0.1,0.3,0.1
			c0-0.1,0-0.1,0-0.2c-0.1,0-0.3,0-0.4,0c-0.1,0-0.1,0-0.1,0.1C85.6,64.9,85.7,65,85.7,65L85.7,65z"/>
	</g>
</g>
<g>
	<g>
		<path d="M103,74c0.1-0.1,0.2-0.2,0.3-0.4c0.1-0.1,0.2-0.2,0.4-0.3c0,0,0-0.1,0-0.1c0,0-0.1,0-0.1,0c-0.3,0.2-0.5,0.4-0.7,0.7
			c0,0,0,0.1,0,0.1C102.9,74.1,103,74.1,103,74L103,74z"/>
	</g>
</g>
<g>
	<g>
		<path d="M103.1,74.1c0.4-0.6,1.1-1,1.6-1.5c0.1-0.1-0.1-0.2-0.1-0.1c-0.5,0.5-1.2,0.9-1.7,1.5C102.8,74.1,103,74.2,103.1,74.1
			L103.1,74.1z"/>
	</g>
</g>
<g>
	<g>
		<path d="M103.2,75.2c0.2,0.1,0.5,0.1,0.7,0c0.2-0.1,0.4-0.2,0.7-0.3c0.1-0.1,0-0.2-0.1-0.2c-0.2,0.1-0.4,0.2-0.6,0.3
			c-0.2,0.1-0.4,0.2-0.6,0.1C103.2,74.9,103.1,75.1,103.2,75.2L103.2,75.2z"/>
	</g>
</g>
<g>
	<g>
		<path d="M103.1,75.3c0.3,0.6,1.1,0,1.5-0.3c0.1-0.1,0.2-0.2,0.3-0.2c0.1-0.1,0-0.3-0.1-0.2c-0.2,0.2-0.5,0.4-0.8,0.5
			c-0.1,0.1-0.3,0.2-0.4,0.2c-0.1,0-0.2,0-0.3-0.1C103.3,75.1,103.1,75.2,103.1,75.3L103.1,75.3z"/>
	</g>
</g>
<g>
	<g>
		<path d="M103.5,75.4c0.2,0,0.3-0.1,0.5-0.2c0,0,0.1-0.1,0-0.1c0,0-0.1-0.1-0.1,0c0,0-0.1,0-0.1,0.1c0,0,0,0,0,0c0,0,0,0,0,0
			c0,0,0,0,0,0c0,0-0.1,0-0.1,0c0,0,0,0,0,0c0,0,0,0,0,0c0,0,0,0,0,0c0,0,0,0-0.1,0c-0.1,0-0.1,0-0.1,0.1
			C103.4,75.4,103.5,75.4,103.5,75.4L103.5,75.4z"/>
	</g>
</g>
<g>
	<g>
		<path d="M91.2,74c0.1,0.4,0.3,0.9,0.5,1.3c0.2,0.4,0.5,0.8,0.9,1c0.1,0.1,0.2-0.1,0.1-0.2c-0.4-0.2-0.6-0.6-0.8-1
			c-0.2-0.4-0.4-0.8-0.5-1.2C91.4,73.8,91.2,73.9,91.2,74L91.2,74z"/>
	</g>
</g>
<g>
	<g>
		<path d="M90.7,68.6C90.7,68.6,90.7,68.5,90.7,68.6C90.7,68.6,90.7,68.5,90.7,68.6C90.7,68.5,90.7,68.5,90.7,68.6
			C90.7,68.5,90.7,68.5,90.7,68.6C90.7,68.5,90.7,68.5,90.7,68.6C90.7,68.5,90.7,68.5,90.7,68.6c0-0.1,0-0.1,0-0.1c0,0,0,0,0,0
			c0,0,0,0,0,0c0,0,0,0,0-0.1c0,0,0,0,0,0c0,0,0,0,0,0c0,0,0,0,0,0c0,0,0,0,0-0.1c0,0,0-0.1,0.1-0.1c0,0,0,0,0,0c0,0,0,0,0,0
			c0,0,0,0,0,0c0,0,0,0,0,0c0,0,0,0,0,0c0,0,0,0,0,0c0,0,0,0,0,0c0,0,0,0,0,0c0,0,0,0,0,0c0.1,0,0.1-0.1,0.1-0.1
			c0-0.1-0.1-0.1-0.1-0.1c-0.2,0.1-0.3,0.2-0.4,0.4c-0.1,0.2-0.1,0.4,0,0.6c0,0,0.1,0,0.1,0C90.7,68.7,90.7,68.6,90.7,68.6
			L90.7,68.6z"/>
	</g>
</g>
<g>
	<g>
		<path d="M90.7,68.7c0,0,0-0.1,0-0.1c0,0,0,0,0-0.1c0,0,0,0,0,0c0,0,0,0,0,0c0,0,0-0.1,0-0.1c0,0,0,0,0-0.1c0,0,0,0,0,0
			c0,0,0,0,0,0c0,0,0,0,0,0c0,0,0,0,0,0c0,0,0,0,0,0c0,0,0,0,0,0c0,0,0,0,0,0c0,0,0,0,0,0c0,0,0,0,0,0c0,0,0,0,0,0
			c0,0,0.1,0,0.1-0.1c0.1,0,0.1-0.1,0-0.1c0-0.1-0.1-0.1-0.1,0c-0.2,0.1-0.3,0.2-0.4,0.4c-0.1,0.2-0.1,0.4-0.1,0.5
			C90.5,68.8,90.7,68.8,90.7,68.7L90.7,68.7z"/>
	</g>
</g>
<g>
	<g>
		<path d="M90.6,68.3c0.3-0.3,0.8-0.4,1.2-0.6c0.5-0.2,0.9-0.4,1.4-0.6c0.1,0,0.1-0.2-0.1-0.2c-0.5,0.2-1,0.4-1.5,0.6
			c-0.4,0.1-0.9,0.3-1.2,0.6C90.4,68.2,90.5,68.4,90.6,68.3L90.6,68.3z"/>
	</g>
</g>
<g>
	<g>
		<path d="M90.6,68.4c0.9-0.5,1.9-0.8,2.7-1.2c0.1-0.1,0-0.2-0.1-0.2c-0.9,0.5-1.9,0.7-2.7,1.2C90.3,68.3,90.5,68.5,90.6,68.4
			L90.6,68.4z"/>
	</g>
</g>
<g>
	<g>
		<path d="M91.4,67.6c0.4-0.3,0.9-0.5,1.3-0.7c0.1,0,0.1-0.3-0.1-0.2c-0.5,0.2-0.9,0.4-1.4,0.7C91.2,67.5,91.3,67.7,91.4,67.6
			L91.4,67.6z"/>
	</g>
</g>
<g>
	<g>
		<path d="M91.6,67.8c0.5-0.3,1.1-0.4,1.5-0.8c0.1-0.1,0-0.2-0.1-0.1c-0.4,0.4-1,0.5-1.4,0.8C91.4,67.7,91.5,67.9,91.6,67.8
			L91.6,67.8z"/>
	</g>
</g>
<g>
	<g>
		<path d="M91.7,67.5c0.4-0.2,0.7-0.4,1.1-0.5c0.1,0,0.1-0.1,0.1-0.1c0-0.1-0.1-0.1-0.1-0.1c-0.4,0.2-0.8,0.3-1.2,0.5
			C91.5,67.4,91.6,67.6,91.7,67.5L91.7,67.5z"/>
	</g>
</g>
<g>
	<g>
		<path d="M90,68.1C90,68.1,90,68.1,90,68.1C90,68.1,90,68.1,90,68.1C90,68.1,90,68.1,90,68.1C90,68.1,90.1,68,90,68.1
			c0.2-0.2,0.3-0.2,0.4-0.2c0.3-0.1,0.6-0.2,0.9-0.3c0.1,0,0.2-0.1,0.3-0.1c0.1-0.1,0-0.2-0.1-0.2c0,0,0,0,0,0c0,0,0,0,0,0
			c0,0,0,0-0.1,0c-0.1,0-0.1,0-0.2,0.1c-0.1,0-0.3,0.1-0.4,0.1c-0.3,0.1-0.6,0.2-0.8,0.3c-0.1,0.1-0.2,0.2-0.1,0.3
			C89.9,68.3,90.1,68.2,90,68.1L90,68.1z"/>
	</g>
</g>
<g>
	<g>
		<path d="M92.8,68.4c0-0.4,0.1-0.7,0.2-1.1c0-0.1,0-0.1-0.1-0.1c-0.1,0-0.1,0-0.1,0.1c-0.1,0.4-0.2,0.7-0.2,1.1
			C92.6,68.5,92.8,68.5,92.8,68.4L92.8,68.4z"/>
	</g>
</g>
<g>
	<g>
		<path d="M93.1,68.7c0.1-0.5,0.1-1,0.2-1.5c0-0.1-0.2-0.2-0.2-0.1c-0.1,0.5-0.2,1-0.2,1.5c0,0.1,0,0.1,0.1,0.1
			C93,68.7,93.1,68.7,93.1,68.7L93.1,68.7z"/>
	</g>
</g>
<g>
	<g>
		<path d="M92.9,68.4c0-0.4,0.1-0.8,0.2-1.2c0-0.1-0.2-0.2-0.2-0.1c-0.1,0.4-0.2,0.8-0.2,1.2C92.7,68.5,92.9,68.5,92.9,68.4
			L92.9,68.4z"/>
	</g>
</g>
<g>
	<g>
		<path d="M93,68.2c0.1-0.3,0.1-0.6,0.1-1c0-0.1,0-0.1-0.1-0.1c-0.1,0-0.1,0-0.1,0.1c-0.1,0.3-0.1,0.7-0.1,1
			C92.8,68.3,93,68.4,93,68.2L93,68.2z"/>
	</g>
</g>
<g>
	<g>
		<path d="M100.8,68.9C100.8,68.9,100.7,69,100.8,68.9c-0.1,0.1-0.1,0.1-0.1,0.1c0,0,0,0.1,0,0.1c0,0,0,0,0.1,0c0,0,0.1,0,0.1,0
			c0,0,0,0,0-0.1c0,0,0-0.1,0-0.1C100.9,68.9,100.9,68.9,100.8,68.9C100.8,68.9,100.8,68.9,100.8,68.9
			C100.8,68.9,100.8,68.9,100.8,68.9C100.9,68.9,100.9,68.9,100.8,68.9c0.1,0,0.1,0,0.1,0c0,0,0,0,0,0c0,0,0,0,0,0c0,0,0,0,0,0
			c0,0,0,0,0,0c0,0,0,0,0,0c0,0,0,0,0,0c0,0,0,0,0,0c0,0,0,0,0,0c0,0,0,0,0,0c0,0,0,0,0,0c0,0,0,0,0,0c0,0,0,0,0,0c0,0,0,0,0,0
			c0,0,0,0,0,0c0,0,0,0,0,0c0,0,0,0,0-0.1c0,0,0-0.1,0-0.1C100.9,68.9,100.9,68.9,100.8,68.9C100.8,68.9,100.8,68.9,100.8,68.9
			L100.8,68.9z"/>
	</g>
</g>
<g>
	<g>
		<path d="M100.2,68c0.3-0.1,0.5-0.3,0.7-0.4c0,0,0.1-0.1,0-0.1c0,0-0.1-0.1-0.1,0c-0.2,0.2-0.5,0.3-0.7,0.4c-0.1,0-0.1,0.1,0,0.1
			C100.1,68,100.1,68,100.2,68L100.2,68z"/>
	</g>
</g>
<g>
	<g>
		<path d="M100.2,67.9c0.2-0.2,0.5-0.2,0.7-0.4c0,0,0.1-0.1,0-0.1c0,0-0.1-0.1-0.1,0c-0.2,0.2-0.5,0.2-0.7,0.4c0,0-0.1,0.1,0,0.1
			C100.1,67.9,100.1,68,100.2,67.9L100.2,67.9z"/>
	</g>
</g>
<g>
	<g>
		<path d="M99.9,67.1c0.2,0.2,0.6,0.3,0.9,0.4c0.1,0,0.2-0.2,0.1-0.2c-0.1,0-0.3-0.1-0.4-0.1c-0.1,0-0.1-0.1-0.2-0.1
			c0,0-0.1,0-0.1-0.1c0,0,0,0,0,0c0,0,0,0,0,0c0,0,0,0,0,0c0,0-0.1,0-0.1,0C99.9,67,99.9,67.1,99.9,67.1L99.9,67.1z"/>
	</g>
</g>
<g>
	<g>
		<path d="M99.9,67.2c0.3,0.1,0.6,0.2,0.8,0.3c0.1,0,0.1,0,0.1-0.1c0-0.1,0-0.1-0.1-0.1c-0.3-0.1-0.5-0.2-0.8-0.3
			c-0.1,0-0.1,0-0.1,0C99.9,67.1,99.9,67.2,99.9,67.2L99.9,67.2z"/>
	</g>
</g>
<g>
	<g>
		<path d="M94.4,71.6c-0.1,0-0.1,0.1-0.2,0.2c0,0.1,0,0.1,0,0.2c0,0.1,0.1,0.1,0.1,0.1c0.1,0,0.1,0.1,0.2,0.1c0.1,0,0.2,0,0.2,0
			c0,0,0,0,0.1,0c0,0,0-0.1,0-0.1c0-0.1-0.1-0.1-0.1-0.1c0,0,0,0,0,0c0,0,0,0,0,0c0,0,0,0,0,0c0,0,0,0,0,0c0,0,0,0,0,0c0,0,0,0,0,0
			c0,0,0,0,0,0c0,0,0,0-0.1,0c0,0,0,0,0,0c0,0,0,0,0,0c0,0,0,0,0,0c0,0,0,0,0,0c0,0,0,0,0,0c0,0,0,0,0,0c0,0,0,0,0,0c0,0,0,0,0,0
			c0,0,0,0,0,0c0,0,0,0,0,0c0,0,0,0,0,0c0,0,0,0,0,0c0,0,0,0,0,0c0,0,0,0,0,0c0,0,0,0,0,0c0,0,0,0,0,0c0,0,0,0,0,0c0,0,0,0,0,0
			c0,0,0,0,0,0c0,0,0,0,0,0c0,0,0,0,0,0c0,0,0,0,0,0c0,0,0,0,0,0c0,0,0,0,0,0c0,0,0,0,0,0c0,0,0,0,0,0c0,0,0,0,0,0c0,0,0,0,0,0
			c0,0,0.1-0.1,0-0.1C94.5,71.6,94.4,71.6,94.4,71.6L94.4,71.6z"/>
	</g>
</g>
<g>
	<g>
		<path d="M97.8,70.2c-0.1,0.1-0.2,0.1-0.2,0.3c0,0.1,0,0.2,0.1,0.2c0.1,0.1,0.3,0.2,0.5,0.1c0.1,0,0.2-0.1,0.3-0.2c0,0,0-0.1,0-0.1
			c-0.1,0-0.1,0-0.1,0c0,0,0,0,0,0c0,0,0,0,0,0c0,0,0,0,0,0c0,0,0,0,0,0c0,0,0,0,0,0c0,0,0,0,0,0c0,0,0,0,0,0c0,0,0,0,0,0
			c0,0,0,0,0,0c0,0,0,0,0,0c0,0,0,0,0,0c0,0,0,0,0,0c0,0,0,0-0.1,0c0,0,0,0,0,0c0,0,0,0,0,0c0,0,0,0,0,0c0,0,0,0,0,0c0,0,0,0,0,0
			c0,0,0,0,0,0c0,0,0,0,0,0c0,0,0,0,0,0c0,0,0,0,0,0c0,0,0,0,0,0c0,0,0,0,0,0c0,0,0,0,0,0c0,0,0,0,0,0c0,0,0,0,0,0c0,0,0,0,0,0
			c0,0,0,0,0,0c0,0,0,0,0,0c0,0,0,0,0,0c0,0,0,0,0,0c0,0,0,0,0,0c0,0,0,0,0,0c0,0,0,0,0,0c0,0,0,0,0,0c0,0,0,0,0,0c0,0,0,0,0,0
			c0,0,0,0,0,0c0,0,0,0,0,0c0,0,0,0,0,0c0,0,0,0,0,0c0,0,0,0,0,0c0,0,0.1-0.1,0-0.1C97.9,70.1,97.8,70.1,97.8,70.2L97.8,70.2z"/>
	</g>
</g>
<g>
	<g>
		<path d="M98.1,70c-0.1,0.1-0.1,0.1-0.2,0.2c0,0.1,0,0.2,0.1,0.3c0,0,0.1,0,0.1,0c0,0,0-0.1,0-0.1c0,0,0,0,0,0c0,0,0,0,0,0
			c0,0,0,0,0,0c0,0,0,0,0,0c0,0,0,0,0,0c0,0,0,0,0,0c0,0,0,0,0,0c0,0,0,0,0,0c0,0,0,0,0-0.1c0,0,0,0,0,0c0,0,0,0,0-0.1c0,0,0,0,0,0
			c0,0,0,0,0.1-0.1c0,0,0,0,0,0c0,0,0,0,0,0c0,0,0,0,0-0.1c0,0,0-0.1,0-0.1C98.2,70,98.1,70,98.1,70L98.1,70z"/>
	</g>
</g>
<g>
	<g>
		<path d="M100.7,69c-0.1,0-0.1,0-0.1,0.1c0,0-0.1,0.1-0.1,0.2c0,0.1,0,0.2,0.1,0.3c0.1,0.1,0.1,0.2,0.2,0.2
			c0.1,0.1,0.2,0.1,0.3,0.1c0.1,0,0.2-0.2,0.2-0.3c0,0,0-0.1,0-0.1c0,0,0,0-0.1,0c-0.1,0-0.1,0-0.1,0.1c0,0,0,0,0,0.1c0,0,0,0,0,0
			c0,0,0,0,0,0c0,0,0,0,0,0c0,0,0,0,0,0c0,0,0,0,0,0c0,0,0,0,0,0c0,0,0,0,0,0c0,0,0,0,0,0c0,0,0,0,0,0c0,0,0,0,0,0c0,0,0,0,0,0
			c0,0,0,0,0,0c0,0,0,0,0,0c0,0,0,0,0,0c0,0,0,0,0,0c0,0,0,0,0,0c0,0,0,0,0,0c0,0,0,0,0,0c0,0,0,0,0,0c0,0,0,0,0,0c0,0,0,0,0,0
			c0,0,0,0,0,0c0,0,0,0,0,0c0,0,0,0,0,0c0,0,0,0,0,0c0,0,0,0,0,0c0,0,0,0,0,0c0,0,0,0,0,0c0,0,0,0,0,0c0,0,0,0,0,0c0,0,0,0,0-0.1
			c0,0,0,0,0,0c0,0,0,0,0,0c0,0,0,0,0,0c0,0,0,0,0,0c0,0,0,0,0,0c0,0,0,0,0,0c0,0,0,0,0,0c0,0,0,0,0,0c0,0,0,0,0,0c0,0,0,0,0,0
			c0,0,0,0,0,0c0,0,0,0,0,0c0,0,0,0,0,0c0,0,0,0,0,0c0,0,0,0,0,0c0,0,0,0,0,0c0,0,0,0,0,0c0.1,0,0.1-0.1,0.1-0.1
			C100.9,69,100.8,69,100.7,69L100.7,69z"/>
	</g>
</g>
<g>
	<g>
		<path d="M100.7,69.2c0,0.1,0.1,0.2,0.2,0.3c0,0,0.1,0,0.1,0c0,0,0.1,0,0.1,0c0,0,0,0,0-0.1c0,0,0-0.1,0-0.1c0,0,0,0,0-0.1
			c0,0,0,0,0,0c0-0.1-0.1-0.1-0.1-0.2c0,0,0,0,0,0c0,0,0-0.1,0-0.1c0,0,0-0.1,0-0.1c0,0-0.1,0-0.1,0
			C100.7,69.1,100.7,69.1,100.7,69.2C100.7,69.2,100.7,69.2,100.7,69.2L100.7,69.2z"/>
	</g>
</g>
<g>
	<g>
		<path d="M105.3,67.8c-0.1-0.2-0.2-0.5-0.4-0.6c0,0-0.1,0-0.1,0c0,0.1,0,0.1,0,0.1c0,0,0,0,0,0c0,0,0,0,0,0c0,0,0,0,0,0
			c0,0,0,0,0,0c0,0,0,0,0,0c0,0,0,0,0,0c0,0,0.1,0.1,0.1,0.1c0.1,0.1,0.1,0.2,0.2,0.3c0,0,0,0,0.1,0c0,0,0.1,0,0.1,0
			C105.3,67.9,105.3,67.8,105.3,67.8L105.3,67.8z"/>
	</g>
</g>
<g>
	<g>
		<path d="M105.5,67.8c0-0.1,0-0.2-0.1-0.3c0-0.1-0.1-0.2-0.2-0.3c0,0-0.1,0-0.1,0c0,0,0,0.1,0,0.1c0,0,0,0,0,0c0,0,0,0,0,0
			c0,0,0,0,0,0c0,0,0,0,0,0.1c0,0,0,0,0,0c0,0,0,0,0,0c0,0,0,0.1,0,0.1c0,0,0,0,0,0c0,0,0,0,0,0c0,0,0,0,0,0c0,0,0,0,0,0.1
			c0,0.1,0,0.1,0.1,0.1C105.5,67.9,105.5,67.8,105.5,67.8L105.5,67.8z"/>
	</g>
</g>
<g>
	<g>
		<path d="M105.5,67.8c-0.1-0.2-0.2-0.4-0.4-0.6c0,0-0.1,0-0.1,0c0,0,0,0.1,0,0.1c0,0,0,0,0.1,0.1c0,0,0,0,0,0c0,0,0,0,0,0
			c0,0,0,0,0,0c0,0,0.1,0.1,0.1,0.1c0.1,0.1,0.1,0.2,0.2,0.3c0,0,0.1,0.1,0.1,0C105.5,67.9,105.5,67.8,105.5,67.8L105.5,67.8z"/>
	</g>
</g>
<g>
	<g>
		<path d="M104.5,67.1c0.3,0.3,0.6,0.6,0.8,0.9c0.1,0.1,0.3,0,0.2-0.1c-0.2-0.4-0.5-0.7-0.8-1C104.5,66.9,104.4,67,104.5,67.1
			L104.5,67.1z"/>
	</g>
</g>
<g>
	<g>
		<path d="M105.7,67.4c0.1,0.2,0.2,0.4,0.3,0.6c0,0,0.1,0.1,0.1,0c0,0,0.1-0.1,0-0.1c-0.1-0.2-0.2-0.4-0.3-0.6c0,0-0.1-0.1-0.1,0
			C105.6,67.3,105.6,67.4,105.7,67.4L105.7,67.4z"/>
	</g>
</g>
<g>
	<g>
		<path d="M105.6,67.4c0.2,0.2,0.3,0.5,0.4,0.8c0,0.1,0.1,0.1,0.1,0.1c0.1,0,0.1-0.1,0.1-0.1c-0.1-0.3-0.3-0.5-0.4-0.8
			c0,0-0.1-0.1-0.1,0C105.6,67.3,105.5,67.4,105.6,67.4L105.6,67.4z"/>
	</g>
</g>
<g>
	<g>
		<path d="M105.8,67.5c0,0,0.1,0.1,0.1,0.1c0,0,0,0,0,0.1c0,0,0,0,0,0c0,0,0,0,0,0c0,0,0,0,0,0c0,0.1,0.1,0.2,0.1,0.3
			c0,0.1,0.1,0.1,0.1,0.1c0.1,0,0.1-0.1,0.1-0.1c0-0.2-0.1-0.4-0.2-0.5c0,0-0.1-0.1-0.1,0C105.8,67.4,105.7,67.5,105.8,67.5
			L105.8,67.5z"/>
	</g>
</g>
<g>
	<g>
		<path d="M105.9,67.5c0,0.1,0.1,0.2,0.1,0.3c0,0,0,0,0,0c0,0,0,0,0,0c0,0,0,0.1,0,0.1c0,0,0,0.1,0,0.1c0,0.1,0.1,0.1,0.1,0.1
			c0.1,0,0.1-0.1,0.1-0.1c-0.1-0.2-0.1-0.4-0.3-0.6c0,0-0.1-0.1-0.1,0C105.9,67.4,105.8,67.4,105.9,67.5L105.9,67.5z"/>
	</g>
</g>
<g>
	<g>
		<path d="M106,67.5c0.1,0.3,0.2,0.5,0.3,0.8c0,0.1,0.1,0.1,0.1,0.1c0.1,0,0.1-0.1,0.1-0.1c-0.1-0.3-0.2-0.6-0.3-0.8
			c0-0.1-0.1-0.1-0.1,0C106,67.4,106,67.5,106,67.5L106,67.5z"/>
	</g>
</g>
<g>
	<g>
		<path d="M105.5,67.3c0.2,0.5,0.6,0.8,0.7,1.3c0,0.1,0.2,0.1,0.2-0.1c-0.1-0.5-0.5-0.9-0.7-1.3C105.6,67.1,105.4,67.2,105.5,67.3
			L105.5,67.3z"/>
	</g>
</g>
<g>
	<g>
		<path d="M106.8,70.7c0.3-0.5,0.3-1.2,0.4-1.8c0-0.1-0.2-0.2-0.2-0.1c-0.1,0.6-0.1,1.2-0.4,1.7C106.6,70.7,106.7,70.8,106.8,70.7
			L106.8,70.7z"/>
	</g>
</g>
<g>
	<g>
		<path d="M108.5,68c0.1,0,0.1,0,0.2-0.1c0.1,0,0.2-0.1,0.3-0.1c0,0,0,0,0-0.1c0,0,0-0.1,0-0.1c0-0.1-0.1-0.1-0.1,0c0,0,0,0,0,0
			c0,0,0,0,0,0c0,0,0,0-0.1,0c0,0-0.1,0-0.1,0c-0.1,0-0.1,0-0.2,0.1c-0.1,0-0.1,0.1-0.1,0.1C108.4,68,108.4,68.1,108.5,68L108.5,68z
			"/>
	</g>
</g>
<g>
	<g>
		<path d="M108.6,68C108.6,68,108.6,68,108.6,68C108.6,68,108.6,68,108.6,68C108.6,68,108.7,68,108.6,68c0.1,0,0.2-0.1,0.2-0.1
			c0.1,0,0.1-0.1,0.2-0.1c0,0,0,0,0-0.1c0,0,0-0.1,0-0.1c0,0,0,0-0.1,0c0,0-0.1,0-0.1,0c0,0,0,0,0,0c0,0,0,0,0,0c0,0,0,0,0,0
			c0,0-0.1,0-0.1,0c-0.1,0-0.1,0.1-0.2,0.1c0,0,0,0,0,0.1c0,0,0,0.1,0,0.1C108.5,68,108.5,68,108.6,68C108.5,68,108.6,68,108.6,68
			L108.6,68z"/>
	</g>
</g>
<g>
	<g>
		<path d="M103.3,67.3c-0.2-0.3-0.3-0.6-0.5-0.9c0,0-0.1,0-0.1,0c0,0,0,0.1,0,0.1c0.2,0.3,0.3,0.6,0.5,0.9
			C103.2,67.5,103.4,67.4,103.3,67.3L103.3,67.3z"/>
	</g>
</g>
<g>
	<g>
		<path d="M103.4,67.5c-0.3-0.4-0.5-0.8-0.7-1.2c0,0-0.1-0.1-0.1,0c0,0-0.1,0.1,0,0.1c0.3,0.4,0.5,0.9,0.8,1.2c0,0,0.1,0,0.1,0
			C103.4,67.6,103.4,67.5,103.4,67.5L103.4,67.5z"/>
	</g>
</g>
<g>
	<g>
		<path d="M103.6,67.6c0-0.2-0.1-0.4-0.1-0.5c-0.1-0.2-0.1-0.4-0.2-0.5c0,0-0.1,0-0.1,0c0,0,0,0.1,0,0.1c0,0,0,0,0,0c0,0,0,0,0,0
			c0,0,0,0,0,0c0,0,0,0.1,0.1,0.1c0,0.1,0.1,0.2,0.1,0.3c0,0.2,0.1,0.3,0.1,0.5c0,0.1,0.1,0.1,0.1,0.1
			C103.6,67.7,103.6,67.7,103.6,67.6L103.6,67.6z"/>
	</g>
</g>
<g>
	<g>
		<path d="M103.5,67.4c-0.1-0.3-0.3-0.7-0.5-1c0,0-0.1-0.1-0.1,0c0,0-0.1,0.1,0,0.1c0.2,0.3,0.3,0.6,0.4,0.9
			C103.4,67.6,103.6,67.6,103.5,67.4L103.5,67.4z"/>
	</g>
</g>
<g>
	<g>
		<path d="M99.2,66.3c0.3,0,0.6-0.1,0.9-0.2c0.3-0.1,0.6-0.3,0.9-0.4c0.1-0.1,0-0.2-0.1-0.2c-0.3,0.1-0.6,0.3-0.8,0.4
			c-0.3,0.1-0.6,0.2-0.9,0.2C99.1,66.1,99.1,66.3,99.2,66.3L99.2,66.3z"/>
	</g>
</g>
<g>
	<g>
		<path d="M99.6,66.7c0.6-0.4,1.3-0.4,1.9-0.7c0.1-0.1,0-0.2-0.1-0.2c-0.6,0.3-1.3,0.4-1.9,0.7C99.3,66.6,99.4,66.8,99.6,66.7
			L99.6,66.7z"/>
	</g>
</g>
<g>
	<g>
		<path d="M99.3,66.4c0.6-0.2,1.1-0.5,1.7-0.6c0.1,0,0.1-0.2-0.1-0.2c-0.6,0.1-1.2,0.4-1.7,0.6C99.1,66.2,99.2,66.4,99.3,66.4
			L99.3,66.4z"/>
	</g>
</g>
<g>
	<g>
		<path d="M99.4,66.5c0.1,0,0.3,0,0.4-0.1c0.1,0,0.2-0.1,0.3-0.1c0.1,0,0.1-0.1,0.1-0.1c0-0.1-0.1-0.1-0.1-0.1
			c-0.1,0-0.2,0.1-0.3,0.1c-0.1,0-0.1,0-0.2,0.1c0,0,0,0,0,0c0,0,0,0,0,0c0,0,0,0,0,0c0,0,0,0,0,0c0,0,0,0,0,0c0,0,0,0,0,0
			c-0.1,0-0.1,0-0.1,0.1C99.3,66.4,99.3,66.5,99.4,66.5L99.4,66.5z"/>
	</g>
</g>
<g>
	<g>
		<path d="M101,66c0.1,0,0.1-0.1,0.2-0.1c0,0,0,0,0,0c0,0,0.1,0,0.1-0.1c0.1,0,0.1-0.1,0.1-0.1c0-0.1-0.1-0.1-0.1-0.1
			c-0.1,0-0.2,0.1-0.4,0.2c0,0-0.1,0.1,0,0.1C100.8,66,100.9,66.1,101,66L101,66z"/>
	</g>
</g>
<g>
	<g>
		<path d="M100.9,65.9c0,0,0.1,0,0.1,0c0,0,0.1,0,0.1-0.1c0,0,0,0,0-0.1c0,0,0-0.1,0-0.1c0,0,0,0-0.1,0c0,0-0.1,0-0.1,0
			c0,0-0.1,0-0.1,0.1c0,0,0,0,0,0c0,0-0.1,0-0.1,0c0,0-0.1,0-0.1,0c0,0,0,0.1,0,0.1C100.8,65.9,100.8,65.9,100.9,65.9
			C100.8,65.9,100.8,65.9,100.9,65.9L100.9,65.9z"/>
	</g>
</g>
<g>
	<g>
		<path d="M108.2,68C108.2,68,108.2,68,108.2,68C108.2,68,108.2,68,108.2,68C108.2,68,108.2,68,108.2,68
			C108.2,68,108.2,67.9,108.2,68C108.2,68,108.2,68,108.2,68C108.2,67.9,108.3,67.9,108.2,68C108.3,67.9,108.2,67.9,108.2,68
			C108.3,67.9,108.3,67.9,108.2,68c0.1-0.1,0.1-0.1,0.1-0.1c0,0,0,0,0,0c0,0,0,0,0,0c0,0,0,0,0,0c0,0,0,0,0,0c0,0,0.1,0,0.1,0
			c0.1,0,0.1,0,0.1-0.1c0-0.1,0-0.1-0.1-0.1c-0.1,0-0.2,0-0.2,0c-0.1,0-0.2,0.1-0.2,0.2c0,0,0,0.1,0,0.1
			C108.1,68.1,108.2,68.1,108.2,68L108.2,68z"/>
	</g>
</g>
<g>
	<g>
		<path d="M108.8,76.3c-0.4,0.2-0.7,0.4-1.1,0.6c-0.1,0-0.1,0.1,0,0.1c0,0.1,0.1,0.1,0.1,0c0.4-0.2,0.7-0.4,1.1-0.6
			c0.1,0,0.1-0.1,0-0.1C108.9,76.3,108.8,76.3,108.8,76.3L108.8,76.3z"/>
	</g>
</g>
<g>
	<g>
		<path d="M109.1,76.3c-0.1,0.2-0.2,0.3-0.4,0.4c-0.1,0.1-0.3,0.3-0.4,0.4c0,0.1,0.1,0.1,0.1,0.2c0,0,0,0,0.1-0.1
			c0.1-0.1-0.1-0.2-0.1-0.1c0,0,0,0-0.1,0.1c-0.1,0.1,0,0.2,0.1,0.2c0.3-0.2,0.6-0.5,0.9-0.9c0,0,0-0.1,0-0.1
			C109.2,76.2,109.2,76.3,109.1,76.3L109.1,76.3z"/>
	</g>
</g>
<g>
	<g>
		<path d="M107.9,77.2c0.3-0.2,0.7-0.4,1-0.6c0.1-0.1,0-0.3-0.1-0.2c-0.3,0.2-0.6,0.3-0.8,0.5c-0.1,0.1,0,0.2,0.1,0.2
			c0.3-0.1,0.6-0.3,0.9-0.5c0-0.1-0.1-0.1-0.1-0.2c-0.2,0.2-0.4,0.3-0.5,0.5c0,0,0,0.1,0,0.1c0,0,0.1,0.1,0.1,0
			c0.2-0.1,0.3-0.2,0.4-0.3c0-0.1-0.1-0.1-0.1-0.2c-0.1,0.1-0.2,0.1-0.3,0.2c0,0-0.1,0.1-0.1,0.1c0,0,0,0.1,0,0.1c0,0,0.1,0,0.1,0
			c0.1,0,0.1-0.1,0.1-0.1c0-0.1-0.1-0.1-0.1-0.1c0,0,0.1,0,0.1,0c0,0,0,0,0,0c0,0,0,0.1,0,0.1c0,0,0,0,0,0c0,0,0,0,0,0c0,0,0,0,0,0
			c0,0,0,0,0,0c0,0,0,0,0,0c0,0,0,0,0.1,0c0.1,0,0.1-0.1,0.2-0.1c0,0,0.1-0.1,0-0.1c0,0-0.1-0.1-0.1,0c-0.1,0.1-0.3,0.2-0.4,0.3
			c0,0.1,0.1,0.1,0.1,0.2c0.2-0.1,0.4-0.3,0.5-0.5c0.1-0.1,0-0.2-0.1-0.2c-0.3,0.2-0.5,0.4-0.8,0.5c0,0.1,0.1,0.1,0.1,0.2
			c0.3-0.2,0.6-0.3,0.8-0.5c0-0.1-0.1-0.1-0.1-0.2c-0.3,0.2-0.7,0.4-1,0.6c0,0-0.1,0.1,0,0.1C107.8,77.2,107.9,77.3,107.9,77.2
			L107.9,77.2z"/>
	</g>
</g>
<g>
	<g>
		<path d="M116.8,76.6c0.5-0.1,1-0.1,1.5-0.2c0.1,0,0.1-0.1,0.1-0.1c0-0.1-0.1-0.1-0.1-0.1c-0.5,0.1-1,0.1-1.5,0.2
			C116.6,76.4,116.7,76.6,116.8,76.6L116.8,76.6z"/>
	</g>
</g>
<g>
	<g>
		<path d="M117.2,76.5c0.2-0.1,0.4-0.1,0.6-0.1c0.1,0,0.1-0.1,0.1-0.1c0-0.1-0.1-0.1-0.1-0.1c-0.2,0-0.4,0.1-0.6,0.1
			c-0.1,0-0.1,0.1-0.1,0.1C117.1,76.5,117.1,76.5,117.2,76.5L117.2,76.5z"/>
	</g>
</g>
<g>
	<g>
		<path d="M103.4,96.3c0.4,0,0.9,0.1,1.3,0.1c0.1,0,0.1-0.2,0-0.2c-0.4,0-0.9,0-1.3-0.1C103.3,96.1,103.3,96.3,103.4,96.3
			L103.4,96.3z"/>
	</g>
</g>
<g>
	<g>
		<path d="M103.9,96.6C104,96.6,104,96.5,103.9,96.6c0-0.1,0-0.1,0.1-0.1c0,0,0,0,0,0c0,0,0,0,0-0.1c0,0,0,0,0-0.1
			c0,0-0.1,0-0.1-0.1c0,0,0,0-0.1,0c0,0,0,0-0.1,0c0,0-0.1,0-0.1,0c0,0,0,0.1,0,0.1c0,0,0,0.1,0,0.1c0,0,0,0,0,0c0,0,0,0,0.1,0
			c0,0,0,0,0,0c0,0,0,0,0,0c0,0,0,0,0,0c0,0,0,0,0,0c0,0,0,0,0,0c0,0,0,0,0,0c0,0,0,0,0,0c0,0,0,0,0,0c0,0,0,0,0,0c0,0,0,0,0,0
			c0,0,0,0,0,0c0,0,0,0,0,0c0,0,0,0,0,0c0,0,0,0,0,0c0,0,0,0,0,0c0,0,0,0,0,0c0,0,0,0,0,0c0,0,0,0,0,0c0,0,0,0,0,0c0,0,0,0.1,0,0.1
			c0,0,0,0.1,0,0.1C103.8,96.6,103.8,96.6,103.9,96.6C103.9,96.6,103.9,96.6,103.9,96.6L103.9,96.6z"/>
	</g>
</g>
<g>
	<g>
		<path d="M103.4,96.3c0.5,0.1,1,0,1.4,0.1c0.1,0,0.1-0.1,0.1-0.1c0-0.1,0-0.1-0.1-0.1c-0.5-0.1-0.9,0-1.4-0.1
			C103.3,96,103.2,96.2,103.4,96.3L103.4,96.3z"/>
	</g>
</g>
<g>
	<g>
		<path d="M103.4,96.2c0.2,0.1,0.5,0,0.7,0.1c0.1,0,0.3,0,0.4,0.1c0.2,0,0.3,0,0.4,0c0.1,0,0.1-0.1,0.1-0.1c0-0.1-0.1-0.1-0.1-0.1
			c-0.3,0-0.5-0.1-0.8-0.1c-0.2,0-0.5,0-0.7,0C103.4,96,103.3,96.2,103.4,96.2L103.4,96.2z"/>
	</g>
</g>
<g>
	<g>
		<path d="M108.3,98c0.5,0,0.9,0.4,1.1,0.8c0.2,0.4,0.4,0.9,0.5,1.3c0,0.1,0.2,0.1,0.2-0.1c-0.1-0.4-0.2-0.8-0.3-1.1
			c-0.2-0.4-0.4-0.8-0.8-1c-0.2-0.1-0.4-0.2-0.6-0.2C108.1,97.8,108.1,98,108.3,98L108.3,98z"/>
	</g>
</g>
<g>
	<g>
		<path d="M108.9,98.2c0.3,0.2,0.5,0.4,0.6,0.8c0,0.1,0.2,0.1,0.2-0.1c-0.1-0.4-0.4-0.7-0.7-0.9c0,0-0.1,0-0.1,0
			C108.8,98.1,108.9,98.1,108.9,98.2L108.9,98.2z"/>
	</g>
</g>
<g>
	<g>
		<path d="M110,100.9c0.5,0.1,0.9,0.6,1.3,0.9c0.5,0.4,1,0.8,1.5,1.2c0.1,0.1,0.2,0,0.1-0.1c-0.5-0.5-1-0.9-1.6-1.3
			c-0.4-0.3-0.8-0.8-1.4-0.9C109.8,100.7,109.8,100.9,110,100.9L110,100.9z"/>
	</g>
</g>
<g>
	<g>
		<path d="M124.7,107.8c0.9,0.4,1.9,0.6,2.9,0.8c0.5,0.1,1,0.3,1.6,0.3c0.5,0.1,1,0.2,1.4,0.3c0.1,0.1,0.2-0.2,0.1-0.2
			c-0.5-0.2-0.9-0.3-1.4-0.3c-0.5-0.1-1-0.2-1.4-0.3c-1-0.2-2-0.4-2.9-0.8C124.6,107.6,124.5,107.8,124.7,107.8L124.7,107.8z"/>
	</g>
</g>
<g>
	<g>
		<path d="M123,107.6c1,0.4,2.1,0.5,3.1,0.7c1.2,0.2,2.4,0.7,3.6,0.9c0.1,0,0.2-0.2,0.1-0.2c-1.2-0.2-2.3-0.7-3.5-0.9
			c-1.1-0.2-2.2-0.2-3.2-0.7C123,107.3,122.9,107.5,123,107.6L123,107.6z"/>
	</g>
</g>
<g>
	<g>
		<path d="M124.8,108c1.5,0.9,3.3,1,5,1.2c0.1,0,0.2-0.2,0.1-0.2c-0.9-0.1-1.8-0.2-2.6-0.4c-0.8-0.2-1.6-0.4-2.3-0.8
			C124.7,107.7,124.6,107.9,124.8,108L124.8,108z"/>
	</g>
</g>
<g>
	<g>
		<path d="M119.9,106.9c1.2,0.5,2.5,0.7,3.8,1c1.4,0.4,2.8,0.7,4.3,0.9c0.1,0,0.1-0.2,0-0.2c-1.4-0.2-2.8-0.5-4.2-0.9
			c-1.2-0.3-2.5-0.4-3.7-1C119.9,106.7,119.8,106.9,119.9,106.9L119.9,106.9z"/>
	</g>
</g>
<g>
	<g>
		<path d="M112.4,112.6c0,0,0.1-0.1,0.1-0.1c0.1,0,0.1-0.1,0.2-0.1c0,0,0,0,0,0c0,0,0,0,0,0c0,0,0,0,0,0c0,0,0.1,0,0.1,0
			c0.1,0,0.1,0,0.2-0.1c0.1,0,0.1-0.1,0.1-0.1c0-0.1-0.1-0.1-0.1-0.1c-0.1,0-0.3,0.1-0.4,0.1c-0.1,0.1-0.2,0.1-0.3,0.2
			c0,0,0,0.1,0,0.1C112.3,112.7,112.4,112.7,112.4,112.6L112.4,112.6z"/>
	</g>
</g>
<g>
	<g>
		<path d="M112.4,111.9c0.2,0.2,0.4,0.2,0.7,0.3c0.1,0,0.1,0,0.1-0.1c0-0.1,0-0.1-0.1-0.1c-0.1,0-0.2,0-0.3-0.1c0,0,0,0-0.1,0
			c0,0,0,0,0,0c0,0,0,0,0,0c0,0,0,0,0,0c0,0,0,0-0.1,0c0,0,0,0,0,0c0,0,0,0,0,0c0,0,0,0,0,0c0,0-0.1,0-0.1,0
			C112.4,111.8,112.4,111.8,112.4,111.9L112.4,111.9z"/>
	</g>
</g>
<g>
	<g>
		<path d="M51.6,117.1c0.7-0.2,1.5-0.1,2.2-0.2c0.1,0,0.1-0.2-0.1-0.2c-0.7,0.2-1.5,0.1-2.2,0.2C51.4,117,51.5,117.2,51.6,117.1
			L51.6,117.1z"/>
	</g>
</g>
<g>
	<g>
		<path d="M50.9,117.2c0.5,0.1,1,0,1.5,0c0.6,0,1.1-0.1,1.6-0.3c0.1,0,0.1-0.2-0.1-0.2c-0.5,0.2-1,0.3-1.6,0.3c-0.5,0-0.9,0.1-1.4,0
			C50.9,116.9,50.8,117.1,50.9,117.2L50.9,117.2z"/>
	</g>
</g>
</svg>
