<?xml version="1.0" encoding="utf-8"?>
<!-- Generator: Adobe Illustrator 24.0.1, SVG Export Plug-In . SVG Version: 6.00 Build 0)  -->
<svg version="1.1" xmlns="http://www.w3.org/2000/svg" xmlns:xlink="http://www.w3.org/1999/xlink" x="0px" y="0px"
	 viewBox="0 0 141.7 141.7" style="enable-background:new 0 0 141.7 141.7;" xml:space="preserve">
<style type="text/css">
	.st0{fill:#FFFFFF;}
	.st1{fill:#75CEEB;}
	.st2{fill:#C9B09D;}
	.st3{fill:#CB9691;}
	.st4{fill:#AA685D;}
	.st5{fill:#8B534E;}
	.st6{fill:#F18467;}
	.st7{fill:#ECA595;}
	.st8{fill:#C8E2B1;}
	.st9{fill:#756C67;}
	.st10{fill:#231F20;}
	.st11{fill:#070707;}
	.st12{fill:none;stroke:#070707;stroke-width:0.4277;stroke-miterlimit:10;}
	.st13{fill:#0985B3;}
</style>
<g id="Layer_1">
	<g id="Layer_12">
	</g>
	<path class="st0" d="M61,48.2c0,0,3.3,0.5,3.7,0.7v0.6c0,0,0.2,2-1.2,2.5c0,0-2.3,1.1-2.6-1C61,51,60.6,48.7,61,48.2z"/>
	<g id="Layer_8">
	</g>
	<g id="Layer_15">
	</g>
	<g id="Layer_16">
	</g>
	<path class="st0" d="M58.5,45.7c0,0-6.1,0.9-8.1-2.4c0,0-4.9-5.4-0.7-8.1c0,0,2.8-4.5,8.6-2.3l3.4,1.7l0.4-0.6l0.3-0.4
		c0,0,5.2,0.2,7.1,2.9c0,0,3.7,3.3,1.3,7.5c0,0-1.5,3-4.2,2.7l-1.8-1.5l-2.2-0.7l-2.1-1.2C60.6,43.3,58.1,44.6,58.5,45.7z"/>
	<path class="st1" d="M65.6,92.1c0.3-0.2,0.5-0.5,0.8-0.8l1.2-2.3l1.7-5.5l0.3-5.6l-0.2-2.4l-2.1-0.9c-0.7-0.7-1.4-1.3-2.1-2
		c-0.1-1.5-0.2-2.9-0.3-4.4c0.2,0.1,0.5,0.3,0.7,0.4c0.6,0.3,1.2,0.5,1.8,0.8c-0.2-0.8-0.3-1.7-0.5-2.5l0.5-5.6l0.7-6
		c0.1-1,0.1-2.1,0.1-3.4c-0.1-1.1-0.2-2.1-0.4-3c0.4-1,0.2-1.9-0.2-2.1c-0.1,0-0.3-0.1-0.8,0.1c0.2,1.1-0.3,2-1,2.2
		c-0.5,0.2-1.1-0.1-1.2-0.2c0.1,0.2,0.4,1.3-0.2,2.2c-0.6,1.1-2.1,1.6-2.8,1.1c0,0-0.1-0.1-0.3-0.4c-0.7-1.3-0.6-2.5-0.6-3.1
		c0-0.2,0.1-0.4,0.1-0.5c-0.9,0-1.3-0.3-1.5-0.4c-0.5-0.4-0.8-1.2-0.9-1.5c-0.2-0.5-0.2-0.9-0.4-0.9c-0.2,0-0.4,0.1-0.5,0.3
		c-0.5,0.1-1.2,0.2-2,0.1c-2.4-0.1-4.1-1.4-4.6-1.8c-1.6-1.3-2.4-2.8-2.7-3.6l-0.6-3.5l1.3-2.3l2-1.5l2.4-0.7l3.3-0.3l2.7,1l2.4,1.1
		l0.1-0.6l-2-2.1l-2.6-1.9l-2.5-1.3l-2.7-1.1l-3.3-0.9L46,25.5l-1.4-1.9l-0.9-0.5l-1.8-0.5h-1.5l-2.1,0.7l-1.7,1.4l-1,1.9l-2.4,1
		L30,28.9l-1.3-0.8l-2.5-1l-1.8-0.3h-2.1L20.7,28l-1.2,1.5L18.7,31v2.3l0.7,1.8l1.1,1.3l1.6,0.9L22,40l-0.4,3.1l0.1,3.3l0.4,4.4v3.7
		l-0.4,3.3L21,61.3l-1,3.1l-1.7,4.4l-1.7,4.7l-1,4.7l-0.1,4.6V87l-0.7,1l-2.3,1v1l3.3,1.3l1.2,2.1l2.2,2.4l2.1,2l3.2,1.9l3.9,1.2
		l3.4-0.2l1.9-1.8l2.1-1.1l1.6,0.7l3.6,2.4l17.9-4.7c1-1.5,2-2.7,2-2.7l2.8,0.4l0.8-0.4C64.6,93,65.1,92.6,65.6,92.1z"/>
	<polygon class="st2" points="39.9,105.1 40.8,104.4 41.2,103.4 40.9,101.9 39.9,100.6 36.8,98.3 35.7,97.9 34.4,98.6 32.9,99.6 
		31.6,100.7 30.9,101.2 32.3,101.8 33.4,102.5 34.6,103.5 36.1,104.5 37.2,105.3 38.4,105.6 	"/>
	<polygon class="st2" points="58.8,96.2 59.4,95.1 60.1,94 61.2,93.5 62.3,93.7 63.6,93.9 64.8,94.7 65.6,96 65.2,97.2 64.1,97.9 
		63.6,97.9 62.6,97.7 61.5,97.4 60.3,97.1 58.8,96.7 	"/>
	<polygon class="st2" points="64.7,67.7 65.1,72.4 67.1,74.5 69.5,75.7 72,75.7 73.3,75.3 74,74.2 73.8,73.3 74.1,72.4 73.8,71.3 
		73.2,70.2 71.5,69.4 69.7,69.4 67.5,69.4 65.9,68.8 	"/>
	<polygon class="st2" points="67.9,59.7 67.3,66.4 67.9,66.4 69,63.6 70,62 71.4,60.4 	"/>
	<polygon class="st2" points="60.9,43.1 59.8,43.7 58.9,44.6 58.5,46 59,47.2 59.9,47.7 61,48.2 63.2,48.6 64,48.6 65.1,49.1 
		65.9,49.1 66.5,48.6 66.9,47.7 66.7,46.7 66.7,46.2 	"/>
	<g>
		<g>
			<path class="st1" d="M38.6,99.6c0.3,0.3,0.5,0.6,0.8,0.9c0.1,0.1,0.2,0.3,0.4,0.4c0.3,0.3,0.6,0.4,1,0.3c0.2,0,0.3-0.2,0.4-0.3
				c0.1-0.2,0.1-0.4,0.1-0.5c-0.1-0.4-0.5-0.6-0.9-0.5l0,0c0.1,0,0.1,0,0.2,0c0,0,0,0-0.1,0c0.1,0,0.1,0,0.2,0h-0.1
				c0.1,0,0.1,0,0.2,0.1c0,0-0.1,0-0.1-0.1l0.1,0.1c-0.1-0.1-0.2-0.2-0.3-0.3c-0.1-0.1-0.2-0.2-0.3-0.4c-0.2-0.2-0.4-0.5-0.6-0.7
				c-0.1-0.1-0.3-0.2-0.5-0.2s-0.4,0.1-0.5,0.2s-0.2,0.3-0.2,0.5c0,0.1,0,0.1,0,0.2C38.5,99.4,38.5,99.5,38.6,99.6L38.6,99.6z"/>
		</g>
	</g>
	<g>
		<g>
			<path class="st1" d="M29.9,100.3L29.9,100.3c0,0.2,0,0.3,0.1,0.5c0,0.1,0.1,0.1,0.2,0.2s0.1,0.1,0.2,0.1s0.3,0,0.4,0h0.1
				c-0.1,0-0.1,0-0.2,0c0.1,0,0.1,0,0.2,0c-0.1,0-0.1,0-0.2,0l0,0c0.1,0,0.2,0,0.3,0c0.1,0,0.2,0,0.3-0.1c0.1,0,0.1-0.1,0.2-0.2
				s0.1-0.1,0.1-0.2s0-0.1,0-0.2s0-0.2-0.1-0.4l-0.1-0.1c-0.1-0.1-0.2-0.1-0.3-0.2c-0.1,0-0.2,0-0.3,0c-0.1,0-0.2,0-0.3,0h-0.1
				c0.3,0.2,0.6,0.5,0.9,0.7v-0.1c0-0.1,0-0.2-0.1-0.3c0-0.1-0.1-0.2-0.1-0.2c-0.1-0.1-0.1-0.1-0.2-0.1s-0.2-0.1-0.3-0.1
				c-0.1,0-0.1,0-0.2,0s-0.2,0.1-0.3,0.2L30,99.9C29.9,100.1,29.9,100.2,29.9,100.3L29.9,100.3z"/>
		</g>
	</g>
	<path class="st3" d="M67.2,68.9l0.6-2.3l0.6-1.7c0,0,2.2-5.5,7.9-7.3c0,0,4.1,5.4,6.1,13.1c0,0-2.7,2.1-8.1,1.7l-0.5-1.1l-1.4-1.5
		l-5.2-0.5V68.9z"/>
	<path class="st4" d="M74.9,56.8c0,0,6.1-4.1,9.6,3.3l1.3,3.4c0,0,2.1,5.7-3.6,8.5l0.2-1.7l-2.6-7.1l-2.4-4.9
		C77.3,58.4,75.6,56.5,74.9,56.8z"/>
	<polygon class="st4" points="84.4,60.2 87.1,57.8 88.3,60.2 86.6,60.3 84.9,61.1 	"/>
	<polygon class="st5" points="74.3,58.3 74.1,57.4 74.9,56.9 75.7,57.1 76.3,57.5 	"/>
	<path class="st5" d="M80.8,71.8c0.1,0,1.2-0.7,1.2-0.7l0.2,0.8l-0.8,0.5l-0.6-0.1C80.8,72.3,80.8,71.8,80.8,71.8z"/>
	<polygon class="st6" points="98.4,58.8 98.3,56.9 99.1,54.7 100,53 101.5,51.4 102.4,50 103,48.3 103.6,46.7 104.2,47.1 
		104.2,48.3 104.2,50.4 104.3,52.8 104.7,54.4 105.6,55.9 105.6,56.1 105.9,56.4 103.4,56.7 102.8,56.7 101.9,53.9 101.3,54.4 
		100.8,55.2 100.5,56.4 100.6,57.3 99.3,58.2 	"/>
	<polygon class="st6" points="113.8,60.3 115.5,60 117.4,59.4 119.1,58.4 120.3,57.3 121.2,56.4 122.4,55.8 122.3,56.3 121.8,57.5 
		120.9,58.8 120.4,60.4 119.9,62 119.5,63.6 118.9,64.9 118.1,66.1 117.1,66.9 115.9,67.4 115.1,67.4 115.1,66.1 116.5,65 117.6,64 
		118.4,63 118.6,62 118.1,61.8 117.2,61.8 116.1,62 115.1,62.5 114.8,62.7 114.3,61.6 	"/>
	<path class="st6" d="M97.1,59.9l1.1-0.7l1-1l1.3-0.6l1.3-0.6l1.5-0.3l1.4-0.2h2.1l2.2,0.3l1.7,0.7l1.2,0.7l1.3,1.3l0.5,1.3l0.7,1.5
		l0.4,1.9l0.1,1.8l0.2,2.3l0.3,1.1l-1.1-0.7l-1.6-0.8l-1.3-0.4l-1.5-0.2h-1.6l-1,0.2c0,0-0.9-0.8-1-0.9s-1.9-0.9-1.9-0.9l-1.7-0.4
		l-0.9-1.6l-1.5-1.8l-1.8-1.3L97.1,59.9z"/>
	<path class="st6" d="M116.2,70.4c0,0-0.5-0.9-0.8-1.4l0.1,0.4L116.2,70.4z"/>
	<path class="st6" d="M135.1,76C135.2,76,135.2,76,135.1,76c0.3,0,0.5,0,0.6,0.1c3.8-5.3,1.7-8.2,1.7-8.2c-3.1-6.5-10-5.9-10-5.9
		c-2.9-3-6.3-2.6-6.5-2.5l-4.2,7.6l-1.6,0.3l0.3,1.6c0.2,0.3,0.4,0.8,0.9,1.6c2.3,4.3-1.4,6.3-1.4,6.3l-2.4,0.6h-0.3l-2.3-0.4
		l-2.4-0.6l-2.4-0.5h-2.4l-0.9-0.7l-0.8,0.4l-0.2,1.3l0.4,1l-1.1-0.6l-0.7,0.2l-0.8,1l-0.2,1.6l1,1.5l0.6,0.8l0.1,2.5l0.5,1.8l0.7,2
		l0.6,2.1c-1.8,4.2,0.8,6.8,0.8,6.8l1.6,0.9l1.6,1l2.6,0.5l2.6,0.1l2-0.8l2.5-1l3-1.5l3.2-2.2c0,0,1.2-1.2,2.2-2.8
		c1-1.6,1.4-5.8,1.4-5.8l-0.1-6.6c0.9-5.2,4.4-6.2,4.4-6.2C134,72.5,134.9,75,135.1,76z"/>
	<polygon class="st6" points="98.4,89.7 98.8,91.7 99.6,93.8 100.3,95.3 101,96.5 99.8,95.8 98.8,94.8 98,93.6 97.7,91.8 98,90.4 	
		"/>
	<circle class="st0" cx="104" cy="60.4" r="3.4"/>
	<circle class="st0" cx="110.2" cy="63.3" r="3.4"/>
	<path class="st7" d="M100.6,57.3c0,0-0.6-1.9,1.1-3.4l1,2.8C102.8,56.7,100.7,57.1,100.6,57.3z"/>
	<path class="st7" d="M114.8,62.7c0,0,3.1-1.8,3.8-0.7l-0.1,0.7l-0.8,1.2l-1.9,1.5L115,66L114.8,62.7z"/>
	<path class="st7" d="M91.9,66.8c0,0-1.9-6.7,5-6.9l2.4,1.2l1.6,1.4l1.2,1.5l0.9,1.4l4.6,1.9l3.3,0.1l2.2,0.5l1.6,0.8l1.1,0.9
		l1.1,1.7l0.5,2l-0.3,1.7l-0.8,1.2l-1.3,1c0,0-2.2,0.8-5.3,0l-2.1-0.6l-1.8-0.4l-1.8-0.1l-1.3-0.1l-1.3-0.5L99,73.6l-4-2.2l-2-1.8
		C93,69.6,91.8,68,91.9,66.8z"/>
	<path class="st7" d="M101,78.1c0,0-0.6-1.8,0.6-2.3l-2.7-2.1l-0.2,0.7c0,0,0,0.8-1.6,1.1L95.9,74l-0.3,0.9h-1l-1.1-1L92.7,74
		l-0.3,0.9L92.2,76l0.6,1.2l0.4,1.1l1.5,0.8l0.6,1.1c0,0,1.6,1.9,3.1,0.4c0,0-0.7,5.8,0.1,8.7l1.1,4l1.6,3.2l1.5,1.2l-0.6-1.5
		l-0.5-1.3c0,0-0.4-2,0.8-4.2l-0.4-0.5l-1.1-3.3l-0.7-3v-1.6L99,80.8l-0.3-1.3l0.8-1.5l0.9-0.3L101,78.1z"/>
	<polygon class="st7" points="104.4,99.1 104.4,100.8 104.8,102.8 105.4,104.2 106.6,104.4 107.2,103.6 107.5,102.7 107.6,101.6 
		107.4,100.6 107,100 	"/>
	<polygon class="st7" points="111.3,100.3 110.4,101.5 109.6,102.8 108.7,104.1 108.2,104.3 107.5,104.1 107.2,103.6 107,100 
		109.5,100.3 	"/>
	<polygon class="st6" points="102.4,66.7 101.1,66.9 99.8,67.4 99.2,68.2 99.1,69 99.5,70 100.6,70.3 102.5,70.3 103.4,70.8 
		104.1,71.3 105.2,71.8 106.2,72.1 107.4,71.9 107.8,71.4 108,70.7 107.7,69.7 106.6,68.2 	"/>
	<path class="st0" d="M101,70.4c0,0-1.2,2-0.9,2.8l0.6,0.9h0.9l0.5-0.4l0.2-0.2l0.1,0.9L103,75h0.7l0.6-0.4l0.4-0.6l0.3-0.8l0.1-1
		v-0.3l-1.2-0.8l-0.8-0.4l-0.7-0.3L101,70.4z"/>
	<path class="st8" d="M133.9,91.3h-0.8l-1.7,0.4l-1.1,0.1h-1.1l-0.7-0.6l-0.6,0.3l-0.3-1.1l-1-1.6l-0.2,1.5l-0.5,1.1l-1.1,0.5
		l-0.6,0.1l-1,1.5l-3.7,3l-2.9,1.7l-2.3,1l-2.2,0.9l-1,0.3l-1.4,2l-1.3,1.8l-0.5,0.3l-1-0.7l-0.5,0.7l-1.2-0.1l-0.6-1.5l-0.4-1.6
		v-2.1l-1.6-1.2l-1.8-1.4l-1.6-1l-1.1-1.3L97.5,92l0.3-1.4l0.2-0.9l-5.9,0.4l-9.3,0.3c0,0-2-0.5-0.2-3.1L81,88.2l-0.8,1.1l-0.6,1.1
		l-0.8,0.3H78l-1-0.6l-0.4-0.7L76,90.3l-2.2-2.9l0.4,3.1h-6.8l-2.9,3.1L63.7,94l1.2,0.8l0.9,1.3l-0.5,1.2L64.2,98l-1.5-0.1l-3.1-1
		l-1.5-0.3l-11,3.3l-6,1.2l-1-0.3l1.3,1.9v0.9l-0.5,0.9l-0.9,0.8l-1.5,0.4l-1.1-0.3l-2.2-1.4l-1.7-1.4l-2.1-1.2l-1.5-0.2l-3-0.6
		l-4.4-1.9c0,0-3-1.3-5-5.2l-1.2-0.4H15l-1.1,0.4l-1-0.2l-2.3-1.5l0.2,2.1l-3,0.2H6.1c0,0-7.5,6.5,5.2,10.5c0.2-0.8,0.3-1.7,0.2-2.5
		c0-0.2,0-0.4,0.1-0.6c-0.4-1,0.9-2.1,1.9-1.2c1.1,0.9,1.9,2.2,2.4,3.6c0.2-0.3,0.4-0.6,0.6-0.9c0.9-1,2.4,0.3,1.8,1.4
		c-0.3,0.5-0.4,1.1-0.5,1.6c4.6,0.8,10.6,1.3,18.4,1.5l12.7,0.4l-2.2-4.5l4.3,3.9l0.8-2.1l0.5,1.2l0.8,0.8l1.8,0.6l3.5-0.2
		c0,0,11-1.3,18,0c0,0-2.3,6,13.5,6.7c0-0.2,0-0.4,0.1-0.7c0-0.2,0.1-0.3,0.1-0.5c0.1-0.8,1.3-1.4,2-0.7c0.6,0.6,1.2,1.2,1.7,1.9
		c3,0,6.4-0.2,10.4-0.5c-0.3-0.6-0.6-1.3-0.9-1.9c-0.6-1.2,0.9-2.3,1.8-1.4c0.4,0.4,0.8,0.9,1.1,1.4c0.5-1.4,1.2-2.6,2.3-3.6
		c1-0.8,2.5,0.2,1.8,1.4c-0.6,1.1-0.7,2.3-0.5,3.5c3.6-0.4,7.5-1,11.9-1.7c0,0-7.8-6.5,12.9-16.2l3.2-3.4L133.9,91.3z"/>
	<path class="st9" d="M80.4,105.4c0.1,0,4.8-1.6,8-1.1c0,0,1.3,0.2,2.1,0.8l0.9,0.7l0.2,0.7l-0.7,0.3c0,0-2.8,0.7-5.2,0.5l-3.2-0.6
		c0,0-1.3-0.4-1.2-0.4c0.1,0-0.6-0.4-0.6-0.4l-0.6-0.6L80.4,105.4z"/>
	<polygon class="st9" points="92.5,103.9 92.6,104.4 93.5,104.7 94.6,104.6 95.1,104.3 94.8,104 94,103.8 	"/>
	<g>
		<g>
			<path class="st10" d="M67.8,68.9c0-3.8,0.5-7.6,0.9-11.5c0.2-1.8,0.4-3.7,0.4-5.5c-0.1-1.8-0.5-3.6-1-5.3c-0.2-0.7-1.2-0.4-1,0.3
				c0.5,1.8,1,3.6,1,5.4c0,1.8-0.2,3.7-0.4,5.5c-0.4,3.7-0.9,7.3-0.9,11C66.7,69.6,67.8,69.6,67.8,68.9L67.8,68.9z"/>
		</g>
	</g>
	<g>
		<g>
			<path class="st10" d="M63.8,94.4c5.8-4.3,6.9-12,6.2-18.7c0-0.7-1.1-0.7-1,0c0.7,6.3-0.2,13.7-5.7,17.8
				C62.8,93.9,63.3,94.8,63.8,94.4L63.8,94.4z"/>
		</g>
	</g>
	<g>
		<g>
			<path class="st10" d="M41,101.5c6.1-1,12.1-2.5,17.9-4.7c0.6-0.2,0.4-1.3-0.3-1c-5.8,2.2-11.8,3.8-17.9,4.7
				C40.1,100.5,40.4,101.6,41,101.5L41,101.5z"/>
		</g>
	</g>
	<g>
		<g>
			<path class="st10" d="M23,36.1c-3.2,5.2-1.6,11.2-1.5,16.9c0.1,6.2-2.4,11.6-4.5,17.3c-1,2.8-1.8,5.7-2.1,8.6
				c-0.2,1.5-0.3,3-0.2,4.5c0,0.7,0,1.4,0.1,2.1c0.1,0.9,0.5,1.6-0.4,2c-0.8,0.4-1.4,0.6-2,1.3c-0.5,0.6-0.7,1.5,0.1,2
				c0.3,0.2,0.6,0.2,1,0.2c0.8,0.1,1.3,0.2,1.9,0.7c0.9,0.7,1.5,1.8,2.1,2.8c3,4.5,8,7.2,13.4,7.2c0.7,0,0.7-1.1,0-1.1
				c-5-0.1-9.7-2.5-12.5-6.7c-0.9-1.4-1.9-3.2-3.6-3.8C14.4,90,14,90,13.6,89.9c-1-0.3,0-1,0.5-1.2c0.7-0.4,1.6-0.3,1.8-1.2
				c0.2-1-0.2-2.4-0.2-3.4c-0.1-1.6,0-3.1,0.2-4.7c0.3-2.9,1-5.7,2-8.4c1.8-5.1,4.2-9.9,4.7-15.4c0.5-6.2-2.2-13.2,1.4-18.9
				C24.3,36.1,23.4,35.5,23,36.1L23,36.1z"/>
		</g>
	</g>
	<g>
		<g>
			<path class="st10" d="M62.6,34.3c-0.5-2.9-4.2-4.8-6.5-6c-3-1.6-6.2-2.6-9.5-3c-5.9-0.7-12.2,0.4-17.1,3.9
				c-2.7,1.9-4.8,4.3-6.4,7.1c-0.3,0.6,0.6,1.1,0.9,0.5c3.5-6.1,9.7-9.8,16.6-10.5c3.8-0.4,7.6,0.1,11.3,1.3c2,0.7,3.8,1.6,5.6,2.7
				c1.6,1,3.8,2.3,4.2,4.3C61.7,35.2,62.7,35,62.6,34.3L62.6,34.3z"/>
		</g>
	</g>
	<path class="st11" d="M63.9,40.6c-0.2,1.1-1.3,1.8-2.3,1.5c-1-0.2-1.7-1.3-1.4-2.4c0.2-1.1,1.3-1.8,2.3-1.5
		C63.5,38.4,64.2,39.5,63.9,40.6z M61,39c-0.1,0.3,0.1,0.6,0.4,0.7c0.3,0.1,0.6-0.1,0.7-0.4c0.1-0.3-0.1-0.6-0.4-0.7
		C61.4,38.5,61.1,38.7,61,39z"/>
	<g>
		<g>
			<path class="st10" d="M62.1,34c3.2-0.6,6.7,1.5,8.3,4.2c0.8,1.4,1.2,3,0.7,4.6c-0.6,1.9-2.2,3.5-4.3,3.6c-0.5,0-0.5,0.8,0,0.7
				c3.2-0.3,5.5-3.4,5.2-6.6c-0.4-3-2.8-5.4-5.4-6.6c-1.5-0.7-3.1-0.9-4.7-0.7C61.5,33.3,61.7,34,62.1,34L62.1,34z"/>
		</g>
	</g>
	<g>
		<g>
			<path class="st10" d="M63.3,48.8c0.4-0.1,0.8,0.1,1.1,0.2c0.4,0.2,0.7,0.4,1.1,0.4c0.9,0,1.5-1,1.6-1.8c0-0.5-0.1-1-0.3-1.4
				c-0.1-0.2-0.4,0-0.3,0.2c0.3,0.4,0.4,0.9,0.2,1.4c-0.1,0.5-0.4,1-0.9,1.2c-0.4,0.2-0.9-0.1-1.3-0.3s-0.8-0.4-1.3-0.2
				C63,48.5,63.1,48.9,63.3,48.8L63.3,48.8z"/>
		</g>
	</g>
	<g>
		<path class="st10" d="M66.7,46.2c-0.1,0.4-0.5,0.6-0.9,0.6s-0.8-0.1-1.2-0.2c-0.6-0.2-1.3-0.5-1.9-0.7c-0.6-0.2-1.2-0.4-1.7-0.9
			c-0.5-0.4-0.7-1.1-0.4-1.7c0.2-0.3,0.4-0.5,0.7-0.6c1.2-0.6,2.8-0.7,3.9,0s1.7,2.2,1.2,3.4"/>
	</g>
	<g>
		<g>
			<path class="st10" d="M60.8,43c-0.7,0.2-1.3,0.5-1.7,1.1c-0.4,0.5-0.7,1-0.8,1.6c-0.1,1.4,1.2,2.3,2.4,2.6c1,0.2,2,0.2,3,0.4
				c0.2,0,0.3-0.3,0.1-0.3c-1-0.2-1.9-0.2-2.9-0.4c-0.8-0.2-1.6-0.5-2-1.2c-0.4-0.6-0.3-1.4,0.1-2c0.4-0.7,1.1-1.1,1.9-1.4
				C61.1,43.2,61.1,42.9,60.8,43L60.8,43z"/>
		</g>
	</g>
	<g>
		<g>
			<path class="st10" d="M60.7,48.4c-0.1,1-0.2,2.2,0.3,3.2c0.2,0.4,0.7,1,1.2,0.9c0.6,0,0.8-0.8,0.9-1.3c0.2-0.8,0.3-1.6,0.3-2.4
				c0-0.2-0.4-0.2-0.4,0c0,0.6,0,1.2-0.1,1.8c-0.1,0.3-0.1,0.6-0.2,0.9c-0.1,0.2-0.2,0.5-0.4,0.6s-0.5-0.1-0.6-0.3
				c-0.2-0.2-0.3-0.3-0.4-0.5C61.1,50.9,61,50.4,61,50c0-0.5,0-1.1,0.1-1.6C61.1,48.2,60.7,48.2,60.7,48.4L60.7,48.4z"/>
		</g>
	</g>
	<g>
		<g>
			<path class="st10" d="M62.4,52.5c0.8,0,1.6-0.4,2.1-1.1c0.5-0.7,0.5-1.7,0.2-2.5c-0.1-0.2-0.4,0-0.3,0.2c0.3,0.7,0.3,1.5-0.2,2.1
				c-0.4,0.6-1.1,0.9-1.8,0.9C62.1,52.1,62.1,52.5,62.4,52.5L62.4,52.5z"/>
		</g>
	</g>
	<g>
		<g>
			<path class="st11" d="M64.7,72.6c1.2,2.1,3.8,3.2,6.1,3.4c0.8,0.1,1.8,0,2.6-0.4c0.9-0.5,1-1.5,0.7-2.4c-0.1-0.4-0.8-0.3-0.7,0.2
				c0.2,0.7,0.1,1.4-0.7,1.7c-0.7,0.3-1.5,0.3-2.2,0.2c-2-0.3-4.2-1.3-5.2-3.1C65.1,71.9,64.5,72.2,64.7,72.6L64.7,72.6z"/>
		</g>
	</g>
	<g>
		<g>
			<path class="st11" d="M71.3,73.3c0.8,0.4,2,0.6,2.7-0.1c0.8-0.7,0.3-2-0.3-2.7c-1.3-1.7-3.7-1.4-5.6-1.5
				c-1.1-0.1-2.3-0.3-3.1-1.2c-0.3-0.4-0.9,0-0.6,0.4c1.2,1.5,3.1,1.6,4.8,1.7c1.7,0.1,4,0.2,4.4,2.3c0.2,1.2-1.3,1-2,0.7
				C71.2,72.5,70.9,73.1,71.3,73.3L71.3,73.3z"/>
		</g>
	</g>
	<g>
		<g>
			<path class="st11" d="M61.8,93.4c-0.9-0.2-1.7,0.2-2.2,0.9c-0.5,0.7-0.7,1.7-1.3,2.3c-0.1,0.1,0,0.3,0.2,0.3
				c1.1-0.2,2.2,0.4,3.3,0.8c0.9,0.3,2,0.7,2.9,0.2c0.7-0.4,1.3-1.4,1.1-2.2c-0.2-0.8-1.1-1.3-1.8-1.6c-0.9-0.4-1.8-0.6-2.8-0.8
				c-0.2,0-0.3,0.3-0.1,0.3c0.7,0.1,1.5,0.3,2.2,0.6c0.7,0.3,1.6,0.6,2,1.3c0.4,0.7-0.2,1.7-0.9,2.1c-0.9,0.4-2-0.1-2.8-0.3
				c-1-0.4-2.1-0.8-3.2-0.7c0.1,0.1,0.1,0.2,0.2,0.3c1-1.1,1.2-3.6,3.2-3.2C62,93.8,62.1,93.4,61.8,93.4L61.8,93.4z"/>
		</g>
	</g>
	<g>
		<g>
			<path class="st11" d="M65.3,97.1c0-1.2-1.2-1.9-2.2-2.1c-0.1,0-0.2,0-0.2,0.1s0,0.2,0.1,0.2c0.9,0.2,2,0.7,1.9,1.7
				C64.9,97.3,65.3,97.3,65.3,97.1L65.3,97.1z"/>
		</g>
	</g>
	<g>
		<g>
			<path class="st11" d="M37.3,98.3c-2.7-1.7-4.4,1.6-6.5,2.8c-0.1,0.1-0.1,0.3,0,0.3c1.5,0.3,2.7,1.5,3.9,2.4
				c1,0.8,2.2,1.9,3.6,1.9c1.2,0.1,2.7-0.8,3-2c0.4-1.2-0.5-2.3-1.2-3.2c-1-1.1-2.3-1.9-3.6-2.7c-0.2-0.1-0.4,0.2-0.2,0.3
				c1,0.6,2.1,1.3,3,2.1c0.8,0.7,1.9,1.8,1.8,3c-0.1,1.3-1.7,2.3-3,2.1c-1.3-0.2-2.4-1.2-3.4-2.1c-1.1-0.9-2.3-2-3.7-2.3
				c0,0.1,0,0.2,0,0.3c1.9-1.1,3.6-4.3,6.1-2.8C37.3,98.7,37.5,98.4,37.3,98.3L37.3,98.3z"/>
		</g>
	</g>
	<g>
		<g>
			<path class="st11" d="M40.1,105c0.7-1.6-0.6-3.1-1.9-3.8c-0.2-0.1-0.4,0.2-0.2,0.3c1.2,0.7,2.4,2,1.8,3.4
				C39.6,105.1,40,105.2,40.1,105L40.1,105z"/>
		</g>
	</g>
	<g>
		<g>
			<path class="st11" d="M30.4,28.6c-1.3-0.9-2.8-1.5-4.3-1.9c-1.5-0.3-3.1-0.3-4.4,0.4c-2.4,1.3-3.6,4.7-2.8,7.3
				c0.5,1.6,1.9,3,3.5,3.5c0.4,0.1,0.6-0.6,0.2-0.7c-2.7-0.8-3.8-3.9-2.9-6.4c0.4-1.2,1.1-2.3,2.2-2.9c1.2-0.7,2.7-0.7,4-0.4
				c1.5,0.3,3,0.9,4.2,1.8C30.4,29.4,30.7,28.8,30.4,28.6L30.4,28.6z"/>
		</g>
	</g>
	<path class="st11" d="M22.9,31.6c0.1-0.9,1-1.5,1.9-1.4s1.6,1,1.4,1.9c-0.1,0.9-1,1.5-1.9,1.4C23.4,33.3,22.8,32.5,22.9,31.6z"/>
	<path class="st11" d="M71.6,41.9c0.1,1.1-0.7,2.1-1.8,2.1c-1.1,0.1-2-0.8-2.1-1.9C67.6,41,68.4,40,69.5,40
		C70.6,40,71.6,40.8,71.6,41.9z M68.4,41.3c0,0.3,0.3,0.6,0.6,0.5c0.3,0,0.5-0.3,0.5-0.6s-0.3-0.6-0.6-0.5
		C68.6,40.7,68.4,41,68.4,41.3z"/>
	<g>
		<g>
			<path class="st10" d="M63.1,43c1.7-2,1.7-4.9,0.3-7c-1.5-2.4-4.3-3.6-7-3.9c-1.6-0.2-3.1-0.1-4.6,0.6c-1.3,0.6-2.6,1.6-3.4,2.8
				c-1.6,2.4-0.4,5.7,1.3,7.7c2.2,2.5,5.7,3.4,8.8,2.5c0.4-0.1,0.3-0.8-0.2-0.7c-2.5,0.7-5.3,0.2-7.2-1.4c-1.8-1.5-3.1-4.1-2.5-6.5
				c0.3-1.4,1.5-2.3,2.6-3.1c1.2-0.8,2.5-1.2,4-1.2c2.4,0.1,5,0.9,6.8,2.6c1.9,1.9,2.5,5.1,0.6,7.2C62.2,42.8,62.7,43.4,63.1,43
				L63.1,43z"/>
		</g>
	</g>
	<g>
		<g>
			<path class="st11" d="M67.9,60.1c1.1,0,2.1,0.2,3.1,0.6c0.2,0.1,0.4-0.1,0.4-0.2c0.1-0.2-0.1-0.4-0.2-0.4
				c-1.1-0.4-2.2-0.6-3.3-0.6C67.5,59.4,67.5,60.1,67.9,60.1L67.9,60.1z"/>
		</g>
	</g>
	<g>
		<g>
			<path class="st11" d="M46.4,25.4c-0.6-2.4-3.7-3.5-5.9-3.2c-2.4,0.3-4.4,2-5.1,4.2c-0.1,0.4,0.6,0.6,0.7,0.2
				c0.6-2,2.4-3.5,4.4-3.7c1.9-0.2,4.7,0.6,5.2,2.7C45.8,26.1,46.5,25.9,46.4,25.4L46.4,25.4z"/>
		</g>
	</g>
	<g>
		<g>
			<path class="st11" d="M76.5,57.2c-5.2,1.3-9,6.2-9.4,11.5c0,0.5,0.7,0.5,0.7,0c0.4-5,4-9.6,8.9-10.8
				C77.1,57.8,76.9,57.1,76.5,57.2L76.5,57.2z"/>
		</g>
	</g>
	<g>
		<g>
			<path class="st11" d="M74.6,72.8c2.7,0.3,5.4-0.2,7.7-1.6c0.4-0.2,0-0.8-0.4-0.6c-2.2,1.3-4.8,1.8-7.4,1.5
				C74.1,72.1,74.1,72.8,74.6,72.8L74.6,72.8z"/>
		</g>
	</g>
	<g>
		<g>
			<path class="st11" d="M74.6,58.1c-0.2-0.4,0.1-0.8,0.5-0.9c0.4-0.1,0.9,0.2,1.2,0.5c0.5,0.5,0.8,1.2,1.2,1.8
				c0.8,1.4,1.5,2.7,2.1,4.2c0.6,1.4,1.2,2.9,1.7,4.4c0.2,0.7,0.5,1.4,0.6,2.1c0.1,0.4,0.3,1,0,1.4c-0.2,0.3-0.8,0.6-0.8,0
				c-0.1-0.5-0.8-0.3-0.7,0.2c0.1,0.7,0.8,0.9,1.4,0.8c0.8-0.2,1-1.1,0.9-1.8c-0.1-1.2-0.7-2.5-1.1-3.7s-0.9-2.4-1.4-3.5
				c-0.5-1.2-1.1-2.4-1.8-3.6c-0.5-1-1.1-2.1-1.9-2.9c-0.6-0.5-1.4-0.8-2.1-0.3c-0.6,0.4-0.9,1.1-0.5,1.7
				C74.2,58.8,74.8,58.5,74.6,58.1L74.6,58.1z"/>
		</g>
	</g>
	<g>
		<g>
			<path class="st11" d="M85.2,61.3c0.8-0.7,1.9-1,3-0.8c0.2,0,0.5-0.2,0.4-0.4c-0.3-0.9-0.8-1.8-1.3-2.6c-0.1-0.2-0.4-0.2-0.6-0.1
				c-0.8,0.8-1.7,1.7-2.5,2.5c-0.3,0.3,0.2,0.8,0.5,0.5c0.8-0.8,1.7-1.7,2.5-2.5c-0.2,0-0.4,0-0.6-0.1c0.6,0.7,1,1.6,1.3,2.4
				c0.1-0.1,0.3-0.3,0.4-0.4c-1.3-0.2-2.6,0.1-3.7,1c-0.1,0.1-0.1,0.4,0,0.5C84.8,61.5,85,61.5,85.2,61.3L85.2,61.3z"/>
		</g>
	</g>
	<g>
		<g>
			<path class="st11" d="M81.7,72.5c2.2-0.4,3.7-2.1,4.4-4.1c0.8-2.5,0.1-5.2-0.9-7.5c-1-2.2-2.2-4.5-4.7-5.3c-2-0.7-4.2-0.3-5.9,1
				c-0.4,0.3,0.1,0.8,0.5,0.5c1.5-1.2,3.6-1.4,5.4-0.7c2.1,0.8,3.2,3,4.1,4.9c0.9,2.1,1.6,4.5,0.9,6.7c-0.6,1.9-2,3.5-4,3.8
				C81,71.9,81.2,72.6,81.7,72.5L81.7,72.5z"/>
		</g>
	</g>
	<g>
		<g>
			<path class="st11" d="M67.8,68.9c1.5-2.3,3.8-3.9,6.4-4.5c0.4-0.1,0.3-0.8-0.2-0.7c-2.8,0.7-5.3,2.4-6.8,4.9
				C67,68.9,67.6,69.3,67.8,68.9L67.8,68.9z"/>
		</g>
	</g>
	<g>
		<g>
			<path class="st11" d="M105.9,56c-0.9-1.5-1.4-3.3-1.4-5.1c0-0.9,0.2-1.7,0.2-2.6c0-0.6-0.1-1.5-0.7-1.8c-0.6-0.2-0.9,0.3-1,0.7
				c-0.3,0.8-0.5,1.7-0.8,2.5c-0.7,1.6-2.1,2.5-3,4s-1.3,3.4-1.1,5.1c0,0.5,0.8,0.5,0.7,0c-0.2-1.9,0.3-3.7,1.4-5.3
				c0.5-0.8,1.3-1.4,1.9-2.1c0.5-0.7,0.9-1.5,1.1-2.3c0.1-0.4,0.3-0.9,0.4-1.3c0.1-0.2,0.1-0.5,0.3-0.5c0.1,0,0.1,0.7,0.1,0.8
				c0,1-0.2,1.9-0.2,2.9c0,1.9,0.6,3.7,1.5,5.3C105.5,56.7,106.1,56.3,105.9,56L105.9,56z"/>
		</g>
	</g>
	<g>
		<g>
			<path class="st11" d="M115.4,67.7c1.5,0,2.7-0.9,3.5-2.1c1-1.5,1.2-3.3,1.8-4.9c0.3-1,0.8-1.8,1.3-2.7c0.3-0.5,1-1.5,0.7-2.1
				c-0.5-1.4-2.9,1.5-3.3,1.9c-1.6,1.5-3.6,1.9-5.7,2.3c-0.5,0.1-0.3,0.8,0.2,0.7c1.8-0.3,3.7-0.7,5.3-1.9c0.7-0.6,1.4-1.2,2-1.9
				c0.2-0.2,0.4-0.3,0.6-0.5c0.1-0.1,0.2-0.2,0.3-0.3c-0.1-0.1-0.1-0.1-0.1,0.1c-0.2,0.5-0.5,1-0.7,1.5c-0.5,0.9-0.9,1.8-1.2,2.7
				c-0.3,1-0.5,1.9-0.9,2.9c-0.6,1.7-1.7,3.7-3.8,3.6C114.9,67,114.9,67.7,115.4,67.7L115.4,67.7z"/>
		</g>
	</g>
	<path class="st11" d="M102.1,65.7c0.3-0.8,1.8-1,3.2-0.3c1.4,0.6,2.3,1.8,2,2.7c-0.3,0.8-1.8,1-3.2,0.3
		C102.7,67.7,101.8,66.5,102.1,65.7z"/>
	<g>
		<g>
			<path class="st11" d="M103,70.6c-0.2,0.3-0.3,0.7-0.3,1.1c-0.1,0.5-0.3,0.9-0.3,1.4c-0.1,0.6-0.1,1.4,0.4,1.8
				c0.4,0.4,1.1,0.4,1.6,0.1s0.7-0.9,0.9-1.4c0.2-0.6,0.3-1.2,0.3-1.8c0-0.2-0.4-0.2-0.4,0c0,0.4,0,0.9-0.2,1.3
				c-0.1,0.5-0.3,1-0.6,1.3c-0.3,0.4-0.8,0.5-1.2,0.2c-0.5-0.3-0.5-1-0.4-1.6c0.1-0.4,0.2-0.9,0.3-1.3c0.1-0.4,0.1-0.7,0.3-1.1
				C103.4,70.6,103.1,70.4,103,70.6L103,70.6z"/>
		</g>
	</g>
	<path class="st11" d="M104.2,58.7c1.1,0.6,1.4,2,0.8,3s-2,1.4-3.1,0.7c-1.1-0.6-1.4-2-0.8-3S103.1,58.1,104.2,58.7z M101.5,61.3
		c0.3,0.2,0.7,0.1,0.9-0.2c0.2-0.3,0.1-0.7-0.2-0.8c-0.3-0.2-0.7-0.1-0.9,0.2S101.2,61.1,101.5,61.3z"/>
	<path class="st12" d="M111.5,60c1.8,0.7,2.6,2.7,1.9,4.6c-0.7,1.8-2.7,2.7-4.4,2c-1.8-0.7-2.6-2.7-1.9-4.6
		C107.7,60.2,109.7,59.3,111.5,60z"/>
	<path class="st12" d="M100.8,59.1c0.7-1.8,2.7-2.7,4.4-2c1.8,0.7,2.6,2.7,1.9,4.6c-0.7,1.8-2.7,2.7-4.4,2
		C101,63,100.1,61,100.8,59.1z"/>
	<g>
		<g>
			<path class="st11" d="M100.9,70.4c-0.4,0.5-0.6,1.1-0.8,1.6c-0.1,0.5-0.2,1.2,0,1.7s0.8,0.8,1.3,0.8s0.8-0.5,1.1-0.8
				c0.2-0.2-0.1-0.4-0.3-0.3c-0.2,0.3-0.5,0.7-0.8,0.7c-0.5,0-0.9-0.3-1.1-0.8c-0.1-0.5,0-1,0.1-1.5c0.2-0.5,0.4-0.9,0.7-1.4
				C101.3,70.4,101,70.2,100.9,70.4L100.9,70.4z"/>
		</g>
	</g>
	<g>
		<g>
			<path class="st11" d="M106.5,68c-0.1,0-0.1-0.1-0.2-0.1s-0.3,0.1-0.2,0.3c0.1,0.1,0.3,0.2,0.4,0.3c0.2,0.1,0.3,0.3,0.5,0.5
				c0.3,0.4,0.6,0.9,0.8,1.5c0.1,0.5,0.1,1-0.4,1.3c-0.7,0.4-1.6,0.2-2.2-0.1c-0.6-0.3-1.2-0.8-1.9-1.1c-0.5-0.2-1.1-0.3-1.7-0.3
				c-0.5,0-1.1,0.1-1.7-0.1c-0.6-0.3-0.7-1-0.5-1.6c0.5-1.2,2.3-1.4,3.4-1.5c0.2,0,0.2-0.4,0-0.4c-1.2,0.1-2.7,0.3-3.4,1.3
				c-0.4,0.5-0.5,1.2-0.2,1.8c0.3,0.6,0.8,0.8,1.4,0.8c0.7,0.1,1.3-0.1,2,0.1c0.9,0.2,1.6,0.7,2.3,1.2c0.7,0.4,1.5,0.7,2.3,0.5
				c0.6-0.1,1.1-0.5,1.2-1.1c0.1-0.7-0.2-1.3-0.5-1.9c-0.2-0.3-0.4-0.6-0.6-0.9c-0.1-0.1-0.2-0.2-0.3-0.2c-0.1,0-0.3-0.2-0.3-0.2
				c-0.1,0.1-0.1,0.2-0.2,0.3c0,0,0.1,0,0.1,0.1C106.5,68.4,106.7,68.1,106.5,68L106.5,68z"/>
		</g>
	</g>
	<g>
		<g>
			<path class="st11" d="M115.9,69.5c-0.9-2.6-0.2-5.5-1.3-8.1c-0.9-2.2-2.7-3.9-4.9-4.7c-2.1-0.8-4.5-0.7-6.7-0.4
				c-1.2,0.2-2.4,0.5-3.4,1.1c-0.9,0.6-1.6,2.1-2.8,2.1c-0.5,0-0.5,0.7,0,0.7c0.9,0,1.4-0.5,2-1.1c0.9-1,1.9-1.6,3.2-1.9
				c2.2-0.5,4.6-0.7,6.8-0.1c2.4,0.7,4.4,2.4,5.3,4.8c0.9,2.5,0.2,5.2,1.1,7.7C115.4,70.1,116.1,69.9,115.9,69.5L115.9,69.5z"/>
		</g>
	</g>
	<g>
		<g>
			<path class="st11" d="M98.5,73.9c0.9,0.7,1.8,1.6,2.9,2.1c1.3,0.6,2.8,0.3,4.2,0.5c2.6,0.5,5,1.8,7.8,1.3
				c2.1-0.3,3.9-1.8,4.1-3.9c0.3-2.1-0.9-4.2-2.6-5.4c-2.5-1.7-5.7-1.7-8.5-1.6c-0.5,0-0.5,0.7,0,0.7c2.9-0.1,6.2-0.2,8.5,1.7
				c2.1,1.7,2.9,5.2,0.4,7c-2.5,1.7-5.5,0.5-8.1-0.2c-1.4-0.4-2.7-0.4-4.1-0.5c-1.7-0.1-2.8-1.3-4-2.3
				C98.7,73.1,98.1,73.6,98.5,73.9L98.5,73.9z"/>
		</g>
	</g>
	<g>
		<g>
			<path class="st11" d="M103.4,65.8c-1.5-2.9-3.8-6.2-7.5-6.1c-1.5,0-3,0.7-3.8,1.9c-1.1,1.5-1.1,3.5-0.5,5.2
				c0.1,0.4,0.8,0.2,0.7-0.2c-0.5-1.5-0.5-3.3,0.5-4.7c0.8-1.2,2.3-1.6,3.7-1.6c3.2,0.2,5.1,3.1,6.4,5.7
				C103,66.6,103.6,66.2,103.4,65.8L103.4,65.8z"/>
		</g>
	</g>
	<g>
		<g>
			<path class="st11" d="M104.2,44.5c-0.2,0.4-0.3,0.8-0.5,1.2c-0.1,0.2-0.2,0.4-0.2,0.6c0,0,0,0.1-0.1,0.1c0-0.1,0-0.1,0,0l0,0l0,0
				c0.1-0.1,0.1-0.1,0,0c0,0,0,0,0.1,0c0.2-0.1,0.4,0.1,0.5,0.3c-0.1-0.3-0.4-0.5-0.7-0.4c-0.3,0.1-0.5,0.4-0.4,0.7
				c0.1,0.2,0.2,0.4,0.4,0.4c0.2,0.1,0.4,0,0.6-0.1c0.1-0.1,0.2-0.2,0.3-0.4c0.1-0.2,0.1-0.3,0.2-0.5c0.2-0.5,0.4-1,0.6-1.6
				c0-0.1,0-0.3-0.1-0.4c-0.1-0.1-0.2-0.2-0.3-0.2c-0.1,0-0.3,0-0.4,0.1C104.3,44.3,104.2,44.4,104.2,44.5L104.2,44.5z"/>
		</g>
	</g>
	<g>
		<g>
			<path class="st11" d="M102.5,44.2c0.1,0.4,0.2,0.7,0.3,1.1c0,0,0,0.2,0,0c0,0,0,0.1,0,0.2c0,0.1,0,0.2,0,0.3c0,0.2,0,0.4,0,0.6
				c0,0.3,0.3,0.5,0.5,0.5c0.3,0,0.5-0.2,0.5-0.5c0.1-0.8-0.1-1.7-0.4-2.5c-0.1-0.3-0.4-0.5-0.7-0.4C102.6,43.7,102.4,44,102.5,44.2
				L102.5,44.2z"/>
		</g>
	</g>
	<g>
		<g>
			<path class="st11" d="M103.9,46.6c-0.1-0.1-0.2-0.3-0.3-0.4c-0.1-0.1-0.3-0.2-0.4-0.3c-0.3-0.2-0.6-0.3-0.9-0.4
				c-0.1,0-0.3,0-0.4,0.1s-0.2,0.2-0.2,0.3c-0.1,0.3,0.1,0.6,0.4,0.7c0.1,0,0.2,0.1,0.3,0.1c0,0-0.1,0-0.1-0.1
				c0.2,0.1,0.4,0.2,0.5,0.3l-0.1-0.1c0.2,0.1,0.3,0.3,0.4,0.4l-0.1-0.1l0,0c0.1,0.1,0.2,0.2,0.3,0.2c0.1,0,0.3,0,0.4-0.1
				s0.2-0.2,0.2-0.3C104,46.9,104,46.7,103.9,46.6L103.9,46.6z"/>
		</g>
	</g>
	<g>
		<g>
			<path class="st11" d="M123,56.2c0.5-1,0.7-2.1,0.7-3.2c0-0.3-0.2-0.5-0.5-0.5s-0.6,0.2-0.5,0.5c0,0.2,0,0.5,0,0.7
				c0,0.1,0,0.1,0,0.2c0,0,0,0.2,0,0.1c0,0.1,0,0.2-0.1,0.3c0,0.2-0.1,0.5-0.2,0.7c0,0.1-0.1,0.2-0.1,0.3c-0.1,0.2,0-0.1,0,0.1
				c0,0.1-0.1,0.1-0.1,0.2c-0.1,0.3-0.1,0.6,0.2,0.7C122.5,56.5,122.9,56.5,123,56.2L123,56.2z"/>
		</g>
	</g>
	<g>
		<g>
			<path class="st11" d="M122.8,55.5C122.8,55.5,122.8,55.4,122.8,55.5L122.8,55.5L122.8,55.5l-0.1-0.2v-0.1
				c-0.1-0.1-0.1-0.3-0.2-0.4c-0.1-0.3-0.2-0.6-0.3-0.9c-0.1-0.3-0.4-0.5-0.7-0.4c-0.3,0.1-0.5,0.4-0.4,0.7c0.2,0.7,0.4,1.3,0.7,2
				c0.1,0.1,0.2,0.2,0.3,0.2c0.1,0,0.3,0,0.4-0.1s0.2-0.2,0.2-0.3C122.9,55.8,122.9,55.7,122.8,55.5L122.8,55.5z"/>
		</g>
	</g>
	<g>
		<g>
			<path class="st11" d="M123.2,56.4c0.4-0.3,0.8-0.6,1.2-0.9c0.1-0.1,0.2-0.2,0.2-0.3s0-0.3-0.1-0.4c-0.1-0.1-0.2-0.2-0.3-0.2
				c-0.1,0-0.3,0-0.4,0.1c-0.4,0.3-0.8,0.6-1.2,0.9c-0.1,0.1-0.2,0.2-0.2,0.3s0,0.3,0.1,0.4c0.1,0.1,0.2,0.2,0.3,0.2
				S123.1,56.5,123.2,56.4L123.2,56.4z"/>
		</g>
	</g>
	<g>
		<g>
			<path class="st11" d="M100.8,57.1c-0.2-1.1,0.3-2.3,1.2-2.9c-0.2,0-0.3-0.1-0.5-0.1c0.4,0.8,0.7,1.7,0.9,2.6
				c0.1,0.4,0.8,0.3,0.7-0.2c-0.2-1-0.5-1.9-0.9-2.8c-0.1-0.2-0.3-0.2-0.5-0.1c-1.2,0.9-1.7,2.3-1.5,3.7c0,0.2,0.3,0.3,0.4,0.2
				C100.8,57.5,100.9,57.3,100.8,57.1L100.8,57.1z"/>
		</g>
	</g>
	<g>
		<g>
			<path class="st11" d="M115.3,62.8c0.1,0,0.1-0.1,0.2-0.1c0,0,0.1,0,0.1-0.1c0,0,0,0,0.1,0s0,0,0,0c0.2-0.1,0.4-0.2,0.7-0.2
				c0.2-0.1,0.5-0.1,0.8-0.2c0.1,0,0.1,0,0.2,0h0.1c0.1,0-0.1,0,0,0s0.3,0,0.4,0s0.1,0,0.2,0c0,0,0,0,0.1,0s-0.1,0,0,0h0.1
				c0,0,0,0,0.1,0c-0.1,0,0,0,0,0s0,0,0.1,0c-0.1,0,0,0,0,0l0,0c-0.1-0.1,0,0,0,0s0,0.1,0,0v0.1c0,0,0,0.1,0,0s0,0,0,0s0,0,0,0.1
				s0-0.1,0,0s0,0.1,0,0.2c-0.1,0.2-0.1,0.3-0.2,0.5c-0.2,0.3-0.5,0.6-0.7,0.9c-0.6,0.6-1.4,1.1-2.1,1.6c-0.4,0.2,0,0.9,0.4,0.6
				c0.7-0.5,1.5-1,2.1-1.6c0.6-0.5,1.2-1.3,1.3-2.1c0.1-0.5-0.3-1-0.8-1c-0.6-0.1-1.2,0-1.7,0.2c-0.5,0.1-1.1,0.3-1.5,0.6
				C114.5,62.5,114.9,63.1,115.3,62.8L115.3,62.8z"/>
		</g>
	</g>
	<g>
		<g>
			<path class="st11" d="M97,62.7c-1.4-0.3-2.9,0.8-3,2.3c0,0.2,0.2,0.4,0.4,0.4c0.2,0,0.3-0.2,0.4-0.4v-0.1c0,0.1,0,0,0,0
				c0-0.1,0-0.1,0.1-0.2v-0.1l0,0l0,0c0-0.1,0.1-0.1,0.1-0.2s0.1-0.1,0.1-0.2s0,0,0,0s0-0.1,0.1-0.1c0-0.1,0.1-0.1,0.1-0.1
				s0.1,0,0.1-0.1c0,0,0.1-0.1,0,0c0.1-0.1,0.2-0.2,0.4-0.2c0.1-0.1,0.2-0.1,0.3-0.1c0.1,0,0.1,0,0.2,0s0,0,0,0h0.1
				c0.1,0,0.1,0,0.2,0h0.1h0.1c0.2,0,0.4-0.1,0.4-0.2C97.3,62.9,97.2,62.7,97,62.7L97,62.7z"/>
		</g>
	</g>
	<g>
		<g>
			<path class="st11" d="M113.8,71.2c0.5,0.9,0.6,2,0.2,3c-0.1,0.2-0.1,0.4,0.1,0.5s0.4,0,0.5-0.1c0.5-1.2,0.5-2.6-0.2-3.7
				C114.1,70.5,113.5,70.8,113.8,71.2L113.8,71.2z"/>
		</g>
	</g>
	<g>
		<g>
			<path class="st11" d="M95.9,65.3c0.2-0.1,0.4-0.3,0.6-0.4l0.1-0.1v-0.1c0-0.1,0-0.2-0.1-0.3c-0.1-0.1-0.2-0.1-0.3-0.1h-0.1
				c-0.1,0-0.1,0-0.2,0.1c-0.2,0.1-0.4,0.3-0.6,0.4l-0.1,0.1V65c0,0.1,0,0.2,0.1,0.3c0.1,0.1,0.2,0.1,0.3,0.1h0.1
				C95.8,65.4,95.8,65.3,95.9,65.3L95.9,65.3z"/>
		</g>
	</g>
	<g>
		<g>
			<path class="st11" d="M113,72.7c0,0.1,0,0.1,0,0.2V73c0,0,0,0.1,0.1,0.1l0.1,0.1h0.1h0.1c0.1,0,0.1,0,0.2-0.1c0,0,0,0,0.1-0.1
				c0-0.1,0-0.1,0-0.2s0-0.1,0-0.2v-0.1c0,0,0-0.1-0.1-0.1l-0.1-0.1h-0.1h-0.1c-0.1,0-0.1,0-0.2,0.1c0,0,0,0-0.1,0.1
				C113,72.6,113,72.7,113,72.7L113,72.7z"/>
		</g>
	</g>
	<g>
		<g>
			<path class="st11" d="M91.5,67c0.6,3.6,4.1,5.5,7.1,6.9c0.4,0.2,0.8-0.4,0.4-0.6c-2.8-1.3-6.2-3-6.7-6.4
				C92.1,66.4,91.4,66.5,91.5,67L91.5,67z"/>
		</g>
	</g>
	<path class="st11" d="M110.7,61.2c1.2,0.7,1.6,2.2,0.9,3.4c-0.7,1.2-2.3,1.5-3.5,0.8s-1.6-2.2-0.9-3.4
		C108,60.9,109.5,60.5,110.7,61.2z M107.7,64.2c0.3,0.2,0.8,0.1,1-0.2c0.2-0.3,0.1-0.8-0.3-1c-0.3-0.2-0.8-0.1-1,0.2
		C107.3,63.5,107.4,64,107.7,64.2z"/>
	<g>
		<g>
			<path class="st11" d="M113,100.2c5.4-2.6,12-5,12.9-11.8c0.6-4-0.8-8.2,1.1-12c0.8-1.6,2.2-2.8,4-2.9c1.7,0,3.5,1,3.7,2.8
				c0,0.2,0.3,0.5,0.5,0.3c3.6-2.7,3.7-8,0.9-11.3c-1.5-1.8-3.7-3-6-3.5c-2.8-0.6-5.5,0.1-8,1.2c-0.4,0.2-0.1,0.8,0.4,0.6
				c4.3-1.9,9.1-1.9,12.6,1.6c2.9,2.9,3.2,8.1-0.3,10.7c0.2,0.1,0.4,0.2,0.5,0.3c-0.2-2.1-1.9-3.4-4-3.5c-2.5-0.2-4.4,1.6-5.4,3.8
				c-1.3,3.1-0.7,6.5-0.8,9.7c-0.1,3.6-1.5,6.6-4.4,8.7c-2.5,1.9-5.5,3-8.4,4.4C112.3,99.7,112.6,100.4,113,100.2L113,100.2z"/>
		</g>
	</g>
	<g>
		<g>
			<path class="st11" d="M112.9,99.4c-2,0.8-4.5,0.6-6.5,0c-1.9-0.5-3.6-1.6-4.3-3.5c-1.3-3.8,1.3-7.5,4.9-8.7
				c0.4-0.1,0.2-0.8-0.2-0.7c-3.2,1-5.6,3.8-5.7,7.3c0,1.5,0.4,3,1.3,4.1c1.1,1.4,2.8,2.1,4.5,2.4c2.1,0.4,4.4,0.6,6.3-0.3
				C113.7,99.9,113.3,99.2,112.9,99.4L112.9,99.4z"/>
		</g>
	</g>
	<g>
		<g>
			<path class="st11" d="M110.4,78.3c0.9,2.1,2.6,3.2,4.4,4.5c2,1.4,3.2,3.3,3.5,5.8c0.4,4.2-1.8,8.8-5.6,10.8
				c-0.4,0.2,0,0.8,0.4,0.6c3.8-1.9,6.1-6.4,6-10.6c0-2.1-0.7-4.1-2-5.7c-1.8-2.1-4.8-2.8-5.9-5.6C110.9,77.7,110.3,77.9,110.4,78.3
				L110.4,78.3z"/>
		</g>
	</g>
	<g>
		<g>
			<path class="st11" d="M111,82.1c0.7-1.5,0.6-3.3-0.2-4.8c-0.2-0.4-0.8,0-0.6,0.4c0.7,1.2,0.8,2.8,0.2,4.1
				c-0.1,0.2-0.1,0.4,0.1,0.5C110.6,82.3,110.9,82.3,111,82.1L111,82.1z"/>
		</g>
	</g>
	<g>
		<g>
			<path class="st11" d="M107.2,76.7c-1.9,1.8-4.7,1.8-7,0.7c-0.4-0.2-0.8,0.4-0.4,0.6c2.6,1.2,5.7,1.2,7.8-0.9
				C108.1,76.9,107.6,76.4,107.2,76.7L107.2,76.7z"/>
		</g>
	</g>
	<g>
		<g>
			<path class="st11" d="M100.1,77.4c-1,0.1-1.9,1-2,2c-0.2,1.3,0.8,2.3,1.6,3.2c0.9,1,1.9,1.9,3.1,2.4c1.3,0.5,2.7,0.5,4,0.1
				c0.4-0.1,0.2-0.8-0.2-0.7c-1.1,0.3-2.2,0.4-3.3,0c-1-0.3-1.9-1-2.7-1.8c-0.4-0.4-0.7-0.8-1-1.2c-0.3-0.4-0.7-0.8-0.8-1.4
				c-0.1-0.8,0.5-1.8,1.4-1.9C100.5,78.1,100.5,77.4,100.1,77.4L100.1,77.4z"/>
		</g>
	</g>
	<g>
		<g>
			<path class="st11" d="M103.5,97.8c-2.9-1.1-4.1-5-4.7-7.8c-0.7-3.2-0.6-6.5-0.1-9.7c0.1-0.4-0.6-0.6-0.7-0.2
				c-0.6,3.6-0.7,7.2,0.2,10.7c0.7,2.9,2,6.5,5,7.6C103.7,98.6,103.9,97.9,103.5,97.8L103.5,97.8z"/>
		</g>
	</g>
	<g>
		<g>
			<path class="st11" d="M99.8,78c0-0.4,0-0.8,0-1.1c0-0.4,0-0.8-0.1-1.2c-0.1-0.3-0.3-0.4-0.6-0.4c-0.3,0-0.5,0.3-0.6,0.5
				c-0.1,0.3-0.1,0.5-0.1,0.8s-0.2,0.3-0.4,0.1c-0.2-0.1-0.4-0.3-0.6-0.5c-0.2-0.1-0.5-0.3-0.7-0.3c-1.1-0.2-2.2,0.4-2.4,1.5
				c-0.2,1.1,0.2,2.5,1,3.4c0.9,0.9,2.4,1.1,3.3,0.1c0.3-0.3-0.2-0.8-0.5-0.5c-0.5,0.6-1.4,0.6-2,0.2c-0.7-0.5-1-1.4-1.1-2.2
				c-0.1-0.8,0.1-1.6,1-1.8c0.3,0,0.6,0,0.9,0.1c0.4,0.2,0.6,0.5,1,0.7s0.9,0.1,1.2-0.4c0.1-0.2,0.1-0.5,0.1-0.7
				c0-0.1,0-0.2,0.1-0.3l0.1-0.1c0-0.1-0.1,0,0,0c-0.1-0.1-0.1-0.2-0.2-0.3c0.1,0.8,0.1,1.6,0.1,2.4C99.1,78.4,99.8,78.4,99.8,78
				L99.8,78z"/>
		</g>
	</g>
	<g>
		<g>
			<path class="st11" d="M101.2,96.3c-1.9-1.2-3.6-3.6-2.5-5.9c0.2-0.4-0.4-0.8-0.6-0.4c-1.2,2.7,0.5,5.5,2.8,6.9
				C101.2,97.1,101.6,96.5,101.2,96.3L101.2,96.3z"/>
		</g>
	</g>
	<g>
		<g>
			<path class="st11" d="M96.4,78L96.4,78c-0.1,0-0.1,0-0.2,0l0,0l0,0h-0.1H96h-0.1c-0.1,0,0,0,0,0s0,0-0.1,0s-0.1-0.1-0.2-0.1l0,0
				c-0.1,0,0,0,0,0l-0.1-0.1c-0.1-0.1-0.1-0.1-0.2-0.2l0,0c0,0,0,0,0-0.1c0,0,0-0.1-0.1-0.1c0,0,0-0.1-0.1-0.1c0,0,0,0,0-0.1l0,0
				l0,0C95,77,94.9,76.9,94.7,77c-0.2,0.1-0.3,0.3-0.2,0.4c0.3,0.8,1.1,1.4,2,1.4c0.2,0,0.4-0.2,0.4-0.4C96.7,78.2,96.6,78,96.4,78
				L96.4,78z"/>
		</g>
	</g>
	<g>
		<g>
			<path class="st11" d="M96.3,79.8C96.3,79.8,96.2,79.8,96.3,79.8C96.2,79.8,96.2,79.8,96.3,79.8C96.2,79.8,96.3,79.8,96.3,79.8
				c-0.2,0-0.2,0-0.3,0s-0.1,0-0.2,0h-0.1l0,0c-0.1,0,0.1,0,0,0s-0.2-0.1-0.3-0.2c0,0,0,0-0.1,0l0,0c0,0-0.1,0,0,0l0,0l0,0
				c0,0-0.1,0-0.1-0.1c-0.1-0.1-0.4-0.1-0.5,0s-0.1,0.4,0,0.5c0.4,0.4,1,0.7,1.6,0.7c0.2,0,0.4-0.2,0.4-0.4
				C96.6,79.9,96.5,79.8,96.3,79.8L96.3,79.8z"/>
		</g>
	</g>
	<g>
		<g>
			<path class="st11" d="M102.2,91.3c0-3.1-2.3-5.6-2-8.7c0-0.5-0.7-0.5-0.7,0c-0.1,1.5,0.3,3,0.8,4.4c0.6,1.4,1.2,2.8,1.2,4.4
				C101.5,91.8,102.2,91.8,102.2,91.3L102.2,91.3z"/>
		</g>
	</g>
	<g>
		<g>
			<path class="st11" d="M94.7,78.7c-0.6-0.2-1.1-0.8-1.5-1.4c-0.3-0.6-0.7-1.2-0.7-1.9C92.4,75,92.6,74,93.2,74
				c0.4,0,0.7,0.5,0.9,0.8c0.3,0.3,0.6,0.6,1,0.7c0.4,0,0.8-0.1,1-0.5c0.1-0.2,0.1-0.4,0.1-0.6c0-0.1-0.1-0.2-0.1-0.3L96,74l0,0
				c0-0.1,0-0.1,0,0c-0.2,0-0.3,0.1-0.5,0.1c0.7,0.5,1.1,1.4,1,2.3c0,0.2,0.2,0.4,0.4,0.4c0.2,0,0.3-0.2,0.4-0.4
				c0.1-1.1-0.4-2.3-1.4-2.9c-0.2-0.1-0.4,0-0.5,0.1c-0.1,0.2-0.1,0.4-0.1,0.6c0,0.1,0.3,0.4,0.2,0.5c0,0.1-0.2,0.2-0.3,0.2
				c-0.2,0-0.4-0.2-0.5-0.3c-0.3-0.3-0.6-0.7-1-0.9c-0.4-0.2-0.8-0.2-1.2,0c-0.7,0.4-0.9,1.3-0.8,1.9c0.1,0.8,0.4,1.5,0.8,2.2
				c0.4,0.8,1.1,1.5,1.9,1.8C94.9,79.6,95.1,78.9,94.7,78.7L94.7,78.7z"/>
		</g>
	</g>
	<g>
		<g>
			<path class="st11" d="M96.7,75.8c0.5,0.1,1,0,1.4-0.3s0.7-0.7,0.8-1.2c0-0.2-0.1-0.4-0.2-0.4c-0.2,0-0.4,0.1-0.4,0.2v0.1
				c0,0,0,0,0,0.1l0,0l0,0c0,0.1-0.1,0.2-0.1,0.2l0,0c0,0,0,0,0,0.1l-0.1,0.1L98,74.8c-0.1,0.1,0.1,0,0,0c0,0,0,0-0.1,0
				c-0.1,0.1-0.2,0.1-0.2,0.1c-0.1,0,0.1,0,0,0c0,0,0,0-0.1,0h-0.1h-0.1c0,0,0.1,0,0,0c0,0,0,0-0.1,0s-0.1,0-0.2,0H97
				c-0.1,0,0.1,0,0,0c-0.2,0-0.4,0-0.4,0.2C96.4,75.5,96.5,75.8,96.7,75.8L96.7,75.8z"/>
		</g>
	</g>
	<g>
		<g>
			<path class="st11" d="M92.1,75c0.3,0.2,0.5,0.4,0.8,0.7c0.1,0.1,0.2,0.2,0.3,0.4l0.1,0.1l0,0c0-0.1,0,0,0,0
				c0.1,0.1,0.1,0.1,0.1,0.2c0.1,0.2,0.3,0.2,0.5,0.1s0.2-0.3,0.1-0.5c-0.4-0.6-0.9-1.1-1.5-1.5c-0.1-0.1-0.1-0.1-0.3-0.1
				c-0.1,0-0.2,0-0.3,0.1C91.9,74.6,91.9,74.9,92.1,75L92.1,75z"/>
		</g>
	</g>
	<g>
		<g>
			<path class="st11" d="M101.3,77.6L101.3,77.6L101.3,77.6c0-0.1,0-0.1-0.1-0.2v-0.1v-0.1c0,0,0,0.1,0,0s0-0.2,0-0.2v-0.1l0,0
				c0,0,0,0,0-0.1s0-0.1,0.1-0.2v-0.1c0,0,0,0.1,0,0c0,0,0,0,0-0.1s0.1-0.1,0.1-0.2l0,0l0,0l0.1-0.1c0.1-0.1,0.1-0.4,0-0.5
				s-0.4-0.1-0.5,0c-0.6,0.6-0.7,1.5-0.4,2.3c0.1,0.2,0.3,0.2,0.5,0.1C101.3,78,101.4,77.8,101.3,77.6L101.3,77.6z"/>
		</g>
	</g>
	<g>
		<g>
			<path class="st11" d="M104.2,99c0,1,0,1.9,0.2,2.9c0.1,0.8,0.3,1.7,0.7,2.4c0.4,0.5,1.1,0.7,1.6,0.3c0.6-0.4,0.8-1.3,0.9-2
				c0.1-0.9,0-1.8-0.4-2.7c-0.1-0.2-0.4,0-0.3,0.2c0.4,0.8,0.6,1.8,0.4,2.7c-0.1,0.6-0.6,2.1-1.5,1.6c-0.3-0.2-0.5-0.6-0.6-0.9
				c-0.2-0.4-0.3-0.9-0.4-1.4c-0.2-1-0.3-2-0.2-3C104.6,98.7,104.2,98.7,104.2,99L104.2,99z"/>
		</g>
	</g>
	<g>
		<g>
			<path class="st11" d="M107.2,103.4c-0.2,0.4,0.1,0.9,0.5,1c0.5,0.2,1,0,1.3-0.4c0.4-0.4,0.7-1,1-1.5c0.4-0.6,0.8-1.2,1.2-1.8
				c0.1-0.2-0.2-0.4-0.3-0.2c-0.6,0.9-1.2,1.9-1.8,2.8c-0.2,0.3-0.5,0.7-0.9,0.8c-0.3,0-0.8-0.2-0.6-0.6
				C107.6,103.4,107.3,103.2,107.2,103.4L107.2,103.4z"/>
		</g>
	</g>
	<g>
		<g>
			<path class="st11" d="M106.5,104.2c-0.4-0.6-0.5-1.5-0.1-2.2c0.1-0.2-0.2-0.4-0.3-0.2c-0.4,0.8-0.4,1.8,0.1,2.5
				C106.3,104.6,106.6,104.4,106.5,104.2L106.5,104.2z"/>
		</g>
	</g>
	<g>
		<g>
			<path class="st11" d="M108.4,104.2c0-0.5,0.1-0.9,0.1-1.4c0-0.1-0.1-0.2-0.2-0.2s-0.2,0.1-0.2,0.2c0,0.5-0.1,0.9-0.1,1.4
				c0,0.1,0.1,0.2,0.2,0.2C108.4,104.3,108.4,104.3,108.4,104.2L108.4,104.2z"/>
		</g>
	</g>
	<g>
		<g>
			<path class="st11" d="M127.6,61.6c-1.6-1.8-4.2-2.8-6.6-2.5c-0.4,0.1-0.5,0.8,0,0.7c2.3-0.3,4.6,0.6,6.1,2.3
				C127.4,62.5,127.9,61.9,127.6,61.6L127.6,61.6z"/>
		</g>
	</g>
	<g>
		<g>
			<path class="st11" d="M134.3,76.6c-0.1,0.4-0.2,0.8-0.3,1.2c0,0.1,0,0.3,0.1,0.4s0.2,0.2,0.3,0.2s0.3,0,0.4-0.1
				c0.1-0.1,0.2-0.2,0.2-0.3c0.1-0.4,0.2-0.8,0.3-1.2c0-0.1,0-0.3-0.1-0.4s-0.2-0.2-0.3-0.2s-0.3,0-0.4,0.1
				C134.5,76.4,134.4,76.5,134.3,76.6L134.3,76.6z"/>
		</g>
	</g>
	<g>
		<g>
			<path class="st11" d="M135,77c-0.1,0.3-0.1,0.5,0,0.8s0.2,0.5,0.4,0.7c0.1,0.1,0.3,0.2,0.4,0.2c0.1,0,0.3-0.1,0.4-0.2
				c0.1-0.1,0.2-0.2,0.2-0.4V78c0-0.1-0.1-0.2-0.1-0.2l0,0l0.1,0.1c-0.1-0.1-0.1-0.2-0.1-0.2s0,0.1,0.1,0.1c0-0.1-0.1-0.2-0.1-0.3
				v0.1c0-0.1,0-0.2,0-0.3v0.1v-0.1c0-0.1,0-0.3-0.1-0.4s-0.2-0.2-0.3-0.2s-0.3,0-0.4,0.1C135.1,76.7,135,76.8,135,77L135,77z"/>
		</g>
	</g>
	<g>
		<g>
			<path class="st11" d="M135.3,76.8c0.2,0.1,0.4,0.2,0.5,0.3c0,0,0,0,0.1,0c0,0,0.1,0.1,0,0s0,0,0,0s0,0,0.1,0.1s0.2,0.1,0.2,0.2
				c0.1,0.1,0.1,0.1,0.2,0.2l0.1,0.1c0,0,0,0,0.1,0.1c0,0,0,0,0-0.1l0,0c0.1,0.2,0.2,0.3,0.3,0.5s0.5,0.3,0.7,0.2
				c0.3-0.2,0.3-0.5,0.2-0.7c-0.4-0.8-1.1-1.5-2-1.9c-0.1-0.1-0.3-0.1-0.4-0.1c-0.1,0-0.3,0.1-0.3,0.2C135,76.4,135,76.7,135.3,76.8
				L135.3,76.8z"/>
		</g>
	</g>
	<g>
		<g>
			<path class="st11" d="M108.6,72.7c2,0.3,4-0.3,5.4-1.6c0.2-0.2-0.1-0.4-0.3-0.3c-1.4,1.2-3.3,1.8-5.1,1.5
				C108.5,72.4,108.4,72.7,108.6,72.7L108.6,72.7z"/>
		</g>
	</g>
	<g>
		<g>
			<path class="st11" d="M96.8,63c0,1.6,0.5,3.2,1.6,4.5c0.1,0.2,0.4-0.1,0.3-0.3c-1-1.2-1.5-2.7-1.5-4.2
				C97.1,62.8,96.8,62.8,96.8,63L96.8,63z"/>
		</g>
	</g>
	<g>
		<g>
			<path class="st11" d="M102.4,103.3c-0.7-1.3-1.4-2.5-2.2-3.7c-0.1-0.2-0.4,0-0.3,0.2c0.8,1.2,1.5,2.4,2.2,3.7
				C102.2,103.7,102.5,103.5,102.4,103.3L102.4,103.3z"/>
		</g>
	</g>
	<g>
		<g>
			<path class="st11" d="M100.7,103.7c-0.2-0.2-0.4-0.4-0.6-0.6c-0.1-0.1-0.2-0.1-0.3,0c-0.1,0.1-0.1,0.2,0,0.3
				c0.2,0.2,0.4,0.4,0.6,0.6c0.1,0.1,0.2,0.1,0.3,0S100.8,103.8,100.7,103.7L100.7,103.7z"/>
		</g>
	</g>
	<g>
		<g>
			<path class="st11" d="M114.8,104.4c1.1-1.6,2.5-3,4.2-4.1c0.2-0.1,0-0.4-0.2-0.3c-1.7,1.2-3.1,2.6-4.3,4.3
				C114.4,104.5,114.7,104.6,114.8,104.4L114.8,104.4z"/>
		</g>
	</g>
	<g>
		<g>
			<path class="st11" d="M116.8,105c0.3-0.2,0.5-0.4,0.8-0.6l0.1-0.1v-0.1c0-0.1-0.2-0.1-0.2-0.1c-0.3,0.2-0.5,0.4-0.8,0.6l-0.1,0.1
				v0.1C116.6,105,116.7,105,116.8,105L116.8,105z"/>
		</g>
	</g>
	<g>
		<g>
			<path class="st11" d="M67,90.6c2.4,0.1,4.8,0.2,7.1,0.3c0.1,0,0.2-0.1,0.2-0.2c-0.1-1.2-0.2-2.3-0.5-3.5c-0.1,0-0.2,0.1-0.3,0.1
				c0.5,0.7,0.9,1.3,1.4,2c0.2,0.3,0.4,0.9,0.8,1c0.7,0.4,0.6-0.8,1-1c-0.1,0-0.2-0.1-0.3-0.1c0.2,0.6,0.6,1,1.1,1.2
				c0.5,0.3,1.2,0.7,1.8,0.4c0.5-0.3,0.8-0.9,1-1.4c0.5-1,1.4-1.7,2.4-2.1c0.2-0.1,0.1-0.4-0.1-0.3c-1,0.4-1.9,1.1-2.5,2
				c-0.4,0.7-0.6,1.7-1.6,1.5c-0.7-0.1-1.6-0.7-1.8-1.4c0-0.1-0.2-0.2-0.3-0.1c-0.4,0.2-0.3,1.1-0.8,0.7c-0.3-0.3-0.6-0.9-0.8-1.3
				c-0.3-0.5-0.6-0.9-0.9-1.4c-0.1-0.2-0.4-0.1-0.3,0.1c0.3,1.1,0.4,2.2,0.5,3.4c0.1-0.1,0.1-0.1,0.2-0.2c-2.4-0.1-4.8-0.2-7.1-0.3
				C66.8,90.2,66.8,90.6,67,90.6L67,90.6z"/>
		</g>
	</g>
	<g>
		<g>
			<path class="st11" d="M82.8,90.9c3.1-0.2,6.3-0.4,9.4-0.7c0.2,0,0.2-0.4,0-0.4c-3.1,0.2-6.3,0.4-9.4,0.7
				C82.6,90.6,82.6,90.9,82.8,90.9L82.8,90.9z"/>
		</g>
	</g>
	<g>
		<g>
			<path class="st11" d="M17,93.2c-0.5-0.4-1.2-0.5-1.8-0.4s-1.2,0.6-1.8,0.4c-1.1-0.2-1.7-1.4-2.8-1.7c-0.1,0-0.2,0.1-0.2,0.2
				c0.1,0.6,1,1.8,0.1,2c-0.4,0.1-0.9,0-1.3,0.1c-0.5,0-0.9,0-1.4,0c-0.2,0-0.2,0.4,0,0.4c0.6,0,1.3,0,1.9-0.1
				c0.4,0,0.9,0.1,1.2-0.2c0.8-0.6-0.1-1.6-0.2-2.2c-0.1,0.1-0.2,0.1-0.2,0.2c1.1,0.3,1.6,1.3,2.7,1.7c0.5,0.2,1,0,1.5-0.2
				c0.8-0.3,1.5-0.3,2.2,0.2C17,93.7,17.2,93.4,17,93.2L17,93.2z"/>
		</g>
	</g>
	<g>
		<g>
			<path class="st11" d="M124.3,92.1c0.8,0.2,1.5-0.2,1.9-0.8c0.6-0.7,0.6-1.7,0.7-2.6c-0.1,0-0.2,0.1-0.3,0.1
				c0.7,0.7,1.1,1.6,1.2,2.6c0,0.1,0.1,0.2,0.2,0.2c0.3,0,0.6-0.1,0.8-0.4c-0.1,0-0.2,0-0.3,0c1,1.9,3.4-0.1,4.8,0.3
				c0.2,0.1,0.3-0.3,0.1-0.3c-0.9-0.2-1.7,0.2-2.6,0.4c-0.7,0.2-1.7,0.2-2.1-0.5c-0.1-0.1-0.2-0.1-0.3,0c-0.1,0.2-0.3,0.3-0.6,0.3
				c0.1,0.1,0.1,0.1,0.2,0.2c0-1.1-0.5-2.1-1.3-2.9c-0.1-0.1-0.3,0-0.3,0.1c0,0.7-0.1,1.5-0.5,2.1c-0.3,0.6-1,1-1.7,0.9
				C124.1,91.7,124.1,92.1,124.3,92.1L124.3,92.1z"/>
		</g>
	</g>
	<g>
		<g>
			<path class="st11" d="M48.9,107.8c-0.5-1.6-1.2-3.2-2.2-4.6c-0.1,0.1-0.2,0.1-0.3,0.2c1.4,1.3,2.9,2.6,4.3,3.9
				c0.1,0.1,0.3,0.1,0.3-0.1c0.1-0.7,0.4-1.4,0.8-2c-0.1,0-0.2,0-0.3,0c1,4.1,6.7,2.4,9.5,2.1c5.1-0.5,10.3-0.4,15.4,0.3
				c0.2,0,0.3-0.3,0.1-0.3c-4.2-0.6-8.4-0.8-12.6-0.5c-2,0.1-4,0.4-5.9,0.6c-2.2,0.3-5.4,0.5-6.1-2.3c0-0.2-0.2-0.2-0.3,0
				c-0.4,0.7-0.7,1.3-0.8,2.1c0.1,0,0.2-0.1,0.3-0.1c-1.4-1.3-2.9-2.6-4.3-3.9c-0.1-0.1-0.4,0-0.3,0.2c1,1.4,1.7,2.9,2.2,4.5
				C48.6,108.1,49,108,48.9,107.8L48.9,107.8z"/>
		</g>
	</g>
	<g>
		<g>
			<path class="st11" d="M88.8,104.2c-2.9-0.3-5.9,0.1-8.7,1.1c-0.1,0-0.2,0.2-0.1,0.3c0.8,1.1,2.4,1.5,3.7,1.7
				c1.7,0.3,3.4,0.4,5.1,0.2c0.8-0.1,1.7-0.2,2.5-0.5c0.4-0.1,0.7-0.4,0.5-0.8c-0.3-0.5-1-0.9-1.5-1.2c-0.7-0.4-1.4-0.6-2.1-0.8
				c-0.2,0-0.3,0.3-0.1,0.3c0.6,0.1,1.2,0.3,1.7,0.6c0.5,0.2,1.2,0.6,1.5,1c0.4,0.6-0.2,0.6-0.6,0.7c-0.3,0.1-0.6,0.2-0.9,0.2
				c-0.7,0.1-1.4,0.2-2.2,0.3c-1.3,0.1-2.7,0-4-0.3c-1.2-0.2-2.6-0.5-3.4-1.5c0,0.1-0.1,0.2-0.1,0.3c2.7-1,5.7-1.4,8.6-1.1
				C89.1,104.6,89.1,104.2,88.8,104.2L88.8,104.2z"/>
		</g>
	</g>
	<g>
		<g>
			<path class="st11" d="M92.5,104.6c0.7,0.3,1.6,0.4,2.3,0.1c0.2-0.1,0.3-0.1,0.4-0.3c0.1-0.2,0-0.3-0.2-0.4
				c-0.1-0.1-0.3-0.1-0.5-0.2c-0.2,0-0.4-0.1-0.6-0.1c-0.5,0-1,0-1.5,0.1c-0.2,0-0.2,0.2,0,0.3c0.4,0.2,0.8,0.3,1.2,0.3
				c0.2,0,0.2-0.4,0-0.4c-0.4,0-0.7-0.1-1-0.2c0,0.1,0,0.2,0,0.3c0.4-0.1,0.9-0.1,1.3-0.1c0.2,0,0.4,0.1,0.6,0.1
				c0.1,0,0.4,0.1,0.4,0.2s-0.4,0.2-0.4,0.2c-0.2,0-0.4,0.1-0.6,0.1c-0.4,0-0.8-0.1-1.2-0.2C92.5,104.2,92.3,104.5,92.5,104.6
				L92.5,104.6z"/>
		</g>
	</g>
	<circle class="st13" cx="24.6" cy="31.9" r="1.2"/>
</g>
<g id="Layer_2">
</g>
</svg>
