<?xml version="1.0" encoding="utf-8"?>
<!-- Generator: Adobe Illustrator 24.0.1, SVG Export Plug-In . SVG Version: 6.00 Build 0)  -->
<svg version="1.1" id="Layer_1" xmlns="http://www.w3.org/2000/svg" xmlns:xlink="http://www.w3.org/1999/xlink" x="0px" y="0px"
	 viewBox="0 0 141.7 141.7" style="enable-background:new 0 0 141.7 141.7;" xml:space="preserve">
<style type="text/css">
	.st0{fill:#C9E3B1;}
	.st1{fill:#F38568;}
	.st2{fill:#FFFFFF;}
	.st3{fill:#EDA796;}
	.st4{fill:#CC9793;}
	.st5{fill:#AB685D;}
	.st6{fill:#88514D;}
	.st7{fill:#75D0ED;}
	.st8{fill:#CAB19D;}
	.st9{fill:#756C67;}
	.st10{fill:#070707;}
	.st11{fill:none;stroke:#070707;stroke-width:0.3625;stroke-miterlimit:10;}
	.st12{fill:#524C48;}
	.st13{fill:#0486B4;}
</style>
<g id="Layer_12">
</g>
<g id="Layer_8">
</g>
<g id="Layer_15">
</g>
<g id="Layer_16">
</g>
<path class="st0" d="M131.5,105.1c-1.3-0.3-2.5-0.5-3.8-0.8c-0.1,0-0.2-0.1-0.3-0.2c0,0,0,0,0,0c-0.9,0.6-2-0.4-1.8-1.3
	c0,0-0.1,0-0.1,0l0.2-0.1c0-0.1,0.1-0.1,0.1-0.2c0.6-1,1.5-1.6,2.6-2.1c0.2-0.1,0.5-0.2,0.7-0.2l0.8-0.6l-13.4-0.2l-1.7-0.9
	l-2.1-2.1l-1.3,2.4l-1.1,1L12.9,101l-1.1-1.8l-0.4-3.1l-0.7,5.3l-1.5-0.7L8,101.5L5,101.7l5.7,6.8c0.4-0.3,0.8-0.5,1.3-0.6
	c0.1,0,0.2,0,0.2,0c0.6-1.2,2.7-0.3,2.2,0.9c-0.2,0.6-0.3,1.2-0.3,1.9c0.2,0,0.3,0,0.5,0c0-0.1,0.1-0.1,0.1-0.2
	c0.7-1.4,2.6-0.2,2.1,1.1c0.1,0.1,0.2,0.2,0.3,0.4c0,0.1,0.1,0.2,0.1,0.3c0,0,0,0,0,0c0,0,0,0,0,0c0.1,0.3,0.2,0.7,0.2,1
	c0,0,0,0.1,0,0.1l7.1,3.1c0,0-24.5,5.8,23.7,6.6c2.3,0,4.4,0.1,6.3,0.1l0.8,1l2.4-0.4l3.9,0.4l10.3-0.7l1.6-1.3l-3.9-3.7
	c0,0,3.2,0.4,6.9,3.7l0.2-3.6l2.3,1.8l1.7,1.6l2.4-0.1l6.1,0.6l3.1-0.5l1.3-0.3c0.5-2.3,1.7-4.5,4.1-5.4c0.8-0.3,1.8,0.7,1.5,1.5
	c-0.2,0.5-0.3,1.1-0.4,1.7c0,0.3-0.1,0.7-0.1,1l0.2,0c0.1-0.1,0.2-0.3,0.2-0.4c0.4-0.6,0.7-1.1,1.3-1.5c0.9-0.6,1.8,0.2,1.8,1.1
	l31.9-7.7C134.1,112.3,141.1,109.4,131.5,105.1z"/>
<path class="st1" d="M112,52.9c-0.1-0.1-0.1-0.2-0.1-0.3l-0.5-0.3l-2.5-2l-3.1-0.7l-4.4-0.5l-3.4,0l-2.8,0.8L92,51.4l-2,2.5
	l-1.6,2.8l-0.7,3.2l-0.1,3.9l-0.7,2.4l0,0.9l1.4-0.9l3.3-1.6l3.8-0.7l3-0.1l1.7,0l3.1-0.7l2.8-1.7l1.1-1.9l2-2.5l2.2-1.9l1.9-1.3
	C112.6,53.7,112.2,53.4,112,52.9z"/>
<path class="st1" d="M112.6,82.3l-1.7-1.7l-3,0.3l-2.7-0.5l-3.3-1.4l-1.3-1.1l0.1-1.1l-5.2,1.4l-2.5,2.4L90,81.9l-2.3,1.1L85,84.5
	l-2.1,2.2l-1.8,4l-0.5,3.1l0,3l1.2,4.4l1.7,3.5l2.7,2.3c0,0,0,0,0,0c3.1,0.8,6.3,1.3,9.5,1.6c0.1,0,0.2,0,0.3,0
	c1.9-0.5,3.8-1,5.6-1.7l0.3-0.2l2.1-3l0.3-1.7c-0.1-0.2,0-0.4,0-0.6c-0.1-1.4-0.1-2.9,0.4-4.2c0.2-0.6,0.6-1.1,1-1.6
	c0.6-1,1.4-2,2.3-2.8c0.2-0.2,0.4-0.4,0.6-0.6l0.2-1.1c-0.1-0.2-0.2-0.5-0.3-0.7c-0.1-0.2-0.1-0.3-0.2-0.5c0,0,0-0.1,0-0.1
	c0,0-0.1-0.1-0.1-0.2c-0.3-0.6-0.1-1.3,0.4-1.7c0.2-0.1,0.5-0.2,0.7-0.3l0,0l2.5-2l0.9-1.3L112.6,82.3z"/>
<polygon class="st1" points="109.4,97.3 109.7,100 109.2,102.5 107.4,104.5 105.3,104.1 "/>
<path class="st1" d="M86,53.4l-0.6,0l-2.8-1.3L80,49.9l-1.5-1.4l0-1l-1.3,0.5l0.7,1.9l1.8,3.3l1.1,3.1l0.9,2.9L83,62l2,1.8l1.8,0.2
	l0.6-3.6l0.7-4l1.5-2l-0.4-0.2C88.2,54,87.1,53.8,86,53.4z"/>
<path class="st1" d="M112.2,50.4l-0.1-0.6l-0.4-1.7l-0.7-1.9l-1.7-2.3l-1.8-1.8l-1.1-1.8l-1.4-3.7l-0.5-0.6l-0.9,2.5l0.3,1.9
	l0.1,3.3l-1,3.2l-2.2,2.5l5.8,0.4l3.2,0.3l2.4,1.5C112.1,51.2,112.1,50.8,112.2,50.4z"/>
<circle class="st2" cx="94.7" cy="58.4" r="4.8"/>
<circle class="st2" cx="103.8" cy="54.5" r="4.9"/>
<path class="st3" d="M121.1,59.8l-1-3l-1.7-1.7c-1.1-0.2-2.2-0.4-3.4-0.6c-0.2,0-0.4-0.1-0.6-0.2l-1.4,0.2l-2.9,1.1l-2.2,1.9
	l-3.1,4.4l-6.4,2.4l-3.1-0.1l-3.5,0.7l-3.8,1.4l-2.6,2.4L85,69.2c-0.7,1.8-1.1,4-0.4,5.8l0.8,1.4c0.1,0.1,0.1,0.1,0.2,0.2l2.1,1.2
	c0.7,0.3,1.5,0.6,2.2,0.9c0.4,0,0.8,0,1.3,0c1,0,1.9-0.3,2.8-0.4l0.5-0.1l2.9-0.7l5.6-0.9l2.9-0.2l1.8-0.9l2.3-1.7l2.1-1.4
	c0.2-0.4,0.5-0.9,0.8-1.3c0,0,0,0,0-0.1c-0.1-0.1-0.1-0.2-0.1-0.3c-0.2-0.2-0.4-0.5-0.3-0.8c0-0.4,0.1-0.8,0.3-1.2
	c0-0.2,0.1-0.3,0.2-0.4c0.4-0.9,1.2-1.8,2-2.4c1.7-1.4,3.6-1.7,5.6-1.7l0.6-1.7L121.1,59.8z"/>
<path class="st2" d="M105.3,74.4c0-0.3,0.1-0.6,0.4-0.9c0,0,0,0,0.1-0.1l0-0.7l-0.1-1.2l-0.7-1.6l-0.2-0.9l-2.9,1.6l0.2,1.7l0.6,1.8
	l0.8,0.8l1.5,0L105.3,74.4C105.3,74.5,105.3,74.5,105.3,74.4z"/>
<polygon class="st2" points="107.3,68.6 108.3,70 108.8,71.6 108.8,72.7 108.2,73.5 106.9,74.3 106.2,73.7 104.4,69.2 "/>
<path class="st3" d="M108.7,79.9c0-0.1,0.1-0.2,0.1-0.2c0-0.1,0.1-0.2,0.1-0.3c0.4-1.7,1-3.7,2.1-5.2c0.3-0.6,0.7-1.1,1.1-1.7
	l-2.1,1.4l-2.3,1.7l-3.1,0.9l-3.7,0.2l-0.1,1.1l1.3,1.1l3.3,1.4l2,0l1.2,0C108.6,80.2,108.6,80.1,108.7,79.9z"/>
<path class="st1" d="M110.5,66.4l-0.4-1c-0.5-0.5-1-0.9-1.5-1.3c-0.5-0.2-1-0.3-1.4-0.5l-1.2-0.1l-0.7,0.2c-0.1,0.2-0.3,0.3-0.5,0.4
	c-1.5,0.8-3,1.6-4.8,1.3c-0.1,0-0.1,0-0.2-0.1l-0.6,0.2l-0.9,1.7l-0.8,1.4l0.2,1.4l1.4,0.8l1.7,0l0.8-0.2l1.5-0.8l1.4-0.8l1.8-0.6
	l2.1,0l1.1-0.4l1-0.8L110.5,66.4z"/>
<polyline class="st3" points="97.6,109.3 100.9,110.2 102.8,110.4 103.9,108.5 101.9,106.7 "/>
<polygon class="st3" points="105.9,104.4 108,104.7 109.5,105.9 109.7,106.9 107.6,107.5 102.9,106.7 "/>
<g>
	<g>
		<path class="st2" d="M105.1,70.9c0,0.5,0,1.1,0.1,1.6c0.1,0.3,0.1,0.5,0.2,0.8c0.1,0.2,0.4,0.4,0.6,0.5c0.5,0.2,1.2,0.3,1.7,0
			c0.5-0.3,0.8-0.9,0.6-1.4c-0.1-0.2-0.1-0.3-0.3-0.4c-0.1-0.1-0.3-0.1-0.5-0.1c-0.3,0.1-0.5,0.4-0.4,0.7c0,0,0,0.2,0,0
			c0-0.1,0,0,0,0c0,0,0-0.2,0,0c0,0.1,0.1-0.1,0,0c0,0,0,0,0,0c0,0,0,0,0-0.1c0,0,0,0-0.1,0.1c-0.1,0.1,0.1-0.1,0,0c0,0,0,0,0,0
			c0,0,0,0,0,0c0,0,0,0,0,0c0,0-0.1,0-0.1,0c0,0,0.2,0,0,0c0,0-0.1,0-0.1,0c-0.1,0,0.1,0,0,0c-0.1,0-0.2,0-0.3-0.1c0,0,0,0,0.1,0
			c0,0,0,0-0.1,0c0,0-0.1,0-0.1-0.1c0,0,0,0,0,0c0,0,0,0,0,0c-0.1-0.1,0,0,0,0c0,0,0,0,0-0.1c0,0,0,0,0,0.1c0,0,0-0.1,0-0.1
			c0-0.2-0.1-0.4-0.1-0.5c0,0,0-0.1,0-0.1c0-0.1,0,0.1,0,0c0-0.1,0-0.2,0-0.3c0-0.2,0-0.4,0-0.6c0-0.3-0.3-0.6-0.6-0.6
			C105.4,70.3,105.1,70.5,105.1,70.9L105.1,70.9z"/>
	</g>
</g>
<g>
	<g>
		<path class="st3" d="M102.3,109.7c0.2,0.1,0.4,0.2,0.5,0.3c0.1,0,0.1,0.1,0.2,0.1c0.1,0,0.2,0,0.2,0c0.1,0,0.1-0.1,0.2-0.1
			c0.1,0,0.1-0.1,0.2-0.2c0,0,0-0.1,0.1-0.1c0-0.1,0-0.2,0-0.3c0,0,0-0.1-0.1-0.1c-0.1-0.1-0.1-0.2-0.2-0.2
			c-0.2-0.1-0.4-0.2-0.5-0.3c-0.1,0-0.1-0.1-0.2-0.1c-0.1,0-0.2,0-0.2,0c-0.1,0-0.1,0.1-0.2,0.1c-0.1,0-0.1,0.1-0.2,0.2
			c0,0,0,0.1-0.1,0.1c0,0.1,0,0.2,0,0.3c0,0,0,0.1,0.1,0.1C102.2,109.5,102.2,109.6,102.3,109.7L102.3,109.7z"/>
	</g>
</g>
<g>
	<g>
		<path class="st3" d="M118.6,57.6c1.1,0.2,1.5,1.1,1.6,2.1c0.1,1.2,0.1,2.4-0.3,3.5c-0.1,0.3,0.1,0.7,0.4,0.7
			c0.3,0.1,0.6-0.1,0.7-0.4c0.3-0.7,0.3-1.5,0.4-2.2c0-0.7,0-1.4-0.1-2.1c-0.2-1.4-1-2.6-2.4-2.9c-0.3-0.1-0.7,0.1-0.7,0.4
			C118.1,57.1,118.3,57.5,118.6,57.6L118.6,57.6z"/>
	</g>
</g>
<g>
	<g>
		<path class="st3" d="M121.4,61.7c0,0.2-0.3,0.4-0.6,0.3c-0.1,0-0.4-0.2-0.3-0.4c0,0,0,0.1,0,0.1c0-0.1,0-0.1,0,0c0,0,0,0.1,0,0.1
			c0,0.2-0.1,0.4-0.1,0.6c-0.1,0.4-0.2,0.8-0.4,1.2c0,0.1,0,0.3,0,0.4c0,0.1,0.1,0.2,0.2,0.3c0.2,0.1,0.5,0.1,0.7-0.1
			c0.1-0.1,0.2-0.2,0.2-0.2c0.2-0.2,0.2-0.6,0-0.9c-0.2-0.2-0.6-0.2-0.9,0c-0.1,0.1-0.2,0.2-0.2,0.2c0.3,0.2,0.7,0.4,1,0.6
			c0.2-0.6,0.4-1.1,0.5-1.7c0.1-0.4,0.2-0.9-0.2-1.2c-0.4-0.4-1.1-0.2-1.2,0.3c-0.1,0.3,0.1,0.7,0.4,0.7
			C120.9,62.2,121.3,62.1,121.4,61.7L121.4,61.7z"/>
	</g>
</g>
<g>
	<g>
		<path class="st1" d="M111.2,54.8c0.2,0,0.3-0.1,0.5-0.1c-0.1,0-0.1,0-0.2,0c0.3,0,0.6,0,0.9,0c-0.1,0-0.1,0-0.2,0
			c0.1,0,0.2,0,0.3,0.1c0.3,0.1,0.7-0.1,0.7-0.4c0.1-0.3-0.1-0.7-0.4-0.7c-0.7-0.2-1.4-0.1-2,0c-0.3,0.1-0.5,0.4-0.4,0.7
			C110.5,54.7,110.8,54.9,111.2,54.8L111.2,54.8z"/>
	</g>
</g>
<g>
	<g>
		<path class="st1" d="M86.5,63.7c0.2,0,0.4,0.1,0.6,0.1c0.4,0.1,0.8-0.2,0.8-0.6c0.1-1.6,0.2-3.2,0.5-4.8c0.1-0.3-0.1-0.7-0.4-0.7
			c-0.3-0.1-0.7,0.1-0.7,0.4c-0.3,1.7-0.5,3.4-0.6,5.1c0.3-0.2,0.5-0.4,0.8-0.6c-0.2,0-0.4-0.1-0.6-0.1c-0.3-0.1-0.7,0.1-0.7,0.4
			C86,63.3,86.2,63.7,86.5,63.7L86.5,63.7z"/>
	</g>
</g>
<g>
	<g>
		<path class="st1" d="M107.8,49.6c0.7,0.1,1.3,0.5,1.8,1c0.3,0.2,0.5,0.5,0.8,0.8c0.1,0.1,0.2,0.3,0.3,0.4c0,0,0.1,0.1,0.1,0.1
			c0,0.1,0,0.1,0,0c0,0,0,0.1,0,0.1c0,0.1,0,0.1,0,0c0.3-0.1,0.7-0.3,1-0.4c-1.2-1.6-2.9-2.8-4.8-3.5c-0.3-0.1-0.7,0.1-0.7,0.4
			c-0.1,0.3,0.1,0.6,0.4,0.7c1.6,0.7,3.1,1.8,4.2,3.2c0.3,0.4,1.1,0.1,1-0.4c-0.1-1-0.9-1.7-1.6-2.3c-0.7-0.6-1.5-1.2-2.4-1.3
			c-0.3-0.1-0.7,0.1-0.7,0.4C107.3,49.1,107.4,49.5,107.8,49.6L107.8,49.6z"/>
	</g>
</g>
<g>
	<g>
		<path class="st1" d="M105.2,37.3c-0.1-0.2-0.1-0.5-0.2-0.7c0-0.1-0.1-0.3-0.3-0.4c-0.1,0-0.1-0.1-0.2-0.1c-0.1,0-0.2,0-0.2,0
			c-0.1,0-0.3,0.1-0.4,0.3c0,0,0,0.1-0.1,0.1c0,0.1,0,0.2,0,0.3c0,0,0,0,0,0.1c0-0.1,0-0.1,0-0.2c0,0.1,0,0.2,0,0.4
			c0-0.1,0-0.1,0-0.2c0,0.1,0,0.1,0,0.2c0,0.1,0,0.1,0,0.2c0,0.1,0,0.2,0.1,0.2c0,0.1,0,0.1,0.1,0.1c0,0.1,0.1,0.1,0.2,0.2
			c0,0,0.1,0,0.1,0.1c0.1,0,0.1,0,0.2,0c0.1,0,0.2,0,0.2-0.1c0.1,0,0.1-0.1,0.2-0.1c0.1-0.1,0.2-0.2,0.3-0.4
			c0.1-0.1,0.1-0.3,0.2-0.4c0-0.1,0-0.2,0-0.2c0-0.1,0-0.2-0.1-0.2c0-0.1-0.1-0.1-0.2-0.2c-0.1-0.1-0.1-0.1-0.2-0.1
			c-0.2,0-0.3,0-0.5,0.1c-0.1,0.1-0.2,0.2-0.3,0.4c0,0.1,0,0.2-0.1,0.3c0,0,0-0.1,0.1-0.1c0,0.1-0.1,0.2-0.2,0.3
			c0,0,0.1-0.1,0.1-0.1c0,0,0,0,0,0c0.3,0.2,0.7,0.4,1,0.6c0-0.2,0.1-0.3,0.1-0.5c0-0.2,0-0.3,0-0.5c-0.4,0.1-0.8,0.2-1.2,0.3
			c0.1,0.2,0.1,0.5,0.2,0.7c0,0.1,0.1,0.3,0.3,0.4c0.1,0,0.1,0.1,0.2,0.1c0.1,0,0.2,0,0.2,0c0.1,0,0.3-0.1,0.4-0.3
			C105.2,37.6,105.2,37.4,105.2,37.3L105.2,37.3z"/>
	</g>
</g>
<g>
	<g>
		<path class="st1" d="M78.9,48.5c-0.1-0.1-0.1-0.1-0.2-0.2c-0.1-0.1-0.1-0.1-0.2-0.1c-0.1,0-0.1-0.1-0.2-0.1c-0.1,0-0.2,0-0.2,0.1
			c-0.1,0-0.1,0.1-0.2,0.1c0,0-0.1,0.1-0.1,0.1c-0.1,0.1-0.1,0.2-0.1,0.3c0,0.1,0,0.1,0,0.2c0,0.1,0.1,0.2,0.2,0.3
			c0.1,0.1,0.1,0.1,0.2,0.2c0.1,0.1,0.1,0.1,0.2,0.1c0.1,0,0.1,0.1,0.2,0.1c0.1,0,0.2,0,0.2-0.1c0.1,0,0.1-0.1,0.2-0.1
			c0,0,0.1-0.1,0.1-0.1C79,49.2,79,49.1,79,49c0-0.1,0-0.1,0-0.2C79,48.7,78.9,48.6,78.9,48.5L78.9,48.5z"/>
	</g>
</g>
<g>
	<g>
		<path class="st1" d="M86.5,106.2c0.8,0.8,1.7,1.2,2.7,1.6c1.2,0.4,2.5,0.7,3.7,0.8c2.4,0.3,4.7-0.3,6.5-1.8
			c0.6-0.5-0.3-1.3-0.9-0.9c-1.6,1.4-3.7,1.8-5.8,1.4c-1.8-0.3-4.1-0.7-5.4-2C86.8,104.8,86,105.6,86.5,106.2L86.5,106.2z"/>
	</g>
</g>
<g>
	<g>
		<path class="st3" d="M99.1,108.3c-0.1,0-0.1,0-0.2,0c0,0,0,0-0.1,0c-0.1,0,0.2,0,0,0c0,0-0.1,0-0.1,0c0,0-0.1,0,0,0c0.1,0,0,0,0,0
			c0,0.4-0.1,0.7-0.1,1.1c0.7-0.1,1.5-0.3,2.2-0.5c0.3-0.1,0.5-0.4,0.4-0.7c-0.1-0.3-0.4-0.5-0.7-0.4c-0.7,0.2-1.5,0.4-2.2,0.5
			c-0.1,0-0.2,0.1-0.3,0.2c-0.1,0.1-0.1,0.2-0.2,0.3c0,0.2,0.1,0.5,0.3,0.6c0.3,0.2,0.7,0.3,1,0.2c0.3,0,0.6-0.3,0.6-0.6
			C99.7,108.6,99.4,108.2,99.1,108.3L99.1,108.3z"/>
	</g>
</g>
<g>
	<g>
		<path class="st3" d="M104.6,106.6c0-0.1,0.1-0.1,0.1-0.2C104.7,106.5,104.7,106.5,104.6,106.6c0.2-0.3,0.4-0.5,0.7-0.7
			c0,0-0.1,0.1-0.1,0.1c0.2-0.1,0.4-0.3,0.6-0.4c0.1-0.1,0.2-0.2,0.3-0.4c0-0.1,0-0.3-0.1-0.5c-0.2-0.3-0.5-0.4-0.8-0.2
			c-0.6,0.3-1.2,0.8-1.6,1.4c-0.1,0.1-0.1,0.3-0.1,0.5c0,0.1,0.1,0.3,0.3,0.4c0.1,0.1,0.3,0.1,0.5,0.1
			C104.4,106.9,104.5,106.8,104.6,106.6L104.6,106.6z"/>
	</g>
</g>
<g>
	<g>
		<path class="st3" d="M108.7,91.6c-1.3,1.5-2.5,3.1-3.8,4.6c0.3,0.2,0.6,0.5,0.9,0.7c0.6-0.9,1.3-1.8,2-2.7c0.3-0.3,0.7-1,1.1-1
			c0.4,0,0.7,0.2,1.2,0.1c0.5-0.1,0.6-0.9,0.1-1.1c-0.2-0.1-0.4-0.2-0.6-0.3c-0.7-0.3-1.3,0.7-0.6,1c0.4,0.2,0.8,0.4,1.2,0.6
			c-0.1-0.3-0.1-0.6-0.2-0.8c-1.4,2.3-2.8,4.7-4,7.1c0.4,0.2,0.7,0.3,1.1,0.5c0.9-2.3,1.9-4.6,2.8-6.9c0.3-0.7-0.8-1-1.1-0.5
			c-1.1,1.7-2.1,3.4-3.2,5.1c0.3,0.2,0.7,0.4,1,0.6c0.8-1.4,1.3-2.9,1.7-4.5c0.2-0.7-0.7-1.1-1.1-0.5c-1.1,1.9-2,4-2.6,6.1
			c0.4,0.1,0.8,0.1,1.2,0.2c0.1-1.3,0.3-2.5,0.4-3.8c0.1-0.7-1.1-0.8-1.2-0.2c-0.3,1.3-0.5,2.7-0.8,4c0.4,0.1,0.8,0.1,1.2,0.2
			c0.1-1.1,0.1-2.2,0.2-3.3c-0.4,0-0.8,0-1.2,0c0,1.7-0.1,3.5-0.4,5.2c-0.2,1.2-0.5,2.6-1.7,3.2c0.2,0.3,0.5,0.6,0.7,0.9
			c1.9-2.1,3.5-4.3,4.8-6.7c0.4-0.7-0.6-1.2-1-0.6c-0.7,1-1.3,1.9-2,2.9c0.4,0.2,0.7,0.3,1.1,0.5c0.1-1,0.4-2,0.7-3
			c-0.4-0.1-0.8-0.2-1.2-0.3c-0.1,0.6-0.3,1.2-0.4,1.8c-0.2,0.7,0.7,1,1.1,0.5c1.3-1.8,2.4-3.6,3.4-5.6c-0.3-0.2-0.7-0.4-1-0.6
			c-0.7,1.6-1.5,3.1-2.3,4.6c-0.4,0.7,0.6,1.3,1,0.6c1-1.6,1.8-3.3,2.6-5c0.3-0.7-0.7-1.3-1-0.6c-0.7,1.5-1.4,2.9-2.1,4.4
			c-0.3,0.7,0.6,1.3,1,0.6c0.9-1.6,1.8-3.2,2.6-4.9c-0.4-0.2-0.7-0.3-1.1-0.5c-0.8,1.9-1.6,3.7-2.6,5.5c0.3,0.2,0.7,0.4,1,0.6
			c0.9-1.8,1.7-3.7,2.2-5.6c0.2-0.8-1-1.1-1.2-0.3c-0.5,1.9-1.2,3.6-2.1,5.4c-0.4,0.7,0.7,1.3,1,0.6c1-1.9,1.9-3.8,2.7-5.8
			c0.3-0.6-0.8-1.1-1.1-0.5c-0.8,1.7-1.6,3.3-2.6,4.9c0.3,0.2,0.7,0.4,1,0.6c0.7-1.5,1.4-2.9,2.1-4.4c-0.3-0.2-0.7-0.4-1-0.6
			c-0.7,1.7-1.6,3.4-2.6,5c0.3,0.2,0.7,0.4,1,0.6c0.9-1.5,1.6-3,2.3-4.6c0.3-0.7-0.7-1.3-1-0.6c-0.9,2-2.1,3.9-3.4,5.6
			c0.4,0.2,0.7,0.3,1.1,0.5c0.1-0.6,0.3-1.2,0.4-1.8c0.2-0.8-0.9-1.1-1.2-0.3c-0.3,1-0.5,1.9-0.7,3c-0.1,0.7,0.7,1.1,1.1,0.5
			c0.7-1,1.3-1.9,2-2.9c-0.3-0.2-0.7-0.4-1-0.6c-1.3,2.3-2.8,4.5-4.6,6.5c-0.5,0.5,0.1,1.3,0.7,0.9c1.4-0.7,1.9-2.1,2.2-3.6
			c0.4-1.9,0.5-3.9,0.5-5.9c0-0.8-1.2-0.8-1.2,0c-0.1,1.1-0.1,2.2-0.2,3.3c0,0.7,1.1,0.8,1.2,0.2c0.3-1.3,0.5-2.7,0.8-4
			c-0.4-0.1-0.8-0.1-1.2-0.2c-0.1,1.3-0.3,2.5-0.4,3.8c-0.1,0.7,1,0.8,1.2,0.2c0.6-2.1,1.4-4,2.5-5.8c-0.4-0.2-0.7-0.3-1.1-0.5
			c-0.3,1.5-0.9,2.8-1.6,4.2c-0.4,0.7,0.6,1.3,1,0.6c1.1-1.7,2.1-3.4,3.2-5.1c-0.4-0.2-0.7-0.3-1.1-0.5c-0.9,2.3-1.9,4.6-2.8,6.9
			c-0.3,0.6,0.8,1.1,1.1,0.5c1.2-2.4,2.6-4.8,4-7.1c0.2-0.3,0.1-0.7-0.2-0.8c-0.4-0.2-0.8-0.4-1.2-0.6c-0.2,0.3-0.4,0.7-0.6,1
			c0.2,0.1,0.4,0.2,0.6,0.3c0-0.4,0.1-0.7,0.1-1.1c-0.1,0-0.4-0.1-0.6-0.2c-0.2-0.1-0.5,0-0.7,0c-0.5,0.2-0.9,0.7-1.3,1.1
			c-0.9,1-1.7,2.1-2.4,3.2c-0.4,0.6,0.5,1.3,0.9,0.7c1.3-1.5,2.5-3.1,3.8-4.6C110.1,91.9,109.2,91,108.7,91.6L108.7,91.6z"/>
	</g>
</g>
<g>
	<g>
		<path class="st3" d="M112.5,78.6c-0.4,0.9-0.5,1.9-0.3,2.9c0.1,0.6,1,0.6,1.2,0c0.1-0.4,0.2-0.9,0.3-1.3c-0.4,0-0.7,0.1-1.1,0.1
			c0.4,0.7,0.9,1.3,1.6,1.7c0.5,0.3,1.2-0.3,0.8-0.8c-0.3-0.4-0.6-0.7-1.1-0.9c-0.5-0.2-1,0.5-0.7,0.9c0.1,0.2,0.2,0.3,0.3,0.5
			c0.2-0.3,0.3-0.6,0.5-0.9c-0.3,0-0.6-0.1-0.9-0.2c-0.5-0.2-0.9,0.5-0.7,0.9c0.2,0.4,0.3,0.7,0.5,1.1c0.3-0.2,0.7-0.4,1-0.6
			c-0.1-0.2-0.3-0.4-0.4-0.6c-0.4-0.6-1.3-0.2-1.1,0.5c0.4,1,0.5,2.1,0.5,3.1c0,0.8,1.2,0.8,1.2,0c0-0.2,0-0.4,0-0.7
			c0-0.5-0.7-0.8-1-0.4c-0.2,0.3-0.3,0.5-0.4,0.9c-0.1,0.7,1.1,0.8,1.2,0.2c0.1-0.6,0.3-1.2,0.7-1.7c0.2-0.3,0.3-0.5,0.5-0.8
			c0.1-0.1,0.4-0.6,0.5-0.6c-0.1,0-0.2,0-0.3,0c0,0,0.1,0,0.1,0c-0.1-0.1-0.2-0.1-0.3-0.2c0,0,0,0,0.1,0.1c-0.1-0.1-0.1-0.2-0.2-0.3
			c0-0.1,0-0.2,0-0.3c0.1-0.1,0.2-0.1,0.3-0.2c0,0-0.1,0.1-0.1,0c-0.2-0.2,0,0.6,0,0.2c0,0.1-0.1,0.2-0.1,0.3
			c0.1-0.2,0.4-0.2,0.5-0.1c0-0.4-0.1-0.7-0.1-1.1c-0.3,0.1-0.5,0.2-0.8,0.2c0.2,0.2,0.4,0.4,0.6,0.6c0,0,0,0,0,0
			c-0.1,0.1-0.1,0.2-0.2,0.3c-0.1,0-0.2,0-0.3,0c0-0.4,0-0.8,0-1.2c-0.1,0-0.3,0-0.4-0.1c-0.7-0.4-1.3,0.7-0.6,1
			c0.8,0.4,1.7,0.3,2.5-0.2c0.3-0.2,0.2-0.6,0-0.9c-0.3-0.3-0.6-0.2-0.9,0c-0.1,0.1-0.3,0.2-0.5,0.2c0.1,0.3,0.3,0.7,0.4,1
			c0.4-0.5,1.3-0.5,1.5,0.2c0.3,0.7,1.4,0.4,1.2-0.3c-0.1-0.4-0.2-0.7-0.3-1.1c-0.3,0.2-0.6,0.5-0.9,0.7c0.2,0.1,0.3,0.3,0.4,0.6
			c0.4,0,0.8,0,1.2,0c0-0.2,0-0.3,0-0.5c-0.4,0.1-0.8,0.1-1.2,0.2c0.2,1.2-0.1,2.3-0.7,3.3c0.3,0.2,0.7,0.4,1,0.6
			c0.2-0.5,0.5-1,0.7-1.6c0.1-0.3,0.1-0.6-0.2-0.8c-0.3-0.2-0.7-0.1-0.8,0.2c-0.5,1-1.6,2.8-3,2c-0.1,0-0.3-0.2-0.1,0
			c0.1,0.1,0.1,0.2,0.1,0c0,0,0-0.1,0-0.1c0.1-0.2,0.1-0.3,0.2-0.5c0.1-0.3,0.3-0.6,0.5-1c0.4-0.6,0.8-1.2,1.3-1.7
			c-0.3,0-0.6-0.1-0.9-0.1c0-0.1-0.1,0.1-0.1,0.1c0,0.1-0.1,0.2-0.2,0.4c-0.1,0.3-0.2,0.5-0.4,0.8c-0.3,0.5-0.5,1.1-0.8,1.6
			c-0.1,0.3-0.1,0.6,0.2,0.8c0.2,0.2,0.6,0.2,0.8,0c0.8-1,1.5-2.2,2.1-3.4c0.1-0.3,0.1-0.6-0.2-0.8c-0.2-0.2-0.6-0.2-0.8,0
			c-0.7,0.8-1.2,1.7-1.5,2.7c-0.2,0.6,0.6,1,1,0.6c0.7-0.6,1.2-1.4,1.5-2.2c0.2-0.6-0.6-1-1-0.6c-0.7,0.7-1.1,1.7-1.3,2.7
			c-0.1,0.5,0.6,0.8,0.9,0.5c0.8-0.5,1.4-1.3,1.7-2.3c0.2-0.6-0.6-1-1-0.6c-0.6,0.6-1,1.3-1.2,2.1c-0.1,0.5,0.4,0.9,0.9,0.7
			c0.8-0.3,1.2-1.1,1.3-1.9c0.1-0.5-0.7-0.8-1-0.4c-0.5,0.6-0.8,1.2-0.9,2c0,0.3,0.3,0.6,0.6,0.6c0.2,0,0.4-0.1,0.6-0.2
			c0.6-0.4,0-1.5-0.6-1c-0.1,0.1-0.1,0.1,0,0c0.2,0.2,0.4,0.4,0.6,0.6c0-0.4,0.2-0.8,0.5-1.1c-0.3-0.1-0.7-0.3-1-0.4
			c0,0.4-0.3,0.7-0.7,0.8c0.3,0.2,0.6,0.5,0.9,0.7c0.1-0.6,0.4-1.2,0.9-1.6c-0.3-0.2-0.7-0.4-1-0.6c-0.2,0.7-0.6,1.2-1.1,1.6
			c0.3,0.2,0.6,0.3,0.9,0.5c0.1-0.7,0.4-1.3,0.9-1.8c-0.3-0.2-0.7-0.4-1-0.6c-0.2,0.7-0.6,1.2-1.2,1.7c0.3,0.2,0.7,0.4,1,0.6
			c0.2-0.8,0.6-1.5,1.1-2.2c-0.3-0.2-0.6-0.5-0.9-0.7c-0.5,1.1-1.2,2.2-1.9,3.1c0.3,0.2,0.6,0.5,0.9,0.7c0.3-0.7,0.7-1.4,1-2.1
			c0.3-0.6,0.7-1.3,0.4-2c-0.2-0.4-0.7-0.4-0.9-0.1c-0.7,0.7-1.3,1.5-1.7,2.4c-0.2,0.4-0.4,0.9-0.6,1.4c-0.2,0.5,0,1,0.4,1.3
			c0.9,0.6,2,0.5,2.8,0c0.9-0.5,1.4-1.4,1.9-2.3c-0.3-0.2-0.7-0.4-1-0.6c-0.2,0.5-0.5,1-0.7,1.6c-0.3,0.7,0.6,1.3,1,0.6
			c0.8-1.3,1-2.8,0.8-4.3c-0.1-0.7-1.2-0.5-1.2,0.2c0,0.2,0,0.3,0,0.5c0,0.8,1.2,0.8,1.2,0c0-0.7-0.4-1.3-0.9-1.6
			c-0.4-0.3-1,0.2-0.9,0.7c0.1,0.4,0.2,0.7,0.3,1.1c0.4-0.1,0.8-0.2,1.2-0.3c-0.2-0.7-0.8-1.3-1.5-1.4c-0.7-0.1-1.5,0.1-2,0.7
			c-0.3,0.4-0.1,1.1,0.4,1c0.5,0,1-0.2,1.4-0.5c-0.3-0.3-0.6-0.6-0.9-0.9c-0.3,0.2-0.7,0.2-1,0.1c-0.2,0.3-0.4,0.7-0.6,1
			c0.4,0.2,0.8,0.3,1.3,0.2c0.6-0.1,0.5-1,0-1.2c-0.6-0.2-1.1,0.3-1.1,0.8c0,0.3,0.3,0.6,0.6,0.6c0.5,0,1-0.1,1.4-0.3
			c0.5-0.2,0.3-1-0.1-1.1c-0.5-0.1-1-0.1-1.4,0.2c-0.5,0.3-0.7,0.8-0.4,1.3c0.2,0.4,0.8,0.5,1.2,0.5c0.5,0,1-0.6,0.8-1.1
			c-0.2-0.6-0.9-0.7-1.3-0.3c-0.3,0.3-0.6,0.7-0.9,1.1c-0.6,0.8-1.1,1.7-1.2,2.6c0.4,0.1,0.8,0.1,1.2,0.2c0,0,0,0,0-0.1
			c-0.3-0.1-0.7-0.3-1-0.4c0,0.2,0,0.4,0,0.7c0.4,0,0.8,0,1.2,0c0-1.2-0.2-2.4-0.5-3.5c-0.4,0.2-0.7,0.3-1.1,0.5
			c0.1,0.2,0.3,0.4,0.4,0.6c0.4,0.7,1.4,0.1,1-0.6c-0.2-0.4-0.3-0.7-0.5-1.1c-0.2,0.3-0.5,0.6-0.7,0.9c0.4,0.2,0.8,0.2,1.3,0.3
			c0.5,0,0.8-0.5,0.5-0.9c-0.1-0.2-0.2-0.3-0.3-0.5c-0.2,0.3-0.5,0.6-0.7,0.9c0.2,0.1,0.3,0.2,0.4,0.3c0.3-0.3,0.6-0.6,0.8-0.8
			c-0.5-0.3-0.9-0.7-1.2-1.2c-0.2-0.5-1-0.3-1.1,0.1c-0.1,0.4-0.2,0.8-0.3,1.3c0.4,0,0.8,0,1.2,0c-0.1-0.8,0-1.5,0.3-2.3
			c0.1-0.3-0.1-0.7-0.4-0.7C112.9,78,112.7,78.3,112.5,78.6L112.5,78.6z"/>
	</g>
</g>
<g>
	<g>
		<path class="st3" d="M115.7,85.6c0.1-0.1,0.2-0.1,0.2-0.2c-0.3-0.2-0.7-0.4-1-0.6c0,0,0,0.1,0,0.1c0,0,0-0.1,0.1-0.1
			c0,0,0,0.1-0.1,0.1c0,0,0.1-0.1,0.1-0.1c0,0,0,0-0.1,0.1c0,0-0.1,0.1-0.1,0.1c0,0.1-0.1,0.1-0.1,0.2c0,0.1,0,0.1,0,0.2
			c0,0.1,0,0.2,0.1,0.2c0,0,0.1,0.1,0.1,0.1c0,0,0.1,0.1,0.1,0.1c0.1,0,0.1,0.1,0.2,0.1c0.1,0,0.2,0,0.2,0c0.1,0,0.2-0.1,0.3-0.1
			c0,0,0,0,0.1,0c0.1,0,0.1-0.1,0.2-0.1c0,0,0,0,0.1-0.1c0-0.1,0.1-0.1,0.1-0.2c0,0,0,0,0-0.1c0-0.1,0.1-0.1,0.1-0.2
			c0-0.1,0-0.2,0-0.2c0-0.1,0-0.2-0.1-0.2c0-0.1-0.1-0.1-0.2-0.2c-0.1-0.1-0.1-0.1-0.2-0.1c-0.1,0-0.1,0-0.2,0c-0.1,0-0.2,0-0.3,0.1
			c0,0-0.1,0.1-0.1,0.1c-0.1,0.1-0.1,0.2-0.2,0.3c0,0,0,0,0,0.1c0,0,0-0.1,0.1-0.1c0,0,0,0.1-0.1,0.1c0,0,0.1-0.1,0.1-0.1
			c0,0-0.1,0.1-0.1,0.1c0,0,0.1-0.1,0.1-0.1c0,0-0.1,0.1-0.1,0.1c0,0,0.1,0,0.1-0.1c0,0-0.1,0-0.1,0C115.3,85,115.5,85.4,115.7,85.6
			c0.1,0,0.2,0,0.2-0.1c0,0,0,0,0-0.1c0,0,0,0,0,0c0-0.1,0.1-0.1,0.1-0.2c0,0,0-0.1,0-0.1c0-0.1,0-0.1,0-0.2c0-0.1,0-0.2-0.1-0.2
			c0-0.1,0-0.1-0.1-0.1c0-0.1-0.1-0.1-0.2-0.2c0,0-0.1,0-0.1-0.1c-0.1,0-0.1,0-0.2,0c-0.1,0-0.2,0-0.2,0.1c-0.1,0-0.1,0.1-0.2,0.1
			c-0.1,0.1-0.2,0.1-0.2,0.2c-0.1,0.1-0.1,0.1-0.1,0.2c0,0.1-0.1,0.1-0.1,0.2c0,0.1,0,0.2,0.1,0.2c0,0.1,0.1,0.1,0.1,0.2
			c0,0,0.1,0.1,0.1,0.1c0.1,0.1,0.2,0.1,0.3,0.1c0.1,0,0.1,0,0.2,0C115.5,85.7,115.6,85.7,115.7,85.6L115.7,85.6z"/>
	</g>
</g>
<g>
	<g>
		<path class="st3" d="M113.7,85.2c0,0,0.1-0.1,0.1-0.1c0.1-0.1,0.1-0.1,0.1-0.2c0-0.1,0.1-0.1,0.1-0.2c0-0.1,0-0.2-0.1-0.2
			c0-0.1-0.1-0.1-0.1-0.2c0,0-0.1-0.1-0.1-0.1c-0.1-0.1-0.2-0.1-0.3-0.1c-0.1,0-0.1,0-0.2,0c-0.1,0-0.2,0.1-0.3,0.2
			c0,0-0.1,0.1-0.1,0.1c-0.1,0.1-0.1,0.1-0.1,0.2c0,0.1-0.1,0.1-0.1,0.2c0,0.1,0,0.2,0.1,0.2c0,0.1,0.1,0.1,0.1,0.2
			c0,0,0.1,0.1,0.1,0.1c0.1,0.1,0.2,0.1,0.3,0.1c0.1,0,0.1,0,0.2,0C113.5,85.3,113.6,85.2,113.7,85.2L113.7,85.2z"/>
	</g>
</g>
<polygon class="st4" points="108.5,80.3 109,77.8 110,75.8 110.7,73.4 112.2,71.7 113.4,70.3 115.4,68.7 116.7,69.9 119,72.2 
	121.5,75.3 124,78.1 126.2,80.7 128.7,84.2 130.4,87 129.5,88.9 127.4,90.9 124.9,92.4 122.5,93.4 119.8,94 116,94 113.3,93.4 
	110.6,92.2 108.8,91 107.7,88.1 109.7,87 111.8,85.4 112.6,84.8 113.2,85.8 115.2,86.2 116.9,85.6 117.9,84.7 118.6,83.3 119.1,82 
	118.8,80.8 117.6,79.7 115.8,79.6 114.6,80.1 113.3,79.6 113.2,78.1 112.7,77.8 111.8,81 110.9,80.6 "/>
<polygon class="st5" points="112.8,68.4 114,68.2 115.4,68.7 117.3,70.9 120.4,73.9 122.9,76.6 125.2,79.6 127.6,82.7 129.8,85.9 
	130.4,87.8 131,89.1 132,88.1 133.3,86.6 133.9,84.6 134.1,81.5 133,77 130.6,72.6 127.2,68.5 124.3,65.9 121.8,64.7 119.7,64.2 
	117.3,64.6 115.6,65.4 113.9,66.6 "/>
<polygon class="st5" points="130.1,64.1 128,69 129,70.6 130.2,69 132,67.7 133.3,67.5 131.7,65.6 "/>
<polygon class="st6" points="112.4,70.8 112.1,70 112.4,68.8 113.8,68.2 115.2,68.7 "/>
<polygon class="st6" points="128.9,89.6 130.4,87.8 131,89.1 130.3,90 129.5,90.3 "/>
<g>
	<g>
		<path class="st5" d="M131.1,86.3c0,0.4,0,0.7,0,1.1c0,0.2,0,0.4,0,0.5c0,0.1,0,0.2,0,0.3c0-0.1,0-0.1,0,0c0,0,0,0,0,0
			c0,0.1,0,0.1,0,0.2c0,0.3,0.1,0.6,0.3,0.7c0.3,0.1,0.6,0,0.8-0.2c0.3-0.7,0.6-1.3,0.8-2c0.1-0.3-0.1-0.7-0.4-0.7
			c-0.3-0.1-0.6,0.1-0.7,0.4c-0.1,0.3-0.2,0.6-0.4,0.9c0,0.1-0.1,0.1-0.1,0.2c0.1-0.2,0,0,0,0c0,0,0,0.1-0.1,0.1
			c-0.1,0.2-0.1,0.3-0.2,0.5c0.4,0.2,0.7,0.3,1.1,0.5c0.1-0.8,0.2-1.6,0.1-2.4c0-0.3-0.3-0.6-0.6-0.6
			C131.4,85.7,131.1,86,131.1,86.3L131.1,86.3z"/>
	</g>
</g>
<path class="st1" d="M31.2,51.8l2.2,1.2l2.8-0.3l1.6-1.3l1.4-2.3l1.2-3.1l1.1-3.5l1.1-4.6l1.5-2.9l1.6-3.1l1.9-2.2l4-3l3.1-1.6
	l4.3-1.3l3.3-0.2l1.5-1.9l2.5-1.9l2.9-1.1l2.8-0.4h2.5l3.8,0.9l3.7,1.4l2.9,2l2.9,2.5l2.3,2.6l2.3,3.4l1.8,3.3l1.7,4.3l1.3,3.1
	l1,3.4l0.9,3.3l0.3,0.4l-2.8,0.5l-3.1,1.3l-2,1.4l-2.1,2.1l-8.5,3.6l-2.3,0L76,58.6l-1.5,0.7l-2.3-2l-1.9-1.3l-2.3-0.8l-3.5,0
	l-3,0.6L59.3,57l-1.2,1.5l0-2.2l0.6-1.8l0.7-1.4l-2.2-0.1l-2,0.7l-3,1.6l-4.4,3.1c0,0,0.3-2.3-1-4l-2.8,0.4L40,55.8l-3.3,0.3
	C36.7,56.1,33.2,57.2,31.2,51.8z"/>
<path class="st1" d="M82.1,70.9l2.3-1.4l0.5-0.3l-0.6,2.1l-0.1,2.6l1.3,2.6l2.6,1.3l3,0.8l4.4-0.5l-1.4,1.7l-3.2,1.8l-4.5,1.6
	l-2.6,2.1l-2.4,2.7c0,0-0.7,3.6-0.8,3.9s0,4.8,0,4.8l1.2,4.4l1.7,3.5l-3.4-2.3l-1.7-2.7L77,96.7l-0.9-3.5l0.4-3.5l0.7-3.1l1.5-3.9
	l2.6-6.6l0.7-3.5L82.1,70.9z"/>
<path class="st7" d="M24.5,105.7l-0.2-7.9l-0.4-3.5l-0.6-6.6v-3.4l0.2-3.8l0.4-4.2l0.6-4.1l-2-0.4l-2.2-1.3l-1.6-2.4l-0.3-2.4l1-2.8
	l1.9-2.1l2.5-1.2l3.4-0.3l2.6,0.7l0.9,0.8l2.1-1.3l2.8-2l3.3-1.4l7.9-1.6l0.7,1.3l0.2,2.3l2.3-1.3l3.1-1.9l3.9-1.9l2.2,0.1
	c0,0-2.3,3.8-1.4,5.3l1.2-1.5l2.1-1.4l3-0.6l3.9,0.2l3.8,2l2.3,2l2.6-1.1l3.7-0.3l0.7,1.5l1,2.2l1.8,1.7c0,0,2.5,1.2,3.1,0.6
	l-0.7,2.4l-1.6,2.4l-3.2,2.3l-0.4,2.8l-0.9,3.4l-1.5,4l-1.7,3.9l-1.1,3.1l-0.4,4.1l0.6,3.9l1.5,3.6l2.9,3.5l2.3,1.5l0.4,0.9
	c0,0-13.8,3.1-28.5,2.8c0,0,1.4-2.1-0.6-8.3l1.4-0.5l2.1-0.2L57,96.6l-2.9,2.5l-1.3-1.9L51,94.9l-2.3-0.7l-1.9,0l-2.6,0.9l-1.3,0.9
	l0.2,1l-2.5,1.7l-2.6,3l-2.2,2.9l-0.6,2.9L24.5,105.7z"/>
<path class="st8" d="M60.8,80.9c0-0.5-0.2-1-0.5-1.5c-0.1-0.1-0.1-0.2-0.1-0.3l-0.4-0.5L57,76.9l-0.8,0c-1.7,1.2-4.2,1.5-5.8,0l-1,0
	l-1.6,0.8l-1.4,0.8l-0.8,1.3l-0.3,1.7l0.6,0.9l1.3,0.8l1.6,0l1.5,0l2.9-0.7l1.4-0.1l1.5,0.3l1.6,0.5l1.1,0c0,0,0,0,0,0
	c0.7-0.2,1.5-0.9,1.9-1.6c0.1-0.2,0.1-0.5,0.2-0.7C60.8,81,60.8,81,60.8,80.9z"/>
<circle class="st2" cx="41.2" cy="68.6" r="9.3"/>
<circle class="st2" cx="64.5" cy="67.7" r="9.1"/>
<path class="st2" d="M57.1,83.5l-0.1-0.2l-1.6-0.7l-2.3-0.1l-1,0.2l-2.5,0.6l-0.4,1.4l0,1.8l0.1,0.7c0,0,0,0,0,0.1
	c1,1.3,1.9,1.8,3.4,1.2l0.2-0.2l0.4-0.8l0.4,0.8c0.1,0,0.2,0.1,0.3,0.1c0.1,0,0.1,0.1,0.2,0.1c-0.2-0.2,0.1,0,0.4,0
	c0.2,0,0.5,0,0.7,0.1c0.4,0,0.7-0.1,1-0.1C56.9,86.9,56.7,85.2,57.1,83.5z"/>
<g>
	<g>
		<path class="st2" d="M56.9,87.8c0.1-0.5,0.2-0.9,0.4-1.3c0-0.1,0-0.1,0-0.2c0-0.1,0-0.1,0-0.2c0-0.1-0.1-0.2-0.2-0.3
			c-0.1-0.1-0.2-0.1-0.3-0.1c-0.1,0-0.3,0-0.4,0.1c-0.2,0.1-0.4,0.4-0.4,0.7c0,0.1,0,0.2,0,0.3c0,0,0,0.1,0,0.1c0-0.1,0-0.1,0-0.2
			c0,0,0,0,0,0.1c0-0.1,0-0.1,0-0.2c0,0,0,0,0,0c0,0,0-0.1,0.1-0.1c0,0,0,0,0,0c0,0,0.1-0.1,0.1-0.1c0,0,0,0,0,0
			c0,0,0.1-0.1,0.1-0.1c0,0,0,0,0,0c0,0,0.1,0,0.1-0.1c0,0,0,0,0,0c0.1,0,0.1,0,0.2,0c0,0,0,0,0,0c0.1,0,0.1,0,0.2,0c0,0,0,0,0,0
			c0,0,0.1,0,0.1,0.1c0,0,0,0,0,0c0,0,0.1,0.1,0.1,0.1c0,0,0,0,0,0c0,0,0.1,0.1,0.1,0.1c0,0,0,0,0,0c0,0,0,0.1,0.1,0.1c0,0,0,0,0,0
			c0,0.1,0,0.1,0,0.2c0,0,0,0,0,0c0,0.1,0,0.1,0,0.2c0,0,0,0,0,0c0,0,0,0.1-0.1,0.1c0,0,0,0,0,0c0,0-0.1,0.1-0.1,0.1c0,0,0,0,0,0
			c0,0-0.1,0.1-0.1,0.1c0,0,0,0,0,0c0.1-0.1,0.2-0.2,0.3-0.4c0-0.1,0-0.3-0.1-0.5c-0.1-0.1-0.2-0.2-0.4-0.3c-0.2,0-0.3,0-0.5,0.1
			c-0.1,0.1-0.3,0.2-0.3,0.4c0,0.2,0,0.4,0.1,0.5c0.1,0.2,0.4,0.4,0.7,0.3c0.3,0,0.6-0.3,0.6-0.7c0-0.1,0-0.2,0-0.3c0,0,0-0.1,0-0.1
			c0,0.1,0,0.1,0,0.2c0,0,0-0.1,0-0.1c0,0.1,0,0.1,0,0.2c0,0,0,0,0,0c0,0,0,0.1-0.1,0.1c0,0,0,0,0,0c0,0-0.1,0.1-0.1,0.1
			c0,0,0,0,0,0c0,0-0.1,0.1-0.1,0.1c0,0,0,0,0,0c-0.3-0.2-0.6-0.5-0.9-0.7c-0.2,0.4-0.3,0.9-0.4,1.3c0,0.2,0,0.3,0.1,0.5
			c0.1,0.1,0.2,0.2,0.4,0.3c0.2,0,0.3,0,0.5-0.1C56.8,88.1,56.9,88,56.9,87.8L56.9,87.8z"/>
	</g>
</g>
<g>
	<g>
		<path class="st2" d="M50.1,86c0,0.3,0,0.6,0,0.9c0.4-0.1,0.8-0.2,1.1-0.3c-0.1-0.2-0.2-0.3-0.3-0.5c-0.1-0.2-0.4-0.3-0.6-0.3
			c-0.2,0-0.4,0.2-0.5,0.4c-0.2,0.7-0.1,1.5,0.3,2c0.1,0.1,0.2,0.2,0.4,0.3c0.1,0,0.3,0,0.4,0c0.3-0.1,0.4-0.4,0.3-0.7
			c-0.1-0.4-0.2-0.8-0.5-1.1c-0.1-0.2-0.4-0.3-0.6-0.3c-0.2,0-0.5,0.2-0.5,0.4c0,0.3-0.1,0.5,0,0.8c0.1,0.2,0.2,0.5,0.4,0.6
			c0.4,0.4,0.9,0.5,1.4,0.4c-0.2-0.1-0.4-0.1-0.6-0.2c0-0.1-0.1-0.2-0.1-0.2c0-0.1,0-0.2,0-0.3c0.3-0.3,0.4-0.4,0.2-0.3
			c0.1,0,0.2-0.1,0.1,0c0.1,0,0.1,0,0.2,0c0,0,0,0,0,0c0.1,0,0.1,0,0.2,0c0,0,0.1,0,0.1,0.1c0.1,0.1,0.1,0.1,0.2,0.2
			c0,0,0,0.1,0.1,0.1c0,0.1,0,0.1,0,0.2c0,0,0,0,0,0c0-0.1-0.1-0.3-0.2-0.4c-0.1-0.1-0.3-0.2-0.4-0.2c-0.2,0-0.3,0.1-0.4,0.2
			c-0.1,0.1-0.2,0.3-0.2,0.4c0,0.3,0.2,0.6,0.5,0.6c0.2,0,0.4,0,0.6-0.1c0.2-0.1,0.4-0.4,0.3-0.7c0-0.2-0.2-0.3-0.3-0.4
			c-0.1-0.1-0.2-0.1-0.3-0.1c-0.1,0-0.1,0-0.2,0c0.1,0,0.1,0,0.2,0c-0.1,0-0.1,0-0.2,0c0.1,0,0.1,0,0.2,0c0,0-0.1,0-0.1,0
			c0,0-0.1,0,0,0c0.1,0,0,0,0,0c0,0-0.1,0-0.1-0.1c-0.1,0,0.1,0.1,0,0c0,0,0,0-0.1-0.1c0,0-0.1-0.1-0.1-0.1c0.1,0.1,0,0,0,0
			c0,0,0-0.1,0,0c0,0.1,0,0,0,0c0,0,0-0.1,0-0.1c0,0.1,0,0.1,0,0.2c0-0.1,0-0.2,0-0.2c0,0.1,0,0.1,0,0.2c0,0,0,0,0,0
			c-0.4,0-0.7,0.1-1.1,0.1c0,0.1,0.1,0.1,0.1,0.2c0,0,0,0.1,0.1,0.1c0,0,0,0.2,0,0c0,0.2,0.1,0.3,0.1,0.5c0.4-0.2,0.7-0.3,1.1-0.5
			c0-0.1-0.1-0.1-0.1-0.2c0,0,0-0.1,0-0.1c0,0-0.1-0.2,0-0.1c0,0.1,0,0,0,0c0,0,0-0.1,0-0.1c0-0.1,0-0.1,0-0.2c0,0.1,0,0.1,0,0.2
			c0-0.1,0-0.3,0-0.4c0,0.1,0,0.1,0,0.2c0-0.1,0-0.2,0.1-0.3c-0.4,0-0.7,0.1-1.1,0.1c0.1,0.2,0.2,0.3,0.3,0.5
			c0.1,0.2,0.4,0.4,0.7,0.3c0.3-0.1,0.4-0.3,0.4-0.6c0-0.3,0-0.6,0-0.9c0-0.3-0.3-0.6-0.6-0.6C50.4,85.4,50.1,85.7,50.1,86L50.1,86z
			"/>
	</g>
</g>
<g>
	<g>
		<path class="st2" d="M55.4,83.5c0.1,0.2,0.1,0.4,0.1,0.6c0,0.1,0,0.2,0.1,0.3c0,0.1,0,0.1,0,0.2c0,0,0,0.2,0,0.1
			c0.1,0.4,0.1,0.9,0.1,1.3c0,0.3,0.2,0.5,0.4,0.6c0.3,0.1,0.6,0,0.7-0.3c0.4-0.7,0.4-1.6,0-2.2c-0.2-0.3-0.6-0.4-0.8-0.2
			c-0.3,0.2-0.4,0.5-0.2,0.8c0,0.1,0.1,0.2,0.1,0.2c0-0.1,0,0,0,0c0,0,0,0.1,0,0.1c0,0.1,0,0.2,0.1,0.3c0,0,0,0.2,0,0.1
			c0-0.1,0,0.1,0,0.1c0,0.1,0,0.2,0,0.3c0,0,0,0.1,0,0.1c0,0,0,0.2,0,0.1c0-0.1,0,0.1,0,0.1c0,0,0,0.1,0,0.1c0,0.1-0.1,0.2-0.1,0.3
			c-0.1,0.3,0.1,0.7,0.4,0.7c0.3,0.1,0.6-0.1,0.7-0.4c0.3-0.9,0.2-1.9-0.2-2.7c-0.3,0.2-0.7,0.4-1,0.6c0,0,0.1,0.2,0.1,0.1
			c0,0.1,0,0.1,0.1,0.2c0,0,0,0.1,0,0.1c0-0.1,0,0.1,0,0.1c0,0.1,0,0.1,0,0.2c0-0.1,0,0,0,0c0,0.1,0,0.1-0.1,0.2c0,0.1,0,0.1,0,0
			c0,0,0,0.1,0,0.1c0.4,0.1,0.8,0.2,1.1,0.3c0-0.9-0.1-1.9-0.4-2.8c-0.1-0.3-0.4-0.5-0.7-0.4C55.5,82.9,55.3,83.2,55.4,83.5
			L55.4,83.5z"/>
	</g>
</g>
<g>
	<g>
		<path class="st1" d="M82,85.3c-0.6,1.6-1.1,3.2-1.5,4.9c-0.1,0.3,0.1,0.7,0.4,0.7c0.3,0.1,0.7-0.1,0.7-0.4
			c0.3-1.7,0.8-3.3,1.5-4.9c0.1-0.3-0.1-0.7-0.4-0.7C82.4,84.8,82.1,85,82,85.3L82,85.3z"/>
	</g>
</g>
<polygon class="st8" points="24,101.9 21.3,102 19.3,103.6 18.4,104.3 17.6,105.9 18,107 18.9,107.6 19.7,108.6 21.3,108.4 
	23,107.3 24.7,105.7 "/>
<path class="st4" d="M45.5,96.3l-1.9,0.6l-2.1,1.3l-2,1.8l-1.6,1.9l-2.2,2.9v2l-0.1,1.6l1.9,2l3.1,1.6l4.7,0.8l3.9-0.8l2.4-1.1
	C51.6,111,49.4,102,45.5,96.3z"/>
<path class="st4" d="M56.3,123.2c0,0,3.3-9,4.2-9.3l2.4,1l2.4,2l0.8,2l0.4,2.4v1.2l-1.2,1l-1.6,0.6l-2.2,0.2l-2.3-0.1L56.3,123.2z"
	/>
<path class="st5" d="M51.6,112l0.2-2.3l-3.5-9.3l-2.2-3.2l-2-2.1l2.6-0.9l2.6,0.1l3.1,2l1.7,2.8l2.9-2.5l0.9,1.5l0.4,1.2l-2.1,0.2
	l-1.4,0.5l0.6,2.3l0.5,2.9l-0.6,3.2l-0.7,1.4C54.7,109.8,52.9,111.8,51.6,112z"/>
<polyline class="st5" points="60.5,113.9 59,115.3 57.9,118.6 56.4,121.9 56.5,124.1 55.2,123.8 54,122.6 53.3,120.3 53.9,117.9 
	51.4,117.8 52.1,115.9 53.2,116.9 54.1,117.2 55.2,115.2 56.5,113.8 59,112.8 61.4,113.6 "/>
<g>
	<g>
		<path class="st5" d="M58.6,116c0.2-0.2,0.3-0.4,0.5-0.6c0,0,0.1-0.1,0.1-0.1c0,0,0.1-0.1,0.1-0.1c0.1-0.1,0.2-0.2,0.3-0.3
			c0.1-0.1,0.2-0.3,0.2-0.4c0-0.1-0.1-0.3-0.2-0.4c-0.1-0.1-0.3-0.2-0.4-0.2c-0.1,0-0.1,0-0.2,0c-0.1,0-0.2,0.1-0.3,0.2
			c-0.1,0.1-0.2,0.2-0.3,0.2c0,0-0.1,0.1-0.1,0.1c0,0-0.1,0.1-0.1,0.1c-0.2,0.2-0.3,0.4-0.5,0.6c-0.1,0.1-0.1,0.1-0.1,0.2
			c0,0.1-0.1,0.1-0.1,0.2c0,0.1,0.1,0.3,0.2,0.4c0.1,0.1,0.3,0.2,0.4,0.2C58.3,116.1,58.5,116.1,58.6,116L58.6,116z"/>
	</g>
</g>
<g>
	<g>
		<path class="st5" d="M58.4,115.8c0.1-0.1,0.2-0.2,0.3-0.3c0,0-0.1,0.1-0.1,0.1c0.1-0.1,0.2-0.2,0.3-0.2c-0.3-0.3-0.6-0.6-0.8-0.8
			c-0.1,0.2-0.2,0.4-0.3,0.6c-0.1,0.1-0.1,0.2-0.1,0.3c0,0.1,0,0.2,0.1,0.3c0.1,0.2,0.3,0.3,0.5,0.3c0,0,0,0,0,0c0.1,0,0.1,0,0.2,0
			c0.1,0,0.1,0,0.2-0.1c0.1-0.1,0.2-0.2,0.3-0.3c0.1-0.1,0.1-0.2,0.2-0.3c0,0-0.1,0.1-0.1,0.1c0,0,0-0.1,0.1-0.1
			c0,0-0.1,0.1-0.1,0.1c0,0,0,0,0.1,0c0,0-0.1,0-0.1,0.1c0,0,0,0,0.1,0c-0.1,0-0.1,0-0.2,0c0,0,0,0,0,0c-0.1,0-0.1,0-0.2,0
			c0,0,0,0,0,0c0,0-0.1,0-0.1-0.1c0,0,0,0,0,0c0,0-0.1-0.1-0.1-0.1c0,0,0,0,0,0c0,0-0.1-0.1-0.1-0.1c0,0,0,0,0,0c0,0,0-0.1-0.1-0.1
			c0,0,0,0,0,0.1c0-0.1,0-0.1,0-0.2c0,0,0,0,0,0.1c0-0.1,0-0.1,0-0.2c0,0,0,0,0,0.1c0,0,0-0.1,0.1-0.1c0,0,0,0,0,0
			c0,0,0.1-0.1,0.1-0.1c0,0,0,0,0,0c0,0,0.1-0.1,0.1-0.1c0,0,0,0,0,0c0,0,0.1,0,0.1-0.1c0,0,0,0,0,0c0.1,0,0.1,0,0.2,0c0,0,0,0,0,0
			c0.1,0,0.1,0,0.2,0c0,0,0,0,0,0c0,0,0.1,0,0.1,0.1c0,0,0,0,0,0c0,0,0.1,0.1,0.1,0.1c0,0,0,0,0,0c0,0,0.1,0.1,0.1,0.1
			c0,0,0,0,0-0.1c0,0,0,0.1,0.1,0.1c0,0,0,0,0-0.1c0,0.1,0,0.1,0,0.2c0,0,0,0,0,0c0,0.1,0,0.1,0,0.2c0,0,0,0,0,0c0,0,0,0.1-0.1,0.1
			c0,0,0,0,0,0c0,0-0.1,0.1-0.1,0.1c0,0,0,0,0,0c0,0-0.1,0.1-0.1,0.1c0,0,0,0,0,0c0.1,0,0.1-0.1,0.2-0.2c0.1-0.1,0.1-0.1,0.1-0.2
			c0-0.1,0-0.3-0.1-0.5c-0.1-0.1-0.2-0.2-0.4-0.3c-0.1,0-0.3,0-0.5,0.1c-0.1,0.1-0.2,0.1-0.3,0.3c-0.1,0.1-0.1,0.3-0.1,0.4
			C58.2,115.4,58.3,115.6,58.4,115.8C58.4,115.8,58.4,115.8,58.4,115.8c0.1,0,0.1,0,0.2,0.1c0.1,0,0.1,0.1,0.2,0.1
			c0.1,0,0.1,0,0.2,0c0.3,0,0.5-0.1,0.7-0.4c0.1-0.1,0.1-0.3,0.1-0.5c0-0.2,0-0.2-0.1-0.4c0,0,0,0,0,0c0-0.1-0.1-0.1-0.1-0.2
			c-0.1-0.1-0.2-0.2-0.3-0.2c-0.1,0-0.3,0-0.4,0c-0.1,0-0.1,0-0.2,0.1c-0.1,0-0.1,0.1-0.2,0.1c-0.1,0.1-0.1,0.1-0.2,0.2
			c0,0,0,0.1-0.1,0.1c0,0.1-0.1,0.1-0.1,0.2c0,0,0.1-0.1,0.1-0.1c0,0,0,0.1-0.1,0.1c0,0,0.1-0.1,0.1-0.1c0,0,0,0-0.1,0
			c0,0,0.1,0,0.1-0.1c0,0,0,0,0,0c0.1,0,0.1,0,0.2,0c0,0,0,0,0,0c0.2,0.3,0.3,0.6,0.5,0.9c0.1-0.2,0.2-0.4,0.3-0.6
			c0,0,0-0.1,0.1-0.1c0-0.1,0-0.2,0-0.2c0-0.1-0.1-0.3-0.2-0.3c-0.1-0.1-0.2-0.1-0.3-0.2c-0.1,0-0.2,0-0.2,0c-0.1,0-0.2,0-0.2,0.1
			c-0.2,0.1-0.3,0.2-0.5,0.3c-0.1,0.1-0.2,0.2-0.3,0.3c-0.1,0.1-0.1,0.1-0.1,0.2c0,0.1-0.1,0.1-0.1,0.2c0,0.1,0.1,0.3,0.2,0.4
			c0.1,0.1,0.3,0.2,0.4,0.2C58.2,116,58.3,116,58.4,115.8L58.4,115.8z"/>
	</g>
</g>
<g>
	<g>
		<path class="st5" d="M48.5,100.7C48.5,100.7,48.5,100.8,48.5,100.7C48.5,100.7,48.4,100.7,48.5,100.7
			C48.4,100.7,48.5,100.8,48.5,100.7C48.5,100.8,48.5,100.7,48.5,100.7C48.5,100.7,48.5,100.8,48.5,100.7
			C48.5,100.8,48.5,100.7,48.5,100.7C48.5,100.7,48.5,100.8,48.5,100.7c0.4-0.1,0.8-0.2,1.1-0.4c-0.1-0.2-0.2-0.4-0.4-0.6
			c-0.1-0.2-0.4-0.3-0.6-0.3c-0.1,0-0.2,0.1-0.3,0.1c-0.1,0.1-0.2,0.2-0.2,0.3c0,0.3-0.1,0.5,0,0.8c0.1,0.3,0.2,0.5,0.4,0.7
			c0.3,0.3,0.8,0.2,0.9-0.1c0.2-0.4,0.2-0.9-0.2-1.2c-0.1-0.1-0.3-0.2-0.4-0.2c-0.1,0-0.3,0.1-0.4,0.2c-0.1,0.1-0.2,0.3-0.2,0.4
			c0,0.2,0.1,0.3,0.2,0.4c0,0,0,0,0,0C48.4,100.9,48.4,100.8,48.5,100.7c0.1,0.3,0.3,0.6,0.5,0.9c0,0,0-0.1-0.1-0.1
			c0.1,0.2,0.1,0.4,0.2,0.5c0.1,0.3,0.4,0.5,0.7,0.4c0.3-0.1,0.5-0.4,0.4-0.7c-0.2-0.6-0.5-1.2-0.9-1.7c-0.3,0.3-0.6,0.6-0.9,0.9
			c0,0,0,0,0.1,0.1C48.5,100.9,48.5,100.9,48.5,100.7c0,0.1,0,0.1,0,0.1C48.4,100.8,48.4,100.8,48.5,100.7c0,0,0,0.1,0,0.1
			C48.4,100.8,48.4,100.8,48.5,100.7C48.4,100.7,48.4,100.8,48.5,100.7C48.4,100.7,48.4,100.7,48.5,100.7
			C48.4,100.7,48.4,100.7,48.5,100.7c0-0.1,0-0.1,0-0.1c0,0,0,0,0,0c0.3,0,0.6-0.1,0.9-0.1c0,0-0.1-0.1-0.1-0.1c0,0,0.1,0.1,0.1,0.1
			c-0.1-0.1-0.1-0.1-0.1-0.2c0,0,0,0.1,0.1,0.1c0-0.1-0.1-0.2-0.1-0.3c0,0.1,0,0.1,0,0.2c0-0.1,0-0.1,0-0.2c0,0.1,0,0.1,0,0.2
			c0,0,0,0,0-0.1c-0.4,0-0.7,0.1-1.1,0.1c0.1,0.2,0.2,0.4,0.4,0.6c0.2,0.3,0.5,0.4,0.8,0.2c0.1,0,0.2-0.1,0.3-0.2
			c0.1-0.2,0.1-0.3,0.1-0.5c-0.1-0.3-0.3-0.6-0.6-0.8c-0.3-0.2-0.7-0.1-0.8,0.2C48.1,100.2,48.2,100.6,48.5,100.7L48.5,100.7z"/>
	</g>
</g>
<polyline class="st6" points="42.9,96.8 42.8,96.1 43.7,95.6 45,96.1 43.7,96.9 43,97.1 "/>
<polygon class="st6" points="50.1,112 51.6,111 51.6,112 50.8,112.8 "/>
<polygon class="st9" points="22.7,112.4 23.9,111.7 25.3,111.2 27.1,110.8 29.7,111.1 31,111.4 32,112 32,112.8 31.8,113.4 
	31.4,113.6 30.1,113.9 29.1,113.9 27.9,113.7 26.3,113.5 25.1,113.4 "/>
<polygon class="st9" points="30.6,115.4 31.4,114.9 32.6,114.9 33.3,115.2 33.3,115.5 32.6,115.8 31.5,115.8 "/>
<g>
	<g>
		<path class="st8" d="M18.8,106.8c0,0,0,0.1,0,0.1C18.8,106.9,18.8,106.8,18.8,106.8c-0.1,0.1-0.2,0.3-0.2,0.5
			c-0.1,0.3,0,0.5,0.1,0.7c0,0.1,0.1,0.2,0.2,0.2c0.1,0.1,0.2,0.1,0.2,0.2c0.2,0.1,0.3,0.1,0.4,0.1c0.1,0,0.2,0,0.3,0
			c0.1,0,0.1-0.1,0.2-0.1c0.1,0,0.1-0.1,0.2-0.2c0.1-0.1,0.1-0.3,0.1-0.5c0-0.1-0.1-0.3-0.3-0.4c-0.1-0.1-0.3-0.1-0.5-0.1
			c0,0-0.1,0-0.1,0c0.1,0,0.1,0,0.2,0c0,0-0.1,0-0.1,0c0.1,0,0.1,0,0.2,0c0,0-0.1,0-0.1,0c0,0,0.1,0,0.1,0.1c0,0-0.1,0-0.1-0.1
			c0,0,0.1,0.1,0.1,0.1c0,0-0.1,0-0.1-0.1c0,0,0.1,0.1,0.1,0.1c0,0,0-0.1-0.1-0.1c0,0,0,0.1,0.1,0.1c0,0,0-0.1,0-0.1
			c0,0.1,0,0.1,0,0.2c0,0,0-0.1,0-0.1c0,0.1,0,0.1,0,0.2c0-0.1,0-0.1,0-0.2c0,0,0,0.1-0.1,0.1c0.1-0.2,0.2-0.3,0.2-0.5
			c0-0.2,0-0.3-0.1-0.5c-0.1-0.1-0.2-0.2-0.4-0.3c-0.2,0-0.3,0-0.5,0.1C19,106.5,18.9,106.7,18.8,106.8L18.8,106.8z"/>
	</g>
</g>
<g>
	<g>
		<path class="st8" d="M17.7,105.4c-0.1,0.1-0.1,0.2-0.2,0.2c0,0-0.1,0.1-0.1,0.1c0,0,0,0,0,0.1c0,0.1-0.1,0.1-0.1,0.2
			c0,0.1,0,0.1,0,0.2c0,0,0,0,0,0.1c0,0.1,0.1,0.2,0.2,0.3c0.1,0.1,0.2,0.2,0.3,0.3c0.1,0.1,0.1,0.1,0.2,0.1c0.1,0,0.1,0.1,0.2,0.1
			c0.1,0,0.2,0,0.2-0.1c0.1,0,0.1-0.1,0.2-0.1c0.1-0.1,0.2-0.3,0.2-0.4c0-0.1,0-0.1,0-0.2c0-0.1-0.1-0.2-0.2-0.3
			c-0.1,0-0.1-0.1-0.2-0.2c0,0,0.1,0.1,0.1,0.1c0-0.1-0.1-0.1-0.1-0.2c0,0,0,0.1,0.1,0.1c0,0,0-0.1,0-0.1c0,0.2,0,0.3-0.1,0.5
			c0.1-0.1,0.2-0.2,0.3-0.4c0-0.1,0.1-0.1,0.1-0.2c0-0.1,0-0.2,0-0.2c0-0.1-0.1-0.1-0.1-0.2c0-0.1-0.1-0.1-0.2-0.2
			c-0.1-0.1-0.3-0.1-0.5-0.1c0,0-0.1,0-0.1,0.1C17.8,105.2,17.8,105.3,17.7,105.4L17.7,105.4z"/>
	</g>
</g>
<polygon class="st3" points="105,49.1 105,47.4 105.3,45.1 106.3,44.6 107.5,45.8 108.4,48.7 109.4,50.7 "/>
<polygon class="st3" points="87.4,61.6 88.1,57.3 85,56 83.2,55.4 84.1,58 85.2,59.6 "/>
<path class="st10" d="M13.1,99.9c0-2,3.9-4.1,10.8-5.6c0-0.2,0-0.3,0-0.5c-7,1.6-11.2,3.7-11.2,6.1c0,1.7,2,3.2,5.9,4.6
	c0,0,0,0,0-0.1c0.1-0.2,0.2-0.3,0.4-0.5c0.1-0.1,0.2-0.2,0.2-0.4c-0.2,0.1-0.4,0.3-0.5,0.5C15,102.8,13.1,101.3,13.1,99.9z"/>
<path class="st10" d="M36,107.4c-4.2-0.4-8.1-1-11.5-1.8c0.1-0.2,0.1-0.3,0.1-0.5c-0.1,0.2-0.3,0.4-0.4,0.7c0,0.1-0.1,0.1-0.2,0.2
	l0.1,0c3.5,0.8,7.6,1.4,12,1.8C36.1,107.8,36,107.6,36,107.4z"/>
<path class="st10" d="M54.8,108.7C54.8,108.7,54.8,108.7,54.8,108.7c11,0,21.5-1,29.1-2.6c-0.1-0.1-0.3-0.2-0.3-0.4
	c-7.5,1.6-17.8,2.5-28.5,2.6C55,108.5,54.9,108.6,54.8,108.7z"/>
<g>
	<g>
		<path class="st10" d="M47,54.3c-4.1,0.4-8.2,1.1-11.8,3.1c-3.4,1.9-6.2,4.8-8.2,8.2c-4.1,7.2-4.3,15.8-3.9,23.8
			c0.3,5.4,0.9,10.9,0.9,16.3c0,0.4,0.6,0.4,0.6,0c-0.1-15.1-5.6-36.1,9-46.6c4-2.9,8.6-3.7,13.4-4.2C47.4,54.9,47.4,54.3,47,54.3
			L47,54.3z"/>
	</g>
</g>
<g>
	<g>
		<path class="st10" d="M78.8,64.2c-1.2-2.3-2.9-4.2-4.9-5.8c-0.3-0.2-0.7,0.2-0.4,0.4c2,1.5,3.7,3.4,4.9,5.6
			C78.5,64.9,79,64.6,78.8,64.2L78.8,64.2z"/>
	</g>
</g>
<g>
	<g>
		<path class="st10" d="M43.3,55.3c0.4,0,0.4-0.6,0-0.6C42.9,54.7,42.9,55.3,43.3,55.3L43.3,55.3z"/>
	</g>
</g>
<g>
	<g>
		<path class="st10" d="M24.5,71.8c-3.4-0.2-6.3-3.1-5.6-6.6c0.6-3.1,3.6-5.4,6.7-5.6c1.7-0.1,3.9-0.1,5,1.4
			c0.2,0.3,0.7-0.1,0.4-0.4c-1.1-1.4-3-1.6-4.7-1.6c-1.8,0-3.6,0.6-5,1.6c-2.8,2.1-4.1,6.1-1.9,9.1c1.2,1.6,3.1,2.6,5.2,2.7
			C24.9,72.5,24.9,71.9,24.5,71.8L24.5,71.8z"/>
	</g>
</g>
<g>
	<g>
		<path class="st10" d="M84.8,68.8c-0.8,0.9-1.8,1.5-3,1.6c-0.2,0-0.3,0.1-0.3,0.3c0,0.1,0.1,0.3,0.3,0.3c1.3-0.2,2.5-0.8,3.4-1.8
			C85.5,68.9,85,68.5,84.8,68.8L84.8,68.8z"/>
	</g>
</g>
<g>
	<g>
		<path class="st10" d="M74.6,59.5c1.9-1,4.1-1.5,6.2-1.4c0.4,0,0.4-0.6,0-0.6c-2.3-0.1-4.5,0.4-6.5,1.5
			C74,59.2,74.3,59.7,74.6,59.5L74.6,59.5z"/>
	</g>
</g>
<g>
	<g>
		<path class="st10" d="M49.2,77.1c0.1,0,0.2,0,0.2,0c0-0.1,0-0.2,0-0.3c-0.2,0.2-0.6,0.1-0.8,0.2c-0.5,0.2-0.9,0.6-1.3,0.9
			c-0.8,0.6-1.6,1.4-1.9,2.3c-0.9,2.4,2.2,3.4,4,3.2c1.4-0.2,2.7-0.8,4.2-1c1.3-0.1,2.4,0.3,3.6,0.7c0.9,0.2,1.9,0.4,2.6-0.2
			c0.8-0.6,1.2-1.6,1-2.6c-0.4-2.2-3.2-3.4-5-4.1c-0.2-0.1-0.3,0.2-0.1,0.3c1.6,0.6,3.7,1.5,4.5,3.1c0.5,1,0.4,2.3-0.5,3
			c-0.8,0.7-2,0.3-2.9,0.1c-0.8-0.2-1.7-0.5-2.6-0.6c-1.2,0-2.3,0.3-3.4,0.6c-1.3,0.4-2.6,0.7-3.9,0.1c-1-0.4-1.8-1.2-1.4-2.3
			c0.3-1,1.3-1.9,2.1-2.5c0.3-0.2,0.7-0.5,1-0.7c0.3-0.1,0.6-0.1,0.8-0.2c0.1-0.1,0.1-0.2,0-0.3c-0.1,0-0.3,0-0.4,0
			C48.9,76.9,49,77.1,49.2,77.1L49.2,77.1z"/>
	</g>
</g>
<g>
	<g>
		<path class="st10" d="M56.6,83c0.3,0.8,0.5,1.7,0.5,2.6c0,0.8,0,1.8-0.6,2.4c-0.5,0.6-1.5,0.9-2.2,0.6c-0.6-0.3-0.8-1-1-1.5
			c-0.1-0.2-0.4,0-0.3,0.2c0.2,0.5,0.4,1.1,0.8,1.4c0.5,0.4,1.1,0.4,1.7,0.3c0.6-0.2,1.2-0.6,1.5-1.2c0.3-0.7,0.3-1.5,0.3-2.2
			c0-0.9-0.2-1.8-0.5-2.6C56.8,82.8,56.5,82.8,56.6,83L56.6,83z"/>
	</g>
</g>
<path class="st11" d="M73.7,67.6c0-5.1-4.1-9.2-9.2-9.2c-5.1,0-9.2,4.1-9.2,9.2c0,5.1,4.1,9.2,9.2,9.2
	C69.5,76.8,73.7,72.6,73.7,67.6z"/>
<path class="st11" d="M41.2,59.3c-5.1,0-9.2,4.1-9.2,9.2c0,5.1,4.1,9.2,9.2,9.2c5.1,0,9.2-4.1,9.2-9.2
	C50.4,63.4,46.3,59.3,41.2,59.3z"/>
<path class="st10" d="M82.1,63.9c0-1.1-0.9-1.9-1.9-1.9c-1.1,0-1.9,0.9-1.9,1.9c0,1.1,0.9,1.9,1.9,1.9C81.2,65.9,82.1,65,82.1,63.9z
	"/>
<path class="st10" d="M27.3,65.6c0-1.1-0.9-1.9-1.9-1.9c-1.1,0-1.9,0.9-1.9,1.9c0,1.1,0.9,1.9,1.9,1.9
	C26.5,67.6,27.3,66.7,27.3,65.6z"/>
<path class="st10" d="M57,76.1c0-1.3-1.8-2.3-4.1-2.3c-2.3,0-4.1,1-4.1,2.3c0,1.3,1.8,2.3,4.1,2.3C55.2,78.3,57,77.3,57,76.1z"/>
<path class="st10" d="M66.1,65.6c0,1.7,1.3,3,3,3c1.7,0,3-1.3,3-3c0-1.7-1.3-3-3-3C67.5,62.6,66.1,63.9,66.1,65.6z M71.1,64.4
	c0,0.5-0.4,0.9-0.9,0.9c-0.5,0-0.9-0.4-0.9-0.9c0-0.5,0.4-0.9,0.9-0.9C70.7,63.5,71.1,63.9,71.1,64.4z"/>
<path class="st10" d="M42.7,67.2c0,1.7,1.3,3,3,3c1.7,0,3-1.3,3-3c0-1.7-1.3-3-3-3C44,64.2,42.7,65.6,42.7,67.2z M47.6,66
	c0,0.5-0.4,0.9-0.9,0.9c-0.5,0-0.9-0.4-0.9-0.9c0-0.5,0.4-0.9,0.9-0.9C47.2,65.2,47.6,65.5,47.6,66z"/>
<g>
	<g>
		<path class="st10" d="M53.1,82.4c0.1,0.6,0.1,1.2,0.1,1.7c0,0.6,0,1.3,0,1.9c-0.1,0.9-0.3,2.2-1.2,2.6c-0.8,0.4-1.7,0-2.2-0.7
			c-0.4-0.7-0.5-1.5-0.5-2.3c0-0.8,0.1-1.7,0.4-2.5c0.1-0.2-0.2-0.3-0.3-0.1c-0.2,0.8-0.4,1.7-0.4,2.5c0,0.9,0.1,1.8,0.6,2.6
			c0.5,0.7,1.4,1.1,2.2,0.9c1-0.2,1.4-1.2,1.6-2.1c0.2-0.8,0.1-1.7,0.1-2.5c0-0.7,0.1-1.4-0.1-2.1C53.4,82.1,53.1,82.2,53.1,82.4
			L53.1,82.4z"/>
	</g>
</g>
<g>
	<g>
		<path class="st10" d="M18.4,107.2c-0.3-0.2-0.7-0.4-0.8-0.8c-0.1-0.3,0-0.6,0.1-0.9c0.3-0.6,0.8-1.1,1.3-1.5
			c1.4-1.1,3.3-2,5.1-1.6c0.2,0,0.3-0.3,0.1-0.3c-1.6-0.3-3.3,0.3-4.6,1.1c-1,0.6-2.2,1.5-2.3,2.8c-0.1,0.7,0.4,1.2,1,1.5
			C18.4,107.6,18.6,107.3,18.4,107.2L18.4,107.2z"/>
	</g>
</g>
<g>
	<g>
		<path class="st10" d="M19.9,106c-0.6,0.2-1.1,0.7-1.4,1.3c-0.2,0.6,0.1,1.1,0.6,1.3c1.3,0.7,2.7-0.3,3.7-1.1
			c0.6-0.5,1.1-1,1.5-1.6c0.1-0.2-0.1-0.3-0.3-0.2c-0.7,1-1.7,1.8-2.7,2.4c-0.5,0.3-1.1,0.5-1.6,0.4c-0.5-0.1-1.2-0.4-1.1-1
			c0.1-0.6,0.8-1,1.3-1.3C20.2,106.1,20,105.9,19.9,106L19.9,106z"/>
	</g>
</g>
<g>
	<g>
		<path class="st10" d="M82.9,104c0,0.6,0,1.2,0.1,1.8c0,0.2,0.1,0.3,0.3,0.3c0.2,0,0.3-0.1,0.3-0.3c0-0.6-0.1-1.2-0.1-1.8
			c0-0.2-0.1-0.3-0.3-0.3C83,103.7,82.9,103.8,82.9,104L82.9,104z"/>
	</g>
</g>
<g>
	<g>
		<path class="st10" d="M77.9,63.5c2.1,2.6,3.2,5.8,3.8,9.1c0.1,0.4,0.7,0.2,0.6-0.2c-0.6-3.4-1.8-6.6-4-9.3
			C78,62.8,77.6,63.2,77.9,63.5L77.9,63.5z"/>
	</g>
</g>
<g>
	<g>
		<path class="st10" d="M31,111.3c-2.8-0.9-6-0.6-8.6,0.9c-0.1,0.1-0.1,0.2,0,0.3c2.3,1.2,4.9,1.4,7.4,1.5c0.9,0,2.1-0.1,2.5-1.1
			c0.3-0.8-0.4-1.7-1.2-1.4c-0.2,0.1-0.1,0.4,0.1,0.3c0.7-0.2,1.1,0.6,0.8,1.1c-0.3,0.5-0.8,0.7-1.3,0.8c-0.9,0.1-1.8,0-2.7-0.1
			c-1.9-0.1-3.8-0.4-5.4-1.3c0,0.1,0,0.2,0,0.3c2.5-1.5,5.6-1.8,8.3-0.9C31.1,111.6,31.2,111.3,31,111.3L31,111.3z"/>
	</g>
</g>
<g>
	<g>
		<path class="st10" d="M32.9,115c-0.7-0.5-1.8-0.4-2.4,0.3c-0.1,0.1,0,0.2,0,0.2c0.8,0.6,2,0.6,2.9,0.1c0.1,0,0.1-0.1,0.1-0.2
			c-0.2-0.4-0.4-0.6-0.8-0.7c-0.2,0-0.3,0.3-0.1,0.3c0.3,0.1,0.5,0.2,0.6,0.5c0-0.1,0-0.1,0.1-0.2c-0.8,0.5-1.8,0.4-2.6-0.1
			c0,0.1,0,0.2,0,0.2c0.5-0.5,1.4-0.6,2-0.2C32.9,115.4,33,115.1,32.9,115L32.9,115z"/>
	</g>
</g>
<path class="st10" d="M18.2,104.3c0,0,2.5-2.9,5.9-2.3l-0.4-8l-3.3,1.1l-2.3,0.7l-2.4,1l-1.9,0.7l-1,1.1l-0.1,1.4v0.9l0.8,0.7l1,0.8
	L18.2,104.3z"/>
<g>
	<g>
		<path class="st10" d="M16.4,97.3C16.4,97.2,16.4,97.2,16.4,97.3c-0.3-0.2-0.6-0.1-0.8,0.2c-0.1,0.1-0.1,0.4-0.1,0.5
			c0.1,0.3,0.4,0.5,0.7,0.4c0.2,0,0.3-0.2,0.5-0.4c0.1-0.1,0.2-0.2,0.4-0.3c0.3-0.1,0.4-0.5,0.2-0.8c-0.1-0.3-0.4-0.4-0.7-0.3
			c-0.3,0.1-0.5,0.1-0.8,0.3c-0.6,0.3-0.2,1.3,0.5,1.1c0.1,0,0.3-0.1,0.4-0.1c-0.1-0.4-0.2-0.8-0.3-1.2c-0.1,0-0.2,0.1-0.3,0.1
			c0.2,0.4,0.3,0.7,0.5,1.1c1.5-0.9,3.2-1.4,4.9-1.8c0.8-0.2,0.4-1.4-0.3-1.2c-0.9,0.2-1.8,0.6-2.6,1.2c-0.3,0.2-0.4,0.5-0.2,0.8
			c0.2,0.3,0.6,0.4,0.8,0.2c0.7-0.5,1.5-0.9,2.3-1.1c-0.1-0.4-0.2-0.8-0.3-1.2C19.4,95.5,17.6,96,16,97c-0.3,0.2-0.4,0.5-0.2,0.8
			c0.1,0.2,0.4,0.5,0.7,0.3c0.1,0,0.2-0.1,0.3-0.1c0.3-0.1,0.5-0.4,0.4-0.7c-0.1-0.3-0.4-0.5-0.7-0.4c-0.1,0-0.3,0.1-0.4,0.1
			c0.2,0.4,0.3,0.7,0.5,1.1c0.1-0.1,0.3-0.1,0.5-0.1c-0.2-0.4-0.3-0.7-0.5-1.1c-0.3,0.2-0.6,0.4-0.8,0.6c0.1-0.1,0.2-0.1,0.3-0.2
			c0,0,0,0-0.1,0c0.2,0.1,0.5,0.3,0.7,0.4c0,0,0,0,0,0c0,0.2,0,0.3-0.1,0.5c0,0,0,0,0,0c-0.3,0.1-0.6,0.1-0.8,0.2c0,0,0,0,0,0
			c0.3,0.1,0.7,0.1,0.8-0.2C16.8,97.8,16.7,97.4,16.4,97.3L16.4,97.3z"/>
	</g>
</g>
<g>
	<g>
		<path class="st10" d="M16.6,98.5c0.3-0.2,0.7-0.3,1-0.5c0.3-0.1,0.4-0.5,0.2-0.8c-0.1-0.3-0.4-0.4-0.7-0.3c-0.3,0.1-0.7,0.2-1,0.3
			c0.2,0.4,0.3,0.7,0.5,1.1c0.3-0.2,0.5-0.3,0.8-0.5c0.3-0.2,0.4-0.5,0.2-0.8c-0.1-0.3-0.4-0.4-0.7-0.3c-0.2,0-0.4,0.1-0.6,0.1
			c0.1,0.4,0.2,0.8,0.3,1.1c0.3-0.2,0.6-0.4,1-0.5c0.3-0.1,0.5-0.4,0.4-0.7c-0.1-0.3-0.4-0.5-0.7-0.4c-0.4,0.1-0.7,0.2-1.1,0.3
			c0.2,0.4,0.3,0.7,0.5,1.1c0.2-0.1,0.4-0.2,0.6-0.3c-0.1-0.4-0.2-0.8-0.3-1.2c-0.2,0.1-0.4,0.1-0.6,0.2c0.2,0.4,0.3,0.7,0.5,1.1
			c0.6-0.3,1.3-0.6,2-0.8c0.7-0.2,1.5-0.2,2.1-0.6c0.6-0.3,0.2-1.3-0.5-1.1c-0.6,0.2-1.3,0.4-1.9,0.6c0.1,0.4,0.2,0.8,0.3,1.2
			c0.7-0.3,1.4-0.5,2.1-0.7c0.3-0.1,0.5-0.4,0.4-0.7c-0.1-0.3-0.4-0.5-0.7-0.4c-0.7,0.2-1.4,0.4-2.1,0.7c-0.3,0.1-0.5,0.4-0.4,0.7
			c0.1,0.3,0.4,0.5,0.7,0.4c0.6-0.2,1.3-0.4,1.9-0.6c-0.2-0.4-0.3-0.7-0.5-1.1c-0.3,0.1-0.6,0.2-0.9,0.3c-0.4,0.1-0.7,0.2-1.1,0.3
			c-0.7,0.2-1.5,0.5-2.1,0.9c-0.6,0.3-0.2,1.3,0.5,1.1c0.2-0.1,0.4-0.1,0.6-0.2c0.3-0.1,0.5-0.4,0.4-0.7c-0.1-0.3-0.4-0.5-0.7-0.4
			c-0.3,0.1-0.6,0.2-0.9,0.4c-0.6,0.4-0.2,1.3,0.5,1.1c0.4-0.1,0.7-0.2,1.1-0.3c-0.1-0.4-0.2-0.8-0.3-1.2c-0.4,0.2-0.9,0.4-1.3,0.7
			c-0.2,0.2-0.4,0.4-0.3,0.7c0.1,0.2,0.3,0.5,0.6,0.4c0.3,0,0.6-0.1,0.9-0.1c-0.2-0.4-0.3-0.7-0.5-1.1c-0.3,0.2-0.5,0.3-0.8,0.5
			c-0.6,0.4-0.2,1.3,0.5,1.1c0.3-0.1,0.7-0.2,1-0.3c-0.2-0.4-0.3-0.7-0.5-1.1c-0.3,0.2-0.7,0.3-1,0.5c-0.3,0.1-0.4,0.6-0.2,0.8
			C16,98.6,16.3,98.6,16.6,98.5L16.6,98.5z"/>
	</g>
</g>
<g>
	<g>
		<path class="st10" d="M18.6,103.1c0.3-0.1,0.6-0.3,0.9-0.4c-0.2-0.3-0.5-0.6-0.7-0.9c-0.2,0.2-0.5,0.5-0.7,0.8
			c-0.2,0.2-0.2,0.4-0.1,0.7c0.1,0.2,0.3,0.4,0.6,0.4c0.3,0,0.5-0.1,0.7-0.2c-0.2-0.3-0.5-0.6-0.7-0.9c-0.2,0.2-0.4,0.4-0.5,0.6
			c-0.3,0.5,0.3,1.1,0.8,0.8c0.1,0,0.1-0.1,0.2-0.1c-0.3-0.3-0.6-0.6-0.8-0.8c-0.1,0.1,0,0.1-0.1,0.1c0.2,0.3,0.4,0.7,0.6,1
			c0.1-0.1,0.1-0.1,0.2-0.2c-0.3-0.2-0.6-0.5-0.9-0.7c0,0,0,0,0,0.1c0.1-0.1,0.1-0.2,0.2-0.3c0.1,0,0.1,0,0.2-0.1
			c0.1,0.3,0.3,0.7,0.4,1c0.7-0.6,1.5-1.1,2.3-1.6c-0.2-0.3-0.4-0.7-0.6-1c-0.5,0.3-1,0.6-1.5,1c-0.3,0.2-0.4,0.5-0.2,0.8
			c0.2,0.3,0.5,0.4,0.8,0.2c0.7-0.3,1.4-0.7,2-1.1c0.6-0.4,0.1-1.4-0.6-1c-0.4,0.2-0.9,0.5-1.3,0.7c-0.3,0.2-0.4,0.6-0.2,0.8
			c0.2,0.3,0.5,0.3,0.8,0.2c0.8-0.3,1.5-0.6,2.3-0.9c-0.1-0.4-0.2-0.8-0.3-1.2c-0.5,0.2-1,0.4-1.4,0.6c-0.6,0.3-0.5,1.1,0.2,1.2
			c0.5,0,1-0.1,1.4-0.3c0.4-0.1,0.8-0.3,1.2-0.2c0-0.4-0.1-0.7-0.1-1.1c0,0,0,0,0,0c-0.5,0-0.8,0.7-0.4,1c0.4,0.3,0.7,0.3,1.1,0
			c0.2-0.2,0.2-0.6,0-0.9c-0.2-0.2-0.6-0.2-0.9,0c0,0,0,0,0,0c0.1-0.1,0.2-0.1,0.3-0.2c0.1,0,0.1,0,0.2,0c0.1,0.1,0.2,0.1,0.3,0.2
			c0,0,0,0,0,0c-0.1,0.3-0.3,0.7-0.4,1c0.2,0,0.4,0,0.6-0.2c0.4-0.3,0.4-1-0.1-1.1c-0.5-0.1-1.1-0.1-1.6,0.1
			c-0.4,0.1-0.9,0.3-1.4,0.3c0.1,0.4,0.1,0.8,0.2,1.2c0.5-0.2,1-0.4,1.4-0.6c0.3-0.1,0.5-0.4,0.4-0.7c-0.1-0.3-0.4-0.5-0.7-0.4
			c-0.9,0.3-1.7,0.7-2.6,1.1c0.2,0.3,0.4,0.7,0.6,1c0.4-0.2,0.9-0.5,1.3-0.7c-0.2-0.3-0.4-0.7-0.6-1c-0.6,0.4-1.3,0.8-2,1.1
			c0.2,0.3,0.4,0.7,0.6,1c0.5-0.3,1-0.6,1.5-1c0.6-0.4,0.1-1.4-0.6-1c-0.9,0.5-1.8,1.1-2.6,1.8c-0.4,0.3-0.1,1.1,0.4,1
			c0.4,0,0.7-0.2,0.8-0.6c0.2-0.5-0.5-1-0.9-0.7c-0.1,0.1-0.1,0.1-0.2,0.2c-0.3,0.2-0.4,0.5-0.2,0.8c0.2,0.3,0.6,0.4,0.8,0.2
			c0.2-0.1,0.4-0.3,0.5-0.5c0.3-0.5-0.3-1.1-0.8-0.8c-0.1,0-0.1,0.1-0.2,0.1c0.3,0.3,0.6,0.6,0.8,0.8c0.1-0.1,0.2-0.2,0.3-0.3
			c0.5-0.4-0.2-1.3-0.7-0.9c-0.2,0.1,0,0-0.1,0c0.1,0.3,0.3,0.7,0.4,1c0.2-0.3,0.4-0.5,0.7-0.8c0.5-0.5-0.1-1.2-0.7-0.9
			c-0.3,0.1-0.6,0.3-0.9,0.4c-0.3,0.1-0.4,0.6-0.2,0.8C18,103.2,18.4,103.3,18.6,103.1L18.6,103.1z"/>
	</g>
</g>
<g>
	<g>
		<path class="st10" d="M23.7,101.2C23.7,101.2,23.7,101.2,23.7,101.2c0,0,0.1,0.1,0.1,0.1c0,0,0,0,0,0c0,0,0,0.1,0.1,0.1
			c0,0,0,0,0,0c0,0.1,0,0.1,0,0.2c0,0,0,0,0,0c0,0.1,0,0.1,0,0.2c0,0,0,0,0,0c0,0,0,0.1-0.1,0.1c0,0,0,0,0,0c0,0-0.1,0.1-0.1,0.1
			c0,0,0,0,0,0c0,0-0.1,0.1-0.1,0.1c0,0,0,0,0,0c0.1,0,0.1-0.1,0.2-0.2c0.1-0.1,0.1-0.1,0.1-0.2c0-0.1,0-0.2,0-0.2
			c0-0.1,0-0.2-0.1-0.2c0,0-0.1-0.1-0.1-0.1c-0.1-0.1-0.2-0.1-0.3-0.2c-0.1,0-0.1,0-0.2,0c-0.1,0-0.2,0-0.3,0.1c0,0,0,0,0,0
			c0,0,0,0,0,0c0,0-0.1,0.1-0.1,0.1c0,0,0,0,0,0c0,0,0,0,0,0c0,0,0,0,0,0c0,0-0.1,0.1-0.1,0.1c0,0,0,0,0,0c0,0,0,0,0,0c0,0,0,0,0,0
			c0,0,0,0,0,0c0,0,0,0.1-0.1,0.1c0,0,0,0,0,0c0,0,0,0.1,0,0.2c0,0,0,0,0,0c0,0,0,0,0,0c0,0,0,0,0,0c0,0,0,0.1,0,0.2c0,0,0,0,0,0
			c0,0,0,0.1,0,0.1c0,0,0,0.1,0,0.1c0,0,0,0.1,0.1,0.1c0,0,0,0,0.1,0.1c0.1,0.1,0.1,0.1,0.2,0.1c0.1,0,0.1,0.1,0.2,0.1
			c0.1,0,0.2,0,0.2-0.1c0.1,0,0.1-0.1,0.2-0.1c0,0,0.1-0.1,0.1-0.1c0.1-0.1,0.1-0.2,0.1-0.3c0-0.1,0-0.1,0-0.2
			C23.8,101.3,23.8,101.2,23.7,101.2L23.7,101.2z"/>
	</g>
</g>
<g>
	<g>
		<path class="st10" d="M12.9,100.1c-0.1,0-0.2,0-0.3,0c-0.1,0-0.1,0.1-0.1,0.1c0,0.1,0,0.1,0.1,0.2
			C12.7,100.5,12.8,100.1,12.9,100.1c0.1-0.3,0.1-0.5,0.2-0.7c0-0.1,0-0.2-0.1-0.2c-0.1,0-0.1,0-0.2,0.1c-0.2,0.2-0.3,0.6-0.2,0.9
			c0,0.1,0.1,0.1,0.1,0.1c0.1,0,0.1,0,0.2-0.1c0-0.1,0-0.2-0.1-0.2c-0.1,0-0.2,0-0.3,0.1c-0.1,0.1,0,0.2,0,0.3
			c0.1,0.1,0.2,0.1,0.3,0C12.8,100.3,12.8,100.2,12.9,100.1c-0.1,0-0.2,0-0.3,0c-0.1,0-0.1,0.1-0.2,0.1c-0.1,0-0.1,0.1-0.1,0.2
			c0,0.1,0.1,0.1,0.1,0.1c0.4,0,0.7,0,1.1,0c0.1,0,0.2-0.1,0.2-0.2c0-0.1-0.1-0.2-0.2-0.2c-0.4,0-0.7,0-1.1,0c0,0.1,0.1,0.2,0.1,0.3
			c0.1,0,0.1-0.1,0.2-0.1c-0.1-0.1-0.1-0.2-0.2-0.2c0.1,0,0.1,0,0.1,0c0,0.1,0,0.1,0,0.1c0,0.1-0.1,0.1-0.1,0c0,0,0-0.1,0-0.1
			c0.1,0,0.2,0,0.3,0c0-0.3,0-0.5,0.2-0.7c-0.1,0-0.2-0.1-0.3-0.1c-0.1,0.2-0.1,0.3-0.2,0.5c0,0.1,0,0.1-0.1,0.2c0,0,0,0.1,0,0.1
			c0,0,0,0,0,0c0,0,0,0,0,0c0,0,0,0,0.1,0c0,0.1,0,0.2,0,0.3c0.1,0,0.3,0,0.4,0c0.1,0,0.1-0.1,0.1-0.2C13,100.1,12.9,100,12.9,100.1
			L12.9,100.1z"/>
	</g>
</g>
<g>
	<g>
		<path class="st10" d="M83.9,104.1c-6.5-2.6-8.2-10.2-6.6-16.5c1.5-5.6,5.2-10.7,5.2-16.7c0-0.4-0.6-0.4-0.6,0
			c0.1,6.9-4.8,12.5-5.7,19.2c-0.7,5.9,1.7,12.2,7.5,14.5C84.1,104.8,84.2,104.2,83.9,104.1L83.9,104.1z"/>
	</g>
</g>
<g>
	<g>
		<path class="st10" d="M83.8,106.1c0.1-0.1,0.2-0.2,0.4-0.2c0-0.1-0.1-0.2-0.1-0.3c0,0,0,0,0,0c0,0,0,0,0,0c0,0,0,0,0,0
			c0,0,0,0,0,0c0,0,0,0,0,0c0,0,0,0,0,0c0,0,0,0,0-0.1c0,0,0-0.1-0.1-0.1c0-0.1-0.1-0.1-0.1-0.2c-0.1-0.3-0.3-0.5-0.4-0.8
			c-0.1,0.1-0.2,0.1-0.3,0.2c0.2,0.3,0.2,0.6,0.1,0.9c0,0.1,0,0.2,0.1,0.2c0.2,0.1,0.4,0.2,0.6,0.3c0.1,0,0.2,0,0.2-0.1
			c0-0.1,0-0.2-0.1-0.2c-0.2-0.1-0.4-0.2-0.6-0.3c0,0.1,0.1,0.1,0.1,0.2c0.1-0.4,0.1-0.8-0.2-1.1c-0.1-0.2-0.4,0-0.3,0.2
			c0.2,0.4,0.4,0.7,0.6,1.1c0,0,0-0.1,0-0.1c0,0.3,0.3,0.5,0.5,0.3c0.1,0,0.1-0.1,0.1-0.2c0-0.1-0.1-0.1-0.1-0.1
			c-0.2,0-0.5,0.1-0.6,0.2c-0.1,0.1-0.1,0.2,0,0.2C83.6,106.2,83.7,106.2,83.8,106.1L83.8,106.1z"/>
	</g>
</g>
<g>
	<g>
		<path class="st10" d="M83.4,105.1c0.2,0.3,0.4,0.5,0.7,0.8c0.1,0.1,0.3,0,0.3-0.1c-0.1-0.5-0.3-1-0.6-1.5c0-0.1-0.1-0.1-0.2-0.1
			c-0.1,0-0.1,0.1-0.1,0.2c0.1,0.3,0.3,0.6,0.6,0.9c0.1,0.1,0.3,0,0.3-0.1c0-0.4-0.3-0.8-0.7-1c-0.1,0-0.2,0.1-0.2,0.2
			c0.1,0.2,0.2,0.4,0.4,0.5c0.1,0,0.2,0,0.2-0.1c0.1-0.3-0.1-0.6-0.4-0.7c-0.1,0-0.2,0-0.2,0.1c-0.1,0.2-0.1,0.5,0,0.7
			c0,0.1,0.2,0.2,0.3,0c0.1-0.2,0-0.5-0.2-0.5C83.4,104.5,83.2,104.8,83.4,105.1C83.4,105.1,83.5,105.1,83.4,105.1
			c0.1,0,0.2-0.1,0.2-0.1c0-0.2,0-0.3,0-0.5c0-0.2-0.2-0.2-0.3,0c-0.1,0.3-0.2,0.7,0.2,0.8c0.3,0.1,0.6-0.2,0.4-0.5
			c0-0.1-0.1-0.1-0.2-0.1c-0.1,0-0.1,0.1-0.1,0.2c0,0,0,0,0,0c0,0,0,0,0,0c0,0,0,0,0,0c0,0,0,0,0,0c0,0,0,0,0,0c0,0,0,0,0,0
			c0,0,0,0,0,0c0,0,0,0,0,0c0,0,0,0,0,0c0,0,0,0,0,0c0,0,0,0,0,0c0,0,0,0,0,0c0,0,0,0,0,0c0,0,0,0,0,0c0,0,0,0,0,0c0,0,0-0.1,0-0.1
			c0-0.1,0-0.2,0.1-0.3c-0.1,0-0.2,0-0.3,0c0,0.2,0,0.3,0,0.5c0.1,0,0.2-0.1,0.3-0.1c0,0,0,0,0,0c0,0,0,0,0,0c0,0,0,0,0,0
			c0,0,0,0,0,0c0,0,0,0,0,0c0,0,0,0,0,0c0.1,0,0.2,0,0.3,0c-0.1-0.2-0.1-0.4,0-0.6c-0.1,0-0.1,0.1-0.2,0.1c0.1,0,0.3,0.2,0.2,0.3
			c0.1,0,0.1-0.1,0.2-0.1c-0.1-0.1-0.2-0.2-0.3-0.4c-0.1,0.1-0.1,0.1-0.2,0.2c0.3,0.1,0.4,0.4,0.4,0.7c0.1,0,0.2-0.1,0.3-0.1
			c-0.2-0.2-0.4-0.5-0.6-0.8c-0.1,0.1-0.2,0.1-0.3,0.2c0.3,0.4,0.4,0.9,0.6,1.4c0.1,0,0.2-0.1,0.3-0.1c-0.2-0.3-0.4-0.5-0.7-0.8
			c-0.1-0.1-0.2-0.1-0.2,0C83.4,104.9,83.4,105,83.4,105.1L83.4,105.1z"/>
	</g>
</g>
<g>
	<g>
		<path class="st10" d="M101.9,48.8c1.4-2.1,2.2-4.4,2.3-6.9c0.1-1.3-0.2-2.6-0.2-3.9c0-0.5,0.2-2.6,0.9-1.3
			c0.3,0.5,0.4,1.2,0.5,1.8c0.3,1.1,0.7,2.2,1.3,3.2c0.7,1,1.6,1.8,2.4,2.7c1.7,2.1,2.6,4.7,2.5,7.4c0,0.4,0.6,0.4,0.6,0
			c0.1-2.1-0.4-4.1-1.4-6c-1.1-2-3.1-3.3-4.1-5.5c-0.5-1.1-0.8-2.2-1.1-3.3c-0.2-0.6-0.4-1.7-1.2-1.6c-0.8,0.1-1,1.1-1,1.7
			c-0.1,1.2,0.1,2.4,0.2,3.5c0.1,2.8-0.7,5.5-2.3,7.8C101.1,48.8,101.6,49.1,101.9,48.8L101.9,48.8z"/>
	</g>
</g>
<g>
	<g>
		<path class="st10" d="M87,63.7c-2.9,0-4.7-2.7-5.5-5.2c-0.5-1.4-0.7-2.8-1.2-4.3c-0.4-1.3-1.1-2.6-1.7-3.8
			c-0.2-0.3-0.4-0.7-0.5-1.1c-0.1-0.3-0.5-0.7-0.4-1c-0.1-0.2-0.1-0.3,0.2-0.3c0.2,0.1,0.4,0.3,0.5,0.4c0.3,0.2,0.5,0.5,0.8,0.7
			c0.9,0.9,1.8,1.8,2.8,2.6c2.2,1.7,4.9,2.2,7.5,2.7c0.4,0.1,0.5-0.5,0.2-0.6c-2.6-0.5-5.2-1-7.3-2.6c-1-0.8-1.9-1.7-2.8-2.6
			C79,48.2,78,47,77.3,47.5c-0.7,0.4-0.1,1.4,0.2,1.9c0.6,1.3,1.3,2.4,1.9,3.7c1,2.4,1.3,5.2,2.5,7.5c1,2,2.9,3.7,5.3,3.7
			C87.4,64.3,87.4,63.7,87,63.7L87,63.7z"/>
	</g>
</g>
<path class="st10" d="M106.3,62.1c-0.5-1.2-2.6-1.4-4.7-0.6c-2.1,0.9-3.4,2.5-3,3.7c0.5,1.2,2.6,1.4,4.7,0.6
	C105.4,64.9,106.7,63.2,106.3,62.1z"/>
<path class="st10" d="M91,59.8c0.3,0.8,1.2,1.3,2.1,1c0.8-0.3,1.3-1.2,1-2.1c-0.3-0.8-1.2-1.3-2.1-1C91.1,58,90.7,58.9,91,59.8z
	 M93.3,58.3c0.1,0.2,0,0.5-0.3,0.6c-0.2,0.1-0.5,0-0.6-0.3c-0.1-0.2,0-0.5,0.3-0.6C92.9,57.9,93.2,58,93.3,58.3z"/>
<g>
	<g>
		<path class="st10" d="M104.5,69.1c0.2,0.4,0.3,0.9,0.4,1.4c0.1,0.5,0.3,1,0.4,1.6c0.2,0.8,0.3,1.9-0.3,2.5c-0.5,0.5-1.5,0.5-2,0
			c-0.5-0.5-0.8-1.2-0.9-1.8c-0.2-0.7-0.3-1.5-0.3-2.2c0-0.2-0.3-0.2-0.3,0c0,0.7,0.1,1.5,0.3,2.2c0.2,0.7,0.5,1.5,1.1,2
			c0.6,0.5,1.4,0.6,2.1,0.2c0.7-0.4,0.9-1.4,0.8-2.2c-0.1-0.7-0.3-1.4-0.5-2.2c-0.2-0.6-0.2-1.2-0.5-1.7
			C104.7,68.8,104.5,68.9,104.5,69.1L104.5,69.1z"/>
	</g>
</g>
<path class="st10" d="M100.9,56c0.3,0.8,1.2,1.3,2.1,1c0.8-0.3,1.3-1.2,1-2.1c-0.3-0.8-1.2-1.3-2.1-1C101,54.2,100.6,55.1,100.9,56z
	 M103.1,54.5c0.1,0.2,0,0.5-0.3,0.6c-0.2,0.1-0.5,0-0.6-0.3c-0.1-0.2,0-0.5,0.3-0.6C102.8,54.1,103,54.2,103.1,54.5z"/>
<path class="st11" d="M92.9,53.9c-2.6,0.9-3.9,3.8-3,6.3c0.9,2.6,3.8,3.9,6.3,3c2.6-0.9,3.9-3.8,3-6.3
	C98.3,54.3,95.5,52.9,92.9,53.9z"/>
<path class="st11" d="M108.4,53c-0.9-2.6-3.8-3.9-6.3-3c-2.6,0.9-3.9,3.8-3,6.3c0.9,2.6,3.8,3.9,6.3,3C108,58.4,109.4,55.5,108.4,53
	z"/>
<g>
	<g>
		<path class="st10" d="M107.6,68.8c0.4,0.6,0.8,1.3,1,2c0.2,0.6,0.4,1.5,0.1,2.1c-0.3,0.6-1,1.1-1.6,1c-0.6-0.1-0.9-0.7-1.3-1.1
			c-0.1-0.1-0.3,0.1-0.2,0.2c0.4,0.5,0.8,1.1,1.4,1.1c0.7,0.1,1.5-0.4,1.9-1c0.4-0.7,0.3-1.5,0.1-2.3c-0.2-0.8-0.6-1.7-1.1-2.3
			C107.7,68.5,107.5,68.7,107.6,68.8L107.6,68.8z"/>
	</g>
</g>
<g>
	<g>
		<path class="st10" d="M100.1,65.5c0.1,0,0.1-0.1,0.2-0.1c-0.1-0.1-0.1-0.1-0.2-0.2c-0.1,0.1-0.5,0.2-0.7,0.4
			c-0.3,0.3-0.6,0.7-0.8,1c-0.5,0.7-1,1.5-1.1,2.3c-0.3,2.2,2.5,2.5,4,1.9c1.2-0.5,2.2-1.3,3.4-1.8c1-0.4,2-0.3,3.1-0.3
			c0.8,0,1.7,0,2.3-0.6c0.6-0.6,0.7-1.6,0.4-2.4c-0.8-1.8-3.4-2.2-5.2-2.4c-0.2,0-0.2,0.3,0,0.3c1.5,0.1,3.5,0.4,4.6,1.7
			c0.6,0.7,0.7,2,0,2.7c-0.6,0.6-1.5,0.5-2.3,0.5c-0.8,0-1.5-0.1-2.3,0.1c-1,0.2-1.9,0.8-2.7,1.3c-1,0.6-2.1,1.1-3.3,0.8
			c-0.8-0.2-1.6-0.7-1.5-1.6c0.1-0.9,0.7-1.8,1.2-2.5c0.2-0.3,0.5-0.6,0.8-0.8c0.2-0.1,0.5-0.2,0.6-0.4c0.1-0.1-0.1-0.2-0.2-0.2
			c-0.1,0-0.2,0.1-0.3,0.1C99.8,65.3,99.9,65.6,100.1,65.5L100.1,65.5z"/>
	</g>
</g>
<g>
	<g>
		<path class="st10" d="M86.5,68.1c1.7-3.2,1-6.8,1.8-10.2c0.8-3.2,3.2-6,6.2-7.5c3.5-1.7,7.8-1.2,11.5-0.5c1.8,0.4,3.5,1,4.9,2.4
			c0.9,1,1.7,2,3.2,2.1c0.4,0,0.4-0.6,0-0.6c-1.8-0.1-2.9-2.4-4.4-3.3c-1.4-0.8-3.1-1.2-4.7-1.4c-3.6-0.5-7.4-0.9-10.8,0.7
			c-2.7,1.3-4.9,3.7-6,6.5c-1.4,3.7-0.2,7.9-2.2,11.4C85.8,68.2,86.3,68.5,86.5,68.1L86.5,68.1z"/>
	</g>
</g>
<g>
	<g>
		<path class="st10" d="M111.7,51.6C111.7,51.6,111.7,51.6,111.7,51.6C111.7,51.7,111.7,51.7,111.7,51.6c0,0.1,0,0.2,0.1,0.2
			c0,0,0,0,0,0c0,0,0,0,0,0c0,0,0,0,0,0.1c0,0,0,0.1,0,0.1c0,0,0,0,0,0.1c0-0.1,0,0,0,0c0,0,0,0.1,0,0.1c0,0,0,0,0,0.1c0,0,0,0,0,0
			c0,0,0,0,0,0c0,0,0,0.1-0.1,0.1c-0.1,0.1,0,0.3,0.1,0.4c0.1,0.1,0.3,0,0.4-0.1c0.1-0.2,0.2-0.5,0.2-0.7c0-0.3,0-0.5-0.1-0.7
			c0-0.1-0.1-0.1-0.2-0.1c-0.1,0-0.2,0-0.2,0c-0.1,0-0.1,0.1-0.1,0.2C111.7,51.5,111.7,51.6,111.7,51.6L111.7,51.6z"/>
	</g>
</g>
<g>
	<g>
		<path class="st10" d="M110.7,73.1c-1.9,1.4-3.6,3-6.1,3.1c-2,0.1-3.8,0.1-5.8,0.6c-3.8,0.9-8.3,2.6-11.9,0.1
			c-3.9-2.7-2.3-7.9,1-10.2c3.5-2.5,8.2-2.3,12.2-2c0.4,0,0.4-0.6,0-0.6c-3.6-0.2-7.5-0.4-10.9,1.2c-2.7,1.2-4.9,3.6-5.3,6.7
			c-0.3,2.9,1.4,5.3,4.1,6.3c3.5,1.3,7.2,0.1,10.6-0.8c1.2-0.3,2.4-0.5,3.6-0.6c1.1,0,2.2,0.1,3.2-0.1c2.1-0.4,3.7-1.9,5.5-3.1
			C111.4,73.4,111.1,72.9,110.7,73.1L110.7,73.1z"/>
	</g>
</g>
<g>
	<g>
		<path class="st10" d="M105.1,62.6c2-3.7,4.9-7.7,9.5-7.9c2-0.1,4,0.5,5.3,2.1c1.6,1.9,1.6,4.7,0.8,7c-0.1,0.4,0.5,0.5,0.6,0.2
			c0.9-2.4,0.8-5.2-0.8-7.3c-1.3-1.6-3.3-2.4-5.3-2.5c-5.1-0.1-8.5,4.1-10.7,8.2C104.4,62.7,104.9,63,105.1,62.6L105.1,62.6z"/>
	</g>
</g>
<g>
	<g>
		<path class="st10" d="M95.6,77.7c-1,1-2,2.1-3.2,2.9c-1.3,0.9-2.7,1.1-4.2,1.6c-2.1,0.7-3.9,2-5.2,3.7c-3.3,4.3-3.2,10.1-1.4,15.1
			c0.8,2.1,1.9,4.2,3.7,5.7c2,1.6,4.7,2,7.2,2.3c4.8,0.5,9.7-0.7,11.5-5.6c1.8-5-1-10.1-5.3-12.6c-0.3-0.2-0.6,0.3-0.3,0.5
			c3.9,2.3,6.5,6.7,5.2,11.2c-0.6,2.1-2,4-4,5c-2.2,1.1-4.8,1.1-7.2,0.9c-2.6-0.3-5.4-0.8-7.4-2.6c-1.7-1.5-2.7-3.8-3.3-5.9
			C80.4,95,80.6,89.5,84,85.6c0.8-0.9,1.7-1.7,2.8-2.2c1.2-0.6,2.5-0.9,3.7-1.3c2.3-0.7,3.9-2.3,5.5-4
			C96.3,77.8,95.8,77.4,95.6,77.7L95.6,77.7z"/>
	</g>
</g>
<g>
	<g>
		<path class="st10" d="M95.1,84c-0.5-2.2,0.4-4.6,2.1-6c0.3-0.3-0.1-0.7-0.4-0.4c-1.9,1.6-2.7,4.2-2.2,6.6
			C94.6,84.5,95.2,84.4,95.1,84L95.1,84z"/>
	</g>
</g>
<g>
	<g>
		<path class="st10" d="M100.7,76.4c-1.1,1.9,2.3,3.3,3.5,3.8c2.2,0.8,4.5,1,6.8,0.6c0.4-0.1,0.2-0.6-0.2-0.6
			c-1.9,0.3-3.8,0.2-5.7-0.4c-0.9-0.3-1.8-0.6-2.6-1.1c-0.6-0.4-1.9-1.2-1.4-2C101.4,76.4,100.9,76.1,100.7,76.4L100.7,76.4z"/>
	</g>
</g>
<g>
	<g>
		<path class="st10" d="M110.9,80.8c1.2,0.4,1.9,1.9,1.5,3.1c-0.2,0.8-0.9,1.3-1.5,1.7c-0.6,0.5-1.3,1-2,1.4
			c-1.4,0.9-2.9,1.6-4.5,1.7c-1.7,0.1-3.3-0.2-4.8-1.1c-0.3-0.2-0.6,0.3-0.3,0.5c1.7,0.9,3.6,1.3,5.5,1.1c2-0.3,3.7-1.2,5.3-2.4
			c1.3-0.9,2.9-1.9,2.9-3.6c0-1.4-0.8-2.6-2.1-3.1C110.7,80.1,110.6,80.7,110.9,80.8L110.9,80.8z"/>
	</g>
</g>
<g>
	<g>
		<path class="st10" d="M100.6,107.4c6.4-2.1,8.1-9.1,11-14.4c0.2-0.3-0.3-0.6-0.5-0.3c-2.8,5.1-4.5,12-10.7,14.1
			C100.1,107,100.2,107.5,100.6,107.4L100.6,107.4z"/>
	</g>
</g>
<g>
	<g>
		<path class="st10" d="M112.1,81.1c0.2-1.1,0.5-2.1,0.8-3.2c-0.1,0.1-0.1,0.1-0.2,0.2c0.5-0.2,0.2,1.4,0.3,1.6
			c0.1,0.5,0.5,0.8,1,0.8c0.6,0,1.1-0.3,1.6-0.5c0.5-0.2,1-0.3,1.5-0.2c3.1,0.6,1.1,4.8-0.7,5.7c-1.1,0.6-2.6,0.3-3.3-0.8
			c-0.2-0.3-0.7,0-0.5,0.3c0.7,1.2,2.4,1.7,3.7,1.2c1.6-0.6,2.6-2.2,3-3.7c0.2-0.8,0.2-1.7-0.3-2.3c-0.4-0.5-1-0.9-1.7-1
			c-0.7-0.1-1.4,0-2,0.3c-0.3,0.2-0.8,0.4-1.1,0.4c-0.6,0-0.4-0.7-0.3-1.1c0.1-0.4,0-0.8-0.3-1.1c-0.2-0.2-0.6-0.4-0.9-0.2
			c-0.2,0.1-0.2,0.4-0.2,0.6c-0.1,0.3-0.2,0.6-0.3,0.9c-0.2,0.6-0.3,1.2-0.4,1.8C111.5,81.3,112,81.5,112.1,81.1L112.1,81.1z"/>
	</g>
</g>
<g>
	<g>
		<path class="st10" d="M97.3,109.2c1.1,0.3,2.3,0.7,3.4,1c0.9,0.3,2,0.5,2.8-0.2c0.7-0.6,0.8-1.5,0.2-2.1c-0.7-0.8-1.7-0.8-2.6-1
			c-0.4-0.1-0.5,0.5-0.2,0.6c0.7,0.2,1.6,0.2,2.2,0.7c0.6,0.6,0.3,1.3-0.4,1.6c-0.8,0.3-1.8-0.1-2.6-0.3c-0.9-0.3-1.8-0.5-2.7-0.8
			C97.1,108.5,96.9,109,97.3,109.2L97.3,109.2z"/>
	</g>
</g>
<g>
	<g>
		<path class="st10" d="M102.6,106.6c1.9,0.7,4.1,1.1,6.1,0.8c0.4-0.1,0.8-0.2,1-0.6c0.2-0.4,0.1-0.8-0.1-1.2
			c-0.4-0.7-1.1-1.1-1.8-1.3c-0.9-0.3-1.8-0.3-2.7-0.2c-0.4,0-0.4,0.6,0,0.6c0.8,0,1.7,0,2.5,0.2c0.4,0.1,0.8,0.3,1.1,0.5
			c0.3,0.2,0.8,0.8,0.5,1.2c-0.3,0.3-1,0.3-1.4,0.3c-0.6,0-1.1,0-1.7,0c-1.1-0.1-2.2-0.4-3.2-0.8
			C102.4,105.9,102.2,106.5,102.6,106.6L102.6,106.6z"/>
	</g>
</g>
<g>
	<g>
		<path class="st10" d="M107.1,104.7c2.6-1.4,3.8-4.8,2.8-7.5c-0.1-0.4-0.7-0.2-0.6,0.2c1,2.5-0.1,5.6-2.5,6.9
			C106.4,104.4,106.7,104.9,107.1,104.7L107.1,104.7z"/>
	</g>
</g>
<g>
	<g>
		<path class="st10" d="M107.3,88.2c0.2,1,0.5,1.9,1,2.8c0.2,0.3,0.7,0,0.5-0.3c-0.4-0.8-0.7-1.7-0.9-2.7c0-0.2-0.2-0.3-0.4-0.2
			C107.4,87.9,107.3,88,107.3,88.2L107.3,88.2z"/>
	</g>
</g>
<g>
	<g>
		<path class="st10" d="M115.2,68.4c-4.2,2.6-6.1,7.5-7.3,12.1c-0.1,0.4,0.5,0.5,0.6,0.2c1.2-4.4,3-9.2,7-11.7
			C115.9,68.7,115.6,68.2,115.2,68.4L115.2,68.4z"/>
	</g>
</g>
<g>
	<g>
		<path class="st10" d="M108.7,91.6c7.2,4.8,16.7,3.1,22-3.7c0.2-0.3-0.3-0.6-0.5-0.3c-5.1,6.6-14.3,8-21.1,3.5
			C108.7,90.9,108.4,91.4,108.7,91.6L108.7,91.6z"/>
	</g>
</g>
<g>
	<g>
		<path class="st10" d="M112.7,70.8c-1.2-1.1,0.2-2.7,1.6-2.3c1.3,0.4,2.3,1.7,3.3,2.6c1.8,1.8,3.5,3.7,5.2,5.7
			c1.7,2,3.3,4.1,4.8,6.2c0.7,1.1,1.5,2.1,2.1,3.2c0.4,0.6,0.8,1.2,1,1.9c0.1,0.4,0.2,1.1-0.2,1.5c-0.4,0.4-1.1,0.4-1.3-0.2
			c-0.2-0.4-0.7,0-0.5,0.3c0.3,0.7,1,0.9,1.7,0.7c0.8-0.3,1.1-1.1,1.1-1.9c-0.1-1.4-1.1-2.7-1.9-3.8c-0.9-1.4-1.8-2.7-2.8-4
			c-1.9-2.6-3.9-5-6-7.4c-1.1-1.2-2.2-2.3-3.3-3.4c-0.9-0.9-1.9-1.9-3.2-2.2c-1.8-0.4-3.3,2-1.8,3.4C112.6,71.5,113,71,112.7,70.8
			L112.7,70.8z"/>
	</g>
</g>
<g>
	<g>
		<path class="st10" d="M129.3,70.7c0.8-1.5,2.3-2.6,4-2.9c0.2,0,0.3-0.3,0.2-0.4c-0.9-1.3-2-2.5-3.3-3.5c-0.1-0.1-0.4-0.1-0.5,0.1
			c-0.7,1.7-1.5,3.5-2.2,5.2c-0.1,0.4,0.4,0.7,0.5,0.3c0.7-1.7,1.5-3.5,2.2-5.2c-0.2,0-0.3,0-0.5,0.1c1.2,1,2.3,2.1,3.2,3.4
			c0.1-0.1,0.1-0.3,0.2-0.4c-1.9,0.3-3.5,1.5-4.4,3.1C128.6,70.7,129.1,71,129.3,70.7L129.3,70.7z"/>
	</g>
</g>
<g>
	<g>
		<path class="st10" d="M130.4,90.3c5.1-2.9,4.5-10.2,2.3-14.6c-1.5-3-3.7-5.7-6.1-8.1c-2-2.1-4.5-3.6-7.5-3.5
			c-2.9,0.1-5.4,1.7-6.8,4.2c-0.2,0.3,0.3,0.6,0.5,0.3c1.6-2.9,4.9-4.4,8.2-3.8c3.5,0.7,6.1,4,8.2,6.6c2.3,2.9,4.3,6.3,4.5,10
			c0.2,3.1-0.7,6.7-3.6,8.4C129.8,90,130.1,90.5,130.4,90.3L130.4,90.3z"/>
	</g>
</g>
<g>
	<g>
		<path class="st10" d="M102.7,32.7c0.3,0.7,0.6,1.5,0.9,2.2c0.1,0.4,0.2,0.7,0.5,1c0.1,0.1,0.3,0.2,0.5,0.2c0.3,0,0.4-0.2,0.5-0.4
			c0.1-0.2-0.1-0.5-0.3-0.6c-0.3-0.1-0.5,0.1-0.6,0.3c0.1-0.2,0.2-0.3,0.4-0.2c0.1,0,0.1,0,0,0c0,0,0,0,0,0c0,0,0,0-0.1-0.1
			c0.1,0.1,0-0.1,0,0c0-0.1,0-0.1-0.1-0.2c-0.1-0.3-0.2-0.6-0.3-0.8c-0.2-0.6-0.4-1.1-0.6-1.7c-0.1-0.2-0.3-0.4-0.6-0.3
			C102.8,32.2,102.6,32.5,102.7,32.7L102.7,32.7z"/>
	</g>
</g>
<g>
	<g>
		<path class="st10" d="M105.3,31.8c-0.4,1.1-0.6,2.2-0.6,3.4c0,0.2,0.2,0.5,0.5,0.5c0.2,0,0.5-0.2,0.5-0.5c0-1.1,0.1-2.1,0.6-3.1
			c0.1-0.2-0.1-0.5-0.3-0.6C105.5,31.4,105.3,31.6,105.3,31.8L105.3,31.8z"/>
	</g>
</g>
<g>
	<g>
		<path class="st10" d="M105.2,36.1c0.1-0.1,0.2-0.3,0.4-0.4c0,0,0.1-0.1,0.1-0.1c0,0,0,0,0.1,0c0,0-0.1,0.1,0,0
			c0.1-0.1,0.2-0.1,0.2-0.2c0.1,0,0.2-0.1,0.2-0.1c0,0,0.1,0,0.1-0.1c0,0,0,0,0.1,0c0,0,0.1,0,0,0c-0.1,0,0,0,0,0c0,0,0,0,0.1,0
			c0,0,0.1,0,0.1,0c0.1,0,0.2-0.1,0.3-0.1c0.2-0.1,0.4-0.3,0.3-0.6c-0.1-0.2-0.3-0.4-0.6-0.3c-0.8,0.2-1.6,0.7-2.1,1.3
			c-0.1,0.1-0.1,0.2-0.1,0.3c0,0.1,0,0.2,0.1,0.3C104.8,36.2,105.1,36.3,105.2,36.1L105.2,36.1z"/>
	</g>
</g>
<g>
	<g>
		<path class="st10" d="M73.7,46c0.2,0.1,0.5,0.3,0.7,0.4c0.1,0.1,0.2,0.1,0.3,0.2c0.1,0,0.1,0.1,0.2,0.1c-0.1,0,0,0,0,0
			c0,0,0.1,0,0.1,0.1c0.4,0.3,0.8,0.7,1.1,1.1c0.2,0.2,0.5,0.2,0.6,0c0.2-0.2,0.2-0.5,0-0.6c-0.7-0.8-1.6-1.5-2.6-2.1
			c-0.2-0.1-0.5-0.1-0.6,0.2C73.5,45.6,73.5,45.9,73.7,46L73.7,46z"/>
	</g>
</g>
<g>
	<g>
		<path class="st10" d="M77.4,47.6c-0.6-1.2-0.8-2.5-0.7-3.9c0-0.2-0.2-0.5-0.5-0.5c-0.3,0-0.4,0.2-0.5,0.5c-0.1,1.5,0.2,3,0.8,4.3
			c0.1,0.2,0.4,0.3,0.6,0.2C77.5,48.1,77.5,47.9,77.4,47.6L77.4,47.6z"/>
	</g>
</g>
<g>
	<g>
		<path class="st10" d="M77.7,47.9c0.4-0.9,0.8-1.8,1-2.7c0.1-0.2-0.1-0.5-0.3-0.6c-0.2-0.1-0.5,0.1-0.6,0.3c-0.3,0.9-0.6,1.7-1,2.5
			c-0.1,0.2-0.1,0.5,0.2,0.6C77.3,48.2,77.6,48.1,77.7,47.9L77.7,47.9z"/>
	</g>
</g>
<g>
	<g>
		<path class="st10" d="M115.9,82.8c1.1,0.3,2.4-0.2,3-1.2c0.1-0.1,0-0.3-0.1-0.4c-0.2-0.1-0.3,0-0.4,0.1c-0.5,0.7-1.5,1.1-2.4,0.9
			C115.7,82.1,115.5,82.7,115.9,82.8L115.9,82.8z"/>
	</g>
</g>
<g>
	<g>
		<path class="st10" d="M115.5,85.4c0.8,0.1,1.6,0,2.3-0.4c0.1-0.1,0.2-0.3,0.1-0.4c-0.1-0.1-0.3-0.2-0.4-0.1
			c-0.6,0.3-1.2,0.4-1.9,0.3c-0.2,0-0.3,0-0.4,0.2C115.3,85.2,115.3,85.4,115.5,85.4L115.5,85.4z"/>
	</g>
</g>
<g>
	<g>
		<path class="st10" d="M106.6,106.1c0.8,0,1.6,0.2,2.3,0.5c0.1,0.1,0.3,0,0.4-0.1c0.1-0.1,0-0.3-0.1-0.4c-0.8-0.4-1.7-0.6-2.6-0.6
			C106.3,105.5,106.2,106.1,106.6,106.1L106.6,106.1z"/>
	</g>
</g>
<g>
	<g>
		<path class="st10" d="M101,109c0.8,0.2,1.6,0.5,2.3,1c0.1,0.1,0.3,0,0.4-0.1c0.1-0.2,0-0.3-0.1-0.4c-0.7-0.5-1.5-0.9-2.4-1.1
			c-0.2,0-0.3,0-0.4,0.2C100.7,108.8,100.8,109,101,109L101,109z"/>
	</g>
</g>
<g>
	<g>
		<path class="st10" d="M129.3,65.8c0.8,0.7,1.7,1.4,2.5,2.1c0.1,0.1,0.3,0.1,0.4,0c0.1-0.1,0.1-0.3,0-0.4c-0.8-0.7-1.7-1.4-2.5-2.1
			c-0.1-0.1-0.3-0.1-0.4,0C129.2,65.5,129.2,65.7,129.3,65.8L129.3,65.8z"/>
	</g>
</g>
<g>
	<g>
		<path class="st10" d="M116.7,67.6C116.7,67.6,116.6,67.7,116.7,67.6c0,0,0.1,0,0.2,0c0,0.1,0,0.1,0,0.2c-0.1,0-0.2,0.1-0.3,0.1
			c0.2,0,0.6,0.5,0.8,0.7c0.2,0.2,0.4,0.5,0.7,0.7c0.5,0.5,0.9,1,1.4,1.5c0.9,1,1.8,2.1,2.7,3.2c1.8,2.1,3.5,4.4,5.1,6.6
			c0.2,0.3,0.7,0,0.5-0.3c-2-2.8-4.2-5.6-6.5-8.2c-1.1-1.3-2.3-2.6-3.5-3.9c-0.3-0.3-0.8-1.1-1.3-0.8c-0.4,0.2-0.2,0.6,0,0.8
			c0.1,0.1,0.2,0.1,0.3,0c0,0,0,0,0.1,0C117.3,67.9,117,67.4,116.7,67.6L116.7,67.6z"/>
	</g>
</g>
<g>
	<g>
		<path class="st10" d="M128.8,82.7c0.6,0.7,1.1,1.4,1.4,2.3c0.1,0.2,0.2,0.3,0.4,0.2c0.1,0,0.3-0.2,0.2-0.4
			c-0.4-0.9-0.9-1.8-1.5-2.5c-0.1-0.1-0.3-0.1-0.4,0C128.7,82.4,128.7,82.6,128.8,82.7L128.8,82.7z"/>
	</g>
</g>
<g>
	<g>
		<path class="st10" d="M104.4,98.6c0.7-2.8,2.3-5.3,4.7-6.9c0.3-0.2,0-0.7-0.3-0.5c-2.5,1.8-4.2,4.4-4.9,7.3
			C103.7,98.8,104.3,98.9,104.4,98.6L104.4,98.6z"/>
	</g>
</g>
<g>
	<g>
		<path class="st10" d="M51.2,27.4c5.8-4.5,13.3-4.7,19.6-0.9c6.1,3.7,10.1,9.8,13.9,15.6c0.2,0.3,0.7,0,0.5-0.3
			c-4-6.1-8.2-12.6-14.7-16.2c-6.3-3.5-13.8-3.1-19.5,1.3C50.5,27.2,50.8,27.7,51.2,27.4L51.2,27.4z"/>
	</g>
</g>
<g>
	<g>
		<path class="st10" d="M63.2,22.8c2.3-3.3,6.5-4.4,10.4-4.3c3.7,0.2,7.3,1.6,10.4,3.7c6.7,4.5,10.3,11.9,12.8,19.4
			c0.7,2,1.2,4.1,1.8,6.1c0.1,0.5,0.8,2.4,1.6,1.3c0.2-0.3-0.3-0.6-0.5-0.3c0-0.1-0.6-1.5-0.6-1.8c-0.1-0.5-0.3-1-0.4-1.4
			c-0.3-1-0.6-1.9-0.8-2.9c-0.6-1.9-1.2-3.8-2-5.6c-1.4-3.5-3.2-6.9-5.5-9.8c-4.3-5.4-10.9-9.6-18-9.3c-3.7,0.1-7.4,1.5-9.6,4.6
			C62.4,22.8,63,23.1,63.2,22.8L63.2,22.8z"/>
	</g>
</g>
<g>
	<g>
		<path class="st10" d="M51.2,26.8c-5.1,2.1-7.5,7.4-9,12.4c-1,3.2-1.7,6.5-3.1,9.5c-0.7,1.4-1.5,2.9-3,3.7c-1.4,0.8-3.4,0.5-4.3-1
			c-0.1-0.2-0.6-0.2-0.6,0.2c0.2,3.8,3.9,6.1,7.4,4.5c0.4-0.2,0-0.7-0.3-0.5c-3,1.4-6.3-0.7-6.5-4c-0.2,0.1-0.4,0.1-0.6,0.2
			c1.2,2,4,2.1,5.7,0.8c2.4-1.8,3.4-5.2,4.2-7.9c1.9-6.3,3.4-14.3,10.2-17.2C51.8,27.2,51.5,26.6,51.2,26.8L51.2,26.8z"/>
	</g>
</g>
<g>
	<g>
		<path class="st10" d="M44.5,44.3c-0.4-3.9,0.5-7.9,2.6-11.2c0.2-0.3-0.3-0.6-0.5-0.3c-2.2,3.4-3.1,7.5-2.7,11.5
			C44,44.7,44.6,44.7,44.5,44.3L44.5,44.3z"/>
	</g>
</g>
<g>
	<g>
		<path class="st10" d="M28.8,49.9c0.5,0.7,1,1.4,1.5,2.2c0.1,0.2,0.4,0.3,0.6,0.2c0.2-0.1,0.3-0.4,0.2-0.6c-0.5-0.7-1-1.4-1.5-2.2
			c-0.1-0.2-0.4-0.3-0.6-0.2C28.8,49.4,28.7,49.7,28.8,49.9L28.8,49.9z"/>
	</g>
</g>
<g>
	<g>
		<path class="st10" d="M31.5,51.6c-0.6-1.1-0.9-2.4-0.7-3.7c0-0.2-0.2-0.5-0.5-0.5c-0.3,0-0.4,0.2-0.5,0.5
			c-0.2,1.4,0.2,2.9,0.8,4.1C31,52.6,31.7,52.1,31.5,51.6L31.5,51.6z"/>
	</g>
</g>
<g>
	<g>
		<path class="st10" d="M31.7,51.8c-0.1-1.4,0.4-2.8,1.5-3.8c0.2-0.2,0.2-0.5,0-0.6c-0.2-0.2-0.5-0.2-0.6,0
			c-1.3,1.1-1.9,2.8-1.8,4.4c0,0.2,0.2,0.5,0.5,0.5C31.5,52.3,31.7,52,31.7,51.8L31.7,51.8z"/>
	</g>
</g>
<g>
	<g>
		<path class="st10" d="M45.4,96c-2.9,0.6-5.2,2.6-7.1,4.8c-1.8,2.1-3.6,4.7-3.1,7.7c0.1,0.4,0.6,0.2,0.6-0.2
			c-0.5-2.8,1.4-5.4,3.2-7.4c1.7-2,3.9-3.8,6.6-4.4C46,96.5,45.8,95.9,45.4,96L45.4,96z"/>
	</g>
</g>
<g>
	<g>
		<path class="st10" d="M35.5,109c4.1,4.5,11.1,5.3,16.3,2.2c0.3-0.2,0-0.7-0.3-0.5c-5,2.9-11.6,2.2-15.5-2.2
			C35.7,108.3,35.2,108.7,35.5,109L35.5,109z"/>
	</g>
</g>
<g>
	<g>
		<path class="st10" d="M43.2,97c-0.3-0.4,0.1-0.9,0.6-1.1c0.5-0.2,1,0.2,1.4,0.5c0.5,0.5,0.9,1.3,1.3,1.9c0.8,1.5,1.6,3,2.3,4.6
			c0.7,1.6,1.3,3.2,1.9,4.8c0.3,0.8,0.5,1.5,0.7,2.3c0.1,0.5,0.3,1.1,0,1.6c-0.2,0.3-1,0.7-1.1,0c-0.1-0.4-0.6-0.2-0.6,0.2
			c0.1,0.7,0.8,0.9,1.4,0.8c0.8-0.2,1.1-1.1,1-1.9c-0.1-1.4-0.7-2.8-1.2-4c-0.5-1.3-1-2.6-1.5-3.8c-0.6-1.3-1.2-2.6-1.9-3.9
			c-0.6-1.1-1.1-2.3-2.1-3.1c-0.6-0.5-1.5-0.8-2.2-0.3c-0.6,0.4-0.9,1.1-0.5,1.8C42.9,97.6,43.5,97.3,43.2,97L43.2,97z"/>
	</g>
</g>
<g>
	<g>
		<path class="st10" d="M54.9,100.4c0.9-0.7,2.2-1.1,3.3-0.9c0.2,0,0.4-0.1,0.4-0.4c-0.3-1-0.8-2-1.5-2.8c-0.1-0.2-0.3-0.2-0.5-0.1
			c-0.9,0.9-1.8,1.8-2.7,2.7c-0.3,0.3,0.2,0.7,0.4,0.4c0.9-0.9,1.8-1.8,2.7-2.7c-0.2,0-0.3,0-0.5-0.1c0.6,0.8,1.1,1.7,1.4,2.7
			c0.1-0.1,0.2-0.2,0.4-0.4c-1.4-0.2-2.8,0.2-3.9,1.1c-0.1,0.1-0.1,0.3,0,0.4C54.6,100.5,54.7,100.5,54.9,100.4L54.9,100.4z"/>
	</g>
</g>
<g>
	<g>
		<path class="st10" d="M51,112.6c2.3-0.4,4-2.3,4.8-4.4c0.9-2.7,0.1-5.6-1-8.1c-1.1-2.4-2.4-4.9-5.1-5.8c-2.1-0.7-4.6-0.3-6.3,1.1
			c-0.3,0.2,0.1,0.7,0.4,0.4c1.7-1.3,4-1.6,6-0.8c2.3,0.9,3.5,3.3,4.5,5.4c1,2.3,1.7,4.9,1,7.4c-0.6,2.1-2.2,3.9-4.4,4.2
			C50.5,112.1,50.7,112.7,51,112.6L51,112.6z"/>
	</g>
</g>
<g>
	<g>
		<path class="st10" d="M35.9,108.7c1.6-2.5,4.1-4.3,7-5c0.4-0.1,0.2-0.7-0.2-0.6c-3,0.7-5.7,2.6-7.4,5.3
			C35.1,108.7,35.7,109,35.9,108.7L35.9,108.7z"/>
	</g>
</g>
<g>
	<g>
		<path class="st10" d="M56.2,123.5c1.7,1.2,3.8,1.3,5.9,1.2c1.7-0.1,3.5-0.5,4.6-2c0.2-0.3-0.3-0.6-0.5-0.3c-1,1.3-2.8,1.6-4.4,1.7
			c-1.8,0.1-3.7,0-5.3-1.1C56.2,122.7,55.9,123.2,56.2,123.5L56.2,123.5z"/>
	</g>
</g>
<g>
	<g>
		<path class="st10" d="M66.8,122.3c0.3-4-2.5-7.6-6.2-8.7c-0.4-0.1-0.5,0.5-0.2,0.6c3.5,1,6.1,4.5,5.8,8.2
			C66.2,122.7,66.8,122.7,66.8,122.3L66.8,122.3z"/>
	</g>
</g>
<g>
	<g>
		<path class="st10" d="M57.6,123.9c0,0.2-0.2,0.2-0.4,0.2c-0.3,0-0.4-0.3-0.5-0.6c-0.1-0.5,0.1-1.1,0.3-1.5
			c0.3-1.1,0.7-2.1,1.1-3.1c0.4-1,0.9-2,1.4-3c0.2-0.5,0.5-0.9,0.8-1.4c0.1-0.2,0.3-0.5,0.5-0.7c0.1-0.1,0.2-0.2,0.4-0.2
			c0.1,0,0.5,0.1,0.3,0.3c-0.2,0.3,0.3,0.6,0.5,0.3c0.3-0.4,0-1-0.5-1.2c-0.5-0.2-1.1,0.2-1.4,0.6c-0.6,0.7-1,1.6-1.4,2.4
			c-0.4,0.8-0.8,1.6-1.1,2.5c-0.4,0.9-0.7,1.8-1,2.6c-0.2,0.7-0.6,1.6-0.5,2.4c0.1,0.6,0.4,1,1,1.1c0.5,0.1,1-0.1,1.1-0.6
			C58.2,123.7,57.6,123.6,57.6,123.9L57.6,123.9z"/>
	</g>
</g>
<g>
	<g>
		<path class="st10" d="M54.2,116.9c-0.8-0.1-1.5-0.5-1.9-1.1c-0.1-0.2-0.4-0.2-0.5,0c-0.3,0.6-0.6,1.3-0.7,2c0,0.2,0.1,0.4,0.3,0.4
			c0.8,0,1.7,0.1,2.5,0.1c0.4,0,0.4-0.6,0-0.6c-0.8,0-1.7-0.1-2.5-0.1c0.1,0.1,0.2,0.3,0.3,0.4c0.1-0.6,0.3-1.3,0.6-1.8
			c-0.2,0-0.3,0-0.5,0c0.5,0.8,1.3,1.3,2.3,1.4c0.2,0,0.3,0,0.4-0.2C54.5,117.1,54.4,116.9,54.2,116.9L54.2,116.9z"/>
	</g>
</g>
<g>
	<g>
		<path class="st10" d="M61.6,113.3c-1.3-1-3-0.9-4.4-0.2c-1.6,0.8-2.6,2.3-3.2,3.8c-0.7,1.6-1.3,3.4-0.6,5.1
			c0.6,1.4,1.9,2.5,3.4,2.7c0.4,0.1,0.5-0.5,0.2-0.6c-1.4-0.2-2.5-1.2-3-2.4c-0.6-1.5,0.1-3.2,0.7-4.6c0.6-1.3,1.4-2.6,2.7-3.4
			c1.3-0.7,2.8-0.8,4,0.1C61.6,114.1,61.9,113.5,61.6,113.3L61.6,113.3z"/>
	</g>
</g>
<g>
	<g>
		<path class="st10" d="M66.4,122.2c-1.9,0.3-3.8-0.1-5.4-1.1c-0.3-0.2-0.6,0.3-0.3,0.5c1.7,1.1,3.8,1.5,5.8,1.2
			C66.9,122.7,66.8,122.1,66.4,122.2L66.4,122.2z"/>
	</g>
</g>
<g>
	<g>
		<path class="st10" d="M74.3,58.5c-2.5-2.3-5.8-3.7-9.3-3.7c-2.7-0.1-5.9,0.9-6.9,3.7c-0.1,0.4,0.5,0.5,0.6,0.2
			c0.9-2.7,4.3-3.4,6.8-3.3c3.1,0.2,6,1.5,8.3,3.5C74.2,59.2,74.6,58.7,74.3,58.5L74.3,58.5z"/>
	</g>
</g>
<g>
	<g>
		<path class="st10" d="M58.4,58.5c-0.3-1.7,0.2-3.5,1.3-4.8c0.1-0.1,0.1-0.4-0.1-0.5c-0.9-0.5-1.9-0.2-2.9,0
			c-1.1,0.3-2.2,0.7-3.2,1.2c-2.1,1-4.1,2.3-5.8,3.9c0.2,0.1,0.3,0.2,0.5,0.3c0.3-1.6-0.1-3.1-1.1-4.4c-0.2-0.3-0.7,0.1-0.4,0.4
			c0.9,1.1,1.2,2.5,0.9,3.8c-0.1,0.3,0.3,0.5,0.5,0.3c1.5-1.4,3.3-2.6,5.1-3.5c0.9-0.5,1.9-0.8,2.8-1.2c1-0.3,2.3-0.8,3.2-0.3
			c0-0.2,0-0.3-0.1-0.5c-1.2,1.5-1.8,3.4-1.4,5.4C57.9,59,58.5,58.9,58.4,58.5L58.4,58.5z"/>
	</g>
</g>
<g>
	<g>
		<path class="st10" d="M12.9,100.6c-1-1.3-1.4-2.9-1.3-4.5c0-0.4-0.5-0.4-0.6-0.1c-0.6,1.7-0.9,3.6-0.7,5.4
			c0.1-0.1,0.3-0.2,0.4-0.3c-0.7-0.1-1.3-0.8-2-0.7c-0.6,0.1-1.2,0.5-1.1,1.1c0.1,0.4,0.7,0.2,0.6-0.2c-0.1-0.4,0.6-0.4,0.8-0.3
			c0.5,0.2,0.9,0.5,1.5,0.7c0.2,0,0.4-0.1,0.4-0.3c-0.2-1.8,0-3.6,0.7-5.3c-0.2,0-0.4-0.1-0.6-0.1c-0.2,1.7,0.3,3.5,1.4,4.8
			C12.6,101.2,13.2,100.9,12.9,100.6L12.9,100.6z"/>
	</g>
</g>
<g>
	<g>
		<path class="st10" d="M110.1,100.2c1.5-0.7,2.6-2.1,2.8-3.7c-0.2,0-0.4,0-0.6,0c0.2,1.1,0.7,2.1,1.5,2.9c0.1,0.1,0.3,0.1,0.4,0
			c0.3-0.2,0.6-0.5,0.8-0.8c-0.2,0-0.4,0-0.6-0.1c0.2,0.9,1.2,1.1,2,1.2c1.5,0.1,2.9,0.2,4.4,0.2c0.4,0,0.4-0.6,0-0.6
			c-1.1-0.1-2.2-0.1-3.4-0.2c-0.7,0-2.3,0.1-2.4-0.8c-0.1-0.3-0.4-0.3-0.6-0.1c-0.1,0.2-0.3,0.4-0.6,0.6c0.1,0,0.2,0,0.4,0
			c-0.7-0.7-1.1-1.6-1.3-2.6c-0.1-0.3-0.5-0.3-0.6,0c-0.2,1.5-1.1,2.7-2.5,3.4C109.5,99.9,109.8,100.4,110.1,100.2L110.1,100.2z"/>
	</g>
</g>
<g>
	<g>
		<path class="st10" d="M124,100.1c1.9-0.2,3.9-0.2,5.8-0.1c0.4,0,0.4-0.6,0-0.6c-1.9-0.1-3.9-0.1-5.8,0.1
			C123.6,99.5,123.6,100.1,124,100.1L124,100.1z"/>
	</g>
</g>
<g>
	<g>
		<path class="st10" d="M48.3,123.6c1.5,0,3.1,0,4.6,0c0.4,0,0.4-0.6,0-0.6c-1.5,0-3.1,0-4.6,0C47.9,123,47.9,123.6,48.3,123.6
			L48.3,123.6z"/>
	</g>
</g>
<g>
	<g>
		<path class="st10" d="M67.7,123.9c1.4,0.1,2.9,0.2,4.3,0.2c0.4,0,0.4-0.6,0-0.6c-1.4-0.1-2.9-0.2-4.3-0.2
			C67.3,123.2,67.3,123.8,67.7,123.9L67.7,123.9z"/>
	</g>
</g>
<g>
	<g>
		<path class="st10" d="M73.8,122.3c-1.3-1.2-2.6-2.5-3.9-3.7c-0.1,0.2-0.1,0.3-0.2,0.5c2.6,0.3,4.7,2,6.7,3.7
			c0.2,0.2,0.5,0.1,0.5-0.2c0-1.2,0.1-2.4,0.2-3.6c-0.1,0.1-0.3,0.2-0.4,0.3c0.7,0.2,0.8,1.2,1.2,1.6c0.4,0.4,0.9,0.5,1.3,0.2
			c-0.1-0.1-0.3-0.1-0.4-0.2c0.4,2.1,2.8,2,4.4,1.7c0.4-0.1,0.2-0.6-0.2-0.6c-1.3,0.2-3.3,0.4-3.7-1.3c0-0.2-0.3-0.3-0.4-0.2
			c-0.6,0.4-1-1-1.3-1.3c-0.2-0.3-0.5-0.5-0.8-0.6c-0.2-0.1-0.4,0.1-0.4,0.3c-0.1,1.2-0.2,2.4-0.2,3.6c0.2-0.1,0.3-0.1,0.5-0.2
			c-2.1-1.8-4.3-3.5-7.1-3.8c-0.3,0-0.4,0.3-0.2,0.5c1.3,1.2,2.6,2.5,3.9,3.7C73.6,123,74.1,122.5,73.8,122.3L73.8,122.3z"/>
	</g>
</g>
<g>
	<g>
		<path class="st10" d="M89.3,123.2c1-0.2,2.1-0.3,3.1-0.5c0.2,0,0.3-0.2,0.2-0.4c0-0.2-0.2-0.2-0.4-0.2c-1,0.2-2.1,0.3-3.1,0.5
			c-0.2,0-0.3,0.2-0.2,0.4C88.9,123.1,89.1,123.2,89.3,123.2L89.3,123.2z"/>
	</g>
</g>
<path class="st4" d="M108.5,80.3"/>
<g>
	<g>
		<path class="st10" d="M105.3,49.3c-0.1-1,0-2,0.1-3c0-0.2,0.1-0.5,0.1-0.7c0-0.2,0.1-0.4,0.2-0.6c0.2-0.3,0.6,0,0.7,0.2
			c0.3,0.3,0.4,0.7,0.6,1c0.2,0.5,0.4,0.9,0.6,1.4c0.4,0.9,0.8,1.9,1.3,2.8c0.2,0.4,0.7,0,0.5-0.3c-0.4-0.8-0.8-1.7-1.2-2.5
			c-0.2-0.4-0.4-0.8-0.6-1.2c-0.2-0.4-0.3-0.8-0.6-1.1c-0.3-0.5-0.9-1.1-1.5-0.9c-0.8,0.2-0.8,1.3-0.9,1.9c-0.1,1-0.2,2-0.1,3.1
			C104.7,49.7,105.3,49.7,105.3,49.3L105.3,49.3z"/>
	</g>
</g>
<g>
	<g>
		<path class="st10" d="M87.5,61.3c-2.1-1.4-3.6-3.6-4.2-6c-0.1,0.1-0.2,0.2-0.4,0.4c1.7,0.5,3.4,1.1,5,1.9c0.3,0.2,0.7-0.3,0.3-0.5
			c-1.7-0.8-3.4-1.5-5.2-2c-0.2-0.1-0.4,0.2-0.4,0.4c0.7,2.6,2.3,4.9,4.5,6.4C87.5,62.1,87.8,61.6,87.5,61.3L87.5,61.3z"/>
	</g>
</g>
<path class="st12" d="M23.3,95.4c0,0-5.7,0.2-9.1,3.5c-0.1,0.3-0.2,0.5-0.3,0.8c0,0.4,0.2,0.9,0.4,1.3c0.6,0.6,1.8,1.4,3.9,2.3
	c0,0,2.2-2,5.5-1.9L23.3,95.4z"/>
<circle class="st13" cx="25.4" cy="65.6" r="1.3"/>
<circle class="st13" cx="80.1" cy="63.9" r="1.3"/>
</svg>
