<?xml version="1.0" encoding="utf-8"?>
<!-- Generator: Adobe Illustrator 24.0.1, SVG Export Plug-In . SVG Version: 6.00 Build 0)  -->
<svg version="1.1" id="Layer_1" xmlns="http://www.w3.org/2000/svg" xmlns:xlink="http://www.w3.org/1999/xlink" x="0px" y="0px"
	 viewBox="0 0 141.7 141.7" style="enable-background:new 0 0 141.7 141.7;" xml:space="preserve">
<style type="text/css">
	.st0{fill:#6DB8E6;}
	.st1{fill:#8671B3;}
	.st2{fill:#E1ACCF;}
	.st3{opacity:0.2;fill:url(#SVGID_1_);}
	.st4{opacity:0.2;fill:url(#SVGID_2_);}
	.st5{opacity:0.2;fill:url(#SVGID_3_);}
	.st6{fill:#C9B09D;}
	.st7{fill:#FFFFFF;}
	.st8{fill:#6086C5;}
	.st9{fill:#DD5043;}
	.st10{fill:#18A05D;}
	.st11{fill:#FFC314;}
	.st12{fill:#070707;}
	.st13{fill:none;stroke:#070707;stroke-width:0.3917;stroke-miterlimit:10;}
</style>
<g id="Layer_12">
</g>
<g id="Layer_8">
</g>
<g id="Layer_15">
</g>
<g id="Layer_16">
</g>
<path class="st0" d="M48.8,49.4L48.8,49.4l-1.1-0.4l-1.3-0.7c0,0-1.4-1-1.5-1.1c-0.1,0-1.5-1.4-1.5-1.4L42.8,45l-0.6,0l-0.6-0.1
	l-0.3-0.3l0-0.2l0.2-0.4l0.2-0.4l-0.9-1.4l-0.5-1.3l-1.1-2.3l-0.6-2.4l-0.2-2.2l-0.2-2.2v-1.3l0.9,0.1l1.1-0.4l0.6-0.5l0.3-0.4
	l-1.3-1.3h-1l-0.4,0.2l0.1-1.9l0.1-1.4l0.1-4.6l0.2-1.9l0.3-1.4l-1.1-0.9l-0.6-1l0-1.2l0.6-1c0,0,1.5-1.5,3.3-0.1l0.2,0l0.9-0.9
	l1.4-1l1.3-0.7c0,0,8.2-3.4,14.3,0.4c0,0,2.3-2.1,4.7-0.8l0.8,0.8l0.4,0.9l0.2,0.9v0.6l-0.2,0.5L65,14.3l-0.5,0.6l-0.6,0.6l-0.4,0.1
	l0.3,1.3l0.2,1.6l0,1.5l-0.1,1.3l-0.2,1l0,1.8l0,1.1l0.3,1.1l0.2,0.9l0.6,1.2l1,1.3l0.9,1l1,1.7l0.3,1.2c0,0,0.4,2.7-0.7,5.6
	l-0.3,0.3l-0.4,0.4l-0.2,0.5l-0.1,0.7l-0.1,0.7l0.2,0.6l-0.5,0.6L64.9,44l-1.1,0.8l-1.7,1.1l-2.1,1.1l-2.2,0.9L55,48.8l-2.6,0.8
	l-0.8,0.3l-1.1-0.3l-0.7-0.2h-0.7H48.8z"/>
<path class="st1" d="M87.4,105.1l-0.5,0.5l-0.7,0.7l-0.7,0.8l-1,1.3l-0.7,1.1l-0.5,0.8l-0.7,1.6l-0.6,1.5l-0.7,2.2l-0.4,2l-0.1,1
	l-0.1,3.4l0.2,1.9l0.4,2.1l0.6,1.7l0.8,1.7l0.9,0.6l0.4,0.5l0.4,0.8l0.4,0.6l0.2,0.4l1.3,1.1l2.1,1.3l2.6,1.2l2,0.7l2.3,0.6l2.6,0.4
	h1.6l1.5-0.2l1.4-0.4l0.4-0.1l-0.2-0.7l0.2-1l0.2-0.7l0.8-0.7l1-0.3l0.9,0l0.9,0.2l0.7,0.4l0.1,0.1l0.7-0.6l1.1-0.9l0.9-0.9l0.8-1
	l0.6-0.9l0.6-1.2l0.3-0.4l0.7-0.1l0.6-0.1l0.5-0.5l0.2-0.7l-0.1-0.7l-0.3-0.3l-0.6-0.2h-0.5l-0.1,0c0,0,0.1-2.1,0.1-2.2
	c-0.1,0,0.1-1,0.1-1l0.2-1l0.5-1.4l0.8-1.1l0.8-1l0.7-0.7l0.5-0.5l1.6-1.6l1.1-1.3l0.8-1.1l0.5-0.7l0.4-0.7l0.4-0.9l0.5,0.1l1,0.1
	l1-0.1l0.7-0.5l0.7-0.5l0.8-1.2l0.2-1.1v-1l-0.1-0.9l-0.3-0.6l-0.3-0.4l-0.7-0.5l-0.7-0.3l-0.9-0.3l-0.6-0.1l-0.6-0.1H121l-0.8-2
	l-1.1-1.8l-1.5-1.8l-2-1.8l-2.6-1.8l-2.2-1.1c0,0-4.2-1.8-7.2-1.3l-0.3-1.1l-0.6-0.7l-0.9-0.5l-0.9-0.2l-1.1,0.2l-0.8,0.5l-0.6,0.6
	L98,91.4v0.9l0.1,0.9l0.1,0.5l-1.8,1.4l-1.3,1.3l-1.9,2.2l-4,4.4l1.2,0.9l0.2,0.1L91,106l-1.3,0.2l-1.1-0.3l-0.7-0.4L87.4,105.1z"/>
<path class="st2" d="M43.6,80.7c2.7,4.3,5.4,8.5,8.1,12.8l-21.2,33.3l-1.5-2.4l-0.9-2.3l-0.8-2.5l-0.6-2.3l-0.5-1.7l-0.6-2l-0.9-2.4
	l-1.2-3l-1.2-3l-1-2.8l-0.9-3.1c-0.2-0.8-0.3-1.6-0.5-2.3c-0.1-0.5-0.2-1-0.3-1.5L18,95.5l-1.8-0.8l-0.8-1.4l-0.1-1.8l1.2-1.8l1.6-1
	l1.5-0.4l1.1,0.3l1.2-1.7l2-2l3.9-2.3l5.8-2.4c1.4-0.3,2.7-0.5,4.1-0.8c1,0.1,2.1,0.2,3.1,0.3C41.7,80,42.6,80.4,43.6,80.7z"/>
<linearGradient id="SVGID_1_" gradientUnits="userSpaceOnUse" x1="37.609" y1="29.3909" x2="68.3134" y2="29.3909">
	<stop  offset="0.4133" style="stop-color:#5DB1E3;stop-opacity:0"/>
	<stop  offset="1" style="stop-color:#2484C7"/>
</linearGradient>
<path class="st3" d="M49,49.4L49,49.4l-1.1-0.4l-1.3-0.7c0,0-1.4-1-1.5-1.1c-0.1,0-1.5-1.4-1.5-1.4L43,45l-0.6,0l-0.6-0.1l-0.3-0.3
	l0-0.2l0.2-0.4l0.2-0.4L41,42.2l-0.5-1.3l-1.1-2.3l-0.6-2.4l-0.2-2.2l-0.2-2.2v-1.3l0.9,0.1l1.1-0.4l0.6-0.5l0.3-0.4L40,28.1h-1
	l-0.4,0.2l0.1-1.9l0.1-1.4l0.1-4.6l0.2-1.9l0.3-1.4l-1.1-0.9l-0.6-1l0-1.2l0.6-1c0,0,1.5-1.5,3.3-0.1l0.2,0l0.9-0.9l1.4-1l1.3-0.7
	c0,0,8.2-3.4,14.3,0.4c0,0,2.3-2.1,4.7-0.8l0.8,0.8l0.4,0.9l0.2,0.9v0.6l-0.2,0.5l-0.4,0.6l-0.5,0.6L64,15.5l-0.4,0.1l0.3,1.3
	l0.2,1.6l0,1.5l-0.1,1.3l-0.2,1l0,1.8l0,1.1l0.3,1.1l0.2,0.9l0.6,1.2l1,1.3l0.9,1l1,1.7l0.3,1.2c0,0,0.4,2.7-0.7,5.6l-0.3,0.3
	l-0.4,0.4l-0.2,0.5l-0.1,0.7l-0.1,0.7l0.2,0.6L66,43.1L65.1,44L64,44.8l-1.7,1.1l-2.1,1.1L58,47.9l-2.9,0.9l-2.6,0.8l-0.8,0.3
	l-1.1-0.3l-0.7-0.2h-0.7H49z"/>
<linearGradient id="SVGID_2_" gradientUnits="userSpaceOnUse" x1="80.7304" y1="113.4566" x2="125.8511" y2="113.4566">
	<stop  offset="0.4036" style="stop-color:#965AA4;stop-opacity:0"/>
	<stop  offset="1" style="stop-color:#5F2C8C"/>
</linearGradient>
<path class="st4" d="M87.6,105.1l-0.5,0.5l-0.7,0.7l-0.7,0.8l-1,1.3l-0.7,1.1l-0.5,0.8l-0.7,1.6l-0.6,1.5l-0.7,2.2l-0.4,2l-0.1,1
	l-0.1,3.4l0.2,1.9l0.4,2.1l0.6,1.7l0.8,1.7l0.9,0.6l0.4,0.5l0.4,0.8l0.4,0.6l0.2,0.4l1.3,1.1l2.1,1.3l2.6,1.2l2,0.7l2.3,0.6l2.6,0.4
	h1.6l1.5-0.2l1.4-0.4l0.4-0.1l-0.2-0.7l0.2-1l0.2-0.7l0.8-0.7l1-0.3l0.9,0l0.9,0.2l0.7,0.4l0.1,0.1l0.7-0.6l1.1-0.9l0.9-0.9l0.8-1
	l0.6-0.9l0.6-1.2l0.3-0.4l0.7-0.1l0.6-0.1l0.5-0.5l0.2-0.7l-0.1-0.7l-0.3-0.3l-0.6-0.2h-0.5l-0.1,0c0,0,0.1-2.1,0.1-2.2s0.1-1,0.1-1
	l0.2-1l0.5-1.4l0.8-1.1l0.8-1l0.7-0.7l0.5-0.5l1.6-1.6l1.1-1.3l0.8-1.1l0.5-0.7l0.4-0.7l0.4-0.9l0.5,0.1l1,0.1l1-0.1l0.7-0.5
	l0.7-0.5l0.8-1.2l0.2-1.1v-1l-0.1-0.9l-0.3-0.6l-0.3-0.4l-0.7-0.5l-0.7-0.3l-0.9-0.3l-0.6-0.1l-0.6-0.1h-0.4l-0.8-2l-1.1-1.8
	l-1.5-1.8l-2-1.8l-2.6-1.8l-2.2-1.1c0,0-4.2-1.8-7.2-1.3l-0.3-1.1l-0.6-0.7l-0.9-0.5l-0.9-0.2l-1.1,0.2L99,89.9l-0.6,0.6l-0.3,0.9
	v0.9l0.1,0.9l0.1,0.5l-1.8,1.4l-1.3,1.3l-1.9,2.2l-4,4.4l1.2,0.9l0.2,0.1l0.3,2.1l-1.3,0.2l-1.1-0.3l-0.7-0.4L87.6,105.1z"/>
<linearGradient id="SVGID_3_" gradientUnits="userSpaceOnUse" x1="15.4106" y1="103.1162" x2="51.8639" y2="103.1162">
	<stop  offset="0.4718" style="stop-color:#D985B8;stop-opacity:0"/>
	<stop  offset="1" style="stop-color:#8C3393"/>
</linearGradient>
<path class="st5" d="M43.7,80.7c2.7,4.3,5.4,8.5,8.1,12.8l-21.2,33.3l-1.5-2.4l-0.9-2.3l-0.8-2.5l-0.6-2.3l-0.5-1.7l-0.6-2l-0.9-2.4
	l-1.2-3l-1.2-3l-1-2.8l-0.9-3.1c-0.2-0.8-0.3-1.6-0.5-2.3c-0.1-0.5-0.2-1-0.3-1.5l-1.5,0.1l-1.8-0.8l-0.8-1.4l-0.1-1.8l1.2-1.8
	l1.6-1l1.5-0.4l1.1,0.3l1.2-1.7l2-2l3.9-2.3l5.8-2.4c1.4-0.3,2.7-0.5,4.1-0.8c1,0.1,2.1,0.2,3.1,0.3C41.8,80,42.8,80.4,43.7,80.7z"
	/>
<path class="st6" d="M39.9,28.1l-1.2,0.1L38,28.5l-0.5,0.4l-0.2,0.5l0.1,0.5l0.5,0.5l0.9,0.2l0.7-0.1l0.9-0.3l0.5-0.6l0.5-0.4
	C41.3,29.2,42.3,28.1,39.9,28.1z"/>
<path class="st6" d="M50.1,20.5l-0.6,0.4l-0.8,0.5l-0.4,0.5l-0.1,0.6l0.2,0.5l0.6,0.2l0.8,0.1c0,0,0.6-0.2,0.6-0.2
	c0,0,0.7-0.1,0.7-0.1l0.9-0.1l0.6,0.2l0.7,0.2l0.5,0.1l0.4-0.2l0.3-0.5l0.1-0.6l-0.2-0.4L54,21.4l-0.4-0.3l-0.3-0.2l-0.5-0.2
	L51.5,21l-0.7-0.2l-0.5-0.2L50.1,20.5z"/>
<polygon class="st6" points="64.1,26.5 64.2,27.2 64.5,27.8 64.8,28.4 65.3,28.8 65.6,29.2 65.9,29 66.2,28.8 66.2,28.4 66.1,28 
	65.8,27.7 65.4,27.4 64.9,27.1 64.5,26.8 "/>
<polygon class="st6" points="48.9,49.4 48.4,49.9 48.3,50.4 48.4,50.9 48.1,51 47.5,51.3 47.4,51.5 47.5,51.9 47.5,52.3 47.7,52.6 
	48.4,52.8 49,52.8 49.7,52.7 50.5,52.7 50.9,52.3 51,51.9 50.9,51.5 50.9,51 51.1,50.5 51.3,50 51.5,49.8 51.1,49.7 50.6,49.6 
	49.9,49.4 49.3,49.4 "/>
<path class="st6" d="M66.5,42.6L66.2,42l-0.1-0.8l0.1-0.5l0.3-0.5c0,0,0.7-0.5,0.7-0.5c0,0,0.7-0.3,0.7-0.3l0.7,0l0.7,0.1l0.6,0.2
	l0.5,0.4l0.2,0.5l0,0.5l-0.2,0.5L70,42l-0.6,0.2l-1,0.2l-0.9,0.2L67,42.8L66.5,42.6z"/>
<path class="st6" d="M105.5,105.1l-0.8-0.3l-1-0.2l-0.6,0.1l-0.5,0.2l-0.2,0.2l-0.3,0.3l-0.1,0.4l0.2,0.3l0.2,0.4l0.4,0.4l0.8,0.6
	l1,0.6l0.5,0.4c0,0,0.3,0.4,0.3,0.5c0,0.1,0.6,0.8,0.6,0.8l0.6,0.5l0.9,0.1l0.4-0.4l0.3-0.7v-0.7l-0.1-0.5l-0.2-0.7l-0.4-0.5l-0.4,0
	l-0.7-0.6l-0.4-0.5L105.5,105.1z"/>
<path class="st6" d="M90.7,104l-0.8-0.5l-1-0.5l-0.8-0.2l-0.5,0.1l-0.4,0.3l-0.2,0.4l0,0.6l0.1,0.4l0.4,0.6l0.5,0.4l0.7,0.2l0.7,0.2
	l0.8-0.1l0.7-0.1C91,106.1,93,105.3,90.7,104z"/>
<path class="st6" d="M92.7,108.6l-0.7-0.2l-0.9-0.1l-0.6,0l-0.6,0.2l-0.3,0.4l-0.1,0.3v0.2l-0.1,0.1l-0.1,0.3v0.2l0.3,0.4l1,0.3
	l1.3-0.1l0.7-0.2l0.2-0.1C92.9,110.4,94.3,109.4,92.7,108.6z"/>
<polygon class="st6" points="82.4,129.6 81.7,129.8 80.9,130.1 80.2,130.4 79.6,130.8 79.2,131.2 79,131.5 78.9,131.9 78.9,132.3 
	79.1,132.7 79.5,133.2 79.8,133.4 80.7,133.5 81.8,133.2 82.7,132.8 83.6,132.4 84.6,132.2 84.4,131.8 84.1,131.3 83.8,130.7 
	83.5,130.3 83,129.9 "/>
<path class="st6" d="M102.5,137c-0.1-0.3-0.2-0.5-0.3-0.8c0.1-0.3,0.1-0.6,0.2-0.9c0.2-0.3,0.4-0.6,0.6-1l0.7-0.5l0.8-0.2l1.2,0.1
	c0.5,0.2,0.9,0.4,1.4,0.6c0.2,0.3,0.4,0.6,0.6,0.9c0,0.3,0,0.5-0.1,0.8c-0.2,0.3-0.5,0.5-0.7,0.8l-0.8,0.4l-1.1,0.1l-1.6,0.2
	c-0.1,0-0.3,0-0.5-0.1C102.7,137.2,102.6,137.1,102.5,137z"/>
<circle class="st7" cx="27.3" cy="90.7" r="4.8"/>
<circle class="st7" cx="38.8" cy="86.1" r="4.8"/>
<path class="st7" d="M34,96.7c0.1,0.3,0.1,0.6,0.2,0.9l0.3,1l0.5,0.6l0.6,0.1l0.6-0.1l0.3-0.4l0-0.7l0.4,0.4l0.5,0.2l0.7-0.3
	l0.3-0.6v-0.8l-0.2-0.8l-0.6-0.9h-0.9l-0.7,0.2c-0.2,0-0.4,0.1-0.5,0.1c-0.2,0.1-0.4,0.3-0.6,0.4C34.7,96.2,34.4,96.4,34,96.7z"/>
<path class="st6" d="M33,93.3l-0.6,0.6L32,94.6l-0.4,0.6l-0.1,0.6c0,0,0,0.3,0,0.4s0.4,0.6,0.4,0.6l0.4,0.3h0.9l0.8-0.2l0.8-0.5
	l0.8-0.5l0.8-0.3l0.7-0.2h0.9l0.7-0.2l0.6-0.3l0.3-0.6v-0.5L38.9,93l-0.4-0.5l-0.9-0.3l-0.7-0.1H36l-0.7,0.7l-1.1,0.7l-1,0.1
	L33,93.3z"/>
<path class="st6" d="M24.5,110.7l-0.6,0.1l-0.6,0.3l-0.6,0.5l-0.4,0.5l-0.3,0.4l-0.2,0.4l-0.1,0.5l0.1,0.4c0,0,0.2,0.2,0.2,0.2
	c0,0,0.3,0.1,0.3,0.1l0.3,0l0.2,0.3l0.6,0.1l0.4-0.2l0.5-0.5l0.4-0.7l0.3-0.5l0.2-0.5L24.5,110.7z"/>
<polygon class="st6" points="30.4,126.7 28.9,129.2 28,129.5 27.3,129.5 26.8,129.3 26.4,129.2 26.1,128.6 26.1,127.9 26.3,127.2 
	26.8,126.7 27.7,126.1 28.5,125.6 29.4,125.2 "/>
<circle class="st7" cx="105.1" cy="99.3" r="4.5"/>
<circle class="st7" cx="113.6" cy="106.7" r="4.5"/>
<polygon class="st7" points="103,107.1 102.1,107.8 101.8,108.4 101.5,109 101.5,109.5 102,110 102.4,110 103,109.9 103,110.5 
	103.1,111.1 103.6,111.3 104.3,111.4 104.9,110.8 105.4,110.1 105.7,109.6 105.3,109 104.9,108.4 104.3,107.9 103.5,107.5 "/>
<ellipse class="st7" cx="46.7" cy="16.9" rx="3.9" ry="3.9"/>
<ellipse class="st7" cx="56.5" cy="17.1" rx="3.9" ry="3.9"/>
<polygon class="st7" points="49.8,23.4 49.6,24.2 49.6,24.9 49.9,25.4 50.3,25.8 50.9,25.7 51.4,25.2 51.6,25.6 52.2,25.8 
	52.8,25.6 53.1,25 53.1,24.3 53.1,23.6 52.9,23.4 52.2,23 51.7,23 51.1,23.1 50.6,23.2 50,23.3 "/>
<g>
	<polygon class="st8" points="25.6,52.6 68,119.1 76.1,105.8 42.7,52.6 	"/>
	<path class="st9" d="M42.1,52.6c11.3,17.7,22.7,35.4,34,53.2c2.1-4.3,4.3-8.6,6.4-12.9c-8.6-13.3-17.2-26.7-25.7-40
		C51.9,52.8,47,52.7,42.1,52.6z"/>
	<polygon class="st10" points="51.7,93.5 59.7,106.2 41.5,135.4 24.9,135.4 	"/>
	<polygon class="st11" points="41.5,135.4 59.7,106.2 68,119.1 57,135.4 	"/>
</g>
<g>
	<g>
		<path class="st12" d="M43.4,80.6c-3.9-1.9-8.2-1.3-12.1,0.3c-3.4,1.4-7.3,2.9-9.6,6c-6,8,0.9,18.6,3.6,26.4c1.6,4.5,2,9.6,5,13.5
			c0.1,0.2,0.4,0,0.3-0.2c-2.4-3.2-3.2-7.2-4.2-11c-1.2-4.3-3.2-8.3-4.7-12.4c-1.5-4-2.7-8.5-1.4-12.8c1.3-4.2,4.6-6.4,8.4-8.1
			c4.6-2.1,9.6-3.9,14.5-1.5C43.5,81,43.6,80.7,43.4,80.6L43.4,80.6z"/>
	</g>
</g>
<g>
	<g>
		<path class="st12" d="M19.5,95.3c-1.7,0.5-3.6-0.4-4-2.3c-0.3-1.6,0.7-3.1,2.1-3.9c0.9-0.5,2.2-0.9,3.1-0.3
			c0.2,0.1,0.3-0.2,0.2-0.3c-0.9-0.6-2-0.2-3,0.1c-0.8,0.3-1.5,0.9-2,1.7c-1,1.5-0.9,3.6,0.6,4.8c0.9,0.7,2.1,0.8,3.1,0.5
			C19.8,95.6,19.7,95.3,19.5,95.3L19.5,95.3z"/>
	</g>
</g>
<g>
	<g>
		<path class="st12" d="M32.8,93.7c0,0,0.1-0.1,0.1-0.1c-0.1-0.1-0.1-0.2-0.2-0.2c0,0.1-0.3,0.2-0.4,0.3c-0.2,0.2-0.3,0.4-0.5,0.7
			c-0.3,0.4-0.5,0.9-0.5,1.5c-0.1,1.4,1.6,1.5,2.6,1.1c0.7-0.3,1.3-0.9,1.9-1.2c0.6-0.3,1.2-0.3,1.9-0.3c0.5,0,1.1-0.1,1.4-0.5
			c0.4-0.4,0.4-1.1,0.2-1.6c-0.5-1.2-2.3-1.3-3.4-1.3c-0.2,0-0.2,0.3,0,0.3c0.9,0,2.2,0.1,2.8,0.8c0.4,0.4,0.5,1.1,0.1,1.5
			c-0.3,0.4-0.9,0.4-1.4,0.4c-0.5,0-0.9,0-1.4,0.2c-0.6,0.2-1.1,0.6-1.7,1c-0.6,0.4-1.1,0.7-1.8,0.6c-0.5-0.1-1-0.3-1-0.8
			c0-0.5,0.3-1,0.5-1.5c0.1-0.2,0.3-0.5,0.5-0.6c0.1-0.1,0.3-0.2,0.4-0.3c0.1-0.1,0-0.3-0.2-0.2c-0.1,0-0.1,0.1-0.2,0.1
			C32.5,93.6,32.7,93.9,32.8,93.7L32.8,93.7z"/>
	</g>
</g>
<g>
	<g>
		<path class="st12" d="M37.5,95.4c0.3,0.3,0.5,0.7,0.7,1.1c0.1,0.4,0.3,0.8,0.2,1.2c-0.1,0.4-0.5,0.7-0.9,0.7
			c-0.3,0-0.6-0.4-0.8-0.6c-0.2-0.1-0.4,0.1-0.2,0.2c0.3,0.3,0.6,0.7,1,0.7c0.5,0,0.9-0.3,1.1-0.8c0.2-0.5,0.1-1-0.1-1.5
			c-0.2-0.5-0.4-1-0.8-1.4C37.6,95,37.4,95.3,37.5,95.4L37.5,95.4z"/>
	</g>
</g>
<g>
	<g>
		<g>
			<path class="st12" d="M28.7,129c-0.6,0.4-1.7,0.4-2.2-0.1c-0.3-0.3-0.3-0.8-0.1-1.2c0.2-0.5,0.6-0.9,1.1-1.2
				c0.5-0.4,1-0.6,1.6-0.9c0.2-0.1,0-0.4-0.2-0.3c-0.6,0.3-1.1,0.6-1.6,0.9c-0.5,0.4-1,0.8-1.2,1.4c-0.2,0.5-0.2,1,0.1,1.4
				c0.3,0.4,0.7,0.6,1.2,0.6c0.5,0.1,1.1,0,1.5-0.3C29.1,129.2,28.9,128.9,28.7,129L28.7,129z"/>
		</g>
	</g>
	<g>
		<g>
			<path class="st12" d="M26.9,129.1c-0.3-0.8,0.4-1.5,1.1-1.8c0.2-0.1,0-0.4-0.2-0.3c-0.8,0.4-1.5,1.2-1.2,2.2
				C26.7,129.4,27,129.3,26.9,129.1L26.9,129.1z"/>
		</g>
	</g>
</g>
<path class="st13" d="M43.5,84.6c-0.9-2.6-3.7-3.9-6.2-3c-2.6,0.9-3.9,3.7-3,6.2c0.9,2.6,3.7,3.9,6.2,3C43,90,44.3,87.2,43.5,84.6z"
	/>
<path class="st13" d="M32,89.1c-0.9-2.6-3.7-3.9-6.2-3c-2.6,0.9-3.9,3.7-3,6.2c0.9,2.6,3.7,3.9,6.2,3C31.5,94.5,32.8,91.7,32,89.1z"
	/>
<path class="st12" d="M19.8,91.7c-0.2-0.5-0.8-0.8-1.3-0.6c-0.5,0.2-0.8,0.8-0.6,1.3c0.2,0.5,0.8,0.8,1.3,0.6
	C19.7,92.8,20,92.2,19.8,91.7z"/>
<path class="st12" d="M36.6,91.8c-0.2-0.6-1.3-0.8-2.5-0.4c-1.1,0.4-1.9,1.2-1.7,1.9c0.2,0.6,1.3,0.8,2.5,0.4
	C36,93.3,36.8,92.4,36.6,91.8z"/>
<path class="st12" d="M40.7,84.7c-0.8,0.3-1.3,1.2-1,2c0.3,0.8,1.2,1.3,2,1c0.8-0.3,1.3-1.2,1-2C42.5,84.9,41.6,84.4,40.7,84.7z
	 M42.2,87c-0.2,0.1-0.5,0-0.6-0.3c-0.1-0.2,0-0.5,0.3-0.6c0.2-0.1,0.5,0,0.6,0.3C42.6,86.6,42.4,86.9,42.2,87z"/>
<path class="st12" d="M29.5,89.2c-0.8,0.3-1.3,1.2-1,2c0.3,0.8,1.2,1.3,2,1c0.8-0.3,1.3-1.2,1-2C31.3,89.4,30.3,88.9,29.5,89.2z
	 M31,91.5c-0.2,0.1-0.5,0-0.6-0.3c-0.1-0.2,0-0.5,0.3-0.6c0.2-0.1,0.5,0,0.6,0.3C31.3,91.2,31.2,91.4,31,91.5z"/>
<g>
	<g>
		<path class="st12" d="M35.6,95.7c0.2,0.2,0.2,0.5,0.3,0.8c0.1,0.3,0.2,0.6,0.3,0.9c0.1,0.4,0.3,1.1-0.1,1.5
			c-0.3,0.3-0.8,0.3-1.1,0.1c-0.3-0.2-0.5-0.7-0.7-1c-0.1-0.4-0.2-0.9-0.3-1.3c0-0.2-0.3-0.2-0.3,0c0,0.5,0.1,0.9,0.3,1.4
			c0.2,0.5,0.4,0.9,0.8,1.2c0.4,0.3,1,0.3,1.4,0c0.5-0.3,0.5-0.9,0.4-1.4c-0.1-0.5-0.2-0.9-0.4-1.3c-0.1-0.3-0.2-0.7-0.4-1
			C35.8,95.3,35.5,95.5,35.6,95.7L35.6,95.7z"/>
	</g>
</g>
<g>
	<g>
		<path class="st12" d="M24.6,110.5c-0.9,0.1-1.7,0.8-2.3,1.5c-0.4,0.5-0.8,1.2-0.6,1.8c0.1,0.4,0.5,0.5,0.8,0.6
			c0.2,0,0.2-0.3,0-0.3c-0.3,0-0.6-0.2-0.5-0.6c0-0.3,0.2-0.6,0.3-0.9c0.5-0.8,1.3-1.6,2.3-1.7C24.8,110.8,24.8,110.5,24.6,110.5
			L24.6,110.5z"/>
	</g>
</g>
<g>
	<g>
		<path class="st12" d="M23,113.2c-0.2,0.2-0.5,0.5-0.5,0.9c0,0.3,0.2,0.6,0.5,0.7c0.4,0.1,0.7,0,1-0.3c0.3-0.3,0.6-0.6,0.8-0.9
			c0.2-0.3,0.4-0.7,0.5-1.1c0.1-0.2-0.3-0.3-0.3-0.1c-0.1,0.3-0.2,0.6-0.4,0.8c-0.2,0.3-0.4,0.6-0.6,0.9c-0.2,0.2-0.4,0.4-0.7,0.4
			c-0.1,0-0.3,0-0.4-0.1c-0.1,0-0.1-0.1-0.1-0.2c0-0.3,0.2-0.6,0.4-0.8C23.4,113.3,23.2,113.1,23,113.2L23,113.2z"/>
	</g>
</g>
<g>
	<g>
		<path class="st12" d="M30.4,81.4c0.3-1.5-0.2-3.3-1.7-3.9c-1.3-0.5-2.9,0.2-3,1.7c0,0.5,0.2,1.1,0.7,1c0.6-0.1,0.7-0.7,0.6-1.2
			c-0.5-1.4-2.7-1.5-3.9-1.5c-1.9,0.1-3.8,0.9-5.2,2.3c-0.2,0.1,0.1,0.4,0.2,0.2c1-1,2.3-1.7,3.6-2c1.3-0.3,2.9-0.4,4.1,0.2
			c0.3,0.2,0.6,0.4,0.8,0.7c0.2,0.3,0.2,0.5-0.2,0.5c-0.2,0.2-0.4,0.2-0.4,0c-0.1-0.1,0-0.4,0-0.6c0.2-0.8,0.9-1.3,1.7-1.3
			c1.9,0,2.6,2.1,2.3,3.7C30.1,81.6,30.4,81.7,30.4,81.4L30.4,81.4z"/>
	</g>
</g>
<g>
	<g>
		<path class="st12" d="M31.7,81c-0.5-1.7-1.2-3.3-2.1-4.7c-0.1-0.2-0.4,0-0.3,0.2c1,1.4,1.7,3,2.1,4.7C31.4,81.2,31.7,81.2,31.7,81
			L31.7,81z"/>
	</g>
</g>
<g>
	<g>
		<path class="st12" d="M69.5,134.2c0.1,0,0.1-0.2,0-0.2C69.4,134,69.4,134.2,69.5,134.2L69.5,134.2z"/>
	</g>
</g>
<g>
	<g>
		<path class="st12" d="M67.5,39.5c0.7-2.2,1.3-4.7,0.5-6.9c-0.9-2.2-3-3.5-3.8-5.8c-0.8-2.7,0.1-5.6,0-8.3
			c-0.1-1.9-0.7-3.8-1.9-5.4c-2.7-3.5-7.5-4.6-11.7-4.2c-3.5,0.3-7.2,1.5-9.5,4.3c-1.4,1.6-2.2,3.6-2.4,5.7c-0.2,1.5-0.1,3-0.1,4.4
			c0,1.6-0.2,3.2-0.2,4.8c0,0.2,0.3,0.2,0.3,0c-0.1-2.4,0.1-4.8,0.1-7.1c0-2.2,0.4-4.5,1.6-6.4c1.9-3.1,5.4-4.7,8.9-5.3
			c4.3-0.7,9.1-0.1,12.2,3.3c1.6,1.7,2.3,4,2.3,6.3c0.1,2.2-0.5,4.5-0.2,6.7c0.3,2.1,1.5,3.4,2.8,5c2.1,2.6,1.8,5.6,0.8,8.7
			C67.1,39.6,67.5,39.7,67.5,39.5L67.5,39.5z"/>
	</g>
</g>
<g>
	<g>
		<path class="st12" d="M66.1,42.6c-1.9,1.9-4.1,3.3-6.5,4.4c-2.6,1.1-5.4,1.7-8,2.7c-0.2,0.1-0.1,0.4,0.1,0.3
			c2.7-1,5.5-1.6,8.1-2.7c2.4-1.1,4.7-2.5,6.6-4.4C66.5,42.7,66.3,42.5,66.1,42.6L66.1,42.6z"/>
	</g>
</g>
<g>
	<g>
		<path class="st12" d="M38.1,30.7c-0.3,7.6,3.1,15.6,10.5,18.8c0.2,0.1,0.4-0.2,0.2-0.3c-7.3-3.1-10.6-11-10.3-18.5
			C38.5,30.5,38.1,30.5,38.1,30.7L38.1,30.7z"/>
	</g>
</g>
<g>
	<g>
		<path class="st12" d="M49.9,20.8C49.9,20.8,50,20.8,49.9,20.8c0.1-0.1,0.1-0.2,0.1-0.3c-0.1,0-0.2,0-0.3,0.1
			c-0.2,0.1-0.4,0.2-0.6,0.4c-0.4,0.3-0.7,0.6-0.9,1c-0.4,1,0.9,1.6,1.7,1.5c0.6,0,1.2-0.3,1.7-0.3c0.5,0,1,0.2,1.4,0.3
			c0.4,0.1,0.9,0.3,1.2,0c0.4-0.2,0.6-0.7,0.6-1.2c-0.1-1-1.2-1.6-2-1.9c-0.2-0.1-0.4,0.2-0.2,0.3c0.6,0.3,1.4,0.7,1.8,1.3
			c0.2,0.4,0.1,0.9-0.2,1.2c-0.3,0.2-0.8,0.1-1.1-0.1c-0.4-0.1-0.7-0.3-1.1-0.3c-0.5,0-0.9,0.1-1.4,0.2c-0.5,0.1-1.1,0.2-1.6,0
			c-0.4-0.2-0.8-0.5-0.6-0.9c0.2-0.4,0.6-0.7,0.9-1c0.1-0.1,0.3-0.2,0.4-0.2c0.1,0,0.2,0,0.3-0.1c0.1-0.1,0.1-0.3,0-0.3
			c-0.1,0-0.1,0-0.2,0C49.7,20.5,49.7,20.8,49.9,20.8L49.9,20.8z"/>
	</g>
</g>
<g>
	<g>
		<path class="st12" d="M52.8,23.4c0.1,0.3,0.2,0.7,0.1,1c0,0.3,0,0.7-0.3,1c-0.2,0.2-0.6,0.3-0.8,0.2c-0.2-0.1-0.3-0.4-0.3-0.6
			c-0.1-0.2-0.4,0-0.3,0.2c0.1,0.2,0.2,0.5,0.3,0.6C51.7,26,52,26,52.3,26c0.3-0.1,0.6-0.2,0.7-0.5c0.1-0.3,0.2-0.6,0.2-1
			c0-0.4,0-0.8-0.2-1.1C53,23.1,52.7,23.2,52.8,23.4L52.8,23.4z"/>
	</g>
</g>
<path class="st13" d="M60.4,17.3c0.1-2.1-1.5-4-3.6-4.1c-2.1-0.1-4,1.5-4.1,3.6c-0.1,2.1,1.5,4,3.6,4.1
	C58.5,21.1,60.3,19.5,60.4,17.3z"/>
<path class="st13" d="M50.6,17.1c0.1-2.1-1.5-4-3.6-4.1c-2.1-0.1-4,1.5-4.1,3.6c-0.1,2.1,1.5,4,3.6,4.1
	C48.7,20.9,50.5,19.3,50.6,17.1z"/>
<path class="st12" d="M53.2,20.5c0-0.5-0.7-1-1.7-1.1c-1-0.1-1.8,0.3-1.8,0.9c0,0.5,0.7,1,1.7,1.1C52.4,21.4,53.2,21,53.2,20.5z"/>
<path class="st12" d="M58,17.7c-0.7,0-1.3,0.5-1.3,1.2c0,0.7,0.5,1.3,1.2,1.3c0.7,0,1.3-0.5,1.3-1.2C59.2,18.4,58.7,17.8,58,17.7z
	 M58.3,19.8c-0.2,0-0.3-0.2-0.3-0.4c0-0.2,0.2-0.3,0.4-0.3c0.2,0,0.3,0.2,0.3,0.4C58.7,19.7,58.5,19.8,58.3,19.8z"/>
<path class="st12" d="M48.2,17.4c-0.7,0-1.3,0.5-1.3,1.2c0,0.7,0.5,1.3,1.2,1.3c0.7,0,1.3-0.5,1.3-1.2C49.5,18,48.9,17.4,48.2,17.4z
	 M48.6,19.5c-0.2,0-0.3-0.2-0.3-0.4c0-0.2,0.2-0.3,0.4-0.3c0.2,0,0.3,0.2,0.3,0.4C49,19.3,48.8,19.5,48.6,19.5z"/>
<g>
	<g>
		<path class="st12" d="M51.3,23c0,0.3,0,0.6,0,1c0,0.4-0.1,0.8-0.2,1.1c-0.1,0.1-0.1,0.3-0.2,0.4c-0.1,0.1-0.2,0.1-0.3,0.1
			c-0.4,0-0.7-0.4-0.7-0.8c-0.1-0.5,0-1,0.2-1.5c0.1-0.2-0.2-0.3-0.3-0.1c-0.3,0.8-0.5,2.3,0.6,2.6c1,0.3,1.3-0.9,1.4-1.6
			c0-0.4,0.1-0.9,0-1.3C51.6,22.8,51.3,22.8,51.3,23L51.3,23z"/>
	</g>
</g>
<g>
	<g>
		<path class="st12" d="M59.7,10.8c0.8-0.6,1.8-1.1,2.8-1.1c1,0,1.9,0.5,2.4,1.4c0.5,0.8,0.7,1.7,0.4,2.6c-0.2,0.9-1,1.4-1.7,1.9
			c-0.2,0.1,0,0.4,0.2,0.3c0.7-0.4,1.3-0.8,1.7-1.4c0.4-0.7,0.4-1.5,0.3-2.2c-0.3-1.6-1.7-2.9-3.4-2.7c-1,0.1-1.9,0.6-2.7,1.2
			C59.4,10.6,59.6,10.9,59.7,10.8L59.7,10.8z"/>
	</g>
</g>
<g>
	<g>
		<path class="st12" d="M48.4,50.1c0.7-1.2,2.2-0.2,3.2-0.1c0-0.1,0-0.2,0-0.3c-0.8,0-0.8,1.3-0.8,1.8c0,0.2,0,0.4-0.1,0.6
			c0,0.1-0.1,0.3-0.2,0.3c-0.2,0.1-0.4,0.1-0.6,0.1c-0.4,0-0.8,0-1.2,0c-0.3,0-0.8,0.1-1.1-0.2c-0.4-0.4,0.5-0.6,0.8-0.6
			c0.4,0,0.8,0,1.2,0.1c0.2,0,0.3-0.3,0.1-0.3c-0.7-0.1-1.6-0.3-2.3,0.2c-0.3,0.2-0.3,0.5-0.1,0.8c0.2,0.3,0.6,0.3,0.9,0.3
			c0.5,0,0.9,0,1.4,0c0.4,0,0.8,0.1,1.1-0.3c0.4-0.4,0.3-0.9,0.3-1.4c0-0.3,0-1.2,0.5-1.3c0.2,0,0.2-0.3,0-0.3
			c-0.7,0-1.3-0.3-1.9-0.4c-0.7-0.1-1.2,0.1-1.6,0.7C48,50.1,48.3,50.3,48.4,50.1L48.4,50.1z"/>
	</g>
</g>
<g>
	<g>
		<path class="st12" d="M69.6,41.9c-0.8,0.4-1.7,0.3-2.6,0.6c-0.1,0-0.3,0.1-0.4,0.1c-0.2,0-0.3-0.4-0.3-0.6c-0.1-0.4-0.1-0.8,0-1.2
			c0.4-1.5,2.6-1.6,3.6-0.8c0.3,0.2,0.5,0.6,0.5,0.9C70.4,41.3,70,41.7,69.6,41.9c-0.2,0.1,0,0.4,0.2,0.3c0.8-0.4,1.4-1.4,0.8-2.2
			c-0.5-0.6-1.3-0.8-2-0.9c-0.9,0-1.9,0.3-2.3,1.1c-0.2,0.5-0.3,0.9-0.2,1.4c0,0.4,0.1,1,0.5,1.2c0.2,0.1,0.4,0,0.6-0.1
			c0.3-0.1,0.6-0.1,0.9-0.2c0.6-0.1,1.2-0.1,1.8-0.4C69.9,42.1,69.8,41.8,69.6,41.9z"/>
	</g>
</g>
<g>
	<g>
		<path class="st12" d="M68.5,40.7c0.7-0.1,1.4-0.1,2,0.3c0.2,0.1,0.3-0.2,0.2-0.3c-0.7-0.4-1.5-0.5-2.3-0.3
			C68.2,40.5,68.3,40.8,68.5,40.7L68.5,40.7z"/>
	</g>
</g>
<g>
	<g>
		<path class="st12" d="M41.3,29.1c-0.1,0-0.3,0.2-0.4,0.3c-0.1,0.1-0.2,0.3-0.3,0.4c-0.4,0.4-1,0.6-1.6,0.7c-0.6,0-1.2-0.2-1.5-0.7
			c-0.3-0.5,0.1-1,0.6-1.2c0.5-0.3,1.2-0.3,1.8-0.4c0.2,0,0.2-0.3,0-0.3c-0.6,0-1.3,0.1-1.8,0.4c-0.5,0.2-1.1,0.7-1,1.3
			c0.1,0.6,0.7,1,1.2,1.2c0.6,0.2,1.3,0,1.9-0.3c0.3-0.1,0.5-0.3,0.7-0.5c0.1-0.1,0.2-0.2,0.3-0.3c0-0.1,0.1-0.2,0.2-0.2
			C41.6,29.4,41.5,29.1,41.3,29.1L41.3,29.1z"/>
	</g>
</g>
<g>
	<g>
		<path class="st12" d="M38.8,29.2c-0.2,0.1-0.5,0.2-0.8,0.2c-0.1,0-0.2,0-0.3-0.1c0,0,0,0-0.1,0c0,0,0,0,0,0c0,0,0,0,0,0
			c0-0.1-0.1-0.1-0.1-0.2c-0.1-0.2-0.4-0.1-0.3,0.1c0.1,0.2,0.2,0.3,0.3,0.4c0.1,0.1,0.3,0.1,0.5,0.2c0.3,0,0.7-0.1,1-0.3
			C39.1,29.4,39,29.1,38.8,29.2L38.8,29.2z"/>
	</g>
</g>
<path class="st12" d="M63.4,11.8c-0.1-0.5-0.6-0.8-1.1-0.7c-0.5,0.1-0.8,0.6-0.7,1.1c0.1,0.5,0.6,0.8,1.1,0.7
	C63.3,12.8,63.6,12.3,63.4,11.8z"/>
<g>
	<g>
		<path class="st12" d="M39.1,16.9c-1.1-0.7-2.1-2-1.3-3.3c0.7-1.2,2.4-1.7,3.4-0.6c0.1,0.2,0.4-0.1,0.2-0.2
			c-0.9-0.9-2.3-0.8-3.2-0.1c-1,0.8-1.3,2-0.7,3.1c0.3,0.6,0.9,1.1,1.4,1.5C39.1,17.3,39.3,17.1,39.1,16.9L39.1,16.9z"/>
	</g>
</g>
<path class="st12" d="M38.9,14.2c-0.3,0.2-0.4,0.7-0.1,1c0.2,0.3,0.7,0.4,1,0.1c0.3-0.2,0.4-0.7,0.1-1C39.6,14,39.2,13.9,38.9,14.2z
	"/>
<g>
	<g>
		<path class="st12" d="M63.9,26.5c0.4,0.7,1.3,0.8,1.9,1.3c0.2,0.2,0.4,0.5,0.2,0.8c-0.1,0.2-0.4,0.4-0.6,0.2
			c-0.1-0.2-0.4,0.1-0.2,0.2c0.4,0.5,1.2,0,1.2-0.6c0-0.3-0.2-0.6-0.4-0.9c-0.3-0.3-0.6-0.4-0.9-0.6c-0.4-0.2-0.7-0.4-0.9-0.7
			C64.1,26.1,63.8,26.3,63.9,26.5L63.9,26.5z"/>
	</g>
</g>
<g>
	<g>
		<path class="st12" d="M66.2,28.5c-0.2-0.2-0.4-0.4-0.6-0.6c-0.1-0.1-0.2-0.1-0.2,0c-0.1,0.1-0.1,0.2,0,0.2
			c0.2,0.2,0.4,0.4,0.6,0.6c0.1,0.1,0.2,0.1,0.2,0C66.3,28.7,66.3,28.6,66.2,28.5L66.2,28.5z"/>
	</g>
</g>
<g>
	<g>
		<path class="st12" d="M51.2,8.5c0.4-0.2,0.6-0.6,0.6-1.1c0-0.5-0.3-0.9-0.8-1.1c-1.2-0.5-2.2,0.5-2.7,1.4c-0.1,0.1,0,0.2,0.1,0.2
			c0.7,0,1.3-0.1,2-0.4c0.6-0.3,1.2-0.7,1.5-1.3c0.8-1.4-1.4-2-2.3-2.3c-0.9-0.2-1.8-0.3-2.7-0.2c-0.2,0-0.2,0.3,0,0.3
			c0.9,0,1.7,0,2.6,0.2c0.4,0.1,0.8,0.2,1.2,0.4c0.3,0.1,0.6,0.3,0.9,0.6c0.5,0.7-0.5,1.5-1,1.8c-0.7,0.4-1.4,0.6-2.2,0.6
			c0,0.1,0.1,0.2,0.1,0.2c0.4-0.8,1.1-1.6,2.1-1.3c0.4,0.1,0.7,0.4,0.8,0.8c0,0.4-0.1,0.7-0.4,0.9C50.8,8.3,51,8.6,51.2,8.5
			L51.2,8.5z"/>
	</g>
</g>
<g>
	<g>
		<path class="st12" d="M52.8,8.7c0-1.5,1.1-2.9,2.6-3.1c0.2,0,0.1-0.3-0.1-0.3c-1.6,0.2-2.9,1.8-2.8,3.4
			C52.5,8.9,52.8,8.9,52.8,8.7L52.8,8.7z"/>
	</g>
</g>
<g>
	<g>
		<path class="st12" d="M48.2,50.2c0,0.4,0.1,0.7,0.1,1.1c0,0.1,0,0.2,0.1,0.2c0.1,0.1,0.2,0.1,0.3,0c0.1,0,0.1-0.1,0.1-0.2
			c0-0.1-0.2-0.2-0.3-0.1c-0.1,0.1-0.1,0.1-0.1,0.2c0,0.1,0.2,0.1,0.2,0.1c0,0,0,0,0,0c0,0-0.1,0-0.1,0c0,0,0,0,0,0c0,0,0,0-0.1,0
			c-0.1-0.1,0-0.1,0.1-0.2c0,0,0.1,0,0.1,0c0,0,0,0,0,0c0,0,0,0,0,0c0,0,0-0.1,0-0.1c0,0,0-0.1,0-0.1c0-0.1,0-0.2,0-0.3
			c0-0.2,0-0.4,0-0.6c0-0.1-0.1-0.2-0.2-0.2C48.2,50,48.1,50.1,48.2,50.2L48.2,50.2z"/>
	</g>
</g>
<g>
	<g>
		<path class="st12" d="M47.6,52C47.6,52,47.6,52,47.6,52C47.6,52,47.6,52,47.6,52C47.6,51.9,47.6,51.9,47.6,52
			C47.5,51.9,47.6,51.9,47.6,52C47.6,51.9,47.5,51.9,47.6,52c-0.1-0.1-0.1-0.1-0.1-0.1c0,0,0,0,0,0c0,0,0,0,0,0c0,0,0,0,0,0
			c0,0,0,0,0,0c0,0,0,0,0,0c0,0,0-0.1,0-0.1c0,0,0,0,0,0c0,0,0,0,0,0c0,0,0,0,0-0.1c0,0,0,0,0,0c0,0,0,0,0,0c0,0,0,0,0,0
			c0,0,0-0.1,0.1-0.1c0,0,0,0,0,0c0,0,0,0,0,0c0,0,0,0,0,0c0,0,0,0,0,0c0,0,0,0,0,0c0,0,0,0,0,0c0,0,0.1,0,0.1-0.1c0,0,0,0,0,0
			c0,0,0,0,0.1,0c0,0,0.1,0,0.1,0c0,0,0.1,0,0,0c0,0,0,0,0.1,0c0.1,0,0.2,0,0.2,0c0.1,0,0.2-0.1,0.2-0.2c0-0.1-0.1-0.2-0.2-0.2
			c-0.3,0-0.6,0-0.9,0.2c-0.2,0.2-0.4,0.5-0.3,0.8c0,0.2,0.1,0.3,0.3,0.4c0.1,0,0.2,0,0.2-0.1C47.7,52.1,47.7,52,47.6,52L47.6,52z"
			/>
	</g>
</g>
<g>
	<g>
		<path class="st12" d="M41.5,43.7C41.5,43.7,41.5,43.7,41.5,43.7C41.5,43.8,41.5,43.8,41.5,43.7c0,0.1,0,0.1,0,0.1c0,0,0,0,0,0.1
			c0,0.1-0.1,0.1-0.1,0.2c-0.1,0.2-0.1,0.3-0.1,0.5c0.1,0.4,0.4,0.6,0.8,0.6c0.2,0,0.5,0,0.7-0.1c0.2-0.1,0.1-0.4-0.1-0.3
			c-0.2,0.1-0.4,0.1-0.7,0.1c-0.2,0-0.3-0.1-0.4-0.2c0,0,0-0.1,0-0.1c0,0,0,0,0,0c0,0,0-0.1,0,0c0-0.1,0-0.1,0.1-0.2
			c0.1-0.2,0.2-0.3,0.2-0.5c0-0.1-0.1-0.2-0.2-0.2C41.6,43.6,41.5,43.6,41.5,43.7L41.5,43.7z"/>
	</g>
</g>
<g>
	<g>
		<path class="st12" d="M107.5,134.3c1.8-1.4,3.9-3,4.7-5.3c1-2.8-0.1-5.8,1.3-8.5c1.3-2.6,4-4.3,5.8-6.7c1.3-1.7,2.3-3.7,2.5-5.9
			c0.5-4.7-2.3-9.2-5.9-12.1c-3.6-2.9-8.3-5-13-4.2c-2.7,0.5-5.1,2-7,4c-1.1,1.1-2,2.4-3,3.5c-1.1,1.3-2.4,2.4-3.4,3.7
			c-0.1,0.2,0.1,0.4,0.2,0.2c1.5-1.9,3.3-3.6,4.9-5.5c1.7-2.1,3.7-4,6.2-5c4.6-1.8,9.6-0.2,13.5,2.5c4,2.7,7.5,7,7.3,12.1
			c-0.1,2.6-1.2,4.9-2.8,6.8c-1.5,1.8-3.4,3.3-4.8,5.2c-1.5,2.1-1.5,4.3-1.5,6.7c0,1.9-0.4,3.5-1.6,5c-0.9,1.2-2.1,2.1-3.3,3
			C107.1,134.1,107.3,134.4,107.5,134.3L107.5,134.3z"/>
	</g>
</g>
<g>
	<g>
		<path class="st12" d="M84.3,132.1c2.2,2.4,5.2,3.7,8.2,4.7c3.3,1.1,6.8,1.6,10.1,0.4c0.2-0.1,0.1-0.4-0.1-0.3
			c-3.3,1.2-6.7,0.7-10-0.4c-3-1-5.9-2.3-8-4.6C84.4,131.7,84.1,132,84.3,132.1L84.3,132.1z"/>
	</g>
</g>
<g>
	<g>
		<path class="st12" d="M87.2,105.1c-3.2,2.9-5.5,7.3-6.3,11.5c-0.9,4.4-0.5,8.9,1.5,12.9c0.1,0.2,0.4,0,0.3-0.2
			c-2-4-2.4-8.7-1.4-13.1c0.9-4,3.1-8.1,6.2-10.9C87.6,105.2,87.4,105,87.2,105.1L87.2,105.1z"/>
	</g>
</g>
<g>
	<g>
		<path class="st12" d="M105,105C105,105,105,105.1,105,105c0.1,0,0.1-0.1,0.1-0.2c0.1,0,0.1,0,0-0.1c0,0-0.1-0.1-0.1-0.1
			c-0.1,0-0.1-0.1-0.2-0.1c-0.2-0.1-0.5-0.1-0.7-0.1c-0.5,0-1,0-1.4,0.2c-1.1,0.5-0.6,1.9,0.1,2.5c0.5,0.4,1.1,0.7,1.7,1
			c0.5,0.3,0.8,0.7,1.1,1.3c0.2,0.4,0.5,0.9,0.9,1.1c0.5,0.3,1.1,0.1,1.5-0.2c1-0.9,0.3-2.5-0.2-3.5c-0.1-0.2-0.4,0-0.3,0.2
			c0.4,0.8,1,2.1,0.4,2.9c-0.3,0.4-0.9,0.6-1.3,0.3c-0.4-0.3-0.6-0.7-0.8-1.1c-0.2-0.4-0.5-0.8-0.9-1c-0.5-0.3-1-0.5-1.5-0.8
			c-0.5-0.3-0.9-0.7-1.1-1.3c-0.1-0.4,0-0.8,0.4-1c0.4-0.2,1-0.2,1.5-0.1c0.2,0,0.5,0.1,0.6,0.1c0.1,0.1,0.3,0.2,0.5,0.2
			c0.1,0,0.1-0.2,0-0.3c0,0-0.1-0.1-0.2-0.1C105,104.6,104.8,104.9,105,105L105,105z"/>
	</g>
</g>
<g>
	<g>
		<path class="st12" d="M105.5,109.5c-0.1,0.4-0.4,0.7-0.6,1c-0.2,0.3-0.5,0.6-0.9,0.7c-0.3,0.1-0.8-0.1-0.9-0.4
			c-0.2-0.3,0-0.6,0.1-0.9c0.1-0.2-0.3-0.3-0.3-0.1c-0.1,0.3-0.2,0.6-0.2,0.9c0.1,0.3,0.4,0.6,0.7,0.7c0.3,0.1,0.7,0.1,1,0
			c0.3-0.2,0.6-0.4,0.8-0.7c0.3-0.3,0.5-0.7,0.6-1.1C105.9,109.4,105.6,109.3,105.5,109.5L105.5,109.5z"/>
	</g>
</g>
<path class="st13" d="M116.9,109.8c1.7-1.8,1.7-4.6-0.1-6.4c-1.8-1.7-4.6-1.7-6.4,0.1c-1.7,1.8-1.7,4.6,0.1,6.4
	C112.3,111.7,115.2,111.6,116.9,109.8z"/>
<path class="st13" d="M108.4,102.3c1.7-1.8,1.7-4.6-0.1-6.4c-1.8-1.7-4.6-1.7-6.4,0.1c-1.7,1.8-1.7,4.6,0.1,6.4
	C103.8,104.2,106.6,104.1,108.4,102.3z"/>
<path class="st12" d="M108.1,107.2c0.4-0.4,0.1-1.4-0.7-2.2c-0.8-0.8-1.8-1-2.2-0.6c-0.4,0.4-0.1,1.4,0.7,2.2
	C106.7,107.4,107.7,107.7,108.1,107.2z"/>
<path class="st12" d="M111.8,106c0.8,0.3,1.6-0.2,1.9-0.9c0.3-0.8-0.2-1.6-0.9-1.9c-0.8-0.3-1.6,0.2-1.9,0.9
	C110.6,104.9,111,105.7,111.8,106z M112,103.5c0.2,0.1,0.3,0.3,0.3,0.5c-0.1,0.2-0.3,0.3-0.5,0.3c-0.2-0.1-0.3-0.3-0.3-0.5
	C111.6,103.5,111.8,103.4,112,103.5z"/>
<path class="st12" d="M103.9,98.1c0.8,0.2,1.6-0.3,1.8-1.1c0.2-0.8-0.3-1.6-1.1-1.8c-0.8-0.2-1.6,0.3-1.8,1.1S103.1,97.9,103.9,98.1
	z M103.9,95.6c0.2,0.1,0.4,0.3,0.3,0.5c-0.1,0.2-0.3,0.4-0.5,0.3c-0.2-0.1-0.4-0.3-0.3-0.5C103.5,95.7,103.7,95.5,103.9,95.6z"/>
<g>
	<g>
		<path class="st12" d="M104.6,108.1c-0.1,0.2-0.3,0.4-0.5,0.6c-0.2,0.2-0.4,0.4-0.6,0.6c-0.3,0.3-0.7,0.7-1.2,0.7
			c-0.4,0-0.7-0.4-0.7-0.8c0-0.4,0.3-0.7,0.5-1c0.3-0.3,0.6-0.6,1-0.8c0.2-0.1,0-0.4-0.2-0.3c-0.4,0.2-0.7,0.5-1,0.8
			c-0.3,0.3-0.6,0.7-0.7,1.2c-0.1,0.5,0.3,1,0.7,1.1c0.5,0.2,1-0.1,1.4-0.4c0.3-0.2,0.5-0.5,0.8-0.8c0.2-0.2,0.5-0.4,0.6-0.7
			C104.9,108.1,104.7,107.9,104.6,108.1L104.6,108.1z"/>
	</g>
</g>
<g>
	<g>
		<path class="st12" d="M121.2,103.5c2,0.1,4.4,1,4.5,3.3c0.1,1.1-0.4,2.2-1.1,3c-0.4,0.4-1,0.7-1.5,0.9c-0.7,0.2-1.3-0.1-2-0.2
			c0,0.1,0.1,0.1,0.1,0.2c0,0,0-0.1,0-0.1c0-0.2-0.3-0.2-0.3,0c0,0,0,0.1,0,0.1c0,0.1,0,0.1,0.1,0.2c0.5,0.1,1,0.3,1.6,0.3
			c0.5,0,1-0.2,1.4-0.4c0.8-0.5,1.4-1.3,1.8-2.1c0.3-0.9,0.4-1.9,0.1-2.7c-0.3-0.8-0.9-1.4-1.7-1.8c-0.9-0.5-1.9-0.7-2.9-0.8
			C121,103.2,121,103.5,121.2,103.5L121.2,103.5z"/>
	</g>
</g>
<g>
	<g>
		<path class="st12" d="M81.9,129.8c1.6-0.5,2,1.7,2.8,2.5c0-0.1,0.1-0.2,0.1-0.3c-0.8-0.1-1.5,0.3-2.2,0.6
			c-0.7,0.3-1.5,0.8-2.3,0.7c-0.7-0.1-1.3-0.8-1.2-1.5c0.1-0.6,0.8-1.1,1.3-1.4c0.7-0.4,1.4-0.6,2.1-0.8c0.2-0.1,0.1-0.4-0.1-0.3
			c-0.7,0.2-1.4,0.4-2,0.7c-0.6,0.3-1.3,0.7-1.5,1.4c-0.2,0.7,0.2,1.5,0.8,1.9c0.7,0.5,1.6,0.1,2.3-0.2c0.9-0.4,1.9-1,2.9-0.9
			c0.1,0,0.2-0.2,0.1-0.3c-0.5-0.5-0.8-1.3-1.2-1.9c-0.5-0.6-1.1-0.9-1.9-0.7C81.6,129.6,81.7,129.9,81.9,129.8L81.9,129.8z"/>
	</g>
</g>
<g>
	<g>
		<path class="st12" d="M79.5,132.9c-0.1-0.9,0.7-1.4,1.5-1.6c0.2-0.1,0.1-0.4-0.1-0.3c-0.9,0.2-1.8,0.9-1.7,1.9
			c0,0.1,0.1,0.2,0.2,0.2C79.4,133.1,79.5,133,79.5,132.9L79.5,132.9z"/>
	</g>
</g>
<g>
	<g>
		<path class="st12" d="M106.3,136.8c-1,0.4-2.1,0.1-3.1,0.3c-0.1,0-0.3,0.1-0.5,0c-0.2-0.1-0.2-0.5-0.2-0.7c0-0.5,0-1,0.2-1.4
			c0.4-1,1.4-1.3,2.4-1.3c0.7,0.1,1.5,0.3,2,0.8c0.3,0.3,0.5,0.8,0.3,1.2C107.2,136.3,106.8,136.6,106.3,136.8
			c-0.2,0.1-0.1,0.4,0.1,0.3c0.9-0.3,1.7-1.2,1.3-2.2c-0.4-0.8-1.3-1.2-2.2-1.4c-1-0.2-2.2,0-2.9,0.9c-0.3,0.4-0.5,1-0.5,1.6
			c0,0.5-0.1,1.2,0.3,1.5c0.2,0.1,0.4,0.1,0.6,0.1c0.3-0.1,0.7-0.1,1-0.1c0.8,0,1.6,0,2.3-0.2C106.6,137.1,106.5,136.8,106.3,136.8z
			"/>
	</g>
</g>
<g>
	<g>
		<path class="st12" d="M105.1,135.3c0.8-0.1,1.7,0.1,2.3,0.6c0.2,0.1,0.4-0.1,0.2-0.2c-0.7-0.6-1.7-0.8-2.5-0.7
			C104.9,135,104.9,135.3,105.1,135.3L105.1,135.3z"/>
	</g>
</g>
<g>
	<g>
		<path class="st12" d="M91.1,106c-0.2-0.1-0.4,0-0.6,0c-0.2,0-0.5,0.1-0.7,0.1c-0.7,0-1.4-0.3-2-0.8c-0.4-0.4-0.7-1-0.6-1.6
			c0.1-0.6,0.7-0.8,1.3-0.7c0.8,0.1,1.5,0.6,2.1,1.1c0.2,0.1,0.3-0.2,0.2-0.3c-0.6-0.5-1.3-0.9-2.1-1.1c-0.6-0.1-1.4-0.1-1.7,0.6
			c-0.3,0.5-0.1,1.2,0.2,1.7c0.4,0.6,1,1,1.7,1.2c0.4,0.1,0.8,0.2,1.3,0.1c0.2,0,0.3-0.1,0.5-0.1c0.1,0,0.3-0.1,0.3,0
			C91.1,106.4,91.3,106.1,91.1,106L91.1,106z"/>
	</g>
</g>
<g>
	<g>
		<path class="st12" d="M88.9,104.2c-0.1,0-0.2,0-0.2-0.1c0,0-0.1,0-0.1,0c0,0,0,0-0.1,0c0,0,0,0,0,0c-0.2-0.1-0.3-0.2-0.4-0.3
			c-0.1-0.1-0.1-0.1-0.1-0.2c0,0,0-0.1-0.1-0.1c0,0,0,0,0,0c0,0,0,0,0,0c0,0,0,0,0-0.1c0,0,0,0,0-0.1c0,0,0,0,0,0c0,0,0,0,0,0
			c0,0,0-0.1,0-0.1c0,0,0,0,0,0c0,0,0,0,0,0c0,0,0,0,0-0.1c0,0,0-0.1,0-0.1c0-0.1,0-0.2-0.1-0.2c-0.1,0-0.2,0-0.2,0.1
			c-0.2,0.4-0.1,0.8,0.2,1c0.3,0.3,0.7,0.4,1,0.5c0.1,0,0.2,0,0.2-0.1C89,104.4,88.9,104.3,88.9,104.2L88.9,104.2z"/>
	</g>
</g>
<path class="st12" d="M123.7,107.2c0.3-0.5,0-1.2-0.5-1.4c-0.5-0.3-1.2,0-1.4,0.5c-0.3,0.5,0,1.2,0.5,1.4
	C122.8,107.9,123.4,107.7,123.7,107.2z"/>
<g>
	<g>
		<path class="st12" d="M92.8,110.2c-0.7,0.4-1.6,0.5-2.4,0.4c-0.3,0-0.6-0.1-0.8-0.3c-0.1-0.1-0.2-0.2-0.2-0.3
			c0-0.2,0.1-0.3,0.2-0.4c0.1-0.2-0.1-0.4-0.2-0.2c-0.3,0.3-0.4,0.6-0.2,1c0.2,0.3,0.6,0.4,0.9,0.5c1,0.2,2,0.1,2.9-0.4
			C93.2,110.4,93,110.1,92.8,110.2L92.8,110.2z"/>
	</g>
</g>
<g>
	<g>
		<path class="st12" d="M90.5,109.4c-0.2,0-0.7,0.1-0.8-0.1c-0.2-0.2,0.3-0.5,0.4-0.6c0.5-0.3,1.2-0.2,1.7-0.1
			c0.3,0,0.6,0.1,0.8,0.2c0.2,0.1,0.3-0.2,0.1-0.3c-0.3-0.1-0.6-0.2-0.9-0.2c-0.4-0.1-0.7-0.1-1.1-0.1c-0.3,0-0.7,0.1-1,0.3
			c-0.3,0.2-0.6,0.6-0.4,0.9c0.2,0.4,0.8,0.4,1.1,0.3C90.7,109.7,90.7,109.4,90.5,109.4L90.5,109.4z"/>
	</g>
</g>
<g>
	<g>
		<path class="st12" d="M112.4,128.6c0.7,0.2,1.5-0.2,1.7-0.9c0.3-0.7,0-1.4-0.6-1.8c-0.3-0.2-0.8-0.3-1.2-0.2
			c-0.2,0.1-0.1,0.4,0.1,0.3c0.5-0.2,1.1,0.1,1.4,0.6c0.3,0.5,0,1.1-0.4,1.4c-0.3,0.2-0.6,0.3-0.9,0.2
			C112.3,128.3,112.2,128.6,112.4,128.6L112.4,128.6z"/>
	</g>
</g>
<g>
	<g>
		<path class="st12" d="M98.4,93.7c-0.4-1.1-0.6-2.6,0.2-3.5c0.8-0.9,2.4-1.1,3.4-0.4c0.7,0.4,1.1,1.1,1.1,1.9c0,0.2,0.3,0.2,0.3,0
			c0-1.5-1.4-2.6-2.8-2.6c-0.7,0-1.4,0.2-1.9,0.6c-0.6,0.4-0.9,1.1-1,1.7c-0.1,0.8,0.1,1.6,0.3,2.4C98.2,94,98.5,93.9,98.4,93.7
			L98.4,93.7z"/>
	</g>
</g>
<path class="st12" d="M100.2,90.9c-0.4,0-0.8,0.3-0.8,0.8c0,0.4,0.3,0.8,0.8,0.8c0.4,0,0.8-0.3,0.8-0.8
	C101,91.3,100.6,90.9,100.2,90.9z"/>
</svg>
